P2
128 99
225
0 0 0 0 0 0 0 0 0 0 0 0 0 0 0 0 0 0 0 0 0 0 0 0 0 0 0 0 0 0 0 0 0 0 0 0 0 0 0 0 0 0 0 0 0 0 0 0 0 0 0 0 0 0 0 0 0 0 0 0 0 0 0 0 0 0 0 0 0 0 0 0 0 0 0 0 0 1 1 0 0 0 0 0 0 0 0 0 0 0 0 0 0 0 0 0 0 0 0 0 0 0 0 0 0 0 0 0 0 0 0 0 0 0 0 0 0 0 0 0 0 0 0 0 0 0 0 0 
0 0 0 0 0 0 0 0 0 0 0 0 0 0 0 0 0 0 0 0 0 0 0 0 0 0 0 0 0 0 0 0 0 0 0 0 0 0 0 0 0 0 0 0 0 0 0 0 0 0 0 0 0 0 0 0 0 0 0 0 0 0 0 0 0 1 0 0 0 0 0 0 0 0 0 0 0 1 1 0 0 0 0 0 0 0 0 0 0 0 0 0 0 0 0 0 0 0 0 0 0 0 0 0 0 0 0 0 0 0 0 0 0 0 0 0 0 0 0 0 0 0 0 0 0 0 0 0 
0 0 0 0 0 0 0 0 0 0 0 0 0 0 0 0 0 0 0 0 0 0 0 0 0 0 0 0 0 0 0 0 0 0 0 0 0 0 0 0 0 0 0 0 0 0 0 0 0 0 0 1 2 1 1 0 0 0 0 0 0 0 0 1 0 1 0 0 0 0 0 0 0 0 0 0 0 1 1 1 0 0 0 0 0 0 0 0 0 0 0 0 0 0 0 0 0 0 0 0 0 0 0 0 0 0 0 0 0 0 0 0 0 0 0 0 0 0 0 0 0 0 0 0 0 0 0 0 
0 0 0 0 0 0 0 0 0 0 0 0 0 0 0 0 0 0 0 0 0 0 0 0 0 0 0 0 0 0 0 0 0 0 0 0 0 0 0 0 0 0 0 0 3 13 19 19 18 15 18 22 26 26 24 22 20 14 12 13 4 0 1 1 1 0 0 0 0 0 0 0 0 0 0 0 0 1 2 1 0 0 0 0 0 0 0 0 0 0 0 0 0 0 0 0 0 0 0 0 0 0 0 0 0 0 0 0 0 0 0 0 0 0 0 0 0 0 0 0 0 0 0 0 0 0 0 0 
0 0 0 0 0 0 0 0 0 0 0 0 0 0 0 0 0 0 0 0 0 0 0 0 0 0 0 0 0 0 0 0 0 0 0 0 0 0 0 0 4 7 22 24 24 31 48 71 92 108 123 133 137 137 133 124 112 95 75 52 36 19 15 13 2 1 0 0 0 0 0 0 0 0 0 0 0 0 0 0 0 0 0 0 0 0 0 0 0 0 0 0 0 0 0 0 0 0 0 0 0 0 0 0 0 0 0 0 0 0 0 0 0 0 0 0 0 0 0 0 0 0 0 0 0 0 0 0 
0 0 0 0 0 0 0 0 0 0 0 0 0 0 0 0 0 0 0 0 0 0 0 0 0 0 0 0 0 0 0 0 0 0 0 0 0 1 7 13 25 23 31 57 96 132 153 162 163 163 166 167 166 164 163 164 165 161 154 144 131 107 75 47 24 15 13 1 0 0 0 0 0 0 0 0 0 0 1 0 0 0 0 0 0 0 0 0 0 0 0 0 0 0 0 0 0 0 0 0 0 0 0 0 0 0 0 0 0 0 0 0 0 0 0 0 0 0 0 0 0 0 0 0 0 0 0 0 
0 0 0 0 0 0 0 0 0 0 0 0 0 0 0 0 0 0 0 0 0 0 0 0 0 0 0 0 0 0 0 0 0 0 0 1 7 26 26 24 46 89 136 159 164 165 166 165 163 159 165 173 176 178 180 179 173 166 162 162 164 161 150 135 111 77 43 18 15 2 0 0 0 0 0 0 0 0 0 0 0 0 0 0 0 0 0 0 0 0 0 0 0 0 0 0 0 0 0 0 0 0 0 0 0 0 0 0 0 0 0 0 0 0 0 0 0 0 0 0 0 0 0 0 0 0 0 0 
0 0 0 0 0 0 0 0 0 0 0 0 0 0 0 0 0 0 0 0 0 0 0 0 0 0 0 0 0 0 0 0 0 0 6 27 25 23 53 111 153 162 158 163 166 170 178 187 194 200 202 204 201 192 193 209 218 215 207 192 176 166 166 167 163 147 129 99 54 20 15 1 0 0 0 0 0 0 0 0 0 0 0 0 0 0 0 0 0 0 0 0 0 0 0 0 0 0 0 0 0 0 0 0 0 0 0 0 0 0 0 0 0 0 0 0 0 0 0 0 0 0 0 0 0 0 0 0 
0 0 0 0 0 0 0 0 0 0 0 0 0 0 0 0 0 0 0 0 0 0 0 0 0 0 0 0 0 0 0 0 5 27 25 20 51 118 158 160 155 162 169 180 189 191 193 184 166 145 134 134 135 126 121 124 139 168 194 204 212 210 195 177 167 168 170 156 134 100 49 23 11 0 0 0 0 0 0 0 0 0 0 0 0 0 0 0 0 0 0 0 0 0 0 0 0 0 0 0 0 0 0 0 0 0 0 0 0 0 0 0 0 0 0 0 0 0 0 0 0 0 0 0 0 0 0 0 
0 0 0 0 0 0 0 0 0 0 0 0 0 0 0 0 0 0 0 0 0 0 0 0 0 0 0 0 0 0 0 22 25 18 43 106 156 159 155 166 173 179 195 205 185 155 134 125 123 129 124 123 119 119 128 126 126 118 129 156 173 186 200 210 207 187 172 168 169 153 129 82 32 21 0 0 0 0 0 0 0 0 0 0 0 0 0 0 0 0 0 0 0 0 0 0 0 0 0 0 0 0 0 0 0 0 0 0 0 0 0 0 0 0 0 0 0 0 0 0 0 0 0 0 0 0 0 0 
0 0 0 0 0 0 0 0 0 0 0 0 0 0 0 0 0 0 0 0 0 0 0 0 0 0 0 0 0 9 26 25 28 80 145 160 154 165 173 182 200 201 182 153 124 107 102 98 112 133 141 145 147 151 157 156 144 123 112 122 137 153 170 179 189 205 212 194 172 169 168 148 114 48 23 5 0 0 0 0 0 0 0 0 0 0 0 0 0 0 0 0 0 0 0 0 0 0 0 0 0 0 0 0 0 0 0 0 0 0 0 0 0 0 0 0 0 0 0 0 0 0 0 0 0 0 0 0 
0 0 0 0 0 0 0 0 0 0 0 0 0 0 0 0 0 0 0 0 0 0 0 0 0 0 0 0 17 31 22 45 117 159 156 168 176 182 203 201 169 150 130 123 132 141 139 139 142 127 127 143 140 122 123 139 139 142 145 141 143 153 160 167 174 174 181 197 211 199 171 164 158 133 69 23 10 0 0 0 0 0 0 0 0 0 0 0 0 0 0 0 0 0 0 0 0 0 0 0 0 0 0 0 0 0 0 0 0 0 0 0 0 0 0 0 0 0 0 0 0 0 0 0 0 0 0 0 
0 0 0 0 0 0 0 0 0 0 0 0 0 0 0 0 0 0 0 0 0 0 0 0 0 0 5 21 28 19 67 141 160 165 179 185 199 200 169 150 146 142 145 155 148 138 133 128 129 111 108 107 104 102 105 124 126 124 127 131 138 151 171 173 168 171 175 173 180 198 209 183 160 159 142 80 24 12 0 0 0 0 0 0 0 0 0 0 0 0 0 0 0 0 0 0 0 0 0 0 0 0 0 0 0 0 0 0 0 0 0 0 0 0 0 0 0 0 0 0 0 0 0 0 0 0 0 0 
0 0 0 0 0 0 0 0 0 0 0 0 0 0 0 0 0 0 0 0 0 0 0 0 0 10 22 25 22 88 153 159 174 180 193 207 182 153 152 151 150 150 146 134 126 124 128 126 116 113 110 102 99 105 108 115 128 132 132 131 130 130 135 161 178 175 172 174 173 173 187 208 195 159 159 147 90 27 13 1 0 0 0 0 0 0 0 0 0 0 0 0 0 0 0 0 0 0 0 0 0 0 0 0 0 0 0 0 0 0 0 0 0 0 0 0 0 0 0 0 0 0 0 0 0 0 0 0 
0 0 0 0 0 0 0 0 0 0 0 0 0 0 0 0 0 0 0 0 0 0 0 0 13 20 22 30 104 154 165 173 176 198 196 162 151 162 155 147 145 138 127 123 118 116 127 120 116 113 100 91 89 104 109 102 103 114 120 113 112 114 120 127 141 163 178 175 166 166 170 177 204 203 160 158 150 103 30 13 0 0 0 0 0 0 0 0 0 0 0 0 0 0 0 0 0 0 0 0 0 0 0 0 0 0 0 0 0 0 0 0 0 0 0 0 0 0 0 0 0 0 0 0 0 0 0 0 
0 0 0 0 0 0 0 0 0 0 0 0 0 0 0 0 0 0 0 0 0 0 4 18 17 22 41 118 154 168 170 178 202 187 155 156 159 148 142 137 128 126 118 98 87 87 95 100 85 81 87 94 95 95 96 90 88 91 103 113 110 107 106 110 126 131 143 163 177 169 156 159 169 196 206 164 156 153 115 35 12 0 0 0 0 0 0 0 0 0 0 0 0 0 0 0 0 0 0 0 0 0 0 0 0 0 0 0 0 0 0 0 0 0 0 0 0 0 0 0 0 0 0 0 0 0 0 0 
0 0 0 0 0 0 0 0 0 0 0 0 0 0 0 0 0 0 0 0 0 6 15 13 20 53 126 155 168 169 178 203 179 153 157 155 145 134 125 129 134 114 84 82 89 98 102 97 105 112 122 133 133 133 137 137 138 139 139 141 140 133 120 108 105 113 123 132 146 168 172 153 152 164 195 207 170 157 151 120 39 9 0 0 0 0 0 0 0 0 0 0 0 0 0 0 0 0 0 0 0 0 0 0 0 0 0 0 0 0 0 0 0 0 0 0 0 0 0 0 0 0 0 0 0 0 0 0 
0 0 0 0 0 0 0 0 0 0 0 0 0 0 0 0 0 0 0 0 8 13 14 23 69 129 156 167 168 182 201 170 151 152 150 136 121 120 127 117 104 97 115 131 140 143 139 138 137 133 132 129 129 135 140 147 152 157 160 162 165 167 163 154 129 104 95 105 118 129 146 164 155 146 160 192 206 172 155 150 121 31 5 0 0 0 0 0 0 0 0 0 0 0 0 0 0 0 0 0 0 0 0 0 0 0 0 0 0 0 0 0 0 0 0 0 0 0 0 0 0 0 0 0 0 0 0 0 
0 0 0 0 0 0 0 0 0 0 0 0 0 0 0 0 0 0 0 7 12 12 25 75 129 162 164 167 184 201 166 149 147 141 129 122 123 117 111 109 132 156 163 155 149 144 140 138 133 128 130 132 132 139 144 144 142 145 146 150 154 158 156 164 167 150 118 99 101 113 116 135 163 157 146 161 195 205 173 152 154 109 24 3 0 0 0 0 0 0 0 0 0 0 0 0 0 0 0 0 0 0 0 0 0 0 0 0 0 0 0 0 0 0 0 0 0 0 0 0 0 0 0 0 0 0 0 0 
0 0 0 0 0 0 0 0 0 0 0 0 0 0 0 0 0 0 6 12 16 21 78 127 163 165 164 181 197 162 148 142 132 125 118 103 106 118 136 164 172 160 149 147 149 151 151 148 146 141 147 151 146 151 152 145 141 142 138 137 138 144 146 157 165 167 160 126 97 107 117 117 134 159 158 140 159 201 201 174 151 152 94 18 2 0 0 0 0 0 0 0 0 0 0 0 0 0 0 0 0 0 0 0 0 0 0 0 0 0 0 0 0 0 0 0 0 0 0 0 0 0 0 0 0 0 0 0 
0 0 0 0 0 0 0 0 0 0 0 0 0 0 0 0 0 4 13 16 17 75 123 153 166 163 178 191 157 141 138 125 120 118 104 112 129 143 164 162 150 146 147 150 153 153 150 148 155 161 154 147 145 146 144 139 142 138 134 138 138 139 138 144 150 160 167 162 119 95 105 116 119 129 157 152 130 157 207 186 167 145 143 76 13 0 0 0 0 0 0 0 0 0 0 0 0 0 0 0 0 0 0 0 0 0 0 0 0 0 0 0 0 0 0 0 0 0 0 0 0 0 0 0 0 0 0 0 
0 0 0 0 0 0 0 0 0 0 0 0 0 0 0 0 0 12 11 19 73 120 147 164 155 174 185 162 139 130 125 123 115 111 124 137 140 155 152 145 144 146 146 144 141 135 127 127 139 138 130 124 124 133 132 126 128 124 125 135 140 137 140 137 136 144 156 170 159 110 86 87 97 113 131 156 149 126 171 200 178 160 149 125 56 5 0 0 0 0 0 0 0 0 0 0 0 0 0 0 0 0 0 0 0 0 0 0 0 0 0 0 0 0 0 0 0 0 0 0 0 0 0 0 0 0 0 0 
0 0 0 0 0 0 0 0 0 0 0 0 0 0 0 0 7 9 21 67 113 135 166 153 171 173 175 142 124 122 126 107 113 135 136 128 146 149 140 140 145 144 141 136 132 125 120 118 118 114 111 110 111 126 129 128 122 118 119 121 123 123 125 123 123 129 142 159 174 145 101 87 84 92 106 131 154 143 131 189 187 178 152 145 104 30 2 0 0 0 0 0 0 0 0 0 0 0 0 0 0 0 0 0 0 0 0 0 0 0 0 0 0 0 0 0 0 0 0 0 0 0 0 0 0 0 0 0 
0 0 0 0 0 0 0 0 0 0 0 0 0 0 0 0 11 15 54 110 127 161 157 165 168 168 148 116 118 128 104 120 141 136 116 135 146 139 138 136 129 115 106 99 101 106 106 106 117 116 126 116 109 119 114 111 114 115 117 111 105 114 120 117 118 124 135 144 164 169 127 89 86 91 97 109 135 148 137 154 182 175 172 152 130 74 7 0 0 0 0 0 0 0 0 0 0 0 0 0 0 0 0 0 0 0 0 0 0 0 0 0 0 0 0 0 0 0 0 0 0 0 0 0 0 0 0 0 
0 0 0 0 0 0 0 0 0 0 0 0 0 0 0 6 7 32 105 115 151 162 156 167 158 164 113 104 128 110 120 139 135 110 118 140 140 142 138 121 103 104 104 105 104 108 106 104 109 110 125 122 105 103 94 87 91 98 106 108 110 107 107 108 125 134 141 143 150 169 159 110 79 87 95 100 122 135 140 147 168 169 176 160 140 106 29 2 0 0 0 0 0 0 0 0 0 0 0 0 0 0 0 0 0 0 0 0 0 0 0 0 0 0 0 0 0 0 0 0 0 0 0 0 0 0 0 0 
0 0 0 0 0 0 0 0 0 0 0 0 0 0 1 8 13 76 110 140 155 160 162 151 155 127 93 120 119 112 137 133 105 110 137 134 141 146 132 111 104 105 105 104 104 108 109 109 101 90 99 99 88 82 73 70 69 79 86 94 106 112 111 109 109 114 132 141 143 158 170 143 96 85 91 98 112 124 126 143 169 159 170 166 147 123 67 5 0 0 0 0 0 0 0 0 0 0 0 0 0 0 0 0 0 0 0 0 0 0 0 0 0 0 0 0 0 0 0 0 0 0 0 0 0 0 0 0 
0 0 0 0 0 0 0 0 0 0 0 0 0 0 7 6 38 109 116 153 162 158 148 148 152 93 102 126 114 134 134 106 100 132 149 132 138 140 123 108 105 101 99 92 95 99 101 106 89 69 75 74 70 64 59 58 57 63 63 75 90 106 113 112 108 101 104 130 137 146 165 164 127 91 91 100 111 121 118 119 166 156 154 163 157 126 104 18 0 0 0 0 0 0 0 0 0 0 0 0 0 0 0 0 0 0 0 0 0 0 0 0 0 0 0 0 0 0 0 0 0 0 0 0 0 0 0 0 
0 0 0 0 0 0 0 0 0 0 0 0 0 0 10 12 87 103 141 151 168 137 143 149 123 93 116 120 124 137 106 93 123 150 148 133 147 141 110 102 95 89 80 74 69 73 83 86 82 66 65 70 73 67 64 60 57 57 58 63 74 90 98 110 114 113 107 121 131 135 149 166 156 110 92 97 105 119 116 102 147 167 149 162 165 133 115 40 2 0 0 0 0 0 0 0 0 0 0 0 0 0 0 0 0 0 0 0 0 0 0 0 0 0 0 0 0 0 0 0 0 0 0 0 0 0 0 0 
0 0 0 0 0 0 0 0 0 0 0 0 0 4 8 35 111 111 147 156 154 137 151 136 111 102 121 117 134 117 94 115 147 148 139 147 144 113 93 81 74 64 59 56 57 62 71 82 87 81 85 87 92 89 88 84 79 75 67 64 62 68 78 89 112 115 110 114 123 126 136 156 166 139 99 97 99 118 116 98 127 172 150 162 170 143 116 63 3 0 0 0 0 0 0 0 0 0 0 0 0 0 0 0 0 0 0 0 0 0 0 0 0 0 0 0 0 0 0 0 0 0 0 0 0 0 0 0 
0 0 0 0 0 0 0 0 0 0 0 0 0 5 9 71 106 134 143 163 130 146 146 125 108 103 112 121 128 97 110 143 150 134 138 147 114 82 64 61 57 54 56 59 68 79 90 95 99 98 94 89 97 87 78 82 86 92 93 91 84 74 68 72 97 113 111 107 117 127 133 143 160 164 122 96 98 107 118 95 115 163 147 150 165 156 117 78 6 0 0 0 0 0 0 0 0 0 0 0 0 0 0 0 0 0 0 0 0 0 0 0 0 0 0 0 0 0 0 0 0 0 0 0 0 0 0 0 
0 0 0 0 0 0 0 0 0 0 0 0 0 6 14 95 101 146 140 154 126 154 133 119 101 94 113 129 114 96 138 152 142 129 141 124 86 61 56 55 56 57 67 82 97 100 99 94 82 67 60 57 80 65 57 57 59 59 75 89 98 100 90 77 81 99 113 111 117 127 138 136 144 165 153 103 96 102 115 97 108 149 143 155 161 165 124 91 10 0 0 0 0 0 0 0 0 0 0 0 0 0 0 0 0 0 0 0 0 0 0 0 0 0 0 0 0 0 0 0 0 0 0 0 0 0 0 0 
0 0 0 0 0 0 0 0 0 0 0 0 0 8 28 108 107 140 137 140 141 147 117 118 87 88 124 125 98 106 156 148 140 139 134 99 60 55 55 56 63 78 94 103 100 86 67 60 58 56 57 56 70 56 58 58 58 59 58 57 68 93 102 98 84 87 105 115 120 119 130 135 134 154 172 131 95 100 107 98 104 148 152 157 158 171 124 104 17 0 0 0 0 0 0 0 0 0 0 0 0 0 0 0 0 0 0 0 0 0 0 0 0 0 0 0 0 0 0 0 0 0 0 0 0 0 0 0 
0 0 0 0 0 0 0 0 0 0 0 0 1 6 44 105 125 141 136 139 147 131 115 114 79 101 127 115 92 107 155 141 135 133 113 80 57 54 57 67 83 98 99 92 78 60 56 55 57 57 57 58 56 56 58 57 55 56 57 59 57 67 95 103 99 89 98 126 129 117 118 123 127 136 166 158 96 94 103 92 100 141 152 150 157 176 134 110 28 2 0 0 0 0 0 0 0 0 0 0 0 0 0 0 0 0 0 0 0 0 0 0 0 0 0 0 0 0 0 0 0 0 0 0 0 0 0 0 
0 0 0 0 0 0 0 0 0 0 0 0 3 7 59 103 135 138 131 144 138 119 111 110 83 111 126 108 89 113 149 134 127 123 104 77 59 58 64 82 95 97 89 72 58 58 57 57 58 57 58 58 58 57 58 58 57 57 57 59 60 60 79 96 106 111 121 134 130 122 115 114 115 122 156 168 102 91 100 90 102 132 150 150 156 174 148 117 41 3 0 0 0 0 0 0 0 0 0 0 0 0 0 0 0 0 0 0 0 0 0 0 0 0 0 0 0 0 0 0 0 0 0 0 0 0 0 0 
0 0 0 0 0 0 0 0 0 0 0 0 4 5 70 106 144 137 141 148 129 116 110 117 94 113 121 104 86 116 147 129 121 112 92 90 69 63 80 94 98 94 87 71 60 61 61 59 58 58 60 62 63 63 63 62 59 58 58 61 61 62 67 88 121 135 128 129 131 129 123 116 111 113 135 165 106 89 99 83 103 136 152 156 153 165 161 123 51 3 0 0 0 0 0 0 0 0 0 0 0 0 0 0 0 0 0 0 0 0 0 0 0 0 0 0 0 0 0 0 0 0 0 0 0 0 0 0 
0 0 0 0 0 0 0 0 0 0 0 0 5 9 81 112 148 141 145 145 124 113 108 120 104 115 117 101 93 115 141 118 117 104 83 94 96 89 101 102 96 87 93 90 73 68 67 67 66 69 71 69 71 71 71 69 65 62 62 64 63 67 82 107 125 115 116 131 142 133 124 120 112 104 112 153 124 94 93 80 110 138 149 158 158 161 170 129 61 4 0 0 0 0 0 0 0 0 0 0 0 0 0 0 0 0 0 0 0 0 0 0 0 0 0 0 0 0 0 0 0 0 0 0 0 0 0 0 
0 0 0 0 0 0 0 0 0 0 0 0 4 9 86 116 147 146 155 146 122 121 112 120 108 115 113 101 96 111 128 116 118 96 82 107 135 134 133 127 102 80 95 116 112 87 77 76 77 79 80 79 81 79 79 76 74 69 66 64 68 88 122 115 97 86 81 84 110 121 115 110 113 107 103 129 144 102 88 87 119 142 147 159 159 163 176 136 75 6 0 0 0 0 0 0 0 0 0 0 0 0 0 0 0 0 0 0 0 0 0 0 0 0 0 0 0 0 0 0 0 0 0 0 0 0 0 0 
0 0 0 0 0 0 0 0 0 0 0 0 4 13 87 123 143 145 161 142 118 126 107 125 117 114 112 99 97 106 122 116 111 93 101 103 90 72 63 62 64 71 90 109 106 108 101 87 88 88 89 87 91 90 89 86 80 73 71 73 94 118 96 73 59 54 57 63 90 112 111 107 102 108 109 114 146 115 92 105 134 139 140 152 155 160 178 140 87 9 0 0 0 0 0 0 0 0 0 0 0 0 0 0 0 0 0 0 0 0 0 0 0 0 0 0 0 0 0 0 0 0 0 0 0 0 0 0 
0 0 0 0 0 0 0 0 0 0 0 0 4 15 90 129 141 139 165 137 112 126 109 143 128 123 112 100 95 102 122 117 110 89 69 58 53 52 54 53 52 55 68 89 113 117 115 109 92 93 94 93 98 95 94 93 87 81 80 104 123 91 70 67 61 59 60 69 89 113 112 104 99 108 122 127 134 130 111 129 135 125 135 144 145 159 178 143 95 12 0 0 0 0 0 0 0 0 0 0 0 0 0 0 0 0 0 0 0 0 0 0 0 0 0 0 0 0 0 0 0 0 0 0 0 0 0 0 
0 0 0 0 0 0 0 0 0 0 0 0 6 17 87 131 143 154 171 133 112 125 100 137 140 118 113 111 96 100 121 122 108 64 55 58 56 60 59 60 60 66 76 87 98 118 121 118 100 104 113 105 104 103 100 102 94 95 98 122 100 79 75 72 68 64 65 71 85 111 124 118 116 119 122 139 139 143 139 139 122 112 134 134 133 152 174 146 102 16 0 0 0 0 0 0 0 0 0 0 0 0 0 0 0 0 0 0 0 0 0 0 0 0 0 0 0 0 0 0 0 0 0 0 0 0 0 0 
0 0 0 0 0 0 0 0 0 0 0 0 6 17 89 134 147 158 163 131 113 122 99 124 146 120 113 120 112 104 121 135 92 61 56 57 59 62 64 66 68 74 82 90 95 98 114 118 113 96 90 104 109 108 115 119 108 102 94 113 91 83 78 73 78 81 81 86 95 116 128 120 118 121 117 135 143 149 165 139 119 105 136 129 121 146 170 150 109 22 0 0 0 0 0 0 0 0 0 0 0 0 0 0 0 0 0 0 0 0 0 0 0 0 0 0 0 0 0 0 0 0 0 0 0 0 0 0 
0 0 0 0 0 0 0 0 0 0 0 0 8 16 88 135 146 152 153 128 115 111 101 112 142 134 115 119 116 118 131 142 92 65 64 61 65 74 75 78 79 87 91 93 93 90 101 96 101 81 80 95 113 119 122 101 93 91 107 112 93 86 84 89 87 81 77 80 89 111 124 122 125 123 110 120 151 152 173 153 117 98 132 121 113 139 159 153 114 29 1 0 0 0 0 0 0 0 0 0 0 0 0 0 0 0 0 0 0 0 0 0 0 0 0 0 0 0 0 0 0 0 0 0 0 0 0 0 
0 0 0 0 0 0 0 0 0 0 0 0 9 15 89 134 150 153 151 131 111 101 104 101 135 143 114 100 109 116 146 140 91 70 70 72 78 83 87 89 92 101 100 94 93 91 91 94 101 87 85 109 115 129 135 110 107 105 116 104 93 93 89 81 74 67 68 74 84 110 128 126 121 123 115 110 145 155 173 177 124 94 123 116 105 136 157 156 119 36 2 0 0 0 0 0 0 0 0 0 0 0 0 0 0 0 0 0 0 0 0 0 0 0 0 0 0 0 0 0 0 0 0 0 0 0 0 0 
0 0 0 0 0 0 0 0 0 0 0 0 7 15 92 133 152 152 151 138 101 95 100 87 129 143 118 102 110 116 149 131 85 68 64 67 71 77 86 86 86 95 99 100 96 91 87 90 95 93 88 98 127 141 144 122 108 115 119 99 99 92 86 78 67 60 59 66 81 109 123 125 120 116 110 103 141 158 176 179 121 94 118 115 106 124 156 160 122 43 2 0 0 0 0 0 0 0 0 0 0 0 0 0 0 0 0 0 0 0 0 0 0 0 0 0 0 0 0 0 0 0 0 0 0 0 0 0 
0 0 0 0 0 0 0 0 0 0 0 0 9 14 94 132 155 146 141 133 93 93 87 79 125 144 125 113 113 113 148 129 79 65 63 67 73 78 85 83 88 92 91 91 90 96 91 85 88 82 91 108 129 112 107 122 104 115 116 104 93 87 83 71 62 57 56 62 77 104 122 122 122 114 104 105 140 147 170 179 123 92 113 102 105 118 145 159 123 50 2 0 0 0 0 0 0 0 0 0 0 0 0 0 0 0 0 0 0 0 0 0 0 0 0 0 0 0 0 0 0 0 0 0 0 0 0 0 
0 0 0 0 0 0 0 0 0 0 0 0 8 15 94 133 159 146 109 118 93 86 74 76 123 148 134 150 124 114 145 130 71 67 64 64 70 76 83 85 89 88 88 87 80 86 96 88 90 80 93 120 109 95 97 89 110 106 111 98 91 91 84 66 60 57 58 63 75 101 122 122 117 112 101 114 143 139 165 181 124 93 109 101 107 113 118 151 125 56 3 0 0 0 0 0 0 0 0 0 0 0 0 0 0 0 0 0 0 0 0 0 0 0 0 0 0 0 0 0 0 0 0 0 0 0 0 0 
0 0 0 0 0 0 0 0 0 0 0 0 8 16 96 131 159 147 98 121 99 75 72 75 120 133 143 158 132 117 136 137 73 67 65 69 71 81 89 89 88 87 85 84 80 83 87 82 78 73 93 120 91 81 92 83 98 95 92 108 115 113 81 69 60 57 57 64 75 101 120 118 114 105 98 127 144 140 172 179 124 93 107 100 112 110 112 158 126 60 3 0 0 0 0 0 0 0 0 0 0 0 0 0 0 0 0 0 0 0 1 0 0 0 0 0 0 0 0 0 0 0 0 0 0 0 0 0 
0 0 0 0 0 0 0 0 0 0 0 0 10 17 91 128 159 144 94 119 104 79 71 75 115 138 153 156 136 120 133 147 84 65 67 68 72 82 92 91 87 88 86 87 97 94 86 76 73 72 116 117 92 81 106 95 90 115 89 108 99 95 76 68 60 57 58 62 74 103 121 118 116 104 101 136 151 159 164 176 124 92 105 97 113 103 113 158 121 61 3 0 0 0 0 0 0 0 0 0 0 0 0 0 0 0 0 0 0 0 1 0 0 0 0 0 0 0 0 0 0 0 0 0 0 0 0 0 
0 0 0 0 0 0 0 0 0 0 0 0 8 17 84 128 155 141 88 116 102 76 73 78 104 128 155 162 135 119 127 144 93 62 66 65 74 83 92 89 90 84 86 89 92 94 93 72 76 84 115 72 70 75 94 67 82 122 112 94 95 86 72 64 59 59 60 63 74 100 118 120 118 105 103 130 135 135 140 172 127 96 106 100 117 95 113 149 112 58 2 0 0 0 0 0 0 0 0 0 0 0 0 0 0 0 0 0 0 0 0 0 0 0 0 0 0 0 0 0 0 0 0 0 0 0 0 0 
0 0 0 0 0 0 0 0 0 0 0 0 5 16 83 126 150 142 88 114 106 75 75 77 98 118 154 166 131 114 121 132 97 57 59 64 69 82 91 95 90 81 84 81 81 82 85 80 90 91 105 69 70 77 95 71 73 91 130 95 91 86 77 63 57 59 62 67 73 94 116 119 117 109 104 126 124 132 136 170 133 97 104 102 114 88 120 137 108 56 2 0 0 0 0 0 0 0 0 0 0 0 0 0 0 0 0 0 0 0 0 0 0 0 0 0 0 0 0 0 0 0 0 0 0 0 0 0 
0 0 0 0 0 0 0 0 0 0 0 0 3 16 78 122 143 153 92 106 110 75 72 77 92 110 150 169 129 110 118 131 102 60 57 60 64 78 90 94 84 77 80 80 78 75 75 77 87 104 76 72 68 80 88 75 77 77 119 111 102 95 77 62 54 53 59 63 68 87 112 124 120 114 102 109 126 149 147 165 139 89 104 107 107 83 131 124 103 54 2 0 0 0 0 0 0 0 0 0 0 0 0 0 0 0 0 0 0 0 0 0 0 0 0 0 0 0 0 0 0 0 0 0 0 0 0 0 
0 0 0 0 0 0 0 0 0 1 3 0 0 13 71 114 131 159 106 97 113 83 73 75 89 106 147 166 123 111 113 132 114 68 53 55 66 79 91 94 86 77 78 81 81 96 82 72 80 95 68 71 68 87 89 79 79 78 99 129 107 112 91 75 65 64 66 61 67 91 113 120 117 116 99 107 127 118 137 169 142 83 106 112 96 82 137 115 105 51 1 0 0 0 0 0 0 0 0 0 0 0 0 0 0 0 0 0 0 0 0 0 0 0 0 0 0 0 0 0 0 0 0 0 0 0 0 0 
0 0 0 0 0 0 0 0 0 10 17 2 0 8 62 106 125 149 124 94 108 95 78 72 82 93 144 154 115 109 111 122 123 82 58 57 69 80 91 94 92 84 88 95 88 86 75 71 99 85 76 78 75 87 87 84 80 82 83 142 131 106 90 82 67 61 61 59 68 93 111 115 115 120 112 125 105 95 119 153 139 77 112 108 84 91 138 115 103 47 1 0 0 0 0 0 0 0 0 0 0 0 0 0 0 0 0 0 0 0 0 0 0 0 0 0 0 0 0 0 0 0 0 0 0 0 0 0 
0 0 0 0 0 0 0 0 0 4 2 9 3 6 47 97 122 130 133 97 95 99 90 79 80 92 145 148 104 106 108 107 121 113 74 57 68 84 90 97 102 91 90 92 96 98 92 83 113 74 78 71 73 92 89 82 84 92 100 136 145 111 97 99 80 73 81 76 78 102 116 112 115 133 124 108 99 99 122 134 149 114 115 96 74 109 124 115 101 39 0 0 0 0 0 0 0 0 0 0 0 0 0 0 0 0 0 0 0 0 0 0 0 0 0 0 0 0 0 0 0 0 0 0 0 0 0 0 
0 0 0 0 0 0 0 0 0 1 0 5 4 5 35 85 121 118 138 103 99 105 92 80 75 95 156 148 101 107 124 130 106 100 91 60 67 82 98 97 89 90 96 111 89 84 77 101 121 68 74 71 75 100 89 87 83 88 91 129 148 103 111 110 113 126 139 130 139 145 139 130 163 162 130 123 115 108 117 116 164 136 114 89 86 121 116 119 93 25 0 0 0 2 0 0 0 0 0 0 0 0 0 0 0 0 0 0 0 0 0 0 0 0 0 0 0 0 0 0 0 0 0 0 0 0 0 0 
0 0 0 0 0 0 0 0 0 0 0 5 5 5 25 74 118 115 134 122 103 99 96 83 70 95 159 143 110 110 130 124 109 88 91 64 74 94 111 111 110 102 92 105 91 89 89 109 106 77 73 81 85 98 89 85 87 90 92 121 145 116 116 114 118 131 150 172 183 178 164 166 180 160 122 122 143 133 105 113 167 145 105 91 103 128 149 122 80 15 4 1 8 11 4 0 0 0 0 0 0 0 0 0 0 0 0 0 0 0 0 0 0 0 0 0 0 0 0 0 0 0 0 0 0 0 0 0 
0 0 0 0 0 0 0 0 0 0 0 3 5 5 22 66 113 124 137 130 105 91 89 92 73 106 149 123 126 126 132 125 112 92 90 103 104 110 120 118 118 122 113 100 94 103 97 103 114 92 91 103 92 107 90 89 90 104 118 121 131 130 123 115 133 144 146 157 166 166 182 166 137 135 130 123 149 162 115 115 169 153 96 116 142 135 148 114 59 8 1 3 2 0 0 0 0 0 0 0 0 0 0 0 0 0 0 0 0 0 0 0 0 0 0 0 0 0 0 0 0 0 0 0 0 0 0 0 
0 0 0 0 0 0 0 0 0 0 0 3 5 6 16 53 106 121 139 140 105 94 86 96 86 117 145 108 120 141 146 150 146 137 127 137 138 139 138 135 123 98 85 86 90 91 106 109 109 100 104 88 88 107 90 84 94 107 111 101 97 104 103 109 125 150 165 163 140 147 173 134 118 122 114 144 171 162 121 123 170 165 112 134 155 152 142 104 40 4 0 5 0 0 0 0 0 0 0 0 0 0 0 0 0 0 0 0 0 0 0 0 0 0 0 0 0 0 0 0 0 0 0 0 0 0 0 0 
0 0 0 0 0 0 0 0 0 0 0 4 6 9 15 42 103 118 124 153 111 112 119 103 104 138 151 129 104 125 174 197 188 191 180 144 103 93 94 94 90 82 84 76 74 78 95 102 121 105 102 74 67 82 85 107 97 97 77 78 88 91 89 92 110 140 184 187 163 164 172 141 131 116 108 129 130 121 120 137 168 185 144 154 166 109 105 95 25 3 0 4 0 0 0 0 0 0 0 0 0 0 0 0 0 0 0 0 0 0 0 0 0 0 0 0 0 0 0 0 0 0 0 0 0 0 0 0 
0 0 0 0 0 0 0 0 0 0 0 7 8 12 16 28 98 119 116 155 137 139 154 129 116 140 139 124 95 126 173 191 177 171 138 103 84 78 87 98 107 96 91 72 59 61 93 93 103 94 99 75 58 99 95 77 76 90 74 61 78 95 88 82 102 131 159 182 181 180 166 126 123 110 115 117 109 75 99 137 157 178 164 192 151 101 126 76 15 4 1 5 0 0 0 0 0 0 0 0 0 0 0 0 0 0 0 0 0 0 0 0 0 0 0 0 0 0 0 0 0 0 0 0 0 0 0 0 
0 0 0 0 0 0 0 0 0 0 0 3 13 7 9 18 57 115 129 120 157 159 171 171 147 167 162 147 114 114 149 168 152 138 156 132 126 87 94 121 135 131 115 89 57 51 81 78 83 67 77 99 94 91 94 78 63 71 83 80 79 86 98 87 96 105 136 159 181 166 140 108 115 104 108 109 107 94 111 120 132 174 164 125 96 102 118 86 17 9 4 6 1 0 0 0 0 0 0 0 0 0 0 0 0 0 0 0 0 0 0 0 0 0 0 0 0 0 0 0 0 0 0 0 0 0 0 0 
0 0 0 0 0 0 0 0 0 0 0 4 13 1 6 12 37 105 124 124 147 186 158 167 162 183 203 160 124 108 113 132 149 155 181 166 181 167 128 119 127 124 124 115 72 62 80 92 85 68 95 116 91 92 93 68 54 57 57 74 82 85 82 96 108 118 139 162 166 139 108 101 99 101 105 110 103 105 111 105 142 175 105 81 71 103 122 58 10 5 1 10 1 0 0 0 0 0 0 0 0 0 0 0 0 0 0 0 0 0 0 0 0 0 0 0 0 0 0 0 0 0 0 0 0 0 0 0 
0 0 0 0 0 0 0 0 0 0 0 5 10 0 1 7 21 83 120 138 139 170 191 154 165 183 204 164 133 111 101 95 113 166 194 187 189 172 129 119 117 113 116 112 76 69 71 72 81 86 113 114 92 98 118 87 60 55 56 78 78 81 98 116 115 123 154 173 167 131 106 116 131 133 122 110 109 123 108 108 159 151 95 81 103 95 104 33 9 6 4 7 1 0 0 0 0 0 0 0 0 0 0 0 0 0 0 0 0 0 0 0 0 0 0 0 0 0 0 0 0 0 0 0 0 0 0 0 
0 0 0 0 0 0 0 0 0 0 0 5 9 0 0 0 10 51 114 138 131 93 147 168 154 151 174 152 125 139 116 85 80 115 144 164 168 161 150 128 110 92 80 81 89 95 90 71 109 136 110 109 108 114 131 121 76 72 75 77 95 100 128 154 150 132 142 153 148 112 98 126 135 146 169 172 147 130 117 119 128 115 88 69 86 83 65 10 11 11 10 6 2 0 0 0 0 0 0 0 0 0 0 0 0 0 0 0 0 0 0 0 0 0 0 0 0 0 0 0 0 0 0 0 0 0 0 0 
0 0 0 0 0 0 0 0 0 0 0 4 9 0 0 1 8 28 97 110 125 82 105 148 132 105 105 116 143 145 119 101 83 78 120 149 163 164 165 117 105 98 115 125 123 120 130 121 134 137 111 98 109 113 135 133 115 91 107 146 138 125 128 158 174 140 113 88 84 81 86 110 131 132 165 184 186 165 132 137 129 138 88 60 71 97 36 3 0 3 9 7 2 0 0 0 0 0 0 0 0 0 0 0 0 0 0 0 0 0 0 0 0 0 0 0 0 0 0 0 0 0 0 0 0 0 0 0 
0 0 0 0 0 0 0 0 0 0 0 2 9 1 0 1 7 9 64 102 127 100 105 118 119 108 106 117 152 160 137 103 84 97 117 129 160 184 172 118 109 130 136 131 124 124 135 126 109 111 120 120 115 127 145 127 117 117 134 154 145 142 143 158 160 125 77 58 75 95 98 91 118 126 175 183 187 188 183 153 136 116 78 48 69 78 14 4 0 0 6 8 2 0 0 0 0 0 0 0 0 0 0 0 0 0 0 0 0 0 0 0 0 0 0 0 0 0 0 0 0 0 0 0 0 0 0 0 
0 0 0 0 0 0 0 0 0 0 0 1 6 3 0 2 5 7 37 108 131 116 111 104 118 125 133 137 159 168 158 113 87 102 85 71 83 124 135 147 128 146 135 133 122 117 127 130 138 137 137 128 142 147 142 125 126 130 127 158 163 162 137 125 119 104 64 69 86 92 90 91 105 132 172 185 187 196 199 181 91 67 59 47 79 51 5 6 1 0 6 8 2 0 0 0 0 0 0 0 0 0 0 0 0 0 0 0 0 0 0 0 0 0 0 0 0 0 0 0 0 0 0 0 0 0 0 0 
0 0 0 0 0 0 0 0 0 0 0 0 8 4 0 2 5 10 17 97 128 107 110 111 120 164 169 154 170 173 159 125 99 96 92 81 70 67 77 118 145 148 136 134 134 147 160 165 175 157 143 141 153 161 166 159 146 134 130 159 182 183 162 128 101 99 99 95 87 100 93 90 95 111 141 186 184 196 176 172 105 66 46 19 83 23 3 5 1 0 6 6 2 0 0 0 0 0 0 0 0 0 0 0 0 0 0 0 0 0 0 0 0 0 0 0 0 0 0 0 0 0 0 0 0 0 0 0 
0 0 0 0 0 0 0 0 0 0 0 0 10 4 0 3 7 9 9 66 122 107 109 125 140 183 191 169 171 168 148 128 127 120 107 95 86 77 73 98 148 146 143 145 138 159 182 174 163 153 139 151 148 127 135 139 129 119 122 143 166 172 166 140 110 103 122 117 103 108 90 92 103 112 125 132 175 199 168 138 129 129 107 117 77 10 3 5 1 0 7 6 2 0 0 0 0 0 0 0 0 0 0 0 0 0 0 0 0 0 0 0 0 0 0 0 0 0 0 0 0 0 0 0 0 0 0 0 
0 0 0 0 0 0 0 0 0 0 0 0 11 6 0 2 8 5 9 36 102 113 98 131 157 175 189 193 192 165 132 131 128 136 141 136 117 109 114 121 127 138 141 130 125 138 160 136 99 103 103 134 141 109 109 120 110 94 100 114 131 150 148 164 161 128 120 126 112 95 88 103 111 123 118 132 179 180 156 104 125 107 132 135 54 9 4 6 2 0 7 6 2 0 0 0 0 0 0 0 0 0 0 0 0 0 0 0 0 0 0 0 0 0 0 0 0 0 0 0 0 0 0 0 0 0 0 0 
0 0 0 0 0 0 0 0 0 0 0 0 16 14 2 1 8 5 10 28 72 106 108 121 154 168 174 181 191 156 118 121 136 124 119 128 127 114 112 123 129 144 146 139 132 143 179 146 97 99 123 135 141 132 119 136 129 109 112 124 128 124 119 153 181 154 116 130 138 130 118 122 123 119 120 152 171 187 162 145 94 56 122 94 43 12 5 5 2 0 4 8 2 0 0 0 0 0 0 0 0 0 0 0 0 0 0 0 0 0 0 0 0 0 0 0 0 0 0 0 0 0 0 0 0 0 0 0 
0 0 0 0 0 0 0 0 0 0 0 2 8 11 9 3 6 7 10 24 60 82 115 109 126 139 167 182 186 125 102 102 116 124 133 132 129 123 116 118 137 145 155 140 140 168 189 152 114 116 136 115 110 140 126 103 98 94 88 109 101 94 105 115 160 181 149 149 154 161 135 116 97 93 128 165 161 184 170 148 127 108 111 67 30 18 1 2 2 0 1 8 3 0 0 0 0 0 0 0 0 0 0 0 0 0 0 0 0 0 0 0 0 0 0 0 0 0 0 0 0 0 0 0 0 0 0 0 
0 0 0 0 0 0 0 0 0 0 0 0 7 11 10 11 11 13 13 15 34 69 85 112 118 144 158 183 179 107 111 82 85 104 116 136 140 141 144 150 149 156 177 151 127 133 164 146 126 135 131 117 126 126 138 118 90 77 65 83 84 96 108 134 166 193 167 161 152 170 117 75 80 113 129 158 152 174 151 128 134 129 77 50 21 13 9 2 1 0 4 14 9 0 0 0 0 0 0 0 0 0 0 0 0 0 0 0 0 0 0 0 0 0 0 0 0 0 0 0 0 0 0 0 0 0 0 0 
0 0 0 0 0 0 0 0 0 0 0 1 5 12 11 8 7 9 13 13 15 43 71 89 129 152 145 150 147 127 129 111 79 79 77 86 106 124 133 147 194 216 212 196 156 140 154 162 141 120 111 114 114 136 127 121 147 157 140 133 141 146 136 160 182 188 183 164 107 109 151 76 113 123 132 147 104 116 90 81 64 74 71 39 12 7 11 10 13 11 6 7 11 0 0 0 0 0 0 0 0 0 0 0 0 0 0 0 0 0 0 0 0 0 0 0 0 0 0 0 0 0 0 0 0 0 0 0 
0 0 0 0 0 0 0 0 0 0 0 0 5 8 8 7 7 6 10 14 15 27 63 77 99 129 154 143 146 133 136 121 100 97 70 54 50 62 91 145 152 147 168 192 158 133 154 170 156 153 169 161 157 173 175 169 181 194 194 177 173 164 157 130 162 151 168 156 113 112 148 136 129 117 102 108 61 89 59 69 69 74 45 24 19 0 1 5 8 11 7 4 5 3 0 0 0 0 0 0 0 0 0 0 0 0 0 0 0 0 0 0 0 0 0 0 0 0 0 0 0 0 0 0 0 0 0 0 
0 0 0 0 0 0 0 0 0 0 0 0 1 5 10 6 6 2 3 11 14 22 43 85 92 96 91 54 93 111 120 138 113 120 110 79 59 52 93 131 132 145 190 155 165 162 152 183 148 159 187 180 165 164 171 179 180 172 167 155 158 157 164 141 208 189 162 171 145 100 112 116 81 70 45 65 34 58 24 25 53 43 26 22 25 2 0 2 3 5 6 11 3 0 0 0 0 0 0 0 0 0 0 0 0 0 0 0 0 0 0 0 0 0 0 0 0 0 0 0 0 0 0 0 0 0 0 0 
0 0 0 0 0 0 0 0 0 0 0 0 0 2 5 4 2 1 0 9 14 21 36 56 71 54 36 25 70 52 83 98 104 122 151 144 114 121 158 158 168 182 166 205 200 200 193 190 156 139 160 160 132 154 160 159 181 183 188 184 166 160 164 191 197 154 162 119 92 58 51 51 71 70 54 51 37 70 30 33 37 34 46 32 18 0 0 0 2 1 3 2 2 0 0 0 0 0 0 0 0 0 0 0 0 0 0 0 0 0 0 0 0 0 0 0 0 0 0 0 0 0 0 0 0 0 0 0 
0 0 0 0 0 0 0 0 0 0 0 0 0 2 3 2 8 5 4 3 11 13 22 18 29 33 29 27 80 46 60 77 86 76 84 109 101 77 78 74 94 136 147 150 142 153 148 152 128 106 117 92 85 102 98 83 78 117 141 131 134 132 77 137 91 142 131 107 55 43 39 56 55 40 84 71 42 85 38 31 27 23 26 9 1 1 8 8 0 0 0 4 2 0 0 0 0 0 0 0 0 0 0 0 0 0 0 0 0 0 0 0 0 0 0 0 0 0 0 0 0 0 0 0 0 0 0 0 
0 0 0 0 0 0 0 0 0 0 0 0 0 0 0 0 1 6 7 1 1 6 15 17 20 24 24 28 75 55 55 84 72 44 44 58 79 79 62 59 71 86 62 68 89 126 119 81 71 85 61 64 87 83 79 76 53 55 81 84 110 97 67 58 65 83 48 52 51 50 53 56 46 50 89 74 47 77 37 28 25 23 22 6 1 0 2 0 0 0 2 4 1 0 0 0 0 0 0 0 0 0 0 0 0 0 0 0 0 0 0 0 0 0 0 0 0 0 0 0 0 0 0 0 0 0 0 0 
0 0 0 0 0 0 0 0 0 0 0 0 0 0 0 0 0 0 0 0 1 4 10 18 23 24 23 30 78 71 56 68 68 42 48 47 61 89 158 119 119 161 83 73 86 112 119 87 80 76 59 52 77 72 75 83 70 76 95 122 131 110 103 81 69 103 75 57 63 98 94 94 126 121 125 95 61 73 39 34 27 22 14 8 0 0 0 0 0 0 0 0 0 0 0 0 0 0 0 0 0 0 0 0 0 0 0 0 0 0 0 0 0 0 0 0 0 0 0 0 0 0 0 0 0 0 0 0 
0 0 0 0 0 0 0 0 0 0 0 0 0 0 0 0 0 0 0 0 0 3 5 14 25 27 27 36 68 77 64 57 65 44 59 63 79 101 163 123 103 115 187 131 146 159 168 131 119 90 85 89 85 77 70 79 79 99 125 157 188 192 194 142 176 97 83 62 41 88 174 176 166 166 164 139 107 81 59 53 39 19 18 18 2 0 0 0 0 0 0 0 0 0 0 0 0 0 0 0 0 0 0 0 0 0 0 0 0 0 0 0 0 0 0 0 0 0 0 0 0 0 0 0 0 0 0 0 
0 0 0 0 0 0 0 0 0 0 0 0 0 0 0 0 0 0 0 0 0 0 1 12 24 28 18 21 32 63 74 75 85 91 108 121 144 167 102 68 134 164 192 193 188 150 128 142 151 153 188 191 141 106 95 92 97 114 149 163 189 203 225 207 155 132 147 82 120 107 114 149 140 124 97 77 81 62 56 66 65 21 3 1 0 0 0 0 0 0 0 0 0 0 0 0 0 0 0 0 0 0 0 0 0 0 0 0 0 0 0 0 0 0 0 0 0 0 0 0 0 0 0 0 0 0 0 0 
0 0 0 0 0 0 0 0 0 0 0 0 0 0 0 0 0 0 0 0 0 0 0 8 10 20 16 19 29 83 69 69 64 40 46 102 164 147 104 120 83 80 155 131 142 160 148 178 185 132 90 91 77 87 87 92 103 112 122 126 144 166 196 190 157 116 96 81 116 121 86 92 89 86 96 116 100 56 49 55 30 17 15 4 2 0 0 0 0 0 0 0 0 0 0 0 0 0 0 0 0 0 0 0 0 0 0 0 0 0 0 0 0 0 0 0 0 0 0 0 0 0 0 0 0 0 0 0 
0 0 0 0 0 0 0 0 0 0 0 0 0 0 0 0 0 0 0 0 0 0 1 5 12 21 26 21 29 81 84 81 77 51 34 34 42 126 112 181 129 73 102 118 109 80 124 174 193 117 79 76 88 91 80 77 74 77 74 69 109 140 149 159 74 102 107 146 85 90 75 43 27 38 75 114 87 30 15 19 17 16 13 2 2 0 0 0 0 0 0 0 0 0 0 0 0 0 0 0 0 0 0 0 0 0 0 0 0 0 0 0 0 0 0 0 0 0 0 0 0 0 0 0 0 0 0 0 
0 0 0 0 0 0 0 0 0 0 0 0 0 0 0 0 0 0 0 0 0 0 1 3 12 15 20 19 24 62 92 82 80 51 35 29 31 51 78 95 96 80 104 121 93 84 130 168 178 146 140 123 95 91 85 79 88 100 120 129 144 134 130 139 95 111 123 113 137 101 78 45 31 33 67 119 88 37 22 22 21 16 10 3 2 0 0 0 0 0 0 0 0 0 0 0 0 0 0 0 0 0 0 0 0 0 0 0 0 0 0 0 0 0 0 0 0 0 0 0 0 0 0 0 0 0 0 0 
0 0 0 0 0 0 0 0 0 0 0 0 0 0 0 0 0 0 0 0 0 0 0 2 10 13 18 22 21 51 98 81 88 49 34 43 65 96 108 103 89 76 79 109 84 70 101 162 146 152 153 144 135 124 123 116 136 144 161 171 160 162 137 91 102 114 119 125 142 135 118 68 45 36 69 123 91 44 24 20 19 16 9 3 3 1 0 0 0 0 0 0 0 0 0 0 0 0 0 0 0 0 0 0 0 0 0 0 0 0 0 0 0 0 0 0 0 0 0 0 0 0 0 0 0 0 0 0 
0 0 0 0 0 0 0 0 0 0 0 0 0 0 0 0 0 0 0 0 0 0 0 1 5 12 16 20 21 40 75 61 93 47 37 72 124 121 74 50 56 55 66 106 82 51 82 136 150 168 166 150 147 138 137 133 154 148 152 152 166 182 144 82 81 120 122 112 117 127 129 128 96 54 64 120 79 56 25 20 16 14 7 4 3 1 0 0 0 0 0 0 0 0 0 0 0 0 0 0 0 0 0 0 0 0 0 0 0 0 0 0 0 0 0 0 0 0 0 0 0 0 0 0 0 0 0 0 
0 0 0 0 0 0 0 0 0 0 0 0 0 0 0 0 0 0 0 0 0 0 0 0 4 11 13 15 18 36 64 45 94 55 39 104 127 70 38 35 41 51 81 115 82 42 64 108 127 142 157 135 136 141 133 137 148 150 152 119 133 143 118 83 72 111 140 100 84 91 100 118 130 97 54 112 65 66 28 19 14 12 6 4 4 2 0 0 0 0 0 0 0 0 0 0 0 0 0 0 0 0 0 0 0 0 0 0 0 0 0 0 0 0 0 0 0 0 0 0 0 0 0 0 0 0 0 0 
0 0 0 0 0 0 0 0 0 0 0 0 0 0 0 0 0 0 0 0 0 0 0 0 0 8 11 11 16 28 53 40 87 61 47 117 116 50 37 36 41 61 111 136 104 64 57 61 82 100 130 127 132 134 121 108 119 132 143 100 80 86 115 76 65 102 151 99 48 48 49 62 121 122 59 98 67 60 24 17 16 10 5 4 4 2 0 0 0 0 0 0 0 0 0 0 0 0 0 0 0 0 0 0 0 0 0 0 0 0 0 0 0 0 0 0 0 0 0 0 0 0 0 0 0 0 0 0 
0 0 0 0 0 0 0 0 0 0 0 0 0 0 0 0 0 0 0 0 0 0 0 0 0 3 11 11 12 16 51 75 67 66 61 130 112 41 36 39 44 72 132 144 97 72 62 58 81 77 90 118 124 110 101 94 103 111 121 96 66 72 102 85 84 92 133 126 64 44 37 45 117 134 71 66 67 37 19 16 17 9 5 4 5 3 0 0 0 0 0 0 0 0 0 0 0 0 0 0 0 0 0 0 0 0 0 0 0 0 0 0 0 0 0 0 0 0 0 0 0 0 0 0 0 0 0 0 
0 0 0 0 0 0 0 0 0 0 0 0 0 0 0 0 0 0 0 0 0 0 0 0 0 0 8 11 9 12 18 25 23 47 73 128 111 45 32 38 45 79 118 87 59 61 63 61 79 82 106 124 123 108 92 81 78 90 111 84 62 82 98 81 76 69 81 100 78 43 34 39 110 141 87 39 16 19 19 18 15 8 4 4 4 3 1 0 0 0 0 0 0 0 0 0 0 0 0 0 0 0 0 0 0 0 0 0 0 0 0 0 0 0 0 0 0 0 0 0 0 0 0 0 0 0 0 0 
0 0 0 0 0 0 0 0 0 0 0 0 0 0 0 0 0 0 0 0 0 0 0 0 0 0 6 7 9 10 16 20 16 13 18 77 111 58 28 36 42 70 86 73 51 49 58 67 86 94 109 135 129 110 84 70 76 89 106 90 70 84 106 90 69 64 64 100 98 42 32 40 98 124 52 23 13 19 19 19 14 6 3 4 5 3 1 0 0 0 0 0 0 0 0 0 0 0 0 0 0 0 0 0 0 0 0 0 0 0 0 0 0 0 0 0 0 0 0 0 0 0 0 0 0 0 0 0 
0 0 0 0 0 0 0 0 0 0 0 0 0 0 0 0 0 0 0 0 0 0 0 0 0 0 0 10 7 13 14 22 20 12 9 35 111 87 39 29 52 92 88 76 51 48 53 68 98 111 108 136 144 127 98 88 85 93 120 99 55 73 117 81 56 56 76 116 121 60 34 52 119 97 31 23 16 19 22 20 14 8 4 4 4 4 1 0 0 0 0 0 0 0 0 0 0 0 0 0 0 0 0 0 0 0 0 0 0 0 0 0 0 0 0 0 0 0 0 0 0 0 0 0 0 0 0 0 
0 0 0 0 0 0 0 0 0 0 0 0 0 0 0 0 0 0 0 0 0 0 0 0 0 0 0 1 11 8 17 18 22 18 8 15 63 115 89 61 87 106 88 83 59 53 57 74 89 78 93 134 146 125 98 95 98 108 135 120 72 88 107 87 57 51 74 118 131 104 76 104 126 48 24 24 18 21 24 20 14 9 5 4 5 4 1 0 0 0 0 0 0 0 0 0 0 0 0 0 0 0 0 0 0 0 0 0 0 0 0 0 0 0 0 0 0 0 0 0 0 0 0 0 0 0 0 0 
0 0 0 0 0 0 0 0 0 0 0 0 0 0 0 0 0 0 0 0 0 0 0 0 0 0 0 0 10 5 12 18 22 20 14 10 20 60 115 99 90 79 77 83 70 63 69 88 86 67 101 135 145 121 106 113 112 109 120 109 82 91 90 99 74 58 74 111 101 89 89 111 55 25 25 24 18 21 22 20 13 9 5 5 5 3 1 0 0 0 0 0 0 0 0 0 0 0 0 0 0 0 0 0 0 0 0 0 0 0 0 0 0 0 0 0 0 0 0 0 0 0 0 0 0 0 0 0 
0 0 0 0 0 0 0 0 0 0 0 0 0 0 0 0 0 0 0 0 0 0 0 0 0 0 0 0 4 7 7 15 18 21 17 9 16 22 28 52 50 42 71 102 82 88 90 94 84 73 117 139 143 133 122 116 119 122 134 129 106 88 115 109 90 75 88 104 77 40 46 33 31 27 24 20 13 20 19 18 12 8 3 3 4 4 2 0 0 0 0 0 0 0 0 0 0 0 0 0 0 0 0 0 0 0 0 0 0 0 0 0 0 0 0 0 0 0 0 0 0 0 0 0 0 0 0 0 
0 0 0 0 0 0 0 0 0 0 0 0 0 0 0 0 0 0 0 0 0 0 0 0 0 0 0 0 0 10 5 12 17 19 17 13 13 21 25 26 35 38 61 94 102 104 98 94 75 83 147 153 136 118 112 100 97 105 129 140 139 102 89 114 104 93 96 93 51 34 28 27 32 25 19 20 16 18 16 14 11 8 2 3 4 4 1 0 0 0 0 0 0 0 0 0 0 0 0 0 0 0 0 0 0 0 0 0 0 0 0 0 0 0 0 0 0 0 0 0 0 0 0 0 0 0 0 0 
0 0 0 0 0 0 0 0 0 0 0 0 0 0 0 0 0 0 0 0 0 0 0 0 0 0 0 0 0 9 4 9 13 17 16 14 12 18 23 26 35 34 41 61 92 103 99 83 63 83 144 145 119 101 97 95 90 101 121 125 147 132 75 90 108 107 101 68 41 34 27 28 32 22 17 20 14 19 15 12 11 7 3 3 4 3 1 0 0 0 0 0 0 0 0 0 0 0 0 0 0 0 0 0 0 0 0 0 0 0 0 0 0 0 0 0 0 0 0 0 0 0 0 0 0 0 0 0 
0 0 0 0 0 0 0 0 0 0 0 0 0 0 0 0 0 0 0 0 0 0 0 0 0 0 0 0 0 6 5 6 11 16 16 11 15 21 24 26 34 32 30 37 53 76 77 61 58 74 140 143 126 120 126 131 132 127 134 141 153 132 65 61 87 85 74 63 50 34 25 28 30 20 15 16 16 19 14 12 11 6 2 2 4 4 2 0 0 0 0 0 0 0 0 0 0 0 0 0 0 0 0 0 0 0 0 0 0 0 0 0 0 0 0 0 0 0 0 0 0 0 0 0 0 0 0 0 
