P2
128 99
237
0 0 0 0 0 0 0 0 0 0 0 0 0 0 0 0 0 0 0 0 0 0 0 0 0 0 0 0 0 0 0 6 0 0 0 0 0 0 0 0 0 0 0 0 0 0 0 0 0 0 0 0 0 0 0 0 0 0 0 0 0 0 0 0 0 0 0 0 0 0 0 0 0 0 0 0 0 0 0 0 0 0 0 0 0 0 0 0 0 0 0 0 0 0 0 10 36 0 0 0 0 0 0 0 0 0 0 0 0 0 0 0 0 0 0 0 0 0 0 0 0 0 0 0 0 0 0 0 
0 0 0 0 0 0 0 0 0 0 0 0 0 0 0 0 0 0 0 0 0 0 0 0 0 0 0 0 0 0 0 6 0 0 0 0 0 0 0 0 0 0 0 0 0 0 0 0 0 0 0 0 0 0 0 0 0 0 0 0 0 0 0 0 0 0 0 0 0 0 0 0 0 0 0 0 0 0 0 0 0 0 0 0 0 0 0 0 0 0 0 0 0 0 0 10 35 0 0 0 0 0 0 0 0 0 0 0 0 0 0 0 0 0 0 0 0 0 0 0 0 0 0 0 0 0 0 0 
0 0 0 0 0 0 0 0 0 0 0 0 0 0 0 0 0 0 0 0 0 0 0 0 0 0 0 0 0 0 0 6 0 0 0 0 0 0 0 0 0 0 0 0 0 0 0 0 0 0 0 0 1 1 1 0 0 0 0 0 0 0 0 0 0 0 0 0 0 0 0 0 0 0 0 0 0 0 0 0 0 0 0 0 0 0 0 0 0 0 0 0 0 0 0 9 35 0 0 0 0 0 0 0 0 0 0 0 0 0 0 0 0 0 0 0 0 0 0 0 0 0 0 0 0 0 0 0 
0 0 0 0 0 0 0 0 0 0 0 0 0 0 0 0 0 0 0 0 0 0 0 0 0 0 0 0 0 0 0 5 0 0 0 0 0 0 0 0 0 0 0 1 5 6 17 25 24 21 22 23 26 25 24 15 11 13 15 15 4 0 0 0 0 0 0 0 0 0 0 0 0 0 0 0 0 0 0 0 0 0 0 0 0 0 0 0 0 0 0 0 0 0 0 9 33 0 0 0 0 0 0 0 0 0 0 0 0 0 0 0 0 0 0 0 0 0 0 0 0 0 0 0 0 0 0 0 
0 0 0 0 0 0 0 0 0 0 0 0 0 0 0 0 0 0 0 0 0 0 0 0 0 0 0 0 0 0 0 3 0 0 0 0 0 0 0 0 6 8 21 30 26 28 44 70 95 113 127 135 140 137 130 119 107 93 79 59 30 17 19 14 1 0 0 0 0 0 0 0 0 0 0 0 0 0 0 0 0 0 0 0 0 0 0 0 0 0 0 0 0 0 0 9 34 0 0 0 0 0 0 0 0 0 0 0 0 0 0 0 0 0 0 0 0 0 0 0 0 0 0 0 0 0 0 0 
0 0 0 0 0 0 0 0 0 0 0 0 0 0 0 0 0 0 0 0 0 0 0 0 0 0 0 0 0 0 0 1 0 0 0 0 0 0 8 15 29 24 28 56 102 137 152 154 150 149 153 157 159 162 165 165 160 152 143 130 122 107 83 49 20 17 11 0 0 0 0 0 0 0 0 0 0 0 0 0 0 0 0 0 0 0 0 0 0 0 0 0 0 0 0 9 35 0 0 0 0 0 0 0 0 0 0 0 0 0 0 0 0 0 0 0 0 0 0 0 0 0 0 0 0 0 0 0 
0 0 0 0 0 0 0 0 0 0 0 0 0 0 0 0 0 0 0 0 0 0 0 0 0 0 0 0 0 0 0 0 0 0 0 0 8 22 30 23 43 93 141 160 150 141 149 163 170 169 169 167 169 167 166 163 158 157 163 169 167 154 136 125 114 86 46 17 17 2 0 0 0 0 0 0 0 0 0 0 0 0 0 0 0 0 0 0 0 0 0 0 0 0 0 11 35 0 0 0 0 0 0 0 0 0 0 0 0 0 0 0 0 0 0 0 0 0 0 0 0 0 0 0 0 0 0 0 
0 0 0 0 0 0 0 0 0 0 0 0 0 0 0 0 0 0 0 0 0 0 0 0 0 0 0 0 0 0 0 0 0 0 5 23 27 23 54 116 157 159 142 153 170 178 180 176 165 154 153 160 166 159 159 177 188 178 167 161 161 161 167 167 152 134 128 108 57 23 16 1 0 0 0 0 0 0 0 0 0 0 0 0 0 0 0 0 0 0 0 0 0 0 0 11 36 0 0 0 0 0 0 0 0 0 0 0 0 0 0 0 0 0 0 0 0 0 0 0 0 0 0 0 0 0 0 0 
0 0 0 0 0 0 0 0 0 0 0 0 0 0 0 0 0 0 0 0 0 0 0 0 0 0 0 0 0 0 0 1 1 25 28 18 52 122 163 155 141 159 172 177 177 158 143 129 122 132 141 152 155 152 150 157 163 177 184 173 169 168 164 163 164 169 163 141 132 110 50 22 12 0 0 0 0 0 0 0 0 0 0 0 0 0 0 0 0 0 0 0 0 0 0 13 35 0 0 0 0 0 0 0 0 0 0 0 0 0 0 0 0 0 0 0 0 0 0 0 0 0 0 0 0 0 0 0 
0 0 0 0 0 0 0 0 0 0 0 0 0 0 0 0 0 0 0 0 0 0 0 0 0 0 0 0 0 0 0 20 29 25 35 102 159 157 143 161 172 174 167 149 128 124 124 143 163 165 166 164 158 161 165 168 179 186 196 199 194 183 173 171 172 169 169 171 165 144 130 87 34 22 0 0 0 0 0 0 0 0 0 0 0 0 0 0 0 0 0 0 0 0 0 11 36 0 0 0 0 0 0 0 0 0 0 0 0 0 0 0 0 0 0 0 0 0 0 0 0 0 0 0 0 0 0 0 
0 0 0 0 0 0 0 0 0 0 0 0 0 0 0 0 0 0 0 0 0 0 0 0 0 0 0 0 0 6 28 31 22 72 147 165 142 159 174 172 167 156 133 139 154 167 170 158 130 118 137 150 150 147 138 130 125 127 147 165 189 215 213 202 183 173 169 168 168 171 158 139 118 49 26 6 0 0 0 0 0 0 0 0 0 0 0 0 0 0 0 0 0 0 0 11 36 0 0 0 0 0 0 0 0 0 0 0 0 0 0 0 0 0 0 0 0 0 0 0 0 0 0 0 0 0 0 0 
0 0 0 0 0 0 0 0 0 0 0 0 0 0 0 0 0 0 0 0 0 0 0 0 0 0 0 0 18 31 20 42 116 165 151 158 175 176 169 158 153 162 172 175 170 165 157 143 136 132 127 126 127 130 133 133 136 134 134 145 152 162 181 207 222 219 195 174 171 169 166 167 148 131 69 26 12 0 0 0 0 0 0 0 0 0 0 0 0 0 0 0 0 0 0 11 36 0 0 0 0 0 0 0 0 0 0 0 0 0 0 0 0 0 0 0 0 0 0 0 0 0 0 0 0 0 0 0 
0 0 0 0 0 0 0 0 0 0 0 0 0 0 0 0 0 0 0 0 0 0 0 0 0 0 5 22 25 18 67 142 162 151 170 177 173 168 166 180 191 185 185 192 183 171 148 135 129 130 114 103 101 111 134 145 142 143 144 145 138 136 149 166 185 204 217 219 193 176 170 167 166 154 135 84 26 12 0 0 0 0 0 0 0 0 0 0 0 0 0 0 0 0 0 13 37 0 0 0 0 0 0 0 0 0 0 0 0 0 0 0 0 0 0 0 0 0 0 0 0 0 0 0 0 0 0 0 
0 0 0 0 0 0 0 0 0 0 0 0 0 0 0 0 0 0 0 0 0 0 0 0 0 12 21 22 25 92 154 158 160 175 172 165 174 190 200 185 179 170 157 157 151 145 143 142 144 141 127 116 113 111 112 128 132 136 140 141 141 134 130 138 147 160 182 206 221 215 181 169 165 159 156 140 95 26 11 0 0 0 0 0 0 0 0 0 0 0 0 0 0 0 0 13 38 0 0 0 0 0 0 0 0 0 0 0 0 0 0 0 0 0 0 0 0 0 0 0 0 0 0 0 0 0 0 0 
0 0 0 0 0 0 0 0 0 0 0 0 0 0 0 0 0 0 0 0 0 0 0 0 16 19 18 35 104 160 158 164 171 171 170 186 203 196 179 155 141 142 151 156 149 143 139 132 131 132 134 127 119 122 123 125 134 137 133 133 131 131 122 122 131 141 146 159 177 205 220 196 166 162 162 157 144 106 27 10 0 0 0 0 0 0 0 0 0 0 0 0 0 0 0 12 39 0 0 0 0 0 0 0 0 0 0 0 0 0 0 0 0 0 0 0 0 0 0 0 0 0 0 0 0 0 0 0 
0 0 0 0 0 0 0 0 0 0 0 0 0 0 0 0 0 0 0 0 0 0 6 19 18 18 46 113 163 157 163 167 170 170 191 207 189 157 134 134 143 144 140 126 110 92 114 133 135 136 150 155 154 152 153 153 152 152 155 154 148 135 120 117 115 118 130 139 147 165 187 214 201 168 162 164 152 148 121 32 9 0 0 0 0 0 0 0 0 0 0 0 0 0 0 12 39 0 0 0 0 0 0 0 0 0 0 0 0 0 0 0 0 0 0 0 0 0 0 0 0 0 0 0 0 0 0 0 
0 0 0 0 0 0 0 0 0 0 0 0 0 0 0 0 0 0 0 0 0 7 17 14 19 59 117 164 157 164 163 164 159 194 204 178 144 131 141 139 139 138 122 107 95 94 100 106 106 103 119 142 129 114 106 105 111 129 145 154 155 150 140 140 136 114 111 122 137 144 160 174 204 197 168 161 163 149 150 128 35 9 0 0 0 0 0 0 0 0 0 0 0 0 0 14 39 0 0 0 0 0 0 0 0 0 0 0 0 0 0 0 0 0 0 0 0 0 0 0 0 0 0 0 0 0 0 0 
0 0 0 0 0 0 0 0 0 0 0 0 0 0 0 0 0 0 0 0 6 12 14 24 72 125 168 157 163 165 160 158 199 197 168 133 121 132 134 141 152 145 114 94 88 87 84 85 85 83 86 93 90 88 83 83 82 85 99 120 137 142 145 149 153 148 127 107 114 125 138 160 172 193 188 161 154 163 150 151 134 33 5 0 0 0 0 0 0 0 0 0 0 0 0 12 39 0 0 0 0 0 0 0 0 0 0 0 0 0 0 0 0 0 0 0 0 0 0 0 0 0 0 0 0 0 0 0 
0 0 0 0 0 0 0 0 0 0 0 0 0 0 0 0 0 0 0 6 13 11 25 81 129 171 153 159 166 158 160 191 188 161 122 111 124 134 144 153 131 95 86 85 86 87 87 89 89 88 91 93 92 93 91 86 87 86 89 90 98 110 129 137 139 140 143 135 113 109 118 131 163 169 185 178 155 157 169 147 157 118 24 4 0 0 0 0 0 0 0 0 0 0 0 13 39 0 0 0 0 0 0 0 0 0 0 0 0 0 0 0 0 0 0 0 0 0 0 0 0 0 0 0 0 0 0 0 
0 0 0 0 0 0 0 0 0 0 0 0 0 0 0 0 0 0 6 15 12 20 83 130 168 154 151 164 155 167 194 184 159 115 109 125 131 140 143 114 92 85 85 88 88 90 90 91 92 97 98 97 96 98 95 91 94 94 91 90 88 87 92 108 130 138 139 139 132 113 103 111 123 167 174 186 171 154 165 170 143 157 95 15 0 0 0 0 0 0 0 0 0 0 0 13 39 0 0 0 0 0 0 0 0 0 0 0 0 0 0 0 0 0 0 0 0 0 0 0 0 0 0 0 0 0 0 0 
0 0 0 0 0 0 0 0 0 0 0 0 0 0 0 0 0 3 14 14 14 74 123 157 161 144 166 153 162 192 177 152 116 108 122 120 138 139 102 87 86 88 92 89 86 83 84 85 92 95 77 72 77 96 97 95 96 95 92 98 96 89 88 89 97 119 142 143 142 129 115 101 104 127 174 177 186 159 160 164 159 143 145 65 7 0 0 0 0 0 0 0 0 0 0 14 40 0 0 0 0 0 0 0 0 0 0 0 0 0 0 0 0 0 0 0 0 0 0 0 0 0 0 0 0 0 0 0 
0 0 0 0 0 0 0 0 0 0 0 0 0 0 0 0 0 10 14 12 59 117 144 161 141 161 148 156 190 182 146 114 103 111 110 135 133 93 85 85 85 80 83 83 79 79 84 84 87 66 60 59 68 89 106 105 105 106 111 117 115 103 99 87 82 89 115 143 147 141 128 114 100 100 132 175 186 178 153 166 166 151 153 123 41 4 0 0 0 0 0 0 0 0 0 17 40 0 0 0 0 0 0 0 0 0 0 0 0 0 0 0 0 0 0 0 0 0 0 0 0 0 0 0 0 0 0 0 
0 0 0 0 0 0 0 0 0 0 0 0 0 0 0 0 6 11 9 44 108 133 154 144 155 156 154 176 184 145 121 103 104 110 131 127 95 84 86 82 82 89 93 91 85 80 81 78 63 63 71 81 88 94 102 108 117 118 112 102 102 116 116 101 85 79 89 113 142 148 138 119 110 99 105 144 172 187 148 150 171 165 153 144 105 25 1 0 0 0 0 0 0 0 0 16 43 0 0 0 0 0 0 0 0 0 0 0 0 0 0 0 0 0 0 0 0 0 0 0 0 0 0 0 0 0 0 0 
0 0 0 0 0 0 0 0 0 0 0 0 0 0 0 3 10 13 42 98 131 142 158 151 162 151 163 184 146 123 109 104 112 126 120 94 91 96 94 103 105 98 92 92 87 87 89 87 83 81 93 98 95 94 96 94 95 95 96 95 97 101 108 110 102 91 86 89 111 146 150 126 106 113 109 112 151 179 176 119 158 173 155 162 124 79 10 0 0 0 0 0 0 0 0 17 42 0 0 0 0 0 0 0 0 0 0 0 0 0 0 0 0 0 0 0 0 0 0 0 0 0 0 0 0 0 0 0 
0 0 0 0 0 0 0 0 0 0 0 0 0 0 0 10 13 32 89 120 132 158 152 161 152 153 175 161 126 110 110 106 120 115 102 91 108 109 114 106 99 98 99 99 97 98 98 96 92 92 92 93 88 85 85 88 88 86 88 89 91 93 96 100 101 96 88 85 89 120 147 143 119 108 110 105 116 165 187 131 126 170 163 165 136 105 40 1 0 0 0 0 0 0 0 16 42 0 0 0 0 0 0 0 0 0 0 0 0 0 0 0 0 0 0 0 0 0 0 0 0 0 0 0 0 0 0 0 
0 0 0 0 0 0 0 0 0 0 0 0 0 0 5 6 18 81 98 127 135 164 146 156 154 151 168 137 110 114 110 117 115 107 106 112 121 117 107 96 94 91 91 90 92 91 93 86 84 86 85 84 84 86 87 85 85 87 87 87 89 89 90 93 97 99 90 79 81 93 122 150 141 109 104 112 102 139 181 143 107 154 166 157 158 113 74 5 0 0 0 0 0 0 1 18 41 0 0 0 0 0 0 0 0 0 0 0 0 0 0 0 0 0 0 0 0 0 0 0 0 0 0 0 0 0 0 0 
0 0 0 0 0 0 0 0 0 0 0 0 0 0 8 7 59 89 124 127 161 147 134 159 132 140 153 126 115 125 117 107 106 115 124 121 118 108 95 90 88 86 84 86 89 91 85 82 82 84 84 84 83 84 87 87 86 85 86 86 86 88 88 89 94 95 98 91 77 80 87 128 152 130 106 117 110 116 162 165 105 142 157 149 168 122 93 25 1 0 0 0 0 0 1 16 41 0 0 0 0 0 0 0 0 0 0 0 0 0 0 0 0 0 0 0 0 0 0 0 0 0 0 0 0 0 0 0 
0 0 0 0 0 0 0 0 0 0 0 0 0 3 6 22 92 88 129 132 167 112 149 141 114 142 141 123 126 128 102 96 115 123 128 117 113 94 88 86 83 82 85 86 84 84 83 86 88 85 87 84 84 85 90 88 88 87 87 86 83 85 86 88 90 90 94 95 92 73 77 102 135 151 129 117 124 119 143 169 110 129 148 147 169 136 101 44 1 0 0 0 0 0 0 16 42 0 0 0 0 0 0 0 0 0 0 0 0 0 0 0 0 0 0 0 0 0 0 0 0 0 0 0 0 0 0 0 
0 0 0 0 0 0 0 0 0 0 0 0 0 3 2 54 85 113 126 148 152 124 159 124 110 150 145 126 130 112 100 117 121 121 121 117 99 85 82 82 83 84 83 84 84 87 86 89 90 89 88 86 85 88 88 84 85 87 84 86 86 86 86 86 87 87 88 93 97 81 70 89 102 137 148 127 124 122 142 166 119 114 140 144 168 153 108 60 2 0 0 0 0 0 0 16 42 0 0 0 0 0 0 0 0 0 0 0 0 0 0 0 0 0 0 0 0 0 0 0 0 0 0 0 0 0 0 0 
0 0 0 0 0 0 0 0 0 0 0 0 0 5 6 82 87 129 125 156 129 142 146 110 116 158 147 131 120 93 112 123 118 117 112 94 82 81 84 85 85 85 86 87 84 86 90 94 101 103 108 111 116 121 116 111 107 99 92 90 88 87 86 86 86 84 86 90 95 93 74 82 88 106 142 140 128 125 150 169 128 112 130 146 162 161 116 77 7 0 0 0 0 0 0 16 44 0 0 0 0 0 0 0 0 0 0 0 0 0 0 0 0 0 0 0 0 0 0 0 0 0 0 0 0 0 0 0 
0 0 0 0 0 0 0 0 0 0 0 0 0 6 20 91 104 126 130 151 125 147 134 108 129 164 147 132 89 92 124 121 113 112 101 86 82 85 86 87 90 89 87 88 92 105 119 134 147 154 159 163 166 166 160 155 151 153 148 135 114 99 91 88 87 83 84 85 92 98 93 88 83 91 117 140 132 124 145 164 132 115 121 145 159 166 123 89 17 0 0 0 0 0 2 18 44 0 0 0 0 0 0 0 0 0 0 0 0 0 0 0 0 0 0 0 0 0 0 0 0 0 0 0 0 0 0 0 
0 0 0 0 0 0 0 0 0 0 0 0 3 3 46 86 123 130 127 141 134 152 122 104 145 161 143 111 60 105 128 118 109 105 91 86 86 87 88 90 93 91 93 110 136 161 175 178 177 163 148 153 165 150 121 110 112 134 161 178 174 153 121 98 90 84 85 85 90 98 106 106 87 82 98 127 130 128 140 150 129 121 128 142 153 169 132 96 20 0 0 0 0 0 2 19 44 0 0 0 0 0 0 0 0 0 0 0 0 0 0 0 0 0 0 0 0 0 0 0 0 0 0 0 0 0 0 0 
0 0 0 0 0 0 0 0 0 0 0 0 5 3 69 91 132 127 121 140 137 141 117 107 158 166 133 79 60 114 126 112 109 102 90 88 89 85 83 88 91 97 116 147 167 175 169 151 135 111 95 120 116 78 63 58 59 70 95 153 178 181 158 123 98 93 89 93 108 112 114 118 101 81 84 111 120 125 140 152 125 123 131 137 149 174 141 103 28 0 0 0 0 0 2 18 45 0 0 0 0 0 0 0 0 0 0 0 0 0 0 0 0 0 0 0 0 0 0 0 0 0 0 0 0 0 0 0 
0 0 0 0 0 0 0 0 0 0 0 0 5 6 78 98 136 125 125 144 135 136 121 117 161 161 110 58 72 118 118 112 110 103 90 88 85 86 85 88 91 108 137 161 172 164 143 116 90 74 75 101 70 58 54 52 54 55 65 91 143 179 175 148 115 97 93 104 107 114 119 119 112 85 82 100 107 117 137 157 124 125 130 142 146 174 155 107 35 1 0 0 0 0 1 19 46 0 0 0 0 0 0 0 0 0 0 0 0 0 0 0 0 0 0 0 0 0 0 0 0 0 0 0 0 0 0 0 
0 0 0 0 0 0 0 0 0 0 0 0 3 10 81 106 137 115 136 147 129 134 123 121 164 148 84 56 85 118 115 108 110 102 93 91 89 87 87 85 91 103 130 159 162 149 123 89 71 54 56 77 63 54 51 50 51 52 56 62 93 163 175 158 122 102 102 112 104 117 119 123 117 88 75 90 88 117 148 153 110 126 133 146 147 169 170 117 44 2 0 0 0 0 1 18 45 0 0 0 0 0 0 0 0 0 0 0 0 0 0 0 0 0 0 0 0 0 0 0 0 0 0 0 0 0 0 0 
0 0 0 0 0 0 0 0 0 0 0 0 4 12 80 112 131 109 148 146 123 137 128 127 161 130 73 63 93 115 110 105 109 104 102 105 96 86 89 94 98 92 131 157 152 135 104 74 57 54 56 57 60 53 50 52 52 50 53 54 74 155 168 171 156 125 116 112 108 116 123 120 116 88 72 87 84 118 153 149 120 122 127 146 144 162 177 125 56 4 0 0 0 0 1 19 44 0 0 0 0 0 0 0 0 0 0 0 0 0 0 0 0 0 0 0 0 0 0 0 0 0 0 0 0 0 0 0 
0 0 0 0 0 0 0 0 0 0 0 0 5 18 81 120 129 128 163 147 119 150 139 135 155 120 73 73 97 106 105 105 111 107 112 120 115 105 111 123 110 97 120 148 152 130 99 66 53 53 54 55 53 52 50 53 53 52 53 54 80 149 165 169 157 136 122 111 103 101 102 110 118 96 65 80 80 127 156 143 123 127 132 142 140 166 186 127 67 6 0 0 0 0 1 18 44 0 0 0 0 0 0 0 0 0 0 0 0 0 0 0 0 0 0 0 0 0 0 0 0 0 0 0 0 0 0 0 
0 0 0 0 0 0 0 0 0 0 0 0 5 20 79 121 129 134 168 144 115 149 137 136 145 108 90 86 101 102 109 104 110 107 109 111 110 108 97 85 80 80 83 82 99 128 137 88 55 52 55 52 53 54 51 51 53 51 53 56 116 148 114 94 96 95 95 93 87 89 88 92 104 106 75 71 90 135 151 132 124 130 127 133 126 162 190 133 80 7 0 0 0 0 0 18 42 0 0 0 0 0 0 0 0 0 0 0 0 0 0 0 0 0 0 0 0 0 0 0 0 0 0 0 0 0 0 0 
0 0 0 0 0 0 0 0 0 0 0 0 9 20 81 129 133 137 174 141 109 144 141 144 141 116 104 97 100 100 112 100 97 100 96 91 89 80 66 58 55 54 61 72 70 67 106 139 70 52 54 54 53 54 54 52 53 52 53 96 125 84 65 69 84 92 90 86 84 83 86 93 97 95 83 84 112 144 151 124 122 131 124 119 112 154 191 139 88 9 0 0 0 0 0 16 41 0 0 0 0 0 0 0 0 0 0 0 0 0 0 0 0 0 0 0 0 0 0 0 0 0 0 0 0 0 0 0 
0 0 0 0 0 0 0 0 0 0 0 0 10 19 82 131 130 139 173 140 110 141 140 144 128 126 127 116 97 95 113 105 96 86 84 90 91 78 67 60 54 51 48 51 61 74 71 120 118 67 56 53 55 69 61 58 57 61 98 141 85 57 57 68 82 92 92 88 84 84 83 89 95 97 101 117 134 143 144 124 120 134 121 104 104 154 192 142 97 15 0 0 0 0 0 16 42 0 0 0 0 0 0 0 0 0 0 0 0 0 0 0 0 0 0 0 0 0 0 0 0 0 0 0 0 0 0 0 
0 0 0 0 0 0 0 0 0 0 0 0 9 15 84 132 128 132 164 141 110 137 141 141 108 121 139 149 120 99 113 111 95 82 85 86 82 68 64 61 59 56 54 50 53 60 74 93 133 121 129 88 68 88 111 89 73 82 131 113 63 50 55 68 83 93 97 99 94 93 104 117 116 106 100 124 134 144 140 124 111 131 116 90 98 150 186 144 105 22 0 0 0 0 1 17 42 0 0 0 0 0 0 0 0 0 0 0 0 0 0 0 0 0 0 0 0 0 0 0 0 0 0 0 0 0 0 0 
0 0 0 0 0 0 0 0 0 0 0 0 9 16 92 134 130 142 166 142 114 128 138 138 102 91 122 148 147 124 129 128 102 87 86 84 75 65 59 59 58 63 60 57 51 50 69 79 120 143 145 126 101 85 109 128 129 137 128 80 59 52 53 67 90 113 129 130 126 120 114 115 108 111 102 101 133 157 141 128 108 125 114 85 88 147 185 149 111 30 0 0 0 0 0 16 42 0 0 0 0 0 0 0 0 0 0 0 0 0 0 0 0 0 0 0 0 0 0 0 0 0 0 0 0 0 0 0 
0 0 0 0 0 0 0 0 0 0 0 0 10 16 92 127 135 151 164 141 110 119 136 139 91 64 116 143 154 128 129 128 106 105 103 92 79 64 58 56 56 56 58 59 54 55 58 60 98 145 141 124 85 72 93 127 150 146 116 67 56 52 61 97 118 135 139 131 124 113 103 100 104 117 101 93 135 159 146 139 111 117 110 92 80 139 182 157 116 38 1 0 0 0 1 16 42 0 0 0 0 0 0 0 0 0 0 0 0 0 0 0 0 0 0 0 0 0 0 0 0 0 0 0 0 0 0 0 
0 0 0 0 0 0 0 0 0 0 0 0 9 19 94 132 138 161 166 146 103 120 137 134 82 56 105 140 141 124 131 123 93 89 92 90 85 78 74 67 58 57 58 58 58 53 54 62 88 140 132 81 54 67 62 76 134 140 112 61 55 67 93 109 121 131 122 111 109 111 110 112 116 122 93 95 138 160 158 152 116 110 107 96 77 123 173 161 121 43 1 0 0 0 1 17 42 0 0 0 0 0 0 0 0 0 0 0 0 0 0 0 0 0 0 0 0 0 0 0 0 0 0 0 0 0 0 0 
0 0 0 0 0 0 0 0 0 0 0 0 8 15 92 131 142 159 156 134 93 119 134 125 78 53 88 142 138 130 123 116 85 84 83 79 71 70 85 102 91 83 75 63 59 56 51 55 80 139 130 65 67 80 81 74 85 133 98 60 79 100 91 82 87 124 127 121 118 113 109 111 115 114 96 102 141 163 160 158 123 105 91 98 78 109 155 159 123 45 2 0 0 0 0 18 44 0 0 0 0 0 0 0 0 0 0 0 0 0 0 0 0 0 0 0 0 0 0 0 0 0 0 0 0 0 0 0 
0 0 0 0 0 0 0 0 0 0 0 0 10 14 87 129 146 159 109 103 91 121 132 117 82 53 68 135 142 129 116 120 87 81 81 80 67 64 72 89 101 101 95 91 76 64 54 52 74 134 108 72 63 63 60 52 70 135 101 95 93 69 62 59 83 126 123 126 119 107 102 107 110 105 97 110 148 160 158 156 131 103 83 102 83 106 131 154 124 45 1 0 0 0 0 16 42 0 0 0 0 0 0 0 0 0 0 0 0 0 0 0 0 0 0 0 0 0 0 0 0 0 0 0 0 0 0 0 
0 0 0 0 0 0 0 0 0 0 0 0 10 12 82 124 154 161 90 95 99 125 129 116 86 61 90 125 142 125 109 123 95 83 82 79 77 70 72 96 82 62 62 67 77 84 82 75 61 105 96 106 79 76 76 71 79 135 91 78 65 59 58 62 101 121 123 123 115 100 99 103 100 90 96 118 143 155 156 152 134 100 72 101 85 102 136 161 127 43 1 0 0 0 0 15 41 0 0 0 0 0 0 0 0 0 0 0 0 0 0 0 0 0 0 0 0 0 0 0 0 0 0 0 0 0 0 0 
0 0 0 0 0 0 0 0 0 0 0 0 7 10 78 124 159 150 82 88 104 127 128 115 90 68 100 108 140 128 105 119 104 85 85 83 80 70 65 90 99 77 56 55 57 60 77 54 38 47 54 90 62 56 44 42 53 97 65 66 61 60 59 77 111 120 122 120 117 106 101 103 90 81 98 131 144 155 152 146 137 93 62 101 83 98 140 154 122 40 1 0 0 0 0 14 41 0 0 0 0 0 0 0 0 0 0 0 0 0 0 0 0 0 0 0 0 0 0 0 0 0 0 0 0 0 0 0 
0 0 0 0 0 0 0 0 0 0 0 0 5 8 70 121 156 143 80 80 104 124 128 117 99 70 100 98 130 137 112 119 110 87 86 84 83 72 59 68 91 90 72 56 56 56 75 52 38 45 56 72 45 41 45 43 42 70 57 69 55 52 58 83 107 118 118 121 124 114 112 108 91 88 99 131 134 152 153 147 139 84 62 104 82 102 142 147 118 35 1 0 0 0 0 13 41 0 0 0 0 0 0 0 0 0 0 0 0 0 0 0 0 0 0 0 0 0 0 0 0 0 0 0 0 0 0 0 
0 0 0 0 0 0 0 0 0 0 0 0 6 10 61 121 149 139 77 73 100 117 129 117 107 71 97 91 118 139 125 130 123 91 86 89 87 73 73 82 90 95 82 57 50 53 75 41 39 43 69 67 45 43 45 47 42 49 52 70 58 51 51 62 92 118 121 127 115 111 119 114 90 84 96 119 131 150 150 147 142 73 71 99 82 105 152 142 110 27 1 0 0 0 0 14 40 0 0 0 0 0 0 0 0 0 0 0 0 0 0 0 0 0 0 0 0 0 0 0 0 0 0 0 0 0 0 0 
0 0 0 0 0 0 0 0 0 0 0 0 4 9 50 118 139 153 82 68 94 117 129 126 113 73 89 80 105 147 150 136 134 103 86 94 90 83 90 105 95 92 54 47 46 53 57 42 45 47 60 49 46 55 52 48 43 44 65 44 70 48 45 55 95 114 119 115 106 113 121 109 86 82 92 109 127 141 151 159 143 64 84 92 82 102 152 132 97 21 1 0 0 0 0 14 41 0 0 0 0 0 0 0 0 0 0 0 0 0 0 0 0 0 0 0 0 0 0 0 0 0 0 0 0 0 0 0 
0 0 0 0 0 0 0 0 0 6 5 0 0 7 41 115 131 163 103 66 80 114 129 125 116 71 80 68 89 140 148 133 143 125 98 90 88 84 81 96 96 93 61 45 44 69 56 40 42 48 68 56 43 57 60 45 42 50 65 46 65 63 54 68 107 109 110 114 112 115 122 104 88 72 88 96 111 129 136 161 138 68 91 85 82 105 147 121 86 15 0 0 0 0 0 14 40 0 0 0 0 0 0 0 0 0 0 0 0 0 0 0 0 0 0 0 0 0 0 0 0 0 0 0 0 0 0 0 
0 0 0 0 0 0 0 0 0 3 6 3 0 7 32 111 125 156 125 71 64 110 129 129 118 77 72 61 74 127 151 129 137 130 104 90 93 86 71 82 86 87 77 52 46 54 48 49 44 56 74 54 46 62 61 56 55 43 56 47 54 82 62 78 114 114 118 114 111 109 107 98 87 68 79 77 113 126 131 141 125 82 89 80 81 114 136 108 70 10 0 0 0 0 0 13 40 0 0 0 0 0 0 0 0 0 0 0 0 0 0 0 0 0 0 0 0 0 0 0 0 0 0 0 0 0 0 0 
0 0 0 0 0 0 0 0 0 0 0 6 0 4 22 102 121 136 131 77 47 95 127 129 125 88 71 55 60 121 153 131 122 134 134 110 112 98 85 89 87 88 61 45 75 96 87 64 50 50 66 44 49 57 64 48 55 49 50 49 58 83 89 112 135 133 124 124 109 104 104 89 65 79 70 77 124 129 137 135 121 91 77 77 83 135 123 106 58 8 0 0 0 0 0 13 40 0 0 0 0 0 0 0 0 0 0 0 0 0 0 0 0 0 0 0 0 0 0 0 0 0 0 0 0 0 0 0 
0 0 0 0 0 0 0 0 0 0 0 7 3 5 21 87 117 135 138 103 57 69 118 127 128 100 80 53 54 108 156 146 141 132 136 120 106 89 83 72 86 97 78 86 82 60 44 68 60 51 53 51 49 58 64 47 56 55 47 62 68 73 115 129 163 168 195 180 162 154 130 101 116 128 108 100 133 141 147 118 114 106 71 80 114 149 123 107 49 6 0 0 0 7 5 11 40 0 0 0 0 0 0 0 0 0 0 0 0 0 0 0 0 0 0 0 0 0 0 0 0 0 0 0 0 0 0 0 
0 0 0 0 0 0 0 0 0 0 0 5 6 5 18 72 114 131 133 126 82 49 101 129 130 124 97 52 51 91 156 174 172 164 152 132 114 97 82 86 101 109 98 77 71 75 54 51 79 42 63 66 58 55 66 47 56 59 56 78 65 91 112 139 173 193 216 218 216 203 166 143 157 154 143 161 161 151 124 90 118 110 74 90 134 126 111 102 41 3 0 0 2 0 0 11 41 0 0 0 0 0 0 0 0 0 0 0 0 0 0 0 0 0 0 0 0 0 0 0 0 0 0 0 0 0 0 0 
0 0 0 0 0 0 0 0 0 0 0 9 5 7 15 60 109 120 135 132 90 44 65 114 134 155 117 57 45 62 134 166 130 108 112 124 145 133 105 103 84 82 89 64 67 56 45 59 97 63 76 95 76 76 91 42 42 50 63 100 72 102 107 129 173 187 191 193 167 164 175 130 114 133 156 165 169 156 106 86 123 111 79 117 159 108 103 102 37 2 0 1 0 0 0 13 42 0 0 0 0 0 0 0 0 0 0 0 0 0 0 0 0 0 0 0 0 0 0 0 0 0 0 0 0 0 0 0 
0 0 0 0 0 0 0 0 0 0 1 11 6 8 15 49 100 119 132 138 98 51 44 85 135 162 141 77 45 46 105 168 159 132 129 147 164 166 158 138 124 81 55 48 68 55 42 53 56 79 93 105 92 94 82 42 46 49 98 109 82 122 124 144 166 183 171 166 131 124 168 132 133 141 162 169 164 140 107 102 135 125 111 155 170 121 96 93 34 2 1 0 0 0 0 12 42 0 0 0 0 0 0 0 0 0 0 0 0 0 0 0 0 0 0 0 0 0 0 0 0 0 0 0 0 0 0 0 
0 0 0 0 0 0 0 0 0 0 0 9 10 11 13 36 88 114 130 149 111 81 39 55 125 159 154 130 76 41 91 191 211 205 197 171 141 131 121 100 95 91 67 56 45 50 40 61 48 74 101 87 112 110 72 48 52 63 114 97 87 125 141 150 157 167 198 202 162 144 155 139 135 108 135 151 147 142 145 131 161 164 140 160 182 155 113 84 29 3 0 6 0 0 0 13 41 0 0 0 0 0 0 0 0 0 0 0 0 0 0 0 0 0 0 0 0 0 0 0 0 0 0 0 0 0 0 0 
0 0 0 0 0 0 0 0 0 0 0 10 14 13 14 28 84 119 117 161 140 142 73 69 122 146 146 124 86 59 95 179 201 185 167 136 119 113 121 119 130 140 116 77 44 59 53 100 65 80 91 87 113 119 84 63 50 71 75 87 91 124 132 136 140 141 167 194 155 123 112 115 110 125 154 154 116 84 111 155 169 179 167 174 165 161 107 72 20 4 4 6 0 0 0 12 40 0 0 0 0 0 0 0 0 0 0 0 0 0 0 0 0 0 0 0 0 0 0 0 0 0 0 0 0 0 0 0 
0 0 0 0 0 0 0 0 0 0 0 6 20 12 16 15 49 99 112 105 173 162 166 124 116 139 161 150 114 71 79 143 165 160 185 168 123 126 152 167 164 154 148 121 76 82 88 106 111 102 86 80 94 142 113 83 63 66 60 80 120 118 123 123 108 110 123 135 127 106 67 77 100 129 145 157 126 86 84 92 112 150 166 160 142 134 97 69 23 9 7 9 0 0 0 9 40 0 0 0 0 0 0 0 0 0 0 0 0 0 0 0 0 0 0 0 0 0 0 0 0 0 0 0 0 0 0 0 
0 0 0 0 0 0 0 0 0 0 0 7 19 11 13 11 28 88 123 101 149 175 161 142 126 144 163 151 145 102 63 102 130 141 192 211 202 198 175 153 146 145 155 153 125 102 106 99 115 108 82 79 97 135 122 104 81 64 65 95 133 139 127 133 127 121 117 102 98 67 43 56 83 126 133 131 92 72 87 83 100 150 151 129 136 93 81 54 17 10 14 7 0 0 0 7 38 0 0 0 0 0 0 0 0 0 0 0 0 0 0 0 0 0 0 0 0 0 0 0 0 0 0 0 0 0 0 0 
0 0 0 0 0 0 0 0 0 0 0 6 19 13 2 9 18 72 120 92 102 160 165 133 126 133 125 131 169 161 98 81 111 143 184 211 206 173 141 126 122 131 152 148 123 111 121 95 87 86 98 92 101 142 127 101 81 75 91 112 113 128 128 140 124 123 114 91 89 91 77 100 163 158 126 100 89 102 108 81 102 141 73 74 135 129 82 32 11 7 19 11 0 0 0 6 37 0 0 0 0 0 0 0 0 0 0 0 0 0 0 0 0 0 0 0 0 0 0 0 0 0 0 0 0 0 0 0 
0 0 0 0 0 0 0 0 0 0 0 0 10 7 0 2 11 44 109 93 90 151 160 122 103 121 124 104 142 153 137 88 80 109 121 146 171 168 150 127 133 133 130 115 109 121 132 89 75 76 81 85 78 83 118 108 92 90 108 95 95 119 138 172 153 77 63 89 103 113 137 161 181 176 168 136 110 111 108 82 87 90 90 91 140 140 52 15 14 15 23 7 4 0 0 5 37 0 0 0 0 0 0 0 0 0 0 0 0 0 0 0 0 0 0 0 0 0 0 0 0 0 0 0 0 0 0 0 
0 0 0 0 0 0 0 0 0 0 0 0 3 5 0 2 9 20 95 104 92 144 143 124 119 121 117 109 116 148 145 120 97 87 91 100 126 146 156 125 110 114 133 116 97 105 125 110 95 92 85 83 83 86 124 124 96 92 116 117 101 132 137 166 158 76 46 52 69 98 136 169 185 151 154 140 145 150 132 128 115 85 104 128 114 95 21 5 1 10 15 2 3 0 0 5 37 0 0 0 0 0 0 0 0 0 0 0 0 0 0 0 0 0 0 0 0 0 0 0 0 0 0 0 0 0 0 0 
0 0 0 0 0 0 0 0 0 0 0 0 0 1 0 0 10 11 66 104 89 130 134 131 124 129 112 102 112 151 178 155 121 122 103 89 114 140 128 90 100 137 129 105 97 99 117 125 99 104 136 133 103 107 141 135 117 96 111 122 101 122 111 114 133 101 52 58 118 136 141 143 161 116 153 162 147 162 176 153 152 102 120 141 120 62 9 6 0 1 3 0 0 0 0 4 35 0 0 0 0 0 0 0 0 0 0 0 0 0 0 0 0 0 0 0 0 0 0 0 0 0 0 0 0 0 0 0 
0 0 0 0 0 0 0 0 0 0 0 0 0 0 0 0 4 10 36 85 100 100 108 133 158 142 119 127 141 156 162 147 133 138 120 101 73 65 52 64 87 135 99 93 101 95 109 128 127 158 167 160 153 144 128 108 102 115 124 151 121 116 82 88 108 106 69 91 141 143 126 102 94 104 167 174 168 190 200 198 149 119 138 145 95 31 6 6 0 0 1 0 0 0 0 3 33 0 0 0 0 0 0 0 0 0 0 0 0 0 0 0 0 0 0 0 0 0 0 0 0 0 0 0 0 0 0 0 
0 0 0 0 0 0 0 0 0 0 0 0 0 0 0 0 3 8 18 82 102 85 107 111 154 182 177 166 171 172 159 111 107 120 126 128 114 76 52 59 111 120 94 89 102 131 146 153 147 151 136 123 128 168 177 158 153 135 124 161 170 162 143 141 139 136 139 142 140 134 105 64 46 70 128 169 186 218 224 210 158 135 131 138 75 16 6 5 0 0 0 0 0 0 0 2 31 0 0 0 0 0 0 0 0 0 0 0 0 0 0 0 0 0 0 0 0 0 0 0 0 0 0 0 0 0 0 0 
0 0 0 0 0 0 0 0 0 0 0 0 0 0 0 0 5 4 10 55 77 97 105 105 153 209 194 181 177 175 147 119 101 111 114 121 132 130 116 124 158 134 146 137 127 154 169 154 135 102 99 108 104 94 106 140 147 149 141 167 182 169 166 162 151 147 162 154 134 118 75 42 43 72 87 130 175 223 214 172 137 98 93 67 56 11 5 5 0 0 0 0 0 0 0 2 30 0 0 0 0 0 0 0 0 0 0 0 0 0 0 0 0 0 0 0 0 0 0 0 0 0 0 0 0 0 0 0 
0 0 0 0 0 0 0 0 0 0 0 0 0 0 0 0 6 5 2 41 51 69 102 117 147 201 198 189 186 194 136 112 106 103 123 136 134 140 150 167 159 152 165 152 130 151 161 150 121 104 105 125 106 103 92 101 124 150 149 182 196 176 165 165 157 140 138 163 135 78 48 47 66 94 116 139 152 205 195 160 117 123 77 27 51 9 3 5 0 0 0 0 0 0 0 2 30 0 0 0 0 0 0 0 0 0 0 0 0 0 0 0 0 0 0 0 0 0 0 0 0 0 0 0 0 0 0 0 
0 0 0 0 0 0 0 0 0 0 0 7 12 12 2 3 5 5 6 31 63 59 75 103 136 194 197 195 189 184 142 119 100 99 93 95 108 122 136 151 146 155 160 170 161 162 167 161 145 123 121 160 157 132 114 110 119 139 142 185 173 143 142 148 142 135 125 171 155 84 63 79 98 120 147 136 161 154 172 153 135 113 73 70 63 6 2 1 4 0 0 0 0 0 0 2 29 0 0 0 0 0 0 0 0 0 0 0 0 0 0 0 0 0 0 0 0 0 0 0 0 0 0 0 0 0 0 0 
0 0 0 0 0 0 0 0 0 0 0 5 11 17 16 12 6 8 14 20 68 55 32 88 139 158 175 186 192 156 127 114 107 104 115 109 99 82 81 99 136 146 140 143 147 151 167 171 158 141 134 154 152 145 126 118 112 106 117 153 124 104 109 129 126 147 145 187 165 126 107 104 107 121 164 138 159 140 130 110 69 41 51 80 44 16 1 0 5 0 0 0 0 0 0 1 28 0 0 0 0 0 0 0 0 0 0 0 0 0 0 0 0 0 0 0 0 0 0 0 0 0 0 0 0 0 0 0 
0 0 0 0 0 0 0 0 0 0 0 1 8 14 12 12 8 12 18 15 35 63 57 94 113 143 159 185 171 139 137 108 116 105 92 96 96 90 85 96 116 103 96 101 95 91 118 146 137 138 144 135 134 142 123 83 81 83 90 121 107 122 140 150 146 151 181 217 182 156 123 97 89 118 147 129 170 141 132 86 38 24 35 59 17 15 12 1 2 4 8 12 4 0 0 0 27 0 0 0 0 0 0 0 0 0 0 0 0 0 0 0 0 0 0 0 0 0 0 0 0 0 0 0 0 0 0 0 
0 0 0 0 0 0 0 0 0 0 0 3 7 13 9 7 9 9 18 16 15 41 79 99 136 157 159 164 145 152 147 94 88 126 92 91 95 101 109 123 155 166 129 111 103 95 88 125 140 150 161 155 154 152 144 118 92 89 78 92 107 146 140 147 140 154 211 225 181 136 126 105 116 164 141 125 150 83 98 86 55 49 74 38 10 13 12 12 13 19 12 7 11 7 3 0 25 0 0 0 0 0 0 0 0 0 0 0 0 0 0 0 0 0 0 0 0 0 0 0 0 0 0 0 0 0 0 0 
0 0 0 0 0 0 0 0 0 0 0 0 6 10 10 8 10 9 11 17 19 28 60 93 126 141 145 131 131 155 167 116 82 103 100 93 110 133 155 173 177 157 186 153 146 136 133 151 164 188 175 147 147 158 166 166 128 109 107 119 128 143 147 169 147 152 179 186 157 133 118 137 146 149 85 65 107 81 101 60 68 84 48 14 4 2 1 6 9 9 7 4 5 7 0 0 22 0 0 0 0 0 0 0 0 0 0 0 0 0 0 0 0 0 0 0 0 0 0 0 0 0 0 0 0 0 0 0 
0 0 0 0 0 0 0 0 0 0 0 0 2 5 9 8 8 3 3 10 21 34 34 61 77 76 82 80 84 120 143 122 110 106 100 61 64 94 119 109 172 170 204 195 168 190 195 189 172 173 158 170 181 180 186 162 109 104 133 159 173 198 180 196 191 177 161 126 34 120 125 163 132 71 29 40 82 66 78 41 29 29 17 14 10 2 0 2 3 6 6 8 3 1 0 0 18 0 0 0 0 0 0 0 0 0 0 0 0 0 0 0 0 0 0 0 0 0 0 0 0 0 0 0 0 0 0 0 
0 0 0 0 0 0 0 0 0 0 0 0 0 0 3 6 2 1 0 7 18 30 24 15 38 45 40 26 33 67 112 94 123 129 140 102 103 172 187 155 124 147 237 203 187 201 219 184 154 160 147 163 187 162 156 175 167 154 191 209 173 149 179 165 166 177 165 228 187 147 110 104 99 73 62 88 96 77 68 36 27 24 37 34 30 0 0 0 2 0 1 2 3 0 0 0 18 0 0 0 0 0 0 0 0 0 0 0 0 0 0 0 0 0 0 0 0 0 0 0 0 0 0 0 0 0 0 0 
0 0 0 0 0 0 0 0 0 0 0 0 0 0 0 1 9 8 6 6 14 12 21 17 29 32 31 27 27 41 94 57 59 85 129 136 119 109 104 96 109 128 156 142 71 72 102 62 51 62 67 96 136 123 114 101 76 74 79 81 89 114 85 190 199 142 172 175 79 74 78 136 87 39 35 94 126 89 58 29 25 29 28 6 3 1 11 9 0 0 0 6 3 0 0 0 20 0 0 0 0 0 0 0 0 0 0 0 0 0 0 0 0 0 0 0 0 0 0 0 0 0 0 0 0 0 0 0 
0 0 0 0 0 0 0 0 0 0 0 0 0 0 0 0 0 6 9 1 4 6 13 16 20 24 23 25 27 41 95 59 48 42 88 96 74 78 69 79 95 106 73 69 75 102 91 47 49 50 47 42 55 57 52 44 54 64 55 58 108 91 56 58 60 83 64 63 79 83 82 131 76 48 34 101 127 81 56 25 28 29 19 4 2 0 2 0 0 0 0 2 0 0 0 0 20 0 0 0 0 0 0 0 0 0 0 0 0 0 0 0 0 0 0 0 0 0 0 0 0 0 0 0 0 0 0 0 
0 0 0 0 0 0 0 0 0 0 0 0 0 0 0 0 0 0 0 0 2 4 8 16 22 24 20 17 23 32 82 66 54 41 79 91 85 116 146 114 82 153 94 74 60 83 116 98 78 75 77 70 54 53 64 79 86 80 71 87 94 68 64 47 38 103 66 22 69 126 164 186 121 74 51 86 105 76 41 25 36 34 18 9 4 0 0 0 0 0 0 0 0 0 0 0 20 0 0 0 0 0 0 0 0 0 0 0 0 0 0 0 0 0 0 0 0 0 0 0 0 0 0 0 0 0 0 0 
0 0 0 0 0 0 0 0 0 0 0 0 0 0 0 0 0 0 0 0 0 0 2 17 19 16 17 18 21 29 57 58 38 55 123 158 141 125 153 139 102 146 198 95 69 101 119 101 80 93 89 80 83 70 79 87 73 61 57 97 127 132 75 59 99 138 49 115 66 87 156 190 145 147 124 89 94 66 36 21 19 8 0 2 0 0 0 0 0 0 0 0 0 0 0 0 16 0 0 0 0 0 0 0 0 0 0 0 0 0 0 0 0 0 0 0 0 0 0 0 0 0 0 0 0 0 0 0 
0 0 0 0 0 0 0 0 0 0 0 0 0 0 0 0 0 0 0 0 0 1 0 4 12 7 10 11 24 19 37 49 64 79 126 152 144 48 84 91 166 217 209 141 110 140 171 151 179 140 95 97 118 122 106 102 95 85 86 139 172 170 122 90 100 128 130 128 104 173 172 217 193 183 146 130 108 38 17 14 18 4 0 0 0 0 0 0 0 0 0 0 0 0 0 0 10 0 0 0 0 0 0 0 0 0 0 0 0 0 0 0 0 0 0 0 0 0 0 0 0 0 0 0 0 0 0 0 
0 0 0 0 0 0 0 0 0 0 0 0 0 0 0 0 0 0 0 0 0 0 0 2 4 11 27 28 21 16 37 59 33 44 98 100 108 124 95 111 136 140 117 109 112 120 143 134 133 168 154 145 164 155 154 148 156 155 149 142 141 141 122 137 151 145 115 65 98 138 149 135 103 82 49 80 87 41 29 23 19 7 4 0 0 0 0 0 0 0 0 0 0 0 12 19 50 0 0 0 0 0 0 0 0 0 0 0 0 0 0 0 0 0 0 0 0 0 0 0 0 0 0 0 0 0 0 0 
0 0 0 0 0 0 0 0 0 0 0 0 0 0 0 0 0 0 0 0 0 0 1 3 10 17 25 26 19 20 32 81 36 40 82 58 37 85 110 111 108 123 127 116 101 82 89 104 123 153 130 93 126 100 104 103 113 124 141 146 99 92 93 68 62 69 77 67 55 53 58 69 100 46 25 83 89 39 29 24 11 4 5 0 0 0 0 0 0 0 0 0 0 0 0 0 29 0 0 0 0 0 0 0 0 0 0 0 0 0 0 0 0 0 0 0 0 0 0 0 0 0 0 0 0 0 0 0 
0 0 0 0 0 0 0 0 0 0 0 0 0 0 0 0 0 0 0 0 0 0 0 5 13 13 21 24 20 22 30 88 57 49 67 46 48 49 67 97 88 90 117 107 110 95 102 85 97 139 91 61 102 104 113 113 114 112 106 96 59 76 99 96 61 62 90 98 86 81 65 44 84 63 35 82 98 49 33 23 14 12 7 0 0 0 0 0 0 0 0 0 0 0 0 0 22 0 0 0 0 0 0 0 0 0 0 0 0 0 0 0 0 0 0 0 0 0 0 0 0 0 0 0 0 0 0 0 
0 0 0 0 0 0 0 0 0 0 0 0 0 0 0 0 0 0 0 0 0 0 0 1 14 11 19 23 19 21 27 86 84 52 73 74 87 85 70 66 61 59 85 109 99 81 87 94 100 121 71 50 80 100 101 82 86 77 76 70 45 83 95 83 107 91 98 105 99 92 85 71 86 85 36 78 105 54 32 20 10 13 5 0 0 0 0 0 0 0 0 0 0 0 0 0 20 0 0 0 0 0 0 0 0 0 0 0 0 0 0 0 0 0 0 0 0 0 0 0 0 0 0 0 0 0 0 0 
0 0 0 0 0 0 0 0 0 0 0 0 0 0 0 0 0 0 0 0 0 0 0 0 9 12 14 22 21 23 26 84 88 57 79 89 75 59 48 44 51 57 59 109 95 66 80 92 112 108 59 56 75 79 59 52 59 57 53 60 49 98 110 77 106 132 107 98 107 101 76 64 89 129 54 75 103 42 28 15 11 13 5 0 0 0 0 0 0 0 0 0 0 0 0 0 17 0 0 0 0 0 0 0 0 0 0 0 0 0 0 0 0 0 0 0 0 0 0 0 0 0 0 0 0 0 0 0 
0 0 0 0 0 0 0 0 0 0 0 0 0 0 0 0 0 0 0 0 0 0 0 0 2 13 13 18 24 23 24 82 93 66 79 85 58 42 44 43 44 53 88 138 95 68 74 92 122 113 65 68 61 57 51 49 48 47 50 56 59 91 119 70 71 125 133 88 88 99 77 55 69 142 89 72 105 34 23 11 11 10 4 0 0 0 0 0 0 0 0 0 0 0 0 0 15 0 0 0 0 0 0 0 0 0 0 0 0 0 0 0 0 0 0 0 0 0 0 0 0 0 0 0 0 0 0 0 
0 0 0 0 0 0 0 0 0 0 0 0 0 0 0 0 0 0 0 0 0 0 0 0 0 9 10 12 20 25 26 85 104 74 59 78 48 34 44 47 47 71 117 162 126 74 64 53 81 116 72 55 49 57 57 52 49 48 51 52 64 91 119 87 73 120 165 102 70 69 56 37 46 126 112 81 100 32 21 13 10 9 3 0 0 0 0 0 0 0 0 0 0 0 0 0 15 0 0 0 0 0 0 0 0 0 0 0 0 0 0 0 0 0 0 0 0 0 0 0 0 0 0 0 0 0 0 0 
0 0 0 0 0 0 0 0 0 0 0 0 0 0 0 0 0 0 0 0 0 0 0 0 0 4 9 13 13 22 25 65 92 77 35 67 44 29 40 50 51 82 109 157 135 72 59 53 75 114 87 56 52 61 63 56 57 61 59 52 70 114 98 90 93 116 157 112 92 59 46 37 47 97 104 95 56 26 20 14 13 9 3 0 0 0 0 0 0 0 0 0 0 0 0 0 12 0 0 0 0 0 0 0 0 0 0 0 0 0 0 0 0 0 0 0 0 0 0 0 0 0 0 0 0 0 0 0 
0 0 0 0 0 0 0 0 0 0 0 0 0 0 0 0 0 0 0 0 0 0 0 0 0 1 9 8 13 14 21 32 73 42 22 61 47 27 33 47 54 77 77 89 104 77 68 55 75 114 130 95 74 81 80 75 81 71 56 65 99 118 80 67 84 103 115 71 81 58 41 34 48 84 52 20 17 23 20 18 15 8 1 0 0 0 0 0 0 0 0 0 0 0 0 0 10 0 0 0 0 0 0 0 0 0 0 0 0 0 0 0 0 0 0 0 0 0 0 0 0 0 0 0 0 0 0 0 
0 0 0 0 0 0 0 0 0 0 0 0 0 0 0 0 0 0 0 0 0 0 0 0 0 0 9 6 8 12 14 16 16 11 13 55 55 31 27 44 59 68 53 80 75 61 60 49 75 117 127 113 92 82 73 70 87 65 41 63 96 107 110 99 83 87 97 84 78 64 40 37 54 88 43 19 12 21 19 19 15 6 1 0 0 0 0 0 0 0 0 0 0 0 0 0 9 0 0 0 0 0 0 0 0 0 0 0 0 0 0 0 0 0 0 0 0 0 0 0 0 0 0 0 0 0 0 0 
0 0 0 0 0 0 0 0 0 0 0 0 0 0 0 0 0 0 0 0 0 0 0 0 0 0 0 11 6 11 13 18 18 14 9 38 73 57 36 46 80 62 50 104 118 62 61 72 96 129 119 98 83 76 84 96 85 82 50 70 101 122 146 91 68 85 145 113 76 84 58 53 76 80 31 15 15 19 21 18 15 8 3 0 0 0 0 0 0 0 0 0 0 0 0 0 9 0 0 0 0 0 0 0 0 0 0 0 0 0 0 0 0 0 0 0 0 0 0 0 0 0 0 0 0 0 0 0 
0 0 0 0 0 0 0 0 0 0 0 0 0 0 0 0 0 0 0 0 0 0 0 0 0 0 0 2 8 11 13 18 17 18 9 12 46 84 82 87 86 51 54 115 130 73 62 69 96 119 106 79 69 68 84 97 92 76 74 81 105 145 137 82 67 97 161 130 68 87 97 92 88 45 26 15 18 18 21 16 14 9 3 0 0 0 0 0 0 0 0 0 0 0 0 0 9 0 0 0 0 0 0 0 0 0 0 0 0 0 0 0 0 0 0 0 0 0 0 0 0 0 0 0 0 0 0 0 
0 0 0 0 0 0 0 0 0 0 0 0 0 0 0 0 0 0 0 0 0 0 0 0 0 0 0 0 7 9 10 18 16 18 9 7 12 32 70 77 55 40 53 128 157 100 58 75 108 109 101 81 83 87 77 77 79 66 66 83 101 136 134 105 71 105 171 145 68 58 79 69 39 22 24 16 18 19 17 15 14 10 3 0 0 0 0 0 0 0 0 0 0 0 0 0 8 0 0 0 0 0 0 0 0 0 0 0 0 0 0 0 0 0 0 0 0 0 0 0 0 0 0 0 0 0 0 0 
0 0 0 0 0 0 0 0 0 0 0 0 0 0 0 0 0 0 0 0 0 0 0 0 0 0 0 0 5 7 9 15 18 15 14 7 19 17 23 32 34 36 52 135 164 130 88 115 118 100 97 79 80 72 62 67 74 70 68 75 84 107 144 141 106 135 177 139 69 43 34 27 24 19 23 20 22 15 15 15 14 10 3 0 0 0 0 0 0 0 0 0 0 0 0 0 7 0 0 0 0 0 0 0 0 0 0 0 0 0 0 0 0 0 0 0 0 0 0 0 0 0 0 0 0 0 0 0 
0 0 0 0 0 0 0 0 0 0 0 0 0 0 0 0 0 0 0 0 0 0 0 0 0 0 0 0 0 6 8 12 17 16 13 11 17 24 24 28 35 36 53 105 165 156 139 141 107 87 91 78 87 81 64 69 78 82 80 77 68 62 112 157 163 163 170 100 60 49 34 25 22 18 21 22 18 15 15 13 14 11 3 0 0 0 0 0 0 0 0 0 0 0 0 0 7 0 0 0 0 0 0 0 0 0 0 0 0 0 0 0 0 0 0 0 0 0 0 0 0 0 0 0 0 0 0 0 
0 0 0 0 0 0 0 0 0 0 0 0 0 0 0 0 0 0 0 0 0 0 0 0 0 0 0 0 0 7 5 10 15 18 14 14 10 24 23 28 34 35 44 55 103 161 158 154 106 67 64 70 93 92 80 84 91 91 93 85 74 55 83 150 182 179 127 67 58 51 27 24 21 15 20 22 17 14 14 13 14 9 3 0 0 0 0 0 0 0 0 0 0 0 0 0 8 0 0 0 0 0 0 0 0 0 0 0 0 0 0 0 0 0 0 0 0 0 0 0 0 0 0 0 0 0 0 0 
0 0 0 0 0 0 0 0 0 0 0 0 0 0 0 0 0 0 0 0 0 0 0 0 0 0 0 0 0 5 6 6 13 15 15 13 10 18 26 26 34 33 35 32 39 90 144 140 86 59 64 78 95 103 98 89 92 90 101 109 93 57 51 111 167 131 82 61 56 42 24 22 20 18 18 21 16 15 16 12 13 8 3 0 0 0 0 0 0 0 0 0 0 0 0 0 6 0 0 0 0 0 0 0 0 0 0 0 0 0 0 0 0 0 0 0 0 0 0 0 0 0 0 0 0 0 0 0 
