P2
128 99
211
0 0 0 0 0 0 0 0 0 0 0 0 0 0 0 0 0 0 0 0 0 0 0 0 0 0 0 0 0 0 0 0 0 0 0 1 3 3 2 0 0 1 0 0 0 0 0 0 0 0 0 0 0 0 0 0 0 0 0 0 0 0 0 0 0 0 0 0 0 0 0 0 0 0 0 0 0 0 0 0 0 0 0 0 1 0 0 0 2 3 3 1 0 0 0 0 0 0 0 0 0 0 0 0 0 0 0 0 0 0 0 0 0 0 0 0 0 0 0 0 0 0 0 0 0 0 0 0 
0 0 0 0 0 0 0 0 0 0 0 0 0 0 0 0 0 0 0 0 0 0 0 0 0 0 0 0 0 0 0 0 0 0 0 1 3 4 3 0 0 1 0 0 0 0 0 0 0 0 0 0 0 0 0 0 0 0 0 0 0 0 0 0 0 0 0 0 0 0 0 0 0 0 0 0 0 0 0 0 0 0 0 0 0 0 0 0 2 3 2 0 0 0 0 0 0 0 0 0 0 0 0 0 0 0 0 0 0 0 0 0 0 0 0 0 0 0 0 0 0 0 0 0 0 0 0 0 
0 0 0 0 0 0 0 0 0 0 0 0 0 0 0 0 0 0 0 0 0 0 0 0 0 0 0 0 0 0 0 0 0 0 0 1 3 4 2 0 0 1 1 0 0 0 0 0 0 0 1 1 1 2 1 0 0 0 0 0 0 0 0 0 0 0 0 0 0 0 0 0 0 0 0 0 0 0 0 0 0 0 0 0 1 1 0 0 2 3 3 1 0 0 0 0 0 0 0 0 0 0 0 0 0 0 0 0 0 0 0 0 0 0 0 0 0 0 0 0 0 0 0 0 0 0 0 0 
0 0 0 0 0 0 0 0 0 0 0 0 0 0 0 0 0 0 0 0 0 0 0 0 0 0 0 0 0 0 0 0 0 0 0 0 3 3 2 0 0 1 0 1 7 14 16 18 18 20 23 26 28 26 25 20 18 16 13 11 4 0 0 0 0 0 0 0 0 0 0 0 0 0 0 0 0 0 0 0 0 0 0 0 1 1 0 0 2 3 2 0 0 0 0 0 0 0 0 0 0 0 0 0 0 0 0 0 0 0 0 0 0 0 0 0 0 0 0 0 0 0 0 0 0 0 0 0 
0 0 0 0 0 0 0 0 0 0 0 0 0 0 0 0 0 0 0 0 0 0 0 0 0 0 0 0 0 0 0 0 0 0 0 0 2 3 2 0 6 14 19 24 24 34 54 76 97 116 131 140 144 144 141 131 117 100 78 54 32 22 15 10 2 0 0 0 0 0 0 0 0 0 0 0 0 0 0 0 0 0 0 0 0 1 0 0 2 2 2 0 0 0 0 0 0 0 0 0 0 0 0 0 0 0 0 0 0 0 0 0 0 0 0 0 0 0 0 0 0 0 0 0 0 0 0 0 
0 0 0 0 0 0 0 0 0 0 0 0 0 0 0 0 0 0 0 0 0 0 0 0 0 0 0 0 0 0 0 0 0 0 0 0 1 3 10 17 25 25 34 68 108 142 162 171 175 179 182 182 180 180 181 181 180 177 170 158 139 111 78 42 22 15 9 1 0 0 0 0 0 0 0 0 0 0 0 0 0 0 0 0 1 1 0 0 2 3 2 1 0 0 0 0 0 0 0 0 0 0 0 0 0 0 0 0 0 0 0 0 0 0 0 0 0 0 0 0 0 0 0 0 0 0 0 0 
0 0 0 0 0 0 0 0 0 0 0 0 0 0 0 0 0 0 0 0 0 0 0 0 0 0 0 0 0 0 0 0 0 0 0 0 9 23 26 25 48 100 144 168 177 180 185 187 185 184 186 187 186 186 187 186 183 180 179 180 181 176 164 144 115 75 39 17 14 2 0 0 0 0 0 0 0 0 0 0 0 0 0 0 1 1 0 0 2 3 2 1 0 0 0 0 0 0 0 0 0 0 0 0 0 0 0 0 0 0 0 0 0 0 0 0 0 0 0 0 0 0 0 0 0 0 0 0 
0 0 0 0 0 0 0 0 0 0 0 0 0 0 0 0 0 0 0 0 0 0 0 0 0 0 0 0 0 0 0 0 0 0 7 24 26 27 63 120 158 174 178 186 191 188 182 175 172 168 172 180 180 168 167 178 190 194 192 187 182 178 180 181 176 162 139 97 47 22 14 1 0 0 0 0 0 0 0 0 0 0 0 0 1 1 0 0 3 3 3 1 0 0 0 0 0 0 0 0 0 0 0 0 0 0 0 0 0 0 0 0 0 0 0 0 0 0 0 0 0 0 0 0 0 0 0 0 
0 0 0 0 0 0 0 0 0 0 0 0 0 0 0 0 0 0 0 0 0 0 0 0 0 0 0 0 0 0 0 0 5 26 23 23 60 126 162 173 174 185 188 186 184 176 168 163 160 159 156 154 151 143 147 157 168 184 199 201 196 191 185 181 178 180 180 170 146 99 44 23 10 0 0 0 0 0 0 0 0 0 0 0 1 1 0 0 3 3 3 1 0 0 0 0 0 0 0 0 0 0 0 0 0 0 0 0 0 0 0 0 0 0 0 0 0 0 0 0 0 0 0 0 0 0 0 0 
0 0 0 0 0 0 0 0 0 0 0 0 0 0 0 0 0 0 0 0 0 0 0 0 0 0 0 0 0 0 0 23 26 23 39 109 159 173 175 182 184 186 184 167 154 153 151 137 122 115 125 133 137 134 137 136 138 142 153 177 201 206 202 196 191 185 180 181 181 169 139 77 29 18 2 0 0 0 0 0 0 0 0 0 1 1 0 0 2 3 3 1 0 0 0 0 0 0 0 0 0 0 0 0 0 0 0 0 0 0 0 0 0 0 0 0 0 0 0 0 0 0 0 0 0 0 0 0 
0 0 0 0 0 0 0 0 0 0 0 0 0 0 0 0 0 0 0 0 0 0 0 0 0 0 0 0 0 10 27 23 25 82 150 172 174 182 183 183 188 178 163 167 163 148 140 138 135 137 141 148 146 141 140 146 145 148 152 149 160 177 192 203 206 201 193 187 180 182 181 164 115 44 23 5 0 0 0 0 0 0 0 0 1 0 0 0 2 4 3 1 0 0 0 0 0 0 0 0 0 0 0 0 0 0 0 0 0 0 0 0 0 0 0 0 0 0 0 0 0 0 0 0 0 0 0 0 
0 0 0 0 0 0 0 0 0 0 0 0 0 0 0 0 0 0 0 0 0 0 0 0 0 0 0 0 23 23 20 47 127 167 172 180 186 186 189 187 180 172 158 148 144 142 140 130 127 125 112 111 110 111 124 131 130 127 130 142 154 166 179 186 192 198 204 201 192 187 180 183 175 143 67 24 10 0 0 0 0 0 0 0 1 1 0 0 3 4 3 1 0 0 0 0 0 0 0 0 0 0 0 0 0 0 0 0 0 0 0 0 0 0 0 0 0 0 0 0 0 0 0 0 0 0 0 0 
0 0 0 0 0 0 0 0 0 0 0 0 0 0 0 0 0 0 0 0 0 0 0 0 0 0 5 26 20 20 75 149 170 177 185 186 189 194 188 174 160 155 150 150 147 147 141 139 143 139 137 142 142 143 153 163 164 163 159 149 143 147 159 173 185 193 195 198 203 199 190 184 180 178 154 84 26 12 0 0 0 0 0 0 1 1 0 0 3 4 3 1 0 0 0 0 0 0 0 0 0 0 0 0 0 0 0 0 0 0 0 0 0 0 0 0 0 0 0 0 0 0 0 0 0 0 0 0 
0 0 0 0 0 0 0 0 0 0 0 0 0 0 0 0 0 0 0 0 0 0 0 0 0 10 26 17 24 98 159 172 183 187 187 194 196 182 164 158 156 154 147 144 146 148 156 162 153 144 132 123 121 125 127 135 143 149 159 165 166 163 162 161 163 171 184 194 195 199 202 192 185 178 179 158 93 27 14 0 0 0 0 0 1 1 0 0 3 4 3 1 0 0 0 0 0 0 0 0 0 0 0 0 0 0 0 0 0 0 0 0 0 0 0 0 0 0 0 0 0 0 0 0 0 0 0 0 
0 0 0 0 0 0 0 0 0 0 0 0 0 0 0 0 0 0 0 0 0 0 0 0 13 23 15 34 114 160 171 184 188 193 196 189 168 161 157 154 156 155 154 152 139 134 126 117 112 105 102 108 102 96 95 96 109 123 130 134 141 144 150 164 170 164 158 165 182 191 192 202 197 186 179 178 161 102 29 13 0 0 0 0 1 1 0 0 3 4 3 1 0 0 0 0 0 0 0 0 0 0 0 0 0 0 0 0 0 0 0 0 0 0 0 0 0 0 0 0 0 0 0 0 0 0 0 0 
0 0 0 0 0 0 0 0 0 0 0 0 0 0 0 0 0 0 0 0 0 0 3 17 20 12 46 125 160 173 187 188 194 192 177 160 159 158 156 164 160 145 134 126 125 121 112 108 105 106 110 114 116 121 124 128 129 129 136 138 136 138 136 135 144 157 168 162 153 167 183 188 198 197 186 178 176 163 114 35 12 0 0 0 1 1 0 1 3 4 3 1 0 0 0 0 0 0 0 0 0 0 0 0 0 0 0 0 0 0 0 0 0 0 0 0 0 0 0 0 0 0 0 0 0 0 0 0 
0 0 0 0 0 0 0 0 0 0 0 0 0 0 0 0 0 0 0 0 0 6 16 18 15 57 134 160 176 186 190 194 182 168 154 157 151 156 164 152 136 132 138 139 133 127 128 129 129 129 129 120 122 133 132 132 132 131 132 133 133 135 141 142 134 131 138 157 168 154 155 172 181 195 198 187 182 179 165 121 37 9 0 1 1 1 0 0 3 4 3 1 0 0 0 0 0 0 0 0 0 0 0 0 0 0 0 0 0 0 0 0 0 0 0 0 0 0 0 0 0 0 0 0 0 0 0 0 
0 0 0 0 0 0 0 0 0 0 0 0 0 0 0 0 0 0 0 0 7 15 16 17 68 141 162 176 188 192 190 170 159 155 155 145 152 156 141 135 139 142 143 132 122 117 116 117 115 117 115 104 102 112 106 108 113 117 120 122 123 122 129 140 149 142 127 126 143 164 152 148 166 175 187 193 185 183 177 164 125 35 7 0 1 1 0 0 3 4 3 1 0 0 0 0 0 0 0 0 0 0 0 0 0 0 0 0 0 0 0 0 0 0 0 0 0 0 0 0 0 0 0 0 0 0 0 0 
0 0 0 0 0 0 0 0 0 0 0 0 0 0 0 0 0 0 0 6 15 15 19 75 142 159 173 186 192 186 166 154 148 151 138 149 156 143 129 133 134 127 116 108 106 107 105 105 109 107 104 93 92 101 104 102 103 106 109 110 113 116 117 119 123 136 145 133 125 138 156 145 141 157 166 183 193 187 184 177 163 118 28 3 1 1 0 1 3 4 4 1 0 0 0 0 0 0 0 0 0 0 0 0 0 0 0 0 0 0 0 0 0 0 0 0 0 0 0 0 0 0 0 0 0 0 0 0 
0 0 0 0 0 0 0 0 0 0 0 0 0 0 0 0 0 0 4 15 14 20 81 144 159 168 182 193 181 165 154 142 142 137 154 156 133 125 130 125 113 102 100 106 104 106 108 107 103 106 102 99 100 108 115 119 120 117 112 103 96 97 99 105 112 116 130 148 141 124 132 151 139 139 155 165 182 193 189 185 171 158 103 19 2 1 0 1 3 4 3 1 0 0 0 0 0 0 0 0 0 0 0 0 0 0 0 0 0 0 0 0 0 0 0 0 0 0 0 0 0 0 0 0 0 0 0 0 
0 0 0 0 0 0 0 0 0 0 0 0 0 0 0 0 0 1 15 12 20 79 141 157 167 179 193 179 162 152 141 139 131 153 152 126 119 125 116 108 104 102 103 101 106 112 112 111 119 118 115 117 121 129 131 136 138 135 129 123 118 110 100 94 96 104 114 128 148 136 120 129 144 136 139 151 160 181 192 186 181 167 149 81 11 1 0 0 3 4 3 1 0 0 0 0 0 0 0 0 0 0 0 0 0 0 0 0 0 0 0 0 0 0 0 0 0 0 0 0 0 0 0 0 0 0 0 0 
0 0 0 0 0 0 0 0 0 0 0 0 0 0 0 0 0 11 12 17 72 134 152 163 172 190 175 157 152 136 136 130 153 158 123 113 121 115 111 110 103 101 105 114 119 123 126 128 129 112 117 126 130 130 127 126 129 133 135 139 138 126 116 102 92 95 104 113 128 142 131 119 132 139 137 141 147 163 183 190 187 177 161 135 52 4 0 0 3 4 3 1 0 0 0 0 0 0 0 0 0 0 0 0 0 0 0 0 0 0 0 0 0 0 0 0 0 0 0 0 0 0 0 0 0 0 0 0 
0 0 0 0 0 0 0 0 0 0 0 0 0 0 0 0 6 13 13 59 125 146 154 169 189 178 152 154 134 133 130 144 149 121 107 120 121 117 107 100 102 110 122 128 130 129 128 124 112 101 105 109 108 106 103 101 108 113 118 122 131 138 134 122 106 94 95 109 116 128 136 130 120 134 131 131 137 143 166 180 189 187 172 153 111 24 1 1 3 4 3 1 0 0 0 0 0 0 0 0 0 0 0 0 0 0 0 0 0 0 0 0 0 0 0 0 0 0 0 0 0 0 0 0 0 0 0 0 
0 0 0 0 0 0 0 0 0 0 0 0 0 0 0 2 12 12 46 114 142 152 165 185 182 152 152 135 133 134 139 146 121 107 119 125 115 105 102 110 115 117 119 119 118 113 110 109 100 93 96 96 93 91 88 84 88 90 93 100 113 124 133 134 121 107 97 96 106 119 123 127 124 121 133 127 137 134 141 167 181 189 178 164 140 74 7 1 4 4 3 1 0 0 0 0 0 0 0 0 0 0 0 0 0 0 0 0 0 0 0 0 0 0 0 0 0 0 0 0 0 0 0 0 0 0 0 0 
0 0 0 0 0 0 0 0 0 0 0 0 0 0 0 8 10 23 97 131 147 159 179 185 154 148 140 129 133 140 147 124 105 117 123 112 105 105 107 108 108 111 112 109 105 102 101 98 93 91 89 89 86 84 86 87 87 88 88 93 98 105 120 130 128 118 106 100 98 107 117 117 122 119 129 134 133 138 129 151 167 182 184 171 153 118 31 1 3 4 3 1 0 0 0 0 0 0 0 0 0 0 0 0 0 0 0 0 0 0 0 0 0 0 0 0 0 0 0 0 0 0 0 0 0 0 0 0 
0 0 0 0 0 0 0 0 0 0 0 0 0 0 2 9 13 71 122 140 149 166 178 165 144 143 125 127 137 151 131 106 113 129 120 105 109 107 102 100 105 106 106 101 96 96 90 88 89 89 87 89 88 89 89 88 90 92 92 94 91 98 105 116 126 124 111 100 98 100 108 117 117 122 127 138 131 130 130 134 148 167 181 172 160 135 68 5 3 4 3 0 0 0 0 0 0 0 0 0 0 0 0 0 0 0 0 0 0 0 0 0 0 0 0 0 0 0 0 0 0 0 0 0 0 0 0 0 
0 0 0 0 0 0 0 0 0 0 0 0 0 0 5 10 39 109 128 146 158 173 165 146 136 130 118 133 147 140 112 113 122 122 111 107 107 101 97 102 105 102 98 94 91 89 88 90 91 93 92 96 97 101 104 106 98 94 91 89 84 88 93 98 108 121 122 108 98 98 99 109 119 116 122 136 142 125 129 124 130 154 172 173 165 146 102 18 3 4 3 0 0 0 0 0 0 0 0 0 0 0 0 0 0 0 0 0 0 0 0 0 0 0 0 0 0 0 0 0 0 0 0 0 0 0 0 0 
0 0 0 0 0 0 0 0 0 0 0 0 0 0 7 17 80 122 138 149 168 162 154 135 129 119 127 143 146 116 108 120 117 109 107 105 97 95 101 104 99 94 92 89 87 90 92 92 97 104 111 114 115 126 120 115 111 101 95 86 76 73 80 91 98 106 124 120 106 98 99 103 116 122 117 124 146 133 126 120 124 147 163 172 165 153 124 40 4 4 3 1 0 0 0 0 0 0 0 0 0 0 0 0 0 0 0 0 0 0 0 0 0 0 0 0 0 0 0 0 0 0 0 0 0 0 0 0 
0 0 0 0 0 0 0 0 0 0 0 0 0 3 6 37 105 129 141 155 167 152 143 129 122 114 136 144 131 105 117 124 108 107 107 100 96 100 98 94 95 89 87 88 89 94 96 99 108 112 119 130 129 128 112 104 107 107 103 92 85 79 75 82 92 95 109 127 120 104 97 99 108 121 118 120 140 136 125 116 120 144 158 169 169 158 132 61 7 4 3 1 0 0 0 0 0 0 0 0 0 0 0 0 0 0 0 0 0 0 0 0 0 0 0 0 0 0 0 0 0 0 0 0 0 0 0 0 
0 0 0 0 0 0 0 0 0 0 0 0 0 4 8 65 118 132 149 162 156 143 137 119 117 122 137 133 118 107 124 116 100 105 99 96 104 105 96 91 91 94 92 96 104 107 109 106 104 101 102 114 124 113 96 88 90 94 98 103 103 97 88 86 91 89 94 116 132 120 103 99 99 116 122 120 132 128 121 117 111 136 154 168 172 161 138 79 9 5 4 1 0 0 0 0 0 0 0 0 0 0 0 0 0 0 0 0 0 0 0 0 0 0 0 0 0 0 0 0 0 0 0 0 0 0 0 0 
0 0 0 0 0 0 0 0 0 0 0 0 0 5 17 90 125 140 156 161 141 132 135 112 119 131 126 123 110 116 123 108 101 106 102 108 113 103 90 94 99 107 116 118 117 113 100 95 94 94 95 102 114 103 93 89 87 87 89 91 99 106 106 102 97 91 87 95 120 134 122 105 94 105 121 122 126 123 115 118 114 128 150 164 170 159 144 94 14 5 4 2 0 0 0 0 0 0 0 0 0 0 0 0 0 0 0 0 0 0 0 0 0 0 0 0 0 0 0 0 0 0 0 0 0 0 0 0 
0 0 0 0 0 0 0 0 0 0 0 0 1 4 33 106 127 147 155 151 128 131 128 111 126 130 113 120 110 118 115 102 105 112 115 116 109 98 96 101 102 105 110 122 119 102 95 94 95 92 90 91 104 96 89 86 86 88 90 97 102 104 113 118 116 106 90 79 96 128 137 123 100 93 114 126 129 124 110 112 115 122 153 165 171 162 148 108 20 5 4 1 0 0 0 0 0 0 0 0 0 0 0 0 0 0 0 0 0 0 0 0 0 0 0 0 0 0 0 0 0 0 0 0 0 0 0 0 
0 0 0 0 0 0 0 0 0 0 0 0 2 6 48 115 128 151 147 139 118 128 127 116 126 117 102 119 110 114 107 103 112 121 118 110 104 101 105 105 105 106 100 98 110 103 93 90 91 93 93 93 100 98 95 96 97 96 99 108 114 115 115 122 127 114 89 86 93 114 137 140 118 94 105 126 128 122 108 109 115 119 150 163 171 166 153 120 29 5 4 1 0 0 0 0 0 0 0 0 0 0 0 0 0 0 0 0 0 0 0 0 0 0 0 0 0 0 0 0 0 0 0 0 0 0 0 0 
0 0 0 0 0 0 0 0 0 0 0 0 2 9 60 121 135 154 141 132 115 127 126 124 119 104 101 124 113 108 105 111 120 126 117 104 103 103 110 108 107 102 90 89 103 104 94 91 95 103 112 113 113 112 113 114 113 112 110 111 92 91 93 96 110 116 108 93 91 97 122 142 137 110 100 119 125 119 110 107 117 124 147 165 168 172 154 131 40 5 4 1 0 0 0 0 0 0 0 0 0 0 0 0 0 0 0 0 0 0 0 0 0 0 0 0 0 0 0 0 0 0 0 0 0 0 0 0 
0 0 0 0 0 0 0 0 0 0 0 0 2 11 69 124 140 148 143 136 122 128 129 130 114 101 100 120 107 105 110 119 123 120 109 106 105 113 120 120 119 106 86 86 87 97 100 99 103 113 122 122 120 117 118 125 123 122 120 112 89 87 90 92 102 118 116 111 104 95 105 127 142 133 105 111 121 111 106 105 116 132 145 167 168 173 157 140 51 7 4 2 0 0 0 0 0 0 0 0 0 0 0 0 0 0 0 0 0 0 0 0 0 0 0 0 0 0 0 0 0 0 0 0 0 0 0 0 
0 0 0 0 0 0 0 0 0 0 0 0 3 12 77 128 146 151 148 139 125 127 133 130 110 101 99 117 107 105 116 121 115 112 110 119 117 114 114 118 121 117 98 90 85 86 96 115 113 119 123 121 118 108 113 124 124 123 129 113 90 86 87 93 108 117 125 122 110 103 108 117 127 135 125 114 117 107 104 104 117 130 142 167 168 175 161 147 62 7 4 1 0 0 0 0 0 0 0 0 0 0 0 0 0 0 0 0 0 0 0 0 0 0 0 0 0 0 0 0 0 0 0 0 0 0 0 0 
0 0 0 0 0 0 0 0 0 0 0 0 4 13 82 131 153 154 151 140 128 129 135 128 116 106 99 118 110 106 125 111 101 113 126 127 123 110 103 100 97 98 96 96 93 83 88 110 125 132 133 122 118 101 108 119 113 118 124 103 88 85 94 101 105 106 107 100 90 89 95 105 121 127 133 137 123 107 108 111 121 131 139 160 166 174 164 149 76 9 4 2 0 0 0 0 0 0 0 0 0 0 0 0 0 0 0 0 0 0 0 0 0 0 0 0 0 0 0 0 0 0 0 0 0 0 0 0 
0 0 0 0 0 0 0 0 0 0 0 0 5 13 86 134 156 154 149 141 131 134 138 129 124 109 102 109 115 117 122 97 104 124 125 121 109 95 88 88 89 91 93 96 96 92 88 90 104 116 123 121 118 103 108 101 101 106 106 91 86 98 98 92 91 97 102 97 85 76 78 89 101 125 137 138 142 117 113 116 123 131 132 152 162 174 168 150 91 11 4 2 0 0 0 0 0 0 0 0 0 0 0 0 0 0 0 0 0 0 0 0 0 0 0 0 0 0 0 0 0 0 0 0 0 0 0 0 
0 0 0 0 0 0 0 0 0 0 0 0 5 13 88 136 156 152 150 143 131 133 142 133 129 112 105 102 124 134 112 96 111 116 113 102 94 86 84 89 88 85 83 89 91 89 89 90 94 110 113 111 113 112 110 104 107 107 95 87 96 91 92 93 100 111 117 116 109 103 98 98 107 117 127 137 151 140 119 117 119 126 128 148 152 177 170 153 104 15 4 2 0 0 0 0 0 0 0 0 0 0 0 0 0 0 0 0 0 0 0 0 0 0 0 0 0 0 0 0 0 0 0 0 0 0 0 0 
0 0 0 0 0 0 0 0 0 0 0 0 7 14 91 139 154 152 149 139 128 132 140 131 131 116 112 110 132 131 106 105 98 102 105 106 100 95 101 106 105 96 89 87 87 92 89 93 88 104 117 112 112 111 114 115 118 106 90 98 93 90 94 86 93 103 108 112 105 96 95 99 112 120 129 142 152 156 130 121 117 125 124 142 141 172 170 152 115 18 4 2 0 0 0 0 0 0 0 0 0 0 0 0 0 0 0 0 0 0 0 0 0 0 0 0 0 0 0 0 0 0 0 0 0 0 0 0 
0 0 0 0 0 0 0 0 0 0 0 0 7 15 93 142 158 157 145 131 124 128 132 125 125 125 114 120 144 128 113 100 90 101 114 117 108 102 99 98 98 96 96 97 87 83 93 93 93 99 118 121 115 106 114 119 120 103 91 102 91 87 73 80 88 96 105 107 99 91 89 94 116 132 129 125 149 154 144 121 113 122 119 135 134 159 171 153 124 25 4 2 0 0 0 0 0 0 0 0 0 0 0 0 0 0 0 0 0 0 0 0 0 0 0 0 0 0 0 0 0 0 0 0 0 0 0 0 
0 0 0 0 0 0 0 0 0 0 0 0 7 16 93 146 157 158 136 128 125 126 130 122 122 129 123 128 142 130 128 111 105 120 125 114 97 87 83 87 88 84 83 86 92 85 89 95 96 98 116 122 113 103 112 117 116 98 93 104 90 71 77 88 96 102 107 106 95 83 81 93 117 126 115 114 131 152 152 121 109 119 114 124 126 150 172 153 129 36 5 2 0 0 0 0 0 0 0 0 0 0 0 0 0 0 0 0 0 0 0 0 0 0 0 0 0 0 0 0 0 0 0 0 0 0 0 0 
0 0 0 0 0 0 0 0 0 0 0 0 7 16 94 149 157 157 132 128 123 122 125 121 114 118 119 133 147 129 119 106 103 118 117 107 96 88 90 93 95 93 87 82 85 95 93 98 100 103 118 124 116 116 120 117 110 97 94 101 78 78 86 89 92 99 104 102 90 80 76 89 117 119 113 106 119 142 146 122 107 111 110 123 113 141 166 153 133 46 6 2 0 0 0 0 0 0 0 0 0 0 0 0 0 0 0 0 0 0 0 0 0 0 0 0 0 0 0 0 0 0 0 0 0 0 0 0 
0 0 0 0 0 0 0 0 0 0 0 0 8 17 98 150 160 157 136 126 121 117 118 114 104 108 119 129 141 120 107 96 95 118 117 103 93 88 90 87 89 87 88 90 89 92 104 107 114 107 119 116 109 115 113 112 114 103 102 90 82 85 82 89 91 94 99 98 87 77 75 87 118 123 113 97 115 134 139 122 106 103 109 122 104 132 161 153 134 53 7 2 0 0 0 0 0 0 0 0 0 0 0 0 0 0 0 0 0 0 0 0 0 0 0 0 0 0 0 0 0 0 0 0 0 0 0 0 
0 0 0 0 0 0 0 0 0 0 0 0 8 19 97 149 160 151 130 115 114 110 109 105 97 98 116 128 138 120 101 100 92 117 117 101 93 91 92 88 82 80 82 89 96 96 98 108 116 120 127 113 110 114 116 120 119 117 105 88 87 85 91 96 88 89 95 93 83 76 74 86 113 120 106 89 117 136 131 121 110 98 105 120 95 120 151 155 137 59 7 3 0 0 0 0 0 0 0 0 0 0 0 0 0 0 0 0 0 0 0 0 0 0 0 0 0 0 0 0 0 0 0 0 0 0 0 0 
0 0 0 0 0 0 0 0 0 0 0 0 9 18 95 149 162 144 125 109 106 107 102 97 96 91 109 128 139 122 99 98 93 108 110 97 93 89 91 84 83 85 83 87 93 96 99 102 103 116 133 127 117 102 105 105 120 113 102 90 95 96 92 83 84 89 94 91 82 76 76 88 111 119 99 87 115 135 121 120 112 96 108 119 98 116 135 142 136 64 7 3 0 0 0 0 0 0 0 0 0 0 0 0 0 0 0 0 0 0 0 0 0 0 0 0 0 0 0 0 0 0 0 0 0 0 0 0 
0 0 0 0 0 0 0 0 0 0 0 0 8 18 92 147 162 135 124 100 99 105 99 98 99 87 111 124 135 124 103 94 96 108 111 100 93 90 92 86 84 93 101 101 96 98 105 104 102 112 126 134 116 104 101 90 111 121 94 97 92 88 85 86 90 94 96 89 79 75 78 91 111 114 91 90 114 136 119 118 114 96 104 115 98 115 131 146 134 63 7 2 0 0 0 0 0 0 0 0 0 0 0 0 0 0 0 0 0 0 0 0 0 0 0 0 0 0 0 0 0 0 0 0 0 0 0 0 
0 0 0 0 0 0 0 0 0 0 0 0 7 17 88 143 157 126 117 100 100 107 98 98 104 91 111 118 131 124 113 93 93 107 112 104 93 91 93 86 84 87 91 87 88 96 102 105 109 119 129 119 101 97 97 86 93 121 87 90 94 87 82 95 98 100 96 86 78 76 78 93 112 107 83 99 129 139 113 117 115 95 101 110 99 113 130 148 129 60 7 2 0 0 0 0 0 0 0 0 0 0 0 0 0 0 0 0 0 0 0 0 0 0 0 0 0 0 0 0 0 0 0 0 0 0 0 0 
0 0 0 0 0 0 0 0 0 0 0 0 6 15 81 139 153 124 110 101 99 108 99 94 103 92 108 115 128 122 119 100 91 106 112 105 97 95 92 91 87 90 82 78 86 90 101 107 108 114 121 104 97 99 100 90 89 112 98 84 88 85 82 98 99 99 95 87 77 74 77 95 115 94 78 103 137 133 108 118 114 93 101 106 99 111 131 146 127 56 6 2 0 0 0 0 0 0 0 0 0 0 0 0 0 0 0 0 0 0 0 0 0 0 0 0 0 0 0 0 0 0 0 0 0 0 0 0 
0 0 0 0 0 0 0 0 0 0 0 0 4 13 74 138 152 128 112 103 96 106 103 88 102 92 103 117 129 118 114 108 90 100 109 111 102 94 92 91 88 92 82 79 84 85 89 90 101 117 110 100 96 100 103 90 83 98 112 82 85 82 83 101 104 98 95 86 74 72 76 97 112 89 85 115 136 129 112 119 112 94 105 101 99 110 133 143 121 52 6 3 0 0 0 0 0 0 0 0 0 0 0 0 0 0 0 0 0 0 0 0 0 0 0 0 0 0 0 0 0 0 0 0 0 0 0 0 
0 0 0 0 0 0 0 0 0 0 0 0 1 13 70 134 151 132 112 106 94 105 106 92 102 94 100 118 131 110 103 106 89 99 108 108 103 92 89 89 92 95 87 82 79 84 86 91 106 121 98 91 92 101 105 93 85 80 115 96 94 88 85 100 103 101 99 83 72 71 80 102 105 89 93 123 136 130 125 123 108 95 105 97 98 110 134 138 113 46 7 3 0 0 0 0 0 0 0 0 0 0 0 0 0 0 0 0 0 0 0 0 0 0 0 0 0 0 0 0 0 0 0 0 0 0 0 0 
0 0 0 0 0 0 0 0 0 7 6 0 0 13 62 128 147 135 112 105 93 99 108 95 96 97 99 117 129 104 97 100 90 99 106 110 107 92 88 88 94 97 96 84 91 97 100 95 107 108 97 85 90 103 106 94 86 84 101 114 110 108 110 105 104 107 107 91 71 73 85 100 96 91 105 129 133 127 140 133 105 99 98 94 95 113 129 133 104 42 6 3 0 0 0 0 0 0 0 0 0 0 0 0 0 0 0 0 0 0 0 0 0 0 0 0 0 0 0 0 0 0 0 0 0 0 0 0 
0 0 0 0 0 0 0 0 1 3 6 5 2 10 51 119 147 136 108 104 94 94 108 98 90 97 100 119 129 106 89 96 89 106 109 103 96 93 85 87 99 97 99 90 93 100 102 100 117 97 91 81 86 98 97 98 92 83 87 116 114 121 131 126 119 109 99 95 85 81 83 94 99 96 113 133 129 105 127 135 113 104 89 98 94 114 130 129 96 38 6 2 0 0 0 0 0 0 0 0 0 0 0 0 0 0 0 0 0 0 0 0 0 0 0 0 0 0 0 0 0 0 0 0 0 0 0 0 
0 0 0 0 0 0 0 0 0 0 5 10 4 9 42 109 141 137 106 100 93 90 106 99 85 93 102 115 128 119 107 96 86 102 110 102 93 87 83 92 96 94 97 107 111 111 92 93 113 77 82 78 81 94 90 85 89 84 87 112 132 109 110 128 135 132 122 106 90 88 88 97 97 98 108 134 111 98 120 142 126 106 89 94 101 118 135 125 90 32 5 2 0 0 0 0 0 0 0 0 0 0 0 0 0 0 0 0 0 0 0 0 0 0 0 0 0 0 0 0 0 0 0 0 0 0 0 0 
0 0 0 0 0 0 0 0 0 0 5 13 4 9 34 98 136 138 108 102 96 92 98 104 87 88 106 110 124 133 130 109 96 99 111 107 96 90 101 98 106 109 111 110 101 100 86 98 105 76 74 74 77 100 85 77 83 77 83 115 136 111 100 113 125 151 150 134 123 122 121 120 117 122 132 134 118 124 125 137 129 113 99 92 112 123 144 117 82 24 5 3 1 9 4 0 0 0 0 0 0 0 0 0 0 0 0 0 0 0 0 0 0 0 0 0 0 0 0 0 0 0 0 0 0 0 0 0 
0 0 0 0 0 0 0 0 0 0 3 9 4 8 28 88 130 140 112 106 102 94 90 106 91 89 109 115 123 132 129 115 108 123 132 131 127 123 126 121 115 109 91 88 93 89 84 100 108 69 66 75 73 92 81 68 74 76 80 123 136 97 105 103 112 128 146 139 125 137 156 150 127 116 124 129 131 139 118 135 133 116 125 112 106 129 146 110 78 18 7 5 3 1 0 0 0 0 0 0 0 0 0 0 0 0 0 0 0 0 0 0 0 0 0 0 0 0 0 0 0 0 0 0 0 0 0 0 
0 0 0 0 0 0 0 0 0 0 2 8 3 8 20 79 123 144 125 106 102 92 91 97 102 101 109 123 116 128 134 119 110 125 141 150 144 125 124 112 112 110 107 110 96 90 85 98 107 77 72 78 73 92 81 71 82 87 93 128 129 103 101 108 114 132 146 148 140 149 152 133 123 114 121 132 152 150 128 140 127 120 117 137 130 131 118 101 69 14 10 7 8 1 0 0 0 0 0 0 0 0 0 0 0 0 0 0 0 0 0 0 0 0 0 0 0 0 0 0 0 0 0 0 0 0 0 0 
0 0 0 0 0 0 0 0 0 0 2 8 3 8 13 67 114 142 137 108 108 84 97 113 113 107 115 133 117 127 135 120 111 124 129 142 137 131 125 114 101 96 89 97 99 88 86 96 117 104 82 75 80 90 92 77 82 95 102 124 128 115 107 112 125 132 131 146 149 151 142 124 128 139 135 148 159 147 142 150 142 137 128 150 148 128 95 92 53 11 7 4 4 2 0 0 0 0 0 0 0 0 0 0 0 0 0 0 0 0 0 0 0 0 0 0 0 0 0 0 0 0 0 0 0 0 0 0 
0 0 0 0 0 0 0 0 0 0 0 7 6 10 13 54 106 140 144 125 119 95 104 116 122 115 114 133 125 123 137 128 117 132 135 139 155 151 138 116 99 89 89 100 99 85 90 101 109 89 84 92 83 108 93 76 84 100 107 109 123 113 115 115 113 115 127 142 154 147 136 135 144 138 124 154 163 151 144 150 175 159 151 174 165 138 121 93 34 12 7 3 3 2 0 0 0 0 0 0 0 0 0 0 0 0 0 0 0 0 0 0 0 0 0 0 0 0 0 0 0 0 0 0 0 0 0 0 
0 0 0 0 0 0 0 0 0 0 0 7 5 7 8 36 99 140 143 143 139 135 119 127 142 132 134 126 130 134 122 136 137 156 156 134 146 154 140 113 110 108 102 96 101 91 100 103 89 86 98 104 104 124 104 86 89 103 118 117 111 107 103 114 115 110 113 130 147 151 135 137 145 128 129 148 154 164 157 156 169 165 170 175 144 124 114 79 18 9 6 3 2 2 0 0 0 0 0 0 0 0 0 0 0 0 0 0 0 0 0 0 0 0 0 0 0 0 0 0 0 0 0 0 0 0 0 0 
0 0 0 0 0 0 0 0 0 0 0 6 5 6 10 12 56 123 146 146 148 169 166 151 151 143 136 130 118 140 138 136 145 158 159 134 129 141 143 130 119 113 110 100 99 97 103 108 103 94 99 109 112 117 127 99 90 97 104 112 110 99 107 116 102 108 101 123 139 143 134 139 141 123 133 155 146 160 159 159 178 168 170 164 126 119 119 87 16 8 8 4 2 2 0 0 0 0 0 0 0 0 0 0 0 0 0 0 0 0 0 0 0 0 0 0 0 0 0 0 0 0 0 0 0 0 0 0 
0 0 0 0 0 0 0 0 0 0 0 6 5 5 8 10 34 108 146 145 153 161 167 166 148 156 155 152 113 132 135 130 138 144 164 158 135 143 133 113 98 106 105 102 100 101 106 112 109 109 103 102 112 123 126 111 89 84 91 92 95 98 87 112 98 101 100 117 132 125 131 142 125 128 152 153 142 142 130 136 155 154 150 125 104 128 111 59 9 7 10 5 1 2 0 0 0 0 0 0 0 0 0 0 0 0 0 0 0 0 0 0 0 0 0 0 0 0 0 0 0 0 0 0 0 0 0 0 
0 0 0 0 0 0 0 0 0 0 0 5 3 3 5 8 23 85 144 145 136 152 143 135 152 148 139 132 137 136 123 121 125 133 157 173 143 133 114 106 95 97 98 107 108 100 102 105 96 93 97 99 92 113 122 108 75 84 96 87 100 101 97 104 89 92 103 114 116 132 146 144 128 158 155 148 148 142 124 130 153 154 125 117 123 129 98 30 6 6 8 7 1 2 0 0 0 0 0 0 0 0 0 0 0 0 0 0 0 0 0 0 0 0 0 0 0 0 0 0 0 0 0 0 0 0 0 0 
0 0 0 0 0 0 0 0 0 0 0 5 1 1 3 9 19 62 133 147 131 138 148 149 137 137 137 125 129 142 121 111 128 128 132 151 149 130 112 103 92 84 91 97 92 92 105 89 99 97 100 90 68 73 99 102 82 91 99 84 100 103 105 127 107 95 88 94 106 127 138 133 138 158 144 146 149 147 133 141 130 128 122 128 135 122 73 15 5 6 7 7 3 3 0 0 0 0 0 0 0 0 0 0 0 0 0 0 0 0 0 0 0 0 0 0 0 0 0 0 0 0 0 0 0 0 0 0 
0 0 0 0 0 0 0 0 0 0 1 6 2 2 5 9 16 34 106 140 114 117 141 147 149 126 118 125 130 141 131 112 110 112 112 123 140 136 137 113 96 85 94 94 83 91 112 91 116 109 96 90 84 86 117 117 89 97 94 91 95 112 112 129 116 89 80 89 108 113 108 136 159 139 127 133 146 147 138 145 142 123 110 113 103 94 45 14 7 7 7 4 2 3 0 0 0 0 0 0 0 0 0 0 0 0 0 0 0 0 0 0 0 0 0 0 0 0 0 0 0 0 0 0 0 0 0 0 
0 0 0 0 0 0 0 0 0 0 1 6 4 2 4 8 11 19 78 136 117 121 136 142 143 134 119 128 139 150 148 139 118 102 116 129 135 132 115 101 89 92 100 101 95 112 110 119 130 111 112 113 99 101 140 136 115 106 105 113 120 134 124 124 105 101 89 92 93 105 110 140 137 137 129 130 150 149 163 150 137 106 95 97 78 74 20 14 9 10 8 4 2 3 0 0 0 0 0 0 0 0 0 0 0 0 0 0 0 0 0 0 0 0 0 0 0 0 0 0 0 0 0 0 0 0 0 0 
0 0 0 0 0 0 0 0 0 0 1 7 7 4 1 3 9 12 47 114 133 114 131 151 143 147 132 131 148 155 145 131 110 107 105 115 131 115 101 96 91 103 102 112 127 122 116 119 142 135 140 137 137 144 149 133 124 130 131 131 134 136 126 129 119 103 88 86 98 120 110 109 133 126 121 128 145 155 172 171 133 102 99 103 85 55 13 10 11 12 9 5 2 4 0 0 0 0 0 0 0 0 0 0 0 0 0 0 0 0 0 0 0 0 0 0 0 0 0 0 0 0 0 0 0 0 0 0 
0 0 0 0 0 0 0 0 0 0 2 6 9 7 0 2 11 11 27 91 128 113 112 131 155 149 151 144 150 161 163 151 130 122 105 101 103 99 92 101 95 103 105 110 125 133 127 135 151 156 145 141 153 169 169 155 158 153 144 141 150 152 149 144 148 128 109 118 114 122 116 116 131 122 111 129 147 167 167 161 113 95 95 108 94 35 12 11 9 11 11 4 2 4 0 0 0 0 0 0 0 0 0 0 0 0 0 0 0 0 0 0 0 0 0 0 0 0 0 0 0 0 0 0 0 0 0 0 
0 0 0 0 0 0 0 0 0 0 3 6 8 7 1 2 10 13 16 64 121 127 100 105 145 155 150 159 156 153 167 159 128 118 116 113 104 101 105 110 124 119 121 118 131 142 152 148 151 138 126 131 136 142 153 157 159 157 131 121 133 163 164 167 157 154 135 134 133 116 113 117 118 117 117 131 148 167 154 143 126 107 93 112 80 20 12 8 3 9 11 4 5 6 1 0 0 0 0 0 0 0 0 0 0 0 0 0 0 0 0 0 0 0 0 0 0 0 0 0 0 0 0 0 0 0 0 0 
0 0 0 0 0 0 0 0 0 0 1 6 6 2 0 2 6 14 13 38 97 126 101 100 124 143 151 159 153 151 154 161 134 117 107 110 107 107 113 120 132 144 155 158 162 156 161 150 145 138 144 154 142 145 133 139 148 157 149 150 152 155 171 155 159 171 158 159 153 123 104 94 99 115 121 133 146 162 136 129 108 101 103 111 66 14 11 6 3 3 7 7 8 7 2 0 0 0 0 0 0 0 0 0 0 0 0 0 0 0 0 0 0 0 0 0 0 0 0 0 0 0 0 0 0 0 0 0 
0 0 0 0 0 0 0 0 0 0 0 5 13 6 1 1 5 9 11 24 75 120 115 116 122 131 144 155 144 142 153 154 128 121 104 101 102 107 111 118 123 130 146 165 164 156 162 158 155 149 151 160 158 145 137 136 140 142 127 142 141 144 164 171 174 172 170 157 142 104 83 93 102 112 136 151 149 144 130 125 90 76 91 107 53 15 7 3 3 2 6 9 9 7 4 0 0 0 0 0 0 0 0 0 0 0 0 0 0 0 0 0 0 0 0 0 0 0 0 0 0 0 0 0 0 0 0 0 
0 0 0 0 0 0 0 0 0 0 0 7 13 13 8 6 7 8 13 18 56 108 112 107 103 109 131 124 149 136 129 136 133 117 102 94 89 101 120 128 130 131 147 161 156 143 151 166 165 160 147 154 152 136 127 124 123 124 108 121 122 139 158 186 186 171 173 158 142 115 97 93 90 114 152 166 162 159 152 99 71 68 83 88 34 16 6 2 4 5 6 7 8 7 5 0 0 0 0 0 0 0 0 0 0 0 0 0 0 0 0 0 0 0 0 0 0 0 0 0 0 0 0 0 0 0 0 0 
0 0 0 0 0 0 0 0 0 0 0 6 11 9 10 8 8 11 14 16 30 79 106 101 88 100 128 134 158 143 121 128 129 110 100 109 112 103 90 87 94 112 147 155 148 143 139 157 159 160 147 150 149 150 136 117 120 121 124 117 116 138 160 172 172 168 177 158 140 124 97 91 108 128 151 158 172 154 133 81 57 41 69 58 18 17 9 7 7 9 9 6 9 7 2 0 0 0 0 0 0 0 0 0 0 0 0 0 0 0 0 0 0 0 0 0 0 0 0 0 0 0 0 0 0 0 0 0 
0 0 0 0 0 0 0 0 0 0 0 3 12 9 9 10 10 9 11 15 19 47 97 101 97 95 112 148 166 166 140 118 121 120 101 94 96 103 107 107 113 129 145 136 131 125 122 130 143 149 144 136 127 146 144 121 110 115 119 109 126 153 137 149 154 174 176 147 140 126 114 112 128 139 136 140 132 101 106 73 57 82 88 34 12 9 13 7 5 8 7 6 16 7 0 0 0 0 0 0 0 0 0 0 0 0 0 0 0 0 0 0 0 0 0 0 0 0 0 0 0 0 0 0 0 0 0 0 
0 0 0 0 0 0 0 0 0 0 0 0 7 9 6 6 7 5 9 14 19 26 64 82 87 92 101 135 157 160 158 139 121 131 120 111 109 105 116 128 134 158 170 158 154 147 140 142 151 159 161 138 144 173 174 153 146 149 160 155 164 168 167 157 149 179 172 146 153 152 138 132 134 127 105 94 96 83 109 84 97 98 61 19 8 2 2 6 5 5 7 11 10 5 0 0 0 0 0 0 0 0 0 0 0 0 0 0 0 0 0 0 0 0 0 0 0 0 0 0 0 0 0 0 0 0 0 0 
0 0 0 0 0 0 0 0 0 0 0 0 3 7 4 2 2 3 5 8 17 22 39 71 72 61 76 92 98 129 129 138 138 141 122 101 106 110 121 126 173 164 177 173 173 186 183 180 169 168 170 172 181 191 190 180 175 175 184 190 180 164 183 185 174 188 196 164 103 113 122 133 105 84 85 93 92 86 97 82 69 56 34 26 15 2 1 2 2 4 6 12 10 2 0 0 0 0 0 0 0 0 0 0 0 0 0 0 0 0 0 0 0 0 0 0 0 0 0 0 0 0 0 0 0 0 0 0 
0 0 0 0 0 0 0 0 0 0 0 0 0 4 2 1 1 0 2 4 8 23 32 44 62 75 63 44 56 72 80 116 143 137 125 131 136 147 159 173 167 179 183 173 168 179 172 174 147 149 152 162 178 180 171 159 138 128 132 138 160 173 203 187 155 192 211 165 126 98 85 67 57 51 69 87 91 84 69 49 44 38 26 20 22 1 1 2 1 3 3 11 7 2 0 0 0 0 0 0 0 0 0 0 0 0 0 0 0 0 0 0 0 0 0 0 0 0 0 0 0 0 0 0 0 0 0 0 
0 0 0 0 0 0 0 0 0 0 0 0 0 2 4 5 2 2 3 5 9 14 18 23 40 60 38 33 55 68 61 63 84 90 70 79 82 76 76 72 86 124 148 144 125 134 129 89 78 84 90 93 116 126 122 110 78 61 76 83 85 91 90 96 67 133 143 69 69 66 53 39 63 57 58 78 91 87 57 30 28 26 18 8 4 1 3 3 2 3 4 10 10 2 1 0 0 0 0 0 0 0 0 0 0 0 0 0 0 0 0 0 0 0 0 0 0 0 0 0 0 0 0 0 0 0 0 0 
0 0 0 0 0 0 0 0 0 0 0 0 0 0 4 4 2 2 1 1 6 10 13 16 22 23 22 27 52 63 58 53 57 72 49 48 64 61 62 58 69 70 75 70 76 93 73 65 57 58 49 70 96 102 92 79 54 45 64 77 83 97 93 91 77 86 82 107 108 96 61 61 88 69 56 72 88 83 52 28 28 25 16 6 2 1 2 1 1 3 5 9 4 2 2 0 0 0 0 0 0 0 0 0 0 0 0 0 0 0 0 0 0 0 0 0 0 0 0 0 0 0 0 0 0 0 0 0 
0 0 0 0 0 0 0 0 0 0 0 0 0 0 0 0 0 0 0 0 5 11 9 14 20 25 27 36 57 72 69 59 62 80 56 51 68 95 117 107 110 119 93 96 90 94 87 94 94 86 77 92 103 108 113 104 88 83 97 110 119 123 101 99 122 147 115 112 130 103 95 68 96 76 62 73 92 81 44 26 25 20 11 5 2 0 0 0 0 2 3 2 1 1 1 0 0 0 0 0 0 0 0 0 0 0 0 0 0 0 0 0 0 0 0 0 0 0 0 0 0 0 0 0 0 0 0 0 
0 0 0 0 0 0 0 0 0 0 0 0 0 0 0 0 0 0 0 0 0 3 3 7 12 23 32 42 62 90 102 94 112 133 113 100 99 133 124 136 138 159 154 144 139 153 175 142 142 138 144 145 139 141 139 131 123 103 100 123 148 172 147 139 141 149 125 153 95 104 108 96 79 61 49 53 61 64 31 17 13 8 5 7 1 0 0 0 0 0 0 0 0 0 1 0 0 0 0 0 0 0 0 0 0 0 0 0 0 0 0 0 0 0 0 0 0 0 0 0 0 0 0 0 0 0 0 0 
0 0 0 0 0 0 0 0 0 0 0 0 0 0 0 0 0 0 0 0 0 1 2 5 6 16 32 38 47 71 83 87 111 137 124 114 118 112 131 127 128 158 176 189 185 176 186 178 152 159 171 166 167 157 143 126 125 142 143 153 160 175 163 163 175 140 134 149 153 139 97 113 92 74 66 76 92 81 41 21 15 8 2 1 0 0 0 0 0 0 0 2 1 0 2 0 0 0 0 0 0 0 0 0 0 0 0 0 0 0 0 0 0 0 0 0 0 0 0 0 0 0 0 0 0 0 0 0 
0 0 0 0 0 0 0 0 0 0 0 0 0 0 0 0 0 0 0 0 0 1 3 4 8 17 26 40 49 68 84 70 76 103 82 51 79 100 112 110 115 119 113 110 119 135 131 167 162 176 173 167 172 159 156 138 129 136 140 145 155 160 131 146 141 119 130 143 142 154 109 69 50 68 75 80 85 50 27 15 9 6 4 1 1 1 2 2 5 7 6 8 6 6 6 0 0 0 0 0 0 0 0 0 0 0 0 0 0 0 0 0 0 0 0 0 0 0 0 0 0 0 0 0 0 0 0 0 
0 0 0 0 0 0 0 0 0 0 0 0 0 0 0 0 0 0 0 0 0 0 6 7 10 14 19 19 28 48 64 60 57 81 52 31 49 95 100 103 101 102 93 96 96 106 126 138 124 140 130 106 132 120 134 129 122 115 107 119 106 119 125 105 132 126 126 96 123 134 110 66 53 70 89 92 82 50 31 12 16 15 8 1 0 0 1 2 1 1 2 5 5 5 5 0 0 0 0 0 0 0 0 0 0 0 0 0 0 0 0 0 0 0 0 0 0 0 0 0 0 0 0 0 0 0 0 0 
0 0 0 0 0 0 0 0 0 0 0 0 0 0 0 0 0 0 0 0 0 0 2 6 9 14 18 18 22 40 55 71 69 89 53 32 46 63 83 92 84 91 93 95 97 103 127 130 113 107 108 91 105 99 102 96 108 117 110 117 99 83 83 87 86 105 128 148 133 111 90 54 36 49 93 102 88 48 29 17 17 12 6 1 0 0 1 2 2 1 3 5 5 5 5 0 0 0 0 0 0 0 0 0 0 0 0 0 0 0 0 0 0 0 0 0 0 0 0 0 0 0 0 0 0 0 0 0 
0 0 0 0 0 0 0 0 0 0 0 0 0 0 0 0 0 0 0 0 0 0 1 5 9 8 15 21 21 33 46 74 66 91 54 42 57 64 74 91 86 97 85 85 105 118 127 135 118 89 89 92 100 105 102 93 108 109 114 115 100 99 101 92 101 100 105 128 109 86 81 63 45 48 93 106 92 53 26 18 16 10 6 0 0 0 1 1 1 1 2 4 6 5 6 0 0 0 0 0 0 0 0 0 0 0 0 0 0 0 0 0 0 0 0 0 0 0 0 0 0 0 0 0 0 0 0 0 
0 0 0 0 0 0 0 0 0 0 0 0 0 0 0 0 0 0 0 0 0 0 0 4 7 9 13 19 21 29 39 72 69 89 62 53 55 45 49 64 90 88 80 88 101 128 119 117 110 110 94 98 95 90 90 95 97 98 103 108 119 143 121 98 101 84 93 105 123 100 63 60 63 56 97 104 87 55 22 18 15 10 4 0 0 0 1 2 2 1 2 4 6 5 6 0 0 0 0 0 0 0 0 0 0 0 0 0 0 0 0 0 0 0 0 0 0 0 0 0 0 0 0 0 0 0 0 0 
0 0 0 0 0 0 0 0 0 0 0 0 0 0 0 0 0 0 0 0 0 0 0 0 5 8 11 17 20 26 35 62 74 88 69 64 51 36 49 83 80 61 82 88 104 132 105 99 109 127 114 92 81 80 87 88 89 98 103 104 126 127 119 107 115 96 87 76 82 114 78 54 67 61 95 100 73 43 22 16 14 9 3 0 0 0 1 2 2 2 3 5 6 6 7 0 0 0 0 0 0 0 0 0 0 0 0 0 0 0 0 0 0 0 0 0 0 0 0 0 0 0 0 0 0 0 0 0 
0 0 0 0 0 0 0 0 0 0 0 0 0 0 0 0 0 0 0 0 0 0 0 0 2 5 9 13 16 24 41 57 70 77 78 73 50 40 69 82 55 58 91 94 107 123 88 82 103 127 118 93 79 84 80 78 84 97 108 105 122 99 101 100 120 106 88 82 59 76 93 52 62 69 88 103 73 37 19 16 14 9 1 0 0 0 1 1 2 1 2 5 6 7 8 0 0 0 0 0 0 0 0 0 0 0 0 0 0 0 0 0 0 0 0 0 0 0 0 0 0 0 0 0 0 0 0 0 
0 0 0 0 0 0 0 0 0 0 0 0 0 0 0 0 0 0 0 0 0 0 0 0 0 5 5 12 13 20 31 49 59 67 82 73 45 50 82 61 45 67 94 76 90 116 81 73 90 104 107 101 86 85 76 75 76 92 101 119 119 86 90 82 108 106 71 85 70 53 89 70 62 82 84 82 43 22 17 17 15 8 1 0 0 0 0 1 2 1 1 4 6 7 9 0 0 0 0 0 0 0 0 0 0 0 0 0 0 0 0 0 0 0 0 0 0 0 0 0 0 0 0 0 0 0 0 0 
0 0 0 0 0 0 0 0 0 0 0 0 0 0 0 0 0 0 0 0 0 0 0 0 0 5 4 7 15 18 20 35 42 47 75 68 44 66 96 54 44 63 76 67 91 112 78 68 83 92 106 111 102 82 73 77 84 95 119 123 107 80 82 84 105 110 73 72 72 45 82 95 65 86 91 46 15 16 17 18 16 8 1 0 0 0 0 1 2 1 2 3 6 7 9 0 0 0 0 0 0 0 0 0 0 0 0 0 0 0 0 0 0 0 0 0 0 0 0 0 0 0 0 0 0 0 0 0 
0 0 0 0 0 0 0 0 0 0 0 0 0 0 0 0 0 0 0 0 0 0 0 0 0 0 5 3 12 18 19 20 20 25 35 73 79 89 96 62 43 56 69 67 86 86 76 71 78 85 95 112 109 99 83 84 100 110 118 108 90 81 92 83 87 89 65 61 68 46 78 111 95 94 66 26 15 16 17 17 14 6 0 0 0 0 0 1 2 1 1 3 5 7 8 0 0 0 0 0 0 0 0 0 0 0 0 0 0 0 0 0 0 0 0 0 0 0 0 0 0 0 0 0 0 0 0 0 
0 0 0 0 0 0 0 0 0 0 0 0 0 0 0 0 0 0 0 0 0 0 0 0 0 0 2 4 7 14 19 18 19 25 16 38 78 76 80 69 54 60 64 73 84 80 73 75 87 88 90 105 117 113 102 97 105 119 115 104 98 92 91 87 90 80 79 71 74 61 77 95 86 77 34 21 13 16 17 16 12 5 0 0 0 0 0 1 1 1 1 3 6 7 8 0 0 0 0 0 0 0 0 0 0 0 0 0 0 0 0 0 0 0 0 0 0 0 0 0 0 0 0 0 0 0 0 0 
0 0 0 0 0 0 0 0 0 0 0 0 0 0 0 0 0 0 0 0 0 0 0 0 0 0 0 4 5 11 15 18 16 23 17 13 34 55 77 91 68 58 67 87 92 88 94 84 80 86 84 91 108 112 109 108 115 120 122 109 106 111 97 98 103 85 88 85 78 79 94 94 61 34 23 16 12 15 15 13 9 5 1 0 0 0 0 1 1 1 1 3 5 7 9 0 0 0 0 0 0 0 0 0 0 0 0 0 0 0 0 0 0 0 0 0 0 0 0 0 0 0 0 0 0 0 0 0 
0 0 0 0 0 0 0 0 0 0 0 0 0 0 0 0 0 0 0 0 0 0 0 0 0 0 0 3 4 8 11 17 16 22 15 13 14 32 56 92 74 64 88 99 86 98 110 94 75 81 98 95 111 113 106 103 114 117 124 116 97 90 96 102 112 94 90 102 89 81 99 74 36 28 22 16 11 13 13 14 10 5 0 0 0 0 0 1 1 2 1 3 5 6 9 0 0 0 0 0 0 0 0 0 0 0 0 0 0 0 0 0 0 0 0 0 0 0 0 0 0 0 0 0 0 0 0 0 
0 0 0 0 0 0 0 0 0 0 0 0 0 0 0 0 0 0 0 0 0 0 0 0 0 0 0 2 4 8 7 16 15 23 14 14 15 22 27 49 79 78 96 98 86 106 121 96 74 95 109 107 113 106 99 97 107 112 119 122 123 100 91 99 120 104 91 104 93 82 67 35 28 26 22 16 14 13 13 14 9 4 0 0 0 0 0 1 2 2 1 3 5 7 9 0 0 0 0 0 0 0 0 0 0 0 0 0 0 0 0 0 0 0 0 0 0 0 0 0 0 0 0 0 0 0 0 0 
0 0 0 0 0 0 0 0 0 0 0 0 0 0 0 0 0 0 0 0 0 0 0 0 0 0 0 0 2 7 7 13 13 21 15 12 13 19 27 28 45 70 81 88 86 105 123 105 87 112 124 120 114 96 82 84 87 99 112 120 131 117 94 102 124 113 89 89 76 59 30 28 24 24 20 13 15 13 14 14 10 3 0 0 0 0 0 1 2 2 1 3 5 6 9 0 0 0 0 0 0 0 0 0 0 0 0 0 0 0 0 0 0 0 0 0 0 0 0 0 0 0 0 0 0 0 0 0 
0 0 0 0 0 0 0 0 0 0 0 0 0 0 0 0 0 0 0 0 0 0 0 0 0 0 0 0 0 7 6 11 12 19 14 13 13 19 28 29 31 34 37 52 79 100 122 109 96 107 117 116 101 80 74 79 80 90 99 101 114 119 110 107 123 106 81 51 37 38 30 27 23 23 15 13 14 15 15 14 10 3 0 0 0 0 0 1 1 1 1 3 6 7 8 0 0 0 0 0 0 0 0 0 0 0 0 0 0 0 0 0 0 0 0 0 0 0 0 0 0 0 0 0 0 0 0 0 
0 0 0 0 0 0 0 0 0 0 0 0 0 0 0 0 0 0 0 0 0 0 0 0 0 0 0 0 0 3 6 10 12 19 15 14 12 16 29 27 32 33 31 38 56 75 83 100 104 94 100 98 90 82 82 86 90 95 104 95 105 105 102 110 99 78 57 45 41 38 28 25 24 24 16 14 14 14 15 14 9 2 0 0 0 0 0 1 1 1 1 1 4 7 9 0 0 0 0 0 0 0 0 0 0 0 0 0 0 0 0 0 0 0 0 0 0 0 0 0 0 0 0 0 0 0 0 0 
