P2
128 99
229
0 0 0 0 0 0 0 0 0 0 0 0 0 0 0 0 0 0 0 0 0 0 0 0 0 0 0 0 0 0 0 0 0 0 0 0 0 0 0 0 0 0 0 0 0 0 0 0 0 0 0 0 0 0 0 0 0 0 0 0 0 0 0 0 0 0 0 0 0 0 0 0 0 0 0 0 0 1 0 0 0 0 0 0 0 0 0 0 0 0 0 0 0 0 0 0 0 0 0 0 0 0 0 0 0 0 0 0 0 0 0 0 0 0 0 0 0 0 0 0 0 0 0 0 0 0 0 0 
0 0 0 0 0 0 0 0 0 0 0 0 0 0 0 0 0 0 0 0 0 0 0 0 0 0 0 0 0 0 0 0 0 0 0 0 0 0 0 0 0 0 0 0 0 0 0 0 0 0 0 0 0 0 0 0 0 0 0 0 0 0 0 0 0 1 0 0 0 0 0 0 0 0 0 0 0 1 1 0 0 0 0 0 0 0 0 0 0 0 0 0 0 0 0 0 0 0 0 0 0 0 0 0 0 0 0 0 0 0 0 0 0 0 0 0 0 0 0 0 0 0 0 0 0 0 0 0 
0 0 0 0 0 0 0 0 0 0 0 0 0 0 0 0 0 0 0 0 0 0 0 0 0 0 0 0 0 0 0 0 0 0 0 0 0 0 0 0 0 0 0 0 0 0 0 0 0 0 0 0 0 2 0 0 0 0 0 0 0 0 0 0 0 0 0 0 0 0 0 0 0 0 0 0 0 0 1 1 0 0 0 0 0 0 0 0 0 0 0 0 0 0 0 0 0 0 0 0 0 0 0 0 0 0 0 0 0 0 0 0 0 0 0 0 0 0 0 0 0 0 0 0 0 0 0 0 
0 0 0 0 0 0 0 0 0 0 0 0 0 0 0 0 0 0 0 0 0 0 0 0 0 0 0 0 0 0 0 0 0 0 0 0 0 0 0 0 0 0 0 0 4 17 15 17 20 21 23 23 23 23 23 23 22 18 15 9 3 0 0 0 0 0 0 0 0 0 0 0 0 0 0 0 0 1 1 0 0 0 0 0 0 0 0 0 0 0 0 0 0 0 0 0 0 0 0 0 0 0 0 0 0 0 0 0 0 0 0 0 0 0 0 0 0 0 0 0 0 0 0 0 0 0 0 0 
0 0 0 0 0 0 0 0 0 0 0 0 0 0 0 0 0 0 0 0 0 0 0 0 0 0 0 0 0 0 0 0 0 0 0 0 0 0 0 0 4 9 18 25 27 35 51 70 90 110 127 137 141 143 143 139 128 109 81 52 35 23 14 8 2 0 0 0 0 0 0 0 0 0 0 0 0 0 0 0 0 0 0 0 0 0 0 0 0 0 0 0 0 0 0 0 0 0 0 0 0 0 0 0 0 0 0 0 0 0 0 0 0 0 0 0 0 0 0 0 0 0 0 0 0 0 0 0 
0 0 0 0 0 0 0 0 0 0 0 0 0 0 0 0 0 0 0 0 0 0 0 0 0 0 0 0 0 0 0 0 0 0 0 0 0 0 6 12 22 31 34 59 94 133 160 169 168 161 152 147 145 141 141 139 139 139 142 153 149 122 77 39 25 15 7 1 0 0 0 0 0 0 0 0 0 0 0 0 0 0 0 0 0 0 0 0 0 0 0 0 0 0 0 0 0 0 0 0 0 0 0 0 0 0 0 0 0 0 0 0 0 0 0 0 0 0 0 0 0 0 0 0 0 0 0 0 
0 0 0 0 0 0 0 0 0 0 0 0 0 0 0 0 0 0 0 0 0 0 0 0 0 0 0 0 0 0 0 0 0 0 0 0 4 20 25 29 44 82 131 166 183 171 152 148 156 168 175 176 176 177 177 178 179 174 165 155 143 137 145 152 127 72 31 18 9 1 0 0 0 0 0 0 0 0 0 0 0 0 0 0 0 0 0 0 0 0 0 0 0 0 0 0 0 0 0 0 0 0 0 0 0 0 0 0 0 0 0 0 0 0 0 0 0 0 0 0 0 0 0 0 0 0 0 0 
0 0 0 0 0 0 0 0 0 0 0 0 0 0 0 0 0 0 0 0 0 0 0 0 0 0 0 0 0 0 0 0 0 0 5 23 27 28 53 99 149 177 177 155 146 157 167 165 158 154 151 152 149 137 131 137 151 165 171 178 180 174 158 141 136 150 150 96 42 20 11 0 0 0 0 0 0 0 0 0 0 0 0 0 0 0 0 0 0 0 0 0 0 0 0 0 0 0 0 0 0 0 0 0 0 0 0 0 0 0 0 0 0 0 0 0 0 0 0 0 0 0 0 0 0 0 0 0 
0 0 0 0 0 0 0 0 0 0 0 0 0 0 0 0 0 0 0 0 0 0 0 0 0 0 0 0 0 0 0 0 7 25 21 25 51 103 153 178 163 145 155 169 176 173 161 158 150 143 148 154 154 149 153 148 146 153 164 172 168 169 174 175 166 150 135 146 154 99 39 23 6 0 0 0 0 0 0 0 0 0 0 0 0 0 0 0 0 0 0 0 0 0 0 0 0 0 0 0 0 0 0 0 0 0 0 0 0 0 0 0 0 0 0 0 0 0 0 0 0 0 0 0 0 0 0 0 
0 0 0 0 0 0 0 0 0 0 0 0 0 0 0 0 0 0 0 0 0 0 0 0 0 0 0 0 0 0 0 24 18 21 38 95 150 177 160 136 151 175 182 172 164 158 150 143 146 145 123 124 124 121 131 136 140 146 155 166 174 174 173 170 168 172 169 156 141 152 150 75 26 16 2 0 0 0 0 0 0 0 0 0 0 0 0 0 0 0 0 0 0 0 0 0 0 0 0 0 0 0 0 0 0 0 0 0 0 0 0 0 0 0 0 0 0 0 0 0 0 0 0 0 0 0 0 0 
0 0 0 0 0 0 0 0 0 0 0 0 0 0 0 0 0 0 0 0 0 0 0 0 0 0 0 0 0 12 23 17 26 79 139 172 166 135 148 177 185 174 154 151 151 144 146 160 179 181 178 174 173 180 187 197 203 199 190 178 166 168 178 181 178 165 166 173 170 156 143 159 117 42 21 3 0 0 0 0 0 0 0 0 0 0 0 0 0 0 0 0 0 0 0 0 0 0 0 0 0 0 0 0 0 0 0 0 0 0 0 0 0 0 0 0 0 0 0 0 0 0 0 0 0 0 0 0 
0 0 0 0 0 0 0 0 0 0 0 0 0 0 0 0 0 0 0 0 0 0 0 0 0 0 0 0 22 17 18 54 115 158 170 140 147 176 189 178 150 145 154 156 156 162 181 183 181 176 174 169 168 170 170 166 164 166 175 189 205 203 195 188 184 184 179 172 167 171 172 154 148 147 64 24 8 0 0 0 0 0 0 0 0 0 0 0 0 0 0 0 0 0 0 0 0 0 0 0 0 0 0 0 0 0 0 0 0 0 0 0 0 0 0 0 0 0 0 0 0 0 0 0 0 0 0 0 
0 0 0 0 0 0 0 0 0 0 0 0 0 0 0 0 0 0 0 0 0 0 0 0 0 0 5 23 15 29 74 133 166 158 143 174 188 180 159 144 157 174 175 168 161 156 151 144 138 143 148 156 150 133 127 125 131 140 148 150 156 182 194 200 209 202 187 185 183 171 169 173 162 144 150 80 24 11 0 0 0 0 0 0 0 0 0 0 0 0 0 0 0 0 0 0 0 0 0 0 0 0 0 0 0 0 0 0 0 0 0 0 0 0 0 0 0 0 0 0 0 0 0 0 0 0 0 0 
0 0 0 0 0 0 0 0 0 0 0 0 0 0 0 0 0 0 0 0 0 0 0 0 0 9 22 15 33 88 143 168 150 163 186 184 169 147 153 188 199 170 147 142 142 143 138 129 116 112 93 83 87 102 111 113 115 117 122 126 128 144 182 189 187 195 210 205 189 186 182 170 172 165 146 152 87 27 14 1 0 0 0 0 0 0 0 0 0 0 0 0 0 0 0 0 0 0 0 0 0 0 0 0 0 0 0 0 0 0 0 0 0 0 0 0 0 0 0 0 0 0 0 0 0 0 0 0 
0 0 0 0 0 0 0 0 0 0 0 0 0 0 0 0 0 0 0 0 0 0 0 0 13 20 15 38 102 145 160 153 177 187 175 155 143 175 203 183 155 152 154 146 136 134 130 120 118 111 96 94 95 104 109 105 106 120 128 122 117 110 117 148 176 186 185 196 206 190 178 182 176 170 163 148 157 97 28 13 0 0 0 0 0 0 0 0 0 0 0 0 0 0 0 0 0 0 0 0 0 0 0 0 0 0 0 0 0 0 0 0 0 0 0 0 0 0 0 0 0 0 0 0 0 0 0 0 
0 0 0 0 0 0 0 0 0 0 0 0 0 0 0 0 0 0 0 0 0 0 3 18 17 14 50 116 140 153 159 184 180 161 143 151 196 197 158 152 146 138 126 119 120 122 123 114 96 94 89 86 83 81 84 82 81 86 103 122 124 127 126 125 136 154 166 179 183 196 192 175 180 179 172 166 150 162 107 31 13 0 0 0 0 0 0 0 0 0 0 0 0 0 0 0 0 0 0 0 0 0 0 0 0 0 0 0 0 0 0 0 0 0 0 0 0 0 0 0 0 0 0 0 0 0 0 0 
0 0 0 0 0 0 0 0 0 0 0 0 0 0 0 0 0 0 0 0 0 6 16 12 14 63 126 138 153 163 186 178 150 139 153 193 183 160 149 133 122 114 113 115 117 106 96 86 88 88 85 82 80 76 80 81 80 81 81 87 92 101 115 119 123 136 148 156 170 178 187 193 174 177 180 173 169 155 168 108 32 10 0 0 0 0 0 0 0 0 0 0 0 0 0 0 0 0 0 0 0 0 0 0 0 0 0 0 0 0 0 0 0 0 0 0 0 0 0 0 0 0 0 0 0 0 0 0 
0 0 0 0 0 0 0 0 0 0 0 0 0 0 0 0 0 0 0 0 8 14 11 16 71 127 141 167 165 186 176 143 127 153 195 185 165 136 116 116 115 107 111 104 95 87 88 93 98 103 103 103 105 110 113 112 111 109 103 100 91 86 86 98 109 113 124 141 143 157 160 170 184 169 173 182 178 163 150 172 109 29 5 0 0 0 0 0 0 0 0 0 0 0 0 0 0 0 0 0 0 0 0 0 0 0 0 0 0 0 0 0 0 0 0 0 0 0 0 0 0 0 0 0 0 0 0 0 
0 0 0 0 0 0 0 0 0 0 0 0 0 0 0 0 0 0 0 8 14 9 18 77 127 137 173 165 179 167 132 127 152 196 189 160 122 109 110 108 110 100 92 98 109 116 119 120 119 120 120 120 119 121 120 121 121 119 118 120 119 117 110 97 88 92 108 120 133 141 153 168 179 175 154 171 179 177 153 151 169 100 25 3 0 0 0 0 0 0 0 0 0 0 0 0 0 0 0 0 0 0 0 0 0 0 0 0 0 0 0 0 0 0 0 0 0 0 0 0 0 0 0 0 0 0 0 0 
0 0 0 0 0 0 0 0 0 0 0 0 0 0 0 0 0 0 7 14 10 20 79 125 136 180 168 175 161 128 120 149 200 190 148 108 102 106 106 102 100 106 117 122 121 112 108 107 98 91 90 102 102 96 94 97 102 109 111 112 114 116 119 117 109 90 83 107 112 127 140 160 172 178 167 133 157 178 175 144 160 155 90 22 3 0 0 0 0 0 0 0 0 0 0 0 0 0 0 0 0 0 0 0 0 0 0 0 0 0 0 0 0 0 0 0 0 0 0 0 0 0 0 0 0 0 0 0 
0 0 0 0 0 0 0 0 0 0 0 0 0 0 0 0 0 3 15 9 21 80 123 133 177 177 170 156 127 119 149 201 191 145 104 98 102 96 87 98 112 118 112 100 91 87 85 86 83 81 80 82 82 80 77 78 81 90 99 104 111 114 114 115 120 117 97 91 103 104 116 134 170 182 184 152 122 157 183 173 145 173 136 81 15 0 0 0 0 0 0 0 0 0 0 0 0 0 0 0 0 0 0 0 0 0 0 0 0 0 0 0 0 0 0 0 0 0 0 0 0 0 0 0 0 0 0 0 
0 0 0 0 0 0 0 0 0 0 0 0 0 0 0 0 0 15 10 22 84 117 130 170 183 161 162 126 111 148 205 191 149 109 95 95 84 80 98 117 114 101 90 87 86 88 89 83 86 86 82 84 82 85 83 83 83 81 82 86 94 106 112 116 118 121 118 94 88 97 98 108 129 168 175 188 141 116 158 184 159 157 160 121 62 7 0 0 0 0 0 0 0 0 0 0 0 0 0 0 0 0 0 0 0 0 0 0 0 0 0 0 0 0 0 0 0 0 0 0 0 0 0 0 0 0 0 0 
0 0 0 0 0 0 0 0 0 0 0 0 0 0 0 0 7 11 14 78 120 125 152 184 156 158 123 106 145 203 189 144 113 95 94 77 77 98 120 119 103 95 93 90 92 92 92 91 91 92 89 92 92 93 93 87 85 85 82 86 88 89 94 104 115 118 123 111 84 81 96 100 106 131 166 185 188 128 117 165 180 152 170 143 99 30 2 0 0 0 0 0 0 0 0 0 0 0 0 0 0 0 0 0 0 0 0 0 0 0 0 0 0 0 0 0 0 0 0 0 0 0 0 0 0 0 0 0 
0 0 0 0 0 0 0 0 0 0 0 0 0 0 0 0 14 9 59 122 112 145 175 162 149 126 102 140 199 188 136 116 95 95 81 76 93 115 115 100 85 74 73 79 85 88 87 87 92 96 101 94 90 97 93 91 89 86 83 81 84 82 81 84 98 116 121 119 101 79 72 79 96 110 139 169 201 176 121 127 172 164 157 156 123 75 8 0 0 0 0 0 0 0 0 0 0 0 0 0 0 0 0 0 0 0 0 0 0 0 0 0 0 0 0 0 0 0 0 0 0 0 0 0 0 0 0 0 
0 0 0 0 0 0 0 0 0 0 0 0 0 0 0 8 7 22 114 106 131 161 173 146 137 106 123 179 194 145 120 96 92 78 79 90 109 111 98 90 77 66 71 76 74 69 72 80 87 91 98 83 76 95 82 76 72 70 74 78 80 77 82 84 88 98 112 121 116 92 77 75 78 98 121 147 184 197 142 115 148 171 154 164 138 109 28 2 0 0 0 0 0 0 0 0 0 0 0 0 0 0 0 0 0 0 0 0 0 0 0 0 0 0 0 0 0 0 0 0 0 0 0 0 0 0 0 0 
0 0 0 0 0 0 0 0 0 0 0 0 0 0 0 11 8 75 120 115 157 168 159 139 118 114 155 197 159 128 103 94 79 78 88 103 105 93 89 86 79 74 71 63 60 63 70 73 69 70 97 80 66 77 63 61 61 60 58 59 62 64 64 72 81 92 100 115 121 109 85 77 73 84 104 130 157 194 167 122 121 153 155 167 142 124 70 7 0 0 0 0 0 0 0 0 0 0 0 0 0 0 0 0 0 0 0 0 0 0 0 0 0 0 0 0 0 0 0 0 0 0 0 0 0 0 0 0 
0 0 0 0 0 0 0 0 0 0 0 0 0 0 7 9 27 127 97 137 158 174 143 128 120 139 175 173 137 108 95 85 79 83 93 98 91 87 89 82 75 66 58 57 59 63 65 63 58 60 86 82 68 71 71 71 67 62 63 62 60 57 58 61 68 83 90 104 117 121 101 83 72 74 99 113 140 170 173 127 119 143 156 171 152 132 106 16 0 0 0 0 0 0 0 0 0 0 0 0 0 0 0 0 0 0 0 0 0 0 0 0 0 0 0 0 0 0 0 0 0 0 0 0 0 0 0 0 
0 0 0 0 0 0 0 0 0 0 0 0 0 0 10 11 81 121 110 156 161 166 131 131 138 149 161 147 116 94 78 77 82 89 97 92 86 89 90 75 63 59 61 67 71 77 77 71 66 68 77 81 85 96 106 104 91 79 75 72 67 62 59 58 62 80 88 92 105 123 120 96 76 75 87 99 123 147 160 134 129 145 149 172 155 132 122 36 3 0 0 0 0 0 0 0 0 0 0 0 0 0 0 0 0 0 0 0 0 0 0 0 0 0 0 0 0 0 0 0 0 0 0 0 0 0 0 0 
0 0 0 0 0 0 0 0 0 0 0 0 0 2 10 28 127 101 134 160 165 149 130 137 144 134 147 134 107 82 74 80 86 93 93 79 84 89 85 70 63 69 77 87 96 100 92 80 80 91 100 107 112 128 133 130 118 104 96 91 84 78 67 65 62 68 84 89 94 113 126 115 89 80 78 97 110 140 147 121 133 144 144 167 161 132 121 65 5 0 0 0 0 0 0 0 0 0 0 0 0 0 0 0 0 0 0 0 0 0 0 0 0 0 0 0 0 0 0 0 0 0 0 0 0 0 0 0 
0 0 0 0 0 0 0 0 0 0 0 0 0 5 11 62 128 101 151 156 153 130 137 146 136 113 141 130 98 77 82 87 97 98 79 83 95 95 83 71 75 87 101 114 124 125 115 103 103 115 126 130 135 138 140 136 135 126 121 118 110 99 85 79 74 67 75 84 89 98 118 127 109 86 76 95 104 135 145 102 125 145 149 158 168 133 119 84 6 0 0 0 0 0 0 0 0 0 0 0 0 0 0 0 0 0 0 0 0 0 0 0 0 0 0 0 0 0 0 0 0 0 0 0 0 0 0 0 
0 0 0 0 0 0 0 0 0 0 0 0 0 6 16 94 110 114 158 144 144 128 140 138 110 109 139 129 92 79 84 102 106 93 80 92 98 94 89 92 102 112 123 130 133 135 131 129 124 129 134 135 136 137 137 138 135 133 133 130 126 120 113 97 86 74 71 85 87 83 100 123 126 103 80 88 102 135 150 100 119 145 146 149 175 128 118 98 11 0 0 0 0 0 0 0 0 0 0 0 0 0 0 0 0 0 0 0 0 0 0 0 0 0 0 0 0 0 0 0 0 0 0 0 0 0 0 0 
0 0 0 0 0 0 0 0 0 0 0 0 0 9 28 121 95 133 154 125 137 132 148 128 92 116 133 126 87 79 97 109 97 84 83 101 99 98 106 109 117 126 131 136 137 134 136 135 138 140 138 134 137 142 143 145 142 143 140 137 135 133 132 124 108 92 83 90 82 74 80 107 127 122 94 85 101 133 153 98 108 147 150 145 181 137 123 110 17 0 0 0 0 0 0 0 0 0 0 0 0 0 0 0 0 0 0 0 0 0 0 0 0 0 0 0 0 0 0 0 0 0 0 0 0 0 0 0 
0 0 0 0 0 0 0 0 0 0 0 0 0 9 42 125 96 148 140 120 136 138 148 116 85 123 133 120 86 83 103 100 87 85 97 116 112 113 118 121 127 132 136 135 134 135 141 149 160 168 170 168 170 174 176 177 177 173 162 150 140 136 136 134 126 121 119 99 78 69 66 83 111 126 115 91 99 119 150 98 95 146 148 140 183 147 126 115 31 1 0 0 0 0 0 0 0 0 0 0 0 0 0 0 0 0 0 0 0 0 0 0 0 0 0 0 0 0 0 0 0 0 0 0 0 0 0 0 
0 0 0 0 0 0 0 0 0 0 0 0 1 9 53 123 102 156 130 119 137 135 140 108 84 127 135 115 83 75 97 90 80 92 109 125 127 123 126 127 129 133 137 136 133 138 147 163 174 185 196 193 188 180 182 178 176 185 181 168 155 146 145 146 151 145 119 98 83 70 67 69 93 118 124 106 92 115 146 102 91 151 152 138 177 159 127 120 44 3 0 0 0 0 0 0 0 0 0 0 0 0 0 0 0 0 0 0 0 0 0 0 0 0 0 0 0 0 0 0 0 0 0 0 0 0 0 0 
0 0 0 0 0 0 0 0 0 0 0 0 4 9 64 118 113 159 122 128 141 127 132 106 84 124 134 110 78 65 92 84 83 99 116 132 139 133 133 131 129 131 135 136 133 138 151 171 180 183 187 183 179 146 144 154 146 162 181 181 170 157 155 152 143 132 119 103 98 78 69 67 76 103 122 120 88 119 147 99 87 150 155 137 170 173 127 123 53 3 0 0 0 0 0 0 0 0 0 0 0 0 0 0 0 0 0 0 0 0 0 0 0 0 0 0 0 0 0 0 0 0 0 0 0 0 0 0 
0 0 0 0 0 0 0 0 0 0 0 0 5 7 76 113 127 160 117 145 145 122 131 106 84 121 132 107 69 61 90 80 90 109 121 135 146 148 146 143 140 137 139 140 145 152 159 175 178 177 173 172 168 127 127 128 127 137 176 184 177 164 144 132 136 134 124 116 95 71 62 67 74 88 111 125 110 126 131 93 85 140 156 137 173 184 134 132 59 3 0 0 0 0 0 0 0 0 0 0 0 0 0 0 0 0 0 0 0 0 0 0 0 0 0 0 0 0 0 0 0 0 0 0 0 0 0 0 
0 0 0 0 0 0 0 0 0 0 0 0 5 5 88 106 144 157 118 158 140 111 130 104 90 112 133 106 64 58 86 81 96 115 128 136 139 135 136 139 143 146 146 141 141 157 164 171 179 173 165 162 160 120 120 126 123 129 174 183 173 153 133 130 133 133 127 110 92 69 54 49 60 94 107 116 135 140 117 96 101 138 151 129 171 188 135 140 69 5 0 0 0 0 0 0 0 0 0 0 0 0 0 0 0 0 0 0 0 0 0 0 0 0 0 0 0 0 0 0 0 0 0 0 0 0 0 0 
0 0 0 0 0 0 0 0 0 0 0 0 6 7 96 107 151 153 116 165 155 115 131 109 92 103 128 87 56 58 86 82 99 117 122 128 131 127 121 126 127 127 128 134 140 147 154 164 176 169 156 143 156 119 117 125 126 132 171 174 157 144 130 123 123 122 126 114 100 77 55 49 47 70 113 115 153 153 107 106 104 135 143 122 169 192 139 137 79 7 0 0 0 0 0 0 0 0 0 0 0 0 0 0 0 0 0 0 0 0 0 0 0 0 0 0 0 0 0 0 0 0 0 0 0 0 0 0 
0 0 0 0 0 0 0 0 0 0 0 0 6 9 100 107 154 142 117 172 158 113 123 113 97 92 123 81 53 63 85 89 111 112 123 128 126 124 122 124 126 125 122 120 125 134 137 146 167 179 167 143 155 146 133 142 137 152 171 152 140 126 122 111 106 124 131 120 108 87 60 49 48 64 113 141 155 156 125 119 118 128 132 117 161 189 140 141 92 11 0 0 0 0 0 0 0 0 0 0 0 0 0 0 0 0 0 0 0 0 0 0 0 0 0 0 0 0 0 0 0 0 0 0 0 0 0 0 
0 0 0 0 0 0 0 0 0 0 0 0 7 11 101 109 156 142 118 169 154 112 122 116 103 97 120 107 57 70 88 104 100 108 125 130 122 120 123 126 127 125 122 120 120 126 129 125 146 174 169 160 156 159 172 178 180 181 146 124 126 118 119 102 119 130 129 123 112 97 87 81 83 98 118 139 156 139 141 128 120 124 123 122 155 187 144 138 100 15 0 0 0 0 0 0 0 0 0 0 0 0 0 0 0 0 0 0 0 0 0 0 0 0 0 0 0 0 0 0 0 0 0 0 0 0 0 0 
0 0 0 0 0 0 0 0 0 0 0 0 7 13 98 111 158 156 125 164 152 114 115 109 107 98 108 119 98 85 96 103 99 109 126 129 118 114 125 125 124 122 120 120 118 120 126 118 127 160 176 173 168 150 181 185 185 172 131 125 120 115 97 114 133 147 151 151 143 127 104 82 79 97 113 116 140 123 138 139 120 121 116 122 153 179 148 140 106 18 0 0 0 0 0 0 0 0 0 0 0 0 0 0 0 0 0 0 0 0 0 0 0 0 0 0 0 0 0 0 0 0 0 0 0 0 0 0 
0 0 0 0 0 0 0 0 0 0 0 0 8 13 92 116 156 145 102 155 150 115 109 106 111 107 97 93 100 125 123 105 111 125 139 139 130 125 126 135 137 127 122 117 117 119 120 124 123 150 175 178 169 139 173 181 172 160 128 128 117 109 120 147 155 161 157 150 134 114 93 80 82 84 99 101 116 124 137 145 120 125 110 109 145 161 145 140 110 26 2 0 0 0 0 0 0 0 0 0 0 0 0 0 0 0 0 0 0 0 0 0 0 0 0 0 0 0 0 0 0 0 0 0 0 0 0 0 
0 0 0 0 0 0 0 0 0 0 0 0 8 14 89 120 154 139 94 153 154 118 100 105 113 102 85 82 94 116 129 110 111 132 154 154 154 151 152 152 153 154 137 119 116 118 120 125 121 141 155 162 152 131 145 160 156 157 127 126 115 128 141 136 137 143 154 149 125 107 94 83 85 84 94 96 101 118 129 141 111 123 109 96 129 147 140 141 112 33 2 0 0 0 0 0 0 0 0 0 0 0 0 0 0 0 0 0 0 0 0 0 0 0 0 0 0 0 0 0 0 0 0 0 0 0 0 0 
0 0 0 0 0 0 0 0 0 0 0 1 8 15 91 125 153 135 98 152 153 112 91 100 113 110 88 85 100 109 116 104 112 131 153 148 143 140 148 139 133 130 136 145 129 117 122 122 115 138 152 133 109 132 126 139 161 156 124 125 137 137 123 120 126 136 143 145 123 97 84 85 80 71 86 88 101 123 129 133 102 124 114 92 114 142 151 141 113 39 2 0 0 0 0 0 0 0 0 0 0 0 0 0 0 0 0 0 0 0 0 0 0 0 0 0 0 0 0 0 0 0 0 0 0 0 0 0 
0 0 0 0 0 0 0 0 0 0 0 0 9 16 92 129 151 132 108 154 139 95 87 100 104 107 91 105 110 108 111 99 114 137 151 151 147 146 149 128 117 119 122 130 142 137 112 101 112 143 173 140 97 107 122 127 162 168 141 144 131 120 115 117 124 135 142 136 122 93 85 77 76 76 85 88 103 123 132 126 97 124 112 93 103 124 156 142 114 47 2 0 0 0 0 0 0 0 0 0 0 0 0 0 0 0 0 0 0 0 0 0 0 0 0 0 0 0 0 0 0 0 0 0 0 0 0 0 
0 0 0 0 0 0 0 0 0 0 0 0 10 20 93 130 150 129 118 152 122 87 89 96 95 89 94 107 103 118 112 94 112 138 154 144 145 142 142 118 118 118 114 119 118 111 117 129 135 168 188 166 162 121 124 141 155 184 148 134 118 119 122 119 124 137 140 128 113 90 83 78 69 73 81 89 109 122 131 126 100 127 116 94 96 113 146 133 113 56 4 0 0 0 0 0 0 0 0 0 0 0 0 0 0 0 0 0 0 0 0 0 0 0 0 0 0 0 0 0 0 0 0 0 0 0 0 0 
0 0 0 0 0 0 0 0 0 0 0 0 9 22 92 131 140 122 129 146 106 82 94 106 89 84 99 109 89 115 122 97 106 139 153 144 141 148 149 126 119 117 120 113 87 84 119 130 120 152 174 159 141 107 91 86 111 151 125 129 120 119 126 126 130 140 144 131 105 85 78 73 70 70 80 89 116 131 152 137 108 133 116 95 94 113 137 134 109 60 3 0 0 0 0 0 0 0 0 0 0 0 0 0 0 0 0 0 0 0 0 0 0 0 0 0 0 0 0 0 0 0 0 0 0 0 0 0 
0 0 0 0 0 0 0 0 0 0 0 0 9 21 86 128 129 121 134 121 105 81 97 110 88 81 96 112 84 104 121 112 108 138 156 148 142 151 152 131 120 118 115 96 78 77 96 100 119 149 151 142 123 112 96 88 113 138 118 128 132 126 122 125 131 143 141 127 98 78 72 68 71 70 81 92 127 141 155 131 113 135 122 99 87 110 134 139 107 63 3 0 0 0 0 0 0 0 0 0 0 0 0 0 0 0 0 0 0 0 0 0 0 0 0 0 0 0 0 0 0 0 0 0 0 0 0 0 
0 0 0 0 0 0 0 0 0 0 0 0 7 18 82 125 124 119 139 121 110 82 97 112 88 81 95 110 81 89 116 117 107 134 151 146 149 154 151 140 126 120 103 84 72 77 85 89 117 147 138 128 125 125 114 99 114 140 128 123 129 124 122 130 136 147 144 124 92 70 66 63 68 67 81 97 127 133 145 129 114 131 119 100 81 111 128 134 105 65 3 0 0 0 0 0 0 0 0 0 0 0 0 0 0 0 0 0 0 0 0 0 0 0 0 0 0 0 0 0 0 0 0 0 0 0 0 0 
0 0 0 0 0 0 0 0 0 0 0 0 6 18 83 119 126 117 142 119 109 83 92 111 88 80 94 111 80 80 104 114 108 127 142 148 155 156 150 144 128 112 96 79 76 76 79 85 109 141 123 119 117 126 125 114 107 139 131 115 119 122 125 134 146 150 148 126 84 65 62 65 61 66 82 95 118 118 132 128 119 129 118 101 76 117 122 131 107 65 2 0 0 0 0 0 0 0 0 0 0 0 0 0 0 0 0 0 0 0 0 0 0 0 0 0 0 0 0 0 0 0 0 0 0 0 0 0 
0 0 0 0 0 0 0 0 0 0 0 0 1 19 84 115 126 114 143 123 110 87 86 111 92 77 93 114 87 82 91 105 101 126 140 145 153 149 145 142 126 107 93 81 74 74 77 84 107 139 109 108 112 126 135 129 116 116 142 115 126 126 126 133 139 143 152 125 77 62 64 73 53 62 83 94 115 114 120 120 122 128 113 93 74 125 120 123 106 65 3 0 0 0 0 0 0 0 0 0 0 0 0 0 0 0 0 0 0 0 0 0 0 0 0 0 0 0 0 0 0 0 0 0 0 0 0 0 
0 0 0 0 0 0 0 0 0 5 6 0 0 17 81 106 125 107 140 129 110 95 74 109 100 77 89 118 100 88 92 89 99 126 139 145 145 136 142 138 127 106 95 85 81 97 95 96 121 129 107 101 112 126 130 126 123 117 132 125 133 155 148 139 138 148 151 117 76 60 59 63 48 65 82 100 119 126 121 118 124 122 113 85 78 122 125 120 103 63 2 0 0 0 0 0 0 0 0 0 0 0 0 0 0 0 0 0 0 0 0 0 0 0 0 0 0 0 0 0 0 0 0 0 0 0 0 0 
0 0 0 0 0 0 0 0 0 4 11 4 2 11 77 100 132 109 123 133 108 98 63 98 108 85 94 124 103 68 68 87 97 123 144 138 128 126 125 127 130 121 113 112 114 97 102 106 129 109 95 97 118 138 132 123 115 117 136 151 131 162 186 176 156 155 137 106 73 68 65 60 47 64 86 111 122 130 118 126 147 118 107 74 100 112 135 123 105 60 2 0 0 0 0 0 0 0 0 0 0 0 0 0 0 0 0 0 0 0 0 0 0 0 0 0 0 0 0 0 0 0 0 0 0 0 0 0 
0 0 0 0 0 0 0 0 0 0 3 13 4 8 66 95 131 110 101 139 116 97 58 77 110 91 99 125 99 50 43 67 94 111 138 134 123 118 116 124 133 133 134 133 139 144 117 113 126 97 95 97 123 143 129 120 115 119 152 170 137 148 130 128 170 188 166 118 83 71 72 69 57 74 104 117 122 98 97 135 154 122 107 75 120 97 132 119 111 50 1 0 0 0 0 0 0 0 0 0 0 0 0 0 0 0 0 0 0 0 0 0 0 0 0 0 0 0 0 0 0 0 0 0 0 0 0 0 
0 0 0 0 0 0 0 0 0 0 5 11 1 6 48 87 124 115 86 121 130 108 85 56 100 101 108 125 95 50 43 46 85 121 141 140 128 123 125 142 135 144 162 147 124 151 118 109 141 106 93 99 123 143 126 119 112 114 127 168 161 149 131 132 139 160 170 149 145 140 134 107 98 117 128 125 105 75 98 150 148 124 111 105 100 95 125 107 105 34 1 0 1 8 0 0 0 0 0 0 0 0 0 0 0 0 0 0 0 0 0 0 0 0 0 0 0 0 0 0 0 0 0 0 0 0 0 0 
0 0 0 0 0 0 0 0 0 0 4 9 3 5 35 84 115 121 86 109 143 118 98 59 82 104 117 121 95 54 43 44 72 148 187 188 180 172 169 167 154 152 137 139 166 134 123 142 135 92 81 103 121 141 121 109 110 116 127 165 164 123 128 134 145 159 169 126 114 129 152 153 130 108 131 127 101 79 105 154 147 121 121 120 76 109 130 100 99 23 3 3 9 1 1 0 0 0 0 0 0 0 0 0 0 0 0 0 0 0 0 0 0 0 0 0 0 0 0 0 0 0 0 0 0 0 0 0 
0 0 0 0 0 0 0 0 0 0 3 9 4 7 26 83 111 134 91 97 141 128 106 79 61 95 123 124 95 62 43 47 87 155 189 192 178 169 165 152 153 147 142 148 154 151 141 119 121 103 93 108 130 135 113 104 107 122 140 185 165 137 136 142 149 167 182 172 167 164 161 161 156 137 138 111 91 89 134 160 151 128 129 135 139 142 132 87 82 12 5 3 10 0 0 0 0 0 0 0 0 0 0 0 0 0 0 0 0 0 0 0 0 0 0 0 0 0 0 0 0 0 0 0 0 0 0 0 
0 0 0 0 0 0 0 0 0 0 2 11 4 6 15 68 100 135 115 85 136 148 118 104 62 86 128 133 106 76 55 60 92 136 171 179 182 168 165 155 158 152 145 133 136 156 157 131 123 119 98 98 126 117 112 108 114 135 146 177 154 145 160 159 149 139 124 128 132 145 152 160 164 164 151 114 89 103 167 177 166 130 133 130 168 168 130 81 56 6 2 2 5 2 0 0 0 0 0 0 0 0 0 0 0 0 0 0 0 0 0 0 0 0 0 0 0 0 0 0 0 0 0 0 0 0 0 0 
0 0 0 0 0 0 0 0 0 0 0 13 4 6 15 62 94 130 127 99 127 182 163 126 100 83 126 131 109 110 102 64 79 113 138 152 182 192 178 161 153 159 141 123 129 138 161 132 119 108 96 95 103 118 115 112 126 141 151 164 152 148 155 146 122 100 99 119 114 106 125 156 146 144 122 97 106 145 179 189 170 125 118 150 193 97 94 78 27 5 2 3 3 3 0 0 0 0 0 0 0 0 0 0 0 0 0 0 0 0 0 0 0 0 0 0 0 0 0 0 0 0 0 0 0 0 0 0 
0 0 0 0 0 0 0 0 0 0 0 13 0 0 9 42 89 125 132 116 129 195 178 138 138 126 140 146 126 127 100 78 76 104 140 167 185 185 179 165 153 156 152 133 136 139 161 130 117 116 92 91 107 129 129 132 135 144 151 159 159 152 152 143 105 80 77 85 96 104 139 150 135 128 98 69 102 146 175 202 184 157 147 151 148 82 96 66 12 3 0 4 4 2 0 0 0 0 0 0 0 0 0 0 0 0 0 0 0 0 0 0 0 0 0 0 0 0 0 0 0 0 0 0 0 0 0 0 
0 0 0 0 0 0 0 0 0 0 0 11 5 0 3 12 59 112 140 144 118 158 194 171 151 148 145 142 151 149 138 112 90 85 108 136 137 128 136 149 148 150 165 163 155 154 172 142 142 140 120 106 114 134 150 144 145 149 145 157 157 147 141 129 118 109 74 66 89 126 148 151 131 137 105 81 106 146 156 176 175 166 146 142 138 98 113 79 8 0 0 1 5 1 0 0 0 0 0 0 0 0 0 0 0 0 0 0 0 0 0 0 0 0 0 0 0 0 0 0 0 0 0 0 0 0 0 0 
0 0 0 0 0 0 0 0 0 0 0 11 4 0 2 12 39 103 132 148 138 145 156 172 183 163 155 155 165 145 128 126 117 90 71 99 91 78 78 101 125 140 149 155 156 160 163 146 152 136 107 111 114 139 139 139 146 142 142 146 127 110 86 135 124 133 113 87 103 137 147 139 133 123 93 107 136 147 139 149 156 161 121 103 82 142 119 55 0 0 0 1 5 1 0 0 0 0 0 0 0 0 0 0 0 0 0 0 0 0 0 0 0 0 0 0 0 0 0 0 0 0 0 0 0 0 0 0 
0 0 0 0 0 0 0 0 0 0 0 13 5 0 1 11 22 84 125 164 146 131 131 153 162 175 191 187 155 138 116 89 92 96 86 83 68 61 81 91 87 101 119 140 147 146 141 121 115 108 93 85 84 109 126 122 128 130 119 111 105 84 68 95 76 87 85 76 107 156 164 149 130 90 94 137 144 136 124 128 146 153 124 104 81 84 92 30 3 0 0 1 5 3 0 0 0 0 0 0 0 0 0 0 0 0 0 0 0 0 0 0 0 0 0 0 0 0 0 0 0 0 0 0 0 0 0 0 
0 0 0 0 0 0 0 0 0 0 0 12 4 0 1 10 14 60 117 174 159 84 105 132 147 174 186 186 162 125 129 114 111 117 108 84 50 55 68 108 90 99 92 107 134 119 114 85 89 98 90 72 65 85 103 107 99 99 88 86 89 75 71 122 81 73 67 75 105 150 160 140 100 94 128 134 140 142 120 116 126 131 118 133 109 55 75 15 5 0 0 1 6 4 0 0 0 0 0 0 0 0 0 0 0 0 0 0 0 0 0 0 0 0 0 0 0 0 0 0 0 0 0 0 0 0 0 0 
0 0 0 0 0 0 0 0 0 0 1 12 4 0 3 11 21 46 99 155 149 76 95 136 139 156 154 157 163 149 136 145 158 159 116 98 62 51 49 67 66 55 58 106 112 113 137 65 76 106 112 90 63 70 91 112 94 80 62 80 80 86 90 138 117 99 87 88 101 129 150 128 92 119 127 130 145 158 119 99 123 136 105 118 110 89 59 12 4 3 0 2 7 5 0 0 0 0 0 0 0 0 0 0 0 0 0 0 0 0 0 0 0 0 0 0 0 0 0 0 0 0 0 0 0 0 0 0 
0 0 0 0 0 0 0 0 0 0 2 10 5 0 4 17 23 24 70 134 149 83 91 125 100 146 153 136 138 144 149 156 179 139 103 105 81 67 64 47 44 45 53 90 101 98 129 110 96 112 119 113 90 76 118 125 120 78 77 76 62 103 119 133 121 110 94 96 107 121 108 124 140 133 128 129 141 149 115 128 97 93 105 94 63 85 36 22 10 6 0 3 9 6 0 0 0 0 0 0 0 0 0 0 0 0 0 0 0 0 0 0 0 0 0 0 0 0 0 0 0 0 0 0 0 0 0 0 
0 0 0 0 0 0 0 0 0 0 2 10 6 0 8 14 20 8 40 117 145 137 122 128 87 117 157 127 114 121 132 166 169 146 149 137 110 85 79 68 46 44 57 74 93 120 144 123 122 124 123 126 121 124 136 132 128 142 143 122 101 111 136 139 136 117 103 103 92 99 88 145 181 132 121 133 139 139 113 115 77 82 95 76 73 66 19 24 17 9 2 4 11 8 0 0 0 0 0 0 0 0 0 0 0 0 0 0 0 0 0 0 0 0 0 0 0 0 0 0 0 0 0 0 0 0 0 0 
0 0 0 0 0 0 0 0 0 0 0 9 11 0 10 14 15 9 19 82 131 133 115 125 106 98 137 121 124 152 142 174 194 166 120 130 116 99 91 89 78 73 82 92 98 117 148 121 122 122 126 144 163 162 161 166 163 165 151 126 118 126 138 133 147 135 117 94 63 97 138 154 186 159 128 147 136 126 78 76 79 78 77 76 79 36 11 23 19 13 2 5 12 7 0 0 0 0 0 0 0 0 0 0 0 0 0 0 0 0 0 0 0 0 0 0 0 0 0 0 0 0 0 0 0 0 0 0 
0 0 0 0 0 0 0 0 0 0 0 3 12 1 4 9 10 11 10 56 129 130 119 132 120 115 139 128 128 153 155 164 178 171 124 105 102 103 99 100 110 101 94 93 108 133 148 131 137 127 148 176 182 179 171 179 184 156 128 115 108 125 133 143 156 166 139 96 122 132 131 145 174 175 129 138 140 118 94 78 97 130 126 145 81 20 9 17 18 15 4 5 12 9 0 0 0 0 0 0 0 0 0 0 0 0 0 0 0 0 0 0 0 0 0 0 0 0 0 0 0 0 0 0 0 0 0 0 
0 0 0 0 0 0 0 0 0 0 0 0 11 2 1 3 2 8 11 20 106 149 112 123 147 117 129 129 104 113 142 170 174 144 122 123 120 110 113 112 130 125 113 113 129 148 141 136 141 137 176 187 188 203 180 148 152 162 135 121 125 126 146 134 147 172 169 166 153 141 140 159 178 162 115 139 164 122 102 79 108 84 130 152 51 22 12 9 16 16 6 7 13 9 0 0 0 0 0 0 0 0 0 0 0 0 0 0 0 0 0 0 0 0 0 0 0 0 0 0 0 0 0 0 0 0 0 0 
0 0 0 0 0 0 0 0 0 0 0 1 14 8 2 3 2 3 11 13 61 138 142 131 141 119 130 130 102 83 108 162 170 129 120 120 116 118 127 142 164 164 146 136 142 150 133 132 138 164 182 178 170 192 198 170 159 168 139 134 144 141 145 140 158 175 192 187 157 154 131 115 134 105 116 183 173 142 111 93 63 51 109 95 26 21 15 8 13 16 7 6 13 7 0 0 0 0 0 0 0 0 0 0 0 0 0 0 0 0 0 0 0 0 0 0 0 0 0 0 0 0 0 0 0 0 0 0 
0 0 0 0 0 0 0 0 0 0 0 0 11 7 9 12 10 10 16 17 38 105 149 116 88 107 147 140 122 85 98 120 145 113 107 125 131 139 148 151 163 171 176 174 167 156 143 153 173 179 173 172 161 167 181 169 159 164 155 149 158 173 183 185 173 166 200 187 128 88 60 69 95 76 127 176 184 165 171 119 62 89 132 66 23 22 14 12 15 16 6 6 13 3 0 0 0 0 0 0 0 0 0 0 0 0 0 0 0 0 0 0 0 0 0 0 0 0 0 0 0 0 0 0 0 0 0 0 
0 0 0 0 0 0 0 0 0 0 0 0 3 6 4 11 12 16 13 14 26 64 103 90 85 104 122 151 137 117 116 117 130 125 69 89 118 132 144 143 152 179 186 192 183 156 149 167 184 181 152 174 169 152 141 137 150 161 171 181 181 193 204 176 190 172 182 119 66 60 42 46 78 124 130 169 167 152 143 108 122 143 122 47 19 18 14 8 11 8 0 5 12 0 0 0 0 0 0 0 0 0 0 0 0 0 0 0 0 0 0 0 0 0 0 0 0 0 0 0 0 0 0 0 0 0 0 0 
0 0 0 0 0 0 0 0 0 0 0 0 5 6 6 10 16 12 10 12 19 42 74 62 83 92 103 131 140 147 146 140 104 119 71 53 54 52 60 82 130 159 165 178 179 163 162 166 175 155 146 166 161 169 148 120 137 163 173 167 165 179 171 180 158 148 166 142 116 84 70 79 104 114 119 165 116 111 100 61 48 88 75 25 13 4 11 9 6 0 0 3 15 0 0 0 0 0 0 0 0 0 0 0 0 0 0 0 0 0 0 0 0 0 0 0 0 0 0 0 0 0 0 0 0 0 0 0 
0 0 0 0 0 0 0 0 0 0 0 0 6 6 6 4 8 10 7 11 16 28 49 34 44 75 97 137 130 134 153 163 118 138 112 60 54 45 48 109 97 112 150 149 152 119 105 129 148 137 121 106 112 120 117 106 110 118 127 123 104 129 144 134 128 174 176 153 125 135 123 129 129 114 104 124 67 52 84 73 83 86 45 19 17 0 3 4 0 0 0 5 7 0 0 0 0 0 0 0 0 0 0 0 0 0 0 0 0 0 0 0 0 0 0 0 0 0 0 0 0 0 0 0 0 0 0 0 
0 0 0 0 0 0 0 0 0 0 0 0 2 5 1 0 0 5 9 9 7 11 46 59 47 44 55 70 73 109 127 163 123 126 112 85 95 86 102 131 141 176 166 164 185 164 156 158 180 171 146 105 106 82 78 101 136 147 128 159 188 176 167 164 151 166 189 197 175 141 147 86 33 40 41 95 60 46 70 70 63 42 23 20 23 0 0 0 0 1 3 6 1 0 0 0 0 0 0 0 0 0 0 0 0 0 0 0 0 0 0 0 0 0 0 0 0 0 0 0 0 0 0 0 0 0 0 0 
0 0 0 0 0 0 0 0 0 0 0 0 0 4 0 0 0 0 3 6 9 14 42 56 73 81 62 62 72 72 77 135 118 119 146 162 153 158 173 194 184 188 163 151 154 179 191 178 184 186 146 134 129 108 90 127 132 146 153 169 157 208 229 161 148 133 147 191 150 113 102 100 92 76 71 113 73 74 55 45 50 37 37 36 30 0 0 0 0 0 0 5 2 0 0 0 0 0 0 0 0 0 0 0 0 0 0 0 0 0 0 0 0 0 0 0 0 0 0 0 0 0 0 0 0 0 0 0 
0 0 0 0 0 0 0 0 0 0 0 0 0 2 5 3 0 0 0 6 10 13 18 23 37 66 52 61 78 58 60 105 115 64 84 129 117 105 131 120 99 82 87 139 149 147 176 186 181 112 80 96 102 87 92 99 74 79 141 168 155 133 88 99 63 124 150 106 84 61 38 36 37 45 96 132 55 71 53 37 32 23 16 9 7 0 0 0 0 0 0 5 6 0 0 0 0 0 0 0 0 0 0 0 0 0 0 0 0 0 0 0 0 0 0 0 0 0 0 0 0 0 0 0 0 0 0 0 
0 0 0 0 0 0 0 0 0 0 0 0 0 0 5 5 1 0 0 0 10 11 14 14 18 21 31 46 78 58 54 92 95 43 58 80 128 91 85 69 67 78 69 72 82 100 107 99 97 70 49 90 95 77 76 107 90 47 75 87 86 103 104 92 79 106 85 79 94 73 72 68 73 87 128 139 59 76 50 37 30 18 12 8 6 0 0 0 0 3 4 5 2 0 0 0 0 0 0 0 0 0 0 0 0 0 0 0 0 0 0 0 0 0 0 0 0 0 0 0 0 0 0 0 0 0 0 0 
0 0 0 0 0 0 0 0 0 0 0 0 0 0 0 0 0 0 0 0 7 11 11 14 19 22 37 51 85 63 54 78 102 55 46 35 72 134 139 129 133 112 105 96 88 79 82 88 110 71 57 111 109 76 68 94 99 49 85 89 105 116 103 91 124 142 101 21 18 43 70 60 43 78 125 142 85 95 71 55 35 25 15 13 1 0 0 0 0 3 3 2 0 0 0 0 0 0 0 0 0 0 0 0 0 0 0 0 0 0 0 0 0 0 0 0 0 0 0 0 0 0 0 0 0 0 0 0 
0 0 0 0 0 0 0 0 0 0 0 0 0 0 0 0 0 0 0 0 0 7 4 3 16 28 40 41 81 66 46 47 84 56 59 59 120 150 150 137 120 139 156 122 102 97 121 122 94 64 58 114 118 104 94 117 112 92 103 147 151 163 159 154 162 136 108 75 27 88 88 129 118 101 103 119 94 91 67 60 32 24 30 40 8 0 0 0 0 0 0 0 0 0 0 0 0 0 0 0 0 0 0 0 0 0 0 0 0 0 0 0 0 0 0 0 0 0 0 0 0 0 0 0 0 0 0 0 
0 0 0 0 0 0 0 0 0 0 0 0 0 0 0 0 0 0 0 0 0 2 10 6 4 23 22 27 61 67 59 38 55 50 56 70 93 135 142 117 100 118 156 123 125 146 220 147 92 114 117 128 138 128 134 143 158 179 202 193 158 146 156 161 119 102 84 134 140 139 127 123 117 55 11 56 50 53 38 32 3 3 8 5 0 0 0 0 0 0 0 0 0 0 0 0 0 0 0 0 0 0 0 0 0 0 0 0 0 0 0 0 0 0 0 0 0 0 0 0 0 0 0 0 0 0 0 0 
0 0 0 0 0 0 0 0 0 0 0 0 0 0 0 0 0 0 0 0 0 0 3 3 7 11 27 44 73 92 87 73 112 74 73 69 57 91 161 103 75 105 106 105 102 114 142 114 97 97 108 109 125 106 117 126 152 153 145 140 118 107 85 89 104 85 76 88 109 140 75 63 51 22 29 98 50 52 37 20 9 16 23 4 1 0 0 0 0 0 0 0 0 0 0 0 0 0 0 0 0 0 0 0 0 0 0 0 0 0 0 0 0 0 0 0 0 0 0 0 0 0 0 0 0 0 0 0 
0 0 0 0 0 0 0 0 0 0 0 0 0 0 0 0 0 0 0 0 0 0 6 7 9 14 16 23 43 60 62 51 102 55 35 33 46 95 98 61 58 101 109 77 61 103 142 103 78 82 86 71 91 81 94 121 151 149 113 108 81 72 95 99 119 137 127 83 107 96 100 62 39 36 47 128 66 51 28 11 10 18 24 4 1 0 0 0 0 0 0 0 0 0 0 0 0 0 0 0 0 0 0 0 0 0 0 0 0 0 0 0 0 0 0 0 0 0 0 0 0 0 0 0 0 0 0 0 
0 0 0 0 0 0 0 0 0 0 0 0 0 0 0 0 0 0 0 0 0 0 4 8 8 11 13 19 31 45 52 59 107 57 31 24 32 77 81 51 51 65 86 91 93 125 132 89 65 65 63 57 65 64 60 57 71 95 93 90 78 79 80 76 83 126 132 108 110 88 92 52 32 29 45 141 80 53 23 13 15 14 10 4 1 0 0 0 0 0 0 0 0 0 0 0 0 0 0 0 0 0 0 0 0 0 0 0 0 0 0 0 0 0 0 0 0 0 0 0 0 0 0 0 0 0 0 0 
0 0 0 0 0 0 0 0 0 0 0 0 0 0 0 0 0 0 0 0 0 0 4 8 10 9 10 19 24 43 39 62 105 54 29 27 58 94 71 62 68 56 69 86 113 133 145 107 100 70 59 60 60 55 54 59 87 78 81 95 81 90 93 97 89 96 101 99 101 91 109 81 43 35 44 136 78 55 21 12 15 12 10 2 2 0 0 0 0 0 0 0 0 0 0 0 0 0 0 0 0 0 0 0 0 0 0 0 0 0 0 0 0 0 0 0 0 0 0 0 0 0 0 0 0 0 0 0 
0 0 0 0 0 0 0 0 0 0 0 0 0 0 0 0 0 0 0 0 0 0 0 7 8 11 8 13 20 42 39 61 104 54 28 36 82 88 70 60 55 53 64 86 139 161 168 116 121 115 69 66 61 55 55 70 72 68 74 106 115 106 97 71 102 96 82 81 94 89 96 113 60 40 46 135 74 56 23 14 15 13 8 3 2 1 0 0 0 0 0 0 0 0 0 0 0 0 0 0 0 0 0 0 0 0 0 0 0 0 0 0 0 0 0 0 0 0 0 0 0 0 0 0 0 0 0 0 
0 0 0 0 0 0 0 0 0 0 0 0 0 0 0 0 0 0 0 0 0 0 0 0 8 10 9 12 15 28 49 63 113 76 32 56 104 81 46 37 45 48 60 96 165 171 150 107 120 130 89 74 65 60 58 72 62 74 85 115 124 101 107 84 125 120 80 68 76 77 75 118 99 44 42 132 79 48 28 16 14 13 5 3 2 1 0 0 0 0 0 0 0 0 0 0 0 0 0 0 0 0 0 0 0 0 0 0 0 0 0 0 0 0 0 0 0 0 0 0 0 0 0 0 0 0 0 0 
0 0 0 0 0 0 0 0 0 0 0 0 0 0 0 0 0 0 0 0 0 0 0 0 4 5 12 12 12 16 44 51 106 90 48 89 118 70 42 35 40 44 56 97 148 142 89 64 99 142 111 86 70 67 91 74 81 101 95 116 141 135 107 105 135 142 98 63 54 45 37 87 134 69 45 125 86 46 15 14 14 10 4 2 2 1 0 0 0 0 0 0 0 0 0 0 0 0 0 0 0 0 0 0 0 0 0 0 0 0 0 0 0 0 0 0 0 0 0 0 0 0 0 0 0 0 0 0 
0 0 0 0 0 0 0 0 0 0 0 0 0 0 0 0 0 0 0 0 0 0 0 0 4 7 7 13 11 12 24 26 77 118 78 109 107 66 39 36 36 43 58 90 131 125 72 57 70 122 127 98 73 67 89 85 78 76 81 132 173 117 80 81 111 150 106 66 49 37 27 61 136 117 70 108 35 16 11 14 15 8 2 2 3 2 0 0 0 0 0 0 0 0 0 0 0 0 0 0 0 0 0 0 0 0 0 0 0 0 0 0 0 0 0 0 0 0 0 0 0 0 0 0 0 0 0 0 
0 0 0 0 0 0 0 0 0 0 0 0 0 0 0 0 0 0 0 0 0 0 0 0 0 5 3 8 12 14 19 21 35 94 106 90 89 68 40 33 41 50 70 82 101 119 71 57 66 101 134 123 99 84 82 83 78 86 111 149 168 98 64 72 106 133 87 70 52 36 25 61 108 119 90 58 19 14 14 15 14 6 2 3 3 2 0 0 0 0 0 0 0 0 0 0 0 0 0 0 0 0 0 0 0 0 0 0 0 0 0 0 0 0 0 0 0 0 0 0 0 0 0 0 0 0 0 0 
0 0 0 0 0 0 0 0 0 0 0 0 0 0 0 0 0 0 0 0 0 0 0 0 0 0 7 4 11 13 16 16 19 20 27 31 70 80 48 36 40 48 74 63 85 107 80 64 73 96 112 112 103 84 69 82 104 117 130 141 140 101 78 65 99 118 54 64 49 35 29 62 87 50 35 23 13 12 14 16 11 4 2 3 3 2 1 0 0 0 0 0 0 0 0 0 0 0 0 0 0 0 0 0 0 0 0 0 0 0 0 0 0 0 0 0 0 0 0 0 0 0 0 0 0 0 0 0 
0 0 0 0 0 0 0 0 0 0 0 0 0 0 0 0 0 0 0 0 0 0 0 0 0 0 5 3 8 12 15 17 13 17 14 22 51 83 58 35 38 52 78 64 89 120 67 49 81 107 111 108 112 98 89 88 112 127 121 121 145 107 69 63 97 114 53 72 62 37 39 68 85 38 25 24 12 13 14 14 8 3 1 2 3 2 0 0 0 0 0 0 0 0 0 0 0 0 0 0 0 0 0 0 0 0 0 0 0 0 0 0 0 0 0 0 0 0 0 0 0 0 0 0 0 0 0 0 
0 0 0 0 0 0 0 0 0 0 0 0 0 0 0 0 0 0 0 0 0 0 0 0 0 0 3 7 1 9 12 19 12 13 15 19 32 75 80 56 51 72 87 64 91 137 99 56 76 98 119 120 117 118 119 113 112 128 116 113 135 120 77 81 111 134 61 73 87 63 61 89 76 32 24 20 11 15 14 12 7 2 1 2 3 2 1 0 0 0 0 0 0 0 0 0 0 0 0 0 0 0 0 0 0 0 0 0 0 0 0 0 0 0 0 0 0 0 0 0 0 0 0 0 0 0 0 0 
0 0 0 0 0 0 0 0 0 0 0 0 0 0 0 0 0 0 0 0 0 0 0 0 0 0 0 8 2 5 10 13 16 10 10 18 20 42 83 83 85 95 83 54 93 154 121 63 64 95 123 112 109 115 112 111 114 122 123 115 133 119 105 100 119 154 92 64 92 84 88 87 44 29 24 14 12 14 13 8 6 1 1 3 3 2 1 0 0 0 0 0 0 0 0 0 0 0 0 0 0 0 0 0 0 0 0 0 0 0 0 0 0 0 0 0 0 0 0 0 0 0 0 0 0 0 0 0 
0 0 0 0 0 0 0 0 0 0 0 0 0 0 0 0 0 0 0 0 0 0 0 0 0 0 0 1 9 4 8 12 17 22 10 11 22 27 35 70 91 87 57 42 95 158 140 74 71 119 121 104 105 99 86 84 87 94 113 115 131 133 114 107 143 166 103 48 65 78 68 41 32 29 25 16 10 13 12 9 6 2 0 2 3 2 1 0 0 0 0 0 0 0 0 0 0 0 0 0 0 0 0 0 0 0 0 0 0 0 0 0 0 0 0 0 0 0 0 0 0 0 0 0 0 0 0 0 
0 0 0 0 0 0 0 0 0 0 0 0 0 0 0 0 0 0 0 0 0 0 0 0 0 0 0 0 1 7 4 10 17 21 15 9 14 23 29 32 36 43 35 41 82 148 159 131 131 139 109 99 97 79 60 60 73 83 105 119 117 129 138 137 157 161 101 39 25 24 25 32 31 29 24 17 9 11 10 9 4 2 0 2 2 2 1 0 0 0 0 0 0 0 0 0 0 0 0 0 0 0 0 0 0 0 0 0 0 0 0 0 0 0 0 0 0 0 0 0 0 0 0 0 0 0 0 0 
0 0 0 0 0 0 0 0 0 0 0 0 0 0 0 0 0 0 0 0 0 0 0 0 0 0 0 0 0 6 4 7 16 18 15 11 12 21 26 32 35 40 32 35 65 116 165 155 153 132 100 85 69 62 57 53 55 69 96 100 97 117 156 169 170 121 47 26 22 23 24 31 32 26 21 17 13 14 13 11 4 0 1 2 2 2 1 0 0 0 0 0 0 0 0 0 0 0 0 0 0 0 0 0 0 0 0 0 0 0 0 0 0 0 0 0 0 0 0 0 0 0 0 0 0 0 0 0 
0 0 0 0 0 0 0 0 0 0 0 0 0 0 0 0 0 0 0 0 0 0 0 0 0 0 0 0 0 4 5 5 12 18 19 16 16 21 25 29 37 37 33 39 60 70 108 157 158 103 69 56 53 48 43 46 52 57 78 95 102 90 134 172 135 59 40 38 31 24 23 29 32 25 12 15 19 15 16 13 4 2 0 1 3 3 1 0 0 0 0 0 0 0 0 0 0 0 0 0 0 0 0 0 0 0 0 0 0 0 0 0 0 0 0 0 0 0 0 0 0 0 0 0 0 0 0 0 
