P2
128 99
207
0 0 0 0 0 0 0 0 0 0 0 0 0 0 0 0 0 0 0 0 0 0 0 0 0 0 0 0 0 0 0 0 3 4 2 0 0 0 0 0 0 0 0 0 0 0 0 0 0 0 0 0 0 0 0 0 0 0 0 0 0 0 0 0 0 0 0 0 0 0 0 0 0 0 0 0 0 0 0 0 0 0 0 0 0 0 0 0 0 0 0 0 2 4 4 5 0 0 0 0 0 0 0 0 0 0 0 0 0 0 0 0 0 0 0 0 0 0 0 0 0 0 0 0 0 0 0 0 
0 0 0 0 0 0 0 0 0 0 0 0 0 0 0 0 0 0 0 0 0 0 0 0 0 0 0 0 0 0 0 0 3 4 2 0 0 0 0 0 0 0 0 0 0 0 0 0 0 0 0 0 0 0 0 0 0 0 0 0 0 0 0 0 0 0 0 0 0 0 0 0 0 0 0 0 0 0 0 0 0 0 0 0 0 0 0 0 0 0 0 0 2 4 4 5 0 0 0 0 0 0 0 0 0 0 0 0 0 0 0 0 0 0 0 0 0 0 0 0 0 0 0 0 0 0 0 0 
0 0 0 0 0 0 0 0 0 0 0 0 0 0 0 0 0 0 0 0 0 0 0 0 0 0 0 0 0 0 0 0 2 3 2 0 0 0 0 0 0 0 0 0 0 0 0 0 0 0 0 0 2 2 2 0 0 0 0 0 0 0 0 0 0 0 0 0 0 0 0 0 0 0 0 0 0 0 0 0 0 0 0 0 0 0 0 0 0 0 0 0 2 3 4 5 0 0 0 0 0 0 0 0 0 0 0 0 0 0 0 0 0 0 0 0 0 0 0 0 0 0 0 0 0 0 0 0 
0 0 0 0 0 0 0 0 0 0 0 0 0 0 0 0 0 0 0 0 0 0 0 0 0 0 0 0 0 0 0 0 2 3 2 0 0 0 0 0 0 0 0 0 7 12 18 19 19 19 21 24 26 25 23 19 16 14 13 13 5 0 0 0 0 0 0 0 0 0 0 0 0 0 0 0 0 0 0 0 0 0 0 0 0 0 0 0 0 0 0 0 2 4 4 5 0 0 0 0 0 0 0 0 0 0 0 0 0 0 0 0 0 0 0 0 0 0 0 0 0 0 0 0 0 0 0 0 
0 0 0 0 0 0 0 0 0 0 0 0 0 0 0 0 0 0 0 0 0 0 0 0 0 0 0 0 0 0 0 0 2 2 1 0 0 0 0 0 7 12 20 23 24 32 53 76 97 115 131 141 145 144 140 128 114 96 76 55 32 20 18 12 2 0 0 0 0 0 0 0 0 0 0 0 0 0 0 0 0 0 0 0 0 0 0 0 0 0 0 0 1 3 4 5 0 0 0 0 0 0 0 0 0 0 0 0 0 0 0 0 0 0 0 0 0 0 0 0 0 0 0 0 0 0 0 0 
0 0 0 0 0 0 0 0 0 0 0 0 0 0 0 0 0 0 0 0 0 0 0 0 0 0 0 0 0 0 0 0 1 1 0 0 0 2 9 17 23 22 34 68 106 139 159 167 172 176 181 181 180 179 180 180 181 180 172 160 140 109 76 45 22 17 10 1 0 0 0 0 0 0 0 0 0 0 0 0 0 0 0 0 0 0 0 0 0 0 0 0 1 3 4 5 0 0 0 0 0 0 0 0 0 0 0 0 0 0 0 0 0 0 0 0 0 0 0 0 0 0 0 0 0 0 0 0 
0 0 0 0 0 0 0 0 0 0 0 0 0 0 0 0 0 0 0 0 0 0 0 0 0 0 0 0 0 0 0 0 1 1 0 1 9 22 24 24 52 98 141 164 172 179 183 184 183 182 184 186 188 188 188 186 182 179 176 176 180 178 167 146 114 74 38 16 14 2 0 0 0 0 0 0 0 0 0 0 0 0 0 0 0 0 0 0 0 0 0 0 2 3 4 4 0 0 0 0 0 0 0 0 0 0 0 0 0 0 0 0 0 0 0 0 0 0 0 0 0 0 0 0 0 0 0 0 
0 0 0 0 0 0 0 0 0 0 0 0 0 0 0 0 0 0 0 0 0 0 0 0 0 0 0 0 0 0 0 0 1 1 8 23 23 27 63 118 156 171 178 184 186 182 181 179 171 165 168 174 175 163 162 175 187 191 191 187 181 177 176 181 178 164 138 97 49 22 14 1 0 0 0 0 0 0 0 0 0 0 0 0 0 0 0 0 0 0 0 0 2 4 4 5 0 0 0 0 0 0 0 0 0 0 0 0 0 0 0 0 0 0 0 0 0 0 0 0 0 0 0 0 0 0 0 0 
0 0 0 0 0 0 0 0 0 0 0 0 0 0 0 0 0 0 0 0 0 0 0 0 0 0 0 0 0 0 0 0 5 26 29 25 59 121 161 171 177 182 182 184 185 176 164 151 150 158 163 163 159 150 150 161 173 186 197 196 191 187 186 182 175 177 182 171 145 99 43 24 10 0 0 0 0 0 0 0 0 0 0 0 0 0 0 0 0 0 0 0 3 4 4 5 0 0 0 0 0 0 0 0 0 0 0 0 0 0 0 0 0 0 0 0 0 0 0 0 0 0 0 0 0 0 0 0 
0 0 0 0 0 0 0 0 0 0 0 0 0 0 0 0 0 0 0 0 0 0 0 0 0 0 0 0 0 0 0 22 30 22 38 107 159 170 175 182 182 184 183 165 151 152 152 146 135 122 128 137 138 132 134 135 132 141 160 183 204 205 198 191 187 185 178 176 181 170 137 78 30 20 1 0 0 0 0 0 0 0 0 0 0 0 0 0 0 0 0 0 3 4 4 5 0 0 0 0 0 0 0 0 0 0 0 0 0 0 0 0 0 0 0 0 0 0 0 0 0 0 0 0 0 0 0 0 
0 0 0 0 0 0 0 0 0 0 0 0 0 0 0 0 0 0 0 0 0 0 0 0 0 0 0 0 0 9 29 22 24 82 149 170 175 181 180 182 185 177 163 170 170 156 140 129 124 134 139 147 146 144 143 149 145 138 142 145 152 174 194 207 205 195 187 185 179 178 181 162 115 45 23 5 0 0 0 0 0 0 0 0 0 0 0 0 0 0 0 0 3 4 4 5 0 0 0 0 0 0 0 0 0 0 0 0 0 0 0 0 0 0 0 0 0 0 0 0 0 0 0 0 0 0 0 0 
0 0 0 0 0 0 0 0 0 0 0 0 0 0 0 0 0 0 0 0 0 0 0 0 0 0 0 0 22 25 18 45 123 166 171 181 183 181 185 182 181 178 161 144 138 138 137 134 137 133 123 120 115 113 124 134 139 138 139 145 154 163 172 179 190 200 204 197 189 186 181 178 175 141 67 24 11 0 0 0 0 0 0 0 0 0 0 0 0 0 0 0 2 4 4 5 0 0 0 0 0 0 0 0 0 0 0 0 0 0 0 0 0 0 0 0 0 0 0 0 0 0 0 0 0 0 0 0 
0 0 0 0 0 0 0 0 0 0 0 0 0 0 0 0 0 0 0 0 0 0 0 0 0 0 5 25 23 18 72 147 170 178 184 183 186 190 189 179 160 146 145 151 152 146 142 139 136 124 109 109 111 113 129 139 141 146 147 142 138 146 164 175 182 185 188 198 205 195 187 182 175 176 150 83 24 13 0 0 0 0 0 0 0 0 0 0 0 0 0 0 3 4 4 5 0 0 0 0 0 0 0 0 0 0 0 0 0 0 0 0 0 0 0 0 0 0 0 0 0 0 0 0 0 0 0 0 
0 0 0 0 0 0 0 0 0 0 0 0 0 0 0 0 0 0 0 0 0 0 0 0 0 11 24 20 24 97 159 169 181 184 185 190 196 188 160 146 153 157 152 146 136 132 141 150 143 141 139 142 143 144 141 147 148 152 158 159 153 144 141 151 161 173 182 187 192 202 201 188 182 173 175 156 92 26 13 0 0 0 0 0 0 0 0 0 0 0 0 0 3 4 4 5 0 0 0 0 0 0 0 0 0 0 0 0 0 0 0 0 0 0 0 0 0 0 0 0 0 0 0 0 0 0 0 0 
0 0 0 0 0 0 0 0 0 0 0 0 0 0 0 0 0 0 0 0 0 0 0 0 14 22 17 35 113 161 169 182 184 192 196 194 170 150 153 157 158 147 139 134 130 139 139 136 140 139 133 134 126 127 128 127 137 147 154 161 167 166 157 150 146 147 155 168 181 184 191 202 192 180 175 177 159 101 30 13 0 0 0 0 0 0 0 0 0 0 0 0 3 4 4 5 0 0 0 0 0 0 0 0 0 0 0 0 0 0 0 0 0 0 0 0 0 0 0 0 0 0 0 0 0 0 0 0 
0 0 0 0 0 0 0 0 0 0 0 0 0 0 0 0 0 0 0 0 0 0 3 18 19 16 46 123 160 174 185 185 196 192 181 153 152 162 158 155 145 138 141 141 144 137 124 119 110 106 101 97 93 97 101 99 100 107 120 132 138 147 158 165 164 158 150 147 153 170 177 183 200 194 184 175 177 161 113 36 11 0 0 0 0 0 0 0 0 0 0 0 2 4 4 5 0 0 0 0 0 0 0 0 0 0 0 0 0 0 0 0 0 0 0 0 0 0 0 0 0 0 0 0 0 0 0 0 
0 0 0 0 0 0 0 0 0 0 0 0 0 0 0 0 0 0 0 0 0 6 17 17 19 59 133 160 175 184 188 195 185 172 150 156 157 153 150 147 145 144 138 134 122 113 109 99 98 98 98 101 99 102 109 112 114 114 114 112 113 115 119 132 151 160 161 154 147 148 157 168 177 197 194 185 179 178 161 120 38 9 0 0 0 0 0 0 0 0 0 0 3 4 4 5 0 0 0 0 0 0 0 0 0 0 0 0 0 0 0 0 0 0 0 0 0 0 0 0 0 0 0 0 0 0 0 0 
0 0 0 0 0 0 0 0 0 0 0 0 0 0 0 0 0 0 0 0 6 17 14 19 71 139 159 171 183 191 190 172 164 154 158 151 141 141 145 142 135 134 135 128 119 114 109 112 110 105 114 115 120 125 125 125 127 129 129 127 125 124 121 118 121 133 144 152 149 144 142 146 162 174 192 188 185 180 180 162 124 36 6 0 0 0 0 0 0 0 0 0 3 4 4 5 0 0 0 0 0 0 0 0 0 0 0 0 0 0 0 0 0 0 0 0 0 0 0 0 0 0 0 0 0 0 0 0 
0 0 0 0 0 0 0 0 0 0 0 0 0 0 0 0 0 0 0 5 16 11 20 76 143 159 169 183 191 186 164 157 149 154 140 131 140 149 137 129 129 132 130 120 120 119 119 122 123 121 124 113 116 129 125 125 126 128 132 133 133 132 129 127 121 118 125 137 153 147 136 133 142 156 169 189 187 188 180 177 159 116 28 3 0 0 0 0 0 0 0 0 2 4 4 5 0 0 0 0 0 0 0 0 0 0 0 0 0 0 0 0 0 0 0 0 0 0 0 0 0 0 0 0 0 0 0 0 
0 0 0 0 0 0 0 0 0 0 0 0 0 0 0 0 0 0 5 17 11 18 80 144 157 165 179 189 178 160 156 145 146 138 131 142 147 138 129 128 129 120 115 116 117 115 115 117 121 122 114 102 103 119 116 112 111 112 112 119 127 131 134 132 128 121 119 125 140 153 144 133 132 138 148 168 189 186 186 178 170 154 102 19 1 0 0 0 0 0 0 0 3 4 4 6 0 0 0 0 0 0 0 0 0 0 0 0 0 0 0 0 0 0 0 0 0 0 0 0 0 0 0 0 0 0 0 0 
0 0 0 0 0 0 0 0 0 0 0 0 0 0 0 0 0 2 13 14 18 77 142 153 163 178 189 176 160 155 144 137 134 129 142 146 137 129 121 118 112 110 116 115 112 111 112 112 115 111 98 93 93 111 117 111 109 106 105 109 115 112 118 127 128 124 121 124 124 135 151 137 131 134 139 143 167 185 186 180 178 165 147 78 9 0 0 0 0 0 0 0 3 4 4 6 0 0 0 0 0 0 0 0 0 0 0 0 0 0 0 0 0 0 0 0 0 0 0 0 0 0 0 0 0 0 0 0 
0 0 0 0 0 0 0 0 0 0 0 0 0 0 0 0 0 11 14 15 68 138 146 160 173 190 172 156 159 141 133 128 131 149 149 135 124 117 110 108 110 114 115 114 115 112 103 103 105 104 97 95 96 101 108 113 118 113 110 105 101 97 96 102 110 117 120 119 121 123 135 144 127 126 134 139 141 173 184 182 179 173 160 131 51 3 0 0 0 0 0 0 3 4 4 6 0 0 0 0 0 0 0 0 0 0 0 0 0 0 0 0 0 0 0 0 0 0 0 0 0 0 0 0 0 0 0 0 
0 0 0 0 0 0 0 0 0 0 0 0 0 0 0 0 6 13 14 54 127 142 158 167 190 175 150 156 140 130 125 122 142 149 133 118 111 108 110 115 114 109 111 110 106 102 101 99 105 101 98 101 104 103 102 100 102 104 103 101 100 97 95 93 93 98 108 121 120 120 124 139 136 120 121 133 131 141 173 176 182 183 167 150 111 26 2 0 0 0 0 0 3 4 4 5 0 0 0 0 0 0 0 0 0 0 0 0 0 0 0 0 0 0 0 0 0 0 0 0 0 0 0 0 0 0 0 0 
0 0 0 0 0 0 0 0 0 0 0 0 0 0 0 2 12 15 45 115 141 152 167 185 177 147 151 144 129 128 124 135 145 139 121 109 105 105 109 104 103 103 105 104 106 107 108 107 105 100 105 106 107 101 98 96 100 104 106 107 108 108 104 95 91 94 100 109 118 118 119 123 139 128 119 127 136 127 146 168 175 183 179 163 136 76 9 0 0 0 0 1 3 4 4 6 0 0 0 0 0 0 0 0 0 0 0 0 0 0 0 0 0 0 0 0 0 0 0 0 0 0 0 0 0 0 0 0 
0 0 0 0 0 0 0 0 0 0 0 0 0 0 0 7 12 28 94 137 142 162 176 184 151 143 152 126 127 128 133 137 140 119 110 104 103 105 103 104 106 104 109 110 107 105 108 108 97 94 103 104 102 99 94 95 94 97 98 102 111 115 115 104 97 94 96 103 110 111 114 118 127 137 123 122 136 128 131 153 162 175 183 165 149 113 31 1 0 0 0 0 3 4 4 6 0 0 0 0 0 0 0 0 0 0 0 0 0 0 0 0 0 0 0 0 0 0 0 0 0 0 0 0 0 0 0 0 
0 0 0 0 0 0 0 0 0 0 0 0 0 0 3 9 15 71 121 136 149 171 180 161 140 148 128 119 126 136 133 134 123 112 102 98 101 106 108 112 114 112 109 106 99 100 108 111 102 96 106 105 102 106 97 95 92 91 86 86 99 111 116 115 108 100 93 96 101 108 109 117 123 133 134 121 129 130 120 141 146 166 181 172 160 132 68 4 0 0 0 1 3 4 4 5 0 0 0 0 0 0 0 0 0 0 0 0 0 0 0 0 0 0 0 0 0 0 0 0 0 0 0 0 0 0 0 0 
0 0 0 0 0 0 0 0 0 0 0 0 0 0 6 9 41 103 131 137 161 171 161 146 132 137 113 126 136 133 136 126 114 101 95 95 109 116 118 114 109 101 93 88 88 94 101 103 102 105 121 120 114 116 104 104 105 101 94 87 85 89 101 111 116 109 96 92 98 100 103 113 122 121 133 134 128 135 119 130 134 159 172 175 163 143 98 16 0 0 0 1 3 4 4 5 0 0 0 0 0 0 0 0 0 0 0 0 0 0 0 0 0 0 0 0 0 0 0 0 0 0 0 0 0 0 0 0 
0 0 0 0 0 0 0 0 0 0 0 0 0 0 8 15 80 120 134 145 166 154 152 132 130 123 119 135 134 137 131 110 101 99 100 112 119 115 111 102 91 82 77 79 85 94 102 110 113 111 113 117 116 100 87 89 101 115 113 105 96 91 87 94 110 121 108 94 94 101 98 102 119 118 128 138 132 136 126 117 129 150 162 170 163 153 119 38 2 0 0 1 3 4 4 5 0 0 0 0 0 0 0 0 0 0 0 0 0 0 0 0 0 0 0 0 0 0 0 0 0 0 0 0 0 0 0 0 
0 0 0 0 0 0 0 0 0 0 0 0 0 3 7 36 103 128 138 154 163 151 143 132 125 118 125 137 131 138 118 103 102 107 114 122 113 101 94 88 76 76 82 94 103 111 112 110 99 85 78 79 96 69 69 70 81 97 96 111 114 110 100 90 97 116 115 104 94 97 100 98 113 114 120 133 138 133 134 113 120 143 155 170 165 155 130 60 3 0 0 0 3 4 5 5 0 0 0 0 0 0 0 0 0 0 0 0 0 0 0 0 0 0 0 0 0 0 0 0 0 0 0 0 0 0 0 0 
0 0 0 0 0 0 0 0 0 0 0 0 0 3 9 64 115 132 144 162 153 142 137 122 120 115 129 129 132 131 107 98 114 117 121 115 98 89 86 81 79 90 105 115 112 107 89 78 75 74 73 70 73 69 68 70 69 70 68 78 90 109 116 109 101 105 116 114 103 95 98 97 110 112 117 130 136 120 132 119 110 133 147 168 166 155 137 78 6 0 0 1 3 4 5 6 0 0 0 0 0 0 0 0 0 0 0 0 0 0 0 0 0 0 0 0 0 0 0 0 0 0 0 0 0 0 0 0 
0 0 0 0 0 0 0 0 0 0 0 0 0 7 18 87 121 135 149 161 139 133 133 111 121 116 128 121 127 117 97 107 127 124 120 104 89 81 83 86 101 116 117 105 96 76 73 72 74 74 73 71 70 69 71 71 73 71 69 69 69 75 97 116 117 111 115 119 113 99 97 102 112 112 114 125 127 109 127 123 111 126 149 165 168 162 144 91 10 0 0 1 3 4 5 6 0 0 0 0 0 0 0 0 0 0 0 0 0 0 0 0 0 0 0 0 0 0 0 0 0 0 0 0 0 0 0 0 
0 0 0 0 0 0 0 0 0 0 0 0 2 7 34 107 127 143 153 153 119 132 124 110 121 117 125 113 125 106 98 122 133 124 107 90 83 79 91 109 119 113 95 78 69 68 70 72 72 74 74 72 72 69 70 74 82 80 70 69 70 70 73 97 117 122 125 124 117 105 97 100 112 120 116 121 119 103 120 117 115 124 150 161 167 160 143 104 15 0 0 1 3 5 5 6 0 0 0 0 0 0 0 0 0 0 0 0 0 0 0 0 0 0 0 0 0 0 0 0 0 0 0 0 0 0 0 0 
0 0 0 0 0 0 0 0 0 0 0 0 3 8 48 116 133 146 151 143 115 134 121 111 116 115 117 110 118 101 112 132 129 114 91 85 83 91 110 116 106 92 83 77 70 71 68 70 75 78 79 78 78 78 78 78 77 76 73 71 74 74 73 76 104 123 131 129 119 111 101 95 102 120 119 118 116 95 114 115 116 121 146 161 167 164 146 119 24 0 0 1 3 4 5 6 0 0 0 0 0 0 0 0 0 0 0 0 0 0 0 0 0 0 0 0 0 0 0 0 0 0 0 0 0 0 0 0 
0 0 0 0 0 0 0 0 0 0 0 0 3 6 62 118 139 144 149 133 114 134 118 113 110 113 110 107 111 103 124 131 123 104 84 85 99 114 119 107 89 81 84 81 73 71 71 73 80 86 91 91 92 92 91 89 88 86 81 79 87 86 85 85 87 101 114 124 128 121 109 97 96 115 120 118 117 89 110 113 118 120 141 162 168 167 153 129 35 1 0 1 3 5 5 6 0 0 0 0 0 0 0 0 0 0 0 0 0 0 0 0 0 0 0 0 0 0 0 0 0 0 0 0 0 0 0 0 
0 0 0 0 0 0 0 0 0 0 0 0 3 8 71 120 144 144 152 129 118 132 124 113 112 112 106 100 105 114 133 130 113 89 80 97 120 125 120 106 90 84 84 84 78 73 75 78 85 91 96 97 96 94 89 89 86 88 85 85 89 86 84 74 71 97 107 118 139 141 125 101 94 112 123 125 113 91 102 112 120 126 142 166 167 167 159 137 47 2 0 0 3 4 5 6 0 0 0 0 0 0 0 0 0 0 0 0 0 0 0 0 0 0 0 0 0 0 0 0 0 0 0 0 0 0 0 0 
0 0 0 0 0 0 0 0 0 0 0 0 4 11 78 126 145 146 155 124 126 133 127 111 117 112 104 92 105 123 136 123 103 84 95 116 128 125 120 118 112 103 91 80 80 85 84 84 87 91 94 95 96 88 80 80 76 81 89 89 92 81 72 73 81 98 103 114 129 145 147 126 108 111 120 132 117 98 96 112 120 129 138 163 169 167 163 142 60 4 0 1 3 5 5 6 0 0 0 0 0 0 0 0 0 0 0 0 0 0 0 0 0 0 0 0 0 0 0 0 0 0 0 0 0 0 0 0 
0 0 0 0 0 0 0 0 0 0 0 0 4 13 82 131 144 148 158 129 129 136 131 118 128 116 102 87 102 128 136 118 101 105 121 123 115 96 84 81 85 90 94 82 72 81 90 86 88 91 93 92 97 79 70 70 67 74 85 88 88 74 78 85 80 76 70 76 93 122 145 148 139 124 117 129 128 107 96 117 122 134 135 160 169 169 166 144 75 6 0 1 3 5 5 6 0 0 0 0 0 0 0 0 0 0 0 0 0 0 0 0 0 0 0 0 0 0 0 0 0 0 0 0 0 0 0 0 
0 0 0 0 0 0 0 0 0 0 0 0 5 15 85 133 145 155 156 130 135 144 131 123 137 116 106 82 98 133 136 119 122 128 122 108 87 73 73 81 86 74 70 73 77 90 89 89 88 91 97 95 96 79 71 76 72 74 83 81 79 87 94 95 95 88 86 85 89 109 130 139 137 120 119 126 134 129 102 118 122 132 131 156 163 169 169 148 88 9 0 1 3 5 5 6 0 0 0 0 0 0 0 0 0 0 0 0 0 0 0 0 0 0 0 0 0 0 0 0 0 0 0 0 0 0 0 0 
0 0 0 0 0 0 0 0 0 0 0 0 6 16 89 137 149 158 156 128 132 141 130 128 143 120 106 83 95 134 136 141 141 123 102 98 98 91 91 99 98 89 78 71 75 86 94 90 90 100 106 103 97 92 89 91 85 86 78 74 91 89 90 86 82 78 75 73 78 95 112 118 112 106 111 136 138 137 116 118 121 125 128 149 153 168 170 151 100 12 0 1 3 4 5 6 0 0 0 0 0 0 0 0 0 0 0 0 0 0 0 0 0 0 0 0 0 0 0 0 0 0 0 0 0 0 0 0 
0 0 0 0 0 0 0 0 0 0 0 0 8 16 91 140 145 154 151 128 128 136 125 126 146 126 106 102 100 134 148 156 133 103 93 84 79 79 78 80 81 80 80 88 93 88 92 101 89 99 106 106 105 102 101 91 87 79 64 81 88 85 77 75 75 76 75 74 76 91 111 118 113 109 112 134 139 136 126 124 117 122 125 144 140 160 169 152 111 16 0 1 3 4 5 6 0 0 0 0 0 0 0 0 0 0 0 0 0 0 0 0 0 0 0 0 0 0 0 0 0 0 0 0 0 0 0 0 
0 0 0 0 0 0 0 0 0 0 0 0 8 16 91 140 151 158 143 123 127 134 122 120 137 137 111 110 122 136 153 143 109 91 74 70 71 72 73 74 72 67 68 77 94 99 98 106 101 101 109 111 114 107 109 98 92 79 69 89 80 71 75 78 85 87 84 81 82 93 108 117 120 126 127 125 134 128 134 126 115 118 118 136 130 156 167 152 117 23 0 1 3 5 5 6 0 0 0 0 0 0 0 0 0 0 0 0 0 0 0 0 0 0 0 0 0 0 0 0 0 0 0 0 0 0 0 0 
0 0 0 0 0 0 0 0 0 0 0 0 8 16 94 141 152 162 140 117 128 129 121 119 132 136 119 111 130 140 149 126 109 87 72 73 75 79 81 78 75 77 78 82 91 105 107 108 100 94 102 110 112 108 112 103 97 83 87 93 70 69 78 84 84 80 77 78 81 91 109 119 116 114 122 128 124 134 138 126 115 114 115 130 119 154 168 154 121 32 1 1 3 5 5 6 0 0 0 0 0 0 0 0 0 0 0 0 0 0 0 0 0 0 0 0 0 0 0 0 0 0 0 0 0 0 0 0 
0 0 0 0 0 0 0 0 0 0 0 0 8 16 95 140 153 162 131 117 128 128 116 119 124 128 113 113 138 140 139 122 121 93 80 80 80 78 76 74 75 84 90 92 95 97 105 108 100 92 101 103 109 117 114 105 101 100 95 84 67 71 77 77 78 76 75 77 82 89 108 115 107 104 120 130 123 136 132 120 115 104 109 124 108 143 159 156 125 43 1 1 4 5 6 7 0 0 0 0 0 0 0 0 0 0 0 0 0 0 0 0 0 0 0 0 0 0 0 0 0 0 0 0 0 0 0 0 
0 0 0 0 0 0 0 0 0 0 0 0 8 16 98 141 156 164 131 121 120 127 105 108 116 120 120 116 131 132 122 106 105 91 77 75 76 75 74 65 67 71 86 98 96 95 92 97 100 89 101 95 110 127 129 123 114 110 86 79 71 67 78 90 88 79 71 71 81 89 104 112 105 100 115 126 125 139 126 117 110 99 106 123 106 131 159 157 128 50 2 1 3 5 5 7 0 0 0 0 0 0 0 0 0 0 0 0 0 0 0 0 0 0 0 0 0 0 0 0 0 0 0 0 0 0 0 0 
0 0 0 0 0 0 0 0 0 0 0 0 7 17 97 143 158 161 128 118 111 123 96 93 113 114 116 123 118 122 117 102 97 86 74 77 75 75 70 63 64 74 84 90 90 94 92 85 90 82 96 95 107 103 106 123 112 107 94 80 69 76 90 90 80 73 72 71 77 89 104 110 102 95 106 123 130 137 118 120 118 95 100 121 102 119 149 154 131 56 2 1 4 5 5 7 0 0 0 0 0 0 0 0 0 0 0 0 0 0 0 0 0 0 0 0 0 0 0 0 0 0 0 0 0 0 0 0 
0 0 0 0 0 0 0 0 0 0 0 0 8 16 96 143 158 152 115 104 106 120 84 88 112 106 105 122 115 119 116 97 95 81 73 76 76 74 69 64 74 87 95 94 86 87 93 85 84 88 101 110 105 102 108 105 120 100 91 85 84 84 79 71 74 75 73 74 79 88 103 107 97 93 109 121 130 131 107 125 132 94 99 120 105 113 127 144 132 62 3 1 3 5 5 6 0 0 0 0 0 0 0 0 0 0 0 0 0 0 0 0 0 0 0 0 0 0 0 0 0 0 0 0 0 0 0 0 
0 0 0 0 0 0 0 0 0 0 0 0 8 17 94 142 159 144 113 98 99 120 83 86 110 100 101 121 108 112 113 95 98 84 76 77 77 78 71 71 78 97 106 104 104 97 90 85 77 81 92 111 90 85 98 96 114 116 92 89 81 74 72 74 83 79 79 76 79 86 102 103 91 87 111 123 136 131 113 127 135 97 96 113 108 110 128 147 134 62 2 1 4 4 5 6 0 0 0 0 0 0 0 0 0 0 0 0 0 0 0 0 0 0 0 0 0 0 0 0 0 0 0 0 0 0 0 0 
0 0 0 0 0 0 0 0 0 0 0 0 7 15 89 142 158 135 113 98 96 121 89 84 107 102 99 117 105 104 109 96 99 90 77 77 76 79 77 72 80 87 90 88 92 90 94 89 78 83 106 91 73 73 88 82 90 118 92 94 85 74 73 90 89 83 80 77 81 88 101 99 92 92 117 132 148 133 115 128 134 101 97 105 109 108 129 145 131 59 2 0 3 5 5 6 0 0 0 0 0 0 0 0 0 0 0 0 0 0 0 0 0 0 0 0 0 0 0 0 0 0 0 0 0 0 0 0 
0 0 0 0 0 0 0 0 0 0 0 0 6 14 79 138 156 129 111 102 94 117 93 78 100 103 98 115 106 99 109 94 90 100 80 74 77 80 80 73 79 95 90 84 86 85 90 80 74 83 112 78 74 75 92 83 87 115 105 89 82 74 77 93 88 81 80 79 82 86 95 95 91 104 125 139 153 122 116 130 131 105 97 101 105 104 127 145 128 54 1 1 3 4 5 6 0 0 0 0 0 0 0 0 0 0 0 0 0 0 0 0 0 0 0 0 0 0 0 0 0 0 0 0 0 0 0 0 
0 0 0 0 0 0 0 0 0 0 0 0 5 14 74 137 155 131 109 107 91 113 99 74 88 97 98 114 103 95 104 93 85 99 83 73 74 80 79 78 85 102 96 87 86 82 80 65 68 96 106 76 79 83 94 93 88 100 119 90 79 69 71 87 89 83 79 79 81 84 88 94 97 115 129 139 139 111 118 133 128 110 98 103 99 105 132 142 122 46 1 0 3 4 5 6 0 0 0 0 0 0 0 0 0 0 0 0 0 0 0 0 0 0 0 0 0 0 0 0 0 0 0 0 0 0 0 0 
0 0 0 0 0 0 0 0 0 0 0 0 3 12 68 134 153 140 106 109 92 110 104 79 82 91 99 117 106 99 105 98 80 90 85 73 73 78 80 86 99 109 97 86 83 83 69 65 75 110 90 84 80 87 96 89 90 90 117 102 80 78 72 87 89 86 81 82 81 82 85 95 102 121 127 133 121 99 111 129 123 110 101 100 94 105 134 137 115 39 1 0 3 4 5 6 0 0 0 0 0 0 0 0 0 0 0 0 0 0 0 0 0 0 0 0 0 0 0 0 0 0 0 0 0 0 0 0 
0 0 0 0 0 0 0 0 0 5 6 0 0 10 56 128 149 142 108 106 91 101 111 86 80 87 97 116 113 110 109 96 79 77 84 77 72 76 80 87 101 110 102 85 89 95 78 72 89 101 87 85 79 93 96 83 89 95 102 115 101 90 90 98 91 90 94 95 84 84 90 101 110 117 120 126 113 100 120 128 119 113 97 96 91 103 131 129 109 33 1 0 3 5 5 7 0 0 0 0 0 0 0 0 0 0 0 0 0 0 0 0 0 0 0 0 0 0 0 0 0 0 0 0 0 0 0 0 
0 0 0 0 0 0 0 0 1 7 8 4 1 7 47 119 142 138 114 104 94 95 113 97 80 82 96 117 119 119 119 104 81 70 75 86 75 75 78 90 109 107 110 89 90 93 93 79 101 94 95 90 80 94 93 93 97 93 99 129 123 106 110 105 92 85 95 102 98 92 90 99 114 104 110 119 106 106 124 117 119 118 88 94 91 106 131 123 98 27 0 0 2 4 5 6 0 0 0 0 0 0 0 0 0 0 0 0 0 0 0 0 0 0 0 0 0 0 0 0 0 0 0 0 0 0 0 0 
0 0 0 0 0 0 0 0 0 1 3 8 2 7 38 109 136 132 115 95 97 85 111 104 89 79 92 113 118 130 142 124 87 67 69 79 77 80 85 94 106 110 110 100 105 109 85 87 116 86 97 96 90 104 97 90 103 102 103 131 130 102 86 104 114 110 107 98 98 97 99 102 99 95 101 119 125 125 123 116 131 127 85 99 87 114 128 117 86 22 0 0 3 5 5 6 0 0 0 0 0 0 0 0 0 0 0 0 0 0 0 0 0 0 0 0 0 0 0 0 0 0 0 0 0 0 0 0 
0 0 0 0 0 0 0 0 0 0 5 12 7 6 31 98 130 134 119 98 104 90 101 108 99 82 89 110 115 137 148 140 114 85 76 74 80 85 97 108 109 113 107 112 102 98 84 103 125 96 102 101 95 111 104 98 97 90 92 120 144 104 101 106 108 115 132 132 128 123 128 116 113 110 111 121 113 139 139 125 132 129 96 103 99 128 135 115 79 14 0 0 4 14 7 6 0 0 0 0 0 0 0 0 0 0 0 0 0 0 0 0 0 0 0 0 0 0 0 0 0 0 0 0 0 0 0 0 
0 0 0 0 0 0 0 0 0 0 3 13 5 6 24 86 124 136 116 109 103 99 92 107 102 91 88 107 116 136 141 136 123 114 104 97 99 107 110 110 111 111 95 89 97 95 99 115 123 96 101 98 97 111 107 92 96 90 89 120 134 110 104 101 106 123 148 159 159 155 140 132 127 115 100 95 111 146 147 121 134 118 117 98 111 130 130 115 68 10 2 2 4 4 8 6 0 0 0 0 0 0 0 0 0 0 0 0 0 0 0 0 0 0 0 0 0 0 0 0 0 0 0 0 0 0 0 0 
0 0 0 0 0 0 0 0 0 0 1 8 3 8 16 77 119 137 126 113 93 102 88 100 119 112 94 105 116 130 127 130 113 113 118 119 107 107 109 101 102 94 82 91 84 91 95 113 127 105 95 94 97 110 99 89 89 86 90 113 120 110 98 94 109 136 146 145 145 142 144 128 113 111 109 98 130 157 149 124 134 121 138 108 142 123 98 114 57 8 5 2 7 5 5 6 0 0 0 0 0 0 0 0 0 0 0 0 0 0 0 0 0 0 0 0 0 0 0 0 0 0 0 0 0 0 0 0 
0 0 0 0 0 0 0 0 0 0 1 5 3 9 14 64 111 134 136 119 92 91 97 105 135 110 109 108 117 129 114 112 118 119 123 124 128 125 124 123 113 98 80 65 70 74 87 101 125 117 93 84 91 103 99 75 77 84 84 84 101 113 108 103 110 129 141 136 131 136 150 126 122 123 130 132 149 163 162 140 141 141 149 141 153 121 90 107 44 6 3 4 7 5 5 6 0 0 0 0 0 0 0 0 0 0 0 0 0 0 0 0 0 0 0 0 0 0 0 0 0 0 0 0 0 0 0 0 
0 0 0 0 0 0 0 0 0 0 0 5 5 10 12 49 106 131 145 134 104 92 109 118 130 115 120 121 125 128 112 130 152 161 148 118 111 112 109 100 96 88 75 63 61 60 70 92 108 88 87 91 88 113 87 74 79 84 94 90 107 112 111 105 109 125 157 153 136 153 159 146 139 119 119 123 142 171 184 154 162 174 158 167 158 129 118 107 30 6 3 1 5 4 5 7 0 0 0 0 0 0 0 0 0 0 0 0 0 0 0 0 0 0 0 0 0 0 0 0 0 0 0 0 0 0 0 0 
0 0 0 0 0 0 0 0 0 0 1 5 7 10 11 33 104 127 144 155 135 128 119 141 141 126 130 114 124 129 118 136 155 150 141 122 118 119 108 103 119 115 99 78 64 66 87 100 97 80 71 84 99 122 94 80 77 87 93 97 108 119 97 97 102 121 149 154 149 151 146 140 126 113 119 129 135 157 165 142 146 160 177 176 142 124 116 87 16 3 4 0 5 4 5 7 0 0 0 0 0 0 0 0 0 0 0 0 0 0 0 0 0 0 0 0 0 0 0 0 0 0 0 0 0 0 0 0 
0 0 0 0 0 0 0 0 0 0 0 4 5 10 12 14 59 116 140 148 158 171 166 161 164 143 142 136 124 137 144 146 143 146 149 137 124 119 119 117 116 116 119 101 79 76 88 99 92 76 73 80 90 108 111 87 75 83 86 97 105 104 111 110 102 102 115 144 157 148 129 130 118 109 125 146 133 149 149 133 142 149 164 169 135 105 107 95 19 7 6 0 2 6 6 8 0 0 0 0 0 0 0 0 0 0 0 0 0 0 0 0 0 0 0 0 0 0 0 0 0 0 0 0 0 0 0 0 
0 0 0 0 0 0 0 0 0 0 0 5 8 7 6 11 35 108 137 144 153 164 164 156 162 165 159 151 139 133 131 141 144 143 137 142 148 137 120 99 98 105 122 121 92 86 89 86 96 84 80 91 90 100 105 99 82 68 76 95 111 94 95 112 106 105 122 145 155 134 117 90 89 97 121 134 133 132 117 126 130 144 147 129 127 114 101 63 7 4 9 2 2 6 5 8 0 0 0 0 0 0 0 0 0 0 0 0 0 0 0 0 0 0 0 0 0 0 0 0 0 0 0 0 0 0 0 0 
0 0 0 0 0 0 0 0 0 0 0 4 4 5 2 7 20 88 134 148 143 146 149 141 156 155 143 132 147 155 121 130 152 152 144 139 147 130 114 101 100 103 115 122 105 89 90 79 88 104 119 114 99 115 129 117 78 71 82 95 102 100 105 113 92 100 125 141 145 130 103 82 100 113 125 139 152 142 122 121 124 145 129 118 141 126 105 32 5 3 4 6 3 5 6 8 0 0 0 0 0 0 0 0 0 0 0 0 0 0 0 0 0 0 0 0 0 0 0 0 0 0 0 0 0 0 0 0 
0 0 0 0 0 0 0 0 0 0 1 3 0 5 0 3 12 58 124 134 131 124 136 134 134 146 144 131 135 152 136 113 135 145 142 138 138 130 123 123 107 107 104 100 96 96 109 82 95 130 124 124 117 120 141 124 80 78 91 92 102 97 119 138 108 88 98 113 126 120 106 98 116 135 149 172 165 147 121 122 125 135 133 125 122 120 72 15 7 8 7 5 3 5 6 8 0 0 0 0 0 0 0 0 0 0 0 0 0 0 0 0 0 0 0 0 0 0 0 0 0 0 0 0 0 0 0 0 
0 0 0 0 0 0 0 0 0 0 1 4 3 6 0 2 12 31 106 135 125 129 139 134 134 131 135 134 135 137 160 130 108 117 150 145 128 124 110 106 86 91 101 104 105 109 119 108 116 120 119 110 115 115 130 127 104 88 108 120 107 101 112 132 131 105 95 94 86 86 98 126 140 131 158 173 164 158 133 133 140 137 124 114 92 100 36 8 3 7 8 0 1 6 6 8 0 0 0 0 0 0 0 0 0 0 0 0 0 0 0 0 0 0 0 0 0 0 0 0 0 0 0 0 0 0 0 0 
0 0 0 0 0 0 0 0 0 0 1 5 5 5 0 3 14 17 80 127 128 128 127 123 129 142 141 134 124 126 149 137 101 114 142 163 155 138 111 96 88 110 104 109 109 118 123 123 109 115 121 116 105 100 128 123 108 109 118 124 107 109 109 124 129 120 92 74 76 110 132 129 109 112 150 149 148 166 168 160 146 119 105 79 101 83 17 10 4 5 6 0 1 5 6 8 0 0 0 0 0 0 0 0 0 0 0 0 0 0 0 0 0 0 0 0 0 0 0 0 0 0 0 0 0 0 0 0 
0 0 0 0 0 0 0 0 0 0 1 4 8 5 0 3 13 12 45 113 126 117 116 136 128 147 144 127 117 126 141 121 109 115 103 108 118 134 121 98 102 112 100 102 99 116 113 126 133 131 136 126 125 129 130 124 125 125 118 128 123 132 134 130 128 108 83 73 109 142 109 89 101 112 135 141 153 165 178 170 140 118 92 73 114 54 13 12 5 6 4 0 1 5 6 8 0 0 0 0 0 0 0 0 0 0 0 0 0 0 0 0 0 0 0 0 0 0 0 0 0 0 0 0 0 0 0 0 
0 0 0 0 0 0 0 0 0 0 2 4 5 3 1 3 12 15 22 100 119 117 104 123 143 159 154 135 129 130 142 132 113 125 111 96 87 87 102 121 116 111 109 111 124 142 132 149 161 163 153 148 153 163 170 166 155 141 134 149 153 159 161 151 118 103 102 110 141 123 93 106 113 109 110 146 167 181 176 173 133 102 77 96 104 30 13 14 4 4 2 0 1 6 6 8 0 0 0 0 0 0 0 0 0 0 0 0 0 0 0 0 0 0 0 0 0 0 0 0 0 0 0 0 0 0 0 0 
0 0 0 0 0 0 0 0 0 0 1 4 3 1 2 4 10 13 11 68 111 121 92 99 154 175 149 146 141 139 137 142 131 129 122 111 99 86 86 107 147 139 125 121 134 150 165 167 159 149 132 135 138 151 165 169 162 143 130 143 153 171 171 162 142 139 140 141 148 112 105 107 102 90 97 143 165 186 168 161 117 97 86 107 81 19 11 9 3 3 1 0 1 6 7 8 0 0 0 0 0 0 0 0 0 0 0 0 0 0 0 0 0 0 0 0 0 0 0 0 0 0 0 0 0 0 0 0 
0 0 0 0 0 0 0 0 0 0 0 3 3 0 2 3 10 11 10 44 85 112 91 89 134 175 170 154 144 145 129 132 138 125 114 117 113 111 114 125 134 157 152 143 147 163 175 168 141 133 133 146 146 151 138 143 151 148 137 139 140 143 152 165 179 159 142 135 137 111 95 79 78 90 123 144 142 179 165 143 103 92 103 85 67 16 8 8 4 3 1 0 2 7 7 8 0 0 0 0 0 0 0 0 0 0 0 0 0 0 0 0 0 0 0 0 0 0 0 0 0 0 0 0 0 0 0 0 
0 0 0 0 0 0 0 0 0 0 0 6 12 8 2 4 9 9 11 33 74 109 118 84 124 158 178 176 151 139 127 118 130 115 106 112 115 115 121 130 136 154 151 137 133 157 175 151 113 117 144 154 153 156 142 132 144 152 141 146 145 128 131 159 190 166 146 132 116 90 76 84 111 124 141 142 147 161 149 136 93 83 98 90 63 13 6 6 6 3 0 0 3 6 8 9 0 0 0 0 0 0 0 0 0 0 0 0 0 0 0 0 0 0 0 0 0 0 0 0 0 0 0 0 0 0 0 0 
0 0 0 0 0 0 0 0 0 0 0 7 13 14 6 8 9 9 16 21 66 93 108 101 128 143 155 172 170 138 106 120 127 108 95 99 103 111 116 119 138 155 165 147 134 156 177 165 138 133 142 154 149 143 138 120 118 124 122 136 134 130 131 177 193 183 153 134 120 104 99 104 114 119 157 166 165 155 145 108 64 61 70 84 43 15 4 2 8 1 0 0 3 6 7 9 0 0 0 0 0 0 0 0 0 0 0 0 0 0 0 0 0 0 0 0 0 0 0 0 0 0 0 0 0 0 0 0 
0 0 0 0 0 0 0 0 0 0 0 3 11 12 11 11 11 13 16 15 34 78 102 101 108 135 147 166 161 149 132 128 132 114 97 90 83 85 88 98 124 149 168 162 147 140 158 164 156 137 143 161 150 148 128 113 112 115 114 122 117 124 145 156 189 176 149 126 115 101 99 104 117 142 158 155 167 144 142 95 50 30 56 51 19 14 8 2 5 2 5 6 5 6 5 8 0 0 0 0 0 0 0 0 0 0 0 0 0 0 0 0 0 0 0 0 0 0 0 0 0 0 0 0 0 0 0 0 
0 0 0 0 0 0 0 0 0 0 0 2 9 11 11 7 8 9 13 15 15 49 97 108 121 132 138 156 157 165 144 138 138 127 106 98 94 95 101 114 131 152 167 168 155 123 123 146 147 131 143 143 132 152 155 123 105 105 104 117 126 142 147 172 171 156 136 144 158 124 122 124 132 145 127 125 124 110 110 87 77 86 84 39 10 10 10 6 8 10 3 3 12 8 5 8 0 0 0 0 0 0 0 0 0 0 0 0 0 0 0 0 0 0 0 0 0 0 0 0 0 0 0 0 0 0 0 0 
0 0 0 0 0 0 0 0 0 0 0 0 8 10 7 6 6 6 9 18 19 27 74 100 105 120 129 140 145 163 152 138 125 136 115 108 121 130 119 125 122 157 171 166 183 155 123 151 164 158 155 159 176 185 180 163 147 136 126 127 146 164 176 179 156 172 153 176 178 159 139 132 134 135 110 84 86 93 95 64 85 92 57 17 6 2 2 4 4 6 8 7 8 7 4 8 0 0 0 0 0 0 0 0 0 0 0 0 0 0 0 0 0 0 0 0 0 0 0 0 0 0 0 0 0 0 0 0 
0 0 0 0 0 0 0 0 0 0 0 0 4 7 6 4 4 1 5 12 22 23 42 84 100 85 94 107 111 152 146 150 136 134 116 113 123 123 123 136 157 167 161 157 180 193 176 180 156 154 162 174 181 176 177 175 166 173 177 179 186 195 197 199 180 198 179 188 191 140 143 129 116 105 86 91 91 88 84 56 63 52 25 17 10 4 0 1 1 5 4 5 6 2 4 8 0 0 0 0 0 0 0 0 0 0 0 0 0 0 0 0 0 0 0 0 0 0 0 0 0 0 0 0 0 0 0 0 
0 0 0 0 0 0 0 0 0 0 0 0 0 3 5 3 1 0 0 6 18 26 26 45 61 64 59 53 56 86 102 113 137 133 116 117 120 106 119 153 180 190 166 174 197 207 189 155 155 154 157 170 173 169 169 165 154 147 157 163 159 149 182 195 177 158 165 144 147 127 116 108 91 79 78 97 110 106 80 55 37 35 37 26 20 0 0 0 1 0 0 2 6 2 4 8 0 0 0 0 0 0 0 0 0 0 0 0 0 0 0 0 0 0 0 0 0 0 0 0 0 0 0 0 0 0 0 0 
0 0 0 0 0 0 0 0 0 0 0 0 0 1 3 3 6 4 3 4 12 14 20 20 31 49 37 34 51 63 68 62 94 95 82 79 75 62 64 69 95 141 132 160 160 136 102 78 103 86 89 121 132 137 135 127 106 88 90 66 78 104 94 131 131 142 124 58 52 55 55 63 74 44 46 66 87 91 47 26 27 25 22 6 2 0 5 4 0 0 1 9 6 1 4 8 0 0 0 0 0 0 0 0 0 0 0 0 0 0 0 0 0 0 0 0 0 0 0 0 0 0 0 0 0 0 0 0 
0 0 0 0 0 0 0 0 0 0 0 0 0 0 2 2 2 2 4 1 6 9 12 17 21 21 23 27 53 61 64 49 76 72 57 68 77 65 66 59 64 88 84 82 100 106 83 54 65 64 52 64 79 80 78 73 63 47 50 58 80 84 76 77 83 98 111 107 105 124 57 57 80 56 50 66 92 92 44 27 26 26 18 6 2 0 0 1 1 2 2 7 0 1 3 8 0 0 0 0 0 0 0 0 0 0 0 0 0 0 0 0 0 0 0 0 0 0 0 0 0 0 0 0 0 0 0 0 
0 0 0 0 0 0 0 0 0 0 0 0 0 0 0 0 0 0 0 0 2 5 8 15 23 24 25 29 57 66 72 44 70 75 55 56 84 104 123 145 163 133 127 109 104 101 111 106 113 95 75 83 79 79 77 70 82 88 88 77 78 80 64 71 102 137 54 69 89 104 73 101 103 74 72 78 99 89 47 29 23 22 13 8 2 0 0 0 1 1 1 0 0 0 2 7 0 0 0 0 0 0 0 0 0 0 0 0 0 0 0 0 0 0 0 0 0 0 0 0 0 0 0 0 0 0 0 0 
0 0 0 0 0 0 0 0 0 0 0 0 0 0 0 0 0 0 0 0 0 1 3 8 20 26 24 25 51 63 73 32 58 77 66 59 71 101 127 139 171 157 149 129 149 159 176 152 133 118 115 118 112 113 112 119 115 112 107 130 125 126 130 113 130 130 101 109 102 145 90 83 72 47 56 65 78 83 59 46 32 27 16 11 0 0 0 0 0 0 0 0 0 0 1 4 0 0 0 0 0 0 0 0 0 0 0 0 0 0 0 0 0 0 0 0 0 0 0 0 0 0 0 0 0 0 0 0 
0 0 0 0 0 0 0 0 0 0 0 0 0 0 0 0 0 0 0 0 0 0 2 7 11 18 26 27 35 54 58 46 50 55 66 57 63 86 140 131 156 148 167 157 152 176 167 152 146 163 193 192 188 182 181 174 172 165 163 164 152 145 159 149 150 131 142 109 124 135 89 67 34 16 18 35 71 50 18 6 4 4 3 1 0 0 0 0 0 0 0 0 0 0 0 3 0 0 0 0 0 0 0 0 0 0 0 0 0 0 0 0 0 0 0 0 0 0 0 0 0 0 0 0 0 0 0 0 
0 0 0 0 0 0 0 0 0 0 0 0 0 0 0 0 0 0 0 0 0 0 0 3 5 15 33 34 37 60 76 66 70 74 72 57 45 53 97 119 121 142 135 121 116 149 145 176 160 147 134 133 133 126 128 141 145 143 134 128 115 122 128 141 106 129 140 148 166 143 103 44 20 27 22 52 74 39 15 8 9 7 8 1 0 0 0 0 0 0 0 1 3 7 9 12 0 0 0 0 0 0 0 0 0 0 0 0 0 0 0 0 0 0 0 0 0 0 0 0 0 0 0 0 0 0 0 0 
0 0 0 0 0 0 0 0 0 0 0 0 0 0 0 0 0 0 0 0 0 0 2 4 9 17 22 22 21 44 64 68 62 80 81 86 58 38 69 97 91 110 121 101 86 92 135 155 143 99 87 64 69 66 74 79 81 79 71 82 93 98 113 115 91 99 117 114 146 136 81 58 47 66 44 85 88 50 26 15 17 12 7 0 0 0 0 0 0 0 0 0 0 1 5 10 0 0 0 0 0 0 0 0 0 0 0 0 0 0 0 0 0 0 0 0 0 0 0 0 0 0 0 0 0 0 0 0 
0 0 0 0 0 0 0 0 0 0 0 0 0 0 0 0 0 0 0 0 0 0 1 6 10 13 19 22 19 38 54 78 63 81 82 66 62 76 91 98 93 115 115 100 87 98 133 139 131 109 98 87 74 77 82 70 76 94 104 110 114 111 106 104 86 97 108 100 113 102 93 83 78 104 77 89 94 50 25 18 18 12 6 0 0 0 0 0 0 0 0 0 0 1 5 10 0 0 0 0 0 0 0 0 0 0 0 0 0 0 0 0 0 0 0 0 0 0 0 0 0 0 0 0 0 0 0 0 
0 0 0 0 0 0 0 0 0 0 0 0 0 0 0 0 0 0 0 0 0 0 0 3 10 11 18 22 21 36 45 83 63 80 84 53 33 47 67 96 99 85 105 91 82 97 135 146 124 118 106 107 109 115 112 96 106 109 105 109 113 131 119 82 100 88 105 93 83 79 65 47 45 97 108 92 89 49 23 20 16 12 5 0 0 0 0 0 0 0 0 0 0 1 4 10 0 0 0 0 0 0 0 0 0 0 0 0 0 0 0 0 0 0 0 0 0 0 0 0 0 0 0 0 0 0 0 0 
0 0 0 0 0 0 0 0 0 0 0 0 0 0 0 0 0 0 0 0 0 0 0 1 8 9 15 20 21 33 37 80 66 76 80 48 36 48 54 62 69 79 112 84 94 101 119 129 126 144 129 124 122 120 118 111 123 113 99 104 116 148 120 84 82 81 95 99 81 75 68 49 28 66 125 97 77 45 23 19 14 11 4 0 0 0 0 0 0 0 0 0 0 0 4 9 0 0 0 0 0 0 0 0 0 0 0 0 0 0 0 0 0 0 0 0 0 0 0 0 0 0 0 0 0 0 0 0 
0 0 0 0 0 0 0 0 0 0 0 0 0 0 0 0 0 0 0 0 0 0 0 0 3 10 11 19 20 28 34 71 74 76 72 46 48 57 50 47 55 98 102 67 93 89 89 101 105 141 142 108 110 122 121 118 130 115 110 101 116 120 99 91 85 90 86 111 99 71 71 68 35 49 122 100 75 42 27 17 12 9 3 0 0 0 0 0 0 0 0 0 0 0 3 9 0 0 0 0 0 0 0 0 0 0 0 0 0 0 0 0 0 0 0 0 0 0 0 0 0 0 0 0 0 0 0 0 
0 0 0 0 0 0 0 0 0 0 0 0 0 0 0 0 0 0 0 0 0 0 0 0 1 6 9 13 18 26 42 67 68 70 69 51 57 60 45 46 71 98 82 78 94 82 77 92 90 102 121 104 107 118 110 100 109 103 108 92 104 95 103 114 97 101 84 93 103 71 55 76 59 48 111 99 77 40 22 16 11 8 2 0 0 0 0 0 0 0 0 0 0 0 3 9 0 0 0 0 0 0 0 0 0 0 0 0 0 0 0 0 0 0 0 0 0 0 0 0 0 0 0 0 0 0 0 0 
0 0 0 0 0 0 0 0 0 0 0 0 0 0 0 0 0 0 0 0 0 0 0 0 0 4 6 12 13 20 31 50 54 59 71 70 67 61 43 48 67 89 78 83 96 84 88 103 91 81 99 108 106 106 102 98 95 99 100 97 91 86 95 109 97 101 87 78 88 73 49 67 79 58 97 80 45 23 19 16 14 7 2 0 0 0 0 0 0 0 0 0 0 0 4 9 0 0 0 0 0 0 0 0 0 0 0 0 0 0 0 0 0 0 0 0 0 0 0 0 0 0 0 0 0 0 0 0 
0 0 0 0 0 0 0 0 0 0 0 0 0 0 0 0 0 0 0 0 0 0 0 0 0 2 5 7 14 18 20 33 44 35 70 80 60 59 42 44 56 86 84 78 84 80 89 101 80 74 111 118 115 110 108 110 110 108 112 104 91 83 84 101 94 86 83 82 87 73 52 62 72 73 101 34 15 19 19 18 14 7 1 0 0 0 0 0 0 0 0 0 0 0 3 9 0 0 0 0 0 0 0 0 0 0 0 0 0 0 0 0 0 0 0 0 0 0 0 0 0 0 0 0 0 0 0 0 
0 0 0 0 0 0 0 0 0 0 0 0 0 0 0 0 0 0 0 0 0 0 0 0 0 0 6 3 11 15 18 18 18 16 27 66 54 66 61 68 57 79 81 70 67 72 86 98 73 78 107 130 130 121 109 99 105 108 112 98 76 61 82 108 90 70 63 79 88 79 80 78 72 72 78 17 13 18 19 18 13 6 1 0 0 0 0 0 0 0 0 0 0 0 3 9 0 0 0 0 0 0 0 0 0 0 0 0 0 0 0 0 0 0 0 0 0 0 0 0 0 0 0 0 0 0 0 0 
0 0 0 0 0 0 0 0 0 0 0 0 0 0 0 0 0 0 0 0 0 0 0 0 0 0 2 5 8 13 18 18 19 15 11 42 70 89 96 70 53 82 82 64 63 75 87 88 80 89 87 119 137 128 112 104 118 126 118 93 62 63 87 103 93 70 66 86 94 79 88 103 90 70 38 14 12 17 19 18 12 6 1 0 0 0 0 0 0 0 0 0 0 0 2 8 0 0 0 0 0 0 0 0 0 0 0 0 0 0 0 0 0 0 0 0 0 0 0 0 0 0 0 0 0 0 0 0 
0 0 0 0 0 0 0 0 0 0 0 0 0 0 0 0 0 0 0 0 0 0 0 0 0 0 0 2 6 11 16 19 18 16 11 12 34 70 82 55 55 91 93 62 60 79 98 86 67 76 78 109 133 133 123 123 131 128 134 109 75 91 81 94 113 84 60 87 107 90 66 87 69 36 24 14 13 17 19 14 11 6 2 0 0 0 0 0 0 0 0 0 0 0 3 8 0 0 0 0 0 0 0 0 0 0 0 0 0 0 0 0 0 0 0 0 0 0 0 0 0 0 0 0 0 0 0 0 
0 0 0 0 0 0 0 0 0 0 0 0 0 0 0 0 0 0 0 0 0 0 0 0 0 0 0 1 5 8 12 17 17 17 10 14 14 24 50 56 64 106 104 63 66 101 117 84 64 70 79 104 136 125 109 112 118 121 130 119 95 88 71 90 120 104 68 90 119 97 67 56 30 26 22 16 15 17 16 12 10 6 2 0 0 0 0 0 0 0 0 0 0 0 2 8 0 0 0 0 0 0 0 0 0 0 0 0 0 0 0 0 0 0 0 0 0 0 0 0 0 0 0 0 0 0 0 0 
0 0 0 0 0 0 0 0 0 0 0 0 0 0 0 0 0 0 0 0 0 0 0 0 0 0 0 0 4 7 9 17 16 17 12 10 15 20 28 51 66 95 108 84 80 119 122 85 73 83 99 119 130 121 112 111 119 124 133 132 117 95 94 98 123 116 81 90 121 88 58 32 27 25 22 17 18 16 13 11 10 6 1 0 0 0 0 0 0 0 0 0 0 0 1 8 0 0 0 0 0 0 0 0 0 0 0 0 0 0 0 0 0 0 0 0 0 0 0 0 0 0 0 0 0 0 0 0 
0 0 0 0 0 0 0 0 0 0 0 0 0 0 0 0 0 0 0 0 0 0 0 0 0 0 0 0 0 7 7 14 17 16 14 9 16 20 25 26 34 50 91 97 90 115 115 95 92 99 128 138 131 114 101 98 103 115 133 137 136 102 87 103 118 114 94 103 86 45 33 27 28 24 21 17 16 14 12 10 9 6 1 0 0 0 0 0 0 0 0 0 0 0 1 8 0 0 0 0 0 0 0 0 0 0 0 0 0 0 0 0 0 0 0 0 0 0 0 0 0 0 0 0 0 0 0 0 
0 0 0 0 0 0 0 0 0 0 0 0 0 0 0 0 0 0 0 0 0 0 0 0 0 0 0 0 0 7 6 13 15 17 14 12 12 20 24 28 30 30 46 75 89 96 95 89 89 103 133 140 120 100 90 91 94 105 126 125 136 116 90 93 105 100 96 77 49 40 30 25 29 22 19 16 15 14 14 11 9 5 1 0 0 0 0 0 0 0 0 0 0 0 2 8 0 0 0 0 0 0 0 0 0 0 0 0 0 0 0 0 0 0 0 0 0 0 0 0 0 0 0 0 0 0 0 0 
0 0 0 0 0 0 0 0 0 0 0 0 0 0 0 0 0 0 0 0 0 0 0 0 0 0 0 0 0 4 6 9 15 17 15 13 11 18 25 29 29 30 35 37 47 62 67 75 86 92 124 132 119 104 97 101 106 110 127 134 132 106 84 82 85 73 61 51 43 34 28 28 28 21 17 15 16 13 15 12 9 5 1 0 0 0 0 0 0 0 0 0 0 0 2 8 0 0 0 0 0 0 0 0 0 0 0 0 0 0 0 0 0 0 0 0 0 0 0 0 0 0 0 0 0 0 0 0 
