P2
128 99
254
0 0 0 0 0 0 0 0 0 0 0 0 0 0 0 0 0 0 0 0 0 0 0 0 0 0 0 0 0 0 0 0 0 0 0 0 0 0 0 0 0 0 0 0 0 0 0 0 0 0 0 0 0 0 0 0 0 0 0 0 0 0 0 0 0 0 0 0 0 0 0 0 0 0 0 0 0 0 0 0 0 0 0 0 0 0 0 0 0 0 0 0 0 0 0 0 0 0 0 0 0 0 0 0 0 0 0 0 0 0 0 0 0 0 0 0 0 0 0 0 0 0 0 0 0 0 0 0 
0 0 0 0 0 0 0 0 0 0 0 0 0 0 0 0 0 0 0 0 0 0 0 0 0 0 0 0 0 0 0 0 0 0 0 0 0 0 0 0 0 0 0 0 0 0 0 0 0 0 0 0 0 0 0 0 0 0 0 0 0 0 0 0 0 0 0 0 0 0 0 0 0 0 0 0 0 0 0 0 0 0 0 0 0 0 0 0 0 0 0 0 0 0 0 0 0 0 0 0 0 0 0 0 0 0 0 0 0 0 0 0 0 0 0 0 0 0 0 0 0 0 0 0 0 0 0 0 
0 0 0 0 0 0 0 0 0 0 0 0 0 0 0 0 0 0 0 0 0 0 0 0 0 0 0 0 0 0 0 0 0 0 0 0 0 0 0 0 0 0 0 0 0 0 0 0 0 0 1 2 2 2 0 0 0 0 0 0 0 0 0 0 0 0 0 0 0 0 0 0 0 0 0 0 0 0 0 0 0 0 0 0 0 0 0 0 0 0 0 0 0 0 0 0 0 0 0 0 0 0 0 0 0 0 0 0 0 0 0 0 0 0 0 0 0 0 0 0 0 0 0 0 0 0 0 0 
0 0 0 0 0 0 0 0 0 0 0 0 0 0 0 0 0 0 0 0 0 0 0 0 0 0 0 0 0 0 0 0 0 0 0 0 0 0 0 0 0 0 0 0 4 7 11 19 23 32 36 38 39 38 35 26 19 20 15 8 3 0 0 0 0 0 0 0 0 0 0 0 0 0 0 0 0 0 0 0 0 0 0 0 0 0 0 0 0 0 0 0 0 0 0 0 0 0 0 0 0 0 0 0 0 0 0 0 0 0 0 0 0 0 0 0 0 0 0 0 0 0 0 0 0 0 0 0 
0 0 0 0 0 0 0 0 0 0 0 0 0 0 0 0 0 0 0 0 0 0 0 0 0 0 0 0 0 0 0 0 0 0 0 0 0 0 0 0 6 10 11 23 32 37 46 62 82 104 123 138 147 154 155 148 128 104 78 51 26 24 17 6 0 0 0 0 0 0 0 0 0 0 0 0 0 0 0 0 0 0 0 0 0 0 0 0 0 0 0 0 0 0 0 0 0 0 0 0 0 0 0 0 0 0 0 0 0 0 0 0 0 0 0 0 0 0 0 0 0 0 0 0 0 0 0 0 
0 0 0 0 0 0 0 0 0 0 0 0 0 0 0 0 0 0 0 0 0 0 0 0 0 0 0 0 0 0 0 0 0 0 0 0 0 1 10 10 19 31 40 58 89 124 154 184 208 215 203 187 177 171 171 176 183 193 202 203 172 120 73 37 22 15 8 0 0 0 0 0 0 0 0 0 0 0 0 0 0 0 0 0 0 0 0 0 0 0 0 0 0 0 0 0 0 0 0 0 0 0 0 0 0 0 0 0 0 0 0 0 0 0 0 0 0 0 0 0 0 0 0 0 0 0 0 0 
0 0 0 0 0 0 0 0 0 0 0 0 0 0 0 0 0 0 0 0 0 0 0 0 0 0 0 0 0 0 0 0 0 0 0 0 10 14 22 33 52 87 120 156 196 216 195 164 144 130 128 131 132 131 133 130 128 125 130 143 157 185 210 181 121 65 36 19 8 0 0 0 0 0 0 0 0 0 0 0 0 0 0 0 0 0 0 0 0 0 0 0 0 0 0 0 0 0 0 0 0 0 0 0 0 0 0 0 0 0 0 0 0 0 0 0 0 0 0 0 0 0 0 0 0 0 0 0 
0 0 0 0 0 0 0 0 0 0 0 0 0 0 0 0 0 0 0 0 0 0 0 0 0 0 0 0 0 0 0 0 0 0 9 18 21 34 59 103 137 175 209 199 161 138 137 138 130 132 140 150 152 142 139 147 153 146 145 136 128 126 136 155 190 207 161 88 39 25 9 0 0 0 0 0 0 0 0 0 0 0 0 0 0 0 0 0 0 0 0 0 0 0 0 0 0 0 0 0 0 0 0 0 0 0 0 0 0 0 0 0 0 0 0 0 0 0 0 0 0 0 0 0 0 0 0 0 
0 0 0 0 0 0 0 0 0 0 0 0 0 0 0 0 0 0 0 0 0 0 0 0 0 0 0 0 0 0 0 0 4 22 19 28 55 106 139 177 208 179 145 138 148 144 136 143 149 151 154 152 152 149 148 153 165 180 176 169 157 145 133 122 123 141 177 212 172 88 34 20 7 0 0 0 0 0 0 0 0 0 0 0 0 0 0 0 0 0 0 0 0 0 0 0 0 0 0 0 0 0 0 0 0 0 0 0 0 0 0 0 0 0 0 0 0 0 0 0 0 0 0 0 0 0 0 0 
0 0 0 0 0 0 0 0 0 0 0 0 0 0 0 0 0 0 0 0 0 0 0 0 0 0 0 0 0 0 1 23 19 21 41 95 137 169 200 171 140 137 148 146 136 142 155 146 134 130 132 134 139 131 125 123 126 131 150 171 186 185 176 158 135 123 120 135 175 207 154 62 30 13 1 0 0 0 0 0 0 0 0 0 0 0 0 0 0 0 0 0 0 0 0 0 0 0 0 0 0 0 0 0 0 0 0 0 0 0 0 0 0 0 0 0 0 0 0 0 0 0 0 0 0 0 0 0 
0 0 0 0 0 0 0 0 0 0 0 0 0 0 0 0 0 0 0 0 0 0 0 0 0 0 0 0 0 10 23 14 35 81 127 156 199 180 143 137 148 147 145 156 153 138 115 103 114 134 137 136 133 136 135 137 132 123 120 124 146 170 182 190 186 169 144 128 119 137 185 195 110 37 19 4 0 0 0 0 0 0 0 0 0 0 0 0 0 0 0 0 0 0 0 0 0 0 0 0 0 0 0 0 0 0 0 0 0 0 0 0 0 0 0 0 0 0 0 0 0 0 0 0 0 0 0 0 
0 0 0 0 0 0 0 0 0 0 0 0 0 0 0 0 0 0 0 0 0 0 0 0 0 0 0 0 19 17 21 59 113 146 186 193 150 139 148 155 155 162 153 138 122 97 90 93 101 124 112 105 105 106 120 113 105 96 90 93 108 130 152 169 177 184 189 177 151 129 123 148 199 158 58 25 11 0 0 0 0 0 0 0 0 0 0 0 0 0 0 0 0 0 0 0 0 0 0 0 0 0 0 0 0 0 0 0 0 0 0 0 0 0 0 0 0 0 0 0 0 0 0 0 0 0 0 0 
0 0 0 0 0 0 0 0 0 0 0 0 0 0 0 0 0 0 0 0 0 0 0 0 0 0 7 22 16 22 77 130 159 201 167 140 143 163 165 162 158 140 121 109 91 91 93 95 97 87 57 62 61 50 80 103 103 105 102 97 98 113 137 146 157 169 173 183 190 179 149 124 129 187 179 74 25 12 0 0 0 0 0 0 0 0 0 0 0 0 0 0 0 0 0 0 0 0 0 0 0 0 0 0 0 0 0 0 0 0 0 0 0 0 0 0 0 0 0 0 0 0 0 0 0 0 0 0 
0 0 0 0 0 0 0 0 0 0 0 0 0 0 0 0 0 0 0 0 0 0 0 0 0 14 19 15 32 99 135 171 197 152 140 157 177 168 157 151 139 118 99 92 95 95 96 98 77 57 51 54 54 53 56 86 102 100 101 101 101 103 120 135 144 152 158 171 178 189 188 162 128 122 178 186 88 25 12 0 0 0 0 0 0 0 0 0 0 0 0 0 0 0 0 0 0 0 0 0 0 0 0 0 0 0 0 0 0 0 0 0 0 0 0 0 0 0 0 0 0 0 0 0 0 0 0 0 
0 0 0 0 0 0 0 0 0 0 0 0 0 0 0 0 0 0 0 0 0 0 0 0 19 18 12 43 112 134 182 189 145 148 174 184 161 149 143 129 111 96 98 95 91 94 78 54 48 48 49 52 54 52 52 55 74 95 95 99 102 99 103 119 132 133 140 147 154 171 180 188 173 139 123 171 188 97 26 13 0 0 0 0 0 0 0 0 0 0 0 0 0 0 0 0 0 0 0 0 0 0 0 0 0 0 0 0 0 0 0 0 0 0 0 0 0 0 0 0 0 0 0 0 0 0 0 0 
0 0 0 0 0 0 0 0 0 0 0 0 0 0 0 0 0 0 0 0 0 0 8 20 17 13 55 117 134 193 179 141 152 172 170 153 149 142 123 104 93 89 91 92 95 81 57 56 58 57 62 66 68 76 84 90 93 95 100 99 92 87 80 90 106 118 129 131 140 147 156 174 186 178 147 122 170 185 105 34 12 0 0 0 0 0 0 0 0 0 0 0 0 0 0 0 0 0 0 0 0 0 0 0 0 0 0 0 0 0 0 0 0 0 0 0 0 0 0 0 0 0 0 0 0 0 0 0 
0 0 0 0 0 0 0 0 0 0 0 0 0 0 0 0 0 0 0 0 0 9 17 14 18 68 120 132 199 172 140 154 161 157 146 146 122 98 86 85 89 102 128 141 128 117 118 122 131 138 146 154 168 184 198 204 204 193 177 159 138 116 92 67 72 90 101 119 127 130 139 144 159 178 177 148 122 170 170 108 37 10 0 0 0 0 0 0 0 0 0 0 0 0 0 0 0 0 0 0 0 0 0 0 0 0 0 0 0 0 0 0 0 0 0 0 0 0 0 0 0 0 0 0 0 0 0 0 
0 0 0 0 0 0 0 0 0 0 0 0 0 0 0 0 0 0 0 0 8 12 13 23 80 123 135 194 167 141 153 154 157 149 134 103 84 82 96 115 132 155 177 184 197 210 216 220 221 221 222 220 223 227 226 225 224 223 223 219 212 202 182 151 106 68 72 85 105 121 122 123 133 155 170 166 148 120 168 171 110 35 7 0 0 0 0 0 0 0 0 0 0 0 0 0 0 0 0 0 0 0 0 0 0 0 0 0 0 0 0 0 0 0 0 0 0 0 0 0 0 0 0 0 0 0 0 0 
0 0 0 0 0 0 0 0 0 0 0 0 0 0 0 0 0 0 0 8 11 10 23 87 126 134 190 175 135 141 147 151 139 115 90 82 96 116 113 128 166 195 212 217 217 213 209 206 204 202 203 199 193 194 189 190 190 192 194 196 200 207 208 213 199 154 96 75 87 99 119 123 119 122 146 166 165 146 129 185 160 99 26 2 0 0 0 0 0 0 0 0 0 0 0 0 0 0 0 0 0 0 0 0 0 0 0 0 0 0 0 0 0 0 0 0 0 0 0 0 0 0 0 0 0 0 0 0 
0 0 0 0 0 0 0 0 0 0 0 0 0 0 0 0 0 0 7 11 11 24 79 125 133 176 187 136 135 141 147 130 109 94 96 111 113 113 135 180 212 212 206 199 195 190 191 192 191 188 187 188 183 190 190 185 186 186 183 182 179 184 188 203 212 206 178 119 84 83 86 110 119 118 116 148 171 164 148 151 192 140 82 14 0 0 0 0 0 0 0 0 0 0 0 0 0 0 0 0 0 0 0 0 0 0 0 0 0 0 0 0 0 0 0 0 0 0 0 0 0 0 0 0 0 0 0 0 
0 0 0 0 0 0 0 0 0 0 0 0 0 0 0 0 0 3 13 9 22 65 111 133 166 199 146 136 141 143 127 113 99 105 119 115 106 132 181 207 200 195 194 191 192 191 190 192 204 210 202 194 198 199 197 193 197 194 187 186 185 186 182 184 193 205 203 173 117 72 74 80 98 120 118 121 148 172 158 141 177 174 129 61 7 0 0 0 0 0 0 0 0 0 0 0 0 0 0 0 0 0 0 0 0 0 0 0 0 0 0 0 0 0 0 0 0 0 0 0 0 0 0 0 0 0 0 0 
0 0 0 0 0 0 0 0 0 0 0 0 0 0 0 0 0 12 6 19 57 97 134 149 196 164 135 137 143 124 117 100 118 134 113 102 129 178 206 203 195 200 200 198 194 191 187 191 209 206 204 203 207 211 198 194 194 189 190 198 201 194 188 181 175 185 203 200 162 113 69 65 75 93 118 123 123 150 170 151 151 196 142 121 42 2 0 0 0 0 0 0 0 0 0 0 0 0 0 0 0 0 0 0 0 0 0 0 0 0 0 0 0 0 0 0 0 0 0 0 0 0 0 0 0 0 0 0 
0 0 0 0 0 0 0 0 0 0 0 0 0 0 0 0 7 6 12 53 91 121 145 178 183 139 127 137 123 116 106 124 126 107 95 114 166 203 202 204 205 197 201 200 200 198 196 194 175 155 178 177 178 199 184 173 171 179 186 201 201 189 185 178 176 175 186 206 196 144 106 65 56 76 92 116 121 123 155 155 142 180 171 128 104 25 1 0 0 0 0 0 0 0 0 0 0 0 0 0 0 0 0 0 0 0 0 0 0 0 0 0 0 0 0 0 0 0 0 0 0 0 0 0 0 0 0 0 
0 0 0 0 0 0 0 0 0 0 0 0 0 0 0 4 11 6 55 92 110 136 157 197 150 109 125 121 114 113 127 116 98 94 114 153 198 204 201 200 177 154 147 145 147 146 145 148 132 139 184 149 123 152 123 112 118 136 146 158 165 179 184 173 171 184 184 192 209 179 130 101 59 57 76 95 122 117 131 149 145 161 189 130 122 84 8 0 0 0 0 0 0 0 0 0 0 0 0 0 0 0 0 0 0 0 0 0 0 0 0 0 0 0 0 0 0 0 0 0 0 0 0 0 0 0 0 0 
0 0 0 0 0 0 0 0 0 0 0 0 0 0 0 13 7 38 101 90 130 142 180 184 112 107 122 110 109 133 121 99 91 108 137 185 204 201 194 180 147 126 121 121 116 111 113 122 106 100 154 130 79 97 73 63 62 65 75 92 107 131 159 177 189 192 196 193 201 202 158 119 92 53 57 83 101 116 122 141 132 143 190 148 121 108 45 1 0 0 0 0 0 0 0 0 0 0 0 0 0 0 0 0 0 0 0 0 0 0 0 0 0 0 0 0 0 0 0 0 0 0 0 0 0 0 0 0 
0 0 0 0 0 0 0 0 0 0 0 0 0 0 7 8 14 107 83 117 141 148 193 121 92 115 112 98 123 130 107 91 108 129 172 198 196 197 189 156 125 103 92 86 80 79 83 88 71 63 111 103 60 62 56 56 57 57 58 61 72 95 120 140 154 172 194 197 195 209 194 145 110 80 51 64 86 100 117 130 118 115 182 183 121 112 85 6 0 0 0 0 0 0 0 0 0 0 0 0 0 0 0 0 0 0 0 0 0 0 0 0 0 0 0 0 0 0 0 0 0 0 0 0 0 0 0 0 
0 0 0 0 0 0 0 0 0 0 0 0 0 0 10 3 72 98 90 137 144 179 153 96 93 117 91 102 136 107 96 108 121 160 199 189 192 196 165 115 89 73 66 60 60 57 61 61 58 58 65 63 53 53 55 55 55 55 54 56 56 63 76 105 131 150 174 191 193 200 213 182 128 106 71 57 81 86 101 125 105 99 148 205 130 114 103 29 1 0 0 0 0 0 0 0 0 0 0 0 0 0 0 0 0 0 0 0 0 0 0 0 0 0 0 0 0 0 0 0 0 0 0 0 0 0 0 0 
0 0 0 0 0 0 0 0 0 0 0 0 0 3 8 20 118 64 116 144 149 178 125 96 96 99 92 128 123 96 105 118 151 200 206 177 192 174 110 74 61 58 57 55 54 56 53 54 52 54 55 54 52 51 52 53 52 53 54 55 55 58 59 69 100 144 171 188 193 201 213 211 168 121 95 60 74 83 85 109 106 99 133 202 154 114 98 54 2 0 0 0 0 0 0 0 0 0 0 0 0 0 0 0 0 0 0 0 0 0 0 0 0 0 0 0 0 0 0 0 0 0 0 0 0 0 0 0 
0 0 0 0 0 0 0 0 0 0 0 0 0 5 3 63 104 77 139 144 158 157 106 88 92 87 107 139 109 101 116 142 194 211 184 182 175 122 78 60 55 55 55 54 53 51 51 53 54 57 53 54 53 55 54 56 53 53 52 50 50 53 57 59 73 117 160 185 193 198 204 215 205 157 114 81 78 85 87 90 106 100 132 189 172 119 99 70 3 0 0 0 0 0 0 0 0 0 0 0 0 0 0 0 0 0 0 0 0 0 0 0 0 0 0 0 0 0 0 0 0 0 0 0 0 0 0 0 
0 0 0 0 0 0 0 0 0 0 0 0 0 7 5 102 79 107 146 140 145 141 102 74 85 95 130 131 101 110 136 187 213 187 162 166 131 91 62 56 52 54 52 52 51 51 51 53 56 59 60 58 54 54 57 55 58 57 54 52 51 50 52 52 60 81 130 177 195 200 201 211 222 196 146 100 87 79 85 85 93 93 120 177 181 125 111 86 7 0 0 0 0 0 0 0 0 0 0 0 0 0 0 0 0 0 0 0 0 0 0 0 0 0 0 0 0 0 0 0 0 0 0 0 0 0 0 0 
0 0 0 0 0 0 0 0 0 0 0 0 0 7 22 114 73 128 140 125 126 136 98 56 89 113 134 117 109 116 175 217 208 173 165 135 97 69 56 53 52 51 50 48 48 53 54 58 56 61 60 59 57 54 55 56 58 57 56 56 56 54 51 49 52 58 91 152 191 200 199 196 211 220 187 130 95 68 79 85 95 89 117 171 183 129 113 95 18 0 0 0 0 0 0 0 0 0 0 0 0 0 0 0 0 0 0 0 0 0 0 0 0 0 0 0 0 0 0 0 0 0 0 0 0 0 0 0 
0 0 0 0 0 0 0 0 0 0 0 0 4 3 52 101 88 143 128 110 124 129 77 55 102 133 128 116 116 135 212 215 197 178 149 111 67 57 56 52 51 50 51 52 51 52 55 57 55 59 59 58 57 54 54 55 57 57 56 56 57 56 56 50 50 51 62 123 183 191 191 186 196 220 222 170 106 76 73 82 92 94 117 173 177 138 118 97 26 0 0 0 0 0 0 0 0 0 0 0 0 0 0 0 0 0 0 0 0 0 0 0 0 0 0 0 0 0 0 0 0 0 0 0 0 0 0 0 
0 0 0 0 0 0 0 0 0 0 0 0 6 4 80 89 102 145 119 108 127 121 67 65 115 134 123 121 112 149 219 206 185 157 127 112 62 53 52 47 50 50 54 55 55 53 51 54 57 58 57 55 56 54 55 55 55 57 56 59 56 58 59 55 52 51 64 113 162 173 177 178 177 198 227 204 124 83 70 81 88 103 115 165 179 145 119 100 33 0 0 0 0 0 0 0 0 0 0 0 0 0 0 0 0 0 0 0 0 0 0 0 0 0 0 0 0 0 0 0 0 0 0 0 0 0 0 0 
0 0 0 0 0 0 0 0 0 0 0 0 6 6 93 82 115 139 116 108 134 117 70 76 129 128 126 126 123 153 211 193 163 132 122 119 63 51 51 50 50 55 55 55 57 57 55 56 54 55 58 56 56 55 54 53 58 61 60 59 60 64 63 64 75 79 79 85 117 156 165 168 168 179 211 222 145 85 75 80 85 109 116 157 185 151 115 105 39 1 0 0 0 0 0 0 0 0 0 0 0 0 0 0 0 0 0 0 0 0 0 0 0 0 0 0 0 0 0 0 0 0 0 0 0 0 0 0 
0 0 0 0 0 0 0 0 0 0 0 0 4 8 100 81 128 126 115 113 136 104 79 85 134 132 129 121 127 159 208 182 142 115 112 123 74 53 52 50 52 55 55 58 57 58 58 55 56 56 55 55 56 56 53 55 56 59 60 60 67 81 88 106 121 85 71 74 88 127 159 169 167 170 191 221 169 98 74 83 83 111 114 150 189 158 119 116 46 3 0 0 0 0 0 0 0 0 0 0 0 0 0 0 0 0 0 0 0 0 0 0 0 0 0 0 0 0 0 0 0 0 0 0 0 0 0 0 
0 0 0 0 0 0 0 0 0 0 0 0 5 9 102 82 139 121 113 119 143 92 75 95 139 142 126 119 134 159 202 164 126 105 93 92 79 62 60 57 51 54 57 65 69 66 58 57 55 58 58 56 59 57 54 56 57 60 60 58 65 89 113 112 78 67 77 74 70 94 138 163 167 164 174 213 192 120 79 82 79 113 112 147 195 163 123 124 54 3 0 0 0 0 0 0 0 0 0 0 0 0 0 0 0 0 0 0 0 0 0 0 0 0 0 0 0 0 0 0 0 0 0 0 0 0 0 0 
0 0 0 0 0 0 0 0 0 0 0 0 6 15 102 88 147 129 117 132 147 89 81 108 152 152 130 125 132 150 194 148 117 91 74 69 75 81 98 109 105 93 89 98 97 89 60 55 56 58 58 55 63 55 52 56 58 58 59 58 75 113 112 79 71 74 68 54 52 81 127 141 151 173 166 192 216 143 89 85 71 115 110 136 193 172 127 128 72 6 0 0 0 0 0 0 0 0 0 0 0 0 0 0 0 0 0 0 0 0 0 0 0 0 0 0 0 0 0 0 0 0 0 0 0 0 0 0 
0 0 0 0 0 0 0 0 0 0 0 0 6 19 97 95 148 133 119 135 153 97 92 123 156 156 134 125 129 145 187 132 92 73 58 56 55 52 53 57 57 67 86 111 110 87 64 58 56 58 57 59 78 65 59 61 60 59 59 71 108 107 86 58 51 48 48 51 52 74 120 141 138 154 191 182 223 178 110 82 58 97 108 145 196 175 131 125 88 8 0 0 0 0 0 0 0 0 0 0 0 0 0 0 0 0 0 0 0 0 0 0 0 0 0 0 0 0 0 0 0 0 0 0 0 0 0 0 
0 0 0 0 0 0 0 0 0 0 0 0 9 24 96 104 150 134 125 137 157 112 96 121 157 158 143 132 128 147 184 119 82 57 48 48 50 50 51 49 49 48 49 57 88 109 77 59 56 62 75 70 95 84 68 68 62 61 75 116 100 71 50 50 50 54 54 56 58 70 110 136 134 135 171 198 212 212 132 72 46 79 112 159 192 169 134 125 97 12 0 0 0 0 0 0 0 0 0 0 0 0 0 0 0 0 0 0 0 0 0 0 0 0 0 0 0 0 0 0 0 0 0 0 0 0 0 0 
0 0 0 0 0 0 0 0 0 0 0 0 8 25 93 112 152 140 121 124 152 116 103 119 154 150 150 146 133 144 167 119 71 50 48 49 50 56 56 57 55 51 47 47 48 86 105 72 73 95 106 102 117 115 101 97 75 80 75 68 73 49 48 51 55 57 56 60 56 66 101 134 138 137 151 204 216 221 165 85 42 71 116 165 187 177 137 129 103 17 0 0 0 0 0 0 0 0 0 0 0 0 0 0 0 0 0 0 0 0 0 0 0 0 0 0 0 0 0 0 0 0 0 0 0 0 0 0 
0 0 0 0 0 0 0 0 0 0 0 0 8 23 85 117 149 133 108 110 154 123 109 120 150 161 155 150 142 150 172 131 61 49 52 50 52 51 56 55 56 55 49 47 48 52 89 69 62 54 50 88 142 140 146 110 79 61 50 62 53 48 47 49 54 57 59 58 56 61 90 129 148 147 148 177 225 220 205 115 45 69 107 168 177 183 134 131 113 22 0 0 0 0 0 0 0 0 0 0 0 0 0 0 0 0 0 0 0 0 0 0 0 0 0 0 0 0 0 0 0 0 0 0 0 0 0 0 
0 0 0 0 0 0 0 0 0 0 0 0 9 24 86 122 150 117 80 106 151 135 116 121 146 164 169 152 153 163 196 134 56 48 50 52 50 54 56 54 53 50 48 47 47 47 65 49 46 49 52 89 146 125 154 80 50 49 47 64 50 48 48 53 56 54 56 57 56 58 84 122 147 145 147 166 209 219 211 132 49 67 96 159 167 190 137 134 119 28 0 0 0 0 0 0 0 0 0 0 0 0 0 0 0 0 0 0 0 0 0 0 0 0 0 0 0 0 0 0 0 0 0 0 0 0 0 0 
0 0 0 0 0 0 0 0 0 0 0 0 10 22 84 119 150 124 80 111 151 147 119 119 141 160 167 161 166 173 198 111 55 52 46 49 54 56 57 54 53 54 50 47 45 47 55 57 48 48 54 101 114 93 124 99 52 48 59 59 47 46 50 56 56 54 55 56 55 56 80 120 144 143 146 160 205 219 199 148 52 66 83 126 155 192 148 133 124 33 1 0 0 0 0 0 0 0 0 0 0 0 0 0 0 0 0 0 0 0 0 0 0 0 0 0 0 0 0 0 0 0 0 0 0 0 0 0 
0 0 0 0 0 0 0 0 0 0 0 0 9 20 84 125 148 122 81 117 151 146 94 110 139 154 169 172 168 161 186 92 53 53 47 53 57 57 55 54 52 54 52 48 44 47 50 59 48 48 59 98 106 89 82 94 61 46 60 50 50 47 55 75 71 60 55 55 57 59 81 118 143 144 148 154 206 230 201 166 61 63 81 97 152 180 141 132 126 38 1 0 0 0 0 0 0 0 0 0 0 0 0 0 0 0 0 0 0 0 0 0 0 0 0 0 0 0 0 0 0 0 0 0 0 0 0 0 
0 0 0 0 0 0 0 0 0 0 0 0 9 16 81 127 147 118 77 125 142 115 63 104 143 149 168 202 188 159 173 87 52 50 47 56 57 53 52 52 49 52 54 52 48 50 46 50 47 49 62 97 55 65 58 72 79 49 52 47 55 59 78 83 63 52 53 55 56 57 81 124 145 144 140 154 215 227 193 172 66 63 81 89 119 171 132 132 125 39 2 0 0 0 0 0 0 0 0 0 0 0 0 0 0 0 0 0 0 0 0 0 0 0 0 0 0 0 0 0 0 0 0 0 0 0 0 0 
0 0 0 0 0 0 0 0 0 0 0 0 10 15 75 127 145 118 86 140 134 65 51 101 145 147 180 232 207 176 162 102 50 50 48 54 56 53 53 52 53 58 59 57 48 51 50 51 46 51 78 81 45 47 48 52 91 65 51 59 77 72 69 58 53 53 55 54 54 55 83 128 146 142 142 161 221 219 183 176 69 66 83 90 124 167 126 120 124 38 1 0 0 0 0 0 0 0 0 0 0 0 0 0 0 0 0 0 0 0 0 0 0 0 0 0 0 0 0 0 0 0 0 0 0 0 0 0 
0 0 0 0 0 0 0 0 0 0 0 0 10 11 68 124 142 123 94 148 92 42 48 94 149 148 197 233 214 187 159 130 58 53 48 55 54 53 53 50 52 73 80 77 68 70 58 52 48 62 91 73 70 61 60 61 93 102 71 64 65 53 53 55 64 62 59 53 53 54 83 133 148 140 139 173 229 208 176 175 73 69 81 92 122 155 132 121 127 35 2 0 0 0 0 0 0 0 0 0 0 0 0 0 0 0 0 0 0 0 0 0 0 0 0 0 0 0 0 0 0 0 0 0 0 0 0 0 
0 0 0 0 0 0 0 0 0 0 0 0 7 10 61 122 141 126 101 151 90 44 42 87 148 153 204 228 213 191 169 161 71 53 51 54 54 52 52 50 53 57 59 56 53 64 65 68 72 88 99 47 49 44 46 47 50 97 71 54 58 51 52 76 78 74 63 54 53 57 83 133 148 144 141 189 242 201 158 175 80 74 83 91 123 147 135 132 121 31 2 0 0 0 0 0 0 0 0 0 0 0 0 0 0 0 0 0 0 0 0 0 0 0 0 0 0 0 0 0 0 0 0 0 0 0 0 0 
0 0 0 0 0 0 0 0 0 0 0 0 6 9 53 123 138 126 101 147 99 44 39 78 138 161 204 230 210 199 181 169 87 48 53 51 54 54 52 52 56 69 57 49 46 50 53 67 79 90 74 54 54 59 65 53 46 86 85 56 50 48 52 84 80 69 58 54 52 57 83 131 147 142 147 199 222 158 115 177 96 80 85 95 120 142 127 124 108 24 2 0 0 0 0 0 0 0 0 0 0 0 0 0 0 0 0 0 0 0 0 0 0 0 0 0 0 0 0 0 0 0 0 0 0 0 0 0 
0 0 0 0 0 0 0 0 0 0 0 0 8 11 44 117 131 123 102 141 102 45 45 60 121 163 201 232 207 191 180 158 86 45 50 48 52 54 54 57 67 81 65 52 53 56 61 53 85 100 72 68 65 70 75 57 49 55 94 73 52 46 44 72 77 70 57 53 54 56 81 128 146 146 164 209 195 119 95 174 114 81 84 99 121 132 116 117 101 19 2 0 0 0 0 0 0 0 0 0 0 0 0 0 0 0 0 0 0 0 0 0 0 0 0 0 0 0 0 0 0 0 0 0 0 0 0 0 
0 0 0 0 0 0 0 0 0 0 0 0 5 11 32 106 121 118 102 143 111 51 43 49 95 158 197 235 209 187 170 160 93 47 47 47 46 47 51 63 76 83 59 45 46 55 58 67 104 88 74 68 64 67 81 59 52 45 73 100 73 49 48 68 68 65 61 57 57 59 76 123 148 156 171 206 183 133 114 163 128 82 84 101 120 113 95 113 84 13 1 0 0 0 0 0 0 0 0 0 0 0 0 0 0 0 0 0 0 0 0 0 0 0 0 0 0 0 0 0 0 0 0 0 0 0 0 0 
0 0 0 0 0 0 0 0 0 0 0 0 0 10 23 95 116 111 102 134 115 53 45 38 70 141 201 239 202 173 159 153 108 51 47 46 45 49 51 50 62 80 70 50 48 71 84 95 92 63 53 52 54 58 68 62 48 50 48 98 127 91 72 79 76 67 69 68 54 57 80 127 152 162 181 202 170 126 151 175 142 81 89 103 117 100 93 114 66 11 1 0 0 0 0 0 0 0 0 0 0 0 0 0 0 0 0 0 0 0 0 0 0 0 0 0 0 0 0 0 0 0 0 0 0 0 0 0 
0 0 0 0 0 0 0 0 0 1 8 3 0 9 19 85 118 109 104 124 125 63 42 37 52 117 202 238 186 150 129 144 127 72 44 46 51 50 48 51 74 80 89 79 61 62 84 83 80 52 46 56 62 58 62 80 61 54 47 79 111 81 85 102 88 67 66 73 69 69 87 133 157 162 192 197 114 54 102 166 155 76 88 122 107 91 99 118 49 10 1 0 0 0 0 0 0 0 0 0 0 0 0 0 0 0 0 0 0 0 0 0 0 0 0 0 0 0 0 0 0 0 0 0 0 0 0 0 
0 0 0 0 0 0 0 0 0 4 8 6 4 8 12 74 123 117 96 106 139 83 40 36 42 87 200 233 176 155 138 94 137 120 65 52 51 53 55 64 92 87 73 63 63 74 91 91 95 63 56 59 57 70 67 73 80 65 75 88 124 109 77 79 77 85 102 96 75 78 110 145 150 169 207 148 60 36 61 156 176 96 111 151 67 87 110 119 38 8 1 0 0 0 0 0 0 0 0 0 0 0 0 0 0 0 0 0 0 0 0 0 0 0 0 0 0 0 0 0 0 0 0 0 0 0 0 0 
0 0 0 0 0 0 0 0 0 3 4 2 2 8 10 54 123 128 93 98 135 128 53 38 39 67 201 226 166 159 155 102 89 139 96 61 64 65 90 95 76 75 64 69 68 86 104 107 93 60 67 57 56 66 65 70 71 67 61 78 136 121 87 83 73 66 67 76 92 101 138 151 166 187 159 76 34 35 51 156 185 133 164 124 41 78 110 106 23 6 1 0 0 0 0 0 0 0 0 0 0 0 0 0 0 0 0 0 0 0 0 0 0 0 0 0 0 0 0 0 0 0 0 0 0 0 0 0 
0 0 0 0 0 0 0 0 0 0 0 3 0 5 10 35 120 133 91 98 111 135 67 34 40 65 193 217 165 150 156 125 79 96 113 78 85 74 67 67 70 73 57 57 96 106 113 116 91 69 75 77 68 71 74 63 60 60 62 72 113 125 91 67 63 57 61 60 68 101 132 143 151 170 139 65 51 38 48 164 194 161 161 72 39 86 116 89 15 7 7 3 3 6 0 0 0 0 0 0 0 0 0 0 0 0 0 0 0 0 0 0 0 0 0 0 0 0 0 0 0 0 0 0 0 0 0 0 
0 0 0 0 0 0 0 0 0 0 0 10 0 3 12 24 115 128 100 96 99 139 98 40 34 80 168 199 169 153 160 140 90 71 88 91 73 62 63 60 54 44 54 80 90 102 112 120 86 77 87 94 63 76 74 71 76 69 85 59 85 113 83 65 65 67 59 55 88 133 142 144 166 166 102 55 71 67 68 172 211 191 148 47 75 128 158 77 12 7 1 0 0 3 1 0 0 0 0 0 0 0 0 0 0 0 0 0 0 0 0 1 0 0 0 0 0 0 0 0 0 0 0 0 0 0 0 0 
0 0 0 0 0 0 0 0 0 0 1 11 5 4 10 15 103 126 113 85 98 130 138 77 41 98 152 174 164 157 157 139 91 64 68 81 47 46 50 53 50 50 62 59 74 97 114 112 108 102 81 62 72 74 94 67 53 71 84 68 88 101 67 60 61 80 89 75 116 162 166 166 176 147 108 117 121 110 126 179 214 220 162 73 111 161 179 56 10 5 0 0 0 0 0 0 0 0 0 0 0 0 0 0 0 0 0 0 0 0 0 0 0 0 0 0 0 0 0 0 0 0 0 0 0 0 0 0 
0 0 0 0 0 0 0 0 0 0 0 11 10 7 8 16 85 119 103 85 104 145 167 138 98 125 151 130 144 145 141 141 125 80 51 79 42 48 57 55 54 55 50 53 62 86 102 115 105 69 62 81 84 111 84 52 51 72 96 67 104 99 60 53 61 59 49 66 131 167 181 190 193 139 80 71 41 53 89 139 209 234 177 116 152 143 120 36 4 3 0 5 0 0 0 0 0 0 0 0 0 0 0 0 0 0 0 0 0 0 0 0 0 0 0 0 0 0 0 0 0 0 0 0 0 0 0 0 
0 0 0 0 0 0 0 0 0 0 0 12 18 9 4 21 80 122 98 81 110 184 193 169 133 157 159 102 125 166 162 155 147 131 94 89 68 73 56 50 54 54 57 63 61 74 100 124 88 50 54 83 99 124 74 53 53 61 100 88 96 105 70 59 67 84 65 107 168 181 202 215 187 98 67 64 66 100 110 136 191 183 98 137 167 193 124 29 5 4 6 7 0 0 0 0 0 0 0 0 0 0 0 0 0 0 0 0 0 0 0 0 0 0 0 0 0 0 0 0 0 0 0 0 0 0 0 0 
0 0 0 0 0 0 0 0 0 0 0 7 25 8 0 8 44 111 117 81 89 129 166 169 143 152 168 141 120 167 192 176 159 169 146 95 80 47 45 47 45 51 55 64 70 69 86 113 80 59 55 66 82 99 95 68 52 67 74 80 63 82 120 106 120 145 142 158 197 197 207 211 175 112 84 90 89 104 111 139 190 183 128 135 137 179 140 45 1 0 10 15 0 0 0 0 0 0 0 0 0 0 0 0 0 0 0 0 0 0 0 0 0 0 0 0 0 0 0 0 0 0 0 0 0 0 0 0 
0 0 0 0 0 0 0 0 0 0 0 4 18 7 0 9 29 95 133 93 86 113 148 170 148 162 201 162 74 65 136 175 163 169 154 119 90 64 49 51 47 64 85 80 84 75 90 109 55 54 66 79 83 88 105 93 70 61 83 64 54 56 76 68 95 144 173 205 213 206 211 160 114 89 94 101 108 109 105 141 183 191 140 116 152 106 102 23 0 0 9 8 0 0 0 0 0 0 0 0 0 0 0 0 0 0 0 0 0 0 0 0 0 0 0 0 0 0 0 0 0 0 0 0 0 0 0 0 
0 0 0 0 0 0 0 0 0 0 0 3 16 8 0 8 22 63 125 87 110 98 105 128 146 145 190 166 81 50 77 151 179 192 185 156 118 107 83 99 98 104 113 111 89 61 106 94 57 66 115 131 91 118 121 105 79 67 86 81 72 75 91 75 74 112 172 211 205 194 171 104 76 81 105 122 121 113 115 145 184 180 81 79 127 127 67 8 0 0 15 6 0 0 0 0 0 0 0 0 0 0 0 0 0 0 0 0 0 0 0 0 0 0 0 0 0 0 0 0 0 0 0 0 0 0 0 0 
0 0 0 0 0 0 0 0 0 0 0 0 8 7 0 6 21 35 120 126 118 140 126 99 112 133 173 180 118 83 72 101 161 195 208 191 159 164 161 147 106 79 101 80 59 75 117 103 69 129 161 152 121 130 150 108 65 88 118 111 68 81 112 130 138 150 156 180 192 164 89 71 64 78 117 156 120 115 119 131 150 129 110 107 168 136 30 5 3 1 16 0 0 0 0 0 0 0 0 0 0 0 0 0 0 0 0 0 0 0 0 0 0 0 0 0 0 0 0 0 0 0 0 0 0 0 0 0 
0 0 0 0 0 0 0 0 0 0 0 0 3 4 0 7 18 19 85 93 115 155 130 110 106 121 139 130 114 112 82 48 74 156 219 214 174 165 166 127 75 71 72 63 75 98 124 126 158 146 136 150 147 151 160 151 123 120 113 103 114 139 156 152 156 163 174 174 146 75 46 55 57 82 112 159 145 116 151 154 146 123 110 154 180 97 18 6 4 2 3 0 0 0 0 0 0 0 0 0 0 0 0 0 0 0 0 0 0 0 0 0 0 0 0 0 0 0 0 0 0 0 0 0 0 0 0 0 
0 0 0 0 0 0 0 0 0 0 0 0 0 1 0 7 22 20 59 96 114 122 119 110 103 129 133 129 129 136 103 54 43 83 171 224 200 166 156 145 120 112 99 119 136 146 172 183 179 164 143 133 143 147 155 170 175 166 153 155 156 161 174 162 172 186 178 130 57 41 61 53 68 100 111 125 167 143 179 190 168 135 146 176 159 53 17 11 5 1 0 0 0 0 0 0 0 0 0 0 0 0 0 0 0 0 0 0 0 0 0 0 0 0 0 0 0 0 0 0 0 0 0 0 0 0 0 0 
0 0 0 0 0 0 0 0 0 0 0 0 0 0 0 12 19 28 35 101 130 116 108 105 114 113 126 136 143 132 107 76 54 67 117 177 193 179 169 165 152 145 142 148 139 139 157 149 135 140 153 155 151 151 188 187 174 165 158 154 156 170 184 176 176 175 126 60 42 65 66 72 99 103 109 119 143 173 193 195 164 152 158 168 110 32 19 17 6 2 0 0 0 0 0 0 0 0 0 0 0 0 0 0 0 0 0 0 0 0 0 0 0 0 0 0 0 0 0 0 0 0 0 0 0 0 0 0 
0 0 0 0 0 0 0 0 0 0 0 0 0 0 0 14 20 30 26 67 111 97 135 111 111 115 121 143 138 128 109 89 93 105 127 123 106 141 175 176 172 164 160 150 143 144 155 117 107 116 138 157 171 172 171 163 157 167 160 146 136 143 160 147 122 91 56 48 47 76 73 105 98 98 116 113 119 167 167 170 175 169 126 127 68 28 16 17 8 5 0 0 0 0 0 0 0 0 0 0 0 0 0 0 0 0 0 0 0 0 0 0 0 0 0 0 0 0 0 0 0 0 0 0 0 0 0 0 
0 0 0 0 0 0 0 0 0 0 0 0 0 0 2 18 26 29 26 44 105 103 155 160 95 114 112 110 100 100 96 92 120 152 131 75 52 63 99 137 158 145 133 123 122 148 171 148 141 155 167 190 196 181 155 147 147 144 143 144 143 135 127 115 88 57 61 54 79 106 88 98 95 108 114 110 134 177 168 156 132 128 116 111 54 26 18 21 13 8 0 0 0 0 0 0 0 0 0 0 0 0 0 0 0 0 0 0 0 0 0 0 0 0 0 0 0 0 0 0 0 0 0 0 0 0 0 0 
0 0 0 0 0 0 0 0 0 0 0 0 0 0 3 19 26 22 19 38 91 93 131 172 122 120 101 86 75 119 114 105 148 164 113 94 78 55 53 68 116 132 138 148 152 159 134 132 137 150 152 165 173 165 154 159 148 132 109 103 102 102 74 71 109 117 112 116 133 126 100 100 109 133 114 113 138 185 176 153 133 131 103 100 53 26 24 23 18 9 0 0 0 0 0 0 0 0 0 0 0 0 0 0 0 0 0 0 0 0 0 0 0 0 0 0 0 0 0 0 0 0 0 0 0 0 0 0 
0 0 0 0 0 0 0 0 0 0 0 0 7 0 1 18 23 23 20 31 89 80 78 141 116 133 105 78 66 94 124 122 170 169 107 93 95 100 95 84 85 126 147 150 143 129 85 85 109 112 129 121 119 122 101 80 60 53 45 38 45 65 100 93 115 142 134 142 154 146 115 125 122 112 106 110 164 186 150 134 169 124 75 91 45 23 20 21 17 8 0 0 0 0 0 0 0 0 0 0 0 0 0 0 0 0 0 0 0 0 0 0 0 0 0 0 0 0 0 0 0 0 0 0 0 0 0 0 
0 0 0 0 0 0 0 0 0 0 0 0 7 5 0 9 20 21 15 21 71 91 85 80 111 141 151 115 82 75 83 110 157 127 108 107 112 123 124 118 112 148 135 157 186 157 91 79 102 97 90 79 76 84 101 90 63 50 43 55 61 84 116 100 120 163 166 168 170 153 100 96 109 73 111 120 152 161 112 100 90 54 70 83 31 17 11 11 13 1 0 0 0 0 0 0 0 0 0 0 0 0 0 0 0 0 0 0 0 0 0 0 0 0 0 0 0 0 0 0 0 0 0 0 0 0 0 0 
0 0 0 0 0 0 0 0 0 0 0 0 7 8 3 0 19 19 14 11 32 85 89 57 67 89 117 121 85 101 84 97 116 79 73 114 146 147 139 133 136 174 135 138 187 187 152 140 132 113 108 106 102 107 108 117 115 111 104 117 123 142 136 138 153 167 166 179 183 177 100 104 123 89 95 96 137 142 101 55 45 82 95 68 20 16 5 13 4 0 0 0 0 0 0 0 0 0 0 0 0 0 0 0 0 0 0 0 0 0 0 0 0 0 0 0 0 0 0 0 0 0 0 0 0 0 0 0 
0 0 0 0 0 0 0 0 0 0 0 1 9 10 9 7 4 13 13 13 13 51 87 37 22 33 77 95 97 124 122 102 128 140 86 69 81 83 94 111 183 199 124 120 150 202 186 157 121 116 149 181 188 189 169 134 123 125 141 150 165 186 161 159 159 147 177 204 169 170 157 103 118 132 108 103 108 62 90 79 43 73 89 35 14 12 9 11 0 0 0 0 1 0 0 0 0 0 0 0 0 0 0 0 0 0 0 0 0 0 0 0 0 0 0 0 0 0 0 0 0 0 0 0 0 0 0 0 
0 0 0 0 0 0 0 0 0 0 0 0 8 7 3 3 0 0 10 15 16 17 59 34 20 30 51 86 111 156 149 118 102 144 107 57 55 56 66 180 131 102 100 135 135 139 148 142 137 144 123 110 140 170 180 182 146 131 152 129 121 126 160 167 127 94 92 137 87 206 155 83 117 108 70 41 61 30 51 97 90 92 43 7 7 7 5 0 5 1 0 4 8 3 0 0 0 0 0 0 0 0 0 0 0 0 0 0 0 0 0 0 0 0 0 0 0 0 0 0 0 0 0 0 0 0 0 0 
0 0 0 0 0 0 0 0 0 0 0 0 1 4 4 0 0 0 3 11 15 6 19 61 43 41 55 38 43 114 127 132 141 123 76 34 30 47 131 174 103 105 120 221 226 143 124 169 174 130 95 133 176 175 185 177 145 148 169 144 93 68 148 153 113 116 144 150 136 67 121 143 114 48 15 13 38 10 32 60 71 47 21 5 0 3 0 0 0 0 3 4 7 0 0 0 0 0 0 0 0 0 0 0 0 0 0 0 0 0 0 0 0 0 0 0 0 0 0 0 0 0 0 0 0 0 0 0 
0 0 0 0 0 0 0 0 0 0 0 0 0 4 1 0 0 0 0 2 2 11 11 50 98 73 52 30 19 52 50 69 111 120 104 91 77 106 137 105 111 117 122 126 155 111 150 205 179 181 166 199 213 152 120 144 168 143 149 138 133 161 140 143 136 125 150 160 164 157 138 131 137 86 55 40 67 24 29 39 46 29 19 11 13 0 0 0 0 0 0 2 6 0 0 0 0 0 0 0 0 0 0 0 0 0 0 0 0 0 0 0 0 0 0 0 0 0 0 0 0 0 0 0 0 0 0 0 
0 0 0 0 0 0 0 0 0 0 0 0 0 3 7 0 0 0 0 0 9 18 16 19 38 36 29 25 26 64 60 57 85 112 76 83 99 102 105 101 90 86 83 72 58 47 79 123 131 127 80 150 152 112 101 104 117 61 107 78 48 56 86 123 149 132 58 71 62 53 56 62 82 51 47 54 85 35 24 33 23 21 15 16 6 0 0 0 0 0 0 7 4 0 0 0 0 0 0 0 0 0 0 0 0 0 0 0 0 0 0 0 0 0 0 0 0 0 0 0 0 0 0 0 0 0 0 0 
0 0 0 0 0 0 0 0 0 0 0 0 0 0 3 0 0 0 0 0 4 13 17 14 19 18 20 19 23 64 56 42 64 88 46 47 47 49 69 94 106 110 104 75 53 61 61 53 102 97 39 94 81 87 81 86 103 57 106 80 40 53 70 93 106 75 46 42 45 47 43 42 85 63 38 48 80 31 34 22 17 21 18 14 7 0 0 0 0 0 4 6 3 0 0 0 0 0 0 0 0 0 0 0 0 0 0 0 0 0 0 0 0 0 0 0 0 0 0 0 0 0 0 0 0 0 0 0 
0 0 0 0 0 0 0 0 0 0 0 0 0 0 0 0 0 0 0 0 0 16 10 14 15 18 21 26 27 58 74 50 68 98 74 62 59 76 195 181 173 182 100 88 71 86 79 70 116 94 30 89 68 74 82 88 120 78 135 163 149 154 148 143 205 226 164 78 82 68 77 92 169 151 118 98 105 55 33 22 11 13 9 3 4 0 0 0 0 0 1 1 0 0 0 0 0 0 0 0 0 0 0 0 0 0 0 0 0 0 0 0 0 0 0 0 0 0 0 0 0 0 0 0 0 0 0 0 
0 0 0 0 0 0 0 0 0 0 0 0 0 0 0 0 0 0 0 0 0 9 8 3 8 11 18 19 11 43 62 44 49 76 74 84 75 74 179 125 105 85 159 116 114 172 147 184 176 121 79 109 76 77 78 103 164 149 196 228 243 0 4 1 212 148 146 82 55 52 104 181 212 217 217 195 161 120 94 80 34 7 2 0 0 0 0 0 0 0 0 0 0 0 0 0 0 0 0 0 0 0 0 0 0 0 0 0 0 0 0 0 0 0 0 0 0 0 0 0 0 0 0 0 0 0 0 0 
0 0 0 0 0 0 0 0 0 0 0 0 0 0 0 0 0 0 0 0 0 0 0 0 3 8 19 25 8 15 50 57 91 119 142 160 155 162 184 108 99 71 166 120 149 149 151 140 115 174 161 113 97 127 139 136 159 169 201 214 227 251 1 254 150 168 125 83 52 70 90 157 195 177 131 101 106 94 99 109 65 10 4 1 0 0 0 0 0 0 0 0 0 0 0 0 0 0 0 0 0 0 0 0 0 0 0 0 0 0 0 0 0 0 0 0 0 0 0 0 0 0 0 0 0 0 0 0 
0 0 0 0 0 0 0 0 0 0 0 0 0 0 0 0 0 0 0 0 0 0 2 2 7 13 25 26 21 25 64 47 59 87 107 163 201 189 106 78 76 109 165 100 113 93 122 135 144 135 102 82 69 66 73 80 98 118 137 137 150 163 159 204 231 99 108 106 54 42 58 85 100 117 107 105 105 70 68 74 20 8 7 1 0 0 0 0 0 0 0 0 0 0 0 0 0 0 0 0 0 0 0 0 0 0 0 0 0 0 0 0 0 0 0 0 0 0 0 0 0 0 0 0 0 0 0 0 
0 0 0 0 0 0 0 0 0 0 0 0 0 0 0 0 0 0 0 0 0 0 5 9 11 12 21 27 24 22 56 70 47 80 53 63 77 153 181 191 149 122 123 94 149 164 167 139 118 105 78 103 90 45 43 46 62 69 76 85 98 138 149 134 161 221 236 222 79 33 32 31 36 57 55 64 61 20 13 14 15 16 10 1 0 0 0 0 0 0 0 0 0 0 0 0 0 0 0 0 0 0 0 0 0 0 0 0 0 0 0 0 0 0 0 0 0 0 0 0 0 0 0 0 0 0 0 0 
0 0 0 0 0 0 0 0 0 0 0 0 0 0 0 0 0 0 0 0 0 0 2 8 11 13 16 21 19 19 39 78 56 73 37 41 43 41 45 69 105 93 96 147 143 158 137 116 133 114 79 60 51 62 62 57 54 58 57 68 80 128 138 112 81 167 228 207 175 66 43 35 34 48 50 53 67 23 17 22 19 13 10 1 0 0 0 0 0 0 0 0 0 0 0 0 0 0 0 0 0 0 0 0 0 0 0 0 0 0 0 0 0 0 0 0 0 0 0 0 0 0 0 0 0 0 0 0 
0 0 0 0 0 0 0 0 0 0 0 0 0 0 0 0 0 0 0 0 0 0 0 7 11 12 14 20 21 18 33 81 56 78 37 40 61 78 108 131 125 89 67 116 129 145 139 135 156 147 130 89 58 51 49 51 55 55 67 112 140 134 132 125 92 134 162 189 190 157 103 52 42 50 66 55 70 24 18 22 17 12 9 0 0 0 0 0 0 0 0 0 0 0 0 0 0 0 0 0 0 0 0 0 0 0 0 0 0 0 0 0 0 0 0 0 0 0 0 0 0 0 0 0 0 0 0 0 
0 0 0 0 0 0 0 0 0 0 0 0 0 0 0 0 0 0 0 0 0 0 0 4 8 11 13 20 23 18 26 77 61 69 37 62 128 150 117 73 69 60 54 94 125 100 116 130 160 149 151 133 86 68 61 60 64 70 97 139 161 147 129 125 93 149 125 152 186 176 165 144 96 58 82 59 74 25 16 19 18 13 6 0 0 0 0 0 0 0 0 0 0 0 0 0 0 0 0 0 0 0 0 0 0 0 0 0 0 0 0 0 0 0 0 0 0 0 0 0 0 0 0 0 0 0 0 0 
0 0 0 0 0 0 0 0 0 0 0 0 0 0 0 0 0 0 0 0 0 0 0 0 9 12 10 17 22 21 21 66 63 66 37 103 156 98 53 49 53 48 52 116 117 60 102 126 118 89 138 146 121 97 82 78 86 107 141 152 155 136 115 116 86 137 131 85 119 143 141 163 168 94 81 65 76 26 19 16 17 13 3 0 0 0 0 0 0 0 0 0 0 0 0 0 0 0 0 0 0 0 0 0 0 0 0 0 0 0 0 0 0 0 0 0 0 0 0 0 0 0 0 0 0 0 0 0 
0 0 0 0 0 0 0 0 0 0 0 0 0 0 0 0 0 0 0 0 0 0 0 0 11 5 7 15 22 23 27 55 57 62 39 122 161 79 48 42 50 45 60 145 125 74 97 115 91 76 140 142 121 120 112 108 120 138 154 158 146 112 106 95 67 97 135 66 48 62 62 83 169 136 69 79 72 26 20 17 17 12 0 0 0 0 0 0 0 0 0 0 0 0 0 0 0 0 0 0 0 0 0 0 0 0 0 0 0 0 0 0 0 0 0 0 0 0 0 0 0 0 0 0 0 0 0 0 
0 0 0 0 0 0 0 0 0 0 0 0 0 0 0 0 0 0 0 0 0 0 0 0 0 8 3 14 17 23 24 44 58 45 33 115 158 74 50 47 49 43 81 143 92 67 89 110 82 87 139 128 96 104 117 121 128 136 142 132 111 105 115 86 50 76 130 91 48 48 41 60 160 141 37 61 39 17 19 20 18 6 0 0 0 0 0 0 0 0 0 0 0 0 0 0 0 0 0 0 0 0 0 0 0 0 0 0 0 0 0 0 0 0 0 0 0 0 0 0 0 0 0 0 0 0 0 0 
0 0 0 0 0 0 0 0 0 0 0 0 0 0 0 0 0 0 0 0 0 0 0 0 0 6 5 9 17 18 22 35 51 21 24 103 165 86 48 51 52 60 91 86 64 64 85 108 91 94 134 122 83 85 106 112 118 125 125 116 106 90 111 68 40 45 85 94 59 42 38 62 161 127 31 21 9 13 20 21 18 3 0 0 0 0 0 0 0 0 0 0 0 0 0 0 0 0 0 0 0 0 0 0 0 0 0 0 0 0 0 0 0 0 0 0 0 0 0 0 0 0 0 0 0 0 0 0 
0 0 0 0 0 0 0 0 0 0 0 0 0 0 0 0 0 0 0 0 0 0 0 0 0 0 9 4 14 18 17 17 16 15 18 77 166 108 50 51 46 59 70 56 56 57 74 107 107 107 123 119 97 88 93 99 102 119 124 105 117 121 104 54 41 41 45 67 63 42 41 75 161 128 31 22 14 15 20 20 13 0 0 0 0 0 0 0 0 0 0 0 0 0 0 0 0 0 0 0 0 0 0 0 0 0 0 0 0 0 0 0 0 0 0 0 0 0 0 0 0 0 0 0 0 0 0 0 
0 0 0 0 0 0 0 0 0 0 0 0 0 0 0 0 0 0 0 0 0 0 0 0 0 0 6 3 8 16 16 16 19 15 10 36 144 142 66 43 55 77 74 57 59 56 61 94 108 106 100 90 80 69 65 70 96 119 106 85 87 110 109 63 43 43 37 55 77 56 54 98 180 109 28 25 15 15 20 18 8 0 0 0 0 0 0 0 0 0 0 0 0 0 0 0 0 0 0 0 0 0 0 0 0 0 0 0 0 0 0 0 0 0 0 0 0 0 0 0 0 0 0 0 0 0 0 0 
0 0 0 0 0 0 0 0 0 0 0 0 0 0 0 0 0 0 0 0 0 0 0 0 0 0 0 10 5 9 17 17 17 18 12 20 76 163 140 102 117 99 65 58 69 61 56 86 107 95 118 134 116 92 81 100 112 107 109 114 106 103 107 77 62 54 31 51 80 121 156 181 173 46 28 25 16 16 19 16 6 0 0 0 0 0 0 0 0 0 0 0 0 0 0 0 0 0 0 0 0 0 0 0 0 0 0 0 0 0 0 0 0 0 0 0 0 0 0 0 0 0 0 0 0 0 0 0 
0 0 0 0 0 0 0 0 0 0 0 0 0 0 0 0 0 0 0 0 0 0 0 0 0 0 0 3 11 5 11 18 18 17 13 18 27 82 176 183 172 102 51 43 66 68 57 83 113 110 117 125 99 79 74 90 81 92 107 113 100 105 112 94 66 65 60 47 67 140 197 182 73 30 28 25 19 17 20 14 4 0 0 0 0 0 0 0 0 0 0 0 0 0 0 0 0 0 0 0 0 0 0 0 0 0 0 0 0 0 0 0 0 0 0 0 0 0 0 0 0 0 0 0 0 0 0 0 
0 0 0 0 0 0 0 0 0 0 0 0 0 0 0 0 0 0 0 0 0 0 0 0 0 0 0 0 8 7 8 16 15 16 10 8 23 28 48 105 117 72 39 37 60 66 53 79 116 101 87 97 72 79 95 108 101 98 123 123 85 90 112 101 72 55 58 63 51 91 103 52 33 25 28 25 23 17 18 13 4 1 0 0 0 0 0 0 0 0 0 0 0 0 0 0 0 0 0 0 0 0 0 0 0 0 0 0 0 0 0 0 0 0 0 0 0 0 0 0 0 0 0 0 0 0 0 0 
0 0 0 0 0 0 0 0 0 0 0 0 0 0 0 0 0 0 0 0 0 0 0 0 0 0 0 0 0 11 7 12 17 16 9 2 8 26 33 35 37 37 36 43 70 58 49 81 118 112 87 95 92 94 105 117 126 122 114 109 108 111 117 108 61 44 54 73 47 36 36 36 26 22 28 27 20 20 19 15 5 2 0 0 0 0 0 0 0 0 0 0 0 0 0 0 0 0 0 0 0 0 0 0 0 0 0 0 0 0 0 0 0 0 0 0 0 0 0 0 0 0 0 0 0 0 0 0 
0 0 0 0 0 0 0 0 0 0 0 0 0 0 0 0 0 0 0 0 0 0 0 0 0 0 0 0 0 10 4 8 17 18 11 2 1 25 30 35 37 38 35 48 64 48 52 79 115 123 124 122 116 111 116 120 128 134 128 113 124 135 133 109 54 28 30 34 31 35 36 30 22 20 27 26 16 20 19 15 5 1 0 0 0 0 0 0 0 0 0 0 0 0 0 0 0 0 0 0 0 0 0 0 0 0 0 0 0 0 0 0 0 0 0 0 0 0 0 0 0 0 0 0 0 0 0 0 
0 0 0 0 0 0 0 0 0 0 0 0 0 0 0 0 0 0 0 0 0 0 0 0 0 0 0 0 0 5 8 6 12 19 15 3 0 16 32 32 36 38 37 49 52 63 78 78 103 133 133 123 114 112 116 114 120 130 129 123 131 143 139 89 63 53 35 34 32 34 32 25 19 21 27 20 16 22 19 16 7 1 0 0 0 0 0 0 0 0 0 0 0 0 0 0 0 0 0 0 0 0 0 0 0 0 0 0 0 0 0 0 0 0 0 0 0 0 0 0 0 0 0 0 0 0 0 0 
