P2
128 99
210
0 0 0 0 0 0 0 0 0 0 0 0 0 0 0 0 0 0 0 0 0 0 0 0 0 0 0 0 0 0 0 1 1 1 0 0 0 0 0 0 0 0 0 0 0 0 0 0 0 0 0 0 0 0 0 0 0 0 0 0 0 0 0 0 0 0 0 0 0 0 0 0 0 0 0 0 0 0 0 0 0 0 0 0 0 0 0 0 0 0 0 0 0 1 1 2 5 0 0 0 0 0 0 0 0 0 0 0 0 0 0 0 0 0 0 0 0 0 0 0 0 0 0 0 0 0 0 0 
0 0 0 0 0 0 0 0 0 0 0 0 0 0 0 0 0 0 0 0 0 0 0 0 0 0 0 0 0 0 0 1 1 1 0 0 0 0 0 0 0 0 0 0 0 0 0 0 0 0 0 0 0 0 0 0 0 0 0 0 0 0 0 0 0 0 0 0 0 0 0 0 0 0 0 0 0 0 0 0 0 0 0 0 0 0 0 0 0 0 0 0 0 1 1 2 5 0 0 0 0 0 0 0 0 0 0 0 0 0 0 0 0 0 0 0 0 0 0 0 0 0 0 0 0 0 0 0 
0 0 0 0 0 0 0 0 0 0 0 0 0 0 0 0 0 0 0 0 0 0 0 0 0 0 0 0 0 0 0 1 0 1 0 0 0 0 0 0 0 0 0 0 0 0 0 0 0 0 0 1 1 2 1 0 0 0 0 0 0 0 0 0 0 0 0 0 0 0 0 0 0 0 0 0 0 0 0 0 0 0 0 0 0 0 0 0 0 0 0 0 0 1 1 2 5 0 0 0 0 0 0 0 0 0 0 0 0 0 0 0 0 0 0 0 0 0 0 0 0 0 0 0 0 0 0 0 
0 0 0 0 0 0 0 0 0 0 0 0 0 0 0 0 0 0 0 0 0 0 0 0 0 0 0 0 0 0 0 1 0 1 0 0 0 0 0 0 0 0 0 1 7 13 17 18 18 19 22 25 28 28 25 21 18 16 14 12 4 0 0 0 0 0 0 0 0 0 0 0 0 0 0 0 0 0 0 0 0 0 0 0 0 0 0 0 0 0 0 0 0 1 1 2 5 0 0 0 0 0 0 0 0 0 0 0 0 0 0 0 0 0 0 0 0 0 0 0 0 0 0 0 0 0 0 0 
0 0 0 0 0 0 0 0 0 0 0 0 0 0 0 0 0 0 0 0 0 0 0 0 0 0 0 0 0 0 0 0 0 0 0 0 0 0 0 0 6 13 20 23 24 34 53 77 100 120 136 147 152 153 149 139 124 103 79 54 33 22 17 11 2 0 0 0 0 0 0 0 0 0 0 0 0 0 0 0 0 0 0 0 0 0 0 0 0 0 0 0 0 1 1 2 5 0 0 0 0 0 0 0 0 0 0 0 0 0 0 0 0 0 0 0 0 0 0 0 0 0 0 0 0 0 0 0 
0 0 0 0 0 0 0 0 0 0 0 0 0 0 0 0 0 0 0 0 0 0 0 0 0 0 0 0 0 0 0 0 0 0 0 0 0 0 9 17 24 25 36 67 110 148 170 180 185 188 189 188 186 186 187 187 186 184 178 168 149 117 79 44 24 16 10 1 0 0 0 0 0 0 0 0 0 0 0 0 0 0 0 0 0 0 0 0 0 0 0 0 0 1 1 2 5 0 0 0 0 0 0 0 0 0 0 0 0 0 0 0 0 0 0 0 0 0 0 0 0 0 0 0 0 0 0 0 
0 0 0 0 0 0 0 0 0 0 0 0 0 0 0 0 0 0 0 0 0 0 0 0 0 0 0 0 0 0 0 0 0 0 0 0 9 21 24 25 52 102 150 176 187 189 190 191 193 195 197 198 199 198 198 198 196 194 191 188 187 182 173 155 121 76 39 18 13 2 0 0 0 0 0 0 0 0 0 0 0 0 0 0 0 0 0 0 0 0 0 0 0 1 1 2 5 0 0 0 0 0 0 0 0 0 0 0 0 0 0 0 0 0 0 0 0 0 0 0 0 0 0 0 0 0 0 0 
0 0 0 0 0 0 0 0 0 0 0 0 0 0 0 0 0 0 0 0 0 0 0 0 0 0 0 0 0 0 0 0 0 0 8 24 24 26 62 124 167 184 188 190 193 195 194 188 183 178 181 188 187 174 172 184 197 202 201 198 194 191 189 188 184 172 147 100 49 23 13 1 0 0 0 0 0 0 0 0 0 0 0 0 0 0 0 0 0 0 0 0 0 1 1 2 5 0 0 0 0 0 0 0 0 0 0 0 0 0 0 0 0 0 0 0 0 0 0 0 0 0 0 0 0 0 0 0 
0 0 0 0 0 0 0 0 0 0 0 0 0 0 0 0 0 0 0 0 0 0 0 0 0 0 0 0 0 0 0 0 5 27 26 24 58 128 171 183 185 189 193 196 194 185 176 165 157 155 155 156 153 146 148 153 162 180 199 206 204 199 196 193 190 188 187 179 155 102 45 23 10 0 0 0 0 0 0 0 0 0 0 0 0 0 0 0 0 0 0 0 0 1 1 3 5 0 0 0 0 0 0 0 0 0 0 0 0 0 0 0 0 0 0 0 0 0 0 0 0 0 0 0 0 0 0 0 
0 0 0 0 0 0 0 0 0 0 0 0 0 0 0 0 0 0 0 0 0 0 0 0 0 0 0 0 0 0 0 24 26 21 41 111 167 181 183 187 191 196 194 178 164 160 154 143 139 136 141 148 148 144 148 150 152 154 166 184 203 208 206 202 198 195 191 189 188 179 147 79 30 19 2 0 0 0 0 0 0 0 0 0 0 0 0 0 0 0 0 0 0 1 1 2 5 0 0 0 0 0 0 0 0 0 0 0 0 0 0 0 0 0 0 0 0 0 0 0 0 0 0 0 0 0 0 0 
0 0 0 0 0 0 0 0 0 0 0 0 0 0 0 0 0 0 0 0 0 0 0 0 0 0 0 0 0 10 28 23 26 83 157 180 183 186 190 196 199 188 170 164 158 150 144 138 135 134 134 138 137 137 140 145 145 145 148 155 172 191 203 208 208 204 198 195 191 190 188 173 119 45 22 6 0 0 0 0 0 0 0 0 0 0 0 0 0 0 0 0 0 1 1 2 5 0 0 0 0 0 0 0 0 0 0 0 0 0 0 0 0 0 0 0 0 0 0 0 0 0 0 0 0 0 0 0 
0 0 0 0 0 0 0 0 0 0 0 0 0 0 0 0 0 0 0 0 0 0 0 0 0 0 0 0 22 25 18 48 131 175 180 185 192 196 200 195 180 170 164 159 157 153 148 143 140 137 131 133 132 131 140 147 147 145 147 151 156 167 184 197 206 209 207 204 199 196 193 190 183 150 68 24 11 0 0 0 0 0 0 0 0 0 0 0 0 0 0 0 0 1 1 3 5 0 0 0 0 0 0 0 0 0 0 0 0 0 0 0 0 0 0 0 0 0 0 0 0 0 0 0 0 0 0 0 
0 0 0 0 0 0 0 0 0 0 0 0 0 0 0 0 0 0 0 0 0 0 0 0 0 0 5 26 21 19 77 157 178 184 190 196 201 201 188 175 170 165 157 152 147 146 147 145 147 139 130 127 125 125 135 145 145 146 147 148 153 162 171 178 188 199 207 210 208 204 198 194 190 183 160 85 24 13 0 0 0 0 0 0 0 0 0 0 0 0 0 0 0 1 1 3 5 0 0 0 0 0 0 0 0 0 0 0 0 0 0 0 0 0 0 0 0 0 0 0 0 0 0 0 0 0 0 0 
0 0 0 0 0 0 0 0 0 0 0 0 0 0 0 0 0 0 0 0 0 0 0 0 0 10 26 18 26 101 166 178 188 195 200 203 197 182 173 168 162 157 154 151 150 150 149 147 139 133 123 123 119 120 126 137 148 149 151 151 150 154 161 169 176 180 188 198 207 209 206 200 194 188 183 166 94 27 13 0 0 0 0 0 0 0 0 0 0 0 0 0 0 1 1 3 5 0 0 0 0 0 0 0 0 0 0 0 0 0 0 0 0 0 0 0 0 0 0 0 0 0 0 0 0 0 0 0 
0 0 0 0 0 0 0 0 0 0 0 0 0 0 0 0 0 0 0 0 0 0 0 0 14 23 16 33 117 169 180 191 198 203 200 188 175 170 166 162 160 160 156 150 144 142 137 131 129 125 122 122 121 124 125 126 134 146 148 147 147 148 152 157 160 167 173 177 184 197 205 207 203 195 188 185 170 105 30 13 0 0 0 0 0 0 0 0 0 0 0 0 1 1 1 3 5 0 0 0 0 0 0 0 0 0 0 0 0 0 0 0 0 0 0 0 0 0 0 0 0 0 0 0 0 0 0 0 
0 0 0 0 0 0 0 0 0 0 0 0 0 0 0 0 0 0 0 0 0 0 3 19 20 15 44 129 167 181 193 200 203 192 178 170 167 165 164 161 156 149 142 135 133 127 123 123 120 119 119 117 113 117 119 119 120 125 135 144 145 145 146 151 157 158 161 164 169 174 185 198 204 202 196 188 184 172 117 36 12 0 0 0 0 0 0 0 0 0 0 0 0 1 1 3 5 0 0 0 0 0 0 0 0 0 0 0 0 0 0 0 0 0 0 0 0 0 0 0 0 0 0 0 0 0 0 0 
0 0 0 0 0 0 0 0 0 0 0 0 0 0 0 0 0 0 0 0 0 5 17 17 16 57 138 165 182 194 201 200 183 171 166 163 162 163 158 153 149 141 138 136 128 119 117 114 116 116 116 111 112 120 121 122 123 124 124 126 130 132 136 141 147 152 153 156 161 165 166 173 189 200 202 195 191 186 171 125 38 9 0 0 0 0 0 0 0 0 0 0 0 1 1 3 5 0 0 0 0 0 0 0 0 0 0 0 0 0 0 0 0 0 0 0 0 0 0 0 0 0 0 0 0 0 0 0 
0 0 0 0 0 0 0 0 0 0 0 0 0 0 0 0 0 0 0 0 7 16 14 18 70 147 166 182 196 202 195 174 162 163 162 159 153 146 146 146 143 140 134 127 122 121 118 120 120 118 116 111 111 121 120 121 123 123 122 123 124 126 130 135 136 138 143 146 148 153 156 159 165 180 194 199 196 191 184 172 129 37 6 0 0 0 0 0 0 0 0 0 0 1 1 3 5 0 0 0 0 0 0 0 0 0 0 0 0 0 0 0 0 0 0 0 0 0 0 0 0 0 0 0 0 0 0 0 
0 0 0 0 0 0 0 0 0 0 0 0 0 0 0 0 0 0 0 6 15 13 19 78 149 166 180 194 201 191 168 157 160 157 153 147 140 143 140 132 127 124 122 119 118 116 115 118 118 114 115 111 113 119 120 123 126 126 125 124 125 124 123 125 127 128 130 138 145 145 144 147 153 161 174 190 199 197 191 182 170 121 28 3 0 0 0 0 0 0 0 0 0 1 1 3 5 0 0 0 0 0 0 0 0 0 0 0 0 0 0 0 0 0 0 0 0 0 0 0 0 0 0 0 0 0 0 0 
0 0 0 0 0 0 0 0 0 0 0 0 0 0 0 0 0 0 4 16 13 20 83 150 164 177 191 199 185 164 156 156 152 151 144 135 136 134 127 121 120 119 119 120 116 112 112 114 113 112 107 102 104 114 114 114 114 115 117 120 121 123 123 121 121 121 127 129 138 144 141 142 144 147 158 169 186 199 197 189 179 165 106 20 2 0 0 0 0 0 0 0 0 1 1 3 5 0 0 0 0 0 0 0 0 0 0 0 0 0 0 0 0 0 0 0 0 0 0 0 0 0 0 0 0 0 0 0 
0 0 0 0 0 0 0 0 0 0 0 0 0 0 0 0 0 2 14 13 19 81 146 161 173 189 199 183 162 154 154 148 146 143 134 132 129 123 120 120 119 118 116 112 108 106 107 107 108 106 97 97 101 111 114 114 116 116 116 118 118 115 117 118 118 118 120 128 132 134 139 138 140 141 146 156 163 182 199 194 186 174 156 82 11 0 0 0 0 0 0 0 0 1 1 3 5 0 0 0 0 0 0 0 0 0 0 0 0 0 0 0 0 0 0 0 0 0 0 0 0 0 0 0 0 0 0 0 
0 0 0 0 0 0 0 0 0 0 0 0 0 0 0 0 0 11 11 16 73 140 155 169 184 196 182 160 153 151 145 142 143 137 128 126 120 119 119 119 115 111 107 107 108 109 106 106 107 99 99 102 105 109 114 116 117 115 117 117 120 118 116 115 116 117 117 121 129 131 130 130 133 137 141 147 156 159 184 198 193 183 167 140 53 4 0 0 0 0 0 0 1 1 1 3 6 0 0 0 0 0 0 0 0 0 0 0 0 0 0 0 0 0 0 0 0 0 0 0 0 0 0 0 0 0 0 0 
0 0 0 0 0 0 0 0 0 0 0 0 0 0 0 0 6 12 14 60 132 149 164 180 193 184 157 152 148 142 138 139 131 125 123 118 119 121 120 116 113 110 111 112 111 108 107 106 102 98 101 105 106 106 105 102 106 107 107 107 109 111 112 110 109 109 112 117 120 126 127 127 126 131 136 137 146 152 156 186 199 191 178 159 116 25 1 0 0 0 0 0 1 1 1 3 6 0 0 0 0 0 0 0 0 0 0 0 0 0 0 0 0 0 0 0 0 0 0 0 0 0 0 0 0 0 0 0 
0 0 0 0 0 0 0 0 0 0 0 0 0 0 0 2 12 13 46 121 145 159 174 188 184 158 148 145 141 139 137 129 126 126 121 120 119 116 116 113 109 105 104 105 106 106 106 107 104 102 108 107 105 105 103 102 103 102 101 101 104 107 109 107 107 108 110 111 114 119 123 124 121 124 133 136 142 146 147 158 191 195 185 170 146 78 7 0 0 0 0 0 1 1 1 3 6 0 0 0 0 0 0 0 0 0 0 0 0 0 0 0 0 0 0 0 0 0 0 0 0 0 0 0 0 0 0 0 
0 0 0 0 0 0 0 0 0 0 0 0 0 0 0 7 10 26 101 136 151 167 183 185 162 147 143 139 139 140 131 126 125 120 120 117 114 114 111 103 101 100 101 101 99 99 102 104 103 105 110 110 106 108 107 107 105 104 103 102 101 102 107 106 106 107 109 112 112 112 117 123 123 118 125 137 141 139 143 145 168 192 189 177 159 121 30 1 0 0 0 0 1 1 1 3 6 0 0 0 0 0 0 0 0 0 0 0 0 0 0 0 0 0 0 0 0 0 0 0 0 0 0 0 0 0 0 0 
0 0 0 0 0 0 0 0 0 0 0 0 0 0 2 9 13 73 128 143 159 176 179 170 146 138 137 136 139 135 128 122 120 121 119 111 114 110 104 101 102 99 98 97 96 99 105 105 104 105 111 108 104 107 101 102 102 103 103 103 101 102 103 106 105 105 106 110 112 110 110 118 123 122 121 130 142 136 137 138 146 178 188 181 165 141 68 4 0 0 0 0 1 1 1 3 6 0 0 0 0 0 0 0 0 0 0 0 0 0 0 0 0 0 0 0 0 0 0 0 0 0 0 0 0 0 0 0 
0 0 0 0 0 0 0 0 0 0 0 0 0 0 6 9 40 112 134 150 170 176 168 157 136 132 135 136 138 131 124 121 121 117 111 108 108 105 103 100 97 95 94 96 100 103 103 100 96 98 108 107 101 100 90 91 95 98 99 100 100 102 101 101 104 105 102 103 111 112 107 113 118 123 122 126 140 139 134 131 137 161 180 181 171 152 105 16 0 0 0 0 1 1 1 3 6 0 0 0 0 0 0 0 0 0 0 0 0 0 0 0 0 0 0 0 0 0 0 0 0 0 0 0 0 0 0 0 
0 0 0 0 0 0 0 0 0 0 0 0 0 0 7 15 83 124 142 158 174 163 160 142 131 132 133 137 133 126 120 117 115 112 109 108 106 101 99 97 94 94 98 99 98 100 100 99 100 96 99 104 106 100 97 95 93 99 98 97 96 97 100 101 102 107 105 103 105 113 110 110 117 119 127 126 134 139 132 126 130 153 170 179 174 158 128 38 1 0 0 0 1 1 1 3 6 0 0 0 0 0 0 0 0 0 0 0 0 0 0 0 0 0 0 0 0 0 0 0 0 0 0 0 0 0 0 0 
0 0 0 0 0 0 0 0 0 0 0 0 0 3 6 37 109 132 147 166 169 159 152 132 129 128 130 135 129 121 122 118 113 111 109 108 100 96 97 94 96 99 99 98 98 100 102 102 100 95 95 99 108 99 92 90 97 100 95 98 99 97 96 99 103 106 106 106 105 108 112 109 114 116 122 132 132 134 129 123 123 148 161 178 175 162 138 60 3 0 0 0 1 1 1 3 6 0 0 0 0 0 0 0 0 0 0 0 0 0 0 0 0 0 0 0 0 0 0 0 0 0 0 0 0 0 0 0 
0 0 0 0 0 0 0 0 0 0 0 0 0 4 9 68 122 137 153 170 156 151 141 128 128 125 128 132 121 121 123 116 114 112 106 100 99 98 97 99 101 100 98 100 102 103 102 98 98 97 98 101 112 101 96 99 101 99 94 94 97 100 97 97 101 104 107 108 108 108 110 112 114 113 118 131 133 127 125 122 116 141 156 174 176 163 144 81 6 0 0 0 1 1 1 3 6 0 0 0 0 0 0 0 0 0 0 0 0 0 0 0 0 0 0 0 0 0 0 0 0 0 0 0 0 0 0 0 
0 0 0 0 0 0 0 0 0 0 0 0 0 5 17 94 127 143 161 163 144 142 135 124 122 121 126 126 115 122 120 115 118 110 104 101 102 99 102 104 105 99 98 98 102 102 101 106 109 106 102 104 112 101 100 104 105 107 107 101 96 96 100 102 102 103 108 112 110 109 110 115 116 113 115 125 130 124 120 123 117 135 150 171 177 165 148 97 10 0 0 0 1 1 1 4 6 0 0 0 0 0 0 0 0 0 0 0 0 0 0 0 0 0 0 0 0 0 0 0 0 0 0 0 0 0 0 0 
0 0 0 0 0 0 0 0 0 0 0 0 1 6 33 111 131 149 162 146 134 135 133 123 115 120 120 119 115 120 115 117 118 108 101 103 104 105 107 104 96 95 97 101 104 103 105 108 107 99 92 94 104 94 93 93 92 95 100 105 106 106 103 102 107 105 107 113 113 109 110 114 118 117 116 121 124 123 117 118 115 133 154 167 177 168 151 112 16 0 0 0 1 1 1 4 6 0 0 0 0 0 0 0 0 0 0 0 0 0 0 0 0 0 0 0 0 0 0 0 0 0 0 0 0 0 0 0 
0 0 0 0 0 0 0 0 0 0 0 0 2 6 49 118 136 154 155 138 129 132 136 121 113 117 116 118 116 115 115 118 114 106 102 110 110 106 102 92 92 96 98 99 101 100 98 98 97 90 87 95 95 92 94 93 93 91 89 95 103 108 108 105 106 113 111 113 115 116 110 112 115 118 117 120 118 118 114 114 111 129 151 162 178 171 155 126 26 0 0 0 1 1 1 4 6 0 0 0 0 0 0 0 0 0 0 0 0 0 0 0 0 0 0 0 0 0 0 0 0 0 0 0 0 0 0 0 
0 0 0 0 0 0 0 0 0 0 0 0 3 7 62 123 142 158 149 135 126 132 135 117 112 110 113 118 114 110 116 117 112 106 110 115 112 106 97 89 91 94 99 99 97 96 90 91 89 86 90 98 93 91 90 85 83 88 88 89 96 102 107 108 109 107 109 107 113 117 116 112 116 116 118 120 113 113 113 113 113 129 152 163 179 176 160 135 37 1 0 0 1 1 1 4 6 0 0 0 0 0 0 0 0 0 0 0 0 0 0 0 0 0 0 0 0 0 0 0 0 0 0 0 0 0 0 0 
0 0 0 0 0 0 0 0 0 0 0 0 3 9 72 127 146 156 148 138 128 132 132 120 114 107 112 116 106 108 117 116 110 109 114 116 112 106 104 94 95 95 96 100 95 91 90 87 86 86 90 95 93 85 81 83 80 82 88 91 92 99 104 102 99 105 111 112 118 118 121 118 116 117 115 121 111 109 110 109 113 134 153 163 178 177 165 145 49 2 0 0 1 1 1 4 6 0 0 0 0 0 0 0 0 0 0 0 0 0 0 0 0 0 0 0 0 0 0 0 0 0 0 0 0 0 0 0 
0 0 0 0 0 0 0 0 0 0 0 0 4 10 80 132 151 159 149 140 132 132 132 123 113 107 112 112 103 108 118 114 110 115 115 116 116 111 111 113 110 104 102 101 98 97 93 93 90 88 92 94 100 90 86 87 85 82 88 90 93 97 95 98 106 113 115 120 119 116 122 124 125 120 116 125 115 108 106 106 117 136 151 161 180 179 168 152 61 3 0 0 1 1 1 4 6 0 0 0 0 0 0 0 0 0 0 0 0 0 0 0 0 0 0 0 0 0 0 0 0 0 0 0 0 0 0 0 
0 0 0 0 0 0 0 0 0 0 0 0 4 12 85 135 155 162 151 144 137 135 134 126 115 109 111 110 100 107 119 116 116 118 120 118 109 98 95 98 97 97 104 102 98 98 97 94 94 94 96 96 106 97 92 92 87 81 85 87 93 94 99 106 105 102 100 100 101 101 109 118 127 134 124 127 127 113 107 110 123 136 149 158 178 182 170 154 76 5 0 0 1 1 1 4 6 0 0 0 0 0 0 0 0 0 0 0 0 0 0 0 0 0 0 0 0 0 0 0 0 0 0 0 0 0 0 0 
0 0 0 0 0 0 0 0 0 0 0 0 4 13 88 138 156 163 150 144 142 140 136 128 119 112 110 104 99 111 123 119 122 123 114 107 99 87 82 86 86 83 83 88 95 105 103 94 89 87 93 95 107 103 97 94 87 79 84 87 95 104 98 92 92 93 95 94 92 92 95 101 111 126 139 138 136 124 112 118 128 136 143 152 172 183 173 157 90 7 0 0 1 1 1 4 6 0 0 0 0 0 0 0 0 0 0 0 0 0 0 0 0 0 0 0 0 0 0 0 0 0 0 0 0 0 0 0 
0 0 0 0 0 0 0 0 0 0 0 0 6 13 92 143 160 162 151 144 141 138 138 137 127 118 112 103 103 118 127 123 128 114 102 95 88 83 82 85 83 83 84 83 85 92 99 101 91 91 96 99 104 104 101 100 91 86 87 90 103 90 87 84 86 95 98 97 98 97 95 97 98 112 136 151 143 135 124 124 131 131 137 145 161 182 175 160 103 10 0 0 1 1 1 3 6 0 0 0 0 0 0 0 0 0 0 0 0 0 0 0 0 0 0 0 0 0 0 0 0 0 0 0 0 0 0 0 
0 0 0 0 0 0 0 0 0 0 0 0 7 14 95 145 160 162 148 142 139 135 134 136 132 122 119 111 108 125 131 129 112 97 93 92 86 83 87 91 89 84 81 83 86 89 89 96 91 89 94 102 106 106 108 100 91 85 84 101 94 84 85 84 90 97 101 103 102 101 102 107 109 115 130 150 147 140 133 129 128 126 131 138 151 176 177 162 116 15 0 0 1 1 1 3 6 0 0 0 0 0 0 0 0 0 0 0 0 0 0 0 0 0 0 0 0 0 0 0 0 0 0 0 0 0 0 0 
0 0 0 0 0 0 0 0 0 0 0 0 7 15 96 147 164 164 143 138 136 135 130 129 128 127 122 119 127 132 135 123 100 93 92 90 86 88 90 88 88 89 85 82 82 85 91 96 99 98 104 109 114 113 117 103 92 86 90 103 85 81 78 81 89 95 100 103 104 105 104 104 112 124 131 134 141 138 140 130 126 121 126 132 142 167 175 161 126 23 0 0 1 1 1 3 6 0 0 0 0 0 0 0 0 0 0 0 0 0 0 0 0 0 0 0 0 0 0 0 0 0 0 0 0 0 0 0 
0 0 0 0 0 0 0 0 0 0 0 0 7 15 98 149 165 165 135 131 133 132 128 124 124 127 124 119 130 140 144 121 110 102 100 96 90 89 86 85 84 86 85 84 83 86 95 101 102 104 112 116 125 116 123 108 97 93 100 98 81 76 80 87 92 97 101 102 103 103 104 106 115 119 122 124 128 137 142 130 122 118 123 121 132 158 175 162 132 33 1 0 1 1 1 3 6 0 0 0 0 0 0 0 0 0 0 0 0 0 0 0 0 0 0 0 0 0 0 0 0 0 0 0 0 0 0 0 
0 0 0 0 0 0 0 0 0 0 0 0 7 16 99 149 166 165 132 130 133 128 124 119 119 120 119 120 129 134 132 122 119 111 105 99 96 91 87 86 88 88 86 85 88 89 93 101 99 104 111 118 117 114 116 116 106 101 100 90 78 78 88 92 92 96 99 100 99 98 101 108 112 111 115 118 121 133 139 128 118 112 115 113 121 147 171 163 136 43 1 0 1 1 1 3 6 0 0 0 0 0 0 0 0 0 0 0 0 0 0 0 0 0 0 0 0 0 0 0 0 0 0 0 0 0 0 0 
0 0 0 0 0 0 0 0 0 0 0 0 8 17 102 152 168 163 128 128 129 122 117 111 112 115 118 121 123 122 120 113 110 108 104 98 93 89 87 83 85 86 87 90 90 93 93 97 100 102 108 105 106 114 113 115 108 103 100 86 79 85 88 89 88 92 96 97 96 96 96 104 111 111 113 113 122 133 138 127 114 108 110 109 114 135 168 163 139 50 2 0 1 1 1 4 6 0 0 0 0 0 0 0 0 0 0 0 0 0 0 0 0 0 0 0 0 0 0 0 0 0 0 0 0 0 0 0 
0 0 0 0 0 0 0 0 0 0 0 0 8 17 102 153 169 159 123 123 120 115 108 103 105 110 115 124 122 116 114 110 103 105 101 96 88 88 89 86 81 83 86 92 93 91 92 93 98 103 112 108 101 106 108 115 109 109 106 85 83 84 88 86 81 87 95 96 95 94 96 103 107 109 107 110 123 133 135 129 118 106 106 105 107 124 154 160 142 57 2 0 1 1 1 4 6 0 0 0 0 0 0 0 0 0 0 0 0 0 0 0 0 0 0 0 0 0 0 0 0 0 0 0 0 0 0 0 
0 0 0 0 0 0 0 0 0 0 0 0 8 18 100 154 168 153 116 115 113 108 102 97 100 103 108 124 123 117 111 109 103 101 97 90 86 85 85 82 81 83 86 90 90 89 90 89 90 106 120 121 110 97 102 97 115 108 100 88 88 88 88 78 78 85 93 95 94 93 95 102 103 108 104 109 122 131 130 133 126 107 106 106 107 119 135 152 143 61 2 0 1 1 1 3 6 0 0 0 0 0 0 0 0 0 0 0 0 0 0 0 0 0 0 0 0 0 0 0 0 0 0 0 0 0 0 0 
0 0 0 0 0 0 0 0 0 0 0 0 8 17 98 153 167 144 114 111 106 103 100 98 99 98 109 120 119 117 109 109 106 99 96 91 88 87 87 85 81 83 90 92 88 89 92 86 86 102 115 121 103 91 93 85 105 120 94 92 88 87 83 80 83 88 94 95 92 91 94 100 101 104 101 111 125 133 137 136 129 107 105 104 108 118 131 151 143 63 2 0 1 1 1 3 6 0 0 0 0 0 0 0 0 0 0 0 0 0 0 0 0 0 0 0 0 0 0 0 0 0 0 0 0 0 0 0 
0 0 0 0 0 0 0 0 0 0 0 0 7 16 93 150 165 136 114 107 105 105 101 98 101 101 111 115 116 116 111 110 106 98 95 92 88 89 90 89 81 81 85 87 87 88 90 85 87 101 113 108 88 83 88 82 88 123 88 88 86 85 81 85 88 91 95 94 93 92 94 98 101 100 100 115 134 140 136 134 128 107 105 101 107 116 131 154 137 60 2 0 1 1 1 3 6 0 0 0 0 0 0 0 0 0 0 0 0 0 0 0 0 0 0 0 0 0 0 0 0 0 0 0 0 0 0 0 
0 0 0 0 0 0 0 0 0 0 0 0 6 15 84 148 163 132 112 106 103 104 101 97 99 101 111 112 112 115 116 110 104 103 96 89 89 90 90 88 85 84 80 81 84 84 88 85 91 104 107 91 84 83 91 81 83 112 104 86 83 80 80 88 88 90 93 95 92 92 95 97 101 95 98 118 140 132 129 134 126 106 104 99 106 113 130 152 132 55 2 0 1 1 1 3 6 0 0 0 0 0 0 0 0 0 0 0 0 0 0 0 0 0 0 0 0 0 0 0 0 0 0 0 0 0 0 0 
0 0 0 0 0 0 0 0 0 0 0 0 4 15 78 144 162 134 113 108 101 103 103 97 97 97 108 113 109 112 117 110 102 104 98 95 95 93 92 89 85 85 83 80 81 82 83 75 89 105 103 89 85 89 98 84 81 92 113 91 82 77 79 88 88 92 95 95 89 88 93 98 99 91 100 119 136 124 122 133 124 105 104 100 104 111 132 148 126 49 2 0 1 1 1 3 6 0 0 0 0 0 0 0 0 0 0 0 0 0 0 0 0 0 0 0 0 0 0 0 0 0 0 0 0 0 0 0 
0 0 0 0 0 0 0 0 0 0 0 0 2 14 71 140 158 138 114 107 101 100 101 99 97 93 103 113 110 112 119 112 100 102 99 96 94 93 93 89 88 87 82 80 78 80 79 79 96 106 91 85 83 92 102 89 84 81 106 100 96 85 82 87 88 91 95 91 86 89 93 97 94 91 101 118 126 121 119 129 122 103 103 100 101 111 136 143 117 43 2 0 0 1 1 3 6 0 0 0 0 0 0 0 0 0 0 0 0 0 0 0 0 0 0 0 0 0 0 0 0 0 0 0 0 0 0 0 
0 0 0 0 0 0 0 0 0 6 5 0 0 12 63 133 154 140 116 104 101 97 102 100 96 92 99 112 112 118 122 109 100 100 101 96 92 91 92 89 91 92 87 83 87 97 95 94 102 100 89 84 85 99 100 92 87 82 91 105 108 106 100 93 91 94 99 94 86 90 93 98 92 92 104 115 120 119 122 128 122 103 99 98 98 111 138 137 107 37 1 0 0 1 1 3 6 0 0 0 0 0 0 0 0 0 0 0 0 0 0 0 0 0 0 0 0 0 0 0 0 0 0 0 0 0 0 0 
0 0 0 0 0 0 0 0 0 3 9 3 1 9 52 124 152 139 115 104 98 97 102 100 95 90 102 115 116 119 121 111 99 97 102 96 90 89 89 89 98 100 97 90 95 97 103 96 109 93 91 85 87 98 96 93 94 88 85 113 114 118 113 99 95 94 97 96 89 87 87 93 93 93 101 117 119 122 124 129 127 106 95 96 99 111 139 132 98 32 1 0 0 1 1 3 6 0 0 0 0 0 0 0 0 0 0 0 0 0 0 0 0 0 0 0 0 0 0 0 0 0 0 0 0 0 0 0 
0 0 0 0 0 0 0 0 0 2 5 9 3 7 41 114 145 137 111 102 95 95 102 103 96 89 102 115 118 115 113 111 100 97 100 96 87 90 89 92 96 97 94 97 105 112 107 104 111 86 89 83 86 101 94 86 93 89 93 116 118 110 110 113 109 108 106 98 93 88 89 98 97 100 107 124 127 126 127 132 134 116 96 94 99 117 139 126 91 26 0 0 0 1 1 3 5 0 0 0 0 0 0 0 0 0 0 0 0 0 0 0 0 0 0 0 0 0 0 0 0 0 0 0 0 0 0 0 
0 0 0 0 0 0 0 0 0 0 3 10 4 7 32 100 140 140 111 103 99 98 100 101 98 91 104 114 117 119 122 119 113 102 99 97 90 90 96 99 100 100 103 111 105 98 96 113 109 83 83 82 85 104 91 83 85 83 90 114 128 114 111 111 112 122 134 128 121 117 123 123 120 123 133 136 121 118 129 135 138 124 101 97 106 127 140 118 83 18 1 0 1 8 5 3 6 0 0 0 0 0 0 0 0 0 0 0 0 0 0 0 0 0 0 0 0 0 0 0 0 0 0 0 0 0 0 0 
0 0 0 0 0 0 0 0 0 0 3 9 6 7 25 89 136 145 116 108 105 97 96 100 99 97 106 113 113 115 124 124 121 126 117 109 107 108 113 112 112 105 93 96 106 102 97 107 108 80 78 83 86 98 87 76 76 79 85 121 131 112 106 105 112 125 146 148 141 144 147 147 141 130 132 137 132 123 129 135 137 125 117 110 106 136 135 113 76 11 3 2 6 2 2 3 6 0 0 0 0 0 0 0 0 0 0 0 0 0 0 0 0 0 0 0 0 0 0 0 0 0 0 0 0 0 0 0 
0 0 0 0 0 0 0 0 0 0 1 8 7 7 19 80 128 149 132 109 104 94 94 99 103 111 109 115 119 117 120 119 112 118 122 124 126 119 116 114 111 104 101 104 102 97 92 102 104 84 81 87 84 100 88 76 80 87 96 126 128 115 103 106 114 126 140 145 144 151 147 143 135 127 135 128 136 138 141 133 135 130 124 124 140 138 118 110 66 8 2 2 4 3 1 3 6 0 0 0 0 0 0 0 0 0 0 0 0 0 0 0 0 0 0 0 0 0 0 0 0 0 0 0 0 0 0 0 
0 0 0 0 0 0 0 0 0 0 1 8 7 9 14 66 120 146 146 115 106 96 97 108 117 113 117 119 122 119 125 130 128 125 122 125 125 119 120 118 112 105 92 91 95 94 93 99 109 99 87 83 87 101 94 81 86 96 104 116 117 117 110 113 121 129 137 140 141 142 140 144 147 149 145 146 146 151 160 155 149 144 143 150 161 136 107 104 52 6 2 2 3 2 1 3 6 0 0 0 0 0 0 0 0 0 0 0 0 0 0 0 0 0 0 0 0 0 0 0 0 0 0 0 0 0 0 0 
0 0 0 0 0 0 0 0 0 0 0 7 8 9 13 54 112 142 151 130 111 110 116 117 124 123 123 130 128 115 128 144 145 149 148 138 138 137 127 112 100 94 94 89 88 91 98 110 112 91 92 94 87 106 92 86 88 99 106 109 117 109 112 116 120 130 147 146 148 151 149 153 157 144 131 136 138 150 158 161 166 168 166 174 176 132 118 101 31 6 4 2 2 1 1 3 6 0 0 0 0 0 0 0 0 0 0 0 0 0 0 0 0 0 0 0 0 0 0 0 0 0 0 0 0 0 0 0 
0 0 0 0 0 0 0 0 0 0 0 8 10 8 8 37 107 139 148 143 133 143 133 132 139 137 139 134 128 128 136 157 159 156 152 144 147 145 136 115 105 103 99 92 91 91 108 111 98 89 92 94 95 117 100 86 85 94 104 104 113 112 112 116 116 120 131 144 150 154 149 148 142 133 133 129 136 142 155 164 165 174 181 179 160 120 117 83 16 6 5 2 2 1 1 3 5 0 0 0 0 0 0 0 0 0 0 0 0 0 0 0 0 0 0 0 0 0 0 0 0 0 0 0 0 0 0 0 
0 0 0 0 0 0 0 0 0 0 0 4 10 7 7 11 61 126 144 143 148 167 172 155 157 151 141 139 133 136 148 155 156 154 156 148 140 138 137 121 111 109 109 101 96 92 104 108 101 94 94 99 100 114 118 94 84 89 95 105 106 106 111 111 114 119 119 134 137 131 122 129 130 128 133 140 143 146 149 158 160 164 167 164 147 116 112 90 17 6 7 4 1 2 1 3 6 0 0 0 0 0 0 0 0 0 0 0 0 0 0 0 0 0 0 0 0 0 0 0 0 0 0 0 0 0 0 0 
0 0 0 0 0 0 0 0 0 0 0 6 8 5 7 9 37 113 146 146 151 168 170 169 165 163 157 149 138 127 139 149 158 157 157 151 146 143 130 111 106 108 108 108 104 101 113 108 104 99 96 102 106 119 118 102 85 83 88 99 105 100 98 109 115 116 123 130 130 121 117 119 114 123 130 140 138 144 142 147 149 166 157 142 120 117 117 62 9 5 7 4 2 2 1 2 5 0 0 0 0 0 0 0 0 0 0 0 0 0 0 0 0 0 0 0 0 0 0 0 0 0 0 0 0 0 0 0 
0 0 0 0 0 0 0 0 0 0 0 6 5 5 4 8 22 90 141 144 145 152 155 145 158 161 156 149 143 132 128 139 148 157 159 157 148 137 125 113 105 105 110 114 105 104 115 103 98 102 100 96 89 108 115 107 87 84 90 96 103 103 103 105 101 102 119 123 127 132 131 117 119 133 139 142 138 146 145 139 144 154 134 123 123 123 106 32 6 4 6 5 2 2 1 2 5 0 0 0 0 0 0 0 0 0 0 0 0 0 0 0 0 0 0 0 0 0 0 0 0 0 0 0 0 0 0 0 
0 0 0 0 0 0 0 0 0 0 0 5 3 5 2 7 17 61 131 144 141 132 145 146 139 147 148 147 141 137 129 131 137 142 145 148 146 137 129 119 101 99 101 99 96 100 113 96 102 112 106 97 88 96 115 117 95 92 97 92 100 112 116 123 111 91 91 99 110 121 121 115 122 137 146 150 147 148 146 139 132 137 132 115 117 120 76 16 7 6 5 3 3 2 1 2 5 0 0 0 0 0 0 0 0 0 0 0 0 0 0 0 0 0 0 0 0 0 0 0 0 0 0 0 0 0 0 0 
0 0 0 0 0 0 0 0 0 0 1 4 3 3 3 8 15 33 111 134 132 132 139 147 145 137 134 133 133 141 146 133 122 125 138 144 137 132 128 107 92 90 97 100 97 102 123 106 114 119 118 109 98 98 124 124 104 95 101 106 105 122 128 129 118 92 84 88 98 106 113 124 132 135 144 153 155 155 150 146 140 139 126 96 98 109 43 10 6 6 5 2 3 3 1 2 5 0 0 0 0 0 0 0 0 0 0 0 0 0 0 0 0 0 0 0 0 0 0 0 0 0 0 0 0 0 0 0 
0 0 0 0 0 0 0 0 0 0 1 4 4 4 2 8 15 17 81 118 120 129 135 146 138 134 133 125 130 146 151 138 118 110 127 138 138 134 118 99 88 97 99 102 107 112 121 119 119 120 128 128 117 114 138 132 113 103 111 117 115 128 128 125 119 104 89 85 93 111 118 131 129 126 137 147 157 161 168 159 145 124 104 85 96 86 21 11 5 6 5 1 2 3 1 2 5 0 0 0 0 0 0 0 0 0 0 0 0 0 0 0 0 0 0 0 0 0 0 0 0 0 0 0 0 0 0 0 
0 0 0 0 0 0 0 0 0 0 1 3 4 3 2 6 14 13 47 113 129 124 135 145 149 141 135 132 137 139 145 132 118 115 113 119 117 114 103 94 92 103 104 111 118 122 124 129 132 135 141 141 148 151 151 140 135 138 129 127 128 138 137 132 126 108 90 90 102 121 117 114 124 120 129 143 161 167 175 165 137 115 93 89 103 57 14 12 6 6 4 2 2 3 1 2 5 0 0 0 0 0 0 0 0 0 0 0 0 0 0 0 0 0 0 0 0 0 0 0 0 0 0 0 0 0 0 0 
0 0 0 0 0 0 0 0 0 0 1 3 6 3 2 6 11 14 25 99 121 113 121 130 154 152 149 140 145 142 144 139 127 122 111 115 104 95 91 101 103 109 113 116 127 135 134 139 147 148 147 151 160 168 170 163 157 150 139 139 144 161 162 151 136 122 119 117 119 123 107 112 125 120 120 145 156 171 170 157 126 104 86 92 97 32 10 12 6 5 4 2 2 3 2 2 4 0 0 0 0 0 0 0 0 0 0 0 0 0 0 0 0 0 0 0 0 0 0 0 0 0 0 0 0 0 0 0 
0 0 0 0 0 0 0 0 0 0 1 3 5 3 2 6 11 12 16 67 115 116 107 114 144 160 158 152 143 140 146 146 134 126 117 117 110 100 100 108 134 133 132 129 135 143 148 148 147 142 140 142 145 148 151 153 151 145 134 138 144 160 168 162 148 140 139 133 139 114 102 104 112 117 111 138 151 176 157 144 127 116 94 101 81 20 9 10 6 5 3 1 2 3 2 2 4 0 0 0 0 0 0 0 0 0 0 0 0 0 0 0 0 0 0 0 0 0 0 0 0 0 0 0 0 0 0 0 
0 0 0 0 0 0 0 0 0 0 1 4 5 3 1 5 9 9 12 39 93 110 111 111 131 152 161 162 144 139 142 144 135 125 116 118 119 118 122 128 136 151 154 147 151 152 153 158 149 147 143 148 147 149 147 148 146 146 138 142 142 151 165 164 167 161 151 153 142 109 95 98 107 117 119 138 154 172 153 130 109 103 107 97 65 17 9 9 6 4 3 2 3 3 2 2 4 0 0 0 0 0 0 0 0 0 0 0 0 0 0 0 0 0 0 0 0 0 0 0 0 0 0 0 0 0 0 0 
0 0 0 0 0 0 0 0 0 0 0 5 13 9 3 5 8 9 10 28 81 110 115 102 120 138 158 160 150 135 133 137 132 117 107 109 113 115 120 127 136 155 166 166 164 163 165 161 152 147 148 157 157 155 149 144 147 151 139 142 141 146 157 161 166 161 150 153 143 107 87 96 114 125 143 150 158 163 149 126 95 89 96 96 57 16 8 7 6 4 3 3 3 3 3 2 4 0 0 0 0 0 0 0 0 0 0 0 0 0 0 0 0 0 0 0 0 0 0 0 0 0 0 0 0 0 0 0 
0 0 0 0 0 0 0 0 0 0 0 5 12 12 9 8 8 11 14 21 64 97 112 111 112 115 145 151 160 138 128 128 133 107 97 101 105 112 115 116 125 147 158 161 163 162 167 166 158 154 152 160 159 155 149 129 130 137 130 129 130 144 148 162 168 168 162 160 145 106 93 100 107 120 156 171 172 169 151 103 87 87 96 90 39 16 6 4 6 4 2 3 3 4 3 2 4 0 0 0 0 0 0 0 0 0 0 0 0 0 0 0 0 0 0 0 0 0 0 0 0 0 0 0 0 0 0 0 
0 0 0 0 0 0 0 0 0 0 0 4 11 11 9 9 8 12 16 16 33 82 112 110 95 111 140 152 163 148 139 132 133 110 92 95 101 108 108 107 116 145 158 158 159 155 153 154 153 154 155 165 162 161 141 118 118 125 125 121 125 147 151 167 177 171 167 160 145 115 95 94 106 131 160 164 170 155 139 98 77 77 78 65 20 14 9 5 5 5 5 5 6 5 3 2 4 0 0 0 0 0 0 0 0 0 0 0 0 0 0 0 0 0 0 0 0 0 0 0 0 0 0 0 0 0 0 0 
0 0 0 0 0 0 0 0 0 0 0 2 11 11 9 9 9 10 14 14 17 49 104 107 104 106 126 147 162 162 151 139 130 121 101 92 94 95 95 103 124 145 153 154 153 149 147 145 143 138 151 152 144 160 154 130 126 129 127 120 138 158 148 168 169 167 166 168 160 121 117 118 132 145 144 144 127 101 101 74 66 86 89 35 12 8 9 7 5 6 6 6 12 6 3 2 3 0 0 0 0 0 0 0 0 0 0 0 0 0 0 0 0 0 0 0 0 0 0 0 0 0 0 0 0 0 0 0 
0 0 0 0 0 0 0 0 0 0 0 0 9 10 7 6 5 6 10 14 20 28 69 94 88 86 108 143 151 163 162 145 133 129 121 103 99 103 112 135 137 159 174 168 165 158 155 164 170 170 173 160 158 171 175 161 152 155 155 150 154 158 171 183 171 164 156 173 162 159 139 140 142 138 111 94 89 83 85 71 92 95 53 19 12 1 2 5 5 5 5 6 9 4 1 2 3 0 0 0 0 0 0 0 0 0 0 0 0 0 0 0 0 0 0 0 0 0 0 0 0 0 0 0 0 0 0 0 
0 0 0 0 0 0 0 0 0 0 0 0 3 7 4 3 3 3 5 12 17 21 36 78 81 67 85 103 105 141 147 149 144 141 134 114 117 117 125 136 156 176 187 187 188 193 189 195 184 179 178 181 175 170 170 165 162 167 176 179 182 183 197 197 193 199 180 184 153 133 146 135 104 83 76 80 81 78 83 74 71 47 28 22 13 2 0 1 1 3 4 6 8 1 1 2 2 0 0 0 0 0 0 0 0 0 0 0 0 0 0 0 0 0 0 0 0 0 0 0 0 0 0 0 0 0 0 0 
0 0 0 0 0 0 0 0 0 0 0 0 0 2 3 2 1 0 0 8 12 19 26 46 77 80 63 57 72 80 101 116 131 131 127 121 113 127 141 161 165 173 176 170 178 192 187 190 178 165 158 166 165 163 159 156 160 160 158 171 171 186 196 179 166 187 173 158 155 142 125 105 93 80 77 90 95 89 70 49 43 41 34 24 17 0 0 1 1 1 2 7 6 0 1 2 3 0 0 0 0 0 0 0 0 0 0 0 0 0 0 0 0 0 0 0 0 0 0 0 0 0 0 0 0 0 0 0 
0 0 0 0 0 0 0 0 0 0 0 0 0 2 5 4 4 3 2 3 10 13 19 22 36 49 34 42 71 64 64 64 81 84 76 90 82 72 78 78 90 115 131 137 133 132 128 115 124 102 94 103 112 118 115 108 95 94 110 105 101 112 99 139 130 141 121 80 62 62 58 64 67 57 56 77 81 81 50 29 29 26 19 7 3 0 4 3 3 2 2 8 4 0 1 2 3 0 0 0 0 0 0 0 0 0 0 0 0 0 0 0 0 0 0 0 0 0 0 0 0 0 0 0 0 0 0 0 
0 0 0 0 0 0 0 0 0 0 0 0 0 0 3 2 3 3 2 1 6 10 14 16 21 22 22 33 69 65 59 61 60 65 57 61 70 61 69 73 83 89 81 82 90 95 84 71 78 81 58 72 91 91 90 90 74 64 77 78 84 99 84 74 74 93 87 99 113 99 62 61 69 58 53 75 82 79 47 29 28 24 16 6 2 1 2 2 2 2 3 4 1 0 1 1 3 0 0 0 0 0 0 0 0 0 0 0 0 0 0 0 0 0 0 0 0 0 0 0 0 0 0 0 0 0 0 0 
0 0 0 0 0 0 0 0 0 0 0 0 0 0 0 0 0 1 0 0 3 9 10 14 20 26 28 37 69 74 66 64 65 72 65 59 76 95 109 121 134 134 106 96 100 104 100 101 108 92 76 91 98 96 96 95 85 72 93 109 107 116 105 93 115 135 91 79 114 87 78 76 74 71 73 89 91 84 52 35 27 23 12 7 2 0 0 0 0 1 1 1 0 0 0 1 3 0 0 0 0 0 0 0 0 0 0 0 0 0 0 0 0 0 0 0 0 0 0 0 0 0 0 0 0 0 0 0 
0 0 0 0 0 0 0 0 0 0 0 0 0 0 0 0 0 0 0 0 0 3 5 7 14 28 32 45 76 90 82 75 73 82 81 81 92 119 120 143 160 163 152 133 136 154 157 153 141 118 113 119 120 121 121 121 113 106 116 139 152 154 142 148 156 155 126 131 126 122 109 104 89 82 85 85 81 78 53 39 24 15 6 6 1 0 0 0 0 0 0 0 0 0 0 1 2 0 0 0 0 0 0 0 0 0 0 0 0 0 0 0 0 0 0 0 0 0 0 0 0 0 0 0 0 0 0 0 
0 0 0 0 0 0 0 0 0 0 0 0 0 0 0 0 0 0 0 0 0 2 3 6 9 22 30 39 64 82 77 74 78 87 90 88 99 124 117 115 157 165 166 150 161 174 173 166 161 161 162 155 157 159 158 155 154 150 152 152 155 170 165 163 154 157 151 119 148 141 117 124 93 74 60 67 70 55 31 23 17 14 8 2 0 0 0 0 0 0 0 0 0 0 0 1 1 0 0 0 0 0 0 0 0 0 0 0 0 0 0 0 0 0 0 0 0 0 0 0 0 0 0 0 0 0 0 0 
0 0 0 0 0 0 0 0 0 0 0 0 0 0 0 0 0 0 0 0 0 0 2 4 8 16 30 37 55 77 78 71 72 76 72 67 72 93 104 89 125 130 120 101 126 133 148 162 159 150 142 134 139 135 137 131 134 136 139 132 136 141 124 128 129 110 119 136 153 153 105 63 45 52 59 78 74 43 24 20 11 8 7 1 1 1 1 1 1 0 0 0 0 1 3 5 7 0 0 0 0 0 0 0 0 0 0 0 0 0 0 0 0 0 0 0 0 0 0 0 0 0 0 0 0 0 0 0 
0 0 0 0 0 0 0 0 0 0 0 0 0 0 0 0 0 0 0 0 0 0 3 7 9 15 19 22 32 55 66 65 63 65 53 53 59 67 82 110 108 112 108 93 93 111 126 127 122 115 114 91 108 108 105 96 106 110 107 111 112 117 121 102 108 125 139 124 131 122 95 64 50 52 69 99 84 44 26 18 17 12 7 1 0 0 1 1 1 0 0 0 0 0 1 2 4 0 0 0 0 0 0 0 0 0 0 0 0 0 0 0 0 0 0 0 0 0 0 0 0 0 0 0 0 0 0 0 
0 0 0 0 0 0 0 0 0 0 0 0 0 0 0 0 0 0 0 0 0 0 2 6 9 13 18 21 24 46 61 73 71 68 55 55 60 66 85 99 99 103 100 100 107 120 128 125 119 110 102 83 95 96 99 94 106 114 113 106 102 109 100 86 82 105 119 120 118 101 94 68 51 56 78 106 85 48 25 19 18 12 7 1 0 0 0 1 1 0 0 0 0 0 1 2 3 0 0 0 0 0 0 0 0 0 0 0 0 0 0 0 0 0 0 0 0 0 0 0 0 0 0 0 0 0 0 0 
0 0 0 0 0 0 0 0 0 0 0 0 0 0 0 0 0 0 0 0 0 0 1 4 9 10 16 21 22 38 56 74 75 70 60 58 50 53 69 94 95 85 89 91 99 113 118 127 123 115 107 93 98 97 97 92 103 102 113 115 110 120 116 101 98 96 107 114 107 91 74 63 57 66 89 109 84 49 25 19 17 11 5 0 0 0 0 1 1 0 0 0 0 0 1 2 3 0 0 0 0 0 0 0 0 0 0 0 0 0 0 0 0 0 0 0 0 0 0 0 0 0 0 0 0 0 0 0 
0 0 0 0 0 0 0 0 0 0 0 0 0 0 0 0 0 0 0 0 0 0 0 3 6 9 14 19 23 32 46 69 76 73 66 58 48 52 59 69 74 76 85 90 97 104 109 117 133 127 115 101 102 98 91 92 96 96 103 114 124 142 131 109 100 95 97 103 106 98 78 61 56 65 97 111 82 52 26 18 15 10 4 1 0 0 0 1 1 0 0 0 0 0 1 2 2 0 0 0 0 0 0 0 0 0 0 0 0 0 0 0 0 0 0 0 0 0 0 0 0 0 0 0 0 0 0 0 
0 0 0 0 0 0 0 0 0 0 0 0 0 0 0 0 0 0 0 0 0 0 0 0 5 8 11 16 21 29 43 61 79 77 69 64 52 54 56 60 63 73 87 92 100 103 103 106 125 117 115 106 98 96 91 94 95 96 100 112 117 124 119 103 100 101 98 92 95 92 82 70 62 66 95 106 80 52 25 16 15 9 2 0 0 0 1 1 1 1 0 0 0 0 1 2 2 0 0 0 0 0 0 0 0 0 0 0 0 0 0 0 0 0 0 0 0 0 0 0 0 0 0 0 0 0 0 0 
0 0 0 0 0 0 0 0 0 0 0 0 0 0 0 0 0 0 0 0 0 0 0 0 2 5 9 12 18 25 41 53 77 74 76 70 60 58 55 55 64 70 83 97 104 101 98 94 101 105 113 106 98 97 93 89 93 97 106 110 109 106 109 103 106 107 104 85 79 74 66 70 70 78 94 103 77 42 19 15 15 8 2 0 0 0 0 1 1 1 0 0 0 0 1 2 2 0 0 0 0 0 0 0 0 0 0 0 0 0 0 0 0 0 0 0 0 0 0 0 0 0 0 0 0 0 0 0 
0 0 0 0 0 0 0 0 0 0 0 0 0 0 0 0 0 0 0 0 0 0 0 0 1 4 6 12 15 20 34 52 66 69 80 72 65 63 56 51 62 66 80 95 98 96 99 88 84 93 108 100 95 96 93 92 94 102 103 102 102 104 97 94 98 94 98 81 73 68 60 72 78 84 99 85 48 23 17 16 15 8 1 0 1 0 0 1 1 1 0 0 0 0 1 2 2 0 0 0 0 0 0 0 0 0 0 0 0 0 0 0 0 0 0 0 0 0 0 0 0 0 0 0 0 0 0 0 
0 0 0 0 0 0 0 0 0 0 0 0 0 0 0 0 0 0 0 0 0 0 0 0 0 3 4 8 14 18 21 32 41 45 71 73 68 69 55 49 59 64 73 83 88 91 99 85 82 93 111 102 98 101 102 98 99 104 102 96 97 96 90 90 92 84 85 73 72 69 58 74 82 88 99 44 18 16 17 18 16 8 1 0 0 0 0 1 1 1 0 0 0 0 1 2 1 0 0 0 0 0 0 0 0 0 0 0 0 0 0 0 0 0 0 0 0 0 0 0 0 0 0 0 0 0 0 0 
0 0 0 0 0 0 0 0 0 0 0 0 0 0 0 0 0 0 0 0 0 0 0 0 0 0 5 4 12 16 19 19 19 15 31 75 78 74 61 59 63 60 66 75 77 81 94 87 86 97 94 96 98 98 91 93 107 105 94 86 93 94 95 90 86 80 75 71 68 72 67 77 88 92 70 24 16 15 17 17 14 7 1 1 1 0 0 1 1 1 0 0 0 0 1 2 1 0 0 0 0 0 0 0 0 0 0 0 0 0 0 0 0 0 0 0 0 0 0 0 0 0 0 0 0 0 0 0 
0 0 0 0 0 0 0 0 0 0 0 0 0 0 0 0 0 0 0 0 0 0 0 0 0 0 2 4 8 13 17 18 18 17 13 38 73 79 72 70 70 62 66 74 78 77 87 90 99 101 89 90 96 96 92 94 104 106 95 86 93 97 104 97 93 83 81 80 70 78 83 86 89 75 35 19 13 15 17 16 12 6 1 0 1 0 0 0 1 1 0 0 0 0 0 2 1 0 0 0 0 0 0 0 0 0 0 0 0 0 0 0 0 0 0 0 0 0 0 0 0 0 0 0 0 0 0 0 
0 0 0 0 0 0 0 0 0 0 0 0 0 0 0 0 0 0 0 0 0 0 0 0 0 0 0 3 7 10 16 18 16 17 13 13 37 71 81 80 75 70 74 81 87 88 88 86 93 101 93 91 95 95 93 102 110 110 106 99 102 109 105 98 94 90 88 89 82 86 93 92 74 37 24 17 13 15 17 15 11 6 1 0 1 0 0 0 1 1 0 0 0 0 0 2 1 0 0 0 0 0 0 0 0 0 0 0 0 0 0 0 0 0 0 0 0 0 0 0 0 0 0 0 0 0 0 0 
0 0 0 0 0 0 0 0 0 0 0 0 0 0 0 0 0 0 0 0 0 0 0 0 0 0 0 2 6 7 12 17 17 17 14 13 17 32 62 74 83 86 84 86 100 98 87 89 89 102 98 94 93 96 97 106 110 108 109 105 97 101 103 101 94 96 102 101 92 92 88 69 36 25 23 17 13 15 15 14 10 5 1 1 1 0 0 0 1 1 0 0 0 0 0 2 1 0 0 0 0 0 0 0 0 0 0 0 0 0 0 0 0 0 0 0 0 0 0 0 0 0 0 0 0 0 0 0 
0 0 0 0 0 0 0 0 0 0 0 0 0 0 0 0 0 0 0 0 0 0 0 0 0 0 0 0 4 6 9 15 16 18 15 12 16 22 29 52 74 88 88 97 106 105 99 100 100 103 96 91 94 102 103 106 109 107 112 115 104 99 110 108 104 104 109 107 97 86 60 35 28 25 22 17 14 14 14 13 10 5 1 0 1 0 0 0 1 1 0 0 0 0 0 2 1 0 0 0 0 0 0 0 0 0 0 0 0 0 0 0 0 0 0 0 0 0 0 0 0 0 0 0 0 0 0 0 
0 0 0 0 0 0 0 0 0 0 0 0 0 0 0 0 0 0 0 0 0 0 0 0 0 0 0 0 1 7 7 12 16 16 15 12 14 21 25 29 38 60 78 92 106 107 103 104 102 98 103 101 103 104 99 100 102 107 112 116 114 99 110 114 109 103 110 101 79 48 30 29 27 24 20 16 13 14 14 12 9 5 1 0 0 0 0 0 1 1 0 0 0 0 0 1 1 0 0 0 0 0 0 0 0 0 0 0 0 0 0 0 0 0 0 0 0 0 0 0 0 0 0 0 0 0 0 0 
0 0 0 0 0 0 0 0 0 0 0 0 0 0 0 0 0 0 0 0 0 0 0 0 0 0 0 0 0 7 6 10 14 17 15 13 13 19 25 29 31 34 41 59 83 92 95 99 96 97 110 107 105 101 99 101 99 104 112 107 110 110 111 113 106 95 85 61 43 37 28 28 26 23 18 15 12 14 14 11 9 4 1 0 0 0 0 0 1 1 0 0 0 0 0 2 1 0 0 0 0 0 0 0 0 0 0 0 0 0 0 0 0 0 0 0 0 0 0 0 0 0 0 0 0 0 0 0 
0 0 0 0 0 0 0 0 0 0 0 0 0 0 0 0 0 0 0 0 0 0 0 0 0 0 0 0 0 5 7 8 14 16 15 14 12 18 26 28 31 32 33 38 48 66 80 88 89 90 101 103 98 98 102 103 102 102 113 113 114 104 102 99 88 70 52 46 41 35 28 27 26 23 17 14 14 14 14 12 9 4 1 0 0 0 0 0 1 1 0 0 0 0 0 2 1 0 0 0 0 0 0 0 0 0 0 0 0 0 0 0 0 0 0 0 0 0 0 0 0 0 0 0 0 0 0 0 
