P2
128 99
236
0 0 0 0 0 0 0 0 0 0 0 0 0 0 0 0 0 0 0 0 0 0 0 0 0 0 0 0 0 0 0 0 0 0 0 0 0 0 0 0 0 0 0 0 0 0 0 0 0 0 0 0 0 0 0 0 0 0 0 0 0 0 0 0 0 0 0 0 0 0 0 0 0 0 0 0 0 0 0 0 0 0 0 0 0 0 0 0 0 0 0 0 0 0 0 0 0 0 0 0 0 0 0 0 0 0 0 0 0 0 0 0 0 0 0 0 0 0 0 0 0 0 0 0 0 0 0 0 
0 0 0 0 0 0 0 0 0 0 0 0 0 0 0 0 0 0 0 0 0 0 0 0 0 0 0 0 0 0 0 0 0 0 0 0 0 0 0 0 0 0 0 0 0 0 0 0 0 0 0 0 0 0 0 0 0 0 0 0 0 0 0 0 0 0 0 0 0 0 0 0 0 0 0 0 0 0 0 0 0 0 0 0 0 0 0 0 0 0 0 0 0 0 0 0 0 0 0 0 0 0 0 0 0 0 0 0 0 0 0 0 0 0 0 0 0 0 0 0 0 0 0 0 0 0 0 0 
0 0 0 0 0 0 0 0 0 0 0 0 0 0 0 0 0 0 0 0 0 0 0 0 0 0 0 0 0 0 0 0 0 0 0 0 0 0 0 0 0 0 0 0 0 0 0 0 0 0 0 1 3 5 3 0 0 0 0 0 0 0 0 0 0 0 0 0 0 0 0 0 0 0 0 0 0 0 0 0 0 0 0 0 0 0 0 0 0 0 0 0 0 0 0 0 0 0 0 0 0 0 0 0 0 0 0 0 0 0 0 0 0 0 0 0 0 0 0 0 0 0 0 0 0 0 0 0 
0 0 0 0 0 0 0 0 0 0 0 0 0 0 0 0 0 0 0 0 0 0 0 0 0 0 0 0 0 0 0 0 0 0 0 0 0 0 0 0 0 0 0 1 5 13 19 19 17 17 19 22 25 26 24 21 17 12 13 12 6 0 0 0 0 0 0 0 0 0 0 0 0 0 0 0 0 0 0 0 0 0 0 0 0 0 0 0 0 0 0 0 0 0 0 0 0 0 0 0 0 0 0 0 0 0 0 0 0 0 0 0 0 0 0 0 0 0 0 0 0 0 0 0 0 0 0 0 
0 0 0 0 0 0 0 0 0 0 0 0 0 0 0 0 0 0 0 0 0 0 0 0 0 0 0 0 0 0 0 0 0 0 0 0 0 0 0 0 4 14 17 24 24 30 54 77 95 112 123 130 133 134 132 126 113 96 76 56 36 19 17 11 4 0 0 0 0 0 0 0 0 0 0 0 0 0 0 0 0 0 0 0 0 0 0 0 0 0 0 0 0 0 0 0 0 0 0 0 0 0 0 0 0 0 0 0 0 0 0 0 0 0 0 0 0 0 0 0 0 0 0 0 0 0 0 0 
0 0 0 0 0 0 0 0 0 0 0 0 0 0 0 0 0 0 0 0 0 0 0 0 0 0 0 0 0 0 0 0 0 0 0 0 0 0 7 16 23 23 33 67 107 138 151 157 168 178 185 187 188 190 191 191 189 185 172 154 131 106 79 48 22 16 11 2 0 0 0 0 0 0 0 0 0 0 0 0 0 0 0 0 0 0 0 0 0 0 0 0 0 0 0 0 0 0 0 0 0 0 0 0 0 0 0 0 0 0 0 0 0 0 0 0 0 0 0 0 0 0 0 0 0 0 0 0 
0 0 0 0 0 0 0 0 0 0 0 0 0 0 0 0 0 0 0 0 0 0 0 0 0 0 0 0 0 0 0 0 0 0 0 0 8 19 25 23 51 104 143 156 164 173 184 188 178 169 165 165 167 166 165 163 162 166 171 181 191 185 164 135 105 73 39 18 14 3 0 0 0 0 0 0 0 0 0 0 0 0 0 0 0 0 0 0 0 0 0 0 0 0 0 0 0 0 0 0 0 0 0 0 0 0 0 0 0 0 0 0 0 0 0 0 0 0 0 0 0 0 0 0 0 0 0 0 
0 0 0 0 0 0 0 0 0 0 0 0 0 0 0 0 0 0 0 0 0 0 0 0 0 0 0 0 0 0 0 0 0 0 7 24 24 21 61 124 153 160 174 189 195 186 176 172 171 173 179 186 185 178 178 187 191 186 178 167 162 163 177 189 183 160 128 89 49 21 14 2 0 0 0 0 0 0 0 0 0 0 0 0 0 0 0 0 0 0 0 0 0 0 0 0 0 0 0 0 0 0 0 0 0 0 0 0 0 0 0 0 0 0 0 0 0 0 0 0 0 0 0 0 0 0 0 0 
0 0 0 0 0 0 0 0 0 0 0 0 0 0 0 0 0 0 0 0 0 0 0 0 0 0 0 0 0 0 0 0 5 27 23 18 57 124 152 159 176 195 193 180 171 165 166 167 155 143 134 134 134 125 122 133 151 170 189 195 193 184 169 160 164 182 189 168 136 93 48 25 11 0 0 0 0 0 0 0 0 0 0 0 0 0 0 0 0 0 0 0 0 0 0 0 0 0 0 0 0 0 0 0 0 0 0 0 0 0 0 0 0 0 0 0 0 0 0 0 0 0 0 0 0 0 0 0 
0 0 0 0 0 0 0 0 0 0 0 0 0 0 0 0 0 0 0 0 0 0 0 0 0 0 0 0 0 0 0 25 22 21 42 112 150 156 170 191 187 174 173 173 156 138 129 122 107 109 120 124 127 128 129 125 124 119 139 160 182 191 196 192 180 163 157 173 186 166 129 76 32 19 4 0 0 0 0 0 0 0 0 0 0 0 0 0 0 0 0 0 0 0 0 0 0 0 0 0 0 0 0 0 0 0 0 0 0 0 0 0 0 0 0 0 0 0 0 0 0 0 0 0 0 0 0 0 
0 0 0 0 0 0 0 0 0 0 0 0 0 0 0 0 0 0 0 0 0 0 0 0 0 0 0 0 0 11 27 26 23 82 143 153 166 188 183 169 175 176 167 148 137 128 125 123 121 142 166 176 177 176 176 169 157 145 146 142 143 165 179 186 192 194 185 168 158 174 182 157 108 47 23 6 0 0 0 0 0 0 0 0 0 0 0 0 0 0 0 0 0 0 0 0 0 0 0 0 0 0 0 0 0 0 0 0 0 0 0 0 0 0 0 0 0 0 0 0 0 0 0 0 0 0 0 0 
0 0 0 0 0 0 0 0 0 0 0 0 0 0 0 0 0 0 0 0 0 0 0 0 0 0 0 0 21 28 19 42 125 154 156 179 183 168 173 180 171 161 140 134 136 153 160 154 152 140 126 134 128 120 135 145 144 149 158 170 178 181 181 181 182 183 190 192 189 170 162 181 177 133 63 24 11 0 0 0 0 0 0 0 0 0 0 0 0 0 0 0 0 0 0 0 0 0 0 0 0 0 0 0 0 0 0 0 0 0 0 0 0 0 0 0 0 0 0 0 0 0 0 0 0 0 0 0 
0 0 0 0 0 0 0 0 0 0 0 0 0 0 0 0 0 0 0 0 0 0 0 0 0 0 5 29 22 19 71 146 155 173 186 169 172 183 172 159 152 151 159 169 172 160 144 135 133 117 109 108 107 105 111 124 123 123 128 132 141 162 186 198 201 195 191 188 188 189 184 167 171 183 145 79 25 13 0 0 0 0 0 0 0 0 0 0 0 0 0 0 0 0 0 0 0 0 0 0 0 0 0 0 0 0 0 0 0 0 0 0 0 0 0 0 0 0 0 0 0 0 0 0 0 0 0 0 
0 0 0 0 0 0 0 0 0 0 0 0 0 0 0 0 0 0 0 0 0 0 0 0 0 9 29 18 24 96 153 158 185 179 168 181 181 164 156 157 168 170 158 147 125 114 119 120 115 115 110 104 107 115 118 120 125 126 126 123 120 121 127 151 178 193 203 199 187 185 189 191 174 164 181 151 88 26 15 0 0 0 0 0 0 0 0 0 0 0 0 0 0 0 0 0 0 0 0 0 0 0 0 0 0 0 0 0 0 0 0 0 0 0 0 0 0 0 0 0 0 0 0 0 0 0 0 0 
0 0 0 0 0 0 0 0 0 0 0 0 0 0 0 0 0 0 0 0 0 0 0 0 13 25 16 31 112 153 165 190 175 177 185 171 159 167 172 166 157 142 130 120 113 114 113 115 118 112 101 104 107 117 124 120 121 134 143 139 135 130 124 118 119 142 173 190 200 193 182 185 190 182 164 180 156 97 30 14 0 0 0 0 0 0 0 0 0 0 0 0 0 0 0 0 0 0 0 0 0 0 0 0 0 0 0 0 0 0 0 0 0 0 0 0 0 0 0 0 0 0 0 0 0 0 0 0 
0 0 0 0 0 0 0 0 0 0 0 0 0 0 0 0 0 0 0 0 0 0 4 16 24 17 46 123 150 172 190 171 181 179 161 157 165 167 153 147 139 132 137 133 132 133 134 131 119 118 118 123 122 124 125 122 119 122 134 147 150 153 149 141 128 113 119 143 175 193 190 183 182 189 187 167 179 156 109 36 12 0 0 0 0 0 0 0 0 0 0 0 0 0 0 0 0 0 0 0 0 0 0 0 0 0 0 0 0 0 0 0 0 0 0 0 0 0 0 0 0 0 0 0 0 0 0 0 
0 0 0 0 0 0 0 0 0 0 0 0 0 0 0 0 0 0 0 0 0 6 15 17 16 56 126 150 173 190 175 184 173 156 151 160 163 148 146 147 142 138 136 142 146 139 131 120 123 121 112 110 111 106 107 109 104 105 107 116 126 136 150 158 155 139 124 115 126 159 185 186 177 179 188 182 169 178 156 120 37 8 0 0 0 0 0 0 0 0 0 0 0 0 0 0 0 0 0 0 0 0 0 0 0 0 0 0 0 0 0 0 0 0 0 0 0 0 0 0 0 0 0 0 0 0 0 0 
0 0 0 0 0 0 0 0 0 0 0 0 0 0 0 0 0 0 0 0 7 13 15 18 68 134 150 173 189 178 180 159 149 146 160 160 145 143 147 141 139 138 137 135 128 116 110 110 117 118 115 110 108 107 109 111 108 102 100 101 102 107 116 133 150 158 147 132 117 117 138 174 180 169 174 183 178 172 177 156 122 34 5 0 0 0 0 0 0 0 0 0 0 0 0 0 0 0 0 0 0 0 0 0 0 0 0 0 0 0 0 0 0 0 0 0 0 0 0 0 0 0 0 0 0 0 0 0 
0 0 0 0 0 0 0 0 0 0 0 0 0 0 0 0 0 0 0 6 12 16 20 73 137 155 167 186 179 176 153 143 140 162 158 147 144 137 134 132 133 126 118 114 115 114 114 114 115 118 122 116 117 119 118 117 115 111 107 106 101 100 100 102 114 134 154 152 139 117 104 124 171 175 159 169 183 175 177 176 151 112 25 3 0 0 0 0 0 0 0 0 0 0 0 0 0 0 0 0 0 0 0 0 0 0 0 0 0 0 0 0 0 0 0 0 0 0 0 0 0 0 0 0 0 0 0 0 
0 0 0 0 0 0 0 0 0 0 0 0 0 0 0 0 0 0 5 13 15 20 76 134 157 160 182 178 172 152 143 136 159 162 151 135 124 123 127 124 123 115 115 121 123 121 121 122 120 122 122 121 123 124 119 121 122 119 117 117 112 108 107 98 96 98 121 148 153 145 119 104 122 167 171 151 167 182 172 187 166 148 97 17 2 0 0 0 0 0 0 0 0 0 0 0 0 0 0 0 0 0 0 0 0 0 0 0 0 0 0 0 0 0 0 0 0 0 0 0 0 0 0 0 0 0 0 0 
0 0 0 0 0 0 0 0 0 0 0 0 0 0 0 0 0 3 12 15 21 72 128 159 158 175 184 169 148 137 131 155 166 150 130 116 119 121 114 115 114 117 121 121 113 106 104 107 103 92 84 93 97 98 93 95 103 112 116 122 123 115 112 107 104 99 99 121 145 148 137 115 112 130 167 161 147 164 181 173 186 152 146 76 10 0 0 0 0 0 0 0 0 0 0 0 0 0 0 0 0 0 0 0 0 0 0 0 0 0 0 0 0 0 0 0 0 0 0 0 0 0 0 0 0 0 0 0 
0 0 0 0 0 0 0 0 0 0 0 0 0 0 0 0 0 10 13 16 67 124 155 158 167 190 166 145 136 130 158 165 148 130 113 116 115 107 112 116 116 114 103 94 86 82 85 85 81 61 58 64 62 66 79 80 81 84 92 102 116 119 119 115 111 109 104 102 120 140 141 126 104 110 130 165 153 146 170 177 183 178 149 132 53 4 0 0 0 0 0 0 0 0 0 0 0 0 0 0 0 0 0 0 0 0 0 0 0 0 0 0 0 0 0 0 0 0 0 0 0 0 0 0 0 0 0 0 
0 0 0 0 0 0 0 0 0 0 0 0 0 0 0 0 6 12 15 63 114 148 154 161 191 172 144 137 126 156 169 139 122 114 115 113 108 113 118 115 106 92 82 78 73 68 65 65 59 56 58 61 60 64 68 74 81 82 76 70 76 96 111 119 117 111 108 103 99 114 135 137 123 101 117 141 154 146 148 172 174 193 163 145 108 29 2 0 0 0 0 0 0 0 0 0 0 0 0 0 0 0 0 0 0 0 0 0 0 0 0 0 0 0 0 0 0 0 0 0 0 0 0 0 0 0 0 0 
0 0 0 0 0 0 0 0 0 0 0 0 0 0 0 3 10 16 54 107 134 157 151 181 180 141 143 125 152 173 138 120 110 111 113 108 114 119 118 109 85 68 62 61 60 60 61 66 66 68 76 82 84 88 94 93 93 88 83 77 74 76 82 94 109 112 109 109 103 103 108 120 133 120 103 124 150 140 136 154 169 189 179 150 135 78 9 0 0 0 0 0 0 0 0 0 0 0 0 0 0 0 0 0 0 0 0 0 0 0 0 0 0 0 0 0 0 0 0 0 0 0 0 0 0 0 0 0 
0 0 0 0 0 0 0 0 0 0 0 0 0 0 0 8 10 28 99 120 157 149 170 186 142 141 124 133 172 148 121 107 104 107 111 112 119 116 107 80 68 71 72 73 72 73 82 88 94 99 108 116 118 119 120 120 118 112 103 94 87 84 83 82 89 103 108 106 106 103 101 109 118 131 118 108 137 146 125 148 159 176 189 165 147 110 31 2 0 0 0 0 0 0 0 0 0 0 0 0 0 0 0 0 0 0 0 0 0 0 0 0 0 0 0 0 0 0 0 0 0 0 0 0 0 0 0 0 
0 0 0 0 0 0 0 0 0 0 0 0 0 0 3 7 16 76 113 144 154 157 174 160 127 124 108 164 161 125 108 101 102 115 120 123 118 98 81 78 78 81 82 85 90 94 110 119 126 131 135 139 138 134 134 136 136 133 130 119 107 95 86 84 80 90 102 105 106 107 104 110 111 124 131 113 119 146 119 127 158 160 188 172 152 128 61 3 0 0 0 0 0 0 0 0 0 0 0 0 0 0 0 0 0 0 0 0 0 0 0 0 0 0 0 0 0 0 0 0 0 0 0 0 0 0 0 0 
0 0 0 0 0 0 0 0 0 0 0 0 0 0 7 10 41 103 124 158 149 162 163 140 127 103 136 171 141 111 100 101 112 116 127 119 101 88 83 83 82 84 89 101 113 122 129 128 126 129 132 133 126 117 90 87 117 133 135 136 132 119 104 92 84 83 94 101 100 109 106 108 107 108 128 130 119 139 124 99 142 149 172 170 159 136 97 16 0 0 0 0 0 0 0 0 0 0 0 0 0 0 0 0 0 0 0 0 0 0 0 0 0 0 0 0 0 0 0 0 0 0 0 0 0 0 0 0 
0 0 0 0 0 0 0 0 0 0 0 0 0 0 8 16 82 105 139 157 157 156 160 120 111 109 155 157 115 102 95 110 117 126 126 106 95 85 82 82 82 93 109 125 129 128 125 118 118 96 82 103 110 76 77 78 78 122 125 127 133 137 130 115 97 86 87 99 105 105 110 113 106 110 116 129 127 127 127 92 119 152 164 166 165 143 115 41 2 0 0 0 0 0 0 0 0 0 0 0 0 0 0 0 0 0 0 0 0 0 0 0 0 0 0 0 0 0 0 0 0 0 0 0 0 0 0 0 
0 0 0 0 0 0 0 0 0 0 0 0 0 4 5 37 101 121 145 156 157 153 140 98 106 123 159 139 104 94 106 119 124 129 112 99 87 81 79 84 96 118 133 132 124 118 115 111 88 78 76 74 95 73 76 80 88 99 81 108 122 127 131 134 121 100 88 91 106 105 104 114 111 110 113 124 130 132 133 92 102 145 159 167 164 154 120 61 3 0 0 0 0 0 0 0 0 0 0 0 0 0 0 0 0 0 0 0 0 0 0 0 0 0 0 0 0 0 0 0 0 0 0 0 0 0 0 0 
0 0 0 0 0 0 0 0 0 0 0 0 0 5 8 74 103 137 149 155 148 150 107 100 116 132 153 117 96 100 122 125 130 118 97 83 80 78 86 104 129 136 126 120 115 105 85 80 82 79 77 74 85 76 79 88 100 91 79 77 80 104 114 121 133 128 106 90 98 107 105 114 114 108 109 121 122 134 135 96 93 133 159 163 164 160 124 76 5 0 0 0 0 0 0 0 0 0 0 0 0 0 0 0 0 0 0 0 0 0 0 0 0 0 0 0 0 0 0 0 0 0 0 0 0 0 0 0 
0 0 0 0 0 0 0 0 0 0 0 0 0 8 17 95 111 140 155 146 145 136 97 107 123 135 136 108 99 112 127 134 128 107 89 79 80 87 110 134 136 115 86 75 81 79 79 80 84 82 78 77 82 76 82 96 105 102 86 79 74 76 85 110 123 139 136 109 93 99 108 116 117 111 110 121 115 135 141 98 88 119 156 167 162 160 129 88 10 0 0 0 0 0 0 0 0 0 0 0 0 0 0 0 0 0 0 0 0 0 0 0 0 0 0 0 0 0 0 0 0 0 0 0 0 0 0 0 
0 0 0 0 0 0 0 0 0 0 0 0 0 6 33 99 121 137 154 136 135 115 102 121 127 123 120 108 101 120 131 131 114 95 82 78 90 117 138 133 100 75 74 73 72 72 74 80 84 83 79 79 85 78 92 112 116 108 97 81 76 78 76 83 111 118 140 141 116 96 106 119 118 110 108 117 112 128 145 98 85 110 158 170 160 159 137 98 15 0 0 0 0 0 0 0 0 0 0 0 0 0 0 0 0 0 0 0 0 0 0 0 0 0 0 0 0 0 0 0 0 0 0 0 0 0 0 0 
0 0 0 0 0 0 0 0 0 0 0 0 3 5 49 101 132 140 145 132 118 106 111 129 117 114 115 109 107 124 128 117 101 90 81 94 121 141 132 93 75 74 74 72 72 72 74 79 83 81 80 88 81 85 100 96 93 85 79 75 78 77 77 74 81 112 123 143 151 124 107 116 119 112 106 114 106 115 141 102 84 104 152 171 163 158 147 106 25 1 0 0 0 0 0 0 0 0 0 0 0 0 0 0 0 0 0 0 0 0 0 0 0 0 0 0 0 0 0 0 0 0 0 0 0 0 0 0 
0 0 0 0 0 0 0 0 0 0 0 0 4 5 62 106 137 148 135 132 102 110 120 130 105 110 119 110 106 126 123 108 99 90 93 120 143 140 110 72 72 74 74 73 73 74 74 75 79 74 78 87 82 82 78 71 68 73 74 76 77 76 78 78 77 88 123 136 157 155 127 113 118 113 107 112 95 112 142 104 88 101 146 170 164 162 154 120 38 2 0 0 0 0 0 0 0 0 0 0 0 0 0 0 0 0 0 0 0 0 0 0 0 0 0 0 0 0 0 0 0 0 0 0 0 0 0 0 
0 0 0 0 0 0 0 0 0 0 0 0 4 8 73 114 137 151 131 140 105 113 132 130 100 107 121 108 106 121 111 102 99 97 120 141 136 119 112 77 74 74 73 73 74 74 73 73 73 72 77 88 85 81 73 70 67 67 71 74 75 77 78 78 77 94 119 125 145 160 156 132 117 116 110 107 89 113 140 107 94 109 146 177 162 163 153 137 51 3 0 0 0 0 0 0 0 0 0 0 0 0 0 0 0 0 0 0 0 0 0 0 0 0 0 0 0 0 0 0 0 0 0 0 0 0 0 0 
0 0 0 0 0 0 0 0 0 0 0 0 4 12 81 121 141 155 134 142 108 121 137 126 96 107 123 108 106 114 104 96 103 128 143 140 126 117 116 112 97 84 71 70 75 75 74 75 72 70 78 86 99 91 81 76 71 67 68 71 75 77 79 78 88 119 121 126 139 154 165 166 144 120 111 113 94 119 129 103 97 107 137 175 164 165 151 147 63 4 0 0 0 0 0 0 0 0 0 0 0 0 0 0 0 0 0 0 0 0 0 0 0 0 0 0 0 0 0 0 0 0 0 0 0 0 0 0 
0 0 0 0 0 0 0 0 0 0 0 0 4 14 84 125 146 153 135 138 110 132 141 128 97 105 127 113 104 108 101 104 136 151 148 144 119 91 83 85 81 80 82 73 68 70 72 72 68 68 79 87 109 100 85 82 73 63 63 64 70 75 83 99 99 96 91 84 90 102 135 162 169 160 126 113 107 124 119 110 107 111 143 175 161 163 151 148 73 6 0 0 0 0 0 0 0 0 0 0 0 0 0 0 0 0 0 0 0 0 0 0 0 0 0 0 0 0 0 0 0 0 0 0 0 0 0 0 
0 0 0 0 0 0 0 0 0 0 0 0 4 14 86 125 148 150 135 137 117 141 143 126 110 108 126 108 105 101 106 134 159 156 141 108 93 91 88 88 83 81 79 71 71 81 69 70 65 63 77 89 108 106 88 84 76 63 61 60 67 81 91 90 87 81 78 74 75 79 85 101 137 169 161 129 125 125 118 118 119 109 142 167 153 167 155 152 84 7 0 0 0 0 0 0 0 0 0 0 0 0 0 0 0 0 0 0 0 0 0 0 0 0 0 0 0 0 0 0 0 0 0 0 0 0 0 0 
0 0 0 0 0 0 0 0 0 0 0 0 7 13 88 131 153 154 138 137 116 141 148 127 128 115 127 109 102 97 131 157 158 133 92 78 78 77 76 72 69 68 71 76 73 76 85 69 63 63 75 90 95 99 92 88 76 62 56 60 83 85 79 80 80 79 79 77 79 81 81 86 94 130 168 160 138 118 118 126 114 104 138 163 144 168 158 153 97 10 0 0 0 0 0 0 0 0 0 0 0 0 0 0 0 0 0 0 0 0 0 0 0 0 0 0 0 0 0 0 0 0 0 0 0 0 0 0 
0 0 0 0 0 0 0 0 0 0 0 0 8 13 89 133 158 158 138 136 109 137 148 124 130 113 125 129 103 112 157 159 129 81 73 72 76 75 73 70 65 64 60 64 71 78 75 70 64 65 75 90 94 95 92 91 73 59 57 80 81 70 76 82 84 83 81 81 82 89 98 104 109 121 143 160 150 117 121 128 106 104 135 157 136 162 158 155 112 16 0 0 0 0 0 0 0 0 0 0 0 0 0 0 0 0 0 0 0 0 0 0 0 0 0 0 0 0 0 0 0 0 0 0 0 0 0 0 
0 0 0 0 0 0 0 0 0 0 0 0 8 13 89 134 164 152 136 132 96 131 146 117 124 117 116 141 125 132 160 144 94 72 71 76 77 74 71 68 64 63 62 60 60 67 73 73 60 64 77 94 95 95 90 85 71 61 64 81 61 61 75 82 93 102 103 107 106 110 107 104 104 120 138 148 143 120 125 127 97 98 131 153 124 149 155 151 120 22 0 0 0 0 0 0 0 0 0 0 0 0 0 0 0 0 0 0 0 0 0 0 0 0 0 0 0 0 0 0 0 0 0 0 0 0 0 0 
0 0 0 0 0 0 0 0 0 0 0 0 7 16 92 135 167 158 138 117 92 132 145 114 120 119 113 129 126 145 156 122 99 85 81 83 83 85 80 77 78 73 65 66 64 60 71 81 70 69 82 100 103 89 87 91 75 58 63 70 54 60 79 101 105 105 102 102 103 104 104 103 105 114 123 129 128 120 130 128 90 92 130 146 117 140 158 149 126 30 0 0 0 0 0 0 0 0 0 0 0 0 0 0 0 0 0 0 0 0 0 0 0 0 0 0 0 0 0 0 0 0 0 0 0 0 0 0 
0 0 0 0 0 0 0 0 0 0 0 0 7 17 91 136 171 155 133 110 94 132 140 117 107 114 116 116 113 123 130 128 103 93 98 98 103 97 91 88 88 94 82 69 64 59 65 75 74 72 90 108 95 87 82 97 81 58 59 62 56 74 86 85 85 84 90 99 99 106 111 106 102 112 119 120 119 120 137 135 85 79 125 145 105 134 166 148 132 37 1 0 0 0 0 0 0 0 0 0 0 0 0 0 0 0 0 0 0 0 0 0 0 0 0 0 0 0 0 0 0 0 0 0 0 0 0 0 
0 0 0 0 0 0 0 0 0 0 0 0 7 16 89 140 173 149 128 109 97 127 136 105 94 113 116 106 103 110 113 119 101 93 92 92 91 84 86 78 68 69 78 85 75 67 70 81 85 83 100 109 93 83 82 83 78 62 61 63 74 70 70 76 78 80 81 91 101 102 105 106 98 100 110 109 118 127 144 140 84 75 123 146 95 126 160 147 137 46 2 0 0 0 0 0 0 0 0 0 0 0 0 0 0 0 0 0 0 0 0 0 0 0 0 0 0 0 0 0 0 0 0 0 0 0 0 0 
0 0 0 0 0 0 0 0 0 0 0 0 7 17 89 142 171 146 131 108 88 125 129 86 85 107 115 104 91 100 106 117 99 95 91 93 94 87 83 62 57 58 60 67 80 92 84 87 100 92 111 117 103 113 104 101 87 68 82 80 62 58 65 70 75 77 78 84 98 101 105 102 96 102 105 112 121 130 140 137 89 73 112 142 92 115 144 142 138 50 3 0 0 0 0 0 0 0 0 0 0 0 0 0 0 0 0 0 0 0 0 0 0 0 0 0 0 0 0 0 0 0 0 0 0 0 0 0 
0 0 0 0 0 0 0 0 0 0 0 0 8 16 88 142 167 136 127 105 77 123 117 81 84 107 113 100 86 98 109 116 99 97 95 92 92 86 77 56 55 55 56 61 65 85 102 105 102 102 124 128 122 106 95 76 107 80 82 69 58 69 79 70 75 76 77 85 99 103 105 100 90 105 104 115 121 127 138 136 94 71 107 141 98 116 131 133 139 57 2 0 0 0 0 0 0 0 0 0 0 0 0 0 0 0 0 0 0 0 0 0 0 0 0 0 0 0 0 0 0 0 0 0 0 0 0 0 
0 0 0 0 0 0 0 0 0 0 0 0 8 17 90 141 163 124 124 102 75 121 114 88 87 111 120 99 81 89 107 117 103 96 96 92 92 93 83 60 56 56 59 63 67 78 101 107 88 101 117 132 105 88 72 56 86 94 69 71 66 72 74 74 76 78 79 88 99 101 104 94 90 99 102 115 116 125 141 128 95 73 101 134 102 117 125 129 139 60 2 0 0 0 0 0 0 0 0 0 0 0 0 0 0 0 0 0 0 0 0 0 0 0 0 0 0 0 0 0 0 0 0 0 0 0 0 0 
0 0 0 0 0 0 0 0 0 0 0 0 8 18 87 138 159 119 119 97 78 119 117 93 90 113 124 102 75 80 100 117 108 96 99 95 96 98 93 68 56 53 60 77 83 93 102 98 91 113 124 133 95 79 73 67 68 111 66 67 60 65 69 74 77 79 83 92 100 102 98 84 93 104 106 121 121 135 139 120 96 75 102 129 103 109 119 132 132 58 2 0 0 0 0 0 0 0 0 0 0 0 0 0 0 0 0 0 0 0 0 0 0 0 0 0 0 0 0 0 0 0 0 0 0 0 0 0 
0 0 0 0 0 0 0 0 0 0 0 0 5 17 79 134 154 120 111 100 77 111 114 97 93 116 128 104 68 73 94 115 114 98 97 93 94 98 95 71 53 52 54 63 70 86 105 95 96 114 104 105 89 80 77 67 57 85 86 64 59 61 67 74 77 79 82 95 100 98 90 74 87 100 109 120 130 134 132 114 98 78 108 127 102 105 114 139 126 54 1 0 0 0 0 0 0 0 0 0 0 0 0 0 0 0 0 0 0 0 0 0 0 0 0 0 0 0 0 0 0 0 0 0 0 0 0 0 
0 0 0 0 0 0 0 0 0 0 0 0 4 15 74 133 151 124 111 108 77 104 111 100 94 115 128 106 73 70 91 114 119 97 87 89 91 93 88 72 56 53 54 59 71 82 91 86 94 107 106 96 88 88 84 75 58 62 96 77 60 58 68 77 75 81 85 96 96 93 84 71 76 101 114 127 132 131 123 105 101 85 115 120 98 102 113 138 115 50 2 0 0 0 0 0 0 0 0 0 0 0 0 0 0 0 0 0 0 0 0 0 0 0 0 0 0 0 0 0 0 0 0 0 0 0 0 0 
0 0 0 0 0 0 0 0 0 0 0 0 3 15 69 130 147 124 107 112 82 102 108 101 95 107 122 106 79 71 86 98 115 102 82 84 84 89 82 73 54 49 54 63 70 79 86 82 95 103 107 87 85 89 88 74 60 56 93 87 81 69 70 77 76 78 86 93 93 92 81 73 70 96 117 133 133 121 105 104 103 88 124 107 95 99 119 137 108 45 2 0 0 0 0 0 0 0 0 0 0 0 0 0 0 0 0 0 0 0 0 0 0 0 0 0 0 0 0 0 0 0 0 0 0 0 0 0 
0 0 0 0 0 0 0 0 0 5 3 0 2 13 58 121 144 125 103 112 85 95 104 101 97 103 112 103 82 88 99 90 107 108 85 81 84 85 79 70 62 52 55 57 67 96 97 89 90 88 106 81 77 87 84 65 64 60 79 82 91 102 93 86 88 91 95 95 92 88 74 65 64 97 118 128 119 108 94 99 106 99 127 100 96 97 124 129 99 39 2 0 0 0 0 0 0 0 0 0 0 0 0 0 0 0 0 0 0 0 0 0 0 0 0 0 0 0 0 0 0 0 0 0 0 0 0 0 
0 0 0 0 0 0 0 0 0 0 8 1 2 7 43 111 141 124 99 111 88 90 104 102 96 101 121 109 97 118 128 95 91 100 96 83 84 81 74 66 70 63 68 74 82 90 107 77 85 87 100 79 69 83 72 75 73 58 79 92 129 119 105 89 82 93 92 94 94 88 72 61 64 105 120 119 116 108 95 91 111 116 121 93 98 93 132 118 93 33 1 0 0 0 0 0 0 0 0 0 0 0 0 0 0 0 0 0 0 0 0 0 0 0 0 0 0 0 0 0 0 0 0 0 0 0 0 0 
0 0 0 0 0 0 0 0 0 2 10 8 3 6 30 101 131 125 97 105 89 82 103 98 100 100 119 114 118 132 124 118 80 84 102 84 78 79 71 69 67 69 87 91 96 95 79 71 89 74 84 75 72 88 68 61 78 73 92 92 103 111 102 100 87 84 88 96 101 89 76 79 111 142 127 128 142 140 122 97 124 125 103 87 103 97 138 104 87 24 0 0 0 0 0 0 0 0 0 0 0 0 0 0 0 0 0 0 0 0 0 0 0 0 0 0 0 0 0 0 0 0 0 0 0 0 0 0 
0 0 0 0 0 0 0 0 0 0 1 16 7 5 21 88 127 138 97 99 108 78 97 96 97 100 122 120 136 141 122 127 102 79 96 86 79 78 73 78 77 87 105 113 95 79 69 86 104 81 80 77 73 88 70 59 72 58 63 97 112 104 98 104 97 98 102 94 104 111 131 135 155 150 146 145 107 123 147 113 135 143 95 98 101 109 132 99 81 14 0 0 0 5 4 0 0 0 0 0 0 0 0 0 0 0 0 0 0 0 0 0 0 0 0 0 0 0 0 0 0 0 0 0 0 0 0 0 
0 0 0 0 0 0 0 0 0 0 0 15 14 6 16 76 119 144 108 94 113 85 87 103 88 107 127 117 132 140 119 110 106 97 96 92 96 108 113 112 103 96 86 82 94 77 62 99 95 68 82 79 77 97 80 57 63 54 56 100 102 96 94 96 91 114 137 142 127 120 127 144 162 147 125 116 115 137 153 116 146 130 100 116 84 125 124 101 69 7 0 0 4 3 0 0 0 0 0 0 0 0 0 0 0 0 0 0 0 0 0 0 0 0 0 0 0 0 0 0 0 0 0 0 0 0 0 0 
0 0 0 0 0 0 0 0 0 0 1 9 11 10 13 62 108 147 135 94 107 92 74 103 99 120 132 119 144 151 105 103 108 114 121 123 124 119 119 105 99 90 92 86 89 90 74 78 91 70 69 74 91 105 88 62 64 54 60 120 99 96 93 95 91 115 149 160 160 146 114 140 165 139 121 110 120 139 145 116 149 125 107 129 134 137 116 111 56 6 3 3 6 1 0 0 0 0 0 0 0 0 0 0 0 0 0 0 0 0 0 0 0 0 0 0 0 0 0 0 0 0 0 0 0 0 0 0 
0 0 0 0 0 0 0 0 0 0 2 5 9 9 9 54 100 138 153 109 105 94 73 93 114 108 132 127 144 153 126 126 134 121 101 107 118 107 99 86 76 72 70 68 81 84 101 100 113 82 73 77 86 103 88 65 80 69 77 86 91 101 97 88 83 98 136 153 165 124 98 144 172 159 132 122 127 152 154 117 151 139 132 138 148 141 118 113 43 6 7 9 0 0 0 0 0 0 0 0 0 0 0 0 0 0 0 0 0 0 0 0 0 0 0 0 0 0 0 0 0 0 0 0 0 0 0 0 
0 0 0 0 0 0 0 0 0 0 0 4 10 4 11 46 94 132 153 131 111 123 107 87 123 110 109 140 165 152 136 126 133 129 123 115 128 131 119 92 81 72 71 67 68 65 99 99 98 94 90 87 67 97 93 82 83 82 78 84 93 101 114 108 95 113 133 126 134 133 148 183 186 169 124 126 137 149 163 142 166 178 161 143 167 138 102 93 27 10 11 6 2 0 0 0 0 0 0 0 0 0 0 0 0 0 0 0 0 0 0 0 0 0 0 0 0 0 0 0 0 0 0 0 0 0 0 0 
0 0 0 0 0 0 0 0 0 0 0 4 9 3 3 28 87 127 150 144 132 143 140 127 138 114 115 143 161 143 133 140 139 131 154 164 167 157 141 107 107 102 84 71 74 71 105 99 88 81 82 92 91 115 99 84 77 93 85 83 94 104 94 90 102 142 149 121 116 134 148 184 176 154 128 137 140 157 174 157 146 168 168 167 184 144 113 74 16 7 7 3 3 0 0 0 0 0 0 0 0 0 0 0 0 0 0 0 0 0 0 0 0 0 0 0 0 0 0 0 0 0 0 0 0 0 0 0 
0 0 0 0 0 0 0 0 0 0 0 1 10 6 2 6 44 102 143 137 155 159 180 163 148 127 99 99 159 152 162 163 162 156 157 163 173 167 154 112 105 107 99 91 84 80 114 101 95 72 65 75 82 97 102 92 79 89 90 98 104 97 95 89 94 111 133 125 108 124 151 179 179 154 140 151 163 147 167 167 125 147 152 173 189 153 98 79 18 3 9 3 5 0 0 0 0 0 0 0 0 0 0 0 0 0 0 0 0 0 0 0 0 0 0 0 0 0 0 0 0 0 0 0 0 0 0 0 
0 0 0 0 0 0 0 0 0 0 0 2 8 6 4 5 23 91 138 154 146 169 164 157 142 142 112 106 143 140 167 177 177 179 153 144 138 144 129 88 88 101 110 112 94 99 116 94 100 88 72 77 86 102 102 107 94 89 93 105 110 99 98 107 107 96 98 109 129 145 145 159 157 119 132 145 148 141 166 147 131 164 141 150 173 104 96 57 9 4 10 3 5 0 0 0 0 0 0 0 0 0 0 0 0 0 0 0 0 0 0 0 0 0 0 0 0 0 0 0 0 0 0 0 0 0 0 0 
0 0 0 0 0 0 0 0 0 0 0 3 6 7 5 5 14 75 126 157 147 139 147 152 168 178 162 119 116 118 152 194 190 173 147 119 118 139 127 87 81 90 93 104 97 100 106 83 95 112 113 97 99 112 124 117 82 84 92 95 101 106 100 99 90 74 90 109 123 132 150 144 107 100 122 143 147 171 171 142 137 156 148 167 163 106 92 30 7 3 10 8 2 0 0 0 0 0 0 0 0 0 0 0 0 0 0 0 0 0 0 0 0 0 0 0 0 0 0 0 0 0 0 0 0 0 0 0 
0 0 0 0 0 0 0 0 0 0 0 0 5 8 4 7 14 55 106 142 158 145 153 140 146 149 156 128 112 115 112 169 191 170 160 139 126 127 120 99 95 93 87 95 106 109 111 85 99 98 111 120 99 106 116 117 97 96 89 84 88 103 111 92 70 76 104 108 106 114 144 120 83 103 114 121 151 173 153 142 141 151 161 143 131 122 70 17 7 3 12 8 3 0 0 0 0 0 0 0 0 0 0 0 0 0 0 0 0 0 0 0 0 0 0 0 0 0 0 0 0 0 0 0 0 0 0 0 
0 0 0 0 0 0 0 0 0 0 0 0 0 6 3 11 19 30 87 124 162 160 167 143 144 138 132 134 113 127 136 146 142 140 162 180 160 127 93 89 96 87 94 113 109 105 126 95 105 125 131 124 96 97 124 122 104 100 95 93 90 111 105 113 114 121 110 106 108 110 129 110 132 139 141 152 151 142 139 147 150 150 162 111 104 110 40 18 12 13 12 3 5 0 0 0 0 0 0 0 0 0 0 0 0 0 0 0 0 0 0 0 0 0 0 0 0 0 0 0 0 0 0 0 0 0 0 0 
0 0 0 0 0 0 0 0 0 0 0 0 0 7 4 12 18 17 64 93 146 151 143 139 139 145 120 117 136 123 123 130 108 105 138 169 181 152 102 72 58 65 79 104 93 96 128 116 133 124 113 113 108 108 140 149 126 102 92 94 99 125 142 151 141 125 113 111 101 109 127 153 136 124 134 144 130 129 160 178 173 160 134 55 79 78 18 18 14 17 7 0 1 0 0 0 0 0 0 0 0 0 0 0 0 0 0 0 0 0 0 0 0 0 0 0 0 0 0 0 0 0 0 0 0 0 0 0 
0 0 0 0 0 0 0 0 0 0 0 0 2 9 3 5 16 14 38 83 123 141 127 140 159 149 134 114 123 141 133 106 86 79 113 150 151 153 140 101 61 50 64 97 114 123 136 109 109 114 122 121 120 137 152 152 152 139 124 113 114 142 179 172 147 127 124 106 102 141 123 102 111 136 138 135 120 141 183 178 140 144 105 38 82 48 13 15 15 15 5 0 0 0 0 0 0 0 0 0 0 0 0 0 0 0 0 0 0 0 0 0 0 0 0 0 0 0 0 0 0 0 0 0 0 0 0 0 
0 0 0 0 0 0 0 0 0 0 0 0 8 9 1 2 8 17 21 87 120 147 144 125 164 157 148 132 108 137 148 130 106 93 88 128 128 114 115 130 108 96 107 104 99 125 123 110 130 142 135 130 139 158 145 144 147 144 126 122 121 149 177 164 135 129 132 119 133 131 87 86 122 157 145 144 125 161 162 163 110 117 80 45 86 25 14 12 7 9 9 0 0 0 0 0 0 0 0 0 0 0 0 0 0 0 0 0 0 0 0 0 0 0 0 0 0 0 0 0 0 0 0 0 0 0 0 0 
0 0 0 0 0 0 0 0 0 0 0 0 7 7 0 0 6 13 15 55 98 133 139 125 137 159 146 146 128 126 138 142 132 107 99 111 107 106 105 110 136 130 123 114 120 144 146 138 135 132 131 140 153 153 143 148 162 167 141 134 141 157 169 165 150 147 135 124 155 115 87 91 116 144 145 159 148 167 130 150 125 122 85 71 64 17 7 4 3 9 10 0 0 0 0 0 0 0 0 0 0 0 0 0 0 0 0 0 0 0 0 0 0 0 0 0 0 0 0 0 0 0 0 0 0 0 0 0 
0 0 0 0 0 0 0 0 0 0 0 0 2 3 0 2 5 6 16 34 69 114 135 129 122 160 135 137 136 112 120 134 139 137 127 106 87 92 109 123 140 172 169 155 157 151 144 149 158 148 151 170 158 142 133 144 147 159 148 164 165 169 187 159 153 148 134 131 139 91 74 92 119 135 137 172 174 164 130 151 109 103 127 73 51 16 3 3 1 2 9 1 0 0 0 0 0 0 0 0 0 0 0 0 0 0 0 0 0 0 0 0 0 0 0 0 0 0 0 0 0 0 0 0 0 0 0 0 
0 0 0 0 0 0 0 0 0 0 1 4 9 10 0 3 4 6 10 30 56 105 142 115 111 151 153 133 128 118 118 121 123 125 130 130 113 101 105 118 141 166 194 183 170 161 153 170 179 154 141 178 172 147 131 135 137 136 125 158 147 162 199 191 167 157 143 127 123 89 87 110 133 127 131 183 174 161 144 148 141 143 148 69 53 13 2 0 4 1 6 3 0 0 0 0 0 0 0 0 0 0 0 0 0 0 0 0 0 0 0 0 0 0 0 0 0 0 0 0 0 0 0 0 0 0 0 0 
0 0 0 0 0 0 0 0 0 0 0 3 8 14 12 8 5 9 10 20 52 80 130 112 99 125 155 154 129 112 128 115 137 136 114 118 118 105 95 98 125 153 187 190 175 144 157 177 181 175 165 163 154 159 137 130 126 115 108 136 131 172 187 203 170 139 136 137 155 132 119 118 111 112 135 171 159 153 134 140 136 148 132 75 44 12 4 2 5 6 3 5 0 0 0 0 0 0 0 0 0 0 0 0 0 0 0 0 0 0 0 0 0 0 0 0 0 0 0 0 0 0 0 0 0 0 0 0 
0 0 0 0 0 0 0 0 0 0 0 2 9 10 14 5 4 7 16 15 31 77 125 121 82 86 137 164 158 126 155 136 140 132 112 117 110 113 104 90 90 149 181 184 187 150 140 159 172 185 172 162 163 149 146 122 106 102 111 119 108 167 184 198 159 153 168 162 179 151 112 85 71 97 137 167 162 146 148 117 92 100 88 57 20 16 5 4 4 8 2 1 0 0 0 0 0 0 0 0 0 0 0 0 0 0 0 0 0 0 0 0 0 0 0 0 0 0 0 0 0 0 0 0 0 0 0 0 
0 0 0 0 0 0 0 0 0 0 0 2 12 10 7 10 10 9 15 16 16 49 124 115 84 90 118 147 176 161 163 159 104 108 93 101 113 120 119 127 130 172 188 189 193 174 143 153 179 178 134 114 110 120 122 134 127 105 102 91 103 169 186 184 174 165 173 165 189 137 104 95 111 132 145 151 128 130 122 85 73 96 87 31 9 10 6 4 3 3 6 13 14 5 3 0 0 0 0 0 0 0 0 0 0 0 0 0 0 0 0 0 0 0 0 0 0 0 0 0 0 0 0 0 0 0 0 0 
0 0 0 0 0 0 0 0 0 0 0 0 13 13 6 5 7 7 10 18 20 23 78 122 97 66 83 127 140 138 150 160 134 133 96 70 81 105 133 153 171 184 178 170 193 207 179 180 177 179 167 162 181 195 191 157 142 145 135 136 141 165 174 169 146 138 155 161 174 180 131 146 145 138 112 118 82 124 121 84 110 118 54 21 13 2 1 4 3 2 5 9 6 4 0 0 0 0 0 0 0 0 0 0 0 0 0 0 0 0 0 0 0 0 0 0 0 0 0 0 0 0 0 0 0 0 0 0 
0 0 0 0 0 0 0 0 0 0 0 0 5 8 3 0 1 3 5 10 21 21 49 101 101 83 93 100 93 115 131 157 131 138 127 100 99 106 106 98 135 158 154 180 184 219 201 200 184 184 191 204 202 195 185 178 160 139 135 141 147 160 181 165 150 219 178 169 176 192 172 178 152 131 108 115 98 109 122 99 88 41 17 26 29 5 0 1 1 3 3 5 5 0 0 0 0 0 0 0 0 0 0 0 0 0 0 0 0 0 0 0 0 0 0 0 0 0 0 0 0 0 0 0 0 0 0 0 
0 0 0 0 0 0 0 0 0 0 0 0 0 4 2 1 0 0 2 6 17 19 33 53 95 105 90 40 45 54 76 113 118 119 131 118 89 90 93 104 146 153 156 169 212 227 195 186 173 187 181 195 193 191 197 188 163 139 134 142 172 209 204 144 179 236 209 159 150 139 127 135 137 116 97 107 105 106 80 59 42 35 31 31 27 0 0 0 0 0 1 7 11 0 0 0 0 0 0 0 0 0 0 0 0 0 0 0 0 0 0 0 0 0 0 0 0 0 0 0 0 0 0 0 0 0 0 0 
0 0 0 0 0 0 0 0 0 0 0 0 0 3 7 8 6 0 1 6 10 12 19 23 36 68 51 30 45 47 44 77 100 72 90 114 94 72 59 52 76 138 129 116 126 168 159 107 91 86 98 125 148 151 148 140 97 91 112 117 100 121 134 110 118 144 92 49 74 76 73 58 57 57 87 88 81 98 51 29 28 24 16 5 3 0 0 1 4 4 4 11 7 0 0 0 0 0 0 0 0 0 0 0 0 0 0 0 0 0 0 0 0 0 0 0 0 0 0 0 0 0 0 0 0 0 0 0 
0 0 0 0 0 0 0 0 0 0 0 0 0 0 4 7 7 2 0 1 7 10 9 17 20 19 21 25 38 45 35 79 85 42 50 76 103 66 65 74 85 100 116 119 110 74 61 71 69 62 59 65 97 97 95 94 73 61 64 70 70 114 115 101 95 105 86 89 98 71 53 57 49 69 114 92 80 96 50 31 27 23 13 5 1 0 2 3 4 4 5 3 0 0 0 0 0 0 0 0 0 0 0 0 0 0 0 0 0 0 0 0 0 0 0 0 0 0 0 0 0 0 0 0 0 0 0 0 
0 0 0 0 0 0 0 0 0 0 0 0 0 0 0 0 1 0 0 0 5 8 8 13 23 21 25 29 44 61 38 67 85 40 36 41 88 123 108 107 117 141 114 113 116 93 71 86 82 58 70 86 96 96 100 96 74 66 77 97 84 128 108 86 85 93 75 58 65 89 93 86 65 79 106 89 80 95 54 39 34 25 13 12 1 0 0 1 2 2 1 0 0 0 0 0 0 0 0 0 0 0 0 0 0 0 0 0 0 0 0 0 0 0 0 0 0 0 0 0 0 0 0 0 0 0 0 0 
0 0 0 0 0 0 0 0 0 0 0 0 0 0 0 0 0 0 0 0 1 2 3 6 18 31 26 43 73 79 56 64 71 51 71 93 136 122 130 126 153 166 128 106 113 137 124 131 112 73 85 100 120 129 130 123 108 100 102 117 130 160 125 149 195 158 109 152 151 139 91 92 82 76 71 67 65 63 37 31 34 28 28 32 4 0 0 0 0 0 0 0 0 0 0 0 0 0 0 0 0 0 0 0 0 0 0 0 0 0 0 0 0 0 0 0 0 0 0 0 0 0 0 0 0 0 0 0 
0 0 0 0 0 0 0 0 0 0 0 0 0 0 0 0 0 0 0 0 0 0 0 1 9 33 18 30 71 91 84 76 73 67 72 84 110 111 123 111 177 162 125 88 135 183 185 135 130 141 135 141 160 180 193 188 172 166 135 128 145 166 107 105 129 165 173 146 156 141 110 101 84 58 37 34 60 41 12 13 15 2 0 0 0 0 0 0 0 0 0 0 0 0 0 0 0 0 0 0 0 0 0 0 0 0 0 0 0 0 0 0 0 0 0 0 0 0 0 0 0 0 0 0 0 0 0 0 
0 0 0 0 0 0 0 0 0 0 0 0 0 0 0 0 0 0 0 0 0 0 1 1 8 15 20 12 27 59 63 57 76 34 37 50 79 107 115 118 123 113 83 53 114 124 125 141 141 170 168 170 189 177 182 163 179 183 180 171 164 169 120 100 162 112 131 113 142 150 104 50 25 17 32 64 69 46 30 17 19 10 13 1 0 0 0 0 0 0 0 0 0 0 0 0 0 0 0 0 0 0 0 0 0 0 0 0 0 0 0 0 0 0 0 0 0 0 0 0 0 0 0 0 0 0 0 0 
0 0 0 0 0 0 0 0 0 0 0 0 0 0 0 0 0 0 0 0 0 0 4 4 4 16 24 17 17 40 53 54 93 45 23 27 36 75 123 115 102 106 93 82 74 112 118 110 77 147 144 102 152 149 151 139 151 145 148 158 119 128 110 73 74 106 149 106 122 108 96 67 43 31 48 105 84 44 23 13 17 16 13 1 0 0 0 0 0 0 0 0 0 0 0 0 0 0 0 0 0 0 0 0 0 0 0 0 0 0 0 0 0 0 0 0 0 0 0 0 0 0 0 0 0 0 0 0 
0 0 0 0 0 0 0 0 0 0 0 0 0 0 0 0 0 0 0 0 0 0 2 7 6 11 20 21 16 29 53 57 103 51 34 43 53 79 93 99 88 77 82 85 98 144 141 120 82 107 106 73 130 121 128 134 140 140 137 138 95 89 80 64 68 90 94 74 87 108 99 66 38 32 49 105 87 50 23 16 19 15 4 1 0 0 0 0 0 0 0 0 0 0 0 0 0 0 0 0 0 0 0 0 0 0 0 0 0 0 0 0 0 0 0 0 0 0 0 0 0 0 0 0 0 0 0 0 
0 0 0 0 0 0 0 0 0 0 0 0 0 0 0 0 0 0 0 0 0 0 1 4 7 8 17 23 20 23 55 54 104 51 39 67 75 96 78 66 62 61 86 74 78 136 143 117 106 92 80 66 102 106 107 94 108 113 119 112 83 95 109 93 87 66 100 95 83 93 109 89 65 54 55 104 84 45 20 16 20 12 4 0 0 0 0 0 0 0 0 0 0 0 0 0 0 0 0 0 0 0 0 0 0 0 0 0 0 0 0 0 0 0 0 0 0 0 0 0 0 0 0 0 0 0 0 0 
0 0 0 0 0 0 0 0 0 0 0 0 0 0 0 0 0 0 0 0 0 0 0 3 6 5 14 21 21 21 49 47 97 52 45 72 78 73 43 42 47 74 97 79 77 118 121 86 98 91 79 65 73 85 71 68 82 83 94 102 102 123 129 128 88 56 89 102 92 80 83 105 72 75 67 105 69 31 15 15 16 11 2 0 0 0 0 0 0 0 0 0 0 0 0 0 0 0 0 0 0 0 0 0 0 0 0 0 0 0 0 0 0 0 0 0 0 0 0 0 0 0 0 0 0 0 0 0 
0 0 0 0 0 0 0 0 0 0 0 0 0 0 0 0 0 0 0 0 0 0 0 0 3 7 10 19 19 24 45 40 100 69 48 77 83 49 33 40 58 90 94 89 93 106 117 98 115 86 79 86 78 74 66 70 69 73 85 107 113 115 106 126 102 65 85 97 109 78 61 94 76 75 70 105 66 35 14 16 16 9 2 0 0 0 0 0 0 0 0 0 0 0 0 0 0 0 0 0 0 0 0 0 0 0 0 0 0 0 0 0 0 0 0 0 0 0 0 0 0 0 0 0 0 0 0 0 
0 0 0 0 0 0 0 0 0 0 0 0 0 0 0 0 0 0 0 0 0 0 0 0 1 3 9 15 19 25 40 33 94 76 53 94 85 41 32 42 81 93 91 85 90 99 124 106 117 77 79 98 85 73 75 72 65 73 98 113 100 106 95 129 123 83 86 97 112 79 45 66 88 79 70 103 66 40 16 15 15 8 1 0 0 0 0 0 0 0 0 0 0 0 0 0 0 0 0 0 0 0 0 0 0 0 0 0 0 0 0 0 0 0 0 0 0 0 0 0 0 0 0 0 0 0 0 0 
0 0 0 0 0 0 0 0 0 0 0 0 0 0 0 0 0 0 0 0 0 0 0 0 0 3 3 13 15 20 38 51 74 91 71 119 80 41 32 42 87 96 76 59 73 98 135 111 84 57 79 90 92 87 84 87 87 96 106 100 94 101 84 125 116 68 69 83 108 91 46 52 93 109 85 84 53 26 16 17 17 10 1 0 0 0 0 0 0 0 0 0 0 0 0 0 0 0 0 0 0 0 0 0 0 0 0 0 0 0 0 0 0 0 0 0 0 0 0 0 0 0 0 0 0 0 0 0 
0 0 0 0 0 0 0 0 0 0 0 0 0 0 0 0 0 0 0 0 0 0 0 0 0 3 1 5 17 18 21 34 30 63 87 109 64 40 32 42 86 86 61 62 73 102 147 119 78 55 74 94 101 107 113 115 114 109 97 84 77 84 76 118 113 62 61 69 101 103 47 43 68 125 99 44 22 16 16 18 18 10 0 0 0 0 0 0 0 0 0 0 0 0 0 0 0 0 0 0 0 0 0 0 0 0 0 0 0 0 0 0 0 0 0 0 0 0 0 0 0 0 0 0 0 0 0 0 
0 0 0 0 0 0 0 0 0 0 0 0 0 0 0 0 0 0 0 0 0 0 0 0 0 0 3 1 11 18 18 20 20 14 18 53 50 40 36 53 96 81 53 66 76 104 155 133 93 60 52 64 86 103 102 110 123 108 78 62 61 63 75 109 115 68 64 65 89 112 55 39 45 79 50 14 18 14 16 19 15 9 0 0 0 0 0 0 0 0 0 0 0 0 0 0 0 0 0 0 0 0 0 0 0 0 0 0 0 0 0 0 0 0 0 0 0 0 0 0 0 0 0 0 0 0 0 0 
0 0 0 0 0 0 0 0 0 0 0 0 0 0 0 0 0 0 0 0 0 0 0 0 0 0 1 1 6 14 18 20 20 16 9 28 59 54 48 73 121 95 43 51 75 105 146 126 110 71 56 61 70 84 97 106 117 107 72 59 69 69 85 124 140 80 53 48 84 136 84 48 58 66 24 12 15 13 17 17 14 8 0 0 0 0 0 0 0 0 0 0 0 0 0 0 0 0 0 0 0 0 0 0 0 0 0 0 0 0 0 0 0 0 0 0 0 0 0 0 0 0 0 0 0 0 0 0 
0 0 0 0 0 0 0 0 0 0 0 0 0 0 0 0 0 0 0 0 0 0 0 0 0 0 0 3 1 11 16 18 16 16 11 9 39 69 73 93 127 100 47 41 61 115 130 105 96 90 58 60 65 77 88 102 110 97 79 61 65 93 110 125 143 109 55 47 81 138 105 73 71 38 17 11 13 11 16 14 12 7 0 0 0 0 0 0 0 0 0 0 0 0 0 0 0 0 0 0 0 0 0 0 0 0 0 0 0 0 0 0 0 0 0 0 0 0 0 0 0 0 0 0 0 0 0 0 
0 0 0 0 0 0 0 0 0 0 0 0 0 0 0 0 0 0 0 0 0 0 0 0 0 0 0 3 1 9 11 16 15 12 12 8 11 29 50 61 100 115 69 49 78 120 113 98 87 101 62 61 63 77 88 97 95 93 90 77 63 81 92 112 136 127 80 59 94 120 74 51 35 23 19 9 11 10 13 12 11 7 0 0 0 0 0 0 0 0 0 0 0 0 0 0 0 0 0 0 0 0 0 0 0 0 0 0 0 0 0 0 0 0 0 0 0 0 0 0 0 0 0 0 0 0 0 0 
0 0 0 0 0 0 0 0 0 0 0 0 0 0 0 0 0 0 0 0 0 0 0 0 0 0 0 1 3 5 11 13 15 16 11 9 13 24 20 26 57 114 99 72 95 115 109 111 105 96 54 63 74 91 95 95 95 96 96 95 74 69 75 98 119 123 104 93 121 93 30 26 28 27 21 12 11 9 9 12 10 6 0 0 0 0 0 0 0 0 0 0 0 0 0 0 0 0 0 0 0 0 0 0 0 0 0 0 0 0 0 0 0 0 0 0 0 0 0 0 0 0 0 0 0 0 0 0 
0 0 0 0 0 0 0 0 0 0 0 0 0 0 0 0 0 0 0 0 0 0 0 0 0 0 0 0 2 4 9 11 14 15 14 8 14 22 26 26 32 72 119 102 92 108 110 120 106 68 66 77 94 107 96 95 94 101 103 106 92 74 91 95 96 101 113 128 122 49 24 27 30 25 19 14 13 9 11 13 9 5 0 0 0 0 0 0 0 0 0 0 0 0 0 0 0 0 0 0 0 0 0 0 0 0 0 0 0 0 0 0 0 0 0 0 0 0 0 0 0 0 0 0 0 0 0 0 
0 0 0 0 0 0 0 0 0 0 0 0 0 0 0 0 0 0 0 0 0 0 0 0 0 0 0 0 0 5 7 11 12 15 12 12 15 20 26 29 31 32 48 81 81 57 60 85 82 78 86 89 93 100 96 88 84 93 108 106 98 94 109 100 82 68 91 95 62 40 25 29 30 23 16 15 12 9 12 12 10 3 0 0 0 0 0 0 0 0 0 0 0 0 0 0 0 0 0 0 0 0 0 0 0 0 0 0 0 0 0 0 0 0 0 0 0 0 0 0 0 0 0 0 0 0 0 0 
0 0 0 0 0 0 0 0 0 0 0 0 0 0 0 0 0 0 0 0 0 0 0 0 0 0 0 0 0 3 6 10 12 12 15 15 14 19 23 27 29 28 28 31 40 51 50 65 82 82 82 80 74 79 84 79 76 82 94 100 102 100 114 93 60 48 40 44 50 48 25 27 27 22 16 13 11 9 12 13 10 2 0 0 0 0 0 0 0 0 0 0 0 0 0 0 0 0 0 0 0 0 0 0 0 0 0 0 0 0 0 0 0 0 0 0 0 0 0 0 0 0 0 0 0 0 0 0 
