P2
128 99
209
0 0 0 0 0 0 0 0 0 0 0 0 0 0 0 0 0 0 0 0 0 0 0 0 0 0 0 0 0 0 0 0 0 0 0 0 0 0 0 0 0 1 0 0 0 0 0 0 0 0 0 0 0 0 0 0 0 0 0 0 0 0 0 0 0 0 0 0 0 0 0 0 0 0 0 0 0 0 0 0 0 0 0 0 1 0 0 0 0 0 0 0 0 0 0 0 0 2 0 0 0 0 0 0 0 0 0 0 0 0 0 0 0 0 0 0 0 0 0 0 0 0 0 0 0 0 0 0 
0 0 0 0 0 0 0 0 0 0 0 0 0 0 0 0 0 0 0 0 0 0 0 0 0 0 0 0 0 0 0 0 0 0 0 0 0 0 0 0 0 1 1 0 0 0 0 0 0 0 0 0 0 0 0 0 0 0 0 0 0 0 0 0 0 0 0 0 0 0 0 0 0 0 0 0 0 0 0 0 0 0 0 0 1 1 0 0 0 0 0 0 0 0 0 0 0 2 0 0 0 0 0 0 0 0 0 0 0 0 0 0 0 0 0 0 0 0 0 0 0 0 0 0 0 0 0 0 
0 0 0 0 0 0 0 0 0 0 0 0 0 0 0 0 0 0 0 0 0 0 0 0 0 0 0 0 0 0 0 0 0 0 0 0 0 0 0 0 1 1 1 0 0 0 0 0 0 0 0 1 2 2 1 0 0 0 0 0 0 0 0 0 0 0 0 0 0 0 0 0 0 0 0 0 0 0 0 0 0 0 0 0 1 1 0 0 0 0 0 0 0 0 0 0 0 2 0 0 0 0 0 0 0 0 0 0 0 0 0 0 0 0 0 0 0 0 0 0 0 0 0 0 0 0 0 0 
0 0 0 0 0 0 0 0 0 0 0 0 0 0 0 0 0 0 0 0 0 0 0 0 0 0 0 0 0 0 0 0 0 0 0 0 0 0 0 0 0 1 1 1 6 13 17 18 17 19 21 25 28 27 25 21 18 16 15 12 4 0 0 0 0 0 0 0 0 0 0 0 0 0 0 0 0 0 0 0 0 0 0 0 1 1 0 0 0 0 0 0 0 0 0 0 0 2 0 0 0 0 0 0 0 0 0 0 0 0 0 0 0 0 0 0 0 0 0 0 0 0 0 0 0 0 0 0 
0 0 0 0 0 0 0 0 0 0 0 0 0 0 0 0 0 0 0 0 0 0 0 0 0 0 0 0 0 0 0 0 0 0 0 0 0 0 0 0 6 14 20 23 24 33 53 77 99 119 135 145 150 151 148 138 123 103 79 54 33 22 17 10 2 0 0 0 0 0 0 0 0 0 0 0 0 0 0 0 0 0 0 0 1 1 0 0 0 0 0 0 0 0 0 0 0 2 0 0 0 0 0 0 0 0 0 0 0 0 0 0 0 0 0 0 0 0 0 0 0 0 0 0 0 0 0 0 
0 0 0 0 0 0 0 0 0 0 0 0 0 0 0 0 0 0 0 0 0 0 0 0 0 0 0 0 0 0 0 0 0 0 0 0 0 0 9 16 24 26 36 68 110 147 168 178 183 186 187 186 185 184 185 186 185 182 176 166 147 117 79 44 23 16 11 1 0 0 0 0 0 0 0 0 0 0 0 0 0 0 0 0 1 1 0 0 0 0 0 0 0 0 0 0 0 2 0 0 0 0 0 0 0 0 0 0 0 0 0 0 0 0 0 0 0 0 0 0 0 0 0 0 0 0 0 0 
0 0 0 0 0 0 0 0 0 0 0 0 0 0 0 0 0 0 0 0 0 0 0 0 0 0 0 0 0 0 0 0 0 0 0 0 9 21 25 25 52 103 149 175 185 187 188 189 191 193 196 197 198 198 198 197 195 192 188 187 185 180 171 153 120 76 39 18 14 2 0 0 0 0 0 0 0 0 0 0 0 0 0 0 1 1 0 0 0 0 0 0 0 0 0 0 0 2 0 0 0 0 0 0 0 0 0 0 0 0 0 0 0 0 0 0 0 0 0 0 0 0 0 0 0 0 0 0 
0 0 0 0 0 0 0 0 0 0 0 0 0 0 0 0 0 0 0 0 0 0 0 0 0 0 0 0 0 0 0 0 0 0 8 24 24 26 62 123 165 182 186 189 191 193 191 186 181 178 179 185 183 171 169 181 195 201 201 197 193 188 187 186 182 170 146 100 49 22 14 2 0 0 0 0 0 0 0 0 0 0 0 0 1 1 0 0 0 0 0 0 0 0 0 0 0 2 0 0 0 0 0 0 0 0 0 0 0 0 0 0 0 0 0 0 0 0 0 0 0 0 0 0 0 0 0 0 
0 0 0 0 0 0 0 0 0 0 0 0 0 0 0 0 0 0 0 0 0 0 0 0 0 0 0 0 0 0 0 0 5 27 25 24 58 126 169 182 183 187 191 195 193 185 176 163 155 154 157 159 156 150 151 155 163 179 197 203 201 198 195 191 188 187 186 178 153 101 45 23 11 0 0 0 0 0 0 0 0 0 0 0 1 1 0 0 0 0 0 0 0 0 0 0 0 2 0 0 0 0 0 0 0 0 0 0 0 0 0 0 0 0 0 0 0 0 0 0 0 0 0 0 0 0 0 0 
0 0 0 0 0 0 0 0 0 0 0 0 0 0 0 0 0 0 0 0 0 0 0 0 0 0 0 0 0 0 0 23 27 22 40 110 166 180 182 185 190 195 193 177 161 157 152 143 138 133 136 143 144 140 144 145 148 152 166 185 203 206 203 199 197 194 189 187 186 177 146 78 30 19 2 0 0 0 0 0 0 0 0 0 1 1 0 0 0 0 0 0 0 0 0 0 0 2 0 0 0 0 0 0 0 0 0 0 0 0 0 0 0 0 0 0 0 0 0 0 0 0 0 0 0 0 0 0 
0 0 0 0 0 0 0 0 0 0 0 0 0 0 0 0 0 0 0 0 0 0 0 0 0 0 0 0 0 10 29 22 26 83 155 178 181 184 189 195 198 186 167 163 160 152 145 139 135 133 134 140 140 138 142 146 146 146 149 153 167 187 202 209 207 201 197 195 189 188 186 171 119 46 22 6 0 0 0 0 0 0 0 0 1 1 0 0 0 0 0 0 0 0 0 0 0 2 0 0 0 0 0 0 0 0 0 0 0 0 0 0 0 0 0 0 0 0 0 0 0 0 0 0 0 0 0 0 
0 0 0 0 0 0 0 0 0 0 0 0 0 0 0 0 0 0 0 0 0 0 0 0 0 0 0 0 22 25 19 49 131 173 179 183 190 195 199 193 179 171 164 155 149 145 143 141 141 140 134 134 131 130 139 145 145 145 147 151 157 168 182 193 203 209 207 201 197 194 191 188 181 148 68 23 11 0 0 0 0 0 0 0 1 1 0 0 0 0 0 0 0 0 0 0 0 2 0 0 0 0 0 0 0 0 0 0 0 0 0 0 0 0 0 0 0 0 0 0 0 0 0 0 0 0 0 0 
0 0 0 0 0 0 0 0 0 0 0 0 0 0 0 0 0 0 0 0 0 0 0 0 0 0 5 26 20 19 76 156 177 183 188 194 200 199 188 176 168 162 153 154 151 149 146 141 140 133 124 124 123 123 134 146 146 146 145 145 148 160 171 179 189 197 204 208 207 200 197 193 188 182 159 84 24 13 0 0 0 0 0 0 1 1 0 0 0 0 0 0 0 0 0 0 0 3 0 0 0 0 0 0 0 0 0 0 0 0 0 0 0 0 0 0 0 0 0 0 0 0 0 0 0 0 0 0 
0 0 0 0 0 0 0 0 0 0 0 0 0 0 0 0 0 0 0 0 0 0 0 0 0 10 25 18 26 100 165 177 187 193 199 201 196 182 171 165 163 161 157 152 149 148 150 149 139 134 126 125 123 126 129 139 147 149 153 153 151 151 157 164 172 180 189 197 204 208 205 198 193 186 182 164 94 26 14 0 0 0 0 0 1 1 0 0 0 0 0 0 0 0 0 0 0 3 0 0 0 0 0 0 0 0 0 0 0 0 0 0 0 0 0 0 0 0 0 0 0 0 0 0 0 0 0 0 
0 0 0 0 0 0 0 0 0 0 0 0 0 0 0 0 0 0 0 0 0 0 0 0 14 23 16 33 116 168 178 189 195 201 198 188 174 167 164 164 161 154 152 149 143 140 136 130 131 129 127 125 122 125 126 127 135 145 150 152 153 151 152 156 159 163 169 176 184 195 203 206 201 195 187 183 168 104 30 13 0 0 0 0 1 1 0 0 0 0 0 0 0 0 0 0 0 3 0 0 0 0 0 0 0 0 0 0 0 0 0 0 0 0 0 0 0 0 0 0 0 0 0 0 0 0 0 0 
0 0 0 0 0 0 0 0 0 0 0 0 0 0 0 0 0 0 0 0 0 0 3 19 21 15 45 128 165 180 191 197 200 190 178 167 164 166 163 159 154 148 145 139 137 127 121 121 117 117 113 110 108 116 119 116 114 119 129 136 139 142 147 152 160 160 160 159 165 175 184 196 203 201 195 186 183 170 116 35 12 0 0 0 1 1 1 0 0 0 0 0 0 0 0 0 0 3 0 0 0 0 0 0 0 0 0 0 0 0 0 0 0 0 0 0 0 0 0 0 0 0 0 0 0 0 0 0 
0 0 0 0 0 0 0 0 0 0 0 0 0 0 0 0 0 0 0 0 0 5 17 17 16 57 136 164 180 192 199 199 180 169 162 163 164 159 156 154 150 142 135 132 122 118 118 112 117 118 113 110 109 116 124 124 121 121 123 127 130 128 130 136 146 151 156 158 159 160 168 174 187 199 200 194 188 184 169 123 39 9 0 1 1 1 0 0 0 0 0 0 0 0 0 0 0 3 0 0 0 0 0 0 0 0 0 0 0 0 0 0 0 0 0 0 0 0 0 0 0 0 0 0 0 0 0 0 
0 0 0 0 0 0 0 0 0 0 0 0 0 0 0 0 0 0 0 0 6 16 14 18 71 145 165 181 194 201 194 170 162 162 164 158 150 145 145 143 139 137 136 130 124 121 114 116 117 113 115 113 114 121 119 120 119 120 119 120 123 128 132 133 134 134 140 147 151 153 152 159 166 178 193 197 196 189 183 171 128 36 6 1 1 1 0 0 0 0 0 0 0 0 0 0 0 3 0 0 0 0 0 0 0 0 0 0 0 0 0 0 0 0 0 0 0 0 0 0 0 0 0 0 0 0 0 0 
0 0 0 0 0 0 0 0 0 0 0 0 0 0 0 0 0 0 0 6 15 13 19 79 149 166 180 193 199 190 165 156 158 158 151 143 140 144 137 133 130 129 127 119 115 114 112 115 117 117 118 112 114 122 121 121 123 126 128 129 127 124 122 125 128 128 129 133 145 147 145 144 152 158 173 189 197 196 190 181 169 120 28 3 1 1 0 0 0 0 0 0 0 0 0 0 0 3 0 0 0 0 0 0 0 0 0 0 0 0 0 0 0 0 0 0 0 0 0 0 0 0 0 0 0 0 0 0 
0 0 0 0 0 0 0 0 0 0 0 0 0 0 0 0 0 0 4 16 13 20 83 148 164 176 190 198 183 161 158 155 153 148 140 137 139 132 126 124 124 116 114 119 118 116 116 117 116 114 109 104 107 117 118 118 120 120 118 121 125 128 128 122 120 121 129 130 133 145 143 143 142 147 154 169 185 196 196 188 178 164 105 20 3 1 0 0 0 0 0 0 0 0 0 0 0 3 0 0 0 0 0 0 0 0 0 0 0 0 0 0 0 0 0 0 0 0 0 0 0 0 0 0 0 0 0 0 
0 0 0 0 0 0 0 0 0 0 0 0 0 0 0 0 0 2 15 13 20 79 145 159 172 186 198 182 159 155 152 149 144 136 135 135 125 124 123 121 117 118 121 118 112 108 108 107 108 105 96 98 100 111 110 109 110 110 109 112 117 116 122 128 126 117 119 130 131 129 142 137 142 142 148 153 166 180 197 194 184 172 154 82 11 1 0 0 0 0 0 0 0 0 0 0 0 3 0 0 0 0 0 0 0 0 0 0 0 0 0 0 0 0 0 0 0 0 0 0 0 0 0 0 0 0 0 0 
0 0 0 0 0 0 0 0 0 0 0 0 0 0 0 0 0 11 11 17 72 139 154 167 181 195 182 156 154 150 146 141 137 138 133 124 124 124 117 117 119 118 113 107 106 106 103 103 106 101 96 97 98 106 111 112 113 110 110 111 111 107 105 111 119 121 115 118 128 129 127 133 129 138 145 145 150 163 182 198 191 181 167 139 53 5 0 0 0 0 0 0 0 0 0 0 0 4 0 0 0 0 0 0 0 0 0 0 0 0 0 0 0 0 0 0 0 0 0 0 0 0 0 0 0 0 0 0 
0 0 0 0 0 0 0 0 0 0 0 0 0 0 0 0 6 12 14 59 132 148 164 178 192 183 155 153 148 142 139 133 131 129 121 121 124 116 115 118 116 109 106 105 103 101 103 103 104 101 101 102 106 109 110 109 114 114 112 109 107 106 102 100 103 109 115 117 119 127 125 127 127 126 134 142 142 149 158 184 197 189 175 158 115 26 2 0 0 0 0 0 0 0 0 0 0 4 0 0 0 0 0 0 0 0 0 0 0 0 0 0 0 0 0 0 0 0 0 0 0 0 0 0 0 0 0 0 
0 0 0 0 0 0 0 0 0 0 0 0 0 0 0 1 12 12 47 120 144 157 173 189 184 157 149 146 141 141 133 129 128 127 123 121 112 109 115 110 102 98 99 102 104 107 108 107 105 100 107 110 109 107 105 104 107 109 111 112 113 113 111 103 100 104 111 115 114 119 122 120 125 123 128 136 146 142 147 160 188 194 182 168 146 78 8 0 0 0 0 0 0 0 0 0 0 5 0 0 0 0 0 0 0 0 0 0 0 0 0 0 0 0 0 0 0 0 0 0 0 0 0 0 0 0 0 0 
0 0 0 0 0 0 0 0 0 0 0 0 0 0 0 7 11 25 101 135 150 165 182 185 161 146 144 139 139 137 132 125 126 115 117 109 107 113 109 103 103 103 110 112 110 108 110 109 101 99 107 108 104 102 99 100 99 99 100 104 109 114 115 108 103 102 107 114 115 111 116 116 121 122 123 131 143 141 140 146 168 188 188 175 158 121 30 1 0 0 0 0 0 0 0 0 0 4 0 0 0 0 0 0 0 0 0 0 0 0 0 0 0 0 0 0 0 0 0 0 0 0 0 0 0 0 0 0 
0 0 0 0 0 0 0 0 0 0 0 0 0 0 2 9 12 73 127 142 159 174 179 168 144 141 138 134 138 137 125 125 116 115 112 105 113 113 109 107 111 111 109 105 101 101 103 102 99 102 108 106 103 108 100 99 97 97 92 92 98 106 112 115 109 103 100 107 111 114 111 117 117 124 123 127 137 138 136 136 149 175 188 180 165 140 67 4 0 0 0 0 0 0 0 0 0 4 0 0 0 0 0 0 0 0 0 0 0 0 0 0 0 0 0 0 0 0 0 0 0 0 0 0 0 0 0 0 
0 0 0 0 0 0 0 0 0 0 0 0 0 0 6 8 39 111 134 148 168 175 166 153 137 136 132 136 138 130 126 119 112 112 107 107 114 113 109 107 105 101 94 90 91 96 99 99 99 105 117 115 109 111 102 101 105 102 99 93 90 91 97 106 114 111 101 99 106 111 111 114 117 118 124 128 135 138 132 130 135 158 178 182 170 151 105 17 0 0 0 0 0 0 0 0 0 4 0 0 0 0 0 0 0 0 0 0 0 0 0 0 0 0 0 0 0 0 0 0 0 0 0 0 0 0 0 0 
0 0 0 0 0 0 0 0 0 0 0 0 0 1 7 15 81 122 141 157 173 164 158 141 133 130 127 137 133 128 121 110 109 111 111 113 115 105 101 101 95 89 88 90 93 100 105 106 106 102 104 107 106 97 89 88 91 103 107 105 100 96 92 94 104 116 110 102 102 108 109 111 118 117 122 130 133 137 131 125 128 151 167 180 172 156 126 38 1 0 0 0 0 0 0 0 0 5 0 0 0 0 0 0 0 0 0 0 0 0 0 0 0 0 0 0 0 0 0 0 0 0 0 0 0 0 0 0 
0 0 0 0 0 0 0 0 0 0 0 0 0 3 7 36 109 130 147 166 169 157 148 135 127 125 128 136 127 126 115 112 113 113 113 116 103 94 97 96 88 89 95 102 105 107 107 105 100 95 93 94 101 92 93 91 90 92 91 99 103 104 101 97 94 107 113 108 103 103 107 109 116 116 118 128 134 134 129 121 122 147 160 177 174 161 136 60 3 0 0 0 0 0 0 0 0 5 0 0 0 0 0 0 0 0 0 0 0 0 0 0 0 0 0 0 0 0 0 0 0 0 0 0 0 0 0 0 
0 0 0 0 0 0 0 0 0 0 0 0 0 4 9 67 120 134 153 169 157 149 142 128 125 122 130 130 123 122 117 112 118 114 113 105 96 97 99 94 92 100 106 106 103 99 96 99 102 100 99 99 99 99 98 95 95 93 90 87 87 98 103 106 102 100 108 113 108 104 106 109 115 114 118 127 133 126 126 120 115 139 154 172 176 162 143 80 6 0 0 0 0 0 0 0 0 5 0 0 0 0 0 0 0 0 0 0 0 0 0 0 0 0 0 0 0 0 0 0 0 0 0 0 0 0 0 0 
0 0 0 0 0 0 0 0 0 0 0 0 0 5 17 92 126 141 161 162 142 140 138 122 121 119 128 124 118 118 113 116 123 114 108 99 99 98 99 99 105 105 102 98 99 97 98 99 99 96 96 95 98 98 95 91 93 94 96 95 93 91 94 104 109 106 107 113 113 108 106 112 116 114 116 124 126 122 123 121 114 135 150 168 176 162 146 97 11 0 0 0 0 0 0 0 0 5 0 0 0 0 0 0 0 0 0 0 0 0 0 0 0 0 0 0 0 0 0 0 0 0 0 0 0 0 0 0 
0 0 0 0 0 0 0 0 0 0 0 0 1 6 33 109 129 148 160 146 130 134 134 121 115 118 122 119 118 112 113 125 123 111 102 101 101 96 102 106 102 97 92 92 96 96 92 90 90 89 90 90 98 93 90 89 96 97 89 94 99 100 98 100 107 110 113 114 114 112 110 110 118 118 117 123 122 119 118 116 113 130 153 167 177 166 151 112 17 0 0 0 0 0 0 0 0 5 0 0 0 0 0 0 0 0 0 0 0 0 0 0 0 0 0 0 0 0 0 0 0 0 0 0 0 0 0 0 
0 0 0 0 0 0 0 0 0 0 0 0 2 6 49 117 135 154 153 138 127 132 133 118 112 116 120 119 114 108 120 127 114 107 102 106 102 102 103 97 93 94 101 96 91 93 89 86 93 99 101 102 104 102 99 96 97 100 99 95 93 96 96 92 101 111 116 120 116 115 115 110 110 121 119 121 118 112 117 112 112 127 150 162 178 170 154 124 25 0 0 0 0 0 0 0 0 5 0 0 0 0 0 0 0 0 0 0 0 0 0 0 0 0 0 0 0 0 0 0 0 0 0 0 0 0 0 0 
0 0 0 0 0 0 0 0 0 0 0 0 3 7 62 122 139 156 147 135 124 131 133 118 112 112 115 118 108 109 125 121 109 107 105 108 110 108 101 92 89 96 101 98 89 89 90 93 98 101 106 104 104 98 93 90 92 101 104 100 99 99 104 105 103 100 104 111 119 117 115 114 108 116 120 119 115 106 114 112 113 130 151 164 178 174 157 135 37 1 0 0 0 0 0 0 0 5 0 0 0 0 0 0 0 0 0 0 0 0 0 0 0 0 0 0 0 0 0 0 0 0 0 0 0 0 0 0 
0 0 0 0 0 0 0 0 0 0 0 0 3 9 71 127 146 154 147 137 128 130 133 121 113 109 114 111 102 112 125 117 110 103 105 114 116 109 106 96 91 95 100 98 90 84 92 101 101 97 100 97 94 84 79 81 77 87 99 101 103 99 100 94 91 99 105 109 119 126 121 114 111 114 119 124 111 106 109 109 113 136 151 164 176 177 162 144 49 2 0 0 0 0 0 0 0 5 0 0 0 0 0 0 0 0 0 0 0 0 0 0 0 0 0 0 0 0 0 0 0 0 0 0 0 0 0 0 
0 0 0 0 0 0 0 0 0 0 0 0 3 11 79 131 150 156 148 138 134 131 134 123 115 107 114 104 101 114 123 116 106 105 115 120 114 109 113 117 112 101 97 92 94 98 96 102 101 97 97 96 91 81 80 77 73 75 90 97 104 95 89 92 100 108 111 111 111 119 129 126 118 116 117 128 115 109 104 107 115 137 148 162 179 179 167 152 61 3 0 0 0 0 0 0 0 5 0 0 0 0 0 0 0 0 0 0 0 0 0 0 0 0 0 0 0 0 0 0 0 0 0 0 0 0 0 0 
0 0 0 0 0 0 0 0 0 0 0 0 4 12 84 134 154 162 150 142 139 133 134 122 118 109 111 101 102 112 125 116 107 117 122 113 105 98 97 97 93 91 96 90 87 96 104 102 102 98 98 97 98 88 86 78 72 67 83 95 98 89 96 102 97 93 92 93 93 99 113 125 133 127 121 128 128 115 104 111 122 137 145 156 176 181 169 154 75 6 0 0 0 0 0 0 0 4 0 0 0 0 0 0 0 0 0 0 0 0 0 0 0 0 0 0 0 0 0 0 0 0 0 0 0 0 0 0 
0 0 0 0 0 0 0 0 0 0 0 0 4 14 88 136 154 161 149 142 142 137 136 128 122 113 109 98 102 115 127 115 120 122 109 100 93 85 82 84 84 76 76 85 91 102 106 105 101 96 94 96 103 95 91 89 80 73 87 94 91 100 100 98 93 88 92 94 91 95 105 112 118 124 132 134 137 130 109 116 127 137 139 151 171 182 172 156 88 6 0 0 0 0 0 0 0 4 0 0 0 0 0 0 0 0 0 0 0 0 0 0 0 0 0 0 0 0 0 0 0 0 0 0 0 0 0 0 
0 0 0 0 0 0 0 0 0 0 0 0 6 14 92 141 159 160 149 142 142 137 137 133 128 120 109 100 103 122 129 131 127 110 98 93 90 89 86 87 84 81 79 82 87 95 99 103 103 104 100 99 105 102 98 97 89 87 93 90 98 90 93 92 87 88 90 92 91 95 99 100 103 108 126 144 144 137 122 122 128 132 134 146 158 178 174 159 101 10 0 0 0 0 0 0 0 4 0 0 0 0 0 0 0 0 0 0 0 0 0 0 0 0 0 0 0 0 0 0 0 0 0 0 0 0 0 0 
0 0 0 0 0 0 0 0 0 0 0 0 7 14 94 144 158 162 147 140 139 134 132 135 131 125 112 111 109 125 137 140 115 98 91 84 82 82 84 84 82 79 82 89 93 93 92 99 94 99 97 100 107 107 110 100 94 96 87 99 93 87 88 86 87 90 92 97 96 97 104 109 111 113 120 147 149 140 134 127 125 126 128 140 150 174 176 161 115 16 0 0 0 0 0 0 0 4 0 0 0 0 0 0 0 0 0 0 0 0 0 0 0 0 0 0 0 0 0 0 0 0 0 0 0 0 0 0 
0 0 0 0 0 0 0 0 0 0 0 0 7 15 95 146 161 162 142 135 137 133 127 129 127 128 117 120 127 130 142 130 98 90 86 85 85 84 87 84 84 83 83 87 89 91 91 95 95 100 101 107 112 108 117 106 101 98 89 104 88 82 81 88 96 95 95 99 99 102 107 112 116 123 125 132 143 140 139 126 123 122 123 131 140 166 174 160 125 24 0 0 0 0 0 0 0 5 0 0 0 0 0 0 0 0 0 0 0 0 0 0 0 0 0 0 0 0 0 0 0 0 0 0 0 0 0 0 
0 0 0 0 0 0 0 0 0 0 0 0 7 16 98 148 163 163 136 132 134 130 126 124 124 129 118 120 134 138 146 123 106 97 92 90 89 89 85 83 83 90 90 87 87 87 92 96 95 99 103 107 115 109 121 108 99 97 99 102 84 79 84 90 91 92 93 101 104 104 108 113 118 117 119 121 129 141 139 128 120 118 119 122 130 158 173 161 131 34 1 0 0 0 0 0 0 4 0 0 0 0 0 0 0 0 0 0 0 0 0 0 0 0 0 0 0 0 0 0 0 0 0 0 0 0 0 0 
0 0 0 0 0 0 0 0 0 0 0 0 8 16 98 147 165 164 133 131 132 127 122 120 119 120 113 118 134 134 137 124 121 109 99 96 93 88 84 84 85 91 92 88 86 86 91 100 99 102 104 113 117 116 116 110 102 107 101 93 83 82 86 91 95 96 94 96 100 99 104 110 112 107 115 119 122 138 136 130 117 112 112 115 120 149 171 162 135 43 1 0 0 0 0 0 0 4 0 0 0 0 0 0 0 0 0 0 0 0 0 0 0 0 0 0 0 0 0 0 0 0 0 0 0 0 0 0 
0 0 0 0 0 0 0 0 0 0 0 0 8 17 101 150 168 160 129 125 128 121 116 112 112 115 112 119 126 129 124 110 108 103 97 92 88 87 84 78 84 88 86 88 87 87 89 96 100 100 106 103 105 108 106 116 108 108 99 90 85 85 89 92 91 90 87 88 93 94 97 105 110 106 113 118 122 138 137 127 113 107 109 111 113 136 165 161 138 50 2 0 0 0 0 0 0 4 0 0 0 0 0 0 0 0 0 0 0 0 0 0 0 0 0 0 0 0 0 0 0 0 0 0 0 0 0 0 
0 0 0 0 0 0 0 0 0 0 0 0 8 18 102 152 168 155 122 121 121 114 105 103 107 112 112 120 122 122 116 106 101 100 94 89 86 86 82 84 84 87 86 86 85 90 91 90 99 102 109 104 101 103 104 114 108 111 105 91 85 87 90 84 82 86 89 91 92 93 98 106 106 103 107 114 120 134 133 127 116 103 105 107 105 124 151 158 139 56 2 0 0 0 0 0 0 4 0 0 0 0 0 0 0 0 0 0 0 0 0 0 0 0 0 0 0 0 0 0 0 0 0 0 0 0 0 0 
0 0 0 0 0 0 0 0 0 0 0 0 8 18 100 152 168 151 117 114 113 108 99 95 102 107 105 119 119 118 112 106 100 94 90 86 87 83 80 84 91 93 89 87 82 83 91 88 87 101 115 120 110 99 99 92 112 107 101 94 92 87 84 76 83 88 88 92 90 91 98 104 101 101 106 114 123 131 128 131 124 104 106 108 106 119 134 151 141 60 2 0 0 0 0 0 0 4 0 0 0 0 0 0 0 0 0 0 0 0 0 0 0 0 0 0 0 0 0 0 0 0 0 0 0 0 0 0 
0 0 0 0 0 0 0 0 0 0 0 0 8 17 97 151 166 143 115 109 106 103 99 95 102 100 106 117 113 116 108 105 101 94 89 87 88 86 84 88 88 86 85 87 87 88 91 83 83 95 110 120 101 88 93 82 99 113 93 97 94 90 80 78 88 88 92 93 89 90 97 102 95 95 106 118 131 133 134 134 127 105 104 106 106 118 131 150 142 62 2 0 0 0 0 0 0 4 0 0 0 0 0 0 0 0 0 0 0 0 0 0 0 0 0 0 0 0 0 0 0 0 0 0 0 0 0 0 
0 0 0 0 0 0 0 0 0 0 0 0 7 17 92 149 164 134 113 106 106 105 100 95 105 103 106 115 110 115 110 105 102 94 88 87 88 92 88 91 91 87 81 79 82 87 89 77 78 93 111 111 85 79 89 79 84 115 87 93 90 86 80 86 88 87 90 91 91 91 97 98 94 95 106 123 139 137 134 132 126 106 104 102 107 115 130 152 136 59 2 0 0 0 0 0 0 3 0 0 0 0 0 0 0 0 0 0 0 0 0 0 0 0 0 0 0 0 0 0 0 0 0 0 0 0 0 0 
0 0 0 0 0 0 0 0 0 0 0 0 6 15 83 147 163 129 110 106 104 105 101 92 102 103 105 115 108 116 117 105 98 102 89 83 86 94 91 88 91 91 82 76 80 83 88 80 84 100 108 88 82 81 86 71 79 110 98 90 87 82 82 90 90 87 89 92 94 91 96 95 92 96 107 126 143 127 128 132 124 105 102 99 106 112 129 151 131 54 2 0 0 0 0 0 0 3 0 0 0 0 0 0 0 0 0 0 0 0 0 0 0 0 0 0 0 0 0 0 0 0 0 0 0 0 0 0 
0 0 0 0 0 0 0 0 0 0 0 0 5 16 77 143 160 132 111 106 102 103 103 91 98 101 103 116 107 114 119 107 95 101 90 87 90 95 95 92 92 86 84 76 76 80 82 75 88 103 105 86 82 84 92 77 73 90 109 92 86 80 81 87 89 90 93 92 90 90 94 96 95 101 107 125 136 120 123 133 123 106 103 99 105 111 132 147 125 49 2 0 0 0 0 0 0 3 0 0 0 0 0 0 0 0 0 0 0 0 0 0 0 0 0 0 0 0 0 0 0 0 0 0 0 0 0 0 
0 0 0 0 0 0 0 0 0 0 0 0 3 15 71 139 158 137 112 107 101 100 103 98 95 98 100 114 110 115 123 110 93 97 93 87 92 94 97 96 90 84 76 73 74 78 74 78 92 106 90 81 79 89 98 83 77 75 107 95 97 88 82 86 91 90 92 90 88 89 95 99 93 101 106 120 123 115 118 132 119 104 102 98 102 109 134 142 117 43 2 0 0 0 0 0 0 3 0 0 0 0 0 0 0 0 0 0 0 0 0 0 0 0 0 0 0 0 0 0 0 0 0 0 0 0 0 0 
0 0 0 0 0 0 0 0 0 6 5 0 0 13 63 131 152 139 114 105 101 97 103 100 93 96 99 111 112 118 124 108 95 91 95 87 91 95 94 96 92 87 79 74 80 92 87 81 90 97 87 78 77 92 94 85 80 74 93 104 111 104 98 95 91 91 95 94 92 91 97 96 92 98 99 116 117 113 121 129 119 106 97 96 99 111 139 136 106 37 1 0 0 0 0 0 0 4 0 0 0 0 0 0 0 0 0 0 0 0 0 0 0 0 0 0 0 0 0 0 0 0 0 0 0 0 0 0 
0 0 0 0 0 0 0 0 0 4 9 3 0 10 52 123 150 138 114 103 98 95 103 101 91 90 104 113 115 118 127 112 97 91 91 91 89 94 91 95 97 97 93 81 82 87 92 85 100 88 86 79 74 89 88 84 86 79 83 119 122 123 111 101 96 88 94 95 92 92 90 90 94 90 97 115 113 118 128 127 125 110 92 99 97 113 139 130 97 32 1 0 0 0 0 0 0 4 0 0 0 0 0 0 0 0 0 0 0 0 0 0 0 0 0 0 0 0 0 0 0 0 0 0 0 0 0 0 
0 0 0 0 0 0 0 0 0 1 5 9 3 8 41 113 145 136 110 100 96 95 100 103 95 90 105 113 114 115 125 118 99 95 92 93 93 97 94 95 98 98 88 88 101 105 93 91 104 76 85 79 78 94 86 79 88 86 95 125 123 114 106 105 110 106 103 98 91 92 90 92 96 96 103 119 127 129 129 129 134 115 95 98 97 118 139 126 89 26 0 0 0 0 0 0 0 3 0 0 0 0 0 0 0 0 0 0 0 0 0 0 0 0 0 0 0 0 0 0 0 0 0 0 0 0 0 0 
0 0 0 0 0 0 0 0 0 1 3 9 3 6 32 100 141 140 110 102 98 98 97 102 98 92 107 113 113 117 124 122 111 101 97 93 94 98 103 99 102 98 94 101 99 92 87 102 101 74 82 80 80 99 89 79 78 77 86 118 132 109 109 105 107 112 131 130 125 125 124 120 119 123 129 133 122 126 132 130 136 124 102 95 107 126 138 116 82 18 1 0 0 7 4 0 0 3 0 0 0 0 0 0 0 0 0 0 0 0 0 0 0 0 0 0 0 0 0 0 0 0 0 0 0 0 0 0 
0 0 0 0 0 0 0 0 0 0 2 9 5 6 23 88 135 145 116 107 101 97 94 100 99 95 107 115 114 117 127 125 120 126 118 108 105 117 121 113 112 103 91 96 99 98 92 105 100 78 85 86 85 102 93 77 79 82 89 126 132 108 107 109 108 117 146 149 145 149 149 145 141 130 127 134 131 127 131 131 139 123 116 107 108 135 130 112 75 12 3 3 6 1 2 0 0 3 0 0 0 0 0 0 0 0 0 0 0 0 0 0 0 0 0 0 0 0 0 0 0 0 0 0 0 0 0 0 
0 0 0 0 0 0 0 0 0 0 1 8 6 7 19 79 127 149 130 110 102 95 95 95 106 109 110 117 116 113 118 120 109 119 123 120 120 121 118 111 112 108 104 99 100 96 97 105 106 91 95 95 99 111 101 81 80 88 103 131 128 110 107 107 106 125 145 148 155 160 143 138 133 123 130 129 133 139 139 130 134 128 123 125 141 138 116 108 66 8 2 2 4 3 0 0 0 3 0 0 0 0 0 0 0 0 0 0 0 0 0 0 0 0 0 0 0 0 0 0 0 0 0 0 0 0 0 0 
0 0 0 0 0 0 0 0 0 0 1 8 9 9 14 67 119 145 146 114 105 92 100 107 117 115 117 122 119 118 119 127 134 133 129 124 118 115 117 111 109 98 92 98 97 94 94 106 109 104 97 97 99 112 102 85 89 91 101 113 114 109 106 109 112 130 141 149 155 153 135 140 141 143 147 143 145 153 158 150 144 145 142 150 162 134 112 104 52 6 1 3 2 1 0 0 0 4 0 0 0 0 0 0 0 0 0 0 0 0 0 0 0 0 0 0 0 0 0 0 0 0 0 0 0 0 0 0 
0 0 0 0 0 0 0 0 0 0 0 8 10 9 13 54 113 141 151 128 112 105 116 115 125 122 121 127 129 117 129 137 143 147 151 143 141 137 129 110 97 91 87 91 91 87 90 106 109 102 97 90 88 107 95 90 89 95 101 104 110 105 113 111 117 133 148 151 153 147 144 148 152 141 137 132 130 150 161 161 167 168 165 172 177 127 116 99 31 6 4 3 1 0 0 0 0 3 0 0 0 0 0 0 0 0 0 0 0 0 0 0 0 0 0 0 0 0 0 0 0 0 0 0 0 0 0 0 
0 0 0 0 0 0 0 0 0 0 0 10 13 8 9 38 106 137 148 141 134 143 133 131 141 137 139 133 128 128 139 150 149 156 153 143 152 151 139 115 106 100 93 87 89 85 96 110 97 90 90 88 88 114 99 87 82 89 100 100 106 108 109 112 124 125 132 141 141 149 152 142 138 130 128 135 141 153 162 164 163 172 175 174 156 113 118 82 15 6 5 3 1 0 0 0 0 3 0 0 0 0 0 0 0 0 0 0 0 0 0 0 0 0 0 0 0 0 0 0 0 0 0 0 0 0 0 0 
0 0 0 0 0 0 0 0 0 0 0 6 12 7 6 12 61 124 140 143 148 165 169 153 155 148 139 138 133 133 150 155 148 147 150 147 139 147 137 119 114 117 108 95 91 91 100 112 105 86 86 94 97 113 111 93 84 86 98 107 110 108 110 108 116 117 117 131 133 131 122 125 125 127 143 149 150 149 150 156 160 164 164 160 140 114 109 89 17 5 6 3 1 1 0 0 0 2 0 0 0 0 0 0 0 0 0 0 0 0 0 0 0 0 0 0 0 0 0 0 0 0 0 0 0 0 0 0 
0 0 0 0 0 0 0 0 0 0 0 7 10 6 4 9 38 113 144 145 149 168 171 168 162 161 157 150 129 122 134 144 149 147 153 147 141 148 137 113 103 110 108 104 99 97 110 111 101 94 92 99 102 117 116 99 88 82 94 98 106 102 95 111 116 115 122 126 128 116 117 119 116 136 144 150 146 142 141 147 156 167 153 133 115 112 115 62 8 3 7 4 2 1 0 0 0 2 0 0 0 0 0 0 0 0 0 0 0 0 0 0 0 0 0 0 0 0 0 0 0 0 0 0 0 0 0 0 
0 0 0 0 0 0 0 0 0 0 0 7 7 6 5 10 23 90 139 138 145 152 154 139 158 160 149 145 142 134 125 137 147 144 154 152 149 146 131 118 103 101 107 107 97 98 107 101 96 96 100 97 87 106 116 105 86 84 95 90 99 107 103 107 105 100 112 125 128 127 129 121 126 141 144 148 148 153 139 138 141 150 126 110 121 118 107 33 6 4 6 6 2 1 0 0 0 2 0 0 0 0 0 0 0 0 0 0 0 0 0 0 0 0 0 0 0 0 0 0 0 0 0 0 0 0 0 0 
0 0 0 0 0 0 0 0 0 0 0 5 7 5 7 11 17 61 130 140 139 132 141 147 137 147 146 143 135 141 129 127 138 136 132 143 147 143 133 127 108 99 99 94 94 95 107 99 105 109 107 95 88 95 116 117 89 91 99 90 110 124 124 124 105 87 89 102 107 114 120 115 125 142 149 154 154 152 140 135 127 130 118 102 107 114 77 17 7 4 7 4 4 1 0 0 0 2 0 0 0 0 0 0 0 0 0 0 0 0 0 0 0 0 0 0 0 0 0 0 0 0 0 0 0 0 0 0 
0 0 0 0 0 0 0 0 0 0 0 4 5 6 7 11 15 33 110 129 128 127 137 145 145 139 126 126 125 143 151 126 117 120 137 138 138 135 130 114 97 93 99 104 105 106 123 110 122 114 112 108 102 101 123 128 106 103 105 108 118 130 123 124 113 92 87 89 95 100 104 124 135 141 145 154 157 152 156 142 133 131 113 91 101 110 42 12 6 4 4 4 5 1 0 0 0 2 0 0 0 0 0 0 0 0 0 0 0 0 0 0 0 0 0 0 0 0 0 0 0 0 0 0 0 0 0 0 
0 0 0 0 0 0 0 0 0 0 0 4 4 2 3 9 15 17 80 113 118 127 135 142 136 138 124 121 124 141 152 134 113 114 128 142 143 137 118 100 85 97 105 115 118 123 126 125 129 123 130 131 113 108 139 138 116 108 113 113 114 122 115 119 124 109 91 83 86 106 124 134 125 130 135 142 157 156 173 162 138 113 101 86 99 85 21 10 6 6 2 5 6 1 0 0 0 2 0 0 0 0 0 0 0 0 0 0 0 0 0 0 0 0 0 0 0 0 0 0 0 0 0 0 0 0 0 0 
0 0 0 0 0 0 0 0 0 0 0 3 5 2 0 4 14 14 46 115 129 118 134 151 146 140 133 131 138 147 152 128 110 110 109 117 127 114 102 95 91 97 101 112 122 127 122 128 133 125 135 141 145 148 151 134 127 132 127 119 126 141 137 132 127 112 95 85 100 127 117 112 124 123 126 139 155 169 179 172 137 104 91 91 103 56 13 13 5 6 4 4 3 1 0 0 0 2 0 0 0 0 0 0 0 0 0 0 0 0 0 0 0 0 0 0 0 0 0 0 0 0 0 0 0 0 0 0 
0 0 0 0 0 0 0 0 0 0 0 2 6 3 1 3 12 14 26 99 119 102 122 130 152 145 149 146 151 145 148 136 123 116 106 116 111 94 94 105 104 109 114 122 133 142 135 138 148 146 143 146 157 169 172 164 159 154 143 136 142 161 161 150 133 122 119 115 122 126 109 112 124 120 120 141 152 175 169 158 126 98 84 82 93 31 11 13 5 5 5 3 3 1 0 0 0 2 0 0 0 0 0 0 0 0 0 0 0 0 0 0 0 0 0 0 0 0 0 0 0 0 0 0 0 0 0 0 
0 0 0 0 0 0 0 0 0 0 1 2 5 3 1 5 11 11 16 67 115 109 112 122 143 157 156 149 145 143 144 140 126 119 115 115 114 101 99 110 135 132 125 124 139 147 149 147 151 140 136 139 143 146 149 150 151 150 135 132 140 161 167 162 146 140 134 133 140 115 103 102 112 114 113 145 155 170 156 140 128 113 95 103 80 20 10 10 5 3 4 3 3 2 0 0 0 1 0 0 0 0 0 0 0 0 0 0 0 0 0 0 0 0 0 0 0 0 0 0 0 0 0 0 0 0 0 0 
0 0 0 0 0 0 0 0 0 0 1 4 5 2 1 5 9 10 12 41 94 109 112 118 129 153 158 158 151 144 141 140 132 117 110 114 116 119 121 126 138 153 152 144 153 151 150 157 152 148 145 152 147 151 142 143 142 150 141 140 144 150 164 165 168 158 149 151 144 110 95 94 108 117 119 139 158 166 145 121 111 103 100 99 67 16 10 9 6 2 2 4 4 2 1 0 0 1 0 0 0 0 0 0 0 0 0 0 0 0 0 0 0 0 0 0 0 0 0 0 0 0 0 0 0 0 0 0 
0 0 0 0 0 0 0 0 0 0 1 4 13 10 3 5 8 10 11 28 81 107 118 109 112 131 154 158 155 137 137 135 133 114 102 105 107 113 119 126 134 149 159 160 157 155 152 157 153 150 145 150 152 151 144 136 143 150 133 137 135 143 160 168 167 157 154 152 139 108 90 98 109 122 138 153 161 163 135 117 88 82 88 91 56 15 8 7 6 2 2 4 4 2 1 0 0 1 0 0 0 0 0 0 0 0 0 0 0 0 0 0 0 0 0 0 0 0 0 0 0 0 0 0 0 0 0 0 
0 0 0 0 0 0 0 0 0 0 0 4 11 12 11 6 6 10 12 21 64 95 115 114 112 115 138 143 164 145 133 126 129 111 98 97 101 110 114 119 126 143 161 164 158 154 157 161 158 159 147 155 156 150 145 128 126 134 124 125 127 140 147 160 165 165 159 154 139 105 90 92 102 117 153 173 173 167 144 100 75 90 97 90 39 16 6 4 5 3 0 3 4 2 2 0 0 0 0 0 0 0 0 0 0 0 0 0 0 0 0 0 0 0 0 0 0 0 0 0 0 0 0 0 0 0 0 0 
0 0 0 0 0 0 0 0 0 0 0 3 10 11 9 8 8 12 16 16 33 86 115 109 100 114 129 138 163 149 139 124 128 106 88 97 104 103 103 107 116 142 164 163 160 152 148 151 150 156 155 164 158 154 133 115 116 120 124 120 124 149 147 166 173 169 157 144 131 106 92 94 105 133 156 162 166 155 139 88 80 88 76 62 20 15 9 7 6 5 5 3 5 3 1 0 0 0 0 0 0 0 0 0 0 0 0 0 0 0 0 0 0 0 0 0 0 0 0 0 0 0 0 0 0 0 0 0 
0 0 0 0 0 0 0 0 0 0 0 2 11 10 10 10 9 9 14 15 18 51 105 101 103 105 121 141 163 162 150 135 125 123 101 93 95 96 98 103 124 145 155 156 155 150 143 141 138 136 149 147 141 159 155 123 120 130 130 123 140 161 149 162 165 170 158 161 162 140 132 119 132 141 140 145 125 103 102 75 66 85 87 35 12 9 9 8 5 4 6 8 12 5 2 0 0 0 0 0 0 0 0 0 0 0 0 0 0 0 0 0 0 0 0 0 0 0 0 0 0 0 0 0 0 0 0 0 
0 0 0 0 0 0 0 0 0 0 0 0 9 10 6 7 6 6 8 13 20 29 67 95 89 87 107 142 157 165 160 143 129 132 117 97 94 99 108 135 137 156 170 160 169 163 150 157 164 162 163 149 153 174 175 159 152 153 155 149 160 171 172 169 168 175 158 175 169 157 146 140 136 139 112 90 90 84 88 72 91 94 51 17 10 3 3 5 6 4 5 5 8 4 0 0 0 0 0 0 0 0 0 0 0 0 0 0 0 0 0 0 0 0 0 0 0 0 0 0 0 0 0 0 0 0 0 0 
0 0 0 0 0 0 0 0 0 0 0 0 3 6 5 2 2 3 6 9 16 23 32 80 80 71 92 105 113 145 149 151 145 140 124 102 108 115 120 129 163 171 183 177 194 191 176 183 176 171 176 177 174 176 176 162 162 165 165 173 184 180 187 185 183 196 188 188 175 150 146 127 103 84 76 85 87 85 79 69 66 41 28 22 15 3 1 2 2 3 5 6 8 0 0 0 0 0 0 0 0 0 0 0 0 0 0 0 0 0 0 0 0 0 0 0 0 0 0 0 0 0 0 0 0 0 0 0 
0 0 0 0 0 0 0 0 0 0 0 0 0 3 4 2 1 1 0 6 11 19 23 46 83 86 62 51 73 76 97 104 128 133 123 117 115 125 142 164 174 172 162 163 182 189 179 184 174 161 158 166 164 159 157 161 152 155 156 156 153 185 196 164 170 192 195 185 153 136 128 114 89 79 74 91 98 90 71 50 38 39 36 27 21 1 1 1 1 1 2 6 8 0 0 0 0 0 0 0 0 0 0 0 0 0 0 0 0 0 0 0 0 0 0 0 0 0 0 0 0 0 0 0 0 0 0 0 
0 0 0 0 0 0 0 0 0 0 0 0 0 2 5 4 4 2 3 4 9 14 18 23 37 49 35 40 70 59 64 60 81 84 87 83 79 70 72 71 88 114 132 145 137 126 126 102 115 102 108 112 112 115 106 96 85 82 98 94 91 109 98 131 128 155 125 82 64 65 55 62 55 54 52 72 82 81 50 30 28 25 20 8 3 1 3 4 2 1 2 7 4 0 0 0 0 0 0 0 0 0 0 0 0 0 0 0 0 0 0 0 0 0 0 0 0 0 0 0 0 0 0 0 0 0 0 0 
0 0 0 0 0 0 0 0 0 0 0 0 0 0 3 1 3 3 2 1 6 10 13 16 22 21 23 29 64 61 63 60 67 61 70 62 63 57 63 66 79 83 82 84 91 92 78 67 71 77 59 70 79 84 87 84 72 59 67 68 78 93 81 79 74 91 92 109 113 104 58 69 62 48 47 70 81 77 48 28 28 24 16 6 3 1 2 3 3 2 3 4 1 0 0 0 0 0 0 0 0 0 0 0 0 0 0 0 0 0 0 0 0 0 0 0 0 0 0 0 0 0 0 0 0 0 0 0 
0 0 0 0 0 0 0 0 0 0 0 0 0 0 0 0 0 1 0 0 4 9 10 15 20 26 27 34 63 66 65 61 69 65 67 63 76 95 124 119 139 132 110 102 98 97 88 96 96 83 74 92 96 99 96 85 77 64 90 106 97 111 101 98 116 140 98 106 118 102 78 93 78 68 74 86 91 80 51 31 26 24 14 11 2 0 0 0 0 1 1 1 0 0 0 0 0 1 0 0 0 0 0 0 0 0 0 0 0 0 0 0 0 0 0 0 0 0 0 0 0 0 0 0 0 0 0 0 
0 0 0 0 0 0 0 0 0 0 0 0 0 0 0 0 0 0 0 0 0 3 4 9 15 34 35 42 64 75 74 67 73 78 83 75 92 119 111 141 155 158 155 136 129 148 156 145 134 114 105 111 102 104 104 107 113 103 113 136 144 147 138 140 149 153 133 119 95 113 97 103 82 74 83 81 84 81 65 48 31 21 11 9 0 0 0 0 0 0 0 0 0 0 0 0 0 1 0 0 0 0 0 0 0 0 0 0 0 0 0 0 0 0 0 0 0 0 0 0 0 0 0 0 0 0 0 0 
0 0 0 0 0 0 0 0 0 0 0 0 0 0 0 0 0 0 0 0 0 2 3 4 9 28 29 36 53 68 68 70 79 83 93 85 94 108 115 99 148 158 166 148 155 162 175 177 141 143 151 145 150 158 157 147 146 143 148 155 156 171 158 160 163 143 147 121 117 151 97 111 91 70 54 64 74 50 30 17 15 8 2 1 0 0 0 0 0 0 0 0 0 0 0 0 0 2 0 0 0 0 0 0 0 0 0 0 0 0 0 0 0 0 0 0 0 0 0 0 0 0 0 0 0 0 0 0 
0 0 0 0 0 0 0 0 0 0 0 0 0 0 0 0 0 0 0 0 0 1 3 3 8 19 31 38 51 70 75 73 75 75 72 58 68 81 109 117 131 138 119 104 120 135 144 148 146 154 150 134 135 135 134 126 136 132 128 128 149 151 127 134 119 143 156 128 143 136 102 53 43 36 51 78 74 39 19 17 11 9 5 1 1 1 2 2 2 1 0 0 0 0 0 0 1 8 0 0 0 0 0 0 0 0 0 0 0 0 0 0 0 0 0 0 0 0 0 0 0 0 0 0 0 0 0 0 
0 0 0 0 0 0 0 0 0 0 0 0 0 0 0 0 0 0 0 0 0 0 4 7 8 15 18 22 28 49 64 68 62 67 63 61 55 63 62 107 107 109 105 86 92 104 126 136 126 142 122 93 109 101 98 91 109 108 100 105 108 120 121 99 124 122 130 113 137 130 94 65 54 48 62 97 82 44 25 16 17 15 6 1 0 0 1 2 1 1 0 0 0 0 0 0 0 1 0 0 0 0 0 0 0 0 0 0 0 0 0 0 0 0 0 0 0 0 0 0 0 0 0 0 0 0 0 0 
0 0 0 0 0 0 0 0 0 0 0 0 0 0 0 0 0 0 0 0 0 0 2 5 7 14 18 20 24 40 60 75 67 66 63 56 56 61 77 99 94 100 101 103 109 120 134 138 118 113 107 92 95 88 87 86 99 101 102 101 99 102 107 101 94 110 120 119 119 100 92 71 58 66 76 106 83 46 25 18 18 11 6 1 0 0 1 2 2 1 0 0 0 0 0 0 0 0 0 0 0 0 0 0 0 0 0 0 0 0 0 0 0 0 0 0 0 0 0 0 0 0 0 0 0 0 0 0 
0 0 0 0 0 0 0 0 0 0 0 0 0 0 0 0 0 0 0 0 0 0 0 4 8 10 16 21 22 37 57 74 72 68 62 52 46 51 71 97 92 86 91 91 106 110 121 127 124 104 102 99 95 92 90 85 96 96 103 108 115 115 111 104 102 98 110 108 104 96 76 57 49 70 90 110 85 49 26 18 16 10 6 0 0 0 1 2 2 1 0 0 0 0 0 0 0 0 0 0 0 0 0 0 0 0 0 0 0 0 0 0 0 0 0 0 0 0 0 0 0 0 0 0 0 0 0 0 
0 0 0 0 0 0 0 0 0 0 0 0 0 0 0 0 0 0 0 0 0 0 0 3 6 9 13 19 23 33 47 68 75 71 65 55 46 54 65 69 73 77 93 89 101 102 112 125 133 118 111 105 99 103 103 99 102 101 100 115 121 138 127 110 108 95 95 102 101 94 82 57 53 66 93 110 86 56 27 17 15 9 4 0 0 0 1 2 2 1 0 0 0 0 0 0 0 0 0 0 0 0 0 0 0 0 0 0 0 0 0 0 0 0 0 0 0 0 0 0 0 0 0 0 0 0 0 0 
0 0 0 0 0 0 0 0 0 0 0 0 0 0 0 0 0 0 0 0 0 0 0 0 5 7 11 16 21 30 46 60 78 76 68 62 48 63 55 53 60 79 88 85 103 103 105 108 122 118 110 99 97 98 93 95 96 102 102 115 124 136 120 109 102 100 91 96 95 88 82 72 58 69 95 105 77 49 25 17 15 9 2 0 0 0 1 2 2 2 0 0 0 0 0 0 0 0 0 0 0 0 0 0 0 0 0 0 0 0 0 0 0 0 0 0 0 0 0 0 0 0 0 0 0 0 0 0 
0 0 0 0 0 0 0 0 0 0 0 0 0 0 0 0 0 0 0 0 0 0 0 0 2 5 9 13 18 25 40 53 78 76 72 65 60 66 49 53 63 74 79 94 109 105 100 101 99 112 118 97 92 89 89 89 90 101 108 107 114 110 104 103 100 105 100 85 85 71 62 78 67 75 99 101 74 43 19 16 15 8 1 0 0 0 1 1 2 1 0 0 0 0 0 0 0 0 0 0 0 0 0 0 0 0 0 0 0 0 0 0 0 0 0 0 0 0 0 0 0 0 0 0 0 0 0 0 
0 0 0 0 0 0 0 0 0 0 0 0 0 0 0 0 0 0 0 0 0 0 0 0 0 5 6 13 15 20 35 58 65 72 76 71 73 66 51 49 61 68 80 91 102 96 97 92 81 100 119 97 82 82 85 90 92 96 98 110 113 103 95 95 85 98 94 79 76 67 55 72 83 79 98 85 48 24 17 16 16 8 1 0 0 0 0 1 2 1 1 0 0 0 0 0 0 0 0 0 0 0 0 0 0 0 0 0 0 0 0 0 0 0 0 0 0 0 0 0 0 0 0 0 0 0 0 0 
0 0 0 0 0 0 0 0 0 0 0 0 0 0 0 0 0 0 0 0 0 0 0 0 0 3 4 8 14 18 21 32 41 44 72 82 73 66 55 47 55 68 71 83 93 94 93 87 76 94 120 108 88 83 89 92 95 94 97 109 105 89 87 90 84 92 89 74 77 66 55 70 84 89 95 43 17 16 17 18 16 8 1 0 0 0 0 1 2 2 1 0 0 0 0 0 0 0 0 0 0 0 0 0 0 0 0 0 0 0 0 0 0 0 0 0 0 0 0 0 0 0 0 0 0 0 0 0 
0 0 0 0 0 0 0 0 0 0 0 0 0 0 0 0 0 0 0 0 0 0 0 0 0 0 6 4 11 17 19 21 18 16 32 75 73 74 61 61 56 64 65 74 80 86 84 85 77 101 111 104 86 79 78 84 96 95 96 103 103 88 88 89 83 90 72 70 74 68 67 76 85 91 71 26 16 15 17 18 14 6 0 0 0 0 1 1 2 2 1 0 0 0 0 0 0 0 0 0 0 0 0 0 0 0 0 0 0 0 0 0 0 0 0 0 0 0 0 0 0 0 0 0 0 0 0 0 
0 0 0 0 0 0 0 0 0 0 0 0 0 0 0 0 0 0 0 0 0 0 0 0 0 0 2 5 8 14 18 19 17 17 14 38 70 81 78 69 61 70 67 70 75 80 82 86 90 101 102 106 96 89 83 84 95 99 97 107 106 93 98 98 89 86 74 81 77 75 80 89 91 74 36 20 15 15 17 16 12 6 1 0 0 0 0 1 2 2 1 0 0 0 0 0 0 0 0 0 0 0 0 0 0 0 0 0 0 0 0 0 0 0 0 0 0 0 0 0 0 0 0 0 0 0 0 0 
0 0 0 0 0 0 0 0 0 0 0 0 0 0 0 0 0 0 0 0 0 0 0 0 0 0 0 3 7 9 16 18 17 17 15 14 36 72 84 73 70 76 76 75 82 92 95 90 89 96 99 106 100 92 89 99 114 108 104 117 109 102 107 97 95 91 78 86 87 88 84 92 75 37 24 17 14 15 16 15 10 5 1 0 0 0 0 1 1 1 1 0 0 0 0 0 0 0 0 0 0 0 0 0 0 0 0 0 0 0 0 0 0 0 0 0 0 0 0 0 0 0 0 0 0 0 0 0 
0 0 0 0 0 0 0 0 0 0 0 0 0 0 0 0 0 0 0 0 0 0 0 0 0 0 0 2 6 7 12 17 19 16 14 15 18 32 61 75 80 92 87 78 96 108 97 87 82 100 109 112 102 92 91 106 112 106 107 116 103 96 102 103 100 104 91 94 96 94 84 68 36 26 23 17 14 16 15 14 10 5 1 0 0 0 0 1 1 2 1 0 0 0 0 0 0 0 0 0 0 0 0 0 0 0 0 0 0 0 0 0 0 0 0 0 0 0 0 0 0 0 0 0 0 0 0 0 
0 0 0 0 0 0 0 0 0 0 0 0 0 0 0 0 0 0 0 0 0 0 0 0 0 0 0 1 5 7 9 15 18 17 16 13 19 22 31 52 73 91 92 89 104 113 98 88 93 111 112 106 92 94 103 107 109 107 108 117 117 108 107 104 108 113 106 99 99 85 59 34 29 26 24 16 15 16 15 14 10 5 1 0 0 0 0 1 2 2 1 0 0 0 0 0 0 0 0 0 0 0 0 0 0 0 0 0 0 0 0 0 0 0 0 0 0 0 0 0 0 0 0 0 0 0 0 0 
0 0 0 0 0 0 0 0 0 0 0 0 0 0 0 0 0 0 0 0 0 0 0 0 0 0 0 0 1 7 7 12 16 17 16 12 15 20 25 28 36 58 79 90 104 115 102 97 102 111 114 101 94 97 100 99 102 103 101 109 118 114 110 106 109 111 107 98 78 48 29 29 27 25 21 16 14 14 14 13 10 5 1 0 0 0 0 1 2 2 1 0 0 0 0 0 0 0 0 0 0 0 0 0 0 0 0 0 0 0 0 0 0 0 0 0 0 0 0 0 0 0 0 0 0 0 0 0 
0 0 0 0 0 0 0 0 0 0 0 0 0 0 0 0 0 0 0 0 0 0 0 0 0 0 0 0 0 7 6 10 13 17 15 12 13 20 26 28 30 32 40 61 85 97 95 94 94 109 115 104 95 91 92 91 98 100 105 95 105 117 117 108 102 98 84 62 41 37 29 28 26 23 18 16 14 15 15 12 9 4 0 0 0 0 0 1 1 1 1 0 0 0 0 0 0 0 0 0 0 0 0 0 0 0 0 0 0 0 0 0 0 0 0 0 0 0 0 0 0 0 0 0 0 0 0 0 
0 0 0 0 0 0 0 0 0 0 0 0 0 0 0 0 0 0 0 0 0 0 0 0 0 0 0 0 0 4 7 9 13 15 16 13 13 20 25 27 32 32 30 38 49 63 78 86 89 93 101 102 99 96 97 99 101 104 108 102 105 104 107 100 90 72 51 45 39 36 28 28 25 22 17 15 15 15 15 12 9 4 0 0 0 0 0 1 1 1 1 0 0 0 0 0 0 0 0 0 0 0 0 0 0 0 0 0 0 0 0 0 0 0 0 0 0 0 0 0 0 0 0 0 0 0 0 0 
