P2
128 99
243
0 0 0 0 0 0 0 0 0 0 0 0 0 0 0 0 0 0 0 0 0 0 0 0 0 0 0 0 0 0 0 4 8 11 6 0 0 0 0 0 0 0 0 0 0 0 0 0 0 0 0 0 0 0 0 0 0 0 0 0 0 0 0 0 0 0 0 0 0 0 0 0 0 0 0 0 0 0 0 0 0 0 0 0 0 0 0 0 0 0 0 0 5 9 10 18 22 0 0 0 0 0 0 0 0 0 0 0 0 0 0 0 0 0 0 0 0 0 0 0 0 0 0 0 0 0 0 0 
0 0 0 0 0 0 0 0 0 0 0 0 0 0 0 0 0 0 0 0 0 0 0 0 0 0 0 0 0 0 0 4 7 10 5 0 0 0 0 0 0 0 0 0 0 0 0 0 0 0 0 0 0 0 0 0 0 0 0 0 0 0 0 0 0 0 0 0 0 0 0 0 0 0 0 0 0 0 0 0 0 0 0 0 0 0 0 0 0 0 0 0 5 9 10 18 21 0 0 0 0 0 0 0 0 0 0 0 0 0 0 0 0 0 0 0 0 0 0 0 0 0 0 0 0 0 0 0 
0 0 0 0 0 0 0 0 0 0 0 0 0 0 0 0 0 0 0 0 0 0 0 0 0 0 0 0 0 0 0 3 6 9 5 0 0 0 0 0 0 0 0 0 0 0 0 0 0 0 0 0 0 0 0 0 0 0 0 0 0 0 0 0 0 0 0 0 0 0 0 0 0 0 0 0 0 0 0 0 0 0 0 0 0 0 0 0 0 0 0 0 4 8 10 18 22 0 0 0 0 0 0 0 0 0 0 0 0 0 0 0 0 0 0 0 0 0 0 0 0 0 0 0 0 0 0 0 
0 0 0 0 0 0 0 0 0 0 0 0 0 0 0 0 0 0 0 0 0 0 0 0 0 0 0 0 0 0 0 3 6 8 4 0 0 0 0 0 0 0 0 0 7 19 20 19 16 13 13 14 15 16 17 16 17 13 6 7 4 0 0 0 0 0 0 0 0 0 0 0 0 0 0 0 0 0 0 0 0 0 0 0 0 0 0 0 0 0 0 0 4 9 10 19 20 0 0 0 0 0 0 0 0 0 0 0 0 0 0 0 0 0 0 0 0 0 0 0 0 0 0 0 0 0 0 0 
0 0 0 0 0 0 0 0 0 0 0 0 0 0 0 0 0 0 0 0 0 0 0 0 0 0 0 0 0 0 0 2 5 5 1 0 0 0 0 0 0 9 26 19 14 21 55 76 88 98 107 114 116 115 113 104 93 76 59 49 34 17 8 9 3 0 0 0 0 0 0 0 0 0 0 0 0 0 0 0 0 0 0 0 0 0 0 0 0 0 0 0 4 8 9 17 21 0 0 0 0 0 0 0 0 0 0 0 0 0 0 0 0 0 0 0 0 0 0 0 0 0 0 0 0 0 0 0 
0 0 0 0 0 0 0 0 0 0 0 0 0 0 0 0 0 0 0 0 0 0 0 0 0 0 0 0 0 0 0 1 3 3 0 0 0 0 0 21 20 17 32 67 97 117 132 143 154 167 184 198 202 205 210 207 200 190 168 142 117 93 69 45 24 8 10 2 0 0 0 0 0 0 0 0 0 0 0 0 0 0 0 0 0 0 0 0 0 0 0 0 4 8 9 18 21 0 0 0 0 0 0 0 0 0 0 0 0 0 0 0 0 0 0 0 0 0 0 0 0 0 0 0 0 0 0 0 
0 0 0 0 0 0 0 0 0 0 0 0 0 0 0 0 0 0 0 0 0 0 0 0 0 0 0 0 0 0 0 0 3 2 0 0 3 24 17 20 44 86 119 144 150 169 200 223 219 212 201 189 182 181 182 186 195 203 212 217 216 191 152 119 96 69 41 13 9 3 0 0 0 0 0 0 0 0 0 0 0 0 0 0 0 0 0 0 0 0 0 0 4 9 10 18 22 0 0 0 0 0 0 0 0 0 0 0 0 0 0 0 0 0 0 0 0 0 0 0 0 0 0 0 0 0 0 0 
0 0 0 0 0 0 0 0 0 0 0 0 0 0 0 0 0 0 0 0 0 0 0 0 0 0 0 0 0 0 0 0 3 2 6 25 22 21 58 101 135 148 166 196 222 218 192 166 146 129 125 129 129 120 117 123 133 143 152 166 185 203 220 219 189 145 112 87 50 20 9 3 0 0 0 0 0 0 0 0 0 0 0 0 0 0 0 0 0 0 0 1 5 9 11 19 22 0 0 0 0 0 0 0 0 0 0 0 0 0 0 0 0 0 0 0 0 0 0 0 0 0 0 0 0 0 0 0 
0 0 0 0 0 0 0 0 0 0 0 0 0 0 0 0 0 0 0 0 0 0 0 0 0 0 0 0 0 0 0 1 8 34 25 21 55 102 139 154 170 207 224 202 168 144 125 102 107 112 112 110 100 93 101 120 135 144 147 145 141 144 157 184 209 226 208 163 120 86 41 19 8 0 0 0 0 0 0 0 0 0 0 0 0 0 0 0 0 0 0 1 7 10 11 20 22 0 0 0 0 0 0 0 0 0 0 0 0 0 0 0 0 0 0 0 0 0 0 0 0 0 0 0 0 0 0 0 
0 0 0 0 0 0 0 0 0 0 0 0 0 0 0 0 0 0 0 0 0 0 0 0 0 0 0 0 0 0 0 25 29 20 40 92 134 155 175 205 217 192 151 118 109 109 106 101 91 72 91 112 118 115 111 105 105 125 139 144 153 152 146 141 146 167 200 223 208 160 114 72 26 19 3 0 0 0 0 0 0 0 0 0 0 0 0 0 0 0 0 1 7 10 11 19 22 0 0 0 0 0 0 0 0 0 0 0 0 0 0 0 0 0 0 0 0 0 0 0 0 0 0 0 0 0 0 0 
0 0 0 0 0 0 0 0 0 0 0 0 0 0 0 0 0 0 0 0 0 0 0 0 0 0 0 0 0 13 29 19 24 83 127 150 167 206 220 186 153 124 108 115 121 134 142 140 129 120 120 128 139 141 137 137 138 145 154 153 149 154 161 156 148 139 137 153 188 219 200 145 101 41 22 4 0 0 0 0 0 0 0 0 0 0 0 0 0 0 0 1 7 10 11 19 22 0 0 0 0 0 0 0 0 0 0 0 0 0 0 0 0 0 0 0 0 0 0 0 0 0 0 0 0 0 0 0 
0 0 0 0 0 0 0 0 0 0 0 0 0 0 0 0 0 0 0 0 0 0 0 0 0 0 0 0 26 22 13 43 111 145 155 188 223 189 152 134 123 129 145 167 185 187 181 175 172 160 144 136 134 147 155 160 164 168 172 176 171 163 165 169 170 162 148 142 137 151 196 217 179 120 59 22 8 0 0 0 0 0 0 0 0 0 0 0 0 0 0 1 6 9 11 20 22 0 0 0 0 0 0 0 0 0 0 0 0 0 0 0 0 0 0 0 0 0 0 0 0 0 0 0 0 0 0 0 
0 0 0 0 0 0 0 0 0 0 0 0 0 0 0 0 0 0 0 0 0 0 0 0 0 0 5 27 18 13 66 128 149 170 212 197 158 139 137 134 148 167 170 166 167 164 160 165 169 176 171 154 148 156 160 162 158 155 155 157 165 166 161 161 169 179 173 161 148 142 138 168 210 197 129 69 21 10 0 0 0 0 0 0 0 0 0 0 0 0 0 1 7 11 11 20 23 0 0 0 0 0 0 0 0 0 0 0 0 0 0 0 0 0 0 0 0 0 0 0 0 0 0 0 0 0 0 0 
0 0 0 0 0 0 0 0 0 0 0 0 0 0 0 0 0 0 0 0 0 0 0 0 0 9 26 15 15 82 143 157 187 212 172 141 138 145 151 162 166 162 161 162 160 162 169 168 174 178 159 144 136 143 161 166 167 163 161 159 155 155 148 146 156 164 173 180 170 157 149 139 151 199 205 138 72 21 13 0 0 0 0 0 0 0 0 0 0 0 0 1 7 10 11 21 23 0 0 0 0 0 0 0 0 0 0 0 0 0 0 0 0 0 0 0 0 0 0 0 0 0 0 0 0 0 0 0 
0 0 0 0 0 0 0 0 0 0 0 0 0 0 0 0 0 0 0 0 0 0 0 0 11 23 16 24 104 149 153 198 203 156 137 141 148 160 161 160 159 167 151 115 96 108 140 165 165 151 149 146 141 136 119 111 128 157 164 161 164 162 153 141 128 139 154 166 177 179 162 148 137 144 192 209 144 79 26 10 0 0 0 0 0 0 0 0 0 0 0 1 7 10 11 20 24 0 0 0 0 0 0 0 0 0 0 0 0 0 0 0 0 0 0 0 0 0 0 0 0 0 0 0 0 0 0 0 
0 0 0 0 0 0 0 0 0 0 0 0 0 0 0 0 0 0 0 0 0 0 2 18 20 12 36 115 142 153 206 191 151 144 146 146 155 154 155 161 165 137 99 93 94 91 78 71 65 61 79 111 90 69 59 55 58 76 116 150 166 166 160 153 145 133 129 139 152 165 175 164 145 136 140 192 209 146 90 29 11 0 0 0 0 0 0 0 0 0 0 1 6 10 10 19 24 0 0 0 0 0 0 0 0 0 0 0 0 0 0 0 0 0 0 0 0 0 0 0 0 0 0 0 0 0 0 0 
0 0 0 0 0 0 0 0 0 0 0 0 0 0 0 0 0 0 0 0 0 6 20 13 13 49 122 144 158 211 189 147 148 145 146 151 152 161 166 164 143 102 93 95 86 58 48 49 52 50 50 52 51 49 48 50 49 49 54 69 101 130 157 166 153 141 138 130 134 143 153 169 168 151 139 146 201 211 149 93 29 8 0 0 0 0 0 0 0 0 0 1 7 10 10 21 24 0 0 0 0 0 0 0 0 0 0 0 0 0 0 0 0 0 0 0 0 0 0 0 0 0 0 0 0 0 0 0 
0 0 0 0 0 0 0 0 0 0 0 0 0 0 0 0 0 0 0 0 8 20 10 14 62 126 147 161 215 186 152 144 135 150 152 153 150 153 160 135 101 91 82 67 51 48 45 49 50 50 48 51 49 48 48 53 50 49 49 51 51 62 94 140 159 152 139 142 129 128 130 150 171 171 153 139 150 206 208 149 96 30 6 0 0 0 0 0 0 0 0 1 7 10 10 20 24 0 0 0 0 0 0 0 0 0 0 0 0 0 0 0 0 0 0 0 0 0 0 0 0 0 0 0 0 0 0 0 
0 0 0 0 0 0 0 0 0 0 0 0 0 0 0 0 0 0 0 7 20 9 17 69 125 148 155 204 184 154 140 125 147 154 148 143 148 155 126 93 72 54 47 47 48 49 51 52 55 56 57 61 65 67 67 63 60 57 53 49 48 50 50 62 100 135 133 132 137 136 118 122 148 172 162 148 137 160 214 195 141 94 27 4 0 0 0 0 0 0 0 1 6 9 10 22 24 0 0 0 0 0 0 0 0 0 0 0 0 0 0 0 0 0 0 0 0 0 0 0 0 0 0 0 0 0 0 0 
0 0 0 0 0 0 0 0 0 0 0 0 0 0 0 0 0 0 6 18 8 19 75 122 139 148 195 193 153 133 120 137 154 151 146 149 153 113 77 52 46 47 50 54 57 66 77 89 100 106 108 116 125 130 129 130 132 130 123 108 88 68 52 47 49 81 122 131 134 136 138 124 117 140 173 151 134 132 165 214 173 138 93 26 3 0 0 0 0 0 0 1 7 10 11 22 24 0 0 0 0 0 0 0 0 0 0 0 0 0 0 0 0 0 0 0 0 0 0 0 0 0 0 0 0 0 0 0 
0 0 0 0 0 0 0 0 0 0 0 0 0 0 0 0 0 2 20 10 17 90 125 133 142 174 204 158 134 121 134 142 149 147 153 151 100 56 50 52 53 50 62 80 105 130 149 159 168 164 165 168 172 172 167 170 172 174 171 172 164 146 109 69 48 50 70 122 143 137 134 135 123 118 145 166 139 124 134 195 198 153 125 90 17 0 0 0 0 0 0 1 7 11 11 24 24 0 0 0 0 0 0 0 0 0 0 0 0 0 0 0 0 0 0 0 0 0 0 0 0 0 0 0 0 0 0 0 
0 0 0 0 0 0 0 0 0 0 0 0 0 0 0 0 0 18 14 15 95 129 122 153 163 205 168 131 122 132 137 134 143 151 139 88 55 52 52 52 51 77 115 148 163 165 166 159 157 146 144 149 152 151 146 146 146 154 157 165 168 171 164 129 75 46 48 66 120 149 138 133 134 130 125 146 161 128 119 157 211 166 147 105 67 8 0 0 0 0 0 1 7 12 11 24 25 0 0 0 0 0 0 0 0 0 0 0 0 0 0 0 0 0 0 0 0 0 0 0 0 0 0 0 0 0 0 0 
0 0 0 0 0 0 0 0 0 0 0 0 0 0 0 0 8 18 14 76 139 114 140 150 198 192 131 117 131 134 130 136 148 141 82 52 52 49 49 56 88 136 164 169 159 146 144 141 137 127 127 133 140 143 146 142 147 151 153 152 165 176 180 171 128 72 49 47 60 108 137 136 132 140 137 124 149 151 112 121 193 204 154 134 97 32 2 0 0 0 0 1 7 11 11 24 26 0 0 0 0 0 0 0 0 0 0 0 0 0 0 0 0 0 0 0 0 0 0 0 0 0 0 0 0 0 0 0 
0 0 0 0 0 0 0 0 0 0 0 0 0 0 0 0 19 14 49 142 113 126 144 174 213 148 113 127 140 137 137 156 155 93 51 49 49 53 56 96 147 176 183 171 163 154 153 154 142 135 131 146 160 159 158 156 160 164 166 167 175 180 184 188 167 118 63 49 49 57 99 132 131 139 142 135 132 153 135 101 157 216 166 148 111 81 7 0 0 0 0 1 7 12 11 25 26 0 0 0 0 0 0 0 0 0 0 0 0 0 0 0 0 0 0 0 0 0 0 0 0 0 0 0 0 0 0 0 
0 0 0 0 0 0 0 0 0 0 0 0 0 0 0 9 15 19 116 127 112 141 150 204 187 115 124 136 142 139 157 154 100 55 47 50 55 63 94 144 179 187 190 184 177 176 175 175 172 163 157 166 170 157 156 164 170 176 170 178 177 174 186 198 192 165 100 54 49 51 59 103 126 124 139 150 142 142 145 117 124 201 181 144 134 106 31 1 0 0 0 1 7 11 11 24 26 0 0 0 0 0 0 0 0 0 0 0 0 0 0 0 0 0 0 0 0 0 0 0 0 0 0 0 0 0 0 0 
0 0 0 0 0 0 0 0 0 0 0 0 0 0 0 17 11 63 145 103 134 143 168 215 143 110 126 142 133 145 155 109 59 53 52 66 81 103 148 181 188 184 186 184 180 178 173 170 172 172 167 177 174 175 172 165 168 175 175 175 164 174 176 184 187 189 153 86 48 49 51 62 105 124 140 146 144 146 145 128 113 180 195 141 143 117 74 6 0 0 0 2 8 11 11 25 25 0 0 0 0 0 0 0 0 0 0 0 0 0 0 0 0 0 0 0 0 0 0 0 0 0 0 0 0 0 0 0 
0 0 0 0 0 0 0 0 0 0 0 0 0 0 6 11 23 131 115 110 136 141 202 184 116 110 137 141 144 155 116 55 57 64 76 95 112 150 186 189 180 175 167 170 166 154 160 163 167 173 167 181 183 187 166 172 168 168 162 149 130 141 165 172 175 180 180 146 77 49 48 50 64 112 144 146 146 146 150 124 123 154 201 144 145 130 102 15 0 0 0 2 8 10 11 23 25 0 0 0 0 0 0 0 0 0 0 0 0 0 0 0 0 0 0 0 0 0 0 0 0 0 0 0 0 0 0 0 
0 0 0 0 0 0 0 0 0 0 0 0 0 0 8 14 73 151 103 125 133 159 198 139 115 126 144 148 153 120 56 47 65 90 101 112 142 180 182 173 163 152 151 149 139 137 133 125 129 139 166 180 177 179 132 141 152 149 139 107 94 98 112 152 175 167 176 183 140 70 49 48 48 65 127 152 150 150 157 129 121 140 186 157 140 135 119 34 3 0 0 2 7 10 11 23 26 0 0 0 0 0 0 0 0 0 0 0 0 0 0 0 0 0 0 0 0 0 0 0 0 0 0 0 0 0 0 0 
0 0 0 0 0 0 0 0 0 0 0 0 0 0 14 20 129 128 97 131 135 177 175 119 117 125 142 147 133 67 47 51 87 107 107 133 174 178 151 159 164 137 117 108 101 97 98 105 111 108 126 162 158 149 111 103 111 111 104 92 93 97 93 113 162 166 161 185 187 121 64 50 45 47 80 147 157 150 151 135 113 136 162 165 134 136 127 61 6 0 0 1 7 11 12 23 26 0 0 0 0 0 0 0 0 0 0 0 0 0 0 0 0 0 0 0 0 0 0 0 0 0 0 0 0 0 0 0 
0 0 0 0 0 0 0 0 0 0 0 0 0 5 12 45 154 96 106 135 154 170 150 121 120 134 147 144 84 48 49 72 106 111 128 170 191 168 155 159 161 140 108 98 93 94 100 102 101 101 99 110 114 109 100 98 97 99 95 95 97 94 94 100 128 154 156 173 196 183 109 59 49 47 50 105 151 149 147 141 113 135 153 163 132 129 123 84 8 0 0 2 8 12 13 24 27 0 0 0 0 0 0 0 0 0 0 0 0 0 0 0 0 0 0 0 0 0 0 0 0 0 0 0 0 0 0 0 
0 0 0 0 0 0 0 0 0 0 0 0 0 8 14 89 146 94 123 141 154 158 128 117 109 143 151 112 59 45 62 92 113 128 172 195 181 159 143 153 159 163 143 109 99 99 100 95 101 100 95 96 96 95 97 96 93 95 93 93 91 95 93 95 106 142 158 155 167 197 174 96 57 47 46 66 122 149 146 147 120 134 156 158 135 129 118 104 12 0 0 2 7 12 14 26 27 0 0 0 0 0 0 0 0 0 0 0 0 0 0 0 0 0 0 0 0 0 0 0 0 0 0 0 0 0 0 0 
0 0 0 0 0 0 0 0 0 0 0 0 0 13 25 134 128 99 136 132 142 136 134 117 118 150 119 92 54 53 81 106 136 179 196 184 170 151 150 162 162 150 147 132 100 91 91 94 96 96 98 94 96 95 97 94 92 95 93 93 93 95 98 96 109 140 155 134 140 181 198 165 87 49 47 52 93 147 159 147 118 126 166 147 138 136 119 118 18 0 0 2 8 12 13 26 27 0 0 0 0 0 0 0 0 0 0 0 0 0 0 0 0 0 0 0 0 0 0 0 0 0 0 0 0 0 0 0 
0 0 0 0 0 0 0 0 0 0 0 0 0 13 36 150 112 105 131 130 130 137 140 120 136 145 91 89 58 65 95 125 183 197 171 156 159 162 162 164 151 139 118 110 100 92 90 89 95 97 99 96 100 99 89 81 82 89 98 104 109 104 109 125 147 131 89 114 130 152 188 197 156 77 44 42 72 133 156 150 119 121 168 140 134 136 126 123 31 0 0 2 8 11 13 26 28 0 0 0 0 0 0 0 0 0 0 0 0 0 0 0 0 0 0 0 0 0 0 0 0 0 0 0 0 0 0 0 
0 0 0 0 0 0 0 0 0 0 0 0 0 14 50 152 104 112 131 131 123 151 141 114 127 112 85 87 58 81 116 171 207 187 155 132 150 154 157 150 148 133 105 99 106 96 90 88 93 88 92 91 91 88 79 71 72 81 100 140 117 97 96 92 90 91 88 85 119 136 166 199 194 145 64 45 53 115 153 147 121 118 169 152 137 138 138 119 46 2 0 2 8 12 13 26 28 0 0 0 0 0 0 0 0 0 0 0 0 0 0 0 0 0 0 0 0 0 0 0 0 0 0 0 0 0 0 0 
0 0 0 0 0 0 0 0 0 0 0 0 2 12 60 151 98 118 131 132 129 164 139 119 116 91 88 77 62 98 148 199 200 165 129 122 136 149 160 160 153 138 95 87 96 106 101 94 90 80 81 83 80 78 70 64 68 75 93 140 96 90 92 91 92 91 90 82 137 141 147 169 188 188 127 54 45 89 149 139 128 130 171 166 141 142 145 118 56 4 0 1 8 11 13 27 27 0 0 0 0 0 0 0 0 0 0 0 0 0 0 0 0 0 0 0 0 0 0 0 0 0 0 0 0 0 0 0 
0 0 0 0 0 0 0 0 0 0 0 0 5 8 73 148 101 132 138 133 133 168 145 127 93 85 86 68 75 112 186 198 170 139 123 130 129 129 132 136 130 132 80 76 79 86 129 135 93 76 75 76 76 73 66 82 91 78 100 142 85 88 93 94 92 92 105 102 101 113 142 163 158 176 182 116 54 78 130 134 134 132 164 170 139 143 149 121 56 5 0 2 9 13 13 28 27 0 0 0 0 0 0 0 0 0 0 0 0 0 0 0 0 0 0 0 0 0 0 0 0 0 0 0 0 0 0 0 
0 0 0 0 0 0 0 0 0 0 0 0 6 7 83 135 101 139 138 127 144 179 160 132 70 79 83 67 92 133 202 176 145 144 138 104 90 90 89 84 84 89 72 66 66 68 91 152 117 99 92 79 97 82 83 132 134 107 120 112 67 78 90 93 94 97 87 84 89 92 98 114 160 170 176 185 119 88 128 133 131 136 176 176 134 146 151 127 58 5 0 3 8 12 13 26 27 0 0 0 0 0 0 0 0 0 0 0 0 0 0 0 0 0 0 0 0 0 0 0 0 0 0 0 0 0 0 0 
0 0 0 0 0 0 0 0 0 0 0 0 5 6 93 129 108 140 136 123 146 185 168 131 79 76 77 66 106 163 195 153 168 152 95 91 90 87 84 77 67 62 57 68 71 61 63 74 97 116 128 104 100 97 109 105 92 105 94 53 57 75 89 92 97 95 94 94 91 95 100 104 103 123 176 187 194 130 125 136 134 144 186 171 125 144 149 133 60 6 0 3 8 12 12 26 26 0 0 0 0 0 0 0 0 0 0 0 0 0 0 0 0 0 0 0 0 0 0 0 0 0 0 0 0 0 0 0 
0 0 0 0 0 0 0 0 0 0 0 0 7 7 101 117 107 137 135 122 144 177 182 136 97 71 76 78 128 194 179 170 163 101 89 88 92 93 89 77 69 62 55 52 60 69 57 56 54 50 54 97 91 86 103 49 50 51 52 54 62 72 81 90 100 101 101 95 93 99 101 106 103 75 112 193 203 191 129 128 139 157 186 159 110 140 148 138 71 9 0 2 8 11 12 25 25 0 0 0 0 0 0 0 0 0 0 0 0 0 0 0 0 0 0 0 0 0 0 0 0 0 0 0 0 0 0 0 
0 0 0 0 0 0 0 0 0 0 0 0 7 8 103 110 105 129 136 124 147 164 185 137 96 73 81 102 166 201 174 175 106 91 93 93 96 90 84 77 67 62 56 53 53 60 59 53 52 52 53 73 90 79 86 51 51 49 51 57 63 63 79 94 100 101 99 94 97 103 111 121 126 106 90 150 204 203 163 128 141 168 183 148 100 134 148 142 81 13 0 2 8 12 13 24 26 0 0 0 0 0 0 0 0 0 0 0 0 0 0 0 0 0 0 0 0 0 0 0 0 0 0 0 0 0 0 0 
0 0 0 0 0 0 0 0 0 0 0 0 7 9 104 105 114 147 141 130 141 158 188 132 83 74 71 124 205 188 184 138 99 94 95 95 94 87 81 70 62 62 59 52 51 56 72 54 51 51 50 70 82 70 71 52 52 50 50 68 55 57 77 96 101 106 107 108 110 118 122 126 126 111 96 101 176 193 185 131 132 161 179 137 84 120 143 140 84 18 0 2 8 12 13 25 26 0 0 0 0 0 0 0 0 0 0 0 0 0 0 0 0 0 0 0 0 0 0 0 0 0 0 0 0 0 0 0 
0 0 0 0 0 0 0 0 0 0 0 0 7 11 99 103 120 155 145 131 132 154 184 128 84 57 65 143 213 198 192 127 118 108 103 102 99 85 73 61 60 60 60 60 53 53 61 65 52 50 50 63 71 74 72 51 50 51 53 73 53 57 74 96 113 120 116 110 111 114 117 123 124 111 94 77 121 186 185 134 133 156 178 133 70 109 140 142 87 28 3 3 8 12 14 26 26 0 0 0 0 0 0 0 0 0 0 0 0 0 0 0 0 0 0 0 0 0 0 0 0 0 0 0 0 0 0 0 
0 0 0 0 0 0 0 0 0 0 0 0 6 13 94 104 123 149 143 128 122 159 179 139 68 44 59 153 208 197 170 120 114 111 109 112 116 101 86 83 79 72 59 60 59 51 52 77 51 49 50 58 80 109 107 65 50 49 56 58 51 61 89 107 113 115 118 110 111 114 123 126 124 104 77 72 72 138 153 132 132 134 166 137 67 92 131 142 89 36 4 2 9 14 15 26 26 0 0 0 0 0 0 0 0 0 0 0 0 0 0 0 0 0 0 0 0 0 0 0 0 0 0 0 0 0 0 0 
0 0 0 0 0 0 0 0 0 0 0 0 7 16 101 107 132 142 130 108 120 161 176 122 50 45 53 134 192 198 161 119 120 117 119 114 111 93 76 74 78 80 78 64 58 53 50 63 74 51 49 56 89 88 102 84 53 53 58 56 60 78 79 87 100 105 114 114 116 116 119 125 125 100 73 69 57 82 131 131 135 126 158 137 67 86 138 138 92 42 2 2 9 13 15 28 26 0 0 0 0 0 0 0 0 0 0 0 0 0 0 0 0 0 0 0 0 0 0 0 0 0 0 0 0 0 0 0 
0 0 0 0 0 0 0 0 0 0 0 0 10 20 104 108 135 133 113 98 120 165 169 85 43 45 55 138 206 203 165 120 122 122 112 116 111 96 84 71 59 64 72 78 72 58 50 51 57 51 63 76 78 53 63 83 59 49 59 65 74 60 62 79 96 99 110 112 111 115 121 126 118 88 73 66 52 67 120 133 132 128 134 133 72 86 134 137 99 54 4 2 9 13 14 27 27 0 0 0 0 0 0 0 0 0 0 0 0 0 0 0 0 0 0 0 0 0 0 0 0 0 0 0 0 0 0 0 
0 0 0 0 0 0 0 0 0 0 0 0 11 25 107 110 137 123 101 102 119 172 152 65 44 51 56 128 208 206 174 124 123 123 117 112 110 95 78 65 53 54 54 56 66 74 67 58 55 65 90 115 101 51 60 56 81 72 82 69 57 54 63 74 90 96 106 112 111 116 122 125 108 78 66 59 50 65 119 138 135 127 126 131 88 87 127 144 103 63 3 2 8 13 13 25 26 0 0 0 0 0 0 0 0 0 0 0 0 0 0 0 0 0 0 0 0 0 0 0 0 0 0 0 0 0 0 0 
0 0 0 0 0 0 0 0 0 0 0 0 11 24 104 110 134 102 90 103 125 179 150 67 40 53 61 115 205 203 189 132 125 116 109 112 115 100 79 70 53 52 50 52 54 61 73 45 52 61 90 98 76 59 50 40 62 59 56 61 55 57 67 79 91 99 106 112 111 117 123 122 95 73 62 58 49 73 129 136 136 129 114 123 95 87 114 133 100 71 3 2 9 12 12 24 25 0 0 0 0 0 0 0 0 0 0 0 0 0 0 0 0 0 0 0 0 0 0 0 0 0 0 0 0 0 0 0 
0 0 0 0 0 0 0 0 0 0 0 0 11 23 104 109 133 94 85 104 126 183 154 73 48 50 58 99 196 206 205 141 120 106 104 107 113 104 89 80 61 49 50 52 56 51 62 50 44 43 77 54 42 41 53 44 56 86 44 50 55 59 70 87 95 100 107 112 117 122 124 112 87 68 57 58 69 91 137 130 138 126 99 118 94 84 112 132 96 77 1 1 8 12 13 24 25 0 0 0 0 0 0 0 0 0 0 0 0 0 0 0 0 0 0 0 0 0 0 0 0 0 0 0 0 0 0 0 
0 0 0 0 0 0 0 0 0 0 0 0 8 22 103 107 132 92 78 103 122 176 157 88 53 48 56 94 185 189 209 159 121 117 106 97 102 104 96 82 64 51 46 50 53 49 72 55 42 57 82 47 45 46 56 49 49 79 63 47 49 52 72 87 98 97 103 113 121 123 121 97 73 59 52 54 83 135 155 131 135 122 88 116 88 86 118 131 104 83 1 2 8 11 13 24 25 0 0 0 0 0 0 0 0 0 0 0 0 0 0 0 0 0 0 0 0 0 0 0 0 0 0 0 0 0 0 0 
0 0 0 0 0 0 0 0 0 0 0 0 5 22 105 102 133 97 72 98 121 172 163 109 55 44 52 99 181 170 192 179 124 122 115 115 113 110 94 75 66 53 48 49 50 45 47 44 49 77 74 49 51 57 66 63 50 58 83 55 52 53 69 90 96 100 113 116 119 121 115 88 69 54 47 42 81 172 187 140 139 118 90 110 82 86 135 131 107 82 0 1 7 11 12 24 25 0 0 0 0 0 0 0 0 0 0 0 0 0 0 0 0 0 0 0 0 0 0 0 0 0 0 0 0 0 0 0 
0 0 0 0 0 0 0 0 0 0 0 0 0 21 109 105 131 109 69 86 120 172 167 130 61 44 51 107 174 143 179 178 124 112 110 115 114 105 88 74 68 49 50 55 47 49 53 54 72 95 56 51 59 61 72 72 53 57 84 68 72 53 60 79 95 108 112 111 113 120 113 81 58 49 45 41 93 195 219 161 144 111 108 91 79 90 154 127 114 80 0 1 7 11 12 24 25 0 0 0 0 0 0 0 0 0 0 0 0 0 0 0 0 0 0 0 0 0 0 0 0 0 0 0 0 0 0 0 
0 0 0 0 0 0 0 0 0 14 14 0 0 18 107 108 129 123 71 69 115 163 172 145 70 44 50 118 161 123 162 174 123 114 106 109 114 103 87 79 77 57 43 41 48 69 89 56 75 71 54 52 63 73 68 64 54 69 71 106 111 81 69 79 94 107 103 103 111 116 102 67 54 47 44 48 125 197 219 196 152 112 112 73 78 98 156 121 121 76 0 1 7 12 13 25 25 0 0 0 0 0 0 0 0 0 0 0 0 0 0 0 0 0 0 0 0 0 0 0 0 0 0 0 0 0 0 0 
0 0 0 0 0 0 0 0 0 0 10 2 0 14 102 114 129 134 76 53 104 153 178 159 82 44 48 126 153 124 158 170 122 111 105 106 108 99 84 73 71 66 48 53 73 53 48 74 103 70 76 55 60 73 57 87 75 56 45 111 76 100 98 95 103 97 99 105 110 115 94 66 53 49 42 80 149 168 194 219 163 128 99 59 77 104 157 114 129 70 1 1 6 11 12 23 25 0 0 0 0 0 0 0 0 0 0 0 0 0 0 0 0 0 0 0 0 0 0 0 0 0 0 0 0 0 0 0 
0 0 0 0 0 0 0 0 0 0 0 7 1 11 90 119 117 127 81 44 88 143 177 167 120 46 46 125 156 155 173 162 127 102 100 95 99 92 79 68 66 65 62 69 61 48 46 72 97 43 63 60 68 84 56 58 86 54 47 66 81 63 120 139 123 103 103 108 108 106 85 74 74 69 65 114 123 157 175 230 166 116 73 59 77 113 137 103 138 59 0 1 7 12 13 23 24 0 0 0 0 0 0 0 0 0 0 0 0 0 0 0 0 0 0 0 0 0 0 0 0 0 0 0 0 0 0 0 
0 0 0 0 0 0 0 0 0 0 0 12 2 7 70 120 103 124 88 45 63 120 168 166 151 60 49 128 157 150 149 147 139 109 100 97 99 93 79 68 89 58 49 59 62 44 51 90 82 48 70 75 73 86 65 61 74 51 50 57 94 82 97 97 139 152 140 157 155 139 120 117 94 90 100 112 139 177 193 230 149 107 51 59 91 135 124 102 139 41 0 1 10 27 15 21 25 0 0 0 0 0 0 0 0 0 0 0 0 0 0 0 0 0 0 0 0 0 0 0 0 0 0 0 0 0 0 0 
0 0 0 0 0 0 0 0 0 0 0 13 5 7 53 128 95 120 102 62 49 96 150 175 160 89 55 138 154 126 109 111 116 116 108 100 98 99 105 77 60 50 50 53 67 62 53 101 103 57 88 100 83 93 75 46 63 53 58 105 116 79 77 94 108 121 120 123 146 155 140 118 99 55 65 98 168 185 202 217 153 71 49 71 102 138 109 98 141 26 0 1 15 11 12 22 25 0 0 0 0 0 0 0 0 0 0 0 0 0 0 0 0 0 0 0 0 0 0 0 0 0 0 0 0 0 0 0 
0 0 0 0 0 0 0 0 0 0 0 19 8 9 35 125 95 120 122 85 44 64 126 170 172 129 87 144 144 104 76 101 127 129 114 116 119 96 87 71 64 55 45 49 57 60 72 105 86 73 101 102 91 106 91 49 59 52 62 108 95 68 80 95 93 92 94 101 125 136 96 79 96 58 58 111 184 190 195 203 166 55 64 88 145 140 79 88 129 14 0 1 13 11 12 23 26 0 0 0 0 0 0 0 0 0 0 0 0 0 0 0 0 0 0 0 0 0 0 0 0 0 0 0 0 0 0 0 
0 0 0 0 0 0 0 0 0 0 0 20 9 11 22 110 96 114 136 102 48 42 84 150 181 138 131 162 135 103 85 116 134 145 118 107 109 109 106 88 69 61 50 56 68 55 57 82 85 102 87 89 103 113 101 59 65 54 72 107 96 112 104 105 107 107 118 134 144 112 57 93 108 119 112 153 191 200 177 183 182 71 83 113 173 119 39 91 98 6 0 1 13 12 13 24 26 0 0 0 0 0 0 0 0 0 0 0 0 0 0 0 0 0 0 0 0 0 0 0 0 0 0 0 0 0 0 0 
0 0 0 0 0 0 0 0 0 0 0 21 7 9 19 85 96 112 141 116 62 54 59 113 177 167 167 168 137 77 80 119 143 151 151 132 130 135 133 101 66 67 71 69 61 63 69 98 107 100 97 87 87 107 97 69 78 85 64 74 108 112 144 148 147 146 166 175 162 148 134 149 141 116 132 194 204 214 173 169 211 163 128 187 181 70 82 99 49 5 3 0 15 12 13 25 25 0 0 0 0 0 0 0 0 0 0 0 0 0 0 0 0 0 0 0 0 0 0 0 0 0 0 0 0 0 0 0 
0 0 0 0 0 0 0 0 0 0 4 20 8 7 16 54 90 105 142 133 86 80 79 127 171 175 201 156 133 90 96 124 146 158 174 170 155 144 137 108 115 139 115 71 63 75 79 102 108 89 87 90 91 115 107 96 87 91 78 81 114 120 109 126 154 165 186 162 141 143 128 122 113 93 144 204 207 203 187 187 213 177 183 177 138 31 69 86 15 5 2 0 15 11 13 25 24 0 0 0 0 0 0 0 0 0 0 0 0 0 0 0 0 0 0 0 0 0 0 0 0 0 0 0 0 0 0 0 
0 0 0 0 0 0 0 0 0 0 0 17 9 5 10 13 69 89 104 159 136 101 142 164 166 161 180 198 147 107 117 148 164 152 178 190 181 156 150 121 112 115 132 113 93 86 89 107 108 90 77 81 83 109 122 117 103 105 88 93 105 122 101 107 133 145 147 150 128 125 123 113 134 130 180 213 213 191 189 157 197 197 175 183 127 29 77 89 22 8 5 0 7 16 14 26 25 0 0 0 0 0 0 0 0 0 0 0 0 0 0 0 0 0 0 0 0 0 0 0 0 0 0 0 0 0 0 0 
0 0 0 0 0 0 0 0 0 0 0 17 2 4 6 10 47 95 94 158 178 134 120 88 62 91 131 194 175 138 133 141 164 154 146 169 171 165 154 120 102 99 117 141 121 107 114 102 120 108 88 86 89 123 126 151 129 96 94 97 95 118 106 110 132 128 121 112 134 112 70 69 76 163 209 198 163 131 136 130 172 129 129 146 80 139 102 75 8 7 3 0 5 18 14 24 23 0 0 0 0 0 0 0 0 0 0 0 0 0 0 0 0 0 0 0 0 0 0 0 0 0 0 0 0 0 0 0 
0 0 0 0 0 0 0 0 0 0 0 17 0 8 7 14 27 95 87 121 169 160 118 78 86 86 103 171 175 173 143 151 166 143 137 146 162 167 151 140 111 99 107 129 124 116 112 97 106 128 142 134 140 164 178 157 103 107 118 120 115 125 127 135 130 92 96 103 94 80 75 70 82 207 195 178 120 107 132 151 185 137 111 101 54 69 97 47 5 4 2 0 4 15 15 25 23 0 0 0 0 0 0 0 0 0 0 0 0 0 0 0 0 0 0 0 0 0 0 0 0 0 0 0 0 0 0 0 
0 0 0 0 0 0 0 0 0 0 3 14 2 4 8 18 14 82 88 110 173 121 116 131 77 64 92 158 175 195 133 104 139 150 142 126 148 148 145 136 111 105 106 112 109 108 109 100 128 124 121 134 128 141 142 125 97 103 117 123 157 155 150 142 108 61 58 69 51 48 63 72 124 188 173 145 91 83 156 171 162 161 110 110 40 52 98 20 5 1 0 0 4 17 14 24 23 0 0 0 0 0 0 0 0 0 0 0 0 0 0 0 0 0 0 0 0 0 0 0 0 0 0 0 0 0 0 0 
0 0 0 0 0 0 0 0 0 0 5 13 2 1 8 14 13 56 100 142 173 143 155 155 140 141 100 109 163 168 157 132 94 76 108 141 150 136 118 104 104 109 114 126 121 119 131 115 136 125 109 103 95 101 109 121 108 106 109 131 148 150 122 110 101 61 44 44 47 52 78 130 179 163 142 124 102 119 136 129 178 167 94 29 40 81 65 4 0 0 0 0 4 22 16 24 23 0 0 0 0 0 0 0 0 0 0 0 0 0 0 0 0 0 0 0 0 0 0 0 0 0 0 0 0 0 0 0 
0 0 0 0 0 0 0 0 0 0 8 14 5 0 3 12 18 30 98 142 169 166 182 175 135 159 126 67 104 143 146 142 101 58 66 69 107 132 97 81 69 87 110 129 122 124 130 119 133 126 143 140 102 106 131 119 121 122 113 117 126 118 82 71 98 70 43 45 77 119 151 171 155 143 106 111 124 156 168 204 168 95 56 13 54 109 21 2 0 0 0 0 2 21 15 24 21 0 0 0 0 0 0 0 0 0 0 0 0 0 0 0 0 0 0 0 0 0 0 0 0 0 0 0 0 0 0 0 
0 0 0 0 0 0 0 0 0 0 8 16 5 0 0 1 19 16 67 95 120 159 190 195 154 152 133 79 85 117 132 131 144 114 79 51 68 80 61 54 47 61 98 107 106 109 99 102 114 128 166 159 138 143 131 120 104 83 68 74 110 129 107 77 86 79 46 68 142 155 169 161 140 103 72 111 144 174 201 200 150 95 33 16 80 94 7 3 0 0 0 0 2 22 14 23 20 0 0 0 0 0 0 0 0 0 0 0 0 0 0 0 0 0 0 0 0 0 0 0 0 0 0 0 0 0 0 0 
0 0 0 0 0 0 0 0 0 0 8 19 9 0 0 0 12 14 38 96 118 157 158 187 202 136 135 120 114 87 99 117 132 147 146 128 84 50 43 61 49 90 94 96 99 109 118 158 157 162 160 155 164 171 157 133 120 105 102 105 135 175 170 145 135 131 132 158 173 191 168 137 110 69 56 117 152 185 162 179 133 69 87 100 107 51 3 2 0 0 0 0 5 22 17 23 19 0 0 0 0 0 0 0 0 0 0 0 0 0 0 0 0 0 0 0 0 0 0 0 0 0 0 0 0 0 0 0 
0 0 0 0 0 0 0 0 0 0 0 15 14 0 0 0 5 12 18 79 110 134 110 131 197 180 124 150 145 125 96 97 123 131 141 150 152 122 96 93 131 126 120 133 148 157 168 164 150 146 134 112 99 101 135 152 147 134 127 131 153 178 180 183 162 159 165 178 208 174 138 106 79 61 51 126 162 126 128 162 134 136 142 125 91 16 3 0 0 0 0 0 6 22 21 22 18 0 0 0 0 0 0 0 0 0 0 0 0 0 0 0 0 0 0 0 0 0 0 0 0 0 0 0 0 0 0 0 
0 0 0 0 0 0 0 0 0 0 0 3 17 1 0 0 4 11 11 38 93 146 119 77 156 190 149 142 136 130 113 85 99 117 120 115 134 159 156 158 171 171 158 173 185 175 172 149 123 122 120 98 99 120 138 150 152 153 159 155 155 170 184 184 196 219 211 193 195 121 78 69 64 55 71 153 143 121 131 148 125 124 119 106 51 6 3 0 0 0 0 0 12 26 21 23 18 0 0 0 0 0 0 0 0 0 0 0 0 0 0 0 0 0 0 0 0 0 0 0 0 0 0 0 0 0 0 0 
0 0 0 0 0 0 0 0 0 0 0 3 18 11 3 0 0 7 14 20 49 102 142 111 126 160 192 162 141 109 120 108 83 67 81 99 116 130 141 159 166 172 164 184 195 183 180 177 162 153 123 105 111 108 132 168 172 169 164 166 171 190 185 191 207 219 192 131 144 109 61 54 42 58 119 177 131 129 148 133 44 79 51 72 26 7 3 0 0 0 0 0 13 25 21 23 18 0 0 0 0 0 0 0 0 0 0 0 0 0 0 0 0 0 0 0 0 0 0 0 0 0 0 0 0 0 0 0 
0 0 0 0 0 0 0 0 0 0 0 6 20 11 8 1 0 7 15 19 26 68 134 159 112 110 194 196 167 133 144 125 118 60 50 48 59 71 92 117 131 157 162 180 199 188 184 189 179 143 114 147 163 125 114 137 162 161 163 158 156 162 133 124 163 190 158 103 134 86 45 47 61 105 140 159 167 128 152 122 63 88 82 57 20 5 3 0 0 0 0 0 16 24 15 23 17 0 0 0 0 0 0 0 0 0 0 0 0 0 0 0 0 0 0 0 0 0 0 0 0 0 0 0 0 0 0 0 
0 0 0 0 0 0 0 0 0 0 0 0 5 5 5 6 0 4 13 23 22 37 113 141 78 90 147 203 189 160 137 116 127 104 57 50 43 57 56 62 58 75 85 97 141 159 135 145 141 117 124 158 167 147 110 91 89 78 75 73 82 94 81 85 120 157 128 93 129 68 56 78 107 135 161 180 176 113 145 111 111 138 115 36 12 11 2 0 0 0 0 2 22 13 12 22 16 0 0 0 0 0 0 0 0 0 0 0 0 0 0 0 0 0 0 0 0 0 0 0 0 0 0 0 0 0 0 0 
0 0 0 0 0 0 0 0 0 0 0 0 3 6 6 6 5 5 13 13 23 27 67 116 130 108 107 171 169 140 123 110 117 128 106 70 60 67 68 55 61 105 96 75 96 143 119 89 91 68 90 98 91 118 105 72 58 58 56 57 74 86 72 80 101 123 96 87 176 129 85 118 146 146 160 183 164 107 130 40 56 87 42 24 9 13 2 0 0 2 8 7 19 6 12 21 15 0 0 0 0 0 0 0 0 0 0 0 0 0 0 0 0 0 0 0 0 0 0 0 0 0 0 0 0 0 0 0 
0 0 0 0 0 0 0 0 0 0 0 0 3 7 4 6 5 4 14 18 23 37 47 91 97 90 117 151 129 101 114 123 118 120 129 124 121 101 70 60 148 185 149 170 136 166 163 134 109 109 116 119 170 197 197 168 139 157 172 180 185 164 146 92 107 138 134 145 145 243 156 136 136 149 131 125 106 91 133 23 53 33 19 16 10 3 1 2 4 6 7 3 11 5 11 20 14 0 0 0 0 0 0 0 0 0 0 0 0 0 0 0 0 0 0 0 0 0 0 0 0 0 0 0 0 0 0 0 
0 0 0 0 0 0 0 0 0 0 0 0 0 7 5 4 1 3 10 19 31 36 35 52 86 67 100 85 91 96 111 125 92 101 125 146 183 213 214 146 177 161 151 163 151 151 160 196 180 139 136 164 197 197 200 217 227 224 196 178 171 156 144 165 200 2 206 179 156 165 172 181 135 83 72 86 91 140 136 65 46 11 3 3 22 8 0 0 0 2 7 6 5 4 9 20 11 0 0 0 0 0 0 0 0 0 0 0 0 0 0 0 0 0 0 0 0 0 0 0 0 0 0 0 0 0 0 0 
0 0 0 0 0 0 0 0 0 0 0 0 0 2 4 3 1 0 0 10 23 33 23 30 68 84 77 39 35 34 62 126 125 142 132 154 151 124 120 157 189 179 146 187 175 106 135 157 176 111 102 146 167 175 192 179 133 116 148 168 140 151 167 131 122 205 239 113 118 105 98 105 86 57 52 69 81 142 111 43 33 30 15 6 22 0 0 0 0 3 6 9 3 4 9 21 11 0 0 0 0 0 0 0 0 0 0 0 0 0 0 0 0 0 0 0 0 0 0 0 0 0 0 0 0 0 0 0 
0 0 0 0 0 0 0 0 0 0 0 0 0 0 5 7 6 2 0 4 13 13 14 23 27 40 28 21 26 33 48 77 73 59 56 97 94 65 67 61 100 130 149 192 187 165 175 161 122 94 111 141 167 178 184 156 103 77 90 118 136 148 107 51 45 116 87 50 47 54 59 56 61 61 57 91 94 120 79 32 34 27 9 0 1 1 3 5 5 4 5 3 0 4 10 21 12 0 0 0 0 0 0 0 0 0 0 0 0 0 0 0 0 0 0 0 0 0 0 0 0 0 0 0 0 0 0 0 
0 0 0 0 0 0 0 0 0 0 0 0 0 0 0 1 5 5 2 0 7 11 10 17 17 20 26 22 24 27 41 81 45 29 39 74 119 62 53 52 87 77 55 60 93 98 83 57 48 49 55 66 107 118 97 69 47 47 49 50 60 98 73 57 71 85 90 146 98 60 60 76 79 49 49 91 98 124 74 33 32 23 10 1 0 2 4 4 5 3 0 0 0 2 9 20 12 0 0 0 0 0 0 0 0 0 0 0 0 0 0 0 0 0 0 0 0 0 0 0 0 0 0 0 0 0 0 0 
0 0 0 0 0 0 0 0 0 0 0 0 0 0 0 0 0 2 0 0 3 7 8 17 18 21 30 34 36 34 37 84 54 27 37 71 136 117 123 146 145 115 78 66 87 96 59 50 68 67 64 86 125 133 111 81 69 66 76 81 77 104 79 67 187 229 149 145 132 54 54 29 15 20 40 90 102 138 72 27 25 16 13 7 1 0 0 0 0 0 0 0 0 1 6 17 12 0 0 0 0 0 0 0 0 0 0 0 0 0 0 0 0 0 0 0 0 0 0 0 0 0 0 0 0 0 0 0 
0 0 0 0 0 0 0 0 0 0 0 0 0 0 0 0 0 0 0 0 0 0 5 7 7 15 23 26 37 43 54 104 101 87 59 97 126 114 126 177 190 157 94 104 151 153 167 154 161 145 174 207 181 164 140 86 47 44 47 61 77 76 99 167 174 164 73 191 114 144 29 22 16 14 16 74 88 120 51 4 6 0 0 6 1 0 0 0 0 0 0 0 0 0 2 11 10 0 0 0 0 0 0 0 0 0 0 0 0 0 0 0 0 0 0 0 0 0 0 0 0 0 0 0 0 0 0 0 
0 0 0 0 0 0 0 0 0 0 0 0 0 0 0 0 0 0 0 0 0 0 0 0 2 9 14 20 36 44 34 55 61 57 59 92 119 125 174 204 179 107 128 191 233 198 144 156 93 130 181 196 177 131 100 68 63 66 78 112 86 128 142 131 173 76 93 70 165 95 32 14 14 29 54 112 126 133 92 2 1 0 0 0 0 0 0 0 0 0 0 1 0 0 1 8 6 0 0 0 0 0 0 0 0 0 0 0 0 0 0 0 0 0 0 0 0 0 0 0 0 0 0 0 0 0 0 0 
0 0 0 0 0 0 0 0 0 0 0 0 0 0 0 0 0 0 0 0 0 0 0 0 4 7 19 61 69 82 76 86 96 90 73 50 89 85 129 137 33 42 52 87 149 170 126 164 177 190 170 152 120 71 41 36 45 42 36 51 103 118 128 185 136 49 97 217 104 128 94 33 23 25 31 85 63 58 29 16 4 1 7 2 0 0 0 0 0 0 0 3 7 18 31 42 31 0 0 0 0 0 0 0 0 0 0 0 0 0 0 0 0 0 0 0 0 0 0 0 0 0 0 0 0 0 0 0 
0 0 0 0 0 0 0 0 0 0 0 0 0 0 0 0 0 0 0 0 0 0 3 0 8 11 8 21 20 28 27 42 69 41 38 54 86 78 42 31 33 32 50 80 110 78 63 120 154 134 91 71 67 59 60 42 42 66 54 56 85 136 154 136 221 222 218 123 109 135 161 85 40 42 49 108 88 76 40 17 11 3 2 0 0 0 0 0 0 0 0 0 0 2 12 26 18 0 0 0 0 0 0 0 0 0 0 0 0 0 0 0 0 0 0 0 0 0 0 0 0 0 0 0 0 0 0 0 
0 0 0 0 0 0 0 0 0 0 0 0 0 0 0 0 0 0 0 0 0 0 0 6 4 12 9 16 18 23 26 39 80 45 37 50 63 54 48 40 40 78 83 99 106 84 96 156 154 106 104 88 64 56 59 53 64 81 73 86 106 118 141 145 139 154 190 203 204 113 95 78 47 40 32 87 76 80 31 14 13 10 1 0 0 0 0 0 0 0 0 0 0 2 12 25 14 0 0 0 0 0 0 0 0 0 0 0 0 0 0 0 0 0 0 0 0 0 0 0 0 0 0 0 0 0 0 0 
0 0 0 0 0 0 0 0 0 0 0 0 0 0 0 0 0 0 0 0 0 0 0 0 5 12 9 14 21 23 27 40 77 45 37 53 56 34 40 46 54 90 53 67 117 91 86 130 140 88 110 113 102 88 71 68 102 97 113 121 119 116 125 115 91 101 130 162 123 60 56 82 61 40 40 86 72 70 23 14 15 10 0 0 0 0 0 0 0 0 0 0 0 2 11 25 12 0 0 0 0 0 0 0 0 0 0 0 0 0 0 0 0 0 0 0 0 0 0 0 0 0 0 0 0 0 0 0 
0 0 0 0 0 0 0 0 0 0 0 0 0 0 0 0 0 0 0 0 0 0 0 0 4 7 9 13 17 25 26 41 74 43 45 63 47 34 38 73 105 94 70 66 105 114 78 120 127 86 112 116 107 106 95 103 110 107 110 126 116 132 121 87 99 81 92 116 142 118 45 56 80 42 36 81 57 30 14 12 15 7 0 0 0 0 0 0 0 0 0 0 0 0 10 24 10 0 0 0 0 0 0 0 0 0 0 0 0 0 0 0 0 0 0 0 0 0 0 0 0 0 0 0 0 0 0 0 
0 0 0 0 0 0 0 0 0 0 0 0 0 0 0 0 0 0 0 0 0 0 0 0 0 6 10 12 13 27 23 41 78 52 57 68 40 38 81 128 91 77 76 68 116 134 82 104 114 97 118 110 101 107 105 101 103 110 102 111 123 132 87 57 106 113 65 80 101 144 104 48 82 48 32 86 57 20 12 13 15 5 0 0 0 0 0 0 0 0 0 0 0 0 9 24 9 0 0 0 0 0 0 0 0 0 0 0 0 0 0 0 0 0 0 0 0 0 0 0 0 0 0 0 0 0 0 0 
0 0 0 0 0 0 0 0 0 0 0 0 0 0 0 0 0 0 0 0 0 0 0 0 0 0 8 8 10 20 26 36 83 58 77 76 38 57 116 105 68 50 59 64 112 141 93 97 86 98 119 99 97 107 113 80 84 113 118 93 116 99 68 52 104 125 67 63 66 95 145 88 77 77 44 88 52 21 12 15 12 5 0 0 0 0 0 0 0 0 0 0 0 0 8 24 9 0 0 0 0 0 0 0 0 0 0 0 0 0 0 0 0 0 0 0 0 0 0 0 0 0 0 0 0 0 0 0 
0 0 0 0 0 0 0 0 0 0 0 0 0 0 0 0 0 0 0 0 0 0 0 0 0 0 2 11 8 16 26 33 76 81 91 59 35 92 122 61 44 37 50 60 99 126 81 64 56 81 97 84 84 96 107 84 65 69 83 103 93 66 62 51 89 126 62 56 54 53 118 135 71 89 75 90 32 19 16 20 17 6 0 0 0 0 0 0 0 0 0 0 0 1 10 24 8 0 0 0 0 0 0 0 0 0 0 0 0 0 0 0 0 0 0 0 0 0 0 0 0 0 0 0 0 0 0 0 
0 0 0 0 0 0 0 0 0 0 0 0 0 0 0 0 0 0 0 0 0 0 0 0 0 0 0 5 14 16 23 32 45 72 59 29 33 105 130 48 41 42 51 79 119 114 67 48 46 69 84 82 71 64 72 71 57 55 71 89 70 51 52 48 72 125 103 76 60 37 95 164 69 60 81 48 24 19 19 21 20 8 0 0 0 0 0 0 0 0 0 0 0 0 8 24 6 0 0 0 0 0 0 0 0 0 0 0 0 0 0 0 0 0 0 0 0 0 0 0 0 0 0 0 0 0 0 0 
0 0 0 0 0 0 0 0 0 0 0 0 0 0 0 0 0 0 0 0 0 0 0 0 0 0 0 3 10 16 22 22 30 25 17 16 32 96 154 77 41 38 50 79 113 77 50 41 42 68 89 86 68 64 66 65 56 61 73 91 74 50 53 57 72 107 111 63 51 35 110 177 65 24 23 24 18 18 18 20 16 8 0 0 0 0 0 0 0 0 0 0 0 0 8 23 6 0 0 0 0 0 0 0 0 0 0 0 0 0 0 0 0 0 0 0 0 0 0 0 0 0 0 0 0 0 0 0 
0 0 0 0 0 0 0 0 0 0 0 0 0 0 0 0 0 0 0 0 0 0 0 0 0 0 0 1 8 11 21 19 23 31 22 17 28 68 156 102 43 44 47 81 70 45 42 49 50 62 82 83 67 67 58 51 54 53 72 94 80 52 70 72 69 80 97 80 47 45 123 176 56 22 26 23 16 19 19 19 14 7 1 0 0 0 0 0 0 0 0 0 0 0 6 22 6 0 0 0 0 0 0 0 0 0 0 0 0 0 0 0 0 0 0 0 0 0 0 0 0 0 0 0 0 0 0 0 
0 0 0 0 0 0 0 0 0 0 0 0 0 0 0 0 0 0 0 0 0 0 0 0 0 0 0 0 3 11 13 23 14 24 23 13 17 35 136 141 67 38 69 97 64 43 53 66 74 89 83 79 67 56 40 51 66 54 70 91 80 58 76 58 48 58 87 102 71 75 143 159 39 21 22 22 13 17 18 14 12 7 2 0 0 0 0 0 0 0 0 0 0 0 7 22 6 0 0 0 0 0 0 0 0 0 0 0 0 0 0 0 0 0 0 0 0 0 0 0 0 0 0 0 0 0 0 0 
0 0 0 0 0 0 0 0 0 0 0 0 0 0 0 0 0 0 0 0 0 0 0 0 0 0 0 0 0 13 6 19 14 15 18 16 15 16 75 167 120 103 134 103 67 58 57 51 53 88 95 87 75 64 53 62 83 89 96 97 79 61 77 56 48 49 75 112 142 141 183 114 23 21 23 17 11 17 15 10 11 7 1 0 0 0 0 0 0 0 0 0 0 0 5 22 5 0 0 0 0 0 0 0 0 0 0 0 0 0 0 0 0 0 0 0 0 0 0 0 0 0 0 0 0 0 0 0 
0 0 0 0 0 0 0 0 0 0 0 0 0 0 0 0 0 0 0 0 0 0 0 0 0 0 0 0 0 7 8 16 16 10 16 17 23 22 24 105 174 174 171 106 52 49 53 50 64 111 112 96 78 77 79 79 95 97 103 109 106 89 86 54 43 40 56 112 177 187 150 42 22 26 27 21 9 13 9 10 8 6 1 0 0 0 0 0 0 0 0 0 0 0 4 21 4 0 0 0 0 0 0 0 0 0 0 0 0 0 0 0 0 0 0 0 0 0 0 0 0 0 0 0 0 0 0 0 
0 0 0 0 0 0 0 0 0 0 0 0 0 0 0 0 0 0 0 0 0 0 0 0 0 0 0 0 0 3 9 13 18 11 13 21 27 25 23 25 69 129 142 76 45 55 44 46 61 98 113 97 68 65 67 64 78 86 85 92 106 111 96 59 44 34 38 88 137 96 35 25 27 27 29 18 10 10 9 10 8 5 1 0 0 0 0 0 0 0 0 0 0 0 3 20 4 0 0 0 0 0 0 0 0 0 0 0 0 0 0 0 0 0 0 0 0 0 0 0 0 0 0 0 0 0 0 0 
0 0 0 0 0 0 0 0 0 0 0 0 0 0 0 0 0 0 0 0 0 0 0 0 0 0 0 0 0 3 5 10 18 16 13 22 26 22 20 26 24 31 39 31 33 31 39 42 51 93 115 98 74 61 59 62 61 88 102 76 93 114 104 64 48 39 35 43 42 37 32 29 28 29 18 15 13 10 9 8 8 5 0 0 0 0 0 0 0 0 0 0 0 0 6 22 5 0 0 0 0 0 0 0 0 0 0 0 0 0 0 0 0 0 0 0 0 0 0 0 0 0 0 0 0 0 0 0 
0 0 0 0 0 0 0 0 0 0 0 0 0 0 0 0 0 0 0 0 0 0 0 0 0 0 0 0 0 3 2 9 15 13 17 22 24 22 19 28 27 30 31 26 29 40 39 37 46 77 113 109 98 99 99 101 88 94 113 97 98 109 95 69 58 46 35 41 41 35 26 34 28 25 11 11 14 9 9 8 8 4 0 0 0 0 0 0 0 0 0 0 0 0 4 20 4 0 0 0 0 0 0 0 0 0 0 0 0 0 0 0 0 0 0 0 0 0 0 0 0 0 0 0 0 0 0 0 
