P2
128 99
215
0 0 0 0 0 0 0 0 0 0 0 0 0 0 0 0 0 0 0 0 0 0 0 0 0 0 0 0 0 0 0 0 0 1 0 0 1 1 0 0 0 0 0 0 0 0 0 0 0 0 0 0 0 0 0 0 0 0 0 0 0 0 0 0 0 0 0 0 0 0 0 0 0 0 0 0 0 0 0 0 0 0 0 0 0 0 0 0 0 1 0 0 0 1 1 1 1 0 0 0 0 0 0 0 0 0 0 0 0 0 0 0 0 0 0 0 0 0 0 0 0 0 0 0 0 0 0 0 
0 0 0 0 0 0 0 0 0 0 0 0 0 0 0 0 0 0 0 0 0 0 0 0 0 0 0 0 0 0 0 0 0 1 0 0 1 1 0 0 0 0 0 0 0 0 0 0 0 0 0 0 0 0 0 0 0 0 0 0 0 0 0 0 0 0 0 0 0 0 0 0 0 0 0 0 0 0 0 0 0 0 0 0 0 0 0 0 0 1 0 0 0 1 1 1 1 1 0 0 0 0 0 0 0 0 0 0 0 0 0 0 0 0 0 0 0 0 0 0 0 0 0 0 0 0 0 0 
0 0 0 0 0 0 0 0 0 0 0 0 0 0 0 0 0 0 0 0 0 0 0 0 0 0 0 0 0 0 0 0 0 0 0 0 1 1 0 0 0 0 0 0 0 0 0 0 0 0 1 2 2 3 1 0 0 0 0 0 0 0 0 0 0 0 0 0 0 0 0 0 0 0 0 0 0 0 0 0 0 0 0 0 0 0 0 0 0 0 0 0 0 0 1 1 1 1 0 0 0 0 0 0 0 0 0 0 0 0 0 0 0 0 0 0 0 0 0 0 0 0 0 0 0 0 0 0 
0 0 0 0 0 0 0 0 0 0 0 0 0 0 0 0 0 0 0 0 0 0 0 0 0 0 0 0 0 0 0 0 0 0 0 0 0 1 0 0 0 0 0 1 7 13 17 18 18 19 22 25 28 27 25 21 18 16 14 12 4 0 0 0 0 0 0 0 0 0 0 0 0 0 0 0 0 0 0 0 0 0 0 0 0 0 0 0 0 0 0 0 0 1 1 1 1 1 0 0 0 0 0 0 0 0 0 0 0 0 0 0 0 0 0 0 0 0 0 0 0 0 0 0 0 0 0 0 
0 0 0 0 0 0 0 0 0 0 0 0 0 0 0 0 0 0 0 0 0 0 0 0 0 0 0 0 0 0 0 0 0 0 0 0 0 0 0 0 5 13 19 23 24 33 54 78 101 123 139 151 156 157 153 142 126 105 80 54 33 22 17 10 2 0 0 0 0 0 0 0 0 0 0 0 0 0 0 0 0 0 0 0 0 0 0 0 0 0 0 0 0 0 1 1 1 1 0 0 0 0 0 0 0 0 0 0 0 0 0 0 0 0 0 0 0 0 0 0 0 0 0 0 0 0 0 0 
0 0 0 0 0 0 0 0 0 0 0 0 0 0 0 0 0 0 0 0 0 0 0 0 0 0 0 0 0 0 0 0 0 0 0 0 0 1 9 17 24 25 36 68 112 152 174 185 190 193 194 193 191 191 192 192 191 189 183 173 152 119 80 44 23 16 10 1 0 0 0 0 0 0 0 0 0 0 0 0 0 0 0 0 0 0 0 0 0 0 0 0 0 0 1 1 1 0 0 0 0 0 0 0 0 0 0 0 0 0 0 0 0 0 0 0 0 0 0 0 0 0 0 0 0 0 0 0 
0 0 0 0 0 0 0 0 0 0 0 0 0 0 0 0 0 0 0 0 0 0 0 0 0 0 0 0 0 0 0 0 0 0 0 0 9 22 24 26 52 104 154 181 192 194 195 195 198 200 202 203 203 203 203 203 201 198 195 193 192 187 178 158 124 77 39 18 13 2 0 0 0 0 0 0 0 0 0 0 0 0 0 0 0 0 0 0 0 1 0 0 0 0 1 1 1 0 0 0 0 0 0 0 0 0 0 0 0 0 0 0 0 0 0 0 0 0 0 0 0 0 0 0 0 0 0 0 
0 0 0 0 0 0 0 0 0 0 0 0 0 0 0 0 0 0 0 0 0 0 0 0 0 0 0 0 0 0 0 0 0 0 8 24 25 27 63 126 171 188 193 195 197 200 199 192 186 182 185 192 190 177 176 189 202 208 206 202 199 195 194 193 189 176 151 102 49 23 14 1 0 0 0 0 0 0 0 0 0 0 0 0 0 0 0 0 0 1 0 0 0 1 1 1 1 0 0 0 0 0 0 0 0 0 0 0 0 0 0 0 0 0 0 0 0 0 0 0 0 0 0 0 0 0 0 0 
0 0 0 0 0 0 0 0 0 0 0 0 0 0 0 0 0 0 0 0 0 0 0 0 0 0 0 0 0 0 0 0 5 27 25 23 59 130 175 188 190 193 197 201 198 189 180 169 160 157 157 159 157 150 151 156 165 183 203 211 209 204 201 197 194 193 192 184 159 104 45 23 10 0 0 0 0 0 0 0 0 0 0 0 0 0 0 0 0 1 0 0 0 1 1 1 1 0 0 0 0 0 0 0 0 0 0 0 0 0 0 0 0 0 0 0 0 0 0 0 0 0 0 0 0 0 0 0 
0 0 0 0 0 0 0 0 0 0 0 0 0 0 0 0 0 0 0 0 0 0 0 0 0 0 0 0 0 0 0 24 26 22 41 113 172 186 187 191 196 201 198 182 168 162 156 145 141 138 142 150 150 147 150 152 154 157 169 188 207 212 211 208 203 199 195 194 193 184 151 80 31 19 2 0 0 0 0 0 0 0 0 0 0 0 0 0 0 1 0 0 0 1 1 1 1 0 0 0 0 0 0 0 0 0 0 0 0 0 0 0 0 0 0 0 0 0 0 0 0 0 0 0 0 0 0 0 
0 0 0 0 0 0 0 0 0 0 0 0 0 0 0 0 0 0 0 0 0 0 0 0 0 0 0 0 0 10 28 22 25 84 161 184 188 190 195 200 203 192 173 168 162 155 148 142 138 136 136 141 140 140 144 148 149 147 151 159 175 195 208 214 213 209 204 200 196 195 193 177 122 46 23 6 0 0 0 0 0 0 0 0 0 0 0 0 0 1 0 0 0 1 1 1 1 0 0 0 0 0 0 0 0 0 0 0 0 0 0 0 0 0 0 0 0 0 0 0 0 0 0 0 0 0 0 0 
0 0 0 0 0 0 0 0 0 0 0 0 0 0 0 0 0 0 0 0 0 0 0 0 0 0 0 0 22 25 18 48 134 180 185 190 196 200 204 199 184 174 167 161 157 153 150 146 144 141 134 136 134 133 143 149 149 149 150 154 160 171 187 200 210 215 213 208 204 201 198 195 188 153 69 24 11 0 0 0 0 0 0 0 0 0 0 0 0 1 0 0 0 1 1 1 1 1 0 0 0 0 0 0 0 0 0 0 0 0 0 0 0 0 0 0 0 0 0 0 0 0 0 0 0 0 0 0 
0 0 0 0 0 0 0 0 0 0 0 0 0 0 0 0 0 0 0 0 0 0 0 0 0 0 5 26 21 19 77 161 182 188 194 201 205 205 192 179 173 168 160 158 153 151 151 147 148 140 131 130 128 128 138 147 147 149 151 152 155 164 174 182 192 203 211 215 213 207 202 199 195 188 165 86 25 13 0 0 0 0 0 0 0 0 0 0 0 1 0 0 0 1 1 1 1 1 0 0 0 0 0 0 0 0 0 0 0 0 0 0 0 0 0 0 0 0 0 0 0 0 0 0 0 0 0 0 
0 0 0 0 0 0 0 0 0 0 0 0 0 0 0 0 0 0 0 0 0 0 0 0 0 10 25 18 26 102 170 182 193 200 204 208 201 186 176 170 167 162 157 153 150 150 151 150 141 136 126 125 122 124 128 139 150 152 154 155 155 157 164 171 178 184 192 203 211 214 211 205 198 192 188 170 96 27 14 0 0 0 0 0 0 0 0 0 1 1 0 0 0 1 1 1 1 1 0 0 0 0 0 0 0 0 0 0 0 0 0 0 0 0 0 0 0 0 0 0 0 0 0 0 0 0 0 0 
0 0 0 0 0 0 0 0 0 0 0 0 0 0 0 0 0 0 0 0 0 0 0 0 14 23 16 34 119 172 183 195 203 208 205 192 179 174 171 166 163 159 158 154 149 147 140 132 131 126 123 122 120 123 125 125 134 146 150 149 150 151 155 161 165 170 176 181 188 200 210 212 207 200 192 189 174 107 30 13 0 0 0 0 0 0 0 0 0 1 1 0 0 1 1 1 1 1 0 0 0 0 0 0 0 0 0 0 0 0 0 0 0 0 0 0 0 0 0 0 0 0 0 0 0 0 0 0 
0 0 0 0 0 0 0 0 0 0 0 0 0 0 0 0 0 0 0 0 0 0 3 19 20 15 45 131 170 185 197 204 207 196 182 174 171 170 167 163 159 153 148 140 137 129 124 124 121 121 121 119 117 122 125 124 124 128 137 145 146 146 147 153 159 161 165 167 171 177 188 202 209 207 200 192 189 176 119 36 12 0 0 0 0 0 0 0 1 1 0 0 0 1 1 1 1 1 0 0 0 0 0 0 0 0 0 0 0 0 0 0 0 0 0 0 0 0 0 0 0 0 0 0 0 0 0 0 
0 0 0 0 0 0 0 0 0 0 0 0 0 0 0 0 0 0 0 0 0 5 17 17 16 57 141 169 186 198 206 205 186 174 169 167 165 164 161 157 152 145 140 137 127 122 121 118 120 120 120 116 114 121 123 124 124 124 125 129 132 134 138 143 149 152 155 160 164 167 170 177 193 205 206 200 195 190 175 127 39 9 0 0 0 0 0 0 0 1 0 0 0 1 1 1 1 1 0 0 0 0 0 0 0 0 0 0 0 0 0 0 0 0 0 0 0 0 0 0 0 0 0 0 0 0 0 0 
0 0 0 0 0 0 0 0 0 0 0 0 0 0 0 0 0 0 0 0 6 16 15 18 71 150 169 186 201 207 199 176 166 166 166 161 155 151 149 147 145 141 134 126 122 120 117 119 120 119 117 111 111 120 120 122 124 124 124 126 128 130 132 135 139 142 144 148 151 156 158 163 168 184 198 204 200 195 188 176 132 37 6 0 0 0 0 0 0 1 0 0 0 1 1 1 1 1 0 0 0 0 0 0 0 0 0 0 0 0 0 0 0 0 0 0 0 0 0 0 0 0 0 0 0 0 0 0 
0 0 0 0 0 0 0 0 0 0 0 0 0 0 0 0 0 0 0 6 16 13 20 79 153 169 184 199 206 195 170 161 162 160 156 150 146 145 140 134 130 126 124 121 121 119 116 118 118 114 115 107 109 118 119 121 123 123 123 123 125 126 126 129 128 129 134 141 146 148 147 149 156 163 177 194 204 201 196 186 174 124 29 3 0 0 0 0 0 1 1 0 0 1 1 1 1 1 0 0 0 0 0 0 0 0 0 0 0 0 0 0 0 0 0 0 0 0 0 0 0 0 0 0 0 0 0 0 
0 0 0 0 0 0 0 0 0 0 0 0 0 0 0 0 0 0 5 16 13 20 84 154 167 181 195 203 189 167 160 158 156 154 148 140 136 134 129 125 124 122 121 121 117 114 114 115 113 113 110 105 108 119 120 119 121 121 122 122 122 122 121 121 124 124 128 133 141 146 144 144 146 151 160 172 189 203 202 193 182 169 108 20 2 0 0 0 1 1 1 0 0 1 1 1 1 1 0 0 0 0 0 0 0 0 0 0 0 0 0 0 0 0 0 0 0 0 0 0 0 0 0 0 0 0 0 0 
0 0 0 0 0 0 0 0 0 0 0 0 0 0 0 0 0 2 15 13 19 81 149 164 177 192 203 187 165 158 155 151 149 145 137 131 129 128 124 124 121 118 117 114 113 113 113 112 113 110 102 103 106 116 117 118 119 119 118 120 122 120 119 117 118 120 124 130 134 136 140 140 142 145 151 158 167 185 204 199 190 178 160 84 11 0 0 0 0 1 0 0 0 1 1 1 1 1 0 0 0 0 0 0 0 0 0 0 0 0 0 0 0 0 0 0 0 0 0 0 0 0 0 0 0 0 0 0 
0 0 0 0 0 0 0 0 0 0 0 0 0 0 0 0 0 11 12 16 74 143 159 172 187 200 185 163 157 153 149 145 144 139 128 126 126 123 123 120 115 112 111 112 112 111 109 109 110 101 101 104 105 109 113 114 116 115 116 118 119 116 116 115 113 115 120 125 129 132 131 133 134 138 144 150 157 163 187 203 198 187 172 143 54 4 0 0 0 1 0 0 0 1 1 1 1 1 0 0 0 0 0 0 0 0 0 0 0 0 0 0 0 0 0 0 0 0 0 0 0 0 0 0 0 0 0 0 
0 0 0 0 0 0 0 0 0 0 0 0 0 0 0 0 6 12 14 60 135 152 167 183 197 186 160 155 150 145 143 139 133 127 125 124 124 124 120 114 111 110 111 111 109 106 106 106 102 99 101 104 105 108 108 107 110 110 109 109 111 113 113 111 110 109 112 122 124 127 128 128 129 132 136 142 148 153 159 190 203 195 181 163 118 25 1 0 1 1 1 0 0 1 1 1 2 1 0 0 0 0 0 0 0 0 0 0 0 0 0 0 0 0 0 0 0 0 0 0 0 0 0 0 0 0 0 0 
0 0 0 0 0 0 0 0 0 0 0 0 0 0 0 2 12 13 47 124 148 162 178 193 188 161 151 148 144 143 136 131 128 128 126 124 121 117 112 110 107 102 100 100 101 102 103 104 104 102 107 105 104 107 105 103 105 105 106 106 107 109 110 109 108 109 109 112 120 123 123 123 123 128 133 137 147 148 148 162 195 200 189 174 150 80 7 0 1 1 1 0 0 1 1 1 2 1 0 0 0 0 0 0 0 0 0 0 0 0 0 0 0 0 0 0 0 0 0 0 0 0 0 0 0 0 0 0 
0 0 0 0 0 0 0 0 0 0 0 0 0 0 0 7 11 26 103 139 154 171 188 189 165 150 145 142 142 140 132 127 127 124 121 117 115 112 109 103 99 98 101 102 100 101 103 103 104 104 109 107 103 105 102 103 102 102 102 105 105 105 108 108 109 109 109 110 115 118 119 120 121 122 129 136 143 144 145 147 171 196 193 180 163 124 30 1 1 1 0 0 0 1 1 1 1 1 0 0 0 0 0 0 0 0 0 0 0 0 0 0 0 0 0 0 0 0 0 0 0 0 0 0 0 0 0 0 
0 0 0 0 0 0 0 0 0 0 0 0 0 0 2 9 13 75 131 146 162 180 183 172 150 141 139 139 141 137 130 125 122 122 119 113 112 108 104 100 100 101 102 101 100 101 103 103 102 104 110 109 105 107 104 103 103 103 103 102 103 105 105 107 106 107 107 108 110 114 116 120 121 122 125 133 140 140 140 139 149 181 192 185 169 145 69 4 1 1 0 0 0 1 1 1 1 1 0 0 0 0 0 0 0 0 0 0 0 0 0 0 0 0 0 0 0 0 0 0 0 0 0 0 0 0 0 0 
0 0 0 0 0 0 0 0 0 0 0 0 0 0 6 9 40 115 138 153 172 179 169 160 140 135 137 140 139 134 127 122 120 118 115 108 106 105 104 101 101 101 100 99 102 103 105 104 102 104 111 112 108 108 99 100 103 104 103 101 100 102 104 104 105 105 105 106 108 111 112 118 121 119 123 132 140 139 137 132 138 163 183 186 175 155 108 17 1 1 0 0 0 1 1 1 1 1 0 0 0 0 0 0 0 0 0 0 0 0 0 0 0 0 0 0 0 0 0 0 0 0 0 0 0 0 0 0 
0 0 0 0 0 0 0 0 0 0 0 0 0 0 7 15 84 127 145 161 178 166 163 145 133 133 135 139 135 130 121 117 116 116 112 106 107 105 101 101 100 99 100 101 100 103 105 105 105 103 106 110 110 104 97 97 98 104 104 102 99 100 101 103 105 107 107 107 108 109 111 115 121 120 124 130 138 139 134 129 131 155 173 183 177 161 130 39 2 1 1 0 0 1 1 1 1 1 0 0 0 0 0 0 0 0 0 0 0 0 0 0 0 0 0 0 0 0 0 0 0 0 0 0 0 0 0 0 
0 0 0 0 0 0 0 0 0 0 0 0 0 3 7 37 112 135 150 170 172 161 155 135 130 131 133 136 132 124 120 118 116 114 108 107 106 102 100 99 99 99 99 100 100 103 106 106 105 100 99 102 109 99 94 93 96 100 97 101 101 101 100 102 105 107 108 109 109 108 109 112 119 119 121 131 137 137 130 126 126 149 165 182 179 166 141 61 3 1 1 0 0 1 1 1 2 1 0 0 0 0 0 0 0 0 0 0 0 0 0 0 0 0 0 0 0 0 0 0 0 0 0 0 0 0 0 0 
0 0 0 0 0 0 0 0 0 0 0 0 0 4 9 69 124 139 156 173 158 153 145 130 130 127 130 131 125 122 122 119 118 111 105 106 106 103 101 100 100 100 99 101 102 103 102 102 103 100 99 100 106 99 95 94 96 95 94 94 96 101 102 102 105 106 108 110 113 111 109 112 118 118 120 130 136 129 127 124 120 143 159 178 180 167 147 82 6 1 1 0 0 1 1 1 2 1 0 0 0 0 0 0 0 0 0 0 0 0 0 0 0 0 0 0 0 0 0 0 0 0 0 0 0 0 0 0 
0 0 0 0 0 0 0 0 0 0 0 0 0 6 17 95 129 146 165 166 145 144 138 126 125 124 126 127 120 121 122 120 117 109 108 108 107 103 100 101 103 100 98 99 103 101 99 101 102 99 97 99 105 99 96 96 96 97 97 96 95 97 101 105 107 107 110 111 113 113 112 113 116 118 119 126 131 127 124 123 120 136 153 174 180 168 151 99 11 1 1 0 0 1 1 2 2 1 0 0 0 0 0 0 0 0 0 0 0 0 0 0 0 0 0 0 0 0 0 0 0 0 0 0 0 0 0 0 
0 0 0 0 0 0 0 0 0 0 0 0 1 6 33 113 134 153 166 150 136 138 135 125 120 120 121 123 118 119 120 119 117 112 109 109 105 101 103 102 98 97 97 99 100 99 99 100 100 98 96 97 105 98 96 95 96 97 97 100 101 102 100 104 109 110 111 112 113 113 115 115 116 118 120 123 125 125 120 117 117 134 156 171 181 171 154 115 16 1 1 0 0 1 1 2 2 1 0 0 0 0 0 0 0 0 0 0 0 0 0 0 0 0 0 0 0 0 0 0 0 0 0 0 0 0 0 0 
0 0 0 0 0 0 0 0 0 0 0 0 2 6 50 121 139 158 158 140 131 134 136 123 115 116 118 121 116 116 118 118 115 112 109 111 106 103 101 96 96 97 96 97 98 100 99 95 97 96 95 98 99 95 94 92 91 93 95 99 101 102 102 102 107 112 111 116 117 116 116 116 115 118 120 123 120 119 117 114 113 131 153 166 182 174 159 128 26 1 1 0 0 1 1 2 2 1 0 0 0 0 0 0 0 0 0 0 0 0 0 0 0 0 0 0 0 0 0 0 0 0 0 0 0 0 0 0 
0 0 0 0 0 0 0 0 0 0 0 0 2 7 63 126 145 161 152 136 128 134 136 121 113 111 116 120 114 111 118 117 115 114 112 111 107 105 100 94 95 95 95 96 97 98 96 94 94 94 98 102 98 94 92 90 90 92 93 96 98 100 102 101 103 108 111 113 118 118 117 117 117 117 118 122 115 112 115 115 114 132 154 166 182 179 163 139 38 2 1 0 0 1 1 2 2 1 0 0 0 0 0 0 0 0 0 0 0 0 0 0 0 0 0 0 0 0 0 0 0 0 0 0 0 0 0 0 
0 0 0 0 0 0 0 0 0 0 0 0 3 9 73 130 149 159 150 140 131 134 135 123 114 109 115 116 107 110 119 117 116 114 112 113 109 106 107 99 98 96 94 96 96 95 94 94 93 93 98 101 98 93 91 92 89 90 92 94 95 99 101 100 99 106 110 116 123 122 120 119 119 119 119 122 112 109 112 111 113 137 155 167 181 182 168 149 50 3 1 0 0 1 1 2 2 1 0 0 0 0 0 0 0 0 0 0 0 0 0 0 0 0 0 0 0 0 0 0 0 0 0 0 0 0 0 0 
0 0 0 0 0 0 0 0 0 0 0 0 3 11 81 135 154 162 151 142 134 134 136 125 114 109 113 111 104 109 120 117 115 115 113 116 114 110 112 114 111 104 98 98 97 97 97 97 93 94 97 99 100 94 93 92 89 87 91 93 94 99 100 100 104 111 116 121 122 122 125 125 123 121 122 127 114 109 109 109 117 139 153 165 183 183 171 156 63 4 1 0 0 1 1 2 2 1 0 0 0 0 0 0 0 0 0 0 0 0 0 0 0 0 0 0 0 0 0 0 0 0 0 0 0 0 0 0 
0 0 0 0 0 0 0 0 0 0 0 0 4 12 86 138 158 166 154 146 139 137 137 126 117 111 112 110 103 109 123 118 117 119 121 118 110 102 98 98 95 96 102 104 102 99 97 97 96 97 100 99 104 96 93 93 89 85 89 90 93 99 104 108 103 99 97 97 101 104 111 118 129 132 128 131 126 114 109 112 124 139 151 160 181 186 174 159 78 6 1 0 0 1 1 2 2 1 0 0 0 0 0 0 0 0 0 0 0 0 0 0 0 0 0 0 0 0 0 0 0 0 0 0 0 0 0 0 
0 0 0 0 0 0 0 0 0 0 0 0 5 13 90 142 160 166 152 147 144 141 139 130 121 114 111 104 103 113 125 119 124 126 115 106 98 88 83 85 86 84 86 91 98 105 102 96 92 93 97 98 106 100 95 92 89 85 87 87 96 106 102 96 93 90 93 93 93 95 98 102 111 127 139 139 139 124 114 120 129 139 146 154 175 187 177 161 92 8 1 0 0 1 1 2 1 1 0 0 0 0 0 0 0 0 0 0 0 0 0 0 0 0 0 0 0 0 0 0 0 0 0 0 0 0 0 0 
0 0 0 0 0 0 0 0 0 0 0 0 6 14 94 146 163 165 153 147 143 141 142 137 129 120 114 103 105 121 128 126 129 114 100 93 89 85 83 87 85 84 84 85 88 94 102 102 93 93 97 99 104 104 99 94 89 85 85 92 104 93 90 90 91 95 97 97 98 101 100 98 100 112 135 151 147 137 125 127 131 134 139 148 164 185 179 164 105 11 1 0 0 1 1 1 1 1 0 0 0 0 0 0 0 0 0 0 0 0 0 0 0 0 0 0 0 0 0 0 0 0 0 0 0 0 0 0 
0 0 0 0 0 0 0 0 0 0 0 0 7 14 96 148 163 165 151 145 140 138 137 137 134 125 120 112 110 125 133 134 114 97 93 91 88 87 90 92 90 86 84 86 89 93 94 101 96 96 99 102 107 109 108 101 93 89 86 101 95 87 87 87 92 96 98 100 101 103 105 107 108 115 129 153 152 143 135 131 128 129 133 141 153 179 181 166 119 16 1 0 0 1 1 1 2 1 0 0 0 0 0 0 0 0 0 0 0 0 0 0 0 0 0 0 0 0 0 0 0 0 0 0 0 0 0 0 
0 0 0 0 0 0 0 0 0 0 0 0 7 15 97 150 167 167 146 140 137 137 133 130 131 129 123 122 129 130 139 127 101 93 91 90 89 89 90 89 89 88 86 85 87 89 95 99 101 98 104 111 117 115 119 106 97 90 89 103 87 81 81 86 93 97 99 102 103 106 108 107 113 125 131 138 146 142 142 132 126 123 127 134 144 170 180 166 129 24 1 0 0 1 1 1 1 1 0 0 0 0 0 0 0 0 0 0 0 0 0 0 0 0 0 0 0 0 0 0 0 0 0 0 0 0 0 0 
0 0 0 0 0 0 0 0 0 0 0 0 7 15 100 152 168 168 138 134 135 133 131 125 127 130 124 121 133 139 145 125 110 102 99 95 92 91 88 87 86 87 87 87 87 89 95 99 100 100 107 114 124 117 125 108 99 93 97 99 82 77 83 90 95 99 100 102 103 106 108 108 116 120 121 125 132 140 144 133 123 121 123 123 134 161 179 166 136 35 2 0 0 1 1 1 2 1 0 0 0 0 0 0 0 0 0 0 0 0 0 0 0 0 0 0 0 0 0 0 0 0 0 0 0 0 0 0 
0 0 0 0 0 0 0 0 0 0 0 0 8 16 100 153 170 169 134 133 134 130 126 120 121 122 120 122 131 133 136 126 120 112 104 100 98 94 89 88 88 90 89 88 89 90 93 98 98 100 107 116 117 113 119 116 105 100 100 92 79 80 88 93 96 97 98 98 100 103 106 109 112 113 117 119 124 137 140 133 120 115 116 116 122 150 175 167 139 44 2 0 1 1 1 2 1 1 0 0 0 0 0 0 0 0 0 0 0 0 0 0 0 0 0 0 0 0 0 0 0 0 0 0 0 0 0 0 
0 0 0 0 0 0 0 0 0 0 0 0 8 17 104 155 172 166 131 131 130 125 119 112 114 118 119 121 124 124 124 116 110 107 101 97 95 92 89 85 86 87 89 91 91 91 91 96 99 100 106 105 105 110 109 114 109 105 100 86 81 85 89 92 93 94 93 94 97 100 101 105 111 112 116 115 124 135 139 132 115 111 111 113 115 138 170 166 143 52 3 1 0 1 1 2 2 1 0 0 0 0 0 0 0 0 0 0 0 0 0 0 0 0 0 0 0 0 0 0 0 0 0 0 0 0 0 0 
0 0 0 0 0 0 0 0 0 0 0 0 8 17 104 157 173 161 125 126 121 117 110 104 107 112 116 124 123 118 118 113 102 102 96 93 90 90 89 86 84 86 88 90 90 89 91 92 98 102 111 108 102 105 104 114 109 110 105 87 85 86 89 87 85 89 92 92 95 98 101 103 107 109 110 112 124 134 135 132 118 109 106 108 108 126 156 164 145 58 3 1 1 1 1 2 2 1 0 0 0 0 0 0 0 0 0 0 0 0 0 0 0 0 0 0 0 0 0 0 0 0 0 0 0 0 0 0 
0 0 0 0 0 0 0 0 0 0 0 0 8 17 102 157 173 156 119 117 114 110 103 98 100 105 111 124 125 118 114 112 102 98 93 89 88 87 87 84 84 87 87 88 86 86 90 88 89 103 119 122 111 99 101 95 114 108 100 90 90 90 90 80 82 88 90 93 96 97 99 101 103 109 108 112 122 129 130 136 127 109 106 109 109 122 137 154 147 63 3 1 0 1 1 1 1 1 0 0 0 0 0 0 0 0 0 0 0 0 0 0 0 0 0 0 0 0 0 0 0 0 0 0 0 0 0 0 
0 0 0 0 0 0 0 0 0 0 0 0 8 17 100 156 172 147 116 112 107 105 101 99 99 101 113 119 121 118 113 111 104 96 92 91 89 89 88 87 84 84 88 90 88 90 93 87 84 99 115 121 102 91 94 83 102 116 92 94 91 89 84 82 86 89 91 92 94 96 98 99 101 104 106 114 123 131 137 138 130 110 104 106 110 120 133 154 147 65 3 0 1 1 1 1 1 1 0 0 0 0 0 0 0 0 0 0 0 0 0 0 0 0 0 0 0 0 0 0 0 0 0 0 0 0 0 0 
0 0 0 0 0 0 0 0 0 0 0 0 7 16 94 154 169 138 116 109 107 107 102 100 100 102 114 115 118 118 115 111 104 97 93 91 89 89 89 89 86 83 83 85 87 89 92 83 83 100 116 108 86 81 87 79 86 121 87 91 89 85 81 87 90 91 92 92 95 96 97 97 101 103 105 118 132 139 135 134 130 110 104 103 109 118 133 157 141 62 3 0 0 1 1 1 1 1 0 0 0 0 0 0 0 0 0 0 0 0 0 0 0 0 0 0 0 0 0 0 0 0 0 0 0 0 0 0 
0 0 0 0 0 0 0 0 0 0 0 0 6 15 86 152 167 134 114 108 106 105 102 100 99 102 114 114 115 118 120 113 103 101 94 89 91 92 90 88 87 86 80 79 81 85 89 83 88 103 109 90 84 82 88 77 79 112 104 89 85 81 81 90 90 90 92 94 96 96 96 97 102 100 102 118 138 134 128 133 128 109 103 102 107 115 132 155 136 57 3 0 0 1 1 1 1 1 0 0 0 0 0 0 0 0 0 0 0 0 0 0 0 0 0 0 0 0 0 0 0 0 0 0 0 0 0 0 
0 0 0 0 0 0 0 0 0 0 0 0 4 15 79 148 165 136 115 109 104 104 103 99 97 98 111 115 114 116 120 116 103 102 95 94 95 95 94 91 88 86 82 79 80 83 85 76 87 105 104 88 85 88 95 81 77 90 113 92 84 79 81 89 90 92 93 95 93 93 94 97 100 97 102 118 132 128 125 131 127 107 104 102 105 113 135 152 130 51 2 0 0 1 1 1 1 1 0 0 0 0 0 0 0 0 0 0 0 0 0 0 0 0 0 0 0 0 0 0 0 0 0 0 0 0 0 0 
0 0 0 0 0 0 0 0 0 0 0 0 2 14 73 143 162 141 116 108 103 102 102 102 97 94 107 116 115 116 121 115 102 100 96 95 96 95 95 93 89 85 80 79 78 80 80 78 93 107 92 85 84 93 100 86 81 78 108 101 96 86 83 89 91 92 92 92 90 91 94 98 96 95 101 117 126 125 123 129 125 106 104 101 103 112 139 147 121 45 2 0 0 1 1 1 1 1 0 0 0 0 0 0 0 0 0 0 0 0 0 0 0 0 0 0 0 0 0 0 0 0 0 0 0 0 0 0 
0 0 0 0 0 0 0 0 0 6 5 0 0 12 63 136 157 142 117 106 101 101 102 103 98 92 102 115 116 116 120 112 103 99 98 95 95 93 93 92 91 89 84 79 85 95 91 88 97 98 88 83 83 97 99 89 84 80 92 109 111 107 101 96 94 94 97 94 90 92 94 97 93 94 102 115 122 123 127 130 124 105 101 99 100 113 140 140 110 38 2 0 0 1 1 1 1 1 0 0 0 0 0 0 0 0 0 0 0 0 0 0 0 0 0 0 0 0 0 0 0 0 0 0 0 0 0 0 
0 0 0 0 0 0 0 0 0 3 9 3 1 9 53 127 155 141 117 106 99 100 102 103 97 91 103 118 117 115 118 113 102 98 98 96 93 92 91 92 98 98 94 87 90 94 98 92 103 91 87 83 84 95 94 91 89 85 87 117 120 120 111 101 96 93 93 96 92 90 89 92 93 93 102 117 121 121 126 132 129 107 97 98 99 113 142 134 101 34 2 0 0 1 1 1 1 1 0 0 0 0 0 0 0 0 0 0 0 0 0 0 0 0 0 0 0 0 0 0 0 0 0 0 0 0 0 0 
0 0 0 0 0 0 0 0 0 2 4 9 3 8 42 117 149 140 113 103 96 97 102 103 99 91 103 118 117 115 119 116 104 99 99 97 93 93 92 95 98 97 92 95 104 109 103 97 106 83 85 82 84 97 93 85 90 89 95 120 124 115 108 111 111 107 104 100 94 91 89 94 99 103 106 123 127 123 126 135 136 116 97 97 100 120 142 129 93 27 1 0 0 1 1 1 1 1 0 0 0 0 0 0 0 0 0 0 0 0 0 0 0 0 0 0 0 0 0 0 0 0 0 0 0 0 0 0 
0 0 0 0 0 0 0 0 0 0 3 10 4 7 32 103 144 143 113 104 101 99 101 101 101 94 106 116 118 120 125 123 115 103 100 97 93 94 99 101 102 102 102 105 99 99 95 106 108 83 82 82 83 103 93 85 86 84 90 118 133 115 105 108 114 124 136 131 124 121 123 122 126 127 132 136 125 120 128 137 138 127 103 98 108 129 142 120 85 18 1 0 1 8 5 1 1 1 0 0 0 0 0 0 0 0 0 0 0 0 0 0 0 0 0 0 0 0 0 0 0 0 0 0 0 0 0 0 
0 0 0 0 0 0 0 0 0 0 2 10 5 7 25 91 138 147 118 110 106 98 97 101 101 100 109 115 118 119 125 124 125 128 118 111 111 113 116 114 112 106 92 91 100 100 97 105 107 81 82 86 86 101 92 80 81 82 89 123 133 111 105 106 111 123 146 151 145 147 151 148 143 131 132 136 135 128 128 137 138 128 119 111 108 138 135 116 78 12 4 2 5 3 2 1 1 1 0 0 0 0 0 0 0 0 0 0 0 0 0 0 0 0 0 0 0 0 0 0 0 0 0 0 0 0 0 0 
0 0 0 0 0 0 0 0 0 0 1 9 6 8 19 81 131 152 133 112 106 96 94 100 105 112 112 116 120 120 120 121 117 121 125 127 128 120 116 111 110 104 100 100 100 95 94 104 108 88 85 92 90 105 94 79 81 88 99 128 131 114 106 108 112 127 145 149 147 153 148 143 137 127 132 129 140 143 138 136 138 132 126 128 143 141 120 113 68 9 3 2 5 2 1 1 1 1 0 0 0 0 0 0 0 0 0 0 0 0 0 0 0 0 0 0 0 0 0 0 0 0 0 0 0 0 0 0 
0 0 0 0 0 0 0 0 0 0 1 7 6 9 14 68 122 149 148 117 107 96 98 110 118 115 118 123 120 121 125 130 132 130 124 127 124 122 122 119 112 104 96 93 93 91 94 100 110 100 88 88 91 106 96 83 88 97 106 118 119 116 113 114 119 131 144 145 145 146 141 141 146 148 145 147 149 154 159 155 149 148 144 152 163 139 110 108 53 7 3 3 3 2 1 1 1 1 0 0 0 0 0 0 0 0 0 0 0 0 0 0 0 0 0 0 0 0 0 0 0 0 0 0 0 0 0 0 
0 0 0 0 0 0 0 0 0 0 0 7 8 9 13 55 115 145 153 132 113 111 116 118 125 124 125 133 129 121 133 143 148 154 153 142 139 138 128 113 102 95 96 91 87 87 95 110 111 94 94 94 89 108 95 88 89 101 108 109 116 108 114 116 120 134 151 153 154 154 151 154 154 146 133 140 140 150 161 165 170 174 169 176 179 129 121 104 32 7 4 3 2 1 1 1 1 1 0 0 0 0 0 0 0 0 0 0 0 0 0 0 0 0 0 0 0 0 0 0 0 0 0 0 0 0 0 0 
0 0 0 0 0 0 0 0 0 0 0 8 10 8 9 37 109 142 151 147 135 146 136 135 140 140 140 136 130 129 138 151 156 160 156 146 149 145 134 114 107 104 99 93 91 91 106 113 99 89 92 97 96 118 101 87 85 95 103 104 112 112 110 116 118 124 135 142 149 154 150 147 141 132 134 134 138 147 158 167 172 178 183 180 161 123 120 85 16 6 5 3 2 1 1 1 1 1 0 0 0 0 0 0 0 0 0 0 0 0 0 0 0 0 0 0 0 0 0 0 0 0 0 0 0 0 0 0 
0 0 0 0 0 0 0 0 0 0 0 5 10 7 8 12 62 128 148 148 152 170 176 160 158 154 143 138 137 140 152 157 156 155 159 151 146 146 139 118 110 109 108 101 97 95 104 111 102 91 93 101 99 114 117 95 84 89 95 104 107 105 113 116 117 118 122 133 136 136 127 132 133 128 134 142 143 146 152 158 166 168 169 166 146 120 117 94 18 6 7 4 2 1 1 1 1 1 0 0 0 0 0 0 0 0 0 0 0 0 0 0 0 0 0 0 0 0 0 0 0 0 0 0 0 0 0 0 
0 0 0 0 0 0 0 0 0 0 0 6 8 5 6 10 37 116 150 150 156 172 172 170 166 163 159 151 136 129 140 150 159 158 159 156 150 151 137 112 105 109 110 106 101 100 111 108 103 96 95 103 105 119 117 100 85 82 88 97 103 101 100 112 117 117 122 130 133 125 121 122 117 126 136 143 139 141 140 146 155 168 157 140 121 121 118 63 8 5 7 5 2 1 1 1 1 0 0 0 0 0 0 0 0 0 0 0 0 0 0 0 0 0 0 0 0 0 0 0 0 0 0 0 0 0 0 0 
0 0 0 0 0 0 0 0 0 0 0 6 6 5 4 9 22 92 145 148 149 156 159 149 164 166 161 151 141 135 131 137 146 157 158 155 150 144 130 118 108 107 110 111 100 98 111 101 97 100 100 98 92 112 120 108 85 84 92 96 103 110 109 109 103 102 116 128 130 131 131 122 124 139 146 148 143 147 139 139 146 157 135 123 125 125 109 32 6 4 6 6 2 1 1 1 1 0 0 0 0 0 0 0 0 0 0 0 0 0 0 0 0 0 0 0 0 0 0 0 0 0 0 0 0 0 0 0 
0 0 0 0 0 0 0 0 0 0 0 5 4 4 4 8 17 62 135 148 144 138 148 148 142 150 151 145 141 144 133 127 134 140 143 146 144 136 129 122 106 103 104 100 99 103 115 101 105 112 108 102 94 101 118 120 94 93 99 95 104 118 119 123 108 92 94 103 109 116 123 120 123 142 152 156 153 150 142 140 134 137 132 118 118 120 78 15 7 6 7 4 3 2 1 1 1 0 0 0 0 0 0 0 0 0 0 0 0 0 0 0 0 0 0 0 0 0 0 0 0 0 0 0 0 0 0 0 
0 0 0 0 0 0 0 0 0 0 0 4 4 4 3 8 15 34 113 137 134 132 142 146 144 138 133 132 137 149 149 132 120 123 137 143 140 132 127 108 95 93 100 106 104 108 125 110 117 118 116 110 99 100 123 124 106 101 105 106 107 121 124 126 119 96 88 88 97 106 113 126 137 140 147 156 159 155 150 146 142 138 121 101 103 112 43 11 7 7 6 2 3 3 1 1 1 0 0 0 0 0 0 0 0 0 0 0 0 0 0 0 0 0 0 0 0 0 0 0 0 0 0 0 0 0 0 0 
0 0 0 0 0 0 0 0 0 0 1 3 4 4 3 9 15 18 82 123 123 130 137 145 139 137 134 129 132 147 152 139 119 116 132 142 142 138 119 96 85 97 102 107 108 113 123 123 121 120 129 129 114 111 137 132 115 107 113 116 112 126 127 127 122 106 88 85 95 112 118 133 132 129 140 150 159 161 173 163 146 124 107 86 95 86 21 11 6 7 6 2 3 3 1 1 1 0 0 0 0 0 0 0 0 0 0 0 0 0 0 0 0 0 0 0 0 0 0 0 0 0 0 0 0 0 0 0 
0 0 0 0 0 0 0 0 0 0 1 3 4 4 2 6 13 13 48 118 130 123 136 149 149 143 140 136 141 145 148 134 118 118 118 123 122 116 107 97 91 101 103 110 119 124 125 130 132 134 142 144 148 152 152 140 137 138 132 128 128 141 141 136 127 109 93 91 104 122 116 113 126 122 134 147 160 170 179 169 136 114 96 88 102 57 13 12 7 7 6 3 2 3 1 1 1 0 0 0 0 0 0 0 0 0 0 0 0 0 0 0 0 0 0 0 0 0 0 0 0 0 0 0 0 0 0 0 
0 0 0 0 0 0 0 0 0 0 1 2 5 4 2 5 11 14 26 101 124 113 124 134 156 156 153 145 148 147 148 140 130 126 114 117 109 96 91 104 106 112 112 117 128 139 138 141 148 150 151 154 163 171 174 165 158 153 144 142 147 161 164 152 135 124 120 117 121 125 111 112 124 121 124 148 158 176 172 161 128 103 84 86 97 32 11 12 6 6 6 2 3 3 1 1 1 0 0 0 0 0 0 0 0 0 0 0 0 0 0 0 0 0 0 0 0 0 0 0 0 0 0 0 0 0 0 0 
0 0 0 0 0 0 0 0 0 0 1 3 5 3 2 5 10 13 15 68 118 118 111 121 149 163 161 153 147 144 148 146 133 129 121 119 112 103 101 108 134 132 130 130 136 147 152 150 151 143 142 145 146 147 152 155 151 144 137 138 144 160 169 166 151 144 142 137 143 119 105 106 114 119 114 141 155 177 162 146 127 114 95 100 81 19 9 9 6 6 5 3 3 3 1 1 1 0 0 0 0 0 0 0 0 0 0 0 0 0 0 0 0 0 0 0 0 0 0 0 0 0 0 0 0 0 0 0 
0 0 0 0 0 0 0 0 0 0 1 4 6 3 2 5 9 10 12 41 94 113 112 115 135 155 162 162 148 145 144 147 138 128 118 119 118 119 124 129 137 153 155 149 152 152 153 159 152 147 142 147 145 150 147 148 147 148 141 142 145 155 169 168 169 163 153 156 147 113 98 97 105 117 123 140 158 172 152 129 111 102 108 98 66 16 9 8 6 4 4 3 4 3 2 1 1 0 0 0 0 0 0 0 0 0 0 0 0 0 0 0 0 0 0 0 0 0 0 0 0 0 0 0 0 0 0 0 
0 0 0 0 0 0 0 0 0 0 1 5 13 9 3 4 8 9 11 28 82 114 121 109 120 138 159 162 153 140 139 140 134 122 110 110 112 116 122 130 139 156 167 169 164 160 161 160 152 150 148 156 158 157 152 145 148 152 138 139 141 149 159 165 170 163 155 157 147 110 89 96 111 124 144 154 161 165 148 127 97 86 98 98 58 16 8 6 6 4 4 4 4 3 2 1 1 0 0 0 0 0 0 0 0 0 0 0 0 0 0 0 0 0 0 0 0 0 0 0 0 0 0 0 0 0 0 0 
0 0 0 0 0 0 0 0 0 0 0 4 12 13 9 7 8 10 13 21 65 101 117 115 113 118 146 150 163 141 129 128 132 111 101 103 106 113 117 119 128 146 162 166 167 163 166 162 158 157 157 165 164 162 155 134 136 142 130 127 133 145 147 166 172 169 165 162 148 110 93 97 108 120 159 174 176 172 153 107 87 85 98 92 39 15 5 4 6 4 3 4 4 4 2 1 1 0 0 0 0 0 0 0 0 0 0 0 0 0 0 0 0 0 0 0 0 0 0 0 0 0 0 0 0 0 0 0 
0 0 0 0 0 0 0 0 0 0 0 3 10 11 9 8 9 12 16 16 34 85 116 116 102 113 138 152 166 149 139 131 133 112 94 100 105 109 109 109 115 141 160 161 162 159 157 153 154 155 160 171 165 163 142 118 119 127 128 125 132 149 153 163 181 175 168 161 146 118 97 98 110 134 163 165 173 159 143 96 78 79 80 64 20 14 7 5 5 5 5 6 7 4 3 1 1 0 0 0 0 0 0 0 0 0 0 0 0 0 0 0 0 0 0 0 0 0 0 0 0 0 0 0 0 0 0 0 
0 0 0 0 0 0 0 0 0 0 0 2 11 10 10 9 9 10 13 15 17 50 106 109 107 107 124 150 166 166 155 140 129 124 103 94 95 96 99 106 124 145 155 157 156 152 150 146 146 142 153 154 143 161 155 130 125 129 128 123 140 160 152 169 175 175 168 166 162 132 123 119 134 147 147 146 127 107 105 77 66 87 91 36 12 9 9 7 5 6 6 7 12 6 2 1 1 0 0 0 0 0 0 0 0 0 0 0 0 0 0 0 0 0 0 0 0 0 0 0 0 0 0 0 0 0 0 0 
0 0 0 0 0 0 0 0 0 0 0 0 9 11 6 6 6 5 9 15 20 28 71 98 93 91 112 145 153 166 166 148 133 133 119 104 103 107 113 132 139 165 177 170 170 164 161 165 171 169 168 158 160 177 180 164 155 157 157 153 161 166 178 184 174 173 166 178 171 165 146 143 141 139 115 95 90 88 93 76 94 97 53 18 10 2 2 4 5 5 5 7 9 5 1 1 1 0 0 0 0 0 0 0 0 0 0 0 0 0 0 0 0 0 0 0 0 0 0 0 0 0 0 0 0 0 0 0 
0 0 0 0 0 0 0 0 0 0 0 0 3 7 5 3 3 3 5 11 17 21 37 81 86 75 91 104 102 142 148 149 143 140 129 111 113 120 131 141 167 180 185 188 191 196 187 195 189 179 179 180 179 176 176 168 166 173 178 180 185 188 201 201 196 204 185 190 148 142 148 140 107 86 76 83 83 83 86 74 71 47 29 22 13 2 0 1 2 3 4 7 7 1 1 1 1 0 0 0 0 0 0 0 0 0 0 0 0 0 0 0 0 0 0 0 0 0 0 0 0 0 0 0 0 0 0 0 
0 0 0 0 0 0 0 0 0 0 0 0 0 3 3 2 1 0 1 7 13 20 25 45 79 83 65 55 66 76 96 109 134 135 127 124 118 131 149 167 173 172 178 181 186 192 188 184 182 170 163 168 168 164 160 158 156 159 163 167 167 186 198 181 170 185 176 171 156 139 124 104 88 77 74 90 92 89 70 48 41 39 36 26 18 0 0 0 1 1 2 7 7 1 1 1 1 0 0 0 0 0 0 0 0 0 0 0 0 0 0 0 0 0 0 0 0 0 0 0 0 0 0 0 0 0 0 0 
0 0 0 0 0 0 0 0 0 0 0 0 0 2 5 4 4 3 2 4 10 14 19 22 36 51 36 43 67 63 64 62 80 84 81 92 82 74 76 76 91 119 140 147 137 135 135 119 128 104 96 108 116 117 114 110 96 91 106 101 98 113 102 136 131 154 124 82 63 64 58 65 62 55 56 77 83 83 50 29 28 26 19 7 3 1 3 3 2 2 2 8 5 1 1 1 1 0 0 0 0 0 0 0 0 0 0 0 0 0 0 0 0 0 0 0 0 0 0 0 0 0 0 0 0 0 0 0 
0 0 0 0 0 0 0 0 0 0 0 0 0 0 3 3 3 3 2 1 6 10 13 16 22 22 23 33 66 65 60 62 62 64 61 66 69 60 68 70 82 88 83 82 90 95 82 70 76 78 60 74 89 90 90 89 73 61 74 74 82 99 87 79 77 94 90 99 106 100 65 62 61 55 56 76 84 81 47 29 28 25 16 6 3 1 2 1 2 2 4 5 2 0 1 1 1 0 0 0 0 0 0 0 0 0 0 0 0 0 0 0 0 0 0 0 0 0 0 0 0 0 0 0 0 0 0 0 
0 0 0 0 0 0 0 0 0 0 0 0 0 0 0 0 0 1 0 0 3 9 10 15 21 26 27 36 69 74 65 64 68 70 66 66 76 94 120 127 138 140 109 100 102 104 96 98 105 89 75 90 96 96 95 93 88 78 96 107 106 116 102 94 117 141 105 92 103 92 86 85 78 74 75 87 91 83 49 33 29 24 14 9 1 0 0 0 1 1 1 1 0 0 1 1 1 0 0 0 0 0 0 0 0 0 0 0 0 0 0 0 0 0 0 0 0 0 0 0 0 0 0 0 0 0 0 0 
0 0 0 0 0 0 0 0 0 0 0 0 0 0 0 0 0 0 0 0 0 4 4 8 15 29 34 44 75 87 79 74 78 85 85 88 101 117 122 141 155 168 156 134 141 159 159 157 145 123 116 124 123 121 118 123 120 113 119 139 146 152 145 150 157 160 129 130 107 125 119 111 95 87 84 85 83 77 50 37 25 17 10 8 1 0 0 0 0 0 0 0 0 0 0 1 1 0 0 0 0 0 0 0 0 0 0 0 0 0 0 0 0 0 0 0 0 0 0 0 0 0 0 0 0 0 0 0 
0 0 0 0 0 0 0 0 0 0 0 0 0 0 0 0 0 0 0 0 0 2 3 5 9 23 29 38 62 78 73 73 83 92 96 95 100 113 125 117 160 169 169 159 171 175 172 180 159 164 164 157 161 163 161 156 156 152 152 154 153 169 166 158 161 155 151 129 143 147 126 127 99 77 61 70 77 57 32 24 17 10 6 2 0 0 0 0 0 0 0 0 0 0 0 0 0 1 0 0 0 0 0 0 0 0 0 0 0 0 0 0 0 0 0 0 0 0 0 0 0 0 0 0 0 0 0 0 
0 0 0 0 0 0 0 0 0 0 0 0 0 0 0 0 0 0 0 0 0 0 2 3 8 17 28 35 53 75 76 71 74 76 74 70 77 91 104 106 125 127 119 106 127 136 152 169 162 152 144 136 140 135 138 131 136 134 133 131 139 145 128 134 135 124 133 140 149 150 113 71 49 51 61 82 80 47 26 22 14 8 6 1 1 0 1 1 1 1 1 2 1 2 3 2 2 2 0 0 0 0 0 0 0 0 0 0 0 0 0 0 0 0 0 0 0 0 0 0 0 0 0 0 0 0 0 0 
0 0 0 0 0 0 0 0 0 0 0 0 0 0 0 0 0 0 0 0 0 0 4 7 9 15 20 22 33 54 68 67 65 66 57 56 55 70 94 114 111 113 108 95 100 116 131 134 122 122 117 97 107 100 103 92 103 106 106 107 112 129 127 105 118 127 136 120 131 119 98 68 53 54 72 100 86 47 24 18 17 13 7 1 0 0 0 1 0 0 0 1 1 1 2 2 1 0 0 0 0 0 0 0 0 0 0 0 0 0 0 0 0 0 0 0 0 0 0 0 0 0 0 0 0 0 0 0 
0 0 0 0 0 0 0 0 0 0 0 0 0 0 0 0 0 0 0 0 0 0 2 6 9 13 19 21 25 45 63 74 73 69 58 51 53 65 86 100 99 100 100 103 109 124 132 130 118 114 107 88 94 93 95 90 103 110 113 107 105 115 107 93 86 106 123 126 123 107 92 67 54 58 81 107 87 49 25 19 18 12 7 1 0 0 0 1 1 0 0 1 1 1 2 1 1 0 0 0 0 0 0 0 0 0 0 0 0 0 0 0 0 0 0 0 0 0 0 0 0 0 0 0 0 0 0 0 
0 0 0 0 0 0 0 0 0 0 0 0 0 0 0 0 0 0 0 0 0 0 1 4 9 10 16 21 23 39 58 75 77 72 62 53 48 57 73 97 93 86 90 92 101 111 120 130 127 116 111 99 101 99 97 92 104 103 115 119 114 122 119 106 102 97 110 117 108 95 78 60 55 64 89 111 86 51 25 19 17 11 6 0 0 0 0 0 0 0 0 1 1 1 2 1 1 0 0 0 0 0 0 0 0 0 0 0 0 0 0 0 0 0 0 0 0 0 0 0 0 0 0 0 0 0 0 0 
0 0 0 0 0 0 0 0 0 0 0 0 0 0 0 0 0 0 0 0 0 0 0 3 6 9 13 19 22 33 49 70 78 74 67 57 51 56 59 66 72 78 87 92 98 106 113 121 135 127 117 107 105 103 97 95 101 99 108 118 121 141 131 110 102 94 99 107 109 98 80 64 58 67 95 112 82 51 26 18 15 11 4 1 0 0 0 1 1 0 0 1 1 1 2 1 1 0 0 0 0 0 0 0 0 0 0 0 0 0 0 0 0 0 0 0 0 0 0 0 0 0 0 0 0 0 0 0 
0 0 0 0 0 0 0 0 0 0 0 0 0 0 0 0 0 0 0 0 0 0 0 0 5 8 11 16 20 28 45 62 81 79 71 63 57 52 52 59 66 74 87 92 101 104 104 111 126 118 114 106 101 102 95 95 97 99 105 112 120 126 121 106 103 103 98 92 95 95 81 72 65 71 95 108 80 52 26 17 15 9 2 1 1 0 0 1 1 1 1 1 1 1 2 1 1 0 0 0 0 0 0 0 0 0 0 0 0 0 0 0 0 0 0 0 0 0 0 0 0 0 0 0 0 0 0 0 
0 0 0 0 0 0 0 0 0 0 0 0 0 0 0 0 0 0 0 0 0 0 0 0 2 5 9 13 18 25 42 54 79 77 76 70 63 55 54 58 64 70 85 98 106 103 96 95 103 108 113 105 96 98 96 93 95 101 106 106 114 111 109 102 106 107 103 87 78 74 68 68 71 80 97 105 78 45 20 16 15 8 2 1 1 0 0 0 1 0 0 1 1 1 2 1 1 0 0 0 0 0 0 0 0 0 0 0 0 0 0 0 0 0 0 0 0 0 0 0 0 0 0 0 0 0 0 0 
0 0 0 0 0 0 0 0 0 0 0 0 0 0 0 0 0 0 0 0 0 0 0 0 0 4 6 12 15 19 33 53 67 73 78 75 67 60 55 54 60 69 84 94 100 98 95 89 88 96 110 100 91 90 93 96 96 100 99 103 108 107 100 91 95 97 97 84 74 66 62 70 79 85 101 87 48 23 17 16 16 8 1 1 1 0 0 0 1 0 0 1 1 1 2 1 0 0 0 0 0 0 0 0 0 0 0 0 0 0 0 0 0 0 0 0 0 0 0 0 0 0 0 0 0 0 0 0 
0 0 0 0 0 0 0 0 0 0 0 0 0 0 0 0 0 0 0 0 0 0 0 0 0 3 4 8 14 17 21 32 41 46 72 79 69 64 58 51 56 67 78 80 90 94 94 88 86 96 112 104 95 94 98 98 99 100 100 99 101 97 93 88 91 89 85 76 74 64 61 73 81 91 99 44 18 17 17 18 16 8 1 1 1 0 0 0 1 0 0 1 1 1 2 1 0 0 0 0 0 0 0 0 0 0 0 0 0 0 0 0 0 0 0 0 0 0 0 0 0 0 0 0 0 0 0 0 
0 0 0 0 0 0 0 0 0 0 0 0 0 0 0 0 0 0 0 0 0 0 0 0 0 0 5 5 12 17 19 20 18 17 31 77 79 73 65 62 58 61 68 72 79 81 87 88 90 100 101 100 94 91 88 93 104 101 94 92 98 96 96 89 86 84 73 71 71 68 70 80 87 95 71 23 15 15 17 18 14 6 1 1 1 0 0 0 1 0 0 1 1 1 2 1 0 0 0 0 0 0 0 0 0 0 0 0 0 0 0 0 0 0 0 0 0 0 0 0 0 0 0 0 0 0 0 0 
0 0 0 0 0 0 0 0 0 0 0 0 0 0 0 0 0 0 0 0 0 0 0 0 0 0 2 5 8 13 18 18 18 18 13 38 76 80 74 69 66 66 68 72 79 78 81 87 100 104 95 96 98 95 92 92 103 104 94 90 98 100 105 97 91 83 80 78 75 75 81 88 90 77 35 19 14 15 17 17 12 6 1 1 1 0 0 0 0 0 0 0 1 1 2 1 0 0 0 0 0 0 0 0 0 0 0 0 0 0 0 0 0 0 0 0 0 0 0 0 0 0 0 0 0 0 0 0 
0 0 0 0 0 0 0 0 0 0 0 0 0 0 0 0 0 0 0 0 0 0 0 0 0 0 0 3 7 9 16 18 17 19 14 13 37 71 81 80 76 73 74 79 88 88 87 86 94 102 96 98 98 97 95 103 113 111 107 103 104 110 106 96 93 88 87 87 86 89 93 93 75 37 24 17 13 15 17 15 11 6 1 0 1 0 0 0 0 0 0 0 1 1 2 1 0 0 0 0 0 0 0 0 0 0 0 0 0 0 0 0 0 0 0 0 0 0 0 0 0 0 0 0 0 0 0 0 
0 0 0 0 0 0 0 0 0 0 0 0 0 0 0 0 0 0 0 0 0 0 0 0 0 0 0 2 5 7 12 17 18 18 14 13 17 33 62 79 83 86 85 86 99 99 91 88 89 103 102 97 98 97 97 106 110 109 110 107 100 102 105 101 97 98 101 99 96 95 91 71 36 26 23 17 14 16 16 14 10 5 1 1 1 0 0 0 0 1 0 0 1 1 2 1 0 0 0 0 0 0 0 0 0 0 0 0 0 0 0 0 0 0 0 0 0 0 0 0 0 0 0 0 0 0 0 0 
0 0 0 0 0 0 0 0 0 0 0 0 0 0 0 0 0 0 0 0 0 0 0 0 0 0 0 1 4 7 9 15 17 19 15 12 16 22 29 51 74 87 92 97 105 109 101 97 100 108 102 95 94 102 105 110 111 108 113 115 108 104 113 108 106 107 109 107 99 86 61 35 28 26 22 17 15 15 15 13 10 5 1 0 1 0 0 0 1 1 0 0 1 1 2 1 0 0 0 0 0 0 0 0 0 0 0 0 0 0 0 0 0 0 0 0 0 0 0 0 0 0 0 0 0 0 0 0 
0 0 0 0 0 0 0 0 0 0 0 0 0 0 0 0 0 0 0 0 0 0 0 0 0 0 0 0 1 7 7 13 16 18 15 12 13 20 25 29 38 61 82 93 106 112 108 105 106 107 107 102 103 103 101 103 105 107 112 114 112 106 113 115 112 108 110 102 81 50 30 29 28 24 21 16 14 14 14 12 9 5 1 0 1 0 0 0 1 1 0 0 1 1 2 1 0 0 0 0 0 0 0 0 0 0 0 0 0 0 0 0 0 0 0 0 0 0 0 0 0 0 0 0 0 0 0 0 
0 0 0 0 0 0 0 0 0 0 0 0 0 0 0 0 0 0 0 0 0 0 0 0 0 0 0 0 0 7 6 10 14 18 15 12 12 20 25 29 31 33 41 60 85 97 99 100 99 105 111 111 107 101 98 99 100 105 114 107 109 113 116 113 109 100 86 62 43 37 29 28 26 23 18 16 13 15 14 12 9 4 1 0 0 0 0 0 0 0 0 1 1 1 2 1 0 0 0 0 0 0 0 0 0 0 0 0 0 0 0 0 0 0 0 0 0 0 0 0 0 0 0 0 0 0 0 0 
0 0 0 0 0 0 0 0 0 0 0 0 0 0 0 0 0 0 0 0 0 0 0 0 0 0 0 0 0 4 6 9 13 17 16 13 12 19 25 28 31 33 32 37 50 68 81 88 90 93 103 107 103 101 102 103 104 106 114 113 114 106 105 99 90 70 53 47 41 36 28 28 26 23 17 14 14 14 14 12 9 3 1 0 1 1 0 0 0 0 0 0 1 1 2 1 0 0 0 0 0 0 0 0 0 0 0 0 0 0 0 0 0 0 0 0 0 0 0 0 0 0 0 0 0 0 0 0 
