P2
128 99
228
0 0 0 0 0 0 0 0 0 0 0 0 0 0 0 0 0 0 0 0 0 0 0 0 0 0 0 0 0 0 0 0 0 0 0 0 0 0 0 0 0 0 0 0 0 0 0 0 0 0 0 0 0 0 0 0 0 0 0 0 0 0 0 0 0 0 0 0 0 0 0 0 0 0 0 0 0 0 0 0 0 0 0 0 0 0 0 0 0 0 0 0 0 0 0 0 0 0 0 0 0 0 0 0 0 0 0 0 0 0 0 0 0 0 0 0 0 0 0 0 0 0 0 0 0 0 0 0 
0 0 0 0 0 0 0 0 0 0 0 0 0 0 0 0 0 0 0 0 0 0 0 0 0 0 0 0 0 0 0 0 0 0 0 0 0 0 0 0 0 0 0 0 0 0 0 0 0 0 0 0 0 0 0 0 0 0 0 0 0 0 0 0 0 0 0 0 0 0 0 0 0 0 0 0 0 0 0 0 0 0 0 0 0 0 0 0 0 0 0 0 0 0 0 0 0 0 0 0 0 0 0 0 0 0 0 0 0 0 0 0 0 0 0 0 0 0 0 0 0 0 0 0 0 0 0 0 
0 0 0 0 0 0 0 0 0 0 0 0 0 0 0 0 0 0 0 0 0 0 0 0 0 0 0 0 0 0 0 0 0 0 0 0 0 0 0 0 0 0 0 0 0 0 0 0 0 0 0 0 2 6 3 0 0 0 0 0 0 0 0 0 0 0 0 0 0 0 0 0 0 0 0 0 0 0 0 0 0 0 0 0 0 0 0 0 0 0 0 0 0 0 0 0 0 0 0 0 0 0 0 0 0 0 0 0 0 0 0 0 0 0 0 0 0 0 0 0 0 0 0 0 0 0 0 0 
0 0 0 0 0 0 0 0 0 0 0 0 0 0 0 0 0 0 0 0 0 0 0 0 0 0 0 0 0 0 0 0 0 0 0 0 0 0 0 0 0 0 0 0 3 17 18 15 14 18 23 27 30 29 29 27 23 17 13 11 8 0 0 0 0 0 0 0 0 0 0 0 0 0 0 0 0 0 0 0 0 0 0 0 0 0 0 0 0 0 0 0 0 0 0 0 0 0 0 0 0 0 0 0 0 0 0 0 0 0 0 0 0 0 0 0 0 0 0 0 0 0 0 0 0 0 0 0 
0 0 0 0 0 0 0 0 0 0 0 0 0 0 0 0 0 0 0 0 0 0 0 0 0 0 0 0 0 0 0 0 0 0 0 0 0 0 0 0 5 17 21 18 19 34 60 84 102 116 125 129 128 127 129 127 118 102 77 54 38 25 18 16 6 0 0 0 0 0 0 0 0 0 0 0 0 0 0 0 0 0 0 0 0 0 0 0 0 0 0 0 0 0 0 0 0 0 0 0 0 0 0 0 0 0 0 0 0 0 0 0 0 0 0 0 0 0 0 0 0 0 0 0 0 0 0 0 
0 0 0 0 0 0 0 0 0 0 0 0 0 0 0 0 0 0 0 0 0 0 0 0 0 0 0 0 0 0 0 0 0 0 0 0 0 0 8 18 18 26 43 75 112 138 145 142 147 156 160 161 159 155 155 156 157 155 149 140 126 108 76 47 27 17 16 3 0 0 0 0 0 0 0 0 0 0 0 0 0 0 0 0 0 0 0 0 0 0 0 0 0 0 0 0 0 0 0 0 0 0 0 0 0 0 0 0 0 0 0 0 0 0 0 0 0 0 0 0 0 0 0 0 0 0 0 0 
0 0 0 0 0 0 0 0 0 0 0 0 0 0 0 0 0 0 0 0 0 0 0 0 0 0 0 0 0 0 0 0 0 0 0 0 7 22 18 30 55 105 142 146 150 169 179 177 170 167 165 168 168 170 172 171 171 169 162 159 159 159 147 127 105 69 39 21 16 4 0 0 0 0 0 0 0 0 0 0 0 0 0 0 0 0 0 0 0 0 0 0 0 0 0 0 0 0 0 0 0 0 0 0 0 0 0 0 0 0 0 0 0 0 0 0 0 0 0 0 0 0 0 0 0 0 0 0 
0 0 0 0 0 0 0 0 0 0 0 0 0 0 0 0 0 0 0 0 0 0 0 0 0 0 0 0 0 0 0 0 0 0 8 24 27 33 63 122 147 145 167 179 175 172 163 151 159 178 196 208 207 201 202 210 208 202 194 184 177 166 159 159 158 144 118 87 43 23 15 3 0 0 0 0 0 0 0 0 0 0 0 0 0 0 0 0 0 0 0 0 0 0 0 0 0 0 0 0 0 0 0 0 0 0 0 0 0 0 0 0 0 0 0 0 0 0 0 0 0 0 0 0 0 0 0 0 
0 0 0 0 0 0 0 0 0 0 0 0 0 0 0 0 0 0 0 0 0 0 0 0 0 0 0 0 0 0 0 0 9 35 27 26 59 122 142 146 167 172 172 161 154 172 182 186 191 190 188 183 183 178 179 180 176 187 208 223 220 201 182 171 162 154 153 148 121 87 50 22 14 0 0 0 0 0 0 0 0 0 0 0 0 0 0 0 0 0 0 0 0 0 0 0 0 0 0 0 0 0 0 0 0 0 0 0 0 0 0 0 0 0 0 0 0 0 0 0 0 0 0 0 0 0 0 0 
0 0 0 0 0 0 0 0 0 0 0 0 0 0 0 0 0 0 0 0 0 0 0 0 0 0 0 0 0 0 0 31 29 20 40 110 145 142 162 166 161 160 157 166 184 177 164 143 122 127 139 152 151 144 142 141 142 153 164 182 205 214 222 216 196 175 163 153 151 144 116 80 30 18 5 0 0 0 0 0 0 0 0 0 0 0 0 0 0 0 0 0 0 0 0 0 0 0 0 0 0 0 0 0 0 0 0 0 0 0 0 0 0 0 0 0 0 0 0 0 0 0 0 0 0 0 0 0 
0 0 0 0 0 0 0 0 0 0 0 0 0 0 0 0 0 0 0 0 0 0 0 0 0 0 0 0 0 16 33 18 22 81 144 141 159 163 155 157 177 194 200 186 174 163 145 125 116 122 111 106 103 105 124 128 122 118 123 135 156 171 183 204 219 222 210 185 164 152 146 135 102 52 20 9 0 0 0 0 0 0 0 0 0 0 0 0 0 0 0 0 0 0 0 0 0 0 0 0 0 0 0 0 0 0 0 0 0 0 0 0 0 0 0 0 0 0 0 0 0 0 0 0 0 0 0 0 
0 0 0 0 0 0 0 0 0 0 0 0 0 0 0 0 0 0 0 0 0 0 0 0 0 0 0 1 28 24 14 41 126 144 146 158 152 152 178 209 210 182 159 140 127 116 115 121 127 120 94 93 85 82 110 126 129 129 129 124 125 141 150 157 177 194 212 219 213 181 163 148 144 120 74 23 11 0 0 0 0 0 0 0 0 0 0 0 0 0 0 0 0 0 0 0 0 0 0 0 0 0 0 0 0 0 0 0 0 0 0 0 0 0 0 0 0 0 0 0 0 0 0 0 0 0 0 0 
0 0 0 0 0 0 0 0 0 0 0 0 0 0 0 0 0 0 0 0 0 0 0 0 0 0 6 33 20 15 68 149 145 152 151 149 173 207 211 179 148 129 123 124 116 118 122 118 118 100 98 101 100 101 110 120 115 122 126 124 122 125 130 144 154 156 172 194 208 216 201 170 156 149 128 86 26 15 0 0 0 0 0 0 0 0 0 0 0 0 0 0 0 0 0 0 0 0 0 0 0 0 0 0 0 0 0 0 0 0 0 0 0 0 0 0 0 0 0 0 0 0 0 0 0 0 0 0 
0 0 0 0 0 0 0 0 0 0 0 0 0 0 0 0 0 0 0 0 0 0 0 0 0 8 31 16 18 96 159 145 154 147 163 204 215 184 143 122 125 129 115 101 93 99 120 130 125 127 128 134 129 123 114 119 131 137 139 143 140 133 122 122 130 144 152 158 172 198 216 216 178 163 151 128 92 32 16 0 0 0 0 0 0 0 0 0 0 0 0 0 0 0 0 0 0 0 0 0 0 0 0 0 0 0 0 0 0 0 0 0 0 0 0 0 0 0 0 0 0 0 0 0 0 0 0 0 
0 0 0 0 0 0 0 0 0 0 0 0 0 0 0 0 0 0 0 0 0 0 0 0 12 29 17 33 115 158 145 154 150 179 214 205 165 125 120 126 124 101 103 117 125 123 110 101 100 94 93 99 94 92 91 91 97 108 115 127 139 150 153 147 134 123 123 138 151 159 183 209 223 190 162 156 133 99 41 14 0 0 0 0 0 0 0 0 0 0 0 0 0 0 0 0 0 0 0 0 0 0 0 0 0 0 0 0 0 0 0 0 0 0 0 0 0 0 0 0 0 0 0 0 0 0 0 0 
0 0 0 0 0 0 0 0 0 0 0 0 0 0 0 0 0 0 0 0 0 0 2 15 27 13 42 131 154 144 153 157 193 211 185 141 118 127 132 123 119 124 131 121 102 90 88 89 91 88 88 94 91 90 90 90 91 93 89 89 94 103 124 141 151 147 132 119 124 138 150 173 202 221 194 161 162 135 107 49 11 0 0 0 0 0 0 0 0 0 0 0 0 0 0 0 0 0 0 0 0 0 0 0 0 0 0 0 0 0 0 0 0 0 0 0 0 0 0 0 0 0 0 0 0 0 0 0 
0 0 0 0 0 0 0 0 0 0 0 0 0 0 0 0 0 0 0 0 0 3 18 22 13 51 143 156 146 157 169 199 209 171 129 118 119 116 128 134 129 122 111 91 82 87 92 91 92 93 97 97 96 98 97 97 100 103 98 91 93 92 94 109 129 138 145 141 123 120 130 142 171 202 221 190 162 168 135 117 50 8 0 0 0 0 0 0 0 0 0 0 0 0 0 0 0 0 0 0 0 0 0 0 0 0 0 0 0 0 0 0 0 0 0 0 0 0 0 0 0 0 0 0 0 0 0 0 
0 0 0 0 0 0 0 0 0 0 0 0 0 0 0 0 0 0 0 0 4 18 20 17 61 155 149 145 162 175 198 202 163 130 118 115 116 138 136 119 105 104 94 90 93 98 97 99 99 98 101 77 79 103 106 113 120 123 119 119 114 105 94 91 102 118 120 129 142 128 116 111 135 172 196 214 189 164 168 136 115 41 3 0 0 0 0 0 0 0 0 0 0 0 0 0 0 0 0 0 0 0 0 0 0 0 0 0 0 0 0 0 0 0 0 0 0 0 0 0 0 0 0 0 0 0 0 0 
0 0 0 0 0 0 0 0 0 0 0 0 0 0 0 0 0 0 0 5 17 15 17 65 157 147 142 162 175 201 197 155 125 114 113 125 140 122 103 92 93 102 109 115 122 125 121 119 117 114 112 87 99 132 142 147 148 142 136 136 136 133 120 106 92 96 111 116 129 140 124 100 100 124 174 201 220 184 161 167 134 111 28 2 0 0 0 0 0 0 0 0 0 0 0 0 0 0 0 0 0 0 0 0 0 0 0 0 0 0 0 0 0 0 0 0 0 0 0 0 0 0 0 0 0 0 0 0 
0 0 0 0 0 0 0 0 0 0 0 0 0 0 0 0 0 0 4 16 14 19 66 147 145 132 164 180 198 187 153 117 106 118 129 130 99 92 104 112 119 130 141 154 157 153 146 147 142 139 134 128 138 159 162 154 148 144 143 141 136 135 133 131 125 97 88 105 122 135 136 113 95 97 118 176 204 219 177 159 161 137 99 18 1 0 0 0 0 0 0 0 0 0 0 0 0 0 0 0 0 0 0 0 0 0 0 0 0 0 0 0 0 0 0 0 0 0 0 0 0 0 0 0 0 0 0 0 
0 0 0 0 0 0 0 0 0 0 0 0 0 0 0 0 0 2 15 8 23 64 136 152 126 163 179 192 190 149 117 102 109 122 126 98 107 123 129 133 137 152 158 157 158 158 153 147 141 134 131 128 127 133 142 144 143 138 141 141 133 120 111 114 120 123 106 91 98 117 129 137 110 95 98 119 184 209 210 165 164 154 145 80 9 0 0 0 0 0 0 0 0 0 0 0 0 0 0 0 0 0 0 0 0 0 0 0 0 0 0 0 0 0 0 0 0 0 0 0 0 0 0 0 0 0 0 0 
0 0 0 0 0 0 0 0 0 0 0 0 0 0 0 0 0 11 10 19 64 128 157 132 157 178 178 194 147 111 100 106 115 129 114 121 135 136 129 139 148 138 134 141 141 136 122 117 126 130 124 120 115 117 121 124 131 125 120 118 116 115 121 116 109 112 125 116 93 95 112 125 123 97 96 100 117 184 216 186 165 162 150 131 46 4 0 0 0 0 0 0 0 0 0 0 0 0 0 0 0 0 0 0 0 0 0 0 0 0 0 0 0 0 0 0 0 0 0 0 0 0 0 0 0 0 0 0 
0 0 0 0 0 0 0 0 0 0 0 0 0 0 0 0 4 13 12 57 117 155 144 152 175 172 188 156 108 98 108 104 122 132 134 138 131 128 130 130 127 120 114 118 118 116 113 116 130 129 120 118 119 123 127 124 121 112 114 117 117 113 112 116 118 112 112 132 121 100 93 116 128 109 96 97 95 123 190 208 167 162 153 157 93 19 1 0 0 0 0 0 0 0 0 0 0 0 0 0 0 0 0 0 0 0 0 0 0 0 0 0 0 0 0 0 0 0 0 0 0 0 0 0 0 0 0 0 
0 0 0 0 0 0 0 0 0 0 0 0 0 0 0 0 13 11 43 105 133 153 142 172 176 180 160 115 94 109 103 115 139 140 136 132 124 123 118 115 116 119 116 111 111 119 116 122 135 132 123 120 122 127 126 127 127 120 123 120 115 116 113 108 109 112 110 112 135 127 98 97 116 125 98 95 100 97 138 201 181 158 155 152 140 55 5 0 0 0 0 0 0 0 0 0 0 0 0 0 0 0 0 0 0 0 0 0 0 0 0 0 0 0 0 0 0 0 0 0 0 0 0 0 0 0 0 0 
0 0 0 0 0 0 0 0 0 0 0 0 0 0 0 7 12 19 88 120 149 140 158 169 166 166 131 98 103 105 107 140 143 140 128 126 121 119 114 111 114 119 119 115 113 118 118 114 128 130 126 126 125 126 123 119 118 122 125 127 122 119 117 110 111 112 112 106 116 135 114 94 98 119 117 91 100 99 114 175 186 162 153 141 167 97 18 1 0 0 0 0 0 0 0 0 0 0 0 0 0 0 0 0 0 0 0 0 0 0 0 0 0 0 0 0 0 0 0 0 0 0 0 0 0 0 0 0 
0 0 0 0 0 0 0 0 0 0 0 0 0 0 0 11 11 55 119 132 155 140 164 162 143 152 109 95 109 101 132 143 135 127 126 118 116 116 119 117 116 122 123 119 120 123 122 117 118 121 120 121 118 117 107 102 98 108 116 118 123 124 127 126 120 115 114 109 105 114 129 114 94 101 127 109 96 95 99 141 174 163 156 149 159 137 46 4 0 0 0 0 0 0 0 0 0 0 0 0 0 0 0 0 0 0 0 0 0 0 0 0 0 0 0 0 0 0 0 0 0 0 0 0 0 0 0 0 
0 0 0 0 0 0 0 0 0 0 0 0 0 0 5 6 20 107 125 151 143 156 170 137 139 137 98 106 107 130 145 132 125 121 124 115 113 116 121 120 122 123 120 110 115 121 124 129 120 114 126 130 131 126 112 103 98 96 91 106 118 129 129 125 120 109 103 113 108 105 116 127 113 82 94 129 112 99 100 126 159 150 164 156 141 163 79 11 0 0 0 0 0 0 0 0 0 0 0 0 0 0 0 0 0 0 0 0 0 0 0 0 0 0 0 0 0 0 0 0 0 0 0 0 0 0 0 0 
0 0 0 0 0 0 0 0 0 0 0 0 0 0 7 9 57 130 134 161 144 174 159 115 142 126 102 106 111 145 136 125 120 122 118 116 118 124 120 125 126 120 111 102 99 112 130 148 154 149 151 164 174 156 133 128 131 131 120 114 116 123 129 132 131 125 113 112 116 109 106 113 131 95 80 110 125 102 102 126 152 143 155 159 137 167 111 21 1 0 0 0 0 0 0 0 0 0 0 0 0 0 0 0 0 0 0 0 0 0 0 0 0 0 0 0 0 0 0 0 0 0 0 0 0 0 0 0 
0 0 0 0 0 0 0 0 0 0 0 0 0 1 10 19 103 115 146 155 154 167 120 112 139 122 109 102 124 143 122 122 126 118 121 124 125 127 119 111 106 93 84 88 104 131 155 174 174 147 128 137 158 100 85 99 131 153 150 151 141 133 127 124 131 129 122 118 114 112 107 105 130 112 83 92 122 112 102 123 151 145 142 164 138 163 133 39 2 0 0 0 0 0 0 0 0 0 0 0 0 0 0 0 0 0 0 0 0 0 0 0 0 0 0 0 0 0 0 0 0 0 0 0 0 0 0 0 
0 0 0 0 0 0 0 0 0 0 0 0 0 5 10 45 126 97 152 154 157 129 99 117 142 118 103 85 135 130 119 128 129 119 129 134 129 110 92 81 73 74 97 130 152 160 145 125 104 85 66 60 102 60 52 51 55 73 95 132 157 167 158 139 138 133 123 119 122 120 117 110 121 124 100 89 108 102 98 117 151 144 140 156 139 147 144 60 4 0 0 0 0 0 0 0 0 0 0 0 0 0 0 0 0 0 0 0 0 0 0 0 0 0 0 0 0 0 0 0 0 0 0 0 0 0 0 0 
0 0 0 0 0 0 0 0 0 0 0 0 0 7 9 77 119 112 160 160 137 106 97 129 140 111 78 94 138 122 123 134 123 121 129 135 120 87 68 64 83 120 154 164 156 115 73 60 57 55 57 53 70 52 53 52 51 52 51 56 83 125 165 174 167 146 134 124 127 120 116 115 118 130 110 89 95 93 99 107 141 134 138 152 144 142 155 80 7 0 0 0 0 0 0 0 0 0 0 0 0 0 0 0 0 0 0 0 0 0 0 0 0 0 0 0 0 0 0 0 0 0 0 0 0 0 0 0 
0 0 0 0 0 0 0 0 0 0 0 0 0 11 20 107 112 132 173 143 101 94 99 138 136 77 67 112 133 127 135 128 124 127 132 120 85 67 67 98 142 165 154 123 92 54 51 52 54 54 54 52 59 50 51 50 50 51 53 52 54 63 105 165 183 180 156 131 125 121 118 118 120 130 121 94 87 72 93 100 140 127 134 148 146 141 162 98 11 0 0 0 0 0 0 0 0 0 0 0 0 0 0 0 0 0 0 0 0 0 0 0 0 0 0 0 0 0 0 0 0 0 0 0 0 0 0 0 
0 0 0 0 0 0 0 0 0 0 0 0 0 7 32 114 106 145 173 120 87 91 107 145 111 54 88 121 134 132 132 119 126 129 123 101 71 69 107 152 167 146 95 60 50 50 49 50 52 53 53 54 49 50 51 50 51 51 52 53 54 51 62 109 168 185 184 151 127 121 119 117 121 131 133 106 88 59 77 102 132 123 125 144 147 133 164 111 19 1 0 0 0 0 0 0 0 0 0 0 0 0 0 0 0 0 0 0 0 0 0 0 0 0 0 0 0 0 0 0 0 0 0 0 0 0 0 0 
0 0 0 0 0 0 0 0 0 0 0 0 1 8 44 118 109 157 169 106 87 97 113 140 87 62 102 119 142 141 123 118 125 130 122 86 72 109 151 168 147 101 61 50 50 50 50 50 51 52 53 52 51 50 49 50 51 53 52 52 54 53 54 57 107 165 183 179 143 124 117 118 121 130 141 121 92 54 65 108 140 128 127 141 151 133 158 131 29 2 0 0 0 0 0 0 0 0 0 0 0 0 0 0 0 0 0 0 0 0 0 0 0 0 0 0 0 0 0 0 0 0 0 0 0 0 0 0 
0 0 0 0 0 0 0 0 0 0 0 0 2 6 52 120 115 171 154 108 97 99 115 135 90 79 108 122 145 133 120 119 127 129 104 80 108 151 169 162 140 88 56 53 52 49 50 48 49 49 52 50 49 49 49 50 53 51 52 53 53 51 53 51 69 151 171 197 184 151 130 124 124 132 143 133 94 49 55 106 146 128 124 141 158 138 149 152 38 2 0 0 0 0 0 0 0 0 0 0 0 0 0 0 0 0 0 0 0 0 0 0 0 0 0 0 0 0 0 0 0 0 0 0 0 0 0 0 
0 0 0 0 0 0 0 0 0 0 0 0 3 5 65 118 129 178 141 113 108 96 105 121 103 96 109 124 147 130 123 120 125 119 94 113 154 168 164 163 153 130 105 72 51 50 53 51 48 52 54 50 48 50 50 52 51 52 53 55 52 53 55 55 96 132 153 194 211 202 170 136 124 134 148 137 93 48 53 107 141 132 124 139 162 138 146 168 52 2 0 0 0 0 0 0 0 0 0 0 0 0 0 0 0 0 0 0 0 0 0 0 0 0 0 0 0 0 0 0 0 0 0 0 0 0 0 0 
0 0 0 0 0 0 0 0 0 0 0 0 3 5 74 120 146 180 129 114 119 97 102 113 115 106 109 124 144 134 122 124 130 125 140 167 175 154 117 91 79 78 94 108 85 51 52 52 51 52 53 51 49 51 50 50 52 53 54 54 52 53 74 93 74 63 66 104 153 180 188 171 148 144 149 138 90 48 59 116 142 131 117 129 157 135 136 172 65 2 0 0 0 0 0 0 0 0 0 0 0 0 0 0 0 0 0 0 0 0 0 0 0 0 0 0 0 0 0 0 0 0 0 0 0 0 0 0 
0 0 0 0 0 0 0 0 0 0 0 0 2 7 81 121 159 174 116 116 129 104 104 116 125 125 113 124 140 141 125 125 146 172 177 154 102 63 52 52 56 52 53 56 65 88 63 52 49 52 52 51 51 51 50 53 54 53 52 53 56 83 82 76 71 65 70 91 124 139 145 151 154 149 146 132 91 52 78 134 150 122 114 124 158 141 134 172 81 4 0 0 0 0 0 0 0 0 0 0 0 0 0 0 0 0 0 0 0 0 0 0 0 0 0 0 0 0 0 0 0 0 0 0 0 0 0 0 
0 0 0 0 0 0 0 0 0 0 0 0 3 6 85 124 164 170 117 115 129 109 100 115 139 145 126 124 133 140 131 141 177 176 124 82 72 64 66 80 77 61 58 58 58 59 94 73 52 51 54 52 49 50 52 52 52 53 52 57 98 76 78 75 76 79 77 98 131 149 148 146 140 141 140 133 100 72 109 152 144 103 114 125 148 136 133 176 104 8 0 0 0 0 0 0 0 0 0 0 0 0 0 0 0 0 0 0 0 0 0 0 0 0 0 0 0 0 0 0 0 0 0 0 0 0 0 0 
0 0 0 0 0 0 0 0 0 0 0 0 3 8 86 128 169 175 117 111 117 110 91 103 148 150 136 128 122 138 144 164 168 115 91 95 89 83 82 84 83 81 77 76 67 59 64 101 50 52 54 51 49 50 51 52 52 51 53 103 82 83 70 57 57 59 65 80 112 133 137 134 132 135 143 141 120 107 131 159 136 92 114 124 135 131 135 175 122 11 0 0 0 0 0 0 0 0 0 0 0 0 0 0 0 0 0 0 0 0 0 0 0 0 0 0 0 0 0 0 0 0 0 0 0 0 0 0 
0 0 0 0 0 0 0 0 0 0 0 0 3 15 82 130 178 177 116 93 111 110 89 86 153 160 146 138 123 133 151 160 136 110 95 76 66 64 59 62 60 59 62 67 74 59 61 89 80 54 54 52 49 50 52 52 52 52 61 97 78 58 57 55 62 63 63 77 103 128 136 134 136 137 149 148 137 137 150 162 130 87 108 128 125 125 138 173 134 15 0 0 0 0 0 0 0 0 0 0 0 0 0 0 0 0 0 0 0 0 0 0 0 0 0 0 0 0 0 0 0 0 0 0 0 0 0 0 
0 0 0 0 0 0 0 0 0 0 0 0 3 14 79 138 183 177 106 78 113 113 93 74 141 177 160 146 131 121 130 143 135 107 78 58 57 56 55 58 56 57 55 54 59 69 62 75 86 57 58 54 54 70 56 53 53 54 80 94 61 49 53 60 61 59 58 70 98 125 133 134 139 143 145 138 135 134 143 155 117 86 102 123 120 117 134 165 138 20 1 0 0 0 0 0 0 0 0 0 0 0 0 0 0 0 0 0 0 0 0 0 0 0 0 0 0 0 0 0 0 0 0 0 0 0 0 0 
0 0 0 0 0 0 0 0 0 0 0 0 4 14 76 149 185 171 89 82 115 115 92 62 124 176 178 148 128 122 125 132 127 96 64 56 53 52 52 56 57 54 57 55 60 66 71 73 97 56 57 61 69 79 62 54 57 53 77 80 52 50 54 59 58 58 54 65 94 126 134 133 135 147 154 137 128 140 148 151 109 86 91 116 114 117 138 160 148 31 1 0 0 0 0 0 0 0 0 0 0 0 0 0 0 0 0 0 0 0 0 0 0 0 0 0 0 0 0 0 0 0 0 0 0 0 0 0 
0 0 0 0 0 0 0 0 0 0 0 0 5 16 76 159 185 159 89 84 113 117 79 54 113 166 180 145 126 122 126 132 116 92 61 56 53 51 50 48 52 54 53 51 57 61 70 79 110 69 60 63 59 67 66 58 74 79 77 61 49 52 55 59 54 53 53 59 89 125 135 133 136 149 161 135 126 140 141 137 100 85 88 100 105 117 138 154 147 38 1 0 0 0 0 0 0 0 0 0 0 0 0 0 0 0 0 0 0 0 0 0 0 0 0 0 0 0 0 0 0 0 0 0 0 0 0 0 
0 0 0 0 0 0 0 0 0 0 0 0 6 19 77 163 182 150 90 88 113 106 59 49 100 157 172 142 120 118 123 132 102 81 55 57 54 52 50 52 52 52 51 50 54 60 60 68 83 60 72 72 88 98 92 91 63 67 73 57 51 53 67 60 56 55 55 58 83 124 134 134 133 144 155 133 117 129 114 122 102 88 89 90 82 122 127 147 145 44 1 0 0 0 0 0 0 0 0 0 0 0 0 0 0 0 0 0 0 0 0 0 0 0 0 0 0 0 0 0 0 0 0 0 0 0 0 0 
0 0 0 0 0 0 0 0 0 0 0 0 5 22 75 164 181 134 93 98 110 87 53 49 89 154 175 140 121 116 121 124 94 73 50 54 57 54 50 51 52 56 54 54 55 60 61 60 81 64 77 92 98 64 68 57 75 45 56 57 70 96 109 64 55 58 56 60 86 122 133 132 133 150 157 127 96 100 112 125 118 90 88 85 90 125 116 131 145 51 2 0 0 0 0 0 0 0 0 0 0 0 0 0 0 0 0 0 0 0 1 0 0 0 0 0 0 0 0 0 0 0 0 0 0 0 0 0 
0 0 0 0 0 0 0 0 0 0 0 0 4 22 76 161 173 116 103 104 94 79 52 48 79 147 158 129 120 119 116 114 97 73 59 59 53 52 51 49 53 54 57 69 64 62 61 65 70 63 71 104 84 69 70 55 69 67 59 83 82 84 76 60 55 53 54 62 87 121 134 129 124 147 156 122 75 86 121 122 124 96 89 79 93 126 108 123 143 56 2 0 0 0 0 0 0 0 0 0 0 0 0 0 0 0 0 0 0 0 0 0 0 0 0 0 0 0 0 0 0 0 0 0 0 0 0 0 
0 0 0 0 0 0 0 0 0 0 0 0 5 22 72 155 161 110 112 111 94 81 55 44 69 141 146 126 122 120 121 109 89 72 63 59 53 52 49 51 47 54 65 94 92 95 73 68 68 80 107 111 59 51 59 63 70 84 51 69 61 63 56 58 53 52 55 58 86 122 134 134 133 154 149 112 76 113 116 109 122 101 91 70 99 128 108 133 132 53 2 0 0 0 0 0 0 0 0 0 0 0 0 0 0 0 0 0 0 0 0 0 0 0 0 0 0 0 0 0 0 0 0 0 0 0 0 0 
0 0 0 0 0 0 0 0 0 0 0 0 4 19 68 145 156 105 113 109 93 79 61 46 63 135 155 138 123 120 124 111 75 72 68 57 55 53 51 50 50 53 54 63 61 71 71 65 85 68 70 64 58 56 60 53 47 61 69 69 56 56 55 61 57 54 54 61 86 122 135 134 144 162 139 97 116 109 105 99 118 103 91 59 106 127 106 136 126 50 2 0 0 0 0 0 0 0 0 0 0 0 0 0 0 0 0 0 0 0 0 0 0 0 0 0 0 0 0 0 0 0 0 0 0 0 0 0 
0 0 0 0 0 0 0 0 0 0 0 0 3 19 68 137 158 104 110 110 92 79 70 44 57 119 153 144 124 123 123 109 71 66 72 62 55 54 50 48 47 51 54 54 59 67 68 60 75 61 84 64 60 58 61 51 47 48 65 59 52 50 62 71 58 57 56 60 83 116 133 137 154 163 125 95 124 101 100 94 112 106 88 52 122 122 104 135 116 48 2 0 0 0 0 0 0 0 0 0 0 0 0 0 0 0 0 0 0 0 0 0 0 0 0 0 0 0 0 0 0 0 0 0 0 0 0 0 
0 0 0 0 0 0 0 0 0 0 0 0 1 19 67 122 160 102 104 112 93 79 71 48 53 102 148 150 135 123 125 113 82 64 70 64 53 50 49 50 50 53 57 58 56 60 57 48 58 65 75 64 54 59 61 47 59 43 64 65 51 56 72 74 60 57 56 59 80 111 132 142 160 158 112 89 107 102 92 86 102 104 79 54 130 113 106 139 107 47 2 0 0 0 0 0 0 0 0 0 0 0 0 0 0 0 0 0 0 0 0 0 0 0 0 0 0 0 0 0 0 0 0 0 0 0 0 0 
0 0 0 0 0 0 0 0 0 2 3 0 2 14 63 107 159 107 103 108 98 78 76 52 47 90 134 148 141 130 127 119 90 63 59 70 58 50 52 53 54 58 56 57 62 64 51 49 49 72 61 59 47 65 66 54 59 50 54 66 54 59 84 71 60 59 59 62 87 122 135 145 153 150 103 101 102 96 102 89 94 100 64 57 133 107 112 138 94 46 2 0 0 0 0 0 0 0 0 0 0 0 0 0 0 0 0 0 0 0 0 0 0 0 0 0 0 0 0 0 0 0 0 0 0 0 0 0 
0 0 0 0 0 0 0 0 0 5 8 3 4 8 59 92 160 120 99 95 103 79 76 59 46 74 128 147 142 131 130 122 100 63 48 69 73 54 50 53 59 63 67 60 55 55 53 47 51 79 56 59 50 69 64 66 64 60 51 66 106 107 67 47 45 51 54 71 94 122 133 141 146 152 109 118 94 92 102 87 94 98 50 79 129 105 125 129 87 42 1 0 0 0 0 0 0 0 0 0 0 0 0 0 0 0 0 0 0 0 0 0 0 0 0 0 0 0 0 0 0 0 0 0 0 0 0 0 
0 0 0 0 0 0 0 0 0 0 1 14 6 8 48 84 146 135 97 74 107 87 76 64 43 62 111 151 143 141 165 149 112 73 47 49 60 51 56 54 55 68 89 88 63 72 66 61 64 77 62 63 52 64 67 64 76 75 61 81 89 94 63 57 51 51 55 70 99 128 129 136 170 180 126 119 123 118 101 85 98 104 55 104 116 112 140 113 85 34 0 0 0 0 0 0 0 0 0 0 0 0 0 0 0 0 0 0 0 0 0 0 0 0 0 0 0 0 0 0 0 0 0 0 0 0 0 0 
0 0 0 0 0 0 0 0 0 0 3 17 10 8 33 74 130 156 106 65 102 103 79 75 47 53 95 140 153 170 197 196 144 83 51 43 47 57 65 67 75 88 90 83 41 50 58 62 68 71 70 72 51 71 69 57 56 51 50 88 80 63 46 50 51 68 82 86 116 142 173 196 216 194 178 178 168 162 102 85 105 128 86 96 115 127 140 97 84 24 0 0 0 1 0 0 0 0 0 0 0 0 0 0 0 0 0 0 0 0 0 0 0 0 0 0 0 0 0 0 0 0 0 0 0 0 0 0 
0 0 0 0 0 0 0 0 0 0 6 14 5 9 24 71 110 163 121 78 83 106 83 77 55 44 84 115 168 191 195 198 191 156 97 73 76 89 97 96 96 96 56 45 54 64 75 64 62 63 66 71 52 72 72 54 48 51 50 89 62 78 84 70 63 74 121 166 157 168 204 223 208 162 142 143 168 184 115 93 111 126 118 106 124 141 138 90 80 17 4 1 5 2 2 0 0 0 0 0 0 0 0 0 0 0 0 0 0 0 0 0 0 0 0 0 0 0 0 0 0 0 0 0 0 0 0 0 
0 0 0 0 0 0 0 0 0 0 6 9 3 10 18 70 98 168 132 95 66 108 95 81 80 43 65 101 155 213 199 204 190 169 151 130 111 100 84 69 68 43 38 48 58 57 43 55 72 61 60 60 53 85 74 52 53 54 70 94 80 81 81 77 77 90 127 150 181 180 169 218 200 128 92 101 154 187 127 110 108 119 143 125 129 151 122 88 65 11 12 12 5 0 0 0 0 0 0 0 0 0 0 0 0 0 0 0 0 0 0 0 0 0 0 0 0 0 0 0 0 0 0 0 0 0 0 0 
0 0 0 0 0 0 0 0 0 0 4 9 4 8 10 55 90 153 158 111 56 89 109 107 107 49 51 94 125 201 206 194 186 166 147 127 84 80 71 66 48 39 44 46 47 48 45 51 90 69 52 56 48 87 71 65 87 84 101 75 72 58 59 58 58 89 138 154 187 194 158 204 198 165 104 115 167 176 137 121 88 129 162 134 131 166 113 86 45 10 10 7 8 0 0 0 0 0 0 0 0 0 0 0 0 0 0 0 0 0 0 0 0 0 0 0 0 0 0 0 0 0 0 0 0 0 0 0 
0 0 0 0 0 0 0 0 0 0 2 9 4 7 14 50 90 143 163 131 73 69 116 128 121 70 41 87 138 200 210 197 190 183 158 103 74 81 76 76 61 45 44 46 47 49 47 71 91 99 95 94 48 87 107 98 72 95 87 63 59 50 51 58 64 101 132 146 173 170 188 218 190 167 102 102 162 160 119 96 96 156 168 143 141 137 90 80 25 13 4 3 7 1 0 0 0 0 0 0 0 0 0 0 0 0 0 0 0 0 0 0 0 0 0 0 0 0 0 0 0 0 0 0 0 0 0 0 
0 0 0 0 0 0 0 0 0 0 0 12 1 0 4 24 86 137 163 143 119 100 109 140 135 110 71 79 146 186 193 178 167 178 177 139 125 113 72 64 66 41 46 48 49 50 70 83 85 75 97 120 106 115 98 62 51 89 87 52 56 61 57 65 83 127 147 147 163 186 215 188 171 131 128 121 163 171 135 86 81 141 151 123 111 112 89 63 17 0 0 5 4 2 0 0 0 0 0 0 0 0 0 0 0 0 0 0 0 0 0 0 0 0 0 0 0 0 0 0 0 0 0 0 0 0 0 0 
0 0 0 0 0 0 0 0 0 0 0 5 4 0 1 3 46 112 160 156 139 180 130 114 143 135 86 61 113 172 178 215 204 190 178 172 171 140 84 46 65 63 38 45 53 49 67 84 81 52 80 130 104 92 103 62 45 51 101 107 84 63 71 82 106 133 162 172 174 181 194 182 159 121 132 174 149 165 123 113 125 142 141 142 129 131 90 73 7 0 0 1 3 4 0 0 0 0 0 0 0 0 0 0 0 0 0 0 0 0 0 0 0 0 0 0 0 0 0 0 0 0 0 0 0 0 0 0 
0 0 0 0 0 0 0 0 0 0 0 5 4 0 0 5 28 100 159 173 156 173 157 148 144 140 115 101 80 134 149 194 228 206 180 145 130 129 105 58 63 86 79 59 64 64 71 92 89 88 123 145 128 117 108 58 48 48 72 90 97 72 78 92 115 145 157 178 198 176 146 96 117 123 148 190 166 142 75 109 158 165 153 133 125 131 96 51 0 0 0 2 6 2 0 0 0 0 0 0 0 0 0 0 0 0 0 0 0 0 0 0 0 0 0 0 0 0 0 0 0 0 0 0 0 0 0 0 
0 0 0 0 0 0 0 0 0 0 0 7 4 0 0 5 16 73 143 183 170 136 158 165 189 173 141 128 99 128 138 163 199 185 178 149 134 149 142 109 80 96 89 73 53 55 73 82 88 119 137 131 121 130 132 79 49 51 65 61 69 88 113 137 134 133 149 182 187 150 135 100 70 115 157 171 165 107 66 119 147 170 194 189 136 71 79 25 0 0 0 2 6 0 0 0 0 0 0 0 0 0 0 0 0 0 0 0 0 0 0 0 0 0 0 0 0 0 0 0 0 0 0 0 0 0 0 0 
0 0 0 0 0 0 0 0 0 0 0 6 4 0 0 3 14 50 117 179 178 107 112 134 141 126 125 107 100 135 153 157 161 154 181 179 164 159 155 155 123 100 83 70 72 86 102 95 123 133 120 126 127 131 138 136 82 60 73 70 99 122 135 134 145 150 154 151 113 86 106 109 106 144 148 165 152 80 80 135 145 155 174 187 119 46 62 14 1 0 0 5 5 0 0 0 0 0 0 0 0 0 0 0 0 0 0 0 0 0 0 0 0 0 0 0 0 0 0 0 0 0 0 0 0 0 0 0 
0 0 0 0 0 0 0 0 0 0 0 7 4 0 0 4 18 29 94 164 166 117 145 124 137 129 102 103 96 113 165 167 146 110 146 184 174 157 141 142 141 132 120 126 130 138 139 133 132 117 98 99 116 121 147 143 151 138 122 121 135 136 135 148 157 154 116 71 57 94 124 135 139 135 140 158 112 74 101 110 147 166 163 153 92 83 41 14 3 0 1 5 6 0 0 0 0 0 0 0 0 0 0 0 0 0 0 0 0 0 0 0 0 0 0 0 0 0 0 0 0 0 0 0 0 0 0 0 
0 0 0 0 0 0 0 0 0 0 0 5 5 0 0 9 18 19 63 135 158 131 107 106 129 141 123 97 98 104 111 116 96 98 139 182 185 172 150 144 140 127 125 130 128 137 135 132 125 110 98 96 115 136 160 155 145 137 130 137 138 144 152 162 153 111 61 57 81 142 134 117 88 104 114 109 85 103 113 130 128 141 162 114 55 76 20 17 12 3 1 6 6 0 0 0 0 0 0 0 0 0 0 0 0 0 0 0 0 0 0 0 0 0 0 0 0 0 0 0 0 0 0 0 0 0 0 0 
0 0 0 0 0 0 0 0 0 0 0 3 6 0 0 7 18 17 39 105 171 139 106 113 109 112 134 105 91 98 104 96 71 67 93 146 128 150 189 171 157 143 138 136 134 141 120 110 103 111 138 149 152 150 163 161 154 153 142 143 155 169 164 152 120 61 41 69 122 157 109 93 90 95 101 75 66 135 135 138 98 104 139 95 64 59 17 17 18 3 1 8 6 0 0 0 0 0 0 0 0 0 0 0 0 0 0 0 0 0 0 0 0 0 0 0 0 0 0 0 0 0 0 0 0 0 0 0 
0 0 0 0 0 0 0 0 0 0 0 0 7 0 0 6 20 23 26 80 157 161 105 119 116 101 121 118 77 77 115 127 90 84 100 127 79 54 88 157 159 150 140 125 135 130 115 126 153 161 164 178 187 185 181 165 165 158 145 127 122 123 163 159 122 84 80 120 153 141 124 108 119 138 98 65 83 133 111 104 88 52 56 74 73 35 19 18 11 1 1 8 6 0 0 0 0 0 0 0 0 0 0 0 0 0 0 0 0 0 0 0 0 0 0 0 0 0 0 0 0 0 0 0 0 0 0 0 
0 0 0 0 0 0 0 0 0 0 0 0 7 1 0 7 13 25 22 54 127 172 112 108 120 120 115 109 116 92 102 137 117 121 131 110 77 59 50 59 110 130 112 126 133 127 132 142 165 157 150 142 136 142 147 145 127 120 120 121 117 119 153 154 139 166 170 166 155 137 135 123 115 122 112 109 145 139 99 94 91 76 108 124 68 26 18 6 4 2 2 7 5 0 0 0 0 0 0 0 0 0 0 0 0 0 0 0 0 0 0 0 0 0 0 0 0 0 0 0 0 0 0 0 0 0 0 0 
0 0 0 0 0 0 0 0 0 0 0 0 7 3 0 8 9 16 25 33 90 168 116 85 116 121 120 121 144 126 81 118 119 121 102 89 85 85 85 82 86 140 139 110 107 101 113 154 151 137 103 95 88 91 92 101 98 95 99 115 115 146 186 181 171 141 126 155 163 140 116 88 82 80 83 171 165 138 90 76 77 56 117 123 42 24 15 5 5 2 2 7 6 0 0 0 0 0 0 0 0 0 0 0 0 0 0 0 0 0 0 0 0 0 0 0 0 0 0 0 0 0 0 0 0 0 0 0 
0 0 0 0 0 0 0 0 0 0 0 0 14 14 0 7 9 9 23 23 54 158 161 117 93 101 128 132 153 155 106 71 94 110 98 101 96 95 104 120 137 145 155 132 98 94 117 130 127 129 96 84 88 88 98 95 100 88 92 103 113 165 187 190 165 117 116 126 114 73 53 54 65 89 128 178 154 158 99 100 84 45 136 91 26 23 7 4 5 2 1 6 5 0 0 0 0 0 0 0 0 0 0 0 0 0 0 0 0 0 0 0 0 0 0 0 0 0 0 0 0 0 0 0 0 0 0 0 
0 0 0 0 0 0 0 0 0 0 0 0 8 13 0 2 7 7 17 19 27 121 161 108 71 66 116 135 150 153 132 97 104 92 64 69 89 119 130 132 142 146 191 185 136 110 123 122 132 138 117 139 158 120 120 95 110 118 110 118 126 174 178 177 153 106 95 97 100 62 57 60 86 120 161 156 150 163 130 92 58 102 168 74 22 21 3 2 5 0 0 6 5 0 0 0 0 0 0 0 0 0 0 0 0 0 0 0 0 0 0 0 0 0 0 0 0 0 0 0 0 0 0 0 0 0 0 0 
0 0 0 0 0 0 0 0 0 0 0 0 6 11 9 0 4 10 11 12 19 84 156 114 78 77 88 101 149 142 162 171 158 112 87 87 86 69 69 81 97 131 211 206 169 126 132 123 132 138 139 163 160 135 99 96 101 111 113 104 114 161 146 146 127 123 119 101 79 61 77 115 148 156 171 140 147 166 129 84 78 88 136 50 19 19 3 4 1 0 0 3 5 0 0 0 0 0 0 0 0 0 0 0 0 0 0 0 0 0 0 0 0 0 0 0 0 0 0 0 0 0 0 0 0 0 0 0 
0 0 0 0 0 0 0 0 0 0 0 0 10 10 12 13 13 14 7 8 15 52 140 80 76 82 82 91 178 192 182 188 170 153 120 88 63 52 58 69 64 99 193 208 189 111 110 100 95 109 121 106 85 112 107 74 59 66 79 87 88 142 137 133 135 141 99 68 97 109 135 166 157 151 144 110 104 160 121 58 28 93 108 22 6 9 14 2 0 0 0 6 20 0 0 0 0 0 0 0 0 0 0 0 0 0 0 0 0 0 0 0 0 0 0 0 0 0 0 0 0 0 0 0 0 0 0 0 
0 0 0 0 0 0 0 0 0 0 0 0 14 14 10 9 8 4 5 11 17 31 88 74 38 56 80 133 155 156 158 150 165 182 169 150 134 105 90 90 94 170 205 200 208 193 151 155 164 143 129 123 138 157 155 144 132 126 131 111 98 131 180 165 147 200 171 157 192 166 181 162 129 148 155 109 81 125 127 106 118 123 54 13 6 3 1 4 0 0 3 8 4 0 0 0 0 0 0 0 0 0 0 0 0 0 0 0 0 0 0 0 0 0 0 0 0 0 0 0 0 0 0 0 0 0 0 0 
0 0 0 0 0 0 0 0 0 0 0 0 6 7 4 0 0 0 1 5 14 16 36 98 81 72 106 95 98 120 107 87 77 105 145 157 161 144 146 154 206 216 208 175 192 216 139 165 191 181 141 146 170 163 158 179 176 173 165 158 171 206 203 176 218 225 182 164 172 132 119 128 134 148 157 134 93 83 118 142 132 68 32 28 14 1 0 0 0 6 10 7 1 0 0 0 0 0 0 0 0 0 0 0 0 0 0 0 0 0 0 0 0 0 0 0 0 0 0 0 0 0 0 0 0 0 0 0 
0 0 0 0 0 0 0 0 0 0 0 0 0 5 2 0 0 0 0 1 16 13 14 64 125 141 108 38 68 76 63 77 97 104 111 111 97 108 144 218 223 218 220 206 168 225 163 173 162 174 113 110 119 107 93 109 140 148 150 128 112 170 182 167 174 142 79 113 100 64 54 38 45 98 124 110 90 62 47 58 50 39 31 14 12 0 0 0 0 0 0 7 10 0 0 0 0 0 0 0 0 0 0 0 0 0 0 0 0 0 0 0 0 0 0 0 0 0 0 0 0 0 0 0 0 0 0 0 
0 0 0 0 0 0 0 0 0 0 0 0 0 6 11 11 5 0 0 0 4 10 20 28 59 114 72 30 61 82 52 37 55 55 45 42 40 51 64 81 120 208 223 215 206 221 177 126 119 80 48 73 68 63 60 61 70 66 109 97 83 97 127 165 176 122 139 55 47 44 40 29 34 61 59 42 82 77 26 25 27 26 19 6 3 0 0 0 0 0 2 12 13 0 0 0 0 0 0 0 0 0 0 0 0 0 0 0 0 0 0 0 0 0 0 0 0 0 0 0 0 0 0 0 0 0 0 0 
0 0 0 0 0 0 0 0 0 0 0 0 0 0 11 10 9 0 0 0 1 7 10 17 27 27 26 23 53 84 45 57 37 37 37 39 34 38 50 55 66 95 112 93 100 100 66 54 65 65 42 61 57 57 54 55 56 35 60 51 61 135 156 146 120 94 121 55 88 121 51 23 21 53 72 32 82 72 31 28 25 25 16 5 2 0 0 3 6 8 9 12 1 0 0 0 0 0 0 0 0 0 0 0 0 0 0 0 0 0 0 0 0 0 0 0 0 0 0 0 0 0 0 0 0 0 0 0 
0 0 0 0 0 0 0 0 0 0 0 0 0 0 0 0 1 0 0 0 0 7 7 12 21 26 27 33 57 119 59 75 55 45 52 58 61 64 75 130 149 139 139 156 153 122 82 77 95 96 68 87 80 81 78 77 77 58 76 69 99 148 109 103 111 122 125 68 63 106 76 45 56 79 66 29 76 56 26 20 14 21 5 0 1 0 0 0 4 5 6 1 0 0 0 0 0 0 0 0 0 0 0 0 0 0 0 0 0 0 0 0 0 0 0 0 0 0 0 0 0 0 0 0 0 0 0 0 
0 0 0 0 0 0 0 0 0 0 0 0 0 0 0 0 0 0 0 0 0 4 5 6 9 15 18 29 57 126 79 77 84 86 102 84 51 61 79 147 163 178 144 145 176 191 153 132 120 108 103 128 135 134 111 95 104 83 81 81 93 143 141 138 126 111 119 132 156 205 171 79 39 22 16 27 51 30 24 17 13 15 4 0 0 0 0 0 0 0 0 0 0 0 0 0 0 0 0 0 0 0 0 0 0 0 0 0 0 0 0 0 0 0 0 0 0 0 0 0 0 0 0 0 0 0 0 0 
0 0 0 0 0 0 0 0 0 0 0 0 0 0 0 0 0 0 0 0 0 0 0 2 18 34 24 24 34 83 58 58 64 87 112 59 41 53 75 112 140 140 139 148 159 163 160 174 134 111 139 146 182 167 122 99 110 117 121 113 117 144 125 131 134 127 128 95 186 160 157 129 35 6 3 5 72 15 10 25 12 4 1 0 0 0 0 0 0 0 0 0 0 0 0 0 0 0 0 0 0 0 0 0 0 0 0 0 0 0 0 0 0 0 0 0 0 0 0 0 0 0 0 0 0 0 0 0 
0 0 0 0 0 0 0 0 0 0 0 0 0 0 0 0 0 0 0 0 0 0 1 3 18 27 18 12 27 82 79 68 60 61 107 70 38 50 52 82 129 134 121 91 89 89 116 111 119 123 120 104 104 95 115 100 93 75 101 110 141 146 111 71 78 102 124 133 188 184 143 109 66 39 48 31 91 15 6 10 12 12 3 0 0 0 0 0 0 0 0 0 0 0 0 0 0 0 0 0 0 0 0 0 0 0 0 0 0 0 0 0 0 0 0 0 0 0 0 0 0 0 0 0 0 0 0 0 
0 0 0 0 0 0 0 0 0 0 0 0 0 0 0 0 0 0 0 0 0 0 2 4 7 19 24 17 24 62 117 83 65 48 78 61 62 53 76 99 94 92 82 62 100 112 105 67 71 117 129 109 107 90 112 88 106 93 114 105 121 129 128 70 68 67 99 111 126 123 92 74 70 87 98 56 111 25 8 12 30 20 4 1 0 0 0 0 0 0 0 0 0 0 0 0 0 0 0 0 0 0 0 0 0 0 0 0 0 0 0 0 0 0 0 0 0 0 0 0 0 0 0 0 0 0 0 0 
0 0 0 0 0 0 0 0 0 0 0 0 0 0 0 0 0 0 0 0 0 0 1 3 7 12 25 21 15 36 109 93 72 50 74 33 51 74 78 92 96 92 73 91 97 85 110 77 64 115 123 91 100 99 104 92 107 107 116 108 110 113 81 52 54 69 93 100 101 98 77 62 62 85 127 70 101 30 13 16 25 17 4 0 0 0 0 0 0 0 0 0 0 0 0 0 0 0 0 0 0 0 0 0 0 0 0 0 0 0 0 0 0 0 0 0 0 0 0 0 0 0 0 0 0 0 0 0 
0 0 0 0 0 0 0 0 0 0 0 0 0 0 0 0 0 0 0 0 0 0 0 2 6 6 23 25 19 27 103 91 81 63 74 26 25 37 66 100 94 90 95 97 88 87 122 143 112 116 122 90 102 102 99 100 118 105 116 115 88 105 81 67 104 115 107 91 71 69 48 31 32 58 131 78 97 35 15 20 24 11 4 0 0 0 0 0 0 0 0 0 0 0 0 0 0 0 0 0 0 0 0 0 0 0 0 0 0 0 0 0 0 0 0 0 0 0 0 0 0 0 0 0 0 0 0 0 
0 0 0 0 0 0 0 0 0 0 0 0 0 0 0 0 0 0 0 0 0 0 0 2 3 5 17 26 23 24 92 82 71 71 77 28 26 30 34 46 63 89 114 100 81 83 88 117 102 100 96 75 93 99 81 86 104 89 102 98 83 116 115 100 78 85 118 114 86 64 40 25 35 43 120 82 78 38 15 20 21 11 2 0 0 0 0 0 0 0 0 0 0 0 0 0 0 0 0 0 0 0 0 0 0 0 0 0 0 0 0 0 0 0 0 0 0 0 0 0 0 0 0 0 0 0 0 0 
0 0 0 0 0 0 0 0 0 0 0 0 0 0 0 0 0 0 0 0 0 0 0 0 4 6 10 22 24 26 87 68 75 66 78 33 33 35 34 38 64 94 105 66 81 69 72 104 90 93 61 57 62 68 56 64 68 75 79 70 107 99 89 102 74 70 111 117 92 69 39 30 31 40 103 80 67 56 20 20 19 11 1 0 0 0 0 0 0 0 0 0 0 0 0 0 0 0 0 0 0 0 0 0 0 0 0 0 0 0 0 0 0 0 0 0 0 0 0 0 0 0 0 0 0 0 0 0 
0 0 0 0 0 0 0 0 0 0 0 0 0 0 0 0 0 0 0 0 0 0 0 0 5 3 5 17 25 31 74 46 67 46 79 39 33 38 40 55 59 93 121 75 72 73 72 94 118 104 58 52 52 54 68 57 62 80 82 81 99 105 95 92 70 74 100 144 90 60 48 39 39 41 91 76 79 72 22 18 19 11 0 0 0 0 0 0 0 0 0 0 0 0 0 0 0 0 0 0 0 0 0 0 0 0 0 0 0 0 0 0 0 0 0 0 0 0 0 0 0 0 0 0 0 0 0 0 
0 0 0 0 0 0 0 0 0 0 0 0 0 0 0 0 0 0 0 0 0 0 0 0 0 3 4 14 21 22 58 87 70 33 70 50 37 39 42 56 44 111 127 76 77 79 78 113 145 96 56 47 45 47 56 58 63 61 72 77 84 109 123 88 74 89 90 128 104 53 52 39 43 43 87 51 76 30 15 17 21 10 0 0 0 0 0 0 0 0 0 0 0 0 0 0 0 0 0 0 0 0 0 0 0 0 0 0 0 0 0 0 0 0 0 0 0 0 0 0 0 0 0 0 0 0 0 0 
0 0 0 0 0 0 0 0 0 0 0 0 0 0 0 0 0 0 0 0 0 0 0 0 0 2 3 8 16 17 24 48 31 19 57 59 40 40 54 53 36 100 131 92 89 67 74 121 150 84 57 53 46 45 39 48 53 62 69 71 82 111 131 111 78 85 90 123 111 54 61 47 40 53 86 34 14 8 13 19 22 9 0 0 0 0 0 0 0 0 0 0 0 0 0 0 0 0 0 0 0 0 0 0 0 0 0 0 0 0 0 0 0 0 0 0 0 0 0 0 0 0 0 0 0 0 0 0 
0 0 0 0 0 0 0 0 0 0 0 0 0 0 0 0 0 0 0 0 0 0 0 0 0 0 4 1 12 17 20 22 14 16 34 80 58 59 80 59 41 94 133 99 92 70 68 115 135 82 54 60 55 58 55 55 54 63 69 61 68 111 139 113 67 68 61 106 124 57 76 91 79 84 78 22 13 10 13 19 18 9 0 0 0 0 0 0 0 0 0 0 0 0 0 0 0 0 0 0 0 0 0 0 0 0 0 0 0 0 0 0 0 0 0 0 0 0 0 0 0 0 0 0 0 0 0 0 
0 0 0 0 0 0 0 0 0 0 0 0 0 0 0 0 0 0 0 0 0 0 0 0 0 0 2 2 4 15 17 22 18 14 16 51 86 91 78 45 45 106 136 93 90 80 73 103 117 85 53 48 51 51 50 55 54 69 61 56 68 94 118 110 72 61 63 113 138 67 56 98 99 86 37 18 13 9 16 18 16 8 0 0 0 0 0 0 0 0 0 0 0 0 0 0 0 0 0 0 0 0 0 0 0 0 0 0 0 0 0 0 0 0 0 0 0 0 0 0 0 0 0 0 0 0 0 0 
0 0 0 0 0 0 0 0 0 0 0 0 0 0 0 0 0 0 0 0 0 0 0 0 0 0 0 5 1 9 17 20 21 16 11 12 28 43 36 32 46 117 148 85 75 87 82 100 96 99 69 58 63 61 66 79 81 63 51 54 76 116 118 108 100 61 46 113 161 88 36 50 52 31 17 18 9 10 16 18 15 7 0 0 0 0 0 0 0 0 0 0 0 0 0 0 0 0 0 0 0 0 0 0 0 0 0 0 0 0 0 0 0 0 0 0 0 0 0 0 0 0 0 0 0 0 0 0 
0 0 0 0 0 0 0 0 0 0 0 0 0 0 0 0 0 0 0 0 0 0 0 0 0 0 0 0 4 5 13 19 25 19 11 13 16 22 23 24 42 111 160 99 66 94 111 95 83 105 76 64 59 53 68 87 84 65 52 57 65 92 104 103 111 91 67 128 166 83 36 38 31 27 19 13 9 12 15 18 15 5 0 0 0 0 0 0 0 0 0 0 0 0 0 0 0 0 0 0 0 0 0 0 0 0 0 0 0 0 0 0 0 0 0 0 0 0 0 0 0 0 0 0 0 0 0 0 
0 0 0 0 0 0 0 0 0 0 0 0 0 0 0 0 0 0 0 0 0 0 0 0 0 0 0 0 3 5 10 16 20 22 11 12 16 20 24 25 29 75 160 145 127 142 123 91 88 113 66 60 55 52 71 88 91 80 64 46 50 73 76 94 118 141 131 162 148 50 35 36 29 24 15 13 13 11 13 17 14 5 0 0 0 0 0 0 0 0 0 0 0 0 0 0 0 0 0 0 0 0 0 0 0 0 0 0 0 0 0 0 0 0 0 0 0 0 0 0 0 0 0 0 0 0 0 0 
0 0 0 0 0 0 0 0 0 0 0 0 0 0 0 0 0 0 0 0 0 0 0 0 0 0 0 0 0 6 7 14 18 22 11 6 12 20 23 29 29 38 117 168 166 167 139 100 104 84 55 56 53 63 81 87 93 87 63 45 42 84 80 86 121 165 179 188 96 28 38 32 28 18 13 14 15 9 14 19 13 4 0 0 0 0 0 0 0 0 0 0 0 0 0 0 0 0 0 0 0 0 0 0 0 0 0 0 0 0 0 0 0 0 0 0 0 0 0 0 0 0 0 0 0 0 0 0 
0 0 0 0 0 0 0 0 0 0 0 0 0 0 0 0 0 0 0 0 0 0 0 0 0 0 0 0 0 7 5 12 15 20 16 4 11 18 25 29 27 31 46 107 175 181 132 87 72 52 50 57 65 76 84 87 87 86 74 44 37 73 91 81 113 177 185 123 53 34 37 36 26 15 12 16 10 10 15 19 11 3 0 0 0 0 0 0 0 0 0 0 0 0 0 0 0 0 0 0 0 0 0 0 0 0 0 0 0 0 0 0 0 0 0 0 0 0 0 0 0 0 0 0 0 0 0 0 
0 0 0 0 0 0 0 0 0 0 0 0 0 0 0 0 0 0 0 0 0 0 0 0 0 0 0 0 0 6 7 10 14 18 18 7 7 18 26 29 27 37 29 34 70 103 93 69 55 39 45 51 61 65 67 68 66 65 55 40 33 62 86 73 78 90 71 66 51 41 30 40 20 18 13 12 13 11 15 19 11 2 0 0 0 0 0 0 0 0 0 0 0 0 0 0 0 0 0 0 0 0 0 0 0 0 0 0 0 0 0 0 0 0 0 0 0 0 0 0 0 0 0 0 0 0 0 0 
