P2
128 99
220
0 0 0 0 0 0 0 0 0 0 0 0 0 0 0 0 0 0 0 0 0 0 0 0 0 0 0 0 0 0 0 0 6 8 4 0 0 0 0 0 0 0 0 0 0 0 0 0 0 0 0 0 0 0 0 0 0 0 0 0 0 0 0 0 0 0 0 0 0 0 0 0 0 0 0 0 0 0 0 0 0 0 0 0 0 0 0 0 0 0 0 0 4 7 8 10 0 0 0 0 0 0 0 0 0 0 0 0 0 0 0 0 0 0 0 0 0 0 0 0 0 0 0 0 0 0 0 0 
0 0 0 0 0 0 0 0 0 0 0 0 0 0 0 0 0 0 0 0 0 0 0 0 0 0 0 0 0 0 0 0 6 8 4 0 0 0 0 0 0 0 0 0 0 0 0 0 0 0 0 0 0 0 0 0 0 0 0 0 0 0 0 0 0 0 0 0 0 0 0 0 0 0 0 0 0 0 0 0 0 0 0 0 0 0 0 0 0 0 0 0 4 7 8 9 0 0 0 0 0 0 0 0 0 0 0 0 0 0 0 0 0 0 0 0 0 0 0 0 0 0 0 0 0 0 0 0 
0 0 0 0 0 0 0 0 0 0 0 0 0 0 0 0 0 0 0 0 0 0 0 0 0 0 0 0 0 0 0 0 5 7 4 0 0 0 0 0 0 0 0 0 0 0 0 0 0 0 0 0 1 3 2 0 0 0 0 0 0 0 0 0 0 0 0 0 0 0 0 0 0 0 0 0 0 0 0 0 0 0 0 0 0 0 0 0 0 0 0 0 3 6 8 10 0 0 0 0 0 0 0 0 0 0 0 0 0 0 0 0 0 0 0 0 0 0 0 0 0 0 0 0 0 0 0 0 
0 0 0 0 0 0 0 0 0 0 0 0 0 0 0 0 0 0 0 0 0 0 0 0 0 0 0 0 0 0 0 0 4 6 3 0 0 0 0 0 0 0 0 0 10 16 16 14 19 22 24 24 25 21 22 22 23 21 12 7 4 0 0 0 0 0 0 0 0 0 0 0 0 0 0 0 0 0 0 0 0 0 0 0 0 0 0 0 0 0 0 0 3 7 8 10 0 0 0 0 0 0 0 0 0 0 0 0 0 0 0 0 0 0 0 0 0 0 0 0 0 0 0 0 0 0 0 0 
0 0 0 0 0 0 0 0 0 0 0 0 0 0 0 0 0 0 0 0 0 0 0 0 0 0 0 0 0 0 0 0 3 4 1 0 0 0 0 0 2 12 20 18 27 36 51 67 85 108 125 138 144 145 144 136 125 105 77 51 33 27 13 8 3 0 0 0 0 0 0 0 0 0 0 0 0 0 0 0 0 0 0 0 0 0 0 0 0 0 0 0 3 6 7 9 0 0 0 0 0 0 0 0 0 0 0 0 0 0 0 0 0 0 0 0 0 0 0 0 0 0 0 0 0 0 0 0 
0 0 0 0 0 0 0 0 0 0 0 0 0 0 0 0 0 0 0 0 0 0 0 0 0 0 0 0 0 0 0 0 3 3 0 0 0 0 3 20 19 28 35 61 93 130 160 174 177 170 162 154 150 147 146 145 147 151 156 162 152 118 74 38 27 12 8 1 0 0 0 0 0 0 0 0 0 0 0 0 0 0 0 0 0 0 0 0 0 0 0 0 3 6 7 10 0 0 0 0 0 0 0 0 0 0 0 0 0 0 0 0 0 0 0 0 0 0 0 0 0 0 0 0 0 0 0 0 
0 0 0 0 0 0 0 0 0 0 0 0 0 0 0 0 0 0 0 0 0 0 0 0 0 0 0 0 0 0 0 0 2 1 0 0 4 23 21 28 44 82 128 166 185 181 159 143 145 159 166 170 171 171 173 175 174 170 163 152 145 148 160 158 121 66 30 17 7 2 0 0 0 0 0 0 0 0 0 0 0 0 0 0 0 0 0 0 0 0 0 0 3 7 8 9 0 0 0 0 0 0 0 0 0 0 0 0 0 0 0 0 0 0 0 0 0 0 0 0 0 0 0 0 0 0 0 0 
0 0 0 0 0 0 0 0 0 0 0 0 0 0 0 0 0 0 0 0 0 0 0 0 0 0 0 0 0 0 0 0 2 2 7 26 22 27 53 102 146 178 184 158 142 149 159 164 165 165 164 165 161 149 142 150 160 172 177 178 175 166 154 145 151 164 146 89 39 20 8 1 0 0 0 0 0 0 0 0 0 0 0 0 0 0 0 0 0 0 0 0 4 7 8 10 0 0 0 0 0 0 0 0 0 0 0 0 0 0 0 0 0 0 0 0 0 0 0 0 0 0 0 0 0 0 0 0 
0 0 0 0 0 0 0 0 0 0 0 0 0 0 0 0 0 0 0 0 0 0 0 0 0 0 0 0 0 0 0 0 8 26 21 25 51 105 153 181 175 150 155 172 180 180 170 164 156 140 139 144 148 140 136 139 147 161 172 179 177 175 174 168 158 147 144 163 153 91 39 25 6 0 0 0 0 0 0 0 0 0 0 0 0 0 0 0 0 0 0 0 5 8 8 10 0 0 0 0 0 0 0 0 0 0 0 0 0 0 0 0 0 0 0 0 0 0 0 0 0 0 0 0 0 0 0 0 
0 0 0 0 0 0 0 0 0 0 0 0 0 0 0 0 0 0 0 0 0 0 0 0 0 0 0 0 0 0 0 23 22 21 41 100 148 176 172 148 157 177 188 180 165 150 141 136 142 141 118 113 109 109 123 126 134 134 137 155 177 184 182 178 173 169 158 149 148 164 146 70 29 16 3 0 0 0 0 0 0 0 0 0 0 0 0 0 0 0 0 0 5 8 8 10 0 0 0 0 0 0 0 0 0 0 0 0 0 0 0 0 0 0 0 0 0 0 0 0 0 0 0 0 0 0 0 0 
0 0 0 0 0 0 0 0 0 0 0 0 0 0 0 0 0 0 0 0 0 0 0 0 0 0 0 0 0 12 23 16 37 85 136 168 177 150 154 178 187 177 164 154 134 115 92 97 128 161 166 173 177 183 190 194 181 157 139 134 138 160 173 182 185 178 174 173 163 149 152 165 114 43 21 4 0 0 0 0 0 0 0 0 0 0 0 0 0 0 0 1 5 8 8 10 0 0 0 0 0 0 0 0 0 0 0 0 0 0 0 0 0 0 0 0 0 0 0 0 0 0 0 0 0 0 0 0 
0 0 0 0 0 0 0 0 0 0 0 0 0 0 0 0 0 0 0 0 0 0 0 0 0 0 0 0 21 19 25 52 115 155 174 155 156 176 185 176 158 153 141 126 120 121 140 156 165 155 165 176 172 153 144 155 160 164 171 170 166 166 171 165 170 179 183 185 179 172 161 149 160 147 62 23 8 0 0 0 0 0 0 0 0 0 0 0 0 0 0 0 4 7 8 10 0 0 0 0 0 0 0 0 0 0 0 0 0 0 0 0 0 0 0 0 0 0 0 0 0 0 0 0 0 0 0 0 
0 0 0 0 0 0 0 0 0 0 0 0 0 0 0 0 0 0 0 0 0 0 0 0 0 0 4 23 23 26 74 130 160 170 155 172 184 181 162 152 154 145 152 168 175 172 162 154 149 133 132 142 147 147 150 158 166 162 160 154 150 171 203 207 192 178 173 181 186 183 178 167 151 150 156 77 25 11 0 0 0 0 0 0 0 0 0 0 0 0 0 0 5 8 9 10 0 0 0 0 0 0 0 0 0 0 0 0 0 0 0 0 0 0 0 0 0 0 0 0 0 0 0 0 0 0 0 0 
0 0 0 0 0 0 0 0 0 0 0 0 0 0 0 0 0 0 0 0 0 0 0 0 0 9 22 22 28 88 138 164 164 164 182 183 167 149 151 163 179 189 182 171 166 166 167 164 153 148 140 130 128 130 131 134 141 152 162 167 165 163 173 192 198 203 201 182 175 178 183 180 173 156 148 160 84 23 12 0 0 0 0 0 0 0 0 0 0 0 0 1 5 8 8 11 0 0 0 0 0 0 0 0 0 0 0 0 0 0 0 0 0 0 0 0 0 0 0 0 0 0 0 0 0 0 0 0 
0 0 0 0 0 0 0 0 0 0 0 0 0 0 0 0 0 0 0 0 0 0 0 0 11 19 20 35 102 138 168 163 171 186 176 154 147 161 186 195 182 169 165 157 147 142 135 123 120 119 104 90 87 104 110 106 103 109 116 114 116 122 139 162 187 195 198 209 197 170 172 178 185 179 155 144 161 90 24 12 0 0 0 0 0 0 0 0 0 0 0 1 5 8 8 10 0 0 0 0 0 0 0 0 0 0 0 0 0 0 0 0 0 0 0 0 0 0 0 0 0 0 0 0 0 0 0 0 
0 0 0 0 0 0 0 0 0 0 0 0 0 0 0 0 0 0 0 0 0 0 1 18 17 17 38 109 137 169 164 176 185 166 146 152 185 203 181 167 156 144 128 115 114 115 117 115 100 100 89 82 77 91 97 87 82 82 98 114 113 111 109 112 127 162 193 195 198 203 172 161 172 181 181 156 145 163 99 28 11 0 0 0 0 0 0 0 0 0 0 1 5 8 8 9 0 0 0 0 0 0 0 0 0 0 0 0 0 0 0 0 0 0 0 0 0 0 0 0 0 0 0 0 0 0 0 0 
0 0 0 0 0 0 0 0 0 0 0 0 0 0 0 0 0 0 0 0 0 7 17 14 21 51 119 136 170 158 176 179 156 148 162 195 194 166 150 138 120 108 113 117 115 119 109 91 87 90 87 86 80 82 91 88 84 81 80 86 102 113 113 108 105 111 134 173 192 189 198 174 160 170 178 184 163 151 166 102 28 10 0 0 0 0 0 0 0 0 0 1 5 8 8 10 0 0 0 0 0 0 0 0 0 0 0 0 0 0 0 0 0 0 0 0 0 0 0 0 0 0 0 0 0 0 0 0 
0 0 0 0 0 0 0 0 0 0 0 0 0 0 0 0 0 0 0 0 9 16 11 20 63 122 141 176 158 178 176 143 152 169 194 182 157 139 116 107 113 114 120 115 99 80 68 74 70 68 80 88 88 86 82 84 89 92 88 85 81 84 99 106 103 101 103 113 141 179 179 184 170 157 168 175 188 164 150 167 106 30 6 0 0 0 0 0 0 0 0 1 5 8 8 10 0 0 0 0 0 0 0 0 0 0 0 0 0 0 0 0 0 0 0 0 0 0 0 0 0 0 0 0 0 0 0 0 
0 0 0 0 0 0 0 0 0 0 0 0 0 0 0 0 0 0 0 7 14 10 22 70 121 140 183 162 175 173 138 147 166 182 169 153 130 108 106 109 113 114 103 80 68 68 73 77 82 82 88 95 96 92 94 94 98 104 111 115 112 102 90 85 93 100 104 103 106 127 173 181 193 154 142 167 175 187 153 153 160 100 28 3 0 0 0 0 0 0 0 1 5 7 8 11 0 0 0 0 0 0 0 0 0 0 0 0 0 0 0 0 0 0 0 0 0 0 0 0 0 0 0 0 0 0 0 0 
0 0 0 0 0 0 0 0 0 0 0 0 0 0 0 0 0 0 5 16 11 26 78 121 138 181 163 170 165 136 153 164 175 168 143 118 100 108 110 112 108 85 73 80 87 88 91 94 96 92 89 97 93 93 92 91 91 90 92 100 111 120 122 108 86 76 98 106 104 103 129 172 189 191 141 135 163 175 181 144 160 147 95 23 3 0 0 0 0 0 0 1 5 8 9 11 0 0 0 0 0 0 0 0 0 0 0 0 0 0 0 0 0 0 0 0 0 0 0 0 0 0 0 0 0 0 0 0 
0 0 0 0 0 0 0 0 0 0 0 0 0 0 0 0 0 1 15 10 28 87 120 142 177 173 163 161 131 148 162 165 169 144 116 102 103 112 102 89 81 86 95 97 92 89 88 87 86 84 83 86 83 83 82 84 84 84 81 83 87 92 108 122 117 96 82 98 101 94 100 131 177 195 189 133 129 158 179 176 158 170 135 86 15 0 0 0 0 0 0 1 5 8 9 12 0 0 0 0 0 0 0 0 0 0 0 0 0 0 0 0 0 0 0 0 0 0 0 0 0 0 0 0 0 0 0 0 
0 0 0 0 0 0 0 0 0 0 0 0 0 0 0 0 0 15 8 23 86 116 136 176 182 163 162 136 150 158 163 168 146 128 98 105 107 93 83 85 93 99 93 89 88 90 87 83 84 84 82 82 84 83 82 83 84 82 84 86 85 85 91 99 112 119 98 80 95 98 89 91 129 169 187 179 128 127 159 179 166 167 151 118 57 5 0 0 0 0 0 1 6 9 9 11 0 0 0 0 0 0 0 0 0 0 0 0 0 0 0 0 0 0 0 0 0 0 0 0 0 0 0 0 0 0 0 0 
0 0 0 0 0 0 0 0 0 0 0 0 0 0 0 0 9 12 18 70 121 125 168 178 161 155 135 138 156 165 167 136 129 104 102 105 90 78 81 93 100 95 95 94 92 92 93 87 88 86 83 86 88 90 95 95 95 93 90 89 91 90 88 89 93 103 110 91 76 84 96 89 94 132 162 193 169 128 127 161 172 162 166 132 99 24 1 0 0 0 0 1 6 9 9 11 0 0 0 0 0 0 0 0 0 0 0 0 0 0 0 0 0 0 0 0 0 0 0 0 0 0 0 0 0 0 0 0 
0 0 0 0 0 0 0 0 0 0 0 0 0 0 0 0 16 14 47 122 110 162 165 167 144 132 131 150 163 169 133 128 107 105 102 84 68 70 88 96 95 92 95 95 99 98 97 96 97 95 98 103 106 111 120 125 125 118 112 106 107 106 100 89 86 94 104 105 83 75 76 85 90 109 145 169 194 150 128 137 166 160 175 146 122 73 5 0 0 0 0 1 5 9 9 12 0 0 0 0 0 0 0 0 0 0 0 0 0 0 0 0 0 0 0 0 0 0 0 0 0 0 0 0 0 0 0 0 
0 0 0 0 0 0 0 0 0 0 0 0 0 0 0 8 9 23 106 111 148 161 169 143 134 134 151 143 167 143 131 107 104 90 80 63 60 84 96 97 99 99 106 107 103 100 105 105 104 109 116 122 130 141 147 152 149 145 138 132 125 121 121 109 93 87 94 106 97 78 76 76 82 97 125 150 183 172 135 130 149 152 167 163 131 115 27 0 0 0 0 1 6 9 8 11 0 0 0 0 0 0 0 0 0 0 0 0 0 0 0 0 0 0 0 0 0 0 0 0 0 0 0 0 0 0 0 0 
0 0 0 0 0 0 0 0 0 0 0 0 0 0 2 10 8 69 123 123 165 160 161 124 131 146 135 149 156 137 118 92 91 81 61 55 82 102 106 114 120 126 129 125 118 114 130 131 136 140 150 148 145 155 147 146 146 146 141 137 132 129 126 122 108 95 85 96 103 93 82 74 76 89 102 134 165 179 137 130 141 142 155 180 137 125 70 5 0 0 0 1 6 8 8 11 0 0 0 0 0 0 0 0 0 0 0 0 0 0 0 0 0 0 0 0 0 0 0 0 0 0 0 0 0 0 0 0 
0 0 0 0 0 0 0 0 0 0 0 0 0 0 6 8 31 120 103 154 154 163 130 133 145 133 120 165 141 122 95 88 88 67 59 85 114 122 131 133 136 136 132 133 134 138 141 131 128 133 155 151 137 136 125 131 131 132 134 132 133 127 128 125 125 115 90 84 99 102 89 79 73 82 92 116 149 183 138 121 135 139 138 186 152 125 106 14 0 0 0 1 6 8 8 11 0 0 0 0 0 0 0 0 0 0 0 0 0 0 0 0 0 0 0 0 0 0 0 0 0 0 0 0 0 0 0 0 
0 0 0 0 0 0 0 0 0 0 0 0 0 0 7 13 81 122 121 155 154 153 132 149 138 106 132 154 128 106 86 77 67 65 91 124 134 134 143 142 136 131 129 128 124 123 122 128 125 124 133 125 120 122 118 122 121 119 119 119 122 126 127 126 128 129 111 87 86 100 96 88 82 79 88 98 127 169 147 96 131 147 132 174 162 128 120 38 2 0 0 1 6 8 9 11 0 0 0 0 0 0 0 0 0 0 0 0 0 0 0 0 0 0 0 0 0 0 0 0 0 0 0 0 0 0 0 0 
0 0 0 0 0 0 0 0 0 0 0 0 0 2 8 28 116 112 141 147 149 144 139 154 119 102 134 143 121 92 83 70 67 97 126 136 131 140 147 140 125 124 122 118 117 116 119 125 124 118 111 108 113 110 114 120 116 115 115 115 118 122 123 123 121 128 123 107 87 94 99 93 83 79 82 95 113 154 160 90 112 154 140 168 174 132 120 65 4 0 0 1 5 8 9 11 0 0 0 0 0 0 0 0 0 0 0 0 0 0 0 0 0 0 0 0 0 0 0 0 0 0 0 0 0 0 0 0 
0 0 0 0 0 0 0 0 0 0 0 0 0 2 9 57 122 117 149 147 140 145 152 130 100 91 134 134 111 88 77 62 93 127 137 137 143 143 144 131 120 118 117 117 113 116 126 129 128 123 117 114 113 115 115 119 118 118 113 115 114 115 116 117 114 117 125 120 100 88 97 94 84 83 79 94 105 132 157 103 86 141 139 152 176 141 118 85 7 0 0 2 6 9 10 11 0 0 0 0 0 0 0 0 0 0 0 0 0 0 0 0 0 0 0 0 0 0 0 0 0 0 0 0 0 0 0 0 
0 0 0 0 0 0 0 0 0 0 0 0 0 5 15 85 115 133 150 139 139 143 149 105 92 90 140 134 109 83 61 76 126 144 136 137 140 132 134 124 119 116 119 118 115 120 124 124 128 123 120 116 110 114 118 121 120 118 115 115 113 113 114 116 117 114 125 128 115 91 94 103 92 82 80 93 105 135 152 113 86 131 143 148 175 145 112 97 10 0 0 1 6 9 10 12 0 0 0 0 0 0 0 0 0 0 0 0 0 0 0 0 0 0 0 0 0 0 0 0 0 0 0 0 0 0 0 0 
0 0 0 0 0 0 0 0 0 0 0 0 0 7 30 111 111 141 147 122 145 145 125 97 81 97 143 134 102 66 61 111 144 139 123 133 132 122 119 115 122 128 126 116 112 112 113 117 120 121 123 118 114 117 120 124 121 120 119 114 116 118 116 117 117 116 125 133 124 105 89 98 105 93 83 89 105 133 147 109 95 138 149 150 176 151 111 107 15 0 0 2 6 9 9 12 0 0 0 0 0 0 0 0 0 0 0 0 0 0 0 0 0 0 0 0 0 0 0 0 0 0 0 0 0 0 0 0 
0 0 0 0 0 0 0 0 0 0 0 0 0 9 43 122 114 147 140 118 145 139 116 94 76 104 141 130 85 55 87 134 140 127 122 134 128 115 107 108 121 130 132 122 113 112 109 115 125 134 139 139 139 144 145 142 140 136 123 119 125 125 122 120 122 134 131 128 118 120 100 89 99 104 91 92 106 123 145 101 97 137 148 145 180 159 123 114 29 0 0 2 6 9 9 12 0 0 0 0 0 0 0 0 0 0 0 0 0 0 0 0 0 0 0 0 0 0 0 0 0 0 0 0 0 0 0 0 
0 0 0 0 0 0 0 0 0 0 0 0 0 10 53 121 120 141 120 119 148 127 110 93 76 108 139 124 64 57 114 140 134 122 123 129 130 117 112 109 116 126 134 130 119 116 119 122 144 162 176 180 179 184 182 177 172 167 146 136 142 140 140 141 136 121 116 108 116 121 115 90 90 102 104 91 107 120 141 97 100 138 150 144 179 167 131 120 44 1 0 1 6 9 9 12 0 0 0 0 0 0 0 0 0 0 0 0 0 0 0 0 0 0 0 0 0 0 0 0 0 0 0 0 0 0 0 0 
0 0 0 0 0 0 0 0 0 0 0 0 1 10 60 121 128 148 118 130 150 115 112 98 80 108 139 110 50 73 133 138 128 116 121 127 131 126 122 120 124 135 137 135 126 120 126 138 162 177 190 193 194 185 176 175 167 173 165 150 148 141 137 125 120 119 113 111 123 124 123 98 77 91 105 106 93 124 131 88 102 140 151 141 172 171 139 126 53 3 0 1 6 9 9 13 0 0 0 0 0 0 0 0 0 0 0 0 0 0 0 0 0 0 0 0 0 0 0 0 0 0 0 0 0 0 0 0 
0 0 0 0 0 0 0 0 0 0 0 0 4 10 72 124 137 150 114 138 157 107 115 100 85 107 132 98 55 91 137 129 121 118 119 123 130 137 137 136 142 141 138 130 131 140 142 152 166 177 183 184 186 162 143 142 128 149 169 161 155 135 122 123 123 118 116 116 117 114 117 109 84 77 93 119 108 130 117 84 104 141 153 139 173 176 143 129 56 4 0 2 7 10 9 13 0 0 0 0 0 0 0 0 0 0 0 0 0 0 0 0 0 0 0 0 0 0 0 0 0 0 0 0 0 0 0 0 
0 0 0 0 0 0 0 0 0 0 0 0 6 9 80 120 143 149 113 155 156 98 118 102 92 102 127 94 68 107 139 128 128 128 121 118 114 113 120 123 128 130 130 114 113 132 150 151 159 167 174 174 179 127 100 105 96 123 156 150 145 126 126 125 120 115 99 101 109 109 109 101 82 86 85 112 138 139 97 87 109 141 141 139 174 179 146 132 62 5 0 2 6 9 9 12 0 0 0 0 0 0 0 0 0 0 0 0 0 0 0 0 0 0 0 0 0 0 0 0 0 0 0 0 0 0 0 0 
0 0 0 0 0 0 0 0 0 0 0 0 6 6 87 121 147 148 117 161 164 102 115 107 95 95 120 80 80 119 135 124 135 129 112 112 112 114 115 113 109 106 105 111 110 124 138 142 145 155 166 163 163 105 82 99 105 124 145 127 125 132 127 118 116 107 106 110 113 114 109 103 76 61 90 112 160 158 94 96 113 136 128 132 176 181 148 137 71 6 0 2 6 9 9 12 0 0 0 0 0 0 0 0 0 0 0 0 0 0 0 0 0 0 0 0 0 0 0 0 0 0 0 0 0 0 0 0 
0 0 0 0 0 0 0 0 0 0 0 0 6 7 93 117 150 145 116 161 167 104 110 112 98 92 104 76 89 128 132 131 139 120 105 107 113 117 117 112 110 100 94 93 98 113 109 115 120 149 162 152 144 131 121 129 133 143 120 104 119 117 116 115 120 118 119 113 118 120 111 111 91 72 97 134 158 154 119 107 119 123 123 130 177 181 145 138 84 9 0 2 6 9 9 12 0 0 0 0 0 0 0 0 0 0 0 0 0 0 0 0 0 0 0 0 0 0 0 0 0 0 0 0 0 0 0 0 
0 0 0 0 0 0 0 0 0 0 0 0 9 10 96 114 149 136 118 166 161 103 109 113 108 93 88 110 106 137 134 136 122 109 104 110 116 117 115 114 109 98 91 88 89 96 97 90 88 120 146 142 139 136 143 140 147 128 77 74 98 109 113 116 122 122 122 123 128 135 137 138 120 95 95 123 150 144 143 123 118 117 119 134 167 179 145 137 96 12 0 2 6 9 10 11 0 0 0 0 0 0 0 0 0 0 0 0 0 0 0 0 0 0 0 0 0 0 0 0 0 0 0 0 0 0 0 0 
0 0 0 0 0 0 0 0 0 0 0 0 8 14 94 114 158 151 127 160 158 113 106 108 108 95 80 111 146 145 137 129 121 107 99 111 117 118 117 115 105 92 82 85 86 87 90 82 77 101 141 144 143 122 147 149 149 112 65 63 70 98 117 126 141 149 147 146 151 156 141 132 116 105 88 97 133 125 148 133 122 116 109 137 159 178 145 136 103 20 0 2 6 9 9 12 0 0 0 0 0 0 0 0 0 0 0 0 0 0 0 0 0 0 0 0 0 0 0 0 0 0 0 0 0 0 0 0 
0 0 0 0 0 0 0 0 0 0 0 0 6 16 92 113 157 149 123 147 156 116 106 105 111 106 79 85 145 166 152 128 131 124 121 124 130 139 139 126 120 112 90 78 79 82 81 85 73 88 131 141 135 92 131 142 134 97 60 65 67 92 127 143 143 140 139 145 147 152 144 138 129 99 71 80 107 127 147 136 119 114 104 129 146 169 145 139 107 28 2 2 6 9 10 12 0 0 0 0 0 0 0 0 0 0 0 0 0 0 0 0 0 0 0 0 0 0 0 0 0 0 0 0 0 0 0 0 
0 0 0 0 0 0 0 0 0 0 0 0 6 17 93 115 157 142 104 144 156 122 101 99 115 107 65 73 139 161 164 148 142 144 146 147 149 144 131 118 114 125 112 85 73 72 71 72 61 84 128 121 109 81 99 121 122 100 60 62 67 98 123 124 121 119 123 137 147 154 155 139 115 86 68 74 91 119 134 130 119 112 100 109 129 159 132 139 110 37 3 2 7 11 11 13 0 0 0 0 0 0 0 0 0 0 0 0 0 0 0 0 0 0 0 0 0 0 0 0 0 0 0 0 0 0 0 0 
0 0 0 0 0 0 0 0 0 0 0 0 9 17 101 121 161 140 105 148 153 120 85 92 109 109 73 76 123 160 151 136 142 140 137 132 133 131 125 96 82 77 81 91 84 67 65 60 56 83 122 100 71 77 70 97 124 98 58 65 88 83 105 119 117 119 119 126 145 149 142 135 107 72 64 64 90 117 133 124 112 106 104 107 122 155 136 140 112 43 2 2 7 10 11 14 0 0 0 0 0 0 0 0 0 0 0 0 0 0 0 0 0 0 0 0 0 0 0 0 0 0 0 0 0 0 0 0 
0 0 0 0 0 0 0 0 0 0 0 0 9 18 102 119 159 135 95 149 144 102 76 90 104 103 73 94 114 147 147 138 144 141 134 136 131 130 112 75 69 67 64 62 78 95 77 59 56 87 134 96 52 55 62 77 127 124 90 87 64 77 98 111 117 119 121 123 139 151 142 126 98 70 55 63 89 116 130 118 111 97 105 101 103 150 134 137 114 53 2 2 7 10 11 13 0 0 0 0 0 0 0 0 0 0 0 0 0 0 0 0 0 0 0 0 0 0 0 0 0 0 0 0 0 0 0 0 
0 0 0 0 0 0 0 0 0 0 0 0 10 21 104 120 156 128 102 155 134 87 75 91 102 92 67 94 102 138 155 137 140 141 136 136 132 128 105 73 66 60 54 53 60 68 92 76 69 112 158 132 112 104 102 111 113 129 87 68 59 75 99 112 115 119 119 127 143 152 142 115 80 65 50 68 93 120 124 117 110 94 111 100 106 146 122 139 114 59 3 1 6 10 10 12 0 0 0 0 0 0 0 0 0 0 0 0 0 0 0 0 0 0 0 0 0 0 0 0 0 0 0 0 0 0 0 0 
0 0 0 0 0 0 0 0 0 0 0 0 10 18 99 121 149 118 112 155 106 83 77 96 101 81 67 95 90 121 158 148 134 134 131 136 139 139 111 83 69 62 62 61 60 58 77 79 47 85 107 91 68 52 50 51 80 108 56 68 71 85 108 120 118 120 123 131 145 152 137 100 71 52 49 73 106 131 140 121 106 89 112 104 104 135 111 130 113 64 2 2 7 9 9 12 0 0 0 0 0 0 0 0 0 0 0 0 0 0 0 0 0 0 0 0 0 0 0 0 0 0 0 0 0 0 0 0 
0 0 0 0 0 0 0 0 0 0 0 0 10 18 95 121 139 116 117 143 94 84 80 100 102 82 67 93 90 105 148 158 136 133 133 134 138 143 129 92 65 58 63 62 61 57 69 58 46 83 95 75 51 48 52 46 70 92 61 82 90 93 111 123 121 123 129 138 153 153 128 81 70 50 52 77 128 150 144 124 104 91 116 102 106 131 107 134 107 64 2 1 6 9 10 12 0 0 0 0 0 0 0 0 0 0 0 0 0 0 0 0 0 0 0 0 0 0 0 0 0 0 0 0 0 0 0 0 
0 0 0 0 0 0 0 0 0 0 0 0 6 18 90 120 130 117 114 146 96 84 79 96 97 82 69 91 85 90 141 157 139 131 129 125 134 145 141 96 64 56 53 55 63 68 63 44 46 86 95 63 52 45 49 54 62 91 76 65 84 99 113 119 119 120 131 146 157 150 112 72 66 50 53 86 141 145 147 133 98 98 120 104 108 124 105 138 108 65 1 1 6 9 10 12 0 0 0 0 0 0 0 0 0 0 0 0 0 0 0 0 0 0 0 0 0 0 0 0 0 0 0 0 0 0 0 0 
0 0 0 0 0 0 0 0 0 0 0 0 4 18 84 118 125 117 118 146 99 84 78 89 94 80 68 91 83 81 127 155 146 131 121 123 130 145 138 97 62 55 55 56 61 57 57 44 46 89 78 66 59 57 52 46 47 84 91 52 71 92 115 126 124 127 135 148 156 146 99 72 62 47 51 82 128 138 148 141 92 100 118 103 109 124 111 137 106 64 0 1 5 8 9 12 0 0 0 0 0 0 0 0 0 0 0 0 0 0 0 0 0 0 0 0 0 0 0 0 0 0 0 0 0 0 0 0 
0 0 0 0 0 0 0 0 0 0 0 0 0 17 85 115 125 124 117 147 104 80 83 90 97 80 71 92 86 79 121 155 147 140 119 124 133 138 126 94 58 54 56 52 50 55 49 42 50 102 96 80 66 73 69 52 53 47 98 64 64 94 106 123 127 130 133 148 154 139 91 76 51 44 51 81 116 128 142 141 85 99 113 104 106 117 129 140 106 61 0 0 5 8 9 12 0 0 0 0 0 0 0 0 0 0 0 0 0 0 0 0 0 0 0 0 0 0 0 0 0 0 0 0 0 0 0 0 
0 0 0 0 0 0 0 0 0 13 11 0 1 14 82 112 125 129 114 141 105 72 86 90 100 85 70 93 88 84 117 147 145 141 128 125 127 131 115 91 65 49 45 48 53 72 61 50 76 88 99 79 66 85 82 50 47 49 75 90 95 149 141 133 128 136 143 155 150 129 81 69 49 44 59 93 116 127 137 137 85 100 109 104 106 103 134 137 104 56 0 1 5 9 10 13 0 0 0 0 0 0 0 0 0 0 0 0 0 0 0 0 0 0 0 0 0 0 0 0 0 0 0 0 0 0 0 0 
0 0 0 0 0 0 0 0 0 0 6 3 1 13 77 110 133 131 109 138 117 68 84 87 101 93 80 96 95 93 112 143 143 131 130 126 128 127 106 83 71 60 70 68 76 94 71 50 70 73 101 89 75 97 87 62 51 45 76 127 121 157 185 170 142 128 136 147 154 124 72 63 47 45 63 106 123 133 136 124 91 84 107 105 113 88 142 130 104 52 1 1 5 9 9 12 0 0 0 0 0 0 0 0 0 0 0 0 0 0 0 0 0 0 0 0 0 0 0 0 0 0 0 0 0 0 0 0 
0 0 0 0 0 0 0 0 0 0 0 10 2 12 67 103 128 118 105 126 131 65 75 84 99 97 88 100 94 67 82 134 143 121 129 126 123 124 107 91 79 92 98 96 117 115 53 48 79 71 110 96 103 125 100 72 57 65 119 149 146 157 113 129 173 175 173 156 153 126 88 73 68 67 81 122 128 127 125 115 120 111 111 120 96 87 144 113 106 45 0 0 5 9 10 12 0 0 0 0 0 0 0 0 0 0 0 0 0 0 0 0 0 0 0 0 0 0 0 0 0 0 0 0 0 0 0 0 
0 0 0 0 0 0 0 0 0 0 0 17 5 11 58 103 125 112 100 106 149 105 65 84 95 101 99 104 86 55 74 117 147 136 131 122 121 121 122 116 98 113 102 91 105 100 44 73 115 88 112 101 113 137 118 92 67 69 76 126 163 128 111 114 121 150 180 189 189 152 128 111 108 102 112 132 117 117 118 118 130 108 138 131 68 112 141 101 106 30 0 0 7 22 14 11 0 0 0 0 0 0 0 0 0 0 0 0 0 0 0 0 0 0 0 0 0 0 0 0 0 0 0 0 0 0 0 0 
0 0 0 0 0 0 0 0 0 0 2 19 3 8 46 105 120 117 95 102 141 133 64 68 88 99 110 108 80 51 67 107 134 151 170 175 176 176 180 153 121 110 61 56 95 87 80 70 94 107 109 112 123 149 132 109 86 77 69 127 142 120 119 117 114 146 195 196 187 161 143 134 106 80 115 115 118 111 112 118 132 122 157 116 59 127 139 90 110 22 1 0 10 8 9 12 0 0 0 0 0 0 0 0 0 0 0 0 0 0 0 0 0 0 0 0 0 0 0 0 0 0 0 0 0 0 0 0 
0 0 0 0 0 0 0 0 0 0 2 16 0 8 31 102 113 134 98 99 124 146 81 54 78 95 113 120 85 46 51 90 127 166 189 193 176 170 170 143 123 112 72 90 76 100 97 65 106 126 124 121 143 151 133 117 95 90 88 133 138 126 127 126 126 175 204 203 185 152 125 133 111 107 122 101 99 98 114 123 143 148 154 127 135 155 93 70 102 14 5 4 11 9 9 12 0 0 0 0 0 0 0 0 0 0 0 0 0 0 0 0 0 0 0 0 0 0 0 0 0 0 0 0 0 0 0 0 
0 0 0 0 0 0 0 0 0 0 2 18 0 7 22 91 105 139 112 98 112 149 127 69 63 94 124 128 105 61 54 80 123 160 185 188 190 172 161 157 139 133 99 62 67 88 115 96 127 146 128 126 141 143 133 126 105 109 100 136 130 123 134 135 141 152 189 177 152 141 128 120 139 148 139 131 119 122 156 157 154 154 155 122 174 138 41 65 79 6 6 4 12 9 10 13 0 0 0 0 0 0 0 0 0 0 0 0 0 0 0 0 0 0 0 0 0 0 0 0 0 0 0 0 0 0 0 0 
0 0 0 0 0 0 0 0 0 0 1 17 0 5 16 73 95 138 121 104 116 175 188 123 76 90 135 126 113 86 77 81 119 149 167 165 169 173 175 155 136 124 95 79 81 85 104 107 125 138 119 123 123 131 131 132 119 119 118 143 147 125 127 125 138 152 178 146 117 130 135 133 141 138 111 108 89 108 169 174 160 148 143 161 183 142 84 82 42 6 2 0 13 9 10 13 0 0 0 0 0 0 0 0 0 0 0 0 0 0 0 0 0 0 0 0 0 0 0 0 0 0 0 0 0 0 0 0 
0 0 0 0 0 0 0 0 0 0 3 17 0 4 7 48 89 129 136 105 128 192 204 142 115 111 155 135 106 93 100 87 102 135 160 172 182 178 159 137 141 134 119 110 106 117 134 114 124 133 108 113 118 136 143 131 123 126 127 136 152 146 136 154 154 160 157 107 112 141 147 130 127 124 109 88 79 110 171 171 150 154 151 149 140 90 73 75 17 0 0 0 12 9 10 14 0 0 0 0 0 0 0 0 0 0 0 0 0 0 0 0 0 0 0 0 0 0 0 0 0 0 0 0 0 0 0 0 
0 0 0 0 0 0 0 0 0 0 0 15 2 0 8 11 66 99 144 140 118 160 195 188 149 139 143 156 142 138 135 130 115 119 107 134 158 165 156 135 132 133 149 129 125 140 142 134 122 123 118 116 122 138 147 137 124 127 133 135 136 142 175 186 181 169 149 132 129 133 124 121 120 122 128 117 81 114 158 185 172 171 126 148 143 103 78 81 16 0 0 0 3 14 11 16 0 0 0 0 0 0 0 0 0 0 0 0 0 0 0 0 0 0 0 0 0 0 0 0 0 0 0 0 0 0 0 0 
0 0 0 0 0 0 0 0 0 0 0 14 0 0 7 10 48 95 132 150 141 154 161 188 192 178 170 167 144 109 109 127 135 113 88 102 136 157 149 135 136 138 146 140 132 139 154 128 119 105 105 110 114 138 141 132 125 124 134 141 126 131 149 182 169 153 141 153 141 121 98 88 117 135 130 98 92 131 153 172 164 151 94 109 119 160 119 66 1 0 0 0 4 14 11 15 0 0 0 0 0 0 0 0 0 0 0 0 0 0 0 0 0 0 0 0 0 0 0 0 0 0 0 0 0 0 0 0 
0 0 0 0 0 0 0 0 0 0 0 12 0 0 4 12 26 87 120 156 146 150 152 161 175 180 191 168 134 107 98 124 128 126 88 83 108 124 142 159 161 150 146 147 142 138 142 119 113 104 97 96 106 126 144 141 127 130 136 150 147 153 154 158 97 69 106 147 152 115 92 96 113 128 116 107 129 150 142 165 163 144 116 124 130 117 91 40 2 0 0 0 5 12 11 16 0 0 0 0 0 0 0 0 0 0 0 0 0 0 0 0 0 0 0 0 0 0 0 0 0 0 0 0 0 0 0 0 
0 0 0 0 0 0 0 0 0 0 3 11 0 0 0 12 18 72 101 169 156 87 121 153 153 170 174 165 130 106 100 121 140 138 110 101 90 91 120 168 160 162 158 148 159 169 168 137 131 122 117 110 119 134 137 148 134 145 153 165 159 145 132 114 54 45 75 75 94 94 97 102 114 102 103 148 151 168 130 159 163 139 127 144 103 69 85 19 3 0 0 2 3 13 11 16 0 0 0 0 0 0 0 0 0 0 0 0 0 0 0 0 0 0 0 0 0 0 0 0 0 0 0 0 0 0 0 0 
0 0 0 0 0 0 0 0 0 0 5 10 2 0 0 6 15 50 95 153 156 93 112 151 171 137 128 133 132 107 108 115 129 162 149 113 74 65 57 74 99 117 134 158 173 174 182 135 123 128 143 142 134 140 146 144 123 138 148 146 113 96 101 142 105 93 74 69 82 95 103 110 87 73 116 151 177 160 148 164 150 146 147 122 63 71 64 12 6 0 1 0 3 15 12 16 0 0 0 0 0 0 0 0 0 0 0 0 0 0 0 0 0 0 0 0 0 0 0 0 0 0 0 0 0 0 0 0 
0 0 0 0 0 0 0 0 0 0 5 14 4 0 0 10 19 32 89 119 150 126 111 128 155 149 114 108 113 113 111 108 126 154 162 146 74 53 54 47 53 65 80 117 131 146 160 141 124 123 137 141 123 108 132 123 111 111 103 78 66 94 97 140 113 96 75 77 90 112 107 85 54 99 143 149 162 160 160 137 87 98 131 103 74 98 35 13 9 5 1 0 2 15 11 16 0 0 0 0 0 0 0 0 0 0 0 0 0 0 0 0 0 0 0 0 0 0 0 0 0 0 0 0 0 0 0 0 
0 0 0 0 0 0 0 0 0 0 6 15 10 0 1 11 22 20 63 93 141 148 130 129 118 139 117 100 103 122 120 97 126 165 172 168 103 62 52 53 46 44 56 86 79 113 134 127 152 146 128 125 125 126 124 114 122 127 108 92 79 83 121 150 141 101 91 90 104 124 85 80 105 119 136 157 139 154 127 86 80 90 131 107 95 87 28 18 12 7 0 0 2 14 11 16 0 0 0 0 0 0 0 0 0 0 0 0 0 0 0 0 0 0 0 0 0 0 0 0 0 0 0 0 0 0 0 0 
0 0 0 0 0 0 0 0 0 0 8 14 12 2 4 12 24 21 32 85 120 147 109 126 113 104 122 104 102 133 134 130 155 173 162 133 102 86 74 66 50 49 76 93 97 120 135 105 116 143 146 154 160 164 168 174 165 147 132 122 115 127 153 149 149 130 125 103 106 112 81 138 152 143 149 171 153 137 87 74 79 82 132 120 105 57 21 20 13 8 0 0 1 16 14 17 0 0 0 0 0 0 0 0 0 0 0 0 0 0 0 0 0 0 0 0 0 0 0 0 0 0 0 0 0 0 0 0 
0 0 0 0 0 0 0 0 0 0 6 15 12 3 6 15 18 23 14 68 118 153 103 89 127 87 100 123 116 133 150 153 182 189 153 118 100 94 89 90 94 98 101 86 94 116 125 104 105 112 120 146 151 153 167 166 163 133 92 87 96 135 147 141 138 162 150 117 119 97 101 134 146 146 154 177 165 118 83 77 116 118 138 115 91 37 20 14 12 10 0 0 3 17 17 16 0 0 0 0 0 0 0 0 0 0 0 0 0 0 0 0 0 0 0 0 0 0 0 0 0 0 0 0 0 0 0 0 
0 0 0 0 0 0 0 0 0 0 0 11 12 0 6 13 13 19 15 44 112 150 104 73 115 94 107 129 104 110 134 166 190 179 140 139 123 102 95 100 119 131 122 114 134 151 129 115 118 107 129 169 176 164 124 115 125 134 104 91 101 127 152 136 154 181 128 99 113 119 124 127 141 139 124 178 143 108 90 91 119 97 131 135 62 27 17 13 15 12 0 0 9 20 18 17 0 0 0 0 0 0 0 0 0 0 0 0 0 0 0 0 0 0 0 0 0 0 0 0 0 0 0 0 0 0 0 0 
0 0 0 0 0 0 0 0 0 0 0 4 16 6 6 13 12 12 19 23 67 131 135 89 114 93 119 132 94 75 121 144 195 169 130 123 127 121 121 124 143 158 150 139 131 148 136 129 115 124 167 172 161 184 150 109 124 142 120 116 124 120 127 130 152 161 163 154 137 139 133 139 151 105 101 156 123 101 125 137 65 33 65 87 36 21 14 14 15 13 0 0 11 20 20 17 0 0 0 0 0 0 0 0 0 0 0 0 0 0 0 0 0 0 0 0 0 0 0 0 0 0 0 0 0 0 0 0 
0 0 0 0 0 0 0 0 0 0 0 12 16 11 4 12 12 10 20 18 30 102 138 118 85 83 91 132 112 84 78 113 180 151 139 140 134 139 134 123 140 152 145 135 121 125 135 135 138 159 176 156 138 171 178 128 108 118 99 114 130 134 124 153 155 154 197 189 154 143 123 110 130 88 104 152 147 131 166 110 38 54 91 70 20 18 9 9 11 5 0 0 11 20 18 17 0 0 0 0 0 0 0 0 0 0 0 0 0 0 0 0 0 0 0 0 0 0 0 0 0 0 0 0 0 0 0 0 
0 0 0 0 0 0 0 0 0 0 0 8 16 4 5 4 11 12 15 20 18 57 125 110 69 91 106 134 136 119 109 116 148 137 112 135 149 145 137 132 143 169 177 165 157 135 132 144 176 170 154 159 152 143 146 137 134 129 123 146 155 165 170 145 192 173 217 178 110 78 51 77 112 106 123 164 162 127 130 93 29 33 105 48 15 14 5 5 4 0 0 0 12 19 9 17 0 0 0 0 0 0 0 0 0 0 0 0 0 0 0 0 0 0 0 0 0 0 0 0 0 0 0 0 0 0 0 0 
0 0 0 0 0 0 0 0 0 0 0 0 6 4 5 6 12 13 11 13 19 32 86 90 81 78 88 131 165 156 141 144 117 121 67 52 75 104 126 142 161 182 182 182 183 180 177 176 183 162 141 158 151 152 142 132 150 165 166 177 180 195 207 200 182 179 205 152 116 38 48 87 112 121 138 170 120 119 86 49 42 87 73 21 12 9 13 4 0 0 0 3 18 8 9 16 0 0 0 0 0 0 0 0 0 0 0 0 0 0 0 0 0 0 0 0 0 0 0 0 0 0 0 0 0 0 0 0 
0 0 0 0 0 0 0 0 0 0 0 0 6 6 5 4 3 5 7 13 18 29 54 55 44 77 110 142 130 127 143 167 129 120 71 37 38 50 50 96 119 125 158 165 172 146 128 139 150 145 140 136 144 141 130 127 109 103 152 171 159 179 189 182 160 170 172 142 98 141 136 126 131 128 121 100 51 71 79 67 77 78 40 20 16 4 5 1 0 0 2 4 11 4 8 16 0 0 0 0 0 0 0 0 0 0 0 0 0 0 0 0 0 0 0 0 0 0 0 0 0 0 0 0 0 0 0 0 
0 0 0 0 0 0 0 0 0 0 0 0 3 2 2 0 0 0 8 10 9 19 49 74 67 68 101 87 77 101 109 150 137 126 86 66 80 83 101 127 141 177 183 165 168 154 167 170 164 156 152 122 116 84 87 87 103 127 165 203 177 155 164 173 155 172 201 199 165 127 139 80 33 20 22 62 38 67 74 70 71 46 23 28 18 1 0 0 0 4 4 4 9 3 7 16 0 0 0 0 0 0 0 0 0 0 0 0 0 0 0 0 0 0 0 0 0 0 0 0 0 0 0 0 0 0 0 0 
0 0 0 0 0 0 0 0 0 0 0 0 0 2 1 0 0 0 0 3 3 13 27 70 79 86 76 57 61 72 101 134 155 166 154 161 172 164 161 180 197 196 171 114 118 172 186 171 168 162 153 145 148 123 96 108 109 74 120 169 172 191 220 173 154 131 164 180 154 117 104 100 82 54 48 80 55 71 62 61 45 49 40 41 21 0 0 0 0 0 0 2 6 3 7 16 0 0 0 0 0 0 0 0 0 0 0 0 0 0 0 0 0 0 0 0 0 0 0 0 0 0 0 0 0 0 0 0 
0 0 0 0 0 0 0 0 0 0 0 0 0 3 5 4 3 0 0 1 10 10 17 22 37 66 54 53 79 48 68 88 137 81 96 84 83 74 94 106 88 85 109 156 161 145 153 129 159 119 89 109 87 86 82 93 100 56 93 90 113 124 114 100 113 153 153 79 66 51 44 34 28 29 54 83 37 68 46 31 32 22 8 6 7 0 0 0 0 0 2 5 6 3 8 16 0 0 0 0 0 0 0 0 0 0 0 0 0 0 0 0 0 0 0 0 0 0 0 0 0 0 0 0 0 0 0 0 
0 0 0 0 0 0 0 0 0 0 0 0 0 0 4 4 4 0 0 0 6 10 10 14 19 20 28 36 77 49 60 68 125 54 69 96 105 87 92 77 71 86 92 93 89 92 90 73 101 90 49 94 98 101 89 93 100 54 77 75 77 102 102 100 119 110 75 58 54 47 60 43 36 46 97 99 49 74 44 37 29 18 9 10 7 0 0 2 3 3 4 5 0 2 7 15 0 0 0 0 0 0 0 0 0 0 0 0 0 0 0 0 0 0 0 0 0 0 0 0 0 0 0 0 0 0 0 0 
0 0 0 0 0 0 0 0 0 0 0 0 0 0 0 0 1 0 0 0 2 8 8 11 18 24 39 45 79 62 63 59 122 64 58 77 102 122 135 141 140 123 131 113 108 97 93 91 122 95 79 138 134 128 115 101 116 63 88 84 91 113 96 71 121 129 33 57 66 30 27 31 24 74 137 127 83 94 73 57 39 22 14 20 1 0 0 0 2 2 2 0 0 1 5 13 0 0 0 0 0 0 0 0 0 0 0 0 0 0 0 0 0 0 0 0 0 0 0 0 0 0 0 0 0 0 0 0 
0 0 0 0 0 0 0 0 0 0 0 0 0 0 0 0 0 0 0 0 0 3 2 3 30 52 50 43 72 71 56 38 93 59 68 64 120 129 137 138 133 122 173 124 111 129 156 180 133 112 107 144 136 145 141 135 130 118 118 143 129 146 164 148 143 117 74 107 64 34 36 68 47 27 70 90 69 84 82 76 52 45 48 43 0 0 0 0 0 0 0 0 0 0 1 9 0 0 0 0 0 0 0 0 0 0 0 0 0 0 0 0 0 0 0 0 0 0 0 0 0 0 0 0 0 0 0 0 
0 0 0 0 0 0 0 0 0 0 0 0 0 0 0 0 0 0 0 0 0 0 4 8 16 47 42 35 49 66 58 51 73 39 53 64 84 113 110 86 83 96 160 128 136 140 195 155 98 141 123 119 136 149 159 155 185 209 211 184 142 126 123 156 157 108 85 148 156 109 77 89 72 21 23 47 54 45 28 7 3 8 6 3 0 0 0 0 0 0 0 0 0 0 1 6 0 0 0 0 0 0 0 0 0 0 0 0 0 0 0 0 0 0 0 0 0 0 0 0 0 0 0 0 0 0 0 0 
0 0 0 0 0 0 0 0 0 0 0 0 0 0 0 0 0 0 0 0 0 0 1 5 8 17 35 48 70 92 89 76 112 76 63 50 44 58 123 93 94 132 105 105 95 90 74 118 92 89 88 86 113 114 126 127 133 158 158 134 105 102 83 106 78 82 95 94 144 148 66 51 21 11 38 92 50 41 20 8 15 18 24 1 0 0 0 0 0 0 0 3 5 14 18 24 0 0 0 0 0 0 0 0 0 0 0 0 0 0 0 0 0 0 0 0 0 0 0 0 0 0 0 0 0 0 0 0 
0 0 0 0 0 0 0 0 0 0 0 0 0 0 0 0 0 0 0 0 0 0 5 7 8 11 13 31 36 64 61 49 94 66 28 29 34 48 91 73 52 82 101 77 67 138 158 130 74 66 62 54 76 82 105 126 108 114 100 92 80 74 95 100 126 133 126 97 129 129 130 72 38 30 57 126 65 47 22 3 13 30 19 2 0 0 0 0 0 0 0 0 0 2 9 20 0 0 0 0 0 0 0 0 0 0 0 0 0 0 0 0 0 0 0 0 0 0 0 0 0 0 0 0 0 0 0 0 
0 0 0 0 0 0 0 0 0 0 0 0 0 0 0 0 0 0 0 0 0 0 3 8 9 9 11 21 27 56 55 60 93 72 27 22 18 41 86 72 46 60 81 98 97 149 150 113 64 52 49 47 50 60 61 51 66 89 74 67 68 66 66 61 77 123 134 122 144 110 93 57 29 32 57 148 80 41 20 9 16 15 8 1 0 0 0 0 0 0 0 0 0 2 9 19 0 0 0 0 0 0 0 0 0 0 0 0 0 0 0 0 0 0 0 0 0 0 0 0 0 0 0 0 0 0 0 0 
0 0 0 0 0 0 0 0 0 0 0 0 0 0 0 0 0 0 0 0 0 0 0 6 10 9 10 18 29 49 47 65 88 64 32 25 26 65 94 67 63 59 61 91 118 165 177 128 111 71 55 52 48 47 48 54 72 64 66 72 65 70 82 83 90 103 100 106 99 105 105 57 36 34 48 145 83 47 16 12 16 12 8 0 0 0 0 0 0 0 0 0 0 1 9 19 0 0 0 0 0 0 0 0 0 0 0 0 0 0 0 0 0 0 0 0 0 0 0 0 0 0 0 0 0 0 0 0 
0 0 0 0 0 0 0 0 0 0 0 0 0 0 0 0 0 0 0 0 0 0 0 4 7 11 9 13 23 42 38 57 92 71 29 29 48 93 83 76 72 59 54 88 152 187 180 123 128 117 70 57 52 48 50 67 59 60 51 75 82 96 97 89 100 99 81 75 84 86 105 90 40 41 51 144 76 55 18 14 14 12 5 0 0 0 0 0 0 0 0 0 0 0 8 18 0 0 0 0 0 0 0 0 0 0 0 0 0 0 0 0 0 0 0 0 0 0 0 0 0 0 0 0 0 0 0 0 
0 0 0 0 0 0 0 0 0 0 0 0 0 0 0 0 0 0 0 0 0 0 0 1 8 10 8 12 14 32 37 50 104 91 29 34 84 98 63 50 46 46 51 69 150 168 137 80 107 128 93 71 63 59 68 72 70 76 65 90 110 114 108 111 141 118 84 66 74 76 84 121 59 42 50 137 66 47 26 15 13 12 3 0 0 0 0 0 0 0 0 0 0 0 7 18 0 0 0 0 0 0 0 0 0 0 0 0 0 0 0 0 0 0 0 0 0 0 0 0 0 0 0 0 0 0 0 0 
0 0 0 0 0 0 0 0 0 0 0 0 0 0 0 0 0 0 0 0 0 0 0 0 5 4 10 12 12 24 52 61 94 109 42 48 111 88 48 39 41 41 53 75 128 145 92 65 98 116 110 88 62 72 84 73 92 96 87 107 159 147 120 125 150 129 81 70 55 42 45 116 101 45 52 128 76 41 16 14 13 10 0 0 0 0 0 0 0 0 0 0 0 0 6 18 0 0 0 0 0 0 0 0 0 0 0 0 0 0 0 0 0 0 0 0 0 0 0 0 0 0 0 0 0 0 0 0 
0 0 0 0 0 0 0 0 0 0 0 0 0 0 0 0 0 0 0 0 0 0 0 0 1 7 4 13 12 15 33 42 57 124 67 85 125 84 45 32 38 45 58 78 117 136 87 61 81 89 115 108 71 82 91 83 73 82 86 143 164 118 93 99 137 148 90 59 47 34 33 88 142 86 72 105 40 19 10 14 15 7 0 0 0 0 0 0 0 0 0 0 0 0 8 18 0 0 0 0 0 0 0 0 0 0 0 0 0 0 0 0 0 0 0 0 0 0 0 0 0 0 0 0 0 0 0 0 
0 0 0 0 0 0 0 0 0 0 0 0 0 0 0 0 0 0 0 0 0 0 0 0 0 5 3 7 11 16 18 27 30 79 114 105 105 82 43 29 37 45 59 83 101 126 90 70 77 69 117 129 102 75 69 72 76 94 123 152 150 101 71 77 126 129 94 67 50 36 32 79 121 117 92 61 20 14 13 15 13 6 0 0 0 0 0 0 0 0 0 0 0 0 6 18 0 0 0 0 0 0 0 0 0 0 0 0 0 0 0 0 0 0 0 0 0 0 0 0 0 0 0 0 0 0 0 0 
0 0 0 0 0 0 0 0 0 0 0 0 0 0 0 0 0 0 0 0 0 0 0 0 0 0 6 2 13 14 20 20 23 22 40 48 60 88 55 32 35 41 65 81 78 106 101 80 80 82 107 122 117 101 77 69 92 131 149 145 121 89 82 83 128 106 66 69 48 35 34 77 76 58 49 21 11 11 12 16 11 5 0 0 0 0 0 0 0 0 0 0 0 0 6 18 0 0 0 0 0 0 0 0 0 0 0 0 0 0 0 0 0 0 0 0 0 0 0 0 0 0 0 0 0 0 0 0 
0 0 0 0 0 0 0 0 0 0 0 0 0 0 0 0 0 0 0 0 0 0 0 0 0 0 6 2 6 13 18 16 21 23 16 19 33 78 68 34 35 45 73 78 77 119 86 61 90 107 94 104 111 106 101 100 121 137 123 112 96 87 85 100 133 107 58 76 52 37 46 80 68 25 24 19 10 10 12 13 9 4 0 0 0 0 0 0 0 0 0 0 0 0 5 16 0 0 0 0 0 0 0 0 0 0 0 0 0 0 0 0 0 0 0 0 0 0 0 0 0 0 0 0 0 0 0 0 
0 0 0 0 0 0 0 0 0 0 0 0 0 0 0 0 0 0 0 0 0 0 0 0 0 0 0 6 1 8 14 19 19 23 18 18 27 57 83 55 42 53 87 73 64 123 120 58 69 98 107 126 120 124 134 133 129 130 115 102 86 105 102 106 139 119 55 86 78 51 56 88 57 26 20 17 6 10 12 9 8 4 0 0 0 0 0 0 0 0 0 0 0 0 5 17 0 0 0 0 0 0 0 0 0 0 0 0 0 0 0 0 0 0 0 0 0 0 0 0 0 0 0 0 0 0 0 0 
0 0 0 0 0 0 0 0 0 0 0 0 0 0 0 0 0 0 0 0 0 0 0 0 0 0 0 5 5 2 10 15 18 23 18 25 23 33 74 79 70 87 93 65 66 131 141 80 66 85 97 103 109 125 130 129 133 131 124 114 97 93 104 119 148 144 79 88 94 77 85 80 33 29 20 16 10 11 10 9 7 3 0 0 0 0 0 0 0 0 0 0 0 0 4 17 0 0 0 0 0 0 0 0 0 0 0 0 0 0 0 0 0 0 0 0 0 0 0 0 0 0 0 0 0 0 0 0 
0 0 0 0 0 0 0 0 0 0 0 0 0 0 0 0 0 0 0 0 0 0 0 0 0 0 0 0 6 3 4 18 15 23 18 15 16 23 32 73 92 95 80 49 69 137 156 99 75 100 104 101 102 110 107 108 113 108 112 119 119 109 102 135 173 154 68 67 89 89 73 36 30 28 23 17 11 15 11 9 6 2 0 0 0 0 0 0 0 0 0 0 0 0 3 16 0 0 0 0 0 0 0 0 0 0 0 0 0 0 0 0 0 0 0 0 0 0 0 0 0 0 0 0 0 0 0 0 
0 0 0 0 0 0 0 0 0 0 0 0 0 0 0 0 0 0 0 0 0 0 0 0 0 0 0 0 0 7 3 15 15 18 21 12 10 15 24 30 41 49 43 37 59 130 169 148 136 132 111 100 102 98 67 70 78 91 116 107 101 126 126 152 178 153 79 60 48 34 23 27 31 28 20 14 11 14 12 8 6 3 0 0 0 0 0 0 0 0 0 0 0 0 2 15 0 0 0 0 0 0 0 0 0 0 0 0 0 0 0 0 0 0 0 0 0 0 0 0 0 0 0 0 0 0 0 0 
0 0 0 0 0 0 0 0 0 0 0 0 0 0 0 0 0 0 0 0 0 0 0 0 0 0 0 0 0 6 3 10 16 17 20 15 12 16 22 33 35 33 30 34 47 83 149 153 141 132 107 97 81 63 51 58 63 75 106 83 83 119 159 170 175 108 46 43 40 31 23 28 32 23 14 12 10 13 14 11 6 2 0 0 0 0 0 0 0 0 0 0 0 0 4 16 0 0 0 0 0 0 0 0 0 0 0 0 0 0 0 0 0 0 0 0 0 0 0 0 0 0 0 0 0 0 0 0 
0 0 0 0 0 0 0 0 0 0 0 0 0 0 0 0 0 0 0 0 0 0 0 0 0 0 0 0 0 3 5 4 18 19 20 18 15 17 24 32 30 31 31 33 42 54 91 134 151 121 81 61 50 40 39 56 62 66 97 68 53 86 154 166 119 53 39 41 38 33 24 28 32 24 16 15 17 10 16 16 9 3 0 0 0 0 0 0 0 0 0 0 0 0 3 15 0 0 0 0 0 0 0 0 0 0 0 0 0 0 0 0 0 0 0 0 0 0 0 0 0 0 0 0 0 0 0 0 
