P2
128 99
216
0 0 0 0 0 0 0 0 0 0 0 0 0 0 0 0 0 0 0 0 0 0 0 0 0 0 0 0 0 0 0 0 0 0 0 0 0 0 0 0 1 1 1 0 0 0 0 0 0 0 0 0 0 0 0 0 0 0 0 0 0 0 0 0 0 0 0 0 0 0 0 0 0 0 0 0 0 0 0 0 0 0 0 0 1 1 0 0 0 0 0 0 0 0 0 0 0 0 0 0 0 0 0 0 0 0 0 0 0 0 0 0 0 0 0 0 0 0 0 0 0 0 0 0 0 0 0 0 
0 0 0 0 0 0 0 0 0 0 0 0 0 0 0 0 0 0 0 0 0 0 0 0 0 0 0 0 0 0 0 0 0 0 0 0 0 0 0 0 1 2 1 1 0 0 0 0 0 0 0 0 0 0 0 0 0 0 0 0 0 0 0 0 0 0 0 0 0 0 0 0 0 0 0 0 0 0 0 0 0 0 0 0 1 1 0 0 0 0 0 0 0 0 0 0 0 0 0 0 0 0 0 0 0 0 0 0 0 0 0 0 0 0 0 0 0 0 0 0 0 0 0 0 0 0 0 0 
0 0 0 0 0 0 0 0 0 0 0 0 0 0 0 0 0 0 0 0 0 0 0 0 0 0 0 0 0 0 0 0 0 0 0 0 0 0 0 0 1 2 1 1 0 0 0 0 0 0 2 4 3 2 0 0 0 0 0 0 0 0 0 0 0 0 0 0 0 0 0 0 0 0 0 0 0 0 0 0 0 0 0 1 1 2 0 0 0 0 0 0 0 0 0 0 0 0 0 0 0 0 0 0 0 0 0 0 0 0 0 0 0 0 0 0 0 0 0 0 0 0 0 0 0 0 0 0 
0 0 0 0 0 0 0 0 0 0 0 0 0 0 0 0 0 0 0 0 0 0 0 0 0 0 0 0 0 0 0 0 0 0 0 0 0 0 0 0 1 2 1 2 8 13 18 16 16 17 17 20 23 23 22 18 15 15 15 10 3 0 0 0 0 0 0 0 0 0 0 0 0 0 0 0 0 0 0 0 0 0 0 0 1 2 1 0 0 0 0 0 0 0 0 0 0 0 0 0 0 0 0 0 0 0 0 0 0 0 0 0 0 0 0 0 0 0 0 0 0 0 0 0 0 0 0 0 
0 0 0 0 0 0 0 0 0 0 0 0 0 0 0 0 0 0 0 0 0 0 0 0 0 0 0 0 0 0 0 0 0 0 0 0 0 0 0 0 4 17 22 23 25 30 52 73 95 113 126 134 138 138 135 125 111 94 74 53 32 21 15 10 1 0 0 0 0 0 0 0 0 0 0 0 0 0 0 0 0 0 0 0 1 1 1 0 0 0 0 0 0 0 0 0 0 0 0 0 0 0 0 0 0 0 0 0 0 0 0 0 0 0 0 0 0 0 0 0 0 0 0 0 0 0 0 0 
0 0 0 0 0 0 0 0 0 0 0 0 0 0 0 0 0 0 0 0 0 0 0 0 0 0 0 0 0 0 0 0 0 0 0 0 0 0 8 19 25 26 35 68 106 138 157 165 171 177 183 184 182 182 184 182 182 178 170 155 134 108 76 42 23 15 11 1 0 0 0 0 0 0 0 0 0 0 0 0 0 0 0 0 1 2 1 0 0 0 0 0 0 0 0 0 0 0 0 0 0 0 0 0 0 0 0 0 0 0 0 0 0 0 0 0 0 0 0 0 0 0 0 0 0 0 0 0 
0 0 0 0 0 0 0 0 0 0 0 0 0 0 0 0 0 0 0 0 0 0 0 0 0 0 0 0 0 0 0 0 0 0 0 0 8 25 25 24 51 99 142 163 171 179 186 185 178 175 176 178 178 178 179 177 174 172 170 174 181 178 163 139 110 76 39 18 12 2 0 0 0 0 0 0 0 0 0 0 0 0 0 0 2 1 0 0 0 0 0 0 0 0 0 0 0 0 0 0 0 0 0 0 0 0 0 0 0 0 0 0 0 0 0 0 0 0 0 0 0 0 0 0 0 0 0 0 
0 0 0 0 0 0 0 0 0 0 0 0 0 0 0 0 0 0 0 0 0 0 0 0 0 0 0 0 0 0 0 0 0 0 7 27 23 23 60 119 156 167 176 185 187 178 168 165 167 166 169 173 170 160 161 174 186 190 190 184 174 170 177 183 179 159 131 95 53 22 12 2 0 0 0 0 0 0 0 0 0 0 0 1 2 1 0 0 0 0 0 0 0 0 0 0 0 0 0 0 0 0 0 0 0 0 0 0 0 0 0 0 0 0 0 0 0 0 0 0 0 0 0 0 0 0 0 0 
0 0 0 0 0 0 0 0 0 0 0 0 0 0 0 0 0 0 0 0 0 0 0 0 0 0 0 0 0 0 0 0 4 28 24 22 55 122 160 167 175 185 180 176 177 172 169 157 142 139 144 151 153 142 139 146 155 166 181 188 188 186 184 176 171 182 185 170 139 95 44 25 11 0 0 0 0 0 0 0 0 0 0 1 2 1 0 0 0 0 0 0 0 0 0 0 0 0 0 0 0 0 0 0 0 0 0 0 0 0 0 0 0 0 0 0 0 0 0 0 0 0 0 0 0 0 0 0 
0 0 0 0 0 0 0 0 0 0 0 0 0 0 0 0 0 0 0 0 0 0 0 0 0 0 0 0 0 0 0 22 28 19 36 107 157 166 174 183 177 177 185 177 163 152 143 141 147 151 160 165 162 160 163 162 163 171 177 184 191 189 187 187 187 180 172 179 186 168 132 78 32 19 2 0 0 0 0 0 0 0 0 1 2 1 1 0 0 0 0 0 0 0 0 0 0 0 0 0 0 0 0 0 0 0 0 0 0 0 0 0 0 0 0 0 0 0 0 0 0 0 0 0 0 0 0 0 
0 0 0 0 0 0 0 0 0 0 0 0 0 0 0 0 0 0 0 0 0 0 0 0 0 0 0 0 0 9 31 21 21 81 148 165 173 181 176 176 188 180 155 152 157 160 168 166 149 132 116 116 113 111 122 130 135 142 157 171 186 201 203 200 191 187 185 181 173 178 182 157 111 46 22 7 0 0 0 0 0 0 0 1 1 1 1 0 0 0 0 0 0 0 0 0 0 0 0 0 0 0 0 0 0 0 0 0 0 0 0 0 0 0 0 0 0 0 0 0 0 0 0 0 0 0 0 0 
0 0 0 0 0 0 0 0 0 0 0 0 0 0 0 0 0 0 0 0 0 0 0 0 0 0 0 0 23 24 15 50 128 164 167 177 179 179 188 182 163 155 167 176 166 150 141 129 136 139 137 134 135 141 144 147 138 127 126 136 149 157 176 197 211 207 195 186 184 179 172 178 172 137 67 24 11 0 0 0 0 0 0 1 2 2 1 0 0 0 0 0 0 0 0 0 0 0 0 0 0 0 0 0 0 0 0 0 0 0 0 0 0 0 0 0 0 0 0 0 0 0 0 0 0 0 0 0 
0 0 0 0 0 0 0 0 0 0 0 0 0 0 0 0 0 0 0 0 0 0 0 0 0 0 4 25 21 21 74 148 163 171 182 178 187 187 173 165 177 178 154 137 131 124 122 125 135 139 135 133 126 122 132 141 139 137 136 134 137 149 148 152 167 186 207 210 197 184 180 173 173 176 144 79 26 12 0 0 0 0 0 1 1 1 1 0 0 0 0 0 0 0 0 0 0 0 0 0 0 0 0 0 0 0 0 0 0 0 0 0 0 0 0 0 0 0 0 0 0 0 0 0 0 0 0 0 
0 0 0 0 0 0 0 0 0 0 0 0 0 0 0 0 0 0 0 0 0 0 0 0 0 10 24 20 28 96 156 162 180 182 183 190 181 174 176 174 159 137 132 137 138 137 138 137 128 116 96 92 87 88 94 109 125 130 134 136 139 145 162 161 158 157 163 187 209 208 193 182 175 168 177 152 88 27 12 0 0 0 0 1 2 2 1 0 0 0 0 0 0 0 0 0 0 0 0 0 0 0 0 0 0 0 0 0 0 0 0 0 0 0 0 0 0 0 0 0 0 0 0 0 0 0 0 0 
0 0 0 0 0 0 0 0 0 0 0 0 0 0 0 0 0 0 0 0 0 0 0 0 14 21 18 34 111 159 163 181 184 190 186 173 176 178 163 145 137 144 149 145 132 125 112 107 104 97 93 94 92 94 99 103 117 128 124 118 118 120 134 157 163 162 159 156 166 192 206 199 185 177 170 179 156 97 27 13 0 0 0 1 2 2 1 0 0 0 0 0 0 0 0 0 0 0 0 0 0 0 0 0 0 0 0 0 0 0 0 0 0 0 0 0 0 0 0 0 0 0 0 0 0 0 0 0 
0 0 0 0 0 0 0 0 0 0 0 0 0 0 0 0 0 0 0 0 0 0 3 20 18 18 42 120 157 168 188 183 189 177 167 181 169 152 142 143 148 141 133 122 114 99 94 98 97 97 106 114 117 122 125 128 130 135 141 141 136 126 118 121 144 157 157 157 152 154 175 203 199 190 180 170 179 157 108 33 11 0 0 1 2 2 1 0 0 0 0 0 0 0 0 0 0 0 0 0 0 0 0 0 0 0 0 0 0 0 0 0 0 0 0 0 0 0 0 0 0 0 0 0 0 0 0 0 
0 0 0 0 0 0 0 0 0 0 0 0 0 0 0 0 0 0 0 0 0 5 18 15 19 53 129 156 166 191 183 185 170 168 175 157 141 140 146 143 147 143 134 129 115 111 110 112 114 115 120 119 123 131 128 128 127 127 130 133 135 131 131 136 125 129 144 152 161 157 147 164 192 194 189 179 174 179 157 117 36 8 0 1 2 2 1 0 0 0 0 0 0 0 0 0 0 0 0 0 0 0 0 0 0 0 0 0 0 0 0 0 0 0 0 0 0 0 0 0 0 0 0 0 0 0 0 0 
0 0 0 0 0 0 0 0 0 0 0 0 0 0 0 0 0 0 0 0 7 18 12 20 68 134 155 168 191 184 183 164 163 168 150 137 132 136 143 146 143 129 111 109 117 125 132 137 142 150 146 137 137 146 144 145 146 145 146 147 149 146 143 139 140 133 123 125 146 160 155 146 148 183 191 190 185 173 178 160 123 36 8 1 2 2 1 0 0 0 0 0 0 0 0 0 0 0 0 0 0 0 0 0 0 0 0 0 0 0 0 0 0 0 0 0 0 0 0 0 0 0 0 0 0 0 0 0 
0 0 0 0 0 0 0 0 0 0 0 0 0 0 0 0 0 0 0 5 17 11 21 76 138 156 166 191 184 179 162 157 162 149 133 133 143 143 139 124 110 111 125 135 142 143 141 137 141 142 138 124 119 129 132 130 130 130 129 130 133 140 148 152 143 130 125 122 118 140 151 145 138 149 181 182 191 185 170 176 157 116 31 5 2 2 1 0 0 0 0 0 0 0 0 0 0 0 0 0 0 0 0 0 0 0 0 0 0 0 0 0 0 0 0 0 0 0 0 0 0 0 0 0 0 0 0 0 
0 0 0 0 0 0 0 0 0 0 0 0 0 0 0 0 0 0 4 16 10 22 83 138 152 165 190 182 175 155 150 159 148 132 138 141 136 130 111 105 124 137 139 140 137 135 136 131 123 123 122 120 115 121 126 130 130 128 123 113 110 113 113 129 148 150 136 126 124 118 131 146 137 136 155 171 170 190 179 174 168 154 100 21 4 2 1 0 0 0 0 0 0 0 0 0 0 0 0 0 0 0 0 0 0 0 0 0 0 0 0 0 0 0 0 0 0 0 0 0 0 0 0 0 0 0 0 0 
0 0 0 0 0 0 0 0 0 0 0 0 0 0 0 0 0 1 17 10 20 83 135 149 163 185 180 168 155 148 156 144 133 144 140 126 114 102 109 134 136 134 133 128 128 130 126 119 123 119 119 117 118 117 117 117 120 119 113 110 115 116 114 109 117 136 149 133 128 132 116 126 140 130 140 158 161 167 192 177 177 161 147 80 13 2 1 0 0 0 0 0 0 0 0 0 0 0 0 0 0 0 0 0 0 0 0 0 0 0 0 0 0 0 0 0 0 0 0 0 0 0 0 0 0 0 0 0 
0 0 0 0 0 0 0 0 0 0 0 0 0 0 0 0 0 11 10 15 76 130 144 161 177 181 167 152 144 157 143 140 145 134 117 110 101 109 136 141 130 130 130 129 124 118 115 113 113 97 105 116 114 103 94 97 105 108 113 119 120 117 114 109 107 115 134 143 126 129 131 110 119 138 132 144 165 155 168 188 178 171 156 132 52 6 1 0 0 0 0 0 0 0 0 0 0 0 0 0 0 0 0 0 0 0 0 0 0 0 0 0 0 0 0 0 0 0 0 0 0 0 0 0 0 0 0 0 
0 0 0 0 0 0 0 0 0 0 0 0 0 0 0 0 5 13 10 60 129 138 159 172 183 169 153 137 151 140 143 145 129 110 110 100 106 135 136 133 133 130 124 116 113 111 106 105 90 84 95 100 98 103 99 99 97 97 100 117 123 121 120 115 116 115 119 138 134 121 125 125 108 118 132 131 146 163 141 172 185 180 163 151 110 25 2 0 0 0 0 0 0 0 0 0 0 0 0 0 0 0 0 0 0 0 0 0 0 0 0 0 0 0 0 0 0 0 0 0 0 0 0 0 0 0 0 0 
0 0 0 0 0 0 0 0 0 0 0 0 0 0 0 2 12 11 44 117 131 151 169 176 175 153 132 150 141 142 142 130 112 109 98 102 127 135 134 137 120 98 87 82 82 79 80 79 78 88 104 90 86 107 103 102 100 100 100 101 104 114 120 118 116 121 119 123 133 125 117 122 112 104 120 130 133 155 147 141 178 190 172 162 141 76 8 0 0 0 0 0 0 0 0 0 0 0 0 0 0 0 0 0 0 0 0 0 0 0 0 0 0 0 0 0 0 0 0 0 0 0 0 0 0 0 0 0 
0 0 0 0 0 0 0 0 0 0 0 0 0 0 0 6 11 20 93 127 139 167 170 176 159 136 136 146 140 140 137 115 106 100 93 113 132 136 139 128 97 84 82 81 77 74 78 81 87 91 109 96 85 97 85 82 82 79 84 86 86 88 105 120 127 124 122 120 126 125 115 113 122 106 108 124 129 139 161 127 156 182 182 159 151 117 26 1 0 0 0 0 0 0 0 0 0 0 0 0 0 0 0 0 0 0 0 0 0 0 0 0 0 0 0 0 0 0 0 0 0 0 0 0 0 0 0 0 
0 0 0 0 0 0 0 0 0 0 0 0 0 0 3 8 11 69 125 129 158 169 167 166 142 128 146 139 139 138 125 108 101 97 110 135 140 140 132 107 90 84 82 79 78 77 81 80 83 86 108 103 87 90 86 84 84 82 79 78 78 78 82 94 112 123 126 121 121 128 116 110 119 122 107 115 124 128 155 132 131 164 188 162 157 133 62 3 0 0 0 0 0 0 0 0 0 0 0 0 0 0 0 0 0 0 0 0 0 0 0 0 0 0 0 0 0 0 0 0 0 0 0 0 0 0 0 0 
0 0 0 0 0 0 0 0 0 0 0 0 0 0 6 9 34 111 127 135 168 160 163 147 128 127 142 132 136 136 116 100 93 104 135 143 140 132 112 90 83 79 76 74 76 79 83 87 89 94 103 103 96 97 93 91 94 93 91 85 80 77 77 79 88 110 125 127 121 127 127 107 113 120 119 116 122 112 139 140 119 142 182 171 159 142 103 14 0 0 0 0 0 0 0 0 0 0 0 0 0 0 0 0 0 0 0 0 0 0 0 0 0 0 0 0 0 0 0 0 0 0 0 0 0 0 0 0 
0 0 0 0 0 0 0 0 0 0 0 0 0 0 7 14 77 123 124 153 165 152 157 130 129 130 133 132 136 121 99 94 103 131 152 132 123 113 93 81 75 73 73 76 82 90 94 96 96 91 86 89 92 78 72 72 83 97 98 96 92 87 80 77 78 96 122 129 126 127 133 120 103 114 122 126 121 113 122 145 128 134 165 172 156 148 121 38 1 0 0 0 0 0 0 0 0 0 0 0 0 0 0 0 0 0 0 0 0 0 0 0 0 0 0 0 0 0 0 0 0 0 0 0 0 0 0 0 
0 0 0 0 0 0 0 0 0 0 0 0 0 3 6 36 103 127 130 165 152 149 148 126 120 129 134 130 131 102 93 101 126 153 136 114 113 98 83 74 73 76 83 92 95 95 93 93 82 74 73 69 81 71 73 72 73 81 79 91 96 98 94 86 77 82 106 128 132 131 130 133 118 106 115 132 125 113 105 138 129 127 148 174 155 153 129 61 3 0 0 0 0 0 0 0 0 0 0 0 0 0 0 0 0 0 0 0 0 0 0 0 0 0 0 0 0 0 0 0 0 0 0 0 0 0 0 0 
0 0 0 0 0 0 0 0 0 0 0 0 0 3 10 66 117 121 144 165 137 145 136 129 112 135 129 127 115 91 98 124 150 143 107 106 100 87 77 76 81 91 97 99 92 88 77 75 76 77 75 71 72 72 74 75 74 73 70 72 75 90 98 97 91 81 89 115 132 130 128 134 137 116 108 126 134 112 102 127 124 131 138 175 163 159 137 79 5 0 0 0 0 0 0 0 0 0 0 0 0 0 0 0 0 0 0 0 0 0 0 0 0 0 0 0 0 0 0 0 0 0 0 0 0 0 0 0 
0 0 0 0 0 0 0 0 0 0 0 0 0 4 20 85 122 130 160 156 130 139 125 120 106 139 119 124 100 93 118 151 155 128 103 98 87 78 80 85 96 101 96 87 80 73 73 74 76 76 75 73 71 72 75 74 76 75 74 72 71 72 82 95 99 95 86 101 126 129 124 124 136 136 114 112 133 113 93 120 122 133 131 166 166 156 137 92 8 0 0 0 0 0 0 0 0 0 0 0 0 0 0 0 0 0 0 0 0 0 0 0 0 0 0 0 0 0 0 0 0 0 0 0 0 0 0 0 
0 0 0 0 0 0 0 0 0 0 0 0 0 4 33 104 123 143 165 138 130 137 123 107 117 131 117 119 94 102 143 158 143 111 90 89 76 74 88 100 101 89 74 73 69 70 73 73 75 75 76 73 73 71 73 72 84 83 73 75 73 75 74 83 94 100 100 107 116 124 122 118 125 138 134 112 132 121 89 107 114 132 140 166 171 154 138 103 14 0 0 0 0 0 0 0 0 0 0 0 0 0 0 0 0 0 0 0 0 0 0 0 0 0 0 0 0 0 0 0 0 0 0 0 0 0 0 0 
0 0 0 0 0 0 0 0 0 0 0 0 2 6 45 114 123 152 156 129 131 137 118 100 125 127 111 113 97 110 153 151 120 90 87 91 79 89 98 97 85 75 72 74 73 76 73 72 76 76 76 75 73 73 71 68 68 70 71 75 76 75 74 74 87 98 116 122 110 111 120 115 111 127 145 125 121 126 92 101 108 133 141 159 175 159 148 118 25 0 0 0 0 0 0 0 0 0 0 0 0 0 0 0 0 0 0 0 0 0 0 0 0 0 0 0 0 0 0 0 0 0 0 0 0 0 0 0 
0 0 0 0 0 0 0 0 0 0 0 0 2 7 57 119 124 152 143 126 129 138 111 106 128 121 105 112 102 115 155 136 94 82 87 100 94 99 100 88 76 75 77 77 79 77 77 73 77 77 86 89 87 87 85 82 79 74 72 74 80 81 80 79 92 118 126 124 111 104 113 117 105 114 139 141 117 120 96 102 104 133 143 161 177 160 154 130 38 1 0 0 0 0 0 0 0 0 0 0 0 0 0 0 0 0 0 0 0 0 0 0 0 0 0 0 0 0 0 0 0 0 0 0 0 0 0 0 
0 0 0 0 0 0 0 0 0 0 0 0 2 10 67 122 130 155 141 126 130 137 109 118 131 113 102 102 103 121 149 114 86 80 89 113 113 100 97 89 78 77 78 79 76 76 78 76 82 86 103 112 111 111 109 109 99 87 76 75 81 92 95 104 107 107 98 112 114 113 113 122 109 104 125 142 117 115 106 96 100 140 143 160 172 163 158 137 49 1 0 0 0 0 0 0 0 0 0 0 0 0 0 0 0 0 0 0 0 0 0 0 0 0 0 0 0 0 0 0 0 0 0 0 0 0 0 0 
0 0 0 0 0 0 0 0 0 0 0 0 3 13 76 127 140 158 138 129 131 132 112 126 127 106 97 99 107 124 131 95 80 84 100 117 123 111 107 106 93 82 77 78 80 77 75 79 81 95 114 122 123 121 117 116 109 94 82 76 82 100 108 94 78 90 104 108 108 112 122 132 119 101 103 134 128 112 113 91 101 136 139 157 171 165 161 143 59 3 0 0 0 0 0 0 0 0 0 0 0 0 0 0 0 0 0 0 0 0 0 0 0 0 0 0 0 0 0 0 0 0 0 0 0 0 0 0 
0 0 0 0 0 0 0 0 0 0 0 0 3 12 80 129 146 158 143 134 133 132 119 134 122 105 96 105 116 118 114 90 89 101 111 119 118 106 105 102 97 94 99 106 96 88 74 73 78 95 114 121 128 117 111 113 106 95 82 72 81 102 101 86 77 80 75 66 72 83 107 130 135 117 102 116 138 121 117 90 110 140 139 153 169 172 160 146 69 5 0 0 0 0 0 0 0 0 0 0 0 0 0 0 0 0 0 0 0 0 0 0 0 0 0 0 0 0 0 0 0 0 0 0 0 0 0 0 
0 0 0 0 0 0 0 0 0 0 0 0 6 13 85 131 149 159 140 134 137 136 125 136 124 108 95 103 122 113 104 91 104 113 106 89 73 70 72 69 66 66 71 85 91 96 74 72 74 90 114 120 128 115 108 109 111 95 77 76 92 97 90 79 74 72 71 70 70 72 84 110 128 127 125 111 129 133 124 91 118 138 141 149 165 175 159 151 80 7 0 0 0 0 0 0 0 0 0 0 0 0 0 0 0 0 0 0 0 0 0 0 0 0 0 0 0 0 0 0 0 0 0 0 0 0 0 0 
0 0 0 0 0 0 0 0 0 0 0 0 7 12 87 132 152 161 140 134 134 131 134 142 129 118 100 105 126 114 108 109 117 101 77 69 70 71 73 71 66 61 59 61 75 94 95 78 72 95 126 122 124 120 115 120 115 90 75 90 97 76 80 85 87 88 87 86 86 92 93 104 121 118 117 122 121 146 137 96 117 130 137 140 153 172 160 155 90 8 0 0 0 0 0 0 0 0 0 0 0 0 0 0 0 0 0 0 0 0 0 0 0 0 0 0 0 0 0 0 0 0 0 0 0 0 0 0 
0 0 0 0 0 0 0 0 0 0 0 0 7 11 91 134 153 160 137 130 133 124 137 140 130 120 116 116 124 116 120 124 100 72 72 74 76 80 87 83 79 74 64 62 64 83 102 102 94 114 141 138 134 131 130 138 123 91 64 71 72 71 80 82 84 83 81 84 87 90 92 104 122 121 116 129 128 143 151 105 108 129 133 138 145 166 160 156 104 15 0 0 0 0 0 0 0 0 0 0 0 0 0 0 0 0 0 0 0 0 0 0 0 0 0 0 0 0 0 0 0 0 0 0 0 0 0 0 
0 0 0 0 0 0 0 0 0 0 0 0 8 13 92 134 156 163 134 127 133 115 139 132 121 116 124 126 128 126 129 123 78 67 78 88 88 86 81 77 75 74 74 77 75 79 99 104 104 106 129 144 151 136 144 136 114 73 56 67 64 66 68 72 76 76 77 82 81 89 100 112 129 131 117 124 128 140 158 116 101 123 127 127 133 155 158 156 115 24 0 0 0 0 0 0 0 0 0 0 0 0 0 0 0 0 0 0 0 0 0 0 0 0 0 0 0 0 0 0 0 0 0 0 0 0 0 0 
0 0 0 0 0 0 0 0 0 0 0 0 7 13 96 135 153 165 124 125 129 109 136 127 117 107 122 124 132 136 141 122 91 89 92 86 81 75 69 67 65 64 63 76 95 94 102 103 100 99 119 140 144 125 133 127 109 75 64 73 65 57 63 74 82 93 94 89 87 89 99 112 128 130 114 111 124 138 156 124 98 118 122 118 122 149 163 158 121 34 0 0 0 0 0 0 0 0 0 0 0 0 0 0 0 0 0 0 0 0 0 0 0 0 0 0 0 0 0 0 0 0 0 0 0 0 0 0 
0 0 0 0 0 0 0 0 0 0 0 0 7 15 99 136 153 167 124 127 123 108 129 128 106 102 116 125 131 125 133 107 101 103 97 97 92 81 76 71 68 68 71 83 97 107 99 100 96 92 120 136 121 114 121 126 118 87 75 74 59 56 69 94 99 94 94 91 90 90 95 110 130 127 115 104 124 142 155 130 97 109 117 114 115 138 160 158 123 42 1 0 0 0 0 0 0 0 0 0 0 0 0 0 0 0 0 0 0 0 0 0 0 0 0 0 0 0 0 0 0 0 0 0 0 0 0 0 
0 0 0 0 0 0 0 0 0 0 0 0 8 15 101 135 156 166 123 124 113 109 122 119 95 97 108 130 127 116 130 105 99 100 97 95 98 94 90 84 79 74 81 96 99 103 100 95 93 89 116 117 106 119 116 118 123 98 84 69 57 68 85 88 93 96 95 94 94 94 96 111 136 130 114 106 126 148 157 133 95 105 116 118 113 125 149 152 127 49 3 0 0 0 0 0 0 0 0 0 0 0 0 0 0 0 0 0 0 0 0 0 0 0 0 0 0 0 0 0 0 0 0 0 0 0 0 0 
0 0 0 0 0 0 0 0 0 0 0 0 8 16 100 136 158 157 113 115 108 100 116 107 91 94 110 149 141 120 127 102 83 87 85 78 76 80 88 94 90 93 102 103 95 91 95 99 100 97 123 108 101 111 109 123 134 117 88 67 77 75 68 67 75 92 98 95 92 94 99 109 132 129 114 109 128 147 156 134 96 106 102 119 110 112 139 153 130 54 3 0 0 0 0 0 0 0 0 0 0 0 0 0 0 0 0 0 0 0 0 0 0 0 0 0 0 0 0 0 0 0 0 0 0 0 0 0 
0 0 0 0 0 0 0 0 0 0 0 0 8 18 98 137 161 152 100 110 107 98 104 103 94 94 110 155 150 130 119 97 79 76 77 77 75 72 85 88 75 79 99 113 108 98 91 85 79 98 127 108 97 90 95 106 131 130 98 84 70 58 61 63 70 87 94 93 94 93 98 109 125 127 112 109 131 142 147 132 98 106 101 122 111 106 125 150 130 59 2 0 0 0 0 0 0 0 0 0 0 0 0 0 0 0 0 0 0 0 0 0 0 0 0 0 0 0 0 0 0 0 0 0 0 0 0 0 
0 0 0 0 0 0 0 0 0 0 0 0 8 15 96 138 162 144 100 109 105 103 96 105 102 90 112 145 149 133 122 105 79 76 74 77 76 72 82 89 80 82 95 103 100 104 101 87 81 103 116 112 98 101 106 102 121 126 95 86 72 67 65 67 77 87 87 87 91 93 95 110 122 122 109 112 135 143 148 130 105 109 92 119 109 104 123 150 130 62 3 0 0 0 0 0 0 0 0 0 0 0 0 0 0 0 0 0 0 0 0 0 0 0 0 0 0 0 0 0 0 0 0 0 0 0 0 0 
0 0 0 0 0 0 0 0 0 0 0 0 8 16 89 139 163 134 104 101 107 110 94 106 106 91 112 140 141 132 121 114 79 76 77 80 76 72 79 88 89 90 94 100 100 97 100 82 73 99 98 105 89 80 97 95 105 125 91 83 68 61 61 71 80 89 87 86 92 95 99 109 124 123 106 112 144 152 141 131 112 110 87 120 105 106 124 153 124 61 2 0 0 0 0 0 0 0 0 0 0 0 0 0 0 0 0 0 0 0 0 0 0 0 0 0 0 0 0 0 0 0 0 0 0 0 0 0 
0 0 0 0 0 0 0 0 0 0 0 0 5 14 81 137 158 128 109 102 110 112 89 104 108 91 112 137 133 134 124 122 84 78 78 78 76 79 77 81 90 96 97 99 98 93 104 80 75 102 98 83 85 74 85 86 99 124 110 82 66 57 59 69 77 83 87 90 98 99 100 111 125 117 98 114 145 140 119 136 114 103 84 121 97 107 125 150 119 57 2 0 0 0 0 0 0 0 0 0 0 0 0 0 0 0 0 0 0 0 0 0 0 0 0 0 0 0 0 0 0 0 0 0 0 0 0 0 
0 0 0 0 0 0 0 0 0 0 0 0 3 14 77 133 156 127 110 98 107 112 86 96 111 96 110 137 127 130 131 124 97 85 82 83 83 88 85 89 96 104 101 96 91 85 93 74 76 95 98 83 84 82 89 96 91 107 130 99 66 61 64 69 74 87 90 93 96 94 99 101 111 104 92 112 139 124 104 139 118 95 92 122 85 112 130 144 115 51 2 0 0 0 0 0 0 0 0 0 0 0 0 0 0 0 0 0 0 0 0 0 0 0 0 0 0 0 0 0 0 0 0 0 0 0 0 0 
0 0 0 0 0 0 0 0 0 0 0 0 1 14 73 128 151 133 112 95 104 118 91 90 112 101 109 137 125 133 138 128 106 89 89 85 92 100 92 92 102 105 95 95 91 85 91 76 83 108 87 84 80 90 98 94 92 98 126 111 92 66 60 70 82 92 89 89 89 93 98 93 104 99 89 111 131 115 97 134 123 92 105 112 79 118 140 145 110 44 1 0 0 0 0 0 0 0 0 0 0 0 0 0 0 0 0 0 0 0 0 0 0 0 0 0 0 0 0 0 0 0 0 0 0 0 0 0 
0 0 0 0 0 0 0 0 0 8 6 0 0 12 66 123 143 135 115 94 97 118 97 82 105 107 111 135 122 127 135 125 112 94 93 83 94 98 86 90 106 111 95 93 96 102 97 78 91 104 87 87 86 97 100 92 95 102 112 118 124 127 85 72 87 87 86 82 88 93 93 84 98 93 89 121 132 109 105 130 122 91 112 99 78 115 147 134 98 35 2 0 0 0 0 0 0 0 0 0 0 0 0 0 0 0 0 0 0 0 0 0 0 0 0 0 0 0 0 0 0 0 0 0 0 0 0 0 
0 0 0 0 0 0 0 0 0 0 7 2 0 9 53 116 140 139 110 96 88 114 101 83 92 107 118 134 112 115 127 121 116 97 89 84 89 96 86 95 110 116 103 98 107 123 112 84 106 105 100 96 90 93 97 105 103 96 96 115 109 114 116 113 94 83 82 87 88 87 80 78 99 92 99 131 112 86 101 129 134 105 109 86 87 109 148 122 93 30 1 0 0 0 0 0 0 0 0 0 0 0 0 0 0 0 0 0 0 0 0 0 0 0 0 0 0 0 0 0 0 0 0 0 0 0 0 0 
0 0 0 0 0 0 0 0 0 1 8 8 2 9 43 110 137 139 106 98 84 102 107 85 88 102 125 131 104 122 137 114 121 109 90 90 93 93 86 95 109 115 103 113 139 130 98 92 121 97 101 103 96 100 99 95 108 98 95 115 111 111 91 115 124 125 116 101 94 89 72 82 102 100 120 122 103 94 103 133 140 111 106 80 91 119 149 113 89 24 1 0 0 0 0 0 0 0 0 0 0 0 0 0 0 0 0 0 0 0 0 0 0 0 0 0 0 0 0 0 0 0 0 0 0 0 0 0 
0 0 0 0 0 0 0 0 0 1 5 11 0 10 37 100 134 132 108 98 86 95 116 93 87 97 135 132 104 122 133 115 108 116 95 90 86 86 103 105 115 126 128 131 139 126 90 102 123 97 106 109 101 109 101 96 101 100 98 111 124 106 75 106 140 158 160 152 146 133 105 111 137 142 137 114 94 108 127 135 135 120 102 81 94 133 134 101 87 16 1 0 0 8 7 0 0 0 0 0 0 0 0 0 0 0 0 0 0 0 0 0 0 0 0 0 0 0 0 0 0 0 0 0 0 0 0 0 
0 0 0 0 0 0 0 0 0 0 2 10 2 7 30 92 132 138 119 103 96 89 110 106 83 96 135 127 107 117 119 100 91 100 100 103 116 125 125 116 126 130 111 99 105 120 97 102 131 105 107 108 105 107 104 80 86 81 94 118 124 88 79 88 108 129 127 119 116 132 148 157 148 134 127 105 123 132 130 130 144 122 115 84 100 141 104 90 81 10 2 2 6 0 0 0 0 0 0 0 0 0 0 0 0 0 0 0 0 0 0 0 0 0 0 0 0 0 0 0 0 0 0 0 0 0 0 0 
0 0 0 0 0 0 0 0 0 0 0 8 6 7 23 83 125 144 133 107 103 87 95 113 93 102 136 124 110 114 105 93 77 83 119 137 135 133 126 111 112 124 120 101 89 95 80 94 133 106 102 109 92 107 97 65 69 72 86 104 113 88 103 111 116 105 93 94 103 114 126 146 136 126 118 94 121 143 130 135 156 129 107 107 152 144 94 97 74 7 1 1 6 5 0 0 0 0 0 0 0 0 0 0 0 0 0 0 0 0 0 0 0 0 0 0 0 0 0 0 0 0 0 0 0 0 0 0 
0 0 0 0 0 0 0 0 0 0 0 8 8 10 15 73 116 140 144 108 107 95 89 122 110 99 140 130 108 120 115 119 116 106 122 137 128 130 131 131 114 111 88 70 75 83 66 75 118 104 88 86 90 105 84 64 72 65 76 93 102 95 110 114 125 111 100 98 99 131 131 137 124 125 122 115 131 153 147 147 167 138 116 148 169 127 94 100 62 4 0 1 2 2 0 0 0 0 0 0 0 0 0 0 0 0 0 0 0 0 0 0 0 0 0 0 0 0 0 0 0 0 0 0 0 0 0 0 
0 0 0 0 0 0 0 0 0 0 0 6 9 12 13 54 101 136 142 120 103 115 102 118 134 117 137 136 118 107 138 144 151 142 128 121 108 118 119 106 72 75 80 73 65 62 62 84 96 101 89 72 83 95 85 82 81 78 83 104 105 101 121 133 131 120 129 133 128 146 153 152 145 127 99 119 119 152 151 151 179 182 153 177 171 131 115 92 38 4 2 0 1 0 0 0 0 0 0 0 0 0 0 0 0 0 0 0 0 0 0 0 0 0 0 0 0 0 0 0 0 0 0 0 0 0 0 0 
0 0 0 0 0 0 0 0 0 0 0 8 12 12 9 39 94 129 137 138 116 150 116 135 148 140 129 130 138 131 151 166 153 142 140 121 101 100 103 91 97 96 91 70 67 63 79 107 87 92 89 78 77 110 101 86 72 80 72 92 102 116 125 132 130 131 131 122 136 162 158 143 142 104 105 101 110 131 138 155 174 182 166 187 157 112 102 76 19 6 3 1 1 0 0 0 0 0 0 0 0 0 0 0 0 0 0 0 0 0 0 0 0 0 0 0 0 0 0 0 0 0 0 0 0 0 0 0 
0 0 0 0 0 0 0 0 0 0 0 4 6 9 11 16 58 114 132 143 139 153 172 158 149 145 146 134 135 146 160 159 153 134 143 141 123 91 102 109 110 108 103 89 80 86 92 102 98 87 77 79 84 107 101 90 74 81 80 84 97 100 123 143 136 126 118 123 138 150 142 130 141 119 99 114 133 144 146 149 151 152 153 158 140 130 113 87 20 7 2 3 4 0 0 0 0 0 0 0 0 0 0 0 0 0 0 0 0 0 0 0 0 0 0 0 0 0 0 0 0 0 0 0 0 0 0 0 
0 0 0 0 0 0 0 0 0 0 0 7 4 4 10 12 39 106 132 133 163 157 156 150 132 126 151 143 130 156 158 153 164 138 129 135 136 118 120 120 118 116 115 104 90 94 113 94 94 86 72 75 82 113 104 107 91 71 73 87 97 98 103 131 129 120 115 130 150 147 132 107 106 87 88 111 126 135 138 150 137 149 126 120 110 127 119 64 12 6 2 4 4 0 0 0 0 0 0 0 0 0 0 0 0 0 0 0 0 0 0 0 0 0 0 0 0 0 0 0 0 0 0 0 0 0 0 0 
0 0 0 0 0 0 0 0 0 0 0 8 3 1 9 11 22 85 127 124 141 171 165 158 167 154 175 155 137 131 136 146 153 153 141 131 118 122 117 128 124 114 104 97 87 92 120 77 74 95 105 97 92 125 129 114 83 71 73 92 106 118 120 127 94 78 104 138 140 144 132 98 101 110 126 133 117 125 130 140 145 156 113 100 105 117 103 35 8 4 3 0 6 0 0 0 0 0 0 0 0 0 0 0 0 0 0 0 0 0 0 0 0 0 0 0 0 0 0 0 0 0 0 0 0 0 0 0 
0 0 0 0 0 0 0 0 0 0 0 8 3 2 5 9 14 61 120 142 123 160 166 161 162 170 175 162 141 154 145 143 152 164 148 127 117 126 108 106 97 98 99 86 91 113 131 71 79 99 121 116 93 98 112 106 80 83 91 99 93 105 121 133 113 81 97 121 115 118 107 107 104 120 141 135 135 128 118 130 130 127 109 98 107 99 75 14 11 9 2 0 3 2 0 0 0 0 0 0 0 0 0 0 0 0 0 0 0 0 0 0 0 0 0 0 0 0 0 0 0 0 0 0 0 0 0 0 
0 0 0 0 0 0 0 0 0 0 0 5 7 3 2 6 10 38 101 127 108 129 155 150 164 164 148 134 137 172 174 152 135 140 152 154 136 128 125 94 85 81 95 106 101 105 133 92 101 117 120 119 103 100 125 123 101 91 95 106 89 110 129 133 128 99 94 97 102 97 83 111 124 140 140 139 148 142 131 130 124 109 102 86 94 99 46 8 6 8 2 0 1 3 0 0 0 0 0 0 0 0 0 0 0 0 0 0 0 0 0 0 0 0 0 0 0 0 0 0 0 0 0 0 0 0 0 0 
0 0 0 0 0 0 0 0 0 0 0 0 8 9 2 8 13 21 78 98 83 107 154 152 154 154 153 126 122 154 161 131 118 116 123 132 133 131 125 94 73 79 100 98 106 124 132 126 122 103 121 128 121 123 147 145 129 111 108 119 111 122 123 137 124 118 97 95 93 91 108 120 131 125 123 135 153 148 158 153 145 110 86 74 76 80 24 12 7 10 3 0 1 4 0 0 0 0 0 0 0 0 0 0 0 0 0 0 0 0 0 0 0 0 0 0 0 0 0 0 0 0 0 0 0 0 0 0 
0 0 0 0 0 0 0 0 0 0 0 1 2 8 7 9 14 13 53 107 99 93 147 167 154 164 165 126 122 129 137 136 120 112 98 104 115 124 116 101 84 102 98 105 119 126 136 112 118 128 131 129 129 135 141 125 123 132 127 128 126 129 123 137 130 127 99 79 85 108 108 130 131 99 110 141 161 158 175 177 134 100 75 65 79 59 17 15 8 10 6 0 3 3 0 0 0 0 0 0 0 0 0 0 0 0 0 0 0 0 0 0 0 0 0 0 0 0 0 0 0 0 0 0 0 0 0 0 
0 0 0 0 0 0 0 0 0 0 0 0 3 4 5 10 14 11 28 93 96 85 117 135 178 161 153 137 142 142 136 127 138 127 102 88 102 101 103 116 114 125 112 111 116 130 144 116 134 143 139 145 152 150 150 150 141 140 135 146 153 134 141 144 141 128 110 95 97 114 123 135 125 98 104 141 160 164 161 176 132 94 57 51 85 34 13 14 12 9 8 6 8 2 0 0 0 0 0 0 0 0 0 0 0 0 0 0 0 0 0 0 0 0 0 0 0 0 0 0 0 0 0 0 0 0 0 0 
0 0 0 0 0 0 0 0 0 0 1 3 2 2 6 10 13 11 12 66 102 82 103 124 179 154 138 146 139 137 137 135 125 132 120 109 102 105 112 125 150 125 121 131 140 156 152 143 160 153 153 164 164 160 161 162 163 145 127 130 141 152 154 156 143 128 120 131 139 135 123 113 110 108 106 135 137 175 167 168 121 95 36 65 68 20 12 11 13 9 4 4 2 0 0 0 0 0 0 0 0 0 0 0 0 0 0 0 0 0 0 0 0 0 0 0 0 0 0 0 0 0 0 0 0 0 0 0 
0 0 0 0 0 0 0 0 0 0 4 8 8 7 8 7 10 9 10 41 89 91 102 133 157 155 134 149 142 136 144 152 133 117 104 113 118 119 124 136 138 143 138 140 149 152 135 145 155 153 155 142 140 153 147 142 136 129 122 124 128 150 158 145 166 178 156 162 152 136 112 102 113 119 113 95 144 179 160 150 104 72 69 75 61 16 13 10 12 8 3 0 0 0 0 0 0 0 0 0 0 0 0 0 0 0 0 0 0 0 0 0 0 0 0 0 0 0 0 0 0 0 0 0 0 0 0 0 
0 0 0 0 0 0 0 0 0 0 1 7 14 14 8 3 4 10 8 30 84 99 97 102 107 126 141 152 154 125 135 165 141 114 93 90 104 117 127 134 134 147 157 146 154 164 160 146 152 165 156 144 147 154 166 147 136 131 114 106 123 140 147 157 177 178 151 143 138 117 89 88 98 109 131 119 152 154 135 138 98 71 72 93 58 18 13 10 7 11 3 1 0 0 0 0 0 0 0 0 0 0 0 0 0 0 0 0 0 0 0 0 0 0 0 0 0 0 0 0 0 0 0 0 0 0 0 0 
0 0 0 0 0 0 0 0 0 0 0 3 14 13 8 5 3 13 14 22 61 99 106 114 71 100 128 136 153 134 122 127 126 104 98 102 99 106 122 131 131 154 182 169 166 170 177 150 142 153 144 152 159 162 163 146 155 162 142 125 143 148 140 166 182 165 169 148 114 80 65 78 102 109 151 158 167 161 135 97 106 77 76 91 37 16 10 7 6 8 8 1 1 4 2 0 0 0 0 0 0 0 0 0 0 0 0 0 0 0 0 0 0 0 0 0 0 0 0 0 0 0 0 0 0 0 0 0 
0 0 0 0 0 0 0 0 0 0 0 6 13 9 5 8 7 12 17 18 30 79 111 121 78 90 109 142 155 144 134 104 120 109 87 98 108 114 120 116 119 159 187 186 170 169 182 153 132 131 145 165 167 175 154 130 149 165 156 134 155 155 146 167 184 150 152 125 109 103 79 89 105 124 158 155 176 148 133 91 68 64 65 67 15 18 11 6 4 1 7 12 11 10 9 0 0 0 0 0 0 0 0 0 0 0 0 0 0 0 0 0 0 0 0 0 0 0 0 0 0 0 0 0 0 0 0 0 
0 0 0 0 0 0 0 0 0 0 0 3 13 12 8 9 9 8 14 17 19 43 91 115 105 103 96 144 167 148 147 114 105 119 94 84 82 78 83 92 139 167 178 180 170 148 164 145 120 124 161 161 148 182 184 155 150 154 151 130 163 149 136 162 153 129 152 150 135 130 121 107 121 140 152 151 145 95 99 61 47 63 85 31 8 13 12 10 3 7 6 5 11 9 3 0 0 0 0 0 0 0 0 0 0 0 0 0 0 0 0 0 0 0 0 0 0 0 0 0 0 0 0 0 0 0 0 0 
0 0 0 0 0 0 0 0 0 0 0 0 9 13 7 7 4 6 10 13 23 31 56 93 105 113 118 139 149 144 161 129 111 106 104 87 79 78 88 150 118 155 152 169 180 158 147 140 139 139 173 177 177 204 204 168 136 137 144 147 153 130 158 184 159 164 182 161 154 155 146 120 120 137 108 82 95 97 99 74 76 72 45 19 4 5 4 8 8 6 5 3 9 3 0 0 0 0 0 0 0 0 0 0 0 0 0 0 0 0 0 0 0 0 0 0 0 0 0 0 0 0 0 0 0 0 0 0 
0 0 0 0 0 0 0 0 0 0 0 0 1 4 6 5 3 1 7 14 16 27 36 61 77 88 113 90 92 120 151 131 125 123 114 95 91 85 122 179 183 175 161 154 194 189 179 151 170 172 195 216 202 200 195 182 159 153 177 193 174 149 189 213 200 177 179 186 187 123 134 121 77 76 60 71 81 93 96 74 53 37 23 15 15 6 3 3 4 7 5 8 12 1 0 0 0 0 0 0 0 0 0 0 0 0 0 0 0 0 0 0 0 0 0 0 0 0 0 0 0 0 0 0 0 0 0 0 
0 0 0 0 0 0 0 0 0 0 0 0 0 1 3 4 2 0 0 8 13 25 24 36 68 89 88 34 30 41 94 85 113 126 121 130 133 141 154 167 176 165 163 189 183 207 212 141 145 160 176 205 178 174 167 145 118 98 114 132 161 167 165 173 163 149 147 178 154 147 111 107 119 97 76 97 101 107 80 43 33 32 39 19 16 1 3 3 4 5 4 12 7 0 0 0 0 0 0 0 0 0 0 0 0 0 0 0 0 0 0 0 0 0 0 0 0 0 0 0 0 0 0 0 0 0 0 0 
0 0 0 0 0 0 0 0 0 0 0 0 0 2 3 6 5 4 1 3 9 11 19 23 37 42 31 26 48 35 75 60 51 56 66 95 73 74 86 89 107 113 110 149 162 140 137 101 121 104 99 123 130 124 124 120 89 63 76 73 76 87 65 141 125 148 124 70 65 74 85 108 76 47 51 82 92 100 54 28 27 29 19 3 4 3 8 8 6 3 0 2 2 0 0 0 0 0 0 0 0 0 0 0 0 0 0 0 0 0 0 0 0 0 0 0 0 0 0 0 0 0 0 0 0 0 0 0 
0 0 0 0 0 0 0 0 0 0 0 0 0 0 3 0 2 5 3 0 5 8 13 18 22 25 23 23 45 41 72 66 38 38 59 98 84 70 80 73 94 86 63 67 97 112 69 58 72 79 78 97 109 114 117 113 97 66 64 60 77 87 60 62 65 100 81 98 109 99 98 73 43 33 38 79 92 94 48 28 29 29 17 3 3 3 5 2 1 0 2 2 1 0 0 0 0 0 0 0 0 0 0 0 0 0 0 0 0 0 0 0 0 0 0 0 0 0 0 0 0 0 0 0 0 0 0 0 
0 0 0 0 0 0 0 0 0 0 0 0 0 0 0 0 0 0 0 0 3 6 9 18 20 27 28 26 48 54 77 82 61 64 70 93 81 65 139 163 170 160 93 77 85 110 94 69 94 85 74 88 85 82 83 84 89 79 86 89 114 119 106 105 111 119 106 79 103 118 128 82 70 86 93 111 105 93 50 36 29 24 17 5 2 0 0 1 0 0 1 1 0 0 0 0 0 0 0 0 0 0 0 0 0 0 0 0 0 0 0 0 0 0 0 0 0 0 0 0 0 0 0 0 0 0 0 0 
0 0 0 0 0 0 0 0 0 0 0 0 0 0 0 0 0 0 0 0 0 0 4 10 11 21 33 30 50 66 80 97 67 82 72 97 88 86 127 132 140 159 174 139 139 138 125 142 110 85 80 103 98 100 96 100 117 123 126 147 167 181 175 153 149 148 124 103 123 105 174 137 121 118 118 133 118 91 60 50 18 5 1 0 0 0 0 0 0 0 0 0 0 0 0 0 0 0 0 0 0 0 0 0 0 0 0 0 0 0 0 0 0 0 0 0 0 0 0 0 0 0 0 0 0 0 0 0 
0 0 0 0 0 0 0 0 0 0 0 0 0 0 0 0 0 0 0 0 0 0 0 7 14 13 22 26 50 71 69 76 70 84 72 90 86 83 131 95 127 156 188 159 148 177 131 149 168 146 113 116 122 121 119 136 172 162 132 135 145 187 186 180 147 177 135 144 105 163 164 147 92 59 43 87 84 71 62 61 29 9 1 1 1 0 1 1 0 0 0 0 0 0 0 0 0 0 0 0 0 0 0 0 0 0 0 0 0 0 0 0 0 0 0 0 0 0 0 0 0 0 0 0 0 0 0 0 
0 0 0 0 0 0 0 0 0 0 0 0 0 0 0 0 0 0 0 0 0 0 0 3 10 14 27 38 45 67 63 83 63 87 101 126 118 132 112 67 129 133 124 107 111 133 132 145 130 100 102 92 92 85 84 80 97 88 77 80 103 113 92 115 141 124 122 97 119 102 94 96 56 76 85 107 108 68 44 41 15 6 3 0 2 4 5 6 4 2 0 0 0 0 0 0 0 0 0 0 0 0 0 0 0 0 0 0 0 0 0 0 0 0 0 0 0 0 0 0 0 0 0 0 0 0 0 0 
0 0 0 0 0 0 0 0 0 0 0 0 0 0 0 0 0 0 0 0 0 0 3 3 13 14 18 26 27 54 54 78 51 59 68 78 61 86 147 133 111 94 80 77 89 128 173 157 102 104 90 78 83 78 108 70 76 88 88 81 96 103 92 78 82 105 107 152 102 75 74 91 63 56 84 94 93 51 30 22 13 13 3 1 0 1 3 4 3 2 0 0 0 0 0 0 0 0 0 0 0 0 0 0 0 0 0 0 0 0 0 0 0 0 0 0 0 0 0 0 0 0 0 0 0 0 0 0 
0 0 0 0 0 0 0 0 0 0 0 0 0 0 0 0 0 0 0 0 0 0 1 5 10 13 16 23 23 41 52 74 60 63 66 53 35 41 64 78 88 85 92 120 106 145 162 127 104 98 90 79 85 83 81 74 105 106 102 85 97 102 92 75 67 107 115 115 116 78 63 65 68 48 81 100 98 57 30 18 16 13 4 0 0 0 3 4 4 2 0 0 0 0 0 0 0 0 0 0 0 0 0 0 0 0 0 0 0 0 0 0 0 0 0 0 0 0 0 0 0 0 0 0 0 0 0 0 
0 0 0 0 0 0 0 0 0 0 0 0 0 0 0 0 0 0 0 0 0 0 1 2 8 12 13 23 23 36 55 73 75 61 76 42 30 40 70 108 108 87 79 98 104 134 122 90 110 112 92 76 83 82 82 87 94 88 100 89 99 112 121 103 92 96 117 124 125 101 68 45 61 48 75 98 95 56 27 17 16 12 3 0 0 0 2 4 4 2 0 0 0 0 0 0 0 0 0 0 0 0 0 0 0 0 0 0 0 0 0 0 0 0 0 0 0 0 0 0 0 0 0 0 0 0 0 0 
0 0 0 0 0 0 0 0 0 0 0 0 0 0 0 0 0 0 0 0 0 0 0 2 4 11 12 19 22 32 43 60 81 66 82 46 61 83 79 67 74 69 74 86 107 139 130 102 117 134 104 70 78 85 89 93 94 89 98 99 94 119 99 87 88 94 98 109 112 109 107 76 67 63 66 94 79 43 23 15 15 11 2 0 0 1 2 4 4 3 0 0 0 0 0 0 0 0 0 0 0 0 0 0 0 0 0 0 0 0 0 0 0 0 0 0 0 0 0 0 0 0 0 0 0 0 0 0 
0 0 0 0 0 0 0 0 0 0 0 0 0 0 0 0 0 0 0 0 0 0 0 0 2 9 10 14 19 31 39 54 78 71 88 58 91 66 43 55 58 64 72 87 113 134 132 122 115 105 103 71 73 92 81 69 76 75 84 99 93 99 106 107 98 102 99 87 83 88 93 101 94 86 69 91 73 40 21 15 14 9 1 0 0 1 3 5 5 4 1 0 0 0 0 0 0 0 0 0 0 0 0 0 0 0 0 0 0 0 0 0 0 0 0 0 0 0 0 0 0 0 0 0 0 0 0 0 
0 0 0 0 0 0 0 0 0 0 0 0 0 0 0 0 0 0 0 0 0 0 0 0 1 4 10 9 16 27 36 58 82 74 86 67 100 61 49 49 51 75 76 106 105 116 111 100 85 80 94 93 82 82 76 72 72 72 84 111 106 86 121 115 111 100 119 82 68 52 58 66 104 110 89 92 74 37 18 16 13 7 1 0 0 0 2 3 4 3 1 0 0 0 0 0 0 0 0 0 0 0 0 0 0 0 0 0 0 0 0 0 0 0 0 0 0 0 0 0 0 0 0 0 0 0 0 0 
0 0 0 0 0 0 0 0 0 0 0 0 0 0 0 0 0 0 0 0 0 0 0 0 1 2 7 10 11 20 37 61 75 73 74 60 96 61 52 41 50 78 92 118 98 108 107 83 60 62 84 106 112 85 81 87 84 91 100 120 105 76 102 116 117 91 119 96 75 52 49 58 100 96 103 86 54 27 16 19 17 6 0 0 0 0 1 3 4 4 1 0 0 0 0 0 0 0 0 0 0 0 0 0 0 0 0 0 0 0 0 0 0 0 0 0 0 0 0 0 0 0 0 0 0 0 0 0 
0 0 0 0 0 0 0 0 0 0 0 0 0 0 0 0 0 0 0 0 0 0 0 0 0 1 3 7 13 17 25 30 48 45 51 61 98 71 53 40 50 83 98 88 72 96 107 81 53 54 82 103 116 115 103 84 88 106 112 104 76 59 87 110 123 80 76 92 87 55 47 67 102 70 73 36 20 19 17 20 17 7 0 0 0 0 1 3 5 4 2 0 0 0 0 0 0 0 0 0 0 0 0 0 0 0 0 0 0 0 0 0 0 0 0 0 0 0 0 0 0 0 0 0 0 0 0 0 
0 0 0 0 0 0 0 0 0 0 0 0 0 0 0 0 0 0 0 0 0 0 0 0 0 0 4 5 11 19 20 22 19 14 32 69 114 94 48 40 48 76 80 53 53 66 104 91 57 59 68 84 104 110 105 99 109 115 108 84 68 64 95 104 110 70 55 79 91 55 40 71 120 91 58 22 17 17 17 20 15 7 0 0 0 0 1 4 4 4 2 0 0 0 0 0 0 0 0 0 0 0 0 0 0 0 0 0 0 0 0 0 0 0 0 0 0 0 0 0 0 0 0 0 0 0 0 0 
0 0 0 0 0 0 0 0 0 0 0 0 0 0 0 0 0 0 0 0 0 0 0 0 0 0 2 5 8 14 19 19 19 20 20 36 94 97 44 34 51 85 86 49 51 63 93 81 71 85 75 77 96 102 114 120 128 124 103 77 65 59 80 102 114 64 50 84 110 67 40 56 114 75 35 21 15 17 18 19 13 6 1 0 0 0 0 2 4 4 2 0 0 0 0 0 0 0 0 0 0 0 0 0 0 0 0 0 0 0 0 0 0 0 0 0 0 0 0 0 0 0 0 0 0 0 0 0 
0 0 0 0 0 0 0 0 0 0 0 0 0 0 0 0 0 0 0 0 0 0 0 0 0 0 1 2 6 10 17 18 17 20 20 13 38 85 70 50 75 111 90 51 58 72 115 85 74 93 97 94 95 108 122 126 129 132 109 87 77 77 76 99 123 78 51 79 127 110 68 79 88 33 24 18 13 15 18 14 12 7 2 0 0 0 0 2 3 3 2 0 0 0 0 0 0 0 0 0 0 0 0 0 0 0 0 0 0 0 0 0 0 0 0 0 0 0 0 0 0 0 0 0 0 0 0 0 
0 0 0 0 0 0 0 0 0 0 0 0 0 0 0 0 0 0 0 0 0 0 0 0 0 0 0 2 4 9 10 16 15 18 20 14 14 41 91 80 94 113 79 53 72 99 126 97 67 81 105 93 88 108 121 126 136 130 115 91 64 77 92 103 130 97 62 72 113 114 81 87 43 28 21 15 12 19 15 12 11 6 1 0 0 0 0 2 3 4 2 0 0 0 0 0 0 0 0 0 0 0 0 0 0 0 0 0 0 0 0 0 0 0 0 0 0 0 0 0 0 0 0 0 0 0 0 0 
0 0 0 0 0 0 0 0 0 0 0 0 0 0 0 0 0 0 0 0 0 0 0 0 0 0 0 0 3 8 9 15 16 16 21 15 11 19 32 64 67 79 77 68 82 114 132 102 62 68 99 98 102 112 123 132 137 131 121 111 83 68 91 108 137 110 74 75 92 79 57 34 26 30 19 12 12 17 12 12 9 6 1 0 0 0 0 2 4 4 3 1 0 0 0 0 0 0 0 0 0 0 0 0 0 0 0 0 0 0 0 0 0 0 0 0 0 0 0 0 0 0 0 0 0 0 0 0 
0 0 0 0 0 0 0 0 0 0 0 0 0 0 0 0 0 0 0 0 0 0 0 0 0 0 0 0 0 7 8 12 16 17 21 16 14 22 25 27 31 46 73 83 102 113 124 109 85 80 110 120 124 122 118 120 118 125 135 126 111 87 95 119 136 110 83 83 72 44 27 24 30 27 20 11 12 14 12 11 9 6 1 0 0 0 0 2 4 5 3 0 0 0 0 0 0 0 0 0 0 0 0 0 0 0 0 0 0 0 0 0 0 0 0 0 0 0 0 0 0 0 0 0 0 0 0 0 
0 0 0 0 0 0 0 0 0 0 0 0 0 0 0 0 0 0 0 0 0 0 0 0 0 0 0 0 0 6 6 13 12 18 20 18 15 20 25 29 32 34 46 71 88 86 103 115 99 91 104 120 123 109 96 96 92 103 121 121 114 103 111 126 119 79 69 59 42 39 26 25 30 25 20 13 13 13 13 10 8 4 1 0 0 0 0 2 4 3 2 0 0 0 0 0 0 0 0 0 0 0 0 0 0 0 0 0 0 0 0 0 0 0 0 0 0 0 0 0 0 0 0 0 0 0 0 0 
0 0 0 0 0 0 0 0 0 0 0 0 0 0 0 0 0 0 0 0 0 0 0 0 0 0 0 0 0 5 3 11 11 16 23 17 16 18 22 31 30 29 31 41 47 52 64 97 115 98 90 95 90 84 90 102 99 101 112 97 99 99 116 134 91 54 51 51 40 34 25 25 31 22 17 15 13 12 14 11 8 4 1 0 0 0 0 2 3 3 3 1 0 0 0 0 0 0 0 0 0 0 0 0 0 0 0 0 0 0 0 0 0 0 0 0 0 0 0 0 0 0 0 0 0 0 0 0 
