P2
128 99
207
0 0 0 0 0 0 0 0 0 0 0 0 0 0 0 0 0 0 0 0 0 0 0 0 0 0 0 0 0 0 0 0 0 0 0 0 0 0 0 0 0 0 0 0 0 0 0 0 0 0 0 0 0 0 0 0 0 0 0 0 0 0 0 0 0 0 0 0 0 0 0 0 0 0 0 0 0 0 0 0 0 0 0 0 0 0 0 0 0 0 0 0 0 0 0 1 3 2 0 0 0 0 0 0 0 0 0 0 0 0 0 0 0 0 0 0 0 0 0 0 0 0 0 0 0 0 0 0 
0 0 0 0 0 0 0 0 0 0 0 0 0 0 0 0 0 0 0 0 0 0 0 0 0 0 0 0 0 0 0 0 0 0 0 0 0 0 0 0 0 0 0 0 0 0 0 0 0 0 0 0 0 0 0 0 0 0 0 0 0 0 0 0 0 0 0 0 0 0 0 0 0 0 0 0 0 0 0 0 0 0 0 0 0 0 0 0 0 0 0 0 0 0 0 1 3 2 0 0 0 0 0 0 0 0 0 0 0 0 0 0 0 0 0 0 0 0 0 0 0 0 0 0 0 0 0 0 
0 0 0 0 0 0 0 0 0 0 0 0 0 0 0 0 0 0 0 0 0 0 0 0 0 0 0 0 0 0 0 0 0 0 0 0 0 0 0 0 0 0 0 0 0 0 0 0 0 0 1 2 2 2 1 0 0 0 0 0 0 0 0 0 0 0 0 0 0 0 0 0 0 0 0 0 0 0 0 0 0 0 0 0 0 0 0 0 0 0 0 0 0 0 0 1 3 2 0 0 0 0 0 0 0 0 0 0 0 0 0 0 0 0 0 0 0 0 0 0 0 0 0 0 0 0 0 0 
0 0 0 0 0 0 0 0 0 0 0 0 0 0 0 0 0 0 0 0 0 0 0 0 0 0 0 0 0 0 0 0 0 0 0 0 0 0 0 0 0 0 0 1 7 14 17 18 18 19 22 25 27 26 25 21 18 16 14 12 4 0 0 0 0 0 0 0 0 0 0 0 0 0 0 0 0 0 0 0 0 0 0 0 0 0 0 0 0 0 0 0 0 0 0 1 2 2 0 0 0 0 0 0 0 0 0 0 0 0 0 0 0 0 0 0 0 0 0 0 0 0 0 0 0 0 0 0 
0 0 0 0 0 0 0 0 0 0 0 0 0 0 0 0 0 0 0 0 0 0 0 0 0 0 0 0 0 0 0 0 0 0 0 0 0 0 0 0 5 12 19 23 24 34 54 75 98 118 133 144 148 149 146 136 122 102 79 54 33 22 16 10 2 0 0 0 0 0 0 0 0 0 0 0 0 0 0 0 0 0 0 0 0 0 0 0 0 0 0 0 0 0 0 1 3 2 0 0 0 0 0 0 0 0 0 0 0 0 0 0 0 0 0 0 0 0 0 0 0 0 0 0 0 0 0 0 
0 0 0 0 0 0 0 0 0 0 0 0 0 0 0 0 0 0 0 0 0 0 0 0 0 0 0 0 0 0 0 0 0 0 0 0 0 1 8 17 23 25 35 66 108 145 165 175 180 184 185 184 182 182 183 183 183 180 174 164 145 114 77 44 23 16 11 1 0 0 0 0 0 0 0 0 0 0 0 0 0 0 0 0 0 0 0 0 0 0 0 0 0 0 0 1 3 2 0 0 0 0 0 0 0 0 0 0 0 0 0 0 0 0 0 0 0 0 0 0 0 0 0 0 0 0 0 0 
0 0 0 0 0 0 0 0 0 0 0 0 0 0 0 0 0 0 0 0 0 0 0 0 0 0 0 0 0 0 0 0 0 0 0 0 9 21 24 25 51 100 148 172 181 184 186 186 187 188 192 193 194 194 194 193 192 189 185 183 183 179 169 150 119 76 38 18 13 2 0 0 0 0 0 0 0 0 0 0 0 0 0 0 0 0 0 0 0 0 0 0 0 0 0 1 3 2 0 0 0 0 0 0 0 0 0 0 0 0 0 0 0 0 0 0 0 0 0 0 0 0 0 0 0 0 0 0 
0 0 0 0 0 0 0 0 0 0 0 0 0 0 0 0 0 0 0 0 0 0 0 0 0 0 0 0 0 0 0 0 0 0 8 25 25 26 62 121 162 178 183 186 189 189 188 185 181 177 179 184 183 171 170 181 193 200 199 194 190 186 184 184 181 168 143 98 49 22 14 2 0 0 0 0 0 0 0 0 0 0 0 0 0 0 0 0 0 0 0 0 0 0 0 1 3 2 0 0 0 0 0 0 0 0 0 0 0 0 0 0 0 0 0 0 0 0 0 0 0 0 0 0 0 0 0 0 
0 0 0 0 0 0 0 0 0 0 0 0 0 0 0 0 0 0 0 0 0 0 0 0 0 0 0 0 0 0 0 0 5 27 25 23 57 125 166 177 181 186 189 192 192 183 174 162 152 149 149 151 149 144 145 147 156 174 194 201 200 198 194 190 185 184 184 175 150 100 44 23 10 0 0 0 0 0 0 0 0 0 0 0 0 0 0 0 0 0 0 0 0 0 0 1 3 2 0 0 0 0 0 0 0 0 0 0 0 0 0 0 0 0 0 0 0 0 0 0 0 0 0 0 0 0 0 0 
0 0 0 0 0 0 0 0 0 0 0 0 0 0 0 0 0 0 0 0 0 0 0 0 0 0 0 0 0 0 0 24 25 22 41 109 163 177 179 184 187 192 190 177 158 152 147 138 134 137 143 149 151 147 151 153 153 152 164 181 197 201 200 198 197 191 186 183 184 174 143 79 30 19 2 0 0 0 0 0 0 0 0 0 0 0 0 0 0 0 0 0 0 0 0 1 3 2 0 0 0 0 0 0 0 0 0 0 0 0 0 0 0 0 0 0 0 0 0 0 0 0 0 0 0 0 0 0 
0 0 0 0 0 0 0 0 0 0 0 0 0 0 0 0 0 0 0 0 0 0 0 0 0 0 0 0 0 11 28 23 25 83 153 175 179 184 186 191 196 185 166 161 156 150 149 144 137 131 130 134 134 133 136 140 141 140 147 158 172 189 200 203 201 198 196 193 187 184 184 169 117 45 22 6 0 0 0 0 0 0 0 0 0 0 0 0 0 0 0 0 0 0 0 1 3 2 0 0 0 0 0 0 0 0 0 0 0 0 0 0 0 0 0 0 0 0 0 0 0 0 0 0 0 0 0 0 
0 0 0 0 0 0 0 0 0 0 0 0 0 0 0 0 0 0 0 0 0 0 0 0 0 0 0 0 21 25 18 48 129 170 176 183 187 191 197 191 176 167 161 158 152 147 140 135 137 135 128 131 126 123 133 141 139 142 143 145 152 165 181 193 203 206 203 198 195 193 188 186 179 146 67 24 11 0 0 0 0 0 0 0 0 0 0 0 0 0 0 0 0 0 0 1 3 2 0 0 0 0 0 0 0 0 0 0 0 0 0 0 0 0 0 0 0 0 0 0 0 0 0 0 0 0 0 0 
0 0 0 0 0 0 0 0 0 0 0 0 0 0 0 0 0 0 0 0 0 0 0 0 0 0 5 26 21 20 76 154 174 181 186 191 198 197 185 172 168 163 153 149 145 143 144 138 138 131 125 123 124 130 141 147 142 142 144 145 145 154 164 172 184 195 205 207 202 196 194 191 186 180 157 84 24 13 0 0 0 0 0 0 0 0 0 0 0 0 0 0 0 0 0 1 3 3 0 0 0 0 0 0 0 0 0 0 0 0 0 0 0 0 0 0 0 0 0 0 0 0 0 0 0 0 0 0 
0 0 0 0 0 0 0 0 0 0 0 0 0 0 0 0 0 0 0 0 0 0 0 0 0 10 25 18 25 100 163 175 185 189 196 200 193 178 172 163 156 154 149 147 145 146 152 155 150 144 133 134 129 127 127 137 150 153 157 161 160 155 155 159 168 175 183 196 205 206 200 196 193 182 179 163 93 27 13 0 0 0 0 0 0 0 0 0 0 0 0 0 0 0 0 1 3 3 0 0 0 0 0 0 0 0 0 0 0 0 0 0 0 0 0 0 0 0 0 0 0 0 0 0 0 0 0 0 
0 0 0 0 0 0 0 0 0 0 0 0 0 0 0 0 0 0 0 0 0 0 0 0 14 23 16 34 115 164 175 186 192 201 197 184 174 169 160 158 158 155 156 155 149 147 136 125 123 116 111 109 106 111 113 115 125 136 137 137 142 152 159 163 162 160 165 173 179 195 203 201 196 194 184 180 166 103 30 13 0 0 0 0 0 0 0 0 0 0 0 0 0 0 0 1 3 3 0 0 0 0 0 0 0 0 0 0 0 0 0 0 0 0 0 0 0 0 0 0 0 0 0 0 0 0 0 0 
0 0 0 0 0 0 0 0 0 0 0 0 0 0 0 0 0 0 0 0 0 0 3 19 21 15 46 127 163 177 189 195 201 188 172 169 162 160 162 161 159 153 141 130 127 119 111 114 115 118 116 117 116 121 124 123 122 126 134 139 138 136 140 147 157 163 162 156 162 169 181 198 200 197 194 182 180 168 115 36 12 0 0 0 0 0 0 0 0 0 0 0 0 0 0 1 3 3 0 0 0 0 0 0 0 0 0 0 0 0 0 0 0 0 0 0 0 0 0 0 0 0 0 0 0 0 0 0 
0 0 0 0 0 0 0 0 0 0 0 0 0 0 0 0 0 0 0 0 0 5 17 16 17 57 137 163 179 189 197 198 177 167 164 158 158 161 162 155 146 136 132 135 128 123 122 116 119 120 117 111 110 115 118 117 114 112 114 119 126 128 133 140 143 145 151 161 158 157 162 169 190 197 196 194 187 181 168 123 38 9 0 0 0 0 0 0 0 0 0 0 0 0 0 1 3 3 0 0 0 0 0 0 0 0 0 0 0 0 0 0 0 0 0 0 0 0 0 0 0 0 0 0 0 0 0 0 
0 0 0 0 0 0 0 0 0 0 0 0 0 0 0 0 0 0 0 0 7 16 14 18 69 143 163 179 191 198 192 167 158 161 158 155 152 151 143 139 138 132 126 121 117 115 110 113 115 113 115 104 106 117 115 117 119 118 114 113 113 116 122 127 135 141 138 139 155 158 148 154 160 183 191 193 194 186 180 169 127 37 6 0 0 0 0 0 0 0 0 0 0 0 0 1 3 3 0 0 0 0 0 0 0 0 0 0 0 0 0 0 0 0 0 0 0 0 0 0 0 0 0 0 0 0 0 0 
0 0 0 0 0 0 0 0 0 0 0 0 0 0 0 0 0 0 0 6 15 13 19 77 145 163 177 189 197 187 162 152 158 158 150 148 149 137 132 125 117 115 118 116 114 112 110 112 114 115 119 111 114 123 123 126 132 136 138 137 134 127 118 115 117 121 132 139 137 150 151 139 148 156 177 187 194 193 186 178 167 119 28 3 0 0 0 0 0 0 0 0 0 0 0 1 3 3 0 0 0 0 0 0 0 0 0 0 0 0 0 0 0 0 0 0 0 0 0 0 0 0 0 0 0 0 0 0 
0 0 0 0 0 0 0 0 0 0 0 0 0 0 0 0 0 0 4 15 14 19 82 147 162 175 188 195 183 159 152 156 152 146 146 139 125 125 120 112 115 119 120 125 125 123 120 121 118 115 110 109 112 122 127 125 126 128 133 136 138 141 137 127 117 110 117 127 138 135 144 148 137 142 153 170 182 193 194 185 174 162 104 19 2 0 0 0 0 0 0 0 0 0 0 1 3 3 0 0 0 0 0 0 0 0 0 0 0 0 0 0 0 0 0 0 0 0 0 0 0 0 0 0 0 0 0 0 
0 0 0 0 0 0 0 0 0 0 0 0 0 0 0 0 0 2 14 14 19 78 144 158 170 184 195 181 157 151 157 146 140 143 138 119 118 121 119 120 126 128 129 125 123 121 117 111 109 104 98 101 102 109 112 115 117 115 113 111 113 119 128 133 130 120 111 117 129 136 133 144 143 135 142 153 165 180 194 190 182 169 152 81 11 0 0 0 0 0 0 0 0 0 0 1 3 3 0 0 0 0 0 0 0 0 0 0 0 0 0 0 0 0 0 0 0 0 0 0 0 0 0 0 0 0 0 0 
0 0 0 0 0 0 0 0 0 0 0 0 0 0 0 0 0 11 12 16 72 137 153 165 179 192 179 154 150 155 144 139 140 139 115 117 125 124 125 130 127 118 112 113 113 111 107 104 104 94 95 97 96 97 101 102 104 103 103 106 106 104 109 118 129 132 120 111 117 128 129 128 138 136 135 140 155 159 180 195 188 179 164 137 52 3 0 0 0 0 0 0 0 0 0 1 3 4 0 0 0 0 0 0 0 0 0 0 0 0 0 0 0 0 0 0 0 0 0 0 0 0 0 0 0 0 0 0 
0 0 0 0 0 0 0 0 0 0 0 0 0 0 0 0 6 12 15 58 129 147 162 176 190 181 154 147 152 138 137 135 134 117 120 129 126 124 123 117 111 109 107 105 103 102 102 101 100 98 95 100 100 101 104 105 106 104 102 102 102 103 104 105 112 125 130 121 111 118 122 122 128 136 130 133 138 152 153 185 194 189 175 156 112 25 1 0 0 0 0 0 0 0 0 1 3 4 0 0 0 0 0 0 0 0 0 0 0 0 0 0 0 0 0 0 0 0 0 0 0 0 0 0 0 0 0 0 
0 0 0 0 0 0 0 0 0 0 0 0 0 0 0 2 12 14 46 119 142 156 169 186 182 153 143 150 138 138 131 131 122 123 128 126 115 110 110 111 106 98 94 93 96 99 102 105 109 108 108 108 109 111 112 113 112 109 108 105 103 103 102 101 102 111 125 126 117 113 114 118 116 132 135 131 135 141 145 157 189 190 182 166 142 76 6 0 0 0 0 0 0 0 0 1 3 5 0 0 0 0 0 0 0 0 0 0 0 0 0 0 0 0 0 0 0 0 0 0 0 0 0 0 0 0 0 0 
0 0 0 0 0 0 0 0 0 0 0 0 0 0 0 7 10 26 100 133 149 165 182 182 159 141 144 139 137 133 131 126 122 124 124 112 101 107 111 104 96 90 94 95 97 99 104 105 109 112 113 111 110 114 111 111 109 108 109 109 106 103 103 101 100 100 110 125 124 116 111 113 114 116 133 133 137 131 144 142 168 186 186 175 155 118 30 1 0 0 0 0 0 0 0 1 3 4 0 0 0 0 0 0 0 0 0 0 0 0 0 0 0 0 0 0 0 0 0 0 0 0 0 0 0 0 0 0 
0 0 0 0 0 0 0 0 0 0 0 0 0 0 2 9 14 72 125 142 156 173 178 165 142 137 138 130 134 132 132 122 120 123 115 99 107 112 105 98 97 98 100 101 100 102 105 101 102 108 114 109 105 111 102 101 99 101 101 102 104 105 104 104 102 100 98 110 124 120 114 113 113 114 124 138 136 130 133 135 149 174 184 177 162 138 67 4 0 0 0 0 0 0 0 1 3 4 0 0 0 0 0 0 0 0 0 0 0 0 0 0 0 0 0 0 0 0 0 0 0 0 0 0 0 0 0 0 
0 0 0 0 0 0 0 0 0 0 0 0 0 0 6 9 40 110 134 148 163 176 164 152 137 133 133 134 133 135 127 120 123 114 102 105 113 107 102 99 98 100 100 97 100 102 102 97 92 96 111 108 100 98 84 86 91 93 93 96 98 101 103 102 102 102 97 99 113 123 114 112 114 111 110 134 143 134 129 126 135 161 176 177 169 147 102 16 0 0 0 0 0 0 0 1 3 4 0 0 0 0 0 0 0 0 0 0 0 0 0 0 0 0 0 0 0 0 0 0 0 0 0 0 0 0 0 0 
0 0 0 0 0 0 0 0 0 0 0 0 0 0 7 14 81 122 143 155 172 162 156 140 132 128 131 133 130 132 117 119 114 103 107 114 108 100 100 101 102 101 99 96 93 96 97 99 99 99 104 107 109 99 88 88 89 89 91 94 97 100 100 100 104 110 104 97 101 116 121 117 117 114 113 124 139 140 129 122 126 152 169 175 172 153 125 37 1 0 0 0 0 0 0 1 3 5 0 0 0 0 0 0 0 0 0 0 0 0 0 0 0 0 0 0 0 0 0 0 0 0 0 0 0 0 0 0 
0 0 0 0 0 0 0 0 0 0 0 0 0 3 6 36 107 129 145 163 170 154 147 133 128 126 133 128 130 122 118 120 106 105 116 111 99 99 104 104 99 94 91 89 89 95 103 112 115 109 102 105 111 97 95 102 103 102 101 99 97 98 98 97 97 108 108 104 99 106 118 121 120 113 112 123 133 139 130 121 118 143 161 174 172 159 135 60 3 0 0 0 0 0 0 1 3 4 0 0 0 0 0 0 0 0 0 0 0 0 0 0 0 0 0 0 0 0 0 0 0 0 0 0 0 0 0 0 
0 0 0 0 0 0 0 0 0 0 0 0 0 4 8 67 118 137 151 168 155 145 133 130 122 128 124 121 124 120 123 115 107 115 112 103 104 104 105 98 87 81 81 88 98 106 111 114 110 101 91 89 102 91 89 89 86 92 101 107 108 106 102 97 96 99 107 108 104 100 109 120 123 116 110 123 131 124 130 122 112 139 156 171 173 160 140 81 6 0 0 0 0 0 0 1 3 5 0 0 0 0 0 0 0 0 0 0 0 0 0 0 0 0 0 0 0 0 0 0 0 0 0 0 0 0 0 0 
0 0 0 0 0 0 0 0 0 0 0 0 0 6 15 91 124 142 157 162 141 139 129 124 119 122 115 121 122 123 119 112 117 118 106 103 105 102 96 86 81 78 88 101 110 108 96 94 91 89 88 87 95 91 92 88 84 83 85 88 97 107 111 108 103 97 103 113 110 100 102 117 125 122 110 116 128 118 124 124 111 133 150 169 173 162 143 96 10 0 0 0 0 0 0 1 3 5 0 0 0 0 0 0 0 0 0 0 0 0 0 0 0 0 0 0 0 0 0 0 0 0 0 0 0 0 0 0 
0 0 0 0 0 0 0 0 0 0 0 0 1 6 33 108 129 146 159 144 133 130 133 122 116 115 114 124 124 119 112 116 122 110 96 104 102 92 85 79 86 101 107 103 97 90 91 90 92 95 96 96 100 99 101 97 93 91 90 89 88 90 101 112 113 106 103 111 112 105 101 109 124 128 115 112 123 116 115 122 110 129 152 167 174 165 148 111 16 0 0 0 0 0 0 1 3 5 0 0 0 0 0 0 0 0 0 0 0 0 0 0 0 0 0 0 0 0 0 0 0 0 0 0 0 0 0 0 
0 0 0 0 0 0 0 0 0 0 0 0 2 6 50 115 134 148 152 134 128 127 135 120 111 109 112 130 122 110 112 121 114 101 98 109 99 85 79 86 101 110 105 91 85 92 98 98 101 104 106 106 104 106 106 104 102 102 101 95 87 85 91 102 113 124 120 108 108 113 107 103 113 130 128 114 116 116 110 119 108 124 145 162 174 167 152 122 25 0 0 0 0 0 0 1 3 5 0 0 0 0 0 0 0 0 0 0 0 0 0 0 0 0 0 0 0 0 0 0 0 0 0 0 0 0 0 0 
0 0 0 0 0 0 0 0 0 0 0 0 2 6 62 121 141 154 148 130 122 131 134 118 107 103 114 131 114 105 117 118 106 103 109 108 96 87 88 99 104 102 96 92 89 93 102 103 104 105 108 108 106 103 101 98 96 101 101 99 106 103 102 105 117 116 110 106 107 112 113 108 105 121 136 121 110 106 108 119 112 127 148 162 173 171 156 131 36 1 0 0 0 0 0 1 3 5 0 0 0 0 0 0 0 0 0 0 0 0 0 0 0 0 0 0 0 0 0 0 0 0 0 0 0 0 0 0 
0 0 0 0 0 0 0 0 0 0 0 0 3 9 70 125 145 154 147 134 125 132 133 119 108 102 119 125 104 102 118 109 104 108 109 103 98 101 108 105 105 101 98 100 97 95 96 101 102 101 104 107 103 97 92 89 85 91 96 101 111 108 104 96 96 108 112 120 117 111 115 116 108 109 131 131 107 101 104 112 114 132 149 164 173 175 162 142 48 2 0 0 0 0 0 1 3 5 0 0 0 0 0 0 0 0 0 0 0 0 0 0 0 0 0 0 0 0 0 0 0 0 0 0 0 0 0 0 
0 0 0 0 0 0 0 0 0 0 0 0 3 10 77 129 148 155 145 139 128 133 133 120 107 106 120 114 102 102 113 104 107 111 106 103 112 119 122 120 117 114 113 108 104 107 102 100 96 95 97 101 102 94 89 83 81 82 89 99 112 106 96 92 100 108 116 128 126 120 116 119 117 112 122 139 113 103 104 106 120 133 147 162 175 176 164 149 61 3 0 0 0 0 0 1 3 4 0 0 0 0 0 0 0 0 0 0 0 0 0 0 0 0 0 0 0 0 0 0 0 0 0 0 0 0 0 0 
0 0 0 0 0 0 0 0 0 0 0 0 4 12 82 132 151 161 147 141 133 136 133 121 109 113 117 106 103 104 111 109 112 112 113 118 115 107 100 100 98 100 108 105 103 104 108 99 93 88 91 97 102 92 86 83 82 80 87 97 109 97 101 106 100 95 91 97 102 106 109 111 116 123 128 135 128 109 106 109 125 136 146 158 174 178 166 150 75 5 0 0 0 0 0 1 3 4 0 0 0 0 0 0 0 0 0 0 0 0 0 0 0 0 0 0 0 0 0 0 0 0 0 0 0 0 0 0 
0 0 0 0 0 0 0 0 0 0 0 0 4 12 86 135 152 162 144 142 139 141 135 126 114 119 114 98 106 109 114 110 115 124 118 112 100 89 84 85 85 87 91 94 98 108 109 102 94 86 85 88 99 94 85 89 85 82 89 100 104 109 106 101 96 91 88 89 90 89 91 94 102 118 134 140 132 122 112 116 129 134 141 152 169 180 169 154 89 7 0 0 0 0 0 1 3 4 0 0 0 0 0 0 0 0 0 0 0 0 0 0 0 0 0 0 0 0 0 0 0 0 0 0 0 0 0 0 
0 0 0 0 0 0 0 0 0 0 0 0 5 13 90 139 155 161 146 142 139 139 135 132 123 127 114 95 106 118 118 113 122 114 100 88 86 85 85 89 87 83 85 86 88 93 97 100 95 94 92 92 97 98 92 95 89 89 95 98 107 97 97 98 103 103 103 104 105 105 102 102 102 105 126 150 139 131 125 123 131 128 134 146 157 177 170 156 100 10 0 0 0 0 0 1 3 4 0 0 0 0 0 0 0 0 0 0 0 0 0 0 0 0 0 0 0 0 0 0 0 0 0 0 0 0 0 0 
0 0 0 0 0 0 0 0 0 0 0 0 7 14 92 142 156 160 143 139 138 134 131 131 129 131 118 105 105 126 122 119 105 90 89 98 98 98 100 100 98 94 87 85 84 88 87 92 85 87 85 93 102 107 106 92 86 87 84 98 96 93 92 90 95 97 98 99 100 99 99 103 105 107 125 152 148 132 134 128 126 123 129 141 148 170 173 159 113 16 0 0 0 0 0 1 3 4 0 0 0 0 0 0 0 0 0 0 0 0 0 0 0 0 0 0 0 0 0 0 0 0 0 0 0 0 0 0 
0 0 0 0 0 0 0 0 0 0 0 0 7 14 93 143 158 163 139 134 136 134 128 123 126 131 120 111 121 130 128 114 95 91 99 101 98 96 95 94 93 88 83 84 83 80 87 90 91 90 95 105 118 115 118 95 89 88 86 100 89 84 84 91 98 100 100 103 101 102 103 105 110 117 125 140 143 130 137 128 124 116 122 133 138 165 174 159 122 23 0 0 0 0 0 1 3 4 0 0 0 0 0 0 0 0 0 0 0 0 0 0 0 0 0 0 0 0 0 0 0 0 0 0 0 0 0 0 
0 0 0 0 0 0 0 0 0 0 0 0 7 16 96 146 160 163 130 129 133 131 125 117 121 131 122 112 127 138 137 119 109 104 102 96 95 94 91 89 87 86 81 76 80 85 89 100 98 96 102 112 124 114 121 102 91 86 92 100 81 73 86 94 99 103 101 100 101 101 102 104 113 115 113 128 131 129 139 129 123 113 118 123 127 155 171 159 129 33 1 0 0 0 0 1 3 4 0 0 0 0 0 0 0 0 0 0 0 0 0 0 0 0 0 0 0 0 0 0 0 0 0 0 0 0 0 0 
0 0 0 0 0 0 0 0 0 0 0 0 8 16 97 144 163 163 127 131 130 129 120 114 115 125 118 113 128 133 130 118 112 107 101 102 102 99 93 89 86 83 83 80 81 89 92 96 98 96 101 114 119 108 108 111 95 88 97 91 72 78 90 100 103 101 96 93 100 104 107 107 109 111 111 121 124 128 139 130 123 105 113 118 117 144 167 158 132 43 1 0 0 0 0 1 3 4 0 0 0 0 0 0 0 0 0 0 0 0 0 0 0 0 0 0 0 0 0 0 0 0 0 0 0 0 0 0 
0 0 0 0 0 0 0 0 0 0 0 0 8 17 101 149 166 160 126 126 126 124 113 106 107 121 116 118 121 124 120 113 108 107 98 97 101 102 96 88 88 85 81 83 87 87 92 99 100 98 101 111 109 113 108 112 105 100 99 80 75 86 93 96 98 99 94 89 96 102 101 102 110 114 114 118 119 130 144 131 118 100 109 116 108 132 163 158 134 50 2 0 0 0 0 1 3 4 0 0 0 0 0 0 0 0 0 0 0 0 0 0 0 0 0 0 0 0 0 0 0 0 0 0 0 0 0 0 
0 0 0 0 0 0 0 0 0 0 0 0 8 18 101 149 166 155 119 120 119 118 105 98 102 117 117 124 119 114 115 113 98 97 88 88 94 100 94 88 85 86 87 88 89 87 90 95 99 97 105 110 102 108 107 116 110 104 100 83 85 86 89 91 91 93 92 86 91 101 103 103 107 109 109 115 118 132 144 131 118 99 103 112 101 121 153 156 138 56 2 0 0 0 0 1 3 4 0 0 0 0 0 0 0 0 0 0 0 0 0 0 0 0 0 0 0 0 0 0 0 0 0 0 0 0 0 0 
0 0 0 0 0 0 0 0 0 0 0 0 8 18 98 149 166 148 116 111 110 113 97 93 96 112 112 123 121 113 113 110 97 91 85 87 94 95 93 86 77 79 79 86 92 91 93 89 87 94 115 117 105 98 101 95 116 101 93 87 87 86 89 88 88 90 89 85 91 100 102 101 103 111 109 113 116 130 136 132 123 99 101 112 101 117 133 148 140 61 3 0 0 0 0 1 3 4 0 0 0 0 0 0 0 0 0 0 0 0 0 0 0 0 0 0 0 0 0 0 0 0 0 0 0 0 0 0 
0 0 0 0 0 0 0 0 0 0 0 0 8 17 96 149 166 139 115 108 102 111 96 93 96 105 114 119 116 112 112 112 97 86 85 89 92 95 92 86 78 77 84 90 91 95 96 87 85 94 114 119 102 97 97 85 103 109 87 91 91 93 89 89 92 90 85 82 90 100 101 98 99 109 110 111 116 135 141 135 125 101 99 109 103 117 128 146 141 62 3 0 0 0 0 1 3 4 0 0 0 0 0 0 0 0 0 0 0 0 0 0 0 0 0 0 0 0 0 0 0 0 0 0 0 0 0 0 
0 0 0 0 0 0 0 0 0 0 0 0 7 16 92 148 163 132 116 103 100 113 97 95 98 105 115 116 111 111 112 113 94 84 87 90 90 94 91 88 80 77 82 90 93 94 97 87 86 98 110 108 86 83 93 88 88 119 83 86 83 86 86 92 94 91 84 80 91 102 102 97 102 109 106 111 128 144 140 133 121 104 100 105 102 115 128 150 136 59 3 0 0 0 0 1 3 3 0 0 0 0 0 0 0 0 0 0 0 0 0 0 0 0 0 0 0 0 0 0 0 0 0 0 0 0 0 0 
0 0 0 0 0 0 0 0 0 0 0 0 6 15 83 145 162 129 116 103 97 110 98 95 97 100 113 116 106 111 117 116 94 85 87 89 91 95 93 88 85 82 82 89 91 90 96 87 89 101 101 85 80 82 92 84 88 117 100 85 79 81 83 94 94 88 83 83 96 103 99 95 106 104 96 110 137 137 135 136 116 103 102 102 101 114 128 149 130 53 2 0 0 0 0 1 3 3 0 0 0 0 0 0 0 0 0 0 0 0 0 0 0 0 0 0 0 0 0 0 0 0 0 0 0 0 0 0 
0 0 0 0 0 0 0 0 0 0 0 0 4 14 76 141 160 130 115 106 94 107 101 93 97 95 107 118 103 111 119 116 98 90 92 99 96 99 96 91 86 85 87 89 88 90 91 87 100 100 95 82 85 86 94 87 81 93 112 92 82 78 82 95 94 92 87 85 95 99 95 94 104 95 91 108 137 129 127 139 112 101 103 100 100 112 131 144 124 48 2 0 0 0 0 1 3 3 0 0 0 0 0 0 0 0 0 0 0 0 0 0 0 0 0 0 0 0 0 0 0 0 0 0 0 0 0 0 
0 0 0 0 0 0 0 0 0 0 0 0 2 14 69 136 158 135 114 108 94 104 103 93 98 94 102 117 106 114 125 117 101 92 94 100 100 98 97 91 89 84 85 88 87 90 93 94 108 99 87 81 85 91 98 86 82 81 109 101 96 84 83 92 96 96 85 82 89 95 92 96 101 90 91 109 129 116 116 136 110 101 105 95 101 111 133 138 117 42 2 0 0 0 0 1 3 3 0 0 0 0 0 0 0 0 0 0 0 0 0 0 0 0 0 0 0 0 0 0 0 0 0 0 0 0 0 0 
0 0 0 0 0 0 0 0 0 6 5 0 0 12 60 129 152 137 113 107 95 98 105 94 95 96 99 115 111 121 128 114 103 93 94 100 102 96 93 90 88 89 87 86 93 104 104 105 97 91 90 82 85 95 97 89 84 83 94 101 111 102 98 97 98 94 86 84 91 95 90 95 96 90 97 114 121 109 116 132 113 99 103 91 99 110 134 134 107 36 1 0 0 0 0 1 3 4 0 0 0 0 0 0 0 0 0 0 0 0 0 0 0 0 0 0 0 0 0 0 0 0 0 0 0 0 0 0 
0 0 0 0 0 0 0 0 0 3 9 3 1 10 50 121 149 137 111 106 94 94 105 101 90 92 100 115 118 118 123 115 102 94 95 101 104 98 88 89 92 96 94 90 97 102 108 98 100 86 94 82 84 91 90 88 85 84 81 111 119 120 112 100 98 87 80 85 93 93 88 94 95 90 96 120 120 120 130 128 120 104 98 91 100 109 136 131 97 32 1 0 0 0 0 1 3 4 0 0 0 0 0 0 0 0 0 0 0 0 0 0 0 0 0 0 0 0 0 0 0 0 0 0 0 0 0 0 
0 0 0 0 0 0 0 0 0 3 3 8 3 8 41 110 142 138 107 104 92 90 103 103 94 92 101 115 119 105 112 116 104 92 97 99 99 93 89 90 91 94 89 92 111 119 119 105 102 79 87 82 84 92 89 81 85 81 95 123 120 117 104 106 109 105 93 91 92 95 87 92 102 95 99 126 125 121 131 126 127 110 92 91 103 113 138 125 88 26 0 0 0 0 0 1 3 3 0 0 0 0 0 0 0 0 0 0 0 0 0 0 0 0 0 0 0 0 0 0 0 0 0 0 0 0 0 0 
0 0 0 0 0 0 0 0 0 1 2 10 4 7 33 98 137 138 108 100 102 91 98 103 100 95 106 114 115 110 126 122 114 98 95 98 94 96 98 92 93 90 91 98 102 110 109 109 101 76 83 80 81 97 89 78 80 77 86 117 128 125 115 109 110 114 126 130 126 122 119 123 127 117 129 141 130 123 132 130 133 129 98 98 106 124 139 121 80 18 0 0 0 7 4 1 3 3 0 0 0 0 0 0 0 0 0 0 0 0 0 0 0 0 0 0 0 0 0 0 0 0 0 0 0 0 0 0 
0 0 0 0 0 0 0 0 0 0 2 10 4 8 26 88 133 142 117 101 109 92 93 100 101 100 112 115 115 113 118 109 113 121 110 107 106 110 113 100 103 95 81 91 102 110 105 99 98 77 74 78 81 99 88 70 73 73 89 126 134 123 110 103 104 105 127 137 132 139 144 146 144 122 128 124 133 136 128 127 138 126 117 113 102 136 140 117 73 12 3 1 4 5 1 1 3 3 0 0 0 0 0 0 0 0 0 0 0 0 0 0 0 0 0 0 0 0 0 0 0 0 0 0 0 0 0 0 
0 0 0 0 0 0 0 0 0 0 2 9 5 7 20 77 127 146 132 107 105 94 88 96 105 108 118 116 120 118 112 109 109 119 119 121 124 121 113 104 106 101 96 93 98 96 98 97 96 80 81 86 82 102 89 72 79 85 94 119 133 125 114 108 102 109 132 135 133 147 144 135 137 122 130 118 141 150 133 129 138 124 124 128 136 146 121 109 64 9 2 2 3 0 0 1 3 3 0 0 0 0 0 0 0 0 0 0 0 0 0 0 0 0 0 0 0 0 0 0 0 0 0 0 0 0 0 0 
0 0 0 0 0 0 0 0 0 0 1 8 7 8 14 65 119 142 145 114 103 100 92 107 113 106 125 123 119 120 127 126 127 129 127 119 115 117 121 117 113 106 93 88 91 93 96 95 99 97 86 81 87 104 95 80 87 98 108 113 120 125 118 108 106 115 132 131 127 130 134 131 136 143 130 143 154 154 154 151 150 139 137 151 157 135 103 100 49 6 1 2 4 0 0 1 3 4 0 0 0 0 0 0 0 0 0 0 0 0 0 0 0 0 0 0 0 0 0 0 0 0 0 0 0 0 0 0 
0 0 0 0 0 0 0 0 0 0 0 6 9 11 13 53 110 137 145 127 108 113 111 111 119 114 127 135 119 115 139 133 133 145 152 139 136 139 131 118 107 102 105 92 87 93 99 113 112 98 98 88 86 105 98 96 98 104 109 115 118 116 117 116 117 130 148 145 138 146 152 150 142 137 124 140 153 151 153 158 164 169 162 173 175 125 114 97 30 7 2 3 2 0 0 1 3 3 0 0 0 0 0 0 0 0 0 0 0 0 0 0 0 0 0 0 0 0 0 0 0 0 0 0 0 0 0 0 
0 0 0 0 0 0 0 0 0 0 0 6 13 10 11 39 106 136 142 140 127 140 127 133 133 130 139 141 126 131 141 151 152 151 156 156 152 141 130 115 112 110 108 100 93 97 113 129 110 97 103 100 92 118 105 97 96 105 103 106 116 107 100 113 124 130 140 135 136 152 144 137 131 125 134 140 139 135 151 170 170 180 179 175 155 113 118 80 15 5 4 1 2 0 0 1 3 3 0 0 0 0 0 0 0 0 0 0 0 0 0 0 0 0 0 0 0 0 0 0 0 0 0 0 0 0 0 0 
0 0 0 0 0 0 0 0 0 0 0 5 12 9 8 14 62 124 142 142 145 161 166 154 151 145 140 148 140 150 161 157 157 149 152 163 159 148 129 104 100 106 109 103 103 98 106 118 108 94 95 107 100 112 112 95 89 93 96 102 107 100 99 112 129 124 117 127 129 139 134 128 132 127 135 144 143 137 124 144 157 173 172 157 130 112 114 88 15 5 8 2 0 2 0 1 3 2 0 0 0 0 0 0 0 0 0 0 0 0 0 0 0 0 0 0 0 0 0 0 0 0 0 0 0 0 0 0 
0 0 0 0 0 0 0 0 0 0 0 7 6 6 8 11 37 112 141 145 149 165 161 156 154 144 142 150 144 142 156 152 154 150 145 145 146 145 131 101 88 92 98 102 98 101 113 102 101 96 98 100 101 117 113 97 86 79 81 91 91 85 96 117 129 119 117 124 134 127 120 118 107 128 134 142 138 128 124 138 132 156 145 130 107 117 122 60 8 4 5 3 0 2 0 1 3 2 0 0 0 0 0 0 0 0 0 0 0 0 0 0 0 0 0 0 0 0 0 0 0 0 0 0 0 0 0 0 
0 0 0 0 0 0 0 0 0 0 0 7 5 6 6 10 23 90 137 142 150 156 154 136 156 164 169 155 142 134 149 150 138 142 142 141 140 134 131 122 99 86 92 96 87 89 105 87 87 105 100 93 93 115 122 105 79 72 80 80 94 111 116 112 108 102 113 122 123 129 136 124 119 141 152 153 140 135 127 132 138 149 117 110 122 127 107 31 5 3 5 3 0 1 0 0 3 2 0 0 0 0 0 0 0 0 0 0 0 0 0 0 0 0 0 0 0 0 0 0 0 0 0 0 0 0 0 0 
0 0 0 0 0 0 0 0 0 0 0 5 6 6 5 9 16 61 126 141 143 140 151 151 143 150 165 151 139 146 146 136 132 135 143 143 133 126 121 123 103 99 99 96 95 95 112 101 98 110 104 100 93 101 112 117 95 85 88 91 109 125 124 118 104 92 97 99 95 121 131 118 123 139 150 156 158 137 125 130 134 128 117 104 112 120 74 15 6 3 5 3 1 2 0 0 3 2 0 0 0 0 0 0 0 0 0 0 0 0 0 0 0 0 0 0 0 0 0 0 0 0 0 0 0 0 0 0 
0 0 0 0 0 0 0 0 0 0 0 5 6 4 3 9 16 35 108 122 128 133 141 145 152 149 148 134 136 149 153 143 135 124 127 137 136 129 120 105 92 92 101 113 112 109 126 110 109 113 116 101 92 92 120 124 111 99 103 110 112 117 120 122 115 89 83 87 95 110 120 128 125 131 143 156 159 145 141 133 144 132 114 96 90 104 40 7 4 4 5 2 2 2 0 0 3 2 0 0 0 0 0 0 0 0 0 0 0 0 0 0 0 0 0 0 0 0 0 0 0 0 0 0 0 0 0 0 
0 0 0 0 0 0 0 0 0 0 0 5 7 3 3 10 18 20 78 109 116 133 137 141 136 146 143 125 133 148 141 139 130 115 117 131 136 136 117 94 81 87 97 109 111 115 123 116 112 124 131 123 106 102 134 132 113 94 109 121 108 113 122 115 113 98 85 90 98 107 115 133 125 123 138 151 151 149 164 157 143 113 110 84 91 79 21 11 5 6 5 1 0 2 0 0 3 2 0 0 0 0 0 0 0 0 0 0 0 0 0 0 0 0 0 0 0 0 0 0 0 0 0 0 0 0 0 0 
0 0 0 0 0 0 0 0 0 0 0 5 6 3 3 5 15 15 45 109 127 118 140 151 147 145 147 134 145 150 139 131 126 118 112 113 119 115 108 102 92 100 106 108 120 132 133 125 124 129 138 140 143 149 152 139 137 139 131 125 125 133 139 134 118 105 94 94 105 115 110 117 130 119 131 145 152 163 170 166 129 102 101 98 103 52 12 13 7 5 5 1 0 3 0 0 2 2 0 0 0 0 0 0 0 0 0 0 0 0 0 0 0 0 0 0 0 0 0 0 0 0 0 0 0 0 0 0 
0 0 0 0 0 0 0 0 0 0 2 5 6 4 3 5 12 12 25 97 121 99 122 141 158 150 159 149 138 137 147 142 131 121 109 113 110 96 88 103 108 119 113 120 132 142 143 140 145 146 146 150 160 170 170 164 161 156 145 138 140 153 156 148 133 119 114 121 123 122 108 110 127 123 120 142 152 170 165 155 126 98 96 99 97 30 7 13 7 4 3 0 0 3 0 0 2 2 0 0 0 0 0 0 0 0 0 0 0 0 0 0 0 0 0 0 0 0 0 0 0 0 0 0 0 0 0 0 
0 0 0 0 0 0 0 0 0 0 2 5 6 5 2 4 9 10 15 66 117 113 104 122 145 146 153 150 139 135 146 154 135 123 110 115 113 104 98 102 130 132 121 124 135 148 146 148 149 143 142 150 150 149 156 160 156 148 137 134 131 148 155 158 145 141 138 131 136 116 105 103 117 119 110 138 151 167 152 143 133 109 107 107 84 18 6 9 6 5 3 0 2 4 1 0 2 1 0 0 0 0 0 0 0 0 0 0 0 0 0 0 0 0 0 0 0 0 0 0 0 0 0 0 0 0 0 0 
0 0 0 0 0 0 0 0 0 0 1 5 6 3 0 3 8 9 11 41 99 113 108 115 127 141 153 151 147 140 145 154 133 125 112 105 110 118 121 127 135 149 149 139 153 154 149 156 150 138 136 150 146 146 144 148 148 150 144 148 146 151 161 158 157 151 147 152 142 114 98 100 112 119 119 138 158 160 138 128 114 106 116 108 69 17 7 7 7 5 4 3 4 5 2 0 2 1 0 0 0 0 0 0 0 0 0 0 0 0 0 0 0 0 0 0 0 0 0 0 0 0 0 0 0 0 0 0 
0 0 0 0 0 0 0 0 0 0 0 4 14 8 2 3 6 8 10 28 83 108 121 117 109 123 148 151 154 136 137 144 124 111 111 108 105 106 115 124 129 148 158 154 156 159 157 159 154 141 139 155 159 157 150 143 143 150 142 141 135 146 156 164 163 159 154 152 137 108 89 99 116 123 148 148 151 152 135 128 95 83 83 98 57 16 8 6 8 5 4 4 4 5 3 0 2 1 0 0 0 0 0 0 0 0 0 0 0 0 0 0 0 0 0 0 0 0 0 0 0 0 0 0 0 0 0 0 
0 0 0 0 0 0 0 0 0 0 0 6 12 12 9 7 7 10 14 21 66 95 120 121 106 103 141 145 160 141 134 130 127 104 96 102 108 112 112 108 115 142 158 157 162 162 159 160 156 156 153 158 158 156 148 137 132 129 127 119 125 147 155 167 171 169 156 142 132 101 87 97 107 123 163 167 165 162 150 102 89 81 86 88 36 15 5 5 6 6 2 3 4 5 4 0 2 0 0 0 0 0 0 0 0 0 0 0 0 0 0 0 0 0 0 0 0 0 0 0 0 0 0 0 0 0 0 0 
0 0 0 0 0 0 0 0 0 0 0 5 12 10 10 9 9 11 15 17 36 82 115 118 104 103 133 155 163 140 133 124 130 113 93 99 107 115 114 111 112 145 169 163 157 160 152 148 148 156 158 162 160 157 139 117 117 119 126 120 129 150 148 174 178 180 159 134 120 107 96 93 105 126 155 159 169 149 137 86 71 80 78 67 19 14 6 6 4 6 2 4 6 5 1 0 2 0 0 0 0 0 0 0 0 0 0 0 0 0 0 0 0 0 0 0 0 0 0 0 0 0 0 0 0 0 0 0 
0 0 0 0 0 0 0 0 0 0 0 2 11 10 9 10 9 9 13 14 17 47 101 105 98 93 111 145 161 155 151 128 121 114 100 97 97 96 98 106 127 152 165 172 155 151 147 141 145 140 152 148 138 153 145 123 115 118 119 114 134 155 142 169 170 173 159 153 147 106 99 112 124 136 145 146 131 102 102 64 49 77 87 36 11 8 7 6 5 4 6 6 11 5 1 0 2 0 0 0 0 0 0 0 0 0 0 0 0 0 0 0 0 0 0 0 0 0 0 0 0 0 0 0 0 0 0 0 
0 0 0 0 0 0 0 0 0 0 0 0 8 9 6 6 6 6 9 15 19 28 70 99 84 81 107 135 149 157 160 139 122 123 115 99 97 102 108 138 142 158 171 169 180 164 157 159 165 164 157 146 156 174 181 159 147 156 158 147 151 157 179 186 175 179 165 160 156 148 133 138 136 129 113 95 93 91 92 71 86 87 48 15 9 1 1 3 5 6 4 5 8 4 0 0 2 0 0 0 0 0 0 0 0 0 0 0 0 0 0 0 0 0 0 0 0 0 0 0 0 0 0 0 0 0 0 0 
0 0 0 0 0 0 0 0 0 0 0 0 2 7 6 3 3 3 7 11 16 23 35 85 94 77 90 90 92 132 138 138 135 136 124 103 108 111 120 140 159 179 182 182 197 198 188 194 179 165 164 168 172 176 179 167 170 182 179 171 183 175 190 187 185 194 182 178 146 135 134 118 90 83 78 75 73 95 86 71 69 48 31 17 14 3 0 0 1 4 4 5 7 0 0 0 1 0 0 0 0 0 0 0 0 0 0 0 0 0 0 0 0 0 0 0 0 0 0 0 0 0 0 0 0 0 0 0 
0 0 0 0 0 0 0 0 0 0 0 0 0 3 4 2 2 0 1 6 12 21 24 49 87 83 70 51 61 69 92 103 129 139 123 116 107 109 127 162 183 182 172 180 175 201 178 188 176 165 158 168 181 178 169 170 166 169 167 178 190 205 196 164 161 180 160 147 148 131 116 103 95 87 90 92 84 94 71 44 35 40 37 22 17 0 0 0 0 2 2 6 6 0 0 0 1 0 0 0 0 0 0 0 0 0 0 0 0 0 0 0 0 0 0 0 0 0 0 0 0 0 0 0 0 0 0 0 
0 0 0 0 0 0 0 0 0 0 0 0 0 2 5 5 4 4 1 4 9 15 20 22 35 47 35 38 59 56 65 64 77 82 71 84 74 72 80 83 96 113 131 149 162 147 142 121 120 97 89 122 137 140 134 128 104 98 114 105 101 117 105 137 126 144 120 79 65 66 63 72 71 52 53 74 82 88 51 30 28 27 19 7 3 0 3 3 3 2 2 6 5 0 0 0 1 0 0 0 0 0 0 0 0 0 0 0 0 0 0 0 0 0 0 0 0 0 0 0 0 0 0 0 0 0 0 0 
0 0 0 0 0 0 0 0 0 0 0 0 0 0 2 1 4 3 3 1 7 10 13 17 22 21 24 31 62 60 62 64 57 56 58 79 76 54 67 71 86 85 78 78 91 94 73 64 73 70 54 76 94 88 85 90 71 56 70 66 74 97 83 75 73 96 99 87 101 107 70 58 55 46 47 71 81 86 45 29 28 25 16 6 3 1 2 1 1 1 3 4 1 0 0 0 1 0 0 0 0 0 0 0 0 0 0 0 0 0 0 0 0 0 0 0 0 0 0 0 0 0 0 0 0 0 0 0 
0 0 0 0 0 0 0 0 0 0 0 0 0 0 0 0 0 0 0 0 4 9 9 16 21 25 27 36 66 72 67 70 66 62 54 76 89 86 110 133 137 131 103 97 107 108 93 93 100 88 86 103 104 98 101 98 81 62 89 99 94 112 101 93 110 131 103 95 87 78 85 69 63 64 71 89 90 87 53 36 28 21 13 8 2 0 0 0 0 1 1 0 0 0 0 0 1 1 0 0 0 0 0 0 0 0 0 0 0 0 0 0 0 0 0 0 0 0 0 0 0 0 0 0 0 0 0 0 
0 0 0 0 0 0 0 0 0 0 0 0 0 0 0 0 0 0 0 0 0 4 5 7 16 30 36 42 70 80 74 83 82 91 88 96 110 102 109 141 156 162 154 120 133 156 147 160 148 122 119 128 127 117 112 120 117 110 128 144 153 159 151 150 142 155 134 136 107 119 134 98 83 73 77 91 86 86 63 47 28 18 10 4 0 0 0 0 0 0 0 0 0 0 0 0 1 1 0 0 0 0 0 0 0 0 0 0 0 0 0 0 0 0 0 0 0 0 0 0 0 0 0 0 0 0 0 0 
0 0 0 0 0 0 0 0 0 0 0 0 0 0 0 0 0 0 0 0 0 1 2 5 11 23 28 38 57 73 70 76 86 99 108 89 98 86 109 119 162 151 148 137 146 141 161 160 150 160 159 164 157 149 150 144 143 141 150 155 160 170 164 163 167 145 136 148 140 146 130 123 83 50 36 69 70 54 24 14 12 8 1 1 0 0 0 0 0 0 0 0 0 0 0 0 1 2 0 0 0 0 0 0 0 0 0 0 0 0 0 0 0 0 0 0 0 0 0 0 0 0 0 0 0 0 0 0 
0 0 0 0 0 0 0 0 0 0 0 0 0 0 0 0 0 0 0 0 0 0 2 3 8 18 33 40 60 81 82 85 77 90 99 84 74 78 93 78 128 142 103 86 112 119 147 142 136 145 130 127 128 121 126 121 131 127 128 130 133 144 118 120 116 124 134 127 147 156 117 76 47 45 50 85 81 44 21 19 16 8 5 2 0 0 0 0 0 0 0 0 0 0 1 1 5 8 0 0 0 0 0 0 0 0 0 0 0 0 0 0 0 0 0 0 0 0 0 0 0 0 0 0 0 0 0 0 
0 0 0 0 0 0 0 0 0 0 0 0 0 0 0 0 0 0 0 0 0 0 4 6 9 16 18 24 32 56 65 69 60 62 60 61 63 69 92 98 104 113 111 94 108 110 139 127 116 118 110 97 113 89 92 92 104 110 106 109 105 126 120 87 104 121 119 107 125 113 101 88 64 69 78 97 90 53 27 19 19 14 6 1 0 0 0 0 0 0 0 0 0 0 0 0 2 1 0 0 0 0 0 0 0 0 0 0 0 0 0 0 0 0 0 0 0 0 0 0 0 0 0 0 0 0 0 0 
0 0 0 0 0 0 0 0 0 0 0 0 0 0 0 0 0 0 0 0 0 0 2 7 8 12 18 21 25 46 62 75 70 65 58 54 50 54 74 95 92 95 95 100 115 135 126 112 114 110 105 82 100 91 92 92 104 112 114 114 95 113 102 79 75 103 118 123 123 100 84 74 53 56 88 104 90 52 26 20 18 12 6 1 0 0 0 0 0 0 0 0 0 0 0 0 2 0 0 0 0 0 0 0 0 0 0 0 0 0 0 0 0 0 0 0 0 0 0 0 0 0 0 0 0 0 0 0 
0 0 0 0 0 0 0 0 0 0 0 0 0 0 0 0 0 0 0 0 0 0 1 4 8 11 16 21 24 41 62 76 75 67 63 55 45 50 68 92 89 88 89 94 103 105 106 116 117 109 108 92 94 89 87 82 97 93 109 118 108 117 122 115 101 99 107 117 107 95 70 59 61 57 89 108 87 53 25 19 17 11 5 1 0 0 0 0 0 0 0 0 0 0 0 0 1 0 0 0 0 0 0 0 0 0 0 0 0 0 0 0 0 0 0 0 0 0 0 0 0 0 0 0 0 0 0 0 
0 0 0 0 0 0 0 0 0 0 0 0 0 0 0 0 0 0 0 0 0 0 0 3 6 9 13 19 23 35 55 67 76 70 72 57 38 48 65 73 75 85 83 93 97 104 105 112 134 123 114 106 91 85 78 76 81 85 102 114 116 130 127 115 98 92 97 106 111 97 78 51 62 66 90 108 78 47 25 18 15 10 4 1 1 0 0 0 0 0 0 0 0 0 0 0 1 0 0 0 0 0 0 0 0 0 0 0 0 0 0 0 0 0 0 0 0 0 0 0 0 0 0 0 0 0 0 0 
0 0 0 0 0 0 0 0 0 0 0 0 0 0 0 0 0 0 0 0 0 0 0 0 5 7 10 15 20 29 46 57 76 72 82 56 46 61 56 54 71 67 84 91 103 102 114 126 132 108 106 113 106 95 87 81 85 96 116 116 109 116 118 108 94 101 97 89 96 96 81 73 60 72 89 106 78 50 25 18 15 9 2 1 1 0 0 0 0 0 0 0 0 0 0 0 1 0 0 0 0 0 0 0 0 0 0 0 0 0 0 0 0 0 0 0 0 0 0 0 0 0 0 0 0 0 0 0 
0 0 0 0 0 0 0 0 0 0 0 0 0 0 0 0 0 0 0 0 0 0 0 0 2 4 10 12 17 26 38 49 77 72 84 59 60 66 49 60 60 61 87 89 100 99 108 111 104 94 105 113 110 112 103 91 99 113 117 105 106 104 112 101 99 108 103 96 69 69 63 78 67 78 90 100 75 44 20 17 16 8 2 1 1 0 0 0 0 0 0 0 0 0 0 0 1 0 0 0 0 0 0 0 0 0 0 0 0 0 0 0 0 0 0 0 0 0 0 0 0 0 0 0 0 0 0 0 
0 0 0 0 0 0 0 0 0 0 0 0 0 0 0 0 0 0 0 0 0 0 0 0 1 4 6 12 14 20 36 55 69 70 78 59 71 65 50 59 55 67 83 89 101 93 98 94 87 83 103 103 99 110 111 110 104 115 103 90 103 104 115 88 81 95 99 91 69 59 58 70 83 79 98 84 50 25 17 17 17 8 1 1 1 1 0 0 0 0 0 0 0 0 0 0 1 0 0 0 0 0 0 0 0 0 0 0 0 0 0 0 0 0 0 0 0 0 0 0 0 0 0 0 0 0 0 0 
0 0 0 0 0 0 0 0 0 0 0 0 0 0 0 0 0 0 0 0 0 0 0 0 0 3 4 8 15 18 21 31 39 46 64 67 70 66 58 57 51 62 81 91 92 88 89 93 89 83 103 105 97 100 110 110 103 98 95 90 92 93 112 89 81 86 94 87 72 59 64 71 83 81 92 44 18 17 17 18 16 7 1 1 1 1 0 0 0 0 0 0 0 0 0 0 1 0 0 0 0 0 0 0 0 0 0 0 0 0 0 0 0 0 0 0 0 0 0 0 0 0 0 0 0 0 0 0 
0 0 0 0 0 0 0 0 0 0 0 0 0 0 0 0 0 0 0 0 0 0 0 0 0 0 5 5 12 17 19 20 17 14 31 70 75 85 71 59 54 56 81 76 72 76 78 95 99 86 92 98 95 87 84 94 104 98 88 88 88 94 110 91 80 84 74 84 70 60 66 89 96 89 69 25 16 16 18 18 13 6 1 1 1 1 0 0 0 0 0 0 0 0 0 0 1 0 0 0 0 0 0 0 0 0 0 0 0 0 0 0 0 0 0 0 0 0 0 0 0 0 0 0 0 0 0 0 
0 0 0 0 0 0 0 0 0 0 0 0 0 0 0 0 0 0 0 0 0 0 0 0 0 0 2 5 8 14 18 19 18 16 14 37 75 94 69 61 64 59 85 72 67 71 67 94 105 92 88 90 93 87 78 82 97 96 94 85 88 91 114 98 77 83 74 93 75 67 70 85 99 73 35 21 14 16 18 17 11 6 1 1 1 1 0 0 0 0 0 0 0 0 0 0 1 0 0 0 0 0 0 0 0 0 0 0 0 0 0 0 0 0 0 0 0 0 0 0 0 0 0 0 0 0 0 0 
0 0 0 0 0 0 0 0 0 0 0 0 0 0 0 0 0 0 0 0 0 0 0 0 0 0 1 3 6 10 16 18 17 17 12 14 32 68 76 74 70 68 96 78 79 83 74 102 110 98 91 99 100 90 79 89 98 105 113 102 93 97 105 96 75 80 74 97 98 80 83 85 72 33 22 18 14 16 18 15 10 6 1 1 1 1 0 0 0 0 0 0 0 0 0 0 1 0 0 0 0 0 0 0 0 0 0 0 0 0 0 0 0 0 0 0 0 0 0 0 0 0 0 0 0 0 0 0 
0 0 0 0 0 0 0 0 0 0 0 0 0 0 0 0 0 0 0 0 0 0 0 0 0 0 0 3 4 8 11 17 15 17 13 14 17 32 66 73 77 89 100 84 91 94 89 102 100 102 99 95 95 88 81 89 91 99 114 105 96 93 105 105 89 89 88 99 107 87 84 72 37 26 23 16 13 17 17 13 9 5 1 1 1 1 0 0 0 0 0 0 0 0 0 0 1 0 0 0 0 0 0 0 0 0 0 0 0 0 0 0 0 0 0 0 0 0 0 0 0 0 0 0 0 0 0 0 
0 0 0 0 0 0 0 0 0 0 0 0 0 0 0 0 0 0 0 0 0 0 0 0 0 0 0 0 6 6 9 16 15 17 14 11 16 21 33 56 74 89 99 92 96 104 100 102 102 108 95 89 89 91 89 89 96 97 112 118 102 95 113 115 102 101 100 101 106 83 61 37 27 26 25 16 14 16 14 12 9 5 1 1 1 1 0 0 0 0 0 0 0 0 0 0 1 0 0 0 0 0 0 0 0 0 0 0 0 0 0 0 0 0 0 0 0 0 0 0 0 0 0 0 0 0 0 0 
0 0 0 0 0 0 0 0 0 0 0 0 0 0 0 0 0 0 0 0 0 0 0 0 0 0 0 0 1 7 8 14 14 17 15 12 14 20 27 29 35 56 76 94 105 108 101 105 106 98 92 94 102 98 88 90 95 101 110 119 109 97 109 122 109 98 103 99 76 46 29 31 27 25 22 15 14 14 14 12 8 5 1 1 1 1 0 0 0 0 0 0 0 0 0 0 1 0 0 0 0 0 0 0 0 0 0 0 0 0 0 0 0 0 0 0 0 0 0 0 0 0 0 0 0 0 0 0 
0 0 0 0 0 0 0 0 0 0 0 0 0 0 0 0 0 0 0 0 0 0 0 0 0 0 0 0 0 6 5 11 14 16 15 12 11 19 26 29 30 35 41 63 86 94 95 93 99 94 102 105 104 100 99 99 97 104 113 111 110 109 112 114 105 95 84 62 44 37 28 29 27 24 18 15 13 15 14 11 8 4 1 1 1 1 0 0 0 0 0 0 0 0 0 0 1 0 0 0 0 0 0 0 0 0 0 0 0 0 0 0 0 0 0 0 0 0 0 0 0 0 0 0 0 0 0 0 
0 0 0 0 0 0 0 0 0 0 0 0 0 0 0 0 0 0 0 0 0 0 0 0 0 0 0 0 0 4 6 9 14 15 16 12 11 19 26 28 31 33 33 39 51 67 75 78 89 91 101 105 97 101 111 111 104 106 117 114 119 107 109 97 79 65 47 44 40 37 27 28 26 22 17 14 14 14 14 11 7 4 1 0 1 1 0 0 0 0 0 0 0 0 0 0 0 0 0 0 0 0 0 0 0 0 0 0 0 0 0 0 0 0 0 0 0 0 0 0 0 0 0 0 0 0 0 0 
