P2
128 99
255
0 0 0 0 0 0 0 0 0 0 0 0 0 0 0 0 0 0 0 0 0 0 0 0 0 0 0 0 0 0 0 0 0 0 0 0 0 0 0 0 0 0 0 0 0 0 0 0 0 0 0 0 0 0 0 0 0 0 0 0 0 0 0 0 0 0 0 0 0 0 0 0 0 0 0 0 0 0 0 0 0 0 0 0 0 0 0 0 0 0 0 0 0 0 0 0 0 0 0 0 0 0 0 0 0 0 0 0 0 0 0 0 0 0 0 0 0 0 0 0 0 0 0 0 0 0 0 0 
0 0 0 0 0 0 0 0 0 0 0 0 0 0 0 0 0 0 0 0 0 0 0 0 0 0 0 0 0 0 0 0 0 0 0 0 0 0 0 0 0 0 0 0 0 0 0 0 0 0 0 0 0 0 0 0 0 0 0 0 0 0 0 0 0 0 0 0 0 0 0 0 0 0 0 0 0 0 0 0 0 0 0 0 0 0 0 0 0 0 0 0 0 0 0 0 0 0 0 0 0 0 0 0 0 0 0 0 0 0 0 0 0 0 0 0 0 0 0 0 0 0 0 0 0 0 0 0 
0 0 0 0 0 0 0 0 0 0 0 0 0 0 0 0 0 0 0 0 0 0 0 0 0 0 0 0 0 0 0 0 0 0 0 0 0 0 0 0 0 0 0 0 0 0 0 0 0 0 0 0 0 0 0 0 0 0 0 0 0 0 0 0 0 0 0 0 0 0 0 0 0 0 0 0 0 0 0 0 0 0 0 0 0 0 0 0 0 0 0 0 0 0 0 0 0 0 0 0 0 0 0 0 0 0 0 0 0 0 0 0 0 0 0 0 0 0 0 0 0 0 0 0 0 0 0 0 
0 0 0 0 0 0 0 0 0 0 0 0 0 0 0 0 0 0 0 0 0 0 0 0 0 0 0 0 0 0 0 0 0 0 0 0 0 0 0 0 0 0 0 0 0 1 14 19 17 14 12 12 13 14 16 13 13 14 17 17 4 0 0 0 0 0 0 0 0 0 0 0 0 0 0 0 0 0 0 0 0 0 0 0 0 0 0 0 0 0 0 0 0 0 0 0 0 0 0 0 0 0 0 0 0 0 0 0 0 0 0 0 0 0 0 0 0 0 0 0 0 0 0 0 0 0 0 0 
0 0 0 0 0 0 0 0 0 0 0 0 0 0 0 0 0 0 0 0 0 0 0 0 0 0 0 0 0 0 0 0 0 0 0 0 0 0 0 0 0 1 21 24 21 17 20 40 70 102 130 141 144 141 133 119 103 105 101 69 36 19 20 20 1 0 0 0 0 0 0 0 0 0 0 0 0 0 0 0 0 0 0 0 0 0 0 0 0 0 0 0 0 0 0 0 0 0 0 0 0 0 0 0 0 0 0 0 0 0 0 0 0 0 0 0 0 0 0 0 0 0 0 0 0 0 0 0 
0 0 0 0 0 0 0 0 0 0 0 0 0 0 0 0 0 0 0 0 0 0 0 0 0 0 0 0 0 0 0 0 0 0 0 0 0 0 0 12 25 19 14 24 55 105 179 179 188 177 166 160 161 162 164 148 160 168 157 143 128 100 108 56 21 19 19 0 0 0 0 0 0 0 0 0 0 0 0 0 0 0 0 0 0 0 0 0 0 0 0 0 0 0 0 0 0 0 0 0 0 0 0 0 0 0 0 0 0 0 0 0 0 0 0 0 0 0 0 0 0 0 0 0 0 0 0 0 
0 0 0 0 0 0 0 0 0 0 0 0 0 0 0 0 0 0 0 0 0 0 0 0 0 0 0 0 0 0 0 0 0 0 0 0 0 18 24 15 17 42 105 200 180 172 160 143 149 145 158 150 150 147 145 151 151 138 149 157 160 150 145 134 108 88 45 15 24 3 0 0 0 0 0 0 0 0 0 0 0 0 0 0 0 0 0 0 0 0 0 0 0 0 0 0 0 0 0 0 0 0 0 0 0 0 0 0 0 0 0 0 0 0 0 0 0 0 0 0 0 0 0 0 0 0 0 0 
0 0 0 0 0 0 0 0 0 0 0 0 0 0 0 0 0 0 0 0 0 0 0 0 0 0 0 0 0 0 0 0 0 0 0 16 23 14 17 63 167 186 176 165 136 137 145 145 151 136 106 92 78 54 46 73 112 209 156 143 139 142 157 166 159 148 134 97 62 16 22 1 0 0 0 0 0 0 0 0 0 0 0 0 0 0 0 0 0 0 0 0 0 0 0 0 0 0 0 0 0 0 0 0 0 0 0 0 0 0 0 0 0 0 0 0 0 0 0 0 0 0 0 0 0 0 0 0 
0 0 0 0 0 0 0 0 0 0 0 0 0 0 0 0 0 0 0 0 0 0 0 0 0 0 0 0 0 0 0 0 0 13 24 13 13 67 214 192 169 146 121 140 146 182 229 159 125 135 149 162 169 176 181 168 120 73 57 74 94 144 147 141 150 163 166 159 144 102 56 16 15 0 0 0 0 0 0 0 0 0 0 0 0 0 0 0 0 0 0 0 0 0 0 0 0 0 0 0 0 0 0 0 0 0 0 0 0 0 0 0 0 0 0 0 0 0 0 0 0 0 0 0 0 0 0 0 
0 0 0 0 0 0 0 0 0 0 0 0 0 0 0 0 0 0 0 0 0 0 0 0 0 0 0 0 0 0 0 1 23 19 11 44 165 189 163 159 144 151 182 229 238 200 181 246 28 30 27 15 9 12 16 25 35 26 229 139 87 70 71 99 179 157 159 161 167 170 139 88 28 21 0 0 0 0 0 0 0 0 0 0 0 0 0 0 0 0 0 0 0 0 0 0 0 0 0 0 0 0 0 0 0 0 0 0 0 0 0 0 0 0 0 0 0 0 0 0 0 0 0 0 0 0 0 0 
0 0 0 0 0 0 0 0 0 0 0 0 0 0 0 0 0 0 0 0 0 0 0 0 0 0 0 0 0 0 13 22 13 20 150 192 170 155 148 150 201 198 187 165 167 177 234 253 255 245 6 190 182 215 205 218 239 250 2 244 201 130 158 105 74 78 114 156 156 162 180 167 115 53 18 4 0 0 0 0 0 0 0 0 0 0 0 0 0 0 0 0 0 0 0 0 0 0 0 0 0 0 0 0 0 0 0 0 0 0 0 0 0 0 0 0 0 0 0 0 0 0 0 0 0 0 0 0 
0 0 0 0 0 0 0 0 0 0 0 0 0 0 0 0 0 0 0 0 0 0 0 0 0 0 0 0 0 20 19 14 58 209 167 160 155 165 193 172 155 157 166 140 148 194 238 248 252 6 15 21 14 252 242 234 204 181 199 232 237 198 144 150 187 126 84 70 100 167 164 170 177 140 86 17 7 0 0 0 0 0 0 0 0 0 0 0 0 0 0 0 0 0 0 0 0 0 0 0 0 0 0 0 0 0 0 0 0 0 0 0 0 0 0 0 0 0 0 0 0 0 0 0 0 0 0 0 
0 0 0 0 0 0 0 0 0 0 0 0 0 0 0 0 0 0 0 0 0 0 0 0 0 0 0 0 19 37 33 86 183 172 168 173 200 164 147 164 153 129 81 42 39 48 84 120 164 203 8 19 0 202 106 56 41 39 43 64 143 220 203 146 112 119 151 126 91 79 143 157 155 164 150 80 20 5 0 0 0 0 0 0 0 0 0 0 0 0 0 0 0 0 0 0 0 0 0 0 0 0 0 0 0 0 0 0 0 0 0 0 0 0 0 0 0 0 0 0 0 0 0 0 0 0 0 0 
0 0 0 0 0 0 0 0 0 0 0 0 0 0 0 0 0 0 0 0 0 0 0 0 0 0 0 26 54 30 141 178 169 173 204 177 122 148 162 136 131 78 37 33 30 31 32 34 50 74 85 120 83 55 52 40 34 33 34 35 58 150 236 208 158 125 98 105 142 115 83 92 142 136 155 161 94 19 1 0 0 0 0 0 0 0 0 0 0 0 0 0 0 0 0 0 0 0 0 0 0 0 0 0 0 0 0 0 0 0 0 0 0 0 0 0 0 0 0 0 0 0 0 0 0 0 0 0 
0 0 0 0 0 0 0 0 0 0 0 0 0 0 0 0 0 0 0 0 0 0 0 0 0 0 30 43 22 138 167 173 177 200 146 113 136 140 138 134 62 31 29 31 29 30 36 49 53 54 54 53 54 50 48 48 43 31 29 28 29 44 157 235 226 209 172 118 90 104 142 95 83 118 130 154 169 108 22 0 0 0 0 0 0 0 0 0 0 0 0 0 0 0 0 0 0 0 0 0 0 0 0 0 0 0 0 0 0 0 0 0 0 0 0 0 0 0 0 0 0 0 0 0 0 0 0 0 
0 0 0 0 0 0 0 0 0 0 0 0 0 0 0 0 0 0 0 0 0 0 0 0 0 27 40 29 135 157 170 185 189 129 126 128 132 151 119 47 28 25 26 27 29 37 46 48 52 54 53 54 49 46 46 46 48 46 44 39 37 35 43 125 227 255 230 203 152 101 96 124 105 80 120 135 148 176 124 23 0 0 0 0 0 0 0 0 0 0 0 0 0 0 0 0 0 0 0 0 0 0 0 0 0 0 0 0 0 0 0 0 0 0 0 0 0 0 0 0 0 0 0 0 0 0 0 0 
0 0 0 0 0 0 0 0 0 0 0 0 0 0 0 0 0 0 0 0 0 0 0 0 17 42 28 137 153 173 255 196 128 112 126 161 202 109 38 28 24 28 27 30 40 45 43 47 44 45 49 49 47 46 45 45 47 48 46 45 44 44 39 49 85 183 255 228 217 192 147 123 102 100 87 130 143 156 183 126 20 0 0 0 0 0 0 0 0 0 0 0 0 0 0 0 0 0 0 0 0 0 0 0 0 0 0 0 0 0 0 0 0 0 0 0 0 0 0 0 0 0 0 0 0 0 0 0 
0 0 0 0 0 0 0 0 0 0 0 0 0 0 0 0 0 0 0 0 0 0 0 15 45 31 146 167 3 237 193 121 108 141 190 217 98 34 29 28 28 30 35 39 44 47 45 44 48 45 49 50 44 45 49 46 44 46 46 44 43 41 40 43 48 71 143 196 208 220 204 178 96 73 89 95 133 143 158 188 130 11 0 0 0 0 0 0 0 0 0 0 0 0 0 0 0 0 0 0 0 0 0 0 0 0 0 0 0 0 0 0 0 0 0 0 0 0 0 0 0 0 0 0 0 0 0 0 
0 0 0 0 0 0 0 0 0 0 0 0 0 0 0 0 0 0 0 0 0 0 21 44 30 151 170 8 233 188 115 142 186 207 220 117 36 30 35 40 41 44 43 44 46 45 44 48 49 45 43 47 47 46 47 45 42 44 47 44 48 43 44 43 43 44 50 83 170 208 185 190 155 120 110 88 88 141 143 155 184 72 4 0 0 0 0 0 0 0 0 0 0 0 0 0 0 0 0 0 0 0 0 0 0 0 0 0 0 0 0 0 0 0 0 0 0 0 0 0 0 0 0 0 0 0 0 0 
0 0 0 0 0 0 0 0 0 0 0 0 0 0 0 0 0 0 0 0 0 14 44 25 147 182 12 211 156 92 140 197 213 219 103 39 40 45 43 45 43 42 42 45 43 50 52 48 51 46 50 54 61 62 60 57 51 48 45 44 44 45 45 43 42 46 43 45 64 133 182 171 180 185 157 106 77 99 150 142 171 201 35 0 0 0 0 0 0 0 0 0 0 0 0 0 0 0 0 0 0 0 0 0 0 0 0 0 0 0 0 0 0 0 0 0 0 0 0 0 0 0 0 0 0 0 0 0 
0 0 0 0 0 0 0 0 0 0 0 0 0 0 0 0 0 0 0 0 4 45 21 89 189 15 217 151 98 146 196 212 222 113 42 43 44 47 43 45 42 47 46 45 43 46 55 64 64 74 79 88 105 110 116 119 112 103 88 71 49 43 46 46 45 45 44 41 44 62 126 179 203 156 192 165 123 83 146 167 157 173 130 6 0 0 0 0 0 0 0 0 0 0 0 0 0 0 0 0 0 0 0 0 0 0 0 0 0 0 0 0 0 0 0 0 0 0 0 0 0 0 0 0 0 0 0 0 
0 0 0 0 0 0 0 0 0 0 0 0 0 0 0 0 0 0 0 0 40 29 54 198 52 235 161 107 132 188 208 231 127 43 43 42 47 44 47 45 46 42 43 43 61 90 132 180 212 241 253 12 38 48 48 52 46 38 3 209 140 77 41 47 45 45 46 45 45 45 53 114 186 197 176 199 186 127 94 201 149 160 180 37 0 0 0 0 0 0 0 0 0 0 0 0 0 0 0 0 0 0 0 0 0 0 0 0 0 0 0 0 0 0 0 0 0 0 0 0 0 0 0 0 0 0 0 0 
0 0 0 0 0 0 0 0 0 0 0 0 0 0 0 0 0 0 0 27 34 31 179 33 231 153 133 152 173 190 221 128 57 46 47 43 46 47 46 49 45 47 53 97 161 238 59 117 151 153 4 113 117 117 9 159 113 112 5 118 51 210 112 53 49 46 45 45 47 44 44 53 103 180 193 187 196 195 140 133 216 150 164 123 7 0 0 0 0 0 0 0 0 0 0 0 0 0 0 0 0 0 0 0 0 0 0 0 0 0 0 0 0 0 0 0 0 0 0 0 0 0 0 0 0 0 0 0 
0 0 0 0 0 0 0 0 0 0 0 0 0 0 0 0 0 0 11 33 26 105 25 232 172 163 171 183 194 207 129 64 45 42 41 44 44 44 48 43 47 65 144 226 57 134 110 115 112 147 115 134 111 6 126 91 154 113 112 114 109 125 1 127 58 47 46 44 46 44 46 45 49 102 166 181 224 205 200 117 194 181 156 182 31 0 0 0 0 0 0 0 0 0 0 0 0 0 0 0 0 0 0 0 0 0 0 0 0 0 0 0 0 0 0 0 0 0 0 0 0 0 0 0 0 0 0 0 
0 0 0 0 0 0 0 0 0 0 0 0 0 0 0 0 0 0 26 24 46 235 0 225 222 168 169 140 204 145 65 37 44 43 41 44 47 49 49 46 72 151 24 105 141 111 110 137 108 88 71 71 71 59 68 41 70 98 119 116 117 115 239 14 125 52 45 47 44 45 44 44 45 50 106 167 237 203 205 170 161 234 163 161 73 1 0 0 0 0 0 0 0 0 0 0 0 0 0 0 0 0 0 0 0 0 0 0 0 0 0 0 0 0 0 0 0 0 0 0 0 0 0 0 0 0 0 0 
0 0 0 0 0 0 0 0 0 0 0 0 0 0 0 0 0 4 24 26 150 237 229 43 204 162 167 200 169 65 44 44 40 41 42 46 43 47 48 66 167 49 0 119 9 145 105 78 69 58 55 76 54 47 50 61 64 71 111 11 124 128 120 0 19 114 48 45 46 49 45 42 46 45 51 111 168 233 212 187 182 16 198 158 133 11 0 0 0 0 0 0 0 0 0 0 0 0 0 0 0 0 0 0 0 0 0 0 0 0 0 0 0 0 0 0 0 0 0 0 0 0 0 0 0 0 0 0 
0 0 0 0 0 0 0 0 0 0 0 0 0 0 0 0 0 11 21 59 229 234 54 49 183 194 195 172 54 39 40 41 47 43 44 45 44 49 73 164 62 133 145 27 133 124 96 98 88 89 82 100 102 81 22 72 115 88 70 100 121 152 142 125 255 29 118 48 44 46 45 44 44 40 44 53 101 188 218 199 225 71 9 172 181 33 0 0 0 0 0 0 0 0 0 0 0 0 0 0 0 0 0 0 0 0 0 0 0 0 0 0 0 0 0 0 0 0 0 0 0 0 0 0 0 0 0 0 
0 0 0 0 0 0 0 0 0 0 0 0 0 0 0 0 0 16 23 128 247 251 74 248 194 227 150 42 36 42 42 38 45 45 46 46 47 69 173 91 154 181 190 141 99 114 132 139 146 126 119 113 101 46 32 117 143 107 109 125 91 107 36 157 17 3 36 124 52 48 48 43 44 38 40 44 37 80 214 222 210 84 37 205 176 61 1 0 0 0 0 0 0 0 0 0 0 0 0 0 0 0 0 0 0 0 0 0 0 0 0 0 0 0 0 0 0 0 0 0 0 0 0 0 0 0 0 0 
0 0 0 0 0 0 0 0 0 0 0 0 0 0 0 0 0 19 50 180 241 92 95 233 175 171 60 31 37 41 44 41 44 41 47 47 74 165 86 180 163 138 121 93 76 96 129 134 210 58 153 134 121 124 146 136 202 133 130 64 236 240 49 119 96 255 105 37 113 53 45 44 45 43 44 41 33 36 122 224 244 71 58 7 164 84 8 0 0 0 0 0 0 0 0 0 0 0 0 0 0 0 0 0 0 0 0 0 0 0 0 0 0 0 0 0 0 0 0 0 0 0 0 0 0 0 0 0 
0 0 0 0 0 0 0 0 0 0 0 0 0 0 0 0 14 21 94 216 40 108 99 237 212 93 30 30 44 39 44 44 47 46 44 77 172 102 206 33 62 81 97 98 99 91 80 121 149 108 105 151 116 149 123 61 79 98 87 246 208 216 251 76 88 107 139 107 34 115 59 47 47 46 46 45 33 32 52 176 235 36 68 26 154 133 14 0 0 0 0 0 0 0 0 0 0 0 0 0 0 0 0 0 0 0 0 0 0 0 0 0 0 0 0 0 0 0 0 0 0 0 0 0 0 0 0 0 
0 0 0 0 0 0 0 0 0 0 0 0 0 0 0 0 17 34 136 179 84 110 83 214 130 36 25 36 39 46 44 49 45 51 79 180 112 226 50 85 39 165 172 35 112 95 20 25 12 2 49 135 49 132 87 13 3 24 52 36 8 249 245 54 92 67 112 128 104 31 99 56 47 48 46 44 40 34 44 143 241 22 48 15 145 141 22 0 0 0 0 0 0 0 0 0 0 0 0 0 0 0 0 0 0 0 0 0 0 0 0 0 0 0 0 0 0 0 0 0 0 0 0 0 0 0 0 0 
0 0 0 0 0 0 0 0 0 0 0 0 0 0 0 0 15 66 158 5 111 121 50 174 60 26 34 43 45 42 42 41 53 78 201 37 227 61 106 208 42 45 47 76 6 80 250 158 158 214 21 77 149 134 72 247 239 3 33 115 133 93 27 52 89 49 11 78 127 105 13 86 46 43 44 46 43 32 40 101 218 12 90 3 195 154 30 3 0 0 0 0 0 0 0 0 0 0 0 0 0 0 0 0 0 0 0 0 0 0 0 0 0 0 0 0 0 0 0 0 0 0 0 0 0 0 0 0 
0 0 0 0 0 0 0 0 0 0 0 0 0 0 0 0 23 92 169 37 126 139 16 92 34 33 46 45 41 48 47 46 64 205 46 228 220 125 242 51 44 50 42 47 126 94 9 144 145 199 21 47 132 117 41 13 47 79 123 94 195 167 64 46 66 130 204 41 13 134 107 4 72 42 45 41 42 37 33 65 195 19 114 234 219 205 48 7 0 0 0 0 0 0 0 0 0 0 0 0 0 0 0 0 0 0 0 0 0 0 0 0 0 0 0 0 0 0 0 0 0 0 0 0 0 0 0 0 
0 0 0 0 0 0 0 0 0 0 0 0 0 0 0 5 28 113 187 42 112 120 227 44 31 39 42 42 41 43 50 54 175 34 233 220 94 58 121 45 47 46 47 44 45 231 42 201 182 233 52 46 111 107 63 56 92 141 127 165 43 45 43 46 46 44 62 172 78 21 121 106 236 60 46 42 45 41 34 45 174 23 129 9 223 205 93 10 0 0 0 0 0 0 0 0 0 0 0 0 0 0 0 0 0 0 0 0 0 0 0 0 0 0 0 0 0 0 0 0 0 0 0 0 0 0 0 0 
0 0 0 0 0 0 0 0 0 0 0 0 0 0 0 8 40 137 159 38 101 119 167 33 32 41 45 42 43 49 59 120 3 228 225 86 223 251 33 53 44 47 44 47 46 46 175 5 238 38 96 73 47 84 71 68 47 96 85 107 44 43 45 47 46 45 85 251 20 51 250 110 99 211 49 49 45 43 37 45 156 27 132 16 241 208 152 17 0 0 0 0 0 0 0 0 0 0 0 0 0 0 0 0 0 0 0 0 0 0 0 0 0 0 0 0 0 0 0 0 0 0 0 0 0 0 0 0 
0 0 0 0 0 0 0 0 0 0 0 0 0 0 0 16 56 153 174 30 109 103 128 31 31 42 45 46 46 67 103 64 225 227 105 23 210 200 242 32 46 240 46 46 45 44 44 147 248 55 90 53 206 16 74 26 217 238 225 44 44 49 43 45 47 171 11 218 238 65 6 105 105 100 210 52 44 42 38 41 130 4 103 33 245 214 170 26 0 0 0 0 0 0 0 0 0 0 0 0 0 0 0 0 0 0 0 0 0 0 0 0 0 0 0 0 0 0 0 0 0 0 0 0 0 0 0 0 
0 0 0 0 0 0 0 0 0 0 0 0 0 0 0 21 72 164 192 50 130 66 112 32 29 37 39 43 50 81 24 200 225 136 109 199 55 44 45 46 67 136 90 45 44 42 39 67 208 22 44 47 238 12 35 96 39 44 40 47 44 44 44 106 103 66 58 48 46 54 123 60 103 118 146 254 58 45 34 35 144 248 83 66 6 186 209 43 2 0 0 0 0 0 0 0 0 0 0 0 0 0 0 0 0 0 0 0 0 0 0 0 0 0 0 0 0 0 0 0 0 0 0 0 0 0 0 0 
0 0 0 0 0 0 0 0 0 0 0 0 0 0 1 23 92 181 145 60 145 50 106 33 35 29 42 43 68 189 36 212 227 40 147 46 43 43 47 49 45 62 49 67 148 114 41 42 37 41 49 201 247 248 172 34 40 40 47 46 43 82 67 42 64 70 71 74 72 60 47 51 163 251 162 159 2 51 32 44 161 254 56 137 34 183 220 60 5 0 0 0 0 0 0 0 0 0 0 0 0 0 0 0 0 0 0 0 0 0 0 0 0 0 0 0 0 0 0 0 0 0 0 0 0 0 0 0 
0 0 0 0 0 0 0 0 0 0 0 0 0 0 6 27 95 184 149 77 126 11 87 38 27 24 37 47 121 248 175 214 53 148 48 46 52 70 72 76 72 76 58 51 47 115 53 40 37 40 40 73 168 157 63 31 37 43 45 43 80 66 46 61 82 84 83 76 77 76 72 50 43 110 239 152 122 161 30 40 171 1 29 144 78 182 226 72 7 0 0 0 0 0 0 0 0 0 0 0 0 0 0 0 0 0 0 0 0 0 0 0 0 0 0 0 0 0 0 0 0 0 0 0 0 0 0 0 
0 0 0 0 0 0 0 0 0 0 0 0 0 0 8 28 100 185 145 127 125 246 71 40 29 29 26 52 20 192 193 219 170 45 50 58 65 75 72 69 79 72 76 54 48 48 63 43 42 40 37 45 135 116 50 29 39 43 47 82 86 46 56 87 94 85 73 74 73 75 78 72 55 51 134 3 123 47 41 37 177 4 10 112 127 225 217 77 9 0 0 0 0 0 0 0 0 0 0 0 0 0 0 0 0 0 0 0 0 0 0 0 0 0 0 0 0 0 0 0 0 0 0 0 0 0 0 0 
0 0 0 0 0 0 0 0 0 0 0 0 0 0 12 25 99 221 31 167 130 221 53 44 30 29 29 78 239 195 215 25 65 53 55 70 77 72 81 73 74 77 84 65 49 43 70 72 43 43 38 59 140 114 99 31 41 45 59 190 59 44 58 90 78 75 74 71 68 70 71 80 71 66 63 163 255 73 54 37 182 2 14 54 161 214 189 86 11 0 0 0 0 0 0 0 0 0 0 0 0 0 0 0 0 0 0 0 0 0 0 0 0 0 0 0 0 0 0 0 0 0 0 0 0 0 0 0 
0 0 0 0 0 0 0 0 0 0 0 0 0 0 16 25 95 242 175 145 131 169 46 42 34 28 26 120 11 183 32 110 69 53 71 69 61 67 69 73 72 68 73 84 60 48 57 104 42 43 37 60 104 113 130 33 38 43 121 147 51 47 73 74 77 77 71 74 68 68 70 73 81 83 82 77 156 198 40 35 186 3 18 37 120 218 195 140 16 0 0 0 0 0 0 0 0 0 0 0 0 0 0 0 0 0 0 0 0 0 0 0 0 0 0 0 0 0 0 0 0 0 0 0 0 0 0 0 
0 0 0 0 0 0 0 0 0 0 0 0 0 0 15 22 82 245 180 158 126 124 40 44 38 28 28 125 252 156 43 78 59 66 69 61 63 67 66 72 69 70 72 69 68 54 46 98 41 41 37 35 22 101 60 46 34 46 142 98 43 63 75 73 72 73 70 72 65 65 66 69 79 81 87 79 71 58 20 39 176 250 21 36 75 183 193 159 22 0 0 0 0 0 0 0 0 0 0 0 0 0 0 0 0 0 0 0 0 0 0 0 0 0 0 0 0 0 0 0 0 0 0 0 0 0 0 0 
0 0 0 0 0 0 0 0 0 0 0 0 0 0 17 22 84 29 179 168 90 102 40 42 41 31 33 96 191 122 185 67 63 66 72 65 62 66 68 68 69 65 71 67 70 58 42 75 90 43 38 43 26 33 29 89 45 56 189 65 50 72 76 71 73 72 73 66 64 60 62 71 73 89 93 80 49 20 18 49 187 8 29 48 71 163 180 166 28 0 0 0 0 0 0 0 0 0 0 0 0 0 0 0 0 0 0 0 0 0 0 0 0 0 0 0 0 0 0 0 0 0 0 0 0 0 0 0 
0 0 0 0 0 0 0 0 0 0 0 0 0 0 17 21 83 48 176 151 25 92 45 39 46 34 39 79 2 62 116 54 67 71 69 67 64 63 67 65 64 61 63 63 65 64 55 55 136 43 34 35 39 41 41 77 24 53 187 50 60 71 61 57 67 71 73 68 65 63 68 71 74 88 93 78 41 19 29 54 201 19 33 46 54 105 172 173 31 0 0 0 0 0 0 0 0 0 0 0 0 0 0 0 0 0 0 0 0 0 0 0 0 0 0 0 0 0 0 0 0 0 0 0 0 0 0 0 
0 0 0 0 0 0 0 0 0 0 0 0 0 0 17 20 84 72 101 45 6 103 43 40 44 34 49 68 212 26 95 54 72 77 75 65 64 65 69 65 61 64 62 66 63 65 64 45 43 38 27 27 41 42 47 42 22 30 113 46 60 69 59 61 68 66 66 65 65 63 70 71 73 91 92 73 45 25 30 69 224 25 36 57 25 56 100 176 35 0 0 0 0 0 0 0 0 0 0 0 0 0 0 0 0 0 0 0 0 0 0 0 0 0 0 0 0 0 0 0 0 0 0 0 0 0 0 0 
0 0 0 0 0 0 0 0 0 0 0 0 0 0 14 20 88 93 67 25 13 123 45 41 41 46 64 68 179 35 130 59 71 80 72 65 64 62 62 60 70 58 58 51 58 63 68 40 46 31 24 38 37 38 33 34 22 19 76 48 61 76 71 67 68 66 67 71 69 67 67 73 78 94 98 82 53 26 29 89 249 28 35 60 234 40 129 229 35 1 0 0 0 0 0 0 0 0 0 0 0 0 0 0 0 0 0 0 0 0 0 0 0 0 0 0 0 0 0 0 0 0 0 0 0 0 0 0 
0 0 0 0 0 0 0 0 0 0 0 0 0 0 11 24 90 77 70 20 21 161 43 45 45 66 66 72 167 93 223 67 73 77 70 63 64 67 65 64 62 63 54 55 62 61 68 37 40 19 24 43 53 45 42 43 35 19 34 52 59 75 71 64 63 62 69 67 71 67 66 72 81 87 95 91 62 28 33 108 6 30 48 69 187 37 136 168 30 3 0 0 0 0 0 0 0 0 0 0 0 0 0 0 0 0 0 0 0 0 0 0 0 0 0 0 0 0 0 0 0 0 0 0 0 0 0 0 
0 0 0 0 0 0 0 0 0 0 0 0 0 0 9 25 84 22 69 22 21 197 52 42 54 72 60 63 195 252 222 135 74 72 69 62 63 67 62 60 64 59 55 56 60 58 54 38 26 20 39 49 46 41 39 39 42 26 24 41 44 55 71 62 61 60 65 68 70 67 64 73 81 79 74 73 54 42 38 121 5 23 48 68 131 45 143 153 27 4 0 0 0 0 0 0 0 0 0 0 0 0 0 0 0 0 0 0 0 0 0 0 0 0 0 0 0 0 0 0 0 0 0 0 0 0 0 0 
0 0 0 0 0 0 0 0 0 0 0 0 0 0 10 21 75 229 73 33 15 227 66 41 62 56 46 56 234 105 113 231 63 66 68 63 61 64 71 63 56 57 55 65 59 40 36 40 26 23 45 46 49 44 34 41 40 37 21 59 39 49 58 59 57 64 64 63 68 65 69 71 75 63 52 43 47 54 50 118 0 14 62 54 85 52 167 139 21 4 0 0 0 0 0 0 0 0 0 0 0 0 0 0 0 0 0 0 0 0 0 0 0 0 0 0 0 0 0 0 0 0 0 0 0 0 0 0 
0 0 0 0 0 0 0 0 0 0 0 0 0 0 12 21 56 210 83 22 15 247 83 42 71 42 49 58 51 109 113 217 52 65 61 70 60 66 60 60 59 61 62 71 47 36 43 43 19 26 46 44 61 40 34 43 41 40 30 50 45 43 37 47 65 72 65 68 72 71 78 67 61 55 41 36 41 83 87 108 244 22 73 11 53 52 195 69 18 3 0 0 0 0 0 0 0 0 0 0 0 0 0 0 0 0 0 0 0 0 0 0 0 0 0 0 0 0 0 0 0 0 0 0 0 0 0 0 
0 0 0 0 0 0 0 0 0 0 0 0 0 0 12 19 38 184 115 37 15 10 111 57 64 42 51 72 204 101 108 199 43 44 52 56 69 67 63 63 61 65 59 52 40 35 86 46 24 36 48 49 43 55 36 45 48 43 41 52 127 42 28 29 44 65 73 76 82 78 77 56 47 42 33 25 92 27 32 138 238 34 80 204 36 66 205 42 18 2 0 0 0 0 0 0 0 0 0 0 0 0 0 0 0 0 0 0 0 0 0 0 0 0 0 0 0 0 0 0 0 0 0 0 0 0 0 0 
0 0 0 0 0 0 0 0 0 0 0 0 0 0 14 17 28 98 117 67 12 9 141 61 54 48 47 106 248 94 82 23 46 43 44 43 60 75 70 64 55 45 32 36 41 82 170 118 44 42 49 50 42 80 41 49 79 39 37 28 132 177 62 30 33 46 55 64 70 73 61 50 39 33 28 66 247 109 97 99 30 50 75 137 37 87 148 26 19 0 0 0 0 0 0 0 0 0 0 0 0 0 0 0 0 0 0 0 0 0 0 0 0 0 0 0 0 0 0 0 0 0 0 0 0 0 0 0 
0 0 0 0 0 0 0 0 0 0 0 0 0 0 12 16 21 80 56 101 27 254 172 68 53 50 40 131 110 32 231 122 103 40 39 40 48 71 65 60 38 38 32 48 86 71 118 59 25 41 49 62 40 75 36 60 115 48 40 32 49 60 122 117 88 71 62 60 65 68 45 37 30 31 43 17 107 255 222 139 50 80 57 81 56 112 65 19 15 0 0 0 0 0 0 0 0 0 0 0 0 0 0 0 0 0 0 0 0 0 0 0 0 0 0 0 0 0 0 0 0 0 0 0 0 0 0 0 
0 0 0 0 0 0 0 0 0 0 0 0 0 1 16 19 17 51 227 131 41 10 249 115 49 46 41 130 175 243 92 53 208 60 39 41 40 44 40 40 47 96 92 32 27 29 30 24 26 43 48 114 41 60 39 81 128 66 40 42 24 63 120 100 120 156 38 217 143 84 48 46 59 89 250 67 207 183 209 173 67 87 248 52 97 109 30 21 14 0 0 0 0 0 0 0 0 0 0 0 0 0 0 0 0 0 0 0 0 0 0 0 0 0 0 0 0 0 0 0 0 0 0 0 0 0 0 0 
0 0 0 0 0 0 0 0 0 0 0 0 0 2 15 20 18 36 151 132 123 24 4 173 58 49 41 169 158 243 74 214 178 206 47 29 28 44 123 158 107 30 33 29 23 27 32 55 29 41 94 129 46 63 42 49 47 44 39 120 78 119 118 108 140 51 24 57 19 242 10 225 244 33 52 96 236 181 248 161 84 80 150 68 104 90 22 24 10 0 0 0 0 0 0 0 0 0 0 0 0 0 0 0 0 0 0 0 0 0 0 0 0 0 0 0 0 0 0 0 0 0 0 0 0 0 0 0 
0 0 0 0 0 0 0 0 0 0 0 0 0 3 12 19 19 29 102 63 130 35 17 239 91 54 50 248 241 42 31 250 204 6 222 179 161 88 57 57 69 52 32 25 21 25 24 53 31 41 114 102 46 109 106 47 38 35 50 246 113 97 124 172 19 54 46 209 195 170 129 93 30 49 231 44 33 232 51 134 97 33 74 92 116 41 21 25 7 0 0 0 0 0 0 0 0 0 0 0 0 0 0 0 0 0 0 0 0 0 0 0 0 0 0 0 0 0 0 0 0 0 0 0 0 0 0 0 
0 0 0 0 0 0 0 0 0 0 0 0 0 6 13 17 18 22 72 223 127 66 32 16 169 56 64 72 88 8 36 16 41 53 183 195 153 251 6 8 157 94 56 27 20 20 16 18 25 24 41 48 41 165 125 32 30 34 96 102 73 98 108 228 230 48 8 169 117 116 131 88 25 70 65 9 42 49 242 87 75 199 113 100 89 15 21 26 8 0 0 0 0 0 0 0 0 0 0 0 0 0 0 0 0 0 0 0 0 0 0 0 0 0 0 0 0 0 0 0 0 0 0 0 0 0 0 0 
0 0 0 0 0 0 0 0 0 0 0 0 0 8 15 9 12 17 46 147 66 95 66 50 29 121 142 200 66 16 39 49 170 234 45 235 251 161 154 134 125 118 99 47 31 21 15 17 70 34 35 35 33 158 64 39 41 48 31 31 64 115 101 150 130 192 194 150 158 109 131 14 12 11 13 191 120 195 55 218 219 98 88 121 36 14 24 27 12 0 0 0 0 0 0 0 0 0 0 0 0 0 0 0 0 0 0 0 0 0 0 0 0 0 0 0 0 0 0 0 0 0 0 0 0 0 0 0 
0 0 0 0 0 0 0 0 0 0 0 0 0 13 23 10 15 20 28 151 175 229 46 51 89 233 172 124 27 10 0 22 104 148 202 117 95 93 117 137 182 213 179 113 52 27 15 14 25 34 43 29 27 112 33 39 51 36 31 30 72 129 86 76 100 141 119 141 127 116 114 19 11 10 14 126 134 155 74 83 8 116 122 122 21 21 25 21 17 1 0 0 0 0 0 0 0 0 0 0 0 0 0 0 0 0 0 0 0 0 0 0 0 0 0 0 0 0 0 0 0 0 0 0 0 0 0 0 
0 0 0 0 0 0 0 0 0 0 0 0 0 3 18 21 20 24 25 45 219 103 109 203 19 54 32 117 26 31 33 204 182 8 68 91 69 111 212 18 3 202 222 215 108 40 20 15 26 34 41 34 39 80 75 45 50 42 37 38 48 93 102 71 88 107 104 151 120 136 45 31 25 16 13 70 139 150 147 138 28 117 88 52 26 20 21 16 18 10 0 0 0 0 0 0 0 0 0 0 0 0 0 0 0 0 0 0 0 0 0 0 0 0 0 0 0 0 0 0 0 0 0 0 0 0 0 0 
0 0 0 0 0 0 0 0 0 0 0 0 0 0 13 13 19 22 24 24 152 204 131 20 155 100 49 164 57 8 38 128 79 170 101 144 158 186 226 240 195 130 216 0 128 38 18 21 36 41 50 47 35 66 31 37 45 53 81 187 124 70 81 102 141 145 147 158 148 72 35 31 26 23 102 182 133 153 138 151 158 23 9 20 25 26 20 20 18 9 0 0 0 0 0 0 0 0 0 0 0 0 0 0 0 0 0 0 0 0 0 0 0 0 0 0 0 0 0 0 0 0 0 0 0 0 0 0 
0 0 0 0 0 0 0 0 0 0 0 0 0 0 3 8 14 18 20 20 33 174 199 246 59 71 213 190 164 13 54 135 62 177 5 44 150 120 132 149 144 118 137 144 99 50 33 26 71 150 55 54 46 33 30 32 36 76 181 240 174 54 69 85 91 135 137 139 137 153 102 116 108 66 159 97 129 164 140 120 171 22 0 1 8 26 29 25 17 12 3 0 0 0 0 0 0 0 0 0 0 0 0 0 0 0 0 0 0 0 0 0 0 0 0 0 0 0 0 0 0 0 0 0 0 0 0 0 
0 0 0 0 0 0 0 0 0 0 0 0 0 0 0 0 0 5 19 21 18 40 73 88 169 243 233 191 49 68 95 114 50 52 151 93 128 151 146 149 155 122 96 87 85 85 90 51 132 144 76 51 45 45 38 34 38 41 124 155 135 54 86 134 106 48 70 135 133 107 108 106 116 82 115 40 231 148 130 33 45 17 0 2 0 0 1 17 24 23 15 0 0 0 0 0 0 0 0 0 0 0 0 0 0 0 0 0 0 0 0 0 0 0 0 0 0 0 0 0 0 0 0 0 0 0 0 0 
0 0 0 0 0 0 0 0 0 0 0 0 0 0 0 0 0 0 11 19 19 18 34 43 112 32 29 253 118 50 202 125 44 47 101 154 50 131 128 90 62 51 108 92 65 56 63 101 76 56 52 46 47 50 90 37 47 47 109 94 44 38 80 134 138 57 42 46 57 60 82 150 241 126 8 228 176 144 245 54 30 1 0 4 0 0 0 0 3 18 21 0 0 0 0 0 0 0 0 0 0 0 0 0 0 0 0 0 0 0 0 0 0 0 0 0 0 0 0 0 0 0 0 0 0 0 0 0 
0 0 0 0 0 0 0 0 0 0 0 0 0 0 0 0 0 0 4 15 17 15 12 34 60 171 162 162 251 178 231 70 45 108 155 150 237 83 129 52 35 105 113 63 64 59 55 121 43 32 41 48 47 97 233 82 50 51 81 96 57 97 84 101 136 70 48 48 52 53 117 213 36 117 27 21 113 119 181 30 9 0 5 0 0 0 0 0 0 2 12 0 0 0 0 0 0 0 0 0 0 0 0 0 0 0 0 0 0 0 0 0 0 0 0 0 0 0 0 0 0 0 0 0 0 0 0 0 
0 0 0 0 0 0 0 0 0 0 0 0 0 0 0 0 0 0 4 12 12 11 9 2 33 56 120 248 102 210 241 164 230 141 79 42 49 78 144 41 58 154 107 98 106 83 80 133 42 28 34 36 89 218 209 5 207 56 66 130 87 117 115 39 81 106 60 56 57 138 107 67 105 135 247 178 5 167 235 164 0 0 6 0 0 0 0 0 0 0 2 0 0 0 0 0 0 0 0 0 0 0 0 0 0 0 0 0 0 0 0 0 0 0 0 0 0 0 0 0 0 0 0 0 0 0 0 0 
0 0 0 0 0 0 0 0 0 0 0 0 0 0 0 0 0 0 3 20 15 9 2 0 0 87 131 10 225 11 7 148 81 57 116 56 47 49 54 147 135 162 126 102 102 127 113 219 180 148 239 73 252 3 77 12 62 10 250 33 49 47 148 32 52 84 78 62 134 143 66 33 52 91 177 32 170 244 252 248 49 1 1 0 0 0 0 0 0 0 0 0 0 0 0 0 0 0 0 0 0 0 0 0 0 0 0 0 0 0 0 0 0 0 0 0 0 0 0 0 0 0 0 0 0 0 0 0 
0 0 0 0 0 0 0 0 0 0 0 0 0 0 0 0 0 0 0 17 21 13 10 7 71 3 206 139 40 254 9 217 136 111 55 210 110 67 66 106 72 230 109 88 70 123 163 193 125 99 184 164 141 113 57 30 22 25 55 117 151 184 160 209 69 91 174 105 146 131 43 43 55 75 253 190 122 114 216 82 30 14 0 0 0 0 0 0 0 0 0 0 0 0 0 0 0 0 0 0 0 0 0 0 0 0 0 0 0 0 0 0 0 0 0 0 0 0 0 0 0 0 0 0 0 0 0 0 
0 0 0 0 0 0 0 0 0 0 0 0 0 0 0 0 0 0 0 16 20 20 24 35 164 16 5 164 154 240 158 212 216 128 67 79 65 12 25 19 27 111 189 9 108 155 21 192 121 184 23 241 224 233 132 59 47 50 93 196 138 138 181 99 69 62 47 155 132 151 77 67 41 183 75 52 36 84 171 34 20 23 21 14 6 0 0 0 0 0 0 0 0 0 0 0 0 0 0 0 0 0 0 0 0 0 0 0 0 0 0 0 0 0 0 0 0 0 0 0 0 0 0 0 0 0 0 0 
0 0 0 0 0 0 0 0 0 0 0 0 10 21 4 0 0 0 4 21 18 19 22 25 67 8 17 237 162 119 146 28 173 184 113 96 81 100 129 144 155 113 207 191 237 2 103 37 170 238 239 183 190 230 22 36 241 177 195 60 33 219 187 125 68 33 4 155 154 118 223 125 60 33 42 37 35 27 68 41 16 20 28 23 20 2 0 0 0 0 0 0 0 0 0 0 0 0 0 0 0 0 0 0 0 0 0 0 0 0 0 0 0 0 0 0 0 0 0 0 0 0 0 0 0 0 0 0 
0 0 0 0 0 0 0 0 0 0 0 0 6 19 20 12 0 0 15 19 15 17 21 23 37 82 183 11 222 74 45 66 103 207 71 150 164 155 150 137 181 39 147 166 59 15 14 4 229 7 226 234 235 239 11 42 54 44 61 105 58 24 157 202 221 148 35 140 121 185 93 71 42 32 40 24 14 24 45 50 21 14 17 20 18 20 0 0 0 0 0 0 0 0 0 0 0 0 0 0 0 0 0 0 0 0 0 0 0 0 0 0 0 0 0 0 0 0 0 0 0 0 0 0 0 0 0 0 
0 0 0 0 0 0 0 0 0 0 0 0 1 12 11 17 14 16 19 15 12 14 18 35 46 107 97 6 167 15 33 33 46 49 58 121 205 6 41 60 84 149 145 140 187 85 198 234 48 95 111 110 85 94 86 90 108 108 111 152 81 184 124 105 143 26 145 115 95 184 93 68 38 30 42 13 12 43 83 61 19 10 14 15 16 20 20 2 0 3 17 21 6 0 0 0 0 0 0 0 0 0 0 0 0 0 0 0 0 0 0 0 0 0 0 0 0 0 0 0 0 0 0 0 0 0 0 0 
0 0 0 0 0 0 0 0 0 0 0 0 0 12 13 12 16 17 17 14 11 7 4 34 111 218 190 98 22 6 14 18 23 38 40 41 62 73 76 95 176 242 250 127 142 243 150 169 38 30 27 45 61 53 54 82 79 59 43 41 160 117 104 40 108 86 158 126 112 194 94 23 24 26 21 10 14 40 43 37 16 15 14 18 9 15 21 20 23 24 11 8 7 0 0 0 0 0 0 0 0 0 0 0 0 0 0 0 0 0 0 0 0 0 0 0 0 0 0 0 0 0 0 0 0 0 0 0 
0 0 0 0 0 0 0 0 0 0 0 0 0 7 18 15 17 15 13 8 11 14 14 25 84 123 149 102 38 27 36 40 86 120 116 117 95 85 43 37 57 232 234 5 14 241 210 151 140 130 95 72 85 87 127 206 223 199 217 248 204 149 43 34 124 73 50 235 145 131 223 119 38 27 26 20 14 19 29 7 1 6 15 17 0 0 2 11 14 14 6 0 0 0 0 0 0 0 0 0 0 0 0 0 0 0 0 0 0 0 0 0 0 0 0 0 0 0 0 0 0 0 0 0 0 0 0 0 
0 0 0 0 0 0 0 0 0 0 0 0 0 0 12 16 13 5 2 5 12 23 23 17 40 59 60 12 0 2 8 12 11 32 59 87 114 187 63 47 101 226 220 102 69 140 14 163 194 184 142 136 119 107 91 113 151 201 78 198 124 194 64 34 191 165 63 210 34 161 207 199 6 22 233 5 2 210 31 0 0 1 11 15 0 0 0 3 4 10 7 9 0 0 0 0 0 0 0 0 0 0 0 0 0 0 0 0 0 0 0 0 0 0 0 0 0 0 0 0 0 0 0 0 0 0 0 0 
0 0 0 0 0 0 0 0 0 0 0 0 0 0 2 12 5 2 0 4 17 28 28 20 24 16 5 14 10 9 8 7 0 0 26 62 73 230 111 26 236 228 208 173 133 79 70 62 45 68 182 227 7 62 141 142 226 10 221 57 235 5 2 170 13 219 18 27 121 210 140 33 160 103 114 95 20 1 3 1 0 3 24 19 0 0 0 0 2 0 1 0 0 0 0 0 0 0 0 0 0 0 0 0 0 0 0 0 0 0 0 0 0 0 0 0 0 0 0 0 0 0 0 0 0 0 0 0 
0 0 0 0 0 0 0 0 0 0 0 0 0 0 0 1 16 15 12 8 17 13 18 12 14 16 10 2 2 4 6 16 9 6 17 64 78 43 37 40 95 3 120 169 82 1 185 126 81 115 157 159 144 143 152 162 174 174 146 119 147 255 187 59 71 142 52 24 36 50 59 88 76 43 43 41 37 14 12 7 7 9 24 10 0 1 19 14 0 0 0 0 0 0 0 0 0 0 0 0 0 0 0 0 0 0 0 0 0 0 0 0 0 0 0 0 0 0 0 0 0 0 0 0 0 0 0 0 
0 0 0 0 0 0 0 0 0 0 0 0 0 0 0 0 0 9 16 3 6 6 16 13 10 11 9 13 7 4 10 16 13 8 9 24 99 141 85 32 50 156 136 128 131 173 163 82 71 89 99 100 89 90 90 89 88 93 94 111 191 158 108 141 144 114 29 67 100 93 46 54 44 20 15 12 6 9 11 8 11 13 18 8 0 0 2 0 0 0 0 0 0 0 0 0 0 0 0 0 0 0 0 0 0 0 0 0 0 0 0 0 0 0 0 0 0 0 0 0 0 0 0 0 0 0 0 0 
0 0 0 0 0 0 0 0 0 0 0 0 0 0 0 0 0 0 0 0 2 2 10 20 19 14 20 43 31 20 14 17 28 48 57 86 156 250 9 155 214 195 122 73 52 64 122 100 55 81 95 110 123 139 150 174 170 182 184 206 228 172 137 218 7 163 155 192 187 157 43 68 57 30 21 17 8 15 18 15 14 13 7 3 0 0 0 0 0 0 0 0 0 0 0 0 0 0 0 0 0 0 0 0 0 0 0 0 0 0 0 0 0 0 0 0 0 0 0 0 0 0 0 0 0 0 0 0 
0 0 0 0 0 0 0 0 0 0 0 0 0 0 0 0 0 0 0 0 0 0 3 23 28 15 43 180 200 211 225 202 195 173 155 112 66 145 6 114 199 216 107 87 74 55 129 149 163 4 75 143 35 150 147 168 164 53 76 230 157 72 35 116 37 190 184 172 148 110 223 63 84 44 14 13 3 9 0 0 0 0 0 0 0 0 0 0 0 0 0 0 0 0 0 0 0 0 0 0 0 0 0 0 0 0 0 0 0 0 0 0 0 0 0 0 0 0 0 0 0 0 0 0 0 0 0 0 
0 0 0 0 0 0 0 0 0 0 0 0 0 0 0 0 0 0 0 0 0 0 0 9 15 5 5 119 178 240 55 87 107 109 155 109 194 75 119 86 245 70 102 119 242 74 66 97 240 73 171 148 130 146 84 39 44 39 105 57 78 79 65 69 247 167 93 184 116 162 104 92 147 102 43 214 113 49 0 0 0 0 0 0 0 0 0 0 0 0 0 0 0 0 0 0 0 0 0 0 0 0 0 0 0 0 0 0 0 0 0 0 0 0 0 0 0 0 0 0 0 0 0 0 0 0 0 0 
0 0 0 0 0 0 0 0 0 0 0 0 0 0 0 0 0 0 0 0 0 0 0 3 6 11 14 70 113 117 130 162 145 77 26 49 29 19 42 228 41 40 94 79 239 191 179 168 4 117 166 158 9 0 124 97 76 246 129 126 64 43 48 123 149 56 66 185 195 150 10 201 60 33 27 21 4 0 3 3 0 3 6 0 0 0 0 0 0 0 0 0 0 0 0 0 0 0 0 0 0 0 0 0 0 0 0 0 0 0 0 0 0 0 0 0 0 0 0 0 0 0 0 0 0 0 0 0 
0 0 0 0 0 0 0 0 0 0 0 0 0 0 0 0 0 0 0 0 0 0 0 7 9 21 13 11 17 13 8 13 21 17 18 50 64 59 18 22 19 62 86 125 125 145 132 143 148 137 173 109 89 121 139 128 136 142 121 123 145 114 109 78 201 136 159 15 194 163 100 224 152 76 26 19 10 13 14 13 3 7 9 0 0 0 0 0 0 0 0 0 0 0 0 0 0 0 0 0 0 0 0 0 0 0 0 0 0 0 0 0 0 0 0 0 0 0 0 0 0 0 0 0 0 0 0 0 
0 0 0 0 0 0 0 0 0 0 0 0 0 0 0 0 0 0 0 0 0 0 0 7 16 15 13 12 14 13 8 8 9 11 15 29 33 32 43 47 41 132 48 224 193 125 99 93 133 152 123 83 85 98 89 83 88 80 64 62 64 112 146 126 155 201 30 86 99 101 88 67 51 19 12 13 9 12 11 9 11 17 12 0 0 0 0 0 0 0 0 0 0 0 0 0 0 0 0 0 0 0 0 0 0 0 0 0 0 0 0 0 0 0 0 0 0 0 0 0 0 0 0 0 0 0 0 0 
0 0 0 0 0 0 0 0 0 0 0 0 0 0 0 0 0 0 0 0 0 0 0 3 19 16 16 13 9 19 11 8 10 13 31 40 36 28 44 49 51 184 235 126 109 169 120 93 127 123 92 61 70 73 73 72 77 67 52 42 37 92 113 83 209 173 28 246 89 66 63 51 39 10 10 12 8 16 13 9 11 20 10 0 0 0 0 0 0 0 0 0 0 0 0 0 0 0 0 0 0 0 0 0 0 0 0 0 0 0 0 0 0 0 0 0 0 0 0 0 0 0 0 0 0 0 0 0 
0 0 0 0 0 0 0 0 0 0 0 0 0 0 0 0 0 0 0 0 0 0 0 0 15 17 15 12 10 13 15 8 10 8 24 38 31 39 47 56 156 32 135 85 107 190 159 128 118 129 86 60 59 64 66 63 70 66 51 32 28 94 103 52 162 131 184 41 53 111 54 49 27 5 9 10 10 14 14 11 13 19 9 0 0 0 0 0 0 0 0 0 0 0 0 0 0 0 0 0 0 0 0 0 0 0 0 0 0 0 0 0 0 0 0 0 0 0 0 0 0 0 0 0 0 0 0 0 
0 0 0 0 0 0 0 0 0 0 0 0 0 0 0 0 0 0 0 0 0 0 0 0 6 17 17 14 12 11 12 11 9 9 11 28 16 23 56 154 97 246 174 116 131 15 183 109 129 87 58 53 56 63 63 61 58 53 44 35 24 94 97 89 16 208 134 145 50 61 79 37 25 3 7 9 11 13 15 12 15 16 7 0 0 0 0 0 0 0 0 0 0 0 0 0 0 0 0 0 0 0 0 0 0 0 0 0 0 0 0 0 0 0 0 0 0 0 0 0 0 0 0 0 0 0 0 0 
0 0 0 0 0 0 0 0 0 0 0 0 0 0 0 0 0 0 0 0 0 0 0 0 0 16 16 15 14 14 9 17 8 5 5 14 11 10 60 18 38 143 131 152 226 93 196 41 31 28 40 49 51 59 55 51 46 39 38 33 29 43 122 165 128 12 172 129 184 120 201 38 26 5 9 7 7 11 16 16 16 16 6 0 0 0 0 0 0 0 0 0 0 0 0 0 0 0 0 0 0 0 0 0 0 0 0 0 0 0 0 0 0 0 0 0 0 0 0 0 0 0 0 0 0 0 0 0 
0 0 0 0 0 0 0 0 0 0 0 0 0 0 0 0 0 0 0 0 0 0 0 0 0 8 14 15 14 14 11 9 14 3 4 13 13 2 111 53 251 96 95 129 164 83 184 40 38 40 61 58 48 55 58 44 36 35 39 36 27 35 54 147 166 27 146 144 151 60 77 82 36 6 11 9 9 14 18 15 18 17 6 0 0 0 0 0 0 0 0 0 0 0 0 0 0 0 0 0 0 0 0 0 0 0 0 0 0 0 0 0 0 0 0 0 0 0 0 0 0 0 0 0 0 0 0 0 
0 0 0 0 0 0 0 0 0 0 0 0 0 0 0 0 0 0 0 0 0 0 0 0 0 3 16 10 11 12 11 5 10 10 5 9 19 22 190 30 160 111 117 97 167 123 172 42 38 76 133 96 83 102 88 54 46 43 45 40 29 30 33 103 106 64 141 142 104 238 109 127 33 6 11 6 7 18 20 21 18 13 3 0 0 0 0 0 0 0 0 0 0 0 0 0 0 0 0 0 0 0 0 0 0 0 0 0 0 0 0 0 0 0 0 0 0 0 0 0 0 0 0 0 0 0 0 0 
0 0 0 0 0 0 0 0 0 0 0 0 0 0 0 0 0 0 0 0 0 0 0 0 0 0 17 9 9 6 10 9 8 12 0 3 18 47 241 227 169 86 91 81 203 100 145 39 40 85 95 102 80 73 61 56 58 45 43 43 30 22 65 121 5 103 138 95 50 243 111 212 26 8 12 8 5 18 21 23 20 10 2 0 0 0 0 0 0 0 0 0 0 0 0 0 0 0 0 0 0 0 0 0 0 0 0 0 0 0 0 0 0 0 0 0 0 0 0 0 0 0 0 0 0 0 0 0 
0 0 0 0 0 0 0 0 0 0 0 0 0 0 0 0 0 0 0 0 0 0 0 0 0 0 0 18 8 8 9 12 14 7 5 1 5 38 211 89 242 52 19 45 219 237 80 36 51 104 80 96 103 104 100 107 71 47 47 48 50 89 143 93 126 79 8 112 46 226 96 241 16 5 11 8 6 19 23 24 21 13 5 0 0 0 0 0 0 0 0 0 0 0 0 0 0 0 0 0 0 0 0 0 0 0 0 0 0 0 0 0 0 0 0 0 0 0 0 0 0 0 0 0 0 0 0 0 
0 0 0 0 0 0 0 0 0 0 0 0 0 0 0 0 0 0 0 0 0 0 0 0 0 0 0 4 12 8 12 14 16 15 4 7 1 14 131 86 175 75 33 145 120 210 54 33 38 66 66 87 88 87 84 78 70 51 47 55 83 120 115 72 102 88 170 168 78 148 94 183 8 6 8 10 11 19 24 24 22 16 6 0 0 0 0 0 0 0 0 0 0 0 0 0 0 0 0 0 0 0 0 0 0 0 0 0 0 0 0 0 0 0 0 0 0 0 0 0 0 0 0 0 0 0 0 0 
0 0 0 0 0 0 0 0 0 0 0 0 0 0 0 0 0 0 0 0 0 0 0 0 0 0 0 0 12 6 11 15 16 16 10 6 6 1 26 142 87 4 182 82 191 184 50 35 38 46 77 87 94 88 71 68 80 61 50 62 105 157 85 76 98 68 11 138 9 232 255 95 6 4 7 12 15 20 24 24 23 17 6 0 0 0 0 0 0 0 0 0 0 0 0 0 0 0 0 0 0 0 0 0 0 0 0 0 0 0 0 0 0 0 0 0 0 0 0 0 0 0 0 0 0 0 0 0 
0 0 0 0 0 0 0 0 0 0 0 0 0 0 0 0 0 0 0 0 0 0 0 0 0 0 0 0 9 5 8 15 16 18 16 5 2 2 0 94 228 95 11 26 179 149 52 39 35 45 84 88 89 68 63 64 75 75 64 59 87 111 103 113 91 237 8 21 234 99 249 14 6 4 5 11 16 21 23 24 24 17 5 0 0 0 0 0 0 0 0 0 0 0 0 0 0 0 0 0 0 0 0 0 0 0 0 0 0 0 0 0 0 0 0 0 0 0 0 0 0 0 0 0 0 0 0 0 
0 0 0 0 0 0 0 0 0 0 0 0 0 0 0 0 0 0 0 0 0 0 0 0 0 0 0 0 1 10 4 13 17 18 18 12 4 0 0 1 105 208 108 35 60 83 48 40 36 64 113 98 87 74 67 70 79 96 97 63 60 50 107 133 100 103 95 103 45 250 25 7 9 4 3 11 17 20 22 22 24 19 5 0 0 0 0 0 0 0 0 0 0 0 0 0 0 0 0 0 0 0 0 0 0 0 0 0 0 0 0 0 0 0 0 0 0 0 0 0 0 0 0 0 0 0 0 0 
0 0 0 0 0 0 0 0 0 0 0 0 0 0 0 0 0 0 0 0 0 0 0 0 0 0 0 0 0 14 2 9 15 18 18 17 7 3 3 1 11 15 90 134 61 17 42 40 38 52 84 85 83 80 66 63 73 91 110 83 80 54 52 96 109 81 109 116 63 28 8 8 10 4 3 12 18 20 21 23 24 16 4 0 0 0 0 0 0 0 0 0 0 0 0 0 0 0 0 0 0 0 0 0 0 0 0 0 0 0 0 0 0 0 0 0 0 0 0 0 0 0 0 0 0 0 0 0 
0 0 0 0 0 0 0 0 0 0 0 0 0 0 0 0 0 0 0 0 0 0 0 0 0 0 0 0 0 8 6 2 13 18 18 18 13 9 10 4 11 16 15 11 12 24 34 43 34 44 85 93 87 80 74 75 79 78 100 128 114 50 32 57 107 110 87 59 46 18 5 9 13 8 4 12 19 20 22 22 22 14 5 0 0 0 0 0 0 0 0 0 0 0 0 0 0 0 0 0 0 0 0 0 0 0 0 0 0 0 0 0 0 0 0 0 0 0 0 0 0 0 0 0 0 0 0 0 
