P2
128 99
216
0 0 0 0 0 0 0 0 0 0 0 0 0 0 0 0 0 0 0 0 0 0 0 0 0 0 0 0 0 0 0 0 0 0 0 0 1 1 0 0 0 0 0 0 0 0 0 0 0 0 0 0 0 0 0 0 0 0 0 0 0 0 0 0 0 0 0 0 0 0 0 0 0 0 0 0 0 0 0 0 0 0 0 0 0 0 0 0 0 1 0 0 0 0 0 1 2 0 0 0 0 0 0 0 0 0 0 0 0 0 0 0 0 0 0 0 0 0 0 0 0 0 0 0 0 0 0 0 
0 0 0 0 0 0 0 0 0 0 0 0 0 0 0 0 0 0 0 0 0 0 0 0 0 0 0 0 0 0 0 0 0 0 0 0 1 1 0 0 0 0 0 0 0 0 0 0 0 0 0 0 0 0 0 0 0 0 0 0 0 0 0 0 0 0 0 0 0 0 0 0 0 0 0 0 0 0 0 0 0 0 0 0 0 0 0 0 0 1 0 0 0 0 0 1 2 0 0 0 0 0 0 0 0 0 0 0 0 0 0 0 0 0 0 0 0 0 0 0 0 0 0 0 0 0 0 0 
0 0 0 0 0 0 0 0 0 0 0 0 0 0 0 0 0 0 0 0 0 0 0 0 0 0 0 0 0 0 0 0 0 0 0 0 1 1 0 0 0 0 0 0 0 0 0 0 0 0 1 2 2 3 1 0 0 0 0 0 0 0 0 0 0 0 0 0 0 0 0 0 0 0 0 0 0 0 0 0 0 0 0 0 0 0 0 0 0 1 0 0 0 0 0 1 2 0 0 0 0 0 0 0 0 0 0 0 0 0 0 0 0 0 0 0 0 0 0 0 0 0 0 0 0 0 0 0 
0 0 0 0 0 0 0 0 0 0 0 0 0 0 0 0 0 0 0 0 0 0 0 0 0 0 0 0 0 0 0 0 0 0 0 0 0 1 0 0 0 0 0 1 7 13 17 18 18 19 22 25 28 27 25 21 18 16 14 12 4 0 0 0 0 0 0 0 0 0 0 0 0 0 0 0 0 0 0 0 0 0 0 0 0 0 0 0 0 0 0 0 0 0 0 1 2 0 0 0 0 0 0 0 0 0 0 0 0 0 0 0 0 0 0 0 0 0 0 0 0 0 0 0 0 0 0 0 
0 0 0 0 0 0 0 0 0 0 0 0 0 0 0 0 0 0 0 0 0 0 0 0 0 0 0 0 0 0 0 0 0 0 0 0 0 0 0 0 5 13 19 23 24 33 54 78 102 123 140 151 156 157 153 142 126 105 80 54 33 22 17 10 2 0 0 0 0 0 0 0 0 0 0 0 0 0 0 0 0 0 0 0 0 0 0 0 0 0 0 0 0 0 0 1 2 0 0 0 0 0 0 0 0 0 0 0 0 0 0 0 0 0 0 0 0 0 0 0 0 0 0 0 0 0 0 0 
0 0 0 0 0 0 0 0 0 0 0 0 0 0 0 0 0 0 0 0 0 0 0 0 0 0 0 0 0 0 0 0 0 0 0 0 0 1 9 17 24 25 36 68 112 152 175 185 190 193 195 193 192 191 192 193 192 189 184 173 153 120 80 44 23 16 10 1 0 0 0 0 0 0 0 0 0 0 0 0 0 0 0 0 0 0 0 0 0 1 0 0 0 0 0 1 2 0 0 0 0 0 0 0 0 0 0 0 0 0 0 0 0 0 0 0 0 0 0 0 0 0 0 0 0 0 0 0 
0 0 0 0 0 0 0 0 0 0 0 0 0 0 0 0 0 0 0 0 0 0 0 0 0 0 0 0 0 0 0 0 0 0 0 0 9 22 24 26 52 104 154 182 192 194 195 196 198 201 203 204 204 204 204 203 202 199 196 194 193 188 178 159 124 77 39 18 13 2 0 0 0 0 0 0 0 0 0 0 0 0 0 0 0 0 0 0 0 1 0 0 0 0 0 1 2 0 0 0 0 0 0 0 0 0 0 0 0 0 0 0 0 0 0 0 0 0 0 0 0 0 0 0 0 0 0 0 
0 0 0 0 0 0 0 0 0 0 0 0 0 0 0 0 0 0 0 0 0 0 0 0 0 0 0 0 0 0 0 0 0 0 8 24 25 27 63 126 172 189 194 196 198 201 199 193 187 183 186 193 191 178 176 189 203 209 207 202 199 196 194 193 189 177 151 102 49 23 14 1 0 0 0 0 0 0 0 0 0 0 0 0 0 0 0 0 0 1 0 0 0 0 0 1 2 0 0 0 0 0 0 0 0 0 0 0 0 0 0 0 0 0 0 0 0 0 0 0 0 0 0 0 0 0 0 0 
0 0 0 0 0 0 0 0 0 0 0 0 0 0 0 0 0 0 0 0 0 0 0 0 0 0 0 0 0 0 0 0 5 27 25 23 59 131 176 188 190 194 198 202 199 190 181 169 160 157 158 160 157 150 151 156 165 184 203 212 209 205 201 198 195 194 193 185 159 104 45 23 10 0 0 0 0 0 0 0 0 0 0 0 0 0 0 0 0 1 0 0 0 0 0 1 2 0 0 0 0 0 0 0 0 0 0 0 0 0 0 0 0 0 0 0 0 0 0 0 0 0 0 0 0 0 0 0 
0 0 0 0 0 0 0 0 0 0 0 0 0 0 0 0 0 0 0 0 0 0 0 0 0 0 0 0 0 0 0 24 26 22 41 114 173 187 188 192 196 201 198 183 168 163 156 146 141 138 143 150 151 147 150 153 155 157 170 189 208 213 212 208 204 199 196 194 193 184 151 80 31 19 2 0 0 0 0 0 0 0 0 0 0 0 0 0 0 1 0 0 0 0 0 1 2 0 0 0 0 0 0 0 0 0 0 0 0 0 0 0 0 0 0 0 0 0 0 0 0 0 0 0 0 0 0 0 
0 0 0 0 0 0 0 0 0 0 0 0 0 0 0 0 0 0 0 0 0 0 0 0 0 0 0 0 0 10 28 22 25 84 161 185 188 191 195 201 204 192 174 168 163 155 149 142 138 136 137 142 140 140 144 148 149 148 151 159 175 195 209 215 214 209 204 201 196 196 194 178 122 46 23 6 0 0 0 0 0 0 0 0 0 0 0 0 0 1 0 0 0 0 0 1 2 0 0 0 0 0 0 0 0 0 0 0 0 0 0 0 0 0 0 0 0 0 0 0 0 0 0 0 0 0 0 0 
0 0 0 0 0 0 0 0 0 0 0 0 0 0 0 0 0 0 0 0 0 0 0 0 0 0 0 0 22 25 18 48 134 180 185 190 197 201 205 200 184 174 167 161 158 154 150 146 144 141 135 137 134 134 144 150 150 149 151 154 160 172 188 201 211 216 213 209 205 201 198 196 189 154 69 24 11 0 0 0 0 0 0 0 0 0 0 0 0 1 0 0 0 0 0 1 2 0 0 0 0 0 0 0 0 0 0 0 0 0 0 0 0 0 0 0 0 0 0 0 0 0 0 0 0 0 0 0 
0 0 0 0 0 0 0 0 0 0 0 0 0 0 0 0 0 0 0 0 0 0 0 0 0 0 5 26 21 19 77 161 182 189 195 201 206 206 193 179 173 168 161 158 153 151 152 148 148 141 132 130 128 128 138 147 148 149 151 153 155 165 175 183 193 203 212 216 213 208 203 199 195 189 165 86 25 13 0 0 0 0 0 0 0 0 0 0 0 1 0 0 0 0 1 1 2 0 0 0 0 0 0 0 0 0 0 0 0 0 0 0 0 0 0 0 0 0 0 0 0 0 0 0 0 0 0 0 
0 0 0 0 0 0 0 0 0 0 0 0 0 0 0 0 0 0 0 0 0 0 0 0 0 10 26 18 26 103 171 183 193 200 205 209 202 186 177 170 167 163 158 154 150 151 151 150 142 136 126 125 122 124 129 140 150 152 154 155 155 157 164 172 178 184 192 203 212 215 211 205 199 193 189 171 96 27 14 0 0 0 0 0 0 0 0 0 1 1 0 0 0 0 0 1 2 0 0 0 0 0 0 0 0 0 0 0 0 0 0 0 0 0 0 0 0 0 0 0 0 0 0 0 0 0 0 0 
0 0 0 0 0 0 0 0 0 0 0 0 0 0 0 0 0 0 0 0 0 0 0 0 14 23 16 34 120 173 184 196 203 208 205 193 180 174 171 167 163 160 158 154 150 148 140 133 131 127 123 122 120 123 125 125 135 147 150 150 151 152 156 161 166 171 176 181 189 201 210 212 208 200 193 190 174 107 30 13 0 0 0 0 0 0 0 0 1 1 1 0 0 0 0 1 2 0 0 0 0 0 0 0 0 0 0 0 0 0 0 0 0 0 0 0 0 0 0 0 0 0 0 0 0 0 0 0 
0 0 0 0 0 0 0 0 0 0 0 0 0 0 0 0 0 0 0 0 0 0 3 19 20 15 45 131 170 185 198 205 208 197 182 174 172 170 167 163 159 154 148 141 137 129 124 125 122 121 121 119 117 122 125 125 124 128 137 145 146 146 147 153 160 162 166 167 171 178 189 203 210 208 201 192 189 177 119 36 12 0 0 0 0 0 0 0 1 1 1 0 0 0 0 1 2 0 0 0 0 0 0 0 0 0 0 0 0 0 0 0 0 0 0 0 0 0 0 0 0 0 0 0 0 0 0 0 
0 0 0 0 0 0 0 0 0 0 0 0 0 0 0 0 0 0 0 0 0 5 17 17 16 57 141 169 187 199 207 205 187 175 170 168 165 164 162 158 152 145 140 137 128 122 121 118 121 121 121 116 115 121 123 124 124 125 126 129 132 134 138 144 149 153 156 160 165 168 170 177 193 205 207 201 195 190 176 128 39 9 0 0 0 0 0 0 0 1 0 0 0 0 0 1 2 0 0 0 0 0 0 0 0 0 0 0 0 0 0 0 0 0 0 0 0 0 0 0 0 0 0 0 0 0 0 0 
0 0 0 0 0 0 0 0 0 0 0 0 0 0 0 0 0 0 0 0 6 16 15 19 72 150 170 187 201 208 200 176 166 166 166 162 156 151 150 147 145 141 135 126 122 121 117 119 121 119 117 111 111 120 121 122 124 124 124 126 128 130 132 136 140 142 144 148 152 157 159 163 169 185 199 204 201 196 189 177 132 37 6 0 0 0 0 0 1 1 0 0 0 0 0 1 2 0 0 0 0 0 0 0 0 0 0 0 0 0 0 0 0 0 0 0 0 0 0 0 0 0 0 0 0 0 0 0 
0 0 0 0 0 0 0 0 0 0 0 0 0 0 0 0 0 0 0 6 15 13 20 80 153 170 185 199 206 196 171 161 162 161 156 151 146 145 140 135 130 126 124 121 122 119 116 119 118 114 115 108 109 118 119 121 123 123 123 123 125 126 126 129 129 130 134 141 147 148 147 150 157 164 178 195 204 202 197 187 175 124 29 3 0 0 0 0 1 1 1 0 0 0 0 1 2 0 0 0 0 0 0 0 0 0 0 0 0 0 0 0 0 0 0 0 0 0 0 0 0 0 0 0 0 0 0 0 
0 0 0 0 0 0 0 0 0 0 0 0 0 0 0 0 0 0 5 16 13 20 84 154 168 181 196 204 190 167 161 158 156 154 148 140 136 134 130 126 125 122 121 121 118 114 114 116 113 113 110 106 109 119 120 119 121 121 122 122 122 122 121 121 124 124 128 133 141 146 144 144 147 151 160 173 190 204 202 194 183 170 108 20 2 0 0 0 1 1 1 0 0 0 1 1 2 0 0 0 0 0 0 0 0 0 0 0 0 0 0 0 0 0 0 0 0 0 0 0 0 0 0 0 0 0 0 0 
0 0 0 0 0 0 0 0 0 0 0 0 0 0 0 0 0 2 15 13 19 81 150 164 177 193 204 187 165 158 155 151 149 145 138 131 130 128 124 124 120 118 117 114 113 113 113 112 113 110 102 103 106 116 118 118 120 119 119 121 123 120 119 118 118 120 124 130 134 136 141 141 142 145 151 158 168 186 204 199 191 178 160 84 11 0 0 0 1 1 0 0 0 0 1 1 2 0 0 0 0 0 0 0 0 0 0 0 0 0 0 0 0 0 0 0 0 0 0 0 0 0 0 0 0 0 0 0 
0 0 0 0 0 0 0 0 0 0 0 0 0 0 0 0 0 11 12 16 74 144 159 172 188 201 186 163 157 153 149 145 144 139 128 126 126 124 122 120 116 113 111 112 112 111 108 108 110 101 101 104 105 109 113 114 116 115 116 118 120 117 117 116 114 115 120 125 130 132 131 133 134 138 144 150 158 164 188 204 198 188 172 144 54 4 0 0 1 1 0 0 0 1 1 2 2 0 0 0 0 0 0 0 0 0 0 0 0 0 0 0 0 0 0 0 0 0 0 0 0 0 0 0 0 0 0 0 
0 0 0 0 0 0 0 0 0 0 0 0 0 0 0 0 6 12 14 60 135 153 167 184 197 187 161 155 151 146 143 140 133 128 125 125 124 124 120 115 112 111 111 111 109 107 106 106 102 99 101 103 105 108 109 107 110 110 109 108 110 113 113 112 110 110 112 122 124 128 128 128 129 132 136 143 149 154 160 190 204 196 182 163 119 25 1 0 1 1 1 0 0 1 1 2 2 1 0 0 0 0 0 0 0 0 0 0 0 0 0 0 0 0 0 0 0 0 0 0 0 0 0 0 0 0 0 0 
0 0 0 0 0 0 0 0 0 0 0 0 0 0 0 2 12 13 47 124 148 162 178 193 189 161 151 148 145 144 137 131 128 128 126 124 121 117 113 111 107 102 100 100 101 102 103 104 104 103 107 106 105 107 105 103 106 106 106 106 106 109 110 109 108 110 110 112 120 123 123 123 123 129 133 138 147 148 149 162 195 201 189 174 150 80 7 0 1 1 1 0 0 1 1 2 2 1 0 0 0 0 0 0 0 0 0 0 0 0 0 0 0 0 0 0 0 0 0 0 0 0 0 0 0 0 0 0 
0 0 0 0 0 0 0 0 0 0 0 0 0 0 0 7 10 26 103 139 155 171 188 189 166 150 145 143 142 140 133 127 127 124 122 117 115 112 109 103 99 98 101 102 101 102 103 104 104 105 109 108 104 104 102 103 102 103 103 105 105 105 108 108 109 109 110 111 114 119 120 121 121 123 129 136 144 144 145 147 172 196 194 181 163 124 30 1 1 1 1 0 0 1 0 2 2 0 0 0 0 0 0 0 0 0 0 0 0 0 0 0 0 0 0 0 0 0 0 0 0 0 0 0 0 0 0 0 
0 0 0 0 0 0 0 0 0 0 0 0 0 0 2 9 13 75 131 147 163 180 184 173 150 141 140 140 141 137 130 125 122 123 120 113 112 108 104 100 100 101 102 102 101 101 103 103 102 104 110 109 105 107 104 103 103 103 103 102 103 106 105 106 106 107 108 109 111 114 116 121 121 122 126 133 140 141 140 139 150 181 193 185 170 145 69 4 1 1 0 0 0 0 1 2 2 1 0 0 0 0 0 0 0 0 0 0 0 0 0 0 0 0 0 0 0 0 0 0 0 0 0 0 0 0 0 0 
0 0 0 0 0 0 0 0 0 0 0 0 0 0 6 9 40 115 138 153 173 180 170 160 140 135 137 140 140 134 128 122 121 119 115 108 106 106 103 101 100 100 100 99 102 104 105 104 102 104 111 112 108 108 98 100 104 104 103 101 100 102 104 104 104 104 104 106 108 111 112 118 121 119 123 133 141 139 138 133 138 164 184 187 175 156 108 17 1 1 0 0 0 0 1 2 2 1 0 0 0 0 0 0 0 0 0 0 0 0 0 0 0 0 0 0 0 0 0 0 0 0 0 0 0 0 0 0 
0 0 0 0 0 0 0 0 0 0 0 0 0 0 7 15 85 127 145 161 178 166 164 146 133 134 135 139 135 130 121 117 116 116 112 106 107 105 101 101 100 99 100 101 101 103 105 105 106 103 106 110 111 104 97 97 98 104 104 102 100 100 101 103 106 107 107 107 108 110 111 115 121 121 124 130 138 140 135 130 132 155 173 183 178 162 131 39 2 1 1 0 0 0 1 1 2 1 0 0 0 0 0 0 0 0 0 0 0 0 0 0 0 0 0 0 0 0 0 0 0 0 0 0 0 0 0 0 
0 0 0 0 0 0 0 0 0 0 0 0 0 3 7 37 112 135 150 170 173 161 155 136 130 131 133 137 132 124 120 119 116 114 108 108 106 102 100 100 100 99 100 100 101 103 106 107 106 101 99 103 110 99 94 93 97 100 98 101 101 101 100 102 105 108 107 109 109 109 110 112 119 120 122 131 137 137 130 127 126 150 165 182 179 166 141 62 3 1 1 0 0 0 1 2 2 1 0 0 0 0 0 0 0 0 0 0 0 0 0 0 0 0 0 0 0 0 0 0 0 0 0 0 0 0 0 0 
0 0 0 0 0 0 0 0 0 0 0 0 0 4 9 69 124 139 157 174 159 153 145 130 130 128 130 132 126 122 122 119 118 111 106 107 106 103 101 100 100 100 99 101 102 103 102 103 104 101 99 100 106 99 95 94 96 96 95 96 97 101 102 102 105 107 108 110 112 111 110 112 117 118 120 130 136 130 127 124 120 143 159 178 181 167 148 82 6 1 1 0 0 1 1 2 2 1 0 0 0 0 0 0 0 0 0 0 0 0 0 0 0 0 0 0 0 0 0 0 0 0 0 0 0 0 0 0 
0 0 0 0 0 0 0 0 0 0 0 0 0 5 17 95 130 146 165 167 146 144 138 126 125 124 127 127 120 121 122 121 117 109 109 108 107 103 101 102 104 100 98 99 103 102 100 102 103 99 97 98 105 98 96 96 96 97 97 97 96 98 101 106 107 107 110 111 112 113 112 113 116 118 119 126 131 127 124 123 120 136 153 175 181 168 151 100 11 1 1 0 0 1 1 2 2 1 0 0 0 0 0 0 0 0 0 0 0 0 0 0 0 0 0 0 0 0 0 0 0 0 0 0 0 0 0 0 
0 0 0 0 0 0 0 0 0 0 0 0 1 6 33 114 135 153 167 150 136 138 135 125 120 120 121 124 118 119 121 119 117 112 110 109 106 102 103 102 98 97 97 99 100 99 99 99 100 98 97 97 104 98 96 95 96 97 97 99 100 102 100 105 109 109 111 113 114 113 115 116 117 118 120 124 125 125 120 117 118 134 156 171 181 171 155 115 16 1 1 0 0 1 1 2 3 1 0 0 0 0 0 0 0 0 0 0 0 0 0 0 0 0 0 0 0 0 0 0 0 0 0 0 0 0 0 0 
0 0 0 0 0 0 0 0 0 0 0 0 2 6 50 121 139 158 159 140 131 135 136 123 116 117 119 121 117 116 119 117 115 113 109 111 107 103 101 95 95 97 96 97 97 99 98 96 97 97 96 99 99 96 95 93 92 94 96 100 101 102 102 102 107 113 111 116 118 116 116 116 116 118 119 124 120 119 118 114 113 132 153 166 182 175 159 129 26 1 1 0 0 1 1 2 3 1 0 0 0 0 0 0 0 0 0 0 0 0 0 0 0 0 0 0 0 0 0 0 0 0 0 0 0 0 0 0 
0 0 0 0 0 0 0 0 0 0 0 0 2 7 64 126 145 161 152 137 129 134 136 121 113 112 116 120 114 112 118 117 115 114 113 112 108 105 99 93 94 95 95 96 96 97 97 95 94 94 98 102 98 94 92 90 90 93 94 95 98 100 102 102 103 108 111 113 118 118 117 118 117 118 119 123 115 112 116 115 114 133 154 167 183 179 163 139 38 2 1 0 0 1 1 2 3 1 0 0 0 0 0 0 0 0 0 0 0 0 0 0 0 0 0 0 0 0 0 0 0 0 0 0 0 0 0 0 
0 0 0 0 0 0 0 0 0 0 0 0 3 9 73 130 149 160 151 140 131 134 135 123 114 109 115 116 108 110 119 117 116 114 112 113 109 106 107 99 98 96 94 95 95 95 94 94 93 94 98 102 98 94 91 91 88 89 91 94 95 98 100 99 99 107 111 117 123 122 120 120 119 120 119 122 112 109 113 111 113 138 155 167 182 182 168 149 50 3 1 0 0 1 1 2 3 1 0 0 0 0 0 0 0 0 0 0 0 0 0 0 0 0 0 0 0 0 0 0 0 0 0 0 0 0 0 0 
0 0 0 0 0 0 0 0 0 0 0 0 3 11 81 135 155 162 152 143 135 134 136 125 114 109 113 111 105 109 120 117 115 115 114 116 114 110 113 114 111 105 98 97 97 97 97 97 93 94 97 100 100 95 93 92 88 87 91 93 94 99 99 99 104 111 116 122 122 123 125 125 123 122 122 127 115 110 109 109 117 140 153 165 183 184 172 157 63 4 1 0 0 1 1 2 3 1 0 0 0 0 0 0 0 0 0 0 0 0 0 0 0 0 0 0 0 0 0 0 0 0 0 0 0 0 0 0 
0 0 0 0 0 0 0 0 0 0 0 0 4 12 86 139 159 166 154 147 139 137 138 126 117 111 112 110 103 108 123 119 118 119 121 118 111 102 98 98 95 95 102 104 102 99 98 97 96 96 99 99 104 96 93 93 89 85 89 91 93 98 104 108 103 99 97 97 101 104 111 118 129 133 128 131 127 114 109 112 124 139 151 161 181 187 174 159 78 6 1 0 0 1 1 2 2 1 0 0 0 0 0 0 0 0 0 0 0 0 0 0 0 0 0 0 0 0 0 0 0 0 0 0 0 0 0 0 
0 0 0 0 0 0 0 0 0 0 0 0 5 13 90 142 161 167 152 147 144 142 140 130 121 114 111 104 103 113 126 120 124 126 115 107 98 88 82 85 85 84 86 92 98 106 103 97 93 93 97 98 106 100 95 93 89 85 87 88 95 106 102 96 93 90 93 93 93 96 99 101 111 127 140 140 139 124 114 121 129 139 146 155 176 188 178 162 92 8 1 0 0 1 1 2 2 1 0 0 0 0 0 0 0 0 0 0 0 0 0 0 0 0 0 0 0 0 0 0 0 0 0 0 0 0 0 0 
0 0 0 0 0 0 0 0 0 0 0 0 6 14 94 146 164 165 154 148 143 141 142 137 129 121 114 103 105 121 128 126 129 114 100 93 89 85 83 86 85 84 84 86 89 95 102 102 93 94 97 99 104 104 99 94 89 86 86 93 104 93 90 90 91 95 97 97 98 101 100 98 100 112 135 151 147 137 125 127 132 134 140 149 164 186 180 165 105 11 1 0 0 1 1 2 2 1 0 0 0 0 0 0 0 0 0 0 0 0 0 0 0 0 0 0 0 0 0 0 0 0 0 0 0 0 0 0 
0 0 0 0 0 0 0 0 0 0 0 0 7 14 96 149 164 166 151 145 141 138 138 137 134 125 120 113 110 126 134 135 113 97 93 91 88 87 90 92 90 87 84 86 90 94 95 102 97 97 99 102 107 110 108 101 93 89 87 102 96 87 87 87 92 96 98 100 101 103 106 107 108 115 130 153 152 144 135 131 129 129 133 142 154 179 181 166 119 16 1 0 0 1 1 2 2 1 0 0 0 0 0 0 0 0 0 0 0 0 0 0 0 0 0 0 0 0 0 0 0 0 0 0 0 0 0 0 
0 0 0 0 0 0 0 0 0 0 0 0 7 14 97 150 167 167 146 140 138 137 133 131 132 129 123 122 129 130 139 128 101 94 91 90 88 89 90 89 89 88 86 86 88 89 96 99 101 98 105 111 117 115 120 106 97 90 90 103 87 82 81 86 93 96 99 103 103 106 108 107 113 125 132 138 147 142 143 133 126 124 128 134 145 171 181 166 130 24 1 0 0 1 1 2 2 1 0 0 0 0 0 0 0 0 0 0 0 0 0 0 0 0 0 0 0 0 0 0 0 0 0 0 0 0 0 0 
0 0 0 0 0 0 0 0 0 0 0 0 7 15 100 153 169 168 138 134 135 134 131 125 128 130 124 121 134 139 145 126 110 102 99 95 92 91 88 87 87 88 88 87 88 90 96 100 100 100 106 115 124 117 125 109 99 93 97 99 82 78 83 90 95 98 99 101 103 106 109 108 116 120 121 125 132 141 144 133 123 121 124 124 134 162 179 167 136 35 2 0 0 1 1 2 2 1 0 0 0 0 0 0 0 0 0 0 0 0 0 0 0 0 0 0 0 0 0 0 0 0 0 0 0 0 0 0 
0 0 0 0 0 0 0 0 0 0 0 0 8 16 101 153 170 169 134 134 134 131 126 121 121 122 120 122 131 133 136 126 120 112 104 100 98 94 90 88 88 90 89 88 89 91 93 99 97 100 106 116 118 113 119 116 105 100 100 92 79 81 88 94 96 97 97 98 100 103 107 109 112 113 118 119 124 137 141 134 120 115 116 116 122 151 176 167 140 44 2 0 0 1 1 2 2 1 0 0 0 0 0 0 0 0 0 0 0 0 0 0 0 0 0 0 0 0 0 0 0 0 0 0 0 0 0 0 
0 0 0 0 0 0 0 0 0 0 0 0 8 17 104 156 173 167 131 132 131 125 119 112 114 118 119 121 124 124 124 117 110 107 101 97 95 92 90 85 86 87 89 92 91 91 91 96 99 101 106 105 105 110 109 114 109 105 100 86 81 85 90 92 92 94 93 94 97 100 101 105 111 112 116 115 124 136 139 132 115 111 111 113 116 138 170 167 143 52 3 1 0 1 1 2 2 1 0 0 0 0 0 0 0 0 0 0 0 0 0 0 0 0 0 0 0 0 0 0 0 0 0 0 0 0 0 0 
0 0 0 0 0 0 0 0 0 0 0 0 8 17 104 157 173 162 126 126 122 117 110 104 107 112 116 125 123 118 118 114 102 103 97 93 90 90 90 86 84 86 89 91 89 89 91 92 98 102 111 108 102 104 104 114 110 110 105 87 85 86 90 87 84 88 91 92 95 98 101 103 107 110 110 112 124 134 135 133 118 109 107 108 108 126 156 165 146 59 3 1 0 1 1 2 3 1 0 0 0 0 0 0 0 0 0 0 0 0 0 0 0 0 0 0 0 0 0 0 0 0 0 0 0 0 0 0 
0 0 0 0 0 0 0 0 0 0 0 0 8 17 102 158 173 156 119 117 114 110 103 99 101 105 111 124 125 118 114 112 102 99 93 89 88 87 87 84 84 87 87 88 86 86 90 88 89 103 119 122 111 99 101 94 114 107 100 90 90 90 90 80 82 88 90 93 96 97 100 101 103 109 108 112 123 130 130 136 127 109 106 109 110 122 137 155 147 64 3 1 0 1 1 2 2 0 0 0 0 0 0 0 0 0 0 0 0 0 0 0 0 0 0 0 0 0 0 0 0 0 0 0 0 0 0 0 
0 0 0 0 0 0 0 0 0 0 0 0 8 17 100 157 172 147 117 113 107 105 101 99 99 101 113 120 121 117 113 111 104 97 93 91 89 89 89 87 84 84 88 90 88 90 93 87 84 99 116 122 102 91 94 82 102 116 92 95 91 89 84 82 86 88 91 93 94 96 98 99 101 105 106 114 124 131 137 138 130 110 105 106 110 120 133 154 147 65 3 0 0 1 1 2 2 0 0 0 0 0 0 0 0 0 0 0 0 0 0 0 0 0 0 0 0 0 0 0 0 0 0 0 0 0 0 0 
0 0 0 0 0 0 0 0 0 0 0 0 7 17 94 155 170 138 116 109 107 107 102 100 101 103 114 115 118 118 115 112 104 97 93 91 89 90 90 89 86 83 83 85 87 89 92 84 83 100 116 109 86 81 87 79 85 121 87 91 89 86 82 87 89 90 92 92 95 96 97 97 101 103 105 118 132 140 135 134 130 110 104 103 109 118 133 157 142 62 3 0 0 1 1 2 2 0 0 0 0 0 0 0 0 0 0 0 0 0 0 0 0 0 0 0 0 0 0 0 0 0 0 0 0 0 0 0 
0 0 0 0 0 0 0 0 0 0 0 0 6 15 86 152 167 134 114 108 106 105 102 100 99 102 114 114 115 117 120 114 103 101 94 89 90 92 90 89 87 86 80 79 81 85 89 83 87 103 110 91 84 82 89 77 79 112 104 89 86 82 81 89 89 90 92 94 96 96 96 96 102 100 102 119 138 134 129 133 128 109 104 102 108 115 133 156 137 57 3 0 0 1 1 1 2 0 0 0 0 0 0 0 0 0 0 0 0 0 0 0 0 0 0 0 0 0 0 0 0 0 0 0 0 0 0 0 
0 0 0 0 0 0 0 0 0 0 0 0 4 15 79 149 166 136 115 109 104 104 104 99 97 98 111 115 114 116 120 116 103 102 95 94 94 95 94 91 88 86 83 79 80 83 85 76 88 106 105 88 86 89 95 81 77 90 113 92 85 79 81 89 90 92 93 95 94 92 94 97 100 98 102 118 133 128 126 131 127 107 104 103 106 113 135 152 130 51 2 1 0 0 1 1 2 0 0 0 0 0 0 0 0 0 0 0 0 0 0 0 0 0 0 0 0 0 0 0 0 0 0 0 0 0 0 0 
0 0 0 0 0 0 0 0 0 0 0 0 2 14 73 144 162 141 116 108 103 102 103 102 97 94 107 116 115 116 121 115 102 100 97 95 95 95 95 94 89 85 80 78 77 80 80 78 93 107 92 85 84 93 100 86 80 78 108 101 96 86 83 89 91 92 92 92 90 91 93 98 96 95 101 117 126 125 124 129 125 106 104 102 103 112 139 147 122 45 3 1 0 0 1 2 2 0 0 0 0 0 0 0 0 0 0 0 0 0 0 0 0 0 0 0 0 0 0 0 0 0 0 0 0 0 0 0 
0 0 0 0 0 0 0 0 0 6 5 0 0 12 63 136 158 142 118 106 102 101 102 103 98 92 102 115 116 117 121 112 103 99 98 95 95 93 93 93 91 89 83 79 85 95 91 88 97 98 88 83 84 97 99 88 83 80 92 109 111 107 101 96 94 94 97 94 90 92 94 97 93 94 102 115 122 123 127 130 124 105 101 99 100 113 141 141 110 38 2 1 0 1 1 2 2 0 0 0 0 0 0 0 0 0 0 0 0 0 0 0 0 0 0 0 0 0 0 0 0 0 0 0 0 0 0 0 
0 0 0 0 0 0 0 0 0 3 9 3 1 9 53 127 155 141 117 106 99 100 102 103 97 91 104 118 117 116 119 113 103 98 98 96 94 92 91 92 98 98 94 87 90 94 97 91 103 92 88 83 84 95 94 91 89 84 87 117 121 121 111 101 97 92 94 97 92 89 90 93 93 93 102 118 121 122 126 132 129 107 97 98 99 113 142 135 101 34 2 0 0 1 1 1 2 0 0 0 0 0 0 0 0 0 0 0 0 0 0 0 0 0 0 0 0 0 0 0 0 0 0 0 0 0 0 0 
0 0 0 0 0 0 0 0 0 2 4 9 3 8 42 117 149 140 113 103 96 97 102 104 99 91 104 118 118 116 118 116 104 99 99 96 93 93 92 95 98 96 92 94 104 109 103 97 106 83 85 82 84 97 93 85 90 89 94 121 124 115 108 111 111 108 104 100 94 90 89 94 99 103 107 122 127 124 126 135 137 116 97 97 100 120 142 130 93 27 1 0 0 1 1 1 2 0 0 0 0 0 0 0 0 0 0 0 0 0 0 0 0 0 0 0 0 0 0 0 0 0 0 0 0 0 0 0 
0 0 0 0 0 0 0 0 0 0 3 10 4 7 32 103 144 143 114 105 101 100 102 102 101 94 106 116 118 120 125 123 115 103 100 97 93 95 100 101 102 102 102 105 98 99 95 106 108 83 82 83 83 103 93 85 86 84 90 118 133 115 106 108 113 123 136 131 124 121 124 123 126 127 133 137 125 120 128 138 138 127 104 98 108 130 143 121 86 18 1 1 1 8 5 1 2 0 0 0 0 0 0 0 0 0 0 0 0 0 0 0 0 0 0 0 0 0 0 0 0 0 0 0 0 0 0 0 
0 0 0 0 0 0 0 0 0 0 2 10 5 7 25 92 139 148 118 110 106 98 97 102 101 100 109 115 118 119 125 124 125 128 119 112 111 113 116 114 112 106 92 91 100 100 97 106 107 81 82 87 86 101 92 80 81 83 89 123 133 112 106 106 111 123 147 152 145 147 151 149 144 131 132 137 136 128 128 138 139 129 119 111 108 138 136 116 78 13 4 2 5 3 2 1 2 0 0 0 0 0 0 0 0 0 0 0 0 0 0 0 0 0 0 0 0 0 0 0 0 0 0 0 0 0 0 0 
0 0 0 0 0 0 0 0 0 0 1 8 6 8 19 82 132 153 134 112 106 96 94 100 105 113 113 116 120 120 120 121 117 122 125 127 128 120 116 112 110 104 100 101 100 96 95 104 108 88 84 92 90 105 94 80 81 88 99 129 131 115 106 107 112 127 146 150 148 153 149 143 138 127 132 129 140 143 139 136 138 132 126 128 143 142 121 113 68 9 4 3 5 2 1 1 2 0 0 0 0 0 0 0 0 0 0 0 0 0 0 0 0 0 0 0 0 0 0 0 0 0 0 0 0 0 0 0 
0 0 0 0 0 0 0 0 0 0 1 7 7 9 14 68 123 150 149 117 107 97 98 110 118 115 118 123 121 121 125 130 132 130 125 127 125 122 122 119 112 104 96 94 94 92 94 101 110 100 88 88 91 107 96 83 88 97 107 118 119 116 112 113 119 131 144 146 145 146 141 142 146 149 145 147 149 154 160 155 150 148 145 153 163 139 111 109 53 7 3 3 3 1 1 1 2 0 0 0 0 0 0 0 0 0 0 0 0 0 0 0 0 0 0 0 0 0 0 0 0 0 0 0 0 0 0 0 
0 0 0 0 0 0 0 0 0 0 0 7 8 9 13 55 115 146 153 132 113 111 117 119 125 124 125 133 129 121 133 143 149 154 153 142 140 138 128 114 103 96 96 92 88 89 96 111 111 94 94 94 89 108 95 88 89 101 108 109 116 108 114 116 120 135 152 153 155 154 151 154 155 146 133 140 141 150 162 165 171 175 169 176 179 130 121 104 32 7 4 3 2 1 1 1 2 0 0 0 0 0 0 0 0 0 0 0 0 0 0 0 0 0 0 0 0 0 0 0 0 0 0 0 0 0 0 0 
0 0 0 0 0 0 0 0 0 0 0 7 10 8 9 37 109 143 152 147 136 146 136 135 140 140 140 136 130 130 138 152 156 160 157 147 150 146 134 114 108 104 99 93 91 92 106 114 99 89 92 97 96 118 100 87 85 95 104 104 111 112 110 117 119 124 135 143 150 155 150 147 142 133 134 134 139 147 159 167 172 179 184 180 161 123 120 86 16 6 5 3 2 1 1 1 2 0 0 0 0 0 0 0 0 0 0 0 0 0 0 0 0 0 0 0 0 0 0 0 0 0 0 0 0 0 0 0 
0 0 0 0 0 0 0 0 0 0 0 5 10 7 8 12 62 129 148 149 152 170 177 160 158 155 143 138 137 139 152 158 156 155 159 151 146 146 139 118 110 109 109 101 97 95 104 111 102 91 93 101 99 114 117 95 84 89 95 104 107 105 113 116 117 119 122 133 137 136 128 133 133 129 135 142 144 146 152 159 167 169 170 166 145 121 117 94 18 6 7 4 2 1 1 1 2 0 0 0 0 0 0 0 0 0 0 0 0 0 0 0 0 0 0 0 0 0 0 0 0 0 0 0 0 0 0 0 
0 0 0 0 0 0 0 0 0 0 0 6 9 5 6 10 37 116 151 151 156 172 173 170 166 164 159 152 136 129 141 151 159 158 160 156 151 152 137 113 106 109 110 106 100 100 111 108 103 96 95 103 105 120 118 100 84 82 87 97 104 101 101 112 116 117 122 130 134 125 122 123 118 126 136 144 140 141 140 147 155 169 158 140 120 122 119 63 8 5 7 5 2 1 1 1 2 0 0 0 0 0 0 0 0 0 0 0 0 0 0 0 0 0 0 0 0 0 0 0 0 0 0 0 0 0 0 0 
0 0 0 0 0 0 0 0 0 0 0 6 6 5 5 9 22 92 146 149 150 156 159 149 164 166 161 151 141 135 131 138 146 157 159 156 150 144 130 118 109 107 111 112 101 99 111 102 98 100 100 98 92 112 120 108 85 84 92 96 103 110 109 109 102 102 117 128 131 131 131 123 124 139 146 148 143 147 139 140 147 158 135 123 126 126 109 32 6 4 7 6 2 1 1 1 2 0 0 0 0 0 0 0 0 0 0 0 0 0 0 0 0 0 0 0 0 0 0 0 0 0 0 0 0 0 0 0 
0 0 0 0 0 0 0 0 0 0 0 5 5 4 4 8 17 62 135 148 144 138 148 148 142 150 151 145 141 143 133 128 134 140 143 147 144 137 129 122 106 103 104 101 99 103 115 101 106 112 108 102 94 102 119 120 94 93 99 95 105 118 119 123 109 92 95 103 110 116 123 121 124 143 152 156 152 150 142 141 134 138 132 118 119 120 78 15 7 6 7 4 3 2 1 1 2 0 0 0 0 0 0 0 0 0 0 0 0 0 0 0 0 0 0 0 0 0 0 0 0 0 0 0 0 0 0 0 
0 0 0 0 0 0 0 0 0 0 0 4 5 4 4 8 15 34 114 137 134 133 142 147 144 138 133 131 137 149 149 131 120 123 137 143 140 132 127 108 95 92 100 106 105 107 125 110 117 118 116 110 100 100 123 123 106 101 104 106 108 122 125 127 120 96 88 88 97 106 114 127 137 140 147 157 159 155 151 147 142 138 122 101 103 112 43 11 6 7 6 2 3 3 1 1 2 0 0 0 0 0 0 0 0 0 0 0 0 0 0 0 0 0 0 0 0 0 0 0 0 0 0 0 0 0 0 0 
0 0 0 0 0 0 0 0 0 0 1 3 4 4 3 9 15 18 82 123 123 130 137 145 139 137 134 130 133 147 152 139 119 116 132 142 142 137 118 96 85 97 102 108 108 112 123 123 121 121 129 128 114 111 137 132 115 107 113 116 113 126 127 127 122 106 88 85 95 112 118 134 132 130 140 150 159 162 174 163 147 125 108 87 96 87 20 11 6 7 6 2 3 3 1 1 2 0 0 0 0 0 0 0 0 0 0 0 0 0 0 0 0 0 0 0 0 0 0 0 0 0 0 0 0 0 0 0 
0 0 0 0 0 0 0 0 0 0 1 3 4 4 2 5 13 14 48 118 131 124 136 150 149 143 139 137 142 145 148 134 117 117 118 124 122 116 107 98 91 101 103 110 120 125 126 130 133 135 142 144 148 152 152 140 137 139 132 129 129 141 141 135 126 109 93 91 104 122 116 113 126 122 134 148 160 170 180 170 137 114 96 89 103 57 13 12 7 7 6 3 2 3 1 1 2 0 0 0 0 0 0 0 0 0 0 0 0 0 0 0 0 0 0 0 0 0 0 0 0 0 0 0 0 0 0 0 
0 0 0 0 0 0 0 0 0 0 1 3 5 4 2 5 11 14 26 102 125 113 124 134 157 156 154 145 148 147 149 141 130 126 114 117 109 96 91 104 106 112 113 117 129 139 138 141 148 151 151 154 163 171 174 165 158 153 144 142 147 161 164 153 136 124 120 118 121 126 111 113 124 121 124 148 158 176 172 162 128 104 85 86 98 32 11 12 6 6 6 2 2 3 1 1 2 0 0 0 0 0 0 0 0 0 0 0 0 0 0 0 0 0 0 0 0 0 0 0 0 0 0 0 0 0 0 0 
0 0 0 0 0 0 0 0 0 0 1 3 5 3 2 5 10 13 15 68 118 119 111 121 149 163 161 153 148 145 149 147 134 130 121 119 112 103 101 109 135 132 130 130 137 147 152 150 151 143 142 146 146 147 153 155 152 145 137 139 145 161 170 166 151 145 142 137 143 119 105 106 114 119 115 141 155 177 162 147 128 114 95 100 81 19 9 9 5 6 5 3 3 3 1 1 2 0 0 0 0 0 0 0 0 0 0 0 0 0 0 0 0 0 0 0 0 0 0 0 0 0 0 0 0 0 0 0 
0 0 0 0 0 0 0 0 0 0 1 4 6 3 1 5 9 10 12 41 94 113 113 115 135 155 163 162 149 145 144 147 138 129 119 119 119 119 124 130 137 153 156 149 153 153 154 159 152 147 142 147 145 150 147 148 148 148 140 143 146 156 170 168 169 163 153 156 147 113 99 98 106 117 123 140 158 172 152 129 112 102 109 99 67 16 8 8 6 4 4 3 4 3 1 1 2 0 0 0 0 0 0 0 0 0 0 0 0 0 0 0 0 0 0 0 0 0 0 0 0 0 0 0 0 0 0 0 
0 0 0 0 0 0 0 0 0 0 1 5 13 9 3 4 8 9 11 29 82 114 121 109 120 138 159 162 153 139 139 140 134 123 110 110 112 116 122 130 139 157 168 169 164 161 162 160 152 150 148 156 158 158 152 145 149 152 138 139 141 149 159 165 170 163 155 158 147 110 89 96 111 124 144 155 161 165 149 128 97 86 98 98 58 16 8 6 6 4 4 4 4 3 2 1 2 0 0 0 0 0 0 0 0 0 0 0 0 0 0 0 0 0 0 0 0 0 0 0 0 0 0 0 0 0 0 0 
0 0 0 0 0 0 0 0 0 0 0 4 12 13 9 7 8 10 13 21 65 102 118 115 113 118 147 151 163 141 129 129 133 111 101 103 106 113 117 119 129 147 163 167 167 163 167 163 159 157 157 165 165 162 155 135 136 142 130 127 133 145 147 166 173 170 166 162 148 110 93 97 108 120 160 175 176 173 154 107 87 85 98 92 39 15 5 4 6 4 3 4 4 4 2 1 2 0 0 0 0 0 0 0 0 0 0 0 0 0 0 0 0 0 0 0 0 0 0 0 0 0 0 0 0 0 0 0 
0 0 0 0 0 0 0 0 0 0 0 3 11 11 9 8 9 12 16 16 34 86 116 116 103 113 138 152 166 149 140 131 134 112 94 100 106 109 109 109 115 141 161 162 162 160 157 153 155 156 160 171 166 163 142 118 119 127 128 125 132 150 153 164 180 176 169 161 146 118 97 98 110 134 164 166 174 159 143 96 78 79 79 64 20 14 7 5 5 6 5 6 7 4 3 1 1 0 0 0 0 0 0 0 0 0 0 0 0 0 0 0 0 0 0 0 0 0 0 0 0 0 0 0 0 0 0 0 
0 0 0 0 0 0 0 0 0 0 0 2 11 11 9 9 9 9 13 15 18 50 107 109 108 108 125 150 166 166 155 140 129 124 103 94 95 96 99 106 124 146 156 157 156 153 150 146 146 142 154 154 144 161 155 130 125 130 129 123 141 160 152 170 176 176 169 167 162 129 121 120 135 147 148 147 127 107 105 76 66 86 91 36 12 9 9 7 5 6 6 7 12 6 2 1 1 0 0 0 0 0 0 0 0 0 0 0 0 0 0 0 0 0 0 0 0 0 0 0 0 0 0 0 0 0 0 0 
0 0 0 0 0 0 0 0 0 0 0 0 9 11 6 6 6 5 9 15 20 27 71 98 93 91 113 146 154 166 166 148 133 133 120 104 103 107 113 132 139 165 178 171 171 164 161 166 171 170 168 157 160 178 181 165 155 158 158 153 161 166 179 184 175 174 167 178 171 168 147 143 141 139 115 96 90 88 92 76 94 97 53 18 10 2 2 4 5 5 5 7 9 5 1 1 1 0 0 0 0 0 0 0 0 0 0 0 0 0 0 0 0 0 0 0 0 0 0 0 0 0 0 0 0 0 0 0 
0 0 0 0 0 0 0 0 0 0 0 0 3 7 5 3 3 3 5 11 17 21 37 81 86 75 91 104 103 142 148 149 143 140 130 111 113 120 130 141 168 182 186 187 191 196 188 197 190 179 179 181 179 176 176 168 165 173 178 180 185 188 201 202 197 205 184 191 146 142 148 140 106 86 77 83 84 82 85 74 71 47 29 23 13 2 0 1 2 3 4 7 7 1 0 1 1 0 0 0 0 0 0 0 0 0 0 0 0 0 0 0 0 0 0 0 0 0 0 0 0 0 0 0 0 0 0 0 
0 0 0 0 0 0 0 0 0 0 0 0 0 3 3 2 1 0 1 7 13 20 25 45 79 83 65 56 66 76 95 109 134 136 128 125 118 131 148 166 175 174 180 180 187 192 188 185 182 171 163 169 169 164 161 158 157 158 163 168 169 188 197 182 172 185 179 172 158 139 124 104 88 78 75 89 92 88 69 48 41 39 36 26 18 0 0 0 1 1 3 7 7 0 0 1 1 0 0 0 0 0 0 0 0 0 0 0 0 0 0 0 0 0 0 0 0 0 0 0 0 0 0 0 0 0 0 0 
0 0 0 0 0 0 0 0 0 0 0 0 0 2 5 4 4 3 2 4 10 14 19 22 36 51 36 43 67 63 64 62 80 85 81 92 83 74 76 76 91 119 141 147 138 136 135 119 129 104 97 109 117 117 113 110 96 90 106 102 98 114 102 136 130 154 125 82 63 64 58 65 62 55 56 77 83 83 50 29 28 26 19 7 3 0 3 3 2 2 2 8 5 1 1 1 1 0 0 0 0 0 0 0 0 0 0 0 0 0 0 0 0 0 0 0 0 0 0 0 0 0 0 0 0 0 0 0 
0 0 0 0 0 0 0 0 0 0 0 0 0 0 3 3 3 3 2 1 6 10 13 16 22 22 23 33 67 65 60 62 62 65 62 66 69 60 67 69 82 88 83 82 90 95 82 71 76 79 60 74 89 91 90 89 73 61 74 74 82 99 87 79 77 94 91 98 105 100 65 63 62 55 56 76 84 81 47 29 28 25 16 6 3 1 2 1 2 2 4 5 2 0 1 1 1 0 0 0 0 0 0 0 0 0 0 0 0 0 0 0 0 0 0 0 0 0 0 0 0 0 0 0 0 0 0 0 
0 0 0 0 0 0 0 0 0 0 0 0 0 0 0 0 0 1 0 0 3 9 10 15 20 26 28 36 69 74 65 64 67 70 67 66 76 94 121 127 137 140 109 101 102 104 96 99 105 90 76 90 97 97 96 94 88 78 96 107 106 115 102 93 117 141 102 86 106 91 87 87 79 74 75 87 91 83 49 33 29 24 14 9 2 0 0 0 1 1 1 1 0 0 1 1 1 0 0 0 0 0 0 0 0 0 0 0 0 0 0 0 0 0 0 0 0 0 0 0 0 0 0 0 0 0 0 0 
0 0 0 0 0 0 0 0 0 0 0 0 0 0 0 0 0 0 0 0 0 4 4 8 15 29 35 45 75 88 79 73 78 85 85 88 101 120 125 140 155 168 157 135 141 160 160 158 145 123 117 124 122 121 118 122 121 113 119 139 146 152 145 150 157 161 129 132 107 125 118 111 96 87 84 84 83 77 50 37 25 17 10 8 1 0 0 0 0 0 0 0 0 0 0 1 1 0 0 0 0 0 0 0 0 0 0 0 0 0 0 0 0 0 0 0 0 0 0 0 0 0 0 0 0 0 0 0 
0 0 0 0 0 0 0 0 0 0 0 0 0 0 0 0 0 0 0 0 0 2 3 5 9 23 29 38 62 78 73 74 83 92 97 96 101 113 124 116 160 169 170 160 170 175 172 180 158 165 165 158 161 162 161 157 156 152 153 154 153 169 166 159 164 155 151 131 145 147 126 127 100 78 60 69 77 57 32 24 17 10 6 2 0 0 0 0 0 0 0 0 0 0 0 0 1 0 0 0 0 0 0 0 0 0 0 0 0 0 0 0 0 0 0 0 0 0 0 0 0 0 0 0 0 0 0 0 
0 0 0 0 0 0 0 0 0 0 0 0 0 0 0 0 0 0 0 0 0 0 2 3 8 17 28 36 53 76 76 71 74 76 75 70 78 93 105 107 126 128 120 106 127 137 153 169 161 153 144 136 139 136 139 130 135 134 133 131 139 146 128 134 136 125 134 142 148 152 113 70 49 50 60 82 80 47 26 22 13 8 6 2 0 0 1 1 1 1 1 2 1 2 3 3 3 1 0 0 0 0 0 0 0 0 0 0 0 0 0 0 0 0 0 0 0 0 0 0 0 0 0 0 0 0 0 0 
0 0 0 0 0 0 0 0 0 0 0 0 0 0 0 0 0 0 0 0 0 0 4 7 9 15 20 22 32 55 68 67 65 66 58 56 55 71 94 114 112 113 108 95 102 119 131 135 122 122 117 96 107 100 103 93 103 106 106 107 112 129 127 105 116 127 135 118 132 120 99 68 52 55 72 101 86 46 24 18 17 13 7 1 0 0 0 0 0 0 0 1 1 1 2 1 2 0 0 0 0 0 0 0 0 0 0 0 0 0 0 0 0 0 0 0 0 0 0 0 0 0 0 0 0 0 0 0 
0 0 0 0 0 0 0 0 0 0 0 0 0 0 0 0 0 0 0 0 0 0 2 6 9 13 19 21 25 45 63 75 73 70 58 51 53 66 86 101 99 100 101 103 110 124 132 130 118 114 107 88 94 93 95 90 102 111 114 109 105 115 107 93 86 106 123 127 124 107 93 67 54 59 81 107 87 49 25 19 18 12 7 1 0 0 0 0 0 0 1 1 1 1 2 1 1 0 0 0 0 0 0 0 0 0 0 0 0 0 0 0 0 0 0 0 0 0 0 0 0 0 0 0 0 0 0 0 
0 0 0 0 0 0 0 0 0 0 0 0 0 0 0 0 0 0 0 0 0 0 1 4 9 10 16 21 23 39 58 75 77 72 62 53 48 58 73 97 93 86 90 93 101 111 121 130 127 116 111 99 101 100 98 92 104 103 116 120 114 122 120 107 102 98 110 117 108 95 79 60 55 64 89 111 87 51 25 19 17 11 6 1 0 0 0 0 0 0 0 1 1 1 2 1 1 0 0 0 0 0 0 0 0 0 0 0 0 0 0 0 0 0 0 0 0 0 0 0 0 0 0 0 0 0 0 0 
0 0 0 0 0 0 0 0 0 0 0 0 0 0 0 0 0 0 0 0 0 0 0 3 7 9 13 19 22 33 49 70 78 74 67 57 52 55 59 66 72 78 87 92 99 106 113 121 136 127 117 107 105 104 97 95 100 99 108 119 121 141 132 111 103 95 99 107 109 99 80 64 59 67 95 113 82 52 26 18 15 11 4 1 0 0 0 0 0 0 0 1 1 1 2 1 1 0 0 0 0 0 0 0 0 0 0 0 0 0 0 0 0 0 0 0 0 0 0 0 0 0 0 0 0 0 0 0 
0 0 0 0 0 0 0 0 0 0 0 0 0 0 0 0 0 0 0 0 0 0 0 0 5 8 11 16 20 28 45 62 81 79 71 63 56 52 53 59 66 74 87 92 101 104 104 111 126 118 114 106 102 102 95 95 97 99 106 113 120 127 121 106 103 103 98 92 96 95 82 71 65 71 95 109 81 52 26 17 15 9 3 1 1 0 0 0 1 0 1 1 1 1 2 1 1 0 0 0 0 0 0 0 0 0 0 0 0 0 0 0 0 0 0 0 0 0 0 0 0 0 0 0 0 0 0 0 
0 0 0 0 0 0 0 0 0 0 0 0 0 0 0 0 0 0 0 0 0 0 0 0 2 5 9 13 18 25 42 54 79 78 76 71 62 55 54 58 64 70 85 98 107 103 97 95 103 108 113 105 97 98 96 93 96 101 107 106 114 111 109 103 106 108 103 87 78 74 68 69 71 80 97 105 78 45 20 16 15 8 2 1 1 0 0 0 0 0 0 1 1 1 2 1 1 0 0 0 0 0 0 0 0 0 0 0 0 0 0 0 0 0 0 0 0 0 0 0 0 0 0 0 0 0 0 0 
0 0 0 0 0 0 0 0 0 0 0 0 0 0 0 0 0 0 0 0 0 0 0 0 0 4 6 12 15 19 33 53 67 73 78 75 66 60 55 54 60 69 84 94 100 98 96 89 88 96 110 100 92 91 93 97 97 101 99 103 109 107 101 92 95 98 97 85 74 66 61 71 79 85 101 87 48 23 17 16 16 8 1 1 1 0 0 0 0 0 0 1 1 1 2 1 1 0 0 0 0 0 0 0 0 0 0 0 0 0 0 0 0 0 0 0 0 0 0 0 0 0 0 0 0 0 0 0 
0 0 0 0 0 0 0 0 0 0 0 0 0 0 0 0 0 0 0 0 0 0 0 0 0 3 4 8 14 18 21 32 41 46 72 79 69 64 58 51 56 67 78 80 90 94 94 88 86 96 112 104 95 95 98 98 99 100 100 99 102 98 93 88 91 89 85 77 74 64 61 73 81 91 99 44 18 17 17 18 16 8 1 1 1 0 0 0 0 0 0 1 1 1 2 1 1 0 0 0 0 0 0 0 0 0 0 0 0 0 0 0 0 0 0 0 0 0 0 0 0 0 0 0 0 0 0 0 
0 0 0 0 0 0 0 0 0 0 0 0 0 0 0 0 0 0 0 0 0 0 0 0 0 0 5 4 12 17 19 20 18 17 31 77 79 73 65 62 59 61 69 72 79 82 88 88 90 99 101 100 95 91 88 92 103 101 95 92 98 97 97 89 86 84 73 71 71 68 70 80 88 96 71 23 15 15 17 18 14 6 1 1 1 0 0 0 0 0 0 1 1 1 2 1 1 0 0 0 0 0 0 0 0 0 0 0 0 0 0 0 0 0 0 0 0 0 0 0 0 0 0 0 0 0 0 0 
0 0 0 0 0 0 0 0 0 0 0 0 0 0 0 0 0 0 0 0 0 0 0 0 0 0 2 5 8 13 18 18 18 18 13 38 76 80 74 69 66 66 68 72 79 78 81 88 100 104 95 96 98 96 92 92 103 104 94 90 98 100 106 97 91 83 80 79 75 75 81 88 91 77 35 19 14 15 17 17 12 6 1 1 1 0 0 0 0 0 0 1 1 1 2 1 1 0 0 0 0 0 0 0 0 0 0 0 0 0 0 0 0 0 0 0 0 0 0 0 0 0 0 0 0 0 0 0 
0 0 0 0 0 0 0 0 0 0 0 0 0 0 0 0 0 0 0 0 0 0 0 0 0 0 0 3 7 10 16 18 17 19 13 13 37 71 81 80 76 73 74 79 88 88 87 87 94 101 96 98 99 97 95 103 112 111 107 103 104 111 107 97 93 89 87 87 86 89 93 93 75 37 24 17 13 15 17 15 11 6 1 1 1 1 0 0 0 0 0 0 1 1 2 1 1 0 0 0 0 0 0 0 0 0 0 0 0 0 0 0 0 0 0 0 0 0 0 0 0 0 0 0 0 0 0 0 
0 0 0 0 0 0 0 0 0 0 0 0 0 0 0 0 0 0 0 0 0 0 0 0 0 0 0 2 5 7 12 17 18 19 13 13 17 33 63 79 83 86 85 86 99 99 91 89 89 103 102 97 98 97 97 106 110 109 110 107 100 103 105 102 97 98 101 99 96 95 91 71 36 26 23 17 14 16 15 14 10 5 1 1 1 0 0 0 0 0 0 0 1 1 2 1 0 0 0 0 0 0 0 0 0 0 0 0 0 0 0 0 0 0 0 0 0 0 0 0 0 0 0 0 0 0 0 0 
0 0 0 0 0 0 0 0 0 0 0 0 0 0 0 0 0 0 0 0 0 0 0 0 0 0 0 1 4 6 9 15 17 19 15 12 16 22 29 51 74 88 93 97 106 109 101 97 100 108 102 95 95 101 105 110 111 108 113 115 108 104 113 108 106 107 110 107 99 86 61 34 28 26 22 17 15 15 14 13 10 5 1 0 1 1 0 0 0 0 0 0 1 1 2 1 0 0 0 0 0 0 0 0 0 0 0 0 0 0 0 0 0 0 0 0 0 0 0 0 0 0 0 0 0 0 0 0 
0 0 0 0 0 0 0 0 0 0 0 0 0 0 0 0 0 0 0 0 0 0 0 0 0 0 0 0 1 7 7 13 16 18 15 11 13 20 25 29 38 61 82 93 106 112 108 106 106 107 107 102 103 103 100 103 105 107 112 114 113 106 113 116 112 109 110 103 81 50 31 29 28 24 21 16 14 14 14 12 9 5 1 0 1 1 0 0 0 0 0 1 1 1 2 1 0 0 0 0 0 0 0 0 0 0 0 0 0 0 0 0 0 0 0 0 0 0 0 0 0 0 0 0 0 0 0 0 
0 0 0 0 0 0 0 0 0 0 0 0 0 0 0 0 0 0 0 0 0 0 0 0 0 0 0 0 0 7 6 10 14 18 15 12 12 20 26 29 31 33 41 60 85 97 100 100 100 105 111 110 107 101 98 99 100 106 114 107 110 113 117 114 109 100 86 62 43 37 29 28 26 23 18 16 13 15 14 12 9 4 1 0 0 0 0 0 0 0 0 1 1 1 2 1 0 0 0 0 0 0 0 0 0 0 0 0 0 0 0 0 0 0 0 0 0 0 0 0 0 0 0 0 0 0 0 0 
0 0 0 0 0 0 0 0 0 0 0 0 0 0 0 0 0 0 0 0 0 0 0 0 0 0 0 0 0 4 6 9 13 17 16 13 12 19 26 28 31 33 32 37 50 68 80 88 90 93 104 107 103 101 102 104 104 106 115 113 114 106 105 99 90 71 53 47 41 36 28 28 26 23 17 14 15 15 14 13 9 3 1 0 1 1 0 0 0 0 0 0 1 1 2 1 0 0 0 0 0 0 0 0 0 0 0 0 0 0 0 0 0 0 0 0 0 0 0 0 0 0 0 0 0 0 0 0 
