P2
128 99
214
0 0 0 0 0 0 0 0 0 0 0 0 0 0 0 0 0 0 0 0 0 0 0 0 0 0 0 0 0 0 0 0 2 3 2 1 2 2 1 0 0 0 0 0 0 0 0 0 0 0 0 0 0 0 0 0 0 0 0 0 0 0 0 0 0 0 0 0 0 0 0 0 0 0 0 0 0 0 0 0 0 0 0 0 0 0 0 0 1 2 2 0 1 3 3 4 0 0 0 0 0 0 0 0 0 0 0 0 0 0 0 0 0 0 0 0 0 0 0 0 0 0 0 0 0 0 0 0 
0 0 0 0 0 0 0 0 0 0 0 0 0 0 0 0 0 0 0 0 0 0 0 0 0 0 0 0 0 0 0 0 2 3 2 1 2 2 2 0 0 0 0 0 0 0 0 0 0 0 0 0 0 0 0 0 0 0 0 0 0 0 0 0 0 0 0 0 0 0 0 0 0 0 0 0 0 0 0 0 0 0 0 0 0 0 0 0 1 2 1 0 2 3 3 4 0 0 0 0 0 0 0 0 0 0 0 0 0 0 0 0 0 0 0 0 0 0 0 0 0 0 0 0 0 0 0 0 
0 0 0 0 0 0 0 0 0 0 0 0 0 0 0 0 0 0 0 0 0 0 0 0 0 0 0 0 0 0 0 0 2 3 1 1 2 2 1 0 0 0 0 0 0 0 0 0 0 0 0 1 1 1 2 0 0 0 0 0 0 0 0 0 0 0 0 0 0 0 0 0 0 0 0 0 0 0 0 0 0 0 0 0 0 0 0 0 1 2 2 0 1 2 3 4 0 0 0 0 0 0 0 0 0 0 0 0 0 0 0 0 0 0 0 0 0 0 0 0 0 0 0 0 0 0 0 0 
0 0 0 0 0 0 0 0 0 0 0 0 0 0 0 0 0 0 0 0 0 0 0 0 0 0 0 0 0 0 0 0 2 2 1 0 2 2 1 0 0 0 0 1 7 12 15 16 17 20 21 24 27 25 23 20 18 17 17 14 4 0 0 0 0 0 0 0 0 0 0 0 0 0 0 0 0 0 0 0 0 0 0 0 0 0 0 0 1 2 1 0 1 3 3 4 0 0 0 0 0 0 0 0 0 0 0 0 0 0 0 0 0 0 0 0 0 0 0 0 0 0 0 0 0 0 0 0 
0 0 0 0 0 0 0 0 0 0 0 0 0 0 0 0 0 0 0 0 0 0 0 0 0 0 0 0 0 0 0 0 1 2 0 0 1 2 1 0 9 14 16 19 27 38 55 74 91 109 125 137 142 143 140 133 122 104 79 50 30 23 21 9 2 0 0 0 0 0 0 0 0 0 0 0 0 0 0 0 0 0 0 0 0 0 0 0 1 1 1 0 1 3 3 4 0 0 0 0 0 0 0 0 0 0 0 0 0 0 0 0 0 0 0 0 0 0 0 0 0 0 0 0 0 0 0 0 
0 0 0 0 0 0 0 0 0 0 0 0 0 0 0 0 0 0 0 0 0 0 0 0 0 0 0 0 0 0 0 0 1 1 0 0 1 2 13 16 19 29 37 64 99 132 155 166 168 167 163 161 160 160 159 157 156 154 151 151 142 117 76 39 25 18 6 2 0 0 0 0 0 0 0 0 0 0 0 0 0 0 0 0 0 0 0 0 1 2 1 0 1 2 3 4 0 0 0 0 0 0 0 0 0 0 0 0 0 0 0 0 0 0 0 0 0 0 0 0 0 0 0 0 0 0 0 0 
0 0 0 0 0 0 0 0 0 0 0 0 0 0 0 0 0 0 0 0 0 0 0 0 0 0 0 0 0 0 0 0 1 1 0 0 13 21 25 33 53 93 135 162 173 170 160 162 171 178 178 178 180 179 178 181 183 184 180 170 161 152 153 148 119 71 30 21 11 2 0 0 0 0 0 0 0 0 0 0 0 0 0 0 0 0 0 0 1 2 1 0 1 3 3 4 0 0 0 0 0 0 0 0 0 0 0 0 0 0 0 0 0 0 0 0 0 0 0 0 0 0 0 0 0 0 0 0 
0 0 0 0 0 0 0 0 0 0 0 0 0 0 0 0 0 0 0 0 0 0 0 0 0 0 0 0 0 0 0 0 1 1 9 25 26 33 62 110 150 172 172 159 162 177 183 183 173 164 163 166 165 158 154 159 164 171 172 173 180 182 175 162 154 157 142 96 44 22 11 2 0 0 0 0 0 0 0 0 0 0 0 0 0 0 0 0 2 2 2 1 2 3 3 4 0 0 0 0 0 0 0 0 0 0 0 0 0 0 0 0 0 0 0 0 0 0 0 0 0 0 0 0 0 0 0 0 
0 0 0 0 0 0 0 0 0 0 0 0 0 0 0 0 0 0 0 0 0 0 0 0 0 0 0 0 0 0 0 0 3 30 24 25 56 115 154 173 166 160 175 183 177 167 160 152 150 161 176 186 186 179 182 184 180 180 184 185 179 174 173 176 180 172 159 159 149 95 41 25 9 0 0 0 0 0 0 0 0 0 0 0 0 0 0 0 2 2 2 1 2 3 3 4 0 0 0 0 0 0 0 0 0 0 0 0 0 0 0 0 0 0 0 0 0 0 0 0 0 0 0 0 0 0 0 0 
0 0 0 0 0 0 0 0 0 0 0 0 0 0 0 0 0 0 0 0 0 0 0 0 0 0 0 0 0 0 0 25 24 21 39 100 150 174 166 160 177 184 172 156 140 141 152 157 161 150 131 128 128 122 125 137 154 169 188 201 208 201 190 181 176 176 179 175 161 161 142 73 31 18 2 0 0 0 0 0 0 0 0 0 0 0 0 0 1 2 2 1 2 3 3 4 0 0 0 0 0 0 0 0 0 0 0 0 0 0 0 0 0 0 0 0 0 0 0 0 0 0 0 0 0 0 0 0 
0 0 0 0 0 0 0 0 0 0 0 0 0 0 0 0 0 0 0 0 0 0 0 0 0 0 0 0 0 11 26 21 28 77 140 168 170 160 173 183 177 164 151 160 167 163 141 126 112 111 121 127 130 131 127 125 126 125 122 135 159 193 209 213 202 184 175 175 177 173 161 160 114 46 21 6 0 0 0 0 0 0 0 0 0 0 0 0 1 2 2 1 2 3 3 4 0 0 0 0 0 0 0 0 0 0 0 0 0 0 0 0 0 0 0 0 0 0 0 0 0 0 0 0 0 0 0 0 
0 0 0 0 0 0 0 0 0 0 0 0 0 0 0 0 0 0 0 0 0 0 0 0 0 0 0 0 21 24 18 46 119 160 171 161 173 181 177 174 167 181 185 171 158 140 134 131 125 131 128 127 126 126 132 130 132 134 138 133 122 132 158 176 199 214 209 195 181 176 178 170 159 141 65 21 11 0 0 0 0 0 0 0 0 0 0 0 2 2 2 1 2 3 3 4 0 0 0 0 0 0 0 0 0 0 0 0 0 0 0 0 0 0 0 0 0 0 0 0 0 0 0 0 0 0 0 0 
0 0 0 0 0 0 0 0 0 0 0 0 0 0 0 0 0 0 0 0 0 0 0 0 0 0 5 25 20 19 75 140 167 170 168 180 180 178 181 190 185 167 149 138 135 139 139 132 134 138 120 114 110 114 134 147 147 147 147 150 147 147 149 151 161 175 195 213 210 190 178 175 174 158 149 80 22 12 0 0 0 0 0 0 0 0 0 0 2 2 2 1 2 3 3 4 0 0 0 0 0 0 0 0 0 0 0 0 0 0 0 0 0 0 0 0 0 0 0 0 0 0 0 0 0 0 0 0 
0 0 0 0 0 0 0 0 0 0 0 0 0 0 0 0 0 0 0 0 0 0 0 0 0 10 27 17 24 96 150 168 168 176 180 179 184 194 187 165 142 135 138 144 155 163 158 153 146 141 132 124 120 122 130 146 149 150 150 151 150 148 149 158 164 162 162 171 195 213 203 182 174 171 158 154 85 25 13 0 0 0 0 0 0 0 0 0 2 2 2 1 2 3 3 4 0 0 0 0 0 0 0 0 0 0 0 0 0 0 0 0 0 0 0 0 0 0 0 0 0 0 0 0 0 0 0 0 
0 0 0 0 0 0 0 0 0 0 0 0 0 0 0 0 0 0 0 0 0 0 0 0 16 22 16 30 109 154 167 167 179 180 175 188 195 169 146 133 132 147 156 150 141 136 134 134 133 132 132 129 125 126 123 128 147 152 145 147 149 144 140 144 155 163 163 164 163 174 204 208 187 176 172 162 159 92 27 14 0 0 0 0 0 0 0 0 2 2 2 1 2 3 3 4 0 0 0 0 0 0 0 0 0 0 0 0 0 0 0 0 0 0 0 0 0 0 0 0 0 0 0 0 0 0 0 0 
0 0 0 0 0 0 0 0 0 0 0 0 0 0 0 0 0 0 0 0 0 0 2 22 18 16 43 123 150 160 165 178 176 173 192 185 155 136 132 142 158 153 126 112 108 92 83 95 94 94 107 125 118 106 98 100 108 125 141 145 147 138 128 131 134 141 157 157 158 159 162 192 208 189 180 170 163 160 104 32 13 0 0 0 0 0 0 0 2 2 2 1 2 3 3 4 0 0 0 0 0 0 0 0 0 0 0 0 0 0 0 0 0 0 0 0 0 0 0 0 0 0 0 0 0 0 0 0 
0 0 0 0 0 0 0 0 0 0 0 0 0 0 0 0 0 0 0 0 0 3 19 15 16 57 129 148 159 167 181 178 179 195 175 143 123 139 155 153 142 121 111 108 93 87 87 89 90 89 90 83 83 97 102 105 110 114 120 128 138 140 132 129 131 129 128 142 155 154 153 156 185 207 187 176 173 163 162 112 37 9 0 0 0 0 0 0 2 2 2 1 2 3 3 4 0 0 0 0 0 0 0 0 0 0 0 0 0 0 0 0 0 0 0 0 0 0 0 0 0 0 0 0 0 0 0 0 
0 0 0 0 0 0 0 0 0 0 0 0 0 0 0 0 0 0 0 0 6 18 12 18 68 136 144 163 169 181 179 175 188 167 132 122 138 148 144 141 129 118 112 107 106 107 105 107 105 105 101 83 87 108 107 106 105 107 107 110 116 125 141 145 136 126 125 119 128 145 150 148 147 179 202 184 180 176 164 167 114 37 5 0 0 0 0 0 2 2 2 1 2 3 3 4 0 0 0 0 0 0 0 0 0 0 0 0 0 0 0 0 0 0 0 0 0 0 0 0 0 0 0 0 0 0 0 0 
0 0 0 0 0 0 0 0 0 0 0 0 0 0 0 0 0 0 0 6 16 11 19 75 141 148 167 167 181 182 172 178 154 123 123 131 141 148 139 120 109 106 104 103 105 106 103 104 106 106 103 91 94 107 107 104 104 106 106 100 102 103 111 122 135 135 117 120 124 126 132 138 145 150 175 198 184 181 174 162 162 105 28 4 0 0 0 0 2 2 2 1 2 3 3 4 0 0 0 0 0 0 0 0 0 0 0 0 0 0 0 0 0 0 0 0 0 0 0 0 0 0 0 0 0 0 0 0 
0 0 0 0 0 0 0 0 0 0 0 0 0 0 0 0 0 0 4 16 12 19 78 141 145 166 163 175 177 171 179 148 118 121 134 147 150 135 110 101 97 91 92 100 99 104 113 117 118 120 117 118 121 128 134 136 137 136 131 121 109 100 91 92 109 130 140 122 120 125 123 128 129 138 148 173 195 176 176 167 163 154 95 20 1 0 0 0 2 3 2 1 2 3 3 4 0 0 0 0 0 0 0 0 0 0 0 0 0 0 0 0 0 0 0 0 0 0 0 0 0 0 0 0 0 0 0 0 
0 0 0 0 0 0 0 0 0 0 0 0 0 0 0 0 0 1 14 14 17 76 141 143 162 165 175 175 166 176 144 119 115 131 148 145 130 105 95 91 91 92 98 106 122 132 136 136 142 139 137 138 138 141 140 145 148 147 143 141 137 129 113 94 82 96 124 141 127 116 122 124 119 120 136 151 176 182 170 177 166 169 141 75 10 0 0 0 2 2 2 1 2 3 3 5 0 0 0 0 0 0 0 0 0 0 0 0 0 0 0 0 0 0 0 0 0 0 0 0 0 0 0 0 0 0 0 0 
0 0 0 0 0 0 0 0 0 0 0 0 0 0 0 0 0 8 14 14 65 138 142 159 169 170 176 162 174 146 114 106 128 153 145 126 105 94 90 91 90 99 117 133 139 138 134 132 132 127 124 126 128 128 125 124 124 126 127 130 134 136 137 123 96 79 88 118 141 133 115 122 125 112 119 136 161 177 172 174 175 170 158 125 50 4 0 0 2 2 2 1 2 4 3 4 0 0 0 0 0 0 0 0 0 0 0 0 0 0 0 0 0 0 0 0 0 0 0 0 0 0 0 0 0 0 0 0 
0 0 0 0 0 0 0 0 0 0 0 0 0 0 0 0 5 10 14 52 126 137 153 166 166 178 156 163 149 113 103 122 143 145 122 99 93 91 85 84 103 124 138 140 135 127 125 124 123 116 114 115 120 118 114 107 113 119 122 122 127 134 141 141 121 90 76 93 117 141 131 112 119 126 110 118 142 167 163 162 178 169 167 144 110 26 1 0 2 3 2 1 2 3 3 4 0 0 0 0 0 0 0 0 0 0 0 0 0 0 0 0 0 0 0 0 0 0 0 0 0 0 0 0 0 0 0 0 
0 0 0 0 0 0 0 0 0 0 0 0 0 0 0 1 8 16 41 114 133 149 157 164 174 152 146 152 112 107 126 144 145 122 99 96 87 76 81 102 127 142 144 138 136 130 129 132 124 116 116 118 121 111 103 99 105 113 115 123 129 132 136 142 135 118 89 74 87 114 137 135 114 123 124 110 121 148 174 146 164 170 171 156 135 70 8 1 2 3 2 1 2 4 3 5 0 0 0 0 0 0 0 0 0 0 0 0 0 0 0 0 0 0 0 0 0 0 0 0 0 0 0 0 0 0 0 0 
0 0 0 0 0 0 0 0 0 0 0 0 0 0 0 7 7 25 93 134 140 152 167 164 161 131 158 126 103 124 145 146 125 103 93 85 75 78 96 122 138 138 138 136 133 135 133 133 124 116 113 114 115 102 99 105 108 114 108 116 121 126 134 142 143 137 111 83 72 88 116 138 127 108 123 124 113 121 165 156 138 169 169 169 141 110 25 1 2 2 2 1 2 3 3 4 0 0 0 0 0 0 0 0 0 0 0 0 0 0 0 0 0 0 0 0 0 0 0 0 0 0 0 0 0 0 0 0 
0 0 0 0 0 0 0 0 0 0 0 0 0 0 2 6 15 62 126 133 149 158 164 164 131 138 142 101 112 143 146 126 102 98 91 78 79 94 119 134 135 129 127 126 122 125 118 118 112 108 104 109 107 108 105 101 104 109 106 105 106 122 126 132 133 140 130 103 77 73 89 118 137 122 116 130 117 112 140 167 126 155 163 175 146 133 54 3 2 2 2 1 2 3 3 4 0 0 0 0 0 0 0 0 0 0 0 0 0 0 0 0 0 0 0 0 0 0 0 0 0 0 0 0 0 0 0 0 
0 0 0 0 0 0 0 0 0 0 0 0 0 0 6 9 33 103 136 142 153 162 158 152 118 136 117 102 139 154 129 99 94 93 80 76 90 118 137 134 123 114 109 110 105 99 100 98 95 95 94 97 96 100 89 94 93 93 92 84 73 84 107 122 128 130 133 125 95 72 73 89 123 136 119 129 131 109 124 163 132 135 158 174 157 135 97 13 2 2 2 1 2 3 3 4 0 0 0 0 0 0 0 0 0 0 0 0 0 0 0 0 0 0 0 0 0 0 0 0 0 0 0 0 0 0 0 0 
0 0 0 0 0 0 0 0 0 0 0 0 0 0 7 13 72 120 138 146 154 159 155 133 110 137 104 125 157 135 100 93 87 80 77 88 112 130 123 116 105 94 92 90 83 80 75 67 68 73 93 96 94 106 83 86 84 76 72 63 57 58 64 94 122 125 126 135 123 93 76 75 100 125 134 129 140 121 113 150 138 130 145 163 166 137 127 34 3 2 2 1 2 3 3 4 0 0 0 0 0 0 0 0 0 0 0 0 0 0 0 0 0 0 0 0 0 0 0 0 0 0 0 0 0 0 0 0 
0 0 0 0 0 0 0 0 0 0 0 0 0 4 4 35 100 130 134 151 152 155 152 113 115 132 110 142 150 106 93 92 85 78 86 109 127 117 99 107 105 83 70 67 65 67 63 60 66 68 82 106 102 109 88 81 76 67 64 60 58 57 56 65 103 124 119 131 140 117 85 72 86 105 126 132 144 130 109 136 135 133 137 159 169 141 134 56 4 3 2 1 2 3 4 4 0 0 0 0 0 0 0 0 0 0 0 0 0 0 0 0 0 0 0 0 0 0 0 0 0 0 0 0 0 0 0 0 
0 0 0 0 0 0 0 0 0 0 0 0 0 3 8 69 111 139 134 151 144 152 135 104 127 131 128 149 123 92 94 89 80 85 106 129 130 109 102 102 97 79 69 68 75 76 72 70 70 74 84 100 107 103 94 89 82 77 73 71 69 63 60 59 74 102 115 126 140 144 113 82 77 95 109 127 144 133 110 125 130 133 131 150 169 144 131 75 6 3 2 2 2 4 4 4 0 0 0 0 0 0 0 0 0 0 0 0 0 0 0 0 0 0 0 0 0 0 0 0 0 0 0 0 0 0 0 0 
0 0 0 0 0 0 0 0 0 0 0 0 0 5 17 91 115 139 138 141 144 143 115 98 126 130 138 131 101 91 93 84 84 106 134 136 120 103 92 96 92 90 86 84 88 89 87 84 82 88 94 100 111 109 107 102 96 89 85 83 80 75 70 65 64 79 106 115 121 142 142 106 80 89 100 109 132 128 110 123 128 132 131 147 170 147 129 93 11 3 2 2 2 4 4 5 0 0 0 0 0 0 0 0 0 0 0 0 0 0 0 0 0 0 0 0 0 0 0 0 0 0 0 0 0 0 0 0 
0 0 0 0 0 0 0 0 0 0 0 0 0 5 32 98 122 129 140 127 151 126 105 101 131 140 131 106 93 92 85 80 108 142 141 125 114 99 96 94 95 101 113 116 105 99 103 108 113 116 119 119 128 127 130 130 126 121 112 105 99 92 87 82 77 78 87 94 103 125 146 140 101 83 98 107 122 132 117 119 121 138 141 143 169 152 130 107 14 3 2 2 2 4 4 5 0 0 0 0 0 0 0 0 0 0 0 0 0 0 0 0 0 0 0 0 0 0 0 0 0 0 0 0 0 0 0 0 
0 0 0 0 0 0 0 0 0 0 0 0 1 4 48 103 138 131 135 127 147 115 108 109 144 142 110 98 93 91 81 100 141 146 118 110 111 103 95 98 104 116 120 130 127 119 124 131 134 137 135 134 136 135 138 139 136 136 137 138 145 137 128 124 112 94 63 73 92 107 130 149 138 99 95 108 118 127 115 118 115 134 145 136 169 153 135 119 23 4 2 1 2 3 4 5 0 0 0 0 0 0 0 0 0 0 0 0 0 0 0 0 0 0 0 0 0 0 0 0 0 0 0 0 0 0 0 0 
0 0 0 0 0 0 0 0 0 0 0 0 3 3 60 107 145 135 131 132 141 109 112 115 149 128 90 98 96 82 89 132 153 135 110 100 107 98 98 104 122 132 125 135 147 135 133 136 132 135 138 136 128 114 117 117 116 123 137 156 154 135 125 111 98 88 75 59 82 98 115 141 153 134 102 104 115 113 113 120 114 137 155 135 167 158 142 126 35 4 2 1 2 4 4 5 0 0 0 0 0 0 0 0 0 0 0 0 0 0 0 0 0 0 0 0 0 0 0 0 0 0 0 0 0 0 0 0 
0 0 0 0 0 0 0 0 0 0 0 0 3 7 69 114 145 141 131 141 139 106 114 121 150 109 80 97 93 80 112 147 142 118 101 97 100 102 109 119 135 146 125 124 142 150 142 136 132 130 130 130 123 111 112 116 116 116 126 158 146 131 118 108 102 97 85 68 83 94 104 118 142 153 130 106 110 101 115 123 111 133 158 136 162 164 150 133 51 4 2 1 2 3 4 5 0 0 0 0 0 0 0 0 0 0 0 0 0 0 0 0 0 0 0 0 0 0 0 0 0 0 0 0 0 0 0 0 
0 0 0 0 0 0 0 0 0 0 0 0 4 11 75 123 141 146 132 145 137 107 121 133 146 103 79 94 92 86 137 144 119 105 98 101 102 104 109 117 125 140 123 123 133 145 162 154 132 117 114 122 121 109 112 119 124 120 126 156 143 134 123 116 106 100 97 83 66 73 92 106 120 142 156 135 108 93 116 129 113 131 160 134 167 170 153 136 65 5 2 1 3 4 4 5 0 0 0 0 0 0 0 0 0 0 0 0 0 0 0 0 0 0 0 0 0 0 0 0 0 0 0 0 0 0 0 0 
0 0 0 0 0 0 0 0 0 0 0 0 3 13 78 129 135 145 134 148 134 108 131 136 141 106 81 91 95 99 147 124 96 100 103 96 93 94 97 107 118 129 125 124 128 133 147 162 143 127 124 114 123 111 116 141 142 128 137 151 137 131 124 115 108 105 99 81 63 67 77 80 102 134 154 167 133 100 121 131 111 124 156 130 165 174 154 133 78 9 2 2 3 4 4 5 0 0 0 0 0 0 0 0 0 0 0 0 0 0 0 0 0 0 0 0 0 0 0 0 0 0 0 0 0 0 0 0 
0 0 0 0 0 0 0 0 0 0 0 0 3 16 80 129 128 140 135 146 140 117 137 135 133 107 87 87 96 122 142 108 99 99 92 97 99 100 102 107 112 115 113 120 127 125 134 143 142 137 133 118 119 118 128 133 129 131 131 130 128 128 121 115 108 105 102 92 75 70 79 79 80 110 152 162 164 138 130 134 109 120 146 120 160 179 156 136 87 11 2 2 2 4 4 5 0 0 0 0 0 0 0 0 0 0 0 0 0 0 0 0 0 0 0 0 0 0 0 0 0 0 0 0 0 0 0 0 
0 0 0 0 0 0 0 0 0 0 0 0 6 13 83 138 133 145 137 144 142 115 139 137 130 115 94 85 107 149 129 103 93 87 97 102 103 108 113 117 118 114 109 107 109 110 111 127 129 116 104 120 116 121 126 107 106 108 119 122 115 113 119 119 120 119 121 114 98 91 98 94 88 93 114 161 170 173 138 129 111 118 140 117 151 176 159 143 95 14 2 2 3 3 4 5 0 0 0 0 0 0 0 0 0 0 0 0 0 0 0 0 0 0 0 0 0 0 0 0 0 0 0 0 0 0 0 0 
0 0 0 0 0 0 0 0 0 0 0 0 9 13 87 139 135 151 134 146 144 112 142 139 124 125 102 94 127 155 116 100 76 89 102 114 114 120 127 131 129 124 113 107 106 107 107 114 124 120 112 114 118 125 132 116 113 120 125 115 112 113 117 111 114 112 111 110 93 79 87 91 87 92 106 143 173 182 159 126 113 116 136 116 141 172 160 147 105 21 2 2 2 4 4 4 0 0 0 0 0 0 0 0 0 0 0 0 0 0 0 0 0 0 0 0 0 0 0 0 0 0 0 0 0 0 0 0 
0 0 0 0 0 0 0 0 0 0 0 0 9 13 93 138 139 143 126 148 140 114 140 130 114 136 118 112 154 146 124 91 77 96 114 123 122 126 126 124 121 119 114 113 106 101 108 105 116 122 124 132 127 119 136 129 129 129 118 119 114 111 99 108 111 108 104 98 80 67 79 99 109 109 109 114 158 179 175 119 114 112 128 114 128 167 157 146 111 29 2 2 2 4 4 5 0 0 0 0 0 0 0 0 0 0 0 0 0 0 0 0 0 0 0 0 0 0 0 0 0 0 0 0 0 0 0 0 
0 0 0 0 0 0 0 0 0 0 0 0 9 12 101 137 141 152 130 146 133 115 133 120 108 123 126 137 169 151 143 103 93 106 117 118 116 115 111 113 114 108 106 104 106 105 106 111 110 124 127 133 132 118 136 127 128 127 118 124 112 94 104 111 112 110 107 100 84 75 85 98 106 105 106 110 132 183 176 118 114 113 124 105 114 161 155 144 114 40 3 2 2 4 4 5 0 0 0 0 0 0 0 0 0 0 0 0 0 0 0 0 0 0 0 0 0 0 0 0 0 0 0 0 0 0 0 0 
0 0 0 0 0 0 0 0 0 0 0 0 9 13 102 133 145 149 129 143 128 121 125 109 105 101 124 149 175 158 135 97 102 110 109 110 110 111 108 109 110 107 105 102 103 110 109 115 107 124 124 129 125 121 127 128 122 126 121 121 97 102 110 116 125 128 118 101 79 61 63 79 94 95 102 110 118 169 156 108 109 114 120 83 99 154 158 146 118 51 4 2 3 4 4 5 0 0 0 0 0 0 0 0 0 0 0 0 0 0 0 0 0 0 0 0 0 0 0 0 0 0 0 0 0 0 0 0 
0 0 0 0 0 0 0 0 0 0 0 0 9 14 101 131 150 145 120 136 125 118 118 111 103 91 127 147 161 149 116 74 79 104 108 106 111 114 111 105 107 107 101 106 106 101 111 118 118 125 122 116 105 132 129 124 124 128 123 106 97 112 119 134 139 128 110 90 69 57 61 78 96 105 106 109 120 154 141 102 102 115 120 74 90 144 154 145 119 57 5 2 3 4 4 5 0 0 0 0 0 0 0 0 0 0 0 0 0 0 0 0 0 0 0 0 0 0 0 0 0 0 0 0 0 0 0 0 
0 0 0 0 0 0 0 0 0 0 0 0 8 14 101 132 151 140 108 137 116 107 114 111 100 84 118 158 159 147 110 74 76 98 104 103 109 116 113 110 104 103 101 106 108 98 102 114 118 130 127 110 136 148 143 149 138 135 120 103 110 126 134 128 122 115 103 83 63 56 64 78 90 100 100 105 123 144 125 103 95 115 116 72 76 137 139 142 122 63 6 2 3 4 4 5 0 0 0 0 0 0 0 0 0 0 0 0 0 0 0 0 0 0 0 0 0 0 0 0 0 0 0 0 0 0 0 0 
0 0 0 0 0 0 0 0 0 0 0 0 9 14 100 132 150 137 107 141 109 92 116 103 85 82 104 153 163 144 111 67 74 90 99 101 111 115 112 109 119 127 117 112 108 98 98 106 106 125 131 131 130 104 112 108 135 125 118 116 130 127 122 117 120 120 104 80 58 50 64 79 87 98 100 104 128 136 112 102 99 116 114 71 77 136 122 134 126 67 5 2 3 4 4 5 0 0 0 0 0 0 0 0 0 0 0 0 0 0 0 0 0 0 0 0 0 0 0 0 0 0 0 0 0 0 0 0 
0 0 0 0 0 0 0 0 0 0 0 0 8 17 99 135 149 130 105 142 93 90 115 99 85 82 96 147 166 138 119 67 73 90 101 103 107 114 117 114 114 121 122 122 119 116 114 110 108 122 133 153 126 116 124 111 128 145 119 117 116 116 115 122 136 126 108 77 56 53 66 80 88 96 96 106 131 132 113 101 103 119 113 72 82 134 118 136 127 67 5 2 3 4 4 5 0 0 0 0 0 0 0 0 0 0 0 0 0 0 0 0 0 0 0 0 0 0 0 0 0 0 0 0 0 0 0 0 
0 0 0 0 0 0 0 0 0 0 0 0 5 17 94 137 150 127 108 133 87 89 114 96 88 82 91 137 164 137 129 74 68 90 104 104 105 119 119 111 119 113 108 104 98 99 111 114 103 113 140 141 105 106 110 97 103 142 110 106 114 116 117 137 136 124 106 76 55 54 66 81 87 95 96 116 145 132 119 96 103 119 110 71 84 133 117 133 123 63 5 2 2 4 4 5 0 0 0 0 0 0 0 0 0 0 0 0 0 0 0 0 0 0 0 0 0 0 0 0 0 0 0 0 0 0 0 0 
0 0 0 0 0 0 0 0 0 0 0 0 4 18 83 135 149 131 104 134 93 86 113 97 87 84 85 130 167 130 131 86 60 88 102 105 111 119 114 110 120 133 114 98 91 86 98 110 102 110 128 103 101 107 109 98 102 139 121 114 109 112 117 139 132 120 106 80 61 54 67 83 91 94 103 123 151 144 129 95 99 118 104 70 92 129 115 138 122 58 5 2 2 3 4 5 0 0 0 0 0 0 0 0 0 0 0 0 0 0 0 0 0 0 0 0 0 0 0 0 0 0 0 0 0 0 0 0 
0 0 0 0 0 0 0 0 0 0 0 0 4 16 76 136 150 135 103 129 99 86 113 107 87 84 84 128 164 123 113 99 55 81 99 110 113 120 119 116 122 132 119 99 91 89 99 96 99 108 134 97 103 106 109 101 99 113 130 107 112 111 108 125 133 122 105 74 57 53 63 88 100 101 109 124 142 154 150 105 100 115 93 72 101 132 117 136 115 49 4 2 2 3 4 5 0 0 0 0 0 0 0 0 0 0 0 0 0 0 0 0 0 0 0 0 0 0 0 0 0 0 0 0 0 0 0 0 
0 0 0 0 0 0 0 0 0 0 0 0 3 15 69 138 150 136 101 124 107 85 105 114 81 79 83 128 161 123 116 104 55 76 100 111 117 113 117 123 130 131 111 94 87 91 94 98 99 122 109 98 100 104 108 100 97 100 128 109 117 110 110 125 132 125 108 75 57 55 70 98 105 105 111 124 131 158 168 123 102 107 81 72 107 127 124 126 111 42 5 2 2 3 4 5 0 0 0 0 0 0 0 0 0 0 0 0 0 0 0 0 0 0 0 0 0 0 0 0 0 0 0 0 0 0 0 0 
0 0 0 0 0 0 0 0 0 8 6 0 0 13 58 134 151 135 100 113 107 85 103 119 83 74 84 129 158 130 114 105 58 72 99 112 118 110 113 116 123 130 118 99 100 100 112 105 108 125 92 91 99 107 111 108 99 98 116 124 139 111 121 135 130 122 107 85 64 69 91 110 103 102 112 120 127 150 162 148 110 96 71 73 114 115 127 115 107 36 4 2 2 4 4 5 0 0 0 0 0 0 0 0 0 0 0 0 0 0 0 0 0 0 0 0 0 0 0 0 0 0 0 0 0 0 0 0 
0 0 0 0 0 0 0 0 1 6 12 4 0 8 43 125 144 128 98 104 105 89 96 116 85 64 82 133 157 139 125 112 67 74 97 109 112 113 106 114 121 119 121 98 103 103 101 113 122 117 76 82 95 107 105 101 103 102 106 139 115 132 138 136 131 117 107 93 81 81 89 102 98 88 100 117 123 134 148 162 120 77 65 76 124 106 127 104 100 31 3 2 2 3 4 5 0 0 0 0 0 0 0 0 0 0 0 0 0 0 0 0 0 0 0 0 0 0 0 0 0 0 0 0 0 0 0 0 
0 0 0 0 0 0 0 0 0 2 5 11 1 4 31 114 134 123 98 90 103 93 91 113 94 59 77 129 151 142 136 117 82 78 97 113 117 117 114 115 118 119 115 104 118 117 109 108 115 100 75 84 91 105 103 98 90 105 117 150 126 112 131 146 149 134 108 84 73 75 80 96 98 94 97 104 102 131 142 170 124 74 66 94 118 107 126 100 92 24 3 1 2 4 4 5 0 0 0 0 0 0 0 0 0 0 0 0 0 0 0 0 0 0 0 0 0 0 0 0 0 0 0 0 0 0 0 0 
0 0 0 0 0 0 0 0 0 0 0 10 7 4 23 100 127 127 99 77 113 105 87 101 103 60 70 129 140 128 134 119 110 105 109 123 127 125 128 123 130 124 111 114 109 113 111 104 119 92 78 83 90 114 104 101 100 106 116 149 133 115 118 127 142 137 132 125 112 116 122 121 115 118 112 97 118 125 133 160 119 83 96 117 101 127 128 107 86 16 3 2 2 13 10 4 0 0 0 0 0 0 0 0 0 0 0 0 0 0 0 0 0 0 0 0 0 0 0 0 0 0 0 0 0 0 0 0 
0 0 0 0 0 0 0 0 0 0 0 5 14 6 17 89 121 131 115 81 100 107 91 93 112 70 65 131 136 115 122 118 124 143 141 136 132 133 142 132 126 131 120 110 119 118 106 96 115 89 73 91 90 106 92 94 104 112 117 145 132 125 130 131 128 119 117 94 110 139 150 138 133 111 100 117 138 129 125 153 108 95 138 109 95 140 116 115 74 9 3 2 7 5 4 5 0 0 0 0 0 0 0 0 0 0 0 0 0 0 0 0 0 0 0 0 0 0 0 0 0 0 0 0 0 0 0 0 
0 0 0 0 0 0 0 0 0 0 0 2 12 9 13 78 114 131 132 91 86 105 90 87 106 86 69 126 128 109 113 112 126 129 125 136 144 133 126 117 120 106 107 111 119 112 110 118 129 104 84 92 94 98 100 105 105 111 119 148 152 138 131 128 115 105 103 89 112 132 132 133 140 113 99 125 146 134 123 141 113 111 146 123 135 123 91 130 63 8 4 4 4 3 4 5 0 0 0 0 0 0 0 0 0 0 0 0 0 0 0 0 0 0 0 0 0 0 0 0 0 0 0 0 0 0 0 0 
0 0 0 0 0 0 0 0 0 0 0 3 9 11 10 70 112 125 141 108 82 107 91 104 109 99 87 124 124 97 100 109 119 125 107 110 115 117 135 135 129 114 111 115 115 113 104 106 124 114 95 101 102 112 120 104 109 118 140 159 154 154 141 115 98 93 99 98 131 141 125 139 149 139 127 165 167 161 156 172 148 125 163 154 142 128 84 130 51 8 5 4 2 4 4 5 0 0 0 0 0 0 0 0 0 0 0 0 0 0 0 0 0 0 0 0 0 0 0 0 0 0 0 0 0 0 0 0 
0 0 0 0 0 0 0 0 0 0 0 3 10 11 9 60 115 123 148 125 87 123 115 108 101 115 125 122 117 88 96 112 124 141 136 116 124 143 150 143 131 122 128 121 115 117 119 123 123 99 87 103 117 133 113 107 113 133 164 150 148 145 133 103 97 114 111 108 126 139 139 141 137 120 132 167 159 159 158 166 171 140 159 165 161 118 108 124 37 10 7 2 2 4 4 5 0 0 0 0 0 0 0 0 0 0 0 0 0 0 0 0 0 0 0 0 0 0 0 0 0 0 0 0 0 0 0 0 
0 0 0 0 0 0 0 0 0 0 0 3 13 10 4 43 113 116 144 146 121 151 112 114 126 133 161 130 107 108 117 118 128 149 153 140 137 129 135 130 126 137 131 124 129 136 135 143 122 101 96 109 134 143 111 117 127 122 151 158 149 133 112 103 95 92 94 108 128 147 147 121 89 101 155 170 152 143 151 152 178 163 169 161 160 113 118 105 17 11 8 2 2 3 4 5 0 0 0 0 0 0 0 0 0 0 0 0 0 0 0 0 0 0 0 0 0 0 0 0 0 0 0 0 0 0 0 0 
0 0 0 0 0 0 0 0 0 0 0 0 15 12 9 10 71 110 127 139 155 176 155 145 161 152 141 165 139 118 135 135 131 123 130 143 123 114 109 88 98 125 138 130 128 135 141 144 130 112 111 103 120 139 132 123 124 120 120 131 129 111 104 100 104 111 114 126 127 139 142 109 67 84 155 176 166 142 147 136 152 156 158 164 158 99 92 110 24 11 14 4 2 3 4 6 0 0 0 0 0 0 0 0 0 0 0 0 0 0 0 0 0 0 0 0 0 0 0 0 0 0 0 0 0 0 0 0 
0 0 0 0 0 0 0 0 0 0 0 4 12 11 7 11 37 104 119 148 142 169 174 172 174 166 157 184 161 100 113 140 146 133 129 141 121 112 103 78 75 98 118 106 114 126 122 119 105 104 106 104 113 120 122 113 102 98 99 95 93 71 71 83 95 116 142 148 136 135 115 76 57 135 169 163 150 144 149 127 167 159 150 151 130 78 100 80 15 13 18 6 2 4 4 6 0 0 0 0 0 0 0 0 0 0 0 0 0 0 0 0 0 0 0 0 0 0 0 0 0 0 0 0 0 0 0 0 
0 0 0 0 0 0 0 0 0 0 0 4 11 13 3 12 20 92 114 126 129 129 156 153 169 170 180 192 167 136 111 133 142 133 120 127 128 111 103 106 85 79 88 98 98 91 98 84 70 85 99 94 79 105 103 97 76 79 88 94 96 81 76 83 72 80 124 147 140 128 96 56 69 157 150 160 158 163 155 127 167 131 124 132 137 93 111 37 8 6 14 12 2 3 4 6 0 0 0 0 0 0 0 0 0 0 0 0 0 0 0 0 0 0 0 0 0 0 0 0 0 0 0 0 0 0 0 0 
0 0 0 0 0 0 0 0 0 0 0 0 2 6 2 9 16 64 108 106 125 117 127 124 124 152 158 177 168 148 120 106 131 150 121 109 124 112 114 123 82 85 89 79 73 73 92 73 75 103 109 89 81 87 119 111 65 61 76 89 104 97 105 116 93 80 89 103 107 100 60 56 98 122 129 151 142 161 168 162 144 116 115 102 105 128 92 17 7 5 7 13 7 3 4 6 0 0 0 0 0 0 0 0 0 0 0 0 0 0 0 0 0 0 0 0 0 0 0 0 0 0 0 0 0 0 0 0 
0 0 0 0 0 0 0 0 0 0 0 0 0 2 4 9 17 34 105 105 125 145 129 119 142 150 143 153 162 142 128 121 118 142 134 120 112 113 105 88 65 63 63 69 89 90 101 77 94 90 99 98 91 96 127 126 109 86 77 83 90 103 114 123 111 91 88 89 77 70 74 99 114 103 116 126 141 159 161 142 115 111 120 86 72 128 45 13 6 4 6 5 5 3 5 7 0 0 0 0 0 0 0 0 0 0 0 0 0 0 0 0 0 0 0 0 0 0 0 0 0 0 0 0 0 0 0 0 
0 0 0 0 0 0 0 0 0 0 0 0 0 4 2 11 20 21 90 101 107 138 127 122 142 182 138 101 108 137 135 122 125 124 120 110 95 104 103 89 80 84 74 87 103 118 113 103 87 83 108 127 112 113 132 111 108 114 104 91 101 106 109 116 120 110 92 69 80 101 112 113 97 107 103 112 133 163 174 147 117 121 96 43 64 101 23 13 4 7 5 3 2 3 4 7 0 0 0 0 0 0 0 0 0 0 0 0 0 0 0 0 0 0 0 0 0 0 0 0 0 0 0 0 0 0 0 0 
0 0 0 0 0 0 0 0 0 0 0 0 1 5 1 8 17 17 51 92 88 118 132 120 148 182 142 86 87 105 131 125 138 154 145 117 88 84 92 88 93 94 92 96 108 116 105 109 119 132 144 149 144 142 131 129 124 131 120 109 118 119 115 125 126 103 83 69 115 117 115 118 117 100 89 107 124 154 170 146 125 115 66 24 96 64 19 17 6 9 5 3 2 3 4 7 0 0 0 0 0 0 0 0 0 0 0 0 0 0 0 0 0 0 0 0 0 0 0 0 0 0 0 0 0 0 0 0 
0 0 0 0 0 0 0 0 0 0 0 0 4 5 4 10 13 18 25 105 95 108 132 116 136 173 150 98 94 79 105 138 154 165 153 129 93 77 87 99 96 111 113 119 120 119 114 142 161 171 173 171 171 176 187 176 165 161 148 142 149 170 165 160 148 119 110 139 132 130 114 133 122 87 82 111 133 165 164 137 118 104 51 54 116 35 17 19 9 10 6 3 2 3 4 7 0 0 0 0 0 0 0 0 0 0 0 0 0 0 0 0 0 0 0 0 0 0 0 0 0 0 0 0 0 0 0 0 
0 0 0 0 0 0 0 0 0 0 0 0 5 4 5 12 17 12 13 69 90 91 105 110 121 146 136 121 106 89 102 134 167 170 132 118 119 102 98 109 127 134 146 156 158 152 154 166 191 179 160 152 144 138 163 179 165 147 144 161 171 187 187 161 144 137 126 136 142 118 97 96 104 89 84 133 152 154 131 120 131 108 47 74 94 25 16 18 11 12 6 3 2 2 4 6 0 0 0 0 0 0 0 0 0 0 0 0 0 0 0 0 0 0 0 0 0 0 0 0 0 0 0 0 0 0 0 0 
0 0 0 0 0 0 0 0 0 0 0 0 2 3 5 10 16 8 10 46 70 83 96 111 114 127 129 129 126 123 107 126 157 161 134 124 117 119 116 118 134 146 151 167 171 156 156 170 186 180 142 143 148 137 130 135 136 135 134 148 149 174 193 167 141 161 158 151 140 92 75 80 95 101 119 140 144 142 116 110 102 90 80 56 74 23 13 16 13 12 7 3 2 3 4 7 0 0 0 0 0 0 0 0 0 0 0 0 0 0 0 0 0 0 0 0 0 0 0 0 0 0 0 0 0 0 0 0 
0 0 0 0 0 0 0 0 0 0 0 11 11 5 6 13 15 10 12 37 71 82 102 84 125 137 145 137 136 127 128 141 149 118 94 106 119 119 115 111 117 126 124 144 155 146 155 149 163 175 150 148 146 133 124 117 118 116 115 118 120 161 175 162 140 153 154 142 136 110 89 102 135 126 152 142 145 147 132 105 81 100 101 80 78 18 12 12 17 12 7 5 2 2 4 7 0 0 0 0 0 0 0 0 0 0 0 0 0 0 0 0 0 0 0 0 0 0 0 0 0 0 0 0 0 0 0 0 
0 0 0 0 0 0 0 0 0 0 0 7 13 12 12 18 18 14 16 23 80 66 86 107 128 131 163 146 158 154 131 150 153 102 83 82 82 84 86 88 98 116 113 128 145 147 165 140 146 166 149 135 143 135 127 109 114 115 129 130 120 143 139 127 128 163 168 157 153 123 116 122 136 131 182 157 154 143 119 83 91 102 72 85 59 14 8 7 16 8 4 6 2 2 4 7 0 0 0 0 0 0 0 0 0 0 0 0 0 0 0 0 0 0 0 0 0 0 0 0 0 0 0 0 0 0 0 0 
0 0 0 0 0 0 0 0 0 0 0 2 12 13 13 13 11 11 19 16 44 70 89 127 112 98 152 156 171 177 153 133 150 121 91 85 81 86 87 86 82 90 86 88 115 135 165 136 138 159 137 140 147 125 104 92 75 69 82 94 100 136 151 150 145 184 180 171 155 120 94 95 116 145 176 161 162 119 108 89 93 77 42 64 23 12 5 4 7 6 3 4 4 2 4 7 0 0 0 0 0 0 0 0 0 0 0 0 0 0 0 0 0 0 0 0 0 0 0 0 0 0 0 0 0 0 0 0 
0 0 0 0 0 0 0 0 0 0 0 4 13 12 7 4 9 10 17 16 15 52 101 128 130 124 135 138 145 175 152 136 141 124 75 67 84 98 108 120 127 138 120 111 119 138 172 150 125 117 114 108 100 120 108 103 104 101 104 108 131 157 157 146 161 197 189 168 156 115 108 136 159 175 152 119 120 58 75 74 78 77 75 46 13 9 7 3 0 10 13 10 14 12 7 6 0 0 0 0 0 0 0 0 0 0 0 0 0 0 0 0 0 0 0 0 0 0 0 0 0 0 0 0 0 0 0 0 
0 0 0 0 0 0 0 0 0 0 0 0 10 12 3 3 3 5 10 17 19 26 77 138 129 100 118 127 122 163 142 126 136 146 128 108 105 101 104 110 147 144 151 169 153 173 193 166 142 134 144 138 155 173 175 154 153 165 166 164 193 189 172 167 168 165 160 162 117 153 135 127 127 119 85 63 97 64 76 54 102 100 59 11 5 3 4 2 2 5 11 12 10 12 4 6 0 0 0 0 0 0 0 0 0 0 0 0 0 0 0 0 0 0 0 0 0 0 0 0 0 0 0 0 0 0 0 0 
0 0 0 0 0 0 0 0 0 0 0 0 4 11 5 2 1 3 8 14 19 16 28 95 113 69 86 117 101 151 132 122 134 159 160 160 172 187 201 161 160 151 155 195 162 183 147 156 167 145 146 156 161 166 170 168 170 176 177 181 194 196 177 165 168 176 165 164 127 130 127 108 79 76 68 48 79 74 94 69 74 57 31 19 3 0 0 0 0 1 5 8 7 4 3 6 0 0 0 0 0 0 0 0 0 0 0 0 0 0 0 0 0 0 0 0 0 0 0 0 0 0 0 0 0 0 0 0 
0 0 0 0 0 0 0 0 0 0 0 0 0 3 4 1 1 0 0 6 8 6 12 39 72 67 51 57 54 79 106 98 124 132 111 113 137 144 150 152 148 137 137 143 150 159 131 148 163 168 126 136 133 139 142 150 158 156 164 160 139 187 207 150 159 166 192 170 136 107 81 76 69 37 40 55 88 70 75 55 44 34 24 18 18 0 0 0 0 1 5 10 9 2 3 6 0 0 0 0 0 0 0 0 0 0 0 0 0 0 0 0 0 0 0 0 0 0 0 0 0 0 0 0 0 0 0 0 
0 0 0 0 0 0 0 0 0 0 0 0 0 0 3 4 4 1 0 2 8 9 20 19 31 36 29 48 63 76 74 47 60 96 86 61 67 79 96 98 93 84 103 111 107 94 190 135 111 91 73 107 98 125 123 114 110 105 126 101 96 116 88 141 132 161 137 109 59 51 37 81 80 34 30 56 108 67 50 27 28 25 19 5 5 0 2 3 3 3 5 14 7 2 4 6 0 0 0 0 0 0 0 0 0 0 0 0 0 0 0 0 0 0 0 0 0 0 0 0 0 0 0 0 0 0 0 0 
0 0 0 0 0 0 0 0 0 0 0 0 0 0 0 2 4 3 1 0 6 9 8 16 23 25 22 38 71 83 74 43 56 86 84 53 56 68 78 68 83 93 77 79 87 72 56 58 81 73 43 74 70 67 67 80 96 72 78 68 68 88 73 59 79 92 103 145 120 102 56 83 83 33 28 61 111 63 45 28 24 25 13 7 6 1 2 2 3 3 2 5 2 2 4 6 0 0 0 0 0 0 0 0 0 0 0 0 0 0 0 0 0 0 0 0 0 0 0 0 0 0 0 0 0 0 0 0 
0 0 0 0 0 0 0 0 0 0 0 0 0 0 0 0 0 2 0 0 3 9 9 11 20 26 31 36 77 87 91 51 57 98 94 71 68 85 120 144 141 119 108 91 97 104 102 116 145 134 107 119 97 95 101 122 156 121 130 111 86 105 93 74 158 182 124 136 124 73 64 81 96 40 44 67 114 75 45 15 17 22 9 6 3 0 0 0 0 0 0 1 1 1 3 5 0 0 0 0 0 0 0 0 0 0 0 0 0 0 0 0 0 0 0 0 0 0 0 0 0 0 0 0 0 0 0 0 
0 0 0 0 0 0 0 0 0 0 0 0 0 0 0 0 0 0 0 0 0 3 4 4 7 17 29 30 69 83 104 89 99 137 128 104 73 91 110 143 143 142 143 118 148 165 169 179 178 170 170 177 152 139 133 140 145 95 104 130 137 146 133 163 160 167 108 158 77 75 90 64 49 30 24 31 78 72 37 9 9 5 2 1 0 0 0 0 0 0 0 0 0 0 1 3 0 0 0 0 0 0 0 0 0 0 0 0 0 0 0 0 0 0 0 0 0 0 0 0 0 0 0 0 0 0 0 0 
0 0 0 0 0 0 0 0 0 0 0 0 0 0 0 0 0 0 0 0 0 3 3 0 0 11 23 35 60 63 59 71 93 124 118 91 83 73 131 152 132 151 175 190 174 156 177 198 172 152 155 163 177 153 127 129 140 127 152 179 163 169 129 133 179 137 123 114 149 111 76 69 54 65 64 85 120 98 60 11 6 0 1 1 0 0 0 0 0 0 0 1 0 0 1 2 0 0 0 0 0 0 0 0 0 0 0 0 0 0 0 0 0 0 0 0 0 0 0 0 0 0 0 0 0 0 0 0 
0 0 0 0 0 0 0 0 0 0 0 0 0 0 0 0 0 0 0 0 0 0 1 0 3 10 41 57 75 80 82 85 86 128 119 46 31 52 113 128 107 123 107 120 135 133 203 202 201 189 192 182 170 146 132 133 138 150 144 130 165 174 120 131 112 97 120 186 126 120 80 49 50 64 58 71 82 44 11 8 5 1 6 2 0 0 0 0 2 4 3 6 6 9 11 10 0 0 0 0 0 0 0 0 0 0 0 0 0 0 0 0 0 0 0 0 0 0 0 0 0 0 0 0 0 0 0 0 
0 0 0 0 0 0 0 0 0 0 0 0 0 0 0 0 0 0 0 0 0 0 4 7 7 12 22 27 36 45 58 76 34 90 73 45 47 50 68 85 83 103 100 85 98 142 175 166 107 141 162 134 125 105 119 82 120 119 141 128 162 166 140 113 165 172 177 134 125 123 115 68 68 93 80 86 88 57 23 18 16 10 7 2 0 0 0 0 0 0 1 3 3 4 7 8 0 0 0 0 0 0 0 0 0 0 0 0 0 0 0 0 0 0 0 0 0 0 0 0 0 0 0 0 0 0 0 0 
0 0 0 0 0 0 0 0 0 0 0 0 0 0 0 0 0 0 0 0 0 0 2 7 7 11 20 24 29 46 53 83 40 92 67 35 37 40 64 78 79 99 98 111 130 132 168 152 89 135 153 128 143 147 166 144 155 160 171 143 153 161 111 60 82 123 166 179 177 121 73 44 45 81 86 80 83 49 28 24 16 8 7 1 0 0 0 0 0 0 2 3 3 4 7 8 0 0 0 0 0 0 0 0 0 0 0 0 0 0 0 0 0 0 0 0 0 0 0 0 0 0 0 0 0 0 0 0 
0 0 0 0 0 0 0 0 0 0 0 0 0 0 0 0 0 0 0 0 0 0 1 5 9 9 17 23 28 41 55 84 48 97 64 35 35 39 56 81 91 108 79 88 125 106 94 101 113 146 151 116 144 160 167 150 160 151 159 148 129 141 112 86 88 96 105 149 123 75 47 28 35 76 91 86 81 50 33 24 12 9 7 0 0 0 0 0 0 0 1 3 3 4 7 8 0 0 0 0 0 0 0 0 0 0 0 0 0 0 0 0 0 0 0 0 0 0 0 0 0 0 0 0 0 0 0 0 
0 0 0 0 0 0 0 0 0 0 0 0 0 0 0 0 0 0 0 0 0 0 0 4 6 10 13 21 26 32 43 83 54 97 67 31 29 39 52 76 101 96 72 89 134 130 109 98 130 149 144 115 149 156 132 134 149 131 145 141 95 101 100 78 108 100 83 107 134 109 49 28 31 73 107 85 84 46 37 20 11 9 4 0 0 0 0 0 0 0 1 3 3 3 7 7 0 0 0 0 0 0 0 0 0 0 0 0 0 0 0 0 0 0 0 0 0 0 0 0 0 0 0 0 0 0 0 0 
0 0 0 0 0 0 0 0 0 0 0 0 0 0 0 0 0 0 0 0 0 0 0 0 6 7 10 17 27 26 31 78 58 92 67 31 26 41 78 105 82 62 60 86 134 131 91 76 98 121 118 106 111 114 94 102 109 100 109 108 102 90 71 61 113 130 81 69 90 124 96 41 31 67 120 82 100 58 31 15 10 8 2 0 0 0 0 0 0 0 2 3 4 4 7 7 0 0 0 0 0 0 0 0 0 0 0 0 0 0 0 0 0 0 0 0 0 0 0 0 0 0 0 0 0 0 0 0 
0 0 0 0 0 0 0 0 0 0 0 0 0 0 0 0 0 0 0 0 0 0 0 0 4 4 8 14 22 25 30 74 63 81 68 34 31 59 96 91 54 40 49 77 131 133 83 74 73 104 105 78 74 80 85 91 89 83 88 101 104 101 69 62 103 133 89 65 53 77 115 77 36 53 116 82 82 38 24 14 10 8 1 0 0 0 0 0 0 0 1 3 4 4 7 7 0 0 0 0 0 0 0 0 0 0 0 0 0 0 0 0 0 0 0 0 0 0 0 0 0 0 0 0 0 0 0 0 
0 0 0 0 0 0 0 0 0 0 0 0 0 0 0 0 0 0 0 0 0 0 0 0 2 6 4 14 16 21 27 64 58 57 59 30 37 83 100 59 40 33 42 66 126 120 77 69 59 87 108 78 67 71 79 90 92 89 91 100 106 113 76 55 80 139 97 66 51 47 94 105 51 45 85 84 48 24 20 14 11 6 0 0 0 0 0 0 0 0 1 3 4 5 8 7 0 0 0 0 0 0 0 0 0 0 0 0 0 0 0 0 0 0 0 0 0 0 0 0 0 0 0 0 0 0 0 0 
0 0 0 0 0 0 0 0 0 0 0 0 0 0 0 0 0 0 0 0 0 0 0 0 0 4 3 11 17 16 23 41 61 29 47 35 33 96 111 50 39 36 41 74 130 114 81 60 48 70 110 108 85 82 98 120 125 103 96 112 133 103 64 52 65 127 113 69 55 38 83 129 62 46 67 34 18 22 19 16 11 6 0 0 0 0 0 0 0 0 1 2 4 4 8 7 0 0 0 0 0 0 0 0 0 0 0 0 0 0 0 0 0 0 0 0 0 0 0 0 0 0 0 0 0 0 0 0 
0 0 0 0 0 0 0 0 0 0 0 0 0 0 0 0 0 0 0 0 0 0 0 0 0 0 5 6 13 16 18 19 24 17 27 58 60 109 124 59 37 36 44 79 112 90 72 56 52 72 99 120 112 103 104 115 132 106 98 108 111 80 57 56 70 111 108 61 47 35 81 145 94 75 62 22 18 19 17 13 10 5 0 0 0 0 0 0 0 0 0 2 3 4 7 7 0 0 0 0 0 0 0 0 0 0 0 0 0 0 0 0 0 0 0 0 0 0 0 0 0 0 0 0 0 0 0 0 
0 0 0 0 0 0 0 0 0 0 0 0 0 0 0 0 0 0 0 0 0 0 0 0 0 0 5 3 8 15 16 18 22 24 8 31 60 85 117 69 37 38 47 94 104 81 66 70 77 82 90 93 87 72 93 120 143 133 91 96 103 90 76 71 77 96 116 75 39 38 85 136 89 62 25 12 14 17 15 11 7 4 1 0 0 0 0 0 0 0 0 2 3 4 7 7 0 0 0 0 0 0 0 0 0 0 0 0 0 0 0 0 0 0 0 0 0 0 0 0 0 0 0 0 0 0 0 0 
0 0 0 0 0 0 0 0 0 0 0 0 0 0 0 0 0 0 0 0 0 0 0 0 0 0 0 5 5 10 15 20 19 27 15 13 16 36 101 95 48 35 60 113 103 86 73 74 91 105 106 100 91 93 127 159 161 129 109 102 88 84 81 63 66 92 126 109 51 48 96 118 47 26 19 8 12 15 13 8 6 4 1 0 0 0 0 0 0 0 0 2 3 4 7 7 0 0 0 0 0 0 0 0 0 0 0 0 0 0 0 0 0 0 0 0 0 0 0 0 0 0 0 0 0 0 0 0 
0 0 0 0 0 0 0 0 0 0 0 0 0 0 0 0 0 0 0 0 0 0 0 0 0 0 0 4 3 7 11 17 19 26 14 12 16 25 65 119 82 64 86 115 104 98 73 62 71 101 97 87 100 112 129 147 147 129 108 110 102 94 90 68 65 96 132 127 81 80 126 92 34 26 22 12 15 17 11 7 6 4 1 0 0 0 0 0 0 0 0 2 3 4 7 7 0 0 0 0 0 0 0 0 0 0 0 0 0 0 0 0 0 0 0 0 0 0 0 0 0 0 0 0 0 0 0 0 
0 0 0 0 0 0 0 0 0 0 0 0 0 0 0 0 0 0 0 0 0 0 0 0 0 0 0 0 5 6 7 16 18 25 16 12 16 24 33 84 122 103 91 92 86 96 88 74 92 112 96 88 99 120 131 144 144 132 111 105 112 94 95 66 73 96 105 111 95 114 106 45 32 24 24 16 18 16 13 6 6 4 0 0 0 0 0 0 0 0 0 1 3 4 7 6 0 0 0 0 0 0 0 0 0 0 0 0 0 0 0 0 0 0 0 0 0 0 0 0 0 0 0 0 0 0 0 0 
0 0 0 0 0 0 0 0 0 0 0 0 0 0 0 0 0 0 0 0 0 0 0 0 0 0 0 0 0 6 7 13 17 25 15 10 14 25 28 31 56 88 71 51 70 100 88 85 94 94 88 85 117 140 140 143 149 145 129 108 89 84 101 87 84 95 92 76 81 66 30 36 29 23 23 19 13 17 14 6 5 4 0 0 0 0 0 0 0 0 0 2 3 4 6 6 0 0 0 0 0 0 0 0 0 0 0 0 0 0 0 0 0 0 0 0 0 0 0 0 0 0 0 0 0 0 0 0 
0 0 0 0 0 0 0 0 0 0 0 0 0 0 0 0 0 0 0 0 0 0 0 0 0 0 0 0 0 5 5 10 17 24 18 10 11 23 28 30 30 34 30 30 42 79 95 92 92 90 81 101 147 153 152 159 157 152 149 119 70 73 98 96 88 79 50 41 38 36 28 32 28 23 23 20 13 16 15 8 6 3 0 0 0 0 0 0 0 0 0 2 3 4 7 7 0 0 0 0 0 0 0 0 0 0 0 0 0 0 0 0 0 0 0 0 0 0 0 0 0 0 0 0 0 0 0 0 
0 0 0 0 0 0 0 0 0 0 0 0 0 0 0 0 0 0 0 0 0 0 0 0 0 0 0 0 0 3 8 6 17 23 17 13 8 17 28 30 35 29 28 30 37 57 90 102 90 70 73 108 143 156 155 148 141 133 137 131 79 50 72 91 77 46 36 41 38 34 22 28 29 25 24 18 15 16 16 12 8 4 0 0 0 0 0 0 0 0 0 1 3 4 7 6 0 0 0 0 0 0 0 0 0 0 0 0 0 0 0 0 0 0 0 0 0 0 0 0 0 0 0 0 0 0 0 0 
