P2
128 99
208
0 0 0 0 0 0 0 0 0 0 0 0 0 0 0 0 0 0 0 0 0 0 0 0 0 0 0 0 0 0 0 0 1 1 1 0 0 0 0 0 0 0 0 0 0 0 0 0 0 0 0 0 0 0 0 0 0 0 0 0 0 0 0 0 0 0 0 0 0 0 0 0 0 0 0 0 0 0 0 0 0 0 0 0 0 0 0 0 0 0 0 0 1 1 1 2 2 0 0 0 0 0 0 0 0 0 0 0 0 0 0 0 0 0 0 0 0 0 0 0 0 0 0 0 0 0 0 0 
0 0 0 0 0 0 0 0 0 0 0 0 0 0 0 0 0 0 0 0 0 0 0 0 0 0 0 0 0 0 0 0 1 1 1 0 0 0 0 0 0 0 0 0 0 0 0 0 0 0 0 0 0 0 0 0 0 0 0 0 0 0 0 0 0 0 0 0 0 0 0 0 0 0 0 0 0 0 0 0 0 0 0 0 0 0 0 0 0 0 0 0 1 1 1 2 2 0 0 0 0 0 0 0 0 0 0 0 0 0 0 0 0 0 0 0 0 0 0 0 0 0 0 0 0 0 0 0 
0 0 0 0 0 0 0 0 0 0 0 0 0 0 0 0 0 0 0 0 0 0 0 0 0 0 0 0 0 0 0 0 1 1 1 0 0 0 0 0 0 0 0 0 0 0 0 0 0 0 0 1 1 2 1 0 0 0 0 0 0 0 0 0 0 0 0 0 0 0 0 0 0 0 0 0 0 0 0 0 0 0 0 0 0 0 0 0 0 0 0 0 0 1 1 2 2 0 0 0 0 0 0 0 0 0 0 0 0 0 0 0 0 0 0 0 0 0 0 0 0 0 0 0 0 0 0 0 
0 0 0 0 0 0 0 0 0 0 0 0 0 0 0 0 0 0 0 0 0 0 0 0 0 0 0 0 0 0 0 0 1 1 0 0 0 0 0 0 0 0 0 1 6 13 16 17 18 19 22 25 27 27 24 21 18 16 15 12 4 0 0 0 0 0 0 0 0 0 0 0 0 0 0 0 0 0 0 0 0 0 0 0 0 0 0 0 0 0 0 0 0 1 1 2 2 0 0 0 0 0 0 0 0 0 0 0 0 0 0 0 0 0 0 0 0 0 0 0 0 0 0 0 0 0 0 0 
0 0 0 0 0 0 0 0 0 0 0 0 0 0 0 0 0 0 0 0 0 0 0 0 0 0 0 0 0 0 0 0 0 1 0 0 0 0 0 0 6 13 19 23 24 33 53 77 99 119 134 144 149 150 146 136 121 102 78 55 33 22 17 11 2 0 0 0 0 0 0 0 0 0 0 0 0 0 0 0 0 0 0 0 0 0 0 0 0 0 0 0 0 1 1 2 2 0 0 0 0 0 0 0 0 0 0 0 0 0 0 0 0 0 0 0 0 0 0 0 0 0 0 0 0 0 0 0 
0 0 0 0 0 0 0 0 0 0 0 0 0 0 0 0 0 0 0 0 0 0 0 0 0 0 0 0 0 0 0 0 0 0 0 0 0 0 9 16 23 25 36 67 108 145 166 176 182 184 186 185 183 183 184 184 183 180 175 165 146 116 78 43 24 16 11 1 0 0 0 0 0 0 0 0 0 0 0 0 0 0 0 0 0 0 0 0 0 0 0 0 0 1 1 2 2 0 0 0 0 0 0 0 0 0 0 0 0 0 0 0 0 0 0 0 0 0 0 0 0 0 0 0 0 0 0 0 
0 0 0 0 0 0 0 0 0 0 0 0 0 0 0 0 0 0 0 0 0 0 0 0 0 0 0 0 0 0 0 0 0 0 0 0 9 22 23 26 51 101 148 173 183 186 187 188 189 190 193 194 195 195 196 195 193 188 185 185 184 180 170 152 120 75 39 19 14 2 0 0 0 0 0 0 0 0 0 0 0 0 0 0 0 0 0 0 0 0 0 0 0 1 1 2 2 0 0 0 0 0 0 0 0 0 0 0 0 0 0 0 0 0 0 0 0 0 0 0 0 0 0 0 0 0 0 0 
0 0 0 0 0 0 0 0 0 0 0 0 0 0 0 0 0 0 0 0 0 0 0 0 0 0 0 0 0 0 0 0 0 0 7 24 25 26 61 121 164 180 185 187 189 191 190 185 180 177 179 185 183 170 169 181 194 200 200 196 191 187 185 185 180 168 144 100 48 22 13 1 0 0 0 0 0 0 0 0 0 0 0 0 0 0 0 0 0 0 0 0 1 1 1 2 2 0 0 0 0 0 0 0 0 0 0 0 0 0 0 0 0 0 0 0 0 0 0 0 0 0 0 0 0 0 0 0 
0 0 0 0 0 0 0 0 0 0 0 0 0 0 0 0 0 0 0 0 0 0 0 0 0 0 0 0 0 0 0 0 5 28 25 23 57 126 167 179 181 186 189 192 191 183 172 159 151 150 151 153 150 143 144 149 158 176 195 202 199 197 195 190 185 184 184 175 152 101 45 23 11 0 0 0 0 0 0 0 0 0 0 0 0 0 0 0 0 0 0 0 1 1 1 2 2 0 0 0 0 0 0 0 0 0 0 0 0 0 0 0 0 0 0 0 0 0 0 0 0 0 0 0 0 0 0 0 
0 0 0 0 0 0 0 0 0 0 0 0 0 0 0 0 0 0 0 0 0 0 0 0 0 0 0 0 0 0 0 23 26 21 41 111 164 177 179 184 188 192 190 177 160 153 147 138 139 139 142 148 147 144 148 150 154 157 166 183 199 203 202 199 196 192 187 186 185 175 144 79 30 19 2 0 0 0 0 0 0 0 0 0 0 0 0 0 0 0 0 0 1 1 1 2 2 0 0 0 0 0 0 0 0 0 0 0 0 0 0 0 0 0 0 0 0 0 0 0 0 0 0 0 0 0 0 0 
0 0 0 0 0 0 0 0 0 0 0 0 0 0 0 0 0 0 0 0 0 0 0 0 0 0 0 0 0 10 28 23 25 83 155 177 179 183 187 193 197 184 166 162 159 155 149 141 133 133 133 136 134 135 140 143 142 140 146 155 169 190 202 207 204 199 196 194 188 186 185 169 118 45 23 6 0 0 0 0 0 0 0 0 0 0 0 0 0 0 0 0 1 1 1 2 2 0 0 0 0 0 0 0 0 0 0 0 0 0 0 0 0 0 0 0 0 0 0 0 0 0 0 0 0 0 0 0 
0 0 0 0 0 0 0 0 0 0 0 0 0 0 0 0 0 0 0 0 0 0 0 0 0 0 0 0 21 25 19 47 129 172 178 183 189 192 197 191 177 169 162 156 151 145 141 136 136 132 128 133 131 127 136 143 141 141 141 146 152 165 181 193 204 208 205 200 196 194 189 187 179 147 68 23 11 0 0 0 0 0 0 0 0 0 0 0 0 0 0 0 1 1 1 2 2 0 0 0 0 0 0 0 0 0 0 0 0 0 0 0 0 0 0 0 0 0 0 0 0 0 0 0 0 0 0 0 
0 0 0 0 0 0 0 0 0 0 0 0 0 0 0 0 0 0 0 0 0 0 0 0 0 0 5 26 21 19 75 154 175 181 188 192 198 197 185 174 170 161 153 151 146 145 145 142 145 139 131 128 127 128 141 149 148 152 154 152 150 156 166 174 186 195 204 208 205 199 195 191 185 179 158 84 25 13 0 0 0 0 0 0 0 0 0 0 0 0 0 0 1 1 1 2 2 0 0 0 0 0 0 0 0 0 0 0 0 0 0 0 0 0 0 0 0 0 0 0 0 0 0 0 0 0 0 0 
0 0 0 0 0 0 0 0 0 0 0 0 0 0 0 0 0 0 0 0 0 0 0 0 0 10 25 19 24 100 164 175 186 191 197 201 194 181 171 162 159 155 151 151 152 151 153 151 142 134 124 123 121 121 121 131 142 144 149 154 155 155 160 168 173 176 184 195 203 207 202 196 191 183 180 163 93 26 14 0 0 0 0 0 0 0 0 0 0 0 0 0 1 1 1 2 3 0 0 0 0 0 0 0 0 0 0 0 0 0 0 0 0 0 0 0 0 0 0 0 0 0 0 0 0 0 0 0 
0 0 0 0 0 0 0 0 0 0 0 0 0 0 0 0 0 0 0 0 0 0 0 0 14 23 17 34 116 166 176 188 194 201 197 185 174 166 161 160 162 159 156 149 139 137 129 123 126 122 118 119 116 118 121 122 131 142 144 143 146 149 152 156 162 170 172 173 180 193 203 203 197 193 184 182 167 103 30 13 0 0 0 0 0 0 0 0 0 0 0 0 1 1 1 2 3 0 0 0 0 0 0 0 0 0 0 0 0 0 0 0 0 0 0 0 0 0 0 0 0 0 0 0 0 0 0 0 
0 0 0 0 0 0 0 0 0 0 0 0 0 0 0 0 0 0 0 0 0 0 3 18 20 15 44 127 164 178 190 196 202 189 174 168 162 162 165 163 154 145 141 135 133 123 118 119 115 114 115 113 112 116 116 116 116 120 129 137 138 139 145 150 156 157 160 166 167 169 182 196 201 197 194 186 182 169 115 36 12 0 0 0 0 0 0 0 0 0 0 0 1 1 1 2 3 0 0 0 0 0 0 0 0 0 0 0 0 0 0 0 0 0 0 0 0 0 0 0 0 0 0 0 0 0 0 0 
0 0 0 0 0 0 0 0 0 0 0 0 0 0 0 0 0 0 0 0 0 5 17 16 16 56 135 163 180 191 198 198 180 167 164 162 158 163 159 150 148 139 131 130 120 119 120 118 121 123 123 116 115 124 124 124 126 127 126 127 127 126 129 139 145 148 151 155 163 166 163 170 189 197 198 194 187 182 169 123 39 9 0 0 0 0 0 0 0 0 0 0 1 1 1 2 3 0 0 0 0 0 0 0 0 0 0 0 0 0 0 0 0 0 0 0 0 0 0 0 0 0 0 0 0 0 0 0 
0 0 0 0 0 0 0 0 0 0 0 0 0 0 0 0 0 0 0 0 6 16 15 19 70 145 164 180 193 200 194 168 161 163 161 156 156 147 142 139 133 127 128 128 123 122 120 122 119 118 117 111 110 120 121 124 129 132 131 132 133 134 134 133 134 138 139 143 147 155 157 153 161 181 192 195 195 187 181 169 127 36 6 0 0 0 0 0 0 0 0 0 1 1 1 2 3 0 0 0 0 0 0 0 0 0 0 0 0 0 0 0 0 0 0 0 0 0 0 0 0 0 0 0 0 0 0 0 
0 0 0 0 0 0 0 0 0 0 0 0 0 0 0 0 0 0 0 6 16 14 20 78 147 163 178 191 200 190 163 156 160 157 152 149 140 135 129 121 126 133 134 126 121 116 113 114 111 104 105 100 102 111 117 121 122 124 124 124 126 127 127 131 131 127 129 135 139 142 145 148 148 155 175 189 195 197 188 180 168 120 28 3 0 0 0 0 0 0 0 0 1 1 1 2 3 0 0 0 0 0 0 0 0 0 0 0 0 0 0 0 0 0 0 0 0 0 0 0 0 0 0 0 0 0 0 0 
0 0 0 0 0 0 0 0 0 0 0 0 0 0 0 0 0 0 4 15 14 20 82 147 161 175 189 197 184 159 156 156 151 148 146 132 127 126 125 132 135 126 119 117 112 110 114 114 109 108 109 106 107 115 115 117 116 114 114 116 118 121 120 121 125 128 129 128 135 140 135 144 144 143 153 171 184 194 195 187 176 162 104 19 2 0 0 0 0 0 0 0 1 1 1 2 3 0 0 0 0 0 0 0 0 0 0 0 0 0 0 0 0 0 0 0 0 0 0 0 0 0 0 0 0 0 0 0 
0 0 0 0 0 0 0 0 0 0 0 0 0 0 0 0 0 2 15 13 19 79 143 158 171 186 197 181 157 155 156 145 142 144 131 124 124 128 133 133 122 112 109 108 109 111 111 111 114 111 107 106 106 112 111 110 113 111 111 114 117 118 117 119 119 121 128 131 126 133 136 133 143 138 143 150 165 179 195 192 183 171 153 81 10 0 0 0 0 0 0 0 1 1 1 3 3 0 0 0 0 0 0 0 0 0 0 0 0 0 0 0 0 0 0 0 0 0 0 0 0 0 0 0 0 0 0 0 
0 0 0 0 0 0 0 0 0 0 0 0 0 0 0 0 0 11 12 17 72 138 153 167 181 194 180 156 154 152 142 141 142 134 124 125 126 130 127 115 105 106 107 107 106 103 100 101 103 98 97 98 100 105 107 106 109 108 110 115 117 114 113 112 112 115 120 131 130 122 130 129 128 143 138 143 152 163 181 196 190 179 165 137 52 4 0 0 0 0 0 0 1 1 1 3 3 0 0 0 0 0 0 0 0 0 0 0 0 0 0 0 0 0 0 0 0 0 0 0 0 0 0 0 0 0 0 0 
0 0 0 0 0 0 0 0 0 0 0 0 0 0 0 0 5 12 14 59 130 146 162 177 192 180 155 150 150 138 138 138 128 125 124 121 127 127 113 105 107 108 107 104 101 97 96 96 92 90 92 94 97 107 108 107 106 103 102 102 106 107 108 107 103 104 111 125 134 125 115 127 126 129 138 134 142 150 156 183 194 189 174 157 114 25 1 0 0 0 0 0 1 1 1 3 3 0 0 0 0 0 0 0 0 0 0 0 0 0 0 0 0 0 0 0 0 0 0 0 0 0 0 0 0 0 0 0 
0 0 0 0 0 0 0 0 0 0 0 0 0 0 0 1 12 13 46 119 142 157 171 187 182 153 144 149 138 137 134 129 126 126 120 127 124 111 107 106 105 99 94 91 91 92 93 95 100 101 107 105 104 109 106 104 106 105 104 98 94 100 104 106 105 103 104 112 125 132 119 110 122 123 134 137 136 143 147 158 187 192 182 166 144 77 7 0 0 0 0 0 1 1 1 3 3 0 0 0 0 0 0 0 0 0 0 0 0 0 0 0 0 0 0 0 0 0 0 0 0 0 0 0 0 0 0 0 
0 0 0 0 0 0 0 0 0 0 0 0 0 0 0 7 11 26 100 134 150 165 181 182 159 143 144 138 136 135 134 124 124 116 123 120 111 109 106 100 93 93 93 94 93 97 99 102 107 110 117 117 111 108 105 105 106 108 106 103 98 93 94 99 107 109 108 108 115 124 127 113 111 120 123 138 139 134 144 144 167 187 186 173 156 119 30 1 0 0 0 0 1 1 1 3 3 0 0 0 0 0 0 0 0 0 0 0 0 0 0 0 0 0 0 0 0 0 0 0 0 0 0 0 0 0 0 0 
0 0 0 0 0 0 0 0 0 0 0 0 0 0 2 8 13 73 126 142 159 174 178 166 144 139 136 132 135 139 129 122 116 123 123 111 109 105 101 93 92 91 92 95 99 103 107 107 107 106 110 111 107 106 104 104 104 107 108 107 105 103 95 93 95 103 109 106 107 119 126 122 109 116 121 131 141 131 133 137 147 175 185 178 161 140 67 4 0 0 0 0 1 1 1 3 3 0 0 0 0 0 0 0 0 0 0 0 0 0 0 0 0 0 0 0 0 0 0 0 0 0 0 0 0 0 0 0 
0 0 0 0 0 0 0 0 0 0 0 0 0 0 6 8 39 111 131 150 167 174 164 152 137 132 131 132 138 133 124 116 119 122 116 101 99 100 97 91 91 91 95 101 106 109 110 108 102 98 103 106 105 101 88 90 96 102 103 105 106 109 107 100 92 92 98 107 106 110 121 126 118 111 117 128 142 136 128 127 135 159 176 179 167 149 104 17 0 0 0 0 1 1 1 3 3 0 0 0 0 0 0 0 0 0 0 0 0 0 0 0 0 0 0 0 0 0 0 0 0 0 0 0 0 0 0 0 
0 0 0 0 0 0 0 0 0 0 0 0 0 0 7 15 81 122 141 157 173 161 157 139 130 128 129 134 134 126 117 114 118 118 106 95 101 102 93 91 92 98 105 108 106 106 106 102 100 91 95 104 106 97 92 90 90 99 100 100 103 108 110 111 105 95 94 104 108 106 111 122 127 115 114 124 135 141 129 123 127 151 167 177 172 155 125 38 1 0 0 0 1 1 1 3 3 0 0 0 0 0 0 0 0 0 0 0 0 0 0 0 0 0 0 0 0 0 0 0 0 0 0 0 0 0 0 0 
0 0 0 0 0 0 0 0 0 0 0 0 0 3 7 37 107 130 147 162 168 157 149 133 125 127 130 133 130 120 118 119 117 110 97 101 105 97 91 94 101 106 106 102 100 100 102 102 98 93 97 102 110 101 97 97 102 101 93 99 101 102 103 109 116 107 94 100 107 106 104 113 128 123 113 123 131 138 128 121 118 148 160 176 175 160 136 58 2 0 0 0 1 1 1 3 3 0 0 0 0 0 0 0 0 0 0 0 0 0 0 0 0 0 0 0 0 0 0 0 0 0 0 0 0 0 0 0 
0 0 0 0 0 0 0 0 0 0 0 0 0 4 9 66 119 134 150 168 154 147 142 128 123 126 123 129 124 118 123 120 113 99 98 108 103 94 94 105 110 106 99 97 100 102 102 102 102 100 99 97 109 96 93 103 108 107 101 99 98 101 98 101 113 119 105 96 104 111 105 104 120 129 119 120 129 129 127 122 113 140 155 170 174 159 142 78 6 0 0 0 1 1 1 3 3 0 0 0 0 0 0 0 0 0 0 0 0 0 0 0 0 0 0 0 0 0 0 0 0 0 0 0 0 0 0 0 
0 0 0 0 0 0 0 0 0 0 0 0 0 6 16 92 125 143 158 163 140 140 137 123 121 120 118 130 118 120 124 115 107 97 106 109 101 99 105 113 110 98 92 93 99 99 99 102 101 94 87 88 102 85 88 97 99 99 102 99 97 100 102 101 104 115 120 106 102 112 114 105 109 125 128 118 123 124 122 123 113 131 152 168 174 164 147 96 10 0 0 0 1 1 1 3 3 0 0 0 0 0 0 0 0 0 0 0 0 0 0 0 0 0 0 0 0 0 0 0 0 0 0 0 0 0 0 0 
0 0 0 0 0 0 0 0 0 0 0 0 1 6 32 109 128 148 159 147 130 135 131 120 118 112 119 127 116 118 119 110 107 107 114 108 103 110 113 107 97 97 100 101 96 90 89 96 99 96 91 93 101 92 99 102 100 99 100 95 90 98 100 101 104 107 120 121 113 109 116 112 106 115 132 124 118 122 114 118 112 131 154 165 174 166 148 111 16 0 0 0 1 1 1 3 3 0 0 0 0 0 0 0 0 0 0 0 0 0 0 0 0 0 0 0 0 0 0 0 0 0 0 0 0 0 0 0 
0 0 0 0 0 0 0 0 0 0 0 0 2 6 48 114 133 152 155 136 127 134 131 119 112 108 119 125 114 109 113 108 107 113 113 111 114 113 105 94 97 100 98 95 88 83 92 100 106 103 101 107 104 107 112 110 108 106 101 93 92 92 100 103 105 111 110 124 127 115 112 113 108 107 124 130 112 117 112 114 110 126 151 160 173 168 152 123 25 1 0 0 1 1 1 3 3 0 0 0 0 0 0 0 0 0 0 0 0 0 0 0 0 0 0 0 0 0 0 0 0 0 0 0 0 0 0 0 
0 0 0 0 0 0 0 0 0 0 0 0 2 8 63 119 139 154 149 131 123 134 131 118 107 107 118 121 108 105 111 107 108 116 119 119 115 108 97 93 98 98 92 87 83 84 89 101 103 99 103 111 107 99 97 92 89 96 97 100 96 89 94 98 100 104 117 121 126 122 115 113 109 106 115 130 110 108 111 115 114 125 149 162 175 173 157 133 36 1 0 0 1 1 1 3 3 0 0 0 0 0 0 0 0 0 0 0 0 0 0 0 0 0 0 0 0 0 0 0 0 0 0 0 0 0 0 0 
0 0 0 0 0 0 0 0 0 0 0 0 3 8 71 124 143 152 148 134 127 134 131 119 108 108 118 115 99 103 112 107 112 119 122 121 107 102 104 97 98 95 88 83 82 87 90 96 96 93 95 101 99 81 78 80 78 83 94 103 97 87 85 90 103 114 120 120 124 123 121 119 112 110 112 126 113 104 107 110 114 134 150 163 176 175 161 143 49 2 0 0 1 1 1 3 3 0 0 0 0 0 0 0 0 0 0 0 0 0 0 0 0 0 0 0 0 0 0 0 0 0 0 0 0 0 0 0 
0 0 0 0 0 0 0 0 0 0 0 0 3 11 79 129 150 156 147 137 132 133 132 118 110 110 116 109 97 102 113 108 119 127 120 116 110 105 110 110 104 97 88 85 84 90 99 101 96 92 89 91 99 82 78 79 79 78 92 103 98 91 91 97 107 117 119 124 128 121 119 123 125 112 109 126 118 102 107 108 118 134 147 161 176 176 165 150 61 3 0 0 1 1 1 3 3 0 0 0 0 0 0 0 0 0 0 0 0 0 0 0 0 0 0 0 0 0 0 0 0 0 0 0 0 0 0 0 
0 0 0 0 0 0 0 0 0 0 0 0 4 12 84 134 154 161 149 141 136 134 136 120 113 115 111 108 97 99 113 115 129 126 117 115 112 104 100 97 92 90 94 96 97 92 99 104 101 95 92 89 101 89 83 87 86 80 95 103 96 94 103 105 99 95 96 98 106 104 100 107 128 132 119 130 129 105 104 110 123 137 146 157 174 178 167 151 75 5 0 0 1 1 1 3 3 0 0 0 0 0 0 0 0 0 0 0 0 0 0 0 0 0 0 0 0 0 0 0 0 0 0 0 0 0 0 0 
0 0 0 0 0 0 0 0 0 0 0 0 4 13 87 136 156 163 147 141 141 139 136 122 120 118 109 104 97 101 118 126 131 123 110 102 95 84 76 80 83 82 85 92 98 102 100 103 105 101 97 91 103 97 91 92 89 85 96 98 95 101 96 91 87 84 91 93 99 103 95 92 106 127 141 141 141 114 109 116 128 135 141 150 169 179 171 155 88 6 0 0 1 1 1 3 3 0 0 0 0 0 0 0 0 0 0 0 0 0 0 0 0 0 0 0 0 0 0 0 0 0 0 0 0 0 0 0 
0 0 0 0 0 0 0 0 0 0 0 0 6 14 90 141 157 159 148 142 140 139 137 130 128 125 110 101 101 107 128 132 130 110 95 89 85 80 79 84 83 83 84 86 93 98 101 101 103 102 95 95 102 103 97 90 85 87 95 97 102 91 87 86 83 90 94 96 103 111 100 88 93 112 138 155 148 129 118 122 129 129 135 143 157 179 172 157 101 9 0 0 1 1 1 3 3 0 0 0 0 0 0 0 0 0 0 0 0 0 0 0 0 0 0 0 0 0 0 0 0 0 0 0 0 0 0 0 
0 0 0 0 0 0 0 0 0 0 0 0 7 15 92 144 157 162 146 139 137 134 133 130 133 130 116 107 104 117 135 137 118 95 89 84 78 79 85 91 89 85 85 90 93 97 99 99 100 107 106 101 106 112 109 101 97 103 99 105 97 87 89 87 90 94 97 103 108 115 111 100 102 114 126 153 151 138 126 126 125 124 130 137 146 173 172 158 114 15 0 0 1 1 1 3 3 0 0 0 0 0 0 0 0 0 0 0 0 0 0 0 0 0 0 0 0 0 0 0 0 0 0 0 0 0 0 0 
0 0 0 0 0 0 0 0 0 0 0 0 7 14 95 145 160 162 141 133 136 133 129 124 130 130 119 117 123 128 137 132 103 90 85 85 83 87 90 88 89 92 93 92 90 92 97 99 99 104 103 110 117 117 122 114 106 105 93 106 91 87 80 80 86 90 93 99 105 114 115 103 108 125 124 134 144 139 134 125 123 120 124 131 138 164 173 159 124 23 0 0 1 1 1 3 3 0 0 0 0 0 0 0 0 0 0 0 0 0 0 0 0 0 0 0 0 0 0 0 0 0 0 0 0 0 0 0 
0 0 0 0 0 0 0 0 0 0 0 0 7 15 97 147 162 165 132 128 133 131 127 117 127 128 118 116 124 137 147 131 112 100 99 95 89 86 84 85 84 87 90 94 92 88 94 95 94 96 99 111 123 116 127 108 98 96 98 104 90 83 81 86 91 96 99 101 104 111 114 110 113 121 115 121 134 136 137 128 120 115 119 122 129 156 171 160 130 33 1 0 1 1 1 3 3 0 0 0 0 0 0 0 0 0 0 0 0 0 0 0 0 0 0 0 0 0 0 0 0 0 0 0 0 0 0 0 
0 0 0 0 0 0 0 0 0 0 0 0 8 16 98 149 163 165 129 128 132 127 122 114 122 122 115 113 120 125 135 129 123 113 106 100 94 89 85 86 89 91 90 90 92 91 92 99 95 97 97 111 117 115 117 108 98 101 99 97 88 84 87 90 92 93 96 99 102 107 109 110 112 113 113 114 127 132 134 133 120 108 112 115 117 146 169 161 133 42 1 0 1 1 2 3 3 0 0 0 0 0 0 0 0 0 0 0 0 0 0 0 0 0 0 0 0 0 0 0 0 0 0 0 0 0 0 0 
0 0 0 0 0 0 0 0 0 0 0 0 8 17 100 150 165 163 126 127 127 122 113 106 114 118 112 114 112 111 125 124 114 108 104 98 92 91 92 89 90 90 89 90 89 92 93 95 96 100 103 104 106 112 108 110 104 105 101 92 87 90 93 89 89 94 94 98 101 105 103 106 114 110 109 112 127 125 130 130 117 103 111 113 109 134 162 161 136 50 2 0 1 1 2 3 3 0 0 0 0 0 0 0 0 0 0 0 0 0 0 0 0 0 0 0 0 0 0 0 0 0 0 0 0 0 0 0 
0 0 0 0 0 0 0 0 0 0 0 0 8 17 101 151 165 158 122 123 118 115 105 97 108 116 110 119 111 105 119 120 104 100 98 91 81 85 92 94 95 97 95 91 86 87 89 95 102 106 112 111 102 99 97 108 108 112 107 90 93 93 88 83 79 90 97 99 101 104 101 101 109 110 107 113 125 120 126 131 118 100 105 109 100 125 149 157 139 56 2 0 1 1 2 3 3 0 0 0 0 0 0 0 0 0 0 0 0 0 0 0 0 0 0 0 0 0 0 0 0 0 0 0 0 0 0 0 
0 0 0 0 0 0 0 0 0 0 0 0 8 17 98 151 166 151 113 115 112 110 99 91 103 112 106 124 119 106 113 115 101 96 91 86 80 80 88 91 91 91 90 89 82 80 86 88 92 106 119 122 114 99 100 92 109 105 102 96 95 90 86 74 75 88 94 97 100 100 100 99 105 109 104 115 122 115 121 135 124 100 105 110 103 121 132 148 140 61 3 0 1 1 1 3 3 0 0 0 0 0 0 0 0 0 0 0 0 0 0 0 0 0 0 0 0 0 0 0 0 0 0 0 0 0 0 0 
0 0 0 0 0 0 0 0 0 0 0 0 7 17 97 150 165 143 113 109 104 107 99 92 100 107 109 118 121 108 109 111 101 95 90 87 81 82 89 93 90 85 85 80 77 85 89 89 89 104 119 125 107 92 89 72 91 105 93 100 99 95 83 76 79 88 93 96 97 97 96 98 103 103 102 121 120 116 126 139 126 100 104 107 105 119 128 148 138 62 3 0 1 1 1 3 3 0 0 0 0 0 0 0 0 0 0 0 0 0 0 0 0 0 0 0 0 0 0 0 0 0 0 0 0 0 0 0 
0 0 0 0 0 0 0 0 0 0 0 0 8 17 91 147 164 135 113 107 101 109 100 93 100 109 113 111 120 112 110 108 103 97 91 88 81 82 87 93 92 86 78 73 78 85 90 83 91 109 124 120 97 84 85 74 78 114 87 96 94 90 80 80 85 91 94 95 96 95 97 99 103 101 105 124 125 127 125 137 125 100 102 103 103 116 129 150 133 59 3 0 1 1 1 3 3 0 0 0 0 0 0 0 0 0 0 0 0 0 0 0 0 0 0 0 0 0 0 0 0 0 0 0 0 0 0 0 
0 0 0 0 0 0 0 0 0 0 0 0 6 14 83 145 161 129 111 107 99 108 101 94 96 106 115 110 116 112 114 110 102 100 91 87 85 85 86 91 93 85 73 70 75 82 92 82 92 112 119 97 95 88 87 68 74 111 101 95 89 85 79 83 85 92 95 97 96 94 99 103 104 97 104 123 126 121 116 133 122 100 103 100 104 113 129 148 129 54 2 0 1 1 1 3 3 0 0 0 0 0 0 0 0 0 0 0 0 0 0 0 0 0 0 0 0 0 0 0 0 0 0 0 0 0 0 0 
0 0 0 0 0 0 0 0 0 0 0 0 4 14 78 142 159 131 112 110 96 105 103 92 93 100 113 112 113 111 114 113 103 101 94 89 91 91 93 96 92 83 73 68 72 79 86 77 93 112 111 95 94 96 97 77 71 90 112 98 89 81 80 84 87 95 97 99 93 88 99 102 98 94 102 120 121 120 116 131 121 102 104 98 103 112 130 146 123 48 2 0 1 1 1 3 3 0 0 0 0 0 0 0 0 0 0 0 0 0 0 0 0 0 0 0 0 0 0 0 0 0 0 0 0 0 0 0 
0 0 0 0 0 0 0 0 0 0 0 0 2 14 71 137 155 136 112 109 97 101 103 96 94 95 109 115 111 111 119 114 103 100 98 90 94 97 96 97 89 80 69 69 69 74 76 79 96 114 100 92 90 99 103 88 78 77 112 99 97 88 81 83 87 92 96 97 86 86 98 101 93 93 98 113 119 126 121 126 118 101 105 96 101 109 134 141 114 44 2 0 1 1 1 3 3 0 0 0 0 0 0 0 0 0 0 0 0 0 0 0 0 0 0 0 0 0 0 0 0 0 0 0 0 0 0 0 
0 0 0 0 0 0 0 0 0 6 5 0 0 12 62 130 151 141 114 107 96 98 105 99 95 94 105 115 106 114 119 114 107 99 100 90 93 95 96 95 90 85 73 69 76 87 82 83 88 103 88 84 86 98 103 91 83 80 98 109 109 106 95 89 90 92 99 96 87 91 100 97 90 94 96 109 119 114 126 129 117 102 100 93 99 108 136 136 104 37 2 0 1 1 1 3 3 0 0 0 0 0 0 0 0 0 0 0 0 0 0 0 0 0 0 0 0 0 0 0 0 0 0 0 0 0 0 0 
0 0 0 0 0 0 0 0 0 3 9 4 1 9 52 122 150 140 114 106 96 94 104 100 94 90 108 115 106 119 125 114 111 100 97 92 89 94 95 95 99 94 82 75 78 83 87 79 97 93 81 82 85 93 95 91 90 83 86 121 120 122 108 95 92 90 94 94 86 86 92 88 92 92 99 116 115 114 124 128 122 107 94 91 99 108 136 128 95 32 1 0 1 1 1 2 3 0 0 0 0 0 0 0 0 0 0 0 0 0 0 0 0 0 0 0 0 0 0 0 0 0 0 0 0 0 0 0 
0 0 0 0 0 0 0 0 0 1 3 10 3 7 41 113 145 136 111 101 96 90 102 101 95 92 109 115 110 118 115 116 113 108 100 96 91 94 92 97 98 93 83 81 94 103 91 82 104 81 76 77 80 92 93 86 92 89 96 124 122 114 100 101 105 110 110 100 92 89 91 93 97 102 103 119 122 122 130 129 133 117 90 94 95 116 137 123 88 26 0 0 1 1 1 2 3 0 0 0 0 0 0 0 0 0 0 0 0 0 0 0 0 0 0 0 0 0 0 0 0 0 0 0 0 0 0 0 
0 0 0 0 0 0 0 0 0 0 4 10 3 7 31 99 140 138 114 100 104 95 98 103 95 95 111 116 112 117 122 123 119 106 102 95 91 90 99 97 98 98 94 96 88 94 82 94 106 78 75 78 78 100 90 87 92 93 95 121 134 109 103 102 108 124 139 132 128 129 125 117 125 124 125 135 122 120 133 131 136 121 98 99 100 128 137 116 82 17 1 0 1 8 6 2 3 0 0 0 0 0 0 0 0 0 0 0 0 0 0 0 0 0 0 0 0 0 0 0 0 0 0 0 0 0 0 0 
0 0 0 0 0 0 0 0 0 0 3 9 5 7 25 88 135 142 116 107 107 98 92 103 97 99 113 116 110 112 119 112 119 125 120 110 107 107 113 113 112 107 88 89 91 93 92 103 106 79 77 85 83 96 90 81 86 88 95 127 134 110 106 102 108 125 149 147 139 147 152 150 147 132 124 133 136 132 126 133 137 120 120 110 104 136 136 111 75 12 3 2 5 5 3 2 3 0 0 0 0 0 0 0 0 0 0 0 0 0 0 0 0 0 0 0 0 0 0 0 0 0 0 0 0 0 0 0 
0 0 0 0 0 0 0 0 0 0 2 7 7 8 20 79 126 148 130 109 102 101 88 97 103 110 117 115 122 114 109 105 116 129 123 120 121 115 113 105 107 109 107 101 98 97 94 104 108 88 82 96 86 103 94 81 87 95 105 132 131 115 106 105 115 131 151 156 157 158 155 150 134 123 130 127 138 144 134 133 137 126 125 124 138 138 123 107 66 8 3 3 6 1 1 3 3 0 0 0 0 0 0 0 0 0 0 0 0 0 0 0 0 0 0 0 0 0 0 0 0 0 0 0 0 0 0 0 
0 0 0 0 0 0 0 0 0 0 1 6 8 9 13 66 116 146 143 115 100 99 97 105 112 114 120 120 125 118 116 120 131 141 131 130 123 117 117 112 111 104 101 100 98 95 99 108 113 102 90 89 91 107 94 84 90 98 108 119 119 118 109 108 117 130 142 148 150 147 144 139 138 146 140 146 151 152 157 152 149 142 145 144 156 134 112 104 51 5 2 2 3 2 1 3 3 0 0 0 0 0 0 0 0 0 0 0 0 0 0 0 0 0 0 0 0 0 0 0 0 0 0 0 0 0 0 0 
0 0 0 0 0 0 0 0 0 0 0 6 8 9 13 53 109 143 147 130 107 110 120 114 118 122 123 131 129 117 133 144 145 153 151 139 135 130 122 104 97 98 97 92 89 88 94 109 108 96 95 87 87 103 92 85 88 99 105 110 115 113 114 116 122 126 141 150 145 145 150 147 150 142 126 134 131 142 158 158 168 173 166 170 171 125 111 99 32 6 3 2 2 3 1 3 3 0 0 0 0 0 0 0 0 0 0 0 0 0 0 0 0 0 0 0 0 0 0 0 0 0 0 0 0 0 0 0 
0 0 0 0 0 0 0 0 0 0 0 7 9 7 8 35 103 140 146 147 132 141 134 135 133 138 135 137 128 128 137 149 146 151 147 134 142 141 132 115 107 109 104 84 81 85 97 111 96 86 92 90 89 115 97 82 81 93 99 101 109 114 113 115 120 119 130 137 144 150 152 137 137 123 125 135 137 135 148 159 160 174 178 175 149 114 114 82 17 5 3 2 1 3 1 3 3 0 0 0 0 0 0 0 0 0 0 0 0 0 0 0 0 0 0 0 0 0 0 0 0 0 0 0 0 0 0 0 
0 0 0 0 0 0 0 0 0 0 0 3 11 6 6 11 59 123 141 142 150 165 170 157 159 154 140 140 138 135 149 154 146 145 150 135 136 135 133 128 119 117 116 99 86 90 97 104 97 86 86 97 98 113 116 94 81 87 92 100 104 109 121 118 111 110 121 132 143 146 136 128 135 129 134 141 145 144 148 153 155 161 168 158 133 117 108 87 17 6 6 4 1 2 2 3 3 0 0 0 0 0 0 0 0 0 0 0 0 0 0 0 0 0 0 0 0 0 0 0 0 0 0 0 0 0 0 0 
0 0 0 0 0 0 0 0 0 0 0 5 9 4 6 9 35 110 143 146 154 170 168 166 161 161 156 155 141 122 135 148 157 155 152 148 146 142 126 114 112 117 121 112 99 100 112 109 104 95 97 109 106 124 124 109 87 82 90 102 110 104 101 111 112 119 124 131 141 130 115 119 120 129 132 131 135 145 138 143 151 164 151 136 106 116 114 62 8 5 6 6 1 2 2 3 3 0 0 0 0 0 0 0 0 0 0 0 0 0 0 0 0 0 0 0 0 0 0 0 0 0 0 0 0 0 0 0 
0 0 0 0 0 0 0 0 0 0 0 6 6 5 4 8 21 88 142 143 140 151 159 153 164 169 164 148 145 129 125 139 143 155 159 148 141 135 117 113 109 111 117 121 105 98 114 104 100 104 112 113 106 126 136 117 88 87 97 105 105 105 99 105 99 99 116 131 137 127 122 126 123 133 131 129 133 146 142 133 144 153 131 122 118 123 103 32 7 5 6 6 1 2 2 3 2 0 0 0 0 0 0 0 0 0 0 0 0 0 0 0 0 0 0 0 0 0 0 0 0 0 0 0 0 0 0 0 
0 0 0 0 0 0 0 0 0 0 0 4 7 5 3 8 15 60 129 137 135 129 143 147 139 147 153 141 138 144 126 124 137 150 148 141 128 122 124 120 105 101 103 98 99 99 114 95 107 116 106 104 100 108 122 123 91 91 96 93 95 109 112 119 106 88 96 107 118 117 120 123 122 132 139 141 138 143 147 133 125 125 127 117 119 113 75 14 7 6 6 5 3 2 2 3 3 0 0 0 0 0 0 0 0 0 0 0 0 0 0 0 0 0 0 0 0 0 0 0 0 0 0 0 0 0 0 0 
0 0 0 0 0 0 0 0 0 0 0 4 5 3 3 8 14 33 110 129 124 123 130 136 143 140 128 123 132 149 145 122 119 127 140 144 130 120 120 100 93 88 97 101 102 106 124 102 112 115 111 103 94 94 117 117 96 91 100 109 106 115 121 125 122 97 89 90 97 103 100 116 136 133 140 151 155 149 152 145 135 127 113 103 109 108 42 11 4 3 4 5 5 2 2 3 2 0 0 0 0 0 0 0 0 0 0 0 0 0 0 0 0 0 0 0 0 0 0 0 0 0 0 0 0 0 0 0 
0 0 0 0 0 0 0 0 0 0 0 3 6 2 2 7 13 18 78 118 113 123 129 131 134 139 122 120 132 145 150 129 113 120 132 132 134 134 118 91 83 97 99 98 101 110 117 115 114 118 120 118 108 108 133 123 109 104 110 116 113 121 122 125 120 103 82 84 94 107 111 125 126 126 138 145 150 159 171 159 143 121 97 87 94 85 20 11 3 3 3 3 2 2 2 3 2 0 0 0 0 0 0 0 0 0 0 0 0 0 0 0 0 0 0 0 0 0 0 0 0 0 0 0 0 0 0 0 
0 0 0 0 0 0 0 0 0 0 0 2 6 3 0 4 13 14 46 109 124 118 131 138 143 138 130 130 132 137 142 123 110 122 123 114 106 108 106 99 83 96 100 109 117 118 122 129 142 137 138 136 142 145 142 136 137 137 125 129 129 133 134 130 128 102 88 93 99 123 115 105 117 120 130 137 151 165 176 165 128 108 90 92 96 58 13 12 5 5 4 3 1 2 2 3 2 0 0 0 0 0 0 0 0 0 0 0 0 0 0 0 0 0 0 0 0 0 0 0 0 0 0 0 0 0 0 0 
0 0 0 0 0 0 0 0 0 0 1 2 6 4 1 4 12 14 25 96 123 107 115 126 152 155 149 133 139 142 145 137 128 130 120 109 96 89 88 103 107 107 116 123 129 135 134 138 148 151 149 151 160 168 171 165 157 150 136 138 151 161 156 143 131 123 119 117 118 124 109 111 122 118 114 137 155 167 158 153 122 96 78 84 93 34 11 12 5 5 5 2 1 2 1 3 2 0 0 0 0 0 0 0 0 0 0 0 0 0 0 0 0 0 0 0 0 0 0 0 0 0 0 0 0 0 0 0 
0 0 0 0 0 0 0 0 0 0 1 2 5 3 2 5 13 13 14 66 116 117 105 114 148 160 158 147 148 141 144 140 137 133 122 114 108 98 95 106 134 130 133 131 134 142 156 152 149 143 141 146 144 145 153 153 149 140 130 133 144 153 160 158 149 145 139 133 133 111 101 108 119 115 107 132 154 171 153 139 126 112 94 94 77 20 11 11 4 4 4 2 2 3 2 2 2 0 0 0 0 0 0 0 0 0 0 0 0 0 0 0 0 0 0 0 0 0 0 0 0 0 0 0 0 0 0 0 
0 0 0 0 0 0 0 0 0 0 1 3 6 3 2 6 9 11 12 41 94 110 109 110 132 155 159 156 150 145 133 138 143 129 115 119 120 119 125 132 136 149 152 143 148 149 156 151 142 136 134 142 139 148 142 139 144 147 132 134 143 151 165 161 159 150 145 155 143 112 99 97 102 114 120 139 155 166 148 122 105 100 105 98 64 16 11 9 5 3 3 4 3 3 2 3 2 0 0 0 0 0 0 0 0 0 0 0 0 0 0 0 0 0 0 0 0 0 0 0 0 0 0 0 0 0 0 0 
0 0 0 0 0 0 0 0 0 0 1 4 14 10 3 7 9 10 12 30 80 109 113 108 118 139 156 155 149 135 136 141 141 120 105 107 112 109 114 126 138 156 168 170 161 156 159 154 139 141 148 155 154 154 147 142 147 150 135 139 143 140 146 154 161 156 151 160 147 111 88 91 107 121 138 153 159 163 144 125 92 82 97 91 55 15 8 6 7 3 2 4 3 3 3 3 2 0 0 0 0 0 0 0 0 0 0 0 0 0 0 0 0 0 0 0 0 0 0 0 0 0 0 0 0 0 0 0 
0 0 0 0 0 0 0 0 0 0 0 5 11 13 10 8 8 10 14 21 63 94 105 110 115 116 141 148 159 134 124 135 136 102 96 98 101 110 118 121 131 145 159 168 168 164 167 163 155 154 158 163 158 154 148 128 130 131 118 127 139 146 139 159 166 167 162 163 151 111 92 98 114 119 153 166 169 170 151 106 86 83 101 88 38 16 5 3 6 3 1 4 3 3 3 3 2 0 0 0 0 0 0 0 0 0 0 0 0 0 0 0 0 0 0 0 0 0 0 0 0 0 0 0 0 0 0 0 
0 0 0 0 0 0 0 0 0 0 0 4 10 11 9 7 8 13 15 16 34 82 107 107 101 115 133 147 164 147 134 130 137 110 92 99 105 105 106 110 118 139 157 158 162 156 151 154 156 151 156 168 163 157 139 117 113 125 123 129 130 144 142 155 172 172 167 165 155 127 101 99 111 130 158 161 169 160 138 98 79 73 74 67 20 14 7 3 3 5 3 5 5 3 2 2 2 0 0 0 0 0 0 0 0 0 0 0 0 0 0 0 0 0 0 0 0 0 0 0 0 0 0 0 0 0 0 0 
0 0 0 0 0 0 0 0 0 0 0 2 11 11 9 9 9 9 14 15 17 48 101 100 107 111 127 149 163 162 151 132 132 123 100 86 87 90 91 99 123 146 155 152 151 151 136 144 151 137 145 148 139 154 150 124 120 128 126 124 134 157 160 174 171 170 175 166 160 143 138 112 130 147 147 145 126 101 101 72 56 71 87 36 11 8 11 6 6 6 7 8 13 6 4 2 2 0 0 0 0 0 0 0 0 0 0 0 0 0 0 0 0 0 0 0 0 0 0 0 0 0 0 0 0 0 0 0 
0 0 0 0 0 0 0 0 0 0 0 0 9 10 7 6 6 5 8 15 19 29 68 91 89 94 116 142 156 160 164 142 133 126 111 98 92 93 104 120 137 162 169 172 161 156 154 162 163 164 160 150 152 172 173 160 151 153 152 152 162 165 174 167 164 154 161 181 168 167 156 134 133 138 107 87 87 84 94 74 90 94 54 21 11 2 2 4 4 5 4 6 6 5 1 2 1 0 0 0 0 0 0 0 0 0 0 0 0 0 0 0 0 0 0 0 0 0 0 0 0 0 0 0 0 0 0 0 
0 0 0 0 0 0 0 0 0 0 0 0 3 7 5 2 3 3 4 10 16 22 37 78 72 67 85 95 104 139 150 148 142 140 126 112 114 116 128 138 160 175 187 193 179 185 194 198 180 173 174 172 169 165 164 163 157 152 158 169 183 187 186 183 189 199 172 177 147 134 134 139 112 96 72 76 78 77 84 72 71 45 26 23 16 2 0 1 1 2 5 9 5 1 1 2 1 0 0 0 0 0 0 0 0 0 0 0 0 0 0 0 0 0 0 0 0 0 0 0 0 0 0 0 0 0 0 0 
0 0 0 0 0 0 0 0 0 0 0 0 0 3 2 2 1 1 0 7 12 21 26 45 67 74 60 45 57 70 100 105 129 128 125 128 119 126 145 152 164 160 159 166 172 192 179 185 177 170 164 168 165 158 155 156 157 143 151 166 167 188 187 171 170 185 183 151 142 118 103 92 96 78 55 72 89 89 70 49 43 38 37 25 18 0 0 0 1 0 2 6 5 0 1 2 1 0 0 0 0 0 0 0 0 0 0 0 0 0 0 0 0 0 0 0 0 0 0 0 0 0 0 0 0 0 0 0 
0 0 0 0 0 0 0 0 0 0 0 0 0 2 5 4 4 2 3 4 11 13 19 22 37 52 35 37 60 56 66 58 72 77 77 97 83 72 77 79 85 112 128 124 122 134 127 115 127 100 92 104 112 120 117 102 83 86 107 108 108 115 98 124 116 141 120 86 61 60 57 75 66 52 59 78 87 86 51 29 28 26 20 7 4 0 3 4 1 1 1 8 6 0 1 2 1 0 0 0 0 0 0 0 0 0 0 0 0 0 0 0 0 0 0 0 0 0 0 0 0 0 0 0 0 0 0 0 
0 0 0 0 0 0 0 0 0 0 0 0 0 0 3 4 2 3 2 1 5 9 13 17 22 23 23 31 58 58 63 60 56 56 57 72 68 65 67 65 74 81 70 74 82 92 85 70 77 80 57 71 85 90 89 86 76 64 75 76 87 101 88 77 77 86 76 112 115 89 69 63 53 53 56 73 84 81 49 28 27 24 16 6 3 0 1 1 1 3 3 4 1 0 1 2 1 0 0 0 0 0 0 0 0 0 0 0 0 0 0 0 0 0 0 0 0 0 0 0 0 0 0 0 0 0 0 0 
0 0 0 0 0 0 0 0 0 0 0 0 0 0 0 0 0 1 0 0 3 8 9 15 21 26 27 35 63 67 65 63 63 66 69 74 76 91 124 117 130 138 107 95 94 101 102 97 97 81 78 97 97 96 102 103 93 79 96 113 117 115 100 89 116 132 83 90 124 101 94 86 83 82 73 84 90 82 49 30 29 24 11 6 1 0 0 0 0 1 2 1 0 0 1 2 1 0 0 0 0 0 0 0 0 0 0 0 0 0 0 0 0 0 0 0 0 0 0 0 0 0 0 0 0 0 0 0 
0 0 0 0 0 0 0 0 0 0 0 0 0 0 0 0 0 0 0 0 0 2 3 9 14 25 32 46 77 89 88 83 80 80 82 83 84 111 122 133 146 155 160 126 127 149 153 140 129 108 107 119 122 123 125 131 126 127 138 153 154 154 150 153 165 147 127 122 113 117 135 113 92 82 72 75 75 67 40 26 21 13 7 7 1 0 0 0 0 0 0 0 0 0 0 1 1 0 0 0 0 0 0 0 0 0 0 0 0 0 0 0 0 0 0 0 0 0 0 0 0 0 0 0 0 0 0 0 
0 0 0 0 0 0 0 0 0 0 0 0 0 0 0 0 0 0 0 0 0 2 3 5 11 21 26 40 71 84 87 88 92 104 98 112 110 129 111 93 152 167 168 160 169 173 168 162 142 152 161 153 144 152 168 165 164 167 180 166 147 156 161 161 154 161 161 124 152 142 122 133 109 86 62 75 79 61 45 35 33 15 6 1 0 0 0 0 0 0 0 0 0 0 0 1 1 0 0 0 0 0 0 0 0 0 0 0 0 0 0 0 0 0 0 0 0 0 0 0 0 0 0 0 0 0 0 0 
0 0 0 0 0 0 0 0 0 0 0 0 0 0 0 0 0 0 0 0 0 0 2 4 8 17 25 34 52 73 72 71 62 68 60 75 91 93 101 121 111 108 127 112 126 133 148 152 143 139 125 121 127 130 137 127 138 144 149 137 137 145 140 146 144 127 126 132 141 127 105 84 56 59 75 92 89 52 32 23 16 7 5 1 0 0 0 0 0 0 0 0 1 2 3 5 3 0 0 0 0 0 0 0 0 0 0 0 0 0 0 0 0 0 0 0 0 0 0 0 0 0 0 0 0 0 0 0 
0 0 0 0 0 0 0 0 0 0 0 0 0 0 0 0 0 0 0 0 0 0 4 6 10 15 20 22 31 53 65 70 58 63 55 60 48 74 86 126 110 102 104 97 100 96 122 133 134 113 96 85 99 91 91 89 105 104 94 93 104 118 121 112 97 130 147 140 123 107 93 74 50 41 77 101 86 45 27 17 14 12 7 1 0 0 0 0 0 0 0 0 0 0 1 3 2 0 0 0 0 0 0 0 0 0 0 0 0 0 0 0 0 0 0 0 0 0 0 0 0 0 0 0 0 0 0 0 
0 0 0 0 0 0 0 0 0 0 0 0 0 0 0 0 0 0 0 0 0 0 2 6 9 12 18 20 23 42 61 73 67 67 59 49 43 59 85 97 95 96 102 104 106 115 122 123 120 108 100 84 87 87 92 91 98 107 108 106 101 103 102 96 80 101 118 118 120 105 86 67 63 53 79 106 88 49 26 18 17 12 7 1 0 0 0 0 0 0 0 0 0 0 1 3 1 0 0 0 0 0 0 0 0 0 0 0 0 0 0 0 0 0 0 0 0 0 0 0 0 0 0 0 0 0 0 0 
0 0 0 0 0 0 0 0 0 0 0 0 0 0 0 0 0 0 0 0 0 0 0 4 9 9 16 21 21 37 58 74 73 69 62 45 41 59 79 97 95 89 88 90 97 104 117 133 126 113 105 94 97 94 97 92 102 103 114 119 108 112 112 98 98 92 105 118 112 95 79 52 54 58 86 109 90 55 26 19 16 11 5 0 0 0 0 0 0 0 0 0 0 0 1 3 1 0 0 0 0 0 0 0 0 0 0 0 0 0 0 0 0 0 0 0 0 0 0 0 0 0 0 0 0 0 0 0 
0 0 0 0 0 0 0 0 0 0 0 0 0 0 0 0 0 0 0 0 0 0 0 2 6 9 13 19 22 33 50 67 77 73 67 52 62 63 55 64 76 74 81 89 102 105 123 123 138 129 106 100 98 97 93 90 97 96 100 113 124 140 129 98 99 89 94 103 108 100 79 68 64 63 88 110 83 52 25 18 15 11 4 0 0 0 0 0 0 0 0 0 0 0 1 3 1 0 0 0 0 0 0 0 0 0 0 0 0 0 0 0 0 0 0 0 0 0 0 0 0 0 0 0 0 0 0 0 
0 0 0 0 0 0 0 0 0 0 0 0 0 0 0 0 0 0 0 0 0 0 0 0 5 8 11 16 21 29 46 59 77 79 71 65 65 47 53 64 63 75 81 88 103 100 106 103 119 126 110 104 102 95 91 91 99 101 104 105 118 121 110 98 100 101 98 90 94 91 81 66 74 79 87 106 76 48 25 16 14 10 2 0 0 0 0 0 0 0 0 0 0 0 1 3 1 0 0 0 0 0 0 0 0 0 0 0 0 0 0 0 0 0 0 0 0 0 0 0 0 0 0 0 0 0 0 0 
0 0 0 0 0 0 0 0 0 0 0 0 0 0 0 0 0 0 0 0 0 0 0 0 2 5 9 13 18 25 39 52 76 79 73 71 63 49 60 53 68 67 81 97 108 104 99 85 88 111 119 105 99 100 95 89 98 105 109 99 112 103 99 100 102 107 103 80 75 73 66 60 70 89 94 103 77 45 21 15 14 8 1 0 0 0 0 0 0 0 0 0 0 0 1 3 1 0 0 0 0 0 0 0 0 0 0 0 0 0 0 0 0 0 0 0 0 0 0 0 0 0 0 0 0 0 0 0 
0 0 0 0 0 0 0 0 0 0 0 0 0 0 0 0 0 0 0 0 0 0 0 0 0 4 6 12 14 20 34 55 66 73 74 77 62 57 60 47 67 63 87 94 99 98 97 81 75 94 113 103 91 93 94 94 97 101 99 102 113 102 92 94 102 104 95 86 68 70 59 69 72 87 99 86 51 26 18 16 16 8 1 0 0 0 0 0 0 0 0 0 0 0 1 3 1 0 0 0 0 0 0 0 0 0 0 0 0 0 0 0 0 0 0 0 0 0 0 0 0 0 0 0 0 0 0 0 
0 0 0 0 0 0 0 0 0 0 0 0 0 0 0 0 0 0 0 0 0 0 0 0 0 3 5 8 14 17 20 29 40 44 68 81 65 68 57 47 64 66 78 74 87 92 95 79 75 89 111 114 99 90 94 93 93 94 95 98 107 91 86 90 94 91 76 75 72 70 54 77 79 89 91 44 19 18 18 18 16 7 0 0 0 0 0 0 0 0 0 0 0 0 1 3 1 0 0 0 0 0 0 0 0 0 0 0 0 0 0 0 0 0 0 0 0 0 0 0 0 0 0 0 0 0 0 0 
0 0 0 0 0 0 0 0 0 0 0 0 0 0 0 0 0 0 0 0 0 0 0 0 0 0 5 4 11 16 18 20 18 15 31 77 84 73 56 58 65 61 65 71 81 87 92 81 82 91 100 109 101 87 74 76 90 94 100 100 98 91 94 85 87 88 69 68 72 72 64 74 89 100 68 24 16 16 18 18 14 6 0 0 0 0 0 0 0 0 0 0 0 0 1 3 1 0 0 0 0 0 0 0 0 0 0 0 0 0 0 0 0 0 0 0 0 0 0 0 0 0 0 0 0 0 0 0 
0 0 0 0 0 0 0 0 0 0 0 0 0 0 0 0 0 0 0 0 0 0 0 0 0 0 2 5 7 14 17 19 19 16 13 37 77 69 66 64 72 70 63 71 76 86 82 83 94 99 100 108 103 88 76 78 91 100 103 100 94 95 101 81 86 89 73 74 77 80 78 78 85 79 34 20 15 16 18 17 12 6 1 0 0 0 0 0 0 0 0 0 0 0 1 2 1 0 0 0 0 0 0 0 0 0 0 0 0 0 0 0 0 0 0 0 0 0 0 0 0 0 0 0 0 0 0 0 
0 0 0 0 0 0 0 0 0 0 0 0 0 0 0 0 0 0 0 0 0 0 0 0 0 0 0 3 6 10 16 19 18 18 11 12 38 68 76 77 88 76 65 75 84 103 86 82 92 92 102 112 108 93 82 92 99 102 113 108 98 106 102 85 85 100 81 81 82 95 93 87 74 38 22 18 14 16 19 15 11 5 1 0 0 0 0 0 0 0 0 0 0 0 1 2 1 0 0 0 0 0 0 0 0 0 0 0 0 0 0 0 0 0 0 0 0 0 0 0 0 0 0 0 0 0 0 0 
0 0 0 0 0 0 0 0 0 0 0 0 0 0 0 0 0 0 0 0 0 0 0 0 0 0 0 2 5 8 12 18 19 19 11 10 16 34 61 80 92 82 76 78 98 112 84 82 83 90 104 107 105 93 88 101 101 99 107 110 98 103 103 94 87 107 102 92 87 98 91 69 37 26 22 17 14 16 16 14 10 5 1 0 0 0 0 0 0 0 0 0 0 0 1 2 1 0 0 0 0 0 0 0 0 0 0 0 0 0 0 0 0 0 0 0 0 0 0 0 0 0 0 0 0 0 0 0 
0 0 0 0 0 0 0 0 0 0 0 0 0 0 0 0 0 0 0 0 0 0 0 0 0 0 0 1 4 6 9 15 17 19 15 10 14 22 27 47 70 83 85 93 106 113 93 88 93 105 110 106 101 99 97 99 99 96 108 119 112 105 110 97 96 110 109 101 92 82 56 34 28 27 23 17 14 15 15 14 9 5 1 0 0 0 0 0 0 0 0 0 0 0 0 2 0 0 0 0 0 0 0 0 0 0 0 0 0 0 0 0 0 0 0 0 0 0 0 0 0 0 0 0 0 0 0 0 
0 0 0 0 0 0 0 0 0 0 0 0 0 0 0 0 0 0 0 0 0 0 0 0 0 0 0 0 1 7 8 13 16 18 16 11 12 22 26 28 37 60 83 91 105 113 97 96 100 108 115 106 98 99 93 91 91 93 106 115 116 109 108 108 102 111 111 98 79 49 32 28 27 24 21 17 14 14 15 12 9 5 1 0 0 0 0 0 0 0 0 0 0 0 0 2 0 0 0 0 0 0 0 0 0 0 0 0 0 0 0 0 0 0 0 0 0 0 0 0 0 0 0 0 0 0 0 0 
0 0 0 0 0 0 0 0 0 0 0 0 0 0 0 0 0 0 0 0 0 0 0 0 0 0 0 0 0 7 6 10 14 17 16 10 11 20 26 28 31 33 44 62 82 94 98 95 95 102 114 104 91 89 91 91 89 94 108 99 107 118 110 110 106 99 85 65 42 36 29 28 26 22 19 17 13 14 15 12 9 4 1 0 0 0 0 0 0 0 0 0 0 0 1 2 1 0 0 0 0 0 0 0 0 0 0 0 0 0 0 0 0 0 0 0 0 0 0 0 0 0 0 0 0 0 0 0 
0 0 0 0 0 0 0 0 0 0 0 0 0 0 0 0 0 0 0 0 0 0 0 0 0 0 0 0 0 4 6 8 13 16 16 11 10 19 26 27 31 33 31 36 49 69 84 90 89 83 101 97 89 90 99 103 102 101 113 109 110 106 96 97 95 74 60 52 44 35 27 29 25 23 18 15 14 14 15 14 10 3 1 0 0 0 0 0 0 0 0 0 0 0 0 2 0 0 0 0 0 0 0 0 0 0 0 0 0 0 0 0 0 0 0 0 0 0 0 0 0 0 0 0 0 0 0 0 
