P2
128 99
227
0 0 0 0 0 0 0 0 0 0 0 0 0 0 0 0 0 0 0 0 0 0 0 0 0 0 0 0 0 0 0 0 7 9 5 2 6 6 4 0 0 0 0 0 0 0 0 0 0 0 0 0 0 0 0 0 0 0 0 0 0 0 0 0 0 0 0 0 0 0 0 0 0 0 0 0 0 0 0 0 0 0 0 0 0 0 0 0 4 5 5 1 4 8 8 11 0 0 0 0 0 0 0 0 0 0 0 0 0 0 0 0 0 0 0 0 0 0 0 0 0 0 0 0 0 0 0 0 
0 0 0 0 0 0 0 0 0 0 0 0 0 0 0 0 0 0 0 0 0 0 0 0 0 0 0 0 0 0 0 0 6 8 5 2 6 6 4 0 0 0 0 0 0 0 0 0 0 0 0 0 0 0 0 0 0 0 0 0 0 0 0 0 0 0 0 0 0 0 0 0 0 0 0 0 0 0 0 0 0 0 0 0 0 0 0 0 3 6 4 1 5 8 8 10 0 0 0 0 0 0 0 0 0 0 0 0 0 0 0 0 0 0 0 0 0 0 0 0 0 0 0 0 0 0 0 0 
0 0 0 0 0 0 0 0 0 0 0 0 0 0 0 0 0 0 0 0 0 0 0 0 0 0 0 0 0 0 0 0 5 7 4 2 6 6 3 0 0 0 0 0 0 0 0 0 0 0 0 2 2 2 0 0 0 0 0 0 0 0 0 0 0 0 0 0 0 0 0 0 0 0 0 0 0 0 0 0 0 0 0 0 0 0 0 0 3 5 4 1 4 7 8 11 0 0 0 0 0 0 0 0 0 0 0 0 0 0 0 0 0 0 0 0 0 0 0 0 0 0 0 0 0 0 0 0 
0 0 0 0 0 0 0 0 0 0 0 0 0 0 0 0 0 0 0 0 0 0 0 0 0 0 0 0 0 0 0 0 5 6 3 1 5 6 3 0 0 0 0 2 6 10 16 19 19 20 20 22 26 26 23 14 12 12 15 14 4 0 0 0 0 0 0 0 0 0 0 0 0 0 0 0 0 0 0 0 0 0 0 0 0 0 0 0 3 4 4 1 3 8 8 11 0 0 0 0 0 0 0 0 0 0 0 0 0 0 0 0 0 0 0 0 0 0 0 0 0 0 0 0 0 0 0 0 
0 0 0 0 0 0 0 0 0 0 0 0 0 0 0 0 0 0 0 0 0 0 0 0 0 0 0 0 0 0 0 0 4 5 1 0 3 5 3 0 5 12 21 27 25 29 46 69 93 113 127 136 139 136 128 116 102 89 77 58 32 19 18 13 2 0 0 0 0 0 0 0 0 0 0 0 0 0 0 0 0 0 0 0 0 0 0 0 3 4 4 1 3 7 8 10 0 0 0 0 0 0 0 0 0 0 0 0 0 0 0 0 0 0 0 0 0 0 0 0 0 0 0 0 0 0 0 0 
0 0 0 0 0 0 0 0 0 0 0 0 0 0 0 0 0 0 0 0 0 0 0 0 0 0 0 0 0 0 0 0 3 3 0 0 2 4 9 19 29 25 31 58 102 139 154 153 149 153 161 166 166 168 170 170 165 156 146 131 120 106 84 48 21 16 14 1 0 0 0 0 0 0 0 0 0 0 0 0 0 0 0 0 0 0 0 0 3 5 4 1 3 6 8 11 0 0 0 0 0 0 0 0 0 0 0 0 0 0 0 0 0 0 0 0 0 0 0 0 0 0 0 0 0 0 0 0 
0 0 0 0 0 0 0 0 0 0 0 0 0 0 0 0 0 0 0 0 0 0 0 0 0 0 0 0 0 0 0 0 2 2 0 0 8 31 31 21 42 94 145 160 151 148 160 166 165 162 161 163 161 159 161 162 162 161 164 168 167 158 139 121 110 86 50 19 16 3 0 0 0 0 0 0 0 0 0 0 0 0 0 0 0 0 0 0 3 6 4 1 3 7 8 10 0 0 0 0 0 0 0 0 0 0 0 0 0 0 0 0 0 0 0 0 0 0 0 0 0 0 0 0 0 0 0 0 
0 0 0 0 0 0 0 0 0 0 0 0 0 0 0 0 0 0 0 0 0 0 0 0 0 0 0 0 0 0 0 0 2 2 4 30 29 26 55 117 160 156 143 155 170 174 168 165 159 152 156 167 174 168 165 178 184 174 162 156 158 164 173 174 160 136 121 105 64 26 17 2 0 0 0 0 0 0 0 0 0 0 0 0 0 0 0 0 5 6 4 2 4 8 9 11 0 0 0 0 0 0 0 0 0 0 0 0 0 0 0 0 0 0 0 0 0 0 0 0 0 0 0 0 0 0 0 0 
0 0 0 0 0 0 0 0 0 0 0 0 0 0 0 0 0 0 0 0 0 0 0 0 0 0 0 0 0 0 0 0 3 31 27 16 50 128 165 150 141 163 176 178 178 160 147 137 142 158 169 176 178 172 171 181 194 203 198 179 169 160 157 161 169 173 170 147 126 104 53 23 14 0 0 0 0 0 0 0 0 0 0 0 0 0 0 1 4 5 5 2 6 8 9 11 0 0 0 0 0 0 0 0 0 0 0 0 0 0 0 0 0 0 0 0 0 0 0 0 0 0 0 0 0 0 0 0 
0 0 0 0 0 0 0 0 0 0 0 0 0 0 0 0 0 0 0 0 0 0 0 0 0 0 0 0 0 0 0 20 33 20 34 106 165 154 145 164 175 173 168 158 140 138 151 174 182 169 157 154 153 151 152 154 162 178 206 218 214 201 185 171 163 162 166 173 172 145 122 89 39 21 3 0 0 0 0 0 0 0 0 0 0 0 0 0 4 6 5 2 6 8 9 11 0 0 0 0 0 0 0 0 0 0 0 0 0 0 0 0 0 0 0 0 0 0 0 0 0 0 0 0 0 0 0 0 
0 0 0 0 0 0 0 0 0 0 0 0 0 0 0 0 0 0 0 0 0 0 0 0 0 0 0 0 0 6 29 26 26 79 150 160 144 166 181 174 166 154 152 165 174 173 164 142 121 134 153 154 151 148 138 134 128 126 143 167 185 210 218 217 201 184 168 162 163 171 163 136 115 56 26 8 0 0 0 0 0 0 0 0 0 0 0 0 4 6 5 3 6 9 9 11 0 0 0 0 0 0 0 0 0 0 0 0 0 0 0 0 0 0 0 0 0 0 0 0 0 0 0 0 0 0 0 0 
0 0 0 0 0 0 0 0 0 0 0 0 0 0 0 0 0 0 0 0 0 0 0 0 0 0 0 0 18 33 21 43 124 167 147 163 182 178 166 161 167 185 185 164 149 142 130 112 101 98 88 91 92 90 97 95 93 89 92 110 133 156 180 203 218 225 213 188 171 162 159 165 150 125 74 28 11 0 0 0 0 0 0 0 0 0 0 0 4 6 5 2 5 8 9 11 0 0 0 0 0 0 0 0 0 0 0 0 0 0 0 0 0 0 0 0 0 0 0 0 0 0 0 0 0 0 0 0 
0 0 0 0 0 0 0 0 0 0 0 0 0 0 0 0 0 0 0 0 0 0 0 0 0 0 5 21 29 18 70 148 159 153 176 177 171 173 181 193 188 165 149 145 139 119 110 110 111 115 91 95 101 106 129 147 151 143 127 113 101 107 129 148 173 198 210 222 212 187 167 153 157 155 132 82 27 11 0 0 0 0 0 0 0 0 0 1 4 6 5 2 6 9 9 11 0 0 0 0 0 0 0 0 0 0 0 0 0 0 0 0 0 0 0 0 0 0 0 0 0 0 0 0 0 0 0 0 
0 0 0 0 0 0 0 0 0 0 0 0 0 0 0 0 0 0 0 0 0 0 0 0 0 13 20 26 26 97 158 149 161 177 173 169 185 201 190 165 151 148 153 159 156 155 150 139 129 121 111 104 105 112 124 139 144 147 148 143 137 129 120 122 132 141 164 194 215 224 199 172 156 152 159 138 91 27 12 0 0 0 0 0 0 0 0 1 5 6 4 3 6 8 9 12 0 0 0 0 0 0 0 0 0 0 0 0 0 0 0 0 0 0 0 0 0 0 0 0 0 0 0 0 0 0 0 0 
0 0 0 0 0 0 0 0 0 0 0 0 0 0 0 0 0 0 0 0 0 0 0 0 15 18 22 33 109 160 149 165 171 169 176 196 196 178 158 143 144 155 157 152 150 149 135 128 130 134 137 132 131 129 129 134 141 143 142 142 135 128 130 137 138 137 134 133 163 201 220 211 177 161 155 159 141 101 28 11 0 0 0 0 0 0 0 1 5 7 6 3 6 9 9 11 0 0 0 0 0 0 0 0 0 0 0 0 0 0 0 0 0 0 0 0 0 0 0 0 0 0 0 0 0 0 0 0 
0 0 0 0 0 0 0 0 0 0 0 0 0 0 0 0 0 0 0 0 0 0 5 18 14 21 41 110 158 157 166 166 170 179 194 189 177 155 142 146 148 138 138 147 153 148 146 149 156 160 159 157 148 147 150 152 152 155 160 160 156 144 129 123 130 137 143 138 126 142 182 209 214 178 164 156 155 144 117 32 10 0 0 0 0 0 0 1 6 6 5 2 5 9 9 10 0 0 0 0 0 0 0 0 0 0 0 0 0 0 0 0 0 0 0 0 0 0 0 0 0 0 0 0 0 0 0 0 
0 0 0 0 0 0 0 0 0 0 0 0 0 0 0 0 0 0 0 0 0 6 18 11 21 53 112 160 161 165 163 164 164 191 193 180 152 141 141 134 130 143 161 160 146 140 147 152 149 146 150 149 145 145 144 142 145 145 144 142 135 135 140 137 140 128 124 134 143 133 132 159 198 213 179 164 156 146 144 127 36 8 0 0 0 0 0 0 5 6 5 2 6 9 8 11 0 0 0 0 0 0 0 0 0 0 0 0 0 0 0 0 0 0 0 0 0 0 0 0 0 0 0 0 0 0 0 0 
0 0 0 0 0 0 0 0 0 0 0 0 0 0 0 0 0 0 0 0 7 16 9 27 70 121 169 158 165 163 157 148 191 202 176 135 125 123 126 140 157 165 158 133 103 99 102 112 103 98 126 138 132 122 110 111 124 138 145 146 141 136 135 138 138 140 139 120 126 143 134 128 150 189 205 170 160 158 146 145 133 34 7 0 0 0 0 1 5 6 5 2 6 8 9 11 0 0 0 0 0 0 0 0 0 0 0 0 0 0 0 0 0 0 0 0 0 0 0 0 0 0 0 0 0 0 0 0 
0 0 0 0 0 0 0 0 0 0 0 0 0 0 0 0 0 0 0 6 14 12 30 78 121 172 158 163 165 156 142 191 200 167 120 108 113 131 145 153 153 144 127 103 91 89 88 89 90 89 97 100 99 96 90 90 94 103 122 140 149 148 140 135 131 126 131 136 125 125 138 132 124 153 183 197 165 163 168 144 151 120 27 2 0 0 0 1 5 7 6 3 5 8 9 12 0 0 0 0 0 0 0 0 0 0 0 0 0 0 0 0 0 0 0 0 0 0 0 0 0 0 0 0 0 0 0 0 
0 0 0 0 0 0 0 0 0 0 0 0 0 0 0 0 0 0 5 16 13 26 83 120 167 157 160 163 143 146 203 198 161 115 103 115 128 145 147 147 134 107 92 86 87 85 87 90 92 97 94 82 84 95 92 91 91 93 98 103 114 129 144 145 135 127 129 128 135 125 119 133 123 128 153 182 193 164 171 169 136 156 97 16 2 0 0 1 6 7 5 3 6 8 9 12 0 0 0 0 0 0 0 0 0 0 0 0 0 0 0 0 0 0 0 0 0 0 0 0 0 0 0 0 0 0 0 0 
0 0 0 0 0 0 0 0 0 0 0 0 0 0 0 0 0 1 15 9 17 80 116 156 161 145 160 136 144 206 191 152 112 101 104 122 147 148 140 133 103 87 88 81 81 80 79 81 90 91 64 60 63 89 92 89 87 85 81 83 89 87 105 126 142 143 137 134 135 127 115 111 126 119 132 155 187 184 162 169 159 135 149 64 7 0 0 1 5 7 5 3 6 9 9 13 0 0 0 0 0 0 0 0 0 0 0 0 0 0 0 0 0 0 0 0 0 0 0 0 0 0 0 0 0 0 0 0 
0 0 0 0 0 0 0 0 0 0 0 0 0 0 0 0 0 12 10 13 65 115 139 164 141 160 135 136 210 193 149 108 106 113 113 143 151 141 127 98 80 78 78 78 81 82 87 87 84 62 56 55 54 62 84 89 85 84 86 89 90 85 87 93 106 135 150 139 135 140 128 110 111 123 119 144 172 192 167 166 172 149 147 125 36 3 0 1 5 6 4 2 6 10 9 12 0 0 0 0 0 0 0 0 0 0 0 0 0 0 0 0 0 0 0 0 0 0 0 0 0 0 0 0 0 0 0 0 
0 0 0 0 0 0 0 0 0 0 0 0 0 0 0 0 6 11 11 46 109 122 165 144 162 144 124 196 194 146 109 98 96 109 135 152 144 121 95 79 77 80 81 78 74 63 63 63 56 54 57 55 53 53 56 64 72 74 68 56 59 68 75 79 79 92 130 146 137 135 140 114 100 108 124 124 147 180 172 153 170 167 141 148 101 17 0 1 6 7 6 3 6 9 9 12 0 0 0 0 0 0 0 0 0 0 0 0 0 0 0 0 0 0 0 0 0 0 0 0 0 0 0 0 0 0 0 0 
0 0 0 0 0 0 0 0 0 0 0 0 0 0 0 2 10 11 35 101 122 158 154 157 158 118 181 195 144 111 100 89 105 129 151 136 113 91 79 80 74 66 57 54 54 53 56 53 53 55 55 55 54 56 59 60 61 59 58 56 54 55 58 57 59 63 80 123 147 140 139 138 106 99 115 124 125 150 185 142 162 176 160 156 136 69 5 2 6 7 5 3 6 10 9 13 0 0 0 0 0 0 0 0 0 0 0 0 0 0 0 0 0 0 0 0 0 0 0 0 0 0 0 0 0 0 0 0 
0 0 0 0 0 0 0 0 0 0 0 0 0 0 0 10 8 24 80 116 140 169 150 160 127 153 198 158 114 103 93 98 122 153 144 105 95 80 78 60 54 56 57 56 56 55 57 59 58 57 60 60 65 69 76 78 75 73 73 70 68 66 61 55 53 54 60 86 136 144 143 143 132 98 99 118 119 126 167 159 133 171 170 155 141 110 31 1 6 7 5 2 6 9 9 12 0 0 0 0 0 0 0 0 0 0 0 0 0 0 0 0 0 0 0 0 0 0 0 0 0 0 0 0 0 0 0 0 
0 0 0 0 0 0 0 0 0 0 0 0 0 0 5 6 13 72 105 129 158 160 149 136 129 174 170 128 102 110 103 110 147 151 112 94 88 76 59 56 58 64 69 71 66 61 73 77 76 75 76 82 87 91 93 94 94 93 92 88 82 81 75 66 56 52 53 57 93 137 143 145 146 120 91 105 118 126 142 164 126 149 167 155 148 119 71 6 5 6 5 2 7 9 9 12 0 0 0 0 0 0 0 0 0 0 0 0 0 0 0 0 0 0 0 0 0 0 0 0 0 0 0 0 0 0 0 0 
0 0 0 0 0 0 0 0 0 0 0 0 0 0 8 6 56 85 111 138 171 141 129 132 144 164 143 110 104 107 110 141 151 117 98 88 79 69 67 71 76 86 89 91 92 94 97 99 95 93 98 98 99 99 100 102 101 100 100 99 94 92 91 81 67 57 52 51 62 105 135 148 147 140 112 102 112 124 139 149 128 137 151 152 161 127 96 24 5 6 5 2 6 9 9 12 0 0 0 0 0 0 0 0 0 0 0 0 0 0 0 0 0 0 0 0 0 0 0 0 0 0 0 0 0 0 0 0 
0 0 0 0 0 0 0 0 0 0 0 0 0 1 5 21 89 91 127 145 167 116 129 139 143 154 124 105 116 109 133 142 111 101 97 92 90 83 87 89 93 97 98 101 99 100 100 98 100 99 100 96 94 96 95 97 98 98 96 97 97 100 98 95 86 70 56 49 52 63 103 147 155 153 140 114 115 115 145 145 117 135 143 151 167 135 107 48 5 6 5 3 6 8 9 12 0 0 0 0 0 0 0 0 0 0 0 0 0 0 0 0 0 0 0 0 0 0 0 0 0 0 0 0 0 0 0 0 
0 0 0 0 0 0 0 0 0 0 0 0 0 4 3 56 86 115 131 157 149 114 140 138 134 149 125 117 117 123 154 124 94 103 96 98 96 98 96 97 98 100 99 96 94 94 97 97 98 100 101 99 105 103 101 101 97 96 94 95 94 97 99 99 98 89 71 54 51 52 67 117 147 155 154 134 123 113 141 152 102 132 138 152 168 149 112 60 6 7 6 3 6 9 10 12 0 0 0 0 0 0 0 0 0 0 0 0 0 0 0 0 0 0 0 0 0 0 0 0 0 0 0 0 0 0 0 0 
0 0 0 0 0 0 0 0 0 0 0 0 0 5 6 78 86 132 133 166 117 125 147 126 128 143 134 128 121 148 141 97 93 106 100 100 103 101 99 95 95 95 94 89 89 95 107 117 125 132 139 142 150 150 143 140 134 126 117 108 98 94 94 95 99 98 87 66 53 51 55 81 119 147 153 148 135 119 133 163 106 115 129 146 159 162 118 76 12 8 6 4 6 10 11 12 0 0 0 0 0 0 0 0 0 0 0 0 0 0 0 0 0 0 0 0 0 0 0 0 0 0 0 0 0 0 0 0 
0 0 0 0 0 0 0 0 0 0 0 0 0 3 22 90 102 137 137 161 109 139 138 112 134 147 138 130 127 144 110 86 101 111 108 104 101 97 97 94 93 90 91 95 111 132 153 165 171 166 163 158 172 167 152 146 147 160 166 161 146 126 107 97 95 98 100 83 61 52 52 72 97 126 148 154 137 119 125 165 122 94 122 146 156 170 120 88 18 8 6 4 6 10 11 13 0 0 0 0 0 0 0 0 0 0 0 0 0 0 0 0 0 0 0 0 0 0 0 0 0 0 0 0 0 0 0 0 
0 0 0 0 0 0 0 0 0 0 0 0 3 0 46 85 120 134 139 142 114 145 129 101 145 154 133 126 118 112 87 85 109 116 105 103 101 96 91 92 92 96 108 137 164 178 178 169 156 129 117 123 149 117 101 98 100 109 125 156 179 177 154 121 100 95 98 97 80 60 55 72 86 105 138 149 130 120 120 154 132 93 132 145 151 170 121 99 26 8 6 4 7 10 10 13 0 0 0 0 0 0 0 0 0 0 0 0 0 0 0 0 0 0 0 0 0 0 0 0 0 0 0 0 0 0 0 0 
0 0 0 0 0 0 0 0 0 0 0 0 3 3 64 84 129 128 139 132 124 144 116 100 157 154 126 115 89 93 82 97 119 120 102 101 95 89 86 88 97 117 148 170 171 164 145 118 110 98 88 106 104 83 87 87 86 88 89 116 146 178 180 156 119 100 95 100 107 90 61 66 86 90 113 144 128 119 122 149 137 91 133 140 146 174 140 107 30 9 6 4 7 9 10 13 0 0 0 0 0 0 0 0 0 0 0 0 0 0 0 0 0 0 0 0 0 0 0 0 0 0 0 0 0 0 0 0 
0 0 0 0 0 0 0 0 0 0 0 0 3 7 75 92 137 127 140 125 124 140 110 108 163 148 120 99 70 87 85 108 126 120 100 96 93 89 91 95 114 145 168 176 162 137 111 96 88 88 88 104 89 86 86 87 88 87 84 86 110 154 181 175 143 114 100 106 125 116 83 66 82 84 92 135 126 116 127 144 137 93 129 144 145 170 161 114 38 8 6 3 6 10 10 13 0 0 0 0 0 0 0 0 0 0 0 0 0 0 0 0 0 0 0 0 0 0 0 0 0 0 0 0 0 0 0 0 
0 0 0 0 0 0 0 0 0 0 0 0 2 11 79 102 135 112 142 118 129 143 110 119 160 145 116 79 58 84 96 116 128 113 98 97 91 92 96 109 132 147 167 173 152 123 103 85 89 88 88 92 89 88 87 87 89 87 87 87 92 135 166 172 147 116 102 116 127 125 101 77 79 79 79 122 127 116 131 139 132 97 124 148 148 163 175 122 46 9 7 4 7 9 10 14 0 0 0 0 0 0 0 0 0 0 0 0 0 0 0 0 0 0 0 0 0 0 0 0 0 0 0 0 0 0 0 0 
0 0 0 0 0 0 0 0 0 0 0 0 4 16 77 112 135 129 148 117 129 142 116 134 163 146 103 60 55 84 104 120 124 112 103 98 91 98 117 139 149 132 165 172 155 126 99 84 87 88 87 87 89 90 89 88 85 83 86 88 89 132 153 167 166 126 119 132 132 128 118 94 83 82 75 117 126 118 142 148 131 107 114 146 143 158 184 131 54 9 6 4 7 11 10 14 0 0 0 0 0 0 0 0 0 0 0 0 0 0 0 0 0 0 0 0 0 0 0 0 0 0 0 0 0 0 0 0 
0 0 0 0 0 0 0 0 0 0 0 0 4 17 76 119 137 148 155 120 138 151 120 141 168 157 92 51 51 88 114 124 124 115 108 118 119 125 144 153 137 119 145 167 168 141 103 83 86 88 89 86 87 88 84 82 82 81 84 85 94 146 167 169 154 136 126 124 126 128 121 100 83 76 71 108 124 124 147 145 127 118 116 145 135 154 188 139 67 12 6 5 7 10 10 13 0 0 0 0 0 0 0 0 0 0 0 0 0 0 0 0 0 0 0 0 0 0 0 0 0 0 0 0 0 0 0 0 
0 0 0 0 0 0 0 0 0 0 0 0 5 16 73 124 135 157 153 117 132 150 126 140 165 150 93 50 54 90 120 125 127 124 120 127 133 124 116 118 113 109 106 101 112 146 150 99 86 81 85 88 86 85 80 79 76 78 82 80 121 159 128 108 96 84 92 93 102 110 104 83 70 75 67 102 123 137 152 134 121 121 112 137 127 149 186 147 75 12 7 5 6 10 10 13 0 0 0 0 0 0 0 0 0 0 0 0 0 0 0 0 0 0 0 0 0 0 0 0 0 0 0 0 0 0 0 0 
0 0 0 0 0 0 0 0 0 0 0 0 7 16 74 125 138 160 155 117 125 143 131 139 164 150 99 54 59 90 115 123 126 127 113 103 100 95 92 94 95 94 102 103 94 96 134 152 89 78 81 84 83 84 79 72 69 71 76 104 146 111 93 86 83 84 92 93 96 101 97 80 56 63 72 105 136 148 147 123 118 124 111 128 120 152 187 154 83 14 7 5 7 9 10 13 0 0 0 0 0 0 0 0 0 0 0 0 0 0 0 0 0 0 0 0 0 0 0 0 0 0 0 0 0 0 0 0 
0 0 0 0 0 0 0 0 0 0 0 0 8 16 83 128 135 161 155 120 125 140 134 144 162 154 111 75 64 91 119 117 117 112 97 96 96 97 94 91 91 87 83 86 102 105 101 144 118 74 73 78 82 84 75 68 65 66 91 152 117 91 82 85 87 89 92 92 97 100 97 82 57 56 92 127 149 150 150 122 112 120 105 115 116 150 185 159 99 20 7 5 6 10 11 12 0 0 0 0 0 0 0 0 0 0 0 0 0 0 0 0 0 0 0 0 0 0 0 0 0 0 0 0 0 0 0 0 
0 0 0 0 0 0 0 0 0 0 0 0 8 13 88 129 137 156 149 121 126 130 135 139 148 154 125 102 90 99 122 122 118 101 84 87 91 94 92 93 93 91 86 85 88 97 100 117 143 104 99 75 75 93 102 72 58 66 119 133 91 85 84 88 90 93 92 94 100 103 105 102 86 73 95 131 154 146 154 118 110 114 105 105 103 144 182 163 109 28 7 5 6 10 10 13 0 0 0 0 0 0 0 0 0 0 0 0 0 0 0 0 0 0 0 0 0 0 0 0 0 0 0 0 0 0 0 0 
0 0 0 0 0 0 0 0 0 0 0 0 9 14 93 130 141 166 146 120 124 121 136 137 139 134 124 120 116 114 131 136 120 103 92 95 95 93 89 88 87 90 89 86 82 81 98 107 144 145 140 96 90 92 99 92 91 110 144 104 80 85 86 89 93 96 100 108 117 123 120 101 67 63 90 130 152 158 153 115 111 107 106 101 91 147 181 166 115 37 8 6 7 10 11 14 0 0 0 0 0 0 0 0 0 0 0 0 0 0 0 0 0 0 0 0 0 0 0 0 0 0 0 0 0 0 0 0 
0 0 0 0 0 0 0 0 0 0 0 0 11 15 96 126 144 170 147 122 115 117 137 142 127 116 122 127 132 121 127 139 122 110 97 92 95 92 87 83 84 86 86 85 82 79 81 82 118 145 142 109 80 78 92 115 150 148 136 82 78 81 92 104 117 127 127 120 118 116 108 82 55 58 74 125 159 170 153 118 111 91 94 103 84 137 168 169 120 42 8 5 8 12 12 14 0 0 0 0 0 0 0 0 0 0 0 0 0 0 0 0 0 0 0 0 0 0 0 0 0 0 0 0 0 0 0 0 
0 0 0 0 0 0 0 0 0 0 0 0 10 16 98 126 151 179 150 124 108 120 138 132 120 102 120 126 121 109 117 127 111 106 94 90 95 91 88 82 83 85 83 81 79 73 68 68 101 146 127 72 53 72 65 77 132 150 126 71 75 87 110 132 138 127 108 102 108 110 108 86 58 66 69 120 170 182 163 136 114 81 88 106 86 123 154 169 125 50 10 6 7 11 12 15 0 0 0 0 0 0 0 0 0 0 0 0 0 0 0 0 0 0 0 0 0 0 0 0 0 0 0 0 0 0 0 0 
0 0 0 0 0 0 0 0 0 0 0 0 10 15 94 124 153 170 125 99 105 123 132 120 118 95 108 125 99 98 108 126 105 104 93 91 94 92 90 89 85 86 82 74 68 64 57 57 94 142 126 68 68 84 83 74 75 139 114 68 84 116 129 120 109 108 105 104 107 110 105 80 54 59 69 121 175 188 164 148 125 72 75 103 89 117 131 161 128 53 9 6 8 11 12 14 0 0 0 0 0 0 0 0 0 0 0 0 0 0 0 0 0 0 0 0 0 0 0 0 0 0 0 0 0 0 0 0 
0 0 0 0 0 0 0 0 0 0 0 0 10 13 89 121 162 166 79 79 105 127 124 117 119 96 84 119 103 84 101 127 109 105 93 88 88 92 90 91 110 117 100 80 63 59 57 52 84 127 93 73 66 59 64 48 71 130 111 95 114 113 103 92 105 120 113 113 111 108 96 69 50 55 73 129 181 183 154 150 134 67 71 104 95 115 112 163 128 55 9 6 7 11 11 14 0 0 0 0 0 0 0 0 0 0 0 0 0 0 0 0 0 0 0 0 0 0 0 0 0 0 0 0 0 0 0 0 
0 0 0 0 0 0 0 0 0 0 0 0 8 11 86 120 168 160 73 74 107 128 123 118 120 103 97 114 98 68 89 127 118 104 93 92 95 95 92 98 99 96 85 81 90 89 78 70 72 99 82 99 82 74 77 74 81 130 97 90 91 95 95 98 126 125 124 117 110 103 83 58 48 54 79 139 184 175 155 148 136 59 69 101 99 110 110 167 130 53 8 5 8 10 10 13 0 0 0 0 0 0 0 0 0 0 0 0 0 0 0 0 0 0 0 0 0 0 0 0 0 0 0 0 0 0 0 0 
0 0 0 0 0 0 0 0 0 0 0 0 7 13 80 118 171 146 73 70 100 130 122 120 124 117 109 105 98 67 83 125 126 107 92 90 95 93 92 99 111 80 57 55 62 66 78 70 55 62 65 85 49 44 44 39 45 83 67 80 89 94 97 120 126 124 126 120 114 106 79 53 50 54 90 157 190 173 155 147 134 59 71 99 100 106 117 163 120 49 9 4 7 10 11 13 0 0 0 0 0 0 0 0 0 0 0 0 0 0 0 0 0 0 0 0 0 0 0 0 0 0 0 0 0 0 0 0 
0 0 0 0 0 0 0 0 0 0 0 0 6 11 72 122 162 139 73 68 89 127 119 116 123 125 111 99 102 73 75 114 133 113 95 89 93 90 89 90 100 102 72 54 56 57 63 55 44 65 71 70 61 51 47 44 45 62 62 80 85 92 100 123 122 120 127 123 118 102 73 55 52 65 108 165 190 165 153 150 130 59 77 101 99 105 132 159 114 44 8 5 7 9 11 13 0 0 0 0 0 0 0 0 0 0 0 0 0 0 0 0 0 0 0 0 0 0 0 0 0 0 0 0 0 0 0 0 
0 0 0 0 0 0 0 0 0 0 0 0 3 12 63 122 155 142 78 73 78 122 113 107 117 120 105 91 100 78 76 109 135 122 96 93 97 93 93 96 95 101 82 56 53 54 70 40 42 62 100 80 67 65 60 54 47 52 61 79 84 86 85 96 119 123 123 118 109 93 68 60 66 82 120 170 184 151 148 146 121 62 83 104 90 98 147 155 102 37 8 5 6 9 10 13 0 0 0 0 0 0 0 0 0 0 0 0 0 0 0 0 0 0 0 0 0 0 0 0 0 0 0 0 0 0 0 0 
0 0 0 0 0 0 0 0 0 0 0 0 1 11 55 121 145 160 80 73 69 116 115 115 123 117 96 77 96 97 89 106 134 129 103 99 100 97 99 111 108 104 66 45 48 54 57 40 43 66 97 76 71 84 77 60 51 52 73 67 83 83 80 100 116 120 125 116 106 88 71 69 82 94 127 174 172 135 145 148 116 66 96 99 86 95 155 150 91 32 9 5 6 9 10 13 0 0 0 0 0 0 0 0 0 0 0 0 0 0 0 0 0 0 0 0 0 0 0 0 0 0 0 0 0 0 0 0 
0 0 0 0 0 0 0 0 0 8 5 0 0 12 46 119 135 174 91 72 63 102 119 121 122 116 87 68 95 107 96 101 132 137 110 98 93 93 94 97 106 106 75 49 46 69 51 42 43 72 105 79 74 91 86 64 55 53 74 65 91 83 91 115 122 118 122 125 109 90 87 91 90 92 135 171 150 133 131 127 109 79 104 95 82 99 160 133 77 28 8 5 6 10 11 14 0 0 0 0 0 0 0 0 0 0 0 0 0 0 0 0 0 0 0 0 0 0 0 0 0 0 0 0 0 0 0 0 
0 0 0 0 0 0 0 0 0 0 4 2 0 12 36 113 128 169 106 75 60 84 122 125 119 116 93 65 93 107 106 102 115 125 117 93 93 96 94 95 102 90 86 47 48 52 48 48 47 81 109 75 73 94 92 80 69 65 70 70 88 97 98 118 123 128 136 133 121 91 71 77 92 89 113 148 137 137 125 97 105 96 101 87 73 108 156 111 68 23 8 5 5 9 10 13 0 0 0 0 0 0 0 0 0 0 0 0 0 0 0 0 0 0 0 0 0 0 0 0 0 0 0 0 0 0 0 0 
0 0 0 0 0 0 0 0 0 0 1 5 0 10 31 103 124 156 121 74 59 63 116 134 131 123 103 62 79 108 127 121 113 118 122 110 105 111 107 103 98 91 73 49 73 86 85 67 58 82 98 76 82 96 102 79 71 66 66 74 93 104 108 133 143 139 140 134 113 82 65 69 64 74 87 135 134 142 112 79 120 117 91 81 64 136 143 102 60 18 8 3 6 10 11 13 0 0 0 0 0 0 0 0 0 0 0 0 0 0 0 0 0 0 0 0 0 0 0 0 0 0 0 0 0 0 0 0 
0 0 0 0 0 0 0 0 0 0 0 6 0 10 26 88 125 141 138 81 71 56 97 124 137 127 112 64 68 97 139 159 158 137 126 121 119 112 114 110 104 101 82 105 80 46 43 70 71 91 83 76 77 96 105 88 79 65 70 94 100 92 105 148 170 189 211 198 170 145 122 100 116 138 152 165 149 135 94 83 130 131 87 81 80 169 130 82 60 15 7 5 6 16 16 12 0 0 0 0 0 0 0 0 0 0 0 0 0 0 0 0 0 0 0 0 0 0 0 0 0 0 0 0 0 0 0 0 
0 0 0 0 0 0 0 0 0 0 0 6 3 7 23 77 121 130 144 106 74 59 72 115 140 146 130 74 61 93 152 185 188 179 153 126 114 108 110 119 124 114 96 76 59 57 50 62 96 83 79 77 79 89 100 88 95 90 83 96 94 102 119 146 148 147 176 184 176 187 194 187 164 123 152 197 191 135 81 78 135 127 85 78 106 155 97 80 60 12 7 4 8 9 10 13 0 0 0 0 0 0 0 0 0 0 0 0 0 0 0 0 0 0 0 0 0 0 0 0 0 0 0 0 0 0 0 0 
0 0 0 0 0 0 0 0 0 0 0 3 8 10 21 67 107 123 148 128 81 67 54 90 136 173 147 96 59 84 154 162 142 140 137 140 147 130 122 120 96 79 65 51 68 66 70 92 130 97 80 74 89 93 104 87 87 89 97 113 94 109 141 162 165 148 128 131 112 131 155 163 124 110 163 186 178 125 73 79 139 125 95 92 155 130 76 75 58 11 8 6 7 9 10 13 0 0 0 0 0 0 0 0 0 0 0 0 0 0 0 0 0 0 0 0 0 0 0 0 0 0 0 0 0 0 0 0 
0 0 0 0 0 0 0 0 0 0 0 2 10 11 15 59 96 124 139 136 87 70 55 71 128 170 152 118 71 58 133 160 146 143 142 155 156 146 144 146 112 71 65 64 77 68 71 83 101 109 93 103 103 111 114 79 90 90 126 114 90 123 154 163 175 186 151 113 75 103 118 125 129 154 189 190 152 111 100 98 137 134 119 133 184 134 68 85 55 9 8 6 6 10 11 14 0 0 0 0 0 0 0 0 0 0 0 0 0 0 0 0 0 0 0 0 0 0 0 0 0 0 0 0 0 0 0 0 
0 0 0 0 0 0 0 0 0 0 0 1 11 12 14 46 88 126 133 144 98 83 66 67 113 162 169 155 109 48 134 197 203 198 201 177 143 123 122 119 94 82 77 76 73 75 78 98 91 84 92 99 122 132 90 84 91 103 145 99 88 117 158 165 174 185 192 188 180 151 138 138 151 162 163 174 111 109 135 150 164 174 145 150 177 129 73 84 42 12 11 6 5 10 11 15 0 0 0 0 0 0 0 0 0 0 0 0 0 0 0 0 0 0 0 0 0 0 0 0 0 0 0 0 0 0 0 0 
0 0 0 0 0 0 0 0 0 0 0 3 12 14 13 32 80 119 128 155 126 132 90 106 113 131 156 144 128 90 156 195 182 182 164 116 109 98 102 102 113 113 93 81 80 86 103 124 89 69 73 85 132 137 89 85 85 106 123 119 98 130 148 143 142 143 147 161 188 163 135 137 155 160 167 135 93 94 117 146 150 172 171 172 137 105 79 73 25 14 11 4 5 9 11 15 0 0 0 0 0 0 0 0 0 0 0 0 0 0 0 0 0 0 0 0 0 0 0 0 0 0 0 0 0 0 0 0 
0 0 0 0 0 0 0 0 0 0 0 2 11 11 16 18 50 91 107 125 158 150 152 135 130 134 127 146 139 125 148 187 174 135 172 151 118 130 130 123 124 133 125 93 81 84 110 127 115 91 79 68 100 140 112 86 88 98 99 113 132 121 134 143 120 107 111 126 137 109 81 107 154 162 162 136 109 93 97 98 94 145 168 151 136 105 60 73 29 19 13 8 5 9 12 17 0 0 0 0 0 0 0 0 0 0 0 0 0 0 0 0 0 0 0 0 0 0 0 0 0 0 0 0 0 0 0 0 
0 0 0 0 0 0 0 0 0 0 0 4 8 9 13 15 31 81 119 121 162 167 162 122 115 147 141 118 138 156 162 160 164 155 188 188 174 188 179 167 159 159 159 123 98 103 97 112 121 104 85 79 104 126 117 97 98 94 88 92 136 131 123 123 106 80 94 109 111 91 73 111 149 153 133 80 82 99 107 112 113 151 143 134 153 103 69 61 23 17 13 11 5 10 12 17 0 0 0 0 0 0 0 0 0 0 0 0 0 0 0 0 0 0 0 0 0 0 0 0 0 0 0 0 0 0 0 0 
0 0 0 0 0 0 0 0 0 0 0 4 5 4 11 11 22 71 113 101 128 185 180 144 137 146 136 99 133 155 158 144 146 192 202 188 176 162 146 146 159 163 156 133 117 113 108 105 106 112 111 100 114 146 127 115 92 87 93 119 141 141 141 124 63 52 99 119 102 90 103 133 174 183 131 78 81 105 111 113 104 135 121 130 132 127 84 36 20 19 16 14 6 9 12 18 0 0 0 0 0 0 0 0 0 0 0 0 0 0 0 0 0 0 0 0 0 0 0 0 0 0 0 0 0 0 0 0 
0 0 0 0 0 0 0 0 0 0 0 3 6 4 7 10 16 51 99 87 98 174 188 165 127 129 134 121 118 166 166 148 157 173 156 145 148 147 125 92 114 128 135 130 120 137 131 104 94 105 114 122 115 113 142 126 104 100 110 110 114 111 109 145 134 78 67 100 97 96 145 177 184 149 136 146 124 86 114 107 92 108 125 131 127 112 55 13 18 19 18 11 11 8 12 18 0 0 0 0 0 0 0 0 0 0 0 0 0 0 0 0 0 0 0 0 0 0 0 0 0 0 0 0 0 0 0 0 
0 0 0 0 0 0 0 0 0 0 0 0 5 7 6 7 8 29 93 101 93 148 151 155 133 124 124 111 116 158 171 160 151 162 161 158 156 160 155 83 58 89 117 117 105 104 118 98 90 92 101 109 100 94 130 120 91 82 96 95 68 81 80 125 147 87 62 86 119 130 146 167 158 109 137 168 157 142 154 163 148 108 103 132 127 88 27 6 5 6 10 11 12 8 13 18 0 0 0 0 0 0 0 0 0 0 0 0 0 0 0 0 0 0 0 0 0 0 0 0 0 0 0 0 0 0 0 0 
0 0 0 0 0 0 0 0 0 0 0 0 0 1 4 6 8 17 74 85 95 131 150 150 145 119 121 105 113 146 148 138 145 157 165 148 137 156 146 93 63 105 113 76 63 65 86 81 69 103 133 135 96 70 109 106 82 52 58 84 64 91 90 112 127 112 74 101 136 147 137 112 107 109 164 178 166 176 204 170 140 95 115 138 119 66 13 6 2 6 9 13 13 8 12 18 0 0 0 0 0 0 0 0 0 0 0 0 0 0 0 0 0 0 0 0 0 0 0 0 0 0 0 0 0 0 0 0 
0 0 0 0 0 0 0 0 0 0 0 0 0 0 0 1 7 11 48 77 93 114 153 144 172 148 141 122 131 160 136 89 114 152 146 132 126 92 63 82 101 123 81 62 69 73 100 120 132 142 129 122 132 125 104 93 94 114 113 142 135 127 100 125 149 144 118 132 140 130 90 67 76 109 161 176 176 200 219 199 155 142 143 141 94 41 5 7 3 7 8 8 6 7 12 18 0 0 0 0 0 0 0 0 0 0 0 0 0 0 0 0 0 0 0 0 0 0 0 0 0 0 0 0 0 0 0 0 
0 0 0 0 0 0 0 0 0 0 0 0 0 0 0 0 7 4 30 79 71 92 121 123 179 186 155 147 171 168 137 75 69 112 145 147 147 126 91 81 109 129 81 110 142 162 159 136 134 128 113 112 122 157 171 170 180 165 142 154 179 161 151 152 159 175 180 153 127 106 66 65 75 85 114 174 189 225 223 200 171 151 146 95 61 21 5 6 2 6 8 7 5 7 12 18 0 0 0 0 0 0 0 0 0 0 0 0 0 0 0 0 0 0 0 0 0 0 0 0 0 0 0 0 0 0 0 0 
0 0 0 0 0 0 0 0 0 0 0 0 0 0 0 2 7 4 13 64 73 91 111 134 192 184 171 171 185 172 138 94 78 90 126 147 150 144 142 148 164 155 145 141 131 147 140 115 105 82 94 111 109 100 91 106 116 136 133 143 158 150 166 175 157 146 167 167 132 89 77 84 83 84 97 139 186 227 219 202 132 104 86 26 51 11 5 6 2 5 8 7 5 6 12 18 0 0 0 0 0 0 0 0 0 0 0 0 0 0 0 0 0 0 0 0 0 0 0 0 0 0 0 0 0 0 0 0 
0 0 0 0 0 0 0 0 0 0 2 5 1 0 0 3 7 6 6 45 56 51 100 124 163 174 159 183 189 194 150 108 90 95 106 130 138 152 156 153 146 144 154 148 133 122 115 132 130 120 127 151 136 118 105 104 109 129 127 150 164 168 167 157 154 148 137 166 151 115 91 80 78 101 130 135 158 205 205 183 113 96 52 34 63 6 3 5 4 4 7 7 5 8 12 18 0 0 0 0 0 0 0 0 0 0 0 0 0 0 0 0 0 0 0 0 0 0 0 0 0 0 0 0 0 0 0 0 
0 0 0 0 0 0 0 0 0 0 3 7 15 17 7 6 7 8 9 32 67 52 70 108 123 136 145 171 176 184 165 134 100 104 91 96 92 94 109 130 138 135 142 157 146 127 133 152 158 144 132 159 156 135 121 122 117 124 122 154 161 146 131 136 114 141 146 185 166 109 80 81 94 121 150 135 138 162 159 159 122 69 32 44 62 10 3 1 5 3 7 8 5 7 12 19 0 0 0 0 0 0 0 0 0 0 0 0 0 0 0 0 0 0 0 0 0 0 0 0 0 0 0 0 0 0 0 0 
0 0 0 0 0 0 0 0 0 0 0 4 12 16 17 6 0 9 11 20 58 52 49 117 125 122 109 143 170 149 131 133 112 115 112 112 110 98 96 108 105 95 95 114 133 133 145 156 153 147 140 132 130 140 130 115 99 78 73 114 132 117 108 127 118 143 177 209 174 117 95 95 104 117 151 132 159 143 115 104 104 44 58 82 44 14 2 0 2 7 8 8 4 7 12 19 0 0 0 0 0 0 0 0 0 0 0 0 0 0 0 0 0 0 0 0 0 0 0 0 0 0 0 0 0 0 0 0 
0 0 0 0 0 0 0 0 0 0 0 3 11 12 9 10 5 11 18 14 28 66 82 134 93 124 105 130 166 164 111 81 108 116 113 118 110 115 130 127 110 87 91 94 90 111 126 126 131 150 148 137 144 138 125 98 89 92 84 109 134 134 132 147 143 152 194 216 172 133 99 75 66 120 151 144 183 135 102 58 73 39 42 62 16 16 6 0 0 8 11 15 12 8 12 18 0 0 0 0 0 0 0 0 0 0 0 0 0 0 0 0 0 0 0 0 0 0 0 0 0 0 0 0 0 0 0 0 
0 0 0 0 0 0 0 0 0 0 0 3 8 13 9 8 8 10 17 15 17 35 85 136 135 129 108 144 148 168 149 84 78 102 67 75 90 102 123 138 143 123 125 126 113 117 130 134 144 156 166 165 163 159 130 111 111 108 95 99 132 162 165 165 149 156 214 215 163 110 107 105 121 162 143 135 163 91 78 48 65 52 73 33 8 13 13 7 7 17 23 22 19 14 16 18 0 0 0 0 0 0 0 0 0 0 0 0 0 0 0 0 0 0 0 0 0 0 0 0 0 0 0 0 0 0 0 0 
0 0 0 0 0 0 0 0 0 0 0 0 5 16 8 9 8 7 10 13 20 27 52 118 153 151 156 138 115 159 162 133 115 122 87 65 73 97 121 153 171 181 187 169 132 144 147 137 143 176 181 164 167 179 180 161 128 105 103 116 137 131 143 155 142 136 175 184 167 74 105 153 160 144 96 58 99 96 86 51 71 67 38 12 1 2 0 7 9 15 12 12 9 12 9 17 0 0 0 0 0 0 0 0 0 0 0 0 0 0 0 0 0 0 0 0 0 0 0 0 0 0 0 0 0 0 0 0 
0 0 0 0 0 0 0 0 0 0 0 0 2 5 9 9 6 3 5 13 19 31 27 58 96 120 138 104 78 127 140 126 140 159 135 96 98 125 128 120 154 185 193 177 160 182 196 190 187 185 166 178 184 181 185 180 163 141 141 141 162 178 189 185 212 177 164 145 61 134 137 133 98 46 29 24 71 71 86 56 39 25 18 9 4 4 0 0 6 11 9 21 12 6 8 17 0 0 0 0 0 0 0 0 0 0 0 0 0 0 0 0 0 0 0 0 0 0 0 0 0 0 0 0 0 0 0 0 
0 0 0 0 0 0 0 0 0 0 0 0 0 0 4 6 5 0 0 10 18 25 21 23 57 82 84 39 44 90 130 124 144 151 150 120 123 179 211 196 161 171 227 180 169 191 207 156 154 169 150 156 165 138 155 188 171 145 180 163 139 141 188 178 156 179 137 200 125 112 88 74 72 50 63 90 112 78 58 46 28 26 32 20 26 0 0 0 5 8 13 18 11 6 8 18 0 0 0 0 0 0 0 0 0 0 0 0 0 0 0 0 0 0 0 0 0 0 0 0 0 0 0 0 0 0 0 0 
0 0 0 0 0 0 0 0 0 0 0 0 0 0 0 8 10 7 4 3 6 6 18 19 30 34 30 26 29 68 98 67 65 102 119 110 104 101 100 103 128 133 170 140 101 118 113 61 49 73 92 105 115 103 106 111 96 73 59 52 70 96 76 178 154 148 182 168 78 76 83 123 90 43 37 79 124 77 40 24 24 29 26 1 1 2 9 10 4 5 5 10 8 6 11 18 0 0 0 0 0 0 0 0 0 0 0 0 0 0 0 0 0 0 0 0 0 0 0 0 0 0 0 0 0 0 0 0 
0 0 0 0 0 0 0 0 0 0 0 0 0 0 0 0 4 8 8 0 2 5 10 16 25 25 22 23 26 61 96 63 58 74 77 68 67 77 100 113 136 111 68 67 83 120 74 45 59 75 70 62 77 77 88 84 72 72 60 49 101 104 58 61 64 96 80 90 116 106 85 121 103 41 37 82 124 76 38 24 28 31 22 1 1 3 6 0 0 1 3 5 5 5 11 17 0 0 0 0 0 0 0 0 0 0 0 0 0 0 0 0 0 0 0 0 0 0 0 0 0 0 0 0 0 0 0 0 
0 0 0 0 0 0 0 0 0 0 0 0 0 0 0 0 0 0 0 0 1 3 7 18 22 26 19 16 20 52 94 53 57 81 88 62 68 101 98 137 148 172 94 80 88 126 111 83 79 60 66 72 74 87 83 60 47 48 61 77 96 86 68 63 63 115 92 119 73 125 121 163 131 47 43 66 108 63 26 22 27 29 21 7 5 0 0 0 0 0 1 2 2 3 8 14 0 0 0 0 0 0 0 0 0 0 0 0 0 0 0 0 0 0 0 0 0 0 0 0 0 0 0 0 0 0 0 0 
0 0 0 0 0 0 0 0 0 0 0 0 0 0 0 0 0 0 0 0 0 1 2 16 14 16 18 18 19 30 82 36 51 86 118 123 133 68 97 157 141 187 179 111 107 124 127 95 86 87 86 60 42 35 41 58 60 49 61 84 108 127 71 86 132 145 59 76 101 117 161 183 160 150 129 74 85 56 28 24 19 11 1 2 0 0 0 0 0 0 0 0 0 0 3 9 0 0 0 0 0 0 0 0 0 0 0 0 0 0 0 0 0 0 0 0 0 0 0 0 0 0 0 0 0 0 0 0 
0 0 0 0 0 0 0 0 0 0 0 0 0 0 0 0 0 0 0 0 0 0 0 6 10 3 13 25 22 13 37 38 49 75 103 105 110 91 114 151 168 225 214 164 143 127 170 158 184 136 110 109 99 102 87 87 81 74 81 108 134 160 139 99 108 121 132 55 146 180 196 217 206 174 133 81 96 39 8 6 6 3 0 0 0 0 0 0 0 0 0 3 1 0 4 6 0 0 0 0 0 0 0 0 0 0 0 0 0 0 0 0 0 0 0 0 0 0 0 0 0 0 0 0 0 0 0 0 
0 0 0 0 0 0 0 0 0 0 0 0 0 0 0 0 0 0 0 0 0 0 0 1 10 10 24 31 16 21 42 52 29 66 90 68 74 88 68 78 137 139 105 95 110 119 137 123 122 154 141 137 150 143 145 129 137 130 125 126 122 121 100 110 129 92 89 98 147 175 163 120 111 95 66 55 89 43 20 20 13 5 5 1 0 0 0 0 6 10 9 16 16 26 31 26 0 0 0 0 0 0 0 0 0 0 0 0 0 0 0 0 0 0 0 0 0 0 0 0 0 0 0 0 0 0 0 0 
0 0 0 0 0 0 0 0 0 0 0 0 0 0 0 0 0 0 0 0 0 0 0 2 17 13 26 24 16 22 45 88 31 65 59 41 49 37 105 111 112 116 116 119 120 98 85 101 131 157 118 87 129 113 110 99 113 118 133 150 125 110 89 62 61 62 77 70 67 57 55 43 75 80 32 69 102 45 21 24 16 8 2 0 0 0 0 0 0 1 4 9 8 10 19 22 0 0 0 0 0 0 0 0 0 0 0 0 0 0 0 0 0 0 0 0 0 0 0 0 0 0 0 0 0 0 0 0 
0 0 0 0 0 0 0 0 0 0 0 0 0 0 0 0 0 0 0 0 0 0 0 2 13 13 22 24 23 24 42 101 53 79 57 63 73 65 74 102 103 94 109 124 120 97 104 95 119 121 88 63 108 99 102 112 122 119 115 108 77 75 84 88 57 58 85 86 77 81 76 47 52 78 41 62 103 47 28 22 17 15 4 0 0 0 0 0 0 0 5 8 9 10 19 21 0 0 0 0 0 0 0 0 0 0 0 0 0 0 0 0 0 0 0 0 0 0 0 0 0 0 0 0 0 0 0 0 
0 0 0 0 0 0 0 0 0 0 0 0 0 0 0 0 0 0 0 0 0 0 0 1 7 14 17 22 24 26 35 101 71 83 68 87 69 68 58 74 66 58 77 111 113 84 76 99 117 96 61 53 87 91 90 87 87 81 87 78 55 77 120 115 114 90 98 94 89 76 71 73 86 116 57 58 96 37 29 19 13 15 3 0 0 0 0 0 0 0 4 7 9 10 20 21 0 0 0 0 0 0 0 0 0 0 0 0 0 0 0 0 0 0 0 0 0 0 0 0 0 0 0 0 0 0 0 0 
0 0 0 0 0 0 0 0 0 0 0 0 0 0 0 0 0 0 0 0 0 0 0 0 4 13 14 21 23 26 31 102 79 82 76 83 43 45 43 46 53 52 74 118 94 80 85 87 117 80 44 44 58 79 73 56 56 55 58 58 39 90 112 87 112 128 115 95 100 89 69 56 59 126 97 57 98 33 28 16 12 13 1 0 0 0 0 0 0 0 4 7 9 9 19 20 0 0 0 0 0 0 0 0 0 0 0 0 0 0 0 0 0 0 0 0 0 0 0 0 0 0 0 0 0 0 0 0 
0 0 0 0 0 0 0 0 0 0 0 0 0 0 0 0 0 0 0 0 0 0 0 0 0 11 11 17 24 28 28 97 78 78 74 76 39 39 43 46 49 55 97 128 81 83 99 109 122 91 43 43 68 76 65 51 49 49 46 48 48 83 113 77 81 113 144 105 85 93 75 52 44 110 127 64 108 38 26 14 12 10 0 0 0 0 0 0 0 0 5 8 10 11 20 20 0 0 0 0 0 0 0 0 0 0 0 0 0 0 0 0 0 0 0 0 0 0 0 0 0 0 0 0 0 0 0 0 
0 0 0 0 0 0 0 0 0 0 0 0 0 0 0 0 0 0 0 0 0 0 0 0 0 5 12 8 21 26 30 91 88 70 61 73 39 36 48 49 51 83 135 142 110 95 86 74 94 107 49 52 64 63 67 59 48 47 47 43 57 82 119 70 65 98 165 127 81 74 64 40 34 91 126 72 101 37 24 15 13 8 0 0 0 0 0 0 0 0 3 8 10 11 20 20 0 0 0 0 0 0 0 0 0 0 0 0 0 0 0 0 0 0 0 0 0 0 0 0 0 0 0 0 0 0 0 0 
0 0 0 0 0 0 0 0 0 0 0 0 0 0 0 0 0 0 0 0 0 0 0 0 0 0 10 9 13 22 31 75 86 60 48 71 34 31 46 50 57 90 126 161 129 91 69 49 85 112 61 61 61 61 65 69 57 55 46 46 64 104 112 77 81 104 159 122 97 67 52 40 37 75 93 82 56 28 20 18 16 9 0 0 0 0 0 0 0 0 2 7 11 13 23 20 0 0 0 0 0 0 0 0 0 0 0 0 0 0 0 0 0 0 0 0 0 0 0 0 0 0 0 0 0 0 0 0 
0 0 0 0 0 0 0 0 0 0 0 0 0 0 0 0 0 0 0 0 0 0 0 0 0 0 6 10 12 17 24 44 77 40 28 68 39 25 37 48 58 66 79 112 101 76 66 55 84 109 78 68 76 75 75 70 73 60 32 38 73 106 108 97 96 98 111 73 83 68 45 33 39 74 60 19 14 23 19 21 18 9 0 0 0 0 0 0 0 0 2 5 10 12 21 20 0 0 0 0 0 0 0 0 0 0 0 0 0 0 0 0 0 0 0 0 0 0 0 0 0 0 0 0 0 0 0 0 
0 0 0 0 0 0 0 0 0 0 0 0 0 0 0 0 0 0 0 0 0 0 0 0 0 0 4 8 9 19 18 21 20 25 13 64 52 27 29 48 71 59 61 102 75 51 54 50 81 109 93 59 54 62 50 46 63 49 30 43 80 106 133 104 83 90 98 92 79 81 45 36 45 80 55 27 16 19 18 21 16 10 0 0 0 0 0 0 0 0 1 6 9 12 21 20 0 0 0 0 0 0 0 0 0 0 0 0 0 0 0 0 0 0 0 0 0 0 0 0 0 0 0 0 0 0 0 0 
0 0 0 0 0 0 0 0 0 0 0 0 0 0 0 0 0 0 0 0 0 0 0 0 0 0 0 10 8 12 19 19 21 30 7 40 82 56 44 68 83 51 64 124 98 55 54 59 95 135 111 69 44 45 48 44 57 62 38 47 83 111 144 101 81 83 133 134 71 88 76 58 73 83 32 24 13 18 18 19 16 10 2 0 0 0 0 0 0 0 1 5 9 11 19 18 0 0 0 0 0 0 0 0 0 0 0 0 0 0 0 0 0 0 0 0 0 0 0 0 0 0 0 0 0 0 0 0 
0 0 0 0 0 0 0 0 0 0 0 0 0 0 0 0 0 0 0 0 0 0 0 0 0 0 0 0 11 7 17 17 20 32 16 11 50 84 83 87 67 44 75 139 112 65 63 66 104 134 120 79 55 45 49 53 64 60 57 53 73 115 144 93 60 73 147 158 73 68 98 95 83 44 21 18 14 19 19 18 16 12 4 0 0 0 0 0 0 0 0 4 8 11 20 18 0 0 0 0 0 0 0 0 0 0 0 0 0 0 0 0 0 0 0 0 0 0 0 0 0 0 0 0 0 0 0 0 
0 0 0 0 0 0 0 0 0 0 0 0 0 0 0 0 0 0 0 0 0 0 0 0 0 0 0 0 5 9 12 17 17 31 17 7 7 26 50 49 35 40 78 152 142 79 60 86 104 105 119 94 62 54 56 70 64 56 55 62 58 101 140 116 71 80 158 171 86 42 59 57 28 16 11 14 15 22 17 15 15 12 3 0 0 0 0 0 0 0 1 4 8 11 19 18 0 0 0 0 0 0 0 0 0 0 0 0 0 0 0 0 0 0 0 0 0 0 0 0 0 0 0 0 0 0 0 0 
0 0 0 0 0 0 0 0 0 0 0 0 0 0 0 0 0 0 0 0 0 0 0 0 0 0 0 0 0 8 9 14 18 28 18 8 8 19 19 24 30 40 79 153 154 115 92 115 101 96 107 91 71 61 78 85 64 57 52 61 47 71 131 133 114 118 170 166 85 42 36 29 19 15 15 16 17 17 13 14 14 11 3 0 0 0 0 0 0 0 0 4 9 12 18 18 0 0 0 0 0 0 0 0 0 0 0 0 0 0 0 0 0 0 0 0 0 0 0 0 0 0 0 0 0 0 0 0 
0 0 0 0 0 0 0 0 0 0 0 0 0 0 0 0 0 0 0 0 0 0 0 0 0 0 0 0 0 6 7 12 17 28 16 11 9 24 23 20 34 45 62 121 175 155 143 133 90 80 96 84 73 76 92 97 72 59 57 53 38 51 106 137 159 161 175 130 63 50 37 26 16 16 21 18 14 15 13 14 15 10 2 0 0 0 0 0 0 0 0 4 8 11 17 17 0 0 0 0 0 0 0 0 0 0 0 0 0 0 0 0 0 0 0 0 0 0 0 0 0 0 0 0 0 0 0 0 
0 0 0 0 0 0 0 0 0 0 0 0 0 0 0 0 0 0 0 0 0 0 0 0 0 0 0 0 0 6 6 10 14 30 17 15 10 20 26 24 33 39 53 69 127 165 156 140 78 50 61 71 71 66 76 82 82 66 72 51 48 45 81 132 176 178 142 79 55 52 31 17 16 19 18 13 15 13 14 13 14 7 2 0 0 0 0 0 0 0 1 5 9 12 19 18 0 0 0 0 0 0 0 0 0 0 0 0 0 0 0 0 0 0 0 0 0 0 0 0 0 0 0 0 0 0 0 0 
0 0 0 0 0 0 0 0 0 0 0 0 0 0 0 0 0 0 0 0 0 0 0 0 0 0 0 0 0 5 5 10 13 28 16 14 13 13 27 23 33 33 36 34 41 91 130 107 59 41 56 69 71 69 87 108 115 97 97 73 74 59 54 109 150 119 80 75 61 48 20 17 19 23 17 12 15 14 14 13 14 6 2 0 0 0 0 0 0 0 0 2 7 12 18 17 0 0 0 0 0 0 0 0 0 0 0 0 0 0 0 0 0 0 0 0 0 0 0 0 0 0 0 0 0 0 0 0 
