P2
128 99
206
0 0 0 0 0 0 0 0 0 0 0 0 0 0 0 0 0 0 0 0 0 0 0 0 0 0 0 0 0 0 0 1 1 2 1 0 0 0 0 0 0 0 0 0 0 0 0 0 0 0 0 0 0 0 0 0 0 0 0 0 0 0 0 0 0 0 0 0 0 0 0 0 0 0 0 0 0 0 0 0 0 0 0 0 0 0 0 0 0 0 0 0 1 1 1 3 3 0 0 0 0 0 0 0 0 0 0 0 0 0 0 0 0 0 0 0 0 0 0 0 0 0 0 0 0 0 0 0 
0 0 0 0 0 0 0 0 0 0 0 0 0 0 0 0 0 0 0 0 0 0 0 0 0 0 0 0 0 0 0 1 1 1 1 0 0 0 0 0 0 0 0 0 0 0 0 0 0 0 0 0 0 0 0 0 0 0 0 0 0 0 0 0 0 0 0 0 0 0 0 0 0 0 0 0 0 0 0 0 0 0 0 0 0 0 0 0 0 0 0 0 1 1 1 3 3 0 0 0 0 0 0 0 0 0 0 0 0 0 0 0 0 0 0 0 0 0 0 0 0 0 0 0 0 0 0 0 
0 0 0 0 0 0 0 0 0 0 0 0 0 0 0 0 0 0 0 0 0 0 0 0 0 0 0 0 0 0 0 0 1 1 1 0 0 0 0 0 0 0 0 0 0 0 0 0 0 0 1 2 2 2 1 0 0 0 0 0 0 0 0 0 0 0 0 0 0 0 0 0 0 0 0 0 0 0 0 0 0 0 0 0 0 0 0 0 0 0 0 0 1 1 1 3 3 0 0 0 0 0 0 0 0 0 0 0 0 0 0 0 0 0 0 0 0 0 0 0 0 0 0 0 0 0 0 0 
0 0 0 0 0 0 0 0 0 0 0 0 0 0 0 0 0 0 0 0 0 0 0 0 0 0 0 0 0 0 0 0 1 1 1 0 0 0 0 0 0 0 0 1 6 14 17 16 17 18 20 24 29 28 24 21 18 15 15 12 4 0 0 0 0 0 0 0 0 0 0 0 0 0 0 0 0 0 0 0 0 0 0 0 0 0 0 0 0 0 0 0 1 1 1 3 3 0 0 0 0 0 0 0 0 0 0 0 0 0 0 0 0 0 0 0 0 0 0 0 0 0 0 0 0 0 0 0 
0 0 0 0 0 0 0 0 0 0 0 0 0 0 0 0 0 0 0 0 0 0 0 0 0 0 0 0 0 0 0 0 1 1 0 0 0 0 0 0 5 13 19 22 24 33 52 77 99 118 134 144 147 147 144 135 121 102 79 54 33 21 17 10 2 0 0 0 0 0 0 0 0 0 0 0 0 0 0 0 0 0 0 0 0 0 0 0 0 0 0 0 1 1 1 2 3 0 0 0 0 0 0 0 0 0 0 0 0 0 0 0 0 0 0 0 0 0 0 0 0 0 0 0 0 0 0 0 
0 0 0 0 0 0 0 0 0 0 0 0 0 0 0 0 0 0 0 0 0 0 0 0 0 0 0 0 0 0 0 0 0 0 0 0 0 1 9 16 23 25 35 66 109 144 164 173 177 178 181 181 180 181 182 182 181 176 170 160 143 115 78 42 23 16 10 2 0 0 0 0 0 0 0 0 0 0 0 0 0 0 0 0 0 0 0 0 0 0 0 0 1 1 1 3 3 0 0 0 0 0 0 0 0 0 0 0 0 0 0 0 0 0 0 0 0 0 0 0 0 0 0 0 0 0 0 0 
0 0 0 0 0 0 0 0 0 0 0 0 0 0 0 0 0 0 0 0 0 0 0 0 0 0 0 0 0 0 0 0 0 0 0 1 9 22 23 26 49 100 146 170 179 180 182 186 190 191 190 190 189 189 190 189 188 188 186 184 182 176 166 149 118 76 37 18 13 2 0 0 0 0 0 0 0 0 0 0 0 0 0 0 0 0 0 0 0 0 0 0 1 1 1 3 3 0 0 0 0 0 0 0 0 0 0 0 0 0 0 0 0 0 0 0 0 0 0 0 0 0 0 0 0 0 0 0 
0 0 0 0 0 0 0 0 0 0 0 0 0 0 0 0 0 0 0 0 0 0 0 0 0 0 0 0 0 0 0 0 0 0 8 24 25 26 60 121 161 177 181 183 189 194 191 182 175 171 175 182 181 170 169 181 192 196 193 187 184 185 186 184 178 166 142 98 49 23 13 2 0 0 0 0 0 0 0 0 0 0 0 0 0 0 0 0 0 0 0 0 1 1 2 3 3 0 0 0 0 0 0 0 0 0 0 0 0 0 0 0 0 0 0 0 0 0 0 0 0 0 0 0 0 0 0 0 
0 0 0 0 0 0 0 0 0 0 0 0 0 0 0 0 0 0 0 0 0 0 0 0 0 0 0 0 0 0 0 0 5 27 24 24 58 125 164 176 178 184 190 192 186 177 170 159 152 153 152 153 150 142 144 152 163 182 197 200 198 193 188 185 186 187 181 172 150 99 44 23 10 0 0 0 0 0 0 0 0 0 0 0 0 0 0 0 0 0 0 0 1 1 2 3 3 0 0 0 0 0 0 0 0 0 0 0 0 0 0 0 0 0 0 0 0 0 0 0 0 0 0 0 0 0 0 0 
0 0 0 0 0 0 0 0 0 0 0 0 0 0 0 0 0 0 0 0 0 0 0 0 0 0 0 0 0 0 0 24 27 22 40 109 163 175 176 184 189 190 185 171 159 158 156 143 135 128 134 142 145 142 144 147 150 149 159 180 200 205 202 197 192 186 184 184 181 171 143 77 30 19 2 0 0 0 0 0 0 0 0 0 0 0 0 0 0 0 0 0 1 1 2 3 3 0 0 0 0 0 0 0 0 0 0 0 0 0 0 0 0 0 0 0 0 0 0 0 0 0 0 0 0 0 0 0 
0 0 0 0 0 0 0 0 0 0 0 0 0 0 0 0 0 0 0 0 0 0 0 0 0 0 0 0 0 9 29 22 25 82 152 174 178 182 188 189 191 182 168 167 160 148 138 133 131 130 131 137 135 131 131 135 137 142 144 152 165 182 196 204 205 200 194 188 183 186 182 166 116 45 23 6 0 0 0 0 0 0 0 0 0 0 0 0 0 0 0 0 1 1 2 3 3 0 0 0 0 0 0 0 0 0 0 0 0 0 0 0 0 0 0 0 0 0 0 0 0 0 0 0 0 0 0 0 
0 0 0 0 0 0 0 0 0 0 0 0 0 0 0 0 0 0 0 0 0 0 0 0 0 0 0 0 23 25 18 48 128 170 175 179 187 188 192 190 180 168 158 152 150 147 143 137 131 133 129 130 129 130 142 146 142 144 146 145 148 161 180 189 196 201 206 202 194 188 186 185 174 145 68 24 10 0 0 0 0 0 0 0 0 0 0 0 0 0 0 0 1 1 2 3 3 0 0 0 0 0 0 0 0 0 0 0 0 0 0 0 0 0 0 0 0 0 0 0 0 0 0 0 0 0 0 0 
0 0 0 0 0 0 0 0 0 0 0 0 0 0 0 0 0 0 0 0 0 0 0 0 0 0 5 27 21 18 74 153 173 178 183 189 191 195 187 173 162 159 155 148 139 142 149 146 152 146 135 130 127 128 137 141 139 144 151 157 159 160 163 169 182 194 201 202 205 198 190 185 185 177 155 83 25 13 0 0 0 0 0 0 0 0 0 0 0 0 0 0 1 2 2 3 3 0 0 0 0 0 0 0 0 0 0 0 0 0 0 0 0 0 0 0 0 0 0 0 0 0 0 0 0 0 0 0 
0 0 0 0 0 0 0 0 0 0 0 0 0 0 0 0 0 0 0 0 0 0 0 0 0 10 26 18 24 100 161 172 181 190 191 198 197 179 166 160 156 148 142 144 149 149 140 141 133 125 116 119 116 115 119 132 140 141 139 141 147 154 163 171 173 175 181 194 199 201 203 194 187 182 177 159 93 27 14 0 0 0 0 0 0 0 0 0 0 0 0 0 1 1 2 3 3 0 0 0 0 0 0 0 0 0 0 0 0 0 0 0 0 0 0 0 0 0 0 0 0 0 0 0 0 0 0 0 
0 0 0 0 0 0 0 0 0 0 0 0 0 0 0 0 0 0 0 0 0 0 0 0 14 23 15 35 114 163 174 183 192 195 196 186 170 162 159 157 157 160 162 153 146 142 136 127 125 123 122 127 124 123 125 128 136 145 147 145 145 147 146 146 155 167 172 173 179 189 197 203 197 189 184 179 163 103 29 14 0 0 0 0 0 0 0 0 0 0 0 0 1 1 2 3 3 0 0 0 0 0 0 0 0 0 0 0 0 0 0 0 0 0 0 0 0 0 0 0 0 0 0 0 0 0 0 0 
0 0 0 0 0 0 0 0 0 0 0 0 0 0 0 0 0 0 0 0 0 0 4 18 20 15 45 125 160 173 185 194 197 188 174 163 158 157 164 165 157 146 137 128 129 125 121 122 120 120 121 112 110 116 116 117 119 123 133 140 140 142 147 154 152 147 155 163 167 169 179 192 200 197 188 183 179 165 114 35 12 0 0 0 0 0 0 0 0 0 0 0 1 1 1 3 3 0 0 0 0 0 0 0 0 0 0 0 0 0 0 0 0 0 0 0 0 0 0 0 0 0 0 0 0 0 0 0 
0 0 0 0 0 0 0 0 0 0 0 0 0 0 0 0 0 0 0 0 0 5 16 17 17 57 135 160 174 189 197 194 179 169 157 154 154 171 163 146 141 135 127 130 123 114 110 107 109 109 107 96 93 105 107 109 112 116 118 121 120 120 126 134 150 156 149 147 156 164 162 168 184 197 197 188 185 179 166 122 39 9 0 0 0 0 0 0 0 0 0 0 1 1 1 3 3 0 0 0 0 0 0 0 0 0 0 0 0 0 0 0 0 0 0 0 0 0 0 0 0 0 0 0 0 0 0 0 
0 0 0 0 0 0 0 0 0 0 0 0 0 0 0 0 0 0 0 0 7 16 15 19 71 142 160 175 192 197 188 166 161 153 152 159 165 143 136 139 137 129 125 120 117 118 119 118 120 123 115 110 114 129 132 132 132 128 124 124 124 124 121 118 122 136 148 149 142 149 157 155 160 177 191 195 189 186 180 167 125 36 6 0 0 0 0 0 0 0 0 0 1 1 1 3 3 0 0 0 0 0 0 0 0 0 0 0 0 0 0 0 0 0 0 0 0 0 0 0 0 0 0 0 0 0 0 0 
0 0 0 0 0 0 0 0 0 0 0 0 0 0 0 0 0 0 0 6 16 13 20 79 145 161 174 190 196 184 166 155 148 151 158 155 134 131 132 126 118 114 116 124 132 134 134 138 135 127 128 126 129 133 136 140 141 138 132 128 128 129 130 128 117 110 121 144 150 141 138 149 149 154 169 190 196 189 187 177 164 117 28 3 0 0 0 0 0 0 0 0 1 1 1 3 3 0 0 0 0 0 0 0 0 0 0 0 0 0 0 0 0 0 0 0 0 0 0 0 0 0 0 0 0 0 0 0 
0 0 0 0 0 0 0 0 0 0 0 0 0 0 0 0 0 0 5 16 12 19 82 146 160 171 185 193 178 164 154 145 149 155 152 126 124 129 121 113 114 124 134 136 126 114 114 116 108 105 100 100 99 105 105 107 110 114 117 121 123 125 125 127 128 124 114 119 139 147 138 136 145 144 151 163 188 194 188 186 173 159 103 20 1 0 0 0 0 0 0 0 1 1 2 3 3 0 0 0 0 0 0 0 0 0 0 0 0 0 0 0 0 0 0 0 0 0 0 0 0 0 0 0 0 0 0 0 
0 0 0 0 0 0 0 0 0 0 0 0 0 0 0 0 0 2 15 14 19 78 141 155 167 181 192 174 162 151 145 149 145 150 126 122 129 118 110 120 130 130 118 105 98 95 93 93 95 94 84 83 86 94 97 95 97 96 102 108 115 118 120 121 124 125 124 119 121 132 142 135 136 139 142 148 159 185 191 188 182 170 152 80 10 0 0 0 0 0 0 0 1 2 2 3 4 0 0 0 0 0 0 0 0 0 0 0 0 0 0 0 0 0 0 0 0 0 0 0 0 0 0 0 0 0 0 0 
0 0 0 0 0 0 0 0 0 0 0 0 0 0 0 0 0 11 12 16 72 136 153 162 177 190 174 159 149 144 148 137 149 132 122 125 112 108 118 126 117 106 99 97 96 96 95 93 95 91 88 90 93 99 106 111 110 108 111 111 113 114 115 120 123 124 121 121 121 117 125 136 135 137 136 141 147 157 185 189 189 178 163 135 51 4 0 0 0 0 0 0 1 2 2 4 4 0 0 0 0 0 0 0 0 0 0 0 0 0 0 0 0 0 0 0 0 0 0 0 0 0 0 0 0 0 0 0 
0 0 0 0 0 0 0 0 0 0 0 0 0 0 0 0 5 12 15 58 128 146 158 174 188 177 153 150 145 142 133 144 132 121 123 108 106 119 127 121 113 108 107 104 101 97 98 97 98 99 101 109 114 116 117 114 116 116 112 112 110 110 109 107 111 116 119 119 117 118 115 122 132 138 134 130 139 141 157 183 191 185 172 155 112 24 1 0 0 0 0 0 1 2 2 3 4 0 0 0 0 0 0 0 0 0 0 0 0 0 0 0 0 0 0 0 0 0 0 0 0 0 0 0 0 0 0 0 
0 0 0 0 0 0 0 0 0 0 0 0 0 0 0 1 12 13 46 118 142 154 168 185 181 151 145 143 141 133 137 127 119 124 112 109 117 124 126 119 111 103 103 105 105 108 112 112 114 116 122 123 121 121 117 114 113 114 113 112 112 110 108 106 106 113 118 116 110 112 116 112 118 131 140 130 135 138 138 163 186 191 179 166 142 75 7 0 0 0 0 0 1 2 2 4 4 0 0 0 0 0 0 0 0 0 0 0 0 0 0 0 0 0 0 0 0 0 0 0 0 0 0 0 0 0 0 0 
0 0 0 0 0 0 0 0 0 0 0 0 0 0 0 7 11 26 97 134 148 162 181 179 158 141 142 141 133 140 131 117 121 113 109 113 123 127 122 115 107 100 103 108 107 108 111 116 115 116 122 115 109 113 106 104 101 102 102 106 108 107 108 107 108 109 114 118 114 103 113 118 111 115 132 143 132 135 135 142 168 186 182 171 155 117 28 1 0 0 0 0 1 2 2 3 4 0 0 0 0 0 0 0 0 0 0 0 0 0 0 0 0 0 0 0 0 0 0 0 0 0 0 0 0 0 0 0 
0 0 0 0 0 0 0 0 0 0 0 0 0 0 2 9 13 72 123 141 154 174 176 163 142 136 139 131 137 139 118 117 115 112 115 121 126 121 115 109 105 99 100 99 100 103 107 105 99 98 111 102 94 100 92 92 92 92 92 94 100 104 102 103 106 111 109 116 119 108 98 114 116 112 118 142 143 127 133 134 143 176 183 177 162 136 67 4 0 0 0 0 1 2 2 4 4 0 0 0 0 0 0 0 0 0 0 0 0 0 0 0 0 0 0 0 0 0 0 0 0 0 0 0 0 0 0 0 
0 0 0 0 0 0 0 0 0 0 0 0 0 0 6 7 39 110 134 141 164 175 159 154 129 136 134 132 144 123 117 114 113 117 117 122 118 112 109 102 97 92 91 93 95 97 93 88 85 86 101 99 88 86 77 80 87 88 89 89 92 95 99 100 104 107 108 111 121 117 101 102 116 117 113 125 153 131 128 131 126 158 177 179 167 145 104 17 0 0 0 0 1 1 2 3 4 0 0 0 0 0 0 0 0 0 0 0 0 0 0 0 0 0 0 0 0 0 0 0 0 0 0 0 0 0 0 0 
0 0 0 0 0 0 0 0 0 0 0 0 0 0 7 16 81 122 140 150 172 158 159 138 125 136 131 137 133 117 115 111 115 120 119 116 109 105 101 93 88 88 91 91 89 89 86 87 86 83 87 89 87 82 84 87 87 90 89 87 88 90 93 97 101 109 108 108 115 125 115 102 104 118 120 114 138 148 122 124 126 145 169 172 168 154 123 38 1 0 0 0 1 1 2 3 4 0 0 0 0 0 0 0 0 0 0 0 0 0 0 0 0 0 0 0 0 0 0 0 0 0 0 0 0 0 0 0 
0 0 0 0 0 0 0 0 0 0 0 0 0 3 7 37 106 131 142 163 166 151 152 124 132 131 129 134 124 113 116 116 118 119 116 108 101 97 95 90 87 89 90 90 89 91 91 92 92 93 95 97 104 102 103 101 100 96 91 91 90 89 87 89 96 107 109 107 109 119 123 111 103 109 120 120 126 146 124 116 124 137 162 170 170 159 132 60 2 0 0 0 1 2 2 3 4 0 0 0 0 0 0 0 0 0 0 0 0 0 0 0 0 0 0 0 0 0 0 0 0 0 0 0 0 0 0 0 
0 0 0 0 0 0 0 0 0 0 0 0 0 4 9 68 117 134 147 168 152 150 138 122 136 126 118 133 117 115 120 119 122 121 106 101 96 94 94 93 92 90 90 92 97 101 105 108 113 117 120 119 127 124 120 121 119 117 110 105 100 94 88 86 88 98 110 109 107 110 119 123 114 103 114 125 124 134 129 111 119 132 154 168 172 162 137 78 5 0 0 0 1 2 2 3 4 0 0 0 0 0 0 0 0 0 0 0 0 0 0 0 0 0 0 0 0 0 0 0 0 0 0 0 0 0 0 0 
0 0 0 0 0 0 0 0 0 0 0 0 0 5 17 89 123 141 156 161 139 137 127 124 131 114 118 129 106 118 123 124 128 114 101 97 95 97 98 97 96 87 89 97 112 122 125 128 128 123 114 113 124 114 109 108 107 114 123 125 121 114 103 94 87 90 104 115 111 106 110 123 126 110 108 121 121 125 127 114 114 129 147 167 170 162 143 94 10 0 0 0 1 2 2 4 4 0 0 0 0 0 0 0 0 0 0 0 0 0 0 0 0 0 0 0 0 0 0 0 0 0 0 0 0 0 0 0 
0 0 0 0 0 0 0 0 0 0 0 0 1 6 33 107 130 145 162 146 135 127 125 130 120 111 118 117 107 122 123 128 123 104 93 96 99 100 98 94 91 97 107 120 126 126 120 117 112 102 96 97 110 97 94 89 88 91 97 110 120 129 125 112 98 88 96 117 115 106 105 113 130 125 112 115 119 124 121 116 110 130 147 168 172 163 147 108 16 0 0 0 1 2 2 4 4 0 0 0 0 0 0 0 0 0 0 0 0 0 0 0 0 0 0 0 0 0 0 0 0 0 0 0 0 0 0 0 
0 0 0 0 0 0 0 0 0 0 0 0 1 6 48 113 136 149 155 132 129 120 130 127 108 111 115 112 113 121 125 127 112 95 93 107 105 99 92 86 96 111 124 124 114 110 106 96 94 91 88 94 92 91 88 85 86 87 90 92 99 115 128 126 114 110 110 110 109 109 105 106 116 129 123 115 114 120 114 116 106 128 144 163 173 165 153 121 26 1 0 0 1 2 2 4 4 0 0 0 0 0 0 0 0 0 0 0 0 0 0 0 0 0 0 0 0 0 0 0 0 0 0 0 0 0 0 0 
0 0 0 0 0 0 0 0 0 0 0 0 2 7 61 119 138 149 146 130 125 124 136 123 105 108 107 114 113 111 125 118 103 95 101 113 109 99 90 93 105 116 121 113 100 92 90 89 87 83 87 93 90 89 87 83 82 83 81 83 98 111 127 137 139 122 101 95 103 111 111 107 109 119 126 122 108 113 110 118 108 128 148 163 175 167 156 131 37 2 0 0 1 2 2 4 4 0 0 0 0 0 0 0 0 0 0 0 0 0 0 0 0 0 0 0 0 0 0 0 0 0 0 0 0 0 0 0 
0 0 0 0 0 0 0 0 0 0 0 0 3 8 70 124 143 151 145 134 125 127 137 117 107 104 103 117 109 108 121 109 100 98 106 114 112 102 101 100 107 111 115 110 94 82 78 80 79 81 89 96 94 91 87 85 81 80 77 78 93 105 121 128 124 110 101 96 104 111 114 116 111 108 119 128 112 110 108 118 109 129 149 163 173 170 160 139 48 2 0 0 1 2 2 4 4 0 0 0 0 0 0 0 0 0 0 0 0 0 0 0 0 0 0 0 0 0 0 0 0 0 0 0 0 0 0 0 
0 0 0 0 0 0 0 0 0 0 0 0 3 12 78 129 147 157 145 137 126 133 137 116 110 102 105 118 103 107 116 108 104 105 110 110 117 118 124 124 118 105 113 111 102 89 78 77 76 81 90 94 102 95 89 85 82 79 75 75 89 99 102 105 118 117 112 115 108 104 110 118 122 108 110 130 124 107 102 113 117 131 148 159 174 171 165 147 61 3 0 0 1 2 2 4 4 0 0 0 0 0 0 0 0 0 0 0 0 0 0 0 0 0 0 0 0 0 0 0 0 0 0 0 0 0 0 0 
0 0 0 0 0 0 0 0 0 0 0 0 3 12 82 133 147 161 146 139 130 138 134 119 114 103 106 120 103 102 111 111 108 105 112 116 114 112 111 107 99 93 108 107 102 100 85 75 76 81 89 92 104 96 87 85 83 79 75 75 89 92 98 107 109 108 105 102 98 96 101 109 123 124 116 123 136 111 104 119 123 127 145 153 174 175 165 149 74 5 0 0 1 2 2 4 4 0 0 0 0 0 0 0 0 0 0 0 0 0 0 0 0 0 0 0 0 0 0 0 0 0 0 0 0 0 0 0 
0 0 0 0 0 0 0 0 0 0 0 0 4 15 86 137 151 164 144 139 135 143 135 120 117 107 107 116 101 102 115 116 110 109 107 112 110 96 83 80 79 74 73 80 90 105 101 79 76 81 85 88 100 95 86 89 86 80 75 80 93 103 90 88 97 99 98 92 85 87 93 95 107 117 132 135 134 126 109 127 126 128 142 145 170 178 167 151 87 7 0 0 1 2 2 4 4 0 0 0 0 0 0 0 0 0 0 0 0 0 0 0 0 0 0 0 0 0 0 0 0 0 0 0 0 0 0 0 
0 0 0 0 0 0 0 0 0 0 0 0 5 15 89 139 152 158 144 137 136 142 136 127 126 112 111 113 106 109 121 117 115 103 103 100 95 87 78 77 74 76 76 74 75 87 98 95 78 87 97 92 92 92 91 99 93 85 82 89 99 78 78 83 93 101 102 99 93 92 92 93 96 112 132 146 138 134 122 131 127 125 136 140 162 176 168 156 100 11 0 0 1 2 2 4 4 0 0 0 0 0 0 0 0 0 0 0 0 0 0 0 0 0 0 0 0 0 0 0 0 0 0 0 0 0 0 0 
0 0 0 0 0 0 0 0 0 0 0 0 6 15 91 142 153 163 144 135 136 138 132 130 129 117 118 115 110 118 125 121 97 91 94 95 90 83 86 89 84 76 71 71 76 80 81 89 79 79 87 95 94 91 98 98 92 79 70 94 85 71 79 88 99 109 110 113 107 103 105 108 111 118 127 145 141 132 132 133 125 121 130 134 151 170 169 158 113 15 0 0 1 2 2 4 4 0 0 0 0 0 0 0 0 0 0 0 0 0 0 0 0 0 0 0 0 0 0 0 0 0 0 0 0 0 0 0 
0 0 0 0 0 0 0 0 0 0 0 0 7 16 93 143 157 162 137 130 136 137 128 125 125 126 121 119 126 132 129 114 87 87 95 100 98 94 92 88 88 87 84 74 70 74 80 86 94 85 91 96 104 97 104 85 82 71 78 98 73 74 71 77 90 98 102 103 99 99 102 103 118 131 127 126 135 130 138 133 124 115 123 126 142 164 171 159 122 23 0 0 1 2 2 4 4 0 0 0 0 0 0 0 0 0 0 0 0 0 0 0 0 0 0 0 0 0 0 0 0 0 0 0 0 0 0 0 
0 0 0 0 0 0 0 0 0 0 0 0 8 15 95 145 158 163 130 127 131 134 126 119 117 124 125 120 127 143 142 115 100 97 107 110 100 89 81 79 77 75 77 79 75 75 86 97 108 104 110 107 117 108 110 87 82 76 97 92 72 66 67 79 92 102 103 97 93 93 104 110 119 119 118 121 123 131 142 132 121 113 120 118 130 155 167 157 127 32 1 0 1 2 2 4 4 0 0 0 0 0 0 0 0 0 0 0 0 0 0 0 0 0 0 0 0 0 0 0 0 0 0 0 0 0 0 0 
0 0 0 0 0 0 0 0 0 0 0 0 8 15 96 145 161 163 128 129 128 133 120 112 111 115 121 120 130 137 133 117 111 106 107 107 100 83 77 77 78 76 72 74 82 87 90 101 109 114 120 117 118 123 119 106 104 97 103 84 70 66 76 81 91 101 104 98 89 87 100 115 118 107 107 117 119 133 141 128 118 109 114 111 118 144 167 157 131 43 2 0 1 2 2 4 4 0 0 0 0 0 0 0 0 0 0 0 0 0 0 0 0 0 0 0 0 0 0 0 0 0 0 0 0 0 0 0 
0 0 0 0 0 0 0 0 0 0 0 0 8 16 99 146 164 160 128 123 122 128 113 107 107 109 122 125 128 123 121 105 102 106 112 110 93 76 74 71 75 75 78 83 86 96 97 98 107 113 117 107 116 117 112 112 105 102 102 80 69 73 75 83 93 98 99 95 87 86 93 108 116 104 101 111 121 140 142 129 110 107 108 111 111 131 160 154 133 49 2 0 1 2 2 4 4 0 0 0 0 0 0 0 0 0 0 0 0 0 0 0 0 0 0 0 0 0 0 0 0 0 0 0 0 0 0 0 
0 0 0 0 0 0 0 0 0 0 0 0 9 17 98 147 165 155 116 118 114 120 107 102 103 103 120 133 126 116 114 101 97 104 111 106 88 77 77 72 66 68 72 86 94 94 100 104 112 114 119 115 107 104 106 109 104 113 110 74 73 74 81 84 84 91 96 91 85 84 93 107 112 104 98 108 125 142 142 133 109 104 105 105 100 123 149 154 135 56 2 0 1 2 2 4 4 0 0 0 0 0 0 0 0 0 0 0 0 0 0 0 0 0 0 0 0 0 0 0 0 0 0 0 0 0 0 0 
0 0 0 0 0 0 0 0 0 0 0 0 8 17 96 148 166 150 116 113 105 113 103 94 94 98 112 130 125 117 111 101 97 98 103 99 86 75 75 69 68 72 76 85 93 96 98 95 99 110 120 128 115 103 105 96 105 106 100 77 82 81 78 71 79 91 95 91 85 85 95 106 108 99 93 107 127 139 134 136 113 105 106 108 102 120 132 144 137 61 2 0 1 2 2 4 4 0 0 0 0 0 0 0 0 0 0 0 0 0 0 0 0 0 0 0 0 0 0 0 0 0 0 0 0 0 0 0 
0 0 0 0 0 0 0 0 0 0 0 0 8 18 96 147 165 140 114 108 96 107 103 92 95 95 111 127 117 119 112 103 99 96 101 102 89 79 76 71 68 80 90 98 98 101 102 94 95 103 114 125 113 102 106 94 104 112 87 84 81 80 75 75 86 96 100 92 84 86 96 104 104 92 91 108 133 141 138 138 112 107 107 106 100 115 127 144 137 62 3 0 1 2 2 4 4 0 0 0 0 0 0 0 0 0 0 0 0 0 0 0 0 0 0 0 0 0 0 0 0 0 0 0 0 0 0 0 
0 0 0 0 0 0 0 0 0 0 0 0 8 17 90 145 161 130 115 108 95 106 105 92 96 98 112 121 109 116 113 106 99 96 101 104 92 80 77 74 69 72 81 90 95 97 99 100 98 102 119 110 92 88 95 86 88 109 76 77 74 73 73 88 94 102 101 91 86 87 99 104 97 85 94 116 143 142 137 137 109 106 108 102 101 116 126 147 132 60 3 0 1 2 2 4 4 0 0 0 0 0 0 0 0 0 0 0 0 0 0 0 0 0 0 0 0 0 0 0 0 0 0 0 0 0 0 0 
0 0 0 0 0 0 0 0 0 0 0 0 6 14 83 143 160 126 113 110 96 102 107 93 95 97 109 117 102 114 115 107 97 101 100 102 97 86 79 76 72 78 78 87 91 90 93 99 97 103 108 90 88 89 96 88 87 107 92 74 72 69 70 92 97 99 97 91 85 88 102 105 91 78 99 123 148 131 131 137 107 104 107 100 99 114 123 148 127 55 2 0 1 2 2 3 4 0 0 0 0 0 0 0 0 0 0 0 0 0 0 0 0 0 0 0 0 0 0 0 0 0 0 0 0 0 0 0 
0 0 0 0 0 0 0 0 0 0 0 0 4 15 78 140 159 129 113 110 97 97 110 95 91 93 105 116 99 112 119 105 93 101 101 105 104 89 79 76 75 82 83 85 88 90 90 87 92 109 106 91 91 95 103 91 85 87 107 75 71 67 69 87 97 99 97 90 83 89 103 103 87 79 106 126 144 120 120 138 109 101 107 98 99 116 125 145 120 48 2 0 1 2 2 3 4 0 0 0 0 0 0 0 0 0 0 0 0 0 0 0 0 0 0 0 0 0 0 0 0 0 0 0 0 0 0 0 
0 0 0 0 0 0 0 0 0 0 0 0 3 16 70 136 157 133 111 111 96 91 107 99 90 87 101 118 102 117 122 109 91 98 101 102 101 89 79 77 82 88 89 87 88 89 88 90 99 115 100 95 93 99 104 90 86 78 102 89 80 74 71 85 94 101 99 87 81 91 102 101 82 83 112 127 132 113 108 130 113 105 107 97 97 114 127 138 112 43 2 0 1 2 2 3 4 0 0 0 0 0 0 0 0 0 0 0 0 0 0 0 0 0 0 0 0 0 0 0 0 0 0 0 0 0 0 0 
0 0 0 0 0 0 0 0 0 4 6 0 0 13 61 129 153 138 109 110 94 91 104 102 90 85 98 119 110 129 129 107 93 95 104 101 96 85 78 74 82 91 95 90 98 104 102 97 109 107 96 91 93 105 108 96 88 78 84 98 101 97 91 91 96 105 107 93 84 95 105 103 81 91 114 122 125 114 110 124 120 106 99 92 96 110 130 132 103 37 1 0 1 2 2 4 4 0 0 0 0 0 0 0 0 0 0 0 0 0 0 0 0 0 0 0 0 0 0 0 0 0 0 0 0 0 0 0 
0 0 0 0 0 0 0 0 0 8 11 3 1 10 51 121 146 135 105 109 94 90 100 105 92 82 99 123 118 123 120 109 90 89 104 100 89 81 79 76 94 97 98 95 106 106 104 97 118 101 93 87 87 101 99 94 96 86 75 103 101 94 104 104 105 105 100 98 91 92 97 90 85 91 110 124 123 122 119 122 127 108 93 90 100 107 133 125 95 33 1 0 1 2 2 3 4 0 0 0 0 0 0 0 0 0 0 0 0 0 0 0 0 0 0 0 0 0 0 0 0 0 0 0 0 0 0 0 
0 0 0 0 0 0 0 0 0 2 1 9 3 8 40 112 140 138 103 101 95 89 95 107 97 81 99 123 118 113 110 108 94 87 98 101 86 81 76 80 85 90 93 98 110 114 113 107 116 88 88 82 83 99 94 85 85 87 83 105 112 94 91 113 121 121 112 100 97 94 98 90 81 91 112 125 126 121 129 125 135 111 90 94 100 113 136 119 88 26 0 0 1 2 2 3 4 0 0 0 0 0 0 0 0 0 0 0 0 0 0 0 0 0 0 0 0 0 0 0 0 0 0 0 0 0 0 0 
0 0 0 0 0 0 0 0 0 0 2 8 6 7 30 98 135 139 107 99 105 95 92 103 103 86 99 120 114 112 126 125 118 103 96 103 98 87 86 95 88 90 99 111 102 92 90 110 105 82 80 78 77 102 87 78 77 79 86 106 123 100 82 100 121 133 137 130 124 122 126 113 107 126 143 142 124 100 124 127 140 110 97 99 102 122 134 113 83 19 0 0 2 9 4 3 4 0 0 0 0 0 0 0 0 0 0 0 0 0 0 0 0 0 0 0 0 0 0 0 0 0 0 0 0 0 0 0 
0 0 0 0 0 0 0 0 0 0 3 8 5 7 23 86 129 139 114 100 107 93 90 98 104 96 100 117 114 107 134 128 113 121 116 113 115 106 102 100 100 92 81 81 87 92 81 98 100 73 77 78 77 90 77 66 69 72 80 113 125 91 85 96 113 120 131 134 132 146 151 137 126 118 130 140 135 110 127 132 138 116 121 109 101 131 124 110 74 12 4 3 6 4 6 3 4 0 0 0 0 0 0 0 0 0 0 0 0 0 0 0 0 0 0 0 0 0 0 0 0 0 0 0 0 0 0 0 
0 0 0 0 0 0 0 0 0 0 1 7 5 8 19 77 123 143 132 104 103 98 89 94 101 110 110 112 120 109 133 125 99 105 125 133 131 116 105 96 91 88 86 83 90 82 78 97 99 75 87 87 76 88 75 68 72 78 85 114 121 96 93 107 114 120 122 126 134 154 135 124 129 114 133 136 135 132 134 132 135 122 123 122 136 131 114 113 63 8 3 3 5 2 2 3 4 0 0 0 0 0 0 0 0 0 0 0 0 0 0 0 0 0 0 0 0 0 0 0 0 0 0 0 0 0 0 0 
0 0 0 0 0 0 0 0 0 0 1 6 8 9 14 63 114 139 146 111 100 102 99 105 110 108 118 114 119 110 134 139 125 113 116 123 124 115 113 108 92 87 78 81 84 75 73 85 100 95 96 89 88 97 95 70 72 87 97 107 114 105 100 110 118 121 128 132 144 144 119 128 152 147 146 157 144 149 159 158 143 137 140 146 154 134 120 110 48 7 1 2 4 2 2 3 4 0 0 0 0 0 0 0 0 0 0 0 0 0 0 0 0 0 0 0 0 0 0 0 0 0 0 0 0 0 0 0 
0 0 0 0 0 0 0 0 0 0 0 6 10 11 14 52 109 136 150 128 104 112 117 115 114 119 125 126 117 106 130 146 138 135 142 136 140 144 135 116 86 72 88 89 76 77 85 98 100 88 101 100 98 117 97 79 77 92 104 106 119 99 111 122 123 131 144 146 157 152 137 154 156 155 139 140 136 140 158 168 159 163 154 166 167 115 114 104 30 7 1 3 2 2 2 4 4 0 0 0 0 0 0 0 0 0 0 0 0 0 0 0 0 0 0 0 0 0 0 0 0 0 0 0 0 0 0 0 
0 0 0 0 0 0 0 0 0 0 0 7 11 10 12 37 105 132 147 152 130 140 132 127 128 138 132 138 115 127 149 150 153 162 155 137 138 138 135 112 89 84 85 86 90 91 96 99 93 97 99 105 109 133 104 83 76 86 101 109 123 117 115 125 117 115 129 140 153 156 144 145 140 150 151 136 132 129 145 157 166 177 175 180 148 109 112 85 15 5 2 3 2 2 2 4 4 0 0 0 0 0 0 0 0 0 0 0 0 0 0 0 0 0 0 0 0 0 0 0 0 0 0 0 0 0 0 0 
0 0 0 0 0 0 0 0 0 0 0 4 11 11 10 15 61 120 140 152 147 163 170 160 162 150 132 129 130 129 168 162 150 149 151 148 141 138 123 108 100 104 98 94 97 94 99 101 105 100 100 102 110 121 127 101 82 81 89 105 111 111 115 123 123 122 127 139 135 131 127 128 120 134 147 146 133 131 135 149 152 160 166 157 133 107 108 96 18 8 5 2 3 2 2 4 4 0 0 0 0 0 0 0 0 0 0 0 0 0 0 0 0 0 0 0 0 0 0 0 0 0 0 0 0 0 0 0 
0 0 0 0 0 0 0 0 0 0 0 6 10 7 6 13 38 109 140 147 154 163 165 159 157 155 157 150 135 127 153 168 162 151 153 149 148 143 128 110 107 110 106 102 106 107 109 111 112 101 95 101 110 121 119 105 84 81 86 97 102 99 95 106 115 122 135 128 124 119 119 115 109 136 143 142 126 134 125 142 154 171 151 130 98 113 109 64 8 4 6 5 4 2 2 3 3 0 0 0 0 0 0 0 0 0 0 0 0 0 0 0 0 0 0 0 0 0 0 0 0 0 0 0 0 0 0 0 
0 0 0 0 0 0 0 0 0 0 0 7 5 4 6 11 23 87 138 152 154 152 154 140 159 165 162 144 130 133 135 152 163 160 146 143 153 146 122 115 108 101 100 110 107 103 113 106 102 88 92 92 82 104 110 109 89 81 88 97 108 109 110 104 104 107 119 121 129 129 118 112 127 134 156 158 142 139 124 135 142 157 130 111 121 113 105 31 5 3 2 6 4 1 2 4 3 0 0 0 0 0 0 0 0 0 0 0 0 0 0 0 0 0 0 0 0 0 0 0 0 0 0 0 0 0 0 0 
0 0 0 0 0 0 0 0 0 0 0 6 5 3 6 9 17 59 126 139 139 137 143 142 132 151 153 135 135 131 127 129 146 162 150 139 137 138 127 117 97 94 98 97 91 100 106 91 102 108 101 93 89 98 115 111 85 87 100 103 121 127 130 137 116 93 85 98 110 105 101 109 113 126 148 157 160 155 125 134 130 126 114 106 108 101 77 15 7 3 2 3 4 2 2 3 3 0 0 0 0 0 0 0 0 0 0 0 0 0 0 0 0 0 0 0 0 0 0 0 0 0 0 0 0 0 0 0 
0 0 0 0 0 0 0 0 0 0 0 5 7 2 4 6 15 33 108 133 122 128 144 146 139 132 133 129 138 140 134 129 132 137 148 143 127 121 124 109 98 94 94 100 104 110 123 104 116 117 117 115 103 106 123 117 93 90 104 117 121 124 126 119 108 90 92 93 90 94 99 111 111 128 142 152 165 163 153 142 130 122 101 95 100 111 41 9 6 5 3 3 4 2 2 3 3 0 0 0 0 0 0 0 0 0 0 0 0 0 0 0 0 0 0 0 0 0 0 0 0 0 0 0 0 0 0 0 
0 0 0 0 0 0 0 0 0 0 0 3 8 4 2 9 16 19 79 119 114 121 140 150 141 139 136 136 126 136 138 119 120 133 144 136 131 126 116 98 88 106 113 117 120 124 125 122 132 125 126 126 114 110 135 131 120 114 117 118 123 123 114 116 109 113 98 88 94 105 102 119 117 124 131 148 166 165 176 161 133 110 97 85 84 85 20 9 5 7 5 4 3 3 2 3 3 0 0 0 0 0 0 0 0 0 0 0 0 0 0 0 0 0 0 0 0 0 0 0 0 0 0 0 0 0 0 0 
0 0 0 0 0 0 0 0 0 0 0 1 4 3 2 5 12 16 46 112 116 119 137 155 152 153 137 131 141 136 132 118 109 126 133 122 108 107 101 91 85 101 116 118 122 123 126 138 146 138 139 138 143 147 150 144 147 138 122 119 132 144 132 134 130 116 100 98 97 110 111 110 117 105 122 146 162 166 178 167 130 96 88 80 91 56 13 12 5 7 6 5 4 2 2 3 3 0 0 0 0 0 0 0 0 0 0 0 0 0 0 0 0 0 0 0 0 0 0 0 0 0 0 0 0 0 0 0 
0 0 0 0 0 0 0 0 0 0 0 0 4 1 2 6 11 14 25 95 113 106 124 135 158 163 146 127 136 141 137 129 129 132 126 116 98 89 89 100 103 113 109 112 119 128 126 131 139 142 149 152 160 167 168 162 151 137 128 124 134 157 155 145 136 128 128 123 111 120 113 123 121 107 114 144 154 166 167 157 125 95 76 63 89 32 13 13 6 5 6 6 6 2 2 3 3 0 0 0 0 0 0 0 0 0 0 0 0 0 0 0 0 0 0 0 0 0 0 0 0 0 0 0 0 0 0 0 
0 0 0 0 0 0 0 0 0 0 0 1 4 1 3 8 13 13 15 66 108 110 112 126 140 160 151 133 140 133 149 138 136 135 117 118 118 103 97 104 128 131 121 116 137 147 145 145 145 137 135 140 144 142 151 146 137 134 129 123 124 144 157 159 144 145 143 129 129 113 108 112 117 106 107 139 153 163 152 142 126 112 91 93 81 19 12 11 6 5 2 5 3 1 2 3 3 0 0 0 0 0 0 0 0 0 0 0 0 0 0 0 0 0 0 0 0 0 0 0 0 0 0 0 0 0 0 0 
0 0 0 0 0 0 0 0 0 0 1 3 7 4 4 7 12 10 13 41 86 101 110 133 128 145 157 149 144 141 148 149 147 134 108 100 108 123 127 124 134 147 150 139 160 157 153 158 151 139 135 143 140 143 138 146 140 144 143 137 134 142 166 160 157 156 145 144 140 117 105 95 92 101 116 130 161 158 132 116 116 99 95 87 66 17 10 9 7 5 2 4 3 1 2 3 3 0 0 0 0 0 0 0 0 0 0 0 0 0 0 0 0 0 0 0 0 0 0 0 0 0 0 0 0 0 0 0 
0 0 0 0 0 0 0 0 0 0 0 4 14 10 5 5 10 9 13 29 78 108 119 120 114 123 148 154 151 139 147 147 143 127 107 100 102 106 112 117 127 144 159 159 155 159 160 166 150 141 138 142 149 151 143 142 148 156 138 130 131 144 147 156 162 153 151 154 139 103 86 95 110 116 136 150 158 160 131 111 89 81 105 95 58 16 8 8 8 6 1 4 3 1 2 3 3 0 0 0 0 0 0 0 0 0 0 0 0 0 0 0 0 0 0 0 0 0 0 0 0 0 0 0 0 0 0 0 
0 0 0 0 0 0 0 0 0 0 0 3 10 12 7 7 10 10 14 23 65 95 118 117 116 124 145 131 162 150 133 143 137 101 98 97 95 104 109 112 115 140 159 160 153 151 161 166 161 155 147 155 158 165 159 134 135 141 129 114 128 142 135 155 169 158 165 164 139 107 100 98 113 116 157 170 165 167 150 97 84 89 96 85 40 14 4 4 7 3 2 4 3 2 3 3 2 0 0 0 0 0 0 0 0 0 0 0 0 0 0 0 0 0 0 0 0 0 0 0 0 0 0 0 0 0 0 0 
0 0 0 0 0 0 0 0 0 0 0 3 10 12 9 10 10 13 16 17 35 81 112 119 120 122 146 141 160 148 131 135 142 112 97 97 99 96 96 99 109 146 162 160 159 156 145 145 153 150 168 177 169 172 151 123 128 136 139 127 146 153 144 153 171 149 159 156 135 104 92 106 122 140 157 159 166 155 136 96 101 89 61 53 20 13 5 3 7 3 5 7 7 4 5 3 2 0 0 0 0 0 0 0 0 0 0 0 0 0 0 0 0 0 0 0 0 0 0 0 0 0 0 0 0 0 0 0 
0 0 0 0 0 0 0 0 0 0 0 2 10 11 11 8 9 10 12 14 17 47 102 113 119 116 128 144 159 162 143 126 139 130 108 97 101 110 115 115 128 144 163 166 153 147 136 123 132 135 158 158 142 150 147 131 120 115 119 119 145 154 138 165 154 146 161 167 154 117 108 109 127 136 134 140 125 98 99 75 71 84 83 38 12 8 10 3 5 5 5 5 12 6 3 3 2 0 0 0 0 0 0 0 0 0 0 0 0 0 0 0 0 0 0 0 0 0 0 0 0 0 0 0 0 0 0 0 
0 0 0 0 0 0 0 0 0 0 0 0 9 11 6 7 5 4 9 14 19 28 72 110 101 96 112 136 146 164 155 139 136 125 111 104 104 105 110 143 129 150 179 182 176 155 150 146 162 157 160 159 154 159 158 156 154 151 144 147 155 148 167 182 177 157 154 169 151 146 122 137 133 127 101 90 91 75 85 67 99 95 56 22 12 2 2 3 4 7 7 6 7 5 2 3 2 0 0 0 0 0 0 0 0 0 0 0 0 0 0 0 0 0 0 0 0 0 0 0 0 0 0 0 0 0 0 0 
0 0 0 0 0 0 0 0 0 0 0 0 3 9 6 3 3 2 5 14 18 19 36 86 98 72 83 101 102 146 140 143 144 139 130 110 102 110 124 139 149 186 186 174 196 191 187 192 186 177 165 173 167 149 153 155 155 153 157 167 172 172 202 193 201 199 178 182 160 137 135 107 78 55 54 66 73 69 83 74 74 52 30 23 12 2 0 0 1 3 5 5 6 1 1 3 2 0 0 0 0 0 0 0 0 0 0 0 0 0 0 0 0 0 0 0 0 0 0 0 0 0 0 0 0 0 0 0 
0 0 0 0 0 0 0 0 0 0 0 0 0 3 6 2 1 1 0 7 12 15 25 49 73 77 70 65 75 97 107 128 139 133 117 113 106 118 145 167 174 176 173 166 175 197 174 164 184 171 159 162 144 137 145 145 152 155 166 161 147 174 179 177 170 183 174 160 141 128 108 96 93 74 75 87 102 85 71 50 49 44 33 20 16 0 0 0 0 3 3 8 6 1 1 3 2 0 0 0 0 0 0 0 0 0 0 0 0 0 0 0 0 0 0 0 0 0 0 0 0 0 0 0 0 0 0 0 
0 0 0 0 0 0 0 0 0 0 0 0 0 1 4 6 4 3 2 2 9 13 19 21 33 47 35 48 71 76 64 69 86 96 76 83 78 70 78 87 95 98 129 130 147 136 124 114 149 119 88 99 89 89 92 91 92 92 112 95 88 103 86 133 113 147 125 83 57 65 61 59 70 53 55 71 86 73 51 30 29 24 16 6 3 1 3 3 3 3 3 7 4 1 1 3 2 0 0 0 0 0 0 0 0 0 0 0 0 0 0 0 0 0 0 0 0 0 0 0 0 0 0 0 0 0 0 0 
0 0 0 0 0 0 0 0 0 0 0 0 0 0 2 2 3 3 3 1 5 9 12 16 22 22 23 35 74 78 56 57 64 84 53 53 65 62 79 83 95 84 70 66 78 88 82 74 79 77 58 71 77 84 87 81 75 57 67 74 81 100 79 71 79 96 83 108 118 90 55 57 83 57 51 68 86 69 47 30 27 24 14 6 3 1 2 1 1 2 2 5 1 0 1 3 2 0 0 0 0 0 0 0 0 0 0 0 0 0 0 0 0 0 0 0 0 0 0 0 0 0 0 0 0 0 0 0 
0 0 0 0 0 0 0 0 0 0 0 0 0 0 0 0 0 1 0 0 3 8 9 16 20 28 30 40 79 85 69 62 69 100 76 59 71 96 117 130 147 138 104 89 95 107 94 101 114 92 65 74 75 77 72 70 85 81 89 88 92 108 92 86 120 129 101 70 120 68 58 65 77 74 76 95 105 86 62 39 26 22 13 6 2 0 0 0 0 1 1 0 0 0 1 2 2 0 0 0 0 0 0 0 0 0 0 0 0 0 0 0 0 0 0 0 0 0 0 0 0 0 0 0 0 0 0 0 
0 0 0 0 0 0 0 0 0 0 0 0 0 0 0 0 0 0 0 0 0 3 4 6 12 25 37 51 86 98 93 74 73 95 77 63 85 127 116 131 148 153 134 126 131 151 147 132 140 123 109 110 94 91 90 102 123 121 120 131 141 160 160 153 167 163 139 117 128 120 112 120 117 114 110 99 96 88 62 47 20 10 2 4 1 0 0 0 0 0 0 0 0 0 0 2 1 0 0 0 0 0 0 0 0 0 0 0 0 0 0 0 0 0 0 0 0 0 0 0 0 0 0 0 0 0 0 0 
0 0 0 0 0 0 0 0 0 0 0 0 0 0 0 0 0 0 0 0 0 3 2 3 6 19 35 52 73 88 81 74 74 85 62 64 72 126 122 110 150 153 169 163 167 150 134 160 159 173 182 160 141 133 132 141 161 156 145 138 143 169 175 173 148 145 141 141 160 161 133 133 103 71 49 46 60 54 36 30 20 17 12 1 0 0 0 0 0 0 0 0 0 0 0 1 1 0 0 0 0 0 0 0 0 0 0 0 0 0 0 0 0 0 0 0 0 0 0 0 0 0 0 0 0 0 0 0 
0 0 0 0 0 0 0 0 0 0 0 0 0 0 0 0 0 0 0 0 0 0 2 2 6 18 39 47 68 84 84 77 77 96 69 62 57 88 115 69 116 132 117 102 114 142 127 161 158 145 127 124 120 116 120 114 127 129 138 131 135 131 117 129 115 101 106 126 137 147 108 60 50 67 78 75 73 48 28 19 7 4 5 1 0 0 0 0 0 0 0 0 1 3 4 6 4 0 0 0 0 0 0 0 0 0 0 0 0 0 0 0 0 0 0 0 0 0 0 0 0 0 0 0 0 0 0 0 
0 0 0 0 0 0 0 0 0 0 0 0 0 0 0 0 0 0 0 0 0 0 4 7 10 14 18 21 37 57 63 64 57 76 42 49 54 65 80 97 104 112 103 93 97 101 108 127 134 127 98 80 91 92 94 79 77 85 97 98 107 125 128 111 121 130 128 114 122 104 89 55 47 60 76 98 75 47 30 21 15 9 6 1 0 0 0 0 0 0 0 0 0 0 2 4 3 0 0 0 0 0 0 0 0 0 0 0 0 0 0 0 0 0 0 0 0 0 0 0 0 0 0 0 0 0 0 0 
0 0 0 0 0 0 0 0 0 0 0 0 0 0 0 0 0 0 0 0 0 0 2 7 8 13 17 20 27 51 62 72 64 80 45 51 56 66 85 96 98 101 94 107 105 109 118 135 131 104 105 86 86 86 84 77 86 97 110 110 96 99 99 108 103 111 117 117 110 94 94 61 40 51 75 103 79 49 26 20 18 11 6 0 0 0 0 0 0 0 0 0 0 0 2 4 2 0 0 0 0 0 0 0 0 0 0 0 0 0 0 0 0 0 0 0 0 0 0 0 0 0 0 0 0 0 0 0 
0 0 0 0 0 0 0 0 0 0 0 0 0 0 0 0 0 0 0 0 0 0 0 5 8 11 15 21 22 43 64 75 66 83 52 54 43 45 62 94 102 83 80 100 106 98 113 141 128 98 108 110 113 109 98 91 101 105 113 123 105 107 105 102 97 103 106 116 118 93 71 57 51 66 85 106 78 48 29 21 16 10 5 0 0 0 0 0 0 0 0 0 0 0 2 4 2 0 0 0 0 0 0 0 0 0 0 0 0 0 0 0 0 0 0 0 0 0 0 0 0 0 0 0 0 0 0 0 
0 0 0 0 0 0 0 0 0 0 0 0 0 0 0 0 0 0 0 0 0 0 0 2 6 10 13 19 21 31 49 68 68 81 58 53 38 49 67 80 78 69 78 98 107 109 108 130 135 115 118 122 120 116 112 104 106 101 91 110 118 132 125 102 102 102 96 92 104 108 88 55 44 59 100 108 79 49 32 20 14 9 3 0 0 0 0 0 0 0 0 0 0 0 1 3 1 0 0 0 0 0 0 0 0 0 0 0 0 0 0 0 0 0 0 0 0 0 0 0 0 0 0 0 0 0 0 0 
0 0 0 0 0 0 0 0 0 0 0 0 0 0 0 0 0 0 0 0 0 0 0 0 5 7 11 15 20 27 36 59 72 81 59 56 51 61 63 62 58 64 85 89 97 102 99 106 135 129 121 107 106 111 112 109 108 103 91 100 134 130 124 104 102 101 103 89 89 89 93 78 58 52 99 105 88 59 27 18 13 8 2 0 0 0 0 0 0 0 0 0 0 0 1 3 1 0 0 0 0 0 0 0 0 0 0 0 0 0 0 0 0 0 0 0 0 0 0 0 0 0 0 0 0 0 0 0 
0 0 0 0 0 0 0 0 0 0 0 0 0 0 0 0 0 0 0 0 0 0 0 0 3 3 9 12 18 24 34 50 71 76 68 64 67 66 60 48 57 62 85 96 96 96 100 96 111 120 120 105 101 103 102 102 101 100 100 101 119 109 110 99 104 98 106 90 76 69 63 76 78 64 93 101 71 39 21 18 14 8 1 0 0 0 0 0 0 0 0 0 0 0 1 3 1 0 0 0 0 0 0 0 0 0 0 0 0 0 0 0 0 0 0 0 0 0 0 0 0 0 0 0 0 0 0 0 
0 0 0 0 0 0 0 0 0 0 0 0 0 0 0 0 0 0 0 0 0 0 0 0 0 4 5 12 14 19 33 53 63 66 76 62 71 75 58 47 60 59 83 106 97 94 98 78 99 107 104 101 100 89 91 99 100 96 102 115 105 100 103 76 92 82 102 85 67 64 54 78 87 74 88 84 46 23 19 17 15 7 1 0 0 0 0 0 0 0 0 0 0 0 1 3 1 0 0 0 0 0 0 0 0 0 0 0 0 0 0 0 0 0 0 0 0 0 0 0 0 0 0 0 0 0 0 0 
0 0 0 0 0 0 0 0 0 0 0 0 0 0 0 0 0 0 0 0 0 0 0 0 0 3 3 11 15 18 22 34 43 43 69 60 77 85 51 47 58 56 81 107 90 93 92 72 91 106 105 104 101 96 96 98 97 102 111 109 101 100 97 78 93 77 91 80 67 63 50 82 97 77 92 43 16 17 19 18 14 7 1 0 0 0 0 0 0 0 0 0 0 0 1 3 1 0 0 0 0 0 0 0 0 0 0 0 0 0 0 0 0 0 0 0 0 0 0 0 0 0 0 0 0 0 0 0 
0 0 0 0 0 0 0 0 0 0 0 0 0 0 0 0 0 0 0 0 0 0 0 0 0 0 4 6 14 17 20 21 20 16 33 74 95 89 47 55 62 51 77 88 70 75 79 64 84 104 105 105 103 100 94 88 93 98 105 102 100 97 99 84 92 76 68 84 63 67 57 70 103 87 67 24 15 16 18 16 13 6 0 0 0 0 0 0 0 0 0 0 0 0 1 3 1 0 0 0 0 0 0 0 0 0 0 0 0 0 0 0 0 0 0 0 0 0 0 0 0 0 0 0 0 0 0 0 
0 0 0 0 0 0 0 0 0 0 0 0 0 0 0 0 0 0 0 0 0 0 0 0 0 0 2 4 10 14 18 19 19 16 11 35 69 82 60 65 65 53 83 88 65 70 72 68 96 103 98 107 112 105 91 82 97 104 97 95 95 99 108 92 93 80 74 101 69 69 76 75 89 67 34 19 13 16 17 15 10 6 1 0 0 0 0 0 0 0 0 0 0 0 1 3 1 0 0 0 0 0 0 0 0 0 0 0 0 0 0 0 0 0 0 0 0 0 0 0 0 0 0 0 0 0 0 0 
0 0 0 0 0 0 0 0 0 0 0 0 0 0 0 0 0 0 0 0 0 0 0 0 0 0 0 3 9 8 16 19 19 18 12 14 33 75 80 68 65 69 94 92 79 82 86 82 99 106 97 104 113 109 100 100 110 108 109 107 99 100 107 87 78 74 77 108 94 80 84 91 74 34 25 16 11 17 16 13 10 6 1 0 0 0 0 0 0 0 0 0 0 0 1 3 1 0 0 0 0 0 0 0 0 0 0 0 0 0 0 0 0 0 0 0 0 0 0 0 0 0 0 0 0 0 0 0 
0 0 0 0 0 0 0 0 0 0 0 0 0 0 0 0 0 0 0 0 0 0 0 0 0 0 0 3 5 8 11 17 20 19 13 13 19 32 68 67 80 91 95 96 95 92 91 97 97 102 105 99 104 97 93 99 103 100 104 109 98 84 104 98 85 82 91 111 104 92 81 72 34 27 25 16 14 17 15 13 9 5 1 0 0 0 0 0 0 0 0 0 0 0 1 3 1 0 0 0 0 0 0 0 0 0 0 0 0 0 0 0 0 0 0 0 0 0 0 0 0 0 0 0 0 0 0 0 
0 0 0 0 0 0 0 0 0 0 0 0 0 0 0 0 0 0 0 0 0 0 0 0 0 0 0 0 3 8 8 15 18 19 16 13 18 21 33 59 76 88 89 100 100 98 103 108 101 114 116 103 94 98 103 106 107 107 112 117 119 96 104 111 102 89 96 109 97 85 62 36 26 26 23 15 15 17 15 11 9 5 1 0 0 0 0 0 0 0 0 0 0 0 1 3 1 0 0 0 0 0 0 0 0 0 0 0 0 0 0 0 0 0 0 0 0 0 0 0 0 0 0 0 0 0 0 0 
0 0 0 0 0 0 0 0 0 0 0 0 0 0 0 0 0 0 0 0 0 0 0 0 0 0 0 0 1 8 8 13 17 20 16 13 14 20 25 30 34 52 71 96 106 102 108 106 101 113 123 112 96 95 96 95 92 99 112 113 122 110 103 112 108 95 104 104 72 47 28 28 26 25 21 16 13 16 14 10 9 5 1 0 0 0 0 0 0 0 0 0 0 0 0 3 1 0 0 0 0 0 0 0 0 0 0 0 0 0 0 0 0 0 0 0 0 0 0 0 0 0 0 0 0 0 0 0 
0 0 0 0 0 0 0 0 0 0 0 0 0 0 0 0 0 0 0 0 0 0 0 0 0 0 0 0 0 6 6 12 14 19 17 11 12 20 25 29 29 32 41 55 86 98 103 104 91 107 123 120 103 89 80 78 75 86 105 101 110 117 107 108 109 94 86 58 41 39 29 27 26 24 20 17 12 16 14 11 9 4 1 0 0 0 0 0 0 0 0 0 0 0 1 3 1 0 0 0 0 0 0 0 0 0 0 0 0 0 0 0 0 0 0 0 0 0 0 0 0 0 0 0 0 0 0 0 
0 0 0 0 0 0 0 0 0 0 0 0 0 0 0 0 0 0 0 0 0 0 0 0 0 0 0 0 0 4 6 9 13 17 17 11 11 20 25 28 30 31 30 36 52 76 84 82 83 93 118 117 104 94 94 99 92 92 100 105 112 112 97 90 84 68 51 44 38 37 28 26 26 24 19 16 14 16 15 13 10 4 1 0 0 0 0 0 0 0 0 0 0 0 1 3 1 0 0 0 0 0 0 0 0 0 0 0 0 0 0 0 0 0 0 0 0 0 0 0 0 0 0 0 0 0 0 0 
