P2
128 99
241
0 0 0 0 0 0 0 0 0 0 0 0 0 0 0 0 0 0 0 0 0 0 0 0 0 0 0 0 0 0 0 0 0 0 0 0 0 0 0 0 4 7 5 2 0 0 0 0 0 0 0 0 0 0 0 0 0 0 0 0 0 0 0 0 0 0 0 0 0 0 0 0 0 0 0 0 0 0 0 0 0 0 0 2 7 4 2 0 0 0 0 0 0 0 0 0 0 0 0 0 0 0 0 0 0 0 0 0 0 0 0 0 0 0 0 0 0 0 0 0 0 0 0 0 0 0 0 0 
0 0 0 0 0 0 0 0 0 0 0 0 0 0 0 0 0 0 0 0 0 0 0 0 0 0 0 0 0 0 0 0 0 0 0 0 0 0 0 0 4 7 6 3 0 0 0 0 0 0 0 0 0 0 0 0 0 0 0 0 0 0 0 0 0 0 0 0 0 0 0 0 0 0 0 0 0 0 0 0 0 0 0 2 6 6 2 0 0 0 0 0 0 0 0 0 0 0 0 0 0 0 0 0 0 0 0 0 0 0 0 0 0 0 0 0 0 0 0 0 0 0 0 0 0 0 0 0 
0 0 0 0 0 0 0 0 0 0 0 0 0 0 0 0 0 0 0 0 0 0 0 0 0 0 0 0 0 0 0 0 0 0 0 0 0 0 0 1 6 8 7 3 0 0 0 0 0 0 0 0 2 4 2 0 0 0 0 0 0 0 0 0 0 0 0 0 0 0 0 0 0 0 0 0 0 0 0 0 0 0 0 4 7 7 2 0 0 0 0 0 0 0 0 0 0 0 0 0 0 0 0 0 0 0 0 0 0 0 0 0 0 0 0 0 0 0 0 0 0 0 0 0 0 0 0 0 
0 0 0 0 0 0 0 0 0 0 0 0 0 0 0 0 0 0 0 0 0 0 0 0 0 0 0 0 0 0 0 0 0 0 0 0 0 0 0 0 4 8 6 1 1 16 21 19 15 14 16 20 28 29 26 28 25 8 6 7 5 0 0 0 0 0 0 0 0 0 0 0 0 0 0 0 0 0 0 0 0 0 0 2 7 7 3 0 0 0 0 0 0 0 0 0 0 0 0 0 0 0 0 0 0 0 0 0 0 0 0 0 0 0 0 0 0 0 0 0 0 0 0 0 0 0 0 0 
0 0 0 0 0 0 0 0 0 0 0 0 0 0 0 0 0 0 0 0 0 0 0 0 0 0 0 0 0 0 0 0 0 0 0 0 0 0 0 0 6 17 21 22 17 28 50 68 83 96 107 118 123 125 126 119 104 83 61 47 40 16 8 10 4 0 0 0 0 0 0 0 0 0 0 0 0 0 0 0 0 0 0 1 6 7 3 0 0 0 0 0 0 0 0 0 0 0 0 0 0 0 0 0 0 0 0 0 0 0 0 0 0 0 0 0 0 0 0 0 0 0 0 0 0 0 0 0 
0 0 0 0 0 0 0 0 0 0 0 0 0 0 0 0 0 0 0 0 0 0 0 0 0 0 0 0 0 0 0 0 0 0 0 0 0 0 3 11 26 25 39 67 94 116 136 154 170 186 203 212 216 218 220 222 222 215 196 168 136 97 68 52 22 8 10 2 0 0 0 0 0 0 0 0 0 0 0 0 0 0 0 2 7 7 4 0 0 0 0 0 0 0 0 0 0 0 0 0 0 0 0 0 0 0 0 0 0 0 0 0 0 0 0 0 0 0 0 0 0 0 0 0 0 0 0 0 
0 0 0 0 0 0 0 0 0 0 0 0 0 0 0 0 0 0 0 0 0 0 0 0 0 0 0 0 0 0 0 0 0 0 0 0 3 20 19 17 60 97 122 142 157 184 216 220 205 186 175 166 160 156 152 151 157 168 180 197 217 214 181 140 96 63 46 15 10 3 0 0 0 0 0 0 0 0 0 0 0 0 0 2 7 7 1 0 0 0 0 0 0 0 0 0 0 0 0 0 0 0 0 0 0 0 0 0 0 0 0 0 0 0 0 0 0 0 0 0 0 0 0 0 0 0 0 0 
0 0 0 0 0 0 0 0 0 0 0 0 0 0 0 0 0 0 0 0 0 0 0 0 0 0 0 0 0 0 0 0 0 0 4 22 18 18 61 104 135 152 183 217 228 204 177 155 135 129 137 148 145 130 132 148 152 149 146 146 151 166 193 220 215 170 127 76 46 20 10 2 0 0 0 0 0 0 0 0 0 0 0 4 8 7 1 0 0 0 0 0 0 0 0 0 0 0 0 0 0 0 0 0 0 0 0 0 0 0 0 0 0 0 0 0 0 0 0 0 0 0 0 0 0 0 0 0 
0 0 0 0 0 0 0 0 0 0 0 0 0 0 0 0 0 0 0 0 0 0 0 0 0 0 0 0 0 0 0 0 6 24 19 22 60 103 136 158 196 224 209 179 150 135 123 108 105 108 109 110 104 100 96 105 121 143 154 155 153 147 146 152 172 204 219 184 135 81 43 23 8 0 0 0 0 0 0 0 0 0 0 4 8 7 1 0 0 0 0 0 0 0 0 0 0 0 0 0 0 0 0 0 0 0 0 0 0 0 0 0 0 0 0 0 0 0 0 0 0 0 0 0 0 0 0 0 
0 0 0 0 0 0 0 0 0 0 0 0 0 0 0 0 0 0 0 0 0 0 0 0 0 0 0 0 0 0 0 23 26 18 45 97 132 150 191 226 205 171 141 118 109 104 104 110 101 100 129 141 142 140 136 134 128 130 143 152 157 159 154 146 141 144 159 188 211 181 126 68 27 17 4 0 0 0 0 0 0 0 0 4 8 7 3 0 0 0 0 0 0 0 0 0 0 0 0 0 0 0 0 0 0 0 0 0 0 0 0 0 0 0 0 0 0 0 0 0 0 0 0 0 0 0 0 0 
0 0 0 0 0 0 0 0 0 0 0 0 0 0 0 0 0 0 0 0 0 0 0 0 0 0 0 0 0 10 30 19 24 80 121 143 182 220 202 162 142 133 121 109 114 130 138 117 98 88 95 111 107 100 91 87 88 90 103 135 154 170 174 165 157 152 143 142 154 193 211 165 101 43 23 4 0 0 0 0 0 0 0 4 7 6 3 0 0 0 0 0 0 0 0 0 0 0 0 0 0 0 0 0 0 0 0 0 0 0 0 0 0 0 0 0 0 0 0 0 0 0 0 0 0 0 0 0 
0 0 0 0 0 0 0 0 0 0 0 0 0 0 0 0 0 0 0 0 0 0 0 0 0 0 0 0 25 23 11 42 106 136 162 208 204 160 140 137 134 125 126 137 137 128 101 92 92 99 107 114 119 123 124 120 114 104 91 96 118 137 155 173 185 176 164 149 140 141 162 202 199 133 58 23 8 0 0 0 0 0 1 4 7 8 3 0 0 0 0 0 0 0 0 0 0 0 0 0 0 0 0 0 0 0 0 0 0 0 0 0 0 0 0 0 0 0 0 0 0 0 0 0 0 0 0 0 
0 0 0 0 0 0 0 0 0 0 0 0 0 0 0 0 0 0 0 0 0 0 0 0 0 0 5 30 16 14 65 122 148 183 210 171 142 140 138 139 144 149 153 162 165 163 159 155 148 148 133 121 126 149 174 183 183 182 176 159 129 119 131 143 156 174 189 178 160 147 138 148 183 209 149 73 22 12 0 0 0 0 0 5 7 7 4 0 0 0 0 0 0 0 0 0 0 0 0 0 0 0 0 0 0 0 0 0 0 0 0 0 0 0 0 0 0 0 0 0 0 0 0 0 0 0 0 0 
0 0 0 0 0 0 0 0 0 0 0 0 0 0 0 0 0 0 0 0 0 0 0 0 0 10 28 14 18 83 135 159 202 194 147 137 139 142 149 147 156 171 181 177 171 173 175 173 178 172 151 136 135 134 138 152 161 161 167 174 174 156 135 133 138 145 159 177 182 171 157 145 142 171 205 156 82 21 15 0 0 0 0 5 7 8 3 0 0 0 0 0 0 0 0 0 0 0 0 0 0 0 0 0 0 0 0 0 0 0 0 0 0 0 0 0 0 0 0 0 0 0 0 0 0 0 0 0 
0 0 0 0 0 0 0 0 0 0 0 0 0 0 0 0 0 0 0 0 0 0 0 0 15 26 12 26 99 142 172 211 179 140 133 130 149 155 159 164 174 173 167 163 169 169 152 153 157 148 148 142 130 126 124 128 142 153 154 154 152 154 147 142 144 143 144 146 150 177 182 163 148 141 165 206 159 91 25 15 0 0 0 4 9 7 4 0 0 0 0 0 0 0 0 0 0 0 0 0 0 0 0 0 0 0 0 0 0 0 0 0 0 0 0 0 0 0 0 0 0 0 0 0 0 0 0 0 
0 0 0 0 0 0 0 0 0 0 0 0 0 0 0 0 0 0 0 0 0 0 6 18 22 13 41 113 152 188 213 167 136 122 134 156 157 159 168 171 162 156 162 169 167 156 146 146 149 149 147 140 130 131 137 139 137 137 143 150 148 146 146 139 129 134 145 147 140 142 164 179 160 144 137 166 209 158 96 31 13 0 0 4 9 10 6 0 0 0 0 0 0 0 0 0 0 0 0 0 0 0 0 0 0 0 0 0 0 0 0 0 0 0 0 0 0 0 0 0 0 0 0 0 0 0 0 0 
0 0 0 0 0 0 0 0 0 0 0 0 0 0 0 0 0 0 0 0 0 8 15 17 13 48 122 157 189 211 161 132 123 142 167 162 158 163 161 154 153 164 166 137 98 85 103 124 121 116 138 145 137 133 129 126 135 138 136 136 125 122 123 139 138 123 122 139 147 142 137 150 173 157 143 137 173 214 154 103 32 9 0 7 8 7 4 0 0 0 0 0 0 0 0 0 0 0 0 0 0 0 0 0 0 0 0 0 0 0 0 0 0 0 0 0 0 0 0 0 0 0 0 0 0 0 0 0 
0 0 0 0 0 0 0 0 0 0 0 0 0 0 0 0 0 0 0 0 10 14 15 15 60 123 155 179 210 154 126 125 153 170 156 141 136 141 142 155 165 167 137 81 53 53 55 67 64 62 90 111 100 89 79 81 94 115 135 145 139 127 120 125 137 137 127 121 131 145 145 138 147 166 157 142 140 179 216 148 100 27 5 6 9 8 3 0 0 0 0 0 0 0 0 0 0 0 0 0 0 0 0 0 0 0 0 0 0 0 0 0 0 0 0 0 0 0 0 0 0 0 0 0 0 0 0 0 
0 0 0 0 0 0 0 0 0 0 0 0 0 0 0 0 0 0 0 8 15 12 16 67 122 156 164 207 153 120 130 152 168 144 123 122 135 141 152 155 149 119 81 58 59 72 86 98 107 115 123 129 137 140 141 139 141 139 144 152 158 155 141 127 115 111 121 130 116 119 138 143 131 142 161 152 139 139 195 207 137 90 20 9 10 9 5 0 0 0 0 0 0 0 0 0 0 0 0 0 0 0 0 0 0 0 0 0 0 0 0 0 0 0 0 0 0 0 0 0 0 0 0 0 0 0 0 0 
0 0 0 0 0 0 0 0 0 0 0 0 0 0 0 0 0 0 7 14 12 18 74 117 157 150 198 160 120 140 159 162 137 116 120 131 143 144 144 138 102 73 80 102 124 137 148 158 165 159 152 165 164 166 163 160 164 165 164 164 171 173 172 162 136 115 115 119 131 116 110 133 143 126 140 149 142 140 147 210 187 127 83 23 13 10 4 0 0 0 0 0 0 0 0 0 0 0 0 0 0 0 0 0 0 0 0 0 0 0 0 0 0 0 0 0 0 0 0 0 0 0 0 0 0 0 0 0 
0 0 0 0 0 0 0 0 0 0 0 0 0 0 0 0 0 6 16 12 19 76 109 153 150 192 179 122 143 163 156 129 112 115 132 135 136 132 125 96 86 116 145 156 155 152 154 153 149 141 136 141 142 141 135 137 139 139 142 145 152 162 175 179 167 146 130 121 127 134 120 109 127 144 130 140 145 132 136 169 208 153 121 88 25 10 4 0 0 0 0 0 0 0 0 0 0 0 0 0 0 0 0 0 0 0 0 0 0 0 0 0 0 0 0 0 0 0 0 0 0 0 0 0 0 0 0 0 
0 0 0 0 0 0 0 0 0 0 0 0 0 0 0 0 0 14 12 17 84 107 143 146 172 199 134 137 167 155 123 113 114 126 115 127 135 111 83 94 137 164 165 157 151 147 144 134 134 128 122 127 131 131 129 127 128 130 131 137 138 139 160 172 169 156 148 133 121 127 141 129 108 128 144 126 143 136 129 141 199 189 142 113 76 18 4 0 0 0 0 0 0 0 0 0 0 0 0 0 0 0 0 0 0 0 0 0 0 0 0 0 0 0 0 0 0 0 0 0 0 0 0 0 0 0 0 0 
0 0 0 0 0 0 0 0 0 0 0 0 0 0 0 0 8 15 16 90 113 129 144 154 200 154 130 157 153 120 111 124 121 105 118 129 105 68 85 139 169 173 168 159 150 145 146 139 136 131 119 128 138 137 139 133 133 135 134 136 140 138 146 160 164 156 141 139 129 119 122 133 127 116 134 140 116 136 122 124 168 214 166 128 103 50 10 0 0 0 0 0 0 0 0 0 0 0 0 0 0 0 0 0 0 0 0 0 0 0 0 0 0 0 0 0 0 0 0 0 0 0 0 0 0 0 0 0 
0 0 0 0 0 0 0 0 0 0 0 0 0 0 0 1 15 14 72 121 116 138 142 183 179 129 154 147 121 108 124 129 110 119 127 88 55 70 122 164 173 169 168 161 162 158 158 157 158 152 148 151 157 149 140 145 148 145 140 140 143 146 147 150 155 164 151 124 133 130 121 122 123 130 129 136 129 116 121 115 142 209 186 151 110 98 17 0 0 0 0 0 0 0 0 0 0 0 0 0 0 0 0 0 0 0 0 0 0 0 0 0 0 0 0 0 0 0 0 0 0 0 0 0 0 0 0 0 
0 0 0 0 0 0 0 0 0 0 0 0 0 0 0 6 14 32 125 110 127 136 153 197 146 142 145 131 108 122 139 119 121 126 93 51 60 106 150 168 164 152 157 156 154 155 154 149 149 154 160 158 158 150 135 148 144 146 138 138 130 133 143 147 150 158 160 140 120 133 130 120 124 129 130 129 133 126 121 105 125 185 203 154 137 111 47 4 0 0 0 0 0 0 0 0 0 0 0 0 0 0 0 0 0 0 0 0 0 0 0 0 0 0 0 0 0 0 0 0 0 0 0 0 0 0 0 0 
0 0 0 0 0 0 0 0 0 0 0 0 0 0 1 12 13 94 121 115 134 137 171 185 143 136 132 114 118 145 140 128 129 96 52 52 91 145 162 163 165 154 143 138 125 140 136 131 134 145 160 151 144 164 131 125 122 124 100 90 105 122 124 133 140 150 150 158 123 112 129 126 125 121 127 129 129 136 126 94 100 165 210 160 152 109 84 6 0 0 0 0 0 0 0 0 0 0 0 0 0 0 0 0 0 0 0 0 0 0 0 0 0 0 0 0 0 0 0 0 0 0 0 0 0 0 0 0 
0 0 0 0 0 0 0 0 0 0 0 0 0 0 7 14 39 131 110 114 131 139 185 170 133 117 124 122 133 141 135 139 104 55 50 79 133 158 163 161 149 130 110 99 107 116 118 102 92 107 156 143 124 134 85 97 96 97 93 68 63 65 95 119 138 145 133 149 153 116 114 133 127 117 123 138 137 136 138 95 80 131 193 169 150 124 110 24 0 0 0 0 0 0 0 0 0 0 0 0 0 0 0 0 0 0 0 0 0 0 0 0 0 0 0 0 0 0 0 0 0 0 0 0 0 0 0 0 
0 0 0 0 0 0 0 0 0 0 0 0 0 0 13 17 92 126 105 127 135 148 188 146 116 106 126 139 143 140 133 98 54 48 71 120 152 146 150 148 122 95 84 76 79 76 71 62 61 68 110 116 104 106 76 73 74 71 69 60 59 58 60 73 121 144 132 133 150 146 103 113 135 135 130 139 149 144 140 114 67 106 175 175 139 142 109 48 4 0 0 0 0 0 0 0 0 0 0 0 0 0 0 0 0 0 0 0 0 0 0 0 0 0 0 0 0 0 0 0 0 0 0 0 0 0 0 0 
0 0 0 0 0 0 0 0 0 0 0 0 0 5 14 34 127 113 109 134 131 161 169 128 100 117 138 146 143 136 118 66 48 62 112 150 141 125 140 142 106 78 69 65 70 72 68 64 65 67 73 86 89 92 88 85 73 67 64 65 65 61 59 60 85 132 126 131 140 163 134 96 114 140 138 139 148 149 146 132 63 89 150 185 139 150 108 70 5 0 0 0 0 0 0 0 0 0 0 0 0 0 0 0 0 0 0 0 0 0 0 0 0 0 0 0 0 0 0 0 0 0 0 0 0 0 0 0 
0 0 0 0 0 0 0 0 0 0 0 0 0 7 14 68 136 101 125 137 133 165 149 105 90 130 148 149 143 131 81 50 60 107 152 162 152 137 142 127 100 81 74 77 85 84 80 76 75 81 88 94 97 99 97 95 88 79 75 76 72 69 65 60 64 98 117 124 129 157 167 122 88 118 136 142 150 149 152 151 78 77 138 179 149 152 111 85 9 0 0 0 0 0 0 0 0 0 0 0 0 0 0 0 0 0 0 0 0 0 0 0 0 0 0 0 0 0 0 0 0 0 0 0 0 0 0 0 
0 0 0 0 0 0 0 0 0 0 0 0 0 10 15 100 130 102 136 130 123 156 129 95 108 149 151 156 136 91 52 59 107 160 165 153 138 121 125 124 117 106 98 90 95 97 93 92 89 93 102 103 102 106 106 104 100 93 88 87 85 78 76 70 66 75 119 131 118 134 171 170 112 86 122 138 148 146 150 152 95 70 135 176 148 149 121 94 13 0 0 0 0 0 0 0 0 0 0 0 0 0 0 0 0 0 0 0 0 0 0 0 0 0 0 0 0 0 0 0 0 0 0 0 0 0 0 0 
0 0 0 0 0 0 0 0 0 0 0 0 0 13 25 132 116 108 134 119 106 153 119 89 128 152 153 156 101 53 51 103 161 174 144 139 132 108 123 125 131 134 119 101 101 102 105 105 106 106 107 104 107 108 110 111 108 105 100 99 96 92 90 87 81 83 118 130 107 107 143 182 167 106 102 130 140 146 147 147 111 75 133 174 149 150 132 103 23 0 0 0 0 0 0 0 0 0 0 0 0 0 0 0 0 0 0 0 0 0 0 0 0 0 0 0 0 0 0 0 0 0 0 0 0 0 0 0 
0 0 0 0 0 0 0 0 0 0 0 0 2 12 40 140 109 118 123 110 103 153 113 102 138 154 152 130 62 47 84 158 175 148 114 134 138 116 111 119 125 119 112 108 107 107 109 111 108 108 104 102 104 105 107 108 107 108 106 112 125 112 106 104 111 132 107 101 83 87 111 156 185 162 99 118 136 144 146 147 118 86 129 172 154 148 140 103 38 3 0 0 0 0 0 0 0 0 0 0 0 0 0 0 0 0 0 0 0 0 0 0 0 0 0 0 0 0 0 0 0 0 0 0 0 0 0 0 
0 0 0 0 0 0 0 0 0 0 0 0 5 11 58 139 101 125 111 107 113 154 121 114 141 151 150 103 50 50 127 177 159 130 120 135 147 121 113 120 119 113 115 119 116 109 106 106 106 106 108 106 103 101 103 105 105 105 106 127 171 146 122 114 112 100 81 56 86 87 98 130 165 188 147 109 132 134 147 150 120 90 120 172 160 148 147 108 51 4 0 0 0 0 0 0 0 0 0 0 0 0 0 0 0 0 0 0 0 0 0 0 0 0 0 0 0 0 0 0 0 0 0 0 0 0 0 0 
0 0 0 0 0 0 0 0 0 0 0 0 6 9 75 136 105 130 106 109 131 152 130 118 142 154 136 72 44 59 156 170 140 112 117 132 152 142 132 123 119 121 116 122 125 115 104 102 102 102 104 102 102 100 101 101 102 104 105 135 159 131 117 109 107 102 91 71 114 105 103 106 133 172 183 141 132 132 145 134 113 104 109 169 162 150 150 117 60 5 0 0 0 0 0 0 0 0 0 0 0 0 0 0 0 0 0 0 0 0 0 0 0 0 0 0 0 0 0 0 0 0 0 0 0 0 0 0 
0 0 0 0 0 0 0 0 0 0 0 0 6 10 92 131 109 129 108 113 140 152 141 130 142 147 109 54 46 69 164 146 112 114 128 136 153 140 131 125 123 138 117 107 114 144 138 111 101 98 100 102 113 102 100 100 102 102 105 137 153 114 100 103 105 106 103 94 70 63 80 109 118 136 170 187 152 138 146 142 122 116 105 163 167 154 153 127 65 5 0 0 0 0 0 0 0 0 0 0 0 0 0 0 0 0 0 0 0 0 0 0 0 0 0 0 0 0 0 0 0 0 0 0 0 0 0 0 
0 0 0 0 0 0 0 0 0 0 0 0 5 10 101 124 117 132 109 117 151 165 146 140 146 142 90 49 52 81 164 121 99 124 139 120 101 102 108 116 129 141 123 99 95 106 154 134 106 103 103 104 126 109 102 119 116 104 111 143 138 100 97 100 103 110 105 88 64 50 47 47 98 149 147 189 203 161 146 141 122 122 116 174 168 151 151 138 68 6 0 0 0 0 0 0 0 0 0 0 0 0 0 0 0 0 0 0 0 0 0 0 0 0 0 0 0 0 0 0 0 0 0 0 0 0 0 0 
0 0 0 0 0 0 0 0 0 0 0 0 5 12 109 122 125 127 107 123 154 172 152 139 141 125 78 49 53 105 154 109 125 132 102 103 102 104 110 113 113 109 103 113 109 106 118 139 122 123 124 107 113 114 118 151 139 125 131 134 114 109 104 98 102 106 109 101 80 57 46 45 47 85 157 173 222 205 146 132 121 125 137 179 162 148 154 140 73 8 0 0 0 0 0 0 0 0 0 0 0 0 0 0 0 0 0 0 0 0 0 0 0 0 0 0 0 0 0 0 0 0 0 0 0 0 0 0 
0 0 0 0 0 0 0 0 0 0 0 0 4 13 109 112 125 121 109 126 149 178 168 142 146 118 79 55 62 135 139 129 135 92 103 103 106 109 115 115 115 107 97 90 100 114 93 101 110 114 121 134 114 111 139 134 129 129 118 109 104 95 95 97 104 109 114 109 89 67 54 49 44 44 89 185 214 235 176 128 115 131 140 167 152 152 150 138 82 12 0 0 0 0 0 0 0 0 0 0 0 0 0 0 0 0 0 0 0 0 0 0 0 0 0 0 0 0 0 0 0 0 0 0 0 0 0 0 
0 0 0 0 0 0 0 0 0 0 0 0 7 14 100 108 130 132 111 129 139 178 172 148 142 111 88 76 88 157 138 145 86 89 104 110 107 109 116 118 118 110 95 91 92 99 94 93 92 90 90 117 121 107 134 96 91 91 91 95 99 90 94 93 105 112 115 113 96 71 57 54 58 66 79 146 217 230 213 139 112 130 137 152 138 146 147 138 91 15 0 0 0 0 0 0 0 0 0 0 0 0 0 0 0 0 0 0 0 0 0 0 0 0 0 0 0 0 0 0 0 0 0 0 0 0 0 0 
0 0 0 0 0 0 0 0 0 0 0 0 6 16 96 109 139 140 113 125 126 179 177 154 136 91 85 97 144 165 156 113 79 95 107 110 105 109 113 116 116 109 98 88 88 88 101 89 91 89 88 108 119 102 118 90 94 92 91 102 95 90 85 98 110 112 116 119 103 84 80 75 69 76 81 113 202 217 222 155 113 127 144 146 129 134 148 140 97 20 0 0 0 0 0 0 0 0 0 0 0 0 0 0 0 0 0 0 0 0 0 0 0 0 0 0 0 0 0 0 0 0 0 0 0 0 0 0 
0 0 0 0 0 0 0 0 0 0 0 0 7 17 86 108 142 138 117 111 124 180 189 156 129 75 77 100 177 183 174 98 85 103 112 111 106 106 107 112 112 104 99 91 86 88 98 105 90 89 93 108 127 125 128 93 93 91 94 105 91 82 93 106 114 130 134 125 108 86 81 77 72 76 79 91 171 222 219 161 116 123 141 141 128 118 145 138 100 23 0 0 0 0 0 0 0 0 0 0 0 0 0 0 0 0 0 0 0 0 0 0 0 0 0 0 0 0 0 0 0 0 0 0 0 0 0 0 
0 0 0 0 0 0 0 0 0 0 0 0 8 18 84 112 146 139 100 93 122 180 188 158 121 68 78 127 182 176 157 86 92 116 127 127 120 117 115 113 110 103 98 93 90 89 93 113 93 92 91 102 130 139 141 110 92 93 97 102 84 91 109 122 127 129 130 123 101 84 80 79 74 78 78 84 145 204 194 149 120 106 106 135 134 111 153 135 105 28 1 0 0 0 0 0 0 0 0 0 0 0 0 0 0 0 0 0 0 0 0 0 0 0 0 0 0 0 0 0 0 0 0 0 0 0 0 0 
0 0 0 0 0 0 0 0 0 0 0 0 7 19 84 118 149 133 81 91 126 180 185 146 120 64 68 139 164 170 145 92 97 105 118 122 126 131 131 125 122 112 100 97 96 88 92 100 94 94 92 99 123 127 130 124 94 91 96 91 90 109 120 118 123 131 131 120 96 81 78 79 84 81 75 89 140 197 207 151 119 96 68 134 135 112 154 133 111 34 1 0 0 0 0 0 0 0 0 0 0 0 0 0 0 0 0 0 0 0 0 0 0 0 0 0 0 0 0 0 0 0 0 0 0 0 0 0 
0 0 0 0 0 0 0 0 0 0 0 0 8 21 85 119 151 130 81 84 133 179 165 134 118 70 70 177 183 170 151 84 76 92 104 107 110 121 132 133 129 124 116 107 99 89 88 90 90 92 99 117 102 92 101 116 102 92 97 96 113 115 103 100 106 127 129 115 91 80 80 79 80 81 77 91 133 191 200 147 119 88 47 112 141 109 158 130 111 40 2 0 0 0 0 0 0 0 0 0 0 0 0 0 0 0 0 0 0 0 0 0 0 0 0 0 0 0 0 0 0 0 0 0 0 0 0 0 
0 0 0 0 0 0 0 0 0 0 0 0 10 22 85 118 148 119 72 77 138 178 140 126 123 79 75 177 182 174 156 78 74 92 102 107 110 116 130 126 114 109 103 110 110 92 89 94 93 96 108 134 102 86 90 93 115 102 112 109 108 100 101 97 105 125 124 106 87 77 77 75 76 82 79 89 137 191 192 143 118 77 42 117 151 109 148 129 114 52 4 0 0 0 0 0 0 0 0 0 0 0 0 0 0 0 0 0 0 0 0 0 0 0 0 0 0 0 0 0 0 0 0 0 0 0 0 0 
0 0 0 0 0 0 0 0 0 0 0 0 10 24 90 114 145 99 73 68 146 164 132 131 128 87 76 169 179 170 168 96 70 90 103 105 104 110 126 129 113 99 94 97 90 94 107 99 99 109 142 139 120 106 95 85 107 108 106 102 96 97 103 104 111 125 118 96 82 77 75 75 76 81 82 92 162 209 193 144 114 69 41 102 156 111 140 118 114 63 4 0 0 0 0 0 0 0 0 0 0 0 0 0 0 0 0 0 0 0 0 0 0 0 0 0 0 0 0 0 0 0 0 0 0 0 0 0 
0 0 0 0 0 0 0 0 0 0 0 0 12 26 89 108 139 90 78 63 145 162 132 128 132 93 74 160 179 164 170 119 69 91 105 104 101 108 118 129 122 106 95 89 81 82 100 90 92 106 145 136 105 93 92 84 97 122 94 92 95 96 99 105 115 122 114 92 80 76 77 74 79 82 78 97 189 219 202 145 111 59 39 97 159 112 135 127 110 69 3 0 0 0 0 0 0 0 0 0 0 0 0 0 0 0 0 0 0 0 0 0 0 0 0 0 0 0 0 0 0 0 0 0 0 0 0 0 
0 0 0 0 0 0 0 0 0 0 0 0 11 23 88 103 136 88 79 58 139 151 130 126 133 104 72 151 173 145 179 136 67 90 107 106 108 112 114 124 122 113 94 86 74 71 86 89 100 113 114 92 99 96 99 89 92 115 107 99 90 92 95 106 112 118 111 91 83 79 78 78 82 79 70 105 202 223 218 161 106 51 40 106 150 109 123 127 106 71 2 0 0 0 0 0 0 0 0 0 0 0 0 0 0 0 0 0 0 0 0 0 0 0 0 0 0 0 0 0 0 0 0 0 0 0 0 0 
0 0 0 0 0 0 0 0 0 0 0 0 6 20 95 98 138 96 82 57 126 145 128 123 128 108 76 154 164 128 156 152 79 95 111 116 113 121 127 127 124 115 97 87 72 70 87 91 106 120 96 87 98 101 119 103 93 97 122 111 97 96 98 108 113 123 114 95 79 72 73 75 70 64 56 93 196 217 224 184 97 40 48 129 131 103 112 123 103 74 1 0 0 0 0 0 0 0 0 0 0 0 0 0 0 0 0 0 0 0 0 0 0 0 0 0 0 0 0 0 0 0 0 0 0 0 0 0 
0 0 0 0 0 0 0 0 0 0 0 0 3 19 98 94 133 99 81 58 107 140 134 136 133 116 75 157 158 124 161 159 89 98 115 119 121 127 133 132 125 108 92 83 78 82 98 94 117 118 80 81 91 102 123 106 91 87 113 111 113 96 96 103 117 128 117 92 71 71 72 65 60 54 48 90 186 203 218 208 89 37 81 147 113 100 117 125 106 75 2 0 0 0 0 0 0 0 0 0 0 0 0 0 0 0 0 0 0 0 0 0 0 0 0 0 0 0 0 0 0 0 0 0 0 0 0 0 
0 0 0 0 0 0 0 0 0 0 2 0 1 16 94 86 123 105 76 60 83 143 139 137 133 115 74 159 159 137 150 149 92 99 115 115 119 125 133 131 123 110 88 86 86 101 120 105 127 96 79 79 98 108 112 105 94 89 91 122 144 128 104 103 113 118 106 82 68 70 65 59 62 49 51 114 187 185 200 220 89 46 107 141 105 101 128 123 109 71 2 0 0 0 0 0 0 0 0 0 0 0 0 0 0 0 0 0 0 0 0 0 0 0 0 0 0 0 0 0 0 0 0 0 0 0 0 0 
0 0 0 0 0 0 0 0 0 7 17 0 2 8 80 87 114 115 76 65 60 140 156 141 129 119 87 159 165 160 161 149 97 97 115 116 115 119 121 124 120 118 101 92 107 100 94 117 132 89 89 98 97 94 110 121 103 94 86 129 114 136 134 108 113 112 96 73 66 63 59 59 64 45 56 154 182 191 208 202 95 80 123 123 102 101 144 125 115 67 2 0 0 0 0 0 0 0 0 0 0 0 0 0 0 0 0 0 0 0 0 0 0 0 0 0 0 0 0 0 0 0 0 0 0 0 0 0 
0 0 0 0 0 0 0 0 0 0 6 11 2 6 57 92 104 123 79 61 44 115 171 171 140 127 104 161 168 133 119 131 119 102 119 119 116 115 120 124 123 122 109 94 109 100 102 129 134 83 65 84 92 96 92 100 110 101 91 111 122 109 106 120 135 131 101 69 58 55 57 80 96 77 95 171 176 190 198 179 128 105 127 102 101 103 135 112 124 52 0 0 0 0 0 0 0 0 0 0 0 0 0 0 0 0 0 0 0 0 0 0 0 0 0 0 0 0 0 0 0 0 0 0 0 0 0 0 
0 0 0 0 0 0 0 0 0 0 0 13 8 3 34 87 98 130 92 73 46 82 152 171 149 129 119 163 159 88 80 82 112 120 118 125 115 117 121 135 135 112 92 94 105 104 111 141 124 61 70 81 84 93 86 99 113 119 102 98 135 114 102 103 115 122 100 100 88 80 99 116 129 115 106 140 159 183 185 176 147 118 110 92 109 101 113 101 119 32 0 0 0 0 0 0 0 0 0 0 0 0 0 0 0 0 0 0 0 0 0 0 0 0 0 0 0 0 0 0 0 0 0 0 0 0 0 0 
0 0 0 0 0 0 0 0 0 0 0 14 13 4 22 80 92 128 101 79 54 50 122 167 162 136 131 161 147 65 51 51 80 113 127 127 117 118 135 113 110 114 99 94 92 109 124 138 111 67 72 87 88 96 86 83 103 102 120 127 136 116 106 109 113 131 124 99 95 104 115 111 99 68 93 131 154 175 162 176 174 120 86 93 100 107 120 101 103 15 0 0 13 16 2 0 0 0 0 0 0 0 0 0 0 0 0 0 0 0 0 0 0 0 0 0 0 0 0 0 0 0 0 0 0 0 0 0 
0 0 0 0 0 0 0 0 0 0 1 10 9 6 16 68 96 130 138 86 57 37 87 152 169 146 158 164 135 52 39 41 56 105 118 130 125 115 115 110 107 109 104 93 103 96 111 136 109 83 87 103 87 101 92 84 104 99 97 107 128 114 105 108 108 112 115 113 114 111 96 115 106 74 103 133 152 151 149 167 187 120 88 95 119 148 138 92 73 7 4 6 3 0 0 0 0 0 0 0 0 0 0 0 0 0 0 0 0 0 0 0 0 0 0 0 0 0 0 0 0 0 0 0 0 0 0 0 
0 0 0 0 0 0 0 0 0 0 2 6 9 6 11 52 92 120 158 110 69 40 58 135 171 164 180 181 132 51 59 70 62 84 107 103 103 109 112 114 117 116 112 113 113 101 103 128 111 100 78 82 92 103 109 96 109 103 109 120 127 123 120 114 96 74 98 113 115 106 77 100 121 130 138 151 155 132 152 165 200 155 96 114 145 180 151 87 43 5 6 13 0 0 0 0 0 0 0 0 0 0 0 0 0 0 0 0 0 0 0 0 0 0 0 0 0 0 0 0 0 0 0 0 0 0 0 0 
0 0 0 0 0 0 0 0 0 0 1 7 10 1 11 42 84 109 142 139 88 62 54 123 147 182 203 190 143 61 55 80 105 100 114 88 100 131 132 115 113 120 113 110 105 97 109 132 111 95 82 97 110 127 108 100 104 121 129 143 144 129 136 130 97 99 123 123 137 151 156 161 174 180 171 158 123 95 158 173 202 204 160 154 176 169 119 75 20 8 8 11 3 0 0 0 0 0 0 0 0 0 0 0 0 0 0 0 0 0 0 0 0 0 0 0 0 0 0 0 0 0 0 0 0 0 0 0 
0 0 0 0 0 0 0 0 0 0 0 8 9 0 4 19 71 105 132 144 109 108 115 139 109 166 220 196 161 85 62 97 128 115 119 115 119 137 149 139 133 124 115 110 111 104 112 150 129 91 86 95 101 128 113 105 114 123 121 119 135 140 125 91 75 100 132 136 138 148 149 171 175 179 182 172 88 71 129 145 174 159 145 149 154 129 109 57 10 4 4 5 3 0 0 0 0 0 0 0 0 0 0 0 0 0 0 0 0 0 0 0 0 0 0 0 0 0 0 0 0 0 0 0 0 0 0 0 
0 0 0 0 0 0 0 0 0 0 0 2 15 0 0 7 35 89 127 159 139 114 159 133 111 113 175 202 185 135 100 118 128 139 157 170 159 148 130 107 119 124 120 121 122 122 119 146 122 101 96 97 93 126 126 119 115 119 120 110 105 117 103 82 66 65 108 112 122 106 104 143 190 183 187 174 95 61 131 165 174 179 128 145 119 163 144 77 13 0 2 9 4 0 0 0 0 0 0 0 0 0 0 0 0 0 0 0 0 0 0 0 0 0 0 0 0 0 0 0 0 0 0 0 0 0 0 0 
0 0 0 0 0 0 0 0 0 0 0 3 14 1 0 3 24 82 116 146 164 139 129 103 53 54 121 190 185 137 130 147 159 177 165 167 156 144 111 77 93 112 118 113 114 120 130 137 123 108 104 99 94 123 120 127 124 122 98 81 77 84 68 70 65 55 77 111 133 119 120 142 178 181 186 136 63 68 165 186 201 202 138 126 111 173 128 56 5 0 3 9 5 0 0 0 0 0 0 0 0 0 0 0 0 0 0 0 0 0 0 0 0 0 0 0 0 0 0 0 0 0 0 0 0 0 0 0 
0 0 0 0 0 0 0 0 0 0 0 3 14 2 0 1 14 66 107 166 183 160 112 109 100 70 97 157 181 161 147 138 161 171 143 137 151 154 114 74 84 95 109 110 90 88 107 107 125 105 103 109 92 123 125 138 125 100 87 76 54 100 73 66 64 56 72 108 135 122 108 126 164 188 152 94 54 64 169 191 214 196 172 125 123 106 98 37 3 0 5 9 3 0 0 0 0 0 0 0 0 0 0 0 0 0 0 0 0 0 0 0 0 0 0 0 0 0 0 0 0 0 0 0 0 0 0 0 
0 0 0 0 0 0 0 0 0 0 0 3 11 2 0 0 14 48 93 175 186 147 138 137 106 83 81 142 166 162 154 155 149 141 128 128 169 156 94 73 64 58 62 68 63 62 88 84 124 141 136 121 92 114 131 139 98 83 85 77 85 99 72 60 68 57 62 66 83 82 122 153 175 152 109 87 61 77 146 211 200 199 171 97 76 62 74 25 6 0 11 10 0 0 0 0 0 0 0 0 0 0 0 0 0 0 0 0 0 0 0 0 0 0 0 0 0 0 0 0 0 0 0 0 0 0 0 0 
0 0 0 0 0 0 0 0 0 0 0 2 12 2 0 2 15 29 75 143 178 143 175 154 115 101 108 121 125 111 146 160 144 137 170 161 161 134 78 61 58 57 62 60 55 56 75 80 106 117 108 129 120 124 124 92 63 55 48 62 74 103 85 80 69 59 51 65 116 141 160 179 161 96 86 96 76 88 126 169 185 213 151 62 83 87 53 22 10 8 18 5 0 0 0 0 0 0 0 0 0 0 0 0 0 0 0 0 0 0 0 0 0 0 0 0 0 0 0 0 0 0 0 0 0 0 0 0 
0 0 0 0 0 0 0 0 0 0 0 0 9 4 0 6 15 16 53 124 174 142 163 154 116 97 109 127 86 68 110 150 151 145 178 191 158 135 82 57 56 54 56 53 53 53 65 85 84 104 152 157 125 99 94 65 53 68 74 68 72 110 88 86 88 64 47 80 147 168 180 158 84 62 93 110 103 128 174 191 208 181 108 38 46 83 32 24 11 12 17 6 0 0 0 0 0 0 0 0 0 0 0 0 0 0 0 0 0 0 0 0 0 0 0 0 0 0 0 0 0 0 0 0 0 0 0 0 
0 0 0 0 0 0 0 0 0 0 0 0 6 8 0 3 16 14 34 112 158 144 138 178 144 101 105 134 110 60 78 99 139 157 159 187 166 122 72 62 57 60 52 51 53 57 81 121 131 149 150 148 157 152 129 95 81 81 76 68 69 123 142 134 116 70 69 121 169 187 145 73 47 59 100 125 138 185 187 190 145 84 74 33 51 69 25 24 12 8 13 5 0 0 0 0 0 0 0 0 0 0 0 0 0 0 0 0 0 0 0 0 0 0 0 0 0 0 0 0 0 0 0 0 0 0 0 0 
0 0 0 0 0 0 0 0 0 0 0 0 11 11 0 3 11 19 22 74 126 159 144 165 182 138 106 122 134 86 65 64 86 125 159 179 171 132 89 81 67 60 60 88 117 123 158 173 147 138 119 118 141 159 158 146 142 151 158 159 155 182 199 178 154 140 158 167 179 166 82 55 62 88 101 136 141 179 135 199 99 43 62 27 70 42 29 25 8 1 12 3 0 0 0 0 0 0 0 0 0 0 0 0 0 0 0 0 0 0 0 0 0 0 0 0 0 0 0 0 0 0 0 0 0 0 0 0 
0 0 0 0 0 0 0 0 0 0 0 0 18 9 0 3 7 18 17 49 127 169 155 140 159 190 158 119 139 109 89 63 59 99 130 148 153 158 155 148 148 126 146 138 116 114 166 153 137 133 119 108 86 87 121 148 143 150 147 149 161 190 200 193 175 174 171 159 184 120 54 47 57 73 99 136 128 144 129 172 145 153 154 116 66 28 22 17 4 1 13 3 0 0 0 0 0 0 0 0 0 0 0 0 0 0 0 0 0 0 0 0 0 0 0 0 0 0 0 0 0 0 0 0 0 0 0 0 
0 0 0 0 0 0 0 0 0 0 0 0 16 10 0 3 10 9 23 26 86 171 168 155 141 174 198 144 102 111 99 90 72 73 98 118 121 137 148 163 172 179 171 173 162 165 169 158 132 121 117 119 118 128 139 157 170 172 171 169 176 182 189 176 186 180 132 121 137 83 49 45 59 82 100 138 164 155 138 136 148 150 187 149 39 30 20 16 5 0 13 5 0 0 0 0 0 0 0 0 0 0 0 0 0 0 0 0 0 0 0 0 0 0 0 0 0 0 0 0 0 0 0 0 0 0 0 0 
0 0 0 0 0 0 0 0 0 0 0 0 8 12 0 1 11 9 17 24 36 127 182 172 130 134 183 171 106 108 118 119 89 88 67 67 83 111 140 156 159 169 162 160 156 167 155 157 138 131 125 145 152 128 123 140 146 147 142 138 130 144 142 132 163 172 127 88 104 86 51 72 97 94 117 166 181 183 172 175 152 124 160 70 28 27 19 20 8 0 11 10 0 0 0 0 0 0 0 0 0 0 0 0 0 0 0 0 0 0 0 0 0 0 0 0 0 0 0 0 0 0 0 0 0 0 0 0 
0 0 0 0 0 0 0 0 0 0 0 0 4 8 3 0 8 11 11 21 23 79 181 154 84 77 137 152 115 105 114 117 121 116 91 75 66 77 82 81 106 145 154 141 152 151 132 140 141 127 128 150 160 140 120 106 89 80 70 59 55 97 104 90 130 167 129 79 89 71 72 95 101 100 140 146 160 163 182 183 171 177 150 44 27 21 18 15 7 0 3 13 1 0 0 0 0 0 0 0 0 0 0 0 0 0 0 0 0 0 0 0 0 0 0 0 0 0 0 0 0 0 0 0 0 0 0 0 
0 0 0 0 0 0 0 0 0 0 0 0 3 5 7 1 1 14 16 15 22 46 115 126 95 108 111 134 119 110 152 141 150 131 106 101 76 73 73 64 80 158 146 129 133 134 91 94 108 94 110 132 123 126 89 67 66 60 57 60 59 95 85 80 101 140 111 87 98 84 88 97 110 142 145 123 150 165 172 144 152 158 107 31 23 21 20 16 7 0 0 10 7 0 0 0 0 0 0 0 0 0 0 0 0 0 0 0 0 0 0 0 0 0 0 0 0 0 0 0 0 0 0 0 0 0 0 0 
0 0 0 0 0 0 0 0 0 0 0 0 7 6 6 7 7 10 15 13 18 32 85 91 79 92 110 139 138 128 129 126 129 140 117 103 110 116 94 78 118 197 149 135 133 145 134 92 92 95 110 104 105 121 131 123 108 92 71 55 56 97 89 88 120 144 117 139 204 100 89 83 87 106 129 140 150 161 125 69 61 88 61 25 11 17 21 17 7 0 0 10 13 0 0 0 0 0 0 0 0 0 0 0 0 0 0 0 0 0 0 0 0 0 0 0 0 0 0 0 0 0 0 0 0 0 0 0 
0 0 0 0 0 0 0 0 0 0 0 0 8 8 5 4 3 3 15 17 17 27 61 84 69 43 81 132 109 108 124 93 76 93 103 99 107 112 107 147 182 160 126 132 198 181 183 190 187 185 185 199 203 207 218 228 223 212 193 160 141 162 162 152 143 179 147 133 115 154 87 99 121 145 126 89 90 116 109 89 79 74 24 12 5 14 15 19 10 1 4 6 2 0 0 0 0 0 0 0 0 0 0 0 0 0 0 0 0 0 0 0 0 0 0 0 0 0 0 0 0 0 0 0 0 0 0 0 
0 0 0 0 0 0 0 0 0 0 0 0 3 5 3 0 0 0 3 23 26 22 29 73 84 77 94 68 53 77 127 97 60 55 57 56 106 157 196 174 142 131 137 155 241 142 124 169 164 175 203 206 208 202 205 216 205 192 169 143 150 145 152 166 133 204 172 184 174 202 236 155 65 58 15 38 58 69 104 102 81 29 3 3 5 15 13 16 8 5 3 4 2 0 0 0 0 0 0 0 0 0 0 0 0 0 0 0 0 0 0 0 0 0 0 0 0 0 0 0 0 0 0 0 0 0 0 0 
0 0 0 0 0 0 0 0 0 0 0 0 0 3 2 1 0 0 0 18 23 15 12 35 76 99 95 40 26 34 88 84 99 120 153 136 110 95 93 112 152 160 129 126 179 132 103 145 206 219 216 206 169 157 162 189 209 203 181 146 142 193 199 191 178 183 198 114 231 223 222 214 178 127 88 78 62 56 82 66 37 22 22 15 11 5 13 13 5 0 0 4 8 0 0 0 0 0 0 0 0 0 0 0 0 0 0 0 0 0 0 0 0 0 0 0 0 0 0 0 0 0 0 0 0 0 0 0 
0 0 0 0 0 0 0 0 0 0 0 0 0 3 6 7 6 0 0 2 11 12 16 15 38 67 55 29 32 37 65 55 79 87 116 169 100 74 67 66 85 100 111 171 182 142 185 189 192 194 180 149 121 110 127 152 165 189 189 168 143 136 118 87 80 132 74 33 38 49 59 92 67 48 31 72 64 37 28 25 29 25 17 5 2 5 13 15 10 3 3 7 5 0 0 0 0 0 0 0 0 0 0 0 0 0 0 0 0 0 0 0 0 0 0 0 0 0 0 0 0 0 0 0 0 0 0 0 
0 0 0 0 0 0 0 0 0 0 0 0 0 0 4 6 6 1 0 0 5 11 11 11 14 20 24 25 27 34 64 56 38 30 67 122 90 53 52 51 59 90 107 111 82 78 113 121 133 140 93 62 98 115 125 89 57 80 105 113 107 121 100 96 98 99 74 97 69 42 72 69 39 32 27 79 65 36 29 24 25 22 17 5 1 2 9 13 9 4 4 4 0 0 0 0 0 0 0 0 0 0 0 0 0 0 0 0 0 0 0 0 0 0 0 0 0 0 0 0 0 0 0 0 0 0 0 0 
0 0 0 0 0 0 0 0 0 0 0 0 0 0 0 0 1 0 0 0 3 8 11 20 15 17 39 36 40 49 74 75 53 37 50 100 96 102 146 176 165 122 109 101 111 117 126 141 134 101 78 84 113 128 117 85 51 48 53 86 105 126 89 57 175 226 58 144 173 42 82 56 23 36 58 111 107 79 65 32 21 16 12 7 2 0 0 5 3 3 1 0 0 0 0 0 0 0 0 0 0 0 0 0 0 0 0 0 0 0 0 0 0 0 0 0 0 0 0 0 0 0 0 0 0 0 0 0 
0 0 0 0 0 0 0 0 0 0 0 0 0 0 0 0 0 0 0 0 0 1 9 10 12 10 17 20 33 31 48 69 44 35 49 98 100 70 126 185 121 95 101 99 142 189 206 192 167 132 105 85 88 86 63 60 49 66 90 119 127 119 132 167 160 155 85 213 132 79 76 33 25 29 43 110 125 111 106 57 16 3 0 1 0 0 0 0 0 0 0 0 0 0 0 0 0 0 0 0 0 0 0 0 0 0 0 0 0 0 0 0 0 0 0 0 0 0 0 0 0 0 0 0 0 0 0 0 
0 0 0 0 0 0 0 0 0 0 0 0 0 0 0 0 0 0 0 0 0 0 0 1 8 7 2 16 38 33 32 41 27 32 52 79 100 76 108 132 109 72 108 172 181 117 95 139 85 92 134 97 115 123 103 89 83 90 126 144 152 143 127 146 180 75 80 99 111 72 69 35 20 18 39 119 105 73 56 11 1 0 2 3 4 1 3 4 0 0 0 0 0 0 0 0 0 0 0 0 0 0 0 0 0 0 0 0 0 0 0 0 0 0 0 0 0 0 0 0 0 0 0 0 0 0 0 0 
0 0 0 0 0 0 0 0 0 0 0 0 0 0 0 0 0 0 0 0 0 0 0 1 8 10 52 74 92 92 97 117 107 121 126 109 65 54 141 120 125 149 46 91 149 156 132 147 144 115 80 60 73 96 91 81 71 74 101 96 127 131 119 181 68 48 126 186 66 90 68 71 23 18 14 62 41 9 0 2 16 4 0 0 8 16 23 26 18 11 0 0 0 0 0 0 0 0 0 0 0 0 0 0 0 0 0 0 0 0 0 0 0 0 0 0 0 0 0 0 0 0 0 0 0 0 0 0 
0 0 0 0 0 0 0 0 0 0 0 0 0 0 0 0 0 0 0 0 0 0 3 8 9 14 14 17 20 24 28 57 51 37 77 98 73 62 44 33 35 65 80 92 125 140 60 103 128 115 100 64 65 102 112 97 84 93 121 96 111 158 161 146 223 229 222 123 124 125 122 129 81 33 28 71 56 25 19 12 19 13 1 0 0 4 15 19 16 8 0 0 0 0 0 0 0 0 0 0 0 0 0 0 0 0 0 0 0 0 0 0 0 0 0 0 0 0 0 0 0 0 0 0 0 0 0 0 
0 0 0 0 0 0 0 0 0 0 0 0 0 0 0 0 0 0 0 0 0 0 0 7 9 10 14 16 12 20 23 51 62 41 63 68 47 47 54 47 52 101 76 81 72 77 101 146 133 105 89 63 66 104 99 80 72 89 112 106 110 135 148 147 151 201 215 204 207 92 58 81 80 45 41 72 46 16 9 15 17 17 5 0 0 2 12 19 18 10 0 0 0 0 0 0 0 0 0 0 0 0 0 0 0 0 0 0 0 0 0 0 0 0 0 0 0 0 0 0 0 0 0 0 0 0 0 0 
0 0 0 0 0 0 0 0 0 0 0 0 0 0 0 0 0 0 0 0 0 0 0 5 6 9 15 16 15 18 23 51 75 46 73 54 45 49 47 56 92 103 59 62 87 87 121 148 144 94 105 108 106 129 105 76 84 92 117 147 144 141 143 124 109 127 147 180 166 89 47 47 73 53 38 69 48 14 9 15 17 15 3 0 0 1 10 17 17 10 0 0 0 0 0 0 0 0 0 0 0 0 0 0 0 0 0 0 0 0 0 0 0 0 0 0 0 0 0 0 0 0 0 0 0 0 0 0 
0 0 0 0 0 0 0 0 0 0 0 0 0 0 0 0 0 0 0 0 0 0 0 1 8 6 14 15 18 18 22 49 75 59 80 52 47 56 76 116 118 94 65 67 107 85 88 125 135 88 106 120 135 144 126 105 105 110 124 136 136 148 150 130 101 112 89 121 152 151 86 39 68 72 43 74 59 13 10 14 17 12 3 0 0 4 11 18 18 13 1 0 0 0 0 0 0 0 0 0 0 0 0 0 0 0 0 0 0 0 0 0 0 0 0 0 0 0 0 0 0 0 0 0 0 0 0 0 
0 0 0 0 0 0 0 0 0 0 0 0 0 0 0 0 0 0 0 0 0 0 0 0 2 5 8 13 15 21 21 50 73 68 90 53 53 95 119 91 65 64 64 69 140 93 63 102 115 95 114 123 130 131 132 138 112 124 116 119 131 140 95 80 96 128 72 93 121 142 149 93 64 88 56 74 68 16 12 14 16 11 0 0 0 3 14 21 23 18 5 0 0 0 0 0 0 0 0 0 0 0 0 0 0 0 0 0 0 0 0 0 0 0 0 0 0 0 0 0 0 0 0 0 0 0 0 0 
0 0 0 0 0 0 0 0 0 0 0 0 0 0 0 0 0 0 0 0 0 0 0 0 0 2 7 9 15 22 21 46 80 77 86 50 75 126 89 61 48 42 49 82 145 102 56 74 112 97 117 123 115 103 108 127 102 98 102 98 122 132 73 54 80 149 83 63 74 65 99 146 86 94 80 84 65 16 10 13 17 7 0 0 0 1 7 15 20 16 5 0 0 0 0 0 0 0 0 0 0 0 0 0 0 0 0 0 0 0 0 0 0 0 0 0 0 0 0 0 0 0 0 0 0 0 0 0 
0 0 0 0 0 0 0 0 0 0 0 0 0 0 0 0 0 0 0 0 0 0 0 0 0 0 2 9 12 18 22 36 74 87 69 43 94 151 83 43 37 40 49 75 140 94 57 73 107 96 109 106 86 73 83 100 101 68 73 88 107 110 61 51 68 127 96 52 47 41 53 151 123 81 102 92 40 13 15 17 18 8 0 0 0 0 5 16 18 16 6 0 0 0 0 0 0 0 0 0 0 0 0 0 0 0 0 0 0 0 0 0 0 0 0 0 0 0 0 0 0 0 0 0 0 0 0 0 
0 0 0 0 0 0 0 0 0 0 0 0 0 0 0 0 0 0 0 0 0 0 0 0 0 0 0 7 14 16 16 30 51 56 42 40 92 158 83 37 42 45 58 89 130 81 66 80 101 97 96 90 75 71 75 80 77 73 68 77 97 95 57 52 60 91 116 65 45 34 45 158 130 44 55 33 21 13 16 20 20 10 0 0 0 0 4 15 21 18 9 0 0 0 0 0 0 0 0 0 0 0 0 0 0 0 0 0 0 0 0 0 0 0 0 0 0 0 0 0 0 0 0 0 0 0 0 0 
0 0 0 0 0 0 0 0 0 0 0 0 0 0 0 0 0 0 0 0 0 0 0 0 0 0 0 0 11 18 16 20 17 15 31 36 78 161 111 46 39 41 66 85 91 77 75 86 98 100 92 85 78 76 73 73 81 79 70 75 98 89 64 57 67 65 97 76 47 31 52 157 123 28 27 23 17 11 16 21 19 9 0 0 0 0 6 16 19 17 9 0 0 0 0 0 0 0 0 0 0 0 0 0 0 0 0 0 0 0 0 0 0 0 0 0 0 0 0 0 0 0 0 0 0 0 0 0 
0 0 0 0 0 0 0 0 0 0 0 0 0 0 0 0 0 0 0 0 0 0 0 0 0 0 0 0 9 12 17 17 20 17 30 31 51 133 139 58 44 47 74 78 79 87 77 73 96 103 85 78 90 103 90 87 77 58 67 70 96 86 77 82 77 54 66 78 55 44 81 170 113 23 24 21 16 13 17 21 17 7 0 0 0 0 2 10 17 17 10 0 0 0 0 0 0 0 0 0 0 0 0 0 0 0 0 0 0 0 0 0 0 0 0 0 0 0 0 0 0 0 0 0 0 0 0 0 
0 0 0 0 0 0 0 0 0 0 0 0 0 0 0 0 0 0 0 0 0 0 0 0 0 0 0 0 9 7 15 16 21 19 34 26 31 82 159 102 57 64 97 72 56 74 67 56 73 104 83 72 80 84 70 69 77 65 63 71 94 102 98 82 74 49 62 86 98 79 116 180 80 23 22 14 13 13 17 20 15 6 0 0 0 0 0 9 16 16 10 1 0 0 0 0 0 0 0 0 0 0 0 0 0 0 0 0 0 0 0 0 0 0 0 0 0 0 0 0 0 0 0 0 0 0 0 0 
0 0 0 0 0 0 0 0 0 0 0 0 0 0 0 0 0 0 0 0 0 0 0 0 0 0 0 0 5 9 9 16 16 21 36 29 29 38 128 163 124 147 121 63 59 65 62 51 68 111 88 73 73 79 77 87 83 80 76 87 95 100 80 75 71 58 59 82 129 153 183 151 35 18 18 14 13 11 15 19 12 6 0 0 0 0 1 9 16 18 11 0 0 0 0 0 0 0 0 0 0 0 0 0 0 0 0 0 0 0 0 0 0 0 0 0 0 0 0 0 0 0 0 0 0 0 0 0 
0 0 0 0 0 0 0 0 0 0 0 0 0 0 0 0 0 0 0 0 0 0 0 0 0 0 0 0 0 11 8 12 12 16 43 30 27 24 38 137 185 183 127 54 56 68 65 67 96 126 94 78 68 91 101 99 85 85 89 87 101 118 90 64 62 61 61 74 146 191 155 52 23 21 17 16 7 7 12 12 10 5 0 0 0 0 0 10 18 18 13 3 0 0 0 0 0 0 0 0 0 0 0 0 0 0 0 0 0 0 0 0 0 0 0 0 0 0 0 0 0 0 0 0 0 0 0 0 
0 0 0 0 0 0 0 0 0 0 0 0 0 0 0 0 0 0 0 0 0 0 0 0 0 0 0 0 0 7 9 8 12 13 43 31 21 27 24 31 57 85 66 41 48 73 83 88 109 117 104 75 64 75 84 90 84 82 80 77 89 121 116 63 48 43 57 63 79 70 33 28 26 21 20 16 6 10 7 9 8 3 0 0 0 0 0 10 20 21 12 2 0 0 0 0 0 0 0 0 0 0 0 0 0 0 0 0 0 0 0 0 0 0 0 0 0 0 0 0 0 0 0 0 0 0 0 0 
0 0 0 0 0 0 0 0 0 0 0 0 0 0 0 0 0 0 0 0 0 0 0 0 0 0 0 0 0 4 13 8 9 13 38 33 22 26 25 32 32 31 30 36 42 41 45 51 79 114 114 94 77 76 84 88 82 91 91 79 89 119 126 70 53 54 54 56 48 44 31 28 28 23 19 17 7 8 5 9 8 2 0 0 0 0 2 10 16 16 10 0 0 0 0 0 0 0 0 0 0 0 0 0 0 0 0 0 0 0 0 0 0 0 0 0 0 0 0 0 0 0 0 0 0 0 0 0 
0 0 0 0 0 0 0 0 0 0 0 0 0 0 0 0 0 0 0 0 0 0 0 0 0 0 0 0 0 3 9 10 7 10 43 34 25 22 20 29 31 33 29 37 52 57 48 45 59 102 114 104 99 96 99 99 95 92 95 97 99 116 114 64 49 37 48 45 42 40 36 30 28 25 18 12 10 8 6 10 7 2 0 0 0 0 0 7 15 16 12 4 0 0 0 0 0 0 0 0 0 0 0 0 0 0 0 0 0 0 0 0 0 0 0 0 0 0 0 0 0 0 0 0 0 0 0 0 
