P2
128 99
229
0 0 0 0 0 0 0 0 0 0 0 0 0 0 0 0 0 0 0 0 0 0 0 0 0 0 0 0 0 0 0 1 0 0 0 0 0 0 0 0 0 0 0 0 0 0 0 0 0 0 0 0 0 0 0 0 0 0 0 0 0 0 0 0 0 0 0 0 0 0 0 0 0 0 0 0 0 0 0 0 0 0 0 0 0 0 0 0 0 0 0 0 0 0 0 2 8 6 0 0 0 0 0 0 0 0 0 0 0 0 0 0 0 0 0 0 0 0 0 0 0 0 0 0 0 0 0 0 
0 0 0 0 0 0 0 0 0 0 0 0 0 0 0 0 0 0 0 0 0 0 0 0 0 0 0 0 0 0 0 1 0 0 0 0 0 0 0 0 0 0 0 0 0 0 0 0 0 0 0 0 0 0 0 0 0 0 0 0 0 0 0 0 0 0 0 0 0 0 0 0 0 0 0 0 0 0 0 0 0 0 0 0 0 0 0 0 0 0 0 0 0 0 0 2 8 6 0 0 0 0 0 0 0 0 0 0 0 0 0 0 0 0 0 0 0 0 0 0 0 0 0 0 0 0 0 0 
0 0 0 0 0 0 0 0 0 0 0 0 0 0 0 0 0 0 0 0 0 0 0 0 0 0 0 0 0 0 0 1 0 0 0 0 0 0 0 0 0 0 0 0 0 0 0 0 0 0 0 3 4 2 0 0 0 0 0 0 0 0 0 0 0 0 0 0 0 0 0 0 0 0 0 0 0 0 0 0 0 0 0 0 0 0 0 0 0 0 0 0 0 0 0 2 8 7 0 0 0 0 0 0 0 0 0 0 0 0 0 0 0 0 0 0 0 0 0 0 0 0 0 0 0 0 0 0 
0 0 0 0 0 0 0 0 0 0 0 0 0 0 0 0 0 0 0 0 0 0 0 0 0 0 0 0 0 0 0 1 0 0 0 0 0 0 0 0 0 0 0 0 6 14 16 16 15 16 19 24 26 26 24 20 16 13 14 14 4 0 0 0 0 0 0 0 0 0 0 0 0 0 0 0 0 0 0 0 0 0 0 0 0 0 0 0 0 0 0 0 0 0 0 2 7 7 0 0 0 0 0 0 0 0 0 0 0 0 0 0 0 0 0 0 0 0 0 0 0 0 0 0 0 0 0 0 
0 0 0 0 0 0 0 0 0 0 0 0 0 0 0 0 0 0 0 0 0 0 0 0 0 0 0 0 0 0 0 1 0 0 0 0 0 0 0 0 8 12 17 20 21 35 61 79 94 104 112 117 120 122 121 114 104 90 71 51 32 17 17 10 0 0 0 0 0 0 0 0 0 0 0 0 0 0 0 0 0 0 0 0 0 0 0 0 0 0 0 0 0 0 0 2 8 6 0 0 0 0 0 0 0 0 0 0 0 0 0 0 0 0 0 0 0 0 0 0 0 0 0 0 0 0 0 0 
0 0 0 0 0 0 0 0 0 0 0 0 0 0 0 0 0 0 0 0 0 0 0 0 0 0 0 0 0 0 0 0 0 0 0 0 0 2 15 15 22 26 39 71 100 123 134 150 164 176 186 192 193 193 193 192 189 181 167 149 124 97 67 38 18 18 12 0 0 0 0 0 0 0 0 0 0 0 0 0 0 0 0 0 0 0 0 0 0 0 0 0 0 0 0 2 8 6 0 0 0 0 0 0 0 0 0 0 0 0 0 0 0 0 0 0 0 0 0 0 0 0 0 0 0 0 0 0 
0 0 0 0 0 0 0 0 0 0 0 0 0 0 0 0 0 0 0 0 0 0 0 0 0 0 0 0 0 0 0 0 0 0 0 1 14 19 26 28 59 100 128 144 161 176 196 206 192 176 169 164 163 160 157 158 162 166 174 186 195 182 156 130 102 69 34 17 15 0 0 0 0 0 0 0 0 0 0 0 0 0 0 0 0 0 0 0 0 0 0 0 0 0 0 2 8 6 0 0 0 0 0 0 0 0 0 0 0 0 0 0 0 0 0 0 0 0 0 0 0 0 0 0 0 0 0 0 
0 0 0 0 0 0 0 0 0 0 0 0 0 0 0 0 0 0 0 0 0 0 0 0 0 0 0 0 0 0 0 0 0 0 12 26 28 26 67 115 136 152 168 190 205 191 165 143 141 142 149 158 159 155 155 158 163 161 154 150 154 166 182 194 177 147 122 90 48 19 16 0 0 0 0 0 0 0 0 0 0 0 0 0 0 0 0 0 0 0 0 0 0 0 0 2 8 6 0 0 0 0 0 0 0 0 0 0 0 0 0 0 0 0 0 0 0 0 0 0 0 0 0 0 0 0 0 0 
0 0 0 0 0 0 0 0 0 0 0 0 0 0 0 0 0 0 0 0 0 0 0 0 0 0 0 0 0 0 0 0 7 30 27 23 61 117 140 154 165 189 190 174 159 146 148 160 166 167 167 167 165 160 163 171 176 181 186 181 169 156 149 155 173 193 191 159 129 94 46 21 10 0 0 0 0 0 0 0 0 0 0 0 0 0 0 0 0 0 0 0 0 0 0 3 8 6 0 0 0 0 0 0 0 0 0 0 0 0 0 0 0 0 0 0 0 0 0 0 0 0 0 0 0 0 0 0 
0 0 0 0 0 0 0 0 0 0 0 0 0 0 0 0 0 0 0 0 0 0 0 0 0 0 0 0 0 0 0 27 26 21 42 108 141 154 161 185 182 164 150 139 139 148 150 142 130 111 112 118 122 112 108 108 121 148 171 182 192 193 183 168 155 153 169 189 189 158 122 73 28 19 0 0 0 0 0 0 0 0 0 0 0 0 0 0 0 0 0 0 0 0 0 2 8 6 0 0 0 0 0 0 0 0 0 0 0 0 0 0 0 0 0 0 0 0 0 0 0 0 0 0 0 0 0 0 
0 0 0 0 0 0 0 0 0 0 0 0 0 0 0 0 0 0 0 0 0 0 0 0 0 0 0 0 0 13 27 20 20 90 142 150 157 182 183 160 157 150 146 156 150 137 130 119 108 113 117 116 113 112 114 117 116 116 132 148 155 173 191 197 192 179 162 152 163 189 189 152 101 41 20 6 0 0 0 0 0 0 0 0 0 0 0 0 0 0 0 0 0 0 0 2 8 6 0 0 0 0 0 0 0 0 0 0 0 0 0 0 0 0 0 0 0 0 0 0 0 0 0 0 0 0 0 0 
0 0 0 0 0 0 0 0 0 0 0 0 0 0 0 0 0 0 0 0 0 0 0 0 0 0 0 0 20 22 16 50 127 150 154 176 188 165 159 164 160 158 148 130 122 118 110 92 96 113 98 91 89 91 108 99 92 86 87 109 132 143 157 172 185 194 197 181 160 153 169 197 178 127 61 20 11 0 0 0 0 0 0 0 0 0 0 0 0 0 0 0 0 0 0 2 8 7 0 0 0 0 0 0 0 0 0 0 0 0 0 0 0 0 0 0 0 0 0 0 0 0 0 0 0 0 0 0 
0 0 0 0 0 0 0 0 0 0 0 0 0 0 0 0 0 0 0 0 0 0 0 0 0 0 5 25 18 20 75 142 154 168 193 176 159 167 173 158 147 135 120 117 119 105 94 93 103 104 107 127 134 136 148 155 148 137 118 100 98 119 134 139 160 175 189 193 192 184 163 159 186 188 140 75 23 13 0 0 0 0 0 0 0 0 0 0 0 0 0 0 0 0 0 3 8 8 0 0 0 0 0 0 0 0 0 0 0 0 0 0 0 0 0 0 0 0 0 0 0 0 0 0 0 0 0 0 
0 0 0 0 0 0 0 0 0 0 0 0 0 0 0 0 0 0 0 0 0 0 0 0 0 10 26 16 22 96 146 157 187 193 166 168 177 168 146 135 130 126 135 150 152 152 162 173 172 167 163 164 161 168 172 183 193 192 189 185 172 156 146 138 136 137 155 174 186 195 195 173 152 170 191 149 85 29 13 0 0 0 0 0 0 0 0 0 0 0 0 0 0 0 0 3 8 10 0 0 0 0 0 0 0 0 0 0 0 0 0 0 0 0 0 0 0 0 0 0 0 0 0 0 0 0 0 0 
0 0 0 0 0 0 0 0 0 0 0 0 0 0 0 0 0 0 0 0 0 0 0 0 16 23 16 28 114 145 159 195 188 167 169 169 151 138 136 136 146 165 185 194 193 192 179 163 159 153 145 139 136 143 151 157 166 172 173 176 180 186 194 197 180 150 135 135 152 175 188 194 176 148 162 195 154 94 36 15 0 0 0 0 0 0 0 0 0 0 0 0 0 0 0 3 9 9 0 0 0 0 0 0 0 0 0 0 0 0 0 0 0 0 0 0 0 0 0 0 0 0 0 0 0 0 0 0 
0 0 0 0 0 0 0 0 0 0 0 0 0 0 0 0 0 0 0 0 0 0 2 22 21 15 44 125 145 168 203 178 163 165 158 137 136 144 150 170 189 192 183 177 175 165 157 156 162 163 158 154 149 149 150 153 157 159 160 160 158 158 162 175 192 198 185 151 128 131 153 181 193 184 155 159 194 157 103 43 14 0 0 0 0 0 0 0 0 0 0 0 0 0 0 3 9 9 0 0 0 0 0 0 0 0 0 0 0 0 0 0 0 0 0 0 0 0 0 0 0 0 0 0 0 0 0 0 
0 0 0 0 0 0 0 0 0 0 0 0 0 0 0 0 0 0 0 0 0 3 19 16 15 56 135 143 175 205 175 163 160 148 136 149 154 165 184 186 174 169 170 167 157 157 158 152 152 151 146 132 127 133 133 131 134 136 135 132 135 138 142 145 152 172 187 193 170 137 125 139 167 188 186 157 163 192 155 107 47 10 0 0 0 0 0 0 0 0 0 0 0 0 0 3 9 9 0 0 0 0 0 0 0 0 0 0 0 0 0 0 0 0 0 0 0 0 0 0 0 0 0 0 0 0 0 0 
0 0 0 0 0 0 0 0 0 0 0 0 0 0 0 0 0 0 0 0 7 17 15 16 68 139 141 174 200 169 162 149 138 147 158 150 154 177 167 162 162 162 157 147 133 128 124 129 123 120 130 112 113 132 124 125 130 132 125 124 122 121 124 126 133 141 155 171 197 188 139 122 127 159 179 182 160 165 189 156 111 42 6 0 0 0 0 0 0 0 0 0 0 0 0 3 9 9 0 0 0 0 0 0 0 0 0 0 0 0 0 0 0 0 0 0 0 0 0 0 0 0 0 0 0 0 0 0 
0 0 0 0 0 0 0 0 0 0 0 0 0 0 0 0 0 0 0 7 15 12 16 74 143 142 167 195 167 157 147 138 153 164 138 140 166 160 154 149 143 138 133 124 115 109 101 101 99 99 105 82 87 105 97 99 111 122 132 133 135 130 127 122 117 115 130 150 169 194 188 131 116 129 155 174 185 162 176 184 153 108 31 2 0 0 0 0 0 0 0 0 0 0 0 3 9 9 0 0 0 0 0 0 0 0 0 0 0 0 0 0 0 0 0 0 0 0 0 0 0 0 0 0 0 0 0 0 
0 0 0 0 0 0 0 0 0 0 0 0 0 0 0 0 0 0 4 13 15 17 77 147 140 166 190 173 156 145 142 157 159 130 137 161 144 147 146 131 126 120 106 102 94 91 88 87 82 82 72 58 61 77 91 88 86 93 110 120 123 129 126 119 118 112 109 124 149 161 186 179 124 113 126 145 171 181 164 190 168 146 97 19 1 0 0 0 0 0 0 0 0 0 0 3 9 9 0 0 0 0 0 0 0 0 0 0 0 0 0 0 0 0 0 0 0 0 0 0 0 0 0 0 0 0 0 0 
0 0 0 0 0 0 0 0 0 0 0 0 0 0 0 0 0 2 13 15 17 69 147 134 161 184 183 155 145 149 159 153 123 131 155 139 146 149 129 124 119 96 87 79 81 87 80 64 61 56 54 54 53 58 68 81 85 82 79 73 70 84 103 112 114 120 118 114 127 139 157 184 165 120 118 124 144 172 174 174 182 154 137 76 12 0 0 0 0 0 0 0 0 0 0 3 9 10 0 0 0 0 0 0 0 0 0 0 0 0 0 0 0 0 0 0 0 0 0 0 0 0 0 0 0 0 0 0 
0 0 0 0 0 0 0 0 0 0 0 0 0 0 0 0 0 9 10 18 62 137 136 151 169 185 152 138 152 159 146 119 126 162 143 145 149 134 128 116 87 62 58 67 68 64 54 55 55 56 59 58 58 60 63 66 70 67 62 62 55 56 60 77 104 118 120 118 121 132 132 152 182 151 117 121 128 145 171 169 190 167 149 131 52 3 0 0 0 0 0 0 0 0 0 4 9 12 0 0 0 0 0 0 0 0 0 0 0 0 0 0 0 0 0 0 0 0 0 0 0 0 0 0 0 0 0 0 
0 0 0 0 0 0 0 0 0 0 0 0 0 0 0 0 6 9 19 54 124 140 147 162 184 162 131 152 158 138 117 118 153 148 145 150 137 127 108 70 53 50 52 51 54 57 61 68 74 77 80 86 88 90 92 94 93 91 86 79 70 66 58 55 63 93 114 124 120 133 136 134 156 174 137 111 116 128 145 164 180 196 156 145 107 23 1 0 0 0 0 0 0 0 0 4 10 12 0 0 0 0 0 0 0 0 0 0 0 0 0 0 0 0 0 0 0 0 0 0 0 0 0 0 0 0 0 0 
0 0 0 0 0 0 0 0 0 0 0 0 0 0 0 0 9 14 45 107 141 137 162 174 176 127 149 160 136 120 108 140 149 144 155 147 114 82 61 55 56 59 60 64 68 78 88 96 99 98 100 104 113 114 117 117 120 119 115 109 99 91 77 65 57 63 91 114 117 126 137 144 134 161 162 128 112 113 126 144 163 205 172 145 141 65 4 0 0 0 0 0 0 0 0 4 9 14 0 0 0 0 0 0 0 0 0 0 0 0 0 0 0 0 0 0 0 0 0 0 0 0 0 0 0 0 0 0 
0 0 0 0 0 0 0 0 0 0 0 0 0 0 0 6 5 27 90 125 135 153 165 188 141 129 160 137 117 108 129 154 148 150 151 117 69 58 61 65 70 75 84 91 97 105 112 113 111 107 108 111 114 113 116 115 119 122 123 125 124 115 102 84 66 56 65 99 114 116 129 143 141 140 169 148 118 107 120 132 140 188 194 151 146 108 22 1 0 0 0 0 0 0 0 4 9 11 0 0 0 0 0 0 0 0 0 0 0 0 0 0 0 0 0 0 0 0 0 0 0 0 0 0 0 0 0 0 
0 0 0 0 0 0 0 0 0 0 0 0 0 0 0 8 12 65 119 140 139 157 171 168 113 151 143 115 106 129 155 147 151 154 123 76 65 69 75 81 86 94 107 117 119 114 119 116 112 110 111 112 111 108 110 110 112 114 120 127 128 128 121 107 87 69 58 68 102 117 121 136 145 140 157 168 132 110 106 127 112 157 198 155 139 140 50 2 0 0 0 0 0 0 0 4 9 12 0 0 0 0 0 0 0 0 0 0 0 0 0 0 0 0 0 0 0 0 0 0 0 0 0 0 0 0 0 0 
0 0 0 0 0 0 0 0 0 0 0 0 0 0 5 6 30 107 135 143 147 163 171 129 127 154 120 100 115 158 155 155 157 124 84 73 79 85 90 92 100 112 123 124 121 117 114 110 106 108 110 113 109 102 89 95 109 109 110 115 120 127 129 125 109 90 69 60 78 107 109 122 146 139 129 174 159 119 101 115 111 129 191 165 138 144 92 10 0 0 0 0 0 0 0 4 9 13 0 0 0 0 0 0 0 0 0 0 0 0 0 0 0 0 0 0 0 0 0 0 0 0 0 0 0 0 0 0 
0 0 0 0 0 0 0 0 0 0 0 0 0 0 8 8 71 119 148 144 158 155 140 114 149 133 102 102 145 165 149 153 129 92 82 86 89 91 93 99 112 122 122 116 113 112 111 112 110 109 108 106 105 87 83 97 107 109 110 113 114 118 121 125 124 113 90 69 63 82 108 117 140 152 139 156 173 134 107 103 116 121 172 171 145 140 127 28 1 0 0 0 0 0 0 3 9 14 0 0 0 0 0 0 0 0 0 0 0 0 0 0 0 0 0 0 0 0 0 0 0 0 0 0 0 0 0 0 
0 0 0 0 0 0 0 0 0 0 0 0 0 3 6 29 105 121 151 146 160 131 129 127 143 111 100 118 167 161 153 145 101 86 89 90 89 90 99 112 117 115 112 109 108 109 111 114 114 108 100 99 106 94 102 113 112 110 112 112 110 112 112 111 115 123 112 88 69 62 87 112 127 142 144 150 174 139 116 92 105 113 157 175 152 134 140 51 2 0 0 0 0 0 0 3 9 13 0 0 0 0 0 0 0 0 0 0 0 0 0 0 0 0 0 0 0 0 0 0 0 0 0 0 0 0 0 0 
0 0 0 0 0 0 0 0 0 0 0 0 0 5 7 65 114 130 149 147 135 116 134 134 122 98 102 130 171 158 152 119 94 90 88 86 88 97 114 119 110 105 105 107 108 110 112 115 118 114 108 104 105 106 112 116 110 111 112 107 105 106 107 106 107 115 124 112 86 63 59 85 115 130 143 156 174 131 121 98 92 111 145 173 161 132 147 73 4 0 0 0 0 0 0 4 10 14 0 0 0 0 0 0 0 0 0 0 0 0 0 0 0 0 0 0 0 0 0 0 0 0 0 0 0 0 0 0 
0 0 0 0 0 0 0 0 0 0 0 0 0 6 11 91 107 147 143 143 104 125 140 126 110 99 112 139 166 157 127 101 91 87 88 87 97 115 118 111 104 85 80 91 104 109 108 114 116 114 113 110 106 107 114 112 109 110 111 111 105 105 105 106 103 104 118 125 111 80 58 62 96 122 130 148 166 128 115 110 94 107 139 169 162 126 147 90 5 0 0 0 0 0 0 4 10 14 0 0 0 0 0 0 0 0 0 0 0 0 0 0 0 0 0 0 0 0 0 0 0 0 0 0 0 0 0 0 
0 0 0 0 0 0 0 0 0 0 0 0 0 6 26 104 107 153 138 122 97 136 143 113 105 109 116 144 166 142 98 89 90 86 84 99 116 119 111 93 82 81 81 81 82 98 106 101 105 112 112 110 109 112 115 109 106 106 107 112 111 104 95 100 103 100 105 119 127 110 76 56 73 111 124 138 164 126 105 115 97 103 138 166 166 140 145 106 13 0 0 0 0 0 0 4 10 15 0 0 0 0 0 0 0 0 0 0 0 0 0 0 0 0 0 0 0 0 0 0 0 0 0 0 0 0 0 0 
0 0 0 0 0 0 0 0 0 0 0 0 1 5 42 105 118 155 125 109 99 146 134 105 105 109 111 153 164 122 85 87 86 85 99 119 121 114 92 76 81 82 79 80 78 95 105 98 102 108 111 112 110 115 110 106 108 109 109 99 83 83 84 82 82 95 103 108 122 130 109 68 55 89 120 130 163 126 104 116 103 100 133 156 164 154 137 122 21 1 0 0 0 0 0 4 10 16 0 0 0 0 0 0 0 0 0 0 0 0 0 0 0 0 0 0 0 0 0 0 0 0 0 0 0 0 0 0 
0 0 0 0 0 0 0 0 0 0 0 0 2 4 54 106 136 158 127 109 102 157 131 101 108 104 110 157 154 105 84 88 87 95 116 119 113 105 83 79 80 78 82 80 80 82 102 100 102 103 108 111 112 114 109 101 101 108 102 85 85 83 84 83 82 80 86 99 109 128 129 100 62 69 111 124 155 117 105 116 107 97 130 149 154 160 127 133 31 2 0 0 0 0 0 4 10 15 0 0 0 0 0 0 0 0 0 0 0 0 0 0 0 0 0 0 0 0 0 0 0 0 0 0 0 0 0 0 
0 0 0 0 0 0 0 0 0 0 0 0 3 4 64 106 149 156 129 110 106 158 126 99 111 106 113 150 135 97 90 87 96 112 119 111 97 98 100 81 81 80 81 81 79 78 78 90 96 99 106 110 109 109 96 83 73 84 88 80 81 83 83 83 82 81 92 101 100 114 128 123 87 64 100 123 148 115 99 114 111 102 132 160 151 163 132 137 45 2 0 0 0 0 0 4 10 14 0 0 0 0 0 0 0 0 0 0 0 0 0 0 0 0 0 0 0 0 0 0 0 0 0 0 0 0 0 0 
0 0 0 0 0 0 0 0 0 0 0 0 3 5 75 109 160 150 124 113 116 161 127 108 114 112 113 131 127 100 92 94 114 118 110 99 95 97 102 100 97 91 76 76 76 79 78 79 80 88 99 104 100 103 90 66 61 64 72 76 79 82 83 82 83 100 102 92 99 112 124 124 112 93 107 126 132 114 108 115 118 101 126 162 155 166 136 140 61 2 0 0 0 0 0 4 10 13 0 0 0 0 0 0 0 0 0 0 0 0 0 0 0 0 0 0 0 0 0 0 0 0 0 0 0 0 0 0 
0 0 0 0 0 0 0 0 0 0 0 0 2 9 80 115 161 140 128 118 124 162 124 118 124 124 109 111 131 110 98 116 122 114 107 97 81 78 78 77 77 79 78 71 70 72 74 77 71 70 83 97 99 98 81 65 63 60 64 66 73 76 82 89 88 83 76 77 81 88 101 118 122 124 141 136 123 107 111 116 126 110 135 160 155 169 141 137 86 5 0 0 0 0 0 4 10 12 0 0 0 0 0 0 0 0 0 0 0 0 0 0 0 0 0 0 0 0 0 0 0 0 0 0 0 0 0 0 
0 0 0 0 0 0 0 0 0 0 0 0 2 10 82 126 154 128 127 125 130 162 130 120 136 129 105 91 136 127 116 125 120 114 93 83 81 82 79 76 71 67 65 65 72 77 72 72 67 60 70 86 100 98 76 68 62 59 60 59 65 77 102 108 100 92 89 87 88 98 103 99 117 135 139 152 122 112 116 119 126 115 142 155 153 171 144 131 103 9 0 0 0 0 0 4 9 12 0 0 0 0 0 0 0 0 0 0 0 0 0 0 0 0 0 0 0 0 0 0 0 0 0 0 0 0 0 0 
0 0 0 0 0 0 0 0 0 0 0 0 2 13 85 138 153 126 133 129 131 154 137 124 148 133 103 77 131 147 131 125 118 93 85 89 91 88 89 102 91 69 63 60 61 69 69 66 61 59 63 76 96 102 82 71 61 59 55 57 69 89 109 116 124 126 124 118 122 136 138 134 127 115 123 153 144 123 115 113 118 119 139 144 139 169 149 132 111 14 0 0 0 0 0 4 9 12 0 0 0 0 0 0 0 0 0 0 0 0 0 0 0 0 0 0 0 0 0 0 0 0 0 0 0 0 0 0 
0 0 0 0 0 0 0 0 0 0 0 0 4 15 86 149 155 137 132 119 131 146 140 127 147 137 104 81 122 162 139 125 94 81 104 122 120 118 118 114 109 100 85 80 65 62 65 60 57 55 61 75 109 124 99 71 58 55 52 61 79 104 98 92 92 91 88 87 92 102 109 116 106 94 116 151 151 131 111 114 116 121 136 136 125 163 152 133 118 20 0 0 0 0 0 4 9 13 0 0 0 0 0 0 0 0 0 0 0 0 0 0 0 0 0 0 0 0 0 0 0 0 0 0 0 0 0 0 
0 0 0 0 0 0 0 0 0 0 0 0 6 16 86 153 149 139 121 110 131 144 143 130 136 141 99 88 124 155 145 119 98 102 128 123 110 98 86 81 76 71 75 89 84 63 61 62 56 53 60 84 135 150 134 80 57 56 57 77 89 77 75 81 85 87 83 80 80 86 95 109 116 116 124 134 143 128 117 113 110 115 131 123 113 155 152 136 127 27 0 0 0 0 0 4 9 13 0 0 0 0 0 0 0 0 0 0 0 0 0 0 0 0 0 0 0 0 0 0 0 0 0 0 0 0 0 0 
0 0 0 0 0 0 0 0 0 0 0 0 7 16 89 159 144 131 103 107 131 140 141 127 125 133 103 89 126 149 141 125 131 128 122 99 84 77 68 63 61 60 59 59 77 79 63 63 59 53 61 92 138 121 139 99 60 53 65 81 72 58 73 83 85 87 84 79 81 84 89 103 122 115 100 127 127 125 123 106 104 110 130 114 104 149 146 137 133 36 1 0 0 0 0 4 9 13 0 0 0 0 0 0 0 0 0 0 0 0 0 0 0 0 0 0 0 0 0 0 0 0 0 0 0 0 0 0 
0 0 0 0 0 0 0 0 0 0 0 0 9 15 90 159 141 130 100 106 132 133 141 134 117 127 106 98 129 140 121 113 125 118 102 84 79 71 62 58 60 58 60 59 60 77 73 63 56 54 64 98 117 84 101 113 64 54 78 78 52 55 71 82 86 85 82 81 83 86 91 95 110 108 105 122 128 132 125 101 102 92 119 120 96 143 147 138 132 46 2 0 0 0 0 4 9 12 0 0 0 0 0 0 0 0 0 0 0 0 0 0 0 0 0 0 0 0 0 0 0 0 0 0 0 0 0 0 
0 0 0 0 0 0 0 0 0 0 0 0 7 15 94 157 138 128 99 111 129 131 139 127 106 117 103 95 117 123 104 102 110 126 99 83 77 69 57 54 58 55 57 53 54 57 75 79 72 67 71 107 107 74 84 121 84 78 94 59 50 56 68 83 86 83 84 82 84 86 90 93 106 120 119 116 128 132 119 98 99 82 112 126 96 127 145 141 129 54 2 0 0 0 0 4 9 12 0 0 0 0 0 0 0 0 0 0 0 0 0 0 0 0 0 0 0 0 0 0 0 0 0 0 0 0 0 0 
0 0 0 0 0 0 0 0 0 0 0 0 7 14 95 155 136 126 98 109 119 135 133 110 103 110 98 88 93 102 94 106 101 123 100 81 76 68 56 50 52 52 54 50 50 50 53 73 87 75 89 120 55 54 55 88 102 85 81 53 54 63 83 92 85 85 82 82 82 87 90 93 96 102 105 108 130 135 119 98 98 78 91 125 99 111 138 144 129 60 3 0 0 0 0 4 10 12 0 0 0 0 0 0 0 0 0 0 0 0 0 0 0 0 0 0 0 0 0 0 0 0 0 0 0 0 0 0 
0 0 0 0 0 0 0 0 0 0 0 0 8 16 92 153 137 132 95 85 107 141 118 103 104 109 92 82 87 93 90 99 103 104 91 80 77 66 58 52 53 59 57 53 47 52 52 52 44 54 111 105 61 59 64 70 96 73 61 58 69 74 84 84 83 83 82 83 84 88 93 91 86 103 106 107 123 133 113 99 111 79 88 128 104 99 120 138 129 64 3 0 0 0 0 3 9 11 0 0 0 0 0 0 0 0 0 0 0 0 0 0 0 0 0 0 0 0 0 0 0 0 0 0 0 0 0 0 
0 0 0 0 0 0 0 0 0 0 0 0 5 16 91 155 138 143 85 72 104 146 118 103 106 109 95 75 73 87 91 88 107 100 91 82 82 76 68 55 53 64 71 67 62 63 56 48 45 69 114 85 76 68 79 62 95 103 74 65 64 67 73 82 89 86 82 83 84 89 94 85 79 104 104 110 120 130 108 102 119 87 83 123 112 99 121 140 128 63 3 0 0 0 0 3 9 11 0 0 0 0 0 0 0 0 0 0 0 0 0 0 0 0 0 0 0 0 0 0 0 0 0 0 0 0 0 0 
0 0 0 0 0 0 0 0 0 0 0 0 5 18 85 154 139 146 89 73 98 149 121 107 111 109 99 68 63 84 92 86 97 104 97 85 84 85 75 56 52 52 60 54 54 62 64 59 66 99 113 66 49 41 48 45 60 103 73 61 60 65 71 89 94 92 87 86 89 93 93 77 75 101 98 117 125 128 105 102 119 96 83 123 111 97 123 140 129 59 4 0 0 0 0 3 9 10 0 0 0 0 0 0 0 0 0 0 0 0 0 0 0 0 0 0 0 0 0 0 0 0 0 0 0 0 0 0 
0 0 0 0 0 0 0 0 0 0 0 0 6 18 75 154 143 147 91 74 94 144 120 107 112 111 103 67 60 88 99 89 86 102 99 86 83 83 74 57 52 56 53 51 52 56 70 63 72 105 73 51 47 44 51 46 46 95 98 61 59 64 72 94 95 87 83 88 94 95 86 70 81 88 89 123 136 126 105 102 106 95 85 125 107 96 121 132 124 51 3 0 0 0 0 3 9 10 0 0 0 0 0 0 0 0 0 0 0 0 0 0 0 0 0 0 0 0 0 0 0 0 0 0 0 0 0 0 
0 0 0 0 0 0 0 0 0 0 0 0 5 15 68 147 144 147 95 70 84 133 120 100 110 108 100 70 59 96 112 95 84 95 99 94 83 83 71 59 56 66 57 56 56 63 58 55 93 108 59 51 48 56 63 58 47 61 107 92 66 59 71 97 96 89 86 89 90 91 81 72 88 72 88 127 137 122 104 95 84 88 96 124 99 99 121 119 122 45 2 0 0 0 0 3 9 10 0 0 0 0 0 0 0 0 0 0 0 0 0 0 0 0 0 0 0 0 0 0 0 0 0 0 0 0 0 0 
0 0 0 0 0 0 0 0 0 0 0 0 3 14 63 138 142 142 105 72 82 127 124 103 112 105 95 72 65 105 119 99 87 88 101 101 88 80 70 60 62 66 58 54 56 63 55 82 130 89 55 54 51 61 73 56 44 52 85 120 83 72 73 97 99 94 87 88 89 91 80 82 83 59 90 133 137 122 107 83 68 85 114 111 95 99 124 108 113 40 2 0 0 0 0 3 9 9 0 0 0 0 0 0 0 0 0 0 0 0 0 0 0 0 0 0 0 0 0 0 0 0 0 0 0 0 0 0 
0 0 0 0 0 0 0 0 0 0 1 0 0 12 55 127 135 124 115 72 74 109 129 108 110 104 99 76 77 109 121 97 89 84 94 103 101 84 67 55 60 73 67 56 72 67 81 121 107 62 61 55 50 64 66 52 46 57 61 109 125 78 90 105 104 96 96 94 91 91 80 89 71 62 108 138 135 125 108 67 55 90 124 96 92 103 122 105 103 35 1 0 0 0 0 3 9 10 0 0 0 0 0 0 0 0 0 0 0 0 0 0 0 0 0 0 0 0 0 0 0 0 0 0 0 0 0 0 
0 0 0 0 0 0 0 0 0 8 17 5 0 8 46 113 139 117 123 79 72 94 128 125 108 105 105 87 92 102 114 104 85 81 85 107 116 92 66 60 72 67 67 55 57 74 118 99 93 57 76 58 50 60 61 66 64 48 45 87 140 130 104 96 95 87 87 102 102 94 81 89 70 64 110 139 146 148 122 61 72 112 114 82 92 112 120 117 96 34 1 0 0 0 0 3 9 10 0 0 0 0 0 0 0 0 0 0 0 0 0 0 0 0 0 0 0 0 0 0 0 0 0 0 0 0 0 0 
0 0 0 0 0 0 0 0 0 8 9 10 7 4 34 99 142 117 124 88 72 80 120 131 119 107 107 96 106 97 106 118 86 78 83 104 106 87 73 67 68 65 66 65 76 101 121 110 101 44 63 59 56 69 67 59 73 48 46 63 130 149 120 114 107 101 99 99 103 104 77 64 56 56 100 150 155 135 112 84 105 129 102 70 102 118 113 128 86 28 0 0 0 0 0 3 9 10 0 0 0 0 0 0 0 0 0 0 0 0 0 0 0 0 0 0 0 0 0 0 0 0 0 0 0 0 0 0 
0 0 0 0 0 0 0 0 0 3 1 3 4 5 25 84 141 117 114 96 76 74 108 126 131 113 107 99 108 110 121 124 110 88 85 85 89 99 101 76 72 73 74 76 83 98 115 128 94 53 66 68 63 90 70 63 73 49 46 66 136 161 136 122 111 104 117 117 111 105 80 50 45 53 108 145 138 120 110 116 113 159 108 63 118 112 112 126 74 18 1 0 0 0 0 2 9 10 0 0 0 0 0 0 0 0 0 0 0 0 0 0 0 0 0 0 0 0 0 0 0 0 0 0 0 0 0 0 
0 0 0 0 0 0 0 0 0 0 0 2 3 8 21 71 140 132 119 112 91 74 89 118 132 124 110 107 108 105 119 124 112 107 98 92 95 103 104 92 82 71 63 69 88 100 116 130 99 56 73 79 69 88 78 56 65 52 49 84 134 156 131 114 112 115 140 151 142 118 89 56 68 105 145 149 138 112 104 119 127 154 146 93 125 123 129 123 63 13 9 3 6 14 2 2 9 10 0 0 0 0 0 0 0 0 0 0 0 0 0 0 0 0 0 0 0 0 0 0 0 0 0 0 0 0 0 0 
0 0 0 0 0 0 0 0 0 0 0 1 3 3 17 62 135 145 118 120 90 75 74 106 138 140 123 121 121 96 101 119 113 109 106 99 101 107 101 93 84 68 66 69 83 98 116 125 92 68 79 78 69 92 81 62 85 69 57 92 125 142 114 105 110 128 141 135 116 107 93 42 50 101 155 155 164 134 117 133 140 129 146 146 136 135 141 119 48 11 1 2 1 1 1 3 9 10 0 0 0 0 0 0 0 0 0 0 0 0 0 0 0 0 0 0 0 0 0 0 0 0 0 0 0 0 0 0 
0 0 0 0 0 0 0 0 0 0 0 1 3 5 13 50 130 141 129 121 98 75 79 135 153 129 137 136 133 94 89 106 119 122 102 102 103 116 111 107 96 85 76 69 86 99 123 124 117 108 87 74 79 103 93 79 87 79 64 63 115 146 119 107 113 129 135 115 87 77 117 69 89 123 141 169 130 101 132 152 158 130 147 177 138 141 142 109 31 7 0 3 0 0 0 3 9 10 0 0 0 0 0 0 0 0 0 0 0 0 0 0 0 0 0 0 0 0 0 0 0 0 0 0 0 0 0 0 
0 0 0 0 0 0 0 0 0 0 0 1 6 11 11 43 124 133 123 127 109 87 86 136 148 123 136 158 145 97 79 86 108 129 131 126 125 128 117 103 92 78 87 81 73 90 116 141 122 96 103 96 90 113 93 74 80 86 79 81 133 150 144 136 120 120 141 128 107 120 141 134 153 139 139 142 109 101 138 167 181 172 182 185 154 98 128 101 17 5 0 2 0 0 0 3 9 9 0 0 0 0 0 0 0 0 0 0 0 0 0 0 0 0 0 0 0 0 0 0 0 0 0 0 0 0 0 0 
0 0 0 0 0 0 0 0 0 0 0 2 14 14 13 34 121 137 118 123 123 127 115 166 162 126 134 160 150 129 99 100 129 126 118 131 132 134 129 118 115 118 107 96 78 86 115 148 110 78 91 100 104 129 98 83 78 89 87 100 124 147 115 99 104 114 143 128 108 106 100 142 162 141 138 118 114 128 143 167 171 165 185 178 141 119 156 82 10 5 2 1 0 0 0 3 9 8 0 0 0 0 0 0 0 0 0 0 0 0 0 0 0 0 0 0 0 0 0 0 0 0 0 0 0 0 0 0 
0 0 0 0 0 0 0 0 0 0 0 0 17 8 4 15 66 149 133 117 127 132 148 185 184 147 125 158 168 167 151 116 122 151 140 133 141 140 148 124 112 119 113 111 106 88 106 135 111 78 65 77 84 107 113 92 87 95 81 93 104 118 120 104 103 104 103 111 101 102 97 120 170 164 145 118 133 144 129 134 137 126 166 154 109 110 153 97 10 3 10 5 0 0 0 2 9 6 0 0 0 0 0 0 0 0 0 0 0 0 0 0 0 0 0 0 0 0 0 0 0 0 0 0 0 0 0 0 
0 0 0 0 0 0 0 0 0 0 0 1 9 0 3 9 35 137 138 120 115 140 152 160 148 131 126 145 174 161 156 135 128 142 129 117 140 148 141 109 97 106 121 128 113 102 116 120 100 89 75 77 94 115 123 127 106 87 90 110 105 105 124 115 117 98 79 71 96 96 95 120 134 141 106 83 119 127 109 118 118 109 144 125 84 91 149 53 3 1 1 7 0 0 0 2 8 6 0 0 0 0 0 0 0 0 0 0 0 0 0 0 0 0 0 0 0 0 0 0 0 0 0 0 0 0 0 0 
0 0 0 0 0 0 0 0 0 0 0 1 5 1 2 7 20 103 148 118 121 116 122 124 154 120 108 113 120 158 174 162 146 134 121 115 132 132 117 107 95 101 113 128 109 97 129 108 89 115 118 112 117 133 152 138 88 86 107 105 108 123 139 113 103 96 76 50 54 86 108 131 160 158 138 130 125 135 117 116 132 126 116 110 99 126 123 21 3 2 2 3 0 0 0 1 8 6 0 0 0 0 0 0 0 0 0 0 0 0 0 0 0 0 0 0 0 0 0 0 0 0 0 0 0 0 0 0 
0 0 0 0 0 0 0 0 0 0 0 1 4 1 0 1 12 59 147 129 115 93 97 108 97 90 115 90 109 163 172 142 136 136 137 127 112 105 97 118 104 113 116 107 98 97 137 129 95 104 106 121 117 109 120 111 90 96 111 96 100 119 137 113 68 57 57 54 80 130 135 143 151 150 157 151 157 146 123 122 128 132 99 86 101 136 70 9 5 4 4 2 0 0 0 1 8 6 0 0 0 0 0 0 0 0 0 0 0 0 0 0 0 0 0 0 0 0 0 0 0 0 0 0 0 0 0 0 
0 0 0 0 0 0 0 0 0 0 0 1 4 1 0 0 10 29 111 84 109 97 114 104 129 130 128 85 111 163 165 137 123 116 125 131 122 96 83 105 101 110 115 101 92 94 134 140 120 107 126 119 98 90 94 102 94 98 120 102 105 112 121 80 68 55 70 99 112 133 137 141 139 148 156 157 165 143 121 111 145 137 104 58 61 116 29 2 6 7 8 2 0 0 0 1 8 5 0 0 0 0 0 0 0 0 0 0 0 0 0 0 0 0 0 0 0 0 0 0 0 0 0 0 0 0 0 0 
0 0 0 0 0 0 0 0 0 0 0 0 3 2 0 0 13 13 71 80 94 102 118 108 123 159 142 105 126 146 152 150 136 138 137 141 144 126 72 59 74 96 95 84 75 104 121 132 130 160 157 141 112 83 99 105 87 89 119 117 85 94 116 64 63 80 91 111 123 125 116 128 130 122 136 143 154 144 157 151 159 124 93 36 96 74 13 6 0 6 11 3 0 0 0 1 8 5 0 0 0 0 0 0 0 0 0 0 0 0 0 0 0 0 0 0 0 0 0 0 0 0 0 0 0 0 0 0 
0 0 0 0 0 0 0 0 0 0 0 0 2 3 0 0 12 13 32 125 114 92 114 134 120 150 170 155 160 157 148 146 121 142 134 123 134 122 71 48 70 83 68 65 98 126 125 146 135 129 119 120 131 138 140 129 137 130 120 97 73 97 146 137 115 106 113 120 117 105 93 87 112 110 126 143 147 164 176 173 114 89 58 76 112 42 8 12 0 2 11 4 0 0 0 1 7 4 0 0 0 0 0 0 0 0 0 0 0 0 0 0 0 0 0 0 0 0 0 0 0 0 0 0 0 0 0 0 
0 0 0 0 0 0 0 0 0 0 0 0 4 4 0 0 11 15 14 107 121 71 101 124 152 130 194 192 155 150 158 154 120 109 106 119 130 125 102 89 87 101 83 112 144 145 138 137 118 108 111 112 112 116 140 142 147 145 146 144 133 151 160 169 144 118 114 120 117 90 76 80 92 95 118 135 131 179 154 159 99 72 31 47 93 21 5 11 0 0 7 1 0 0 0 0 7 4 0 0 0 0 0 0 0 0 0 0 0 0 0 0 0 0 0 0 0 0 0 0 0 0 0 0 0 0 0 0 
0 0 0 0 0 0 0 0 0 0 0 0 6 3 0 0 12 15 11 62 137 72 76 108 138 155 173 175 151 130 149 167 111 96 94 104 108 113 115 116 136 139 135 127 125 128 125 123 102 102 121 139 146 151 164 158 153 141 140 139 136 161 146 160 156 136 125 118 119 90 81 78 82 92 107 99 134 151 121 145 117 83 57 109 81 13 5 9 1 0 5 1 0 0 0 0 7 3 0 0 0 0 0 0 0 0 0 0 0 0 0 0 0 0 0 0 0 0 0 0 0 0 0 0 0 0 0 0 
0 0 0 0 0 0 0 0 0 0 0 0 5 3 0 0 11 10 10 34 128 93 66 98 130 176 170 163 154 144 140 163 110 94 84 97 111 113 113 114 116 128 139 126 134 142 157 157 129 117 133 144 144 157 160 163 157 149 137 132 127 126 123 139 152 136 135 137 120 90 85 83 91 116 105 105 131 145 122 146 95 74 104 142 68 12 9 10 4 0 4 2 0 0 0 0 7 3 0 0 0 0 0 0 0 0 0 0 0 0 0 0 0 0 0 0 0 0 0 0 0 0 0 0 0 0 0 0 
0 0 0 0 0 0 0 0 0 0 0 0 12 4 0 0 7 11 9 30 115 113 85 83 103 158 173 160 164 148 120 128 110 102 95 86 87 97 109 116 122 147 160 151 154 167 159 145 133 130 140 137 139 158 154 133 133 146 137 113 95 85 94 124 156 171 149 156 150 115 99 96 94 120 149 137 143 165 144 161 78 49 96 128 61 13 10 9 4 0 4 4 0 0 0 0 7 2 0 0 0 0 0 0 0 0 0 0 0 0 0 0 0 0 0 0 0 0 0 0 0 0 0 0 0 0 0 0 
0 0 0 0 0 0 0 0 0 0 0 1 10 11 5 5 5 14 12 25 102 115 100 81 74 104 190 167 170 148 110 93 78 75 93 101 106 112 112 102 97 126 142 140 170 184 147 144 145 138 138 149 153 157 157 135 130 128 117 81 86 90 118 124 154 185 162 148 132 88 69 66 69 116 178 171 179 188 157 133 99 78 95 108 40 13 4 4 2 0 1 5 1 0 0 0 6 1 0 0 0 0 0 0 0 0 0 0 0 0 0 0 0 0 0 0 0 0 0 0 0 0 0 0 0 0 0 0 
0 0 0 0 0 0 0 0 0 0 0 0 11 14 10 9 14 15 14 14 52 114 90 94 104 97 155 169 161 134 130 118 74 37 45 95 134 145 142 139 132 144 152 141 156 185 141 129 122 125 151 180 176 163 134 115 127 136 139 120 130 134 129 141 191 192 156 126 107 68 66 75 107 145 152 145 164 164 158 110 85 94 96 91 20 11 8 8 3 6 7 9 2 0 0 0 6 1 0 0 0 0 0 0 0 0 0 0 0 0 0 0 0 0 0 0 0 0 0 0 0 0 0 0 0 0 0 0 
0 0 0 0 0 0 0 0 0 0 0 2 11 13 14 12 5 5 13 14 17 68 89 57 62 85 108 128 132 146 154 150 145 104 82 81 81 76 81 98 117 127 126 142 148 180 143 131 123 117 152 161 145 166 152 131 139 145 142 139 156 148 115 151 154 155 115 102 106 84 82 107 126 133 123 107 123 102 144 92 37 64 110 55 10 10 5 11 10 5 2 2 3 0 0 0 6 1 0 0 0 0 0 0 0 0 0 0 0 0 0 0 0 0 0 0 0 0 0 0 0 0 0 0 0 0 0 0 
0 0 0 0 0 0 0 0 0 0 0 0 10 8 7 5 3 4 12 24 23 23 78 62 35 42 90 117 155 174 169 151 151 160 145 129 115 89 69 66 73 125 119 110 150 136 120 131 151 138 144 155 177 196 196 163 140 147 146 146 144 151 159 163 142 117 73 130 160 164 158 142 139 124 106 91 115 117 134 110 83 95 67 21 1 2 1 3 7 9 3 6 10 6 0 0 5 0 0 0 0 0 0 0 0 0 0 0 0 0 0 0 0 0 0 0 0 0 0 0 0 0 0 0 0 0 0 0 
0 0 0 0 0 0 0 0 0 0 0 0 2 8 7 4 4 1 4 14 27 20 37 88 79 60 59 61 86 148 144 142 160 181 176 160 159 126 118 122 136 173 180 196 193 180 187 203 182 182 187 194 188 173 182 179 183 181 168 170 181 177 173 199 161 162 156 190 165 165 144 111 75 92 99 75 101 120 114 71 80 70 47 23 13 6 0 0 2 1 1 5 6 0 0 0 4 0 0 0 0 0 0 0 0 0 0 0 0 0 0 0 0 0 0 0 0 0 0 0 0 0 0 0 0 0 0 0 
0 0 0 0 0 0 0 0 0 0 0 0 0 5 4 1 3 0 0 8 24 36 23 52 91 52 31 31 25 46 56 84 118 128 97 86 90 97 103 119 148 137 122 140 158 95 117 164 183 171 201 211 214 191 184 184 173 158 155 188 200 161 149 142 142 157 148 145 181 172 149 119 81 53 88 81 100 111 98 58 40 31 25 14 17 0 0 0 0 0 0 1 6 0 0 0 4 0 0 0 0 0 0 0 0 0 0 0 0 0 0 0 0 0 0 0 0 0 0 0 0 0 0 0 0 0 0 0 
0 0 0 0 0 0 0 0 0 0 0 0 0 5 7 0 1 5 4 7 14 24 21 21 35 30 18 12 17 56 44 43 75 79 60 66 50 40 42 45 51 66 124 95 127 107 104 128 150 114 118 144 159 158 153 134 97 84 97 109 83 90 100 119 102 120 54 51 61 66 78 74 80 60 44 47 107 99 59 30 26 26 24 8 1 0 5 1 0 0 0 9 5 0 0 0 4 0 0 0 0 0 0 0 0 0 0 0 0 0 0 0 0 0 0 0 0 0 0 0 0 0 0 0 0 0 0 0 
0 0 0 0 0 0 0 0 0 0 0 0 0 0 1 0 0 1 4 3 9 12 20 21 22 20 15 18 22 55 46 35 51 60 39 67 69 44 46 46 44 60 70 66 64 75 79 58 49 51 54 57 81 88 83 66 45 47 53 59 59 46 36 41 45 63 125 95 118 177 58 40 70 61 32 42 101 92 53 25 25 26 23 5 0 0 0 0 0 0 4 8 3 0 0 0 4 0 0 0 0 0 0 0 0 0 0 0 0 0 0 0 0 0 0 0 0 0 0 0 0 0 0 0 0 0 0 0 
0 0 0 0 0 0 0 0 0 0 0 0 0 0 0 0 0 0 0 0 4 9 9 17 24 25 20 28 36 66 59 49 59 69 50 65 87 68 67 102 116 98 98 79 88 94 101 101 86 70 71 73 79 80 81 73 71 81 103 121 101 90 88 96 105 108 96 104 96 77 62 32 68 65 42 37 94 84 39 18 15 18 15 3 1 0 0 0 0 0 0 0 0 0 0 0 4 2 0 0 0 0 0 0 0 0 0 0 0 0 0 0 0 0 0 0 0 0 0 0 0 0 0 0 0 0 0 0 
0 0 0 0 0 0 0 0 0 0 0 0 0 0 0 0 0 0 0 0 0 1 5 8 17 25 34 56 73 97 101 102 124 146 128 81 55 90 83 136 184 207 136 149 147 191 176 217 220 169 149 147 148 150 146 145 144 154 170 170 150 122 115 127 83 184 173 154 110 116 105 33 31 29 18 17 55 64 29 15 16 18 10 0 0 0 0 0 0 0 0 0 0 0 0 0 4 3 0 0 0 0 0 0 0 0 0 0 0 0 0 0 0 0 0 0 0 0 0 0 0 0 0 0 0 0 0 0 
0 0 0 0 0 0 0 0 0 0 0 0 0 0 0 0 0 0 0 0 0 0 0 1 6 16 33 60 75 90 102 103 118 133 124 60 50 71 110 123 189 167 136 150 159 163 173 186 188 229 200 169 152 165 186 191 191 183 174 151 142 144 140 114 184 188 158 176 129 106 130 104 64 45 30 34 70 54 16 5 3 6 0 0 0 0 0 0 0 0 0 0 0 0 0 0 2 6 0 0 0 0 0 0 0 0 0 0 0 0 0 0 0 0 0 0 0 0 0 0 0 0 0 0 0 0 0 0 
0 0 0 0 0 0 0 0 0 0 0 0 0 0 0 0 0 0 0 0 0 0 0 1 7 19 25 34 51 58 84 72 80 122 143 65 37 48 79 69 170 160 111 103 138 146 137 143 141 128 108 90 86 91 98 108 115 110 118 119 99 94 83 95 108 158 172 156 191 152 85 31 19 59 63 56 83 47 20 8 6 6 2 0 0 0 0 0 0 0 0 0 0 0 3 4 14 25 0 0 0 0 0 0 0 0 0 0 0 0 0 0 0 0 0 0 0 0 0 0 0 0 0 0 0 0 0 0 
0 0 0 0 0 0 0 0 0 0 0 0 0 0 0 0 0 0 0 0 0 0 4 4 9 22 21 18 23 37 60 59 57 91 102 57 59 62 95 80 111 143 124 104 144 129 131 136 118 87 75 77 83 58 47 47 52 56 58 68 82 107 114 82 103 120 102 94 171 154 109 80 79 123 113 65 96 66 27 20 28 14 4 0 0 0 0 0 0 0 0 0 0 0 0 0 6 3 0 0 0 0 0 0 0 0 0 0 0 0 0 0 0 0 0 0 0 0 0 0 0 0 0 0 0 0 0 0 
0 0 0 0 0 0 0 0 0 0 0 0 0 0 0 0 0 0 0 0 0 0 0 9 8 17 20 18 17 30 48 66 61 99 100 41 50 71 97 114 105 121 107 72 113 163 107 106 135 95 74 53 51 46 41 40 47 57 64 81 82 116 142 126 82 73 85 98 96 130 100 60 56 104 152 77 87 61 29 22 23 10 6 0 0 0 0 0 0 0 0 0 0 0 0 0 5 0 0 0 0 0 0 0 0 0 0 0 0 0 0 0 0 0 0 0 0 0 0 0 0 0 0 0 0 0 0 0 
0 0 0 0 0 0 0 0 0 0 0 0 0 0 0 0 0 0 0 0 0 0 0 4 9 12 18 20 17 26 43 69 57 98 102 35 32 39 67 103 105 120 115 71 74 127 119 105 139 114 111 89 61 52 45 44 58 65 99 136 132 130 152 163 111 69 81 92 66 66 52 31 30 70 159 89 79 51 24 22 20 9 4 0 0 0 0 0 0 0 0 0 0 0 0 0 4 0 0 0 0 0 0 0 0 0 0 0 0 0 0 0 0 0 0 0 0 0 0 0 0 0 0 0 0 0 0 0 
0 0 0 0 0 0 0 0 0 0 0 0 0 0 0 0 0 0 0 0 0 0 0 2 9 6 16 21 17 21 39 68 53 94 102 34 24 25 44 60 83 126 91 63 57 102 130 135 169 146 150 146 86 69 60 56 63 80 117 139 164 158 166 164 103 60 66 100 94 60 37 26 29 45 156 94 66 30 18 21 18 7 2 0 0 0 0 0 0 0 0 0 0 0 0 0 4 0 0 0 0 0 0 0 0 0 0 0 0 0 0 0 0 0 0 0 0 0 0 0 0 0 0 0 0 0 0 0 
0 0 0 0 0 0 0 0 0 0 0 0 0 0 0 0 0 0 0 0 0 0 0 0 4 8 10 19 19 21 28 57 48 84 103 29 22 21 35 60 109 91 76 64 53 82 135 158 162 109 137 172 137 109 90 73 73 112 148 154 150 149 161 148 97 72 57 64 100 88 44 33 30 33 142 93 65 28 18 19 18 5 2 0 0 0 0 0 0 0 0 0 0 0 0 0 3 0 0 0 0 0 0 0 0 0 0 0 0 0 0 0 0 0 0 0 0 0 0 0 0 0 0 0 0 0 0 0 
0 0 0 0 0 0 0 0 0 0 0 0 0 0 0 0 0 0 0 0 0 0 0 0 1 4 8 14 19 21 30 41 46 71 105 33 26 29 44 92 88 56 56 60 73 93 137 143 110 87 143 169 158 153 134 115 120 152 160 139 148 133 139 140 117 85 55 47 61 93 71 44 35 28 123 97 58 26 18 21 16 6 2 0 0 0 0 0 0 0 0 0 0 0 0 0 3 0 0 0 0 0 0 0 0 0 0 0 0 0 0 0 0 0 0 0 0 0 0 0 0 0 0 0 0 0 0 0 
0 0 0 0 0 0 0 0 0 0 0 0 0 0 0 0 0 0 0 0 0 0 0 0 0 4 4 14 14 22 25 34 48 48 96 37 30 32 54 89 73 50 53 67 76 99 130 124 87 89 149 151 137 150 160 162 152 158 142 102 117 118 134 120 102 60 48 49 50 80 85 50 43 38 114 79 34 17 22 23 17 6 2 0 0 0 0 0 0 0 0 0 0 0 0 0 3 0 0 0 0 0 0 0 0 0 0 0 0 0 0 0 0 0 0 0 0 0 0 0 0 0 0 0 0 0 0 0 
0 0 0 0 0 0 0 0 0 0 0 0 0 0 0 0 0 0 0 0 0 0 0 0 0 2 3 6 18 22 20 33 34 25 82 49 29 45 84 87 60 51 62 57 64 98 124 128 99 117 150 138 126 138 159 158 135 116 109 85 83 106 138 99 91 64 55 56 47 74 107 75 44 54 121 42 14 16 23 23 18 5 1 0 0 0 0 0 0 0 0 0 0 0 0 0 2 0 0 0 0 0 0 0 0 0 0 0 0 0 0 0 0 0 0 0 0 0 0 0 0 0 0 0 0 0 0 0 
0 0 0 0 0 0 0 0 0 0 0 0 0 0 0 0 0 0 0 0 0 0 0 0 0 0 5 3 13 20 20 18 11 13 44 91 60 89 115 89 58 45 53 50 61 89 105 131 126 126 134 129 118 104 109 121 113 97 80 90 103 125 125 91 90 80 58 47 33 67 114 127 90 94 117 25 13 16 23 22 14 4 1 0 0 0 0 0 0 0 0 0 0 0 0 0 2 0 0 0 0 0 0 0 0 0 0 0 0 0 0 0 0 0 0 0 0 0 0 0 0 0 0 0 0 0 0 0 
0 0 0 0 0 0 0 0 0 0 0 0 0 0 0 0 0 0 0 0 0 0 0 0 0 0 0 4 11 15 20 19 14 10 9 54 83 95 86 84 69 40 44 49 64 81 81 120 128 119 120 120 122 110 98 96 99 84 92 89 86 108 130 93 75 90 68 41 31 63 89 97 91 91 49 19 12 19 24 21 12 3 1 0 0 0 0 0 0 0 0 0 0 0 0 0 2 0 0 0 0 0 0 0 0 0 0 0 0 0 0 0 0 0 0 0 0 0 0 0 0 0 0 0 0 0 0 0 
0 0 0 0 0 0 0 0 0 0 0 0 0 0 0 0 0 0 0 0 0 0 0 0 0 0 0 2 8 13 18 19 13 10 5 8 19 28 35 75 81 44 40 63 101 95 76 115 125 91 109 141 139 111 88 96 99 113 138 137 123 111 116 85 65 89 77 41 34 69 77 39 42 26 21 18 12 21 25 18 10 3 1 0 0 0 0 0 0 0 0 0 0 0 0 0 2 0 0 0 0 0 0 0 0 0 0 0 0 0 0 0 0 0 0 0 0 0 0 0 0 0 0 0 0 0 0 0 
0 0 0 0 0 0 0 0 0 0 0 0 0 0 0 0 0 0 0 0 0 0 0 0 0 0 0 1 6 12 15 17 14 12 8 7 16 18 24 50 81 66 48 68 116 101 84 117 137 109 119 132 119 104 88 90 84 102 131 122 130 114 128 111 70 90 96 65 51 78 70 34 30 23 21 15 12 21 22 15 8 4 1 0 0 0 0 0 0 0 0 0 0 0 0 0 2 0 0 0 0 0 0 0 0 0 0 0 0 0 0 0 0 0 0 0 0 0 0 0 0 0 0 0 0 0 0 0 
0 0 0 0 0 0 0 0 0 0 0 0 0 0 0 0 0 0 0 0 0 0 0 0 0 0 0 0 7 8 15 17 14 10 9 7 15 22 24 30 64 86 77 88 113 98 80 120 146 115 101 99 95 108 101 97 92 102 140 152 130 125 159 147 82 82 100 87 81 83 45 33 25 26 23 15 13 18 18 14 6 4 1 0 0 0 0 0 0 0 0 0 0 0 0 0 2 0 0 0 0 0 0 0 0 0 0 0 0 0 0 0 0 0 0 0 0 0 0 0 0 0 0 0 0 0 0 0 
0 0 0 0 0 0 0 0 0 0 0 0 0 0 0 0 0 0 0 0 0 0 0 0 0 0 0 0 2 9 13 15 16 13 9 9 15 23 25 21 31 68 88 94 114 86 76 121 158 141 110 110 122 108 96 101 106 111 130 151 146 138 156 161 91 61 91 97 86 50 28 35 25 24 23 16 12 16 17 12 6 4 1 0 0 0 0 0 0 0 0 0 0 0 0 0 2 0 0 0 0 0 0 0 0 0 0 0 0 0 0 0 0 0 0 0 0 0 0 0 0 0 0 0 0 0 0 0 
0 0 0 0 0 0 0 0 0 0 0 0 0 0 0 0 0 0 0 0 0 0 0 0 0 0 0 0 0 9 7 14 14 17 12 11 9 22 27 23 23 31 38 63 86 74 73 112 157 161 160 148 130 110 103 100 102 117 130 145 162 178 166 147 86 62 60 51 33 25 28 31 25 23 21 17 11 16 15 10 6 4 1 0 0 0 0 0 0 0 0 0 0 0 0 0 2 0 0 0 0 0 0 0 0 0 0 0 0 0 0 0 0 0 0 0 0 0 0 0 0 0 0 0 0 0 0 0 
0 0 0 0 0 0 0 0 0 0 0 0 0 0 0 0 0 0 0 0 0 0 0 0 0 0 0 0 0 6 5 13 13 14 16 10 8 17 29 25 26 31 28 50 64 70 73 86 134 173 175 153 124 112 110 100 101 119 133 155 181 190 173 107 72 66 51 42 28 22 22 28 27 20 17 13 10 15 14 9 6 3 1 0 0 0 0 0 0 0 0 0 0 0 0 0 1 0 0 0 0 0 0 0 0 0 0 0 0 0 0 0 0 0 0 0 0 0 0 0 0 0 0 0 0 0 0 0 
