P2
128 99
253
0 0 0 0 0 0 0 0 0 0 0 0 0 0 0 0 0 0 0 0 0 0 0 0 0 0 0 0 0 0 0 0 0 0 0 0 0 0 0 0 0 0 0 0 0 0 0 0 0 0 0 0 0 0 0 0 0 0 0 0 0 0 0 0 0 0 0 0 0 0 0 0 0 0 0 0 0 0 0 0 0 0 0 0 0 0 0 0 0 0 0 0 0 0 0 0 0 0 0 0 0 0 0 0 0 0 0 0 0 0 0 0 0 0 0 0 0 0 0 0 0 0 0 0 0 0 0 0 
0 0 0 0 0 0 0 0 0 0 0 0 0 0 0 0 0 0 0 0 0 0 0 0 0 0 0 0 0 0 0 0 0 0 0 0 0 0 0 0 0 0 0 0 0 0 0 0 0 0 0 0 0 0 0 0 0 0 0 0 0 0 0 0 0 0 0 0 0 0 0 0 0 0 0 0 0 0 0 0 0 0 0 0 0 0 0 0 0 0 0 0 0 0 0 0 0 0 0 0 0 0 0 0 0 0 0 0 0 0 0 0 0 0 0 0 0 0 0 0 0 0 0 0 0 0 0 0 
0 0 0 0 0 0 0 0 0 0 0 0 0 0 0 0 0 0 0 0 0 0 0 0 0 0 0 0 0 0 0 0 0 0 0 0 0 0 0 0 0 0 0 0 0 0 0 0 0 0 4 7 6 2 0 0 0 0 0 0 0 0 0 0 0 0 0 0 0 0 0 0 0 0 0 0 0 0 0 0 0 0 0 0 0 0 0 0 0 0 0 0 0 0 0 0 0 0 0 0 0 0 0 0 0 0 0 0 0 0 0 0 0 0 0 0 0 0 0 0 0 0 0 0 0 0 0 0 
0 0 0 0 0 0 0 0 0 0 0 0 0 0 0 0 0 0 0 0 0 0 0 0 0 0 0 0 0 0 0 0 0 0 0 0 0 0 0 0 0 0 0 4 14 15 16 14 13 13 14 16 18 17 16 13 15 17 13 6 2 0 0 0 0 0 0 0 0 0 0 0 0 0 0 0 0 0 0 0 0 0 0 0 0 0 0 0 0 0 0 0 0 0 0 0 0 0 0 0 0 0 0 0 0 0 0 0 0 0 0 0 0 0 0 0 0 0 0 0 0 0 0 0 0 0 0 0 
0 0 0 0 0 0 0 0 0 0 0 0 0 0 0 0 0 0 0 0 0 0 0 0 0 0 0 0 0 0 0 0 0 0 0 0 0 0 0 0 1 16 24 20 22 30 47 74 89 99 107 113 116 113 107 98 90 80 66 42 26 22 12 7 1 0 0 0 0 0 0 0 0 0 0 0 0 0 0 0 0 0 0 0 0 0 0 0 0 0 0 0 0 0 0 0 0 0 0 0 0 0 0 0 0 0 0 0 0 0 0 0 0 0 0 0 0 0 0 0 0 0 0 0 0 0 0 0 
0 0 0 0 0 0 0 0 0 0 0 0 0 0 0 0 0 0 0 0 0 0 0 0 0 0 0 0 0 0 0 0 0 0 0 0 0 0 7 23 23 20 30 67 97 116 132 140 145 155 170 180 185 186 186 183 176 163 146 124 108 91 66 36 24 11 8 0 0 0 0 0 0 0 0 0 0 0 0 0 0 0 0 0 0 0 0 0 0 0 0 0 0 0 0 0 0 0 0 0 0 0 0 0 0 0 0 0 0 0 0 0 0 0 0 0 0 0 0 0 0 0 0 0 0 0 0 0 
0 0 0 0 0 0 0 0 0 0 0 0 0 0 0 0 0 0 0 0 0 0 0 0 0 0 0 0 0 0 0 0 0 0 0 0 7 27 25 20 42 88 121 142 150 156 170 188 208 218 214 210 206 202 204 210 216 219 224 215 195 168 135 112 96 70 34 16 8 2 0 0 0 0 0 0 0 0 0 0 0 0 0 0 0 0 0 0 0 0 0 0 0 0 0 0 0 0 0 0 0 0 0 0 0 0 0 0 0 0 0 0 0 0 0 0 0 0 0 0 0 0 0 0 0 0 0 0 
0 0 0 0 0 0 0 0 0 0 0 0 0 0 0 0 0 0 0 0 0 0 0 0 0 0 0 0 0 0 0 0 0 0 7 29 22 19 52 101 135 152 149 161 193 219 208 189 171 153 141 137 135 125 120 131 148 162 172 186 202 219 222 197 164 130 109 87 44 20 8 1 0 0 0 0 0 0 0 0 0 0 0 0 0 0 0 0 0 0 0 0 0 0 0 0 0 0 0 0 0 0 0 0 0 0 0 0 0 0 0 0 0 0 0 0 0 0 0 0 0 0 0 0 0 0 0 0 
0 0 0 0 0 0 0 0 0 0 0 0 0 0 0 0 0 0 0 0 0 0 0 0 0 0 0 0 0 0 0 0 3 30 22 18 49 107 140 155 149 172 209 215 194 166 142 118 104 103 105 113 107 95 108 118 123 131 139 142 145 157 177 199 222 218 182 146 116 86 42 25 11 0 0 0 0 0 0 0 0 0 0 0 0 0 0 0 0 0 0 0 0 0 0 0 0 0 0 0 0 0 0 0 0 0 0 0 0 0 0 0 0 0 0 0 0 0 0 0 0 0 0 0 0 0 0 0 
0 0 0 0 0 0 0 0 0 0 0 0 0 0 0 0 0 0 0 0 0 0 0 0 0 0 0 0 0 0 0 23 27 15 34 97 139 154 152 177 212 210 177 146 138 142 142 143 148 121 99 107 111 113 115 119 137 149 148 147 150 146 142 147 166 191 219 223 190 147 113 69 29 20 1 0 0 0 0 0 0 0 0 0 0 0 0 0 0 0 0 0 0 0 0 0 0 0 0 0 0 0 0 0 0 0 0 0 0 0 0 0 0 0 0 0 0 0 0 0 0 0 0 0 0 0 0 0 
0 0 0 0 0 0 0 0 0 0 0 0 0 0 0 0 0 0 0 0 0 0 0 0 0 0 0 0 0 11 29 18 20 75 131 154 154 172 212 211 180 156 146 154 156 158 162 165 164 166 149 142 140 148 155 161 164 173 177 174 162 157 164 157 142 141 155 180 213 223 185 138 98 42 21 5 0 0 0 0 0 0 0 0 0 0 0 0 0 0 0 0 0 0 0 0 0 0 0 0 0 0 0 0 0 0 0 0 0 0 0 0 0 0 0 0 0 0 0 0 0 0 0 0 0 0 0 0 
0 0 0 0 0 0 0 0 0 0 0 0 0 0 0 0 0 0 0 0 0 0 0 0 0 0 0 0 20 22 13 44 112 148 157 170 209 214 180 158 139 137 145 146 155 168 175 170 166 165 166 154 147 149 156 161 158 168 175 182 182 175 170 173 170 166 147 140 148 183 214 215 162 116 57 21 10 0 0 0 0 0 0 0 0 0 0 0 0 0 0 0 0 0 0 0 0 0 0 0 0 0 0 0 0 0 0 0 0 0 0 0 0 0 0 0 0 0 0 0 0 0 0 0 0 0 0 0 
0 0 0 0 0 0 0 0 0 0 0 0 0 0 0 0 0 0 0 0 0 0 0 0 0 0 2 22 18 13 72 135 153 158 191 215 188 164 151 136 134 153 162 159 150 154 162 163 167 173 171 166 164 166 156 119 102 115 134 151 163 170 167 161 169 178 175 165 148 138 155 196 221 177 124 64 21 11 0 0 0 0 0 0 0 0 0 0 0 0 0 0 0 0 0 0 0 0 0 0 0 0 0 0 0 0 0 0 0 0 0 0 0 0 0 0 0 0 0 0 0 0 0 0 0 0 0 0 
0 0 0 0 0 0 0 0 0 0 0 0 0 0 0 0 0 0 0 0 0 0 0 0 0 11 21 18 27 95 140 148 166 211 205 173 154 140 131 152 169 160 130 122 123 110 99 123 142 149 142 147 130 120 109 104 102 99 104 120 145 164 167 162 153 156 171 181 178 161 140 142 178 212 187 134 71 24 11 0 0 0 0 0 0 0 0 0 0 0 0 0 0 0 0 0 0 0 0 0 0 0 0 0 0 0 0 0 0 0 0 0 0 0 0 0 0 0 0 0 0 0 0 0 0 0 0 0 
0 0 0 0 0 0 0 0 0 0 0 0 0 0 0 0 0 0 0 0 0 0 0 0 14 19 16 37 104 141 143 174 218 198 162 141 124 138 166 172 151 127 125 120 109 96 94 99 100 88 64 64 57 72 82 72 75 90 97 94 104 137 160 157 155 155 150 157 169 176 175 150 138 169 207 192 139 76 23 10 0 0 0 0 0 0 0 0 0 0 0 0 0 0 0 0 0 0 0 0 0 0 0 0 0 0 0 0 0 0 0 0 0 0 0 0 0 0 0 0 0 0 0 0 0 0 0 0 
0 0 0 0 0 0 0 0 0 0 0 0 0 0 0 0 0 0 0 0 0 0 0 23 15 16 44 110 136 141 188 220 192 153 127 119 148 167 161 142 124 113 98 99 100 101 100 92 65 62 58 58 57 57 57 56 54 57 77 99 97 100 125 158 158 153 160 153 147 154 166 173 157 138 163 207 189 143 84 23 10 0 0 0 0 0 0 0 0 0 0 0 0 0 0 0 0 0 0 0 0 0 0 0 0 0 0 0 0 0 0 0 0 0 0 0 0 0 0 0 0 0 0 0 0 0 0 0 
0 0 0 0 0 0 0 0 0 0 0 0 0 0 0 0 0 0 0 0 0 3 23 11 14 55 112 134 144 201 221 185 139 118 126 157 165 164 145 114 100 95 93 93 95 88 73 54 52 54 56 53 51 52 55 55 53 54 54 60 67 84 95 109 143 154 147 154 157 152 150 157 167 165 139 164 211 188 145 92 28 10 0 0 0 0 0 0 0 0 0 0 0 0 0 0 0 0 0 0 0 0 0 0 0 0 0 0 0 0 0 0 0 0 0 0 0 0 0 0 0 0 0 0 0 0 0 0 
0 0 0 0 0 0 0 0 0 0 0 0 0 0 0 0 0 0 0 0 6 22 8 14 66 117 129 145 206 222 180 122 110 132 162 167 161 123 96 93 94 87 93 86 71 58 54 51 52 52 52 56 52 54 58 62 68 70 67 65 59 54 64 81 95 129 150 153 151 151 142 142 153 161 168 146 174 217 186 148 101 33 9 0 0 0 0 0 0 0 0 0 0 0 0 0 0 0 0 0 0 0 0 0 0 0 0 0 0 0 0 0 0 0 0 0 0 0 0 0 0 0 0 0 0 0 0 0 
0 0 0 0 0 0 0 0 0 0 0 0 0 0 0 0 0 0 0 5 22 8 17 76 121 131 143 202 223 178 116 108 135 164 164 154 118 97 92 88 92 87 76 64 66 64 64 61 62 59 58 61 65 74 86 93 100 102 100 99 95 85 70 59 61 78 113 145 150 144 137 138 144 145 155 170 147 179 216 168 144 101 36 6 0 0 0 0 0 0 0 0 0 0 0 0 0 0 0 0 0 0 0 0 0 0 0 0 0 0 0 0 0 0 0 0 0 0 0 0 0 0 0 0 0 0 0 0 
0 0 0 0 0 0 0 0 0 0 0 0 0 0 0 0 0 0 2 21 8 18 94 124 122 146 192 224 166 110 111 134 160 162 151 109 90 91 94 96 92 89 91 95 93 90 89 89 87 83 84 94 104 111 113 112 108 105 106 106 106 107 104 94 73 54 63 103 133 149 140 133 141 150 137 140 157 145 186 202 147 140 101 29 4 0 0 0 0 0 0 0 0 0 0 0 0 0 0 0 0 0 0 0 0 0 0 0 0 0 0 0 0 0 0 0 0 0 0 0 0 0 0 0 0 0 0 0 
0 0 0 0 0 0 0 0 0 0 0 0 0 0 0 0 0 0 21 9 18 103 135 115 150 177 221 167 108 116 132 154 154 153 113 84 91 102 100 100 102 104 101 101 104 107 112 118 121 123 126 130 135 137 138 139 138 135 129 124 115 107 100 103 104 84 62 69 92 124 146 139 142 154 152 126 129 148 156 203 175 145 130 90 16 0 0 0 0 0 0 0 0 0 0 0 0 0 0 0 0 0 0 0 0 0 0 0 0 0 0 0 0 0 0 0 0 0 0 0 0 0 0 0 0 0 0 0 
0 0 0 0 0 0 0 0 0 0 0 0 0 0 0 0 0 13 11 13 87 145 107 144 171 209 175 109 111 133 152 151 152 120 91 100 106 104 101 102 101 96 94 104 118 133 145 153 162 168 168 168 172 172 172 172 171 170 165 160 146 126 111 100 101 103 90 66 68 82 110 142 140 142 151 156 123 124 144 183 209 157 141 116 56 5 0 0 0 0 0 0 0 0 0 0 0 0 0 0 0 0 0 0 0 0 0 0 0 0 0 0 0 0 0 0 0 0 0 0 0 0 0 0 0 0 0 0 
0 0 0 0 0 0 0 0 0 0 0 0 0 0 0 0 4 15 10 56 151 105 136 167 191 187 111 107 131 141 148 152 128 103 111 107 100 98 92 90 91 97 106 130 150 161 171 176 182 178 173 175 177 177 174 168 176 176 178 175 174 161 136 111 99 99 104 94 72 62 79 107 140 148 142 151 154 120 118 153 213 182 142 130 111 24 0 0 0 0 0 0 0 0 0 0 0 0 0 0 0 0 0 0 0 0 0 0 0 0 0 0 0 0 0 0 0 0 0 0 0 0 0 0 0 0 0 0 
0 0 0 0 0 0 0 0 0 0 0 0 0 0 0 0 13 12 29 137 114 122 164 178 195 138 100 129 142 143 139 123 109 120 108 94 92 89 88 85 97 118 144 158 170 174 172 175 173 159 148 153 161 160 154 146 157 160 169 177 185 184 166 140 108 94 95 102 98 71 52 59 101 143 145 140 163 150 122 119 192 208 151 140 126 77 7 0 0 0 0 0 0 0 0 0 0 0 0 0 0 0 0 0 0 0 0 0 0 0 0 0 0 0 0 0 0 0 0 0 0 0 0 0 0 0 0 0 
0 0 0 0 0 0 0 0 0 0 0 0 0 0 0 3 12 14 94 141 107 150 176 185 175 111 126 137 150 143 126 109 120 104 95 88 87 85 83 87 113 145 170 174 171 172 169 157 155 153 147 149 148 147 151 145 148 154 156 174 181 186 185 170 137 104 91 97 105 99 71 50 57 106 141 146 154 163 134 112 164 218 166 143 124 120 24 0 0 0 0 0 0 0 0 0 0 0 0 0 0 0 0 0 0 0 0 0 0 0 0 0 0 0 0 0 0 0 0 0 0 0 0 0 0 0 0 0 
0 0 0 0 0 0 0 0 0 0 0 0 0 0 1 8 11 54 148 108 129 171 168 194 149 116 130 146 148 128 111 120 103 92 88 83 85 84 90 110 144 172 185 175 169 168 156 152 155 156 153 159 154 152 150 149 150 156 163 171 170 183 192 192 171 133 100 90 96 103 96 64 50 70 116 148 146 159 148 122 140 213 179 142 129 132 55 4 0 0 0 0 0 0 0 0 0 0 0 0 0 0 0 0 0 0 0 0 0 0 0 0 0 0 0 0 0 0 0 0 0 0 0 0 0 0 0 0 
0 0 0 0 0 0 0 0 0 0 0 0 0 0 2 12 22 120 136 106 156 161 165 178 133 128 139 156 133 108 120 108 92 88 85 84 81 90 112 145 172 186 180 167 161 159 158 164 163 161 159 163 163 161 156 159 156 151 149 160 157 174 182 182 182 164 127 97 89 98 103 92 61 53 87 125 150 153 150 132 129 192 193 137 137 123 107 12 0 0 0 0 0 0 0 0 0 0 0 0 0 0 0 0 0 0 0 0 0 0 0 0 0 0 0 0 0 0 0 0 0 0 0 0 0 0 0 0 
0 0 0 0 0 0 0 0 0 0 0 0 0 0 7 13 65 141 110 119 167 146 167 167 125 126 151 135 100 118 104 92 88 83 85 84 91 111 146 176 182 176 171 160 145 154 165 168 172 163 157 161 165 161 147 152 153 139 144 145 133 138 163 178 173 175 166 131 99 93 99 103 83 52 65 88 116 149 150 128 131 174 195 136 139 123 139 32 0 0 0 0 0 0 0 0 0 0 0 0 0 0 0 0 0 0 0 0 0 0 0 0 0 0 0 0 0 0 0 0 0 0 0 0 0 0 0 0 
0 0 0 0 0 0 0 0 0 0 0 0 0 2 6 29 105 142 105 144 159 135 175 162 128 122 141 104 105 111 92 86 82 82 88 93 111 146 170 170 166 155 146 134 123 124 135 147 163 151 152 163 157 158 140 124 138 134 125 102 94 105 126 157 163 164 179 171 126 97 95 99 97 66 52 81 91 124 153 129 132 166 193 149 139 126 139 58 3 0 0 0 0 0 0 0 0 0 0 0 0 0 0 0 0 0 0 0 0 0 0 0 0 0 0 0 0 0 0 0 0 0 0 0 0 0 0 0 
0 0 0 0 0 0 0 0 0 0 0 0 0 1 13 58 133 124 107 160 127 140 189 149 129 117 107 93 110 99 91 83 84 85 94 113 149 177 170 147 133 138 127 112 107 105 105 126 129 110 117 146 139 140 114 93 101 106 100 79 76 85 102 134 162 159 169 188 173 126 99 94 98 81 52 72 88 96 145 132 128 162 189 154 137 127 126 85 6 0 0 0 0 0 0 0 0 0 0 0 0 0 0 0 0 0 0 0 0 0 0 0 0 0 0 0 0 0 0 0 0 0 0 0 0 0 0 0 
0 0 0 0 0 0 0 0 0 0 0 0 0 3 18 81 139 112 125 154 115 156 174 140 124 94 92 103 112 94 85 81 81 89 112 154 186 177 143 129 123 108 109 117 117 108 84 81 80 73 82 103 118 104 85 72 71 78 83 82 82 81 83 114 149 158 156 170 190 172 121 97 96 93 62 67 85 91 134 131 119 154 181 155 138 124 113 104 9 0 0 0 0 0 0 0 0 0 0 0 0 0 0 0 0 0 0 0 0 0 0 0 0 0 0 0 0 0 0 0 0 0 0 0 0 0 0 0 
0 0 0 0 0 0 0 0 0 0 0 0 0 6 29 104 134 105 146 138 116 159 162 136 103 79 96 122 110 89 83 82 90 112 156 191 183 149 130 109 61 48 53 86 114 97 66 54 55 58 64 71 85 77 67 61 61 63 68 82 99 105 99 108 137 152 141 132 170 196 169 116 96 97 73 63 82 88 114 128 123 148 176 156 142 129 109 121 13 0 0 0 0 0 0 0 0 0 0 0 0 0 0 0 0 0 0 0 0 0 0 0 0 0 0 0 0 0 0 0 0 0 0 0 0 0 0 0 
0 0 0 0 0 0 0 0 0 0 0 0 0 7 42 121 131 110 150 120 124 155 164 125 70 80 109 127 102 86 83 84 109 157 190 185 152 133 117 63 47 48 48 52 80 86 60 51 51 57 67 69 84 86 76 73 80 86 86 83 79 86 76 71 83 91 105 134 152 187 197 166 114 102 93 65 75 78 100 115 119 141 173 151 147 135 116 129 24 0 0 0 0 0 0 0 0 0 0 0 0 0 0 0 0 0 0 0 0 0 0 0 0 0 0 0 0 0 0 0 0 0 0 0 0 0 0 0 
0 0 0 0 0 0 0 0 0 0 0 0 1 8 53 132 126 119 147 111 132 161 166 100 50 87 123 124 95 88 83 97 151 194 194 153 120 120 90 51 49 49 45 48 60 75 66 56 56 65 76 71 92 97 89 90 102 117 115 83 49 47 48 49 50 61 81 102 141 158 189 200 164 113 101 73 67 78 94 108 117 144 180 160 147 138 126 128 37 0 0 0 0 0 0 0 0 0 0 0 0 0 0 0 0 0 0 0 0 0 0 0 0 0 0 0 0 0 0 0 0 0 0 0 0 0 0 0 
0 0 0 0 0 0 0 0 0 0 0 0 1 13 57 137 122 132 145 111 134 166 160 79 46 93 130 118 90 86 92 133 188 196 169 118 93 109 124 79 78 63 46 45 44 52 69 74 72 87 99 81 79 94 97 111 116 128 131 84 48 48 48 48 50 53 73 116 139 138 158 190 201 162 113 85 56 80 93 95 116 155 184 164 150 140 138 121 53 1 0 0 0 0 0 0 0 0 0 0 0 0 0 0 0 0 0 0 0 0 0 0 0 0 0 0 0 0 0 0 0 0 0 0 0 0 0 0 
0 0 0 0 0 0 0 0 0 0 0 0 2 15 63 144 112 142 140 113 139 171 148 70 47 103 130 112 89 87 119 177 196 179 136 114 88 88 100 117 122 105 47 48 46 45 50 85 105 109 115 94 66 82 110 128 125 122 124 68 47 49 49 49 49 65 105 117 124 138 163 172 191 203 165 104 62 82 84 83 125 159 184 163 158 146 148 118 64 4 0 0 0 0 0 0 0 0 0 0 0 0 0 0 0 0 0 0 0 0 0 0 0 0 0 0 0 0 0 0 0 0 0 0 0 0 0 0 
0 0 0 0 0 0 0 0 0 0 0 0 3 11 69 141 105 148 141 127 141 173 144 72 55 107 129 108 89 97 165 190 175 156 138 78 48 48 49 47 56 69 54 47 47 45 45 72 115 134 134 110 88 94 120 99 77 78 77 51 49 48 47 54 60 54 60 81 93 89 96 133 182 201 210 169 88 85 72 83 132 150 185 161 157 149 146 117 64 4 0 0 0 0 0 0 0 0 0 0 0 0 0 0 0 0 0 0 0 0 0 0 0 0 0 0 0 0 0 0 0 0 0 0 0 0 0 0 
0 0 0 0 0 0 0 0 0 0 0 0 7 8 77 133 101 153 137 127 146 172 142 70 68 108 128 100 92 134 191 175 175 160 77 48 48 46 49 49 50 51 47 55 69 54 47 47 46 55 69 104 108 113 113 55 48 48 48 48 49 54 55 47 53 56 61 81 96 92 88 89 103 166 210 216 168 93 60 86 137 172 187 153 153 146 147 119 66 6 0 0 0 0 0 0 0 0 0 0 0 0 0 0 0 0 0 0 0 0 0 0 0 0 0 0 0 0 0 0 0 0 0 0 0 0 0 0 
0 0 0 0 0 0 0 0 0 0 0 0 7 6 85 131 105 152 133 126 144 162 145 99 95 110 124 99 110 182 186 177 170 98 56 51 51 55 54 55 57 56 51 48 51 66 48 50 48 46 47 68 97 94 74 50 49 49 48 50 53 52 48 50 59 57 63 81 97 97 95 90 87 105 179 225 214 132 53 91 147 184 187 147 145 142 147 126 70 7 0 0 0 0 0 0 0 0 0 0 0 0 0 0 0 0 0 0 0 0 0 0 0 0 0 0 0 0 0 0 0 0 0 0 0 0 0 0 
0 0 0 0 0 0 0 0 0 0 0 0 11 4 91 125 108 150 131 130 147 150 135 122 104 116 114 115 155 194 181 179 111 78 56 53 56 55 54 55 58 56 55 47 48 51 53 48 48 48 46 57 96 79 65 51 50 50 48 55 57 48 50 58 61 62 62 77 94 101 108 108 112 122 138 199 217 164 64 86 153 193 179 139 138 134 147 128 86 18 0 0 0 0 0 0 0 0 0 0 0 0 0 0 0 0 0 0 0 0 0 0 0 0 0 0 0 0 0 0 0 0 0 0 0 0 0 0 
0 0 0 0 0 0 0 0 0 0 0 0 10 8 100 120 109 150 133 137 150 140 118 131 102 120 100 129 194 187 187 136 92 75 56 54 56 55 57 56 54 54 57 52 48 49 60 55 46 49 46 53 80 73 70 50 49 51 48 79 50 46 53 59 66 74 82 99 110 118 115 112 114 125 131 144 195 165 75 78 151 188 176 125 127 125 147 130 93 30 0 0 0 0 0 0 0 0 0 0 0 0 0 0 0 0 0 0 0 0 0 0 0 0 0 0 0 0 0 0 0 0 0 0 0 0 0 0 
0 0 0 0 0 0 0 0 0 0 0 0 9 10 111 114 107 156 135 133 153 126 121 134 114 112 95 131 199 196 183 114 107 86 68 63 59 64 66 65 66 59 55 57 50 49 53 64 48 48 49 53 63 68 69 50 48 49 60 74 51 48 64 79 85 83 78 91 106 111 112 109 117 124 124 122 130 135 72 77 145 185 178 122 110 118 146 131 93 45 1 0 0 0 0 0 0 0 0 0 0 0 0 0 0 0 0 0 0 0 0 0 0 0 0 0 0 0 0 0 0 0 0 0 0 0 0 0 
0 0 0 0 0 0 0 0 0 0 0 0 9 15 119 110 109 158 136 141 151 120 117 126 117 103 97 127 196 201 164 118 107 88 79 76 80 77 81 80 80 83 69 56 54 49 49 63 48 49 49 51 57 89 82 62 49 49 62 64 50 65 72 66 61 64 71 84 99 111 112 110 115 124 127 120 97 80 53 74 138 177 175 123 94 98 135 136 94 56 4 0 0 0 0 0 0 0 0 0 0 0 0 0 0 0 0 0 0 0 0 0 0 0 0 0 0 0 0 0 0 0 0 0 0 0 0 0 
0 0 0 0 0 0 0 0 0 0 0 0 11 13 121 108 113 162 139 143 137 116 116 125 105 102 102 115 180 194 140 111 105 84 73 68 67 66 74 73 62 64 69 73 62 49 47 58 74 48 50 55 82 88 98 92 51 48 70 59 68 72 58 56 54 54 55 71 98 109 109 111 110 112 122 116 89 53 44 79 132 166 170 126 87 81 117 133 93 60 5 0 0 0 0 0 0 0 0 0 0 0 0 0 0 0 0 0 0 0 0 0 0 0 0 0 0 0 0 0 0 0 0 0 0 0 0 0 
0 0 0 0 0 0 0 0 0 0 0 0 11 15 123 109 114 161 133 129 130 116 119 111 83 98 103 108 168 181 128 111 99 79 69 72 71 71 74 56 51 53 53 57 67 70 57 52 63 48 50 57 83 65 68 93 62 53 83 72 61 56 56 50 49 48 52 64 94 108 111 110 109 112 116 113 80 46 44 85 133 153 164 124 75 75 112 132 94 69 4 0 0 0 0 0 0 0 0 0 0 0 0 0 0 0 0 0 0 0 0 0 0 0 0 0 0 0 0 0 0 0 0 0 0 0 0 0 
0 0 0 0 0 0 0 0 0 0 0 0 11 19 119 108 118 159 109 111 127 125 121 74 61 98 107 110 162 176 127 107 96 85 75 68 67 69 68 51 49 50 50 50 50 62 70 65 58 54 60 82 73 61 68 60 78 57 85 63 50 51 54 55 51 48 51 65 96 110 111 111 106 114 113 106 70 45 44 93 136 155 176 133 60 71 98 142 100 77 4 0 0 0 0 0 0 0 0 0 0 0 0 0 0 0 0 0 0 0 1 0 0 0 0 0 0 0 0 0 0 0 0 0 0 0 0 0 
0 0 0 0 0 0 0 0 0 0 0 0 11 20 119 114 124 151 107 104 119 130 117 60 54 94 109 105 152 181 143 104 94 84 78 71 67 76 76 52 50 47 50 50 49 50 70 68 43 41 56 86 59 50 51 41 58 56 60 56 52 53 56 53 50 50 53 69 96 109 110 107 105 106 114 103 59 43 44 101 133 150 181 136 56 75 96 143 102 82 4 0 0 0 0 0 0 0 0 0 0 0 0 0 0 0 0 0 0 0 0 0 0 0 0 0 0 0 0 0 0 0 0 0 0 0 0 0 
0 0 0 0 0 0 0 0 0 0 0 0 8 19 113 119 129 130 108 109 126 137 119 59 49 87 108 105 147 189 169 112 91 82 78 74 72 80 79 60 49 48 50 49 50 51 61 47 41 41 68 60 48 46 52 46 56 83 45 52 50 54 57 51 51 53 54 69 92 108 106 104 108 109 112 94 55 43 44 109 130 145 181 132 52 76 104 132 102 82 4 0 0 0 0 0 0 0 0 0 0 0 0 0 0 0 0 0 0 0 0 0 0 0 0 0 0 0 0 0 0 0 0 0 0 0 0 0 
0 0 0 0 0 0 0 0 0 0 0 0 6 18 104 121 128 114 106 112 124 144 121 57 46 71 103 106 153 196 194 131 90 77 77 72 72 75 76 62 51 49 47 48 49 49 70 72 43 46 83 46 48 48 60 47 48 81 71 51 48 46 53 49 49 52 57 70 91 104 102 101 110 108 103 73 49 52 50 111 128 139 174 113 48 77 118 137 114 78 3 0 0 0 0 0 0 0 0 0 0 0 0 0 0 0 0 0 0 0 0 0 0 0 0 0 0 0 0 0 0 0 0 0 0 0 0 0 
0 0 0 0 0 0 0 0 0 0 0 0 2 15 99 125 133 113 104 109 125 147 133 68 50 57 91 111 164 197 197 155 90 70 67 70 67 68 68 64 50 51 45 47 50 46 51 50 46 66 77 45 48 52 64 49 50 59 88 56 51 47 50 53 51 55 59 71 87 100 102 107 111 108 91 55 46 58 61 112 129 139 173 90 51 85 137 137 112 68 1 0 0 0 0 0 0 0 0 0 0 0 0 0 0 0 0 0 0 0 0 0 0 0 0 0 0 0 0 0 0 0 0 0 0 0 0 0 
0 0 0 0 0 0 0 0 0 0 0 0 0 13 95 132 134 128 97 107 123 140 142 90 55 47 81 115 177 186 186 143 89 68 60 62 60 64 64 68 55 48 51 56 46 46 47 53 60 81 55 46 46 53 64 60 51 47 75 70 57 50 46 49 51 53 59 67 81 97 105 113 108 106 79 47 49 85 89 105 127 154 165 64 52 91 162 133 117 59 1 0 0 0 0 0 0 0 0 0 0 0 0 0 0 0 0 0 0 0 0 0 0 0 0 0 0 0 0 0 0 0 0 0 0 0 0 0 
0 0 0 0 0 0 0 0 0 17 12 0 0 10 91 137 131 138 100 108 123 137 149 106 58 45 68 121 188 168 171 136 87 72 56 57 63 63 66 66 63 50 46 45 48 61 76 61 72 75 46 45 45 65 71 69 55 48 61 100 98 66 55 55 59 68 72 74 89 101 104 107 102 101 66 42 80 147 162 134 132 170 138 45 56 97 173 121 115 47 1 0 0 0 0 0 0 0 0 0 0 0 0 0 0 0 0 0 0 0 0 0 0 0 0 0 0 0 0 0 0 0 0 0 0 0 0 0 
0 0 0 0 0 0 0 0 0 0 7 1 0 10 79 144 126 131 95 102 124 128 150 118 69 42 59 124 190 145 140 146 89 69 57 52 59 62 63 61 63 54 45 55 62 65 94 92 104 76 49 38 47 62 51 61 85 58 57 101 110 110 68 56 44 61 60 76 93 104 104 104 100 95 54 61 141 145 176 177 161 186 104 37 61 101 163 99 116 41 1 0 0 0 0 0 0 0 0 0 0 0 0 0 0 0 0 0 0 0 0 0 0 0 0 0 0 0 0 0 0 0 0 0 0 0 0 0 
0 0 0 0 0 0 0 0 0 0 0 8 0 9 68 147 125 119 90 99 130 125 143 126 77 43 48 120 186 143 135 157 101 70 62 52 56 61 59 59 60 57 63 67 60 48 57 68 94 37 35 44 49 71 50 53 74 72 69 71 93 67 91 84 68 64 67 78 100 106 100 98 98 81 52 114 135 117 178 217 186 179 74 33 67 128 141 92 115 32 0 0 0 0 0 0 0 0 0 0 0 0 0 0 0 0 0 0 0 0 0 0 0 0 0 0 0 0 0 0 0 0 0 0 0 0 0 0 
0 0 0 0 0 0 0 0 0 0 0 15 0 9 61 147 121 102 92 85 116 124 136 146 94 47 47 111 186 173 159 146 118 78 65 56 52 55 52 58 63 73 76 67 51 47 53 85 96 44 39 58 44 66 42 49 63 57 56 96 101 59 61 79 95 127 134 137 136 132 125 109 113 91 103 129 123 123 184 223 196 134 47 33 84 154 127 96 122 23 0 0 0 17 13 0 0 0 0 0 0 0 0 0 0 0 0 0 0 0 0 0 0 0 0 0 0 0 0 0 0 0 0 0 0 0 0 0 
0 0 0 0 0 0 0 0 0 0 0 16 0 9 49 146 121 109 104 85 111 127 127 161 116 68 47 113 182 170 150 122 101 93 72 55 52 57 79 83 56 53 59 59 69 65 70 104 77 34 57 63 44 65 46 36 38 49 54 111 102 65 92 81 89 103 114 133 141 139 145 138 119 73 88 143 136 131 192 232 188 90 32 48 105 144 70 97 127 15 0 0 7 0 0 0 0 0 0 0 0 0 0 0 0 0 0 0 0 0 0 0 0 0 0 0 0 0 0 0 0 0 0 0 0 0 0 0 
0 0 0 0 0 0 0 0 0 0 0 18 4 10 35 142 121 115 110 82 103 133 128 151 137 101 74 125 162 154 139 112 109 112 102 94 80 63 64 56 50 49 49 45 75 90 65 76 71 45 64 53 57 76 60 36 37 49 57 122 105 74 92 99 96 108 106 112 118 121 141 139 86 53 106 145 155 167 200 229 161 54 34 108 170 120 49 125 124 9 0 0 7 0 0 0 0 0 0 0 0 0 0 0 0 0 0 0 0 0 0 0 0 0 0 0 0 0 0 0 0 0 0 0 0 0 0 0 
0 0 0 0 0 0 0 0 0 0 0 17 6 12 23 129 122 121 116 90 81 130 145 136 156 119 110 158 145 156 142 118 115 127 117 109 102 101 99 94 68 44 53 57 82 82 82 85 76 53 38 35 55 76 62 36 45 54 75 100 130 131 108 107 101 131 139 122 108 135 158 155 119 125 122 137 175 195 207 232 136 42 72 159 174 74 36 137 109 4 0 0 5 0 0 0 0 0 0 0 0 0 0 0 0 0 0 0 0 0 0 0 0 0 0 0 0 0 0 0 0 0 0 0 0 0 0 0 
0 0 0 0 0 0 0 0 0 0 0 15 5 12 14 100 121 123 129 102 62 103 153 137 165 151 121 182 145 147 149 141 143 157 165 135 104 99 105 97 59 58 102 109 98 74 96 88 99 55 34 36 33 67 52 36 59 81 78 87 117 110 129 111 87 137 186 178 168 156 146 118 121 113 80 145 196 206 213 232 192 125 157 202 159 67 85 147 71 0 0 0 4 0 0 0 0 0 0 0 0 0 0 0 0 0 0 0 0 0 0 0 0 0 0 0 0 0 0 0 0 0 0 0 0 0 0 0 
0 0 0 0 0 0 0 0 0 0 0 17 6 12 11 64 116 109 140 128 74 91 140 151 185 167 121 162 133 142 156 161 157 173 167 145 121 86 94 65 67 115 124 106 97 85 87 76 73 52 58 55 36 60 55 58 69 80 86 89 104 112 114 108 98 121 154 179 181 176 159 104 116 107 85 142 208 219 214 211 212 196 202 194 151 54 69 130 28 2 0 1 4 0 0 0 0 0 0 0 0 0 0 0 0 0 0 0 0 0 0 0 0 0 0 0 0 0 0 0 0 0 0 0 0 0 0 0 
0 0 0 0 0 0 0 0 0 0 0 11 9 5 15 17 88 95 116 165 137 103 136 177 210 202 159 158 129 140 142 158 179 155 163 154 130 120 127 101 101 123 134 122 79 66 98 77 84 53 66 85 61 68 85 77 86 89 79 81 68 59 76 76 78 110 127 159 165 158 110 67 70 71 76 150 215 233 235 212 194 136 134 170 172 85 67 132 36 6 0 3 8 0 0 0 0 0 0 0 0 0 0 0 0 0 0 0 0 0 0 0 0 0 0 0 0 0 0 0 0 0 0 0 0 0 0 0 
0 0 0 0 0 0 0 0 0 0 0 16 7 2 13 12 52 102 101 151 166 151 123 126 162 187 184 188 138 157 133 129 177 154 164 164 159 168 170 133 108 102 100 91 73 69 82 63 78 87 120 120 100 114 115 98 71 53 53 76 69 77 72 86 109 124 130 136 142 110 60 44 43 51 123 186 209 224 198 182 179 149 148 155 104 122 104 103 14 5 0 4 9 0 0 0 0 0 0 0 0 0 0 0 0 0 0 0 0 0 0 0 0 0 0 0 0 0 0 0 0 0 0 0 0 0 0 0 
0 0 0 0 0 0 0 0 0 0 0 16 5 0 8 12 28 108 99 145 118 155 158 121 118 138 159 195 181 166 160 125 146 165 180 182 169 173 144 123 108 99 95 84 74 68 65 54 77 110 109 111 100 112 119 85 47 60 72 96 103 94 111 112 100 102 127 143 129 99 81 64 86 163 196 192 198 184 155 184 166 128 103 93 100 90 129 57 9 5 2 0 9 2 0 0 0 0 0 0 0 0 0 0 0 0 0 0 0 0 0 0 0 0 0 0 0 0 0 0 0 0 0 0 0 0 0 0 
0 0 0 0 0 0 0 0 0 0 0 18 6 0 7 9 9 89 96 110 112 142 136 142 147 140 132 165 196 185 151 71 71 95 127 171 176 151 116 107 110 103 93 96 111 111 100 80 122 128 85 80 79 96 103 101 58 42 62 88 121 105 116 139 129 116 114 114 90 71 86 93 99 202 211 208 187 167 165 184 118 98 109 86 59 64 119 20 12 13 5 0 3 6 0 0 0 0 0 0 0 0 0 0 0 0 0 0 0 0 0 0 0 0 0 0 0 0 0 0 0 0 0 0 0 0 0 0 
0 0 0 0 0 0 0 0 0 0 0 15 13 1 2 9 6 52 113 111 105 94 121 147 170 130 116 141 192 207 174 97 52 60 88 133 169 136 127 96 89 94 113 132 124 112 128 106 111 105 83 66 74 82 96 95 85 76 87 120 115 120 119 145 157 125 82 53 46 47 50 88 178 186 182 182 174 148 107 131 87 82 85 75 44 121 69 7 5 6 1 0 1 8 0 0 0 0 0 0 0 0 0 0 0 0 0 0 0 0 0 0 0 0 0 0 0 0 0 0 0 0 0 0 0 0 0 0 
0 0 0 0 0 0 0 0 0 0 0 5 18 8 1 7 5 18 118 100 70 99 152 171 183 103 89 129 142 169 167 134 68 61 66 66 105 154 131 99 95 113 120 117 106 105 130 120 110 108 96 90 82 93 123 105 101 98 107 131 125 137 137 146 145 104 54 43 43 49 86 171 173 162 172 165 159 144 158 109 80 82 81 41 9 113 27 4 6 7 2 0 1 10 0 0 0 0 0 0 0 0 0 0 0 0 0 0 0 0 0 0 0 0 0 0 0 0 0 0 0 0 0 0 0 0 0 0 
0 0 0 0 0 0 0 0 0 0 0 1 8 12 6 6 6 9 85 109 51 82 149 190 188 142 114 106 139 153 158 144 104 78 60 44 42 59 105 102 109 128 119 119 115 118 134 127 130 118 122 126 122 137 141 153 139 112 112 143 148 150 145 122 105 96 58 49 49 98 159 145 153 152 155 159 139 147 181 167 88 82 67 19 54 89 13 4 7 8 4 0 3 9 0 0 0 0 0 0 0 0 0 0 0 0 0 0 0 0 0 0 0 0 0 0 0 0 0 0 0 0 0 0 0 0 0 0 
0 0 0 0 0 0 0 0 0 0 0 1 5 8 8 7 9 9 40 119 55 45 112 126 185 171 157 91 124 162 151 134 134 128 92 59 44 37 49 97 114 133 126 130 131 144 156 162 159 156 180 184 184 170 150 139 139 134 135 156 173 167 135 81 71 91 90 78 116 164 143 147 154 139 126 145 142 148 195 174 110 86 49 14 112 51 10 2 8 9 6 7 11 9 0 0 0 0 0 0 0 0 0 0 0 0 0 0 0 0 0 0 0 0 0 0 0 0 0 0 0 0 0 0 0 0 0 0 
0 0 0 0 0 0 0 0 0 0 5 12 9 9 12 6 6 10 14 100 80 72 87 102 184 178 164 136 110 137 156 140 128 139 145 133 95 58 59 72 130 111 102 116 107 121 159 155 159 174 168 149 147 158 160 139 110 92 86 96 120 128 122 135 106 115 147 173 198 162 157 163 150 109 85 118 109 143 174 152 104 68 28 19 94 19 6 0 7 9 7 11 11 5 0 0 0 0 0 0 0 0 0 0 0 0 0 0 0 0 0 0 0 0 0 0 0 0 0 0 0 0 0 0 0 0 0 0 
0 0 0 0 0 0 0 0 0 0 9 18 16 15 12 5 7 10 8 61 81 79 111 114 169 182 162 180 135 109 121 155 139 127 124 134 143 145 149 139 146 162 171 156 124 133 180 154 147 145 132 120 101 127 138 153 144 131 135 131 143 157 159 176 178 180 179 193 222 183 160 119 71 52 104 99 116 134 162 134 68 38 59 41 87 7 4 0 5 10 8 8 8 3 0 0 0 0 0 0 0 0 0 0 0 0 0 0 0 0 0 0 0 0 0 0 0 0 0 0 0 0 0 0 0 0 0 0 
0 0 0 0 0 0 0 0 0 0 1 14 19 17 7 0 3 11 12 35 81 84 109 99 108 156 173 180 163 99 81 107 126 122 119 136 146 149 149 151 164 180 194 207 197 172 191 172 139 126 131 97 86 123 132 152 160 157 153 167 181 172 168 188 197 208 192 190 207 129 61 39 37 66 127 130 123 129 168 134 47 26 40 89 81 9 4 0 1 11 10 7 7 7 0 0 0 0 0 0 0 0 0 0 0 0 0 0 0 0 0 0 0 0 0 0 0 0 0 0 0 0 0 0 0 0 0 0 
0 0 0 0 0 0 0 0 0 0 0 9 20 15 7 2 0 12 16 25 60 83 90 133 76 109 163 133 176 101 75 60 87 82 82 103 127 157 169 173 177 173 175 196 221 201 194 184 171 155 127 105 107 104 136 145 144 148 147 162 173 171 177 192 201 206 182 142 152 75 40 35 54 118 164 164 144 129 159 100 55 26 39 90 38 10 1 0 0 4 14 11 11 14 10 0 0 0 0 0 0 0 0 0 0 0 0 0 0 0 0 0 0 0 0 0 0 0 0 0 0 0 0 0 0 0 0 0 
0 0 0 0 0 0 0 0 0 0 0 14 20 8 4 6 4 7 24 24 33 65 101 155 140 111 145 128 173 146 107 69 58 74 53 56 61 70 110 137 153 158 172 184 222 214 201 200 189 159 129 156 165 131 122 146 165 168 170 175 167 146 150 142 144 155 145 111 149 77 44 68 115 134 179 192 173 108 147 111 46 23 26 55 10 10 4 0 0 0 8 16 20 20 19 0 0 0 0 0 0 0 0 0 0 0 0 0 0 0 0 0 0 0 0 0 0 0 0 0 0 0 0 0 0 0 0 0 
0 0 0 0 0 0 0 0 0 0 0 6 17 11 5 5 5 6 13 24 24 34 71 156 168 158 166 183 173 151 135 107 70 71 39 37 44 48 51 59 70 62 66 99 157 158 138 142 126 82 89 113 111 121 95 73 74 71 74 88 92 77 94 97 108 121 86 80 173 151 111 138 162 150 160 176 131 75 124 49 40 42 66 28 9 7 8 6 6 8 6 4 18 20 3 0 0 0 0 0 0 0 0 0 0 0 0 0 0 0 0 0 0 0 0 0 0 0 0 0 0 0 0 0 0 0 0 0 
0 0 0 0 0 0 0 0 0 0 0 0 10 14 4 5 5 5 8 12 29 35 46 119 136 151 175 188 150 133 126 149 130 135 105 65 61 62 44 46 73 181 184 138 147 167 143 136 89 81 93 80 95 111 116 102 94 84 108 164 184 140 108 124 147 149 119 134 207 0 209 137 124 130 121 114 95 89 140 39 25 39 34 21 11 0 1 4 6 6 4 1 12 6 0 0 0 0 0 0 0 0 0 0 0 0 0 0 0 0 0 0 0 0 0 0 0 0 0 0 0 0 0 0 0 0 0 0 
0 0 0 0 0 0 0 0 0 0 0 0 0 2 5 5 4 2 5 17 21 35 61 45 64 91 128 174 160 146 108 139 139 146 142 124 117 124 123 123 160 163 148 184 182 207 226 207 163 153 144 143 131 130 139 141 167 179 165 168 170 142 150 175 188 253 159 152 125 203 211 166 115 99 101 144 143 133 131 16 10 9 16 32 29 0 0 1 4 4 4 9 11 1 0 0 0 0 0 0 0 0 0 0 0 0 0 0 0 0 0 0 0 0 0 0 0 0 0 0 0 0 0 0 0 0 0 0 
0 0 0 0 0 0 0 0 0 0 0 0 0 0 2 3 3 1 0 16 16 25 47 35 25 43 47 103 127 93 94 127 152 144 150 143 133 131 144 180 197 181 152 137 171 175 179 129 74 59 90 116 150 182 183 152 134 116 131 154 176 159 136 175 183 214 217 114 113 142 127 103 70 35 31 72 82 119 117 27 28 18 27 32 28 0 0 0 2 3 7 6 7 0 0 0 0 0 0 0 0 0 0 0 0 0 0 0 0 0 0 0 0 0 0 0 0 0 0 0 0 0 0 0 0 0 0 0 
0 0 0 0 0 0 0 0 0 0 0 0 0 0 0 3 6 3 3 2 11 13 18 27 27 28 24 62 116 52 31 74 87 41 61 80 73 47 49 47 78 133 175 188 138 146 118 72 63 65 79 80 95 140 134 90 74 75 69 60 71 98 83 71 54 97 76 50 36 41 40 49 40 36 67 80 85 122 104 30 31 22 12 1 1 1 5 6 1 0 0 0 0 0 0 0 0 0 0 0 0 0 0 0 0 0 0 0 0 0 0 0 0 0 0 0 0 0 0 0 0 0 0 0 0 0 0 0 
0 0 0 0 0 0 0 0 0 0 0 0 0 0 0 0 2 5 5 0 5 10 13 15 22 26 22 38 98 55 27 62 73 30 33 53 88 82 65 52 70 78 52 53 67 91 71 46 50 73 97 120 133 144 145 130 102 70 54 53 82 71 50 54 55 69 53 70 63 51 65 60 51 57 89 93 85 111 91 34 36 24 10 1 0 1 2 0 0 0 0 0 0 0 0 0 0 0 0 0 0 0 0 0 0 0 0 0 0 0 0 0 0 0 0 0 0 0 0 0 0 0 0 0 0 0 0 0 
0 0 0 0 0 0 0 0 0 0 0 0 0 0 0 0 0 0 0 0 2 6 11 15 21 31 30 41 78 50 37 50 71 42 42 51 87 124 123 110 128 113 72 68 66 91 90 68 90 124 124 114 112 113 117 126 126 120 103 90 106 81 60 76 170 221 170 166 202 83 64 41 29 48 83 93 91 117 80 33 35 23 12 8 1 0 0 0 0 0 0 0 0 0 0 0 0 0 0 0 0 0 0 0 0 0 0 0 0 0 0 0 0 0 0 0 0 0 0 0 0 0 0 0 0 0 0 0 
0 0 0 0 0 0 0 0 0 0 0 0 0 0 0 0 0 0 0 0 0 1 1 11 17 26 38 67 90 99 97 100 119 89 74 74 96 127 136 156 185 132 85 90 127 143 148 118 146 173 197 199 197 193 188 194 195 169 100 75 96 89 83 140 121 218 170 215 104 190 48 22 18 20 27 44 70 108 47 24 21 16 22 27 5 0 0 0 0 0 0 0 0 0 0 0 0 0 0 0 0 0 0 0 0 0 0 0 0 0 0 0 0 0 0 0 0 0 0 0 0 0 0 0 0 0 0 0 
0 0 0 0 0 0 0 0 0 0 0 0 0 0 0 0 0 0 0 0 0 8 2 4 7 16 22 45 55 95 103 115 136 127 147 160 134 144 160 129 110 66 107 152 236 226 180 101 135 212 244 241 231 213 192 179 166 128 79 84 97 137 161 152 201 111 101 138 108 119 82 49 58 75 88 95 95 112 35 8 1 0 0 0 0 0 0 0 0 0 0 0 0 0 0 0 0 0 0 0 0 0 0 0 0 0 0 0 0 0 0 0 0 0 0 0 0 0 0 0 0 0 0 0 0 0 0 0 
0 0 0 0 0 0 0 0 0 0 0 0 0 0 0 0 0 0 0 0 0 0 4 1 5 7 11 50 65 82 77 84 109 62 36 44 49 65 112 131 36 30 66 109 138 148 128 153 178 191 188 198 195 190 176 144 116 88 57 55 83 129 133 192 192 142 148 188 139 174 119 46 38 38 34 85 43 70 23 9 2 9 11 0 0 0 0 0 0 0 0 0 0 0 0 0 0 0 0 0 0 0 0 0 0 0 0 0 0 0 0 0 0 0 0 0 0 0 0 0 0 0 0 0 0 0 0 0 
0 0 0 0 0 0 0 0 0 0 0 0 0 0 0 0 0 0 0 0 0 0 2 4 11 14 14 20 38 51 30 32 76 46 33 41 42 68 84 67 40 40 72 116 112 97 114 151 162 123 83 62 62 68 70 68 73 93 58 49 79 102 118 126 177 219 216 46 207 205 150 82 53 43 45 121 50 73 33 13 6 8 11 0 0 0 0 0 0 0 0 0 0 0 0 0 0 0 0 0 0 0 0 0 0 0 0 0 0 0 0 0 0 0 0 0 0 0 0 0 0 0 0 0 0 0 0 0 
0 0 0 0 0 0 0 0 0 0 0 0 0 0 0 0 0 0 0 0 0 0 0 2 10 15 11 19 30 49 30 28 73 46 35 33 32 70 85 53 37 69 120 113 100 75 104 139 147 122 115 96 77 65 62 55 104 124 111 100 108 99 107 124 101 115 144 164 113 113 100 56 39 32 44 116 61 86 40 14 12 9 4 0 0 0 0 0 0 0 0 0 0 0 0 0 0 0 0 0 0 0 0 0 0 0 0 0 0 0 0 0 0 0 0 0 0 0 0 0 0 0 0 0 0 0 0 0 
0 0 0 0 0 0 0 0 0 0 0 0 0 0 0 0 0 0 0 0 0 0 0 0 10 9 9 18 23 36 36 31 71 43 35 35 46 72 64 43 39 87 90 70 81 98 86 122 124 113 113 110 105 94 88 96 113 106 124 113 114 123 118 83 90 86 118 117 70 69 94 65 41 32 42 116 61 77 43 13 11 9 2 0 0 0 0 0 0 0 0 0 0 0 0 0 0 0 0 0 0 0 0 0 0 0 0 0 0 0 0 0 0 0 0 0 0 0 0 0 0 0 0 0 0 0 0 0 
0 0 0 0 0 0 0 0 0 0 0 0 0 0 0 0 0 0 0 0 0 0 0 0 3 10 7 12 19 23 27 30 67 40 32 33 56 61 40 43 84 108 76 63 68 103 93 105 117 114 115 107 102 101 116 112 108 109 113 112 111 133 112 60 74 68 89 120 129 79 63 85 47 29 42 115 82 89 41 11 11 9 1 0 0 0 0 0 0 0 0 0 0 0 0 0 0 0 0 0 0 0 0 0 0 0 0 0 0 0 0 0 0 0 0 0 0 0 0 0 0 0 0 0 0 0 0 0 
0 0 0 0 0 0 0 0 0 0 0 0 0 0 0 0 0 0 0 0 0 0 0 0 0 6 9 7 15 20 27 28 68 55 31 46 60 42 43 92 122 87 77 65 73 110 90 94 95 103 119 95 93 118 118 92 102 112 114 108 108 108 77 57 101 81 64 70 107 137 65 72 58 30 36 94 80 66 18 7 9 5 0 0 0 0 0 0 0 0 0 0 0 0 0 0 0 0 0 0 0 0 0 0 0 0 0 0 0 0 0 0 0 0 0 0 0 0 0 0 0 0 0 0 0 0 0 0 
0 0 0 0 0 0 0 0 0 0 0 0 0 0 0 0 0 0 0 0 0 0 0 0 0 3 9 3 10 15 27 30 65 64 39 64 63 35 64 120 93 63 67 65 86 118 80 52 48 74 102 87 104 122 93 79 88 107 119 101 101 59 65 58 126 84 68 65 73 133 115 61 75 41 40 89 47 25 11 9 8 4 0 0 0 0 0 0 0 0 0 0 0 0 0 0 0 0 0 0 0 0 0 0 0 0 0 0 0 0 0 0 0 0 0 0 0 0 0 0 0 0 0 0 0 0 0 0 
0 0 0 0 0 0 0 0 0 0 0 0 0 0 0 0 0 0 0 0 0 0 0 0 0 0 5 9 9 14 26 33 54 80 67 86 53 36 89 105 74 54 65 71 76 116 75 39 38 48 66 83 115 110 88 83 84 107 89 87 86 49 53 67 132 99 67 73 74 101 142 73 81 81 70 83 34 22 14 14 9 5 0 0 0 0 0 0 0 0 0 0 0 0 0 0 0 0 0 0 0 0 0 0 0 0 0 0 0 0 0 0 0 0 0 0 0 0 0 0 0 0 0 0 0 0 0 0 
0 0 0 0 0 0 0 0 0 0 0 0 0 0 0 0 0 0 0 0 0 0 0 0 0 0 4 6 9 17 22 31 36 62 88 78 40 45 111 89 56 54 60 58 69 117 72 43 34 37 53 80 87 87 72 41 48 77 83 68 38 30 45 66 115 105 69 72 63 75 139 95 58 95 94 49 28 21 16 19 14 5 0 0 0 0 0 0 0 0 0 0 0 0 0 0 0 0 0 0 0 0 0 0 0 0 0 0 0 0 0 0 0 0 0 0 0 0 0 0 0 0 0 0 0 0 0 0 
0 0 0 0 0 0 0 0 0 0 0 0 0 0 0 0 0 0 0 0 0 0 0 0 0 0 3 4 10 15 21 28 30 24 19 23 27 50 128 125 55 46 49 54 87 103 61 44 35 39 59 82 76 60 44 37 40 54 82 75 43 31 57 58 76 103 70 57 48 73 160 122 40 46 39 26 22 19 15 16 14 4 0 0 0 0 0 0 0 0 0 0 0 0 0 0 0 0 0 0 0 0 0 0 0 0 0 0 0 0 0 0 0 0 0 0 0 0 0 0 0 0 0 0 0 0 0 0 
0 0 0 0 0 0 0 0 0 0 0 0 0 0 0 0 0 0 0 0 0 0 0 0 0 0 0 6 9 8 19 18 27 26 16 14 19 40 117 149 68 38 31 50 75 65 49 41 40 63 70 90 81 67 49 44 49 58 91 84 52 45 65 52 46 79 87 70 48 70 162 126 36 32 28 25 19 19 15 12 11 5 1 0 0 0 0 0 0 0 0 0 0 0 0 0 0 0 0 0 0 0 0 0 0 0 0 0 0 0 0 0 0 0 0 0 0 0 0 0 0 0 0 0 0 0 0 0 
0 0 0 0 0 0 0 0 0 0 0 0 0 0 0 0 0 0 0 0 0 0 0 0 0 0 0 0 16 6 11 17 19 29 18 8 11 27 86 161 102 39 38 85 87 51 44 41 38 46 66 90 88 70 50 51 65 84 101 91 55 64 70 50 41 72 102 96 57 100 170 106 35 31 27 24 16 17 11 11 9 6 2 0 0 0 0 0 0 0 0 0 0 0 0 0 0 0 0 0 0 0 0 0 0 0 0 0 0 0 0 0 0 0 0 0 0 0 0 0 0 0 0 0 0 0 0 0 
0 0 0 0 0 0 0 0 0 0 0 0 0 0 0 0 0 0 0 0 0 0 0 0 0 0 0 0 7 10 6 18 18 23 16 10 10 16 36 137 148 95 97 119 82 46 43 42 34 35 63 91 93 71 61 69 94 86 103 107 59 68 74 60 50 65 94 134 119 144 175 73 32 27 26 25 15 17 8 11 8 7 2 0 0 0 0 0 0 0 0 0 0 0 0 0 0 0 0 0 0 0 0 0 0 0 0 0 0 0 0 0 0 0 0 0 0 0 0 0 0 0 0 0 0 0 0 0 
0 0 0 0 0 0 0 0 0 0 0 0 0 0 0 0 0 0 0 0 0 0 0 0 0 0 0 0 0 8 6 16 19 22 24 19 16 19 20 63 162 168 160 147 75 48 44 42 33 41 84 105 100 86 86 96 116 102 110 115 85 68 86 62 48 49 82 145 171 181 115 35 31 27 22 17 15 13 9 9 8 6 2 0 0 0 0 0 0 0 0 0 0 0 0 0 0 0 0 0 0 0 0 0 0 0 0 0 0 0 0 0 0 0 0 0 0 0 0 0 0 0 0 0 0 0 0 0 
0 0 0 0 0 0 0 0 0 0 0 0 0 0 0 0 0 0 0 0 0 0 0 0 0 0 0 0 0 4 8 13 14 22 22 19 13 18 24 23 64 149 177 143 66 46 39 37 34 60 113 111 95 76 77 79 85 100 111 108 107 85 73 66 55 41 64 146 167 102 27 29 30 27 20 14 14 12 10 7 8 6 2 0 0 0 0 0 0 0 0 0 0 0 0 0 0 0 0 0 0 0 0 0 0 0 0 0 0 0 0 0 0 0 0 0 0 0 0 0 0 0 0 0 0 0 0 0 
0 0 0 0 0 0 0 0 0 0 0 0 0 0 0 0 0 0 0 0 0 0 0 0 0 0 0 0 0 4 6 16 9 19 21 17 15 18 22 24 31 32 49 53 41 36 36 35 36 64 114 103 80 67 65 69 77 108 112 86 108 101 67 58 55 42 44 49 41 33 22 30 31 27 22 17 15 11 8 7 8 4 1 0 0 0 0 0 0 0 0 0 0 0 0 0 0 0 0 0 0 0 0 0 0 0 0 0 0 0 0 0 0 0 0 0 0 0 0 0 0 0 0 0 0 0 0 0 
0 0 0 0 0 0 0 0 0 0 0 0 0 0 0 0 0 0 0 0 0 0 0 0 0 0 0 0 0 3 1 16 10 13 18 15 16 22 21 22 34 28 29 30 34 39 34 33 37 55 108 107 94 88 88 98 109 130 149 108 116 98 50 57 72 63 51 51 40 30 20 29 32 27 23 19 16 12 9 8 8 4 1 0 0 0 0 0 0 0 0 0 0 0 0 0 0 0 0 0 0 0 0 0 0 0 0 0 0 0 0 0 0 0 0 0 0 0 0 0 0 0 0 0 0 0 0 0 
