P2
128 99
208
0 0 0 0 0 0 0 0 0 0 0 0 0 0 0 0 0 0 0 0 0 0 0 0 0 0 0 0 0 0 0 0 3 3 2 0 0 0 0 0 0 0 0 0 0 0 0 0 0 0 0 0 0 0 0 0 0 0 0 0 0 0 0 0 0 0 0 0 0 0 0 0 0 0 0 0 0 0 0 0 0 0 0 0 0 0 0 0 0 0 0 0 2 3 3 4 0 0 0 0 0 0 0 0 0 0 0 0 0 0 0 0 0 0 0 0 0 0 0 0 0 0 0 0 0 0 0 0 
0 0 0 0 0 0 0 0 0 0 0 0 0 0 0 0 0 0 0 0 0 0 0 0 0 0 0 0 0 0 0 0 2 3 2 0 0 0 0 0 0 0 0 0 0 0 0 0 0 0 0 0 0 0 0 0 0 0 0 0 0 0 0 0 0 0 0 0 0 0 0 0 0 0 0 0 0 0 0 0 0 0 0 0 0 0 0 0 0 0 0 0 2 3 3 4 0 0 0 0 0 0 0 0 0 0 0 0 0 0 0 0 0 0 0 0 0 0 0 0 0 0 0 0 0 0 0 0 
0 0 0 0 0 0 0 0 0 0 0 0 0 0 0 0 0 0 0 0 0 0 0 0 0 0 0 0 0 0 0 0 2 3 2 0 0 0 0 0 0 0 0 0 0 0 0 0 0 0 0 1 1 2 2 0 0 0 0 0 0 0 0 0 0 0 0 0 0 0 0 0 0 0 0 0 0 0 0 0 0 0 0 0 0 0 0 0 0 0 0 0 1 3 3 4 0 0 0 0 0 0 0 0 0 0 0 0 0 0 0 0 0 0 0 0 0 0 0 0 0 0 0 0 0 0 0 0 
0 0 0 0 0 0 0 0 0 0 0 0 0 0 0 0 0 0 0 0 0 0 0 0 0 0 0 0 0 0 0 0 2 2 1 0 0 0 0 0 0 0 0 1 6 13 17 18 18 19 21 23 27 27 24 20 18 15 15 13 4 0 0 0 0 0 0 0 0 0 0 0 0 0 0 0 0 0 0 0 0 0 0 0 0 0 0 0 0 0 0 0 1 3 3 4 0 0 0 0 0 0 0 0 0 0 0 0 0 0 0 0 0 0 0 0 0 0 0 0 0 0 0 0 0 0 0 0 
0 0 0 0 0 0 0 0 0 0 0 0 0 0 0 0 0 0 0 0 0 0 0 0 0 0 0 0 0 0 0 0 1 2 0 0 0 0 0 0 6 13 19 22 23 33 53 75 98 119 133 142 147 148 145 135 121 102 77 54 32 21 18 10 2 0 0 0 0 0 0 0 0 0 0 0 0 0 0 0 0 0 0 0 0 0 0 0 0 0 0 0 1 3 3 4 0 0 0 0 0 0 0 0 0 0 0 0 0 0 0 0 0 0 0 0 0 0 0 0 0 0 0 0 0 0 0 0 
0 0 0 0 0 0 0 0 0 0 0 0 0 0 0 0 0 0 0 0 0 0 0 0 0 0 0 0 0 0 0 0 1 1 0 0 0 0 9 17 21 26 36 65 108 143 162 171 176 177 178 178 178 179 180 179 177 174 168 159 143 116 78 44 24 17 10 2 0 0 0 0 0 0 0 0 0 0 0 0 0 0 0 0 0 0 0 0 0 0 0 0 1 2 3 4 0 0 0 0 0 0 0 0 0 0 0 0 0 0 0 0 0 0 0 0 0 0 0 0 0 0 0 0 0 0 0 0 
0 0 0 0 0 0 0 0 0 0 0 0 0 0 0 0 0 0 0 0 0 0 0 0 0 0 0 0 0 0 0 0 1 1 0 0 9 20 22 27 51 99 145 169 178 179 181 187 191 194 194 193 192 191 191 190 191 191 189 185 180 172 163 149 120 74 37 19 13 2 0 0 0 0 0 0 0 0 0 0 0 0 0 0 0 0 0 0 0 0 0 0 1 3 3 4 0 0 0 0 0 0 0 0 0 0 0 0 0 0 0 0 0 0 0 0 0 0 0 0 0 0 0 0 0 0 0 0 
0 0 0 0 0 0 0 0 0 0 0 0 0 0 0 0 0 0 0 0 0 0 0 0 0 0 0 0 0 0 0 0 1 1 8 24 26 27 61 120 160 176 181 181 184 191 191 180 171 166 170 177 175 164 164 175 186 191 189 185 188 189 187 182 174 163 142 98 48 23 12 2 0 0 0 0 0 0 0 0 0 0 0 0 0 0 0 0 0 0 0 0 2 3 3 4 0 0 0 0 0 0 0 0 0 0 0 0 0 0 0 0 0 0 0 0 0 0 0 0 0 0 0 0 0 0 0 0 
0 0 0 0 0 0 0 0 0 0 0 0 0 0 0 0 0 0 0 0 0 0 0 0 0 0 0 0 0 0 0 0 5 30 26 23 56 122 164 176 178 181 188 193 187 178 171 161 152 153 156 159 158 155 157 157 161 175 189 195 193 189 186 187 188 184 179 169 149 99 45 23 10 0 0 0 0 0 0 0 0 0 0 0 0 0 0 0 0 0 0 0 2 3 3 4 0 0 0 0 0 0 0 0 0 0 0 0 0 0 0 0 0 0 0 0 0 0 0 0 0 0 0 0 0 0 0 0 
0 0 0 0 0 0 0 0 0 0 0 0 0 0 0 0 0 0 0 0 0 0 0 0 0 0 0 0 0 0 0 24 26 23 40 106 161 176 175 177 187 192 186 171 157 152 146 138 141 139 139 144 143 139 142 149 154 162 174 187 199 199 196 192 188 184 187 186 179 168 142 77 31 19 3 0 0 0 0 0 0 0 0 0 0 0 0 0 0 0 0 0 2 3 3 4 0 0 0 0 0 0 0 0 0 0 0 0 0 0 0 0 0 0 0 0 0 0 0 0 0 0 0 0 0 0 0 0 
0 0 0 0 0 0 0 0 0 0 0 0 0 0 0 0 0 0 0 0 0 0 0 0 0 0 0 0 0 10 28 21 25 82 152 172 175 178 186 192 191 178 161 159 162 163 157 145 138 126 125 131 128 126 132 135 142 144 147 157 171 193 204 205 200 193 187 185 187 186 178 164 114 44 22 6 0 0 0 0 0 0 0 0 0 0 0 0 0 0 0 0 2 3 3 4 0 0 0 0 0 0 0 0 0 0 0 0 0 0 0 0 0 0 0 0 0 0 0 0 0 0 0 0 0 0 0 0 
0 0 0 0 0 0 0 0 0 0 0 0 0 0 0 0 0 0 0 0 0 0 0 0 0 0 0 0 22 24 16 48 129 169 172 174 187 193 192 187 174 169 165 156 142 129 127 130 131 139 135 131 129 132 137 138 133 138 140 140 150 160 172 186 202 208 204 195 189 184 188 185 173 143 66 23 11 0 0 0 0 0 0 0 0 0 0 0 0 0 0 0 2 3 3 4 0 0 0 0 0 0 0 0 0 0 0 0 0 0 0 0 0 0 0 0 0 0 0 0 0 0 0 0 0 0 0 0 
0 0 0 0 0 0 0 0 0 0 0 0 0 0 0 0 0 0 0 0 0 0 0 0 0 0 5 27 20 21 74 151 170 174 181 192 193 192 181 173 167 155 145 145 146 147 148 137 132 128 117 120 121 119 132 141 140 142 145 145 142 153 161 169 178 188 201 208 204 194 188 185 187 173 152 83 24 12 0 0 0 0 0 0 0 0 0 0 0 0 0 0 2 3 4 4 0 0 0 0 0 0 0 0 0 0 0 0 0 0 0 0 0 0 0 0 0 0 0 0 0 0 0 0 0 0 0 0 
0 0 0 0 0 0 0 0 0 0 0 0 0 0 0 0 0 0 0 0 0 0 0 0 0 10 26 17 24 99 161 171 177 190 192 194 190 180 169 157 158 159 157 151 143 144 146 141 138 136 130 132 132 133 134 143 148 149 150 151 151 147 154 157 161 169 178 186 199 206 200 190 183 184 175 158 91 25 13 0 0 0 0 0 0 0 0 0 0 0 0 0 2 3 3 5 0 0 0 0 0 0 0 0 0 0 0 0 0 0 0 0 0 0 0 0 0 0 0 0 0 0 0 0 0 0 0 0 
0 0 0 0 0 0 0 0 0 0 0 0 0 0 0 0 0 0 0 0 0 0 0 0 14 23 17 33 112 162 171 184 195 193 192 182 173 159 162 164 156 146 142 143 147 150 136 132 135 130 125 121 117 118 119 121 133 142 146 151 156 157 158 162 163 158 160 168 175 186 201 201 193 185 183 178 161 100 30 13 0 0 0 0 0 0 0 0 0 0 0 0 2 3 3 4 0 0 0 0 0 0 0 0 0 0 0 0 0 0 0 0 0 0 0 0 0 0 0 0 0 0 0 0 0 0 0 0 
0 0 0 0 0 0 0 0 0 0 0 0 0 0 0 0 0 0 0 0 0 0 3 18 19 14 43 123 160 172 186 193 193 182 170 166 163 169 160 149 145 147 154 155 150 135 124 119 116 116 108 103 102 112 118 117 115 119 126 134 137 137 142 153 164 170 165 154 157 165 175 194 201 196 186 184 179 164 113 35 11 0 0 0 0 0 0 0 0 0 0 0 2 3 3 4 0 0 0 0 0 0 0 0 0 0 0 0 0 0 0 0 0 0 0 0 0 0 0 0 0 0 0 0 0 0 0 0 
0 0 0 0 0 0 0 0 0 0 0 0 0 0 0 0 0 0 0 0 0 5 18 16 17 55 132 159 174 189 195 189 172 166 165 164 159 148 148 152 154 151 147 135 119 117 120 120 122 122 123 124 123 126 130 129 124 121 117 117 118 120 122 133 142 146 162 167 160 155 159 165 186 197 195 185 184 179 164 120 38 8 0 0 0 0 0 0 0 0 0 0 2 3 3 4 0 0 0 0 0 0 0 0 0 0 0 0 0 0 0 0 0 0 0 0 0 0 0 0 0 0 0 0 0 0 0 0 
0 0 0 0 0 0 0 0 0 0 0 0 0 0 0 0 0 0 0 0 6 16 14 19 69 143 161 176 193 195 185 162 164 166 160 148 136 141 150 145 138 138 129 115 109 111 107 113 116 114 121 123 119 118 114 116 119 127 128 130 127 125 121 122 128 131 133 146 161 157 152 150 156 178 190 194 187 184 178 166 124 37 6 0 0 0 0 0 0 0 0 0 2 3 3 4 0 0 0 0 0 0 0 0 0 0 0 0 0 0 0 0 0 0 0 0 0 0 0 0 0 0 0 0 0 0 0 0 
0 0 0 0 0 0 0 0 0 0 0 0 0 0 0 0 0 0 0 6 16 13 19 76 145 160 178 189 193 182 158 161 164 155 144 131 142 150 136 125 124 124 120 113 111 105 103 105 105 104 105 87 87 101 99 100 103 105 109 118 122 125 125 125 122 120 123 126 140 154 148 146 143 148 174 188 194 188 186 175 165 117 28 3 0 0 0 0 0 0 0 0 2 3 3 5 0 0 0 0 0 0 0 0 0 0 0 0 0 0 0 0 0 0 0 0 0 0 0 0 0 0 0 0 0 0 0 0 
0 0 0 0 0 0 0 0 0 0 0 0 0 0 0 0 0 0 5 15 11 20 79 144 157 171 185 192 177 157 164 157 151 142 130 144 145 126 115 119 121 114 106 103 100 96 94 95 96 99 94 81 86 104 104 105 107 108 107 110 114 115 118 121 122 116 119 122 129 143 145 143 149 138 143 169 180 191 188 183 173 159 103 19 2 0 0 0 0 0 0 0 2 3 4 5 0 0 0 0 0 0 0 0 0 0 0 0 0 0 0 0 0 0 0 0 0 0 0 0 0 0 0 0 0 0 0 0 
0 0 0 0 0 0 0 0 0 0 0 0 0 0 0 0 0 2 14 13 19 77 140 153 167 181 192 174 155 163 154 147 139 128 142 137 116 116 120 118 105 101 104 104 100 102 103 103 101 91 86 89 97 114 121 121 120 120 119 122 124 119 113 111 113 115 116 119 121 129 141 137 143 151 141 141 168 176 191 190 179 170 150 79 11 0 0 0 0 0 0 0 2 3 4 5 0 0 0 0 0 0 0 0 0 0 0 0 0 0 0 0 0 0 0 0 0 0 0 0 0 0 0 0 0 0 0 0 
0 0 0 0 0 0 0 0 0 0 0 0 0 0 0 0 0 10 13 16 72 135 151 165 179 189 173 153 161 151 140 138 129 137 129 110 115 122 119 114 112 115 118 118 115 109 103 102 99 91 102 110 112 110 111 114 121 120 116 115 112 109 107 105 98 104 120 118 114 119 132 138 123 137 149 135 144 163 177 192 190 173 162 134 52 4 0 0 0 0 0 0 2 4 4 5 0 0 0 0 0 0 0 0 0 0 0 0 0 0 0 0 0 0 0 0 0 0 0 0 0 0 0 0 0 0 0 0 
0 0 0 0 0 0 0 0 0 0 0 0 0 0 0 0 6 13 14 58 129 143 161 176 186 177 148 153 151 138 136 127 125 126 109 117 126 125 124 123 118 113 113 112 109 109 111 113 109 110 116 118 118 120 117 113 112 109 106 108 107 105 105 105 106 103 105 123 115 110 120 133 133 117 139 151 131 146 153 178 194 181 169 154 111 26 2 0 0 0 0 0 2 4 4 5 0 0 0 0 0 0 0 0 0 0 0 0 0 0 0 0 0 0 0 0 0 0 0 0 0 0 0 0 0 0 0 0 
0 0 0 0 0 0 0 0 0 0 0 0 0 0 0 2 12 13 48 119 138 153 169 181 180 149 146 153 136 137 128 117 124 118 124 126 129 129 117 110 102 94 87 88 96 102 109 115 119 122 123 118 118 126 121 119 121 121 117 114 107 103 100 101 104 109 106 109 124 112 106 121 133 126 117 143 150 132 146 151 182 193 175 162 140 76 8 0 0 0 0 0 2 4 4 5 0 0 0 0 0 0 0 0 0 0 0 0 0 1 0 0 0 0 0 0 0 0 0 0 0 0 0 0 0 0 0 0 
0 0 0 0 0 0 0 0 0 0 0 0 0 0 0 8 12 26 98 132 144 167 176 176 156 142 149 140 132 131 120 117 123 123 126 125 123 113 105 99 86 82 83 90 96 103 111 111 115 117 118 109 104 110 108 108 111 111 114 119 113 104 99 99 103 106 110 108 117 118 100 103 126 135 119 119 150 140 137 138 159 188 181 168 154 114 31 1 0 0 0 0 2 4 3 5 0 0 0 0 0 0 0 0 0 0 0 0 0 2 0 0 0 0 0 0 0 0 0 0 0 0 0 0 0 0 0 0 
0 0 0 0 0 0 0 0 0 0 0 0 0 0 3 9 15 72 124 136 158 171 171 162 142 143 143 128 131 127 120 121 126 127 121 117 110 103 96 84 79 84 94 103 107 104 101 95 94 102 107 105 98 100 102 104 106 105 110 116 116 113 106 98 95 101 107 108 110 116 111 101 111 132 132 114 130 148 134 128 139 171 186 173 159 135 66 4 0 0 0 1 3 3 3 5 0 0 0 0 0 0 0 0 0 0 0 0 0 1 0 0 0 0 0 0 0 0 0 0 0 0 0 0 0 0 0 0 
0 0 0 0 0 0 0 0 0 0 0 0 0 0 6 10 39 108 129 145 164 169 159 155 142 142 130 127 128 123 127 128 129 118 116 104 99 94 86 79 85 98 109 111 109 105 100 94 92 99 103 104 100 100 90 94 105 104 104 106 108 115 115 108 99 95 100 104 107 113 116 110 106 111 132 134 121 137 139 129 125 156 178 178 164 147 98 15 0 0 0 1 2 3 3 4 0 0 0 0 0 0 0 0 0 0 0 0 0 1 0 0 0 0 0 0 0 0 0 0 0 0 0 0 0 0 0 0 
0 0 0 0 0 0 0 0 0 0 0 0 0 0 6 15 80 122 135 157 166 159 152 147 139 130 118 131 121 129 129 124 116 115 107 94 91 89 83 89 104 114 117 113 109 109 106 100 99 104 106 108 106 100 96 99 99 104 108 110 110 110 111 112 111 105 103 101 102 110 113 112 113 103 120 143 129 123 133 136 120 150 166 176 167 153 121 38 2 0 0 1 2 3 4 4 0 0 0 0 0 0 0 0 0 0 0 0 0 1 0 0 0 0 0 0 0 0 0 0 0 0 0 0 0 0 0 0 
0 0 0 0 0 0 0 0 0 0 0 0 0 3 7 36 105 128 141 163 164 151 151 142 129 123 124 129 123 133 127 116 116 115 95 87 90 91 94 108 117 116 113 112 110 112 113 110 113 115 113 115 120 107 105 107 106 105 112 114 111 109 109 107 107 113 111 107 105 108 111 111 119 109 109 135 140 122 121 135 120 140 159 174 168 157 134 59 3 0 0 0 2 3 4 5 0 0 0 0 0 0 0 0 0 0 0 0 0 1 0 0 0 0 0 0 0 0 0 0 0 0 0 0 0 0 0 0 
0 0 0 0 0 0 0 0 0 0 0 0 0 5 9 65 119 126 151 163 154 140 149 132 117 122 127 117 124 132 117 116 121 103 84 88 95 101 113 119 114 109 105 108 108 112 124 130 135 133 127 126 129 119 117 117 116 117 119 117 114 111 108 107 103 107 117 116 109 106 109 111 117 114 109 125 142 120 114 128 120 131 152 170 171 154 140 79 6 0 0 1 2 4 4 5 0 0 0 0 0 0 0 0 0 0 0 0 0 2 0 0 0 0 0 0 0 0 0 0 0 0 0 0 0 0 0 0 
0 0 0 0 0 0 0 0 0 0 0 0 0 6 16 92 125 137 160 158 137 135 143 118 115 124 119 114 127 123 114 121 116 91 85 95 106 122 123 115 106 89 84 95 113 124 126 134 137 129 120 118 120 113 111 108 107 113 122 127 124 122 118 113 105 99 107 121 120 109 106 108 116 115 111 119 135 117 114 120 121 125 148 164 172 154 141 95 10 0 0 1 2 4 4 5 0 0 0 0 0 0 0 0 0 0 0 0 0 1 0 0 0 0 0 0 0 0 0 0 0 0 0 0 0 0 0 0 
0 0 0 0 0 0 0 0 0 0 0 0 2 7 34 108 129 147 161 143 127 134 138 110 119 115 113 118 132 117 119 121 104 89 91 111 126 127 116 96 82 80 83 93 101 117 120 113 110 103 101 101 107 102 102 95 92 93 98 115 123 125 118 115 114 103 101 114 127 117 106 104 111 115 117 116 125 115 111 111 120 127 149 161 173 160 145 107 15 0 0 1 3 4 4 5 0 0 0 0 0 0 0 0 0 0 0 0 0 2 0 0 0 0 0 0 0 0 0 0 0 0 0 0 0 0 0 0 
0 0 0 0 0 0 0 0 0 0 0 0 2 6 49 114 129 153 152 131 122 137 125 109 118 106 113 117 126 112 123 111 95 90 110 134 131 115 92 76 77 83 91 91 88 101 106 88 88 92 96 99 99 101 98 97 99 99 100 90 81 94 103 106 107 112 110 110 117 127 119 103 106 112 112 116 117 110 108 109 115 128 146 155 173 161 148 121 24 0 0 1 3 4 4 5 0 0 0 0 0 0 0 0 0 0 0 0 0 2 0 0 0 0 0 0 0 0 0 0 0 0 0 0 0 0 0 0 
0 0 0 0 0 0 0 0 0 0 0 0 2 7 61 121 137 156 147 126 124 137 123 113 114 104 112 115 125 112 120 99 87 104 131 140 121 99 80 74 81 88 91 88 81 78 92 90 88 91 97 100 101 102 100 98 97 99 91 69 71 80 95 101 111 116 112 109 105 115 128 118 105 110 108 114 117 104 108 111 115 131 147 158 173 167 153 130 35 1 0 1 2 4 4 5 0 0 0 0 0 0 0 0 0 0 0 0 0 2 0 0 0 0 0 0 0 0 0 0 0 0 0 0 0 0 0 0 
0 0 0 0 0 0 0 0 0 0 0 0 3 8 70 124 139 154 142 126 133 131 121 118 113 105 115 110 121 116 115 92 98 127 136 131 107 90 87 79 84 86 88 89 82 73 68 78 84 93 103 107 107 106 102 93 81 82 79 70 72 78 91 101 108 109 113 115 104 104 120 132 121 116 111 113 112 103 105 103 112 135 146 158 172 172 157 141 48 2 0 0 3 4 4 5 0 0 0 0 0 0 0 0 0 0 0 0 0 1 0 0 0 0 0 0 0 0 0 0 0 0 0 0 0 0 0 0 
0 0 0 0 0 0 0 0 0 0 0 0 4 11 78 127 146 157 141 129 140 126 129 121 112 104 111 107 118 117 109 95 120 134 129 118 107 95 99 103 100 89 87 89 86 76 70 72 73 88 103 111 112 114 108 91 81 73 71 71 72 80 90 91 93 111 123 120 108 101 107 121 136 136 113 112 109 108 105 105 111 137 143 155 171 174 157 146 60 4 0 1 3 4 4 5 0 0 0 0 0 0 0 0 0 0 0 0 0 0 0 0 0 0 0 0 0 0 0 0 0 0 0 0 0 0 0 0 
0 0 0 0 0 0 0 0 0 0 0 0 4 14 83 131 149 157 141 135 141 123 133 123 116 109 110 107 112 113 112 117 130 123 121 112 95 90 93 91 87 86 94 95 95 86 74 73 74 79 95 112 120 123 112 98 89 77 72 71 74 88 90 90 87 97 105 104 96 85 86 104 133 152 141 112 115 115 105 106 118 139 142 151 168 175 160 147 72 5 0 1 3 4 4 5 0 0 0 0 0 0 0 0 0 0 0 0 0 0 0 0 0 0 0 0 0 0 0 0 0 0 0 0 0 0 0 0 
0 0 0 0 0 0 0 0 0 0 0 0 4 14 85 132 153 160 138 139 146 128 137 125 114 109 113 103 106 116 124 120 122 121 108 95 86 74 70 72 76 70 72 76 90 96 85 73 71 76 87 106 126 126 108 101 92 78 73 72 82 91 88 82 88 99 112 114 107 98 97 101 119 138 153 140 128 121 109 112 122 138 139 146 166 180 162 150 85 7 0 1 2 4 4 5 0 0 0 0 0 0 0 0 0 0 0 0 0 0 0 0 0 0 0 0 0 0 0 0 0 0 0 0 0 0 0 0 
0 0 0 0 0 0 0 0 0 0 0 0 6 13 90 135 157 161 140 143 145 126 138 126 122 117 114 104 102 126 135 113 120 106 104 104 95 85 83 91 91 83 72 68 72 84 88 85 73 76 92 105 120 122 111 109 96 77 75 81 90 80 78 77 76 90 103 104 103 94 89 95 108 117 146 158 145 127 121 119 124 136 131 137 154 178 166 155 98 9 0 1 3 4 4 5 0 0 0 0 0 0 0 0 0 0 0 0 0 0 0 0 0 0 0 0 0 0 0 0 0 0 0 0 0 0 0 0 
0 0 0 0 0 0 0 0 0 0 0 0 6 13 93 138 157 159 137 143 144 123 136 129 127 128 121 114 106 137 137 128 112 111 116 96 81 78 79 79 84 84 81 82 78 74 80 88 81 83 97 112 121 123 116 115 94 78 73 88 86 75 67 64 71 84 100 104 102 96 87 91 106 116 129 156 152 134 129 121 123 131 123 131 144 172 167 158 111 15 0 1 2 4 4 5 0 0 0 0 0 0 0 0 0 0 0 0 0 0 0 0 0 0 0 0 0 0 0 0 0 0 0 0 0 0 0 0 
0 0 0 0 0 0 0 0 0 0 0 0 7 13 95 138 161 160 132 141 141 122 131 125 127 126 127 124 131 136 138 125 113 116 102 79 69 69 72 76 79 79 73 71 80 77 81 86 91 90 99 119 132 126 128 110 88 73 77 101 80 66 62 70 80 87 102 111 108 104 97 97 113 130 134 133 140 134 129 123 126 127 115 124 135 164 165 155 119 23 0 1 2 4 4 5 0 0 0 0 0 0 0 0 0 0 0 0 0 0 0 0 0 0 0 0 0 0 0 0 0 0 0 0 0 0 0 0 
0 0 0 0 0 0 0 0 0 0 0 0 7 13 98 138 163 163 128 138 133 120 128 120 123 119 123 121 140 139 140 117 117 112 98 79 74 76 74 78 79 82 79 74 74 87 91 97 105 109 115 126 134 116 123 108 87 75 93 95 68 65 70 74 78 88 106 119 116 113 103 97 111 130 134 118 115 130 124 123 125 126 110 117 124 160 166 157 125 33 1 1 3 4 4 5 0 0 0 0 0 0 0 0 0 0 0 0 0 0 0 0 0 0 0 0 0 0 0 0 0 0 0 0 0 0 0 0 
0 0 0 0 0 0 0 0 0 0 0 0 8 14 96 139 163 162 129 131 132 120 120 114 117 108 123 119 136 141 130 117 133 131 109 89 81 75 74 76 78 80 80 82 82 89 103 106 110 113 120 132 119 116 110 114 104 91 104 83 69 69 71 81 85 92 101 112 112 104 96 94 105 127 140 118 113 127 120 121 119 121 105 109 114 147 163 158 128 42 1 1 3 4 5 5 0 0 0 0 0 0 0 0 0 0 0 0 0 0 0 0 0 0 0 0 0 0 0 0 0 0 0 0 0 0 0 0 
0 0 0 0 0 0 0 0 0 0 0 0 9 16 99 141 166 159 118 124 128 115 112 112 115 104 116 119 124 128 114 107 118 117 94 85 84 84 82 75 73 73 76 84 93 96 101 107 111 114 121 117 111 121 117 118 120 109 103 76 71 73 83 84 86 91 96 104 103 98 93 93 107 125 139 116 117 127 120 116 114 117 99 105 107 133 162 157 133 49 2 1 3 4 5 6 0 0 0 0 0 0 0 0 0 0 0 0 0 0 0 0 0 0 0 0 0 0 0 0 0 0 0 0 0 0 0 0 
0 0 0 0 0 0 0 0 0 0 0 0 8 16 99 144 167 155 112 124 123 107 105 108 113 98 112 132 120 113 105 101 110 109 90 78 71 76 84 88 86 81 85 89 96 98 96 93 102 104 125 121 103 111 116 122 112 107 101 77 78 83 77 71 71 89 100 107 106 98 91 92 104 122 133 110 117 125 117 116 115 116 97 102 100 123 145 154 137 56 3 1 3 4 4 5 0 0 0 0 0 0 0 0 0 0 0 0 0 0 0 0 0 0 0 0 0 0 0 0 0 0 0 0 0 0 0 0 
0 0 0 0 0 0 0 0 0 0 0 0 7 17 95 147 164 149 112 117 119 102 98 104 98 90 105 130 124 112 97 99 111 107 91 76 72 73 74 83 87 86 91 102 98 92 94 92 93 108 130 127 117 105 113 106 117 107 93 84 84 79 78 66 72 91 98 109 105 95 88 91 104 122 131 110 118 119 113 122 130 116 97 101 107 120 130 147 139 61 3 1 3 4 4 5 0 0 0 0 0 0 0 0 0 0 0 0 0 0 0 0 0 0 0 0 0 0 0 0 0 0 0 0 0 0 0 0 
0 0 0 0 0 0 0 0 0 0 0 0 8 15 94 146 161 140 109 109 112 97 97 103 95 89 100 123 124 111 96 97 111 107 90 77 73 70 75 86 82 75 87 94 94 97 98 94 96 112 117 121 105 97 102 93 112 125 96 84 76 77 73 68 78 88 95 107 102 93 84 89 102 121 127 114 122 115 118 127 135 120 99 95 108 113 126 143 137 62 3 1 3 4 4 5 0 0 0 0 0 0 0 0 0 0 0 0 0 0 0 0 0 0 0 0 0 0 0 0 0 0 0 0 0 0 0 0 
0 0 0 0 0 0 0 0 0 0 0 0 7 16 89 144 158 133 111 104 110 100 97 101 96 90 94 117 126 114 98 95 108 111 91 77 72 71 74 83 85 82 82 95 94 97 99 86 91 112 110 116 95 94 92 88 94 123 93 84 74 72 68 70 80 86 97 104 102 92 86 89 105 120 120 116 124 119 116 122 133 122 103 93 107 111 127 146 131 59 2 0 3 4 4 5 0 0 0 0 0 0 0 0 0 0 0 0 0 0 0 0 0 0 0 0 0 0 0 0 0 0 0 0 0 0 0 0 
0 0 0 0 0 0 0 0 0 0 0 0 6 14 81 142 157 129 112 106 109 101 97 97 96 100 90 109 126 124 110 98 101 115 95 78 74 74 74 77 84 87 85 88 88 90 93 85 95 115 108 104 92 92 98 92 89 111 110 93 73 68 67 72 77 86 97 105 104 92 89 96 112 120 109 118 128 111 103 120 130 120 102 94 104 112 125 145 127 55 2 1 3 4 4 5 0 0 0 0 0 0 0 0 0 0 0 0 0 0 0 0 0 0 0 0 0 0 0 0 0 0 0 0 0 0 0 0 
0 0 0 0 0 0 0 0 0 0 0 0 4 15 76 138 155 129 112 105 103 104 98 97 94 98 87 104 126 137 127 102 96 110 98 80 77 76 83 81 85 89 88 86 89 93 94 81 94 115 112 105 94 100 107 97 90 93 113 102 77 68 70 72 76 88 97 108 99 89 93 103 112 114 96 113 123 102 99 118 127 119 102 98 101 113 129 143 122 48 2 0 2 3 4 5 0 0 0 0 0 0 0 0 0 0 0 0 0 0 0 0 0 0 0 0 0 0 0 0 0 0 0 0 0 0 0 0 
0 0 0 0 0 0 0 0 0 0 0 0 3 15 69 133 151 131 111 107 97 104 97 98 96 100 87 99 128 150 142 108 98 105 105 84 76 81 91 90 86 88 83 88 89 93 88 84 100 118 107 104 99 105 115 103 94 87 101 107 101 80 73 71 83 88 97 102 96 90 97 102 110 104 80 105 117 100 99 114 121 120 98 99 97 109 133 139 115 43 1 0 2 3 4 5 0 0 0 0 0 0 0 0 0 0 0 0 0 0 0 0 0 0 0 0 0 0 0 0 0 0 0 0 0 0 0 0 
0 0 0 0 0 0 0 0 0 8 5 0 0 13 58 128 150 132 113 106 91 104 96 99 95 97 88 95 129 150 145 111 104 102 103 89 77 78 83 87 86 94 88 89 94 104 109 108 114 114 105 103 97 110 117 114 101 85 83 100 118 112 89 82 86 88 102 107 98 94 94 99 113 85 71 106 112 107 118 113 114 115 96 95 96 106 135 132 105 36 2 0 2 4 4 5 0 0 0 0 0 0 0 0 0 0 0 0 0 0 0 0 0 0 0 0 0 0 0 0 0 0 0 0 0 0 0 0 
0 0 0 0 0 0 0 0 0 0 6 3 1 9 48 120 150 132 110 108 89 98 97 102 91 95 97 96 127 133 130 115 106 99 100 95 81 78 76 85 92 102 101 93 98 120 124 104 124 102 99 96 96 101 108 104 98 92 86 100 110 129 102 83 81 90 108 109 96 88 87 98 105 73 77 116 116 127 141 119 123 113 90 89 100 105 135 125 96 29 1 0 2 4 4 5 0 0 0 0 0 0 0 0 0 0 0 0 0 0 0 0 0 0 0 0 0 0 0 0 0 0 0 0 0 0 0 0 
0 0 0 0 0 0 0 0 0 1 6 7 2 7 39 110 142 129 107 100 94 89 98 105 94 94 102 99 124 122 112 118 114 116 107 93 86 81 80 84 93 103 96 106 126 127 126 114 124 93 98 91 91 103 102 95 94 93 104 111 109 113 106 104 96 100 110 106 95 90 87 102 106 93 97 121 117 124 142 125 133 115 91 92 99 111 136 119 87 23 0 0 2 4 4 5 0 0 0 0 0 0 0 0 0 0 0 0 0 0 0 0 0 0 0 0 0 0 0 0 0 0 0 0 0 0 0 0 
0 0 0 0 0 0 0 0 0 1 8 10 3 6 30 97 135 137 106 98 106 91 97 105 99 93 105 101 119 122 123 120 124 119 110 94 79 77 84 90 99 112 114 122 124 113 108 112 116 88 84 86 84 99 91 86 91 89 90 108 119 108 100 102 109 119 134 124 111 107 118 127 119 111 129 134 114 110 124 138 132 124 104 96 102 124 137 114 81 15 1 0 3 12 9 5 0 0 0 0 0 0 0 0 0 0 0 0 0 0 0 0 0 0 0 0 0 0 0 0 0 0 0 0 0 0 0 0 
0 0 0 0 0 0 0 0 0 0 2 12 8 7 22 87 129 145 110 105 107 94 90 101 107 95 107 99 111 117 127 112 112 125 115 103 92 103 107 113 119 112 108 104 117 116 96 102 112 74 74 80 77 84 78 69 76 81 89 111 121 106 94 97 115 140 159 155 142 138 145 144 137 124 127 146 132 117 112 145 126 126 124 103 107 139 132 109 73 10 2 2 7 4 4 5 0 0 0 0 0 0 0 0 0 0 0 0 0 0 0 0 0 0 0 0 0 0 0 0 0 0 0 0 0 0 0 0 
0 0 0 0 0 0 0 0 0 0 0 8 11 8 19 80 121 147 127 110 99 99 90 95 117 104 109 110 112 114 121 107 104 118 129 129 127 121 108 107 110 110 114 111 118 98 85 97 113 75 71 87 74 87 84 65 68 77 90 112 129 110 90 96 115 133 135 138 138 151 151 141 133 113 126 129 137 123 126 144 122 130 136 112 134 141 112 105 65 7 1 0 8 7 4 5 0 0 0 0 0 0 0 0 0 0 0 0 0 0 0 0 0 0 0 0 0 0 0 0 0 0 0 0 0 0 0 0 
0 0 0 0 0 0 0 0 0 0 0 7 10 10 12 68 114 141 142 115 100 101 97 107 126 111 106 128 110 102 135 137 123 115 115 126 115 104 109 118 119 113 103 102 95 93 87 94 105 78 74 86 73 90 78 66 72 88 107 108 112 114 111 109 124 131 139 137 140 142 141 139 150 156 143 145 143 132 163 171 139 144 153 144 152 132 96 104 52 6 1 3 3 5 4 5 0 0 0 0 0 0 0 0 0 0 0 0 0 0 0 0 0 0 0 0 0 0 0 0 0 0 0 0 0 0 0 0 
0 0 0 0 0 0 0 0 0 0 0 6 9 8 13 54 105 137 151 123 109 116 113 118 120 125 114 141 128 95 134 154 142 142 139 139 142 141 126 107 101 96 98 78 66 74 87 105 106 83 91 97 81 94 82 77 75 91 106 114 117 106 118 125 133 142 145 140 146 163 153 146 157 163 143 133 127 137 166 176 158 168 167 171 172 125 108 97 32 7 7 0 3 4 4 6 0 0 0 0 0 0 0 0 0 0 0 0 0 0 0 0 0 0 0 0 0 0 0 0 0 0 0 0 0 0 0 0 
0 0 0 0 0 0 0 0 0 0 1 7 11 6 6 38 101 134 150 137 132 146 127 132 132 150 137 141 134 120 144 159 165 154 140 146 156 156 143 116 97 94 87 79 71 90 104 107 90 82 96 106 99 110 89 75 70 79 90 104 114 115 116 117 120 120 133 138 146 158 148 133 135 135 138 146 137 149 151 169 162 175 181 158 160 116 110 81 16 9 8 1 3 4 4 6 0 0 0 0 0 0 0 0 0 0 0 0 0 0 0 0 0 0 0 0 0 0 0 0 0 0 0 0 0 0 0 0 
0 0 0 0 0 0 0 0 0 0 0 3 10 6 5 9 61 118 135 142 147 164 169 156 156 153 139 136 137 139 148 152 158 168 152 139 148 155 146 108 94 97 99 89 89 102 110 105 90 89 105 107 108 130 124 91 74 77 85 93 103 100 117 117 115 117 127 134 135 129 120 117 133 135 144 155 151 152 142 157 161 159 159 164 161 113 102 84 19 7 11 3 2 4 5 7 0 0 0 0 0 0 0 0 0 0 0 0 0 0 0 0 0 0 0 0 0 0 0 0 0 0 0 0 0 0 0 0 
0 0 0 0 0 0 0 0 0 0 0 5 7 5 6 8 36 106 137 147 147 164 170 166 166 154 138 154 137 110 143 149 157 171 162 136 142 145 131 104 98 103 106 96 102 106 119 99 99 105 106 111 117 133 133 104 77 77 81 98 105 103 109 111 112 115 136 140 130 114 101 107 123 131 141 141 144 142 141 165 159 163 170 159 133 101 110 61 10 8 11 4 1 5 5 6 0 0 0 0 0 0 0 0 0 0 0 0 0 0 0 0 0 0 0 0 0 0 0 0 0 0 0 0 0 0 0 0 
0 0 0 0 0 0 0 0 0 0 0 6 5 9 6 9 22 87 130 134 145 138 153 158 174 173 160 157 138 113 142 158 155 154 148 144 138 135 125 110 104 102 106 107 100 110 130 96 108 110 96 98 95 116 121 118 82 73 88 101 109 110 104 101 95 104 136 136 121 106 102 104 115 128 147 149 141 154 151 151 139 152 135 127 119 116 100 32 9 7 9 5 1 4 5 7 0 0 0 0 0 0 0 0 0 0 0 0 0 0 0 0 0 0 0 0 0 0 0 0 0 0 0 0 0 0 0 0 
0 0 0 0 0 0 0 0 0 0 0 2 5 11 3 11 15 61 120 130 143 129 132 133 134 151 154 149 145 126 131 143 153 146 131 146 138 130 128 122 96 102 109 99 100 112 130 96 96 110 109 102 93 96 118 120 92 85 95 102 105 112 124 116 107 100 100 90 87 100 104 102 108 133 147 150 141 155 166 139 134 143 135 125 117 122 76 17 8 7 5 4 4 4 5 7 0 0 0 0 0 0 0 0 0 0 0 0 0 0 0 0 0 0 0 0 0 0 0 0 0 0 0 0 0 0 0 0 
0 0 0 0 0 0 0 0 0 0 1 2 0 6 5 11 14 32 106 117 137 141 133 125 134 146 136 130 118 139 146 121 130 145 139 130 138 135 126 108 91 86 89 93 97 94 115 92 89 100 108 104 100 99 120 112 84 84 105 105 104 130 150 146 118 83 74 79 94 98 94 104 122 133 143 152 154 153 173 147 138 135 127 93 106 106 42 10 8 6 4 3 6 5 5 7 0 0 0 0 0 0 0 0 0 0 0 0 0 0 0 0 0 0 0 0 0 0 0 0 0 0 0 0 0 0 0 0 
0 0 0 0 0 0 0 0 0 0 1 4 2 5 1 10 17 20 80 103 122 140 134 135 122 151 128 111 106 122 150 133 108 129 154 137 116 126 126 115 91 93 90 100 110 119 124 111 113 114 119 124 112 107 128 126 107 103 112 117 130 136 136 132 115 93 81 85 91 95 109 123 118 119 123 141 145 159 178 162 148 125 101 69 115 89 20 9 1 6 5 1 2 5 5 7 0 0 0 0 0 0 0 0 0 0 0 0 0 0 0 0 0 0 0 0 0 0 0 0 0 0 0 0 0 0 0 0 
0 0 0 0 0 0 0 0 0 0 1 3 6 5 0 5 18 17 47 99 117 131 138 137 142 138 127 116 117 127 140 131 123 127 133 128 106 87 88 94 102 106 108 118 126 139 131 131 144 149 146 141 144 146 145 142 141 138 129 125 130 136 127 131 119 97 93 87 99 122 121 103 114 117 123 136 144 170 165 147 149 132 75 70 116 60 14 12 2 6 7 1 1 5 5 7 0 0 0 0 0 0 0 0 0 0 0 0 0 0 0 0 0 0 0 0 0 0 0 0 0 0 0 0 0 0 0 0 
0 0 0 0 0 0 0 0 0 0 1 3 4 4 2 5 13 17 27 94 117 115 129 128 153 147 134 137 132 127 143 132 139 144 125 117 109 96 81 85 102 109 117 123 140 144 129 138 148 155 156 155 156 162 172 168 156 145 140 139 138 161 153 151 137 121 122 120 130 127 106 117 124 115 113 136 155 169 160 141 137 119 64 92 104 35 11 12 4 6 4 0 1 5 5 7 0 0 0 0 0 0 0 0 0 0 0 0 0 0 0 0 0 0 0 0 0 0 0 0 0 0 0 0 0 0 0 0 
0 0 0 0 0 0 0 0 0 0 0 2 2 0 3 6 13 13 16 63 106 108 103 110 136 156 146 134 141 121 130 144 138 144 126 115 114 99 101 108 130 140 128 129 137 134 126 139 137 130 129 142 149 165 161 156 158 145 124 126 134 153 159 157 149 137 130 133 139 116 97 99 110 111 103 144 157 163 162 139 130 121 83 96 79 23 10 12 6 6 2 0 1 5 6 7 0 0 0 0 0 0 0 0 0 0 0 0 0 0 0 0 0 0 0 0 0 0 0 0 0 0 0 0 0 0 0 0 
0 0 0 0 0 0 0 0 0 0 0 1 3 1 3 7 11 9 12 40 87 100 110 95 120 147 160 141 137 137 123 130 145 135 112 121 126 118 120 132 141 156 154 141 155 147 143 153 143 135 145 152 146 160 143 136 142 147 136 130 134 137 150 148 149 150 141 146 144 107 90 89 106 123 115 146 147 161 152 129 105 107 105 85 61 18 10 12 8 5 1 0 2 6 6 7 0 0 0 0 0 0 0 0 0 0 0 0 0 0 0 0 0 0 0 0 0 0 0 0 0 0 0 0 0 0 0 0 
0 0 0 0 0 0 0 0 0 0 1 5 13 9 5 9 10 10 11 31 75 96 113 81 102 125 157 152 144 130 129 120 137 127 109 103 112 118 124 129 140 165 170 167 170 164 158 150 144 145 157 162 155 155 152 131 132 141 133 140 143 134 143 143 154 156 146 147 138 104 91 101 114 118 134 150 154 151 141 112 86 110 86 82 57 14 8 8 10 5 0 0 2 5 6 7 0 0 0 0 0 0 0 0 0 0 0 0 0 0 0 0 0 0 0 0 0 0 0 0 0 0 0 0 0 0 0 0 
0 0 0 0 0 0 0 0 0 0 0 4 13 13 13 11 9 11 15 20 62 81 107 112 116 115 141 149 158 144 136 123 131 99 102 102 100 107 112 113 122 152 161 166 174 165 171 169 168 157 141 159 157 138 135 128 118 118 114 128 133 148 150 181 173 157 154 157 143 101 85 92 118 125 150 161 166 163 142 92 85 99 95 88 43 14 6 5 7 4 0 0 3 5 5 7 0 0 0 0 0 0 0 0 0 0 0 0 0 0 0 0 0 0 0 0 0 0 0 0 0 0 0 0 0 0 0 0 
0 0 0 0 0 0 0 0 0 0 0 2 10 12 11 7 7 11 16 17 34 77 110 103 78 95 136 146 165 156 149 137 138 100 73 86 104 110 101 98 104 138 151 155 173 169 169 173 173 150 137 157 151 140 119 107 108 113 120 137 135 157 174 160 175 162 169 162 136 100 87 101 116 130 158 153 158 150 130 94 81 96 81 69 20 12 7 4 3 7 3 3 5 3 4 7 0 0 0 0 0 0 0 0 0 0 0 0 0 0 0 0 0 0 0 0 0 0 0 0 0 0 0 0 0 0 0 0 
0 0 0 0 0 0 0 0 0 0 0 2 11 11 8 8 9 9 16 15 17 48 107 105 97 86 116 137 156 158 150 138 135 133 98 77 78 84 87 92 114 136 139 139 152 156 150 165 162 152 144 143 136 154 157 131 120 124 124 119 127 163 173 185 174 160 168 158 154 143 116 113 130 156 153 134 119 98 91 63 71 84 79 35 10 9 7 5 3 4 11 11 12 8 7 7 0 0 0 0 0 0 0 0 0 0 0 0 0 0 0 0 0 0 0 0 0 0 0 0 0 0 0 0 0 0 0 0 
0 0 0 0 0 0 0 0 0 0 0 0 10 11 7 7 4 4 8 15 21 29 68 99 91 74 102 140 143 159 161 141 130 126 115 106 101 102 99 124 124 148 155 164 162 145 145 160 156 159 160 149 151 164 161 155 147 139 137 137 153 169 171 178 159 136 143 162 165 190 158 131 132 143 117 90 93 89 77 53 93 91 44 13 7 3 2 4 4 4 4 7 9 6 4 7 0 0 0 0 0 0 0 0 0 0 0 0 0 0 0 0 0 0 0 0 0 0 0 0 0 0 0 0 0 0 0 0 
0 0 0 0 0 0 0 0 0 0 0 0 4 8 4 3 3 3 5 11 18 23 29 79 90 71 96 119 102 145 147 134 127 127 127 124 137 128 122 144 162 178 181 194 189 187 190 185 165 160 167 167 158 149 143 142 145 152 177 195 193 195 188 179 190 186 168 169 138 123 127 115 87 82 67 69 90 104 89 79 73 37 20 20 11 2 0 0 1 1 5 7 7 2 3 7 0 0 0 0 0 0 0 0 0 0 0 0 0 0 0 0 0 0 0 0 0 0 0 0 0 0 0 0 0 0 0 0 
0 0 0 0 0 0 0 0 0 0 0 0 0 2 2 2 2 0 0 7 16 15 12 41 90 95 72 69 68 87 95 95 122 120 113 111 102 116 145 160 168 155 163 160 165 189 183 173 163 158 168 190 176 177 177 172 168 169 180 197 193 194 199 159 143 183 174 171 137 130 104 85 75 69 56 62 78 82 71 47 36 34 33 29 18 0 0 0 0 0 4 8 8 1 3 7 0 0 0 0 0 0 0 0 0 0 0 0 0 0 0 0 0 0 0 0 0 0 0 0 0 0 0 0 0 0 0 0 
0 0 0 0 0 0 0 0 0 0 0 0 0 1 6 4 4 3 2 3 10 13 19 22 36 45 32 55 63 63 66 49 74 79 90 92 66 67 77 85 87 90 131 124 136 107 99 107 113 101 113 124 112 104 88 89 92 81 97 91 85 114 92 123 111 145 122 76 57 61 62 86 58 43 48 70 87 72 47 26 29 26 16 6 4 0 4 3 3 3 3 10 4 1 3 7 0 0 0 0 0 0 0 0 0 0 0 0 0 0 0 0 0 0 0 0 0 0 0 0 0 0 0 0 0 0 0 0 
0 0 0 0 0 0 0 0 0 0 0 0 0 0 2 3 4 4 2 1 6 10 13 15 22 21 22 41 70 71 63 53 62 56 77 83 60 55 65 60 74 88 82 89 91 76 75 70 92 90 65 70 71 72 75 78 82 71 71 69 70 93 80 64 75 97 120 97 97 113 68 63 42 39 46 67 89 71 44 29 27 24 13 6 4 1 2 2 3 3 3 2 1 1 3 6 0 0 0 0 0 0 0 0 0 0 0 0 0 0 0 0 0 0 0 0 0 0 0 0 0 0 0 0 0 0 0 0 
0 0 0 0 0 0 0 0 0 0 0 0 0 0 0 0 0 3 0 0 3 8 10 14 20 25 25 37 73 76 60 60 67 60 80 84 76 76 137 149 158 135 119 110 111 108 105 111 110 91 91 110 100 104 100 99 99 71 88 107 100 113 109 94 136 161 90 84 107 89 84 107 73 71 74 80 91 71 43 27 27 24 12 10 2 0 0 0 0 0 1 1 0 0 2 5 0 0 0 0 0 0 0 0 0 0 0 0 0 0 0 0 0 0 0 0 0 0 0 0 0 0 0 0 0 0 0 0 
0 0 0 0 0 0 0 0 0 0 0 0 0 0 0 0 0 0 0 0 0 2 4 8 14 31 30 49 85 86 74 68 71 61 83 84 79 111 135 131 170 158 167 162 155 162 158 154 135 112 122 133 126 129 123 136 138 117 120 164 157 134 133 153 129 177 173 96 98 140 118 113 88 82 88 88 88 77 50 41 28 22 12 6 0 0 0 0 0 0 0 0 0 0 1 4 0 0 0 0 0 0 0 0 0 0 0 0 0 0 0 0 0 0 0 0 0 0 0 0 0 0 0 0 0 0 0 0 
0 0 0 0 0 0 0 0 0 0 0 0 0 0 0 0 0 0 0 0 0 4 5 2 8 24 21 42 83 88 78 86 83 75 97 95 72 77 137 139 167 165 189 132 146 195 185 154 174 177 171 165 168 172 184 196 193 189 175 180 172 169 175 163 175 165 129 130 104 152 149 141 109 82 57 63 69 47 23 24 13 2 1 3 0 0 0 0 0 0 0 0 0 0 0 2 0 0 0 0 0 0 0 0 0 0 0 0 0 0 0 0 0 0 0 0 0 0 0 0 0 0 0 0 0 0 0 0 
0 0 0 0 0 0 0 0 0 0 0 0 0 0 0 0 0 0 0 0 0 0 2 1 7 14 24 28 58 75 70 79 64 53 92 86 68 81 78 115 126 123 136 95 123 127 128 152 153 151 146 133 157 158 162 164 165 166 171 168 131 129 118 135 135 140 150 141 147 153 114 83 57 48 54 76 76 48 21 20 12 8 4 0 0 0 0 0 0 0 0 1 2 6 8 10 0 0 0 0 0 0 0 0 0 0 0 0 0 0 0 0 0 0 0 0 0 0 0 0 0 0 0 0 0 0 0 0 
0 0 0 0 0 0 0 0 0 0 0 0 0 0 0 0 0 0 0 0 0 0 3 8 8 13 19 25 38 52 69 69 61 62 95 87 63 47 85 108 106 103 101 77 64 115 138 130 98 90 109 73 105 118 107 88 95 100 100 123 110 104 101 86 96 145 137 130 160 126 89 67 69 58 64 94 78 45 20 19 15 11 6 1 0 0 0 0 0 0 0 0 0 1 4 8 0 0 0 0 0 0 0 0 0 0 0 0 0 0 0 0 0 0 0 0 0 0 0 0 0 0 0 0 0 0 0 0 
0 0 0 0 0 0 0 0 0 0 0 0 0 0 0 0 0 0 0 0 0 0 1 8 8 11 18 21 28 41 62 68 64 59 85 50 50 68 75 91 95 100 106 98 111 141 140 125 110 92 92 75 82 82 89 88 91 99 98 94 95 97 79 62 76 97 114 112 108 98 83 73 89 92 86 95 77 50 23 21 16 10 6 1 0 0 0 0 0 0 0 0 0 1 4 8 0 0 0 0 0 0 0 0 0 0 0 0 0 0 0 0 0 0 0 0 0 0 0 0 0 0 0 0 0 0 0 0 
0 0 0 0 0 0 0 0 0 0 0 0 0 0 0 0 0 0 0 0 0 0 0 5 8 9 17 22 24 41 61 70 72 63 85 39 30 41 71 103 97 90 100 92 107 137 117 113 111 110 99 81 82 84 90 74 82 78 88 92 107 120 112 94 92 90 102 98 85 91 66 38 46 78 100 101 76 52 27 20 16 11 5 0 0 0 0 0 0 0 0 0 0 1 4 8 0 0 0 0 0 0 0 0 0 0 0 0 0 0 0 0 0 0 0 0 0 0 0 0 0 0 0 0 0 0 0 0 
0 0 0 0 0 0 0 0 0 0 0 0 0 0 0 0 0 0 0 0 0 0 0 2 6 8 12 19 24 36 60 64 68 68 81 41 40 57 64 59 59 89 90 85 105 129 111 107 131 132 115 84 87 98 89 78 88 81 83 98 117 138 130 116 103 83 91 106 96 80 77 52 43 69 96 105 73 47 32 19 14 10 4 0 0 0 0 0 0 0 0 0 0 0 3 8 0 0 0 0 0 0 0 0 0 0 0 0 0 0 0 0 0 0 0 0 0 0 0 0 0 0 0 0 0 0 0 0 
0 0 0 0 0 0 0 0 0 0 0 0 0 0 0 0 0 0 0 0 0 0 0 0 5 6 10 16 22 26 48 58 69 76 81 49 53 54 43 47 78 91 79 80 92 117 110 88 125 114 118 104 100 96 88 88 91 84 93 111 111 116 126 116 115 94 88 90 109 83 61 68 57 73 97 101 84 52 29 16 14 9 2 0 0 0 0 0 0 0 0 0 0 0 3 8 0 0 0 0 0 0 0 0 0 0 0 0 0 0 0 0 0 0 0 0 0 0 0 0 0 0 0 0 0 0 0 0 
0 0 0 0 0 0 0 0 0 0 0 0 0 0 0 0 0 0 0 0 0 0 0 0 2 3 9 14 19 25 33 53 71 80 76 57 63 51 40 61 87 58 66 88 92 115 118 98 105 85 106 114 104 95 89 86 88 92 108 115 101 95 115 117 123 96 93 69 72 91 48 62 70 76 107 94 78 47 20 15 14 8 1 0 0 0 0 0 0 0 0 0 0 0 2 8 0 0 0 0 0 0 0 0 0 0 0 0 0 0 0 0 0 0 0 0 0 0 0 0 0 0 0 0 0 0 0 0 
0 0 0 0 0 0 0 0 0 0 0 0 0 0 0 0 0 0 0 0 0 0 0 0 1 5 4 12 16 20 30 53 63 70 69 64 73 47 40 74 77 47 71 91 80 101 120 87 75 78 97 107 109 104 97 95 99 109 122 114 87 101 97 101 118 78 90 75 55 85 60 55 80 68 108 86 47 22 18 15 15 8 1 0 0 0 0 0 0 0 0 0 0 0 3 8 0 0 0 0 0 0 0 0 0 0 0 0 0 0 0 0 0 0 0 0 0 0 0 0 0 0 0 0 0 0 0 0 
0 0 0 0 0 0 0 0 0 0 0 0 0 0 0 0 0 0 0 0 0 0 0 0 0 3 4 9 15 17 22 31 45 38 62 76 72 44 42 75 65 56 76 85 74 103 121 80 68 81 95 107 115 118 120 119 128 130 112 92 86 89 90 91 109 75 76 76 60 78 70 50 77 76 92 41 21 17 18 16 15 8 1 0 0 0 0 0 0 0 0 0 0 0 2 8 0 0 0 0 0 0 0 0 0 0 0 0 0 0 0 0 0 0 0 0 0 0 0 0 0 0 0 0 0 0 0 0 
0 0 0 0 0 0 0 0 0 0 0 0 0 0 0 0 0 0 0 0 0 0 0 0 0 0 5 6 12 17 20 19 18 16 29 70 68 54 64 97 65 51 64 76 76 98 116 88 74 81 73 82 106 119 116 117 136 127 98 75 79 83 95 93 105 93 74 71 54 76 103 75 79 85 74 24 17 14 16 17 13 7 0 0 0 0 0 0 0 0 0 0 0 0 3 7 0 0 0 0 0 0 0 0 0 0 0 0 0 0 0 0 0 0 0 0 0 0 0 0 0 0 0 0 0 0 0 0 
0 0 0 0 0 0 0 0 0 0 0 0 0 0 0 0 0 0 0 0 0 0 0 0 0 0 3 5 9 13 16 16 17 19 14 38 72 83 86 92 71 52 62 68 72 86 100 100 95 82 64 68 86 99 108 114 130 128 96 73 78 90 107 113 111 104 80 71 56 67 105 98 92 72 35 15 13 14 16 15 11 6 1 0 0 0 0 0 0 0 0 0 0 0 2 7 0 0 0 0 0 0 0 0 0 0 0 0 0 0 0 0 0 0 0 0 0 0 0 0 0 0 0 0 0 0 0 0 
0 0 0 0 0 0 0 0 0 0 0 0 0 0 0 0 0 0 0 0 0 0 0 0 0 0 0 3 6 9 15 19 16 21 15 13 32 68 65 80 83 65 65 73 93 94 100 102 101 93 76 79 82 95 105 115 120 113 102 86 86 93 108 115 99 99 93 79 69 83 97 80 68 35 21 15 12 13 16 14 11 6 1 0 0 0 0 0 0 0 0 0 0 0 2 7 0 0 0 0 0 0 0 0 0 0 0 0 0 0 0 0 0 0 0 0 0 0 0 0 0 0 0 0 0 0 0 0 
0 0 0 0 0 0 0 0 0 0 0 0 0 0 0 0 0 0 0 0 0 0 0 0 0 0 0 2 4 8 11 17 18 19 14 14 17 31 52 72 98 80 66 86 112 91 89 109 94 100 77 73 79 94 101 109 108 112 114 99 80 85 105 116 96 95 116 98 79 96 95 60 31 26 23 15 14 14 15 12 10 6 1 0 0 0 0 0 0 0 0 0 0 0 2 7 0 0 0 0 0 0 0 0 0 0 0 0 0 0 0 0 0 0 0 0 0 0 0 0 0 0 0 0 0 0 0 0 
0 0 0 0 0 0 0 0 0 0 0 0 0 0 0 0 0 0 0 0 0 0 0 0 0 0 0 0 4 5 10 15 16 17 15 12 15 22 30 47 80 87 77 103 113 89 104 122 109 92 70 75 90 107 108 107 111 115 121 124 94 80 105 121 108 91 111 107 86 92 60 33 25 25 25 15 15 15 15 11 9 5 1 0 0 0 0 0 0 0 0 0 0 0 1 7 0 0 0 0 0 0 0 0 0 0 0 0 0 0 0 0 0 0 0 0 0 0 0 0 0 0 0 0 0 0 0 0 
0 0 0 0 0 0 0 0 0 0 0 0 0 0 0 0 0 0 0 0 0 0 0 0 0 0 0 0 1 7 9 13 16 18 16 12 16 20 26 30 37 67 81 92 103 90 101 114 102 74 84 100 114 123 110 103 107 115 129 132 110 78 103 126 113 85 104 105 90 56 31 29 26 25 22 16 13 15 14 10 9 6 1 0 0 0 0 0 0 0 0 0 0 0 1 6 0 0 0 0 0 0 0 0 0 0 0 0 0 0 0 0 0 0 0 0 0 0 0 0 0 0 0 0 0 0 0 0 
0 0 0 0 0 0 0 0 0 0 0 0 0 0 0 0 0 0 0 0 0 0 0 0 0 0 0 0 0 6 7 9 17 19 16 12 14 20 26 30 29 34 40 52 68 72 86 108 92 85 102 111 113 114 106 102 100 105 125 118 112 100 104 122 109 77 68 57 46 39 28 28 25 23 19 15 12 13 15 11 9 5 0 0 0 0 0 0 0 0 0 0 0 0 2 7 0 0 0 0 0 0 0 0 0 0 0 0 0 0 0 0 0 0 0 0 0 0 0 0 0 0 0 0 0 0 0 0 
0 0 0 0 0 0 0 0 0 0 0 0 0 0 0 0 0 0 0 0 0 0 0 0 0 0 0 0 0 4 8 7 16 17 16 12 13 19 24 28 29 33 29 32 39 58 75 85 91 89 97 101 92 98 103 106 105 102 113 116 108 99 109 108 81 61 45 42 39 36 28 29 24 24 19 13 15 12 14 13 10 4 0 0 0 0 0 0 0 0 0 0 0 0 1 6 0 0 0 0 0 0 0 0 0 0 0 0 0 0 0 0 0 0 0 0 0 0 0 0 0 0 0 0 0 0 0 0 
