P2
128 99
209
0 0 0 0 0 0 0 0 0 0 0 0 0 0 0 0 0 0 0 0 0 0 0 0 0 0 0 0 0 0 0 0 2 2 1 0 0 0 0 0 0 0 0 0 0 0 0 0 0 0 0 0 0 0 0 0 0 0 0 0 0 0 0 0 0 0 0 0 0 0 0 0 0 0 0 0 0 0 0 0 0 0 0 0 0 0 0 0 0 0 0 0 1 2 2 2 0 0 0 0 0 0 0 0 0 0 0 0 0 0 0 0 0 0 0 0 0 0 0 0 0 0 0 0 0 0 0 0 
0 0 0 0 0 0 0 0 0 0 0 0 0 0 0 0 0 0 0 0 0 0 0 0 0 0 0 0 0 0 0 0 1 2 1 0 0 0 0 0 0 0 0 0 0 0 0 0 0 0 0 0 0 0 0 0 0 0 0 0 0 0 0 0 0 0 0 0 0 0 0 0 0 0 0 0 0 0 0 0 0 0 0 0 0 0 0 0 0 0 0 0 1 2 2 2 0 0 0 0 0 0 0 0 0 0 0 0 0 0 0 0 0 0 0 0 0 0 0 0 0 0 0 0 0 0 0 0 
0 0 0 0 0 0 0 0 0 0 0 0 0 0 0 0 0 0 0 0 0 0 0 0 0 0 0 0 0 0 0 0 1 2 1 0 0 0 0 0 0 0 0 0 0 0 0 0 0 0 0 2 2 3 1 0 0 0 0 0 0 0 0 0 0 0 0 0 0 0 0 0 0 0 0 0 0 0 0 0 0 0 0 0 0 0 0 0 0 0 0 0 1 2 2 2 0 0 0 0 0 0 0 0 0 0 0 0 0 0 0 0 0 0 0 0 0 0 0 0 0 0 0 0 0 0 0 0 
0 0 0 0 0 0 0 0 0 0 0 0 0 0 0 0 0 0 0 0 0 0 0 0 0 0 0 0 0 0 0 0 1 1 1 0 0 0 0 0 0 0 0 1 6 13 16 18 18 19 22 25 28 27 26 21 18 16 14 11 4 0 0 0 0 0 0 0 0 0 0 0 0 0 0 0 0 0 0 0 0 0 0 0 0 0 0 0 0 0 0 0 1 2 2 3 0 0 0 0 0 0 0 0 0 0 0 0 0 0 0 0 0 0 0 0 0 0 0 0 0 0 0 0 0 0 0 0 
0 0 0 0 0 0 0 0 0 0 0 0 0 0 0 0 0 0 0 0 0 0 0 0 0 0 0 0 0 0 0 0 1 1 0 0 0 0 0 0 5 13 19 23 24 33 53 77 100 119 135 145 150 151 148 138 123 103 78 53 33 22 17 11 2 0 0 0 0 0 0 0 0 0 0 0 0 0 0 0 0 0 0 0 0 0 0 0 0 0 0 0 1 2 2 2 0 0 0 0 0 0 0 0 0 0 0 0 0 0 0 0 0 0 0 0 0 0 0 0 0 0 0 0 0 0 0 0 
0 0 0 0 0 0 0 0 0 0 0 0 0 0 0 0 0 0 0 0 0 0 0 0 0 0 0 0 0 0 0 0 1 1 0 0 0 0 9 16 23 25 36 67 110 146 168 177 182 185 187 185 184 184 185 185 184 181 175 165 147 116 78 43 24 16 11 2 0 0 0 0 0 0 0 0 0 0 0 0 0 0 0 0 0 0 0 0 0 0 0 0 1 1 2 2 0 0 0 0 0 0 0 0 0 0 0 0 0 0 0 0 0 0 0 0 0 0 0 0 0 0 0 0 0 0 0 0 
0 0 0 0 0 0 0 0 0 0 0 0 0 0 0 0 0 0 0 0 0 0 0 0 0 0 0 0 0 0 0 0 1 0 0 0 9 21 23 26 51 101 149 174 184 186 188 188 191 193 195 195 194 194 195 194 193 191 189 187 185 180 170 152 121 76 39 19 13 2 0 0 0 0 0 0 0 0 0 0 0 0 0 0 0 0 0 0 0 0 0 0 1 2 2 2 0 0 0 0 0 0 0 0 0 0 0 0 0 0 0 0 0 0 0 0 0 0 0 0 0 0 0 0 0 0 0 0 
0 0 0 0 0 0 0 0 0 0 0 0 0 0 0 0 0 0 0 0 0 0 0 0 0 0 0 0 0 0 0 0 1 0 8 24 25 26 61 123 164 181 186 188 191 195 192 185 181 178 180 187 185 173 172 185 197 202 200 195 191 188 187 186 182 169 145 100 49 22 13 2 0 0 0 0 0 0 0 0 0 0 0 0 0 0 0 0 0 0 0 0 1 2 2 3 0 0 0 0 0 0 0 0 0 0 0 0 0 0 0 0 0 0 0 0 0 0 0 0 0 0 0 0 0 0 0 0 
0 0 0 0 0 0 0 0 0 0 0 0 0 0 0 0 0 0 0 0 0 0 0 0 0 0 0 0 0 0 0 0 5 27 26 22 58 126 169 181 183 187 192 193 190 183 176 166 155 151 149 151 150 144 146 150 158 175 194 203 203 199 195 190 188 187 185 177 153 101 45 23 11 0 0 0 0 0 0 0 0 0 0 0 0 0 0 0 0 0 0 0 1 2 2 2 0 0 0 0 0 0 0 0 0 0 0 0 0 0 0 0 0 0 0 0 0 0 0 0 0 0 0 0 0 0 0 0 
0 0 0 0 0 0 0 0 0 0 0 0 0 0 0 0 0 0 0 0 0 0 0 0 0 0 0 0 0 0 0 23 26 23 41 110 166 179 182 185 190 193 191 178 165 158 150 141 136 136 143 149 150 146 149 151 155 155 165 182 200 204 203 202 198 192 188 188 185 176 145 78 31 19 2 0 0 0 0 0 0 0 0 0 0 0 0 0 0 0 0 0 1 2 2 2 0 0 0 0 0 0 0 0 0 0 0 0 0 0 0 0 0 0 0 0 0 0 0 0 0 0 0 0 0 0 0 0 
0 0 0 0 0 0 0 0 0 0 0 0 0 0 0 0 0 0 0 0 0 0 0 0 0 0 0 0 0 10 28 23 27 83 156 177 181 184 189 193 198 188 168 160 156 150 145 139 133 130 130 135 134 132 137 140 141 141 146 154 172 192 203 206 204 201 199 194 188 188 185 171 118 45 23 6 0 0 0 0 0 0 0 0 0 0 0 0 0 0 0 0 1 2 2 2 0 0 0 0 0 0 0 0 0 0 0 0 0 0 0 0 0 0 0 0 0 0 0 0 0 0 0 0 0 0 0 0 
0 0 0 0 0 0 0 0 0 0 0 0 0 0 0 0 0 0 0 0 0 0 0 0 0 0 0 0 22 25 19 48 131 173 178 183 190 193 199 195 177 167 163 158 155 151 147 143 140 136 131 135 133 132 143 149 147 145 148 150 153 163 181 195 205 208 205 200 198 194 190 188 180 148 68 24 11 0 0 0 0 0 0 0 0 0 0 0 0 0 0 0 1 2 2 3 0 0 0 0 0 0 0 0 0 0 0 0 0 0 0 0 0 0 0 0 0 0 0 0 0 0 0 0 0 0 0 0 
0 0 0 0 0 0 0 0 0 0 0 0 0 0 0 0 0 0 0 0 0 0 0 0 0 0 5 26 20 19 77 155 176 182 188 194 199 199 185 172 168 166 156 151 146 145 145 143 147 143 134 131 128 127 136 144 145 145 148 151 154 161 168 175 185 196 206 209 205 200 196 191 188 181 159 84 25 13 0 0 0 0 0 0 0 0 0 0 0 0 0 0 1 2 2 3 0 0 0 0 0 0 0 0 0 0 0 0 0 0 0 0 0 0 0 0 0 0 0 0 0 0 0 0 0 0 0 0 
0 0 0 0 0 0 0 0 0 0 0 0 0 0 0 0 0 0 0 0 0 0 0 0 0 10 26 18 26 100 164 176 187 192 197 202 193 179 173 166 161 156 152 149 148 150 147 144 133 127 117 117 114 114 119 130 141 144 145 147 147 153 162 170 173 177 184 195 206 208 202 198 192 186 181 163 93 26 13 0 0 0 0 0 0 0 0 0 0 0 0 0 1 2 2 3 0 0 0 0 0 0 0 0 0 0 0 0 0 0 0 0 0 0 0 0 0 0 0 0 0 0 0 0 0 0 0 0 
0 0 0 0 0 0 0 0 0 0 0 0 0 0 0 0 0 0 0 0 0 0 0 0 14 23 16 34 116 167 178 188 195 201 198 184 175 171 165 160 157 155 154 150 145 141 133 127 126 121 117 117 115 120 125 126 135 144 146 145 144 143 148 155 160 168 174 175 180 194 205 205 200 194 186 182 168 104 30 13 0 0 0 0 0 0 0 0 0 0 0 0 1 2 2 2 0 0 0 0 0 0 0 0 0 0 0 0 0 0 0 0 0 0 0 0 0 0 0 0 0 0 0 0 0 0 0 0 
0 0 0 0 0 0 0 0 0 0 0 0 0 0 0 0 0 0 0 0 0 0 3 19 21 15 44 127 165 179 191 197 201 189 175 172 165 162 161 158 153 150 146 138 132 124 119 123 119 118 122 124 123 126 127 125 125 128 136 142 142 140 143 149 154 154 160 165 167 169 181 198 203 200 194 185 182 170 116 36 12 0 0 0 0 0 0 0 0 0 0 0 1 2 2 2 0 0 0 0 0 0 0 0 0 0 0 0 0 0 0 0 0 0 0 0 0 0 0 0 0 0 0 0 0 0 0 0 
0 0 0 0 0 0 0 0 0 0 0 0 0 0 0 0 0 0 0 0 0 5 17 17 16 56 137 164 180 192 199 198 180 169 165 160 160 160 157 153 151 142 132 130 125 122 123 121 123 123 122 117 116 121 121 122 124 127 131 134 137 137 138 142 144 149 151 153 160 165 164 170 189 199 200 194 188 183 169 123 38 9 0 0 0 0 0 0 0 0 0 0 1 2 2 2 0 0 0 0 0 0 0 0 0 0 0 0 0 0 0 0 0 0 0 0 0 0 0 0 0 0 0 0 0 0 0 0 
0 0 0 0 0 0 0 0 0 0 0 0 0 0 0 0 0 0 0 0 7 16 14 18 70 145 165 180 194 199 193 171 162 162 158 157 154 148 146 143 140 137 134 129 123 118 114 114 113 113 109 104 104 114 113 114 116 118 118 121 126 130 135 139 141 141 141 143 146 153 158 160 160 179 193 197 194 188 182 170 128 37 6 0 0 0 0 0 0 0 0 0 1 2 2 3 0 0 0 0 0 0 0 0 0 0 0 0 0 0 0 0 0 0 0 0 0 0 0 0 0 0 0 0 0 0 0 0 
0 0 0 0 0 0 0 0 0 0 0 0 0 0 0 0 0 0 0 6 15 13 19 79 147 164 179 193 198 189 166 157 159 153 152 150 142 139 138 134 130 126 120 113 112 111 112 114 115 110 110 104 105 112 117 118 119 119 118 117 117 118 120 125 128 132 135 138 143 141 143 149 153 157 173 187 198 194 189 180 168 120 29 3 0 0 0 0 0 0 0 0 1 2 2 3 0 0 0 0 0 0 0 0 0 0 0 0 0 0 0 0 0 0 0 0 0 0 0 0 0 0 0 0 0 0 0 0 
0 0 0 0 0 0 0 0 0 0 0 0 0 0 0 0 0 0 5 15 14 20 83 148 163 175 189 195 184 162 157 154 149 151 148 136 133 131 129 124 118 110 110 115 113 111 113 114 110 110 108 106 108 116 117 119 121 118 116 117 117 118 117 113 116 123 130 134 138 143 138 139 144 149 155 167 183 198 194 187 177 164 105 19 2 0 0 0 0 0 0 0 1 2 2 3 0 0 0 0 0 0 0 0 0 0 0 0 0 0 0 0 0 0 0 0 0 0 0 0 0 0 0 0 0 0 0 0 
0 0 0 0 0 0 0 0 0 0 0 0 0 0 0 0 0 2 14 13 18 80 144 159 172 187 196 182 161 154 152 145 148 146 133 126 124 126 119 115 113 115 118 115 109 105 106 106 106 101 96 101 106 114 115 115 118 119 119 122 123 119 119 118 113 111 120 131 135 134 138 134 140 140 148 155 162 178 198 192 185 172 154 81 11 0 0 0 0 0 0 0 1 2 2 3 0 0 0 0 0 0 0 0 0 0 0 0 0 0 0 0 0 0 0 0 0 0 0 0 0 0 0 0 0 0 0 0 
0 0 0 0 0 0 0 0 0 0 0 0 0 0 0 0 0 11 12 15 73 139 154 165 181 193 180 159 151 149 144 144 146 134 122 120 124 120 117 117 117 117 113 109 106 104 102 104 106 98 98 102 105 112 117 115 115 115 115 117 119 115 115 116 114 112 110 121 134 132 128 130 130 137 137 146 155 157 181 197 190 181 166 139 53 4 0 0 0 0 0 0 1 2 2 3 0 0 0 0 0 0 0 0 0 0 0 0 0 0 0 0 0 0 0 0 0 0 0 0 0 0 0 0 0 0 0 0 
0 0 0 0 0 0 0 0 0 0 0 0 0 0 0 0 6 13 14 60 130 148 162 179 191 181 158 150 146 141 141 140 128 121 121 122 125 122 120 118 116 109 107 106 106 107 109 109 107 105 104 106 107 111 111 112 116 115 113 107 106 109 111 112 112 111 109 112 122 132 124 125 126 127 135 137 144 150 152 186 196 188 176 158 114 25 1 0 0 0 0 0 1 2 2 3 0 0 0 0 0 0 0 0 0 0 0 0 0 0 0 0 0 0 0 0 0 0 0 0 0 0 0 0 0 0 0 0 
0 0 0 0 0 0 0 0 0 0 0 0 0 0 0 1 12 13 46 120 144 156 172 187 183 159 148 144 139 141 138 128 121 123 125 128 121 117 115 110 101 93 93 96 101 104 107 108 108 104 107 107 104 104 102 100 105 107 108 108 107 107 107 106 109 112 114 111 109 123 127 117 121 124 131 136 141 144 143 156 190 194 183 168 145 78 7 0 0 0 0 0 1 2 2 3 0 0 0 0 0 0 0 0 0 0 0 0 0 1 0 0 0 0 0 0 0 0 0 0 0 0 0 0 0 0 0 0 
0 0 0 0 0 0 0 0 0 0 0 0 0 0 0 7 11 26 100 134 150 165 182 183 163 147 140 139 138 139 132 122 123 121 127 116 112 113 106 94 88 91 98 103 104 104 106 103 99 100 102 102 100 100 100 101 101 101 102 107 110 111 109 101 101 108 115 116 110 110 122 122 116 120 123 136 138 138 142 140 166 190 186 175 158 120 30 1 0 0 0 0 1 2 2 3 0 0 0 0 0 0 0 0 0 0 0 0 0 1 0 0 0 0 0 0 0 0 0 0 0 0 0 0 0 0 0 0 
0 0 0 0 0 0 0 0 0 0 0 0 0 0 2 9 13 74 128 143 156 174 177 169 146 135 136 137 139 136 125 122 121 128 121 108 110 103 94 89 95 102 107 107 103 100 101 99 97 99 102 102 99 103 100 100 100 100 100 100 105 111 112 110 102 100 105 113 114 109 112 124 119 119 121 129 139 135 137 134 146 177 188 179 163 139 68 3 0 0 0 0 2 2 2 3 0 0 0 0 0 0 0 0 0 0 0 0 0 0 0 0 0 0 0 0 0 0 0 0 0 0 0 0 0 0 0 0 
0 0 0 0 0 0 0 0 0 0 0 0 0 0 6 9 39 111 134 149 167 173 165 155 136 129 137 138 138 129 124 119 125 122 111 103 103 99 95 96 103 107 104 100 99 100 100 98 96 101 108 108 103 105 99 103 104 102 99 97 96 101 107 110 110 103 97 101 110 113 108 115 123 117 119 128 138 136 134 130 134 159 179 180 169 150 104 17 0 0 0 0 1 2 2 3 0 0 0 0 0 0 0 0 0 0 0 0 0 0 0 0 0 0 0 0 0 0 0 0 0 0 0 0 0 0 0 0 
0 0 0 0 0 0 0 0 0 0 0 0 0 0 7 16 82 123 141 157 173 161 161 140 128 131 135 134 133 124 119 119 119 113 108 104 103 98 99 104 104 100 98 96 95 98 101 102 104 105 108 107 105 102 98 99 99 102 105 103 99 98 100 102 108 112 104 100 104 111 112 109 119 123 120 127 134 134 130 129 128 152 169 178 172 155 126 38 1 0 0 0 1 2 2 3 0 0 0 0 0 0 0 0 0 0 0 0 0 0 0 0 0 0 0 0 0 0 0 0 0 0 0 0 0 0 0 0 
0 0 0 0 0 0 0 0 0 0 0 0 0 3 7 38 107 133 145 165 167 158 151 130 124 133 129 134 127 118 121 122 115 110 107 107 100 94 102 103 97 95 96 98 100 104 106 105 106 105 102 102 106 99 96 91 93 97 101 102 100 99 98 98 99 110 110 104 103 106 110 110 113 121 122 127 134 132 125 126 126 145 161 177 173 160 136 59 2 0 0 0 1 2 2 3 0 0 0 0 0 0 0 0 0 0 0 0 0 0 0 0 0 0 0 0 0 0 0 0 0 0 0 0 0 0 0 0 
0 0 0 0 0 0 0 0 0 0 0 0 0 4 8 68 120 137 151 169 154 151 141 127 129 128 126 129 120 118 127 117 113 108 106 101 96 100 105 99 92 95 99 102 102 103 104 107 110 107 107 111 112 111 104 98 97 96 94 93 95 99 101 103 99 101 110 111 106 106 110 113 110 115 124 127 132 130 119 122 120 138 154 173 174 162 143 80 6 0 0 0 1 2 2 3 0 0 0 0 0 0 0 0 0 0 0 0 0 1 0 0 0 0 0 0 0 0 0 0 0 0 0 0 0 0 0 0 
0 0 0 0 0 0 0 0 0 0 0 0 0 6 17 92 126 141 161 162 142 141 133 125 124 122 122 125 112 122 123 114 115 107 104 99 103 105 100 95 95 92 93 99 106 108 108 112 114 112 112 116 119 117 111 105 104 104 107 106 101 98 101 106 105 99 104 110 111 108 112 117 113 109 121 126 126 129 116 120 118 135 147 171 174 162 146 97 10 0 0 0 1 2 2 3 0 0 0 0 0 0 0 0 0 0 0 0 0 1 0 0 0 0 0 0 0 0 0 0 0 0 0 0 0 0 0 0 
0 0 0 0 0 0 0 0 0 0 0 0 1 5 33 109 132 148 163 145 135 135 130 125 118 115 118 119 115 122 117 116 113 107 102 104 108 101 97 92 88 87 86 91 108 117 115 110 106 101 100 103 112 106 99 93 95 97 101 112 119 117 108 108 110 105 103 106 112 114 115 119 117 109 115 126 124 125 117 113 115 134 152 166 175 166 150 111 16 0 0 0 2 2 2 3 0 0 0 0 0 0 0 0 0 0 0 0 0 1 0 0 0 0 0 0 0 0 0 0 0 0 0 0 0 0 0 0 
0 0 0 0 0 0 0 0 0 0 0 0 2 6 49 116 135 153 154 135 131 130 133 122 112 113 114 120 117 115 116 114 108 108 108 111 105 96 91 84 85 88 94 101 107 115 106 95 93 93 95 100 104 99 96 95 96 97 98 105 106 112 109 102 104 108 106 109 115 120 122 119 118 114 111 122 117 121 114 108 109 129 148 160 177 169 154 124 26 1 0 0 2 2 2 3 0 0 0 0 0 0 0 0 0 0 0 0 0 1 0 0 0 0 0 0 0 0 0 0 0 0 0 0 0 0 0 0 
0 0 0 0 0 0 0 0 0 0 0 0 2 8 62 121 140 156 148 134 127 128 133 120 109 108 109 121 114 111 116 109 109 115 114 109 104 98 90 84 85 92 103 106 103 104 102 93 91 97 103 105 104 104 102 103 104 106 103 92 97 107 113 111 106 104 103 107 113 115 123 124 120 116 111 117 112 114 113 109 110 131 151 161 177 173 158 133 36 1 0 0 1 2 2 3 0 0 0 0 0 0 0 0 0 0 0 0 0 1 0 0 0 0 0 0 0 0 0 0 0 0 0 0 0 0 0 0 
0 0 0 0 0 0 0 0 0 0 0 0 3 8 71 126 144 155 145 138 128 129 132 121 112 104 111 118 107 109 113 108 116 115 112 112 106 101 100 89 91 95 104 108 102 93 93 94 97 102 108 107 104 104 102 103 101 105 104 92 92 101 109 107 101 108 112 115 117 118 119 121 125 121 112 116 108 108 112 107 109 135 152 162 178 176 163 144 49 2 0 0 2 2 2 3 0 0 0 0 0 0 0 0 0 0 0 0 0 0 0 0 0 0 0 0 0 0 0 0 0 0 0 0 0 0 0 0 
0 0 0 0 0 0 0 0 0 0 0 0 4 11 79 131 150 158 146 141 132 131 134 124 113 103 112 114 103 107 111 113 118 114 115 119 111 102 104 111 114 108 107 106 102 97 89 91 97 101 105 104 99 97 98 96 92 95 98 91 92 99 101 108 115 120 122 117 113 118 123 119 124 129 116 118 112 108 109 105 113 136 151 160 179 177 165 151 61 3 0 0 2 2 2 3 0 0 0 0 0 0 0 0 0 0 0 0 0 0 0 0 0 0 0 0 0 0 0 0 0 0 0 0 0 0 0 0 
0 0 0 0 0 0 0 0 0 0 0 0 3 11 84 135 153 162 148 144 136 133 136 125 113 105 111 113 101 103 119 118 116 117 123 118 108 98 100 105 103 101 107 105 99 95 92 86 95 100 104 103 100 92 92 83 79 82 88 88 91 98 108 116 113 109 104 97 92 96 105 112 123 132 130 126 121 111 108 109 120 134 148 157 176 181 169 154 76 5 0 0 2 2 2 3 0 0 0 0 0 0 0 0 0 0 0 0 0 0 0 0 0 0 0 0 0 0 0 0 0 0 0 0 0 0 0 0 
0 0 0 0 0 0 0 0 0 0 0 0 4 13 86 139 156 161 146 144 140 137 136 125 114 109 109 108 102 107 125 114 118 121 114 105 96 88 86 88 89 89 89 93 96 102 100 90 86 87 89 95 100 93 86 82 81 82 86 84 94 111 103 93 92 95 100 98 91 92 94 96 103 125 139 139 134 119 114 118 127 134 144 150 170 180 171 155 89 7 0 0 1 2 2 3 0 0 0 0 0 0 0 0 0 0 0 0 0 0 0 0 0 0 0 0 0 0 0 0 0 0 0 0 0 0 0 0 
0 0 0 0 0 0 0 0 0 0 0 0 6 13 91 141 158 159 148 143 139 137 140 134 123 118 113 106 107 118 125 117 122 109 100 93 89 87 86 88 86 84 80 82 86 90 96 100 87 90 92 93 97 97 90 88 86 86 83 88 105 94 88 90 94 99 104 102 97 96 96 93 95 110 137 146 146 131 122 126 129 131 137 143 159 180 174 158 101 10 0 0 2 2 2 3 0 0 0 0 0 0 0 0 0 0 0 0 0 0 0 0 0 0 0 0 0 0 0 0 0 0 0 0 0 0 0 0 
0 0 0 0 0 0 0 0 0 0 0 0 6 14 92 144 159 161 146 141 138 135 135 134 127 121 120 112 113 123 126 127 110 96 95 91 87 88 92 95 92 85 80 80 84 90 90 101 92 87 93 95 103 105 97 88 85 82 84 105 93 84 88 91 95 100 107 110 103 101 103 104 105 114 131 152 152 142 129 130 126 126 131 137 150 174 174 160 115 16 0 0 1 2 2 3 0 0 0 0 0 0 0 0 0 0 0 0 0 0 0 0 0 0 0 0 0 0 0 0 0 0 0 0 0 0 0 0 
0 0 0 0 0 0 0 0 0 0 0 0 7 15 94 144 161 162 142 136 135 133 130 128 125 125 123 121 130 126 129 120 97 92 91 92 95 95 94 92 90 88 85 82 82 85 93 101 103 98 105 106 116 119 119 97 90 86 90 104 82 82 81 85 91 96 105 109 103 102 105 105 110 123 129 140 148 144 136 130 126 121 126 130 142 165 174 159 125 24 0 0 1 2 2 3 0 0 0 0 0 0 0 0 0 0 0 0 0 0 0 0 0 0 0 0 0 0 0 0 0 0 0 0 0 0 0 0 
0 0 0 0 0 0 0 0 0 0 0 0 7 15 96 147 163 163 134 131 132 130 128 122 122 124 124 120 133 133 139 120 105 102 103 99 95 92 89 86 83 81 81 84 84 85 92 96 99 98 105 111 124 117 130 112 100 93 99 96 80 74 80 89 96 101 106 107 100 99 105 109 112 119 122 123 131 139 140 130 120 118 122 119 132 156 172 161 131 33 1 1 2 2 3 3 0 0 0 0 0 0 0 0 0 0 0 0 0 0 0 0 0 0 0 0 0 0 0 0 0 0 0 0 0 0 0 0 
0 0 0 0 0 0 0 0 0 0 0 0 8 16 98 149 164 164 131 131 129 125 124 117 117 116 121 122 130 131 132 121 115 112 106 102 101 95 88 84 83 83 84 83 85 87 87 92 94 102 106 114 112 107 118 119 106 103 103 91 75 76 87 95 98 98 100 103 99 98 105 111 110 110 119 116 120 133 138 132 116 113 115 112 120 146 171 161 135 43 1 0 2 3 3 3 0 0 0 0 0 0 0 0 0 0 0 0 0 0 0 0 0 0 0 0 0 0 0 0 0 0 0 0 0 0 0 0 
0 0 0 0 0 0 0 0 0 0 0 0 8 17 101 151 168 161 129 127 127 120 119 109 109 113 119 122 121 123 120 112 107 111 104 99 97 95 91 84 84 84 84 86 86 86 87 90 97 102 107 107 103 105 106 115 109 106 107 85 76 83 90 93 95 96 97 98 97 96 99 106 110 109 118 112 116 132 138 131 112 111 109 108 114 134 165 160 138 50 2 0 2 3 3 3 0 0 0 0 0 0 0 0 0 0 0 0 0 0 0 0 0 0 0 0 0 0 0 0 0 0 0 0 0 0 0 0 
0 0 0 0 0 0 0 0 0 0 0 0 8 17 101 151 168 156 121 121 119 112 111 102 102 106 115 125 116 114 115 112 100 102 98 93 91 93 90 84 81 85 87 88 86 85 89 94 101 107 111 110 102 105 103 113 109 112 110 84 83 84 86 86 86 90 96 95 94 95 100 104 106 110 113 108 113 130 133 128 114 109 106 103 106 123 151 158 140 56 2 0 2 3 3 3 0 0 0 0 0 0 0 0 0 0 0 0 0 0 0 0 0 0 0 0 0 0 0 0 0 0 0 0 0 0 0 0 
0 0 0 0 0 0 0 0 0 0 0 0 8 18 99 152 167 151 115 114 112 104 105 98 94 100 111 124 118 112 111 111 100 97 93 90 89 90 89 82 77 81 83 86 87 86 89 87 89 105 121 123 111 96 98 96 115 108 106 88 87 89 91 82 84 88 94 94 94 95 98 102 102 111 110 106 114 128 131 130 122 109 104 103 107 120 134 151 142 61 2 0 2 2 3 3 0 0 0 0 0 0 0 0 0 0 0 0 0 0 0 0 0 0 0 0 0 0 0 0 0 0 0 0 0 0 0 0 
0 0 0 0 0 0 0 0 0 0 0 0 7 17 97 150 166 143 114 109 107 99 103 99 94 98 114 122 115 110 110 110 100 94 92 90 89 90 88 84 80 81 85 88 85 88 92 87 82 99 115 120 103 93 91 81 101 117 92 92 87 87 85 86 88 90 93 91 92 94 98 100 101 110 106 107 116 130 134 129 125 109 103 102 106 118 130 149 142 62 3 0 2 2 2 3 0 0 0 0 0 0 0 0 0 0 0 0 0 0 0 0 0 0 0 0 0 0 0 0 0 0 0 0 0 0 0 0 
0 0 0 0 0 0 0 0 0 0 0 0 7 16 91 148 164 134 111 106 107 100 104 99 95 101 112 119 113 114 112 109 101 95 92 90 87 88 87 86 82 81 83 89 86 88 92 86 82 95 112 110 84 79 86 81 88 120 83 88 86 83 82 89 91 91 92 91 94 96 99 98 103 108 101 112 125 137 132 125 126 108 103 100 106 115 130 152 136 60 2 0 2 2 2 3 0 0 0 0 0 0 0 0 0 0 0 0 0 0 0 0 0 0 0 0 0 0 0 0 0 0 0 0 0 0 0 0 
0 0 0 0 0 0 0 0 0 0 0 0 6 15 84 147 163 131 109 105 105 100 103 100 95 102 111 115 110 117 120 112 101 98 93 89 90 89 90 87 85 85 80 78 78 81 86 85 88 96 101 85 79 79 87 78 79 109 102 88 82 80 81 89 89 89 92 94 96 97 100 99 104 104 96 112 130 131 127 122 125 105 103 100 104 113 130 150 130 55 2 0 2 2 2 3 0 0 0 0 0 0 0 0 0 0 0 0 0 0 0 0 0 0 0 0 0 0 0 0 0 0 0 0 0 0 0 0 
0 0 0 0 0 0 0 0 0 0 0 0 4 15 78 143 161 132 112 105 103 99 102 100 95 99 109 115 111 118 125 117 104 102 97 95 95 95 93 89 87 87 84 79 78 80 83 78 90 98 96 79 82 85 90 79 78 89 111 91 81 77 81 89 89 92 93 95 95 94 97 97 100 98 94 112 127 130 125 120 123 103 103 99 104 111 132 146 124 49 1 0 1 2 2 3 0 0 0 0 0 0 0 0 0 0 0 0 0 0 0 0 0 0 0 0 0 0 0 0 0 0 0 0 0 0 0 0 
0 0 0 0 0 0 0 0 0 0 0 0 2 15 71 137 158 137 114 103 103 99 99 102 96 94 107 114 114 118 125 115 104 102 100 96 96 95 92 90 90 87 82 79 76 79 82 80 94 97 86 80 81 89 94 80 77 76 105 102 96 84 81 89 90 95 92 90 91 92 96 96 96 94 93 112 123 129 124 120 122 102 102 98 102 109 136 142 116 43 1 0 1 2 2 3 0 0 0 0 0 0 0 0 0 0 0 0 0 0 0 0 0 0 0 0 0 0 0 0 0 0 0 0 0 0 0 0 
0 0 0 0 0 0 0 0 0 5 5 0 0 12 62 130 153 138 116 101 102 97 98 102 98 91 102 110 117 117 122 113 105 101 104 97 93 93 92 90 90 90 84 80 85 96 90 93 97 90 82 78 81 95 95 85 79 78 89 107 107 105 100 93 93 96 95 94 89 92 95 97 94 89 93 111 117 123 122 122 122 102 98 97 98 111 138 136 104 37 2 0 1 2 3 3 0 0 0 0 0 0 0 0 0 0 0 0 0 0 0 0 0 0 0 0 0 0 0 0 0 0 0 0 0 0 0 0 
0 0 0 0 0 0 0 0 0 3 10 3 0 9 52 122 149 137 115 102 96 99 97 100 98 89 107 110 121 112 118 114 104 103 102 97 91 93 92 90 97 96 91 88 93 94 101 97 97 89 84 79 83 91 90 85 85 80 84 109 120 120 106 97 94 92 93 94 93 88 86 90 95 89 99 112 120 123 123 127 126 104 96 96 97 111 137 131 96 32 1 0 1 2 2 3 0 0 0 0 0 0 0 0 0 0 0 0 0 0 0 0 0 0 0 0 0 0 0 0 0 0 0 0 0 0 0 0 
0 0 0 0 0 0 0 0 0 1 5 9 3 7 41 114 144 136 111 101 92 98 99 98 99 90 106 112 121 109 114 115 103 104 107 97 90 93 91 94 93 94 94 94 104 106 108 103 99 79 82 80 83 91 90 82 87 91 92 114 124 120 102 103 106 105 105 98 96 89 85 94 100 106 106 118 125 120 122 135 131 113 99 93 99 117 138 125 88 26 0 0 1 2 2 3 0 0 0 0 0 0 0 0 0 0 0 0 0 0 0 0 0 0 0 0 0 0 0 0 0 0 0 0 0 0 0 0 
0 0 0 0 0 0 0 0 0 1 4 9 4 7 31 100 140 139 108 102 95 99 101 97 97 92 108 111 120 116 117 116 109 100 108 102 94 91 95 96 97 102 100 102 97 97 99 112 101 78 75 81 80 98 92 83 83 85 93 115 132 118 105 101 106 121 137 127 120 117 117 125 128 132 134 133 120 115 121 136 134 124 102 94 106 125 135 113 81 17 1 0 2 9 6 3 0 0 0 0 0 0 0 0 0 0 0 0 0 0 0 0 0 0 0 0 0 0 0 0 0 0 0 0 0 0 0 0 
0 0 0 0 0 0 0 0 0 0 2 9 5 6 24 88 134 144 114 107 103 94 99 97 96 98 111 110 120 117 115 122 120 120 119 114 108 106 112 109 107 102 86 84 93 105 106 103 100 78 75 83 85 100 91 79 80 79 88 120 130 118 108 102 105 121 146 149 143 145 145 145 142 135 136 144 133 121 123 133 133 127 114 110 106 135 126 108 75 11 3 3 8 6 4 3 0 0 0 0 0 0 0 0 0 0 0 0 0 0 0 0 0 0 0 0 0 0 0 0 0 0 0 0 0 0 0 0 
0 0 0 0 0 0 0 0 0 0 1 7 7 7 19 79 128 149 131 109 105 90 94 99 99 110 111 114 116 120 121 125 114 118 126 129 126 114 111 105 101 96 92 96 94 93 98 101 103 85 79 87 85 101 91 80 77 82 92 125 130 116 105 106 107 125 140 145 142 147 139 133 131 124 135 137 138 135 138 134 133 131 117 127 138 136 111 105 65 8 2 2 4 4 2 3 0 0 0 0 0 0 0 0 0 0 0 0 0 0 0 0 0 0 0 0 0 0 0 0 0 0 0 0 0 0 0 0 
0 0 0 0 0 0 0 0 0 0 1 6 9 9 13 67 119 145 146 114 107 92 94 111 111 112 116 122 114 118 134 134 130 121 119 126 124 119 120 112 103 96 90 92 92 86 95 93 104 92 84 84 86 101 91 79 87 95 110 122 120 119 109 110 113 126 140 144 146 144 138 139 146 151 150 146 139 146 152 151 143 144 141 151 159 133 106 102 51 6 2 3 3 3 2 3 0 0 0 0 0 0 0 0 0 0 0 0 0 0 0 0 0 0 0 0 0 0 0 0 0 0 0 0 0 0 0 0 
0 0 0 0 0 0 0 0 0 0 0 6 11 10 13 54 112 140 149 128 111 109 113 115 123 123 122 134 123 115 137 148 146 147 146 140 141 139 130 117 102 94 99 95 90 88 96 108 109 89 91 97 82 101 95 88 88 100 111 115 120 109 108 110 120 133 144 143 149 154 151 150 157 148 138 136 134 142 152 164 166 167 167 171 176 134 124 99 32 6 3 2 3 2 3 3 0 0 0 0 0 0 0 0 0 0 0 0 0 0 0 0 0 0 0 0 0 0 0 0 0 0 0 0 0 0 0 0 
0 0 0 0 0 0 0 0 0 0 0 7 14 9 9 36 105 137 145 141 132 143 136 126 136 136 137 137 128 128 145 159 156 158 155 145 146 143 132 114 109 106 100 95 99 97 106 117 100 89 95 104 99 117 101 89 88 98 109 109 117 111 99 118 126 124 132 138 145 152 149 141 140 140 137 131 143 148 159 169 172 174 176 176 160 122 119 82 15 5 5 2 2 2 2 3 0 0 0 0 0 0 0 0 0 0 0 0 0 0 0 0 0 0 0 0 0 0 0 0 0 0 0 0 0 0 0 0 
0 0 0 0 0 0 0 0 0 0 0 4 12 8 7 13 60 123 141 144 147 165 170 155 150 151 137 134 135 131 145 159 161 156 153 144 140 144 139 113 104 108 111 102 101 97 105 116 105 95 103 107 106 120 121 98 87 93 101 106 106 101 106 114 121 114 117 133 131 126 117 125 129 131 139 142 148 150 154 161 166 167 168 158 138 119 116 91 16 5 6 5 1 3 3 4 0 0 0 0 0 0 0 0 0 0 0 0 0 0 0 0 0 0 0 0 0 0 0 0 0 0 0 0 0 0 0 0 
0 0 0 0 0 0 0 0 0 0 0 5 9 7 5 9 38 113 144 144 149 169 167 166 164 160 153 147 126 118 132 145 160 157 164 155 148 149 136 110 97 102 108 102 97 102 113 110 100 98 100 103 107 121 117 99 80 81 87 90 95 95 102 115 117 112 117 128 127 114 111 121 124 135 138 146 140 143 137 144 157 165 151 134 118 117 113 60 7 4 6 6 1 3 3 4 0 0 0 0 0 0 0 0 0 0 0 0 0 0 0 0 0 0 0 0 0 0 0 0 0 0 0 0 0 0 0 0 
0 0 0 0 0 0 0 0 0 0 0 5 7 6 5 9 22 90 139 138 145 155 159 144 162 166 155 147 132 127 127 137 152 152 156 161 152 144 128 120 107 99 103 103 95 90 104 100 94 94 93 92 85 106 116 103 73 77 86 88 99 110 110 108 102 99 114 125 125 122 127 127 126 139 146 146 138 146 135 139 147 151 128 115 119 121 106 31 5 4 5 6 2 3 3 4 0 0 0 0 0 0 0 0 0 0 0 0 0 0 0 0 0 0 0 0 0 0 0 0 0 0 0 0 0 0 0 0 
0 0 0 0 0 0 0 0 0 0 0 4 5 4 7 10 18 60 130 140 139 132 138 137 133 144 146 134 134 131 125 126 134 135 138 151 148 139 134 126 103 97 98 96 92 97 111 104 103 102 100 96 89 99 114 113 91 95 97 96 106 124 123 118 107 91 94 101 106 112 121 122 125 146 153 150 148 150 139 139 126 127 119 107 104 114 75 15 6 5 6 4 4 3 3 4 0 0 0 0 0 0 0 0 0 0 0 0 0 0 0 0 0 0 0 0 0 0 0 0 0 0 0 0 0 0 0 0 
0 0 0 0 0 0 0 0 0 0 1 3 7 4 8 11 15 33 110 131 131 126 136 143 136 134 124 119 128 145 142 122 113 115 129 135 142 137 137 112 98 88 99 101 101 104 124 110 120 115 113 107 96 95 120 123 107 104 104 106 109 121 121 125 122 98 84 84 100 109 114 125 138 142 140 148 154 154 154 144 135 130 113 86 94 107 42 10 6 4 6 2 2 4 3 4 0 0 0 0 0 0 0 0 0 0 0 0 0 0 0 0 0 0 0 0 0 0 0 0 0 0 0 0 0 0 0 0 
0 0 0 0 0 0 0 0 0 0 1 2 5 4 6 11 14 17 80 118 119 129 132 145 136 136 127 121 134 153 154 129 110 113 125 129 135 139 122 103 86 93 99 107 108 114 120 118 121 118 126 125 112 112 137 129 110 105 111 114 114 123 128 126 118 101 84 82 96 113 116 133 133 129 130 142 159 162 172 161 142 118 101 79 93 83 19 10 7 5 6 3 3 4 3 4 0 0 0 0 0 0 0 0 0 0 0 0 0 0 0 0 0 0 0 0 0 0 0 0 0 0 0 0 0 0 0 0 
0 0 0 0 0 0 0 0 0 0 1 2 4 3 2 6 13 14 47 116 126 118 133 148 151 138 132 135 145 152 153 128 107 109 115 116 118 114 99 97 89 102 108 119 127 127 126 125 132 132 134 138 149 153 150 137 136 141 130 129 135 140 138 129 125 106 88 90 99 116 117 118 124 121 130 141 162 165 175 164 134 105 91 87 99 55 11 11 7 6 6 4 3 3 3 4 0 0 0 0 0 0 0 0 0 0 0 0 0 0 0 0 0 0 0 0 0 0 0 0 0 0 0 0 0 0 0 0 
0 0 0 0 0 0 0 0 0 0 1 2 4 3 1 4 11 13 26 97 114 105 122 133 154 152 148 148 153 148 151 137 123 118 106 108 106 96 88 99 100 112 118 119 129 139 133 134 146 149 147 153 161 165 166 159 152 151 138 137 146 160 158 149 133 124 121 113 113 126 113 111 119 122 126 140 153 169 168 160 126 97 78 84 90 30 9 11 6 6 6 1 1 3 3 4 0 0 0 0 0 0 0 0 0 0 0 0 0 0 0 0 0 0 0 0 0 0 0 0 0 0 0 0 0 0 0 0 
0 0 0 0 0 0 0 0 0 0 1 2 5 2 1 5 10 12 16 66 115 111 108 123 141 155 157 155 147 145 149 142 133 124 114 110 112 105 99 105 132 129 125 120 137 146 145 142 145 140 145 146 143 142 146 144 143 140 133 136 141 154 162 158 142 138 139 133 137 118 101 100 110 120 119 138 146 170 160 140 131 111 97 100 78 19 9 9 5 4 6 1 0 3 3 4 0 0 0 0 0 0 0 0 0 0 0 0 0 0 0 0 0 0 0 0 0 0 0 0 0 0 0 0 0 0 0 0 
0 0 0 0 0 0 0 0 0 0 1 5 7 2 1 6 10 10 13 40 90 107 109 116 126 145 154 158 147 141 146 140 135 124 113 111 113 117 123 129 136 149 154 143 152 151 146 151 151 152 140 138 135 141 142 143 143 142 130 137 142 155 169 164 165 161 152 156 143 109 95 95 110 115 117 134 154 167 145 120 115 106 99 96 65 15 8 8 6 2 3 1 1 3 4 4 0 0 0 0 0 0 0 0 0 0 0 0 0 0 0 0 0 0 0 0 0 0 0 0 0 0 0 0 0 0 0 0 
0 0 0 0 0 0 0 0 0 0 1 5 12 10 4 5 7 9 12 27 80 108 117 105 111 132 154 156 152 137 138 141 131 118 107 105 107 111 117 126 134 152 167 175 171 161 159 156 153 154 147 148 148 146 143 143 145 142 128 132 135 150 161 165 163 155 150 159 149 112 90 95 107 119 139 148 154 160 145 121 91 83 89 91 57 15 7 6 5 2 2 2 1 3 4 4 0 0 0 0 0 0 0 0 0 0 0 0 0 0 0 0 0 0 0 0 0 0 0 0 0 0 0 0 0 0 0 0 
0 0 0 0 0 0 0 0 0 0 0 4 12 13 10 6 6 10 13 21 64 99 118 112 108 108 144 145 161 140 136 132 131 104 96 102 105 111 113 114 122 136 153 165 168 165 166 158 155 155 155 158 159 160 153 132 138 144 126 122 126 145 141 159 165 168 167 164 149 112 91 93 104 118 154 168 169 166 143 98 81 90 95 90 39 15 5 3 3 5 2 2 2 3 4 4 0 0 0 0 0 0 0 0 0 0 0 0 0 0 0 0 0 0 0 0 0 0 0 0 0 0 0 0 0 0 0 0 
0 0 0 0 0 0 0 0 0 0 0 3 11 10 9 8 9 12 16 16 33 85 117 113 100 112 133 144 159 141 139 128 130 105 89 95 105 108 106 107 113 134 156 158 160 159 151 145 148 150 159 168 164 166 146 116 117 133 130 120 127 144 145 148 176 174 172 160 139 116 97 98 106 129 162 159 165 152 136 87 76 82 81 63 19 14 7 5 5 5 7 6 6 6 5 4 0 0 0 0 0 0 0 0 0 0 0 0 0 0 0 0 0 0 0 0 0 0 0 0 0 0 0 0 0 0 0 0 
0 0 0 0 0 0 0 0 0 0 0 2 10 10 9 10 9 9 14 15 18 50 104 101 104 108 121 139 161 156 151 134 125 120 101 94 94 94 99 105 122 139 148 150 152 153 146 139 137 139 150 152 140 156 151 131 127 129 129 120 138 154 144 162 172 179 168 159 154 133 127 114 130 144 149 141 123 100 102 75 65 88 90 36 12 9 8 7 4 5 5 7 11 7 5 4 0 0 0 0 0 0 0 0 0 0 0 0 0 0 0 0 0 0 0 0 0 0 0 0 0 0 0 0 0 0 0 0 
0 0 0 0 0 0 0 0 0 0 0 0 9 11 6 7 6 5 10 15 20 28 68 96 86 85 105 139 148 160 161 143 127 123 112 101 98 101 113 131 140 153 171 160 161 167 167 163 162 166 166 154 151 164 167 161 152 151 154 155 160 161 171 188 174 181 160 166 169 161 151 145 137 139 122 100 91 84 91 74 94 95 53 20 10 2 1 3 5 4 5 5 8 5 2 4 0 0 0 0 0 0 0 0 0 0 0 0 0 0 0 0 0 0 0 0 0 0 0 0 0 0 0 0 0 0 0 0 
0 0 0 0 0 0 0 0 0 0 0 0 3 7 5 3 2 3 7 12 17 21 36 80 80 67 87 100 96 139 147 141 133 132 120 99 99 109 121 129 170 172 187 187 189 189 186 189 182 173 173 174 170 166 166 159 163 169 173 181 179 179 201 196 199 194 176 173 141 143 145 138 102 82 75 86 89 91 84 73 72 43 26 26 11 1 0 1 1 3 5 6 8 1 2 4 0 0 0 0 0 0 0 0 0 0 0 0 0 0 0 0 0 0 0 0 0 0 0 0 0 0 0 0 0 0 0 0 
0 0 0 0 0 0 0 0 0 0 0 0 0 3 3 2 1 0 1 7 14 19 21 47 81 85 60 56 60 76 99 107 123 127 124 120 108 131 148 165 173 168 170 168 176 183 176 181 178 171 165 167 171 164 158 155 163 170 166 176 173 190 189 179 172 176 162 178 159 143 134 106 83 78 70 82 87 85 69 48 41 42 36 24 14 0 0 0 0 1 2 7 8 1 2 4 0 0 0 0 0 0 0 0 0 0 0 0 0 0 0 0 0 0 0 0 0 0 0 0 0 0 0 0 0 0 0 0 
0 0 0 0 0 0 0 0 0 0 0 0 0 2 5 4 4 2 2 4 10 14 19 22 37 49 33 44 68 63 62 60 76 79 76 90 82 70 70 72 86 107 140 150 134 134 138 122 121 100 88 103 119 120 115 111 91 90 105 102 97 109 102 133 155 154 116 81 70 73 63 68 67 52 51 72 80 79 50 29 29 25 20 8 3 0 2 3 2 2 2 7 4 1 2 4 0 0 0 0 0 0 0 0 0 0 0 0 0 0 0 0 0 0 0 0 0 0 0 0 0 0 0 0 0 0 0 0 
0 0 0 0 0 0 0 0 0 0 0 0 0 0 3 1 3 3 2 1 6 10 12 16 22 22 22 34 69 66 58 64 56 59 53 67 71 59 62 64 77 78 76 80 93 96 78 68 68 80 63 76 95 95 94 94 72 63 77 74 80 100 86 74 75 91 85 104 115 93 64 64 60 48 56 73 83 79 47 28 27 25 16 7 3 1 2 2 2 2 3 4 1 0 2 4 0 0 0 0 0 0 0 0 0 0 0 0 0 0 0 0 0 0 0 0 0 0 0 0 0 0 0 0 0 0 0 0 
0 0 0 0 0 0 0 0 0 0 0 0 0 0 0 0 0 1 0 0 4 9 10 15 19 27 28 37 72 77 61 68 61 68 59 66 79 86 126 114 126 132 103 98 103 100 87 95 101 85 68 87 100 103 100 91 82 79 101 111 103 117 106 92 112 140 110 117 131 100 90 88 85 77 77 87 91 83 50 33 30 23 11 7 1 0 0 0 0 1 1 1 0 0 1 3 0 0 0 0 0 0 0 0 0 0 0 0 0 0 0 0 0 0 0 0 0 0 0 0 0 0 0 0 0 0 0 0 
0 0 0 0 0 0 0 0 0 0 0 0 0 0 0 0 0 0 0 0 0 4 4 7 15 28 33 47 81 95 86 87 81 91 90 98 100 123 114 142 148 162 154 138 136 149 150 158 144 124 112 112 119 123 121 126 121 118 121 139 137 143 138 137 144 162 146 140 115 125 104 97 87 84 81 79 74 70 45 33 25 14 8 7 0 0 0 0 0 0 0 0 0 0 0 2 0 0 0 0 0 0 0 0 0 0 0 0 0 0 0 0 0 0 0 0 0 0 0 0 0 0 0 0 0 0 0 0 
0 0 0 0 0 0 0 0 0 0 0 0 0 0 0 0 0 0 0 0 0 2 3 3 10 23 27 39 62 88 80 86 94 108 108 113 117 110 115 101 146 152 153 148 171 159 161 165 154 170 167 151 156 166 166 152 153 149 146 142 143 164 162 153 167 147 146 130 131 151 116 119 109 100 84 84 75 56 32 28 25 12 6 1 0 0 0 0 0 0 0 0 0 0 0 1 0 0 0 0 0 0 0 0 0 0 0 0 0 0 0 0 0 0 0 0 0 0 0 0 0 0 0 0 0 0 0 0 
0 0 0 0 0 0 0 0 0 0 0 0 0 0 0 0 0 0 0 0 0 0 2 3 8 16 27 36 58 81 75 76 71 74 57 64 85 94 101 106 124 125 112 101 116 111 134 149 146 140 141 143 148 144 147 137 142 137 132 131 139 148 134 139 127 147 154 126 138 148 118 70 44 54 67 84 82 52 26 22 14 7 6 2 0 0 0 0 0 0 0 1 1 4 5 6 0 0 0 0 0 0 0 0 0 0 0 0 0 0 0 0 0 0 0 0 0 0 0 0 0 0 0 0 0 0 0 0 
0 0 0 0 0 0 0 0 0 0 0 0 0 0 0 0 0 0 0 0 0 0 4 7 8 14 18 21 34 57 67 67 62 61 50 58 51 71 75 112 112 114 107 99 110 117 139 129 120 112 113 113 122 103 105 98 106 104 104 109 120 132 126 103 116 123 127 102 127 121 101 75 51 48 72 100 82 48 26 16 13 13 6 1 0 0 0 0 0 0 0 0 0 0 2 5 0 0 0 0 0 0 0 0 0 0 0 0 0 0 0 0 0 0 0 0 0 0 0 0 0 0 0 0 0 0 0 0 
0 0 0 0 0 0 0 0 0 0 0 0 0 0 0 0 0 0 0 0 0 0 2 7 8 13 18 20 26 48 64 71 73 66 53 52 49 57 84 102 96 97 98 99 113 130 127 118 114 112 105 89 97 95 95 93 109 116 113 108 109 119 104 87 75 104 120 127 117 103 88 73 55 52 81 108 86 50 25 19 17 11 6 1 0 0 0 0 0 0 0 0 0 0 2 5 0 0 0 0 0 0 0 0 0 0 0 0 0 0 0 0 0 0 0 0 0 0 0 0 0 0 0 0 0 0 0 0 
0 0 0 0 0 0 0 0 0 0 0 0 0 0 0 0 0 0 0 0 0 0 1 5 9 10 16 21 23 40 63 71 78 68 57 53 51 62 79 91 90 88 88 91 96 105 109 120 122 118 112 97 103 100 101 103 114 112 120 124 116 117 117 112 102 97 107 116 109 95 80 62 58 56 86 111 84 51 26 19 16 11 5 0 0 0 0 0 0 0 0 0 0 0 2 5 0 0 0 0 0 0 0 0 0 0 0 0 0 0 0 0 0 0 0 0 0 0 0 0 0 0 0 0 0 0 0 0 
0 0 0 0 0 0 0 0 0 0 0 0 0 0 0 0 0 0 0 0 0 0 0 3 6 9 13 19 22 30 51 65 77 72 65 64 55 56 55 65 76 77 81 89 93 104 110 119 138 124 106 100 99 95 92 92 103 100 111 125 124 137 132 119 103 93 96 103 110 101 76 61 73 67 88 110 79 50 27 18 15 10 4 0 0 0 0 0 0 0 0 0 0 0 2 5 0 0 0 0 0 0 0 0 0 0 0 0 0 0 0 0 0 0 0 0 0 0 0 0 0 0 0 0 0 0 0 0 
0 0 0 0 0 0 0 0 0 0 0 0 0 0 0 0 0 0 0 0 0 0 0 0 6 7 11 16 20 27 43 56 80 78 74 69 54 49 52 61 68 69 80 91 94 102 105 111 126 112 105 97 95 94 84 86 94 99 111 116 112 123 121 108 101 101 98 87 94 98 81 65 68 81 89 105 82 55 26 17 15 9 2 0 0 0 0 0 0 0 0 0 0 0 2 5 0 0 0 0 0 0 0 0 0 0 0 0 0 0 0 0 0 0 0 0 0 0 0 0 0 0 0 0 0 0 0 0 
0 0 0 0 0 0 0 0 0 0 0 0 0 0 0 0 0 0 0 0 0 0 0 0 2 5 9 13 18 25 43 53 78 76 79 70 57 51 55 59 64 63 84 104 100 104 100 103 102 103 110 100 92 94 94 89 96 103 110 104 108 110 113 96 103 104 107 86 73 74 67 64 66 88 95 101 75 43 20 16 15 8 1 0 0 0 0 0 0 0 0 0 0 0 1 5 0 0 0 0 0 0 0 0 0 0 0 0 0 0 0 0 0 0 0 0 0 0 0 0 0 0 0 0 0 0 0 0 
0 0 0 0 0 0 0 0 0 0 0 0 0 0 0 0 0 0 0 0 0 0 0 0 0 4 6 12 16 19 34 52 68 71 80 73 62 57 58 58 60 66 86 95 92 97 96 93 87 95 110 100 84 83 90 96 97 97 96 101 107 111 107 89 91 92 94 87 72 64 65 67 73 89 100 85 50 24 17 16 16 8 1 0 0 0 0 0 0 0 0 0 0 0 2 5 0 0 0 0 0 0 0 0 0 0 0 0 0 0 0 0 0 0 0 0 0 0 0 0 0 0 0 0 0 0 0 0 
0 0 0 0 0 0 0 0 0 0 0 0 0 0 0 0 0 0 0 0 0 0 0 0 0 3 4 9 14 18 21 33 40 45 68 77 63 65 60 56 53 65 70 80 89 97 91 89 87 94 113 101 90 88 91 91 94 94 96 93 93 103 99 82 88 88 83 75 75 61 64 74 78 90 95 45 19 17 18 18 16 8 1 0 0 0 0 0 0 0 0 0 0 0 1 5 0 0 0 0 0 0 0 0 0 0 0 0 0 0 0 0 0 0 0 0 0 0 0 0 0 0 0 0 0 0 0 0 
0 0 0 0 0 0 0 0 0 0 0 0 0 0 0 0 0 0 0 0 0 0 0 0 0 0 5 5 12 17 19 21 18 16 31 77 78 73 61 67 54 61 62 72 77 85 77 83 91 100 97 92 85 80 74 80 92 97 94 88 95 106 104 84 83 87 71 68 70 64 73 76 87 97 69 25 16 16 17 18 14 6 0 0 0 0 0 0 0 0 0 0 0 0 2 5 0 0 0 0 0 0 0 0 0 0 0 0 0 0 0 0 0 0 0 0 0 0 0 0 0 0 0 0 0 0 0 0 
0 0 0 0 0 0 0 0 0 0 0 0 0 0 0 0 0 0 0 0 0 0 0 0 0 0 1 5 8 13 18 19 18 17 14 38 72 73 68 72 67 67 61 73 79 75 70 82 102 105 88 89 94 92 85 82 94 97 92 87 92 107 111 90 82 85 82 77 73 74 81 83 84 78 36 21 15 16 18 17 12 6 1 0 0 0 0 0 0 0 0 0 0 0 1 4 0 0 0 0 0 0 0 0 0 0 0 0 0 0 0 0 0 0 0 0 0 0 0 0 0 0 0 0 0 0 0 0 
0 0 0 0 0 0 0 0 0 0 0 0 0 0 0 0 0 0 0 0 0 0 0 0 0 0 0 3 7 9 16 18 19 17 13 12 37 67 78 85 81 68 67 81 92 82 80 86 102 104 89 92 92 88 84 91 103 105 101 101 98 117 116 89 83 85 90 86 79 88 95 90 72 38 24 19 14 16 17 16 11 6 1 0 0 0 0 0 0 0 0 0 0 0 1 4 0 0 0 0 0 0 0 0 0 0 0 0 0 0 0 0 0 0 0 0 0 0 0 0 0 0 0 0 0 0 0 0 
0 0 0 0 0 0 0 0 0 0 0 0 0 0 0 0 0 0 0 0 0 0 0 0 0 0 0 3 5 7 11 16 18 17 12 12 18 34 62 83 82 78 78 92 104 93 85 85 102 108 95 90 94 89 87 101 105 100 99 100 90 105 116 97 86 89 101 102 86 88 93 71 37 25 22 17 15 17 16 15 10 5 1 0 0 0 0 0 0 0 0 0 0 0 1 4 0 0 0 0 0 0 0 0 0 0 0 0 0 0 0 0 0 0 0 0 0 0 0 0 0 0 0 0 0 0 0 0 
0 0 0 0 0 0 0 0 0 0 0 0 0 0 0 0 0 0 0 0 0 0 0 0 0 0 0 1 4 6 8 14 16 18 15 11 16 23 28 48 73 83 89 101 105 101 93 93 107 109 94 90 87 89 97 109 109 98 101 109 96 98 119 110 97 99 107 106 93 81 58 34 27 26 21 17 14 16 16 14 9 5 1 0 0 0 0 0 0 0 0 0 0 0 1 4 0 0 0 0 0 0 0 0 0 0 0 0 0 0 0 0 0 0 0 0 0 0 0 0 0 0 0 0 0 0 0 0 
0 0 0 0 0 0 0 0 0 0 0 0 0 0 0 0 0 0 0 0 0 0 0 0 0 0 0 0 1 8 7 12 15 16 15 12 12 21 25 27 39 62 81 96 106 104 101 102 111 104 99 94 92 91 93 102 105 101 103 107 108 99 113 116 106 102 108 101 79 51 30 28 27 24 21 17 14 15 16 13 9 5 1 0 0 0 0 0 0 0 0 0 0 0 1 4 0 0 0 0 0 0 0 0 0 0 0 0 0 0 0 0 0 0 0 0 0 0 0 0 0 0 0 0 0 0 0 0 
0 0 0 0 0 0 0 0 0 0 0 0 0 0 0 0 0 0 0 0 0 0 0 0 0 0 0 0 0 7 6 11 13 15 15 12 12 19 25 28 30 33 41 57 82 93 94 99 101 99 106 102 99 96 95 96 100 102 109 101 108 106 114 116 102 98 85 59 42 37 29 28 25 22 18 15 12 16 15 12 9 4 0 0 0 0 0 0 0 0 0 0 0 0 1 4 0 0 0 0 0 0 0 0 0 0 0 0 0 0 0 0 0 0 0 0 0 0 0 0 0 0 0 0 0 0 0 0 
0 0 0 0 0 0 0 0 0 0 0 0 0 0 0 0 0 0 0 0 0 0 0 0 0 0 0 0 0 4 6 9 13 14 14 12 11 19 25 28 30 33 32 38 48 66 81 85 87 93 99 102 100 100 100 101 101 103 110 104 107 101 107 98 86 71 51 45 40 37 28 28 25 23 18 13 14 15 15 12 9 3 0 0 0 0 0 0 0 0 0 0 0 0 1 4 0 0 0 0 0 0 0 0 0 0 0 0 0 0 0 0 0 0 0 0 0 0 0 0 0 0 0 0 0 0 0 0 
