P2
128 99
207
0 0 0 0 0 0 0 0 0 0 0 0 0 0 0 0 0 0 0 0 0 0 0 0 0 0 0 0 0 0 0 0 2 2 1 1 1 1 1 0 0 0 0 0 0 0 0 0 0 0 0 0 0 0 0 0 0 0 0 0 0 0 0 0 0 0 0 0 0 0 0 0 0 0 0 0 0 0 0 0 0 0 0 0 0 0 0 0 1 1 1 0 1 2 2 3 0 0 0 0 0 0 0 0 0 0 0 0 0 0 0 0 0 0 0 0 0 0 0 0 0 0 0 0 0 0 0 0 
0 0 0 0 0 0 0 0 0 0 0 0 0 0 0 0 0 0 0 0 0 0 0 0 0 0 0 0 0 0 0 0 1 2 1 0 1 2 1 0 0 0 0 0 0 0 0 0 0 0 0 0 0 0 0 0 0 0 0 0 0 0 0 0 0 0 0 0 0 0 0 0 0 0 0 0 0 0 0 0 0 0 0 0 0 0 0 0 1 1 1 0 1 2 2 3 0 0 0 0 0 0 0 0 0 0 0 0 0 0 0 0 0 0 0 0 0 0 0 0 0 0 0 0 0 0 0 0 
0 0 0 0 0 0 0 0 0 0 0 0 0 0 0 0 0 0 0 0 0 0 0 0 0 0 0 0 0 0 0 0 1 2 1 1 1 1 1 0 0 0 0 0 0 0 0 0 0 0 0 1 2 3 1 0 0 0 0 0 0 0 0 0 0 0 0 0 0 0 0 0 0 0 0 0 0 0 0 0 0 0 0 0 0 0 0 0 1 1 1 0 1 2 2 3 0 0 0 0 0 0 0 0 0 0 0 0 0 0 0 0 0 0 0 0 0 0 0 0 0 0 0 0 0 0 0 0 
0 0 0 0 0 0 0 0 0 0 0 0 0 0 0 0 0 0 0 0 0 0 0 0 0 0 0 0 0 0 0 0 1 2 1 0 1 1 1 0 0 0 0 1 7 13 17 18 18 19 21 24 28 28 25 21 19 15 15 12 4 0 0 0 0 0 0 0 0 0 0 0 0 0 0 0 0 0 0 0 0 0 0 0 0 0 0 0 1 1 1 0 1 2 2 3 0 0 0 0 0 0 0 0 0 0 0 0 0 0 0 0 0 0 0 0 0 0 0 0 0 0 0 0 0 0 0 0 
0 0 0 0 0 0 0 0 0 0 0 0 0 0 0 0 0 0 0 0 0 0 0 0 0 0 0 0 0 0 0 0 1 1 0 0 1 1 1 0 5 13 18 23 23 33 54 76 99 119 134 145 150 151 147 138 122 101 78 53 33 21 17 10 2 0 0 0 0 0 0 0 0 0 0 0 0 0 0 0 0 0 0 0 0 0 0 0 1 1 1 0 1 2 2 2 0 0 0 0 0 0 0 0 0 0 0 0 0 0 0 0 0 0 0 0 0 0 0 0 0 0 0 0 0 0 0 0 
0 0 0 0 0 0 0 0 0 0 0 0 0 0 0 0 0 0 0 0 0 0 0 0 0 0 0 0 0 0 0 0 1 1 0 0 1 2 10 17 23 25 36 67 109 146 167 177 182 185 186 184 183 183 184 184 183 180 175 165 147 116 78 43 23 16 10 1 0 0 0 0 0 0 0 0 0 0 0 0 0 0 0 0 0 0 0 0 1 1 1 0 1 2 2 3 0 0 0 0 0 0 0 0 0 0 0 0 0 0 0 0 0 0 0 0 0 0 0 0 0 0 0 0 0 0 0 0 
0 0 0 0 0 0 0 0 0 0 0 0 0 0 0 0 0 0 0 0 0 0 0 0 0 0 0 0 0 0 0 0 1 0 0 0 9 23 24 26 51 100 149 174 184 185 187 187 191 193 196 196 195 195 196 196 195 192 189 186 183 179 170 152 120 75 39 19 13 2 0 0 0 0 0 0 0 0 0 0 0 0 0 0 0 0 0 0 1 1 1 0 1 2 2 2 0 0 0 0 0 0 0 0 0 0 0 0 0 0 0 0 0 0 0 0 0 0 0 0 0 0 0 0 0 0 0 0 
0 0 0 0 0 0 0 0 0 0 0 0 0 0 0 0 0 0 0 0 0 0 0 0 0 0 0 0 0 0 0 0 1 0 8 24 26 27 62 122 165 180 185 187 190 193 193 186 179 176 180 187 186 174 172 184 195 199 197 193 192 190 187 184 180 168 145 99 49 23 14 2 0 0 0 0 0 0 0 0 0 0 0 0 0 0 0 0 1 1 1 0 1 2 2 3 0 0 0 0 0 0 0 0 0 0 0 0 0 0 0 0 0 0 0 0 0 0 0 0 0 0 0 0 0 0 0 0 
0 0 0 0 0 0 0 0 0 0 0 0 0 0 0 0 0 0 0 0 0 0 0 0 0 0 0 0 0 0 0 0 5 28 25 23 58 126 168 180 182 185 190 194 190 181 172 162 156 154 154 154 151 143 144 150 161 180 198 205 202 196 191 190 189 186 184 176 152 101 44 23 10 0 0 0 0 0 0 0 0 0 0 0 0 0 0 0 1 1 1 0 1 2 2 3 0 0 0 0 0 0 0 0 0 0 0 0 0 0 0 0 0 0 0 0 0 0 0 0 0 0 0 0 0 0 0 0 
0 0 0 0 0 0 0 0 0 0 0 0 0 0 0 0 0 0 0 0 0 0 0 0 0 0 0 0 0 0 0 23 26 21 41 110 166 179 181 184 189 194 189 174 161 159 153 143 136 134 138 145 146 142 145 148 149 149 163 181 200 206 204 201 195 191 189 186 184 176 145 79 30 19 2 0 0 0 0 0 0 0 0 0 0 0 0 0 1 1 1 0 1 2 2 3 0 0 0 0 0 0 0 0 0 0 0 0 0 0 0 0 0 0 0 0 0 0 0 0 0 0 0 0 0 0 0 0 
0 0 0 0 0 0 0 0 0 0 0 0 0 0 0 0 0 0 0 0 0 0 0 0 0 0 0 0 0 10 28 23 26 83 155 177 181 184 189 194 195 185 171 166 158 148 142 136 133 134 138 142 141 141 143 146 147 143 146 155 169 186 199 205 207 203 197 192 189 187 184 170 118 46 22 6 0 0 0 0 0 0 0 0 0 0 0 0 1 2 1 1 1 2 2 3 0 0 0 0 0 0 0 0 0 0 0 0 0 0 0 0 0 0 0 0 0 0 0 0 0 0 0 0 0 0 0 0 
0 0 0 0 0 0 0 0 0 0 0 0 0 0 0 0 0 0 0 0 0 0 0 0 0 0 0 0 22 25 19 48 130 173 178 183 189 193 196 194 180 168 159 154 150 149 146 142 138 133 126 129 126 124 135 140 143 144 145 150 158 169 183 194 202 206 205 202 197 192 191 187 180 147 67 24 11 0 0 0 0 0 0 0 0 0 0 0 1 2 1 0 1 2 2 3 0 0 0 0 0 0 0 0 0 0 0 0 0 0 0 0 0 0 0 0 0 0 0 0 0 0 0 0 0 0 0 0 
0 0 0 0 0 0 0 0 0 0 0 0 0 0 0 0 0 0 0 0 0 0 0 0 0 0 5 26 21 19 75 156 176 182 188 194 197 199 188 172 165 161 157 156 151 148 149 148 145 137 129 127 125 127 137 141 142 148 150 150 150 156 167 177 188 197 204 205 205 202 195 192 188 181 159 84 25 13 0 0 0 0 0 0 0 0 0 0 1 2 1 0 1 2 2 3 0 0 0 0 0 0 0 0 0 0 0 0 0 0 0 0 0 0 0 0 0 0 0 0 0 0 0 0 0 0 0 0 
0 0 0 0 0 0 0 0 0 0 0 0 0 0 0 0 0 0 0 0 0 0 0 0 0 10 25 18 26 100 164 177 186 193 197 201 197 179 169 164 164 160 152 147 144 144 145 146 137 132 126 127 124 124 127 137 146 146 146 149 152 154 158 163 170 178 188 198 203 205 204 198 191 186 180 164 93 27 13 0 0 0 0 0 0 0 0 0 1 1 1 1 1 2 2 3 0 0 0 0 0 0 0 0 0 0 0 0 0 0 0 0 0 0 0 0 0 0 0 0 0 0 0 0 0 0 0 0 
0 0 0 0 0 0 0 0 0 0 0 0 0 0 0 0 0 0 0 0 0 0 0 0 14 23 16 34 117 166 177 187 196 200 199 187 171 167 168 163 158 153 151 147 144 146 140 133 133 128 122 120 117 120 122 121 129 143 148 148 149 152 154 156 160 165 168 174 184 195 202 204 201 192 186 182 167 104 30 13 0 0 0 0 0 0 0 0 1 2 1 1 1 2 2 3 0 0 0 0 0 0 0 0 0 0 0 0 0 0 0 0 0 0 0 0 0 0 0 0 0 0 0 0 0 0 0 0 
0 0 0 0 0 0 0 0 0 0 0 0 0 0 0 0 0 0 0 0 0 0 3 19 20 14 44 127 165 179 189 198 200 191 175 166 167 167 162 157 152 147 145 142 140 131 122 119 113 111 111 110 108 110 114 114 114 117 126 135 136 137 144 154 159 158 160 162 164 173 184 196 201 200 192 186 181 170 115 36 12 0 0 0 0 0 0 0 1 2 1 0 1 2 2 3 0 0 0 0 0 0 0 0 0 0 0 0 0 0 0 0 0 0 0 0 0 0 0 0 0 0 0 0 0 0 0 0 
0 0 0 0 0 0 0 0 0 0 0 0 0 0 0 0 0 0 0 0 0 5 17 16 16 56 136 165 181 191 200 197 182 168 164 165 160 160 155 150 149 141 137 132 122 117 117 115 116 115 119 115 115 121 124 125 127 128 128 128 130 133 131 132 141 150 154 155 159 162 166 173 187 197 200 192 189 182 169 123 38 9 0 0 0 0 0 0 1 2 1 0 1 2 2 3 0 0 0 0 0 0 0 0 0 0 0 0 0 0 0 0 0 0 0 0 0 0 0 0 0 0 0 0 0 0 0 0 
0 0 0 0 0 0 0 0 0 0 0 0 0 0 0 0 0 0 0 0 6 16 14 18 69 145 164 181 193 200 192 170 161 163 163 155 150 145 145 143 140 140 139 128 121 117 113 114 113 111 111 111 110 116 114 112 115 121 122 125 124 125 129 135 133 133 138 148 148 149 153 156 166 179 192 197 192 189 181 170 128 37 6 0 0 0 0 0 1 1 1 0 1 2 2 3 0 0 0 0 0 0 0 0 0 0 0 0 0 0 0 0 0 0 0 0 0 0 0 0 0 0 0 0 0 0 0 0 
0 0 0 0 0 0 0 0 0 0 0 0 0 0 0 0 0 0 0 6 15 14 20 78 147 164 179 191 199 187 165 156 159 157 150 144 140 145 136 131 134 130 119 110 111 111 112 115 116 113 114 107 109 118 120 121 123 122 121 121 122 123 122 124 127 129 129 134 144 145 141 146 151 161 171 189 197 193 190 179 168 120 29 3 0 0 0 0 1 2 1 1 1 2 2 3 0 0 0 0 0 0 0 0 0 0 0 0 0 0 0 0 0 0 0 0 0 0 0 0 0 0 0 0 0 0 0 0 
0 0 0 0 0 0 0 0 0 0 0 0 0 0 0 0 0 0 4 15 14 20 83 148 162 176 190 197 182 163 157 154 152 149 142 137 140 131 128 129 120 110 111 115 114 112 115 118 117 116 112 109 113 124 122 121 124 124 123 124 124 125 124 122 119 119 127 130 134 145 141 139 142 147 156 165 185 198 195 187 176 164 105 19 2 0 0 0 1 2 1 1 1 2 2 3 0 0 0 0 0 0 0 0 0 0 0 0 0 0 0 0 0 0 0 0 0 0 0 0 0 0 0 0 0 0 0 0 
0 0 0 0 0 0 0 0 0 0 0 0 0 0 0 0 0 2 14 13 19 79 144 158 172 186 196 179 161 155 151 147 143 141 136 134 125 127 123 115 110 115 121 119 115 113 113 113 114 110 101 101 103 114 116 113 113 112 114 118 123 123 124 124 120 114 117 130 130 129 141 136 137 142 147 152 160 183 196 192 184 171 154 81 10 0 0 0 1 2 1 1 1 2 2 3 0 0 0 0 0 0 0 0 0 0 0 0 0 0 0 0 0 0 0 0 0 0 0 0 0 0 0 0 0 0 0 0 
0 0 0 0 0 0 0 0 0 0 0 0 0 0 0 0 0 11 12 16 72 138 153 166 181 193 179 159 155 148 145 139 141 138 130 123 125 122 114 113 117 120 118 115 113 110 105 103 105 98 96 97 97 104 108 109 111 108 108 108 108 107 112 116 115 112 114 119 129 128 126 135 128 133 141 148 151 157 184 195 191 181 166 138 52 4 0 0 1 1 1 1 1 2 2 3 0 0 0 0 0 0 0 0 0 0 0 0 0 0 0 0 0 0 0 0 0 0 0 0 0 0 0 0 0 0 0 0 
0 0 0 0 0 0 0 0 0 0 0 0 0 0 0 0 5 13 14 60 130 147 161 178 191 180 154 153 145 142 136 137 133 129 122 121 122 116 115 117 115 110 110 108 104 102 102 102 100 95 97 99 101 104 104 104 108 109 108 105 103 102 102 106 110 110 109 117 121 127 124 125 130 127 131 140 145 146 155 185 196 189 176 158 114 25 1 0 1 2 1 1 1 2 2 3 0 0 0 0 0 0 0 0 0 0 0 0 0 0 0 0 0 0 0 0 0 0 0 0 0 0 0 0 0 0 0 0 
0 0 0 0 0 0 0 0 0 0 0 0 0 0 0 1 12 13 46 119 143 157 171 188 183 154 150 142 140 136 133 129 126 128 124 121 113 111 111 109 106 102 99 99 100 102 105 107 105 101 109 110 108 106 106 106 109 109 108 109 109 109 107 103 103 111 111 108 116 120 122 119 124 127 128 132 146 142 142 158 190 193 183 168 145 78 6 0 1 2 1 1 1 2 2 3 0 0 0 0 0 0 0 0 0 0 0 0 0 0 0 0 0 0 0 0 0 0 0 0 0 0 0 0 0 0 0 0 
0 0 0 0 0 0 0 0 0 0 0 0 0 0 0 7 11 26 99 134 150 164 182 182 159 149 142 136 137 137 131 124 127 121 118 111 108 107 107 105 103 100 103 104 105 106 109 109 105 103 108 109 107 105 104 107 107 108 107 109 109 110 112 106 102 106 113 110 111 115 116 118 117 123 126 130 141 143 137 144 167 190 187 174 157 120 30 1 1 2 1 0 1 2 2 3 0 0 0 0 0 0 0 0 0 0 0 0 0 0 0 0 0 0 0 0 0 0 0 0 0 0 0 0 0 0 0 0 
0 0 0 0 0 0 0 0 0 0 0 0 0 0 2 9 13 73 126 142 157 173 177 165 147 139 133 136 136 135 127 126 120 118 111 103 106 109 111 107 105 105 105 107 105 104 106 103 101 103 106 106 103 106 101 100 100 101 100 101 104 110 112 112 105 101 103 111 107 109 112 118 117 120 124 128 135 141 135 136 146 176 186 179 163 139 67 4 1 2 1 1 2 2 2 3 0 0 0 0 0 0 0 0 0 0 0 0 0 0 0 0 0 0 0 0 0 0 0 0 0 0 0 0 0 0 0 0 
0 0 0 0 0 0 0 0 0 0 0 0 0 0 6 8 40 110 133 149 167 174 165 157 139 131 133 136 137 127 129 122 116 113 105 100 112 118 112 105 102 101 101 99 100 100 100 95 92 98 109 109 105 105 92 95 98 97 95 92 92 97 104 110 111 106 98 103 108 103 107 117 118 117 124 129 135 137 136 126 136 160 177 180 168 150 104 17 1 2 1 0 2 2 2 3 0 0 0 0 0 0 0 0 0 0 0 0 0 0 0 0 0 0 0 0 0 0 0 0 0 0 0 0 0 0 0 0 
0 0 0 0 0 0 0 0 0 0 0 0 0 0 7 16 82 123 142 156 173 162 158 145 129 129 132 137 129 128 123 111 109 112 107 113 119 110 101 100 99 96 95 93 92 94 95 98 101 104 111 114 114 107 95 96 100 101 99 96 93 93 94 98 110 116 106 99 105 108 104 109 120 116 123 128 132 135 135 124 126 150 168 177 172 155 126 39 3 2 1 1 1 2 2 3 0 0 0 0 0 0 0 0 0 0 0 0 0 0 0 0 0 0 0 0 0 0 0 0 0 0 0 0 0 0 0 0 
0 0 0 0 0 0 0 0 0 0 0 0 0 3 7 37 107 131 144 164 168 156 150 133 129 125 131 134 128 126 116 109 113 112 114 121 110 97 96 100 96 91 89 91 95 101 106 110 111 105 97 100 109 90 89 95 99 103 105 106 103 99 94 91 98 114 113 105 102 108 106 104 115 118 119 129 132 131 132 123 119 145 161 176 173 160 136 59 4 2 1 1 1 2 3 3 0 0 0 0 0 0 0 0 0 0 0 0 0 0 0 0 0 0 0 0 0 0 0 0 0 0 0 0 0 0 0 0 
0 0 0 0 0 0 0 0 0 0 0 0 0 4 8 67 119 135 150 169 154 148 142 125 126 121 129 128 125 122 113 111 117 114 119 112 100 96 101 98 91 88 91 100 106 108 108 104 101 96 90 88 97 89 90 90 87 88 92 99 105 109 106 98 92 100 112 113 105 105 110 108 111 115 120 127 133 123 126 125 116 138 157 172 174 161 142 79 7 2 2 1 2 2 3 3 0 0 0 0 0 0 0 0 0 0 0 0 0 0 0 0 0 0 0 0 0 0 0 0 0 0 0 0 0 0 0 0 
0 0 0 0 0 0 0 0 0 0 0 0 0 5 16 92 126 143 158 163 141 143 134 121 122 120 127 122 121 114 112 116 121 120 116 103 98 98 99 94 93 94 101 104 106 99 93 95 97 96 96 95 97 96 99 97 94 92 90 89 91 97 107 111 103 96 106 117 112 103 109 115 113 110 118 126 128 116 123 121 118 129 151 169 174 163 147 97 11 2 2 1 1 2 3 3 0 0 0 0 0 0 0 0 0 0 0 0 0 0 0 0 0 0 0 0 0 0 0 0 0 0 0 0 0 0 0 0 
0 0 0 0 0 0 0 0 0 0 0 0 1 6 32 109 130 148 161 145 131 137 132 121 116 120 120 120 118 110 113 121 126 122 106 100 103 96 95 94 103 111 107 96 90 91 96 99 101 103 104 102 104 102 104 101 100 100 99 100 95 92 93 107 113 108 105 111 118 113 107 114 119 114 114 126 124 116 117 116 119 128 152 168 175 167 149 112 18 2 2 1 2 2 2 3 0 0 0 0 0 0 0 0 0 0 0 0 0 0 0 0 0 0 0 0 0 0 0 0 0 0 0 0 0 0 0 0 
0 0 0 0 0 0 0 0 0 0 0 0 2 6 48 115 135 152 155 133 129 131 133 120 111 119 114 118 112 109 118 127 123 111 99 106 104 95 92 99 109 107 100 94 90 97 101 98 99 101 100 99 99 96 92 90 89 94 99 101 99 96 92 96 111 123 113 107 115 121 114 109 115 121 111 121 121 112 113 112 113 127 148 162 174 169 153 124 26 3 2 1 2 2 2 3 0 0 0 0 0 0 0 0 0 0 0 0 0 0 0 0 0 0 0 0 0 0 0 0 0 0 0 0 0 0 0 0 
0 0 0 0 0 0 0 0 0 0 0 0 2 7 62 120 139 155 150 131 126 130 134 117 111 112 114 115 109 107 123 126 116 107 105 108 104 101 102 106 104 100 99 101 98 95 99 97 96 95 98 101 96 95 92 90 89 91 90 96 109 108 105 100 102 108 110 107 109 117 119 111 108 121 116 114 117 106 113 113 113 128 149 163 175 173 158 134 37 3 1 1 2 2 3 3 0 0 0 0 0 0 0 0 0 0 0 0 0 0 0 0 0 0 0 0 0 0 0 0 0 0 0 0 0 0 0 0 
0 0 0 0 0 0 0 0 0 0 0 0 3 8 71 125 144 153 147 134 130 131 133 117 113 108 113 108 104 111 129 121 111 106 106 109 109 113 115 108 105 102 100 102 102 97 92 92 92 90 97 105 102 100 96 91 86 85 84 90 103 103 99 91 89 106 115 116 117 119 122 116 109 117 123 118 112 105 109 108 112 134 149 162 176 176 162 143 50 4 2 1 2 2 3 3 0 0 0 0 0 0 0 0 0 0 0 0 0 0 0 0 0 0 0 0 0 0 0 0 0 0 0 0 0 0 0 0 
0 0 0 0 0 0 0 0 0 0 0 0 4 11 79 130 150 157 146 139 131 130 132 120 113 108 109 103 102 114 128 115 107 108 109 114 120 118 118 118 115 113 105 98 98 103 98 90 82 87 98 103 106 104 99 91 85 81 81 88 99 99 97 96 100 110 116 118 118 123 127 122 116 117 120 126 115 109 105 107 115 137 148 160 177 177 165 150 62 5 1 1 2 3 3 3 0 0 0 0 0 0 0 0 0 0 0 0 0 0 0 0 0 0 0 0 0 0 0 0 0 0 0 0 0 0 0 0 
0 0 0 0 0 0 0 0 0 0 0 0 4 12 83 134 153 162 149 143 135 133 132 125 117 110 106 103 101 115 128 116 108 112 121 121 113 105 99 98 97 98 101 97 93 91 101 91 81 85 95 103 110 105 97 94 88 80 78 85 93 94 102 106 98 93 90 92 95 104 119 122 124 125 123 125 128 116 104 111 121 136 147 155 175 179 167 154 77 7 2 1 2 2 3 3 0 0 0 0 0 0 0 0 0 0 0 0 0 0 0 0 0 0 0 0 0 0 0 0 0 0 0 0 0 0 0 0 
0 0 0 0 0 0 0 0 0 0 0 0 5 13 87 139 155 162 145 144 139 139 135 129 122 112 107 97 100 119 129 114 114 125 118 110 99 87 84 88 88 81 79 86 90 100 101 97 84 87 97 103 108 105 98 102 95 84 81 81 90 103 101 96 95 92 95 95 91 95 107 114 111 115 131 133 135 129 109 118 124 136 141 149 170 180 171 155 89 8 2 1 2 2 3 3 0 0 0 0 0 0 0 0 0 0 0 0 0 0 0 0 0 0 0 0 0 0 0 0 0 0 0 0 0 0 0 0 
0 0 0 0 0 0 0 0 0 0 0 0 5 14 90 141 156 160 146 144 138 137 136 136 129 115 109 97 102 124 131 122 125 117 105 98 97 93 92 94 90 82 76 76 81 88 93 97 87 86 99 107 105 105 104 102 94 83 75 85 98 89 89 91 91 91 92 93 91 94 99 106 103 102 126 144 141 138 124 123 127 132 135 145 160 180 173 157 102 12 2 1 2 2 3 3 0 0 0 0 0 0 0 0 0 0 0 0 0 0 0 0 0 0 0 0 0 0 0 0 0 0 0 0 0 0 0 0 
0 0 0 0 0 0 0 0 0 0 0 0 7 14 92 144 157 162 144 142 136 136 131 136 133 120 115 109 109 130 134 133 114 102 97 91 89 89 90 89 85 81 77 80 84 88 89 98 92 91 100 107 108 109 109 100 88 76 78 92 87 83 85 86 90 91 94 98 96 97 104 111 112 110 122 147 147 139 133 127 124 126 128 137 151 173 173 160 115 17 2 1 2 2 3 3 0 0 0 0 0 0 0 0 0 0 0 0 0 0 0 0 0 0 0 0 0 0 0 0 0 0 0 0 0 0 0 0 
0 0 0 0 0 0 0 0 0 0 0 0 7 14 94 146 161 162 139 138 133 134 126 130 132 123 116 118 129 134 136 123 101 97 88 87 90 90 87 83 81 79 78 77 84 87 94 99 101 97 107 118 119 113 118 108 96 84 80 94 79 75 79 85 92 95 98 102 101 102 106 110 114 122 126 133 141 137 139 129 121 121 123 130 141 165 174 160 126 26 2 1 2 3 3 3 0 0 0 0 0 0 0 0 0 0 0 0 0 0 0 0 0 0 0 0 0 0 0 0 0 0 0 0 0 0 0 0 
0 0 0 0 0 0 0 0 0 0 0 0 7 15 96 147 162 164 130 132 131 131 125 127 128 127 118 114 132 142 143 119 107 102 95 94 93 90 84 81 80 79 80 83 84 89 96 98 94 93 102 116 121 115 120 112 102 88 91 93 73 70 79 93 98 99 98 100 98 97 104 111 116 116 118 122 128 138 143 131 120 120 120 121 132 155 172 161 131 35 3 1 2 2 3 3 0 0 0 0 0 0 0 0 0 0 0 0 0 0 0 0 0 0 0 0 0 0 0 0 0 0 0 0 0 0 0 0 
0 0 0 0 0 0 0 0 0 0 0 0 8 16 98 148 163 165 128 132 130 129 120 122 120 120 115 116 133 138 135 118 116 110 101 101 100 92 84 81 82 86 88 86 88 88 92 98 93 94 104 113 113 110 116 115 105 95 97 87 71 73 84 90 93 91 93 98 96 96 103 113 113 109 117 118 121 137 139 130 118 115 112 113 122 145 171 160 134 44 3 1 2 3 3 3 0 0 0 0 0 0 0 0 0 0 0 0 0 0 0 0 0 0 0 0 0 0 0 0 0 0 0 0 0 0 0 0 
0 0 0 0 0 0 0 0 0 0 0 0 8 17 101 150 166 162 127 131 127 123 113 114 115 115 114 116 125 129 124 110 108 106 99 98 96 89 87 80 77 79 87 94 91 88 87 92 94 92 105 102 98 110 111 116 115 104 95 82 74 77 83 90 92 91 89 92 96 95 100 111 112 103 115 113 119 137 138 125 115 110 106 110 113 133 166 160 138 52 4 1 2 3 3 4 0 0 0 0 0 0 0 0 0 0 0 0 0 0 0 0 0 0 0 0 0 0 0 0 0 0 0 0 0 0 0 0 
0 0 0 0 0 0 0 0 0 0 0 0 8 17 101 151 166 157 121 123 120 115 103 107 108 110 113 122 118 121 118 108 100 99 93 94 91 87 85 77 76 80 86 89 88 89 87 87 89 91 105 103 101 104 104 115 113 107 99 83 76 78 84 88 86 89 89 90 93 96 102 109 108 101 108 110 117 134 131 123 119 108 101 105 105 121 152 157 141 58 4 2 2 3 3 3 0 0 0 0 0 0 0 0 0 0 0 0 0 0 0 0 0 0 0 0 0 0 0 0 0 0 0 0 0 0 0 0 
0 0 0 0 0 0 0 0 0 0 0 0 8 17 98 151 167 152 116 113 112 109 95 101 104 100 109 123 116 118 117 106 99 96 90 91 90 85 82 75 75 81 85 90 86 84 88 86 85 95 113 117 107 95 97 95 115 105 96 85 83 83 84 80 82 87 87 89 94 95 101 107 103 100 107 107 116 131 126 128 128 108 101 106 107 118 134 150 141 63 4 1 2 3 3 3 0 0 0 0 0 0 0 0 0 0 0 0 0 0 0 0 0 0 0 0 0 0 0 0 0 0 0 0 0 0 0 0 
0 0 0 0 0 0 0 0 0 0 0 0 8 17 97 150 166 143 115 109 105 104 95 102 101 95 109 120 112 114 114 105 101 95 91 92 91 88 84 78 78 84 93 93 88 87 90 87 79 93 110 117 97 89 95 87 109 118 91 89 84 81 80 82 86 88 87 87 92 94 100 104 96 97 107 109 121 137 133 135 131 108 101 104 108 118 129 149 141 64 4 1 2 2 3 3 0 0 0 0 0 0 0 0 0 0 0 0 0 0 0 0 0 0 0 0 0 0 0 0 0 0 0 0 0 0 0 0 
0 0 0 0 0 0 0 0 0 0 0 0 7 17 92 147 164 135 116 104 106 105 95 100 102 96 108 116 109 110 112 108 101 98 93 93 91 90 86 81 80 82 86 86 87 87 90 84 82 100 112 102 80 75 86 78 87 124 88 89 82 77 78 89 93 93 88 88 93 95 99 100 95 98 107 113 133 143 133 131 130 109 101 101 108 115 129 152 136 61 4 1 2 3 3 3 0 0 0 0 0 0 0 0 0 0 0 0 0 0 0 0 0 0 0 0 0 0 0 0 0 0 0 0 0 0 0 0 
0 0 0 0 0 0 0 0 0 0 0 0 6 15 83 146 162 130 113 102 105 103 95 98 101 99 106 115 106 108 116 109 98 103 94 90 92 92 89 82 80 84 82 80 78 81 85 80 85 98 103 84 80 77 87 76 80 114 106 87 82 74 77 91 93 89 87 90 95 96 96 96 96 100 103 114 139 136 129 130 129 107 102 99 106 113 130 150 130 57 4 1 2 2 3 3 0 0 0 0 0 0 0 0 0 0 0 0 0 0 0 0 0 0 0 0 0 0 0 0 0 0 0 0 0 0 0 0 
0 0 0 0 0 0 0 0 0 0 0 0 4 15 77 142 160 132 115 104 102 103 97 96 97 98 103 117 103 106 114 113 99 103 95 91 93 93 90 85 83 89 84 79 78 79 81 72 81 100 100 82 79 81 92 81 78 91 115 91 79 72 77 92 92 92 89 92 93 93 93 94 95 99 101 116 134 127 127 130 128 107 103 99 103 110 131 146 124 51 3 1 1 2 3 3 0 0 0 0 0 0 0 0 0 0 0 0 0 0 0 0 0 0 0 0 0 0 0 0 0 0 0 0 0 0 0 0 
0 0 0 0 0 0 0 0 0 0 0 0 2 15 71 138 157 136 115 104 99 101 98 99 94 96 100 119 104 107 116 113 99 100 97 90 93 95 89 87 89 90 85 80 77 77 75 72 85 103 86 79 76 86 98 87 80 79 108 106 94 81 78 91 94 92 89 89 90 92 90 92 93 98 99 115 128 120 124 130 124 105 104 99 100 109 134 142 116 45 4 1 1 2 2 3 0 0 0 0 0 0 0 0 0 0 0 0 0 0 0 0 0 0 0 0 0 0 0 0 0 0 0 0 0 0 0 0 
0 0 0 0 0 0 0 0 0 5 5 0 0 12 62 130 152 138 115 105 97 101 98 100 94 93 99 117 107 112 117 110 99 98 98 92 92 93 88 88 91 94 88 81 85 94 90 80 95 95 83 77 76 90 92 86 85 81 91 110 110 107 98 97 99 96 95 91 90 92 88 89 95 97 99 116 119 110 120 133 122 103 102 96 97 109 136 135 105 39 3 1 1 2 3 3 0 0 0 0 0 0 0 0 0 0 0 0 0 0 0 0 0 0 0 0 0 0 0 0 0 0 0 0 0 0 0 0 
0 0 0 0 0 0 0 0 0 3 9 3 1 9 51 122 148 137 113 105 94 98 102 99 93 90 100 118 112 113 119 110 98 96 94 96 90 90 85 88 100 101 96 89 93 97 96 85 103 87 88 84 80 91 92 87 88 86 93 117 114 116 118 102 95 91 91 94 94 88 82 88 99 91 102 123 116 122 127 129 126 107 97 94 97 109 137 130 96 34 3 1 1 2 3 3 0 0 0 0 0 0 0 0 0 0 0 0 0 0 0 0 0 0 0 0 0 0 0 0 0 0 0 0 0 0 0 0 
0 0 0 0 0 0 0 0 0 1 5 9 3 8 41 113 143 137 109 103 93 93 103 102 97 90 102 116 118 111 119 116 100 97 96 93 89 88 87 93 99 99 100 99 106 107 100 95 107 82 88 86 85 98 91 83 90 91 102 123 119 112 107 116 114 107 102 97 99 93 87 93 99 97 107 125 127 121 126 127 133 117 94 92 99 115 138 124 88 28 2 1 1 2 3 3 0 0 0 0 0 0 0 0 0 0 0 0 0 0 0 0 0 0 0 0 0 0 0 0 0 0 0 0 0 0 0 0 
0 0 0 0 0 0 0 0 0 0 4 9 4 8 31 99 140 139 110 102 99 95 100 102 100 91 104 114 117 117 127 123 112 100 98 91 90 91 95 102 105 107 111 113 101 103 91 105 116 87 91 90 89 107 95 86 86 85 88 120 134 114 102 114 119 127 136 130 125 121 123 117 121 125 129 138 129 124 126 133 136 128 100 96 103 125 134 113 83 19 3 1 2 9 6 3 0 0 0 0 0 0 0 0 0 0 0 0 0 0 0 0 0 0 0 0 0 0 0 0 0 0 0 0 0 0 0 0 
0 0 0 0 0 0 0 0 0 0 3 10 5 6 25 89 135 143 116 105 105 92 93 103 100 96 105 111 117 117 121 121 122 124 116 107 109 115 120 114 115 112 98 93 104 100 97 107 110 85 90 94 95 108 97 82 81 78 87 125 133 107 98 100 105 118 137 139 134 139 144 141 136 129 127 131 131 133 127 135 138 126 114 110 104 135 127 109 76 13 5 4 8 6 4 3 0 0 0 0 0 0 0 0 0 0 0 0 0 0 0 0 0 0 0 0 0 0 0 0 0 0 0 0 0 0 0 0 
0 0 0 0 0 0 0 0 0 0 1 7 6 7 19 78 127 148 133 109 104 93 90 100 107 107 108 111 119 118 112 123 114 116 121 128 128 122 119 112 109 106 102 102 103 97 87 97 110 90 90 97 94 109 95 79 82 83 91 122 125 110 103 105 106 116 132 136 136 143 137 135 139 126 129 122 132 145 136 128 136 127 126 125 139 135 111 104 66 10 4 3 4 4 2 3 0 0 0 0 0 0 0 0 0 0 0 0 0 0 0 0 0 0 0 0 0 0 0 0 0 0 0 0 0 0 0 0 
0 0 0 0 0 0 0 0 0 0 1 5 8 9 12 66 118 145 146 114 105 98 93 108 121 115 112 119 118 119 122 133 131 123 119 123 122 122 124 122 113 107 98 86 86 87 90 98 112 106 87 83 90 102 96 81 82 95 98 104 113 113 115 116 117 123 135 134 133 138 131 137 141 143 139 132 142 153 157 151 146 143 146 149 163 132 107 102 52 7 4 4 3 4 3 3 0 0 0 0 0 0 0 0 0 0 0 0 0 0 0 0 0 0 0 0 0 0 0 0 0 0 0 0 0 0 0 0 
0 0 0 0 0 0 0 0 0 0 0 4 10 10 12 54 110 140 149 130 111 111 112 116 121 124 122 127 122 117 130 132 146 152 148 137 138 136 129 113 102 96 91 80 77 75 86 101 110 93 90 89 86 109 95 84 85 99 104 106 114 109 118 122 120 131 148 146 153 153 142 151 149 137 131 136 146 150 160 166 165 171 164 168 176 135 122 99 33 8 6 5 3 3 3 4 0 0 0 0 0 0 0 0 0 0 0 0 0 0 0 0 0 0 0 0 0 0 0 0 0 0 0 0 0 0 0 0 
0 0 0 0 0 0 0 0 0 0 0 5 13 9 8 35 104 137 146 142 134 141 131 133 132 136 138 133 131 129 137 150 157 162 161 150 147 141 130 114 106 98 96 91 86 81 104 109 101 86 83 96 93 115 98 88 88 95 104 107 114 114 117 119 115 119 131 132 144 149 139 145 139 128 133 130 136 142 155 168 167 175 177 172 160 122 119 82 17 8 6 3 3 2 3 4 0 0 0 0 0 0 0 0 0 0 0 0 0 0 0 0 0 0 0 0 0 0 0 0 0 0 0 0 0 0 0 0 
0 0 0 0 0 0 0 0 0 0 0 4 9 8 9 13 59 123 140 144 147 165 170 153 151 147 142 131 135 142 148 150 151 154 163 163 151 145 130 111 105 105 105 106 101 98 111 114 103 89 87 97 98 111 117 97 90 93 99 109 108 101 109 116 118 119 118 120 126 127 124 131 128 117 128 135 129 139 146 156 165 169 163 160 140 119 115 90 18 6 7 5 2 3 3 4 0 0 0 0 0 0 0 0 0 0 0 0 0 0 0 0 0 0 0 0 0 0 0 0 0 0 0 0 0 0 0 0 
0 0 0 0 0 0 0 0 0 0 0 5 9 6 7 10 37 111 144 143 150 166 167 158 159 156 148 145 136 133 142 144 153 152 151 155 148 149 135 111 102 106 104 101 98 104 116 108 102 94 92 98 100 114 114 96 88 87 87 96 101 94 97 115 118 112 117 120 121 119 130 125 114 115 126 135 129 136 136 147 151 168 154 133 116 116 112 61 8 5 7 7 2 3 3 4 0 0 0 0 0 0 0 0 0 0 0 0 0 0 0 0 0 0 0 0 0 0 0 0 0 0 0 0 0 0 0 0 
0 0 0 0 0 0 0 0 0 0 0 5 6 4 6 9 22 89 139 139 145 156 155 140 156 160 160 148 141 134 131 125 140 155 150 148 141 143 135 117 108 102 103 104 95 97 109 94 97 95 93 92 83 101 109 100 88 86 88 90 102 113 113 111 98 97 114 119 122 133 137 123 124 133 146 145 135 134 133 143 144 151 133 118 121 125 106 31 7 6 6 8 3 3 3 4 0 0 0 0 0 0 0 0 0 0 0 0 0 0 0 0 0 0 0 0 0 0 0 0 0 0 0 0 0 0 0 0 
0 0 0 0 0 0 0 0 0 0 0 4 5 4 5 8 17 60 130 138 136 141 152 153 147 154 154 149 144 144 140 130 131 130 135 140 137 134 128 118 103 99 101 101 100 105 118 95 105 116 111 99 90 98 118 119 95 91 92 95 108 117 119 125 105 89 93 98 102 112 126 125 128 139 148 153 153 136 131 141 135 136 128 112 106 115 74 15 8 6 8 5 4 3 3 4 0 0 0 0 0 0 0 0 0 0 0 0 0 0 0 0 0 0 0 0 0 0 0 0 0 0 0 0 0 0 0 0 
0 0 0 0 0 0 0 0 0 0 1 3 7 5 5 9 15 34 111 132 127 130 145 153 143 135 135 139 142 150 161 141 118 118 130 137 134 123 119 107 93 92 99 110 108 114 129 107 116 121 120 115 107 110 128 123 109 105 104 106 106 116 116 126 118 97 87 86 96 103 123 138 136 133 142 155 154 146 144 143 139 136 122 90 100 107 42 9 8 7 9 4 4 4 3 4 0 0 0 0 0 0 0 0 0 0 0 0 0 0 0 0 0 0 0 0 0 0 0 0 0 0 0 0 0 0 0 0 
0 0 0 0 0 0 0 0 0 0 1 2 5 4 5 11 16 18 79 118 116 127 138 148 137 130 139 138 135 148 155 148 126 109 126 144 138 126 107 91 80 93 101 111 112 116 127 122 118 119 129 132 118 111 133 130 117 109 111 116 108 119 120 125 116 107 86 83 94 113 122 141 133 122 131 146 153 151 170 156 140 125 104 86 97 83 22 13 7 8 9 5 5 4 3 4 0 0 0 0 0 0 0 0 0 0 0 0 0 0 0 0 0 0 0 0 0 0 0 0 0 0 0 0 0 0 0 0 
0 0 0 0 0 0 0 0 0 0 1 2 4 3 3 7 13 12 47 116 127 117 135 150 149 139 142 138 142 144 152 141 125 113 114 125 128 114 105 94 87 101 104 106 110 121 123 122 121 132 140 141 141 145 147 135 130 131 131 126 122 137 140 135 123 105 83 88 105 121 117 112 128 119 126 140 153 168 173 164 127 108 92 91 100 55 12 14 8 7 8 5 3 3 3 4 0 0 0 0 0 0 0 0 0 0 0 0 0 0 0 0 0 0 0 0 0 0 0 0 0 0 0 0 0 0 0 0 
0 0 0 0 0 0 0 0 0 0 1 2 4 3 2 6 11 12 26 97 117 105 121 134 158 152 147 145 147 147 153 144 127 124 112 116 110 97 92 104 105 108 106 110 125 142 141 139 143 148 152 152 160 167 169 162 155 150 149 148 144 152 159 150 131 119 115 115 123 123 108 110 128 124 117 138 152 175 166 157 124 96 83 86 89 29 10 13 8 6 6 3 2 3 3 5 0 0 0 0 0 0 0 0 0 0 0 0 0 0 0 0 0 0 0 0 0 0 0 0 0 0 0 0 0 0 0 0 
0 0 0 0 0 0 0 0 0 0 1 2 5 2 0 5 10 12 15 67 114 108 104 126 148 158 159 155 145 136 147 145 128 125 120 120 111 100 100 110 133 128 119 119 134 147 150 149 151 145 137 136 138 143 150 154 148 140 135 138 143 158 165 162 147 144 144 136 142 116 100 103 119 123 107 135 152 174 153 144 129 108 96 97 77 17 8 10 8 6 6 2 2 3 4 4 0 0 0 0 0 0 0 0 0 0 0 0 0 0 0 0 0 0 0 0 0 0 0 0 0 0 0 0 0 0 0 0 
0 0 0 0 0 0 0 0 0 0 1 5 6 2 0 5 9 10 13 39 91 104 103 116 130 147 162 164 143 140 140 146 130 125 119 115 112 115 119 123 133 151 151 145 155 159 158 164 153 145 140 147 143 147 146 151 149 146 142 142 141 152 162 165 171 166 152 147 140 110 96 100 107 120 122 135 158 169 145 128 114 100 100 96 66 16 7 8 7 5 6 3 2 4 4 5 0 0 0 0 0 0 0 0 0 0 0 0 0 0 0 0 0 0 0 0 0 0 0 0 0 0 0 0 0 0 0 0 
0 0 0 0 0 0 0 0 0 0 1 5 12 10 3 5 8 9 11 27 82 109 113 106 112 132 154 161 146 140 139 137 124 119 110 112 108 110 118 124 131 145 157 159 160 161 161 155 142 137 140 154 158 160 154 142 147 152 138 133 134 146 154 160 172 162 149 144 135 106 87 93 108 124 144 152 158 164 150 124 98 81 92 91 57 15 7 5 6 5 5 4 3 4 4 5 0 0 0 0 0 0 0 0 0 0 0 0 0 0 0 0 0 0 0 0 0 0 0 0 0 0 0 0 0 0 0 0 
0 0 0 0 0 0 0 0 0 0 0 4 12 12 10 6 7 11 13 21 64 99 113 114 106 105 133 143 153 137 130 131 124 111 100 102 107 113 114 114 123 138 157 156 159 157 164 154 145 144 154 164 162 164 156 134 138 145 136 123 134 140 142 163 173 163 159 152 137 104 87 92 106 118 153 171 175 173 147 100 88 87 97 90 40 15 6 4 6 7 5 4 3 4 4 5 0 0 0 0 0 0 0 0 0 0 0 0 0 0 0 0 0 0 0 0 0 0 0 0 0 0 0 0 0 0 0 0 
0 0 0 0 0 0 0 0 0 0 0 3 11 11 9 8 8 13 16 15 33 85 113 117 101 112 130 140 157 144 133 125 129 112 91 96 101 109 110 107 112 140 164 162 153 157 159 147 143 151 157 166 160 157 139 119 119 121 127 123 134 146 146 170 185 174 161 147 127 105 94 95 105 131 159 162 168 159 141 89 72 74 78 63 20 15 9 5 5 7 7 8 7 6 5 5 0 0 0 0 0 0 0 0 0 0 0 0 0 0 0 0 0 0 0 0 0 0 0 0 0 0 0 0 0 0 0 0 
0 0 0 0 0 0 0 0 0 0 0 2 11 10 9 9 9 9 13 15 18 50 102 109 105 105 117 145 159 161 150 134 125 123 102 93 94 96 100 102 120 148 163 163 153 145 154 146 141 133 152 153 144 154 147 128 124 125 125 122 142 159 152 174 180 176 166 157 150 131 123 113 129 143 144 144 125 110 105 79 70 89 90 35 11 7 9 6 5 6 7 9 12 7 5 4 0 0 0 0 0 0 0 0 0 0 0 0 0 0 0 0 0 0 0 0 0 0 0 0 0 0 0 0 0 0 0 0 
0 0 0 0 0 0 0 0 0 0 0 0 9 11 7 6 6 6 9 14 19 27 67 96 96 94 108 144 151 163 160 146 131 131 110 96 97 97 105 124 138 160 168 164 172 157 154 162 176 169 164 158 158 174 181 169 157 157 156 150 158 163 182 197 183 184 174 160 164 159 146 137 134 138 117 98 88 84 87 76 93 95 53 19 10 1 1 4 5 5 6 8 9 5 2 4 0 0 0 0 0 0 0 0 0 0 0 0 0 0 0 0 0 0 0 0 0 0 0 0 0 0 0 0 0 0 0 0 
0 0 0 0 0 0 0 0 0 0 0 0 3 6 4 3 2 3 4 11 16 20 39 78 87 79 94 109 105 145 147 146 139 141 122 108 112 119 128 143 171 177 181 178 189 186 176 183 183 171 167 172 172 172 173 163 155 168 180 179 182 183 192 206 187 194 187 178 148 139 141 134 107 91 67 83 80 73 80 74 66 43 27 22 13 2 0 1 2 4 4 8 10 2 2 4 0 0 0 0 0 0 0 0 0 0 0 0 0 0 0 0 0 0 0 0 0 0 0 0 0 0 0 0 0 0 0 0 
0 0 0 0 0 0 0 0 0 0 0 0 0 3 3 2 2 0 1 7 13 21 27 46 77 89 74 61 69 84 96 109 131 132 128 128 121 123 131 153 179 174 167 180 179 188 181 173 176 165 162 169 166 163 157 151 149 148 159 167 172 183 200 192 170 176 178 168 155 132 122 98 82 75 70 85 80 77 67 50 41 36 37 27 18 0 0 0 1 3 3 9 9 2 2 4 0 0 0 0 0 0 0 0 0 0 0 0 0 0 0 0 0 0 0 0 0 0 0 0 0 0 0 0 0 0 0 0 
0 0 0 0 0 0 0 0 0 0 0 0 0 2 4 4 4 3 2 4 9 14 19 21 37 49 35 44 67 64 62 62 86 86 82 101 80 74 74 72 93 115 135 150 151 137 137 123 144 115 100 108 113 109 103 108 103 102 110 106 99 111 95 145 119 142 129 78 61 65 59 59 63 51 57 79 78 75 47 29 28 25 19 7 3 1 3 3 2 3 3 8 6 2 3 4 0 0 0 0 0 0 0 0 0 0 0 0 0 0 0 0 0 0 0 0 0 0 0 0 0 0 0 0 0 0 0 0 
0 0 0 0 0 0 0 0 0 0 0 0 0 0 4 2 3 3 3 1 6 9 13 16 21 21 23 34 65 67 59 60 65 62 55 74 70 57 66 65 81 86 84 77 87 97 83 78 89 86 66 74 88 88 91 93 75 64 76 80 84 96 77 73 70 96 102 107 111 104 70 53 59 60 63 77 79 74 46 29 28 25 17 6 2 1 2 1 1 1 4 5 2 1 3 4 0 0 0 0 0 0 0 0 0 0 0 0 0 0 0 0 0 0 0 0 0 0 0 0 0 0 0 0 0 0 0 0 
0 0 0 0 0 0 0 0 0 0 0 0 0 0 0 0 0 0 0 0 3 8 10 16 20 25 29 37 65 74 64 60 67 66 55 60 71 89 133 127 140 129 108 101 99 104 98 109 113 83 71 95 108 107 102 91 76 74 92 102 104 109 94 84 111 140 83 96 122 97 83 86 82 81 75 86 91 79 51 34 29 22 12 7 2 0 0 0 1 1 2 1 0 1 2 4 0 0 0 0 0 0 0 0 0 0 0 0 0 0 0 0 0 0 0 0 0 0 0 0 0 0 0 0 0 0 0 0 
0 0 0 0 0 0 0 0 0 0 0 0 0 0 0 0 0 0 0 0 0 4 4 8 16 27 31 39 69 83 76 66 77 81 74 79 83 114 122 141 145 160 164 153 148 158 166 162 144 115 104 110 112 108 100 105 107 101 109 131 141 140 132 133 142 153 137 120 120 132 104 97 80 68 65 75 74 72 51 37 27 20 13 12 1 0 0 0 0 0 0 0 0 0 1 2 0 0 0 0 0 0 0 0 0 0 0 0 0 0 0 0 0 0 0 0 0 0 0 0 0 0 0 0 0 0 0 0 
0 0 0 0 0 0 0 0 0 0 0 0 0 0 0 0 0 0 0 0 0 2 5 5 9 20 26 35 56 71 73 68 76 85 83 87 90 102 119 111 156 162 174 163 165 178 165 175 163 155 145 147 157 152 151 154 155 149 144 149 156 169 167 160 169 148 137 119 142 143 105 105 72 59 51 68 69 52 30 19 18 9 6 2 0 0 0 0 0 0 0 1 0 0 1 2 0 0 0 0 0 0 0 0 0 0 0 0 0 0 0 0 0 0 0 0 0 0 0 0 0 0 0 0 0 0 0 0 
0 0 0 0 0 0 0 0 0 0 0 0 0 0 0 0 0 0 0 0 0 0 2 2 8 15 29 37 55 73 81 70 75 73 66 64 66 82 114 129 135 138 121 111 128 146 149 171 163 148 140 126 126 124 134 135 137 126 131 135 146 150 130 135 121 127 144 134 146 147 109 66 36 40 46 76 72 44 21 15 11 8 7 1 0 0 0 0 1 2 2 4 4 6 8 7 0 0 0 0 0 0 0 0 0 0 0 0 0 0 0 0 0 0 0 0 0 0 0 0 0 0 0 0 0 0 0 0 
0 0 0 0 0 0 0 0 0 0 0 0 0 0 0 0 0 0 0 0 0 0 4 6 10 14 19 21 31 51 68 64 67 67 63 68 51 61 74 113 103 105 102 90 94 130 133 143 113 119 120 93 93 99 110 91 101 103 112 112 112 124 119 98 114 118 124 114 133 124 97 73 49 47 63 97 81 46 27 15 14 13 8 1 0 0 0 0 0 0 1 2 2 3 5 6 0 0 0 0 0 0 0 0 0 0 0 0 0 0 0 0 0 0 0 0 0 0 0 0 0 0 0 0 0 0 0 0 
0 0 0 0 0 0 0 0 0 0 0 0 0 0 0 0 0 0 0 0 0 0 1 6 9 14 18 21 26 41 60 75 75 70 64 52 47 70 89 96 92 101 99 103 106 117 136 137 114 109 103 85 90 92 93 88 102 112 120 109 104 110 103 85 85 104 119 117 122 109 89 74 65 68 81 103 84 47 25 19 18 13 6 1 0 0 0 0 0 0 1 2 2 2 5 5 0 0 0 0 0 0 0 0 0 0 0 0 0 0 0 0 0 0 0 0 0 0 0 0 0 0 0 0 0 0 0 0 
0 0 0 0 0 0 0 0 0 0 0 0 0 0 0 0 0 0 0 0 0 0 1 5 8 11 15 21 24 38 53 76 77 71 65 45 41 61 75 91 92 89 92 91 102 110 117 123 124 115 106 96 99 101 95 88 95 97 113 114 116 129 124 106 101 98 106 110 106 92 78 55 50 65 94 106 82 50 24 19 17 11 5 0 0 0 0 0 0 0 1 2 2 2 5 5 0 0 0 0 0 0 0 0 0 0 0 0 0 0 0 0 0 0 0 0 0 0 0 0 0 0 0 0 0 0 0 0 
0 0 0 0 0 0 0 0 0 0 0 0 0 0 0 0 0 0 0 0 0 0 0 3 7 10 13 19 23 35 47 72 76 74 67 50 52 56 52 67 74 75 91 88 96 107 108 116 126 128 123 104 107 111 106 98 98 95 108 117 122 143 124 105 97 95 97 102 101 95 75 63 55 61 98 110 82 54 26 19 15 11 3 0 0 0 0 0 0 0 1 2 2 2 5 5 0 0 0 0 0 0 0 0 0 0 0 0 0 0 0 0 0 0 0 0 0 0 0 0 0 0 0 0 0 0 0 0 
0 0 0 0 0 0 0 0 0 0 0 0 0 0 0 0 0 0 0 0 0 0 0 0 5 8 10 16 19 30 49 67 77 77 70 58 56 54 56 57 61 78 87 88 100 108 106 112 120 113 118 100 103 108 100 102 99 94 103 114 117 121 117 101 99 101 95 99 96 88 81 71 61 66 94 106 78 49 28 18 15 10 2 0 0 0 0 0 0 0 1 2 2 3 5 5 0 0 0 0 0 0 0 0 0 0 0 0 0 0 0 0 0 0 0 0 0 0 0 0 0 0 0 0 0 0 0 0 
0 0 0 0 0 0 0 0 0 0 0 0 0 0 0 0 0 0 0 0 0 0 0 0 2 4 10 12 17 24 44 54 74 75 74 66 61 59 55 51 64 71 84 95 103 100 95 97 105 100 107 103 95 91 91 95 91 88 100 111 109 104 111 101 105 109 105 91 78 70 62 75 71 73 93 103 79 46 19 16 15 8 1 0 0 0 0 0 0 0 1 2 2 3 5 5 0 0 0 0 0 0 0 0 0 0 0 0 0 0 0 0 0 0 0 0 0 0 0 0 0 0 0 0 0 0 0 0 
0 0 0 0 0 0 0 0 0 0 0 0 0 0 0 0 0 0 0 0 0 0 0 0 1 4 6 11 14 20 31 47 64 71 77 80 66 66 53 51 58 69 85 88 101 97 95 87 89 91 103 100 94 87 88 96 95 94 101 111 107 99 97 91 96 95 99 89 70 64 53 74 82 82 96 84 45 23 17 16 16 8 1 0 0 0 0 0 0 0 0 2 3 3 6 5 0 0 0 0 0 0 0 0 0 0 0 0 0 0 0 0 0 0 0 0 0 0 0 0 0 0 0 0 0 0 0 0 
0 0 0 0 0 0 0 0 0 0 0 0 0 0 0 0 0 0 0 0 0 0 0 0 0 3 4 8 14 18 21 34 40 47 73 83 62 70 52 51 53 68 78 81 93 90 92 85 85 93 105 98 101 102 102 105 108 108 102 102 98 87 90 92 96 85 89 81 75 61 55 75 81 88 98 44 17 17 17 18 16 7 0 0 0 0 0 0 0 0 0 1 2 3 5 5 0 0 0 0 0 0 0 0 0 0 0 0 0 0 0 0 0 0 0 0 0 0 0 0 0 0 0 0 0 0 0 0 
0 0 0 0 0 0 0 0 0 0 0 0 0 0 0 0 0 0 0 0 0 0 0 0 0 0 4 5 11 17 20 19 17 17 28 70 69 75 61 66 54 62 74 72 72 74 87 88 84 92 92 87 89 98 99 107 117 108 89 86 95 88 93 93 90 79 76 73 75 63 72 80 85 88 71 25 16 15 17 18 14 6 0 0 0 0 0 0 0 0 0 1 2 3 5 5 0 0 0 0 0 0 0 0 0 0 0 0 0 0 0 0 0 0 0 0 0 0 0 0 0 0 0 0 0 0 0 0 
0 0 0 0 0 0 0 0 0 0 0 0 0 0 0 0 0 0 0 0 0 0 0 0 0 0 2 4 9 13 18 17 18 19 12 36 70 80 80 68 59 66 77 73 74 71 78 87 94 98 89 85 92 101 106 108 117 112 88 82 98 92 98 103 91 77 77 81 79 67 80 94 90 74 36 21 14 15 16 17 12 6 1 0 0 0 0 0 0 0 0 1 2 3 5 4 0 0 0 0 0 0 0 0 0 0 0 0 0 0 0 0 0 0 0 0 0 0 0 0 0 0 0 0 0 0 0 0 
0 0 0 0 0 0 0 0 0 0 0 0 0 0 0 0 0 0 0 0 0 0 0 0 0 0 1 3 7 8 16 17 18 20 13 12 36 68 82 72 67 73 86 77 82 79 85 91 91 103 97 89 90 99 107 112 122 118 100 96 109 103 93 100 98 80 79 89 92 81 82 93 74 37 23 17 13 16 17 15 11 6 1 0 0 0 0 0 0 0 0 1 2 3 5 5 0 0 0 0 0 0 0 0 0 0 0 0 0 0 0 0 0 0 0 0 0 0 0 0 0 0 0 0 0 0 0 0 
0 0 0 0 0 0 0 0 0 0 0 0 0 0 0 0 0 0 0 0 0 0 0 0 0 0 0 2 5 7 12 16 17 20 14 12 16 32 61 75 77 87 95 81 93 91 98 94 80 103 107 92 87 95 105 114 119 118 111 103 98 96 91 101 105 92 92 98 100 90 86 71 34 25 21 16 13 16 15 14 10 5 1 0 0 0 0 0 0 0 0 1 2 3 5 5 0 0 0 0 0 0 0 0 0 0 0 0 0 0 0 0 0 0 0 0 0 0 0 0 0 0 0 0 0 0 0 0 
0 0 0 0 0 0 0 0 0 0 0 0 0 0 0 0 0 0 0 0 0 0 0 0 0 0 0 1 4 8 10 14 16 21 16 12 15 23 29 53 72 88 100 89 100 106 106 98 89 102 102 90 90 107 117 120 118 121 119 112 103 97 100 102 111 104 104 104 104 83 61 36 27 25 21 16 13 14 14 12 9 5 1 0 0 0 0 0 0 0 0 1 2 3 5 4 0 0 0 0 0 0 0 0 0 0 0 0 0 0 0 0 0 0 0 0 0 0 0 0 0 0 0 0 0 0 0 0 
0 0 0 0 0 0 0 0 0 0 0 0 0 0 0 0 0 0 0 0 0 0 0 0 0 0 0 0 1 8 7 13 15 19 16 12 11 20 26 27 39 59 79 90 104 107 112 105 97 103 108 103 107 114 116 114 112 119 123 114 110 100 105 108 113 102 106 99 77 48 32 29 27 24 22 16 13 14 13 12 9 5 1 0 0 0 0 0 0 0 0 1 2 3 4 4 0 0 0 0 0 0 0 0 0 0 0 0 0 0 0 0 0 0 0 0 0 0 0 0 0 0 0 0 0 0 0 0 
0 0 0 0 0 0 0 0 0 0 0 0 0 0 0 0 0 0 0 0 0 0 0 0 0 0 0 0 0 7 7 10 14 19 15 12 11 19 26 28 32 34 42 62 84 96 99 97 94 103 108 114 113 106 103 101 101 108 121 115 111 107 113 108 107 95 83 62 41 36 30 28 25 22 19 15 13 14 14 12 9 4 1 0 0 0 0 0 0 0 0 1 2 3 5 4 0 0 0 0 0 0 0 0 0 0 0 0 0 0 0 0 0 0 0 0 0 0 0 0 0 0 0 0 0 0 0 0 
0 0 0 0 0 0 0 0 0 0 0 0 0 0 0 0 0 0 0 0 0 0 0 0 0 0 0 0 0 4 7 9 14 19 15 13 11 19 26 27 31 34 31 38 51 64 74 86 91 93 100 110 105 99 105 109 107 106 116 114 116 104 104 104 86 63 50 48 41 35 27 27 25 23 17 13 14 14 14 12 8 3 1 0 0 0 0 0 0 0 0 0 2 3 4 4 0 0 0 0 0 0 0 0 0 0 0 0 0 0 0 0 0 0 0 0 0 0 0 0 0 0 0 0 0 0 0 0 
