P2
128 99
206
0 0 0 0 0 0 0 0 0 0 0 0 0 0 0 0 0 0 0 0 0 0 0 0 0 0 0 0 0 0 0 1 0 0 0 0 0 0 0 0 0 0 0 0 0 0 0 0 0 0 0 0 0 0 0 0 0 0 0 0 0 0 0 0 0 0 0 0 0 0 0 0 0 0 0 0 0 0 0 0 0 0 0 0 0 0 0 0 0 0 0 0 0 0 0 1 6 1 0 0 0 0 0 0 0 0 0 0 0 0 0 0 0 0 0 0 0 0 0 0 0 0 0 0 0 0 0 0 
0 0 0 0 0 0 0 0 0 0 0 0 0 0 0 0 0 0 0 0 0 0 0 0 0 0 0 0 0 0 0 1 0 0 0 0 0 0 0 0 0 0 0 0 0 0 0 0 0 0 0 0 0 0 0 0 0 0 0 0 0 0 0 0 0 0 0 0 0 0 0 0 0 0 0 0 0 0 0 0 0 0 0 0 0 0 0 0 0 0 0 0 0 0 0 1 5 2 0 0 0 0 0 0 0 0 0 0 0 0 0 0 0 0 0 0 0 0 0 0 0 0 0 0 0 0 0 0 
0 0 0 0 0 0 0 0 0 0 0 0 0 0 0 0 0 0 0 0 0 0 0 0 0 0 0 0 0 0 0 1 0 0 0 0 0 0 0 0 0 0 0 0 0 0 0 0 0 0 0 2 2 3 1 0 0 0 0 0 0 0 0 0 0 0 0 0 0 0 0 0 0 0 0 0 0 0 0 0 0 0 0 0 0 0 0 0 0 0 0 0 0 0 0 1 5 2 0 0 0 0 0 0 0 0 0 0 0 0 0 0 0 0 0 0 0 0 0 0 0 0 0 0 0 0 0 0 
0 0 0 0 0 0 0 0 0 0 0 0 0 0 0 0 0 0 0 0 0 0 0 0 0 0 0 0 0 0 0 1 0 0 0 0 0 0 0 0 0 0 0 1 7 13 17 19 17 18 22 25 27 27 26 22 18 16 15 12 4 0 0 0 0 0 0 0 0 0 0 0 0 0 0 0 0 0 0 0 0 0 0 0 0 0 0 0 0 0 0 0 0 0 0 1 5 2 0 0 0 0 0 0 0 0 0 0 0 0 0 0 0 0 0 0 0 0 0 0 0 0 0 0 0 0 0 0 
0 0 0 0 0 0 0 0 0 0 0 0 0 0 0 0 0 0 0 0 0 0 0 0 0 0 0 0 0 0 0 0 0 0 0 0 0 0 0 0 6 13 18 23 24 33 53 75 97 118 134 144 148 148 145 136 122 102 77 53 33 22 17 11 2 0 0 0 0 0 0 0 0 0 0 0 0 0 0 0 0 0 0 0 0 0 0 0 0 0 0 0 0 0 0 1 5 2 0 0 0 0 0 0 0 0 0 0 0 0 0 0 0 0 0 0 0 0 0 0 0 0 0 0 0 0 0 0 
0 0 0 0 0 0 0 0 0 0 0 0 0 0 0 0 0 0 0 0 0 0 0 0 0 0 0 0 0 0 0 0 0 0 0 0 0 1 9 17 24 25 36 66 109 144 165 175 179 182 183 182 180 180 181 180 180 178 173 164 145 115 77 43 24 16 11 1 0 0 0 0 0 0 0 0 0 0 0 0 0 0 0 0 0 0 0 0 0 0 0 0 0 0 0 1 5 1 0 0 0 0 0 0 0 0 0 0 0 0 0 0 0 0 0 0 0 0 0 0 0 0 0 0 0 0 0 0 
0 0 0 0 0 0 0 0 0 0 0 0 0 0 0 0 0 0 0 0 0 0 0 0 0 0 0 0 0 0 0 0 0 0 0 0 8 21 24 25 50 100 147 172 182 184 184 186 190 194 194 193 193 193 192 192 191 190 188 185 182 177 169 150 120 75 38 19 13 2 0 0 0 0 0 0 0 0 0 0 0 0 0 0 0 0 0 0 0 0 0 0 0 0 0 2 5 1 0 0 0 0 0 0 0 0 0 0 0 0 0 0 0 0 0 0 0 0 0 0 0 0 0 0 0 0 0 0 
0 0 0 0 0 0 0 0 0 0 0 0 0 0 0 0 0 0 0 0 0 0 0 0 0 0 0 0 0 0 0 0 0 0 8 24 25 26 61 121 162 178 184 185 189 194 192 181 176 175 178 183 181 170 169 180 193 197 194 189 188 188 186 182 177 168 144 98 49 22 14 1 0 0 0 0 0 0 0 0 0 0 0 0 0 0 0 0 0 0 0 0 0 0 0 2 6 1 0 0 0 0 0 0 0 0 0 0 0 0 0 0 0 0 0 0 0 0 0 0 0 0 0 0 0 0 0 0 
0 0 0 0 0 0 0 0 0 0 0 0 0 0 0 0 0 0 0 0 0 0 0 0 0 0 0 0 0 0 0 0 5 27 25 23 59 124 166 177 179 184 190 194 189 178 168 159 154 153 155 157 154 146 146 153 163 179 196 202 198 194 189 187 187 185 180 174 151 100 45 23 10 0 0 0 0 0 0 0 0 0 0 0 0 0 0 0 0 0 0 0 0 0 0 2 5 1 0 0 0 0 0 0 0 0 0 0 0 0 0 0 0 0 0 0 0 0 0 0 0 0 0 0 0 0 0 0 
0 0 0 0 0 0 0 0 0 0 0 0 0 0 0 0 0 0 0 0 0 0 0 0 0 0 0 0 0 0 0 23 26 22 41 110 163 175 177 181 187 193 188 173 160 158 156 147 139 132 136 142 144 141 144 148 149 153 162 181 201 205 203 199 194 189 188 185 182 174 143 77 30 19 2 0 0 0 0 0 0 0 0 0 0 0 0 0 0 0 0 0 0 0 0 2 6 1 0 0 0 0 0 0 0 0 0 0 0 0 0 0 0 0 0 0 0 0 0 0 0 0 0 0 0 0 0 0 
0 0 0 0 0 0 0 0 0 0 0 0 0 0 0 0 0 0 0 0 0 0 0 0 0 0 0 0 0 10 28 22 25 82 154 175 178 180 186 191 192 184 167 164 159 148 139 132 131 129 130 137 136 133 134 137 141 140 143 149 167 185 199 205 205 199 195 190 188 187 182 168 117 45 22 6 0 0 0 0 0 0 0 0 0 0 0 0 0 0 0 0 0 0 0 2 6 1 0 0 0 0 0 0 0 0 0 0 0 0 0 0 0 0 0 0 0 0 0 0 0 0 0 0 0 0 0 0 
0 0 0 0 0 0 0 0 0 0 0 0 0 0 0 0 0 0 0 0 0 0 0 0 0 0 0 0 23 25 18 47 129 172 177 179 187 191 193 191 177 169 161 153 150 148 144 141 136 137 132 133 131 132 143 147 147 151 149 148 149 161 179 191 200 205 206 201 194 190 190 186 177 146 67 24 11 0 0 0 0 0 0 0 0 0 0 0 0 0 0 0 0 0 0 2 6 2 0 0 0 0 0 0 0 0 0 0 0 0 0 0 0 0 0 0 0 0 0 0 0 0 0 0 0 0 0 0 
0 0 0 0 0 0 0 0 0 0 0 0 0 0 0 0 0 0 0 0 0 0 0 0 0 0 5 26 21 17 76 153 173 179 185 193 195 197 186 173 163 156 149 146 144 147 155 152 150 141 130 126 127 127 134 140 139 142 147 151 156 164 170 174 183 195 202 204 205 198 193 190 187 176 156 84 25 13 0 0 0 0 0 0 0 0 0 0 0 0 0 0 0 0 0 2 6 2 0 0 0 0 0 0 0 0 0 0 0 0 0 0 0 0 0 0 0 0 0 0 0 0 0 0 0 0 0 0 
0 0 0 0 0 0 0 0 0 0 0 0 0 0 0 0 0 0 0 0 0 0 0 0 0 10 26 17 27 99 161 175 183 192 195 199 195 179 168 158 158 160 160 155 150 147 145 140 132 129 122 124 120 118 124 136 143 143 144 146 149 154 157 166 174 179 183 193 202 205 203 195 188 184 177 161 93 27 14 0 0 0 0 0 0 0 0 0 0 0 0 0 0 0 0 2 6 2 0 0 0 0 0 0 0 0 0 0 0 0 0 0 0 0 0 0 0 0 0 0 0 0 0 0 0 0 0 0 
0 0 0 0 0 0 0 0 0 0 0 0 0 0 0 0 0 0 0 0 0 0 0 0 13 23 16 34 116 165 175 185 196 199 197 186 170 162 160 165 165 156 147 140 137 142 137 127 125 120 118 117 116 118 118 120 131 141 143 142 142 145 153 155 157 161 171 175 180 190 199 204 197 188 184 179 165 103 30 13 0 0 0 0 0 0 0 0 0 0 0 0 0 0 0 2 6 2 0 0 0 0 0 0 0 0 0 0 0 0 0 0 0 0 0 0 0 0 0 0 0 0 0 0 0 0 0 0 
0 0 0 0 0 0 0 0 0 0 0 0 0 0 0 0 0 0 0 0 0 0 3 18 21 15 44 126 163 176 187 197 197 188 175 163 161 167 170 156 147 143 142 139 139 133 121 118 118 119 117 111 109 119 121 121 119 122 132 139 140 137 137 148 157 157 160 160 168 170 178 193 202 198 189 184 180 167 115 35 12 0 0 0 0 0 0 0 0 0 0 0 0 0 0 2 6 2 0 0 0 0 0 0 0 0 0 0 0 0 0 0 0 0 0 0 0 0 0 0 0 0 0 0 0 0 0 0 
0 0 0 0 0 0 0 0 0 0 0 0 0 0 0 0 0 0 0 0 0 5 17 17 16 56 134 161 176 189 198 193 179 168 159 161 167 163 148 147 146 138 133 134 126 119 124 127 131 131 130 122 122 131 133 134 133 129 126 129 129 129 133 133 140 147 150 155 159 163 163 167 183 197 196 188 188 181 166 121 38 9 0 0 0 0 0 0 0 0 0 0 0 0 0 2 6 2 0 0 0 0 0 0 0 0 0 0 0 0 0 0 0 0 0 0 0 0 0 0 0 0 0 0 0 0 0 0 
0 0 0 0 0 0 0 0 0 0 0 0 0 0 0 0 0 0 0 0 6 16 15 18 71 143 164 178 191 199 189 168 158 159 161 162 153 141 144 138 131 133 136 128 120 120 117 121 120 116 113 112 108 112 116 122 126 127 126 128 131 133 133 136 134 133 137 143 147 149 155 159 160 175 192 194 190 188 180 167 127 37 7 0 0 0 0 0 0 0 0 0 0 0 0 2 6 2 0 0 0 0 0 0 0 0 0 0 0 0 0 0 0 0 0 0 0 0 0 0 0 0 0 0 0 0 0 0 
0 0 0 0 0 0 0 0 0 0 0 0 0 0 0 0 0 0 0 5 16 14 19 78 146 163 175 189 196 186 164 155 157 153 156 147 139 139 126 121 128 132 130 122 117 109 103 108 106 98 99 93 95 104 109 115 116 116 118 123 126 125 121 127 132 131 128 134 141 142 140 151 152 154 168 189 195 190 188 177 166 119 28 3 0 0 0 0 0 0 0 0 0 0 0 2 6 2 0 0 0 0 0 0 0 0 0 0 0 0 0 0 0 0 0 0 0 0 0 0 0 0 0 0 0 0 0 0 
0 0 0 0 0 0 0 0 0 0 0 0 0 0 0 0 0 0 4 16 12 19 83 146 159 170 187 196 181 162 157 153 147 154 144 131 126 118 122 133 133 126 121 118 112 109 109 111 109 110 112 109 112 121 120 117 117 116 115 117 120 122 124 123 120 123 132 129 134 143 139 138 151 146 151 164 187 194 190 185 174 161 104 19 2 0 0 0 0 0 0 0 0 0 0 2 6 2 0 0 0 0 0 0 0 0 0 0 0 0 0 0 0 0 0 0 0 0 0 0 0 0 0 0 0 0 0 0 
0 0 0 0 0 0 0 0 0 0 0 0 0 0 0 0 0 2 15 13 19 79 142 158 168 185 196 178 160 157 151 142 148 139 125 122 119 128 140 138 123 114 113 113 115 117 119 119 121 116 114 115 115 119 118 117 118 118 116 120 121 118 116 118 122 119 120 133 128 127 139 137 140 149 143 150 159 183 194 190 182 170 152 81 10 0 0 0 0 0 0 0 0 0 0 2 6 2 0 0 0 0 0 0 0 0 0 0 0 0 0 0 0 0 0 0 0 0 0 0 0 0 0 0 0 0 0 0 
0 0 0 0 0 0 0 0 0 0 0 0 0 0 0 0 0 11 12 16 72 137 154 164 179 191 177 156 157 147 140 145 141 126 121 120 131 142 132 115 107 108 111 112 112 109 104 104 105 100 98 99 98 103 104 104 108 108 109 115 117 112 111 109 108 117 123 125 131 123 121 134 130 136 146 138 149 156 183 193 189 180 164 137 52 4 0 0 0 0 0 0 0 0 0 3 6 3 0 0 0 0 0 0 0 0 0 0 0 0 0 0 0 0 0 0 0 0 0 0 0 0 0 0 0 0 0 0 
0 0 0 0 0 0 0 0 0 0 0 0 0 0 0 0 6 12 14 58 129 148 161 175 188 179 151 155 146 137 139 139 120 123 120 128 140 128 112 105 103 104 105 103 100 96 95 93 89 85 86 87 88 99 104 103 104 101 101 101 106 108 109 106 103 103 116 127 129 125 115 118 129 129 140 141 136 145 157 183 193 186 175 156 113 24 1 0 0 0 0 0 0 0 0 2 7 3 0 0 0 0 0 0 0 0 0 0 0 0 0 0 0 0 0 0 0 0 0 0 0 0 0 0 0 0 0 0 
0 0 0 0 0 0 0 0 0 0 0 0 0 0 0 2 13 13 46 119 143 155 172 187 181 151 151 143 137 139 134 119 127 125 128 132 123 110 101 99 99 94 91 87 85 85 86 87 91 90 97 96 94 101 101 100 101 101 101 98 96 102 107 108 104 101 103 116 131 129 117 111 118 127 128 143 142 135 143 158 187 191 180 166 143 77 7 0 0 0 0 0 0 0 0 3 7 3 0 0 0 0 0 0 0 0 0 0 0 0 0 0 0 0 0 0 0 0 0 0 0 0 0 0 0 0 0 0 
0 0 0 0 0 0 0 0 0 0 0 0 0 0 0 8 11 25 98 134 150 165 182 181 156 145 144 136 137 141 120 126 126 121 124 115 106 101 99 95 92 94 96 94 92 94 95 95 101 103 108 111 106 105 105 104 103 103 101 100 98 96 99 104 109 108 105 107 122 132 121 111 113 121 123 136 150 132 133 145 162 188 182 172 154 118 28 1 0 0 0 0 0 0 0 2 7 3 0 0 0 0 0 0 0 0 0 0 0 0 0 0 0 0 0 0 0 0 0 0 0 0 0 0 0 0 0 0 
0 0 0 0 0 0 0 0 0 0 0 0 0 0 2 9 13 72 126 143 155 176 177 165 143 141 133 132 142 127 125 126 116 119 116 104 104 103 100 96 96 98 98 98 99 101 103 102 107 111 115 118 114 114 112 110 107 109 108 104 99 98 97 99 101 105 105 102 107 125 133 117 109 115 122 124 146 140 128 133 142 176 182 176 161 137 66 3 0 0 0 0 0 0 0 3 6 3 0 0 0 0 0 0 0 0 0 0 0 0 0 0 0 0 0 0 0 0 0 0 0 0 0 0 0 0 0 0 
0 0 0 0 0 0 0 0 0 0 0 0 0 0 6 9 38 110 134 147 167 173 162 156 139 134 131 138 134 122 128 118 117 115 113 101 101 103 102 98 98 97 96 95 101 104 111 114 113 113 116 118 115 113 99 98 105 110 108 107 103 102 100 97 96 96 100 103 100 110 128 131 112 107 119 124 135 147 132 124 134 162 177 178 168 148 103 15 0 0 0 0 0 0 0 2 6 3 0 0 0 0 0 0 0 0 0 0 0 0 0 0 0 0 0 0 0 0 0 0 0 0 0 0 0 0 0 0 
0 0 0 0 0 0 0 0 0 0 0 0 0 0 7 16 81 121 140 153 173 156 155 144 131 129 131 136 124 128 121 111 113 116 109 99 104 107 98 98 96 94 96 99 101 106 109 109 107 95 92 101 105 89 76 76 81 99 103 103 105 106 104 103 100 96 99 107 104 99 112 130 130 108 113 125 127 140 138 121 126 150 169 175 168 154 124 38 2 0 0 0 0 0 0 2 7 3 0 0 0 0 0 0 0 0 0 0 0 0 0 0 0 0 0 0 0 0 0 0 0 0 0 0 0 0 0 0 
0 0 0 0 0 0 0 0 0 0 0 0 0 3 7 36 107 131 143 164 164 151 152 135 126 129 127 130 123 127 117 113 118 113 102 104 108 102 92 91 92 92 96 99 99 97 96 96 86 75 75 81 91 82 77 75 74 79 74 86 97 103 106 107 107 99 95 105 109 99 99 117 135 122 108 123 131 131 132 124 117 142 162 174 171 159 134 60 3 0 0 0 0 0 0 2 7 3 0 0 0 0 0 0 0 0 0 0 0 0 0 0 0 0 0 0 0 0 0 0 0 0 0 0 0 0 0 0 
0 0 0 0 0 0 0 0 0 0 0 0 0 4 9 67 118 133 148 167 150 145 141 125 127 125 121 127 123 124 117 119 118 102 101 108 105 93 86 88 95 101 98 96 91 85 76 79 80 79 81 85 90 90 86 84 85 78 73 72 74 87 96 105 115 109 98 99 110 109 100 103 124 132 117 118 131 125 121 127 115 136 155 171 172 162 141 79 5 0 0 0 0 0 0 2 7 3 0 0 0 0 0 0 0 0 0 0 0 0 0 0 0 0 0 0 0 0 0 0 0 0 0 0 0 0 0 0 
0 0 0 0 0 0 0 0 0 0 0 0 0 6 18 92 124 139 158 161 138 135 137 120 127 117 120 124 125 121 118 120 110 99 107 108 98 86 84 95 105 103 92 82 83 82 85 87 90 92 94 96 101 100 99 99 103 99 90 84 81 76 79 94 108 119 112 99 104 115 111 102 109 127 129 119 124 124 117 125 119 130 148 171 171 162 145 95 10 0 0 0 0 0 0 3 7 3 0 0 0 0 0 0 0 0 0 0 0 0 0 0 0 0 0 0 0 0 0 0 0 0 0 0 0 0 0 0 
0 0 0 0 0 0 0 0 0 0 0 0 1 5 34 108 128 146 162 146 129 133 134 121 118 111 118 124 121 113 121 115 107 107 110 101 87 88 100 107 99 86 83 88 92 95 98 99 98 96 92 93 101 95 93 98 102 103 97 96 96 92 85 84 98 112 122 111 106 113 119 111 104 116 132 125 115 124 112 119 120 126 151 167 173 164 148 108 15 0 0 0 0 0 0 3 7 4 0 0 0 0 0 0 0 0 0 0 0 0 0 0 0 0 0 0 0 0 0 0 0 0 0 0 0 0 0 0 
0 0 0 0 0 0 0 0 0 0 0 0 2 6 49 117 133 152 153 135 123 133 135 121 110 108 117 123 112 105 117 108 106 110 106 96 95 104 107 98 87 84 89 99 104 102 98 94 93 89 87 92 91 88 90 89 85 85 85 98 107 107 105 97 97 103 110 125 122 112 117 116 106 108 122 128 108 120 110 112 116 121 146 160 174 167 152 122 25 0 0 0 0 0 0 3 7 4 0 0 0 0 0 0 0 0 0 0 0 0 0 0 0 0 0 0 0 0 0 0 0 0 0 0 0 0 0 0 
0 0 0 0 0 0 0 0 0 0 0 0 3 8 61 120 137 153 144 132 121 133 135 116 106 103 120 119 105 107 114 108 107 109 108 102 107 110 103 88 86 92 97 103 110 104 97 91 88 87 90 96 89 88 89 88 86 86 88 95 101 105 106 98 90 96 113 125 127 118 114 117 111 107 114 126 105 113 112 107 115 126 148 160 176 171 156 133 38 1 0 0 0 0 0 3 7 4 0 0 0 0 0 0 0 0 0 0 0 0 0 0 0 0 0 0 0 0 0 0 0 0 0 0 0 0 0 0 
0 0 0 0 0 0 0 0 0 0 0 0 3 8 71 125 141 154 146 134 125 132 130 117 105 105 124 112 97 108 115 108 108 108 108 116 113 105 102 94 91 96 96 102 106 105 97 88 88 88 96 100 97 97 96 97 93 90 89 95 90 101 106 105 101 109 115 119 127 129 122 116 112 112 116 122 109 108 109 102 116 131 150 161 176 171 160 142 50 2 0 0 0 0 0 3 7 3 0 0 0 0 0 0 0 0 0 0 0 0 0 0 0 0 0 0 0 0 0 0 0 0 0 0 0 0 0 0 
0 0 0 0 0 0 0 0 0 0 0 0 4 11 80 130 148 157 146 134 132 132 131 120 106 111 121 103 97 108 115 106 105 113 119 125 115 102 103 108 104 99 96 100 101 99 100 95 89 91 100 104 105 103 103 104 100 93 92 96 89 102 109 115 116 119 117 115 119 123 130 129 116 111 117 124 111 106 105 101 119 133 146 160 178 172 165 149 62 3 0 0 0 0 0 3 7 3 0 0 0 0 0 0 0 0 0 0 0 0 0 0 0 0 0 0 0 0 0 0 0 0 0 0 0 0 0 0 
0 0 0 0 0 0 0 0 0 0 0 0 4 13 83 134 152 159 149 139 138 134 132 119 113 118 115 100 98 106 116 105 113 126 124 118 113 102 101 104 100 99 106 108 100 94 91 94 92 95 103 106 113 108 106 110 106 97 93 89 86 103 115 118 113 105 95 89 92 94 105 122 136 128 116 128 127 106 105 108 124 135 143 154 177 176 168 152 76 5 0 0 0 0 0 3 7 3 0 0 0 0 0 0 0 0 0 0 0 0 0 0 0 0 0 0 0 0 0 0 0 0 0 0 0 0 0 0 
0 0 0 0 0 0 0 0 0 0 0 0 5 14 87 138 153 159 147 141 143 137 134 122 118 121 109 99 98 108 116 110 128 127 113 100 91 86 83 86 87 87 91 96 98 99 93 88 87 94 104 106 113 110 110 108 104 96 88 80 92 109 106 99 98 97 94 93 93 93 92 101 118 129 133 136 141 114 110 117 124 135 137 147 172 177 170 153 88 7 0 0 0 0 0 3 7 3 0 0 0 0 0 0 0 0 0 0 0 0 0 0 0 0 0 0 0 0 0 0 0 0 0 0 0 0 0 0 
0 0 0 0 0 0 0 0 0 0 0 0 7 14 91 140 156 158 148 139 142 135 134 127 126 123 108 101 99 109 121 129 131 111 92 92 93 90 88 89 88 84 80 83 89 90 98 94 81 86 97 105 108 108 110 105 100 88 82 89 103 94 91 93 97 97 96 94 94 95 90 92 99 109 133 146 147 126 117 124 128 133 131 142 161 175 172 155 101 10 0 0 0 0 0 2 6 3 0 0 0 0 0 0 0 0 0 0 0 0 0 0 0 0 0 0 0 0 0 0 0 0 0 0 0 0 0 0 
0 0 0 0 0 0 0 0 0 0 0 0 7 14 93 144 156 159 147 138 139 131 129 129 133 128 111 110 106 111 133 139 119 91 92 94 92 91 94 98 93 88 83 81 82 87 90 99 88 86 103 109 108 109 108 108 99 85 89 107 95 83 87 93 103 107 106 106 104 105 103 103 110 113 122 147 148 134 125 125 125 127 127 136 151 171 174 156 114 16 0 0 0 0 0 2 7 3 0 0 0 0 0 0 0 0 0 0 0 0 0 0 0 0 0 0 0 0 0 0 0 0 0 0 0 0 0 0 
0 0 0 0 0 0 0 0 0 0 0 0 8 14 93 145 159 160 143 131 137 132 126 123 130 132 113 113 126 121 138 134 101 90 88 90 93 96 99 96 93 93 85 76 77 79 89 97 98 96 108 118 115 111 117 114 101 88 88 102 82 77 84 94 102 102 104 105 103 107 105 102 114 127 125 134 146 136 136 124 124 121 120 129 143 158 171 156 124 24 0 0 0 0 0 3 7 3 0 0 0 0 0 0 0 0 0 0 0 0 0 0 0 0 0 0 0 0 0 0 0 0 0 0 0 0 0 0 
0 0 0 0 0 0 0 0 0 0 0 0 8 16 96 147 159 162 134 125 136 129 123 114 127 132 117 117 127 128 142 124 101 91 93 99 103 99 92 91 89 89 89 82 77 81 88 93 98 99 111 121 123 112 118 115 104 92 91 93 77 75 82 91 99 100 97 95 99 106 109 106 114 116 114 122 135 136 142 126 124 120 116 118 131 151 172 159 130 33 1 0 0 0 0 2 7 3 0 0 0 0 0 0 0 0 0 0 0 0 0 0 0 0 0 0 0 0 0 0 0 0 0 0 0 0 0 0 
0 0 0 0 0 0 0 0 0 0 0 0 8 17 97 148 161 162 131 126 135 124 120 113 121 124 114 118 124 120 128 127 115 103 99 104 106 100 91 88 87 84 81 83 86 86 91 96 100 104 115 126 117 117 120 117 108 96 94 87 76 77 86 95 101 102 97 90 91 101 108 110 109 107 108 116 128 134 138 130 123 113 109 115 120 142 169 160 132 42 1 0 0 0 0 2 7 3 0 0 0 0 0 0 0 0 0 0 0 0 0 0 0 0 0 0 0 0 0 0 0 0 0 0 0 0 0 0 
0 0 0 0 0 0 0 0 0 0 0 0 7 17 99 149 162 162 129 124 133 120 116 105 115 120 114 115 118 110 118 114 103 98 99 104 105 96 87 82 84 83 82 85 90 92 90 96 103 103 115 113 107 107 108 112 112 101 96 85 76 83 88 97 102 98 92 84 85 95 101 102 104 103 108 111 126 130 132 126 121 109 104 113 115 130 162 159 134 49 2 0 0 0 0 3 7 3 0 0 0 0 0 0 0 0 0 0 0 0 0 0 0 0 0 0 0 0 0 0 0 0 0 0 0 0 0 0 
0 0 0 0 0 0 0 0 0 0 0 0 8 17 99 149 162 157 121 119 125 112 107 99 111 115 113 116 115 105 114 111 96 94 94 100 101 92 87 82 78 76 80 88 92 91 96 96 99 100 117 111 107 112 109 116 113 108 103 84 82 84 91 96 95 91 88 80 81 93 101 103 100 100 103 108 124 127 126 125 124 109 99 107 105 120 148 157 138 55 3 0 0 0 0 3 7 3 0 0 0 0 0 0 0 0 0 0 0 0 0 0 0 0 0 0 0 0 0 0 0 0 0 0 0 0 0 0 
0 0 0 0 0 0 0 0 0 0 0 0 8 18 97 150 163 153 117 108 117 105 100 95 100 108 111 122 121 105 111 112 93 91 91 96 99 90 84 80 78 81 81 86 90 91 93 91 88 108 126 127 118 106 108 101 116 108 98 86 89 90 90 85 90 91 87 81 83 92 100 100 97 99 101 111 122 123 121 131 133 108 98 107 106 118 131 150 138 60 2 0 0 0 0 2 7 3 0 0 0 0 0 0 0 0 0 0 0 0 0 0 0 0 0 0 0 0 0 0 0 0 0 0 0 0 0 0 
0 0 0 0 0 0 0 0 0 0 0 0 8 17 95 150 162 145 113 107 108 100 99 97 93 105 114 122 120 106 108 112 95 88 90 96 98 91 86 82 78 85 93 96 96 97 97 88 84 104 116 122 105 94 97 90 110 123 94 90 87 87 86 90 98 95 89 81 82 92 101 99 94 96 100 116 121 123 125 138 135 108 98 105 103 116 128 149 137 62 2 0 0 0 0 2 6 3 0 0 0 0 0 0 0 0 0 0 0 0 0 0 0 0 0 0 0 0 0 0 0 0 0 0 0 0 0 0 
0 0 0 0 0 0 0 0 0 0 0 0 7 16 90 148 161 137 114 104 108 103 99 98 92 104 118 117 116 111 113 112 94 86 89 96 99 93 90 84 80 80 86 92 94 96 98 94 86 100 112 108 85 85 94 90 93 123 89 85 83 83 83 99 101 96 89 79 83 97 101 96 96 98 102 121 127 129 123 134 133 109 99 102 102 115 126 150 133 59 2 0 0 0 0 2 6 2 0 0 0 0 0 0 0 0 0 0 0 0 0 0 0 0 0 0 0 0 0 0 0 0 0 0 0 0 0 0 
0 0 0 0 0 0 0 0 0 0 0 0 5 14 83 144 159 133 111 104 102 102 98 98 89 102 117 118 113 109 117 113 95 91 90 90 98 100 93 86 83 87 84 87 87 89 91 91 90 100 101 87 85 87 95 88 87 111 105 86 83 80 83 100 100 94 87 80 85 99 102 91 94 99 103 118 126 122 112 129 129 108 100 101 101 113 125 149 129 55 2 0 0 0 0 2 6 2 0 0 0 0 0 0 0 0 0 0 0 0 0 0 0 0 0 0 0 0 0 0 0 0 0 0 0 0 0 0 
0 0 0 0 0 0 0 0 0 0 0 0 4 15 76 141 157 131 111 106 99 104 100 98 88 96 114 121 112 104 116 115 92 88 92 95 100 101 94 86 85 88 87 86 86 89 89 83 88 101 104 84 86 90 100 88 83 91 115 88 83 79 82 96 99 94 88 80 83 98 99 88 92 102 104 120 124 120 114 124 128 107 100 98 102 111 128 147 123 49 2 0 0 0 0 2 6 2 0 0 0 0 0 0 0 0 0 0 0 0 0 0 0 0 0 0 0 0 0 0 0 0 0 0 0 0 0 0 
0 0 0 0 0 0 0 0 0 0 0 0 2 15 70 136 153 135 110 105 98 102 100 101 90 93 108 122 112 98 111 114 92 82 90 96 97 97 93 86 88 89 88 86 84 85 85 84 91 106 91 84 85 94 105 92 85 81 108 102 101 86 83 96 100 97 88 77 81 97 97 88 94 103 99 120 128 127 123 122 124 106 101 97 102 109 135 142 115 43 2 0 0 0 0 2 6 2 0 0 0 0 0 0 0 0 0 0 0 0 0 0 0 0 0 0 0 0 0 0 0 0 0 0 0 0 0 0 
0 0 0 0 0 0 0 0 0 6 5 0 0 12 62 129 148 137 113 104 98 97 99 102 93 90 101 120 109 96 106 112 100 83 91 97 97 90 89 84 88 93 93 87 94 101 102 92 99 103 86 82 84 96 100 96 89 82 87 105 113 117 107 105 103 100 95 83 86 100 98 93 94 98 98 121 127 114 124 128 121 104 96 94 98 108 138 134 104 37 2 0 0 0 0 2 6 2 0 0 0 0 0 0 0 0 0 0 0 0 0 0 0 0 0 0 0 0 0 0 0 0 0 0 0 0 0 0 
0 0 0 0 0 0 0 0 0 2 7 4 1 9 51 121 147 136 113 104 97 95 100 101 93 88 104 118 111 109 115 110 102 91 89 98 94 88 86 85 97 100 103 98 104 112 108 97 112 96 85 83 83 95 92 92 86 84 84 109 115 112 116 115 109 97 89 91 91 101 97 90 96 96 102 124 114 107 120 133 124 102 95 97 95 107 138 126 96 31 1 0 0 0 0 2 6 2 0 0 0 0 0 0 0 0 0 0 0 0 0 0 0 0 0 0 0 0 0 0 0 0 0 0 0 0 0 0 
0 0 0 0 0 0 0 0 0 2 6 9 4 7 40 112 143 134 110 100 94 93 102 99 96 91 105 114 113 127 128 115 102 99 94 92 91 88 88 88 96 89 91 100 118 118 112 104 110 86 84 85 84 97 89 83 89 86 94 114 111 105 115 133 125 110 101 97 98 99 93 88 95 103 102 121 124 127 122 127 133 110 97 95 95 115 137 122 89 25 0 0 0 0 0 2 6 2 0 0 0 0 0 0 0 0 0 0 0 0 0 0 0 0 0 0 0 0 0 0 0 0 0 0 0 0 0 0 
0 0 0 0 0 0 0 0 0 0 3 12 3 6 30 99 139 138 111 103 96 97 98 99 97 95 110 112 115 128 122 122 111 99 100 99 98 97 96 96 98 98 105 119 109 106 106 109 101 81 79 80 81 100 87 78 77 75 87 111 125 116 116 123 131 128 129 123 124 117 113 115 125 123 119 126 112 120 127 129 132 121 99 92 103 124 133 109 82 16 1 0 1 8 4 2 6 2 0 0 0 0 0 0 0 0 0 0 0 0 0 0 0 0 0 0 0 0 0 0 0 0 0 0 0 0 0 0 
0 0 0 0 0 0 0 0 0 0 3 9 4 6 24 89 133 143 114 107 105 96 91 99 100 100 115 108 117 123 119 128 124 114 109 111 118 122 117 115 115 107 97 91 100 99 85 98 104 78 79 83 81 96 85 71 72 75 88 110 132 116 108 113 121 126 138 146 148 147 141 139 136 124 127 134 125 127 126 133 132 125 113 106 107 131 125 106 75 11 3 2 4 1 1 2 6 2 0 0 0 0 0 0 0 0 0 0 0 0 0 0 0 0 0 0 0 0 0 0 0 0 0 0 0 0 0 0 
0 0 0 0 0 0 0 0 0 0 2 8 7 7 19 78 126 148 129 107 104 90 93 94 104 108 117 107 116 122 115 121 115 110 113 128 138 129 122 115 112 102 93 94 98 85 82 101 107 82 77 86 84 99 89 76 73 83 97 121 130 120 109 111 114 120 131 138 139 147 145 135 127 123 134 124 136 138 137 137 134 132 118 123 142 134 109 103 65 7 4 4 7 1 0 2 7 2 0 0 0 0 0 0 0 0 0 0 0 0 0 0 0 0 0 0 0 0 0 0 0 0 0 0 0 0 0 0 
0 0 0 0 0 0 0 0 0 0 1 7 9 9 14 67 117 146 142 113 104 93 101 103 112 115 115 117 112 123 117 121 127 122 111 118 123 127 134 134 126 111 95 92 81 85 79 91 109 96 87 81 91 105 99 78 79 98 111 114 116 123 121 113 113 121 136 142 137 131 145 140 140 151 140 134 131 142 155 153 146 144 141 149 157 135 102 102 51 6 2 2 4 1 0 2 7 2 0 0 0 0 0 0 0 0 0 0 0 0 0 0 0 0 0 0 0 0 0 0 0 0 0 0 0 0 0 0 
0 0 0 0 0 0 0 0 0 0 0 6 10 10 14 53 109 142 145 131 109 106 119 114 119 127 120 129 130 120 122 133 139 147 147 130 125 133 130 124 114 106 107 85 77 82 88 99 110 92 93 91 90 115 100 88 91 102 109 104 118 116 119 113 113 128 152 158 147 150 154 154 152 144 121 121 125 149 164 160 163 168 163 168 164 124 110 99 33 6 3 1 2 1 0 2 6 2 0 0 0 0 0 0 0 0 0 0 0 0 0 0 0 0 0 0 0 0 0 0 0 0 0 0 0 0 0 0 
0 0 0 0 0 0 0 0 0 0 1 7 10 8 10 36 101 139 144 149 133 141 134 128 133 142 137 129 136 124 129 149 157 149 153 144 139 132 129 123 115 111 111 98 88 89 110 111 101 92 90 102 105 124 101 95 92 97 107 110 118 116 106 109 107 115 141 155 147 148 146 139 142 119 114 126 128 139 162 172 168 169 175 170 151 117 113 82 17 4 5 1 2 1 0 2 6 2 0 0 0 0 0 0 0 0 0 0 0 0 0 0 0 0 0 0 0 0 0 0 0 0 0 0 0 0 0 0 
0 0 0 0 0 0 0 0 0 0 0 4 11 8 7 13 58 123 140 145 152 162 168 153 151 155 146 137 141 145 142 154 159 150 156 154 148 139 124 109 104 106 111 113 107 98 109 111 103 93 93 101 102 113 117 101 90 96 98 107 111 103 102 101 106 114 117 135 137 143 128 127 135 121 123 128 139 143 145 148 165 167 165 160 148 117 109 89 17 5 8 4 0 1 0 1 6 2 0 0 0 0 0 0 0 0 0 0 0 0 0 0 0 0 0 0 0 0 0 0 0 0 0 0 0 0 0 0 
0 0 0 0 0 0 0 0 0 0 0 5 9 6 5 8 36 110 146 145 152 171 165 167 162 153 145 145 143 131 131 147 157 152 147 151 152 145 122 97 89 94 103 111 106 101 107 104 98 92 96 104 103 112 114 98 86 80 89 94 96 86 89 103 114 116 115 124 138 129 111 115 112 119 128 129 133 143 137 129 142 165 156 134 125 123 109 60 7 3 7 5 0 1 0 1 6 1 0 0 0 0 0 0 0 0 0 0 0 0 0 0 0 0 0 0 0 0 0 0 0 0 0 0 0 0 0 0 
0 0 0 0 0 0 0 0 0 0 0 5 5 6 5 9 22 86 142 143 141 153 157 141 153 157 152 145 137 143 124 126 131 152 156 152 147 138 129 117 97 88 96 103 95 93 105 86 86 95 98 91 91 110 115 98 75 75 88 83 92 99 108 114 109 103 108 121 134 133 126 129 113 129 134 131 134 150 136 124 133 151 128 121 127 134 105 31 5 4 6 5 1 1 0 1 6 1 0 0 0 0 0 0 0 0 0 0 0 0 0 0 0 0 0 0 0 0 0 0 0 0 0 0 0 0 0 0 
0 0 0 0 0 0 0 0 0 0 0 4 4 6 6 9 15 58 129 139 133 132 138 133 130 148 156 139 129 149 119 113 125 138 156 152 141 130 134 132 107 97 93 90 84 97 113 93 103 102 95 92 89 95 110 114 88 85 92 81 105 123 132 130 101 86 93 103 114 130 129 113 110 136 142 147 153 150 131 123 117 123 121 124 127 116 75 17 8 5 8 1 3 1 0 1 6 1 0 0 0 0 0 0 0 0 0 0 0 0 0 0 0 0 0 0 0 0 0 0 0 0 0 0 0 0 0 0 
0 0 0 0 0 0 0 0 0 0 1 2 4 6 6 9 14 32 105 135 124 121 134 135 135 137 131 123 124 143 139 122 122 126 134 139 137 133 128 108 96 97 102 104 102 108 126 118 114 114 105 98 89 89 114 124 118 107 104 108 113 117 127 123 117 94 81 81 103 116 113 120 136 134 147 157 165 153 141 132 129 125 111 112 113 105 40 9 6 7 8 1 3 3 0 1 6 1 0 0 0 0 0 0 0 0 0 0 0 0 0 0 0 0 0 0 0 0 0 0 0 0 0 0 0 0 0 0 
0 0 0 0 0 0 0 0 0 0 1 2 1 6 5 12 16 18 77 116 111 112 126 136 133 132 127 125 126 141 147 137 111 110 121 133 137 134 117 92 81 98 100 109 111 108 118 120 120 121 128 128 113 109 140 137 117 100 102 110 113 119 121 125 119 97 76 80 92 110 121 139 128 121 138 154 164 156 164 158 141 114 95 89 99 84 20 12 4 5 7 3 4 3 0 1 5 1 0 0 0 0 0 0 0 0 0 0 0 0 0 0 0 0 0 0 0 0 0 0 0 0 0 0 0 0 0 0 
0 0 0 0 0 0 0 0 0 0 1 2 2 4 2 7 14 12 46 113 124 117 126 143 140 134 131 127 138 139 137 130 121 112 104 106 115 114 106 97 91 101 102 110 119 125 119 128 126 128 135 143 150 152 151 134 131 134 126 120 120 133 134 134 123 104 95 89 93 125 119 108 119 110 128 154 164 161 171 164 137 108 89 87 102 55 12 13 7 4 5 3 3 2 0 1 5 1 0 0 0 0 0 0 0 0 0 0 0 0 0 0 0 0 0 0 0 0 0 0 0 0 0 0 0 0 0 0 
0 0 0 0 0 0 0 0 0 0 1 2 5 4 2 5 12 12 25 97 121 108 117 125 148 147 154 136 141 143 145 139 128 124 106 112 108 93 87 103 106 117 116 117 132 143 136 142 138 140 148 155 165 167 166 161 156 154 145 144 141 157 156 146 133 124 118 103 117 130 111 106 120 111 119 153 163 177 176 160 125 97 74 73 90 30 9 13 7 4 4 0 1 2 0 0 5 1 0 0 0 0 0 0 0 0 0 0 0 0 0 0 0 0 0 0 0 0 0 0 0 0 0 0 0 0 0 0 
0 0 0 0 0 0 0 0 0 0 0 2 5 3 0 5 11 13 15 66 116 116 111 116 137 156 159 144 139 141 147 148 128 121 114 112 108 101 95 100 133 128 123 122 131 145 145 149 144 140 142 146 141 145 150 148 143 136 139 146 144 151 160 160 148 140 138 130 135 109 104 107 110 117 113 137 162 178 165 137 123 107 69 87 73 18 9 9 5 4 4 0 1 2 1 0 5 1 0 0 0 0 0 0 0 0 0 0 0 0 0 0 0 0 0 0 0 0 0 0 0 0 0 0 0 0 0 0 
0 0 0 0 0 0 0 0 0 0 1 4 4 1 0 5 9 11 14 39 92 107 107 109 124 153 159 146 143 146 143 141 135 118 107 111 113 116 120 126 134 145 141 137 149 155 150 165 159 145 132 135 133 137 141 147 137 132 136 145 139 150 175 171 167 164 143 142 141 113 103 99 102 117 125 136 148 168 152 123 109 99 97 94 62 15 9 6 6 3 4 0 1 2 1 0 5 1 0 0 0 0 0 0 0 0 0 0 0 0 0 0 0 0 0 0 0 0 0 0 0 0 0 0 0 0 0 0 
0 0 0 0 0 0 0 0 0 0 1 5 12 11 4 4 8 8 12 28 81 113 118 100 112 132 154 154 150 138 137 126 127 120 110 106 109 112 116 124 131 157 172 170 166 170 170 174 157 147 138 144 151 148 146 145 148 146 143 142 138 151 160 166 175 162 148 152 149 110 84 92 105 121 138 154 148 150 143 124 93 94 95 84 56 15 8 3 6 3 3 1 2 2 1 0 5 0 0 0 0 0 0 0 0 0 0 0 0 0 0 0 0 0 0 0 0 0 0 0 0 0 0 0 0 0 0 0 
0 0 0 0 0 0 0 0 0 0 0 4 12 13 10 6 6 10 16 20 61 97 108 105 103 116 146 146 162 144 122 130 127 103 103 104 104 114 119 120 128 149 166 170 162 155 167 164 153 154 155 159 160 159 151 126 127 132 130 120 125 145 141 157 174 158 159 163 153 116 93 92 102 113 154 168 165 163 148 99 80 82 97 89 40 16 4 3 4 6 2 2 2 2 0 0 4 0 0 0 0 0 0 0 0 0 0 0 0 0 0 0 0 0 0 0 0 0 0 0 0 0 0 0 0 0 0 0 
0 0 0 0 0 0 0 0 0 0 0 3 10 12 8 8 7 14 16 16 33 86 111 100 92 114 143 154 158 145 131 130 138 108 92 100 105 107 101 101 112 140 151 162 165 150 150 145 145 148 160 165 161 157 134 108 108 121 124 118 124 145 139 154 160 150 162 168 157 128 102 100 104 132 155 159 166 154 137 92 75 64 75 66 20 15 8 4 4 6 7 6 5 4 2 0 4 0 0 0 0 0 0 0 0 0 0 0 0 0 0 0 0 0 0 0 0 0 0 0 0 0 0 0 0 0 0 0 
0 0 0 0 0 0 0 0 0 0 0 2 10 10 9 9 9 10 13 14 17 48 102 94 96 106 125 143 158 159 146 130 129 114 101 91 90 95 98 98 118 146 148 145 152 146 144 139 136 133 140 139 132 151 150 129 123 128 121 118 132 150 144 162 166 162 173 166 157 137 133 115 131 139 143 143 119 95 103 65 59 78 92 36 11 8 9 5 7 4 5 7 11 5 3 0 4 0 0 0 0 0 0 0 0 0 0 0 0 0 0 0 0 0 0 0 0 0 0 0 0 0 0 0 0 0 0 0 
0 0 0 0 0 0 0 0 0 0 0 0 10 10 8 7 7 5 9 14 19 26 70 91 79 79 102 133 148 164 162 141 136 129 110 95 95 96 105 120 141 166 168 164 157 169 167 165 160 158 158 154 161 185 186 160 153 166 169 160 170 173 176 181 159 158 163 185 172 176 161 140 136 134 114 92 85 75 90 70 88 94 52 17 11 1 1 4 3 5 4 5 7 5 0 0 3 0 0 0 0 0 0 0 0 0 0 0 0 0 0 0 0 0 0 0 0 0 0 0 0 0 0 0 0 0 0 0 
0 0 0 0 0 0 0 0 0 0 0 0 3 8 4 4 3 3 6 10 17 19 33 73 73 61 81 105 103 145 146 145 144 136 128 109 108 114 130 131 166 168 176 196 174 183 173 187 177 167 176 189 188 186 182 177 170 171 180 181 183 189 192 186 196 200 183 176 148 140 155 154 117 91 76 75 83 75 77 70 72 46 29 22 13 2 0 0 1 2 5 6 6 0 0 0 3 0 0 0 0 0 0 0 0 0 0 0 0 0 0 0 0 0 0 0 0 0 0 0 0 0 0 0 0 0 0 0 
0 0 0 0 0 0 0 0 0 0 0 0 0 3 3 2 2 0 1 7 15 19 22 45 73 71 56 57 62 80 89 102 130 137 125 128 120 135 150 151 158 159 164 172 190 177 185 179 170 168 164 176 173 167 164 166 158 161 162 165 160 177 177 169 172 186 188 178 166 147 129 103 87 74 68 75 90 87 62 45 42 43 40 27 17 0 0 0 0 1 2 7 6 0 0 0 3 0 0 0 0 0 0 0 0 0 0 0 0 0 0 0 0 0 0 0 0 0 0 0 0 0 0 0 0 0 0 0 
0 0 0 0 0 0 0 0 0 0 0 0 0 2 5 4 4 4 2 4 10 14 19 22 36 54 37 48 61 67 61 63 92 103 75 78 81 77 79 71 83 121 138 140 124 131 140 112 118 94 105 122 130 126 113 113 96 85 96 87 87 115 97 121 154 144 106 75 65 66 58 65 78 55 55 75 86 82 49 29 27 24 21 8 2 0 4 3 1 1 1 7 5 0 0 0 3 0 0 0 0 0 0 0 0 0 0 0 0 0 0 0 0 0 0 0 0 0 0 0 0 0 0 0 0 0 0 0 
0 0 0 0 0 0 0 0 0 0 0 0 0 0 3 3 3 2 4 1 6 10 14 17 21 22 23 38 64 70 55 60 72 92 67 52 64 57 58 56 66 75 74 77 93 90 74 61 71 79 60 76 86 81 83 92 78 64 77 68 80 100 96 87 72 86 84 83 81 88 57 57 80 52 47 70 89 81 48 29 26 25 16 7 2 1 1 1 2 3 3 5 1 0 0 0 3 0 0 0 0 0 0 0 0 0 0 0 0 0 0 0 0 0 0 0 0 0 0 0 0 0 0 0 0 0 0 0 
0 0 0 0 0 0 0 0 0 0 0 0 0 0 0 0 0 1 0 0 3 9 11 14 21 27 27 39 70 75 60 56 64 89 75 64 75 76 124 114 120 130 104 105 101 93 83 89 98 86 68 92 102 98 95 94 84 81 109 113 108 113 98 91 104 130 98 84 92 86 76 90 104 77 64 78 91 84 48 35 32 26 17 12 2 0 0 0 0 1 2 1 0 0 0 0 3 1 0 0 0 0 0 0 0 0 0 0 0 0 0 0 0 0 0 0 0 0 0 0 0 0 0 0 0 0 0 0 
0 0 0 0 0 0 0 0 0 0 0 0 0 0 0 0 0 0 0 0 0 5 6 8 13 33 39 51 84 86 74 63 63 86 73 76 91 126 132 134 147 163 164 151 142 151 156 156 147 118 108 121 117 113 112 118 118 117 131 139 136 151 143 140 155 141 128 128 91 117 99 104 93 83 94 87 86 83 52 36 26 14 7 4 0 0 0 0 0 0 0 0 0 0 0 0 2 1 0 0 0 0 0 0 0 0 0 0 0 0 0 0 0 0 0 0 0 0 0 0 0 0 0 0 0 0 0 0 
0 0 0 0 0 0 0 0 0 0 0 0 0 0 0 0 0 0 0 0 0 3 5 4 7 23 34 47 73 81 70 69 81 96 107 111 118 129 116 126 162 179 179 168 176 185 155 175 170 159 144 142 142 143 151 158 170 165 156 145 145 173 171 159 172 152 158 107 131 123 110 110 93 95 83 78 75 65 38 28 29 13 12 4 0 0 0 0 0 0 0 0 0 0 0 0 2 2 0 0 0 0 0 0 0 0 0 0 0 0 0 0 0 0 0 0 0 0 0 0 0 0 0 0 0 0 0 0 
0 0 0 0 0 0 0 0 0 0 0 0 0 0 0 0 0 0 0 0 0 0 2 3 7 19 28 34 51 70 71 59 62 66 57 64 101 106 91 117 119 110 129 107 123 150 136 163 163 147 140 134 128 116 122 117 140 140 132 131 145 153 148 145 150 142 151 136 138 141 89 53 42 51 66 86 85 56 32 30 15 5 5 1 0 0 0 0 0 0 0 0 0 0 2 3 8 6 0 0 0 0 0 0 0 0 0 0 0 0 0 0 0 0 0 0 0 0 0 0 0 0 0 0 0 0 0 0 
0 0 0 0 0 0 0 0 0 0 0 0 0 0 0 0 0 0 0 0 0 0 3 7 9 15 19 21 37 52 69 67 57 73 50 48 53 79 72 121 113 99 95 87 101 124 125 127 118 132 123 106 108 102 107 85 100 109 114 104 109 130 133 101 110 114 133 125 114 108 92 51 38 51 63 102 88 49 25 18 16 10 6 0 0 0 0 0 0 0 0 0 0 0 0 0 4 1 0 0 0 0 0 0 0 0 0 0 0 0 0 0 0 0 0 0 0 0 0 0 0 0 0 0 0 0 0 0 
0 0 0 0 0 0 0 0 0 0 0 0 0 0 0 0 0 0 0 0 0 0 1 7 8 13 19 20 28 41 62 75 67 76 50 39 47 60 82 98 101 94 95 99 105 121 131 126 113 123 121 95 95 87 87 90 105 108 114 102 97 114 103 90 89 101 117 122 123 102 89 62 49 62 74 100 86 54 24 18 17 11 6 0 0 0 0 0 0 0 0 0 0 0 0 0 3 0 0 0 0 0 0 0 0 0 0 0 0 0 0 0 0 0 0 0 0 0 0 0 0 0 0 0 0 0 0 0 
0 0 0 0 0 0 0 0 0 0 0 0 0 0 0 0 0 0 0 0 0 0 1 4 8 10 16 21 23 39 57 75 69 77 49 43 52 58 76 96 92 79 89 91 100 115 124 125 115 120 120 101 104 94 89 94 107 109 127 116 91 114 104 89 92 93 107 110 110 102 84 58 42 57 85 105 83 56 24 18 15 11 5 0 0 0 0 0 0 0 0 0 0 0 0 0 3 0 0 0 0 0 0 0 0 0 0 0 0 0 0 0 0 0 0 0 0 0 0 0 0 0 0 0 0 0 0 0 
0 0 0 0 0 0 0 0 0 0 0 0 0 0 0 0 0 0 0 0 0 0 0 3 7 9 12 19 22 35 54 71 72 77 55 60 68 59 58 68 67 73 86 85 91 106 107 112 118 125 118 103 102 101 91 89 102 104 110 109 105 135 122 96 94 95 96 106 100 101 87 69 68 61 93 105 76 48 27 18 14 10 3 0 0 0 0 0 0 0 0 0 0 0 0 0 3 0 0 0 0 0 0 0 0 0 0 0 0 0 0 0 0 0 0 0 0 0 0 0 0 0 0 0 0 0 0 0 
0 0 0 0 0 0 0 0 0 0 0 0 0 0 0 0 0 0 0 0 0 0 0 0 6 7 11 16 20 29 50 65 76 80 60 72 64 49 58 57 56 81 86 94 96 104 97 101 121 118 104 98 95 97 84 82 88 93 91 106 128 128 128 112 99 102 94 88 94 88 82 68 80 77 94 107 81 51 28 17 15 9 2 0 0 0 0 0 0 0 0 0 0 0 0 0 2 0 0 0 0 0 0 0 0 0 0 0 0 0 0 0 0 0 0 0 0 0 0 0 0 0 0 0 0 0 0 0 
0 0 0 0 0 0 0 0 0 0 0 0 0 0 0 0 0 0 0 0 0 0 0 0 2 6 8 13 18 23 36 51 72 79 70 79 61 56 57 50 65 74 80 103 94 97 101 94 97 106 99 104 98 92 86 81 83 92 98 107 117 104 107 120 115 105 104 77 79 70 64 66 72 90 94 102 78 47 19 15 15 9 1 0 0 0 0 0 0 0 0 0 0 0 0 0 2 0 0 0 0 0 0 0 0 0 0 0 0 0 0 0 0 0 0 0 0 0 0 0 0 0 0 0 0 0 0 0 
0 0 0 0 0 0 0 0 0 0 0 0 0 0 0 0 0 0 0 0 0 0 0 0 1 5 6 11 16 19 29 50 63 70 76 78 66 64 52 46 61 74 82 90 89 98 105 86 78 94 96 103 102 91 87 88 87 97 101 106 107 97 88 102 107 93 94 86 79 64 54 74 73 89 91 85 46 21 16 15 16 8 1 0 0 0 0 0 0 0 0 0 0 0 0 0 2 0 0 0 0 0 0 0 0 0 0 0 0 0 0 0 0 0 0 0 0 0 0 0 0 0 0 0 0 0 0 0 
0 0 0 0 0 0 0 0 0 0 0 0 0 0 0 0 0 0 0 0 0 0 0 0 0 2 6 8 14 19 21 32 42 44 69 83 78 64 50 44 57 78 76 71 84 91 104 81 75 97 106 103 110 111 106 94 95 107 109 101 94 88 79 96 103 86 81 76 85 65 51 70 86 98 94 44 18 17 17 17 15 7 1 0 0 0 0 0 0 0 0 0 0 0 0 0 2 0 0 0 0 0 0 0 0 0 0 0 0 0 0 0 0 0 0 0 0 0 0 0 0 0 0 0 0 0 0 0 
0 0 0 0 0 0 0 0 0 0 0 0 0 0 0 0 0 0 0 0 0 0 0 0 0 0 6 5 10 16 19 17 18 16 33 81 83 61 58 55 57 72 61 66 76 75 97 82 73 96 97 97 99 103 94 93 105 108 98 88 88 87 84 102 99 74 72 63 82 68 63 70 82 105 70 25 17 15 17 17 13 6 1 0 0 0 0 0 0 0 0 0 0 0 0 0 1 0 0 0 0 0 0 0 0 0 0 0 0 0 0 0 0 0 0 0 0 0 0 0 0 0 0 0 0 0 0 0 
0 0 0 0 0 0 0 0 0 0 0 0 0 0 0 0 0 0 0 0 0 0 0 0 0 0 1 7 8 12 17 16 17 18 11 35 73 70 70 55 66 84 58 69 74 67 93 82 81 96 92 93 100 101 96 94 103 110 91 83 94 94 97 102 103 74 82 67 88 83 71 81 81 78 36 20 15 16 17 17 12 6 1 0 0 0 0 0 0 0 0 0 0 0 0 0 1 0 0 0 0 0 0 0 0 0 0 0 0 0 0 0 0 0 0 0 0 0 0 0 0 0 0 0 0 0 0 0 
0 0 0 0 0 0 0 0 0 0 0 0 0 0 0 0 0 0 0 0 0 0 0 0 0 0 1 3 5 8 16 17 16 17 13 12 40 68 76 74 87 87 61 75 79 81 103 83 78 94 87 86 96 98 99 106 120 119 102 93 108 114 91 92 108 84 81 74 85 105 88 85 76 38 26 19 15 17 17 16 12 6 1 0 0 0 0 0 0 0 0 0 0 0 0 0 1 0 0 0 0 0 0 0 0 0 0 0 0 0 0 0 0 0 0 0 0 0 0 0 0 0 0 0 0 0 0 0 
0 0 0 0 0 0 0 0 0 0 0 0 0 0 0 0 0 0 0 0 0 0 0 0 0 0 0 2 5 7 12 16 17 16 12 11 17 35 64 82 88 89 75 79 90 104 106 90 78 96 93 87 93 99 106 118 126 118 110 100 98 96 93 92 107 98 94 88 87 104 88 71 39 27 22 16 16 17 17 15 11 6 1 0 0 0 0 0 0 0 0 0 0 0 0 0 1 0 0 0 0 0 0 0 0 0 0 0 0 0 0 0 0 0 0 0 0 0 0 0 0 0 0 0 0 0 0 0 
0 0 0 0 0 0 0 0 0 0 0 0 0 0 0 0 0 0 0 0 0 0 0 0 0 0 0 0 5 5 11 15 16 17 12 11 16 22 27 47 64 84 86 90 101 108 105 96 88 103 96 83 89 100 113 123 124 119 114 110 103 99 109 106 111 107 103 98 94 81 53 33 29 27 21 17 16 16 15 15 11 5 1 0 0 0 0 0 0 0 0 0 0 0 0 0 1 0 0 0 0 0 0 0 0 0 0 0 0 0 0 0 0 0 0 0 0 0 0 0 0 0 0 0 0 0 0 0 
0 0 0 0 0 0 0 0 0 0 0 0 0 0 0 0 0 0 0 0 0 0 0 0 0 0 0 0 1 7 7 13 16 18 13 11 13 21 25 29 38 58 84 87 101 108 107 100 96 103 104 100 101 104 107 109 111 109 115 111 107 100 106 118 118 106 102 93 82 48 30 28 30 24 21 19 15 14 14 14 10 5 1 0 0 0 0 0 0 0 0 0 0 0 0 0 1 0 0 0 0 0 0 0 0 0 0 0 0 0 0 0 0 0 0 0 0 0 0 0 0 0 0 0 0 0 0 0 
0 0 0 0 0 0 0 0 0 0 0 0 0 0 0 0 0 0 0 0 0 0 0 0 0 0 0 0 0 7 6 10 16 17 15 11 13 19 26 29 32 32 40 61 85 93 97 106 96 96 105 107 105 98 91 92 97 95 107 104 103 110 109 117 116 97 88 64 44 38 29 27 28 22 17 17 14 15 14 13 9 5 1 0 0 0 0 0 0 0 0 0 0 0 0 0 1 0 0 0 0 0 0 0 0 0 0 0 0 0 0 0 0 0 0 0 0 0 0 0 0 0 0 0 0 0 0 0 
0 0 0 0 0 0 0 0 0 0 0 0 0 0 0 0 0 0 0 0 0 0 0 0 0 0 0 0 0 4 7 8 14 17 15 13 12 17 26 30 31 31 30 37 50 67 77 90 89 87 99 100 93 90 87 90 94 94 97 102 108 107 100 101 95 81 58 49 43 36 28 26 27 22 17 14 15 14 15 12 8 4 1 0 0 0 0 0 0 0 0 0 0 0 0 0 1 0 0 0 0 0 0 0 0 0 0 0 0 0 0 0 0 0 0 0 0 0 0 0 0 0 0 0 0 0 0 0 
