P2
128 99
255
0 0 0 0 0 0 0 0 0 0 0 0 0 0 0 0 0 0 0 0 0 0 0 0 0 0 0 0 0 0 0 0 0 0 0 0 0 0 0 0 2 4 3 1 0 0 0 0 0 0 0 0 0 0 0 0 0 0 0 0 0 0 0 0 0 0 0 0 0 0 0 0 0 0 0 0 0 0 0 0 0 0 0 1 4 2 1 0 0 0 0 0 0 0 0 0 0 0 0 0 0 0 0 0 0 0 0 0 0 0 0 0 0 0 0 0 0 0 0 0 0 0 0 0 0 0 0 0 
0 0 0 0 0 0 0 0 0 0 0 0 0 0 0 0 0 0 0 0 0 0 0 0 0 0 0 0 0 0 0 0 0 0 0 0 0 0 0 0 2 4 3 2 0 0 0 0 0 0 0 0 0 0 0 0 0 0 0 0 0 0 0 0 0 0 0 0 0 0 0 0 0 0 0 0 0 0 0 0 0 0 0 1 3 3 1 0 0 0 0 0 0 0 0 0 0 0 0 0 0 0 0 0 0 0 0 0 0 0 0 0 0 0 0 0 0 0 0 0 0 0 0 0 0 0 0 0 
0 0 0 0 0 0 0 0 0 0 0 0 0 0 0 0 0 0 0 0 0 0 0 0 0 0 0 0 0 0 0 0 0 0 0 0 0 0 0 1 3 4 4 2 0 0 0 0 0 0 0 1 2 1 2 1 0 0 0 0 0 0 0 0 0 0 0 0 0 0 0 0 0 0 0 0 0 0 0 0 0 0 0 2 4 4 1 0 0 0 0 0 0 0 0 0 0 0 0 0 0 0 0 0 0 0 0 0 0 0 0 0 0 0 0 0 0 0 0 0 0 0 0 0 0 0 0 0 
0 0 0 0 0 0 0 0 0 0 0 0 0 0 0 0 0 0 0 0 0 0 0 0 0 0 0 0 0 0 0 0 0 0 0 0 0 0 0 0 2 4 3 1 6 7 6 9 19 25 27 32 37 32 24 17 17 20 21 11 3 0 0 0 0 0 0 0 0 0 0 0 0 0 0 0 0 0 0 0 0 0 0 1 4 4 2 0 0 0 0 0 0 0 0 0 0 0 0 0 0 0 0 0 0 0 0 0 0 0 0 0 0 0 0 0 0 0 0 0 0 0 0 0 0 0 0 0 
0 0 0 0 0 0 0 0 0 0 0 0 0 0 0 0 0 0 0 0 0 0 0 0 0 0 0 0 0 0 0 0 0 0 0 0 0 0 0 0 11 14 12 25 37 40 48 63 83 107 131 147 156 163 160 151 136 113 86 52 26 23 21 4 0 0 0 0 0 0 0 0 0 0 0 0 0 0 0 0 0 0 0 1 3 4 2 0 0 0 0 0 0 0 0 0 0 0 0 0 0 0 0 0 0 0 0 0 0 0 0 0 0 0 0 0 0 0 0 0 0 0 0 0 0 0 0 0 
0 0 0 0 0 0 0 0 0 0 0 0 0 0 0 0 0 0 0 0 0 0 0 0 0 0 0 0 0 0 0 0 0 0 0 0 0 3 11 10 27 43 43 56 88 129 161 189 206 198 178 160 153 154 151 148 150 159 178 196 178 132 79 29 20 20 3 0 0 0 0 0 0 0 0 0 0 0 0 0 0 0 0 1 4 4 2 0 0 0 0 0 0 0 0 0 0 0 0 0 0 0 0 0 0 0 0 0 0 0 0 0 0 0 0 0 0 0 0 0 0 0 0 0 0 0 0 0 
0 0 0 0 0 0 0 0 0 0 0 0 0 0 0 0 0 0 0 0 0 0 0 0 0 0 0 0 0 0 0 0 0 0 0 1 11 17 26 36 52 86 127 161 204 203 166 138 129 126 131 136 139 140 139 139 135 135 129 129 133 153 190 187 132 69 26 17 7 0 0 0 0 0 0 0 0 0 0 0 0 0 0 1 4 4 1 0 0 0 0 0 0 0 0 0 0 0 0 0 0 0 0 0 0 0 0 0 0 0 0 0 0 0 0 0 0 0 0 0 0 0 0 0 0 0 0 0 
0 0 0 0 0 0 0 0 0 0 0 0 0 0 0 0 0 0 0 0 0 0 0 0 0 0 0 0 0 0 0 0 0 0 8 23 29 35 56 102 143 189 210 171 137 125 133 140 141 141 152 164 166 162 159 162 160 158 153 139 133 130 128 139 163 199 172 95 42 21 9 0 0 0 0 0 0 0 0 0 0 0 0 2 4 4 1 0 0 0 0 0 0 0 0 0 0 0 0 0 0 0 0 0 0 0 0 0 0 0 0 0 0 0 0 0 0 0 0 0 0 0 0 0 0 0 0 0 
0 0 0 0 0 0 0 0 0 0 0 0 0 0 0 0 0 0 0 0 0 0 0 0 0 0 0 0 0 0 0 0 3 24 27 29 50 105 148 192 201 155 126 129 140 141 148 152 138 125 122 125 127 117 112 118 142 163 170 176 170 160 149 138 128 128 149 191 182 97 36 24 5 0 0 0 0 0 0 0 0 0 0 2 4 4 1 0 0 0 0 0 0 0 0 0 0 0 0 0 0 0 0 0 0 0 0 0 0 0 0 0 0 0 0 0 0 0 0 0 0 0 0 0 0 0 0 0 
0 0 0 0 0 0 0 0 0 0 0 0 0 0 0 0 0 0 0 0 0 0 0 0 0 0 0 0 0 0 0 22 20 23 38 92 144 190 195 151 125 131 149 162 159 165 162 142 135 140 145 148 150 147 145 140 135 138 154 167 173 177 178 169 153 139 124 127 145 192 168 69 29 13 0 0 0 0 0 0 0 0 0 2 4 4 1 0 0 0 0 0 0 0 0 0 0 0 0 0 0 0 0 0 0 0 0 0 0 0 0 0 0 0 0 0 0 0 0 0 0 0 0 0 0 0 0 0 
0 0 0 0 0 0 0 0 0 0 0 0 0 0 0 0 0 0 0 0 0 0 0 0 0 0 0 0 0 9 23 20 24 71 130 179 204 153 119 128 156 170 167 162 150 135 123 120 127 138 133 127 118 126 136 137 133 132 132 136 154 170 170 174 179 173 161 146 128 128 158 194 120 38 19 4 0 0 0 0 0 0 0 2 4 3 2 0 0 0 0 0 0 0 0 0 0 0 0 0 0 0 0 0 0 0 0 0 0 0 0 0 0 0 0 0 0 0 0 0 0 0 0 0 0 0 0 0 
0 0 0 0 0 0 0 0 0 0 0 0 0 0 0 0 0 0 0 0 0 0 0 0 0 0 0 0 20 18 16 49 113 162 200 169 123 124 156 177 172 160 152 148 136 128 134 137 140 138 107 101 94 99 135 141 139 135 131 131 131 137 157 172 173 174 180 178 164 143 134 137 178 168 62 24 8 0 0 0 0 0 1 2 4 4 2 0 0 0 0 0 0 0 0 0 0 0 0 0 0 0 0 0 0 0 0 0 0 0 0 0 0 0 0 0 0 0 0 0 0 0 0 0 0 0 0 0 
0 0 0 0 0 0 0 0 0 0 0 0 0 0 0 0 0 0 0 0 0 0 0 0 0 0 7 21 13 24 81 135 177 194 139 126 154 177 174 158 151 145 131 105 95 99 114 122 132 114 99 100 97 87 94 107 99 101 104 111 127 136 137 144 159 172 177 183 183 179 160 135 129 159 183 80 26 9 0 0 0 0 0 3 4 4 2 0 0 0 0 0 0 0 0 0 0 0 0 0 0 0 0 0 0 0 0 0 0 0 0 0 0 0 0 0 0 0 0 0 0 0 0 0 0 0 0 0 
0 0 0 0 0 0 0 0 0 0 0 0 0 0 0 0 0 0 0 0 0 0 0 0 0 13 20 10 41 105 140 182 170 132 146 175 186 161 144 146 142 114 96 94 90 90 94 92 68 55 60 71 58 47 49 73 95 96 92 94 104 126 137 134 135 145 159 170 177 182 183 168 140 123 150 189 88 26 11 0 0 0 0 3 4 4 2 0 0 0 0 0 0 0 0 0 0 0 0 0 0 0 0 0 0 0 0 0 0 0 0 0 0 0 0 0 0 0 0 0 0 0 0 0 0 0 0 0 
0 0 0 0 0 0 0 0 0 0 0 0 0 0 0 0 0 0 0 0 0 0 0 0 21 19 9 48 112 139 183 159 139 160 187 185 154 143 146 135 107 94 92 89 90 87 64 48 44 47 48 53 48 49 48 49 57 78 89 94 97 104 126 137 132 127 133 143 159 174 178 184 175 148 131 149 188 95 24 14 0 0 0 2 5 4 2 0 0 0 0 0 0 0 0 0 0 0 0 0 0 0 0 0 0 0 0 0 0 0 0 0 0 0 0 0 0 0 0 0 0 0 0 0 0 0 0 0 
0 0 0 0 0 0 0 0 0 0 0 0 0 0 0 0 0 0 0 0 0 0 6 21 15 9 57 114 142 187 153 145 166 187 165 148 147 143 120 97 89 87 89 85 76 54 53 63 70 81 94 105 116 121 124 122 116 108 99 83 70 66 79 112 135 126 123 124 130 150 164 173 184 182 153 123 150 188 106 30 13 0 0 2 5 5 3 0 0 0 0 0 0 0 0 0 0 0 0 0 0 0 0 0 0 0 0 0 0 0 0 0 0 0 0 0 0 0 0 0 0 0 0 0 0 0 0 0 
0 0 0 0 0 0 0 0 0 0 0 0 0 0 0 0 0 0 0 0 0 8 18 13 11 69 121 130 179 147 151 172 177 152 139 130 120 109 87 90 89 86 92 98 101 125 146 161 173 180 184 188 186 186 187 185 181 182 184 184 173 152 119 88 92 119 123 118 123 128 132 144 162 182 177 148 122 146 186 115 35 11 0 4 4 4 2 0 0 0 0 0 0 0 0 0 0 0 0 0 0 0 0 0 0 0 0 0 0 0 0 0 0 0 0 0 0 0 0 0 0 0 0 0 0 0 0 0 
0 0 0 0 0 0 0 0 0 0 0 0 0 0 0 0 0 0 0 0 8 18 11 15 83 124 129 178 149 149 167 164 140 126 123 119 104 88 91 98 100 132 160 171 178 178 165 161 157 151 145 144 144 147 142 142 140 147 149 156 162 171 176 184 156 110 100 121 119 115 119 116 115 154 174 173 143 120 149 186 113 33 6 3 5 4 2 0 0 0 0 0 0 0 0 0 0 0 0 0 0 0 0 0 0 0 0 0 0 0 0 0 0 0 0 0 0 0 0 0 0 0 0 0 0 0 0 0 
0 0 0 0 0 0 0 0 0 0 0 0 0 0 0 0 0 0 0 8 15 14 17 88 126 121 180 157 147 158 154 134 119 120 123 105 82 78 71 115 168 180 168 154 149 148 146 147 141 135 143 150 147 151 154 157 165 165 159 159 157 153 144 155 173 181 143 94 114 115 113 115 113 114 148 172 176 137 119 166 178 103 26 5 5 5 3 0 0 0 0 0 0 0 0 0 0 0 0 0 0 0 0 0 0 0 0 0 0 0 0 0 0 0 0 0 0 0 0 0 0 0 0 0 0 0 0 0 
0 0 0 0 0 0 0 0 0 0 0 0 0 0 0 0 0 0 6 16 11 18 86 129 122 173 169 142 156 146 125 113 118 129 113 78 57 59 132 180 170 157 164 167 167 165 165 163 160 155 166 180 190 204 210 208 216 216 209 200 187 180 167 156 151 159 180 156 97 110 115 102 109 117 111 139 178 177 135 125 187 154 83 18 6 5 2 0 0 0 0 0 0 0 0 0 0 0 0 0 0 0 0 0 0 0 0 0 0 0 0 0 0 0 0 0 0 0 0 0 0 0 0 0 0 0 0 0 
0 0 0 0 0 0 0 0 0 0 0 0 0 0 0 0 0 0 14 10 14 75 127 120 161 191 141 147 143 117 114 117 123 116 65 43 60 145 177 166 182 201 209 207 198 191 191 193 199 206 198 205 217 227 222 217 217 214 210 214 214 211 199 188 170 151 147 177 146 74 94 111 102 106 115 114 136 182 168 122 150 188 133 58 11 5 2 0 0 0 0 0 0 0 0 0 0 0 0 0 0 0 0 0 0 0 0 0 0 0 0 0 0 0 0 0 0 0 0 0 0 0 0 0 0 0 0 0 
0 0 0 0 0 0 0 0 0 0 0 0 0 0 0 0 0 10 9 11 58 116 122 141 198 148 145 143 115 111 117 121 118 70 43 67 154 191 187 204 218 217 209 205 201 198 196 196 207 184 177 174 177 211 215 196 191 185 189 204 212 198 203 204 190 171 151 159 179 125 58 78 107 107 109 119 115 133 186 152 123 177 158 119 35 7 2 0 0 0 0 0 0 0 0 0 0 0 0 0 0 0 0 0 0 0 0 0 0 1 0 0 0 0 0 0 0 0 0 0 0 0 0 0 0 0 0 0 
0 0 0 0 0 0 0 0 0 0 0 0 0 0 0 0 7 7 10 42 99 118 124 190 168 139 131 121 110 113 119 107 62 47 79 155 203 197 202 203 200 202 197 194 190 187 185 177 159 152 145 140 140 171 180 186 190 188 185 162 169 183 179 183 187 188 176 160 175 171 91 50 67 106 109 108 118 116 144 177 137 144 180 139 98 17 4 0 0 0 0 0 0 0 0 0 0 0 0 0 0 0 0 0 0 0 0 0 0 4 0 0 0 0 0 0 0 0 0 0 0 0 0 0 0 0 0 0 
0 0 0 0 0 0 0 0 0 0 0 0 0 0 0 3 9 7 35 92 116 118 165 186 139 110 121 110 110 122 102 51 55 95 151 202 200 204 192 187 179 157 137 127 129 131 130 133 144 146 164 154 130 141 144 145 148 143 144 139 129 145 166 175 180 194 199 183 174 186 148 69 49 68 106 113 120 116 116 150 158 137 180 152 129 61 5 0 0 0 0 0 0 0 0 0 0 0 0 0 0 0 0 0 0 0 0 0 0 4 0 0 0 0 0 0 0 0 0 0 0 0 0 0 0 0 0 0 
0 0 0 0 0 0 0 0 0 0 0 0 0 0 0 12 4 23 79 112 117 141 192 160 106 110 111 102 118 116 60 51 93 140 190 199 199 192 178 156 136 138 134 125 121 123 124 121 140 148 151 150 136 140 143 146 145 135 139 140 128 128 130 134 159 185 207 204 185 185 174 111 52 47 70 109 118 116 111 128 138 144 166 174 133 107 28 0 0 0 0 0 0 0 0 0 0 0 0 0 0 0 0 0 0 0 0 0 0 2 0 0 0 0 0 0 0 0 0 0 0 0 0 0 0 0 0 0 
0 0 0 0 0 0 0 0 0 0 0 0 0 0 6 8 12 73 94 113 123 174 188 111 90 112 107 116 122 74 53 93 126 175 206 179 194 185 153 127 131 138 137 132 131 120 111 102 113 143 136 136 135 143 143 141 140 144 145 143 136 133 135 135 129 143 168 199 200 191 191 165 81 46 43 77 115 116 111 118 113 128 156 187 135 122 70 2 0 0 0 0 0 0 0 0 0 0 0 0 0 0 0 0 0 0 0 0 0 0 0 0 0 0 0 0 0 0 0 0 0 0 0 0 0 0 0 0 
0 0 0 0 0 0 0 0 0 0 0 0 0 0 10 4 60 88 104 111 147 187 136 96 96 118 115 116 89 51 85 115 156 211 201 172 183 174 144 136 137 137 133 126 132 133 130 122 114 139 139 140 138 142 136 130 133 137 139 141 138 138 135 129 129 126 135 161 183 189 191 195 141 65 45 51 98 115 119 113 115 112 145 195 149 120 97 20 0 0 0 0 0 0 0 0 0 0 0 0 0 0 0 0 0 0 0 0 0 0 0 0 0 0 0 0 0 0 0 0 0 0 0 0 0 0 0 0 
0 0 0 0 0 0 0 0 0 0 0 0 0 0 6 18 100 90 113 123 166 169 115 90 104 121 112 95 60 71 111 142 199 207 194 180 188 169 141 146 151 144 140 134 131 136 136 133 135 140 139 143 144 138 107 86 72 96 126 143 143 141 141 139 142 136 129 143 162 174 193 202 191 119 53 41 70 104 124 118 118 106 132 181 161 122 111 50 0 0 0 0 0 0 0 0 0 0 0 0 0 0 0 0 0 0 0 0 0 0 0 0 0 0 0 0 0 0 0 0 0 0 0 0 0 0 0 0 
0 0 0 0 0 0 0 0 0 0 0 0 0 5 2 63 90 101 113 148 171 146 108 81 113 112 99 88 55 91 127 189 212 192 188 196 176 146 142 148 151 146 137 131 122 127 139 146 150 136 113 117 121 79 61 53 59 69 98 123 140 146 149 144 143 141 135 136 149 162 183 205 200 177 97 46 63 81 109 122 120 98 123 173 173 127 116 67 0 0 0 0 0 0 0 0 0 0 0 0 0 0 0 0 0 0 0 0 0 0 0 0 0 0 0 0 0 0 0 0 0 0 0 0 0 0 0 0 
0 0 0 0 0 0 0 0 0 0 0 0 0 5 6 96 76 109 124 153 152 133 89 88 121 97 87 69 65 112 179 210 193 172 189 179 149 145 148 143 137 115 90 80 76 81 113 142 142 105 85 81 81 65 58 55 58 59 67 82 104 126 140 144 139 132 137 136 143 155 176 205 200 196 161 68 58 68 89 121 123 103 120 175 179 131 121 75 3 0 0 0 0 0 0 0 0 0 0 0 0 0 0 0 0 0 0 0 0 1 0 0 0 0 0 0 0 0 0 0 0 0 0 0 0 0 0 0 
0 0 0 0 0 0 0 0 0 0 0 0 0 4 24 105 85 122 141 145 142 122 84 100 113 88 84 57 82 140 216 201 176 166 178 160 152 146 129 106 88 70 61 61 68 73 76 91 97 75 65 63 65 63 57 56 54 55 59 63 72 88 110 135 145 134 135 138 139 152 184 204 199 190 194 119 56 70 78 114 127 119 116 175 183 135 124 84 9 0 0 0 0 0 0 0 0 0 0 0 0 0 0 0 0 0 0 0 0 3 0 0 0 0 0 0 0 0 0 0 0 0 0 0 0 0 0 0 
0 0 0 0 0 0 0 0 0 0 0 0 2 0 52 90 93 126 150 130 143 112 88 106 98 82 58 69 107 175 221 189 173 179 171 154 140 116 89 74 62 60 62 59 59 61 61 67 68 65 63 61 62 57 57 52 55 55 59 61 62 71 75 96 132 140 131 133 148 160 188 203 202 187 193 169 63 64 67 102 125 125 116 169 184 130 120 94 20 0 0 0 0 0 0 0 0 0 0 0 0 0 0 0 0 0 0 0 0 1 0 0 0 0 0 0 0 0 0 0 0 0 0 0 0 0 0 0 
0 0 0 0 0 0 0 0 0 0 0 0 3 1 72 81 104 132 143 120 139 121 102 100 86 59 54 95 127 182 208 177 173 184 166 153 122 77 60 61 63 62 60 58 59 57 60 58 63 59 61 60 60 56 56 58 60 60 61 61 60 61 65 74 105 140 135 132 157 182 191 197 202 195 182 182 71 52 72 93 122 130 113 156 185 133 122 105 26 0 0 0 0 0 0 0 0 0 0 0 0 0 0 0 0 0 0 0 0 1 0 0 0 0 0 0 0 0 0 0 0 0 0 0 0 0 0 0 
0 0 0 0 0 0 0 0 0 0 0 0 2 3 87 79 113 136 132 117 138 120 100 87 76 50 71 112 142 181 191 169 177 182 180 154 94 59 56 61 63 63 60 57 56 56 57 60 61 61 61 60 58 56 55 55 59 60 60 61 61 56 59 62 82 121 138 130 131 151 179 187 192 198 190 182 76 46 62 90 119 135 119 145 189 145 124 116 32 0 0 0 0 0 0 0 0 0 0 0 0 0 0 0 0 0 0 0 0 0 0 0 0 0 0 0 0 0 0 0 0 0 0 0 0 0 0 0 
0 0 0 0 0 0 0 0 0 0 0 0 1 8 96 81 118 130 124 125 138 116 97 81 77 50 90 131 149 173 186 167 182 183 171 136 77 57 57 60 64 64 59 59 61 58 60 62 63 60 60 63 60 56 56 59 59 63 61 61 58 59 61 65 84 114 144 143 129 134 154 176 187 190 186 178 87 47 50 88 120 131 121 136 183 164 126 125 40 1 0 0 0 0 0 0 0 0 0 0 0 0 0 0 0 0 0 0 0 0 0 0 0 0 0 0 0 0 0 0 0 0 0 0 0 0 0 0 
0 0 0 0 0 0 0 0 0 0 0 0 3 18 92 87 124 144 124 136 145 113 93 82 77 67 113 148 146 163 178 167 180 180 148 114 77 56 61 61 58 60 61 60 59 61 59 64 64 64 65 68 62 61 59 64 64 63 63 61 61 62 65 96 114 113 141 146 138 133 127 141 165 182 179 172 101 55 50 84 109 124 120 133 187 172 129 126 48 4 0 0 0 0 0 0 0 0 0 0 0 0 0 0 0 0 0 0 0 0 0 0 0 0 0 0 0 0 0 0 0 0 0 0 0 0 0 0 
0 0 0 0 0 0 0 0 0 0 0 0 4 19 86 96 130 148 131 152 143 104 85 81 83 87 127 156 141 150 181 166 172 146 126 99 92 98 120 136 107 76 68 72 65 59 60 64 63 64 69 69 70 70 71 74 68 64 61 60 58 72 109 111 112 116 142 158 148 140 133 128 132 165 176 162 119 59 63 84 108 120 116 130 191 179 127 126 67 5 0 0 0 0 0 0 0 0 0 0 0 0 0 0 0 0 0 0 0 0 0 0 0 0 0 0 0 0 0 0 0 0 0 0 0 0 0 0 
0 0 0 0 0 0 0 0 0 0 0 0 3 22 79 106 135 146 129 156 159 112 88 81 89 110 143 159 143 142 176 151 140 136 117 96 95 95 92 94 98 102 119 120 86 58 59 59 61 63 67 71 85 84 85 78 69 62 60 60 76 109 105 73 59 63 104 141 144 135 136 134 134 150 179 157 140 69 84 93 102 99 115 134 198 193 131 127 84 6 0 0 0 0 0 0 0 0 0 0 0 0 0 0 0 0 0 0 0 0 0 0 0 0 0 0 0 0 0 0 0 0 0 0 0 0 0 0 
0 0 0 0 0 0 0 0 0 0 0 0 3 20 78 108 139 148 125 152 169 113 80 70 88 126 159 160 146 144 170 127 130 137 104 65 49 54 55 57 57 54 51 81 107 86 61 59 60 61 68 80 100 105 99 87 71 62 59 88 101 87 54 50 54 62 96 135 145 139 136 135 132 148 185 162 150 109 94 94 97 86 109 137 201 195 136 130 92 11 0 0 0 0 0 0 0 0 0 0 0 0 0 0 0 0 0 0 0 0 0 0 0 0 0 0 0 0 0 0 0 0 0 0 0 0 0 0 
0 0 0 0 0 0 0 0 0 0 0 0 6 22 79 117 140 148 118 149 168 111 84 63 90 130 168 164 138 131 142 128 137 137 92 54 50 57 64 62 61 55 46 49 62 101 83 58 60 68 90 100 123 125 114 93 70 65 81 92 83 51 48 51 56 63 94 133 143 143 139 134 136 150 182 210 183 155 104 101 90 83 104 151 199 198 141 131 99 15 0 0 0 0 0 0 0 0 0 0 0 0 0 0 0 0 0 0 0 0 0 0 0 0 0 0 0 0 0 0 0 0 0 0 0 0 0 0 
0 0 0 0 0 0 0 0 0 0 0 0 8 19 83 123 140 136 96 149 172 123 87 51 91 139 172 167 148 125 136 138 146 131 89 52 49 54 62 65 64 60 49 47 47 60 100 84 74 91 102 136 144 140 134 115 84 79 64 85 53 47 47 50 53 58 91 139 146 146 144 142 144 155 179 202 206 188 149 116 89 82 92 152 196 203 148 131 107 22 0 0 0 0 0 0 0 0 0 0 0 0 0 0 0 0 0 0 0 0 0 0 0 0 0 0 0 0 0 0 0 0 0 0 0 0 0 0 
0 0 0 0 0 0 0 0 0 0 0 0 8 14 87 126 139 133 89 148 175 125 81 46 79 146 181 168 150 123 151 171 142 129 85 51 51 54 58 59 53 54 50 48 47 49 76 61 50 50 64 120 142 118 147 140 85 49 46 70 48 46 46 50 56 59 78 130 146 144 145 143 143 155 166 171 205 193 180 131 89 83 87 136 183 196 160 135 111 31 1 0 0 0 0 0 0 0 0 0 0 0 0 0 0 0 0 0 0 0 0 0 0 0 0 0 0 0 0 0 0 0 0 0 0 0 0 0 
0 0 0 0 0 0 0 0 0 0 0 0 10 12 87 126 138 134 90 149 177 136 63 43 64 147 190 179 159 138 181 175 136 123 75 51 49 53 58 59 58 53 51 46 48 48 59 58 51 53 68 126 112 91 130 129 66 50 57 63 46 47 47 52 56 55 65 115 146 147 144 145 146 160 171 156 189 193 188 172 93 83 87 101 157 184 164 137 116 39 1 0 0 0 0 0 0 0 0 0 0 0 0 0 0 0 0 0 0 0 0 0 0 0 0 0 0 0 0 0 0 0 0 0 0 0 0 0 
0 0 0 0 0 0 0 0 0 0 0 0 12 14 87 126 136 135 94 148 174 123 44 41 59 138 186 176 153 141 192 175 139 111 63 50 54 61 64 62 63 62 49 47 47 49 54 65 51 49 81 125 101 82 92 100 74 51 65 51 45 49 47 56 55 52 64 103 144 149 145 143 147 159 174 148 172 191 198 193 111 86 87 99 132 173 162 133 117 43 2 0 0 0 0 0 0 0 0 0 0 0 0 0 0 0 0 0 0 0 0 0 0 0 0 0 0 0 0 0 0 0 0 0 0 0 0 0 
0 0 0 0 0 0 0 0 0 0 0 0 12 13 79 128 131 139 103 152 156 82 35 42 57 128 180 170 148 139 188 181 135 101 63 55 59 61 62 69 70 68 60 48 46 50 53 54 53 52 79 111 72 78 63 76 95 59 47 46 52 51 66 69 54 55 63 105 141 148 148 145 147 162 173 139 155 186 191 196 133 88 87 99 104 153 162 135 118 46 2 0 0 0 0 0 0 0 0 0 0 0 0 0 0 0 0 0 0 0 0 0 0 0 0 0 0 0 0 0 0 0 0 0 0 0 0 0 
0 0 0 0 0 0 0 0 0 0 0 0 9 11 77 128 132 141 118 157 136 60 33 41 53 113 190 199 158 142 180 197 136 106 68 54 58 58 63 63 70 65 60 47 44 52 51 44 44 53 91 85 45 52 46 58 99 74 50 52 69 70 79 61 53 51 63 107 145 150 145 148 151 166 173 135 164 195 195 199 144 89 86 98 93 151 149 118 115 46 1 0 0 0 0 0 0 0 0 0 0 0 0 0 0 0 0 0 0 0 0 0 0 0 0 0 0 0 0 0 0 0 0 0 0 0 0 0 
0 0 0 0 0 0 0 0 0 0 0 0 8 11 71 128 130 142 132 155 99 58 34 46 48 104 217 217 165 144 167 207 147 107 66 54 59 57 61 68 66 63 67 73 63 63 53 50 45 68 90 70 59 57 54 53 91 105 70 72 65 58 53 52 55 53 65 100 143 151 148 149 151 165 162 142 164 188 184 195 150 90 84 99 81 144 148 126 116 41 1 0 0 0 0 0 0 0 0 0 0 0 0 0 0 0 0 0 0 0 0 0 0 0 0 0 0 0 0 0 0 0 0 0 0 0 0 0 
0 0 0 0 0 0 0 0 0 0 0 0 7 11 65 129 129 138 143 123 87 64 34 48 50 101 225 221 176 152 168 213 161 100 67 56 57 59 61 69 71 67 73 64 59 74 60 57 58 99 96 51 50 42 42 38 60 108 74 58 61 52 46 55 60 59 66 102 140 150 146 144 153 168 142 152 179 179 158 189 156 95 90 99 72 150 150 128 108 32 1 0 0 0 0 0 0 0 0 0 0 0 0 0 0 0 0 0 0 0 0 0 0 0 0 0 0 0 0 0 0 0 0 0 0 0 0 0 
0 0 0 0 0 0 0 0 0 0 0 0 6 12 54 129 129 134 150 130 86 71 37 43 50 91 217 228 182 157 175 211 175 98 70 53 49 60 63 70 71 65 56 56 57 65 58 61 78 99 64 45 45 41 42 39 42 86 99 61 53 53 50 67 61 57 68 107 142 150 147 148 163 165 112 134 142 137 125 179 165 95 89 96 67 160 150 130 98 25 1 0 0 0 0 0 0 0 0 0 0 0 0 0 0 0 0 0 0 0 0 0 0 0 0 0 0 0 0 0 0 0 0 0 0 0 0 0 
0 0 0 0 0 0 0 0 0 0 0 0 4 13 43 129 129 128 148 136 88 76 45 41 54 82 201 230 185 163 171 205 177 101 65 55 51 57 60 65 65 58 55 54 53 59 70 50 84 91 50 44 42 56 61 56 46 56 100 84 54 47 57 78 60 57 67 106 144 148 150 158 170 158 93 135 133 142 126 162 171 94 94 89 68 162 141 127 85 17 1 0 0 0 0 0 0 0 0 0 0 0 0 0 0 0 0 0 0 0 0 0 0 0 0 0 0 0 0 0 0 0 0 0 0 0 0 0 
0 0 0 0 0 0 0 0 0 0 0 0 3 15 34 126 135 122 143 146 87 79 51 37 48 67 189 226 184 160 163 199 187 113 65 52 53 50 60 62 58 52 50 48 51 56 61 73 99 74 42 44 47 60 70 58 55 47 72 102 104 60 70 81 63 49 57 94 134 146 153 161 170 147 88 135 161 172 163 173 182 99 97 77 74 165 122 120 69 11 1 0 0 0 0 0 0 0 0 0 0 0 0 0 0 0 0 0 0 0 0 0 0 0 0 0 0 0 0 0 0 0 0 0 0 0 0 0 
0 0 0 0 0 0 0 0 0 1 4 0 0 13 25 117 138 118 130 149 92 80 54 37 41 56 173 211 175 157 159 194 197 140 74 57 53 58 54 55 55 62 61 51 51 86 94 98 88 56 43 46 50 56 62 55 54 51 49 94 117 105 100 85 69 57 69 109 137 144 148 156 170 133 99 142 122 83 116 195 189 101 97 64 85 154 106 114 58 11 1 0 0 0 0 0 0 0 0 0 0 0 0 0 0 0 0 0 0 0 0 0 0 0 0 0 0 0 0 0 0 0 0 0 0 0 0 0 
0 0 0 0 0 0 0 0 1 10 9 4 0 14 19 101 130 111 101 153 95 82 60 35 38 48 160 193 173 155 150 171 205 177 94 55 48 52 54 57 69 87 93 90 60 74 95 85 92 47 40 58 52 52 53 48 48 53 52 79 108 125 101 83 89 71 83 118 144 144 142 153 167 134 142 137 72 61 57 179 193 110 94 54 118 137 105 107 48 9 0 0 0 0 0 0 0 0 0 0 0 0 0 0 0 0 0 0 0 0 0 0 0 0 0 0 0 0 0 0 0 0 0 0 0 0 0 0 
0 0 0 0 0 0 0 0 0 3 0 6 2 11 14 84 129 129 75 143 111 80 65 40 38 44 157 175 170 149 138 145 188 207 140 59 47 53 56 74 90 82 81 81 78 89 89 95 86 44 48 56 49 52 51 51 47 60 87 104 119 132 114 83 64 66 114 149 150 147 143 161 167 152 147 90 70 53 46 157 198 129 84 77 129 126 116 99 36 7 0 0 0 0 0 0 0 0 0 0 0 0 0 0 0 0 0 0 0 0 0 0 0 0 0 0 0 0 0 0 0 0 0 0 0 0 0 0 
0 0 0 0 0 0 0 0 0 0 0 1 7 9 13 67 127 139 71 114 143 90 79 55 35 50 171 150 163 154 142 140 144 167 162 74 57 65 80 83 90 89 81 86 94 88 84 94 82 45 53 45 47 53 53 54 48 61 87 95 128 132 115 98 86 83 120 146 155 168 171 181 180 142 96 82 68 40 53 148 195 145 94 133 95 137 134 88 30 6 0 0 1 9 1 0 0 0 0 0 0 0 0 0 0 0 0 0 0 0 0 0 0 0 0 0 0 0 0 0 0 0 0 0 0 0 0 0 
0 0 0 0 0 0 0 0 0 0 0 0 4 7 13 52 121 133 75 85 152 113 82 65 36 76 182 134 151 165 159 160 160 154 154 103 98 91 95 94 88 87 76 93 133 106 87 95 80 51 54 53 49 54 56 49 54 62 72 65 102 129 128 102 97 107 145 160 160 157 161 170 121 89 58 56 47 35 67 148 200 164 127 121 65 131 126 87 24 6 5 4 0 0 7 0 0 0 0 0 0 0 0 0 0 0 0 0 0 0 0 0 0 0 0 0 0 0 0 0 0 0 0 0 0 0 0 0 
0 0 0 0 0 0 0 0 0 0 0 0 0 6 14 42 108 125 102 63 138 135 85 78 47 119 163 115 117 171 168 168 170 157 143 108 97 83 91 103 103 84 100 106 119 113 96 99 79 65 61 68 51 60 59 55 67 83 100 82 107 124 106 80 86 132 169 163 159 154 166 157 94 83 69 69 59 63 91 146 209 189 148 90 108 114 94 83 21 6 3 0 0 0 0 0 0 0 0 0 0 0 0 0 0 0 0 0 0 0 0 0 0 0 0 0 0 0 0 0 0 0 0 0 0 0 0 0 
0 0 0 0 0 0 0 0 0 0 0 0 0 6 11 37 96 123 108 53 120 161 101 82 75 146 149 90 89 156 175 172 171 161 156 135 86 70 82 87 91 93 83 74 102 130 118 111 110 97 75 65 55 59 60 90 94 79 106 83 95 106 98 74 89 140 163 149 143 162 178 138 113 116 118 123 112 127 153 162 208 206 169 115 141 114 97 76 18 6 0 0 0 0 0 0 0 0 0 0 0 0 0 0 0 0 0 0 0 0 0 0 0 0 0 0 0 0 0 0 0 0 0 0 0 0 0 0 
0 0 0 0 0 0 0 0 0 0 0 0 1 8 7 39 94 119 124 68 93 185 148 104 105 157 141 59 66 114 181 167 150 150 149 153 129 97 65 63 68 65 58 55 80 117 120 131 125 101 103 112 65 85 94 86 69 80 102 97 107 112 88 68 105 149 149 147 149 167 180 143 146 106 95 86 117 153 155 142 170 217 161 121 140 165 107 80 16 4 0 0 0 0 0 0 0 0 0 0 0 0 0 0 0 0 0 0 0 0 0 0 0 0 0 0 0 0 0 0 0 0 0 0 0 0 0 0 
0 0 0 0 0 0 0 0 0 0 0 0 5 9 7 38 93 113 128 107 103 189 147 140 136 174 154 79 74 90 131 162 153 148 149 160 174 131 88 75 73 59 53 52 67 91 111 125 109 74 116 144 91 110 93 68 60 63 96 96 105 105 97 88 127 151 152 150 165 173 148 128 119 90 84 81 115 129 131 128 168 190 136 143 172 180 112 70 9 4 0 0 0 0 0 0 0 0 0 0 0 0 0 0 0 0 0 0 0 0 0 0 0 0 0 0 0 0 0 0 0 0 0 0 0 0 0 0 
0 0 0 0 0 0 0 0 0 0 0 0 6 9 7 20 57 104 131 123 104 146 154 135 131 168 163 118 129 130 113 99 155 159 144 153 177 166 126 82 69 80 59 54 64 81 99 101 81 82 126 165 129 121 118 76 59 60 64 88 84 96 120 129 175 187 167 159 173 177 151 102 93 65 90 103 120 130 124 96 116 170 164 139 156 154 105 85 12 6 5 0 0 0 0 0 0 0 0 0 0 0 0 0 0 0 0 0 0 0 0 0 0 0 0 0 0 0 0 0 0 0 0 0 0 0 0 0 
0 0 0 0 0 0 0 0 0 0 0 1 11 6 0 18 35 93 129 116 99 118 143 153 172 183 179 164 151 119 104 97 118 163 163 152 151 166 151 126 100 101 90 56 70 95 114 103 67 110 162 155 153 154 150 101 80 61 68 98 74 80 138 172 199 213 208 203 198 189 158 111 65 50 99 131 132 142 132 99 140 192 171 156 180 103 76 58 2 0 7 4 0 0 0 0 0 0 0 0 0 0 0 0 0 0 0 0 0 0 0 0 0 0 0 0 0 0 0 0 0 0 0 0 0 0 0 0 
0 0 0 0 0 0 0 0 0 0 0 0 3 0 0 12 25 73 122 130 106 98 109 145 188 215 229 189 130 105 89 70 55 113 166 166 153 163 163 178 149 119 108 110 101 100 125 99 116 160 152 147 145 156 165 149 104 67 67 99 137 138 170 165 166 179 191 196 182 156 109 89 40 46 115 148 144 149 114 102 162 182 152 175 185 156 88 26 5 0 0 9 0 0 0 0 0 0 0 0 0 0 0 0 0 0 0 0 0 0 0 0 0 0 0 0 0 0 0 0 0 0 0 0 0 0 0 0 
0 0 0 0 0 0 0 0 0 0 0 0 0 0 0 6 18 43 110 115 96 146 125 89 101 170 229 194 155 113 93 105 81 135 130 167 166 164 176 198 175 180 164 140 146 155 164 162 158 155 151 138 144 153 155 177 138 105 104 137 169 157 168 169 174 180 162 108 85 119 81 54 36 77 119 154 161 160 115 95 109 114 143 172 187 150 63 16 7 0 0 2 0 0 0 0 0 0 0 0 0 0 0 0 0 0 0 0 0 0 0 0 0 0 0 0 0 0 0 0 0 0 0 0 0 0 0 0 
0 0 0 0 0 0 0 0 0 0 0 0 0 0 0 8 24 32 95 113 99 160 133 98 118 161 189 172 157 122 107 111 154 186 154 118 149 176 182 167 163 161 155 164 164 158 168 161 152 149 151 135 142 148 162 181 168 157 165 182 169 171 183 180 183 141 79 50 51 73 93 47 49 87 105 128 155 161 168 162 130 101 147 175 138 103 40 19 6 2 0 0 0 0 0 0 0 0 0 0 0 0 0 0 0 0 0 0 0 0 0 0 0 0 0 0 0 0 0 0 0 0 0 0 0 0 0 0 
0 0 0 0 0 0 0 0 0 0 0 0 0 0 1 13 25 30 66 93 101 148 121 107 119 154 182 161 136 108 103 114 159 147 116 121 77 137 180 182 172 163 148 155 172 172 180 166 154 137 134 135 144 161 174 178 167 160 184 187 181 184 196 179 132 84 47 52 49 54 62 91 105 92 99 111 137 132 137 126 136 143 168 181 127 73 39 29 9 9 0 0 0 0 0 0 0 0 0 0 0 0 0 0 0 0 0 0 0 0 0 0 0 0 0 0 0 0 0 0 0 0 0 0 0 0 0 0 
0 0 0 0 0 0 0 0 0 0 0 0 0 0 6 18 23 21 28 85 89 114 110 101 121 148 163 132 120 104 95 124 171 161 145 146 90 64 109 177 180 181 175 173 171 176 189 168 151 143 144 156 163 172 190 194 193 197 179 171 179 175 156 112 58 49 48 44 45 64 84 147 145 98 98 111 116 83 107 124 169 183 184 164 103 47 35 36 15 11 1 0 0 0 0 0 0 0 0 0 0 0 0 0 0 0 0 0 0 0 0 0 0 0 0 0 0 0 0 0 0 0 0 0 0 0 0 0 
0 0 0 0 0 0 0 0 0 0 0 0 0 0 10 20 23 12 17 71 67 96 124 110 100 146 117 75 96 106 99 135 193 184 116 92 80 56 55 80 124 145 154 134 119 132 148 150 166 167 180 196 194 175 167 177 179 173 137 119 107 98 109 97 59 48 45 44 54 102 94 139 169 118 106 108 81 105 171 171 167 183 166 105 86 35 31 40 21 14 1 0 0 0 0 0 0 0 0 0 0 0 0 0 0 0 0 0 0 0 0 0 0 0 0 0 0 0 0 0 0 0 0 0 0 0 0 0 
0 0 0 0 0 0 0 0 0 0 0 0 0 0 11 21 24 7 4 52 66 91 119 108 101 111 96 48 48 90 110 157 184 183 118 83 60 51 51 56 76 55 64 69 73 119 138 110 127 175 197 215 210 207 195 183 180 160 121 105 102 78 66 81 82 59 71 85 106 128 99 109 149 137 103 80 76 164 177 176 139 106 68 75 84 35 30 34 24 17 0 0 0 0 0 0 0 0 0 0 0 0 0 0 0 0 0 0 0 0 0 0 0 0 0 0 0 0 0 0 0 0 0 0 0 0 0 0 
0 0 0 0 0 0 0 0 0 0 0 0 0 0 7 14 16 4 2 32 68 49 89 101 98 103 105 76 42 88 106 163 199 168 103 98 96 86 81 76 91 97 109 109 108 118 91 102 143 165 164 155 162 164 175 175 158 129 86 71 74 104 92 92 108 129 119 132 142 140 116 125 142 118 84 69 105 163 173 174 114 93 46 56 80 34 28 27 26 22 3 0 0 0 0 0 0 0 0 0 0 0 0 0 0 0 0 0 0 0 0 0 0 0 0 0 0 0 0 0 0 0 0 0 0 0 0 0 
0 0 0 0 0 0 0 0 0 0 0 4 6 0 8 16 16 6 4 30 85 81 71 70 105 130 109 103 78 81 77 131 174 140 111 108 105 101 101 104 107 125 146 183 182 166 139 136 156 147 137 124 125 130 127 128 134 139 124 107 114 117 127 110 129 171 187 183 169 146 82 98 160 131 122 106 106 133 162 138 93 46 75 91 72 30 27 28 27 23 7 0 0 0 0 0 0 0 0 0 0 0 0 0 0 0 0 0 0 0 0 0 0 0 0 0 0 0 0 0 0 0 0 0 0 0 0 0 
0 0 0 0 0 0 0 0 0 0 0 5 9 7 9 18 22 17 17 23 85 87 74 56 117 150 112 80 120 121 82 109 125 86 84 99 111 118 116 110 112 124 116 141 201 193 162 142 139 139 125 104 100 109 108 106 110 126 152 144 134 148 158 158 160 198 218 187 172 171 91 105 145 89 151 151 143 147 104 61 33 25 39 86 49 28 24 22 29 20 3 0 0 0 0 0 0 0 0 0 0 0 0 0 0 0 0 0 0 0 0 0 0 0 0 0 0 0 0 0 0 0 0 0 0 0 0 0 
0 0 0 0 0 0 0 0 0 0 0 1 9 10 8 21 24 21 18 16 44 92 79 58 97 118 124 100 113 133 121 116 122 104 61 53 68 93 110 121 124 131 122 121 167 189 171 150 144 137 120 146 162 141 116 110 110 122 147 153 145 174 176 155 147 170 193 160 143 198 123 99 106 114 149 127 142 124 83 68 62 24 17 42 25 21 20 17 24 3 0 0 0 0 0 0 0 0 0 0 0 0 0 0 0 0 0 0 0 0 0 0 0 0 0 0 0 0 0 0 0 0 0 0 0 0 0 0 
0 0 0 0 0 0 0 0 0 0 0 3 9 8 9 6 13 13 14 17 16 59 93 89 91 92 97 106 116 145 159 145 121 105 77 64 70 80 89 102 161 159 107 114 115 151 167 145 108 89 130 161 160 172 149 109 96 97 120 120 128 142 130 175 134 160 228 159 116 197 220 105 136 155 119 94 92 59 66 100 90 94 83 42 15 13 16 18 7 3 0 0 4 4 0 0 0 0 0 0 0 0 0 0 0 0 0 0 0 0 0 0 0 0 0 0 0 0 0 0 0 0 0 0 0 0 0 0 
0 0 0 0 0 0 0 0 0 0 0 0 7 7 0 0 2 13 8 18 17 20 70 91 90 90 85 75 99 142 153 169 149 98 63 69 84 85 134 210 153 81 112 146 126 99 132 119 81 93 127 89 107 151 175 141 79 67 83 102 121 131 167 162 153 150 206 95 92 87 132 141 152 123 89 70 80 71 52 76 121 119 64 8 3 8 12 9 5 5 7 7 7 7 0 0 0 0 0 0 0 0 0 0 0 0 0 0 0 0 0 0 0 0 0 0 0 0 0 0 0 0 0 0 0 0 0 0 
0 0 0 0 0 0 0 0 0 0 0 0 3 8 3 0 0 2 12 16 9 4 22 83 95 66 48 54 56 112 102 145 175 167 139 90 66 81 120 113 142 120 128 242 212 150 149 164 137 114 135 154 168 138 135 146 127 133 139 141 133 125 161 157 172 171 194 141 111 104 120 123 96 60 45 47 54 20 6 19 52 55 34 12 0 4 7 8 4 1 0 2 6 0 0 0 0 0 0 0 0 0 0 0 0 0 0 0 0 0 0 0 0 0 0 0 0 0 0 0 0 0 0 0 0 0 0 0 
0 0 0 0 0 0 0 0 0 0 0 0 0 4 7 0 0 0 0 5 10 12 15 32 48 40 28 16 13 64 52 72 112 130 126 120 126 142 138 145 134 117 126 123 129 115 144 221 187 121 120 179 183 132 107 125 112 91 130 206 211 195 186 132 151 166 202 180 151 130 113 81 77 104 92 62 58 18 2 15 37 35 36 11 10 3 7 7 3 0 0 1 5 0 0 0 0 0 0 0 0 0 0 0 0 0 0 0 0 0 0 0 0 0 0 0 0 0 0 0 0 0 0 0 0 0 0 0 
0 0 0 0 0 0 0 0 0 0 0 0 0 0 1 0 0 0 0 6 11 13 17 19 23 23 20 21 26 69 42 32 58 68 54 64 92 113 148 135 88 66 67 65 70 68 90 135 163 132 82 135 123 103 95 122 108 58 131 136 97 83 86 102 116 133 115 104 70 53 48 53 57 90 55 39 78 41 26 19 26 25 24 9 9 3 7 8 4 0 0 9 5 0 0 0 0 0 0 0 0 0 0 0 0 0 0 0 0 0 0 0 0 0 0 0 0 0 0 0 0 0 0 0 0 0 0 0 
0 0 0 0 0 0 0 0 0 0 0 0 0 0 0 0 0 0 0 0 12 13 10 15 20 20 18 16 30 65 42 50 47 51 55 74 87 87 102 115 115 106 74 77 80 82 81 92 137 106 45 107 106 88 98 136 121 66 104 99 78 76 82 80 98 125 72 85 96 73 42 36 48 84 39 35 68 39 18 22 20 22 17 9 10 1 4 6 3 0 1 7 0 0 0 0 0 0 0 0 0 0 0 0 0 0 0 0 0 0 0 0 0 0 0 0 0 0 0 0 0 0 0 0 0 0 0 0 
0 0 0 0 0 0 0 0 0 0 0 0 0 0 0 0 0 0 0 0 7 13 12 11 19 25 22 18 28 77 40 53 56 57 63 50 40 45 211 84 74 170 106 83 85 87 85 101 152 74 21 109 105 93 103 128 169 128 161 144 112 109 92 55 79 179 221 123 147 121 152 190 200 152 85 54 80 39 28 24 21 12 4 1 0 0 0 2 0 0 0 0 0 0 0 0 0 0 0 0 0 0 0 0 0 0 0 0 0 0 0 0 0 0 0 0 0 0 0 0 0 0 0 0 0 0 0 0 
0 0 0 0 0 0 0 0 0 0 0 0 0 0 0 0 0 0 0 0 0 2 7 0 6 14 22 15 24 69 55 53 82 105 137 161 94 142 135 176 82 113 185 184 98 168 119 177 184 135 97 132 91 71 79 126 179 151 160 185 192 192 176 125 172 239 232 100 72 70 117 232 224 223 211 168 133 98 77 58 49 6 0 0 0 0 0 0 0 0 0 0 0 0 0 0 0 0 0 0 0 0 0 0 0 0 0 0 0 0 0 0 0 0 0 0 0 0 0 0 0 0 0 0 0 0 0 0 
0 0 0 0 0 0 0 0 0 0 0 0 0 0 0 0 0 0 0 0 0 0 0 0 1 17 27 8 7 23 38 76 137 191 240 244 241 140 110 128 136 135 181 107 157 167 161 150 157 193 168 162 121 119 156 178 187 151 180 210 232 255 250 244 177 253 160 60 97 80 35 164 206 219 181 129 115 71 75 74 76 11 3 3 2 1 1 2 0 0 0 0 0 0 0 0 0 0 0 0 0 0 0 0 0 0 0 0 0 0 0 0 0 0 0 0 0 0 0 0 0 0 0 0 0 0 0 0 
0 0 0 0 0 0 0 0 0 0 0 0 0 0 0 0 0 0 0 0 0 0 0 1 0 12 20 20 17 29 52 36 56 32 43 110 214 232 141 118 187 145 181 106 99 135 147 162 169 148 139 143 133 128 141 151 159 179 225 225 222 227 226 233 201 98 114 67 59 62 69 70 57 41 79 84 105 60 56 61 28 1 9 0 4 9 12 14 9 6 0 0 0 0 0 0 0 0 0 0 0 0 0 0 0 0 0 0 0 0 0 0 0 0 0 0 0 0 0 0 0 0 0 0 0 0 0 0 
0 0 0 0 0 0 0 0 0 0 0 0 0 0 0 0 0 0 0 0 0 0 7 10 8 8 21 25 18 25 70 47 68 33 18 23 37 177 35 220 216 193 171 104 84 126 165 151 112 110 81 77 107 97 60 73 87 115 129 115 118 117 128 140 140 163 215 164 45 32 31 35 28 37 47 41 83 29 13 12 12 11 13 4 0 2 8 10 8 4 0 0 0 0 0 0 0 0 0 0 0 0 0 0 0 0 0 0 0 0 0 0 0 0 0 0 0 0 0 0 0 0 0 0 0 0 0 0 
0 0 0 0 0 0 0 0 0 0 0 0 0 0 0 0 0 0 0 0 0 0 5 11 12 11 19 23 20 22 65 73 85 51 29 29 39 42 78 141 138 105 125 121 116 158 138 110 108 82 56 50 50 64 70 64 62 92 109 110 86 108 122 94 91 143 200 210 166 95 57 44 32 34 65 55 70 28 20 22 19 10 12 2 0 1 6 10 10 6 0 0 0 0 0 0 0 0 0 0 0 0 0 0 0 0 0 0 0 0 0 0 0 0 0 0 0 0 0 0 0 0 0 0 0 0 0 0 
0 0 0 0 0 0 0 0 0 0 0 0 0 0 0 0 0 0 0 0 0 0 4 10 12 12 16 22 22 22 54 74 78 71 38 72 131 146 143 120 95 83 88 121 93 125 108 86 101 109 97 83 90 88 86 77 76 94 85 108 108 124 119 104 62 105 142 185 194 172 148 101 64 41 76 63 74 27 22 21 15 10 11 0 0 1 5 9 9 5 0 0 0 0 0 0 0 0 0 0 0 0 0 0 0 0 0 0 0 0 0 0 0 0 0 0 0 0 0 0 0 0 0 0 0 0 0 0 
0 0 0 0 0 0 0 0 0 0 0 0 0 0 0 0 0 0 0 0 0 0 0 10 10 11 14 23 23 23 49 79 68 82 70 148 169 132 78 60 68 59 68 132 102 119 123 117 142 126 137 138 115 98 96 91 87 83 57 119 141 112 120 116 68 109 143 144 189 182 148 150 171 106 79 65 71 28 22 19 14 12 9 0 0 2 6 10 10 7 1 0 0 0 0 0 0 0 0 0 0 0 0 0 0 0 0 0 0 0 0 0 0 0 0 0 0 0 0 0 0 0 0 0 0 0 0 0 
0 0 0 0 0 0 0 0 0 0 0 0 0 0 0 0 0 0 0 0 0 0 0 0 11 12 10 18 23 21 47 67 67 65 83 180 138 63 47 48 46 45 65 158 118 92 109 127 165 137 123 139 122 101 99 96 92 87 100 151 153 98 114 113 91 122 162 95 119 164 140 122 170 178 90 68 70 41 25 18 10 12 4 0 0 1 7 11 12 9 3 0 0 0 0 0 0 0 0 0 0 0 0 0 0 0 0 0 0 0 0 0 0 0 0 0 0 0 0 0 0 0 0 0 0 0 0 0 
0 0 0 0 0 0 0 0 0 0 0 0 0 0 0 0 0 0 0 0 0 0 0 0 6 9 10 16 23 23 47 42 65 46 73 180 115 47 45 45 43 42 98 147 74 55 95 115 128 118 123 136 135 121 111 110 113 120 130 150 136 99 98 104 106 84 144 93 48 74 76 59 118 190 96 76 78 52 25 17 10 9 3 0 0 1 4 8 11 8 3 0 0 0 0 0 0 0 0 0 0 0 0 0 0 0 0 0 0 0 0 0 0 0 0 0 0 0 0 0 0 0 0 0 0 0 0 0 
0 0 0 0 0 0 0 0 0 0 0 0 0 0 0 0 0 0 0 0 0 0 0 0 5 9 8 15 15 22 34 50 66 28 55 172 118 45 49 53 47 57 115 102 58 64 105 109 92 101 128 121 126 135 137 142 148 154 134 127 125 99 100 96 73 70 97 123 62 51 54 52 103 179 71 43 53 25 22 17 13 5 0 0 0 0 3 8 10 9 3 0 0 0 0 0 0 0 0 0 0 0 0 0 0 0 0 0 0 0 0 0 0 0 0 0 0 0 0 0 0 0 0 0 0 0 0 0 
0 0 0 0 0 0 0 0 0 0 0 0 0 0 0 0 0 0 0 0 0 0 0 0 0 7 5 9 15 16 19 40 36 16 41 154 124 48 44 53 54 64 69 60 56 68 109 103 75 92 138 128 123 141 167 174 172 155 143 125 134 103 101 87 58 46 59 79 76 51 43 47 114 177 56 19 12 17 18 17 11 3 0 0 0 0 2 8 11 9 5 0 0 0 0 0 0 0 0 0 0 0 0 0 0 0 0 0 0 0 0 0 0 0 0 0 0 0 0 0 0 0 0 0 0 0 0 0 
0 0 0 0 0 0 0 0 0 0 0 0 0 0 0 0 0 0 0 0 0 0 0 0 0 0 10 2 15 14 17 21 14 10 23 119 148 66 37 47 50 62 54 55 56 61 98 107 82 96 117 113 112 122 137 143 168 154 127 116 122 82 89 85 54 44 46 49 74 54 41 55 119 180 45 15 15 18 19 14 6 1 0 0 0 0 3 9 10 9 5 0 0 0 0 0 0 0 0 0 0 0 0 0 0 0 0 0 0 0 0 0 0 0 0 0 0 0 0 0 0 0 0 0 0 0 0 0 
0 0 0 0 0 0 0 0 0 0 0 0 0 0 0 0 0 0 0 0 0 0 0 0 0 0 10 2 10 15 17 19 19 10 17 58 168 119 47 43 80 77 55 56 59 57 81 112 102 99 103 110 107 105 112 118 163 145 94 80 106 86 88 87 52 42 39 37 76 78 66 89 165 156 27 20 13 17 17 12 2 0 0 0 0 0 1 6 9 9 5 0 0 0 0 0 0 0 0 0 0 0 0 0 0 0 0 0 0 0 0 0 0 0 0 0 0 0 0 0 0 0 0 0 0 0 0 0 
0 0 0 0 0 0 0 0 0 0 0 0 0 0 0 0 0 0 0 0 0 0 0 0 0 0 3 9 5 9 16 17 16 14 18 28 103 176 146 138 124 65 47 54 59 59 74 109 103 90 105 123 131 127 131 145 153 140 115 89 77 81 86 92 58 58 41 36 64 101 167 181 185 64 23 13 7 17 14 5 2 0 0 0 0 0 0 5 8 8 5 1 0 0 0 0 0 0 0 0 0 0 0 0 0 0 0 0 0 0 0 0 0 0 0 0 0 0 0 0 0 0 0 0 0 0 0 0 
0 0 0 0 0 0 0 0 0 0 0 0 0 0 0 0 0 0 0 0 0 0 0 0 0 0 0 9 6 4 11 13 14 18 20 19 22 91 167 182 124 48 39 42 55 62 74 113 106 97 89 109 115 101 108 125 126 120 110 97 96 77 93 106 69 60 67 48 42 88 178 165 68 29 27 12 10 22 9 3 1 0 0 0 0 0 1 5 8 10 6 0 0 0 0 0 0 0 0 0 0 0 0 0 0 0 0 0 0 0 0 0 0 0 0 0 0 0 0 0 0 0 0 0 0 0 0 0 
0 0 0 0 0 0 0 0 0 0 0 0 0 0 0 0 0 0 0 0 0 0 0 0 0 0 0 0 13 6 6 14 14 22 25 15 16 29 40 50 42 36 38 36 46 64 86 125 122 101 95 92 90 113 134 142 138 134 125 122 116 73 94 114 84 65 59 50 38 43 48 33 27 30 28 9 15 21 11 2 2 0 0 0 0 0 0 5 10 10 7 1 0 0 0 0 0 0 0 0 0 0 0 0 0 0 0 0 0 0 0 0 0 0 0 0 0 0 0 0 0 0 0 0 0 0 0 0 
0 0 0 0 0 0 0 0 0 0 0 0 0 0 0 0 0 0 0 0 0 0 0 0 0 0 0 0 0 10 4 12 16 21 28 15 14 25 36 33 30 35 38 36 41 65 86 126 133 117 106 109 124 134 138 142 146 150 148 143 134 87 108 120 80 51 75 52 40 36 28 27 28 30 25 11 11 17 11 1 0 2 0 0 0 0 0 6 11 11 6 1 0 0 0 0 0 0 0 0 0 0 0 0 0 0 0 0 0 0 0 0 0 0 0 0 0 0 0 0 0 0 0 0 0 0 0 0 
0 0 0 0 0 0 0 0 0 0 0 0 0 0 0 0 0 0 0 0 0 0 0 0 0 0 0 0 0 7 5 9 16 18 27 14 11 23 38 32 30 33 36 37 41 65 74 114 133 136 144 151 144 141 134 127 126 138 158 153 139 122 120 118 68 29 24 23 30 36 24 24 26 32 19 18 10 16 14 3 0 0 0 0 0 0 1 5 9 8 6 0 0 0 0 0 0 0 0 0 0 0 0 0 0 0 0 0 0 0 0 0 0 0 0 0 0 0 0 0 0 0 0 0 0 0 0 0 
0 0 0 0 0 0 0 0 0 0 0 0 0 0 0 0 0 0 0 0 0 0 0 0 0 0 0 0 0 5 8 5 14 18 33 20 9 18 38 35 30 33 35 40 51 52 62 79 119 135 149 154 139 122 111 93 95 112 143 165 160 129 119 91 43 25 26 25 29 33 25 19 31 32 20 17 15 17 17 9 2 2 0 0 0 0 0 4 8 8 6 2 0 0 0 0 0 0 0 0 0 0 0 0 0 0 0 0 0 0 0 0 0 0 0 0 0 0 0 0 0 0 0 0 0 0 0 0 
