P2
128 99
223
0 0 0 0 0 0 0 0 0 0 0 0 0 0 0 0 0 0 0 0 0 0 0 0 0 0 0 0 0 0 0 0 0 0 0 0 0 0 0 0 0 0 0 0 0 0 0 0 0 0 0 0 0 0 0 0 0 0 0 0 0 0 0 0 0 0 0 0 0 0 0 0 0 0 0 0 0 0 0 0 0 0 0 0 0 0 0 0 0 0 0 0 0 0 0 0 0 0 0 0 0 0 0 0 0 0 0 0 0 0 0 0 0 0 0 0 0 0 0 0 0 0 0 0 0 0 0 0 
0 0 0 0 0 0 0 0 0 0 0 0 0 0 0 0 0 0 0 0 0 0 0 0 0 0 0 0 0 0 0 0 0 0 0 0 0 0 0 0 0 0 0 0 0 0 0 0 0 0 0 0 0 0 0 0 0 0 0 0 0 0 0 0 0 0 0 0 0 0 0 0 0 0 0 0 0 0 0 0 0 0 0 0 0 0 0 0 0 0 0 0 0 0 0 0 0 0 0 0 0 0 0 0 0 0 0 0 0 0 0 0 0 0 0 0 0 0 0 0 0 0 0 0 0 0 0 0 
0 0 0 0 0 0 0 0 0 0 0 0 0 0 0 0 0 0 0 0 0 0 0 0 0 0 0 0 0 0 0 0 0 0 0 0 0 0 0 0 0 0 0 0 0 0 0 0 0 0 1 4 4 3 1 0 0 0 0 0 0 0 0 0 0 0 0 0 0 0 0 0 0 0 0 0 0 0 0 0 0 0 0 0 0 0 0 0 0 0 0 0 0 0 0 0 0 0 0 0 0 0 0 0 0 0 0 0 0 0 0 0 0 0 0 0 0 0 0 0 0 0 0 0 0 0 0 0 
0 0 0 0 0 0 0 0 0 0 0 0 0 0 0 0 0 0 0 0 0 0 0 0 0 0 0 0 0 0 0 0 0 0 0 0 0 0 0 0 0 0 0 3 11 14 15 17 15 19 25 28 31 30 28 23 21 20 16 9 3 0 0 0 0 0 0 0 0 0 0 0 0 0 0 0 0 0 0 0 0 0 0 0 0 0 0 0 0 0 0 0 0 0 0 0 0 0 0 0 0 0 0 0 0 0 0 0 0 0 0 0 0 0 0 0 0 0 0 0 0 0 0 0 0 0 0 0 
0 0 0 0 0 0 0 0 0 0 0 0 0 0 0 0 0 0 0 0 0 0 0 0 0 0 0 0 0 0 0 0 0 0 0 0 0 0 0 0 6 17 18 19 20 34 51 70 87 103 120 132 139 140 137 129 113 91 67 44 30 27 18 7 2 0 0 0 0 0 0 0 0 0 0 0 0 0 0 0 0 0 0 0 0 0 0 0 0 0 0 0 0 0 0 0 0 0 0 0 0 0 0 0 0 0 0 0 0 0 0 0 0 0 0 0 0 0 0 0 0 0 0 0 0 0 0 0 
0 0 0 0 0 0 0 0 0 0 0 0 0 0 0 0 0 0 0 0 0 0 0 0 0 0 0 0 0 0 0 0 0 0 0 0 0 0 10 19 19 21 39 68 103 127 150 168 181 185 181 173 165 162 166 169 173 180 184 175 146 106 67 40 28 13 7 2 0 0 0 0 0 0 0 0 0 0 0 0 0 0 0 0 0 0 0 0 0 0 0 0 0 0 0 0 0 0 0 0 0 0 0 0 0 0 0 0 0 0 0 0 0 0 0 0 0 0 0 0 0 0 0 0 0 0 0 0 
0 0 0 0 0 0 0 0 0 0 0 0 0 0 0 0 0 0 0 0 0 0 0 0 0 0 0 0 0 0 0 0 0 0 0 0 9 22 19 22 53 96 128 154 174 188 178 156 150 153 157 160 161 164 165 162 155 149 142 145 158 177 184 151 107 63 39 23 9 2 0 0 0 0 0 0 0 0 0 0 0 0 0 0 0 0 0 0 0 0 0 0 0 0 0 0 0 0 0 0 0 0 0 0 0 0 0 0 0 0 0 0 0 0 0 0 0 0 0 0 0 0 0 0 0 0 0 0 
0 0 0 0 0 0 0 0 0 0 0 0 0 0 0 0 0 0 0 0 0 0 0 0 0 0 0 0 0 0 0 0 0 0 8 23 17 26 63 107 139 166 187 185 165 154 154 161 167 170 173 178 175 164 165 182 192 194 190 175 157 143 144 161 185 184 139 83 42 25 9 2 0 0 0 0 0 0 0 0 0 0 0 0 0 0 0 0 0 0 0 0 0 0 0 0 0 0 0 0 0 0 0 0 0 0 0 0 0 0 0 0 0 0 0 0 0 0 0 0 0 0 0 0 0 0 0 0 
0 0 0 0 0 0 0 0 0 0 0 0 0 0 0 0 0 0 0 0 0 0 0 0 0 0 0 0 0 0 0 0 2 23 19 23 64 109 142 168 191 182 156 152 158 163 169 156 138 129 128 126 125 122 115 114 127 152 174 187 192 190 179 160 144 148 174 190 149 84 38 21 10 0 0 0 0 0 0 0 0 0 0 0 0 0 0 0 0 0 0 0 0 0 0 0 0 0 0 0 0 0 0 0 0 0 0 0 0 0 0 0 0 0 0 0 0 0 0 0 0 0 0 0 0 0 0 0 
0 0 0 0 0 0 0 0 0 0 0 0 0 0 0 0 0 0 0 0 0 0 0 0 0 0 0 0 0 0 0 18 27 27 48 96 137 163 193 183 158 160 170 169 151 133 124 106 88 101 135 144 143 141 143 140 130 116 118 148 174 181 190 193 189 172 146 145 172 186 136 66 30 19 2 0 0 0 0 0 0 0 0 0 0 0 0 0 0 0 0 0 0 0 0 0 0 0 0 0 0 0 0 0 0 0 0 0 0 0 0 0 0 0 0 0 0 0 0 0 0 0 0 0 0 0 0 0 
0 0 0 0 0 0 0 0 0 0 0 0 0 0 0 0 0 0 0 0 0 0 0 0 0 0 0 0 0 7 30 24 32 75 127 160 191 185 159 162 175 180 156 138 129 125 113 95 96 100 113 137 139 127 134 129 120 107 93 92 131 157 173 179 182 188 191 178 151 146 176 174 108 41 21 6 0 0 0 0 0 0 0 0 0 0 0 0 0 0 0 0 0 0 0 0 0 0 0 0 0 0 0 0 0 0 0 0 0 0 0 0 0 0 0 0 0 0 0 0 0 0 0 0 0 0 0 0 
0 0 0 0 0 0 0 0 0 0 0 0 0 0 0 0 0 0 0 0 0 0 0 0 0 0 0 0 22 29 17 52 112 146 182 194 162 161 177 179 170 154 143 139 135 130 123 131 148 153 155 164 162 164 175 183 176 168 158 143 133 143 152 157 171 176 180 186 189 176 149 150 179 143 59 21 12 0 0 0 0 0 0 0 0 0 0 0 0 0 0 0 0 0 0 0 0 0 0 0 0 0 0 0 0 0 0 0 0 0 0 0 0 0 0 0 0 0 0 0 0 0 0 0 0 0 0 0 
0 0 0 0 0 0 0 0 0 0 0 0 0 0 0 0 0 0 0 0 0 0 0 0 0 0 3 30 21 15 76 128 158 193 170 158 174 182 171 167 149 134 131 141 143 154 171 177 180 162 154 146 139 137 144 165 169 168 172 176 180 184 184 181 164 158 171 178 180 181 185 166 143 170 160 75 21 14 0 0 0 0 0 0 0 0 0 0 0 0 0 0 0 0 0 0 0 0 0 0 0 0 0 0 0 0 0 0 0 0 0 0 0 0 0 0 0 0 0 0 0 0 0 0 0 0 0 0 
0 0 0 0 0 0 0 0 0 0 0 0 0 0 0 0 0 0 0 0 0 0 0 0 0 10 29 18 22 93 136 173 187 157 164 182 177 168 160 136 137 158 177 173 170 168 168 161 149 145 141 139 137 140 148 158 168 169 166 165 165 170 175 190 203 198 174 164 173 178 177 185 177 147 161 163 83 19 13 0 0 0 0 0 0 0 0 0 0 0 0 0 0 0 0 0 0 0 0 0 0 0 0 0 0 0 0 0 0 0 0 0 0 0 0 0 0 0 0 0 0 0 0 0 0 0 0 0 
0 0 0 0 0 0 0 0 0 0 0 0 0 0 0 0 0 0 0 0 0 0 0 0 12 27 16 28 105 146 181 176 153 172 183 175 170 149 136 161 187 181 159 144 138 134 140 143 144 138 133 127 125 129 125 122 128 138 144 145 151 155 161 162 164 180 201 196 171 164 173 178 183 183 154 157 165 88 21 13 0 0 0 0 0 0 0 0 0 0 0 0 0 0 0 0 0 0 0 0 0 0 0 0 0 0 0 0 0 0 0 0 0 0 0 0 0 0 0 0 0 0 0 0 0 0 0 0 
0 0 0 0 0 0 0 0 0 0 0 0 0 0 0 0 0 0 0 0 0 0 3 19 23 14 35 107 147 184 164 153 177 178 169 159 138 155 190 182 165 152 140 121 109 105 103 102 100 97 93 84 78 97 95 93 93 94 101 111 117 121 124 140 159 157 160 177 201 187 163 167 177 182 180 154 158 161 98 24 11 0 0 0 0 0 0 0 0 0 0 0 0 0 0 0 0 0 0 0 0 0 0 0 0 0 0 0 0 0 0 0 0 0 0 0 0 0 0 0 0 0 0 0 0 0 0 0 
0 0 0 0 0 0 0 0 0 0 0 0 0 0 0 0 0 0 0 0 0 3 18 21 15 42 112 149 183 158 155 178 173 163 144 134 170 180 161 162 155 124 98 93 89 91 95 93 98 98 83 55 56 89 95 102 100 89 86 96 106 115 117 115 117 131 150 155 163 188 186 164 158 175 179 176 157 161 154 103 29 9 0 0 0 0 0 0 0 0 0 0 0 0 0 0 0 0 0 0 0 0 0 0 0 0 0 0 0 0 0 0 0 0 0 0 0 0 0 0 0 0 0 0 0 0 0 0 
0 0 0 0 0 0 0 0 0 0 0 0 0 0 0 0 0 0 0 0 3 17 18 17 57 123 153 177 163 160 180 171 157 136 137 168 167 151 157 129 102 92 95 94 92 94 88 90 94 91 61 57 56 70 95 107 111 102 94 96 103 105 109 109 108 103 105 132 147 154 177 183 166 151 168 176 176 159 166 150 110 36 8 0 0 0 0 0 0 0 0 0 0 0 0 0 0 0 0 0 0 0 0 0 0 0 0 0 0 0 0 0 0 0 0 0 0 0 0 0 0 0 0 0 0 0 0 0 
0 0 0 0 0 0 0 0 0 0 0 0 0 0 0 0 0 0 0 3 20 17 20 69 128 156 171 168 162 182 171 150 127 124 163 165 155 142 110 89 90 96 104 106 106 97 85 95 95 78 70 76 81 90 108 116 117 113 109 108 107 105 98 101 105 106 100 100 121 143 143 162 168 158 150 164 178 171 160 174 144 107 31 5 0 0 0 0 0 0 0 0 0 0 0 0 0 0 0 0 0 0 0 0 0 0 0 0 0 0 0 0 0 0 0 0 0 0 0 0 0 0 0 0 0 0 0 0 
0 0 0 0 0 0 0 0 0 0 0 0 0 0 0 0 0 0 3 19 16 20 79 130 154 160 173 158 180 167 145 118 116 164 166 143 128 104 100 105 110 118 120 120 115 115 115 118 119 117 119 126 131 139 142 138 132 124 121 117 114 113 109 108 98 97 111 104 104 128 139 142 166 146 159 155 158 178 169 166 181 138 100 23 4 0 0 0 0 0 0 0 0 0 0 0 0 0 0 0 0 0 0 0 0 0 0 0 0 0 0 0 0 0 0 0 0 0 0 0 0 0 0 0 0 0 0 0 
0 0 0 0 0 0 0 0 0 0 0 0 0 0 0 0 0 1 17 17 19 78 129 153 155 179 162 172 164 139 111 105 153 162 142 131 113 117 126 126 120 116 120 127 138 142 145 147 147 146 148 147 146 145 144 142 141 137 135 135 131 124 114 110 111 101 93 109 105 104 129 148 158 155 135 158 151 158 176 157 179 165 128 80 11 0 0 0 0 0 0 0 0 0 0 0 0 0 0 0 0 0 0 0 0 0 0 0 0 0 0 0 0 0 0 0 0 0 0 0 0 0 0 0 0 0 0 0 
0 0 0 0 0 0 0 0 0 0 0 0 0 0 0 0 0 9 19 14 68 132 146 152 174 168 164 162 138 103 102 147 159 143 141 126 124 128 116 105 107 115 128 137 143 143 139 136 140 143 138 136 134 135 134 132 132 130 130 133 134 133 131 118 106 105 101 97 110 102 102 127 139 158 153 119 151 151 162 172 158 190 145 117 48 4 0 0 0 0 0 0 0 0 0 0 0 0 0 0 0 0 0 0 0 0 0 0 0 0 0 0 0 0 0 0 0 0 0 0 0 0 0 0 0 0 0 0 
0 0 0 0 0 0 0 0 0 0 0 0 0 0 0 0 3 18 13 48 127 137 149 166 182 159 165 139 98 101 141 160 145 155 132 126 126 110 95 97 118 131 135 137 137 131 129 130 139 137 130 129 132 133 137 132 130 125 126 130 134 134 136 133 119 103 104 105 100 105 97 100 129 144 161 135 108 145 157 166 155 174 179 127 110 23 0 0 0 0 0 0 0 0 0 0 0 0 0 0 0 0 0 0 0 0 0 0 0 0 0 0 0 0 0 0 0 0 0 0 0 0 0 0 0 0 0 0 
0 0 0 0 0 0 0 0 0 0 0 0 0 0 0 2 13 17 35 116 142 144 156 189 163 157 142 96 98 140 157 153 164 146 128 119 101 91 95 111 130 141 141 134 132 134 133 137 144 139 130 131 134 136 135 134 135 132 133 133 132 135 135 136 131 114 101 103 107 98 96 98 114 137 143 163 122 106 138 158 158 158 187 153 123 79 7 0 0 0 0 0 0 0 0 0 0 0 0 0 0 0 0 0 0 0 0 0 0 0 0 0 0 0 0 0 0 0 0 0 0 0 0 0 0 0 0 0 
0 0 0 0 0 0 0 0 0 0 0 0 0 0 0 5 17 22 85 140 140 151 175 172 145 146 97 91 127 164 155 166 153 124 102 88 92 99 108 123 136 140 141 136 132 136 134 132 142 141 134 137 138 135 132 131 132 137 138 141 137 134 136 136 138 131 110 99 106 109 95 93 104 128 139 160 161 105 109 145 150 142 175 170 129 114 30 0 0 0 0 0 0 0 0 0 0 0 0 0 0 0 0 0 0 0 0 0 0 0 0 0 0 0 0 0 0 0 0 0 0 0 0 0 0 0 0 0 
0 0 0 0 0 0 0 0 0 0 0 0 0 0 2 8 17 61 128 137 140 161 173 147 144 108 88 104 157 158 163 150 118 100 87 88 103 110 126 135 136 140 140 137 137 138 134 131 134 135 134 136 133 134 126 120 117 127 134 135 134 138 140 142 139 139 128 104 96 105 107 90 89 112 135 145 174 125 97 119 149 141 168 178 149 119 65 3 0 0 0 0 0 0 0 0 0 0 0 0 0 0 0 0 0 0 0 0 0 0 0 0 0 0 0 0 0 0 0 0 0 0 0 0 0 0 0 0 
0 0 0 0 0 0 0 0 0 0 0 0 0 0 4 11 37 92 144 124 152 152 161 145 124 88 89 132 167 160 154 118 97 87 92 103 106 122 140 140 138 138 133 127 129 129 134 137 130 123 125 128 127 124 107 104 101 107 107 116 120 133 139 137 135 129 127 123 101 100 110 103 84 93 123 139 165 154 100 100 135 139 150 178 164 125 97 16 0 0 0 0 0 0 0 0 0 0 0 0 0 0 0 0 0 0 0 0 0 0 0 0 0 0 0 0 0 0 0 0 0 0 0 0 0 0 0 0 
0 0 0 0 0 0 0 0 0 0 0 0 0 1 3 24 65 121 132 131 148 153 159 126 102 93 102 159 162 160 129 97 86 88 102 106 122 141 139 140 137 129 123 116 106 110 116 116 114 100 105 115 119 106 76 74 79 81 85 87 99 112 123 138 143 137 131 134 122 100 99 104 97 81 101 131 155 167 108 95 116 135 146 174 162 139 113 34 0 0 0 0 0 0 0 0 0 0 0 0 0 0 0 0 0 0 0 0 0 0 0 0 0 0 0 0 0 0 0 0 0 0 0 0 0 0 0 0 
0 0 0 0 0 0 0 0 0 0 0 0 0 2 6 38 82 149 122 145 139 168 144 104 95 97 113 159 156 143 106 86 85 96 112 122 139 143 129 126 123 104 88 78 72 71 81 96 96 75 75 91 92 82 61 56 61 61 62 64 75 89 102 118 141 140 132 137 135 113 97 97 100 84 80 113 146 167 112 94 103 129 138 173 161 152 119 49 1 0 0 0 0 0 0 0 0 0 0 0 0 0 0 0 0 0 0 0 0 0 0 0 0 0 0 0 0 0 0 0 0 0 0 0 0 0 0 0 
0 0 0 0 0 0 0 0 0 0 0 0 0 3 10 53 111 146 127 145 148 164 106 97 98 100 117 156 149 121 94 84 92 107 126 144 148 129 111 104 96 81 61 57 55 55 61 73 72 62 59 67 71 66 56 55 54 55 55 55 61 67 78 96 127 138 133 134 143 139 114 96 97 92 77 94 131 158 111 92 101 125 124 168 162 158 122 70 6 0 0 0 0 0 0 0 0 0 0 0 0 0 0 0 0 0 0 0 0 0 0 0 0 0 0 0 0 0 0 0 0 0 0 0 0 0 0 0 
0 0 0 0 0 0 0 0 0 0 0 0 0 2 20 67 140 132 137 141 152 135 92 93 95 96 120 153 145 110 86 86 99 118 141 154 137 108 86 83 83 84 73 60 55 54 55 56 60 58 58 59 66 59 58 55 55 54 56 55 55 58 61 76 104 129 138 132 137 144 134 107 95 97 86 84 116 155 119 91 99 121 117 165 160 163 127 88 10 0 0 0 0 0 0 0 0 0 0 0 0 0 0 0 0 0 0 0 0 0 0 0 0 0 0 0 0 0 0 0 0 0 0 0 0 0 0 0 
0 0 0 0 0 0 0 0 0 0 0 0 2 1 34 82 157 127 140 145 151 115 95 97 92 83 128 155 137 98 89 98 118 142 149 140 110 88 82 85 84 79 78 76 61 52 52 54 55 55 57 56 59 54 55 54 52 55 54 57 60 59 57 58 80 118 137 127 125 135 142 132 106 99 94 85 104 154 117 91 96 113 131 163 161 156 135 102 16 0 0 0 0 0 0 0 0 0 0 0 0 0 0 0 0 0 0 0 0 0 0 0 0 0 0 0 0 0 0 0 0 0 0 0 0 0 0 0 
0 0 0 0 0 0 0 0 0 0 0 0 2 6 46 105 157 126 135 146 133 106 100 98 86 84 140 155 128 90 96 110 140 149 137 116 94 86 85 87 81 77 72 74 72 56 52 51 53 55 56 56 59 58 55 55 54 56 59 70 84 83 79 78 87 95 105 123 122 125 137 141 130 108 104 93 96 146 114 92 91 105 131 159 162 151 143 112 22 0 0 0 0 0 0 0 0 0 0 0 0 0 0 0 0 0 0 0 0 0 0 0 0 0 0 0 0 0 0 0 0 0 0 0 0 0 0 0 
0 0 0 0 0 0 0 0 0 0 0 0 2 11 52 124 147 122 131 144 123 103 100 95 82 81 148 154 121 100 107 131 148 148 132 96 83 82 84 80 80 80 68 69 81 65 56 57 57 62 68 72 69 71 71 74 72 66 66 80 76 66 63 53 54 63 87 111 122 122 127 141 143 127 110 99 101 136 108 91 95 114 135 165 172 151 150 116 33 0 0 0 0 0 0 0 0 0 0 0 0 0 0 0 0 0 0 0 0 0 0 0 0 0 0 0 0 0 0 0 0 0 0 0 0 0 0 0 
0 0 0 0 0 0 0 0 0 0 0 0 1 12 57 137 137 120 139 139 125 106 103 103 84 88 155 150 104 99 121 141 147 140 109 79 74 79 83 85 86 85 61 57 74 82 70 61 64 74 92 101 103 104 107 109 99 84 75 85 63 56 55 54 55 56 73 106 133 130 129 133 143 142 127 103 107 127 96 86 101 123 132 161 179 155 157 120 46 1 0 0 0 0 0 0 0 0 0 0 0 0 0 0 0 0 0 0 0 0 0 0 0 0 0 0 0 0 0 0 0 0 0 0 0 0 0 0 
0 0 0 0 0 0 0 0 0 0 0 0 2 17 61 147 130 126 149 132 132 104 103 108 86 100 152 144 106 103 135 142 137 126 94 77 72 71 75 80 83 83 56 58 60 67 88 87 77 93 115 125 129 130 132 134 121 101 90 94 63 59 60 57 53 52 71 101 121 123 127 130 132 141 140 119 104 113 84 86 104 127 128 160 183 157 162 125 59 3 0 0 0 0 0 0 0 0 0 0 0 0 0 0 0 0 0 0 0 0 0 0 0 0 0 0 0 0 0 0 0 0 0 0 0 0 0 0 
0 0 0 0 0 0 0 0 0 0 0 0 2 18 65 151 123 139 154 124 143 110 102 101 91 107 140 145 108 112 141 138 133 119 89 58 49 50 51 52 57 62 59 59 57 61 74 98 94 109 129 136 149 147 144 154 142 114 101 84 60 59 56 52 51 54 58 82 110 112 110 114 131 137 139 144 138 99 79 93 105 130 119 155 183 161 163 128 67 5 0 0 0 0 0 0 0 0 0 0 0 0 0 0 0 0 0 0 0 0 0 0 0 0 0 0 0 0 0 0 0 0 0 0 0 0 0 0 
0 0 0 0 0 0 0 0 0 0 0 0 5 17 68 148 126 149 153 118 144 121 103 109 97 117 127 141 109 125 139 131 137 114 63 50 50 47 48 48 49 49 54 63 68 62 62 69 86 111 142 148 156 156 155 150 137 113 88 60 57 57 53 50 51 52 59 80 109 118 114 113 110 123 148 161 164 101 82 102 111 116 112 161 179 157 162 129 69 4 0 0 0 0 0 0 0 0 0 0 0 0 0 0 0 0 0 0 0 0 0 0 0 0 0 0 0 0 0 0 0 0 0 0 0 0 0 0 
0 0 0 0 0 0 0 0 0 0 0 0 9 15 75 144 127 145 152 113 145 130 103 117 107 126 120 141 125 138 136 136 130 86 55 53 52 52 53 54 52 56 57 58 61 67 64 64 65 85 124 148 150 152 159 145 131 89 68 58 56 51 49 54 59 63 64 80 110 123 118 113 114 132 150 165 162 117 100 111 110 102 109 163 169 156 160 132 78 6 0 0 0 0 0 0 0 0 0 0 0 0 0 0 0 0 0 0 0 0 0 0 0 0 0 0 0 0 0 0 0 0 0 0 0 0 0 0 
0 0 0 0 0 0 0 0 0 0 0 0 8 12 81 140 125 145 150 114 145 131 99 109 116 124 117 137 146 141 133 137 113 81 59 54 57 53 75 94 84 68 60 58 56 60 61 65 66 81 124 147 152 154 157 150 124 80 61 59 57 54 58 72 90 99 101 119 137 153 154 149 148 151 139 146 155 131 123 112 103 90 116 160 168 158 162 135 97 17 0 0 0 0 0 0 0 0 0 0 0 0 0 0 0 0 0 0 0 0 0 0 0 0 0 0 0 0 0 0 0 0 0 0 0 0 0 0 
0 0 0 0 0 0 0 0 0 0 0 0 10 11 89 136 130 138 145 115 140 135 105 96 118 127 116 130 167 152 137 123 104 78 59 58 68 90 106 103 100 102 84 62 56 59 70 71 75 89 125 159 162 145 153 144 115 74 57 66 57 58 65 71 80 76 81 99 121 143 144 134 148 166 136 125 146 138 138 109 101 84 116 160 162 150 160 134 104 30 0 0 0 0 0 0 0 0 0 0 0 0 0 0 0 0 0 0 0 0 0 0 0 0 0 0 0 0 0 0 0 0 0 0 0 0 0 0 
0 0 0 0 0 0 0 0 0 0 0 0 9 15 100 132 134 156 154 117 135 137 110 85 116 133 121 138 162 160 146 118 107 84 77 92 104 104 95 93 88 92 96 84 70 69 79 90 90 100 131 161 159 118 131 145 113 72 56 65 62 67 61 54 56 56 54 73 109 140 151 144 166 157 127 117 124 135 136 111 97 80 108 142 150 147 160 134 107 41 1 0 0 0 0 0 0 0 0 0 0 0 0 0 0 0 0 0 0 0 0 0 0 0 0 0 0 0 0 0 0 0 0 0 0 0 0 0 
0 0 0 0 0 0 0 0 0 0 0 0 9 17 103 128 142 159 158 116 126 135 114 77 108 135 127 132 149 156 147 134 138 123 101 105 99 91 77 73 69 70 74 87 91 91 91 102 95 103 138 160 141 116 123 145 118 74 62 65 74 57 56 54 55 56 52 58 91 129 151 163 160 140 130 114 107 117 125 114 99 79 98 140 147 142 159 135 108 49 1 0 0 0 0 0 0 0 0 0 0 0 0 0 0 0 0 0 0 0 0 0 0 0 0 0 0 0 0 0 0 0 0 0 0 0 0 0 
0 0 0 0 0 0 0 0 0 0 0 0 8 20 107 126 148 163 150 101 126 135 108 64 100 131 129 129 141 148 138 126 117 98 100 103 95 82 65 61 64 64 66 81 99 111 100 96 100 95 136 144 117 110 107 125 126 82 71 82 60 53 56 52 49 51 48 53 81 119 135 140 142 135 135 112 99 93 114 107 94 79 93 129 147 131 145 130 110 57 4 0 0 0 0 0 0 0 0 0 0 0 0 0 0 0 0 0 0 0 0 0 0 0 0 0 0 0 0 0 0 0 0 0 0 0 0 0 
0 0 0 0 0 0 0 0 0 0 0 0 8 19 105 123 149 157 133 94 126 123 87 57 96 128 132 133 142 142 138 122 106 89 92 90 78 63 60 63 62 54 60 82 94 101 118 114 99 102 147 135 93 96 95 102 143 119 102 69 51 52 51 47 48 46 48 52 76 115 134 139 135 134 125 110 92 80 102 99 88 85 92 110 135 130 125 121 114 62 3 0 0 0 0 0 0 0 0 0 0 0 0 0 0 0 0 0 0 0 0 0 0 0 0 0 0 0 0 0 0 0 0 0 0 0 0 0 
0 0 0 0 0 0 0 0 0 0 0 0 8 18 103 122 149 153 130 104 128 98 74 57 89 130 130 135 145 141 136 115 94 85 74 74 75 57 55 62 58 58 65 86 94 91 104 96 82 118 173 151 133 134 134 129 120 121 84 57 55 60 62 49 48 46 48 57 82 115 133 135 131 132 117 108 81 65 95 99 87 86 91 109 144 138 117 128 118 66 2 0 0 0 0 0 0 0 0 0 0 0 0 0 0 0 0 0 0 0 1 0 0 0 0 0 0 0 0 0 0 0 0 0 0 0 0 0 
0 0 0 0 0 0 0 0 0 0 0 0 8 17 103 120 152 136 121 119 116 75 72 54 81 123 115 127 146 139 136 112 84 72 70 73 70 56 60 59 60 64 80 93 94 95 96 89 84 117 136 106 101 89 98 93 117 131 79 71 73 73 64 54 52 48 48 56 82 116 133 132 126 126 113 105 71 68 102 99 85 88 88 102 138 135 109 123 120 67 2 0 0 0 0 0 0 0 0 0 0 0 0 0 0 0 0 0 0 0 0 0 0 0 0 0 0 0 0 0 0 0 0 0 0 0 0 0 
0 0 0 0 0 0 0 0 0 0 0 0 6 16 98 119 152 117 115 127 119 78 72 56 75 115 112 122 145 143 142 112 80 67 67 74 74 59 63 62 60 70 84 105 111 108 101 90 88 136 122 103 89 84 100 101 109 125 86 69 60 62 56 54 49 47 51 57 82 120 133 130 131 123 111 96 74 91 104 94 82 88 81 96 139 137 104 120 118 65 3 0 0 0 0 0 0 0 0 0 0 0 0 0 0 0 0 0 0 0 0 0 0 0 0 0 0 0 0 0 0 0 0 0 0 0 0 0 
0 0 0 0 0 0 0 0 0 0 0 0 5 12 93 119 151 113 110 128 112 72 73 63 68 104 110 127 147 139 145 118 75 70 64 64 75 71 67 63 60 67 80 100 103 102 95 88 98 145 107 90 88 89 97 96 93 114 112 66 63 56 52 51 48 48 52 59 85 123 136 131 135 125 107 84 91 105 109 91 81 88 79 103 140 132 104 128 122 58 1 0 0 0 0 0 0 0 0 0 0 0 0 0 0 0 0 0 0 0 0 0 0 0 0 0 0 0 0 0 0 0 0 0 0 0 0 0 
0 0 0 0 0 0 0 0 0 0 0 0 3 15 85 120 149 117 103 128 115 74 75 68 64 92 105 132 148 135 137 124 70 63 64 63 68 75 73 65 62 66 82 93 97 94 89 92 106 132 100 91 95 100 109 91 87 93 124 85 69 57 58 56 48 47 51 58 81 121 134 132 138 126 100 74 91 117 122 96 82 87 76 110 141 120 110 137 116 48 2 0 0 0 0 0 0 0 0 0 0 0 0 0 0 0 0 0 0 0 0 0 0 0 0 0 0 0 0 0 0 0 0 0 0 0 0 0 
0 0 0 0 0 0 0 0 0 0 0 0 2 14 75 124 143 130 98 125 119 78 73 74 62 82 100 135 152 129 134 126 73 58 60 62 67 80 80 63 58 67 87 96 94 90 92 94 106 122 91 90 90 109 119 92 87 78 106 126 103 77 64 58 57 50 48 54 80 120 132 137 137 129 90 67 91 125 135 101 83 80 75 123 138 108 122 136 111 39 1 0 0 0 0 0 0 0 0 0 0 0 0 0 0 0 0 0 0 0 0 0 0 0 0 0 0 0 0 0 0 0 0 0 0 0 0 0 
0 0 0 0 0 0 0 0 0 13 9 0 0 10 65 126 139 144 95 116 125 82 73 77 60 76 93 136 154 131 129 129 85 59 63 63 67 67 73 65 61 73 87 97 114 104 127 109 123 108 94 90 90 108 114 96 88 79 75 119 142 156 106 73 57 58 72 66 96 132 137 140 130 124 79 68 101 124 138 116 86 68 73 136 126 100 138 129 100 30 1 0 0 0 0 0 0 0 0 0 0 0 0 0 0 0 0 0 0 0 0 0 0 0 0 0 0 0 0 0 0 0 0 0 0 0 0 0 
0 0 0 0 0 0 0 0 0 0 6 2 0 9 52 133 130 140 94 103 121 97 76 75 58 67 85 131 150 136 134 135 97 67 64 64 57 60 76 72 83 96 104 114 125 161 134 106 131 104 100 98 97 104 107 110 88 78 68 109 126 140 135 98 66 57 57 78 93 123 139 133 128 124 74 88 105 107 128 127 90 56 90 155 114 91 131 109 91 23 1 0 0 0 0 0 0 0 0 0 0 0 0 0 0 0 0 0 0 0 0 0 0 0 0 0 0 0 0 0 0 0 0 0 0 0 0 0 
0 0 0 0 0 0 0 0 0 0 1 8 1 7 40 134 125 133 98 87 102 116 90 76 61 64 79 127 144 142 139 137 115 75 61 61 55 61 72 72 83 77 93 122 155 149 135 109 134 99 94 94 97 111 101 98 99 86 77 102 122 126 120 136 117 86 74 83 109 122 127 127 141 130 82 99 92 103 119 126 89 57 122 147 101 101 127 104 82 17 0 0 0 0 0 0 0 0 0 0 0 0 0 0 0 0 0 0 0 0 0 0 0 0 0 0 0 0 0 0 0 0 0 0 0 0 0 0 
0 0 0 0 0 0 0 0 0 0 0 12 1 6 32 123 121 131 109 101 91 126 95 72 65 61 73 127 141 141 131 137 126 87 57 69 63 68 73 91 102 108 130 144 143 133 130 136 121 85 77 77 82 119 90 85 77 70 81 91 127 112 81 101 135 139 133 141 153 148 147 155 164 137 110 105 94 110 113 119 85 94 140 123 103 126 119 90 83 11 0 0 0 13 12 0 0 0 0 0 0 0 0 0 0 0 0 0 0 0 0 0 0 0 0 0 0 0 0 0 0 0 0 0 0 0 0 0 
0 0 0 0 0 0 0 0 0 0 0 12 6 6 24 115 119 127 113 104 87 109 106 75 66 51 71 118 146 135 121 129 132 106 77 91 116 134 143 140 131 126 112 101 107 120 102 103 110 82 69 82 76 106 84 74 65 66 67 74 118 96 71 74 98 121 128 144 168 173 178 176 168 102 94 103 119 124 107 116 92 121 161 141 107 125 79 93 84 8 0 0 6 0 0 0 0 0 0 0 0 0 0 0 0 0 0 0 0 0 0 0 0 0 0 0 0 0 0 0 0 0 0 0 0 0 0 0 
0 0 0 0 0 0 0 0 0 0 0 12 14 10 20 104 118 121 132 105 92 76 117 86 68 50 69 107 142 141 119 126 142 130 116 131 150 141 130 125 125 126 113 102 104 101 78 101 113 83 70 78 72 96 80 64 58 65 61 76 113 99 80 77 80 82 100 134 160 164 155 152 137 79 77 104 124 131 113 113 109 150 147 164 144 104 69 101 86 5 0 0 3 0 0 0 0 0 0 0 0 0 0 0 0 0 0 0 0 0 0 0 0 0 0 0 0 0 0 0 0 0 0 0 0 0 0 0 
0 0 0 0 0 0 0 0 0 0 0 10 19 14 14 94 116 122 139 113 103 63 120 125 80 58 68 103 123 145 148 151 155 151 128 111 108 110 111 114 101 91 69 70 69 93 84 91 112 79 65 60 65 85 68 59 68 80 81 94 93 72 70 70 87 99 128 151 159 145 127 140 113 97 96 132 152 156 139 128 142 178 167 177 156 87 69 116 79 4 0 1 2 0 0 0 0 0 0 0 0 0 0 0 0 0 0 0 0 0 0 0 0 0 0 0 0 0 0 0 0 0 0 0 0 0 0 0 
0 0 0 0 0 0 0 0 0 0 0 9 19 13 12 74 116 124 144 125 113 86 156 148 112 81 91 114 102 116 156 170 161 159 157 125 106 111 115 100 62 51 60 55 52 66 88 93 106 90 81 58 50 69 69 80 75 86 63 70 94 75 66 73 104 134 155 169 167 163 158 143 106 95 99 123 132 150 123 113 158 192 191 173 136 90 86 121 56 5 4 2 1 0 0 0 0 0 0 0 0 0 0 0 0 0 0 0 0 0 0 0 0 0 0 0 0 0 0 0 0 0 0 0 0 0 0 0 
0 0 0 0 0 0 0 0 0 0 0 11 19 11 8 50 106 119 141 148 123 138 185 155 117 101 127 123 107 109 158 176 166 161 167 149 128 114 102 89 74 42 43 49 52 54 98 89 75 82 81 78 61 90 75 65 65 78 69 61 68 85 79 97 122 146 159 172 172 176 167 118 81 76 101 139 151 158 148 152 166 149 166 174 124 77 83 107 23 6 8 4 0 0 0 0 0 0 0 0 0 0 0 0 0 0 0 0 0 0 0 0 0 0 0 0 0 0 0 0 0 0 0 0 0 0 0 0 
0 0 0 0 0 0 0 0 0 0 0 6 24 13 8 11 73 99 105 148 158 153 174 170 124 121 119 139 135 118 131 164 163 151 166 170 156 138 96 68 70 60 42 44 48 50 86 81 65 64 73 101 81 78 83 66 54 60 77 61 61 64 109 110 114 133 157 170 174 175 154 120 87 74 119 140 160 154 137 147 176 159 149 164 133 81 67 105 29 7 12 10 0 0 0 0 0 0 0 0 0 0 0 0 0 0 0 0 0 0 0 0 0 0 0 0 0 0 0 0 0 0 0 0 0 0 0 0 
0 0 0 0 0 0 0 0 0 0 0 9 19 12 7 8 46 98 118 138 162 173 166 183 154 117 112 132 117 86 99 126 155 168 174 177 161 146 128 94 78 68 58 61 57 55 93 78 63 64 107 126 100 109 106 68 55 56 74 56 55 55 79 102 109 131 157 182 188 165 116 96 64 115 142 145 161 173 167 161 153 147 136 119 120 107 83 86 13 6 12 12 0 0 0 0 0 0 0 0 0 0 0 0 0 0 0 0 0 0 0 0 0 0 0 0 0 0 0 0 0 0 0 0 0 0 0 0 
0 0 0 0 0 0 0 0 0 0 0 9 13 13 12 13 28 92 116 112 135 165 173 162 172 161 153 152 129 107 86 94 116 161 181 179 168 154 166 159 118 81 82 65 50 66 108 78 68 101 126 123 112 121 136 97 59 68 83 63 69 87 120 140 125 123 151 183 183 145 133 100 65 127 131 137 144 179 188 169 135 127 114 83 104 114 109 48 8 8 12 13 3 0 0 0 0 0 0 0 0 0 0 0 0 0 0 0 0 0 0 0 0 0 0 0 0 0 0 0 0 0 0 0 0 0 0 0 
0 0 0 0 0 0 0 0 0 0 0 7 11 11 17 19 20 70 101 90 110 153 146 140 159 181 177 159 134 142 95 85 97 136 174 176 176 171 185 176 125 82 68 64 70 110 136 104 126 136 118 121 124 127 137 142 101 95 95 83 115 156 171 158 133 130 142 146 137 111 88 60 68 113 128 141 158 183 189 161 114 110 100 68 73 97 95 23 10 5 13 4 10 0 0 0 0 0 0 0 0 0 0 0 0 0 0 0 0 0 0 0 0 0 0 0 0 0 0 0 0 0 0 0 0 0 0 0 
0 0 0 0 0 0 0 0 0 0 0 2 11 11 17 21 18 41 108 116 108 124 134 134 147 168 149 133 132 144 112 95 81 76 126 168 191 199 185 141 120 113 118 131 140 153 177 159 150 131 107 101 114 119 134 156 155 145 118 125 145 157 183 169 153 127 92 67 93 93 67 76 97 98 118 136 186 188 186 149 141 119 74 71 102 122 50 12 7 3 6 3 8 3 0 0 0 0 0 0 0 0 0 0 0 0 0 0 0 0 0 0 0 0 0 0 0 0 0 0 0 0 0 0 0 0 0 0 
0 0 0 0 0 0 0 0 0 0 0 0 2 7 11 22 20 22 99 102 89 112 130 147 148 145 118 126 132 161 134 92 68 57 72 109 165 188 166 139 124 120 137 166 163 154 163 145 143 123 129 123 112 128 159 151 123 112 125 146 162 160 176 188 157 96 57 45 55 80 85 96 85 107 103 148 205 186 190 177 163 85 67 70 91 110 23 11 4 0 2 7 12 3 0 0 0 0 0 0 0 0 0 0 0 0 0 0 0 0 0 0 0 0 0 0 0 0 0 0 0 0 0 0 0 0 0 0 
0 0 0 0 0 0 0 0 0 0 0 0 0 0 2 11 18 18 69 101 93 101 135 160 172 141 116 116 150 158 150 100 86 75 67 75 124 129 124 137 138 141 162 167 164 160 146 118 133 140 152 163 168 177 175 146 128 133 134 137 157 149 150 174 142 102 81 61 74 83 94 93 98 84 96 167 210 187 184 176 152 83 73 80 104 73 12 12 4 0 1 6 8 1 0 0 0 0 0 0 0 0 0 0 0 0 0 0 0 0 0 0 0 0 0 0 0 0 0 0 0 0 0 0 0 0 0 0 
0 0 0 0 0 0 0 0 0 0 0 0 0 0 0 9 14 15 42 107 80 77 117 116 172 145 121 133 159 143 149 122 91 89 93 106 106 72 66 101 120 149 162 154 163 170 158 146 145 154 160 167 177 174 172 162 156 151 148 145 153 164 154 156 136 118 125 105 100 114 102 95 85 60 93 170 201 180 157 160 128 92 78 63 90 41 10 11 5 0 0 1 1 0 0 0 0 0 0 0 0 0 0 0 0 0 0 0 0 0 0 0 0 0 0 0 0 0 0 0 0 0 0 0 0 0 0 0 
0 0 0 0 0 0 0 0 0 0 0 0 0 0 0 12 17 13 22 88 83 97 112 113 143 148 126 125 141 131 155 152 113 98 89 98 109 81 66 74 108 131 144 152 159 166 152 138 132 133 129 132 141 155 175 167 171 150 125 118 125 128 135 144 146 134 125 111 119 100 91 82 66 73 115 182 176 163 156 123 115 102 84 44 80 26 11 12 7 0 0 0 0 0 0 0 0 0 0 0 0 0 0 0 0 0 0 0 0 0 0 0 0 0 0 0 0 0 0 0 0 0 0 0 0 0 0 0 
0 0 0 0 0 0 0 0 0 0 4 12 6 1 0 16 20 15 16 60 62 66 122 115 89 122 128 117 147 141 152 152 146 119 97 88 95 106 105 107 115 130 126 130 159 161 120 111 105 88 80 82 94 115 125 128 115 112 91 85 89 108 141 138 149 186 153 131 126 81 60 58 78 113 159 156 155 155 127 86 102 109 64 34 84 16 9 9 11 0 0 0 0 0 0 0 0 0 0 0 0 0 0 0 0 0 0 0 0 0 0 0 0 0 0 0 0 0 0 0 0 0 0 0 0 0 0 0 
0 0 0 0 0 0 0 0 0 0 4 13 14 15 10 13 18 15 15 38 75 69 115 94 71 69 97 130 151 137 156 155 151 122 98 87 96 101 97 98 105 128 127 139 168 176 128 125 104 88 101 145 161 141 127 104 123 139 124 108 119 129 133 137 161 192 158 124 114 78 70 96 118 140 149 158 129 122 90 77 86 97 43 47 85 15 7 3 11 2 0 0 0 0 0 0 0 0 0 0 0 0 0 0 0 0 0 0 0 0 0 0 0 0 0 0 0 0 0 0 0 0 0 0 0 0 0 0 
0 0 0 0 0 0 0 0 0 0 0 7 15 15 14 3 8 16 16 24 66 66 81 129 117 75 72 80 158 155 155 174 171 133 112 93 71 67 74 83 93 112 117 139 155 156 134 132 104 103 136 173 163 163 139 109 122 139 122 115 140 133 94 118 148 150 161 139 128 108 114 125 142 148 161 164 118 124 83 57 62 75 67 88 58 13 4 3 3 9 1 0 0 0 0 0 0 0 0 0 0 0 0 0 0 0 0 0 0 0 0 0 0 0 0 0 0 0 0 0 0 0 0 0 0 0 0 0 
0 0 0 0 0 0 0 0 0 0 0 8 15 12 6 4 3 13 21 20 33 76 109 140 126 123 93 93 148 160 137 156 179 146 130 125 109 88 65 55 52 63 68 92 123 143 128 119 106 111 159 157 141 166 149 91 91 109 94 93 117 108 79 116 145 130 177 164 159 140 143 153 129 121 163 163 138 120 76 57 71 63 41 70 22 11 1 3 0 6 10 6 7 10 7 0 0 0 0 0 0 0 0 0 0 0 0 0 0 0 0 0 0 0 0 0 0 0 0 0 0 0 0 0 0 0 0 0 
0 0 0 0 0 0 0 0 0 0 0 5 14 9 4 4 4 10 19 19 16 42 102 138 138 128 123 130 165 137 122 115 144 128 138 138 141 140 130 109 107 113 104 86 88 133 134 126 135 145 148 146 140 144 154 135 111 119 122 133 164 162 163 176 166 171 205 191 193 171 139 146 138 133 164 161 97 68 39 46 76 69 75 37 15 8 4 0 0 1 11 15 15 15 9 0 0 0 0 0 0 0 0 0 0 0 0 0 0 0 0 0 0 0 0 0 0 0 0 0 0 0 0 0 0 0 0 0 
0 0 0 0 0 0 0 0 0 0 0 0 12 14 3 4 4 3 12 13 21 27 62 147 128 103 117 109 138 131 124 127 151 117 96 110 127 138 145 151 184 204 200 190 170 184 169 171 198 194 171 172 163 169 173 168 181 202 203 201 214 205 198 198 185 192 208 205 166 172 108 128 113 132 129 84 58 69 46 48 87 85 51 29 23 2 0 1 3 4 5 3 8 9 0 0 0 0 0 0 0 0 0 0 0 0 0 0 0 0 0 0 0 0 0 0 0 0 0 0 0 0 0 0 0 0 0 0 
0 0 0 0 0 0 0 0 0 0 0 0 2 10 4 3 1 2 10 13 12 15 20 65 83 75 118 123 115 130 118 128 162 142 138 112 118 147 172 161 180 181 168 190 141 166 178 163 164 175 187 181 167 170 169 166 168 178 198 203 196 207 190 183 155 157 187 153 66 80 122 126 89 49 62 51 56 83 58 66 73 50 42 42 23 2 0 0 0 2 5 5 9 1 0 0 0 0 0 0 0 0 0 0 0 0 0 0 0 0 0 0 0 0 0 0 0 0 0 0 0 0 0 0 0 0 0 0 
0 0 0 0 0 0 0 0 0 0 0 0 0 2 3 2 1 0 0 6 7 5 9 27 62 78 64 33 56 75 113 106 168 157 114 122 123 132 138 154 151 145 154 185 181 173 156 142 128 160 191 194 184 152 156 150 148 145 121 127 185 209 167 121 119 170 221 172 171 166 122 71 42 28 24 25 45 73 49 55 59 64 55 36 10 1 0 0 0 2 5 10 12 0 0 0 0 0 0 0 0 0 0 0 0 0 0 0 0 0 0 0 0 0 0 0 0 0 0 0 0 0 0 0 0 0 0 0 
0 0 0 0 0 0 0 0 0 0 0 0 0 0 4 5 4 2 0 0 5 9 13 21 27 32 25 32 54 43 51 53 112 129 70 67 71 76 75 71 86 93 130 146 119 110 70 77 138 131 94 121 143 106 96 122 104 89 109 61 68 107 100 108 81 126 105 48 56 72 54 41 45 39 60 46 48 61 32 30 24 22 22 11 1 0 2 4 4 3 4 6 2 0 0 0 0 0 0 0 0 0 0 0 0 0 0 0 0 0 0 0 0 0 0 0 0 0 0 0 0 0 0 0 0 0 0 0 
0 0 0 0 0 0 0 0 0 0 0 0 0 0 0 0 4 4 2 0 4 9 8 13 22 20 21 27 50 49 43 60 96 140 92 46 44 47 51 51 79 81 81 97 107 89 54 57 92 135 92 112 120 111 121 136 121 103 122 71 67 105 97 80 59 76 77 95 79 67 54 36 42 38 59 46 50 56 35 28 25 23 15 10 3 2 3 3 4 2 0 0 0 0 0 0 0 0 0 0 0 0 0 0 0 0 0 0 0 0 0 0 0 0 0 0 0 0 0 0 0 0 0 0 0 0 0 0 
0 0 0 0 0 0 0 0 0 0 0 0 0 0 0 0 0 2 0 0 1 11 12 11 19 32 30 42 62 70 56 66 87 139 121 86 55 68 91 116 121 104 97 118 124 117 89 111 144 139 101 134 146 144 141 128 104 98 150 140 104 118 107 101 119 126 95 93 95 29 24 28 28 42 73 69 78 86 60 50 43 36 26 23 1 0 0 0 0 0 0 0 0 0 0 0 0 0 0 0 0 0 0 0 0 0 0 0 0 0 0 0 0 0 0 0 0 0 0 0 0 0 0 0 0 0 0 0 
0 0 0 0 0 0 0 0 0 0 0 0 0 0 0 0 0 0 0 0 0 9 9 8 7 62 76 95 105 108 92 87 91 113 76 69 67 140 122 138 157 173 172 183 149 144 153 218 196 148 144 169 168 157 151 148 140 134 152 136 107 119 139 147 128 128 138 152 75 73 33 42 24 23 63 61 75 74 61 44 30 20 17 7 0 0 0 0 0 0 0 0 0 0 0 0 0 0 0 0 0 0 0 0 0 0 0 0 0 0 0 0 0 0 0 0 0 0 0 0 0 0 0 0 0 0 0 0 
0 0 0 0 0 0 0 0 0 0 0 0 0 0 0 0 0 0 0 0 0 0 0 2 8 51 69 87 90 93 73 78 98 83 63 74 69 108 127 157 170 195 204 170 165 159 141 150 193 163 136 129 124 133 164 198 223 214 193 153 104 111 136 159 189 123 102 184 164 102 61 50 23 35 44 44 60 49 45 18 28 25 31 6 0 0 0 0 0 0 0 0 0 0 0 0 0 0 0 0 0 0 0 0 0 0 0 0 0 0 0 0 0 0 0 0 0 0 0 0 0 0 0 0 0 0 0 0 
0 0 0 0 0 0 0 0 0 0 0 0 0 0 0 0 0 0 0 0 0 0 2 4 4 28 46 58 64 87 78 81 93 109 53 41 49 61 100 115 99 95 108 109 123 161 114 146 135 135 153 151 141 140 155 156 156 143 118 116 112 96 90 105 102 85 100 152 148 131 75 33 18 26 108 83 68 35 28 27 15 5 3 0 0 0 0 0 0 0 0 0 0 0 0 0 0 0 0 0 0 0 0 0 0 0 0 0 0 0 0 0 0 0 0 0 0 0 0 0 0 0 0 0 0 0 0 0 
0 0 0 0 0 0 0 0 0 0 0 0 0 0 0 0 0 0 0 0 0 0 3 7 8 10 14 22 37 60 67 70 63 97 38 38 35 46 59 74 79 57 60 59 75 177 169 167 108 99 104 113 109 115 115 95 89 93 77 76 73 82 97 95 132 135 130 134 150 146 131 49 29 30 117 120 81 36 24 24 20 10 5 0 0 0 0 0 0 0 0 0 0 0 0 0 0 0 0 0 0 0 0 0 0 0 0 0 0 0 0 0 0 0 0 0 0 0 0 0 0 0 0 0 0 0 0 0 
0 0 0 0 0 0 0 0 0 0 0 0 0 0 0 0 0 0 0 0 0 0 2 5 7 12 16 22 33 45 68 72 70 96 32 30 29 50 96 83 84 73 71 97 131 183 165 152 125 82 80 87 76 62 56 88 115 111 95 57 52 54 69 66 79 114 129 148 160 124 98 52 33 30 108 130 75 34 19 15 13 11 6 0 0 0 0 0 0 0 0 0 0 0 0 0 0 0 0 0 0 0 0 0 0 0 0 0 0 0 0 0 0 0 0 0 0 0 0 0 0 0 0 0 0 0 0 0 
0 0 0 0 0 0 0 0 0 0 0 0 0 0 0 0 0 0 0 0 0 0 0 4 7 11 13 20 31 40 74 62 76 97 30 25 22 30 65 92 97 81 59 75 144 194 162 118 118 78 65 79 62 51 58 78 85 80 91 54 47 71 112 121 97 107 87 107 117 101 76 38 32 30 93 138 74 37 19 15 13 12 4 0 0 0 0 0 0 0 0 0 0 0 0 0 0 0 0 0 0 0 0 0 0 0 0 0 0 0 0 0 0 0 0 0 0 0 0 0 0 0 0 0 0 0 0 0 
0 0 0 0 0 0 0 0 0 0 0 0 0 0 0 0 0 0 0 0 0 0 0 4 4 11 11 18 25 35 62 50 78 107 36 22 23 36 72 105 84 75 61 62 115 174 131 82 98 79 74 83 67 71 83 73 82 90 90 80 82 115 133 139 123 98 63 69 85 103 90 40 33 34 81 139 69 42 19 14 13 10 2 0 0 0 0 0 0 0 0 0 0 0 0 0 0 0 0 0 0 0 0 0 0 0 0 0 0 0 0 0 0 0 0 0 0 0 0 0 0 0 0 0 0 0 0 0 
0 0 0 0 0 0 0 0 0 0 0 0 0 0 0 0 0 0 0 0 0 0 0 0 7 5 12 14 22 35 59 44 81 116 43 29 31 57 95 90 58 52 62 64 105 161 128 103 132 83 84 98 89 89 74 72 84 95 92 117 154 156 166 161 139 105 63 53 62 87 94 62 41 40 72 139 61 50 23 13 13 9 1 0 0 0 0 0 0 0 0 0 0 0 0 0 0 0 0 0 0 0 0 0 0 0 0 0 0 0 0 0 0 0 0 0 0 0 0 0 0 0 0 0 0 0 0 0 
0 0 0 0 0 0 0 0 0 0 0 0 0 0 0 0 0 0 0 0 0 0 0 0 2 5 7 12 21 31 48 41 77 122 62 32 45 86 89 63 48 39 44 65 94 145 134 120 115 65 97 129 108 80 79 85 88 100 110 139 152 126 139 139 147 115 75 54 50 62 89 95 48 42 74 132 61 50 21 12 15 9 0 0 0 0 0 0 0 0 0 0 0 0 0 0 0 0 0 0 0 0 0 0 0 0 0 0 0 0 0 0 0 0 0 0 0 0 0 0 0 0 0 0 0 0 0 0 
0 0 0 0 0 0 0 0 0 0 0 0 0 0 0 0 0 0 0 0 0 0 0 0 0 5 5 9 19 20 42 67 63 102 85 37 66 108 80 43 40 38 47 56 91 137 132 87 68 56 100 143 130 97 86 98 105 127 137 141 130 113 106 114 139 125 81 60 53 41 70 121 80 45 82 105 58 31 15 14 17 7 0 0 0 0 0 0 0 0 0 0 0 0 0 0 0 0 0 0 0 0 0 0 0 0 0 0 0 0 0 0 0 0 0 0 0 0 0 0 0 0 0 0 0 0 0 0 
0 0 0 0 0 0 0 0 0 0 0 0 0 0 0 0 0 0 0 0 0 0 0 0 0 1 6 7 14 18 24 36 32 54 108 67 100 109 76 39 37 41 48 67 99 128 133 73 57 63 104 135 150 139 121 103 125 153 158 128 86 74 83 100 133 116 100 74 62 34 57 118 124 79 100 70 23 19 14 15 15 7 0 0 0 0 0 0 0 0 0 0 0 0 0 0 0 0 0 0 0 0 0 0 0 0 0 0 0 0 0 0 0 0 0 0 0 0 0 0 0 0 0 0 0 0 0 0 
0 0 0 0 0 0 0 0 0 0 0 0 0 0 0 0 0 0 0 0 0 0 0 0 0 0 5 5 8 18 20 22 24 21 58 86 97 85 80 51 36 39 44 65 85 93 124 88 55 63 89 116 132 131 115 110 132 152 141 91 65 67 86 113 133 102 90 64 56 34 59 92 99 92 80 37 23 18 15 15 12 6 0 0 0 0 0 0 0 0 0 0 0 0 0 0 0 0 0 0 0 0 0 0 0 0 0 0 0 0 0 0 0 0 0 0 0 0 0 0 0 0 0 0 0 0 0 0 
0 0 0 0 0 0 0 0 0 0 0 0 0 0 0 0 0 0 0 0 0 0 0 0 0 0 2 6 5 13 18 19 23 23 10 13 20 42 80 61 37 41 44 68 66 72 109 96 75 66 71 94 118 115 112 113 121 144 118 83 68 69 107 135 134 88 93 72 52 37 65 85 40 33 31 26 22 16 15 15 11 6 1 0 0 0 0 0 0 0 0 0 0 0 0 0 0 0 0 0 0 0 0 0 0 0 0 0 0 0 0 0 0 0 0 0 0 0 0 0 0 0 0 0 0 0 0 0 
0 0 0 0 0 0 0 0 0 0 0 0 0 0 0 0 0 0 0 0 0 0 0 0 0 0 0 4 4 4 19 16 23 23 14 6 12 26 72 75 44 36 56 85 61 71 136 120 92 90 67 82 103 106 113 128 145 146 117 85 75 83 108 141 142 82 91 93 61 55 74 80 33 21 24 23 22 15 14 14 11 6 1 0 0 0 0 0 0 0 0 0 0 0 0 0 0 0 0 0 0 0 0 0 0 0 0 0 0 0 0 0 0 0 0 0 0 0 0 0 0 0 0 0 0 0 0 0 
0 0 0 0 0 0 0 0 0 0 0 0 0 0 0 0 0 0 0 0 0 0 0 0 0 0 0 0 7 4 12 19 21 25 16 11 21 23 48 82 65 61 82 95 68 81 136 137 84 91 74 84 103 114 125 141 145 129 122 105 66 71 110 141 149 93 93 108 88 83 89 64 28 22 19 19 21 17 13 15 9 6 1 0 0 0 0 0 0 0 0 0 0 0 0 0 0 0 0 0 0 0 0 0 0 0 0 0 0 0 0 0 0 0 0 0 0 0 0 0 0 0 0 0 0 0 0 0 
0 0 0 0 0 0 0 0 0 0 0 0 0 0 0 0 0 0 0 0 0 0 0 0 0 0 0 0 3 4 7 14 20 23 17 8 15 24 31 58 86 90 96 92 59 78 139 144 100 96 72 78 93 102 124 143 138 125 116 125 80 62 106 145 155 95 80 106 102 101 75 36 28 24 21 20 20 17 13 14 10 5 1 0 0 0 0 0 0 0 0 0 0 0 0 0 0 0 0 0 0 0 0 0 0 0 0 0 0 0 0 0 0 0 0 0 0 0 0 0 0 0 0 0 0 0 0 0 
0 0 0 0 0 0 0 0 0 0 0 0 0 0 0 0 0 0 0 0 0 0 0 0 0 0 0 0 0 6 6 10 18 21 15 9 8 22 26 28 46 71 82 58 46 80 132 147 126 105 108 99 102 108 118 129 131 116 112 116 115 98 130 162 157 84 53 74 85 68 29 30 29 24 22 23 20 15 12 14 9 4 1 0 0 0 0 0 0 0 0 0 0 0 0 0 0 0 0 0 0 0 0 0 0 0 0 0 0 0 0 0 0 0 0 0 0 0 0 0 0 0 0 0 0 0 0 0 
0 0 0 0 0 0 0 0 0 0 0 0 0 0 0 0 0 0 0 0 0 0 0 0 0 0 0 0 0 6 7 7 15 20 14 8 13 20 25 28 31 32 35 30 28 47 104 149 143 137 127 108 109 101 90 90 113 103 109 103 113 139 163 171 143 68 44 43 45 51 32 28 25 22 19 21 20 16 13 11 7 4 0 0 0 0 0 0 0 0 0 0 0 0 0 0 0 0 0 0 0 0 0 0 0 0 0 0 0 0 0 0 0 0 0 0 0 0 0 0 0 0 0 0 0 0 0 0 
0 0 0 0 0 0 0 0 0 0 0 0 0 0 0 0 0 0 0 0 0 0 0 0 0 0 0 0 0 2 10 8 11 20 13 6 10 20 25 26 29 29 30 26 28 44 61 108 148 146 120 100 88 86 81 91 109 110 102 85 97 140 171 159 98 62 39 39 42 48 40 26 23 23 21 18 19 18 13 9 7 3 0 0 0 0 0 0 0 0 0 0 0 0 0 0 0 0 0 0 0 0 0 0 0 0 0 0 0 0 0 0 0 0 0 0 0 0 0 0 0 0 0 0 0 0 0 0 
