P2
128 99
235
0 0 0 0 0 0 0 0 0 0 0 0 0 0 0 0 0 0 0 0 0 0 0 0 0 0 0 0 0 0 0 0 0 0 0 2 5 5 3 0 1 2 2 1 0 0 0 0 0 0 0 0 0 0 0 0 0 0 0 0 0 0 0 0 0 0 0 0 0 0 0 0 0 0 0 0 0 0 0 0 0 0 0 1 2 2 1 0 3 5 4 1 0 0 0 0 0 0 0 0 0 0 0 0 0 0 0 0 0 0 0 0 0 0 0 0 0 0 0 0 0 0 0 0 0 0 0 0 
0 0 0 0 0 0 0 0 0 0 0 0 0 0 0 0 0 0 0 0 0 0 0 0 0 0 0 0 0 0 0 0 0 0 0 1 5 6 4 1 2 3 2 1 0 0 0 0 0 0 0 0 0 0 0 0 0 0 0 0 0 0 0 0 0 0 0 0 0 0 0 0 0 0 0 0 0 0 0 0 0 0 0 1 2 2 1 0 3 5 3 1 0 0 0 0 0 0 0 0 0 0 0 0 0 0 0 0 0 0 0 0 0 0 0 0 0 0 0 0 0 0 0 0 0 0 0 0 
0 0 0 0 0 0 0 0 0 0 0 0 0 0 0 0 0 0 0 0 0 0 0 0 0 0 0 0 0 0 0 0 0 0 0 2 5 5 3 1 2 3 2 1 0 0 0 0 0 0 0 1 2 1 3 1 0 0 0 0 0 0 0 0 0 0 0 0 0 0 0 0 0 0 0 0 0 0 0 0 0 0 0 1 2 3 1 0 3 4 4 1 0 0 0 0 0 0 0 0 0 0 0 0 0 0 0 0 0 0 0 0 0 0 0 0 0 0 0 0 0 0 0 0 0 0 0 0 
0 0 0 0 0 0 0 0 0 0 0 0 0 0 0 0 0 0 0 0 0 0 0 0 0 0 0 0 0 0 0 0 0 0 0 1 4 5 2 0 2 3 2 0 7 12 17 16 15 15 19 24 29 29 25 20 17 11 14 15 4 0 0 0 0 0 0 0 0 0 0 0 0 0 0 0 0 0 0 0 0 0 0 1 2 3 1 0 2 4 3 1 0 0 0 0 0 0 0 0 0 0 0 0 0 0 0 0 0 0 0 0 0 0 0 0 0 0 0 0 0 0 0 0 0 0 0 0 
0 0 0 0 0 0 0 0 0 0 0 0 0 0 0 0 0 0 0 0 0 0 0 0 0 0 0 0 0 0 0 0 0 0 0 0 2 4 3 0 12 16 21 22 18 33 61 80 94 103 114 123 129 132 127 117 102 84 65 48 32 17 19 10 0 0 0 0 0 0 0 0 0 0 0 0 0 0 0 0 0 0 0 0 2 2 1 0 3 3 3 1 0 0 0 0 0 0 0 0 0 0 0 0 0 0 0 0 0 0 0 0 0 0 0 0 0 0 0 0 0 0 0 0 0 0 0 0 
0 0 0 0 0 0 0 0 0 0 0 0 0 0 0 0 0 0 0 0 0 0 0 0 0 0 0 0 0 0 0 0 0 0 0 0 2 7 16 16 22 23 46 72 101 119 133 153 170 180 189 191 189 187 187 188 192 190 180 159 133 100 65 42 20 18 8 0 0 0 0 0 0 0 0 0 0 0 0 0 0 0 0 1 2 3 1 0 3 4 3 1 0 0 0 0 0 0 0 0 0 0 0 0 0 0 0 0 0 0 0 0 0 0 0 0 0 0 0 0 0 0 0 0 0 0 0 0 
0 0 0 0 0 0 0 0 0 0 0 0 0 0 0 0 0 0 0 0 0 0 0 0 0 0 0 0 0 0 0 0 0 0 0 2 16 22 23 28 63 100 123 142 160 180 200 197 180 164 159 158 158 158 159 158 155 153 153 164 183 188 169 138 102 65 39 17 14 1 0 0 0 0 0 0 0 0 0 0 0 0 0 1 3 2 0 0 3 5 3 1 0 0 0 0 0 0 0 0 0 0 0 0 0 0 0 0 0 0 0 0 0 0 0 0 0 0 0 0 0 0 0 0 0 0 0 0 
0 0 0 0 0 0 0 0 0 0 0 0 0 0 0 0 0 0 0 0 0 0 0 0 0 0 0 0 0 0 0 0 0 0 11 20 29 35 73 110 135 154 173 196 195 172 156 146 144 148 158 165 164 157 160 170 177 174 168 159 153 151 162 187 189 161 127 90 47 19 14 0 0 0 0 0 0 0 0 0 0 0 0 1 3 2 0 0 4 5 4 1 0 0 0 0 0 0 0 0 0 0 0 0 0 0 0 0 0 0 0 0 0 0 0 0 0 0 0 0 0 0 0 0 0 0 0 0 
0 0 0 0 0 0 0 0 0 0 0 0 0 0 0 0 0 0 0 0 0 0 0 0 0 0 0 0 0 0 0 0 4 32 30 24 67 115 139 158 177 190 172 152 141 143 149 146 154 157 157 152 145 143 144 153 154 169 183 183 177 169 161 155 158 176 196 175 136 91 42 20 11 0 0 0 0 0 0 0 0 0 0 2 3 2 1 1 4 5 4 1 0 0 0 0 0 0 0 0 0 0 0 0 0 0 0 0 0 0 0 0 0 0 0 0 0 0 0 0 0 0 0 0 0 0 0 0 
0 0 0 0 0 0 0 0 0 0 0 0 0 0 0 0 0 0 0 0 0 0 0 0 0 0 0 0 0 0 0 23 30 19 44 101 137 157 176 192 169 148 142 143 152 161 154 141 125 118 136 151 153 144 139 135 134 146 161 171 183 188 186 178 168 161 161 173 190 172 127 73 24 19 0 0 0 0 0 0 0 0 0 1 3 2 1 0 3 5 4 1 0 0 0 0 0 0 0 0 0 0 0 0 0 0 0 0 0 0 0 0 0 0 0 0 0 0 0 0 0 0 0 0 0 0 0 0 
0 0 0 0 0 0 0 0 0 0 0 0 0 0 0 0 0 0 0 0 0 0 0 0 0 0 0 0 0 10 30 21 19 79 132 153 173 192 170 149 158 163 160 158 147 134 132 115 109 114 109 104 97 101 110 112 109 111 126 149 158 171 183 187 187 185 173 162 159 175 194 160 104 41 21 6 0 0 0 0 0 0 0 2 2 2 1 0 3 6 4 1 0 0 0 0 0 0 0 0 0 0 0 0 0 0 0 0 0 0 0 0 0 0 0 0 0 0 0 0 0 0 0 0 0 0 0 0 
0 0 0 0 0 0 0 0 0 0 0 0 0 0 0 0 0 0 0 0 0 0 0 0 0 0 0 0 22 25 13 45 118 150 168 192 178 154 164 178 174 155 140 136 132 131 120 112 112 111 92 93 94 98 124 127 122 113 112 119 133 145 161 176 187 188 188 181 173 162 162 180 185 131 60 19 14 0 0 0 0 0 0 2 3 3 1 0 4 6 4 1 0 0 0 0 0 0 0 0 0 0 0 0 0 0 0 0 0 0 0 0 0 0 0 0 0 0 0 0 0 0 0 0 0 0 0 0 
0 0 0 0 0 0 0 0 0 0 0 0 0 0 0 0 0 0 0 0 0 0 0 0 0 0 6 26 23 15 73 138 158 179 190 163 164 179 180 158 142 139 128 120 111 96 108 124 147 150 157 164 163 161 165 168 161 156 144 134 132 137 138 141 159 176 192 190 186 186 171 159 168 188 147 76 20 15 0 0 0 0 0 2 2 2 1 1 4 6 4 1 0 0 0 0 0 0 0 0 0 0 0 0 0 0 0 0 0 0 0 0 0 0 0 0 0 0 0 0 0 0 0 0 0 0 0 0 
0 0 0 0 0 0 0 0 0 0 0 0 0 0 0 0 0 0 0 0 0 0 0 0 0 11 25 18 23 97 146 164 191 176 165 178 185 168 141 135 133 121 120 129 130 147 159 163 147 131 126 127 116 120 130 146 161 160 157 158 165 176 173 159 147 143 156 174 187 191 188 175 153 157 185 154 84 25 15 0 0 0 0 2 3 3 1 1 5 5 4 2 0 0 0 0 0 0 0 0 0 0 0 0 0 0 0 0 0 0 0 0 0 0 0 0 0 0 0 0 0 0 0 0 0 0 0 0 
0 0 0 0 0 0 0 0 0 0 0 0 0 0 0 0 0 0 0 0 0 0 0 0 15 23 16 30 109 149 168 192 172 170 182 176 153 137 136 134 139 162 179 174 164 160 144 137 132 130 126 135 141 148 156 162 168 176 176 173 168 162 172 182 184 172 155 141 154 176 189 191 180 153 156 189 159 92 33 13 0 0 0 1 3 3 1 1 4 6 5 1 0 0 0 0 0 0 0 0 0 0 0 0 0 0 0 0 0 0 0 0 0 0 0 0 0 0 0 0 0 0 0 0 0 0 0 0 
0 0 0 0 0 0 0 0 0 0 0 0 0 0 0 0 0 0 0 0 0 0 2 18 21 14 42 122 150 177 191 167 173 178 162 138 134 136 149 176 192 183 180 183 180 174 165 159 157 155 148 142 140 140 140 142 143 142 146 153 162 170 174 175 175 169 178 170 142 138 160 183 192 182 159 154 189 158 99 41 12 0 0 2 3 3 2 1 5 6 4 1 0 0 0 0 0 0 0 0 0 0 0 0 0 0 0 0 0 0 0 0 0 0 0 0 0 0 0 0 0 0 0 0 0 0 0 0 
0 0 0 0 0 0 0 0 0 0 0 0 0 0 0 0 0 0 0 0 0 3 20 18 12 54 131 148 178 192 168 173 173 146 130 129 136 171 196 188 176 170 175 165 149 145 141 138 142 139 130 109 111 121 121 121 123 121 117 114 117 126 142 160 174 177 166 159 173 156 133 143 170 188 184 158 154 188 155 106 46 9 0 2 3 3 2 0 4 6 4 1 0 0 0 0 0 0 0 0 0 0 0 0 0 0 0 0 0 0 0 0 0 0 0 0 0 0 0 0 0 0 0 0 0 0 0 0 
0 0 0 0 0 0 0 0 0 0 0 0 0 0 0 0 0 0 0 0 4 20 14 16 67 141 147 171 193 167 172 164 135 128 130 142 183 191 173 164 159 148 138 128 126 125 125 128 134 140 132 106 104 127 128 128 129 129 124 122 118 115 111 111 126 153 179 173 162 177 157 127 136 162 182 184 158 156 189 155 109 41 6 2 3 3 1 1 4 5 4 1 0 0 0 0 0 0 0 0 0 0 0 0 0 0 0 0 0 0 0 0 0 0 0 0 0 0 0 0 0 0 0 0 0 0 0 0 
0 0 0 0 0 0 0 0 0 0 0 0 0 0 0 0 0 0 0 3 19 13 16 74 144 144 163 190 167 169 156 130 126 131 148 188 177 160 148 137 122 123 123 127 131 135 133 129 136 134 127 105 109 125 131 132 131 130 126 122 123 121 121 113 103 107 129 164 178 165 172 140 113 134 153 178 187 160 164 190 150 108 31 5 3 3 2 1 4 6 5 2 0 0 0 0 0 0 0 0 0 0 0 0 0 0 0 0 0 0 0 0 0 0 0 0 0 0 0 0 0 0 0 0 0 0 0 0 
0 0 0 0 0 0 0 0 0 0 0 0 0 0 0 0 0 0 3 18 13 16 77 146 138 158 193 167 165 149 125 127 129 157 191 173 142 136 121 114 120 121 128 137 133 131 132 129 112 107 106 111 117 113 117 128 130 124 120 115 108 103 105 101 105 104 101 122 165 180 164 162 125 109 130 148 176 186 157 181 182 144 99 21 4 3 2 1 5 6 5 2 0 0 0 0 0 0 0 0 0 0 0 0 0 0 0 0 0 0 0 0 0 0 0 0 0 0 0 0 0 0 0 0 0 0 0 0 
0 0 0 0 0 0 0 0 0 0 0 0 0 0 0 0 0 2 12 16 15 70 148 130 153 192 175 159 151 120 121 133 153 186 164 136 132 120 117 127 128 129 127 117 107 101 97 93 77 64 72 90 94 76 70 82 96 108 116 120 116 107 102 100 100 103 107 101 122 157 170 164 153 104 112 127 148 175 178 161 187 164 133 77 12 3 2 1 4 6 4 1 0 0 0 0 0 0 0 0 0 0 0 0 0 0 0 0 0 0 0 0 0 0 0 0 0 0 0 0 0 0 0 0 0 0 0 0 
0 0 0 0 0 0 0 0 0 0 0 0 0 0 0 0 0 8 15 11 60 144 128 141 179 182 149 148 123 120 137 152 180 172 139 135 127 120 124 130 123 112 90 76 65 66 69 74 75 77 78 84 85 82 81 84 83 87 88 93 108 115 114 112 107 106 108 109 103 125 150 163 173 146 100 114 126 144 180 167 173 178 153 125 53 6 2 1 4 5 4 1 0 0 0 0 0 0 0 0 0 0 0 0 0 0 0 0 0 0 0 0 0 0 0 0 0 0 0 0 0 0 0 0 0 0 0 0 
0 0 0 0 0 0 0 0 0 0 0 0 0 0 0 0 3 13 15 48 130 137 138 170 191 150 140 130 118 136 148 165 161 140 140 131 122 129 126 119 104 75 61 59 68 76 85 93 98 99 97 99 98 98 93 90 93 92 91 89 90 94 104 114 119 110 105 117 108 111 133 155 164 178 131 92 107 123 144 172 168 191 160 144 114 28 4 1 5 6 5 1 0 0 0 0 0 0 0 0 0 0 0 0 0 0 0 0 0 0 0 0 0 0 0 0 0 0 0 0 0 0 0 0 0 0 0 0 
0 0 0 0 0 0 0 0 0 0 0 0 0 0 0 2 9 18 40 113 146 127 169 188 170 142 139 120 133 146 154 161 136 141 142 127 125 120 116 99 68 57 66 79 87 96 97 99 97 90 85 88 91 90 87 83 89 92 93 98 97 92 83 88 112 114 108 106 107 108 110 137 155 161 169 114 99 105 119 147 160 188 175 151 135 71 10 1 5 6 5 1 0 0 0 0 0 0 0 0 0 0 0 0 0 0 0 0 0 0 0 0 0 0 0 0 0 0 0 0 0 0 0 0 0 0 0 0 
0 0 0 0 0 0 0 0 0 0 0 0 0 0 0 7 14 29 85 144 121 151 175 186 145 133 118 124 144 150 161 143 135 144 128 124 118 111 93 65 61 71 85 95 95 97 94 87 83 81 81 79 80 78 80 78 81 84 86 94 99 102 96 84 84 107 112 106 101 104 104 112 144 150 172 158 102 97 108 127 145 175 189 150 142 105 28 3 5 6 4 1 0 0 0 0 0 0 0 0 0 0 0 0 0 0 0 0 0 0 0 0 0 0 0 0 0 0 0 0 0 0 0 0 0 0 0 0 
0 0 0 0 0 0 0 0 0 0 0 0 0 0 1 9 17 60 123 134 128 169 175 162 118 117 114 145 149 167 150 139 142 139 131 126 105 75 63 64 77 90 97 96 91 89 85 83 84 82 81 83 80 81 80 82 82 84 88 91 94 99 101 99 84 87 109 113 104 102 103 108 125 147 166 181 137 93 98 121 122 160 195 157 143 129 55 4 5 6 4 1 0 0 0 0 0 0 0 0 0 0 0 0 0 0 0 0 0 0 0 0 0 0 0 0 0 0 0 0 0 0 0 0 0 0 0 0 
0 0 0 0 0 0 0 0 0 0 0 0 0 0 4 6 34 98 147 124 156 165 174 130 108 115 136 141 156 163 141 148 136 125 123 100 69 57 58 71 93 101 98 94 90 91 87 89 88 88 87 89 92 95 93 95 93 88 87 87 87 93 97 99 96 85 91 106 107 108 109 107 115 137 149 178 175 104 98 104 119 132 189 165 143 141 85 14 5 6 4 0 0 0 0 0 0 0 0 0 0 0 0 0 0 0 0 0 0 0 0 0 0 0 0 0 0 0 0 0 0 0 0 0 0 0 0 0 
0 0 0 0 0 0 0 0 0 0 0 0 0 0 6 13 64 126 144 134 162 151 153 100 111 127 139 134 162 143 145 142 120 119 100 67 57 61 71 93 100 102 98 95 95 100 104 101 100 99 104 104 106 111 113 116 109 99 99 99 89 87 93 92 93 94 90 99 112 115 113 105 107 126 139 158 184 133 99 99 115 119 172 174 146 144 120 30 6 6 5 1 0 0 0 0 0 0 0 0 0 0 0 0 0 0 0 0 0 0 0 0 0 0 0 0 0 0 0 0 0 0 0 0 0 0 0 0 
0 0 0 0 0 0 0 0 0 0 0 0 0 2 7 28 97 136 134 149 156 151 124 93 116 137 125 137 161 140 144 128 116 107 71 58 60 71 92 101 98 98 102 104 108 112 110 107 111 116 120 120 118 126 126 122 119 112 110 101 88 86 86 93 86 87 96 96 108 115 113 108 113 118 124 147 182 141 90 99 104 113 151 181 151 140 141 50 7 6 5 2 0 0 0 0 0 0 0 0 0 0 0 0 0 0 0 0 0 0 0 0 0 0 0 0 0 0 0 0 0 0 0 0 0 0 0 0 
0 0 0 0 0 0 0 0 0 0 0 0 0 4 8 57 119 128 127 154 142 134 112 98 132 130 113 136 154 146 137 124 110 82 58 63 77 98 106 100 97 104 111 114 116 116 114 116 117 116 122 125 122 126 123 115 116 116 113 103 97 95 93 99 98 89 93 99 100 117 119 114 110 117 118 137 173 145 83 97 102 108 136 184 151 130 148 69 8 7 6 2 0 0 0 0 0 0 0 0 0 0 0 0 0 0 0 0 0 0 0 0 0 0 0 0 0 0 0 0 0 0 0 0 0 0 0 0 
0 0 0 0 0 0 0 0 0 0 0 0 0 8 12 88 125 138 136 154 116 127 101 111 137 118 108 141 151 144 124 122 95 71 64 82 105 114 108 105 106 101 104 115 121 118 111 111 108 107 112 121 124 123 115 107 106 109 112 109 107 105 104 106 108 95 88 92 101 109 116 118 110 115 119 124 150 153 86 91 104 106 128 182 156 132 149 88 12 7 6 2 0 0 0 0 0 0 0 0 0 0 0 0 0 0 0 0 0 0 0 0 0 0 0 0 0 0 0 0 0 0 0 0 0 0 0 0 
0 0 0 0 0 0 0 0 0 0 0 0 0 9 26 106 130 141 145 135 98 125 104 128 130 109 94 149 152 141 121 106 70 66 86 112 122 115 111 103 90 93 93 95 113 115 104 97 97 102 106 107 117 114 108 101 104 107 110 117 120 119 115 116 117 107 90 80 94 105 112 119 113 107 117 121 152 154 96 85 102 104 128 174 158 145 148 106 18 7 6 2 0 0 0 0 0 0 0 0 0 0 0 0 0 0 0 0 0 0 0 0 0 0 0 0 0 0 0 0 0 0 0 0 0 0 0 0 
0 0 0 0 0 0 0 0 0 0 0 0 2 6 39 111 135 140 146 117 103 127 109 133 118 91 100 163 161 137 108 77 57 86 120 130 121 116 107 93 94 94 91 89 96 114 101 91 92 97 102 101 112 108 101 100 105 110 116 118 107 103 94 90 95 97 96 90 90 99 111 121 112 108 118 122 154 144 109 82 98 106 127 161 153 146 138 125 22 8 6 2 0 0 0 0 0 0 0 0 0 0 0 0 0 0 0 0 0 0 0 0 0 0 0 0 0 0 0 0 0 0 0 0 0 0 0 0 
0 0 0 0 0 0 0 0 0 0 0 0 3 5 56 111 144 145 155 112 101 132 121 126 109 85 111 166 163 124 90 60 69 114 130 126 117 112 99 94 94 92 91 88 83 102 102 93 92 97 107 103 107 105 101 104 108 115 118 100 87 86 88 89 91 95 91 86 88 89 104 121 123 108 112 122 151 134 114 90 93 100 125 160 161 151 138 131 32 8 5 2 0 0 0 0 0 0 0 0 0 0 0 0 0 0 0 0 0 0 0 0 0 0 0 0 0 0 0 0 0 0 0 0 0 0 0 0 
0 0 0 0 0 0 0 0 0 0 0 0 2 3 66 116 152 145 151 106 99 138 132 123 106 91 117 165 148 99 65 61 96 126 128 116 107 110 115 94 93 90 87 87 81 80 95 105 101 105 112 105 100 103 104 110 110 116 115 94 86 85 88 89 89 93 95 101 93 79 87 109 133 128 114 122 148 122 108 98 95 106 121 161 168 155 141 131 47 8 6 3 0 0 0 0 0 0 0 0 0 0 0 0 0 0 0 0 0 0 0 0 0 0 0 0 0 0 0 0 0 0 0 0 0 0 0 0 
0 0 0 0 0 0 0 0 0 0 0 0 2 9 73 124 150 143 144 102 104 142 134 121 104 100 121 161 137 83 59 86 115 129 120 111 104 104 109 114 115 106 87 83 82 81 84 96 106 110 115 111 95 100 110 114 107 110 109 87 87 85 82 85 86 99 111 104 94 85 89 95 123 143 134 123 141 111 108 105 95 107 112 158 171 156 146 132 65 9 5 2 0 0 0 0 0 0 0 0 0 0 0 0 0 0 0 0 0 0 0 0 0 0 0 0 0 0 0 0 0 0 0 0 0 0 0 0 
0 0 0 0 0 0 0 0 0 0 0 0 3 12 74 132 142 142 147 107 111 154 131 126 110 111 117 162 133 72 79 102 111 123 122 106 92 91 90 90 91 94 86 80 81 80 82 87 107 115 118 118 111 117 124 105 93 89 88 87 83 83 83 85 89 90 96 94 84 67 61 76 108 145 163 148 133 104 107 112 101 109 117 162 173 165 148 131 89 13 6 3 0 0 0 0 0 0 0 0 0 0 0 0 0 0 0 0 0 0 0 0 0 0 0 0 0 0 0 0 0 0 0 0 0 0 0 0 
0 0 0 0 0 0 0 0 0 0 0 0 3 19 78 139 133 139 143 103 112 164 135 127 122 122 109 146 133 85 95 103 113 126 104 95 94 91 89 90 87 86 81 82 90 86 84 87 88 88 93 114 130 135 129 108 97 91 89 82 80 87 91 94 88 88 95 97 92 76 59 53 75 142 172 165 136 103 116 122 106 108 126 162 166 163 152 129 101 16 6 3 0 0 0 0 0 0 0 0 0 0 0 0 0 0 0 0 0 0 0 0 0 0 0 0 0 0 0 0 0 0 0 0 0 0 0 0 
0 0 0 0 0 0 0 0 0 0 0 0 3 18 83 148 133 147 142 98 110 165 138 122 138 129 117 128 140 117 99 104 116 109 100 95 92 91 93 101 95 88 82 81 78 85 81 84 88 90 94 114 144 152 139 121 99 90 84 80 82 87 109 115 116 127 129 127 130 131 112 84 93 136 157 163 152 119 116 121 99 104 129 156 152 159 157 132 108 21 6 3 0 0 0 0 0 0 0 0 0 0 0 0 0 0 0 0 0 0 0 0 0 0 0 0 0 0 0 0 0 0 0 0 0 0 0 0 
0 0 0 0 0 0 0 0 0 0 0 0 6 18 83 155 131 150 136 94 109 163 137 121 141 127 123 118 133 131 100 107 95 103 103 106 103 108 121 131 126 108 93 86 82 81 82 82 84 88 96 122 162 170 159 128 97 87 84 84 90 107 117 102 104 108 111 122 125 121 106 88 94 124 149 156 158 139 119 120 91 100 124 147 142 154 160 136 115 26 6 2 0 0 0 0 0 0 0 0 0 0 0 0 0 0 0 0 0 0 0 0 0 0 0 0 0 0 0 0 0 0 0 0 0 0 0 0 
0 0 0 0 0 0 0 0 0 0 0 0 8 16 85 154 130 149 119 93 111 156 141 121 136 127 128 125 129 135 112 94 92 105 119 137 133 128 119 114 113 113 115 114 92 81 83 82 80 84 93 130 168 168 169 129 95 86 84 98 102 106 79 80 87 91 91 93 96 92 86 79 97 136 156 143 155 143 125 123 85 93 128 136 139 145 154 137 119 35 6 3 0 0 0 0 0 0 0 0 0 0 0 0 0 0 0 0 0 0 0 0 0 0 0 0 0 0 0 0 0 0 0 0 0 0 0 0 
0 0 0 0 0 0 0 0 0 0 0 0 8 14 90 154 130 149 112 94 113 150 150 122 128 133 132 122 118 128 119 103 121 138 146 133 113 96 87 89 89 87 86 96 105 89 81 88 84 81 98 134 158 128 149 141 95 85 89 99 106 79 80 85 87 92 93 93 92 77 68 85 113 128 134 131 137 137 127 119 80 87 129 133 136 147 156 139 121 47 8 3 0 0 0 0 0 0 0 0 0 0 0 0 0 0 0 0 0 0 0 0 0 0 0 0 0 0 0 0 0 0 0 0 0 0 0 0 
0 0 0 0 0 0 0 0 0 0 0 0 7 12 91 149 127 153 111 98 115 144 151 121 115 129 136 134 119 111 99 100 132 142 127 116 98 82 81 87 92 87 85 82 90 105 87 87 84 78 94 142 133 108 120 146 98 82 91 109 87 79 86 87 90 90 92 93 88 72 56 75 109 108 132 127 130 128 130 112 74 77 111 131 134 138 153 140 122 58 8 3 0 0 0 0 0 0 0 0 0 0 0 0 0 0 0 0 0 0 0 0 0 0 0 0 0 0 0 0 0 0 0 0 0 0 0 0 
0 0 0 0 0 0 0 0 0 0 0 0 7 12 94 141 126 152 109 102 107 140 146 105 104 123 132 130 103 95 82 86 112 143 134 111 88 83 83 85 90 90 85 85 82 92 106 96 87 78 96 135 117 99 108 144 109 89 114 98 79 82 81 83 82 88 91 93 84 65 52 65 110 122 144 128 133 128 124 104 73 77 93 131 130 122 152 140 121 66 10 3 0 0 0 0 0 0 0 0 0 0 0 0 0 0 0 0 0 0 0 0 0 0 0 0 0 0 0 0 0 0 0 0 0 0 0 0 
0 0 0 0 0 0 0 0 0 0 0 0 7 14 97 143 128 150 109 92 97 139 130 89 96 116 130 120 89 83 65 88 106 136 136 103 85 84 83 93 92 90 87 84 82 79 85 106 121 116 122 135 69 75 79 107 139 123 119 87 83 83 89 88 81 87 91 91 79 62 50 60 93 125 140 124 129 125 121 93 72 81 79 117 130 105 144 141 124 72 10 4 0 0 0 0 0 0 0 0 0 0 0 0 0 0 0 0 0 0 0 0 0 0 0 0 0 0 0 0 0 0 0 0 0 0 0 0 
0 0 0 0 0 0 0 0 0 0 0 0 7 15 94 145 134 150 91 73 95 134 110 87 95 112 129 113 86 78 57 77 102 117 116 97 91 86 81 84 89 91 86 83 72 63 63 75 76 96 152 123 97 82 89 100 115 110 101 85 93 98 104 87 84 89 92 88 76 59 53 60 86 130 133 121 121 121 118 87 74 81 75 119 139 102 124 132 126 76 9 4 0 0 0 0 0 0 0 0 0 0 0 0 0 0 0 0 0 0 0 0 0 0 0 0 0 0 0 0 0 0 0 0 0 0 0 0 
0 0 0 0 0 0 0 0 0 0 0 0 6 17 93 145 135 153 95 70 102 122 105 97 98 114 128 107 82 80 61 63 98 115 114 100 90 86 85 88 92 91 91 90 68 60 64 69 77 110 138 101 103 85 89 72 111 132 102 95 89 90 90 87 87 91 94 88 73 57 54 64 91 137 127 118 118 120 119 81 79 83 75 108 140 105 124 138 126 73 8 3 0 0 0 0 0 0 0 0 0 0 0 0 0 0 0 0 0 0 0 0 0 0 0 0 0 0 0 0 0 0 0 0 0 0 0 0 
0 0 0 0 0 0 0 0 0 0 0 0 6 17 88 145 143 148 102 73 106 119 102 100 106 116 126 107 79 85 72 56 87 116 116 105 88 87 86 92 91 92 92 75 61 72 67 69 90 138 132 92 80 73 67 59 83 130 107 87 89 85 82 88 89 91 94 89 70 54 54 64 94 134 116 118 118 120 112 76 83 85 80 107 138 101 127 132 130 69 9 3 0 0 0 0 0 0 0 0 0 0 0 0 0 0 0 0 0 0 0 0 0 0 0 0 0 0 0 0 0 0 0 0 0 0 0 0 
0 0 0 0 0 0 0 0 0 0 0 0 6 14 78 142 146 141 107 73 105 112 97 101 108 118 128 108 77 93 90 63 75 116 112 106 96 90 87 92 91 90 75 65 64 67 61 72 109 148 97 81 79 79 72 68 70 115 131 93 87 85 83 94 91 93 94 89 69 55 53 73 100 117 115 118 132 124 104 68 76 82 82 111 132 102 128 126 126 61 8 3 0 0 0 0 0 0 0 0 0 0 0 0 0 0 0 0 0 0 0 0 0 0 0 0 0 0 0 0 0 0 0 0 0 0 0 0 
0 0 0 0 0 0 0 0 0 0 0 0 5 14 71 140 148 136 112 76 102 106 89 103 106 116 129 116 88 99 99 72 68 108 111 111 107 95 94 94 92 82 70 63 59 66 64 68 128 139 80 75 77 88 95 83 75 88 131 124 90 82 92 107 97 95 93 85 60 48 56 83 99 111 117 121 131 124 92 60 72 75 91 120 122 102 132 118 124 51 8 4 0 0 0 0 0 0 0 0 0 0 0 0 0 0 0 0 0 0 0 0 0 0 0 0 0 0 0 0 0 0 0 0 0 0 0 0 
0 0 0 0 0 0 0 0 0 0 0 0 5 13 65 140 150 137 114 75 93 103 78 104 105 109 121 121 103 99 96 71 68 104 115 110 112 98 95 91 87 76 69 62 62 65 64 100 145 109 73 75 78 91 105 84 75 77 105 146 119 97 101 111 103 95 94 84 58 48 69 95 81 101 116 127 134 125 78 53 71 75 112 124 113 103 131 107 118 42 9 4 0 0 0 0 0 0 0 0 0 0 0 0 0 0 0 0 0 0 0 0 0 0 0 0 0 0 0 0 0 0 0 0 0 0 0 0 
0 0 0 0 0 0 0 0 0 1 6 0 0 10 54 134 147 132 123 81 88 111 75 96 106 106 109 122 115 93 93 68 67 98 117 110 115 107 90 87 85 86 77 72 85 76 103 138 130 89 74 73 76 92 98 83 78 78 81 127 154 120 119 115 100 97 98 81 54 55 84 83 60 104 123 137 139 134 86 58 71 83 125 114 108 106 122 101 116 37 8 4 0 0 0 0 0 0 0 0 0 0 0 0 0 0 0 0 0 0 0 0 0 0 0 0 0 0 0 0 0 0 0 0 0 0 0 0 
0 0 0 0 0 0 0 0 1 13 13 6 0 4 42 120 133 117 126 86 78 113 95 90 105 113 123 134 130 83 77 75 65 95 110 109 104 109 91 95 103 100 90 77 71 100 139 122 126 82 80 78 76 84 96 103 90 79 76 107 151 170 131 98 94 91 91 77 60 53 68 66 65 113 134 141 146 125 93 84 76 106 126 93 103 110 110 105 108 31 7 3 0 0 0 0 0 0 0 0 0 0 0 0 0 0 0 0 0 0 0 0 0 0 0 0 0 0 0 0 0 0 0 0 0 0 0 0 
0 0 0 0 0 0 0 0 0 3 6 10 3 4 32 113 131 117 120 88 73 100 110 100 107 114 124 138 143 85 67 84 73 100 108 119 107 102 89 95 96 99 95 97 105 116 119 125 130 76 64 65 74 88 88 93 102 84 78 90 136 166 154 126 108 106 101 73 65 65 52 56 75 114 135 152 137 84 80 104 95 123 116 84 101 119 100 118 95 25 7 2 0 0 0 0 0 0 0 0 0 0 0 0 0 0 0 0 0 0 0 0 0 0 0 0 0 0 0 0 0 0 0 0 0 0 0 0 
0 0 0 0 0 0 0 0 0 0 2 8 9 4 21 99 128 123 121 99 76 87 117 101 102 113 124 136 152 113 88 76 85 101 105 110 106 97 116 103 110 111 111 117 129 116 122 146 119 64 63 71 76 110 82 90 103 86 84 86 133 157 161 145 136 137 142 115 88 93 69 67 89 126 148 157 109 63 82 124 105 140 100 81 121 121 103 127 83 19 6 4 2 12 1 0 0 0 0 0 0 0 0 0 0 0 0 0 0 0 0 0 0 0 0 0 0 0 0 0 0 0 0 0 0 0 0 0 
0 0 0 0 0 0 0 0 0 0 0 3 7 6 15 82 125 128 120 120 90 73 111 107 90 108 124 138 156 130 100 93 101 125 118 113 109 109 132 127 116 114 111 123 135 122 131 151 122 64 59 78 75 100 84 78 92 85 83 95 132 167 167 141 141 145 146 135 123 117 101 89 118 132 142 143 90 64 105 130 129 144 147 120 138 125 113 138 66 16 13 8 0 0 9 0 0 0 0 0 0 0 0 0 0 0 0 0 0 0 0 0 0 0 0 0 0 0 0 0 0 0 0 0 0 0 0 0 
0 0 0 0 0 0 0 0 0 0 0 0 2 9 10 70 126 128 129 123 95 74 92 125 98 100 124 145 150 136 110 100 100 119 124 120 119 120 130 124 119 106 112 121 136 129 134 146 117 71 66 75 71 92 81 68 91 96 91 111 135 162 151 132 136 139 126 100 78 74 103 102 103 114 154 137 111 115 131 128 143 116 140 165 148 97 97 144 50 15 10 6 5 4 0 0 0 0 0 0 0 0 0 0 0 0 0 0 0 0 0 0 0 0 0 0 0 0 0 0 0 0 0 0 0 0 0 0 
0 0 0 0 0 0 0 0 0 0 0 0 3 9 9 60 123 121 137 129 96 81 85 164 134 89 116 148 151 143 120 98 106 119 120 129 121 129 137 126 113 91 87 104 133 137 141 146 133 101 70 64 72 95 79 95 118 99 92 94 125 154 146 138 127 130 112 88 57 71 121 119 108 129 161 145 139 145 154 162 160 131 157 179 149 94 122 136 37 14 7 6 0 0 0 0 0 0 0 0 0 0 0 0 0 0 0 0 0 0 0 0 0 0 0 0 0 0 0 0 0 0 0 0 0 0 0 0 
0 0 0 0 0 0 0 0 0 0 0 0 5 13 8 45 130 114 140 141 95 83 104 158 138 98 111 159 151 141 138 117 122 136 120 111 110 114 111 100 99 91 84 85 100 125 139 154 134 100 94 98 87 112 96 99 92 111 96 99 135 160 152 134 118 114 122 116 95 117 151 145 146 148 145 115 137 159 158 169 174 188 182 182 144 95 143 130 29 12 9 4 0 0 0 0 0 0 0 0 0 0 0 0 0 0 0 0 0 0 0 0 0 0 0 0 0 0 0 0 0 0 0 0 0 0 0 0 
0 0 0 0 0 0 0 0 0 0 0 0 9 15 12 31 131 115 131 159 129 107 144 175 140 106 98 151 158 148 138 125 114 119 78 65 84 107 123 121 133 118 102 88 86 103 130 150 111 76 91 94 98 125 108 85 89 104 101 104 117 162 139 98 88 83 106 120 119 131 152 158 159 154 128 116 148 151 133 138 140 152 171 197 138 117 159 107 19 12 10 4 0 0 0 0 0 0 0 0 0 0 0 0 0 0 0 0 0 0 0 0 0 0 0 0 0 0 0 0 0 0 0 0 0 0 0 0 
0 0 0 0 0 0 0 0 0 0 0 0 8 16 14 16 68 137 114 137 153 156 162 193 182 136 97 106 142 157 150 138 124 112 123 92 90 101 119 131 142 150 122 108 93 91 122 142 109 85 76 98 90 107 117 95 92 100 103 101 101 122 139 90 71 65 67 76 112 122 135 143 167 148 119 109 136 144 144 119 123 111 149 167 120 78 135 121 23 17 16 5 2 0 0 0 0 0 0 0 0 0 0 0 0 0 0 0 0 0 0 0 0 0 0 0 0 0 0 0 0 0 0 0 0 0 0 0 
0 0 0 0 0 0 0 0 0 0 0 2 15 9 3 12 34 129 119 122 139 150 155 162 166 153 144 139 132 165 164 130 133 158 152 138 129 123 125 118 125 143 144 127 103 109 137 133 115 96 96 99 106 126 128 118 112 107 94 114 110 98 109 83 78 76 76 79 116 141 157 160 144 81 88 119 139 162 134 138 138 106 134 130 98 75 120 72 10 8 20 11 2 0 0 0 0 0 0 0 0 0 0 0 0 0 0 0 0 0 0 0 0 0 0 0 0 0 0 0 0 0 0 0 0 0 0 0 
0 0 0 0 0 0 0 0 0 0 0 0 4 2 0 6 20 101 129 115 127 127 132 127 167 139 111 119 131 152 157 137 151 173 160 146 126 121 102 104 100 125 139 135 104 100 137 113 116 117 109 112 102 104 126 139 115 95 97 108 98 71 101 82 57 67 81 102 146 161 142 146 116 94 124 143 164 185 126 146 151 144 130 111 112 130 136 31 9 9 11 18 2 0 0 0 0 0 0 0 0 0 0 0 0 0 0 0 0 0 0 0 0 0 0 0 0 0 0 0 0 0 0 0 0 0 0 0 
0 0 0 0 0 0 0 0 0 0 0 0 0 3 0 0 12 62 140 96 108 112 114 106 96 114 109 109 146 153 134 128 133 154 152 152 138 118 84 96 97 99 90 80 79 83 131 95 98 125 135 131 98 98 124 127 87 73 85 80 65 74 101 90 72 63 92 129 145 152 156 130 87 129 162 171 190 198 148 152 154 159 151 100 100 162 84 13 10 14 15 9 2 0 0 0 0 0 0 0 0 0 0 0 0 0 0 0 0 0 0 0 0 0 0 0 0 0 0 0 0 0 0 0 0 0 0 0 
0 0 0 0 0 0 0 0 0 0 0 0 0 5 0 0 14 25 124 95 102 116 125 111 107 130 128 143 161 174 154 103 122 150 172 160 161 126 90 67 72 71 75 66 54 70 136 109 92 121 140 142 114 100 101 83 59 58 75 75 63 82 116 83 111 115 119 119 133 133 104 79 109 124 142 155 195 191 138 135 156 164 117 59 79 136 37 9 4 10 14 6 3 0 0 0 0 0 0 0 0 0 0 0 0 0 0 0 0 0 0 0 0 0 0 0 0 0 0 0 0 0 0 0 0 0 0 0 
0 0 0 0 0 0 0 0 0 0 0 0 0 5 0 0 14 13 86 113 93 110 115 117 103 140 182 172 145 144 161 115 75 133 170 173 170 168 116 64 67 74 67 52 57 106 117 118 136 141 111 109 116 101 121 133 106 73 87 112 99 106 153 142 134 134 124 133 115 85 61 92 115 100 124 141 193 192 178 156 163 135 60 27 112 92 19 14 3 8 9 6 3 0 0 0 0 0 0 0 0 0 0 0 0 0 0 0 0 0 0 0 0 0 0 0 0 0 0 0 0 0 0 0 0 0 0 0 
0 0 0 0 0 0 0 0 0 0 0 1 3 6 0 0 11 9 40 138 99 85 107 133 121 145 187 182 137 131 152 136 72 84 103 138 169 150 126 99 69 90 64 91 146 147 147 138 111 108 107 112 123 142 162 157 148 141 131 135 129 137 162 170 147 146 141 125 78 57 79 82 90 96 123 143 185 189 186 179 153 116 26 38 131 50 15 17 3 8 10 7 3 0 0 0 0 0 0 0 0 0 0 0 0 0 0 0 0 0 0 0 0 0 0 0 0 0 0 0 0 0 0 0 0 0 0 0 
0 0 0 0 0 0 0 0 0 0 0 0 5 6 0 0 11 12 20 121 111 78 96 120 154 175 173 171 161 135 151 142 87 89 68 104 148 137 132 130 127 137 151 149 141 147 139 120 105 109 126 134 140 133 140 140 140 142 134 144 148 144 145 161 147 146 131 104 64 85 78 76 79 84 106 134 165 184 172 194 138 78 14 50 115 26 17 19 4 7 11 6 3 0 0 0 0 0 0 0 0 0 0 0 0 0 0 0 0 0 0 0 0 0 0 0 0 0 0 0 0 0 0 0 0 0 0 0 
0 0 0 0 0 0 0 0 0 0 0 0 3 4 0 0 13 10 9 78 117 89 75 99 160 202 160 147 171 143 152 159 104 95 86 80 97 108 119 130 150 140 152 134 127 141 150 124 109 122 140 141 158 176 185 162 164 151 135 138 150 160 145 152 153 132 107 110 109 88 78 81 85 85 83 95 148 179 160 186 128 76 19 97 94 19 14 16 3 7 11 6 4 0 0 0 0 0 0 0 0 0 0 0 0 0 0 0 0 0 0 0 0 0 0 0 0 0 0 0 0 0 0 0 0 0 0 0 
0 0 0 0 0 0 0 0 0 0 0 0 0 0 0 0 16 10 10 51 95 84 76 84 138 195 191 159 159 157 132 166 126 98 84 90 90 105 129 141 140 142 164 153 143 159 175 148 134 138 138 135 139 157 173 172 156 142 126 137 143 140 125 128 142 131 119 138 125 96 88 82 71 69 100 113 142 173 156 161 88 83 85 83 90 18 11 13 3 4 11 6 3 1 0 0 0 0 0 0 0 0 0 0 0 0 0 0 0 0 0 0 0 0 0 0 0 0 0 0 0 0 0 0 0 0 0 0 
0 0 0 0 0 0 0 0 0 0 0 6 11 5 1 0 16 12 10 42 105 90 92 70 111 169 191 188 164 153 121 146 119 108 91 89 86 94 99 112 122 146 159 168 186 201 181 156 147 134 134 136 147 161 158 145 156 158 137 132 126 106 108 111 145 178 158 157 145 101 77 68 77 129 167 141 150 179 157 131 81 79 104 107 88 16 10 13 9 3 8 8 4 0 0 0 0 0 0 0 0 0 0 0 0 0 0 0 0 0 0 0 0 0 0 0 0 0 0 0 0 0 0 0 0 0 0 0 
0 0 0 0 0 0 0 0 0 0 0 6 13 13 5 3 14 13 14 27 107 90 88 84 134 159 166 169 177 149 131 141 92 66 78 91 99 106 107 106 114 115 118 134 177 196 166 158 138 131 149 175 180 163 155 124 133 136 122 124 134 111 115 144 172 210 186 161 138 101 88 76 98 140 187 182 174 185 144 113 86 69 47 102 62 17 8 6 11 3 7 7 3 1 0 0 0 0 0 0 0 0 0 0 0 0 0 0 0 0 0 0 0 0 0 0 0 0 0 0 0 0 0 0 0 0 0 0 
0 0 0 0 0 0 0 0 0 0 0 1 13 16 13 15 14 20 18 15 52 102 72 80 130 151 142 137 157 138 150 153 123 71 49 49 61 77 98 119 129 116 112 121 157 176 145 141 113 121 159 187 171 172 140 113 122 136 134 134 143 137 140 155 181 165 149 131 116 82 98 127 149 169 183 155 157 169 144 125 100 35 21 54 28 14 14 6 12 3 9 11 6 1 0 0 0 0 0 0 0 0 0 0 0 0 0 0 0 0 0 0 0 0 0 0 0 0 0 0 0 0 0 0 0 0 0 0 
0 0 0 0 0 0 0 0 0 0 0 3 11 14 14 6 4 7 17 17 15 69 85 115 139 155 151 138 114 136 136 160 168 147 125 93 77 88 104 116 122 90 94 116 123 156 132 124 100 104 152 156 144 164 162 136 129 132 125 128 150 140 106 153 129 132 114 123 147 150 139 138 146 140 111 95 108 132 108 126 112 85 87 64 15 10 13 11 13 14 9 8 11 7 0 0 0 0 0 0 0 0 0 0 0 0 0 0 0 0 0 0 0 0 0 0 0 0 0 0 0 0 0 0 0 0 0 0 
0 0 0 0 0 0 0 0 0 0 0 0 9 11 4 4 4 4 12 23 17 26 83 116 136 136 134 118 136 150 133 133 152 167 161 170 159 129 102 86 80 128 142 120 145 122 116 139 159 167 178 194 194 202 201 186 179 165 139 134 167 160 155 167 144 115 101 163 186 184 156 112 100 108 92 73 90 131 102 94 106 106 91 43 5 6 6 9 7 14 16 16 14 11 1 0 0 0 0 0 0 0 0 0 0 0 0 0 0 0 0 0 0 0 0 0 0 0 0 0 0 0 0 0 0 0 0 0 
0 0 0 0 0 0 0 0 0 0 0 0 4 11 8 3 3 1 3 17 28 20 34 94 112 80 70 64 83 144 143 147 147 162 155 155 147 144 164 168 170 153 180 204 199 192 198 206 171 181 205 199 189 186 182 175 189 195 188 185 193 200 179 186 173 176 167 190 134 135 130 116 79 76 88 102 99 110 78 69 72 68 54 46 5 9 5 7 4 4 6 13 12 2 0 0 0 0 0 0 0 0 0 0 0 0 0 0 0 0 0 0 0 0 0 0 0 0 0 0 0 0 0 0 0 0 0 0 
0 0 0 0 0 0 0 0 0 0 0 0 0 5 10 3 1 1 0 13 31 26 15 22 40 28 30 14 17 53 86 124 140 89 56 56 57 84 104 131 123 107 100 126 153 120 130 210 166 187 218 223 221 199 174 187 187 179 175 222 220 178 140 130 186 186 195 171 188 162 157 123 65 46 57 93 98 72 60 70 53 32 32 15 11 2 5 5 3 1 3 7 11 2 1 0 0 0 0 0 0 0 0 0 0 0 0 0 0 0 0 0 0 0 0 0 0 0 0 0 0 0 0 0 0 0 0 0 
0 0 0 0 0 0 0 0 0 0 0 0 0 0 1 1 4 3 3 4 12 17 18 18 23 21 19 12 28 61 39 33 61 72 66 107 71 50 49 46 66 85 104 121 76 66 75 103 163 161 165 159 151 124 118 135 140 130 119 111 76 83 83 109 112 114 67 49 61 59 59 68 63 74 53 41 69 55 28 26 28 25 29 9 1 2 9 10 3 2 5 16 11 3 2 0 0 0 0 0 0 0 0 0 0 0 0 0 0 0 0 0 0 0 0 0 0 0 0 0 0 0 0 0 0 0 0 0 
0 0 0 0 0 0 0 0 0 0 0 0 0 0 0 0 0 3 4 0 4 9 12 16 20 20 17 21 30 58 41 39 36 50 41 75 70 59 55 47 48 71 58 61 63 78 87 82 97 105 84 57 74 79 87 71 53 71 78 78 80 56 39 47 50 59 69 172 174 150 60 47 53 73 43 31 63 51 26 20 23 27 26 4 0 1 4 4 2 1 5 13 4 2 3 0 0 0 0 0 0 0 0 0 0 0 0 0 0 0 0 0 0 0 0 0 0 0 0 0 0 0 0 0 0 0 0 0 
0 0 0 0 0 0 0 0 0 0 0 0 0 0 0 0 0 0 0 0 2 5 8 19 25 32 27 31 51 79 57 63 67 78 57 45 55 68 80 107 127 104 99 75 72 96 126 139 127 86 63 60 73 100 95 77 88 123 126 118 111 85 78 88 108 122 109 156 152 142 83 40 59 79 59 54 76 53 24 16 16 18 12 1 0 0 0 1 0 0 1 2 2 1 2 0 0 0 0 0 0 0 0 0 0 0 0 0 0 0 0 0 0 0 0 0 0 0 0 0 0 0 0 0 0 0 0 0 
0 0 0 0 0 0 0 0 0 0 0 0 0 0 0 0 0 0 0 0 0 0 4 10 19 30 39 63 85 121 132 138 147 153 108 63 59 87 102 132 177 170 163 132 124 179 162 202 219 188 171 152 144 152 148 159 169 168 147 139 143 135 141 149 101 147 150 177 136 103 112 26 30 24 15 14 24 16 10 6 7 8 0 0 0 0 0 0 0 0 0 0 0 0 1 0 0 0 0 0 0 0 0 0 0 0 0 0 0 0 0 0 0 0 0 0 0 0 0 0 0 0 0 0 0 0 0 0 
0 0 0 0 0 0 0 0 0 0 0 0 0 0 0 0 0 0 0 0 0 0 0 1 5 27 49 56 80 109 128 128 136 140 107 82 73 78 133 155 182 202 129 154 184 168 164 164 201 235 189 172 156 162 195 217 217 178 145 138 136 138 112 88 128 108 132 200 155 176 85 64 62 59 51 46 78 52 38 27 14 1 1 1 1 0 1 1 0 0 0 3 1 0 2 0 0 0 0 0 0 0 0 0 0 0 0 0 0 0 0 0 0 0 0 0 0 0 0 0 0 0 0 0 0 0 0 0 
0 0 0 0 0 0 0 0 0 0 0 0 0 0 0 0 0 0 0 0 0 0 0 1 2 24 38 42 61 77 96 86 101 145 111 43 36 48 80 92 117 138 96 109 115 171 153 161 153 151 151 147 135 139 147 151 150 131 134 130 110 84 70 103 109 117 126 179 195 149 83 41 23 81 110 60 84 49 19 11 9 2 1 0 3 6 8 9 12 12 8 12 10 9 10 0 0 0 0 0 0 0 0 0 0 0 0 0 0 0 0 0 0 0 0 0 0 0 0 0 0 0 0 0 0 0 0 0 
0 0 0 0 0 0 0 0 0 0 0 0 0 0 0 0 0 0 0 0 0 0 1 6 10 21 21 16 25 45 71 59 69 110 73 32 50 58 124 81 97 112 97 80 99 110 109 109 119 98 68 60 94 101 74 65 61 71 103 94 89 91 83 75 112 126 129 110 177 158 122 77 72 93 145 66 72 41 26 19 19 18 3 0 0 1 5 7 6 4 3 8 7 7 8 0 0 0 0 0 0 0 0 0 0 0 0 0 0 0 0 0 0 0 0 0 0 0 0 0 0 0 0 0 0 0 0 0 
0 0 0 0 0 0 0 0 0 0 0 0 0 0 0 0 0 0 0 0 0 0 0 5 10 15 19 18 21 33 61 67 74 115 81 32 33 57 102 99 93 114 105 81 110 157 100 91 132 98 56 47 51 72 75 63 55 85 125 121 80 86 119 110 86 85 92 122 108 122 101 58 42 59 155 93 67 32 20 21 20 11 5 0 0 1 4 7 7 4 4 7 8 7 8 0 0 0 0 0 0 0 0 0 0 0 0 0 0 0 0 0 0 0 0 0 0 0 0 0 0 0 0 0 0 0 0 0 
0 0 0 0 0 0 0 0 0 0 0 0 0 0 0 0 0 0 0 0 0 0 0 3 9 14 20 20 19 28 53 65 70 118 85 34 28 30 66 114 118 127 95 65 89 158 127 94 127 111 83 85 105 131 113 84 82 108 105 114 102 120 145 153 115 76 83 102 81 65 46 38 36 43 150 105 65 29 21 22 15 11 4 0 0 0 3 6 6 3 3 6 8 7 9 0 0 0 0 0 0 0 0 0 0 0 0 0 0 0 0 0 0 0 0 0 0 0 0 0 0 0 0 0 0 0 0 0 
0 0 0 0 0 0 0 0 0 0 0 0 0 0 0 0 0 0 0 0 0 0 0 0 9 8 19 21 19 26 48 68 65 121 88 35 30 29 45 70 113 107 64 57 69 126 124 104 143 116 122 141 136 146 133 108 112 103 78 107 128 139 171 169 113 69 64 89 103 74 41 31 30 32 138 108 65 29 22 23 15 10 4 0 0 1 4 7 7 5 4 6 8 8 9 0 0 0 0 0 0 0 0 0 0 0 0 0 0 0 0 0 0 0 0 0 0 0 0 0 0 0 0 0 0 0 0 0 
0 0 0 0 0 0 0 0 0 0 0 0 0 0 0 0 0 0 0 0 0 0 0 0 1 8 11 18 20 24 43 57 63 113 91 35 30 27 44 92 99 66 60 54 62 104 127 133 163 105 111 140 127 123 133 123 109 92 90 139 154 130 160 153 109 73 58 53 71 93 56 31 29 29 120 107 62 36 24 20 12 9 2 0 0 1 5 7 8 6 6 7 8 9 11 0 0 0 0 0 0 0 0 0 0 0 0 0 0 0 0 0 0 0 0 0 0 0 0 0 0 0 0 0 0 0 0 0 
0 0 0 0 0 0 0 0 0 0 0 0 0 0 0 0 0 0 0 0 0 0 0 0 0 4 8 13 21 25 42 38 56 94 97 32 32 37 68 97 61 47 58 64 73 96 130 139 128 73 104 144 152 130 119 128 114 114 132 138 137 115 134 139 114 78 63 49 44 75 88 44 38 31 109 116 64 43 24 19 11 6 1 0 0 0 3 5 7 6 5 7 9 10 12 0 0 0 0 0 0 0 0 0 0 0 0 0 0 0 0 0 0 0 0 0 0 0 0 0 0 0 0 0 0 0 0 0 
0 0 0 0 0 0 0 0 0 0 0 0 0 0 0 0 0 0 0 0 0 0 0 0 0 2 5 13 13 22 31 43 54 67 102 34 32 49 89 77 56 42 54 76 74 100 142 128 93 86 119 130 141 153 149 156 162 163 139 99 101 104 123 138 121 83 63 53 48 60 102 74 48 32 102 88 44 25 26 19 14 6 1 0 0 0 2 6 7 6 4 6 9 11 13 0 0 0 0 0 0 0 0 0 0 0 0 0 0 0 0 0 0 0 0 0 0 0 0 0 0 0 0 0 0 0 0 0 
0 0 0 0 0 0 0 0 0 0 0 0 0 0 0 0 0 0 0 0 0 0 0 0 0 0 4 7 16 17 19 34 33 39 100 48 37 82 112 67 47 44 53 67 70 107 144 125 80 101 148 132 121 146 168 173 175 156 124 90 86 97 122 121 104 82 62 52 40 48 102 118 62 38 110 49 13 21 25 20 14 6 0 0 0 0 2 5 7 6 5 5 8 11 13 0 0 0 0 0 0 0 0 0 0 0 0 0 0 0 0 0 0 0 0 0 0 0 0 0 0 0 0 0 0 0 0 0 
0 0 0 0 0 0 0 0 0 0 0 0 0 0 0 0 0 0 0 0 0 0 0 0 0 0 4 3 13 16 19 21 18 25 58 93 88 120 100 72 45 40 52 61 71 89 124 132 96 110 139 138 128 139 151 143 138 119 74 73 86 83 118 121 83 84 59 51 35 49 94 128 110 80 100 20 14 22 23 19 12 4 0 0 0 0 2 6 7 6 4 5 8 10 12 0 0 0 0 0 0 0 0 0 0 0 0 0 0 0 0 0 0 0 0 0 0 0 0 0 0 0 0 0 0 0 0 0 
0 0 0 0 0 0 0 0 0 0 0 0 0 0 0 0 0 0 0 0 0 0 0 0 0 0 0 5 14 14 21 21 19 25 16 45 68 74 64 78 51 32 45 58 76 70 93 138 113 106 113 142 147 144 140 126 127 118 72 60 59 77 126 114 66 78 77 53 30 50 87 80 68 68 36 12 15 23 22 19 11 4 1 0 0 0 1 4 6 6 4 4 8 10 12 0 0 0 0 0 0 0 0 0 0 0 0 0 0 0 0 0 0 0 0 0 0 0 0 0 0 0 0 0 0 0 0 0 
0 0 0 0 0 0 0 0 0 0 0 0 0 0 0 0 0 0 0 0 0 0 0 0 0 0 0 1 14 9 18 21 19 24 19 11 19 26 42 79 63 33 42 68 92 67 83 135 111 87 98 129 150 147 140 137 141 138 123 95 76 100 119 119 72 79 94 62 34 58 89 54 23 22 21 13 15 23 22 16 9 4 1 0 0 0 0 3 6 6 4 4 7 10 13 0 0 0 0 0 0 0 0 0 0 0 0 0 0 0 0 0 0 0 0 0 0 0 0 0 0 0 0 0 0 0 0 0 
0 0 0 0 0 0 0 0 0 0 0 0 0 0 0 0 0 0 0 0 0 0 0 0 0 0 0 0 8 12 12 21 18 25 20 15 20 24 25 63 76 53 57 79 100 75 82 138 121 87 98 133 142 117 110 116 114 104 108 99 105 96 121 138 85 77 99 83 57 76 89 42 24 21 20 16 17 23 19 15 8 4 1 0 0 0 0 3 6 7 5 4 7 9 13 0 0 0 0 0 0 0 0 0 0 0 0 0 0 0 0 0 0 0 0 0 0 0 0 0 0 0 0 0 0 0 0 0 
0 0 0 0 0 0 0 0 0 0 0 0 0 0 0 0 0 0 0 0 0 0 0 0 0 0 0 0 2 12 10 18 18 24 22 16 16 20 23 37 75 84 87 98 90 79 99 156 146 102 105 112 101 113 120 124 120 115 118 126 105 83 136 153 100 67 96 91 85 90 65 32 24 23 18 17 16 17 14 9 7 4 1 0 0 0 0 3 7 7 5 4 8 11 13 0 0 0 0 0 0 0 0 0 0 0 0 0 0 0 0 0 0 0 0 0 0 0 0 0 0 0 0 0 0 0 0 0 
0 0 0 0 0 0 0 0 0 0 0 0 0 0 0 0 0 0 0 0 0 0 0 0 0 0 0 0 0 9 11 14 18 24 22 14 17 21 19 23 40 73 101 94 72 77 98 155 161 138 127 130 126 122 124 127 123 126 129 133 145 97 142 166 108 52 74 93 90 60 40 28 27 22 20 18 16 16 10 6 6 5 1 0 0 0 0 4 7 7 5 4 7 10 13 0 0 0 0 0 0 0 0 0 0 0 0 0 0 0 0 0 0 0 0 0 0 0 0 0 0 0 0 0 0 0 0 0 
0 0 0 0 0 0 0 0 0 0 0 0 0 0 0 0 0 0 0 0 0 0 0 0 0 0 0 0 0 6 13 14 15 27 19 15 16 22 21 22 25 27 45 41 43 73 87 143 170 171 172 161 135 126 116 107 103 113 135 142 166 153 155 159 94 60 51 45 36 34 37 29 24 21 19 19 15 16 11 6 6 4 1 0 0 0 1 3 6 6 5 5 8 11 12 0 0 0 0 0 0 0 0 0 0 0 0 0 0 0 0 0 0 0 0 0 0 0 0 0 0 0 0 0 0 0 0 0 
0 0 0 0 0 0 0 0 0 0 0 0 0 0 0 0 0 0 0 0 0 0 0 0 0 0 0 0 0 5 10 13 13 24 21 15 16 19 23 22 26 33 28 34 51 66 68 91 149 173 182 168 136 114 99 79 76 94 123 153 176 167 158 120 72 57 54 43 35 30 30 34 24 21 21 14 15 16 12 7 6 3 1 0 0 0 0 3 5 6 4 3 6 10 13 0 0 0 0 0 0 0 0 0 0 0 0 0 0 0 0 0 0 0 0 0 0 0 0 0 0 0 0 0 0 0 0 0 
