P2
128 99
214
0 0 0 0 0 0 0 0 0 0 0 0 0 0 0 0 0 0 0 0 0 0 0 0 0 0 0 0 0 0 0 0 0 0 0 0 0 0 0 0 0 0 0 0 0 0 0 0 0 0 0 0 0 0 0 0 0 0 0 0 0 0 0 0 0 0 0 0 0 0 0 0 0 0 0 0 0 0 0 0 0 0 0 0 0 0 0 0 0 0 0 0 0 0 0 0 0 0 0 0 0 0 0 0 0 0 0 0 0 0 0 0 0 0 0 0 0 0 0 0 0 0 0 0 0 0 0 0 
0 0 0 0 0 0 0 0 0 0 0 0 0 0 0 0 0 0 0 0 0 0 0 0 0 0 0 0 0 0 0 0 0 0 0 0 0 0 0 0 0 0 0 0 0 0 0 0 0 0 0 0 0 0 0 0 0 0 0 0 0 0 0 0 0 0 0 0 0 0 0 0 0 0 0 0 0 0 0 0 0 0 0 0 0 0 0 0 0 0 0 0 0 0 0 0 0 0 0 0 0 0 0 0 0 0 0 0 0 0 0 0 0 0 0 0 0 0 0 0 0 0 0 0 0 0 0 0 
0 0 0 0 0 0 0 0 0 0 0 0 0 0 0 0 0 0 0 0 0 0 0 0 0 0 0 0 0 0 0 0 0 0 0 0 0 0 0 0 0 0 0 0 0 0 0 0 0 0 0 0 0 0 1 0 0 0 0 0 0 0 0 0 0 0 0 0 0 0 0 0 0 0 0 0 0 0 0 0 0 0 0 0 0 0 0 0 0 0 0 0 0 0 0 0 0 0 0 0 0 0 0 0 0 0 0 0 0 0 0 0 0 0 0 0 0 0 0 0 0 0 0 0 0 0 0 0 
0 0 0 0 0 0 0 0 0 0 0 0 0 0 0 0 0 0 0 0 0 0 0 0 0 0 0 0 0 0 0 0 0 0 0 0 0 0 0 0 0 0 0 0 4 13 23 21 17 18 21 24 27 28 27 23 18 13 13 13 4 0 0 0 0 0 0 0 0 0 0 0 0 0 0 0 0 0 0 0 0 0 0 0 0 0 0 0 0 0 0 0 0 0 0 0 0 0 0 0 0 0 0 0 0 0 0 0 0 0 0 0 0 0 0 0 0 0 0 0 0 0 0 0 0 0 0 0 
0 0 0 0 0 0 0 0 0 0 0 0 0 0 0 0 0 0 0 0 0 0 0 0 0 0 0 0 0 0 0 0 0 0 0 0 0 0 0 0 5 11 20 23 22 32 50 71 92 111 127 137 141 140 136 129 115 96 74 53 34 20 17 13 3 0 0 0 0 0 0 0 0 0 0 0 0 0 0 0 0 0 0 0 0 0 0 0 0 0 0 0 0 0 0 0 0 0 0 0 0 0 0 0 0 0 0 0 0 0 0 0 0 0 0 0 0 0 0 0 0 0 0 0 0 0 0 0 
0 0 0 0 0 0 0 0 0 0 0 0 0 0 0 0 0 0 0 0 0 0 0 0 0 0 0 0 0 0 0 0 0 0 0 0 0 1 6 16 23 23 32 60 100 132 154 160 160 162 163 162 159 159 160 160 161 159 153 146 133 110 78 49 24 16 12 2 0 0 0 0 0 0 0 0 0 0 0 0 0 0 0 0 0 0 0 0 0 0 0 0 0 0 0 0 0 0 0 0 0 0 0 0 0 0 0 0 0 0 0 0 0 0 0 0 0 0 0 0 0 0 0 0 0 0 0 0 
0 0 0 0 0 0 0 0 0 0 0 0 0 0 0 0 0 0 0 0 0 0 0 0 0 0 0 0 0 0 0 0 0 0 0 0 8 21 24 27 46 93 138 162 162 166 169 168 169 173 181 189 194 196 200 200 196 188 174 160 159 158 153 137 111 77 44 19 14 3 0 0 0 0 0 0 0 0 0 0 0 0 0 0 0 0 0 0 0 0 0 0 0 0 0 0 0 0 0 0 0 0 0 0 0 0 0 0 0 0 0 0 0 0 0 0 0 0 0 0 0 0 0 0 0 0 0 0 
0 0 0 0 0 0 0 0 0 0 0 0 0 0 0 0 0 0 0 0 0 0 0 0 0 0 0 0 0 0 0 0 0 0 5 26 25 29 58 114 154 164 164 164 161 169 185 197 196 189 181 178 173 158 160 177 194 203 210 210 201 183 171 164 162 153 132 98 54 24 15 3 0 0 0 0 0 0 0 0 0 0 0 0 0 0 0 0 0 0 0 0 0 0 0 0 0 0 0 0 0 0 0 0 0 0 0 0 0 0 0 0 0 0 0 0 0 0 0 0 0 0 0 0 0 0 0 0 
0 0 0 0 0 0 0 0 0 0 0 0 0 0 0 0 0 0 0 0 0 0 0 0 0 0 0 0 0 0 0 0 3 30 24 21 50 117 157 159 157 158 166 181 200 207 193 170 157 141 139 143 146 143 144 139 139 155 172 181 191 201 205 198 183 172 166 160 136 96 47 24 12 0 0 0 0 0 0 0 0 0 0 0 0 0 0 0 0 0 0 0 0 0 0 0 0 0 0 0 0 0 0 0 0 0 0 0 0 0 0 0 0 0 0 0 0 0 0 0 0 0 0 0 0 0 0 0 
0 0 0 0 0 0 0 0 0 0 0 0 0 0 0 0 0 0 0 0 0 0 0 0 0 0 0 0 0 0 0 23 27 17 33 99 156 160 158 159 167 190 208 199 175 153 138 133 132 135 127 129 128 124 137 135 135 138 143 162 173 174 181 191 204 204 188 174 166 158 127 81 35 20 3 0 0 0 0 0 0 0 0 0 0 0 0 0 0 0 0 0 0 0 0 0 0 0 0 0 0 0 0 0 0 0 0 0 0 0 0 0 0 0 0 0 0 0 0 0 0 0 0 0 0 0 0 0 
0 0 0 0 0 0 0 0 0 0 0 0 0 0 0 0 0 0 0 0 0 0 0 0 0 0 0 0 0 8 29 18 24 78 147 161 158 161 172 195 213 191 162 150 139 133 135 140 157 153 134 126 124 129 143 159 163 162 162 163 167 170 176 177 176 179 193 204 189 174 164 148 112 51 24 7 0 0 0 0 0 0 0 0 0 0 0 0 0 0 0 0 0 0 0 0 0 0 0 0 0 0 0 0 0 0 0 0 0 0 0 0 0 0 0 0 0 0 0 0 0 0 0 0 0 0 0 0 
0 0 0 0 0 0 0 0 0 0 0 0 0 0 0 0 0 0 0 0 0 0 0 0 0 0 0 0 21 25 18 51 123 161 154 161 171 197 214 192 156 141 142 139 135 131 125 122 126 125 134 138 141 134 122 128 125 119 123 130 150 166 171 176 181 179 175 177 193 202 186 162 154 130 72 25 12 0 0 0 0 0 0 0 0 0 0 0 0 0 0 0 0 0 0 0 0 0 0 0 0 0 0 0 0 0 0 0 0 0 0 0 0 0 0 0 0 0 0 0 0 0 0 0 0 0 0 0 
0 0 0 0 0 0 0 0 0 0 0 0 0 0 0 0 0 0 0 0 0 0 0 0 0 0 6 22 26 23 71 145 159 157 170 191 210 194 160 139 145 151 147 146 136 129 127 126 124 111 118 131 131 122 119 129 139 134 133 129 124 139 157 160 167 180 182 181 179 180 194 193 168 156 137 82 24 13 0 0 0 0 0 0 0 0 0 0 0 0 0 0 0 0 0 0 0 0 0 0 0 0 0 0 0 0 0 0 0 0 0 0 0 0 0 0 0 0 0 0 0 0 0 0 0 0 0 0 
0 0 0 0 0 0 0 0 0 0 0 0 0 0 0 0 0 0 0 0 0 0 0 0 0 10 22 23 26 91 157 155 162 179 206 204 172 144 143 162 163 156 144 132 129 131 131 133 124 118 103 94 92 101 110 112 121 132 138 141 141 139 153 159 156 157 168 179 181 177 178 185 194 168 156 142 91 27 14 0 0 0 0 0 0 0 0 0 0 0 0 0 0 0 0 0 0 0 0 0 0 0 0 0 0 0 0 0 0 0 0 0 0 0 0 0 0 0 0 0 0 0 0 0 0 0 0 0 
0 0 0 0 0 0 0 0 0 0 0 0 0 0 0 0 0 0 0 0 0 0 0 0 13 17 21 32 105 159 154 167 186 210 188 149 137 161 170 160 148 132 127 128 131 129 128 118 108 98 89 86 82 84 85 84 88 102 109 104 105 110 123 152 168 163 158 156 164 174 174 173 185 197 174 160 147 101 28 13 0 0 0 0 0 0 0 0 0 0 0 0 0 0 0 0 0 0 0 0 0 0 0 0 0 0 0 0 0 0 0 0 0 0 0 0 0 0 0 0 0 0 0 0 0 0 0 0 
0 0 0 0 0 0 0 0 0 0 0 0 0 0 0 0 0 0 0 0 0 0 4 18 14 20 45 120 155 157 169 187 206 172 133 145 175 169 151 137 125 126 123 114 112 114 116 112 108 114 121 125 126 129 134 133 130 126 130 132 121 114 106 104 130 166 169 160 152 153 163 172 173 186 199 172 160 147 113 36 12 0 0 0 0 0 0 0 0 0 0 0 0 0 0 0 0 0 0 0 0 0 0 0 0 0 0 0 0 0 0 0 0 0 0 0 0 0 0 0 0 0 0 0 0 0 0 0 
0 0 0 0 0 0 0 0 0 0 0 0 0 0 0 0 0 0 0 0 0 6 16 10 22 57 128 154 161 174 191 204 156 130 156 176 162 135 125 126 121 110 113 121 131 135 142 147 150 148 152 153 150 151 150 150 149 150 151 153 150 146 145 130 110 111 141 166 165 153 148 157 163 168 186 204 179 159 147 122 39 7 0 0 0 0 0 0 0 0 0 0 0 0 0 0 0 0 0 0 0 0 0 0 0 0 0 0 0 0 0 0 0 0 0 0 0 0 0 0 0 0 0 0 0 0 0 0 
0 0 0 0 0 0 0 0 0 0 0 0 0 0 0 0 0 0 0 0 8 14 7 25 68 133 153 162 176 194 197 148 134 167 171 142 121 117 112 103 118 145 160 150 135 128 122 122 118 113 118 126 123 119 112 113 118 127 134 138 139 137 142 158 158 135 106 109 143 162 149 140 153 159 159 183 206 179 160 150 123 35 6 0 0 0 0 0 0 0 0 0 0 0 0 0 0 0 0 0 0 0 0 0 0 0 0 0 0 0 0 0 0 0 0 0 0 0 0 0 0 0 0 0 0 0 0 0 
0 0 0 0 0 0 0 0 0 0 0 0 0 0 0 0 0 0 0 7 13 6 25 76 135 157 162 176 196 189 138 138 166 160 129 119 114 104 111 144 163 153 132 116 109 110 109 112 107 102 109 113 112 111 109 106 107 110 117 128 133 135 129 132 139 149 150 119 100 132 159 154 140 148 156 161 186 211 172 155 149 111 25 3 0 0 0 0 0 0 0 0 0 0 0 0 0 0 0 0 0 0 0 0 0 0 0 0 0 0 0 0 0 0 0 0 0 0 0 0 0 0 0 0 0 0 0 0 
0 0 0 0 0 0 0 0 0 0 0 0 0 0 0 0 0 0 6 14 7 24 78 131 154 162 173 188 183 134 142 161 157 127 108 99 97 118 154 159 137 115 111 111 111 111 111 113 112 112 116 117 116 120 119 116 121 123 123 124 123 127 131 132 129 129 141 152 120 99 131 156 156 140 143 147 154 191 211 165 154 152 92 16 1 0 0 0 0 0 0 0 0 0 0 0 0 0 0 0 0 0 0 0 0 0 0 0 0 0 0 0 0 0 0 0 0 0 0 0 0 0 0 0 0 0 0 0 
0 0 0 0 0 0 0 0 0 0 0 0 0 0 0 0 0 3 13 9 21 74 124 146 161 171 180 182 135 140 156 156 126 106 92 97 118 147 141 127 116 117 121 119 111 104 101 99 104 107 93 93 100 117 119 120 121 121 124 131 133 134 135 133 133 129 127 147 151 109 93 118 154 163 145 140 136 152 204 194 161 150 146 71 10 0 0 0 0 0 0 0 0 0 0 0 0 0 0 0 0 0 0 0 0 0 0 0 0 0 0 0 0 0 0 0 0 0 0 0 0 0 0 0 0 0 0 0 
0 0 0 0 0 0 0 0 0 0 0 0 0 0 0 0 0 10 10 16 70 122 140 165 165 172 183 142 138 153 156 132 109 95 91 105 141 140 131 128 128 127 121 115 105 99 98 97 100 86 88 94 102 121 132 127 123 120 122 125 129 128 135 135 126 127 131 134 152 143 99 87 100 145 159 149 135 128 164 210 181 158 150 126 54 4 0 0 0 0 0 0 0 0 0 0 0 0 0 0 0 0 0 0 0 0 0 0 0 0 0 0 0 0 0 0 0 0 0 0 0 0 0 0 0 0 0 0 
0 0 0 0 0 0 0 0 0 0 0 0 0 0 0 0 7 10 16 64 115 126 167 161 170 176 155 134 145 158 129 99 95 83 90 137 152 141 138 132 131 132 126 120 113 112 112 108 99 105 108 110 112 122 125 128 129 125 119 106 104 114 121 126 127 123 129 131 140 150 125 92 85 95 136 156 154 128 124 183 199 170 148 151 107 31 2 0 0 0 0 0 0 0 0 0 0 0 0 0 0 0 0 0 0 0 0 0 0 0 0 0 0 0 0 0 0 0 0 0 0 0 0 0 0 0 0 0 
0 0 0 0 0 0 0 0 0 0 0 0 0 0 0 3 10 13 57 112 119 157 165 168 173 165 131 137 155 128 91 94 89 88 132 157 151 148 136 134 126 114 107 107 108 109 109 107 110 110 115 111 103 105 107 108 109 107 106 103 99 100 104 112 122 133 133 133 137 148 139 102 84 87 101 134 160 151 125 135 193 181 160 153 134 77 11 0 0 0 0 0 0 0 0 0 0 0 0 0 0 0 0 0 0 0 0 0 0 1 0 0 0 0 0 0 0 0 0 0 0 0 0 0 0 0 0 0 
0 0 0 0 0 0 0 0 0 0 0 0 0 0 0 9 8 31 102 117 133 175 162 169 163 147 129 148 134 97 94 90 90 121 160 147 149 140 132 111 101 107 105 108 105 106 104 100 104 107 107 105 99 101 106 109 106 103 104 102 102 99 96 94 102 120 140 140 135 143 145 125 87 84 93 107 146 160 137 122 171 179 175 144 147 104 35 2 0 0 0 0 0 0 0 0 0 0 0 0 0 0 0 0 0 0 0 0 0 2 0 0 0 0 0 0 0 0 0 0 0 0 0 0 0 0 0 0 
0 0 0 0 0 0 0 0 0 0 0 0 0 0 3 9 14 83 113 120 168 162 162 145 158 135 137 140 106 98 95 93 116 160 158 139 144 132 108 97 99 100 102 103 102 99 97 90 93 104 101 100 101 106 107 108 110 109 108 107 103 101 98 98 96 102 116 130 135 139 146 146 108 81 90 96 122 148 148 121 156 164 180 157 146 119 63 4 0 0 0 0 0 0 0 0 0 0 0 0 0 0 0 0 0 0 0 0 0 1 0 0 0 0 0 0 0 0 0 0 0 0 0 0 0 0 0 0 
0 0 0 0 0 0 0 0 0 0 0 0 0 0 7 9 41 107 115 145 174 158 144 148 159 132 132 119 95 92 93 115 154 165 151 132 131 119 100 99 99 98 100 100 105 104 100 96 95 104 108 108 106 108 113 113 114 111 109 106 105 104 99 98 99 95 97 109 125 136 137 153 139 96 88 95 107 129 145 123 143 160 163 171 146 134 93 17 0 0 0 0 0 0 0 0 0 0 0 0 0 0 0 0 0 0 0 0 0 1 0 0 0 0 0 0 0 0 0 0 0 0 0 0 0 0 0 0 
0 0 0 0 0 0 0 0 0 0 0 0 0 0 9 14 86 105 124 166 166 143 136 169 153 114 123 104 93 92 104 144 159 150 144 132 130 114 102 102 102 102 105 105 105 106 105 106 112 121 127 129 126 132 132 124 115 119 117 113 110 108 106 102 104 98 90 95 109 117 132 151 156 133 98 91 99 118 133 123 135 167 155 172 152 140 115 41 3 0 0 0 0 0 0 0 0 0 0 0 0 0 0 0 0 0 0 0 0 1 0 0 0 0 0 0 0 0 0 0 0 0 0 0 0 0 0 0 
0 0 0 0 0 0 0 0 0 0 0 0 0 4 6 35 108 106 141 172 153 130 149 175 132 107 114 96 94 93 136 164 152 140 138 138 120 105 103 104 106 105 107 108 111 118 128 131 137 141 137 136 140 124 107 100 112 126 131 132 125 119 112 108 105 102 92 88 99 108 119 142 149 156 126 96 94 104 125 118 130 168 149 170 158 146 122 63 4 0 0 0 0 0 0 0 0 0 0 0 0 0 0 0 0 0 0 0 0 1 0 0 0 0 0 0 0 0 0 0 0 0 0 0 0 0 0 0 
0 0 0 0 0 0 0 0 0 0 0 0 0 6 8 75 106 117 153 169 126 131 166 159 106 99 102 99 93 113 163 156 138 129 132 118 104 103 104 106 108 109 108 116 124 132 141 139 135 126 112 105 123 90 69 70 81 101 118 134 140 137 127 116 108 103 98 90 92 100 113 131 134 149 150 114 94 93 116 115 115 161 140 163 162 148 125 78 5 0 0 0 0 0 0 0 0 0 0 0 0 0 0 0 0 0 0 0 0 2 0 0 0 0 0 0 0 0 0 0 0 0 0 0 0 0 0 0 
0 0 0 0 0 0 0 0 0 0 0 0 0 9 16 103 100 134 157 158 116 148 164 131 91 91 99 101 93 136 167 144 127 122 117 108 109 109 109 110 111 111 120 129 133 128 112 112 115 102 91 89 92 73 65 66 67 76 85 96 115 134 142 137 120 105 100 95 92 96 115 134 125 133 157 139 98 93 102 114 111 150 134 156 167 147 126 91 11 0 0 0 0 0 0 0 0 0 0 0 0 0 0 0 0 0 0 0 0 1 0 0 0 0 0 0 0 0 0 0 0 0 0 0 0 0 0 0 
0 0 0 0 0 0 0 0 0 0 0 0 0 7 31 108 105 146 160 138 122 153 153 114 81 89 96 104 102 146 160 133 118 116 108 108 108 110 105 106 116 120 119 116 110 93 89 92 91 77 70 67 72 64 56 55 56 60 67 80 88 105 129 140 139 124 109 102 96 95 109 131 131 119 147 154 103 92 96 105 116 146 145 155 165 155 131 100 16 0 0 0 0 0 0 0 0 0 0 0 0 0 0 0 0 0 0 0 0 2 0 0 0 0 0 0 0 0 0 0 0 0 0 0 0 0 0 0 
0 0 0 0 0 0 0 0 0 0 0 0 3 7 49 103 114 149 152 125 134 151 136 107 73 92 96 104 106 142 148 122 114 111 107 108 109 102 99 107 114 110 95 75 71 76 75 68 65 61 60 59 57 55 53 52 54 55 57 65 74 83 97 125 143 144 125 118 122 114 109 116 132 118 122 151 105 87 93 92 112 145 144 147 162 158 137 109 27 1 0 0 0 0 0 0 0 0 0 0 0 0 0 0 0 0 0 0 0 2 0 0 0 0 0 0 0 0 0 0 0 0 0 0 0 0 0 0 
0 0 0 0 0 0 0 0 0 0 0 0 5 5 64 101 128 153 153 119 140 138 123 103 75 93 99 108 108 135 133 115 109 111 115 112 107 98 101 109 105 90 66 59 61 62 62 60 57 54 57 56 55 53 51 52 53 53 54 56 61 68 78 92 129 146 145 148 123 120 117 112 120 118 116 143 100 90 95 88 110 151 148 149 160 158 150 116 37 3 0 0 0 0 0 0 0 0 0 0 0 0 0 0 0 0 0 0 0 2 0 0 0 0 0 0 0 0 0 0 0 0 0 0 0 0 0 0 
0 0 0 0 0 0 0 0 0 0 0 0 5 5 79 103 137 152 146 112 147 129 117 110 80 96 102 111 108 129 126 107 111 116 119 122 110 107 105 101 95 79 57 55 56 55 55 55 56 55 57 56 54 52 51 52 53 54 54 55 58 60 68 76 106 149 158 164 137 131 124 116 114 110 100 130 100 89 94 76 106 154 144 147 166 159 158 126 50 3 0 0 0 0 0 0 0 0 0 0 0 0 0 0 0 0 0 0 0 1 0 0 0 0 0 0 0 0 0 0 0 0 0 0 0 0 0 0 
0 0 0 0 0 0 0 0 0 0 0 0 5 8 88 106 144 155 139 113 151 117 114 109 84 94 104 114 106 120 115 107 115 123 129 137 130 114 104 98 93 86 81 69 57 57 54 53 54 55 54 53 55 53 52 53 53 53 53 53 56 58 65 80 125 151 157 164 162 153 134 118 113 105 84 112 103 96 87 74 108 162 145 146 167 158 162 137 62 4 0 0 0 0 0 0 0 0 0 0 0 0 0 0 0 0 0 0 0 0 0 0 0 0 0 0 0 0 0 0 0 0 0 0 0 0 0 0 
0 0 0 0 0 0 0 0 0 0 0 0 4 11 89 111 148 157 141 124 155 117 111 105 90 95 105 117 102 104 108 113 125 127 141 164 160 130 115 113 88 71 77 86 79 58 58 54 53 55 55 53 55 55 52 51 52 53 53 54 57 62 93 115 123 132 137 132 134 137 136 120 112 110 88 88 109 102 86 78 116 169 139 140 166 158 162 143 76 7 0 0 0 0 0 0 0 0 0 0 0 0 0 0 0 0 0 0 0 0 0 0 0 0 0 0 0 0 0 0 0 0 0 0 0 0 0 0 
0 0 0 0 0 0 0 0 0 0 0 0 4 15 90 116 145 155 137 125 154 120 111 119 93 93 108 113 103 98 108 110 122 139 163 154 128 98 83 81 82 86 98 91 70 73 66 57 56 57 56 53 57 57 55 54 54 53 53 55 65 95 92 77 80 97 110 110 106 107 105 98 105 119 101 82 106 99 87 90 126 170 131 138 159 158 159 146 86 10 0 0 0 0 0 0 0 0 0 0 0 0 0 0 0 0 0 0 0 0 0 0 0 0 0 0 0 0 0 0 0 0 0 0 0 0 0 0 
0 0 0 0 0 0 0 0 0 0 0 0 6 13 92 120 146 164 140 129 150 119 106 133 98 96 113 113 102 101 112 99 127 146 132 102 76 59 51 51 49 52 60 82 88 72 75 67 58 59 59 57 56 59 57 57 55 56 54 71 102 82 58 55 67 91 107 110 112 109 104 100 98 111 124 98 109 107 101 111 138 157 124 133 147 156 160 156 95 14 0 0 0 0 0 0 0 0 0 0 0 0 0 0 0 0 0 0 0 0 0 0 0 0 0 0 0 0 0 0 0 0 0 0 0 0 0 0 
0 0 0 0 0 0 0 0 0 0 0 0 7 14 93 124 149 173 136 130 149 117 99 132 111 98 120 116 99 96 115 121 135 116 103 88 67 57 57 55 54 51 53 56 69 89 76 76 61 61 66 60 59 58 58 58 59 59 66 103 83 57 51 54 64 89 109 111 109 113 113 110 111 121 136 125 115 118 119 128 135 147 123 129 139 154 161 162 104 17 0 0 0 0 0 0 0 0 0 0 0 0 0 0 0 0 0 0 0 0 0 0 0 0 0 0 0 0 0 0 0 0 0 0 0 0 0 0 
0 0 0 0 0 0 0 0 0 0 0 0 8 14 92 124 152 171 128 134 147 109 95 121 117 100 125 123 111 96 114 133 119 106 104 82 62 57 56 56 56 55 53 54 56 63 85 85 79 77 83 81 70 69 64 68 64 67 75 91 61 52 54 55 65 89 117 126 123 126 125 117 114 121 130 132 118 115 129 133 141 140 120 121 128 143 154 165 110 21 0 0 0 0 0 0 0 0 0 0 0 0 0 0 0 0 0 0 0 0 0 0 0 0 0 0 0 0 0 0 0 0 0 0 0 0 0 0 
0 0 0 0 0 0 0 0 0 0 0 0 8 14 96 127 151 172 123 135 141 103 99 117 126 110 122 120 109 102 123 147 123 119 110 84 62 57 54 55 57 55 55 55 54 55 78 82 84 72 74 88 82 90 84 82 72 55 67 80 53 49 54 66 81 96 116 126 122 124 122 118 112 120 119 114 130 117 134 141 138 137 111 110 115 142 153 164 116 29 0 0 0 0 0 0 0 0 0 0 0 0 0 0 0 0 0 0 0 0 0 0 0 0 0 0 0 0 0 0 0 0 0 0 0 0 0 0 
0 0 0 0 0 0 0 0 0 0 0 0 7 13 95 124 152 173 122 136 131 102 101 111 131 116 109 112 107 103 130 149 116 117 111 86 74 69 73 69 69 70 61 56 57 61 72 82 93 81 82 106 115 133 129 92 65 53 67 69 53 55 67 70 73 87 111 122 120 122 124 122 118 119 115 99 131 126 144 168 143 133 104 108 113 140 154 163 122 37 1 0 0 0 0 0 0 0 0 0 0 0 0 0 0 0 0 0 0 0 0 0 0 0 0 0 0 0 0 0 0 0 0 0 0 0 0 0 
0 0 0 0 0 0 0 0 0 0 0 0 8 11 95 123 157 174 122 130 125 103 95 99 129 121 109 108 109 104 134 145 117 115 102 84 70 66 68 66 64 66 71 68 65 70 79 91 100 87 94 110 134 124 131 102 70 61 69 63 63 64 57 57 63 77 101 120 123 124 123 122 118 117 107 83 120 134 161 179 142 125 98 97 115 125 150 160 127 44 2 0 0 0 0 0 0 0 0 0 0 0 0 0 0 0 0 0 0 0 0 0 0 0 0 0 0 0 0 0 0 0 0 0 0 0 0 0 
0 0 0 0 0 0 0 0 0 0 0 0 7 13 93 125 161 162 98 120 125 98 79 92 121 115 102 104 112 111 138 150 115 116 107 87 74 72 70 63 55 60 63 66 78 85 87 91 95 88 90 107 129 105 95 97 68 57 68 68 65 52 51 54 56 71 96 117 123 122 121 120 119 115 99 75 121 143 162 185 155 121 100 92 109 115 131 160 131 49 3 0 0 0 0 0 0 0 0 0 0 0 0 0 0 0 0 0 0 0 0 0 0 0 0 0 0 0 0 0 0 0 0 0 0 0 0 0 
0 0 0 0 0 0 0 0 0 0 0 0 9 14 88 129 166 154 81 116 126 86 74 92 120 103 94 118 112 116 136 158 120 118 109 83 71 69 70 56 55 57 57 60 73 95 100 96 98 89 96 118 97 95 87 66 88 67 70 64 55 52 52 51 55 68 95 117 124 124 121 123 119 116 87 82 135 151 161 188 162 116 101 90 109 106 113 148 132 56 3 0 0 0 0 0 0 0 0 0 0 0 0 0 0 0 0 0 0 0 0 0 0 0 0 0 0 0 0 0 0 0 0 0 0 0 0 0 
0 0 0 0 0 0 0 0 0 0 0 0 8 16 88 130 165 145 84 114 121 78 72 99 119 83 123 129 110 120 129 162 131 120 110 87 74 70 72 59 55 56 57 63 74 89 102 97 93 86 111 125 97 92 88 67 73 64 57 66 69 62 52 54 57 70 96 118 121 124 125 119 114 105 73 90 136 152 172 186 164 112 100 91 109 98 111 153 133 59 2 0 0 0 0 0 0 0 0 0 0 0 0 0 0 0 0 0 0 0 0 0 0 0 0 0 0 0 0 0 0 0 0 0 0 0 0 0 
0 0 0 0 0 0 0 0 0 0 0 0 7 17 84 130 165 137 88 114 126 83 73 104 123 95 136 129 111 122 129 160 140 118 110 92 77 71 71 64 55 55 55 64 79 89 94 90 89 89 130 117 101 94 105 81 74 93 59 81 78 67 52 52 59 75 98 116 123 125 124 118 110 90 62 113 154 167 163 181 168 114 105 91 110 93 112 152 128 58 2 0 0 0 0 0 0 0 0 0 0 0 0 0 0 0 0 0 0 0 0 0 0 0 0 0 0 0 0 0 0 0 0 0 0 0 0 0 
0 0 0 0 0 0 0 0 0 0 0 0 6 15 75 128 160 137 90 108 127 87 74 98 112 93 132 125 111 120 127 151 149 119 113 95 75 71 69 67 55 52 54 65 96 105 104 90 90 106 139 94 87 88 102 88 75 98 87 58 70 57 49 51 63 78 101 118 121 123 126 122 109 75 55 114 142 147 157 181 171 114 105 91 108 88 114 149 120 55 2 0 0 0 0 0 0 0 0 0 0 0 0 0 0 0 0 0 0 0 0 0 0 0 0 0 0 0 0 0 0 0 0 0 0 0 0 0 
0 0 0 0 0 0 0 0 0 0 0 0 5 14 72 127 157 132 96 99 122 93 74 87 109 90 128 121 108 122 131 146 155 120 111 101 78 63 62 64 54 52 55 69 90 93 94 87 103 126 118 92 89 92 100 72 65 71 103 59 56 52 52 49 58 77 104 122 122 121 128 127 105 66 59 116 131 147 155 177 171 111 103 95 104 86 124 142 111 50 2 0 0 0 0 0 0 0 0 0 0 0 0 0 0 0 0 0 0 0 0 0 0 0 0 0 0 0 0 0 0 0 0 0 0 0 0 0 
0 0 0 0 0 0 0 0 0 0 0 0 4 15 70 123 153 134 100 99 118 96 79 86 111 89 122 112 103 119 129 144 158 124 107 96 74 61 62 61 55 51 58 70 79 86 92 89 114 131 94 89 84 92 94 73 70 59 89 82 78 59 51 51 55 70 100 112 117 120 129 127 98 59 67 117 132 139 147 175 168 111 99 96 98 84 130 130 105 44 2 0 0 0 0 0 0 0 0 0 0 0 0 0 0 0 0 0 0 0 0 0 0 0 0 0 0 0 0 0 0 0 0 0 0 0 0 0 
0 0 0 0 0 0 0 0 0 2 3 0 0 13 59 116 147 137 107 96 115 98 82 83 114 94 117 98 95 112 125 140 161 137 107 96 73 63 62 64 62 54 61 71 77 105 99 95 120 108 83 83 82 92 90 74 64 59 72 103 68 76 63 55 65 85 108 115 114 117 121 122 89 58 82 114 108 121 129 165 163 113 102 97 90 82 133 114 102 38 2 0 0 0 0 0 0 0 0 0 0 0 0 0 0 0 0 0 0 0 0 0 0 0 0 0 0 0 0 0 0 0 0 0 0 0 0 0 
0 0 0 0 0 0 0 0 1 5 10 3 0 7 43 104 134 130 112 93 111 100 83 80 111 105 113 84 86 106 115 123 155 155 121 91 68 60 61 61 66 63 70 84 84 75 86 84 118 87 77 84 77 90 82 75 64 58 66 117 87 63 55 71 88 99 110 118 114 114 119 115 79 62 96 104 109 114 115 141 162 111 97 103 78 87 138 105 97 32 0 0 0 0 0 0 0 0 0 0 0 0 0 0 0 0 0 0 0 0 0 0 0 0 0 0 0 0 0 0 0 0 0 0 0 0 0 0 
0 0 0 0 0 0 0 0 0 2 11 8 0 5 32 97 125 129 115 94 109 101 87 80 103 109 123 76 79 103 114 117 130 152 142 88 62 57 58 65 69 58 59 75 79 96 79 87 113 66 74 77 70 84 74 63 64 67 53 107 114 56 61 65 76 104 122 133 119 114 119 110 78 95 90 101 117 109 117 130 167 132 109 97 69 107 130 102 92 25 0 0 0 0 0 0 0 0 0 0 0 0 0 0 0 0 0 0 0 0 0 0 0 0 0 0 0 0 0 0 0 0 0 0 0 0 0 0 
0 0 0 0 0 0 0 0 0 0 2 12 5 6 23 83 118 132 117 90 100 113 94 80 92 119 144 74 71 110 130 131 119 121 141 100 66 55 55 53 57 53 66 80 80 65 63 96 99 68 67 60 67 84 70 57 53 50 56 92 123 63 50 72 112 156 176 174 168 167 166 145 125 122 121 144 135 123 119 122 164 152 117 72 76 131 116 104 84 15 0 0 1 5 3 0 0 0 0 0 0 0 0 0 0 0 0 0 0 0 0 0 0 0 0 0 0 0 0 0 0 0 0 0 0 0 0 0 
0 0 0 0 0 0 0 0 0 0 0 4 10 5 15 70 109 134 127 104 93 110 95 78 83 128 162 81 64 114 128 122 117 118 123 101 79 62 56 60 63 56 57 78 94 70 64 103 92 61 60 61 66 82 72 54 52 52 50 96 128 57 49 65 98 121 130 143 146 178 193 176 158 130 114 127 149 139 112 117 166 158 103 61 94 140 105 108 67 6 0 1 3 2 1 0 0 0 0 0 0 0 0 0 0 0 0 0 0 0 0 0 0 0 0 0 0 0 0 0 0 0 0 0 0 0 0 0 
0 0 0 0 0 0 0 0 0 0 0 0 9 8 11 59 106 131 148 123 96 108 105 79 81 148 158 100 67 111 129 123 110 114 122 121 111 85 88 88 86 86 74 97 75 78 68 90 81 63 76 81 67 88 68 53 51 65 90 97 105 84 85 101 119 123 129 134 135 155 162 143 146 131 129 115 140 149 121 128 170 165 91 83 145 118 106 118 49 3 2 3 7 3 0 0 0 0 0 0 0 0 0 0 0 0 0 0 0 0 0 0 0 0 0 0 0 0 0 0 0 0 0 0 0 0 0 0 
0 0 0 0 0 0 0 0 0 0 0 0 11 10 9 50 101 118 153 132 101 105 122 103 90 152 158 110 92 110 142 149 140 137 143 151 149 128 110 103 79 86 70 48 50 62 72 82 71 62 96 91 70 82 60 49 53 73 78 77 76 71 98 133 166 164 147 138 141 148 118 108 120 126 140 152 164 169 170 158 166 174 107 116 162 121 130 117 36 4 0 4 0 0 0 0 0 0 0 0 0 0 0 0 0 0 0 0 0 0 0 0 0 0 0 0 0 0 0 0 0 0 0 0 0 0 0 0 
0 0 0 0 0 0 0 0 0 0 0 0 14 14 11 38 97 112 149 145 103 114 134 124 126 151 157 127 95 102 155 190 203 189 175 158 146 128 115 94 69 53 46 45 42 56 74 95 97 71 97 99 68 82 62 72 68 69 63 70 87 59 86 129 165 178 187 191 172 166 113 101 106 112 129 153 156 169 183 157 158 183 124 150 172 123 123 96 24 8 3 0 0 0 0 0 0 0 0 0 0 0 0 0 0 0 0 0 0 0 0 0 0 0 0 0 0 0 0 0 0 0 0 0 0 0 0 0 
0 0 0 0 0 0 0 0 0 0 0 0 15 14 12 26 91 109 135 166 128 140 155 136 149 151 145 121 107 112 163 197 194 184 160 139 147 142 117 79 80 60 48 47 49 56 86 84 80 98 122 107 87 112 107 74 68 72 62 57 76 69 104 144 171 175 169 183 185 175 126 96 104 108 142 130 123 156 175 152 142 169 162 205 188 145 130 75 13 8 6 0 0 0 0 0 0 0 0 0 0 0 0 0 0 0 0 0 0 0 0 0 0 0 0 0 0 0 0 0 0 0 0 0 0 0 0 0 
0 0 0 0 0 0 0 0 0 0 0 0 8 18 17 15 49 106 119 147 164 168 181 176 154 175 165 142 111 129 168 185 178 147 161 159 134 130 126 119 103 74 79 53 53 66 80 75 77 101 137 139 130 138 136 92 57 62 76 80 89 89 117 158 171 163 160 173 162 130 102 85 95 80 120 134 114 142 152 151 148 179 187 194 171 123 121 87 18 13 9 1 0 0 0 0 0 0 0 0 0 0 0 0 0 0 0 0 0 0 0 0 0 0 0 0 0 0 0 0 0 0 0 0 0 0 0 0 
0 0 0 0 0 0 0 0 0 0 0 2 7 14 12 15 29 96 120 141 165 181 154 157 174 196 199 145 103 158 167 144 153 137 148 156 150 145 142 146 131 100 82 88 80 69 82 92 107 116 122 126 122 136 135 94 55 50 61 75 96 127 121 131 138 143 165 163 133 101 89 92 82 90 121 136 137 136 120 105 128 163 129 114 143 90 94 60 15 11 13 2 0 0 0 0 0 0 0 0 0 0 0 0 0 0 0 0 0 0 0 0 0 0 0 0 0 0 0 0 0 0 0 0 0 0 0 0 
0 0 0 0 0 0 0 0 0 0 0 1 7 9 8 11 18 72 114 122 160 185 184 143 163 182 198 152 154 152 147 120 104 148 162 157 158 158 162 168 158 134 119 113 112 117 112 114 129 103 95 97 99 114 131 125 81 63 78 104 135 143 145 137 130 133 148 149 128 119 116 116 103 131 148 165 161 138 108 96 116 150 96 113 140 103 97 32 9 6 8 5 0 0 0 0 0 0 0 0 0 0 0 0 0 0 0 0 0 0 0 0 0 0 0 0 0 0 0 0 0 0 0 0 0 0 0 0 
0 0 0 0 0 0 0 0 0 0 0 0 0 5 5 9 14 48 109 100 134 168 190 176 160 178 187 151 150 165 160 143 124 132 144 142 155 170 168 144 125 114 120 127 135 134 125 118 131 108 84 83 95 109 113 124 114 114 119 126 158 142 141 171 159 107 73 96 92 92 117 122 117 128 159 189 179 140 117 97 89 111 104 104 119 127 64 12 8 5 6 5 2 0 0 0 0 0 0 0 0 0 0 0 0 0 0 0 0 0 0 0 0 0 0 0 0 0 0 0 0 0 0 0 0 0 0 0 
0 0 0 0 0 0 0 0 0 0 0 0 0 6 3 6 11 24 90 104 125 168 181 168 153 148 138 133 149 178 174 161 136 106 121 137 142 155 166 131 118 116 125 145 144 140 144 123 131 128 102 89 92 97 113 125 120 130 132 160 158 152 137 146 138 70 42 54 88 99 117 116 110 117 156 181 183 180 140 99 97 119 107 77 99 108 29 5 1 4 5 0 0 0 0 0 0 0 0 0 0 0 0 0 0 0 0 0 0 0 0 0 0 0 0 0 0 0 0 0 0 0 0 0 0 0 0 0 
0 0 0 0 0 0 0 0 0 0 0 0 0 9 2 8 13 14 68 111 119 143 167 142 125 160 161 125 123 147 141 118 109 109 114 118 121 128 130 119 121 134 149 142 131 130 143 130 139 145 151 147 118 112 144 143 130 131 134 155 154 149 129 106 100 70 44 66 91 101 107 100 99 126 151 171 187 192 179 139 136 135 76 19 88 75 11 5 1 5 4 0 0 0 0 0 0 0 0 0 0 0 0 0 0 0 0 0 0 0 0 0 0 0 0 0 0 0 0 0 0 0 0 0 0 0 0 0 
0 0 0 0 0 0 0 0 0 0 0 1 3 10 0 2 6 14 41 103 105 116 159 145 134 170 170 124 127 131 119 116 103 105 102 101 104 90 84 96 86 129 140 126 123 130 148 150 164 152 151 160 167 167 168 144 141 137 123 140 164 170 121 93 101 98 60 87 97 101 91 101 120 117 130 167 190 189 176 189 151 121 40 11 87 43 7 6 1 4 5 0 0 0 0 0 0 0 0 0 0 0 0 0 0 0 0 0 0 0 0 0 0 0 0 0 0 0 0 0 0 0 0 0 0 0 0 0 
0 0 0 0 0 0 0 0 0 0 0 0 9 11 0 3 5 12 26 93 114 116 151 150 163 172 148 139 142 135 117 106 113 111 114 112 106 79 66 80 89 110 95 107 122 141 153 150 150 135 125 129 137 148 150 142 132 116 108 115 142 157 148 127 114 121 124 119 109 111 112 132 127 114 115 168 187 193 194 201 159 105 20 41 85 18 7 7 2 4 7 0 0 0 0 0 0 0 0 0 0 0 0 0 0 0 0 0 0 0 0 0 0 0 0 0 0 0 0 0 0 0 0 0 0 0 0 0 
0 0 0 0 0 0 0 0 0 0 0 0 7 8 0 4 8 10 15 60 100 98 121 162 162 157 132 146 145 143 131 108 105 123 127 130 124 104 92 101 133 123 92 100 111 142 148 124 102 96 105 144 143 107 101 104 95 89 91 98 113 143 159 162 130 123 132 132 128 128 129 133 124 118 113 153 176 188 193 187 155 110 35 84 70 12 6 6 2 4 8 0 0 0 0 0 0 0 0 0 0 0 0 0 0 0 0 0 0 0 0 0 0 0 0 0 0 0 0 0 0 0 0 0 0 0 0 0 
0 0 0 0 0 0 0 0 0 0 0 0 2 2 0 4 10 8 14 42 67 92 107 158 152 137 129 152 159 145 139 133 107 105 116 135 135 134 134 124 127 134 122 121 131 126 139 127 90 94 127 141 140 142 125 129 114 95 102 95 104 136 145 159 159 142 136 144 149 146 137 133 118 108 111 116 170 188 180 156 138 114 90 68 55 12 5 6 3 0 9 1 0 0 0 0 0 0 0 0 0 0 0 0 0 0 0 0 0 0 0 0 0 0 0 0 0 0 0 0 0 0 0 0 0 0 0 0 
0 0 0 0 0 0 0 0 0 0 0 5 12 10 3 2 10 8 9 34 57 85 113 129 130 146 136 158 164 128 123 135 125 114 103 108 116 130 136 137 135 128 146 140 133 133 155 143 105 126 151 115 116 145 151 149 134 111 104 97 116 136 107 134 170 157 161 157 150 145 126 111 97 94 104 134 180 176 174 136 142 140 127 76 54 13 3 3 5 0 5 3 0 0 0 0 0 0 0 0 0 0 0 0 0 0 0 0 0 0 0 0 0 0 0 0 0 0 0 0 0 0 0 0 0 0 0 0 
0 0 0 0 0 0 0 0 0 0 0 4 11 13 9 5 9 7 10 23 61 66 99 128 108 129 157 166 168 129 119 95 111 112 112 115 123 123 127 133 132 137 168 161 159 153 154 140 134 147 125 106 115 123 148 139 109 87 67 65 104 116 112 138 181 188 178 166 156 144 98 78 68 84 117 163 171 153 133 110 159 137 72 67 42 13 2 1 5 0 1 4 0 0 0 0 0 0 0 0 0 0 0 0 0 0 0 0 0 0 0 0 0 0 0 0 0 0 0 0 0 0 0 0 0 0 0 0 
0 0 0 0 0 0 0 0 0 0 0 1 9 11 12 11 7 7 14 16 31 61 85 137 95 101 138 173 178 138 122 89 81 88 76 92 110 129 139 138 132 148 191 185 170 180 165 147 143 135 119 129 132 123 123 125 138 137 122 115 149 147 148 160 180 192 171 139 115 137 87 72 91 105 133 162 159 133 120 81 123 86 32 43 19 14 2 2 3 2 0 5 6 0 0 0 0 0 0 0 0 0 0 0 0 0 0 0 0 0 0 0 0 0 0 0 0 0 0 0 0 0 0 0 0 0 0 0 
0 0 0 0 0 0 0 0 0 0 0 2 9 13 10 7 7 10 11 14 13 46 89 128 128 125 113 155 160 136 134 117 95 106 71 52 61 82 114 139 167 194 197 192 170 171 177 156 131 118 130 142 137 164 160 145 157 164 160 151 177 171 138 157 166 167 156 130 106 120 164 135 144 133 125 137 111 75 68 69 83 84 61 32 12 9 9 1 1 13 9 7 10 5 0 0 0 0 0 0 0 0 0 0 0 0 0 0 0 0 0 0 0 0 0 0 0 0 0 0 0 0 0 0 0 0 0 0 
0 0 0 0 0 0 0 0 0 0 0 0 5 13 7 7 6 5 8 13 16 27 68 126 142 131 132 147 139 123 127 129 111 132 124 91 81 92 132 172 166 131 149 149 154 127 147 140 145 156 173 157 150 177 177 150 156 166 155 122 145 121 125 143 149 166 186 133 145 123 143 182 160 131 105 111 83 81 54 53 99 86 47 13 16 1 0 4 6 10 11 6 4 5 0 0 0 0 0 0 0 0 0 0 0 0 0 0 0 0 0 0 0 0 0 0 0 0 0 0 0 0 0 0 0 0 0 0 
0 0 0 0 0 0 0 0 0 0 0 0 2 8 9 7 5 2 5 11 17 28 43 89 126 114 117 111 90 109 120 123 104 119 138 102 85 101 109 118 179 159 178 175 212 188 159 159 134 157 184 188 186 186 179 167 163 166 163 150 159 168 173 162 177 174 201 168 120 128 105 124 114 98 76 91 57 76 61 58 41 36 20 11 15 1 0 0 2 9 6 8 7 1 0 0 0 0 0 0 0 0 0 0 0 0 0 0 0 0 0 0 0 0 0 0 0 0 0 0 0 0 0 0 0 0 0 0 
0 0 0 0 0 0 0 0 0 0 0 0 0 1 7 6 3 0 0 3 7 24 35 31 66 102 92 57 81 64 101 104 103 102 118 111 84 91 109 143 172 174 167 203 186 212 196 193 183 162 166 178 179 177 159 156 149 154 162 168 165 152 166 198 188 157 141 182 89 44 53 60 73 97 111 110 55 86 35 29 25 31 29 19 19 1 0 0 2 7 6 12 4 0 0 0 0 0 0 0 0 0 0 0 0 0 0 0 0 0 0 0 0 0 0 0 0 0 0 0 0 0 0 0 0 0 0 0 
0 0 0 0 0 0 0 0 0 0 0 0 0 0 1 9 8 6 1 0 6 8 20 21 28 41 34 45 99 46 77 81 71 70 73 91 94 76 72 68 115 134 136 153 149 138 98 96 90 92 97 95 94 73 69 76 81 77 97 77 81 103 91 123 63 134 136 77 51 56 59 41 36 43 75 110 44 91 46 30 27 21 14 5 3 2 6 7 6 5 3 5 3 0 0 0 0 0 0 0 0 0 0 0 0 0 0 0 0 0 0 0 0 0 0 0 0 0 0 0 0 0 0 0 0 0 0 0 
0 0 0 0 0 0 0 0 0 0 0 0 0 0 0 0 5 7 4 0 3 7 11 18 20 22 24 40 103 52 78 77 49 29 31 47 72 64 73 97 135 113 76 76 103 114 66 53 64 75 56 70 70 65 62 70 68 55 70 57 84 109 80 83 77 104 85 73 90 84 60 54 57 54 78 108 49 98 42 28 25 23 14 4 1 3 6 1 0 0 0 4 0 0 0 0 0 0 0 0 0 0 0 0 0 0 0 0 0 0 0 0 0 0 0 0 0 0 0 0 0 0 0 0 0 0 0 0 
0 0 0 0 0 0 0 0 0 0 0 0 0 0 0 0 0 0 0 0 0 7 8 17 21 19 24 36 97 63 71 67 55 26 31 39 61 99 156 118 120 175 83 91 105 127 89 72 98 101 62 66 67 73 77 84 95 92 104 95 110 117 86 81 72 101 122 80 103 135 148 145 122 91 98 112 59 89 37 38 35 23 13 6 1 0 0 0 0 0 0 0 0 0 0 0 0 0 0 0 0 0 0 0 0 0 0 0 0 0 0 0 0 0 0 0 0 0 0 0 0 0 0 0 0 0 0 0 
0 0 0 0 0 0 0 0 0 0 0 0 0 0 0 0 0 0 0 0 0 4 4 11 17 17 24 29 79 76 62 57 66 65 88 123 140 154 129 122 111 145 180 162 165 171 165 102 126 103 107 118 92 84 83 102 110 90 97 110 147 162 146 104 147 138 112 87 122 108 119 172 162 158 139 126 94 77 45 38 32 9 6 12 3 0 0 0 0 0 0 0 0 0 0 0 0 0 0 0 0 0 0 0 0 0 0 0 0 0 0 0 0 0 0 0 0 0 0 0 0 0 0 0 0 0 0 0 
0 0 0 0 0 0 0 0 0 0 0 0 0 0 0 0 0 0 0 0 0 0 6 18 14 12 15 10 46 82 70 61 83 103 120 123 144 117 99 72 161 168 186 187 175 142 108 143 123 150 203 209 183 137 118 114 110 116 127 142 154 167 196 186 146 172 171 141 135 145 92 174 139 112 85 84 65 47 27 35 39 21 6 1 0 0 0 0 0 0 0 0 0 0 0 0 0 0 0 0 0 0 0 0 0 0 0 0 0 0 0 0 0 0 0 0 0 0 0 0 0 0 0 0 0 0 0 0 
0 0 0 0 0 0 0 0 0 0 0 0 0 0 0 0 0 0 0 0 0 0 1 9 10 11 15 17 39 92 71 57 55 40 44 79 158 189 135 110 171 144 121 109 130 164 132 190 198 140 120 122 110 113 122 125 120 130 140 140 146 156 188 196 142 167 142 70 119 135 114 91 65 35 43 106 88 59 40 43 22 6 7 0 0 0 0 0 0 0 0 0 0 0 0 0 0 0 0 0 0 0 0 0 0 0 0 0 0 0 0 0 0 0 0 0 0 0 0 0 0 0 0 0 0 0 0 0 
0 0 0 0 0 0 0 0 0 0 0 0 0 0 0 0 0 0 0 0 0 0 1 5 13 14 17 20 29 90 73 67 63 35 30 32 48 143 121 168 160 128 107 115 130 107 116 177 206 129 86 81 71 67 60 62 54 50 60 67 86 124 160 154 109 94 99 99 68 86 72 52 38 33 52 110 82 43 22 18 15 9 7 0 0 0 0 0 0 0 0 0 0 0 0 0 0 0 0 0 0 0 0 0 0 0 0 0 0 0 0 0 0 0 0 0 0 0 0 0 0 0 0 0 0 0 0 0 
0 0 0 0 0 0 0 0 0 0 0 0 0 0 0 0 0 0 0 0 0 0 1 2 11 14 17 22 27 74 75 74 73 39 33 41 67 78 83 119 110 73 88 128 112 96 132 193 198 124 126 114 66 67 72 62 61 69 87 101 121 115 136 158 115 96 105 96 91 97 84 51 35 30 49 119 87 44 27 22 18 13 3 0 0 0 0 0 0 0 0 0 0 0 0 0 0 0 0 0 0 0 0 0 0 0 0 0 0 0 0 0 0 0 0 0 0 0 0 0 0 0 0 0 0 0 0 0 
0 0 0 0 0 0 0 0 0 0 0 0 0 0 0 0 0 0 0 0 0 0 0 2 7 13 15 22 26 61 66 75 73 40 37 83 121 120 95 85 66 58 69 116 110 86 105 171 161 109 140 146 122 120 112 94 111 127 138 142 146 143 145 128 97 107 113 110 123 121 123 107 76 50 48 117 87 55 26 22 16 12 3 0 0 0 0 0 0 0 0 0 0 0 0 0 0 0 0 0 0 0 0 0 0 0 0 0 0 0 0 0 0 0 0 0 0 0 0 0 0 0 0 0 0 0 0 0 
0 0 0 0 0 0 0 0 0 0 0 0 0 0 0 0 0 0 0 0 0 0 0 2 2 14 14 19 23 51 50 63 81 38 53 121 123 82 51 48 51 51 69 111 81 79 83 147 147 114 150 160 148 137 128 122 147 147 145 150 154 172 144 103 92 104 124 108 107 113 105 115 129 100 57 114 73 73 30 22 15 11 1 0 0 0 0 0 0 0 0 0 0 0 0 0 0 0 0 0 0 0 0 0 0 0 0 0 0 0 0 0 0 0 0 0 0 0 0 0 0 0 0 0 0 0 0 0 
0 0 0 0 0 0 0 0 0 0 0 0 0 0 0 0 0 0 0 0 0 0 0 0 3 9 12 14 18 39 45 50 92 45 63 136 100 45 36 39 42 50 89 116 79 88 101 134 128 126 158 139 128 129 122 123 135 144 140 144 167 163 118 83 72 98 141 107 90 92 92 91 120 131 73 102 60 67 40 21 13 10 1 0 0 0 0 0 0 0 0 0 0 0 0 0 0 0 0 0 0 0 0 0 0 0 0 0 0 0 0 0 0 0 0 0 0 0 0 0 0 0 0 0 0 0 0 0 
0 0 0 0 0 0 0 0 0 0 0 0 0 0 0 0 0 0 0 0 0 0 0 0 2 3 12 9 15 29 61 63 85 48 74 145 84 37 38 39 42 68 130 117 72 82 91 104 99 117 148 118 118 117 93 94 103 119 143 132 124 100 104 66 63 80 143 132 69 52 50 47 93 142 83 89 72 57 27 19 14 8 0 0 0 0 0 0 0 0 0 0 0 0 0 0 0 0 0 0 0 0 0 0 0 0 0 0 0 0 0 0 0 0 0 0 0 0 0 0 0 0 0 0 0 0 0 0 
0 0 0 0 0 0 0 0 0 0 0 0 0 0 0 0 0 0 0 0 0 0 0 0 0 2 7 10 12 17 43 56 55 56 81 139 77 36 38 42 46 97 134 100 75 75 74 75 93 99 118 111 107 89 71 72 86 98 118 112 84 82 111 68 62 77 113 144 99 45 38 38 78 149 94 65 45 30 19 17 15 8 0 0 0 0 0 0 0 0 0 0 0 0 0 0 0 0 0 0 0 0 0 0 0 0 0 0 0 0 0 0 0 0 0 0 0 0 0 0 0 0 0 0 0 0 0 0 
0 0 0 0 0 0 0 0 0 0 0 0 0 0 0 0 0 0 0 0 0 0 0 0 0 1 5 9 12 15 19 23 26 44 67 118 75 33 34 43 50 87 92 84 78 69 60 64 77 81 107 112 99 77 73 82 95 100 120 118 86 77 101 88 76 74 86 104 113 51 36 33 73 149 101 37 18 21 19 17 14 8 0 0 0 0 0 0 0 0 0 0 0 0 0 0 0 0 0 0 0 0 0 0 0 0 0 0 0 0 0 0 0 0 0 0 0 0 0 0 0 0 0 0 0 0 0 0 
0 0 0 0 0 0 0 0 0 0 0 0 0 0 0 0 0 0 0 0 0 0 0 0 0 0 4 8 12 16 21 18 22 12 13 85 90 42 29 41 55 78 78 60 50 51 49 59 65 71 111 133 114 98 88 78 91 93 104 103 75 62 104 93 69 71 68 87 115 61 34 36 74 129 53 16 15 20 17 17 13 8 0 0 0 0 0 0 0 0 0 0 0 0 0 0 0 0 0 0 0 0 0 0 0 0 0 0 0 0 0 0 0 0 0 0 0 0 0 0 0 0 0 0 0 0 0 0 
0 0 0 0 0 0 0 0 0 0 0 0 0 0 0 0 0 0 0 0 0 0 0 0 0 0 1 8 10 14 17 19 19 21 11 44 114 79 37 45 88 95 79 57 41 45 49 66 72 76 96 116 114 101 76 66 87 100 105 108 76 58 107 100 73 63 61 92 119 96 50 52 108 117 34 16 17 18 17 16 12 9 1 0 0 0 0 0 0 0 0 0 0 0 0 0 0 0 0 0 0 0 0 0 0 0 0 0 0 0 0 0 0 0 0 0 0 0 0 0 0 0 0 0 0 0 0 0 
0 0 0 0 0 0 0 0 0 0 0 0 0 0 0 0 0 0 0 0 0 0 0 0 0 0 0 2 8 11 17 18 19 20 17 16 79 122 88 80 106 90 84 60 47 49 60 89 94 107 107 104 113 101 85 96 113 101 114 122 83 63 91 101 75 53 55 91 112 117 90 97 128 55 25 14 17 17 18 14 12 10 2 0 0 0 0 0 0 0 0 0 0 0 0 0 0 0 0 0 0 0 0 0 0 0 0 0 0 0 0 0 0 0 0 0 0 0 0 0 0 0 0 0 0 0 0 0 
0 0 0 0 0 0 0 0 0 0 0 0 0 0 0 0 0 0 0 0 0 0 0 0 0 0 0 0 5 7 14 17 19 19 21 18 21 58 98 82 70 65 85 76 61 70 84 92 74 86 119 119 130 106 85 95 100 97 111 125 91 67 96 101 93 70 64 93 94 74 75 93 51 25 24 19 18 17 18 14 12 9 2 0 0 0 0 0 0 0 0 0 0 0 0 0 0 0 0 0 0 0 0 0 0 0 0 0 0 0 0 0 0 0 0 0 0 0 0 0 0 0 0 0 0 0 0 0 
0 0 0 0 0 0 0 0 0 0 0 0 0 0 0 0 0 0 0 0 0 0 0 0 0 0 0 0 2 8 6 16 17 18 15 19 20 25 26 31 31 47 90 89 70 94 100 91 73 105 141 138 125 109 108 110 110 114 122 129 128 88 105 97 98 84 83 100 90 38 32 35 28 26 26 21 17 18 15 13 12 9 2 0 0 0 0 0 0 0 0 0 0 0 0 0 0 0 0 0 0 0 0 0 0 0 0 0 0 0 0 0 0 0 0 0 0 0 0 0 0 0 0 0 0 0 0 0 
0 0 0 0 0 0 0 0 0 0 0 0 0 0 0 0 0 0 0 0 0 0 0 0 0 0 0 0 0 7 5 13 16 15 14 13 15 22 25 27 30 44 72 95 100 105 99 85 66 106 148 142 123 101 105 110 103 97 98 118 141 121 105 99 100 92 91 100 67 39 31 31 27 26 25 19 16 18 14 14 13 8 2 0 0 0 0 0 0 0 0 0 0 0 0 0 0 0 0 0 0 0 0 0 0 0 0 0 0 0 0 0 0 0 0 0 0 0 0 0 0 0 0 0 0 0 0 0 
0 0 0 0 0 0 0 0 0 0 0 0 0 0 0 0 0 0 0 0 0 0 0 0 0 0 0 0 0 6 4 9 15 15 13 16 18 19 25 28 31 37 47 64 86 99 97 74 66 106 147 147 128 104 104 112 103 107 103 106 128 134 107 82 89 97 88 65 43 43 33 33 28 26 19 17 16 18 15 13 12 6 1 0 0 0 0 0 0 0 0 0 0 0 0 0 0 0 0 0 0 0 0 0 0 0 0 0 0 0 0 0 0 0 0 0 0 0 0 0 0 0 0 0 0 0 0 0 
0 0 0 0 0 0 0 0 0 0 0 0 0 0 0 0 0 0 0 0 0 0 0 0 0 0 0 0 0 4 7 6 13 17 12 15 19 18 23 26 31 33 29 31 47 69 65 59 59 87 149 157 151 145 144 151 148 145 139 136 134 128 88 81 68 68 50 50 42 40 28 32 30 25 19 15 15 18 15 12 11 5 1 0 0 0 0 0 0 0 0 0 0 0 0 0 0 0 0 0 0 0 0 0 0 0 0 0 0 0 0 0 0 0 0 0 0 0 0 0 0 0 0 0 0 0 0 0 
