P2
128 99
238
0 0 0 0 0 0 0 0 0 0 0 0 0 0 0 0 0 0 0 0 0 0 0 0 0 0 0 0 0 0 0 2 0 0 0 0 0 0 0 0 0 0 0 0 0 0 0 0 0 0 0 0 0 0 0 0 0 0 0 0 0 0 0 0 0 0 0 0 0 0 0 0 0 0 0 0 0 0 0 0 0 0 0 0 0 0 0 0 0 0 0 0 0 0 0 3 11 8 0 0 0 0 0 0 0 0 0 0 0 0 0 0 0 0 0 0 0 0 0 0 0 0 0 0 0 0 0 0 
0 0 0 0 0 0 0 0 0 0 0 0 0 0 0 0 0 0 0 0 0 0 0 0 0 0 0 0 0 0 0 2 0 0 0 0 0 0 0 0 0 0 0 0 0 0 0 0 0 0 0 0 0 0 0 0 0 0 0 0 0 0 0 0 0 0 0 0 0 0 0 0 0 0 0 0 0 0 0 0 0 0 0 0 0 0 0 0 0 0 0 0 0 0 0 3 11 9 0 0 0 0 0 0 0 0 0 0 0 0 0 0 0 0 0 0 0 0 0 0 0 0 0 0 0 0 0 0 
0 0 0 0 0 0 0 0 0 0 0 0 0 0 0 0 0 0 0 0 0 0 0 0 0 0 0 0 0 0 0 2 0 0 0 0 0 0 0 0 0 0 0 0 0 0 0 0 0 0 2 2 0 0 0 0 0 0 0 0 0 0 0 0 0 0 0 0 0 0 0 0 0 0 0 0 0 0 0 0 0 0 0 0 0 0 0 0 0 0 0 0 0 0 0 3 11 10 0 0 0 0 0 0 0 0 0 0 0 0 0 0 0 0 0 0 0 0 0 0 0 0 0 0 0 0 0 0 
0 0 0 0 0 0 0 0 0 0 0 0 0 0 0 0 0 0 0 0 0 0 0 0 0 0 0 0 0 0 0 1 0 0 0 0 0 0 0 0 0 0 0 1 13 18 19 16 13 14 15 16 16 15 16 15 16 15 7 7 3 0 0 0 0 0 0 0 0 0 0 0 0 0 0 0 0 0 0 0 0 0 0 0 0 0 0 0 0 0 0 0 0 0 0 3 10 9 0 0 0 0 0 0 0 0 0 0 0 0 0 0 0 0 0 0 0 0 0 0 0 0 0 0 0 0 0 0 
0 0 0 0 0 0 0 0 0 0 0 0 0 0 0 0 0 0 0 0 0 0 0 0 0 0 0 0 0 0 0 1 0 0 0 0 0 0 0 0 0 11 25 18 18 32 53 74 87 98 106 113 116 114 109 100 91 77 62 47 30 21 7 8 2 0 0 0 0 0 0 0 0 0 0 0 0 0 0 0 0 0 0 0 0 0 0 0 0 0 0 0 0 0 0 3 10 9 0 0 0 0 0 0 0 0 0 0 0 0 0 0 0 0 0 0 0 0 0 0 0 0 0 0 0 0 0 0 
0 0 0 0 0 0 0 0 0 0 0 0 0 0 0 0 0 0 0 0 0 0 0 0 0 0 0 0 0 0 0 0 0 0 0 0 0 0 2 22 21 19 29 68 97 115 132 142 149 161 177 189 192 196 198 194 187 177 157 130 110 91 67 40 23 8 9 1 0 0 0 0 0 0 0 0 0 0 0 0 0 0 0 0 0 0 0 0 0 0 0 0 0 0 0 3 11 8 0 0 0 0 0 0 0 0 0 0 0 0 0 0 0 0 0 0 0 0 0 0 0 0 0 0 0 0 0 0 
0 0 0 0 0 0 0 0 0 0 0 0 0 0 0 0 0 0 0 0 0 0 0 0 0 0 0 0 0 0 0 0 0 0 0 0 4 25 21 21 41 86 122 144 148 162 187 209 216 215 210 202 194 191 195 201 210 214 220 219 207 179 141 112 95 70 39 13 9 2 0 0 0 0 0 0 0 0 0 0 0 0 0 0 0 0 0 0 0 0 0 0 0 0 0 3 11 8 0 0 0 0 0 0 0 0 0 0 0 0 0 0 0 0 0 0 0 0 0 0 0 0 0 0 0 0 0 0 
0 0 0 0 0 0 0 0 0 0 0 0 0 0 0 0 0 0 0 0 0 0 0 0 0 0 0 0 0 0 0 0 0 0 6 28 23 21 55 101 137 152 158 180 210 220 201 174 154 136 129 130 128 118 114 121 134 149 162 177 197 215 224 208 175 134 108 88 46 20 9 2 0 0 0 0 0 0 0 0 0 0 0 0 0 0 0 0 0 0 0 0 0 0 0 3 11 8 0 0 0 0 0 0 0 0 0 0 0 0 0 0 0 0 0 0 0 0 0 0 0 0 0 0 0 0 0 0 
0 0 0 0 0 0 0 0 0 0 0 0 0 0 0 0 0 0 0 0 0 0 0 0 0 0 0 0 0 0 0 0 5 30 22 19 49 106 141 153 157 190 222 210 182 154 135 114 109 109 107 110 104 95 107 123 129 136 143 142 141 148 163 191 218 226 193 153 116 87 41 22 9 0 0 0 0 0 0 0 0 0 0 0 0 0 0 0 0 0 0 0 0 0 0 4 11 9 0 0 0 0 0 0 0 0 0 0 0 0 0 0 0 0 0 0 0 0 0 0 0 0 0 0 0 0 0 0 
0 0 0 0 0 0 0 0 0 0 0 0 0 0 0 0 0 0 0 0 0 0 0 0 0 0 0 0 0 0 0 24 27 14 34 94 137 155 163 190 218 201 159 124 113 115 108 104 100 70 77 98 108 110 108 105 115 128 137 143 152 150 143 143 154 179 213 227 201 151 112 70 28 19 2 0 0 0 0 0 0 0 0 0 0 0 0 0 0 0 0 0 0 0 0 3 11 9 0 0 0 0 0 0 0 0 0 0 0 0 0 0 0 0 0 0 0 0 0 0 0 0 0 0 0 0 0 0 
0 0 0 0 0 0 0 0 0 0 0 0 0 0 0 0 0 0 0 0 0 0 0 0 0 0 0 0 0 12 29 18 21 76 129 155 159 192 220 200 164 132 119 137 156 163 167 170 167 158 145 145 146 148 154 161 169 182 182 167 152 150 158 156 145 140 145 166 204 224 194 141 100 41 21 4 0 0 0 0 0 0 0 0 0 0 0 0 0 0 0 0 0 0 0 3 11 8 0 0 0 0 0 0 0 0 0 0 0 0 0 0 0 0 0 0 0 0 0 0 0 0 0 0 0 0 0 0 
0 0 0 0 0 0 0 0 0 0 0 0 0 0 0 0 0 0 0 0 0 0 0 0 0 0 0 0 24 22 13 43 113 145 154 180 219 202 162 141 134 139 147 157 166 173 175 167 165 164 154 141 137 145 151 158 156 160 166 177 185 179 174 169 166 162 148 141 139 165 205 218 170 116 58 21 9 0 0 0 0 0 0 0 0 0 0 0 0 0 0 0 0 0 0 3 11 10 0 0 0 0 0 0 0 0 0 0 0 0 0 0 0 0 0 0 0 0 0 0 0 0 0 0 0 0 0 0 
0 0 0 0 0 0 0 0 0 0 0 0 0 0 0 0 0 0 0 0 0 0 0 0 0 0 4 23 20 16 69 131 152 163 203 209 169 149 149 140 141 158 169 171 168 168 165 163 166 172 170 165 163 164 168 163 155 163 168 165 162 163 161 164 177 183 172 157 147 139 144 180 218 188 127 68 21 11 0 0 0 0 0 0 0 0 0 0 0 0 0 0 0 0 0 4 11 11 0 0 0 0 0 0 0 0 0 0 0 0 0 0 0 0 0 0 0 0 0 0 0 0 0 0 0 0 0 0 
0 0 0 0 0 0 0 0 0 0 0 0 0 0 0 0 0 0 0 0 0 0 0 0 0 9 23 16 16 89 144 153 175 211 185 153 152 149 138 156 172 166 148 138 133 129 146 166 174 178 161 149 148 155 152 137 129 134 156 165 164 159 156 150 148 157 177 187 173 156 142 137 163 206 197 134 71 24 12 0 0 0 0 0 0 0 0 0 0 0 0 0 0 0 0 4 12 13 0 0 0 0 0 0 0 0 0 0 0 0 0 0 0 0 0 0 0 0 0 0 0 0 0 0 0 0 0 0 
0 0 0 0 0 0 0 0 0 0 0 0 0 0 0 0 0 0 0 0 0 0 0 0 12 20 17 28 104 145 146 184 209 175 154 148 132 145 162 166 162 145 127 115 96 93 101 120 124 105 99 116 101 77 66 58 68 97 121 136 155 163 159 153 143 141 143 158 180 182 163 146 135 154 199 203 140 77 24 10 0 0 0 0 0 0 0 0 0 0 0 0 0 0 0 4 12 12 0 0 0 0 0 0 0 0 0 0 0 0 0 0 0 0 0 0 0 0 0 0 0 0 0 0 0 0 0 0 
0 0 0 0 0 0 0 0 0 0 0 0 0 0 0 0 0 0 0 0 0 0 0 22 16 11 43 114 140 145 198 206 175 155 135 126 149 159 160 164 145 114 97 93 94 94 90 76 54 51 51 56 51 50 48 51 48 53 80 102 118 147 163 161 154 147 143 140 140 159 180 168 148 135 149 199 198 142 85 25 10 0 0 0 0 0 0 0 0 0 0 0 0 0 0 4 12 12 0 0 0 0 0 0 0 0 0 0 0 0 0 0 0 0 0 0 0 0 0 0 0 0 0 0 0 0 0 0 
0 0 0 0 0 0 0 0 0 0 0 0 0 0 0 0 0 0 0 0 0 5 22 12 14 53 119 141 152 206 207 173 143 123 130 153 156 163 167 141 101 91 90 92 92 71 57 53 52 53 53 55 54 53 54 55 52 52 52 57 59 72 113 152 160 146 144 148 146 138 145 170 171 154 136 153 208 203 151 92 27 10 0 0 0 0 0 0 0 0 0 0 0 0 0 4 12 13 0 0 0 0 0 0 0 0 0 0 0 0 0 0 0 0 0 0 0 0 0 0 0 0 0 0 0 0 0 0 
0 0 0 0 0 0 0 0 0 0 0 0 0 0 0 0 0 0 0 0 9 21 9 14 61 122 139 151 209 208 171 130 118 138 157 158 160 151 120 94 89 88 90 82 63 56 54 54 54 53 54 56 53 54 53 53 56 54 52 52 51 49 55 89 136 154 144 143 145 142 131 141 170 174 158 138 162 216 199 149 99 31 7 0 0 0 0 0 0 0 0 0 0 0 0 4 12 13 0 0 0 0 0 0 0 0 0 0 0 0 0 0 0 0 0 0 0 0 0 0 0 0 0 0 0 0 0 0 
0 0 0 0 0 0 0 0 0 0 0 0 0 0 0 0 0 0 0 8 20 8 17 70 121 137 148 202 209 166 122 112 135 162 157 151 148 117 93 91 87 72 60 52 53 51 50 55 55 54 54 57 59 59 59 58 58 59 56 55 53 53 50 50 59 98 143 139 137 140 129 127 138 161 165 155 137 171 218 182 144 98 32 4 0 0 0 0 0 0 0 0 0 0 0 4 12 12 0 0 0 0 0 0 0 0 0 0 0 0 0 0 0 0 0 0 0 0 0 0 0 0 0 0 0 0 0 0 
0 0 0 0 0 0 0 0 0 0 0 0 0 0 0 0 0 0 4 20 10 18 85 123 131 147 190 215 159 118 112 129 157 154 156 150 115 92 87 69 58 51 50 54 53 57 59 64 70 72 72 76 85 92 95 99 101 100 96 89 78 67 58 50 50 51 78 138 148 135 133 134 130 140 156 155 145 135 176 211 158 140 97 28 4 0 0 0 0 0 0 0 0 0 0 4 12 12 0 0 0 0 0 0 0 0 0 0 0 0 0 0 0 0 0 0 0 0 0 0 0 0 0 0 0 0 0 0 
0 0 0 0 0 0 0 0 0 0 0 0 0 0 0 0 0 0 20 9 18 97 131 122 145 173 218 163 116 113 132 154 150 151 151 111 83 68 53 51 54 56 61 68 77 90 105 118 128 129 134 141 152 161 165 170 172 171 167 161 146 126 96 70 55 49 49 79 136 147 135 128 139 137 147 148 145 137 140 200 186 150 127 93 19 0 0 0 0 0 0 0 0 0 0 4 12 14 0 0 0 0 0 0 0 0 0 0 0 0 0 0 0 0 0 0 0 0 0 0 0 0 0 0 0 0 0 0 
0 0 0 0 0 0 0 0 0 0 0 0 0 0 0 0 0 16 11 15 94 140 113 149 158 213 171 113 110 127 149 139 149 156 111 65 54 56 61 69 75 85 98 120 138 153 166 171 173 169 174 180 190 190 187 187 186 190 190 192 187 171 148 115 80 58 50 50 75 122 145 141 134 141 145 151 140 139 130 167 210 160 144 109 63 5 0 0 0 0 0 0 0 0 0 5 12 16 0 0 0 0 0 0 0 0 0 0 0 0 0 0 0 0 0 0 0 0 0 0 0 0 0 0 0 0 0 0 
0 0 0 0 0 0 0 0 0 0 0 0 0 0 0 0 8 16 12 65 146 108 139 153 199 193 116 109 129 143 136 141 153 109 58 55 69 80 86 93 104 128 151 172 182 183 183 178 172 166 165 169 173 170 165 157 165 169 174 175 189 193 182 156 120 86 60 48 50 65 111 146 144 135 142 141 149 134 129 132 203 195 148 134 101 27 1 0 0 0 0 0 0 0 0 5 13 16 0 0 0 0 0 0 0 0 0 0 0 0 0 0 0 0 0 0 0 0 0 0 0 0 0 0 0 0 0 0 
0 0 0 0 0 0 0 0 0 0 0 0 0 0 0 0 18 13 37 139 112 125 150 178 208 141 102 129 148 140 141 151 114 67 65 82 94 101 100 111 133 162 185 190 189 178 172 171 162 151 143 149 156 152 147 139 148 151 157 164 181 191 190 184 155 117 86 61 49 48 56 88 137 139 139 140 152 149 127 122 171 213 160 146 118 74 7 0 0 0 0 0 0 0 0 5 13 19 0 0 0 0 0 0 0 0 0 0 0 1 0 0 0 0 0 0 0 0 0 0 0 0 0 0 0 0 0 0 
0 0 0 0 0 0 0 0 0 0 0 0 0 0 0 6 13 17 105 134 105 141 165 202 181 109 126 145 145 141 152 113 76 70 90 99 103 101 103 122 153 180 190 185 174 169 169 163 158 155 148 150 150 143 148 148 150 155 155 166 171 176 189 195 179 148 111 85 61 49 49 54 92 134 144 143 149 160 134 118 149 208 175 145 131 114 29 0 0 0 0 0 0 0 0 5 13 15 0 0 0 0 0 0 0 0 0 0 0 1 0 0 0 0 0 0 0 0 0 0 0 0 0 0 0 0 0 0 
0 0 0 0 0 0 0 0 0 0 0 0 0 0 0 13 10 56 150 101 128 151 176 207 145 118 133 145 141 152 119 81 76 93 101 99 100 97 112 142 171 181 183 173 166 167 158 156 158 158 154 163 159 159 159 156 162 167 166 171 161 172 180 190 190 176 141 107 83 60 48 49 58 103 147 150 142 152 150 119 135 196 187 141 136 125 63 6 0 0 0 0 0 0 0 5 13 17 0 0 0 0 0 0 0 0 0 0 0 0 0 0 0 0 0 0 0 0 0 0 0 0 0 0 0 0 0 0 
0 0 0 0 0 0 0 0 0 0 0 0 0 0 3 13 20 128 125 107 138 159 191 175 123 126 136 144 151 128 87 80 96 103 99 95 94 109 140 170 179 177 169 165 161 154 155 162 166 168 162 170 172 175 173 177 172 167 161 160 145 157 166 169 178 182 168 133 106 84 59 47 47 58 118 152 149 147 152 125 123 180 195 141 141 128 101 14 0 0 0 0 0 0 0 5 13 18 0 0 0 0 0 0 0 0 0 0 0 0 0 0 0 0 0 0 0 0 0 0 0 0 0 0 0 0 0 0 
0 0 0 0 0 0 0 0 0 0 0 0 0 0 9 14 66 152 105 119 150 166 180 149 124 118 146 151 131 91 75 93 99 98 93 90 105 139 170 178 171 162 162 155 144 148 152 151 159 163 169 177 176 185 167 165 167 161 155 134 111 109 134 164 169 165 180 167 129 104 79 56 48 50 73 126 155 153 152 132 124 165 188 143 140 129 135 31 1 0 0 0 0 0 0 5 13 19 0 0 0 0 0 0 0 0 0 0 0 1 0 0 0 0 0 0 0 0 0 0 0 0 0 0 0 0 0 0 
0 0 0 0 0 0 0 0 0 0 0 0 0 1 11 22 119 132 99 129 158 154 170 148 118 115 154 140 96 70 86 97 93 92 90 103 134 167 166 158 166 152 142 132 121 117 122 124 140 140 156 181 176 172 131 105 125 134 125 106 101 101 105 137 164 157 165 188 165 124 98 70 50 47 55 94 139 153 154 132 125 151 181 151 137 133 140 60 6 0 0 0 0 0 0 5 13 18 0 0 0 0 0 0 0 0 0 0 0 1 0 0 0 0 0 0 0 0 0 0 0 0 0 0 0 0 0 0 
0 0 0 0 0 0 0 0 0 0 0 0 0 2 11 50 146 109 107 147 150 148 173 136 117 128 145 109 75 71 96 94 91 88 98 131 173 179 161 153 157 157 131 113 105 103 110 117 119 111 113 141 146 127 89 76 88 97 96 95 97 97 101 120 151 155 156 179 194 164 121 87 59 46 50 74 106 140 154 136 122 146 176 152 135 130 126 88 8 0 0 0 0 0 0 5 13 19 0 0 0 0 0 0 0 0 0 0 0 1 0 0 0 0 0 0 0 0 0 0 0 0 0 0 0 0 0 0 
0 0 0 0 0 0 0 0 0 0 0 0 0 6 13 88 144 102 120 158 137 152 161 127 117 137 118 91 67 84 98 89 84 94 130 176 191 172 148 155 159 154 144 125 113 107 97 94 99 90 84 94 106 87 68 64 67 74 80 87 91 97 100 111 132 154 152 154 180 196 162 111 73 49 47 62 84 124 155 139 118 144 174 148 137 124 112 106 12 0 0 0 0 0 0 6 13 19 0 0 0 0 0 0 0 0 0 0 0 1 0 0 0 0 0 0 0 0 0 0 0 0 0 0 0 0 0 0 
0 0 0 0 0 0 0 0 0 0 0 0 0 8 26 120 132 105 137 150 127 146 148 123 127 122 90 91 84 99 96 89 97 136 181 195 183 159 152 152 115 91 96 125 114 93 79 79 79 72 66 69 83 70 59 55 54 60 67 80 94 103 106 113 133 150 143 121 144 190 198 154 97 56 46 56 79 108 149 138 116 135 177 148 142 136 115 121 15 0 0 0 0 0 1 6 14 21 0 0 0 0 0 0 0 0 0 0 0 1 0 0 0 0 0 0 0 0 0 0 0 0 0 0 0 0 0 0 
0 0 0 0 0 0 0 0 0 0 0 0 0 11 40 137 115 106 139 132 119 147 151 122 115 97 86 95 97 100 93 94 135 179 187 172 162 157 154 113 83 77 72 76 95 82 68 62 63 61 61 64 77 71 61 57 64 68 77 83 90 100 110 120 135 114 88 121 131 165 197 197 147 81 49 51 72 87 139 141 120 132 177 148 139 136 121 126 28 0 0 0 0 0 0 5 14 22 0 0 0 0 0 0 0 0 0 0 0 1 0 0 0 0 0 0 0 0 0 0 0 0 0 0 0 0 0 0 
0 0 0 0 0 0 0 0 0 0 0 0 0 13 50 145 115 114 143 119 120 156 156 124 84 86 88 104 102 98 94 123 180 195 176 145 143 143 129 86 78 73 58 58 75 78 63 57 57 58 64 62 72 68 62 63 69 83 100 102 60 61 69 75 88 93 90 86 125 137 176 208 198 131 59 49 59 82 129 137 125 134 171 162 131 139 134 123 41 0 0 0 0 0 0 6 14 21 0 0 0 0 0 0 0 0 0 0 0 1 0 0 0 0 0 0 0 0 0 0 0 0 0 0 0 0 0 0 
0 0 0 0 0 0 0 0 0 0 0 0 1 13 57 146 112 123 144 115 129 165 158 116 63 83 92 110 103 99 111 167 197 183 149 128 124 132 139 117 112 89 52 48 53 68 77 71 62 68 72 65 62 66 69 80 89 94 111 111 54 52 60 63 78 90 92 97 136 134 146 179 209 191 99 52 52 76 117 132 131 153 175 171 140 141 143 120 54 3 0 0 0 0 0 5 14 20 0 0 0 0 0 0 0 0 0 0 0 0 0 0 0 0 0 0 0 0 0 0 0 0 0 0 0 0 0 0 
0 0 0 0 0 0 0 0 0 0 0 0 2 10 65 147 103 131 144 116 135 173 159 95 50 81 101 113 103 102 149 193 184 156 133 137 118 106 105 115 119 110 50 48 46 48 72 111 97 84 83 72 58 63 81 113 126 109 124 101 50 50 54 58 71 91 118 117 111 123 148 162 182 204 171 85 56 78 97 119 128 146 172 175 141 145 148 120 60 5 0 0 0 0 0 6 14 18 0 0 0 0 0 0 0 0 0 0 0 0 0 0 0 0 0 0 0 0 0 0 0 0 0 0 0 0 0 0 
0 0 0 0 0 0 0 0 0 0 0 0 6 9 75 140 103 142 144 120 141 178 166 91 50 78 108 117 100 113 187 183 154 148 149 105 74 60 52 50 58 71 56 47 51 46 51 107 130 127 118 89 81 75 103 127 113 109 108 67 50 50 51 55 76 90 93 93 90 87 90 115 174 199 200 168 95 85 92 122 134 146 178 176 140 147 150 122 60 5 0 0 0 0 0 5 13 17 0 0 0 0 0 0 0 0 0 0 0 0 0 0 0 0 0 0 0 0 0 0 0 0 0 0 0 0 0 0 
0 0 0 0 0 0 0 0 0 0 0 0 6 5 85 133 102 145 138 119 144 182 166 92 66 74 114 108 107 151 193 158 166 154 98 84 70 55 52 49 48 50 49 60 65 52 49 51 59 74 96 104 102 102 118 73 58 62 60 50 48 55 54 52 69 88 97 97 94 91 89 91 104 162 202 196 178 105 81 115 138 160 179 168 135 142 149 124 63 6 0 0 0 0 0 5 13 17 0 0 0 0 0 0 0 0 0 0 0 0 0 0 0 0 0 0 0 0 0 0 0 0 0 0 0 0 0 0 
0 0 0 0 0 0 0 0 0 0 0 0 6 4 93 123 102 146 137 120 144 176 171 104 86 77 116 108 129 194 178 162 161 100 89 82 71 60 55 56 55 55 51 48 53 66 48 49 49 49 49 79 94 92 89 50 50 49 49 50 53 52 48 52 69 88 97 97 96 95 95 95 99 112 161 204 207 161 82 113 138 172 184 161 122 138 147 132 69 9 0 0 0 0 0 5 13 16 0 0 0 0 0 0 0 0 0 0 0 0 0 0 0 0 0 0 0 0 0 0 0 0 0 0 0 0 0 0 
0 0 0 0 0 0 0 0 0 0 0 0 9 4 98 113 98 140 136 123 147 166 167 115 86 86 118 123 168 197 173 172 105 92 91 81 68 57 55 56 57 56 53 50 49 52 53 48 50 51 49 66 94 79 73 50 49 50 49 53 57 48 50 57 65 85 96 96 94 97 106 110 121 132 134 172 206 188 105 115 143 185 178 152 110 134 147 136 82 14 0 0 0 0 0 5 13 17 0 0 0 0 0 0 0 0 0 0 0 0 0 0 0 0 0 0 0 0 0 0 0 0 0 0 0 0 0 0 
0 0 0 0 0 0 0 0 0 0 0 0 9 7 102 105 105 152 139 129 147 153 157 123 82 90 106 142 204 184 180 131 93 92 90 76 64 59 59 57 58 58 54 52 50 51 64 55 49 49 48 60 79 72 69 51 50 49 49 71 53 48 53 61 67 87 109 115 112 114 116 114 121 134 135 115 178 185 124 110 141 185 174 140 96 122 149 138 85 23 0 0 0 0 0 5 13 18 0 0 0 0 0 0 0 0 0 0 0 0 0 0 0 0 0 0 0 0 0 0 0 0 0 0 0 0 0 0 
0 0 0 0 0 0 0 0 0 0 0 0 7 11 105 103 108 162 144 132 145 145 157 126 89 79 98 153 207 190 183 116 111 110 99 83 64 61 61 60 61 57 55 57 53 50 57 65 51 49 47 55 63 68 70 49 50 48 56 75 52 48 62 74 89 100 109 114 111 110 109 111 118 131 130 92 111 166 121 116 139 180 172 138 73 110 144 137 87 35 2 0 0 0 0 5 13 18 0 0 0 0 0 0 0 0 0 0 0 0 0 0 0 0 0 0 0 0 0 0 0 0 0 0 0 0 0 0 
0 0 0 0 0 0 0 0 0 0 0 0 7 14 109 103 110 160 145 135 140 148 150 131 85 60 95 156 205 195 161 113 108 108 107 89 84 80 82 83 82 79 64 56 54 49 53 70 49 49 48 57 67 100 96 65 49 51 57 62 48 62 77 77 75 88 106 110 107 110 111 112 123 131 126 91 63 102 93 119 133 160 168 140 62 90 129 138 88 46 3 0 0 0 0 5 13 17 0 0 0 0 0 0 0 0 0 0 0 0 0 0 0 0 0 0 0 0 0 0 0 0 0 0 0 0 0 0 
0 0 0 0 0 0 0 0 0 0 0 0 10 15 115 106 120 159 143 125 126 147 141 123 66 57 93 140 192 191 144 110 109 108 103 86 76 72 72 74 73 72 78 71 59 51 46 59 78 50 48 55 83 86 99 88 52 49 58 55 64 71 61 56 59 73 94 110 112 111 110 113 121 128 119 81 53 60 73 123 131 146 167 141 56 83 127 138 90 51 4 0 0 0 0 5 13 17 0 0 0 0 0 0 0 0 0 0 0 0 0 0 0 0 0 0 0 0 0 0 0 0 0 0 0 0 0 0 
0 0 0 0 0 0 0 0 0 0 0 0 11 20 115 105 125 150 124 104 120 150 137 91 50 55 91 140 199 195 143 112 109 113 105 90 79 78 76 66 54 54 61 67 70 64 54 50 59 47 49 58 78 60 68 87 60 49 67 69 68 56 53 52 53 64 87 106 110 109 108 113 120 123 110 68 50 51 69 124 131 138 154 140 49 82 124 137 94 62 3 0 0 0 0 5 14 17 0 0 0 0 0 0 0 0 0 0 0 0 0 0 0 0 0 0 0 0 0 0 0 0 0 0 0 0 0 0 
0 0 0 0 0 0 0 0 0 0 0 0 11 24 114 107 131 138 109 101 125 159 129 54 45 54 87 132 199 199 148 114 114 116 108 84 73 72 74 56 49 50 52 51 58 72 72 62 55 51 57 81 68 54 64 61 83 70 81 66 51 52 52 51 53 62 84 105 112 111 110 115 120 122 98 59 50 50 69 126 133 136 160 140 50 80 111 144 96 71 5 0 0 0 0 5 13 15 0 0 0 0 0 0 0 0 0 0 0 0 0 0 0 0 0 0 0 0 0 0 0 0 0 0 0 0 0 0 
0 0 0 0 0 0 0 0 0 0 0 0 11 23 112 109 132 121 108 97 123 164 128 49 45 55 80 121 192 206 167 116 115 116 108 88 75 77 78 60 52 49 49 52 53 56 72 58 48 41 73 88 62 53 50 41 61 57 60 59 53 55 57 53 53 64 86 106 112 112 113 114 119 112 84 57 49 48 72 129 132 139 155 136 58 81 101 143 97 76 3 0 0 0 0 5 13 15 0 0 0 0 0 0 0 0 0 0 0 0 0 0 0 0 0 0 0 0 0 0 0 0 0 0 0 0 0 0 
0 0 0 0 0 0 0 0 0 0 0 0 10 22 110 111 132 103 105 104 126 169 135 49 48 56 69 112 187 210 193 121 114 113 107 95 82 79 79 67 51 48 52 49 50 51 60 48 42 41 70 53 42 41 53 48 56 82 45 52 53 52 56 53 54 67 87 105 111 112 110 111 118 100 69 56 55 54 82 131 129 137 144 129 59 81 106 133 96 78 2 0 0 0 0 4 13 14 0 0 0 0 0 0 0 0 0 0 0 0 0 0 0 0 0 0 0 0 0 0 0 0 0 0 0 0 0 0 
0 0 0 0 0 0 0 0 0 0 0 0 7 19 105 110 128 96 99 107 128 171 147 54 48 53 59 100 186 205 207 143 113 115 109 92 79 78 76 73 54 48 48 47 50 48 77 71 41 50 83 46 45 47 57 51 48 78 63 48 48 46 53 51 59 70 90 106 108 108 110 112 116 84 55 54 58 68 90 130 130 131 135 111 62 83 118 133 105 80 2 0 0 0 0 4 13 13 0 0 0 0 0 0 0 0 0 0 0 0 0 0 0 0 0 0 0 0 0 0 0 0 0 0 0 0 0 0 
0 0 0 0 0 0 0 0 0 0 0 0 4 17 102 113 129 97 88 107 125 165 161 66 48 47 53 96 190 195 197 168 111 109 107 100 81 70 70 70 55 52 46 50 51 45 47 47 47 71 76 46 45 52 62 54 49 57 84 53 50 47 51 55 60 70 94 107 106 106 111 117 109 75 47 45 55 89 117 136 136 138 141 88 67 88 144 135 107 76 1 0 0 0 0 4 12 13 0 0 0 0 0 0 0 0 0 0 0 0 0 0 0 0 0 0 0 0 0 0 0 0 0 0 0 0 0 0 
0 0 0 0 0 0 0 0 0 0 0 0 0 17 103 119 135 114 77 105 124 159 170 100 49 46 53 99 193 175 180 164 107 100 100 94 77 68 70 68 58 48 50 54 47 49 47 57 71 90 55 46 47 55 63 64 51 48 79 65 62 49 47 51 56 73 95 101 104 106 114 119 97 61 45 44 65 130 157 142 135 143 141 65 69 93 165 131 116 70 1 0 0 0 0 4 13 12 0 0 0 0 0 0 0 0 0 0 0 0 0 0 0 0 0 0 0 0 0 0 0 0 0 0 0 0 0 0 
0 0 0 0 0 0 0 0 0 17 14 0 0 15 103 124 136 135 73 97 120 150 173 127 48 43 53 105 188 153 164 157 106 100 93 90 81 70 72 72 70 51 47 42 47 67 82 58 68 71 47 46 52 65 66 65 54 58 72 109 106 71 55 51 59 83 102 104 103 106 110 111 87 55 44 45 102 174 210 172 141 156 122 48 72 97 167 121 124 63 0 0 0 0 0 4 12 14 0 0 0 0 0 0 0 0 0 0 0 0 0 0 0 0 0 0 0 0 0 0 0 0 0 0 0 0 0 0 
0 0 0 0 0 0 0 0 0 0 7 3 0 13 92 130 130 137 73 81 119 143 173 145 64 43 47 111 181 143 141 157 104 100 96 82 71 69 69 68 64 58 45 53 67 61 78 90 108 73 53 44 52 66 52 76 79 56 49 105 98 104 75 71 77 88 97 107 104 106 106 106 79 50 43 70 146 141 195 200 165 172 88 44 74 101 161 105 128 57 1 0 0 0 0 4 12 14 0 0 0 0 0 0 0 0 0 0 0 0 0 0 0 0 0 0 0 0 0 0 0 0 0 0 0 0 0 0 
0 0 0 0 0 0 0 0 0 0 0 8 0 11 83 133 120 127 81 63 118 136 165 152 87 41 46 112 174 156 148 155 108 95 97 75 66 62 62 60 63 58 57 72 53 49 48 67 95 37 38 44 51 76 50 52 78 54 47 68 95 54 100 98 87 95 102 108 104 102 106 106 75 53 55 115 121 121 181 228 186 149 56 42 80 122 143 95 131 49 0 0 0 0 0 4 12 14 0 0 0 0 0 0 0 0 0 0 0 0 0 0 0 0 0 0 0 0 0 0 0 0 0 0 0 0 0 0 
0 0 0 0 0 0 0 0 0 0 0 15 1 12 72 138 112 114 89 50 97 126 151 165 112 47 44 112 171 176 161 144 124 98 96 83 64 58 55 57 75 66 59 68 54 45 50 83 81 51 40 57 51 69 45 49 70 52 53 72 94 65 52 67 108 156 150 155 148 139 141 125 90 87 106 123 131 159 200 230 177 109 38 42 91 151 135 100 133 34 0 0 1 18 9 3 12 13 0 0 0 0 0 0 0 0 0 0 0 0 0 0 0 0 0 0 0 0 0 0 0 0 0 0 0 0 0 0 
0 0 0 0 0 0 0 0 0 0 0 16 1 9 56 145 105 115 110 60 81 122 140 176 133 69 47 124 161 163 142 116 103 106 103 87 71 64 78 80 55 50 55 68 73 59 50 108 100 34 57 69 52 65 50 35 48 49 51 106 108 50 77 60 89 108 109 110 127 149 162 142 93 52 69 119 152 169 197 229 172 63 39 59 105 151 111 106 140 22 0 0 7 0 0 3 13 13 0 0 0 0 0 0 0 0 0 0 0 0 0 0 0 0 0 0 0 0 0 0 0 0 0 0 0 0 0 0 
0 0 0 0 0 0 0 0 0 0 0 19 2 8 38 142 105 118 116 85 63 112 139 163 159 110 80 137 142 146 129 105 116 124 118 116 102 68 59 62 53 48 48 55 76 76 71 98 90 49 74 68 57 75 62 35 42 47 61 118 91 53 65 85 101 102 95 93 99 125 131 101 80 45 81 131 173 181 197 226 147 39 44 97 158 124 56 105 134 12 0 0 7 0 0 4 13 14 0 0 0 0 0 0 0 0 0 0 0 0 0 0 0 0 0 0 0 0 0 0 0 0 0 0 0 0 0 0 
0 0 0 0 0 0 0 0 0 0 0 18 4 9 23 128 105 118 125 98 52 76 130 147 170 129 121 165 135 138 129 123 123 137 120 119 114 98 88 81 52 47 47 55 83 73 76 91 81 63 61 64 64 77 63 34 45 46 66 101 113 115 85 93 126 136 121 114 121 136 113 107 98 109 114 148 200 202 204 213 146 43 71 135 184 80 17 102 109 4 0 0 6 0 0 4 13 14 0 0 0 0 0 0 0 0 0 0 0 0 0 0 0 0 0 0 0 0 0 0 0 0 0 0 0 0 0 0 
0 0 0 0 0 0 0 0 0 0 0 17 5 12 16 99 107 117 144 113 57 63 107 136 178 154 134 176 141 114 119 143 148 155 155 141 135 126 114 80 46 52 80 100 74 64 80 92 100 70 72 77 54 74 60 36 64 74 58 65 101 112 133 139 139 147 171 177 179 166 125 127 126 98 88 177 217 219 196 195 207 130 127 198 174 99 89 125 62 4 0 0 6 0 0 4 13 13 0 0 0 0 0 0 0 0 0 0 0 0 0 0 0 0 0 0 0 0 0 0 0 0 0 0 0 0 0 0 
0 0 0 0 0 0 0 0 0 0 1 19 5 12 15 62 102 108 157 138 78 77 97 132 192 170 147 153 129 117 114 154 170 172 176 158 149 138 117 63 71 117 123 90 65 68 77 81 75 65 95 92 74 92 77 59 66 84 74 64 80 86 106 131 147 146 168 174 177 161 121 110 122 88 104 188 211 221 188 186 201 184 191 183 145 32 70 109 21 4 0 0 5 0 0 4 12 11 0 0 0 0 0 0 0 0 0 0 0 0 0 0 0 0 0 0 0 0 0 0 0 0 0 0 0 0 0 0 
0 0 0 0 0 0 0 0 0 0 0 17 5 6 18 17 78 90 116 175 133 104 140 170 191 192 183 179 130 136 130 147 178 172 181 177 154 140 143 130 99 97 109 94 65 64 78 74 86 72 90 94 91 105 116 83 77 83 65 68 62 74 87 120 127 141 142 173 169 145 110 91 108 94 118 192 217 225 208 179 198 180 164 182 145 50 66 109 26 8 1 0 2 5 0 3 12 9 0 0 0 0 0 0 0 0 0 0 0 0 0 0 0 0 0 0 0 0 0 0 0 0 0 0 0 0 0 0 
0 0 0 0 0 0 0 0 0 0 0 17 2 5 17 13 52 97 97 160 169 132 120 98 94 129 154 198 150 166 134 140 168 147 157 170 163 168 170 147 114 91 80 93 83 71 77 67 102 120 112 108 106 132 139 137 88 52 50 74 79 113 103 111 118 127 140 144 131 90 61 47 48 95 182 198 199 183 158 157 166 126 138 143 85 123 98 91 12 6 1 0 1 5 0 2 12 8 0 0 0 0 0 0 0 0 0 0 0 0 0 0 0 0 0 0 0 0 0 0 0 0 0 0 0 0 0 0 
0 0 0 0 0 0 0 0 0 0 0 15 1 2 11 12 27 102 93 152 148 170 136 85 87 108 132 176 178 182 156 141 147 147 167 175 169 168 142 136 125 108 98 110 121 111 102 87 107 117 121 134 126 145 157 131 75 76 93 112 128 124 128 119 113 116 132 120 91 86 85 65 74 193 211 200 171 142 128 167 182 131 92 98 104 94 112 53 6 4 1 0 0 6 0 2 11 8 0 0 0 0 0 0 0 0 0 0 0 0 0 0 0 0 0 0 0 0 0 0 0 0 0 0 0 0 0 0 
0 0 0 0 0 0 0 0 0 0 1 15 1 0 4 13 15 91 91 116 141 151 154 164 118 108 128 162 187 198 145 96 116 123 135 157 172 158 131 109 97 99 105 118 124 120 109 94 123 120 96 88 79 99 101 106 93 88 102 120 144 127 129 156 149 106 75 75 59 55 71 76 105 201 195 185 151 110 147 176 153 127 117 97 51 65 109 19 6 3 0 0 0 8 0 2 11 8 0 0 0 0 0 0 0 0 0 0 0 0 0 0 0 0 0 0 0 0 0 0 0 0 0 0 0 0 0 0 
0 0 0 0 0 0 0 0 0 0 2 17 5 0 2 7 8 60 110 143 135 127 156 163 188 141 105 138 182 195 167 117 76 66 84 122 159 147 143 115 100 101 110 133 122 116 128 101 116 112 91 73 75 87 98 101 93 96 101 122 127 143 136 145 137 76 43 43 46 49 54 103 184 177 170 156 134 131 105 128 141 122 114 51 16 85 69 4 0 0 0 0 0 10 0 1 11 7 0 0 0 0 0 0 0 0 0 0 0 0 0 0 0 0 0 0 0 0 0 0 0 0 0 0 0 0 0 0 
0 0 0 0 0 0 0 0 0 0 2 19 12 0 1 5 9 28 111 134 119 157 182 173 179 147 108 102 137 158 158 134 80 57 60 49 73 120 118 109 108 116 135 133 116 115 136 122 126 117 115 110 92 104 131 116 116 119 122 141 136 147 134 109 99 72 46 46 48 73 124 176 163 166 152 139 136 149 156 139 111 84 87 21 18 107 25 1 0 0 0 0 0 9 0 1 11 7 0 0 0 0 0 0 0 0 0 0 0 0 0 0 0 0 0 0 0 0 0 0 0 0 0 0 0 0 0 0 
0 0 0 0 0 0 0 0 0 0 2 19 18 5 0 0 7 15 79 107 98 118 185 203 174 169 131 83 119 148 137 126 111 85 60 45 42 45 61 64 86 121 132 126 122 125 141 131 137 133 167 165 145 149 150 151 139 118 113 133 141 146 118 80 85 89 53 57 102 144 164 157 156 129 119 128 138 163 182 196 118 86 74 46 71 95 11 0 0 0 0 0 0 11 0 1 10 6 0 0 0 0 0 0 0 0 0 0 0 0 0 0 0 0 0 0 0 0 0 0 0 0 0 0 0 0 0 0 
0 0 0 0 0 0 0 0 0 0 6 19 20 11 0 0 7 9 41 107 95 84 132 174 203 170 157 106 111 135 139 126 136 142 120 76 47 38 42 63 63 98 93 94 102 118 137 156 159 174 179 172 176 174 154 135 127 117 111 120 143 150 130 96 96 111 120 133 153 176 162 165 149 98 69 122 151 163 184 182 124 80 103 86 117 57 8 0 0 0 0 0 0 13 1 1 10 6 0 0 0 0 0 0 0 0 0 0 0 0 0 0 0 0 0 0 0 0 0 0 0 0 0 0 0 0 0 0 
0 0 0 0 0 0 0 0 0 0 8 19 17 14 2 0 4 9 17 91 100 125 78 117 199 178 153 160 128 126 133 131 123 136 143 150 133 93 74 84 123 99 83 92 109 134 169 170 162 154 140 122 109 122 140 149 136 120 100 97 116 146 157 175 155 153 159 178 205 178 174 158 112 62 51 120 130 138 156 172 155 100 118 88 105 21 6 0 0 0 0 0 8 16 3 1 9 4 0 0 0 0 0 0 0 0 0 0 0 0 0 0 0 0 0 0 0 0 0 0 0 0 0 0 0 0 0 0 
0 0 0 0 0 0 0 0 0 0 4 19 16 5 0 0 2 14 9 52 92 131 101 86 163 180 161 171 145 119 119 138 127 121 112 122 135 151 154 154 162 168 169 178 164 157 178 155 134 131 125 106 89 120 130 143 150 148 151 141 148 167 177 177 185 205 203 201 224 175 125 84 51 39 75 119 134 133 150 167 101 96 104 87 78 8 4 0 0 0 2 10 17 19 7 0 9 4 0 0 0 0 0 0 0 0 0 0 0 0 0 0 0 0 0 0 0 0 0 0 0 0 0 0 0 0 0 0 
0 0 0 0 0 0 0 0 0 0 0 7 22 10 2 0 0 10 11 27 65 102 129 114 118 154 181 174 152 118 111 112 96 91 104 116 132 152 157 157 161 163 169 196 195 172 178 164 140 138 130 96 98 116 136 151 165 160 153 157 171 183 175 189 205 224 211 171 172 108 51 42 30 51 128 143 129 113 145 136 51 45 34 83 48 5 3 0 0 0 3 12 18 20 10 0 9 2 0 0 0 0 0 0 0 0 0 0 0 0 0 0 0 0 0 0 0 0 0 0 0 0 0 0 0 0 0 0 
0 0 0 0 0 0 0 0 0 0 0 16 20 12 7 2 0 7 15 22 37 78 111 155 93 91 169 134 167 117 122 90 96 68 60 70 85 106 140 166 171 173 167 190 218 196 186 187 183 164 118 128 136 102 123 151 161 160 159 163 178 183 176 179 191 199 176 123 144 80 40 35 43 112 142 165 151 124 166 101 66 47 39 69 19 7 3 0 0 0 0 6 16 19 15 0 9 2 0 0 0 0 0 0 0 0 0 0 0 0 0 0 0 0 0 0 0 0 0 0 0 0 0 0 0 0 0 0 
0 0 0 0 0 0 0 0 0 0 0 16 18 5 5 6 1 3 16 26 25 44 102 143 112 112 150 157 190 148 113 93 90 84 56 50 48 61 71 78 87 107 127 149 193 202 182 183 175 134 127 166 164 143 120 125 142 137 132 124 128 98 103 104 125 156 140 99 142 78 40 63 121 143 180 194 180 102 146 103 55 43 40 41 10 11 1 0 0 0 0 3 18 20 6 0 8 1 0 0 0 0 0 0 0 0 0 0 0 0 0 0 0 0 0 0 0 0 0 0 0 0 0 0 0 0 0 0 
0 0 0 0 0 0 0 0 0 0 0 5 14 6 5 5 5 5 12 19 26 26 64 156 166 140 144 202 183 162 128 108 93 105 61 47 53 60 68 59 58 70 62 64 112 145 127 107 103 68 83 102 89 116 97 66 56 56 55 65 82 70 73 87 103 122 88 81 170 136 97 134 157 153 158 184 159 88 127 48 47 67 50 21 11 8 6 1 1 6 7 5 20 10 0 0 8 1 0 0 0 0 0 0 0 0 0 0 0 0 0 0 0 0 0 0 0 0 0 0 0 0 0 0 0 0 0 0 
0 0 0 0 0 0 0 0 0 0 0 0 1 6 5 5 5 4 8 15 26 34 39 97 127 147 158 184 155 117 122 142 119 128 132 93 84 71 50 52 92 187 172 153 123 157 158 132 93 95 106 93 126 162 160 127 111 106 140 177 186 145 126 106 123 138 97 122 188 0 194 140 131 135 131 125 106 82 137 27 40 27 25 17 13 0 0 3 5 7 5 1 12 2 0 0 7 0 0 0 0 0 0 0 0 0 0 0 0 0 0 0 0 0 0 0 0 0 0 0 0 0 0 0 0 0 0 0 
0 0 0 0 0 0 0 0 0 0 0 0 0 3 6 5 3 2 5 17 25 43 49 43 83 89 117 139 141 122 100 130 117 128 142 139 156 154 145 130 166 169 150 179 151 187 219 216 178 156 148 154 176 184 190 195 206 202 182 180 164 134 152 172 198 2 187 171 152 172 190 164 127 111 118 134 133 136 141 46 17 7 6 16 36 1 0 0 1 7 4 7 14 0 0 0 5 0 0 0 0 0 0 0 0 0 0 0 0 0 0 0 0 0 0 0 0 0 0 0 0 0 0 0 0 0 0 0 
0 0 0 0 0 0 0 0 0 0 0 0 0 0 4 4 2 0 0 11 15 32 40 25 49 73 78 69 81 66 71 133 141 131 146 149 148 133 141 173 191 197 153 136 187 140 170 164 121 68 72 110 164 182 191 169 127 97 114 146 174 166 165 155 153 218 238 116 110 115 107 102 80 42 45 78 99 133 119 34 32 24 12 17 34 0 0 0 2 5 5 9 1 0 0 0 6 0 0 0 0 0 0 0 0 0 0 0 0 0 0 0 0 0 0 0 0 0 0 0 0 0 0 0 0 0 0 0 
0 0 0 0 0 0 0 0 0 0 0 0 0 0 1 7 6 5 1 3 10 13 16 27 26 33 27 31 50 37 35 79 74 46 51 81 78 47 56 57 99 154 172 174 164 161 156 99 74 73 81 93 130 170 164 117 77 71 72 70 99 123 90 56 48 111 83 47 40 49 54 42 38 50 79 97 96 124 100 32 32 26 7 0 1 1 4 5 5 4 2 0 0 0 0 0 6 0 0 0 0 0 0 0 0 0 0 0 0 0 0 0 0 0 0 0 0 0 0 0 0 0 0 0 0 0 0 0 
0 0 0 0 0 0 0 0 0 0 0 0 0 0 0 0 4 5 3 0 6 11 11 16 21 21 24 25 35 26 32 75 54 26 31 51 100 75 65 54 80 72 55 60 89 112 79 48 48 52 61 87 116 129 106 66 40 37 44 47 70 83 53 60 72 86 74 105 79 63 64 65 75 67 76 96 90 112 90 34 36 22 9 1 0 2 4 1 0 0 0 0 0 0 0 0 6 0 0 0 0 0 0 0 0 0 0 0 0 0 0 0 0 0 0 0 0 0 0 0 0 0 0 0 0 0 0 0 
0 0 0 0 0 0 0 0 0 0 0 0 0 0 0 0 0 0 0 0 3 7 9 16 20 23 30 36 35 35 30 70 60 28 35 57 112 128 126 132 140 114 67 62 77 98 70 49 63 77 107 131 131 131 142 118 87 73 86 87 103 107 71 81 182 225 143 142 202 77 58 30 22 23 57 87 94 125 81 33 31 20 15 7 1 0 0 0 0 0 0 0 0 0 0 0 6 3 0 0 0 0 0 0 0 0 0 0 0 0 0 0 0 0 0 0 0 0 0 0 0 0 0 0 0 0 0 0 
0 0 0 0 0 0 0 0 0 0 0 0 0 0 0 0 0 0 0 0 0 0 2 10 12 19 29 42 52 76 79 105 114 86 69 84 112 132 133 169 190 149 94 98 141 151 149 126 145 155 205 215 197 189 184 173 136 95 60 69 92 103 93 154 148 193 111 211 85 167 29 17 14 18 19 52 75 113 45 13 10 5 9 17 4 0 0 0 0 0 0 0 0 0 0 0 5 4 0 0 0 0 0 0 0 0 0 0 0 0 0 0 0 0 0 0 0 0 0 0 0 0 0 0 0 0 0 0 
0 0 0 0 0 0 0 0 0 0 0 0 0 0 0 0 0 0 0 0 0 4 0 3 3 10 21 27 32 59 66 86 106 98 119 149 148 161 190 187 116 79 114 168 236 225 176 132 105 168 222 233 215 178 151 126 81 72 69 88 87 136 158 159 200 92 96 102 141 94 41 17 36 49 70 101 114 131 55 9 0 0 0 0 0 0 0 0 0 0 0 0 0 0 0 0 3 9 0 0 0 0 0 0 0 0 0 0 0 0 0 0 0 0 0 0 0 0 0 0 0 0 0 0 0 0 0 0 
0 0 0 0 0 0 0 0 0 0 0 0 0 0 0 0 0 0 0 0 0 0 2 0 5 5 15 57 59 72 76 82 101 76 51 41 62 88 127 134 34 34 51 85 138 158 128 153 180 192 186 183 176 152 122 77 51 48 41 46 90 125 131 190 191 76 105 216 109 161 97 32 41 38 34 84 47 54 30 12 0 5 8 0 0 0 0 0 0 0 0 0 0 0 4 6 19 34 0 0 0 0 0 0 0 0 0 0 0 0 0 0 0 0 0 0 0 0 0 0 0 0 0 0 0 0 0 0 
0 0 0 0 0 0 0 0 0 0 0 0 0 0 0 0 0 0 0 0 0 0 4 2 11 12 10 22 27 31 29 35 76 41 39 42 62 88 67 37 35 30 52 99 119 95 91 139 163 126 82 67 66 66 67 57 56 83 49 44 74 115 135 126 204 220 216 63 182 200 150 74 43 38 43 112 63 69 44 16 9 4 7 0 0 0 0 0 0 0 0 0 0 0 0 0 9 4 0 0 0 0 0 0 0 0 0 0 0 0 0 0 0 0 0 0 0 0 0 0 0 0 0 0 0 0 0 0 
0 0 0 0 0 0 0 0 0 0 0 0 0 0 0 0 0 0 0 0 0 0 0 4 8 13 9 17 24 29 25 32 78 46 38 36 56 78 63 38 37 68 102 111 105 73 98 147 154 108 106 91 70 63 64 53 79 107 95 93 103 99 113 126 118 132 169 187 152 111 101 58 41 31 36 102 66 75 43 14 13 11 1 0 0 0 0 0 0 0 0 0 0 0 0 0 7 0 0 0 0 0 0 0 0 0 0 0 0 0 0 0 0 0 0 0 0 0 0 0 0 0 0 0 0 0 0 0 
0 0 0 0 0 0 0 0 0 0 0 0 0 0 0 0 0 0 0 0 0 0 0 0 7 10 8 16 23 26 26 34 75 41 37 42 62 62 48 43 42 88 72 72 101 91 82 126 135 97 112 113 104 93 83 82 109 102 121 116 115 115 121 105 91 94 124 139 91 62 82 77 50 35 40 103 78 84 37 13 14 9 0 0 0 0 0 0 0 0 0 0 0 0 0 0 6 0 0 0 0 0 0 0 0 0 0 0 0 0 0 0 0 0 0 0 0 0 0 0 0 0 0 0 0 0 0 0 
0 0 0 0 0 0 0 0 0 0 0 0 0 0 0 0 0 0 0 0 0 0 0 0 4 9 8 11 18 23 26 36 71 37 37 49 63 38 38 60 96 100 78 67 85 116 84 111 122 97 114 113 109 104 104 111 106 107 108 113 113 132 116 72 87 72 91 121 139 98 48 75 66 33 37 97 82 75 24 11 13 8 0 0 0 0 0 0 0 0 0 0 0 0 0 0 5 0 0 0 0 0 0 0 0 0 0 0 0 0 0 0 0 0 0 0 0 0 0 0 0 0 0 0 0 0 0 0 
0 0 0 0 0 0 0 0 0 0 0 0 0 0 0 0 0 0 0 0 0 0 0 0 0 7 10 9 12 21 28 34 74 49 39 62 56 35 55 117 112 79 75 69 94 132 96 105 106 99 119 106 100 106 118 102 106 110 105 109 113 119 83 56 107 93 62 73 103 145 81 57 76 33 31 89 61 32 11 10 12 6 0 0 0 0 0 0 0 0 0 0 0 0 0 0 5 0 0 0 0 0 0 0 0 0 0 0 0 0 0 0 0 0 0 0 0 0 0 0 0 0 0 0 0 0 0 0 
0 0 0 0 0 0 0 0 0 0 0 0 0 0 0 0 0 0 0 0 0 0 0 0 0 1 10 4 6 17 28 32 75 56 57 82 51 38 90 123 82 62 67 63 95 136 90 77 65 88 113 93 96 119 107 84 97 110 114 100 111 77 66 51 117 99 64 64 69 119 136 63 81 56 38 90 51 22 12 12 9 4 0 0 0 0 0 0 0 0 0 0 0 0 0 0 5 0 0 0 0 0 0 0 0 0 0 0 0 0 0 0 0 0 0 0 0 0 0 0 0 0 0 0 0 0 0 0 
0 0 0 0 0 0 0 0 0 0 0 0 0 0 0 0 0 0 0 0 0 0 0 0 0 0 4 9 5 19 27 35 65 77 82 81 37 55 113 87 60 52 63 64 83 127 74 45 46 67 83 79 87 116 102 81 66 88 86 92 83 52 59 53 108 108 62 71 67 77 141 99 75 87 70 86 32 21 17 18 13 5 0 0 0 0 0 0 0 0 0 0 0 0 0 0 4 0 0 0 0 0 0 0 0 0 0 0 0 0 0 0 0 0 0 0 0 0 0 0 0 0 0 0 0 0 0 0 
0 0 0 0 0 0 0 0 0 0 0 0 0 0 0 0 0 0 0 0 0 0 0 0 0 0 2 5 9 18 22 35 41 70 78 51 29 67 130 72 51 53 56 69 97 121 59 39 41 54 66 74 68 56 56 48 47 60 78 80 54 38 50 59 96 119 85 78 67 52 125 130 60 82 92 49 24 21 18 20 16 5 0 0 0 0 0 0 0 0 0 0 0 0 0 0 3 0 0 0 0 0 0 0 0 0 0 0 0 0 0 0 0 0 0 0 0 0 0 0 0 0 0 0 0 0 0 0 
0 0 0 0 0 0 0 0 0 0 0 0 0 0 0 0 0 0 0 0 0 0 0 0 0 0 1 6 9 17 21 28 32 25 17 17 28 69 148 108 50 46 50 60 101 87 49 41 37 52 72 77 66 53 45 44 46 59 79 83 60 40 60 58 64 101 88 58 50 49 141 154 55 31 28 24 19 19 18 19 14 6 0 0 0 0 0 0 0 0 0 0 0 0 0 0 3 0 0 0 0 0 0 0 0 0 0 0 0 0 0 0 0 0 0 0 0 0 0 0 0 0 0 0 0 0 0 0 
0 0 0 0 0 0 0 0 0 0 0 0 0 0 0 0 0 0 0 0 0 0 0 0 0 0 0 4 8 10 22 19 26 30 21 14 24 52 139 131 54 42 36 62 74 49 44 43 44 64 73 76 66 63 44 40 48 56 83 89 67 49 72 60 51 71 91 73 49 52 145 156 48 27 27 26 17 20 17 15 13 7 1 0 0 0 0 0 0 0 0 0 0 0 0 0 3 0 0 0 0 0 0 0 0 0 0 0 0 0 0 0 0 0 0 0 0 0 0 0 0 0 0 0 0 0 0 0 
0 0 0 0 0 0 0 0 0 0 0 0 0 0 0 0 0 0 0 0 0 0 0 0 0 0 0 0 10 10 12 20 15 30 23 11 16 30 109 155 86 41 49 93 78 42 45 52 62 81 84 74 70 59 40 47 59 65 88 89 68 57 69 48 38 60 95 99 62 84 159 138 37 26 24 22 14 18 15 10 10 7 2 0 0 0 0 0 0 0 0 0 0 0 0 0 3 0 0 0 0 0 0 0 0 0 0 0 0 0 0 0 0 0 0 0 0 0 0 0 0 0 0 0 0 0 0 0 
0 0 0 0 0 0 0 0 0 0 0 0 0 0 0 0 0 0 0 0 0 0 0 0 0 0 0 0 5 13 6 18 14 22 19 14 13 14 50 155 132 96 117 117 75 51 52 49 47 67 94 82 78 64 53 62 88 89 101 102 69 60 76 56 47 55 83 124 130 140 180 98 26 26 26 21 11 17 10 11 9 7 1 0 0 0 0 0 0 0 0 0 0 0 0 0 2 0 0 0 0 0 0 0 0 0 0 0 0 0 0 0 0 0 0 0 0 0 0 0 0 0 0 0 0 0 0 0 
0 0 0 0 0 0 0 0 0 0 0 0 0 0 0 0 0 0 0 0 0 0 0 0 0 0 0 0 0 12 6 18 15 17 20 22 19 15 19 82 169 170 168 126 60 52 49 47 46 83 111 99 83 78 78 77 102 98 106 113 98 77 84 57 46 40 68 129 175 183 133 42 25 27 29 19 11 13 8 9 8 7 1 0 0 0 0 0 0 0 0 0 0 0 0 0 2 0 0 0 0 0 0 0 0 0 0 0 0 0 0 0 0 0 0 0 0 0 0 0 0 0 0 0 0 0 0 0 
0 0 0 0 0 0 0 0 0 0 0 0 0 0 0 0 0 0 0 0 0 0 0 0 0 0 0 0 0 3 10 15 11 15 18 23 18 17 24 25 69 144 164 111 58 51 40 44 48 86 117 105 84 70 73 73 68 89 101 99 106 99 85 62 50 37 46 113 155 102 30 30 27 29 21 13 14 11 10 8 9 6 1 0 0 0 0 0 0 0 0 0 0 0 0 0 2 0 0 0 0 0 0 0 0 0 0 0 0 0 0 0 0 0 0 0 0 0 0 0 0 0 0 0 0 0 0 0 
0 0 0 0 0 0 0 0 0 0 0 0 0 0 0 0 0 0 0 0 0 0 0 0 0 0 0 0 0 3 7 14 9 13 15 20 21 16 22 27 30 34 43 43 38 36 37 37 45 80 114 107 85 66 67 76 65 90 111 82 98 106 88 62 51 38 34 36 40 36 26 33 27 27 17 13 13 12 8 8 8 4 1 0 0 0 0 0 0 0 0 0 0 0 0 0 2 0 0 0 0 0 0 0 0 0 0 0 0 0 0 0 0 0 0 0 0 0 0 0 0 0 0 0 0 0 0 0 
0 0 0 0 0 0 0 0 0 0 0 0 0 0 0 0 0 0 0 0 0 0 0 0 0 0 0 0 0 3 2 13 13 10 15 18 19 18 21 25 31 35 31 30 33 39 37 35 43 67 113 113 100 93 106 119 109 114 144 102 106 103 74 68 66 54 38 43 40 32 20 33 30 26 21 17 14 10 9 8 8 4 1 0 0 0 0 0 0 0 0 0 0 0 0 0 2 0 0 0 0 0 0 0 0 0 0 0 0 0 0 0 0 0 0 0 0 0 0 0 0 0 0 0 0 0 0 0 
