P2
128 99
255
0 0 0 0 0 0 0 0 0 0 0 0 0 0 0 0 0 0 0 0 0 0 0 0 0 0 0 0 0 0 0 2 4 6 3 0 0 0 0 0 0 0 0 0 0 0 0 0 0 0 0 0 0 0 0 0 0 0 0 0 0 0 0 0 0 0 0 0 0 0 0 0 0 0 0 0 0 0 0 0 0 0 0 0 0 0 0 0 0 0 0 0 3 5 5 10 12 0 0 0 0 0 0 0 0 0 0 0 0 0 0 0 0 0 0 0 0 0 0 0 0 0 0 0 0 0 0 0 
0 0 0 0 0 0 0 0 0 0 0 0 0 0 0 0 0 0 0 0 0 0 0 0 0 0 0 0 0 0 0 2 4 5 3 0 0 0 0 0 0 0 0 0 0 0 0 0 0 0 0 0 0 0 0 0 0 0 0 0 0 0 0 0 0 0 0 0 0 0 0 0 0 0 0 0 0 0 0 0 0 0 0 0 0 0 0 0 0 0 0 0 3 5 5 10 11 0 0 0 0 0 0 0 0 0 0 0 0 0 0 0 0 0 0 0 0 0 0 0 0 0 0 0 0 0 0 0 
0 0 0 0 0 0 0 0 0 0 0 0 0 0 0 0 0 0 0 0 0 0 0 0 0 0 0 0 0 0 0 2 3 5 3 0 0 0 0 0 0 0 0 0 0 0 0 0 0 0 0 2 3 1 1 0 0 0 0 0 0 0 0 0 0 0 0 0 0 0 0 0 0 0 0 0 0 0 0 0 0 0 0 0 0 0 0 0 0 0 0 0 2 4 5 10 12 0 0 0 0 0 0 0 0 0 0 0 0 0 0 0 0 0 0 0 0 0 0 0 0 0 0 0 0 0 0 0 
0 0 0 0 0 0 0 0 0 0 0 0 0 0 0 0 0 0 0 0 0 0 0 0 0 0 0 0 0 0 0 1 3 4 2 0 0 0 0 0 0 0 0 0 5 8 7 14 25 32 36 38 41 36 30 20 18 19 18 10 3 0 0 0 0 0 0 0 0 0 0 0 0 0 0 0 0 0 0 0 0 0 0 0 0 0 0 0 0 0 0 0 2 5 5 10 11 0 0 0 0 0 0 0 0 0 0 0 0 0 0 0 0 0 0 0 0 0 0 0 0 0 0 0 0 0 0 0 
0 0 0 0 0 0 0 0 0 0 0 0 0 0 0 0 0 0 0 0 0 0 0 0 0 0 0 0 0 0 0 1 2 3 1 0 0 0 0 0 7 10 9 23 35 39 47 61 81 106 128 145 155 161 159 149 131 107 82 53 25 23 18 4 0 0 0 0 0 0 0 0 0 0 0 0 0 0 0 0 0 0 0 0 0 0 0 0 0 0 0 0 2 5 5 9 11 0 0 0 0 0 0 0 0 0 0 0 0 0 0 0 0 0 0 0 0 0 0 0 0 0 0 0 0 0 0 0 
0 0 0 0 0 0 0 0 0 0 0 0 0 0 0 0 0 0 0 0 0 0 0 0 0 0 0 0 0 0 0 0 2 2 0 0 0 2 11 10 20 36 41 56 87 127 158 187 208 206 191 173 163 162 161 161 166 176 192 202 176 126 75 30 21 18 5 0 0 0 0 0 0 0 0 0 0 0 0 0 0 0 0 0 0 0 0 0 0 0 0 0 2 4 5 10 11 0 0 0 0 0 0 0 0 0 0 0 0 0 0 0 0 0 0 0 0 0 0 0 0 0 0 0 0 0 0 0 
0 0 0 0 0 0 0 0 0 0 0 0 0 0 0 0 0 0 0 0 0 0 0 0 0 0 0 0 0 0 0 0 1 1 0 2 11 15 23 36 48 84 122 156 200 212 181 149 133 125 128 133 135 134 136 134 130 126 127 136 145 169 203 187 127 65 31 18 7 0 0 0 0 0 0 0 0 0 0 0 0 0 0 0 0 0 0 0 0 0 0 0 2 5 5 10 12 0 0 0 0 0 0 0 0 0 0 0 0 0 0 0 0 0 0 0 0 0 0 0 0 0 0 0 0 0 0 0 
0 0 0 0 0 0 0 0 0 0 0 0 0 0 0 0 0 0 0 0 0 0 0 0 0 0 0 0 0 0 0 0 1 1 9 21 25 34 55 102 137 181 212 184 146 128 132 137 130 132 142 152 156 149 145 151 155 151 149 138 130 127 131 146 176 206 166 92 38 24 9 0 0 0 0 0 0 0 0 0 0 0 0 0 0 0 0 0 0 0 0 0 3 5 6 10 12 0 0 0 0 0 0 0 0 0 0 0 0 0 0 0 0 0 0 0 0 0 0 0 0 0 0 0 0 0 0 0 
0 0 0 0 0 0 0 0 0 0 0 0 0 0 0 0 0 0 0 0 0 0 0 0 0 0 0 0 0 0 0 0 5 23 23 30 53 106 142 184 206 167 131 129 142 143 144 149 148 147 148 146 146 141 140 144 159 176 175 171 162 151 141 130 123 132 161 204 178 93 34 20 5 0 0 0 0 0 0 0 0 0 0 0 0 0 0 0 0 0 0 0 4 5 6 11 12 0 0 0 0 0 0 0 0 0 0 0 0 0 0 0 0 0 0 0 0 0 0 0 0 0 0 0 0 0 0 0 
0 0 0 0 0 0 0 0 0 0 0 0 0 0 0 0 0 0 0 0 0 0 0 0 0 0 0 0 0 0 0 23 21 25 41 94 140 179 197 162 130 133 149 158 150 157 160 139 130 135 139 142 144 136 132 128 128 135 156 171 182 183 178 162 141 130 121 128 159 202 161 66 31 13 0 0 0 0 0 0 0 0 0 0 0 0 0 0 0 0 0 0 4 5 6 10 12 0 0 0 0 0 0 0 0 0 0 0 0 0 0 0 0 0 0 0 0 0 0 0 0 0 0 0 0 0 0 0 
0 0 0 0 0 0 0 0 0 0 0 0 0 0 0 0 0 0 0 0 0 0 0 0 0 0 0 0 0 8 22 18 31 78 130 169 203 164 129 134 154 160 155 161 155 145 128 122 126 136 136 131 125 129 133 135 134 131 130 131 147 170 178 185 183 170 150 136 126 129 172 196 114 38 21 4 0 0 0 0 0 0 0 0 0 0 0 0 0 0 0 1 4 5 6 10 12 0 0 0 0 0 0 0 0 0 0 0 0 0 0 0 0 0 0 0 0 0 0 0 0 0 0 0 0 0 0 0 
0 0 0 0 0 0 0 0 0 0 0 0 0 0 0 0 0 0 0 0 0 0 0 0 0 0 0 0 20 17 17 56 115 156 196 181 134 133 154 166 164 162 151 143 131 106 111 116 131 139 112 102 98 105 135 131 124 113 108 115 127 135 155 170 174 181 186 179 154 134 126 141 188 162 60 26 9 0 0 0 0 0 0 0 0 0 0 0 0 0 0 0 3 5 6 11 12 0 0 0 0 0 0 0 0 0 0 0 0 0 0 0 0 0 0 0 0 0 0 0 0 0 0 0 0 0 0 0 
0 0 0 0 0 0 0 0 0 0 0 0 0 0 0 0 0 0 0 0 0 0 0 0 0 0 7 22 13 25 81 133 169 201 154 135 149 169 171 159 156 143 124 105 92 92 95 95 104 90 79 89 81 62 81 101 99 102 101 98 105 123 132 144 156 167 173 184 189 178 152 130 127 171 183 78 26 10 0 0 0 0 0 0 0 0 0 0 0 0 0 0 4 6 6 11 12 0 0 0 0 0 0 0 0 0 0 0 0 0 0 0 0 0 0 0 0 0 0 0 0 0 0 0 0 0 0 0 
0 0 0 0 0 0 0 0 0 0 0 0 0 0 0 0 0 0 0 0 0 0 0 0 0 16 20 13 36 101 136 177 185 142 145 167 181 165 150 149 143 112 93 91 91 90 93 92 65 45 44 49 47 46 50 77 98 96 94 94 94 106 132 133 139 147 157 169 176 187 188 163 132 121 163 189 89 25 12 0 0 0 0 0 0 0 0 0 0 0 0 1 4 5 6 12 13 0 0 0 0 0 0 0 0 0 0 0 0 0 0 0 0 0 0 0 0 0 0 0 0 0 0 0 0 0 0 0 
0 0 0 0 0 0 0 0 0 0 0 0 0 0 0 0 0 0 0 0 0 0 0 0 18 18 10 47 114 136 184 175 143 155 183 185 157 145 148 133 104 92 92 91 87 93 76 55 50 51 52 56 57 58 57 59 71 92 97 100 102 98 109 131 136 133 138 145 154 171 178 189 173 140 126 161 189 95 25 13 0 0 0 0 0 0 0 0 0 0 0 1 4 5 6 11 13 0 0 0 0 0 0 0 0 0 0 0 0 0 0 0 0 0 0 0 0 0 0 0 0 0 0 0 0 0 0 0 
0 0 0 0 0 0 0 0 0 0 0 0 0 0 0 0 0 0 0 0 0 0 7 20 16 11 54 115 136 190 166 143 160 180 167 152 151 147 115 93 87 87 90 87 90 67 55 55 60 63 69 75 78 79 81 79 76 74 77 78 77 81 82 96 124 127 123 127 137 147 160 174 187 182 148 123 161 186 105 33 12 0 0 0 0 0 0 0 0 0 0 0 3 5 5 10 13 0 0 0 0 0 0 0 0 0 0 0 0 0 0 0 0 0 0 0 0 0 0 0 0 0 0 0 0 0 0 0 
0 0 0 0 0 0 0 0 0 0 0 0 0 0 0 0 0 0 0 0 0 8 17 12 12 69 122 130 189 160 144 162 170 154 142 141 114 90 84 90 87 85 87 90 78 88 106 119 133 144 157 168 171 173 178 179 178 174 166 155 135 108 80 64 75 104 118 121 124 129 136 144 159 181 181 145 119 157 179 111 36 11 0 0 0 0 0 0 0 0 0 0 4 5 5 11 13 0 0 0 0 0 0 0 0 0 0 0 0 0 0 0 0 0 0 0 0 0 0 0 0 0 0 0 0 0 0 0 
0 0 0 0 0 0 0 0 0 0 0 0 0 0 0 0 0 0 0 0 8 16 12 19 81 123 132 187 159 143 159 161 153 141 133 111 89 88 94 95 90 97 129 153 175 187 188 189 186 182 179 173 175 185 195 204 209 208 202 197 198 196 179 155 108 67 77 107 118 120 119 120 124 152 173 174 144 118 157 178 111 34 7 0 0 0 0 0 0 0 0 0 4 5 5 11 13 0 0 0 0 0 0 0 0 0 0 0 0 0 0 0 0 0 0 0 0 0 0 0 0 0 0 0 0 0 0 0 
0 0 0 0 0 0 0 0 0 0 0 0 0 0 0 0 0 0 0 8 13 13 19 89 124 124 189 169 140 148 153 148 131 131 120 91 77 78 64 83 139 188 212 213 210 203 198 193 184 175 180 184 188 198 205 207 202 204 202 200 197 194 185 193 190 154 94 70 99 116 118 117 117 118 145 168 175 144 121 175 169 101 27 1 0 0 0 0 0 0 0 0 3 5 5 12 13 0 0 0 0 0 0 0 0 0 0 0 0 0 0 0 0 0 0 0 0 0 0 0 0 0 0 0 0 0 0 0 
0 0 0 0 0 0 0 0 0 0 0 0 0 0 0 0 0 0 6 14 12 23 84 128 124 176 181 137 144 146 137 120 127 122 90 72 62 76 125 189 219 219 213 210 209 209 208 205 198 189 199 206 204 208 205 197 195 196 194 194 196 200 194 193 196 195 176 110 74 94 106 111 114 115 115 139 173 175 143 136 189 145 83 15 0 0 0 0 0 0 0 1 4 5 6 12 13 0 0 0 0 0 0 0 0 0 0 0 0 0 0 0 0 0 0 0 0 0 0 0 0 0 0 0 0 0 0 0 
0 0 0 0 0 0 0 0 0 0 0 0 0 0 0 0 0 2 14 9 18 70 118 124 166 199 143 138 145 132 119 124 120 93 68 72 98 145 201 217 213 207 205 203 202 202 198 199 209 217 210 203 204 203 199 193 197 192 188 193 194 197 194 197 195 194 191 175 98 56 79 99 105 110 115 117 135 178 166 130 160 184 130 57 5 0 0 0 0 0 0 1 4 6 6 13 13 0 0 0 0 0 0 0 0 0 0 0 0 0 0 0 0 0 0 0 0 0 0 0 0 0 0 0 0 0 0 0 
0 0 0 0 0 0 0 0 0 0 0 0 0 0 0 0 0 12 7 14 56 105 124 142 200 154 137 140 129 113 125 118 99 88 96 112 146 202 210 205 201 199 194 191 188 183 174 180 204 203 193 186 190 208 203 191 191 184 185 197 202 192 194 193 191 194 192 200 170 82 46 64 95 110 113 122 120 142 179 155 134 185 148 120 35 1 0 0 0 0 0 1 4 6 6 13 13 0 0 0 0 0 0 0 0 0 0 0 0 0 0 0 0 0 0 0 0 0 0 0 0 0 0 0 0 0 0 0 
0 0 0 0 0 0 0 0 0 0 0 0 0 0 0 0 7 6 10 50 93 117 133 187 178 135 128 126 112 123 119 91 88 116 119 135 192 209 198 196 196 191 189 186 186 181 180 178 170 158 160 157 162 200 201 198 190 183 185 184 185 178 171 170 173 182 193 198 206 150 65 44 57 91 107 117 120 121 152 167 142 158 176 131 101 16 0 0 0 0 0 1 4 6 6 13 14 0 0 0 0 0 0 0 0 0 0 0 0 0 0 0 0 0 0 0 0 0 0 0 0 0 0 0 0 0 0 0 
0 0 0 0 0 0 0 0 0 0 0 0 0 0 0 3 9 5 44 88 113 130 162 192 143 106 121 115 119 120 88 86 120 118 125 181 204 197 191 183 169 150 141 129 130 138 137 139 156 159 184 163 148 172 155 149 157 163 167 156 144 163 171 160 157 171 190 196 207 201 126 54 42 56 90 113 126 118 121 152 150 152 185 138 128 72 3 0 0 0 0 1 4 6 6 14 14 0 0 0 0 0 0 0 0 0 0 0 0 0 0 0 0 0 0 0 0 0 0 0 0 0 0 0 0 0 0 0 
0 0 0 0 0 0 0 0 0 0 0 0 0 0 0 13 3 30 89 100 122 146 185 170 106 105 115 113 116 99 90 119 116 116 161 199 196 195 183 158 133 135 136 139 134 139 137 136 143 147 176 171 141 136 121 111 113 127 136 141 143 140 140 149 169 181 195 198 200 209 182 99 46 44 58 94 120 120 114 134 132 146 178 158 125 109 37 0 0 0 0 1 4 6 6 13 14 0 0 0 0 0 0 0 0 0 0 0 0 0 0 0 0 0 0 0 0 0 0 0 0 0 0 0 0 0 0 0 
0 0 0 0 0 0 0 0 0 0 0 0 0 0 6 6 12 93 88 113 135 163 190 113 91 113 112 114 103 92 114 109 107 148 196 187 191 193 173 146 136 139 139 137 137 138 141 141 130 114 131 130 110 101 88 81 79 94 106 119 136 145 145 143 143 153 178 195 199 210 212 160 74 42 44 64 100 118 115 125 109 118 176 182 121 117 78 3 0 0 0 1 4 6 6 13 14 0 0 0 0 0 0 0 0 0 0 0 0 0 0 0 0 0 0 0 0 0 0 0 0 0 0 0 0 0 0 0 
0 0 0 0 0 0 0 0 0 0 0 0 0 0 10 4 71 93 91 124 151 182 141 94 94 120 108 96 94 109 110 98 133 188 206 175 183 185 163 143 139 134 131 118 120 124 127 133 112 80 86 88 83 71 63 61 60 64 66 89 113 136 147 146 140 130 136 177 192 201 217 203 134 61 41 53 80 98 115 117 102 99 149 202 135 114 100 27 0 0 0 1 4 5 6 13 14 0 0 0 0 0 0 0 0 0 0 0 0 0 0 0 0 0 0 0 0 0 0 0 0 0 0 0 0 0 0 0 
0 0 0 0 0 0 0 0 0 0 0 0 0 1 6 21 111 76 109 140 158 177 115 90 106 118 93 88 102 109 100 124 176 211 199 174 194 188 146 134 125 116 103 87 80 86 94 103 91 66 63 66 69 60 55 55 51 52 53 66 83 108 126 143 149 146 142 165 181 190 209 221 190 106 47 43 73 83 104 120 113 103 132 194 154 119 106 56 0 0 0 1 4 5 6 12 14 0 0 0 0 0 0 0 0 0 0 0 0 0 0 0 0 0 0 0 0 0 0 0 0 0 0 0 0 0 0 0 
0 0 0 0 0 0 0 0 0 0 0 0 0 5 1 69 95 92 127 148 163 152 105 86 110 98 85 102 110 103 112 163 207 203 184 194 194 153 120 104 93 75 67 58 57 57 60 75 76 61 60 59 58 58 60 55 53 51 52 53 59 71 88 109 143 149 146 158 169 179 194 217 221 167 78 44 72 81 89 110 117 97 125 186 172 122 108 67 1 0 0 0 4 6 7 13 14 0 0 0 0 0 0 0 0 0 0 0 0 0 0 0 0 0 0 0 0 0 0 0 0 0 0 0 0 0 0 0 
0 0 0 0 0 0 0 0 0 0 0 0 0 6 4 103 77 109 142 149 146 135 99 91 110 86 87 111 104 106 155 202 207 177 182 196 154 105 77 68 62 56 52 50 50 50 56 64 66 62 63 60 59 59 59 57 57 58 56 56 54 55 60 76 119 146 146 150 166 179 188 204 223 216 140 54 68 77 81 94 116 94 115 179 181 126 116 80 5 0 0 1 4 6 7 13 14 0 0 0 0 0 0 0 0 0 0 0 0 0 0 0 0 0 0 0 0 0 0 0 0 0 0 0 0 0 0 0 
0 0 0 0 0 0 0 0 0 0 0 0 0 4 24 113 81 127 148 133 129 126 96 86 96 86 102 111 108 130 196 212 194 171 188 169 114 72 57 54 49 48 50 51 51 53 57 57 60 60 60 60 59 57 56 56 57 56 55 56 57 57 53 60 86 120 145 147 170 187 195 194 203 228 199 90 59 69 73 89 120 98 112 172 185 130 122 90 14 0 0 1 4 6 7 14 14 0 0 0 0 0 0 0 0 0 0 0 0 0 0 0 0 0 0 0 0 0 0 0 0 0 0 0 0 0 0 0 
0 0 0 0 0 0 0 0 0 0 0 0 4 0 53 93 88 138 140 120 137 119 90 78 91 92 105 110 118 154 218 201 188 187 186 137 71 56 53 50 49 49 51 56 54 54 55 59 57 59 60 61 59 57 58 56 55 57 58 57 58 57 58 53 57 90 130 147 172 186 194 191 192 218 231 154 58 70 66 79 113 112 116 170 184 129 118 96 24 0 0 1 4 6 7 14 15 0 0 0 0 0 0 0 0 0 0 0 0 0 0 0 0 0 0 0 0 0 0 0 0 0 0 0 0 0 0 0 
0 0 0 0 0 0 0 0 0 0 0 0 5 3 78 80 95 142 131 115 137 125 80 71 89 90 109 124 129 155 212 188 182 190 169 115 63 51 52 50 52 55 54 56 58 56 56 54 59 58 61 59 59 55 55 55 56 57 57 58 57 55 56 59 55 64 100 142 171 177 184 184 182 196 231 200 70 61 71 79 108 121 116 159 185 133 121 102 29 0 0 1 4 6 7 14 15 0 0 0 0 0 0 0 0 0 0 0 0 0 0 0 0 0 0 0 0 0 0 0 0 0 0 0 0 0 0 0 
0 0 0 0 0 0 0 0 0 0 0 0 4 6 94 76 112 143 122 112 137 126 73 72 89 95 114 126 129 158 200 178 179 185 163 109 58 52 52 50 53 55 56 54 55 57 55 58 58 57 58 58 56 54 53 55 59 59 60 58 59 59 61 62 63 72 90 120 146 164 172 178 174 178 218 224 92 49 74 82 104 124 114 148 190 143 116 109 34 1 0 1 4 6 7 14 15 0 0 0 0 0 0 0 0 0 0 0 0 0 0 0 0 0 0 0 0 0 0 0 0 0 0 0 0 0 0 0 
0 0 0 0 0 0 0 0 0 0 0 0 3 9 98 76 121 130 116 115 142 119 77 73 95 103 127 136 126 155 196 173 181 172 135 109 61 49 48 53 55 57 56 59 57 59 57 57 57 55 58 57 56 53 54 57 59 61 60 59 60 64 65 78 109 95 92 111 132 147 162 173 170 168 195 226 122 48 64 85 103 127 116 142 191 158 118 119 42 2 0 1 4 6 7 15 15 0 0 0 0 0 0 0 0 0 0 0 0 0 0 0 0 0 0 0 0 0 0 0 0 0 0 0 0 0 0 0 
0 0 0 0 0 0 0 0 0 0 0 0 5 12 97 81 131 133 113 125 150 107 77 73 102 124 140 134 131 150 192 172 179 155 99 86 71 58 57 56 51 55 56 60 61 60 59 61 59 61 60 59 59 56 58 59 64 61 63 62 61 68 91 117 108 87 90 98 124 134 138 152 163 161 175 218 152 59 63 84 91 122 114 139 192 171 122 126 50 2 0 1 5 7 7 15 15 0 0 0 0 0 0 0 0 0 0 0 0 0 0 0 0 0 0 0 0 0 0 0 0 0 0 0 0 0 0 0 
0 0 0 0 0 0 0 0 0 0 0 0 5 16 94 90 142 140 120 138 150 90 80 81 115 145 144 131 131 147 190 172 174 121 75 71 82 91 112 125 105 84 79 88 83 65 59 59 57 59 61 60 63 62 62 63 63 63 60 57 63 93 119 102 95 89 80 77 116 135 135 132 143 163 171 204 183 76 68 84 87 123 111 133 193 177 124 128 71 5 0 1 5 6 7 14 14 0 0 0 0 0 0 0 0 0 0 0 0 0 0 0 0 0 0 0 0 0 0 0 0 0 0 0 0 0 0 0 
0 0 0 0 0 0 0 0 0 0 0 0 5 18 87 97 144 139 123 142 163 100 83 86 130 158 148 132 130 141 192 164 142 93 67 66 69 68 63 69 71 79 100 117 101 71 59 60 59 57 61 65 76 72 70 70 66 60 60 64 93 110 95 63 49 49 50 63 107 139 140 136 132 149 183 189 203 108 86 88 77 99 113 139 198 180 126 127 88 7 0 1 4 6 7 14 14 0 0 0 0 0 0 0 0 0 0 0 0 0 0 0 0 0 0 0 0 0 0 0 0 0 0 0 0 0 0 0 
0 0 0 0 0 0 0 0 0 0 0 0 6 22 85 104 147 138 125 144 168 107 80 83 132 167 158 136 128 138 187 148 122 80 53 51 49 49 50 50 48 48 49 66 98 101 66 62 58 61 69 73 98 94 85 76 66 61 65 103 102 80 50 47 50 52 55 67 103 138 140 132 123 135 178 200 204 156 101 79 65 83 109 147 198 187 130 128 96 11 0 1 5 6 7 13 14 0 0 0 0 0 0 0 0 0 0 0 0 0 0 0 0 0 0 0 0 0 0 0 0 0 0 0 0 0 0 0 
0 0 0 0 0 0 0 0 0 0 0 0 6 23 86 115 151 145 119 134 168 106 87 79 131 166 164 146 124 131 164 140 120 72 50 49 50 54 56 55 55 50 47 48 53 93 96 65 65 80 102 104 123 122 105 89 69 70 85 86 79 50 48 51 54 56 56 64 91 132 147 139 134 138 162 219 211 191 123 92 59 79 108 157 195 195 132 130 102 15 0 1 4 6 7 13 14 0 0 0 0 0 0 0 0 0 0 0 0 0 0 0 0 0 0 0 0 0 0 0 0 0 0 0 0 0 0 0 
0 0 0 0 0 0 0 0 0 0 0 0 8 21 86 120 146 134 104 127 170 116 95 71 130 173 166 154 143 138 160 155 117 63 50 51 49 50 57 57 56 53 47 48 46 53 94 81 72 70 66 111 148 144 144 124 89 75 51 71 53 48 47 50 54 56 57 65 83 124 148 146 143 149 162 198 227 202 174 114 61 77 97 159 186 197 136 133 112 21 0 1 4 7 7 14 14 0 0 0 0 0 0 0 0 0 0 0 0 0 0 0 0 0 0 0 0 0 0 0 0 0 0 0 0 0 0 0 
0 0 0 0 0 0 0 0 0 0 0 0 11 18 87 124 146 123 81 124 166 123 97 66 124 175 173 153 150 152 182 177 107 61 50 48 49 51 52 54 48 47 48 46 46 43 67 49 49 47 55 103 147 124 154 104 60 47 47 65 51 46 47 50 55 55 56 59 77 119 145 145 145 143 146 179 219 198 194 132 63 76 86 147 174 200 144 136 118 29 1 2 4 6 7 14 14 0 0 0 0 0 0 0 0 0 0 0 0 0 0 0 0 0 0 0 0 0 0 0 0 0 0 0 0 0 0 0 
0 0 0 0 0 0 0 0 0 0 0 0 12 17 89 125 146 125 82 126 168 138 84 60 117 178 177 165 160 157 199 166 95 61 48 48 50 56 56 55 53 49 50 48 48 48 56 58 48 50 60 115 113 92 129 110 62 48 58 60 49 48 46 52 55 53 53 58 79 120 146 146 142 145 147 169 210 200 188 160 68 78 81 108 154 191 155 136 121 35 1 1 5 7 8 14 14 0 0 0 0 0 0 0 0 0 0 0 0 0 0 0 0 0 0 0 0 0 0 0 0 0 0 0 0 0 0 0 
0 0 0 0 0 0 0 0 0 0 0 0 10 16 87 125 144 129 83 132 163 133 58 54 111 176 178 170 159 147 201 160 94 59 46 51 57 58 55 53 54 58 49 48 48 49 54 60 48 49 69 114 104 85 84 97 67 49 65 49 50 46 50 57 56 55 53 57 75 120 144 146 144 148 152 167 206 206 193 178 84 78 85 92 142 177 144 133 123 42 1 1 5 7 8 15 14 0 0 0 0 0 0 0 0 0 0 0 0 0 0 0 0 0 0 0 0 0 0 0 0 0 0 0 0 0 0 0 
0 0 0 0 0 0 0 0 0 0 0 0 10 15 82 127 141 129 88 142 149 95 41 51 108 172 174 177 161 144 196 158 83 56 48 55 57 54 52 56 55 58 56 47 46 50 49 53 48 46 70 103 62 73 61 73 85 53 50 46 56 57 76 82 57 53 53 56 70 116 145 145 144 143 152 171 205 196 183 183 95 81 82 90 113 164 143 132 123 44 2 1 5 7 8 15 15 0 0 0 0 0 0 0 0 0 0 0 0 0 0 0 0 0 0 0 0 0 0 0 0 0 0 0 0 0 0 0 
0 0 0 0 0 0 0 0 0 0 0 0 11 13 75 128 141 133 100 154 141 56 38 50 104 167 192 220 183 152 187 163 73 57 48 51 57 53 52 54 54 56 57 52 45 53 49 47 45 51 84 80 44 49 50 54 95 70 51 56 73 71 75 60 53 53 55 57 69 112 145 146 141 144 154 181 202 192 183 188 104 83 86 92 116 162 136 116 121 43 1 1 5 7 7 14 14 0 0 0 0 0 0 0 0 0 0 0 0 0 0 0 0 0 0 0 0 0 0 0 0 0 0 0 0 0 0 0 
0 0 0 0 0 0 0 0 0 0 0 0 8 11 68 126 137 136 108 153 102 45 40 48 92 165 217 228 193 165 178 176 81 57 49 55 57 52 54 54 53 63 80 77 64 67 55 49 44 64 91 68 61 58 59 58 94 106 74 68 67 57 52 54 53 53 55 54 69 111 142 143 145 143 154 193 198 183 175 184 114 86 83 92 107 149 140 121 123 38 1 1 5 6 7 13 13 0 0 0 0 0 0 0 0 0 0 0 0 0 1 0 0 0 0 0 0 0 0 0 0 0 0 0 0 0 0 0 
0 0 0 0 0 0 0 0 0 0 0 0 7 11 62 124 134 137 118 143 90 47 37 49 79 159 227 221 199 179 184 193 98 58 50 53 55 53 54 56 54 60 68 57 56 69 63 63 67 96 93 45 45 41 42 40 52 105 70 55 59 54 50 67 71 64 56 53 67 113 145 146 146 148 162 203 205 177 152 182 123 90 84 97 99 149 144 128 115 30 2 1 4 7 7 13 14 0 0 0 0 0 0 0 0 0 0 0 0 0 1 0 0 0 0 0 0 0 0 0 0 0 0 0 0 0 0 0 
0 0 0 0 0 0 0 0 0 0 0 0 8 10 52 126 133 135 125 147 97 54 39 50 64 139 229 229 197 184 196 196 114 53 54 49 52 55 53 54 59 60 56 53 50 57 56 60 80 94 66 45 45 47 49 45 42 86 90 57 52 50 46 76 75 60 53 55 66 113 144 149 147 152 167 190 166 132 108 176 138 89 84 99 93 151 141 127 102 22 1 1 4 6 7 13 14 0 0 0 0 0 0 0 0 0 0 0 0 0 0 0 0 0 0 0 0 0 0 0 0 0 0 0 0 0 0 0 
0 0 0 0 0 0 0 0 0 0 0 0 5 10 41 124 133 129 126 148 97 61 42 45 57 113 222 236 195 179 193 190 117 52 49 49 50 52 56 55 59 65 57 52 51 56 65 48 81 90 58 54 53 60 64 57 50 53 97 78 55 48 48 80 73 62 54 57 67 105 140 145 149 161 172 180 135 115 100 163 149 90 88 101 89 152 125 121 89 16 1 0 4 6 7 13 13 0 0 0 0 0 0 0 0 0 0 0 0 0 0 0 0 0 0 0 0 0 0 0 0 0 0 0 0 0 0 0 
0 0 0 0 0 0 0 0 0 0 0 0 2 11 32 115 130 120 124 150 101 68 41 41 48 86 211 242 194 164 180 190 127 56 46 48 47 50 51 52 54 63 55 47 48 55 56 70 101 86 73 66 58 62 73 60 54 48 74 103 87 54 58 77 67 55 53 53 63 99 137 150 155 169 169 165 149 153 136 158 161 94 90 96 88 142 106 114 71 11 1 0 4 6 6 13 14 0 0 0 0 0 0 0 0 0 0 0 0 0 0 0 0 0 0 0 0 0 0 0 0 0 0 0 0 0 0 0 
0 0 0 0 0 0 0 0 0 0 1 0 0 10 23 103 129 114 117 147 101 73 45 37 46 68 199 242 184 153 163 188 146 70 46 49 49 49 47 48 53 70 69 51 50 80 88 99 93 62 52 51 52 55 65 59 50 49 49 96 120 98 88 83 76 57 58 57 64 109 142 149 154 172 168 154 139 105 140 180 167 90 96 88 95 128 97 116 57 8 0 0 4 6 7 14 13 0 0 0 0 0 0 0 0 0 0 0 0 0 0 0 0 0 0 0 0 0 0 0 0 0 0 0 0 0 0 0 
0 0 0 0 0 0 0 0 0 7 9 4 0 12 16 92 123 108 102 144 105 80 44 35 41 52 180 234 174 147 146 173 167 101 50 48 49 47 46 49 70 83 90 84 61 68 90 85 85 51 42 53 58 54 58 64 54 53 48 78 108 105 98 97 91 65 58 58 72 115 141 147 160 181 176 154 87 50 72 172 181 97 95 84 114 112 97 113 44 9 0 0 3 6 7 12 13 0 0 0 0 0 0 0 0 0 0 0 0 0 0 0 0 0 0 0 0 0 0 0 0 0 0 0 0 0 0 0 
0 0 0 0 0 0 0 0 0 7 2 4 5 8 12 77 126 121 87 127 124 82 45 32 41 46 168 225 168 145 144 141 168 152 82 53 49 50 49 65 93 82 73 76 70 82 89 89 88 49 50 53 51 61 60 64 62 60 85 99 120 125 101 87 73 74 93 95 92 128 152 154 162 190 179 110 70 41 43 162 191 111 104 114 95 108 113 111 33 8 0 0 4 6 7 12 13 0 0 0 0 0 0 0 0 0 0 0 0 0 0 0 0 0 0 0 0 0 0 0 0 0 0 0 0 0 0 0 
0 0 0 0 0 0 0 0 0 1 0 0 4 9 10 59 128 132 79 107 148 109 69 38 39 49 173 211 166 155 153 142 126 136 113 59 57 62 84 82 80 78 74 77 80 84 91 98 84 53 58 50 47 57 61 68 65 73 76 77 129 127 97 93 78 73 75 90 133 164 169 159 183 181 107 76 52 34 40 156 192 136 142 128 58 108 117 97 22 5 0 0 4 8 6 11 13 0 0 0 0 0 0 0 0 0 0 0 0 0 0 0 0 0 0 0 0 0 0 0 0 0 0 0 0 0 0 0 
0 0 0 0 0 0 0 0 0 0 0 0 1 7 10 40 125 135 75 98 138 129 80 47 33 70 177 190 171 155 160 160 140 105 118 83 91 81 78 78 78 77 64 75 111 102 103 109 90 62 59 63 54 56 65 66 68 68 61 66 113 127 110 81 76 68 74 107 141 153 145 148 160 133 74 47 37 29 44 160 195 165 155 87 46 106 122 87 17 7 7 2 3 11 9 12 13 0 0 0 0 0 0 0 0 0 0 0 0 0 0 0 0 0 0 0 0 0 0 0 0 0 0 0 0 0 0 0 
0 0 0 0 0 0 0 0 0 0 0 0 0 3 13 29 116 130 97 84 119 142 90 60 35 100 160 153 167 158 160 168 153 104 79 82 81 70 75 73 70 58 77 96 104 112 112 115 91 75 73 83 53 63 66 69 89 83 91 68 102 115 91 76 74 86 96 124 151 147 144 154 154 116 80 64 59 60 73 162 210 196 148 59 82 123 135 76 14 8 1 0 3 6 7 13 14 0 0 0 0 0 0 0 0 0 0 0 0 0 0 0 0 0 0 0 0 0 0 0 0 0 0 0 0 0 0 0 
0 0 0 0 0 0 0 0 0 0 0 1 3 5 10 24 103 128 110 66 110 151 118 81 50 122 148 114 144 170 163 161 159 136 97 82 55 51 59 70 71 73 79 70 87 110 117 127 120 119 83 67 65 68 81 94 79 83 94 73 94 104 81 64 60 78 113 134 150 157 165 169 152 125 107 126 118 115 148 168 215 216 164 88 124 144 140 60 11 6 0 0 3 7 7 13 14 0 0 0 0 0 0 0 0 0 0 0 0 0 0 0 0 0 0 0 0 0 0 0 0 0 0 0 0 0 0 0 
0 0 0 0 0 0 0 0 0 0 0 1 6 8 7 23 91 121 113 70 99 173 163 119 94 139 147 83 82 157 164 147 142 143 117 93 55 58 61 53 60 59 52 53 64 93 104 122 121 98 85 95 85 107 100 69 52 76 95 79 112 107 72 58 66 71 99 135 141 162 192 195 168 116 81 76 78 101 123 135 197 230 165 111 140 161 105 56 9 4 0 0 3 6 7 13 14 0 0 0 0 0 0 0 0 0 0 0 0 0 0 0 0 0 0 0 0 0 0 0 0 0 0 0 0 0 0 0 
0 0 0 0 0 0 0 0 0 0 0 2 12 9 6 25 87 120 111 89 93 194 185 158 129 169 158 81 65 129 169 149 138 147 146 130 100 74 60 61 63 58 56 55 57 81 106 121 95 60 74 103 100 124 93 57 50 60 97 89 106 110 84 61 66 92 134 141 150 170 190 175 139 81 70 83 106 112 107 123 181 183 125 153 165 182 115 49 6 4 0 0 3 6 7 13 13 0 0 0 0 0 0 0 0 0 0 0 0 0 0 0 0 0 0 0 0 0 0 0 0 0 0 0 0 0 0 0 
0 0 0 0 0 0 0 0 0 0 0 0 15 10 0 13 51 109 128 109 75 126 167 160 137 168 174 132 119 131 162 171 151 152 146 142 148 89 52 50 49 63 63 58 60 78 91 104 73 61 69 105 85 96 106 76 50 65 65 80 66 92 133 116 126 158 181 167 184 207 208 147 119 92 84 89 113 130 122 124 165 172 160 138 139 169 121 66 6 4 7 2 2 6 8 14 13 0 0 0 0 0 0 0 0 0 0 0 0 0 0 0 0 0 0 0 0 0 0 0 0 0 0 0 0 0 0 0 
0 0 0 0 0 0 0 0 0 0 0 0 12 5 0 12 31 93 131 106 84 99 144 163 151 170 195 170 119 90 103 154 168 167 142 141 152 136 74 55 58 81 97 68 73 85 102 109 53 59 118 140 99 98 118 105 72 62 74 86 58 56 90 94 137 194 205 209 221 223 168 89 83 76 91 98 127 129 115 126 171 199 163 136 158 108 99 40 0 0 3 6 2 6 8 13 13 0 0 0 0 0 0 0 0 0 0 0 0 0 0 0 0 0 0 0 0 0 0 0 0 0 0 0 0 0 0 0 
0 0 0 0 0 0 0 0 0 0 0 0 0 3 0 10 22 69 131 127 112 97 98 144 179 187 212 171 71 66 90 103 148 188 162 139 144 162 126 116 105 99 97 106 88 68 111 90 61 104 164 167 140 155 164 131 81 65 76 99 86 77 121 129 142 160 180 216 224 163 73 75 53 62 117 133 130 129 114 111 178 183 130 156 170 152 78 13 2 0 1 2 2 5 8 13 12 0 0 0 0 0 0 0 0 0 0 0 0 0 0 0 0 0 0 0 0 0 0 0 0 0 0 0 0 0 0 0 
0 0 0 0 0 0 0 0 0 0 0 0 0 0 0 7 20 40 117 128 108 150 129 94 111 172 209 170 119 100 74 77 118 202 205 169 145 155 178 187 132 119 116 81 74 95 115 108 113 158 166 167 169 178 181 155 73 79 94 112 96 121 161 164 156 161 173 184 167 84 33 59 39 76 131 155 139 132 120 102 128 112 132 135 178 149 44 7 4 0 0 0 2 5 8 13 12 0 0 0 0 0 0 0 0 0 0 0 0 0 0 0 0 0 0 0 0 0 0 0 0 0 0 0 0 0 0 0 
0 0 0 0 0 0 0 0 0 0 0 0 0 0 0 5 18 25 89 93 102 160 130 95 105 144 151 137 143 125 75 57 89 160 201 192 165 157 162 147 141 139 131 132 145 149 162 159 164 145 136 152 163 164 162 163 146 134 142 154 155 163 168 160 175 179 167 117 61 40 46 38 43 92 117 151 160 140 164 165 134 107 128 162 152 98 24 10 7 0 0 0 2 5 8 13 12 0 0 0 0 0 0 0 0 0 0 0 0 0 0 0 0 0 0 0 0 0 0 0 0 0 0 0 0 0 0 0 
0 0 0 0 0 0 0 0 0 0 0 0 0 0 0 8 21 28 63 88 92 136 122 99 105 153 149 142 145 120 92 62 85 138 171 173 161 172 170 154 150 154 147 151 157 164 179 168 156 142 122 106 127 140 151 151 154 169 176 167 163 170 185 178 183 172 105 59 45 43 46 44 77 98 113 128 156 157 169 152 155 147 148 176 142 59 24 14 5 2 0 0 1 5 8 13 11 0 0 0 0 0 0 0 0 0 0 0 0 0 0 0 0 0 0 0 0 0 0 0 0 0 0 0 0 0 0 0 
0 0 0 0 0 0 0 0 0 0 0 0 0 0 1 13 20 29 31 88 103 113 116 107 117 114 142 145 137 117 91 89 103 141 161 159 110 133 172 186 167 160 154 151 146 154 170 163 156 148 138 132 135 147 179 186 199 189 172 167 172 175 185 169 141 93 55 45 47 57 54 97 106 90 100 127 135 130 136 153 170 174 176 184 108 38 26 22 7 6 0 0 1 5 8 13 11 0 0 0 0 0 0 0 0 0 0 0 0 0 0 0 0 0 0 0 0 0 0 0 0 0 0 0 0 0 0 0 
0 0 0 0 0 0 0 0 0 0 0 0 0 0 5 16 22 25 19 63 81 90 119 109 106 119 113 115 114 112 94 97 152 175 147 87 59 61 110 163 182 180 172 151 135 137 145 126 135 158 181 193 185 176 181 189 179 160 139 130 129 135 150 124 71 47 44 44 45 86 92 133 122 96 108 129 98 114 173 163 171 179 148 108 76 32 22 24 12 10 0 0 1 5 7 12 10 0 0 0 0 0 0 0 0 0 0 0 0 0 0 0 0 0 0 0 0 0 0 0 0 0 0 0 0 0 0 0 
0 0 0 0 0 0 0 0 0 0 0 0 0 0 8 20 27 24 12 45 89 103 130 126 97 92 98 61 83 103 103 113 171 193 139 72 52 45 45 74 120 119 118 119 124 152 170 145 142 169 196 220 223 211 185 170 161 147 134 134 132 105 83 80 75 51 56 65 98 128 96 108 126 112 121 102 96 163 178 168 156 115 96 76 68 33 23 25 16 13 0 0 1 4 7 12 10 0 0 0 0 0 0 0 0 0 0 0 0 0 0 0 0 0 0 0 0 0 0 0 0 0 0 0 0 0 0 0 
0 0 0 0 0 0 0 0 0 0 0 0 0 0 8 19 26 17 12 38 86 64 115 155 103 105 110 76 45 109 115 129 189 185 114 99 89 67 59 57 83 93 103 114 118 123 86 83 106 133 150 141 144 148 140 128 110 89 59 53 62 87 69 69 97 120 119 130 137 134 107 108 115 118 99 86 117 175 173 173 130 124 88 89 68 28 24 25 22 16 0 0 0 5 7 12 10 0 0 0 0 0 0 0 0 0 0 0 0 0 0 0 0 0 0 0 0 0 0 0 0 0 0 0 0 0 0 0 
0 0 0 0 0 0 0 0 0 0 0 1 8 0 7 19 24 19 16 33 94 80 72 113 101 126 99 91 67 81 96 127 194 171 114 99 98 95 96 101 110 137 153 167 153 125 81 79 114 121 112 84 80 87 95 88 63 55 44 43 56 77 108 110 133 167 171 172 169 157 112 109 127 104 106 100 133 157 158 159 147 85 78 91 59 25 23 24 24 16 0 0 0 4 8 12 10 0 0 0 0 0 0 0 0 0 0 0 0 0 0 0 0 0 0 0 0 0 0 0 0 0 0 0 0 0 0 0 
0 0 0 0 0 0 0 0 0 0 0 3 8 4 4 16 23 20 18 24 83 90 77 62 110 123 119 85 104 96 75 98 143 96 101 112 112 110 110 102 106 137 129 157 204 181 140 132 139 117 80 72 71 74 88 101 96 87 89 104 110 122 144 135 141 178 195 189 178 160 84 93 142 82 131 135 142 156 125 106 83 42 64 83 36 19 13 14 18 6 0 0 0 4 7 12 9 0 0 0 0 0 0 0 0 0 0 0 0 0 0 0 0 0 0 0 0 0 0 0 0 0 0 0 0 0 0 0 
0 0 0 0 0 0 0 0 0 0 0 1 9 9 7 11 22 20 17 14 41 89 87 66 95 111 122 113 89 111 100 108 124 92 62 89 119 131 135 134 131 153 128 125 177 196 172 153 145 119 112 123 123 120 108 109 112 118 129 149 150 167 156 146 155 165 179 177 171 196 118 115 135 104 122 110 140 134 100 76 62 58 58 62 21 13 6 9 7 0 0 0 0 3 7 12 9 0 0 0 0 0 0 0 0 0 0 0 0 0 0 0 0 0 0 0 0 0 0 0 0 0 0 0 0 0 0 0 
0 0 0 0 0 0 0 0 0 0 0 2 8 9 8 5 7 12 14 13 13 51 91 71 56 59 96 109 98 130 139 121 140 137 91 73 79 75 80 93 172 183 115 117 132 180 177 156 124 109 144 179 184 185 167 134 121 122 137 137 141 162 159 166 139 139 212 185 132 163 197 82 114 143 113 96 100 55 81 90 60 82 90 41 14 11 12 7 5 0 0 0 1 3 6 11 8 0 0 0 0 0 0 0 0 0 0 0 0 0 0 0 0 0 0 0 0 0 0 0 0 0 0 0 0 0 0 0 
0 0 0 0 0 0 0 0 0 0 0 0 8 6 1 0 0 3 10 19 17 16 70 72 50 54 81 83 107 150 150 146 132 108 79 63 68 67 84 164 154 92 102 145 135 124 133 118 96 119 116 84 118 154 175 169 114 97 114 110 126 138 156 161 144 111 114 142 95 163 168 93 125 105 70 44 65 41 42 85 105 102 51 9 4 6 7 0 2 6 5 6 7 8 6 11 7 0 0 0 0 0 0 0 0 0 0 0 0 0 0 0 0 0 0 0 0 0 0 0 0 0 0 0 0 0 0 0 
0 0 0 0 0 0 0 0 0 0 0 0 2 7 5 0 0 0 9 13 12 3 23 80 85 68 58 45 53 116 114 143 167 152 96 51 40 58 129 145 108 116 127 246 221 146 145 171 153 120 119 146 180 176 175 171 142 121 154 163 117 87 149 151 130 116 180 142 104 83 115 135 109 53 25 19 45 10 16 36 71 54 25 8 2 1 0 0 0 1 0 4 5 2 5 11 6 0 0 0 0 0 0 0 0 0 0 0 0 0 0 0 0 0 0 0 0 0 0 0 0 0 0 0 0 0 0 0 
0 0 0 0 0 0 0 0 0 0 0 0 0 3 5 0 0 0 0 4 5 15 13 47 81 52 39 23 15 61 52 79 125 118 120 117 104 123 134 113 122 116 123 122 133 110 141 220 178 140 147 198 203 139 103 126 145 104 130 176 177 183 156 112 141 153 182 163 151 134 121 92 101 82 62 42 54 18 16 38 43 37 24 10 11 0 0 0 0 0 0 1 4 2 5 11 6 0 0 0 0 0 0 0 0 0 0 0 0 0 0 0 0 0 0 0 0 0 0 0 0 0 0 0 0 0 0 0 
0 0 0 0 0 0 0 0 0 0 0 0 0 4 5 0 0 0 0 1 11 17 17 18 28 25 24 22 25 70 49 39 74 95 64 81 93 99 116 125 88 68 68 62 62 57 86 124 140 133 84 146 126 111 101 110 118 61 117 94 63 68 76 100 140 152 99 87 59 53 52 51 71 77 54 50 85 37 26 27 24 25 18 11 9 0 0 0 0 0 0 7 4 2 5 11 6 0 0 0 0 0 0 0 0 0 0 0 0 0 0 0 0 0 0 0 0 0 0 0 0 0 0 0 0 0 0 0 
0 0 0 0 0 0 0 0 0 0 0 0 0 0 0 0 0 0 0 0 6 11 13 16 20 19 17 21 22 68 49 41 61 71 41 60 71 76 96 104 99 98 84 78 71 77 76 74 120 107 46 105 89 93 95 106 115 63 102 88 59 63 74 75 113 100 48 50 60 52 39 33 65 85 41 42 75 33 25 22 17 20 18 13 10 0 0 0 0 0 3 6 2 1 5 11 7 0 0 0 0 0 0 0 0 0 0 0 0 0 0 0 0 0 0 0 0 0 0 0 0 0 0 0 0 0 0 0 
0 0 0 0 0 0 0 0 0 0 0 0 0 0 0 0 0 0 0 0 3 12 11 11 16 23 24 20 21 67 52 40 57 70 74 72 65 79 207 139 130 178 102 79 74 92 88 84 133 77 25 100 74 79 93 115 160 112 157 160 140 140 130 102 159 216 169 132 132 95 98 116 185 161 98 68 88 37 25 17 15 12 5 2 2 0 0 0 0 0 0 0 0 1 3 9 7 0 0 0 0 0 0 0 0 0 0 0 0 0 0 0 0 0 0 0 0 0 0 0 0 0 0 0 0 0 0 0 
0 0 0 0 0 0 0 0 0 0 0 0 0 0 0 0 0 0 0 0 0 5 4 1 7 9 24 13 13 59 61 41 69 76 101 105 80 89 188 143 97 93 192 123 97 171 134 183 184 120 78 115 75 75 77 108 177 163 200 224 239 243 246 231 225 103 168 102 44 45 123 214 222 221 216 181 143 104 82 65 41 6 1 0 0 0 0 0 0 0 0 0 0 0 1 6 5 0 0 0 0 0 0 0 0 0 0 0 0 0 0 0 0 0 0 0 0 0 0 0 0 0 0 0 0 0 0 0 
0 0 0 0 0 0 0 0 0 0 0 0 0 0 0 0 0 0 0 0 0 0 0 0 1 10 26 16 6 12 61 83 136 175 219 240 229 212 117 113 134 112 175 110 149 166 158 158 156 187 154 116 94 113 140 150 175 178 205 222 240 1 255 249 191 145 140 66 61 51 69 176 214 217 174 129 117 90 95 100 81 13 3 2 0 0 0 0 0 0 0 0 0 0 1 4 3 0 0 0 0 0 0 0 0 0 0 0 0 0 0 0 0 0 0 0 0 0 0 0 0 0 0 0 0 0 0 0 
0 0 0 0 0 0 0 0 0 0 0 0 0 0 0 0 0 0 0 0 0 0 1 1 4 10 17 19 18 18 57 35 45 43 68 143 221 181 86 110 90 105 177 101 112 125 141 155 155 129 105 89 74 78 88 101 128 165 189 183 190 206 212 232 219 133 145 124 56 46 53 83 95 93 108 103 110 70 65 70 28 3 8 1 0 0 0 0 0 0 0 2 4 10 17 23 16 0 0 0 0 0 0 0 0 0 0 0 0 0 0 0 0 0 0 0 0 0 0 0 0 0 0 0 0 0 0 0 
0 0 0 0 0 0 0 0 0 0 0 0 0 0 0 0 0 0 0 0 0 0 7 9 12 8 24 32 24 22 64 66 57 58 34 42 60 173 108 214 178 145 140 91 117 145 165 145 109 102 74 87 91 66 48 51 67 88 96 99 108 133 143 139 152 199 232 203 40 34 33 33 31 36 52 59 70 23 12 12 14 13 13 3 0 0 0 0 0 0 0 0 0 1 7 14 9 0 0 0 0 0 0 0 0 0 0 0 0 0 0 0 0 0 0 0 0 0 0 0 0 0 0 0 0 0 0 0 
0 0 0 0 0 0 0 0 0 0 0 0 0 0 0 0 0 0 0 0 0 0 4 11 12 11 18 21 20 20 51 76 76 62 29 32 41 40 55 100 120 96 113 137 128 163 136 111 114 90 59 55 52 60 63 51 53 71 80 100 91 121 132 105 87 153 217 208 173 79 51 38 34 38 60 50 69 25 20 22 19 12 12 2 0 0 0 0 0 0 0 0 0 1 7 14 7 0 0 0 0 0 0 0 0 0 0 0 0 0 0 0 0 0 0 0 0 0 0 0 0 0 0 0 0 0 0 0 
0 0 0 0 0 0 0 0 0 0 0 0 0 0 0 0 0 0 0 0 0 0 0 9 12 12 15 21 23 20 42 78 68 75 33 47 87 110 131 133 116 92 79 121 103 129 121 110 130 130 118 91 68 60 55 55 59 79 101 135 128 129 124 111 74 120 152 188 193 167 128 73 51 40 78 56 72 25 20 22 17 11 11 0 0 0 0 0 0 0 0 0 0 1 6 13 6 0 0 0 0 0 0 0 0 0 0 0 0 0 0 0 0 0 0 0 0 0 0 0 0 0 0 0 0 0 0 0 
0 0 0 0 0 0 0 0 0 0 0 0 0 0 0 0 0 0 0 0 0 0 0 5 10 11 14 21 22 21 37 81 71 76 44 97 158 149 99 65 71 61 59 116 125 122 136 137 165 159 155 144 103 80 72 74 75 92 99 135 151 117 117 114 71 124 133 149 189 180 159 157 135 71 86 65 76 27 20 21 16 12 7 0 0 0 0 0 0 0 0 0 0 0 5 13 5 0 0 0 0 0 0 0 0 0 0 0 0 0 0 0 0 0 0 0 0 0 0 0 0 0 0 0 0 0 0 0 
0 0 0 0 0 0 0 0 0 0 0 0 0 0 0 0 0 0 0 0 0 0 0 1 10 12 10 17 23 22 32 69 60 71 52 143 155 81 51 49 49 45 57 133 111 65 96 125 144 123 134 155 140 117 101 93 103 119 128 143 152 107 105 107 91 132 146 88 118 152 138 143 183 136 83 68 77 35 23 18 13 13 3 0 0 0 0 0 0 0 0 0 0 0 5 13 5 0 0 0 0 0 0 0 0 0 0 0 0 0 0 0 0 0 0 0 0 0 0 0 0 0 0 0 0 0 0 0 
0 0 0 0 0 0 0 0 0 0 0 0 0 0 0 0 0 0 0 0 0 0 0 0 8 6 9 16 21 22 36 49 55 56 55 155 142 62 49 46 47 41 76 149 97 61 100 117 102 96 134 146 146 140 130 123 138 148 140 143 139 104 96 98 83 86 139 78 48 66 67 65 150 170 73 81 79 40 24 18 13 11 0 0 0 0 0 0 0 0 0 0 0 0 4 13 5 0 0 0 0 0 0 0 0 0 0 0 0 0 0 0 0 0 0 0 0 0 0 0 0 0 0 0 0 0 0 0 
0 0 0 0 0 0 0 0 0 0 0 0 0 0 0 0 0 0 0 0 0 0 0 0 1 10 5 15 16 23 28 43 62 31 45 149 139 55 52 51 50 47 98 130 76 74 102 104 78 86 132 130 129 139 147 148 155 159 137 128 114 96 106 88 64 70 115 107 52 52 48 53 133 164 45 49 45 20 22 19 16 5 0 0 0 0 0 0 0 0 0 0 0 0 5 13 4 0 0 0 0 0 0 0 0 0 0 0 0 0 0 0 0 0 0 0 0 0 0 0 0 0 0 0 0 0 0 0 
0 0 0 0 0 0 0 0 0 0 0 0 0 0 0 0 0 0 0 0 0 0 0 0 0 7 5 9 15 18 22 38 43 15 27 135 144 63 48 53 52 59 86 70 60 68 98 105 82 91 129 130 121 133 154 153 146 137 127 111 121 96 110 78 51 44 65 89 67 47 41 52 140 156 37 20 11 15 21 20 13 3 0 0 0 0 0 0 0 0 0 0 0 0 4 13 3 0 0 0 0 0 0 0 0 0 0 0 0 0 0 0 0 0 0 0 0 0 0 0 0 0 0 0 0 0 0 0 
0 0 0 0 0 0 0 0 0 0 0 0 0 0 0 0 0 0 0 0 0 0 0 0 0 0 9 3 16 16 18 20 15 11 11 99 157 82 43 49 47 60 64 55 57 61 85 111 101 105 115 120 118 115 118 118 123 133 130 115 127 105 94 71 48 43 45 59 70 48 41 63 142 161 35 17 13 15 20 17 9 0 0 0 0 0 0 0 0 0 0 0 0 0 5 13 3 0 0 0 0 0 0 0 0 0 0 0 0 0 0 0 0 0 0 0 0 0 0 0 0 0 0 0 0 0 0 0 
0 0 0 0 0 0 0 0 0 0 0 0 0 0 0 0 0 0 0 0 0 0 0 0 0 0 8 2 9 16 16 16 20 15 7 40 159 125 58 43 64 79 66 56 59 58 74 108 109 113 113 107 99 91 84 87 126 131 98 76 81 94 93 71 48 43 37 45 79 69 58 91 175 136 23 22 9 16 19 14 4 0 0 0 0 0 0 0 0 0 0 0 0 0 3 12 3 0 0 0 0 0 0 0 0 0 0 0 0 0 0 0 0 0 0 0 0 0 0 0 0 0 0 0 0 0 0 0 
0 0 0 0 0 0 0 0 0 0 0 0 0 0 0 0 0 0 0 0 0 0 0 0 0 0 0 8 5 8 17 18 17 19 9 18 92 166 138 119 126 85 55 57 64 61 68 101 106 96 127 144 132 118 110 125 127 126 119 98 77 84 91 75 54 50 33 42 74 112 164 181 182 54 21 22 8 17 19 9 3 0 0 0 0 0 0 0 0 0 0 0 0 0 4 12 3 0 0 0 0 0 0 0 0 0 0 0 0 0 0 0 0 0 0 0 0 0 0 0 0 0 0 0 0 0 0 0 
0 0 0 0 0 0 0 0 0 0 0 0 0 0 0 0 0 0 0 0 0 0 0 0 0 0 0 7 10 4 12 16 18 20 11 14 22 89 171 185 156 73 44 43 63 67 69 101 112 103 112 114 99 97 98 110 104 110 112 93 95 89 100 92 63 59 63 50 53 116 193 178 72 25 20 20 14 18 14 9 2 0 0 0 0 0 0 0 0 0 0 0 0 0 3 12 3 0 0 0 0 0 0 0 0 0 0 0 0 0 0 0 0 0 0 0 0 0 0 0 0 0 0 0 0 0 0 0 
0 0 0 0 0 0 0 0 0 0 0 0 0 0 0 0 0 0 0 0 0 0 0 0 0 0 0 0 9 6 7 17 16 19 12 7 13 34 36 78 79 48 37 36 54 68 71 103 121 105 101 84 75 106 118 122 116 115 129 123 103 85 104 104 73 48 43 52 45 61 78 45 28 23 24 22 16 20 16 8 1 0 0 0 0 0 0 0 0 0 0 0 0 0 2 11 2 0 0 0 0 0 0 0 0 0 0 0 0 0 0 0 0 0 0 0 0 0 0 0 0 0 0 0 0 0 0 0 
0 0 0 0 0 0 0 0 0 0 0 0 0 0 0 0 0 0 0 0 0 0 0 0 0 0 0 0 0 12 5 14 18 19 13 3 5 31 31 30 34 38 38 39 56 69 67 101 125 113 94 92 110 122 118 122 126 126 144 134 113 100 111 111 65 45 58 61 46 37 35 33 24 22 28 21 13 21 17 7 0 2 0 0 0 0 0 0 0 0 0 0 0 0 1 11 2 0 0 0 0 0 0 0 0 0 0 0 0 0 0 0 0 0 0 0 0 0 0 0 0 0 0 0 0 0 0 0 
0 0 0 0 0 0 0 0 0 0 0 0 0 0 0 0 0 0 0 0 0 0 0 0 0 0 0 0 0 8 4 9 17 20 16 3 1 25 35 32 37 37 36 45 59 59 59 94 121 125 129 135 131 121 119 118 117 127 150 137 127 134 122 111 56 27 29 31 31 36 33 25 20 23 28 20 12 19 19 10 2 1 0 0 0 0 0 0 0 0 0 0 0 0 3 12 3 0 0 0 0 0 0 0 0 0 0 0 0 0 0 0 0 0 0 0 0 0 0 0 0 0 0 0 0 0 0 0 
0 0 0 0 0 0 0 0 0 0 0 0 0 0 0 0 0 0 0 0 0 0 0 0 0 0 0 0 0 5 7 6 14 20 19 6 0 12 36 31 35 37 38 49 54 57 71 74 109 131 141 137 118 109 111 103 98 115 137 147 143 145 127 83 45 29 27 29 30 35 31 19 20 28 29 16 14 18 19 16 7 2 0 0 0 0 0 0 0 0 0 0 0 0 2 11 2 0 0 0 0 0 0 0 0 0 0 0 0 0 0 0 0 0 0 0 0 0 0 0 0 0 0 0 0 0 0 0 
