P2
128 99
251
0 0 0 0 0 0 0 0 0 0 0 0 0 0 0 0 0 0 0 0 0 0 0 0 0 0 0 0 0 0 0 0 0 0 0 0 0 0 0 0 0 0 0 0 0 0 0 0 0 0 0 0 0 0 0 0 0 0 0 0 0 0 0 0 0 0 0 0 0 0 0 0 0 0 0 0 0 0 0 0 0 0 0 0 0 0 0 0 0 0 0 0 0 0 0 0 0 0 0 0 0 0 0 0 0 0 0 0 0 0 0 0 0 0 0 0 0 0 0 0 0 0 0 0 0 0 0 0 
0 0 0 0 0 0 0 0 0 0 0 0 0 0 0 0 0 0 0 0 0 0 0 0 0 0 0 0 0 0 0 0 0 0 0 0 0 0 0 0 0 0 0 0 0 0 0 0 0 0 0 0 0 0 0 0 0 0 0 0 0 0 0 0 0 0 0 0 0 0 0 0 0 0 0 0 0 0 0 0 0 0 0 0 0 0 0 0 0 0 0 0 0 0 0 0 0 0 0 0 0 0 0 0 0 0 0 0 0 0 0 0 0 0 0 0 0 0 0 0 0 0 0 0 0 0 0 0 
0 0 0 0 0 0 0 0 0 0 0 0 0 0 0 0 0 0 0 0 0 0 0 0 0 0 0 0 0 0 0 0 0 0 0 0 0 0 0 0 0 0 0 0 0 0 0 0 0 0 0 2 1 2 2 0 0 0 0 0 0 0 0 0 0 0 0 0 0 0 0 0 0 0 0 0 0 0 0 0 0 0 0 0 0 0 0 0 0 0 0 0 0 0 0 0 0 0 0 0 0 0 0 0 0 0 0 0 0 0 0 0 0 0 0 0 0 0 0 0 0 0 0 0 0 0 0 0 
0 0 0 0 0 0 0 0 0 0 0 0 0 0 0 0 0 0 0 0 0 0 0 0 0 0 0 0 0 0 0 0 0 0 0 0 0 0 0 0 0 0 0 2 8 8 7 16 19 19 18 19 19 18 16 14 17 20 22 12 1 0 0 0 0 0 0 0 0 0 0 0 0 0 0 0 0 0 0 0 0 0 0 0 0 0 0 0 0 0 0 0 0 0 0 0 0 0 0 0 0 0 0 0 0 0 0 0 0 0 0 0 0 0 0 0 0 0 0 0 0 0 0 0 0 0 0 0 
0 0 0 0 0 0 0 0 0 0 0 0 0 0 0 0 0 0 0 0 0 0 0 0 0 0 0 0 0 0 0 0 0 0 0 0 0 0 0 0 8 10 14 25 34 42 50 63 83 108 129 145 158 161 157 151 139 119 91 51 29 23 22 3 0 0 0 0 0 0 0 0 0 0 0 0 0 0 0 0 0 0 0 0 0 0 0 0 0 0 0 0 0 0 0 0 0 0 0 0 0 0 0 0 0 0 0 0 0 0 0 0 0 0 0 0 0 0 0 0 0 0 0 0 0 0 0 0 
0 0 0 0 0 0 0 0 0 0 0 0 0 0 0 0 0 0 0 0 0 0 0 0 0 0 0 0 0 0 0 0 0 0 0 0 0 0 9 10 27 38 41 54 87 133 165 185 186 172 155 143 139 134 128 126 125 130 149 169 170 139 82 31 19 19 1 0 0 0 0 0 0 0 0 0 0 0 0 0 0 0 0 0 0 0 0 0 0 0 0 0 0 0 0 0 0 0 0 0 0 0 0 0 0 0 0 0 0 0 0 0 0 0 0 0 0 0 0 0 0 0 0 0 0 0 0 0 
0 0 0 0 0 0 0 0 0 0 0 0 0 0 0 0 0 0 0 0 0 0 0 0 0 0 0 0 0 0 0 0 0 0 0 0 10 16 33 37 49 82 132 172 203 184 147 129 130 137 143 148 150 149 150 153 150 144 136 124 118 130 158 173 142 76 22 19 11 0 0 0 0 0 0 0 0 0 0 0 0 0 0 0 0 0 0 0 0 0 0 0 0 0 0 0 0 0 0 0 0 0 0 0 0 0 0 0 0 0 0 0 0 0 0 0 0 0 0 0 0 0 0 0 0 0 0 0 
0 0 0 0 0 0 0 0 0 0 0 0 0 0 0 0 0 0 0 0 0 0 0 0 0 0 0 0 0 0 0 0 0 0 6 24 36 32 53 101 152 197 190 149 125 126 131 142 158 166 169 169 169 170 166 170 171 172 165 159 152 142 129 120 133 167 172 110 45 16 13 0 0 0 0 0 0 0 0 0 0 0 0 0 0 0 0 0 0 0 0 0 0 0 0 0 0 0 0 0 0 0 0 0 0 0 0 0 0 0 0 0 0 0 0 0 0 0 0 0 0 0 0 0 0 0 0 0 
0 0 0 0 0 0 0 0 0 0 0 0 0 0 0 0 0 0 0 0 0 0 0 0 0 0 0 0 0 0 0 0 1 25 30 28 46 103 158 203 179 132 122 132 142 155 165 165 145 135 144 152 155 140 133 135 146 157 166 178 177 171 160 147 138 125 126 158 180 117 46 23 5 0 0 0 0 0 0 0 0 0 0 0 0 0 0 0 0 0 0 0 0 0 0 0 0 0 0 0 0 0 0 0 0 0 0 0 0 0 0 0 0 0 0 0 0 0 0 0 0 0 0 0 0 0 0 0 
0 0 0 0 0 0 0 0 0 0 0 0 0 0 0 0 0 0 0 0 0 0 0 0 0 0 0 0 0 0 0 24 23 28 32 89 151 202 176 127 120 134 150 151 147 141 120 96 89 100 111 122 125 125 127 119 113 121 139 153 162 171 177 178 171 155 140 131 128 165 176 84 30 14 0 0 0 0 0 0 0 0 0 0 0 0 0 0 0 0 0 0 0 0 0 0 0 0 0 0 0 0 0 0 0 0 0 0 0 0 0 0 0 0 0 0 0 0 0 0 0 0 0 0 0 0 0 0 
0 0 0 0 0 0 0 0 0 0 0 0 0 0 0 0 0 0 0 0 0 0 0 0 0 0 0 0 0 11 23 27 24 64 134 192 185 129 115 134 161 169 158 150 148 134 129 133 137 143 126 123 121 126 151 153 150 145 137 134 143 156 157 164 174 178 176 164 145 131 135 179 132 43 19 3 0 0 0 0 0 0 0 0 0 0 0 0 0 0 0 0 0 0 0 0 0 0 0 0 0 0 0 0 0 0 0 0 0 0 0 0 0 0 0 0 0 0 0 0 0 0 0 0 0 0 0 0 
0 0 0 0 0 0 0 0 0 0 0 0 0 0 0 0 0 0 0 0 0 0 0 0 0 0 0 0 20 17 23 40 109 170 200 147 119 128 159 180 167 155 151 138 125 131 137 139 142 130 104 105 97 93 123 139 137 139 142 139 142 146 156 163 160 163 174 178 176 162 143 132 152 167 64 21 8 0 0 0 0 0 0 0 0 0 0 0 0 0 0 0 0 0 0 0 0 0 0 0 0 0 0 0 0 0 0 0 0 0 0 0 0 0 0 0 0 0 0 0 0 0 0 0 0 0 0 0 
0 0 0 0 0 0 0 0 0 0 0 0 0 0 0 0 0 0 0 0 0 0 0 0 0 0 5 24 10 22 68 136 189 178 123 129 159 181 177 162 150 139 128 127 125 133 137 135 136 111 101 101 99 95 110 136 134 135 138 137 135 137 138 152 169 168 169 169 174 178 176 156 137 138 175 84 24 8 0 0 0 0 0 0 0 0 0 0 0 0 0 0 0 0 0 0 0 0 0 0 0 0 0 0 0 0 0 0 0 0 0 0 0 0 0 0 0 0 0 0 0 0 0 0 0 0 0 0 
0 0 0 0 0 0 0 0 0 0 0 0 0 0 0 0 0 0 0 0 0 0 0 0 0 11 23 11 30 93 148 193 154 125 147 180 185 162 149 139 124 125 120 109 101 113 132 132 113 106 105 103 101 98 94 96 112 125 134 138 137 133 124 130 133 147 169 172 166 168 175 179 163 142 136 173 91 26 8 0 0 0 0 0 0 0 0 0 0 0 0 0 0 0 0 0 0 0 0 0 0 0 0 0 0 0 0 0 0 0 0 0 0 0 0 0 0 0 0 0 0 0 0 0 0 0 0 0 
0 0 0 0 0 0 0 0 0 0 0 0 0 0 0 0 0 0 0 0 0 0 0 0 18 19 10 40 109 152 181 138 131 163 189 183 155 137 128 116 121 110 91 93 93 83 75 75 82 88 100 115 114 105 96 93 91 100 110 118 123 127 131 132 128 123 124 139 169 172 169 172 182 169 141 137 175 97 26 11 0 0 0 0 0 0 0 0 0 0 0 0 0 0 0 0 0 0 0 0 0 0 0 0 0 0 0 0 0 0 0 0 0 0 0 0 0 0 0 0 0 0 0 0 0 0 0 0 
0 0 0 0 0 0 0 0 0 0 0 0 0 0 0 0 0 0 0 0 0 0 1 25 17 11 51 113 153 171 133 141 173 191 166 140 124 117 123 124 106 88 92 81 76 90 111 128 143 159 169 177 177 178 183 182 179 177 171 165 157 152 140 134 133 123 119 119 122 143 167 166 170 179 169 136 139 182 107 25 10 0 0 0 0 0 0 0 0 0 0 0 0 0 0 0 0 0 0 0 0 0 0 0 0 0 0 0 0 0 0 0 0 0 0 0 0 0 0 0 0 0 0 0 0 0 0 0 
0 0 0 0 0 0 0 0 0 0 0 0 0 0 0 0 0 0 0 0 0 3 23 12 10 64 114 146 166 126 146 182 183 145 119 113 115 115 119 111 97 108 127 147 166 172 175 168 165 158 155 153 152 150 150 150 147 152 158 165 172 174 188 191 170 138 125 120 119 119 130 155 167 168 176 162 128 136 184 114 29 8 0 0 0 0 0 0 0 0 0 0 0 0 0 0 0 0 0 0 0 0 0 0 0 0 0 0 0 0 0 0 0 0 0 0 0 0 0 0 0 0 0 0 0 0 0 0 
0 0 0 0 0 0 0 0 0 0 0 0 0 0 0 0 0 0 0 0 7 23 11 9 75 126 143 171 128 152 183 168 124 113 116 116 115 118 113 116 156 182 172 160 154 150 143 141 140 135 137 142 143 140 133 133 131 128 137 144 145 147 155 175 198 201 161 121 118 114 113 117 139 158 160 173 156 123 132 191 119 31 5 0 0 0 0 0 0 0 0 0 0 0 0 0 0 0 0 0 0 0 0 0 0 0 0 0 0 0 0 0 0 0 0 0 0 0 0 0 0 0 0 0 0 0 0 0 
0 0 0 0 0 0 0 0 0 0 0 0 0 0 0 0 0 0 0 7 20 11 14 79 131 137 179 132 153 185 152 112 111 121 124 123 119 102 133 173 172 150 143 140 142 146 142 145 142 141 154 158 157 160 152 144 141 141 142 145 145 146 145 147 149 176 201 173 125 114 109 108 108 133 162 161 171 148 120 148 189 102 25 3 0 0 0 0 0 0 0 0 0 0 0 0 0 0 0 0 0 0 0 0 0 0 0 0 0 0 0 0 0 0 0 0 0 0 0 0 0 0 0 0 0 0 0 0 
0 0 0 0 0 0 0 0 0 0 0 0 0 0 0 0 0 0 3 19 10 14 82 132 130 184 141 150 181 146 110 106 116 126 127 106 86 137 174 160 146 143 148 148 150 145 148 157 161 169 169 152 155 173 165 158 161 159 158 151 144 145 148 146 142 138 161 193 184 128 105 106 104 106 129 161 166 172 140 119 170 173 84 19 2 0 0 0 0 0 0 0 0 0 0 0 0 0 0 0 0 0 0 0 0 0 0 0 0 0 0 0 0 0 0 0 0 0 0 0 0 0 0 0 0 0 0 0 
0 0 0 0 0 0 0 0 0 0 0 0 0 0 0 0 0 0 17 11 15 72 137 124 173 157 147 172 141 106 110 115 119 118 102 83 140 168 146 150 147 152 156 146 141 133 132 136 155 159 100 86 97 156 159 152 150 147 140 145 153 139 143 143 146 143 139 161 199 175 111 102 109 102 110 128 155 170 167 127 135 195 141 56 10 0 0 0 0 0 0 0 0 0 0 0 0 0 0 0 0 0 0 0 0 0 0 0 0 0 0 0 0 0 0 0 0 0 0 0 0 0 0 0 0 0 0 0 
0 0 0 0 0 0 0 0 0 0 0 0 0 0 0 0 0 11 11 10 54 130 123 154 173 149 166 140 102 104 114 112 117 103 82 137 170 141 147 147 139 132 128 129 126 127 137 137 140 81 61 60 65 99 146 144 139 141 149 154 151 137 147 142 132 140 145 145 166 197 156 94 92 101 108 113 126 148 174 154 123 167 181 112 32 3 0 0 0 0 0 0 0 0 0 0 0 0 0 0 0 0 0 0 0 0 0 0 0 0 0 0 0 0 0 0 0 0 0 0 0 0 0 0 0 0 0 0 
0 0 0 0 0 0 0 0 0 0 0 0 0 0 0 0 6 11 11 35 113 124 133 179 153 152 140 110 101 114 112 102 93 77 125 173 152 146 139 122 115 127 131 130 113 96 96 93 71 62 69 73 78 89 102 126 146 150 135 103 98 126 134 132 122 119 139 143 149 174 183 129 90 87 107 110 115 126 149 175 134 135 187 151 86 15 0 0 0 0 0 0 0 0 0 0 0 0 0 0 0 0 0 0 0 0 0 0 0 0 0 0 0 0 0 0 0 0 0 0 0 0 0 0 0 0 0 0 
0 0 0 0 0 0 0 0 0 0 0 0 0 0 0 0 12 11 26 93 122 118 162 167 147 134 112 106 111 119 105 89 73 101 160 148 144 135 120 127 121 100 87 81 75 78 83 80 75 72 87 106 114 125 140 144 145 146 140 132 130 131 125 106 94 103 114 135 149 159 175 160 110 83 87 107 116 119 123 153 154 126 163 169 131 47 4 0 0 0 0 0 0 0 0 0 0 0 0 0 0 0 0 0 0 0 0 0 0 0 0 0 0 0 0 0 0 0 0 0 0 0 0 0 0 0 0 0 
0 0 0 0 0 0 0 0 0 0 0 0 0 0 0 7 7 17 71 122 120 135 184 151 123 119 107 109 116 110 92 68 81 148 159 128 148 127 134 109 105 121 130 128 122 117 126 126 118 112 122 137 147 149 155 158 159 160 158 155 159 158 155 132 94 78 93 111 139 152 161 172 133 93 82 94 116 118 116 137 138 128 148 191 143 94 12 0 0 0 0 0 0 0 0 0 0 0 0 0 0 0 0 0 0 0 0 0 0 0 0 0 0 0 0 0 0 0 0 0 0 0 0 0 0 0 0 0 
0 0 0 0 0 0 0 0 0 0 0 0 0 0 2 5 12 48 112 115 122 166 174 126 102 117 108 112 115 95 67 63 128 173 153 142 152 146 134 138 147 156 163 160 157 143 160 157 151 147 150 152 152 150 150 149 152 154 158 160 163 164 164 159 133 94 67 70 108 139 148 179 164 112 91 89 107 114 114 119 137 117 133 185 152 131 38 0 0 0 0 0 0 0 0 0 0 0 0 0 0 0 0 0 0 0 0 0 0 0 0 0 0 0 0 0 0 0 0 0 0 0 0 0 0 0 0 0 
0 0 0 0 0 0 0 0 0 0 0 0 0 0 7 7 30 87 118 119 140 186 149 91 109 113 111 116 108 73 53 106 165 159 163 162 169 166 163 164 163 161 162 160 159 157 158 149 145 143 146 151 143 142 143 147 146 143 145 149 154 157 163 165 160 136 91 67 67 114 122 166 183 147 96 91 110 109 116 112 129 109 119 177 165 135 86 8 0 0 0 0 0 0 0 0 0 0 0 0 0 0 0 0 0 0 0 0 0 0 0 0 0 0 0 0 0 0 0 0 0 0 0 0 0 0 0 0 
0 0 0 0 0 0 0 0 0 0 0 0 0 0 7 14 66 106 115 125 165 185 111 84 116 112 115 117 83 50 92 158 156 161 182 190 190 172 165 161 155 150 147 144 139 141 140 147 146 140 141 135 134 140 141 144 143 137 135 134 138 143 148 159 164 159 131 88 67 63 109 163 175 181 131 87 105 111 118 120 125 120 106 165 177 127 114 29 0 0 0 0 0 0 0 0 0 0 0 0 0 0 0 0 0 0 0 0 0 0 0 0 0 0 0 0 0 0 0 0 0 0 0 0 0 0 0 0 
0 0 0 0 0 0 0 0 0 0 0 0 0 4 3 41 89 116 113 134 186 151 95 97 114 115 124 105 50 68 154 173 160 178 195 197 174 159 152 146 140 138 137 133 133 135 137 147 152 142 136 130 134 134 139 142 137 137 140 133 134 139 139 143 151 159 158 124 85 60 71 141 159 181 179 108 92 118 117 121 126 132 109 150 184 129 122 47 0 0 0 0 0 0 0 0 0 0 0 0 0 0 0 0 0 0 0 0 0 0 0 0 0 0 0 0 0 0 0 0 0 0 0 0 0 0 0 0 
0 0 0 0 0 0 0 0 0 0 0 0 0 3 9 71 95 113 112 142 175 126 94 105 118 117 119 66 47 122 182 160 167 190 190 164 150 146 145 138 136 135 134 136 133 136 149 151 155 148 141 137 134 141 141 144 139 140 137 138 139 136 135 134 137 141 156 151 115 72 58 119 148 157 184 150 74 110 108 120 127 137 117 141 183 131 128 64 3 0 0 0 0 0 0 0 0 0 0 0 0 0 0 0 0 0 0 0 0 0 0 0 0 0 0 0 0 0 0 0 0 0 0 0 0 0 0 0 
0 0 0 0 0 0 0 0 0 0 0 0 0 3 22 82 97 112 120 155 162 117 104 111 117 119 78 45 59 157 180 164 180 191 176 150 141 138 141 134 133 136 139 142 139 145 152 147 155 149 146 141 134 142 145 145 140 141 138 139 136 136 135 133 135 135 145 154 141 97 73 112 140 147 174 181 78 92 113 114 123 138 124 136 181 132 129 83 6 0 0 0 0 0 0 0 0 0 0 0 0 0 0 0 0 0 0 0 0 0 0 0 0 0 0 0 0 0 0 0 0 0 0 0 0 0 0 0 
0 0 0 0 0 0 0 0 0 0 0 0 0 2 42 84 96 108 131 151 147 115 116 119 121 83 44 42 61 158 170 167 188 184 153 141 136 132 129 129 138 143 141 140 138 137 138 142 149 150 149 141 136 141 142 138 136 142 144 141 140 144 140 140 136 134 139 148 158 141 104 124 140 139 152 179 88 66 107 110 119 136 126 134 178 136 123 95 8 0 0 0 0 0 0 0 0 0 0 0 0 0 0 0 0 0 0 0 0 0 0 0 0 0 0 0 0 0 0 0 0 0 0 0 0 0 0 0 
0 0 0 0 0 0 0 0 0 0 0 0 1 0 57 89 111 118 131 141 136 111 121 125 103 53 38 43 67 159 167 184 196 178 147 139 134 129 118 126 139 139 139 140 139 137 137 136 144 147 148 144 141 143 132 125 125 134 138 142 145 146 146 142 138 136 134 140 146 167 150 130 147 139 133 168 86 52 90 112 118 138 128 131 178 151 126 106 15 0 0 0 0 0 0 0 0 0 0 0 0 0 0 0 0 0 0 0 0 0 0 0 0 0 0 0 0 0 0 0 0 0 0 0 0 0 0 0 
0 0 0 0 0 0 0 0 0 0 0 0 2 3 65 91 111 113 125 136 130 109 121 126 83 39 41 46 70 156 173 199 203 173 138 131 129 129 129 131 133 138 142 142 143 140 142 130 139 138 141 140 135 137 126 115 114 126 134 142 145 144 146 146 143 139 135 131 131 149 163 142 144 139 131 162 79 48 80 113 125 142 132 133 170 170 128 120 28 0 0 0 0 0 0 0 0 0 0 0 0 0 0 0 0 0 0 0 0 0 0 0 0 0 0 0 0 0 0 0 0 0 0 0 0 0 0 0 
0 0 0 0 0 0 0 0 0 0 0 0 2 8 65 96 112 122 138 148 132 111 124 125 77 39 40 49 70 161 191 202 201 155 129 127 129 133 136 139 136 141 142 140 142 139 140 139 139 130 136 140 135 134 120 110 107 110 125 134 138 144 145 146 143 141 136 144 135 141 150 146 138 129 112 138 77 48 65 109 129 139 133 126 151 186 135 128 40 0 0 0 0 0 0 0 0 0 0 0 0 0 0 0 0 0 0 0 0 0 0 0 0 0 0 0 0 0 0 0 0 0 0 0 0 0 0 0 
0 0 0 0 0 0 0 0 0 0 0 0 3 14 68 101 116 132 147 162 134 108 126 118 75 40 40 51 76 164 196 198 178 132 121 126 129 133 134 136 134 132 129 130 134 139 140 141 130 118 132 145 141 143 128 114 103 100 108 121 134 144 147 148 150 141 142 135 141 145 145 132 113 119 108 142 81 51 57 102 121 130 137 128 160 196 140 130 50 3 0 0 0 0 0 0 0 0 0 0 0 0 0 0 0 0 0 0 0 0 0 0 0 0 0 0 0 0 0 0 0 0 0 0 0 0 0 0 
0 0 0 0 0 0 0 0 0 0 0 0 2 16 70 106 119 145 150 168 130 105 122 101 76 45 42 52 89 173 198 188 153 128 126 133 149 147 154 164 140 119 114 113 115 122 128 129 112 107 128 144 146 143 128 118 104 87 88 97 115 135 156 168 177 177 171 166 169 171 164 144 105 79 83 128 81 53 65 110 123 115 122 122 161 204 146 124 61 5 0 0 0 0 0 0 0 0 0 0 0 0 0 0 0 0 0 0 0 0 0 0 0 0 0 0 0 0 0 0 0 0 0 0 0 0 0 0 
0 0 0 0 0 0 0 0 0 0 0 0 3 14 68 106 116 147 144 172 142 110 118 93 75 63 47 63 108 174 198 160 136 128 139 171 190 185 177 176 162 150 149 120 100 108 115 115 97 89 116 140 144 141 128 118 104 84 82 83 105 140 171 171 159 144 138 135 136 154 167 164 124 76 63 99 86 51 83 117 131 104 106 120 163 208 155 127 68 5 0 0 0 0 0 0 0 0 0 0 0 0 0 0 0 0 0 0 0 0 0 0 0 0 0 0 0 0 0 0 0 0 0 0 0 0 0 0 
0 0 0 0 0 0 0 0 0 0 0 0 7 12 71 119 125 141 142 174 149 114 111 86 78 81 61 72 118 167 171 144 135 143 158 147 144 143 133 121 108 100 115 130 116 105 99 100 87 79 105 134 139 136 131 123 102 79 73 87 123 151 141 138 141 142 142 137 141 154 158 165 131 86 74 82 93 64 102 132 128 95 99 125 156 207 166 132 74 7 0 0 0 0 0 0 0 0 0 0 0 0 0 0 0 0 0 0 0 0 0 0 0 0 0 0 0 0 0 0 0 0 0 0 0 0 0 0 
0 0 0 0 0 0 0 0 0 0 0 0 9 9 76 124 124 146 138 176 152 123 105 72 84 76 83 83 130 160 152 144 142 138 131 131 137 135 128 113 93 82 75 80 110 130 98 87 81 77 98 128 134 136 131 123 96 71 70 93 118 112 124 136 144 143 140 140 146 159 162 167 136 80 104 127 132 99 114 141 123 91 96 128 159 201 173 136 88 14 0 0 0 0 0 0 0 0 0 0 0 0 0 0 0 0 0 0 0 0 0 0 0 0 0 0 0 0 0 0 0 0 0 0 0 0 0 0 
0 0 0 0 0 0 0 0 0 0 0 0 10 10 83 127 121 128 128 180 153 125 88 52 88 80 86 100 139 161 150 157 164 123 122 132 138 130 118 102 86 81 73 69 75 98 114 86 75 81 111 132 130 126 124 117 89 75 91 97 76 90 120 137 145 145 138 137 142 156 163 171 144 80 92 156 162 128 125 139 124 91 93 128 168 201 180 136 95 23 0 0 0 0 0 0 0 0 0 0 0 0 0 0 0 0 0 0 0 0 0 0 0 0 0 0 0 0 0 0 0 0 0 0 0 0 0 0 
0 0 0 0 0 0 0 0 0 0 0 0 8 11 90 129 122 140 136 181 159 128 80 45 81 96 93 109 145 164 158 189 164 129 132 138 135 125 102 82 77 81 76 74 71 70 109 101 87 88 108 131 120 95 109 132 105 73 73 84 59 80 111 132 139 139 138 141 147 156 165 169 144 85 71 136 167 138 136 143 120 90 92 112 157 186 179 135 100 33 0 0 0 0 0 0 0 0 0 0 0 0 0 0 0 0 0 0 0 0 0 0 0 0 0 0 0 0 0 0 0 0 0 0 0 0 0 0 
0 0 0 0 0 0 0 0 0 0 0 0 10 13 92 133 124 139 139 182 164 124 69 38 73 102 103 100 133 165 182 204 162 134 134 135 134 115 84 71 73 75 73 71 67 61 79 75 57 58 94 133 104 81 112 151 120 62 69 64 59 72 103 129 142 141 145 147 152 161 169 172 139 79 56 110 162 147 160 171 122 92 96 99 113 171 177 138 103 41 1 0 0 0 0 0 0 0 0 0 0 0 0 0 0 0 0 0 0 0 0 0 0 0 0 0 0 0 0 0 0 0 0 0 0 0 0 0 
0 0 0 0 0 0 0 0 0 0 0 0 10 11 89 135 128 134 148 184 171 108 62 38 70 98 97 85 126 166 190 201 158 141 140 139 133 106 78 71 69 71 69 67 63 57 64 74 52 58 94 118 89 76 96 100 97 73 63 56 56 73 100 127 143 145 147 147 155 162 170 172 133 71 46 91 155 169 203 212 128 93 98 93 70 164 177 146 104 47 2 0 0 0 0 0 0 0 0 0 0 0 0 0 0 0 0 0 0 0 0 0 0 0 0 0 0 0 0 0 0 0 0 0 0 0 0 0 
0 0 0 0 0 0 0 0 0 0 0 0 10 12 85 136 125 133 155 170 145 90 59 38 65 90 95 81 116 166 189 203 156 144 139 141 132 105 81 69 69 66 65 59 53 56 54 58 55 57 94 102 69 66 58 71 102 73 51 48 58 72 98 123 144 149 148 148 150 165 173 171 123 62 44 101 169 196 207 227 156 97 101 86 45 137 165 137 104 50 2 0 0 0 0 0 0 0 0 0 0 0 0 0 0 0 0 0 0 0 0 0 0 0 0 0 0 0 0 0 0 0 0 0 0 0 0 0 
0 0 0 0 0 0 0 0 0 0 0 0 9 14 82 133 124 137 161 156 105 85 57 39 58 90 94 72 102 158 187 214 155 138 138 140 135 111 84 74 73 69 63 55 52 55 52 52 50 65 104 87 50 63 56 63 99 87 55 52 70 94 119 128 142 148 147 151 157 164 174 161 102 59 47 118 177 194 202 232 178 98 101 76 39 133 166 134 103 50 2 0 0 0 0 0 0 0 0 0 0 0 0 0 0 0 0 0 0 0 0 0 0 0 0 0 0 0 0 0 0 0 0 0 0 0 0 0 
0 0 0 0 0 0 0 0 0 0 0 0 8 14 77 134 129 147 168 127 87 85 59 43 60 101 144 81 87 145 179 217 170 138 133 139 142 124 100 79 76 66 60 53 50 54 53 52 51 83 97 70 59 55 52 52 87 104 67 73 84 98 110 129 146 150 149 153 156 166 174 143 79 51 54 121 157 181 207 224 187 105 99 64 45 147 165 136 101 47 2 0 0 0 0 0 0 0 0 0 0 0 0 0 0 0 0 0 0 0 0 0 0 0 0 0 0 0 0 0 0 0 0 0 0 0 0 0 
0 0 0 0 0 0 0 0 0 0 0 0 6 15 70 134 133 148 148 101 87 85 65 44 56 119 174 86 74 132 174 212 187 142 138 140 145 140 122 85 65 57 60 78 78 82 66 57 48 104 102 74 58 45 46 58 74 107 75 69 76 89 107 134 149 154 154 159 165 174 170 122 65 45 66 159 179 199 202 216 190 109 101 54 51 143 167 131 97 40 2 0 0 0 0 0 0 0 0 0 0 0 0 0 0 0 0 0 0 0 0 0 0 0 0 0 0 0 0 0 0 0 0 0 0 0 0 0 
0 0 0 0 0 0 0 0 0 0 0 0 1 16 61 135 133 143 130 100 87 84 74 46 58 123 178 94 61 120 168 202 200 152 141 134 138 143 123 83 60 55 55 60 57 69 69 56 63 108 74 54 55 47 49 47 46 87 107 69 77 88 112 133 145 146 151 165 174 177 156 97 51 42 71 151 177 184 193 212 197 114 96 42 58 142 170 129 94 34 1 0 0 0 0 0 0 0 0 0 0 0 0 0 0 0 0 0 0 0 0 0 0 0 0 0 0 0 0 0 0 0 0 0 0 0 0 0 
0 0 0 0 0 0 0 0 0 0 0 0 2 14 52 132 133 149 142 109 88 85 86 51 59 110 170 95 60 108 163 201 212 167 138 133 140 142 118 75 57 54 52 52 55 63 79 53 68 97 71 58 57 66 65 57 50 58 108 91 75 84 114 132 141 148 157 165 170 171 141 78 46 45 88 149 174 166 181 201 203 124 86 34 70 155 160 124 87 26 2 0 0 0 0 0 0 0 0 0 0 0 0 0 0 0 0 0 0 0 0 0 0 0 0 0 0 0 0 0 0 0 0 0 0 0 0 0 
0 0 0 0 0 0 0 0 0 0 0 0 2 14 44 127 135 151 145 113 92 84 88 57 53 92 159 87 57 94 156 196 218 182 140 138 145 143 106 65 47 46 49 48 47 55 78 46 70 87 70 60 62 78 77 61 52 47 78 117 115 98 110 132 144 149 150 158 165 168 129 66 46 51 114 164 156 122 154 205 211 128 69 30 76 170 149 114 79 21 1 0 0 0 0 0 0 0 0 0 0 0 0 0 0 0 0 0 0 0 0 0 0 0 0 0 0 0 0 0 0 0 0 0 0 0 0 0 
0 0 0 0 0 0 0 0 0 9 6 0 0 11 37 119 138 149 151 118 93 86 87 66 48 78 138 76 49 85 149 183 212 202 152 137 143 133 93 60 46 49 52 49 54 93 106 74 84 70 85 74 70 80 73 52 48 49 49 104 116 136 138 138 150 147 144 154 165 162 113 56 44 62 136 149 96 84 124 190 218 132 55 34 88 184 137 101 69 16 1 0 0 0 0 0 0 0 0 0 0 0 0 0 0 0 0 0 0 0 0 0 0 0 0 0 0 0 0 0 0 0 0 0 0 0 0 0 
0 0 0 0 0 0 0 0 0 0 5 3 0 9 29 109 144 143 130 121 96 86 85 73 44 64 121 73 47 73 141 170 188 200 176 146 144 127 93 61 55 61 75 69 63 92 87 58 87 58 98 95 77 81 71 52 50 64 54 85 117 145 150 146 158 158 153 157 164 153 97 49 49 95 126 103 70 77 115 158 218 135 39 37 108 178 122 84 61 12 0 0 0 0 0 0 0 0 0 0 0 0 0 0 0 0 0 0 0 0 0 0 0 0 0 0 0 0 0 0 0 0 0 0 0 0 0 0 
0 0 0 0 0 0 0 0 0 0 0 7 0 6 23 93 136 136 108 123 102 91 82 77 46 58 109 82 47 64 136 165 159 170 190 156 142 127 98 79 56 57 73 92 101 81 68 65 87 59 112 106 94 98 85 60 45 59 61 112 154 154 162 172 162 154 157 170 170 146 85 46 66 130 100 77 61 90 108 135 214 140 34 49 152 167 123 80 50 9 0 0 0 0 0 0 0 0 0 0 0 0 0 0 0 0 0 0 0 0 0 0 0 0 0 0 0 0 0 0 0 0 0 0 0 0 0 0 
0 0 0 0 0 0 0 0 0 0 0 7 1 4 24 81 132 134 90 109 111 92 82 82 53 55 117 90 58 63 124 162 157 154 169 152 139 133 115 94 90 96 107 117 99 94 67 76 83 82 124 114 106 113 107 72 52 54 64 117 151 163 178 188 180 169 156 162 173 158 108 90 120 123 81 71 68 102 98 121 206 144 38 99 168 164 133 80 47 6 0 0 0 10 9 0 0 0 0 0 0 0 0 0 0 0 0 0 0 0 0 0 0 0 0 0 0 0 0 0 0 0 0 0 0 0 0 0 
0 0 0 0 0 0 0 0 0 0 0 5 7 4 20 76 121 133 114 99 131 102 85 85 63 89 150 85 72 54 112 166 159 151 154 147 161 175 165 144 126 121 103 104 106 84 49 70 90 97 133 131 126 128 124 88 64 55 71 103 141 162 169 176 167 174 187 190 183 146 91 100 123 89 76 80 86 110 91 120 192 153 83 149 139 158 112 79 47 4 0 0 3 0 0 0 0 0 0 0 0 0 0 0 0 0 0 0 0 0 0 0 0 0 0 0 0 0 0 0 0 0 0 0 0 0 0 0 
0 0 0 0 0 0 0 0 0 0 0 1 8 6 17 72 101 131 106 88 127 105 91 88 89 157 149 81 75 76 96 167 172 159 160 163 181 177 177 168 157 141 152 155 132 86 53 72 98 115 137 141 137 145 137 102 72 63 79 105 140 162 172 179 175 189 216 232 210 159 101 54 94 84 79 107 119 119 101 113 175 169 132 176 167 131 73 85 49 3 0 0 2 0 0 0 0 0 0 0 0 0 0 0 0 0 0 0 0 0 0 0 0 0 0 0 0 0 0 0 0 0 0 0 0 0 0 0 
0 0 0 0 0 0 0 0 0 0 0 0 7 7 11 69 93 128 108 81 129 99 91 89 125 172 130 76 68 70 93 154 189 173 156 155 167 173 177 154 131 107 99 111 119 98 81 86 130 137 152 152 147 150 145 119 106 99 122 134 137 145 165 172 168 182 207 225 188 101 46 51 80 93 114 119 145 146 140 120 155 196 184 199 160 101 45 93 47 1 0 1 0 0 0 0 0 0 0 0 0 0 0 0 0 0 0 0 0 0 0 0 0 0 0 0 0 0 0 0 0 0 0 0 0 0 0 0 
0 0 0 0 0 0 0 0 0 0 0 0 7 7 10 63 97 127 128 82 133 119 95 94 139 162 105 80 80 81 120 103 135 176 187 200 226 214 188 172 151 110 94 93 113 112 99 118 153 159 149 154 146 156 162 153 116 116 134 143 154 157 165 161 163 167 170 154 119 44 31 84 100 86 95 147 178 156 126 114 146 200 193 158 138 87 57 95 34 3 2 0 0 0 0 0 0 0 0 0 0 0 0 0 0 0 0 0 0 0 0 0 0 0 0 0 0 0 0 0 0 0 0 0 0 0 0 0 
0 0 0 0 0 0 0 0 0 0 0 0 9 6 7 46 97 114 134 107 136 141 78 102 161 164 130 96 80 64 63 51 58 142 205 214 231 212 182 171 154 120 113 126 147 137 137 144 154 145 133 157 160 172 160 141 118 131 149 158 158 165 173 174 180 172 149 99 72 55 43 95 77 99 96 143 166 161 137 122 155 212 180 120 120 76 80 87 16 4 1 0 0 0 0 0 0 0 0 0 0 0 0 0 0 0 0 0 0 0 0 0 0 0 0 0 0 0 0 0 0 0 0 0 0 0 0 0 
0 0 0 0 0 0 0 0 0 0 0 0 10 6 5 15 67 95 111 102 132 162 101 50 119 177 146 73 102 80 45 32 33 60 134 168 195 219 186 167 168 158 142 145 159 160 168 159 153 126 112 123 144 165 159 152 134 132 146 165 175 171 181 178 192 197 142 76 41 69 87 121 85 85 86 126 141 139 130 135 145 190 182 101 116 77 36 83 19 2 6 0 0 0 0 0 0 0 0 0 0 0 0 0 0 0 0 0 0 0 0 0 0 0 0 0 0 0 0 0 0 0 0 0 0 0 0 0 
0 0 0 0 0 0 0 0 0 0 0 5 8 6 8 12 39 85 108 119 113 157 159 151 190 216 188 149 115 57 34 29 31 35 108 168 184 213 197 178 173 181 169 150 156 172 183 164 137 110 102 112 135 147 153 149 144 160 160 163 171 167 186 207 214 197 110 51 40 68 130 174 139 114 110 131 156 140 123 111 136 198 182 141 114 46 70 65 10 4 7 3 0 0 0 0 0 0 0 0 0 0 0 0 0 0 0 0 0 0 0 0 0 0 0 0 0 0 0 0 0 0 0 0 0 0 0 0 
0 0 0 0 0 0 0 0 0 0 0 5 7 8 12 14 25 81 103 101 92 106 155 147 173 226 225 169 105 45 38 34 31 29 57 137 135 184 207 185 176 177 167 154 158 163 173 156 144 120 123 106 118 137 149 150 152 171 169 163 172 181 186 190 175 129 71 44 42 89 166 180 151 116 113 125 143 123 110 102 167 181 180 149 119 74 83 32 8 3 7 9 0 0 0 0 0 0 0 0 0 0 0 0 0 0 0 0 0 0 0 0 0 0 0 0 0 0 0 0 0 0 0 0 0 0 0 0 
0 0 0 0 0 0 0 0 0 0 0 0 8 8 11 19 23 65 91 82 93 110 105 110 146 165 176 156 133 98 52 33 30 30 33 77 69 119 197 203 200 195 180 171 166 174 185 169 178 149 128 118 142 155 155 162 164 190 178 174 186 197 183 134 80 47 49 45 42 72 173 172 149 125 105 112 98 89 113 143 166 123 139 140 101 106 74 18 4 2 2 8 5 0 0 0 0 0 0 0 0 0 0 0 0 0 0 0 0 0 0 0 0 0 0 0 0 0 0 0 0 0 0 0 0 0 0 0 
0 0 0 0 0 0 0 0 0 0 0 0 0 2 12 26 27 38 88 79 92 121 91 98 132 106 123 157 159 143 115 59 37 76 41 45 51 64 141 174 189 177 190 193 183 182 192 184 193 154 112 114 148 166 164 171 175 202 194 188 182 166 125 74 48 44 46 46 44 56 150 183 182 139 110 98 59 72 151 176 152 117 121 134 64 97 51 27 13 7 0 6 9 0 0 0 0 0 0 0 0 0 0 0 0 0 0 0 0 0 0 0 0 0 0 0 0 0 0 0 0 0 0 0 0 0 0 0 
0 0 0 0 0 0 0 0 0 0 0 0 0 0 18 22 17 11 67 42 75 116 99 112 138 134 93 158 199 202 195 193 173 59 56 89 80 60 72 85 81 114 150 170 160 151 158 142 156 142 117 109 106 114 123 127 129 161 154 141 137 104 81 72 46 42 43 44 48 80 120 189 200 163 115 73 37 90 153 120 116 106 157 109 62 76 19 29 22 13 3 1 1 0 0 0 0 0 0 0 0 0 0 0 0 0 0 0 0 0 0 0 0 0 0 0 0 0 0 0 0 0 0 0 0 0 0 0 
0 0 0 0 0 0 0 0 0 0 0 0 0 0 12 14 6 3 43 51 51 93 108 101 139 148 126 158 180 192 197 174 146 109 119 122 123 72 46 79 49 52 61 73 104 102 99 89 130 147 144 135 114 104 122 96 110 140 130 103 94 78 67 86 55 42 44 51 82 109 106 153 205 175 98 46 38 101 129 112 115 119 158 52 78 45 5 18 23 20 6 0 0 0 0 0 0 0 0 0 0 0 0 0 0 0 0 0 0 0 0 0 0 0 0 0 0 0 0 0 0 0 0 0 0 0 0 0 
0 0 0 0 0 0 0 0 0 0 0 0 0 0 3 6 5 2 18 84 64 40 90 90 117 124 152 135 136 144 179 187 177 146 87 76 77 66 44 49 55 42 44 49 78 133 106 105 135 162 144 125 125 133 130 117 114 126 124 115 106 83 96 102 81 64 72 94 104 117 105 123 182 169 91 41 65 109 113 99 125 139 103 48 83 20 4 10 19 23 11 0 0 0 0 0 0 0 0 0 0 0 0 0 0 0 0 0 0 0 0 0 0 0 0 0 0 0 0 0 0 0 0 0 0 0 0 0 
0 0 0 0 0 0 0 0 0 0 0 0 0 0 0 0 6 1 4 59 53 27 64 102 119 107 139 137 112 121 164 184 182 138 103 99 88 73 60 56 73 53 60 60 100 167 158 132 137 146 145 152 149 141 153 165 178 159 139 136 149 139 112 114 123 102 98 104 123 132 115 123 150 147 108 74 106 118 125 106 92 76 41 31 68 9 4 6 11 23 15 0 0 0 0 0 0 0 0 0 0 0 0 0 0 0 0 0 0 0 0 0 0 0 0 0 0 0 0 0 0 0 0 0 0 0 0 0 
0 0 0 0 0 0 0 0 0 0 0 1 0 0 0 3 6 3 0 36 52 17 30 78 100 107 96 140 122 97 136 158 164 130 111 104 99 93 91 91 102 111 124 143 167 163 120 112 129 132 130 110 89 92 118 150 146 120 100 100 121 159 145 109 129 170 175 167 143 125 88 88 105 119 128 114 129 114 112 99 66 34 22 33 74 9 3 6 4 9 4 0 0 0 0 0 0 0 0 0 0 0 0 0 0 0 0 0 0 0 0 0 0 0 0 0 0 0 0 0 0 0 0 0 0 0 0 0 
0 0 0 0 0 0 0 0 0 0 2 9 9 2 0 6 6 5 2 23 65 48 29 38 79 91 100 123 148 120 125 139 105 111 98 114 113 108 104 107 106 109 110 151 181 169 127 111 113 111 125 120 112 113 116 132 144 132 109 105 110 134 164 145 160 204 209 161 131 95 41 64 119 117 130 151 127 127 93 76 31 24 30 67 79 17 2 0 7 6 2 0 0 0 0 0 0 0 0 0 0 0 0 0 0 0 0 0 0 0 0 0 0 0 0 0 0 0 0 0 0 0 0 0 0 0 0 0 
0 0 0 0 0 0 0 0 0 0 0 6 8 13 26 23 16 13 7 15 74 57 25 57 101 117 91 115 150 165 129 123 122 99 58 59 80 92 106 115 118 118 115 139 158 168 161 144 125 141 156 138 128 112 119 126 150 164 142 118 118 119 143 177 180 201 187 130 119 126 60 76 96 115 153 156 140 145 75 33 22 22 57 92 58 18 9 6 16 20 9 0 0 0 0 0 0 0 0 0 0 0 0 0 0 0 0 0 0 0 0 0 0 0 0 0 0 0 0 0 0 0 0 0 0 0 0 0 
0 0 0 0 0 0 0 0 0 0 0 4 10 9 17 14 16 16 17 15 43 84 68 87 90 76 105 109 145 169 166 94 79 59 41 46 48 53 59 65 76 89 108 119 119 151 167 153 139 158 137 176 191 147 121 110 105 112 145 120 92 78 109 162 177 183 176 122 106 162 98 76 95 122 158 157 140 127 61 43 24 19 29 73 26 18 16 15 17 26 9 0 0 0 0 0 0 0 0 0 0 0 0 0 0 0 0 0 0 0 0 0 0 0 0 0 0 0 0 0 0 0 0 0 0 0 0 0 
0 0 0 0 0 0 0 0 0 0 0 3 10 8 0 10 13 13 19 22 20 51 94 92 92 88 82 78 134 159 187 166 94 57 48 50 54 56 57 68 93 99 87 79 67 95 143 129 103 100 112 142 126 159 102 57 53 69 110 94 96 125 139 164 173 184 189 124 106 127 169 189 169 166 158 123 78 75 37 46 37 22 79 39 17 11 14 15 13 8 11 9 10 11 5 0 0 0 0 0 0 0 0 0 0 0 0 0 0 0 0 0 0 0 0 0 0 0 0 0 0 0 0 0 0 0 0 0 
0 0 0 0 0 0 0 0 0 0 0 0 9 6 0 1 13 13 14 19 16 19 57 97 95 85 80 68 112 128 161 174 179 164 149 128 126 159 210 246 228 115 128 118 110 94 142 141 124 112 124 113 120 127 126 97 72 78 88 93 131 121 132 176 167 178 218 139 123 131 171 229 200 156 133 105 59 72 32 27 64 98 57 12 6 0 2 6 5 0 0 4 6 8 1 0 0 0 0 0 0 0 0 0 0 0 0 0 0 0 0 0 0 0 0 0 0 0 0 0 0 0 0 0 0 0 0 0 
0 0 0 0 0 0 0 0 0 0 0 0 3 4 1 0 1 11 8 1 6 6 19 68 63 46 48 57 80 100 93 111 159 182 178 181 189 212 194 154 156 147 152 156 198 149 173 180 157 149 139 144 133 147 151 153 161 181 183 175 166 171 203 231 233 107 237 171 168 122 110 88 53 45 62 44 37 36 4 9 22 31 22 25 14 0 0 5 2 0 0 1 5 1 0 0 0 0 0 0 0 0 0 0 0 0 0 0 0 0 0 0 0 0 0 0 0 0 0 0 0 0 0 0 0 0 0 0 
0 0 0 0 0 0 0 0 0 0 0 0 0 0 0 0 0 0 7 1 8 10 16 30 41 36 18 7 40 49 76 90 114 109 107 120 138 144 126 125 133 130 150 239 141 122 159 209 177 147 125 147 140 149 159 112 89 122 145 180 206 205 183 141 140 167 200 206 142 117 82 52 53 79 107 98 83 64 15 6 23 39 32 25 9 0 0 1 0 0 0 3 5 0 0 0 0 0 0 0 0 0 0 0 0 0 0 0 0 0 0 0 0 0 0 0 0 0 0 0 0 0 0 0 0 0 0 0 
0 0 0 0 0 0 0 0 0 0 0 0 0 0 0 0 0 0 5 13 12 16 19 20 24 24 22 20 46 49 47 42 40 38 48 64 80 92 63 47 50 72 79 73 70 106 98 123 117 92 78 77 100 99 92 97 66 69 119 155 120 104 94 98 71 117 114 71 104 101 65 50 51 54 53 26 45 51 21 21 22 27 23 15 11 0 0 0 0 0 0 7 4 0 0 0 0 0 0 0 0 0 0 0 0 0 0 0 0 0 0 0 0 0 0 0 0 0 0 0 0 0 0 0 0 0 0 0 
0 0 0 0 0 0 0 0 0 0 0 0 0 0 0 0 0 0 0 3 12 14 9 13 21 20 18 17 39 54 35 64 38 52 62 49 42 58 114 156 158 108 88 79 78 101 99 129 113 76 64 86 121 105 108 140 102 75 101 124 90 89 79 74 79 126 95 118 172 138 76 72 46 44 64 31 52 46 21 24 23 24 16 12 5 0 0 0 0 0 0 0 0 0 0 0 0 0 0 0 0 0 0 0 0 0 0 0 0 0 0 0 0 0 0 0 0 0 0 0 0 0 0 0 0 0 0 0 
0 0 0 0 0 0 0 0 0 0 0 0 0 0 0 0 0 0 0 0 11 17 13 9 17 25 24 21 42 72 41 59 36 47 42 39 25 114 147 122 86 200 98 87 71 74 101 141 121 61 82 119 150 136 140 143 89 60 101 137 86 79 81 77 77 157 124 139 72 155 194 224 163 114 93 56 62 54 37 36 33 21 3 5 0 0 0 0 0 0 0 0 0 0 0 0 0 0 0 0 0 0 0 0 0 0 0 0 0 0 0 0 0 0 0 0 0 0 0 0 0 0 0 0 0 0 0 0 
0 0 0 0 0 0 0 0 0 0 0 0 0 0 0 0 0 0 0 0 2 8 1 1 7 23 22 23 46 76 51 67 44 76 141 213 241 135 134 124 84 128 204 132 71 127 141 165 155 77 75 96 143 147 134 110 70 50 60 104 110 85 51 62 87 153 58 92 72 49 79 228 234 221 180 134 115 81 61 49 43 22 1 1 0 0 0 0 0 0 0 0 0 0 0 0 0 0 0 0 0 0 0 0 0 0 0 0 0 0 0 0 0 0 0 0 0 0 0 0 0 0 0 0 0 0 0 0 
0 0 0 0 0 0 0 0 0 0 0 0 0 0 0 0 0 0 0 0 0 0 0 1 9 22 13 8 14 46 27 56 82 108 135 196 206 93 194 176 151 178 188 93 63 161 162 142 162 190 149 121 137 136 156 161 140 103 71 77 70 63 72 88 111 147 142 108 71 88 65 146 181 145 96 66 75 26 19 33 40 9 0 2 0 0 0 0 0 0 0 0 0 0 0 0 0 0 0 0 0 0 0 0 0 0 0 0 0 0 0 0 0 0 0 0 0 0 0 0 0 0 0 0 0 0 0 0 
0 0 0 0 0 0 0 0 0 0 0 0 0 0 0 0 0 0 0 0 0 1 6 2 2 9 20 16 19 56 53 53 53 43 39 77 157 191 109 101 188 232 166 101 145 168 165 207 207 185 178 179 184 169 159 159 132 97 79 104 136 139 135 163 104 186 139 102 99 125 148 78 35 17 38 54 86 45 43 45 36 0 5 4 0 0 0 0 0 0 0 0 0 0 0 0 0 0 0 0 0 0 0 0 0 0 0 0 0 0 0 0 0 0 0 0 0 0 0 0 0 0 0 0 0 0 0 0 
0 0 0 0 0 0 0 0 0 0 0 0 0 0 0 0 0 0 0 0 0 0 12 14 2 5 26 18 20 48 75 62 53 34 28 30 48 116 218 230 235 251 218 140 88 165 174 157 90 96 115 110 114 141 125 112 118 101 91 115 113 109 123 127 128 117 92 94 61 37 28 20 30 32 54 67 78 29 24 13 6 8 13 4 0 0 0 0 0 0 0 0 0 0 0 0 0 0 0 0 0 0 0 0 0 0 0 0 0 0 0 0 0 0 0 0 0 0 0 0 0 0 0 0 0 0 0 0 
0 0 0 0 0 0 0 0 0 0 0 0 0 0 0 0 0 0 0 0 0 0 7 15 11 7 22 20 20 35 79 78 76 35 44 90 101 88 113 195 188 159 136 110 103 150 144 125 104 83 78 74 68 74 99 109 108 136 135 130 113 75 77 70 85 131 163 169 136 124 96 56 44 43 61 77 81 29 21 20 14 11 14 3 0 0 0 0 0 0 0 0 0 0 0 0 0 0 0 0 0 0 0 0 0 0 0 0 0 0 0 0 0 0 0 0 0 0 0 0 0 0 0 0 0 0 0 0 
0 0 0 0 0 0 0 0 0 0 0 0 0 0 0 0 0 0 0 0 0 0 4 13 16 8 17 21 22 28 79 70 88 44 67 159 150 125 93 118 96 75 113 117 92 137 129 108 108 110 81 62 56 69 100 81 73 101 139 144 121 121 131 118 94 99 133 147 161 139 129 132 138 114 79 82 83 35 22 19 14 11 13 1 0 0 0 0 0 0 0 0 0 0 0 0 0 0 0 0 0 0 0 0 0 0 0 0 0 0 0 0 0 0 0 0 0 0 0 0 0 0 0 0 0 0 0 0 
0 0 0 0 0 0 0 0 0 0 0 0 0 0 0 0 0 0 0 0 0 0 0 11 14 11 11 21 22 26 72 63 80 44 97 171 97 66 37 47 57 58 98 130 88 131 125 97 98 111 105 74 68 78 76 65 53 71 120 155 168 156 144 131 90 89 150 125 165 163 124 108 135 179 117 80 72 39 23 15 10 13 10 0 0 0 0 0 0 0 0 0 0 0 0 0 0 0 0 0 0 0 0 0 0 0 0 0 0 0 0 0 0 0 0 0 0 0 0 0 0 0 0 0 0 0 0 0 
0 0 0 0 0 0 0 0 0 0 0 0 0 0 0 0 0 0 0 0 0 0 0 0 13 13 11 19 23 28 65 51 78 45 105 164 67 40 33 36 38 46 111 152 103 115 104 107 139 97 111 122 91 63 52 59 58 73 123 158 153 121 134 142 124 107 170 129 101 154 137 99 94 176 141 76 64 53 23 15 10 13 8 0 0 0 0 0 0 0 0 0 0 0 0 0 0 0 0 0 0 0 0 0 0 0 0 0 0 0 0 0 0 0 0 0 0 0 0 0 0 0 0 0 0 0 0 0 
0 0 0 0 0 0 0 0 0 0 0 0 0 0 0 0 0 0 0 0 0 0 0 0 5 10 14 18 23 27 53 39 74 34 92 164 64 42 37 32 33 66 139 127 93 84 93 87 127 111 118 141 104 68 61 63 67 94 145 159 127 94 109 117 133 108 130 135 78 86 95 66 59 167 138 73 71 60 23 12 12 12 4 0 0 0 0 0 0 0 0 0 0 0 0 0 0 0 0 0 0 0 0 0 0 0 0 0 0 0 0 0 0 0 0 0 0 0 0 0 0 0 0 0 0 0 0 0 
0 0 0 0 0 0 0 0 0 0 0 0 0 0 0 0 0 0 0 0 0 0 0 0 1 11 11 14 17 20 45 69 68 25 75 158 73 46 44 38 40 84 100 69 52 75 95 71 62 75 124 134 125 104 83 84 104 140 161 163 148 102 84 94 90 61 63 97 96 64 61 57 59 161 127 39 66 35 16 10 13 11 3 0 0 0 0 0 0 0 0 0 0 0 0 0 0 0 0 0 0 0 0 0 0 0 0 0 0 0 0 0 0 0 0 0 0 0 0 0 0 0 0 0 0 0 0 0 
0 0 0 0 0 0 0 0 0 0 0 0 0 0 0 0 0 0 0 0 0 0 0 0 0 14 5 9 14 15 19 36 27 16 54 148 83 47 40 37 44 57 40 43 47 71 101 68 54 75 126 150 151 145 141 144 155 162 158 151 128 83 68 85 86 54 44 48 74 61 43 42 70 173 114 22 19 19 14 11 13 9 1 0 0 0 0 0 0 0 0 0 0 0 0 0 0 0 0 0 0 0 0 0 0 0 0 0 0 0 0 0 0 0 0 0 0 0 0 0 0 0 0 0 0 0 0 0 
0 0 0 0 0 0 0 0 0 0 0 0 0 0 0 0 0 0 0 0 0 0 0 0 0 0 11 3 11 15 18 20 14 12 19 138 109 49 35 41 56 49 34 48 53 61 103 85 65 77 75 92 122 134 126 150 183 168 129 107 114 76 69 89 79 50 44 38 66 69 40 46 85 183 90 17 20 18 15 12 9 5 0 0 0 0 0 0 0 0 0 0 0 0 0 0 0 0 0 0 0 0 0 0 0 0 0 0 0 0 0 0 0 0 0 0 0 0 0 0 0 0 0 0 0 0 0 0 
0 0 0 0 0 0 0 0 0 0 0 0 0 0 0 0 0 0 0 0 0 0 0 0 0 0 5 5 5 14 13 22 18 13 12 78 167 117 74 80 77 48 34 49 58 59 96 108 96 93 93 94 102 117 136 152 176 165 107 95 135 125 85 100 86 53 44 32 59 81 88 98 151 182 37 13 16 15 15 9 4 3 0 0 0 0 0 0 0 0 0 0 0 0 0 0 0 0 0 0 0 0 0 0 0 0 0 0 0 0 0 0 0 0 0 0 0 0 0 0 0 0 0 0 0 0 0 0 
0 0 0 0 0 0 0 0 0 0 0 0 0 0 0 0 0 0 0 0 0 0 0 0 0 0 1 11 2 8 13 15 18 12 11 18 103 184 173 144 74 36 38 50 56 61 100 113 91 69 74 88 96 108 129 152 160 147 120 90 109 136 112 120 111 77 49 38 44 71 139 195 189 84 8 9 12 14 12 6 1 2 0 0 0 0 0 0 0 0 0 0 0 0 0 0 0 0 0 0 0 0 0 0 0 0 0 0 0 0 0 0 0 0 0 0 0 0 0 0 0 0 0 0 0 0 0 0 
0 0 0 0 0 0 0 0 0 0 0 0 0 0 0 0 0 0 0 0 0 0 0 0 0 0 0 12 3 3 9 13 15 10 10 3 5 60 124 118 53 29 32 46 46 57 96 122 96 73 66 79 91 114 135 149 142 141 138 116 95 100 102 123 115 68 59 39 30 38 96 119 64 30 11 5 12 13 7 6 2 3 0 0 0 0 0 0 0 0 0 0 0 0 0 0 0 0 0 0 0 0 0 0 0 0 0 0 0 0 0 0 0 0 0 0 0 0 0 0 0 0 0 0 0 0 0 0 
0 0 0 0 0 0 0 0 0 0 0 0 0 0 0 0 0 0 0 0 0 0 0 0 0 0 0 5 10 0 5 8 15 20 10 3 5 20 26 27 33 34 30 33 37 49 100 122 89 70 59 74 104 138 149 151 144 143 145 144 116 83 82 120 121 81 69 43 28 23 21 29 38 29 13 7 15 14 10 8 2 3 0 0 0 0 0 0 0 0 0 0 0 0 0 0 0 0 0 0 0 0 0 0 0 0 0 0 0 0 0 0 0 0 0 0 0 0 0 0 0 0 0 0 0 0 0 0 
0 0 0 0 0 0 0 0 0 0 0 0 0 0 0 0 0 0 0 0 0 0 0 0 0 0 0 0 6 6 5 6 10 16 12 6 8 19 25 25 32 34 30 29 34 49 93 117 102 88 99 112 138 158 149 149 148 150 153 163 145 80 97 123 116 96 94 41 26 26 23 30 36 22 13 11 20 17 15 11 5 3 0 0 0 0 0 0 0 0 0 0 0 0 0 0 0 0 0 0 0 0 0 0 0 0 0 0 0 0 0 0 0 0 0 0 0 0 0 0 0 0 0 0 0 0 0 0 
0 0 0 0 0 0 0 0 0 0 0 0 0 0 0 0 0 0 0 0 0 0 0 0 0 0 0 0 0 8 5 3 10 11 10 8 8 19 24 24 33 31 27 29 33 46 78 115 116 118 134 133 140 147 142 135 132 137 154 161 151 120 119 127 105 70 60 34 23 23 23 32 33 19 11 14 20 19 18 14 8 3 0 0 0 0 0 0 0 0 0 0 0 0 0 0 0 0 0 0 0 0 0 0 0 0 0 0 0 0 0 0 0 0 0 0 0 0 0 0 0 0 0 0 0 0 0 0 
0 0 0 0 0 0 0 0 0 0 0 0 0 0 0 0 0 0 0 0 0 0 0 0 0 0 0 0 0 1 9 2 10 10 13 11 8 22 24 25 37 29 28 31 35 44 58 89 118 122 127 117 112 125 129 127 127 128 145 156 172 139 124 111 62 42 38 30 27 26 20 27 27 17 13 17 21 20 18 16 9 1 0 0 0 0 0 0 0 0 0 0 0 0 0 0 0 0 0 0 0 0 0 0 0 0 0 0 0 0 0 0 0 0 0 0 0 0 0 0 0 0 0 0 0 0 0 0 
