P2
128 99
214
0 0 0 0 0 0 0 0 0 0 0 0 0 0 0 0 0 0 0 0 0 0 0 0 0 0 0 0 0 0 0 0 1 1 0 0 0 0 0 0 0 0 0 0 0 0 0 0 0 0 0 0 0 0 0 0 0 0 0 0 0 0 0 0 0 0 0 0 0 0 0 0 0 0 0 0 0 0 0 0 0 0 0 0 0 0 0 0 0 0 0 0 0 1 1 1 2 0 0 0 0 0 0 0 0 0 0 0 0 0 0 0 0 0 0 0 0 0 0 0 0 0 0 0 0 0 0 0 
0 0 0 0 0 0 0 0 0 0 0 0 0 0 0 0 0 0 0 0 0 0 0 0 0 0 0 0 0 0 0 0 0 1 0 0 0 1 0 0 0 0 0 0 0 0 0 0 0 0 0 0 0 0 0 0 0 0 0 0 0 0 0 0 0 0 0 0 0 0 0 0 0 0 0 0 0 0 0 0 0 0 0 0 0 0 0 0 0 0 0 0 0 1 1 1 1 0 0 0 0 0 0 0 0 0 0 0 0 0 0 0 0 0 0 0 0 0 0 0 0 0 0 0 0 0 0 0 
0 0 0 0 0 0 0 0 0 0 0 0 0 0 0 0 0 0 0 0 0 0 0 0 0 0 0 0 0 0 0 0 0 1 0 0 0 0 0 0 0 0 0 0 0 0 0 0 0 0 1 2 2 2 1 0 0 0 0 0 0 0 0 0 0 0 0 0 0 0 0 0 0 0 0 0 0 0 0 0 0 0 0 0 0 0 0 0 0 0 0 0 0 1 1 1 1 0 0 0 0 0 0 0 0 0 0 0 0 0 0 0 0 0 0 0 0 0 0 0 0 0 0 0 0 0 0 0 
0 0 0 0 0 0 0 0 0 0 0 0 0 0 0 0 0 0 0 0 0 0 0 0 0 0 0 0 0 0 0 0 0 1 0 0 0 0 0 0 0 0 0 1 7 13 17 18 18 19 22 25 28 27 25 21 18 16 14 12 4 0 0 0 0 0 0 0 0 0 0 0 0 0 0 0 0 0 0 0 0 0 0 0 0 0 0 0 0 0 0 0 0 1 1 1 1 0 0 0 0 0 0 0 0 0 0 0 0 0 0 0 0 0 0 0 0 0 0 0 0 0 0 0 0 0 0 0 
0 0 0 0 0 0 0 0 0 0 0 0 0 0 0 0 0 0 0 0 0 0 0 0 0 0 0 0 0 0 0 0 0 0 0 0 0 0 0 0 6 13 19 23 24 33 54 78 101 122 139 150 155 156 152 142 125 104 80 54 33 22 17 10 2 0 0 0 0 0 0 0 0 0 0 0 0 0 0 0 0 0 0 0 0 0 0 0 0 0 0 0 0 1 1 1 1 0 0 0 0 0 0 0 0 0 0 0 0 0 0 0 0 0 0 0 0 0 0 0 0 0 0 0 0 0 0 0 
0 0 0 0 0 0 0 0 0 0 0 0 0 0 0 0 0 0 0 0 0 0 0 0 0 0 0 0 0 0 0 0 0 0 0 0 0 1 9 17 24 25 36 68 112 151 174 184 189 192 193 192 190 190 191 191 191 188 182 172 152 119 79 44 23 16 10 1 0 0 0 0 0 0 0 0 0 0 0 0 0 0 0 0 0 0 0 0 0 0 0 0 0 1 1 1 1 0 0 0 0 0 0 0 0 0 0 0 0 0 0 0 0 0 0 0 0 0 0 0 0 0 0 0 0 0 0 0 
0 0 0 0 0 0 0 0 0 0 0 0 0 0 0 0 0 0 0 0 0 0 0 0 0 0 0 0 0 0 0 0 0 0 0 0 9 22 24 26 52 104 154 181 191 193 194 195 197 199 202 203 203 202 203 202 201 198 195 192 191 187 177 158 123 77 39 18 13 2 0 0 0 0 0 0 0 0 0 0 0 0 0 0 0 0 0 0 0 0 0 0 0 1 1 1 1 0 0 0 0 0 0 0 0 0 0 0 0 0 0 0 0 0 0 0 0 0 0 0 0 0 0 0 0 0 0 0 
0 0 0 0 0 0 0 0 0 0 0 0 0 0 0 0 0 0 0 0 0 0 0 0 0 0 0 0 0 0 0 0 0 0 8 24 25 26 63 126 170 188 193 195 197 200 198 191 185 182 185 192 190 177 175 188 202 207 206 201 198 195 193 192 188 176 150 101 49 22 14 1 0 0 0 0 0 0 0 0 0 0 0 0 0 0 0 0 0 0 0 0 0 1 1 1 2 0 0 0 0 0 0 0 0 0 0 0 0 0 0 0 0 0 0 0 0 0 0 0 0 0 0 0 0 0 0 0 
0 0 0 0 0 0 0 0 0 0 0 0 0 0 0 0 0 0 0 0 0 0 0 0 0 0 0 0 0 0 0 0 5 27 25 23 59 130 175 187 189 193 197 200 198 189 180 168 159 156 157 159 156 149 151 156 165 183 202 210 208 204 200 197 194 193 191 184 158 104 45 23 10 0 0 0 0 0 0 0 0 0 0 0 0 0 0 0 0 0 0 0 0 1 1 1 1 0 0 0 0 0 0 0 0 0 0 0 0 0 0 0 0 0 0 0 0 0 0 0 0 0 0 0 0 0 0 0 
0 0 0 0 0 0 0 0 0 0 0 0 0 0 0 0 0 0 0 0 0 0 0 0 0 0 0 0 0 0 0 24 26 22 41 113 172 185 187 190 195 200 197 182 167 162 155 145 140 137 142 149 150 146 149 152 154 157 169 188 207 212 210 207 203 198 195 193 192 183 150 80 31 19 2 0 0 0 0 0 0 0 0 0 0 0 0 0 0 0 0 0 0 1 1 1 2 0 0 0 0 0 0 0 0 0 0 0 0 0 0 0 0 0 0 0 0 0 0 0 0 0 0 0 0 0 0 0 
0 0 0 0 0 0 0 0 0 0 0 0 0 0 0 0 0 0 0 0 0 0 0 0 0 0 0 0 0 10 28 22 26 84 160 184 187 190 194 200 203 191 173 167 162 154 148 141 137 136 136 141 140 139 143 148 148 147 151 158 174 194 208 213 212 208 203 199 195 194 192 177 121 46 23 6 0 0 0 0 0 0 0 0 0 0 0 0 0 1 0 0 0 1 1 1 2 0 0 0 0 0 0 0 0 0 0 0 0 0 0 0 0 0 0 0 0 0 0 0 0 0 0 0 0 0 0 0 
0 0 0 0 0 0 0 0 0 0 0 0 0 0 0 0 0 0 0 0 0 0 0 0 0 0 0 0 22 25 18 48 134 179 184 189 196 200 204 199 183 173 166 160 157 153 150 145 143 140 134 136 134 133 143 149 149 148 150 154 160 171 187 200 210 214 212 208 203 200 197 195 187 153 69 24 11 0 0 0 0 0 0 0 0 0 0 0 0 1 0 0 0 1 1 1 2 0 0 0 0 0 0 0 0 0 0 0 0 0 0 0 0 0 0 0 0 0 0 0 0 0 0 0 0 0 0 0 
0 0 0 0 0 0 0 0 0 0 0 0 0 0 0 0 0 0 0 0 0 0 0 0 0 0 5 26 21 19 77 160 181 188 194 200 205 205 192 178 172 167 160 157 152 151 151 147 148 140 131 129 127 127 138 147 147 148 150 152 155 164 174 182 192 202 211 214 212 207 202 198 194 187 164 86 25 13 0 0 0 0 0 0 0 0 0 0 0 1 0 0 0 1 1 1 2 1 0 0 0 0 0 0 0 0 0 0 0 0 0 0 0 0 0 0 0 0 0 0 0 0 0 0 0 0 0 0 
0 0 0 0 0 0 0 0 0 0 0 0 0 0 0 0 0 0 0 0 0 0 0 0 0 10 25 18 26 102 170 182 192 199 204 207 201 185 176 170 167 162 157 153 150 150 151 150 141 135 126 125 122 123 128 139 149 152 153 154 154 157 163 171 177 183 191 202 211 214 210 204 198 192 187 170 96 27 14 0 0 0 0 0 0 0 0 0 0 0 0 0 0 1 1 1 2 1 0 0 0 0 0 0 0 0 0 0 0 0 0 0 0 0 0 0 0 0 0 0 0 0 0 0 0 0 0 0 
0 0 0 0 0 0 0 0 0 0 0 0 0 0 0 0 0 0 0 0 0 0 0 0 14 23 16 34 119 172 183 194 202 207 204 192 179 173 170 166 162 159 157 154 149 147 139 132 131 126 123 122 119 123 124 125 134 146 150 149 150 151 155 160 165 170 175 180 188 200 209 211 206 199 192 189 173 106 30 13 0 0 0 0 0 0 0 0 0 1 0 0 0 1 1 1 2 1 0 0 0 0 0 0 0 0 0 0 0 0 0 0 0 0 0 0 0 0 0 0 0 0 0 0 0 0 0 0 
0 0 0 0 0 0 0 0 0 0 0 0 0 0 0 0 0 0 0 0 0 0 3 19 20 15 45 131 169 184 197 203 207 196 181 173 171 169 166 162 158 153 148 140 136 129 124 124 121 121 121 119 117 122 124 124 124 127 137 145 146 145 147 153 159 161 165 166 170 177 188 202 208 206 199 191 188 175 119 36 12 0 0 0 0 0 0 0 0 1 0 0 0 1 1 1 2 1 0 0 0 0 0 0 0 0 0 0 0 0 0 0 0 0 0 0 0 0 0 0 0 0 0 0 0 0 0 0 
0 0 0 0 0 0 0 0 0 0 0 0 0 0 0 0 0 0 0 0 0 5 17 17 16 57 140 168 185 198 205 204 186 174 169 167 165 164 161 157 152 144 139 136 127 121 121 118 120 120 120 116 114 121 123 124 124 124 125 129 132 133 137 143 149 152 155 159 164 167 170 176 192 204 206 199 194 189 175 127 39 9 0 0 0 0 0 0 0 1 0 0 0 1 1 1 2 1 0 0 0 0 0 0 0 0 0 0 0 0 0 0 0 0 0 0 0 0 0 0 0 0 0 0 0 0 0 0 
0 0 0 0 0 0 0 0 0 0 0 0 0 0 0 0 0 0 0 0 6 16 14 18 71 149 169 186 200 206 199 175 166 166 165 161 155 150 149 146 144 140 134 126 121 120 117 119 120 119 117 111 110 120 120 122 123 124 123 126 128 130 132 135 139 142 144 147 151 156 158 162 168 184 198 203 200 195 188 176 132 37 6 0 0 0 0 0 0 0 0 0 0 1 1 1 2 1 0 0 0 0 0 0 0 0 0 0 0 0 0 0 0 0 0 0 0 0 0 0 0 0 0 0 0 0 0 0 
0 0 0 0 0 0 0 0 0 0 0 0 0 0 0 0 0 0 0 6 16 13 20 79 152 169 184 198 205 195 170 160 162 160 155 150 145 144 139 134 130 126 124 121 121 119 116 118 118 114 115 107 109 118 119 121 123 123 122 123 125 125 126 128 128 129 134 140 146 147 146 149 156 163 177 194 203 201 195 186 174 123 29 3 0 0 0 0 0 1 0 0 0 1 1 2 2 1 0 0 0 0 0 0 0 0 0 0 0 0 0 0 0 0 0 0 0 0 0 0 0 0 0 0 0 0 0 0 
0 0 0 0 0 0 0 0 0 0 0 0 0 0 0 0 0 0 5 16 13 20 84 153 167 180 195 203 189 167 160 157 155 154 147 140 136 133 129 125 124 121 120 121 117 114 114 115 113 113 110 105 108 118 119 119 120 121 122 122 122 122 121 121 123 123 128 132 140 145 144 143 146 151 160 172 189 203 201 193 182 169 108 20 2 0 0 0 0 1 0 0 0 1 1 2 2 1 0 0 0 0 0 0 0 0 0 0 0 0 0 0 0 0 0 0 0 0 0 0 0 0 0 0 0 0 0 0 
0 0 0 0 0 0 0 0 0 0 0 0 0 0 0 0 0 2 15 13 19 81 149 163 176 192 202 186 165 158 155 151 148 145 137 131 129 127 124 123 120 118 117 114 112 112 112 111 113 109 102 103 106 115 117 118 119 119 118 120 122 120 119 117 118 120 123 130 134 136 140 140 142 145 151 157 167 185 203 198 190 177 159 84 11 0 0 0 0 1 0 0 0 1 1 2 2 1 0 0 0 0 0 0 0 0 0 0 0 0 0 0 0 0 0 0 0 0 0 0 0 0 0 0 0 0 0 0 
0 0 0 0 0 0 0 0 0 0 0 0 0 0 0 0 0 11 12 16 74 143 158 171 187 200 185 163 156 152 148 145 144 138 128 126 125 123 122 120 115 112 111 112 112 111 108 108 109 101 100 103 105 108 113 114 116 115 116 118 119 116 116 115 113 115 119 124 130 131 131 133 134 137 144 150 157 163 187 202 197 187 171 143 54 4 0 0 0 0 0 0 0 1 1 2 2 1 0 0 0 0 0 0 0 0 0 0 0 0 0 0 0 0 0 0 0 0 0 0 0 0 0 0 0 0 0 0 
0 0 0 0 0 0 0 0 0 0 0 0 0 0 0 0 6 12 14 60 135 152 167 183 196 186 160 154 150 145 142 139 133 127 125 124 124 123 119 114 112 110 111 111 109 106 106 105 102 99 100 103 105 108 108 107 110 110 109 108 110 112 113 111 110 109 112 122 124 127 127 127 129 131 135 142 148 153 159 189 203 195 181 162 118 25 1 0 0 1 0 0 0 1 1 2 2 1 0 0 0 0 0 0 0 0 0 0 0 0 0 0 0 0 0 0 0 0 0 0 0 0 0 0 0 0 0 0 
0 0 0 0 0 0 0 0 0 0 0 0 0 0 0 2 12 13 47 124 147 161 177 192 188 160 151 147 144 143 136 131 128 128 126 123 120 116 113 111 107 102 100 100 101 102 103 104 104 103 107 106 105 107 105 103 105 105 106 106 106 108 110 109 108 109 109 112 119 123 123 122 123 128 132 137 147 147 148 162 194 199 188 173 149 80 7 0 0 1 0 0 0 1 1 2 2 1 0 0 0 0 0 0 0 0 0 0 0 0 0 0 0 0 0 0 0 0 0 0 0 0 0 0 0 0 0 0 
0 0 0 0 0 0 0 0 0 0 0 0 0 0 0 7 11 26 103 139 154 170 187 188 165 150 145 142 142 140 132 127 126 123 121 117 114 112 109 103 99 98 101 102 100 101 103 104 104 104 109 107 104 104 102 103 102 102 103 105 105 104 107 108 108 109 110 111 114 118 119 120 121 122 129 135 143 143 144 147 171 195 193 180 162 123 30 1 0 1 0 0 0 1 1 2 2 1 0 0 0 0 0 0 0 0 0 0 0 0 0 0 0 0 0 0 0 0 0 0 0 0 0 0 0 0 0 0 
0 0 0 0 0 0 0 0 0 0 0 0 0 0 2 9 13 75 130 146 162 179 183 172 150 140 139 139 141 137 130 124 122 122 119 113 112 108 104 100 100 101 102 101 100 101 103 103 102 104 109 109 104 107 103 103 102 103 103 102 103 105 105 106 105 107 107 108 110 114 116 120 120 122 125 132 140 140 140 139 149 180 192 184 169 144 69 4 0 1 0 0 1 1 1 2 2 1 0 0 0 0 0 0 0 0 0 0 0 0 0 0 0 0 0 0 0 0 0 0 0 0 0 0 0 0 0 0 
0 0 0 0 0 0 0 0 0 0 0 0 0 0 6 9 40 115 137 152 172 179 169 159 139 135 137 139 139 133 127 122 120 118 114 107 106 105 103 100 100 100 100 99 102 103 105 104 101 104 111 112 108 107 98 100 103 104 102 101 99 102 104 104 104 104 104 106 108 110 112 118 121 119 123 132 140 139 137 132 137 163 183 186 174 155 107 17 1 1 0 0 1 1 1 2 2 1 0 0 0 0 0 0 0 0 0 0 0 0 0 0 0 0 0 0 0 0 0 0 0 0 0 0 0 0 0 0 
0 0 0 0 0 0 0 0 0 0 0 0 0 0 7 15 84 127 145 161 177 165 163 145 133 133 135 138 135 130 121 117 116 116 111 105 106 105 101 100 99 99 100 101 100 103 105 104 105 103 106 110 110 104 96 96 98 104 104 102 100 100 101 103 106 107 106 107 108 110 111 114 120 120 123 129 137 139 134 129 131 155 173 183 177 161 130 39 2 1 0 0 0 1 1 2 2 1 0 0 0 0 0 0 0 0 0 0 0 0 0 0 0 0 0 0 0 0 0 0 0 0 0 0 0 0 0 0 
0 0 0 0 0 0 0 0 0 0 0 0 0 3 7 37 111 135 149 170 172 160 154 135 130 130 133 136 132 124 120 118 116 114 108 107 106 102 100 99 99 99 99 100 100 103 105 106 105 100 99 103 109 99 94 93 97 100 97 101 101 101 100 101 105 108 107 109 109 108 109 112 119 119 121 130 137 136 130 126 125 149 165 181 178 165 140 61 3 1 0 0 0 1 1 2 2 1 0 0 0 0 0 0 0 0 0 0 0 0 0 0 0 0 0 0 0 0 0 0 0 0 0 0 0 0 0 0 
0 0 0 0 0 0 0 0 0 0 0 0 0 4 9 69 124 139 156 173 158 153 145 130 129 127 129 131 125 122 121 119 117 110 105 106 105 102 101 100 100 100 99 101 102 103 102 103 103 100 98 100 106 99 94 94 96 96 95 95 97 101 102 102 105 106 108 110 112 111 109 112 117 118 120 130 136 129 126 124 120 142 158 177 180 166 147 82 6 1 1 0 1 1 1 2 2 1 0 0 0 0 0 0 0 0 0 0 0 0 0 0 0 0 0 0 0 0 0 0 0 0 0 0 0 0 0 0 
0 0 0 0 0 0 0 0 0 0 0 0 0 6 17 95 129 145 164 166 145 144 138 125 125 124 126 127 119 121 121 120 117 109 108 108 106 103 101 102 103 100 98 99 103 101 99 101 102 99 97 98 105 98 95 95 96 96 97 96 96 97 101 105 107 107 110 111 112 113 112 113 116 117 119 126 130 126 123 122 119 136 153 174 180 168 151 99 11 1 1 0 0 1 1 2 2 1 0 0 0 0 0 0 0 0 0 0 0 0 0 0 0 0 0 0 0 0 0 0 0 0 0 0 0 0 0 0 
0 0 0 0 0 0 0 0 0 0 0 0 1 6 33 113 134 152 166 149 135 138 135 125 120 120 121 123 117 119 120 118 116 112 109 108 105 102 103 102 98 97 97 99 100 99 98 99 100 98 96 96 104 97 96 95 96 97 97 99 100 102 101 104 109 109 111 113 113 113 114 115 116 117 119 124 125 125 120 117 117 134 156 171 181 171 154 115 16 1 1 0 1 1 1 2 2 1 0 0 0 0 0 0 0 0 0 0 0 0 0 0 0 0 0 0 0 0 0 0 0 0 0 0 0 0 0 0 
0 0 0 0 0 0 0 0 0 0 0 0 2 6 50 120 138 157 158 140 131 134 135 123 115 116 118 121 116 116 118 117 115 112 108 111 106 103 101 95 95 97 97 96 97 99 98 96 97 97 95 99 99 96 95 93 92 93 96 99 101 101 102 102 107 112 111 116 118 116 115 116 116 117 119 123 119 119 117 114 113 131 153 165 181 174 158 128 26 1 1 0 1 1 1 2 2 1 0 0 0 0 0 0 0 0 0 0 0 0 0 0 0 0 0 0 0 0 0 0 0 0 0 0 0 0 0 0 
0 0 0 0 0 0 0 0 0 0 0 0 2 7 63 125 144 160 151 136 128 134 136 121 112 111 116 119 114 111 117 117 115 114 112 111 107 105 99 94 94 95 95 95 96 97 96 95 94 94 98 102 98 94 92 90 89 92 93 95 98 100 102 101 103 107 110 113 118 118 117 117 117 117 118 122 114 111 115 114 113 132 154 166 182 179 163 138 38 2 0 0 1 1 1 2 2 1 0 0 0 0 0 0 0 0 0 0 0 0 0 0 0 0 0 0 0 0 0 0 0 0 0 0 0 0 0 0 
0 0 0 0 0 0 0 0 0 0 0 0 3 9 73 129 149 159 150 139 130 133 134 122 113 109 115 116 107 110 118 117 116 113 111 113 108 106 107 99 98 96 94 95 94 94 94 94 93 93 98 102 98 93 91 91 88 89 91 94 95 98 100 99 99 106 110 116 123 122 120 119 119 119 119 122 112 108 112 111 113 137 154 166 181 181 167 148 50 3 1 0 1 1 1 2 2 1 0 0 0 0 0 0 0 0 0 0 0 0 0 0 0 0 0 0 0 0 0 0 0 0 0 0 0 0 0 0 
0 0 0 0 0 0 0 0 0 0 0 0 3 11 81 134 154 161 151 142 134 134 135 124 114 109 113 111 105 109 120 117 115 115 113 115 113 110 112 114 111 104 98 97 96 97 97 97 93 94 97 99 100 94 92 92 89 87 91 93 94 99 99 98 103 111 116 121 122 123 125 124 123 121 121 127 114 109 109 108 117 139 152 164 182 183 171 156 62 4 0 0 1 1 1 2 2 1 0 0 0 0 0 0 0 0 0 0 0 0 0 0 0 0 0 0 0 0 0 0 0 0 0 0 0 0 0 0 
0 0 0 0 0 0 0 0 0 0 0 0 4 12 86 138 158 165 154 146 138 136 137 126 117 111 111 110 103 108 122 118 117 118 121 118 110 101 98 98 95 95 101 103 101 98 98 97 96 96 99 99 104 96 93 93 89 85 89 90 93 98 104 108 103 99 97 97 100 104 111 118 128 133 128 131 126 114 109 112 124 139 150 160 180 186 173 158 77 6 1 0 1 1 1 2 2 1 0 0 0 0 0 0 0 0 0 0 0 0 0 0 0 0 0 0 0 0 0 0 0 0 0 0 0 0 0 0 
0 0 0 0 0 0 0 0 0 0 0 0 5 13 89 141 160 166 151 147 143 141 139 129 120 114 111 104 102 113 125 120 124 126 114 106 97 87 82 85 85 84 86 91 98 105 103 97 93 93 97 98 106 100 95 93 89 85 87 88 96 105 102 96 93 90 93 93 92 95 98 101 111 127 139 139 139 124 113 120 128 138 145 154 175 187 177 161 92 8 1 0 1 1 1 2 2 1 0 0 0 0 0 0 0 0 0 0 0 0 0 0 0 0 0 0 0 0 0 0 0 0 0 0 0 0 0 0 
0 0 0 0 0 0 0 0 0 0 0 0 6 14 93 145 163 164 153 147 142 140 141 137 129 120 113 103 105 120 128 126 129 114 100 92 89 85 83 87 85 84 84 85 89 95 101 102 93 93 97 99 104 104 99 94 89 86 86 93 104 93 90 90 91 94 97 97 98 101 100 98 100 112 135 151 146 137 124 126 131 134 139 148 163 185 179 164 105 11 1 0 1 1 1 2 2 1 0 0 0 0 0 0 0 0 0 0 0 0 0 0 0 0 0 0 0 0 0 0 0 0 0 0 0 0 0 0 
0 0 0 0 0 0 0 0 0 0 0 0 7 14 96 148 163 165 151 144 140 138 137 137 134 125 120 112 110 125 134 134 113 96 93 91 88 87 90 92 90 86 84 86 89 93 94 101 96 96 99 102 107 110 108 100 93 89 87 101 95 87 87 87 92 96 98 100 100 103 106 106 108 115 129 152 152 143 135 131 128 129 133 141 153 178 180 165 119 16 1 0 1 1 1 2 2 1 0 0 0 0 0 0 0 0 0 0 0 0 0 0 0 0 0 0 0 0 0 0 0 0 0 0 0 0 0 0 
0 0 0 0 0 0 0 0 0 0 0 0 7 15 97 149 166 166 145 140 137 137 132 130 131 128 123 122 129 130 138 127 101 93 91 89 88 89 90 89 89 88 86 86 87 89 95 99 100 98 104 110 117 115 119 106 97 90 90 103 87 82 81 86 93 96 99 102 103 106 108 107 113 125 131 137 146 142 142 132 126 123 127 134 144 170 179 165 129 24 1 0 1 1 1 2 2 1 0 0 0 0 0 0 0 0 0 0 0 0 0 0 0 0 0 0 0 0 0 0 0 0 0 0 0 0 0 0 
0 0 0 0 0 0 0 0 0 0 0 0 7 15 100 152 168 167 137 133 135 133 131 125 127 129 124 121 133 139 145 125 110 102 99 95 91 91 88 87 86 88 87 87 87 89 95 99 100 100 106 114 123 117 124 108 99 92 97 99 82 78 83 90 95 98 99 101 103 106 109 108 115 120 121 124 132 140 143 133 123 121 123 123 133 161 178 166 135 34 1 0 1 1 1 2 2 1 0 0 0 0 0 0 0 0 0 0 0 0 0 0 0 0 0 0 0 0 0 0 0 0 0 0 0 0 0 0 
0 0 0 0 0 0 0 0 0 0 0 0 8 16 100 152 169 168 134 133 133 130 126 120 121 121 120 122 131 133 136 126 120 111 103 99 98 93 89 88 88 90 89 88 89 90 93 98 97 100 106 115 117 113 118 116 104 99 99 92 79 81 88 93 96 97 98 98 100 103 106 109 111 113 117 119 124 137 140 133 119 114 115 116 122 150 175 166 139 44 2 0 1 1 1 2 2 1 0 0 0 0 0 0 0 0 0 0 0 0 0 0 0 0 0 0 0 0 0 0 0 0 0 0 0 0 0 0 
0 0 0 0 0 0 0 0 0 0 0 0 8 17 104 155 172 166 131 131 130 125 119 112 114 117 119 121 123 123 124 116 110 107 101 97 94 92 90 85 86 87 89 91 91 91 91 96 99 100 106 105 105 110 109 114 109 105 100 86 81 85 90 92 92 94 93 94 97 100 101 104 110 112 116 114 123 135 139 131 115 111 111 113 115 138 169 166 142 51 3 0 1 1 1 2 2 1 0 0 0 0 0 0 0 0 0 0 0 0 0 0 0 0 0 0 0 0 0 0 0 0 0 0 0 0 0 0 
0 0 0 0 0 0 0 0 0 0 0 0 8 17 103 156 172 161 125 126 121 117 109 104 107 112 116 124 122 118 118 113 102 102 96 92 89 90 89 86 84 86 88 90 89 89 90 92 98 101 111 108 102 104 104 113 109 110 104 87 85 86 90 87 84 88 91 92 95 98 101 103 106 109 110 112 123 134 134 132 118 109 106 108 108 126 156 164 145 58 3 1 1 1 1 2 2 1 0 0 0 0 0 0 0 0 0 0 0 0 0 0 0 0 0 0 0 0 0 0 0 0 0 0 0 0 0 0 
0 0 0 0 0 0 0 0 0 0 0 0 8 17 102 157 172 155 118 117 114 110 102 98 100 105 110 124 124 117 114 112 102 98 93 88 88 87 87 84 84 87 87 88 86 86 90 88 89 103 119 122 111 99 100 94 114 107 100 90 90 90 90 80 82 87 90 93 95 97 99 101 103 109 108 111 122 129 130 135 126 109 106 109 109 121 137 154 146 63 3 0 1 1 1 2 2 1 0 0 0 0 0 0 0 0 0 0 0 0 0 0 0 0 0 0 0 0 0 0 0 0 0 0 0 0 0 0 
0 0 0 0 0 0 0 0 0 0 0 0 8 17 99 156 171 146 116 112 107 105 101 99 99 100 113 119 121 117 113 111 104 96 92 90 89 89 89 87 84 84 87 89 87 89 93 87 84 99 115 121 102 91 93 82 102 115 92 94 91 89 84 82 86 88 91 92 94 96 98 99 101 104 106 113 123 131 136 138 130 110 104 106 109 120 133 153 146 64 3 0 1 1 1 2 2 1 0 0 0 0 0 0 0 0 0 0 0 0 0 0 0 0 0 0 0 0 0 0 0 0 0 0 0 0 0 0 
0 0 0 0 0 0 0 0 0 0 0 0 7 17 94 154 169 138 116 109 107 106 102 100 100 102 114 115 118 117 115 111 104 97 93 91 89 89 89 89 86 83 83 85 86 89 92 83 83 100 116 109 86 80 87 79 86 121 87 91 89 86 82 87 89 90 92 92 95 96 97 97 101 103 105 118 132 139 135 134 130 110 104 103 109 118 133 156 141 62 3 0 1 1 1 2 2 1 0 0 0 0 0 0 0 0 0 0 0 0 0 0 0 0 0 0 0 0 0 0 0 0 0 0 0 0 0 0 
0 0 0 0 0 0 0 0 0 0 0 0 6 15 85 151 166 133 113 108 106 105 102 99 99 102 114 114 115 117 119 113 103 101 94 89 90 92 90 89 87 86 80 79 81 85 89 83 87 103 109 90 84 82 88 77 79 112 103 89 86 82 81 89 89 89 92 94 96 96 96 96 101 100 102 118 138 133 129 132 128 108 103 102 107 115 132 155 136 57 3 0 1 1 1 2 2 1 0 0 0 0 0 0 0 0 0 0 0 0 0 0 0 0 0 0 0 0 0 0 0 0 0 0 0 0 0 0 
0 0 0 0 0 0 0 0 0 0 0 0 4 15 79 148 165 135 115 108 104 104 103 99 97 98 111 115 113 115 119 115 103 101 95 93 94 95 94 91 88 86 82 78 80 82 85 76 88 105 105 88 86 89 95 81 77 90 113 92 85 79 81 89 89 91 93 95 93 92 94 97 99 97 101 118 132 127 125 131 126 107 104 102 105 113 135 151 129 50 2 0 0 1 1 2 2 1 0 0 0 0 0 0 0 0 0 0 0 0 0 0 0 0 0 0 0 0 0 0 0 0 0 0 0 0 0 0 
0 0 0 0 0 0 0 0 0 0 0 0 2 14 72 143 162 140 116 108 103 102 102 101 97 94 107 115 115 115 121 115 102 100 96 94 95 95 95 93 89 85 80 78 77 80 80 78 93 107 92 85 84 93 100 86 80 78 108 101 96 86 83 89 91 92 92 92 90 91 93 98 96 95 101 116 125 125 124 128 124 105 104 101 103 112 138 146 121 44 2 0 0 1 1 2 2 1 0 0 0 0 0 0 0 0 0 0 0 0 0 0 0 0 0 0 0 0 0 0 0 0 0 0 0 0 0 0 
0 0 0 0 0 0 0 0 0 6 5 0 0 12 63 135 157 142 117 106 101 100 102 103 97 92 102 115 116 116 120 112 103 99 98 95 94 93 93 92 91 89 83 79 85 95 91 87 96 98 88 83 83 97 99 88 83 80 92 109 111 107 101 96 94 94 97 94 90 92 94 97 93 94 102 115 121 123 127 130 123 105 101 98 100 112 140 140 110 38 2 0 0 1 1 2 2 1 0 0 0 0 0 0 0 0 0 0 0 0 0 0 0 0 0 0 0 0 0 0 0 0 0 0 0 0 0 0 
0 0 0 0 0 0 0 0 0 3 9 3 1 9 52 127 154 141 117 105 99 99 102 102 97 91 103 117 117 115 118 113 102 98 98 96 93 92 91 92 98 98 94 87 90 94 97 91 102 91 87 83 84 95 94 90 89 84 87 117 120 121 111 101 96 92 94 96 92 89 89 93 93 93 102 117 121 122 126 132 128 107 97 97 99 113 141 134 100 33 2 0 0 1 1 2 2 1 0 0 0 0 0 0 0 0 0 0 0 0 0 0 0 0 0 0 0 0 0 0 0 0 0 0 0 0 0 0 
0 0 0 0 0 0 0 0 0 2 4 9 3 8 42 117 149 139 113 103 96 97 102 103 99 91 103 117 117 115 118 116 104 99 99 96 93 93 92 95 98 96 92 94 103 109 103 97 106 83 85 81 83 97 93 85 90 89 94 120 124 115 108 111 111 107 104 100 94 90 89 94 99 103 106 122 126 123 126 134 136 116 97 97 100 119 142 129 92 27 1 0 0 1 1 2 2 1 0 0 0 0 0 0 0 0 0 0 0 0 0 0 0 0 0 0 0 0 0 0 0 0 0 0 0 0 0 0 
0 0 0 0 0 0 0 0 0 0 3 10 4 7 32 102 143 142 113 104 100 99 101 101 101 93 106 116 118 120 124 123 115 103 100 97 93 95 100 101 102 101 102 105 98 99 95 106 108 83 82 82 83 103 93 85 86 84 90 118 132 115 106 107 113 123 136 131 124 121 124 122 126 127 132 137 125 120 128 137 138 126 103 98 107 129 142 120 85 18 1 0 1 8 5 1 2 1 0 0 0 0 0 0 0 0 0 0 0 0 0 0 0 0 0 0 0 0 0 0 0 0 0 0 0 0 0 0 
0 0 0 0 0 0 0 0 0 0 2 10 5 7 25 91 138 147 118 109 106 97 97 101 100 100 109 114 118 119 124 123 125 127 118 111 110 113 116 114 112 106 92 90 100 100 97 105 107 81 81 86 86 101 92 80 81 82 89 123 133 111 105 106 110 122 146 151 144 146 150 148 143 131 131 136 135 128 128 137 138 128 119 111 108 138 135 115 77 12 3 2 5 3 2 2 2 1 0 0 0 0 0 0 0 0 0 0 0 0 0 0 0 0 0 0 0 0 0 0 0 0 0 0 0 0 0 0 
0 0 0 0 0 0 0 0 0 0 1 9 6 8 19 81 131 152 133 112 105 95 94 100 105 112 112 116 119 120 120 120 117 121 125 127 128 120 116 111 110 104 99 100 100 96 94 104 108 88 85 92 90 105 94 79 81 88 99 129 131 114 106 107 112 126 145 149 148 152 148 142 137 127 132 128 140 143 138 136 137 132 126 127 143 141 120 113 67 9 3 2 5 2 1 2 2 1 0 0 0 0 0 0 0 0 0 0 0 0 0 0 0 0 0 0 0 0 0 0 0 0 0 0 0 0 0 0 
0 0 0 0 0 0 0 0 0 0 1 7 6 9 14 68 122 149 148 117 107 96 98 110 117 115 118 123 120 121 125 130 132 129 124 126 124 122 122 119 112 104 96 93 93 92 94 101 110 99 88 88 91 106 96 83 88 97 107 118 119 116 112 113 118 130 144 145 144 145 141 141 146 148 144 146 148 153 159 154 149 147 144 152 163 139 110 108 52 7 3 3 3 2 1 2 2 1 0 0 0 0 0 0 0 0 0 0 0 0 0 0 0 0 0 0 0 0 0 0 0 0 0 0 0 0 0 0 
0 0 0 0 0 0 0 0 0 0 0 7 8 9 13 54 114 145 153 132 113 111 116 118 125 124 125 132 129 121 133 143 148 154 153 142 139 137 127 113 103 96 96 91 88 88 96 110 111 94 94 94 88 107 95 88 89 101 108 109 116 108 113 116 120 134 151 153 154 153 151 154 154 145 133 140 140 149 161 164 170 174 168 176 178 130 120 103 32 7 4 3 2 1 1 2 2 1 0 0 0 0 0 0 0 0 0 0 0 0 0 0 0 0 0 0 0 0 0 0 0 0 0 0 0 0 0 0 
0 0 0 0 0 0 0 0 0 0 0 8 10 8 9 37 108 142 151 147 135 145 136 135 139 140 140 136 130 129 138 151 156 160 156 146 149 145 134 114 108 104 99 93 91 91 105 113 99 89 92 96 96 118 100 87 85 95 103 104 111 112 110 116 119 123 134 142 149 154 150 146 141 132 134 134 138 146 158 167 171 178 183 179 160 122 120 85 16 6 5 3 2 1 1 2 2 1 0 0 0 0 0 0 0 0 0 0 0 0 0 0 0 0 0 0 0 0 0 0 0 0 0 0 0 0 0 0 
0 0 0 0 0 0 0 0 0 0 0 5 10 7 8 12 62 128 148 148 151 169 176 159 158 154 143 137 136 139 151 157 156 155 159 151 146 146 139 118 110 109 108 101 96 95 104 111 101 91 93 100 99 114 117 95 84 89 95 104 107 105 113 115 116 118 121 133 137 136 128 132 133 128 134 142 143 146 151 158 166 168 169 165 145 120 116 93 18 6 7 4 2 2 1 2 2 0 0 0 0 0 0 0 0 0 0 0 0 0 0 0 0 0 0 0 0 0 0 0 0 0 0 0 0 0 0 0 
0 0 0 0 0 0 0 0 0 0 0 6 9 5 6 10 37 115 150 150 156 171 172 170 165 163 159 151 136 128 140 150 158 158 159 155 150 151 137 112 105 109 110 106 100 100 110 108 103 96 95 103 105 119 117 100 84 81 87 97 104 101 101 112 116 117 122 130 133 124 121 122 117 126 135 143 139 141 139 146 154 168 157 139 119 121 118 63 8 5 7 5 2 2 1 2 2 0 0 0 0 0 0 0 0 0 0 0 0 0 0 0 0 0 0 0 0 0 0 0 0 0 0 0 0 0 0 0 
0 0 0 0 0 0 0 0 0 0 0 6 6 5 5 9 22 92 145 148 149 155 158 148 164 166 160 151 140 134 131 137 146 156 158 155 149 143 130 118 108 107 111 112 100 98 111 101 98 100 100 98 92 111 120 108 85 84 92 96 103 110 109 109 102 102 116 127 130 131 131 123 124 139 146 147 142 146 139 139 146 157 135 122 125 126 109 32 6 4 6 6 2 2 1 2 2 0 0 0 0 0 0 0 0 0 0 0 0 0 0 0 0 0 0 0 0 0 0 0 0 0 0 0 0 0 0 0 
0 0 0 0 0 0 0 0 0 0 0 5 4 4 4 8 17 62 134 147 143 138 147 147 141 149 151 144 141 143 132 127 134 140 142 147 144 136 129 122 106 103 103 100 99 103 115 100 105 112 108 102 94 101 119 120 94 93 99 95 104 117 119 123 109 92 94 103 109 115 123 121 123 142 151 156 152 149 141 140 134 137 131 117 118 119 78 16 7 6 7 4 3 2 1 2 2 0 0 0 0 0 0 0 0 0 0 0 0 0 0 0 0 0 0 0 0 0 0 0 0 0 0 0 0 0 0 0 
0 0 0 0 0 0 0 0 0 0 0 4 5 4 4 8 15 34 113 136 133 132 141 146 144 137 133 131 136 148 148 131 120 122 136 142 139 132 126 108 95 92 100 106 104 107 125 109 116 118 116 109 99 100 123 123 106 101 104 106 107 121 124 126 119 96 88 88 97 105 113 126 137 139 147 156 159 154 150 146 142 138 121 101 103 111 43 11 6 6 6 2 3 3 1 2 2 0 0 0 0 0 0 0 0 0 0 0 0 0 0 0 0 0 0 0 0 0 0 0 0 0 0 0 0 0 0 0 
0 0 0 0 0 0 0 0 0 0 1 3 5 4 3 9 15 18 82 122 123 129 136 145 139 137 134 129 132 147 151 138 119 115 131 142 141 137 118 96 85 96 102 107 108 112 123 122 121 120 128 128 114 111 137 131 115 107 113 116 112 126 127 127 122 106 88 85 95 111 117 133 132 129 140 149 158 161 173 163 146 124 107 86 95 86 21 11 6 7 5 2 3 3 1 2 1 0 0 0 0 0 0 0 0 0 0 0 0 0 0 0 0 0 0 0 0 0 0 0 0 0 0 0 0 0 0 0 
0 0 0 0 0 0 0 0 0 0 1 3 4 4 2 6 13 13 48 117 130 123 136 149 148 142 139 136 141 145 148 133 117 117 118 123 121 116 107 97 91 101 103 110 119 124 125 129 132 135 141 143 148 152 152 140 137 138 131 129 128 141 141 135 126 109 93 91 104 122 116 113 125 122 133 147 160 170 179 169 136 114 96 89 102 57 13 12 7 7 6 2 2 3 1 2 1 0 0 0 0 0 0 0 0 0 0 0 0 0 0 0 0 0 0 0 0 0 0 0 0 0 0 0 0 0 0 0 
0 0 0 0 0 0 0 0 0 0 1 3 5 4 2 5 11 14 26 101 124 113 123 133 156 155 153 144 147 146 148 140 129 125 114 117 109 96 91 104 106 111 112 117 129 139 138 140 148 150 150 153 162 170 173 165 158 152 143 142 147 161 164 152 135 123 120 117 120 125 111 112 123 121 124 147 157 175 171 161 127 103 85 86 97 32 11 12 6 6 5 2 2 3 1 2 1 0 0 0 0 0 0 0 0 0 0 0 0 0 0 0 0 0 0 0 0 0 0 0 0 0 0 0 0 0 0 0 
0 0 0 0 0 0 0 0 0 0 1 3 5 3 2 5 11 13 15 68 118 118 111 120 148 162 161 153 147 144 148 146 133 129 121 118 112 103 101 108 134 132 129 129 136 147 151 150 150 143 142 145 146 147 152 155 151 144 136 138 144 160 169 166 150 144 141 136 142 119 105 106 114 119 114 141 155 176 161 146 127 114 95 100 81 19 9 9 6 5 5 2 3 3 2 2 1 0 0 0 0 0 0 0 0 0 0 0 0 0 0 0 0 0 0 0 0 0 0 0 0 0 0 0 0 0 0 0 
0 0 0 0 0 0 0 0 0 0 1 4 6 3 2 5 9 10 12 41 94 113 112 115 134 155 162 162 148 145 143 146 138 128 118 118 118 119 124 129 137 153 155 149 152 152 153 159 151 146 142 147 144 149 146 147 147 148 140 142 145 155 169 167 168 163 153 156 146 113 98 97 105 117 123 140 157 171 151 129 111 102 108 98 66 16 9 8 6 4 4 3 3 3 2 2 1 0 0 0 0 0 0 0 0 0 0 0 0 0 0 0 0 0 0 0 0 0 0 0 0 0 0 0 0 0 0 0 
0 0 0 0 0 0 0 0 0 0 1 5 13 9 3 4 8 9 11 29 81 113 121 109 119 138 158 162 153 139 138 139 134 122 110 110 112 116 121 130 138 156 167 168 163 160 161 160 152 149 148 156 157 157 151 145 148 151 138 139 141 148 158 165 169 163 155 157 146 110 89 96 111 124 143 154 160 165 148 127 97 86 97 98 58 16 8 6 6 4 3 3 4 3 2 2 1 0 0 0 0 0 0 0 0 0 0 0 0 0 0 0 0 0 0 0 0 0 0 0 0 0 0 0 0 0 0 0 
0 0 0 0 0 0 0 0 0 0 0 4 12 13 9 7 8 10 13 21 65 101 117 114 113 118 146 150 163 140 129 128 133 110 101 103 106 112 116 119 128 146 162 166 166 163 166 162 158 157 156 164 164 161 155 134 136 141 130 127 133 145 147 165 172 169 165 161 147 110 93 96 107 120 159 174 175 172 153 106 87 85 97 92 39 15 5 4 6 4 3 4 4 4 3 2 1 0 0 0 0 0 0 0 0 0 0 0 0 0 0 0 0 0 0 0 0 0 0 0 0 0 0 0 0 0 0 0 
0 0 0 0 0 0 0 0 0 0 0 3 10 11 9 8 9 12 16 16 34 85 116 115 102 113 137 151 165 149 139 131 133 111 93 99 105 109 109 109 115 141 160 161 161 159 156 153 154 155 159 170 165 162 142 118 118 127 128 125 131 149 152 164 180 175 168 160 145 117 97 98 110 134 163 165 173 159 142 96 78 79 79 64 20 14 8 5 5 5 5 6 7 4 3 2 1 0 0 0 0 0 0 0 0 0 0 0 0 0 0 0 0 0 0 0 0 0 0 0 0 0 0 0 0 0 0 0 
0 0 0 0 0 0 0 0 0 0 0 2 11 10 9 9 9 10 13 15 17 50 106 109 107 107 124 150 165 165 155 140 129 123 103 93 94 96 99 106 124 145 155 156 155 152 149 146 146 141 153 154 143 160 155 130 124 129 128 123 140 159 151 169 175 175 168 166 161 130 122 119 134 146 147 146 127 107 105 76 66 86 91 36 12 9 9 7 5 6 6 7 12 6 2 1 1 0 0 0 0 0 0 0 0 0 0 0 0 0 0 0 0 0 0 0 0 0 0 0 0 0 0 0 0 0 0 0 
0 0 0 0 0 0 0 0 0 0 0 0 9 11 6 6 6 5 9 15 20 28 71 98 93 91 112 145 153 165 165 148 133 133 119 104 103 107 113 132 138 164 176 170 170 164 160 165 170 169 168 157 159 177 180 164 154 157 157 152 160 166 178 183 174 173 166 176 169 165 146 142 141 139 115 96 90 88 92 75 94 97 53 18 10 2 2 4 5 5 5 7 9 5 1 1 1 0 0 0 0 0 0 0 0 0 0 0 0 0 0 0 0 0 0 0 0 0 0 0 0 0 0 0 0 0 0 0 
0 0 0 0 0 0 0 0 0 0 0 0 3 7 5 3 3 3 5 11 17 21 37 81 86 75 91 104 103 142 147 149 143 140 129 111 113 120 130 141 167 180 185 187 190 195 187 195 188 179 178 180 178 176 175 168 166 173 177 180 184 188 199 201 195 203 185 188 147 141 147 140 106 86 77 83 83 82 85 73 71 47 29 22 13 2 0 1 2 3 4 7 7 1 1 1 1 0 0 0 0 0 0 0 0 0 0 0 0 0 0 0 0 0 0 0 0 0 0 0 0 0 0 0 0 0 0 0 
0 0 0 0 0 0 0 0 0 0 0 0 0 3 3 2 1 0 1 7 13 20 25 45 79 83 65 55 66 76 95 109 133 135 127 124 117 130 148 166 173 172 178 180 185 191 186 184 182 170 163 168 168 164 160 158 157 159 162 167 168 187 197 180 169 184 177 170 156 138 123 104 88 78 75 89 92 88 69 48 41 39 36 26 18 0 0 1 1 1 2 7 7 1 1 1 1 0 0 0 0 0 0 0 0 0 0 0 0 0 0 0 0 0 0 0 0 0 0 0 0 0 0 0 0 0 0 0 
0 0 0 0 0 0 0 0 0 0 0 0 0 2 5 4 4 3 2 4 10 14 19 22 36 51 36 43 67 63 64 62 80 84 81 92 83 74 76 76 91 119 140 146 137 135 134 119 128 104 97 109 117 117 113 109 96 91 106 102 98 113 101 137 131 154 124 82 63 64 58 65 62 55 56 77 83 82 49 29 28 26 19 7 3 1 3 3 2 2 2 8 5 1 1 1 1 0 0 0 0 0 0 0 0 0 0 0 0 0 0 0 0 0 0 0 0 0 0 0 0 0 0 0 0 0 0 0 
0 0 0 0 0 0 0 0 0 0 0 0 0 0 3 3 3 3 2 1 6 10 13 16 22 22 23 33 66 65 60 62 62 64 62 65 69 60 67 69 82 87 83 82 89 94 82 71 76 79 60 74 89 91 90 89 73 61 74 74 82 99 87 79 77 93 91 98 106 100 65 63 62 55 56 76 84 80 47 29 28 25 16 6 3 1 2 2 2 2 3 5 2 0 1 1 1 0 0 0 0 0 0 0 0 0 0 0 0 0 0 0 0 0 0 0 0 0 0 0 0 0 0 0 0 0 0 0 
0 0 0 0 0 0 0 0 0 0 0 0 0 0 0 0 0 1 0 0 3 9 10 15 20 26 28 36 69 74 65 64 67 70 67 66 76 94 120 127 137 139 108 100 102 103 96 99 105 89 75 90 97 97 96 94 88 77 95 107 106 115 101 93 117 140 103 89 105 93 87 86 79 74 74 86 91 83 49 33 29 24 14 9 1 0 0 0 1 1 1 1 0 0 1 1 1 0 0 0 0 0 0 0 0 0 0 0 0 0 0 0 0 0 0 0 0 0 0 0 0 0 0 0 0 0 0 0 
0 0 0 0 0 0 0 0 0 0 0 0 0 0 0 0 0 0 0 0 0 4 4 8 15 29 34 44 75 87 79 74 78 85 85 88 100 118 123 141 155 167 156 135 141 159 159 157 145 123 116 123 122 121 118 122 120 113 119 138 146 151 144 149 155 160 128 130 108 124 117 109 94 85 83 84 83 77 50 37 25 17 9 8 1 0 0 0 0 0 0 0 0 0 0 1 1 0 0 0 0 0 0 0 0 0 0 0 0 0 0 0 0 0 0 0 0 0 0 0 0 0 0 0 0 0 0 0 
0 0 0 0 0 0 0 0 0 0 0 0 0 0 0 0 0 0 0 0 0 2 3 5 9 23 29 38 62 78 73 73 83 91 96 95 100 112 124 116 159 168 168 159 171 174 171 179 159 164 164 157 160 162 160 156 155 152 152 154 153 168 166 159 162 155 151 128 143 147 124 126 99 77 60 69 77 56 32 24 17 9 6 2 0 0 0 0 0 0 0 0 0 0 0 1 0 0 0 0 0 0 0 0 0 0 0 0 0 0 0 0 0 0 0 0 0 0 0 0 0 0 0 0 0 0 0 0 
0 0 0 0 0 0 0 0 0 0 0 0 0 0 0 0 0 0 0 0 0 0 2 3 8 17 28 35 53 75 76 71 74 76 74 70 77 93 104 105 126 127 119 106 126 136 152 167 161 152 144 135 139 135 138 130 135 133 133 131 139 145 128 134 134 125 133 138 149 151 113 70 49 50 60 82 80 47 25 22 13 8 6 1 0 1 1 1 1 1 1 1 1 2 3 3 2 2 0 0 0 0 0 0 0 0 0 0 0 0 0 0 0 0 0 0 0 0 0 0 0 0 0 0 0 0 0 0 
0 0 0 0 0 0 0 0 0 0 0 0 0 0 0 0 0 0 0 0 0 0 4 7 9 15 20 22 32 54 68 66 65 66 57 56 55 71 93 114 111 112 108 95 101 116 131 134 122 121 116 96 107 100 103 92 103 106 105 107 112 128 126 104 117 126 135 120 131 119 98 68 52 54 72 100 85 46 24 18 17 13 7 1 0 0 0 1 1 0 0 1 1 1 2 2 1 0 0 0 0 0 0 0 0 0 0 0 0 0 0 0 0 0 0 0 0 0 0 0 0 0 0 0 0 0 0 0 
0 0 0 0 0 0 0 0 0 0 0 0 0 0 0 0 0 0 0 0 0 0 2 6 9 13 18 21 25 44 62 74 73 69 58 51 53 66 86 100 99 100 100 102 109 123 131 130 117 113 106 87 93 92 95 90 102 110 114 108 105 114 107 93 85 105 122 126 123 107 92 67 54 59 81 107 87 49 25 19 18 12 7 1 0 0 0 1 1 0 0 1 1 1 2 2 1 0 0 0 0 0 0 0 0 0 0 0 0 0 0 0 0 0 0 0 0 0 0 0 0 0 0 0 0 0 0 0 
0 0 0 0 0 0 0 0 0 0 0 0 0 0 0 0 0 0 0 0 0 0 1 4 9 10 16 21 23 39 58 75 77 71 62 53 48 58 73 96 93 86 90 92 101 111 120 129 127 116 111 98 101 99 97 92 103 102 116 120 113 122 119 107 102 97 110 116 108 95 78 60 55 64 89 111 86 51 25 19 17 11 6 0 0 0 0 1 1 0 0 1 1 1 2 2 1 0 0 0 0 0 0 0 0 0 0 0 0 0 0 0 0 0 0 0 0 0 0 0 0 0 0 0 0 0 0 0 
0 0 0 0 0 0 0 0 0 0 0 0 0 0 0 0 0 0 0 0 0 0 0 3 6 9 13 19 22 33 49 70 77 74 67 57 52 55 59 66 72 78 86 91 99 106 113 120 135 127 117 107 105 103 97 94 100 98 108 118 121 141 131 110 102 94 99 107 109 98 80 63 59 67 95 112 82 52 26 18 15 10 4 0 0 0 0 1 1 0 0 1 1 1 2 2 1 0 0 0 0 0 0 0 0 0 0 0 0 0 0 0 0 0 0 0 0 0 0 0 0 0 0 0 0 0 0 0 
0 0 0 0 0 0 0 0 0 0 0 0 0 0 0 0 0 0 0 0 0 0 0 0 5 8 11 16 20 28 45 62 81 78 71 63 56 52 53 59 65 74 86 92 101 104 104 110 126 118 113 106 102 101 95 95 97 99 105 112 119 126 120 106 103 103 98 92 96 95 81 71 65 71 95 108 80 52 26 17 15 9 2 0 0 0 0 1 1 1 1 1 1 1 2 2 1 0 0 0 0 0 0 0 0 0 0 0 0 0 0 0 0 0 0 0 0 0 0 0 0 0 0 0 0 0 0 0 
0 0 0 0 0 0 0 0 0 0 0 0 0 0 0 0 0 0 0 0 0 0 0 0 2 5 9 13 18 25 42 54 79 77 76 71 62 55 54 58 64 69 85 98 106 103 96 95 103 107 113 104 97 98 95 93 95 101 106 106 114 110 109 102 106 107 103 87 77 74 68 68 71 80 97 104 78 45 20 16 15 8 1 0 0 0 0 0 1 1 0 1 1 1 2 2 1 0 0 0 0 0 0 0 0 0 0 0 0 0 0 0 0 0 0 0 0 0 0 0 0 0 0 0 0 0 0 0 
0 0 0 0 0 0 0 0 0 0 0 0 0 0 0 0 0 0 0 0 0 0 0 0 0 4 6 12 15 19 33 52 67 72 78 75 66 60 55 54 60 69 84 94 100 98 95 89 88 96 109 100 92 91 93 96 97 100 99 103 109 107 100 91 95 97 96 85 74 66 61 70 79 85 101 87 48 23 17 16 16 8 1 0 1 0 0 1 1 1 0 1 1 1 2 2 1 0 0 0 0 0 0 0 0 0 0 0 0 0 0 0 0 0 0 0 0 0 0 0 0 0 0 0 0 0 0 0 
0 0 0 0 0 0 0 0 0 0 0 0 0 0 0 0 0 0 0 0 0 0 0 0 0 3 4 8 14 17 21 32 41 46 72 79 69 64 58 51 56 67 78 80 90 93 94 88 86 96 111 104 95 94 98 98 99 99 99 99 101 97 93 88 91 89 85 76 74 64 60 73 81 91 99 43 18 17 18 18 16 8 1 0 0 0 0 0 1 1 0 0 1 1 2 2 0 0 0 0 0 0 0 0 0 0 0 0 0 0 0 0 0 0 0 0 0 0 0 0 0 0 0 0 0 0 0 0 
0 0 0 0 0 0 0 0 0 0 0 0 0 0 0 0 0 0 0 0 0 0 0 0 0 0 5 4 12 17 19 20 18 17 31 76 78 73 65 62 58 61 68 72 79 82 87 88 90 99 101 100 95 91 88 92 103 100 94 92 98 96 96 89 86 84 73 71 71 68 70 80 87 95 71 23 15 15 17 18 14 6 1 0 0 0 0 1 1 1 0 0 1 1 2 2 0 0 0 0 0 0 0 0 0 0 0 0 0 0 0 0 0 0 0 0 0 0 0 0 0 0 0 0 0 0 0 0 
0 0 0 0 0 0 0 0 0 0 0 0 0 0 0 0 0 0 0 0 0 0 0 0 0 0 2 5 8 13 18 18 18 18 13 38 76 80 74 68 66 66 68 72 79 78 81 87 100 103 95 96 98 95 91 92 102 104 94 90 98 100 105 97 90 83 80 79 75 75 81 88 90 77 35 19 14 15 17 17 12 6 1 0 0 0 0 0 1 1 0 0 1 1 2 1 0 0 0 0 0 0 0 0 0 0 0 0 0 0 0 0 0 0 0 0 0 0 0 0 0 0 0 0 0 0 0 0 
0 0 0 0 0 0 0 0 0 0 0 0 0 0 0 0 0 0 0 0 0 0 0 0 0 0 0 3 7 9 16 18 17 18 14 13 37 71 81 80 76 72 74 79 87 88 87 87 94 101 96 98 99 97 95 103 112 111 107 103 104 110 106 96 93 89 86 87 85 89 93 93 75 37 24 17 13 15 17 15 11 6 1 0 0 0 0 0 1 1 0 0 1 1 2 2 0 0 0 0 0 0 0 0 0 0 0 0 0 0 0 0 0 0 0 0 0 0 0 0 0 0 0 0 0 0 0 0 
0 0 0 0 0 0 0 0 0 0 0 0 0 0 0 0 0 0 0 0 0 0 0 0 0 0 0 2 5 7 12 17 18 18 14 13 17 33 62 79 83 86 85 86 99 99 91 88 89 102 102 97 98 97 96 106 109 109 110 107 100 102 105 101 97 98 100 99 95 94 91 71 36 26 23 17 14 16 16 14 10 5 1 0 1 0 0 0 1 1 0 0 1 1 2 2 0 0 0 0 0 0 0 0 0 0 0 0 0 0 0 0 0 0 0 0 0 0 0 0 0 0 0 0 0 0 0 0 
0 0 0 0 0 0 0 0 0 0 0 0 0 0 0 0 0 0 0 0 0 0 0 0 0 0 0 1 4 7 9 15 17 19 15 12 16 22 29 51 74 87 92 97 105 108 101 97 100 108 101 95 94 101 105 109 110 107 113 115 107 104 113 108 106 107 109 107 99 85 60 34 28 26 22 17 15 15 15 13 10 5 1 0 0 0 0 0 1 1 0 0 1 1 2 1 0 0 0 0 0 0 0 0 0 0 0 0 0 0 0 0 0 0 0 0 0 0 0 0 0 0 0 0 0 0 0 0 
0 0 0 0 0 0 0 0 0 0 0 0 0 0 0 0 0 0 0 0 0 0 0 0 0 0 0 0 1 7 7 13 16 18 15 12 13 20 25 29 38 61 82 93 106 112 107 105 106 107 107 101 103 103 100 102 104 107 112 113 112 105 113 115 112 108 110 102 81 50 30 29 28 24 21 16 14 14 14 12 9 5 1 0 0 0 0 0 1 1 0 0 1 1 1 1 0 0 0 0 0 0 0 0 0 0 0 0 0 0 0 0 0 0 0 0 0 0 0 0 0 0 0 0 0 0 0 0 
0 0 0 0 0 0 0 0 0 0 0 0 0 0 0 0 0 0 0 0 0 0 0 0 0 0 0 0 0 7 6 10 14 18 15 12 12 20 26 29 31 33 41 60 84 96 99 99 99 104 111 110 107 101 97 99 99 105 114 107 109 113 116 113 109 100 86 62 43 37 29 28 26 23 18 16 13 15 14 12 9 4 1 0 0 0 0 0 1 1 0 0 1 1 2 1 0 0 0 0 0 0 0 0 0 0 0 0 0 0 0 0 0 0 0 0 0 0 0 0 0 0 0 0 0 0 0 0 
0 0 0 0 0 0 0 0 0 0 0 0 0 0 0 0 0 0 0 0 0 0 0 0 0 0 0 0 0 4 6 9 13 17 16 13 12 19 25 28 31 33 32 37 50 68 80 88 90 93 103 107 103 101 102 103 104 105 114 112 114 106 105 99 90 71 53 47 41 36 28 28 26 23 17 14 15 14 14 13 9 3 1 0 0 0 0 0 0 1 0 0 1 1 1 1 0 0 0 0 0 0 0 0 0 0 0 0 0 0 0 0 0 0 0 0 0 0 0 0 0 0 0 0 0 0 0 0 
