P2
128 99
252
0 0 0 0 0 0 0 0 0 0 0 0 0 0 0 0 0 0 0 0 0 0 0 0 0 0 0 0 0 0 0 0 0 0 0 0 0 0 0 0 0 0 0 0 0 0 0 0 0 0 0 0 0 0 0 0 0 0 0 0 0 0 0 0 0 0 0 0 0 0 0 0 0 0 0 0 0 0 0 0 0 0 0 0 0 0 0 0 0 0 0 0 0 0 0 0 0 0 0 0 0 0 0 0 0 0 0 0 0 0 0 0 0 0 0 0 0 0 0 0 0 0 0 0 0 0 0 0 
0 0 0 0 0 0 0 0 0 0 0 0 0 0 0 0 0 0 0 0 0 0 0 0 0 0 0 0 0 0 0 0 0 0 0 0 0 0 0 0 0 0 0 0 0 0 0 0 0 0 0 0 0 0 0 0 0 0 0 0 0 0 0 0 0 0 0 0 0 0 0 0 0 0 0 0 0 0 0 0 0 0 0 0 0 0 0 0 0 0 0 0 0 0 0 0 0 0 0 0 0 0 0 0 0 0 0 0 0 0 0 0 0 0 0 0 0 0 0 0 0 0 0 0 0 0 0 0 
0 0 0 0 0 0 0 0 0 0 0 0 0 0 0 0 0 0 0 0 0 0 0 0 0 0 0 0 0 0 0 0 0 0 0 0 0 0 0 0 0 0 0 0 0 0 0 0 0 0 1 6 6 4 0 0 0 0 0 0 0 0 0 0 0 0 0 0 0 0 0 0 0 0 0 0 0 0 0 0 0 0 0 0 0 0 0 0 0 0 0 0 0 0 0 0 0 0 0 0 0 0 0 0 0 0 0 0 0 0 0 0 0 0 0 0 0 0 0 0 0 0 0 0 0 0 0 0 
0 0 0 0 0 0 0 0 0 0 0 0 0 0 0 0 0 0 0 0 0 0 0 0 0 0 0 0 0 0 0 0 0 0 0 0 0 0 0 0 0 0 0 4 14 13 15 15 14 14 14 16 17 17 17 15 15 16 18 10 1 0 0 0 0 0 0 0 0 0 0 0 0 0 0 0 0 0 0 0 0 0 0 0 0 0 0 0 0 0 0 0 0 0 0 0 0 0 0 0 0 0 0 0 0 0 0 0 0 0 0 0 0 0 0 0 0 0 0 0 0 0 0 0 0 0 0 0 
0 0 0 0 0 0 0 0 0 0 0 0 0 0 0 0 0 0 0 0 0 0 0 0 0 0 0 0 0 0 0 0 0 0 0 0 0 0 0 0 6 16 21 19 22 30 48 72 89 100 108 114 118 116 110 101 92 82 66 40 25 22 19 7 0 0 0 0 0 0 0 0 0 0 0 0 0 0 0 0 0 0 0 0 0 0 0 0 0 0 0 0 0 0 0 0 0 0 0 0 0 0 0 0 0 0 0 0 0 0 0 0 0 0 0 0 0 0 0 0 0 0 0 0 0 0 0 0 
0 0 0 0 0 0 0 0 0 0 0 0 0 0 0 0 0 0 0 0 0 0 0 0 0 0 0 0 0 0 0 0 0 0 0 0 0 0 12 21 25 23 33 65 99 118 131 141 147 153 161 169 173 175 176 173 163 151 138 123 110 92 62 32 22 14 6 0 0 0 0 0 0 0 0 0 0 0 0 0 0 0 0 0 0 0 0 0 0 0 0 0 0 0 0 0 0 0 0 0 0 0 0 0 0 0 0 0 0 0 0 0 0 0 0 0 0 0 0 0 0 0 0 0 0 0 0 0 
0 0 0 0 0 0 0 0 0 0 0 0 0 0 0 0 0 0 0 0 0 0 0 0 0 0 0 0 0 0 0 0 0 0 0 0 10 27 25 21 48 89 122 140 149 149 155 172 199 219 218 214 211 210 209 214 219 222 220 203 179 155 132 116 98 66 29 20 10 1 0 0 0 0 0 0 0 0 0 0 0 0 0 0 0 0 0 0 0 0 0 0 0 0 0 0 0 0 0 0 0 0 0 0 0 0 0 0 0 0 0 0 0 0 0 0 0 0 0 0 0 0 0 0 0 0 0 0 
0 0 0 0 0 0 0 0 0 0 0 0 0 0 0 0 0 0 0 0 0 0 0 0 0 0 0 0 0 0 0 0 0 0 9 27 23 21 53 105 134 151 145 147 172 208 215 201 186 168 153 150 145 135 131 144 160 174 182 192 208 218 210 184 154 130 114 86 42 22 10 0 0 0 0 0 0 0 0 0 0 0 0 0 0 0 0 0 0 0 0 0 0 0 0 0 0 0 0 0 0 0 0 0 0 0 0 0 0 0 0 0 0 0 0 0 0 0 0 0 0 0 0 0 0 0 0 0 
0 0 0 0 0 0 0 0 0 0 0 0 0 0 0 0 0 0 0 0 0 0 0 0 0 0 0 0 0 0 0 0 1 27 25 17 50 110 141 156 145 155 190 216 206 189 162 139 121 111 112 122 122 113 121 123 125 131 137 146 155 170 191 208 220 205 174 143 121 86 40 24 10 0 0 0 0 0 0 0 0 0 0 0 0 0 0 0 0 0 0 0 0 0 0 0 0 0 0 0 0 0 0 0 0 0 0 0 0 0 0 0 0 0 0 0 0 0 0 0 0 0 0 0 0 0 0 0 
0 0 0 0 0 0 0 0 0 0 0 0 0 0 0 0 0 0 0 0 0 0 0 0 0 0 0 0 0 0 0 18 26 16 36 99 139 154 148 162 199 216 203 182 170 160 153 156 162 147 115 106 105 103 109 125 146 150 156 157 154 148 146 157 180 204 223 214 178 145 116 64 30 21 0 0 0 0 0 0 0 0 0 0 0 0 0 0 0 0 0 0 0 0 0 0 0 0 0 0 0 0 0 0 0 0 0 0 0 0 0 0 0 0 0 0 0 0 0 0 0 0 0 0 0 0 0 0 
0 0 0 0 0 0 0 0 0 0 0 0 0 0 0 0 0 0 0 0 0 0 0 0 0 0 0 0 0 8 26 19 19 75 134 154 147 158 201 220 200 175 155 145 147 150 155 156 151 149 146 140 139 144 151 154 159 166 166 163 159 165 173 161 146 146 165 194 219 215 176 138 97 40 23 5 0 0 0 0 0 0 0 0 0 0 0 0 0 0 0 0 0 0 0 0 0 0 0 0 0 0 0 0 0 0 0 0 0 0 0 0 0 0 0 0 0 0 0 0 0 0 0 0 0 0 0 0 
0 0 0 0 0 0 0 0 0 0 0 0 0 0 0 0 0 0 0 0 0 0 0 0 0 0 0 0 18 23 15 47 120 150 152 156 197 223 203 172 139 138 146 141 145 153 167 172 171 171 170 164 158 159 161 162 153 154 170 179 177 165 156 167 175 169 150 142 158 195 221 208 157 118 54 21 12 0 0 0 0 0 0 0 0 0 0 0 0 0 0 0 0 0 0 0 0 0 0 0 0 0 0 0 0 0 0 0 0 0 0 0 0 0 0 0 0 0 0 0 0 0 0 0 0 0 0 0 
0 0 0 0 0 0 0 0 0 0 0 0 0 0 0 0 0 0 0 0 0 0 0 0 0 0 3 21 17 23 80 133 150 150 179 222 210 174 146 135 139 147 140 136 138 138 133 121 133 149 154 159 153 134 114 98 92 89 98 121 149 171 170 162 158 165 171 170 154 147 170 204 218 168 127 63 23 13 0 0 0 0 0 0 0 0 0 0 0 0 0 0 0 0 0 0 0 0 0 0 0 0 0 0 0 0 0 0 0 0 0 0 0 0 0 0 0 0 0 0 0 0 0 0 0 0 0 0 
0 0 0 0 0 0 0 0 0 0 0 0 0 0 0 0 0 0 0 0 0 0 0 0 0 11 21 19 37 98 135 145 160 209 222 187 153 138 137 150 162 150 133 122 121 119 97 93 100 105 106 113 104 104 105 104 103 100 98 97 103 135 167 165 156 157 160 165 174 167 149 154 191 214 175 134 69 21 12 0 0 0 0 0 0 0 0 0 0 0 0 0 0 0 0 0 0 0 0 0 0 0 0 0 0 0 0 0 0 0 0 0 0 0 0 0 0 0 0 0 0 0 0 0 0 0 0 0 
0 0 0 0 0 0 0 0 0 0 0 0 0 0 0 0 0 0 0 0 0 0 0 0 14 19 18 37 104 134 142 170 222 211 166 139 127 140 165 165 135 123 125 122 119 110 101 103 106 104 81 62 64 92 101 91 89 94 101 95 96 101 136 160 160 164 161 159 158 161 176 158 149 182 211 181 140 77 23 12 0 0 0 0 0 0 0 0 0 0 0 0 0 0 0 0 0 0 0 0 0 0 0 0 0 0 0 0 0 0 0 0 0 0 0 0 0 0 0 0 0 0 0 0 0 0 0 0 
0 0 0 0 0 0 0 0 0 0 0 0 0 0 0 0 0 0 0 0 0 0 1 23 15 17 42 104 131 145 186 227 200 154 130 125 150 168 146 124 123 119 105 101 101 98 98 96 75 71 60 58 56 70 78 68 64 66 82 99 96 95 100 128 156 163 167 162 157 152 148 167 166 151 177 210 178 144 87 25 12 0 0 0 0 0 0 0 0 0 0 0 0 0 0 0 0 0 0 0 0 0 0 0 0 0 0 0 0 0 0 0 0 0 0 0 0 0 0 0 0 0 0 0 0 0 0 0 
0 0 0 0 0 0 0 0 0 0 0 0 0 0 0 0 0 0 0 0 0 3 22 11 14 55 105 124 144 199 223 192 140 119 130 157 169 142 127 114 103 94 96 99 100 103 90 64 63 63 62 62 64 71 87 91 93 95 95 97 107 110 100 95 106 142 160 159 161 159 155 145 154 168 157 178 208 172 143 94 29 10 0 0 0 0 0 0 0 0 0 0 0 0 0 0 0 0 0 0 0 0 0 0 0 0 0 0 0 0 0 0 0 0 0 0 0 0 0 0 0 0 0 0 0 0 0 0 
0 0 0 0 0 0 0 0 0 0 0 0 0 0 0 0 0 0 0 0 4 23 10 15 73 114 120 151 206 222 186 126 113 134 162 169 141 103 90 95 106 112 121 124 121 107 91 88 88 83 81 84 86 95 102 105 104 102 104 105 106 109 115 109 92 92 122 151 158 155 152 151 133 137 167 163 185 212 173 146 105 37 10 0 0 0 0 0 0 0 0 0 0 0 0 0 0 0 0 0 0 0 0 0 0 0 0 0 0 0 0 0 0 0 0 0 0 0 0 0 0 0 0 0 0 0 0 0 
0 0 0 0 0 0 0 0 0 0 0 0 0 0 0 0 0 0 0 3 20 9 20 85 121 124 152 203 226 186 118 121 141 161 165 125 92 99 112 120 126 129 123 111 108 103 100 100 99 93 95 97 95 97 97 94 93 92 94 92 95 99 105 111 111 102 92 101 139 150 140 143 151 130 139 163 166 192 210 153 142 104 36 6 0 0 0 0 0 0 0 0 0 0 0 0 0 0 0 0 0 0 0 0 0 0 0 0 0 0 0 0 0 0 0 0 0 0 0 0 0 0 0 0 0 0 0 0 
0 0 0 0 0 0 0 0 0 0 0 0 0 0 0 0 0 0 2 20 9 20 98 127 115 159 192 222 178 108 121 141 160 161 115 97 113 128 128 128 126 106 92 93 92 92 92 91 93 93 91 92 89 91 92 88 86 84 84 87 86 89 94 99 105 105 107 99 98 132 151 142 152 156 128 125 148 166 197 188 142 140 104 28 5 0 0 0 0 0 0 0 0 0 0 0 0 0 0 0 0 0 0 0 0 0 0 0 0 0 0 0 0 0 0 0 0 0 0 0 0 0 0 0 0 0 0 0 
0 0 0 0 0 0 0 0 0 0 0 0 0 0 0 0 0 0 18 10 16 99 138 108 159 179 214 176 108 123 137 157 159 120 109 123 124 126 114 102 91 86 84 86 89 86 86 90 95 99 97 95 97 101 104 103 102 97 92 89 87 84 83 86 93 100 104 112 99 89 118 146 153 156 156 119 119 142 180 211 166 141 128 85 13 0 0 0 0 0 0 0 0 0 0 0 0 0 0 0 0 0 0 0 0 0 0 0 0 0 0 0 0 0 0 0 0 0 0 0 0 0 0 0 0 0 0 0 
0 0 0 0 0 0 0 0 0 0 0 0 0 0 0 0 0 12 13 12 83 150 106 146 173 199 185 110 112 134 151 159 128 120 126 126 117 98 87 83 85 84 84 85 91 96 103 116 128 137 136 137 143 147 148 149 146 143 135 122 107 91 81 83 83 89 94 104 114 98 77 97 143 156 153 153 119 110 144 201 201 146 138 120 52 5 0 0 0 0 0 0 0 0 0 0 0 0 0 0 0 0 0 0 0 0 0 0 0 0 0 0 0 0 0 0 0 0 0 0 0 0 0 0 0 0 0 0 
0 0 0 0 0 0 0 0 0 0 0 0 0 0 0 0 4 15 8 53 148 110 141 176 180 188 117 109 130 141 157 137 128 128 119 106 88 84 85 85 87 84 87 99 115 132 148 162 173 172 172 176 181 181 175 170 178 177 174 164 146 123 102 85 82 79 84 94 103 108 96 77 90 139 153 163 149 120 107 164 224 167 138 125 117 22 0 0 0 0 0 0 0 0 0 0 0 0 0 0 0 0 0 0 0 0 0 0 0 0 0 0 0 0 0 0 0 0 0 0 0 0 0 0 0 0 0 0 
0 0 0 0 0 0 0 0 0 0 0 0 0 0 0 1 12 12 30 132 126 119 170 168 183 147 109 131 140 154 140 132 124 119 101 82 80 82 87 85 87 92 111 129 149 168 177 184 180 168 162 167 175 168 154 143 161 171 177 183 179 165 136 104 85 81 81 84 92 98 99 84 77 97 141 157 170 143 124 114 205 208 149 135 133 78 6 0 0 0 0 0 0 0 0 0 0 0 0 0 0 0 0 0 0 0 0 0 0 0 0 0 0 0 0 0 0 0 0 0 0 0 0 0 0 0 0 0 
0 0 0 0 0 0 0 0 0 0 0 0 0 0 0 4 12 15 91 141 111 159 171 168 172 118 123 134 150 142 133 124 115 94 80 79 85 88 88 87 95 112 142 162 169 178 177 168 154 144 144 144 140 131 129 121 130 141 149 174 188 186 170 136 103 87 85 84 84 93 100 94 74 80 108 144 166 157 131 111 160 221 164 143 122 125 21 0 0 0 0 0 0 0 0 0 0 0 0 0 0 0 0 0 0 0 0 0 0 0 0 0 0 0 0 0 0 0 0 0 0 0 0 0 0 0 0 0 
0 0 0 0 0 0 0 0 0 0 0 0 0 0 2 7 12 57 144 118 133 174 154 176 151 115 131 148 146 130 126 113 92 81 79 84 85 85 91 95 116 145 168 171 168 162 153 150 137 127 127 133 124 121 120 124 124 126 139 155 171 188 192 177 141 104 86 83 84 89 95 102 90 81 86 112 150 167 139 122 142 211 184 144 125 134 61 2 0 0 0 0 0 0 0 0 0 0 0 0 0 0 0 0 0 0 0 0 0 0 0 0 0 0 0 0 0 0 0 0 0 0 0 0 0 0 0 0 
0 0 0 0 0 0 0 0 0 0 0 0 0 0 4 9 27 107 141 110 166 153 142 180 146 129 138 142 126 126 116 94 83 79 82 85 88 92 96 112 143 169 172 162 150 147 141 143 137 132 130 134 134 129 112 126 137 130 126 135 142 170 184 187 176 142 101 83 82 82 87 96 99 88 82 91 115 155 150 125 142 197 190 146 136 122 113 12 0 0 0 0 0 0 0 0 0 0 0 0 0 0 0 0 0 0 0 0 0 0 0 0 0 0 0 0 0 0 0 0 0 0 0 0 0 0 0 0 
0 0 0 0 0 0 0 0 0 0 0 0 0 0 3 17 68 131 119 134 166 121 148 176 140 134 119 118 124 122 93 77 79 82 86 88 89 92 108 143 163 164 158 145 133 138 144 145 148 141 139 137 134 118 115 138 145 135 136 140 131 138 158 170 174 177 145 103 88 87 86 88 95 95 87 84 87 115 143 133 140 192 190 150 139 114 134 36 0 0 0 0 0 0 0 0 0 0 0 0 0 0 0 0 0 0 0 0 0 0 0 0 0 0 0 0 0 0 0 0 0 0 0 0 0 0 0 0 
0 0 0 0 0 0 0 0 0 0 0 0 0 2 6 36 94 144 114 155 146 118 175 171 133 117 97 120 127 105 83 79 82 82 90 93 92 100 134 155 151 144 138 131 127 132 141 143 154 153 148 141 139 139 146 142 151 141 141 123 100 102 121 142 147 173 179 143 101 87 84 82 89 93 93 88 84 96 117 128 139 182 193 160 142 117 137 57 1 0 0 0 0 0 0 0 0 0 0 0 0 0 0 0 0 0 0 0 0 0 0 0 0 0 0 0 0 0 0 0 0 0 0 0 0 0 0 0 
0 0 0 0 0 0 0 0 0 0 0 0 0 1 10 61 115 133 126 158 115 132 192 170 132 81 101 123 119 88 81 80 84 87 91 90 96 136 159 145 121 127 131 132 132 131 127 139 146 136 134 146 137 145 139 122 127 132 129 102 92 95 105 128 137 153 181 185 144 104 88 84 84 89 95 97 85 85 98 103 134 173 192 161 141 123 132 80 5 0 0 0 0 0 0 0 0 0 0 0 0 0 0 0 0 0 0 0 0 0 0 0 0 0 0 0 0 0 0 0 0 0 0 0 0 0 0 0 
0 0 0 0 0 0 0 0 0 0 0 0 0 2 21 77 128 126 139 145 115 151 185 156 96 66 116 124 109 84 82 86 89 89 97 105 140 166 149 129 116 80 82 112 134 131 110 111 107 103 113 132 137 129 119 101 100 107 117 113 107 103 102 118 131 132 156 183 185 143 99 87 81 86 95 103 89 86 97 96 133 165 176 158 143 125 119 99 7 0 0 0 0 0 0 0 0 0 0 0 0 0 0 0 0 0 0 0 0 0 0 0 0 0 0 0 0 0 0 0 0 0 0 0 0 0 0 0 
0 0 0 0 0 0 0 0 0 0 0 0 0 1 34 90 139 127 150 128 126 159 180 131 62 79 128 122 102 80 83 86 91 98 117 151 172 155 134 91 47 48 48 55 105 120 93 69 66 75 84 91 98 96 88 76 75 81 87 112 129 127 110 117 130 121 122 150 189 189 138 94 85 86 94 108 97 86 95 85 120 158 181 154 155 130 109 115 12 0 0 0 0 0 0 0 0 0 0 0 0 0 0 0 0 0 0 0 0 0 0 0 0 0 0 0 0 0 0 0 0 0 0 0 0 0 0 0 
0 0 0 0 0 0 0 0 0 0 0 0 1 4 46 101 142 135 146 123 137 163 172 96 54 101 130 117 94 82 85 89 96 124 161 176 157 139 101 47 47 49 45 46 62 105 78 57 58 63 73 77 86 89 81 80 85 86 87 85 71 73 51 48 53 72 96 131 172 198 189 136 91 84 92 109 103 81 92 67 107 154 182 142 158 137 111 130 24 0 0 0 0 0 0 0 0 0 0 0 0 0 0 0 0 0 0 0 0 0 0 0 0 0 0 0 0 0 0 0 0 0 0 0 0 0 0 0 
0 0 0 0 0 0 0 0 0 0 0 0 1 8 54 112 137 132 136 119 136 158 161 79 65 112 126 115 88 82 89 93 120 166 180 160 130 120 69 47 47 48 47 44 47 73 76 62 64 73 82 82 100 127 118 120 129 125 100 61 47 48 47 49 48 49 54 92 145 181 201 187 129 87 88 100 112 83 88 60 98 154 187 147 158 140 117 128 37 0 0 0 0 0 0 0 0 0 0 0 0 0 0 0 0 0 0 0 0 0 0 0 0 0 0 0 0 0 0 0 0 0 0 0 0 0 0 0 
0 0 0 0 0 0 0 0 0 0 0 0 1 10 61 124 134 137 135 118 134 158 133 76 78 114 122 107 84 86 92 108 162 184 168 129 96 103 114 48 47 47 46 46 45 44 62 72 75 92 106 95 102 129 124 124 118 133 117 57 46 47 48 48 48 48 57 104 126 148 177 199 186 123 88 95 101 95 84 55 92 156 192 153 159 148 130 121 51 0 0 0 0 0 0 0 0 0 0 0 0 0 0 0 0 0 0 0 0 0 0 0 0 0 0 0 0 0 0 0 0 0 0 0 0 0 0 0 
0 0 0 0 0 0 0 0 0 0 0 0 2 17 66 135 133 146 133 120 138 158 128 85 91 111 119 105 87 94 103 152 191 176 135 111 92 89 100 112 115 98 48 46 46 46 45 62 83 111 128 104 85 112 128 115 97 103 96 48 48 50 47 47 49 81 105 93 108 145 175 183 200 187 126 96 102 105 74 51 94 159 192 156 158 151 136 113 64 4 0 0 0 0 0 0 0 0 0 0 0 0 0 0 0 0 0 0 0 0 0 0 0 0 0 0 0 0 0 0 0 0 0 0 0 0 0 0 
0 0 0 0 0 0 0 0 0 0 0 0 2 14 67 140 125 145 137 132 144 147 129 93 96 105 116 103 86 93 142 187 177 144 135 89 51 48 48 47 53 68 58 47 47 45 45 49 79 110 122 122 99 116 123 66 48 48 48 49 47 48 48 60 62 54 52 50 57 81 108 150 193 206 199 141 114 115 63 55 115 150 193 156 158 159 140 111 72 6 0 0 0 0 0 0 0 0 0 0 0 0 0 0 0 0 0 0 0 0 0 0 0 0 0 0 0 0 0 0 0 0 0 0 0 0 0 0 
0 0 0 0 0 0 0 0 0 0 0 0 6 12 70 140 120 143 137 136 147 139 133 98 100 98 114 97 88 116 180 185 169 148 75 48 48 46 48 47 47 52 47 51 69 60 48 48 45 47 49 96 109 119 94 48 49 47 49 46 47 55 52 47 53 55 55 56 62 81 92 93 116 179 210 208 166 120 60 70 129 169 194 153 155 160 142 112 73 5 0 0 0 0 0 0 0 0 0 0 0 0 0 0 0 0 0 0 0 0 0 0 0 0 0 0 0 0 0 0 0 0 0 0 0 0 0 0 
0 0 0 0 0 0 0 0 0 0 0 0 9 9 77 139 123 145 136 140 142 124 137 126 118 99 110 96 99 169 192 180 161 77 49 47 49 55 54 54 54 55 49 50 50 67 51 50 45 48 48 59 94 91 63 50 48 48 49 48 55 53 46 52 58 58 58 56 61 77 94 93 89 114 188 222 212 131 58 86 147 187 185 146 150 156 145 115 77 7 0 0 0 0 0 0 0 0 0 0 0 0 0 0 0 0 0 0 0 0 0 0 0 0 0 0 0 0 0 0 0 0 0 0 0 0 0 0 
0 0 0 0 0 0 0 0 0 0 0 0 8 6 86 139 125 142 133 143 143 116 129 148 125 107 99 112 141 194 189 179 91 49 48 52 53 57 53 53 55 54 55 48 50 51 57 51 50 48 48 54 90 78 57 49 49 48 49 56 59 48 50 60 62 62 60 61 61 79 107 115 111 115 133 199 217 154 58 79 154 187 172 136 147 151 146 119 97 20 0 0 0 0 0 0 0 0 0 0 0 0 0 0 0 0 0 0 0 0 0 0 0 0 0 0 0 0 0 0 0 0 0 0 0 0 0 0 
0 0 0 0 0 0 0 0 0 0 0 0 11 6 96 132 123 138 133 148 145 107 111 155 131 114 93 116 182 192 192 133 62 51 51 54 56 55 58 57 57 57 56 54 50 50 60 61 53 52 51 57 82 81 69 49 48 49 51 83 51 47 53 64 75 82 82 81 81 90 103 110 112 122 119 136 190 158 62 66 161 180 169 123 142 145 143 119 102 37 0 0 0 0 0 0 0 0 0 0 0 0 0 0 0 0 0 0 0 0 0 0 0 0 0 0 0 0 0 0 0 0 0 0 0 0 0 0 
0 0 0 0 0 0 0 0 0 0 0 0 10 9 112 126 120 145 135 142 145 88 107 150 141 108 88 109 188 201 183 98 72 59 62 59 63 73 76 76 76 73 61 60 54 52 55 67 54 55 54 57 70 74 73 50 48 49 66 74 50 51 66 77 79 76 74 79 77 84 101 111 122 123 114 113 127 129 59 60 155 180 173 120 126 142 141 124 104 51 1 0 0 0 0 0 0 0 0 0 0 0 0 0 0 0 0 0 0 0 0 0 0 0 0 0 0 0 0 0 0 0 0 0 0 0 0 0 
0 0 0 0 0 0 0 0 0 0 0 0 10 12 120 120 118 148 141 146 146 73 97 137 148 97 84 104 182 204 163 109 85 77 79 78 78 78 74 76 73 81 75 61 56 53 54 68 53 57 61 60 60 86 72 58 48 49 71 62 52 65 65 58 56 56 56 68 72 83 105 113 113 116 116 109 106 99 55 53 135 174 170 118 110 120 137 129 103 61 1 0 0 0 0 0 0 0 0 0 0 0 0 0 0 0 0 0 0 0 0 0 0 0 0 0 0 0 0 0 0 0 0 0 0 0 0 0 
0 0 0 0 0 0 0 0 0 0 0 0 9 14 123 114 117 152 140 147 140 68 100 138 148 100 88 100 162 191 128 90 73 70 70 66 65 70 75 63 55 55 60 68 68 59 56 67 73 67 70 75 92 99 100 91 53 51 82 60 64 58 57 55 54 52 51 55 69 76 95 111 111 110 114 102 103 90 51 50 118 173 163 114 107 96 124 130 103 69 6 0 0 0 0 0 0 0 0 0 0 0 0 0 0 0 0 0 0 0 0 0 0 0 0 0 0 0 0 0 0 0 0 0 0 0 0 0 
0 0 0 0 0 0 0 0 0 0 0 0 9 13 122 113 115 153 136 145 125 67 108 135 141 99 88 95 136 155 107 82 72 71 67 68 66 68 67 51 50 50 51 56 68 81 75 75 95 76 77 88 109 87 80 99 61 56 98 71 51 52 51 47 50 49 52 50 63 77 96 109 111 111 104 102 102 84 50 48 108 168 164 113 101 82 109 126 103 76 4 0 0 0 0 0 0 0 0 0 0 0 0 0 0 0 0 0 0 0 0 0 0 0 0 0 0 0 0 0 0 0 0 0 0 0 0 0 
0 0 0 0 0 0 0 0 0 0 0 0 9 16 123 115 113 162 116 122 122 73 110 110 104 95 89 92 125 145 102 70 70 72 70 66 66 70 60 48 49 49 50 55 59 70 91 92 84 84 95 111 103 89 83 63 73 43 79 56 48 51 49 48 50 47 49 55 63 75 97 107 106 107 101 103 104 78 45 54 121 172 170 117 90 71 100 142 108 80 2 0 0 0 0 0 0 0 0 0 0 0 0 0 0 0 0 0 0 0 0 0 0 0 0 0 0 0 0 0 0 0 0 0 0 0 0 0 
0 0 0 0 0 0 0 0 0 0 0 0 9 14 121 118 117 167 106 119 123 81 111 95 96 98 95 91 114 143 104 67 65 70 70 68 66 69 59 49 51 47 51 55 59 68 87 90 73 69 77 109 81 74 67 50 63 54 59 51 49 53 54 51 49 48 52 57 66 76 95 105 106 101 99 104 103 67 40 61 128 170 178 122 80 68 101 142 114 81 3 0 0 0 0 0 0 0 0 0 0 0 0 0 0 0 0 0 0 0 0 0 0 0 0 0 0 0 0 0 0 0 0 0 0 0 0 0 
0 0 0 0 0 0 0 0 0 0 0 0 8 15 112 126 126 153 105 119 126 92 111 85 93 104 96 94 111 155 119 72 63 66 69 67 65 73 66 52 48 49 51 59 63 72 87 83 74 64 89 92 77 70 70 55 58 82 46 58 50 53 54 50 49 51 53 55 68 75 92 102 108 97 102 111 100 56 40 65 129 166 186 128 70 71 102 131 113 78 4 0 0 0 0 0 0 0 0 0 0 0 0 0 0 0 0 0 0 0 0 0 0 0 0 0 0 0 0 0 0 0 0 0 0 0 0 0 
0 0 0 0 0 0 0 0 0 0 0 0 4 14 103 134 129 139 106 118 126 107 113 78 85 106 96 91 121 174 159 83 65 65 66 62 66 73 69 54 48 49 48 53 60 72 84 92 78 69 103 76 72 68 78 56 54 85 79 67 51 48 50 50 47 51 55 58 67 71 89 102 105 99 101 108 89 53 40 69 125 156 182 122 58 73 110 134 120 71 2 0 0 0 0 0 0 0 0 0 0 0 0 0 0 0 0 0 0 0 0 0 0 0 0 0 0 0 0 0 0 0 0 0 0 0 0 0 
0 0 0 0 0 0 0 0 0 0 0 0 2 16 92 135 130 135 108 114 125 119 118 86 75 99 97 92 128 188 183 107 63 58 59 58 61 68 68 57 49 49 50 55 61 73 78 80 76 84 98 71 69 71 74 57 55 63 91 65 53 45 48 51 48 52 53 60 65 68 86 103 105 97 102 100 75 52 46 67 122 154 178 110 49 78 125 133 116 59 2 0 0 0 0 0 0 0 0 0 0 0 0 0 0 0 0 0 0 0 0 0 0 0 0 0 0 0 0 0 0 0 0 0 0 0 0 0 
0 0 0 0 0 0 0 0 0 0 0 0 2 14 83 143 129 146 113 107 124 121 113 97 70 86 100 97 147 194 187 102 55 62 57 59 56 59 62 62 50 50 53 59 59 68 72 73 73 92 73 65 66 66 73 64 55 50 77 74 58 53 45 49 52 50 51 63 65 66 86 105 99 100 101 90 59 56 57 64 121 167 167 90 42 83 144 130 119 47 1 0 0 0 0 0 0 0 0 0 0 0 0 0 0 0 0 0 0 0 0 0 0 0 0 0 0 0 0 0 0 0 0 0 0 0 0 0 
0 0 0 0 0 0 0 0 0 17 12 0 0 10 75 147 127 142 122 108 123 124 110 110 69 74 101 101 169 187 183 99 48 55 56 53 56 61 62 64 54 47 49 53 57 75 85 77 85 83 59 62 63 82 88 87 64 50 59 87 93 66 59 55 52 65 68 69 66 67 88 101 94 98 100 76 63 111 112 73 127 175 152 71 38 88 159 117 109 36 2 0 0 0 0 0 0 0 0 0 0 0 0 0 0 0 0 0 0 0 0 0 0 0 0 0 0 0 0 0 0 0 0 0 0 0 0 0 
0 0 0 0 0 0 0 0 0 0 8 3 0 8 63 151 123 123 124 112 118 122 102 112 74 61 96 112 180 158 152 124 49 48 56 51 56 62 60 61 61 55 55 61 64 79 110 91 101 82 47 47 50 64 59 58 84 68 58 100 112 106 62 41 40 47 59 62 65 69 86 99 92 97 96 73 128 161 164 146 168 178 135 53 42 95 143 100 107 28 2 0 0 0 0 0 0 0 0 0 0 0 0 0 0 0 0 0 0 0 0 0 0 0 0 0 0 0 0 0 0 0 0 0 0 0 0 0 
0 0 0 0 0 0 0 0 0 0 2 10 0 7 50 151 127 100 110 123 123 117 98 109 83 52 83 117 182 143 129 149 65 43 57 52 52 60 56 60 57 67 66 64 70 62 83 85 97 45 41 52 51 72 57 58 69 95 94 102 92 77 78 74 60 53 58 56 65 80 96 96 87 94 87 117 144 143 182 202 183 175 115 37 53 120 123 98 97 20 0 0 0 0 0 0 0 0 0 0 0 0 0 0 0 0 0 0 0 0 0 0 0 0 0 0 0 0 0 0 0 0 0 0 0 0 0 0 
0 0 0 0 0 0 0 0 0 0 0 15 0 7 45 143 132 95 94 117 121 121 120 111 99 53 70 116 179 170 156 139 96 50 56 56 51 52 51 59 55 78 63 55 55 55 73 103 100 40 43 63 45 69 50 56 67 67 74 114 103 65 79 75 80 86 111 99 90 95 105 95 94 104 121 133 123 112 164 215 189 161 89 29 79 139 111 81 102 13 0 0 0 17 15 0 0 0 0 0 0 0 0 0 0 0 0 0 0 0 0 0 0 0 0 0 0 0 0 0 0 0 0 0 0 0 0 0 
0 0 0 0 0 0 0 0 0 0 0 16 3 6 36 138 136 105 84 115 131 125 120 120 116 77 60 120 177 169 153 116 77 66 54 55 50 52 76 79 63 54 46 49 64 89 79 80 65 36 59 63 45 69 48 40 39 51 69 118 112 88 83 75 90 105 127 141 140 134 120 108 114 117 121 157 129 110 167 224 178 136 57 55 107 133 69 89 102 9 0 0 7 0 0 0 0 0 0 0 0 0 0 0 0 0 0 0 0 0 0 0 0 0 0 0 0 0 0 0 0 0 0 0 0 0 0 0 
0 0 0 0 0 0 0 0 0 0 0 13 13 9 27 128 129 117 94 102 130 130 125 123 115 96 73 128 175 146 142 116 80 79 81 86 77 67 62 55 60 58 43 51 77 66 60 63 60 45 63 52 57 78 61 37 34 55 69 124 128 95 79 88 92 114 124 121 116 126 150 132 115 99 135 148 143 132 199 223 164 100 42 109 164 102 47 114 106 6 0 0 4 0 0 0 0 0 0 0 0 0 0 0 0 0 0 0 0 0 0 0 0 0 0 0 0 0 0 0 0 0 0 0 0 0 0 0 
0 0 0 0 0 0 0 0 0 0 0 8 16 14 19 119 133 122 105 92 120 140 132 125 124 99 93 155 164 141 144 126 101 94 83 96 104 105 120 117 99 74 61 78 73 45 70 63 63 49 36 35 51 80 64 36 40 67 92 110 126 134 105 109 98 119 141 135 126 136 164 149 153 150 114 134 139 159 216 231 158 84 95 170 168 79 42 144 98 2 0 0 2 0 0 0 0 0 0 0 0 0 0 0 0 0 0 0 0 0 0 0 0 0 0 0 0 0 0 0 0 0 0 0 0 0 0 0 
0 0 0 0 0 0 0 0 0 0 0 6 15 13 14 92 137 124 116 89 98 144 161 137 148 138 110 182 170 152 148 147 144 154 156 131 116 121 113 127 106 91 126 109 75 73 84 82 97 52 32 35 32 70 53 36 56 81 93 99 110 100 115 111 90 133 174 164 157 158 150 128 140 130 88 117 162 196 224 252 193 152 170 190 145 79 92 156 69 1 1 4 2 0 0 0 0 0 0 0 0 0 0 0 0 0 0 0 0 0 0 0 0 0 0 0 0 0 0 0 0 0 0 0 0 0 0 0 
0 0 0 0 0 0 0 0 0 0 0 7 15 14 13 61 133 112 124 112 91 133 178 156 170 164 113 165 150 170 170 172 175 177 146 123 108 95 118 105 93 128 120 100 105 110 80 65 76 56 41 42 35 62 51 57 64 67 78 96 114 109 99 112 80 82 131 166 162 151 134 117 109 101 110 121 194 220 229 248 222 189 198 179 145 67 88 140 29 2 7 5 0 0 0 0 0 0 0 0 0 0 0 0 0 0 0 0 0 0 0 0 0 0 0 0 0 0 0 0 0 0 0 0 0 0 0 0 
0 0 0 0 0 0 0 0 0 0 0 7 15 11 14 18 92 106 103 121 134 117 153 196 204 200 150 154 132 142 166 167 174 160 163 131 104 107 135 104 98 124 135 122 106 82 87 65 73 71 70 57 52 73 93 83 79 78 73 81 87 73 73 67 66 70 95 142 141 130 104 94 61 45 55 108 214 235 235 224 194 130 128 158 174 86 54 135 36 5 11 10 0 0 0 0 0 0 0 0 0 0 0 0 0 0 0 0 0 0 0 0 0 0 0 0 0 0 0 0 0 0 0 0 0 0 0 0 
0 0 0 0 0 0 0 0 0 0 0 12 13 9 13 11 53 115 108 112 125 164 143 166 199 200 182 176 142 129 151 152 165 156 175 166 158 154 138 95 88 91 104 114 95 85 93 64 79 76 85 97 79 93 85 72 55 57 59 89 79 69 68 72 78 88 114 122 119 106 97 67 44 41 68 147 218 238 218 201 168 151 148 155 153 102 91 104 14 5 8 13 0 0 0 0 0 0 0 0 0 0 0 0 0 0 0 0 0 0 0 0 0 0 0 0 0 0 0 0 0 0 0 0 0 0 0 0 
0 0 0 0 0 0 0 0 0 0 0 13 10 5 13 12 27 115 104 95 91 150 177 157 166 187 180 181 169 147 158 146 156 145 163 180 174 157 102 82 77 75 92 99 77 72 66 55 70 89 84 86 54 65 82 57 36 46 75 96 92 69 73 76 81 104 133 129 127 128 91 68 90 123 164 187 199 222 205 191 105 90 109 106 112 104 141 57 10 9 8 14 6 0 0 0 0 0 0 0 0 0 0 0 0 0 0 0 0 0 0 0 0 0 0 0 0 0 0 0 0 0 0 0 0 0 0 0 
0 0 0 0 0 0 0 0 0 0 0 10 13 7 15 13 11 85 107 87 77 108 101 87 118 165 183 183 189 141 134 76 82 101 120 165 162 139 109 93 84 76 70 74 77 75 78 56 92 121 95 83 71 81 103 80 39 34 58 72 90 77 105 119 110 95 115 125 131 119 93 85 96 187 216 213 210 208 206 155 65 73 86 84 74 93 116 22 16 15 15 3 13 0 0 0 0 0 0 0 0 0 0 0 0 0 0 0 0 0 0 0 0 0 0 0 0 0 0 0 0 0 0 0 0 0 0 0 
0 0 0 0 0 0 0 0 0 0 0 3 16 12 14 14 9 47 124 101 96 80 85 110 129 158 144 141 177 198 154 70 50 70 110 127 155 118 117 93 73 60 81 96 100 96 109 98 102 101 94 80 83 88 106 95 76 55 77 101 101 109 119 143 147 128 116 100 79 54 57 77 162 199 193 200 198 180 164 112 76 70 78 81 76 141 63 11 11 11 16 2 9 5 0 0 0 0 0 0 0 0 0 0 0 0 0 0 0 0 0 0 0 0 0 0 0 0 0 0 0 0 0 0 0 0 0 0 
0 0 0 0 0 0 0 0 0 0 0 0 4 12 13 14 10 17 116 78 69 76 96 138 154 125 115 118 151 169 166 122 44 63 89 110 142 161 120 89 87 105 105 119 119 118 129 123 99 97 97 89 89 98 122 106 97 97 113 127 116 121 125 139 148 137 104 63 43 43 65 154 179 156 171 174 174 167 175 107 78 80 84 65 64 130 27 9 5 1 9 7 15 6 0 0 0 0 0 0 0 0 0 0 0 0 0 0 0 0 0 0 0 0 0 0 0 0 0 0 0 0 0 0 0 0 0 0 
0 0 0 0 0 0 0 0 0 0 0 0 0 0 3 11 10 5 79 103 55 75 110 143 186 136 108 135 148 171 170 154 102 76 58 52 78 105 121 97 98 122 114 125 115 116 125 123 110 102 97 84 104 127 129 145 135 105 107 133 131 135 141 127 130 123 75 48 40 63 129 140 153 157 175 174 163 157 175 129 82 84 85 52 115 84 11 9 3 0 3 10 13 2 0 0 0 0 0 0 0 0 0 0 0 0 0 0 0 0 0 0 0 0 0 0 0 0 0 0 0 0 0 0 0 0 0 0 
0 0 0 0 0 0 0 0 0 0 0 0 0 0 0 6 10 4 38 129 53 57 96 93 170 176 152 128 148 166 171 150 139 126 69 50 50 70 97 125 125 132 130 125 120 136 137 155 152 132 144 161 163 147 133 132 133 130 135 159 167 172 150 120 103 86 72 52 68 137 136 133 142 155 164 169 155 156 195 144 95 89 70 14 100 39 9 8 3 0 0 2 2 0 0 0 0 0 0 0 0 0 0 0 0 0 0 0 0 0 0 0 0 0 0 0 0 0 0 0 0 0 0 0 0 0 0 0 
0 0 0 0 0 0 0 0 0 0 0 0 0 0 0 7 10 6 11 104 78 57 93 111 159 171 167 131 125 158 165 161 147 144 136 104 65 51 67 103 163 153 132 124 124 141 152 161 147 146 170 169 176 177 140 122 116 108 111 137 155 164 147 126 79 77 103 136 184 148 136 141 150 152 136 145 123 143 184 125 94 85 37 10 91 18 9 9 5 0 0 0 0 0 0 0 0 0 0 0 0 0 0 0 0 0 0 0 0 0 0 0 0 0 0 0 0 0 0 0 0 0 0 0 0 0 0 0 
0 0 0 0 0 0 0 0 0 0 6 17 8 0 1 12 12 7 8 63 74 41 85 106 130 169 161 168 121 121 143 153 152 145 136 141 138 115 115 115 131 162 176 142 124 141 170 147 133 165 172 155 148 165 165 142 117 96 99 118 122 124 128 157 160 162 160 176 200 157 153 153 134 100 125 96 106 126 157 111 82 45 21 26 95 8 5 5 10 0 0 0 0 0 0 0 0 0 0 0 0 0 0 0 0 0 0 0 0 0 0 0 0 0 0 0 0 0 0 0 0 0 0 0 0 0 0 0 
0 0 0 0 0 0 0 0 0 0 5 17 18 20 13 13 8 9 13 38 98 65 67 45 96 138 179 179 159 93 79 102 143 144 146 149 143 143 148 153 160 198 221 211 192 168 188 166 152 160 149 108 102 132 156 167 149 124 120 147 151 147 159 185 191 181 158 178 216 164 113 66 61 100 132 115 112 119 158 109 44 32 30 61 101 8 3 0 8 3 0 0 0 0 0 0 0 0 0 0 0 0 0 0 0 0 0 0 0 0 0 0 0 0 0 0 0 0 0 0 0 0 0 0 0 0 0 0 
0 0 0 0 0 0 0 0 0 0 0 8 19 20 16 5 0 11 20 25 88 75 54 87 92 115 177 153 194 119 59 51 80 83 110 148 165 162 158 153 168 186 198 208 220 200 202 193 172 153 121 85 76 97 126 143 150 146 149 163 157 162 173 189 193 192 177 175 173 77 48 50 79 123 155 171 145 136 156 83 29 25 60 110 61 10 0 0 1 13 1 0 0 0 0 0 0 0 0 0 0 0 0 0 0 0 0 0 0 0 0 0 0 0 0 0 0 0 0 0 0 0 0 0 0 0 0 0 
0 0 0 0 0 0 0 0 0 0 0 11 18 13 4 6 5 12 23 20 41 90 91 147 144 151 175 157 168 147 109 61 57 58 38 54 83 114 151 169 173 179 190 198 229 218 200 201 191 169 138 141 149 121 130 143 154 160 163 176 168 166 181 182 175 164 153 139 155 77 64 90 87 120 174 187 149 122 159 101 29 24 40 82 14 9 7 1 0 8 21 16 11 15 13 0 0 0 0 0 0 0 0 0 0 0 0 0 0 0 0 0 0 0 0 0 0 0 0 0 0 0 0 0 0 0 0 0 
0 0 0 0 0 0 0 0 0 0 0 6 16 10 4 4 5 6 19 22 21 49 83 144 163 171 184 177 158 133 134 116 62 56 31 30 41 44 49 68 103 110 115 158 207 195 173 175 164 115 112 137 138 136 109 108 127 132 124 136 131 127 141 138 146 140 106 110 193 175 123 128 156 153 165 164 94 71 128 66 61 56 85 44 9 5 7 7 8 8 8 14 15 19 12 0 0 0 0 0 0 0 0 0 0 0 0 0 0 0 0 0 0 0 0 0 0 0 0 0 0 0 0 0 0 0 0 0 
0 0 0 0 0 0 0 0 0 0 0 0 11 13 6 5 6 5 8 15 29 37 58 140 133 140 162 173 137 146 134 153 144 129 79 55 52 62 54 66 104 179 180 136 182 181 145 142 109 78 89 72 72 89 101 97 87 80 98 156 179 133 101 133 145 152 138 140 192 245 196 135 127 127 103 83 81 78 122 25 34 63 50 20 10 0 1 4 5 5 2 1 11 11 0 0 0 0 0 0 0 0 0 0 0 0 0 0 0 0 0 0 0 0 0 0 0 0 0 0 0 0 0 0 0 0 0 0 
0 0 0 0 0 0 0 0 0 0 0 0 2 6 4 5 4 2 2 18 22 29 49 69 56 55 101 171 144 157 124 146 151 163 150 130 113 127 124 123 148 149 149 198 210 214 209 193 151 143 138 128 108 83 87 94 122 143 161 174 168 155 146 151 175 244 110 124 99 228 226 197 121 79 73 129 129 130 108 12 13 10 28 42 19 0 0 1 1 3 2 4 12 2 0 0 0 0 0 0 0 0 0 0 0 0 0 0 0 0 0 0 0 0 0 0 0 0 0 0 0 0 0 0 0 0 0 0 
0 0 0 0 0 0 0 0 0 0 0 0 0 0 1 4 2 1 0 14 25 21 33 46 26 20 22 121 124 103 113 126 157 158 128 122 106 120 138 174 196 152 125 144 159 189 154 110 100 72 104 139 168 179 160 145 142 151 154 194 179 134 115 146 150 203 179 110 132 196 176 113 71 42 44 69 69 112 107 29 22 23 36 43 18 0 0 0 1 0 0 4 12 0 0 0 0 0 0 0 0 0 0 0 0 0 0 0 0 0 0 0 0 0 0 0 0 0 0 0 0 0 0 0 0 0 0 0 
0 0 0 0 0 0 0 0 0 0 0 0 0 0 0 0 5 5 4 3 13 16 21 25 25 24 23 94 128 66 33 60 89 50 66 73 63 35 35 35 54 100 188 203 132 132 89 70 64 64 80 81 81 102 96 80 74 75 71 68 66 97 89 106 105 99 71 36 38 44 42 53 55 38 47 61 76 115 95 28 32 20 21 5 0 0 6 5 0 0 0 4 1 0 0 0 0 0 0 0 0 0 0 0 0 0 0 0 0 0 0 0 0 0 0 0 0 0 0 0 0 0 0 0 0 0 0 0 
0 0 0 0 0 0 0 0 0 0 0 0 0 0 0 0 0 3 5 1 6 10 14 16 24 23 18 60 141 80 32 51 85 39 42 58 81 73 51 33 38 71 61 57 63 77 79 60 82 112 111 106 102 116 134 136 126 107 75 58 79 66 52 55 57 56 31 49 62 56 46 49 48 41 65 75 83 109 84 35 35 24 11 4 0 0 1 0 0 0 0 0 0 0 0 0 0 0 0 0 0 0 0 0 0 0 0 0 0 0 0 0 0 0 0 0 0 0 0 0 0 0 0 0 0 0 0 0 
0 0 0 0 0 0 0 0 0 0 0 0 0 0 0 0 0 0 0 0 3 7 12 15 25 31 29 51 135 81 38 41 82 55 45 56 93 116 112 86 102 93 70 55 53 56 83 113 119 96 99 121 134 134 128 110 100 125 148 120 96 72 69 84 155 202 169 179 183 73 36 40 39 64 94 97 88 115 75 36 38 25 10 13 1 0 0 0 0 0 0 0 0 0 0 0 0 0 0 0 0 0 0 0 0 0 0 0 0 0 0 0 0 0 0 0 0 0 0 0 0 0 0 0 0 0 0 0 
0 0 0 0 0 0 0 0 0 0 0 0 0 0 0 0 0 0 0 0 0 3 5 10 26 43 46 86 150 126 100 96 113 90 71 63 92 114 126 140 183 124 67 76 97 107 133 143 148 151 165 174 187 188 189 201 199 196 173 144 110 87 90 139 89 233 221 199 150 203 82 37 33 28 39 52 65 110 52 38 33 29 31 26 0 0 0 0 0 0 0 0 0 0 0 0 0 0 0 0 0 0 0 0 0 0 0 0 0 0 0 0 0 0 0 0 0 0 0 0 0 0 0 0 0 0 0 0 
0 0 0 0 0 0 0 0 0 0 0 0 0 0 0 0 0 0 0 0 0 10 7 3 9 31 30 67 118 140 128 140 149 135 147 136 98 118 100 67 147 65 93 125 217 202 171 109 214 234 241 238 237 230 223 212 203 184 119 89 90 125 155 127 198 138 122 172 108 151 119 90 74 90 95 90 70 91 21 9 3 0 0 0 0 0 0 0 0 0 0 0 0 0 0 0 0 0 0 0 0 0 0 0 0 0 0 0 0 0 0 0 0 0 0 0 0 0 0 0 0 0 0 0 0 0 0 0 
0 0 0 0 0 0 0 0 0 0 0 0 0 0 0 0 0 0 0 0 0 0 2 1 2 10 16 38 98 112 82 85 102 56 29 39 50 52 83 124 52 41 87 99 128 132 128 151 179 198 199 196 194 200 196 187 176 136 84 78 86 127 130 183 171 200 197 160 153 178 138 57 21 25 34 93 56 91 21 13 7 9 14 0 0 0 0 0 0 0 0 0 0 0 0 0 0 0 0 0 0 0 0 0 0 0 0 0 0 0 0 0 0 0 0 0 0 0 0 0 0 0 0 0 0 0 0 0 
0 0 0 0 0 0 0 0 0 0 0 0 0 0 0 0 0 0 0 0 0 0 0 8 5 14 17 19 62 82 46 31 74 52 24 36 35 43 73 91 59 50 86 110 89 84 120 138 150 107 103 74 65 75 77 68 75 88 71 79 109 113 118 103 152 217 198 59 211 187 154 93 60 47 52 124 55 87 28 16 3 13 9 0 0 0 0 0 0 0 0 0 0 0 0 0 0 0 0 0 0 0 0 0 0 0 0 0 0 0 0 0 0 0 0 0 0 0 0 0 0 0 0 0 0 0 0 0 
0 0 0 0 0 0 0 0 0 0 0 0 0 0 0 0 0 0 0 0 0 0 0 7 8 11 16 19 43 83 54 31 65 53 27 26 27 45 82 78 49 72 123 103 92 75 103 124 138 135 129 106 90 83 80 94 133 138 130 111 117 120 111 100 91 98 116 135 101 112 99 60 36 31 49 119 61 92 34 17 10 7 4 0 0 0 0 0 0 0 0 0 0 0 0 0 0 0 0 0 0 0 0 0 0 0 0 0 0 0 0 0 0 0 0 0 0 0 0 0 0 0 0 0 0 0 0 0 
0 0 0 0 0 0 0 0 0 0 0 0 0 0 0 0 0 0 0 0 0 0 0 1 12 8 12 19 27 68 69 35 61 46 33 29 29 49 78 60 41 84 102 73 66 94 88 116 115 135 128 114 111 99 107 111 113 113 133 113 111 129 109 65 87 79 109 101 63 83 90 53 30 29 44 121 57 87 43 14 9 8 3 0 0 0 0 0 0 0 0 0 0 0 0 0 0 0 0 0 0 0 0 0 0 0 0 0 0 0 0 0 0 0 0 0 0 0 0 0 0 0 0 0 0 0 0 0 
0 0 0 0 0 0 0 0 0 0 0 0 0 0 0 0 0 0 0 0 0 0 0 0 5 11 7 15 20 36 51 30 58 50 27 34 41 67 53 46 71 111 72 59 59 85 84 99 111 134 125 101 102 116 132 106 110 114 122 114 105 133 102 53 68 66 82 114 115 65 78 73 30 28 47 120 63 79 51 11 8 8 3 0 0 0 0 0 0 0 0 0 0 0 0 0 0 0 0 0 0 0 0 0 0 0 0 0 0 0 0 0 0 0 0 0 0 0 0 0 0 0 0 0 0 0 0 0 
0 0 0 0 0 0 0 0 0 0 0 0 0 0 0 0 0 0 0 0 0 0 0 0 2 6 9 11 15 21 30 27 57 62 26 35 53 51 33 69 127 96 82 62 57 86 81 75 86 106 116 93 115 135 111 97 106 109 119 113 96 100 81 65 96 78 68 70 114 120 55 79 41 30 45 102 87 92 31 7 9 5 2 0 0 0 0 0 0 0 0 0 0 0 0 0 0 0 0 0 0 0 0 0 0 0 0 0 0 0 0 0 0 0 0 0 0 0 0 0 0 0 0 0 0 0 0 0 
0 0 0 0 0 0 0 0 0 0 0 0 0 0 0 0 0 0 0 0 0 0 0 0 0 5 9 8 13 19 25 29 55 74 34 40 65 36 39 105 112 69 66 67 74 94 87 48 43 57 91 100 122 114 97 87 87 96 118 92 80 52 71 82 134 88 72 61 80 138 85 69 67 36 51 87 49 37 12 9 8 5 2 0 0 0 0 0 0 0 0 0 0 0 0 0 0 0 0 0 0 0 0 0 0 0 0 0 0 0 0 0 0 0 0 0 0 0 0 0 0 0 0 0 0 0 0 0 
0 0 0 0 0 0 0 0 0 0 0 0 0 0 0 0 0 0 0 0 0 0 0 0 0 3 5 9 14 15 23 29 44 82 58 73 76 28 55 114 101 59 56 64 63 103 90 41 37 34 61 105 116 99 93 98 96 103 90 81 77 63 42 74 143 85 63 66 72 122 124 65 91 65 74 80 33 23 15 9 7 6 2 0 0 0 0 0 0 0 0 0 0 0 0 0 0 0 0 0 0 0 0 0 0 0 0 0 0 0 0 0 0 0 0 0 0 0 0 0 0 0 0 0 0 0 0 0 
0 0 0 0 0 0 0 0 0 0 0 0 0 0 0 0 0 0 0 0 0 0 0 0 0 1 5 11 12 19 22 26 31 55 89 93 61 31 78 107 74 59 61 56 60 111 82 39 32 39 71 95 128 132 119 83 99 111 77 57 41 33 32 60 129 92 62 68 61 101 136 69 73 95 100 52 29 24 16 13 9 4 1 0 0 0 0 0 0 0 0 0 0 0 0 0 0 0 0 0 0 0 0 0 0 0 0 0 0 0 0 0 0 0 0 0 0 0 0 0 0 0 0 0 0 0 0 0 
0 0 0 0 0 0 0 0 0 0 0 0 0 0 0 0 0 0 0 0 0 0 0 0 0 0 6 9 9 16 20 23 25 20 26 43 27 41 95 136 76 53 52 54 73 109 69 33 28 40 56 79 88 87 65 56 79 80 71 58 35 28 43 64 94 95 63 58 47 102 164 91 37 59 58 27 24 19 13 13 10 3 1 0 0 0 0 0 0 0 0 0 0 0 0 0 0 0 0 0 0 0 0 0 0 0 0 0 0 0 0 0 0 0 0 0 0 0 0 0 0 0 0 0 0 0 0 0 
0 0 0 0 0 0 0 0 0 0 0 0 0 0 0 0 0 0 0 0 0 0 0 0 0 0 0 10 8 6 16 16 22 23 13 12 11 38 88 157 97 41 35 43 70 81 51 35 32 45 46 74 89 87 70 68 84 101 85 70 46 51 72 55 58 90 87 60 43 95 169 96 28 28 34 22 19 17 11 10 8 4 2 0 0 0 0 0 0 0 0 0 0 0 0 0 0 0 0 0 0 0 0 0 0 0 0 0 0 0 0 0 0 0 0 0 0 0 0 0 0 0 0 0 0 0 0 0 
0 0 0 0 0 0 0 0 0 0 0 0 0 0 0 0 0 0 0 0 0 0 0 0 0 0 0 1 14 4 13 17 20 25 16 10 11 28 68 155 126 47 40 70 94 70 49 43 31 31 38 65 87 81 62 64 102 110 106 81 59 75 62 49 51 83 105 78 54 120 173 78 29 30 30 21 18 16 9 12 8 5 2 0 0 0 0 0 0 0 0 0 0 0 0 0 0 0 0 0 0 0 0 0 0 0 0 0 0 0 0 0 0 0 0 0 0 0 0 0 0 0 0 0 0 0 0 0 
0 0 0 0 0 0 0 0 0 0 0 0 0 0 0 0 0 0 0 0 0 0 0 0 0 0 0 0 5 8 10 15 21 21 13 9 15 21 35 114 157 104 82 113 98 59 45 43 31 27 42 66 89 79 66 96 113 103 110 107 68 75 53 53 54 74 106 132 108 154 162 52 27 30 24 21 20 17 10 11 8 6 2 0 0 0 0 0 0 0 0 0 0 0 0 0 0 0 0 0 0 0 0 0 0 0 0 0 0 0 0 0 0 0 0 0 0 0 0 0 0 0 0 0 0 0 0 0 
0 0 0 0 0 0 0 0 0 0 0 0 0 0 0 0 0 0 0 0 0 0 0 0 0 0 0 0 3 5 11 11 21 23 21 15 17 23 22 53 150 168 153 160 95 53 42 33 28 30 59 83 96 90 102 129 121 112 117 123 77 77 86 67 54 62 103 159 168 179 96 28 29 32 22 17 20 14 11 8 8 6 2 0 0 0 0 0 0 0 0 0 0 0 0 0 0 0 0 0 0 0 0 0 0 0 0 0 0 0 0 0 0 0 0 0 0 0 0 0 0 0 0 0 0 0 0 0 
0 0 0 0 0 0 0 0 0 0 0 0 0 0 0 0 0 0 0 0 0 0 0 0 0 0 0 0 0 3 12 11 16 24 22 17 14 21 24 25 59 142 182 172 85 43 38 30 28 45 90 103 99 94 106 106 109 111 124 120 97 63 65 74 58 46 91 173 175 98 26 24 32 29 25 21 16 13 10 7 8 6 2 0 0 0 0 0 0 0 0 0 0 0 0 0 0 0 0 0 0 0 0 0 0 0 0 0 0 0 0 0 0 0 0 0 0 0 0 0 0 0 0 0 0 0 0 0 
0 0 0 0 0 0 0 0 0 0 0 0 0 0 0 0 0 0 0 0 0 0 0 0 0 0 0 0 0 5 6 14 13 22 21 14 17 21 23 26 30 29 51 65 44 31 32 33 29 49 99 107 91 83 82 79 108 111 125 102 108 80 47 59 63 53 59 64 47 31 21 26 34 27 23 21 16 12 9 8 8 5 1 0 0 0 0 0 0 0 0 0 0 0 0 0 0 0 0 0 0 0 0 0 0 0 0 0 0 0 0 0 0 0 0 0 0 0 0 0 0 0 0 0 0 0 0 0 
0 0 0 0 0 0 0 0 0 0 0 0 0 0 0 0 0 0 0 0 0 0 0 0 0 0 0 0 0 3 7 10 13 18 16 12 16 25 25 27 28 26 27 27 28 33 31 30 28 43 95 108 99 97 103 115 134 141 148 122 115 81 36 45 66 65 54 47 41 28 22 25 34 25 24 20 17 13 10 8 8 5 2 0 0 0 0 0 0 0 0 0 0 0 0 0 0 0 0 0 0 0 0 0 0 0 0 0 0 0 0 0 0 0 0 0 0 0 0 0 0 0 0 0 0 0 0 0 
