P2
128 99
234
0 0 0 0 0 0 0 0 0 0 0 0 0 0 0 0 0 0 0 0 0 0 0 0 0 0 0 0 0 0 0 0 0 0 0 0 0 0 0 0 0 0 0 0 0 0 0 0 0 0 0 0 0 0 0 0 0 0 0 0 0 0 0 0 0 0 0 0 0 0 0 0 0 0 0 0 0 1 1 0 0 0 0 0 0 0 0 0 0 0 0 0 0 0 0 0 0 0 0 0 0 0 0 0 0 0 0 0 0 0 0 0 0 0 0 0 0 0 0 0 0 0 0 0 0 0 0 0 
0 0 0 0 0 0 0 0 0 0 0 0 0 0 0 0 0 0 0 0 0 0 0 0 0 0 0 0 0 0 0 0 0 0 0 0 0 0 0 0 0 0 0 0 0 0 0 0 0 0 0 0 0 0 0 0 0 0 0 0 0 0 0 0 0 1 0 0 0 0 0 0 0 0 0 0 0 1 1 0 0 0 0 0 0 0 0 0 0 0 0 0 0 0 0 0 0 0 0 0 0 0 0 0 0 0 0 0 0 0 0 0 0 0 0 0 0 0 0 0 0 0 0 0 0 0 0 0 
0 0 0 0 0 0 0 0 0 0 0 0 0 0 0 0 0 0 0 0 0 0 0 0 0 0 0 0 0 0 0 0 0 0 0 0 0 0 0 0 0 0 0 0 0 0 0 0 0 0 2 4 4 3 0 0 0 0 0 0 0 0 0 1 0 1 0 0 0 0 0 0 0 0 0 0 0 1 1 1 0 0 0 0 0 0 0 0 0 0 0 0 0 0 0 0 0 0 0 0 0 0 0 0 0 0 0 0 0 0 0 0 0 0 0 0 0 0 0 0 0 0 0 0 0 0 0 0 
0 0 0 0 0 0 0 0 0 0 0 0 0 0 0 0 0 0 0 0 0 0 0 0 0 0 0 0 0 0 0 0 0 0 0 0 0 0 0 0 0 0 0 2 9 12 17 18 17 17 20 22 24 24 23 20 17 17 16 11 3 0 1 1 1 0 0 0 0 0 0 0 0 0 0 0 0 1 1 1 0 0 0 0 0 0 0 0 0 0 0 0 0 0 0 0 0 0 0 0 0 0 0 0 0 0 0 0 0 0 0 0 0 0 0 0 0 0 0 0 0 0 0 0 0 0 0 0 
0 0 0 0 0 0 0 0 0 0 0 0 0 0 0 0 0 0 0 0 0 0 0 0 0 0 0 0 0 0 0 0 0 0 0 0 0 0 0 0 4 14 19 22 24 35 51 71 91 111 126 134 138 138 135 127 114 98 74 49 31 23 17 11 2 1 0 0 0 0 0 0 0 0 0 0 0 0 0 0 0 0 0 0 0 0 0 0 0 0 0 0 0 0 0 0 0 0 0 0 0 0 0 0 0 0 0 0 0 0 0 0 0 0 0 0 0 0 0 0 0 0 0 0 0 0 0 0 
0 0 0 0 0 0 0 0 0 0 0 0 0 0 0 0 0 0 0 0 0 0 0 0 0 0 0 0 0 0 0 0 0 0 0 0 0 0 9 17 25 26 36 63 100 136 157 165 164 166 170 172 171 169 169 168 166 164 157 148 134 109 73 42 25 15 11 1 0 0 0 0 0 0 0 0 0 0 1 0 0 0 0 0 0 0 0 0 0 0 0 0 0 0 0 0 0 0 0 0 0 0 0 0 0 0 0 0 0 0 0 0 0 0 0 0 0 0 0 0 0 0 0 0 0 0 0 0 
0 0 0 0 0 0 0 0 0 0 0 0 0 0 0 0 0 0 0 0 0 0 0 0 0 0 0 0 0 0 0 0 0 0 0 0 7 21 28 25 48 91 140 166 169 171 174 171 178 190 198 199 200 199 199 201 202 198 189 176 169 163 152 139 118 74 37 19 13 1 0 0 0 0 0 0 0 0 0 0 0 0 0 0 0 0 0 0 0 0 0 0 0 0 0 0 0 0 0 0 0 0 0 0 0 0 0 0 0 0 0 0 0 0 0 0 0 0 0 0 0 0 0 0 0 0 0 0 
0 0 0 0 0 0 0 0 0 0 0 0 0 0 0 0 0 0 0 0 0 0 0 0 0 0 0 0 0 0 0 0 0 0 7 26 26 25 55 112 158 171 170 174 176 186 192 188 178 168 163 164 163 155 152 163 177 183 186 194 198 194 182 171 164 150 135 98 49 22 13 0 0 0 0 0 0 0 0 0 0 0 0 0 0 0 0 0 0 0 0 0 0 0 0 0 0 0 0 0 0 0 0 0 0 0 0 0 0 0 0 0 0 0 0 0 0 0 0 0 0 0 0 0 0 0 0 0 
0 0 0 0 0 0 0 0 0 0 0 0 0 0 0 0 0 0 0 0 0 0 0 0 0 0 0 0 0 0 0 0 4 28 27 22 53 115 162 169 164 171 183 196 197 177 156 144 140 138 146 156 155 149 149 147 148 160 178 179 176 177 185 196 192 179 169 158 139 100 48 24 10 0 0 0 0 0 0 0 0 0 0 0 0 0 0 0 0 0 0 0 0 0 0 0 0 0 0 0 0 0 0 0 0 0 0 0 0 0 0 0 0 0 0 0 0 0 0 0 0 0 0 0 0 0 0 0 
0 0 0 0 0 0 0 0 0 0 0 0 0 0 0 0 0 0 0 0 0 0 0 0 0 0 0 0 0 0 0 22 27 21 41 103 158 167 162 167 182 197 189 158 131 129 131 131 130 127 120 122 122 122 134 143 145 143 157 172 183 184 180 177 181 193 195 182 170 157 131 77 30 20 1 0 0 0 0 0 0 0 0 0 0 0 0 0 0 0 0 0 0 0 0 0 0 0 0 0 0 0 0 0 0 0 0 0 0 0 0 0 0 0 0 0 0 0 0 0 0 0 0 0 0 0 0 0 
0 0 0 0 0 0 0 0 0 0 0 0 0 0 0 0 0 0 0 0 0 0 0 0 0 0 0 0 0 12 27 24 25 76 148 167 161 167 181 196 187 163 144 147 154 159 152 140 134 120 130 136 137 133 126 132 138 138 141 146 160 174 188 190 183 177 179 186 194 183 169 152 112 46 21 5 0 0 0 0 0 0 0 0 0 0 0 0 0 0 0 0 0 0 0 0 0 0 0 0 0 0 0 0 0 0 0 0 0 0 0 0 0 0 0 0 0 0 0 0 0 0 0 0 0 0 0 0 
0 0 0 0 0 0 0 0 0 0 0 0 0 0 0 0 0 0 0 0 0 0 0 0 0 0 0 0 21 26 19 45 120 165 163 169 181 195 186 169 159 164 158 149 146 143 135 136 126 117 118 124 121 121 126 131 142 145 142 140 145 159 171 180 190 195 185 176 174 188 195 175 161 135 67 22 11 0 0 0 0 0 0 0 0 0 0 0 0 0 0 0 0 0 0 0 0 0 0 0 0 0 0 0 0 0 0 0 0 0 0 0 0 0 0 0 0 0 0 0 0 0 0 0 0 0 0 0 
0 0 0 0 0 0 0 0 0 0 0 0 0 0 0 0 0 0 0 0 0 0 0 0 0 0 4 25 20 17 70 144 167 166 175 192 190 179 174 170 162 147 143 145 138 140 153 159 158 161 151 146 145 152 165 167 168 179 181 172 156 147 154 164 177 187 191 192 185 176 181 194 184 164 143 81 24 12 0 0 0 0 0 0 0 0 0 0 0 0 0 0 0 0 0 0 0 0 0 0 0 0 0 0 0 0 0 0 0 0 0 0 0 0 0 0 0 0 0 0 0 0 0 0 0 0 0 0 
0 0 0 0 0 0 0 0 0 0 0 0 0 0 0 0 0 0 0 0 0 0 0 0 0 10 24 17 23 95 155 166 169 185 194 180 177 178 168 148 142 144 138 134 147 164 174 176 164 156 143 140 138 138 139 146 149 155 168 177 179 178 172 166 163 164 175 188 194 193 181 176 189 185 167 148 90 28 12 1 0 0 0 0 0 0 0 0 0 0 0 0 0 0 0 0 0 0 0 0 0 0 0 0 0 0 0 0 0 0 0 0 0 0 0 0 0 0 0 0 0 0 0 0 0 0 0 0 
0 0 0 0 0 0 0 0 0 0 0 0 0 0 0 0 0 0 0 0 0 0 0 0 15 22 17 33 111 160 164 169 189 194 180 176 168 151 135 141 158 162 167 166 157 155 144 129 125 120 119 129 123 113 111 114 127 135 139 149 160 164 164 167 175 176 166 164 172 185 192 185 175 184 186 169 152 98 31 13 0 0 0 0 0 0 0 0 0 0 0 0 0 0 0 0 0 0 0 0 0 0 0 0 0 0 0 0 0 0 0 0 0 0 0 0 0 0 0 0 0 0 0 0 0 0 0 0 
0 0 0 0 0 0 0 0 0 0 0 0 0 0 0 0 0 0 0 0 0 0 2 20 20 16 46 121 157 166 170 192 192 176 168 152 137 138 160 181 179 166 147 132 125 113 106 107 107 106 106 102 102 104 103 103 106 110 116 122 129 139 149 156 157 162 171 169 158 157 172 187 186 173 179 187 169 156 110 34 11 0 0 0 0 0 0 0 0 0 0 0 0 0 0 0 0 0 0 0 0 0 0 0 0 0 0 0 0 0 0 0 0 0 0 0 0 0 0 0 0 0 0 0 0 0 0 0 
0 0 0 0 0 0 0 0 0 0 0 0 0 0 0 0 0 0 0 0 0 3 19 15 16 59 127 157 169 175 199 191 169 158 146 136 145 176 188 169 141 119 113 109 101 103 107 110 113 112 109 84 85 105 104 103 107 108 108 104 103 108 116 138 151 146 147 157 169 157 149 159 178 183 171 181 194 169 155 113 35 9 0 0 0 0 0 0 0 0 0 0 0 0 0 0 0 0 0 0 0 0 0 0 0 0 0 0 0 0 0 0 0 0 0 0 0 0 0 0 0 0 0 0 0 0 0 0 
0 0 0 0 0 0 0 0 0 0 0 0 0 0 0 0 0 0 0 0 6 18 13 17 70 133 155 168 177 202 186 153 148 143 138 154 184 178 140 116 109 107 104 103 105 108 111 111 113 121 109 94 95 118 120 117 122 123 116 115 111 107 103 105 127 141 144 142 144 158 154 141 158 178 178 169 185 194 165 157 122 36 8 0 0 0 0 0 0 0 0 0 0 0 0 0 0 0 0 0 0 0 0 0 0 0 0 0 0 0 0 0 0 0 0 0 0 0 0 0 0 0 0 0 0 0 0 0 
0 0 0 0 0 0 0 0 0 0 0 0 0 0 0 0 0 0 0 5 17 12 18 75 137 159 165 174 203 182 144 142 139 134 153 180 161 127 103 100 98 100 103 109 119 123 123 124 124 117 110 103 103 113 121 124 125 124 119 115 116 118 118 110 98 106 127 137 142 144 154 150 131 150 175 177 167 187 191 160 159 114 29 4 0 0 0 0 0 0 0 0 0 0 0 0 0 0 0 0 0 0 0 0 0 0 0 0 0 0 0 0 0 0 0 0 0 0 0 0 0 0 0 0 0 0 0 0 
0 0 0 0 0 0 0 0 0 0 0 0 0 0 0 0 0 0 3 17 12 17 81 136 154 164 173 202 177 139 144 136 132 153 176 158 120 98 96 95 98 108 119 126 117 108 111 106 89 84 81 90 90 88 93 103 108 109 106 104 102 102 104 107 111 104 102 124 138 142 141 156 139 121 143 172 172 169 191 180 159 156 100 22 2 0 0 0 0 0 0 0 0 0 0 0 0 0 0 0 0 0 0 0 0 0 0 0 0 0 0 0 0 0 0 0 0 0 0 0 0 0 0 0 0 0 0 0 
0 0 0 0 0 0 0 0 0 0 0 0 0 0 0 0 0 1 16 13 18 80 135 150 160 167 198 178 133 142 137 134 146 167 156 114 96 99 97 107 117 119 109 92 87 86 83 79 78 74 75 79 80 82 83 91 95 99 106 111 112 109 104 100 102 106 104 101 120 131 142 143 152 127 120 142 169 167 175 190 171 157 146 77 11 0 0 0 0 0 0 0 0 0 0 0 0 0 0 0 0 0 0 0 0 0 0 0 0 0 0 0 0 0 0 0 0 0 0 0 0 0 0 0 0 0 0 0 
0 0 0 0 0 0 0 0 0 0 0 0 0 0 0 0 0 11 12 16 72 133 142 159 165 193 183 131 141 138 134 137 162 159 115 94 99 96 107 120 111 94 87 86 85 85 85 81 81 81 83 90 95 100 102 106 108 108 112 117 119 121 118 111 103 104 105 103 101 112 131 150 153 145 122 119 145 166 163 187 186 167 158 130 51 4 0 0 0 0 0 0 0 0 0 0 0 0 0 0 0 0 0 0 0 0 0 0 0 0 0 0 0 0 0 0 0 0 0 0 0 0 0 0 0 0 0 0 
0 0 0 0 0 0 0 0 0 0 0 0 0 0 0 0 5 14 12 54 131 137 152 161 186 184 135 137 140 132 125 150 154 117 98 96 98 113 122 115 107 104 105 102 101 100 100 96 91 96 100 109 114 116 118 115 115 115 113 116 119 121 123 118 115 108 105 106 100 101 108 133 155 158 133 114 119 146 157 164 190 174 163 150 107 24 1 0 0 0 0 0 0 0 0 0 0 0 0 0 0 0 0 0 0 0 0 0 0 0 0 0 0 0 0 0 0 0 0 0 0 0 0 0 0 0 0 0 
0 0 0 0 0 0 0 0 0 0 0 0 0 0 0 1 11 14 41 116 132 148 162 180 181 145 127 137 134 121 146 152 118 98 103 111 115 123 124 118 113 107 107 111 111 110 111 109 109 110 115 113 111 117 116 116 113 111 109 108 112 113 115 120 122 121 112 102 94 95 94 103 134 153 156 128 119 127 152 149 180 178 169 159 135 74 7 0 0 0 0 0 0 0 0 0 0 0 0 0 0 0 0 0 0 0 0 0 0 0 0 0 0 0 0 0 0 0 0 0 0 0 0 0 0 0 0 0 
0 0 0 0 0 0 0 0 0 0 0 0 0 0 0 6 11 23 92 125 141 156 172 177 157 124 132 138 124 138 155 122 100 100 107 112 123 128 122 119 111 103 104 108 105 102 104 105 110 114 116 107 101 112 109 109 102 100 102 103 104 103 109 116 119 121 119 110 98 87 92 92 107 135 160 156 129 116 135 146 160 180 170 163 147 113 26 1 0 0 0 0 0 0 0 0 0 0 0 0 0 0 0 0 0 0 0 0 0 0 0 0 0 0 0 0 0 0 0 0 0 0 0 0 0 0 0 0 
0 0 0 0 0 0 0 0 0 0 0 0 0 0 2 8 14 66 124 135 147 165 174 167 137 119 135 127 130 163 130 102 99 113 118 124 125 119 115 110 105 99 97 94 95 96 98 94 94 102 115 105 97 106 100 99 101 100 98 96 95 93 93 101 111 122 123 122 111 93 83 90 89 114 149 172 149 114 120 135 146 175 167 164 153 133 57 3 0 0 0 0 0 0 0 0 0 0 0 0 0 0 0 0 0 0 0 0 0 0 0 0 0 0 0 0 0 0 0 0 0 0 0 0 0 0 0 0 
0 0 0 0 0 0 0 0 0 0 0 0 0 0 5 10 33 109 129 143 153 167 166 154 121 122 135 123 155 149 109 99 111 121 123 121 116 110 109 103 99 92 88 90 98 99 94 88 89 94 109 107 98 99 100 103 102 100 100 98 95 93 90 91 102 113 121 124 123 110 87 79 91 93 117 162 174 132 115 122 135 176 162 161 162 142 97 12 0 0 0 0 0 0 0 0 0 0 0 0 0 0 0 0 0 0 0 0 0 0 0 0 0 0 0 0 0 0 0 0 0 0 0 0 0 0 0 0 
0 0 0 0 0 0 0 0 0 0 0 0 0 0 6 13 71 121 133 140 166 160 145 143 109 131 129 136 153 116 100 110 120 122 121 114 107 107 107 98 93 89 94 96 97 98 96 99 104 107 117 120 118 123 125 122 116 112 106 99 97 95 96 92 94 104 113 119 125 125 107 83 85 94 95 130 176 154 118 119 116 171 158 160 166 145 124 33 1 0 0 0 0 0 0 0 0 0 0 0 0 0 0 0 0 0 0 0 0 0 0 0 0 0 0 0 0 0 0 0 0 0 0 0 0 0 0 0 
0 0 0 0 0 0 0 0 0 0 0 0 0 3 7 32 103 126 136 149 169 149 143 134 116 136 125 138 136 101 106 120 119 117 112 103 103 107 107 97 93 94 94 98 100 110 119 127 134 139 142 143 147 139 131 130 133 136 128 120 111 105 99 96 92 94 105 113 123 127 120 99 86 95 90 105 159 159 121 120 110 160 163 161 163 151 132 58 2 0 0 0 0 0 0 0 0 0 0 0 0 0 0 0 0 0 0 0 0 0 0 0 0 0 0 0 0 0 0 0 0 0 0 0 0 0 0 0 
0 0 0 0 0 0 0 0 0 0 0 0 0 4 10 65 118 128 136 161 154 134 142 122 127 132 116 130 121 99 119 126 122 115 100 101 109 108 103 98 98 98 99 110 125 139 147 148 147 140 129 120 144 120 104 105 114 130 142 150 146 133 117 106 96 91 99 106 114 122 124 114 97 93 95 95 136 152 120 123 109 139 163 159 162 155 135 80 6 0 0 0 0 0 0 0 0 0 0 0 0 0 0 0 0 0 0 0 0 0 0 0 0 0 0 0 0 0 0 0 0 0 0 0 0 0 0 0 
0 0 0 0 0 0 0 0 0 0 0 0 0 5 18 87 122 130 140 163 136 131 143 121 132 121 101 127 109 107 125 126 119 107 98 105 113 108 103 103 107 112 125 144 155 153 137 128 121 110 98 96 117 95 85 82 84 91 107 122 141 154 151 133 111 95 94 104 108 113 121 121 108 97 98 93 114 144 125 118 110 129 162 158 159 152 131 95 8 0 0 0 0 0 0 0 0 0 0 0 0 0 0 0 0 0 0 0 0 0 0 0 0 0 0 0 0 0 0 0 0 0 0 0 0 0 0 0 
0 0 0 0 0 0 0 0 0 0 0 0 1 5 33 102 123 131 144 151 121 127 141 129 129 106 93 123 110 123 129 125 111 98 96 110 107 101 101 106 122 139 150 154 146 120 104 99 100 92 86 84 94 80 71 65 67 76 84 94 105 131 154 158 142 115 101 107 104 104 113 121 117 106 104 98 114 139 124 109 107 127 161 156 159 160 135 105 13 0 0 0 0 0 0 0 0 0 0 0 0 0 0 0 0 0 0 0 0 0 0 0 0 0 0 0 0 0 0 0 0 0 0 0 0 0 0 0 
0 0 0 0 0 0 0 0 0 0 0 0 2 6 47 114 129 135 139 138 115 120 144 130 118 90 101 124 122 126 126 115 101 92 98 112 104 99 103 119 141 150 140 120 105 97 91 85 81 77 73 74 70 67 60 56 57 63 71 84 93 103 130 154 161 151 132 111 96 99 104 115 118 110 112 106 112 126 119 112 101 120 153 154 157 167 142 116 22 0 0 0 0 0 0 0 0 0 0 0 0 0 0 0 0 0 0 0 0 0 0 0 0 0 0 0 0 0 0 0 0 0 0 0 0 0 0 0 
0 0 0 0 0 0 0 0 0 0 0 0 2 5 58 121 131 142 144 131 108 118 147 130 102 84 97 126 130 117 118 107 94 91 104 113 107 103 115 135 143 133 109 92 83 84 82 74 72 63 64 66 63 60 57 54 56 58 63 72 88 96 111 132 163 167 139 112 91 94 101 109 116 110 112 114 115 113 114 118 103 122 148 155 155 170 149 127 35 1 0 0 0 0 0 0 0 0 0 0 0 0 0 0 0 0 0 0 0 0 0 0 0 0 0 0 0 0 0 0 0 0 0 0 0 0 0 0 
0 0 0 0 0 0 0 0 0 0 0 0 3 9 65 124 133 148 153 134 109 121 150 125 92 83 94 132 127 108 112 99 91 95 104 113 116 120 132 137 136 115 98 83 72 74 71 70 65 59 60 62 60 59 57 57 59 57 58 64 80 93 104 115 134 151 137 129 112 102 100 107 110 105 107 122 119 101 107 121 104 126 150 161 156 163 157 133 49 1 0 0 0 0 0 0 0 0 0 0 0 0 0 0 0 0 0 0 0 0 0 0 0 0 0 0 0 0 0 0 0 0 0 0 0 0 0 0 
0 0 0 0 0 0 0 0 0 0 0 0 3 13 72 128 136 148 155 129 114 128 153 114 89 83 95 137 122 103 109 96 92 97 107 115 135 150 151 145 134 118 116 105 80 72 68 65 60 58 60 61 63 58 57 57 59 58 59 60 73 87 86 89 128 135 140 156 145 124 105 104 108 97 98 116 126 92 100 121 106 129 151 162 162 162 162 139 61 3 0 0 0 0 0 0 0 0 0 0 0 0 0 0 0 0 0 0 0 0 0 0 0 0 0 0 0 0 0 0 0 0 0 0 0 0 0 0 
0 0 0 0 0 0 0 0 0 0 0 0 3 12 78 130 138 146 156 130 118 137 156 107 94 85 96 144 125 96 101 97 94 99 121 143 153 146 126 104 87 83 99 108 103 83 71 62 59 58 59 61 67 60 58 59 61 60 59 62 75 77 93 102 105 106 108 113 120 120 113 99 104 112 106 116 133 94 100 123 112 131 145 157 162 163 168 140 70 5 0 0 0 0 0 0 0 0 0 0 0 0 0 0 0 0 0 0 0 0 0 0 0 0 0 0 0 0 0 0 0 0 0 0 0 0 0 0 
0 0 0 0 0 0 0 0 0 0 0 0 5 11 83 129 138 152 156 130 123 146 153 111 93 87 99 140 128 99 100 92 100 120 141 145 122 89 66 56 54 54 59 68 78 99 88 64 59 58 62 61 68 65 60 62 62 59 62 69 82 96 79 78 91 100 103 101 96 93 94 95 100 113 130 117 127 109 101 126 112 133 135 153 157 163 172 142 78 8 0 0 0 0 0 0 0 0 0 0 0 0 0 0 0 0 0 0 0 0 0 0 0 0 0 0 0 0 0 0 0 0 0 0 0 0 0 0 
0 0 0 0 0 0 0 0 0 0 0 0 7 10 87 132 143 154 158 131 122 149 145 119 96 91 105 132 135 110 102 90 112 126 119 104 90 74 63 64 58 53 55 56 66 81 100 89 67 72 76 72 73 72 68 72 64 64 67 79 99 69 77 91 106 120 121 119 121 122 115 108 114 121 122 123 123 118 122 131 124 132 128 146 146 160 176 147 89 9 0 0 0 0 0 0 0 0 0 0 0 0 0 0 0 0 0 0 0 0 0 0 0 0 0 0 0 0 0 0 0 0 0 0 0 0 0 0 
0 0 0 0 0 0 0 0 0 0 0 0 7 10 90 134 143 153 157 127 120 149 130 121 104 109 115 124 130 118 106 107 100 99 102 103 92 82 90 97 87 71 61 62 64 75 82 97 78 80 76 84 84 79 82 78 70 66 57 92 73 77 89 94 102 117 122 129 129 127 120 117 121 126 125 121 115 113 135 137 129 124 124 138 134 149 174 148 104 16 0 0 0 0 0 0 0 0 0 0 0 0 0 0 0 0 0 0 0 0 0 0 0 0 0 0 0 0 0 0 0 0 0 0 0 0 0 0 
0 0 0 0 0 0 0 0 0 0 0 0 9 12 90 133 143 156 158 119 118 150 119 117 103 111 128 125 129 134 114 103 90 99 111 118 110 103 94 86 83 84 83 82 75 76 87 99 102 84 84 87 99 97 93 67 62 60 67 85 72 78 69 70 84 99 106 107 108 111 115 117 134 142 123 102 109 108 129 140 131 120 120 131 125 138 170 147 112 25 0 0 0 0 0 0 0 0 0 0 0 0 0 0 0 0 0 0 0 0 0 0 0 0 0 0 0 0 0 0 0 0 0 0 0 0 0 0 
0 0 0 0 0 0 0 0 0 0 0 0 8 14 97 134 144 161 148 112 120 145 117 117 107 108 124 125 127 138 135 112 108 119 131 124 100 82 72 64 60 58 65 82 92 86 90 100 109 85 81 90 113 124 116 79 68 63 86 91 77 61 59 71 85 102 111 109 109 115 120 128 140 140 119 93 98 114 127 145 138 122 117 122 113 137 170 151 117 35 1 0 0 0 0 0 0 0 0 0 0 0 0 0 0 0 0 0 0 0 0 0 0 0 0 0 0 0 0 0 0 0 0 0 0 0 0 0 
0 0 0 0 0 0 0 0 0 0 0 0 9 17 98 133 144 161 147 116 122 138 115 113 113 98 113 124 129 133 131 115 128 134 123 110 87 65 57 56 58 59 65 78 93 100 88 94 108 86 83 94 115 110 116 101 88 82 98 90 67 54 62 76 94 111 117 112 108 104 103 121 137 123 116 94 97 114 119 144 137 118 110 121 99 125 165 158 118 42 1 0 0 0 0 0 0 0 0 0 0 0 0 0 0 0 0 0 0 0 0 0 0 0 0 0 0 0 0 0 0 0 0 0 0 0 0 0 
0 0 0 0 0 0 0 0 0 0 0 0 9 17 98 136 146 163 147 121 116 132 110 104 112 102 111 128 128 123 123 101 109 128 124 110 79 59 55 53 58 60 72 84 87 100 98 89 103 89 83 90 101 101 101 106 103 98 108 82 55 62 73 80 90 103 105 103 102 100 96 114 139 127 117 92 101 117 116 141 129 117 104 113 94 114 150 159 120 48 3 0 0 0 0 0 0 0 0 0 0 0 0 0 0 0 0 0 0 0 0 0 0 0 0 0 0 0 0 0 0 0 0 0 0 0 0 0 
0 0 0 0 0 0 0 0 0 0 0 0 9 16 99 137 148 158 140 119 105 128 97 101 104 99 105 139 134 124 115 104 107 120 124 102 71 57 57 58 59 62 76 85 84 81 95 107 109 99 85 92 88 95 104 108 104 115 114 68 61 69 76 72 76 93 105 102 102 100 95 110 129 127 110 89 101 115 117 138 126 119 105 103 86 110 132 158 123 53 3 0 0 0 0 0 0 0 0 0 0 0 0 0 0 0 0 0 0 0 0 0 0 0 0 0 0 0 0 0 0 0 0 0 0 0 0 0 
0 0 0 0 0 0 0 0 0 0 0 0 8 16 96 137 150 158 128 98 100 120 91 98 91 77 94 133 133 125 111 104 105 106 107 96 72 58 56 59 69 80 90 93 86 80 81 80 83 77 96 104 111 110 116 114 111 91 97 78 71 63 66 66 74 98 107 109 106 102 99 111 122 121 101 89 108 110 116 140 128 115 103 97 84 109 119 157 124 59 2 0 0 0 0 0 0 0 0 0 0 0 0 0 0 0 0 0 0 0 0 0 0 0 0 0 0 0 0 0 0 0 0 0 0 0 0 0 
0 0 0 0 0 0 0 0 0 0 0 0 9 17 95 138 152 151 114 94 95 108 96 107 83 72 90 127 127 123 116 108 104 104 106 101 78 62 62 63 70 75 87 93 92 88 86 80 86 73 91 102 93 82 93 88 104 104 79 76 67 60 61 68 87 98 110 111 105 104 103 107 111 110 90 91 114 117 138 154 130 118 105 92 87 113 120 155 120 61 3 0 0 0 0 0 0 0 0 0 0 0 0 0 0 0 0 0 0 0 0 0 0 0 0 0 0 0 0 0 0 0 0 0 0 0 0 0 
0 0 0 0 0 0 0 0 0 0 0 0 6 16 89 136 152 140 112 99 97 105 103 111 82 70 87 119 124 122 118 109 99 104 107 106 83 72 63 62 74 79 84 83 82 81 85 77 77 75 87 97 73 73 80 79 83 117 86 88 73 60 62 75 88 99 110 110 109 107 105 112 107 97 84 94 120 126 144 151 124 118 108 82 89 111 121 151 117 60 3 0 0 0 0 0 0 0 0 0 0 0 0 0 0 0 0 0 0 0 0 0 0 0 0 0 0 0 0 0 0 0 0 0 0 0 0 0 
0 0 0 0 0 0 0 0 0 0 0 0 5 14 81 134 149 132 103 103 93 98 109 110 79 69 81 110 117 121 118 112 94 103 108 109 90 72 59 58 71 86 88 81 82 85 81 70 73 83 93 91 79 75 92 82 81 105 104 87 76 59 59 77 90 100 108 112 112 110 113 117 107 84 83 99 119 117 136 148 120 117 109 75 95 107 123 148 119 57 2 0 0 0 0 0 0 0 0 0 0 0 0 0 0 0 0 0 0 0 0 0 0 0 0 0 0 0 0 0 0 0 0 0 0 0 0 0 
0 0 0 0 0 0 0 0 0 0 0 0 3 13 75 131 145 133 97 108 92 91 113 111 80 67 80 106 115 121 119 114 93 98 108 110 98 74 60 64 74 87 92 84 87 88 79 71 86 98 100 88 76 81 100 88 81 89 105 84 67 55 57 67 86 99 109 113 108 112 120 122 106 79 82 96 108 101 127 148 128 121 105 71 103 105 135 145 118 50 2 0 0 0 0 0 0 0 0 0 0 0 0 0 0 0 0 0 0 0 0 0 0 0 0 0 0 0 0 0 0 0 0 0 0 0 0 0 
0 0 0 0 0 0 0 0 0 0 0 0 2 12 70 129 138 141 95 109 97 87 109 113 84 64 76 104 114 129 127 123 101 100 106 105 98 77 65 72 84 95 89 87 86 82 76 75 99 95 84 83 72 88 105 101 92 84 99 95 70 61 55 64 86 101 110 108 106 115 124 126 96 73 82 92 101 98 117 142 128 115 94 73 105 101 149 140 115 43 2 0 0 0 0 0 0 0 0 0 0 0 0 0 0 0 0 0 0 0 0 0 0 0 0 0 0 0 0 0 0 0 0 0 0 0 0 0 
0 0 0 0 0 0 0 0 0 9 7 0 0 10 62 124 133 140 101 103 101 85 104 118 97 65 74 103 114 133 134 122 108 100 110 104 94 79 64 77 90 97 92 91 100 87 88 91 102 88 83 79 74 89 95 94 99 86 87 97 92 72 62 72 91 105 114 113 112 121 130 121 82 75 82 93 102 111 134 146 134 109 81 78 102 101 157 128 100 33 2 0 0 0 0 0 0 0 0 0 0 0 0 0 0 0 0 0 0 0 0 0 0 0 0 0 0 0 0 0 0 0 0 0 0 0 0 0 
0 0 0 0 0 0 0 0 0 0 4 4 1 8 53 119 139 139 114 95 104 91 96 117 109 73 77 104 110 119 120 118 111 97 101 103 88 81 74 84 102 98 94 88 92 90 95 103 101 76 90 82 77 89 93 87 86 91 97 103 106 73 63 72 88 106 112 116 115 111 113 97 68 64 81 97 107 123 140 143 136 98 76 87 98 108 152 115 94 27 2 0 0 0 0 0 0 0 0 0 0 0 0 0 0 0 0 0 0 0 0 0 0 0 0 0 0 0 0 0 0 0 0 0 0 0 0 0 
0 0 0 0 0 0 0 0 0 0 5 9 3 6 43 113 139 129 121 90 100 97 97 106 109 84 81 103 99 107 121 120 114 105 104 109 96 90 79 88 91 95 89 83 94 106 124 111 95 79 95 86 81 90 93 82 88 88 94 110 110 78 75 98 110 120 118 113 119 110 99 83 56 63 88 103 121 109 128 138 133 91 78 82 98 131 144 107 87 20 1 0 0 0 0 0 0 0 0 0 0 0 0 0 0 0 0 0 0 0 0 0 0 0 0 0 0 0 0 0 0 0 0 0 0 0 0 0 
0 0 0 0 0 0 0 0 0 0 8 15 1 5 37 104 133 127 121 93 103 101 93 95 108 97 86 102 91 112 153 151 136 122 111 116 105 84 90 85 85 90 89 99 97 111 108 115 92 79 92 84 77 108 93 80 75 79 89 111 112 98 93 96 114 128 137 135 128 121 102 83 78 105 136 152 145 118 132 146 134 102 89 77 116 139 128 94 85 14 1 0 0 9 8 0 0 0 0 0 0 0 0 0 0 0 0 0 0 0 0 0 0 0 0 0 0 0 0 0 0 0 0 0 0 0 0 0 
0 0 0 0 0 0 0 0 0 0 3 15 1 5 31 96 129 136 123 106 102 102 95 92 102 102 98 98 89 120 156 138 129 133 118 104 98 78 76 71 80 84 87 90 106 105 107 103 92 77 85 84 81 100 87 72 72 74 80 100 119 100 82 103 128 143 165 181 169 159 131 106 107 118 131 139 141 142 138 145 128 99 123 106 130 133 93 87 80 9 2 2 4 0 0 0 0 0 0 0 0 0 0 0 0 0 0 0 0 0 0 0 0 0 0 0 0 0 0 0 0 0 0 0 0 0 0 0 
0 0 0 0 0 0 0 0 0 0 2 11 7 7 22 90 121 144 124 114 90 96 100 94 95 96 103 100 85 117 147 127 96 105 123 122 112 92 90 82 86 83 76 88 97 95 92 96 97 78 95 96 82 102 89 66 58 66 91 94 111 105 85 109 135 158 173 170 150 166 169 128 129 129 136 114 154 161 156 144 114 98 110 151 155 131 83 95 75 7 3 2 10 1 0 0 0 0 0 0 0 0 0 0 0 0 0 0 0 0 0 0 0 0 0 0 0 0 0 0 0 0 0 0 0 0 0 0 
0 0 0 0 0 0 0 0 0 0 1 8 8 10 16 79 111 144 134 123 87 83 106 126 97 96 110 113 94 102 130 122 105 111 125 129 130 135 134 129 131 120 105 79 58 63 74 77 68 69 94 106 86 111 90 59 64 75 88 75 86 104 115 137 155 173 181 173 155 151 158 122 142 154 142 136 156 146 160 141 119 118 135 177 157 118 85 103 63 4 2 2 3 2 0 0 0 0 0 0 0 0 0 0 0 0 0 0 0 0 0 0 0 0 0 0 0 0 0 0 0 0 0 0 0 0 0 0 
0 0 0 0 0 0 0 0 0 0 0 7 10 10 14 62 97 141 137 137 100 79 118 131 103 110 122 125 106 120 134 136 143 163 171 167 156 146 135 110 114 109 90 64 53 51 63 80 80 68 98 104 99 111 85 57 67 73 86 86 97 96 111 133 148 159 184 185 167 162 134 117 122 149 138 135 154 143 165 154 141 152 172 184 158 118 111 96 42 4 2 1 2 2 0 0 0 0 0 0 0 0 0 0 0 0 0 0 0 0 0 0 0 0 0 0 0 0 0 0 0 0 0 0 0 0 0 0 
0 0 0 0 0 0 0 0 0 0 0 7 9 8 11 42 90 133 138 146 134 116 129 133 117 133 137 117 105 136 132 141 168 172 158 147 149 156 154 132 108 99 94 84 61 53 81 94 78 95 103 103 111 125 104 81 64 71 75 90 100 113 122 138 128 124 160 177 164 161 121 117 115 125 123 134 150 136 154 181 158 163 178 169 140 103 94 81 21 2 4 2 1 2 0 0 0 0 0 0 0 0 0 0 0 0 0 0 0 0 0 0 0 0 0 0 0 0 0 0 0 0 0 0 0 0 0 0 
0 0 0 0 0 0 0 0 0 0 0 5 7 6 11 14 61 110 133 138 162 148 144 153 147 144 165 137 106 140 150 141 139 172 171 138 137 150 160 153 119 94 106 116 101 84 84 102 91 102 111 110 114 133 136 104 67 66 78 102 117 116 128 132 123 117 125 146 141 126 114 119 116 118 112 135 141 153 137 166 187 180 166 168 160 117 96 83 21 2 5 5 2 0 0 0 0 0 0 0 0 0 0 0 0 0 0 0 0 0 0 0 0 0 0 0 0 0 0 0 0 0 0 0 0 0 0 0 
0 0 0 0 0 0 0 0 0 0 0 8 5 4 9 8 39 102 134 140 152 175 148 162 166 177 169 136 102 114 140 142 139 151 164 155 172 168 148 133 117 108 113 126 120 97 94 112 112 108 95 103 106 124 124 103 69 62 79 107 124 128 123 122 126 119 117 120 107 100 108 118 111 112 121 137 143 150 129 142 159 176 152 135 122 122 98 61 9 3 4 6 2 0 0 0 0 0 0 0 0 0 0 0 0 0 0 0 0 0 0 0 0 0 0 0 0 0 0 0 0 0 0 0 0 0 0 0 
0 0 0 0 0 0 0 0 0 0 0 8 4 3 8 9 25 84 128 132 115 156 162 130 124 122 137 119 123 117 120 109 111 154 159 170 176 147 130 134 122 118 130 133 119 118 120 125 109 87 70 72 83 105 104 109 87 82 103 113 113 126 129 122 124 126 121 97 107 129 124 138 153 144 148 135 137 128 118 144 149 149 127 110 100 108 97 36 6 5 3 4 5 0 0 0 0 0 0 0 0 0 0 0 0 0 0 0 0 0 0 0 0 0 0 0 0 0 0 0 0 0 0 0 0 0 0 0 
0 0 0 0 0 0 0 0 0 0 0 8 5 4 6 7 11 59 116 133 119 129 149 138 125 130 150 143 114 113 115 124 118 107 132 147 150 141 133 136 126 118 123 116 111 109 127 122 102 92 85 78 79 84 97 118 112 118 136 119 114 142 137 140 117 94 82 89 120 140 132 135 149 163 168 167 166 125 105 149 131 109 131 127 106 83 76 20 12 12 7 0 6 1 0 0 0 0 0 0 0 0 0 0 0 0 0 0 0 0 0 0 0 0 0 0 0 0 0 0 0 0 0 0 0 0 0 0 
0 0 0 0 0 0 0 0 0 0 0 4 9 7 5 7 10 33 96 136 115 95 110 135 140 119 109 118 108 116 125 128 128 96 94 106 123 129 137 121 119 116 123 108 103 108 131 136 124 122 118 105 89 89 111 125 107 112 129 124 118 128 138 126 105 74 77 83 108 125 114 130 148 145 161 172 175 148 125 131 116 110 115 118 102 94 43 7 11 16 13 0 3 4 0 0 0 0 0 0 0 0 0 0 0 0 0 0 0 0 0 0 0 0 0 0 0 0 0 0 0 0 0 0 0 0 0 0 
0 0 0 0 0 0 0 0 0 0 0 1 7 11 5 10 10 13 77 113 94 90 97 133 144 120 88 97 125 151 148 134 108 126 142 142 157 151 120 79 95 127 120 106 107 123 114 139 132 135 138 137 117 114 139 135 113 108 127 128 114 129 124 101 83 83 78 89 104 119 111 116 128 131 165 166 174 161 175 142 126 109 98 73 72 81 20 10 5 10 14 2 4 5 0 0 0 0 0 0 0 0 0 0 0 0 0 0 0 0 0 0 0 0 0 0 0 0 0 0 0 0 0 0 0 0 0 0 
0 0 0 0 0 0 0 0 0 0 0 0 4 7 5 8 11 8 51 105 103 92 108 137 145 121 108 100 141 162 156 131 105 110 104 94 107 125 118 93 78 118 112 120 137 128 123 147 124 125 145 158 156 155 156 139 138 135 128 124 113 140 127 114 99 85 91 112 116 124 111 94 109 132 161 153 168 171 180 158 115 103 76 60 82 58 11 10 7 7 12 5 6 3 0 0 0 0 0 0 0 0 0 0 0 0 0 0 0 0 0 0 0 0 0 0 0 0 0 0 0 0 0 0 0 0 0 0 
0 0 0 0 0 0 0 0 0 0 0 0 2 3 2 7 12 9 25 93 105 85 98 103 137 134 155 147 152 158 174 160 120 112 95 94 91 82 80 102 115 112 116 109 112 109 115 124 123 136 139 136 145 154 155 139 127 115 112 121 108 130 143 136 125 119 128 151 122 112 109 105 116 120 120 146 171 188 175 152 117 95 38 54 78 33 9 9 7 4 7 4 5 1 0 0 0 0 0 0 0 0 0 0 0 0 0 0 0 0 0 0 0 0 0 0 0 0 0 0 0 0 0 0 0 0 0 0 
0 0 0 0 0 0 0 0 0 0 0 2 0 0 2 8 12 12 13 64 104 92 86 107 133 155 185 178 154 147 164 168 134 109 98 108 110 97 90 95 131 126 118 103 108 131 155 155 137 124 120 112 112 132 151 140 137 132 120 129 126 149 164 172 165 160 150 141 123 103 102 107 110 103 83 116 149 184 168 128 111 82 34 65 59 18 9 7 6 4 2 2 1 0 0 0 0 0 0 0 0 0 0 0 0 0 0 0 0 0 0 0 0 0 0 0 0 0 0 0 0 0 0 0 0 0 0 0 
0 0 0 0 0 0 0 0 0 0 4 10 7 4 4 8 9 11 12 38 78 98 90 103 138 156 166 184 167 156 146 151 134 126 118 100 96 111 124 137 138 149 164 149 153 163 168 165 130 122 116 128 138 166 156 148 167 182 161 160 158 149 156 172 171 137 119 134 137 108 88 80 81 94 109 110 132 167 162 116 88 71 77 63 53 12 8 4 7 2 1 0 0 0 0 0 0 0 0 0 0 0 0 0 0 0 0 0 0 0 0 0 0 0 0 0 0 0 0 0 0 0 0 0 0 0 0 0 
0 0 0 0 0 0 0 0 0 0 2 9 12 15 7 4 6 9 11 28 76 106 107 76 102 136 155 172 169 164 131 136 109 108 121 127 116 109 116 122 124 149 172 164 157 166 169 165 145 130 141 176 166 172 147 130 153 177 161 169 171 149 146 149 167 135 103 105 104 83 75 75 80 105 130 139 137 138 151 101 76 82 85 79 59 10 6 1 3 5 0 0 0 0 0 0 0 0 0 0 0 0 0 0 0 0 0 0 0 0 0 0 0 0 0 0 0 0 0 0 0 0 0 0 0 0 0 0 
0 0 0 0 0 0 0 0 0 0 0 4 13 17 9 6 2 10 17 20 55 100 91 90 71 97 141 160 167 149 113 130 109 80 92 102 111 121 127 123 133 155 168 153 148 159 158 168 171 137 158 190 175 171 152 115 123 150 146 163 171 150 150 187 177 132 93 93 100 84 82 81 95 121 141 139 163 155 142 73 61 62 92 91 39 16 3 1 0 6 4 1 1 2 1 0 0 0 0 0 0 0 0 0 0 0 0 0 0 0 0 0 0 0 0 0 0 0 0 0 0 0 0 0 0 0 0 0 
0 0 0 0 0 0 0 0 0 0 0 7 12 12 5 6 6 15 18 16 28 81 104 94 81 95 125 167 160 153 115 122 127 87 81 85 89 102 91 89 108 153 176 166 149 150 135 157 176 156 159 192 179 161 146 122 112 120 122 142 142 136 160 134 186 142 114 112 98 89 85 85 98 121 144 150 159 143 134 73 34 27 71 72 17 14 10 3 2 7 18 16 8 11 10 0 0 0 0 0 0 0 0 0 0 0 0 0 0 0 0 0 0 0 0 0 0 0 0 0 0 0 0 0 0 0 0 0 
0 0 0 0 0 0 0 0 0 0 0 3 12 10 9 9 9 9 12 16 18 42 94 83 88 105 119 143 153 164 143 126 118 91 73 79 79 75 79 85 113 152 177 176 144 132 125 146 169 161 146 150 134 135 127 111 102 105 110 136 134 153 178 206 194 162 124 134 128 102 103 123 135 143 139 139 108 93 103 58 40 58 91 33 10 8 11 7 9 8 3 5 11 11 5 0 0 0 0 0 0 0 0 0 0 0 0 0 0 0 0 0 0 0 0 0 0 0 0 0 0 0 0 0 0 0 0 0 
0 0 0 0 0 0 0 0 0 0 0 0 10 11 11 8 7 5 10 11 23 27 56 80 69 76 90 138 131 148 151 137 130 130 111 84 68 63 81 119 119 172 199 196 178 145 125 157 192 191 168 155 160 149 140 130 136 139 132 155 149 166 197 201 199 185 155 143 150 150 150 145 126 130 111 84 80 71 103 81 78 86 58 32 9 1 1 5 5 4 1 3 7 4 0 0 0 0 0 0 0 0 0 0 0 0 0 0 0 0 0 0 0 0 0 0 0 0 0 0 0 0 0 0 0 0 0 0 
0 0 0 0 0 0 0 0 0 0 0 0 2 6 3 6 5 1 3 9 14 23 33 55 37 36 65 111 92 134 139 127 129 133 134 120 113 104 117 147 160 189 180 140 181 190 179 180 184 185 162 157 145 129 129 133 143 142 121 137 167 213 223 184 162 194 152 168 153 116 132 108 71 70 78 91 72 63 85 80 67 46 43 38 5 0 0 0 2 2 2 5 7 1 0 0 0 0 0 0 0 0 0 0 0 0 0 0 0 0 0 0 0 0 0 0 0 0 0 0 0 0 0 0 0 0 0 0 
0 0 0 0 0 0 0 0 0 0 0 0 0 2 0 3 4 0 0 7 18 26 25 31 57 57 31 62 83 93 114 108 136 137 132 118 104 105 150 194 192 199 196 195 178 234 199 161 155 140 134 124 132 141 129 113 108 129 107 109 125 175 203 179 141 166 139 117 114 115 114 109 93 69 64 93 83 84 70 54 43 37 41 29 16 0 0 0 0 0 0 6 7 0 0 0 0 0 0 0 0 0 0 0 0 0 0 0 0 0 0 0 0 0 0 0 0 0 0 0 0 0 0 0 0 0 0 0 
0 0 0 0 0 0 0 0 0 0 0 0 0 2 3 2 3 7 5 5 13 15 18 22 37 52 34 60 83 64 73 47 67 75 80 77 61 55 62 74 92 150 166 189 163 170 92 82 127 88 73 84 100 78 76 86 69 63 65 56 68 101 87 111 76 147 99 68 58 60 53 76 62 33 34 85 80 79 50 26 26 26 25 10 1 0 7 3 0 0 0 4 4 0 0 0 0 0 0 0 0 0 0 0 0 0 0 0 0 0 0 0 0 0 0 0 0 0 0 0 0 0 0 0 0 0 0 0 
0 0 0 0 0 0 0 0 0 0 0 0 0 0 4 3 0 2 6 3 7 10 15 15 21 23 23 47 91 69 77 42 50 67 65 50 47 52 44 36 41 66 78 80 88 95 79 52 58 91 79 92 101 101 109 110 90 76 74 63 89 98 93 75 61 62 47 92 98 85 57 73 66 43 34 82 82 85 48 25 27 27 16 8 2 0 0 0 0 2 3 3 1 0 0 0 0 0 0 0 0 0 0 0 0 0 0 0 0 0 0 0 0 0 0 0 0 0 0 0 0 0 0 0 0 0 0 0 
0 0 0 0 0 0 0 0 0 0 0 0 0 0 0 0 0 0 0 0 3 8 12 15 20 29 33 50 97 76 89 58 64 92 92 60 64 73 99 118 125 106 94 93 92 87 97 103 106 109 87 97 98 95 91 91 83 85 95 102 114 108 102 94 107 116 91 78 93 90 77 72 74 80 86 107 106 98 55 36 30 20 10 7 1 0 0 0 0 2 2 1 0 0 0 0 0 0 0 0 0 0 0 0 0 0 0 0 0 0 0 0 0 0 0 0 0 0 0 0 0 0 0 0 0 0 0 0 
0 0 0 0 0 0 0 0 0 0 0 0 0 0 0 0 0 0 0 0 0 5 6 11 14 30 38 52 108 103 117 105 103 128 104 59 58 111 106 119 118 147 133 120 122 135 142 155 143 124 111 130 133 126 114 139 119 128 136 178 166 164 159 138 135 140 173 152 106 148 159 135 114 104 87 86 86 84 45 38 11 3 0 1 0 0 0 0 0 0 0 0 0 0 0 0 0 0 0 0 0 0 0 0 0 0 0 0 0 0 0 0 0 0 0 0 0 0 0 0 0 0 0 0 0 0 0 0 
0 0 0 0 0 0 0 0 0 0 0 0 0 0 0 0 0 0 0 0 0 3 14 11 8 16 34 50 97 105 100 92 107 129 85 59 62 86 114 120 144 153 148 122 148 168 155 164 154 138 146 147 174 190 191 191 182 179 186 194 171 170 178 181 171 136 111 173 181 178 132 115 73 43 21 51 73 77 50 43 20 14 17 5 0 0 0 0 0 0 0 0 0 0 0 0 0 0 0 0 0 0 0 0 0 0 0 0 0 0 0 0 0 0 0 0 0 0 0 0 0 0 0 0 0 0 0 0 
0 0 0 0 0 0 0 0 0 0 0 0 0 0 0 0 0 0 0 0 0 0 2 6 6 16 39 52 85 98 95 81 87 130 106 66 49 61 92 68 101 116 110 109 131 100 135 139 133 131 130 119 154 159 181 172 163 161 150 152 128 124 112 119 123 111 104 125 149 146 98 81 74 91 106 93 89 73 35 19 7 10 9 3 2 0 0 0 0 0 0 0 0 0 0 0 0 0 0 0 0 0 0 0 0 0 0 0 0 0 0 0 0 0 0 0 0 0 0 0 0 0 0 0 0 0 0 0 
0 0 0 0 0 0 0 0 0 0 0 0 0 0 0 0 0 0 0 0 0 0 3 8 9 17 17 18 48 65 70 68 42 91 70 37 44 62 79 84 94 102 105 109 103 96 112 112 116 115 120 101 124 97 109 106 115 116 84 98 80 128 147 125 117 108 109 108 120 105 91 57 70 80 118 99 82 61 34 19 12 14 9 2 2 0 0 0 0 0 0 0 0 0 0 0 0 0 0 0 0 0 0 0 0 0 0 0 0 0 0 0 0 0 0 0 0 0 0 0 0 0 0 0 0 0 0 0 
0 0 0 0 0 0 0 0 0 0 0 0 0 0 0 0 0 0 0 0 0 0 1 7 10 12 17 20 34 52 57 75 41 92 60 27 28 49 81 79 82 103 91 94 99 120 101 104 109 118 87 67 81 61 54 66 98 90 77 61 69 121 122 114 87 95 107 134 132 101 75 42 40 54 112 114 86 60 24 19 15 13 10 3 2 0 0 0 0 0 0 0 0 0 0 0 0 0 0 0 0 0 0 0 0 0 0 0 0 0 0 0 0 0 0 0 0 0 0 0 0 0 0 0 0 0 0 0 
0 0 0 0 0 0 0 0 0 0 0 0 0 0 0 0 0 0 0 0 0 0 0 5 10 10 13 21 25 52 41 76 45 92 55 21 28 42 68 95 107 105 87 103 86 76 100 124 119 120 105 89 71 53 49 66 73 63 76 79 88 121 111 107 107 113 101 126 123 93 59 29 31 50 94 119 79 68 24 16 14 14 9 3 2 0 0 0 0 0 0 0 0 0 0 0 0 0 0 0 0 0 0 0 0 0 0 0 0 0 0 0 0 0 0 0 0 0 0 0 0 0 0 0 0 0 0 0 
0 0 0 0 0 0 0 0 0 0 0 0 0 0 0 0 0 0 0 0 0 0 0 3 9 12 11 17 20 48 43 76 55 93 58 19 29 52 69 83 91 73 77 102 84 58 89 140 137 116 98 100 84 70 71 71 77 80 93 103 103 141 129 113 88 108 99 90 110 107 79 35 27 51 85 117 71 67 29 17 13 13 7 4 3 1 0 0 0 0 0 0 0 0 0 0 0 0 0 0 0 0 0 0 0 0 0 0 0 0 0 0 0 0 0 0 0 0 0 0 0 0 0 0 0 0 0 0 
0 0 0 0 0 0 0 0 0 0 0 0 0 0 0 0 0 0 0 0 0 0 0 0 7 9 11 13 20 34 53 78 62 95 61 27 43 59 61 74 59 56 94 88 78 55 67 124 133 102 97 101 95 102 87 79 88 91 90 109 118 121 150 113 82 105 104 84 73 91 90 69 45 51 90 113 74 55 39 16 14 11 6 3 3 1 0 0 0 0 0 0 0 0 0 0 0 0 0 0 0 0 0 0 0 0 0 0 0 0 0 0 0 0 0 0 0 0 0 0 0 0 0 0 0 0 0 0 
0 0 0 0 0 0 0 0 0 0 0 0 0 0 0 0 0 0 0 0 0 0 0 0 1 8 9 11 16 22 46 71 58 90 71 36 59 63 72 56 41 64 102 97 97 54 59 91 111 91 100 97 93 99 90 94 93 87 74 92 121 100 133 113 89 113 110 101 57 51 69 73 67 55 97 105 82 50 19 13 15 10 5 3 3 2 0 0 0 0 0 0 0 0 0 0 0 0 0 0 0 0 0 0 0 0 0 0 0 0 0 0 0 0 0 0 0 0 0 0 0 0 0 0 0 0 0 0 
0 0 0 0 0 0 0 0 0 0 0 0 0 0 0 0 0 0 0 0 0 0 0 0 0 6 9 9 15 17 21 38 45 70 74 38 64 73 74 42 39 74 111 106 94 59 61 87 117 96 100 89 82 79 87 99 92 79 55 70 109 110 118 82 77 87 112 103 60 42 60 77 80 57 91 94 36 18 13 12 13 10 6 3 4 2 0 0 0 0 0 0 0 0 0 0 0 0 0 0 0 0 0 0 0 0 0 0 0 0 0 0 0 0 0 0 0 0 0 0 0 0 0 0 0 0 0 0 
0 0 0 0 0 0 0 0 0 0 0 0 0 0 0 0 0 0 0 0 0 0 0 0 0 3 9 6 14 19 20 21 37 39 76 50 72 95 76 38 40 73 115 98 67 53 57 89 126 117 102 75 76 91 97 84 78 80 65 57 73 101 123 90 75 74 95 96 64 39 54 100 98 63 82 48 20 17 15 14 14 8 4 3 3 2 0 0 0 0 0 0 0 0 0 0 0 0 0 0 0 0 0 0 0 0 0 0 0 0 0 0 0 0 0 0 0 0 0 0 0 0 0 0 0 0 0 0 
0 0 0 0 0 0 0 0 0 0 0 0 0 0 0 0 0 0 0 0 0 0 0 0 0 0 8 7 8 15 18 15 13 19 49 79 110 115 62 38 39 63 108 85 57 45 48 82 124 109 78 70 61 62 64 72 76 73 63 55 68 105 132 102 69 62 70 108 75 38 38 90 131 96 77 29 15 15 15 16 13 6 3 4 4 3 1 0 0 0 0 0 0 0 0 0 0 0 0 0 0 0 0 0 0 0 0 0 0 0 0 0 0 0 0 0 0 0 0 0 0 0 0 0 0 0 0 0 
0 0 0 0 0 0 0 0 0 0 0 0 0 0 0 0 0 0 0 0 0 0 0 0 0 0 0 9 7 10 15 13 14 17 15 36 67 79 47 33 38 61 113 86 55 45 46 79 118 96 64 64 73 78 73 69 67 65 60 60 79 114 138 105 69 67 91 128 91 44 37 60 92 65 38 22 16 16 16 18 13 6 4 3 4 3 0 0 0 0 0 0 0 0 0 0 0 0 0 0 0 0 0 0 0 0 0 0 0 0 0 0 0 0 0 0 0 0 0 0 0 0 0 0 0 0 0 0 
0 0 0 0 0 0 0 0 0 0 0 0 0 0 0 0 0 0 0 0 0 0 0 0 0 0 0 3 5 8 14 15 15 18 13 8 20 50 58 46 47 78 126 99 67 60 58 93 109 87 67 57 57 62 57 63 86 92 73 76 107 125 111 106 74 55 76 134 127 68 54 70 61 27 27 21 17 17 19 19 13 7 4 3 4 3 1 0 0 0 0 0 0 0 0 0 0 0 0 0 0 0 0 0 0 0 0 0 0 0 0 0 0 0 0 0 0 0 0 0 0 0 0 0 0 0 0 0 
0 0 0 0 0 0 0 0 0 0 0 0 0 0 0 0 0 0 0 0 0 0 0 0 0 0 0 0 7 6 12 15 18 19 13 11 14 29 61 64 69 95 128 104 73 69 79 107 101 90 79 64 68 72 69 80 94 92 87 97 105 110 96 109 90 63 78 132 136 82 72 69 38 25 21 19 18 17 20 17 13 7 4 4 4 3 1 0 0 0 0 0 0 0 0 0 0 0 0 0 0 0 0 0 0 0 0 0 0 0 0 0 0 0 0 0 0 0 0 0 0 0 0 0 0 0 0 0 
0 0 0 0 0 0 0 0 0 0 0 0 0 0 0 0 0 0 0 0 0 0 0 0 0 0 0 0 5 4 12 14 15 21 16 13 13 17 31 56 70 82 111 121 97 87 95 109 100 89 79 63 65 74 80 96 99 87 93 98 99 122 135 128 102 78 97 130 115 70 58 37 29 24 17 15 18 16 18 17 13 6 2 3 4 3 2 0 0 0 0 0 0 0 0 0 0 0 0 0 0 0 0 0 0 0 0 0 0 0 0 0 0 0 0 0 0 0 0 0 0 0 0 0 0 0 0 0 
0 0 0 0 0 0 0 0 0 0 0 0 0 0 0 0 0 0 0 0 0 0 0 0 0 0 0 0 2 7 5 13 15 19 17 11 11 16 23 27 34 41 67 122 115 94 94 91 89 98 82 63 72 77 78 89 96 92 92 86 86 96 112 128 109 93 114 123 65 30 27 32 27 22 17 17 16 16 15 15 12 7 2 2 3 3 1 0 0 0 0 0 0 0 0 0 0 0 0 0 0 0 0 0 0 0 0 0 0 0 0 0 0 0 0 0 0 0 0 0 0 0 0 0 0 0 0 0 
0 0 0 0 0 0 0 0 0 0 0 0 0 0 0 0 0 0 0 0 0 0 0 0 0 0 0 0 0 8 6 9 14 18 18 12 11 19 25 26 31 37 34 70 120 115 96 77 81 93 89 81 86 89 87 89 98 104 101 84 88 99 100 104 114 126 134 81 47 30 26 31 28 21 18 15 16 15 15 14 11 6 2 2 3 2 1 0 0 0 0 0 0 0 0 0 0 0 0 0 0 0 0 0 0 0 0 0 0 0 0 0 0 0 0 0 0 0 0 0 0 0 0 0 0 0 0 0 
0 0 0 0 0 0 0 0 0 0 0 0 0 0 0 0 0 0 0 0 0 0 0 0 0 0 0 0 0 4 6 7 10 18 15 13 13 19 26 28 34 34 30 35 57 84 76 60 61 82 93 95 97 96 97 96 105 116 119 108 103 96 88 70 93 108 78 59 49 31 22 28 30 22 15 14 18 14 15 13 11 5 2 2 3 3 2 0 0 0 0 0 0 0 0 0 0 0 0 0 0 0 0 0 0 0 0 0 0 0 0 0 0 0 0 0 0 0 0 0 0 0 0 0 0 0 0 0 
