P2
128 99
230
0 0 0 0 0 0 0 0 0 0 0 0 0 0 0 0 0 0 0 0 0 0 0 0 0 0 0 0 0 0 0 0 0 0 0 0 0 0 0 0 0 0 0 0 0 0 0 0 0 0 0 0 0 0 0 0 0 0 0 0 0 0 0 0 0 0 0 0 0 0 0 0 0 0 0 0 0 0 0 0 0 0 0 0 0 0 0 0 0 0 0 0 0 0 0 0 0 0 0 0 0 0 0 0 0 0 0 0 0 0 0 0 0 0 0 0 0 0 0 0 0 0 0 0 0 0 0 0 
0 0 0 0 0 0 0 0 0 0 0 0 0 0 0 0 0 0 0 0 0 0 0 0 0 0 0 0 0 0 0 0 0 0 0 0 0 0 0 0 0 0 0 0 0 0 0 0 0 0 0 0 0 0 0 0 0 0 0 0 0 0 0 0 0 0 0 0 0 0 0 0 0 0 0 0 0 0 0 0 0 0 0 0 0 0 0 0 0 0 0 0 0 0 0 0 0 0 0 0 0 0 0 0 0 0 0 0 0 0 0 0 0 0 0 0 0 0 0 0 0 0 0 0 0 0 0 0 
0 0 0 0 0 0 0 0 0 0 0 0 0 0 0 0 0 0 0 0 0 0 0 0 0 0 0 0 0 0 0 0 0 0 0 0 0 0 0 0 0 0 0 0 0 0 0 0 0 0 0 2 2 1 0 0 0 0 0 0 0 0 0 0 0 0 0 0 0 0 0 0 0 0 0 0 0 0 0 0 0 0 0 0 0 0 0 0 0 0 0 0 0 0 0 0 0 0 0 0 0 0 0 0 0 0 0 0 0 0 0 0 0 0 0 0 0 0 0 0 0 0 0 0 0 0 0 0 
0 0 0 0 0 0 0 0 0 0 0 0 0 0 0 0 0 0 0 0 0 0 0 0 0 0 0 0 0 0 0 0 0 0 0 0 0 0 0 0 0 0 0 0 4 10 18 22 23 23 23 25 26 26 25 22 16 14 16 12 2 0 0 0 0 0 0 0 0 0 0 0 0 0 0 0 0 0 0 0 0 0 0 0 0 0 0 0 0 0 0 0 0 0 0 0 0 0 0 0 0 0 0 0 0 0 0 0 0 0 0 0 0 0 0 0 0 0 0 0 0 0 0 0 0 0 0 0 
0 0 0 0 0 0 0 0 0 0 0 0 0 0 0 0 0 0 0 0 0 0 0 0 0 0 0 0 0 0 0 0 0 0 0 0 0 0 0 0 5 7 15 31 26 27 43 66 92 114 130 139 143 144 141 134 120 102 81 57 32 16 16 6 0 0 0 0 0 0 0 0 0 0 0 0 0 0 0 0 0 0 0 0 0 0 0 0 0 0 0 0 0 0 0 0 0 0 0 0 0 0 0 0 0 0 0 0 0 0 0 0 0 0 0 0 0 0 0 0 0 0 0 0 0 0 0 0 
0 0 0 0 0 0 0 0 0 0 0 0 0 0 0 0 0 0 0 0 0 0 0 0 0 0 0 0 0 0 0 0 0 0 0 0 0 1 8 8 28 26 32 58 95 130 149 156 152 145 143 144 145 148 146 147 146 138 134 136 135 116 80 41 16 17 9 0 0 0 0 0 0 0 0 0 0 0 0 0 0 0 0 0 0 0 0 0 0 0 0 0 0 0 0 0 0 0 0 0 0 0 0 0 0 0 0 0 0 0 0 0 0 0 0 0 0 0 0 0 0 0 0 0 0 0 0 0 
0 0 0 0 0 0 0 0 0 0 0 0 0 0 0 0 0 0 0 0 0 0 0 0 0 0 0 0 0 0 0 0 0 0 0 1 8 11 27 28 47 90 130 159 163 145 146 163 176 179 178 178 178 177 175 174 172 170 169 163 151 135 130 140 125 78 34 16 15 0 0 0 0 0 0 0 0 0 0 0 0 0 0 0 0 0 0 0 0 0 0 0 0 0 0 0 0 0 0 0 0 0 0 0 0 0 0 0 0 0 0 0 0 0 0 0 0 0 0 0 0 0 0 0 0 0 0 0 
0 0 0 0 0 0 0 0 0 0 0 0 0 0 0 0 0 0 0 0 0 0 0 0 0 0 0 0 0 0 0 0 0 0 7 16 29 28 54 108 149 167 152 147 159 174 184 176 163 154 151 154 150 141 143 154 164 170 168 169 172 171 163 151 134 134 144 110 45 19 17 0 0 0 0 0 0 0 0 0 0 0 0 0 0 0 0 0 0 0 0 0 0 0 0 0 0 0 0 0 0 0 0 0 0 0 0 0 0 0 0 0 0 0 0 0 0 0 0 0 0 0 0 0 0 0 0 0 
0 0 0 0 0 0 0 0 0 0 0 0 0 0 0 0 0 0 0 0 0 0 0 0 0 0 0 0 0 0 0 0 5 22 32 26 50 109 156 168 147 147 166 176 174 163 140 121 106 112 115 116 110 105 114 117 119 142 162 166 168 170 173 173 172 160 143 134 149 115 44 25 8 0 0 0 0 0 0 0 0 0 0 0 0 0 0 0 0 0 0 0 0 0 0 0 0 0 0 0 0 0 0 0 0 0 0 0 0 0 0 0 0 0 0 0 0 0 0 0 0 0 0 0 0 0 0 0 
0 0 0 0 0 0 0 0 0 0 0 0 0 0 0 0 0 0 0 0 0 0 0 0 0 0 0 0 0 0 0 21 26 25 36 95 153 172 145 148 165 175 168 141 124 126 114 103 119 131 152 174 182 184 184 183 176 161 150 152 163 166 164 166 171 175 178 167 147 138 148 81 27 18 0 0 0 0 0 0 0 0 0 0 0 0 0 0 0 0 0 0 0 0 0 0 0 0 0 0 0 0 0 0 0 0 0 0 0 0 0 0 0 0 0 0 0 0 0 0 0 0 0 0 0 0 0 0 
0 0 0 0 0 0 0 0 0 0 0 0 0 0 0 0 0 0 0 0 0 0 0 0 0 0 0 0 0 10 24 25 23 72 137 172 153 145 163 171 168 154 137 144 160 176 193 205 199 172 153 153 159 161 161 165 180 199 208 205 198 191 181 170 166 165 165 173 179 166 145 146 123 39 25 3 0 0 0 0 0 0 0 0 0 0 0 0 0 0 0 0 0 0 0 0 0 0 0 0 0 0 0 0 0 0 0 0 0 0 0 0 0 0 0 0 0 0 0 0 0 0 0 0 0 0 0 0 
0 0 0 0 0 0 0 0 0 0 0 0 0 0 0 0 0 0 0 0 0 0 0 0 0 0 0 0 22 21 20 42 110 166 162 142 160 172 172 167 156 155 168 182 194 198 195 185 175 172 163 154 152 157 165 171 170 178 187 195 201 205 211 219 207 184 169 166 169 174 178 165 143 139 62 24 9 0 0 0 0 0 0 0 0 0 0 0 0 0 0 0 0 0 0 0 0 0 0 0 0 0 0 0 0 0 0 0 0 0 0 0 0 0 0 0 0 0 0 0 0 0 0 0 0 0 0 0 
0 0 0 0 0 0 0 0 0 0 0 0 0 0 0 0 0 0 0 0 0 0 0 0 0 0 7 23 16 20 60 135 173 152 155 172 172 173 166 164 179 195 191 184 178 188 186 168 161 157 145 132 130 134 141 134 125 138 155 169 177 182 181 192 216 230 222 192 170 164 166 176 173 143 141 83 23 11 0 0 0 0 0 0 0 0 0 0 0 0 0 0 0 0 0 0 0 0 0 0 0 0 0 0 0 0 0 0 0 0 0 0 0 0 0 0 0 0 0 0 0 0 0 0 0 0 0 0 
0 0 0 0 0 0 0 0 0 0 0 0 0 0 0 0 0 0 0 0 0 0 0 0 0 12 22 13 27 87 151 168 150 167 175 179 176 167 185 193 189 183 162 141 129 128 127 137 144 146 130 127 124 116 109 102 107 110 127 138 140 140 145 151 164 185 212 230 217 183 167 160 168 173 148 143 95 27 14 0 0 0 0 0 0 0 0 0 0 0 0 0 0 0 0 0 0 0 0 0 0 0 0 0 0 0 0 0 0 0 0 0 0 0 0 0 0 0 0 0 0 0 0 0 0 0 0 0 
0 0 0 0 0 0 0 0 0 0 0 0 0 0 0 0 0 0 0 0 0 0 0 0 14 19 11 42 103 154 158 152 173 179 183 169 174 193 187 184 169 132 112 110 113 111 96 101 100 80 79 95 82 64 56 56 71 94 106 115 131 145 142 133 125 136 154 182 210 228 201 170 166 169 173 154 149 107 30 13 0 0 0 0 0 0 0 0 0 0 0 0 0 0 0 0 0 0 0 0 0 0 0 0 0 0 0 0 0 0 0 0 0 0 0 0 0 0 0 0 0 0 0 0 0 0 0 0 
0 0 0 0 0 0 0 0 0 0 0 0 0 0 0 0 0 0 0 0 0 0 5 17 17 8 57 118 150 148 156 179 184 172 156 174 180 176 170 148 119 107 103 100 100 85 63 56 54 53 56 58 56 56 57 57 56 62 80 93 101 120 142 147 138 130 126 132 153 180 221 214 172 164 168 176 156 154 116 36 12 0 0 0 0 0 0 0 0 0 0 0 0 0 0 0 0 0 0 0 0 0 0 0 0 0 0 0 0 0 0 0 0 0 0 0 0 0 0 0 0 0 0 0 0 0 0 0 
0 0 0 0 0 0 0 0 0 0 0 0 0 0 0 0 0 0 0 0 0 7 16 14 9 68 128 150 145 160 185 186 166 146 171 172 169 156 145 124 104 95 94 99 85 63 65 71 76 81 87 97 97 98 103 109 112 111 108 102 88 75 90 127 142 134 130 132 127 144 165 206 215 173 164 166 169 154 159 123 37 7 0 0 0 0 0 0 0 0 0 0 0 0 0 0 0 0 0 0 0 0 0 0 0 0 0 0 0 0 0 0 0 0 0 0 0 0 0 0 0 0 0 0 0 0 0 0 
0 0 0 0 0 0 0 0 0 0 0 0 0 0 0 0 0 0 0 0 8 16 11 13 80 133 153 154 163 188 178 149 132 171 176 172 148 129 111 100 99 98 102 103 108 113 113 113 111 109 110 110 112 117 123 127 130 129 132 133 132 129 116 108 121 136 130 130 130 122 131 159 199 210 169 163 159 163 154 169 122 31 6 0 0 0 0 0 0 0 0 0 0 0 0 0 0 0 0 0 0 0 0 0 0 0 0 0 0 0 0 0 0 0 0 0 0 0 0 0 0 0 0 0 0 0 0 0 
0 0 0 0 0 0 0 0 0 0 0 0 0 0 0 0 0 0 0 7 15 9 11 81 135 151 160 161 188 174 137 120 173 183 173 140 125 101 101 102 111 122 129 129 128 124 120 119 116 112 114 115 115 117 116 115 112 113 113 117 121 126 125 130 123 114 124 128 127 123 109 128 161 191 201 166 162 160 164 155 169 105 23 3 0 0 0 0 0 0 0 0 0 0 0 0 0 0 0 0 0 0 0 0 0 0 0 0 0 0 0 0 0 0 0 0 0 0 0 0 0 0 0 0 0 0 0 0 
0 0 0 0 0 0 0 0 0 0 0 0 0 0 0 0 0 0 6 15 10 13 79 135 149 163 154 185 169 127 119 165 180 168 139 122 108 106 112 124 131 124 119 116 116 114 114 115 113 109 113 116 111 114 112 109 108 109 108 110 111 114 116 123 131 130 120 121 130 122 117 113 136 157 187 190 164 163 162 158 154 159 85 15 1 0 0 0 0 0 0 0 0 0 0 0 0 0 0 0 0 0 0 0 0 0 0 0 0 0 0 0 0 0 0 0 0 0 0 0 0 0 0 0 0 0 0 0 
0 0 0 0 0 0 0 0 0 0 0 0 0 0 0 0 0 4 12 13 14 69 133 141 166 155 182 169 128 121 170 176 164 135 131 115 104 101 120 124 116 112 111 111 113 112 110 112 119 121 119 115 115 116 114 111 113 110 108 111 110 111 110 112 118 126 130 123 122 130 123 115 119 149 162 186 176 155 162 168 152 167 139 68 10 0 0 0 0 0 0 0 0 0 0 0 0 0 0 0 0 0 0 0 0 0 0 0 0 0 0 0 0 0 0 0 0 0 0 0 0 0 0 0 0 0 0 0 
0 0 0 0 0 0 0 0 0 0 0 0 0 0 0 0 0 12 10 12 61 128 135 150 155 175 169 125 116 170 178 157 138 136 111 92 96 117 117 112 112 113 113 111 110 106 101 106 118 119 115 111 113 120 117 111 113 110 109 114 117 111 110 110 108 115 121 132 120 110 131 133 115 127 158 166 184 160 159 163 164 149 165 121 59 4 0 0 0 0 0 0 0 0 0 0 0 0 0 0 0 0 0 0 0 0 0 0 0 0 0 0 0 0 0 0 0 0 0 0 0 0 0 0 0 0 0 0 
0 0 0 0 0 0 0 0 0 0 0 0 0 0 0 0 7 11 15 63 114 133 137 161 166 170 123 113 165 168 150 142 139 112 89 88 108 115 111 114 115 112 111 111 111 109 108 106 103 95 98 96 101 120 119 116 112 109 109 112 112 106 103 100 100 104 111 122 132 106 92 125 131 115 135 159 175 172 146 164 171 153 159 147 104 34 3 0 0 0 0 0 0 0 0 0 0 0 0 0 0 0 0 0 0 0 0 0 0 0 0 0 0 0 0 0 0 0 0 0 0 0 0 0 0 0 0 0 
0 0 0 0 0 0 0 0 0 0 0 0 0 0 0 4 11 15 60 106 132 123 162 164 171 134 107 152 174 147 145 140 116 88 81 100 114 111 112 109 101 92 88 83 83 86 87 86 93 95 111 98 92 102 90 84 91 100 104 100 92 101 104 98 96 100 106 112 126 127 95 75 112 127 121 145 170 186 144 148 167 164 144 163 123 84 11 0 0 0 0 0 0 0 0 0 0 0 0 0 0 0 0 0 0 0 0 0 0 0 0 0 0 0 0 0 0 0 0 0 0 0 0 0 0 0 0 0 
0 0 0 0 0 0 0 0 0 0 0 0 0 0 0 9 10 36 104 118 123 141 173 171 146 107 130 180 160 147 144 122 89 80 91 110 114 113 108 97 85 85 85 88 86 88 86 87 84 82 104 100 78 73 63 59 63 70 75 81 89 89 90 93 103 109 112 111 116 128 120 86 76 109 121 128 162 178 165 124 159 170 151 166 143 100 40 3 0 0 0 0 0 0 0 0 0 0 0 0 0 0 0 0 0 0 0 0 0 0 0 0 0 0 0 0 0 0 0 0 0 0 0 0 0 0 0 0 
0 0 0 0 0 0 0 0 0 0 0 0 0 0 3 10 16 89 107 125 122 167 172 155 123 111 165 166 150 144 127 99 78 86 107 112 110 111 105 91 87 85 85 85 82 83 85 87 74 61 74 74 62 55 53 53 54 55 59 67 80 89 90 87 87 96 108 113 113 123 129 111 75 80 120 122 139 173 181 118 133 167 155 158 151 110 72 5 0 0 0 0 0 0 0 0 0 0 0 0 0 0 0 0 0 0 0 0 0 0 0 0 0 0 0 0 0 0 0 0 0 0 0 0 0 0 0 0 
0 0 0 0 0 0 0 0 0 0 0 0 0 0 7 11 48 106 114 120 142 182 153 130 110 127 175 162 151 129 106 80 80 102 117 104 108 111 99 88 83 77 73 69 66 67 70 72 64 52 54 55 54 50 52 53 52 53 54 56 62 73 84 90 87 85 92 108 112 114 126 124 99 65 83 120 128 159 184 130 109 154 154 151 157 128 92 19 0 0 0 0 0 0 0 0 0 0 0 0 0 0 0 0 0 0 0 0 0 0 0 0 0 0 0 0 0 0 0 0 0 0 0 0 0 0 0 0 
0 0 0 0 0 0 0 0 0 0 0 0 0 0 10 13 92 106 119 125 168 165 138 115 111 136 171 158 129 109 82 76 95 119 115 101 113 112 88 76 66 62 57 52 52 53 57 58 56 54 54 52 51 51 52 51 51 51 53 53 54 59 66 79 89 91 91 104 110 112 118 127 118 88 65 98 124 147 175 153 110 146 155 145 162 140 104 46 3 0 0 0 0 0 0 0 0 0 0 0 0 0 0 0 0 0 0 0 0 0 0 0 0 0 0 0 0 0 0 0 0 0 0 0 0 0 0 0 
0 0 0 0 0 0 0 0 0 0 0 0 0 5 8 36 113 104 121 138 183 146 130 115 117 143 172 144 109 87 78 90 115 116 105 113 114 87 65 57 56 51 52 51 51 53 51 52 55 52 54 52 53 50 53 48 51 52 52 52 53 52 55 60 80 91 90 99 107 109 114 122 127 110 77 82 107 145 170 161 121 142 155 143 163 141 116 67 5 0 0 0 0 0 0 0 0 0 0 0 0 0 0 0 0 0 0 0 0 0 0 0 0 0 0 0 0 0 0 0 0 0 0 0 0 0 0 0 
0 0 0 0 0 0 0 0 0 0 0 0 0 7 10 76 112 107 124 157 177 124 134 120 126 156 160 127 94 78 87 110 118 102 104 114 86 61 51 52 51 50 51 50 50 49 51 51 53 52 54 53 54 54 53 52 51 52 51 53 52 52 54 53 66 84 91 95 102 111 112 115 125 125 101 78 87 129 169 165 126 142 157 142 162 138 129 79 6 0 0 0 0 0 0 0 0 0 0 0 0 0 0 0 0 0 0 0 0 0 0 0 0 0 0 0 0 0 0 0 0 0 0 0 0 0 0 0 
0 0 0 0 0 0 0 0 0 0 0 0 0 11 17 110 106 113 132 166 152 117 136 125 127 159 141 120 85 79 106 121 113 99 111 95 66 52 51 50 50 51 51 51 51 50 54 55 58 65 70 73 76 76 76 71 69 66 61 57 55 55 54 57 57 68 86 93 105 114 117 111 115 127 121 85 81 110 162 165 122 140 156 143 154 142 136 88 11 0 0 0 0 0 0 0 0 0 0 0 0 0 0 0 0 0 0 0 0 0 0 0 0 0 0 0 0 0 0 0 0 0 0 0 0 0 0 0 
0 0 0 0 0 0 0 0 0 0 0 0 1 9 32 121 103 124 140 162 124 117 141 130 131 150 137 115 82 86 120 116 109 108 111 76 53 51 51 50 53 52 54 54 57 66 83 102 115 124 127 130 134 135 132 129 129 128 120 101 79 63 57 57 54 59 73 91 109 113 114 109 109 123 133 106 74 96 155 158 119 135 149 144 151 148 138 96 19 0 0 0 0 0 0 0 0 0 0 0 0 0 0 0 0 0 0 0 0 0 0 0 0 0 0 0 0 0 0 0 0 0 0 0 0 0 0 0 
0 0 0 0 0 0 0 0 0 0 0 0 4 9 47 118 106 128 141 152 113 116 142 129 120 141 136 109 80 90 120 111 104 109 94 70 51 50 53 52 50 53 56 62 78 105 129 144 152 156 152 150 147 131 122 118 118 129 146 149 122 91 68 57 56 54 67 100 112 106 108 107 104 111 129 126 76 87 142 155 114 129 147 148 153 158 134 107 30 1 0 0 0 0 0 0 0 0 0 0 0 0 0 0 0 0 0 0 0 0 0 0 0 0 0 0 0 0 0 0 0 0 0 0 0 0 0 0 
0 0 0 0 0 0 0 0 0 0 0 0 6 7 66 110 115 134 144 140 111 125 146 127 104 143 135 104 78 91 115 106 105 104 88 72 53 53 53 51 52 56 63 76 103 127 145 147 135 129 131 133 110 59 52 50 53 77 115 147 149 121 87 67 62 70 83 95 107 104 103 106 101 102 120 132 82 76 135 155 121 131 144 150 154 173 132 114 40 3 0 0 0 0 0 0 0 0 0 0 0 0 0 0 0 0 0 0 0 0 0 0 0 0 0 0 0 0 0 0 0 0 0 0 0 0 0 0 
0 0 0 0 0 0 0 0 0 0 0 0 5 5 84 105 121 132 152 149 114 132 146 115 101 144 134 96 77 95 113 104 103 91 78 82 61 54 53 52 55 58 65 90 119 141 150 144 121 97 94 112 83 49 48 51 50 51 72 121 149 144 112 85 84 91 89 92 102 105 102 102 100 98 109 129 96 71 123 142 121 133 148 157 149 176 139 122 51 4 0 0 0 0 0 0 0 0 0 0 0 0 0 0 0 0 0 0 0 0 0 0 0 0 0 0 0 0 0 0 0 0 0 0 0 0 0 0 
0 0 0 0 0 0 0 0 0 0 0 0 5 7 97 106 132 136 160 155 116 137 150 102 102 144 126 87 80 94 113 103 99 80 69 82 79 62 59 60 57 61 79 108 132 146 151 138 104 76 66 84 78 53 54 52 53 53 57 97 137 156 140 118 96 86 86 83 90 100 103 102 99 95 100 123 110 92 103 121 121 130 149 154 149 177 145 128 63 4 0 0 0 0 0 0 0 0 0 0 0 0 0 0 0 0 0 0 0 0 0 0 0 0 0 0 0 0 0 0 0 0 0 0 0 0 0 0 
0 0 0 0 0 0 0 0 0 0 0 0 5 12 97 109 132 130 162 155 116 136 147 96 104 141 123 83 80 89 112 103 94 74 69 74 87 86 87 92 84 82 92 121 140 143 147 132 99 65 57 56 69 54 56 53 56 54 59 100 141 153 140 115 89 78 67 58 65 82 84 85 98 102 99 114 130 116 103 120 129 118 146 149 150 180 155 132 80 8 0 0 0 0 0 0 0 0 0 0 0 0 0 0 0 0 0 0 0 0 0 0 0 0 0 0 0 0 0 0 0 0 0 0 0 0 0 0 
0 0 0 0 0 0 0 0 0 0 0 0 5 15 96 112 128 132 159 158 122 141 146 92 104 134 116 80 78 86 112 101 86 73 66 59 56 60 61 65 66 69 81 96 116 126 141 142 103 64 58 56 69 54 56 55 56 57 67 121 145 126 88 65 59 57 50 49 58 80 86 83 82 96 110 108 147 128 101 114 135 125 138 136 145 180 167 135 91 11 0 0 0 0 0 0 0 0 0 0 0 0 0 0 0 0 0 0 0 0 0 0 0 0 0 0 0 0 0 0 0 0 0 0 0 0 0 0 
0 0 0 0 0 0 0 0 0 0 0 0 7 16 97 118 131 143 165 165 126 138 144 101 116 132 121 84 78 84 111 100 88 60 51 48 52 56 59 59 57 58 60 64 77 82 93 134 123 88 63 62 73 77 57 57 58 57 97 139 111 74 56 55 54 49 48 51 57 74 84 82 76 81 107 131 156 148 90 120 138 132 127 128 136 181 174 135 99 16 0 0 0 0 0 0 0 0 0 0 0 0 0 0 0 0 0 0 0 0 0 0 0 0 0 0 0 0 0 0 0 0 0 0 0 0 0 0 
0 0 0 0 0 0 0 0 0 0 0 0 6 19 94 125 132 151 161 158 128 136 134 106 121 123 132 106 79 81 110 108 78 51 50 47 47 58 60 59 60 57 56 56 58 76 87 105 139 134 116 82 85 116 112 101 91 116 139 111 76 56 55 54 51 52 49 50 55 70 92 95 97 104 113 143 162 143 89 121 139 137 119 124 127 173 176 138 104 19 0 0 0 0 0 0 0 0 0 0 0 0 0 0 0 0 0 0 0 0 0 0 0 0 0 0 0 0 0 0 0 0 0 0 0 0 0 0 
0 0 0 0 0 0 0 0 0 0 0 0 7 18 87 127 132 152 157 154 128 132 113 103 121 118 125 123 110 89 111 110 64 50 47 46 47 57 61 59 62 62 57 55 60 68 93 107 141 168 169 168 149 130 155 162 148 144 110 78 64 57 57 52 53 58 72 82 81 98 115 110 103 102 113 140 156 133 103 121 142 134 117 113 123 159 172 140 109 24 0 0 0 0 0 0 0 0 0 0 0 0 0 0 0 0 0 0 0 0 0 0 0 0 0 0 0 0 0 0 0 0 0 0 0 0 0 0 
0 0 0 0 0 0 0 0 0 0 0 0 8 17 85 131 132 142 148 153 131 130 103 101 120 109 117 111 119 123 136 120 78 62 57 51 52 63 63 65 62 64 63 65 73 87 108 116 139 185 188 189 173 142 161 158 143 145 102 76 63 56 57 61 81 97 93 84 84 94 112 107 97 104 117 124 147 122 107 126 141 134 117 107 119 156 175 144 114 30 0 0 0 0 0 0 0 0 0 0 0 0 0 0 0 0 0 0 0 0 0 0 0 0 0 0 0 0 0 0 0 0 0 0 0 0 0 0 
0 0 0 0 0 0 0 0 0 0 0 0 7 17 78 131 131 143 150 155 135 124 97 95 120 95 104 122 111 116 137 109 70 68 74 79 93 105 100 92 84 77 72 79 90 106 123 131 141 179 184 185 162 141 140 146 144 149 100 73 62 61 79 96 96 86 89 89 92 102 123 117 101 107 107 112 133 117 104 135 136 132 119 107 96 143 177 142 116 36 1 0 0 0 0 0 0 0 0 0 0 0 0 0 0 0 0 0 0 0 0 0 0 0 0 0 0 0 0 0 0 0 0 0 0 0 0 0 
0 0 0 0 0 0 0 0 0 0 0 0 7 15 78 130 132 139 153 154 134 116 91 94 114 96 94 125 110 111 137 113 88 79 78 85 100 107 104 102 106 101 98 103 113 124 129 134 132 169 173 159 137 148 131 132 155 152 99 71 71 89 88 74 72 86 94 97 102 106 116 114 106 106 103 115 127 119 105 143 131 129 117 102 75 127 182 146 119 42 2 0 0 0 0 0 0 0 0 0 0 0 0 0 0 0 0 0 0 0 0 0 0 0 0 0 0 0 0 0 0 0 0 0 0 0 0 0 
0 0 0 0 0 0 0 0 0 0 0 0 7 16 80 133 133 136 157 148 116 111 90 91 108 95 89 125 132 113 136 109 80 70 58 69 90 109 110 99 87 98 116 132 139 132 134 131 126 163 173 143 136 152 152 141 155 155 93 84 95 71 57 54 57 69 92 94 94 105 122 117 109 101 103 112 124 112 103 144 131 127 120 99 69 102 176 147 123 47 3 0 0 0 0 0 0 0 0 0 0 0 0 0 0 0 0 0 0 0 0 0 0 0 0 0 0 0 0 0 0 0 0 0 0 0 0 0 
0 0 0 0 0 0 0 0 0 0 0 0 8 15 77 136 134 133 159 120 105 115 90 75 95 94 99 139 153 124 135 112 83 75 70 70 80 95 104 91 64 69 96 131 154 154 144 136 128 165 163 137 138 142 148 138 141 177 114 99 70 53 53 45 44 52 82 85 84 92 112 114 107 98 104 112 124 104 103 149 134 124 122 96 65 88 163 137 124 54 3 0 0 0 0 0 0 0 0 0 0 0 0 0 0 0 0 0 0 0 0 0 0 0 0 0 0 0 0 0 0 0 0 0 0 0 0 0 
0 0 0 0 0 0 0 0 0 0 0 0 8 15 78 135 135 136 145 89 102 115 90 66 86 97 113 132 157 139 132 118 78 67 60 67 76 90 93 92 68 71 103 132 144 149 150 129 120 146 166 159 142 142 136 130 124 146 87 84 69 63 56 47 44 57 76 76 79 91 111 115 109 98 102 116 125 96 102 151 133 125 126 89 66 92 167 138 123 58 2 0 0 0 0 0 0 0 0 0 0 0 0 0 0 0 0 0 0 0 0 0 0 0 0 0 0 0 0 0 0 0 0 0 0 0 0 0 
0 0 0 0 0 0 0 0 0 0 0 0 8 15 76 131 138 128 130 90 103 115 97 62 81 100 119 125 147 154 139 125 73 54 51 58 65 75 82 103 87 82 106 133 140 134 140 124 111 123 144 147 119 121 133 135 138 143 77 72 67 64 61 59 58 66 78 76 79 93 118 118 112 102 100 119 125 91 101 153 129 122 127 81 66 87 162 138 125 57 3 0 0 0 0 0 0 0 0 0 0 0 0 0 0 0 0 0 0 0 0 0 0 0 0 0 0 0 0 0 0 0 0 0 0 0 0 0 
0 0 0 0 0 0 0 0 0 0 0 0 8 14 70 125 142 117 116 92 101 118 108 61 70 97 119 127 134 159 150 135 91 61 56 50 56 71 86 104 99 93 109 131 135 123 130 124 114 116 127 120 112 118 132 135 139 148 93 71 60 56 56 56 60 63 80 83 88 99 115 109 106 101 94 116 100 67 87 151 132 116 122 67 67 83 155 129 117 53 2 0 0 0 0 0 0 0 0 0 0 0 0 0 0 0 0 0 0 0 0 0 0 0 0 0 0 0 0 0 0 0 0 0 0 0 0 0 
0 0 0 0 0 0 0 0 0 0 0 0 6 12 67 120 143 126 120 98 98 119 122 63 56 89 121 128 124 145 158 135 109 88 80 76 79 91 97 101 103 101 120 134 135 127 123 113 113 117 114 112 115 115 131 136 133 135 104 77 62 55 52 51 52 70 89 92 94 92 105 100 98 96 93 109 76 62 87 149 139 120 115 62 71 86 148 113 111 50 3 0 0 0 0 0 0 0 0 0 0 0 0 0 0 0 0 0 0 0 0 0 0 0 0 0 0 0 0 0 0 0 0 0 0 0 0 0 
0 0 0 0 0 0 0 0 0 0 0 0 4 12 65 114 138 125 124 100 96 116 123 75 49 78 119 132 119 131 158 135 111 87 83 86 85 85 94 98 109 104 124 140 138 135 136 118 118 118 110 112 122 121 128 131 130 123 124 78 90 53 49 43 43 71 81 84 81 78 94 96 99 93 95 96 74 81 98 143 141 127 100 59 73 97 136 103 106 45 2 0 0 0 0 0 0 0 0 0 0 0 0 0 0 0 0 0 0 0 0 0 0 0 0 0 0 0 0 0 0 0 0 0 0 0 0 0 
0 0 0 0 0 0 0 0 0 0 0 0 0 10 55 106 128 108 125 105 95 111 127 91 52 67 119 133 109 116 148 132 108 87 86 85 78 80 97 103 120 122 128 135 139 156 137 130 130 119 115 110 124 131 134 133 131 117 120 75 73 95 63 48 53 64 60 64 66 81 92 94 99 94 94 86 75 74 127 156 149 129 77 54 73 117 120 99 103 39 2 0 0 0 0 0 0 0 0 0 0 0 0 0 0 0 0 0 0 0 0 0 0 0 0 0 0 0 0 0 0 0 0 0 0 0 0 0 
0 0 0 0 0 0 0 0 0 4 11 3 0 5 40 97 122 97 120 107 94 110 121 102 56 53 113 131 100 102 138 131 117 99 82 75 72 79 93 99 118 136 133 143 159 142 139 138 138 123 119 105 121 129 125 125 133 117 111 88 56 79 106 89 71 58 61 61 61 74 96 105 105 94 98 83 54 58 120 159 163 133 56 55 78 134 107 111 98 34 0 0 0 0 0 0 0 0 0 0 0 0 0 0 0 0 0 0 0 0 0 0 0 0 0 0 0 0 0 0 0 0 0 0 0 0 0 0 
0 0 0 0 0 0 0 0 0 6 16 7 4 3 28 89 120 106 109 109 97 106 114 108 65 49 106 125 90 92 127 110 108 106 79 55 62 70 82 90 120 130 127 141 164 163 145 138 137 111 113 103 118 114 113 108 121 113 102 99 84 96 101 89 100 107 97 81 64 75 97 114 106 108 106 61 55 88 133 162 161 106 45 66 101 130 98 119 92 26 0 0 0 0 0 0 0 0 0 0 0 0 0 0 0 0 0 0 0 0 0 0 0 0 0 0 0 0 0 0 0 0 0 0 0 0 0 0 
0 0 0 0 0 0 0 0 0 2 4 12 2 3 17 78 116 121 96 112 100 97 111 121 79 51 103 121 86 85 103 86 75 89 91 69 61 66 74 81 106 118 131 131 137 144 128 130 130 99 96 103 109 103 110 95 89 99 92 109 114 126 113 83 70 90 146 131 130 139 143 149 138 131 86 57 72 93 135 156 157 83 40 85 139 93 94 117 77 14 0 0 0 0 0 0 0 0 0 0 0 0 0 0 0 0 0 0 0 0 0 0 0 0 0 0 0 0 0 0 0 0 0 0 0 0 0 0 
0 0 0 0 0 0 0 0 0 0 0 6 5 4 11 64 114 131 93 116 114 97 107 125 98 70 101 111 86 81 83 93 122 141 143 126 110 97 90 100 119 127 106 99 114 135 118 109 121 89 78 90 98 103 98 71 68 71 84 157 140 96 84 100 88 95 175 172 164 164 157 159 167 172 129 100 80 109 136 165 146 66 56 130 135 93 124 118 55 8 5 2 1 7 1 0 0 0 0 0 0 0 0 0 0 0 0 0 0 0 0 0 0 0 0 0 0 0 0 0 0 0 0 0 0 0 0 0 
0 0 0 0 0 0 0 0 0 0 0 0 5 2 8 52 114 130 122 116 116 100 108 121 109 85 98 98 88 81 85 119 144 119 99 104 121 117 100 105 131 130 122 103 89 87 95 89 83 76 69 83 80 89 79 50 47 65 77 168 145 83 71 84 89 134 208 209 208 196 167 157 165 160 127 117 137 156 153 162 120 68 84 144 153 123 139 109 36 6 0 4 10 6 1 0 0 0 0 0 0 0 0 0 0 0 0 0 0 0 0 0 0 0 0 0 0 0 0 0 0 0 0 0 0 0 0 0 
0 0 0 0 0 0 0 0 0 0 0 0 7 3 9 42 109 118 137 117 113 89 102 109 117 102 105 91 87 85 89 122 165 145 106 108 115 114 107 102 117 118 119 118 85 64 61 56 67 84 67 57 81 76 57 43 46 66 94 166 147 104 88 80 85 136 175 184 206 197 170 158 150 137 122 125 134 152 160 141 110 105 116 159 171 157 157 99 20 4 0 4 0 0 0 0 0 0 0 0 0 0 0 0 0 0 0 0 0 0 0 0 0 0 0 0 0 0 0 0 0 0 0 0 0 0 0 0 
0 0 0 0 0 0 0 0 0 0 0 0 8 6 10 30 100 110 122 128 129 105 93 95 117 133 108 93 103 105 99 106 144 174 185 194 189 161 128 121 95 100 120 124 104 77 75 80 62 61 63 46 56 61 50 45 54 73 89 125 121 84 94 90 83 119 139 141 173 154 147 148 137 114 117 152 155 147 150 150 153 141 123 153 197 138 124 80 9 3 4 0 0 0 0 0 0 0 0 0 0 0 0 0 0 0 0 0 0 0 0 0 0 0 0 0 0 0 0 0 0 0 0 0 0 0 0 0 
0 0 0 0 0 0 0 0 0 0 0 0 12 7 10 24 93 114 109 134 150 154 102 99 126 162 134 81 63 99 102 107 138 177 172 166 174 162 143 129 92 104 115 116 126 95 76 82 55 60 54 47 44 66 49 51 47 63 81 98 121 78 82 107 107 105 106 111 123 116 117 123 116 93 116 154 176 176 159 158 198 202 171 177 192 152 145 63 5 3 7 0 0 0 0 0 0 0 0 0 0 0 0 0 0 0 0 0 0 0 0 0 0 0 0 0 0 0 0 0 0 0 0 0 0 0 0 0 
0 0 0 0 0 0 0 0 0 0 0 0 9 10 3 15 44 116 119 114 145 156 155 110 131 150 154 104 66 76 118 128 132 157 145 148 164 181 172 135 105 101 117 110 121 102 71 64 68 83 59 49 44 77 75 54 54 67 68 86 99 97 80 95 112 124 114 103 94 105 94 86 92 89 114 159 172 167 141 132 158 160 155 165 160 127 138 75 8 2 12 1 0 0 0 0 0 0 0 0 0 0 0 0 0 0 0 0 0 0 0 0 0 0 0 0 0 0 0 0 0 0 0 0 0 0 0 0 
0 0 0 0 0 0 0 0 0 0 0 0 4 4 3 10 26 101 123 118 124 165 149 121 131 166 185 161 89 65 86 125 136 142 164 156 168 202 156 104 95 107 97 95 99 107 115 73 78 69 66 78 63 99 83 50 45 51 71 63 61 86 75 109 145 148 120 89 89 98 106 113 100 126 162 174 164 131 88 107 152 161 135 137 144 108 122 43 7 0 8 3 0 0 0 0 0 0 0 0 0 0 0 0 0 0 0 0 0 0 0 0 0 0 0 0 0 0 0 0 0 0 0 0 0 0 0 0 
0 0 0 0 0 0 0 0 0 0 0 0 1 5 4 9 17 73 129 122 150 136 130 104 105 141 147 141 107 73 92 104 120 118 140 150 171 177 98 61 61 68 78 105 88 93 108 71 51 53 77 80 52 102 99 54 38 47 77 55 54 93 95 117 163 154 112 90 93 103 99 125 159 179 192 182 150 100 84 92 123 138 99 123 135 132 99 19 5 2 6 0 0 0 0 0 0 0 0 0 0 0 0 0 0 0 0 0 0 0 0 0 0 0 0 0 0 0 0 0 0 0 0 0 0 0 0 0 
0 0 0 0 0 0 0 0 0 0 0 0 0 7 6 13 19 49 122 118 132 116 123 104 76 72 127 124 116 118 82 53 65 92 98 117 132 127 96 81 82 81 86 97 80 57 87 78 74 80 84 79 71 108 117 99 51 61 86 59 58 120 145 142 134 105 97 96 91 83 101 128 160 194 183 161 135 92 103 95 93 121 113 102 135 140 65 13 7 7 7 0 0 0 0 0 0 0 0 0 0 0 0 0 0 0 0 0 0 0 0 0 0 0 0 0 0 0 0 0 0 0 0 0 0 0 0 0 
0 0 0 0 0 0 0 0 0 0 0 0 0 9 3 9 10 14 81 88 122 131 143 131 81 80 109 115 117 126 112 57 39 57 83 94 101 105 117 124 121 99 111 103 97 108 126 88 103 77 68 74 79 77 110 117 75 74 103 79 89 154 141 151 132 108 102 90 63 53 83 144 183 196 173 151 122 113 123 103 100 135 118 77 113 98 26 16 15 15 8 0 0 0 0 0 0 0 0 0 0 0 0 0 0 0 0 0 0 0 0 0 0 0 0 0 0 0 0 0 0 0 0 0 0 0 0 0 
0 0 0 0 0 0 0 0 0 0 0 0 0 11 1 1 8 7 52 90 120 110 128 121 88 76 95 115 145 141 149 150 132 92 104 109 116 118 121 96 90 117 133 116 93 87 120 111 96 71 69 65 72 81 119 109 94 89 124 97 96 143 130 128 131 117 85 58 50 67 113 173 196 191 171 141 109 150 163 147 136 148 60 19 133 66 10 5 13 21 12 0 0 0 0 0 0 0 0 0 0 0 0 0 0 0 0 0 0 0 0 0 0 0 0 0 0 0 0 0 0 0 0 0 0 0 0 0 
0 0 0 0 0 0 0 0 0 0 0 2 5 12 0 0 5 9 23 99 129 103 110 120 117 90 91 152 168 181 173 146 123 127 104 85 91 105 98 99 93 123 120 116 108 87 104 117 134 114 136 137 121 113 121 104 98 128 159 152 134 151 128 124 129 101 60 55 86 127 135 151 180 169 164 126 134 169 173 152 148 134 18 42 115 32 6 6 5 21 19 1 0 0 0 0 0 0 0 0 0 0 0 0 0 0 0 0 0 0 0 0 0 0 0 0 0 0 0 0 0 0 0 0 0 0 0 0 
0 0 0 0 0 0 0 0 0 0 0 0 11 13 0 0 4 11 10 80 131 126 116 128 138 139 151 156 150 175 163 158 161 140 92 61 46 60 85 102 111 115 109 104 116 116 119 131 163 168 169 166 178 189 181 165 154 163 165 137 135 159 144 121 106 96 88 106 128 135 129 127 149 150 143 133 128 162 183 167 141 99 16 34 80 12 3 5 0 16 25 0 0 0 0 0 0 0 0 0 0 0 0 0 0 0 0 0 0 0 0 0 0 0 0 0 0 0 0 0 0 0 0 0 0 0 0 0 
0 0 0 0 0 0 0 0 0 0 0 0 8 9 0 0 5 9 7 42 116 116 108 130 118 164 182 149 159 186 168 152 146 121 120 118 98 74 70 89 124 110 116 126 137 147 164 181 202 176 155 145 144 161 172 184 181 176 165 130 121 147 150 132 130 138 149 138 144 146 130 118 133 108 104 125 115 170 174 171 152 129 37 112 57 7 3 4 0 7 16 0 0 0 0 0 0 0 0 0 0 0 0 0 0 0 0 0 0 0 0 0 0 0 0 0 0 0 0 0 0 0 0 0 0 0 0 0 
0 0 0 0 0 0 0 0 0 0 0 0 1 1 0 0 5 3 9 22 88 100 94 118 123 173 178 175 161 174 177 142 135 122 108 101 110 118 121 130 137 144 154 167 176 160 148 159 179 165 142 128 119 142 133 132 155 186 169 146 141 144 166 157 152 162 188 194 163 133 93 75 83 86 97 119 152 182 176 156 138 137 134 121 44 9 4 5 2 0 10 1 0 0 0 0 0 0 0 0 0 0 0 0 0 0 0 0 0 0 0 0 0 0 0 0 0 0 0 0 0 0 0 0 0 0 0 0 
0 0 0 0 0 0 0 0 0 0 0 0 6 0 0 0 4 4 5 20 71 89 106 101 135 161 165 154 167 164 179 139 112 104 114 115 112 116 126 144 136 146 166 181 155 133 126 140 156 150 126 131 119 125 121 117 146 181 156 157 162 151 169 190 176 183 202 190 138 95 58 68 84 106 134 146 192 191 182 163 147 147 137 89 48 13 4 5 3 0 5 4 0 0 0 0 0 0 0 0 0 0 0 0 0 0 0 0 0 0 0 0 0 0 0 0 0 0 0 0 0 0 0 0 0 0 0 0 
0 0 0 0 0 0 0 0 0 0 0 1 6 11 14 11 7 5 6 18 67 81 104 92 105 134 181 172 174 151 141 105 123 69 67 69 86 105 122 133 137 158 186 191 175 157 148 164 176 168 132 156 153 126 127 137 159 190 177 175 174 167 181 192 167 154 159 151 123 93 61 74 87 101 152 171 188 159 154 155 161 140 94 72 35 13 1 2 1 0 0 2 0 0 0 0 0 0 0 0 0 0 0 0 0 0 0 0 0 0 0 0 0 0 0 0 0 0 0 0 0 0 0 0 0 0 0 0 
0 0 0 0 0 0 0 0 0 0 0 0 7 11 13 12 16 14 15 12 40 78 82 82 77 103 170 168 166 113 149 113 119 108 65 67 72 79 86 101 111 146 176 165 164 152 149 164 170 171 147 175 165 156 138 126 131 148 169 155 140 145 155 135 159 149 147 160 132 125 102 98 101 119 151 157 161 139 147 111 105 99 80 59 21 13 9 13 12 15 14 3 0 0 0 0 0 0 0 0 0 0 0 0 0 0 0 0 0 0 0 0 0 0 0 0 0 0 0 0 0 0 0 0 0 0 0 0 
0 0 0 0 0 0 0 0 0 0 0 1 6 7 12 14 9 10 13 13 15 49 77 53 42 70 131 140 120 114 156 130 123 153 124 96 79 62 54 70 109 134 136 126 128 101 71 93 130 140 139 125 93 114 140 124 103 87 96 89 98 129 122 137 145 148 186 182 136 127 144 97 103 116 133 148 133 68 109 71 48 71 80 37 16 12 11 14 14 7 2 0 1 0 0 0 0 0 0 0 0 0 0 0 0 0 0 0 0 0 0 0 0 0 0 0 0 0 0 0 0 0 0 0 0 0 0 0 
0 0 0 0 0 0 0 0 0 0 0 0 6 5 2 7 8 8 10 17 18 22 66 71 46 41 78 124 129 143 160 124 91 114 140 108 95 99 85 112 125 130 150 142 140 97 92 134 175 182 172 137 134 148 144 123 133 139 114 98 89 128 132 133 137 152 182 196 149 169 159 90 103 104 93 113 101 59 81 71 72 78 46 10 11 2 3 4 7 5 2 4 5 4 0 0 0 0 0 0 0 0 0 0 0 0 0 0 0 0 0 0 0 0 0 0 0 0 0 0 0 0 0 0 0 0 0 0 
0 0 0 0 0 0 0 0 0 0 0 0 1 5 4 1 5 5 3 7 16 19 37 91 82 60 38 78 87 123 150 137 80 81 102 85 84 103 129 145 141 163 193 199 190 182 159 147 160 161 166 154 157 155 134 126 124 121 133 154 185 206 152 195 178 178 178 173 98 62 110 139 123 102 61 70 80 63 69 41 55 35 19 13 8 0 0 0 4 1 0 3 3 0 0 0 0 0 0 0 0 0 0 0 0 0 0 0 0 0 0 0 0 0 0 0 0 0 0 0 0 0 0 0 0 0 0 0 
0 0 0 0 0 0 0 0 0 0 0 0 0 3 3 0 0 3 0 6 13 22 31 54 75 50 33 80 75 51 82 100 71 87 95 118 123 162 173 162 143 147 169 189 171 186 194 195 156 179 173 153 142 152 157 141 150 171 178 158 149 180 192 177 204 159 176 175 174 87 71 58 70 81 53 70 63 76 71 35 35 50 43 27 20 0 0 1 0 0 0 0 4 0 0 0 0 0 0 0 0 0 0 0 0 0 0 0 0 0 0 0 0 0 0 0 0 0 0 0 0 0 0 0 0 0 0 0 
0 0 0 0 0 0 0 0 0 0 0 0 0 3 4 0 0 2 10 10 13 21 21 21 31 38 32 58 78 54 63 94 61 81 108 149 130 101 98 96 87 103 119 116 103 93 121 110 102 76 67 71 82 109 114 80 75 96 117 132 117 108 90 159 138 152 157 151 80 80 67 98 106 77 57 121 88 70 61 34 37 27 17 12 4 0 2 0 0 0 0 5 3 0 0 0 0 0 0 0 0 0 0 0 0 0 0 0 0 0 0 0 0 0 0 0 0 0 0 0 0 0 0 0 0 0 0 0 
0 0 0 0 0 0 0 0 0 0 0 0 0 0 0 0 0 0 2 6 11 14 16 18 18 23 25 43 80 60 60 101 43 47 69 97 114 68 58 53 53 52 82 66 64 78 86 71 40 40 45 45 60 79 79 61 47 49 52 93 100 72 52 52 70 94 67 45 57 67 87 112 101 61 50 128 91 71 56 33 31 24 14 10 3 0 0 0 0 0 2 4 2 0 0 0 0 0 0 0 0 0 0 0 0 0 0 0 0 0 0 0 0 0 0 0 0 0 0 0 0 0 0 0 0 0 0 0 
0 0 0 0 0 0 0 0 0 0 0 0 0 0 0 0 0 0 0 0 11 15 11 15 19 26 27 33 75 59 44 87 49 42 55 94 136 95 136 95 96 117 87 72 61 72 82 97 55 46 54 48 57 69 66 61 65 68 92 122 103 102 90 79 97 126 72 54 59 77 87 57 82 90 64 125 80 66 51 38 37 28 16 16 3 0 0 0 0 0 0 0 0 0 0 0 0 0 0 0 0 0 0 0 0 0 0 0 0 0 0 0 0 0 0 0 0 0 0 0 0 0 0 0 0 0 0 0 
0 0 0 0 0 0 0 0 0 0 0 0 0 0 0 0 0 0 0 0 0 5 3 6 21 26 27 27 60 59 37 62 38 47 40 98 182 131 147 115 118 112 184 99 72 85 90 121 108 71 54 39 50 62 61 75 85 109 135 169 174 172 156 148 132 63 81 73 30 84 153 154 134 134 104 143 85 79 47 30 22 5 1 6 0 0 0 0 0 0 0 0 0 0 0 0 0 0 0 0 0 0 0 0 0 0 0 0 0 0 0 0 0 0 0 0 0 0 0 0 0 0 0 0 0 0 0 0 
0 0 0 0 0 0 0 0 0 0 0 0 0 0 0 0 0 0 0 0 0 4 3 0 6 18 14 18 43 60 44 64 75 90 99 132 179 154 72 55 127 169 159 115 123 149 158 142 125 92 74 49 83 109 117 103 110 139 181 211 210 192 171 157 115 85 106 65 71 110 164 180 181 151 98 136 83 79 47 43 33 7 0 0 0 0 0 0 0 0 0 0 0 0 0 0 0 0 0 0 0 0 0 0 0 0 0 0 0 0 0 0 0 0 0 0 0 0 0 0 0 0 0 0 0 0 0 0 
0 0 0 0 0 0 0 0 0 0 0 0 0 0 0 0 0 0 0 0 0 3 7 2 3 12 15 24 50 57 37 57 45 35 46 101 155 118 74 109 68 89 120 85 103 107 142 125 113 145 139 110 123 125 130 121 133 136 137 144 139 149 133 139 142 120 104 85 95 130 139 110 95 75 59 116 73 56 34 45 21 3 6 5 0 0 0 0 0 0 0 0 0 0 0 0 0 0 0 0 0 0 0 0 0 0 0 0 0 0 0 0 0 0 0 0 0 0 0 0 0 0 0 0 0 0 0 0 
0 0 0 0 0 0 0 0 0 0 0 0 0 0 0 0 0 0 0 0 0 0 11 11 4 13 24 27 39 51 41 65 80 40 37 76 87 99 72 105 91 102 115 92 65 67 99 97 84 121 137 100 124 109 110 116 142 139 119 117 111 122 112 96 95 117 116 110 58 66 97 91 37 26 43 126 66 41 25 20 8 7 10 2 0 0 0 0 0 0 0 0 0 0 0 0 0 0 0 0 0 0 0 0 0 0 0 0 0 0 0 0 0 0 0 0 0 0 0 0 0 0 0 0 0 0 0 0 
0 0 0 0 0 0 0 0 0 0 0 0 0 0 0 0 0 0 0 0 0 0 4 11 9 15 19 21 25 46 42 59 106 43 47 82 67 47 50 56 69 95 103 93 98 100 105 79 70 96 103 92 102 92 82 83 87 79 77 104 118 97 62 53 74 111 113 107 100 61 72 98 56 31 40 114 73 53 29 20 15 9 11 2 0 0 0 0 0 0 0 0 0 0 0 0 0 0 0 0 0 0 0 0 0 0 0 0 0 0 0 0 0 0 0 0 0 0 0 0 0 0 0 0 0 0 0 0 
0 0 0 0 0 0 0 0 0 0 0 0 0 0 0 0 0 0 0 0 0 0 0 10 13 10 15 22 19 34 49 61 113 47 47 71 61 62 76 80 73 72 103 101 113 96 104 90 84 86 99 94 83 81 82 75 85 96 103 123 131 96 66 83 118 104 106 108 107 96 79 96 83 38 43 111 75 51 32 18 13 9 10 0 0 0 0 0 0 0 0 0 0 0 0 0 0 0 0 0 0 0 0 0 0 0 0 0 0 0 0 0 0 0 0 0 0 0 0 0 0 0 0 0 0 0 0 0 
0 0 0 0 0 0 0 0 0 0 0 0 0 0 0 0 0 0 0 0 0 0 0 6 11 10 11 18 19 21 34 58 111 50 61 87 85 81 66 50 53 53 86 117 136 105 100 92 114 119 109 98 80 84 99 95 99 105 110 104 124 115 111 105 148 120 97 100 105 97 85 97 123 66 41 110 89 50 35 17 12 9 8 0 0 0 0 0 0 0 0 0 0 0 0 0 0 0 0 0 0 0 0 0 0 0 0 0 0 0 0 0 0 0 0 0 0 0 0 0 0 0 0 0 0 0 0 0 
0 0 0 0 0 0 0 0 0 0 0 0 0 0 0 0 0 0 0 0 0 0 0 0 9 10 11 12 17 19 23 53 109 62 78 102 83 50 42 44 39 48 87 131 149 114 104 77 109 126 92 91 83 83 85 105 97 103 101 81 87 109 115 106 125 144 102 74 76 79 72 83 136 113 40 102 110 58 24 15 14 8 5 0 0 0 0 0 0 0 0 0 0 0 0 0 0 0 0 0 0 0 0 0 0 0 0 0 0 0 0 0 0 0 0 0 0 0 0 0 0 0 0 0 0 0 0 0 
0 0 0 0 0 0 0 0 0 0 0 0 0 0 0 0 0 0 0 0 0 0 0 0 4 9 12 14 15 17 21 49 115 71 88 108 76 43 38 41 46 50 85 143 164 123 89 58 71 121 96 90 82 74 75 94 97 105 99 82 75 109 85 96 113 150 124 58 46 46 41 50 113 152 59 98 88 26 16 17 14 8 3 0 0 0 0 0 0 0 0 0 0 0 0 0 0 0 0 0 0 0 0 0 0 0 0 0 0 0 0 0 0 0 0 0 0 0 0 0 0 0 0 0 0 0 0 0 
0 0 0 0 0 0 0 0 0 0 0 0 0 0 0 0 0 0 0 0 0 0 0 0 0 9 7 14 14 17 19 37 108 100 83 85 67 36 34 40 46 55 99 133 149 109 72 62 62 101 113 96 82 72 72 86 97 102 100 98 114 120 86 60 62 115 127 74 46 41 36 44 89 145 89 100 46 17 17 17 13 10 4 0 0 0 0 0 0 0 0 0 0 0 0 0 0 0 0 0 0 0 0 0 0 0 0 0 0 0 0 0 0 0 0 0 0 0 0 0 0 0 0 0 0 0 0 0 
0 0 0 0 0 0 0 0 0 0 0 0 0 0 0 0 0 0 0 0 0 0 0 0 0 9 5 10 14 17 19 25 59 81 36 59 68 39 31 40 48 63 87 66 117 100 70 64 67 111 131 118 98 87 87 92 82 77 95 105 132 119 77 52 57 115 93 62 54 42 37 41 81 99 66 41 19 15 19 18 15 9 3 0 0 0 0 0 0 0 0 0 0 0 0 0 0 0 0 0 0 0 0 0 0 0 0 0 0 0 0 0 0 0 0 0 0 0 0 0 0 0 0 0 0 0 0 0 
0 0 0 0 0 0 0 0 0 0 0 0 0 0 0 0 0 0 0 0 0 0 0 0 0 0 11 6 14 16 17 16 16 11 6 39 72 51 32 36 43 61 55 47 89 88 64 61 84 134 130 120 91 65 60 77 89 77 95 124 142 134 64 54 74 120 86 50 62 39 39 45 79 79 24 12 14 12 18 17 14 5 2 0 0 0 0 0 0 0 0 0 0 0 0 0 0 0 0 0 0 0 0 0 0 0 0 0 0 0 0 0 0 0 0 0 0 0 0 0 0 0 0 0 0 0 0 0 
0 0 0 0 0 0 0 0 0 0 0 0 0 0 0 0 0 0 0 0 0 0 0 0 0 0 1 7 9 13 17 14 9 17 15 22 71 68 41 29 44 72 58 61 121 97 72 92 117 131 140 138 123 93 83 79 75 82 114 139 151 155 117 91 89 120 101 54 79 51 47 58 90 71 27 12 13 14 17 14 8 4 1 0 0 0 0 0 0 0 0 0 0 0 0 0 0 0 0 0 0 0 0 0 0 0 0 0 0 0 0 0 0 0 0 0 0 0 0 0 0 0 0 0 0 0 0 0 
0 0 0 0 0 0 0 0 0 0 0 0 0 0 0 0 0 0 0 0 0 0 0 0 0 0 0 5 10 10 14 16 9 11 18 11 42 80 72 61 74 84 53 69 138 135 93 90 92 113 131 136 126 98 78 68 73 96 132 146 147 145 123 87 84 132 122 56 83 91 86 88 91 41 24 12 12 15 14 13 5 4 0 0 0 0 0 0 0 0 0 0 0 0 0 0 0 0 0 0 0 0 0 0 0 0 0 0 0 0 0 0 0 0 0 0 0 0 0 0 0 0 0 0 0 0 0 0 
0 0 0 0 0 0 0 0 0 0 0 0 0 0 0 0 0 0 0 0 0 0 0 0 0 0 0 5 6 7 12 14 15 7 11 13 17 47 83 92 93 72 44 73 157 153 86 74 88 117 131 125 114 96 75 68 73 84 112 125 144 149 139 117 98 150 148 58 55 94 97 86 47 28 24 14 17 16 16 14 8 4 0 0 0 0 0 0 0 0 0 0 0 0 0 0 0 0 0 0 0 0 0 0 0 0 0 0 0 0 0 0 0 0 0 0 0 0 0 0 0 0 0 0 0 0 0 0 
0 0 0 0 0 0 0 0 0 0 0 0 0 0 0 0 0 0 0 0 0 0 0 0 0 0 0 3 10 5 8 12 13 12 9 16 21 25 30 53 56 41 35 65 151 163 107 88 119 122 116 110 103 86 66 58 58 64 94 121 132 137 145 129 132 170 160 71 37 48 51 30 26 28 23 18 16 17 18 15 9 4 0 0 0 0 0 0 0 0 0 0 0 0 0 0 0 0 0 0 0 0 0 0 0 0 0 0 0 0 0 0 0 0 0 0 0 0 0 0 0 0 0 0 0 0 0 0 
0 0 0 0 0 0 0 0 0 0 0 0 0 0 0 0 0 0 0 0 0 0 0 0 0 0 0 0 5 8 7 10 9 10 12 11 15 24 26 29 32 34 35 48 130 171 146 142 135 115 105 104 99 76 62 60 60 71 91 120 124 110 121 148 168 184 150 65 35 29 28 22 24 25 22 16 15 18 19 15 11 5 0 0 0 0 0 0 0 0 0 0 0 0 0 0 0 0 0 0 0 0 0 0 0 0 0 0 0 0 0 0 0 0 0 0 0 0 0 0 0 0 0 0 0 0 0 0 
0 0 0 0 0 0 0 0 0 0 0 0 0 0 0 0 0 0 0 0 0 0 0 0 0 0 0 0 0 9 3 8 9 9 11 12 13 19 29 29 33 33 37 46 85 150 163 153 139 104 92 93 82 66 61 59 59 67 72 94 100 99 115 153 173 171 94 46 28 25 26 21 23 24 19 17 14 19 17 14 12 4 0 0 0 0 0 0 0 0 0 0 0 0 0 0 0 0 0 0 0 0 0 0 0 0 0 0 0 0 0 0 0 0 0 0 0 0 0 0 0 0 0 0 0 0 0 0 
0 0 0 0 0 0 0 0 0 0 0 0 0 0 0 0 0 0 0 0 0 0 0 0 0 0 0 0 0 3 4 6 10 8 10 16 15 17 25 30 34 36 37 46 57 76 133 160 125 78 80 75 65 60 65 65 65 69 73 93 112 81 89 142 143 85 50 35 23 24 27 27 22 21 19 14 14 18 16 14 12 4 1 0 0 0 0 0 0 0 0 0 0 0 0 0 0 0 0 0 0 0 0 0 0 0 0 0 0 0 0 0 0 0 0 0 0 0 0 0 0 0 0 0 0 0 0 0 
