P2
128 99
202
0 0 0 0 0 0 0 0 0 0 0 0 0 0 0 0 0 0 0 0 0 0 0 0 0 0 0 0 0 0 0 0 0 0 0 0 0 0 0 0 1 2 1 1 0 0 0 0 0 0 0 0 0 0 0 0 0 0 0 0 0 0 0 0 0 0 0 0 0 0 0 0 0 0 0 0 0 0 0 0 0 0 0 1 2 1 1 0 0 0 0 0 0 0 0 0 0 0 0 0 0 0 0 0 0 0 0 0 0 0 0 0 0 0 0 0 0 0 0 0 0 0 0 0 0 0 0 0 
0 0 0 0 0 0 0 0 0 0 0 0 0 0 0 0 0 0 0 0 0 0 0 0 0 0 0 0 0 0 0 0 0 0 0 0 0 0 0 0 1 2 2 1 0 0 0 0 0 0 0 0 0 0 0 0 0 0 0 0 0 0 0 0 0 0 0 0 0 0 0 0 0 0 0 0 0 0 0 0 0 0 0 1 2 2 1 0 0 0 0 0 0 0 0 0 0 0 0 0 0 0 0 0 0 0 0 0 0 0 0 0 0 0 0 0 0 0 0 0 0 0 0 0 0 0 0 0 
0 0 0 0 0 0 0 0 0 0 0 0 0 0 0 0 0 0 0 0 0 0 0 0 0 0 0 0 0 0 0 0 0 0 0 0 0 0 0 0 2 2 2 1 0 0 0 0 0 0 0 1 1 2 1 0 0 0 0 0 0 0 0 0 0 0 0 0 0 0 0 0 0 0 0 0 0 0 0 0 0 0 0 1 2 2 1 0 0 0 0 0 0 0 0 0 0 0 0 0 0 0 0 0 0 0 0 0 0 0 0 0 0 0 0 0 0 0 0 0 0 0 0 0 0 0 0 0 
0 0 0 0 0 0 0 0 0 0 0 0 0 0 0 0 0 0 0 0 0 0 0 0 0 0 0 0 0 0 0 0 0 0 0 0 0 0 0 0 1 2 2 2 7 13 17 18 17 19 22 24 27 27 25 22 18 17 15 12 4 0 0 0 0 0 0 0 0 0 0 0 0 0 0 0 0 0 0 0 0 0 0 1 2 2 1 0 0 0 0 0 0 0 0 0 0 0 0 0 0 0 0 0 0 0 0 0 0 0 0 0 0 0 0 0 0 0 0 0 0 0 0 0 0 0 0 0 
0 0 0 0 0 0 0 0 0 0 0 0 0 0 0 0 0 0 0 0 0 0 0 0 0 0 0 0 0 0 0 0 0 0 0 0 0 0 0 0 8 16 22 22 23 32 52 76 97 116 131 141 146 147 144 135 120 99 77 53 32 23 18 10 2 0 0 0 0 0 0 0 0 0 0 0 0 0 0 0 0 0 0 0 2 2 1 0 0 0 0 0 0 0 0 0 0 0 0 0 0 0 0 0 0 0 0 0 0 0 0 0 0 0 0 0 0 0 0 0 0 0 0 0 0 0 0 0 
0 0 0 0 0 0 0 0 0 0 0 0 0 0 0 0 0 0 0 0 0 0 0 0 0 0 0 0 0 0 0 0 0 0 0 0 0 0 9 17 25 26 37 67 108 142 162 171 176 178 177 175 173 172 173 174 173 172 168 162 144 114 77 44 24 16 10 2 0 0 0 0 0 0 0 0 0 0 0 0 0 0 0 1 2 2 1 0 0 0 0 0 0 0 0 0 0 0 0 0 0 0 0 0 0 0 0 0 0 0 0 0 0 0 0 0 0 0 0 0 0 0 0 0 0 0 0 0 
0 0 0 0 0 0 0 0 0 0 0 0 0 0 0 0 0 0 0 0 0 0 0 0 0 0 0 0 0 0 0 0 0 0 0 0 9 21 23 25 55 102 144 169 178 180 178 180 184 188 191 193 194 195 196 195 192 187 182 176 173 169 165 149 117 74 39 19 14 2 0 0 0 0 0 0 0 0 0 0 0 0 0 1 2 2 0 0 0 0 0 0 0 0 0 0 0 0 0 0 0 0 0 0 0 0 0 0 0 0 0 0 0 0 0 0 0 0 0 0 0 0 0 0 0 0 0 0 
0 0 0 0 0 0 0 0 0 0 0 0 0 0 0 0 0 0 0 0 0 0 0 0 0 0 0 0 0 0 0 0 0 0 8 23 22 28 64 119 159 176 181 180 181 186 185 185 182 176 173 177 175 162 160 172 186 195 199 199 193 183 180 174 173 166 142 97 49 23 13 2 0 0 0 0 0 0 0 0 0 0 0 1 2 2 0 0 0 0 0 0 0 0 0 0 0 0 0 0 0 0 0 0 0 0 0 0 0 0 0 0 0 0 0 0 0 0 0 0 0 0 0 0 0 0 0 0 
0 0 0 0 0 0 0 0 0 0 0 0 0 0 0 0 0 0 0 0 0 0 0 0 0 0 0 0 0 0 0 0 4 26 27 26 58 122 161 175 178 179 185 189 190 183 168 149 140 140 145 147 145 137 137 142 150 169 185 191 190 193 195 190 182 178 175 172 149 98 43 23 10 0 0 0 0 0 0 0 0 0 0 1 2 2 0 0 0 0 0 0 0 0 0 0 0 0 0 0 0 0 0 0 0 0 0 0 0 0 0 0 0 0 0 0 0 0 0 0 0 0 0 0 0 0 0 0 
0 0 0 0 0 0 0 0 0 0 0 0 0 0 0 0 0 0 0 0 0 0 0 0 0 0 0 0 0 0 0 23 27 21 38 106 158 174 178 175 181 190 189 171 155 150 148 140 135 132 136 145 145 141 145 147 147 147 155 175 192 196 192 190 193 193 184 179 177 171 142 76 31 19 3 0 0 0 0 0 0 0 0 1 2 2 1 0 0 0 0 0 0 0 0 0 0 0 0 0 0 0 0 0 0 0 0 0 0 0 0 0 0 0 0 0 0 0 0 0 0 0 0 0 0 0 0 0 
0 0 0 0 0 0 0 0 0 0 0 0 0 0 0 0 0 0 0 0 0 0 0 0 0 0 0 0 0 9 29 22 27 78 147 172 179 178 181 189 194 183 165 161 153 145 137 130 129 136 137 144 144 143 147 152 146 142 142 147 163 180 193 198 195 189 190 194 186 179 175 165 116 44 23 6 0 0 0 0 0 0 0 1 2 2 1 0 0 0 0 0 0 0 0 0 0 0 0 0 0 0 0 0 0 0 0 0 0 0 0 0 0 0 0 0 0 0 0 0 0 0 0 0 0 0 0 0 
0 0 0 0 0 0 0 0 0 0 0 0 0 0 0 0 0 0 0 0 0 0 0 0 0 0 0 0 23 25 17 47 125 166 175 176 182 189 196 188 174 163 155 143 144 148 151 151 151 138 129 129 124 122 132 147 149 153 157 161 161 172 182 188 194 198 195 190 190 193 186 178 172 143 66 23 11 0 0 0 0 0 0 1 2 2 1 0 0 0 0 0 0 0 0 0 0 0 0 0 0 0 0 0 0 0 0 0 0 0 0 0 0 0 0 0 0 0 0 0 0 0 0 0 0 0 0 0 
0 0 0 0 0 0 0 0 0 0 0 0 0 0 0 0 0 0 0 0 0 0 0 0 0 0 5 26 20 17 74 151 171 176 177 187 196 194 182 168 157 155 161 167 160 158 154 148 147 137 126 121 122 125 131 131 131 134 142 146 150 156 171 182 190 195 196 198 195 187 188 191 180 172 153 82 24 13 0 0 0 0 0 1 2 2 1 0 0 0 0 0 0 0 0 0 0 0 0 0 0 0 0 0 0 0 0 0 0 0 0 0 0 0 0 0 0 0 0 0 0 0 0 0 0 0 0 0 
0 0 0 0 0 0 0 0 0 0 0 0 0 0 0 0 0 0 0 0 0 0 0 0 0 11 26 19 26 100 159 171 178 183 194 197 189 173 159 158 170 171 150 135 129 125 127 137 135 133 129 132 126 122 117 125 134 138 142 144 149 151 150 157 166 179 191 195 198 199 191 187 192 183 173 157 91 25 13 0 0 0 0 1 2 2 1 0 0 0 0 0 0 0 0 0 0 0 0 0 0 0 0 0 0 0 0 0 0 0 0 0 0 0 0 0 0 0 0 0 0 0 0 0 0 0 0 0 
0 0 0 0 0 0 0 0 0 0 0 0 0 0 0 0 0 0 0 0 0 0 0 0 14 22 16 36 114 160 171 178 187 200 193 180 164 160 169 171 156 134 133 138 136 137 135 122 117 114 101 96 93 108 116 117 125 133 136 131 132 142 148 147 149 155 162 175 186 191 197 195 188 193 184 173 161 101 29 13 0 0 0 1 2 2 1 0 0 0 0 0 0 0 0 0 0 0 0 0 0 0 0 0 0 0 0 0 0 0 0 0 0 0 0 0 0 0 0 0 0 0 0 0 0 0 0 0 
0 0 0 0 0 0 0 0 0 0 0 0 0 0 0 0 0 0 0 0 0 0 3 20 20 15 44 123 159 171 179 192 200 182 169 159 164 170 158 142 137 144 148 140 135 130 125 121 110 107 107 109 110 116 120 117 114 118 129 141 138 134 135 144 148 150 153 154 160 175 183 191 193 189 191 182 174 163 111 34 12 0 0 1 2 3 2 0 0 0 0 0 0 0 0 0 0 0 0 0 0 0 0 0 0 0 0 0 0 0 0 0 0 0 0 0 0 0 0 0 0 0 0 0 0 0 0 0 
0 0 0 0 0 0 0 0 0 0 0 0 0 0 0 0 0 0 0 0 0 5 17 16 17 55 131 159 172 180 196 196 171 163 156 163 161 147 141 147 152 147 136 129 123 118 115 107 108 109 115 121 121 118 118 117 115 115 116 117 124 128 130 133 143 144 142 148 151 156 167 174 184 192 188 192 185 176 161 119 37 8 0 2 2 2 1 0 0 0 0 0 0 0 0 0 0 0 0 0 0 0 0 0 0 0 0 0 0 0 0 0 0 0 0 0 0 0 0 0 0 0 0 0 0 0 0 0 
0 0 0 0 0 0 0 0 0 0 0 0 0 0 0 0 0 0 0 0 6 17 13 18 69 141 159 171 183 200 190 161 156 155 162 154 144 144 147 142 137 130 123 117 116 114 112 117 124 128 130 126 124 127 127 128 129 130 131 132 133 129 127 127 130 141 140 135 139 143 145 156 167 175 189 188 193 183 174 162 124 37 6 2 2 2 1 0 0 0 0 0 0 0 0 0 0 0 0 0 0 0 0 0 0 0 0 0 0 0 0 0 0 0 0 0 0 0 0 0 0 0 0 0 0 0 0 0 
0 0 0 0 0 0 0 0 0 0 0 0 0 0 0 0 0 0 0 5 16 12 20 77 145 159 171 183 198 186 156 150 148 155 146 146 152 146 132 126 122 121 123 122 125 125 125 124 126 128 128 112 110 121 118 119 121 122 119 123 126 131 134 134 129 126 135 145 139 136 132 137 156 157 169 185 186 193 181 175 161 116 28 5 3 2 1 0 0 0 0 0 0 0 0 0 0 0 0 0 0 0 0 0 0 0 0 0 0 0 0 0 0 0 0 0 0 0 0 0 0 0 0 0 0 0 0 0 
0 0 0 0 0 0 0 0 0 0 0 0 0 0 0 0 0 0 5 17 12 19 81 145 158 169 183 195 178 153 149 142 146 147 149 146 134 123 118 118 127 127 125 126 126 122 119 117 116 117 113 104 104 117 118 118 119 118 117 118 118 119 119 127 132 125 123 131 142 143 137 128 138 156 150 166 182 186 191 178 172 157 102 20 5 3 1 0 0 0 0 0 0 0 0 0 0 0 0 0 0 0 0 0 0 0 0 0 0 0 0 0 0 0 0 0 0 0 0 0 0 0 0 0 0 0 0 0 
0 0 0 0 0 0 0 0 0 0 0 0 0 0 0 0 0 2 15 13 19 77 140 156 162 180 193 179 153 149 139 140 146 150 141 122 114 114 114 122 123 126 127 125 121 118 118 115 111 99 101 107 111 115 118 120 124 124 123 124 123 119 116 114 119 127 128 122 123 137 145 135 126 142 156 143 160 177 188 187 176 169 148 79 13 3 1 0 0 0 0 0 0 0 0 0 0 0 0 0 0 0 0 0 0 0 0 0 0 0 0 0 0 0 0 0 0 0 0 0 0 0 0 0 0 0 0 0 
0 0 0 0 0 0 0 0 0 0 0 0 0 0 0 0 0 11 13 15 70 136 151 160 179 189 178 153 147 137 141 151 150 139 117 111 108 108 123 133 131 131 128 124 118 112 108 106 102 93 100 110 109 103 100 102 108 110 113 117 121 118 115 114 111 115 128 126 116 119 132 139 122 118 144 154 138 159 177 192 182 177 162 133 53 7 1 0 0 0 0 0 0 0 0 0 0 0 0 0 0 0 0 0 0 0 0 0 0 0 0 0 0 0 0 0 0 0 0 0 0 0 0 0 0 0 0 0 
0 0 0 0 0 0 0 0 0 0 0 0 0 0 0 0 5 13 13 55 129 143 157 174 187 178 154 144 132 138 153 141 132 117 110 108 108 127 136 138 133 124 117 111 108 106 105 103 96 96 100 102 99 103 100 97 93 92 91 101 109 112 116 116 116 116 117 129 118 110 120 133 132 116 116 148 147 133 156 184 189 179 172 153 112 29 3 0 0 0 0 0 0 0 0 0 0 0 0 0 0 0 0 0 0 0 0 0 0 0 0 0 0 0 0 0 0 0 0 0 0 0 0 0 0 0 0 0 
0 0 0 0 0 0 0 0 0 0 0 0 0 0 0 2 12 13 43 118 140 152 166 185 177 157 138 128 137 154 135 122 116 113 110 108 127 138 134 130 112 91 82 80 84 85 86 89 96 105 112 100 96 108 105 100 99 96 93 90 89 92 100 109 116 120 120 120 126 112 104 116 130 132 115 123 154 138 135 159 191 180 176 163 140 79 9 0 0 0 0 0 0 0 0 0 0 0 0 0 0 0 0 0 0 0 0 0 0 1 0 0 0 0 0 0 0 0 0 0 0 0 0 0 0 0 0 0 
0 0 0 0 0 0 0 0 0 0 0 0 0 0 0 7 12 26 96 134 144 159 180 176 158 142 130 128 155 142 121 112 113 109 107 119 132 132 126 109 85 75 73 73 74 77 82 88 98 105 114 104 94 106 98 95 94 90 90 90 82 78 84 98 112 118 121 121 124 119 100 101 116 132 127 116 141 149 132 136 172 180 176 168 153 117 32 1 0 0 0 0 0 0 0 0 0 0 0 0 0 0 0 0 0 0 0 0 0 1 0 0 0 0 0 0 0 0 0 0 0 0 0 0 0 0 0 0 
0 0 0 0 0 0 0 0 0 0 0 0 0 0 3 8 14 70 125 137 154 170 174 159 149 126 121 146 149 126 113 113 111 108 115 129 129 118 103 86 77 74 74 76 78 82 86 86 87 93 107 100 88 91 88 90 90 90 92 91 86 81 75 77 90 111 119 121 123 123 110 101 106 123 132 124 125 144 134 127 150 176 173 174 161 136 68 5 0 0 0 0 0 0 0 0 0 0 0 0 0 0 0 0 0 0 0 0 0 0 0 0 0 0 0 0 0 0 0 0 0 0 0 0 0 0 0 0 
0 0 0 0 0 0 0 0 0 0 0 0 0 0 7 9 40 105 131 140 163 173 157 153 133 116 129 160 135 117 116 114 108 107 126 125 112 100 91 80 77 76 77 82 87 87 86 82 79 84 93 93 85 82 74 74 82 87 88 89 91 90 83 75 75 90 111 116 120 127 121 106 103 105 124 135 127 138 135 123 127 161 169 176 165 148 102 17 1 0 0 0 0 0 0 0 0 0 0 0 0 0 0 0 0 0 0 0 0 0 0 0 0 0 0 0 0 0 0 0 0 0 0 0 0 0 0 0 
0 0 0 0 0 0 0 0 0 0 0 0 0 1 7 16 79 118 134 152 168 157 156 145 113 118 149 146 118 121 111 105 106 120 129 105 95 93 85 79 78 83 89 90 89 90 87 82 83 80 80 86 90 82 84 77 73 86 89 89 91 91 90 88 82 84 102 114 118 127 129 113 103 102 115 130 126 134 135 118 118 149 165 173 169 153 119 37 2 0 0 0 0 0 0 0 0 0 0 0 0 0 0 0 0 0 0 0 0 0 0 0 0 0 0 0 0 0 0 0 0 0 0 0 0 0 0 0 
0 0 0 0 0 0 0 0 0 0 0 0 0 2 7 36 103 127 138 161 163 152 149 131 111 129 151 127 119 115 104 105 117 132 110 89 93 90 84 81 87 94 94 94 93 97 94 89 85 82 82 86 98 87 83 82 85 87 84 93 94 92 89 90 89 87 93 108 118 123 129 126 115 101 106 126 131 127 138 120 114 145 160 170 169 157 130 57 3 0 0 0 0 0 0 0 0 0 0 0 0 0 0 0 0 0 0 0 0 0 0 0 0 0 0 0 0 0 0 0 0 0 0 0 0 0 0 0 
0 0 0 0 0 0 0 0 0 0 0 0 0 4 10 63 115 132 143 166 152 149 140 117 120 137 134 114 116 107 103 117 134 120 86 90 93 88 85 92 97 96 91 93 98 99 97 92 91 91 93 98 110 97 96 101 99 94 87 86 90 94 89 88 89 91 93 99 114 119 125 132 129 107 101 119 133 112 135 122 112 137 153 166 167 157 139 77 6 0 0 0 0 0 0 0 0 0 0 0 0 0 0 0 0 0 0 0 0 1 0 0 0 0 0 0 0 0 0 0 0 0 0 0 0 0 0 0 
0 0 0 0 0 0 0 0 0 0 0 0 0 6 18 85 123 133 153 161 138 140 131 114 131 126 121 111 112 103 112 137 135 102 85 91 91 91 97 100 98 86 82 86 95 99 100 110 115 114 111 116 124 116 120 123 118 115 113 102 93 91 93 96 90 89 93 101 107 114 119 125 134 124 105 112 129 113 126 121 112 129 145 165 168 163 144 94 11 0 0 0 0 0 0 0 0 0 0 0 0 0 0 0 0 0 0 0 0 1 0 0 0 0 0 0 0 0 0 0 0 0 0 0 0 0 0 0 
0 0 0 0 0 0 0 0 0 0 0 0 1 6 34 106 128 140 158 144 125 131 123 120 129 116 119 109 111 108 131 141 117 89 85 93 93 101 102 97 83 82 84 90 102 113 127 137 140 132 125 128 134 129 130 128 126 126 133 132 118 108 99 95 99 91 93 107 109 102 110 116 127 133 119 109 123 118 116 115 115 125 142 163 168 162 146 107 14 0 0 0 0 0 0 0 0 0 0 0 0 0 0 0 0 0 0 0 0 1 0 0 0 0 0 0 0 0 0 0 0 0 0 0 0 0 0 0 
0 0 0 0 0 0 0 0 0 0 0 0 2 7 49 115 134 144 157 132 125 121 129 127 117 114 112 105 111 110 139 126 95 83 91 109 107 104 94 80 82 86 92 103 116 126 134 133 128 117 108 116 115 103 103 102 101 103 113 127 130 123 112 102 100 108 110 111 108 102 103 109 115 127 130 117 117 116 114 103 111 122 135 162 170 164 150 120 24 0 0 0 0 0 0 0 0 0 0 0 0 0 0 0 0 0 0 0 0 1 0 0 0 0 0 0 0 0 0 0 0 0 0 0 0 0 0 0 
0 0 0 0 0 0 0 0 0 0 0 0 2 7 60 119 136 145 151 125 127 119 135 126 108 111 108 107 112 114 136 106 80 86 105 124 115 100 87 83 86 92 102 114 122 125 121 118 106 96 97 112 98 91 92 89 87 88 88 106 126 132 123 114 118 126 123 110 102 102 104 106 108 118 130 124 113 112 115 101 112 132 143 163 175 166 154 130 36 2 0 0 0 0 0 0 0 0 0 0 0 0 0 0 0 0 0 0 0 1 0 0 0 0 0 0 0 0 0 0 0 0 0 0 0 0 0 0 
0 0 0 0 0 0 0 0 0 0 0 0 3 9 69 123 138 148 150 128 131 120 137 126 109 107 104 106 112 116 122 90 80 99 118 130 117 98 95 86 89 94 102 118 123 121 112 100 90 83 86 100 95 84 82 83 84 85 85 89 113 138 138 130 122 116 115 111 104 101 105 114 110 114 123 129 106 111 119 95 109 138 144 160 175 168 159 139 48 2 0 0 0 0 0 0 0 0 0 0 0 0 0 0 0 0 0 0 0 0 0 0 0 0 0 0 0 0 0 0 0 0 0 0 0 0 0 0 
0 0 0 0 0 0 0 0 0 0 0 0 3 11 76 128 142 152 149 132 133 122 137 123 108 103 105 106 112 113 106 82 89 113 123 126 124 113 110 109 103 101 111 126 130 121 107 94 81 81 82 85 99 86 81 82 83 84 85 84 103 138 141 126 110 116 122 117 104 97 99 112 123 118 113 123 114 114 116 94 114 142 145 157 178 168 159 145 59 3 0 0 0 0 0 0 0 0 0 0 0 0 0 0 0 0 0 0 0 0 0 0 0 0 0 0 0 0 0 0 0 0 0 0 0 0 0 0 
0 0 0 0 0 0 0 0 0 0 0 0 4 13 80 131 143 161 147 135 137 128 136 120 112 101 109 107 108 105 99 89 106 116 124 125 113 104 107 113 115 116 126 136 136 129 110 89 82 83 84 82 95 87 82 84 84 84 86 85 110 136 130 119 108 109 110 100 85 75 79 95 123 138 122 110 123 124 113 103 117 141 139 148 178 173 162 147 71 5 0 0 0 0 0 0 0 0 0 0 0 0 0 0 0 0 0 0 0 0 0 0 0 0 0 0 0 0 0 0 0 0 0 0 0 0 0 0 
0 0 0 0 0 0 0 0 0 0 0 0 5 13 83 133 146 167 141 134 138 132 138 126 115 100 116 103 107 101 99 99 108 118 114 98 91 88 88 91 93 91 92 103 121 132 123 105 86 85 81 78 95 90 83 86 86 86 85 93 128 128 108 94 95 103 111 105 91 80 77 83 109 132 139 119 126 136 114 109 121 141 131 142 173 175 165 152 82 6 0 0 0 0 0 0 0 0 0 0 0 0 0 0 0 0 0 0 0 0 0 0 0 0 0 0 0 0 0 0 0 0 0 0 0 0 0 0 
0 0 0 0 0 0 0 0 0 0 0 0 7 15 88 137 152 165 142 135 140 134 137 134 120 107 116 103 101 99 109 101 115 106 103 103 98 94 95 99 98 92 84 83 92 105 118 123 100 91 94 86 92 93 88 93 88 88 94 121 120 93 88 87 90 101 108 107 98 85 79 83 100 118 139 140 130 138 128 119 124 132 126 139 162 169 167 154 95 9 0 0 0 0 0 0 0 0 0 0 0 0 0 0 0 0 0 0 0 0 0 0 0 0 0 0 0 0 0 0 0 0 0 0 0 0 0 0 
0 0 0 0 0 0 0 0 0 0 0 0 8 15 92 139 149 164 138 133 139 132 130 134 123 113 115 119 97 106 118 117 102 99 109 103 96 97 97 96 97 95 89 87 86 92 103 112 117 106 98 97 97 104 105 108 97 98 108 113 97 84 81 78 87 96 104 105 96 85 82 87 103 120 129 145 134 135 142 126 120 126 124 134 157 161 168 157 108 15 0 0 0 0 0 0 0 0 0 0 0 0 0 0 0 0 0 0 0 0 0 0 0 0 0 0 0 0 0 0 0 0 0 0 0 0 0 0 
0 0 0 0 0 0 0 0 0 0 0 0 8 13 93 139 154 163 132 130 136 130 127 129 118 119 118 128 116 112 124 118 96 105 107 95 87 87 91 92 94 90 85 84 87 84 93 97 113 107 106 104 114 117 126 111 103 101 111 108 91 78 73 85 99 109 118 119 108 96 87 86 104 129 134 126 126 129 150 132 118 121 118 127 149 159 169 156 117 23 0 0 0 0 0 0 0 0 0 0 0 0 0 0 0 0 0 0 0 0 0 0 0 0 0 0 0 0 0 0 0 0 0 0 0 0 0 0 
0 0 0 0 0 0 0 0 0 0 0 0 8 15 97 141 156 167 125 129 131 128 124 125 117 120 123 124 120 122 129 112 104 110 106 94 91 95 96 103 103 98 89 82 82 88 90 94 105 117 115 117 133 125 136 111 109 115 113 104 85 74 85 101 105 107 115 119 107 96 88 86 102 124 128 116 111 130 150 135 116 117 114 118 137 153 167 156 124 33 1 0 0 0 0 0 0 0 0 0 0 0 0 0 0 0 0 0 0 0 0 0 0 0 0 0 0 0 0 0 0 0 0 0 0 0 0 0 
0 0 0 0 0 0 0 0 0 0 0 0 8 17 96 139 159 168 127 131 126 125 123 119 115 113 116 114 120 120 127 111 109 113 109 100 101 101 102 103 105 108 100 87 84 86 94 97 104 123 118 124 125 116 124 119 110 116 113 98 82 88 91 91 95 101 107 114 104 94 88 81 95 122 129 111 107 131 148 136 119 112 105 113 127 146 163 155 127 42 1 0 0 0 0 0 0 0 0 0 0 0 0 0 0 0 0 0 0 0 0 0 0 0 0 0 0 0 0 0 0 0 0 0 0 0 0 0 
0 0 0 0 0 0 0 0 0 0 0 0 8 18 98 143 164 163 123 122 124 120 117 111 108 109 120 118 116 110 112 96 100 109 101 94 95 97 103 93 90 90 92 98 94 89 94 106 110 127 118 112 108 113 104 113 114 118 111 92 94 90 89 93 97 99 99 102 98 90 83 82 93 116 124 103 109 139 148 137 115 106 102 108 120 134 160 154 130 49 2 0 0 0 0 0 0 0 0 0 0 0 0 0 0 0 0 0 0 0 0 0 0 0 0 0 0 0 0 0 0 0 0 0 0 0 0 0 
0 0 0 0 0 0 0 0 0 0 0 0 8 17 98 145 165 158 110 115 118 112 107 103 103 102 120 132 116 99 102 96 97 106 100 97 95 98 99 88 84 86 86 91 98 102 96 97 107 123 124 117 110 118 114 117 108 115 115 99 91 90 92 90 90 91 95 94 92 87 84 81 94 115 116 99 115 140 147 140 120 103 98 105 109 125 143 150 135 55 2 0 0 0 0 0 0 0 0 0 0 0 0 0 0 0 0 0 0 0 0 0 0 0 0 0 0 0 0 0 0 0 0 0 0 0 0 0 
0 0 0 0 0 0 0 0 0 0 0 0 8 17 96 146 163 150 110 111 111 101 100 99 104 98 114 139 121 103 102 95 96 104 102 97 94 99 93 84 88 90 87 91 90 91 102 107 110 128 133 136 129 104 102 93 112 108 105 95 96 93 89 83 86 92 94 93 89 84 80 82 95 116 113 98 120 137 139 143 128 101 99 108 105 121 129 144 136 59 3 0 0 0 0 0 0 0 0 0 0 0 0 0 0 0 0 0 0 0 0 0 0 0 0 0 0 0 0 0 0 0 0 0 0 0 0 0 
0 0 0 0 0 0 0 0 0 0 0 0 7 16 93 145 162 140 112 106 100 94 96 101 109 84 110 137 117 101 103 99 95 105 104 97 93 99 95 88 88 91 93 93 88 91 105 109 99 118 130 136 115 102 98 85 100 124 93 96 98 95 88 89 93 95 97 91 85 81 80 81 99 114 107 100 129 140 144 143 129 98 98 107 104 123 128 142 136 60 3 0 0 0 0 0 0 0 0 0 0 0 0 0 0 0 0 0 0 0 0 0 0 0 0 0 0 0 0 0 0 0 0 0 0 0 0 0 
0 0 0 0 0 0 0 0 0 0 0 0 8 15 89 144 161 128 112 109 104 96 92 104 114 88 106 137 117 99 101 106 95 107 106 98 93 99 97 88 90 88 85 86 85 89 100 104 102 112 124 120 105 98 100 88 89 130 90 98 98 93 86 94 95 99 99 92 86 81 78 80 105 113 100 107 144 149 138 142 129 96 98 103 104 120 128 145 130 58 3 0 0 0 0 0 0 0 0 0 0 0 0 0 0 0 0 0 0 0 0 0 0 0 0 0 0 0 0 0 0 0 0 0 0 0 0 0 
0 0 0 0 0 0 0 0 0 0 0 0 5 14 81 141 160 120 109 105 100 96 89 102 111 86 101 134 115 100 98 106 90 104 107 97 99 103 99 91 91 96 85 82 88 90 101 101 104 119 118 101 98 100 98 89 88 121 102 93 90 85 84 95 96 99 99 93 86 79 77 81 106 108 96 114 148 137 124 147 128 94 101 95 104 114 126 144 126 53 2 0 0 0 0 0 0 0 0 0 0 0 0 0 0 0 0 0 0 0 0 0 0 0 0 0 0 0 0 0 0 0 0 0 0 0 0 0 
0 0 0 0 0 0 0 0 0 0 0 0 5 15 76 136 158 124 112 106 100 97 91 99 111 90 97 132 119 104 101 96 86 96 102 98 100 101 99 96 94 96 87 80 82 84 90 95 113 113 112 96 98 102 103 88 83 91 113 88 87 82 81 90 97 100 98 93 84 79 79 84 101 106 94 115 143 127 111 150 129 93 102 92 106 109 130 143 122 46 2 0 0 0 0 0 0 0 0 0 0 0 0 0 0 0 0 0 0 0 0 0 0 0 0 0 0 0 0 0 0 0 0 0 0 0 0 0 
0 0 0 0 0 0 0 0 0 0 0 0 3 15 67 131 154 131 113 107 101 95 94 96 113 95 95 128 123 115 106 96 84 92 102 100 94 94 98 105 100 94 85 81 79 86 87 97 117 107 98 89 92 104 106 90 83 82 109 97 94 90 83 89 94 96 98 93 83 79 78 88 102 102 90 113 136 121 101 141 126 93 102 89 107 107 130 139 115 41 2 0 0 0 0 0 0 0 0 0 0 0 0 0 0 0 0 0 0 0 0 0 0 0 0 0 0 0 0 0 0 0 0 0 0 0 0 0 
0 0 0 0 0 0 0 0 0 7 5 0 0 12 58 125 149 134 110 105 102 95 96 88 112 101 93 124 127 123 114 93 86 92 103 101 91 87 94 99 98 93 89 82 86 100 98 109 111 104 89 83 88 99 103 94 84 81 101 104 110 101 96 100 97 104 106 95 79 77 80 91 98 94 89 119 135 118 113 140 123 95 93 90 104 109 134 133 104 33 1 0 0 0 0 0 0 0 0 0 0 0 0 0 0 0 0 0 0 0 0 0 0 0 0 0 0 0 0 0 0 0 0 0 0 0 0 0 
0 0 0 0 0 0 0 0 0 0 7 3 0 9 48 120 147 137 108 102 102 93 98 83 105 105 103 122 129 117 102 98 91 88 100 100 92 85 87 94 101 97 99 94 93 92 104 102 101 101 79 80 85 98 99 97 91 81 93 124 121 104 100 98 95 100 103 95 84 79 78 91 97 88 94 128 129 106 119 137 118 99 84 102 97 112 134 125 95 28 1 0 0 0 0 0 0 0 0 0 0 0 0 0 0 0 0 0 0 0 0 0 0 0 0 0 0 0 0 0 0 0 0 0 0 0 0 0 
0 0 0 0 0 0 0 0 0 0 3 8 2 7 39 111 139 137 102 98 100 96 101 81 93 107 111 119 123 116 94 93 97 98 103 95 88 85 88 95 103 107 101 94 101 115 116 106 103 91 74 79 85 100 93 84 92 91 106 126 124 108 92 93 102 112 111 92 81 82 81 88 98 101 113 130 116 100 132 133 124 111 86 109 90 116 138 119 84 22 1 0 0 0 0 0 0 0 0 0 0 0 0 0 0 0 0 0 0 0 0 0 0 0 0 0 0 0 0 0 0 0 0 0 0 0 0 0 
0 0 0 0 0 0 0 0 0 0 4 9 2 6 30 97 133 141 103 97 98 100 98 91 83 107 123 116 116 117 101 94 103 116 113 102 92 92 97 105 96 101 100 107 102 94 106 117 115 85 70 73 82 101 87 79 83 82 84 120 132 100 91 94 107 122 137 123 116 116 126 126 132 136 141 131 98 98 141 128 133 122 98 102 102 127 138 114 78 15 1 0 0 9 6 0 0 0 0 0 0 0 0 0 0 0 0 0 0 0 0 0 0 0 0 0 0 0 0 0 0 0 0 0 0 0 0 0 
0 0 0 0 0 0 0 0 0 0 5 10 7 6 22 89 129 144 113 99 98 100 92 98 79 99 127 115 108 115 108 106 119 136 136 120 106 103 105 106 108 108 95 96 104 102 107 112 101 83 72 75 79 99 84 74 77 81 89 122 118 97 93 97 105 117 135 128 122 133 154 161 159 157 154 133 114 114 138 126 141 118 109 107 108 137 128 108 71 10 2 2 6 0 0 0 0 0 0 0 0 0 0 0 0 0 0 0 0 0 0 0 0 0 0 0 0 0 0 0 0 0 0 0 0 0 0 0 
0 0 0 0 0 0 0 0 0 0 2 9 10 8 17 80 120 142 130 103 98 98 92 96 91 97 128 119 113 119 113 112 105 107 128 136 122 122 115 111 109 109 106 108 92 101 110 102 101 90 78 83 86 99 81 77 75 87 108 131 114 113 105 104 105 116 133 132 137 152 144 149 155 152 154 124 116 139 138 130 138 123 121 122 148 138 115 103 66 7 1 0 3 2 0 0 0 0 0 0 0 0 0 0 0 0 0 0 0 0 0 0 0 0 0 0 0 0 0 0 0 0 0 0 0 0 0 0 
0 0 0 0 0 0 0 0 0 0 1 7 13 11 13 68 112 137 144 109 96 97 104 98 110 97 131 125 116 119 130 135 132 118 120 136 136 124 111 101 94 100 92 95 91 92 111 105 101 95 81 79 84 95 89 72 78 90 104 117 112 119 105 108 118 123 132 134 154 154 140 151 155 157 148 136 143 162 160 158 142 147 143 145 163 129 104 103 54 6 0 1 3 2 0 0 0 0 0 0 0 0 0 0 0 0 0 0 0 0 0 0 0 0 0 0 0 0 0 0 0 0 0 0 0 0 0 0 
0 0 0 0 0 0 0 0 0 0 0 5 15 11 14 53 105 136 149 122 103 102 126 108 121 112 123 136 118 103 136 157 153 138 138 149 144 144 134 113 99 92 94 96 94 86 104 108 98 85 83 83 78 99 84 88 91 97 110 104 107 113 108 106 117 128 138 138 158 159 152 154 147 144 121 129 144 151 149 149 156 169 160 169 176 115 104 95 34 7 4 4 1 1 0 0 0 0 0 0 0 0 0 0 0 0 0 0 0 0 0 0 0 0 0 0 0 0 0 0 0 0 0 0 0 0 0 0 
0 0 0 0 0 0 0 0 0 0 0 5 18 9 9 38 101 133 146 139 127 135 138 129 135 136 132 138 125 117 151 180 174 167 160 150 145 155 139 112 107 101 96 94 98 88 112 114 91 89 101 92 93 119 105 92 94 102 116 107 107 105 96 109 129 131 124 127 143 154 153 135 133 126 118 139 149 153 168 162 156 170 169 176 158 107 105 80 17 8 7 1 1 0 0 0 0 0 0 0 0 0 0 0 0 0 0 0 0 0 0 0 0 0 0 0 0 0 0 0 0 0 0 0 0 0 0 0 
0 0 0 0 0 0 0 0 0 0 0 4 13 11 7 11 60 118 129 138 146 160 159 150 149 145 143 136 128 126 155 177 182 170 154 149 135 135 132 118 114 111 111 95 98 96 112 116 111 105 113 113 116 123 124 102 91 99 105 113 103 98 102 108 119 120 123 129 128 131 130 123 122 124 132 153 156 138 140 157 164 172 164 171 143 106 97 82 20 7 9 1 1 0 0 0 0 0 0 0 0 0 0 0 0 0 0 0 0 0 0 0 0 0 0 0 0 0 0 0 0 0 0 0 0 0 0 0 
0 0 0 0 0 0 0 0 0 0 0 8 8 10 7 9 38 106 134 143 151 165 163 158 159 161 167 146 108 116 141 150 170 172 170 146 132 132 130 108 95 97 99 109 103 97 114 113 105 106 104 108 113 121 125 107 87 83 97 88 90 86 84 87 92 103 124 126 129 121 122 122 118 128 142 158 145 138 130 145 140 161 150 136 106 102 108 63 12 7 9 2 1 0 0 0 0 0 0 0 0 0 0 0 0 0 0 0 0 0 0 0 0 0 0 0 0 0 0 0 0 0 0 0 0 0 0 0 
0 0 0 0 0 0 0 0 0 0 0 9 7 12 9 12 24 87 130 126 150 151 154 131 148 160 157 147 139 115 125 141 149 163 176 159 144 141 135 124 102 90 99 104 99 93 103 102 90 90 88 89 86 102 113 99 76 74 91 78 91 104 99 81 87 90 119 133 126 126 143 132 120 125 150 151 147 148 140 135 128 145 121 99 104 111 99 37 8 5 9 6 1 1 0 0 0 0 0 0 0 0 0 0 0 0 0 0 0 0 0 0 0 0 0 0 0 0 0 0 0 0 0 0 0 0 0 0 
0 0 0 0 0 0 0 0 0 0 0 5 10 12 11 16 19 61 122 123 140 143 153 149 137 151 152 152 137 130 117 135 146 147 152 158 152 151 140 128 95 76 84 90 94 92 100 100 86 87 95 85 69 78 99 104 82 88 97 85 99 115 118 110 100 91 105 108 106 115 123 114 105 129 136 144 147 154 147 120 118 121 116 98 108 110 77 21 6 3 6 4 5 1 0 0 0 0 0 0 0 0 0 0 0 0 0 0 0 0 0 0 0 0 0 0 0 0 0 0 0 0 0 0 0 0 0 0 
0 0 0 0 0 0 0 0 0 0 0 3 7 8 7 16 16 33 106 121 123 150 145 149 147 149 141 122 114 138 137 121 121 117 125 144 151 151 146 112 82 78 83 96 103 106 117 98 104 105 99 94 79 83 117 117 105 103 94 91 104 120 113 140 137 109 88 83 101 110 94 102 118 133 134 150 159 161 166 135 123 120 102 95 110 107 43 14 5 4 4 4 7 2 0 0 0 0 0 0 0 0 0 0 0 0 0 0 0 0 0 0 0 0 0 0 0 0 0 0 0 0 0 0 0 0 0 0 
0 0 0 0 0 0 0 0 0 0 1 3 5 4 3 12 17 17 79 106 107 135 150 147 135 143 123 115 115 142 137 121 95 100 117 123 138 138 132 112 82 85 94 110 110 114 132 128 124 114 119 119 110 114 140 139 119 100 99 109 120 130 134 129 131 111 91 88 92 88 101 132 125 128 127 142 156 153 172 170 135 107 96 94 109 88 21 12 5 5 3 1 4 2 0 0 0 0 0 0 0 0 0 0 0 0 0 0 0 0 0 0 0 0 0 0 0 0 0 0 0 0 0 0 0 0 0 0 
0 0 0 0 0 0 0 0 0 0 0 3 2 2 0 3 13 16 51 103 120 121 149 153 155 147 117 125 143 144 137 123 100 89 103 120 126 109 102 102 96 101 114 131 133 139 133 117 119 118 133 151 159 153 158 137 129 137 130 129 142 145 142 124 128 116 98 84 79 107 127 112 116 120 118 130 147 165 180 174 143 107 93 93 110 59 13 13 4 5 3 0 3 2 0 0 0 0 0 0 0 0 0 0 0 0 0 0 0 0 0 0 0 0 0 0 0 0 0 0 0 0 0 0 0 0 0 0 
0 0 0 0 0 0 0 0 0 0 0 3 2 0 0 4 10 15 30 97 121 97 126 136 161 144 134 134 150 149 145 130 115 106 100 114 117 101 91 100 100 118 123 119 132 141 137 117 128 133 144 154 167 167 163 150 143 152 141 124 131 155 155 143 138 135 122 105 113 129 112 104 123 119 111 127 144 176 175 154 141 108 90 102 95 33 13 12 5 4 4 0 3 2 0 0 0 0 0 0 0 0 0 0 0 0 0 0 0 0 0 0 0 0 0 0 0 0 0 0 0 0 0 0 0 0 0 0 
0 0 0 0 0 0 0 0 0 0 0 1 3 0 0 5 11 11 19 67 106 94 108 126 144 145 140 144 138 139 148 131 112 112 109 116 120 110 105 108 127 131 121 124 145 150 143 144 161 152 146 140 131 129 138 142 128 131 135 132 130 145 158 158 144 141 142 125 129 109 94 104 119 113 96 150 165 166 154 140 127 115 101 99 77 22 13 13 5 1 2 1 3 3 0 0 0 0 0 0 0 0 0 0 0 0 0 0 0 0 0 0 0 0 0 0 0 0 0 0 0 0 0 0 0 0 0 0 
0 0 0 0 0 0 0 0 0 0 0 1 3 1 0 7 11 12 13 43 85 92 105 119 120 144 136 150 150 134 142 133 112 110 108 107 108 118 130 132 149 160 150 147 164 155 152 171 177 165 131 132 125 122 131 145 144 145 142 148 147 163 178 166 149 142 140 139 133 110 103 98 96 106 119 158 170 157 138 115 111 106 92 84 63 18 13 13 6 0 0 1 3 3 0 0 0 0 0 0 0 0 0 0 0 0 0 0 0 0 0 0 0 0 0 0 0 0 0 0 0 0 0 0 0 0 0 0 
0 0 0 0 0 0 0 0 0 0 1 6 13 10 3 7 10 11 11 30 73 91 106 108 100 114 139 143 152 131 144 131 123 108 100 104 109 105 104 107 126 151 164 164 163 155 155 164 164 158 134 137 142 142 137 138 142 142 129 123 122 160 171 165 140 125 128 139 131 103 81 80 95 122 132 161 164 156 120 96 86 98 74 79 59 16 11 8 9 0 0 1 3 2 0 0 0 0 0 0 0 0 0 0 0 0 0 0 0 0 0 0 0 0 0 0 0 0 0 0 0 0 0 0 0 0 0 0 
0 0 0 0 0 0 0 0 0 0 0 4 12 13 13 8 8 11 11 20 62 78 99 123 121 113 123 141 162 149 144 132 137 104 81 86 94 110 116 114 120 144 166 170 161 148 146 137 143 160 158 158 166 164 156 125 133 142 126 107 116 150 144 136 137 129 131 141 130 92 82 98 108 117 140 170 170 154 128 78 72 92 93 86 44 16 8 5 6 2 0 1 3 1 0 0 0 0 0 0 0 0 0 0 0 0 0 0 0 0 0 0 0 0 0 0 0 0 0 0 0 0 0 0 0 0 0 0 
0 0 0 0 0 0 0 0 0 0 0 3 10 12 10 6 6 10 16 17 33 77 107 117 95 99 125 141 170 165 141 119 124 115 92 87 86 94 99 103 109 151 171 175 173 163 144 125 129 148 162 164 159 158 138 121 120 131 131 111 130 145 129 143 154 144 132 150 137 117 104 100 103 126 145 165 161 139 117 71 82 95 73 69 21 16 9 9 5 8 4 2 6 1 0 0 0 0 0 0 0 0 0 0 0 0 0 0 0 0 0 0 0 0 0 0 0 0 0 0 0 0 0 0 0 0 0 0 
0 0 0 0 0 0 0 0 0 0 0 2 11 11 8 9 8 10 15 15 16 47 104 107 104 93 109 140 166 157 142 132 118 126 104 97 94 90 91 91 121 148 160 162 161 165 158 125 109 123 152 148 136 153 149 124 113 112 116 112 140 155 135 137 157 160 157 175 161 149 128 133 141 140 137 151 122 78 82 60 61 77 78 35 14 11 11 9 4 5 12 11 13 7 4 0 0 0 0 0 0 0 0 0 0 0 0 0 0 0 0 0 0 0 0 0 0 0 0 0 0 0 0 0 0 0 0 0 
0 0 0 0 0 0 0 0 0 0 0 0 10 11 6 7 5 4 9 13 19 29 63 106 103 84 100 138 157 154 149 135 117 145 118 92 93 103 112 156 136 156 166 167 179 179 177 160 157 149 147 139 138 151 151 139 136 145 150 140 149 146 164 183 185 162 164 173 154 163 144 129 127 126 101 85 78 68 70 58 90 90 49 13 14 5 5 7 7 4 4 6 8 5 0 0 0 0 0 0 0 0 0 0 0 0 0 0 0 0 0 0 0 0 0 0 0 0 0 0 0 0 0 0 0 0 0 0 
0 0 0 0 0 0 0 0 0 0 0 0 3 8 5 3 2 3 6 8 15 22 38 82 89 77 96 112 112 133 136 145 128 138 132 113 109 112 126 157 156 178 184 180 197 196 167 187 187 166 148 150 147 151 154 125 128 157 163 160 172 185 199 197 202 199 157 183 170 113 131 131 94 73 50 66 66 85 79 68 64 41 24 19 18 4 3 4 3 3 6 6 7 0 0 0 0 0 0 0 0 0 0 0 0 0 0 0 0 0 0 0 0 0 0 0 0 0 0 0 0 0 0 0 0 0 0 0 
0 0 0 0 0 0 0 0 0 0 0 0 0 2 3 2 1 1 0 3 5 18 28 50 83 99 79 55 71 66 96 105 127 136 120 104 98 125 148 155 143 138 183 189 186 190 182 191 186 186 151 147 155 155 150 143 149 166 170 168 149 193 188 158 170 156 105 155 162 152 143 127 106 83 66 75 79 84 65 46 34 33 34 30 22 2 3 3 1 2 4 10 7 0 0 0 0 0 0 0 0 0 0 0 0 0 0 0 0 0 0 0 0 0 0 0 0 0 0 0 0 0 0 0 0 0 0 0 
0 0 0 0 0 0 0 0 0 0 0 0 0 1 5 5 4 2 2 3 8 12 17 23 34 47 31 38 73 51 70 77 91 84 89 87 84 79 78 77 85 94 120 122 133 120 150 125 129 98 72 97 120 117 109 101 90 84 102 99 91 107 106 161 181 151 104 105 71 76 66 60 51 37 65 79 73 85 49 32 27 24 17 9 3 2 5 8 6 3 3 7 4 0 0 0 0 0 0 0 0 0 0 0 0 0 0 0 0 0 0 0 0 0 0 0 0 0 0 0 0 0 0 0 0 0 0 0 
0 0 0 0 0 0 0 0 0 0 0 0 0 0 2 1 4 4 2 1 5 10 12 16 22 19 25 28 69 55 67 67 83 59 60 61 71 57 58 58 84 82 83 80 88 86 67 60 69 74 52 66 71 73 75 84 84 70 76 64 72 102 82 79 68 89 107 77 89 96 58 56 60 47 73 85 75 82 47 30 27 24 14 7 2 2 5 5 4 2 2 2 1 0 0 0 0 0 0 0 0 0 0 0 0 0 0 0 0 0 0 0 0 0 0 0 0 0 0 0 0 0 0 0 0 0 0 0 
0 0 0 0 0 0 0 0 0 0 0 0 0 0 0 0 0 1 0 0 3 11 10 13 21 21 22 34 66 62 74 62 85 70 60 55 72 87 132 149 159 143 101 107 109 113 96 99 102 100 86 103 102 104 101 93 79 62 94 112 106 125 116 111 123 131 125 73 76 80 68 72 86 93 113 108 90 85 50 36 27 23 11 11 2 0 0 1 0 0 1 1 0 0 0 0 0 0 0 0 0 0 0 0 0 0 0 0 0 0 0 0 0 0 0 0 0 0 0 0 0 0 0 0 0 0 0 0 
0 0 0 0 0 0 0 0 0 0 0 0 0 0 0 0 0 0 0 0 0 4 4 8 18 32 31 39 62 66 71 53 71 67 67 67 89 102 129 132 150 148 143 140 150 161 152 149 146 122 97 115 111 115 110 105 118 107 117 145 166 179 166 163 158 153 139 93 98 123 130 127 119 117 118 112 96 84 64 58 37 25 23 21 1 0 0 0 0 0 0 0 0 0 0 0 0 0 0 0 0 0 0 0 0 0 0 0 0 0 0 0 0 0 0 0 0 0 0 0 0 0 0 0 0 0 0 0 
0 0 0 0 0 0 0 0 0 0 0 0 0 0 0 0 0 0 0 0 0 1 2 7 11 27 22 36 52 71 72 66 66 63 79 58 66 86 129 100 138 139 158 137 150 133 145 179 141 137 143 124 137 149 143 134 144 149 155 159 166 193 185 185 139 171 143 121 114 149 151 145 118 93 65 59 70 48 38 38 18 11 3 1 1 0 1 1 0 0 0 0 0 0 0 0 0 0 0 0 0 0 0 0 0 0 0 0 0 0 0 0 0 0 0 0 0 0 0 0 0 0 0 0 0 0 0 0 
0 0 0 0 0 0 0 0 0 0 0 0 0 0 0 0 0 0 0 0 0 1 2 6 8 15 26 27 41 73 77 71 77 75 92 96 86 104 109 102 119 117 119 97 111 89 136 150 146 141 143 129 126 124 125 110 118 119 123 120 138 148 121 109 139 102 97 101 145 139 96 79 68 71 55 87 76 45 33 32 12 12 11 2 3 4 6 7 5 3 0 0 0 0 0 0 0 0 0 0 0 0 0 0 0 0 0 0 0 0 0 0 0 0 0 0 0 0 0 0 0 0 0 0 0 0 0 0 
0 0 0 0 0 0 0 0 0 0 0 0 0 0 0 0 0 0 0 0 0 0 4 7 8 14 20 22 28 60 66 69 71 70 65 60 59 74 126 122 103 99 95 85 118 123 129 115 120 132 137 127 111 93 100 75 98 106 122 107 126 146 132 99 100 123 134 145 143 111 88 57 46 62 61 108 80 37 24 19 16 16 11 1 1 1 4 5 4 2 0 0 0 0 0 0 0 0 0 0 0 0 0 0 0 0 0 0 0 0 0 0 0 0 0 0 0 0 0 0 0 0 0 0 0 0 0 0 
0 0 0 0 0 0 0 0 0 0 0 0 0 0 0 0 0 0 0 0 0 0 2 5 8 13 17 22 24 50 60 73 68 66 59 40 46 66 85 85 86 91 89 110 131 133 126 121 123 130 131 106 107 104 112 112 121 118 121 104 113 131 104 78 68 105 116 104 112 101 83 63 48 64 70 111 85 44 27 20 17 12 6 1 1 1 3 5 5 3 0 0 0 0 0 0 0 0 0 0 0 0 0 0 0 0 0 0 0 0 0 0 0 0 0 0 0 0 0 0 0 0 0 0 0 0 0 0 
0 0 0 0 0 0 0 0 0 0 0 0 0 0 0 0 0 0 0 0 0 0 0 4 8 10 15 21 25 44 58 76 70 62 58 39 38 64 85 99 92 78 86 95 119 109 100 113 125 123 129 106 105 106 113 109 116 106 118 117 108 112 112 118 101 104 112 107 102 103 85 52 36 58 77 112 90 50 27 19 16 11 6 1 1 0 3 4 4 3 0 0 0 0 0 0 0 0 0 0 0 0 0 0 0 0 0 0 0 0 0 0 0 0 0 0 0 0 0 0 0 0 0 0 0 0 0 0 
0 0 0 0 0 0 0 0 0 0 0 0 0 0 0 0 0 0 0 0 0 0 0 3 5 10 12 19 24 38 43 65 77 60 56 39 61 92 80 58 59 76 80 89 104 90 95 105 134 106 101 96 104 107 93 90 101 95 108 115 105 125 132 120 116 115 98 109 100 91 102 89 44 52 83 112 85 59 26 18 15 10 4 1 1 1 3 5 5 3 0 0 0 0 0 0 0 0 0 0 0 0 0 0 0 0 0 0 0 0 0 0 0 0 0 0 0 0 0 0 0 0 0 0 0 0 0 0 
0 0 0 0 0 0 0 0 0 0 0 0 0 0 0 0 0 0 0 0 0 0 0 0 5 7 10 16 22 33 37 55 83 68 56 54 90 76 43 42 62 75 72 100 111 94 102 103 117 96 84 93 95 88 72 79 92 94 98 106 111 123 119 101 92 117 98 84 98 79 74 110 78 53 83 107 71 51 26 17 15 9 3 1 1 1 4 5 6 5 1 0 0 0 0 0 0 0 0 0 0 0 0 0 0 0 0 0 0 0 0 0 0 0 0 0 0 0 0 0 0 0 0 0 0 0 0 0 
0 0 0 0 0 0 0 0 0 0 0 0 0 0 0 0 0 0 0 0 0 0 0 0 3 4 10 13 18 28 43 57 83 72 61 71 107 63 39 48 71 58 66 120 118 99 109 105 85 101 103 90 77 80 85 83 91 99 98 98 103 108 97 85 91 111 122 63 66 68 44 79 106 67 81 100 70 42 22 16 16 8 1 1 1 1 2 4 5 4 1 0 0 0 0 0 0 0 0 0 0 0 0 0 0 0 0 0 0 0 0 0 0 0 0 0 0 0 0 0 0 0 0 0 0 0 0 0 
0 0 0 0 0 0 0 0 0 0 0 0 0 0 0 0 0 0 0 0 0 0 0 0 0 4 5 12 16 20 40 61 60 75 71 92 109 58 37 51 64 52 72 121 109 89 101 83 67 99 114 81 62 65 77 82 82 88 91 91 100 125 99 78 79 91 125 75 56 67 45 54 114 89 83 82 47 28 17 16 16 9 2 1 1 1 1 4 5 4 2 0 0 0 0 0 0 0 0 0 0 0 0 0 0 0 0 0 0 0 0 0 0 0 0 0 0 0 0 0 0 0 0 0 0 0 0 0 
0 0 0 0 0 0 0 0 0 0 0 0 0 0 0 0 0 0 0 0 0 0 0 0 0 3 4 8 15 17 22 29 37 49 78 97 98 60 38 53 61 59 78 93 101 86 93 76 75 103 109 85 68 65 74 81 85 89 80 84 106 112 87 74 80 83 100 80 67 70 53 50 98 103 93 46 19 18 17 17 16 8 1 1 1 1 1 4 5 5 2 0 0 0 0 0 0 0 0 0 0 0 0 0 0 0 0 0 0 0 0 0 0 0 0 0 0 0 0 0 0 0 0 0 0 0 0 0 
0 0 0 0 0 0 0 0 0 0 0 0 0 0 0 0 0 0 0 0 0 0 0 0 0 0 5 4 11 18 20 20 21 17 32 61 86 74 54 62 62 57 66 64 80 80 77 69 84 111 99 77 70 68 64 74 92 88 76 78 109 115 92 75 84 93 81 73 67 68 68 67 92 85 65 27 18 17 17 17 14 7 1 1 1 1 2 4 5 4 2 0 0 0 0 0 0 0 0 0 0 0 0 0 0 0 0 0 0 0 0 0 0 0 0 0 0 0 0 0 0 0 0 0 0 0 0 0 
0 0 0 0 0 0 0 0 0 0 0 0 0 0 0 0 0 0 0 0 0 0 0 0 0 0 2 5 7 15 18 18 18 18 18 33 81 95 66 56 66 65 71 67 90 73 70 77 101 109 98 74 60 57 58 67 80 91 75 89 118 126 115 90 88 93 89 79 78 69 72 77 104 71 35 20 17 15 17 16 12 6 1 1 1 1 1 3 4 4 3 0 0 0 0 0 0 0 0 0 0 0 0 0 0 0 0 0 0 0 0 0 0 0 0 0 0 0 0 0 0 0 0 0 0 0 0 0 
0 0 0 0 0 0 0 0 0 0 0 0 0 0 0 0 0 0 0 0 0 0 0 0 0 0 0 4 5 10 16 19 18 18 19 18 37 84 72 60 80 89 74 71 103 93 76 82 107 128 109 79 63 58 63 90 105 89 79 97 119 123 115 81 77 96 99 81 96 97 83 80 84 34 22 15 16 14 16 14 10 6 2 1 1 1 0 2 4 4 3 0 0 0 0 0 0 0 0 0 0 0 0 0 0 0 0 0 0 0 0 0 0 0 0 0 0 0 0 0 0 0 0 0 0 0 0 0 
0 0 0 0 0 0 0 0 0 0 0 0 0 0 0 0 0 0 0 0 0 0 0 0 0 0 0 1 5 8 13 19 20 18 20 20 21 42 78 74 96 100 68 82 124 106 69 70 96 128 113 86 71 66 78 103 98 87 84 96 100 117 121 87 74 103 119 87 90 103 87 76 41 29 22 16 17 16 16 14 10 6 1 1 1 1 1 2 4 5 3 0 0 0 0 0 0 0 0 0 0 0 0 0 0 0 0 0 0 0 0 0 0 0 0 0 0 0 0 0 0 0 0 0 0 0 0 0 
0 0 0 0 0 0 0 0 0 0 0 0 0 0 0 0 0 0 0 0 0 0 0 0 0 0 0 1 4 6 8 15 19 17 21 17 25 26 34 57 74 82 70 92 123 105 66 78 114 130 103 72 60 77 96 109 106 92 83 92 90 109 128 94 79 110 131 102 78 81 60 36 30 27 26 18 18 17 15 14 10 6 1 1 1 1 1 3 5 5 3 1 0 0 0 0 0 0 0 0 0 0 0 0 0 0 0 0 0 0 0 0 0 0 0 0 0 0 0 0 0 0 0 0 0 0 0 0 
0 0 0 0 0 0 0 0 0 0 0 0 0 0 0 0 0 0 0 0 0 0 0 0 0 0 0 0 1 6 8 10 18 16 19 16 19 22 26 29 34 53 71 86 120 109 77 87 105 109 82 58 70 95 104 113 113 98 78 84 85 97 123 106 89 107 125 97 70 45 30 28 29 26 23 17 17 15 15 14 11 5 1 1 1 1 0 3 5 5 3 0 0 0 0 0 0 0 0 0 0 0 0 0 0 0 0 0 0 0 0 0 0 0 0 0 0 0 0 0 0 0 0 0 0 0 0 0 
0 0 0 0 0 0 0 0 0 0 0 0 0 0 0 0 0 0 0 0 0 0 0 0 0 0 0 0 0 7 6 8 15 17 18 16 17 23 23 28 32 34 44 54 77 96 86 87 97 92 77 72 89 104 114 121 116 106 96 80 80 90 116 111 94 103 83 56 41 38 32 28 28 23 19 17 17 15 15 14 10 4 0 1 1 1 1 3 4 4 3 0 0 0 0 0 0 0 0 0 0 0 0 0 0 0 0 0 0 0 0 0 0 0 0 0 0 0 0 0 0 0 0 0 0 0 0 0 
0 0 0 0 0 0 0 0 0 0 0 0 0 0 0 0 0 0 0 0 0 0 0 0 0 0 0 0 0 3 7 7 12 17 20 15 16 22 22 28 33 33 35 36 40 64 92 93 78 74 78 88 96 110 122 130 121 113 104 90 86 84 98 98 100 80 49 47 39 35 30 30 25 21 15 15 17 16 15 13 10 4 0 1 1 1 1 2 4 4 3 1 0 0 0 0 0 0 0 0 0 0 0 0 0 0 0 0 0 0 0 0 0 0 0 0 0 0 0 0 0 0 0 0 0 0 0 0 
