P2
128 99
232
0 0 0 0 0 0 0 0 0 0 0 0 0 0 0 0 0 0 0 0 0 0 0 0 0 0 0 0 0 0 0 0 0 0 0 0 0 0 0 0 3 6 4 2 0 0 0 0 0 0 0 0 0 0 0 0 0 0 0 0 0 0 0 0 0 0 0 0 0 0 0 0 0 0 0 0 0 0 0 0 0 0 0 2 6 4 2 0 0 0 0 0 0 0 0 0 0 0 0 0 0 0 0 0 0 0 0 0 0 0 0 0 0 0 0 0 0 0 0 0 0 0 0 0 0 0 0 0 
0 0 0 0 0 0 0 0 0 0 0 0 0 0 0 0 0 0 0 0 0 0 0 0 0 0 0 0 0 0 0 0 0 0 0 0 0 0 0 0 4 6 5 2 0 0 0 0 0 0 0 0 0 0 0 0 0 0 0 0 0 0 0 0 0 0 0 0 0 0 0 0 0 0 0 0 0 0 0 0 0 0 0 2 5 5 2 0 0 0 0 0 0 0 0 0 0 0 0 0 0 0 0 0 0 0 0 0 0 0 0 0 0 0 0 0 0 0 0 0 0 0 0 0 0 0 0 0 
0 0 0 0 0 0 0 0 0 0 0 0 0 0 0 0 0 0 0 0 0 0 0 0 0 0 0 0 0 0 0 0 0 0 0 0 0 0 0 1 5 7 6 2 0 0 0 0 0 0 2 3 3 1 0 0 0 0 0 0 0 0 0 0 0 0 0 0 0 0 0 0 0 0 0 0 0 0 0 0 0 0 0 3 6 6 2 0 0 0 0 0 0 0 0 0 0 0 0 0 0 0 0 0 0 0 0 0 0 0 0 0 0 0 0 0 0 0 0 0 0 0 0 0 0 0 0 0 
0 0 0 0 0 0 0 0 0 0 0 0 0 0 0 0 0 0 0 0 0 0 0 0 0 0 0 0 0 0 0 0 0 0 0 0 0 0 0 0 4 7 5 3 6 14 18 15 12 11 12 18 26 27 21 18 16 14 14 12 5 0 0 0 0 0 0 0 0 0 0 0 0 0 0 0 0 0 0 0 0 0 0 2 6 6 2 0 0 0 0 0 0 0 0 0 0 0 0 0 0 0 0 0 0 0 0 0 0 0 0 0 0 0 0 0 0 0 0 0 0 0 0 0 0 0 0 0 
0 0 0 0 0 0 0 0 0 0 0 0 0 0 0 0 0 0 0 0 0 0 0 0 0 0 0 0 0 0 0 0 0 0 0 0 0 0 0 0 6 21 28 21 25 31 48 71 94 111 125 134 136 133 127 116 103 90 76 57 35 22 15 15 4 0 0 0 0 0 0 0 0 0 0 0 0 0 0 0 0 0 0 1 5 6 2 0 0 0 0 0 0 0 0 0 0 0 0 0 0 0 0 0 0 0 0 0 0 0 0 0 0 0 0 0 0 0 0 0 0 0 0 0 0 0 0 0 
0 0 0 0 0 0 0 0 0 0 0 0 0 0 0 0 0 0 0 0 0 0 0 0 0 0 0 0 0 0 0 0 0 0 0 0 0 0 4 22 34 32 40 63 104 140 154 153 149 155 164 168 169 170 171 169 165 159 148 132 119 105 84 51 26 14 16 4 0 0 0 0 0 0 0 0 0 0 0 0 0 0 0 2 6 6 3 0 0 0 0 0 0 0 0 0 0 0 0 0 0 0 0 0 0 0 0 0 0 0 0 0 0 0 0 0 0 0 0 0 0 0 0 0 0 0 0 0 
0 0 0 0 0 0 0 0 0 0 0 0 0 0 0 0 0 0 0 0 0 0 0 0 0 0 0 0 0 0 0 0 0 0 0 0 6 30 27 22 50 100 148 160 151 157 167 167 165 161 159 160 158 158 161 163 167 170 171 167 165 160 143 121 108 87 49 19 15 5 0 0 0 0 0 0 0 0 0 0 0 0 0 2 6 6 1 0 0 0 0 0 0 0 0 0 0 0 0 0 0 0 0 0 0 0 0 0 0 0 0 0 0 0 0 0 0 0 0 0 0 0 0 0 0 0 0 0 
0 0 0 0 0 0 0 0 0 0 0 0 0 0 0 0 0 0 0 0 0 0 0 0 0 0 0 0 0 0 0 0 0 0 5 33 25 21 54 121 161 156 151 160 169 165 154 152 150 144 152 168 175 170 166 178 181 169 160 156 159 168 178 176 167 139 115 101 66 25 15 4 0 0 0 0 0 0 0 0 0 0 0 3 7 6 1 0 0 0 0 0 0 0 0 0 0 0 0 0 0 0 0 0 0 0 0 0 0 0 0 0 0 0 0 0 0 0 0 0 0 0 0 0 0 0 0 0 
0 0 0 0 0 0 0 0 0 0 0 0 0 0 0 0 0 0 0 0 0 0 0 0 0 0 0 0 0 0 0 0 1 32 27 18 49 126 164 150 150 166 173 175 175 163 156 157 173 183 189 193 194 182 182 194 212 222 214 191 174 160 156 163 174 180 175 153 121 96 54 25 14 0 0 0 0 0 0 0 0 0 0 4 7 6 1 0 0 0 0 0 0 0 0 0 0 0 0 0 0 0 0 0 0 0 0 0 0 0 0 0 0 0 0 0 0 0 0 0 0 0 0 0 0 0 0 0 
0 0 0 0 0 0 0 0 0 0 0 0 0 0 0 0 0 0 0 0 0 0 0 0 0 0 0 0 0 0 0 25 30 16 32 106 165 152 151 168 175 175 170 161 159 164 177 189 177 159 152 153 157 150 147 148 153 165 200 223 226 218 197 174 159 160 167 173 172 146 114 84 39 20 5 0 0 0 0 0 0 0 0 3 7 6 2 0 0 0 0 0 0 0 0 0 0 0 0 0 0 0 0 0 0 0 0 0 0 0 0 0 0 0 0 0 0 0 0 0 0 0 0 0 0 0 0 0 
0 0 0 0 0 0 0 0 0 0 0 0 0 0 0 0 0 0 0 0 0 0 0 0 0 0 0 0 0 10 33 20 23 79 155 157 147 169 178 173 170 164 170 186 186 166 152 132 128 142 139 133 128 128 127 131 132 132 141 167 189 205 217 225 218 194 169 155 158 171 164 135 110 58 25 8 0 0 0 0 0 0 0 4 6 5 2 0 0 0 0 0 0 0 0 0 0 0 0 0 0 0 0 0 0 0 0 0 0 0 0 0 0 0 0 0 0 0 0 0 0 0 0 0 0 0 0 0 
0 0 0 0 0 0 0 0 0 0 0 0 0 0 0 0 0 0 0 0 0 0 0 0 0 0 0 1 24 26 19 47 130 164 144 162 177 175 168 170 183 199 188 165 147 133 113 99 93 105 98 97 95 94 105 99 95 89 86 97 124 145 170 192 208 222 227 201 169 154 156 161 149 122 78 29 10 0 0 0 0 0 1 4 6 7 2 0 0 0 0 0 0 0 0 0 0 0 0 0 0 0 0 0 0 0 0 0 0 0 0 0 0 0 0 0 0 0 0 0 0 0 0 0 0 0 0 0 
0 0 0 0 0 0 0 0 0 0 0 0 0 0 0 0 0 0 0 0 0 0 0 0 0 0 6 24 24 19 73 153 153 149 171 174 167 178 194 199 189 168 136 120 104 88 90 93 98 92 60 62 61 57 87 106 107 110 104 98 98 110 128 135 155 183 200 218 227 199 163 147 157 157 129 83 29 11 0 0 0 0 0 4 6 6 3 0 0 0 0 0 0 0 0 0 0 0 0 0 0 0 0 0 0 0 0 0 0 0 0 0 0 0 0 0 0 0 0 0 0 0 0 0 0 0 0 0 
0 0 0 0 0 0 0 0 0 0 0 0 0 0 0 0 0 0 0 0 0 0 0 0 0 11 23 25 25 100 161 141 155 173 166 171 198 207 187 164 134 115 115 120 116 115 111 109 92 75 74 84 93 99 106 124 130 129 122 113 107 104 113 127 131 134 148 183 208 226 217 179 151 150 159 136 91 29 11 0 0 0 0 4 6 7 2 0 0 0 0 0 0 0 0 0 0 0 0 0 0 0 0 0 0 0 0 0 0 0 0 0 0 0 0 0 0 0 0 0 0 0 0 0 0 0 0 0 
0 0 0 0 0 0 0 0 0 0 0 0 0 0 0 0 0 0 0 0 0 0 0 0 16 19 22 32 114 161 144 160 167 164 177 205 188 162 138 116 126 144 159 160 158 157 144 126 127 133 135 139 141 144 153 159 162 162 156 153 146 135 122 119 123 126 130 130 152 190 213 224 188 157 152 159 138 98 30 13 0 0 0 3 7 6 3 0 0 0 0 0 0 0 0 0 0 0 0 0 0 0 0 0 0 0 0 0 0 0 0 0 0 0 0 0 0 0 0 0 0 0 0 0 0 0 0 0 
0 0 0 0 0 0 0 0 0 0 0 0 0 0 0 0 0 0 0 0 0 0 4 20 16 22 38 115 155 152 166 167 167 187 198 176 152 125 129 145 149 150 150 153 158 156 153 154 158 162 157 144 141 139 142 144 147 154 159 156 154 152 152 151 143 127 124 125 123 132 169 204 223 195 157 145 156 142 113 34 11 0 0 4 7 8 5 0 0 0 0 0 0 0 0 0 0 0 0 0 0 0 0 0 0 0 0 0 0 0 0 0 0 0 0 0 0 0 0 0 0 0 0 0 0 0 0 0 
0 0 0 0 0 0 0 0 0 0 0 0 0 0 0 0 0 0 0 0 0 6 17 10 25 52 119 155 156 168 165 164 176 188 168 147 132 147 148 135 145 159 160 160 151 145 145 142 148 151 148 142 132 128 132 133 134 137 136 139 132 128 129 132 152 161 144 124 122 123 124 148 187 217 195 160 150 150 139 123 36 8 0 6 7 6 4 0 0 0 0 0 0 0 0 0 0 0 0 0 0 0 0 0 0 0 0 0 0 0 0 0 0 0 0 0 0 0 0 0 0 0 0 0 0 0 0 0 
0 0 0 0 0 0 0 0 0 0 0 0 0 0 0 0 0 0 0 0 8 18 8 28 67 123 155 154 169 164 157 157 180 169 147 136 136 127 134 156 159 155 145 142 146 148 145 145 149 149 148 138 138 148 146 143 142 139 135 135 131 131 124 118 120 136 157 152 129 122 124 121 139 184 211 186 166 156 151 140 128 37 7 5 7 7 2 0 0 0 0 0 0 0 0 0 0 0 0 0 0 0 0 0 0 0 0 0 0 0 0 0 0 0 0 0 0 0 0 0 0 0 0 0 0 0 0 0 
0 0 0 0 0 0 0 0 0 0 0 0 0 0 0 0 0 0 0 6 17 9 29 77 124 162 156 168 162 153 157 178 169 147 131 123 115 133 144 141 141 145 144 147 151 147 144 143 131 125 138 138 147 151 140 144 148 147 144 142 143 138 139 136 122 113 120 152 158 138 123 119 111 145 182 204 184 169 161 144 144 121 28 8 8 7 4 0 0 0 0 0 0 0 0 0 0 0 0 0 0 0 0 0 0 0 0 0 0 0 0 0 0 0 0 0 0 0 0 0 0 0 0 0 0 0 0 0 
0 0 0 0 0 0 0 0 0 0 0 0 0 0 0 0 0 0 5 16 6 29 82 123 159 155 164 161 145 160 179 173 153 130 120 108 120 134 131 136 144 150 149 141 125 112 111 113 104 104 100 86 97 111 102 103 113 130 144 151 150 147 143 137 133 128 113 116 142 153 135 117 106 112 143 180 205 179 172 161 140 153 98 21 10 8 4 0 0 0 0 0 0 0 0 0 0 0 0 0 0 0 0 0 0 0 0 0 0 0 0 0 0 0 0 0 0 0 0 0 0 0 0 0 0 0 0 0 
0 0 0 0 0 0 0 0 0 0 0 0 0 0 0 0 0 0 17 7 24 82 119 149 155 152 158 139 156 180 179 160 125 114 97 111 137 134 137 146 151 140 114 94 85 83 84 85 87 83 59 55 59 86 88 81 83 87 100 112 134 144 148 139 136 138 136 124 116 133 145 128 104 103 116 151 185 203 171 171 155 134 152 72 16 8 4 0 0 0 0 0 0 0 0 0 0 0 0 0 0 0 0 0 0 0 0 0 0 0 0 0 0 0 0 0 0 0 0 0 0 0 0 0 0 0 0 0 
0 0 0 0 0 0 0 0 0 0 0 0 0 0 0 0 0 12 6 15 73 115 138 164 146 164 143 144 186 184 164 120 115 101 107 132 133 139 148 145 127 102 84 79 79 81 81 81 75 57 53 54 49 55 77 86 83 83 84 82 93 105 122 143 147 144 141 140 123 117 131 137 125 100 101 128 167 192 186 170 172 144 145 128 41 12 4 0 0 0 0 0 0 0 0 0 0 0 0 0 0 0 0 0 0 0 0 0 0 0 0 0 0 0 0 0 0 0 0 0 0 0 0 0 0 0 0 0 
0 0 0 0 0 0 0 0 0 0 0 0 0 0 0 0 6 9 11 50 113 117 171 149 164 151 126 182 187 161 118 106 92 104 137 131 138 148 148 127 98 88 78 71 65 56 52 53 53 54 53 51 49 50 52 54 61 63 57 53 54 57 65 84 113 133 134 142 136 124 123 126 124 122 96 98 133 169 185 164 174 166 136 156 100 22 6 0 0 0 0 0 0 0 0 0 0 0 0 0 0 0 0 0 0 0 0 0 0 0 0 0 0 0 0 0 0 0 0 0 0 0 0 0 0 0 0 0 
0 0 0 0 0 0 0 0 0 0 0 0 0 0 0 1 12 7 33 108 115 160 154 159 162 120 167 188 160 118 100 78 96 137 139 140 148 138 117 90 77 66 57 53 49 50 53 55 56 59 59 58 55 54 54 53 51 50 51 52 51 51 51 53 69 104 126 130 140 136 129 129 119 119 118 93 105 140 175 161 167 179 159 155 145 64 8 0 0 0 0 0 0 0 0 0 0 0 0 0 0 0 0 0 0 0 0 0 0 0 0 0 0 0 0 0 0 0 0 0 0 0 0 0 0 0 0 0 
0 0 0 0 0 0 0 0 0 0 0 0 0 0 0 9 8 19 81 115 142 174 149 161 129 136 188 169 122 105 76 87 126 138 149 152 134 102 79 63 60 60 56 51 55 56 56 58 56 57 59 55 56 55 57 57 57 54 50 50 51 50 53 52 54 68 105 126 135 136 139 138 128 112 118 114 87 113 160 169 138 167 171 145 155 114 26 0 0 0 0 0 0 0 0 0 0 0 0 0 0 0 0 0 0 0 0 0 0 0 0 0 0 0 0 0 0 0 0 0 0 0 0 0 0 0 0 0 
0 0 0 0 0 0 0 0 0 0 0 0 0 0 3 9 8 64 110 119 171 162 155 135 110 162 178 135 107 93 86 120 140 145 153 130 95 72 60 61 64 61 58 57 56 57 57 55 54 56 56 55 54 56 56 56 57 55 56 55 53 53 53 51 51 54 71 110 131 133 132 143 137 123 106 119 103 90 139 175 132 143 173 151 156 132 62 2 0 0 0 0 0 0 0 0 0 0 0 0 0 0 0 0 0 0 0 0 0 0 0 0 0 0 0 0 0 0 0 0 0 0 0 0 0 0 0 0 
0 0 0 0 0 0 0 0 0 0 0 0 0 0 6 6 41 98 110 138 172 146 138 123 118 174 154 109 102 90 115 143 150 148 120 83 61 53 59 66 67 65 60 57 57 56 54 54 52 55 55 55 55 57 57 57 56 56 56 56 56 54 54 53 50 51 55 81 117 125 127 143 144 138 116 110 125 93 113 162 139 128 153 160 158 140 101 16 0 0 0 0 0 0 0 0 0 0 0 0 0 0 0 0 0 0 0 0 0 0 0 0 0 0 0 0 0 0 0 0 0 0 0 0 0 0 0 0 
0 0 0 0 0 0 0 0 0 0 0 0 0 0 7 15 81 107 120 157 162 128 130 119 138 172 131 102 99 111 140 143 147 131 83 59 52 55 60 66 68 66 61 56 57 62 56 56 54 57 61 62 66 70 71 68 62 59 57 56 55 55 54 54 52 51 51 58 88 122 130 141 144 144 138 115 122 113 105 140 140 134 142 160 158 145 115 40 0 0 0 0 0 0 0 0 0 0 0 0 0 0 0 0 0 0 0 0 0 0 0 0 0 0 0 0 0 0 0 0 0 0 0 0 0 0 0 0 
0 0 0 0 0 0 0 0 0 0 0 0 0 4 4 47 92 115 132 167 143 119 131 118 152 161 122 107 107 133 150 148 134 99 61 54 55 57 63 66 64 64 62 63 65 67 68 68 75 85 96 107 116 120 119 112 97 82 71 63 59 57 55 54 53 54 51 51 62 99 127 136 148 147 146 134 122 121 110 122 129 132 136 162 159 153 120 58 1 0 0 0 0 0 0 0 0 0 0 0 0 0 0 0 0 0 0 0 0 0 0 0 0 0 0 0 0 0 0 0 0 0 0 0 0 0 0 0 
0 0 0 0 0 0 0 0 0 0 0 0 0 4 9 73 95 120 142 169 121 131 128 120 157 146 115 116 120 150 154 143 115 77 55 52 54 55 62 66 69 71 67 73 86 98 110 125 136 151 160 164 176 172 161 156 152 143 133 120 101 80 65 56 55 53 52 51 52 68 103 132 151 145 146 149 134 124 118 121 118 119 123 155 161 166 125 72 4 0 0 0 0 0 0 0 0 0 0 0 0 0 0 0 0 0 0 0 0 0 0 0 0 0 0 0 0 0 0 0 0 0 0 0 0 0 0 0 
0 0 0 0 0 0 0 0 0 0 0 0 0 2 22 82 102 131 152 161 113 131 113 124 157 136 116 118 125 154 152 126 98 61 54 54 55 58 66 75 75 76 89 109 141 165 175 177 168 157 143 139 169 157 132 124 125 140 161 172 170 149 114 82 65 59 53 52 50 51 70 117 148 145 141 148 138 112 120 128 123 111 117 150 158 167 125 86 7 0 0 0 0 0 0 0 0 0 0 0 0 0 0 0 0 0 0 0 0 0 0 0 0 0 0 0 0 0 0 0 0 0 0 0 0 0 0 0 
0 0 0 0 0 0 0 0 0 0 0 0 1 2 41 89 112 139 162 138 117 116 112 129 155 138 114 113 133 152 128 95 84 59 53 57 63 67 73 83 91 108 137 172 190 185 166 150 131 102 96 99 140 103 98 98 97 94 95 126 162 187 182 148 100 73 57 56 51 52 58 87 138 147 139 142 132 112 118 128 121 108 127 148 158 165 124 98 15 0 0 0 0 0 0 0 0 0 0 0 0 0 0 0 0 0 0 0 0 0 0 0 0 0 0 0 0 0 0 0 0 0 0 0 0 0 0 0 
0 0 0 0 0 0 0 0 0 0 0 0 1 4 56 91 120 141 159 125 120 108 118 130 150 135 115 115 137 141 100 88 74 55 60 66 70 73 85 94 119 153 182 187 169 150 127 101 97 97 96 102 103 95 96 98 98 96 97 99 118 162 193 188 152 107 73 58 54 52 53 65 110 142 139 139 127 115 114 134 118 103 128 142 157 167 145 111 25 0 0 0 0 0 0 0 0 0 0 0 0 0 0 0 0 0 0 0 0 0 0 0 0 0 0 0 0 0 0 0 0 0 0 0 0 0 0 0 
0 0 0 0 0 0 0 0 0 0 0 0 1 6 65 96 123 134 148 117 117 112 125 130 152 129 110 115 129 112 84 83 69 59 68 75 80 83 99 123 154 181 185 171 143 117 98 95 94 95 98 99 92 93 94 93 94 96 96 98 98 129 175 191 180 143 100 73 68 59 54 56 88 130 132 136 118 103 116 139 117 94 130 146 157 162 165 123 34 0 0 0 0 0 0 0 0 0 0 0 0 0 0 0 0 0 0 0 0 0 0 0 0 0 0 0 0 0 0 0 0 0 0 0 0 0 0 0 
0 0 0 0 0 0 0 0 0 0 0 0 1 10 71 103 127 137 147 108 116 119 128 127 150 127 108 120 114 94 79 80 73 66 75 85 89 98 120 150 172 180 183 165 132 101 92 90 92 92 95 95 90 88 90 91 93 94 94 95 95 109 147 173 176 149 115 94 79 65 55 57 77 112 129 130 120 110 121 148 116 94 122 146 152 158 178 133 41 1 0 0 0 0 0 0 0 0 0 0 0 0 0 0 0 0 0 0 0 0 0 0 0 0 0 0 0 0 0 0 0 0 0 0 0 0 0 0 
0 0 0 0 0 0 0 0 0 0 0 0 2 16 73 110 133 154 142 100 115 130 126 129 150 132 115 117 89 87 78 84 71 73 86 92 99 119 155 179 180 156 177 170 141 105 90 91 89 88 92 92 91 89 89 90 90 92 93 94 95 106 129 154 178 147 135 138 109 75 62 67 80 100 132 145 125 118 129 150 116 95 119 142 145 150 182 142 47 3 0 0 0 0 0 0 0 0 0 0 0 0 0 0 0 0 0 0 0 0 0 0 0 0 0 0 0 0 0 0 0 0 0 0 0 0 0 0 
0 0 0 0 0 0 0 0 0 0 0 0 3 15 75 116 136 169 140 102 126 143 120 134 161 144 119 106 70 84 85 84 68 76 95 115 139 162 174 169 146 123 145 164 167 132 91 88 91 93 94 90 87 84 86 88 89 90 91 91 91 124 156 160 147 137 133 131 119 99 82 82 85 96 127 142 124 122 137 153 114 100 115 145 144 152 181 148 54 3 0 0 0 0 0 0 0 0 0 0 0 0 0 0 0 0 0 0 0 0 0 0 0 0 0 0 0 0 0 0 0 0 0 0 0 0 0 0 
0 0 0 0 0 0 0 0 0 0 0 0 5 13 73 120 142 179 137 98 122 149 122 134 167 153 125 92 60 79 88 88 74 89 120 150 153 135 125 131 129 116 98 93 108 139 139 94 92 90 86 84 84 85 87 88 89 89 89 87 112 151 125 115 117 115 114 104 87 75 74 72 78 84 119 141 122 129 148 149 106 105 115 142 144 153 175 159 64 4 0 0 0 0 0 0 0 0 0 0 0 0 0 0 0 0 0 0 0 0 0 0 0 0 0 0 0 0 0 0 0 0 0 0 0 0 0 0 
0 0 0 0 0 0 0 0 0 0 0 0 6 10 77 120 144 174 137 97 120 149 125 137 166 157 135 84 54 71 81 87 93 115 131 123 116 115 116 119 117 116 109 101 92 91 130 140 93 90 87 83 82 87 86 88 88 90 90 102 139 113 104 95 93 97 105 106 88 63 52 50 53 73 116 145 132 142 147 139 102 102 114 131 141 149 171 170 74 5 0 0 0 0 0 0 0 0 0 0 0 0 0 0 0 0 0 0 0 0 0 0 0 0 0 0 0 0 0 0 0 0 0 0 0 0 0 0 
0 0 0 0 0 0 0 0 0 0 0 0 7 11 83 121 143 175 136 101 122 144 124 139 165 164 149 91 50 61 76 82 95 107 109 106 103 104 109 109 107 101 92 96 110 102 100 143 106 87 87 87 82 83 86 89 87 87 95 153 120 94 88 85 94 102 106 108 91 62 47 45 47 66 121 153 145 148 140 138 95 94 110 120 133 147 169 175 93 11 0 0 0 0 0 0 0 0 0 0 0 0 0 0 0 0 0 0 0 0 0 0 0 0 0 0 0 0 0 0 0 0 0 0 0 0 0 0 
0 0 0 0 0 0 0 0 0 0 0 0 7 12 87 121 148 176 136 102 121 139 127 139 152 172 158 108 77 64 78 85 91 91 103 106 102 103 108 109 107 103 94 87 91 101 98 117 140 99 90 84 84 89 95 88 91 87 116 148 100 87 80 89 100 103 106 104 90 69 50 50 64 85 128 158 156 149 151 135 93 85 112 112 121 149 167 175 104 19 0 0 0 0 0 0 0 0 0 0 0 0 0 0 0 0 0 0 0 0 0 0 0 0 0 0 0 0 0 0 0 0 0 0 0 0 0 0 
0 0 0 0 0 0 0 0 0 0 0 0 7 12 93 122 150 181 136 104 110 136 133 137 133 164 170 121 92 78 92 98 93 87 101 103 101 99 98 104 103 96 93 85 84 89 104 114 151 140 131 89 92 99 101 90 91 103 159 130 90 78 84 93 101 106 107 104 89 71 61 53 50 61 117 164 157 156 166 127 89 79 110 109 108 147 163 177 112 27 0 0 0 0 0 0 0 0 0 0 0 0 0 0 0 0 0 0 0 0 0 0 0 0 0 0 0 0 0 0 0 0 0 0 0 0 0 0 
0 0 0 0 0 0 0 0 0 0 0 0 7 14 97 122 159 182 137 105 97 133 134 136 121 154 170 139 117 84 80 94 95 83 93 98 99 97 97 98 101 95 89 86 87 90 96 105 144 158 148 118 98 100 104 119 154 165 165 108 83 83 89 96 107 113 112 105 83 65 60 51 43 52 98 164 165 169 167 121 87 66 97 107 107 138 156 177 118 37 1 0 0 0 0 0 0 0 0 0 0 0 0 0 0 0 0 0 0 0 0 0 0 0 0 0 0 0 0 0 0 0 0 0 0 0 0 0 
0 0 0 0 0 0 0 0 0 0 0 0 10 14 99 122 167 182 130 88 88 131 131 125 117 142 173 141 110 64 63 86 88 82 91 97 100 99 98 96 99 95 90 91 92 90 93 99 134 162 141 96 85 100 94 106 148 172 153 94 83 90 98 124 132 119 109 97 76 62 59 56 46 53 93 161 175 178 159 121 82 62 87 109 109 125 136 168 124 40 2 0 0 0 0 0 0 0 0 0 0 0 0 0 0 0 0 0 0 0 0 0 0 0 0 0 0 0 0 0 0 0 0 0 0 0 0 0 
0 0 0 0 0 0 0 0 0 0 0 0 10 16 94 122 172 174 83 70 87 131 124 112 114 130 163 143 84 55 57 81 76 79 89 95 99 101 102 100 94 95 88 92 93 91 88 87 125 150 135 99 99 114 116 108 103 161 143 90 93 110 128 134 117 110 105 89 70 58 61 59 50 53 99 162 180 185 153 136 92 61 79 98 113 122 121 169 128 45 2 0 0 0 0 0 0 0 0 0 0 0 0 0 0 0 0 0 0 0 0 0 0 0 0 0 0 0 0 0 0 0 0 0 0 0 0 0 
0 0 0 0 0 0 0 0 0 0 0 0 9 15 92 122 176 168 73 71 86 128 112 110 113 121 145 137 93 50 53 82 80 78 89 92 98 101 103 99 103 109 102 96 92 86 86 90 118 128 101 103 105 89 94 87 105 143 136 105 126 127 117 101 107 115 107 86 67 57 59 53 51 58 107 159 177 182 144 144 106 64 79 100 116 117 106 164 128 47 1 0 0 0 0 0 0 0 0 0 0 0 0 0 0 0 0 0 0 0 0 0 0 0 0 0 0 0 0 0 0 0 0 0 0 0 0 0 
0 0 0 0 0 0 0 0 0 0 0 0 9 14 85 125 175 151 71 72 86 118 114 116 117 124 148 134 86 49 53 80 89 79 91 97 97 99 102 103 102 121 126 119 115 109 100 96 109 107 100 122 115 103 103 102 117 140 121 111 105 101 98 105 122 125 114 84 63 60 53 48 50 64 121 159 176 179 142 143 108 71 75 96 118 109 102 162 130 48 2 0 0 0 0 0 0 0 0 0 0 0 0 0 0 0 0 0 0 0 0 0 0 0 0 0 0 0 0 0 0 0 0 0 0 0 0 0 
0 0 0 0 0 0 0 0 0 0 0 0 8 14 79 127 172 139 73 76 87 113 113 123 122 128 152 121 73 49 52 75 95 84 94 97 97 100 104 101 105 99 97 90 91 97 101 117 119 105 111 104 85 84 80 76 79 106 95 96 97 97 98 130 136 133 114 81 65 61 59 49 49 69 134 168 186 175 137 139 106 78 78 95 123 109 109 166 115 46 2 0 0 0 0 0 0 0 0 0 0 0 0 0 0 0 0 0 0 0 0 0 0 0 0 0 0 0 0 0 0 0 0 0 0 0 0 0 
0 0 0 0 0 0 0 0 0 0 0 0 4 13 71 131 167 135 73 77 87 99 109 124 129 127 149 113 71 51 49 66 95 93 92 98 103 106 101 101 106 116 93 83 78 78 82 108 108 87 85 90 84 86 84 78 81 93 90 93 94 95 101 140 137 127 109 80 61 59 58 58 50 77 147 175 194 165 132 129 107 85 80 100 117 105 119 168 107 42 1 0 0 0 0 0 0 0 0 0 0 0 0 0 0 0 0 0 0 0 0 0 0 0 0 0 0 0 0 0 0 0 0 0 0 0 0 0 
0 0 0 0 0 0 0 0 0 0 0 0 1 16 64 126 161 137 79 76 88 84 107 119 123 121 139 114 69 50 48 55 87 103 94 102 106 107 104 105 111 127 100 83 78 77 88 82 88 85 95 85 82 86 92 85 80 82 90 91 94 88 90 126 136 125 104 74 58 58 58 57 54 91 162 185 191 152 121 113 108 87 82 109 104 103 139 164 95 36 1 0 0 0 0 0 0 0 0 0 0 0 0 0 0 0 0 0 0 0 0 0 0 0 0 0 0 0 0 0 0 0 0 0 0 0 0 0 
0 0 0 0 0 0 0 0 0 0 0 0 0 17 58 122 156 148 85 75 87 74 98 114 125 113 128 120 70 57 47 52 75 104 106 102 104 102 105 111 129 137 105 80 75 79 78 80 84 81 91 81 80 91 96 84 84 77 96 91 97 94 94 124 130 126 109 75 54 57 57 58 63 109 172 194 184 149 113 92 107 90 93 116 90 107 151 154 86 31 1 0 0 0 0 0 0 0 0 0 0 0 0 0 0 0 0 0 0 0 0 0 0 0 0 0 0 0 0 0 0 0 0 0 0 0 0 0 
0 0 0 0 0 0 0 0 0 7 6 0 0 15 53 117 148 164 92 71 84 75 87 111 126 112 118 124 79 67 59 56 68 99 112 101 99 97 103 106 121 139 121 87 81 97 77 85 83 86 93 77 80 97 97 86 89 78 93 83 98 86 112 128 131 123 115 90 58 60 65 75 87 126 176 185 174 142 93 68 108 95 101 111 78 112 162 139 71 24 1 0 0 0 0 0 0 0 0 0 0 0 0 0 0 0 0 0 0 0 0 0 0 0 0 0 0 0 0 0 0 0 0 0 0 0 0 0 
0 0 0 0 0 0 0 0 0 0 3 1 0 17 44 111 139 167 101 70 83 78 83 113 127 121 120 134 101 79 60 51 53 79 112 102 94 97 99 105 125 125 120 89 85 81 86 87 85 89 99 82 78 96 100 95 96 94 87 84 98 99 122 134 134 128 114 100 81 76 63 68 106 126 166 177 164 130 73 55 112 105 102 101 67 117 168 115 67 21 1 0 0 0 0 0 0 0 0 0 0 0 0 0 0 0 0 0 0 0 0 0 0 0 0 0 0 0 0 0 0 0 0 0 0 0 0 0 
0 0 0 0 0 0 0 0 0 0 0 4 0 12 38 101 130 164 110 75 77 75 81 112 130 123 123 135 115 102 95 66 53 74 104 110 94 99 103 112 118 110 107 93 99 110 111 98 86 90 87 75 79 93 98 87 88 88 86 90 99 107 115 146 143 138 124 99 81 76 73 88 97 112 148 169 159 106 52 58 133 129 105 87 62 145 167 95 63 16 0 0 0 0 0 0 0 0 0 0 0 0 0 0 0 0 0 0 0 0 0 0 0 0 0 0 0 0 0 0 0 0 0 0 0 0 0 0 
0 0 0 0 0 0 0 0 0 0 0 7 3 11 36 90 124 146 120 78 74 83 76 91 130 128 123 130 120 113 146 151 120 92 102 110 112 113 118 127 121 118 112 129 99 88 84 95 85 82 76 75 76 95 100 84 87 88 86 104 113 115 109 139 159 183 194 175 155 144 146 133 126 154 202 204 164 82 45 79 136 140 104 71 78 179 151 78 65 13 0 0 0 7 6 0 0 0 0 0 0 0 0 0 0 0 0 0 0 0 0 0 0 0 0 0 0 0 0 0 0 0 0 0 0 0 0 0 
0 0 0 0 0 0 0 0 0 0 0 7 4 9 30 82 119 135 134 89 73 77 77 75 113 143 128 128 128 114 165 175 155 153 141 127 125 123 119 130 136 125 94 83 79 79 82 85 89 70 65 72 72 84 86 79 87 89 93 110 117 119 122 124 136 136 142 147 152 193 205 194 175 145 166 202 192 88 58 92 137 140 97 54 96 176 97 65 66 7 0 0 4 0 0 0 0 0 0 0 0 0 0 0 0 0 0 0 0 0 0 0 0 0 0 0 0 0 0 0 0 0 0 0 0 0 0 0 
0 0 0 0 0 0 0 0 0 0 0 8 9 9 26 75 108 133 153 113 76 74 80 76 99 161 139 128 132 128 178 165 121 113 130 143 155 139 128 119 100 81 76 77 92 80 88 105 116 77 69 68 73 84 82 88 101 103 103 109 108 118 119 126 116 98 59 57 70 140 143 150 171 152 166 184 153 92 81 95 136 138 98 61 164 159 73 77 66 4 0 0 3 0 0 0 0 0 0 0 0 0 0 0 0 0 0 0 0 0 0 0 0 0 0 0 0 0 0 0 0 0 0 0 0 0 0 0 
0 0 0 0 0 0 0 0 0 0 0 8 15 14 20 67 96 130 151 126 85 76 84 90 113 142 142 127 132 137 187 174 134 107 112 137 133 123 133 135 99 81 74 83 101 77 83 95 117 127 95 75 88 89 121 92 88 111 126 108 101 123 123 131 131 121 84 80 111 125 80 145 185 177 189 191 141 116 125 125 134 142 104 116 190 151 65 86 58 5 0 0 2 0 0 0 0 0 0 0 0 0 0 0 0 0 0 0 0 0 0 0 0 0 0 0 0 0 0 0 0 0 0 0 0 0 0 0 
0 0 0 0 0 0 0 0 0 0 0 7 15 16 18 53 85 124 147 132 95 82 80 110 116 124 152 150 119 112 168 207 185 158 159 136 124 131 148 131 101 87 80 81 82 76 90 100 102 85 102 114 120 147 113 88 91 113 140 100 107 121 128 142 163 169 174 165 170 174 149 160 171 184 186 163 112 114 142 132 139 162 139 155 181 133 90 87 39 9 1 0 1 0 0 0 0 0 0 0 0 0 0 0 0 0 0 0 0 0 0 0 0 0 0 0 0 0 0 0 0 0 0 0 0 0 0 0 
0 0 0 0 0 0 0 0 0 0 0 9 17 16 16 42 81 113 147 151 115 124 101 120 122 101 118 151 136 146 202 214 197 174 144 88 88 108 123 120 117 98 87 86 84 82 109 122 98 79 85 117 147 155 106 92 93 110 138 131 118 120 118 127 136 138 148 160 181 201 176 167 170 190 194 152 92 87 114 127 135 156 162 177 151 90 64 75 19 8 1 1 1 0 0 0 0 0 0 0 0 0 0 0 0 0 0 0 0 0 0 0 0 0 0 0 0 0 0 0 0 0 0 0 0 0 0 0 
0 0 0 0 0 0 0 0 0 0 0 4 12 15 16 20 56 89 122 160 135 150 154 130 137 137 92 99 145 150 211 224 195 130 149 130 109 109 91 96 107 112 100 93 93 91 111 126 118 101 96 100 121 137 134 99 97 102 111 127 122 100 88 113 103 91 118 141 151 127 129 162 176 182 187 153 102 102 115 129 136 154 175 163 139 109 77 86 25 14 5 2 3 0 0 0 0 0 0 0 0 0 0 0 0 0 0 0 0 0 0 0 0 0 0 0 0 0 0 0 0 0 0 0 0 0 0 0 
0 0 0 0 0 0 0 0 0 0 0 7 4 12 15 17 38 84 116 150 169 152 164 129 116 127 99 63 110 164 216 224 198 162 169 143 147 147 131 125 112 115 111 91 90 109 101 121 126 113 98 87 114 120 116 95 97 98 83 81 105 77 61 75 68 58 120 139 125 104 136 166 175 184 162 131 100 107 126 133 135 163 162 139 111 117 92 68 19 11 3 4 4 0 0 0 0 0 0 0 0 0 0 0 0 0 0 0 0 0 0 0 0 0 0 0 0 0 0 0 0 0 0 0 0 0 0 0 
0 0 0 0 0 0 0 0 0 0 0 7 3 9 14 14 28 71 106 131 164 171 164 114 124 136 114 73 79 158 194 210 206 209 193 159 165 153 136 136 121 101 93 97 98 87 89 98 99 90 82 78 82 113 92 86 82 78 61 66 107 103 112 89 49 47 127 154 150 146 147 156 168 158 155 157 116 92 112 135 121 143 150 123 97 103 94 43 11 7 1 0 5 0 0 0 0 0 0 0 0 0 0 0 0 0 0 0 0 0 0 0 0 0 0 0 0 0 0 0 0 0 0 0 0 0 0 0 
0 0 0 0 0 0 0 0 0 0 0 8 3 2 15 14 18 52 94 121 144 179 171 163 131 135 124 94 87 128 181 202 212 220 201 160 161 155 134 92 62 65 79 85 68 82 77 66 66 83 92 84 63 63 101 99 77 61 56 73 110 107 120 154 121 91 100 132 134 133 149 159 123 99 144 177 148 103 114 140 110 119 134 114 90 75 73 28 13 6 0 0 3 2 0 0 0 0 0 0 0 0 0 0 0 0 0 0 0 0 0 0 0 0 0 0 0 0 0 0 0 0 0 0 0 0 0 0 
0 0 0 0 0 0 0 0 0 0 0 4 7 1 11 14 15 34 86 115 124 179 173 157 166 150 124 94 100 119 140 182 201 178 193 194 186 172 154 84 55 73 77 79 90 87 81 55 62 97 132 126 85 81 123 98 70 54 60 80 81 84 80 122 141 106 122 134 138 150 152 116 58 83 144 177 167 167 186 177 144 123 107 114 88 87 44 13 6 5 0 0 1 3 0 0 0 0 0 0 0 0 0 0 0 0 0 0 0 0 0 0 0 0 0 0 0 0 0 0 0 0 0 0 0 0 0 0 
0 0 0 0 0 0 0 0 0 0 0 0 8 6 6 18 18 24 70 88 98 166 192 179 177 154 125 106 99 114 114 97 138 183 192 173 175 183 172 126 66 85 93 90 85 90 88 68 93 123 124 127 112 91 113 107 91 53 46 79 90 91 94 124 147 150 142 148 149 140 98 67 57 111 148 178 178 186 211 171 132 103 132 131 48 72 25 15 7 6 2 0 1 4 0 0 0 0 0 0 0 0 0 0 0 0 0 0 0 0 0 0 0 0 0 0 0 0 0 0 0 0 0 0 0 0 0 0 
0 0 0 0 0 0 0 0 0 0 0 0 0 4 6 6 11 17 51 81 70 135 195 186 179 174 130 123 130 119 106 79 65 115 154 154 155 149 135 128 105 101 110 106 111 128 134 133 131 114 103 104 128 134 133 135 143 147 129 138 160 167 146 165 174 174 163 155 118 88 65 74 87 92 114 177 187 199 205 196 155 109 152 105 51 57 19 15 7 6 4 0 3 3 0 0 0 0 0 0 0 0 0 0 0 0 0 0 0 0 0 0 0 0 0 0 0 0 0 0 0 0 0 0 0 0 0 0 
0 0 0 0 0 0 0 0 0 0 0 0 0 0 3 7 7 9 34 78 56 94 155 163 172 149 129 131 163 128 104 84 65 65 119 150 156 151 142 136 147 164 129 140 149 158 129 106 118 115 109 112 126 150 166 166 178 158 134 130 157 173 161 164 166 177 182 155 112 92 95 110 100 85 98 171 190 201 184 189 174 135 138 40 65 39 18 14 10 4 5 6 7 2 0 0 0 0 0 0 0 0 0 0 0 0 0 0 0 0 0 0 0 0 0 0 0 0 0 0 0 0 0 0 0 0 0 0 
0 0 0 0 0 0 0 0 0 0 1 3 0 0 3 7 7 6 18 64 64 77 128 148 163 127 115 133 167 141 113 83 75 75 78 128 159 150 147 153 174 186 136 132 163 159 112 106 111 93 102 126 141 121 101 97 107 132 133 135 132 126 150 166 151 154 149 135 105 91 103 110 96 90 103 160 175 180 165 181 153 116 85 21 69 24 17 12 9 4 1 3 2 0 0 0 0 0 0 0 0 0 0 0 0 0 0 0 0 0 0 0 0 0 0 0 0 0 0 0 0 0 0 0 0 0 0 0 
0 0 0 0 0 0 0 0 0 0 4 8 8 7 6 5 9 6 11 44 60 53 119 164 137 110 110 142 170 182 138 96 81 76 82 89 111 154 167 162 160 160 153 137 164 144 116 150 154 141 144 165 157 142 119 116 114 127 127 146 145 147 169 152 123 137 149 157 144 120 122 111 94 99 121 130 153 161 140 145 133 102 50 32 64 22 17 12 8 3 0 0 0 0 0 0 0 0 0 0 0 0 0 0 0 0 0 0 0 0 0 0 0 0 0 0 0 0 0 0 0 0 0 0 0 0 0 0 
0 0 0 0 0 0 0 0 0 0 1 7 15 19 8 1 6 7 9 30 68 69 104 131 85 90 109 139 168 169 162 123 97 87 83 86 97 108 112 113 122 124 135 143 148 136 136 158 158 151 145 147 141 144 136 126 117 114 107 124 123 144 133 136 110 130 167 190 162 118 104 95 87 100 135 122 112 147 122 105 84 94 50 80 60 21 16 15 8 6 1 0 0 0 0 0 0 0 0 0 0 0 0 0 0 0 0 0 0 0 0 0 0 0 0 0 0 0 0 0 0 0 0 0 0 0 0 0 
0 0 0 0 0 0 0 0 0 0 0 3 13 16 11 2 3 9 11 22 48 78 117 135 87 95 89 105 175 185 146 133 102 96 97 99 107 107 108 108 99 93 89 112 119 105 126 148 158 163 143 123 125 139 148 123 97 70 63 89 115 150 120 142 138 140 185 213 174 111 82 66 65 97 159 135 148 167 129 64 88 98 63 80 36 18 14 12 6 3 6 1 1 4 2 0 0 0 0 0 0 0 0 0 0 0 0 0 0 0 0 0 0 0 0 0 0 0 0 0 0 0 0 0 0 0 0 0 
0 0 0 0 0 0 0 0 0 0 0 6 13 10 9 9 1 8 18 20 23 63 130 156 113 89 89 133 176 193 116 84 95 80 85 93 102 117 125 124 114 109 130 130 138 141 108 123 148 158 155 161 173 151 120 104 109 115 108 109 144 167 153 163 146 141 193 207 147 82 49 49 69 129 159 145 177 148 103 63 89 91 41 53 17 20 15 13 6 0 6 12 14 9 9 0 0 0 0 0 0 0 0 0 0 0 0 0 0 0 0 0 0 0 0 0 0 0 0 0 0 0 0 0 0 0 0 0 
0 0 0 0 0 0 0 0 0 0 0 3 12 12 9 9 9 11 13 14 18 24 102 149 147 112 76 125 162 176 146 95 93 75 55 59 75 101 127 130 122 116 153 154 136 152 135 120 139 156 166 168 157 161 129 108 114 118 112 113 144 163 158 157 137 145 197 182 135 55 99 116 133 165 143 129 157 100 63 31 57 79 70 27 9 18 20 14 6 7 12 10 14 9 3 0 0 0 0 0 0 0 0 0 0 0 0 0 0 0 0 0 0 0 0 0 0 0 0 0 0 0 0 0 0 0 0 0 
0 0 0 0 0 0 0 0 0 0 0 0 9 16 9 9 8 6 10 8 21 25 54 143 144 119 133 139 126 163 158 149 142 124 74 55 65 82 102 117 126 155 193 186 115 136 143 115 123 153 167 161 166 170 171 164 150 120 100 108 125 109 145 147 145 136 172 180 153 124 135 173 161 146 113 73 101 66 48 30 86 63 32 13 2 10 13 18 14 11 10 3 6 3 0 0 0 0 0 0 0 0 0 0 0 0 0 0 0 0 0 0 0 0 0 0 0 0 0 0 0 0 0 0 0 0 0 0 
0 0 0 0 0 0 0 0 0 0 0 0 0 8 10 8 5 4 7 15 20 26 31 67 121 112 146 119 87 142 132 132 163 171 151 117 111 121 111 121 165 200 198 144 149 171 189 178 184 190 171 174 176 166 177 183 170 154 141 137 170 182 190 179 229 203 169 156 124 134 110 103 81 45 52 41 64 67 78 93 62 36 25 8 2 9 11 13 6 10 10 8 8 1 0 0 0 0 0 0 0 0 0 0 0 0 0 0 0 0 0 0 0 0 0 0 0 0 0 0 0 0 0 0 0 0 0 0 
0 0 0 0 0 0 0 0 0 0 0 0 0 1 8 6 3 0 0 8 10 20 23 40 88 122 122 51 48 117 126 133 151 163 155 147 155 185 227 230 208 200 222 171 153 200 187 145 155 172 151 142 121 112 157 188 172 158 177 126 123 156 198 173 145 180 145 131 103 105 71 42 52 37 55 73 111 50 49 50 42 34 29 14 21 4 11 11 5 8 9 17 8 0 0 0 0 0 0 0 0 0 0 0 0 0 0 0 0 0 0 0 0 0 0 0 0 0 0 0 0 0 0 0 0 0 0 0 
0 0 0 0 0 0 0 0 0 0 0 0 0 0 4 13 10 7 0 1 5 7 13 20 34 45 29 25 34 97 93 71 80 111 90 100 90 91 101 110 142 149 184 154 144 164 137 87 84 98 99 90 79 75 84 92 92 89 75 55 65 96 74 145 116 155 186 150 75 80 74 75 112 62 43 66 120 42 24 23 29 29 18 2 0 6 16 21 16 8 8 1 0 0 0 0 0 0 0 0 0 0 0 0 0 0 0 0 0 0 0 0 0 0 0 0 0 0 0 0 0 0 0 0 0 0 0 0 
0 0 0 0 0 0 0 0 0 0 0 0 0 0 0 0 8 9 4 0 2 5 8 12 23 22 21 22 35 89 80 49 59 93 52 56 61 63 102 123 150 113 68 68 106 109 70 68 79 94 79 76 96 105 112 95 71 64 68 73 95 127 71 59 68 106 118 134 141 135 57 63 122 67 37 59 117 43 22 24 30 30 14 2 1 5 13 12 7 2 0 0 0 0 0 0 0 0 0 0 0 0 0 0 0 0 0 0 0 0 0 0 0 0 0 0 0 0 0 0 0 0 0 0 0 0 0 0 
0 0 0 0 0 0 0 0 0 0 0 0 0 0 0 0 0 2 1 0 1 3 5 19 18 22 17 20 28 78 93 52 55 94 63 58 64 102 97 120 157 174 111 91 123 143 93 84 100 91 56 55 73 88 81 62 56 61 50 55 80 125 91 84 104 139 133 104 140 94 85 116 139 61 31 41 100 30 13 17 21 15 10 4 4 0 0 3 0 0 0 0 0 0 0 0 0 0 0 0 0 0 0 0 0 0 0 0 0 0 0 0 0 0 0 0 0 0 0 0 0 0 0 0 0 0 0 0 
0 0 0 0 0 0 0 0 0 0 0 0 0 0 0 0 0 0 0 0 0 0 4 11 10 15 18 16 19 49 88 38 45 91 71 82 65 110 129 142 173 188 166 125 138 130 96 74 81 92 88 71 40 48 46 54 64 62 54 50 69 133 112 134 162 152 72 56 117 129 177 179 167 146 121 61 61 35 25 27 20 13 0 0 0 0 0 0 0 0 0 0 0 0 0 0 0 0 0 0 0 0 0 0 0 0 0 0 0 0 0 0 0 0 0 0 0 0 0 0 0 0 0 0 0 0 0 0 
0 0 0 0 0 0 0 0 0 0 0 0 0 0 0 0 0 0 0 0 0 0 0 3 2 6 24 32 12 16 36 39 38 55 57 63 59 116 94 106 166 232 217 129 128 96 151 166 170 96 106 114 89 101 93 91 98 69 65 87 99 138 143 107 89 110 130 60 162 201 207 223 196 146 103 42 67 22 6 6 3 0 2 2 3 1 2 3 0 0 0 0 0 0 0 0 0 0 0 0 0 0 0 0 0 0 0 0 0 0 0 0 0 0 0 0 0 0 0 0 0 0 0 0 0 0 0 0 
0 0 0 0 0 0 0 0 0 0 0 0 0 0 0 0 0 0 0 0 0 0 0 0 8 11 25 24 15 20 62 44 35 59 42 41 38 91 113 78 139 141 122 62 73 83 109 102 105 121 114 126 142 134 141 108 120 109 133 140 136 127 99 82 72 47 86 114 142 155 172 117 104 110 78 42 78 20 5 8 2 2 0 1 7 14 20 21 15 9 0 0 0 0 0 0 0 0 0 0 0 0 0 0 0 0 0 0 0 0 0 0 0 0 0 0 0 0 0 0 0 0 0 0 0 0 0 0 
0 0 0 0 0 0 0 0 0 0 0 0 0 0 0 0 0 0 0 0 0 0 1 3 17 13 16 21 19 22 65 80 42 66 45 60 55 36 68 109 112 118 95 78 92 79 70 86 110 132 110 89 130 134 124 103 116 123 134 137 139 129 101 63 61 64 82 80 91 80 57 48 44 85 40 55 91 27 19 19 20 9 1 0 0 3 12 16 13 7 0 0 0 0 0 0 0 0 0 0 0 0 0 0 0 0 0 0 0 0 0 0 0 0 0 0 0 0 0 0 0 0 0 0 0 0 0 0 
0 0 0 0 0 0 0 0 0 0 0 0 0 0 0 0 0 0 0 0 0 0 0 3 9 14 18 23 24 26 54 109 60 78 58 88 87 79 82 105 105 103 97 115 123 100 106 110 121 101 94 69 109 112 114 108 123 126 129 107 76 78 64 55 54 63 84 77 68 76 86 66 50 85 52 52 95 30 26 23 18 14 2 0 0 2 10 16 15 9 0 0 0 0 0 0 0 0 0 0 0 0 0 0 0 0 0 0 0 0 0 0 0 0 0 0 0 0 0 0 0 0 0 0 0 0 0 0 
0 0 0 0 0 0 0 0 0 0 0 0 0 0 0 0 0 0 0 0 0 0 0 2 4 14 16 23 26 27 47 113 61 90 77 89 53 56 62 87 81 63 76 115 133 79 65 105 113 78 72 59 101 113 103 100 102 87 98 94 67 73 107 116 110 102 97 84 75 68 62 55 72 121 94 50 96 30 26 23 15 12 2 0 0 1 8 14 14 8 0 0 0 0 0 0 0 0 0 0 0 0 0 0 0 0 0 0 0 0 0 0 0 0 0 0 0 0 0 0 0 0 0 0 0 0 0 0 
0 0 0 0 0 0 0 0 0 0 0 0 0 0 0 0 0 0 0 0 0 0 0 0 4 10 14 20 26 29 41 114 63 79 86 82 34 40 46 50 54 53 87 121 110 96 63 86 119 64 45 45 78 89 87 76 65 58 61 59 46 89 115 106 128 121 123 91 84 78 62 46 36 103 135 57 101 34 26 21 15 10 1 0 0 3 9 15 15 11 1 0 0 0 0 0 0 0 0 0 0 0 0 0 0 0 0 0 0 0 0 0 0 0 0 0 0 0 0 0 0 0 0 0 0 0 0 0 
0 0 0 0 0 0 0 0 0 0 0 0 0 0 0 0 0 0 0 0 0 0 0 0 1 8 11 17 25 29 35 104 67 64 79 81 41 41 43 46 50 68 109 109 80 107 105 108 122 77 43 44 62 72 74 61 49 47 45 47 49 94 113 89 101 107 141 114 85 80 69 47 33 73 139 65 110 42 27 19 15 8 0 0 0 2 12 17 19 15 4 0 0 0 0 0 0 0 0 0 0 0 0 0 0 0 0 0 0 0 0 0 0 0 0 0 0 0 0 0 0 0 0 0 0 0 0 0 
0 0 0 0 0 0 0 0 0 0 0 0 0 0 0 0 0 0 0 0 0 0 0 0 0 1 11 8 22 29 40 87 73 51 70 80 43 41 45 47 57 84 131 119 86 115 124 119 112 98 49 55 66 65 57 63 53 49 47 48 65 93 124 76 75 90 144 134 93 77 64 42 31 64 121 76 104 41 24 17 17 8 0 0 0 1 6 12 17 13 4 0 0 0 0 0 0 0 0 0 0 0 0 0 0 0 0 0 0 0 0 0 0 0 0 0 0 0 0 0 0 0 0 0 0 0 0 0 
0 0 0 0 0 0 0 0 0 0 0 0 0 0 0 0 0 0 0 0 0 0 0 0 0 0 7 11 16 25 36 70 79 36 62 84 45 38 47 49 65 77 125 140 99 100 104 73 108 110 52 55 70 59 57 65 65 60 37 48 68 106 121 67 71 83 135 127 87 72 52 42 34 61 91 68 57 26 20 19 19 10 0 0 0 0 4 13 15 14 5 0 0 0 0 0 0 0 0 0 0 0 0 0 0 0 0 0 0 0 0 0 0 0 0 0 0 0 0 0 0 0 0 0 0 0 0 0 
0 0 0 0 0 0 0 0 0 0 0 0 0 0 0 0 0 0 0 0 0 0 0 0 0 0 2 13 16 21 27 56 77 22 48 77 48 33 38 48 60 59 93 138 113 94 83 66 105 111 61 51 55 61 52 39 47 56 39 39 60 111 118 93 93 101 117 99 85 74 46 33 33 61 81 28 15 18 17 20 19 11 0 0 0 0 4 12 17 15 7 0 0 0 0 0 0 0 0 0 0 0 0 0 0 0 0 0 0 0 0 0 0 0 0 0 0 0 0 0 0 0 0 0 0 0 0 0 
0 0 0 0 0 0 0 0 0 0 0 0 0 0 0 0 0 0 0 0 0 0 0 0 0 0 0 9 12 19 20 23 25 14 32 74 59 36 30 57 73 50 80 123 82 59 48 49 91 106 68 52 47 44 38 35 46 45 39 40 68 111 127 114 96 101 101 117 85 86 58 37 37 70 72 30 18 16 17 18 19 12 0 0 0 0 5 14 16 14 7 0 0 0 0 0 0 0 0 0 0 0 0 0 0 0 0 0 0 0 0 0 0 0 0 0 0 0 0 0 0 0 0 0 0 0 0 0 
0 0 0 0 0 0 0 0 0 0 0 0 0 0 0 0 0 0 0 0 0 0 0 0 0 0 0 4 11 13 19 18 25 20 23 55 87 66 56 79 69 47 88 134 74 45 49 55 97 114 69 52 52 51 49 47 46 45 42 41 66 107 139 127 107 102 127 153 78 78 89 72 73 83 40 25 14 17 17 18 17 12 2 0 0 0 2 9 14 14 8 0 0 0 0 0 0 0 0 0 0 0 0 0 0 0 0 0 0 0 0 0 0 0 0 0 0 0 0 0 0 0 0 0 0 0 0 0 
0 0 0 0 0 0 0 0 0 0 0 0 0 0 0 0 0 0 0 0 0 0 0 0 0 0 0 0 10 7 16 17 21 21 33 25 51 86 84 67 43 46 103 149 93 59 70 92 122 144 86 52 53 53 47 37 44 60 53 45 61 100 139 115 70 66 128 170 94 55 83 92 76 39 27 13 11 17 17 18 16 13 2 0 0 0 0 7 13 13 8 1 0 0 0 0 0 0 0 0 0 0 0 0 0 0 0 0 0 0 0 0 0 0 0 0 0 0 0 0 0 0 0 0 0 0 0 0 
0 0 0 0 0 0 0 0 0 0 0 0 0 0 0 0 0 0 0 0 0 0 0 0 0 0 0 0 3 9 10 18 18 21 36 26 18 20 37 26 26 42 109 166 128 87 84 107 109 123 103 54 49 51 48 48 60 55 54 60 56 82 128 124 88 72 140 182 108 40 37 37 20 21 21 10 10 20 17 18 16 11 2 0 0 0 1 7 13 15 9 0 0 0 0 0 0 0 0 0 0 0 0 0 0 0 0 0 0 0 0 0 0 0 0 0 0 0 0 0 0 0 0 0 0 0 0 0 
0 0 0 0 0 0 0 0 0 0 0 0 0 0 0 0 0 0 0 0 0 0 0 0 0 0 0 0 0 10 7 16 17 17 41 29 19 15 22 28 25 42 100 168 145 117 118 117 103 123 97 58 51 49 53 65 70 58 53 53 48 63 119 120 128 113 158 177 100 36 27 27 19 19 14 7 12 17 16 15 15 11 2 0 0 0 0 8 15 15 11 2 0 0 0 0 0 0 0 0 0 0 0 0 0 0 0 0 0 0 0 0 0 0 0 0 0 0 0 0 0 0 0 0 0 0 0 0 
0 0 0 0 0 0 0 0 0 0 0 0 0 0 0 0 0 0 0 0 0 0 0 0 0 0 0 0 0 6 8 13 16 17 38 32 20 17 19 29 30 41 71 147 178 158 148 120 82 75 62 56 52 49 55 62 61 62 58 45 44 52 101 118 154 156 168 147 74 47 27 25 18 21 11 9 11 15 14 14 14 9 2 0 0 0 0 9 17 17 10 2 0 0 0 0 0 0 0 0 0 0 0 0 0 0 0 0 0 0 0 0 0 0 0 0 0 0 0 0 0 0 0 0 0 0 0 0 
0 0 0 0 0 0 0 0 0 0 0 0 0 0 0 0 0 0 0 0 0 0 0 0 0 0 0 0 0 4 8 11 13 18 34 32 23 19 21 30 29 35 47 74 142 167 159 120 60 44 47 58 60 56 64 74 64 64 58 39 44 47 83 116 170 180 152 79 56 53 28 20 20 21 11 10 9 13 12 13 14 8 2 0 0 0 2 8 14 13 9 0 0 0 0 0 0 0 0 0 0 0 0 0 0 0 0 0 0 0 0 0 0 0 0 0 0 0 0 0 0 0 0 0 0 0 0 0 
0 0 0 0 0 0 0 0 0 0 0 0 0 0 0 0 0 0 0 0 0 0 0 0 0 0 0 0 0 5 6 11 11 16 37 31 25 18 23 30 30 31 31 33 48 98 119 84 54 42 49 72 67 79 106 116 88 82 81 46 49 52 75 103 123 107 68 60 54 47 19 17 24 23 15 9 11 13 13 14 13 6 1 0 0 0 0 6 12 13 10 3 0 0 0 0 0 0 0 0 0 0 0 0 0 0 0 0 0 0 0 0 0 0 0 0 0 0 0 0 0 0 0 0 0 0 0 0 
