P2
128 99
215
0 0 0 0 0 0 0 0 0 0 0 0 0 0 0 0 0 0 0 0 0 0 0 0 0 0 0 0 0 0 0 0 0 0 0 0 0 0 0 0 0 0 0 0 0 0 0 0 0 0 0 0 0 0 0 0 0 0 0 0 0 0 0 0 0 0 0 0 0 0 0 0 0 0 0 0 0 0 0 0 0 0 0 0 0 0 0 0 0 0 0 0 0 0 0 0 0 0 0 0 0 0 0 0 0 0 0 0 0 0 0 0 0 0 0 0 0 0 0 0 0 0 0 0 0 0 0 0 
0 0 0 0 0 0 0 0 0 0 0 0 0 0 0 0 0 0 0 0 0 0 0 0 0 0 0 0 0 0 0 0 0 0 0 0 0 0 0 0 0 0 0 0 0 0 0 0 0 0 0 0 0 0 0 0 0 0 0 0 0 0 0 0 0 0 0 0 0 0 0 0 0 0 0 0 0 0 0 0 0 0 0 0 0 0 0 0 0 0 0 0 0 0 0 0 0 0 0 0 0 0 0 0 0 0 0 0 0 0 0 0 0 0 0 0 0 0 0 0 0 0 0 0 0 0 0 0 
0 0 0 0 0 0 0 0 0 0 0 0 0 0 0 0 0 0 0 0 0 0 0 0 0 0 0 0 0 0 0 0 0 0 0 0 0 0 0 0 0 0 0 0 0 0 0 0 0 0 1 3 4 5 2 0 0 0 0 0 0 0 0 0 0 0 0 0 0 0 0 0 0 0 0 0 0 0 0 0 0 0 0 0 0 0 0 0 0 0 0 0 0 0 0 0 0 0 0 0 0 0 0 0 0 0 0 0 0 0 0 0 0 0 0 0 0 0 0 0 0 0 0 0 0 0 0 0 
0 0 0 0 0 0 0 0 0 0 0 0 0 0 0 0 0 0 0 0 0 0 0 0 0 0 0 0 0 0 0 0 0 0 0 0 0 0 0 0 0 0 0 3 9 13 15 18 19 20 21 23 25 24 22 20 17 17 19 10 3 0 0 0 0 0 0 0 0 0 0 0 0 0 0 0 0 0 0 0 0 0 0 0 0 0 0 0 0 0 0 0 0 0 0 0 0 0 0 0 0 0 0 0 0 0 0 0 0 0 0 0 0 0 0 0 0 0 0 0 0 0 0 0 0 0 0 0 
0 0 0 0 0 0 0 0 0 0 0 0 0 0 0 0 0 0 0 0 0 0 0 0 0 0 0 0 0 0 0 0 0 0 0 0 0 0 0 0 5 16 16 25 23 32 52 75 95 114 127 135 139 139 137 130 119 101 78 52 30 24 20 6 2 0 0 0 0 0 0 0 0 0 0 0 0 0 0 0 0 0 0 0 0 0 0 0 0 0 0 0 0 0 0 0 0 0 0 0 0 0 0 0 0 0 0 0 0 0 0 0 0 0 0 0 0 0 0 0 0 0 0 0 0 0 0 0 
0 0 0 0 0 0 0 0 0 0 0 0 0 0 0 0 0 0 0 0 0 0 0 0 0 0 0 0 0 0 0 0 0 0 0 0 0 0 10 17 21 29 39 68 102 132 153 159 161 159 160 161 161 161 163 162 159 155 151 146 137 117 78 40 23 16 6 1 0 0 0 0 0 0 0 0 0 0 0 0 0 0 0 0 0 0 0 0 0 0 0 0 0 0 0 0 0 0 0 0 0 0 0 0 0 0 0 0 0 0 0 0 0 0 0 0 0 0 0 0 0 0 0 0 0 0 0 0 
0 0 0 0 0 0 0 0 0 0 0 0 0 0 0 0 0 0 0 0 0 0 0 0 0 0 0 0 0 0 0 0 0 0 0 0 8 18 21 30 51 95 135 162 169 162 165 174 180 183 182 179 178 178 180 181 181 179 178 175 167 155 147 141 118 72 32 20 10 2 0 0 0 0 0 0 0 0 0 0 0 0 0 0 0 0 0 0 0 0 0 0 0 0 0 0 0 0 0 0 0 0 0 0 0 0 0 0 0 0 0 0 0 0 0 0 0 0 0 0 0 0 0 0 0 0 0 0 
0 0 0 0 0 0 0 0 0 0 0 0 0 0 0 0 0 0 0 0 0 0 0 0 0 0 0 0 0 0 0 0 0 0 8 19 30 30 58 108 152 173 171 167 172 178 174 162 151 153 160 167 168 159 155 162 169 173 174 176 179 179 175 167 153 147 138 99 39 22 12 1 0 0 0 0 0 0 0 0 0 0 0 0 0 0 0 0 0 0 0 0 0 0 0 0 0 0 0 0 0 0 0 0 0 0 0 0 0 0 0 0 0 0 0 0 0 0 0 0 0 0 0 0 0 0 0 0 
0 0 0 0 0 0 0 0 0 0 0 0 0 0 0 0 0 0 0 0 0 0 0 0 0 0 0 0 0 0 0 0 3 29 28 25 52 110 156 174 166 167 176 175 169 169 162 161 174 190 194 189 184 180 187 196 195 198 202 194 182 174 171 175 178 172 157 149 144 103 42 23 9 0 0 0 0 0 0 0 0 0 0 0 0 0 0 0 0 0 0 0 0 0 0 0 0 0 0 0 0 0 0 0 0 0 0 0 0 0 0 0 0 0 0 0 0 0 0 0 0 0 0 0 0 0 0 0 
0 0 0 0 0 0 0 0 0 0 0 0 0 0 0 0 0 0 0 0 0 0 0 0 0 0 0 0 0 0 0 23 25 22 36 99 152 174 163 163 175 177 168 153 153 168 170 158 147 130 132 140 142 129 126 130 147 161 180 197 215 215 199 184 176 175 179 173 162 153 141 80 27 19 2 0 0 0 0 0 0 0 0 0 0 0 0 0 0 0 0 0 0 0 0 0 0 0 0 0 0 0 0 0 0 0 0 0 0 0 0 0 0 0 0 0 0 0 0 0 0 0 0 0 0 0 0 0 
0 0 0 0 0 0 0 0 0 0 0 0 0 0 0 0 0 0 0 0 0 0 0 0 0 0 0 0 0 11 27 21 22 75 140 171 167 162 174 180 179 170 168 181 176 150 131 123 109 109 112 111 107 108 108 111 110 117 129 141 158 182 201 215 214 195 175 174 180 173 158 151 116 43 22 5 0 0 0 0 0 0 0 0 0 0 0 0 0 0 0 0 0 0 0 0 0 0 0 0 0 0 0 0 0 0 0 0 0 0 0 0 0 0 0 0 0 0 0 0 0 0 0 0 0 0 0 0 
0 0 0 0 0 0 0 0 0 0 0 0 0 0 0 0 0 0 0 0 0 0 0 0 0 0 0 0 23 21 20 46 118 161 167 157 174 180 181 184 186 182 164 142 118 104 108 103 107 124 110 110 115 122 138 133 126 113 109 116 120 130 153 170 187 206 215 202 181 172 177 171 155 139 62 22 10 0 0 0 0 0 0 0 0 0 0 0 0 0 0 0 0 0 0 0 0 0 0 0 0 0 0 0 0 0 0 0 0 0 0 0 0 0 0 0 0 0 0 0 0 0 0 0 0 0 0 0 
0 0 0 0 0 0 0 0 0 0 0 0 0 0 0 0 0 0 0 0 0 0 0 0 0 0 5 27 18 24 70 139 166 158 164 178 183 189 196 179 158 143 128 127 134 140 139 138 144 138 132 138 137 132 140 151 155 157 152 146 142 140 134 137 157 167 182 201 215 199 173 175 176 158 143 80 22 13 0 0 0 0 0 0 0 0 0 0 0 0 0 0 0 0 0 0 0 0 0 0 0 0 0 0 0 0 0 0 0 0 0 0 0 0 0 0 0 0 0 0 0 0 0 0 0 0 0 0 
0 0 0 0 0 0 0 0 0 0 0 0 0 0 0 0 0 0 0 0 0 0 0 0 0 10 26 16 29 91 151 167 159 175 179 184 197 187 155 144 141 140 149 158 164 156 147 142 128 116 113 113 109 107 113 133 142 142 139 142 147 154 165 162 150 146 153 164 182 207 212 185 169 175 161 146 86 24 13 0 0 0 0 0 0 0 0 0 0 0 0 0 0 0 0 0 0 0 0 0 0 0 0 0 0 0 0 0 0 0 0 0 0 0 0 0 0 0 0 0 0 0 0 0 0 0 0 0 
0 0 0 0 0 0 0 0 0 0 0 0 0 0 0 0 0 0 0 0 0 0 0 0 13 24 16 34 105 155 161 169 182 179 186 194 166 145 149 147 149 158 163 160 153 147 136 125 123 124 122 119 116 117 120 124 136 140 137 139 138 133 140 156 169 168 152 143 152 166 189 212 195 170 172 166 152 93 29 12 0 0 0 0 0 0 0 0 0 0 0 0 0 0 0 0 0 0 0 0 0 0 0 0 0 0 0 0 0 0 0 0 0 0 0 0 0 0 0 0 0 0 0 0 0 0 0 0 
0 0 0 0 0 0 0 0 0 0 0 0 0 0 0 0 0 0 0 0 0 0 2 20 21 12 42 115 154 158 172 180 177 180 183 157 152 155 150 152 152 145 142 144 143 138 133 134 137 136 136 126 122 128 132 133 132 131 132 131 126 123 120 128 143 155 168 166 144 137 154 182 210 200 176 175 167 157 103 31 10 0 0 0 0 0 0 0 0 0 0 0 0 0 0 0 0 0 0 0 0 0 0 0 0 0 0 0 0 0 0 0 0 0 0 0 0 0 0 0 0 0 0 0 0 0 0 0 
0 0 0 0 0 0 0 0 0 0 0 0 0 0 0 0 0 0 0 0 0 3 22 15 13 52 123 156 160 176 181 172 177 177 158 151 145 151 147 140 135 137 141 129 107 104 113 123 121 117 128 115 113 127 123 121 129 132 131 127 121 120 112 108 119 132 140 155 172 161 135 143 175 207 202 172 169 167 163 114 34 8 0 0 0 0 0 0 0 0 0 0 0 0 0 0 0 0 0 0 0 0 0 0 0 0 0 0 0 0 0 0 0 0 0 0 0 0 0 0 0 0 0 0 0 0 0 0 
0 0 0 0 0 0 0 0 0 0 0 0 0 0 0 0 0 0 0 0 4 21 13 15 64 136 155 166 176 179 170 171 172 158 145 139 142 133 129 136 140 142 131 100 82 81 83 87 84 86 85 92 85 95 91 91 102 117 125 132 129 122 117 114 105 104 117 132 144 166 168 134 129 167 204 198 174 168 168 169 118 37 7 0 0 0 0 0 0 0 0 0 0 0 0 0 0 0 0 0 0 0 0 0 0 0 0 0 0 0 0 0 0 0 0 0 0 0 0 0 0 0 0 0 0 0 0 0 
0 0 0 0 0 0 0 0 0 0 0 0 0 0 0 0 0 0 0 4 21 11 16 73 140 152 170 173 177 172 175 173 154 141 134 129 122 128 125 129 125 108 89 77 82 88 94 102 106 101 100 103 108 115 127 131 137 135 131 133 137 135 127 120 108 100 100 115 125 135 156 161 131 121 152 199 195 175 168 166 164 108 31 4 0 0 0 0 0 0 0 0 0 0 0 0 0 0 0 0 0 0 0 0 0 0 0 0 0 0 0 0 0 0 0 0 0 0 0 0 0 0 0 0 0 0 0 0 
0 0 0 0 0 0 0 0 0 0 0 0 0 0 0 0 0 0 3 20 10 19 80 138 144 171 168 171 165 178 175 151 136 132 130 122 119 120 124 120 95 82 94 110 114 115 126 131 129 124 120 131 134 140 144 148 153 151 149 148 151 151 147 137 119 109 106 104 117 125 127 148 155 130 117 152 195 188 171 164 164 157 98 23 3 0 0 0 0 0 0 0 0 0 0 0 0 0 0 0 0 0 0 0 0 0 0 0 0 0 0 0 0 0 0 0 0 0 0 0 0 0 0 0 0 0 0 0 
0 0 0 0 0 0 0 0 0 0 0 0 0 0 0 0 0 1 17 11 20 77 137 141 171 166 169 159 179 176 148 132 122 127 112 108 120 125 119 106 102 120 136 138 137 133 134 133 128 121 120 128 132 134 131 131 132 131 132 135 139 146 154 156 143 122 113 109 108 107 118 123 144 150 128 115 157 197 184 175 162 171 142 79 10 0 0 0 0 0 0 0 0 0 0 0 0 0 0 0 0 0 0 0 0 0 0 0 0 0 0 0 0 0 0 0 0 0 0 0 0 0 0 0 0 0 0 0 
0 0 0 0 0 0 0 0 0 0 0 0 0 0 0 0 0 11 14 16 69 136 136 167 172 167 155 169 178 145 126 120 129 116 105 123 133 124 114 115 131 143 144 141 138 136 135 127 125 122 121 123 123 123 122 120 119 119 121 126 128 128 141 152 150 137 124 117 113 107 103 114 126 146 148 129 120 165 189 178 172 162 166 123 50 4 0 0 0 0 0 0 0 0 0 0 0 0 0 0 0 0 0 0 0 0 0 0 0 0 0 0 0 0 0 0 0 0 0 0 0 0 0 0 0 0 0 0 
0 0 0 0 0 0 0 0 0 0 0 0 0 0 0 0 3 17 12 53 131 133 156 173 163 157 152 177 146 122 117 125 108 103 122 139 129 113 109 126 144 147 142 139 135 132 132 127 126 125 115 118 123 125 126 122 123 121 120 122 126 125 129 140 146 144 132 122 118 113 105 103 109 130 143 141 124 126 164 170 178 167 167 149 106 24 1 0 0 0 0 0 0 0 0 0 0 0 0 0 0 0 0 0 0 0 0 0 0 1 0 0 0 0 0 0 0 0 0 0 0 0 0 0 0 0 0 0 
0 0 0 0 0 0 0 0 0 0 0 0 0 0 0 1 13 14 41 120 128 147 172 162 160 148 175 153 119 118 121 106 105 129 144 124 100 96 117 137 142 139 138 135 136 135 134 133 136 132 126 126 128 126 123 128 128 127 125 126 125 127 129 131 137 145 141 122 118 117 112 107 105 110 132 142 140 119 133 154 168 179 161 162 130 75 8 0 0 0 0 0 0 0 0 0 0 0 0 0 0 0 0 0 0 0 0 0 0 1 0 0 0 0 0 0 0 0 0 0 0 0 0 0 0 0 0 0 
0 0 0 0 0 0 0 0 0 0 0 0 0 0 0 7 16 24 92 130 131 162 166 154 150 159 168 125 109 124 110 108 131 143 123 90 85 107 130 137 133 128 132 131 129 129 127 122 124 127 126 122 121 118 113 121 119 120 121 124 118 119 126 128 131 138 142 133 120 119 115 110 108 106 113 135 140 132 124 143 143 176 166 165 147 109 28 1 0 0 0 0 0 0 0 0 0 0 0 0 0 0 0 0 0 0 0 0 0 1 0 0 0 0 0 0 0 0 0 0 0 0 0 0 0 0 0 0 
0 0 0 0 0 0 0 0 0 0 0 0 0 0 2 10 15 64 131 120 156 165 146 153 144 166 138 107 119 123 111 130 143 125 89 78 99 127 133 130 133 129 123 121 113 116 109 100 102 112 114 109 105 115 103 102 101 104 97 94 102 112 116 121 125 133 134 140 125 116 114 111 111 108 104 119 137 133 127 141 121 159 172 169 155 129 57 4 0 0 0 0 0 0 0 0 0 0 0 0 0 0 0 0 0 0 0 0 0 0 0 0 0 0 0 0 0 0 0 0 0 0 0 0 0 0 0 0 
0 0 0 0 0 0 0 0 0 0 0 0 0 0 5 9 31 107 130 137 159 154 146 149 143 158 111 106 123 111 129 146 127 92 78 89 120 134 134 130 122 113 100 95 99 100 98 88 83 94 110 105 99 105 88 93 91 90 90 82 80 82 96 111 123 126 120 132 137 120 116 115 114 112 107 110 132 129 130 141 114 130 170 171 158 142 90 13 0 0 0 0 0 0 0 0 0 0 0 0 0 0 0 0 0 0 0 0 0 0 0 0 0 0 0 0 0 0 0 0 0 0 0 0 0 0 0 0 
0 0 0 0 0 0 0 0 0 0 0 0 0 1 5 15 65 129 123 151 155 151 149 141 147 141 100 118 124 123 143 123 87 77 86 111 132 128 126 124 109 92 86 83 81 82 81 78 79 83 105 103 96 99 71 65 64 71 78 80 80 79 80 86 114 127 118 119 132 134 114 112 117 121 118 107 128 129 123 142 123 117 156 168 164 146 118 30 1 0 0 0 0 0 0 0 0 0 0 0 0 0 0 0 0 0 0 0 0 0 0 0 0 0 0 0 0 0 0 0 0 0 0 0 0 0 0 0 
0 0 0 0 0 0 0 0 0 0 0 0 0 2 9 29 100 129 132 154 156 147 141 133 144 121 103 128 126 137 137 98 75 80 107 131 126 116 119 120 98 83 77 76 74 75 78 81 83 80 73 80 79 67 55 53 53 58 68 74 79 82 82 81 91 117 117 119 126 141 128 109 108 121 122 114 127 128 116 132 129 113 140 167 166 149 135 49 2 0 0 0 0 0 0 0 0 0 0 0 0 0 0 0 0 0 0 0 0 0 0 0 0 0 0 0 0 0 0 0 0 0 0 0 0 0 0 0 
0 0 0 0 0 0 0 0 0 0 0 0 0 3 9 54 125 114 142 150 149 134 142 127 135 110 110 133 134 142 115 80 80 103 131 139 133 123 122 106 85 70 62 61 60 60 71 82 81 71 64 63 63 59 57 55 52 53 57 61 69 75 80 80 82 91 106 115 119 137 145 122 100 107 122 122 129 126 110 126 130 119 134 161 166 138 137 74 6 0 0 0 0 0 0 0 0 0 0 0 0 0 0 0 0 0 0 0 0 0 0 0 0 0 0 0 0 0 0 0 0 0 0 0 0 0 0 0 
0 0 0 0 0 0 0 0 0 0 0 0 0 6 15 82 131 122 148 146 136 134 139 119 132 110 119 134 134 124 92 79 103 133 138 135 125 111 101 85 74 68 63 56 58 59 64 72 77 74 75 75 77 77 76 73 69 69 66 63 63 64 72 80 82 83 99 113 111 120 145 147 114 92 112 125 127 123 106 121 139 120 130 149 172 139 136 93 9 0 0 0 0 0 0 0 0 0 0 0 0 0 0 0 0 0 0 0 0 1 0 0 0 0 0 0 0 0 0 0 0 0 0 0 0 0 0 0 
0 0 0 0 0 0 0 0 0 0 0 0 1 7 30 103 131 133 150 129 123 139 137 113 125 114 121 133 126 104 79 102 136 143 125 125 117 88 80 74 78 93 92 73 64 71 84 93 95 95 96 95 96 94 90 88 87 90 92 89 80 70 65 68 79 86 94 101 99 102 125 152 147 107 99 122 126 129 101 113 143 124 132 145 174 148 140 107 13 0 0 0 0 0 0 0 0 0 0 0 0 0 0 0 0 0 0 0 0 0 0 0 0 0 0 0 0 0 0 0 0 0 0 0 0 0 0 0 
0 0 0 0 0 0 0 0 0 0 0 0 2 6 44 114 129 139 143 115 124 141 131 114 123 115 114 128 109 88 94 136 145 127 106 115 102 74 64 69 86 101 105 98 88 93 96 94 91 90 84 85 85 66 58 56 55 65 82 99 111 101 82 77 93 106 92 89 86 91 107 134 156 145 102 115 126 129 104 109 140 129 132 135 170 151 139 117 20 0 0 0 0 0 0 0 0 0 0 0 0 0 0 0 0 0 0 0 0 0 0 0 0 0 0 0 0 0 0 0 0 0 0 0 0 0 0 0 
0 0 0 0 0 0 0 0 0 0 0 0 2 8 56 123 129 146 144 112 129 139 127 116 126 106 118 124 103 82 117 145 134 116 107 104 89 66 63 73 87 101 109 115 106 96 92 89 81 73 71 80 66 56 56 56 57 55 59 95 135 132 122 109 95 78 78 75 84 85 95 118 142 161 131 107 125 124 109 111 136 134 133 139 167 162 143 124 31 1 0 0 0 0 0 0 0 0 0 0 0 0 0 0 0 0 0 0 0 0 0 0 0 0 0 0 0 0 0 0 0 0 0 0 0 0 0 0 
0 0 0 0 0 0 0 0 0 0 0 0 2 8 63 129 130 150 131 118 139 133 121 116 126 107 117 115 90 81 133 140 124 104 97 91 84 79 75 83 93 105 110 117 116 103 91 81 71 58 57 71 64 58 58 58 58 56 57 82 120 115 103 75 58 65 78 80 94 92 92 99 122 150 156 126 124 118 104 111 129 137 134 134 167 177 145 131 45 1 0 0 0 0 0 0 0 0 0 0 0 0 0 0 0 0 0 0 0 0 0 0 0 0 0 0 0 0 0 0 0 0 0 0 0 0 0 0 
0 0 0 0 0 0 0 0 0 0 0 0 3 11 70 132 132 145 124 134 140 127 122 124 127 110 111 109 84 86 136 126 103 96 93 84 85 85 86 90 95 107 105 101 107 122 111 82 59 59 58 59 73 60 59 60 59 59 59 83 110 104 92 83 68 64 78 90 85 82 83 91 105 128 150 152 134 112 109 122 129 134 133 129 164 183 149 137 59 3 0 0 0 0 0 0 0 0 0 0 0 0 0 0 0 0 0 0 0 0 0 0 0 0 0 0 0 0 0 0 0 0 0 0 0 0 0 0 
0 0 0 0 0 0 0 0 0 0 0 0 3 12 74 134 135 147 124 146 139 123 123 125 139 120 102 108 86 91 137 112 92 91 89 73 57 55 59 69 83 91 93 84 90 98 122 98 66 63 64 62 79 71 63 74 71 62 67 90 103 93 89 81 68 66 72 82 80 77 74 75 88 115 135 161 167 119 113 128 129 131 137 125 156 184 149 139 67 5 0 0 0 0 0 0 0 0 0 0 0 0 0 0 0 0 0 0 0 0 0 0 0 0 0 0 0 0 0 0 0 0 0 0 0 0 0 0 
0 0 0 0 0 0 0 0 0 0 0 0 5 12 80 133 141 148 115 153 146 122 127 121 146 124 100 105 92 103 127 97 94 92 70 57 53 53 55 57 57 57 58 75 89 102 121 115 83 86 92 80 82 81 82 102 90 77 84 90 102 100 74 58 57 60 71 81 81 78 75 75 75 92 133 155 175 155 123 133 125 131 129 114 148 185 154 140 72 5 0 0 0 0 0 0 0 0 0 0 0 0 0 0 0 0 0 0 0 0 0 0 0 0 0 0 0 0 0 0 0 0 0 0 0 0 0 0 
0 0 0 0 0 0 0 0 0 0 0 0 7 10 86 131 144 151 117 158 143 115 130 124 148 130 105 102 104 126 113 94 96 77 64 55 56 57 57 60 56 57 57 58 69 87 88 111 98 91 101 110 94 89 103 97 87 83 77 95 92 62 61 67 70 73 77 86 90 92 87 82 80 95 116 150 167 181 150 124 121 130 123 108 134 184 158 145 85 7 0 0 0 0 0 0 0 0 0 0 0 0 0 0 0 0 0 0 0 0 0 0 0 0 0 0 0 0 0 0 0 0 0 0 0 0 0 0 
0 0 0 0 0 0 0 0 0 0 0 0 7 8 91 131 145 146 111 160 139 113 135 127 148 138 110 106 115 131 101 99 82 75 63 56 60 65 74 82 74 65 59 62 70 85 91 105 115 109 101 109 110 107 119 84 70 69 85 87 68 63 71 76 76 77 84 99 100 101 98 94 93 101 114 141 167 183 174 128 117 132 112 104 127 177 160 148 102 16 0 0 0 0 0 0 0 0 0 0 0 0 0 0 0 0 0 0 0 0 0 0 0 0 0 0 0 0 0 0 0 0 0 0 0 0 0 0 
0 0 0 0 0 0 0 0 0 0 0 0 8 9 93 127 151 143 112 161 133 110 127 122 139 147 116 111 142 135 106 90 78 76 67 66 74 83 82 78 77 80 79 77 82 90 106 109 125 127 130 134 132 122 138 112 100 93 90 84 68 68 67 61 61 61 68 79 85 88 90 87 100 121 118 121 165 175 188 138 113 129 102 99 125 173 162 147 108 27 0 0 0 0 0 0 0 0 0 0 0 0 0 0 0 0 0 0 0 0 0 0 0 0 0 0 0 0 0 0 0 0 0 0 0 0 0 0 
0 0 0 0 0 0 0 0 0 0 0 0 8 12 100 125 154 156 119 154 133 110 121 120 131 149 132 123 151 140 128 95 85 85 79 78 77 76 73 66 63 68 79 95 100 103 113 117 114 126 127 137 141 130 146 126 120 114 102 90 78 65 59 60 61 60 63 75 78 82 90 95 105 106 103 116 148 184 194 134 104 127 97 87 124 164 164 147 110 36 0 0 0 0 0 0 0 0 0 0 0 0 0 0 0 0 0 0 0 0 0 0 0 0 0 0 0 0 0 0 0 0 0 0 0 0 0 0 
0 0 0 0 0 0 0 0 0 0 0 0 8 14 100 124 153 157 109 145 134 112 114 122 118 132 142 143 168 150 131 98 100 93 73 70 71 65 59 59 62 70 84 99 108 110 106 118 107 124 127 126 126 125 135 134 130 127 116 96 77 59 61 60 61 60 60 73 82 81 83 96 103 94 98 109 138 182 180 116 98 124 96 76 113 149 165 148 113 44 1 0 0 0 0 0 0 0 0 0 0 0 0 0 0 0 0 0 0 0 0 0 0 0 0 0 0 0 0 0 0 0 0 0 0 0 0 0 
0 0 0 0 0 0 0 0 0 0 0 0 8 16 101 129 154 156 104 143 137 107 109 122 109 114 142 151 155 142 122 86 88 87 76 72 64 59 58 57 63 74 92 106 108 111 111 107 103 120 119 109 114 151 148 136 135 133 120 94 67 64 67 73 69 60 58 67 81 81 81 88 101 95 102 104 135 181 182 111 98 115 95 76 96 140 160 148 117 51 3 0 0 0 0 0 0 0 0 0 0 0 0 0 0 0 0 0 0 0 0 0 0 0 0 0 0 0 0 0 0 0 0 0 0 0 0 0 
0 0 0 0 0 0 0 0 0 0 0 0 8 16 99 133 153 154 108 137 132 95 110 115 99 102 139 171 152 136 123 88 83 80 75 69 57 58 57 59 66 79 94 105 102 100 117 120 109 123 120 107 147 151 145 157 143 143 121 84 71 74 91 91 64 56 57 68 80 81 82 87 93 97 98 94 131 179 171 105 100 105 88 81 89 124 148 138 119 57 3 0 0 0 0 0 0 0 0 0 0 0 0 0 0 0 0 0 0 0 0 0 0 0 0 0 0 0 0 0 0 0 0 0 0 0 0 0 
0 0 0 0 0 0 0 0 0 0 0 0 7 17 95 134 151 152 111 127 116 96 112 105 99 95 132 172 151 137 126 90 83 74 64 62 56 55 59 64 73 90 107 116 110 103 107 101 94 115 119 124 129 114 119 118 142 130 112 93 97 92 83 63 54 51 54 68 80 80 79 86 91 98 94 85 121 176 158 99 101 103 89 86 95 119 142 140 121 63 2 0 0 0 0 0 0 0 0 0 0 0 0 0 0 0 0 0 0 0 0 0 0 0 0 0 0 0 0 0 0 0 0 0 0 0 0 0 
0 0 0 0 0 0 0 0 0 0 0 0 7 17 95 133 149 141 120 113 109 99 110 105 101 90 127 165 144 132 132 97 82 71 63 61 57 59 59 68 82 107 132 138 133 118 105 97 92 101 110 135 109 106 126 128 145 155 115 101 89 73 62 57 62 58 56 64 77 80 82 89 89 96 90 81 132 184 154 100 103 96 88 89 98 119 138 130 121 64 2 0 0 0 0 0 0 0 0 0 0 0 0 0 0 0 0 0 0 0 0 0 0 0 0 0 0 0 0 0 0 0 0 0 0 0 0 0 
0 0 0 0 0 0 0 0 0 0 0 0 6 17 89 133 146 131 120 87 106 102 107 102 104 86 118 156 144 126 135 108 78 70 62 62 59 58 58 68 84 103 121 118 121 115 111 110 105 108 124 104 85 94 117 109 115 153 106 92 85 67 63 80 83 74 63 68 81 81 83 86 90 94 81 82 160 189 155 103 105 89 86 91 100 111 139 127 120 63 3 0 0 0 0 0 0 0 0 0 0 0 0 0 0 0 0 0 0 0 0 0 0 0 0 0 0 0 0 0 0 0 0 0 0 0 0 0 
0 0 0 0 0 0 0 0 0 0 0 0 5 14 81 132 141 125 123 81 104 107 105 100 106 88 109 152 143 112 140 113 74 71 61 61 61 59 59 68 84 109 117 112 106 98 101 108 103 86 116 86 83 90 109 99 110 144 117 95 78 65 65 92 82 67 61 71 82 84 86 89 95 90 72 93 181 188 163 116 104 80 86 91 100 112 141 130 122 58 1 0 0 0 0 0 0 0 0 0 0 0 0 0 0 0 0 0 0 0 0 0 0 0 0 0 0 0 0 0 0 0 0 0 0 0 0 0 
0 0 0 0 0 0 0 0 0 0 0 0 3 15 76 129 142 124 133 79 96 108 104 99 102 89 97 158 141 107 121 118 71 66 62 61 64 60 61 73 94 124 124 115 102 98 94 82 79 88 117 82 87 86 102 101 106 120 130 95 82 60 57 89 83 67 57 67 81 84 90 95 98 85 74 105 179 179 166 133 95 74 91 91 103 116 137 133 117 50 2 0 0 0 0 0 0 0 0 0 0 0 0 0 0 0 0 0 0 0 0 0 0 0 0 0 0 0 0 0 0 0 0 0 0 0 0 0 
0 0 0 0 0 0 0 0 0 0 0 0 3 13 68 129 140 124 135 84 85 107 106 110 104 90 89 162 143 108 122 126 74 64 58 59 63 65 67 80 112 137 128 113 106 98 88 82 85 104 94 82 83 89 99 97 99 106 130 108 81 63 62 83 80 67 60 66 80 88 94 95 93 87 78 119 171 165 161 152 89 74 92 89 103 123 141 136 116 42 2 0 0 0 0 0 0 0 0 0 0 0 0 0 0 0 0 0 0 0 0 0 0 0 0 0 0 0 0 0 0 0 0 0 0 0 0 0 
0 0 0 0 0 0 0 0 0 11 7 0 1 9 58 123 144 122 137 94 74 104 108 108 104 90 81 160 146 116 116 122 80 69 66 57 59 69 72 87 111 139 135 114 118 107 107 88 93 112 82 83 83 92 99 98 102 107 121 120 118 83 84 87 80 66 73 81 83 93 99 96 95 89 92 138 167 147 140 159 87 80 87 83 101 127 143 127 104 32 1 0 0 0 0 0 0 0 0 0 0 0 0 0 0 0 0 0 0 0 0 0 0 0 0 0 0 0 0 0 0 0 0 0 0 0 0 0 
0 0 0 0 0 0 0 0 0 0 5 2 1 6 49 121 143 116 125 103 66 91 109 105 103 92 82 157 157 123 112 120 90 68 61 55 54 66 76 94 125 135 139 122 121 110 102 100 106 114 86 84 83 95 97 97 109 109 112 141 102 101 113 85 76 63 66 88 94 91 88 92 106 94 102 159 157 142 143 153 105 85 79 81 109 121 136 113 94 24 1 0 0 0 0 0 0 0 0 0 0 0 0 0 0 0 0 0 0 0 0 0 0 0 0 0 0 0 0 0 0 0 0 0 0 0 0 0 
0 0 0 0 0 0 0 0 0 0 2 8 1 6 41 118 135 113 110 111 70 74 107 105 107 96 88 150 159 116 102 106 102 74 62 56 53 66 79 104 123 130 136 124 117 121 123 110 120 102 88 91 86 103 97 92 104 105 115 155 127 104 93 99 102 92 88 92 101 96 96 110 119 98 114 161 141 131 136 148 120 89 74 86 126 123 132 103 83 16 0 0 0 0 0 0 0 0 0 0 0 0 0 0 0 0 0 0 0 0 0 0 0 0 0 0 0 0 0 0 0 0 0 0 0 0 0 0 
0 0 0 0 0 0 0 0 0 0 3 15 4 4 31 109 128 127 103 108 87 70 99 105 106 97 95 139 147 119 112 102 120 102 67 62 70 75 96 122 127 126 127 126 112 123 116 116 132 100 93 94 93 115 104 101 97 99 109 142 134 108 90 98 84 82 109 127 124 124 129 133 135 120 119 146 145 133 125 137 126 86 80 107 126 136 119 91 83 11 0 0 0 11 10 0 0 0 0 0 0 0 0 0 0 0 0 0 0 0 0 0 0 0 0 0 0 0 0 0 0 0 0 0 0 0 0 0 
0 0 0 0 0 0 0 0 0 0 3 20 7 5 25 103 120 139 105 111 109 69 80 107 111 105 101 134 142 117 118 131 142 150 130 98 96 89 114 110 117 126 113 115 125 116 108 110 137 100 96 99 97 109 98 89 91 91 102 141 124 96 87 75 67 90 134 133 130 140 141 139 122 98 117 141 140 126 105 132 136 85 124 141 124 134 82 92 78 7 0 0 5 0 0 0 0 0 0 0 0 0 0 0 0 0 0 0 0 0 0 0 0 0 0 0 0 0 0 0 0 0 0 0 0 0 0 0 
0 0 0 0 0 0 0 0 0 0 1 14 11 9 17 96 111 141 117 111 112 80 68 90 111 118 123 130 124 110 120 143 139 132 115 106 97 85 90 101 101 96 111 121 121 105 94 103 126 98 101 99 83 93 83 78 94 97 95 123 114 90 71 64 66 102 149 153 145 140 133 136 119 112 132 141 126 106 98 133 137 94 143 151 141 120 69 99 77 6 2 0 3 0 0 0 0 0 0 0 0 0 0 0 0 0 0 0 0 0 0 0 0 0 0 0 0 0 0 0 0 0 0 0 0 0 0 0 
0 0 0 0 0 0 0 0 0 0 1 6 12 11 10 87 104 137 136 113 117 97 76 93 111 124 144 143 115 109 129 147 144 128 119 95 73 72 85 72 73 74 74 82 107 95 82 99 129 125 91 71 71 75 88 76 78 94 92 106 116 107 74 64 70 95 125 136 136 132 129 139 134 148 153 141 125 114 127 150 157 118 164 166 149 121 74 110 68 4 4 5 4 0 0 0 0 0 0 0 0 0 0 0 0 0 0 0 0 0 0 0 0 0 0 0 0 0 0 0 0 0 0 0 0 0 0 0 
0 0 0 0 0 0 0 0 0 0 0 5 13 7 8 71 100 131 152 120 126 120 99 95 105 125 155 149 115 87 114 116 136 136 141 129 127 127 103 72 72 65 70 79 87 85 67 87 102 77 82 91 74 105 82 50 63 90 115 96 93 97 88 80 75 107 129 128 136 139 140 145 144 144 139 139 144 141 155 185 195 175 163 151 147 113 97 107 46 6 7 7 2 0 0 0 0 0 0 0 0 0 0 0 0 0 0 0 0 0 0 0 0 0 0 0 0 0 0 0 0 0 0 0 0 0 0 0 
0 0 0 0 0 0 0 0 0 0 0 6 12 6 4 44 97 120 155 135 142 138 98 109 119 129 175 155 120 74 78 123 144 150 178 184 176 153 122 73 67 76 80 78 83 78 81 96 88 60 76 107 100 116 70 54 75 78 107 108 96 83 83 91 95 107 120 123 132 134 127 130 137 152 142 123 115 147 171 187 203 201 171 140 136 90 91 91 21 4 8 3 2 0 0 0 0 0 0 0 0 0 0 0 0 0 0 0 0 0 0 0 0 0 0 0 0 0 0 0 0 0 0 0 0 0 0 0 
0 0 0 0 0 0 0 0 0 0 0 4 11 8 5 11 62 97 122 147 150 172 136 117 136 122 147 158 148 119 92 115 145 145 162 187 174 162 147 96 76 86 77 73 70 67 85 97 92 71 75 96 96 92 104 63 70 71 63 92 86 81 71 81 99 117 115 121 123 132 126 125 127 145 152 137 125 133 157 177 181 171 127 159 158 99 77 91 24 1 9 5 3 0 0 0 0 0 0 0 0 0 0 0 0 0 0 0 0 0 0 0 0 0 0 0 0 0 0 0 0 0 0 0 0 0 0 0 
0 0 0 0 0 0 0 0 0 0 0 7 9 8 6 9 37 94 124 148 147 169 183 166 144 114 135 170 169 134 101 106 134 143 148 165 145 148 139 98 68 75 73 58 61 84 85 88 83 87 90 91 110 107 110 76 65 61 53 69 81 74 88 119 125 132 120 122 121 115 115 115 138 153 140 121 124 149 160 171 170 150 140 153 153 104 83 72 8 1 8 7 3 0 0 0 0 0 0 0 0 0 0 0 0 0 0 0 0 0 0 0 0 0 0 0 0 0 0 0 0 0 0 0 0 0 0 0 
0 0 0 0 0 0 0 0 0 0 0 8 7 6 9 10 20 86 116 132 137 134 148 160 167 153 157 172 155 139 125 112 115 129 137 138 135 138 129 101 79 78 77 86 89 79 81 81 87 94 79 81 86 98 102 79 68 69 63 72 101 100 97 104 107 109 108 118 107 107 116 127 145 147 118 110 116 134 160 178 158 138 139 139 122 103 99 39 7 4 7 11 4 0 0 0 0 0 0 0 0 0 0 0 0 0 0 0 0 0 0 0 0 0 0 0 0 0 0 0 0 0 0 0 0 0 0 0 
0 0 0 0 0 0 0 0 0 0 0 7 8 9 11 14 17 68 105 113 135 143 130 128 159 167 161 174 159 134 125 120 116 92 95 122 137 132 112 112 108 110 108 103 94 87 101 94 104 112 85 65 68 69 103 107 88 81 78 93 114 114 102 114 103 92 90 70 57 85 140 154 144 122 107 104 110 117 154 186 147 128 143 122 82 95 85 20 11 5 10 6 8 0 0 0 0 0 0 0 0 0 0 0 0 0 0 0 0 0 0 0 0 0 0 0 0 0 0 0 0 0 0 0 0 0 0 0 
0 0 0 0 0 0 0 0 0 0 0 3 12 13 13 19 22 43 107 126 134 130 138 133 159 173 147 147 151 151 158 141 129 138 103 107 117 120 94 102 107 101 99 100 91 102 112 89 97 101 101 79 70 73 107 108 114 111 94 101 108 97 102 111 111 83 61 61 90 111 156 167 131 96 94 104 109 111 146 127 108 126 133 96 98 112 54 20 14 12 12 3 7 2 0 0 0 0 0 0 0 0 0 0 0 0 0 0 0 0 0 0 0 0 0 0 0 0 0 0 0 0 0 0 0 0 0 0 
0 0 0 0 0 0 0 0 0 0 0 1 7 9 14 23 22 20 84 100 111 130 131 136 148 157 154 138 121 135 170 176 170 121 112 124 88 90 96 86 92 101 83 93 109 105 97 94 94 118 140 147 120 109 129 118 123 120 120 112 100 106 123 128 109 85 59 71 112 122 133 155 137 96 98 113 116 127 154 128 118 130 117 60 87 95 29 24 18 13 7 6 10 3 0 0 0 0 0 0 0 0 0 0 0 0 0 0 0 0 0 0 0 0 0 0 0 0 0 0 0 0 0 0 0 0 0 0 
0 0 0 0 0 0 0 0 0 0 0 0 4 4 10 17 18 11 54 96 106 106 125 150 161 138 160 143 105 110 141 163 164 143 150 155 112 63 68 82 92 99 100 100 118 117 108 124 140 162 155 154 150 145 137 134 130 147 156 137 115 116 132 138 119 70 69 101 117 123 108 120 145 107 104 114 126 136 147 129 113 129 92 60 99 62 15 23 20 15 5 5 6 1 0 0 0 0 0 0 0 0 0 0 0 0 0 0 0 0 0 0 0 0 0 0 0 0 0 0 0 0 0 0 0 0 0 0 
0 0 0 0 0 0 0 0 0 0 0 0 0 1 6 11 11 12 28 91 100 95 111 118 162 138 145 140 104 97 122 149 157 150 127 142 129 97 66 66 67 83 107 120 139 147 156 164 166 163 163 158 160 165 173 177 177 183 184 175 160 163 164 149 132 124 127 124 125 126 93 94 136 133 113 115 134 153 136 132 114 101 69 65 85 32 12 19 16 13 3 1 1 0 0 0 0 0 0 0 0 0 0 0 0 0 0 0 0 0 0 0 0 0 0 0 0 0 0 0 0 0 0 0 0 0 0 0 
0 0 0 0 0 0 0 0 0 0 0 0 0 0 1 7 7 9 12 68 89 104 89 116 149 145 128 133 134 113 128 149 142 139 129 124 111 113 106 100 100 99 132 125 117 119 143 157 179 167 148 143 124 114 125 148 144 127 135 151 156 178 191 155 134 136 143 141 148 121 84 88 121 132 117 137 150 149 129 126 104 81 87 67 70 19 8 10 14 13 5 0 0 0 0 0 0 0 0 0 0 0 0 0 0 0 0 0 0 0 0 0 0 0 0 0 0 0 0 0 0 0 0 0 0 0 0 0 
0 0 0 0 0 0 0 0 0 0 4 10 4 0 0 7 7 5 9 43 56 92 102 88 114 149 131 124 117 136 127 150 142 107 111 126 124 114 110 107 118 131 142 140 140 144 145 155 161 164 144 148 137 138 139 145 136 121 124 140 146 178 194 176 158 158 129 128 128 101 84 100 123 136 145 145 132 152 128 114 76 74 95 53 71 19 5 6 13 11 5 0 0 0 0 0 0 0 0 0 0 0 0 0 0 0 0 0 0 0 0 0 0 0 0 0 0 0 0 0 0 0 0 0 0 0 0 0 
0 0 0 0 0 0 0 0 0 0 3 10 12 13 7 9 6 7 8 28 66 91 119 80 83 125 145 143 117 130 136 151 123 110 93 92 97 112 127 137 144 147 147 156 159 157 163 141 139 158 153 149 152 147 159 159 144 132 131 129 127 155 162 148 147 151 132 125 124 109 86 92 121 125 156 154 139 156 124 96 91 92 81 53 73 18 7 3 11 11 4 0 0 0 0 0 0 0 0 0 0 0 0 0 0 0 0 0 0 0 0 0 0 0 0 0 0 0 0 0 0 0 0 0 0 0 0 0 
0 0 0 0 0 0 0 0 0 0 0 6 13 14 17 11 7 14 14 20 60 81 97 112 96 90 127 129 144 135 121 159 126 113 100 98 91 90 86 87 110 129 130 146 154 158 178 142 135 163 153 151 159 133 137 135 132 122 126 103 96 129 143 141 157 175 151 134 117 82 61 73 110 129 165 157 153 149 103 86 73 72 95 86 51 14 8 8 13 19 7 0 0 0 0 0 0 0 0 0 0 0 0 0 0 0 0 0 0 0 0 0 0 0 0 0 0 0 0 0 0 0 0 0 0 0 0 0 
0 0 0 0 0 0 0 0 0 0 0 6 13 9 9 9 9 13 20 16 33 81 112 119 99 102 109 108 151 174 141 156 152 92 56 74 85 92 92 87 98 128 124 127 126 136 177 145 132 154 127 138 134 120 88 82 84 91 116 115 102 134 140 176 148 191 148 121 77 54 76 108 119 147 172 160 156 124 112 77 34 48 68 66 17 16 9 8 9 14 9 4 4 8 6 0 0 0 0 0 0 0 0 0 0 0 0 0 0 0 0 0 0 0 0 0 0 0 0 0 0 0 0 0 0 0 0 0 
0 0 0 0 0 0 0 0 0 0 0 4 14 7 4 8 12 11 16 18 19 45 107 123 110 106 124 138 169 186 151 151 161 109 80 60 60 67 72 82 116 142 126 128 123 125 177 154 132 126 136 135 132 150 143 119 110 116 125 111 121 151 154 148 177 207 172 149 131 119 136 139 146 162 146 139 126 92 95 73 66 76 89 30 10 6 8 7 6 1 5 12 14 12 8 0 0 0 0 0 0 0 0 0 0 0 0 0 0 0 0 0 0 0 0 0 0 0 0 0 0 0 0 0 0 0 0 0 
0 0 0 0 0 0 0 0 0 0 0 0 13 12 3 3 8 10 9 13 22 25 60 121 112 90 99 133 142 161 130 132 160 146 124 116 105 76 72 109 148 141 154 160 138 139 178 157 138 141 141 132 148 172 174 161 154 149 145 138 165 157 160 174 194 204 202 181 163 158 139 111 110 129 107 64 79 76 100 68 83 104 60 21 6 0 2 4 2 1 2 4 8 7 0 0 0 0 0 0 0 0 0 0 0 0 0 0 0 0 0 0 0 0 0 0 0 0 0 0 0 0 0 0 0 0 0 0 
0 0 0 0 0 0 0 0 0 0 0 0 4 7 2 0 0 6 8 6 11 15 28 72 76 70 97 122 110 147 118 113 134 139 120 135 154 174 202 196 177 171 181 169 196 180 156 150 151 109 109 135 157 171 172 158 148 154 169 179 201 193 167 173 201 174 190 180 130 106 108 91 64 37 28 34 65 59 99 82 71 54 42 31 10 0 0 2 1 2 2 3 9 1 0 0 0 0 0 0 0 0 0 0 0 0 0 0 0 0 0 0 0 0 0 0 0 0 0 0 0 0 0 0 0 0 0 0 
0 0 0 0 0 0 0 0 0 0 0 0 0 2 1 0 0 0 3 5 4 16 32 44 61 67 65 46 53 99 104 121 164 141 84 85 99 117 136 179 172 152 162 158 145 165 150 133 154 153 130 143 163 176 172 158 144 150 169 175 165 185 178 168 167 140 139 175 148 125 113 97 86 57 54 56 95 74 86 60 54 48 34 21 18 0 0 0 0 0 0 5 12 0 0 0 0 0 0 0 0 0 0 0 0 0 0 0 0 0 0 0 0 0 0 0 0 0 0 0 0 0 0 0 0 0 0 0 
0 0 0 0 0 0 0 0 0 0 0 0 0 2 4 4 3 0 1 7 9 13 17 23 36 54 39 35 55 85 58 39 96 109 65 64 76 93 91 83 89 98 119 151 122 98 176 136 107 75 86 116 138 148 137 132 106 88 102 114 95 120 112 178 161 162 141 121 75 70 52 51 78 58 40 46 107 78 55 28 27 29 21 7 6 0 0 0 1 2 2 8 5 0 0 0 0 0 0 0 0 0 0 0 0 0 0 0 0 0 0 0 0 0 0 0 0 0 0 0 0 0 0 0 0 0 0 0 
0 0 0 0 0 0 0 0 0 0 0 0 0 0 3 4 4 1 0 1 9 10 10 13 23 23 23 23 47 83 54 31 59 97 61 56 56 56 69 53 59 88 101 97 75 63 66 85 105 88 75 92 100 98 109 126 110 80 75 74 67 92 85 80 86 114 96 128 130 88 72 53 72 72 41 43 107 71 51 30 27 26 14 6 4 0 1 2 2 2 3 2 0 0 0 0 0 0 0 0 0 0 0 0 0 0 0 0 0 0 0 0 0 0 0 0 0 0 0 0 0 0 0 0 0 0 0 0 
0 0 0 0 0 0 0 0 0 0 0 0 0 0 0 0 1 0 0 0 7 11 10 11 18 30 35 38 50 93 80 52 63 106 67 45 60 80 118 137 136 108 109 97 93 86 84 125 143 97 91 133 139 128 124 114 88 78 103 87 61 88 84 66 138 178 48 117 149 60 53 55 93 88 59 78 132 92 76 36 22 16 4 2 2 0 0 1 2 2 1 0 0 0 0 0 0 0 0 0 0 0 0 0 0 0 0 0 0 0 0 0 0 0 0 0 0 0 0 0 0 0 0 0 0 0 0 0 
0 0 0 0 0 0 0 0 0 0 0 0 0 0 0 0 0 0 0 0 1 7 2 3 5 24 37 38 57 96 100 69 79 114 90 67 60 101 114 142 94 117 144 101 124 146 161 172 167 131 101 102 106 89 82 89 85 76 104 129 120 111 128 133 128 140 110 140 114 59 59 69 59 58 55 58 89 92 80 41 12 1 0 0 0 0 0 0 0 0 0 0 0 0 0 0 0 0 0 0 0 0 0 0 0 0 0 0 0 0 0 0 0 0 0 0 0 0 0 0 0 0 0 0 0 0 0 0 
0 0 0 0 0 0 0 0 0 0 0 0 0 0 0 0 0 0 0 0 0 2 0 1 2 17 41 47 47 62 71 65 75 102 56 65 50 82 109 131 102 148 168 158 126 108 135 179 155 152 135 148 142 110 96 96 101 99 114 144 154 159 148 149 156 132 124 115 135 101 64 71 68 58 61 71 104 76 62 27 18 13 10 1 0 0 0 0 0 0 0 0 0 0 0 0 0 0 0 0 0 0 0 0 0 0 0 0 0 0 0 0 0 0 0 0 0 0 0 0 0 0 0 0 0 0 0 0 
0 0 0 0 0 0 0 0 0 0 0 0 0 0 0 0 0 0 0 0 0 0 4 0 4 15 56 65 67 75 105 86 97 130 96 55 34 54 122 100 129 164 99 119 117 109 176 180 185 167 170 145 124 115 108 104 114 91 88 101 152 177 127 136 89 94 132 157 122 121 60 51 40 67 69 53 82 37 23 9 4 2 4 2 0 0 0 0 0 0 0 0 0 0 0 0 0 0 0 0 0 0 0 0 0 0 0 0 0 0 0 0 0 0 0 0 0 0 0 0 0 0 0 0 0 0 0 0 
0 0 0 0 0 0 0 0 0 0 0 0 0 0 0 0 0 0 0 0 0 0 7 7 7 8 22 23 23 30 68 60 50 88 46 51 48 50 60 77 85 117 116 96 78 115 157 159 103 115 152 121 90 81 93 65 108 119 136 140 169 165 122 105 159 163 137 128 121 119 101 67 53 55 78 76 81 46 38 14 12 8 7 2 0 0 0 0 0 0 0 0 0 0 0 0 0 0 0 0 0 0 0 0 0 0 0 0 0 0 0 0 0 0 0 0 0 0 0 0 0 0 0 0 0 0 0 0 
0 0 0 0 0 0 0 0 0 0 0 0 0 0 0 0 0 0 0 0 0 0 4 8 8 9 20 24 22 26 55 81 59 96 39 30 30 49 74 75 83 113 94 101 111 116 161 154 91 138 160 138 139 130 138 129 161 166 177 159 167 164 115 63 85 140 166 182 178 109 72 49 41 54 92 84 85 47 27 18 17 10 7 2 0 0 0 0 0 0 0 0 0 0 0 0 0 0 0 0 0 0 0 0 0 0 0 0 0 0 0 0 0 0 0 0 0 0 0 0 0 0 0 0 0 0 0 0 
0 0 0 0 0 0 0 0 0 0 0 0 0 0 0 0 0 0 0 0 0 0 3 7 10 6 15 23 25 24 46 83 54 101 40 23 23 31 58 81 101 103 84 88 108 89 100 122 120 148 151 126 139 136 142 138 145 143 167 152 151 163 132 87 92 110 108 150 150 92 48 38 37 52 100 88 86 47 26 17 15 10 7 0 0 0 0 0 0 0 0 0 0 0 0 0 0 0 0 0 0 0 0 0 0 0 0 0 0 0 0 0 0 0 0 0 0 0 0 0 0 0 0 0 0 0 0 0 
0 0 0 0 0 0 0 0 0 0 0 0 0 0 0 0 0 0 0 0 0 0 0 6 9 8 10 23 26 24 41 88 56 102 46 22 23 36 62 103 106 71 72 92 124 100 91 93 124 151 149 110 132 148 146 134 141 129 158 148 124 139 126 91 95 120 86 92 128 133 78 37 35 46 111 91 95 55 26 14 12 10 5 0 0 0 0 0 0 0 0 0 0 0 0 0 0 0 0 0 0 0 0 0 0 0 0 0 0 0 0 0 0 0 0 0 0 0 0 0 0 0 0 0 0 0 0 0 
0 0 0 0 0 0 0 0 0 0 0 0 0 0 0 0 0 0 0 0 0 0 0 0 6 8 9 19 24 27 38 79 56 94 49 28 33 67 98 89 58 49 60 96 144 110 86 88 113 124 116 96 125 141 112 110 127 113 137 129 95 94 80 72 97 131 88 73 85 114 121 72 41 37 104 86 87 49 20 12 11 10 3 0 0 0 0 0 0 0 0 0 0 0 0 0 0 0 0 0 0 0 0 0 0 0 0 0 0 0 0 0 0 0 0 0 0 0 0 0 0 0 0 0 0 0 0 0 
0 0 0 0 0 0 0 0 0 0 0 0 0 0 0 0 0 0 0 0 0 0 0 0 3 5 9 13 20 25 40 64 55 78 54 32 51 92 89 57 42 38 56 103 141 99 64 59 99 115 91 88 102 106 101 101 107 101 108 110 96 101 71 60 96 143 115 67 55 51 85 109 63 36 84 92 82 41 17 11 11 9 2 0 0 0 0 0 0 0 0 0 0 0 0 0 0 0 0 0 0 0 0 0 0 0 0 0 0 0 0 0 0 0 0 0 0 0 0 0 0 0 0 0 0 0 0 0 
0 0 0 0 0 0 0 0 0 0 0 0 0 0 0 0 0 0 0 0 0 0 0 0 2 6 6 12 15 23 33 53 61 53 58 32 68 117 82 41 37 39 51 95 138 92 65 62 73 96 96 88 91 90 96 110 109 103 93 107 127 121 70 55 63 127 124 62 43 34 56 123 92 43 62 72 52 24 15 12 13 9 1 0 0 0 0 0 0 0 0 0 0 0 0 0 0 0 0 0 0 0 0 0 0 0 0 0 0 0 0 0 0 0 0 0 0 0 0 0 0 0 0 0 0 0 0 0 
0 0 0 0 0 0 0 0 0 0 0 0 0 0 0 0 0 0 0 0 0 0 0 0 0 6 2 7 16 19 23 48 56 30 59 41 73 131 80 37 40 42 53 92 123 77 68 69 73 87 100 95 105 112 121 125 130 119 90 106 118 99 59 52 58 100 122 61 43 33 50 138 114 55 67 36 20 15 12 16 13 7 0 0 0 0 0 0 0 0 0 0 0 0 0 0 0 0 0 0 0 0 0 0 0 0 0 0 0 0 0 0 0 0 0 0 0 0 0 0 0 0 0 0 0 0 0 0 
0 0 0 0 0 0 0 0 0 0 0 0 0 0 0 0 0 0 0 0 0 0 0 0 0 0 6 1 10 18 17 22 21 18 32 63 90 133 85 41 39 42 61 94 86 68 67 74 81 87 86 72 66 81 95 122 139 112 83 98 113 93 66 59 63 78 100 68 42 35 48 130 128 81 61 26 24 13 13 14 11 5 0 0 0 0 0 0 0 0 0 0 0 0 0 0 0 0 0 0 0 0 0 0 0 0 0 0 0 0 0 0 0 0 0 0 0 0 0 0 0 0 0 0 0 0 0 0 
0 0 0 0 0 0 0 0 0 0 0 0 0 0 0 0 0 0 0 0 0 0 0 0 0 0 4 2 6 12 16 16 21 17 10 22 48 97 97 46 39 44 76 103 98 76 67 78 99 101 93 74 65 83 107 123 146 130 86 93 125 111 91 79 67 68 100 88 43 39 61 127 99 49 27 22 17 13 12 11 8 5 0 0 0 0 0 0 0 0 0 0 0 0 0 0 0 0 0 0 0 0 0 0 0 0 0 0 0 0 0 0 0 0 0 0 0 0 0 0 0 0 0 0 0 0 0 0 
0 0 0 0 0 0 0 0 0 0 0 0 0 0 0 0 0 0 0 0 0 0 0 0 0 0 2 6 4 7 15 14 19 16 13 10 12 58 112 70 41 50 97 107 87 74 62 68 89 104 89 73 69 90 114 127 146 135 103 90 107 126 105 76 71 81 107 119 72 47 79 133 67 25 21 13 14 14 11 8 7 4 0 0 0 0 0 0 0 0 0 0 0 0 0 0 0 0 0 0 0 0 0 0 0 0 0 0 0 0 0 0 0 0 0 0 0 0 0 0 0 0 0 0 0 0 0 0 
0 0 0 0 0 0 0 0 0 0 0 0 0 0 0 0 0 0 0 0 0 0 0 0 0 0 0 6 3 4 11 13 15 17 9 10 7 31 93 111 75 78 106 100 90 74 54 61 81 107 81 63 68 91 116 137 146 142 123 103 99 117 101 83 73 87 114 121 93 77 121 113 38 27 17 10 12 14 7 7 6 4 0 0 0 0 0 0 0 0 0 0 0 0 0 0 0 0 0 0 0 0 0 0 0 0 0 0 0 0 0 0 0 0 0 0 0 0 0 0 0 0 0 0 0 0 0 0 
0 0 0 0 0 0 0 0 0 0 0 0 0 0 0 0 0 0 0 0 0 0 0 0 0 0 0 2 7 4 8 11 17 20 15 9 10 22 40 98 120 95 89 71 88 84 65 77 100 111 81 67 84 116 141 154 147 145 135 112 94 103 101 88 79 105 114 96 86 105 111 49 31 28 18 11 17 10 7 7 6 4 0 0 0 0 0 0 0 0 0 0 0 0 0 0 0 0 0 0 0 0 0 0 0 0 0 0 0 0 0 0 0 0 0 0 0 0 0 0 0 0 0 0 0 0 0 0 
0 0 0 0 0 0 0 0 0 0 0 0 0 0 0 0 0 0 0 0 0 0 0 0 0 0 0 0 2 5 7 10 15 20 17 8 12 23 29 31 46 59 51 44 78 100 98 103 103 91 78 85 115 138 149 142 146 151 150 129 93 88 107 99 93 105 114 66 53 51 36 33 29 24 21 14 17 9 9 8 5 3 0 0 0 0 0 0 0 0 0 0 0 0 0 0 0 0 0 0 0 0 0 0 0 0 0 0 0 0 0 0 0 0 0 0 0 0 0 0 0 0 0 0 0 0 0 0 
0 0 0 0 0 0 0 0 0 0 0 0 0 0 0 0 0 0 0 0 0 0 0 0 0 0 0 0 0 5 8 9 12 18 17 8 10 23 28 31 30 32 36 31 49 84 85 86 86 74 75 106 126 127 131 131 146 145 155 142 106 77 102 101 98 93 66 48 40 37 34 34 25 22 20 17 16 11 11 10 6 2 0 0 0 0 0 0 0 0 0 0 0 0 0 0 0 0 0 0 0 0 0 0 0 0 0 0 0 0 0 0 0 0 0 0 0 0 0 0 0 0 0 0 0 0 0 0 
0 0 0 0 0 0 0 0 0 0 0 0 0 0 0 0 0 0 0 0 0 0 0 0 0 0 0 0 0 2 7 9 13 16 17 12 8 23 26 29 29 38 30 26 31 51 78 83 68 51 64 102 118 121 131 138 147 149 155 141 130 78 72 86 89 59 40 43 40 35 26 32 24 21 18 15 16 12 13 12 6 2 0 0 0 0 0 0 0 0 0 0 0 0 0 0 0 0 0 0 0 0 0 0 0 0 0 0 0 0 0 0 0 0 0 0 0 0 0 0 0 0 0 0 0 0 0 0 
