P2
128 99
250
0 0 0 0 0 0 0 0 0 0 0 0 0 0 0 0 0 0 0 0 0 0 0 0 0 0 0 0 0 0 0 0 0 0 0 0 0 0 0 0 0 0 0 0 0 0 0 0 0 0 0 0 0 0 0 0 0 0 0 0 0 0 0 0 0 0 0 0 0 0 0 0 0 0 0 0 0 0 0 0 0 0 0 0 0 0 0 0 0 0 0 0 0 0 0 0 0 0 0 0 0 0 0 0 0 0 0 0 0 0 0 0 0 0 0 0 0 0 0 0 0 0 0 0 0 0 0 0 
0 0 0 0 0 0 0 0 0 0 0 0 0 0 0 0 0 0 0 0 0 0 0 0 0 0 0 0 0 0 0 0 0 0 0 0 0 0 0 0 0 0 0 0 0 0 0 0 0 0 0 0 0 0 0 0 0 0 0 0 0 1 1 1 1 2 0 0 0 0 0 0 0 0 0 0 0 0 0 0 0 0 0 0 0 0 0 0 0 0 0 0 0 0 0 0 0 0 0 0 0 0 0 0 0 0 0 0 0 0 0 0 0 0 0 0 0 0 0 0 0 0 0 0 0 0 0 0 
0 0 0 0 0 0 0 0 0 0 0 0 0 0 0 0 0 0 0 0 0 0 0 0 0 0 0 0 0 0 0 0 0 0 0 0 0 0 0 0 0 0 0 0 0 0 0 0 0 0 0 0 1 3 0 0 0 0 0 0 0 1 1 1 1 1 1 0 0 0 0 0 0 0 0 0 0 0 0 0 0 0 0 0 0 0 0 0 0 0 0 0 0 0 0 0 0 0 0 0 0 0 0 0 0 0 0 0 0 0 0 0 0 0 0 0 0 0 0 0 0 0 0 0 0 0 0 0 
0 0 0 0 0 0 0 0 0 0 0 0 0 0 0 0 0 0 0 0 0 0 0 0 0 0 0 0 0 0 0 0 0 0 0 0 0 0 0 0 0 0 0 0 2 11 22 20 18 20 30 35 37 37 34 30 22 16 8 8 5 0 1 1 1 1 0 0 0 0 0 0 0 0 0 0 0 0 0 0 0 0 0 0 0 0 0 0 0 0 0 0 0 0 0 0 0 0 0 0 0 0 0 0 0 0 0 0 0 0 0 0 0 0 0 0 0 0 0 0 0 0 0 0 0 0 0 0 
0 0 0 0 0 0 0 0 0 0 0 0 0 0 0 0 0 0 0 0 0 0 0 0 0 0 0 0 0 0 0 0 0 0 0 0 0 0 0 0 5 10 13 24 24 37 50 64 81 100 117 128 133 138 139 135 119 95 67 48 34 21 10 11 4 1 0 0 0 0 0 0 0 0 0 0 0 0 0 0 0 0 0 0 0 0 0 0 0 0 0 0 0 0 0 0 0 0 0 0 0 0 0 0 0 0 0 0 0 0 0 0 0 0 0 0 0 0 0 0 0 0 0 0 0 0 0 0 
0 0 0 0 0 0 0 0 0 0 0 0 0 0 0 0 0 0 0 0 0 0 0 0 0 0 0 0 0 0 0 0 0 0 0 0 0 0 8 10 19 22 38 61 92 120 147 172 195 210 216 214 207 200 202 206 212 217 210 191 154 108 69 46 27 11 10 2 0 0 0 0 0 0 0 0 0 0 0 0 0 0 0 0 0 0 0 0 0 0 0 0 0 0 0 0 0 0 0 0 0 0 0 0 0 0 0 0 0 0 0 0 0 0 0 0 0 0 0 0 0 0 0 0 0 0 0 0 
0 0 0 0 0 0 0 0 0 0 0 0 0 0 0 0 0 0 0 0 0 0 0 0 0 0 0 0 0 0 0 0 0 0 0 0 5 14 21 24 50 87 121 149 177 209 221 199 169 149 140 137 136 132 131 128 130 136 146 166 194 213 203 160 111 66 43 18 10 2 0 0 0 0 0 0 0 0 0 0 0 0 0 0 0 0 0 0 0 0 0 0 0 0 0 0 0 0 0 0 0 0 0 0 0 0 0 0 0 0 0 0 0 0 0 0 0 0 0 0 0 0 0 0 0 0 0 0 
0 0 0 0 0 0 0 0 0 0 0 0 0 0 0 0 0 0 0 0 0 0 0 0 0 0 0 0 0 0 0 0 0 0 5 18 20 29 61 107 135 162 198 221 204 175 161 147 136 138 147 157 155 145 145 157 159 150 144 132 127 134 158 191 218 196 144 81 43 23 9 1 0 0 0 0 0 0 0 0 0 0 0 0 0 0 0 0 0 0 0 0 0 0 0 0 0 0 0 0 0 0 0 0 0 0 0 0 0 0 0 0 0 0 0 0 0 0 0 0 0 0 0 0 0 0 0 0 
0 0 0 0 0 0 0 0 0 0 0 0 0 0 0 0 0 0 0 0 0 0 0 0 0 0 0 0 0 0 0 0 6 23 19 21 59 107 136 160 202 213 185 160 144 132 120 125 128 125 128 135 139 137 130 130 133 148 165 164 159 148 134 127 134 167 208 205 155 82 38 21 8 0 0 0 0 0 0 0 0 0 0 0 0 0 0 0 0 0 0 0 0 0 0 0 0 0 0 0 0 0 0 0 0 0 0 0 0 0 0 0 0 0 0 0 0 0 0 0 0 0 0 0 0 0 0 0 
0 0 0 0 0 0 0 0 0 0 0 0 0 0 0 0 0 0 0 0 0 0 0 0 0 0 0 0 0 0 0 23 17 19 51 99 131 151 199 208 173 148 140 136 110 106 127 134 123 127 134 133 132 129 127 130 131 121 142 167 175 174 170 158 141 126 126 157 201 199 139 62 28 14 2 0 0 0 0 0 0 0 0 0 0 0 0 0 0 0 0 0 0 0 0 0 0 0 0 0 0 0 0 0 0 0 0 0 0 0 0 0 0 0 0 0 0 0 0 0 0 0 0 0 0 0 0 0 
0 0 0 0 0 0 0 0 0 0 0 0 0 0 0 0 0 0 0 0 0 0 0 0 0 0 0 0 0 11 24 19 33 77 124 145 189 212 171 141 137 132 125 119 130 140 125 92 82 91 126 137 135 129 115 103 92 84 89 106 144 174 184 181 174 167 151 133 126 159 210 186 103 38 21 5 0 0 0 0 0 0 0 0 0 0 0 0 0 0 0 0 0 0 0 0 0 0 0 0 0 0 0 0 0 0 0 0 0 0 0 0 0 0 0 0 0 0 0 0 0 0 0 0 0 0 0 0 
0 0 0 0 0 0 0 0 0 0 0 0 0 0 0 0 0 0 0 0 0 0 0 0 0 0 0 0 22 24 15 52 107 134 169 213 179 142 139 142 138 145 143 134 125 110 91 94 95 102 99 102 98 100 108 105 98 94 94 96 108 135 153 170 184 186 186 169 153 132 130 177 209 147 59 24 11 0 0 0 0 0 0 0 0 0 0 0 0 0 0 0 0 0 0 0 0 0 0 0 0 0 0 0 0 0 0 0 0 0 0 0 0 0 0 0 0 0 0 0 0 0 0 0 0 0 0 0 
0 0 0 0 0 0 0 0 0 0 0 0 0 0 0 0 0 0 0 0 0 0 0 0 0 0 6 25 20 12 72 122 146 200 196 149 136 148 149 157 153 136 126 124 106 92 94 96 98 101 64 53 53 58 91 104 101 100 99 97 92 106 136 151 160 175 191 190 179 164 149 130 149 205 168 74 23 13 0 0 0 0 0 0 0 0 0 0 0 0 0 0 0 0 0 0 0 0 0 0 0 0 0 0 0 0 0 0 0 0 0 0 0 0 0 0 0 0 0 0 0 0 0 0 0 0 0 0 
0 0 0 0 0 0 0 0 0 0 0 0 0 0 0 0 0 0 0 0 0 0 0 0 0 11 24 14 20 89 132 164 214 172 137 142 156 161 162 143 127 125 120 107 107 111 108 103 95 86 64 69 74 83 102 138 147 142 125 109 101 102 101 114 143 155 159 176 183 187 174 159 137 135 194 174 84 26 15 0 0 0 0 0 0 0 0 0 0 0 0 0 0 0 0 0 0 0 0 0 0 0 0 0 0 0 0 0 0 0 0 0 0 0 0 0 0 0 0 0 0 0 0 0 0 0 0 0 
0 0 0 0 0 0 0 0 0 0 0 0 0 0 0 0 0 0 0 0 0 0 0 0 16 23 11 35 103 135 180 209 159 142 155 163 164 150 132 126 128 132 154 170 173 173 158 136 130 130 127 125 136 149 161 166 178 184 178 167 150 131 120 105 102 122 147 153 155 174 185 179 161 143 133 188 175 94 29 15 0 0 0 0 0 0 0 0 0 0 0 0 0 0 0 0 0 0 0 0 0 0 0 0 0 0 0 0 0 0 0 0 0 0 0 0 0 0 0 0 0 0 0 0 0 0 0 0 
0 0 0 0 0 0 0 0 0 0 0 0 0 0 0 0 0 0 0 0 0 0 6 14 21 13 49 118 142 201 200 149 148 148 154 156 136 123 138 143 161 179 178 173 168 154 148 149 151 155 148 140 136 131 133 132 134 145 157 166 166 152 139 140 128 103 99 115 142 149 155 177 178 162 148 137 191 172 104 36 12 0 0 0 0 0 0 0 0 0 0 0 0 0 0 0 0 0 0 0 0 0 0 0 0 0 0 0 0 0 0 0 0 0 0 0 0 0 0 0 0 0 0 0 0 0 0 0 
0 0 0 0 0 0 0 0 0 0 0 0 0 0 0 0 0 0 0 0 0 9 12 17 19 64 127 147 206 197 148 145 140 153 147 131 138 145 148 161 167 158 155 153 136 126 132 136 148 150 143 137 130 124 128 131 132 130 128 131 127 126 126 125 144 145 123 98 98 124 144 145 168 172 158 148 150 199 164 105 37 9 0 0 0 0 0 0 0 0 0 0 0 0 0 0 0 0 0 0 0 0 0 0 0 0 0 0 0 0 0 0 0 0 0 0 0 0 0 0 0 0 0 0 0 0 0 0 
0 0 0 0 0 0 0 0 0 0 0 0 0 0 0 0 0 0 0 0 10 10 16 20 75 123 147 193 195 145 138 133 155 146 131 141 148 144 153 158 150 141 129 125 134 139 145 155 169 179 181 178 184 195 199 197 196 191 179 170 152 140 119 111 117 126 146 139 108 92 105 134 144 163 166 150 146 152 195 151 107 31 7 0 0 0 0 0 0 0 0 0 0 0 0 0 0 0 0 0 0 0 0 0 0 0 0 0 0 0 0 0 0 0 0 0 0 0 0 0 0 0 0 0 0 0 0 0 
0 0 0 0 0 0 0 0 0 0 0 0 0 0 0 0 0 0 0 8 10 16 20 73 118 145 180 190 139 126 132 152 140 125 140 137 128 140 135 127 123 125 136 164 189 204 211 213 215 216 216 212 214 218 215 216 217 214 211 215 213 209 195 162 127 103 105 137 152 127 95 96 117 135 155 161 149 142 161 198 145 97 21 3 0 0 0 0 0 0 0 0 0 0 0 0 0 0 0 0 0 0 0 0 0 0 0 0 0 0 0 0 0 0 0 0 0 0 0 0 0 0 0 0 0 0 0 0 
0 0 0 0 0 0 0 0 0 0 0 0 0 0 0 0 0 0 8 10 14 17 68 112 150 169 198 144 124 130 154 140 133 143 132 125 127 114 110 116 140 179 209 220 216 197 189 187 170 158 154 176 176 169 162 167 180 190 194 197 201 206 214 212 193 148 106 98 119 152 134 90 87 109 132 153 159 148 141 191 191 129 80 13 0 0 0 0 0 0 0 0 0 0 0 0 0 0 0 0 0 0 0 0 0 0 0 0 0 0 0 0 0 0 0 0 0 0 0 0 0 0 0 0 0 0 0 0 
0 0 0 0 0 0 0 0 0 0 0 0 0 0 0 0 0 6 11 16 19 63 102 153 155 199 164 128 128 149 136 141 143 126 113 109 115 116 125 162 200 213 202 177 157 146 143 146 140 136 131 138 143 136 134 132 139 156 171 183 192 198 199 204 213 207 164 115 98 103 144 130 87 84 107 136 154 152 145 152 209 157 123 67 9 0 0 0 0 0 0 0 0 0 0 0 0 0 0 0 0 0 0 0 0 0 0 0 0 0 0 0 0 0 0 0 0 0 0 0 0 0 0 0 0 0 0 0 
0 0 0 0 0 0 0 0 0 0 0 0 0 0 0 0 0 13 12 18 70 94 144 152 182 182 130 122 149 145 147 138 124 110 103 105 118 130 169 211 205 179 159 153 153 152 153 139 148 150 141 144 144 148 142 144 141 138 140 146 159 180 193 201 203 214 208 158 114 97 108 138 123 83 83 104 138 155 147 143 178 208 134 117 60 4 0 0 0 0 0 0 0 0 0 0 0 0 0 0 0 0 0 0 0 0 0 0 0 0 0 0 0 0 0 0 0 0 0 0 0 0 0 0 0 0 0 0 
0 0 0 0 0 0 0 0 0 0 0 0 0 0 0 0 9 12 17 74 92 133 139 163 197 140 116 142 146 149 139 121 98 104 121 115 126 166 213 212 186 170 170 163 161 157 156 149 149 153 145 154 158 160 159 149 143 143 139 147 152 152 162 177 196 206 215 195 138 112 104 106 133 120 87 89 101 139 144 140 151 215 172 125 104 39 4 0 0 0 0 0 0 0 0 0 0 0 0 0 0 0 0 0 0 0 0 0 0 0 0 0 0 0 0 0 0 0 0 0 0 0 0 0 0 0 0 0 
0 0 0 0 0 0 0 0 0 0 0 0 0 0 0 6 11 16 76 101 115 145 145 196 164 112 134 143 144 137 119 92 98 122 125 129 159 204 203 177 146 115 116 125 133 133 136 133 147 162 172 157 149 166 152 150 142 139 133 130 139 136 133 140 168 201 211 212 173 129 112 108 107 133 116 92 87 103 143 137 139 181 201 134 110 94 14 0 0 0 0 0 0 0 0 0 0 0 0 0 0 0 0 0 0 0 0 0 0 0 0 0 0 0 0 0 0 0 0 0 0 0 0 0 0 0 0 0 
0 0 0 0 0 0 0 0 0 0 0 0 0 0 0 12 14 44 122 96 142 138 171 194 113 107 128 145 135 123 96 98 116 122 135 151 188 198 169 156 122 85 96 109 94 79 90 114 136 150 171 131 109 159 126 111 98 91 106 118 122 117 130 142 151 170 196 211 204 154 124 118 107 110 133 112 84 83 121 137 126 161 203 151 119 102 54 4 0 0 0 0 0 0 0 0 0 0 0 0 0 0 0 0 0 0 0 0 0 0 0 0 0 0 0 0 0 0 0 0 0 0 0 0 0 0 0 0 
0 0 0 0 0 0 0 0 0 0 0 0 0 0 6 10 22 111 87 129 136 141 192 150 95 97 140 142 127 115 104 119 123 131 147 172 178 158 147 139 121 101 92 71 61 68 85 95 91 97 163 122 81 112 68 65 64 64 62 60 72 76 82 104 130 158 170 202 213 187 142 127 114 106 113 132 102 83 94 122 118 138 195 175 133 102 90 8 0 0 0 0 0 0 0 0 0 0 0 0 0 0 0 0 0 0 0 0 0 0 0 0 0 0 0 0 0 0 0 0 0 0 0 0 0 0 0 0 
0 0 0 0 0 0 0 0 0 0 0 0 0 0 10 11 64 110 95 140 129 164 180 119 87 111 145 130 123 119 123 126 132 139 154 168 155 142 146 128 106 82 56 51 56 60 65 58 54 63 124 107 64 66 57 59 58 57 60 59 61 60 63 70 99 140 154 177 203 214 173 139 123 111 110 128 130 92 82 96 100 121 171 186 144 112 100 24 1 0 0 0 0 0 0 0 0 0 0 0 0 0 0 0 0 0 0 0 0 0 0 0 0 0 0 0 0 0 0 0 0 0 0 0 0 0 0 0 
0 0 0 0 0 0 0 0 0 0 0 0 0 0 10 17 115 86 125 133 139 164 158 95 77 138 128 118 121 123 121 127 138 151 169 154 139 147 148 107 74 55 53 53 53 56 54 52 54 53 61 59 55 56 55 56 57 59 60 59 60 61 61 58 73 123 152 160 182 216 212 164 129 123 116 125 139 114 81 88 70 111 157 193 155 126 97 57 3 0 0 0 0 0 0 0 0 0 0 0 0 0 0 0 0 0 0 0 0 0 0 0 0 0 0 0 0 0 0 0 0 0 0 0 0 0 0 0 
0 0 0 0 0 0 0 0 0 0 0 0 0 6 9 48 120 92 133 133 141 170 125 68 101 145 122 121 133 125 125 136 145 162 161 126 131 144 133 86 54 55 55 56 54 55 55 52 51 53 55 51 50 52 54 56 52 57 57 56 57 58 61 60 61 93 138 151 161 198 225 203 157 136 122 127 144 129 89 88 60 95 147 192 157 137 95 84 6 0 0 0 0 0 0 0 0 0 0 0 0 0 0 0 0 0 0 0 0 0 0 0 0 0 0 0 0 0 0 0 0 0 0 0 0 0 0 0 
0 0 0 0 0 0 0 0 0 0 0 0 0 8 9 94 100 115 136 135 135 153 86 72 126 135 120 138 130 131 137 152 169 173 125 131 152 142 103 65 53 55 51 51 51 52 50 50 53 55 54 53 53 55 55 56 56 55 57 55 54 56 58 62 59 70 114 141 150 169 209 229 195 148 127 129 152 142 106 90 64 71 141 185 158 145 102 95 10 0 0 0 0 0 0 0 0 0 0 0 0 0 0 0 0 0 0 0 0 0 0 0 0 0 0 0 0 0 0 0 0 0 0 0 0 0 0 0 
0 0 0 0 0 0 0 0 0 0 0 0 0 12 21 120 95 126 138 126 130 136 76 95 129 127 132 143 131 133 147 180 193 161 125 140 137 110 80 58 56 55 51 50 48 48 52 52 52 57 58 56 54 59 61 57 58 59 58 57 56 54 56 57 58 58 87 142 145 136 172 222 227 180 136 123 144 144 120 92 67 62 131 186 162 152 111 96 15 0 0 0 0 0 0 0 0 0 0 0 0 0 0 0 0 0 0 0 0 0 0 0 0 0 0 0 0 0 0 0 0 0 0 0 0 0 0 0 
0 0 0 0 0 0 0 0 0 0 0 0 4 11 46 124 100 129 127 110 115 121 86 112 129 134 132 138 129 138 169 198 175 133 109 131 104 68 60 56 53 52 50 49 48 50 52 56 56 60 58 57 58 57 57 57 59 60 58 60 59 57 55 55 57 57 78 138 131 112 130 187 230 223 163 125 132 148 131 93 64 62 135 180 156 151 118 91 23 0 0 0 0 0 0 0 0 0 0 0 0 0 0 0 0 0 0 0 0 0 0 0 0 0 0 0 0 0 0 0 0 0 0 0 0 0 0 0 
0 0 0 0 0 0 0 0 0 0 0 0 6 9 64 115 109 132 112 105 112 113 107 114 134 140 146 137 137 144 187 183 145 113 104 133 84 54 54 51 51 53 57 56 57 58 56 56 58 61 56 53 57 57 60 57 56 61 58 62 64 62 59 58 57 74 113 128 101 98 95 138 196 229 208 143 124 142 135 103 64 51 121 175 156 151 130 93 34 1 0 0 0 0 0 0 0 0 0 0 0 0 0 0 0 0 0 0 0 0 0 0 0 0 0 0 0 0 0 0 0 0 0 0 0 0 0 0 
0 0 0 0 0 0 0 0 0 0 0 0 6 4 83 109 118 138 110 106 98 109 122 113 143 143 138 126 137 124 178 161 120 103 111 132 93 55 52 52 52 56 66 70 63 62 59 58 57 59 60 57 58 60 59 58 59 57 62 66 100 111 91 86 85 82 70 77 97 95 94 104 159 211 225 182 121 125 139 118 64 63 122 171 167 155 136 101 46 3 0 0 0 0 0 0 0 0 0 0 0 0 0 0 0 0 0 0 0 0 0 0 0 0 0 0 0 0 0 0 0 0 0 0 0 0 0 0 
0 0 0 0 0 0 0 0 0 0 0 0 7 7 94 104 123 133 107 113 103 116 132 116 145 145 134 133 131 99 167 139 105 95 105 126 113 63 53 54 54 59 70 74 67 64 60 60 59 60 59 60 62 63 64 61 65 63 59 69 117 138 142 119 74 53 52 65 100 102 100 100 121 177 220 219 139 126 149 129 67 78 116 168 175 147 134 111 57 4 0 0 0 0 0 0 0 0 0 0 0 0 0 0 0 0 0 0 0 0 0 0 0 0 0 0 0 0 0 0 0 0 0 0 0 0 0 0 
0 0 0 0 0 0 0 0 0 0 0 0 8 13 106 103 131 125 112 117 115 127 136 127 144 147 134 135 111 85 158 119 99 99 105 108 110 87 74 71 68 71 75 86 101 94 71 60 59 61 63 63 81 64 63 64 63 63 64 69 114 138 103 51 54 52 58 69 64 63 77 100 114 145 195 228 185 136 152 137 74 83 109 170 186 144 133 121 66 5 0 0 0 0 0 0 0 0 0 0 0 0 0 0 0 0 0 0 0 0 0 0 0 0 0 0 0 0 0 0 0 0 0 0 0 0 0 0 
0 0 0 0 0 0 0 0 0 0 0 0 8 16 111 104 139 118 111 117 130 143 131 127 145 149 138 132 91 79 150 107 93 98 95 75 61 57 67 81 99 108 105 87 76 124 100 62 60 61 62 65 94 72 66 65 66 69 68 76 125 112 61 53 52 57 58 52 52 52 52 49 81 163 184 206 222 164 152 133 74 87 108 166 189 146 139 127 76 9 0 0 0 0 0 0 0 0 0 0 0 0 0 0 0 0 0 0 0 0 0 0 0 0 0 0 0 0 0 0 0 0 0 0 0 0 0 0 
0 0 0 0 0 0 0 0 0 0 0 0 8 17 110 105 144 128 115 115 136 157 129 128 144 148 141 123 78 81 141 96 97 86 56 46 47 45 51 52 53 57 68 93 101 101 96 73 59 62 70 68 99 83 70 76 69 66 74 104 129 98 77 56 52 51 53 56 59 54 51 49 48 108 199 193 225 208 157 129 73 80 115 168 186 151 144 129 88 14 0 0 0 0 0 0 0 0 0 0 0 0 0 0 0 0 0 0 0 0 0 0 0 0 0 0 0 0 0 0 0 0 0 0 0 0 0 0 
0 0 0 0 0 0 0 0 0 0 0 0 9 22 109 107 144 128 121 114 139 173 139 135 146 149 149 121 69 90 136 108 103 53 46 47 50 51 53 54 54 52 52 49 73 117 102 88 85 102 120 104 108 99 96 115 90 86 103 120 96 68 54 60 57 57 58 61 63 59 55 52 50 71 156 212 213 234 189 126 74 74 120 171 175 153 147 131 100 14 0 0 0 0 0 0 0 0 0 0 0 0 0 0 0 0 0 0 0 0 0 0 0 0 0 0 0 0 0 0 0 0 0 0 0 0 0 0 
0 0 0 0 0 0 0 0 0 0 0 0 7 22 102 111 143 130 124 103 129 177 143 136 139 150 152 127 67 108 137 131 66 47 48 52 52 56 59 60 59 57 50 50 57 87 98 75 96 109 95 131 131 112 131 129 106 88 56 60 71 55 55 59 59 61 61 64 64 62 57 58 54 73 143 197 219 222 224 136 74 61 131 168 165 141 144 129 101 15 0 0 0 0 0 0 0 0 0 0 0 0 0 0 0 0 0 0 0 0 0 0 0 0 0 0 0 0 0 0 0 0 0 0 0 0 0 0 
0 0 0 0 0 0 0 0 0 0 0 0 8 21 89 113 147 142 125 78 123 183 155 140 124 147 163 137 102 139 158 120 51 52 51 54 53 55 61 63 64 56 53 55 70 82 109 97 103 103 105 121 154 139 145 75 66 62 61 67 60 55 58 62 63 62 62 63 61 62 69 80 82 88 141 169 219 217 230 163 69 53 136 172 161 131 143 127 106 18 0 0 0 0 0 0 0 0 0 0 0 0 0 0 0 0 0 0 0 0 0 0 0 0 0 0 0 0 0 0 0 0 0 0 0 0 0 0 
0 0 0 0 0 0 0 0 0 0 0 0 7 22 83 116 148 135 92 58 124 187 167 135 122 139 157 135 131 170 179 101 56 54 54 52 52 59 63 61 60 57 57 69 88 100 114 116 105 101 102 127 170 159 166 98 78 67 68 78 60 58 61 65 63 68 75 78 79 86 89 80 74 81 139 154 194 225 224 170 69 45 120 148 154 134 147 128 111 23 0 0 0 0 0 0 0 0 0 0 0 0 0 0 0 0 0 0 0 0 0 0 0 0 0 0 0 0 0 0 0 0 0 0 0 0 0 0 
0 0 0 0 0 0 0 0 0 0 0 0 10 21 75 117 146 130 81 65 124 182 179 138 123 128 159 136 149 179 175 90 76 76 60 55 56 57 60 59 59 63 72 86 97 106 106 114 96 94 97 114 146 141 157 127 91 85 86 78 63 56 62 74 85 93 92 83 76 70 61 55 60 78 131 157 185 219 209 164 66 36 94 141 150 142 144 130 114 27 0 0 0 0 0 0 0 0 0 0 0 0 0 0 0 0 0 0 0 0 0 0 0 0 0 0 0 0 0 0 0 0 0 0 0 0 0 0 
0 0 0 0 0 0 0 0 0 0 0 0 9 22 74 119 147 129 84 69 124 179 176 128 124 132 160 157 156 170 159 66 54 57 53 59 58 60 62 57 57 64 82 103 106 107 101 103 90 89 93 111 140 142 139 138 105 96 88 72 60 62 82 87 89 85 72 63 60 59 57 57 62 89 136 161 190 227 220 170 59 36 70 119 150 140 155 133 119 31 0 0 0 0 0 0 0 0 0 0 0 0 0 0 0 0 0 0 0 0 0 0 0 0 0 0 0 0 0 0 0 0 0 0 0 0 0 0 
0 0 0 0 0 0 0 0 0 0 0 0 8 20 74 123 151 123 85 73 128 171 148 118 118 130 160 209 190 166 150 61 53 52 53 53 57 60 65 68 66 74 92 108 102 97 102 98 87 85 92 117 109 110 114 127 117 98 88 69 72 84 86 74 65 69 67 64 64 57 59 54 58 91 144 167 193 228 228 169 49 34 67 92 138 141 149 136 124 36 2 0 0 0 0 0 0 0 0 0 0 0 0 0 0 0 0 0 0 0 0 0 0 0 0 0 0 0 0 0 0 0 0 0 0 0 0 0 
0 0 0 0 0 0 0 0 0 0 0 0 7 16 71 126 152 110 81 75 132 139 135 118 122 132 166 212 185 177 144 68 54 53 52 51 56 57 62 69 87 103 116 122 107 96 97 92 87 85 103 119 97 99 102 110 134 106 93 89 85 69 64 57 68 85 75 73 63 56 54 59 60 92 148 168 206 224 224 162 46 32 64 94 143 147 129 115 120 43 4 0 0 0 0 0 0 0 0 0 0 0 0 0 0 0 0 0 0 0 0 0 0 0 0 0 0 0 0 0 0 0 0 0 0 0 0 0 
0 0 0 0 0 0 0 0 0 0 0 0 11 16 72 122 149 96 80 92 119 99 138 129 133 139 172 215 167 171 164 101 52 53 53 53 55 57 60 76 85 93 108 121 120 110 106 97 93 95 124 115 107 106 114 122 137 133 105 85 71 58 58 62 82 79 80 72 62 57 56 57 61 100 153 171 223 229 230 157 44 34 62 91 142 147 127 121 116 47 3 0 0 0 0 0 0 0 0 0 0 0 0 0 0 0 0 0 0 0 0 0 0 0 0 0 0 0 0 0 0 0 0 0 0 0 0 0 
0 0 0 0 0 0 0 0 0 0 0 0 9 12 69 114 141 97 86 98 122 90 136 142 137 135 168 214 164 159 168 141 59 55 51 54 56 55 58 73 97 102 103 108 102 96 105 93 95 103 117 103 90 92 103 108 113 138 106 84 70 57 60 74 81 73 75 70 62 58 56 58 63 107 155 177 234 223 226 157 43 35 63 89 144 141 123 129 114 49 4 0 0 0 0 0 0 0 0 0 0 0 0 0 0 0 0 0 0 0 0 0 0 0 0 0 0 0 0 0 0 0 0 0 0 0 0 0 
0 0 0 0 0 0 0 0 0 0 0 0 11 9 63 105 134 101 82 101 107 74 127 148 143 134 161 211 160 150 169 152 59 49 54 53 54 57 56 62 91 117 119 106 95 87 95 87 97 113 112 87 91 98 110 110 111 133 127 93 63 55 59 79 79 74 74 73 65 58 57 57 69 117 158 188 231 212 215 169 45 38 70 94 151 124 111 120 107 47 2 0 0 0 0 0 0 0 0 0 0 0 0 0 0 0 0 0 0 0 0 0 0 0 0 0 0 0 0 0 0 0 0 0 0 0 0 0 
0 0 0 0 0 0 0 0 0 0 0 0 7 11 64 104 126 102 81 101 104 56 112 151 140 134 161 209 160 138 157 141 57 46 51 55 57 56 58 75 97 117 127 107 93 86 92 88 104 120 110 97 102 115 129 113 107 116 135 105 70 56 53 62 75 75 75 71 59 60 60 67 76 123 158 180 218 196 191 179 58 42 76 99 154 108 111 120 107 46 3 0 0 0 0 0 0 0 0 0 0 0 0 0 0 0 0 0 0 0 0 0 0 0 0 0 0 0 0 0 0 0 0 0 0 0 0 0 
0 0 0 0 0 0 0 0 0 0 0 0 4 11 60 98 120 102 84 103 111 48 99 146 141 130 155 211 174 163 160 152 63 47 45 50 53 59 73 97 116 127 115 105 101 95 97 95 122 113 89 92 96 125 133 115 113 110 128 122 86 54 50 56 73 79 81 72 62 64 68 76 80 116 156 177 208 190 168 178 81 42 79 112 149 85 100 117 101 44 3 0 0 0 0 0 0 0 0 0 0 0 0 0 0 0 0 0 0 0 0 0 0 0 0 0 0 0 0 0 0 0 0 0 0 0 0 0 
0 0 0 0 0 0 0 0 0 0 0 0 0 11 43 90 115 105 82 96 120 54 78 134 146 129 146 217 196 184 173 136 77 43 47 44 49 56 68 96 117 126 116 106 104 108 128 119 127 103 95 96 106 125 132 122 116 113 112 129 144 93 56 69 78 73 76 77 74 75 78 78 80 113 152 184 211 204 159 173 105 45 85 132 129 69 93 114 100 36 3 0 0 0 0 0 0 0 0 0 0 0 0 0 0 0 0 0 0 0 0 0 0 0 0 0 0 0 0 0 0 0 0 0 0 0 0 0 
0 0 0 0 0 0 0 0 0 0 0 5 3 7 32 82 118 114 88 86 116 82 65 118 149 136 160 226 199 136 130 149 94 47 43 47 48 58 68 96 122 129 132 117 117 112 113 130 128 113 114 113 116 119 125 138 122 117 107 135 124 85 88 87 78 78 82 81 76 70 69 69 72 96 148 188 200 184 152 160 115 45 107 156 103 60 107 120 89 27 2 0 0 0 0 0 0 0 0 0 0 0 0 0 0 0 0 0 0 0 0 0 0 0 0 0 0 0 0 0 0 0 0 0 0 0 0 0 
0 0 0 0 0 0 0 0 0 0 13 9 6 6 24 73 114 124 94 81 96 107 87 92 151 141 169 225 180 92 90 110 126 78 56 59 71 81 84 102 125 139 127 109 121 115 127 143 139 113 114 118 123 116 119 123 136 134 114 126 132 90 58 64 90 99 95 80 70 65 62 64 60 107 179 188 171 115 119 147 126 81 142 139 78 61 122 117 83 20 1 0 0 0 0 0 0 0 0 0 0 0 0 0 0 0 0 0 0 0 0 0 0 0 0 0 0 0 0 0 0 0 0 0 0 0 0 0 
0 0 0 0 0 0 0 0 0 0 25 19 2 4 15 59 109 136 102 84 90 118 88 60 128 148 179 222 168 85 94 80 110 136 87 77 78 80 97 128 121 124 109 117 125 120 149 161 134 109 104 102 103 111 113 118 112 121 130 114 129 92 58 67 76 60 59 94 90 76 78 82 112 162 166 154 136 62 104 153 169 143 150 108 62 61 125 120 68 12 2 0 0 0 0 0 0 0 0 0 0 0 0 0 0 0 0 0 0 0 0 0 0 0 0 0 0 0 0 0 0 0 0 0 0 0 0 0 
0 0 0 0 0 0 0 0 0 0 6 19 1 5 12 42 104 134 106 87 80 98 101 50 89 150 189 214 167 93 89 79 78 113 107 75 76 72 84 80 95 111 119 119 123 149 157 151 125 111 100 96 96 102 103 108 107 114 118 90 105 86 61 69 74 63 65 58 56 66 96 109 113 141 168 164 117 62 103 156 195 153 124 97 47 83 170 116 48 7 5 4 0 0 0 0 0 0 0 0 0 0 0 0 0 0 0 0 0 0 0 0 0 0 0 0 0 0 0 0 0 0 0 0 0 0 0 0 
0 0 0 0 0 0 0 0 0 0 4 6 6 5 7 33 101 127 129 89 83 73 112 69 54 134 200 207 163 106 77 60 50 76 107 94 63 62 62 66 73 82 89 84 113 132 142 148 128 124 106 99 85 96 111 90 84 88 98 73 90 81 61 68 69 73 89 96 96 104 110 128 151 152 164 138 82 76 124 173 199 169 110 84 65 134 175 94 29 6 6 3 20 4 0 0 0 0 0 0 0 0 0 0 0 0 0 0 0 0 0 0 0 0 0 0 0 0 0 0 0 0 0 0 0 0 0 0 
0 0 0 0 0 0 0 0 0 0 2 2 6 5 6 20 86 122 138 103 85 75 106 107 58 100 207 208 165 124 69 44 45 54 95 65 46 44 47 53 58 49 57 74 73 95 115 119 104 95 82 78 73 105 101 72 74 69 90 68 79 76 64 70 82 78 82 113 116 114 120 154 174 161 159 135 93 81 121 182 215 207 134 71 93 176 169 72 13 5 3 6 2 3 0 0 0 0 0 0 0 0 0 0 0 0 0 0 0 0 0 0 0 0 0 0 0 0 0 0 0 0 0 0 0 0 0 0 
0 0 0 0 0 0 0 0 0 0 0 2 10 6 10 13 69 120 126 139 99 98 126 122 116 114 200 205 152 141 104 70 58 49 71 65 42 47 46 48 51 52 63 67 72 73 98 109 93 76 56 71 85 105 75 64 66 74 103 84 88 77 69 69 79 75 77 117 119 134 151 193 192 182 152 69 35 42 82 162 203 216 180 105 152 178 125 45 7 7 8 1 0 4 0 0 0 0 0 0 0 0 0 0 0 0 0 0 0 0 0 0 0 0 0 0 0 0 0 0 0 0 0 0 0 0 0 0 
0 0 0 0 0 0 0 0 0 0 0 1 8 0 0 8 60 128 115 155 138 147 181 144 124 139 190 206 168 166 126 95 95 99 94 94 68 74 68 60 52 50 51 56 65 65 94 126 92 59 50 53 82 112 71 67 72 88 92 80 68 79 77 84 76 64 94 143 149 149 187 216 209 190 138 47 39 49 82 171 180 165 102 116 155 181 132 28 8 3 9 0 0 3 0 0 0 0 0 0 0 0 0 0 0 0 0 0 0 0 0 0 0 0 0 0 0 0 0 0 0 0 0 0 0 0 0 0 
0 0 0 0 0 0 0 0 0 0 0 0 0 6 0 3 24 104 133 117 153 147 170 161 140 118 156 183 190 182 166 137 128 124 117 110 95 72 72 54 46 49 52 50 55 56 84 128 99 61 60 60 66 105 86 76 67 66 79 68 73 85 102 95 80 61 85 139 146 136 155 207 208 202 142 72 58 71 95 164 183 192 133 149 137 170 146 42 0 0 10 0 0 1 0 0 0 0 0 0 0 0 0 0 0 0 0 0 0 0 0 0 0 0 0 0 0 0 0 0 0 0 0 0 0 0 0 0 
0 0 0 0 0 0 0 0 0 0 0 0 0 6 0 2 19 85 135 132 141 142 146 148 119 104 141 143 138 163 155 156 170 173 155 143 120 45 73 71 56 54 67 66 67 61 70 110 62 60 59 54 61 88 87 88 72 71 87 50 71 79 76 64 58 55 61 122 145 153 179 202 197 173 97 74 78 91 121 177 171 190 124 103 131 131 100 18 0 0 8 0 0 0 0 0 0 0 0 0 0 0 0 0 0 0 0 0 0 0 0 0 0 0 0 0 0 0 0 0 0 0 0 0 0 0 0 0 
0 0 0 0 0 0 0 0 0 0 0 0 0 9 0 0 18 51 130 150 142 133 119 115 105 105 154 151 129 146 159 146 164 200 184 158 138 83 114 126 109 89 105 85 65 63 73 110 70 62 68 68 74 109 102 98 79 86 85 51 65 91 80 66 55 49 51 99 151 190 211 207 181 108 69 55 83 129 139 179 182 181 124 113 152 130 60 10 0 0 6 0 0 0 0 0 0 0 0 0 0 0 0 0 0 0 0 0 0 0 0 0 0 0 0 0 0 0 0 0 0 0 0 0 0 0 0 0 
0 0 0 0 0 0 0 0 0 0 0 0 0 10 0 3 14 29 112 155 157 131 155 128 102 95 119 165 133 121 147 171 167 180 203 175 152 151 136 134 81 54 68 61 52 53 76 117 99 95 108 86 67 82 96 108 100 135 115 86 75 98 82 69 57 56 73 132 186 202 196 183 123 74 72 65 109 140 140 172 166 131 160 183 199 131 35 8 0 5 7 0 0 0 0 0 0 0 0 0 0 0 0 0 0 0 0 0 0 0 0 0 0 0 0 0 0 0 0 0 0 0 0 0 0 0 0 0 
0 0 0 0 0 0 0 0 0 0 0 0 0 15 0 5 15 16 72 142 144 130 157 162 112 96 98 119 112 99 77 149 176 157 175 195 186 169 149 84 51 59 60 51 52 53 79 121 148 161 173 146 84 76 106 139 131 116 67 74 80 101 91 75 75 108 135 148 196 215 184 129 76 70 70 98 130 146 150 137 148 157 156 178 166 68 18 10 1 6 5 0 0 0 0 0 0 0 0 0 0 0 0 0 0 0 0 0 0 0 0 0 0 0 0 0 0 0 0 0 0 0 0 0 0 0 0 0 
0 0 0 0 0 0 0 0 0 0 0 6 4 14 0 10 16 12 43 137 164 126 125 136 122 106 104 102 127 125 59 86 147 176 168 172 208 196 117 56 51 62 53 49 48 56 81 125 153 174 188 191 152 128 158 136 106 83 89 82 73 105 111 106 129 151 146 158 176 180 117 63 52 68 91 114 145 152 150 182 201 158 115 111 159 45 13 13 2 7 6 0 0 0 0 0 0 0 0 0 0 0 0 0 0 0 0 0 0 0 0 0 0 0 0 0 0 0 0 0 0 0 0 0 0 0 0 0 
0 0 0 0 0 0 0 0 0 0 0 0 16 16 0 6 17 18 28 104 175 147 107 114 137 136 115 106 132 119 74 63 72 116 169 175 203 202 140 100 68 60 51 71 106 126 146 163 137 123 113 145 181 194 193 161 164 153 141 130 126 155 169 154 158 165 170 167 121 108 75 45 55 72 102 103 150 164 166 207 181 155 80 98 106 30 11 13 7 10 13 0 0 0 0 0 0 0 0 0 0 0 0 0 0 0 0 0 0 0 0 0 0 0 0 0 0 0 0 0 0 0 0 0 0 0 0 0 
0 0 0 0 0 0 0 0 0 0 0 0 10 12 0 8 17 22 22 70 172 177 129 127 130 174 136 136 158 125 118 105 79 66 98 162 190 183 158 150 136 116 118 135 135 136 162 131 112 94 91 103 130 141 149 149 142 152 150 154 153 170 185 177 170 165 154 115 59 89 86 77 81 100 96 111 153 195 202 220 172 139 33 121 77 20 13 15 8 8 8 0 0 0 0 0 0 0 0 0 0 0 0 0 0 0 0 0 0 0 0 0 0 0 0 0 0 0 0 0 0 0 0 0 0 0 0 0 
0 0 0 0 0 0 0 0 0 0 0 0 0 0 0 8 18 24 24 35 133 167 128 136 100 150 146 133 141 118 106 96 85 65 57 87 128 154 159 161 169 150 143 138 133 146 160 135 127 126 140 144 138 124 123 122 125 139 145 153 159 163 165 174 167 155 124 78 106 80 61 77 104 124 99 120 166 189 195 197 167 156 84 164 45 20 14 12 4 5 6 0 0 0 0 0 0 0 0 0 0 0 0 0 0 0 0 0 0 0 0 0 0 0 0 0 0 0 0 0 0 0 0 0 0 0 0 0 
0 0 0 0 0 0 0 0 0 0 0 0 0 0 0 9 14 20 26 24 81 156 117 121 131 128 144 110 122 136 113 87 86 89 81 55 69 100 119 126 149 146 131 136 142 153 137 134 131 144 141 151 165 154 159 160 154 148 136 140 146 141 150 134 139 122 94 109 137 97 76 93 116 125 113 137 169 185 177 174 163 168 173 125 31 23 16 8 3 0 4 0 0 0 0 0 0 0 0 0 0 0 0 0 0 0 0 0 0 0 0 0 0 0 0 0 0 0 0 0 0 0 0 0 0 0 0 0 
0 0 0 0 0 0 0 0 0 0 0 0 5 4 0 2 14 14 18 25 50 114 139 137 167 165 140 91 80 135 143 121 94 85 89 86 61 53 72 93 126 160 150 139 144 154 131 138 147 142 131 156 160 134 126 140 123 110 97 87 77 103 121 79 110 114 78 77 103 112 95 106 115 117 121 158 182 179 172 170 174 183 152 74 28 20 13 2 3 0 0 0 0 0 0 0 0 0 0 0 0 0 0 0 0 0 0 0 0 0 0 0 0 0 0 0 0 0 0 0 0 0 0 0 0 0 0 0 
0 0 0 0 0 0 0 0 0 0 0 0 5 7 0 0 8 13 17 15 35 85 106 105 130 157 159 140 64 87 124 140 127 101 93 94 94 94 101 99 105 161 168 157 144 149 112 116 131 113 130 139 141 149 118 90 69 52 47 44 47 84 100 79 107 126 105 92 112 113 109 112 114 98 112 110 151 149 171 151 151 136 107 61 27 21 9 5 0 0 0 0 0 0 0 0 0 0 0 0 0 0 0 0 0 0 0 0 0 0 0 0 0 0 0 0 0 0 0 0 0 0 0 0 0 0 0 0 
0 0 0 0 0 0 0 0 0 0 0 0 4 8 2 0 3 17 14 14 20 64 79 38 36 86 155 154 109 90 90 122 149 127 116 117 124 127 111 94 105 181 128 154 168 147 94 83 90 111 130 131 128 135 123 99 74 68 57 53 60 98 95 109 120 141 119 116 126 124 107 86 68 93 99 103 143 146 115 58 54 45 88 54 19 16 7 3 0 0 0 0 0 0 0 0 0 0 0 0 0 0 0 0 0 0 0 0 0 0 0 0 0 0 0 0 0 0 0 0 0 0 0 0 0 0 0 0 
0 0 0 0 0 0 0 0 0 0 0 0 6 8 8 8 8 9 15 12 13 39 88 33 21 40 93 111 114 142 114 94 101 117 103 111 118 112 108 114 177 210 135 132 176 186 181 145 122 129 132 131 128 143 165 166 142 136 133 123 124 136 118 132 154 161 131 192 218 148 56 73 80 125 107 115 120 85 87 58 37 61 78 25 14 7 9 1 0 0 0 0 7 0 0 0 0 0 0 0 0 0 0 0 0 0 0 0 0 0 0 0 0 0 0 0 0 0 0 0 0 0 0 0 0 0 0 0 
0 0 0 0 0 0 0 0 0 0 0 0 8 8 8 5 3 0 17 14 17 18 54 33 21 28 36 82 112 135 146 91 59 114 81 54 64 81 99 215 150 139 117 123 166 181 184 190 209 223 218 210 216 209 185 186 224 234 215 171 148 160 147 142 145 146 105 137 95 122 86 141 136 125 85 64 65 43 88 98 96 82 35 4 10 3 0 3 0 0 0 6 1 0 0 0 0 0 0 0 0 0 0 0 0 0 0 0 0 0 0 0 0 0 0 0 0 0 0 0 0 0 0 0 0 0 0 0 
0 0 0 0 0 0 0 0 0 0 0 0 3 7 1 0 0 0 11 20 13 14 17 51 21 35 42 38 36 87 130 120 74 98 123 39 24 40 111 135 85 99 86 127 250 166 137 180 144 158 194 195 188 191 190 179 192 185 150 129 131 142 140 127 116 168 156 182 229 147 239 169 94 57 21 19 51 30 65 88 80 38 7 0 2 2 0 0 0 1 5 8 2 0 0 0 0 0 0 0 0 0 0 0 0 0 0 0 0 0 0 0 0 0 0 0 0 0 0 0 0 0 0 0 0 0 0 0 
0 0 0 0 0 0 0 0 0 0 0 0 0 5 0 0 0 0 0 12 8 5 6 32 76 95 63 39 39 42 57 69 93 110 141 106 52 62 101 103 100 104 121 149 245 121 156 185 200 196 200 184 198 198 198 192 183 206 146 127 128 184 164 163 196 174 128 189 240 237 233 230 215 148 100 102 99 50 52 41 22 22 19 13 17 2 0 0 0 0 0 7 3 0 0 0 0 0 0 0 0 0 0 0 0 0 0 0 0 0 0 0 0 0 0 0 0 0 0 0 0 0 0 0 0 0 0 0 
0 0 0 0 0 0 0 0 0 0 0 0 0 3 6 4 0 0 0 0 8 12 15 15 43 76 51 34 32 50 69 49 74 105 114 106 86 86 86 80 71 64 74 113 146 100 115 143 135 159 103 141 188 148 128 157 117 114 133 80 89 112 101 77 62 113 53 39 52 60 59 92 63 33 40 67 85 32 29 22 17 22 25 13 1 0 0 0 0 0 0 7 8 0 0 0 0 0 0 0 0 0 0 0 0 0 0 0 0 0 0 0 0 0 0 0 0 0 0 0 0 0 0 0 0 0 0 0 
0 0 0 0 0 0 0 0 0 0 0 0 0 0 7 6 1 0 0 0 6 13 14 12 18 20 26 26 25 40 70 45 50 58 85 51 41 46 45 39 48 48 58 101 110 94 62 54 68 126 50 86 120 88 78 103 69 77 147 78 83 135 152 119 76 70 54 44 53 40 53 90 60 32 31 66 84 32 23 18 19 22 22 13 5 0 0 0 0 4 5 7 3 0 0 0 0 0 0 0 0 0 0 0 0 0 0 0 0 0 0 0 0 0 0 0 0 0 0 0 0 0 0 0 0 0 0 0 
0 0 0 0 0 0 0 0 0 0 0 0 0 0 0 0 0 0 0 0 2 15 16 15 16 15 32 43 45 58 84 62 73 74 93 47 31 67 167 200 197 145 80 115 139 126 106 100 133 139 69 78 82 75 67 91 66 29 93 125 133 151 143 137 193 232 221 25 21 34 68 117 92 104 124 148 135 84 63 41 16 21 14 11 3 0 0 0 0 3 4 2 0 0 0 0 0 0 0 0 0 0 0 0 0 0 0 0 0 0 0 0 0 0 0 0 0 0 0 0 0 0 0 0 0 0 0 0 
0 0 0 0 0 0 0 0 0 0 0 0 0 0 0 0 0 0 0 0 0 14 13 9 9 6 9 24 26 22 63 33 47 49 88 72 66 53 122 177 122 99 74 136 170 187 179 174 146 104 59 104 102 93 100 121 121 103 133 160 194 216 219 225 234 224 214 137 35 99 63 114 145 173 194 216 197 165 141 116 31 5 1 1 0 0 0 0 0 0 0 0 0 0 0 0 0 0 0 0 0 0 0 0 0 0 0 0 0 0 0 0 0 0 0 0 0 0 0 0 0 0 0 0 0 0 0 0 
0 0 0 0 0 0 0 0 0 0 0 0 0 0 0 0 0 0 0 0 0 0 0 0 5 4 4 17 30 26 30 30 36 45 84 60 87 67 224 199 110 62 119 129 172 132 99 146 84 89 138 127 146 162 156 152 168 158 177 175 177 211 232 230 150 102 78 122 68 83 62 58 63 36 16 50 83 69 75 62 1 3 0 0 0 0 0 0 0 0 0 0 0 0 0 0 0 0 0 0 0 0 0 0 0 0 0 0 0 0 0 0 0 0 0 0 0 0 0 0 0 0 0 0 0 0 0 0 
0 0 0 0 0 0 0 0 0 0 0 0 0 0 0 0 0 0 0 0 0 0 3 5 10 11 56 70 76 90 104 122 123 148 172 145 62 59 143 52 72 104 86 98 145 57 133 133 128 88 106 130 127 110 107 116 121 128 110 119 137 144 121 136 143 42 55 137 48 66 35 36 44 26 19 32 47 24 38 25 5 12 6 0 0 0 0 0 0 0 0 0 0 0 0 0 0 0 0 0 0 0 0 0 0 0 0 0 0 0 0 0 0 0 0 0 0 0 0 0 0 0 0 0 0 0 0 0 
0 0 0 0 0 0 0 0 0 0 0 0 0 0 0 0 0 0 0 0 0 0 4 10 13 13 17 16 23 26 37 70 44 72 90 79 83 79 66 52 92 118 105 100 99 97 134 119 124 96 118 146 130 96 91 103 100 95 77 76 95 149 162 169 204 235 227 125 110 37 28 47 86 75 36 51 58 18 23 21 19 17 6 0 0 0 0 0 0 0 0 0 0 0 0 0 0 0 0 0 0 0 0 0 0 0 0 0 0 0 0 0 0 0 0 0 0 0 0 0 0 0 0 0 0 0 0 0 
0 0 0 0 0 0 0 0 0 0 0 0 0 0 0 0 0 0 0 0 0 0 3 7 10 13 17 16 17 17 32 63 44 66 57 39 40 41 39 45 79 102 72 95 91 140 108 119 131 109 88 104 110 84 61 79 98 82 70 67 91 139 146 142 109 206 227 200 173 50 31 43 50 60 42 59 60 22 15 17 16 15 8 0 0 0 0 0 0 0 0 0 0 0 0 0 0 0 0 0 0 0 0 0 0 0 0 0 0 0 0 0 0 0 0 0 0 0 0 0 0 0 0 0 0 0 0 0 
0 0 0 0 0 0 0 0 0 0 0 0 0 0 0 0 0 0 0 0 0 0 0 6 9 9 15 19 16 13 25 59 51 68 53 37 41 48 54 89 115 83 51 76 94 100 108 131 137 108 104 125 98 67 57 82 112 107 100 106 114 129 130 124 92 141 165 188 184 128 59 42 50 70 43 61 63 21 14 16 15 16 6 0 0 0 0 0 0 0 0 0 0 0 0 0 0 0 0 0 0 0 0 0 0 0 0 0 0 0 0 0 0 0 0 0 0 0 0 0 0 0 0 0 0 0 0 0 
0 0 0 0 0 0 0 0 0 0 0 0 0 0 0 0 0 0 0 0 0 0 0 5 6 10 14 16 20 12 20 62 60 69 52 37 53 102 128 107 79 73 63 74 100 72 112 135 140 102 92 137 121 83 67 95 145 140 140 138 147 162 150 122 89 140 102 140 174 168 146 76 47 73 51 61 69 19 13 16 15 14 3 0 0 0 0 0 0 0 0 0 0 0 0 0 0 0 0 0 0 0 0 0 0 0 0 0 0 0 0 0 0 0 0 0 0 0 0 0 0 0 0 0 0 0 0 0 
0 0 0 0 0 0 0 0 0 0 0 0 0 0 0 0 0 0 0 0 0 0 0 0 11 6 11 12 22 16 12 63 65 77 49 43 99 130 73 52 59 56 53 95 147 78 83 120 112 101 106 136 125 116 103 120 158 153 134 148 165 144 142 108 74 139 88 91 132 138 144 163 95 78 78 69 74 22 16 14 17 10 0 0 0 0 0 0 0 0 0 0 0 0 0 0 0 0 0 0 0 0 0 0 0 0 0 0 0 0 0 0 0 0 0 0 0 0 0 0 0 0 0 0 0 0 0 0 
0 0 0 0 0 0 0 0 0 0 0 0 0 0 0 0 0 0 0 0 0 0 0 0 1 8 3 11 18 22 16 65 74 76 41 53 148 120 51 40 47 42 46 118 157 77 74 101 95 107 127 127 102 109 114 132 148 140 101 117 146 118 94 70 71 142 114 59 68 61 55 138 153 87 96 75 70 20 17 14 20 8 0 0 0 0 0 0 0 0 0 0 0 0 0 0 0 0 0 0 0 0 0 0 0 0 0 0 0 0 0 0 0 0 0 0 0 0 0 0 0 0 0 0 0 0 0 0 
0 0 0 0 0 0 0 0 0 0 0 0 0 0 0 0 0 0 0 0 0 0 0 0 0 5 4 8 18 17 19 52 67 61 28 49 156 120 48 43 42 42 52 117 137 72 68 90 96 107 129 104 74 71 88 108 116 105 79 83 122 112 86 65 67 122 133 60 44 39 35 99 178 87 78 86 43 16 16 19 20 7 0 0 0 0 0 0 0 0 0 0 0 0 0 0 0 0 0 0 0 0 0 0 0 0 0 0 0 0 0 0 0 0 0 0 0 0 0 0 0 0 0 0 0 0 0 0 
0 0 0 0 0 0 0 0 0 0 0 0 0 0 0 0 0 0 0 0 0 0 0 0 0 0 10 6 15 16 20 25 58 36 16 42 155 130 48 38 49 56 71 106 91 65 65 86 109 112 109 83 57 58 78 83 84 96 112 88 103 103 76 59 61 69 113 71 42 32 33 103 175 67 30 24 17 15 18 21 20 7 0 0 0 0 0 0 0 0 0 0 0 0 0 0 0 0 0 0 0 0 0 0 0 0 0 0 0 0 0 0 0 0 0 0 0 0 0 0 0 0 0 0 0 0 0 0 
0 0 0 0 0 0 0 0 0 0 0 0 0 0 0 0 0 0 0 0 0 0 0 0 0 0 5 4 9 17 16 16 15 26 17 31 140 159 68 47 45 56 80 68 67 56 60 81 111 109 91 90 76 71 82 89 100 121 119 81 94 116 92 48 40 39 56 73 41 34 38 114 172 56 32 24 16 14 20 21 17 4 0 0 0 0 0 0 0 0 0 0 0 0 0 0 0 0 0 0 0 0 0 0 0 0 0 0 0 0 0 0 0 0 0 0 0 0 0 0 0 0 0 0 0 0 0 0 
0 0 0 0 0 0 0 0 0 0 0 0 0 0 0 0 0 0 0 0 0 0 0 0 0 0 0 8 4 13 17 17 12 17 17 20 96 166 94 46 48 63 85 63 63 53 51 67 102 101 77 74 89 101 89 74 76 94 96 77 100 112 73 35 39 39 42 78 65 46 63 130 169 48 32 25 23 16 22 22 15 4 0 0 0 0 0 0 0 0 0 0 0 0 0 0 0 0 0 0 0 0 0 0 0 0 0 0 0 0 0 0 0 0 0 0 0 0 0 0 0 0 0 0 0 0 0 0 
0 0 0 0 0 0 0 0 0 0 0 0 0 0 0 0 0 0 0 0 0 0 0 0 0 0 0 3 5 7 18 16 14 13 16 11 38 138 149 83 76 102 87 57 66 61 50 55 94 104 86 64 63 81 73 87 111 124 87 90 119 132 67 40 50 44 41 77 97 113 127 182 134 29 33 23 21 18 22 25 15 4 0 0 0 0 0 0 0 0 0 0 0 0 0 0 0 0 0 0 0 0 0 0 0 0 0 0 0 0 0 0 0 0 0 0 0 0 0 0 0 0 0 0 0 0 0 0 
0 0 0 0 0 0 0 0 0 0 0 0 0 0 0 0 0 0 0 0 0 0 0 0 0 0 0 0 10 5 11 17 14 12 7 18 20 63 167 165 157 153 82 40 58 71 54 54 90 116 98 73 93 105 103 114 115 114 92 88 101 119 89 39 47 49 37 57 102 163 188 175 59 27 29 23 24 15 22 25 12 3 0 0 0 0 0 0 0 0 0 0 0 0 0 0 0 0 0 0 0 0 0 0 0 0 0 0 0 0 0 0 0 0 0 0 0 0 0 0 0 0 0 0 0 0 0 0 
0 0 0 0 0 0 0 0 0 0 0 0 0 0 0 0 0 0 0 0 0 0 0 0 0 0 0 0 3 8 7 15 14 13 5 11 14 21 57 140 176 150 63 31 54 62 52 61 100 118 96 69 79 100 103 109 113 88 84 87 97 122 117 58 35 41 36 42 88 164 145 56 33 29 24 22 23 11 20 23 12 2 0 0 0 0 0 0 0 0 0 0 0 0 0 0 0 0 0 0 0 0 0 0 0 0 0 0 0 0 0 0 0 0 0 0 0 0 0 0 0 0 0 0 0 0 0 0 
0 0 0 0 0 0 0 0 0 0 0 0 0 0 0 0 0 0 0 0 0 0 0 0 0 0 0 0 0 10 5 9 14 12 5 1 12 19 35 37 38 42 34 42 49 50 54 69 111 128 92 54 83 99 95 114 112 81 66 77 100 131 128 79 41 42 38 39 42 39 34 33 29 27 21 22 20 11 17 20 8 0 0 0 0 0 0 0 0 0 0 0 0 0 0 0 0 0 0 0 0 0 0 0 0 0 0 0 0 0 0 0 0 0 0 0 0 0 0 0 0 0 0 0 0 0 0 0 
0 0 0 0 0 0 0 0 0 0 0 0 0 0 0 0 0 0 0 0 0 0 0 0 0 0 0 0 0 8 7 8 12 11 8 2 6 15 32 38 36 35 31 40 57 61 64 75 114 124 106 93 110 116 114 118 118 105 91 92 106 138 138 94 59 66 54 46 46 36 33 29 31 26 20 14 16 16 17 14 5 0 0 0 0 0 0 0 0 0 0 0 0 0 0 0 0 0 0 0 0 0 0 0 0 0 0 0 0 0 0 0 0 0 0 0 0 0 0 0 0 0 0 0 0 0 0 0 
0 0 0 0 0 0 0 0 0 0 0 0 0 0 0 0 0 0 0 0 0 0 0 0 0 0 0 0 0 4 8 7 8 13 8 5 7 9 24 34 36 34 31 42 60 77 74 77 90 109 111 117 128 128 122 114 121 116 106 110 117 133 124 76 86 93 67 54 54 42 29 31 29 25 18 8 18 16 16 10 6 0 0 0 0 0 0 0 0 0 0 0 0 0 0 0 0 0 0 0 0 0 0 0 0 0 0 0 0 0 0 0 0 0 0 0 0 0 0 0 0 0 0 0 0 0 0 0 
