P2
128 99
204
0 0 0 0 0 0 0 0 0 0 0 0 0 0 0 0 0 0 0 0 0 0 0 0 0 0 0 0 0 0 0 0 0 0 0 0 0 0 0 0 0 0 0 0 0 0 0 0 0 0 0 0 0 0 0 0 0 0 0 0 0 0 0 0 0 0 0 0 0 0 0 0 0 0 0 0 0 0 0 0 0 0 0 0 0 0 0 0 0 0 0 0 0 0 0 0 0 2 0 0 0 0 0 0 0 0 0 0 0 0 0 0 0 0 0 0 0 0 0 0 0 0 0 0 0 0 0 0 
0 0 0 0 0 0 0 0 0 0 0 0 0 0 0 0 0 0 0 0 0 0 0 0 0 0 0 0 0 0 0 0 0 0 0 0 0 0 0 0 0 0 0 0 0 0 0 0 0 0 0 0 0 0 0 0 0 0 0 0 0 0 0 0 0 0 0 0 0 0 0 0 0 0 0 0 0 0 0 0 0 0 0 0 0 0 0 0 0 0 0 0 0 0 0 0 0 2 0 0 0 0 0 0 0 0 0 0 0 0 0 0 0 0 0 0 0 0 0 0 0 0 0 0 0 0 0 0 
0 0 0 0 0 0 0 0 0 0 0 0 0 0 0 0 0 0 0 0 0 0 0 0 0 0 0 0 0 0 0 0 0 0 0 0 0 0 0 0 0 0 0 0 0 0 0 0 0 0 0 1 2 2 1 0 0 0 0 0 0 0 0 0 0 0 0 0 0 0 0 0 0 0 0 0 0 0 0 0 0 0 0 0 0 0 0 0 0 0 0 0 0 0 0 0 0 3 0 0 0 0 0 0 0 0 0 0 0 0 0 0 0 0 0 0 0 0 0 0 0 0 0 0 0 0 0 0 
0 0 0 0 0 0 0 0 0 0 0 0 0 0 0 0 0 0 0 0 0 0 0 0 0 0 0 0 0 0 0 0 0 0 0 0 0 0 0 0 0 0 0 1 6 14 16 17 18 19 22 26 29 28 25 21 18 16 15 12 5 0 0 0 0 0 0 0 0 0 0 0 0 0 0 0 0 0 0 0 0 0 0 0 0 0 0 0 0 0 0 0 0 0 0 0 0 3 0 0 0 0 0 0 0 0 0 0 0 0 0 0 0 0 0 0 0 0 0 0 0 0 0 0 0 0 0 0 
0 0 0 0 0 0 0 0 0 0 0 0 0 0 0 0 0 0 0 0 0 0 0 0 0 0 0 0 0 0 0 0 0 0 0 0 0 0 0 0 5 13 19 24 24 32 53 77 99 118 134 144 148 149 145 135 120 100 78 54 33 21 17 10 2 0 0 0 0 0 0 0 0 0 0 0 0 0 0 0 0 0 0 0 0 0 0 0 0 0 0 0 0 0 0 0 0 2 0 0 0 0 0 0 0 0 0 0 0 0 0 0 0 0 0 0 0 0 0 0 0 0 0 0 0 0 0 0 
0 0 0 0 0 0 0 0 0 0 0 0 0 0 0 0 0 0 0 0 0 0 0 0 0 0 0 0 0 0 0 0 0 0 0 0 0 1 9 16 23 24 35 68 109 145 165 172 178 182 184 184 183 182 184 183 182 179 173 163 144 114 78 43 24 16 10 2 0 0 0 0 0 0 0 0 0 0 0 0 0 0 0 0 0 0 0 0 0 0 0 0 0 0 0 0 0 2 0 0 0 0 0 0 0 0 0 0 0 0 0 0 0 0 0 0 0 0 0 0 0 0 0 0 0 0 0 0 
0 0 0 0 0 0 0 0 0 0 0 0 0 0 0 0 0 0 0 0 0 0 0 0 0 0 0 0 0 0 0 0 0 0 0 1 9 21 24 25 50 100 146 170 181 184 185 186 187 188 191 192 193 193 193 191 189 186 183 183 184 179 168 149 119 76 39 18 13 2 0 0 0 0 0 0 0 0 0 0 0 0 0 0 0 0 0 0 0 0 0 0 0 0 0 0 0 2 0 0 0 0 0 0 0 0 0 0 0 0 0 0 0 0 0 0 0 0 0 0 0 0 0 0 0 0 0 0 
0 0 0 0 0 0 0 0 0 0 0 0 0 0 0 0 0 0 0 0 0 0 0 0 0 0 0 0 0 0 0 0 0 0 8 24 24 27 62 120 162 177 184 188 189 188 187 183 178 175 179 185 185 173 171 183 196 200 198 193 188 184 184 184 180 167 143 99 49 23 13 2 0 0 0 0 0 0 0 0 0 0 0 0 0 0 0 0 0 0 0 0 0 0 0 0 0 2 0 0 0 0 0 0 0 0 0 0 0 0 0 0 0 0 0 0 0 0 0 0 0 0 0 0 0 0 0 0 
0 0 0 0 0 0 0 0 0 0 0 0 0 0 0 0 0 0 0 0 0 0 0 0 0 0 0 0 0 0 0 0 5 27 27 25 59 124 165 177 181 186 188 189 188 182 176 166 153 150 151 153 150 145 146 149 158 174 193 201 200 197 193 188 183 184 184 174 150 101 43 22 10 0 0 0 0 0 0 0 0 0 0 0 0 0 0 0 0 0 0 0 0 0 0 0 0 2 0 0 0 0 0 0 0 0 0 0 0 0 0 0 0 0 0 0 0 0 0 0 0 0 0 0 0 0 0 0 
0 0 0 0 0 0 0 0 0 0 0 0 0 0 0 0 0 0 0 0 0 0 0 0 0 0 0 0 0 0 0 23 26 21 40 109 163 176 179 184 186 190 190 178 165 155 146 137 131 129 136 145 146 141 142 143 143 147 162 181 196 199 200 200 196 190 183 182 183 173 143 77 29 19 2 0 0 0 0 0 0 0 0 0 0 0 0 0 0 0 0 0 0 0 0 0 0 2 0 0 0 0 0 0 0 0 0 0 0 0 0 0 0 0 0 0 0 0 0 0 0 0 0 0 0 0 0 0 
0 0 0 0 0 0 0 0 0 0 0 0 0 0 0 0 0 0 0 0 0 0 0 0 0 0 0 0 0 10 28 22 24 82 153 175 178 182 185 189 195 189 167 157 155 150 145 141 137 136 137 139 137 135 142 145 147 146 152 154 166 185 198 202 200 198 196 190 183 184 183 167 117 45 23 6 0 0 0 0 0 0 0 0 0 0 0 0 0 0 0 0 0 0 0 0 0 2 0 0 0 0 0 0 0 0 0 0 0 0 0 0 0 0 0 0 0 0 0 0 0 0 0 0 0 0 0 0 
0 0 0 0 0 0 0 0 0 0 0 0 0 0 0 0 0 0 0 0 0 0 0 0 0 0 0 0 23 25 17 49 129 170 175 181 185 190 198 194 176 162 155 153 150 149 149 143 140 135 127 128 128 130 142 145 142 139 141 149 161 173 183 192 201 204 200 196 195 191 187 185 177 145 68 25 11 0 0 0 0 0 0 0 0 0 0 0 0 0 0 0 0 0 0 0 0 3 0 0 0 0 0 0 0 0 0 0 0 0 0 0 0 0 0 0 0 0 0 0 0 0 0 0 0 0 0 0 
0 0 0 0 0 0 0 0 0 0 0 0 0 0 0 0 0 0 0 0 0 0 0 0 0 0 5 26 20 21 76 152 173 180 185 190 197 197 181 166 161 164 162 159 152 147 142 139 140 137 132 133 130 125 133 142 142 145 148 146 146 154 163 175 187 195 201 204 201 196 195 190 184 180 156 84 25 13 0 0 0 0 0 0 0 0 0 0 0 0 0 0 0 0 0 0 0 3 0 0 0 0 0 0 0 0 0 0 0 0 0 0 0 0 0 0 0 0 0 0 0 0 0 0 0 0 0 0 
0 0 0 0 0 0 0 0 0 0 0 0 0 0 0 0 0 0 0 0 0 0 0 0 0 11 26 18 26 99 162 173 184 189 194 200 191 174 164 167 170 157 146 143 140 140 142 141 131 126 115 110 109 115 119 129 137 140 143 144 145 150 161 164 166 173 185 196 202 204 198 196 190 181 179 160 92 27 14 0 0 0 0 0 0 0 0 0 0 0 0 0 0 0 0 0 0 4 0 0 0 0 0 0 0 0 0 0 0 0 0 0 0 0 0 0 0 0 0 0 0 0 0 0 0 0 0 0 
0 0 0 0 0 0 0 0 0 0 0 0 0 0 0 0 0 0 0 0 0 0 0 0 14 23 16 34 114 165 174 187 193 198 197 181 167 169 173 158 150 149 151 152 145 142 135 127 127 126 122 125 123 126 128 127 133 142 147 144 143 141 142 153 161 166 166 168 182 193 198 200 197 191 181 181 165 103 30 13 0 0 0 0 0 0 0 0 0 0 0 0 0 0 0 0 0 3 0 0 0 0 0 0 0 0 0 0 0 0 0 0 0 0 0 0 0 0 0 0 0 0 0 0 0 0 0 0 
0 0 0 0 0 0 0 0 0 0 0 0 0 0 0 0 0 0 0 0 0 0 4 18 20 15 44 125 162 176 189 193 197 186 170 166 173 164 154 154 151 145 144 138 133 131 136 135 128 126 126 121 117 119 122 123 123 126 134 143 144 146 147 149 151 152 157 162 161 169 183 192 199 198 193 182 181 167 115 35 12 0 0 0 0 0 0 0 0 0 0 0 0 0 0 0 0 3 0 0 0 0 0 0 0 0 0 0 0 0 0 0 0 0 0 0 0 0 0 0 0 0 0 0 0 0 0 0 
0 0 0 0 0 0 0 0 0 0 0 0 0 0 0 0 0 0 0 0 0 5 17 16 16 57 136 162 176 190 194 195 175 166 164 166 157 153 154 146 143 147 142 129 120 113 108 103 102 101 107 106 103 105 105 108 114 121 124 124 122 123 130 139 151 153 151 150 159 161 161 174 184 196 199 193 184 181 166 122 38 9 0 0 0 0 0 0 0 0 0 0 0 0 0 0 0 3 0 0 0 0 0 0 0 0 0 0 0 0 0 0 0 0 0 0 0 0 0 0 0 0 0 0 0 0 0 0 
0 0 0 0 0 0 0 0 0 0 0 0 0 0 0 0 0 0 0 0 6 17 14 18 70 144 162 178 192 196 191 169 161 160 163 154 149 141 137 145 149 143 128 117 111 108 107 108 108 110 109 107 108 119 121 121 123 124 128 133 132 129 123 122 128 138 146 148 145 150 153 155 164 175 189 198 192 183 180 167 125 36 6 0 0 0 0 0 0 0 0 0 0 0 0 0 0 3 0 0 0 0 0 0 0 0 0 0 0 0 0 0 0 0 0 0 0 0 0 0 0 0 0 0 0 0 0 0 
0 0 0 0 0 0 0 0 0 0 0 0 0 0 0 0 0 0 0 6 16 13 20 78 146 161 176 190 194 186 165 158 155 160 150 142 133 136 146 143 134 123 117 117 123 125 124 126 125 121 121 117 118 125 125 124 124 123 122 122 128 132 136 133 120 115 128 141 147 142 142 146 150 160 169 184 197 193 184 178 165 118 28 3 0 0 0 0 0 0 0 0 0 0 0 0 0 3 0 0 0 0 0 0 0 0 0 0 0 0 0 0 0 0 0 0 0 0 0 0 0 0 0 0 0 0 0 0 
0 0 0 0 0 0 0 0 0 0 0 0 0 0 0 0 0 0 5 16 12 21 81 147 161 174 187 191 181 163 154 151 157 146 137 125 131 144 141 129 120 117 121 123 120 113 113 114 110 109 104 98 99 109 109 110 111 112 112 112 112 113 119 127 134 126 116 125 139 146 138 139 140 148 158 162 178 197 192 184 174 161 104 19 1 0 0 0 0 0 0 0 0 0 0 0 0 3 0 0 0 0 0 0 0 0 0 0 0 0 0 0 0 0 0 0 0 0 0 0 0 0 0 0 0 0 0 0 
0 0 0 0 0 0 0 0 0 0 0 0 0 0 0 0 0 2 13 13 19 78 143 157 170 185 191 177 163 152 146 153 142 133 125 129 143 134 117 116 117 116 111 102 99 97 97 97 100 100 86 82 85 99 103 101 102 102 104 107 111 108 107 109 118 130 131 122 127 136 136 132 142 140 151 152 157 175 198 188 179 169 151 80 10 0 0 0 0 0 0 0 0 0 0 0 0 4 0 0 0 0 0 0 0 0 0 0 0 0 0 0 0 0 0 0 0 0 0 0 0 0 0 0 0 0 0 0 
0 0 0 0 0 0 0 0 0 0 0 0 0 0 0 0 0 11 13 16 72 137 151 165 179 189 176 161 150 145 151 137 133 129 130 142 126 110 110 113 108 101 97 97 98 99 100 100 102 97 93 93 96 103 113 117 116 113 112 109 111 112 111 110 108 113 126 132 125 125 132 124 124 134 138 152 148 154 179 196 186 177 164 136 52 4 0 0 0 0 0 0 0 0 0 0 0 4 0 0 0 0 0 0 0 0 0 0 0 0 0 0 0 0 0 0 0 0 0 0 0 0 0 0 0 0 0 0 
0 0 0 0 0 0 0 0 0 0 0 0 0 0 0 0 5 12 13 60 130 145 159 176 188 177 160 148 142 148 138 128 128 128 138 123 105 109 114 110 107 104 104 102 101 99 102 105 111 112 113 117 121 122 121 119 121 121 115 108 105 103 102 102 101 100 107 125 128 124 128 130 118 122 134 141 151 142 152 186 193 187 174 156 113 24 1 0 0 0 0 0 0 0 0 0 0 4 0 0 0 0 0 0 0 0 0 0 0 0 0 0 0 0 0 0 0 0 0 0 0 0 0 0 0 0 0 0 
0 0 0 0 0 0 0 0 0 0 0 0 0 0 0 1 11 12 46 119 142 156 171 184 179 158 147 140 145 137 127 128 125 136 123 105 107 111 113 107 101 96 96 100 105 113 118 122 125 123 124 125 126 124 118 113 118 121 121 119 115 108 101 96 96 99 98 105 120 126 124 122 120 116 125 134 149 148 137 157 187 192 181 167 142 76 7 0 0 0 0 0 0 0 0 0 0 5 0 0 0 0 0 0 0 0 0 0 0 0 0 0 0 0 0 0 0 0 0 0 0 0 0 0 0 0 0 0 
0 0 0 0 0 0 0 0 0 0 0 0 0 0 0 7 10 25 98 135 147 165 179 180 157 149 137 142 138 128 128 123 132 126 109 107 116 114 108 99 95 95 102 110 113 117 120 121 117 114 117 111 105 105 99 95 98 103 108 116 121 117 110 99 96 97 98 99 109 117 126 124 120 114 120 128 138 151 138 137 166 187 185 173 155 118 29 1 0 0 0 0 0 0 0 0 0 4 0 0 0 0 0 0 0 0 0 0 0 0 0 0 0 0 0 0 0 0 0 0 0 0 0 0 0 0 0 0 
0 0 0 0 0 0 0 0 0 0 0 0 0 0 2 9 13 72 125 141 158 174 176 165 148 136 135 142 129 133 125 127 128 115 111 116 114 105 99 98 99 101 107 109 111 110 110 108 98 92 100 95 89 91 85 85 86 87 93 101 112 119 117 110 101 99 99 99 101 107 112 128 126 117 115 125 130 142 143 128 143 171 185 175 162 136 69 5 0 0 0 0 0 0 0 0 0 5 0 0 0 0 0 0 0 0 0 0 0 0 0 0 0 0 0 0 0 0 0 0 0 0 0 0 0 0 0 0 
0 0 0 0 0 0 0 0 0 0 0 0 0 0 6 9 40 109 129 143 167 172 162 156 136 129 137 132 134 131 126 130 115 109 112 110 102 98 99 97 99 103 105 103 100 99 95 93 86 84 93 93 88 87 79 83 87 85 86 89 94 107 115 116 111 102 97 99 100 102 102 118 130 124 118 122 133 131 141 126 130 156 178 177 168 148 104 18 0 0 0 0 0 0 0 0 0 5 0 0 0 0 0 0 0 0 0 0 0 0 0 0 0 0 0 0 0 0 0 0 0 0 0 0 0 0 0 0 
0 0 0 0 0 0 0 0 0 0 0 0 0 0 7 15 80 123 136 155 168 157 158 140 131 129 129 129 134 127 128 116 107 110 109 102 98 97 97 96 99 101 99 96 92 94 94 93 93 94 98 100 101 97 95 101 100 94 92 92 92 93 99 108 115 116 105 97 100 103 100 105 121 131 128 119 131 128 132 131 125 148 169 177 169 155 124 38 1 0 0 0 0 0 0 0 0 5 0 0 0 0 0 0 0 0 0 0 0 0 0 0 0 0 0 0 0 0 0 0 0 0 0 0 0 0 0 0 
0 0 0 0 0 0 0 0 0 0 0 0 0 2 7 38 107 131 143 166 164 153 152 131 129 124 128 131 131 126 124 111 108 110 102 97 96 92 94 97 99 96 94 95 97 103 104 104 109 111 111 113 117 113 115 117 116 110 108 104 96 92 90 93 103 118 115 103 99 102 102 101 108 124 132 128 125 129 124 126 125 139 159 176 169 158 133 60 3 0 0 0 0 0 0 0 0 5 0 0 0 0 0 0 0 0 0 0 0 0 0 0 0 0 0 0 0 0 0 0 0 0 0 0 0 0 0 0 
0 0 0 0 0 0 0 0 0 0 0 0 0 4 9 66 119 135 152 168 152 149 139 130 126 118 127 130 128 126 118 108 112 108 97 95 92 94 101 99 93 91 95 103 111 115 119 119 120 119 115 115 122 116 115 112 112 115 118 116 111 105 97 94 96 106 120 116 104 101 102 104 106 110 126 135 125 126 122 119 124 135 152 173 171 158 140 78 5 0 0 0 0 0 0 0 0 5 0 0 0 0 0 0 0 0 0 0 0 0 0 0 0 0 0 0 0 0 0 0 0 0 0 0 0 0 0 0 
0 0 0 0 0 0 0 0 0 0 0 0 0 5 18 91 125 138 160 159 140 142 131 128 118 118 124 131 117 119 113 112 115 101 96 96 99 107 104 97 95 90 95 108 120 122 115 116 113 111 110 112 117 110 110 105 102 104 111 115 114 117 114 106 98 94 109 122 117 103 100 106 112 107 116 132 124 122 124 114 122 132 146 168 175 160 145 94 10 0 0 0 0 0 0 0 0 5 0 0 0 0 0 0 0 0 0 0 0 0 0 0 0 0 0 0 0 0 0 0 0 0 0 0 0 0 0 0 
0 0 0 0 0 0 0 0 0 0 0 0 1 6 33 109 128 145 162 142 131 135 131 122 112 112 122 125 107 115 111 113 110 99 98 105 111 108 101 92 90 97 102 105 108 110 108 103 104 108 108 109 112 112 110 103 100 103 106 112 113 115 115 117 112 100 99 115 123 113 101 104 114 112 112 125 122 116 122 108 118 133 149 162 175 160 148 110 16 0 0 0 0 0 0 0 0 6 0 0 0 0 0 0 0 0 0 0 0 0 0 0 0 0 0 0 0 0 0 0 0 0 0 0 0 0 0 0 
0 0 0 0 0 0 0 0 0 0 0 0 2 7 47 115 133 151 152 135 130 133 133 117 105 115 125 114 106 115 112 113 106 102 108 121 113 103 95 91 98 102 100 95 93 103 109 103 108 114 117 119 121 122 118 117 119 119 117 109 94 94 99 105 107 111 110 108 116 121 112 103 109 114 114 122 123 107 115 108 110 130 144 159 175 164 152 123 25 0 0 0 0 0 0 0 0 6 0 0 0 0 0 0 0 0 0 0 0 0 0 0 0 0 0 0 0 0 0 0 0 0 0 0 0 0 0 0 
0 0 0 0 0 0 0 0 0 0 0 0 2 7 61 120 139 155 147 131 129 132 131 114 102 121 118 108 106 111 111 111 107 114 121 121 109 101 95 97 100 98 93 89 85 93 107 112 115 120 127 127 127 124 122 118 119 124 120 102 95 93 96 102 113 115 104 103 111 119 122 114 110 112 111 120 119 103 109 111 111 134 144 160 175 170 156 133 36 2 0 0 0 0 0 0 0 6 0 0 0 0 0 0 0 0 0 0 0 0 0 0 0 0 0 0 0 0 0 0 0 0 0 0 0 0 0 0 
0 0 0 0 0 0 0 0 0 0 0 0 3 9 70 124 141 152 144 134 132 131 129 114 109 120 108 106 102 106 109 110 117 122 120 113 104 105 108 99 97 93 90 87 83 86 93 110 114 118 125 124 121 110 105 103 96 106 113 104 100 96 98 99 103 106 108 114 116 115 117 124 122 112 107 118 114 105 109 107 108 141 145 160 174 175 159 141 48 2 0 0 0 0 0 0 0 5 0 0 0 0 0 0 0 0 0 0 0 0 0 0 0 0 0 0 0 0 0 0 0 0 0 0 0 0 0 0 
0 0 0 0 0 0 0 0 0 0 0 0 4 12 78 129 147 158 143 138 134 131 129 116 115 116 104 106 99 105 110 119 128 122 112 108 112 113 116 114 110 104 95 93 89 91 94 102 106 112 116 114 110 99 96 87 83 88 104 104 102 99 90 88 99 111 116 122 121 118 116 120 132 126 110 119 117 108 105 105 111 137 143 158 175 178 162 149 59 3 0 0 0 0 0 0 0 5 0 0 0 0 0 0 0 0 0 0 0 0 0 0 0 0 0 0 0 0 0 0 0 0 0 0 0 0 0 0 
0 0 0 0 0 0 0 0 0 0 0 0 4 12 83 132 151 160 146 142 135 132 130 120 122 111 103 106 95 102 115 131 126 112 115 116 110 102 96 95 92 95 97 94 93 94 96 99 105 104 104 106 107 95 90 81 79 81 101 104 100 91 91 101 102 101 106 110 111 110 111 116 126 135 132 124 122 115 104 109 121 139 144 153 172 178 164 152 75 5 0 0 0 0 0 0 0 5 0 0 0 0 0 0 0 0 0 0 0 0 0 0 0 0 0 0 0 0 0 0 0 0 0 0 0 0 0 0 
0 0 0 0 0 0 0 0 0 0 0 0 5 14 86 134 154 163 144 143 140 137 128 124 127 110 105 100 94 105 129 134 121 119 115 116 111 96 88 95 96 91 84 84 92 99 95 95 101 97 93 93 105 93 82 79 80 82 99 100 95 97 97 97 98 97 100 96 93 96 97 97 107 123 138 142 134 124 105 115 128 137 141 147 166 179 166 154 88 7 0 0 0 0 0 0 0 5 0 0 0 0 0 0 0 0 0 0 0 0 0 0 0 0 0 0 0 0 0 0 0 0 0 0 0 0 0 0 
0 0 0 0 0 0 0 0 0 0 0 0 5 15 90 137 157 158 145 146 138 135 131 134 136 115 111 98 96 117 132 128 126 116 112 102 93 89 85 88 88 90 91 86 83 88 93 94 99 106 100 90 100 98 85 87 85 91 100 93 98 93 88 84 84 94 98 99 99 99 97 90 90 110 136 155 150 135 119 123 130 130 135 140 156 181 169 158 101 11 0 0 0 0 0 0 0 4 0 0 0 0 0 0 0 0 0 0 0 0 0 0 0 0 0 0 0 0 0 0 0 0 0 0 0 0 0 0 
0 0 0 0 0 0 0 0 0 0 0 0 6 15 93 141 157 159 142 142 137 131 128 133 137 118 118 108 103 126 130 129 110 101 94 90 85 82 85 88 87 83 81 84 90 90 88 91 95 108 104 98 103 104 101 103 104 105 89 94 95 83 83 80 88 95 98 102 100 100 103 102 101 113 130 155 160 140 129 127 127 127 129 134 148 175 170 158 113 16 0 0 0 0 0 0 0 5 0 0 0 0 0 0 0 0 0 0 0 0 0 0 0 0 0 0 0 0 0 0 0 0 0 0 0 0 0 0 
0 0 0 0 0 0 0 0 0 0 0 0 8 15 95 143 160 160 136 140 134 129 126 127 134 122 120 122 126 130 133 121 101 92 92 94 88 84 87 86 85 84 84 83 82 92 96 95 97 107 112 109 117 113 117 104 106 102 91 105 85 78 71 78 88 97 101 105 104 103 107 105 109 117 129 135 150 141 132 130 122 123 123 127 140 165 170 158 122 23 0 0 0 0 0 0 0 5 0 0 0 0 0 0 0 0 0 0 0 0 0 0 0 0 0 0 0 0 0 0 0 0 0 0 0 0 0 0 
0 0 0 0 0 0 0 0 0 0 0 0 8 15 97 145 163 161 128 138 129 125 123 122 132 123 116 120 133 141 141 124 113 103 103 98 88 83 82 86 85 82 80 84 87 90 100 104 101 107 114 114 122 120 128 109 104 101 104 102 81 71 76 90 98 103 105 106 103 101 105 107 109 114 122 123 128 137 128 131 116 121 117 116 129 156 169 158 128 33 1 0 0 0 0 0 0 5 0 0 0 0 0 0 0 0 0 0 0 0 0 0 0 0 0 0 0 0 0 0 0 0 0 0 0 0 0 0 
0 0 0 0 0 0 0 0 0 0 0 0 9 15 97 146 164 160 127 134 127 123 117 121 126 115 114 115 129 139 135 124 118 109 106 99 94 88 89 90 92 93 88 85 90 93 96 102 95 101 108 108 114 110 118 116 109 109 108 93 77 79 84 88 93 101 106 107 99 94 98 103 108 109 116 122 121 134 126 131 111 114 111 111 119 143 166 159 131 42 1 0 0 0 0 0 0 5 0 0 0 0 0 0 0 0 0 0 0 0 0 0 0 0 0 0 0 0 0 0 0 0 0 0 0 0 0 0 
0 0 0 0 0 0 0 0 0 0 0 0 8 16 99 146 166 158 121 127 125 121 110 114 118 115 114 112 123 130 120 115 107 105 104 97 89 83 88 84 82 83 90 98 94 93 95 96 93 97 103 97 99 114 114 121 114 114 105 88 83 84 82 84 89 95 97 100 95 90 94 103 108 106 110 115 124 137 128 130 106 111 109 108 112 132 163 157 134 49 2 0 0 0 0 0 0 5 0 0 0 0 0 0 0 0 0 0 0 0 0 0 0 0 0 0 0 0 0 0 0 0 0 0 0 0 0 0 
0 0 0 0 0 0 0 0 0 0 0 0 8 17 99 148 167 155 116 124 118 112 102 103 111 111 110 117 118 118 110 110 100 103 103 97 88 86 88 82 77 80 85 93 98 96 90 89 98 101 108 106 101 105 109 119 114 119 111 90 84 82 81 78 81 90 96 96 93 87 94 100 104 104 104 115 127 137 126 131 112 109 101 108 107 119 152 155 137 56 2 0 0 0 0 0 0 5 0 0 0 0 0 0 0 0 0 0 0 0 0 0 0 0 0 0 0 0 0 0 0 0 0 0 0 0 0 0 
0 0 0 0 0 0 0 0 0 0 0 0 8 17 97 149 166 150 115 115 112 107 96 95 107 106 107 111 112 117 106 105 100 99 101 92 88 84 86 78 84 88 91 94 89 87 88 91 93 105 118 124 117 94 99 100 124 114 104 91 87 89 89 75 82 93 96 95 90 85 94 101 100 100 101 115 128 129 124 135 122 109 99 110 107 114 134 144 139 61 2 0 0 0 0 0 0 4 0 0 0 0 0 0 0 0 0 0 0 0 0 0 0 0 0 0 0 0 0 0 0 0 0 0 0 0 0 0 
0 0 0 0 0 0 0 0 0 0 0 0 8 18 95 148 163 140 112 110 106 104 97 96 104 106 107 107 106 115 106 100 104 101 102 93 87 88 88 82 83 86 92 93 84 82 92 92 87 96 115 124 102 88 90 82 102 113 94 97 88 86 82 79 86 92 99 97 88 83 94 99 98 95 100 117 129 127 135 138 127 111 95 108 107 114 130 144 137 62 2 0 0 0 0 0 0 4 0 0 0 0 0 0 0 0 0 0 0 0 0 0 0 0 0 0 0 0 0 0 0 0 0 0 0 0 0 0 
0 0 0 0 0 0 0 0 0 0 0 0 7 17 90 145 159 132 114 102 108 106 98 95 102 111 108 103 103 115 109 100 107 102 103 97 89 90 90 83 85 87 90 92 84 83 87 81 86 99 116 112 86 82 86 83 95 120 88 93 87 82 76 82 87 93 97 95 85 82 93 98 96 89 103 123 134 134 136 133 130 110 93 107 105 113 130 147 132 60 2 0 0 0 0 0 0 4 0 0 0 0 0 0 0 0 0 0 0 0 0 0 0 0 0 0 0 0 0 0 0 0 0 0 0 0 0 0 
0 0 0 0 0 0 0 0 0 0 0 0 6 16 82 144 158 129 117 100 108 106 101 93 99 115 111 101 102 117 116 100 104 107 102 98 93 92 88 85 86 92 86 79 72 76 86 77 87 100 110 89 85 85 91 79 86 116 105 91 85 77 77 84 90 95 97 94 84 79 92 99 94 88 107 124 141 127 130 131 129 105 94 104 102 111 129 147 127 55 2 0 0 0 0 0 0 4 0 0 0 0 0 0 0 0 0 0 0 0 0 0 0 0 0 0 0 0 0 0 0 0 0 0 0 0 0 0 
0 0 0 0 0 0 0 0 0 0 0 0 5 16 77 141 159 132 117 100 103 104 103 93 93 108 110 100 102 121 123 102 101 108 100 99 98 93 89 89 88 91 86 76 73 74 80 71 87 104 105 84 83 89 96 88 83 102 115 90 80 74 77 84 91 96 99 93 77 76 92 101 95 91 110 123 135 115 120 129 130 102 98 104 98 109 130 146 121 48 2 0 0 0 0 0 0 4 0 0 0 0 0 0 0 0 0 0 0 0 0 0 0 0 0 0 0 0 0 0 0 0 0 0 0 0 0 0 
0 0 0 0 0 0 0 0 0 0 0 0 2 15 71 137 157 136 118 100 101 105 103 96 92 98 108 100 108 129 129 101 95 108 100 96 97 91 88 93 93 91 84 78 73 74 74 72 92 111 83 80 81 92 101 93 87 88 115 98 87 83 80 85 90 95 101 92 74 75 93 105 91 92 114 120 117 110 113 123 129 101 101 100 95 110 130 139 112 43 2 0 0 0 0 0 0 3 0 0 0 0 0 0 0 0 0 0 0 0 0 0 0 0 0 0 0 0 0 0 0 0 0 0 0 0 0 0 
0 0 0 0 0 0 0 0 0 4 5 0 0 13 62 130 153 135 117 101 97 104 101 100 91 90 104 102 118 135 133 97 90 104 104 97 94 87 87 93 97 94 88 80 83 93 84 85 97 105 79 78 80 95 99 93 92 92 103 111 102 96 97 90 93 100 104 92 78 81 97 101 86 99 111 107 109 120 121 119 125 103 100 97 92 112 133 133 103 37 1 0 0 0 0 0 0 4 0 0 0 0 0 0 0 0 0 0 0 0 0 0 0 0 0 0 0 0 0 0 0 0 0 0 0 0 0 0 
0 0 0 0 0 0 0 0 0 6 9 4 1 10 52 121 148 135 114 102 90 103 99 101 93 85 104 108 121 119 118 105 86 95 108 95 85 84 83 90 103 102 99 90 91 88 95 94 106 96 81 78 83 98 95 95 99 96 97 121 118 120 107 102 99 105 102 92 79 82 93 93 85 98 98 105 121 134 134 121 129 110 96 96 94 112 134 127 95 33 1 0 0 0 0 0 0 4 0 0 0 0 0 0 0 0 0 0 0 0 0 0 0 0 0 0 0 0 0 0 0 0 0 0 0 0 0 0 
0 0 0 0 0 0 0 0 0 2 2 8 3 8 43 112 142 136 108 104 87 97 102 96 98 86 99 115 119 105 107 112 89 89 102 101 87 86 83 91 97 103 106 105 107 109 111 102 111 83 78 80 86 98 93 88 99 95 102 125 117 107 89 89 108 118 111 94 84 84 92 95 97 111 103 111 123 117 129 131 131 118 96 94 99 115 134 122 88 27 0 0 0 0 0 0 0 4 0 0 0 0 0 0 0 0 0 0 0 0 0 0 0 0 0 0 0 0 0 0 0 0 0 0 0 0 0 0 
0 0 0 0 0 0 0 0 0 0 4 8 5 7 32 98 137 140 107 104 95 92 106 93 98 89 96 114 117 108 120 115 104 96 101 101 92 86 89 98 101 113 120 112 94 105 100 104 117 88 78 83 83 102 91 87 91 86 94 123 127 105 88 90 103 119 136 126 123 131 138 129 123 129 131 132 126 120 130 137 131 128 99 98 106 123 134 112 82 18 0 0 1 9 2 0 0 4 0 0 0 0 0 0 0 0 0 0 0 0 0 0 0 0 0 0 0 0 0 0 0 0 0 0 0 0 0 0 
0 0 0 0 0 0 0 0 0 0 1 8 5 7 24 86 130 141 110 105 105 89 100 100 96 99 97 109 119 110 121 112 107 125 127 120 115 112 114 116 114 111 101 100 112 103 102 115 115 78 75 85 81 97 87 76 82 84 89 121 127 97 91 96 110 128 148 143 143 154 159 157 151 128 116 135 139 128 121 132 133 125 115 108 102 131 126 110 74 13 4 3 4 1 3 0 0 4 0 0 0 0 0 0 0 0 0 0 0 0 0 0 0 0 0 0 0 0 0 0 0 0 0 0 0 0 0 0 
0 0 0 0 0 0 0 0 0 0 1 7 6 8 19 78 123 144 128 107 105 89 89 102 102 119 106 111 122 115 118 116 112 130 143 139 129 116 108 99 103 95 91 93 103 105 101 103 110 85 79 84 85 97 87 70 71 81 94 131 125 100 94 104 113 130 142 143 151 162 150 138 142 111 116 134 143 135 130 133 133 128 122 121 138 130 115 110 64 9 3 1 6 1 0 0 0 4 0 0 0 0 0 0 0 0 0 0 0 0 0 0 0 0 0 0 0 0 0 0 0 0 0 0 0 0 0 0 
0 0 0 0 0 0 0 0 0 0 1 7 8 10 14 65 114 140 143 111 108 95 88 107 120 117 116 125 121 111 127 135 133 129 131 135 132 121 120 108 104 95 89 84 89 97 100 96 105 87 79 82 82 95 83 70 84 91 105 114 112 105 105 112 118 123 125 131 142 138 129 140 146 141 136 143 140 134 156 160 151 143 137 142 157 135 117 108 49 7 1 1 2 1 0 0 0 4 0 0 0 0 0 0 0 0 0 0 0 0 0 0 0 0 0 0 0 0 0 0 0 0 0 0 0 0 0 0 
0 0 0 0 0 0 0 0 0 0 0 8 8 10 14 54 110 136 153 125 113 113 109 108 132 117 116 140 125 116 138 147 147 149 143 136 148 149 141 114 99 96 93 85 81 81 96 102 102 91 91 88 78 98 90 83 88 99 103 104 106 107 115 121 121 123 135 145 144 141 139 161 147 141 137 133 145 149 159 166 167 164 156 162 170 112 112 102 30 6 3 1 1 1 0 0 0 3 0 0 0 0 0 0 0 0 0 0 0 0 0 0 0 0 0 0 0 0 0 0 0 0 0 0 0 0 0 0 
0 0 0 0 0 0 0 0 0 0 0 8 9 8 11 38 105 132 150 148 133 142 127 128 143 133 131 145 134 138 141 143 151 154 154 154 161 157 146 119 110 107 105 89 81 81 106 109 96 91 92 96 99 118 100 88 84 102 101 101 104 108 108 119 122 112 130 144 141 144 145 148 129 134 130 131 145 149 155 174 167 168 175 176 153 109 112 85 15 6 3 2 2 1 0 0 0 3 0 0 0 0 0 0 0 0 0 0 0 0 0 0 0 0 0 0 0 0 0 0 0 0 0 0 0 0 0 0 
0 0 0 0 0 0 0 0 0 0 0 5 11 9 7 14 62 121 140 154 145 165 174 156 158 149 144 138 139 137 152 149 144 148 160 160 152 143 134 123 115 109 108 105 95 89 109 112 109 95 94 100 101 118 120 100 88 92 95 106 110 109 105 106 107 101 113 134 133 136 140 139 122 135 144 140 145 148 143 162 171 167 177 167 137 101 107 94 17 8 7 2 2 0 0 0 0 2 0 0 0 0 0 0 0 0 0 0 0 0 0 0 0 0 0 0 0 0 0 0 0 0 0 0 0 0 0 0 
0 0 0 0 0 0 0 0 0 0 0 6 10 6 3 11 37 111 140 150 152 165 165 160 159 152 145 152 148 137 149 150 146 143 147 150 142 131 120 104 100 106 109 112 107 103 106 111 111 105 99 109 107 123 122 111 95 88 92 106 111 100 92 109 105 107 126 126 128 130 125 117 107 129 138 147 143 139 128 147 143 164 161 137 105 115 108 63 7 4 7 5 2 0 0 0 0 2 0 0 0 0 0 0 0 0 0 0 0 0 0 0 0 0 0 0 0 0 0 0 0 0 0 0 0 0 0 0 
0 0 0 0 0 0 0 0 0 0 0 7 4 5 3 9 23 89 138 153 152 144 151 145 161 165 153 155 147 144 145 134 137 142 147 148 140 128 123 111 91 93 102 110 106 102 105 103 95 107 113 110 96 114 128 112 90 88 91 94 97 94 93 104 100 108 121 116 124 140 130 118 120 126 149 155 143 144 137 139 129 149 138 120 117 117 105 31 5 4 3 5 3 1 0 0 0 2 0 0 0 0 0 0 0 0 0 0 0 0 0 0 0 0 0 0 0 0 0 0 0 0 0 0 0 0 0 0 
0 0 0 0 0 0 0 0 0 0 0 6 3 4 5 9 16 60 128 138 143 128 133 138 145 164 154 140 146 138 138 129 131 137 142 143 132 130 133 122 91 89 86 89 97 92 99 89 93 112 106 95 88 94 116 115 92 89 85 83 96 111 117 134 113 94 94 102 111 120 123 118 108 135 157 156 156 159 149 128 112 123 127 114 113 105 76 16 7 5 3 1 3 2 0 0 0 2 0 0 0 0 0 0 0 0 0 0 0 0 0 0 0 0 0 0 0 0 0 0 0 0 0 0 0 0 0 0 
0 0 0 0 0 0 0 0 0 0 0 5 4 3 6 10 16 36 110 135 131 133 138 137 141 149 136 132 144 153 146 134 132 120 122 136 139 125 125 111 96 83 82 98 101 105 119 102 111 112 112 100 89 91 113 123 113 100 91 98 111 124 128 138 124 99 92 89 96 112 122 118 123 135 141 150 160 168 159 132 129 127 104 96 107 111 41 9 5 6 3 1 3 3 0 0 0 2 0 0 0 0 0 0 0 0 0 0 0 0 0 0 0 0 0 0 0 0 0 0 0 0 0 0 0 0 0 0 
0 0 0 0 0 0 0 0 0 0 1 4 4 4 4 13 17 21 79 122 120 129 138 143 131 146 143 136 129 140 149 138 124 114 110 117 130 135 115 101 88 95 98 112 115 119 122 120 107 114 131 131 114 109 135 126 114 107 115 113 110 123 124 123 122 106 85 77 96 111 112 131 130 117 123 140 158 164 163 166 142 112 89 80 91 86 21 12 5 5 4 1 4 3 0 0 0 2 0 0 0 0 0 0 0 0 0 0 0 0 0 0 0 0 0 0 0 0 0 0 0 0 0 0 0 0 0 0 
0 0 0 0 0 0 0 0 0 0 0 3 4 3 4 7 15 14 44 113 120 126 139 149 140 147 150 132 130 127 131 139 130 115 116 108 108 110 106 99 87 96 106 114 122 128 128 126 125 130 138 142 148 149 144 135 134 136 135 124 124 133 138 131 128 99 78 88 99 114 117 120 127 113 117 137 160 162 172 174 142 110 80 77 98 55 12 13 7 6 5 2 5 3 0 0 0 2 0 0 0 0 0 0 0 0 0 0 0 0 0 0 0 0 0 0 0 0 0 0 0 0 0 0 0 0 0 0 
0 0 0 0 0 0 0 0 0 0 0 3 5 2 4 7 10 12 24 96 113 115 125 133 150 150 151 133 139 135 134 139 139 128 109 114 105 89 89 105 108 110 116 120 129 140 138 141 148 147 148 150 157 164 167 159 154 154 152 146 145 161 162 150 136 117 114 121 113 128 120 108 127 117 105 141 154 164 160 156 128 100 74 69 90 31 9 13 8 6 3 3 5 3 0 0 0 2 0 0 0 0 0 0 0 0 0 0 0 0 0 0 0 0 0 0 0 0 0 0 0 0 0 0 0 0 0 0 
0 0 0 0 0 0 0 0 0 0 0 1 4 0 2 5 9 10 14 67 108 113 114 119 139 158 155 143 140 140 145 143 131 129 112 113 115 101 95 105 135 139 129 129 145 153 152 154 162 149 147 150 149 149 153 157 156 146 141 144 143 158 165 157 144 140 131 126 142 121 101 100 120 120 104 142 146 163 147 139 123 119 88 98 81 19 8 10 7 6 2 2 4 3 0 0 0 1 0 0 0 0 0 0 0 0 0 0 0 0 0 0 0 0 0 0 0 0 0 0 0 0 0 0 0 0 0 0 
0 0 0 0 0 0 0 0 0 0 1 2 6 2 1 4 7 8 11 38 87 100 115 121 129 153 154 145 143 138 140 143 130 116 114 113 116 119 122 125 136 148 149 139 153 153 153 158 149 150 145 147 146 154 150 144 146 144 136 135 135 145 160 157 155 156 160 161 145 107 96 105 117 120 124 134 157 159 140 119 110 106 99 89 67 16 8 7 7 6 3 2 4 3 0 0 0 1 0 0 0 0 0 0 0 0 0 0 0 0 0 0 0 0 0 0 0 0 0 0 0 0 0 0 0 0 0 0 
0 0 0 0 0 0 0 0 0 0 0 4 13 10 4 2 6 7 9 28 78 109 125 108 115 136 149 149 148 131 128 141 130 107 102 105 105 109 117 127 140 154 158 158 161 153 153 144 137 147 144 152 155 152 154 139 140 140 130 128 133 149 148 147 157 155 166 167 142 111 96 97 114 124 142 159 157 156 130 113 86 92 103 91 57 14 8 5 7 7 2 2 4 2 0 0 0 1 0 0 0 0 0 0 0 0 0 0 0 0 0 0 0 0 0 0 0 0 0 0 0 0 0 0 0 0 0 0 
0 0 0 0 0 0 0 0 0 0 0 3 12 11 9 6 8 10 14 22 65 96 120 113 122 130 148 142 165 140 135 134 128 103 94 97 99 102 107 110 122 144 155 163 170 162 161 150 148 145 148 161 160 156 149 132 137 146 138 126 129 144 145 159 160 164 175 169 146 108 89 92 105 115 156 175 172 164 142 101 76 91 96 85 40 15 6 5 8 7 3 2 4 1 0 0 0 1 0 0 0 0 0 0 0 0 0 0 0 0 0 0 0 0 0 0 0 0 0 0 0 0 0 0 0 0 0 0 
0 0 0 0 0 0 0 0 0 0 0 2 9 11 9 12 9 13 16 16 35 83 114 108 108 123 144 156 166 149 142 128 131 115 89 88 95 102 103 102 107 131 144 152 161 162 155 143 143 144 145 161 155 156 135 110 112 125 127 122 122 146 155 151 166 174 169 153 133 107 94 95 106 136 164 164 164 150 132 99 103 97 71 53 20 14 7 4 7 4 4 6 8 3 2 0 0 0 0 0 0 0 0 0 0 0 0 0 0 0 0 0 0 0 0 0 0 0 0 0 0 0 0 0 0 0 0 0 
0 0 0 0 0 0 0 0 0 0 0 2 10 10 10 9 10 9 13 15 17 50 104 110 116 114 127 152 166 155 152 137 122 125 106 102 101 99 99 104 117 128 141 152 151 153 151 145 141 135 146 148 140 167 165 128 126 140 138 120 137 154 142 166 172 177 166 159 160 125 114 119 130 141 142 144 125 94 96 77 78 94 84 37 12 8 7 5 6 4 5 6 12 4 1 0 0 0 0 0 0 0 0 0 0 0 0 0 0 0 0 0 0 0 0 0 0 0 0 0 0 0 0 0 0 0 0 0 
0 0 0 0 0 0 0 0 0 0 0 0 9 10 6 6 7 6 9 15 21 27 70 108 97 91 107 139 155 155 159 144 126 133 122 108 111 116 121 135 129 149 165 162 165 165 163 166 171 167 169 152 154 179 178 161 158 158 153 146 159 163 165 169 175 183 167 178 164 156 129 153 145 139 119 111 88 78 81 63 99 95 55 21 11 1 1 4 3 7 7 7 8 4 0 0 0 0 0 0 0 0 0 0 0 0 0 0 0 0 0 0 0 0 0 0 0 0 0 0 0 0 0 0 0 0 0 0 
0 0 0 0 0 0 0 0 0 0 0 0 3 10 5 3 2 4 7 11 18 20 39 85 95 68 77 91 100 131 140 147 135 143 141 119 124 132 124 137 152 172 175 179 194 192 182 183 184 176 186 183 180 179 173 171 166 167 171 190 204 204 203 199 186 194 175 189 139 137 133 119 94 77 79 91 85 89 83 68 73 43 24 25 20 1 0 0 1 2 5 7 6 0 0 0 0 0 0 0 0 0 0 0 0 0 0 0 0 0 0 0 0 0 0 0 0 0 0 0 0 0 0 0 0 0 0 0 
0 0 0 0 0 0 0 0 0 0 0 0 0 4 5 2 1 0 1 6 16 20 25 43 80 82 62 48 63 73 94 116 121 117 127 125 113 119 140 164 172 167 160 172 171 177 173 167 176 169 170 178 179 176 171 174 162 163 165 172 170 192 199 178 155 166 158 152 136 128 106 90 76 74 77 100 102 99 71 46 40 35 34 24 23 0 0 0 0 1 3 8 6 0 0 0 0 0 0 0 0 0 0 0 0 0 0 0 0 0 0 0 0 0 0 0 0 0 0 0 0 0 0 0 0 0 0 0 
0 0 0 0 0 0 0 0 0 0 0 0 0 1 5 4 4 3 1 4 9 13 18 23 32 47 32 36 56 57 59 63 69 68 78 92 84 76 82 81 90 96 124 133 141 124 137 138 135 99 109 114 123 115 110 111 81 74 103 109 107 119 96 130 84 143 132 86 62 61 52 57 48 51 72 84 85 88 53 30 27 25 20 7 3 0 3 3 3 2 2 8 4 0 0 0 0 0 0 0 0 0 0 0 0 0 0 0 0 0 0 0 0 0 0 0 0 0 0 0 0 0 0 0 0 0 0 0 
0 0 0 0 0 0 0 0 0 0 0 0 0 0 2 2 3 3 3 1 7 10 12 16 22 21 23 31 53 55 52 70 58 46 54 60 80 63 77 86 96 89 71 77 93 91 78 70 73 73 54 74 86 80 78 86 69 54 69 65 75 101 90 75 70 98 96 123 139 115 57 60 58 62 79 84 84 85 49 28 28 24 15 6 3 1 2 2 3 3 2 5 1 0 0 0 0 0 0 0 0 0 0 0 0 0 0 0 0 0 0 0 0 0 0 0 0 0 0 0 0 0 0 0 0 0 0 0 
0 0 0 0 0 0 0 0 0 0 0 0 0 0 0 0 0 1 0 0 4 9 9 14 21 25 26 35 59 68 55 69 69 60 59 48 70 111 101 109 136 137 105 94 101 94 79 90 105 85 65 83 88 76 73 76 80 76 96 90 91 109 103 97 125 147 105 91 118 90 84 88 66 69 84 87 90 85 51 32 25 23 11 7 1 0 0 0 0 1 1 1 0 0 0 0 0 1 0 0 0 0 0 0 0 0 0 0 0 0 0 0 0 0 0 0 0 0 0 0 0 0 0 0 0 0 0 0 
0 0 0 0 0 0 0 0 0 0 0 0 0 0 0 0 0 0 0 0 0 4 4 7 12 23 29 48 74 89 80 78 86 82 79 70 89 123 123 131 161 159 126 119 132 134 146 144 134 114 98 116 117 110 111 129 136 127 118 133 133 136 139 157 151 170 140 112 127 126 118 121 107 86 74 76 80 68 45 35 24 19 10 14 3 0 0 0 0 0 0 0 0 0 0 0 0 1 0 0 0 0 0 0 0 0 0 0 0 0 0 0 0 0 0 0 0 0 0 0 0 0 0 0 0 0 0 0 
0 0 0 0 0 0 0 0 0 0 0 0 0 0 0 0 0 0 0 0 0 1 3 3 7 21 22 40 61 83 81 80 86 89 91 79 78 117 126 108 151 148 147 140 162 153 166 176 157 162 175 172 172 162 158 160 163 164 158 147 134 146 144 133 144 138 139 131 145 155 135 142 112 66 35 47 68 44 25 26 13 5 5 2 0 0 0 0 0 0 0 0 0 0 0 0 0 2 0 0 0 0 0 0 0 0 0 0 0 0 0 0 0 0 0 0 0 0 0 0 0 0 0 0 0 0 0 0 
0 0 0 0 0 0 0 0 0 0 0 0 0 0 0 0 0 0 0 0 0 0 1 3 6 14 26 35 52 77 76 78 79 69 65 59 54 87 121 84 110 123 112 96 120 120 167 167 162 144 151 142 139 131 135 133 140 135 129 131 128 126 102 107 109 116 124 140 148 156 132 70 46 37 49 69 74 42 25 16 10 8 9 1 0 0 0 0 0 0 0 0 0 0 0 0 1 9 0 0 0 0 0 0 0 0 0 0 0 0 0 0 0 0 0 0 0 0 0 0 0 0 0 0 0 0 0 0 
0 0 0 0 0 0 0 0 0 0 0 0 0 0 0 0 0 0 0 0 0 0 4 5 8 15 19 20 28 49 66 65 72 58 47 49 52 67 103 103 103 120 112 87 81 103 145 146 110 99 112 102 99 89 96 90 110 109 100 100 113 124 121 103 114 135 121 91 139 117 93 64 54 52 68 95 85 45 27 18 16 11 10 2 0 0 0 0 0 0 0 0 0 0 0 0 0 1 0 0 0 0 0 0 0 0 0 0 0 0 0 0 0 0 0 0 0 0 0 0 0 0 0 0 0 0 0 0 
0 0 0 0 0 0 0 0 0 0 0 0 0 0 0 0 0 0 0 0 0 0 2 6 7 14 18 22 24 37 62 70 81 60 53 61 65 80 93 100 97 104 102 97 107 125 139 139 106 106 102 91 93 88 88 78 98 108 116 105 108 125 112 88 78 97 114 109 101 102 98 67 51 52 72 104 90 49 27 20 18 11 6 1 0 0 0 0 0 0 0 0 0 0 0 0 0 0 0 0 0 0 0 0 0 0 0 0 0 0 0 0 0 0 0 0 0 0 0 0 0 0 0 0 0 0 0 0 
0 0 0 0 0 0 0 0 0 0 0 0 0 0 0 0 0 0 0 0 0 0 1 4 8 10 15 22 23 33 57 68 86 63 63 66 52 65 66 90 90 81 87 90 100 104 109 118 121 114 111 104 104 98 95 96 108 108 116 117 111 128 123 106 93 89 104 105 95 81 77 68 66 79 84 106 92 56 26 19 17 10 5 1 1 0 0 0 0 0 0 0 0 0 0 0 0 0 0 0 0 0 0 0 0 0 0 0 0 0 0 0 0 0 0 0 0 0 0 0 0 0 0 0 0 0 0 0 
0 0 0 0 0 0 0 0 0 0 0 0 0 0 0 0 0 0 0 0 0 0 0 3 7 9 13 20 22 31 54 65 82 65 66 59 49 54 52 57 69 76 83 89 99 109 118 115 129 130 123 118 118 112 107 109 117 110 117 121 106 127 117 97 98 84 95 97 105 88 72 71 49 73 97 105 82 52 24 19 16 10 4 1 1 0 0 0 0 0 0 0 0 0 0 0 0 0 0 0 0 0 0 0 0 0 0 0 0 0 0 0 0 0 0 0 0 0 0 0 0 0 0 0 0 0 0 0 
0 0 0 0 0 0 0 0 0 0 0 0 0 0 0 0 0 0 0 0 0 0 0 0 5 7 11 16 21 28 52 60 85 73 66 62 58 49 46 55 70 71 93 90 109 121 113 111 123 122 111 99 107 115 104 106 110 105 106 108 112 114 109 90 106 99 94 95 96 91 74 74 60 62 97 103 73 46 25 18 14 9 2 1 1 0 0 0 0 0 0 0 0 0 0 0 0 0 0 0 0 0 0 0 0 0 0 0 0 0 0 0 0 0 0 0 0 0 0 0 0 0 0 0 0 0 0 0 
0 0 0 0 0 0 0 0 0 0 0 0 0 0 0 0 0 0 0 0 0 0 0 0 2 5 9 13 18 25 47 51 82 69 69 74 65 48 48 58 67 70 80 84 103 115 105 103 105 111 111 93 89 99 107 104 103 100 87 91 112 113 103 92 114 112 91 91 84 83 65 63 75 68 97 100 76 48 21 16 14 8 2 1 1 0 0 0 0 0 0 0 0 0 0 0 0 0 0 0 0 0 0 0 0 0 0 0 0 0 0 0 0 0 0 0 0 0 0 0 0 0 0 0 0 0 0 0 
0 0 0 0 0 0 0 0 0 0 0 0 0 0 0 0 0 0 0 0 0 0 0 0 1 4 6 12 15 19 37 54 69 67 77 86 63 51 51 62 70 64 69 80 97 108 101 93 92 101 111 92 80 82 97 106 103 91 77 93 116 107 98 76 101 106 87 77 73 78 67 62 79 83 100 84 50 25 18 17 15 8 1 1 1 1 0 0 0 0 0 0 0 0 0 0 0 0 0 0 0 0 0 0 0 0 0 0 0 0 0 0 0 0 0 0 0 0 0 0 0 0 0 0 0 0 0 0 
0 0 0 0 0 0 0 0 0 0 0 0 0 0 0 0 0 0 0 0 0 0 0 0 0 2 4 8 14 18 23 33 37 48 76 80 59 57 55 60 61 57 73 82 91 109 92 83 89 98 114 103 90 90 103 107 101 91 93 104 109 98 90 72 95 100 81 76 66 75 66 65 72 88 100 42 18 17 18 18 16 7 1 1 1 1 0 0 0 0 0 0 0 0 0 0 0 0 0 0 0 0 0 0 0 0 0 0 0 0 0 0 0 0 0 0 0 0 0 0 0 0 0 0 0 0 0 0 
0 0 0 0 0 0 0 0 0 0 0 0 0 0 0 0 0 0 0 0 0 0 0 0 0 0 5 4 12 16 20 20 18 17 28 70 71 66 56 73 69 52 70 68 82 101 82 73 88 96 104 106 96 88 91 100 104 96 98 103 99 92 86 74 94 107 71 71 61 81 80 70 79 83 68 22 15 17 18 18 12 6 1 1 1 1 0 0 0 0 0 0 0 0 0 0 0 0 0 0 0 0 0 0 0 0 0 0 0 0 0 0 0 0 0 0 0 0 0 0 0 0 0 0 0 0 0 0 
0 0 0 0 0 0 0 0 0 0 0 0 0 0 0 0 0 0 0 0 0 0 0 0 0 0 2 4 10 14 18 19 17 17 13 39 73 72 69 94 76 51 67 62 76 93 69 72 97 99 96 106 111 104 97 97 111 110 99 93 95 91 95 84 89 108 78 77 61 80 104 82 83 75 35 21 14 17 19 16 11 6 1 1 1 1 0 0 0 0 0 0 0 0 0 0 0 0 0 0 0 0 0 0 0 0 0 0 0 0 0 0 0 0 0 0 0 0 0 0 0 0 0 0 0 0 0 0 
0 0 0 0 0 0 0 0 0 0 0 0 0 0 0 0 0 0 0 0 0 0 0 0 0 0 1 3 6 10 16 18 16 17 13 12 38 73 84 94 76 60 71 69 93 103 82 81 100 104 93 102 112 112 113 120 132 130 115 106 101 98 93 84 85 106 86 81 75 79 105 92 73 38 24 20 13 17 18 14 10 6 2 1 1 1 0 0 0 0 0 0 0 0 0 0 0 0 0 0 0 0 0 0 0 0 0 0 0 0 0 0 0 0 0 0 0 0 0 0 0 0 0 0 0 0 0 0 
0 0 0 0 0 0 0 0 0 0 0 0 0 0 0 0 0 0 0 0 0 0 0 0 0 0 0 3 5 9 11 16 18 16 11 11 16 32 53 70 84 78 77 82 108 112 91 79 84 103 103 101 110 106 111 120 127 128 117 111 110 96 96 87 87 110 105 93 87 85 89 61 34 26 23 17 12 18 15 12 9 5 2 1 1 1 0 0 0 0 0 0 0 0 0 0 0 0 0 0 0 0 0 0 0 0 0 0 0 0 0 0 0 0 0 0 0 0 0 0 0 0 0 0 0 0 0 0 
0 0 0 0 0 0 0 0 0 0 0 0 0 0 0 0 0 0 0 0 0 0 0 0 0 0 0 0 5 7 9 15 18 19 13 11 18 25 28 46 80 87 85 98 106 115 104 85 95 120 112 101 100 108 113 118 121 120 120 112 116 108 110 93 94 112 110 98 91 87 61 33 27 26 23 17 14 16 13 12 9 5 1 1 1 1 0 0 0 0 0 0 0 0 0 0 0 0 0 0 0 0 0 0 0 0 0 0 0 0 0 0 0 0 0 0 0 0 0 0 0 0 0 0 0 0 0 0 
0 0 0 0 0 0 0 0 0 0 0 0 0 0 0 0 0 0 0 0 0 0 0 0 0 0 0 0 1 7 7 12 17 18 13 11 15 24 27 28 37 65 81 94 97 114 107 94 103 118 113 103 103 109 107 107 112 117 120 112 114 110 112 104 101 105 104 97 82 53 31 28 27 25 22 16 14 14 13 11 8 5 1 1 1 1 0 0 0 0 0 0 0 0 0 0 0 0 0 0 0 0 0 0 0 0 0 0 0 0 0 0 0 0 0 0 0 0 0 0 0 0 0 0 0 0 0 0 
0 0 0 0 0 0 0 0 0 0 0 0 0 0 0 0 0 0 0 0 0 0 0 0 0 0 0 0 0 7 6 11 15 18 14 11 13 21 27 28 30 34 43 54 70 96 107 92 98 109 110 111 111 108 103 101 103 109 122 115 108 109 113 106 106 95 72 55 42 38 29 26 27 24 20 16 13 15 13 10 8 4 1 1 1 1 0 0 0 0 0 0 0 0 0 0 0 0 0 0 0 0 0 0 0 0 0 0 0 0 0 0 0 0 0 0 0 0 0 0 0 0 0 0 0 0 0 0 
0 0 0 0 0 0 0 0 0 0 0 0 0 0 0 0 0 0 0 0 0 0 0 0 0 0 0 0 0 5 6 9 13 17 16 12 13 19 26 27 32 32 35 39 51 63 77 88 91 88 96 113 114 108 105 103 102 103 112 119 114 95 101 98 90 68 48 44 40 36 28 28 26 25 16 14 15 15 14 11 8 4 0 0 1 1 0 0 0 0 0 0 0 0 0 0 0 0 0 0 0 0 0 0 0 0 0 0 0 0 0 0 0 0 0 0 0 0 0 0 0 0 0 0 0 0 0 0 
