P2
128 99
254
0 0 0 0 0 0 0 0 0 0 0 0 0 0 0 0 0 0 0 0 0 0 0 0 0 0 0 0 0 0 0 0 0 0 0 0 0 0 0 0 0 0 0 0 0 0 0 0 0 0 0 0 0 0 0 0 0 0 0 0 0 0 0 0 0 0 0 0 0 0 0 0 0 0 0 0 0 0 0 0 0 0 0 0 0 0 0 0 0 0 0 0 0 0 0 0 0 0 0 0 0 0 0 0 0 0 0 0 0 0 0 0 0 0 0 0 0 0 0 0 0 0 0 0 0 0 0 0 
0 0 0 0 0 0 0 0 0 0 0 0 0 0 0 0 0 0 0 0 0 0 0 0 0 0 0 0 0 0 0 0 0 0 0 0 0 0 0 0 0 0 0 0 0 0 0 0 0 0 0 0 0 0 0 0 0 0 0 0 0 0 0 0 0 0 0 0 0 0 0 0 0 0 0 0 0 0 0 0 0 0 0 0 0 0 0 0 0 0 0 0 0 0 0 0 0 0 0 0 0 0 0 0 0 0 0 0 0 0 0 0 0 0 0 0 0 0 0 0 0 0 0 0 0 0 0 0 
0 0 0 0 0 0 0 0 0 0 0 0 0 0 0 0 0 0 0 0 0 0 0 0 0 0 0 0 0 0 0 0 0 0 0 0 0 0 0 0 0 0 0 0 0 0 0 0 0 0 1 3 3 2 0 0 0 0 0 0 0 0 0 0 0 0 0 0 0 0 0 0 0 0 0 0 0 0 0 0 0 0 0 0 0 0 0 0 0 0 0 0 0 0 0 0 0 0 0 0 0 0 0 0 0 0 0 0 0 0 0 0 0 0 0 0 0 0 0 0 0 0 0 0 0 0 0 0 
0 0 0 0 0 0 0 0 0 0 0 0 0 0 0 0 0 0 0 0 0 0 0 0 0 0 0 0 0 0 0 0 0 0 0 0 0 0 0 0 0 0 0 2 8 8 8 16 19 18 17 18 17 17 17 16 16 19 22 10 0 0 0 0 0 0 0 0 0 0 0 0 0 0 0 0 0 0 0 0 0 0 0 0 0 0 0 0 0 0 0 0 0 0 0 0 0 0 0 0 0 0 0 0 0 0 0 0 0 0 0 0 0 0 0 0 0 0 0 0 0 0 0 0 0 0 0 0 
0 0 0 0 0 0 0 0 0 0 0 0 0 0 0 0 0 0 0 0 0 0 0 0 0 0 0 0 0 0 0 0 0 0 0 0 0 0 0 0 5 10 15 25 27 40 50 65 86 111 133 147 157 160 156 151 139 119 88 52 30 24 21 3 0 0 0 0 0 0 0 0 0 0 0 0 0 0 0 0 0 0 0 0 0 0 0 0 0 0 0 0 0 0 0 0 0 0 0 0 0 0 0 0 0 0 0 0 0 0 0 0 0 0 0 0 0 0 0 0 0 0 0 0 0 0 0 0 
0 0 0 0 0 0 0 0 0 0 0 0 0 0 0 0 0 0 0 0 0 0 0 0 0 0 0 0 0 0 0 0 0 0 0 0 0 0 8 10 27 38 41 57 88 131 164 178 173 159 142 131 126 122 117 116 116 121 136 155 160 138 83 34 18 18 4 0 0 0 0 0 0 0 0 0 0 0 0 0 0 0 0 0 0 0 0 0 0 0 0 0 0 0 0 0 0 0 0 0 0 0 0 0 0 0 0 0 0 0 0 0 0 0 0 0 0 0 0 0 0 0 0 0 0 0 0 0 
0 0 0 0 0 0 0 0 0 0 0 0 0 0 0 0 0 0 0 0 0 0 0 0 0 0 0 0 0 0 0 0 0 0 0 0 6 11 33 36 46 83 134 175 195 170 142 128 132 142 150 154 157 158 158 161 157 147 135 121 112 119 143 165 146 79 26 19 14 0 0 0 0 0 0 0 0 0 0 0 0 0 0 0 0 0 0 0 0 0 0 0 0 0 0 0 0 0 0 0 0 0 0 0 0 0 0 0 0 0 0 0 0 0 0 0 0 0 0 0 0 0 0 0 0 0 0 0 
0 0 0 0 0 0 0 0 0 0 0 0 0 0 0 0 0 0 0 0 0 0 0 0 0 0 0 0 0 0 0 0 0 0 5 24 38 32 47 97 155 197 180 141 124 129 132 143 163 171 169 168 165 162 159 164 172 178 174 169 161 145 125 114 123 153 169 120 43 17 15 0 0 0 0 0 0 0 0 0 0 0 0 0 0 0 0 0 0 0 0 0 0 0 0 0 0 0 0 0 0 0 0 0 0 0 0 0 0 0 0 0 0 0 0 0 0 0 0 0 0 0 0 0 0 0 0 0 
0 0 0 0 0 0 0 0 0 0 0 0 0 0 0 0 0 0 0 0 0 0 0 0 0 0 0 0 0 0 0 0 1 27 35 28 43 99 163 202 167 128 124 131 144 160 170 166 150 145 153 162 167 163 162 157 153 150 158 173 178 177 169 156 145 123 116 143 174 127 51 23 7 0 0 0 0 0 0 0 0 0 0 0 0 0 0 0 0 0 0 0 0 0 0 0 0 0 0 0 0 0 0 0 0 0 0 0 0 0 0 0 0 0 0 0 0 0 0 0 0 0 0 0 0 0 0 0 
0 0 0 0 0 0 0 0 0 0 0 0 0 0 0 0 0 0 0 0 0 0 0 0 0 0 0 0 0 0 0 22 28 28 31 86 157 204 166 121 120 139 151 151 149 136 114 91 90 98 104 115 116 112 115 108 112 131 151 154 160 168 174 179 179 168 152 132 120 149 174 90 30 16 0 0 0 0 0 0 0 0 0 0 0 0 0 0 0 0 0 0 0 0 0 0 0 0 0 0 0 0 0 0 0 0 0 0 0 0 0 0 0 0 0 0 0 0 0 0 0 0 0 0 0 0 0 0 
0 0 0 0 0 0 0 0 0 0 0 0 0 0 0 0 0 0 0 0 0 0 0 0 0 0 0 0 0 13 23 28 25 63 137 197 176 123 117 142 167 170 147 137 129 110 104 109 119 120 99 103 110 116 146 150 142 130 122 122 138 153 157 164 172 175 180 173 156 130 125 168 138 44 20 3 0 0 0 0 0 0 0 0 0 0 0 0 0 0 0 0 0 0 0 0 0 0 0 0 0 0 0 0 0 0 0 0 0 0 0 0 0 0 0 0 0 0 0 0 0 0 0 0 0 0 0 0 
0 0 0 0 0 0 0 0 0 0 0 0 0 0 0 0 0 0 0 0 0 0 0 0 0 0 0 0 22 20 26 39 108 177 194 135 119 142 171 180 155 143 148 141 134 141 145 145 147 130 110 110 104 102 124 144 142 144 148 144 134 131 147 156 156 164 171 176 179 172 150 129 138 162 68 18 6 0 0 0 0 0 0 0 0 0 0 0 0 0 0 0 0 0 0 0 0 0 0 0 0 0 0 0 0 0 0 0 0 0 0 0 0 0 0 0 0 0 0 0 0 0 0 0 0 0 0 0 
0 0 0 0 0 0 0 0 0 0 0 0 0 0 0 0 0 0 0 0 0 0 0 0 0 0 5 23 12 25 62 135 192 166 119 134 165 179 171 155 149 139 126 127 126 133 136 136 136 111 103 99 95 91 101 132 133 130 130 134 140 145 145 148 161 160 161 167 170 173 177 164 140 126 165 87 23 7 0 0 0 0 0 0 0 0 0 0 0 0 0 0 0 0 0 0 0 0 0 0 0 0 0 0 0 0 0 0 0 0 0 0 0 0 0 0 0 0 0 0 0 0 0 0 0 0 0 0 
0 0 0 0 0 0 0 0 0 0 0 0 0 0 0 0 0 0 0 0 0 0 0 0 0 10 24 13 28 84 148 192 146 125 153 178 175 159 151 138 122 124 130 126 125 131 139 133 112 107 106 103 97 95 102 114 132 137 135 135 135 134 127 135 143 154 165 160 161 168 172 180 170 148 130 162 95 27 7 0 0 0 0 0 0 0 0 0 0 0 0 0 0 0 0 0 0 0 0 0 0 0 0 0 0 0 0 0 0 0 0 0 0 0 0 0 0 0 0 0 0 0 0 0 0 0 0 0 
0 0 0 0 0 0 0 0 0 0 0 0 0 0 0 0 0 0 0 0 0 0 0 0 16 20 15 32 103 158 178 132 132 166 178 173 159 140 122 113 120 125 111 101 98 93 107 117 125 135 149 157 163 165 161 156 155 158 155 140 131 126 124 126 125 126 134 150 164 163 162 171 181 177 147 132 167 101 27 9 0 0 0 0 0 0 0 0 0 0 0 0 0 0 0 0 0 0 0 0 0 0 0 0 0 0 0 0 0 0 0 0 0 0 0 0 0 0 0 0 0 0 0 0 0 0 0 0 
0 0 0 0 0 0 0 0 0 0 0 0 0 0 0 0 0 0 0 0 0 0 0 25 18 9 46 110 157 160 125 141 170 181 166 142 120 111 118 118 121 108 98 93 104 128 150 166 175 181 191 198 189 183 185 186 185 190 194 202 201 189 167 146 137 125 122 119 133 148 157 159 166 176 174 140 132 173 108 26 9 0 0 0 0 0 0 0 0 0 0 0 0 0 0 0 0 0 0 0 0 0 0 0 0 0 0 0 0 0 0 0 0 0 0 0 0 0 0 0 0 0 0 0 0 0 0 0 
0 0 0 0 0 0 0 0 0 0 0 0 0 0 0 0 0 0 0 0 0 0 24 12 7 57 114 150 155 124 148 179 181 150 123 115 111 113 116 126 135 143 155 172 177 171 166 153 148 140 142 144 144 142 137 138 137 142 146 158 174 186 203 208 196 163 134 122 120 126 138 151 159 165 174 166 132 133 179 112 28 7 0 0 0 0 0 0 0 0 0 0 0 0 0 0 0 0 0 0 0 0 0 0 0 0 0 0 0 0 0 0 0 0 0 0 0 0 0 0 0 0 0 0 0 0 0 0 
0 0 0 0 0 0 0 0 0 0 0 0 0 0 0 0 0 0 0 0 5 24 9 7 66 126 153 164 123 150 185 171 128 117 118 113 112 117 138 159 183 184 162 150 145 148 141 141 143 138 145 150 149 146 138 137 132 128 140 144 144 151 164 181 195 207 188 140 114 112 118 129 142 150 155 170 164 128 130 188 120 31 5 0 0 0 0 0 0 0 0 0 0 0 0 0 0 0 0 0 0 0 0 0 0 0 0 0 0 0 0 0 0 0 0 0 0 0 0 0 0 0 0 0 0 0 0 0 
0 0 0 0 0 0 0 0 0 0 0 0 0 0 0 0 0 0 0 6 21 6 10 73 131 151 176 127 151 189 159 116 112 116 119 122 122 139 178 180 160 144 142 143 147 150 147 150 150 150 162 160 161 167 154 149 147 148 148 150 151 150 147 152 159 178 193 193 149 117 106 110 126 146 154 154 169 159 122 142 190 104 27 3 0 0 0 0 0 0 0 0 0 0 0 0 0 0 0 0 0 0 0 0 0 0 0 0 0 0 0 0 0 0 0 0 0 0 0 0 0 0 0 0 0 0 0 0 
0 0 0 0 0 0 0 0 0 0 0 0 0 0 0 0 0 0 3 21 9 14 80 134 140 187 131 146 186 149 111 109 116 125 122 104 134 177 169 148 145 145 149 151 150 143 143 153 160 169 158 118 128 167 158 156 157 156 159 151 148 148 149 147 144 149 169 182 196 154 113 106 107 117 140 152 154 171 148 118 164 177 85 20 3 0 0 0 0 0 0 0 0 0 0 0 0 0 0 0 0 0 0 0 0 0 0 0 0 0 0 0 0 0 0 0 0 0 0 0 0 0 0 0 0 0 0 0 
0 0 0 0 0 0 0 0 0 0 0 0 0 0 0 0 0 0 19 10 13 72 137 129 182 146 141 179 146 106 108 112 114 115 103 130 177 160 139 150 146 148 146 134 131 123 127 128 143 141 73 55 66 141 147 136 134 133 130 134 148 130 137 136 144 148 149 169 194 196 137 111 108 101 119 138 145 160 170 134 130 193 141 59 11 0 0 0 0 0 0 0 0 0 0 0 0 0 0 0 0 0 0 0 0 0 0 0 0 0 0 0 0 0 0 0 0 0 0 0 0 0 0 0 0 0 0 0 
0 0 0 0 0 0 0 0 0 0 0 0 0 0 0 0 0 10 12 13 55 133 122 161 158 135 169 148 104 105 112 112 109 99 123 174 155 134 145 139 129 124 121 120 122 128 136 138 131 72 57 57 56 75 133 141 134 132 138 137 144 138 144 144 132 138 148 153 172 201 183 104 89 99 111 119 137 131 163 162 124 158 186 111 35 3 0 0 0 0 0 0 0 0 0 0 0 0 0 0 0 0 0 0 0 0 0 0 0 0 0 0 0 0 0 0 0 0 0 0 0 0 0 0 0 0 0 0 
0 0 0 0 0 0 0 0 0 0 0 0 0 0 0 0 5 16 10 34 118 121 139 176 136 156 155 107 101 115 114 95 88 108 162 168 143 143 134 120 116 124 124 119 104 80 79 77 65 60 59 59 59 61 65 78 95 102 85 59 61 86 100 110 109 108 125 145 148 174 200 155 89 86 101 110 126 135 125 170 140 128 184 154 81 14 0 0 0 0 0 0 0 0 0 0 0 0 0 0 0 0 0 0 0 0 0 0 0 0 0 0 0 0 0 0 0 0 0 0 0 0 0 0 0 0 0 0 
0 0 0 0 0 0 0 0 0 0 0 0 0 0 0 0 12 15 24 97 125 122 172 152 147 154 110 103 114 120 96 92 105 144 159 135 143 130 123 121 102 83 65 62 60 58 59 55 57 57 54 55 56 57 60 61 63 62 62 60 59 58 58 62 66 73 84 115 151 154 182 196 133 87 85 102 115 128 127 129 153 127 158 178 128 45 3 0 0 0 0 0 0 0 0 0 0 0 0 0 0 0 0 0 0 0 0 0 0 0 0 0 0 0 0 0 0 0 0 0 0 0 0 0 0 0 0 0 
0 0 0 0 0 0 0 0 0 0 0 0 0 0 0 6 10 14 66 120 117 142 173 143 146 123 106 111 119 105 93 96 123 169 156 140 152 123 118 71 60 62 61 61 59 58 57 56 58 56 58 61 64 66 74 77 74 73 73 69 69 64 60 54 54 55 61 78 132 144 158 190 177 105 82 94 115 120 127 128 128 130 142 195 152 91 12 0 0 0 0 0 0 0 0 0 0 0 0 0 0 0 0 0 0 0 0 0 0 0 0 0 0 0 0 0 0 0 0 0 0 0 0 0 0 0 0 0 
0 0 0 0 0 0 0 0 0 0 0 0 0 0 0 10 12 41 122 115 125 161 155 141 117 114 110 115 108 88 92 103 158 170 156 149 140 110 67 57 61 69 73 74 70 63 76 82 81 75 80 87 98 104 110 113 107 102 98 91 83 80 73 61 53 52 51 55 89 125 128 175 198 152 95 86 108 113 120 129 120 119 129 181 155 126 31 1 0 0 0 0 0 0 0 0 0 0 0 0 0 0 0 0 0 0 0 0 0 0 0 0 0 0 0 0 0 0 0 0 0 0 0 0 0 0 0 0 
0 0 0 0 0 0 0 0 0 0 0 0 0 0 4 8 20 92 126 120 140 172 155 106 113 107 109 115 99 90 85 140 168 151 151 132 100 67 65 73 80 94 102 106 108 113 124 126 120 114 125 138 146 151 157 157 146 138 137 129 113 104 96 81 62 55 54 52 55 95 112 155 185 196 136 91 103 106 119 123 130 90 124 168 170 140 75 6 0 0 0 0 0 0 0 0 0 0 0 0 0 0 0 0 0 0 0 0 0 0 0 0 0 0 0 0 0 0 0 0 0 0 0 0 0 0 0 0 
0 0 0 0 0 0 0 0 0 0 0 0 0 0 6 13 51 121 119 124 162 182 126 92 118 116 113 112 93 79 130 169 144 150 139 114 92 88 96 100 115 130 138 148 152 157 161 154 147 149 160 161 162 171 169 170 166 155 153 154 148 138 126 113 89 65 54 53 53 54 87 149 165 189 189 120 98 110 119 121 134 112 103 156 183 134 115 19 0 0 0 0 0 0 0 0 0 0 0 0 0 0 0 0 0 0 0 0 0 0 0 0 0 0 0 0 0 0 0 0 0 0 0 0 0 0 0 0 
0 0 0 0 0 0 0 0 0 0 0 0 0 2 7 29 88 123 115 131 182 159 104 98 118 119 120 103 76 100 177 160 145 147 118 105 106 122 131 131 141 152 159 162 164 165 167 162 160 163 164 164 161 160 160 162 160 157 160 159 159 159 150 145 130 92 62 54 54 50 58 117 151 169 200 169 101 116 115 119 129 138 101 148 188 135 131 39 0 0 0 0 0 0 0 0 0 0 0 0 0 0 0 0 0 0 0 0 0 0 0 0 0 0 0 0 0 0 0 0 0 0 0 0 0 0 0 0 
0 0 0 0 0 0 0 0 0 0 0 0 0 4 8 56 108 111 115 142 182 131 106 112 121 120 114 87 64 156 180 144 143 135 102 110 138 150 154 151 155 156 162 160 156 159 165 167 164 156 156 155 149 151 149 150 151 152 158 161 158 155 158 160 157 133 91 59 54 52 52 101 144 146 178 192 116 107 105 115 127 148 103 137 186 136 135 60 3 0 0 0 0 0 0 0 0 0 0 0 0 0 0 0 0 0 0 0 0 0 0 0 0 0 0 0 0 0 0 0 0 0 0 0 0 0 0 0 
0 0 0 0 0 0 0 0 0 0 0 0 0 4 17 77 110 109 121 159 170 121 117 115 115 111 92 59 72 174 166 141 147 122 120 142 157 161 161 158 155 156 155 156 154 152 157 161 160 151 153 147 141 142 141 141 143 144 148 147 147 155 158 158 160 154 130 79 55 52 54 95 144 144 159 193 124 93 109 113 127 152 109 126 177 125 130 78 4 0 0 0 0 0 0 0 0 0 0 0 0 0 0 0 0 0 0 0 0 0 0 0 0 0 0 0 0 0 0 0 0 0 0 0 0 0 0 0 
0 0 0 0 0 0 0 0 0 0 0 0 0 3 32 85 113 109 127 149 157 117 124 123 109 89 66 42 76 162 143 131 143 129 148 161 160 158 154 152 154 153 148 146 147 143 145 145 150 148 150 136 129 134 134 139 140 142 143 141 146 151 150 153 155 155 155 122 75 55 58 96 137 138 139 170 113 87 100 111 123 148 118 121 181 146 134 95 8 0 0 0 0 0 0 0 0 0 0 0 0 0 0 0 0 0 0 0 0 0 0 0 0 0 0 0 0 0 0 0 0 0 0 0 0 0 0 0 
0 0 0 0 0 0 0 0 0 0 0 0 0 4 46 95 113 113 119 141 142 109 127 126 105 82 46 42 79 156 132 144 150 159 164 161 152 148 142 148 147 144 140 138 138 138 138 138 144 145 140 131 130 134 136 138 138 139 141 141 142 142 144 147 148 151 159 155 119 76 61 84 135 142 128 154 100 80 92 110 118 141 127 114 178 162 131 106 15 0 0 0 0 0 0 0 0 0 0 0 0 0 0 0 0 0 0 0 0 0 0 0 0 0 0 0 0 0 0 0 0 0 0 0 0 0 0 0 
0 0 0 0 0 0 0 0 0 0 0 0 1 4 52 103 115 122 130 146 136 111 128 122 96 58 39 44 80 153 134 153 173 174 160 152 146 145 147 143 139 141 140 140 136 136 136 135 138 145 151 152 147 145 144 151 150 145 139 139 137 140 144 144 147 155 160 161 143 103 70 76 124 141 120 150 86 72 90 109 121 143 136 109 159 182 133 119 23 0 0 0 0 0 0 0 0 0 0 0 0 0 0 0 0 0 0 0 0 0 0 0 0 0 0 0 0 0 0 0 0 0 0 0 0 0 0 0 
0 0 0 0 0 0 0 0 0 0 0 0 2 7 58 110 117 128 138 163 135 115 123 128 95 45 41 46 70 139 133 163 189 164 154 147 134 144 146 143 142 139 141 142 136 133 135 142 146 152 160 159 158 159 163 166 164 153 147 144 143 142 144 143 144 151 153 166 161 126 79 72 109 131 106 124 77 61 85 101 125 141 142 108 149 195 145 127 35 0 0 0 0 0 0 0 0 0 0 0 0 0 0 0 0 0 0 0 0 0 0 0 0 0 0 0 0 0 0 0 0 0 0 0 0 0 0 0 
0 0 0 0 0 0 0 0 0 0 0 0 2 11 59 114 117 137 151 173 131 110 128 132 90 43 39 47 63 129 137 178 174 153 150 141 129 137 142 139 146 147 143 141 142 139 139 143 147 157 165 170 167 171 174 174 166 157 153 150 147 147 143 141 141 142 152 166 167 143 98 71 80 112 109 138 76 55 79 99 124 132 149 113 151 203 157 130 46 2 0 0 0 0 0 0 0 0 0 0 0 0 0 0 0 0 0 0 0 0 0 0 0 0 0 0 0 0 0 0 0 0 0 0 0 0 0 0 
0 0 0 0 0 0 0 0 0 0 0 0 1 11 63 116 121 150 156 174 133 106 125 120 81 42 39 45 54 127 152 168 156 154 148 145 153 145 144 156 152 145 144 143 142 140 141 139 146 161 172 173 169 174 175 175 168 156 152 148 147 146 152 161 168 174 190 201 207 188 135 86 69 68 76 125 72 53 85 108 124 120 131 107 146 207 164 130 58 4 0 0 0 0 0 0 0 0 0 0 0 0 0 0 0 0 0 0 0 0 0 0 0 0 0 0 0 0 0 0 0 0 0 0 0 0 0 0 
0 0 0 0 0 0 0 0 0 0 0 0 2 8 65 119 117 134 151 176 139 109 120 114 79 59 43 45 49 119 155 147 150 150 154 184 200 185 177 193 189 180 173 152 141 143 146 145 148 156 171 174 174 175 173 173 168 157 151 139 144 155 175 179 157 132 153 156 168 170 131 94 78 64 56 90 71 53 98 122 133 110 111 104 145 208 173 128 61 4 0 0 0 0 0 0 0 0 0 0 0 0 0 0 0 0 0 0 0 0 0 0 0 0 0 0 0 0 0 0 0 0 0 0 0 0 0 0 
0 0 0 0 0 0 0 0 0 0 0 0 4 6 68 123 123 133 152 183 146 113 118 110 80 75 54 51 51 94 122 140 152 170 184 164 152 146 147 153 154 160 175 175 155 146 145 148 147 152 169 173 175 177 178 172 162 148 141 141 157 171 152 130 111 128 150 154 165 170 131 73 55 74 66 72 69 64 113 137 133 103 101 107 136 208 182 135 68 5 0 0 0 0 0 0 0 0 0 0 0 0 0 0 0 0 0 0 0 0 0 0 0 0 0 0 0 0 0 0 0 0 0 0 0 0 0 0 
0 0 0 0 0 0 0 0 0 0 0 0 5 4 74 128 124 137 151 183 151 116 113 95 87 73 74 53 51 82 119 146 170 177 151 133 128 133 140 141 145 146 143 153 172 171 149 146 146 143 160 169 173 179 177 169 153 135 131 143 164 146 134 124 134 138 146 152 166 172 144 82 48 62 101 99 99 89 125 143 125 99 99 108 137 206 187 137 85 14 0 0 0 0 0 0 0 0 0 0 0 0 0 0 0 0 0 0 0 0 0 0 0 0 0 0 0 0 0 0 0 0 0 0 0 0 0 0 
0 0 0 0 0 0 0 0 0 0 0 0 8 5 79 127 120 121 152 185 148 122 102 74 89 77 81 68 56 80 122 162 189 158 132 114 109 124 136 142 146 148 143 146 147 167 162 145 138 134 148 163 170 170 168 158 138 122 139 147 143 136 127 136 143 141 143 151 167 172 147 85 47 55 105 140 123 108 134 136 126 95 98 99 142 203 192 141 93 23 0 0 0 0 0 0 0 0 0 0 0 0 0 0 0 0 0 0 0 0 0 0 0 0 0 0 0 0 0 0 0 0 0 0 0 0 0 0 
0 0 0 0 0 0 0 0 0 0 0 0 8 11 88 134 123 134 157 184 152 122 91 59 82 95 86 81 56 78 127 194 193 160 148 139 134 133 132 138 144 147 145 146 143 144 167 156 145 132 147 157 160 146 150 153 132 115 130 142 132 135 137 137 136 135 136 158 171 173 144 85 45 51 86 145 129 108 135 138 127 94 99 81 131 189 188 141 97 31 0 0 0 0 0 0 0 0 0 0 0 0 0 0 0 0 0 0 0 0 0 0 0 0 0 0 0 0 0 0 0 0 0 0 0 0 0 0 
0 0 0 0 0 0 0 0 0 0 0 0 9 13 90 138 127 136 158 187 155 112 86 54 78 100 88 57 50 73 145 210 193 161 149 134 136 135 134 136 142 144 141 143 140 137 146 144 107 87 123 143 138 131 146 164 146 104 112 122 133 134 143 139 140 139 147 161 173 172 141 81 44 46 63 139 138 114 152 156 130 96 102 67 88 174 189 144 99 39 1 0 0 0 0 0 0 0 0 0 0 0 0 0 0 0 0 0 0 0 0 0 0 0 0 0 0 0 0 0 0 0 0 0 0 0 0 0 
0 0 0 0 0 0 0 0 0 0 0 0 8 14 89 141 128 134 164 190 161 95 84 51 76 96 84 53 50 72 147 207 187 163 152 135 130 133 135 136 144 143 138 139 132 126 119 115 82 76 109 115 98 112 124 124 120 106 89 111 131 138 140 139 143 149 153 166 174 166 132 78 46 43 52 120 146 139 188 193 133 98 104 59 56 160 176 151 98 45 3 0 0 0 0 0 0 0 0 0 0 0 0 0 0 0 0 0 0 0 0 0 0 0 0 0 0 0 0 0 0 0 0 0 0 0 0 0 
0 0 0 0 0 0 0 0 0 0 0 0 8 13 85 137 124 135 163 176 129 84 83 51 75 91 92 57 49 71 140 203 179 165 152 142 136 137 140 135 140 140 141 132 113 101 77 68 82 88 116 113 72 80 78 88 118 106 91 110 132 139 142 139 144 150 157 166 171 161 121 69 45 43 51 131 165 168 196 222 164 105 104 53 46 137 164 145 98 50 2 0 0 0 0 0 0 0 0 0 0 0 0 0 0 0 0 0 0 0 0 0 0 0 0 0 0 0 0 0 0 0 0 0 0 0 0 0 
0 0 0 0 0 0 0 0 0 0 0 0 8 15 81 132 124 152 164 151 92 82 84 55 71 93 82 48 46 63 125 206 184 165 152 138 134 138 136 135 142 138 125 100 74 63 56 65 83 108 133 111 72 68 69 73 109 113 98 116 139 150 154 146 146 151 159 171 174 155 109 62 45 47 56 140 169 166 191 234 193 110 99 45 44 124 165 149 99 52 1 0 0 0 0 0 0 0 0 0 0 0 0 0 0 0 0 0 0 0 0 0 0 0 0 0 0 0 0 0 0 0 0 0 0 0 0 0 
0 0 0 0 0 0 0 0 0 0 0 0 5 17 78 133 127 162 152 112 87 82 84 57 72 95 110 53 45 57 104 200 196 166 149 138 138 140 148 142 144 127 102 67 53 57 59 66 92 140 142 98 87 63 53 58 97 125 109 135 151 160 152 144 146 154 164 174 169 141 93 56 49 48 68 141 159 163 206 230 203 119 96 41 56 137 168 145 97 51 2 0 0 0 0 0 0 0 0 0 0 0 0 0 0 0 0 0 0 0 0 0 0 0 0 0 0 0 0 0 0 0 0 0 0 0 0 0 
0 0 0 0 0 0 0 0 0 0 0 0 3 17 71 131 129 154 122 104 87 85 85 60 74 121 146 57 46 53 90 189 210 171 148 135 135 143 146 145 137 111 79 71 77 76 64 61 95 165 153 113 107 77 68 69 82 126 123 141 146 151 140 138 144 157 171 178 169 129 77 53 48 43 80 167 180 191 206 224 208 124 87 36 64 136 166 135 97 47 2 0 0 0 0 0 0 0 0 0 0 0 0 0 0 0 0 0 0 0 0 0 0 0 0 0 0 0 0 0 0 0 0 0 0 0 0 0 
0 0 0 0 0 0 0 0 0 0 0 0 2 15 63 134 132 148 97 97 89 83 90 67 72 123 146 66 43 51 77 167 215 183 152 133 136 140 142 145 131 95 65 67 65 73 73 55 96 171 143 121 125 104 78 64 63 115 142 136 149 148 143 137 141 161 175 179 167 113 59 48 42 43 92 154 189 182 195 221 212 128 75 32 76 141 170 132 98 41 1 0 0 0 0 0 0 0 0 0 0 0 0 0 0 0 0 0 0 0 0 0 0 0 0 0 0 0 0 0 0 0 0 0 0 0 0 0 
0 0 0 0 0 0 0 0 0 0 0 0 1 14 55 129 134 158 113 93 96 84 94 78 72 109 138 63 45 51 67 149 217 199 157 137 146 150 149 142 120 78 58 53 54 60 84 64 92 157 142 130 133 141 117 89 83 96 150 139 142 141 143 141 154 166 173 178 155 91 46 42 42 47 112 156 175 156 173 209 216 132 60 33 93 147 167 122 91 33 1 0 0 0 0 0 0 0 0 0 0 0 0 0 0 0 0 0 0 0 0 0 0 0 0 0 0 0 0 0 0 0 0 0 0 0 0 0 
0 0 0 0 0 0 0 0 0 0 0 0 1 12 49 124 136 162 134 86 98 88 92 84 72 94 120 57 44 48 62 134 210 208 166 148 157 155 146 136 104 68 55 50 46 56 79 59 83 150 135 121 134 155 148 119 99 94 133 158 160 155 146 150 156 153 164 174 144 77 44 43 41 64 139 171 146 114 142 201 222 129 47 35 106 157 163 111 88 27 1 0 0 0 0 0 0 0 0 0 0 0 0 0 0 0 0 0 0 0 0 0 0 0 0 0 0 0 0 0 0 0 0 0 0 0 0 0 
0 0 0 0 0 0 0 0 0 10 7 0 0 10 46 117 137 151 150 79 98 88 91 88 70 87 99 50 42 45 56 116 196 213 174 151 146 140 143 133 107 79 64 57 62 99 93 63 99 141 139 125 140 153 147 125 106 108 116 161 166 173 165 157 152 154 167 171 131 69 41 43 44 88 150 138 96 103 126 175 227 125 37 40 115 177 156 96 72 21 1 0 0 0 0 0 0 0 0 0 0 0 0 0 0 0 0 0 0 0 0 0 0 0 0 0 0 0 0 0 0 0 0 0 0 0 0 0 
0 0 0 0 0 0 0 0 0 0 5 2 0 8 40 108 139 139 148 85 93 91 89 87 64 72 84 48 42 42 52 104 171 199 198 157 139 134 137 131 118 103 90 68 66 98 84 62 114 129 128 127 143 150 151 132 123 136 120 152 170 175 176 160 154 166 176 172 123 58 43 41 56 106 105 95 85 100 126 151 225 125 33 45 128 188 133 82 67 16 1 0 0 0 0 0 0 0 0 0 0 0 0 0 0 0 0 0 0 0 0 0 0 0 0 0 0 0 0 0 0 0 0 0 0 0 0 0 
0 0 0 0 0 0 0 0 0 0 1 6 0 3 33 99 133 129 140 102 81 97 85 88 72 71 83 58 40 43 51 96 162 175 193 167 138 135 132 138 125 105 90 98 113 91 70 73 129 126 126 126 140 151 155 141 123 128 122 155 192 182 173 182 176 173 178 174 117 60 46 41 57 102 71 82 80 107 123 133 214 137 32 54 162 185 117 80 60 11 0 0 0 0 0 0 0 0 0 0 0 0 0 0 0 0 0 0 0 0 0 0 0 0 0 0 0 0 0 0 0 0 0 0 0 0 0 0 
0 0 0 0 0 0 0 0 0 0 0 9 0 2 30 90 127 127 120 108 75 98 86 86 76 70 89 76 44 42 46 86 154 169 163 153 132 134 144 150 147 138 134 133 110 97 78 100 137 136 130 125 137 150 153 146 133 127 132 166 197 187 175 179 183 188 188 169 106 81 87 75 98 95 74 76 84 116 115 117 194 152 42 84 192 173 105 63 58 7 0 0 0 10 9 0 0 0 0 0 0 0 0 0 0 0 0 0 0 0 0 0 0 0 0 0 0 0 0 0 0 0 0 0 0 0 0 0 
0 0 0 0 0 0 0 0 0 0 0 9 3 3 25 89 116 131 130 125 97 91 91 87 79 99 121 79 63 44 44 74 144 170 165 157 160 174 178 178 173 163 134 121 101 106 95 122 153 133 122 128 137 147 147 142 133 136 138 153 183 169 169 183 185 200 227 221 157 100 90 113 121 96 91 85 103 128 105 104 168 162 73 160 184 155 53 65 58 5 0 0 4 0 0 0 0 0 0 0 0 0 0 0 0 0 0 0 0 0 0 0 0 0 0 0 0 0 0 0 0 0 0 0 0 0 0 0 
0 0 0 0 0 0 0 0 0 0 0 6 8 5 18 87 101 134 114 129 114 69 91 90 108 176 130 75 78 65 50 71 135 179 185 181 188 180 184 190 195 200 196 167 130 126 120 140 159 137 109 134 139 150 143 135 133 136 145 166 181 173 173 185 195 225 251 244 212 173 111 75 90 67 86 137 148 138 105 72 153 171 127 199 184 115 27 71 61 3 0 0 3 0 0 0 0 0 0 0 0 0 0 0 0 0 0 0 0 0 0 0 0 0 0 0 0 0 0 0 0 0 0 0 0 0 0 0 
0 0 0 0 0 0 0 0 0 0 0 4 9 7 13 83 97 129 118 123 127 59 75 93 151 182 115 73 73 77 79 98 125 164 184 184 189 189 181 178 177 171 172 178 147 142 143 150 167 132 116 135 136 143 138 136 143 152 167 182 180 164 166 176 193 223 237 225 201 153 66 62 60 61 115 137 147 136 103 65 127 184 194 215 174 85 27 91 56 1 0 1 1 0 0 0 0 0 0 0 0 0 0 0 0 0 0 0 0 0 0 0 0 0 0 0 0 0 0 0 0 0 0 0 0 0 0 0 
0 0 0 0 0 0 0 0 0 0 0 2 9 7 9 72 101 123 130 115 147 91 56 90 159 165 101 92 84 85 111 94 66 122 194 234 251 230 195 181 165 152 155 169 169 149 153 158 166 143 131 127 129 146 148 157 151 155 168 183 184 169 169 175 184 177 138 109 131 70 30 72 53 60 114 159 149 128 93 104 134 192 206 156 146 75 72 99 39 1 1 2 1 0 0 0 0 0 0 0 0 0 0 0 0 0 0 0 0 0 0 0 0 0 0 0 0 0 0 0 0 0 0 0 0 0 0 0 
0 0 0 0 0 0 0 0 0 0 0 3 9 6 9 51 99 107 137 114 156 128 69 84 172 163 135 100 68 65 69 63 54 124 165 188 235 227 197 178 160 148 146 161 182 162 161 151 140 129 123 131 140 163 154 144 140 158 176 181 171 173 181 188 173 139 76 53 74 61 34 66 39 59 108 143 164 163 154 162 174 221 193 135 117 41 76 91 15 1 4 2 0 0 0 0 0 0 0 0 0 0 0 0 0 0 0 0 0 0 0 0 0 0 0 0 0 0 0 0 0 0 0 0 0 0 0 0 
0 0 0 0 0 0 0 0 0 0 0 3 9 6 8 16 69 94 103 122 142 155 75 45 116 163 147 104 96 70 65 36 32 88 84 81 138 203 212 206 184 169 158 157 175 169 163 150 141 122 116 128 143 164 160 152 145 150 164 179 184 181 197 188 156 133 96 46 45 65 43 73 44 59 117 138 154 162 161 159 161 199 205 110 112 56 43 89 22 1 6 4 0 0 0 0 0 0 0 0 0 0 0 0 0 0 0 0 0 0 0 0 0 0 0 0 0 0 0 0 0 0 0 0 0 0 0 0 
0 0 0 0 0 0 0 0 0 0 0 6 8 5 9 11 42 93 105 125 118 174 151 149 186 223 213 166 112 54 39 32 31 54 120 112 120 190 192 199 200 201 179 167 171 170 182 168 147 133 126 138 153 168 174 161 150 162 180 180 186 183 181 175 155 139 96 47 40 49 89 140 108 149 166 169 174 155 137 118 154 204 182 135 114 60 67 68 13 1 5 7 0 0 0 0 0 0 0 0 0 0 0 0 0 0 0 0 0 0 0 0 0 0 0 0 0 0 0 0 0 0 0 0 0 0 0 0 
0 0 0 0 0 0 0 0 0 0 0 7 6 3 12 15 26 87 103 99 98 132 168 133 158 219 195 143 107 64 42 34 33 33 109 142 139 142 142 149 171 184 178 177 182 183 192 187 166 158 144 131 158 169 178 175 165 176 194 180 178 167 141 107 124 120 76 46 37 64 151 177 188 187 169 165 143 123 125 127 155 168 184 157 94 79 92 37 9 5 4 8 2 0 0 0 0 0 0 0 0 0 0 0 0 0 0 0 0 0 0 0 0 0 0 0 0 0 0 0 0 0 0 0 0 0 0 0 
0 0 0 0 0 0 0 0 0 0 0 5 8 5 17 24 25 71 96 79 92 113 112 129 136 151 153 138 107 93 73 37 32 31 31 88 95 95 128 122 148 164 172 170 169 174 186 184 170 135 117 106 141 148 145 160 158 177 183 147 138 137 136 82 50 49 47 45 42 63 157 161 191 187 161 137 102 100 136 156 152 124 119 95 36 78 83 23 12 8 6 3 7 0 0 0 0 0 0 0 0 0 0 0 0 0 0 0 0 0 0 0 0 0 0 0 0 0 0 0 0 0 0 0 0 0 0 0 
0 0 0 0 0 0 0 0 0 0 0 1 8 8 16 27 16 33 88 77 87 101 85 98 144 120 83 94 112 102 94 68 36 33 27 31 64 93 146 149 136 105 133 129 116 122 135 134 141 99 81 73 78 82 87 100 96 132 151 103 83 119 104 75 45 40 41 47 45 63 125 180 200 189 148 90 74 107 166 162 146 121 104 72 52 92 46 28 23 13 7 2 6 2 0 0 0 0 0 0 0 0 0 0 0 0 0 0 0 0 0 0 0 0 0 0 0 0 0 0 0 0 0 0 0 0 0 0 
0 0 0 0 0 0 0 0 0 0 0 0 2 5 12 14 7 9 74 52 61 103 93 115 147 141 78 76 146 174 174 173 177 97 86 87 102 101 106 98 52 88 117 99 67 71 83 92 120 67 65 69 50 47 69 77 61 83 117 80 90 117 83 77 45 41 44 45 63 103 121 183 207 196 132 67 59 129 163 122 110 100 121 47 47 80 14 14 23 20 9 5 9 2 0 0 0 0 0 0 0 0 0 0 0 0 0 0 0 0 0 0 0 0 0 0 0 0 0 0 0 0 0 0 0 0 0 0 
0 0 0 0 0 0 0 0 0 0 0 0 0 0 3 7 6 3 45 75 49 73 112 116 140 134 128 136 180 201 202 165 139 152 134 106 96 76 47 73 57 72 74 81 90 75 79 92 139 119 125 119 105 99 102 71 73 110 128 84 89 108 68 83 58 45 42 58 97 116 107 149 197 173 124 62 64 130 135 110 104 95 108 30 79 52 6 7 13 23 16 4 6 1 0 0 0 0 0 0 0 0 0 0 0 0 0 0 0 0 0 0 0 0 0 0 0 0 0 0 0 0 0 0 0 0 0 0 
0 0 0 0 0 0 0 0 0 0 0 0 0 0 0 2 6 2 20 84 47 24 87 98 121 103 165 156 158 173 163 181 173 140 99 85 64 49 40 47 59 47 42 45 81 125 84 109 156 145 122 108 113 126 129 103 82 116 133 105 108 127 124 125 104 76 77 100 114 122 113 121 152 144 132 71 77 128 107 95 97 92 52 12 66 25 4 6 5 21 21 1 1 0 0 0 0 0 0 0 0 0 0 0 0 0 0 0 0 0 0 0 0 0 0 0 0 0 0 0 0 0 0 0 0 0 0 0 
0 0 0 0 0 0 0 0 0 0 0 0 0 0 0 4 7 3 4 62 62 25 58 104 124 107 161 168 152 170 171 158 168 122 109 102 94 82 73 67 79 69 75 83 129 171 137 121 163 137 109 124 135 128 146 153 162 175 166 132 142 164 146 133 133 112 105 110 127 130 116 103 118 115 114 97 107 120 94 94 91 54 24 7 58 10 5 6 3 9 14 0 0 0 0 0 0 0 0 0 0 0 0 0 0 0 0 0 0 0 0 0 0 0 0 0 0 0 0 0 0 0 0 0 0 0 0 0 
0 0 0 0 0 0 0 0 0 0 3 9 4 0 0 6 7 3 1 36 53 27 41 66 99 108 101 151 177 158 165 131 134 122 115 112 107 100 93 91 95 105 115 139 170 158 111 118 159 148 111 85 77 84 100 124 129 147 120 97 102 145 172 138 149 189 195 170 127 99 69 63 90 94 103 107 133 118 94 91 53 29 23 34 68 4 3 4 5 0 0 0 0 0 0 0 0 0 0 0 0 0 0 0 0 0 0 0 0 0 0 0 0 0 0 0 0 0 0 0 0 0 0 0 0 0 0 0 
0 0 0 0 0 0 0 0 0 0 3 10 9 8 6 8 5 5 3 20 71 58 51 29 63 88 96 131 181 177 168 135 111 95 82 102 112 114 108 112 109 109 113 145 160 162 133 123 139 147 119 103 101 102 101 111 136 161 127 109 104 117 160 177 176 205 199 139 108 80 41 50 76 103 138 155 118 124 95 64 22 24 22 54 76 9 2 0 5 1 0 0 0 0 0 0 0 0 0 0 0 0 0 0 0 0 0 0 0 0 0 0 0 0 0 0 0 0 0 0 0 0 0 0 0 0 0 0 
0 0 0 0 0 0 0 0 0 0 0 5 10 16 25 16 8 7 5 16 66 75 50 66 60 71 86 102 178 196 145 86 97 70 52 47 58 69 84 103 113 119 129 143 136 158 162 147 132 161 145 140 151 120 117 118 140 176 148 116 106 95 99 151 178 191 173 124 107 105 42 58 82 133 156 163 143 148 70 24 20 21 60 94 52 13 2 0 2 10 2 0 0 0 0 0 0 0 0 0 0 0 0 0 0 0 0 0 0 0 0 0 0 0 0 0 0 0 0 0 0 0 0 0 0 0 0 0 
0 0 0 0 0 0 0 0 0 0 0 6 11 10 13 13 16 17 19 15 33 86 90 94 90 81 62 89 166 180 171 118 61 49 41 45 45 49 52 60 55 75 106 92 93 125 151 142 128 158 133 179 192 147 101 88 81 101 136 95 78 63 73 132 174 174 161 116 100 131 74 91 131 143 164 166 136 123 67 41 27 20 39 69 22 16 14 16 17 25 25 4 3 7 5 0 0 0 0 0 0 0 0 0 0 0 0 0 0 0 0 0 0 0 0 0 0 0 0 0 0 0 0 0 0 0 0 0 
0 0 0 0 0 0 0 0 0 0 0 4 9 4 6 12 13 14 18 20 21 42 91 92 89 94 75 75 148 159 190 173 135 88 64 52 54 54 57 63 72 67 82 59 59 83 128 115 92 103 111 135 121 139 90 61 58 70 119 106 94 110 132 168 174 171 165 119 99 126 189 208 177 154 157 143 85 81 40 41 47 45 86 35 16 13 15 16 14 9 5 8 8 11 7 0 0 0 0 0 0 0 0 0 0 0 0 0 0 0 0 0 0 0 0 0 0 0 0 0 0 0 0 0 0 0 0 0 
0 0 0 0 0 0 0 0 0 0 0 0 7 7 0 6 12 12 12 13 20 18 47 98 86 81 75 77 126 127 149 171 193 181 177 155 143 166 195 224 206 124 128 105 101 93 119 131 131 127 135 122 127 131 145 110 84 88 94 112 128 126 133 160 166 171 216 151 137 167 187 235 209 166 145 115 59 66 27 11 36 75 47 13 9 2 3 4 7 0 0 1 6 7 0 0 0 0 0 0 0 0 0 0 0 0 0 0 0 0 0 0 0 0 0 0 0 0 0 0 0 0 0 0 0 0 0 0 
0 0 0 0 0 0 0 0 0 0 0 0 2 3 0 0 5 7 5 0 6 9 22 58 52 41 51 65 87 113 103 104 150 183 184 186 210 253 222 186 168 179 181 146 181 148 155 158 152 146 149 161 164 177 178 169 183 205 205 204 206 214 231 254 6 122 7 207 175 123 98 66 51 32 41 29 15 42 9 4 16 30 24 20 18 0 0 1 4 0 0 1 7 1 0 0 0 0 0 0 0 0 0 0 0 0 0 0 0 0 0 0 0 0 0 0 0 0 0 0 0 0 0 0 0 0 0 0 
0 0 0 0 0 0 0 0 0 0 0 0 0 0 0 0 0 3 2 0 6 14 22 42 39 31 17 17 56 53 98 102 102 82 85 111 135 138 117 122 125 145 163 199 174 120 158 174 144 133 127 127 111 133 157 97 84 126 148 145 176 183 186 164 146 166 186 173 117 101 52 34 48 57 92 116 110 107 37 10 19 41 36 26 12 0 0 1 0 0 0 2 7 0 0 0 0 0 0 0 0 0 0 0 0 0 0 0 0 0 0 0 0 0 0 0 0 0 0 0 0 0 0 0 0 0 0 0 
0 0 0 0 0 0 0 0 0 0 0 0 0 0 0 0 0 0 12 14 14 17 17 22 26 28 20 22 54 42 52 54 47 42 65 62 68 68 42 42 40 61 85 83 83 99 64 78 74 78 77 70 80 108 108 83 58 72 94 107 87 89 99 91 72 128 122 60 84 99 75 52 52 43 65 42 43 57 22 21 23 26 23 14 6 0 0 0 0 0 0 3 2 0 0 0 0 0 0 0 0 0 0 0 0 0 0 0 0 0 0 0 0 0 0 0 0 0 0 0 0 0 0 0 0 0 0 0 
0 0 0 0 0 0 0 0 0 0 0 0 0 0 0 0 0 0 0 6 13 15 9 15 22 21 20 18 52 48 46 65 36 57 61 42 33 57 127 184 173 106 93 70 63 93 92 83 63 75 76 81 102 121 123 120 92 78 72 114 108 89 65 61 78 130 97 151 198 171 58 71 57 39 62 39 40 53 24 24 25 24 14 13 5 0 0 0 0 0 0 0 0 0 0 0 0 0 0 0 0 0 0 0 0 0 0 0 0 0 0 0 0 0 0 0 0 0 0 0 0 0 0 0 0 0 0 0 
0 0 0 0 0 0 0 0 0 0 0 0 0 0 0 0 0 0 0 0 15 19 11 8 18 26 23 22 54 66 41 61 28 46 58 49 34 122 74 108 125 204 111 76 57 63 83 125 92 54 64 86 104 108 102 74 44 51 84 118 65 56 68 87 98 165 128 188 58 132 141 195 126 96 76 48 49 56 32 30 28 19 6 7 0 0 0 0 0 0 0 0 0 0 0 0 0 0 0 0 0 0 0 0 0 0 0 0 0 0 0 0 0 0 0 0 0 0 0 0 0 0 0 0 0 0 0 0 
0 0 0 0 0 0 0 0 0 0 0 0 0 0 0 0 0 0 0 0 1 5 1 5 8 28 24 29 48 67 58 61 39 51 85 153 210 111 98 126 98 138 162 119 71 111 109 168 153 82 67 66 83 100 82 53 55 57 73 100 74 59 47 82 146 160 60 93 74 55 93 227 231 210 158 123 107 79 58 50 45 32 0 4 0 0 0 0 0 0 0 0 0 0 0 0 0 0 0 0 0 0 0 0 0 0 0 0 0 0 0 0 0 0 0 0 0 0 0 0 0 0 0 0 0 0 0 0 
0 0 0 0 0 0 0 0 0 0 0 0 0 0 0 0 0 0 0 0 0 0 0 3 12 22 10 14 14 44 37 49 66 72 70 125 138 165 209 206 135 185 179 119 89 153 123 145 171 180 130 91 97 113 117 120 126 116 82 52 45 61 77 86 107 106 98 62 80 82 75 133 155 102 51 40 52 17 8 9 30 10 0 1 0 0 0 0 0 0 0 0 0 0 0 0 0 0 0 0 0 0 0 0 0 0 0 0 0 0 0 0 0 0 0 0 0 0 0 0 0 0 0 0 0 0 0 0 
0 0 0 0 0 0 0 0 0 0 0 0 0 0 0 0 0 0 0 0 0 4 7 4 2 12 20 16 23 62 53 56 39 49 41 63 103 145 96 60 187 241 194 114 135 181 166 201 197 181 175 144 147 153 139 111 87 61 35 42 82 101 92 101 104 127 147 173 97 106 129 58 34 14 24 51 74 28 27 29 30 1 1 3 0 0 0 0 0 0 0 0 0 0 0 0 0 0 0 0 0 0 0 0 0 0 0 0 0 0 0 0 0 0 0 0 0 0 0 0 0 0 0 0 0 0 0 0 
0 0 0 0 0 0 0 0 0 0 0 0 0 0 0 0 0 0 0 0 0 0 14 14 2 7 25 18 19 57 71 71 42 31 44 61 67 44 196 230 236 1 233 146 92 157 170 160 97 105 138 132 127 133 126 91 81 73 54 69 112 123 124 120 117 93 76 70 65 51 18 15 34 31 48 75 85 28 21 15 7 8 14 3 0 0 0 0 0 0 0 0 0 0 0 0 0 0 0 0 0 0 0 0 0 0 0 0 0 0 0 0 0 0 0 0 0 0 0 0 0 0 0 0 0 0 0 0 
0 0 0 0 0 0 0 0 0 0 0 0 0 0 0 0 0 0 0 0 0 0 7 13 12 11 22 18 21 44 81 88 62 32 55 140 142 118 125 202 204 190 148 112 104 149 148 132 108 96 104 105 87 76 73 87 112 107 83 79 118 92 71 61 82 124 145 140 116 124 114 73 60 56 58 81 87 32 19 15 16 11 15 3 0 0 0 0 0 0 0 0 0 0 0 0 0 0 0 0 0 0 0 0 0 0 0 0 0 0 0 0 0 0 0 0 0 0 0 0 0 0 0 0 0 0 0 0 
0 0 0 0 0 0 0 0 0 0 0 0 0 0 0 0 0 0 0 0 0 0 1 14 16 10 16 21 20 36 88 77 80 37 96 172 123 103 80 131 112 87 127 118 98 146 144 117 114 112 96 89 65 64 89 92 92 94 98 109 126 114 107 96 102 95 127 122 132 116 102 120 155 156 98 85 86 38 22 15 12 11 15 1 0 0 0 0 0 0 0 0 0 0 0 0 0 0 0 0 0 0 0 0 0 0 0 0 0 0 0 0 0 0 0 0 0 0 0 0 0 0 0 0 0 0 0 0 
0 0 0 0 0 0 0 0 0 0 0 0 0 0 0 0 0 0 0 0 0 0 0 9 14 12 12 20 20 31 74 62 79 36 121 155 47 40 38 52 51 53 123 141 95 129 120 108 99 114 107 83 67 75 109 103 85 92 98 118 159 165 141 136 122 85 148 116 139 143 107 87 94 179 151 86 76 46 23 14 9 12 11 0 0 0 0 0 0 0 0 0 0 0 0 0 0 0 0 0 0 0 0 0 0 0 0 0 0 0 0 0 0 0 0 0 0 0 0 0 0 0 0 0 0 0 0 0 
0 0 0 0 0 0 0 0 0 0 0 0 0 0 0 0 0 0 0 0 0 0 0 0 13 15 12 18 20 33 66 48 75 33 120 146 35 21 34 44 37 50 135 141 92 107 92 86 135 116 119 102 84 81 73 92 93 99 104 109 134 145 159 163 138 105 159 143 94 132 125 83 59 147 167 85 62 59 24 14 10 12 8 0 0 0 0 0 0 0 0 0 0 0 0 0 0 0 0 0 0 0 0 0 0 0 0 0 0 0 0 0 0 0 0 0 0 0 0 0 0 0 0 0 0 0 0 0 
0 0 0 0 0 0 0 0 0 0 0 0 0 0 0 0 0 0 0 0 0 0 0 0 6 12 15 17 22 29 51 40 73 31 104 149 40 28 39 40 41 85 139 95 99 93 89 77 109 114 123 130 102 70 66 77 90 108 125 127 123 97 113 132 146 110 98 142 99 84 95 60 47 144 156 73 67 59 22 14 12 12 4 0 0 0 0 0 0 0 0 0 0 0 0 0 0 0 0 0 0 0 0 0 0 0 0 0 0 0 0 0 0 0 0 0 0 0 0 0 0 0 0 0 0 0 0 0 
0 0 0 0 0 0 0 0 0 0 0 0 0 0 0 0 0 0 0 0 0 0 0 0 0 12 12 13 19 18 47 74 65 26 88 152 51 34 45 42 51 96 98 72 58 87 93 69 62 67 122 136 125 98 80 87 102 135 146 159 143 92 77 87 95 59 46 69 104 66 57 58 56 144 149 42 67 36 14 11 14 13 5 0 0 0 0 0 0 0 0 0 0 0 0 0 0 0 0 0 0 0 0 0 0 0 0 0 0 0 0 0 0 0 0 0 0 0 0 0 0 0 0 0 0 0 0 0 
0 0 0 0 0 0 0 0 0 0 0 0 0 0 0 0 0 0 0 0 0 0 0 0 0 14 7 9 14 19 21 29 26 15 62 146 66 35 42 42 50 55 56 38 41 79 97 66 58 78 122 138 149 143 129 117 135 154 155 133 109 68 61 74 95 63 43 40 64 60 37 42 64 158 138 27 18 19 13 12 13 12 3 0 0 0 0 0 0 0 0 0 0 0 0 0 0 0 0 0 0 0 0 0 0 0 0 0 0 0 0 0 0 0 0 0 0 0 0 0 0 0 0 0 0 0 0 0 
0 0 0 0 0 0 0 0 0 0 0 0 0 0 0 0 0 0 0 0 0 0 0 0 0 0 14 5 11 16 20 18 13 12 24 149 95 39 38 50 63 45 34 38 40 59 97 78 68 106 89 90 111 120 108 126 160 158 140 109 111 78 61 78 92 62 47 39 52 69 45 49 84 172 111 20 19 15 14 13 13 7 2 0 0 0 0 0 0 0 0 0 0 0 0 0 0 0 0 0 0 0 0 0 0 0 0 0 0 0 0 0 0 0 0 0 0 0 0 0 0 0 0 0 0 0 0 0 
0 0 0 0 0 0 0 0 0 0 0 0 0 0 0 0 0 0 0 0 0 0 0 0 0 0 2 8 3 14 16 19 15 12 11 88 171 114 87 94 69 35 28 38 43 59 100 108 108 101 100 109 126 130 137 136 149 149 122 121 147 141 109 111 111 67 50 36 43 75 92 115 160 185 45 14 16 13 12 12 8 5 0 0 0 0 0 0 0 0 0 0 0 0 0 0 0 0 0 0 0 0 0 0 0 0 0 0 0 0 0 0 0 0 0 0 0 0 0 0 0 0 0 0 0 0 0 0 
0 0 0 0 0 0 0 0 0 0 0 0 0 0 0 0 0 0 0 0 0 0 0 0 0 0 0 8 3 8 16 15 16 11 11 14 101 183 175 125 55 28 34 46 54 79 122 115 79 67 72 92 103 111 121 128 145 150 129 105 118 135 138 133 125 82 55 35 35 55 114 197 188 80 12 11 15 13 10 8 3 4 0 0 0 0 0 0 0 0 0 0 0 0 0 0 0 0 0 0 0 0 0 0 0 0 0 0 0 0 0 0 0 0 0 0 0 0 0 0 0 0 0 0 0 0 0 0 
0 0 0 0 0 0 0 0 0 0 0 0 0 0 0 0 0 0 0 0 0 0 0 0 0 0 0 9 5 1 10 14 17 13 11 4 5 42 92 65 36 32 32 46 58 71 110 123 85 69 74 85 99 118 127 142 149 145 143 122 97 99 125 144 135 84 56 37 25 27 59 95 52 24 10 7 13 16 10 11 7 5 0 0 0 0 0 0 0 0 0 0 0 0 0 0 0 0 0 0 0 0 0 0 0 0 0 0 0 0 0 0 0 0 0 0 0 0 0 0 0 0 0 0 0 0 0 0 
0 0 0 0 0 0 0 0 0 0 0 0 0 0 0 0 0 0 0 0 0 0 0 0 0 0 0 6 11 0 5 9 16 19 13 5 7 15 22 22 25 36 31 32 43 63 109 115 86 69 70 88 112 132 143 154 148 144 149 154 130 111 111 143 148 99 70 51 25 21 22 36 28 24 10 5 16 19 14 15 9 5 0 0 0 0 0 0 0 0 0 0 0 0 0 0 0 0 0 0 0 0 0 0 0 0 0 0 0 0 0 0 0 0 0 0 0 0 0 0 0 0 0 0 0 0 0 0 
0 0 0 0 0 0 0 0 0 0 0 0 0 0 0 0 0 0 0 0 0 0 0 0 0 0 0 0 8 7 3 6 10 14 13 8 6 14 20 19 25 35 31 27 31 61 106 116 101 102 116 124 134 142 141 142 143 147 156 168 158 99 98 130 142 112 88 57 25 24 27 34 22 21 10 9 21 19 17 16 13 5 0 0 0 0 0 0 0 0 0 0 0 0 0 0 0 0 0 0 0 0 0 0 0 0 0 0 0 0 0 0 0 0 0 0 0 0 0 0 0 0 0 0 0 0 0 0 
0 0 0 0 0 0 0 0 0 0 0 0 0 0 0 0 0 0 0 0 0 0 0 0 0 0 0 0 0 9 4 3 8 11 13 12 8 18 21 17 22 36 29 29 34 53 91 117 115 122 136 137 135 124 112 103 117 125 144 154 155 124 122 129 125 93 74 48 23 22 24 36 21 16 10 15 21 19 19 17 14 5 0 0 0 0 0 0 0 0 0 0 0 0 0 0 0 0 0 0 0 0 0 0 0 0 0 0 0 0 0 0 0 0 0 0 0 0 0 0 0 0 0 0 0 0 0 0 
0 0 0 0 0 0 0 0 0 0 0 0 0 0 0 0 0 0 0 0 0 0 0 0 0 0 0 0 0 0 6 4 6 10 12 13 11 23 24 21 29 35 27 31 37 39 54 89 117 123 125 112 97 95 99 99 115 127 137 140 158 126 126 117 74 57 57 39 27 24 21 33 23 13 10 19 21 20 18 17 15 3 1 0 0 0 0 0 0 0 0 0 0 0 0 0 0 0 0 0 0 0 0 0 0 0 0 0 0 0 0 0 0 0 0 0 0 0 0 0 0 0 0 0 0 0 0 0 
