P2
128 99
248
0 0 0 0 0 0 0 0 0 0 0 0 0 0 0 0 0 0 0 0 0 0 0 0 0 0 0 0 0 0 0 3 0 0 0 0 0 0 0 0 0 0 0 0 0 0 0 0 0 0 0 0 0 0 0 0 0 0 0 0 0 0 0 0 0 0 0 0 0 0 0 0 0 0 0 0 0 0 0 0 0 0 0 0 0 0 0 0 0 0 0 0 0 0 0 5 19 0 0 0 0 0 0 0 0 0 0 0 0 0 0 0 0 0 0 0 0 0 0 0 0 0 0 0 0 0 0 0 
0 0 0 0 0 0 0 0 0 0 0 0 0 0 0 0 0 0 0 0 0 0 0 0 0 0 0 0 0 0 0 3 0 0 0 0 0 0 0 0 0 0 0 0 0 0 0 0 0 0 0 0 0 0 0 0 0 0 0 0 0 0 0 0 0 0 0 0 0 0 0 0 0 0 0 0 0 0 0 0 0 0 0 0 0 0 0 0 0 0 0 0 0 0 0 5 19 0 0 0 0 0 0 0 0 0 0 0 0 0 0 0 0 0 0 0 0 0 0 0 0 0 0 0 0 0 0 0 
0 0 0 0 0 0 0 0 0 0 0 0 0 0 0 0 0 0 0 0 0 0 0 0 0 0 0 0 0 0 0 3 0 0 0 0 0 0 0 0 0 0 0 0 0 0 0 0 0 0 0 0 1 5 0 0 0 0 0 0 0 0 0 0 0 0 0 0 0 0 0 0 0 0 0 0 0 0 0 0 0 0 0 0 0 0 0 0 0 0 0 0 0 0 0 5 19 0 0 0 0 0 0 0 0 0 0 0 0 0 0 0 0 0 0 0 0 0 0 0 0 0 0 0 0 0 0 0 
0 0 0 0 0 0 0 0 0 0 0 0 0 0 0 0 0 0 0 0 0 0 0 0 0 0 0 0 0 0 0 2 0 0 0 0 0 0 0 0 0 0 0 0 4 16 19 16 16 19 25 29 30 31 29 27 21 15 14 13 6 0 0 0 0 0 0 0 0 0 0 0 0 0 0 0 0 0 0 0 0 0 0 0 0 0 0 0 0 0 0 0 0 0 0 5 18 0 0 0 0 0 0 0 0 0 0 0 0 0 0 0 0 0 0 0 0 0 0 0 0 0 0 0 0 0 0 0 
0 0 0 0 0 0 0 0 0 0 0 0 0 0 0 0 0 0 0 0 0 0 0 0 0 0 0 0 0 0 0 1 0 0 0 0 0 0 0 0 9 17 16 19 22 32 56 80 101 116 123 124 124 127 128 123 113 97 74 54 36 23 18 15 3 0 0 0 0 0 0 0 0 0 0 0 0 0 0 0 0 0 0 0 0 0 0 0 0 0 0 0 0 0 0 5 18 0 0 0 0 0 0 0 0 0 0 0 0 0 0 0 0 0 0 0 0 0 0 0 0 0 0 0 0 0 0 0 
0 0 0 0 0 0 0 0 0 0 0 0 0 0 0 0 0 0 0 0 0 0 0 0 0 0 0 0 0 0 0 0 0 0 0 0 0 0 13 16 17 22 40 77 112 134 137 139 149 156 156 149 145 146 148 148 151 154 150 142 126 102 71 43 25 19 15 1 0 0 0 0 0 0 0 0 0 0 0 0 0 0 0 0 0 0 0 0 0 0 0 0 0 0 0 5 19 0 0 0 0 0 0 0 0 0 0 0 0 0 0 0 0 0 0 0 0 0 0 0 0 0 0 0 0 0 0 0 
0 0 0 0 0 0 0 0 0 0 0 0 0 0 0 0 0 0 0 0 0 0 0 0 0 0 0 0 0 0 0 0 0 0 0 0 10 20 17 25 60 107 135 138 152 164 170 172 171 170 172 177 181 184 184 178 170 161 152 148 151 154 149 129 104 65 35 20 16 3 0 0 0 0 0 0 0 0 0 0 0 0 0 0 0 0 0 0 0 0 0 0 0 0 0 6 19 0 0 0 0 0 0 0 0 0 0 0 0 0 0 0 0 0 0 0 0 0 0 0 0 0 0 0 0 0 0 0 
0 0 0 0 0 0 0 0 0 0 0 0 0 0 0 0 0 0 0 0 0 0 0 0 0 0 0 0 0 0 0 0 0 0 9 22 20 33 72 123 138 143 169 177 175 171 165 163 177 196 210 214 209 198 203 213 218 219 213 198 178 155 144 146 153 145 120 85 41 22 16 1 0 0 0 0 0 0 0 0 0 0 0 0 0 0 0 0 0 0 0 0 0 0 0 6 20 0 0 0 0 0 0 0 0 0 0 0 0 0 0 0 0 0 0 0 0 0 0 0 0 0 0 0 0 0 0 0 
0 0 0 0 0 0 0 0 0 0 0 0 0 0 0 0 0 0 0 0 0 0 0 0 0 0 0 0 0 0 0 0 9 28 30 32 65 121 134 144 169 169 169 165 169 184 193 186 174 184 189 183 177 176 175 172 168 181 204 220 225 217 199 177 153 143 146 146 125 87 39 22 13 0 0 0 0 0 0 0 0 0 0 0 0 0 0 0 0 0 0 0 0 0 0 7 19 0 0 0 0 0 0 0 0 0 0 0 0 0 0 0 0 0 0 0 0 0 0 0 0 0 0 0 0 0 0 0 
0 0 0 0 0 0 0 0 0 0 0 0 0 0 0 0 0 0 0 0 0 0 0 0 0 0 0 0 0 0 0 28 30 23 41 110 136 141 163 159 156 167 175 184 186 164 148 124 107 108 128 143 141 130 127 127 119 127 143 169 197 209 219 224 213 191 161 141 144 142 119 69 25 17 4 0 0 0 0 0 0 0 0 0 0 0 0 0 0 0 0 0 0 0 0 6 20 0 0 0 0 0 0 0 0 0 0 0 0 0 0 0 0 0 0 0 0 0 0 0 0 0 0 0 0 0 0 0 
0 0 0 0 0 0 0 0 0 0 0 0 0 0 0 0 0 0 0 0 0 0 0 0 0 0 0 0 0 13 33 24 24 79 138 140 162 158 151 162 190 207 184 163 154 139 113 100 102 112 100 107 108 108 131 135 128 117 106 103 122 152 175 197 214 223 222 201 168 145 143 136 99 42 20 7 0 0 0 0 0 0 0 0 0 0 0 0 0 0 0 0 0 0 0 6 19 0 0 0 0 0 0 0 0 0 0 0 0 0 0 0 0 0 0 0 0 0 0 0 0 0 0 0 0 0 0 0 
0 0 0 0 0 0 0 0 0 0 0 0 0 0 0 0 0 0 0 0 0 0 0 0 0 0 0 0 29 24 15 42 121 138 151 155 149 161 191 213 197 164 149 136 129 123 126 128 131 115 96 95 89 86 105 125 126 129 134 131 128 138 145 142 158 180 203 215 223 201 166 144 145 122 68 22 13 0 0 0 0 0 0 0 0 0 0 0 0 0 0 0 0 0 0 6 20 0 0 0 0 0 0 0 0 0 0 0 0 0 0 0 0 0 0 0 0 0 0 0 0 0 0 0 0 0 0 0 
0 0 0 0 0 0 0 0 0 0 0 0 0 0 0 0 0 0 0 0 0 0 0 0 0 0 6 32 19 15 67 142 142 156 151 156 187 212 199 170 141 128 128 127 119 117 118 120 124 110 114 119 116 115 121 137 138 135 129 125 125 130 137 154 157 148 156 177 201 208 212 187 156 146 129 85 25 16 0 0 0 0 0 0 0 0 0 0 0 0 0 0 0 0 0 7 20 0 0 0 0 0 0 0 0 0 0 0 0 0 0 0 0 0 0 0 0 0 0 0 0 0 0 0 0 0 0 0 
0 0 0 0 0 0 0 0 0 0 0 0 0 0 0 0 0 0 0 0 0 0 0 0 0 9 32 16 21 91 147 149 157 151 172 212 211 181 142 126 128 126 121 118 117 127 141 145 136 134 132 129 121 124 128 136 146 153 152 151 151 144 131 129 138 156 158 148 155 184 208 221 199 168 147 129 93 34 17 0 0 0 0 0 0 0 0 0 0 0 0 0 0 0 0 7 20 0 0 0 0 0 0 0 0 0 0 0 0 0 0 0 0 0 0 0 0 0 0 0 0 0 0 0 0 0 0 0 
0 0 0 0 0 0 0 0 0 0 0 0 0 0 0 0 0 0 0 0 0 0 0 0 13 31 13 27 115 152 154 159 155 190 214 199 163 125 124 123 120 124 126 132 129 120 121 119 118 115 117 119 114 112 106 102 108 121 128 131 136 140 145 149 144 131 130 147 157 147 165 201 223 209 171 151 133 101 40 15 0 0 0 0 0 0 0 0 0 0 0 0 0 0 0 6 21 0 0 0 0 0 0 0 0 0 0 0 0 0 0 0 0 0 0 0 0 0 0 0 0 0 0 0 0 0 0 0 
0 0 0 0 0 0 0 0 0 0 0 0 0 0 0 0 0 0 0 0 0 0 3 15 29 13 38 131 150 149 158 164 202 207 185 140 121 124 124 130 145 137 126 106 88 83 85 89 89 88 94 107 100 94 91 93 94 95 99 105 118 121 120 130 146 147 143 128 133 152 152 155 193 220 210 170 161 134 107 49 14 0 0 0 0 0 0 0 0 0 0 0 0 0 0 6 21 0 0 0 0 0 0 0 0 0 0 0 0 0 0 0 0 0 0 0 0 0 0 0 0 0 0 0 0 0 0 0 
0 0 0 0 0 0 0 0 0 0 0 0 0 0 0 0 0 0 0 0 0 4 13 25 14 46 142 152 150 161 171 208 212 175 126 120 112 118 139 146 137 117 94 80 82 92 96 95 96 96 99 89 90 101 99 97 100 100 98 93 102 113 120 124 122 132 142 142 136 123 142 152 152 188 219 207 169 167 135 112 50 9 0 0 0 0 0 0 0 0 0 0 0 0 0 7 21 0 0 0 0 0 0 0 0 0 0 0 0 0 0 0 0 0 0 0 0 0 0 0 0 0 0 0 0 0 0 0 
0 0 0 0 0 0 0 0 0 0 0 0 0 0 0 0 0 0 0 0 5 17 23 15 56 153 149 150 163 177 213 208 164 121 115 107 121 144 141 118 99 94 91 93 93 97 96 98 97 99 96 62 65 94 90 89 91 94 91 91 93 95 102 114 121 118 114 121 137 138 121 122 146 152 186 219 206 167 169 135 114 42 6 0 0 0 0 0 0 0 0 0 0 0 0 6 21 0 0 0 0 0 0 0 0 0 0 0 0 0 0 0 0 0 0 0 0 0 0 0 0 0 0 0 0 0 0 0 
0 0 0 0 0 0 0 0 0 0 0 0 0 0 0 0 0 0 0 4 15 20 15 62 158 144 146 159 176 216 206 154 110 107 109 131 146 132 108 91 88 92 92 92 91 92 86 87 90 93 89 57 61 86 83 82 86 90 93 90 93 93 90 90 98 114 114 106 118 139 134 108 111 142 155 187 222 201 163 169 133 113 27 2 0 0 0 0 0 0 0 0 0 0 0 7 21 0 0 0 0 0 0 0 0 0 0 0 0 0 0 0 0 0 0 0 0 0 0 0 0 0 0 0 0 0 0 0 
0 0 0 0 0 0 0 0 0 0 0 0 0 0 0 0 0 0 3 16 18 17 61 157 145 138 159 174 214 199 146 104 104 114 135 137 118 98 91 87 84 83 82 92 89 89 87 85 78 75 68 57 61 80 101 106 108 111 114 106 94 88 75 70 83 91 106 111 113 126 139 130 102 106 134 158 191 226 190 160 163 130 99 13 1 0 0 0 0 0 0 0 0 0 0 7 21 0 0 0 0 0 0 0 0 0 0 0 0 0 0 0 0 0 0 0 0 0 0 0 0 0 0 0 0 0 0 0 
0 0 0 0 0 0 0 0 0 0 0 0 0 0 0 0 0 2 12 13 22 56 144 157 128 164 175 210 203 140 101 101 105 129 135 114 94 89 86 82 85 92 95 92 94 97 89 73 71 66 68 78 92 112 130 146 145 137 130 120 111 107 97 79 63 73 86 104 114 114 124 141 127 92 104 128 165 196 218 172 165 157 137 79 8 0 0 0 0 0 0 0 0 0 0 8 21 0 0 0 0 0 0 0 0 0 0 0 0 0 0 0 0 0 0 0 0 0 0 0 0 0 0 0 0 0 0 0 
0 0 0 0 0 0 0 0 0 0 0 0 0 0 0 0 0 9 11 21 56 126 164 131 158 174 196 206 141 94 98 101 120 136 114 92 90 92 99 111 108 106 110 119 119 111 106 105 97 93 109 128 137 143 145 143 142 139 138 136 127 118 112 104 87 65 72 86 105 117 107 107 127 109 99 104 121 169 206 197 164 165 147 135 52 4 0 0 0 0 0 0 0 0 0 9 22 0 0 0 0 0 0 0 0 0 0 0 0 0 0 0 0 0 0 0 0 0 0 0 0 0 0 0 0 0 0 0 
0 0 0 0 0 0 0 0 0 0 0 0 0 0 0 0 4 12 16 56 112 164 135 149 170 188 207 145 94 99 105 102 124 116 94 100 112 119 117 111 123 137 141 142 140 138 137 134 126 130 133 138 135 137 135 130 129 125 125 125 128 131 126 117 107 95 72 80 88 110 116 109 114 121 102 98 103 122 180 213 170 162 161 150 101 23 1 0 0 0 0 0 0 0 0 9 23 0 0 0 0 0 0 0 0 0 0 0 0 0 0 0 0 0 0 0 0 0 0 0 0 0 0 0 0 0 0 0 
0 0 0 0 0 0 0 0 0 0 0 0 0 0 0 1 10 11 48 97 147 146 141 165 178 198 156 102 96 112 99 122 117 97 111 132 125 114 112 127 138 141 137 134 136 136 135 131 130 128 123 121 120 120 123 124 125 120 119 120 122 126 127 128 120 112 99 72 73 93 103 118 110 118 110 96 101 101 134 202 189 157 156 149 135 64 5 0 0 0 0 0 0 0 0 9 23 0 0 0 0 0 0 0 0 0 0 0 0 2 0 0 0 0 0 0 0 0 0 0 0 0 0 0 0 0 0 0 
0 0 0 0 0 0 0 0 0 0 0 0 0 0 0 4 13 26 83 128 155 129 152 169 176 172 116 94 105 101 117 119 102 116 132 131 113 116 123 129 129 130 125 125 123 120 121 115 120 125 119 114 115 119 124 127 125 120 120 121 119 118 120 121 124 120 113 99 75 77 84 101 115 108 121 104 104 102 110 166 191 161 154 147 161 102 21 1 0 0 0 0 0 0 0 9 23 0 0 0 0 0 0 0 0 0 0 0 0 3 0 0 0 0 0 0 0 0 0 0 0 0 0 0 0 0 0 0 
0 0 0 0 0 0 0 0 0 0 0 0 0 0 0 8 11 62 114 145 146 133 162 173 165 143 100 100 102 108 123 103 119 138 134 115 118 123 121 116 118 118 121 120 118 112 109 103 109 129 126 129 130 137 139 138 139 134 129 126 120 117 116 120 125 130 121 111 100 73 71 86 102 111 121 122 104 99 98 139 174 160 155 151 156 134 49 2 0 0 0 0 0 0 0 10 22 0 0 0 0 0 0 0 0 0 0 0 0 1 0 0 0 0 0 0 0 0 0 0 0 0 0 0 0 0 0 0 
0 0 0 0 0 0 0 0 0 0 0 0 0 0 3 11 27 99 135 155 133 151 174 152 147 123 92 102 106 125 107 116 136 134 119 115 119 120 116 116 117 116 116 116 122 124 125 126 136 156 167 172 173 176 173 171 171 161 147 135 126 122 114 113 121 122 122 111 110 99 70 71 94 101 107 130 123 93 99 122 163 146 158 157 143 163 81 11 0 0 0 0 0 0 0 9 22 0 0 0 0 0 0 0 0 0 0 0 0 1 0 0 0 0 0 0 0 0 0 0 0 0 0 0 0 0 0 0 
0 0 0 0 0 0 0 0 0 0 0 0 0 0 9 11 59 121 142 158 129 172 165 120 146 123 97 105 119 112 112 136 129 116 112 119 118 120 117 120 122 119 122 126 135 149 160 171 184 191 191 201 199 186 169 163 173 196 190 176 158 141 127 119 124 123 121 113 109 108 93 68 87 93 102 122 134 108 102 117 157 141 149 159 140 168 106 24 2 0 0 0 0 0 0 8 23 0 0 0 0 0 0 0 0 0 0 0 0 2 0 0 0 0 0 0 0 0 0 0 0 0 0 0 0 0 0 0 
0 0 0 0 0 0 0 0 0 0 0 0 0 2 9 20 96 121 150 141 141 174 123 121 141 116 106 107 114 103 127 135 119 111 116 118 121 120 123 121 125 126 136 155 172 188 199 194 183 164 146 153 178 116 86 73 115 168 179 202 200 184 164 141 128 125 118 118 115 109 103 84 81 87 90 110 133 121 99 110 147 151 134 160 138 161 129 40 2 0 0 0 0 0 0 8 23 0 0 0 0 0 0 0 0 0 0 0 0 2 0 0 0 0 0 0 0 0 0 0 0 0 0 0 0 0 0 0 
0 0 0 0 0 0 0 0 0 0 0 0 0 3 12 42 121 118 154 137 165 138 100 131 140 112 103 93 102 112 132 128 110 116 117 120 122 121 123 126 135 150 174 193 194 187 166 144 138 128 117 114 128 90 66 66 77 89 100 135 173 200 203 186 155 130 121 119 121 114 109 96 79 85 86 96 122 114 93 103 144 152 129 156 145 144 150 54 4 0 0 0 0 0 0 9 23 0 0 0 0 0 0 0 0 0 0 0 0 3 0 0 0 0 0 0 0 0 0 0 0 0 0 0 0 0 0 0 
0 0 0 0 0 0 0 0 0 0 0 0 0 7 11 75 124 122 160 144 151 103 100 136 132 102 85 79 103 124 131 115 103 108 114 126 131 130 131 140 163 186 193 181 170 127 111 119 129 109 92 89 87 70 62 61 68 74 85 97 105 132 183 209 198 165 132 118 120 120 116 104 90 86 88 85 100 104 97 100 140 149 133 146 149 143 167 74 6 0 0 0 0 0 1 10 23 0 0 0 0 0 0 0 0 0 0 0 0 3 0 0 0 0 0 0 0 0 0 0 0 0 0 0 0 0 0 0 
0 0 0 0 0 0 0 0 0 0 0 0 0 9 18 104 120 146 157 139 111 93 110 142 120 79 59 79 117 136 124 107 108 113 120 127 131 133 142 169 189 174 137 105 89 92 93 94 93 76 68 65 71 59 54 55 69 67 64 76 89 107 120 178 208 206 176 136 115 112 121 113 98 81 85 86 95 93 90 98 133 143 131 134 150 140 172 93 11 0 0 0 0 0 1 10 24 0 0 0 0 0 0 0 0 0 0 0 0 3 0 0 0 0 0 0 0 0 0 0 0 0 0 0 0 0 0 0 
0 0 0 0 0 0 0 0 0 0 0 0 1 11 27 118 121 158 154 131 97 95 113 143 103 68 52 97 133 132 112 110 114 115 117 126 134 141 167 183 162 115 69 64 71 74 73 65 62 59 57 58 55 53 51 50 51 53 55 62 73 82 91 120 186 206 205 175 129 118 124 117 112 91 88 91 98 85 83 100 127 141 128 139 152 136 165 109 21 1 0 0 0 0 1 10 24 0 0 0 0 0 0 0 0 0 0 0 0 4 0 0 0 0 0 0 0 0 0 0 0 0 0 0 0 0 0 0 
0 0 0 0 0 0 0 0 0 0 0 0 2 8 40 120 121 165 155 123 94 100 113 138 91 49 53 114 140 127 116 112 114 118 125 132 148 171 181 163 117 66 57 58 59 60 60 57 56 55 57 55 52 50 48 50 50 52 53 55 57 64 74 87 124 184 204 203 158 121 122 125 119 105 91 89 98 75 79 101 134 138 128 137 159 139 154 131 30 2 0 0 0 0 0 10 25 0 0 0 0 0 0 0 0 0 0 0 0 3 0 0 0 0 0 0 0 0 0 0 0 0 0 0 0 0 0 0 
0 0 0 0 0 0 0 0 0 0 0 0 3 6 55 119 127 170 151 127 99 102 114 146 92 43 61 126 139 126 116 114 115 122 130 152 180 187 173 146 108 57 52 55 54 52 55 56 55 53 55 54 54 50 49 50 52 53 52 54 55 57 62 71 97 177 199 208 201 172 138 129 125 111 91 89 93 60 73 97 141 145 130 139 161 141 139 151 42 2 0 0 0 0 0 10 24 0 0 0 0 0 0 0 0 0 0 0 0 1 0 0 0 0 0 0 0 0 0 0 0 0 0 0 0 0 0 0 
0 0 0 0 0 0 0 0 0 0 0 0 3 6 68 121 143 162 147 130 107 99 113 143 92 46 76 134 141 129 118 116 111 121 154 190 196 177 159 156 143 111 79 53 54 53 56 52 52 53 53 54 54 52 53 52 51 52 53 53 52 55 58 61 110 172 190 203 211 213 191 152 128 114 96 88 83 51 68 97 141 150 129 136 161 145 133 164 58 2 0 0 0 0 0 10 24 0 0 0 0 0 0 0 0 0 0 0 0 0 0 0 0 0 0 0 0 0 0 0 0 0 0 0 0 0 0 0 
0 0 0 0 0 0 0 0 0 0 0 0 3 7 76 125 162 159 140 127 114 95 118 136 93 54 89 134 145 124 116 120 125 155 201 211 189 141 99 77 73 81 96 96 65 53 53 53 53 52 54 54 52 51 51 52 52 53 53 53 52 53 64 90 99 120 134 138 150 174 200 196 168 139 117 93 69 47 69 112 143 147 125 126 161 148 131 165 75 3 0 0 0 0 0 10 23 0 0 0 0 0 0 0 0 0 0 0 0 0 0 0 0 0 0 0 0 0 0 0 0 0 0 0 0 0 0 0 
0 0 0 0 0 0 0 0 0 0 0 0 3 7 81 129 170 152 131 129 122 102 118 134 96 76 101 132 150 135 110 117 164 204 214 178 107 64 53 52 54 55 58 53 62 82 58 53 51 55 55 52 53 52 51 54 53 51 53 54 51 71 78 80 84 110 132 134 129 130 137 152 173 166 133 87 57 49 83 134 159 134 124 121 155 148 133 163 95 6 0 0 0 0 0 10 23 0 0 0 0 0 0 0 0 0 0 0 0 0 0 0 0 0 0 0 0 0 0 0 0 0 0 0 0 0 0 0 
0 0 0 0 0 0 0 0 0 0 0 0 2 13 81 138 173 147 133 131 122 106 119 132 106 102 112 125 153 151 116 140 199 204 160 112 79 62 60 71 66 60 58 57 57 60 92 66 52 54 54 54 50 53 53 54 53 53 53 52 90 74 84 84 98 125 143 144 149 151 151 148 155 156 129 89 57 64 117 160 158 115 119 121 144 147 132 158 115 9 0 0 0 0 0 9 22 0 0 0 0 0 0 0 0 0 0 0 0 0 0 0 0 0 0 0 0 0 0 0 0 0 0 0 0 0 0 0 
0 0 0 0 0 0 0 0 0 0 0 0 3 17 79 141 174 149 126 120 118 104 114 117 120 109 123 122 143 148 148 184 189 148 132 117 93 85 87 88 86 79 73 70 60 57 62 100 53 55 55 51 50 51 54 55 51 55 52 99 78 84 78 67 70 98 127 133 132 140 142 143 144 146 132 101 80 97 144 166 144 100 115 124 127 144 134 155 127 12 0 0 0 0 0 9 23 0 0 0 0 0 0 0 0 0 0 0 0 0 0 0 0 0 0 0 0 0 0 0 0 0 0 0 0 0 0 0 
0 0 0 0 0 0 0 0 0 0 0 0 3 19 77 145 176 151 125 101 116 108 112 90 126 122 128 131 133 141 162 168 140 136 142 117 87 78 72 69 69 67 71 79 67 54 59 87 80 55 56 53 52 52 53 54 54 53 61 88 79 66 58 62 68 86 120 132 129 130 137 144 151 152 135 101 90 126 163 156 139 93 104 123 120 135 134 153 141 19 0 0 0 0 0 9 23 0 0 0 0 0 0 0 0 0 0 0 0 0 0 0 0 0 0 0 0 0 0 0 0 0 0 0 0 0 0 0 
0 0 0 0 0 0 0 0 0 0 0 0 3 19 75 156 179 149 107 90 116 111 111 72 118 143 139 147 133 114 138 144 148 153 143 98 68 57 57 58 59 57 56 57 69 65 56 73 81 54 54 53 51 66 57 55 54 53 72 86 66 51 54 63 68 79 111 129 125 133 131 139 155 157 129 92 71 123 160 157 133 90 98 116 120 130 136 149 148 28 0 0 0 0 0 9 23 0 0 0 0 0 0 0 0 0 0 0 0 0 0 0 0 0 0 0 0 0 0 0 0 0 0 0 0 0 0 0 
0 0 0 0 0 0 0 0 0 0 0 0 4 21 71 167 179 149 102 96 116 116 103 61 105 147 150 132 135 122 125 129 144 147 125 78 57 53 53 56 57 56 59 58 60 68 60 66 92 54 56 63 66 76 63 53 52 52 61 79 52 53 59 60 63 80 104 127 128 131 131 135 155 156 135 92 58 121 161 164 130 90 95 94 117 130 144 142 150 36 0 0 0 0 0 9 23 0 0 0 0 0 0 0 0 0 0 0 0 0 0 0 0 0 0 0 0 0 0 0 0 0 0 0 0 0 0 0 
0 0 0 0 0 0 0 0 0 0 0 0 3 21 72 173 175 139 100 100 115 117 88 53 96 134 152 128 136 121 121 127 134 145 114 74 55 51 52 50 52 56 56 55 56 59 70 73 104 62 57 61 55 68 68 58 54 62 73 62 50 52 58 58 59 73 99 123 130 133 131 133 155 161 138 84 56 113 157 152 119 90 95 77 113 130 142 139 151 43 1 0 0 0 0 9 23 0 0 0 0 0 0 0 0 0 0 0 0 0 0 0 0 0 0 0 0 0 0 0 0 0 0 0 0 0 0 0 
0 0 0 0 0 0 0 0 0 0 0 0 3 23 74 174 175 134 102 104 111 103 79 51 87 123 159 134 138 128 123 134 132 141 120 77 57 52 51 50 52 51 51 51 52 56 56 69 100 74 65 61 85 95 90 93 67 71 74 56 51 53 59 57 57 70 99 124 130 131 128 136 156 157 127 69 53 101 135 135 112 95 95 75 107 126 133 136 153 48 1 0 0 0 0 10 24 0 0 0 0 0 0 0 0 0 0 0 0 0 0 0 0 0 0 0 0 0 0 0 0 0 0 0 0 0 0 0 
0 0 0 0 0 0 0 0 0 0 0 0 5 20 74 175 168 120 108 115 109 85 77 52 85 122 141 125 134 131 123 131 133 130 112 80 58 55 51 50 52 55 55 54 49 55 56 56 68 51 67 77 80 59 66 54 77 48 61 56 60 84 88 58 61 68 97 126 134 133 130 140 155 159 118 59 48 71 124 134 115 97 92 72 112 127 125 114 147 55 3 0 0 0 0 8 23 0 0 0 0 0 0 0 0 0 0 0 0 0 0 0 0 0 0 0 0 0 0 0 0 0 0 0 0 0 0 0 
0 0 0 0 0 0 0 0 0 0 0 0 5 23 75 170 160 105 113 118 91 80 75 50 87 109 101 116 132 132 125 128 136 132 117 81 63 52 51 51 53 55 57 57 53 59 57 53 55 51 58 88 63 56 66 48 64 63 56 83 94 100 79 62 60 69 96 124 131 134 136 140 145 144 98 52 46 77 136 135 119 102 90 66 118 130 125 109 137 56 4 0 0 0 0 8 22 0 0 0 0 0 0 0 0 0 0 0 0 0 0 0 0 0 0 0 0 0 0 0 0 0 0 0 0 0 0 0 
0 0 0 0 0 0 0 0 0 0 0 0 5 18 73 160 151 103 119 117 87 82 79 52 84 109 78 108 136 131 127 121 129 132 119 87 63 56 52 51 49 54 55 80 90 85 64 56 47 59 93 110 62 44 69 72 63 80 52 75 63 68 59 60 59 71 102 124 133 137 136 141 150 130 73 48 63 119 136 124 116 106 85 62 122 130 123 120 135 53 5 0 0 0 0 8 22 0 0 0 0 0 0 0 0 0 0 0 0 0 0 0 0 0 0 0 0 0 0 0 0 0 0 0 0 0 0 0 
0 0 0 0 0 0 0 0 0 0 0 0 5 17 67 149 152 99 118 116 89 79 82 57 80 114 75 98 140 134 128 120 120 130 124 95 65 56 54 51 50 52 53 72 67 74 68 55 64 56 59 50 42 40 50 42 42 69 72 67 59 58 56 60 63 77 104 128 133 134 140 151 157 114 54 51 118 119 129 118 107 107 76 56 123 126 112 119 127 51 3 0 0 0 0 7 22 0 0 0 0 0 0 0 0 0 0 0 0 0 0 0 0 0 0 0 0 0 0 0 0 0 0 0 0 0 0 0 
0 0 0 0 0 0 0 0 0 0 0 0 5 16 68 142 154 102 117 117 90 81 85 65 76 114 74 89 140 145 132 121 119 130 122 101 68 55 53 50 49 51 53 52 60 62 63 67 68 45 73 50 48 45 49 49 45 44 78 60 52 50 56 58 64 78 103 130 134 136 148 161 157 95 48 68 125 116 130 115 100 103 63 69 127 122 97 124 125 49 4 0 0 0 0 8 22 0 0 0 0 0 0 0 0 0 0 0 0 0 0 0 0 0 0 0 0 0 0 0 0 0 0 0 0 0 0 0 
0 0 0 0 0 0 0 0 0 0 0 0 1 14 67 125 153 102 114 112 96 82 83 72 70 113 81 79 134 147 140 130 124 124 122 105 71 55 51 51 51 52 56 56 57 54 56 51 45 62 70 62 49 48 48 41 54 41 70 67 51 58 57 62 64 75 102 125 135 139 150 166 147 79 54 84 116 113 124 105 96 95 52 82 132 119 91 125 114 46 4 0 0 0 0 8 22 0 0 0 0 0 0 0 0 0 0 0 0 0 0 0 0 0 0 0 0 0 0 0 0 0 0 0 0 0 0 0 
0 0 0 0 0 0 0 0 0 0 0 0 0 12 62 110 151 97 112 104 97 81 83 79 65 111 85 70 128 147 141 134 124 122 121 105 81 55 53 53 53 53 58 56 64 56 54 43 46 72 54 57 44 58 58 50 55 47 59 79 55 49 58 61 65 84 113 133 132 136 145 162 128 66 54 101 114 109 131 105 94 83 42 87 132 111 86 128 97 40 4 0 0 0 0 8 22 0 0 0 0 0 0 0 0 0 0 0 0 0 0 0 0 0 0 0 0 0 0 0 0 0 0 0 0 0 0 0 
0 0 0 0 0 0 0 0 0 2 8 8 4 6 51 96 157 107 111 95 97 82 81 78 59 93 97 67 112 146 144 133 130 121 116 101 82 63 56 56 58 50 51 49 50 62 57 44 52 70 46 55 48 61 59 58 60 55 49 89 116 87 52 50 59 90 119 137 137 133 142 153 112 55 61 122 106 107 132 105 93 67 40 100 134 105 94 130 89 37 4 0 0 0 0 7 22 0 0 0 0 0 0 0 0 0 0 0 0 0 0 0 0 0 0 0 0 0 0 0 0 0 0 0 0 0 0 0 
0 0 0 0 0 0 0 0 0 0 12 16 9 7 37 86 148 128 108 76 96 86 81 83 65 87 101 82 101 167 189 159 129 129 119 98 74 59 57 54 50 49 60 74 72 70 53 55 58 68 54 62 48 59 61 60 70 70 55 103 103 80 52 55 63 95 124 131 136 137 137 138 106 85 87 130 145 152 137 102 90 60 54 130 126 99 120 124 86 30 2 0 0 0 0 7 21 0 0 0 0 0 0 0 0 0 0 0 0 0 0 0 0 0 0 0 0 0 0 0 0 0 0 0 0 0 0 0 
0 0 0 0 0 0 0 0 0 0 13 13 3 8 23 73 136 151 115 82 92 100 79 80 68 80 102 101 106 190 200 192 152 128 118 90 61 59 67 51 52 59 73 94 47 46 52 55 65 64 66 71 48 68 63 59 54 54 53 92 93 59 45 46 60 106 135 127 128 140 153 157 150 151 164 165 154 186 139 94 81 84 96 139 126 91 129 109 79 22 4 0 0 0 0 6 22 0 0 0 0 0 0 0 0 0 0 0 0 0 0 0 0 0 0 0 0 0 0 0 0 0 0 0 0 0 0 0 
0 0 0 0 0 0 0 0 0 0 11 6 3 8 20 65 126 162 118 98 74 103 83 81 73 64 97 99 124 198 197 188 180 166 134 101 74 82 99 91 92 85 56 73 54 60 81 80 66 59 79 69 45 68 69 52 53 55 52 86 76 67 66 59 73 108 145 164 147 155 186 194 177 168 172 152 156 206 147 91 66 103 146 138 130 105 143 99 70 14 8 8 7 7 0 6 22 0 0 0 0 0 0 0 0 0 0 0 0 0 0 0 0 0 0 0 0 0 0 0 0 0 0 0 0 0 0 0 
0 0 0 0 0 0 0 0 0 0 7 3 3 8 10 54 118 168 130 110 69 90 90 87 84 54 87 92 130 201 192 190 175 178 178 157 125 105 91 76 80 75 65 57 56 55 50 66 76 63 76 82 48 81 73 54 54 52 63 104 85 88 94 102 126 150 161 167 174 185 176 164 168 142 142 135 178 211 152 82 70 114 166 145 123 128 144 92 52 11 10 7 11 2 0 7 23 0 0 0 0 0 0 0 0 0 0 0 0 0 0 0 0 0 0 0 0 0 0 0 0 0 0 0 0 0 0 0 
0 0 0 0 0 0 0 0 0 0 4 3 5 9 6 44 105 159 150 120 79 75 91 113 104 62 72 97 109 186 194 194 190 180 171 166 136 100 79 68 61 48 50 48 49 52 49 61 88 70 89 106 55 96 76 53 77 91 103 79 69 63 60 83 123 145 161 169 195 190 153 148 175 147 119 126 181 196 135 95 95 141 169 146 118 149 138 89 31 9 5 3 3 6 0 6 23 0 0 0 0 0 0 0 0 0 0 0 0 0 0 0 0 0 0 0 0 0 0 0 0 0 0 0 0 0 0 0 
0 0 0 0 0 0 0 0 0 0 0 3 11 10 12 36 98 151 152 136 102 78 98 121 107 77 60 110 124 171 182 196 183 180 167 147 146 126 101 82 62 44 46 46 49 51 48 63 96 113 142 130 74 99 111 110 80 89 84 72 67 55 57 87 132 145 142 135 164 181 159 182 173 143 107 110 156 176 121 96 120 163 169 148 135 159 132 77 17 11 5 2 0 6 0 7 22 0 0 0 0 0 0 0 0 0 0 0 0 0 0 0 0 0 0 0 0 0 0 0 0 0 0 0 0 0 0 0 
0 0 0 0 0 0 0 0 0 0 0 1 7 1 1 17 88 154 149 143 145 119 99 123 124 115 95 140 181 186 153 165 181 175 165 141 151 146 113 89 75 44 46 47 49 53 74 77 85 115 166 171 138 151 123 73 58 92 89 61 72 74 75 110 143 142 140 145 160 156 142 175 158 108 130 129 153 169 111 83 126 149 156 154 135 156 128 58 14 8 4 0 0 4 0 6 21 0 0 0 0 0 0 0 0 0 0 0 0 0 0 0 0 0 0 0 0 0 0 0 0 0 0 0 0 0 0 0 
0 0 0 0 0 0 0 0 0 0 0 0 6 0 0 5 39 139 155 142 145 191 138 129 141 129 93 121 180 202 163 132 154 192 170 139 143 147 136 110 92 80 52 50 53 57 76 77 85 94 145 163 170 155 154 85 49 57 104 110 93 92 111 136 158 155 153 168 166 138 136 149 142 118 131 167 143 160 134 109 156 137 146 157 104 156 146 69 2 0 1 3 0 1 0 5 22 0 0 0 0 0 0 0 0 0 0 0 0 0 0 0 0 0 0 0 0 0 0 0 0 0 0 0 0 0 0 0 
0 0 0 0 0 0 0 0 0 0 0 0 6 1 0 3 22 116 167 151 147 179 163 151 139 130 125 161 159 155 130 141 161 167 159 140 130 133 139 127 120 116 96 80 79 77 76 94 115 139 140 149 168 159 157 98 55 49 74 108 122 122 144 153 159 163 170 171 148 129 125 112 107 125 143 168 158 141 96 132 156 156 163 117 49 123 118 40 0 0 3 2 0 0 0 4 20 0 0 0 0 0 0 0 0 0 0 0 0 0 0 0 0 0 0 0 0 0 0 0 0 0 0 0 0 0 0 0 
0 0 0 0 0 0 0 0 0 0 0 0 6 2 0 3 15 75 169 155 132 140 175 173 183 183 188 173 136 151 112 105 153 141 138 144 146 139 135 144 136 127 115 114 115 113 118 119 143 136 118 124 124 137 145 130 79 65 81 117 139 137 138 144 154 159 162 138 107 105 95 93 73 98 138 152 158 132 107 132 144 176 172 127 78 132 87 15 1 0 3 1 0 0 0 3 20 0 0 0 0 0 0 0 0 0 0 0 0 0 0 0 0 0 0 0 0 0 0 0 0 0 0 0 0 0 0 0 
0 0 0 0 0 0 0 0 0 0 0 0 3 2 0 3 16 42 149 164 139 122 135 159 179 169 149 126 114 153 159 146 161 146 141 140 150 153 155 162 140 134 139 135 136 137 139 133 137 120 107 109 120 126 133 145 128 114 126 139 142 137 144 153 158 139 92 62 75 93 64 71 107 138 141 143 142 116 119 130 133 139 157 161 166 121 59 7 1 0 5 0 0 0 0 3 20 0 0 0 0 0 0 0 0 0 0 0 0 0 0 0 0 0 0 0 0 0 0 0 0 0 0 0 0 0 0 0 
0 0 0 0 0 0 0 0 0 0 0 0 3 2 0 2 15 23 103 162 101 112 132 123 132 143 115 102 109 132 171 173 143 118 124 111 95 130 151 160 157 137 132 135 140 139 136 127 125 108 101 101 114 127 151 141 146 149 149 147 147 149 157 155 119 67 44 43 59 96 108 143 164 165 160 146 113 116 105 107 120 126 126 146 145 97 37 9 3 0 6 0 0 0 0 2 20 0 0 0 0 0 0 0 0 0 0 0 0 0 0 0 0 0 0 0 0 0 0 0 0 0 0 0 0 0 0 0 
0 0 0 0 0 0 0 0 0 0 0 0 2 3 0 8 15 17 57 148 95 89 110 111 106 137 131 100 92 106 121 142 142 138 159 167 138 93 106 146 161 151 146 147 148 160 151 137 125 112 113 125 124 142 162 148 137 156 156 155 155 147 133 102 58 41 42 43 86 159 168 154 115 118 97 76 93 132 126 127 127 124 86 143 92 71 24 18 2 2 6 0 0 0 0 2 19 0 0 0 0 0 0 0 0 0 0 0 0 0 0 0 0 0 0 0 0 0 0 0 0 0 0 0 0 0 0 0 
0 0 0 0 0 0 0 0 0 0 0 0 2 4 0 5 19 16 33 119 161 104 93 119 100 110 129 115 72 82 113 130 128 130 129 116 97 124 134 93 124 145 152 139 137 142 127 124 135 148 160 163 161 160 158 157 158 153 136 119 121 131 119 74 50 44 45 57 133 174 135 108 109 81 60 58 104 129 130 124 99 67 85 139 73 52 21 21 8 4 6 0 0 0 0 2 18 0 0 0 0 0 0 0 0 0 0 0 0 0 0 0 0 0 0 0 0 0 0 0 0 0 0 0 0 0 0 0 
0 0 0 0 0 0 0 0 0 0 0 0 5 6 1 6 21 20 19 82 171 125 81 113 123 112 116 113 115 98 124 163 156 149 136 112 63 47 70 113 71 76 84 96 109 104 97 117 155 166 169 173 172 173 174 161 152 137 115 95 81 82 116 127 116 84 71 119 155 132 149 148 139 86 46 58 114 126 107 121 86 28 43 117 78 33 21 23 12 5 5 0 0 0 0 1 17 0 0 0 0 0 0 0 0 0 0 0 0 0 0 0 0 0 0 0 0 0 0 0 0 0 0 0 0 0 0 0 
0 0 0 0 0 0 0 0 0 0 0 0 8 5 3 8 23 26 19 44 145 132 90 94 117 128 119 120 129 119 114 134 142 144 128 106 84 73 61 64 104 102 93 97 97 98 101 118 139 129 118 111 101 105 124 125 101 92 93 104 112 132 147 165 175 179 143 142 150 109 118 125 123 123 52 92 147 150 90 97 95 76 51 127 63 23 22 22 9 6 6 0 0 0 0 1 16 0 0 0 0 0 0 0 0 0 0 0 0 0 0 0 0 0 0 0 0 0 0 0 0 0 0 0 0 0 0 0 
0 0 0 0 0 0 0 0 0 0 0 0 6 4 3 8 10 21 22 26 110 147 95 85 95 126 132 127 165 130 111 117 129 135 109 98 93 86 81 79 82 128 123 106 104 98 112 146 138 130 95 81 83 92 96 100 97 94 100 114 114 138 171 194 188 147 139 155 147 98 91 88 91 119 114 136 159 159 91 70 83 78 105 137 38 23 23 15 8 6 6 1 0 0 0 1 16 0 0 0 0 0 0 0 0 0 0 0 0 0 0 0 0 0 0 0 0 0 0 0 0 0 0 0 0 0 0 0 
0 0 0 0 0 0 0 0 0 0 0 0 9 6 2 8 8 13 19 24 83 164 133 110 91 104 133 137 169 157 135 135 121 95 80 92 98 98 97 102 105 118 140 114 99 102 132 128 131 137 108 105 116 100 110 101 107 101 100 107 112 153 187 187 160 110 85 99 113 78 67 67 94 145 145 176 163 169 113 85 90 96 147 111 28 23 19 9 8 6 6 4 0 0 0 1 16 0 0 0 0 0 0 0 0 0 0 0 0 0 0 0 0 0 0 0 0 0 0 0 0 0 0 0 0 0 0 0 
0 0 0 0 0 0 0 0 0 0 0 0 9 11 1 6 7 13 17 19 51 141 136 88 62 53 97 128 153 147 149 153 150 78 45 43 56 93 127 138 138 147 202 179 120 117 135 126 131 143 128 158 177 132 119 99 115 123 120 123 129 167 165 156 141 96 71 90 104 65 71 105 149 138 149 167 167 188 134 79 84 114 163 95 28 22 12 4 6 2 2 6 0 0 0 0 15 0 0 0 0 0 0 0 0 0 0 0 0 0 0 0 0 0 0 0 0 0 0 0 0 0 0 0 0 0 0 0 
0 0 0 0 0 0 0 0 0 0 0 0 7 13 4 1 7 17 10 11 26 106 128 78 59 68 80 89 149 146 157 178 175 149 106 90 102 97 73 68 86 126 200 215 153 119 135 124 128 132 138 156 134 132 86 79 75 79 85 86 96 156 146 151 135 123 93 98 102 98 122 147 155 146 152 137 135 186 141 82 78 75 132 74 20 19 10 3 2 0 0 5 3 0 0 0 14 0 0 0 0 0 0 0 0 0 0 0 0 0 0 0 0 0 0 0 0 0 0 0 0 0 0 0 0 0 0 0 
0 0 0 0 0 0 0 0 0 0 0 0 12 14 14 14 15 9 7 10 14 63 139 49 53 76 86 88 167 175 161 180 181 182 173 148 113 76 66 63 64 109 197 212 203 116 109 106 105 114 125 95 77 103 116 90 67 57 70 78 80 145 144 142 145 135 86 110 161 150 155 152 136 120 135 124 92 152 138 86 41 96 121 35 7 5 14 4 0 0 0 0 11 0 0 0 14 0 0 0 0 0 0 0 0 0 0 0 0 0 0 0 0 0 0 0 0 0 0 0 0 0 0 0 0 0 0 0 
0 0 0 0 0 0 0 0 0 0 0 0 14 13 13 8 4 1 4 9 18 27 86 43 33 45 58 103 178 162 162 113 119 160 175 168 159 147 140 129 121 186 212 202 230 218 168 173 189 167 134 128 146 161 164 164 150 128 125 109 98 140 180 165 155 199 163 179 211 173 156 120 115 139 153 117 78 121 121 129 144 145 67 16 11 3 3 5 1 0 0 11 4 0 0 0 12 0 0 0 0 0 0 0 0 0 0 0 0 0 0 0 0 0 0 0 0 0 0 0 0 0 0 0 0 0 0 0 
0 0 0 0 0 0 0 0 0 0 0 0 6 11 2 0 0 0 3 5 7 11 37 82 49 43 51 66 109 124 137 111 82 84 82 110 134 136 147 159 204 212 196 160 195 221 144 160 187 168 153 166 191 195 187 189 176 165 159 174 178 193 211 193 231 248 164 153 180 140 160 166 158 146 149 129 91 82 86 133 129 80 38 26 26 1 0 0 0 2 7 13 5 0 0 0 10 0 0 0 0 0 0 0 0 0 0 0 0 0 0 0 0 0 0 0 0 0 0 0 0 0 0 0 0 0 0 0 
0 0 0 0 0 0 0 0 0 0 0 0 0 8 0 0 0 0 0 1 7 8 16 76 121 116 67 22 68 58 65 78 105 103 85 71 76 97 131 202 216 203 203 201 211 227 197 155 161 166 127 138 133 105 89 116 149 135 133 134 117 154 169 137 166 121 93 134 137 108 111 90 76 86 124 142 105 83 37 33 43 44 36 18 13 0 0 0 0 0 0 11 5 0 0 0 10 0 0 0 0 0 0 0 0 0 0 0 0 0 0 0 0 0 0 0 0 0 0 0 0 0 0 0 0 0 0 0 
0 0 0 0 0 0 0 0 0 0 0 0 0 6 11 6 0 0 0 0 5 13 23 27 61 103 54 29 79 61 54 44 47 59 53 50 46 51 66 86 115 201 204 204 211 222 184 120 114 83 45 74 55 57 59 68 79 70 102 91 75 63 57 132 187 124 114 50 54 47 41 30 28 40 86 45 60 92 35 25 25 28 21 6 3 0 0 0 0 0 0 11 12 0 0 0 11 0 0 0 0 0 0 0 0 0 0 0 0 0 0 0 0 0 0 0 0 0 0 0 0 0 0 0 0 0 0 0 
0 0 0 0 0 0 0 0 0 0 0 0 0 0 12 9 1 0 0 0 3 6 15 20 27 29 26 25 75 71 40 63 34 34 38 45 38 49 64 61 54 68 66 54 109 111 64 58 75 69 46 67 61 64 65 70 66 41 58 58 65 113 132 104 77 56 89 83 86 119 44 21 26 45 81 32 60 82 35 28 25 27 20 6 5 0 0 0 0 6 9 11 5 0 0 0 11 0 0 0 0 0 0 0 0 0 0 0 0 0 0 0 0 0 0 0 0 0 0 0 0 0 0 0 0 0 0 0 
0 0 0 0 0 0 0 0 0 0 0 0 0 0 0 0 0 0 0 0 1 6 7 15 25 29 30 34 82 113 60 69 51 47 57 61 64 73 82 110 127 108 103 100 100 85 77 72 99 87 74 91 74 81 80 86 97 64 81 91 127 158 136 130 131 106 104 60 28 39 35 19 45 64 62 32 58 64 27 19 19 23 11 1 0 0 0 0 0 5 7 3 0 0 0 0 11 0 0 0 0 0 0 0 0 0 0 0 0 0 0 0 0 0 0 0 0 0 0 0 0 0 0 0 0 0 0 0 
0 0 0 0 0 0 0 0 0 0 0 0 0 0 0 0 0 0 0 0 0 3 2 4 11 21 34 42 84 129 104 90 96 113 115 59 46 81 83 110 160 175 132 139 162 169 154 125 117 114 109 136 133 145 127 106 119 100 99 116 130 158 153 151 144 121 119 144 158 182 184 28 21 11 8 10 42 31 13 11 11 18 6 0 0 0 0 0 0 0 0 0 0 0 0 0 9 0 0 0 0 0 0 0 0 0 0 0 0 0 0 0 0 0 0 0 0 0 0 0 0 0 0 0 0 0 0 0 
0 0 0 0 0 0 0 0 0 0 0 0 0 0 0 0 0 0 0 0 0 0 0 4 24 30 18 24 46 100 90 85 85 115 118 44 55 62 99 101 141 148 136 137 151 161 165 172 128 111 133 149 188 199 149 106 107 111 113 108 105 141 133 140 151 133 143 152 183 139 152 88 16 8 13 23 71 32 6 14 30 11 1 1 0 0 0 0 0 0 0 0 0 0 0 0 6 0 0 0 0 0 0 0 0 0 0 0 0 0 0 0 0 0 0 0 0 0 0 0 0 0 0 0 0 0 0 0 
0 0 0 0 0 0 0 0 0 0 0 0 0 0 0 0 0 0 0 0 0 0 1 4 18 30 23 23 39 102 90 87 63 83 103 55 41 61 77 72 128 136 113 96 98 93 121 118 120 108 120 107 107 93 98 101 118 101 104 102 132 142 102 65 80 136 146 135 185 160 111 75 21 47 74 60 100 24 9 10 17 11 3 0 0 0 0 0 0 0 0 0 0 0 6 10 27 0 0 0 0 0 0 0 0 0 0 0 0 0 0 0 0 0 0 0 0 0 0 0 0 0 0 0 0 0 0 0 
0 0 0 0 0 0 0 0 0 0 0 0 0 0 0 0 0 0 0 0 0 0 3 4 13 21 24 18 24 87 113 93 51 56 63 31 50 70 86 101 98 101 83 64 82 106 119 101 60 111 130 100 101 84 102 74 108 94 109 103 122 124 110 75 67 70 91 106 127 119 99 89 71 85 110 71 112 44 14 13 27 24 5 1 0 0 0 0 0 0 0 0 0 0 0 0 16 0 0 0 0 0 0 0 0 0 0 0 0 0 0 0 0 0 0 0 0 0 0 0 0 0 0 0 0 0 0 0 
0 0 0 0 0 0 0 0 0 0 0 0 0 0 0 0 0 0 0 0 0 0 1 4 6 15 24 18 17 60 116 101 59 56 64 25 39 54 80 95 89 86 76 99 90 80 105 82 45 102 114 92 105 105 109 88 106 113 118 107 118 120 81 44 59 81 90 103 106 101 80 60 35 61 125 86 108 38 20 18 25 13 5 1 0 0 0 0 0 0 0 0 0 0 0 0 12 0 0 0 0 0 0 0 0 0 0 0 0 0 0 0 0 0 0 0 0 0 0 0 0 0 0 0 0 0 0 0 
0 0 0 0 0 0 0 0 0 0 0 0 0 0 0 0 0 0 0 0 0 0 0 4 7 6 21 25 18 40 123 91 72 60 64 25 26 36 61 104 98 97 99 96 65 57 81 105 90 115 117 89 103 103 102 99 113 113 118 115 109 122 69 50 102 103 110 105 81 69 53 41 22 42 124 93 98 41 19 22 23 10 4 0 0 0 0 0 0 0 0 0 0 0 0 0 11 0 0 0 0 0 0 0 0 0 0 0 0 0 0 0 0 0 0 0 0 0 0 0 0 0 0 0 0 0 0 0 
0 0 0 0 0 0 0 0 0 0 0 0 0 0 0 0 0 0 0 0 0 0 0 2 4 6 16 25 22 31 100 68 70 62 66 23 27 30 39 50 76 97 115 93 72 73 102 132 109 132 111 78 97 105 92 93 109 100 108 108 127 130 85 73 68 62 103 115 94 64 38 33 23 32 113 92 78 47 17 24 22 10 3 0 0 0 0 0 0 0 0 0 0 0 0 0 9 0 0 0 0 0 0 0 0 0 0 0 0 0 0 0 0 0 0 0 0 0 0 0 0 0 0 0 0 0 0 0 
0 0 0 0 0 0 0 0 0 0 0 0 0 0 0 0 0 0 0 0 0 0 0 0 4 7 11 22 24 34 89 50 76 64 71 27 32 31 33 48 71 97 108 57 62 69 74 103 75 120 88 63 75 85 70 77 84 84 88 90 124 83 94 83 67 66 95 109 76 74 46 38 26 32 93 87 60 67 22 23 18 11 1 0 0 0 0 0 0 0 0 0 0 0 0 0 8 0 0 0 0 0 0 0 0 0 0 0 0 0 0 0 0 0 0 0 0 0 0 0 0 0 0 0 0 0 0 0 
0 0 0 0 0 0 0 0 0 0 0 0 0 0 0 0 0 0 0 0 0 0 0 0 4 2 7 19 24 35 69 41 68 52 78 32 37 40 40 61 56 115 105 76 67 68 83 109 89 124 85 54 56 62 67 67 70 69 80 102 125 78 94 103 69 67 90 137 104 54 63 46 31 34 85 78 63 72 25 20 19 11 0 0 0 0 0 0 0 0 0 0 0 0 0 0 8 0 0 0 0 0 0 0 0 0 0 0 0 0 0 0 0 0 0 0 0 0 0 0 0 0 0 0 0 0 0 0 
0 0 0 0 0 0 0 0 0 0 0 0 0 0 0 0 0 0 0 0 0 0 0 0 0 4 5 14 18 20 62 97 57 33 74 41 36 43 50 47 48 128 103 61 71 72 91 133 111 112 79 51 44 46 55 62 66 66 74 108 117 83 109 106 79 67 71 111 124 54 65 45 38 41 86 53 78 37 16 18 21 7 0 0 0 0 0 0 0 0 0 0 0 0 0 0 7 0 0 0 0 0 0 0 0 0 0 0 0 0 0 0 0 0 0 0 0 0 0 0 0 0 0 0 0 0 0 0 
0 0 0 0 0 0 0 0 0 0 0 0 0 0 0 0 0 0 0 0 0 0 0 0 0 3 2 9 16 17 23 36 17 17 66 52 35 48 73 46 47 121 113 69 83 63 78 132 124 108 68 53 44 48 55 69 72 70 70 81 110 88 126 128 84 65 63 106 133 69 78 62 38 52 89 38 15 13 15 19 19 6 0 0 0 0 0 0 0 0 0 0 0 0 0 0 5 0 0 0 0 0 0 0 0 0 0 0 0 0 0 0 0 0 0 0 0 0 0 0 0 0 0 0 0 0 0 0 
0 0 0 0 0 0 0 0 0 0 0 0 0 0 0 0 0 0 0 0 0 0 0 0 0 0 4 1 15 17 20 17 9 8 33 83 72 81 84 46 49 117 116 74 90 61 66 118 115 86 53 55 53 58 61 70 66 71 78 72 91 105 127 115 56 46 36 77 137 79 71 93 86 92 84 23 13 13 16 19 16 5 0 0 0 0 0 0 0 0 0 0 0 0 0 0 5 0 0 0 0 0 0 0 0 0 0 0 0 0 0 0 0 0 0 0 0 0 0 0 0 0 0 0 0 0 0 0 
0 0 0 0 0 0 0 0 0 0 0 0 0 0 0 0 0 0 0 0 0 0 0 0 0 0 3 1 6 18 17 20 17 9 12 48 86 88 61 40 58 128 117 68 88 58 75 103 93 77 60 49 51 49 55 68 76 71 57 63 95 94 85 97 70 53 45 84 151 99 56 72 93 84 37 14 11 9 17 19 14 4 0 0 0 0 0 0 0 0 0 0 0 0 0 0 5 0 0 0 0 0 0 0 0 0 0 0 0 0 0 0 0 0 0 0 0 0 0 0 0 0 0 0 0 0 0 0 
0 0 0 0 0 0 0 0 0 0 0 0 0 0 0 0 0 0 0 0 0 0 0 0 0 0 0 4 1 10 21 17 16 14 9 13 26 33 33 38 63 142 126 74 99 84 87 99 81 88 92 72 61 59 72 89 88 66 48 67 126 112 67 88 95 67 40 83 161 122 51 35 38 31 23 16 9 9 18 17 13 3 0 0 0 0 0 0 0 0 0 0 0 0 0 0 5 0 0 0 0 0 0 0 0 0 0 0 0 0 0 0 0 0 0 0 0 0 0 0 0 0 0 0 0 0 0 0 
0 0 0 0 0 0 0 0 0 0 0 0 0 0 0 0 0 0 0 0 0 0 0 0 0 0 0 3 3 7 14 18 17 16 14 10 17 30 32 30 54 139 148 82 84 115 111 84 67 97 103 63 50 55 76 92 93 76 53 58 82 85 71 73 98 98 64 105 167 115 45 33 33 32 25 13 8 10 15 16 12 2 0 0 0 0 0 0 0 0 0 0 0 0 0 0 4 0 0 0 0 0 0 0 0 0 0 0 0 0 0 0 0 0 0 0 0 0 0 0 0 0 0 0 0 0 0 0 
0 0 0 0 0 0 0 0 0 0 0 0 0 0 0 0 0 0 0 0 0 0 0 0 0 0 0 0 3 8 11 16 16 16 13 8 10 21 29 28 34 101 163 137 137 148 105 72 64 92 91 59 53 66 86 98 96 86 67 55 82 80 62 63 93 128 118 146 162 77 42 32 31 31 23 10 9 13 16 16 10 2 0 0 0 0 0 0 0 0 0 0 0 0 0 0 4 0 0 0 0 0 0 0 0 0 0 0 0 0 0 0 0 0 0 0 0 0 0 0 0 0 0 0 0 0 0 0 
0 0 0 0 0 0 0 0 0 0 0 0 0 0 0 0 0 0 0 0 0 0 0 0 0 0 0 0 0 10 9 15 16 17 10 8 9 19 27 30 29 50 136 176 171 155 102 63 65 88 64 56 62 83 94 96 99 97 87 56 69 94 69 58 90 145 170 181 114 38 38 31 29 26 16 11 11 11 17 15 8 1 0 0 0 0 0 0 0 0 0 0 0 0 0 0 4 0 0 0 0 0 0 0 0 0 0 0 0 0 0 0 0 0 0 0 0 0 0 0 0 0 0 0 0 0 0 0 
0 0 0 0 0 0 0 0 0 0 0 0 0 0 0 0 0 0 0 0 0 0 0 0 0 0 0 0 0 9 7 13 17 16 13 8 8 19 30 31 27 28 54 124 188 173 104 72 70 66 47 59 77 91 95 98 97 97 95 65 50 92 91 73 82 150 176 106 35 29 38 30 28 19 14 14 8 11 19 16 8 0 0 0 0 0 0 0 0 0 0 0 0 0 0 0 4 0 0 0 0 0 0 0 0 0 0 0 0 0 0 0 0 0 0 0 0 0 0 0 0 0 0 0 0 0 0 0 
0 0 0 0 0 0 0 0 0 0 0 0 0 0 0 0 0 0 0 0 0 0 0 0 0 0 0 0 0 6 7 11 15 18 17 7 6 19 32 31 28 34 40 53 83 99 91 88 75 44 45 58 75 80 85 86 83 79 77 66 45 71 90 85 83 82 72 56 41 30 39 41 23 19 14 14 9 10 18 18 8 1 0 0 0 0 0 0 0 0 0 0 0 0 0 0 3 0 0 0 0 0 0 0 0 0 0 0 0 0 0 0 0 0 0 0 0 0 0 0 0 0 0 0 0 0 0 0 
