P2
128 99
214
0 0 0 0 0 0 0 0 0 0 0 0 0 0 0 0 0 0 0 0 0 0 0 0 0 0 0 0 0 0 0 0 1 1 0 0 0 0 0 0 0 0 0 0 0 0 0 0 0 0 0 0 0 0 0 0 0 0 0 0 0 0 0 0 0 0 0 0 0 0 0 0 0 0 0 0 0 0 0 0 0 0 0 0 0 0 0 0 0 0 0 0 0 1 1 1 1 1 0 0 0 0 0 0 0 0 0 0 0 0 0 0 0 0 0 0 0 0 0 0 0 0 0 0 0 0 0 0 
0 0 0 0 0 0 0 0 0 0 0 0 0 0 0 0 0 0 0 0 0 0 0 0 0 0 0 0 0 0 0 0 1 1 0 0 0 0 0 0 0 0 0 0 0 0 0 0 0 0 0 0 0 0 0 0 0 0 0 0 0 0 0 0 0 0 0 0 0 0 0 0 0 0 0 0 0 0 0 0 0 0 0 0 0 0 0 0 0 0 0 0 0 1 1 1 1 1 0 0 0 0 0 0 0 0 0 0 0 0 0 0 0 0 0 0 0 0 0 0 0 0 0 0 0 0 0 0 
0 0 0 0 0 0 0 0 0 0 0 0 0 0 0 0 0 0 0 0 0 0 0 0 0 0 0 0 0 0 0 0 1 1 0 0 0 0 0 0 0 0 0 0 0 0 0 0 0 0 1 2 2 3 1 0 0 0 0 0 0 0 0 0 0 0 0 0 0 0 0 0 0 0 0 0 0 0 0 0 0 0 0 0 0 0 0 0 0 0 0 0 0 1 1 1 1 1 0 0 0 0 0 0 0 0 0 0 0 0 0 0 0 0 0 0 0 0 0 0 0 0 0 0 0 0 0 0 
0 0 0 0 0 0 0 0 0 0 0 0 0 0 0 0 0 0 0 0 0 0 0 0 0 0 0 0 0 0 0 0 0 1 0 0 0 0 0 0 0 0 0 1 7 13 17 18 18 19 22 25 28 27 25 21 18 16 14 12 4 0 0 0 0 0 0 0 0 0 0 0 0 0 0 0 0 0 0 0 0 0 0 0 0 0 0 0 0 0 0 0 0 1 1 1 1 1 0 0 0 0 0 0 0 0 0 0 0 0 0 0 0 0 0 0 0 0 0 0 0 0 0 0 0 0 0 0 
0 0 0 0 0 0 0 0 0 0 0 0 0 0 0 0 0 0 0 0 0 0 0 0 0 0 0 0 0 0 0 0 0 0 0 0 0 0 0 0 6 13 19 23 24 33 54 78 101 122 139 150 155 156 152 141 125 104 80 54 33 22 17 10 2 0 0 0 0 0 0 0 0 0 0 0 0 0 0 0 0 0 0 0 0 0 0 0 0 0 0 0 0 1 1 1 1 1 0 0 0 0 0 0 0 0 0 0 0 0 0 0 0 0 0 0 0 0 0 0 0 0 0 0 0 0 0 0 
0 0 0 0 0 0 0 0 0 0 0 0 0 0 0 0 0 0 0 0 0 0 0 0 0 0 0 0 0 0 0 0 0 0 0 0 0 1 9 17 24 25 36 68 112 151 173 183 188 191 193 191 190 189 190 191 190 187 182 171 151 119 79 44 23 16 10 1 0 0 0 0 0 0 0 0 0 0 0 0 0 0 0 0 0 0 0 0 0 0 0 0 0 1 1 1 1 1 0 0 0 0 0 0 0 0 0 0 0 0 0 0 0 0 0 0 0 0 0 0 0 0 0 0 0 0 0 0 
0 0 0 0 0 0 0 0 0 0 0 0 0 0 0 0 0 0 0 0 0 0 0 0 0 0 0 0 0 0 0 0 0 0 0 0 9 22 24 26 52 104 153 180 190 192 193 194 197 199 201 202 202 202 202 201 200 197 194 192 191 186 176 158 123 77 39 18 13 2 0 0 0 0 0 0 0 0 0 0 0 0 0 0 0 0 0 0 0 0 0 0 0 1 1 1 1 1 0 0 0 0 0 0 0 0 0 0 0 0 0 0 0 0 0 0 0 0 0 0 0 0 0 0 0 0 0 0 
0 0 0 0 0 0 0 0 0 0 0 0 0 0 0 0 0 0 0 0 0 0 0 0 0 0 0 0 0 0 0 0 0 0 8 24 25 26 62 125 170 187 192 194 196 199 197 191 185 181 184 191 189 177 175 188 201 207 205 200 198 194 192 192 187 175 150 101 49 23 14 1 0 0 0 0 0 0 0 0 0 0 0 0 0 0 0 0 0 0 0 0 0 1 1 1 1 1 0 0 0 0 0 0 0 0 0 0 0 0 0 0 0 0 0 0 0 0 0 0 0 0 0 0 0 0 0 0 
0 0 0 0 0 0 0 0 0 0 0 0 0 0 0 0 0 0 0 0 0 0 0 0 0 0 0 0 0 0 0 0 5 27 25 23 59 129 174 186 189 192 196 200 197 188 179 168 159 156 157 159 156 149 150 155 164 182 202 210 208 203 200 196 193 192 191 183 158 103 45 23 10 0 0 0 0 0 0 0 0 0 0 0 0 0 0 0 0 0 0 0 1 1 1 1 1 1 0 0 0 0 0 0 0 0 0 0 0 0 0 0 0 0 0 0 0 0 0 0 0 0 0 0 0 0 0 0 
0 0 0 0 0 0 0 0 0 0 0 0 0 0 0 0 0 0 0 0 0 0 0 0 0 0 0 0 0 0 0 23 26 22 41 113 171 185 186 190 194 200 197 181 167 161 155 145 140 137 141 149 150 146 149 151 153 156 168 187 206 211 210 206 202 198 194 193 191 182 150 80 31 19 2 0 0 0 0 0 0 0 0 0 0 0 0 0 0 0 0 0 1 1 1 1 1 1 0 0 0 0 0 0 0 0 0 0 0 0 0 0 0 0 0 0 0 0 0 0 0 0 0 0 0 0 0 0 
0 0 0 0 0 0 0 0 0 0 0 0 0 0 0 0 0 0 0 0 0 0 0 0 0 0 0 0 0 10 28 22 25 84 160 183 186 189 194 199 202 191 172 167 162 154 147 141 137 135 136 141 140 139 143 147 148 147 150 158 173 194 207 213 212 207 202 199 194 194 192 176 121 46 23 6 0 0 0 0 0 0 0 0 0 0 0 0 0 0 0 0 1 1 1 1 1 1 0 0 0 0 0 0 0 0 0 0 0 0 0 0 0 0 0 0 0 0 0 0 0 0 0 0 0 0 0 0 
0 0 0 0 0 0 0 0 0 0 0 0 0 0 0 0 0 0 0 0 0 0 0 0 0 0 0 0 22 25 18 48 133 179 184 188 195 199 203 198 183 173 166 160 156 153 149 145 143 140 134 136 134 133 143 149 149 148 150 153 159 170 186 199 209 214 211 207 203 199 197 194 187 152 68 24 11 0 0 0 0 0 0 0 0 0 0 0 0 0 0 0 0 1 1 1 1 1 0 0 0 0 0 0 0 0 0 0 0 0 0 0 0 0 0 0 0 0 0 0 0 0 0 0 0 0 0 0 
0 0 0 0 0 0 0 0 0 0 0 0 0 0 0 0 0 0 0 0 0 0 0 0 0 0 5 26 21 20 77 160 181 187 193 200 204 204 191 178 172 167 160 157 152 150 150 147 147 140 131 129 127 127 137 146 146 148 150 151 154 163 173 181 191 202 210 214 211 206 201 197 193 187 164 86 25 13 0 0 0 0 0 0 0 0 0 0 0 0 0 0 1 1 1 1 1 1 0 0 0 0 0 0 0 0 0 0 0 0 0 0 0 0 0 0 0 0 0 0 0 0 0 0 0 0 0 0 
0 0 0 0 0 0 0 0 0 0 0 0 0 0 0 0 0 0 0 0 0 0 0 0 0 10 25 18 26 102 169 181 191 199 203 207 200 185 175 169 166 162 157 152 149 149 151 150 141 135 126 125 121 123 127 139 149 151 153 154 154 156 163 170 177 183 191 202 210 213 209 203 197 191 187 169 95 27 14 0 0 0 0 0 0 0 0 0 0 0 0 0 1 1 1 1 1 1 0 0 0 0 0 0 0 0 0 0 0 0 0 0 0 0 0 0 0 0 0 0 0 0 0 0 0 0 0 0 
0 0 0 0 0 0 0 0 0 0 0 0 0 0 0 0 0 0 0 0 0 0 0 0 14 23 16 34 119 171 182 194 201 207 203 191 178 173 170 165 162 159 157 153 149 146 139 131 130 126 122 122 119 123 124 125 134 146 150 149 149 151 154 160 164 169 175 180 187 199 208 210 206 199 191 188 173 106 30 13 0 0 0 0 1 0 0 0 0 0 0 0 1 1 1 1 1 1 0 0 0 0 0 0 0 0 0 0 0 0 0 0 0 0 0 0 0 0 0 0 0 0 0 0 0 0 0 0 
0 0 0 0 0 0 0 0 0 0 0 0 0 0 0 0 0 0 0 0 0 0 3 19 20 15 45 130 169 184 196 203 206 195 181 173 170 169 166 162 158 153 147 140 137 129 124 124 121 120 120 118 116 121 124 123 123 126 136 144 145 145 147 152 158 161 164 166 170 176 187 201 208 206 199 191 188 175 118 36 12 0 0 0 1 1 0 0 0 0 0 0 0 1 1 1 1 1 0 0 0 0 0 0 0 0 0 0 0 0 0 0 0 0 0 0 0 0 0 0 0 0 0 0 0 0 0 0 
0 0 0 0 0 0 0 0 0 0 0 0 0 0 0 0 0 0 0 0 0 5 17 17 16 57 140 168 185 197 205 203 186 173 168 166 164 163 161 157 152 144 139 135 126 121 120 117 120 120 120 116 115 121 123 124 124 125 126 129 131 133 137 142 148 152 155 159 163 166 169 176 192 204 205 199 194 188 174 127 39 9 0 0 0 0 0 0 0 0 0 0 1 1 1 1 1 1 0 0 0 0 0 0 0 0 0 0 0 0 0 0 0 0 0 0 0 0 0 0 0 0 0 0 0 0 0 0 
0 0 0 0 0 0 0 0 0 0 0 0 0 0 0 0 0 0 0 0 6 16 14 18 71 149 168 185 200 206 198 175 165 165 165 160 154 150 149 146 144 140 134 126 122 120 117 119 120 119 117 111 110 120 120 121 123 123 122 125 127 129 131 135 139 141 143 147 151 156 158 162 168 183 197 203 199 194 187 175 131 37 6 0 1 0 0 0 0 0 0 0 1 1 1 1 1 1 0 0 0 0 0 0 0 0 0 0 0 0 0 0 0 0 0 0 0 0 0 0 0 0 0 0 0 0 0 0 
0 0 0 0 0 0 0 0 0 0 0 0 0 0 0 0 0 0 0 6 15 13 19 79 152 169 183 198 205 194 169 160 161 159 155 149 145 144 139 134 130 126 123 120 121 118 115 118 117 114 115 107 109 118 119 121 123 123 123 123 125 125 125 127 128 129 133 140 146 147 146 149 155 162 177 193 202 200 195 185 173 123 29 3 1 1 0 0 0 0 0 0 0 1 1 1 1 1 0 0 0 0 0 0 0 0 0 0 0 0 0 0 0 0 0 0 0 0 0 0 0 0 0 0 0 0 0 0 
0 0 0 0 0 0 0 0 0 0 0 0 0 0 0 0 0 0 5 16 13 20 84 153 167 180 194 202 188 166 160 157 155 153 147 139 136 132 129 125 124 121 120 121 117 114 114 115 113 112 109 105 107 118 119 118 120 120 121 122 121 122 121 121 123 123 128 132 140 145 143 143 146 150 159 171 188 202 200 192 181 168 108 20 2 1 0 0 0 0 0 0 1 1 1 1 1 1 0 0 0 0 0 0 0 0 0 0 0 0 0 0 0 0 0 0 0 0 0 0 0 0 0 0 0 0 0 0 
0 0 0 0 0 0 0 0 0 0 0 0 0 0 0 0 0 2 15 13 19 81 149 163 176 191 202 186 164 157 154 150 148 144 137 131 128 127 124 123 120 118 118 114 112 112 112 111 113 109 102 103 106 115 117 117 119 119 118 120 121 118 118 117 118 119 122 130 134 135 140 140 142 144 150 157 167 184 203 198 189 177 159 83 11 1 0 0 0 0 0 0 1 1 1 2 1 1 0 0 0 0 0 0 0 0 0 0 0 0 0 0 0 0 0 0 0 0 0 0 0 0 0 0 0 0 0 0 
0 0 0 0 0 0 0 0 0 0 0 0 0 0 0 0 0 11 12 16 73 143 158 171 186 199 185 162 156 152 148 145 143 138 128 125 125 123 122 120 116 112 110 111 111 111 108 108 110 102 101 103 105 109 113 114 116 115 116 118 120 117 115 114 114 115 119 123 130 131 131 133 133 137 143 149 156 163 187 202 197 186 171 143 54 4 0 0 0 0 0 0 1 1 1 2 1 1 0 0 0 0 0 0 0 0 0 0 0 0 0 0 0 0 0 0 0 0 0 0 0 0 0 0 0 0 0 0 
0 0 0 0 0 0 0 0 0 0 0 0 0 0 0 0 6 12 14 60 134 152 166 182 196 186 160 154 150 145 142 139 133 127 124 123 123 122 119 115 112 110 110 110 109 106 106 105 102 99 100 103 105 108 108 107 110 110 109 108 111 113 113 110 108 109 112 121 123 127 127 127 128 131 135 142 147 152 158 189 202 194 181 162 118 25 2 0 0 0 0 0 1 1 1 2 1 1 0 0 0 0 0 0 0 0 0 0 0 0 0 0 0 0 0 0 0 0 0 0 0 0 0 0 0 0 0 0 
0 0 0 0 0 0 0 0 0 0 0 0 0 0 0 2 12 13 47 123 147 161 177 192 187 160 150 147 144 143 136 130 127 128 125 123 120 116 113 111 107 102 101 101 102 102 103 104 104 102 107 106 104 106 104 102 104 104 105 105 106 108 110 109 108 108 109 112 119 123 123 122 123 128 132 137 146 147 148 161 194 199 188 173 149 79 7 0 0 0 0 0 1 1 1 2 1 2 0 0 0 0 0 0 0 0 0 0 0 0 0 0 0 0 0 0 0 0 0 0 0 0 0 0 0 0 0 0 
0 0 0 0 0 0 0 0 0 0 0 0 0 0 0 7 11 26 103 138 154 170 187 188 165 149 145 142 141 139 132 126 126 123 121 117 114 112 110 103 99 99 102 102 100 101 103 103 103 104 109 107 103 104 102 102 101 101 101 103 103 104 107 107 109 108 109 111 114 118 119 120 121 122 128 135 143 143 144 147 170 195 192 179 162 123 30 1 0 0 0 0 1 1 1 2 1 1 0 0 0 0 0 0 0 0 0 0 0 0 0 0 0 0 0 0 0 0 0 0 0 0 0 0 0 0 0 0 
0 0 0 0 0 0 0 0 0 0 0 0 0 0 2 9 13 74 130 146 162 179 182 171 149 140 139 139 140 136 129 124 122 121 119 112 112 108 103 100 100 101 101 100 99 100 103 103 102 104 109 109 105 108 104 104 103 104 103 102 102 104 105 106 105 107 107 108 111 114 116 120 120 122 125 132 140 139 139 138 149 180 191 183 168 144 69 4 0 0 0 0 1 1 1 2 1 1 0 0 0 0 0 0 0 0 0 0 0 0 0 0 0 0 0 0 0 0 0 0 0 0 0 0 0 0 0 0 
0 0 0 0 0 0 0 0 0 0 0 0 0 0 6 9 40 114 137 152 172 178 169 159 139 134 136 139 139 133 127 122 120 118 114 107 106 104 102 101 100 100 99 98 101 103 105 104 101 104 111 111 107 107 98 99 103 104 103 102 100 101 103 103 104 104 104 105 108 110 111 118 120 118 122 132 139 139 137 132 137 163 182 185 174 154 107 17 0 0 0 0 1 1 1 1 1 1 0 0 0 0 0 0 0 0 0 0 0 0 0 0 0 0 0 0 0 0 0 0 0 0 0 0 0 0 0 0 
0 0 0 0 0 0 0 0 0 0 0 0 0 0 7 15 84 126 144 160 177 165 163 145 133 133 134 138 134 130 121 116 116 116 111 105 106 104 101 100 100 99 101 101 101 103 104 104 105 102 105 110 110 104 97 97 97 103 103 102 100 101 102 103 105 106 106 106 107 109 110 114 121 120 123 129 137 139 134 129 131 154 172 182 176 160 130 39 2 0 0 0 1 1 1 1 1 2 0 0 0 0 0 0 0 0 0 0 0 0 0 0 0 0 0 0 0 0 0 0 0 0 0 0 0 0 0 0 
0 0 0 0 0 0 0 0 0 0 0 0 0 3 7 37 111 134 149 169 171 160 154 135 130 130 133 136 131 124 119 118 116 113 107 107 105 102 100 100 100 100 101 100 100 102 105 106 106 102 100 103 109 99 95 94 97 100 97 100 100 100 100 102 105 107 106 108 109 108 109 111 119 119 121 130 136 136 129 126 125 149 164 181 178 165 140 61 3 0 0 0 1 1 1 2 1 1 0 0 0 0 0 0 0 0 0 0 0 0 0 0 0 0 0 0 0 0 0 0 0 0 0 0 0 0 0 0 
0 0 0 0 0 0 0 0 0 0 0 0 0 4 9 69 123 138 156 173 158 152 144 130 129 127 129 131 125 122 121 119 117 110 105 106 105 103 102 100 100 100 98 99 101 102 102 103 103 99 97 99 106 98 93 92 94 94 94 96 97 101 101 101 105 106 108 109 111 111 109 111 117 117 120 129 135 129 126 124 120 142 158 177 179 166 147 82 6 0 0 0 1 1 1 2 1 2 0 0 0 0 0 0 0 0 0 0 0 0 0 0 0 0 0 0 0 0 0 0 0 0 0 0 0 0 0 0 
0 0 0 0 0 0 0 0 0 0 0 0 0 6 17 95 129 145 164 166 145 144 137 125 124 123 126 126 119 121 122 120 117 108 107 108 107 103 101 102 103 99 97 98 102 101 98 100 101 98 97 98 105 98 95 95 96 97 96 94 94 97 101 105 106 107 110 111 111 112 112 113 116 117 118 126 130 126 123 122 119 135 152 173 179 167 150 99 10 0 0 0 1 1 1 2 1 2 0 0 0 0 0 0 0 0 0 0 0 0 0 0 0 0 0 0 0 0 0 0 0 0 0 0 0 0 0 0 
0 0 0 0 0 0 0 0 0 0 0 0 1 6 33 113 133 152 165 149 135 137 135 124 119 120 120 123 117 119 120 118 116 111 109 108 105 102 103 102 97 96 97 99 100 98 98 100 100 98 97 97 104 97 96 96 96 97 98 99 100 100 100 103 109 109 110 112 113 112 115 115 116 118 119 123 125 124 119 116 117 134 155 170 180 170 154 114 16 0 0 0 1 1 1 2 1 2 0 0 0 0 0 0 0 0 0 0 0 0 0 0 0 0 0 0 0 0 0 0 0 0 0 0 0 0 0 0 
0 0 0 0 0 0 0 0 0 0 0 0 2 6 50 120 138 157 158 139 130 134 135 123 115 116 118 121 116 116 118 117 115 112 108 110 106 103 100 94 94 97 97 95 97 100 98 95 96 96 95 98 98 94 93 91 90 91 95 99 101 102 101 101 106 112 111 115 118 116 115 116 115 117 119 123 119 119 117 113 112 131 152 165 181 174 158 128 26 1 0 0 1 1 1 2 1 2 0 0 0 0 0 0 0 0 0 0 0 0 0 0 0 0 0 0 0 0 0 0 0 0 0 0 0 0 0 0 
0 0 0 0 0 0 0 0 0 0 0 0 2 7 63 125 144 160 151 136 128 134 136 121 112 111 116 119 114 112 117 116 115 113 112 111 107 103 99 93 94 95 94 95 97 98 96 94 94 94 98 102 98 94 92 91 90 92 92 95 98 101 102 101 103 107 110 111 117 118 116 117 117 117 119 122 114 111 115 114 113 132 153 166 181 178 162 138 37 2 0 0 1 1 1 2 1 2 0 0 0 0 0 0 0 0 0 0 0 0 0 0 0 0 0 0 0 0 0 0 0 0 0 0 0 0 0 0 
0 0 0 0 0 0 0 0 0 0 0 0 3 9 73 129 148 158 150 139 130 133 134 122 114 109 115 115 107 110 118 116 116 112 112 113 107 105 107 98 98 95 93 96 95 94 94 94 93 92 97 101 98 94 92 92 90 91 92 93 95 100 101 99 98 106 110 116 122 122 120 118 119 119 119 122 112 108 112 110 113 137 154 166 181 181 167 148 50 2 0 0 1 1 1 2 1 2 0 0 0 0 0 0 0 0 0 0 0 0 0 0 0 0 0 0 0 0 0 0 0 0 0 0 0 0 0 0 
0 0 0 0 0 0 0 0 0 0 0 0 3 11 81 134 154 161 151 142 134 133 135 124 114 109 113 111 105 109 119 117 115 115 113 114 113 110 112 114 111 105 99 98 97 96 95 96 92 94 97 98 99 93 92 92 90 88 92 92 94 99 100 99 104 111 115 121 122 122 124 124 123 121 121 127 114 109 108 108 116 139 152 164 182 182 170 155 62 4 0 0 1 1 1 2 1 1 0 0 0 0 0 0 0 0 0 0 0 0 0 0 0 0 0 0 0 0 0 0 0 0 0 0 0 0 0 0 
0 0 0 0 0 0 0 0 0 0 0 0 4 12 86 138 157 165 153 146 138 136 137 126 117 111 111 109 103 108 122 118 117 118 120 117 110 101 97 97 95 96 102 103 101 97 96 95 95 96 99 98 102 94 92 92 88 86 90 89 93 97 104 108 103 99 96 97 101 104 111 117 128 133 128 131 126 114 109 112 123 138 150 160 180 185 173 158 77 6 0 0 1 1 1 2 1 1 0 0 0 0 0 0 0 0 0 0 0 0 0 0 0 0 0 0 0 0 0 0 0 0 0 0 0 0 0 0 
0 0 0 0 0 0 0 0 0 0 0 0 4 13 89 141 160 166 151 146 143 141 139 129 120 114 110 104 102 113 125 120 123 125 114 106 97 88 82 85 86 85 86 91 98 105 102 96 91 92 97 98 105 99 93 91 87 84 87 87 96 106 102 96 93 90 92 92 92 95 98 101 110 127 139 139 138 124 113 120 128 138 145 154 174 186 176 160 91 7 0 0 1 1 1 2 1 1 0 0 0 0 0 0 0 0 0 0 0 0 0 0 0 0 0 0 0 0 0 0 0 0 0 0 0 0 0 0 
0 0 0 0 0 0 0 0 0 0 0 0 6 14 93 145 163 164 152 146 142 140 141 137 128 120 113 103 104 120 128 125 128 114 99 92 89 85 83 87 86 84 84 85 89 94 101 102 94 94 97 99 104 103 98 94 89 86 86 93 104 93 89 89 91 95 97 96 98 100 100 98 99 112 135 151 146 136 124 126 131 133 139 148 163 185 178 163 104 10 0 0 1 1 1 2 1 1 0 0 0 0 0 0 0 0 0 0 0 0 0 0 0 0 0 0 0 0 0 0 0 0 0 0 0 0 0 0 
0 0 0 0 0 0 0 0 0 0 0 0 7 14 96 148 162 164 150 144 140 137 137 137 134 124 119 112 109 125 134 133 113 96 92 91 89 87 90 93 91 87 84 86 89 93 95 102 96 97 99 102 107 110 108 99 92 88 86 102 95 86 85 86 92 96 98 100 100 102 105 106 107 115 129 152 151 143 135 130 128 129 132 141 153 178 179 165 118 16 0 0 1 1 1 2 1 1 0 0 0 0 0 0 0 0 0 0 0 0 0 0 0 0 0 0 0 0 0 0 0 0 0 0 0 0 0 0 
0 0 0 0 0 0 0 0 0 0 0 0 7 14 97 149 166 166 145 139 137 136 132 130 131 128 122 122 128 130 138 126 100 93 91 89 88 89 90 90 90 89 86 86 88 90 96 99 101 98 104 111 118 115 120 105 97 90 89 103 87 81 80 86 93 97 99 102 103 105 107 107 112 125 131 137 145 142 142 132 125 123 126 133 144 169 179 165 128 24 0 0 1 1 1 2 1 1 0 0 0 0 0 0 0 0 0 0 0 0 0 0 0 0 0 0 0 0 0 0 0 0 0 0 0 0 0 0 
0 0 0 0 0 0 0 0 0 0 0 0 7 15 99 152 167 167 137 133 134 133 130 125 127 129 123 121 132 139 145 125 110 101 98 95 92 90 88 88 87 88 88 87 88 90 96 99 99 99 105 113 123 116 124 109 99 92 96 99 82 77 82 89 95 99 99 100 103 106 108 108 114 120 121 124 132 141 143 132 122 120 123 123 133 161 178 166 135 34 1 0 1 1 1 2 1 1 0 0 0 0 0 0 0 0 0 0 0 0 0 0 0 0 0 0 0 0 0 0 0 0 0 0 0 0 0 0 
0 0 0 0 0 0 0 0 0 0 0 0 8 16 100 152 169 168 134 133 133 130 125 120 120 121 120 122 130 132 136 126 119 111 103 100 98 94 90 88 88 90 89 89 89 90 93 98 96 99 106 115 116 113 118 115 104 99 99 91 79 80 88 93 96 97 97 98 100 102 106 109 111 113 117 119 124 136 140 133 119 114 115 116 122 150 174 166 138 43 2 0 1 1 1 2 1 1 0 0 0 0 0 0 0 0 0 0 0 0 0 0 0 0 0 0 0 0 0 0 0 0 0 0 0 0 0 0 
0 0 0 0 0 0 0 0 0 0 0 0 8 17 103 155 171 166 130 131 130 124 118 112 113 117 118 121 123 123 124 116 110 107 100 97 94 92 90 85 86 87 89 91 91 90 91 95 98 99 105 105 104 109 108 114 109 104 99 85 81 85 89 91 93 94 92 93 97 99 101 104 109 112 115 114 123 135 138 131 115 111 110 113 115 138 169 165 142 51 3 0 1 1 1 2 1 1 0 0 0 0 0 0 0 0 0 0 0 0 0 0 0 0 0 0 0 0 0 0 0 0 0 0 0 0 0 0 
0 0 0 0 0 0 0 0 0 0 0 0 8 17 103 156 172 161 125 125 121 116 109 104 106 112 115 124 121 117 117 113 103 102 95 92 90 90 90 86 84 87 89 90 89 88 90 92 98 102 110 108 102 104 103 113 109 109 104 86 85 86 89 86 84 89 91 91 95 98 101 103 106 109 109 112 122 133 134 131 118 109 106 108 108 126 155 163 144 58 3 0 1 1 1 2 1 1 0 0 0 0 0 0 0 0 0 0 0 0 0 0 0 0 0 0 0 0 0 0 0 0 0 0 0 0 0 0 
0 0 0 0 0 0 0 0 0 0 0 0 8 17 101 156 172 155 118 116 113 109 102 98 100 105 110 123 124 117 114 112 102 98 92 88 88 86 87 84 84 87 87 87 85 86 90 88 89 103 119 122 111 99 100 94 113 107 100 90 90 90 90 80 82 88 90 92 95 97 99 101 103 109 107 111 122 129 129 135 126 109 105 109 109 121 137 153 146 63 3 0 1 1 1 2 1 1 0 0 0 0 0 0 0 0 0 0 0 0 0 0 0 0 0 0 0 0 0 0 0 0 0 0 0 0 0 0 
0 0 0 0 0 0 0 0 0 0 0 0 8 17 99 155 171 146 116 112 107 104 101 99 99 100 112 119 121 117 112 111 104 95 91 90 89 88 89 87 84 84 87 89 87 89 93 87 84 99 115 122 102 91 93 82 101 115 91 94 91 89 84 82 86 89 91 92 94 96 98 98 101 104 105 113 123 131 136 137 129 110 104 106 109 120 133 153 145 64 3 0 1 1 1 2 1 1 0 0 0 0 0 0 0 0 0 0 0 0 0 0 0 0 0 0 0 0 0 0 0 0 0 0 0 0 0 0 
0 0 0 0 0 0 0 0 0 0 0 0 7 17 94 153 168 137 116 109 107 106 102 100 100 102 114 115 118 117 114 111 104 96 92 91 89 89 89 89 87 83 83 85 86 89 92 84 83 100 117 109 86 80 87 78 85 121 87 91 89 85 81 86 89 90 91 92 94 96 97 97 101 103 104 118 132 139 135 134 129 110 104 103 109 118 133 156 140 61 3 0 1 1 1 2 1 1 0 0 0 0 0 0 0 0 0 0 0 0 0 0 0 0 0 0 0 0 0 0 0 0 0 0 0 0 0 0 
0 0 0 0 0 0 0 0 0 0 0 0 6 15 85 151 166 133 113 107 105 105 102 99 99 101 114 114 115 117 119 113 103 100 93 89 90 91 90 89 88 86 80 79 81 85 89 83 87 103 109 91 84 82 88 76 78 112 103 89 86 81 81 89 89 89 91 93 96 96 96 96 101 100 102 118 137 132 128 132 127 108 103 102 107 115 132 155 135 56 2 0 1 1 1 2 1 1 0 0 0 0 0 0 0 0 0 0 0 0 0 0 0 0 0 0 0 0 0 0 0 0 0 0 0 0 0 0 
0 0 0 0 0 0 0 0 0 0 0 0 4 15 79 147 164 135 114 108 103 103 103 98 97 98 111 115 113 115 118 115 103 101 94 94 94 95 93 92 89 86 82 78 79 82 85 76 88 105 106 88 86 88 94 81 76 90 113 92 85 79 81 89 90 92 93 94 94 93 93 96 99 97 101 117 132 126 124 131 126 107 104 102 105 113 134 151 129 50 2 0 1 1 1 2 1 1 0 0 0 0 0 0 0 0 0 0 0 0 0 0 0 0 0 0 0 0 0 0 0 0 0 0 0 0 0 0 
0 0 0 0 0 0 0 0 0 0 0 0 2 14 72 142 161 140 115 107 103 102 102 101 97 94 106 115 115 115 119 115 102 99 95 95 95 95 95 94 90 85 79 78 77 80 80 78 93 107 92 85 85 93 99 86 80 77 108 101 96 86 82 88 91 92 92 91 90 91 92 98 96 95 100 116 125 124 123 128 124 105 104 101 103 112 138 146 120 44 2 0 1 1 1 2 1 1 0 0 0 0 0 0 0 0 0 0 0 0 0 0 0 0 0 0 0 0 0 0 0 0 0 0 0 0 0 0 
0 0 0 0 0 0 0 0 0 6 5 0 0 12 63 135 156 141 117 106 101 100 102 102 97 92 102 114 116 117 120 112 103 98 97 95 94 91 93 93 92 89 83 78 85 95 90 87 95 98 87 83 83 97 99 87 83 80 92 110 111 107 100 95 94 94 96 94 91 92 93 97 93 94 101 115 121 122 127 129 123 105 100 98 100 112 140 139 109 38 2 0 1 1 1 2 1 1 0 0 0 0 0 0 0 0 0 0 0 0 0 0 0 0 0 0 0 0 0 0 0 0 0 0 0 0 0 0 
0 0 0 0 0 0 0 0 0 3 9 3 1 9 52 126 154 140 116 105 98 99 101 102 96 90 103 117 117 116 119 113 103 97 97 96 93 91 91 93 99 98 94 87 90 94 97 91 102 91 87 82 84 94 94 90 88 84 87 117 121 121 110 100 96 93 93 96 93 89 90 93 93 93 101 117 120 121 126 131 128 107 97 97 99 113 141 134 100 33 1 0 0 1 1 2 1 1 0 0 0 0 0 0 0 0 0 0 0 0 0 0 0 0 0 0 0 0 0 0 0 0 0 0 0 0 0 0 
0 0 0 0 0 0 0 0 0 2 4 9 3 7 42 116 148 139 113 103 96 96 102 103 99 91 103 117 118 115 118 115 104 99 98 96 92 92 92 95 99 96 92 93 103 109 104 95 105 83 84 81 83 97 93 85 89 89 95 120 124 115 106 109 110 107 104 99 94 89 88 94 98 103 106 121 126 123 126 134 136 115 97 97 100 119 141 128 92 26 1 0 1 1 1 2 1 1 0 0 0 0 0 0 0 0 0 0 0 0 0 0 0 0 0 0 0 0 0 0 0 0 0 0 0 0 0 0 
0 0 0 0 0 0 0 0 0 0 3 10 4 7 32 102 143 142 113 104 100 99 101 101 100 93 105 116 117 119 124 122 115 103 99 97 93 94 100 102 102 102 102 104 98 98 95 105 108 83 82 82 83 102 93 86 86 84 90 119 133 115 105 106 113 123 135 131 124 120 123 121 126 127 132 136 125 120 128 136 137 126 103 98 107 129 142 120 85 18 1 0 1 8 5 1 1 1 0 0 0 0 0 0 0 0 0 0 0 0 0 0 0 0 0 0 0 0 0 0 0 0 0 0 0 0 0 0 
0 0 0 0 0 0 0 0 0 0 2 10 5 7 25 91 138 147 117 109 105 97 97 101 100 100 108 114 117 119 124 123 125 127 118 111 111 112 116 114 112 106 92 89 99 99 96 104 107 81 82 86 86 102 92 80 82 83 90 123 132 111 106 106 110 123 146 152 145 146 150 147 142 131 131 136 134 127 128 137 137 128 119 110 108 137 135 115 77 12 3 2 5 3 2 2 1 1 0 0 0 0 0 0 0 0 0 0 0 0 0 0 0 0 0 0 0 0 0 0 0 0 0 0 0 0 0 0 
0 0 0 0 0 0 0 0 0 0 1 9 6 8 19 81 130 152 132 112 105 95 94 100 105 112 112 116 119 120 120 121 117 121 124 127 127 119 115 111 110 104 99 99 99 96 94 104 108 88 85 92 89 104 93 79 81 88 99 129 130 114 106 107 111 126 145 149 148 152 147 141 136 127 132 128 139 142 138 136 137 131 126 127 143 141 120 112 67 9 3 2 5 2 1 2 1 1 0 0 0 0 0 0 0 0 0 0 0 0 0 0 0 0 0 0 0 0 0 0 0 0 0 0 0 0 0 0 
0 0 0 0 0 0 0 0 0 0 1 7 7 9 14 68 121 148 148 116 106 96 98 109 117 114 118 123 120 120 124 129 132 129 124 126 124 122 122 118 112 104 96 92 92 92 94 100 110 99 88 88 91 106 95 82 88 96 106 117 119 116 112 112 117 130 144 144 145 145 140 141 146 148 143 146 149 153 159 154 149 147 144 151 162 139 110 107 52 6 3 3 3 2 1 2 1 1 0 0 0 0 0 0 0 0 0 0 0 0 0 0 0 0 0 0 0 0 0 0 0 0 0 0 0 0 0 0 
0 0 0 0 0 0 0 0 0 0 0 7 8 9 13 54 114 144 152 131 113 111 116 118 125 124 124 132 128 121 133 143 148 153 152 141 139 137 127 113 102 95 96 91 87 88 96 110 110 93 94 93 88 107 95 87 89 101 108 110 115 108 113 115 119 134 150 152 154 153 151 153 153 144 132 139 140 148 160 164 170 173 168 175 178 129 120 103 32 7 4 3 2 2 1 2 1 1 0 0 0 0 0 0 0 0 0 0 0 0 0 0 0 0 0 0 0 0 0 0 0 0 0 0 0 0 0 0 
0 0 0 0 0 0 0 0 0 0 0 7 10 8 9 37 108 142 150 146 135 145 135 134 139 139 139 136 130 129 137 151 155 160 155 145 148 144 133 114 107 104 99 93 91 91 106 114 99 89 92 96 95 117 100 87 85 95 104 104 111 111 109 117 118 124 134 142 149 153 149 147 140 131 134 135 139 145 157 167 171 178 183 178 160 121 119 85 16 6 5 3 2 1 1 2 1 1 0 0 0 0 0 0 0 0 0 0 0 0 0 0 0 0 0 0 0 0 0 0 0 0 0 0 0 0 0 0 
0 0 0 0 0 0 0 0 0 0 0 5 10 8 8 12 61 127 147 148 151 169 175 158 157 153 142 138 136 139 151 157 155 154 158 150 144 144 138 118 109 109 108 101 97 94 104 111 102 91 92 101 99 114 117 95 84 88 95 104 107 105 113 116 117 118 121 132 136 135 128 131 132 126 134 143 145 146 150 157 165 168 169 165 145 119 116 93 17 6 7 4 2 2 1 2 1 1 0 0 0 0 0 0 0 0 0 0 0 0 0 0 0 0 0 0 0 0 0 0 0 0 0 0 0 0 0 0 
0 0 0 0 0 0 0 0 0 0 0 6 8 6 6 10 37 115 149 150 155 171 172 170 165 163 158 150 135 129 140 149 158 157 159 155 149 150 136 113 106 109 109 106 101 100 110 108 103 95 95 102 104 119 117 99 84 80 87 97 104 101 101 112 116 117 123 129 133 124 122 122 116 125 137 144 141 141 139 146 154 168 157 139 120 121 118 63 8 4 7 5 2 2 1 2 1 1 0 0 0 0 0 0 0 0 0 0 0 0 0 0 0 0 0 0 0 0 0 0 0 0 0 0 0 0 0 0 
0 0 0 0 0 0 0 0 0 0 0 6 6 5 5 9 22 92 145 147 148 155 158 148 163 165 159 150 141 135 131 136 144 155 158 155 149 143 130 118 108 107 110 111 100 97 110 101 97 100 99 97 92 111 120 107 84 84 92 96 103 110 109 108 102 102 116 127 130 130 131 123 123 139 146 148 143 145 139 139 144 156 135 122 124 125 109 32 6 4 6 5 2 2 1 2 1 1 0 0 0 0 0 0 0 0 0 0 0 0 0 0 0 0 0 0 0 0 0 0 0 0 0 0 0 0 0 0 
0 0 0 0 0 0 0 0 0 0 0 5 4 4 4 8 16 62 134 146 143 137 147 146 140 148 151 144 142 144 134 127 133 139 142 146 144 137 129 122 106 103 103 99 99 103 116 101 105 112 108 102 94 101 119 120 95 92 99 95 105 117 119 123 108 92 94 103 109 116 124 120 123 142 152 156 152 148 141 139 132 136 131 117 118 119 78 16 7 6 6 4 3 2 1 2 1 1 0 0 0 0 0 0 0 0 0 0 0 0 0 0 0 0 0 0 0 0 0 0 0 0 0 0 0 0 0 0 
0 0 0 0 0 0 0 0 0 0 0 4 5 4 4 8 15 34 113 136 133 132 141 146 143 138 134 131 137 149 149 131 120 121 136 142 139 132 126 107 95 92 99 105 103 108 125 109 117 118 116 109 99 99 122 123 106 100 104 105 107 120 124 126 119 96 87 88 97 106 113 125 135 139 146 155 158 154 150 145 142 137 121 100 102 111 43 11 7 7 6 2 3 3 1 2 1 1 0 0 0 0 0 0 0 0 0 0 0 0 0 0 0 0 0 0 0 0 0 0 0 0 0 0 0 0 0 0 
0 0 0 0 0 0 0 0 0 0 1 4 5 4 3 9 15 18 82 123 123 129 136 145 139 137 134 128 132 146 151 138 119 115 131 141 142 138 118 97 86 97 102 108 107 112 122 122 121 120 128 128 114 111 137 132 116 106 113 115 112 126 127 127 121 105 87 85 96 111 117 133 131 129 140 149 157 160 173 162 145 124 107 85 94 86 21 11 6 7 5 2 3 3 1 2 1 1 0 0 0 0 0 0 0 0 0 0 0 0 0 0 0 0 0 0 0 0 0 0 0 0 0 0 0 0 0 0 
0 0 0 0 0 0 0 0 0 0 1 3 4 3 2 6 13 14 47 117 130 123 136 149 149 142 139 137 141 144 147 133 117 116 118 123 121 115 107 97 91 101 103 109 119 124 125 129 132 134 142 144 147 151 152 140 137 138 131 128 127 141 141 135 126 109 93 91 103 121 115 113 125 121 133 147 159 169 179 168 136 114 96 89 102 57 13 13 7 7 5 3 3 3 1 2 1 1 0 0 0 0 0 0 0 0 0 0 0 0 0 0 0 0 0 0 0 0 0 0 0 0 0 0 0 0 0 0 
0 0 0 0 0 0 0 0 0 0 1 3 5 4 2 5 11 14 26 101 124 113 123 133 155 154 153 144 147 146 147 140 129 125 114 117 108 95 91 104 106 111 111 116 128 138 138 140 148 150 150 153 162 170 173 164 157 152 144 142 146 160 164 152 134 123 120 117 120 125 110 112 123 121 123 147 157 175 171 160 127 103 86 86 97 32 11 12 6 6 5 2 2 3 1 2 1 1 0 0 0 0 0 0 0 0 0 0 0 0 0 0 0 0 0 0 0 0 0 0 0 0 0 0 0 0 0 0 
0 0 0 0 0 0 0 0 0 0 1 3 5 3 2 5 11 13 15 68 118 118 111 120 148 161 160 152 147 144 147 145 132 128 121 118 111 103 101 108 134 132 129 129 135 146 151 150 150 142 141 145 145 146 151 154 151 144 136 138 144 160 169 165 150 143 141 136 142 118 104 105 114 118 114 140 155 175 161 146 127 114 95 100 81 19 10 10 6 5 4 2 3 3 2 2 1 0 0 0 0 0 0 0 0 0 0 0 0 0 0 0 0 0 0 0 0 0 0 0 0 0 0 0 0 0 0 0 
0 0 0 0 0 0 0 0 0 0 1 4 5 3 1 5 9 10 12 41 94 113 112 115 134 154 162 161 148 145 142 146 138 127 118 118 118 119 124 129 137 153 155 149 152 152 154 159 151 146 141 146 144 149 146 148 147 148 140 142 145 155 168 167 167 162 153 155 145 112 98 97 105 117 122 139 157 170 151 129 111 102 108 99 66 17 9 9 6 4 4 3 4 3 2 2 1 0 0 0 0 0 0 0 0 0 0 0 0 0 0 0 0 0 0 0 0 0 0 0 0 0 0 0 0 0 0 0 
0 0 0 0 0 0 0 0 0 0 1 5 13 9 3 4 8 9 11 29 81 113 121 109 119 138 158 161 153 139 138 139 134 122 109 110 112 116 122 130 138 155 166 168 163 160 161 159 152 149 147 155 157 157 151 144 147 151 137 139 141 148 158 165 169 163 154 157 146 110 89 95 110 123 143 154 160 164 147 125 97 87 97 97 58 16 8 6 6 4 3 3 4 3 2 2 1 0 0 0 0 0 0 0 0 0 0 0 0 0 0 0 0 0 0 0 0 0 0 0 0 0 0 0 0 0 0 0 
0 0 0 0 0 0 0 0 0 0 0 4 12 13 9 7 8 10 13 21 65 101 117 114 112 117 146 150 163 140 129 128 132 110 101 103 106 112 116 119 129 146 161 165 166 162 166 162 157 156 156 164 163 161 154 134 135 141 130 127 133 144 146 164 171 169 164 161 147 110 93 96 107 120 159 173 175 172 152 107 87 85 98 92 39 16 6 4 6 4 2 3 4 4 3 2 1 0 0 0 0 0 0 0 0 0 0 0 0 0 0 0 0 0 0 0 0 0 0 0 0 0 0 0 0 0 0 0 
0 0 0 0 0 0 0 0 0 0 0 3 10 11 9 8 9 12 16 16 34 85 115 116 103 113 137 152 165 149 139 131 133 110 92 99 105 109 108 109 115 141 160 161 161 158 156 153 153 155 159 170 165 162 142 117 118 127 128 124 130 148 152 163 177 174 167 161 145 117 97 98 110 133 162 164 172 158 142 96 77 79 80 64 20 15 8 6 5 5 5 5 6 5 3 2 1 0 0 0 0 0 0 0 0 0 0 0 0 0 0 0 0 0 0 0 0 0 0 0 0 0 0 0 0 0 0 0 
0 0 0 0 0 0 0 0 0 0 0 2 11 10 9 9 9 9 13 15 17 50 106 109 107 107 124 150 165 165 154 139 129 123 102 93 94 96 98 106 124 145 155 156 155 152 148 145 146 141 153 153 143 160 154 130 124 129 128 123 140 160 152 169 174 174 168 166 161 129 121 119 134 146 147 146 127 107 106 77 66 87 91 36 12 9 10 7 6 6 5 6 12 6 3 2 1 0 0 0 0 0 0 0 0 0 0 0 0 0 0 0 0 0 0 0 0 0 0 0 0 0 0 0 0 0 0 0 
0 0 0 0 0 0 0 0 0 0 0 0 9 10 6 6 6 5 9 15 19 28 71 98 93 91 113 145 152 165 165 148 133 132 119 103 101 105 112 132 136 163 175 169 168 163 159 164 170 169 167 157 159 176 179 164 154 157 157 152 159 164 177 184 173 174 166 173 166 165 145 141 141 139 114 96 90 88 93 76 94 96 53 18 10 2 2 5 5 5 5 6 8 5 1 2 1 0 0 0 0 0 0 0 0 0 0 0 0 0 0 0 0 0 0 0 0 0 0 0 0 0 0 0 0 0 0 0 
0 0 0 0 0 0 0 0 0 0 0 0 3 7 5 3 3 3 5 11 17 21 37 81 86 75 90 103 102 141 147 149 143 140 129 110 113 118 128 139 168 180 186 186 189 195 188 195 188 178 177 179 178 174 174 167 165 172 177 180 184 187 200 200 194 201 185 186 147 137 144 140 108 87 78 84 84 82 85 73 71 47 29 22 13 2 1 1 2 3 4 7 7 1 1 2 0 0 0 0 0 0 0 0 0 0 0 0 0 0 0 0 0 0 0 0 0 0 0 0 0 0 0 0 0 0 0 0 
0 0 0 0 0 0 0 0 0 0 0 0 0 3 3 2 1 0 1 7 14 20 25 45 80 82 65 55 66 77 95 107 132 135 128 123 117 130 146 164 172 173 178 178 184 191 186 182 182 170 162 167 168 165 160 157 156 158 162 168 169 186 195 177 167 186 173 169 156 138 122 104 88 78 74 89 91 88 69 48 41 39 37 26 18 0 1 1 1 1 2 6 7 0 1 2 0 0 0 0 0 0 0 0 0 0 0 0 0 0 0 0 0 0 0 0 0 0 0 0 0 0 0 0 0 0 0 0 
0 0 0 0 0 0 0 0 0 0 0 0 0 2 5 4 4 3 2 4 10 14 19 22 36 51 36 43 67 63 64 61 80 85 81 92 82 74 76 76 91 119 139 145 137 135 135 118 127 103 95 108 116 119 115 110 96 92 107 102 98 113 102 140 130 152 124 83 64 64 58 66 63 55 56 77 83 82 49 29 28 25 19 8 3 1 4 4 2 2 2 8 5 0 1 2 0 0 0 0 0 0 0 0 0 0 0 0 0 0 0 0 0 0 0 0 0 0 0 0 0 0 0 0 0 0 0 0 
0 0 0 0 0 0 0 0 0 0 0 0 0 0 3 3 3 3 2 1 6 10 13 16 22 22 23 33 67 65 60 62 62 64 62 65 70 60 67 69 81 88 83 81 89 94 82 70 76 78 60 74 89 91 90 88 73 61 74 75 83 99 86 79 77 93 91 96 102 100 64 63 62 55 56 75 83 81 47 29 28 25 16 6 3 1 2 2 2 2 3 5 1 0 1 2 0 0 0 0 0 0 0 0 0 0 0 0 0 0 0 0 0 0 0 0 0 0 0 0 0 0 0 0 0 0 0 0 
0 0 0 0 0 0 0 0 0 0 0 0 0 0 0 0 0 1 0 0 3 9 10 15 20 26 27 36 69 74 65 64 67 70 67 66 76 92 120 124 136 138 108 99 101 103 96 99 105 89 75 91 97 97 96 93 87 77 96 107 105 115 101 93 116 139 101 85 104 88 85 86 79 74 73 85 91 83 49 33 29 24 14 9 1 0 0 0 1 1 1 1 0 0 1 1 0 0 0 0 0 0 0 0 0 0 0 0 0 0 0 0 0 0 0 0 0 0 0 0 0 0 0 0 0 0 0 0 
0 0 0 0 0 0 0 0 0 0 0 0 0 0 0 0 0 0 0 0 0 4 4 8 15 29 35 45 76 87 79 74 79 86 85 86 97 121 124 141 156 166 154 134 140 158 159 157 144 122 116 123 122 120 118 124 121 114 121 140 146 152 145 149 156 162 130 130 108 124 120 109 92 83 83 85 84 78 51 38 25 16 9 8 1 0 0 0 0 0 0 0 0 0 0 1 0 0 0 0 0 0 0 0 0 0 0 0 0 0 0 0 0 0 0 0 0 0 0 0 0 0 0 0 0 0 0 0 
0 0 0 0 0 0 0 0 0 0 0 0 0 0 0 0 0 0 0 0 0 2 4 5 9 23 28 38 62 78 72 72 83 91 97 93 100 113 124 113 155 164 168 158 169 172 170 178 158 162 163 157 160 161 161 156 154 152 154 153 153 169 165 159 164 157 149 131 143 145 126 127 98 76 60 71 78 57 31 22 17 10 7 2 0 0 0 0 0 0 0 0 0 0 0 1 0 1 0 0 0 0 0 0 0 0 0 0 0 0 0 0 0 0 0 0 0 0 0 0 0 0 0 0 0 0 0 0 
0 0 0 0 0 0 0 0 0 0 0 0 0 0 0 0 0 0 0 0 0 0 2 3 8 17 28 36 53 76 76 71 74 76 74 70 76 94 108 101 127 128 120 105 124 132 147 165 159 151 142 134 138 135 139 131 135 134 133 131 138 145 126 132 135 122 134 139 148 150 112 70 50 50 59 81 80 46 24 21 13 7 6 1 1 1 1 2 1 1 0 1 1 2 3 3 2 3 0 0 0 0 0 0 0 0 0 0 0 0 0 0 0 0 0 0 0 0 0 0 0 0 0 0 0 0 0 0 
0 0 0 0 0 0 0 0 0 0 0 0 0 0 0 0 0 0 0 0 0 0 4 6 9 15 19 22 32 54 67 66 65 65 57 57 55 70 90 113 110 112 108 94 101 117 132 136 122 121 114 96 107 99 102 92 101 105 106 106 111 128 127 101 117 126 135 118 132 121 97 68 53 55 71 99 86 47 24 17 17 13 7 1 0 0 1 1 1 1 0 0 0 1 1 2 1 0 0 0 0 0 0 0 0 0 0 0 0 0 0 0 0 0 0 0 0 0 0 0 0 0 0 0 0 0 0 0 
0 0 0 0 0 0 0 0 0 0 0 0 0 0 0 0 0 0 0 0 0 0 2 6 9 13 18 21 25 44 62 74 73 69 58 52 53 66 86 100 98 100 100 103 110 123 133 131 117 114 106 87 94 93 95 91 104 110 113 108 104 114 108 92 85 105 122 126 123 106 92 68 54 59 81 107 88 50 24 19 18 12 6 1 0 0 1 1 1 1 0 0 0 1 1 2 1 0 0 0 0 0 0 0 0 0 0 0 0 0 0 0 0 0 0 0 0 0 0 0 0 0 0 0 0 0 0 0 
0 0 0 0 0 0 0 0 0 0 0 0 0 0 0 0 0 0 0 0 0 0 1 4 9 10 16 21 23 39 58 75 77 71 62 53 48 59 74 96 93 85 90 92 101 111 120 129 127 116 110 98 101 100 97 92 104 102 115 119 114 122 119 106 102 97 109 116 107 95 78 60 55 64 89 110 86 51 25 19 16 11 5 0 0 0 1 1 1 1 0 0 0 1 1 2 0 0 0 0 0 0 0 0 0 0 0 0 0 0 0 0 0 0 0 0 0 0 0 0 0 0 0 0 0 0 0 0 
0 0 0 0 0 0 0 0 0 0 0 0 0 0 0 0 0 0 0 0 0 0 0 3 6 9 13 19 22 33 49 70 77 74 67 57 52 56 59 66 72 78 86 92 98 105 112 120 135 127 116 106 104 102 97 95 100 98 107 117 121 141 131 110 103 94 99 107 108 98 80 63 59 66 95 112 81 51 26 18 15 11 4 0 0 0 1 1 1 1 0 0 0 0 1 2 0 0 0 0 0 0 0 0 0 0 0 0 0 0 0 0 0 0 0 0 0 0 0 0 0 0 0 0 0 0 0 0 
0 0 0 0 0 0 0 0 0 0 0 0 0 0 0 0 0 0 0 0 0 0 0 0 5 8 11 16 20 28 45 62 80 78 71 63 57 52 54 59 65 74 86 92 101 103 103 110 125 117 113 105 101 100 93 94 96 98 105 111 119 126 120 106 102 102 97 92 96 95 81 71 65 71 95 108 80 52 26 17 15 9 2 0 0 0 1 1 1 1 1 0 0 1 1 2 0 0 0 0 0 0 0 0 0 0 0 0 0 0 0 0 0 0 0 0 0 0 0 0 0 0 0 0 0 0 0 0 
0 0 0 0 0 0 0 0 0 0 0 0 0 0 0 0 0 0 0 0 0 0 0 0 2 5 9 13 18 25 43 54 79 77 76 70 63 56 53 58 64 69 84 98 106 102 96 94 102 108 112 104 97 97 94 92 95 101 106 105 114 110 108 102 106 107 103 87 77 74 68 68 71 80 97 104 78 45 20 16 15 8 1 0 0 0 0 1 1 1 0 0 0 1 1 2 0 0 0 0 0 0 0 0 0 0 0 0 0 0 0 0 0 0 0 0 0 0 0 0 0 0 0 0 0 0 0 0 
0 0 0 0 0 0 0 0 0 0 0 0 0 0 0 0 0 0 0 0 0 0 0 0 0 4 6 12 15 19 33 52 67 72 78 75 66 60 55 54 60 68 84 94 99 98 95 88 87 96 109 100 92 91 93 96 96 100 98 103 109 106 100 92 95 97 96 85 73 66 61 70 79 85 100 87 48 23 17 16 16 8 1 0 0 0 0 1 1 1 0 0 1 1 2 2 0 0 0 0 0 0 0 0 0 0 0 0 0 0 0 0 0 0 0 0 0 0 0 0 0 0 0 0 0 0 0 0 
0 0 0 0 0 0 0 0 0 0 0 0 0 0 0 0 0 0 0 0 0 0 0 0 0 3 4 8 14 18 21 32 41 45 72 79 70 64 58 51 56 66 78 80 90 93 94 87 85 95 112 105 96 94 97 97 98 98 99 99 102 97 93 88 91 89 85 77 74 64 61 72 81 91 98 43 17 17 17 18 16 8 1 0 0 0 0 1 1 1 1 0 0 1 1 2 0 0 0 0 0 0 0 0 0 0 0 0 0 0 0 0 0 0 0 0 0 0 0 0 0 0 0 0 0 0 0 0 
0 0 0 0 0 0 0 0 0 0 0 0 0 0 0 0 0 0 0 0 0 0 0 0 0 0 5 4 12 17 19 20 18 16 32 76 78 73 65 62 58 60 68 72 78 81 87 88 90 98 101 101 95 90 87 92 103 100 94 93 97 96 97 88 86 83 72 71 71 67 70 80 87 95 71 23 15 15 17 18 14 6 0 0 0 0 0 1 1 1 1 0 0 1 1 2 0 0 0 0 0 0 0 0 0 0 0 0 0 0 0 0 0 0 0 0 0 0 0 0 0 0 0 0 0 0 0 0 
0 0 0 0 0 0 0 0 0 0 0 0 0 0 0 0 0 0 0 0 0 0 0 0 0 0 2 5 8 13 18 18 18 17 14 38 76 80 74 68 66 65 68 72 79 77 81 88 100 102 95 96 98 95 92 93 103 103 93 91 98 99 106 97 91 83 80 79 75 75 81 88 90 77 35 20 14 15 17 17 12 6 1 0 0 0 0 1 1 1 1 0 0 1 1 2 0 0 0 0 0 0 0 0 0 0 0 0 0 0 0 0 0 0 0 0 0 0 0 0 0 0 0 0 0 0 0 0 
0 0 0 0 0 0 0 0 0 0 0 0 0 0 0 0 0 0 0 0 0 0 0 0 0 0 0 3 7 10 16 18 17 18 14 14 37 70 81 80 76 72 74 79 87 88 87 87 95 100 95 98 99 96 95 103 112 110 106 103 104 110 107 96 93 88 86 87 86 89 92 92 74 37 24 17 13 15 17 15 11 6 1 0 0 0 0 1 1 1 1 0 0 1 1 2 0 0 0 0 0 0 0 0 0 0 0 0 0 0 0 0 0 0 0 0 0 0 0 0 0 0 0 0 0 0 0 0 
0 0 0 0 0 0 0 0 0 0 0 0 0 0 0 0 0 0 0 0 0 0 0 0 0 0 0 2 5 7 12 17 18 17 14 14 17 33 62 78 83 85 85 86 99 99 91 89 89 102 101 96 98 97 96 105 109 109 109 106 100 102 105 102 97 98 100 99 95 94 90 71 36 26 23 17 14 16 16 14 10 5 1 0 0 0 0 1 1 1 1 0 0 1 1 2 0 0 0 0 0 0 0 0 0 0 0 0 0 0 0 0 0 0 0 0 0 0 0 0 0 0 0 0 0 0 0 0 
0 0 0 0 0 0 0 0 0 0 0 0 0 0 0 0 0 0 0 0 0 0 0 0 0 0 0 1 4 6 9 15 17 18 16 13 17 22 29 51 73 87 92 96 105 108 100 97 100 108 101 94 94 101 105 109 110 107 113 114 107 103 112 108 106 107 110 107 99 85 60 34 28 26 22 17 15 14 15 13 10 5 1 0 0 0 0 1 1 1 1 0 0 1 1 2 0 0 0 0 0 0 0 0 0 0 0 0 0 0 0 0 0 0 0 0 0 0 0 0 0 0 0 0 0 0 0 0 
0 0 0 0 0 0 0 0 0 0 0 0 0 0 0 0 0 0 0 0 0 0 0 0 0 0 0 0 1 7 7 13 16 18 16 12 13 21 25 29 38 60 81 93 105 111 107 106 105 107 106 100 103 103 100 102 104 108 112 113 112 105 112 115 111 108 109 102 81 49 30 29 27 24 21 16 14 14 14 12 9 5 1 0 0 0 0 1 1 1 1 0 0 1 1 2 0 0 0 0 0 0 0 0 0 0 0 0 0 0 0 0 0 0 0 0 0 0 0 0 0 0 0 0 0 0 0 0 
0 0 0 0 0 0 0 0 0 0 0 0 0 0 0 0 0 0 0 0 0 0 0 0 0 0 0 0 0 7 6 11 14 17 16 13 13 20 25 29 31 33 41 60 84 96 99 99 99 104 110 110 107 101 98 99 100 106 114 107 108 112 116 113 108 99 85 62 43 37 29 28 26 23 18 16 13 15 14 12 9 4 1 0 0 0 0 1 1 1 1 0 0 1 1 2 0 0 0 0 0 0 0 0 0 0 0 0 0 0 0 0 0 0 0 0 0 0 0 0 0 0 0 0 0 0 0 0 
0 0 0 0 0 0 0 0 0 0 0 0 0 0 0 0 0 0 0 0 0 0 0 0 0 0 0 0 0 4 6 9 13 16 16 14 12 19 25 28 31 32 32 37 51 68 80 87 90 93 104 107 104 102 103 104 104 106 115 112 112 105 105 98 89 70 53 47 41 36 28 28 26 23 17 14 15 14 14 12 9 3 1 0 0 0 0 0 1 1 1 0 0 1 1 2 0 0 0 0 0 0 0 0 0 0 0 0 0 0 0 0 0 0 0 0 0 0 0 0 0 0 0 0 0 0 0 0 
