P2
128 99
232
0 0 0 0 0 0 0 0 0 0 0 0 0 0 0 0 0 0 0 0 0 0 0 0 0 0 0 0 0 0 0 1 0 0 0 0 0 0 0 0 0 0 0 0 0 0 0 0 0 0 0 0 0 0 0 0 0 0 0 0 0 0 0 0 0 0 0 0 0 0 0 0 0 0 0 0 0 0 0 0 0 0 0 0 0 0 0 0 0 0 0 0 0 0 0 1 6 4 0 0 0 0 0 0 0 0 0 0 0 0 0 0 0 0 0 0 0 0 0 0 0 0 0 0 0 0 0 0 
0 0 0 0 0 0 0 0 0 0 0 0 0 0 0 0 0 0 0 0 0 0 0 0 0 0 0 0 0 0 0 1 0 0 0 0 0 0 0 0 0 0 0 0 0 0 0 0 0 0 0 0 0 0 0 0 0 0 0 0 0 0 0 0 0 0 0 0 0 0 0 0 0 0 0 0 0 0 0 0 0 0 0 0 0 0 0 0 0 0 0 0 0 0 0 1 5 5 0 0 0 0 0 0 0 0 0 0 0 0 0 0 0 0 0 0 0 0 0 0 0 0 0 0 0 0 0 0 
0 0 0 0 0 0 0 0 0 0 0 0 0 0 0 0 0 0 0 0 0 0 0 0 0 0 0 0 0 0 0 1 0 0 0 0 0 0 0 0 0 0 0 0 0 0 0 0 0 0 0 1 2 3 2 0 0 0 0 0 0 0 0 0 0 0 0 0 0 0 0 0 0 0 0 0 0 0 0 0 0 0 0 0 0 0 0 0 0 0 0 0 0 0 0 1 6 5 0 0 0 0 0 0 0 0 0 0 0 0 0 0 0 0 0 0 0 0 0 0 0 0 0 0 0 0 0 0 
0 0 0 0 0 0 0 0 0 0 0 0 0 0 0 0 0 0 0 0 0 0 0 0 0 0 0 0 0 0 0 1 0 0 0 0 0 0 0 0 0 0 0 1 7 12 14 17 16 16 18 22 26 25 21 19 18 15 16 13 4 0 0 0 0 0 0 0 0 0 0 0 0 0 0 0 0 0 0 0 0 0 0 0 0 0 0 0 0 0 0 0 0 0 0 1 5 5 0 0 0 0 0 0 0 0 0 0 0 0 0 0 0 0 0 0 0 0 0 0 0 0 0 0 0 0 0 0 
0 0 0 0 0 0 0 0 0 0 0 0 0 0 0 0 0 0 0 0 0 0 0 0 0 0 0 0 0 0 0 0 0 0 0 0 0 0 0 0 7 14 17 24 26 34 53 73 92 109 124 135 140 139 135 127 114 97 77 53 32 21 19 8 2 0 0 0 0 0 0 0 0 0 0 0 0 0 0 0 0 0 0 0 0 0 0 0 0 0 0 0 0 0 0 1 5 5 0 0 0 0 0 0 0 0 0 0 0 0 0 0 0 0 0 0 0 0 0 0 0 0 0 0 0 0 0 0 
0 0 0 0 0 0 0 0 0 0 0 0 0 0 0 0 0 0 0 0 0 0 0 0 0 0 0 0 0 0 0 0 0 0 0 0 0 0 11 14 27 25 35 64 101 135 156 166 168 168 169 171 171 173 172 172 169 167 162 150 135 110 77 41 21 17 7 1 0 0 0 0 0 0 0 0 0 0 0 0 0 0 0 0 0 0 0 0 0 0 0 0 0 0 0 1 5 4 0 0 0 0 0 0 0 0 0 0 0 0 0 0 0 0 0 0 0 0 0 0 0 0 0 0 0 0 0 0 
0 0 0 0 0 0 0 0 0 0 0 0 0 0 0 0 0 0 0 0 0 0 0 0 0 0 0 0 0 0 0 0 0 0 0 0 11 20 25 26 53 97 138 163 170 168 169 171 175 179 186 190 194 196 197 196 190 183 177 172 171 166 155 141 112 73 35 19 14 1 0 0 0 0 0 0 0 0 0 0 0 0 0 0 0 0 0 0 0 0 0 0 0 0 0 2 6 4 0 0 0 0 0 0 0 0 0 0 0 0 0 0 0 0 0 0 0 0 0 0 0 0 0 0 0 0 0 0 
0 0 0 0 0 0 0 0 0 0 0 0 0 0 0 0 0 0 0 0 0 0 0 0 0 0 0 0 0 0 0 0 0 0 8 23 26 24 61 114 155 172 171 173 175 176 184 193 191 179 171 173 169 156 156 173 189 200 205 203 193 180 173 173 169 156 136 94 47 22 14 1 0 0 0 0 0 0 0 0 0 0 0 0 0 0 0 0 0 0 0 0 0 0 0 2 6 4 0 0 0 0 0 0 0 0 0 0 0 0 0 0 0 0 0 0 0 0 0 0 0 0 0 0 0 0 0 0 
0 0 0 0 0 0 0 0 0 0 0 0 0 0 0 0 0 0 0 0 0 0 0 0 0 0 0 0 0 0 0 0 3 24 27 22 57 117 159 173 171 173 172 183 191 192 176 150 130 123 128 137 139 130 126 127 139 156 170 177 184 196 202 194 181 173 171 161 142 99 46 26 9 0 0 0 0 0 0 0 0 0 0 0 0 0 0 0 0 0 0 0 0 0 0 2 6 4 0 0 0 0 0 0 0 0 0 0 0 0 0 0 0 0 0 0 0 0 0 0 0 0 0 0 0 0 0 0 
0 0 0 0 0 0 0 0 0 0 0 0 0 0 0 0 0 0 0 0 0 0 0 0 0 0 0 0 0 0 0 22 26 22 38 104 155 173 169 172 173 188 201 188 164 152 144 141 140 143 148 151 147 145 156 156 153 154 165 176 178 176 175 182 198 200 182 172 171 160 137 77 30 19 2 0 0 0 0 0 0 0 0 0 0 0 0 0 0 0 0 0 0 0 0 2 6 4 0 0 0 0 0 0 0 0 0 0 0 0 0 0 0 0 0 0 0 0 0 0 0 0 0 0 0 0 0 0 
0 0 0 0 0 0 0 0 0 0 0 0 0 0 0 0 0 0 0 0 0 0 0 0 0 0 0 0 0 8 27 23 21 77 145 174 169 168 171 187 204 188 155 143 146 149 154 149 145 127 111 116 111 104 113 130 136 142 148 159 174 186 190 185 177 177 187 197 185 174 169 155 114 44 24 5 0 0 0 0 0 0 0 0 0 0 0 0 0 0 0 0 0 0 0 2 6 4 0 0 0 0 0 0 0 0 0 0 0 0 0 0 0 0 0 0 0 0 0 0 0 0 0 0 0 0 0 0 
0 0 0 0 0 0 0 0 0 0 0 0 0 0 0 0 0 0 0 0 0 0 0 0 0 0 0 0 21 22 17 45 124 165 167 163 170 188 203 189 161 147 151 154 150 148 143 141 142 128 122 118 118 125 132 145 142 132 133 142 153 157 170 189 198 193 180 174 185 199 186 175 165 139 64 24 10 0 0 0 0 0 0 0 0 0 0 0 0 0 0 0 0 0 0 2 6 5 0 0 0 0 0 0 0 0 0 0 0 0 0 0 0 0 0 0 0 0 0 0 0 0 0 0 0 0 0 0 
0 0 0 0 0 0 0 0 0 0 0 0 0 0 0 0 0 0 0 0 0 0 0 0 0 0 5 25 15 24 78 143 169 164 166 184 203 191 167 154 157 157 144 136 131 124 128 134 143 145 146 150 149 147 148 150 152 144 139 132 134 145 147 155 169 185 197 196 184 175 187 194 178 169 148 82 25 11 0 0 0 0 0 0 0 0 0 0 0 0 0 0 0 0 0 2 6 6 0 0 0 0 0 0 0 0 0 0 0 0 0 0 0 0 0 0 0 0 0 0 0 0 0 0 0 0 0 0 
0 0 0 0 0 0 0 0 0 0 0 0 0 0 0 0 0 0 0 0 0 0 0 0 0 10 26 16 32 100 151 165 166 178 201 198 174 161 161 157 155 144 136 131 128 139 150 158 156 148 136 136 125 127 131 141 156 165 170 170 169 169 167 152 145 153 166 185 197 193 178 180 197 181 168 152 90 24 13 0 0 0 0 0 0 0 0 0 0 0 0 0 0 0 0 2 6 7 0 0 0 0 0 0 0 0 0 0 0 0 0 0 0 0 0 0 0 0 0 0 0 0 0 0 0 0 0 0 
0 0 0 0 0 0 0 0 0 0 0 0 0 0 0 0 0 0 0 0 0 0 0 0 16 22 14 38 111 152 166 171 188 206 182 161 159 160 160 154 140 139 150 162 165 164 149 137 130 119 114 113 109 111 112 114 126 136 138 138 140 148 173 189 179 159 147 148 162 187 198 185 178 194 183 167 155 98 27 14 0 0 0 0 0 0 0 0 0 0 0 0 0 0 0 2 6 6 0 0 0 0 0 0 0 0 0 0 0 0 0 0 0 0 0 0 0 0 0 0 0 0 0 0 0 0 0 0 
0 0 0 0 0 0 0 0 0 0 0 0 0 0 0 0 0 0 0 0 0 0 4 20 18 13 47 118 154 168 177 193 200 170 156 160 157 158 149 146 160 166 160 146 135 123 112 110 111 107 106 106 101 100 101 102 105 108 111 117 121 123 131 150 176 189 180 156 140 148 173 194 190 177 191 183 166 159 109 32 13 0 0 0 0 0 0 0 0 0 0 0 0 0 0 2 6 6 0 0 0 0 0 0 0 0 0 0 0 0 0 0 0 0 0 0 0 0 0 0 0 0 0 0 0 0 0 0 
0 0 0 0 0 0 0 0 0 0 0 0 0 0 0 0 0 0 0 0 0 5 18 15 13 59 122 150 166 179 196 197 160 149 155 155 156 147 158 164 154 140 128 112 93 91 95 99 99 100 109 104 103 109 109 110 116 118 113 107 102 100 101 115 128 155 174 180 168 145 139 157 183 191 182 193 180 165 162 120 36 10 0 0 0 0 0 0 0 0 0 0 0 0 0 2 6 7 0 0 0 0 0 0 0 0 0 0 0 0 0 0 0 0 0 0 0 0 0 0 0 0 0 0 0 0 0 0 
0 0 0 0 0 0 0 0 0 0 0 0 0 0 0 0 0 0 0 0 7 17 14 15 74 132 148 165 184 196 188 149 141 153 154 149 145 157 146 128 121 116 106 96 94 99 97 103 101 100 105 84 85 110 112 117 127 134 134 134 129 119 110 103 105 114 135 151 174 175 149 138 139 162 182 182 190 177 165 162 122 34 6 0 0 0 0 0 0 0 0 0 0 0 0 2 6 7 0 0 0 0 0 0 0 0 0 0 0 0 0 0 0 0 0 0 0 0 0 0 0 0 0 0 0 0 0 0 
0 0 0 0 0 0 0 0 0 0 0 0 0 0 0 0 0 0 0 6 17 13 17 82 135 151 165 185 199 185 143 143 154 151 143 144 152 134 123 115 113 116 116 115 118 120 117 117 119 119 117 100 108 129 131 131 132 134 137 139 144 143 135 123 105 94 97 118 144 171 173 141 127 137 164 180 183 193 176 165 160 112 26 4 0 0 0 0 0 0 0 0 0 0 0 2 6 6 0 0 0 0 0 0 0 0 0 0 0 0 0 0 0 0 0 0 0 0 0 0 0 0 0 0 0 0 0 0 
0 0 0 0 0 0 0 0 0 0 0 0 0 0 0 0 0 0 5 16 12 18 88 137 150 164 177 192 180 139 142 151 148 141 136 137 127 125 125 126 122 118 119 128 130 132 130 131 127 124 118 115 113 124 131 127 125 127 131 129 129 133 134 137 134 115 97 94 114 142 170 167 139 127 140 155 168 186 193 169 164 156 99 18 1 0 0 0 0 0 0 0 0 0 0 2 6 6 0 0 0 0 0 0 0 0 0 0 0 0 0 0 0 0 0 0 0 0 0 0 0 0 0 0 0 0 0 0 
0 0 0 0 0 0 0 0 0 0 0 0 0 0 0 0 0 1 15 12 16 83 138 146 162 177 185 180 141 140 147 143 136 132 135 128 129 130 129 121 117 120 124 124 128 132 125 117 116 116 110 106 104 109 115 121 123 118 117 112 109 111 115 122 127 133 124 103 97 113 140 169 160 135 129 139 148 161 195 183 163 161 146 77 10 0 0 0 0 0 0 0 0 0 0 2 6 7 0 0 0 0 0 0 0 0 0 0 0 0 0 0 0 0 0 0 0 0 0 0 0 0 0 0 0 0 0 0 
0 0 0 0 0 0 0 0 0 0 0 0 0 0 0 0 0 9 12 12 71 138 140 162 174 181 182 139 137 147 140 138 129 140 134 133 131 126 115 116 118 112 111 118 120 116 105 105 110 114 109 106 105 107 110 109 112 108 105 103 100 98 107 111 114 118 130 128 108 99 114 135 161 149 136 129 142 143 168 203 176 163 159 128 48 5 0 0 0 0 0 0 0 0 0 3 6 8 0 0 0 0 0 0 0 0 0 0 0 0 0 0 0 0 0 0 0 0 0 0 0 0 0 0 0 0 0 0 
0 0 0 0 0 0 0 0 0 0 0 0 0 0 0 0 5 12 11 57 126 134 150 176 179 176 146 135 140 136 133 124 139 143 135 128 118 111 106 104 109 111 111 112 111 109 108 109 117 115 108 109 113 114 115 113 110 107 108 109 108 104 102 104 105 107 113 133 130 111 100 114 136 152 138 137 128 140 135 183 195 170 164 145 108 23 1 0 0 0 0 0 0 0 0 3 7 9 0 0 0 0 0 0 0 0 0 0 0 0 0 0 0 0 0 0 0 0 0 0 0 0 0 0 0 0 0 0 
0 0 0 0 0 0 0 0 0 0 0 0 0 0 0 1 10 12 43 115 135 140 173 174 169 155 134 137 137 129 118 142 150 137 126 119 100 89 96 104 112 116 116 113 113 116 117 118 125 121 117 117 120 119 115 113 114 113 114 113 110 112 110 103 101 104 106 108 127 132 110 106 110 138 145 137 138 132 132 139 194 181 166 161 134 72 7 0 0 0 0 0 0 0 0 3 7 10 0 0 0 0 0 0 0 0 0 0 0 0 0 0 0 0 0 0 0 0 0 0 0 0 0 0 0 0 0 0 
0 0 0 0 0 0 0 0 0 0 0 0 0 0 0 7 10 22 95 135 133 163 177 169 154 142 130 135 130 115 139 156 143 130 114 103 86 95 105 111 114 113 116 117 115 120 117 115 118 120 121 119 118 112 103 103 103 109 110 113 113 112 112 107 106 105 105 105 108 127 126 107 107 114 145 139 143 134 132 117 168 187 174 168 149 115 26 1 0 0 0 0 0 0 0 3 7 8 0 0 0 0 0 0 0 0 0 0 0 0 0 0 0 0 0 0 0 0 0 0 0 0 0 0 0 0 0 0 
0 0 0 0 0 0 0 0 0 0 0 0 0 0 2 7 12 66 125 127 147 177 162 151 151 126 134 137 118 132 161 145 131 116 104 86 91 108 115 116 115 116 114 114 110 115 116 114 111 105 109 107 102 103 88 84 83 89 90 93 106 114 114 114 112 108 103 103 100 107 126 120 105 108 129 143 140 139 136 113 134 175 179 163 157 131 64 2 0 0 0 0 0 0 0 3 7 9 0 0 0 0 0 0 0 0 0 0 0 0 0 0 0 0 0 0 0 0 0 0 0 0 0 0 0 0 0 0 
0 0 0 0 0 0 0 0 0 0 0 0 0 0 5 9 38 103 130 126 167 162 147 146 141 124 138 124 112 162 154 134 117 100 90 90 105 114 118 119 114 109 104 96 99 104 105 105 91 81 95 92 86 84 67 69 69 70 71 74 86 98 110 113 113 109 97 102 104 100 107 123 120 100 104 146 140 134 140 119 117 151 174 164 161 138 105 17 0 0 0 0 0 0 0 3 7 9 0 0 0 0 0 0 0 0 0 0 0 0 0 0 0 0 0 0 0 0 0 0 0 0 0 0 0 0 0 0 
0 0 0 0 0 0 0 0 0 0 0 0 0 0 7 17 77 122 123 148 173 143 145 145 132 132 130 99 141 163 136 116 100 89 90 104 113 116 115 112 102 91 82 76 74 78 80 80 75 65 75 79 80 77 66 64 60 59 58 62 69 82 90 103 115 118 106 100 104 104 97 108 130 114 100 131 143 124 137 131 114 149 163 163 160 145 121 39 1 0 0 0 0 0 0 2 7 10 0 0 0 0 0 0 0 0 0 0 0 0 0 0 0 0 0 0 0 0 0 0 0 0 0 0 0 0 0 0 
0 0 0 0 0 0 0 0 0 0 0 0 0 4 5 42 98 132 125 163 160 138 137 142 123 132 109 106 161 148 120 105 96 86 104 116 116 110 102 95 80 66 64 62 63 66 67 74 78 76 83 92 98 100 97 90 80 70 64 62 63 66 73 82 104 117 110 105 101 105 101 96 120 123 104 119 145 119 122 139 118 151 150 167 159 150 128 58 1 0 0 0 0 0 0 2 7 9 0 0 0 0 0 0 0 0 0 0 0 0 0 0 0 0 0 0 0 0 0 0 0 0 0 0 0 0 0 0 
0 0 0 0 0 0 0 0 0 0 0 0 0 4 9 68 112 127 143 164 145 136 141 144 124 114 93 121 159 130 107 103 94 101 118 124 114 94 83 75 68 60 63 65 73 82 91 101 110 118 125 128 136 132 124 120 117 111 103 96 84 73 65 68 91 109 111 107 106 107 108 97 104 123 114 113 142 107 107 134 120 146 145 170 163 152 132 73 4 0 0 0 0 0 0 3 7 10 0 0 0 0 0 0 0 0 0 0 0 0 0 0 0 0 0 0 0 0 0 0 0 0 0 0 0 0 0 0 
0 0 0 0 0 0 0 0 0 0 0 0 0 4 19 85 123 128 160 158 134 127 146 136 108 96 97 138 149 115 100 101 100 115 123 119 97 78 73 72 70 70 77 90 110 126 134 135 130 121 114 110 130 122 105 99 101 109 123 130 130 115 93 76 78 96 114 112 110 107 108 106 101 117 119 105 129 105 90 129 129 143 138 165 161 152 137 88 8 0 0 0 0 0 0 3 7 10 0 0 0 0 0 0 0 0 0 0 0 0 0 0 0 0 0 0 0 0 0 0 0 0 0 0 0 0 0 0 
0 0 0 0 0 0 0 0 0 0 0 0 1 4 34 98 128 134 166 144 121 130 152 122 90 89 112 147 136 106 97 100 115 123 119 105 83 72 74 75 82 97 117 135 144 140 127 116 105 85 82 84 111 84 83 81 82 81 81 101 124 142 137 114 87 89 109 115 106 103 105 110 110 115 122 110 122 103 84 112 127 137 139 162 166 151 137 104 15 0 0 0 0 0 0 3 7 11 0 0 0 0 0 0 0 0 0 0 0 0 0 0 0 0 0 0 0 0 0 0 0 0 0 0 0 0 0 0 
0 0 0 0 0 0 0 0 0 0 0 0 1 4 47 104 130 146 155 134 114 134 150 104 82 97 125 145 130 103 97 110 122 119 105 94 83 75 74 82 101 128 148 150 131 116 101 85 83 82 81 87 85 79 80 81 82 82 81 83 102 129 149 146 125 107 98 107 102 98 102 105 112 118 128 120 124 100 82 94 122 138 137 158 170 156 141 117 26 1 0 0 0 0 0 3 7 11 0 0 0 0 0 0 0 0 0 0 0 0 0 0 0 0 0 0 0 0 0 0 0 0 0 0 0 0 0 0 
0 0 0 0 0 0 0 0 0 0 0 0 2 6 59 112 130 149 137 130 116 136 142 95 85 108 129 138 128 100 103 118 119 115 102 87 88 81 82 97 124 145 150 141 115 95 81 80 80 81 83 82 78 77 78 79 81 81 81 88 100 117 145 155 145 113 91 93 105 104 101 105 109 118 133 126 127 89 84 90 119 138 135 156 170 164 147 127 37 1 0 0 0 0 0 3 7 11 0 0 0 0 0 0 0 0 0 0 0 0 0 0 0 0 0 0 0 0 0 0 0 0 0 0 0 0 0 0 
0 0 0 0 0 0 0 0 0 0 0 0 2 9 69 119 130 150 133 133 123 137 133 101 94 119 123 128 122 95 113 117 116 108 91 87 94 93 101 119 136 146 148 137 111 87 79 78 77 77 80 79 77 76 76 79 78 81 81 89 96 97 119 132 133 114 93 95 112 112 110 103 103 113 133 138 129 82 84 79 112 147 135 152 166 171 151 134 48 2 0 0 0 0 0 3 7 10 0 0 0 0 0 0 0 0 0 0 0 0 0 0 0 0 0 0 0 0 0 0 0 0 0 0 0 0 0 0 
0 0 0 0 0 0 0 0 0 0 0 0 3 14 76 125 134 160 140 136 129 133 129 106 105 123 114 119 122 98 117 113 109 102 89 90 97 109 129 145 145 131 142 132 115 99 88 81 76 75 77 77 79 77 77 77 78 79 80 90 94 90 100 117 133 113 108 115 112 105 105 105 102 105 131 144 128 85 85 80 112 153 135 150 163 171 155 138 60 4 0 0 0 0 0 3 7 9 0 0 0 0 0 0 0 0 0 0 0 0 0 0 0 0 0 0 0 0 0 0 0 0 0 0 0 0 0 0 
0 0 0 0 0 0 0 0 0 0 0 0 3 17 80 130 140 161 143 137 138 129 122 108 114 124 105 108 123 107 117 110 107 98 93 94 105 121 129 125 112 104 120 124 124 106 94 86 78 78 79 78 82 78 78 83 82 79 82 89 88 98 116 115 106 101 95 94 105 107 98 94 103 118 134 145 137 96 84 83 119 154 132 148 161 174 157 136 71 5 0 0 0 0 0 3 7 9 0 0 0 0 0 0 0 0 0 0 0 0 0 0 0 0 0 0 0 0 0 0 0 0 0 0 0 0 0 0 
0 0 0 0 0 0 0 0 0 0 0 0 3 16 79 128 146 156 140 140 142 129 119 116 121 122 101 99 124 122 118 110 109 96 89 101 104 94 83 79 78 77 75 81 91 113 116 90 83 83 82 76 78 79 81 91 90 84 85 85 96 119 103 93 89 88 91 91 100 110 110 100 106 117 133 136 141 113 86 90 126 154 130 146 158 178 164 142 82 6 0 0 0 0 0 3 7 9 0 0 0 0 0 0 0 0 0 0 0 0 0 0 0 0 0 0 0 0 0 0 0 0 0 0 0 0 0 0 
0 0 0 0 0 0 0 0 0 0 0 0 6 14 81 133 148 149 139 145 140 127 121 130 129 128 104 90 119 135 117 111 108 86 90 91 90 86 87 98 91 78 74 73 77 84 103 110 81 80 82 83 79 78 87 86 85 85 81 88 110 90 98 100 107 112 114 116 123 135 132 123 117 112 112 141 143 132 107 102 136 147 118 138 149 181 166 146 93 9 0 0 0 0 0 3 7 9 0 0 0 0 0 0 0 0 0 0 0 0 0 0 0 0 0 0 0 0 0 0 0 0 0 0 0 0 0 0 
0 0 0 0 0 0 0 0 0 0 0 0 8 13 85 134 150 155 136 146 135 125 114 128 138 130 109 95 109 140 121 116 96 83 104 118 111 109 112 111 111 101 89 87 80 80 82 108 85 74 73 81 80 77 85 74 75 74 78 115 94 98 90 79 84 89 91 95 99 107 114 113 108 113 118 134 144 140 128 115 132 140 108 129 144 174 168 147 107 16 0 0 0 0 0 3 7 9 0 0 0 0 0 0 0 0 0 0 0 0 0 0 0 0 0 0 0 0 0 0 0 0 0 0 0 0 0 0 
0 0 0 0 0 0 0 0 0 0 0 0 8 12 93 135 154 148 130 145 130 123 104 120 140 128 120 106 117 136 132 119 100 101 121 118 104 97 93 90 90 86 85 93 91 75 79 92 106 81 74 78 80 83 90 74 76 75 89 113 98 82 68 75 84 89 91 94 94 103 113 117 120 122 123 123 137 135 133 116 133 134 106 117 141 161 168 145 113 25 0 0 0 0 0 3 7 9 0 0 0 0 0 0 0 0 0 0 0 0 0 0 0 0 0 0 0 0 0 0 0 0 0 0 0 0 0 0 
0 0 0 0 0 0 0 0 0 0 0 0 8 13 97 136 154 158 136 140 129 118 100 118 141 127 119 108 125 136 137 128 121 117 116 99 86 81 76 80 80 77 78 75 84 86 78 91 114 103 92 79 96 108 109 77 75 81 115 111 87 66 72 84 91 101 102 97 95 103 111 113 127 128 117 118 129 132 130 117 133 129 104 108 136 147 166 144 117 35 0 0 0 0 0 3 7 9 0 0 0 0 0 0 0 0 0 0 0 0 0 0 0 0 0 0 0 0 0 0 0 0 0 0 0 0 0 0 
0 0 0 0 0 0 0 0 0 0 0 0 8 13 99 139 155 157 131 134 131 110 93 113 142 129 109 107 124 128 131 114 117 115 107 99 91 86 80 80 79 76 77 76 75 89 86 88 113 114 100 95 105 107 112 101 103 113 126 101 71 72 82 94 98 101 98 94 89 101 114 112 121 127 125 116 121 119 118 116 132 121 97 104 125 136 169 146 121 45 1 0 0 0 0 3 7 9 0 0 0 0 0 0 0 0 0 0 0 0 0 0 0 0 0 0 0 0 0 0 0 0 0 0 0 0 0 0 
0 0 0 0 0 0 0 0 0 0 0 0 9 15 101 139 155 158 127 131 134 100 89 101 139 130 112 115 119 121 124 114 108 112 99 92 95 95 91 84 84 82 77 78 77 77 91 94 114 126 100 83 90 94 91 101 108 127 129 81 71 82 89 90 94 97 97 91 85 99 112 114 124 138 134 118 118 110 113 108 128 119 89 106 117 122 166 148 125 52 2 0 0 0 0 3 7 9 0 0 0 0 0 0 0 0 0 0 0 0 0 0 0 0 0 0 0 0 0 0 0 0 0 0 0 0 0 0 
0 0 0 0 0 0 0 0 0 0 0 0 8 16 97 139 154 160 128 125 125 93 82 91 132 129 108 120 125 121 122 111 88 101 92 80 84 88 91 91 86 87 84 81 78 74 76 86 111 123 106 92 79 80 87 98 92 123 118 80 85 85 80 79 84 96 96 86 78 96 113 114 120 126 126 115 115 102 107 108 133 119 85 103 114 103 152 144 126 57 3 0 0 0 0 3 7 9 0 0 0 0 0 0 0 0 0 0 0 0 0 0 0 0 0 0 0 0 0 0 0 0 0 0 0 0 0 0 
0 0 0 0 0 0 0 0 0 0 0 0 8 16 98 140 149 156 124 112 118 94 72 87 130 125 101 122 127 123 120 97 84 88 84 78 83 85 90 85 79 80 81 85 83 76 74 77 92 95 97 104 100 101 110 103 96 105 114 87 85 79 79 78 85 94 93 81 78 93 111 111 114 127 125 112 111 97 101 112 142 117 83 106 112 95 138 138 127 61 2 0 0 0 0 2 7 8 0 0 0 0 0 0 0 0 0 0 0 0 0 0 0 0 0 0 0 0 0 0 0 0 0 0 0 0 0 0 
0 0 0 0 0 0 0 0 0 0 0 0 8 16 96 138 147 152 122 93 119 93 68 88 125 109 98 115 126 124 121 90 83 86 86 83 83 81 86 87 79 74 76 76 71 78 83 77 87 86 97 109 93 84 86 66 83 100 89 89 89 88 81 84 88 94 90 77 76 94 106 106 110 127 123 112 111 106 115 115 148 116 82 102 106 96 136 136 126 61 2 0 0 0 0 2 7 8 0 0 0 0 0 0 0 0 0 0 0 0 0 0 0 0 0 0 0 0 0 0 0 0 0 0 0 0 0 0 
0 0 0 0 0 0 0 0 0 0 0 0 7 16 91 138 144 141 114 86 121 100 69 89 124 110 98 110 124 125 122 92 74 86 90 83 81 81 82 87 83 78 74 71 72 72 80 71 77 76 97 106 86 76 82 71 74 105 76 97 94 89 78 82 88 93 87 74 74 97 111 107 112 126 116 110 123 128 119 118 150 115 85 103 101 99 132 136 122 57 2 0 0 0 0 2 7 7 0 0 0 0 0 0 0 0 0 0 0 0 0 0 0 0 0 0 0 0 0 0 0 0 0 0 0 0 0 0 
0 0 0 0 0 0 0 0 0 0 0 0 5 15 82 137 144 133 110 83 116 105 69 83 110 101 97 110 123 122 126 99 62 83 92 87 87 86 80 83 83 80 73 73 83 82 85 73 75 89 95 78 72 69 74 74 77 95 92 84 86 81 75 80 85 90 86 74 77 97 112 116 121 121 107 108 131 125 125 128 144 109 85 103 92 99 130 141 121 52 2 0 0 0 0 2 7 7 0 0 0 0 0 0 0 0 0 0 0 0 0 0 0 0 0 0 0 0 0 0 0 0 0 0 0 0 0 0 
0 0 0 0 0 0 0 0 0 0 0 0 4 15 76 137 145 138 121 85 107 111 71 77 101 92 97 111 116 117 123 106 68 80 95 99 92 90 88 86 84 81 75 74 74 72 74 74 90 91 75 70 69 71 81 68 68 77 96 85 79 78 77 82 86 92 85 76 73 88 108 118 126 110 100 92 116 127 130 136 135 98 90 106 80 100 127 140 111 45 1 0 0 0 0 2 6 7 0 0 0 0 0 0 0 0 0 0 0 0 0 0 0 0 0 0 0 0 0 0 0 0 0 0 0 0 0 0 
0 0 0 0 0 0 0 0 0 0 0 0 2 15 70 136 145 138 129 85 98 112 75 79 101 87 95 115 117 115 126 111 73 79 102 104 98 92 90 88 84 79 76 73 66 70 74 75 98 82 64 69 64 75 85 70 71 70 89 83 87 83 77 80 89 95 87 72 65 83 108 125 122 102 91 75 100 124 126 137 123 92 99 104 72 104 126 135 105 41 2 0 0 0 0 2 7 6 0 0 0 0 0 0 0 0 0 0 0 0 0 0 0 0 0 0 0 0 0 0 0 0 0 0 0 0 0 0 
0 0 0 0 0 0 0 0 0 8 6 0 1 13 60 131 146 133 129 91 88 116 82 75 101 90 91 118 119 122 127 116 82 79 96 103 103 89 90 89 87 83 74 76 81 81 78 87 103 68 66 65 69 78 83 68 71 67 82 94 90 88 81 85 91 92 83 67 66 89 109 128 116 98 85 73 104 117 119 137 114 90 104 95 71 118 126 127 99 34 1 0 0 0 0 2 6 8 0 0 0 0 0 0 0 0 0 0 0 0 0 0 0 0 0 0 0 0 0 0 0 0 0 0 0 0 0 0 
0 0 0 0 0 0 0 0 0 5 11 3 1 10 47 127 144 125 120 102 79 112 96 74 96 95 86 116 118 125 132 119 85 75 88 103 107 95 87 87 88 83 75 70 78 77 81 88 90 65 72 71 69 76 85 75 69 67 72 109 94 96 87 77 82 83 74 66 67 87 106 122 111 100 81 89 114 112 119 148 117 102 106 82 75 123 126 115 92 30 1 0 0 0 0 2 6 8 0 0 0 0 0 0 0 0 0 0 0 0 0 0 0 0 0 0 0 0 0 0 0 0 0 0 0 0 0 0 
0 0 0 0 0 0 0 0 0 0 2 10 1 6 33 117 134 120 106 113 79 98 107 86 93 97 86 112 113 114 120 117 97 79 88 98 100 88 87 87 83 82 74 73 87 104 106 102 87 61 69 66 66 77 83 67 68 67 67 102 122 99 93 106 101 94 76 61 68 97 101 109 115 105 82 108 115 107 121 144 115 112 105 70 94 124 127 106 86 23 0 0 0 0 0 2 6 7 0 0 0 0 0 0 0 0 0 0 0 0 0 0 0 0 0 0 0 0 0 0 0 0 0 0 0 0 0 0 
0 0 0 0 0 0 0 0 0 0 0 11 7 6 24 102 129 130 94 118 82 88 116 94 91 102 93 110 109 101 125 143 126 89 86 91 84 88 95 85 85 79 78 92 101 81 76 99 86 56 62 63 64 89 80 66 71 75 68 98 128 102 97 92 94 105 98 85 91 113 124 126 137 134 134 149 125 111 129 139 110 131 102 75 121 132 137 104 81 15 0 0 0 9 7 2 6 7 0 0 0 0 0 0 0 0 0 0 0 0 0 0 0 0 0 0 0 0 0 0 0 0 0 0 0 0 0 0 
0 0 0 0 0 0 0 0 0 0 0 9 13 7 18 94 122 134 92 115 104 80 106 102 84 102 98 107 110 96 132 138 133 121 102 92 83 86 94 83 87 85 75 88 86 76 84 90 81 64 53 64 67 82 75 62 66 66 76 117 131 92 92 102 99 115 142 155 146 145 152 151 155 137 137 150 145 123 134 131 121 135 125 110 115 132 132 105 74 8 0 0 6 4 1 2 7 7 0 0 0 0 0 0 0 0 0 0 0 0 0 0 0 0 0 0 0 0 0 0 0 0 0 0 0 0 0 0 
0 0 0 0 0 0 0 0 0 0 1 5 9 8 16 82 112 138 118 104 119 80 94 112 97 100 103 109 114 102 133 128 104 97 96 105 109 113 112 115 116 127 128 120 86 67 75 91 89 70 57 73 70 89 76 66 72 76 93 110 119 107 104 101 100 127 163 185 188 183 165 156 145 128 144 163 162 150 152 128 127 122 125 140 135 120 109 113 65 6 2 2 1 0 0 2 7 7 0 0 0 0 0 0 0 0 0 0 0 0 0 0 0 0 0 0 0 0 0 0 0 0 0 0 0 0 0 0 
0 0 0 0 0 0 0 0 0 0 1 2 6 9 13 70 107 131 135 99 126 91 85 134 127 95 120 112 120 117 141 145 130 117 107 107 110 121 105 95 104 117 112 106 100 71 70 81 77 80 59 69 72 92 80 72 81 84 98 119 104 103 109 113 113 121 149 180 183 162 139 135 144 138 166 188 174 167 169 144 148 132 131 167 140 124 91 116 52 5 4 5 0 0 0 2 7 8 0 0 0 0 0 0 0 0 0 0 0 0 0 0 0 0 0 0 0 0 0 0 0 0 0 0 0 0 0 0 
0 0 0 0 0 0 0 0 0 0 0 3 7 7 11 59 109 132 147 111 125 110 95 134 132 105 132 124 118 123 154 162 146 152 162 152 157 153 125 104 105 92 88 98 99 75 73 98 91 78 68 71 75 90 77 93 91 92 100 121 117 99 106 98 93 115 150 160 164 141 151 143 135 146 165 182 174 174 178 154 158 153 154 179 155 125 97 114 35 7 4 4 1 0 0 2 7 7 0 0 0 0 0 0 0 0 0 0 0 0 0 0 0 0 0 0 0 0 0 0 0 0 0 0 0 0 0 0 
0 0 0 0 0 0 0 0 0 0 0 3 9 6 7 39 103 128 146 136 132 135 122 142 135 126 153 133 104 114 158 165 155 166 175 150 160 171 154 129 123 96 85 93 108 86 90 112 92 90 91 71 76 103 108 96 92 100 104 107 113 101 97 91 95 127 136 134 147 159 157 137 123 144 166 166 166 180 192 170 157 152 181 184 149 120 100 99 17 6 1 2 2 0 0 2 6 6 0 0 0 0 0 0 0 0 0 0 0 0 0 0 0 0 0 0 0 0 0 0 0 0 0 0 0 0 0 0 
0 0 0 0 0 0 0 0 0 0 0 1 13 7 7 11 60 105 135 130 154 156 151 140 138 121 139 133 110 98 151 172 150 157 167 161 158 170 165 136 130 112 111 93 105 108 96 107 101 99 104 106 98 110 112 100 82 91 106 114 110 102 95 92 88 101 127 132 137 136 138 126 123 132 158 170 163 156 172 176 156 148 167 173 137 119 82 97 23 2 5 2 2 0 0 1 6 5 0 0 0 0 0 0 0 0 0 0 0 0 0 0 0 0 0 0 0 0 0 0 0 0 0 0 0 0 0 0 
0 0 0 0 0 0 0 0 0 0 0 4 12 7 8 10 34 96 130 141 149 168 149 164 171 162 172 153 105 101 128 150 147 156 186 175 163 173 140 86 88 103 99 98 96 97 109 115 108 91 107 120 92 107 100 82 75 82 86 79 84 84 72 88 100 114 122 133 133 126 129 138 144 154 156 170 167 153 163 145 141 153 151 141 124 99 92 74 13 5 8 5 2 0 0 1 6 4 0 0 0 0 0 0 0 0 0 0 0 0 0 0 0 0 0 0 0 0 0 0 0 0 0 0 0 0 0 0 
0 0 0 0 0 0 0 0 0 0 0 5 11 8 6 10 22 86 125 134 131 143 148 133 173 164 147 146 137 109 99 120 143 157 161 169 169 165 124 79 65 72 79 84 78 78 95 98 92 89 110 110 91 106 111 90 70 75 87 61 63 105 90 91 122 127 125 132 130 118 126 136 155 159 153 161 163 166 161 121 123 136 147 144 141 94 98 37 6 1 7 11 1 0 0 1 6 4 0 0 0 0 0 0 0 0 0 0 0 0 0 0 0 0 0 0 0 0 0 0 0 0 0 0 0 0 0 0 
0 0 0 0 0 0 0 0 0 0 0 1 6 4 5 11 22 65 108 125 130 131 151 146 141 156 146 144 150 132 109 110 131 139 130 142 163 149 120 111 87 73 70 71 66 73 87 92 117 123 109 106 104 112 126 123 74 78 87 62 88 125 122 112 127 127 120 111 93 85 118 134 146 159 148 136 142 168 158 131 125 140 131 110 109 108 86 20 6 2 4 12 5 0 0 1 6 4 0 0 0 0 0 0 0 0 0 0 0 0 0 0 0 0 0 0 0 0 0 0 0 0 0 0 0 0 0 0 
0 0 0 0 0 0 0 0 0 0 0 0 3 1 4 12 17 31 101 127 123 135 138 135 138 139 144 138 121 133 140 114 109 110 129 143 157 158 136 132 121 101 110 104 96 95 109 112 135 111 93 97 105 107 119 119 96 98 102 96 118 142 121 123 126 117 103 85 74 83 104 137 144 154 131 123 132 158 165 145 140 141 120 84 82 110 47 20 12 9 8 5 5 0 0 1 6 4 0 0 0 0 0 0 0 0 0 0 0 0 0 0 0 0 0 0 0 0 0 0 0 0 0 0 0 0 0 0 
0 0 0 0 0 0 0 0 0 0 0 0 2 1 3 6 12 15 76 106 117 124 119 117 123 134 134 130 125 134 162 163 135 114 132 145 162 168 145 118 107 110 125 118 104 112 101 106 112 102 110 101 95 95 111 103 90 106 128 121 121 141 126 126 127 108 77 68 81 92 97 139 157 146 133 129 137 154 170 143 143 132 107 71 59 89 17 14 14 14 8 2 0 0 0 1 5 4 0 0 0 0 0 0 0 0 0 0 0 0 0 0 0 0 0 0 0 0 0 0 0 0 0 0 0 0 0 0 
0 0 0 0 0 0 0 0 0 0 0 0 2 2 1 2 9 8 46 83 106 112 104 119 140 139 114 152 158 151 162 160 120 109 104 115 122 119 118 123 126 120 112 111 120 121 101 124 133 119 118 117 131 131 127 115 119 137 139 125 135 161 151 148 120 82 71 78 97 102 104 125 143 136 143 140 137 158 170 146 120 105 97 57 76 58 10 12 10 14 10 1 0 0 0 1 5 3 0 0 0 0 0 0 0 0 0 0 0 0 0 0 0 0 0 0 0 0 0 0 0 0 0 0 0 0 0 0 
0 0 0 0 0 0 0 0 0 0 0 0 3 3 0 1 6 10 25 96 106 126 114 109 140 144 129 148 161 156 156 160 138 118 92 98 90 75 76 104 124 130 107 117 145 140 130 145 153 141 140 155 164 161 168 159 162 165 161 139 142 173 177 153 117 91 104 116 117 122 107 100 124 143 150 142 126 153 138 136 98 89 83 56 94 29 11 11 3 10 13 1 0 0 0 0 5 3 0 0 0 0 0 0 0 0 0 0 0 0 0 0 0 0 0 0 0 0 0 0 0 0 0 0 0 0 0 0 
0 0 0 0 0 0 0 0 0 0 0 0 4 2 0 1 7 8 10 68 85 109 106 98 129 159 155 155 155 160 170 166 121 110 123 115 89 78 77 89 111 136 142 138 140 130 141 139 149 143 155 151 147 162 160 144 138 147 135 115 123 163 163 147 125 128 136 155 153 125 101 97 118 130 135 141 115 139 122 122 106 111 90 63 81 15 6 6 0 4 10 1 0 0 0 0 5 2 0 0 0 0 0 0 0 0 0 0 0 0 0 0 0 0 0 0 0 0 0 0 0 0 0 0 0 0 0 0 
0 0 0 0 0 0 0 0 0 0 0 0 4 2 0 2 8 5 8 40 63 85 98 103 107 147 152 176 144 133 159 169 124 100 103 114 117 104 103 106 103 127 145 131 133 119 136 145 135 150 152 136 138 179 172 146 157 173 133 109 113 128 150 164 163 149 133 143 139 113 101 96 109 107 116 124 137 151 120 106 104 86 88 65 64 13 3 7 0 0 3 1 0 0 0 0 5 2 0 0 0 0 0 0 0 0 0 0 0 0 0 0 0 0 0 0 0 0 0 0 0 0 0 0 0 0 0 0 
0 0 0 0 0 0 0 0 0 0 0 9 11 5 0 4 9 6 7 29 60 92 100 95 121 125 147 174 150 120 140 154 125 118 102 96 97 109 126 140 144 151 159 158 142 132 139 140 145 159 154 158 147 163 163 151 169 185 147 144 162 154 155 163 159 137 127 144 141 103 78 76 99 109 123 138 157 155 134 116 93 65 103 82 71 13 1 2 5 0 3 3 0 0 0 0 5 1 0 0 0 0 0 0 0 0 0 0 0 0 0 0 0 0 0 0 0 0 0 0 0 0 0 0 0 0 0 0 
0 0 0 0 0 0 0 0 0 0 0 6 10 16 16 15 12 9 7 19 66 73 91 96 128 120 128 163 167 147 105 103 107 97 93 99 100 100 102 105 121 135 151 157 153 150 146 153 159 154 158 177 159 161 155 131 154 188 154 148 168 157 144 178 174 148 137 139 115 74 82 97 95 110 153 162 157 151 145 107 82 83 102 83 55 13 1 0 6 3 2 3 0 0 0 0 4 1 0 0 0 0 0 0 0 0 0 0 0 0 0 0 0 0 0 0 0 0 0 0 0 0 0 0 0 0 0 0 
0 0 0 0 0 0 0 0 0 0 0 2 10 13 17 9 8 12 17 15 38 72 94 128 115 105 138 163 173 162 147 108 108 88 71 77 73 77 95 99 107 137 160 144 146 152 134 149 170 153 157 194 181 172 143 106 122 159 162 163 172 164 178 158 208 158 136 137 114 95 94 89 92 125 165 166 163 147 140 88 65 72 62 63 24 13 7 7 9 14 8 3 2 0 0 0 4 1 0 0 0 0 0 0 0 0 0 0 0 0 0 0 0 0 0 0 0 0 0 0 0 0 0 0 0 0 0 0 
0 0 0 0 0 0 0 0 0 0 0 3 12 10 8 9 9 10 16 16 18 51 103 120 121 115 122 150 170 166 154 128 103 104 83 73 74 75 76 87 107 132 160 147 120 127 123 132 167 163 158 175 159 154 148 129 122 126 134 142 150 162 175 198 190 162 144 162 150 113 114 122 143 152 158 139 116 121 97 74 61 73 80 42 14 8 9 7 7 10 8 9 13 9 4 0 4 0 0 0 0 0 0 0 0 0 0 0 0 0 0 0 0 0 0 0 0 0 0 0 0 0 0 0 0 0 0 0 
0 0 0 0 0 0 0 0 0 0 0 0 12 11 3 5 7 7 11 18 18 28 74 124 120 92 100 126 140 136 145 132 122 117 113 107 106 104 107 123 132 159 199 193 149 126 126 151 185 183 159 146 138 146 154 141 134 127 123 134 153 165 198 204 204 167 147 153 133 110 112 124 126 129 100 87 92 114 95 72 90 100 59 11 9 1 1 3 4 1 5 8 7 8 1 0 4 0 0 0 0 0 0 0 0 0 0 0 0 0 0 0 0 0 0 0 0 0 0 0 0 0 0 0 0 0 0 0 
0 0 0 0 0 0 0 0 0 0 0 0 4 8 2 0 2 3 3 6 17 20 35 92 103 75 83 109 103 114 126 121 125 141 142 124 120 119 141 149 159 186 191 162 170 163 154 170 185 200 170 157 152 150 155 156 157 145 135 140 168 217 232 202 179 177 151 137 113 118 134 100 45 58 66 67 63 94 92 78 68 61 37 20 8 2 0 0 2 2 1 3 5 1 0 0 3 0 0 0 0 0 0 0 0 0 0 0 0 0 0 0 0 0 0 0 0 0 0 0 0 0 0 0 0 0 0 0 
0 0 0 0 0 0 0 0 0 0 0 0 0 2 2 0 0 1 1 5 8 22 27 38 65 73 56 38 65 69 131 112 138 149 141 128 110 130 167 195 186 178 191 152 170 205 173 148 165 152 142 133 129 125 146 162 159 169 164 143 136 170 214 186 128 171 165 136 112 104 109 96 79 62 68 79 65 91 75 57 36 38 33 25 13 0 0 1 0 0 0 5 8 0 0 0 3 0 0 0 0 0 0 0 0 0 0 0 0 0 0 0 0 0 0 0 0 0 0 0 0 0 0 0 0 0 0 0 
0 0 0 0 0 0 0 0 0 0 0 0 0 1 3 4 3 0 6 7 11 13 21 21 34 49 36 39 79 42 86 59 56 66 87 119 89 73 70 78 92 127 166 156 134 140 96 105 171 107 95 89 93 107 115 113 101 104 101 109 95 103 108 156 123 162 122 111 80 75 62 67 51 40 46 85 55 80 42 28 28 28 20 8 4 0 0 0 1 1 2 11 6 0 0 0 3 0 0 0 0 0 0 0 0 0 0 0 0 0 0 0 0 0 0 0 0 0 0 0 0 0 0 0 0 0 0 0 
0 0 0 0 0 0 0 0 0 0 0 0 0 0 2 3 3 1 0 3 8 12 11 16 20 24 21 29 86 49 83 57 40 48 62 81 62 53 48 35 45 73 102 94 77 85 92 93 86 83 68 62 87 102 107 94 79 81 79 98 99 104 85 77 78 91 118 100 106 136 77 70 53 36 40 84 59 83 36 26 27 26 15 7 3 0 1 1 2 2 2 3 0 0 0 0 3 0 0 0 0 0 0 0 0 0 0 0 0 0 0 0 0 0 0 0 0 0 0 0 0 0 0 0 0 0 0 0 
0 0 0 0 0 0 0 0 0 0 0 0 0 0 0 0 1 0 0 0 7 12 9 12 20 23 28 33 86 69 89 68 56 59 68 81 69 69 92 121 141 102 112 103 111 114 126 147 132 115 107 105 114 122 127 124 110 105 108 119 102 109 94 83 105 128 106 103 77 64 74 52 51 56 61 92 67 75 34 28 24 20 8 6 1 0 0 0 1 1 0 0 0 0 0 0 3 2 0 0 0 0 0 0 0 0 0 0 0 0 0 0 0 0 0 0 0 0 0 0 0 0 0 0 0 0 0 0 
0 0 0 0 0 0 0 0 0 0 0 0 0 0 0 0 0 0 0 0 0 2 3 6 12 26 34 37 82 83 93 94 93 112 105 90 89 86 92 131 162 158 137 126 150 177 185 168 167 156 156 159 170 169 166 170 129 154 152 177 161 148 136 138 114 125 155 132 68 98 178 99 77 86 74 71 66 61 41 25 17 10 6 2 0 0 0 0 0 0 0 0 0 0 0 0 3 2 0 0 0 0 0 0 0 0 0 0 0 0 0 0 0 0 0 0 0 0 0 0 0 0 0 0 0 0 0 0 
0 0 0 0 0 0 0 0 0 0 0 0 0 0 0 0 0 0 0 0 0 0 4 11 13 18 20 24 61 85 77 79 84 108 105 74 74 67 93 97 140 166 166 146 157 173 169 184 153 144 170 149 174 194 201 188 179 176 189 190 163 160 172 162 169 134 117 110 146 130 149 137 114 95 76 78 69 42 20 6 6 13 3 1 0 0 0 0 0 0 0 0 0 0 0 0 2 5 0 0 0 0 0 0 0 0 0 0 0 0 0 0 0 0 0 0 0 0 0 0 0 0 0 0 0 0 0 0 
0 0 0 0 0 0 0 0 0 0 0 0 0 0 0 0 0 0 0 0 0 2 3 8 7 15 35 38 65 96 86 90 78 112 142 93 55 55 92 91 125 137 127 109 127 140 147 167 167 152 135 124 160 169 182 170 164 158 152 148 131 125 110 118 94 103 129 161 164 143 101 97 71 93 92 91 77 25 7 7 13 3 1 1 0 0 0 0 0 0 0 0 0 0 2 3 10 18 0 0 0 0 0 0 0 0 0 0 0 0 0 0 0 0 0 0 0 0 0 0 0 0 0 0 0 0 0 0 
0 0 0 0 0 0 0 0 0 0 0 0 0 0 0 0 0 0 0 0 0 0 7 10 4 14 25 21 31 79 69 75 54 68 95 74 64 63 70 77 84 104 104 94 108 117 78 105 114 109 114 89 115 116 110 99 95 87 79 102 129 144 136 107 138 116 122 125 141 135 111 101 78 99 105 97 86 44 20 16 22 13 7 1 0 0 0 0 0 0 0 0 0 0 0 0 5 2 0 0 0 0 0 0 0 0 0 0 0 0 0 0 0 0 0 0 0 0 0 0 0 0 0 0 0 0 0 0 
0 0 0 0 0 0 0 0 0 0 0 0 0 0 0 0 0 0 0 0 0 0 3 8 9 10 21 22 22 65 65 74 53 69 89 47 42 59 80 84 87 114 95 80 91 87 97 123 108 94 91 81 75 91 111 107 103 111 105 92 113 111 106 103 106 112 115 128 132 108 87 72 66 83 124 113 85 38 22 19 19 11 8 1 0 0 0 0 0 0 0 0 0 0 0 0 4 0 0 0 0 0 0 0 0 0 0 0 0 0 0 0 0 0 0 0 0 0 0 0 0 0 0 0 0 0 0 0 
0 0 0 0 0 0 0 0 0 0 0 0 0 0 0 0 0 0 0 0 0 0 0 7 10 8 18 22 22 55 61 78 62 72 92 32 20 38 68 104 111 117 105 90 89 76 102 136 116 84 91 98 89 108 119 93 95 96 107 121 123 106 101 107 114 105 95 115 95 73 52 37 48 61 122 118 85 47 22 19 16 10 8 0 0 0 0 0 0 0 0 0 0 0 0 0 3 0 0 0 0 0 0 0 0 0 0 0 0 0 0 0 0 0 0 0 0 0 0 0 0 0 0 0 0 0 0 0 
0 0 0 0 0 0 0 0 0 0 0 0 0 0 0 0 0 0 0 0 0 0 0 4 9 9 14 20 23 47 48 66 72 73 96 29 20 32 53 75 89 105 94 105 96 68 76 125 129 75 84 104 117 120 111 97 94 101 104 118 121 126 132 130 114 106 91 101 99 85 53 29 44 57 110 120 73 60 26 18 12 10 6 0 0 0 0 0 0 0 0 0 0 0 0 0 3 0 0 0 0 0 0 0 0 0 0 0 0 0 0 0 0 0 0 0 0 0 0 0 0 0 0 0 0 0 0 0 
0 0 0 0 0 0 0 0 0 0 0 0 0 0 0 0 0 0 0 0 0 0 0 0 7 9 10 18 22 37 42 54 78 73 100 38 26 44 60 68 78 70 84 91 89 62 56 97 137 96 100 113 106 99 98 108 97 102 96 97 111 120 126 111 103 100 96 74 86 92 75 49 41 63 101 111 64 57 31 17 12 10 4 0 0 0 0 0 0 0 0 0 0 0 0 0 2 0 0 0 0 0 0 0 0 0 0 0 0 0 0 0 0 0 0 0 0 0 0 0 0 0 0 0 0 0 0 0 
0 0 0 0 0 0 0 0 0 0 0 0 0 0 0 0 0 0 0 0 0 0 0 0 2 6 11 14 18 30 51 66 75 71 100 42 38 57 59 78 56 48 95 106 110 70 50 62 122 125 115 100 83 79 87 100 89 91 89 80 103 115 104 82 93 109 110 80 50 66 75 72 54 67 104 103 74 48 23 15 13 8 2 0 0 0 0 0 0 0 0 0 0 0 0 0 2 0 0 0 0 0 0 0 0 0 0 0 0 0 0 0 0 0 0 0 0 0 0 0 0 0 0 0 0 0 0 0 
0 0 0 0 0 0 0 0 0 0 0 0 0 0 0 0 0 0 0 0 0 0 0 0 0 5 7 11 15 19 39 57 53 65 89 38 46 64 63 64 42 51 101 115 103 69 51 64 116 121 114 89 70 65 73 85 89 85 86 89 103 134 103 55 55 80 108 78 45 51 69 75 69 65 117 87 49 29 16 12 14 10 2 0 0 0 0 0 0 0 0 0 0 0 0 0 2 0 0 0 0 0 0 0 0 0 0 0 0 0 0 0 0 0 0 0 0 0 0 0 0 0 0 0 0 0 0 0 
0 0 0 0 0 0 0 0 0 0 0 0 0 0 0 0 0 0 0 0 0 0 0 0 0 6 3 7 16 15 18 22 32 34 64 40 45 73 79 60 41 49 79 104 95 68 63 73 118 126 108 97 83 78 86 103 106 94 81 84 109 134 104 64 55 70 92 61 46 48 79 91 68 54 101 50 20 19 16 13 14 9 1 0 0 0 0 0 0 0 0 0 0 0 0 0 2 0 0 0 0 0 0 0 0 0 0 0 0 0 0 0 0 0 0 0 0 0 0 0 0 0 0 0 0 0 0 0 
0 0 0 0 0 0 0 0 0 0 0 0 0 0 0 0 0 0 0 0 0 0 0 0 0 0 6 2 11 17 18 18 14 11 36 67 67 107 103 54 39 44 74 112 81 66 63 69 119 133 91 81 88 85 79 94 121 94 65 66 101 123 113 74 60 61 73 85 53 42 74 126 108 79 88 27 15 16 15 14 13 7 1 0 0 0 0 0 0 0 0 0 0 0 0 0 1 0 0 0 0 0 0 0 0 0 0 0 0 0 0 0 0 0 0 0 0 0 0 0 0 0 0 0 0 0 0 0 
0 0 0 0 0 0 0 0 0 0 0 0 0 0 0 0 0 0 0 0 0 0 0 0 0 0 1 3 6 15 17 19 16 12 11 41 70 106 87 41 38 45 80 119 85 76 75 86 131 125 89 75 79 79 83 96 105 98 65 75 116 140 133 101 84 67 92 113 59 44 55 107 105 73 42 15 15 14 14 14 10 6 0 0 0 0 0 0 0 0 0 0 0 0 0 0 1 0 0 0 0 0 0 0 0 0 0 0 0 0 0 0 0 0 0 0 0 0 0 0 0 0 0 0 0 0 0 0 
0 0 0 0 0 0 0 0 0 0 0 0 0 0 0 0 0 0 0 0 0 0 0 0 0 0 0 4 4 13 15 19 19 14 11 8 15 44 63 45 40 47 98 125 87 83 78 85 114 111 76 61 62 67 75 99 108 89 82 79 98 129 146 111 78 62 99 134 89 53 54 72 48 28 21 9 14 12 14 11 8 5 0 0 0 0 0 0 0 0 0 0 0 0 0 0 1 0 0 0 0 0 0 0 0 0 0 0 0 0 0 0 0 0 0 0 0 0 0 0 0 0 0 0 0 0 0 0 
0 0 0 0 0 0 0 0 0 0 0 0 0 0 0 0 0 0 0 0 0 0 0 0 0 0 0 4 3 6 13 17 19 18 12 10 11 23 56 63 54 69 110 127 97 72 71 98 120 112 78 64 71 87 84 92 86 87 83 95 91 101 121 117 84 65 104 140 106 70 71 59 29 26 21 11 14 12 13 12 9 5 0 0 0 0 0 0 0 0 0 0 0 0 0 0 1 0 0 0 0 0 0 0 0 0 0 0 0 0 0 0 0 0 0 0 0 0 0 0 0 0 0 0 0 0 0 0 
0 0 0 0 0 0 0 0 0 0 0 0 0 0 0 0 0 0 0 0 0 0 0 0 0 0 0 3 5 5 7 14 17 18 15 9 13 19 33 58 70 77 100 123 107 82 87 112 128 113 79 67 73 95 93 93 86 86 86 98 111 109 114 117 99 92 124 138 97 77 60 31 25 28 21 13 14 14 13 12 9 5 0 0 0 0 0 0 0 0 0 0 0 0 0 0 1 0 0 0 0 0 0 0 0 0 0 0 0 0 0 0 0 0 0 0 0 0 0 0 0 0 0 0 0 0 0 0 
0 0 0 0 0 0 0 0 0 0 0 0 0 0 0 0 0 0 0 0 0 0 0 0 0 0 0 0 3 5 7 10 15 15 16 9 12 19 23 31 38 44 54 99 117 103 102 110 107 98 86 71 87 101 86 93 94 92 85 103 105 93 105 104 100 110 137 115 57 43 27 24 25 27 17 13 15 16 13 12 10 4 0 0 0 0 0 0 0 0 0 0 0 0 0 0 1 0 0 0 0 0 0 0 0 0 0 0 0 0 0 0 0 0 0 0 0 0 0 0 0 0 0 0 0 0 0 0 
0 0 0 0 0 0 0 0 0 0 0 0 0 0 0 0 0 0 0 0 0 0 0 0 0 0 0 0 0 6 7 7 12 14 14 13 11 21 26 31 30 31 32 52 105 116 100 91 76 89 91 85 101 105 102 111 111 110 101 97 92 85 95 92 103 128 122 67 40 37 26 24 27 25 14 15 15 14 13 12 10 3 0 0 0 0 0 0 0 0 0 0 0 0 0 0 1 0 0 0 0 0 0 0 0 0 0 0 0 0 0 0 0 0 0 0 0 0 0 0 0 0 0 0 0 0 0 0 
0 0 0 0 0 0 0 0 0 0 0 0 0 0 0 0 0 0 0 0 0 0 0 0 0 0 0 0 0 1 8 6 11 13 13 13 10 20 27 31 28 30 30 34 51 89 98 75 62 81 93 93 108 120 126 122 124 121 121 116 106 86 81 61 80 83 56 39 36 36 27 24 28 23 13 16 15 15 13 12 10 2 0 0 0 0 0 0 0 0 0 0 0 0 0 0 1 0 0 0 0 0 0 0 0 0 0 0 0 0 0 0 0 0 0 0 0 0 0 0 0 0 0 0 0 0 0 0 
