P2
128 99
218
0 0 0 0 0 0 0 0 0 0 0 0 0 0 0 0 0 0 0 0 0 0 0 0 0 0 0 0 0 0 0 0 0 0 0 0 0 0 0 0 0 0 0 0 0 0 0 0 0 0 0 0 0 0 0 0 0 0 0 0 0 0 0 0 0 0 0 0 0 0 0 0 0 0 0 0 0 0 0 0 0 0 0 0 0 0 0 0 0 0 0 0 0 0 0 0 0 0 0 0 0 0 0 0 0 0 0 0 0 0 0 0 0 0 0 0 0 0 0 0 0 0 0 0 0 0 0 0 
0 0 0 0 0 0 0 0 0 0 0 0 0 0 0 0 0 0 0 0 0 0 0 0 0 0 0 0 0 0 0 0 0 0 0 0 0 0 0 0 0 0 0 0 0 0 0 0 0 0 0 0 0 0 0 0 0 0 0 0 0 0 0 0 0 0 0 0 0 0 0 0 0 0 0 0 0 0 0 0 0 0 0 0 0 0 0 0 0 0 0 0 0 0 0 0 0 0 0 0 0 0 0 0 0 0 0 0 0 0 0 0 0 0 0 0 0 0 0 0 0 0 0 0 0 0 0 0 
0 0 0 0 0 0 0 0 0 0 0 0 0 0 0 0 0 0 0 0 0 0 0 0 0 0 0 0 0 0 0 0 0 0 0 0 0 0 0 0 0 0 0 0 0 0 0 0 0 0 0 0 0 0 0 0 0 0 0 0 0 0 0 0 0 0 0 0 0 0 0 0 0 0 0 0 0 0 0 0 0 0 0 0 0 0 0 0 0 0 0 0 0 0 0 0 0 0 0 0 0 0 0 0 0 0 0 0 0 0 0 0 0 0 0 0 0 0 0 0 0 0 0 0 0 0 0 0 
0 0 0 0 0 0 0 0 0 0 0 0 0 0 0 0 0 0 0 0 0 0 0 0 0 0 0 0 0 0 0 0 0 0 0 0 0 0 0 0 0 0 0 0 0 7 17 18 18 19 22 25 28 27 25 21 18 16 14 12 3 0 0 0 0 0 0 0 0 0 0 0 0 0 0 0 0 0 0 0 0 0 0 0 0 0 0 0 0 0 0 0 0 0 0 0 0 0 0 0 0 0 0 0 0 0 0 0 0 0 0 0 0 0 0 0 0 0 0 0 0 0 0 0 0 0 0 0 
0 0 0 0 0 0 0 0 0 0 0 0 0 0 0 0 0 0 0 0 0 0 0 0 0 0 0 0 0 0 0 0 0 0 0 0 0 0 0 0 0 8 19 23 24 33 54 78 102 124 141 153 158 159 155 144 127 106 80 54 33 22 17 10 2 0 0 0 0 0 0 0 0 0 0 0 0 0 0 0 0 0 0 0 0 0 0 0 0 0 0 0 0 0 0 0 0 0 0 0 0 0 0 0 0 0 0 0 0 0 0 0 0 0 0 0 0 0 0 0 0 0 0 0 0 0 0 0 
0 0 0 0 0 0 0 0 0 0 0 0 0 0 0 0 0 0 0 0 0 0 0 0 0 0 0 0 0 0 0 0 0 0 0 0 0 0 0 17 24 25 36 68 113 154 177 188 193 196 198 196 194 194 195 195 195 192 186 176 155 121 80 44 23 16 10 0 0 0 0 0 0 0 0 0 0 0 0 0 0 0 0 0 0 0 0 0 0 0 0 0 0 0 0 0 0 0 0 0 0 0 0 0 0 0 0 0 0 0 0 0 0 0 0 0 0 0 0 0 0 0 0 0 0 0 0 0 
0 0 0 0 0 0 0 0 0 0 0 0 0 0 0 0 0 0 0 0 0 0 0 0 0 0 0 0 0 0 0 0 0 0 0 0 0 22 24 26 52 105 156 184 195 197 198 198 201 203 205 206 206 205 206 205 204 202 199 196 195 191 181 161 125 78 39 18 13 2 0 0 0 0 0 0 0 0 0 0 0 0 0 0 0 0 0 0 0 0 0 0 0 0 0 0 0 0 0 0 0 0 0 0 0 0 0 0 0 0 0 0 0 0 0 0 0 0 0 0 0 0 0 0 0 0 0 0 
0 0 0 0 0 0 0 0 0 0 0 0 0 0 0 0 0 0 0 0 0 0 0 0 0 0 0 0 0 0 0 0 0 0 0 24 25 26 63 128 174 192 197 198 200 204 202 195 189 185 188 195 193 180 178 191 205 211 210 205 202 198 197 196 192 179 153 103 49 23 14 1 0 0 0 0 0 0 0 0 0 0 0 0 0 0 0 0 0 0 0 0 0 0 0 0 0 0 0 0 0 0 0 0 0 0 0 0 0 0 0 0 0 0 0 0 0 0 0 0 0 0 0 0 0 0 0 0 
0 0 0 0 0 0 0 0 0 0 0 0 0 0 0 0 0 0 0 0 0 0 0 0 0 0 0 0 0 0 0 0 0 27 25 23 59 132 178 191 193 196 200 204 201 192 183 171 162 159 160 161 159 151 153 158 167 186 206 214 212 208 204 200 197 196 195 187 162 105 46 23 10 0 0 0 0 0 0 0 0 0 0 0 0 0 0 0 0 0 0 0 0 0 0 0 0 0 0 0 0 0 0 0 0 0 0 0 0 0 0 0 0 0 0 0 0 0 0 0 0 0 0 0 0 0 0 0 
0 0 0 0 0 0 0 0 0 0 0 0 0 0 0 0 0 0 0 0 0 0 0 0 0 0 0 0 0 0 0 14 26 22 41 115 175 189 190 194 199 204 200 185 170 165 158 147 142 140 144 151 152 148 152 154 156 159 172 191 210 216 211 211 206 202 198 197 196 187 153 81 31 19 0 0 0 0 0 0 0 0 0 0 0 0 0 0 0 0 0 0 0 0 0 0 0 0 0 0 0 0 0 0 0 0 0 0 0 0 0 0 0 0 0 0 0 0 0 0 0 0 0 0 0 0 0 0 
0 0 0 0 0 0 0 0 0 0 0 0 0 0 0 0 0 0 0 0 0 0 0 0 0 0 0 0 0 0 28 22 25 85 163 187 191 193 198 203 206 195 175 170 165 157 150 143 139 135 138 143 142 141 146 150 151 149 153 161 177 198 211 217 216 212 207 203 199 198 197 181 123 46 22 6 0 0 0 0 0 0 0 0 0 0 0 0 0 0 0 0 0 0 0 0 0 0 0 0 0 0 0 0 0 0 0 0 0 0 0 0 0 0 0 0 0 0 0 0 0 0 0 0 0 0 0 0 
0 0 0 0 0 0 0 0 0 0 0 0 0 0 0 0 0 0 0 0 0 0 0 0 0 0 0 0 0 25 18 48 136 183 187 193 199 203 207 202 186 176 169 163 159 155 152 147 145 142 136 138 136 135 145 152 151 151 152 156 162 174 190 203 214 218 216 211 207 204 201 199 191 156 69 24 9 0 0 0 0 0 0 0 0 0 0 0 0 0 0 0 0 0 0 0 0 0 0 0 0 0 0 0 0 0 0 0 0 0 0 0 0 0 0 0 0 0 0 0 0 0 0 0 0 0 0 0 
0 0 0 0 0 0 0 0 0 0 0 0 0 0 0 0 0 0 0 0 0 0 0 0 0 0 0 0 21 19 78 163 185 191 197 204 208 208 195 181 175 170 163 160 155 153 153 149 150 142 133 131 129 129 140 149 149 150 153 154 157 167 177 185 195 206 215 218 216 210 205 202 198 191 167 87 25 9 0 0 0 0 0 0 0 0 0 0 0 0 0 0 0 0 0 0 0 0 0 0 0 0 0 0 0 0 0 0 0 0 0 0 0 0 0 0 0 0 0 0 0 0 0 0 0 0 0 0 
0 0 0 0 0 0 0 0 0 0 0 0 0 0 0 0 0 0 0 0 0 0 0 0 0 0 0 18 26 103 173 185 196 203 207 211 204 188 179 172 169 164 159 155 152 152 153 152 143 137 127 126 123 125 130 141 152 154 156 157 157 159 166 173 180 186 195 206 214 217 214 208 201 195 191 173 97 27 9 0 0 0 0 0 0 0 0 0 0 0 0 0 0 0 0 0 0 0 0 0 0 0 0 0 0 0 0 0 0 0 0 0 0 0 0 0 0 0 0 0 0 0 0 0 0 0 0 0 
0 0 0 0 0 0 0 0 0 0 0 0 0 0 0 0 0 0 0 0 0 0 0 0 0 0 16 34 121 175 186 198 206 211 207 195 182 176 173 168 165 161 160 156 151 149 141 134 133 128 124 123 121 124 126 126 136 148 152 151 152 153 158 163 167 173 178 183 191 203 213 215 210 203 195 192 177 108 30 0 0 0 0 0 0 0 0 0 0 0 0 0 0 0 0 0 0 0 0 0 0 0 0 0 0 0 0 0 0 0 0 0 0 0 0 0 0 0 0 0 0 0 0 0 0 0 0 0 
0 0 0 0 0 0 0 0 0 0 0 0 0 0 0 0 0 0 0 0 0 0 0 0 0 15 45 133 172 187 200 207 210 199 184 176 173 172 169 165 161 155 150 142 138 130 125 125 122 122 122 120 118 124 126 126 125 129 138 147 148 147 149 155 161 164 167 169 173 180 191 205 212 210 203 195 192 179 120 36 0 0 0 0 0 0 0 0 0 0 0 0 0 0 0 0 0 0 0 0 0 0 0 0 0 0 0 0 0 0 0 0 0 0 0 0 0 0 0 0 0 0 0 0 0 0 0 0 
0 0 0 0 0 0 0 0 0 0 0 0 0 0 0 0 0 0 0 0 0 0 0 0 16 58 142 171 189 201 209 207 189 177 171 170 167 166 164 159 154 146 141 138 129 123 122 119 122 121 122 117 116 122 124 125 125 126 127 130 133 135 139 145 151 154 157 162 166 169 172 179 195 208 209 203 198 193 178 129 39 0 0 0 0 0 0 0 0 0 0 0 0 0 0 0 0 0 0 0 0 0 0 0 0 0 0 0 0 0 0 0 0 0 0 0 0 0 0 0 0 0 0 0 0 0 0 0 
0 0 0 0 0 0 0 0 0 0 0 0 0 0 0 0 0 0 0 0 0 0 0 18 72 152 172 189 204 210 202 178 168 168 168 163 157 153 151 148 146 142 136 127 123 122 118 120 122 120 118 112 111 121 122 123 125 125 125 127 129 131 133 137 141 143 146 149 153 158 160 165 171 187 201 207 203 198 191 179 134 27 0 0 0 0 0 0 0 0 0 0 0 0 0 0 0 0 0 0 0 0 0 0 0 0 0 0 0 0 0 0 0 0 0 0 0 0 0 0 0 0 0 0 0 0 0 0 
0 0 0 0 0 0 0 0 0 0 0 0 0 0 0 0 0 0 0 0 0 0 20 80 155 172 187 202 209 198 172 163 164 162 158 152 147 146 141 136 131 128 125 122 122 120 117 119 119 115 116 108 110 120 120 122 124 124 123 124 126 127 127 130 130 131 135 142 148 149 148 151 158 165 180 197 206 204 199 189 177 125 21 0 0 0 0 0 0 0 0 0 0 0 0 0 0 0 0 0 0 0 0 0 0 0 0 0 0 0 0 0 0 0 0 0 0 0 0 0 0 0 0 0 0 0 0 0 
0 0 0 0 0 0 0 0 0 0 0 0 0 0 0 0 0 0 0 0 0 12 85 156 170 183 198 206 192 169 162 160 157 156 149 141 137 135 131 127 126 122 122 123 118 115 115 117 114 114 111 106 109 120 121 120 122 122 123 123 123 123 122 122 125 125 129 134 142 147 146 145 148 153 162 174 192 206 205 196 185 172 110 0 0 0 0 0 0 0 0 0 0 0 0 0 0 0 0 0 0 0 0 0 0 0 0 0 0 0 0 0 0 0 0 0 0 0 0 0 0 0 0 0 0 0 0 0 
0 0 0 0 0 0 0 0 0 0 0 0 0 0 0 0 0 0 0 0 12 82 152 166 179 195 206 189 167 160 157 153 150 147 139 132 130 129 125 125 121 119 118 115 113 113 113 112 114 110 103 104 107 116 118 119 120 120 119 122 123 121 120 119 119 121 124 131 136 137 142 142 144 147 153 160 169 188 207 202 193 180 162 57 0 0 0 0 0 0 0 0 0 0 0 0 0 0 0 0 0 0 0 0 0 0 0 0 0 0 0 0 0 0 0 0 0 0 0 0 0 0 0 0 0 0 0 0 
0 0 0 0 0 0 0 0 0 0 0 0 0 0 0 0 0 0 0 0 74 145 161 174 190 203 188 165 159 155 150 147 145 140 129 127 127 125 123 121 116 114 112 113 113 112 109 109 101 102 101 104 106 110 114 115 117 116 117 119 120 117 117 116 114 116 121 126 131 133 132 134 135 139 146 152 159 165 190 206 201 190 174 146 0 0 0 0 0 0 0 0 0 0 0 0 0 0 0 0 0 0 0 0 0 0 0 0 0 0 0 0 0 0 0 0 0 0 0 0 0 0 0 0 0 0 0 0 
0 0 0 0 0 0 0 0 0 0 0 0 0 0 0 0 0 0 0 61 137 154 169 186 200 189 162 156 152 147 144 141 134 129 126 125 125 125 121 116 113 112 112 112 110 107 107 106 103 100 101 104 106 109 109 108 111 111 110 109 111 113 97 112 111 110 113 123 125 129 129 129 130 133 137 144 150 155 161 192 206 198 184 165 70 0 0 0 0 0 0 0 0 0 0 0 0 0 0 0 0 0 0 0 0 0 0 0 0 0 0 0 0 0 0 0 0 0 0 0 0 0 0 0 0 0 0 0 
0 0 0 0 0 0 0 0 0 0 0 0 0 0 0 0 0 0 34 126 150 164 180 195 191 163 153 149 146 145 138 132 129 129 127 125 122 118 114 112 108 103 101 100 102 103 103 105 105 104 108 107 105 108 106 104 106 106 106 107 107 110 110 109 109 110 111 112 121 124 124 124 124 130 134 139 149 149 150 164 197 203 192 176 152 0 0 0 0 0 0 0 0 0 0 0 0 0 0 0 0 0 0 0 0 0 0 0 0 0 0 0 0 0 0 0 0 0 0 0 0 0 0 0 0 0 0 0 
0 0 0 0 0 0 0 0 0 0 0 0 0 0 0 0 0 0 105 141 156 173 190 191 167 152 147 144 144 142 134 128 128 125 123 118 116 113 110 104 100 99 102 103 101 102 104 104 105 105 110 108 104 105 103 103 103 103 103 106 106 105 108 108 109 110 111 112 115 119 120 121 122 124 130 137 145 146 146 149 173 198 196 183 165 71 0 0 0 0 0 0 0 0 0 0 0 0 0 0 0 0 0 0 0 0 0 0 0 0 0 0 0 0 0 0 0 0 0 0 0 0 0 0 0 0 0 0 
0 0 0 0 0 0 0 0 0 0 0 0 0 0 0 0 0 50 133 148 164 182 186 175 152 142 141 141 142 138 131 126 123 123 121 114 113 109 105 101 101 102 103 102 101 101 104 103 103 104 110 110 105 108 104 104 103 104 103 103 103 106 106 107 106 108 108 109 111 115 117 122 122 123 127 134 142 142 142 141 151 183 195 187 172 78 0 0 0 0 0 0 0 0 0 0 0 0 0 0 0 0 0 0 0 0 0 0 0 0 0 0 0 0 0 0 0 0 0 0 0 0 0 0 0 0 0 0 
0 0 0 0 0 0 0 0 0 0 0 0 0 0 0 0 0 63 139 155 175 181 171 162 141 136 139 141 141 135 129 123 122 119 116 108 107 106 104 101 101 101 101 100 102 104 105 105 102 104 112 113 109 108 99 100 104 104 103 102 100 103 105 105 105 105 105 107 109 112 113 119 122 120 124 134 142 141 139 134 139 165 186 189 177 157 0 0 0 0 0 0 0 0 0 0 0 0 0 0 0 0 0 0 0 0 0 0 0 0 0 0 0 0 0 0 0 0 0 0 0 0 0 0 0 0 0 0 
0 0 0 0 0 0 0 0 0 0 0 0 0 0 0 0 0 129 147 163 180 167 165 147 135 135 137 140 136 132 122 118 117 117 113 106 107 106 102 101 100 100 101 102 101 104 105 105 106 103 106 111 111 105 97 97 98 104 104 103 100 101 102 104 106 108 107 107 108 111 112 115 122 122 125 131 139 141 136 131 133 157 175 185 180 164 73 0 0 0 0 0 0 0 0 0 0 0 0 0 0 0 0 0 0 0 0 0 0 0 0 0 0 0 0 0 0 0 0 0 0 0 0 0 0 0 0 0 
0 0 0 0 0 0 0 0 0 0 0 0 0 0 0 0 0 137 152 172 174 163 157 137 132 132 134 138 133 125 121 120 117 115 109 108 107 103 101 100 100 100 100 101 101 104 106 107 106 102 100 104 110 100 95 94 98 101 98 101 102 102 101 102 106 108 108 110 110 110 110 113 120 121 122 132 138 138 131 128 127 151 167 184 181 168 76 0 0 0 0 0 0 0 0 0 0 0 0 0 0 0 0 0 0 0 0 0 0 0 0 0 0 0 0 0 0 0 0 0 0 0 0 0 0 0 0 0 
0 0 0 0 0 0 0 0 0 0 0 0 0 0 0 0 65 141 158 176 160 155 146 131 131 129 131 133 127 124 123 120 119 112 106 107 106 103 102 101 101 101 100 101 103 104 103 104 104 101 99 101 107 100 95 95 96 96 95 96 98 102 102 103 106 107 109 111 113 112 110 113 118 119 121 132 137 131 128 125 121 144 161 180 183 169 150 0 0 0 0 0 0 0 0 0 0 0 0 0 0 0 0 0 0 0 0 0 0 0 0 0 0 0 0 0 0 0 0 0 0 0 0 0 0 0 0 0 
0 0 0 0 0 0 0 0 0 0 0 0 0 0 0 0 131 147 167 168 147 146 139 127 126 125 128 128 121 123 123 121 118 110 109 109 107 104 102 103 104 100 99 99 104 102 100 102 103 100 98 99 106 99 96 96 96 97 98 97 96 98 102 106 107 108 111 112 113 114 113 114 117 119 120 128 132 128 124 124 121 137 155 176 183 170 153 0 0 0 0 0 0 0 0 0 0 0 0 0 0 0 0 0 0 0 0 0 0 0 0 0 0 0 0 0 0 0 0 0 0 0 0 0 0 0 0 0 
0 0 0 0 0 0 0 0 0 0 0 0 0 0 0 0 136 155 168 151 137 140 136 126 121 121 122 125 119 120 122 120 118 113 110 110 106 103 104 103 79 79 79 89 101 100 99 100 101 99 98 98 105 98 97 96 97 98 98 100 101 102 101 105 110 110 112 114 114 114 115 97 118 119 121 125 126 126 121 118 119 136 158 173 183 173 157 70 0 0 0 0 0 0 0 0 0 0 0 0 0 0 0 0 0 0 0 0 0 0 0 0 0 0 0 0 0 0 0 0 0 0 0 0 0 0 0 0 
0 0 0 0 0 0 0 0 0 0 0 0 0 0 0 0 140 160 160 141 132 136 137 124 117 117 120 122 118 117 120 118 116 113 109 112 107 104 101 76 76 77 78 78 98 100 99 97 99 98 98 100 100 98 96 94 94 95 97 100 101 103 92 81 108 113 112 117 119 117 116 117 117 119 120 125 121 120 118 115 114 133 155 167 184 177 161 74 0 0 0 0 0 0 0 0 0 0 0 0 0 0 0 0 0 0 0 0 0 0 0 0 0 0 0 0 0 0 0 0 0 0 0 0 0 0 0 0 
0 0 0 0 0 0 0 0 0 0 0 0 0 0 0 66 147 163 154 138 130 135 138 122 114 112 117 121 115 113 119 118 116 115 113 112 109 106 89 74 75 77 78 78 79 98 97 96 96 96 101 103 100 96 94 92 91 94 95 97 100 101 82 83 84 84 112 114 119 119 118 118 118 119 120 124 116 112 116 115 115 134 156 168 185 182 165 141 0 0 0 0 0 0 0 0 0 0 0 0 0 0 0 0 0 0 0 0 0 0 0 0 0 0 0 0 0 0 0 0 0 0 0 0 0 0 0 0 
0 0 0 0 0 0 0 0 0 0 0 0 0 0 0 68 151 161 152 141 132 135 136 124 115 110 116 117 108 111 120 118 117 115 113 114 110 107 108 88 77 79 77 77 77 77 96 96 96 96 101 104 101 95 93 93 90 91 93 96 97 100 82 82 83 82 111 118 124 123 121 121 120 121 120 123 113 109 113 111 114 139 157 169 184 184 170 151 0 0 0 0 0 0 0 0 0 0 0 0 0 0 0 0 0 0 0 0 0 0 0 0 0 0 0 0 0 0 0 0 0 0 0 0 0 0 0 0 
0 0 0 0 0 0 0 0 0 0 0 0 0 0 0 137 157 164 153 144 136 135 137 126 115 110 114 112 106 110 121 118 116 116 115 117 114 111 113 115 112 105 75 74 77 79 99 100 96 97 100 102 103 96 95 94 90 88 93 95 96 89 80 80 79 112 117 123 123 124 126 126 124 123 123 128 115 110 110 109 118 141 155 167 185 186 174 159 0 0 0 0 0 0 0 0 0 0 0 0 0 0 0 0 0 0 0 0 0 0 0 0 0 0 0 0 0 0 0 0 0 0 0 0 0 0 0 0 
0 0 0 0 0 0 0 0 0 0 0 0 0 0 0 140 160 168 156 148 140 138 139 127 118 112 113 111 104 109 124 120 119 120 122 119 112 77 78 82 96 96 102 89 74 78 99 100 99 99 102 102 107 98 95 95 90 86 90 93 86 77 93 108 103 99 97 98 101 105 112 119 130 134 130 133 128 115 110 113 125 141 153 162 183 189 177 161 58 0 0 0 0 0 0 0 0 0 0 0 0 0 0 0 0 0 0 0 0 0 0 0 0 0 0 0 0 0 0 0 0 0 0 0 0 0 0 0 
0 0 0 0 0 0 0 0 0 0 0 0 0 0 58 144 163 169 154 149 145 143 141 131 122 115 112 105 103 114 127 121 126 127 116 92 87 82 83 85 86 85 86 92 98 106 103 99 95 96 96 101 109 102 97 95 91 86 89 83 78 93 102 94 93 90 93 93 93 96 98 99 112 128 141 141 141 125 114 121 130 140 147 156 178 190 180 164 65 0 0 0 0 0 0 0 0 0 0 0 0 0 0 0 0 0 0 0 0 0 0 0 0 0 0 0 0 0 0 0 0 0 0 0 0 0 0 0 
0 0 0 0 0 0 0 0 0 0 0 0 0 0 60 148 166 167 155 149 144 142 143 139 130 121 115 104 106 122 130 127 131 115 97 91 89 85 84 87 86 84 84 86 89 95 102 103 96 96 100 102 106 105 100 97 91 87 82 79 91 94 89 90 91 95 97 97 99 102 101 98 99 113 136 153 148 138 125 128 133 136 141 150 166 188 182 167 71 0 0 0 0 0 0 0 0 0 0 0 0 0 0 0 0 0 0 0 0 0 0 0 0 0 0 0 0 0 0 0 0 0 0 0 0 0 0 0 
0 0 0 0 0 0 0 0 0 0 0 0 0 0 62 151 165 167 153 147 142 139 139 139 135 126 121 113 111 127 135 136 114 97 92 92 88 87 90 93 91 87 84 86 88 92 95 78 88 99 103 105 110 111 109 102 96 91 73 88 96 86 87 87 92 96 99 101 101 104 106 107 109 116 131 154 154 145 136 132 130 130 134 143 155 181 183 168 74 0 0 0 0 0 0 0 0 0 0 0 0 0 0 0 0 0 0 0 0 0 0 0 0 0 0 0 0 0 0 0 0 0 0 0 0 0 0 0 
0 0 0 0 0 0 0 0 0 0 0 0 0 0 63 152 169 169 148 142 139 138 134 132 133 130 124 123 131 132 140 129 102 93 91 90 88 89 91 90 90 89 87 86 87 87 94 89 80 91 108 115 120 116 121 108 101 84 83 104 88 80 80 86 93 97 100 103 103 107 109 108 114 126 133 139 148 144 144 134 127 125 129 135 146 172 183 169 131 0 0 0 0 0 0 0 0 0 0 0 0 0 0 0 0 0 0 0 0 0 0 0 0 0 0 0 0 0 0 0 0 0 0 0 0 0 0 0 
0 0 0 0 0 0 0 0 0 0 0 0 0 0 65 155 171 170 139 135 137 135 132 126 129 131 125 122 135 141 146 126 111 103 99 95 92 91 88 88 87 88 88 87 88 88 96 100 80 76 108 117 125 117 126 112 102 83 88 100 82 77 84 90 96 99 100 102 104 107 109 109 116 121 122 126 133 142 145 134 124 122 125 125 135 163 181 169 138 0 0 0 0 0 0 0 0 0 0 0 0 0 0 0 0 0 0 0 0 0 0 0 0 0 0 0 0 0 0 0 0 0 0 0 0 0 0 0 
0 0 0 0 0 0 0 0 0 0 0 0 0 0 65 155 172 171 136 135 135 132 127 122 122 123 121 123 133 134 137 127 121 113 104 100 98 94 90 88 89 90 89 88 89 90 93 99 78 75 107 116 118 114 119 117 105 87 100 92 78 81 89 94 96 97 98 99 101 103 107 110 112 114 118 120 125 138 142 135 121 116 117 118 124 152 178 169 142 0 0 0 0 0 0 0 0 0 0 0 0 0 0 0 0 0 0 0 0 0 0 0 0 0 0 0 0 0 0 0 0 0 0 0 0 0 0 0 
0 0 0 0 0 0 0 0 0 0 0 0 0 0 105 158 175 169 133 133 132 126 120 113 115 119 120 122 125 125 125 117 111 108 102 97 95 93 90 85 87 88 89 89 91 91 89 96 90 76 107 106 105 110 109 115 109 106 100 85 81 86 90 92 93 94 93 94 98 100 102 105 111 113 117 115 125 137 141 133 116 112 112 114 117 140 172 169 145 0 0 0 0 0 0 0 0 0 0 0 0 0 0 0 0 0 0 0 0 0 0 0 0 0 0 0 0 0 0 0 0 0 0 0 0 0 0 0 
0 0 0 0 0 0 0 0 0 0 0 0 0 0 105 159 175 163 127 127 123 118 111 105 108 113 117 126 124 119 119 114 103 103 97 93 90 91 90 87 85 87 89 91 89 89 91 92 99 93 112 109 88 91 89 114 110 111 105 86 86 87 90 87 85 89 92 93 96 99 102 104 107 110 111 113 124 136 136 134 119 110 107 109 109 127 158 167 148 0 0 0 0 0 0 0 0 0 0 0 0 0 0 0 0 0 0 0 0 0 0 0 0 0 0 0 0 0 0 0 0 0 0 0 0 0 0 0 
0 0 0 0 0 0 0 0 0 0 0 0 0 0 103 160 175 157 120 118 115 111 104 99 101 106 112 125 126 119 115 113 102 99 94 89 88 87 88 84 85 88 84 88 86 86 90 87 79 97 122 123 113 101 102 97 115 109 100 91 91 90 90 81 82 88 90 93 96 97 100 102 104 110 109 113 124 131 131 137 128 110 107 110 111 123 139 156 149 0 0 0 0 0 0 0 0 0 0 0 0 0 0 0 0 0 0 0 0 0 0 0 0 0 0 0 0 0 0 0 0 0 0 0 0 0 0 0 
0 0 0 0 0 0 0 0 0 0 0 0 0 0 101 159 174 148 118 113 108 106 102 100 100 101 114 121 122 118 114 112 105 97 93 91 89 89 89 88 84 85 88 90 88 90 93 85 80 102 119 122 103 92 94 83 103 117 93 95 91 89 85 82 87 89 91 93 94 96 99 100 101 105 107 114 125 132 138 140 132 111 106 107 111 122 135 156 149 49 0 0 0 0 0 0 0 0 0 0 0 0 0 0 0 0 0 0 0 0 0 0 0 0 0 0 0 0 0 0 0 0 0 0 0 0 0 0 
0 0 0 0 0 0 0 0 0 0 0 0 0 0 95 157 172 139 117 110 108 108 96 101 101 103 115 116 119 119 116 112 105 97 93 92 90 90 90 90 87 84 83 85 87 89 92 84 84 104 118 109 85 78 87 78 83 122 88 91 89 86 82 88 90 91 92 93 95 97 98 98 102 104 105 119 134 141 137 136 131 112 105 104 110 119 135 159 144 47 0 0 0 0 0 0 0 0 0 0 0 0 0 0 0 0 0 0 0 0 0 0 0 0 0 0 0 0 0 0 0 0 0 0 0 0 0 0 
0 0 0 0 0 0 0 0 0 0 0 0 0 0 87 154 169 135 115 109 107 106 96 100 100 103 115 115 116 118 121 114 104 102 95 89 91 93 91 89 88 86 81 79 81 85 89 83 89 106 110 90 83 81 89 75 75 113 105 89 85 82 82 90 90 90 92 95 97 97 97 97 102 101 103 119 140 135 130 134 129 110 105 103 109 117 134 158 138 44 0 0 0 0 0 0 0 0 0 0 0 0 0 0 0 0 0 0 0 0 0 0 0 0 0 0 0 0 0 0 0 0 0 0 0 0 0 0 
0 0 0 0 0 0 0 0 0 0 0 0 0 0 80 150 168 137 116 110 105 105 104 100 98 99 112 116 115 117 121 117 104 102 96 94 95 96 94 92 89 86 83 78 80 83 85 76 89 107 103 87 84 89 95 78 76 89 114 93 85 79 82 89 90 92 94 95 94 93 94 97 100 98 103 119 134 129 127 133 128 109 106 103 107 114 137 154 132 40 0 0 0 0 0 0 0 0 0 0 0 0 0 0 0 0 0 0 0 0 0 0 0 0 0 0 0 0 0 0 0 0 0 0 0 0 0 0 
0 0 0 0 0 0 0 0 0 0 0 0 0 0 73 145 164 142 117 109 104 103 103 103 98 95 108 117 116 117 122 116 103 100 97 95 96 96 96 94 90 85 80 79 77 80 80 79 95 108 94 86 85 93 101 84 76 78 108 102 98 87 84 89 91 92 93 92 90 91 94 98 97 96 101 118 127 126 125 130 126 107 105 103 104 113 140 149 123 35 0 0 0 0 0 0 0 0 0 0 0 0 0 0 0 0 0 0 0 0 0 0 0 0 0 0 0 0 0 0 0 0 0 0 0 0 0 0 
0 0 0 0 0 0 0 0 0 0 0 0 0 0 64 138 160 144 119 107 102 102 103 104 98 93 103 116 117 118 122 113 103 98 99 95 95 93 94 93 92 89 84 79 85 96 92 89 97 89 90 83 83 98 99 89 81 78 92 110 112 109 102 96 94 94 97 95 91 92 94 97 94 94 101 116 122 124 128 131 125 106 102 100 101 114 142 142 112 30 0 0 0 0 0 0 0 0 0 0 0 0 0 0 0 0 0 0 0 0 0 0 0 0 0 0 0 0 0 0 0 0 0 0 0 0 0 0 
0 0 0 0 0 0 0 0 0 0 0 0 0 0 53 129 157 143 118 107 100 101 103 103 98 92 104 119 118 116 120 114 102 97 98 96 94 93 92 93 99 99 95 88 91 95 98 92 103 93 88 83 84 95 95 91 90 79 86 117 121 121 113 102 97 93 94 97 93 90 90 93 93 92 102 118 122 123 127 133 131 109 98 99 100 114 144 136 102 0 0 0 0 0 0 0 0 0 0 0 0 0 0 0 0 0 0 0 0 0 0 0 0 0 0 0 0 0 0 0 0 0 0 0 0 0 0 0 
0 0 0 0 0 0 0 0 0 0 0 0 0 0 42 119 151 141 114 104 97 98 103 104 100 92 105 119 119 117 119 117 104 100 100 97 93 93 93 95 99 97 93 95 104 109 104 98 107 84 85 82 83 98 93 86 90 89 92 113 123 115 108 112 111 108 105 100 95 91 89 94 98 102 107 123 128 125 127 136 139 118 98 98 101 121 144 131 94 0 0 0 0 0 0 0 0 0 0 0 0 0 0 0 0 0 0 0 0 0 0 0 0 0 0 0 0 0 0 0 0 0 0 0 0 0 0 0 
0 0 0 0 0 0 0 0 0 0 0 0 0 4 32 104 146 144 115 105 102 100 102 102 102 94 107 117 119 121 126 124 116 104 101 98 94 96 100 101 103 102 102 105 99 95 94 101 108 85 83 82 84 104 93 86 87 83 91 119 133 117 108 109 115 123 137 132 125 122 113 114 123 128 133 138 126 121 129 139 140 130 105 99 109 131 144 122 87 0 0 0 0 0 0 0 0 0 0 0 0 0 0 0 0 0 0 0 0 0 0 0 0 0 0 0 0 0 0 0 0 0 0 0 0 0 0 0 
0 0 0 0 0 0 0 0 0 0 0 0 0 4 25 93 141 149 119 111 107 98 98 102 102 101 110 116 119 120 126 125 126 129 119 112 111 114 117 115 113 107 93 91 102 102 99 107 108 82 83 88 88 102 92 80 80 81 88 124 134 112 107 107 112 125 148 153 146 149 152 150 145 132 132 138 137 129 129 139 140 132 125 112 109 140 137 117 79 0 0 0 0 0 0 0 0 0 0 0 0 0 0 0 0 0 0 0 0 0 0 0 0 0 0 0 0 0 0 0 0 0 0 0 0 0 0 0 
0 0 0 0 0 0 0 0 0 0 0 0 0 4 19 82 133 154 135 113 107 97 95 101 106 113 114 117 121 121 121 122 118 122 126 128 129 121 117 112 111 105 101 101 102 98 97 105 105 87 86 96 90 105 93 77 82 89 100 130 132 115 108 109 113 128 148 152 150 155 150 144 116 115 133 130 142 145 140 138 140 136 132 130 145 143 122 115 45 0 0 0 0 0 0 0 0 0 0 0 0 0 0 0 0 0 0 0 0 0 0 0 0 0 0 0 0 0 0 0 0 0 0 0 0 0 0 0 
0 0 0 0 0 0 0 0 0 0 0 0 0 9 14 69 124 151 150 118 108 97 99 111 119 116 119 124 122 122 127 132 134 131 125 127 117 123 123 120 113 105 97 95 94 95 96 102 111 100 89 90 92 106 93 83 89 97 107 119 120 117 114 115 120 132 146 147 147 148 142 143 140 133 146 148 151 155 162 157 151 151 148 154 165 141 112 110 38 0 0 0 0 0 0 0 0 0 0 0 0 0 0 0 0 0 0 0 0 0 0 0 0 0 0 0 0 0 0 0 0 0 0 0 0 0 0 0 
0 0 0 0 0 0 0 0 0 0 0 0 0 9 13 55 116 147 155 133 114 112 119 121 127 125 126 134 130 123 135 147 152 156 154 131 132 131 124 115 103 96 97 92 89 90 97 111 112 95 95 95 89 107 92 88 89 102 109 110 117 109 114 118 121 136 153 155 156 156 153 157 152 134 129 142 142 151 164 167 173 177 171 178 181 131 122 105 32 0 0 0 0 0 0 0 0 0 0 0 0 0 0 0 0 0 0 0 0 0 0 0 0 0 0 0 0 0 0 0 0 0 0 0 0 0 0 0 
0 0 0 0 0 0 0 0 0 0 0 0 0 8 9 37 110 145 153 149 137 147 137 137 141 141 141 137 131 131 141 156 161 162 150 149 152 148 133 116 109 105 100 94 92 92 106 114 100 88 93 96 96 118 98 86 85 94 104 104 112 112 111 118 120 125 135 144 152 157 152 143 140 124 122 128 140 148 161 170 174 181 185 182 163 124 122 87 16 3 0 0 0 0 0 0 0 0 0 0 0 0 0 0 0 0 0 0 0 0 0 0 0 0 0 0 0 0 0 0 0 0 0 0 0 0 0 0 
0 0 0 0 0 0 0 0 0 0 0 0 0 3 8 12 62 130 150 150 153 172 178 161 160 156 145 139 138 142 155 164 161 159 162 153 148 148 141 119 111 110 109 102 97 95 105 112 102 91 90 101 99 115 118 94 66 89 90 105 108 106 114 117 118 119 123 132 136 135 123 129 129 124 128 138 146 148 154 162 169 170 172 168 147 122 119 95 18 6 0 0 0 0 0 0 0 0 0 0 0 0 0 0 0 0 0 0 0 0 0 0 0 0 0 0 0 0 0 0 0 0 0 0 0 0 0 0 
0 0 0 0 0 0 0 0 0 0 0 0 0 0 6 10 37 117 153 153 158 174 175 172 168 166 161 153 138 130 143 156 163 162 163 155 149 154 139 113 106 110 111 107 101 100 111 109 104 84 93 103 106 120 118 100 84 82 88 98 104 102 102 113 117 118 124 130 133 124 119 119 114 122 137 147 143 143 143 150 156 170 159 142 122 123 121 64 8 5 0 0 0 0 0 0 0 0 0 0 0 0 0 0 0 0 0 0 0 0 0 0 0 0 0 0 0 0 0 0 0 0 0 0 0 0 0 0 
0 0 0 0 0 0 0 0 0 0 0 0 0 0 3 9 22 93 148 150 151 158 160 150 166 168 162 152 142 136 133 143 149 161 162 159 150 143 131 119 109 108 112 113 101 99 112 102 99 101 100 99 92 112 121 109 85 84 93 97 104 110 110 109 103 103 118 127 131 132 130 120 121 141 148 150 144 150 143 142 148 159 0 63 63 128 111 32 6 4 3 0 0 0 0 0 0 0 0 0 0 0 0 0 0 0 0 0 0 0 0 0 0 0 0 0 0 0 0 0 0 0 0 0 0 0 0 0 
0 0 0 0 0 0 0 0 0 0 0 0 0 0 0 0 0 44 137 150 146 140 149 149 143 150 152 146 142 145 135 132 139 143 145 149 144 135 131 122 106 104 104 101 100 104 116 101 107 113 109 101 95 103 120 121 95 94 100 96 105 118 120 124 110 93 95 103 109 115 121 116 118 145 156 159 155 153 144 142 135 138 0 60 0 0 28 16 7 6 7 0 0 0 0 0 0 0 0 0 0 0 0 0 0 0 0 0 0 0 0 0 0 0 0 0 0 0 0 0 0 0 0 0 0 0 0 0 
0 0 0 0 0 0 0 0 0 0 0 0 0 0 0 0 0 0 115 139 136 134 144 148 145 138 134 133 138 150 151 133 123 125 139 145 141 129 125 107 96 93 101 105 103 108 126 110 117 119 117 111 100 101 124 124 107 102 105 107 109 123 125 127 114 97 89 89 96 104 108 117 139 143 151 162 161 156 152 148 143 71 59 53 0 0 0 0 3 6 6 0 0 0 0 0 0 0 0 0 0 0 0 0 0 0 0 0 0 0 0 0 0 0 0 0 0 0 0 0 0 0 0 0 0 0 0 0 
0 0 0 0 0 0 0 0 0 0 0 0 0 0 0 0 0 0 53 125 125 132 139 147 141 138 134 130 134 148 154 140 120 103 117 135 145 139 113 94 85 97 103 108 107 113 124 123 122 122 134 132 115 112 138 132 116 109 114 117 115 127 128 128 112 104 89 86 92 107 113 135 134 131 142 152 161 163 175 165 77 0 64 0 0 0 0 0 0 4 5 0 0 0 0 0 0 0 0 0 0 0 0 0 0 0 0 0 0 0 0 0 0 0 0 0 0 0 0 0 0 0 0 0 0 0 0 0 
0 0 0 0 0 0 0 0 0 0 0 0 0 0 0 0 0 0 35 119 132 126 138 77 150 144 140 137 143 147 150 135 117 118 115 122 117 118 108 89 89 102 104 108 120 125 126 130 134 136 143 145 149 153 153 141 138 140 133 130 129 142 142 136 122 104 89 89 98 119 117 114 127 123 135 149 162 172 182 172 74 0 11 0 0 0 0 0 0 0 2 0 0 0 0 0 0 0 0 0 0 0 0 0 0 0 0 0 0 0 0 0 0 0 0 0 0 0 0 0 0 0 0 0 0 0 0 0 
0 0 0 0 0 0 0 0 0 0 0 0 0 0 0 0 0 0 18 103 126 115 64 0 0 157 155 145 149 148 150 142 131 127 115 118 110 96 91 105 107 113 112 115 128 140 139 142 149 152 152 155 164 173 175 167 160 154 145 144 148 163 166 154 137 120 114 110 117 127 112 113 125 122 125 150 160 178 174 163 129 49 42 0 0 0 0 0 0 0 0 0 0 0 0 0 0 0 0 0 0 0 0 0 0 0 0 0 0 0 0 0 0 0 0 0 0 0 0 0 0 0 0 0 0 0 0 0 
0 0 0 0 0 0 0 0 0 0 0 0 0 0 0 0 0 0 0 69 120 120 112 122 151 165 163 155 149 146 150 148 135 131 122 120 113 104 102 110 136 134 127 127 137 148 153 151 152 144 143 147 148 148 154 157 153 146 138 140 146 162 171 168 152 146 137 138 144 120 106 107 115 120 116 142 157 179 164 148 129 116 0 0 0 0 0 0 0 0 0 0 0 0 0 0 0 0 0 0 0 0 0 0 0 0 0 0 0 0 0 0 0 0 0 0 0 0 0 0 0 0 0 0 0 0 0 0 
0 0 0 0 0 0 0 0 0 0 0 0 0 0 0 0 0 0 0 41 95 114 114 116 137 157 165 164 150 147 145 149 139 129 119 120 120 120 125 131 138 155 157 150 154 154 155 161 153 148 143 148 146 151 148 149 149 150 144 144 147 157 171 169 170 165 155 158 148 114 99 98 106 118 124 142 159 174 154 131 113 103 109 100 67 0 0 0 0 0 0 0 0 0 0 0 0 0 0 0 0 0 0 0 0 0 0 0 0 0 0 0 0 0 0 0 0 0 0 0 0 0 0 0 0 0 0 0 
0 0 0 0 0 0 0 0 0 0 0 0 13 9 2 0 0 0 6 29 83 115 123 110 121 140 161 164 155 141 140 141 135 124 111 111 113 117 123 131 140 158 169 170 165 162 163 162 154 151 151 161 165 166 157 147 151 154 141 145 145 150 160 167 172 165 157 159 148 111 90 96 112 125 145 156 162 167 150 129 98 87 98 99 59 9 0 0 0 0 0 0 0 0 0 0 0 0 0 0 0 0 0 0 0 0 0 0 0 0 0 0 0 0 0 0 0 0 0 0 0 0 0 0 0 0 0 0 
0 0 0 0 0 0 0 0 0 0 0 0 7 13 9 7 0 0 13 21 66 103 119 116 114 119 149 152 165 142 130 130 134 111 102 104 107 114 118 120 130 148 164 168 168 165 168 164 160 160 162 172 170 165 157 136 137 144 131 128 135 147 149 168 174 172 168 164 149 111 94 97 108 121 162 176 178 175 155 108 88 86 99 93 39 16 0 0 0 0 0 0 0 0 0 0 0 0 0 0 0 0 0 0 0 0 0 0 0 0 0 0 0 0 0 0 0 0 0 0 0 0 0 0 0 0 0 0 
0 0 0 0 0 0 0 0 0 0 0 0 6 11 9 8 9 12 16 16 34 86 118 117 103 114 140 154 167 150 141 132 88 113 94 100 107 110 110 110 116 142 163 164 163 161 158 155 157 157 162 173 167 165 143 119 120 128 130 126 133 151 154 166 183 179 171 163 148 119 98 99 111 136 165 167 175 161 145 97 79 80 80 64 20 14 8 3 0 5 5 6 4 0 0 0 0 0 0 0 0 0 0 0 0 0 0 0 0 0 0 0 0 0 0 0 0 0 0 0 0 0 0 0 0 0 0 0 
0 0 0 0 0 0 0 0 0 0 0 0 0 10 9 9 9 10 13 15 17 50 108 111 109 109 126 152 167 168 157 141 130 125 104 94 96 97 100 107 125 147 158 159 158 154 151 148 148 143 155 156 145 163 157 131 126 131 130 124 142 162 154 172 178 178 171 169 165 132 123 121 137 149 149 148 128 108 106 77 66 87 92 36 12 9 9 7 5 6 6 7 12 0 0 0 0 0 0 0 0 0 0 0 0 0 0 0 0 0 0 0 0 0 0 0 0 0 0 0 0 0 0 0 0 0 0 0 
0 0 0 0 0 0 0 0 0 0 0 0 0 5 6 6 6 5 9 15 20 28 71 99 94 92 114 147 147 168 168 150 134 134 121 105 104 109 117 135 140 167 180 173 173 166 163 168 173 173 170 159 161 182 185 167 156 160 160 155 163 168 181 187 177 176 170 179 173 170 148 148 145 137 112 94 90 89 93 76 50 98 53 18 0 0 1 4 5 5 5 3 0 0 0 0 0 0 0 0 0 0 0 0 0 0 0 0 0 0 0 0 0 0 0 0 0 0 0 0 0 0 0 0 0 0 0 0 
0 0 0 0 0 0 0 0 0 0 0 0 0 0 5 3 3 3 5 11 17 21 37 82 87 75 91 100 0 138 143 151 145 142 131 113 115 122 133 145 171 183 188 192 195 201 193 199 192 181 181 183 183 182 179 173 161 176 182 187 190 194 204 205 199 206 188 192 135 145 151 143 107 87 77 84 84 83 48 0 0 20 29 22 0 0 0 1 2 3 4 7 0 0 0 0 0 0 0 0 0 0 0 0 0 0 0 0 0 0 0 0 0 0 0 0 0 0 0 0 0 0 0 0 0 0 0 0 
0 0 0 0 0 0 0 0 0 0 0 0 0 0 1 2 1 0 0 5 14 20 25 45 80 84 66 56 67 77 96 110 0 0 123 125 119 132 152 171 177 176 181 183 189 196 190 187 185 174 165 171 160 168 148 136 140 148 152 159 165 188 202 184 172 188 183 176 159 141 126 107 89 77 75 90 87 46 69 25 0 19 36 26 0 0 0 0 1 0 1 0 0 0 0 0 0 0 0 0 0 0 0 0 0 0 0 0 0 0 0 0 0 0 0 0 0 0 0 0 0 0 0 0 0 0 0 0 
0 0 0 0 0 0 0 0 0 0 0 0 0 0 0 2 4 3 2 4 10 14 19 22 36 51 36 16 67 63 64 61 79 82 77 87 74 68 77 76 91 121 142 149 139 137 137 120 131 106 82 97 110 101 100 101 90 83 101 102 98 111 102 139 133 157 126 83 64 64 57 66 62 55 56 78 84 83 50 29 28 25 19 5 0 0 3 3 0 0 0 0 0 0 0 0 0 0 0 0 0 0 0 0 0 0 0 0 0 0 0 0 0 0 0 0 0 0 0 0 0 0 0 0 0 0 0 0 
0 0 0 0 0 0 0 0 0 0 0 0 0 0 0 0 0 3 2 1 6 10 13 16 22 22 23 33 67 65 61 62 63 64 62 66 70 61 68 70 82 88 83 82 90 95 82 71 77 79 60 74 90 91 91 89 73 61 74 74 83 100 87 80 78 94 92 99 107 101 65 63 62 55 56 77 85 81 48 29 28 24 16 3 0 0 1 0 0 0 0 0 0 0 0 0 0 0 0 0 0 0 0 0 0 0 0 0 0 0 0 0 0 0 0 0 0 0 0 0 0 0 0 0 0 0 0 0 
0 0 0 0 0 0 0 0 0 0 0 0 0 0 0 0 0 0 0 0 3 5 10 15 20 26 28 36 69 75 65 65 68 70 67 66 77 94 122 128 139 141 109 101 103 104 97 99 105 90 75 91 98 98 97 94 88 78 96 108 107 116 102 94 118 143 106 91 107 95 87 88 80 74 75 86 92 84 50 33 29 23 14 5 0 0 0 0 0 0 0 0 0 0 0 0 0 0 0 0 0 0 0 0 0 0 0 0 0 0 0 0 0 0 0 0 0 0 0 0 0 0 0 0 0 0 0 0 
0 0 0 0 0 0 0 0 0 0 0 0 0 0 0 0 0 0 0 0 0 0 2 8 15 29 34 45 76 88 80 74 78 86 86 89 102 120 124 143 157 170 159 136 144 163 161 160 147 124 117 127 126 125 121 127 123 117 123 143 150 135 138 150 145 164 131 133 108 127 119 99 97 81 85 85 84 78 29 0 0 0 0 0 0 0 0 0 0 0 0 0 0 0 0 0 0 0 0 0 0 0 0 0 0 0 0 0 0 0 0 0 0 0 0 0 0 0 0 0 0 0 0 0 0 0 0 0 
0 0 0 0 0 0 0 0 0 0 0 0 0 0 0 0 0 0 0 0 0 0 0 5 9 23 29 39 63 79 74 74 84 92 97 96 102 114 127 118 162 172 172 163 174 178 174 183 163 169 169 160 163 164 163 159 158 154 157 142 123 146 168 142 165 155 150 131 145 150 127 130 101 79 61 70 74 57 0 0 0 0 1 0 0 0 0 0 0 0 0 0 0 0 0 0 0 0 0 0 0 0 0 0 0 0 0 0 0 0 0 0 0 0 0 0 0 0 0 0 0 0 0 0 0 0 0 0 
0 0 0 0 0 0 0 0 0 0 0 0 0 0 0 0 0 0 0 0 0 0 0 3 8 17 28 36 54 76 77 72 74 77 75 71 78 95 105 107 128 130 100 82 127 138 155 171 164 154 145 137 141 136 140 132 137 137 137 135 141 148 129 120 128 127 136 141 152 154 114 71 50 50 61 82 80 21 25 21 0 7 6 0 0 0 0 0 0 0 0 0 0 0 0 0 0 0 0 0 0 0 0 0 0 0 0 0 0 0 0 0 0 0 0 0 0 0 0 0 0 0 0 0 0 0 0 0 
0 0 0 0 0 0 0 0 0 0 0 0 0 0 0 0 0 0 0 0 0 0 0 7 9 15 20 22 33 55 68 67 65 66 58 56 55 72 94 113 113 114 109 95 102 117 133 137 124 123 118 97 108 99 104 94 105 109 108 108 113 130 128 106 118 129 138 122 134 122 99 68 53 55 72 101 86 46 24 17 9 12 7 0 0 0 0 0 0 0 0 0 0 0 0 0 0 0 0 0 0 0 0 0 0 0 0 0 0 0 0 0 0 0 0 0 0 0 0 0 0 0 0 0 0 0 0 0 
0 0 0 0 0 0 0 0 0 0 0 0 0 0 0 0 0 0 0 0 0 0 0 6 9 13 19 21 25 45 63 75 74 70 58 51 53 66 87 102 100 101 101 103 110 125 133 132 99 115 81 88 94 93 96 91 104 112 89 110 106 116 108 95 86 107 125 129 126 108 93 68 55 59 82 108 88 49 24 19 18 12 6 0 0 0 0 0 0 0 0 0 0 0 0 0 0 0 0 0 0 0 0 0 0 0 0 0 0 0 0 0 0 0 0 0 0 0 0 0 0 0 0 0 0 0 0 0 
0 0 0 0 0 0 0 0 0 0 0 0 0 0 0 0 0 0 0 0 0 0 0 3 9 10 16 21 23 39 58 76 78 72 63 53 49 58 74 98 94 86 90 93 102 112 122 131 128 117 112 100 102 101 98 93 104 104 117 122 115 123 121 108 102 98 111 118 109 96 79 61 55 64 90 112 87 51 25 19 16 11 5 0 0 0 0 0 0 0 0 0 0 0 0 0 0 0 0 0 0 0 0 0 0 0 0 0 0 0 0 0 0 0 0 0 0 0 0 0 0 0 0 0 0 0 0 0 
0 0 0 0 0 0 0 0 0 0 0 0 0 0 0 0 0 0 0 0 0 0 0 0 6 9 13 19 22 33 50 70 75 75 68 58 52 56 59 66 73 78 87 92 99 107 114 121 137 128 118 108 106 104 98 95 101 99 109 120 122 143 133 112 103 95 100 108 110 100 81 64 59 67 96 114 83 52 26 18 15 10 3 0 0 0 0 0 0 0 0 0 0 0 0 0 0 0 0 0 0 0 0 0 0 0 0 0 0 0 0 0 0 0 0 0 0 0 0 0 0 0 0 0 0 0 0 0 
0 0 0 0 0 0 0 0 0 0 0 0 0 0 0 0 0 0 0 0 0 0 0 0 2 8 11 16 20 28 45 62 81 79 72 64 57 51 53 59 66 74 87 93 102 105 105 112 127 119 115 107 103 102 96 96 98 100 107 113 121 128 122 107 103 104 99 93 97 96 82 72 66 72 96 110 81 52 26 17 14 9 2 0 0 0 0 0 0 0 0 0 0 0 0 0 0 0 0 0 0 0 0 0 0 0 0 0 0 0 0 0 0 0 0 0 0 0 0 0 0 0 0 0 0 0 0 0 
0 0 0 0 0 0 0 0 0 0 0 0 0 0 0 0 0 0 0 0 0 0 0 0 0 5 9 13 18 25 43 55 80 78 76 71 63 54 54 58 64 69 85 99 107 104 97 96 103 108 114 106 98 99 96 94 96 102 107 107 115 84 110 103 107 108 104 88 78 75 68 69 71 81 98 106 79 45 20 16 15 8 1 0 0 0 0 0 0 0 0 0 0 0 0 0 0 0 0 0 0 0 0 0 0 0 0 0 0 0 0 0 0 0 0 0 0 0 0 0 0 0 0 0 0 0 0 0 
0 0 0 0 0 0 0 0 0 0 0 0 0 0 0 0 0 0 0 0 0 0 0 0 0 4 6 12 15 19 33 53 68 73 79 76 67 61 55 54 60 69 84 94 100 99 96 89 89 97 110 101 93 92 94 97 97 101 100 103 109 108 101 92 96 98 98 85 74 67 62 71 79 86 102 88 48 23 17 16 16 8 1 0 0 0 0 0 0 0 0 0 0 0 0 0 0 0 0 0 0 0 0 0 0 0 0 0 0 0 0 0 0 0 0 0 0 0 0 0 0 0 0 0 0 0 0 0 
0 0 0 0 0 0 0 0 0 0 0 0 0 0 0 0 0 0 0 0 0 0 0 0 0 3 4 8 14 18 21 32 41 46 73 80 70 65 58 52 56 67 78 81 91 94 94 88 87 97 113 105 96 95 99 99 99 100 100 100 103 98 94 89 91 89 85 77 74 63 61 73 82 92 100 44 18 16 17 18 16 7 1 0 0 0 0 0 0 0 0 0 0 0 0 0 0 0 0 0 0 0 0 0 0 0 0 0 0 0 0 0 0 0 0 0 0 0 0 0 0 0 0 0 0 0 0 0 
0 0 0 0 0 0 0 0 0 0 0 0 0 0 0 0 0 0 0 0 0 0 0 0 0 0 5 4 12 17 19 20 18 17 11 77 79 73 66 62 58 61 69 72 79 82 88 88 90 100 102 101 96 92 88 93 104 101 95 93 99 97 97 89 86 84 73 71 72 68 71 81 88 97 72 23 15 15 17 17 14 6 0 0 0 0 0 0 0 0 0 0 0 0 0 0 0 0 0 0 0 0 0 0 0 0 0 0 0 0 0 0 0 0 0 0 0 0 0 0 0 0 0 0 0 0 0 0 
0 0 0 0 0 0 0 0 0 0 0 0 0 0 0 0 0 0 0 0 0 0 0 0 0 0 0 5 8 13 18 18 18 18 13 25 77 81 75 69 66 66 68 73 80 78 82 88 101 104 96 97 99 96 92 93 103 105 88 91 98 101 106 97 91 84 80 79 76 76 82 89 92 78 35 19 14 15 17 16 12 6 1 0 0 0 0 0 0 0 0 0 0 0 0 0 0 0 0 0 0 0 0 0 0 0 0 0 0 0 0 0 0 0 0 0 0 0 0 0 0 0 0 0 0 0 0 0 
0 0 0 0 0 0 0 0 0 0 0 0 0 0 0 0 0 0 0 0 0 0 0 0 0 0 0 2 7 9 16 18 17 18 14 13 23 71 82 81 76 73 75 80 88 87 88 87 95 102 97 99 100 97 96 104 113 112 108 104 105 111 107 97 94 89 87 88 87 90 94 95 76 37 24 17 13 15 17 15 11 6 1 0 0 0 0 0 0 0 0 0 0 0 0 0 0 0 0 0 0 0 0 0 0 0 0 0 0 0 0 0 0 0 0 0 0 0 0 0 0 0 0 0 0 0 0 0 
0 0 0 0 0 0 0 0 0 0 0 0 0 0 0 0 0 0 0 0 0 0 0 0 0 0 0 0 5 7 12 17 18 18 14 7 17 33 35 80 84 87 86 87 100 100 92 89 90 104 103 98 99 98 97 107 111 110 111 108 101 103 106 102 98 82 102 100 97 96 92 72 36 26 23 15 14 16 15 14 10 5 1 0 0 0 0 0 0 0 0 0 0 0 0 0 0 0 0 0 0 0 0 0 0 0 0 0 0 0 0 0 0 0 0 0 0 0 0 0 0 0 0 0 0 0 0 0 
0 0 0 0 0 0 0 0 0 0 0 0 0 0 0 0 0 0 0 0 0 0 0 0 0 0 0 0 4 7 9 15 17 19 15 12 16 10 0 51 75 88 94 98 106 110 102 98 101 109 102 95 95 102 106 110 112 109 114 116 108 105 114 109 107 108 112 108 101 87 61 35 28 26 22 17 15 14 14 13 10 5 1 0 0 0 0 0 0 0 0 0 0 0 0 0 0 0 0 0 0 0 0 0 0 0 0 0 0 0 0 0 0 0 0 0 0 0 0 0 0 0 0 0 0 0 0 0 
0 0 0 0 0 0 0 0 0 0 0 0 0 0 0 0 0 0 0 0 0 0 0 0 0 0 0 0 1 7 7 13 16 18 15 12 13 0 0 15 38 61 83 94 107 113 109 106 107 108 108 103 103 104 101 104 106 108 113 115 114 107 114 117 113 110 111 104 82 50 31 29 28 24 21 16 14 14 14 12 9 5 1 0 0 0 0 0 0 0 0 0 0 0 0 0 0 0 0 0 0 0 0 0 0 0 0 0 0 0 0 0 0 0 0 0 0 0 0 0 0 0 0 0 0 0 0 0 
0 0 0 0 0 0 0 0 0 0 0 0 0 0 0 0 0 0 0 0 0 0 0 0 0 0 0 0 0 7 6 11 14 18 15 12 12 20 26 29 31 33 41 60 85 98 100 101 101 106 113 112 108 102 99 100 100 106 115 108 111 114 118 115 110 101 87 63 43 37 29 28 26 23 18 16 13 15 14 12 9 4 1 0 0 0 0 0 0 0 0 0 0 0 0 0 0 0 0 0 0 0 0 0 0 0 0 0 0 0 0 0 0 0 0 0 0 0 0 0 0 0 0 0 0 0 0 0 
0 0 0 0 0 0 0 0 0 0 0 0 0 0 0 0 0 0 0 0 0 0 0 0 0 0 0 0 0 4 6 9 13 17 16 13 12 19 25 28 31 32 32 38 49 68 81 88 91 94 105 108 104 102 101 104 105 107 116 114 115 107 106 100 90 71 52 47 41 36 28 28 26 23 17 14 15 14 14 12 9 3 1 0 0 0 0 0 0 0 0 0 0 0 0 0 0 0 0 0 0 0 0 0 0 0 0 0 0 0 0 0 0 0 0 0 0 0 0 0 0 0 0 0 0 0 0 0 
