P2
128 99
219
0 0 0 0 0 0 0 0 0 0 0 0 0 0 0 0 0 0 0 0 0 0 0 0 0 0 0 0 0 0 0 0 0 0 0 0 0 0 0 0 0 0 0 0 0 0 0 0 0 0 0 0 0 0 0 0 0 0 0 0 0 0 0 0 0 0 0 0 0 0 0 0 0 0 0 0 0 0 0 0 0 0 0 0 0 0 0 0 0 0 0 0 0 0 0 0 0 4 0 0 0 0 0 0 0 0 0 0 0 0 0 0 0 0 0 0 0 0 0 0 0 0 0 0 0 0 0 0 
0 0 0 0 0 0 0 0 0 0 0 0 0 0 0 0 0 0 0 0 0 0 0 0 0 0 0 0 0 0 0 0 0 0 0 0 0 0 0 0 0 0 0 0 0 0 0 0 0 0 0 0 0 0 0 0 0 0 0 0 0 0 0 0 0 0 0 0 0 0 0 0 0 0 0 0 0 0 0 0 0 0 0 0 0 0 0 0 0 0 0 0 0 0 0 0 0 4 0 0 0 0 0 0 0 0 0 0 0 0 0 0 0 0 0 0 0 0 0 0 0 0 0 0 0 0 0 0 
0 0 0 0 0 0 0 0 0 0 0 0 0 0 0 0 0 0 0 0 0 0 0 0 0 0 0 0 0 0 0 0 0 0 0 0 0 0 0 0 0 0 0 0 0 0 0 0 0 0 0 1 1 2 2 0 0 0 0 0 0 0 0 0 0 0 0 0 0 0 0 0 0 0 0 0 0 0 0 0 0 0 0 0 0 0 0 0 0 0 0 0 0 0 0 0 0 5 0 0 0 0 0 0 0 0 0 0 0 0 0 0 0 0 0 0 0 0 0 0 0 0 0 0 0 0 0 0 
0 0 0 0 0 0 0 0 0 0 0 0 0 0 0 0 0 0 0 0 0 0 0 0 0 0 0 0 0 0 0 0 0 0 0 0 0 0 0 0 0 0 0 0 6 15 17 19 18 16 19 24 29 29 25 22 20 15 11 11 5 0 0 0 0 0 0 0 0 0 0 0 0 0 0 0 0 0 0 0 0 0 0 0 0 0 0 0 0 0 0 0 0 0 0 0 0 4 0 0 0 0 0 0 0 0 0 0 0 0 0 0 0 0 0 0 0 0 0 0 0 0 0 0 0 0 0 0 
0 0 0 0 0 0 0 0 0 0 0 0 0 0 0 0 0 0 0 0 0 0 0 0 0 0 0 0 0 0 0 0 0 0 0 0 0 0 0 0 3 13 22 22 20 35 57 78 96 114 128 138 142 142 140 132 117 97 73 52 35 21 14 10 3 0 0 0 0 0 0 0 0 0 0 0 0 0 0 0 0 0 0 0 0 0 0 0 0 0 0 0 0 0 0 0 0 4 0 0 0 0 0 0 0 0 0 0 0 0 0 0 0 0 0 0 0 0 0 0 0 0 0 0 0 0 0 0 
0 0 0 0 0 0 0 0 0 0 0 0 0 0 0 0 0 0 0 0 0 0 0 0 0 0 0 0 0 0 0 0 0 0 0 0 0 1 6 19 22 23 37 65 106 140 157 166 174 179 180 178 175 175 175 176 177 176 171 160 140 110 77 47 24 14 11 2 0 0 0 0 0 0 0 0 0 0 0 0 0 0 0 0 0 0 0 0 0 0 0 0 0 0 0 0 0 4 0 0 0 0 0 0 0 0 0 0 0 0 0 0 0 0 0 0 0 0 0 0 0 0 0 0 0 0 0 0 
0 0 0 0 0 0 0 0 0 0 0 0 0 0 0 0 0 0 0 0 0 0 0 0 0 0 0 0 0 0 0 0 0 0 0 1 7 21 23 25 50 98 141 162 173 181 184 177 173 174 180 183 183 183 185 186 184 180 173 169 171 174 166 144 111 72 41 18 13 3 0 0 0 0 0 0 0 0 0 0 0 0 0 0 0 0 0 0 0 0 0 0 0 0 0 0 0 4 0 0 0 0 0 0 0 0 0 0 0 0 0 0 0 0 0 0 0 0 0 0 0 0 0 0 0 0 0 0 
0 0 0 0 0 0 0 0 0 0 0 0 0 0 0 0 0 0 0 0 0 0 0 0 0 0 0 0 0 0 0 0 0 0 8 25 26 25 60 117 154 167 180 183 178 175 178 176 169 165 167 171 168 156 156 168 178 186 187 186 185 179 171 174 178 164 134 93 50 22 13 2 0 0 0 0 0 0 0 0 0 0 0 0 0 0 0 0 0 0 0 0 0 0 0 0 0 4 0 0 0 0 0 0 0 0 0 0 0 0 0 0 0 0 0 0 0 0 0 0 0 0 0 0 0 0 0 0 
0 0 0 0 0 0 0 0 0 0 0 0 0 0 0 0 0 0 0 0 0 0 0 0 0 0 0 0 0 0 0 0 5 29 26 23 58 121 157 168 180 182 178 179 177 171 163 150 147 151 159 165 167 164 162 162 162 174 187 189 188 185 184 184 176 170 178 173 142 94 49 21 11 0 0 0 0 0 0 0 0 0 0 0 0 0 0 0 0 0 0 0 0 0 0 0 0 4 0 0 0 0 0 0 0 0 0 0 0 0 0 0 0 0 0 0 0 0 0 0 0 0 0 0 0 0 0 0 
0 0 0 0 0 0 0 0 0 0 0 0 0 0 0 0 0 0 0 0 0 0 0 0 0 0 0 0 0 0 0 26 25 20 43 105 154 167 176 178 176 180 175 159 143 142 148 155 153 146 138 142 142 138 146 150 154 160 178 190 198 195 190 186 183 179 174 169 175 170 133 77 30 18 3 0 0 0 0 0 0 0 0 0 0 0 0 0 0 0 0 0 0 0 0 0 0 4 0 0 0 0 0 0 0 0 0 0 0 0 0 0 0 0 0 0 0 0 0 0 0 0 0 0 0 0 0 0 
0 0 0 0 0 0 0 0 0 0 0 0 0 0 0 0 0 0 0 0 0 0 0 0 0 0 0 0 0 12 28 22 26 81 146 163 174 179 173 179 183 170 159 163 169 170 158 137 127 123 129 133 132 129 125 132 130 128 135 154 169 187 201 203 196 187 182 179 174 169 176 161 110 46 22 6 0 0 0 0 0 0 0 0 0 0 0 0 0 0 0 0 0 0 0 0 0 4 0 0 0 0 0 0 0 0 0 0 0 0 0 0 0 0 0 0 0 0 0 0 0 0 0 0 0 0 0 0 
0 0 0 0 0 0 0 0 0 0 0 0 0 0 0 0 0 0 0 0 0 0 0 0 0 0 0 0 23 24 18 45 125 160 168 178 174 178 184 183 178 180 172 156 142 137 126 128 132 129 128 128 124 125 134 141 147 145 140 136 142 154 168 182 199 208 200 189 184 181 175 172 175 137 66 23 10 0 0 0 0 0 0 0 0 0 0 0 0 0 0 0 0 0 0 0 0 5 0 0 0 0 0 0 0 0 0 0 0 0 0 0 0 0 0 0 0 0 0 0 0 0 0 0 0 0 0 0 
0 0 0 0 0 0 0 0 0 0 0 0 0 0 0 0 0 0 0 0 0 0 0 0 0 0 5 27 21 18 74 149 162 174 175 175 184 188 187 185 171 150 139 141 137 138 149 153 150 143 123 115 115 122 139 140 141 152 158 156 148 149 155 162 173 183 195 207 201 188 183 179 171 175 151 82 25 13 0 0 0 0 0 0 0 0 0 0 0 0 0 0 0 0 0 0 0 5 0 0 0 0 0 0 0 0 0 0 0 0 0 0 0 0 0 0 0 0 0 0 0 0 0 0 0 0 0 0 
0 0 0 0 0 0 0 0 0 0 0 0 0 0 0 0 0 0 0 0 0 0 0 0 0 10 27 16 21 100 159 167 178 172 184 190 190 189 173 146 137 144 149 144 139 140 146 151 142 137 128 133 129 121 114 126 130 136 147 156 157 154 149 155 162 165 172 185 198 207 195 186 182 172 173 156 89 27 13 0 0 0 0 0 0 0 0 0 0 0 0 0 0 0 0 0 0 6 0 0 0 0 0 0 0 0 0 0 0 0 0 0 0 0 0 0 0 0 0 0 0 0 0 0 0 0 0 0 
0 0 0 0 0 0 0 0 0 0 0 0 0 0 0 0 0 0 0 0 0 0 0 0 13 24 16 33 114 159 169 177 175 188 190 187 178 154 141 149 163 157 146 138 131 128 116 101 102 101 103 111 104 98 97 102 120 123 120 129 140 149 152 148 146 154 161 163 168 187 204 201 189 185 173 172 160 99 31 11 0 0 0 0 0 0 0 0 0 0 0 0 0 0 0 0 0 6 0 0 0 0 0 0 0 0 0 0 0 0 0 0 0 0 0 0 0 0 0 0 0 0 0 0 0 0 0 0 
0 0 0 0 0 0 0 0 0 0 0 0 0 0 0 0 0 0 0 0 0 0 2 19 22 13 44 127 156 174 177 181 191 179 178 165 141 148 168 166 147 130 121 114 114 102 97 101 106 110 109 99 100 113 114 113 114 121 124 124 123 121 131 145 148 146 144 149 156 158 173 195 202 185 184 173 173 162 110 35 11 0 0 0 0 0 0 0 0 0 0 0 0 0 0 0 0 6 0 0 0 0 0 0 0 0 0 0 0 0 0 0 0 0 0 0 0 0 0 0 0 0 0 0 0 0 0 0 
0 0 0 0 0 0 0 0 0 0 0 0 0 0 0 0 0 0 0 0 0 5 18 16 15 57 137 156 178 175 185 190 170 169 155 141 157 170 159 135 118 110 112 117 112 116 125 130 136 139 138 130 128 139 139 140 141 139 138 137 131 123 117 125 144 141 140 143 144 153 153 155 189 202 185 183 175 175 161 116 36 9 0 0 0 0 0 0 0 0 0 0 0 0 0 0 0 6 0 0 0 0 0 0 0 0 0 0 0 0 0 0 0 0 0 0 0 0 0 0 0 0 0 0 0 0 0 0 
0 0 0 0 0 0 0 0 0 0 0 0 0 0 0 0 0 0 0 0 7 17 14 17 68 143 159 174 178 187 183 158 162 151 145 156 158 140 119 110 113 121 129 133 135 138 134 134 131 128 120 114 114 121 125 128 133 132 127 130 134 137 136 134 135 139 137 133 132 138 149 144 150 185 197 183 181 174 171 160 118 35 5 0 0 0 0 0 0 0 0 0 0 0 0 0 0 6 0 0 0 0 0 0 0 0 0 0 0 0 0 0 0 0 0 0 0 0 0 0 0 0 0 0 0 0 0 0 
0 0 0 0 0 0 0 0 0 0 0 0 0 0 0 0 0 0 0 7 15 13 19 73 141 158 172 178 187 176 148 156 151 143 149 151 132 113 101 108 129 136 138 132 127 118 110 113 109 94 98 102 103 106 113 125 131 133 132 133 135 130 124 130 135 135 135 134 132 132 134 135 131 144 178 193 182 181 174 175 157 114 28 3 0 0 0 0 0 0 0 0 0 0 0 0 0 6 0 0 0 0 0 0 0 0 0 0 0 0 0 0 0 0 0 0 0 0 0 0 0 0 0 0 0 0 0 0 
0 0 0 0 0 0 0 0 0 0 0 0 0 0 0 0 0 0 5 15 12 20 77 140 158 166 179 187 174 148 159 152 136 147 148 128 103 95 113 136 139 138 137 130 119 111 109 108 101 96 100 108 112 116 118 117 117 119 123 130 134 138 137 132 126 127 137 135 133 132 127 133 131 122 138 177 190 181 183 174 172 154 102 21 2 0 0 0 0 0 0 0 0 0 0 0 0 6 0 0 0 0 0 0 0 0 0 0 0 0 0 0 0 0 0 0 0 0 0 0 0 0 0 0 0 0 0 0 
0 0 0 0 0 0 0 0 0 0 0 0 0 0 0 0 0 2 15 12 18 78 135 152 160 181 187 173 146 159 151 131 139 141 124 93 96 128 149 149 147 139 128 120 115 112 110 111 112 115 113 114 115 116 115 112 113 110 109 114 116 123 129 137 139 128 122 134 128 123 131 131 135 129 121 139 180 182 178 178 176 162 147 81 12 0 0 0 0 0 0 0 0 0 0 0 0 7 0 0 0 0 0 0 0 0 0 0 0 0 0 0 0 0 0 0 0 0 0 0 0 0 0 0 0 0 0 0 
0 0 0 0 0 0 0 0 0 0 0 0 0 0 0 0 0 13 12 16 72 131 148 155 173 188 173 141 161 152 127 134 140 127 95 104 136 156 153 144 129 117 111 108 106 105 104 104 113 112 106 98 99 114 118 111 108 103 103 109 111 107 111 120 131 139 131 129 135 114 119 136 131 133 127 121 148 181 176 182 176 174 157 131 53 4 0 0 0 0 0 0 0 0 0 0 0 8 0 0 0 0 0 0 0 0 0 0 0 0 0 0 0 0 0 0 0 0 0 0 0 0 0 0 0 0 0 0 
0 0 0 0 0 0 0 0 0 0 0 0 0 0 0 0 7 13 14 58 125 141 156 168 189 174 139 154 152 123 126 135 121 102 110 137 159 152 137 118 109 106 101 101 102 102 101 100 98 97 96 92 92 108 114 116 115 109 106 99 99 99 97 98 106 125 140 136 137 127 98 112 132 132 131 120 116 154 169 176 180 182 167 152 105 24 1 0 0 0 0 0 0 0 0 0 0 8 0 0 0 0 0 0 0 0 0 0 0 0 0 0 0 0 0 0 0 0 0 0 0 0 0 0 0 0 0 0 
0 0 0 0 0 0 0 0 0 0 0 0 0 0 0 1 14 14 43 118 134 151 160 187 176 142 143 153 122 124 133 113 106 120 138 155 146 130 111 102 96 89 83 81 81 84 86 90 102 105 112 107 98 107 106 105 106 100 100 94 87 90 95 94 96 107 128 141 141 137 115 90 110 132 134 134 117 122 164 159 177 175 178 158 134 72 6 0 0 0 0 0 0 0 0 0 0 9 0 0 0 0 0 0 0 0 0 0 0 0 0 0 0 0 0 0 0 0 0 0 0 0 0 0 0 0 0 0 
0 0 0 0 0 0 0 0 0 0 0 0 0 0 0 8 10 24 100 125 142 153 176 179 151 133 156 129 121 135 119 105 120 129 145 137 123 114 100 87 81 85 86 82 84 89 93 95 106 112 117 117 111 113 114 114 111 106 104 101 92 87 85 84 91 99 115 136 145 145 131 104 90 114 128 140 134 109 141 155 165 170 179 167 151 108 28 1 0 0 0 0 0 0 0 0 0 7 0 0 0 0 0 0 0 0 0 0 0 0 0 0 0 0 0 0 0 0 0 0 0 0 0 0 0 0 0 0 
0 0 0 0 0 0 0 0 0 0 0 0 0 0 1 11 13 66 122 135 148 163 179 155 129 140 139 115 129 132 107 115 120 135 139 113 114 107 92 82 85 89 92 91 95 99 101 100 105 116 116 118 116 115 114 113 112 113 115 111 103 97 94 90 82 84 95 116 138 148 148 123 91 94 116 135 145 114 117 147 147 166 173 169 155 132 65 4 0 0 0 0 0 0 0 0 0 8 0 0 0 0 0 0 0 0 0 0 0 0 0 0 0 0 0 0 0 0 0 0 0 0 0 0 0 0 0 0 
0 0 0 0 0 0 0 0 0 0 0 0 0 0 5 6 35 111 125 144 152 175 166 140 126 136 125 124 137 115 113 118 128 140 125 103 106 101 93 88 89 92 95 95 105 109 111 109 104 108 112 113 109 103 86 81 93 103 107 115 115 113 104 94 87 78 79 95 115 139 150 146 110 85 93 123 147 139 112 132 135 155 165 170 158 143 95 15 0 0 0 0 0 0 0 0 0 8 0 0 0 0 0 0 0 0 0 0 0 0 0 0 0 0 0 0 0 0 0 0 0 0 0 0 0 0 0 0 
0 0 0 0 0 0 0 0 0 0 0 0 0 1 8 14 77 121 135 148 166 169 153 129 121 135 124 131 122 113 118 118 134 130 118 105 109 104 91 94 99 104 109 110 108 110 112 109 108 93 85 96 104 80 68 61 58 81 95 108 115 120 118 112 102 89 80 87 97 115 142 155 141 105 86 100 136 150 122 125 121 150 160 170 161 149 121 33 2 0 0 0 0 0 0 0 0 9 0 0 0 0 0 0 0 0 0 0 0 0 0 0 0 0 0 0 0 0 0 0 0 0 0 0 0 0 0 0 
0 0 0 0 0 0 0 0 0 0 0 0 0 1 7 30 109 121 137 155 170 157 134 125 123 135 124 124 110 119 122 132 132 117 110 113 108 98 95 97 103 108 106 101 97 97 103 106 98 77 68 71 86 66 64 64 67 73 68 88 102 110 117 118 114 102 89 85 88 96 122 150 153 130 96 92 120 143 132 127 112 147 154 171 162 152 132 58 4 0 0 0 0 0 0 0 0 9 0 0 0 0 0 0 0 0 0 0 0 0 0 0 0 0 0 0 0 0 0 0 0 0 0 0 0 0 0 0 
0 0 0 0 0 0 0 0 0 0 0 0 0 5 7 61 120 125 143 164 158 144 125 121 125 131 113 116 112 125 137 137 121 103 108 110 102 96 93 96 99 94 85 82 82 80 78 86 84 72 69 71 81 71 71 77 80 72 66 66 73 90 101 109 118 113 102 90 88 90 103 130 149 147 121 96 109 127 132 133 111 135 152 164 161 151 135 78 6 0 0 0 0 0 0 0 0 9 0 0 0 0 0 0 0 0 0 0 0 0 0 0 0 0 0 0 0 0 0 0 0 0 0 0 0 0 0 0 
0 0 0 0 0 0 0 0 0 0 0 0 0 6 13 91 119 130 149 162 141 133 123 114 131 117 102 115 116 130 143 125 107 96 106 106 101 93 88 89 87 74 65 64 73 72 72 76 80 75 72 74 82 74 79 86 88 84 76 69 66 69 77 96 112 117 116 104 95 93 99 115 134 147 139 110 105 117 127 133 113 123 150 166 162 149 134 97 11 0 0 0 0 0 0 0 0 9 0 0 0 0 0 0 0 0 0 0 0 0 0 0 0 0 0 0 0 0 0 0 0 0 0 0 0 0 0 0 
0 0 0 0 0 0 0 0 0 0 0 0 1 7 31 110 124 134 157 144 126 120 126 118 131 105 105 121 122 130 136 113 100 102 106 102 92 91 91 85 67 61 63 67 71 73 77 83 85 83 82 83 89 84 91 97 93 89 85 77 71 69 70 77 98 111 118 117 114 103 103 105 118 139 146 128 98 113 117 126 115 119 148 164 161 159 144 110 15 0 0 0 0 0 0 0 0 10 0 0 0 0 0 0 0 0 0 0 0 0 0 0 0 0 0 0 0 0 0 0 0 0 0 0 0 0 0 0 
0 0 0 0 0 0 0 0 0 0 0 0 1 7 48 117 124 136 153 129 116 116 131 119 121 95 114 125 118 115 124 101 98 107 109 106 97 91 85 68 61 64 68 71 75 78 84 92 97 99 101 107 105 109 116 115 112 103 92 81 76 75 77 75 81 106 116 129 137 123 108 101 106 123 143 138 92 105 107 122 114 114 141 163 163 156 146 119 24 0 0 0 0 0 0 0 0 10 0 0 0 0 0 0 0 0 0 0 0 0 0 0 0 0 0 0 0 0 0 0 0 0 0 0 0 0 0 0 
0 0 0 0 0 0 0 0 0 0 0 0 1 8 59 120 132 145 152 123 112 121 134 117 109 95 117 124 107 106 109 93 101 112 124 117 99 91 75 64 66 68 72 75 79 83 88 101 110 117 127 135 132 131 131 128 122 120 107 95 86 81 81 79 80 94 128 140 133 128 116 102 100 108 133 142 92 94 102 124 119 112 139 163 161 161 152 126 36 1 0 0 0 0 0 0 0 10 0 0 0 0 0 0 0 0 0 0 0 0 0 0 0 0 0 0 0 0 0 0 0 0 0 0 0 0 0 0 
0 0 0 0 0 0 0 0 0 0 0 0 2 8 67 123 136 150 146 128 119 126 138 113 103 97 121 123 93 99 103 94 106 121 130 124 97 82 81 67 69 73 75 81 83 85 91 102 115 125 133 139 138 121 117 122 116 121 120 107 94 88 86 87 93 111 134 141 129 131 129 115 102 100 118 136 104 91 93 122 119 121 137 163 165 164 155 139 47 2 0 0 0 0 0 0 0 9 0 0 0 0 0 0 0 0 0 0 0 0 0 0 0 0 0 0 0 0 0 0 0 0 0 0 0 0 0 0 
0 0 0 0 0 0 0 0 0 0 0 0 4 9 73 125 137 155 143 131 126 129 136 109 105 106 126 116 87 91 100 97 114 136 133 124 105 87 87 89 83 80 80 84 84 88 94 107 119 125 128 128 131 106 99 104 98 108 124 116 100 93 93 103 113 126 129 134 135 133 133 127 114 102 108 124 108 92 95 121 122 127 137 160 169 166 155 147 55 3 0 0 0 0 0 0 0 9 0 0 0 0 0 0 0 0 0 0 0 0 0 0 0 0 0 0 0 0 0 0 0 0 0 0 0 0 0 0 
0 0 0 0 0 0 0 0 0 0 0 0 4 10 79 125 139 164 140 130 133 136 134 111 112 119 124 110 84 86 101 107 131 139 127 123 118 102 101 106 98 93 98 98 90 90 95 105 119 123 124 119 124 90 82 88 86 98 123 114 99 96 108 117 108 99 99 102 101 97 105 116 123 121 116 120 115 94 97 120 121 131 134 162 167 166 156 152 70 5 0 0 0 0 0 0 0 8 0 0 0 0 0 0 0 0 0 0 0 0 0 0 0 0 0 0 0 0 0 0 0 0 0 0 0 0 0 0 
0 0 0 0 0 0 0 0 0 0 0 0 4 11 86 129 141 165 135 129 137 144 132 109 113 124 124 107 84 85 105 119 132 135 120 96 87 82 80 84 89 97 106 108 100 92 88 97 113 119 116 108 117 85 75 82 88 101 115 102 98 108 103 89 82 80 85 95 99 92 88 88 99 124 136 135 121 100 103 117 121 128 129 159 161 165 158 152 83 6 0 0 0 0 0 0 0 8 0 0 0 0 0 0 0 0 0 0 0 0 0 0 0 0 0 0 0 0 0 0 0 0 0 0 0 0 0 0 
0 0 0 0 0 0 0 0 0 0 0 0 5 12 91 130 146 166 136 130 137 148 130 117 120 132 123 108 88 85 120 126 133 121 86 74 74 73 73 75 80 81 83 90 99 93 92 87 101 119 117 102 107 102 90 94 100 109 104 100 108 94 81 79 82 84 92 102 106 99 91 84 82 104 145 149 133 105 111 119 125 123 123 154 150 161 160 156 95 10 0 0 0 0 0 0 0 8 0 0 0 0 0 0 0 0 0 0 0 0 0 0 0 0 0 0 0 0 0 0 0 0 0 0 0 0 0 0 
0 0 0 0 0 0 0 0 0 0 0 0 6 13 93 131 146 162 134 130 138 146 121 113 126 144 123 109 92 93 129 134 126 94 78 77 75 79 86 95 92 86 81 81 83 96 96 87 88 116 130 113 107 110 110 119 124 119 99 106 95 76 81 86 94 97 102 112 117 114 107 98 94 102 132 159 135 113 117 124 122 116 118 146 143 158 162 159 106 14 0 0 0 0 0 0 0 8 0 0 0 0 0 0 0 0 0 0 0 0 0 0 0 0 0 0 0 0 0 0 0 0 0 0 0 0 0 0 
0 0 0 0 0 0 0 0 0 0 0 0 7 13 92 131 153 168 129 131 131 146 115 108 121 146 137 112 112 114 130 133 105 89 79 79 84 90 96 96 94 93 85 78 76 79 94 95 89 110 128 131 120 111 122 137 133 117 87 95 77 75 77 82 86 86 91 103 110 112 110 109 114 119 122 149 137 118 125 127 124 110 119 142 137 153 163 159 115 19 0 0 0 0 0 0 0 9 0 0 0 0 0 0 0 0 0 0 0 0 0 0 0 0 0 0 0 0 0 0 0 0 0 0 0 0 0 0 
0 0 0 0 0 0 0 0 0 0 0 0 7 14 92 134 159 165 126 126 123 148 116 110 113 139 138 117 120 125 140 130 103 93 86 90 91 89 91 90 88 83 84 80 75 75 85 82 78 93 117 125 119 103 119 131 123 100 81 86 74 70 74 79 81 87 90 100 113 122 125 117 115 113 115 135 140 123 129 133 126 106 117 134 129 141 160 156 121 29 2 0 0 0 0 0 0 8 0 0 0 0 0 0 0 0 0 0 0 0 0 0 0 0 0 0 0 0 0 0 0 0 0 0 0 0 0 0 
0 0 0 0 0 0 0 0 0 0 0 0 8 14 91 134 162 163 127 120 122 145 111 103 108 133 134 116 121 124 137 140 124 111 93 90 89 86 84 79 80 77 76 76 80 77 78 79 76 91 112 118 102 96 105 112 109 102 82 84 74 71 76 88 98 104 99 96 103 107 107 111 107 103 114 127 143 133 130 150 130 99 108 130 118 128 155 152 125 38 2 0 0 0 0 0 0 8 0 0 0 0 0 0 0 0 0 0 0 0 0 0 0 0 0 0 0 0 0 0 0 0 0 0 0 0 0 0 
0 0 0 0 0 0 0 0 0 0 0 0 8 17 96 140 167 155 115 109 123 138 105 92 101 130 135 118 113 111 128 123 104 93 88 90 91 87 83 78 78 75 72 73 77 80 78 80 75 90 112 105 90 102 99 99 111 101 89 81 71 75 87 101 105 100 85 79 89 97 101 102 103 105 115 127 145 138 127 156 129 95 99 126 106 122 157 153 130 45 2 0 0 0 0 0 0 8 0 0 0 0 0 0 0 0 0 0 0 0 0 0 0 0 0 0 0 0 0 0 0 0 0 0 0 0 0 0 
0 0 0 0 0 0 0 0 0 0 0 0 9 17 96 142 169 151 114 104 119 133 91 79 93 123 128 122 102 99 120 120 95 81 82 87 84 82 84 83 83 77 74 73 75 75 85 84 82 95 120 105 97 97 90 103 119 115 95 75 78 91 97 92 85 87 82 78 88 99 101 101 97 104 113 125 141 137 124 158 134 94 95 113 101 113 146 153 134 54 2 0 0 0 0 0 0 8 0 0 0 0 0 0 0 0 0 0 0 0 0 0 0 0 0 0 0 0 0 0 0 0 0 0 0 0 0 0 
0 0 0 0 0 0 0 0 0 0 0 0 9 19 94 144 166 143 115 101 112 129 77 78 91 112 123 135 110 95 112 126 89 80 75 82 85 79 83 83 97 100 90 83 76 75 77 72 70 105 130 123 105 83 85 89 110 112 88 84 95 85 79 77 86 97 85 82 90 98 100 100 95 103 113 130 146 136 126 164 135 90 95 111 104 113 129 141 135 58 2 0 0 0 0 0 0 7 0 0 0 0 0 0 0 0 0 0 0 0 0 0 0 0 0 0 0 0 0 0 0 0 0 0 0 0 0 0 
0 0 0 0 0 0 0 0 0 0 0 0 8 18 91 144 161 128 118 91 109 121 76 82 83 103 138 141 115 95 102 128 94 77 75 81 82 80 85 87 89 89 87 88 89 88 87 84 72 94 107 112 96 91 102 93 101 112 86 86 82 77 76 83 101 95 88 80 87 98 101 98 91 97 113 138 145 130 131 168 133 88 96 102 110 114 121 138 136 59 2 0 0 0 0 0 0 7 0 0 0 0 0 0 0 0 0 0 0 0 0 0 0 0 0 0 0 0 0 0 0 0 0 0 0 0 0 0 
0 0 0 0 0 0 0 0 0 0 0 0 7 19 87 142 156 118 114 91 109 122 80 85 84 98 145 139 120 101 103 129 99 75 78 82 82 81 83 86 96 89 80 77 73 78 87 77 67 82 97 99 71 70 80 65 79 101 83 86 88 81 78 94 98 91 85 79 87 99 101 97 94 99 116 143 147 129 124 166 131 89 99 92 111 108 121 143 131 58 1 0 0 0 0 0 0 7 0 0 0 0 0 0 0 0 0 0 0 0 0 0 0 0 0 0 0 0 0 0 0 0 0 0 0 0 0 0 
0 0 0 0 0 0 0 0 0 0 0 0 5 18 81 138 155 117 110 94 105 116 84 85 79 87 141 141 123 109 107 125 104 75 77 79 84 85 83 82 94 101 86 73 72 78 79 70 70 82 103 76 67 66 77 70 78 106 92 81 82 81 81 98 98 91 86 82 90 102 103 98 98 106 117 136 130 109 113 161 131 91 101 89 113 106 122 142 123 55 1 0 0 0 0 0 0 6 0 0 0 0 0 0 0 0 0 0 0 0 0 0 0 0 0 0 0 0 0 0 0 0 0 0 0 0 0 0 
0 0 0 0 0 0 0 0 0 0 0 0 4 17 74 132 155 120 112 101 101 110 93 80 79 80 132 140 124 114 112 122 105 72 73 80 83 88 87 88 91 96 90 73 74 73 80 66 70 90 98 70 64 68 78 70 67 93 102 80 79 78 78 87 96 94 85 78 85 101 105 104 107 113 111 132 117 100 112 151 135 96 100 91 110 102 130 137 116 50 1 0 0 0 0 0 0 6 0 0 0 0 0 0 0 0 0 0 0 0 0 0 0 0 0 0 0 0 0 0 0 0 0 0 0 0 0 0 
0 0 0 0 0 0 0 0 0 0 0 0 2 17 70 127 156 124 109 104 98 103 98 78 79 73 122 135 123 124 120 121 110 75 73 78 83 88 91 96 95 94 75 69 68 68 68 66 69 101 66 65 64 70 84 74 67 67 107 80 88 79 75 88 98 95 87 75 81 102 106 111 112 112 106 127 118 108 118 140 136 98 102 97 106 101 134 130 108 46 1 0 0 0 0 0 0 6 0 0 0 0 0 0 0 0 0 0 0 0 0 0 0 0 0 0 0 0 0 0 0 0 0 0 0 0 0 0 
0 0 0 0 0 0 0 0 0 7 8 0 1 14 63 120 155 130 104 104 98 103 104 84 83 72 114 126 120 129 127 119 120 85 76 84 83 82 86 88 90 94 82 69 74 82 76 73 82 91 59 65 63 81 85 70 71 67 84 96 100 112 100 99 101 95 93 91 96 112 117 118 112 104 101 118 103 97 127 140 138 99 102 96 103 107 133 129 105 42 0 0 0 0 0 0 0 7 0 0 0 0 0 0 0 0 0 0 0 0 0 0 0 0 0 0 0 0 0 0 0 0 0 0 0 0 0 0 
0 0 0 0 0 0 0 0 0 4 8 3 1 10 58 110 145 132 100 101 97 104 109 93 85 76 109 118 117 133 134 119 130 108 83 80 80 80 82 84 95 95 98 84 83 96 88 74 86 80 67 73 64 71 84 79 72 67 74 110 105 114 119 128 120 101 94 98 106 113 113 108 107 91 99 105 92 105 119 128 137 107 100 88 100 109 135 127 97 39 1 0 0 0 0 0 0 7 0 0 0 0 0 0 0 0 0 0 0 0 0 0 0 0 0 0 0 0 0 0 0 0 0 0 0 0 0 0 
0 0 0 0 0 0 0 0 0 2 0 5 3 9 50 101 134 135 96 95 94 100 113 108 88 80 110 109 114 131 136 132 127 131 101 87 89 92 90 94 95 88 82 80 112 118 88 69 99 70 56 61 61 72 73 72 75 74 72 114 114 100 79 99 131 127 123 117 112 107 104 115 124 118 102 93 109 112 119 121 143 118 94 81 104 111 133 123 92 33 0 0 0 0 0 0 0 7 0 0 0 0 0 0 0 0 0 0 0 0 0 0 0 0 0 0 0 0 0 0 0 0 0 0 0 0 0 0 
0 0 0 0 0 0 0 0 0 0 0 7 6 7 40 92 124 138 97 86 101 96 108 114 95 88 119 102 110 128 138 137 122 120 121 104 100 98 99 95 95 104 101 100 104 100 79 78 104 56 56 61 59 78 70 69 76 76 75 112 123 89 86 97 105 114 135 141 152 151 150 148 147 115 106 111 95 99 123 131 148 128 85 87 108 119 134 121 82 22 0 0 2 11 2 0 0 6 0 0 0 0 0 0 0 0 0 0 0 0 0 0 0 0 0 0 0 0 0 0 0 0 0 0 0 0 0 0 
0 0 0 0 0 0 0 0 0 0 0 11 7 7 30 85 116 138 113 89 101 94 102 109 99 100 127 93 102 124 134 129 122 123 130 133 136 126 121 121 115 110 94 84 85 77 71 76 100 59 58 64 64 76 66 62 77 78 79 114 125 81 86 97 97 118 161 165 161 160 165 161 150 122 94 102 102 104 132 137 147 127 93 117 101 138 141 116 77 16 3 1 4 1 2 0 0 6 0 0 0 0 0 0 0 0 0 0 0 0 0 0 0 0 0 0 0 0 0 0 0 0 0 0 0 0 0 0 
0 0 0 0 0 0 0 0 0 0 0 17 8 9 23 80 114 139 127 95 93 98 98 109 100 116 120 92 103 118 117 111 113 135 141 138 132 122 120 106 107 105 91 94 83 73 70 85 109 84 59 65 74 80 79 65 73 79 96 123 124 92 92 96 92 117 145 166 178 172 151 153 152 132 111 104 104 132 144 132 143 124 104 129 122 151 107 101 67 12 1 0 3 0 0 0 0 7 0 0 0 0 0 0 0 0 0 0 0 0 0 0 0 0 0 0 0 0 0 0 0 0 0 0 0 0 0 0 
0 0 0 0 0 0 0 0 0 0 0 18 6 10 15 68 108 133 145 109 88 94 98 115 108 128 116 93 104 118 122 129 132 138 140 139 124 118 116 110 106 95 84 84 81 76 65 78 107 93 74 79 81 103 94 75 80 87 100 110 108 92 103 110 104 115 130 154 175 144 108 136 146 147 138 132 129 150 162 143 139 148 127 135 151 150 88 86 52 8 3 0 3 0 0 0 0 7 0 0 0 0 0 0 0 0 0 0 0 0 0 0 0 0 0 0 0 0 0 0 0 0 0 0 0 0 0 0 
0 0 0 0 0 0 0 0 0 0 0 16 4 6 14 58 104 124 154 124 96 93 112 124 112 141 128 102 102 111 131 136 139 137 144 151 154 151 145 119 103 89 71 73 79 74 73 86 91 81 70 86 100 120 89 82 85 91 116 110 102 87 98 99 111 134 143 144 157 141 132 142 154 150 150 142 140 141 149 126 133 174 161 154 178 117 104 91 29 8 6 3 4 0 0 0 0 6 0 0 0 0 0 0 0 0 0 0 0 0 0 0 0 0 0 0 0 0 0 0 0 0 0 0 0 0 0 0 
0 0 0 0 0 0 0 0 0 0 2 17 7 5 8 40 103 122 153 139 124 121 131 142 117 144 144 120 104 97 125 151 149 147 163 172 176 167 151 124 111 92 75 74 81 81 92 109 90 82 80 88 104 121 93 86 82 90 108 112 89 95 97 102 116 138 144 136 141 145 132 130 136 139 142 147 151 156 153 126 124 170 170 155 154 94 107 76 13 9 8 5 4 0 0 0 0 5 0 0 0 0 0 0 0 0 0 0 0 0 0 0 0 0 0 0 0 0 0 0 0 0 0 0 0 0 0 0 
0 0 0 0 0 0 0 0 0 0 0 10 13 5 6 9 62 114 142 157 129 149 154 138 142 148 137 111 109 104 132 160 159 145 160 166 182 173 142 105 99 87 90 79 79 87 94 111 95 85 97 112 103 119 111 86 75 91 93 95 109 94 106 101 90 122 139 132 131 122 113 120 143 147 158 148 144 151 162 156 152 181 176 163 146 75 106 87 18 11 10 8 2 3 0 0 0 4 0 0 0 0 0 0 0 0 0 0 0 0 0 0 0 0 0 0 0 0 0 0 0 0 0 0 0 0 0 0 
0 0 0 0 0 0 0 0 0 0 0 10 12 3 4 7 40 104 131 161 142 148 146 137 150 167 153 129 112 104 151 157 157 167 164 159 159 159 132 87 74 84 91 79 80 84 87 105 90 88 114 116 108 119 112 79 72 82 76 71 95 84 84 117 108 114 126 132 136 119 102 139 140 145 155 152 138 146 142 143 156 175 163 151 111 107 115 57 8 7 10 7 1 3 0 0 0 4 0 0 0 0 0 0 0 0 0 0 0 0 0 0 0 0 0 0 0 0 0 0 0 0 0 0 0 0 0 0 
0 0 0 0 0 0 0 0 0 0 0 9 6 4 3 7 26 88 123 166 167 134 125 102 131 158 155 114 111 111 128 151 148 161 156 151 145 156 143 112 85 81 88 82 78 76 83 86 97 108 107 107 105 126 129 106 80 71 65 60 86 108 110 128 110 106 122 129 131 110 114 122 107 122 145 151 146 152 132 145 170 173 152 129 111 110 99 30 7 5 8 6 0 3 0 0 0 4 0 0 0 0 0 0 0 0 0 0 0 0 0 0 0 0 0 0 0 0 0 0 0 0 0 0 0 0 0 0 
0 0 0 0 0 0 0 0 0 0 1 6 4 5 1 9 22 66 118 154 166 114 130 141 113 115 142 121 114 120 110 134 143 153 154 147 143 148 145 121 100 91 91 88 89 96 110 92 122 120 105 104 103 105 132 140 97 82 70 73 102 137 133 136 106 99 106 95 91 83 101 112 101 114 124 138 152 147 145 158 168 165 158 125 89 104 73 17 7 7 7 1 0 4 0 0 0 4 0 0 0 0 0 0 0 0 0 0 0 0 0 0 0 0 0 0 0 0 0 0 0 0 0 0 0 0 0 0 
0 0 0 0 0 0 0 0 0 0 3 6 2 2 8 13 20 38 102 122 161 147 139 141 127 108 106 125 124 122 131 125 113 110 142 156 158 147 141 110 104 105 111 107 106 119 124 101 110 109 118 113 106 107 126 115 106 108 108 111 121 136 146 148 120 97 75 70 78 81 104 113 126 125 134 152 147 133 159 173 172 174 142 82 71 94 46 13 8 5 2 0 0 6 0 0 0 3 0 0 0 0 0 0 0 0 0 0 0 0 0 0 0 0 0 0 0 0 0 0 0 0 0 0 0 0 0 0 
0 0 0 0 0 0 0 0 0 0 3 7 2 0 5 13 17 19 79 117 151 163 150 149 116 118 119 139 146 142 137 132 105 87 119 135 148 145 131 111 97 108 109 117 114 110 103 99 105 102 112 115 115 114 132 116 101 104 113 108 126 141 134 152 129 88 67 69 76 91 124 136 121 128 132 144 134 139 165 180 165 132 114 69 97 83 17 9 6 5 1 0 0 5 0 0 0 3 0 0 0 0 0 0 0 0 0 0 0 0 0 0 0 0 0 0 0 0 0 0 0 0 0 0 0 0 0 0 
0 0 0 0 0 0 0 0 0 0 4 8 3 0 1 4 16 14 46 113 138 163 161 140 128 119 132 140 142 139 137 106 90 88 109 120 123 115 104 110 107 109 112 119 130 128 114 119 145 140 147 145 140 140 140 130 133 140 140 138 144 150 145 148 134 89 88 82 98 133 126 104 115 136 127 124 138 165 159 145 152 127 91 79 108 59 9 6 6 6 2 0 0 6 0 0 0 3 0 0 0 0 0 0 0 0 0 0 0 0 0 0 0 0 0 0 0 0 0 0 0 0 0 0 0 0 0 0 
0 0 0 0 0 0 0 0 0 0 4 9 5 0 0 2 8 15 27 93 120 134 142 141 140 130 138 137 131 118 135 123 104 99 106 121 103 83 72 95 107 113 133 141 152 148 132 132 161 174 169 161 169 178 169 161 156 152 145 147 154 164 155 138 125 111 124 137 144 130 93 96 127 139 115 121 138 168 135 137 134 119 103 108 99 37 6 5 3 5 3 0 1 7 2 0 0 3 0 0 0 0 0 0 0 0 0 0 0 0 0 0 0 0 0 0 0 0 0 0 0 0 0 0 0 0 0 0 
0 0 0 0 0 0 0 0 0 0 1 8 7 0 0 2 6 11 19 67 112 132 113 106 133 153 149 148 143 105 128 137 123 101 101 129 123 87 82 84 111 122 134 137 145 144 144 152 168 159 137 132 124 129 149 158 154 133 114 114 122 150 160 147 146 152 138 131 130 107 92 101 119 121 106 133 150 162 128 134 136 136 128 123 85 20 3 5 1 4 4 0 2 7 4 0 0 2 0 0 0 0 0 0 0 0 0 0 0 0 0 0 0 0 0 0 0 0 0 0 0 0 0 0 0 0 0 0 
0 0 0 0 0 0 0 0 0 0 0 3 8 2 0 2 8 8 12 41 95 121 126 91 122 135 164 161 139 121 119 118 120 112 107 110 120 125 128 130 136 160 160 155 173 154 143 149 147 136 113 110 107 103 112 126 132 127 119 119 124 152 180 161 156 153 132 129 135 109 91 89 95 98 101 149 145 162 135 122 106 121 139 116 67 13 3 4 0 0 0 0 5 8 4 0 0 2 0 0 0 0 0 0 0 0 0 0 0 0 0 0 0 0 0 0 0 0 0 0 0 0 0 0 0 0 0 0 
0 0 0 0 0 0 0 0 0 0 0 3 14 9 3 1 9 6 11 25 71 110 142 94 117 125 146 158 133 127 136 117 101 100 107 115 115 109 107 112 129 158 189 188 178 154 155 146 117 114 118 132 140 151 140 129 152 159 139 125 121 142 152 155 157 152 164 163 134 101 80 90 101 101 143 152 135 158 149 116 82 110 97 97 50 14 2 4 2 0 0 0 6 8 4 0 0 1 0 0 0 0 0 0 0 0 0 0 0 0 0 0 0 0 0 0 0 0 0 0 0 0 0 0 0 0 0 0 
0 0 0 0 0 0 0 0 0 0 0 6 16 12 10 3 9 8 10 19 54 94 146 136 125 122 140 146 140 146 151 144 127 90 78 84 96 103 102 96 104 140 178 193 180 149 164 149 125 130 152 159 164 177 170 136 157 174 147 119 125 146 133 163 164 153 176 175 154 134 98 84 83 119 156 149 159 172 162 102 91 99 91 75 33 12 2 1 3 3 1 0 7 9 2 0 0 1 0 0 0 0 0 0 0 0 0 0 0 0 0 0 0 0 0 0 0 0 0 0 0 0 0 0 0 0 0 0 
0 0 0 0 0 0 0 0 0 0 0 2 10 9 12 11 7 12 14 16 31 71 131 115 100 112 129 152 159 164 150 152 147 90 82 79 75 89 90 94 96 138 170 179 186 156 152 139 125 144 161 173 167 181 174 145 147 155 148 112 126 140 126 143 175 162 180 173 152 149 100 81 114 148 152 138 159 152 133 114 118 118 87 45 21 10 5 4 6 4 3 1 10 5 0 0 0 1 0 0 0 0 0 0 0 0 0 0 0 0 0 0 0 0 0 0 0 0 0 0 0 0 0 0 0 0 0 0 
0 0 0 0 0 0 0 0 0 0 0 1 9 9 9 9 8 11 13 15 20 41 108 125 110 92 106 143 150 162 143 141 153 123 92 85 90 94 93 98 126 153 164 164 166 145 125 118 116 112 154 167 149 174 165 133 136 141 136 113 152 153 124 142 150 150 181 164 142 154 162 107 130 147 123 114 134 120 86 76 103 118 75 33 12 8 6 4 5 2 4 8 14 2 0 0 0 0 0 0 0 0 0 0 0 0 0 0 0 0 0 0 0 0 0 0 0 0 0 0 0 0 0 0 0 0 0 0 
0 0 0 0 0 0 0 0 0 0 0 0 8 10 5 5 6 5 11 16 19 27 71 114 91 74 102 140 132 149 145 130 130 127 114 97 81 79 98 141 126 140 156 149 153 146 144 149 172 169 189 198 188 195 189 176 166 169 170 163 166 157 164 180 154 155 164 156 168 169 177 133 137 133 103 73 87 88 71 69 113 96 42 19 8 1 1 4 4 7 8 8 10 3 0 0 0 0 0 0 0 0 0 0 0 0 0 0 0 0 0 0 0 0 0 0 0 0 0 0 0 0 0 0 0 0 0 0 
0 0 0 0 0 0 0 0 0 0 0 0 3 10 5 1 3 6 4 12 21 24 30 87 107 70 85 101 91 134 138 126 134 134 120 104 106 97 111 124 165 173 201 200 183 193 179 193 210 188 193 211 197 178 168 152 147 168 172 182 172 144 183 211 219 191 195 183 161 140 133 147 116 88 74 55 69 73 88 89 90 49 23 16 7 3 0 1 1 1 5 8 7 0 0 0 0 0 0 0 0 0 0 0 0 0 0 0 0 0 0 0 0 0 0 0 0 0 0 0 0 0 0 0 0 0 0 0 
0 0 0 0 0 0 0 0 0 0 0 0 0 4 5 2 1 0 2 9 14 17 16 41 95 96 76 42 56 68 102 90 116 132 136 128 127 134 140 125 150 159 155 170 184 187 208 190 200 184 187 195 160 140 129 144 142 127 131 147 162 168 186 204 194 164 181 189 140 96 98 99 99 85 67 67 76 53 51 55 46 37 33 25 19 0 0 0 0 0 5 8 7 0 0 0 0 0 0 0 0 0 0 0 0 0 0 0 0 0 0 0 0 0 0 0 0 0 0 0 0 0 0 0 0 0 0 0 
0 0 0 0 0 0 0 0 0 0 0 0 0 1 7 6 5 1 2 4 9 12 16 19 32 46 30 37 55 58 80 47 83 102 98 101 77 74 72 60 83 112 122 119 132 138 151 140 167 145 120 108 113 100 106 118 108 107 112 130 129 125 111 150 112 131 146 87 73 68 55 86 69 38 40 71 81 56 32 29 31 26 19 7 3 0 2 4 5 5 4 10 2 0 0 0 0 0 0 0 0 0 0 0 0 0 0 0 0 0 0 0 0 0 0 0 0 0 0 0 0 0 0 0 0 0 0 0 
0 0 0 0 0 0 0 0 0 0 0 0 0 0 0 5 6 4 0 1 5 9 12 13 21 20 22 31 58 56 83 48 65 96 92 63 48 46 51 61 86 88 89 97 104 96 102 101 99 97 66 59 97 106 103 86 50 64 88 105 101 114 92 73 75 106 99 80 85 62 57 82 62 34 34 64 85 62 37 28 28 24 13 5 2 1 3 3 4 5 3 3 0 0 0 0 0 0 0 0 0 0 0 0 0 0 0 0 0 0 0 0 0 0 0 0 0 0 0 0 0 0 0 0 0 0 0 0 
0 0 0 0 0 0 0 0 0 0 0 0 0 0 0 0 0 3 0 0 4 8 9 16 16 25 22 31 62 60 84 50 57 93 100 56 41 56 130 93 103 142 96 98 110 109 97 117 110 76 59 68 106 120 115 86 77 84 96 116 109 132 113 85 88 102 128 77 91 82 93 131 133 87 66 78 94 64 35 31 30 25 17 11 3 0 0 0 0 0 0 0 0 0 0 0 0 1 0 0 0 0 0 0 0 0 0 0 0 0 0 0 0 0 0 0 0 0 0 0 0 0 0 0 0 0 0 0 
0 0 0 0 0 0 0 0 0 0 0 0 0 0 0 0 0 0 0 0 0 2 5 8 10 30 31 49 84 82 92 61 54 93 112 107 79 127 117 131 129 154 159 156 137 131 141 125 95 79 85 89 101 123 132 127 126 134 134 145 150 158 164 153 160 155 164 125 113 95 118 155 139 127 126 110 101 69 48 34 24 4 1 2 0 0 0 0 0 0 0 0 0 0 0 0 0 2 0 0 0 0 0 0 0 0 0 0 0 0 0 0 0 0 0 0 0 0 0 0 0 0 0 0 0 0 0 0 
0 0 0 0 0 0 0 0 0 0 0 0 0 0 0 0 0 0 0 0 0 0 4 6 4 16 27 50 80 83 78 76 98 122 148 142 146 131 85 75 125 140 157 176 164 143 188 157 103 135 129 135 140 153 157 148 155 173 177 158 156 181 185 180 151 176 169 123 138 119 111 163 152 120 82 82 93 45 38 42 43 18 16 4 0 0 0 0 0 0 0 0 0 0 0 0 0 4 0 0 0 0 0 0 0 0 0 0 0 0 0 0 0 0 0 0 0 0 0 0 0 0 0 0 0 0 0 0 
0 0 0 0 0 0 0 0 0 0 0 0 0 0 0 0 0 0 0 0 0 0 1 3 7 13 28 32 48 58 64 49 44 70 71 80 128 135 102 89 122 102 117 85 92 105 122 139 132 120 127 119 119 131 133 129 126 136 151 150 157 164 160 137 163 150 140 104 131 123 79 67 58 37 68 87 93 50 36 34 20 2 3 1 0 0 0 0 0 0 0 0 0 0 0 0 2 16 0 0 0 0 0 0 0 0 0 0 0 0 0 0 0 0 0 0 0 0 0 0 0 0 0 0 0 0 0 0 
0 0 0 0 0 0 0 0 0 0 0 0 0 0 0 0 0 0 0 0 0 0 4 7 7 13 23 20 29 46 60 70 37 69 50 30 36 100 69 145 131 101 81 69 55 90 132 138 93 72 92 87 98 113 124 117 102 103 112 108 123 123 104 91 82 104 124 126 97 82 59 37 56 45 55 87 86 31 16 18 20 7 4 1 0 0 0 0 0 0 0 0 0 0 0 0 0 2 0 0 0 0 0 0 0 0 0 0 0 0 0 0 0 0 0 0 0 0 0 0 0 0 0 0 0 0 0 0 
0 0 0 0 0 0 0 0 0 0 0 0 0 0 0 0 0 0 0 0 0 0 2 6 8 13 19 20 23 42 51 85 43 79 42 29 33 44 82 106 106 76 78 96 101 124 151 141 102 85 95 89 96 112 113 92 99 119 134 126 116 104 83 62 70 99 100 104 103 93 65 37 41 52 59 92 83 35 18 22 18 11 5 1 0 0 0 0 0 0 0 0 0 0 0 0 0 0 0 0 0 0 0 0 0 0 0 0 0 0 0 0 0 0 0 0 0 0 0 0 0 0 0 0 0 0 0 0 
0 0 0 0 0 0 0 0 0 0 0 0 0 0 0 0 0 0 0 0 0 0 1 5 7 10 15 20 23 38 41 83 50 80 44 41 65 79 96 102 89 69 75 87 107 137 130 112 113 97 94 92 107 123 121 101 112 114 130 134 120 115 118 96 94 88 106 112 122 119 92 55 48 62 61 94 82 40 19 21 18 11 5 0 0 0 0 0 0 0 0 0 0 0 0 0 0 0 0 0 0 0 0 0 0 0 0 0 0 0 0 0 0 0 0 0 0 0 0 0 0 0 0 0 0 0 0 0 
0 0 0 0 0 0 0 0 0 0 0 0 0 0 0 0 0 0 0 0 0 0 0 3 7 8 15 19 23 35 35 83 62 86 51 73 94 76 62 69 61 57 70 87 112 137 122 82 101 123 111 100 115 120 120 117 109 102 111 114 109 134 126 115 112 82 100 109 109 109 101 87 93 89 76 94 78 43 22 21 17 10 3 0 0 0 0 0 0 0 0 0 0 0 0 0 0 0 0 0 0 0 0 0 0 0 0 0 0 0 0 0 0 0 0 0 0 0 0 0 0 0 0 0 0 0 0 0 
0 0 0 0 0 0 0 0 0 0 0 0 0 0 0 0 0 0 0 0 0 0 0 0 4 7 10 16 22 32 35 77 70 88 54 92 85 47 54 52 54 64 73 103 124 143 120 82 103 123 108 87 105 108 112 119 107 98 104 88 87 113 87 100 125 101 101 88 96 85 85 78 102 118 102 94 77 41 28 19 16 10 2 0 0 0 0 0 0 0 0 0 0 0 0 0 0 0 0 0 0 0 0 0 0 0 0 0 0 0 0 0 0 0 0 0 0 0 0 0 0 0 0 0 0 0 0 0 
0 0 0 0 0 0 0 0 0 0 0 0 0 0 0 0 0 0 0 0 0 0 0 0 1 3 9 12 19 27 42 77 69 86 57 93 75 50 47 40 64 63 87 112 111 136 116 101 100 98 97 92 89 95 108 105 101 98 94 76 90 108 88 101 123 114 112 83 71 60 49 53 80 118 114 92 81 38 20 16 16 7 1 0 0 0 0 0 0 0 0 0 0 0 0 0 0 0 0 0 0 0 0 0 0 0 0 0 0 0 0 0 0 0 0 0 0 0 0 0 0 0 0 0 0 0 0 0 
0 0 0 0 0 0 0 0 0 0 0 0 0 0 0 0 0 0 0 0 0 0 0 0 0 2 5 12 14 21 28 56 55 67 55 89 77 57 43 44 65 73 99 90 88 123 121 102 71 74 89 101 87 93 102 102 100 93 89 107 105 92 87 91 108 101 90 100 74 60 40 59 76 103 91 84 41 19 17 16 15 9 1 0 0 0 0 0 0 0 0 0 0 0 0 0 0 0 0 0 0 0 0 0 0 0 0 0 0 0 0 0 0 0 0 0 0 0 0 0 0 0 0 0 0 0 0 0 
0 0 0 0 0 0 0 0 0 0 0 0 0 0 0 0 0 0 0 0 0 0 0 0 0 3 2 10 15 17 22 33 52 39 53 89 88 61 39 47 65 78 78 72 82 119 121 93 58 66 100 120 109 92 90 95 97 97 113 121 99 81 75 81 107 99 66 78 90 65 37 55 93 111 71 35 14 16 18 17 16 11 0 0 0 0 0 0 0 0 0 0 0 0 0 0 0 0 0 0 0 0 0 0 0 0 0 0 0 0 0 0 0 0 0 0 0 0 0 0 0 0 0 0 0 0 0 0 
0 0 0 0 0 0 0 0 0 0 0 0 0 0 0 0 0 0 0 0 0 0 0 0 0 0 2 3 12 17 21 20 20 19 32 87 104 59 36 51 66 73 57 61 76 109 124 96 67 72 98 120 122 111 98 98 111 118 121 116 89 71 68 75 112 108 76 66 91 70 41 41 93 125 61 25 14 14 17 18 15 10 0 0 0 0 0 0 0 0 0 0 0 0 0 0 0 0 0 0 0 0 0 0 0 0 0 0 0 0 0 0 0 0 0 0 0 0 0 0 0 0 0 0 0 0 0 0 
0 0 0 0 0 0 0 0 0 0 0 0 0 0 0 0 0 0 0 0 0 0 0 0 0 0 1 1 11 14 19 19 20 18 13 38 87 63 39 51 86 95 53 46 63 107 112 102 99 86 93 120 139 137 129 121 127 134 125 104 80 70 82 101 135 116 65 56 98 97 57 47 88 90 30 19 12 16 18 18 13 8 0 0 0 0 0 0 0 0 0 0 0 0 0 0 0 0 0 0 0 0 0 0 0 0 0 0 0 0 0 0 0 0 0 0 0 0 0 0 0 0 0 0 0 0 0 0 
0 0 0 0 0 0 0 0 0 0 0 0 0 0 0 0 0 0 0 0 0 0 0 0 0 0 0 2 7 10 15 20 18 18 14 17 49 84 68 82 115 99 49 47 66 119 121 88 96 100 80 111 134 141 141 130 134 148 140 111 80 77 104 112 137 128 70 52 86 125 98 80 94 42 25 16 11 16 17 15 11 7 1 0 0 0 0 0 0 0 0 0 0 0 0 0 0 0 0 0 0 0 0 0 0 0 0 0 0 0 0 0 0 0 0 0 0 0 0 0 0 0 0 0 0 0 0 0 
0 0 0 0 0 0 0 0 0 0 0 0 0 0 0 0 0 0 0 0 0 0 0 0 0 0 0 3 4 8 11 18 17 17 15 14 17 44 79 85 100 84 54 52 91 132 116 77 74 97 94 111 127 133 131 130 137 142 141 112 91 76 99 104 127 137 89 59 67 101 90 82 43 23 20 16 11 16 15 15 10 7 0 0 0 0 0 0 0 0 0 0 0 0 0 0 0 0 0 0 0 0 0 0 0 0 0 0 0 0 0 0 0 0 0 0 0 0 0 0 0 0 0 0 0 0 0 0 
0 0 0 0 0 0 0 0 0 0 0 0 0 0 0 0 0 0 0 0 0 0 0 0 0 0 0 1 2 8 8 16 16 15 15 12 16 17 26 39 50 68 66 68 99 138 135 94 95 114 104 116 131 130 119 115 122 127 135 123 111 83 82 90 126 138 101 80 76 61 41 36 25 21 18 17 12 12 14 13 10 6 0 0 0 0 0 0 0 0 0 0 0 0 0 0 0 0 0 0 0 0 0 0 0 0 0 0 0 0 0 0 0 0 0 0 0 0 0 0 0 0 0 0 0 0 0 0 
0 0 0 0 0 0 0 0 0 0 0 0 0 0 0 0 0 0 0 0 0 0 0 0 0 0 0 0 1 8 7 13 15 12 13 14 14 17 23 30 31 50 71 68 90 138 135 113 98 100 115 132 130 121 102 88 93 109 132 130 124 97 91 95 123 132 103 89 78 42 32 31 25 20 17 15 10 14 12 11 9 5 0 0 0 0 0 0 0 0 0 0 0 0 0 0 0 0 0 0 0 0 0 0 0 0 0 0 0 0 0 0 0 0 0 0 0 0 0 0 0 0 0 0 0 0 0 0 
0 0 0 0 0 0 0 0 0 0 0 0 0 0 0 0 0 0 0 0 0 0 0 0 0 0 0 0 0 6 8 9 15 14 12 16 14 18 20 28 29 33 38 51 63 86 116 109 91 96 109 121 107 92 86 82 78 89 112 115 117 101 102 110 121 95 71 63 46 39 30 31 22 19 14 12 10 14 12 11 10 5 0 0 0 0 0 0 0 0 0 0 0 0 0 0 0 0 0 0 0 0 0 0 0 0 0 0 0 0 0 0 0 0 0 0 0 0 0 0 0 0 0 0 0 0 0 0 
0 0 0 0 0 0 0 0 0 0 0 0 0 0 0 0 0 0 0 0 0 0 0 0 0 0 0 0 0 4 8 8 14 14 12 17 15 17 20 26 28 34 29 32 43 57 76 104 106 86 86 98 90 83 85 88 83 81 97 99 105 84 102 120 88 42 38 40 43 40 25 30 23 21 12 11 12 13 11 12 10 3 0 0 0 0 0 0 0 0 0 0 0 0 0 0 0 0 0 0 0 0 0 0 0 0 0 0 0 0 0 0 0 0 0 0 0 0 0 0 0 0 0 0 0 0 0 0 
