P2
128 99
253
0 0 0 0 0 0 0 0 0 0 0 0 0 0 0 0 0 0 0 0 0 0 0 0 0 0 0 0 0 0 0 0 0 0 0 0 0 0 0 0 0 0 0 0 0 0 0 0 0 0 0 0 0 0 0 0 0 0 0 0 0 0 0 0 0 0 0 0 0 0 0 0 0 0 0 0 0 0 0 0 0 0 0 0 0 0 0 0 0 0 0 0 0 0 0 0 0 0 0 0 0 0 0 0 0 0 0 0 0 0 0 0 0 0 0 0 0 0 0 0 0 0 0 0 0 0 0 0 
0 0 0 0 0 0 0 0 0 0 0 0 0 0 0 0 0 0 0 0 0 0 0 0 0 0 0 0 0 0 0 0 0 0 0 0 0 0 0 0 0 0 0 0 0 0 0 0 0 0 0 0 0 0 0 0 0 0 0 0 0 0 0 0 0 0 0 0 0 0 0 0 0 0 0 0 0 0 0 0 0 0 0 0 0 0 0 0 0 0 0 0 0 0 0 0 0 0 0 0 0 0 0 0 0 0 0 0 0 0 0 0 0 0 0 0 0 0 0 0 0 0 0 0 0 0 0 0 
0 0 0 0 0 0 0 0 0 0 0 0 0 0 0 0 0 0 0 0 0 0 0 0 0 0 0 0 0 0 0 0 0 0 0 0 0 0 0 0 0 0 0 0 0 0 0 0 0 0 0 3 2 3 3 0 0 0 0 0 0 0 0 0 0 0 0 0 0 0 0 0 0 0 0 0 0 0 0 0 0 0 0 0 0 0 0 0 0 0 0 0 0 0 0 0 0 0 0 0 0 0 0 0 0 0 0 0 0 0 0 0 0 0 0 0 0 0 0 0 0 0 0 0 0 0 0 0 
0 0 0 0 0 0 0 0 0 0 0 0 0 0 0 0 0 0 0 0 0 0 0 0 0 0 0 0 0 0 0 0 0 0 0 0 0 0 0 0 0 0 0 3 13 13 14 15 15 16 18 21 23 23 17 13 15 17 20 16 2 0 0 0 0 0 0 0 0 0 0 0 0 0 0 0 0 0 0 0 0 0 0 0 0 0 0 0 0 0 0 0 0 0 0 0 0 0 0 0 0 0 0 0 0 0 0 0 0 0 0 0 0 0 0 0 0 0 0 0 0 0 0 0 0 0 0 0 
0 0 0 0 0 0 0 0 0 0 0 0 0 0 0 0 0 0 0 0 0 0 0 0 0 0 0 0 0 0 0 0 0 0 0 0 0 0 0 0 13 17 19 22 23 32 53 70 89 103 110 116 121 121 115 106 96 85 66 44 25 20 22 7 0 0 0 0 0 0 0 0 0 0 0 0 0 0 0 0 0 0 0 0 0 0 0 0 0 0 0 0 0 0 0 0 0 0 0 0 0 0 0 0 0 0 0 0 0 0 0 0 0 0 0 0 0 0 0 0 0 0 0 0 0 0 0 0 
0 0 0 0 0 0 0 0 0 0 0 0 0 0 0 0 0 0 0 0 0 0 0 0 0 0 0 0 0 0 0 0 0 0 0 0 0 0 15 18 26 23 33 60 98 121 131 144 151 153 153 155 158 164 163 162 151 140 134 127 113 94 61 31 22 18 5 0 0 0 0 0 0 0 0 0 0 0 0 0 0 0 0 0 0 0 0 0 0 0 0 0 0 0 0 0 0 0 0 0 0 0 0 0 0 0 0 0 0 0 0 0 0 0 0 0 0 0 0 0 0 0 0 0 0 0 0 0 
0 0 0 0 0 0 0 0 0 0 0 0 0 0 0 0 0 0 0 0 0 0 0 0 0 0 0 0 0 0 0 0 0 0 0 0 16 23 24 23 54 91 122 139 153 146 144 161 187 209 217 219 218 217 216 219 221 218 206 186 164 142 131 121 100 63 29 20 13 0 0 0 0 0 0 0 0 0 0 0 0 0 0 0 0 0 0 0 0 0 0 0 0 0 0 0 0 0 0 0 0 0 0 0 0 0 0 0 0 0 0 0 0 0 0 0 0 0 0 0 0 0 0 0 0 0 0 0 
0 0 0 0 0 0 0 0 0 0 0 0 0 0 0 0 0 0 0 0 0 0 0 0 0 0 0 0 0 0 0 0 0 0 10 25 23 24 61 105 134 152 145 138 156 190 214 212 198 180 167 167 163 150 147 156 171 187 192 200 214 213 192 166 145 132 120 82 42 24 13 0 0 0 0 0 0 0 0 0 0 0 0 0 0 0 0 0 0 0 0 0 0 0 0 0 0 0 0 0 0 0 0 0 0 0 0 0 0 0 0 0 0 0 0 0 0 0 0 0 0 0 0 0 0 0 0 0 
0 0 0 0 0 0 0 0 0 0 0 0 0 0 0 0 0 0 0 0 0 0 0 0 0 0 0 0 0 0 0 0 2 25 25 18 55 109 138 151 140 141 173 213 222 208 185 170 150 130 125 132 133 130 133 128 131 142 153 164 172 185 200 213 211 187 161 141 126 84 39 23 8 0 0 0 0 0 0 0 0 0 0 0 0 0 0 0 0 0 0 0 0 0 0 0 0 0 0 0 0 0 0 0 0 0 0 0 0 0 0 0 0 0 0 0 0 0 0 0 0 0 0 0 0 0 0 0 
0 0 0 0 0 0 0 0 0 0 0 0 0 0 0 0 0 0 0 0 0 0 0 0 0 0 0 0 0 0 0 18 25 17 37 98 139 155 140 144 182 221 221 203 174 158 143 141 149 144 114 103 102 100 111 129 142 143 145 155 158 158 162 172 190 210 217 198 164 144 119 62 29 20 0 0 0 0 0 0 0 0 0 0 0 0 0 0 0 0 0 0 0 0 0 0 0 0 0 0 0 0 0 0 0 0 0 0 0 0 0 0 0 0 0 0 0 0 0 0 0 0 0 0 0 0 0 0 
0 0 0 0 0 0 0 0 0 0 0 0 0 0 0 0 0 0 0 0 0 0 0 0 0 0 0 0 0 6 24 20 19 81 135 151 141 146 190 227 217 184 158 148 143 141 145 150 153 142 143 139 138 141 146 151 160 161 157 155 150 160 172 166 158 162 180 205 219 201 166 141 95 35 23 5 0 0 0 0 0 0 0 0 0 0 0 0 0 0 0 0 0 0 0 0 0 0 0 0 0 0 0 0 0 0 0 0 0 0 0 0 0 0 0 0 0 0 0 0 0 0 0 0 0 0 0 0 
0 0 0 0 0 0 0 0 0 0 0 0 0 0 0 0 0 0 0 0 0 0 0 0 0 0 0 0 14 23 19 56 120 147 146 146 187 227 217 181 146 141 144 129 109 107 115 126 133 161 172 170 167 163 151 138 127 141 149 148 157 154 147 159 170 167 158 159 175 205 221 195 155 119 51 21 13 0 0 0 0 0 0 0 0 0 0 0 0 0 0 0 0 0 0 0 0 0 0 0 0 0 0 0 0 0 0 0 0 0 0 0 0 0 0 0 0 0 0 0 0 0 0 0 0 0 0 0 
0 0 0 0 0 0 0 0 0 0 0 0 0 0 0 0 0 0 0 0 0 0 0 0 0 0 3 20 21 31 81 130 147 149 173 224 222 181 145 136 146 137 117 123 132 136 133 108 97 103 114 127 122 103 95 93 93 97 112 129 136 164 173 160 150 156 168 168 162 169 188 214 208 161 132 66 23 13 0 0 0 0 0 0 0 0 0 0 0 0 0 0 0 0 0 0 0 0 0 0 0 0 0 0 0 0 0 0 0 0 0 0 0 0 0 0 0 0 0 0 0 0 0 0 0 0 0 0 
0 0 0 0 0 0 0 0 0 0 0 0 0 0 0 0 0 0 0 0 0 0 0 0 0 10 21 21 33 99 130 145 159 206 228 200 160 138 144 150 144 139 138 131 125 124 113 95 96 96 95 96 99 99 102 100 96 95 95 101 107 117 159 171 167 160 152 155 165 162 162 175 203 207 166 138 73 20 14 0 0 0 0 0 0 0 0 0 0 0 0 0 0 0 0 0 0 0 0 0 0 0 0 0 0 0 0 0 0 0 0 0 0 0 0 0 0 0 0 0 0 0 0 0 0 0 0 0 
0 0 0 0 0 0 0 0 0 0 0 0 0 0 0 0 0 0 0 0 0 0 0 0 16 17 20 35 104 129 146 175 220 218 176 143 135 151 156 148 135 126 125 122 119 119 111 101 105 105 95 78 83 105 111 111 111 110 108 100 96 93 106 140 167 171 167 162 147 152 166 159 167 195 209 169 142 80 24 13 0 0 0 0 0 0 0 0 0 0 0 0 0 0 0 0 0 0 0 0 0 0 0 0 0 0 0 0 0 0 0 0 0 0 0 0 0 0 0 0 0 0 0 0 0 0 0 0 
0 0 0 0 0 0 0 0 0 0 0 0 0 0 0 0 0 0 0 0 0 0 3 22 14 17 44 104 127 151 182 220 206 166 134 137 154 159 136 122 124 126 119 116 118 120 115 113 107 109 92 80 88 122 134 128 119 118 127 135 126 119 108 100 121 159 167 165 165 153 139 160 164 170 193 206 164 145 91 27 13 0 0 0 0 0 0 0 0 0 0 0 0 0 0 0 0 0 0 0 0 0 0 0 0 0 0 0 0 0 0 0 0 0 0 0 0 0 0 0 0 0 0 0 0 0 0 0 
0 0 0 0 0 0 0 0 0 0 0 0 0 0 0 0 0 0 0 0 0 4 20 10 17 54 105 116 153 191 220 202 149 128 139 153 153 128 122 124 126 127 131 135 136 135 129 111 116 120 105 99 100 111 124 123 105 97 100 116 134 140 138 128 108 105 138 164 166 166 161 136 148 164 175 198 205 157 144 98 34 10 0 0 0 0 0 0 0 0 0 0 0 0 0 0 0 0 0 0 0 0 0 0 0 0 0 0 0 0 0 0 0 0 0 0 0 0 0 0 0 0 0 0 0 0 0 0 
0 0 0 0 0 0 0 0 0 0 0 0 0 0 0 0 0 0 0 0 4 19 10 20 72 116 118 163 199 222 197 139 121 138 150 142 126 117 120 128 132 127 126 127 128 121 101 99 112 107 94 94 90 87 92 99 93 86 87 90 97 110 128 132 130 117 103 115 147 160 159 159 132 126 153 181 201 204 155 143 106 40 8 0 0 0 0 0 0 0 0 0 0 0 0 0 0 0 0 0 0 0 0 0 0 0 0 0 0 0 0 0 0 0 0 0 0 0 0 0 0 0 0 0 0 0 0 0 
0 0 0 0 0 0 0 0 0 0 0 0 0 0 0 0 0 0 0 4 18 11 22 84 123 120 167 192 223 199 132 123 142 150 144 127 125 132 130 122 118 115 118 113 106 91 85 88 92 92 93 89 84 84 87 86 85 84 84 82 79 84 90 104 119 127 125 112 105 131 150 155 157 130 132 153 182 208 205 144 145 108 32 5 0 0 0 0 0 0 0 0 0 0 0 0 0 0 0 0 0 0 0 0 0 0 0 0 0 0 0 0 0 0 0 0 0 0 0 0 0 0 0 0 0 0 0 0 
0 0 0 0 0 0 0 0 0 0 0 0 0 0 0 0 0 0 3 17 11 23 94 133 120 170 184 218 193 126 125 138 152 140 123 130 129 125 116 110 112 107 95 91 88 89 86 87 90 92 91 89 89 93 93 92 88 86 85 82 80 79 78 80 84 95 125 131 118 104 119 148 165 153 128 126 139 184 219 182 140 139 105 23 3 0 0 0 0 0 0 0 0 0 0 0 0 0 0 0 0 0 0 0 0 0 0 0 0 0 0 0 0 0 0 0 0 0 0 0 0 0 0 0 0 0 0 0 
0 0 0 0 0 0 0 0 0 0 0 0 0 0 0 0 0 0 14 12 21 86 144 113 165 172 207 191 120 125 135 154 145 126 130 127 113 117 111 97 92 84 84 87 92 93 91 93 92 87 88 90 91 92 93 93 92 89 85 81 87 88 83 76 77 79 88 119 130 122 100 111 153 175 157 124 118 140 198 218 154 140 128 80 13 0 0 0 0 0 0 0 0 0 0 0 0 0 0 0 0 0 0 0 0 0 0 0 0 0 0 0 0 0 0 0 0 0 0 0 0 0 0 0 0 0 0 0 
0 0 0 0 0 0 0 0 0 0 0 0 0 0 0 0 0 7 13 16 69 147 113 158 170 188 199 124 116 134 148 154 130 125 121 113 111 104 90 83 84 86 89 92 91 92 91 94 90 73 88 101 100 92 84 88 95 97 94 96 93 87 82 79 79 81 80 89 113 126 114 91 98 146 168 148 126 114 152 216 204 142 133 123 49 5 0 0 0 0 0 0 0 0 0 0 0 0 0 0 0 0 0 0 0 0 0 0 0 0 0 0 0 0 0 0 0 0 0 0 0 0 0 0 0 0 0 0 
0 0 0 0 0 0 0 0 0 0 0 0 0 0 0 0 3 12 15 49 137 113 145 169 173 195 132 112 132 148 155 135 124 117 106 109 102 91 85 87 84 82 86 85 85 91 100 111 113 112 122 132 136 137 132 129 130 127 119 114 102 97 92 88 87 84 79 83 85 108 124 111 86 98 141 169 148 129 111 176 224 166 136 122 120 22 0 0 0 0 0 0 0 0 0 0 0 0 0 0 0 0 0 0 0 0 0 0 0 0 0 0 0 0 0 0 0 0 0 0 0 0 0 0 0 0 0 0 
0 0 0 0 0 0 0 0 0 0 0 0 0 0 0 1 8 12 39 118 133 130 161 166 182 151 112 131 145 156 135 121 116 115 107 91 87 89 91 93 88 77 69 72 87 109 131 153 160 159 156 160 169 167 160 155 163 163 158 146 125 108 97 93 90 90 87 84 82 83 100 120 110 90 97 145 169 146 131 126 206 201 150 128 132 77 7 0 0 0 0 0 0 0 0 0 0 0 0 0 0 0 0 0 0 0 0 0 0 0 0 0 0 0 0 0 0 0 0 0 0 0 0 0 0 0 0 0 
0 0 0 0 0 0 0 0 0 0 0 0 0 0 0 6 9 21 89 142 123 162 167 162 168 126 119 143 150 140 121 110 109 94 82 83 84 89 93 86 72 60 71 91 114 141 157 161 160 154 146 144 141 137 136 135 146 154 158 169 160 135 110 95 93 90 89 88 81 80 81 96 120 112 93 102 158 157 140 124 168 208 171 143 121 127 27 0 0 0 0 0 0 0 0 0 0 0 0 0 0 0 0 0 0 0 0 0 0 0 0 0 0 0 0 0 0 0 0 0 0 0 0 0 0 0 0 0 
0 0 0 0 0 0 0 0 0 0 0 0 0 0 3 3 14 63 127 129 146 169 151 160 158 124 132 137 143 123 111 102 90 84 83 85 91 91 81 64 56 75 105 136 151 148 142 131 126 122 121 127 120 119 121 126 126 127 143 166 172 171 148 117 95 88 87 86 85 81 80 86 102 125 106 89 118 157 139 126 148 191 180 148 120 133 66 1 0 0 0 0 0 0 0 0 0 0 0 0 0 0 0 0 0 0 0 0 0 0 0 0 0 0 0 0 0 0 0 0 0 0 0 0 0 0 0 0 
0 0 0 0 0 0 0 0 0 0 0 0 0 0 5 8 38 95 137 133 159 150 127 177 161 131 124 133 131 116 106 93 85 82 86 90 89 73 59 55 77 123 154 160 150 138 128 122 115 121 124 129 127 114 63 79 124 124 123 136 147 171 175 159 122 96 91 89 86 83 83 82 88 111 121 102 91 127 134 131 149 191 171 159 133 123 110 16 0 0 0 0 0 0 0 0 0 0 0 0 0 0 0 0 0 0 0 0 0 0 0 0 0 0 0 0 0 0 0 0 0 0 0 0 0 0 0 0 
0 0 0 0 0 0 0 0 0 0 0 0 0 0 3 18 74 113 135 146 159 116 129 190 158 110 100 135 117 114 92 85 87 83 87 85 62 50 56 85 134 162 164 151 140 138 134 131 129 128 123 129 127 67 49 91 123 134 135 143 148 153 159 163 157 136 108 91 86 89 86 80 76 91 117 118 91 101 106 128 147 197 174 160 146 115 130 39 0 0 0 0 0 0 0 0 0 0 0 0 0 0 0 0 0 0 0 0 0 0 0 0 0 0 0 0 0 0 0 0 0 0 0 0 0 0 0 0 
0 0 0 0 0 0 0 0 0 0 0 0 0 2 2 41 88 136 140 152 143 109 172 189 136 91 110 128 115 105 84 86 86 88 86 65 51 59 88 139 161 153 141 135 134 136 141 139 139 122 107 110 130 91 112 141 146 136 143 148 138 135 138 136 140 161 142 112 94 90 87 82 80 81 100 125 104 94 79 103 144 190 184 156 152 115 136 56 0 0 0 0 0 0 0 0 0 0 0 0 0 0 0 0 0 0 0 0 0 0 0 0 0 0 0 0 0 0 0 0 0 0 0 0 0 0 0 0 
0 0 0 0 0 0 0 0 0 0 0 0 0 2 8 62 99 146 146 146 115 126 194 175 105 91 118 118 109 96 84 86 83 87 67 52 60 93 146 163 140 123 122 131 137 139 138 141 148 141 124 124 131 125 144 146 136 138 143 130 123 126 128 129 123 147 168 147 114 93 88 88 83 80 87 122 116 90 73 62 126 184 186 153 158 117 133 74 4 0 0 0 0 0 0 0 0 0 0 0 0 0 0 0 0 0 0 0 0 0 0 0 0 0 0 0 0 0 0 0 0 0 0 0 0 0 0 0 
0 0 0 0 0 0 0 0 0 0 0 0 0 2 18 76 117 156 144 135 114 150 194 137 86 98 115 113 108 95 90 89 91 82 59 62 94 153 163 143 118 58 46 76 122 129 124 139 142 140 134 136 131 125 141 135 129 131 140 142 128 124 128 127 117 119 150 176 155 113 93 86 85 82 83 113 125 103 80 48 107 170 178 148 158 123 128 93 8 0 0 0 0 0 0 0 0 0 0 0 0 0 0 0 0 0 0 0 0 0 0 0 0 0 0 0 0 0 0 0 0 0 0 0 0 0 0 0 
0 0 0 0 0 0 0 0 0 0 0 0 1 0 34 81 132 155 136 127 133 161 183 114 85 100 120 113 107 87 89 89 90 71 62 106 160 168 146 91 47 47 49 47 53 106 121 103 102 111 110 113 108 113 119 105 101 101 108 133 133 114 89 103 117 108 120 158 187 163 111 90 84 83 81 107 124 115 85 47 94 167 180 154 162 132 116 112 13 0 0 0 0 0 0 0 0 0 0 0 0 0 0 0 0 0 0 0 0 0 0 0 0 0 0 0 0 0 0 0 0 0 0 0 0 0 0 0 
0 0 0 0 0 0 0 0 0 0 0 0 1 1 47 83 145 154 130 124 137 158 155 107 93 98 119 110 101 87 89 88 79 67 110 168 174 153 98 46 46 46 48 45 42 87 106 79 76 80 85 89 88 95 92 92 95 94 95 82 48 47 49 48 48 94 117 129 171 194 163 107 86 82 81 103 119 121 89 43 77 161 179 143 159 144 107 127 22 0 0 0 0 0 0 0 0 0 0 0 0 0 0 0 0 0 0 0 0 0 0 0 0 0 0 0 0 0 0 0 0 0 0 0 0 0 0 0 
0 0 0 0 0 0 0 0 0 0 0 0 1 5 57 98 157 145 122 126 137 148 147 110 95 99 117 114 96 87 93 87 67 103 165 177 152 128 65 46 46 45 46 44 46 53 87 81 76 80 82 88 97 120 119 114 112 105 81 48 48 47 45 48 49 46 70 114 138 179 197 157 99 84 83 89 116 124 94 45 70 161 181 148 156 155 110 128 34 0 0 0 0 0 0 0 0 0 0 0 0 0 0 0 0 0 0 0 0 0 0 0 0 0 0 0 0 0 0 0 0 0 0 0 0 0 0 0 
0 0 0 0 0 0 0 0 0 0 0 0 1 10 63 109 155 133 127 125 135 127 126 116 96 97 119 107 87 91 92 74 95 161 178 153 107 103 103 46 47 45 46 52 53 52 47 61 70 85 98 102 113 142 127 94 71 80 70 46 45 45 47 49 47 48 90 120 114 140 182 202 157 98 87 76 100 127 93 43 63 155 185 151 150 162 118 122 49 1 0 0 0 0 0 0 0 0 0 0 0 0 0 0 0 0 0 0 0 0 0 0 0 0 0 0 0 0 0 0 0 0 0 0 0 0 0 0 
0 0 0 0 0 0 0 0 0 0 0 0 1 16 67 120 158 134 130 128 134 116 138 123 92 92 112 104 89 94 84 88 158 182 156 120 107 99 107 107 102 83 48 53 54 55 50 55 55 83 104 103 109 140 120 62 48 47 47 47 49 48 48 47 47 99 114 103 111 136 164 191 204 163 98 84 95 130 94 43 66 152 188 157 148 162 125 113 66 4 0 0 0 0 0 0 0 0 0 0 0 0 0 0 0 0 0 0 0 0 0 0 0 0 0 0 0 0 0 0 0 0 0 0 0 0 0 0 
0 0 0 0 0 0 0 0 0 0 0 0 2 20 68 130 148 133 139 137 126 104 147 124 96 89 112 108 86 91 92 148 176 155 143 107 56 47 48 47 53 70 70 56 53 54 56 56 57 60 79 105 111 134 100 57 56 51 45 46 47 48 48 65 62 53 49 49 48 53 91 160 200 207 179 108 108 127 93 53 93 158 189 155 152 162 132 102 78 5 0 0 0 0 0 0 0 0 0 0 0 0 0 0 0 0 0 0 0 0 0 0 0 0 0 0 0 0 0 0 0 0 0 0 0 0 0 0 
0 0 0 0 0 0 0 0 0 0 0 0 2 16 64 130 141 132 139 142 126 102 156 137 94 84 109 101 90 94 136 173 169 158 92 51 47 47 46 49 47 50 56 58 75 72 54 55 53 53 57 81 109 120 69 55 56 57 50 48 46 53 52 48 54 57 56 54 55 51 56 78 128 190 211 196 140 123 95 79 103 168 184 154 153 170 138 107 86 4 0 0 0 0 0 0 0 0 0 0 0 0 0 0 0 0 0 0 0 0 0 0 0 0 0 0 0 0 0 0 0 0 0 0 0 0 0 0 
0 0 0 0 0 0 0 0 0 0 0 0 8 13 71 144 138 130 142 153 125 96 154 147 106 88 99 100 95 137 175 169 162 88 49 47 48 52 52 53 52 58 58 57 54 68 62 55 55 55 55 60 85 88 55 56 58 56 56 53 58 52 48 55 57 59 59 55 59 55 56 72 93 129 200 220 184 112 102 107 131 179 167 146 147 168 143 108 91 7 0 0 0 0 0 0 0 0 0 0 0 0 0 0 0 0 0 0 0 0 0 0 0 0 0 0 0 0 0 0 0 0 0 0 0 0 0 0 
0 0 0 0 0 0 0 0 0 0 0 0 9 11 82 149 137 132 138 152 125 96 145 162 119 103 92 112 123 181 179 169 93 48 48 47 52 53 57 57 63 63 64 58 55 57 61 60 61 66 68 64 82 83 59 57 58 57 56 69 66 50 52 60 67 70 72 71 69 72 79 95 112 117 135 198 195 121 103 108 141 172 157 139 146 165 146 111 106 20 0 0 0 0 0 0 0 0 0 0 0 0 0 0 0 0 0 0 0 0 0 0 0 0 0 0 0 0 0 0 0 0 0 0 0 0 0 0 
0 0 0 0 0 0 0 0 0 0 0 0 10 9 97 147 135 121 133 154 124 97 132 162 133 106 92 103 165 190 179 119 51 47 50 56 58 59 69 76 81 78 67 59 57 60 78 90 95 107 111 109 115 107 84 60 55 59 63 93 57 53 57 70 81 82 78 78 77 79 76 80 104 129 123 130 157 119 96 101 153 165 152 127 142 161 144 111 110 35 0 0 0 0 0 0 0 0 0 0 0 0 0 0 0 0 0 0 0 0 0 0 0 0 0 0 0 0 0 0 0 0 0 0 0 0 0 0 
0 0 0 0 0 0 0 0 0 0 0 0 9 10 111 143 129 129 138 154 117 86 121 154 145 108 89 94 171 199 165 72 60 56 62 62 71 84 83 81 80 88 76 68 73 88 107 136 135 143 144 143 143 139 110 71 61 60 79 81 56 57 73 69 66 61 64 74 76 75 75 81 114 124 112 109 102 102 96 101 154 169 149 114 129 158 139 115 115 53 0 0 0 0 0 0 0 0 0 0 0 0 0 0 0 0 0 0 0 0 0 0 0 0 0 0 0 0 0 0 0 0 0 0 0 0 0 0 
0 0 0 0 0 0 0 0 0 0 0 0 10 11 115 135 127 131 142 150 121 71 110 145 153 100 83 92 158 193 133 92 88 82 80 80 81 76 77 76 71 79 82 87 97 122 136 152 148 148 149 147 151 160 125 88 70 63 93 70 62 69 62 57 55 54 52 55 70 78 85 90 107 114 112 103 95 96 94 95 136 164 148 121 114 146 136 119 111 65 1 0 0 0 0 0 0 0 0 0 0 0 0 0 0 0 0 0 0 0 0 0 0 0 0 0 0 0 0 0 0 0 0 0 0 0 0 0 
0 0 0 0 0 0 0 0 0 0 0 0 12 12 122 127 125 137 143 153 118 56 111 150 157 109 81 91 133 166 90 74 72 71 72 71 72 77 73 63 59 61 71 101 131 145 150 149 144 137 139 144 160 177 165 129 90 82 106 75 67 62 62 54 54 55 52 49 57 69 71 77 100 109 111 91 88 94 91 67 114 160 146 124 110 120 131 123 113 74 3 0 0 0 0 0 0 0 0 0 0 0 0 0 0 0 0 0 0 0 0 0 0 0 0 0 0 0 0 0 0 0 0 0 0 0 0 0 
0 0 0 0 0 0 0 0 0 0 0 0 10 12 119 126 121 140 138 155 103 53 113 154 154 107 85 89 101 102 72 67 67 70 69 66 64 69 64 57 60 61 76 110 142 153 156 147 150 129 133 150 167 169 165 157 110 92 116 77 59 60 55 49 50 49 48 48 54 67 72 78 100 110 103 90 89 95 89 56 98 165 147 122 110 100 111 121 116 79 3 0 0 0 0 0 0 0 0 0 0 0 0 0 0 0 0 0 0 0 0 0 0 0 0 0 0 0 0 0 0 0 0 0 0 0 0 0 
0 0 0 0 0 0 0 0 0 0 0 0 8 12 118 125 120 149 132 135 96 55 110 143 102 84 82 87 93 84 60 59 67 70 68 64 68 68 57 57 56 59 80 120 145 149 158 147 133 136 145 160 159 160 164 142 127 80 82 62 59 60 59 51 49 47 50 53 55 64 72 78 98 108 99 95 91 98 84 68 109 169 150 121 110 83 101 129 117 80 3 0 0 0 0 0 0 0 0 0 0 0 0 0 0 0 0 0 0 0 0 0 0 0 0 0 0 0 0 0 0 0 0 0 0 0 0 0 
0 0 0 0 0 0 0 0 0 0 0 0 8 12 114 127 118 163 116 126 104 55 111 143 93 85 86 87 91 79 55 57 60 66 65 64 67 62 57 56 58 62 99 134 151 150 148 140 133 126 129 152 137 140 153 142 131 102 82 63 58 63 61 53 50 49 51 55 56 68 68 79 104 105 99 95 93 101 93 93 120 175 158 122 104 73 102 130 117 75 3 0 0 0 0 0 0 0 0 0 0 0 0 0 0 0 0 0 0 0 0 0 0 0 0 0 0 0 0 0 0 0 0 0 0 0 0 0 
0 0 0 0 0 0 0 0 0 0 0 0 7 13 110 131 122 158 109 125 111 58 108 138 96 85 92 91 92 84 57 52 58 62 64 61 65 65 61 56 58 68 102 142 150 146 145 133 133 125 135 141 136 143 154 149 137 130 84 77 60 61 60 51 46 47 51 54 59 68 68 78 109 104 99 97 94 102 91 68 111 178 165 125 98 70 102 124 118 67 3 0 0 0 0 0 0 0 0 0 0 0 0 0 0 0 0 0 0 0 0 0 0 0 0 0 0 0 0 0 0 0 0 0 0 0 0 0 
0 0 0 0 0 0 0 0 0 0 0 0 4 12 94 142 126 154 105 124 124 65 105 132 97 96 91 88 92 108 89 56 63 64 61 57 62 71 66 59 59 73 107 139 149 141 137 136 135 133 153 137 141 148 160 155 147 143 109 88 63 57 58 50 48 49 53 53 62 65 65 76 108 99 91 96 99 97 64 55 107 175 164 131 88 69 106 124 122 57 2 0 0 0 0 0 0 0 0 0 0 0 0 0 0 0 0 0 0 0 0 0 0 0 0 0 0 0 0 0 0 0 0 0 0 0 0 0 
0 0 0 0 0 0 0 0 0 0 0 0 4 12 82 145 124 152 108 114 126 77 100 134 106 93 88 90 98 139 132 69 55 57 55 56 59 66 68 60 63 80 116 144 154 152 135 131 132 146 158 142 145 153 164 159 150 132 123 87 63 51 56 56 48 48 53 56 62 63 62 74 97 93 91 97 106 92 49 51 110 173 160 128 70 65 111 125 120 45 3 0 0 0 0 0 0 0 0 0 0 0 0 0 0 0 0 0 0 0 0 0 0 0 0 0 0 0 0 0 0 0 0 0 0 0 0 0 
0 0 0 0 0 0 0 0 0 0 0 0 3 13 70 152 122 155 115 113 125 89 86 127 112 95 89 88 115 172 159 69 46 57 56 56 56 57 69 65 69 92 129 155 158 152 141 140 141 160 144 145 152 154 169 168 153 134 119 85 69 63 53 52 53 51 52 59 67 63 61 74 94 92 90 100 105 79 46 56 113 178 149 119 56 66 117 119 114 37 2 0 0 0 0 0 0 0 0 0 0 0 0 0 0 0 0 0 0 0 0 0 0 0 0 0 0 0 0 0 0 0 0 0 0 0 0 0 
0 0 0 0 0 0 0 0 0 16 10 0 0 12 59 156 125 145 125 114 122 97 71 122 117 96 93 86 141 189 171 72 44 49 55 51 56 59 65 74 81 105 136 154 161 160 162 159 158 165 141 145 150 160 174 184 163 131 104 97 101 80 71 58 44 56 67 66 69 63 62 72 85 89 92 101 97 84 70 63 117 170 145 108 43 74 122 111 106 28 2 0 0 0 0 0 0 0 0 0 0 0 0 0 0 0 0 0 0 0 0 0 0 0 0 0 0 0 0 0 0 0 0 0 0 0 0 0 
0 0 0 0 0 0 0 0 0 0 9 5 0 10 44 156 129 120 131 121 120 103 61 117 113 98 99 96 162 169 149 96 41 43 57 52 56 60 63 78 93 121 144 154 158 168 184 165 175 155 123 128 139 143 150 151 152 142 107 126 121 112 58 43 41 43 53 62 64 63 61 72 82 91 95 105 134 173 164 122 157 154 133 91 38 89 113 105 100 20 0 0 0 0 0 0 0 0 0 0 0 0 0 0 0 0 0 0 0 0 0 0 0 0 0 0 0 0 0 0 0 0 0 0 0 0 0 0 
0 0 0 0 0 0 0 0 0 0 0 11 0 5 32 145 132 94 124 133 123 107 58 96 109 96 98 103 175 151 112 134 57 44 54 51 49 56 62 75 94 119 128 147 159 161 183 170 169 138 113 127 124 137 132 135 138 129 138 141 97 75 68 67 56 50 48 58 57 65 67 69 83 85 94 140 166 167 188 165 177 147 131 68 49 105 106 110 82 15 0 0 0 0 0 0 0 0 0 0 0 0 0 0 0 0 0 0 0 0 0 0 0 0 0 0 0 0 0 0 0 0 0 0 0 0 0 0 
0 0 0 0 0 0 0 0 0 0 0 12 2 5 27 129 140 95 104 133 129 118 83 79 110 99 98 103 172 168 138 132 101 47 50 55 53 52 56 60 79 97 116 118 133 150 164 151 151 111 98 114 98 115 97 102 113 100 109 133 107 84 77 65 59 58 84 81 62 51 53 69 85 90 134 162 135 113 170 198 170 146 128 53 81 121 121 120 80 10 0 0 0 17 15 0 0 0 0 0 0 0 0 0 0 0 0 0 0 0 0 0 0 0 0 0 0 0 0 0 0 0 0 0 0 0 0 0 
0 0 0 0 0 0 0 0 0 0 0 9 12 9 22 120 145 105 84 133 141 118 97 74 116 105 100 106 162 165 146 93 71 65 47 56 49 55 68 76 85 66 82 89 114 130 121 124 124 85 94 93 74 90 70 62 61 73 104 131 127 78 58 65 76 85 120 144 124 103 95 95 107 133 160 168 118 111 159 210 152 145 114 82 106 125 124 125 78 7 0 0 5 0 0 0 0 0 0 0 0 0 0 0 0 0 0 0 0 0 0 0 0 0 0 0 0 0 0 0 0 0 0 0 0 0 0 0 
0 0 0 0 0 0 0 0 0 0 0 2 13 11 19 108 135 117 86 124 139 123 114 81 102 97 100 129 180 154 121 81 62 74 75 79 79 67 61 64 80 74 68 83 98 65 87 89 90 69 75 63 64 84 70 45 43 76 101 130 142 94 59 61 79 104 124 128 112 138 154 133 127 125 166 149 142 132 182 204 143 134 84 109 140 102 105 137 82 5 0 0 4 0 0 0 0 0 0 0 0 0 0 0 0 0 0 0 0 0 0 0 0 0 0 0 0 0 0 0 0 0 0 0 0 0 0 0 
0 0 0 0 0 0 0 0 0 0 0 0 12 11 14 98 135 122 91 103 139 134 134 115 91 97 94 162 175 130 126 107 83 82 71 80 87 94 120 131 133 121 114 119 53 45 58 68 75 60 49 46 54 90 72 42 42 80 105 100 108 116 117 104 115 126 147 132 109 120 150 130 149 169 139 158 157 158 221 227 173 136 115 159 136 75 78 149 77 2 0 2 0 0 0 0 0 0 0 0 0 0 0 0 0 0 0 0 0 0 0 0 0 0 0 0 0 0 0 0 0 0 0 0 0 0 0 0 
0 0 0 0 0 0 0 0 0 0 0 0 12 13 12 80 143 130 113 86 135 152 159 139 111 115 100 180 194 154 150 150 135 147 151 142 142 138 124 129 140 123 145 89 46 42 49 84 97 59 46 45 41 80 64 43 63 76 86 96 96 84 117 130 114 133 161 151 148 158 132 117 137 156 124 141 174 184 231 245 181 160 164 194 134 86 86 151 57 5 3 0 0 0 0 0 0 0 0 0 0 0 0 0 0 0 0 0 0 0 0 0 0 0 0 0 0 0 0 0 0 0 0 0 0 0 0 0 
0 0 0 0 0 0 0 0 0 0 0 0 15 13 12 57 141 131 122 105 126 159 179 153 146 156 119 171 169 162 183 186 192 168 120 124 141 142 148 135 98 104 114 95 64 86 80 65 83 64 46 55 44 72 59 65 59 61 67 83 101 88 93 106 67 63 115 127 123 129 93 96 108 94 115 162 191 214 224 253 205 177 193 158 140 100 111 140 29 6 1 0 0 0 0 0 0 0 0 0 0 0 0 0 0 0 0 0 0 0 0 0 0 0 0 0 0 0 0 0 0 0 0 0 0 0 0 0 
0 0 0 0 0 0 0 0 0 0 0 0 16 11 12 14 90 131 107 94 135 152 174 200 181 195 160 149 146 160 189 193 187 193 158 119 129 152 147 108 80 87 108 109 111 98 77 62 60 70 81 67 59 77 101 80 62 69 71 82 96 75 70 76 67 62 73 95 94 114 88 96 98 62 52 107 190 216 210 226 207 169 144 153 165 97 50 122 35 4 10 0 0 0 0 0 0 0 0 0 0 0 0 0 0 0 0 0 0 0 0 0 0 0 0 0 0 0 0 0 0 0 0 0 0 0 0 0 
0 0 0 0 0 0 0 0 0 0 0 8 14 10 14 12 46 122 115 99 111 166 175 201 211 201 184 163 150 123 183 186 173 177 172 119 145 160 118 82 69 71 73 89 97 84 85 59 72 68 63 81 71 86 85 62 44 57 71 102 86 66 66 70 78 66 76 85 92 99 95 109 73 43 44 96 204 226 218 209 151 155 153 153 112 77 107 100 16 9 12 5 0 0 0 0 0 0 0 0 0 0 0 0 0 0 0 0 0 0 0 0 0 0 0 0 0 0 0 0 0 0 0 0 0 0 0 0 
0 0 0 0 0 0 0 0 0 0 0 9 12 13 16 16 26 118 123 87 85 124 177 179 195 213 204 184 164 116 163 173 133 142 165 146 140 130 82 66 65 59 69 76 59 74 78 60 73 80 45 45 40 55 66 52 36 40 80 89 88 73 71 59 72 89 101 98 97 119 110 106 104 105 146 180 209 240 225 173 61 81 92 99 115 117 135 52 11 8 12 15 0 0 0 0 0 0 0 0 0 0 0 0 0 0 0 0 0 0 0 0 0 0 0 0 0 0 0 0 0 0 0 0 0 0 0 0 
0 0 0 0 0 0 0 0 0 0 0 0 14 14 10 15 14 83 124 83 79 103 124 130 149 181 195 197 193 103 120 122 110 99 134 171 123 94 65 63 64 68 75 71 75 70 70 61 68 98 87 70 43 42 73 64 39 37 66 67 80 83 91 85 72 82 100 105 110 132 110 71 92 152 196 198 212 236 228 113 39 67 75 80 101 161 111 26 7 5 5 13 9 0 0 0 0 0 0 0 0 0 0 0 0 0 0 0 0 0 0 0 0 0 0 0 0 0 0 0 0 0 0 0 0 0 0 0 
0 0 0 0 0 0 0 0 0 0 0 0 0 4 0 12 13 39 135 93 75 101 81 85 131 162 172 167 164 176 139 79 88 101 101 130 146 109 98 78 62 58 69 81 77 66 81 79 74 98 108 83 67 65 104 80 51 39 84 81 76 89 113 118 106 91 104 105 108 94 70 81 153 197 210 206 210 205 200 95 70 67 70 75 102 155 55 12 8 9 6 10 16 0 0 0 0 0 0 0 0 0 0 0 0 0 0 0 0 0 0 0 0 0 0 0 0 0 0 0 0 0 0 0 0 0 0 0 
0 0 0 0 0 0 0 0 0 0 0 0 0 0 0 4 12 16 109 81 75 81 73 82 111 161 128 119 135 152 155 116 72 91 124 130 153 153 112 76 54 72 79 96 106 102 106 111 94 90 99 102 94 101 127 110 94 81 106 113 98 108 117 120 128 128 122 107 80 49 63 154 169 159 164 179 185 191 196 94 76 75 81 76 113 122 24 12 0 7 9 3 2 0 0 0 0 0 0 0 0 0 0 0 0 0 0 0 0 0 0 0 0 0 0 0 0 0 0 0 0 0 0 0 0 0 0 0 
0 0 0 0 0 0 0 0 0 0 0 0 0 0 0 0 7 7 66 80 63 74 82 87 147 161 119 123 157 174 170 156 113 95 81 92 110 119 123 89 88 107 105 122 128 119 115 108 97 99 97 85 103 123 124 141 131 104 111 125 114 118 133 121 125 131 122 77 48 66 111 106 155 156 167 183 176 191 175 113 82 85 85 75 134 71 11 12 0 2 9 3 0 0 0 0 0 0 0 0 0 0 0 0 0 0 0 0 0 0 0 0 0 0 0 0 0 0 0 0 0 0 0 0 0 0 0 0 
0 0 0 0 0 0 0 0 0 0 0 0 0 0 0 0 8 4 35 132 82 69 92 81 151 178 158 153 151 169 176 162 163 119 57 61 91 106 105 123 120 127 122 111 115 122 113 145 145 124 114 117 126 123 122 126 126 125 138 153 150 164 143 122 122 119 93 56 62 111 114 134 146 152 169 185 185 175 177 105 87 90 84 71 132 33 9 10 0 0 4 0 0 0 0 0 0 0 0 0 0 0 0 0 0 0 0 0 0 0 0 0 0 0 0 0 0 0 0 0 0 0 0 0 0 0 0 0 
0 0 0 0 0 0 0 0 0 0 0 0 0 0 0 0 10 2 11 97 73 65 78 91 127 170 180 155 146 156 173 173 154 148 106 66 61 81 102 114 158 148 120 118 124 134 123 163 148 126 119 154 172 135 108 113 109 107 122 135 135 163 165 154 113 79 63 78 155 135 127 132 145 155 154 162 164 136 171 98 89 92 60 28 108 16 7 10 0 0 0 0 0 0 0 0 0 0 0 0 0 0 0 0 0 0 0 0 0 0 0 0 0 0 0 0 0 0 0 0 0 0 0 0 0 0 0 0 
0 0 0 0 0 0 0 0 0 0 0 1 0 0 0 5 10 5 6 58 79 31 69 83 99 157 173 163 126 143 164 170 163 151 137 132 114 82 88 105 135 167 173 135 135 142 156 162 136 129 156 174 172 179 142 123 122 115 130 126 119 128 133 143 118 105 113 150 187 139 133 143 155 158 147 122 117 118 156 100 91 70 32 28 98 11 5 11 2 0 0 0 0 0 0 0 0 0 0 0 0 0 0 0 0 0 0 0 0 0 0 0 0 0 0 0 0 0 0 0 0 0 0 0 0 0 0 0 
0 0 0 0 0 0 0 0 0 0 3 15 15 6 0 10 11 8 7 42 104 56 38 62 87 108 161 162 147 107 124 127 156 160 152 138 139 143 143 132 135 188 222 198 162 154 176 162 136 159 182 151 149 182 189 155 132 125 127 106 91 83 107 155 162 151 142 161 203 163 156 135 118 139 142 113 133 122 145 98 62 34 35 86 108 5 1 0 12 0 0 0 0 0 0 0 0 0 0 0 0 0 0 0 0 0 0 0 0 0 0 0 0 0 0 0 0 0 0 0 0 0 0 0 0 0 0 0 
0 0 0 0 0 0 0 0 0 0 0 10 15 21 21 18 8 12 16 21 110 61 20 71 156 137 156 166 187 123 68 68 96 116 156 164 156 153 149 139 147 189 222 212 203 168 170 161 163 183 155 117 106 127 156 156 128 109 110 88 95 122 146 180 187 181 160 182 205 130 101 98 103 133 154 165 152 147 157 72 29 25 58 124 78 12 0 0 9 6 0 0 0 0 0 0 0 0 0 0 0 0 0 0 0 0 0 0 0 0 0 0 0 0 0 0 0 0 0 0 0 0 0 0 0 0 0 0 
0 0 0 0 0 0 0 0 0 0 0 7 17 19 17 6 6 10 18 18 58 99 62 114 137 127 193 180 184 159 105 73 65 50 49 93 141 164 162 154 152 185 216 214 223 218 196 191 190 174 146 125 128 111 122 137 149 153 160 154 155 158 184 197 198 188 165 171 177 108 97 84 70 102 159 174 144 138 150 80 24 24 30 102 27 9 7 3 4 20 9 7 0 0 0 0 0 0 0 0 0 0 0 0 0 0 0 0 0 0 0 0 0 0 0 0 0 0 0 0 0 0 0 0 0 0 0 0 
0 0 0 0 0 0 0 0 0 0 0 6 16 15 5 5 5 6 20 20 20 67 89 132 151 142 170 182 146 129 123 118 82 48 29 27 43 68 87 119 152 181 195 209 232 219 197 199 199 161 132 148 151 139 122 133 157 166 167 172 175 168 179 184 181 157 125 153 212 182 125 125 150 158 169 139 70 69 112 63 39 29 85 59 14 6 7 7 8 13 21 17 15 19 9 0 0 0 0 0 0 0 0 0 0 0 0 0 0 0 0 0 0 0 0 0 0 0 0 0 0 0 0 0 0 0 0 0 
0 0 0 0 0 0 0 0 0 0 0 0 14 10 6 6 5 5 5 21 22 36 74 130 144 117 138 163 145 156 148 157 150 122 86 69 55 71 86 105 124 174 186 174 212 195 162 155 144 104 95 74 72 85 98 102 106 103 115 152 180 136 118 149 132 110 90 129 175 228 170 135 131 124 72 41 68 72 94 27 61 87 68 21 14 0 1 4 4 3 0 7 10 14 1 0 0 0 0 0 0 0 0 0 0 0 0 0 0 0 0 0 0 0 0 0 0 0 0 0 0 0 0 0 0 0 0 0 
0 0 0 0 0 0 0 0 0 0 0 0 6 7 3 5 5 1 0 10 21 28 35 83 70 44 66 160 133 161 143 154 169 175 163 158 152 148 115 109 131 175 175 201 191 207 202 201 172 153 130 116 103 92 88 94 95 106 138 168 156 156 128 112 174 234 68 97 71 221 223 198 141 93 71 89 99 105 73 13 13 24 37 42 17 0 0 0 3 0 0 1 8 1 0 0 0 0 0 0 0 0 0 0 0 0 0 0 0 0 0 0 0 0 0 0 0 0 0 0 0 0 0 0 0 0 0 0 
0 0 0 0 0 0 0 0 0 0 0 0 0 0 0 1 4 0 0 11 28 26 20 33 34 18 22 125 118 112 123 122 155 148 105 103 91 94 115 139 202 166 157 178 188 183 141 122 131 96 116 148 179 183 169 157 157 164 176 228 201 141 131 124 104 195 116 92 161 210 166 112 80 76 73 70 64 111 84 26 20 33 42 45 21 0 0 0 0 0 0 5 9 0 0 0 0 0 0 0 0 0 0 0 0 0 0 0 0 0 0 0 0 0 0 0 0 0 0 0 0 0 0 0 0 0 0 0 
0 0 0 0 0 0 0 0 0 0 0 0 0 0 0 0 1 7 5 5 14 18 25 24 24 18 26 105 117 69 41 47 87 79 74 61 49 41 41 45 43 69 219 143 219 151 94 88 70 61 68 76 77 82 75 71 73 72 70 74 73 104 105 135 132 97 72 44 34 46 63 63 54 46 44 67 70 113 83 29 31 23 19 7 0 0 6 2 0 0 0 12 7 0 0 0 0 0 0 0 0 0 0 0 0 0 0 0 0 0 0 0 0 0 0 0 0 0 0 0 0 0 0 0 0 0 0 0 
0 0 0 0 0 0 0 0 0 0 0 0 0 0 0 0 0 1 6 4 8 12 14 18 26 20 19 74 140 85 41 42 89 68 67 60 47 41 35 31 32 58 71 65 62 69 74 63 89 96 81 70 67 72 83 96 105 101 73 66 78 63 55 59 53 59 35 40 56 72 43 36 42 39 39 65 71 116 73 34 32 26 13 6 0 0 0 0 0 0 0 0 0 0 0 0 0 0 0 0 0 0 0 0 0 0 0 0 0 0 0 0 0 0 0 0 0 0 0 0 0 0 0 0 0 0 0 0 
0 0 0 0 0 0 0 0 0 0 0 0 0 0 0 0 0 0 0 0 4 11 14 11 29 29 31 61 145 93 37 34 87 73 58 78 106 99 87 61 88 79 66 59 59 61 112 136 116 115 139 139 130 137 148 148 120 112 129 142 103 71 77 83 137 161 20 71 165 74 32 23 28 46 80 84 76 119 69 37 40 28 15 17 0 0 0 0 0 0 0 0 0 0 0 0 0 0 0 0 0 0 0 0 0 0 0 0 0 0 0 0 0 0 0 0 0 0 0 0 0 0 0 0 0 0 0 0 
0 0 0 0 0 0 0 0 0 0 0 0 0 0 0 0 0 0 0 0 0 3 6 9 25 57 55 102 171 139 93 87 114 86 61 56 89 128 111 123 176 120 58 68 99 123 155 128 112 124 149 169 195 201 196 208 207 191 182 198 185 107 93 146 95 234 221 130 212 204 104 44 38 33 64 61 72 113 57 46 39 30 24 16 0 0 0 0 0 0 0 0 0 0 0 0 0 0 0 0 0 0 0 0 0 0 0 0 0 0 0 0 0 0 0 0 0 0 0 0 0 0 0 0 0 0 0 0 
0 0 0 0 0 0 0 0 0 0 0 0 0 0 0 0 0 0 0 0 0 11 15 5 7 46 48 94 164 160 138 144 149 124 117 95 59 104 69 50 199 80 74 96 180 182 154 132 206 220 231 232 241 238 233 233 229 197 137 133 120 128 161 128 242 172 140 196 161 160 134 117 83 74 61 61 50 87 14 7 7 0 1 6 0 0 0 0 0 0 0 0 0 0 0 0 0 0 0 0 0 0 0 0 0 0 0 0 0 0 0 0 0 0 0 0 0 0 0 0 0 0 0 0 0 0 0 0 
0 0 0 0 0 0 0 0 0 0 0 0 0 0 0 0 0 0 0 0 0 0 6 2 1 21 28 34 112 122 91 83 85 47 33 41 47 52 61 105 82 54 94 98 128 113 126 150 183 200 191 180 191 192 195 201 204 186 171 158 103 128 134 164 158 229 226 161 152 183 138 51 14 16 42 103 69 94 26 17 12 10 5 0 0 0 0 0 0 0 0 0 0 0 0 0 0 0 0 0 0 0 0 0 0 0 0 0 0 0 0 0 0 0 0 0 0 0 0 0 0 0 0 0 0 0 0 0 
0 0 0 0 0 0 0 0 0 0 0 0 0 0 0 0 0 0 0 0 0 0 3 12 4 16 23 25 71 80 73 34 65 61 21 24 33 38 56 85 80 62 96 111 83 69 110 115 126 85 115 74 63 66 68 63 58 61 68 93 127 130 112 78 102 218 140 79 208 153 144 87 62 46 67 122 68 89 30 21 11 13 5 0 0 0 0 0 0 0 0 0 0 0 0 0 0 0 0 0 0 0 0 0 0 0 0 0 0 0 0 0 0 0 0 0 0 0 0 0 0 0 0 0 0 0 0 0 
0 0 0 0 0 0 0 0 0 0 0 0 0 0 0 0 0 0 0 0 0 0 0 11 9 7 22 21 48 68 72 39 61 58 23 22 27 36 65 91 72 76 116 96 94 81 93 95 122 126 143 113 97 93 117 127 127 136 138 114 125 138 98 61 88 99 97 104 106 107 94 60 35 26 57 119 67 94 35 23 11 6 7 0 0 0 0 0 0 0 0 0 0 0 0 0 0 0 0 0 0 0 0 0 0 0 0 0 0 0 0 0 0 0 0 0 0 0 0 0 0 0 0 0 0 0 0 0 
0 0 0 0 0 0 0 0 0 0 0 0 0 0 0 0 0 0 0 0 0 0 0 5 8 8 16 19 31 75 68 46 55 60 25 24 25 36 66 80 51 74 109 81 69 88 84 102 93 129 143 121 116 112 137 107 109 108 134 117 121 141 106 64 96 81 99 95 71 97 81 45 25 23 53 124 62 99 41 21 8 7 5 0 0 0 0 0 0 0 0 0 0 0 0 0 0 0 0 0 0 0 0 0 0 0 0 0 0 0 0 0 0 0 0 0 0 0 0 0 0 0 0 0 0 0 0 0 
0 0 0 0 0 0 0 0 0 0 0 0 0 0 0 0 0 0 0 0 0 0 0 3 7 8 9 14 24 61 83 44 52 63 25 27 28 53 73 61 56 109 84 66 57 75 72 84 95 131 136 114 126 141 126 96 109 110 126 122 115 144 106 66 78 65 73 104 96 61 86 56 24 24 52 119 56 83 55 18 5 6 3 0 0 0 0 0 0 0 0 0 0 0 0 0 0 0 0 0 0 0 0 0 0 0 0 0 0 0 0 0 0 0 0 0 0 0 0 0 0 0 0 0 0 0 0 0 
0 0 0 0 0 0 0 0 0 0 0 0 0 0 0 0 0 0 0 0 0 0 0 0 6 5 8 14 19 29 61 38 49 71 33 30 36 61 48 53 117 107 97 71 53 69 81 60 79 111 135 134 144 134 113 107 110 108 126 116 98 98 97 87 99 82 69 77 124 96 57 75 38 29 54 110 75 86 45 13 9 5 3 0 0 0 0 0 0 0 0 0 0 0 0 0 0 0 0 0 0 0 0 0 0 0 0 0 0 0 0 0 0 0 0 0 0 0 0 0 0 0 0 0 0 0 0 0 
0 0 0 0 0 0 0 0 0 0 0 0 0 0 0 0 0 0 0 0 0 0 0 0 1 5 8 12 16 18 25 27 46 80 40 35 56 53 34 81 125 75 67 64 68 77 97 50 41 61 117 130 122 129 110 98 94 98 118 91 76 45 65 108 138 96 70 60 90 136 59 79 57 36 62 89 63 64 18 9 10 6 2 0 0 0 0 0 0 0 0 0 0 0 0 0 0 0 0 0 0 0 0 0 0 0 0 0 0 0 0 0 0 0 0 0 0 0 0 0 0 0 0 0 0 0 0 0 
0 0 0 0 0 0 0 0 0 0 0 0 0 0 0 0 0 0 0 0 0 0 0 0 0 5 7 9 15 18 19 21 34 78 53 51 77 45 36 103 125 63 52 59 59 85 103 37 37 43 97 114 108 111 105 106 103 118 120 86 61 72 43 74 133 63 58 56 67 136 95 73 89 53 76 78 28 22 17 6 7 7 3 0 0 0 0 0 0 0 0 0 0 0 0 0 0 0 0 0 0 0 0 0 0 0 0 0 0 0 0 0 0 0 0 0 0 0 0 0 0 0 0 0 0 0 0 0 
0 0 0 0 0 0 0 0 0 0 0 0 0 0 0 0 0 0 0 0 0 0 0 0 0 3 8 7 14 18 17 22 24 47 81 85 75 35 45 111 100 70 60 58 57 95 97 35 27 53 83 120 132 127 138 144 149 141 91 63 64 49 31 60 124 71 56 62 66 128 114 60 89 95 97 56 27 25 18 8 7 5 2 0 0 0 0 0 0 0 0 0 0 0 0 0 0 0 0 0 0 0 0 0 0 0 0 0 0 0 0 0 0 0 0 0 0 0 0 0 0 0 0 0 0 0 0 0 
0 0 0 0 0 0 0 0 0 0 0 0 0 0 0 0 0 0 0 0 0 0 0 0 0 0 6 11 6 16 19 18 21 16 33 59 45 38 64 136 104 63 55 57 68 104 95 38 28 42 51 85 130 136 116 120 157 127 70 48 35 25 31 61 113 90 60 48 49 131 148 66 50 81 63 28 22 19 15 10 6 3 1 0 0 0 0 0 0 0 0 0 0 0 0 0 0 0 0 0 0 0 0 0 0 0 0 0 0 0 0 0 0 0 0 0 0 0 0 0 0 0 0 0 0 0 0 0 
0 0 0 0 0 0 0 0 0 0 0 0 0 0 0 0 0 0 0 0 0 0 0 0 0 0 0 14 6 8 15 15 16 20 11 12 13 34 62 149 132 55 40 46 64 89 73 48 40 38 36 61 95 102 90 104 137 145 93 57 59 65 72 71 88 102 76 44 45 126 166 69 31 28 25 16 17 15 9 9 6 3 2 0 0 0 0 0 0 0 0 0 0 0 0 0 0 0 0 0 0 0 0 0 0 0 0 0 0 0 0 0 0 0 0 0 0 0 0 0 0 0 0 0 0 0 0 0 
0 0 0 0 0 0 0 0 0 0 0 0 0 0 0 0 0 0 0 0 0 0 0 0 0 0 0 2 8 10 12 19 16 24 11 11 13 31 49 139 153 68 45 56 100 91 62 53 45 35 31 50 74 84 84 118 142 128 129 89 72 60 56 53 61 93 96 55 56 141 165 54 31 26 21 16 18 14 11 10 7 4 2 0 0 0 0 0 0 0 0 0 0 0 0 0 0 0 0 0 0 0 0 0 0 0 0 0 0 0 0 0 0 0 0 0 0 0 0 0 0 0 0 0 0 0 0 0 
0 0 0 0 0 0 0 0 0 0 0 0 0 0 0 0 0 0 0 0 0 0 0 0 0 0 0 1 3 8 11 17 21 21 11 7 20 27 31 89 164 123 75 97 114 78 57 57 46 33 36 53 85 94 96 117 105 118 132 124 84 63 57 59 55 85 117 111 99 164 143 39 27 29 26 18 21 14 14 8 7 5 2 0 0 0 0 0 0 0 0 0 0 0 0 0 0 0 0 0 0 0 0 0 0 0 0 0 0 0 0 0 0 0 0 0 0 0 0 0 0 0 0 0 0 0 0 0 
0 0 0 0 0 0 0 0 0 0 0 0 0 0 0 0 0 0 0 0 0 0 0 0 0 0 0 0 5 1 15 12 19 22 15 13 20 27 30 40 130 172 150 159 119 62 46 47 40 32 44 71 99 118 114 108 109 119 136 149 113 84 91 82 56 71 120 159 163 174 76 25 25 31 32 17 20 15 14 8 8 5 2 0 0 0 0 0 0 0 0 0 0 0 0 0 0 0 0 0 0 0 0 0 0 0 0 0 0 0 0 0 0 0 0 0 0 0 0 0 0 0 0 0 0 0 0 0 
0 0 0 0 0 0 0 0 0 0 0 0 0 0 0 0 0 0 0 0 0 0 0 0 0 0 0 0 2 3 12 13 16 23 19 15 19 23 28 27 46 133 180 178 116 43 30 25 27 40 71 100 122 149 120 108 104 116 135 151 115 59 61 82 58 53 121 186 176 90 28 24 26 30 28 22 18 16 12 7 8 6 2 0 0 0 0 0 0 0 0 0 0 0 0 0 0 0 0 0 0 0 0 0 0 0 0 0 0 0 0 0 0 0 0 0 0 0 0 0 0 0 0 0 0 0 0 0 
0 0 0 0 0 0 0 0 0 0 0 0 0 0 0 0 0 0 0 0 0 0 0 0 0 0 0 0 0 5 6 7 18 23 20 11 16 25 30 28 28 33 58 80 54 32 31 29 26 42 85 105 118 134 137 138 132 125 136 128 115 73 40 60 67 60 72 77 48 31 23 23 27 31 23 21 18 14 11 8 8 6 1 0 0 0 0 0 0 0 0 0 0 0 0 0 0 0 0 0 0 0 0 0 0 0 0 0 0 0 0 0 0 0 0 0 0 0 0 0 0 0 0 0 0 0 0 0 
0 0 0 0 0 0 0 0 0 0 0 0 0 0 0 0 0 0 0 0 0 0 0 0 0 0 0 0 0 2 9 3 17 18 15 11 14 25 32 28 27 28 29 26 26 40 45 44 29 40 85 105 108 138 161 174 175 162 157 145 122 74 40 49 64 61 45 41 34 28 24 22 30 30 23 19 20 13 10 7 8 5 1 0 0 0 0 0 0 0 0 0 0 0 0 0 0 0 0 0 0 0 0 0 0 0 0 0 0 0 0 0 0 0 0 0 0 0 0 0 0 0 0 0 0 0 0 0 
