P2
128 99
220
0 0 0 0 0 0 0 0 0 0 0 0 0 0 0 0 0 0 0 0 0 0 0 0 0 0 0 0 0 0 0 0 0 0 0 0 0 0 0 0 0 0 0 0 0 0 0 0 0 0 0 0 0 0 0 0 0 0 0 0 0 0 0 0 0 0 0 0 0 0 0 0 0 0 0 0 0 0 0 0 0 0 0 0 0 0 0 0 0 0 0 0 0 0 0 0 0 0 0 0 0 0 0 0 0 0 0 0 0 0 0 0 0 0 0 0 0 0 0 0 0 0 0 0 0 0 0 0 
0 0 0 0 0 0 0 0 0 0 0 0 0 0 0 0 0 0 0 0 0 0 0 0 0 0 0 0 0 0 0 0 0 0 0 0 0 0 0 0 0 0 0 0 0 0 0 0 0 0 0 0 0 0 0 0 0 0 0 0 0 0 0 0 0 0 0 0 0 0 0 0 0 0 0 0 0 0 0 0 0 0 0 0 0 0 0 0 0 0 0 0 0 0 0 0 0 0 0 0 0 0 0 0 0 0 0 0 0 0 0 0 0 0 0 0 0 0 0 0 0 0 0 0 0 0 0 0 
0 0 0 0 0 0 0 0 0 0 0 0 0 0 0 0 0 0 0 0 0 0 0 0 0 0 0 0 0 0 0 0 0 0 0 0 0 0 0 0 0 0 0 0 0 0 0 0 0 0 3 5 5 3 2 0 0 0 0 0 0 0 0 0 0 0 0 0 0 0 0 0 0 0 0 0 0 0 0 0 0 0 0 0 0 0 0 0 0 0 0 0 0 0 0 0 0 0 0 0 0 0 0 0 0 0 0 0 0 0 0 0 0 0 0 0 0 0 0 0 0 0 0 0 0 0 0 0 
0 0 0 0 0 0 0 0 0 0 0 0 0 0 0 0 0 0 0 0 0 0 0 0 0 0 0 0 0 0 0 0 0 0 0 0 0 0 0 0 0 0 0 3 11 15 14 12 14 21 25 28 30 29 25 21 22 23 15 5 4 0 0 0 0 0 0 0 0 0 0 0 0 0 0 0 0 0 0 0 0 0 0 0 0 0 0 0 0 0 0 0 0 0 0 0 0 0 0 0 0 0 0 0 0 0 0 0 0 0 0 0 0 0 0 0 0 0 0 0 0 0 0 0 0 0 0 0 
0 0 0 0 0 0 0 0 0 0 0 0 0 0 0 0 0 0 0 0 0 0 0 0 0 0 0 0 0 0 0 0 0 0 0 0 0 0 0 0 0 16 19 18 26 35 49 68 85 105 122 134 141 144 142 135 119 98 73 46 31 29 14 7 3 0 0 0 0 0 0 0 0 0 0 0 0 0 0 0 0 0 0 0 0 0 0 0 0 0 0 0 0 0 0 0 0 0 0 0 0 0 0 0 0 0 0 0 0 0 0 0 0 0 0 0 0 0 0 0 0 0 0 0 0 0 0 0 
0 0 0 0 0 0 0 0 0 0 0 0 0 0 0 0 0 0 0 0 0 0 0 0 0 0 0 0 0 0 0 0 0 0 0 0 0 0 7 20 20 23 37 64 97 129 158 176 184 181 173 164 158 156 156 157 159 166 170 170 151 113 71 39 29 12 7 2 0 0 0 0 0 0 0 0 0 0 0 0 0 0 0 0 0 0 0 0 0 0 0 0 0 0 0 0 0 0 0 0 0 0 0 0 0 0 0 0 0 0 0 0 0 0 0 0 0 0 0 0 0 0 0 0 0 0 0 0 
0 0 0 0 0 0 0 0 0 0 0 0 0 0 0 0 0 0 0 0 0 0 0 0 0 0 0 0 0 0 0 0 0 0 0 0 7 22 19 25 48 86 130 161 181 183 163 140 140 149 157 164 165 167 167 167 164 160 151 146 150 161 174 158 113 64 36 20 7 2 0 0 0 0 0 0 0 0 0 0 0 0 0 0 0 0 0 0 0 0 0 0 0 0 0 0 0 0 0 0 0 0 0 0 0 0 0 0 0 0 0 0 0 0 0 0 0 0 0 0 0 0 0 0 0 0 0 0 
0 0 0 0 0 0 0 0 0 0 0 0 0 0 0 0 0 0 0 0 0 0 0 0 0 0 0 0 0 0 0 0 0 0 8 24 17 26 55 104 147 175 188 171 151 149 156 171 175 174 174 179 178 169 164 175 182 186 185 177 165 152 148 153 169 177 143 84 40 25 7 2 0 0 0 0 0 0 0 0 0 0 0 0 0 0 0 0 0 0 0 0 0 0 0 0 0 0 0 0 0 0 0 0 0 0 0 0 0 0 0 0 0 0 0 0 0 0 0 0 0 0 0 0 0 0 0 0 
0 0 0 0 0 0 0 0 0 0 0 0 0 0 0 0 0 0 0 0 0 0 0 0 0 0 0 0 0 0 0 0 4 24 17 23 54 110 149 178 187 168 157 165 172 172 173 161 141 130 125 130 133 129 122 117 131 151 174 186 189 186 178 164 148 145 160 180 151 85 39 24 9 0 0 0 0 0 0 0 0 0 0 0 0 0 0 0 0 0 0 0 0 0 0 0 0 0 0 0 0 0 0 0 0 0 0 0 0 0 0 0 0 0 0 0 0 0 0 0 0 0 0 0 0 0 0 0 
0 0 0 0 0 0 0 0 0 0 0 0 0 0 0 0 0 0 0 0 0 0 0 0 0 0 0 0 0 0 0 20 20 19 49 99 142 171 185 167 161 169 181 184 155 136 134 122 113 132 134 128 125 124 135 137 132 108 125 150 172 180 188 189 182 166 145 141 159 179 140 66 29 18 3 0 0 0 0 0 0 0 0 0 0 0 0 0 0 0 0 0 0 0 0 0 0 0 0 0 0 0 0 0 0 0 0 0 0 0 0 0 0 0 0 0 0 0 0 0 0 0 0 0 0 0 0 0 
0 0 0 0 0 0 0 0 0 0 0 0 0 0 0 0 0 0 0 0 0 0 0 0 0 0 0 0 0 10 25 24 36 78 129 163 187 171 159 171 183 181 168 141 119 113 96 82 87 104 135 151 154 150 145 140 122 99 89 93 125 155 171 179 183 187 186 173 151 144 164 171 109 41 19 5 0 0 0 0 0 0 0 0 0 0 0 0 0 0 0 0 0 0 0 0 0 0 0 0 0 0 0 0 0 0 0 0 0 0 0 0 0 0 0 0 0 0 0 0 0 0 0 0 0 0 0 0 
0 0 0 0 0 0 0 0 0 0 0 0 0 0 0 0 0 0 0 0 0 0 0 0 0 0 0 0 20 27 21 53 113 148 179 179 160 169 183 179 168 156 127 119 120 113 121 142 164 165 169 184 179 171 177 190 188 184 175 154 135 148 154 156 169 177 180 188 188 176 152 144 170 147 61 22 9 0 0 0 0 0 0 0 0 0 0 0 0 0 0 0 0 0 0 0 0 0 0 0 0 0 0 0 0 0 0 0 0 0 0 0 0 0 0 0 0 0 0 0 0 0 0 0 0 0 0 0 
0 0 0 0 0 0 0 0 0 0 0 0 0 0 0 0 0 0 0 0 0 0 0 0 0 0 3 27 25 21 75 130 158 184 162 163 181 183 164 157 144 135 146 166 175 183 185 176 172 155 149 145 141 143 148 162 166 162 169 174 177 186 197 193 172 162 172 181 183 184 187 166 141 159 161 74 23 10 0 0 0 0 0 0 0 0 0 0 0 0 0 0 0 0 0 0 0 0 0 0 0 0 0 0 0 0 0 0 0 0 0 0 0 0 0 0 0 0 0 0 0 0 0 0 0 0 0 0 
0 0 0 0 0 0 0 0 0 0 0 0 0 0 0 0 0 0 0 0 0 0 0 0 0 10 26 20 26 92 136 166 175 158 172 182 167 155 156 149 162 184 187 176 168 161 161 158 150 148 144 141 136 137 139 145 155 161 165 166 167 170 177 193 211 207 182 166 173 177 179 188 181 147 152 165 82 21 13 0 0 0 0 0 0 0 0 0 0 0 0 0 0 0 0 0 0 0 0 0 0 0 0 0 0 0 0 0 0 0 0 0 0 0 0 0 0 0 0 0 0 0 0 0 0 0 0 0 
0 0 0 0 0 0 0 0 0 0 0 0 0 0 0 0 0 0 0 0 0 0 0 0 12 25 17 31 101 140 178 169 159 178 176 157 158 163 167 189 186 167 161 162 158 152 149 136 130 126 117 101 98 111 113 112 113 118 121 121 126 133 148 158 171 194 214 210 175 160 173 179 188 190 151 147 165 87 22 11 0 0 0 0 0 0 0 0 0 0 0 0 0 0 0 0 0 0 0 0 0 0 0 0 0 0 0 0 0 0 0 0 0 0 0 0 0 0 0 0 0 0 0 0 0 0 0 0 
0 0 0 0 0 0 0 0 0 0 0 0 0 0 0 0 0 0 0 0 0 0 2 18 23 16 36 106 143 181 162 162 180 169 155 168 167 186 188 166 158 157 147 119 104 104 112 115 113 114 102 87 86 113 120 111 101 98 106 113 109 108 106 113 136 153 170 192 216 198 158 163 175 184 187 154 146 164 94 24 11 0 0 0 0 0 0 0 0 0 0 0 0 0 0 0 0 0 0 0 0 0 0 0 0 0 0 0 0 0 0 0 0 0 0 0 0 0 0 0 0 0 0 0 0 0 0 0 
0 0 0 0 0 0 0 0 0 0 0 0 0 0 0 0 0 0 0 0 0 5 17 17 16 43 113 143 180 154 165 179 160 162 168 164 182 165 148 152 140 118 99 91 91 95 94 79 85 90 80 82 77 84 99 98 83 81 87 102 117 119 112 106 106 115 133 157 174 203 205 157 151 173 177 185 160 150 159 101 27 9 0 0 0 0 0 0 0 0 0 0 0 0 0 0 0 0 0 0 0 0 0 0 0 0 0 0 0 0 0 0 0 0 0 0 0 0 0 0 0 0 0 0 0 0 0 0 
0 0 0 0 0 0 0 0 0 0 0 0 0 0 0 0 0 0 0 0 6 16 16 18 56 119 146 178 158 168 174 157 167 161 160 178 155 143 135 117 114 108 99 95 96 90 70 69 80 73 55 58 54 57 69 72 66 61 67 75 91 103 114 109 102 100 98 114 140 156 184 199 157 147 168 175 185 163 152 156 107 31 8 0 0 0 0 0 0 0 0 0 0 0 0 0 0 0 0 0 0 0 0 0 0 0 0 0 0 0 0 0 0 0 0 0 0 0 0 0 0 0 0 0 0 0 0 0 
0 0 0 0 0 0 0 0 0 0 0 0 0 0 0 0 0 0 0 5 17 19 21 66 122 150 180 160 168 175 159 167 148 145 167 156 146 122 110 111 101 91 94 87 77 65 56 65 68 65 66 68 71 73 75 75 77 74 72 69 69 72 81 95 105 103 102 102 108 130 145 168 195 148 144 167 175 180 160 160 151 105 32 4 0 0 0 0 0 0 0 0 0 0 0 0 0 0 0 0 0 0 0 0 0 0 0 0 0 0 0 0 0 0 0 0 0 0 0 0 0 0 0 0 0 0 0 0 
0 0 0 0 0 0 0 0 0 0 0 0 0 0 0 0 0 0 3 16 18 24 78 123 153 172 168 161 168 158 166 140 133 167 154 135 115 111 112 97 88 82 69 68 69 74 84 88 92 92 92 97 99 100 102 104 107 109 108 106 102 91 77 70 79 89 108 106 104 108 136 147 177 182 144 141 160 178 179 160 168 141 99 24 3 0 0 0 0 0 0 0 0 0 0 0 0 0 0 0 0 0 0 0 0 0 0 0 0 0 0 0 0 0 0 0 0 0 0 0 0 0 0 0 0 0 0 0 
0 0 0 0 0 0 0 0 0 0 0 0 0 0 0 0 0 0 17 16 24 86 119 154 167 171 158 161 151 156 131 121 161 151 136 115 107 110 97 76 64 68 80 93 95 97 99 98 96 93 92 98 102 108 113 118 119 119 125 129 128 127 117 95 72 72 87 106 103 99 112 142 157 177 173 142 140 159 180 165 173 164 133 85 12 0 0 0 0 0 0 0 0 0 0 0 0 0 0 0 0 0 0 0 0 0 0 0 0 0 0 0 0 0 0 0 0 0 0 0 0 0 0 0 0 0 0 0 
0 0 0 0 0 0 0 0 0 0 0 0 0 0 0 0 0 11 15 20 80 120 145 166 178 164 159 154 155 126 116 161 147 135 113 109 105 86 67 66 85 106 114 113 109 105 103 100 98 97 103 115 126 137 142 142 138 135 135 134 132 134 139 130 105 72 69 89 104 99 93 108 134 154 178 156 137 137 160 177 161 183 145 120 51 4 0 0 0 0 0 0 0 0 0 0 0 0 0 0 0 0 0 0 0 0 0 0 0 0 0 0 0 0 0 0 0 0 0 0 0 0 0 0 0 0 0 0 
0 0 0 0 0 0 0 0 0 0 0 0 0 0 0 0 4 15 16 59 124 129 157 174 171 151 160 152 121 114 159 147 135 119 103 107 92 80 85 104 127 137 137 135 132 130 131 127 123 131 133 140 146 149 148 142 143 140 138 135 134 133 136 140 134 108 68 65 85 101 98 89 110 135 152 175 141 133 140 164 161 166 173 128 105 20 0 0 0 0 0 0 0 0 0 0 0 0 0 0 0 0 0 0 0 0 0 0 0 0 0 0 0 0 0 0 0 0 0 0 0 0 0 0 0 0 0 0 
0 0 0 0 0 0 0 0 0 0 0 0 0 0 0 1 11 16 38 118 122 159 155 180 143 151 152 113 107 160 148 136 122 112 108 97 96 102 114 132 144 152 154 151 152 152 151 150 147 143 139 139 139 137 136 138 140 138 138 137 138 139 136 137 139 137 107 63 63 82 92 91 96 126 140 167 165 128 133 148 161 153 185 146 120 76 6 0 0 0 0 0 0 0 0 0 0 0 0 0 0 0 0 0 0 0 0 0 0 1 0 0 0 0 0 0 0 0 0 0 0 0 0 0 0 0 0 0 
0 0 0 0 0 0 0 0 0 0 0 0 0 0 0 5 12 21 92 122 148 153 173 148 139 153 116 96 148 159 136 122 112 101 94 104 107 113 128 141 145 148 147 149 146 147 144 138 139 140 136 135 135 131 131 140 137 138 135 136 133 134 135 135 134 138 134 99 62 69 82 85 91 111 137 147 180 139 123 143 154 149 170 170 126 118 28 0 0 0 0 0 0 0 0 0 0 0 0 0 0 0 0 0 0 0 0 0 0 1 0 0 0 0 0 0 0 0 0 0 0 0 0 0 0 0 0 0 
0 0 0 0 0 0 0 0 0 0 0 0 0 0 2 7 14 61 124 135 153 157 161 130 147 120 91 120 165 139 126 106 100 97 104 105 107 124 137 138 139 136 137 139 136 136 130 123 127 136 135 136 138 143 140 139 140 140 132 128 128 131 130 133 133 137 141 131 94 62 68 81 86 95 119 139 168 159 113 123 156 143 156 185 140 122 66 4 0 0 0 0 0 0 0 0 0 0 0 0 0 0 0 0 0 0 0 0 0 0 0 0 0 0 0 0 0 0 0 0 0 0 0 0 0 0 0 0 
0 0 0 0 0 0 0 0 0 0 0 0 0 0 4 10 38 107 124 146 149 155 137 150 137 88 96 156 154 133 112 99 100 110 104 102 118 137 138 137 132 126 124 127 134 132 128 120 118 129 139 140 136 139 129 136 136 134 132 121 115 117 123 132 138 133 128 135 130 89 61 67 83 89 99 129 153 173 123 105 135 147 139 180 161 121 103 17 0 0 0 0 0 0 0 0 0 0 0 0 0 0 0 0 0 0 0 0 0 0 0 0 0 0 0 0 0 0 0 0 0 0 0 0 0 0 0 0 
0 0 0 0 0 0 0 0 0 0 0 0 0 0 6 16 73 121 131 142 148 147 150 152 99 91 117 163 139 130 101 97 105 104 100 112 135 138 132 132 129 120 122 123 122 122 114 110 111 118 136 138 127 134 125 120 115 122 121 117 116 115 115 118 136 135 123 124 135 121 81 60 71 87 94 109 142 171 127 103 107 150 139 172 173 128 118 38 0 0 0 0 0 0 0 0 0 0 0 0 0 0 0 0 0 0 0 0 0 0 0 0 0 0 0 0 0 0 0 0 0 0 0 0 0 0 0 0 
0 0 0 0 0 0 0 0 0 0 0 0 0 2 5 37 92 135 132 143 139 154 154 117 92 98 124 151 135 111 97 103 101 97 107 133 138 130 131 134 128 119 116 116 115 116 121 117 119 122 122 124 124 120 100 83 89 107 114 120 120 120 120 119 126 136 124 122 130 137 109 69 55 73 89 99 127 163 130 104 102 141 145 167 170 142 118 57 3 0 0 0 0 0 0 0 0 0 0 0 0 0 0 0 0 0 0 0 0 0 0 0 0 0 0 0 0 0 0 0 0 0 0 0 0 0 0 0 
0 0 0 0 0 0 0 0 0 0 0 0 0 2 10 58 114 145 136 148 134 164 126 101 98 100 121 142 123 95 100 100 95 105 128 140 137 131 133 134 130 121 114 112 113 112 122 123 127 124 117 115 118 104 81 79 92 103 107 113 119 117 117 119 118 126 126 124 124 137 133 92 58 55 82 98 113 143 137 100 104 123 143 161 169 155 113 78 5 0 0 0 0 0 0 0 0 0 0 0 0 0 0 0 0 0 0 0 0 1 0 0 0 0 0 0 0 0 0 0 0 0 0 0 0 0 0 0 
0 0 0 0 0 0 0 0 0 0 0 0 0 3 17 75 133 137 140 135 145 159 115 96 97 90 129 141 114 94 101 92 95 119 137 140 139 133 131 136 136 126 115 109 113 115 115 119 125 116 105 102 99 84 73 74 76 88 100 108 109 115 119 118 114 116 127 125 120 129 142 127 78 50 62 95 114 143 138 99 106 109 132 158 167 160 111 91 10 0 0 0 0 0 0 0 0 0 0 0 0 0 0 0 0 0 0 0 0 1 0 0 0 0 0 0 0 0 0 0 0 0 0 0 0 0 0 0 
0 0 0 0 0 0 0 0 0 0 0 0 1 4 30 92 142 131 140 121 156 136 105 97 86 85 140 132 107 103 100 99 118 136 135 137 136 132 133 131 131 125 117 107 103 104 102 106 105 88 79 79 78 71 62 58 58 64 77 92 104 116 118 114 117 119 131 128 115 115 133 143 113 59 51 85 112 145 133 92 103 114 137 160 167 160 115 106 16 0 0 0 0 0 0 0 0 0 0 0 0 0 0 0 0 0 0 0 0 1 0 0 0 0 0 0 0 0 0 0 0 0 0 0 0 0 0 0 
0 0 0 0 0 0 0 0 0 0 0 0 1 6 43 105 143 128 136 124 156 118 105 96 78 92 144 121 112 105 101 117 135 132 124 133 136 128 116 112 111 107 104 101 92 91 88 79 73 70 72 74 73 72 68 65 65 66 66 78 103 113 117 123 136 138 119 122 109 113 123 138 141 97 55 80 109 139 132 86 99 125 136 158 170 158 131 112 26 0 0 0 0 0 0 0 0 0 0 0 0 0 0 0 0 0 0 0 0 1 0 0 0 0 0 0 0 0 0 0 0 0 0 0 0 0 0 0 
0 0 0 0 0 0 0 0 0 0 0 0 1 8 55 123 141 134 128 132 149 110 109 97 77 96 136 125 114 102 111 131 134 129 127 129 134 120 100 95 96 94 94 96 86 78 74 72 75 82 97 102 101 102 103 104 98 88 75 80 99 104 114 121 125 120 114 110 103 109 118 130 142 127 77 64 110 131 124 86 100 134 142 154 174 159 147 117 37 0 0 0 0 0 0 0 0 0 0 0 0 0 0 0 0 0 0 0 0 1 0 0 0 0 0 0 0 0 0 0 0 0 0 0 0 0 0 0 
0 0 0 0 0 0 0 0 0 0 0 0 0 14 60 132 134 131 124 143 149 103 109 100 86 92 131 132 110 101 123 133 131 125 125 127 131 118 97 87 90 92 87 84 83 74 71 77 86 104 126 136 137 136 136 139 127 112 94 90 88 73 76 86 106 118 118 112 121 125 124 122 132 132 104 67 91 135 114 82 95 132 141 153 178 161 154 122 49 1 0 0 0 0 0 0 0 0 0 0 0 0 0 0 0 0 0 0 0 0 0 0 0 0 0 0 0 0 0 0 0 0 0 0 0 0 0 0 
0 0 0 0 0 0 0 0 0 0 0 0 1 18 62 140 131 140 126 149 149 98 104 97 90 82 127 141 110 105 132 133 120 121 128 129 125 106 94 88 87 88 72 57 61 83 90 86 93 118 140 149 154 143 141 143 130 120 108 101 87 67 70 77 99 118 121 123 119 117 119 119 121 122 109 92 88 137 100 78 103 143 140 149 181 163 157 125 56 4 0 0 0 0 0 0 0 0 0 0 0 0 0 0 0 0 0 0 0 0 0 0 0 0 0 0 0 0 0 0 0 0 0 0 0 0 0 0 
0 0 0 0 0 0 0 0 0 0 0 0 4 15 68 141 133 146 129 152 154 100 105 100 92 70 126 146 109 104 131 129 122 125 132 122 98 73 57 57 62 71 68 56 58 62 91 98 100 123 144 149 160 137 127 143 133 119 112 104 76 62 65 69 90 113 119 119 116 110 108 101 118 130 110 104 126 136 91 87 106 141 135 143 178 161 157 127 56 4 0 0 0 0 0 0 0 0 0 0 0 0 0 0 0 0 0 0 0 0 0 0 0 0 0 0 0 0 0 0 0 0 0 0 0 0 0 0 
0 0 0 0 0 0 0 0 0 0 0 0 6 12 73 138 139 152 132 150 159 103 110 115 93 68 125 143 110 117 130 120 129 127 116 110 89 66 55 50 51 53 55 66 67 66 77 89 101 129 154 150 152 132 128 143 145 128 111 85 62 69 61 59 84 108 120 119 114 111 111 105 106 117 126 116 150 145 88 99 109 129 125 144 181 168 160 133 66 4 0 0 0 0 0 0 0 0 0 0 0 0 0 0 0 0 0 0 0 0 0 0 0 0 0 0 0 0 0 0 0 0 0 0 0 0 0 0 
0 0 0 0 0 0 0 0 0 0 0 0 6 10 78 131 139 147 134 150 159 111 104 119 93 79 122 143 115 137 126 110 121 114 110 105 86 65 54 53 55 54 58 60 64 68 62 62 71 107 144 146 137 135 144 141 143 119 77 61 65 57 53 57 78 107 117 115 116 114 114 114 113 125 137 133 144 144 111 109 112 113 121 149 183 170 158 136 77 6 0 0 0 0 0 0 0 0 0 0 0 0 0 0 0 0 0 0 0 0 0 0 0 0 0 0 0 0 0 0 0 0 0 0 0 0 0 0 
0 0 0 0 0 0 0 0 0 0 0 0 9 10 84 125 138 139 134 148 155 114 99 113 99 84 114 149 131 140 129 129 111 113 114 100 79 55 59 68 69 64 61 59 59 62 63 63 64 93 137 139 135 137 147 148 142 100 63 58 58 53 52 61 82 118 137 138 134 137 142 147 144 138 130 116 133 141 137 118 108 102 120 146 179 165 153 134 92 14 0 0 0 0 0 0 0 0 0 0 0 0 0 0 0 0 0 0 0 0 0 0 0 0 0 0 0 0 0 0 0 0 0 0 0 0 0 0 
0 0 0 0 0 0 0 0 0 0 0 0 8 12 91 124 147 141 135 150 149 122 102 107 98 89 117 141 163 144 134 121 110 116 114 94 70 69 89 95 97 86 66 61 58 58 66 64 67 81 126 147 143 126 146 147 135 88 58 60 53 53 58 76 107 127 145 147 144 146 141 138 144 152 130 91 112 136 149 119 106 98 116 149 164 162 154 133 102 24 0 0 0 0 0 0 0 0 0 0 0 0 0 0 0 0 0 0 0 0 0 0 0 0 0 0 0 0 0 0 0 0 0 0 0 0 0 0 
0 0 0 0 0 0 0 0 0 0 0 0 7 14 96 121 151 151 138 140 141 126 105 102 95 95 120 134 161 155 143 115 118 124 123 107 97 107 105 102 98 104 87 65 60 57 59 65 59 75 118 141 133 89 122 143 127 79 56 62 55 59 74 74 78 96 123 139 142 146 144 146 160 146 117 78 84 135 149 120 105 97 110 143 153 161 152 134 104 37 1 0 0 0 0 0 0 0 0 0 0 0 0 0 0 0 0 0 0 0 0 0 0 0 0 0 0 0 0 0 0 0 0 0 0 0 0 0 
0 0 0 0 0 0 0 0 0 0 0 0 8 18 100 119 155 151 138 135 139 131 106 92 92 95 115 128 152 155 154 137 138 152 147 125 106 95 93 88 78 85 90 79 65 58 56 67 59 70 122 129 111 79 99 129 121 80 56 59 65 68 59 58 64 89 108 121 133 148 158 160 152 133 114 74 66 122 139 118 106 97 101 127 142 154 148 137 107 46 3 0 0 0 0 0 0 0 0 0 0 0 0 0 0 0 0 0 0 0 0 0 0 0 0 0 0 0 0 0 0 0 0 0 0 0 0 0 
0 0 0 0 0 0 0 0 0 0 0 0 9 18 104 120 158 151 123 134 139 131 96 86 90 91 113 127 141 154 141 125 130 136 131 111 92 93 86 65 57 54 57 68 76 69 58 58 57 71 119 111 78 72 74 100 122 83 57 72 68 53 57 54 61 85 106 116 126 139 139 142 140 129 113 65 60 109 132 109 102 97 100 110 140 146 131 131 112 51 4 0 0 0 0 0 0 0 0 0 0 0 0 0 0 0 0 0 0 0 0 0 0 0 0 0 0 0 0 0 0 0 0 0 0 0 0 0 
0 0 0 0 0 0 0 0 0 0 0 0 9 19 105 118 158 150 121 141 135 112 78 83 87 89 110 137 144 151 144 125 131 138 131 105 81 82 69 57 58 49 52 58 66 82 81 68 57 79 132 105 55 58 60 73 128 116 91 79 50 48 49 47 53 74 103 114 122 134 137 142 139 128 98 57 59 100 122 106 101 96 97 107 119 148 122 132 114 57 3 0 0 0 0 0 0 0 0 0 0 0 0 0 0 0 0 0 0 0 0 0 0 0 0 0 0 0 0 0 0 0 0 0 0 0 0 0 
0 0 0 0 0 0 0 0 0 0 0 0 10 19 105 117 156 142 112 145 130 84 75 82 88 84 94 133 142 148 147 123 127 136 126 102 83 72 57 55 57 49 48 54 59 60 81 69 55 105 158 133 107 109 105 108 105 121 78 57 50 51 53 52 55 72 101 119 125 134 137 140 133 124 82 52 60 94 111 103 102 93 91 108 121 151 107 134 116 63 3 0 0 0 0 0 0 0 0 0 0 0 0 0 0 0 0 0 0 0 0 0 0 0 0 0 0 0 0 0 0 0 0 0 0 0 0 0 
0 0 0 0 0 0 0 0 0 0 0 0 10 17 104 115 153 120 105 153 105 72 74 83 93 68 75 127 142 146 146 131 121 128 123 104 84 71 64 55 55 58 63 63 59 59 71 63 53 92 113 87 70 52 54 56 90 116 68 67 68 62 59 57 57 74 103 120 123 134 138 135 127 108 67 51 69 110 120 102 103 89 88 111 121 147 96 125 116 66 3 0 0 0 0 0 0 0 0 0 0 0 0 0 0 0 0 0 0 0 0 0 0 0 0 0 0 0 0 0 0 0 0 0 0 0 0 0 
0 0 0 0 0 0 0 0 0 0 0 0 8 17 100 113 146 110 108 151 106 74 72 85 97 68 66 116 145 148 147 129 116 123 120 104 89 76 67 59 55 59 63 66 67 67 68 57 50 100 95 78 61 53 62 58 75 100 72 72 64 59 55 55 58 80 109 119 131 139 137 132 126 90 53 49 94 137 124 102 102 83 90 108 120 147 93 128 108 65 3 0 0 0 0 0 0 0 0 0 0 0 0 0 0 0 0 0 0 0 0 0 0 0 0 0 0 0 0 0 0 0 0 0 0 0 0 0 
0 0 0 0 0 0 0 0 0 0 0 0 6 16 94 115 139 109 104 143 107 76 73 82 95 65 56 104 144 143 146 129 113 123 122 106 89 86 73 60 57 57 57 63 70 72 69 53 59 109 89 65 57 56 59 56 65 95 88 61 62 54 51 53 63 85 110 123 132 139 144 140 120 74 47 56 122 141 134 109 101 78 99 112 122 141 97 137 112 63 3 0 0 0 0 0 0 0 0 0 0 0 0 0 0 0 0 0 0 0 0 0 0 0 0 0 0 0 0 0 0 0 0 0 0 0 0 0 
0 0 0 0 0 0 0 0 0 0 0 0 2 15 87 118 134 115 102 141 106 77 73 81 95 66 52 100 140 144 143 134 112 116 117 108 86 83 82 64 58 55 56 56 59 59 55 56 66 100 76 71 63 66 64 46 44 75 108 64 63 57 58 59 63 85 111 126 135 139 146 147 112 63 43 56 120 144 140 121 98 71 105 111 124 123 111 143 108 57 1 0 0 0 0 0 0 0 0 0 0 0 0 0 0 0 0 0 0 0 0 0 0 0 0 0 0 0 0 0 0 0 0 0 0 0 0 0 
0 0 0 0 0 0 0 0 0 0 0 0 0 13 81 122 131 127 102 142 108 80 75 83 95 71 55 96 134 142 148 142 115 115 115 107 87 79 82 67 51 51 56 54 51 54 49 54 64 97 70 66 59 63 75 47 44 49 98 95 86 76 61 65 70 80 106 122 136 140 146 148 100 54 43 51 111 141 139 132 93 63 106 110 129 104 130 146 106 51 1 0 0 0 0 0 0 0 0 0 0 0 0 0 0 0 0 0 0 0 0 0 0 0 0 0 0 0 0 0 0 0 0 0 0 0 0 0 
0 0 0 0 0 0 0 0 0 13 9 0 1 11 76 124 131 136 97 136 110 82 75 81 93 77 57 96 127 139 145 145 119 117 121 113 87 72 73 72 53 46 49 52 63 69 76 53 78 76 57 57 51 62 71 47 44 44 67 105 135 155 113 80 67 100 131 135 138 137 137 144 89 50 45 62 120 128 129 141 85 58 107 117 130 89 146 140 97 41 1 0 0 0 0 0 0 0 0 0 0 0 0 0 0 0 0 0 0 0 0 0 0 0 0 0 0 0 0 0 0 0 0 0 0 0 0 0 
0 0 0 0 0 0 0 0 0 0 5 1 1 11 67 126 130 140 98 126 114 83 78 77 88 78 60 91 120 142 147 144 128 121 126 110 79 65 65 72 65 72 81 70 78 119 87 43 84 64 51 54 57 64 67 67 52 44 49 122 133 140 147 121 98 108 123 138 136 136 140 137 78 46 49 90 123 118 129 143 78 54 112 131 124 78 149 122 94 36 1 0 0 0 0 0 0 0 0 0 0 0 0 0 0 0 0 0 0 0 0 0 0 0 0 0 0 0 0 0 0 0 0 0 0 0 0 0 
0 0 0 0 0 0 0 0 0 0 0 6 2 10 57 126 125 131 98 113 116 90 82 74 82 83 65 92 116 137 138 138 132 123 125 106 72 59 61 68 77 77 69 99 133 123 85 54 100 61 56 51 61 90 72 69 65 67 91 136 141 118 86 128 152 152 148 144 136 140 152 136 95 73 73 109 117 113 130 133 73 75 118 148 96 96 148 104 94 29 0 0 0 0 0 0 0 0 0 0 0 0 0 0 0 0 0 0 0 0 0 0 0 0 0 0 0 0 0 0 0 0 0 0 0 0 0 0 
0 0 0 0 0 0 0 0 0 0 0 13 3 11 49 121 122 120 103 104 131 110 87 74 78 87 75 95 109 122 122 127 138 127 121 113 81 65 73 84 104 98 110 106 125 114 81 92 103 58 58 58 65 100 70 68 59 56 55 106 135 94 44 74 124 160 174 173 164 159 166 146 120 103 105 120 116 119 133 111 95 127 156 136 80 127 142 93 97 21 0 0 0 13 10 0 0 0 0 0 0 0 0 0 0 0 0 0 0 0 0 0 0 0 0 0 0 0 0 0 0 0 0 0 0 0 0 0 
0 0 0 0 0 0 0 0 0 0 0 17 5 9 41 118 121 120 105 97 117 113 83 77 74 85 79 102 103 108 117 117 126 137 141 155 148 147 150 129 127 109 81 60 79 111 92 65 93 74 71 82 71 105 78 64 55 54 53 109 119 71 47 56 106 166 189 188 181 181 181 150 126 98 98 112 124 129 121 91 115 138 160 138 71 131 100 84 104 14 0 0 6 0 0 0 0 0 0 0 0 0 0 0 0 0 0 0 0 0 0 0 0 0 0 0 0 0 0 0 0 0 0 0 0 0 0 0 
0 0 0 0 0 0 0 0 0 0 0 20 7 10 31 113 116 124 120 97 109 116 81 77 74 82 88 104 103 94 115 121 122 143 164 186 183 155 134 116 121 114 94 93 73 80 84 65 98 86 100 96 84 101 74 56 51 65 67 88 111 79 72 83 123 153 168 182 184 180 163 136 120 100 99 106 106 126 103 90 134 154 151 150 133 125 84 92 103 10 1 0 6 0 0 0 0 0 0 0 0 0 0 0 0 0 0 0 0 0 0 0 0 0 0 0 0 0 0 0 0 0 0 0 0 0 0 0 
0 0 0 0 0 0 0 0 0 0 0 18 4 11 19 99 111 130 129 106 107 119 107 82 76 79 107 105 104 96 123 151 147 152 163 171 173 144 116 112 110 106 62 51 50 73 67 73 102 91 104 102 82 87 69 52 55 69 68 97 98 55 63 97 138 151 174 184 179 160 108 110 127 119 120 135 140 147 138 117 144 170 162 148 160 98 59 97 89 7 4 1 4 0 0 0 0 0 0 0 0 0 0 0 0 0 0 0 0 0 0 0 0 0 0 0 0 0 0 0 0 0 0 0 0 0 0 0 
0 0 0 0 0 0 0 0 0 0 0 16 3 6 12 82 101 134 139 117 110 146 181 114 94 84 123 120 98 75 110 162 172 161 157 150 160 157 140 102 86 67 55 46 50 56 63 74 82 88 115 113 86 89 75 70 67 80 73 84 100 60 59 102 132 153 167 178 182 154 119 119 122 122 124 104 103 104 114 125 149 154 180 172 161 107 93 101 53 6 6 4 3 0 0 0 0 0 0 0 0 0 0 0 0 0 0 0 0 0 0 0 0 0 0 0 0 0 0 0 0 0 0 0 0 0 0 0 
0 0 0 0 0 0 0 0 0 0 0 18 3 5 4 53 94 124 149 122 121 171 212 149 99 112 143 135 103 78 102 147 166 168 165 157 162 169 148 91 82 59 51 54 56 57 81 68 70 106 133 123 107 128 107 67 67 70 68 65 85 99 95 131 145 169 167 183 179 155 136 125 99 102 126 112 95 108 136 144 149 150 162 164 146 88 65 90 22 6 6 6 3 0 0 0 0 0 0 0 0 0 0 0 0 0 0 0 0 0 0 0 0 0 0 0 0 0 0 0 0 0 0 0 0 0 0 0 
0 0 0 0 0 0 0 0 0 0 0 9 9 1 7 9 71 95 134 152 133 150 188 195 142 116 122 144 143 114 124 144 138 145 167 168 152 154 154 124 94 79 62 60 68 66 73 79 71 113 131 135 139 141 140 89 57 61 77 68 78 95 151 167 168 181 186 186 162 127 122 116 88 106 135 133 111 99 153 177 172 158 135 154 155 121 79 93 27 6 4 7 8 0 0 0 0 0 0 0 0 0 0 0 0 0 0 0 0 0 0 0 0 0 0 0 0 0 0 0 0 0 0 0 0 0 0 0 
0 0 0 0 0 0 0 0 0 0 0 12 8 0 7 9 46 92 123 151 160 162 158 185 182 172 163 155 124 89 91 104 122 148 165 170 157 151 146 125 116 98 85 96 104 80 109 94 101 116 115 125 134 147 146 101 62 59 80 81 95 119 134 156 151 173 193 186 148 130 119 86 88 128 142 142 101 129 192 183 172 170 123 132 110 134 91 76 10 4 2 7 8 0 0 0 0 0 0 0 0 0 0 0 0 0 0 0 0 0 0 0 0 0 0 0 0 0 0 0 0 0 0 0 0 0 0 0 
0 0 0 0 0 0 0 0 0 0 0 12 5 0 4 11 30 88 108 143 127 151 161 165 176 171 162 147 136 104 89 97 101 135 154 162 167 161 164 152 142 138 142 130 119 126 147 122 120 106 95 104 109 124 142 134 95 83 110 126 124 132 135 155 142 148 165 173 142 117 103 66 88 123 135 129 130 175 177 181 174 163 127 117 107 101 93 45 6 4 3 5 5 2 0 0 0 0 0 0 0 0 0 0 0 0 0 0 0 0 0 0 0 0 0 0 0 0 0 0 0 0 0 0 0 0 0 0 
0 0 0 0 0 0 0 0 0 0 0 15 4 0 4 10 19 74 101 141 141 147 158 162 168 164 155 154 137 120 101 105 105 110 127 138 164 181 192 175 149 129 142 135 135 156 167 126 119 112 96 96 112 127 135 138 129 125 151 144 133 150 169 167 137 104 86 94 83 64 70 77 95 106 121 148 174 181 160 184 163 141 134 99 91 83 93 21 10 7 6 0 1 5 0 0 0 0 0 0 0 0 0 0 0 0 0 0 0 0 0 0 0 0 0 0 0 0 0 0 0 0 0 0 0 0 0 0 
0 0 0 0 0 0 0 0 0 0 0 13 9 0 1 16 17 47 104 142 133 117 118 145 169 143 126 132 125 113 112 107 94 90 138 143 133 156 157 149 138 129 134 149 153 161 179 143 128 110 97 99 107 121 126 133 136 151 150 142 150 170 187 167 94 54 54 47 54 64 84 93 95 97 101 164 192 162 154 180 162 120 114 85 89 102 64 12 10 9 3 0 0 7 0 0 0 0 0 0 0 0 0 0 0 0 0 0 0 0 0 0 0 0 0 0 0 0 0 0 0 0 0 0 0 0 0 0 
0 0 0 0 0 0 0 0 0 0 0 6 14 5 1 15 16 27 98 127 110 123 118 147 165 117 110 116 120 127 113 109 93 99 146 161 127 106 110 117 140 145 147 166 162 165 175 161 156 141 142 137 117 120 145 152 147 140 139 140 151 159 161 173 135 89 76 49 73 84 100 97 83 83 119 164 194 158 163 171 142 114 108 81 52 93 33 10 10 8 1 0 0 8 0 0 0 0 0 0 0 0 0 0 0 0 0 0 0 0 0 0 0 0 0 0 0 0 0 0 0 0 0 0 0 0 0 0 
0 0 0 0 0 0 0 0 0 0 0 1 10 11 3 12 19 21 74 100 95 117 137 149 158 126 107 110 124 147 136 102 96 101 136 168 123 68 66 67 89 112 132 137 142 153 149 138 161 169 178 187 173 173 179 166 141 135 130 120 124 127 128 153 126 95 84 69 95 108 102 80 67 113 144 167 181 172 166 133 111 118 98 80 61 85 22 10 13 9 2 0 1 8 0 0 0 0 0 0 0 0 0 0 0 0 0 0 0 0 0 0 0 0 0 0 0 0 0 0 0 0 0 0 0 0 0 0 
0 0 0 0 0 0 0 0 0 0 0 2 5 9 7 13 17 21 45 94 81 109 120 114 138 128 108 103 108 135 150 111 103 117 141 158 117 66 50 52 49 70 107 115 122 133 141 123 122 136 150 166 178 177 171 153 137 126 127 126 120 143 152 154 142 115 126 117 122 115 87 68 77 126 139 179 181 148 140 99 85 115 99 59 100 58 19 7 10 10 2 3 7 9 0 0 0 0 0 0 0 0 0 0 0 0 0 0 0 0 0 0 0 0 0 0 0 0 0 0 0 0 0 0 0 0 0 0 
0 0 0 0 0 0 0 0 0 0 5 11 10 10 12 15 17 21 24 82 88 121 115 77 134 111 113 109 112 119 143 138 130 147 144 132 109 86 77 74 84 111 134 131 118 122 121 105 99 94 88 89 98 122 150 148 153 129 94 88 101 140 148 153 153 155 136 120 134 97 61 60 98 128 135 188 157 145 113 83 92 111 94 36 85 32 12 9 10 12 7 10 11 6 0 0 0 0 0 0 0 0 0 0 0 0 0 0 0 0 0 0 0 0 0 0 0 0 0 0 0 0 0 0 0 0 0 0 
0 0 0 0 0 0 0 0 0 0 7 14 12 13 9 15 19 17 19 55 80 112 148 103 120 95 102 127 127 108 134 140 150 171 154 133 116 103 102 106 117 140 140 140 145 149 115 110 106 83 77 114 125 113 108 115 112 117 93 87 97 122 149 147 163 193 140 102 97 62 59 91 120 129 144 163 153 120 83 80 83 93 99 54 74 21 13 10 11 14 10 9 9 3 0 0 0 0 0 0 0 0 0 0 0 0 0 0 0 0 0 0 0 0 0 0 0 0 0 0 0 0 0 0 0 0 0 0 
0 0 0 0 0 0 0 0 0 0 0 10 15 14 4 12 17 18 18 34 72 102 130 117 84 87 100 117 122 108 126 137 177 162 131 128 114 105 112 116 131 147 143 140 154 166 126 127 103 92 117 169 173 159 131 108 124 139 124 113 125 133 144 136 158 175 143 111 103 99 108 126 133 124 134 148 110 92 84 78 88 85 78 88 63 18 10 9 11 12 11 8 9 8 0 0 0 0 0 0 0 0 0 0 0 0 0 0 0 0 0 0 0 0 0 0 0 0 0 0 0 0 0 0 0 0 0 0 
0 0 0 0 0 0 0 0 0 0 0 7 16 12 4 5 12 17 16 22 42 96 122 130 79 68 72 78 117 110 124 132 186 159 123 125 120 96 75 67 94 132 136 136 143 143 133 130 109 104 154 166 148 178 150 108 115 129 105 101 119 120 97 123 138 134 169 159 147 142 138 136 133 127 120 143 124 126 117 81 72 77 78 83 35 12 5 4 8 2 11 11 12 14 10 0 0 0 0 0 0 0 0 0 0 0 0 0 0 0 0 0 0 0 0 0 0 0 0 0 0 0 0 0 0 0 0 0 
0 0 0 0 0 0 0 0 0 0 0 11 15 6 5 3 8 10 20 20 22 62 125 126 90 84 73 111 150 150 112 136 167 145 139 137 129 134 122 101 85 110 104 102 112 112 124 123 124 134 161 151 145 153 159 106 82 97 88 106 124 122 112 112 162 151 209 186 160 143 114 117 130 94 137 165 155 125 109 97 64 74 58 50 18 12 2 6 2 0 3 6 13 16 14 0 0 0 0 0 0 0 0 0 0 0 0 0 0 0 0 0 0 0 0 0 0 0 0 0 0 0 0 0 0 0 0 0 
0 0 0 0 0 0 0 0 0 0 0 5 18 7 5 4 5 12 12 19 18 30 97 133 125 99 102 139 177 161 126 134 126 122 94 110 136 145 141 142 148 170 165 147 148 166 163 154 168 156 140 146 139 141 139 139 143 141 143 158 179 192 190 184 174 175 218 186 154 84 85 138 146 129 151 164 117 105 67 69 78 90 67 24 13 10 8 3 0 0 2 7 16 15 1 0 0 0 0 0 0 0 0 0 0 0 0 0 0 0 0 0 0 0 0 0 0 0 0 0 0 0 0 0 0 0 0 0 
0 0 0 0 0 0 0 0 0 0 0 0 12 13 4 3 3 2 9 9 18 25 53 104 100 89 106 135 130 124 120 145 142 128 87 43 55 85 109 121 167 189 188 187 185 182 171 168 179 164 154 159 159 162 166 156 140 157 194 210 208 207 215 214 194 188 204 146 128 152 124 121 116 127 123 83 51 87 65 63 91 83 40 23 22 5 3 2 2 3 4 4 12 5 0 0 0 0 0 0 0 0 0 0 0 0 0 0 0 0 0 0 0 0 0 0 0 0 0 0 0 0 0 0 0 0 0 0 
0 0 0 0 0 0 0 0 0 0 0 0 2 6 2 0 2 2 2 8 11 16 31 65 86 87 120 116 101 104 111 132 148 130 94 70 78 101 139 162 182 191 175 155 148 141 170 152 163 166 160 151 143 129 125 124 116 133 183 199 172 164 179 189 144 156 205 192 89 127 128 96 42 23 33 44 41 79 75 74 75 46 38 32 23 3 0 0 1 0 3 6 10 1 0 0 0 0 0 0 0 0 0 0 0 0 0 0 0 0 0 0 0 0 0 0 0 0 0 0 0 0 0 0 0 0 0 0 
0 0 0 0 0 0 0 0 0 0 0 0 0 3 2 1 0 0 0 2 2 6 18 44 83 89 77 47 65 67 101 122 184 176 137 149 161 155 151 162 187 179 176 155 139 177 178 135 129 164 174 175 163 127 127 112 125 101 122 114 178 201 199 182 141 132 220 209 165 152 111 74 49 38 28 39 40 68 64 52 53 51 52 42 18 0 0 0 0 0 2 8 9 0 0 0 0 0 0 0 0 0 0 0 0 0 0 0 0 0 0 0 0 0 0 0 0 0 0 0 0 0 0 0 0 0 0 0 
0 0 0 0 0 0 0 0 0 0 0 0 0 2 5 5 5 0 0 0 7 9 13 23 33 45 38 41 72 44 60 70 138 124 90 62 72 72 73 70 95 109 129 150 147 130 107 83 138 115 93 125 103 90 83 93 109 64 91 53 57 96 98 106 104 141 126 55 57 58 41 35 42 31 47 55 45 66 37 32 30 19 9 11 4 0 1 3 5 4 4 6 2 0 0 0 0 0 0 0 0 0 0 0 0 0 0 0 0 0 0 0 0 0 0 0 0 0 0 0 0 0 0 0 0 0 0 0 
0 0 0 0 0 0 0 0 0 0 0 0 0 0 1 4 4 2 0 0 3 10 10 11 21 21 22 30 65 47 59 59 123 113 103 68 57 54 59 71 100 123 124 111 89 64 53 50 89 97 76 127 131 140 141 131 113 59 84 66 50 86 88 94 98 92 78 84 64 44 56 45 31 34 58 60 45 66 37 33 28 18 8 11 4 0 2 2 3 3 4 1 0 0 0 0 0 0 0 0 0 0 0 0 0 0 0 0 0 0 0 0 0 0 0 0 0 0 0 0 0 0 0 0 0 0 0 0 
0 0 0 0 0 0 0 0 0 0 0 0 0 0 0 0 1 1 0 0 0 13 9 10 18 26 35 44 69 63 66 52 112 104 91 91 94 101 117 136 132 111 121 122 108 101 76 74 125 144 121 135 122 128 133 137 138 90 100 95 78 107 99 88 129 121 57 81 88 14 30 31 25 37 103 91 80 88 66 50 39 26 21 24 2 0 0 0 1 0 0 0 0 0 0 0 0 0 0 0 0 0 0 0 0 0 0 0 0 0 0 0 0 0 0 0 0 0 0 0 0 0 0 0 0 0 0 0 
0 0 0 0 0 0 0 0 0 0 0 0 0 0 0 0 0 0 0 0 0 7 7 4 21 73 75 74 76 74 66 48 89 67 56 69 116 122 124 137 104 144 170 161 123 142 150 210 174 158 143 161 151 139 132 147 155 135 135 132 114 119 138 146 132 114 87 113 60 52 40 54 34 13 71 65 69 81 80 66 47 39 37 23 0 0 0 0 0 0 0 0 0 0 0 0 0 0 0 0 0 0 0 0 0 0 0 0 0 0 0 0 0 0 0 0 0 0 0 0 0 0 0 0 0 0 0 0 
0 0 0 0 0 0 0 0 0 0 0 0 0 0 0 0 0 0 0 0 0 0 2 8 13 67 73 71 62 63 59 63 81 50 46 57 75 94 91 104 118 142 176 155 143 143 133 160 159 170 137 114 122 145 156 185 209 212 201 166 133 111 123 151 194 124 93 157 164 91 68 71 41 17 41 48 58 42 30 10 7 12 9 1 0 0 0 0 0 0 0 0 0 0 0 0 0 0 0 0 0 0 0 0 0 0 0 0 0 0 0 0 0 0 0 0 0 0 0 0 0 0 0 0 0 0 0 0 
0 0 0 0 0 0 0 0 0 0 0 0 0 0 0 0 0 0 0 0 0 0 1 6 7 27 43 51 60 84 77 83 97 89 61 47 41 59 98 140 121 115 111 124 114 156 118 145 132 124 102 93 112 125 137 130 126 128 124 118 105 98 86 106 89 94 94 134 144 161 74 41 19 11 65 90 57 35 20 17 19 14 8 0 0 0 0 0 0 0 0 0 0 0 0 0 0 0 0 0 0 0 0 0 0 0 0 0 0 0 0 0 0 0 0 0 0 0 0 0 0 0 0 0 0 0 0 0 
0 0 0 0 0 0 0 0 0 0 0 0 0 0 0 0 0 0 0 0 0 0 4 7 4 11 12 29 37 64 61 60 75 82 31 39 37 41 68 71 58 52 82 79 85 177 171 164 93 91 83 80 74 87 121 108 88 101 89 90 77 80 98 105 135 137 130 117 135 136 145 68 36 24 82 125 72 42 15 10 25 24 7 0 0 0 0 0 0 0 0 0 0 0 0 0 0 0 0 0 0 0 0 0 0 0 0 0 0 0 0 0 0 0 0 0 0 0 0 0 0 0 0 0 0 0 0 0 
0 0 0 0 0 0 0 0 0 0 0 0 0 0 0 0 0 0 0 0 0 0 2 5 8 9 11 25 30 55 63 63 77 82 23 25 23 40 73 78 68 63 66 113 136 182 177 160 107 86 77 63 54 63 62 58 93 105 86 61 61 61 66 65 78 116 134 138 161 129 91 57 33 31 79 143 75 36 17 12 16 12 7 0 0 0 0 0 0 0 0 0 0 0 0 0 0 0 0 0 0 0 0 0 0 0 0 0 0 0 0 0 0 0 0 0 0 0 0 0 0 0 0 0 0 0 0 0 
0 0 0 0 0 0 0 0 0 0 0 0 0 0 0 0 0 0 0 0 0 0 0 4 8 10 10 20 31 48 63 64 76 83 27 22 18 36 76 81 66 74 59 84 149 205 192 147 139 101 81 67 58 54 51 64 77 62 72 56 58 76 104 101 97 110 92 102 114 120 91 46 33 32 66 147 80 38 16 14 16 13 7 0 0 0 0 0 0 0 0 0 0 0 0 0 0 0 0 0 0 0 0 0 0 0 0 0 0 0 0 0 0 0 0 0 0 0 0 0 0 0 0 0 0 0 0 0 
0 0 0 0 0 0 0 0 0 0 0 0 0 0 0 0 0 0 0 0 0 0 0 3 5 9 11 15 25 40 48 51 82 94 30 21 22 59 99 98 73 63 61 67 137 181 154 100 104 100 88 74 61 61 71 77 65 65 62 64 77 109 114 122 121 113 72 74 87 98 105 58 37 39 61 145 72 47 16 14 16 12 4 0 0 0 0 0 0 0 0 0 0 0 0 0 0 0 0 0 0 0 0 0 0 0 0 0 0 0 0 0 0 0 0 0 0 0 0 0 0 0 0 0 0 0 0 0 
0 0 0 0 0 0 0 0 0 0 0 0 0 0 0 0 0 0 0 0 0 0 0 0 6 8 10 13 21 33 44 41 89 109 37 30 43 90 88 68 52 49 53 67 123 164 125 82 116 99 96 81 66 75 86 75 73 76 73 90 132 141 136 141 145 110 81 69 73 79 95 95 46 44 60 141 62 48 20 14 15 12 2 0 0 0 0 0 0 0 0 0 0 0 0 0 0 0 0 0 0 0 0 0 0 0 0 0 0 0 0 0 0 0 0 0 0 0 0 0 0 0 0 0 0 0 0 0 
0 0 0 0 0 0 0 0 0 0 0 0 0 0 0 0 0 0 0 0 0 0 0 0 8 3 8 12 17 27 48 49 82 120 51 38 76 101 67 49 44 40 48 65 116 149 103 87 114 86 108 102 79 85 80 83 84 87 97 137 163 135 131 134 148 121 88 72 51 45 70 120 67 43 63 130 67 44 17 13 15 11 0 0 0 0 0 0 0 0 0 0 0 0 0 0 0 0 0 0 0 0 0 0 0 0 0 0 0 0 0 0 0 0 0 0 0 0 0 0 0 0 0 0 0 0 0 0 
0 0 0 0 0 0 0 0 0 0 0 0 0 0 0 0 0 0 0 0 0 0 0 0 0 6 2 11 15 18 43 63 56 115 70 55 108 104 59 36 37 41 56 62 106 141 113 85 74 64 103 120 106 92 83 85 86 102 117 157 143 105 91 99 140 134 95 70 44 33 46 115 119 60 73 103 51 26 11 13 16 9 0 0 0 0 0 0 0 0 0 0 0 0 0 0 0 0 0 0 0 0 0 0 0 0 0 0 0 0 0 0 0 0 0 0 0 0 0 0 0 0 0 0 0 0 0 0 
0 0 0 0 0 0 0 0 0 0 0 0 0 0 0 0 0 0 0 0 0 0 0 0 0 4 4 6 13 18 22 30 31 66 110 92 118 95 59 35 38 46 58 73 97 133 128 92 63 57 104 128 119 107 87 71 84 115 140 150 111 72 65 79 132 117 105 71 49 33 41 98 131 104 92 66 22 14 14 14 15 7 0 0 0 0 0 0 0 0 0 0 0 0 0 0 0 0 0 0 0 0 0 0 0 0 0 0 0 0 0 0 0 0 0 0 0 0 0 0 0 0 0 0 0 0 0 0 
0 0 0 0 0 0 0 0 0 0 0 0 0 0 0 0 0 0 0 0 0 0 0 0 0 0 7 2 11 15 20 22 26 24 53 72 76 80 69 40 37 39 53 82 78 95 140 115 74 61 88 119 125 118 106 96 105 125 139 118 88 69 75 87 131 92 91 71 48 33 43 87 78 79 61 32 19 14 13 14 12 6 0 0 0 0 0 0 0 0 0 0 0 0 0 0 0 0 0 0 0 0 0 0 0 0 0 0 0 0 0 0 0 0 0 0 0 0 0 0 0 0 0 0 0 0 0 0 
0 0 0 0 0 0 0 0 0 0 0 0 0 0 0 0 0 0 0 0 0 0 0 0 0 0 4 3 4 14 18 18 26 25 15 14 25 58 77 46 37 44 58 78 67 100 122 110 103 83 75 91 106 106 112 116 117 129 113 86 73 75 106 128 150 92 82 79 42 33 51 87 50 21 24 26 17 13 13 14 9 6 0 0 0 0 0 0 0 0 0 0 0 0 0 0 0 0 0 0 0 0 0 0 0 0 0 0 0 0 0 0 0 0 0 0 0 0 0 0 0 0 0 0 0 0 0 0 
0 0 0 0 0 0 0 0 0 0 0 0 0 0 0 0 0 0 0 0 0 0 0 0 0 0 0 7 1 8 15 17 23 25 16 12 19 38 79 64 42 42 75 83 55 94 138 93 92 102 82 105 112 114 128 135 136 131 106 82 75 85 117 147 165 104 83 104 64 44 64 86 41 20 22 25 14 12 14 12 8 5 0 0 0 0 0 0 0 0 0 0 0 0 0 0 0 0 0 0 0 0 0 0 0 0 0 0 0 0 0 0 0 0 0 0 0 0 0 0 0 0 0 0 0 0 0 0 
0 0 0 0 0 0 0 0 0 0 0 0 0 0 0 0 0 0 0 0 0 0 0 0 0 0 0 1 6 2 9 19 20 28 19 17 16 25 61 81 66 75 90 82 60 95 140 107 74 97 93 107 100 111 123 125 136 124 113 110 76 81 112 145 165 123 96 113 93 74 88 74 27 25 22 25 15 14 14 12 8 5 0 0 0 0 0 0 0 0 0 0 0 0 0 0 0 0 0 0 0 0 0 0 0 0 0 0 0 0 0 0 0 0 0 0 0 0 0 0 0 0 0 0 0 0 0 0 
0 0 0 0 0 0 0 0 0 0 0 0 0 0 0 0 0 0 0 0 0 0 0 0 0 0 0 0 5 3 4 17 16 26 22 12 13 22 34 66 89 93 89 68 59 105 159 131 89 88 81 101 101 105 108 116 128 122 117 113 92 78 96 137 168 124 86 111 106 91 76 37 25 25 22 19 15 14 11 11 8 5 0 0 0 0 0 0 0 0 0 0 0 0 0 0 0 0 0 0 0 0 0 0 0 0 0 0 0 0 0 0 0 0 0 0 0 0 0 0 0 0 0 0 0 0 0 0 
0 0 0 0 0 0 0 0 0 0 0 0 0 0 0 0 0 0 0 0 0 0 0 0 0 0 0 0 0 6 2 13 15 23 22 9 4 17 30 30 42 62 57 38 41 104 159 151 124 110 110 100 100 102 91 89 101 122 118 99 105 116 126 151 164 115 72 88 78 48 27 26 26 25 19 15 18 17 12 14 9 5 0 0 0 0 0 0 0 0 0 0 0 0 0 0 0 0 0 0 0 0 0 0 0 0 0 0 0 0 0 0 0 0 0 0 0 0 0 0 0 0 0 0 0 0 0 0 
0 0 0 0 0 0 0 0 0 0 0 0 0 0 0 0 0 0 0 0 0 0 0 0 0 0 0 0 0 5 3 10 12 20 19 11 9 17 28 30 32 33 33 29 33 56 124 146 134 136 113 102 96 83 65 58 69 107 112 90 98 133 166 169 156 73 43 50 52 39 26 26 27 27 19 17 19 16 13 14 9 4 0 0 0 0 0 0 0 0 0 0 0 0 0 0 0 0 0 0 0 0 0 0 0 0 0 0 0 0 0 0 0 0 0 0 0 0 0 0 0 0 0 0 0 0 0 0 
0 0 0 0 0 0 0 0 0 0 0 0 0 0 0 0 0 0 0 0 0 0 0 0 0 0 0 0 0 2 6 10 10 19 18 9 10 18 28 28 26 31 30 28 33 47 68 116 147 136 98 72 55 49 51 52 57 92 109 65 72 118 170 162 105 44 30 42 50 47 27 25 27 28 21 19 20 17 14 15 10 3 0 0 0 0 0 0 0 0 0 0 0 0 0 0 0 0 0 0 0 0 0 0 0 0 0 0 0 0 0 0 0 0 0 0 0 0 0 0 0 0 0 0 0 0 0 0 
