P2
128 99
215
0 0 0 0 0 0 0 0 0 0 0 0 0 0 0 0 0 0 0 0 0 0 0 0 0 0 0 0 0 0 0 0 0 0 0 0 0 0 0 0 0 0 0 0 0 0 0 0 0 0 0 0 0 0 0 0 0 0 0 0 0 0 0 0 0 0 0 0 0 0 0 0 0 0 0 0 0 0 0 0 0 0 0 0 0 0 0 0 0 0 0 0 0 0 0 0 0 0 0 0 0 0 0 0 0 0 0 0 0 0 0 0 0 0 0 0 0 0 0 0 0 0 0 0 0 0 0 0 
0 0 0 0 0 0 0 0 0 0 0 0 0 0 0 0 0 0 0 0 0 0 0 0 0 0 0 0 0 0 0 0 0 0 0 0 0 0 0 0 0 0 0 0 0 0 0 0 0 0 0 0 0 0 0 0 0 0 0 0 0 0 0 0 0 0 0 0 0 0 0 0 0 0 0 0 0 0 0 0 0 0 0 0 0 0 0 0 0 0 0 0 0 0 0 0 0 0 0 0 0 0 0 0 0 0 0 0 0 0 0 0 0 0 0 0 0 0 0 0 0 0 0 0 0 0 0 0 
0 0 0 0 0 0 0 0 0 0 0 0 0 0 0 0 0 0 0 0 0 0 0 0 0 0 0 0 0 0 0 0 0 0 0 0 0 0 0 0 0 0 0 0 0 0 0 0 0 0 0 1 1 2 2 0 0 0 0 0 0 0 0 0 0 0 0 0 0 0 0 0 0 0 0 0 0 0 0 0 0 0 0 0 0 0 0 0 0 0 0 0 0 0 0 0 0 0 0 0 0 0 0 0 0 0 0 0 0 0 0 0 0 0 0 0 0 0 0 0 0 0 0 0 0 0 0 0 
0 0 0 0 0 0 0 0 0 0 0 0 0 0 0 0 0 0 0 0 0 0 0 0 0 0 0 0 0 0 0 0 0 0 0 0 0 0 0 0 0 0 0 1 6 12 15 19 19 21 23 25 27 26 24 18 17 16 15 14 4 0 0 0 0 0 0 0 0 0 0 0 0 0 0 0 0 0 0 0 0 0 0 0 0 0 0 0 0 0 0 0 0 0 0 0 0 0 0 0 0 0 0 0 0 0 0 0 0 0 0 0 0 0 0 0 0 0 0 0 0 0 0 0 0 0 0 0 
0 0 0 0 0 0 0 0 0 0 0 0 0 0 0 0 0 0 0 0 0 0 0 0 0 0 0 0 0 0 0 0 0 0 0 0 0 0 0 0 7 12 19 24 23 32 51 78 98 115 128 137 142 141 137 128 115 99 78 53 30 21 19 12 2 0 0 0 0 0 0 0 0 0 0 0 0 0 0 0 0 0 0 0 0 0 0 0 0 0 0 0 0 0 0 0 0 0 0 0 0 0 0 0 0 0 0 0 0 0 0 0 0 0 0 0 0 0 0 0 0 0 0 0 0 0 0 0 
0 0 0 0 0 0 0 0 0 0 0 0 0 0 0 0 0 0 0 0 0 0 0 0 0 0 0 0 0 0 0 0 0 0 0 0 0 0 10 16 24 25 34 64 105 138 158 167 169 173 179 180 181 181 181 182 178 173 164 151 135 112 78 42 23 17 9 1 0 0 0 0 0 0 0 0 0 0 0 0 0 0 0 0 0 0 0 0 0 0 0 0 0 0 0 0 0 0 0 0 0 0 0 0 0 0 0 0 0 0 0 0 0 0 0 0 0 0 0 0 0 0 0 0 0 0 0 0 
0 0 0 0 0 0 0 0 0 0 0 0 0 0 0 0 0 0 0 0 0 0 0 0 0 0 0 0 0 0 0 0 0 0 0 0 10 21 24 26 49 97 142 165 170 173 179 187 191 188 182 179 177 176 176 177 178 181 186 190 186 174 159 141 116 76 38 19 14 1 0 0 0 0 0 0 0 0 0 0 0 0 0 0 0 0 0 0 0 0 0 0 0 0 0 0 0 0 0 0 0 0 0 0 0 0 0 0 0 0 0 0 0 0 0 0 0 0 0 0 0 0 0 0 0 0 0 0 
0 0 0 0 0 0 0 0 0 0 0 0 0 0 0 0 0 0 0 0 0 0 0 0 0 0 0 0 0 0 0 0 0 0 7 23 25 27 58 117 159 171 171 178 187 194 187 175 169 169 174 183 184 174 170 180 189 187 180 172 173 179 188 185 173 156 136 99 46 24 14 1 0 0 0 0 0 0 0 0 0 0 0 0 0 0 0 0 0 0 0 0 0 0 0 0 0 0 0 0 0 0 0 0 0 0 0 0 0 0 0 0 0 0 0 0 0 0 0 0 0 0 0 0 0 0 0 0 
0 0 0 0 0 0 0 0 0 0 0 0 0 0 0 0 0 0 0 0 0 0 0 0 0 0 0 0 0 0 0 0 3 26 25 21 54 124 162 169 168 179 193 190 180 172 163 156 151 144 137 135 132 125 130 139 149 171 191 196 192 182 173 171 180 187 180 163 142 100 45 22 10 0 0 0 0 0 0 0 0 0 0 0 0 0 0 0 0 0 0 0 0 0 0 0 0 0 0 0 0 0 0 0 0 0 0 0 0 0 0 0 0 0 0 0 0 0 0 0 0 0 0 0 0 0 0 0 
0 0 0 0 0 0 0 0 0 0 0 0 0 0 0 0 0 0 0 0 0 0 0 0 0 0 0 0 0 0 0 21 26 19 39 109 159 166 167 180 191 184 173 169 157 147 137 126 129 130 134 145 150 150 148 147 151 146 151 168 187 196 198 193 180 172 178 186 181 164 135 77 31 20 1 0 0 0 0 0 0 0 0 0 0 0 0 0 0 0 0 0 0 0 0 0 0 0 0 0 0 0 0 0 0 0 0 0 0 0 0 0 0 0 0 0 0 0 0 0 0 0 0 0 0 0 0 0 
0 0 0 0 0 0 0 0 0 0 0 0 0 0 0 0 0 0 0 0 0 0 0 0 0 0 0 0 0 8 26 24 27 81 150 168 166 179 191 183 179 175 168 156 144 138 139 145 145 153 153 148 148 152 155 154 155 159 163 164 169 182 190 193 196 197 187 174 176 188 179 157 113 45 24 6 0 0 0 0 0 0 0 0 0 0 0 0 0 0 0 0 0 0 0 0 0 0 0 0 0 0 0 0 0 0 0 0 0 0 0 0 0 0 0 0 0 0 0 0 0 0 0 0 0 0 0 0 
0 0 0 0 0 0 0 0 0 0 0 0 0 0 0 0 0 0 0 0 0 0 0 0 0 0 0 0 19 28 21 45 124 164 164 177 192 184 181 182 171 164 151 145 156 158 153 135 120 113 107 118 116 100 107 112 111 116 129 144 155 177 195 199 198 195 195 195 187 176 178 185 170 138 66 24 11 0 0 0 0 0 0 0 0 0 0 0 0 0 0 0 0 0 0 0 0 0 0 0 0 0 0 0 0 0 0 0 0 0 0 0 0 0 0 0 0 0 0 0 0 0 0 0 0 0 0 0 
0 0 0 0 0 0 0 0 0 0 0 0 0 0 0 0 0 0 0 0 0 0 0 0 0 0 5 24 24 21 72 148 165 171 187 187 180 186 176 164 163 163 160 153 138 137 129 117 117 113 113 114 119 126 134 139 131 127 125 124 129 139 157 173 192 208 207 196 194 195 186 174 182 173 149 82 25 12 0 0 0 0 0 0 0 0 0 0 0 0 0 0 0 0 0 0 0 0 0 0 0 0 0 0 0 0 0 0 0 0 0 0 0 0 0 0 0 0 0 0 0 0 0 0 0 0 0 0 
0 0 0 0 0 0 0 0 0 0 0 0 0 0 0 0 0 0 0 0 0 0 0 0 0 11 24 21 25 97 156 163 178 191 181 187 186 167 166 169 160 152 142 138 139 140 142 147 147 147 134 132 133 137 141 143 152 153 156 156 148 139 133 145 156 166 187 205 202 193 194 192 176 176 176 154 90 25 13 0 0 0 0 0 0 0 0 0 0 0 0 0 0 0 0 0 0 0 0 0 0 0 0 0 0 0 0 0 0 0 0 0 0 0 0 0 0 0 0 0 0 0 0 0 0 0 0 0 
0 0 0 0 0 0 0 0 0 0 0 0 0 0 0 0 0 0 0 0 0 0 0 0 14 22 18 35 111 159 167 184 188 183 190 177 162 172 163 153 151 146 148 150 152 147 137 132 127 114 109 109 104 100 100 101 109 127 137 142 149 160 161 156 148 153 154 160 183 201 196 191 193 179 172 178 157 99 29 12 0 0 0 0 0 0 0 0 0 0 0 0 0 0 0 0 0 0 0 0 0 0 0 0 0 0 0 0 0 0 0 0 0 0 0 0 0 0 0 0 0 0 0 0 0 0 0 0 
0 0 0 0 0 0 0 0 0 0 0 0 0 0 0 0 0 0 0 0 0 0 4 19 18 16 44 119 155 168 186 187 187 185 163 159 170 156 155 155 149 146 144 142 135 127 116 106 107 107 102 101 95 94 96 96 98 101 112 120 122 128 143 153 159 158 156 151 148 161 191 194 188 190 181 173 176 159 112 34 11 0 0 0 0 0 0 0 0 0 0 0 0 0 0 0 0 0 0 0 0 0 0 0 0 0 0 0 0 0 0 0 0 0 0 0 0 0 0 0 0 0 0 0 0 0 0 0 
0 0 0 0 0 0 0 0 0 0 0 0 0 0 0 0 0 0 0 0 0 5 18 15 16 56 124 154 173 187 186 185 173 152 162 170 156 152 158 152 142 133 132 129 124 113 112 109 111 114 113 109 106 108 110 108 109 108 103 97 96 97 114 127 134 143 154 157 151 147 153 177 190 184 190 182 177 176 159 119 37 9 0 0 0 0 0 0 0 0 0 0 0 0 0 0 0 0 0 0 0 0 0 0 0 0 0 0 0 0 0 0 0 0 0 0 0 0 0 0 0 0 0 0 0 0 0 0 
0 0 0 0 0 0 0 0 0 0 0 0 0 0 0 0 0 0 0 0 6 16 14 21 70 135 157 175 189 188 181 160 146 170 172 152 144 146 140 129 123 127 125 119 107 105 106 113 110 108 121 112 116 128 125 127 133 134 127 120 111 103 98 106 120 126 130 141 158 151 136 142 170 182 176 183 180 181 176 158 122 36 5 0 0 0 0 0 0 0 0 0 0 0 0 0 0 0 0 0 0 0 0 0 0 0 0 0 0 0 0 0 0 0 0 0 0 0 0 0 0 0 0 0 0 0 0 0 
0 0 0 0 0 0 0 0 0 0 0 0 0 0 0 0 0 0 0 6 15 13 22 79 136 160 172 184 186 181 150 142 170 169 145 133 137 129 121 118 118 119 119 117 115 116 118 122 120 121 129 124 130 140 138 143 150 155 158 157 154 144 127 110 99 99 116 126 139 153 141 128 141 165 174 175 184 183 188 168 157 115 28 3 0 0 0 0 0 0 0 0 0 0 0 0 0 0 0 0 0 0 0 0 0 0 0 0 0 0 0 0 0 0 0 0 0 0 0 0 0 0 0 0 0 0 0 0 
0 0 0 0 0 0 0 0 0 0 0 0 0 0 0 0 0 0 4 15 15 21 83 137 157 169 179 185 170 144 149 168 164 138 127 127 115 112 117 115 119 124 126 132 134 130 129 130 130 124 117 117 118 129 129 124 124 130 139 150 159 165 163 149 126 99 92 112 125 133 147 140 125 142 164 167 174 184 184 189 162 155 102 19 1 0 0 0 0 0 0 0 0 0 0 0 0 0 0 0 0 0 0 0 0 0 0 0 0 0 0 0 0 0 0 0 0 0 0 0 0 0 0 0 0 0 0 0 
0 0 0 0 0 0 0 0 0 0 0 0 0 0 0 0 0 2 15 12 18 78 134 152 166 172 190 168 140 150 170 159 130 122 126 116 113 116 118 125 133 133 136 133 126 123 121 117 114 107 102 104 104 108 112 113 114 114 116 118 120 130 146 156 153 135 108 98 115 120 129 142 134 125 144 161 158 170 183 186 182 158 147 78 9 0 0 0 0 0 0 0 0 0 0 0 0 0 0 0 0 0 0 0 0 0 0 0 0 0 0 0 0 0 0 0 0 0 0 0 0 0 0 0 0 0 0 0 
0 0 0 0 0 0 0 0 0 0 0 0 0 0 0 0 0 10 13 16 68 133 144 167 170 192 163 142 148 167 157 123 121 131 113 107 116 123 126 135 134 126 119 119 120 116 109 102 104 104 98 99 97 99 99 101 104 102 101 103 104 104 115 130 149 153 136 108 100 110 120 127 135 128 125 152 158 151 176 181 191 171 156 129 48 4 0 0 0 0 0 0 0 0 0 0 0 0 0 0 0 0 0 0 0 0 0 0 0 0 0 0 0 0 0 0 0 0 0 0 0 0 0 0 0 0 0 0 
0 0 0 0 0 0 0 0 0 0 0 0 0 0 0 0 5 11 14 53 124 136 160 167 187 168 139 147 162 150 122 118 127 118 108 115 121 124 129 128 123 117 117 114 110 107 106 102 104 103 97 99 100 100 102 98 96 95 95 99 103 103 105 109 119 138 146 133 109 99 105 122 131 129 126 123 160 149 145 175 185 188 163 147 109 24 1 0 0 0 0 0 0 0 0 0 0 0 0 0 0 0 0 0 0 0 0 0 0 0 0 0 0 0 0 0 0 0 0 0 0 0 0 0 0 0 0 0 
0 0 0 0 0 0 0 0 0 0 0 0 0 0 0 2 10 13 42 113 134 155 164 181 175 138 143 155 151 122 113 125 125 112 117 123 113 112 115 115 114 108 108 107 107 106 103 102 106 107 106 103 102 103 100 103 100 96 95 94 96 99 102 103 106 119 139 141 126 111 96 98 114 129 130 121 134 160 139 151 177 192 177 158 134 75 7 0 0 0 0 0 0 0 0 0 0 0 0 0 0 0 0 0 0 0 0 0 0 0 0 0 0 0 0 0 0 0 0 0 0 0 0 0 0 0 0 0 
0 0 0 0 0 0 0 0 0 0 0 0 0 0 0 8 9 27 95 129 145 160 173 178 143 137 150 152 130 113 120 130 117 113 123 111 98 110 115 114 109 99 101 100 97 94 94 95 99 105 109 104 101 106 98 99 94 93 94 93 92 92 97 100 105 107 119 140 135 120 106 98 98 116 130 127 120 145 144 142 156 185 181 166 146 114 31 1 0 0 0 0 0 0 0 0 0 0 0 0 0 0 0 0 0 0 0 0 0 0 0 0 0 0 0 0 0 0 0 0 0 0 0 0 0 0 0 0 
0 0 0 0 0 0 0 0 0 0 0 0 0 0 3 7 14 70 120 138 154 168 170 159 129 141 145 137 116 120 131 123 113 120 111 91 105 117 114 112 110 101 95 89 83 90 93 93 91 95 109 99 93 102 85 81 79 81 76 76 81 85 88 95 100 107 105 123 137 130 119 106 95 101 128 133 125 129 142 131 146 171 180 174 152 132 69 3 0 0 0 0 0 0 0 0 0 0 0 0 0 0 0 0 0 0 0 0 0 0 0 0 0 0 0 0 0 0 0 0 0 0 0 0 0 0 0 0 
0 0 0 0 0 0 0 0 0 0 0 0 0 0 6 7 43 102 124 150 163 167 154 147 135 137 140 126 118 129 129 120 122 107 89 97 113 112 113 108 97 89 79 75 78 84 88 84 78 80 106 101 92 95 82 81 76 74 73 72 73 76 79 84 93 102 98 105 129 137 121 116 104 90 107 134 136 128 137 115 137 159 171 171 162 140 102 20 0 0 0 0 0 0 0 0 0 0 0 0 0 0 0 0 0 0 0 0 0 0 0 0 0 0 0 0 0 0 0 0 0 0 0 0 0 0 0 0 
0 0 0 0 0 0 0 0 0 0 0 0 0 1 6 17 80 113 138 152 168 146 146 134 133 124 134 120 120 131 115 116 108 87 94 110 112 108 108 97 85 78 75 75 78 85 89 90 90 90 101 106 110 109 101 95 89 86 83 81 79 76 76 78 86 99 99 98 108 134 132 122 123 99 97 121 135 130 136 109 121 154 166 168 171 144 120 38 1 0 0 0 0 0 0 0 0 0 0 0 0 0 0 0 0 0 0 0 0 0 0 0 0 0 0 0 0 0 0 0 0 0 0 0 0 0 0 0 
0 0 0 0 0 0 0 0 0 0 0 0 0 2 4 42 100 125 146 154 162 142 148 129 130 117 135 116 126 122 117 114 92 88 110 112 105 101 101 89 77 73 77 83 91 100 103 104 103 99 97 104 113 102 98 99 102 101 98 99 96 90 83 79 81 90 94 98 99 118 135 129 128 112 94 114 130 130 138 108 108 149 166 168 174 150 129 54 2 0 0 0 0 0 0 0 0 0 0 0 0 0 0 0 0 0 0 0 0 0 0 0 0 0 0 0 0 0 0 0 0 0 0 0 0 0 0 0 
0 0 0 0 0 0 0 0 0 0 0 0 0 5 8 66 111 136 145 161 145 138 146 127 122 118 129 113 125 120 118 104 97 109 115 113 114 103 91 80 75 77 90 102 111 113 109 101 94 95 94 95 106 97 95 92 92 93 97 104 108 107 100 92 89 86 88 91 96 106 124 132 131 123 104 109 124 120 137 118 95 137 163 161 171 152 131 74 5 0 0 0 0 0 0 0 0 0 0 0 0 0 0 0 0 0 0 0 0 0 0 0 0 0 0 0 0 0 0 0 0 0 0 0 0 0 0 0 
0 0 0 0 0 0 0 0 0 0 0 0 0 5 16 88 119 141 145 160 132 140 141 125 114 125 116 118 125 121 107 102 113 121 114 114 107 92 86 83 90 100 110 114 115 106 98 94 91 92 95 93 98 93 95 95 94 92 92 92 96 104 112 110 105 93 92 93 93 94 112 131 137 131 111 105 118 115 132 128 90 119 157 160 169 158 135 93 12 0 0 0 0 0 0 0 0 0 0 0 0 0 0 0 0 0 0 0 0 0 0 0 0 0 0 0 0 0 0 0 0 0 0 0 0 0 0 0 
0 0 0 0 0 0 0 0 0 0 0 0 2 4 33 99 129 143 147 145 124 137 136 124 109 118 107 128 128 110 98 116 125 116 105 108 98 87 90 97 111 123 122 111 102 92 93 94 92 93 91 88 91 89 92 95 94 95 93 91 93 94 104 115 118 114 108 102 88 83 95 119 140 144 125 105 112 103 126 131 92 114 157 156 167 165 135 110 17 0 0 0 0 0 0 0 0 0 0 0 0 0 0 0 0 0 0 0 0 0 0 0 0 0 0 0 0 0 0 0 0 0 0 0 0 0 0 0 
0 0 0 0 0 0 0 0 0 0 0 0 2 4 51 102 135 142 145 133 123 134 135 119 101 109 114 134 123 95 107 124 118 107 103 108 98 91 98 111 120 126 120 105 91 88 90 90 91 91 89 86 85 86 91 93 94 94 94 94 98 98 97 108 124 137 132 111 85 79 82 98 124 148 143 112 109 97 117 133 95 107 153 151 161 168 141 119 25 0 0 0 0 0 0 0 0 0 0 0 0 0 0 0 0 0 0 0 0 0 0 0 0 0 0 0 0 0 0 0 0 0 0 0 0 0 0 0 
0 0 0 0 0 0 0 0 0 0 0 0 2 6 64 110 143 143 144 127 118 134 135 116 93 111 121 132 112 89 115 121 107 106 109 109 107 104 112 116 117 116 115 107 93 90 88 89 88 89 93 92 88 87 90 93 93 94 93 97 118 118 116 121 131 130 122 112 98 82 79 84 105 136 156 130 103 94 112 131 106 110 155 152 161 170 150 125 35 1 0 0 0 0 0 0 0 0 0 0 0 0 0 0 0 0 0 0 0 0 0 0 0 0 0 0 0 0 0 0 0 0 0 0 0 0 0 0 
0 0 0 0 0 0 0 0 0 0 0 0 3 8 70 118 143 137 146 130 118 138 132 111 93 120 126 124 98 86 119 112 99 105 107 112 122 122 121 120 119 115 113 112 100 91 88 89 90 93 97 96 97 96 99 103 100 95 93 102 120 118 116 102 97 115 119 122 122 100 86 80 87 115 154 153 110 93 108 120 112 111 154 159 168 170 159 131 46 2 0 0 0 0 0 0 0 0 0 0 0 0 0 0 0 0 0 0 0 0 0 0 0 0 0 0 0 0 0 0 0 0 0 0 0 0 0 0 
0 0 0 0 0 0 0 0 0 0 0 0 3 11 74 124 144 145 146 127 123 142 130 107 97 127 127 106 92 87 117 99 95 107 112 119 133 137 135 133 131 127 127 113 110 111 99 93 91 94 104 108 113 109 112 112 106 100 96 103 120 109 92 88 98 108 117 132 124 107 94 87 86 97 135 166 128 97 102 109 119 114 151 160 167 168 165 138 58 3 0 0 0 0 0 0 0 0 0 0 0 0 0 0 0 0 0 0 0 0 0 0 0 0 0 0 0 0 0 0 0 0 0 0 0 0 0 0 
0 0 0 0 0 0 0 0 0 0 0 0 3 13 79 130 147 155 148 130 130 142 130 106 101 131 124 91 89 91 110 93 99 116 123 125 123 115 109 110 115 118 123 109 99 107 115 98 95 103 109 116 125 123 122 124 114 102 99 106 119 97 92 94 92 93 99 104 106 99 92 84 89 104 118 153 156 111 102 111 128 112 148 154 164 167 170 139 71 4 0 0 0 0 0 0 0 0 0 0 0 0 0 0 0 0 0 0 0 0 0 0 0 0 0 0 0 0 0 0 0 0 0 0 0 0 0 0 
0 0 0 0 0 0 0 0 0 0 0 0 3 15 79 131 149 156 147 131 136 143 134 108 108 134 116 79 87 99 102 92 110 128 121 112 101 91 88 91 93 91 92 100 104 116 118 108 99 103 112 119 132 134 134 138 123 107 105 112 115 113 102 94 92 92 100 103 105 95 84 82 85 93 114 133 155 140 108 116 135 117 141 146 158 163 172 142 83 6 0 0 0 0 0 0 0 0 0 0 0 0 0 0 0 0 0 0 0 0 0 0 0 0 0 0 0 0 0 0 0 0 0 0 0 0 0 0 
0 0 0 0 0 0 0 0 0 0 0 0 7 15 83 137 148 149 151 133 136 139 134 116 124 136 117 75 83 103 98 104 126 121 110 99 96 93 96 103 102 94 90 88 95 106 106 110 105 112 127 137 139 141 150 152 134 116 111 109 114 97 95 89 88 99 105 111 115 108 93 86 82 81 102 140 146 157 127 123 135 117 139 142 152 165 173 148 96 9 0 0 0 0 0 0 0 0 0 0 0 0 0 0 0 0 0 0 0 0 0 0 0 0 0 0 0 0 0 0 0 0 0 0 0 0 0 0 
0 0 0 0 0 0 0 0 0 0 0 0 8 15 87 137 148 155 150 131 132 136 129 120 132 133 122 87 78 105 108 119 117 106 108 109 103 101 101 104 107 104 99 96 92 95 95 101 94 96 110 140 147 144 156 140 114 96 91 102 102 97 91 77 86 92 98 103 107 100 91 89 93 97 111 142 153 149 146 129 135 117 133 133 141 165 173 149 110 16 0 0 0 0 0 0 0 0 0 0 0 0 0 0 0 0 0 0 0 0 0 0 0 0 0 0 0 0 0 0 0 0 0 0 0 0 0 0 
0 0 0 0 0 0 0 0 0 0 0 0 8 15 91 138 152 152 145 124 131 136 121 118 129 135 113 103 99 107 117 121 111 111 109 100 89 89 91 93 95 95 92 93 95 89 95 96 94 93 105 134 146 137 149 131 109 95 94 107 100 88 76 83 93 97 106 113 115 112 102 91 92 96 118 139 153 140 152 136 132 114 130 127 130 158 171 150 117 23 0 0 0 0 0 0 0 0 0 0 0 0 0 0 0 0 0 0 0 0 0 0 0 0 0 0 0 0 0 0 0 0 0 0 0 0 0 0 
0 0 0 0 0 0 0 0 0 0 0 0 9 14 96 140 156 159 141 115 131 131 123 114 126 132 109 105 111 118 127 125 124 122 111 98 92 90 86 95 95 95 94 91 91 94 92 102 97 92 106 131 140 120 132 132 108 92 97 111 93 81 88 102 109 115 114 114 113 104 94 87 90 100 113 125 145 143 148 134 122 111 129 121 119 153 164 151 121 33 1 0 0 0 0 0 0 0 0 0 0 0 0 0 0 0 0 0 0 0 0 0 0 0 0 0 0 0 0 0 0 0 0 0 0 0 0 0 
0 0 0 0 0 0 0 0 0 0 0 0 9 15 98 141 158 157 132 116 133 123 122 109 123 125 108 113 110 111 121 109 114 115 109 104 105 106 106 110 113 106 99 92 90 92 97 103 99 88 102 133 124 112 115 130 109 89 99 105 88 92 108 111 107 109 112 112 109 102 93 86 90 101 108 120 131 142 141 129 114 106 122 116 106 145 161 156 125 43 1 0 0 0 0 0 0 0 0 0 0 0 0 0 0 0 0 0 0 0 0 0 0 0 0 0 0 0 0 0 0 0 0 0 0 0 0 0 
0 0 0 0 0 0 0 0 0 0 0 0 9 17 101 143 158 162 134 122 127 120 117 106 116 123 107 115 113 110 121 108 114 120 112 105 104 103 106 106 111 112 110 104 93 90 95 101 103 92 106 119 101 114 113 118 119 100 99 94 97 108 101 93 92 98 108 111 106 98 90 88 94 103 109 118 126 145 149 130 106 99 121 108 100 133 158 158 126 50 2 0 0 0 0 0 0 0 0 0 0 0 0 0 0 0 0 0 0 0 0 0 0 0 0 0 0 0 0 0 0 0 0 0 0 0 0 0 
0 0 0 0 0 0 0 0 0 0 0 0 8 16 99 142 157 160 126 122 117 118 112 102 106 120 107 129 131 116 121 110 108 118 109 108 108 111 116 107 96 98 105 112 106 93 82 83 92 92 122 121 90 102 104 112 123 103 101 103 105 94 92 89 89 93 102 106 101 95 91 88 89 95 104 113 123 143 146 126 104 88 119 103 89 128 139 154 127 55 2 0 0 0 0 0 0 0 0 0 0 0 0 0 0 0 0 0 0 0 0 0 0 0 0 0 0 0 0 0 0 0 0 0 0 0 0 0 
0 0 0 0 0 0 0 0 0 0 0 0 9 15 98 141 158 156 113 105 107 112 111 88 98 120 112 128 131 123 123 109 110 117 112 102 107 109 107 100 95 95 91 97 97 93 87 92 102 106 136 124 109 80 85 95 129 125 110 105 98 101 104 89 89 94 102 103 96 92 90 89 88 96 105 112 123 139 142 127 110 90 125 105 90 123 119 148 130 58 2 0 0 0 0 0 0 0 0 0 0 0 0 0 0 0 0 0 0 0 0 0 0 0 0 0 0 0 0 0 0 0 0 0 0 0 0 0 
0 0 0 0 0 0 0 0 0 0 0 0 8 15 95 137 157 150 104 103 94 111 111 83 94 120 112 123 122 126 127 109 112 116 111 105 105 107 109 104 95 92 93 88 71 73 91 86 101 124 143 130 116 98 84 76 109 126 106 107 96 99 101 94 91 94 103 102 91 89 88 86 85 95 104 113 130 144 146 129 109 89 127 108 93 119 117 146 129 58 2 0 0 0 0 0 0 0 0 0 0 0 0 0 0 0 0 0 0 0 0 0 0 0 0 0 0 0 0 0 0 0 0 0 0 0 0 0 
0 0 0 0 0 0 0 0 0 0 0 0 6 14 91 134 154 143 105 107 88 110 114 84 95 117 111 122 116 124 128 118 105 111 107 101 100 103 109 112 96 92 91 87 76 79 82 82 95 131 124 114 99 90 84 80 94 129 105 97 95 94 91 91 92 95 100 96 88 86 89 87 88 98 103 117 140 147 148 129 105 88 129 103 95 114 118 145 124 54 2 0 0 0 0 0 0 0 0 0 0 0 0 0 0 0 0 0 0 0 0 0 0 0 0 0 0 0 0 0 0 0 0 0 0 0 0 0 
0 0 0 0 0 0 0 0 0 0 0 0 6 13 82 135 150 140 100 107 82 110 116 85 90 114 116 124 107 113 130 123 98 112 110 95 98 103 110 115 105 95 83 73 66 67 79 89 105 134 107 98 99 97 91 79 79 116 126 103 93 91 88 92 93 96 101 94 85 84 86 82 89 95 96 118 148 140 149 135 98 89 129 96 98 111 120 145 124 49 2 0 0 0 0 0 0 0 0 0 0 0 0 0 0 0 0 0 0 0 0 0 0 0 0 0 0 0 0 0 0 0 0 0 0 0 0 0 
0 0 0 0 0 0 0 0 0 0 0 0 5 14 75 135 147 141 100 110 81 104 122 88 83 105 115 126 103 100 122 118 95 109 117 112 111 109 112 111 104 89 78 69 62 68 71 79 109 125 105 96 99 103 101 86 84 96 128 114 97 92 93 97 98 99 106 96 81 78 82 83 92 88 91 111 142 130 143 140 89 95 129 90 103 101 125 144 116 43 2 0 0 0 0 0 0 0 0 0 0 0 0 0 0 0 0 0 0 0 0 0 0 0 0 0 0 0 0 0 0 0 0 0 0 0 0 0 
0 0 0 0 0 0 0 0 0 0 0 0 2 14 67 134 143 148 100 111 85 92 121 97 84 99 112 128 105 94 118 122 95 102 114 114 108 106 110 109 102 82 75 70 62 68 74 81 112 113 93 90 95 102 105 90 90 86 112 133 128 102 100 98 96 101 105 90 74 74 82 86 90 82 85 106 132 121 131 139 84 100 122 85 103 93 128 136 107 37 1 0 0 0 0 0 0 0 0 0 0 0 0 0 0 0 0 0 0 0 0 0 0 0 0 0 0 0 0 0 0 0 0 0 0 0 0 0 
0 0 0 0 0 0 0 0 0 8 6 0 0 11 59 130 141 151 105 106 90 80 122 106 83 95 109 130 108 99 114 115 96 97 105 113 109 102 109 108 106 86 75 71 71 92 108 105 115 106 88 86 96 109 107 98 91 89 95 118 143 137 117 104 98 103 100 84 69 76 81 85 85 78 90 116 129 115 128 134 89 109 107 84 101 93 133 130 98 33 1 0 0 0 0 0 0 0 0 0 0 0 0 0 0 0 0 0 0 0 0 0 0 0 0 0 0 0 0 0 0 0 0 0 0 0 0 0 
0 0 0 0 0 0 0 0 0 5 9 3 1 8 49 124 142 146 119 102 99 71 112 112 87 89 113 136 110 100 107 111 100 101 106 110 105 97 98 101 102 100 87 84 98 99 108 95 117 105 81 81 97 109 99 102 106 95 90 112 127 148 144 118 104 102 101 86 71 75 77 86 80 78 91 127 117 116 125 120 108 112 90 90 93 102 132 120 89 29 1 0 0 0 0 0 0 0 0 0 0 0 0 0 0 0 0 0 0 0 0 0 0 0 0 0 0 0 0 0 0 0 0 0 0 0 0 0 
0 0 0 0 0 0 0 0 0 0 0 11 1 5 37 115 136 129 121 98 102 73 96 117 91 87 113 140 107 86 93 98 104 101 101 92 94 90 95 97 103 107 104 112 114 109 103 107 121 89 81 80 97 109 99 94 105 104 97 115 118 137 144 145 129 119 109 89 73 78 78 82 86 91 108 129 124 136 126 118 130 123 85 96 81 119 126 115 81 23 0 0 0 0 0 0 0 0 0 0 0 0 0 0 0 0 0 0 0 0 0 0 0 0 0 0 0 0 0 0 0 0 0 0 0 0 0 0 
0 0 0 0 0 0 0 0 0 0 1 10 6 6 28 100 132 131 122 100 111 88 79 115 101 86 113 139 107 87 93 95 111 113 105 96 90 94 103 117 120 114 122 133 125 107 109 123 113 90 79 81 99 111 98 91 88 89 94 115 124 150 152 141 135 132 132 123 106 98 108 120 118 118 128 138 140 136 115 114 156 131 99 95 93 141 134 111 76 15 0 0 0 8 6 0 0 0 0 0 0 0 0 0 0 0 0 0 0 0 0 0 0 0 0 0 0 0 0 0 0 0 0 0 0 0 0 0 
0 0 0 0 0 0 0 0 0 0 2 7 8 6 22 90 124 132 117 110 109 101 71 102 111 91 116 134 111 91 90 93 112 132 125 110 110 119 130 129 132 126 120 121 135 129 116 125 121 81 70 80 95 108 94 81 83 88 97 136 143 148 134 135 143 151 160 161 150 141 125 123 120 100 121 138 139 127 111 126 160 121 113 95 110 133 130 108 72 9 1 0 5 1 1 0 0 0 0 0 0 0 0 0 0 0 0 0 0 0 0 0 0 0 0 0 0 0 0 0 0 0 0 0 0 0 0 0 
0 0 0 0 0 0 0 0 0 0 1 4 7 7 18 82 114 136 121 118 99 107 78 81 113 101 123 130 111 102 93 96 97 117 132 138 133 134 135 137 137 125 119 123 135 135 115 117 118 81 75 85 93 109 91 78 82 90 98 140 146 143 123 126 140 152 158 142 118 127 139 116 100 96 125 118 137 130 124 139 149 117 122 108 145 119 117 110 64 6 3 4 2 0 0 0 0 0 0 0 0 0 0 0 0 0 0 0 0 0 0 0 0 0 0 0 0 0 0 0 0 0 0 0 0 0 0 0 
0 0 0 0 0 0 0 0 0 0 1 5 7 9 13 67 107 134 129 124 94 99 97 84 111 107 135 135 115 102 99 96 94 105 129 133 136 139 143 146 142 125 113 112 122 128 120 114 123 84 68 73 92 101 90 85 95 103 111 136 151 151 133 125 129 144 157 139 119 119 149 127 128 141 130 132 142 139 148 164 158 136 145 141 157 124 104 109 52 4 4 3 2 0 0 0 0 0 0 0 0 0 0 0 0 0 0 0 0 0 0 0 0 0 0 0 0 0 0 0 0 0 0 0 0 0 0 0 
0 0 0 0 0 0 0 0 0 0 0 5 8 10 14 56 105 135 141 133 104 108 118 103 109 121 137 141 135 115 107 120 125 144 158 141 130 137 139 138 119 119 132 125 113 121 138 133 120 88 75 79 77 98 98 94 97 116 118 133 149 148 140 126 108 127 163 150 142 155 150 129 146 147 124 117 126 142 163 170 178 172 160 168 163 108 97 105 36 6 1 2 2 0 0 0 0 0 0 0 0 0 0 0 0 0 0 0 0 0 0 0 0 0 0 0 0 0 0 0 0 0 0 0 0 0 0 0 
0 0 0 0 0 0 0 0 0 0 0 7 9 9 11 37 99 133 143 145 132 137 131 132 136 134 141 127 126 128 111 130 154 149 141 131 124 128 132 127 125 138 145 135 123 122 140 124 98 83 84 89 89 108 99 96 101 114 120 120 141 148 126 113 103 108 137 167 161 165 142 130 143 143 142 123 118 129 157 159 169 178 167 169 144 111 97 91 20 3 0 3 1 1 0 0 0 0 0 0 0 0 0 0 0 0 0 0 0 0 0 0 0 0 0 0 0 0 0 0 0 0 0 0 0 0 0 0 
0 0 0 0 0 0 0 0 0 0 0 3 14 7 11 11 61 112 134 125 158 166 169 163 176 153 141 135 123 138 125 127 146 152 138 126 115 121 134 127 129 140 142 148 133 113 136 125 114 90 90 102 96 106 114 106 108 111 119 124 120 118 117 93 101 117 114 146 150 140 117 116 122 125 130 148 130 129 135 140 148 162 142 142 134 104 83 89 21 4 4 2 1 1 0 0 0 0 0 0 0 0 0 0 0 0 0 0 0 0 0 0 0 0 0 0 0 0 0 0 0 0 0 0 0 0 0 0 
0 0 0 0 0 0 0 0 0 0 0 5 12 8 10 10 35 101 137 136 145 171 172 175 172 174 167 144 129 118 116 123 143 150 147 131 148 143 132 107 106 118 130 144 137 121 144 117 108 108 115 120 118 131 130 117 99 97 103 111 104 99 93 87 108 115 115 128 134 106 96 99 111 120 114 127 127 135 134 133 148 169 148 142 115 106 95 70 11 7 8 5 2 0 0 0 0 0 0 0 0 0 0 0 0 0 0 0 0 0 0 0 0 0 0 0 0 0 0 0 0 0 0 0 0 0 0 0 
0 0 0 0 0 0 0 0 0 0 0 7 10 9 4 11 21 85 131 132 125 138 163 154 159 158 158 146 143 144 129 134 143 157 162 159 163 139 106 90 89 100 115 130 117 119 137 98 92 102 105 104 97 118 119 102 84 81 95 93 73 81 104 106 108 109 118 126 129 121 114 118 141 134 120 125 150 141 131 124 137 139 124 127 122 96 96 37 6 4 7 9 3 0 0 0 0 0 0 0 0 0 0 0 0 0 0 0 0 0 0 0 0 0 0 0 0 0 0 0 0 0 0 0 0 0 0 0 
0 0 0 0 0 0 0 0 0 0 0 3 5 4 1 5 13 58 116 125 128 110 127 128 129 130 139 151 131 125 123 117 120 114 142 158 160 134 106 108 97 93 92 92 87 98 132 89 86 94 88 79 80 98 96 97 72 72 97 78 69 86 124 129 112 86 87 98 113 129 128 128 145 142 146 167 160 128 126 132 120 110 114 112 108 99 76 20 7 6 5 9 7 0 0 0 0 0 0 0 0 0 0 0 0 0 0 0 0 0 0 0 0 0 0 0 0 0 0 0 0 0 0 0 0 0 0 0 
0 0 0 0 0 0 0 0 0 0 0 3 2 0 0 4 13 30 109 132 121 119 118 139 140 131 127 141 117 97 125 121 110 102 122 131 125 118 104 93 84 85 90 86 78 88 129 108 85 79 86 87 73 76 93 92 91 86 92 81 73 111 133 130 121 89 81 89 93 108 120 138 131 120 144 173 159 156 151 136 128 119 103 93 95 108 41 10 4 8 8 6 7 0 0 0 0 0 0 0 0 0 0 0 0 0 0 0 0 0 0 0 0 0 0 0 0 0 0 0 0 0 0 0 0 0 0 0 
0 0 0 0 0 0 0 0 0 0 0 2 3 0 0 3 12 16 82 122 114 119 115 142 146 140 121 104 116 125 124 128 104 118 143 151 142 125 110 75 76 91 86 76 72 87 116 112 107 116 109 108 98 83 106 108 90 81 88 93 90 117 127 113 109 92 79 90 95 116 122 109 101 109 159 159 153 178 182 151 119 103 105 98 81 88 18 10 4 3 8 4 3 0 0 0 0 0 0 0 0 0 0 0 0 0 0 0 0 0 0 0 0 0 0 0 0 0 0 0 0 0 0 0 0 0 0 0 
0 0 0 0 0 0 0 0 0 0 0 1 3 0 0 3 8 12 48 95 117 112 112 130 168 153 116 111 127 138 134 112 98 116 115 123 116 107 100 86 85 101 84 84 92 109 121 131 120 123 131 137 137 136 148 128 122 132 125 113 100 129 139 143 119 102 93 101 111 122 93 77 98 128 157 148 151 188 198 176 105 98 110 98 86 57 12 11 5 1 4 4 3 0 0 0 0 0 0 0 0 0 0 0 0 0 0 0 0 0 0 0 0 0 0 0 0 0 0 0 0 0 0 0 0 0 0 0 
0 0 0 0 0 0 0 0 0 0 0 0 4 0 0 3 9 13 27 93 114 111 108 116 151 163 144 134 134 139 146 135 100 105 113 120 102 93 93 106 110 112 102 109 128 136 140 132 122 135 138 147 157 159 161 158 152 152 147 151 134 149 157 153 127 112 112 119 124 106 84 88 114 130 132 153 164 189 193 150 104 86 100 95 90 29 12 11 4 1 2 4 3 0 0 0 0 0 0 0 0 0 0 0 0 0 0 0 0 0 0 0 0 0 0 0 0 0 0 0 0 0 0 0 0 0 0 0 
0 0 0 0 0 0 0 0 0 0 0 0 4 1 0 4 10 12 15 66 97 116 100 108 133 178 158 136 146 156 145 148 129 119 116 116 105 96 95 102 141 132 116 111 115 131 147 144 147 142 134 131 128 141 150 150 147 139 137 154 154 162 160 155 148 141 141 129 126 97 90 103 115 113 108 140 169 171 150 120 103 98 110 86 77 17 11 7 2 1 1 4 3 0 0 0 0 0 0 0 0 0 0 0 0 0 0 0 0 0 0 0 0 0 0 0 0 0 0 0 0 0 0 0 0 0 0 0 
0 0 0 0 0 0 0 0 0 0 0 0 4 2 0 5 9 10 11 41 73 99 101 104 129 174 166 151 155 160 140 138 128 133 124 114 109 112 118 129 140 138 136 132 143 156 146 159 160 142 118 133 134 114 117 132 120 113 123 144 137 155 169 163 163 155 128 122 120 104 96 101 101 106 126 151 158 140 128 107 100 90 83 67 59 13 8 8 3 1 1 4 3 0 0 0 0 0 0 0 0 0 0 0 0 0 0 0 0 0 0 0 0 0 0 0 0 0 0 0 0 0 0 0 0 0 0 0 
0 0 0 0 0 0 0 0 0 0 0 8 14 10 1 7 10 9 12 31 66 97 97 107 124 153 174 161 151 152 124 118 124 125 123 125 116 107 116 132 137 153 150 137 147 167 159 157 147 133 125 135 135 132 117 110 114 113 120 128 114 128 148 149 168 167 130 107 108 102 93 99 109 123 139 156 154 142 129 113 85 55 90 81 62 12 4 3 7 1 0 3 3 0 0 0 0 0 0 0 0 0 0 0 0 0 0 0 0 0 0 0 0 0 0 0 0 0 0 0 0 0 0 0 0 0 0 0 
0 0 0 0 0 0 0 0 0 0 0 5 10 16 11 13 9 10 16 21 61 77 79 95 133 129 169 165 172 123 112 107 128 110 111 119 124 129 120 111 122 147 149 130 133 161 167 158 147 142 148 141 144 158 154 116 116 123 118 112 99 117 127 155 178 168 132 118 119 109 108 111 109 116 146 166 163 148 134 100 50 60 98 86 47 16 1 1 7 1 0 3 2 0 0 0 0 0 0 0 0 0 0 0 0 0 0 0 0 0 0 0 0 0 0 0 0 0 0 0 0 0 0 0 0 0 0 0 
0 0 0 0 0 0 0 0 0 0 0 2 9 14 12 7 7 11 18 16 35 72 89 110 114 128 174 164 173 134 132 113 117 113 92 96 100 114 112 110 125 165 161 147 133 139 158 143 140 152 155 149 152 158 157 131 126 135 123 105 97 114 128 168 188 179 159 133 118 105 96 92 97 114 163 178 170 145 131 87 56 60 68 62 21 15 7 4 3 7 7 8 4 0 0 0 0 0 0 0 0 0 0 0 0 0 0 0 0 0 0 0 0 0 0 0 0 0 0 0 0 0 0 0 0 0 0 0 
0 0 0 0 0 0 0 0 0 0 0 3 10 11 9 7 8 10 16 15 16 52 95 102 123 134 156 148 162 163 159 129 100 117 86 70 77 91 102 119 157 189 181 168 148 141 169 156 131 125 146 157 150 176 165 131 145 156 146 132 152 169 164 189 184 170 152 150 135 102 101 123 144 150 158 163 130 92 104 70 46 62 82 37 13 10 11 7 7 12 9 9 15 8 3 0 0 0 0 0 0 0 0 0 0 0 0 0 0 0 0 0 0 0 0 0 0 0 0 0 0 0 0 0 0 0 0 0 
0 0 0 0 0 0 0 0 0 0 0 0 10 10 9 7 7 6 11 15 18 33 70 97 105 106 120 135 144 154 160 144 120 127 122 88 86 90 98 143 145 153 176 179 168 153 164 167 157 153 175 165 142 179 188 164 149 160 172 166 181 166 197 215 177 166 154 154 129 120 115 119 130 130 108 122 102 86 102 55 77 92 55 16 14 1 1 4 4 4 4 6 7 7 0 0 0 0 0 0 0 0 0 0 0 0 0 0 0 0 0 0 0 0 0 0 0 0 0 0 0 0 0 0 0 0 0 0 
0 0 0 0 0 0 0 0 0 0 0 0 4 6 4 5 4 1 3 11 19 23 40 75 77 57 76 115 122 131 127 139 116 126 137 114 113 107 141 149 144 165 164 156 168 174 160 180 182 172 181 185 171 189 188 169 160 180 200 194 176 178 206 199 194 177 172 166 173 106 125 103 79 71 77 104 93 76 95 63 57 36 23 25 17 1 0 0 1 4 3 3 4 1 0 0 0 0 0 0 0 0 0 0 0 0 0 0 0 0 0 0 0 0 0 0 0 0 0 0 0 0 0 0 0 0 0 0 
0 0 0 0 0 0 0 0 0 0 0 0 0 2 1 3 3 0 0 7 15 18 31 36 58 62 47 69 90 79 85 115 115 124 133 134 102 99 122 168 166 191 184 174 179 202 164 177 153 160 165 191 169 186 170 125 121 143 148 153 169 206 207 177 191 159 127 148 160 144 135 116 97 94 109 112 95 90 84 47 39 36 29 23 19 0 0 0 0 0 0 4 6 0 0 0 0 0 0 0 0 0 0 0 0 0 0 0 0 0 0 0 0 0 0 0 0 0 0 0 0 0 0 0 0 0 0 0 
0 0 0 0 0 0 0 0 0 0 0 0 0 2 3 3 5 6 4 3 11 15 22 23 34 50 43 47 75 63 46 76 55 62 61 99 96 63 67 75 89 121 125 156 139 118 122 103 109 83 105 99 93 98 83 62 64 73 99 90 83 107 98 142 137 122 101 53 51 60 58 65 71 72 72 96 86 83 64 31 30 26 19 7 1 0 6 3 0 0 1 9 7 0 0 0 0 0 0 0 0 0 0 0 0 0 0 0 0 0 0 0 0 0 0 0 0 0 0 0 0 0 0 0 0 0 0 0 
0 0 0 0 0 0 0 0 0 0 0 0 0 0 3 3 2 2 5 2 6 11 12 17 21 24 22 32 68 64 42 86 46 33 39 54 94 67 53 52 61 88 92 83 82 90 83 60 67 68 51 59 59 62 63 66 75 68 67 65 79 87 83 87 86 89 87 50 77 96 63 73 87 72 69 96 88 75 59 29 30 24 15 6 1 0 0 1 2 2 2 4 0 0 0 0 0 0 0 0 0 0 0 0 0 0 0 0 0 0 0 0 0 0 0 0 0 0 0 0 0 0 0 0 0 0 0 0 
0 0 0 0 0 0 0 0 0 0 0 0 0 0 0 0 0 0 0 0 2 8 10 12 24 27 34 35 63 76 49 90 64 41 45 55 104 115 124 158 151 126 110 109 101 100 122 124 120 118 102 101 96 93 92 98 93 79 90 95 91 87 78 75 106 132 92 65 75 97 80 49 56 71 81 110 102 92 71 38 27 24 10 8 2 0 0 0 1 1 1 0 0 0 0 0 0 0 0 0 0 0 0 0 0 0 0 0 0 0 0 0 0 0 0 0 0 0 0 0 0 0 0 0 0 0 0 0 
0 0 0 0 0 0 0 0 0 0 0 0 0 0 0 0 0 0 0 0 0 3 5 8 18 19 25 29 48 74 50 78 77 60 66 73 106 104 128 162 155 162 175 132 128 164 157 190 157 121 116 129 128 122 110 106 99 90 97 129 150 153 130 115 135 117 110 133 88 117 91 77 67 65 72 106 106 109 86 57 23 9 4 8 2 0 0 0 0 0 0 0 0 0 0 0 0 0 0 0 0 0 0 0 0 0 0 0 0 0 0 0 0 0 0 0 0 0 0 0 0 0 0 0 0 0 0 0 
0 0 0 0 0 0 0 0 0 0 0 0 0 0 0 0 0 0 0 0 0 4 1 4 9 21 20 20 35 62 50 53 56 68 82 59 99 98 128 153 180 182 176 115 114 165 167 155 163 150 106 112 136 139 141 156 165 150 136 152 163 165 143 162 136 124 116 100 129 126 80 78 33 15 21 66 64 61 37 20 6 1 1 0 0 0 0 0 0 0 0 0 0 0 0 0 0 0 0 0 0 0 0 0 0 0 0 0 0 0 0 0 0 0 0 0 0 0 0 0 0 0 0 0 0 0 0 0 
0 0 0 0 0 0 0 0 0 0 0 0 0 0 0 0 0 0 0 0 0 0 2 2 6 13 39 44 59 84 79 87 92 92 114 87 79 89 118 89 139 167 120 94 107 120 137 147 159 145 128 116 122 116 125 122 120 111 105 99 115 116 98 101 106 100 110 125 146 144 80 46 34 28 29 76 54 36 19 20 7 5 10 1 0 0 0 0 0 0 0 0 0 0 0 0 0 0 0 0 0 0 0 0 0 0 0 0 0 0 0 0 0 0 0 0 0 0 0 0 0 0 0 0 0 0 0 0 
0 0 0 0 0 0 0 0 0 0 0 0 0 0 0 0 0 0 0 0 0 0 2 7 5 17 21 22 33 50 55 63 81 51 65 69 89 85 71 84 92 108 115 97 103 156 164 128 102 118 117 89 104 111 99 68 81 77 87 79 91 102 110 84 107 102 124 120 114 122 101 77 57 62 62 100 74 46 32 22 13 8 8 0 0 0 0 0 0 0 0 0 0 0 0 0 0 0 0 0 0 0 0 0 0 0 0 0 0 0 0 0 0 0 0 0 0 0 0 0 0 0 0 0 0 0 0 0 
0 0 0 0 0 0 0 0 0 0 0 0 0 0 0 0 0 0 0 0 0 0 0 7 9 13 19 22 22 39 53 57 92 46 59 47 72 75 64 70 84 111 98 102 112 155 148 98 96 128 112 79 84 95 112 106 106 111 115 84 81 109 96 74 75 111 131 131 142 89 90 76 56 63 84 101 75 54 30 19 15 11 7 0 0 0 0 0 0 0 0 0 0 0 0 0 0 0 0 0 0 0 0 0 0 0 0 0 0 0 0 0 0 0 0 0 0 0 0 0 0 0 0 0 0 0 0 0 
0 0 0 0 0 0 0 0 0 0 0 0 0 0 0 0 0 0 0 0 0 0 0 3 11 8 18 22 21 29 54 57 97 52 57 48 56 48 54 80 96 95 93 92 109 142 138 115 114 145 122 81 89 101 107 93 101 92 98 90 76 120 111 91 96 112 113 121 116 85 64 77 52 46 90 106 75 51 32 18 14 10 5 0 0 0 0 0 0 0 0 0 0 0 0 0 0 0 0 0 0 0 0 0 0 0 0 0 0 0 0 0 0 0 0 0 0 0 0 0 0 0 0 0 0 0 0 0 
0 0 0 0 0 0 0 0 0 0 0 0 0 0 0 0 0 0 0 0 0 0 0 1 8 9 14 20 22 23 44 53 91 56 65 56 50 48 65 80 78 82 85 85 104 115 104 104 116 134 116 87 94 98 76 72 84 77 84 89 84 126 124 116 89 113 99 108 108 104 75 62 66 40 83 106 83 55 32 15 12 10 4 0 0 0 0 0 0 0 0 0 0 0 0 0 0 0 0 0 0 0 0 0 0 0 0 0 0 0 0 0 0 0 0 0 0 0 0 0 0 0 0 0 0 0 0 0 
0 0 0 0 0 0 0 0 0 0 0 0 0 0 0 0 0 0 0 0 0 0 0 0 5 8 11 16 21 23 40 48 91 63 74 63 53 73 67 53 56 69 81 80 102 92 93 102 124 100 95 99 81 68 58 64 63 66 73 89 106 109 144 136 94 112 98 96 93 91 90 82 77 48 71 97 89 58 22 12 12 9 3 0 0 0 0 0 0 0 0 0 0 0 0 0 0 0 0 0 0 0 0 0 0 0 0 0 0 0 0 0 0 0 0 0 0 0 0 0 0 0 0 0 0 0 0 0 
0 0 0 0 0 0 0 0 0 0 0 0 0 0 0 0 0 0 0 0 0 0 0 0 3 6 8 14 18 24 38 38 90 57 91 78 67 79 53 55 52 62 77 90 112 82 93 98 108 78 85 100 84 73 72 66 65 78 91 104 106 93 130 140 107 121 108 83 64 58 54 92 99 82 74 95 71 39 18 12 11 9 2 0 0 0 0 0 0 0 0 0 0 0 0 0 0 0 0 0 0 0 0 0 0 0 0 0 0 0 0 0 0 0 0 0 0 0 0 0 0 0 0 0 0 0 0 0 
0 0 0 0 0 0 0 0 0 0 0 0 0 0 0 0 0 0 0 0 0 0 0 0 0 5 5 13 16 20 34 44 82 66 96 68 71 82 50 54 43 65 80 100 111 83 100 90 88 68 89 96 94 95 92 87 92 105 112 95 85 97 102 111 103 105 113 78 59 47 47 82 105 102 92 86 51 25 18 13 12 9 2 0 0 0 0 0 0 0 0 0 0 0 0 0 0 0 0 0 0 0 0 0 0 0 0 0 0 0 0 0 0 0 0 0 0 0 0 0 0 0 0 0 0 0 0 0 
0 0 0 0 0 0 0 0 0 0 0 0 0 0 0 0 0 0 0 0 0 0 0 0 0 3 6 6 15 16 21 32 38 56 66 47 66 84 50 47 42 69 88 98 88 76 108 94 84 77 104 103 105 122 124 121 130 128 108 86 81 83 93 106 98 89 108 83 59 44 54 86 95 77 94 49 23 19 18 16 14 7 1 0 0 0 0 0 0 0 0 0 0 0 0 0 0 0 0 0 0 0 0 0 0 0 0 0 0 0 0 0 0 0 0 0 0 0 0 0 0 0 0 0 0 0 0 0 
0 0 0 0 0 0 0 0 0 0 0 0 0 0 0 0 0 0 0 0 0 0 0 0 0 0 8 3 11 14 18 20 19 12 18 49 64 99 73 50 42 62 88 87 68 63 103 110 88 78 75 94 110 124 123 125 139 119 81 58 57 70 103 123 94 70 81 90 63 41 62 104 107 66 55 23 16 19 16 15 14 5 1 0 0 0 0 0 0 0 0 0 0 0 0 0 0 0 0 0 0 0 0 0 0 0 0 0 0 0 0 0 0 0 0 0 0 0 0 0 0 0 0 0 0 0 0 0 
0 0 0 0 0 0 0 0 0 0 0 0 0 0 0 0 0 0 0 0 0 0 0 0 0 0 1 6 7 12 15 17 18 17 12 31 66 109 85 41 42 60 95 81 64 63 89 113 100 80 58 68 84 94 114 131 133 124 76 56 63 86 125 128 91 67 81 106 76 44 57 111 114 62 33 17 15 17 17 14 12 6 1 0 0 0 0 0 0 0 0 0 0 0 0 0 0 0 0 0 0 0 0 0 0 0 0 0 0 0 0 0 0 0 0 0 0 0 0 0 0 0 0 0 0 0 0 0 
0 0 0 0 0 0 0 0 0 0 0 0 0 0 0 0 0 0 0 0 0 0 0 0 0 0 0 4 8 9 13 18 18 20 11 8 23 70 85 49 47 77 115 80 60 67 96 113 90 78 65 66 75 87 114 141 143 121 87 68 84 110 109 127 106 63 68 121 112 67 60 103 77 29 21 18 15 16 16 14 11 6 2 0 0 0 0 0 0 0 0 0 0 0 0 0 0 0 0 0 0 0 0 0 0 0 0 0 0 0 0 0 0 0 0 0 0 0 0 0 0 0 0 0 0 0 0 0 
0 0 0 0 0 0 0 0 0 0 0 0 0 0 0 0 0 0 0 0 0 0 0 0 0 0 0 0 7 8 11 17 22 19 11 10 16 33 78 77 71 104 118 74 60 76 107 122 86 74 67 75 81 100 115 129 126 115 100 92 91 95 99 133 118 76 71 113 124 87 85 92 36 24 23 19 17 15 14 14 11 6 2 0 0 0 0 0 0 0 0 0 0 0 0 0 0 0 0 0 0 0 0 0 0 0 0 0 0 0 0 0 0 0 0 0 0 0 0 0 0 0 0 0 0 0 0 0 
0 0 0 0 0 0 0 0 0 0 0 0 0 0 0 0 0 0 0 0 0 0 0 0 0 0 0 0 5 6 9 15 19 21 15 13 21 25 31 76 86 93 96 80 73 88 119 129 95 71 56 64 83 107 116 124 129 124 114 103 89 92 119 145 134 92 85 101 109 84 80 40 24 23 23 22 19 14 14 13 11 6 2 0 0 0 0 0 0 0 0 0 0 0 0 0 0 0 0 0 0 0 0 0 0 0 0 0 0 0 0 0 0 0 0 0 0 0 0 0 0 0 0 0 0 0 0 0 
0 0 0 0 0 0 0 0 0 0 0 0 0 0 0 0 0 0 0 0 0 0 0 0 0 0 0 0 1 5 9 12 17 21 16 11 17 26 23 27 39 45 63 79 77 86 113 125 109 81 72 81 111 129 124 127 133 134 125 114 92 72 109 151 140 95 93 96 65 37 30 27 24 20 22 20 17 14 15 13 11 7 1 0 0 0 0 0 0 0 0 0 0 0 0 0 0 0 0 0 0 0 0 0 0 0 0 0 0 0 0 0 0 0 0 0 0 0 0 0 0 0 0 0 0 0 0 0 
0 0 0 0 0 0 0 0 0 0 0 0 0 0 0 0 0 0 0 0 0 0 0 0 0 0 0 0 0 7 6 10 15 20 16 11 13 23 25 27 32 34 38 53 72 83 98 119 114 95 95 106 130 136 130 129 125 126 134 123 102 93 110 138 128 101 97 72 47 32 27 26 23 20 21 20 16 14 14 13 11 6 1 0 0 0 0 0 0 0 0 0 0 0 0 0 0 0 0 0 0 0 0 0 0 0 0 0 0 0 0 0 0 0 0 0 0 0 0 0 0 0 0 0 0 0 0 0 
0 0 0 0 0 0 0 0 0 0 0 0 0 0 0 0 0 0 0 0 0 0 0 0 0 0 0 0 0 4 7 7 14 18 16 11 10 19 26 26 32 34 32 32 45 65 71 87 112 108 102 106 112 119 120 109 103 102 112 120 103 96 112 108 89 81 64 58 48 31 25 25 22 22 21 18 17 16 14 13 10 5 1 0 0 0 0 0 0 0 0 0 0 0 0 0 0 0 0 0 0 0 0 0 0 0 0 0 0 0 0 0 0 0 0 0 0 0 0 0 0 0 0 0 0 0 0 0 
