P2
128 99
237
0 0 0 0 0 0 0 0 0 0 0 0 0 0 0 0 0 0 0 0 0 0 0 0 0 0 0 0 0 0 0 0 0 0 0 0 0 0 0 0 0 0 0 0 0 0 0 0 0 0 0 0 0 0 0 0 0 0 0 0 0 0 0 0 0 0 0 0 0 0 0 0 0 0 0 0 0 0 0 0 0 0 0 0 0 0 0 0 0 0 0 0 0 0 0 0 0 0 0 0 0 0 0 0 0 0 0 0 0 0 0 0 0 0 0 0 0 0 0 0 0 0 0 0 0 0 0 0 
0 0 0 0 0 0 0 0 0 0 0 0 0 0 0 0 0 0 0 0 0 0 0 0 0 0 0 0 0 0 0 0 0 0 0 0 0 0 0 0 0 0 0 0 0 0 0 0 0 0 0 0 0 0 0 0 0 0 0 0 0 0 0 0 0 0 0 0 0 0 0 0 0 0 0 0 0 0 0 0 0 0 0 0 0 0 0 0 0 0 0 0 0 0 0 0 0 0 0 0 0 0 0 0 0 0 0 0 0 0 0 0 0 0 0 0 0 0 0 0 0 0 0 0 0 0 0 0 
0 0 0 0 0 0 0 0 0 0 0 0 0 0 0 0 0 0 0 0 0 0 0 0 0 0 0 0 0 0 0 0 0 0 0 0 0 0 0 0 0 0 0 0 0 0 0 0 0 0 0 0 0 0 0 0 0 0 0 0 0 0 0 0 0 0 0 0 0 0 0 0 0 0 0 0 0 0 0 0 0 0 0 0 0 0 0 0 0 0 0 0 0 0 0 0 0 0 0 0 0 0 0 0 0 0 0 0 0 0 0 0 0 0 0 0 0 0 0 0 0 0 0 0 0 0 0 0 
0 0 0 0 0 0 0 0 0 0 0 0 0 0 0 0 0 0 0 0 0 0 0 0 0 0 0 0 0 0 0 0 0 0 0 0 0 0 0 0 0 0 0 0 0 7 16 17 17 19 22 25 25 26 24 19 14 16 15 12 3 0 0 0 0 0 0 0 0 0 0 0 0 0 0 0 0 0 0 0 0 0 0 0 0 0 0 0 0 0 0 0 0 0 0 0 0 0 0 0 0 0 0 0 0 0 0 0 0 0 0 0 0 0 0 0 0 0 0 0 0 0 0 0 0 0 0 0 
0 0 0 0 0 0 0 0 0 0 0 0 0 0 0 0 0 0 0 0 0 0 0 0 0 0 0 0 0 0 0 0 0 0 0 0 0 0 0 0 0 0 20 22 25 33 54 78 101 124 141 152 158 159 155 125 127 105 80 53 33 22 17 10 0 0 0 0 0 0 0 0 0 0 0 0 0 0 0 0 0 0 0 0 0 0 0 0 0 0 0 0 0 0 0 0 0 0 0 0 0 0 0 0 0 0 0 0 0 0 0 0 0 0 0 0 0 0 0 0 0 0 0 0 0 0 0 0 
0 0 0 0 0 0 0 0 0 0 0 0 0 0 0 0 0 0 0 0 0 0 0 0 0 0 0 0 0 0 0 0 0 0 0 0 0 0 0 9 23 25 36 68 114 154 177 187 193 196 197 195 194 193 194 195 194 191 186 172 154 120 80 46 22 16 11 0 0 0 0 0 0 0 0 0 0 0 0 0 0 0 0 0 0 0 0 0 0 0 0 0 0 0 0 0 0 0 0 0 0 0 0 0 0 0 0 0 0 0 0 0 0 0 0 0 0 0 0 0 0 0 0 0 0 0 0 0 
0 0 0 0 0 0 0 0 0 0 0 0 0 0 0 0 0 0 0 0 0 0 0 0 0 0 0 0 0 0 0 0 0 0 0 0 0 22 25 26 52 105 157 184 195 196 197 198 200 202 204 205 206 206 205 205 203 200 198 195 194 190 177 160 125 77 39 18 12 1 0 0 0 0 0 0 0 0 0 0 0 0 0 0 0 0 0 0 0 0 0 0 0 0 0 0 0 0 0 0 0 0 0 0 0 0 0 0 0 0 0 0 0 0 0 0 0 0 0 0 0 0 0 0 0 0 0 0 
0 0 0 0 0 0 0 0 0 0 0 0 0 0 0 0 0 0 0 0 0 0 0 0 0 0 0 0 0 0 0 0 0 0 0 25 26 24 63 130 174 192 196 198 200 203 200 193 189 184 188 195 188 179 177 191 205 211 209 204 200 197 196 195 191 174 143 100 48 22 13 1 0 0 0 0 0 0 0 0 0 0 0 0 0 0 0 0 0 0 0 0 0 0 0 0 0 0 0 0 0 0 0 0 0 0 0 0 0 0 0 0 0 0 0 0 0 0 0 0 0 0 0 0 0 0 0 0 
0 0 0 0 0 0 0 0 0 0 0 0 0 0 0 0 0 0 0 0 0 0 0 0 0 0 0 0 0 0 0 0 0 27 25 23 56 132 178 190 193 197 200 202 200 191 184 165 160 159 159 162 159 152 153 158 167 185 204 211 207 207 175 198 196 195 195 186 161 103 46 23 9 0 0 0 0 0 0 0 0 0 0 0 0 0 0 0 0 0 0 0 0 0 0 0 0 0 0 0 0 0 0 0 0 0 0 0 0 0 0 0 0 0 0 0 0 0 0 0 0 0 0 0 0 0 0 0 
0 0 0 0 0 0 0 0 0 0 0 0 0 0 0 0 0 0 0 0 0 0 0 0 0 0 0 0 0 0 0 14 26 21 40 117 175 189 190 193 193 202 200 184 169 164 157 147 137 131 143 146 152 146 152 154 157 158 171 189 211 211 211 208 206 201 197 196 195 187 152 81 30 19 0 0 0 0 0 0 0 0 0 0 0 0 0 0 0 0 0 0 0 0 0 0 0 0 0 0 0 0 0 0 0 0 0 0 0 0 0 0 0 0 0 0 0 0 0 0 0 0 0 0 0 0 0 0 
0 0 0 0 0 0 0 0 0 0 0 0 0 0 0 0 0 0 0 0 0 0 0 0 0 0 0 0 0 0 28 21 24 85 163 188 191 188 187 198 206 197 175 168 164 157 149 143 138 135 135 143 142 141 146 150 150 146 153 160 177 197 202 223 216 211 206 203 198 197 196 181 123 46 22 6 0 0 0 0 0 0 0 0 0 0 0 0 0 0 0 0 0 0 0 0 0 0 0 0 0 0 0 0 0 0 0 0 0 0 0 0 0 0 0 0 0 0 0 0 0 0 0 0 0 0 0 0 
0 0 0 0 0 0 0 0 0 0 0 0 0 0 0 0 0 0 0 0 0 0 0 0 0 0 0 0 0 24 14 48 136 182 189 191 198 203 209 201 182 173 181 162 158 154 151 146 145 143 136 114 95 135 145 151 150 150 152 156 159 172 189 204 213 218 216 212 206 203 201 198 191 155 62 24 9 0 0 0 0 0 0 0 0 0 0 0 0 0 0 0 0 0 0 0 0 0 0 0 0 0 0 0 0 0 0 0 0 0 0 0 0 0 0 0 0 0 0 0 0 0 0 0 0 0 0 0 
0 0 0 0 0 0 0 0 0 0 0 0 0 0 0 0 0 0 0 0 0 0 0 0 0 0 0 0 19 18 75 163 184 190 196 207 206 208 193 181 175 170 156 103 155 143 153 149 149 143 134 132 129 131 141 177 148 125 129 105 156 166 177 181 193 205 215 219 217 210 205 201 199 191 166 86 25 9 0 0 0 0 0 0 0 0 0 0 0 0 0 0 0 0 0 0 0 0 0 0 0 0 0 0 0 0 0 0 0 0 0 0 0 0 0 0 0 0 0 0 0 0 0 0 0 0 0 0 
0 0 0 0 0 0 0 0 0 0 0 0 0 0 0 0 0 0 0 0 0 0 0 0 0 0 0 19 32 103 171 184 194 202 206 210 205 186 178 172 169 165 152 154 152 153 153 153 51 139 129 123 94 127 131 140 149 154 156 155 157 178 166 173 180 186 195 205 214 210 216 207 200 195 191 172 86 27 10 0 0 0 0 0 0 0 0 0 0 0 0 0 0 0 0 0 0 0 0 0 0 0 0 0 0 0 0 0 0 0 0 0 0 0 0 0 0 0 0 0 0 0 0 0 0 0 0 0 
0 0 0 0 0 0 0 0 0 0 0 0 0 0 0 0 0 0 0 0 0 0 0 0 0 0 11 35 119 174 185 197 213 210 207 193 181 176 176 167 95 162 159 155 151 150 141 134 133 128 124 124 120 124 126 126 136 149 152 152 152 169 159 163 168 170 178 179 191 156 212 218 210 190 195 192 171 107 30 0 0 0 0 0 0 0 0 0 0 0 0 0 0 0 0 0 0 0 0 0 0 0 0 0 0 0 0 0 0 0 0 0 0 0 0 0 0 0 0 0 0 0 0 0 0 0 0 0 
0 0 0 0 0 0 0 0 0 0 0 0 0 0 0 0 0 0 0 0 0 0 0 0 0 11 52 131 170 187 199 206 210 197 183 176 173 176 168 166 161 156 150 142 141 130 126 126 122 122 122 120 119 124 126 126 125 129 138 146 149 149 149 155 160 165 167 169 172 178 193 205 211 210 171 194 192 179 120 36 0 0 0 0 0 0 0 0 0 0 0 0 0 0 0 0 0 0 0 0 0 0 0 0 0 0 0 0 0 0 0 0 0 0 0 0 0 0 0 0 0 0 0 0 0 0 0 0 
0 0 0 0 0 0 0 0 0 0 0 0 0 0 0 0 0 0 0 0 0 0 0 0 17 57 154 169 188 200 209 184 188 176 171 171 164 167 101 160 154 146 141 138 128 123 120 118 122 120 123 117 115 121 124 123 125 125 127 131 133 135 138 144 151 155 155 159 166 169 174 177 194 170 209 202 197 194 177 128 39 0 0 0 0 0 0 0 0 0 0 0 0 0 0 0 0 0 0 0 0 0 0 0 0 0 0 0 0 0 0 0 0 0 0 0 0 0 0 0 0 0 0 0 0 0 0 0 
0 0 0 0 0 0 0 0 0 0 0 0 0 0 0 0 0 0 0 0 0 0 0 19 72 150 169 188 202 210 200 177 161 168 164 163 158 153 150 149 146 143 141 136 123 122 117 120 121 120 118 94 112 122 121 125 124 126 132 127 130 131 142 137 141 95 146 149 154 158 161 164 170 185 200 212 199 198 193 178 133 27 0 0 0 0 0 0 0 0 0 0 0 0 0 0 0 0 0 0 0 0 0 0 0 0 0 0 0 0 0 0 0 0 0 0 0 0 0 0 0 0 0 0 0 0 0 0 
0 0 0 0 0 0 0 0 0 0 0 0 0 0 0 0 0 0 0 0 0 0 20 79 153 165 186 201 214 197 172 163 163 158 158 152 97 148 142 137 132 128 126 128 122 120 117 119 118 115 115 108 92 119 120 122 123 124 124 123 126 127 126 130 131 131 136 143 148 149 147 149 158 165 184 197 162 203 197 188 171 125 22 0 0 0 0 0 0 0 0 0 0 0 0 0 0 0 0 0 0 0 0 0 0 0 0 0 0 0 0 0 0 0 0 0 0 0 0 0 0 0 0 0 0 0 0 0 
0 0 0 0 0 0 0 0 0 0 0 0 0 0 0 0 0 0 0 0 0 12 85 154 168 181 193 213 199 169 162 158 157 155 150 94 138 135 131 127 126 123 122 122 119 114 114 116 114 115 78 70 84 58 127 59 82 122 122 123 121 123 122 122 125 125 129 136 100 148 146 145 148 153 157 169 198 204 204 196 191 170 110 0 0 0 0 0 0 0 0 0 0 0 0 0 0 0 0 0 0 0 0 0 0 0 0 0 0 0 0 0 0 0 0 0 0 0 0 0 0 0 0 0 0 0 0 0 
0 0 0 0 0 0 0 0 0 0 0 0 0 0 0 0 0 0 0 0 11 82 150 165 177 195 208 153 167 156 155 152 150 146 94 133 131 128 132 125 124 121 119 115 114 115 113 69 66 60 65 88 106 93 118 116 122 121 91 99 124 76 98 78 119 121 126 132 136 137 142 143 144 147 153 159 169 187 210 200 192 180 162 57 0 0 0 0 0 0 0 0 0 0 0 0 0 0 0 0 0 0 0 0 0 0 0 0 0 0 0 0 0 0 0 0 0 0 0 0 0 0 0 0 0 0 0 0 
0 0 0 0 0 0 0 0 0 0 0 0 0 0 0 0 0 0 0 0 74 144 147 172 189 201 188 165 158 153 151 147 145 139 127 129 128 125 124 126 117 115 112 112 114 112 109 109 111 102 92 104 106 109 90 104 118 117 118 120 121 97 96 97 96 117 121 127 132 134 134 134 135 139 146 149 154 165 190 205 199 192 174 147 0 0 0 0 0 0 0 0 0 0 0 0 0 0 0 0 0 0 0 0 0 0 0 0 0 0 0 0 0 0 0 0 0 0 0 0 0 0 0 0 0 0 0 0 
0 0 0 0 0 0 0 0 0 0 0 0 0 0 0 0 0 0 0 61 137 154 169 185 199 149 162 156 151 147 141 141 136 129 127 125 125 124 120 117 74 69 70 89 87 98 107 106 103 100 101 102 105 101 110 109 94 89 97 96 112 113 96 94 79 96 113 123 125 129 130 129 130 132 137 144 147 155 161 192 206 198 184 166 70 0 0 0 0 0 0 0 0 0 0 0 0 0 0 0 0 0 0 0 0 0 0 0 0 0 0 0 0 0 0 0 0 0 0 0 0 0 0 0 0 0 0 0 
0 0 0 0 0 0 0 0 0 0 0 0 0 0 0 0 0 0 34 126 149 164 180 195 158 163 147 149 146 146 139 129 129 129 131 125 121 118 114 112 90 70 89 100 101 102 102 104 105 101 98 107 107 108 107 104 107 108 107 85 95 97 111 95 93 95 96 112 122 125 124 123 124 130 133 139 149 149 151 164 196 202 191 177 151 0 0 0 0 0 0 0 0 0 0 0 0 0 0 0 0 0 0 0 0 0 0 0 0 0 0 0 0 0 0 0 0 0 0 0 0 0 0 0 0 0 0 0 
0 0 0 0 0 0 0 0 0 0 0 0 0 0 0 0 0 0 105 142 156 164 191 190 136 151 146 144 143 141 91 129 127 125 87 85 68 67 65 64 67 88 101 103 101 94 104 94 95 105 103 110 104 105 104 103 103 103 103 104 95 84 81 109 95 94 96 82 114 120 120 121 123 86 131 137 146 145 143 145 172 197 196 183 165 71 0 0 0 0 0 0 0 0 0 0 0 0 0 0 0 0 0 0 0 0 0 0 0 0 0 0 0 0 0 0 0 0 0 0 0 0 0 0 0 0 0 0 
0 0 0 0 0 0 0 0 0 0 0 0 0 0 0 0 0 2 72 148 164 181 185 174 147 142 142 142 143 139 131 127 126 104 103 114 78 66 79 80 101 102 102 102 91 102 104 103 103 105 105 106 106 106 104 104 104 105 104 104 102 105 93 92 107 96 95 109 96 100 117 121 123 124 90 133 143 142 141 141 150 184 194 187 171 78 0 0 0 0 0 0 0 0 0 0 0 0 0 0 0 0 0 0 0 0 0 0 0 0 0 0 0 0 0 0 0 0 0 0 0 0 0 0 0 0 0 0 
0 0 0 0 0 0 0 0 0 0 0 0 0 0 0 0 0 64 140 155 174 181 171 161 141 130 139 143 96 137 129 124 122 100 83 52 77 51 80 90 101 101 101 101 103 104 105 105 101 105 112 112 109 108 98 99 104 105 104 101 101 103 105 105 76 90 94 94 95 113 98 119 121 122 124 135 141 141 139 133 139 165 185 179 178 157 0 0 0 0 0 0 0 0 0 0 0 0 0 0 0 0 0 0 0 0 0 0 0 0 0 0 0 0 0 0 0 0 0 0 0 0 0 0 0 0 0 0 
0 0 0 0 0 0 0 0 0 0 0 0 0 0 0 0 0 129 147 164 177 167 164 119 135 134 135 92 136 133 126 119 116 117 98 107 80 93 101 102 101 101 100 102 101 104 106 106 107 103 107 111 111 105 97 98 98 104 103 103 99 100 102 104 108 80 91 107 82 98 100 115 122 122 126 131 93 141 136 130 133 154 175 185 181 163 73 0 0 0 0 0 0 0 0 0 0 0 0 0 0 0 0 0 0 0 0 0 0 0 0 0 0 0 0 0 0 0 0 0 0 0 0 0 0 0 0 0 
0 0 0 0 0 0 0 0 0 0 0 0 0 0 0 0 0 137 149 182 174 162 156 134 131 131 134 136 133 126 122 120 117 112 95 65 80 94 100 100 99 99 98 99 102 105 106 108 105 102 101 104 108 101 95 94 98 101 99 102 102 101 100 103 106 107 79 109 96 83 109 99 119 133 121 132 139 138 132 127 127 150 167 184 183 169 75 0 0 0 0 0 0 0 0 0 0 0 0 0 0 0 0 0 0 0 0 0 0 0 0 0 0 0 0 0 0 0 0 0 0 0 0 0 0 0 0 0 
0 0 0 0 0 0 0 0 0 0 0 0 0 0 0 0 65 140 158 175 152 156 146 130 131 127 131 131 127 123 123 120 119 98 95 81 106 103 101 101 101 101 101 102 103 103 102 105 105 100 98 100 107 101 95 96 95 96 96 97 97 103 103 103 105 108 109 97 112 98 82 79 119 120 122 131 137 131 128 126 121 143 160 179 175 170 150 0 0 0 0 0 0 0 0 0 0 0 0 0 0 0 0 0 0 0 0 0 0 0 0 0 0 0 0 0 0 0 0 0 0 0 0 0 0 0 0 0 
0 0 0 0 0 0 0 0 0 0 0 0 0 0 0 0 69 87 167 167 147 145 119 126 126 125 128 130 120 123 123 123 118 85 81 108 107 104 102 97 104 101 91 96 106 102 102 103 100 99 97 99 108 100 97 95 95 98 99 97 96 97 100 106 108 108 112 98 98 115 97 98 117 119 120 128 132 128 125 124 120 137 150 176 183 163 153 0 0 0 0 0 0 0 0 0 0 0 0 0 0 0 0 0 0 0 0 0 0 0 0 0 0 0 0 0 0 0 0 0 0 0 0 0 0 0 0 0 
0 0 0 0 0 0 0 0 0 0 0 0 0 0 0 0 136 154 169 151 137 140 135 125 122 121 122 125 118 121 123 103 79 112 111 109 106 104 104 104 80 78 70 83 100 99 99 100 102 99 98 96 106 98 97 87 92 97 97 99 101 104 101 105 102 111 112 115 102 115 114 98 97 118 121 137 126 126 87 118 118 135 157 173 170 173 157 71 0 0 0 0 0 0 0 0 0 0 0 0 0 0 0 0 0 0 0 0 0 0 0 0 0 0 0 0 0 0 0 0 0 0 0 0 0 0 0 0 
0 0 0 0 0 0 0 0 0 0 0 0 0 0 0 0 141 160 160 137 132 136 137 122 83 117 119 124 118 116 119 75 97 113 110 115 108 106 102 73 72 68 66 70 84 100 99 94 93 98 96 94 95 93 96 91 92 96 97 100 101 102 84 80 64 114 113 117 119 117 117 116 60 118 121 123 121 120 118 116 114 132 152 167 185 172 161 74 0 0 0 0 0 0 0 0 0 0 0 0 0 0 0 0 0 0 0 0 0 0 0 0 0 0 0 0 0 0 0 0 0 0 0 0 0 0 0 0 
0 0 0 0 0 0 0 0 0 0 0 0 0 0 0 66 85 162 197 138 130 135 138 120 113 114 117 120 116 113 99 99 117 114 114 115 107 108 90 71 67 70 78 70 70 95 97 97 97 98 104 104 103 97 94 92 89 92 95 76 97 84 78 74 79 79 93 103 118 120 104 120 118 89 120 123 114 112 117 82 114 133 156 168 173 182 166 141 0 0 0 0 0 0 0 0 0 0 0 0 0 0 0 0 0 0 0 0 0 0 0 0 0 0 0 0 0 0 0 0 0 0 0 0 0 0 0 0 
0 0 0 0 0 0 0 0 0 0 0 0 0 0 0 68 151 160 151 142 124 135 137 124 116 95 116 117 108 77 63 119 117 115 112 114 108 106 108 66 78 74 74 74 69 74 94 96 98 96 101 106 101 95 92 94 89 91 94 97 95 90 82 69 79 82 111 117 123 124 107 121 120 100 121 123 113 109 113 112 103 139 156 168 182 184 170 151 0 0 0 0 0 0 0 0 0 0 0 0 0 0 0 0 0 0 0 0 0 0 0 0 0 0 0 0 0 0 0 0 0 0 0 0 0 0 0 0 
0 0 0 0 0 0 0 0 0 0 0 0 0 0 0 74 156 163 153 144 126 135 137 126 116 110 116 113 106 59 107 118 118 116 114 117 115 111 113 115 114 105 70 74 71 79 94 90 96 96 100 102 101 94 92 93 91 88 92 95 85 87 80 77 78 112 118 123 125 123 126 114 125 121 124 86 114 110 108 109 117 141 132 161 184 186 174 159 0 0 0 0 0 0 0 0 0 0 0 0 0 0 0 0 0 0 0 0 0 0 0 0 0 0 0 0 0 0 0 0 0 0 0 0 0 0 0 0 
0 0 0 0 0 0 0 0 0 0 0 0 0 0 0 140 160 169 153 148 129 138 119 128 118 112 100 112 105 87 124 120 119 120 123 118 89 75 72 66 81 94 83 69 69 74 99 89 97 99 102 102 105 99 95 96 87 79 83 93 87 77 81 109 102 78 83 81 81 72 112 106 131 136 138 133 129 115 110 113 125 141 152 158 171 188 175 161 59 0 0 0 0 0 0 0 0 0 0 0 0 0 0 0 0 0 0 0 0 0 0 0 0 0 0 0 0 0 0 0 0 0 0 0 0 0 0 0 
0 0 0 0 0 0 0 0 0 0 0 0 0 0 0 144 101 169 153 149 146 143 122 130 121 115 113 106 104 115 126 120 125 127 118 74 86 83 72 78 69 62 83 82 98 103 95 96 65 96 74 101 111 102 96 91 85 84 89 76 78 80 98 91 76 92 94 92 93 75 98 78 114 130 142 140 141 84 114 121 130 140 147 156 165 186 180 164 65 0 0 0 0 0 0 0 0 0 0 0 0 0 0 0 0 0 0 0 0 0 0 0 0 0 0 0 0 0 0 0 0 0 0 0 0 0 0 0 
0 0 0 0 0 0 0 0 0 0 0 0 0 0 60 148 121 167 155 151 144 142 142 140 129 121 114 105 107 122 130 127 132 112 90 90 84 84 84 86 84 81 68 83 82 89 102 102 96 67 100 95 106 106 97 96 91 87 81 67 90 89 86 73 91 95 98 96 99 101 100 74 100 114 138 153 149 138 127 128 133 135 139 150 152 189 182 167 70 0 0 0 0 0 0 0 0 0 0 0 0 0 0 0 0 0 0 0 0 0 0 0 0 0 0 0 0 0 0 0 0 0 0 0 0 0 0 0 
0 0 0 0 0 0 0 0 0 0 0 0 0 0 62 151 127 167 152 147 142 140 138 140 136 126 120 108 112 127 135 137 114 92 93 73 72 88 89 79 91 86 81 66 86 89 73 77 87 90 102 107 111 112 109 102 97 92 73 89 80 81 86 87 92 96 100 101 101 105 107 108 79 47 132 158 141 171 137 134 130 130 132 143 139 183 184 168 74 0 0 0 0 0 0 0 0 0 0 0 0 0 0 0 0 0 0 0 0 0 0 0 0 0 0 0 0 0 0 0 0 0 0 0 0 0 0 0 
0 0 0 0 0 0 0 0 0 0 0 0 0 0 64 152 128 168 147 139 125 121 134 133 132 130 125 123 116 132 141 120 80 93 76 90 88 90 91 90 88 89 87 73 85 89 96 84 79 92 103 114 120 113 121 107 100 84 82 104 86 79 79 85 93 93 100 104 105 98 107 107 98 127 133 139 149 146 138 133 127 124 129 107 146 174 181 169 131 0 0 0 0 0 0 0 0 0 0 0 0 0 0 0 0 0 0 0 0 0 0 0 0 0 0 0 0 0 0 0 0 0 0 0 0 0 0 0 
0 0 0 0 0 0 0 0 0 0 0 0 0 0 65 154 125 169 139 135 137 135 132 84 129 131 125 123 126 142 146 126 112 101 80 93 85 75 83 73 78 83 85 88 67 83 90 99 80 75 104 115 125 117 122 89 100 83 89 98 81 76 82 89 95 100 81 102 105 84 94 109 118 121 127 116 133 144 146 134 108 122 123 125 134 164 182 169 137 0 0 0 0 0 0 0 0 0 0 0 0 0 0 0 0 0 0 0 0 0 0 0 0 0 0 0 0 0 0 0 0 0 0 0 0 0 0 0 
0 0 0 0 0 0 0 0 0 0 0 0 0 0 65 155 172 171 136 135 126 98 128 81 122 123 122 123 119 122 130 128 122 113 104 79 99 93 77 89 82 85 86 89 86 88 91 99 78 76 106 117 112 113 114 114 99 76 100 77 77 81 84 93 96 97 97 100 61 81 108 95 113 113 119 120 126 140 140 135 107 116 115 118 122 153 178 169 141 0 0 0 0 0 0 0 0 0 0 0 0 0 0 0 0 0 0 0 0 0 0 0 0 0 0 0 0 0 0 0 0 0 0 0 0 0 0 0 
0 0 0 0 0 0 0 0 0 0 0 0 0 0 106 158 175 168 132 133 132 127 120 76 115 118 116 123 127 110 123 116 112 108 101 97 85 93 89 83 86 87 90 87 90 70 89 95 89 78 104 78 105 111 105 115 82 107 93 85 78 85 89 92 93 92 94 78 80 58 102 81 94 113 118 116 83 137 138 132 115 112 112 99 116 140 173 169 145 0 0 0 0 0 0 0 0 0 0 0 0 0 0 0 0 0 0 0 0 0 0 0 0 0 0 0 0 0 0 0 0 0 0 0 0 0 0 0 
0 0 0 0 0 0 0 0 0 0 0 0 0 0 106 159 176 163 127 125 104 119 74 106 94 78 114 125 124 104 119 114 78 102 97 92 90 74 90 78 84 85 89 76 89 89 70 91 99 95 76 110 88 91 90 88 110 109 105 79 69 87 89 75 84 89 92 78 61 99 102 86 107 111 111 83 90 135 137 133 107 110 108 109 109 96 158 167 147 0 0 0 0 0 0 0 0 0 0 0 0 0 0 0 0 0 0 0 0 0 0 0 0 0 0 0 0 0 0 0 0 0 0 0 0 0 0 0 
0 0 0 0 0 0 0 0 0 0 0 0 0 0 104 160 175 157 120 118 116 111 102 99 101 106 83 124 126 120 114 80 103 97 94 84 87 86 88 84 85 80 80 85 86 87 85 87 79 96 79 33 110 102 75 72 115 108 100 68 91 91 89 83 81 78 90 77 95 59 100 69 104 110 110 87 87 131 130 90 127 110 98 109 103 125 135 157 149 0 0 0 0 0 0 0 0 0 0 0 0 0 0 0 0 0 0 0 0 0 0 0 0 0 0 0 0 0 0 0 0 0 0 0 0 0 0 0 
0 0 0 0 0 0 0 0 0 0 0 0 0 0 101 159 173 148 112 114 108 106 75 100 83 96 113 121 123 118 115 92 104 98 92 90 89 74 75 87 84 84 88 88 88 90 88 84 63 101 38 123 104 91 62 83 105 117 87 92 91 90 85 80 87 90 92 92 95 95 92 66 106 106 106 82 104 133 137 140 132 111 80 107 99 92 135 155 148 48 0 0 0 0 0 0 0 0 0 0 0 0 0 0 0 0 0 0 0 0 0 0 0 0 0 0 0 0 0 0 0 0 0 0 0 0 0 0 
0 0 0 0 0 0 0 0 0 0 0 0 0 0 96 157 172 139 117 99 108 108 44 72 95 103 114 116 120 119 116 91 105 97 93 90 84 89 76 90 86 85 59 83 73 88 92 41 64 103 78 106 82 79 64 74 81 121 66 84 88 85 80 88 90 91 93 94 95 84 76 65 102 104 107 119 136 142 136 136 130 111 80 105 102 119 132 159 143 47 0 0 0 0 0 0 0 0 0 0 0 0 0 0 0 0 0 0 0 0 0 0 0 0 0 0 0 0 0 0 0 0 0 0 0 0 0 0 
0 0 0 0 0 0 0 0 0 0 0 0 0 0 87 154 170 135 114 91 107 106 103 100 94 104 115 101 117 117 110 115 104 103 93 84 75 82 74 89 88 82 67 81 71 74 70 83 64 73 91 91 83 81 77 76 76 111 105 89 85 70 81 77 90 74 92 97 83 91 60 97 103 101 103 119 141 87 130 123 130 109 99 103 87 116 133 158 138 44 0 0 0 0 0 0 0 0 0 0 0 0 0 0 0 0 0 0 0 0 0 0 0 0 0 0 0 0 0 0 0 0 0 0 0 0 0 0 
0 0 0 0 0 0 0 0 0 0 0 0 0 0 81 150 167 135 115 90 95 97 78 99 93 74 111 115 114 103 111 116 78 101 95 95 74 95 88 77 88 74 66 76 80 57 86 61 68 106 103 86 84 89 95 79 75 73 109 93 84 79 71 90 89 92 78 95 92 62 95 98 102 80 91 81 135 130 43 72 126 108 93 93 79 77 136 155 132 40 0 0 0 0 0 0 0 0 0 0 0 0 0 0 0 0 0 0 0 0 0 0 0 0 0 0 0 0 0 0 0 0 0 0 0 0 0 0 
0 0 0 0 0 0 0 0 0 0 0 0 0 0 74 145 164 142 117 98 81 103 105 103 98 73 79 82 117 118 123 117 61 101 99 93 95 94 86 94 90 81 80 78 79 79 77 79 95 106 59 82 85 90 38 84 75 78 102 101 80 78 82 73 90 92 93 92 89 77 80 98 97 76 100 117 85 127 126 101 125 91 91 85 79 75 140 149 124 36 0 0 0 0 0 0 0 0 0 0 0 0 0 0 0 0 0 0 0 0 0 0 0 0 0 0 0 0 0 0 0 0 0 0 0 0 0 0 
0 0 0 0 0 0 0 0 0 0 0 0 0 0 65 137 159 143 119 88 83 85 93 69 78 94 101 78 118 118 108 95 101 89 76 94 94 94 95 93 88 89 82 79 87 96 88 88 94 89 90 51 83 97 98 89 79 78 89 80 112 108 103 96 73 90 95 93 90 87 95 87 93 78 93 116 87 124 131 131 125 91 102 81 58 104 142 142 111 30 0 0 0 0 0 0 0 0 0 0 0 0 0 0 0 0 0 0 0 0 0 0 0 0 0 0 0 0 0 0 0 0 0 0 0 0 0 0 
0 0 0 0 0 0 0 0 0 0 0 0 0 0 53 129 157 142 118 88 80 82 92 104 98 46 104 86 119 117 116 114 100 87 68 88 92 94 90 93 99 73 69 87 91 87 98 91 101 94 70 68 81 95 95 60 86 59 61 81 121 121 114 103 96 46 93 95 93 77 73 72 88 91 101 118 122 124 113 133 104 92 98 80 91 114 143 136 102 0 0 0 0 0 0 0 0 0 0 0 0 0 0 0 0 0 0 0 0 0 0 0 0 0 0 0 0 0 0 0 0 0 0 0 0 0 0 0 
0 0 0 0 0 0 0 0 0 0 0 0 0 0 43 118 151 141 114 96 77 77 75 93 77 50 99 170 120 118 89 118 104 89 98 95 72 94 92 90 99 97 69 81 97 108 101 97 104 80 84 80 81 96 92 86 91 74 64 77 122 97 107 111 112 102 99 79 79 78 88 89 82 92 105 124 128 126 127 111 105 93 73 53 70 121 144 131 94 0 0 0 0 0 0 0 0 0 0 0 0 0 0 0 0 0 0 0 0 0 0 0 0 0 0 0 0 0 0 0 0 0 0 0 0 0 0 0 
0 0 0 0 0 0 0 0 0 0 0 0 0 0 32 103 146 147 114 99 97 88 103 92 74 70 106 117 119 122 126 112 117 104 100 98 94 70 74 72 75 98 102 68 97 95 95 100 104 83 79 82 78 101 93 86 87 75 64 116 78 117 108 109 115 122 136 125 128 115 113 114 118 110 135 137 127 121 127 138 139 98 88 78 101 131 124 122 87 0 0 0 0 0 0 0 0 0 0 0 0 0 0 0 0 0 0 0 0 0 0 0 0 0 0 0 0 0 0 0 0 0 0 0 0 0 0 0 
0 0 0 0 0 0 0 0 0 0 0 0 0 1 21 93 139 150 90 111 107 77 98 74 62 77 109 114 120 120 126 112 126 124 121 112 105 114 117 114 110 102 87 90 101 103 97 107 107 82 83 88 87 95 89 80 80 75 81 112 133 113 105 107 112 124 143 154 137 138 153 150 141 129 134 132 137 116 129 139 140 131 99 113 107 139 137 117 79 0 0 0 0 0 0 0 0 0 0 0 0 0 0 0 0 0 0 0 0 0 0 0 0 0 0 0 0 0 0 0 0 0 0 0 0 0 0 0 
0 0 0 0 0 0 0 0 0 0 0 0 0 2 19 82 133 155 137 113 237 86 95 87 92 54 44 117 122 120 121 110 117 123 126 129 118 118 115 112 113 106 101 77 35 97 97 106 102 83 82 95 75 105 89 74 82 88 101 130 132 115 107 106 133 153 149 144 142 146 149 143 93 94 133 122 143 146 139 138 139 97 71 132 145 144 122 115 45 0 0 0 0 0 0 0 0 0 0 0 0 0 0 0 0 0 0 0 0 0 0 0 0 0 0 0 0 0 0 0 0 0 0 0 0 0 0 0 
0 0 0 0 0 0 0 0 0 0 0 0 0 5 14 69 124 152 153 116 94 97 89 86 108 90 89 105 120 115 119 125 113 128 124 127 130 116 123 119 113 106 97 74 54 48 44 101 110 92 90 66 81 107 93 82 89 97 111 120 98 117 111 114 119 133 145 147 124 147 141 127 132 133 114 146 138 155 162 157 152 151 148 155 165 141 112 109 38 0 0 0 0 0 0 0 0 0 0 0 0 0 0 0 0 0 0 0 0 0 0 0 0 0 0 0 0 0 0 0 0 0 0 0 0 0 0 0 
0 0 0 0 0 0 0 0 0 0 0 0 0 6 13 55 114 147 160 140 114 99 119 92 127 124 125 134 130 119 136 148 141 156 154 131 131 131 119 107 101 94 83 93 47 58 78 71 111 94 69 45 88 130 91 89 89 63 108 109 116 111 113 121 121 131 152 145 158 152 141 152 118 105 121 141 139 148 164 177 169 176 170 153 179 134 121 105 27 0 0 0 0 0 0 0 0 0 0 0 0 0 0 0 0 0 0 0 0 0 0 0 0 0 0 0 0 0 0 0 0 0 0 0 0 0 0 0 
0 0 0 0 0 0 0 0 0 0 0 0 0 6 11 34 110 144 157 154 135 141 105 71 141 104 105 120 129 128 134 168 165 162 149 105 120 117 131 113 108 103 99 83 92 74 105 28 34 86 69 40 67 121 98 87 83 61 103 33 110 111 109 118 119 124 124 144 152 151 146 143 107 91 122 128 140 146 160 170 172 181 185 182 162 124 122 87 9 0 0 0 0 0 0 0 0 0 0 0 0 0 0 0 0 0 0 0 0 0 0 0 0 0 0 0 0 0 0 0 0 0 0 0 0 0 0 0 
0 0 0 0 0 0 0 0 0 0 0 0 0 1 7 13 62 130 147 152 154 171 178 160 159 156 144 120 138 140 153 164 161 204 161 153 146 121 139 118 113 124 104 100 98 66 69 111 69 63 65 72 100 78 115 94 65 87 90 106 105 106 101 116 106 118 122 124 134 133 112 118 128 125 128 113 144 147 153 161 168 171 171 108 147 122 119 93 9 4 0 0 0 0 0 0 0 0 0 0 0 0 0 0 0 0 0 0 0 0 0 0 0 0 0 0 0 0 0 0 0 0 0 0 0 0 0 0 
0 0 0 0 0 0 0 0 0 0 0 0 0 0 6 10 37 117 149 152 158 176 174 172 168 179 160 153 138 130 143 156 163 161 163 152 149 149 137 113 106 110 111 105 87 66 29 104 102 83 55 88 106 120 117 83 64 61 87 96 105 100 101 113 117 117 124 130 131 111 111 115 104 117 125 146 143 143 143 125 157 171 77 141 122 123 121 65 9 5 0 0 0 0 0 0 0 0 0 0 0 0 0 0 0 0 0 0 0 0 0 0 0 0 0 0 0 0 0 0 0 0 0 0 0 0 0 0 
0 0 0 0 0 0 0 0 0 0 0 0 0 0 1 7 20 93 157 149 151 160 162 150 166 128 160 152 140 137 132 143 148 161 162 157 148 144 126 118 108 104 109 112 100 99 113 99 70 98 97 87 93 108 119 36 33 83 94 97 97 109 110 109 96 103 119 126 130 131 128 106 121 141 148 150 144 151 120 143 147 159 0 1 62 127 116 30 6 4 4 0 0 0 0 0 0 0 0 0 0 0 0 0 0 0 0 0 0 0 0 0 0 0 0 0 0 0 0 0 0 0 0 0 0 0 0 0 
0 0 0 0 0 0 0 0 0 0 0 0 0 0 0 0 0 44 142 148 144 141 149 134 142 150 151 118 144 144 134 136 142 127 143 149 143 135 128 114 107 105 104 101 97 94 104 100 97 108 108 101 94 102 82 72 34 59 92 96 100 107 120 126 97 93 97 102 109 114 121 117 120 147 155 159 156 153 144 133 135 69 0 57 0 0 28 14 7 8 7 0 0 0 0 0 0 0 0 0 0 0 0 0 0 0 0 0 0 0 0 0 0 0 0 0 0 0 0 0 0 0 0 0 0 0 0 0 
0 0 0 0 0 0 0 0 0 0 0 0 0 0 0 0 0 0 115 137 137 134 144 146 146 137 123 133 138 151 152 111 98 101 131 146 141 129 125 93 98 87 107 100 82 105 119 111 118 115 117 111 93 100 124 34 76 103 106 94 89 119 105 118 109 97 66 87 92 104 102 119 140 143 151 158 161 154 146 148 143 1 1 54 0 0 0 0 2 5 9 0 0 0 0 0 0 0 0 0 0 0 0 0 0 0 0 0 0 0 0 0 0 0 0 0 0 0 0 0 0 0 0 0 0 0 0 0 
0 0 0 0 0 0 0 0 0 0 0 0 0 0 0 0 0 0 53 123 124 126 129 146 140 138 134 129 136 148 149 133 105 103 117 123 146 140 113 67 61 98 99 92 96 109 113 125 71 65 106 102 76 98 126 107 117 67 114 108 109 127 128 127 112 102 87 85 93 99 109 136 133 126 141 152 161 163 176 165 77 0 7 0 0 0 0 0 0 3 4 0 0 0 0 0 0 0 0 0 0 0 0 0 0 0 0 0 0 0 0 0 0 0 0 0 0 0 0 0 0 0 0 0 0 0 0 0 
0 0 0 0 0 0 0 0 0 0 0 0 0 0 0 0 0 0 34 119 132 124 132 1 152 107 139 136 144 148 149 135 117 114 115 121 118 101 108 82 88 103 103 100 118 125 121 128 108 83 90 151 149 153 154 142 138 94 133 135 142 143 137 80 114 102 89 83 100 109 117 110 127 124 136 147 162 172 182 171 0 0 7 0 0 0 0 0 0 0 2 0 0 0 0 0 0 0 0 0 0 0 0 0 0 0 0 0 0 0 0 0 0 0 0 0 0 0 0 0 0 0 0 0 0 0 0 0 
0 0 0 0 0 0 0 0 0 0 0 0 0 0 0 0 0 0 17 103 126 110 59 0 0 156 153 145 150 151 151 136 131 127 112 118 110 96 88 105 107 114 113 116 124 141 141 143 149 148 149 154 164 172 176 164 146 155 147 141 140 163 166 91 120 119 111 110 118 127 116 113 125 107 125 149 161 177 174 163 128 1 1 0 0 0 0 0 0 0 0 0 0 0 0 0 0 0 0 0 0 0 0 0 0 0 0 0 0 0 0 0 0 0 0 0 0 0 0 0 0 0 0 0 0 0 0 0 
0 0 0 0 0 0 0 0 0 0 0 0 0 0 0 0 0 0 0 69 120 121 109 114 151 164 163 154 149 144 152 148 125 130 122 120 106 102 102 112 137 131 126 125 113 149 153 150 148 144 128 146 147 149 154 97 35 145 123 141 159 162 171 167 152 145 132 139 144 119 105 106 115 107 116 142 155 178 163 147 128 54 0 0 0 0 0 0 0 0 0 0 0 0 0 0 0 0 0 0 0 0 0 0 0 0 0 0 0 0 0 0 0 0 0 0 0 0 0 0 0 0 0 0 0 0 0 0 
0 0 0 0 0 0 0 0 0 0 0 0 0 0 0 0 0 0 0 34 95 114 117 119 145 157 184 163 150 145 147 149 138 129 119 120 116 120 127 130 139 155 157 149 130 154 154 161 152 148 143 146 144 152 148 150 149 150 111 151 148 158 172 167 170 164 151 158 148 114 99 97 96 118 118 142 159 173 150 130 112 104 106 98 43 0 0 0 0 0 0 0 0 0 0 0 0 0 0 0 0 0 0 0 0 0 0 0 0 0 0 0 0 0 0 0 0 0 0 0 0 0 0 0 0 0 0 0 
0 0 0 0 0 0 0 0 0 0 0 0 8 9 2 0 0 0 6 28 80 115 123 109 121 140 160 163 154 140 140 143 7 122 111 118 113 117 122 131 139 157 169 173 163 160 36 159 121 119 152 161 152 166 157 147 150 152 134 151 146 147 160 135 180 170 156 159 147 107 90 98 114 119 144 156 162 166 148 128 100 86 96 99 59 2 0 0 0 0 0 0 0 0 0 0 0 0 0 0 0 0 0 0 0 0 0 0 0 0 0 0 0 0 0 0 0 0 0 0 0 0 0 0 0 0 0 0 
0 0 0 0 0 0 0 0 0 0 0 0 7 13 8 5 0 0 14 19 62 101 119 116 114 119 148 153 165 142 92 133 135 116 102 105 106 111 115 119 129 146 164 158 169 165 172 168 160 160 165 172 169 166 158 136 139 146 132 129 129 146 148 165 171 171 168 160 150 111 92 97 108 82 161 176 189 174 136 101 88 85 99 92 40 16 0 0 0 0 0 0 0 0 0 0 0 0 0 0 0 0 0 0 0 0 0 0 0 0 0 0 0 0 0 0 0 0 0 0 0 0 0 0 0 0 0 0 
0 0 0 0 0 0 0 0 0 0 0 0 1 11 9 8 9 12 17 12 30 86 117 117 104 113 136 162 167 150 105 132 85 74 89 103 106 80 103 114 113 142 149 163 167 161 157 127 157 157 163 174 165 164 143 118 120 128 129 119 133 151 110 164 177 211 170 161 131 120 98 99 102 134 165 167 175 160 144 97 78 79 57 63 20 15 7 1 0 2 5 4 4 0 0 0 0 0 0 0 0 0 0 0 0 0 0 0 0 0 0 0 0 0 0 0 0 0 0 0 0 0 0 0 0 0 0 0 
0 0 0 0 0 0 0 0 0 0 0 0 0 10 9 9 9 9 13 16 14 50 107 112 80 108 126 151 167 168 150 141 128 97 70 38 66 66 100 108 125 138 140 159 144 154 151 127 149 143 156 159 147 163 155 132 126 130 122 124 139 164 150 170 175 174 170 155 155 132 123 89 130 149 147 144 127 107 106 77 66 87 91 32 9 8 9 6 6 6 5 5 2 0 0 0 0 0 0 0 0 0 0 0 0 0 0 0 0 0 0 0 0 0 0 0 0 0 0 0 0 0 0 0 0 0 0 0 
0 0 0 0 0 0 0 0 0 0 0 0 0 5 7 6 5 6 9 10 17 22 71 100 73 91 114 140 139 167 47 149 135 134 121 105 104 88 98 115 139 158 179 173 171 145 160 162 170 171 162 109 159 181 184 167 160 158 159 155 137 176 183 184 175 173 49 179 173 138 129 115 145 141 111 68 91 88 85 37 49 97 52 15 0 0 1 4 4 5 3 0 0 0 0 0 0 0 0 0 0 0 0 0 0 0 0 0 0 0 0 0 0 0 0 0 0 0 0 0 0 0 0 0 0 0 0 0 
0 0 0 0 0 0 0 0 0 0 0 0 0 0 5 3 2 2 1 3 13 21 27 80 87 71 91 52 0 73 143 149 145 139 129 112 117 125 134 147 170 162 186 192 196 202 189 197 202 178 180 183 182 181 178 163 161 171 180 186 189 193 197 201 199 205 162 194 135 145 152 143 107 87 76 84 84 83 47 0 0 15 27 24 0 0 0 1 2 3 3 3 0 0 0 0 0 0 0 0 0 0 0 0 0 0 0 0 0 0 0 0 0 0 0 0 0 0 0 0 0 0 0 0 0 0 0 0 
0 0 0 0 0 0 0 0 0 0 0 0 0 0 1 2 3 1 0 5 14 21 25 41 37 83 66 38 65 77 92 63 0 0 118 118 93 123 150 172 176 150 197 173 195 195 188 186 184 155 164 170 151 167 148 136 138 132 138 157 165 187 199 185 174 189 182 176 158 141 121 107 90 76 72 86 87 2 29 25 0 18 31 29 0 0 0 0 1 0 0 0 0 0 0 0 0 0 0 0 0 0 0 0 0 0 0 0 0 0 0 0 0 0 0 0 0 0 0 0 0 0 0 0 0 0 0 0 
0 0 0 0 0 0 0 0 0 0 0 0 0 0 0 1 4 3 2 4 10 14 17 21 30 50 36 16 33 63 62 60 79 83 65 88 71 64 77 74 74 102 138 168 139 139 137 120 131 106 81 96 111 100 100 101 96 85 102 102 105 111 101 139 131 156 120 27 61 61 55 70 65 57 51 66 84 83 50 30 24 21 21 5 0 0 3 3 0 0 0 0 0 0 0 0 0 0 0 0 0 0 0 0 0 0 0 0 0 0 0 0 0 0 0 0 0 0 0 0 0 0 0 0 0 0 0 0 
0 0 0 0 0 0 0 0 0 0 0 0 0 0 0 0 0 3 2 2 5 3 12 15 21 20 23 34 67 64 60 54 62 64 62 48 70 60 66 67 65 88 78 82 90 96 82 72 74 80 51 74 90 74 74 90 73 52 73 71 81 89 87 79 77 94 75 95 100 99 62 51 63 59 56 76 84 80 47 28 28 24 17 3 0 0 1 0 0 0 0 0 0 0 0 0 0 0 0 0 0 0 0 0 0 0 0 0 0 0 0 0 0 0 0 0 0 0 0 0 0 0 0 0 0 0 0 0 
0 0 0 0 0 0 0 0 0 0 0 0 0 0 0 0 0 0 0 0 1 1 5 16 19 26 26 37 58 75 65 64 67 57 54 56 76 94 122 127 139 142 109 101 72 90 91 99 105 91 74 82 77 99 96 84 87 77 106 108 106 125 103 120 118 143 106 91 103 103 86 88 82 81 74 86 91 85 48 34 25 18 4 2 0 0 0 0 0 0 0 0 0 0 0 0 0 0 0 0 0 0 0 0 0 0 0 0 0 0 0 0 0 0 0 0 0 0 0 0 0 0 0 0 0 0 0 0 
0 0 0 0 0 0 0 0 0 0 0 0 0 0 0 0 0 0 0 0 0 0 1 8 12 16 26 41 75 86 80 71 76 86 87 83 91 120 122 143 152 173 156 129 144 147 159 159 146 125 109 127 116 125 121 127 123 116 122 143 150 102 138 125 127 164 131 133 108 132 122 83 94 78 75 48 42 9 0 0 0 0 0 0 0 0 0 0 0 0 0 0 0 0 0 0 0 0 0 0 0 0 0 0 0 0 0 0 0 0 0 0 0 0 0 0 0 0 0 0 0 0 0 0 0 0 0 0 
0 0 0 0 0 0 0 0 0 0 0 0 0 0 0 0 0 0 0 0 0 0 0 4 8 20 24 30 60 80 71 73 82 92 95 94 103 114 127 115 155 101 174 160 173 182 175 184 163 172 168 161 149 163 162 158 157 154 158 123 123 147 168 142 166 157 152 128 146 149 127 127 98 80 60 68 71 56 0 0 0 0 0 0 0 0 0 0 0 0 0 0 0 0 0 0 0 0 0 0 0 0 0 0 0 0 0 0 0 0 0 0 0 0 0 0 0 0 0 0 0 0 0 0 0 0 0 0 
0 0 0 0 0 0 0 0 0 0 0 0 0 0 0 0 0 0 0 0 0 0 0 2 4 21 27 36 51 76 77 71 103 75 50 72 57 94 107 109 125 128 71 81 125 138 155 171 201 227 138 138 136 131 142 121 135 140 133 133 140 146 128 122 128 129 136 140 148 153 114 71 46 33 38 81 77 0 9 9 0 2 3 0 0 0 0 0 0 0 0 0 0 0 0 0 0 0 0 0 0 0 0 0 0 0 0 0 0 0 0 0 0 0 0 0 0 0 0 0 0 0 0 0 0 0 0 0 
0 0 0 0 0 0 0 0 0 0 0 0 0 0 0 0 0 0 0 0 0 0 0 4 10 15 20 22 29 54 68 67 65 66 40 57 57 72 93 68 67 118 91 95 102 116 127 136 126 122 118 101 101 99 104 97 105 90 108 111 115 135 56 111 120 128 133 117 134 120 98 68 52 55 72 99 85 35 24 16 8 10 3 0 0 0 0 0 0 0 0 0 0 0 0 0 0 0 0 0 0 0 0 0 0 0 0 0 0 0 0 0 0 0 0 0 0 0 0 0 0 0 0 0 0 0 0 0 
0 0 0 0 0 0 0 0 0 0 0 0 0 0 0 0 0 0 0 0 0 0 0 4 8 13 18 21 25 42 63 74 73 69 59 28 41 66 87 43 100 103 100 103 107 118 134 103 113 116 98 67 79 74 79 79 98 86 87 78 44 119 108 95 74 105 122 129 126 108 93 62 57 59 81 108 89 49 24 18 20 12 5 0 0 0 0 0 0 0 0 0 0 0 0 0 0 0 0 0 0 0 0 0 0 0 0 0 0 0 0 0 0 0 0 0 0 0 0 0 0 0 0 0 0 0 0 0 
0 0 0 0 0 0 0 0 0 0 0 0 0 0 0 0 0 0 0 0 0 0 0 1 9 10 15 22 22 37 58 76 77 72 30 54 35 56 74 96 47 87 87 91 101 111 114 97 127 117 114 73 65 102 98 87 104 83 94 122 116 124 118 100 108 89 108 120 108 96 67 47 38 63 90 112 88 51 25 18 16 11 3 0 0 0 0 0 0 0 0 0 0 0 0 0 0 0 0 0 0 0 0 0 0 0 0 0 0 0 0 0 0 0 0 0 0 0 0 0 0 0 0 0 0 0 0 0 
0 0 0 0 0 0 0 0 0 0 0 0 0 0 0 0 0 0 0 0 0 0 0 0 8 7 13 19 22 32 50 70 79 74 49 58 37 54 57 60 73 78 82 78 99 88 109 122 136 130 93 100 99 77 98 95 114 82 58 114 121 144 133 95 97 90 99 107 109 103 58 63 38 53 96 112 83 52 25 18 14 10 2 0 0 0 0 0 0 0 0 0 0 0 0 0 0 0 0 0 0 0 0 0 0 0 0 0 0 0 0 0 0 0 0 0 0 0 0 0 0 0 0 0 0 0 0 0 
0 0 0 0 0 0 0 0 0 0 0 0 0 0 0 0 0 0 0 0 0 0 0 0 2 8 9 16 21 29 45 62 81 79 71 64 54 40 47 59 65 74 83 94 89 96 88 112 127 92 60 57 96 98 79 96 65 78 79 97 104 99 117 101 100 104 90 93 86 95 67 52 40 72 98 123 83 51 26 16 13 9 2 0 0 0 0 0 0 0 0 0 0 0 0 0 0 0 0 0 0 0 0 0 0 0 0 0 0 0 0 0 0 0 0 0 0 0 0 0 0 0 0 0 0 0 0 0 
0 0 0 0 0 0 0 0 0 0 0 0 0 0 0 0 0 0 0 0 0 0 0 0 0 7 9 12 18 22 41 55 79 77 76 72 43 54 43 56 63 70 79 99 102 104 86 71 79 97 51 58 76 94 76 82 70 85 67 97 108 84 111 105 106 103 125 86 77 75 69 69 29 81 98 105 80 45 20 17 13 8 1 0 0 0 0 0 0 0 0 0 0 0 0 0 0 0 0 0 0 0 0 0 0 0 0 0 0 0 0 0 0 0 0 0 0 0 0 0 0 0 0 0 0 0 0 0 
0 0 0 0 0 0 0 0 0 0 0 0 0 0 0 0 0 0 0 0 0 0 0 0 0 2 6 13 15 19 33 53 67 37 41 48 25 29 54 54 60 94 73 96 88 95 96 79 88 95 111 53 70 93 79 97 43 85 82 100 110 93 88 89 99 97 99 87 106 59 61 71 61 85 102 87 47 23 18 16 16 8 1 0 0 0 0 0 0 0 0 0 0 0 0 0 0 0 0 0 0 0 0 0 0 0 0 0 0 0 0 0 0 0 0 0 0 0 0 0 0 0 0 0 0 0 0 0 
0 0 0 0 0 0 0 0 0 0 0 0 0 0 0 0 0 0 0 0 0 0 0 0 0 1 4 9 11 16 21 27 41 46 71 81 71 44 59 52 56 59 79 62 84 90 95 65 86 96 112 105 96 92 97 72 69 71 97 99 103 40 49 88 91 90 66 77 73 60 60 74 62 92 101 42 15 17 17 18 14 7 2 0 0 0 0 0 0 0 0 0 0 0 0 0 0 0 0 0 0 0 0 0 0 0 0 0 0 0 0 0 0 0 0 0 0 0 0 0 0 0 0 0 0 0 0 0 
0 0 0 0 0 0 0 0 0 0 0 0 0 0 0 0 0 0 0 0 0 0 0 0 0 0 5 4 11 4 18 19 18 16 1 42 46 73 66 63 58 62 65 62 77 81 88 62 81 100 100 101 71 91 74 72 76 62 93 93 85 90 97 89 85 74 63 57 59 66 70 82 60 15 19 15 14 15 17 18 14 6 1 0 0 0 0 0 0 0 0 0 0 0 0 0 0 0 0 0 0 0 0 0 0 0 0 0 0 0 0 0 0 0 0 0 0 0 0 0 0 0 0 0 0 0 0 0 
0 0 0 0 0 0 0 0 0 0 0 0 0 0 0 0 0 0 0 0 0 0 0 0 0 0 0 4 7 13 14 17 18 18 8 25 76 81 68 69 66 61 30 50 80 78 83 78 101 103 97 97 100 96 92 91 103 64 84 67 66 101 106 97 71 75 80 79 71 71 83 80 102 52 20 14 6 15 17 16 12 6 1 0 0 0 0 0 0 0 0 0 0 0 0 0 0 0 0 0 0 0 0 0 0 0 0 0 0 0 0 0 0 0 0 0 0 0 0 0 0 0 0 0 0 0 0 0 
0 0 0 0 0 0 0 0 0 0 0 0 0 0 0 0 0 0 0 0 0 0 0 0 0 0 0 2 6 6 15 17 17 17 10 13 23 44 81 80 76 73 38 63 88 78 65 87 82 92 96 98 102 97 98 103 91 103 88 78 102 109 108 85 94 82 86 88 82 89 97 98 75 36 23 14 10 16 16 14 13 6 1 0 0 0 0 0 0 0 0 0 0 0 0 0 0 0 0 0 0 0 0 0 0 0 0 0 0 0 0 0 0 0 0 0 0 0 0 0 0 0 0 0 0 0 0 0 
0 0 0 0 0 0 0 0 0 0 0 0 0 0 0 0 0 0 0 0 0 0 0 0 0 0 0 0 5 3 11 17 17 19 13 6 9 0 35 79 82 88 86 86 92 92 90 90 91 89 102 99 99 97 69 67 70 65 62 86 100 105 104 91 90 98 101 103 96 96 93 76 35 26 21 13 14 17 15 13 11 5 1 0 0 0 0 0 0 0 0 0 0 0 0 0 0 0 0 0 0 0 0 0 0 0 0 0 0 0 0 0 0 0 0 0 0 0 0 0 0 0 0 0 0 0 0 0 
0 0 0 0 0 0 0 0 0 0 0 0 0 0 0 0 0 0 0 0 0 0 0 0 0 0 0 0 4 3 7 16 17 18 14 12 19 2 0 43 73 88 94 102 105 99 102 98 101 95 103 96 97 84 61 63 113 105 114 114 109 101 113 107 101 109 110 109 101 86 63 35 28 24 15 15 13 14 14 13 9 5 1 0 0 0 0 0 0 0 0 0 0 0 0 0 0 0 0 0 0 0 0 0 0 0 0 0 0 0 0 0 0 0 0 0 0 0 0 0 0 0 0 0 0 0 0 0 
0 0 0 0 0 0 0 0 0 0 0 0 0 0 0 0 0 0 0 0 0 0 0 0 0 0 0 0 0 5 2 14 16 17 18 12 14 0 0 14 38 60 86 95 97 109 109 106 64 109 109 103 102 101 94 94 103 107 113 114 112 99 115 118 113 110 111 104 82 50 35 28 26 16 14 17 12 13 14 11 9 5 1 0 0 0 0 0 0 0 0 0 0 0 0 0 0 0 0 0 0 0 0 0 0 0 0 0 0 0 0 0 0 0 0 0 0 0 0 0 0 0 0 0 0 0 0 0 
0 0 0 0 0 0 0 0 0 0 0 0 0 0 0 0 0 0 0 0 0 0 0 0 0 0 0 0 0 7 1 7 14 18 16 13 10 19 25 15 31 33 84 55 86 71 101 101 103 103 113 109 106 101 93 92 100 106 115 104 109 115 118 114 108 77 87 61 42 37 29 28 20 14 12 17 12 13 14 10 9 4 0 0 0 0 0 0 0 0 0 0 0 0 0 0 0 0 0 0 0 0 0 0 0 0 0 0 0 0 0 0 0 0 0 0 0 0 0 0 0 0 0 0 0 0 0 0 
0 0 0 0 0 0 0 0 0 0 0 0 0 0 0 0 0 0 0 0 0 0 0 0 0 0 0 0 0 4 4 1 13 16 14 12 12 18 25 28 30 32 33 37 45 59 64 87 65 84 104 108 103 101 98 95 98 102 115 108 113 99 110 93 88 54 49 54 40 36 28 24 25 20 17 14 12 15 14 11 9 3 1 0 0 0 0 0 0 0 0 0 0 0 0 0 0 0 0 0 0 0 0 0 0 0 0 0 0 0 0 0 0 0 0 0 0 0 0 0 0 0 0 0 0 0 0 0 
