P2
128 99
218
0 0 0 0 0 0 0 0 0 0 0 0 0 0 0 0 0 0 0 0 0 0 0 0 0 0 0 0 0 0 0 0 1 1 0 0 0 0 0 0 0 0 0 0 0 0 0 0 0 0 0 0 0 0 0 0 0 0 0 0 0 0 0 0 0 0 0 0 0 0 0 0 0 0 0 0 0 0 0 0 0 0 0 0 0 0 0 0 0 0 0 0 0 1 1 1 2 0 0 0 0 0 0 0 0 0 0 0 0 0 0 0 0 0 0 0 0 0 0 0 0 0 0 0 0 0 0 0 
0 0 0 0 0 0 0 0 0 0 0 0 0 0 0 0 0 0 0 0 0 0 0 0 0 0 0 0 0 0 0 0 0 1 0 0 0 1 0 0 0 0 0 0 0 0 0 0 0 0 0 0 0 0 0 0 0 0 0 0 0 0 0 0 0 0 0 0 0 0 0 0 0 0 0 0 0 0 0 0 0 0 0 0 0 0 0 0 0 0 0 0 0 1 1 1 1 0 0 0 0 0 0 0 0 0 0 0 0 0 0 0 0 0 0 0 0 0 0 0 0 0 0 0 0 0 0 0 
0 0 0 0 0 0 0 0 0 0 0 0 0 0 0 0 0 0 0 0 0 0 0 0 0 0 0 0 0 0 0 0 0 1 0 0 0 0 0 0 0 0 0 0 0 0 0 0 0 0 1 2 2 2 1 0 0 0 0 0 0 0 0 0 0 0 0 0 0 0 0 0 0 0 0 0 0 0 0 0 0 0 0 0 0 0 0 0 0 0 0 0 0 1 1 1 1 0 0 0 0 0 0 0 0 0 0 0 0 0 0 0 0 0 0 0 0 0 0 0 0 0 0 0 0 0 0 0 
0 0 0 0 0 0 0 0 0 0 0 0 0 0 0 0 0 0 0 0 0 0 0 0 0 0 0 0 0 0 0 0 0 1 0 0 0 0 0 0 0 0 0 1 7 13 17 18 18 19 22 25 28 27 25 21 18 16 14 12 4 0 0 0 0 0 0 0 0 0 0 0 0 0 0 0 0 0 0 0 0 0 0 0 0 0 0 0 0 0 0 0 0 1 1 1 1 0 0 0 0 0 0 0 0 0 0 0 0 0 0 0 0 0 0 0 0 0 0 0 0 0 0 0 0 0 0 0 
0 0 0 0 0 0 0 0 0 0 0 0 0 0 0 0 0 0 0 0 0 0 0 0 0 0 0 0 0 0 0 0 0 0 0 0 0 0 0 0 6 13 19 23 24 33 54 78 102 124 141 152 158 159 154 144 127 105 80 54 33 22 17 10 2 0 0 0 0 0 0 0 0 0 0 0 0 0 0 0 0 0 0 0 0 0 0 0 0 0 0 0 0 1 1 1 1 0 0 0 0 0 0 0 0 0 0 0 0 0 0 0 0 0 0 0 0 0 0 0 0 0 0 0 0 0 0 0 
0 0 0 0 0 0 0 0 0 0 0 0 0 0 0 0 0 0 0 0 0 0 0 0 0 0 0 0 0 0 0 0 0 0 0 0 0 1 9 17 24 25 36 68 113 153 177 187 192 195 197 195 194 193 194 195 194 191 186 175 154 121 80 44 24 16 10 1 0 0 0 0 0 0 0 0 0 0 0 0 0 0 0 0 0 0 0 0 0 0 0 0 0 1 1 1 1 0 0 0 0 0 0 0 0 0 0 0 0 0 0 0 0 0 0 0 0 0 0 0 0 0 0 0 0 0 0 0 
0 0 0 0 0 0 0 0 0 0 0 0 0 0 0 0 0 0 0 0 0 0 0 0 0 0 0 0 0 0 0 0 0 0 0 0 9 22 24 26 52 105 156 184 194 196 197 198 200 203 205 206 206 206 206 205 204 201 198 196 195 190 180 161 125 78 39 18 13 2 0 0 0 0 0 0 0 0 0 0 0 0 0 0 0 0 0 0 0 0 0 0 0 1 1 1 1 0 0 0 0 0 0 0 0 0 0 0 0 0 0 0 0 0 0 0 0 0 0 0 0 0 0 0 0 0 0 0 
0 0 0 0 0 0 0 0 0 0 0 0 0 0 0 0 0 0 0 0 0 0 0 0 0 0 0 0 0 0 0 0 0 0 8 24 25 26 63 127 173 191 196 198 200 203 201 194 188 184 187 195 193 179 177 191 205 211 209 204 201 198 196 195 191 179 153 102 49 23 14 1 0 0 0 0 0 0 0 0 0 0 0 0 0 0 0 0 0 0 0 0 0 1 1 1 2 0 0 0 0 0 0 0 0 0 0 0 0 0 0 0 0 0 0 0 0 0 0 0 0 0 0 0 0 0 0 0 
0 0 0 0 0 0 0 0 0 0 0 0 0 0 0 0 0 0 0 0 0 0 0 0 0 0 0 0 0 0 0 0 5 27 25 23 59 132 178 190 192 196 200 203 200 191 182 170 161 159 159 161 158 151 152 158 167 185 205 214 211 207 203 200 197 196 195 187 161 105 46 23 10 0 0 0 0 0 0 0 0 0 0 0 0 0 0 0 0 0 0 0 0 1 1 1 1 0 0 0 0 0 0 0 0 0 0 0 0 0 0 0 0 0 0 0 0 0 0 0 0 0 0 0 0 0 0 0 
0 0 0 0 0 0 0 0 0 0 0 0 0 0 0 0 0 0 0 0 0 0 0 0 0 0 0 0 0 0 0 24 26 22 41 114 175 189 190 193 198 203 200 184 169 164 157 147 142 139 144 151 152 148 151 154 156 159 171 190 210 215 214 210 206 201 198 196 195 186 153 81 31 19 2 0 0 0 0 0 0 0 0 0 0 0 0 0 0 0 0 0 0 1 1 1 2 0 0 0 0 0 0 0 0 0 0 0 0 0 0 0 0 0 0 0 0 0 0 0 0 0 0 0 0 0 0 0 
0 0 0 0 0 0 0 0 0 0 0 0 0 0 0 0 0 0 0 0 0 0 0 0 0 0 0 0 0 10 28 22 26 85 163 187 190 192 197 203 206 194 175 169 164 156 150 143 139 137 138 142 141 141 145 150 150 149 153 160 177 197 211 217 216 211 206 202 198 198 196 180 123 46 23 6 0 0 0 0 0 0 0 0 0 0 0 0 0 1 0 0 0 1 1 1 2 0 0 0 0 0 0 0 0 0 0 0 0 0 0 0 0 0 0 0 0 0 0 0 0 0 0 0 0 0 0 0 
0 0 0 0 0 0 0 0 0 0 0 0 0 0 0 0 0 0 0 0 0 0 0 0 0 0 0 0 22 25 18 48 135 182 187 192 199 203 207 202 186 176 168 162 159 155 151 147 145 142 136 138 135 134 145 151 151 150 152 156 162 173 189 202 213 218 215 211 206 203 200 198 191 155 69 24 11 0 0 0 0 0 0 0 0 0 0 0 0 1 0 0 0 1 1 1 2 0 0 0 0 0 0 0 0 0 0 0 0 0 0 0 0 0 0 0 0 0 0 0 0 0 0 0 0 0 0 0 
0 0 0 0 0 0 0 0 0 0 0 0 0 0 0 0 0 0 0 0 0 0 0 0 0 0 5 26 21 19 77 163 184 191 196 203 208 208 194 181 175 170 162 159 154 153 153 149 150 142 133 131 129 129 139 149 149 150 152 154 157 166 176 184 194 205 214 218 215 210 205 201 197 191 167 87 25 13 0 0 0 0 0 0 0 0 0 0 0 1 0 0 0 1 1 1 2 1 0 0 0 0 0 0 0 0 0 0 0 0 0 0 0 0 0 0 0 0 0 0 0 0 0 0 0 0 0 0 
0 0 0 0 0 0 0 0 0 0 0 0 0 0 0 0 0 0 0 0 0 0 0 0 0 10 26 18 26 103 172 185 195 202 207 210 204 188 178 172 169 164 159 155 152 152 153 152 143 137 127 126 123 125 129 141 151 154 155 156 156 159 165 173 180 186 194 205 214 217 213 207 201 194 190 172 97 27 14 0 0 0 0 0 0 0 0 0 0 0 0 0 0 1 1 1 2 1 0 0 0 0 0 0 0 0 0 0 0 0 0 0 0 0 0 0 0 0 0 0 0 0 0 0 0 0 0 0 
0 0 0 0 0 0 0 0 0 0 0 0 0 0 0 0 0 0 0 0 0 0 0 0 14 23 16 34 120 174 185 197 205 210 207 194 181 175 172 168 164 161 159 156 151 149 141 134 132 127 124 123 121 124 126 126 136 148 152 151 152 153 157 162 167 172 178 183 190 202 212 214 210 202 195 192 176 107 30 13 0 0 0 0 0 0 0 0 0 1 0 0 0 1 1 1 2 1 0 0 0 0 0 0 0 0 0 0 0 0 0 0 0 0 0 0 0 0 0 0 0 0 0 0 0 0 0 0 
0 0 0 0 0 0 0 0 0 0 0 0 0 0 0 0 0 0 0 0 0 0 3 19 20 15 45 132 172 187 200 207 210 198 183 176 173 171 168 164 160 155 149 142 138 130 125 125 122 122 122 120 118 123 126 125 125 129 138 146 148 147 149 155 161 163 167 168 173 179 191 204 211 209 202 194 191 178 120 36 12 0 0 0 0 0 0 0 0 1 0 0 0 1 1 1 2 1 0 0 0 0 0 0 0 0 0 0 0 0 0 0 0 0 0 0 0 0 0 0 0 0 0 0 0 0 0 0 
0 0 0 0 0 0 0 0 0 0 0 0 0 0 0 0 0 0 0 0 0 5 17 17 16 58 142 171 188 201 209 207 188 176 171 169 167 166 163 159 154 146 141 137 128 122 122 119 121 121 121 117 115 122 124 125 125 126 126 130 133 135 139 145 150 154 157 161 166 169 172 179 195 207 209 202 197 192 177 129 39 9 0 0 0 0 0 0 0 1 0 0 0 1 1 1 2 1 0 0 0 0 0 0 0 0 0 0 0 0 0 0 0 0 0 0 0 0 0 0 0 0 0 0 0 0 0 0 
0 0 0 0 0 0 0 0 0 0 0 0 0 0 0 0 0 0 0 0 7 16 15 18 72 151 171 188 203 209 201 177 168 168 167 163 157 152 151 148 146 142 135 127 123 121 118 120 121 120 118 112 111 121 121 123 124 125 125 127 129 131 133 137 141 143 145 149 153 158 160 164 170 186 200 206 203 198 191 178 133 37 6 0 0 0 0 0 0 0 0 0 0 1 1 1 2 1 0 0 0 0 0 0 0 0 0 0 0 0 0 0 0 0 0 0 0 0 0 0 0 0 0 0 0 0 0 0 
0 0 0 0 0 0 0 0 0 0 0 0 0 0 0 0 0 0 0 6 16 13 20 80 154 171 186 201 208 197 172 162 164 162 157 151 147 146 141 135 131 127 125 122 122 120 117 119 119 115 116 108 110 119 120 122 124 124 123 124 126 127 127 130 130 131 135 142 148 149 148 151 158 165 179 196 206 203 198 188 177 125 29 3 0 0 0 0 0 1 0 0 0 1 1 2 2 1 0 0 0 0 0 0 0 0 0 0 0 0 0 0 0 0 0 0 0 0 0 0 0 0 0 0 0 0 0 0 
0 0 0 0 0 0 0 0 0 0 0 0 0 0 0 0 0 0 5 16 13 20 85 155 169 183 197 206 191 169 162 159 157 156 149 141 137 135 131 127 125 122 121 122 118 115 115 116 114 114 111 106 109 120 120 120 122 122 123 123 123 123 122 122 124 125 129 134 142 147 145 145 148 152 162 174 191 206 204 196 185 171 109 20 2 0 0 0 0 1 0 0 0 1 1 2 2 1 0 0 0 0 0 0 0 0 0 0 0 0 0 0 0 0 0 0 0 0 0 0 0 0 0 0 0 0 0 0 
0 0 0 0 0 0 0 0 0 0 0 0 0 0 0 0 0 2 15 13 19 82 151 165 179 195 205 188 167 159 157 152 150 146 138 132 130 129 125 125 121 119 118 115 113 113 113 112 114 110 103 104 107 116 118 119 120 120 119 121 123 121 120 118 119 121 124 131 135 137 142 142 143 146 152 159 169 187 206 201 193 180 162 85 11 0 0 0 0 1 0 0 0 1 1 2 2 1 0 0 0 0 0 0 0 0 0 0 0 0 0 0 0 0 0 0 0 0 0 0 0 0 0 0 0 0 0 0 
0 0 0 0 0 0 0 0 0 0 0 0 0 0 0 0 0 11 12 16 74 145 160 173 189 202 187 165 158 154 150 146 145 140 129 127 127 124 123 121 116 113 112 113 113 111 109 109 110 102 101 104 106 109 114 115 117 116 117 119 120 117 117 116 114 116 121 126 131 133 132 134 135 139 145 151 159 165 189 205 200 189 174 145 54 4 0 0 0 0 0 0 0 1 1 2 2 1 0 0 0 0 0 0 0 0 0 0 0 0 0 0 0 0 0 0 0 0 0 0 0 0 0 0 0 0 0 0 
0 0 0 0 0 0 0 0 0 0 0 0 0 0 0 0 6 12 14 61 136 154 169 185 199 188 162 156 152 147 144 141 134 129 126 125 125 124 121 115 113 111 112 111 110 107 107 106 103 100 101 104 106 109 109 108 111 111 109 109 111 113 114 112 111 110 113 123 125 129 129 129 130 133 137 144 150 155 161 192 206 198 184 165 120 25 1 0 0 1 0 0 0 1 1 2 2 1 0 0 0 0 0 0 0 0 0 0 0 0 0 0 0 0 0 0 0 0 0 0 0 0 0 0 0 0 0 0 
0 0 0 0 0 0 0 0 0 0 0 0 0 0 0 2 12 13 47 125 149 163 179 195 190 162 152 149 146 145 137 132 129 129 127 125 122 117 114 112 108 103 101 100 102 103 104 105 105 103 108 106 105 108 106 104 106 106 106 106 107 109 110 109 109 110 110 112 121 124 124 124 124 129 134 138 148 149 150 164 197 202 191 176 151 80 7 0 0 1 0 0 0 1 1 2 2 1 0 0 0 0 0 0 0 0 0 0 0 0 0 0 0 0 0 0 0 0 0 0 0 0 0 0 0 0 0 0 
0 0 0 0 0 0 0 0 0 0 0 0 0 0 0 7 11 26 104 141 156 172 189 191 167 152 147 144 143 141 134 128 128 124 122 118 116 113 110 104 99 99 102 102 101 102 104 104 105 105 110 108 104 105 103 103 103 103 103 106 106 105 108 108 109 110 111 111 115 119 120 121 122 123 130 137 145 145 146 149 173 198 195 182 165 125 31 1 0 1 0 0 0 1 1 2 2 1 0 0 0 0 0 0 0 0 0 0 0 0 0 0 0 0 0 0 0 0 0 0 0 0 0 0 0 0 0 0 
0 0 0 0 0 0 0 0 0 0 0 0 0 0 2 9 13 75 132 148 164 181 185 174 151 142 141 141 142 138 131 126 123 123 120 114 112 109 105 100 100 101 102 102 101 101 104 104 103 104 110 110 105 108 104 104 103 104 103 103 103 106 106 107 106 108 108 109 111 115 117 121 122 123 127 134 141 142 141 140 151 183 195 187 171 146 70 4 0 1 0 0 1 1 1 2 2 1 0 0 0 0 0 0 0 0 0 0 0 0 0 0 0 0 0 0 0 0 0 0 0 0 0 0 0 0 0 0 
0 0 0 0 0 0 0 0 0 0 0 0 0 0 6 9 40 116 139 154 174 181 171 161 141 136 138 141 140 135 128 123 122 119 115 108 107 106 104 101 101 101 100 100 102 104 105 105 102 104 112 113 109 108 99 100 104 104 103 102 100 103 105 105 105 105 105 107 109 111 113 119 122 120 124 134 142 140 139 134 139 165 185 188 177 157 109 17 1 1 0 0 1 1 1 2 2 1 0 0 0 0 0 0 0 0 0 0 0 0 0 0 0 0 0 0 0 0 0 0 0 0 0 0 0 0 0 0 
0 0 0 0 0 0 0 0 0 0 0 0 0 0 7 15 85 128 147 163 180 167 165 147 134 134 136 140 136 131 122 118 117 117 112 106 107 106 102 101 100 99 101 101 101 104 105 105 106 103 106 111 111 104 97 97 98 104 104 103 100 101 102 104 106 108 107 107 108 110 112 115 122 121 125 131 139 141 135 130 132 156 175 185 179 163 132 39 2 1 0 0 0 1 1 2 2 1 0 0 0 0 0 0 0 0 0 0 0 0 0 0 0 0 0 0 0 0 0 0 0 0 0 0 0 0 0 0 
0 0 0 0 0 0 0 0 0 0 0 0 0 3 7 38 113 136 151 172 174 162 156 137 131 132 134 137 133 125 121 119 117 115 109 108 106 102 101 100 100 100 100 101 101 104 106 107 106 101 100 103 110 100 95 94 98 101 98 102 102 102 101 102 106 108 108 110 110 109 110 113 120 121 122 132 138 138 131 127 127 151 167 184 181 168 143 62 3 1 0 0 0 1 1 2 2 1 0 0 0 0 0 0 0 0 0 0 0 0 0 0 0 0 0 0 0 0 0 0 0 0 0 0 0 0 0 0 
0 0 0 0 0 0 0 0 0 0 0 0 0 4 9 70 125 140 158 175 160 154 146 131 131 129 131 133 126 123 123 120 118 111 106 107 106 103 102 101 101 101 100 101 103 104 103 104 104 101 99 100 107 100 95 95 96 96 95 96 98 102 102 103 106 107 109 111 113 112 110 113 118 119 121 131 137 131 128 125 121 144 160 180 182 169 149 83 6 1 1 0 1 1 1 2 2 1 0 0 0 0 0 0 0 0 0 0 0 0 0 0 0 0 0 0 0 0 0 0 0 0 0 0 0 0 0 0 
0 0 0 0 0 0 0 0 0 0 0 0 0 6 17 96 131 147 166 168 147 145 139 126 126 125 127 128 121 122 123 121 118 110 109 109 107 103 101 102 104 100 99 99 104 102 100 102 103 99 97 99 106 99 96 96 96 97 98 97 96 98 102 106 107 108 111 112 113 114 113 114 117 119 120 127 132 128 124 124 121 137 154 176 182 170 153 100 11 1 1 0 0 1 1 2 2 1 0 0 0 0 0 0 0 0 0 0 0 0 0 0 0 0 0 0 0 0 0 0 0 0 0 0 0 0 0 0 
0 0 0 0 0 0 0 0 0 0 0 0 1 6 34 115 136 154 168 151 137 139 136 126 121 121 122 124 119 120 121 119 117 113 110 109 106 103 104 103 99 98 98 99 101 99 99 100 101 98 97 97 105 98 96 95 96 97 98 100 101 102 101 105 110 110 112 114 114 114 115 116 117 118 120 125 126 126 121 118 118 135 157 173 183 173 156 116 16 1 1 0 1 1 1 2 2 1 0 0 0 0 0 0 0 0 0 0 0 0 0 0 0 0 0 0 0 0 0 0 0 0 0 0 0 0 0 0 
0 0 0 0 0 0 0 0 0 0 0 0 2 6 50 122 140 159 160 141 132 135 137 124 116 117 119 122 117 117 119 118 116 113 109 112 107 104 101 96 96 97 97 97 98 100 99 96 98 97 96 99 99 96 95 93 93 94 96 100 101 102 102 103 108 113 112 117 119 117 116 117 117 119 120 125 120 120 118 115 114 132 155 167 184 176 160 130 26 1 1 0 1 1 1 2 2 1 0 0 0 0 0 0 0 0 0 0 0 0 0 0 0 0 0 0 0 0 0 0 0 0 0 0 0 0 0 0 
0 0 0 0 0 0 0 0 0 0 0 0 2 7 64 127 146 162 153 138 129 135 137 122 113 112 117 121 115 112 119 118 116 115 113 112 108 105 100 94 95 96 96 96 97 97 97 95 95 94 99 103 99 95 93 90 90 93 94 96 99 100 103 102 104 108 111 114 119 119 118 118 118 119 119 123 115 112 116 115 115 134 156 168 184 181 165 140 38 2 0 0 1 1 1 2 2 1 0 0 0 0 0 0 0 0 0 0 0 0 0 0 0 0 0 0 0 0 0 0 0 0 0 0 0 0 0 0 
0 0 0 0 0 0 0 0 0 0 0 0 3 9 74 131 151 161 152 141 132 135 136 124 115 110 116 117 108 110 120 118 117 114 112 114 109 107 108 99 99 97 94 96 95 95 94 95 94 93 98 102 99 94 91 91 89 90 92 95 96 99 101 100 100 107 111 117 124 123 121 120 120 120 120 123 113 109 113 112 114 138 156 168 183 184 170 151 51 3 1 0 1 1 1 2 2 1 0 0 0 0 0 0 0 0 0 0 0 0 0 0 0 0 0 0 0 0 0 0 0 0 0 0 0 0 0 0 
0 0 0 0 0 0 0 0 0 0 0 0 3 11 82 136 156 163 153 144 135 135 137 126 115 110 114 112 105 110 121 118 116 116 114 116 114 111 113 115 112 105 99 98 97 97 97 98 94 94 98 100 101 95 93 92 89 87 91 93 95 100 100 99 104 111 117 123 123 124 126 126 124 123 123 128 115 110 110 109 118 140 154 166 185 185 173 158 63 4 0 0 1 1 1 2 2 1 0 0 0 0 0 0 0 0 0 0 0 0 0 0 0 0 0 0 0 0 0 0 0 0 0 0 0 0 0 0 
0 0 0 0 0 0 0 0 0 0 0 0 4 12 87 140 160 167 156 148 140 138 138 127 118 112 112 111 104 109 123 119 119 119 122 119 111 102 98 98 96 96 102 104 102 99 98 98 97 97 100 99 104 96 94 93 89 85 89 91 94 99 105 108 103 99 97 98 101 105 112 119 130 134 129 132 128 115 110 113 125 140 152 162 183 188 176 161 78 6 1 0 1 1 1 2 2 1 0 0 0 0 0 0 0 0 0 0 0 0 0 0 0 0 0 0 0 0 0 0 0 0 0 0 0 0 0 0 
0 0 0 0 0 0 0 0 0 0 0 0 5 13 90 143 162 168 153 148 145 143 141 131 122 115 112 105 103 114 127 121 125 127 115 107 98 88 83 85 86 85 86 92 98 106 103 98 93 94 97 99 107 101 95 93 89 85 88 88 96 106 103 96 93 90 93 93 93 96 99 102 112 128 141 141 140 125 114 121 130 140 147 156 177 190 180 163 93 8 1 0 1 1 1 2 2 1 0 0 0 0 0 0 0 0 0 0 0 0 0 0 0 0 0 0 0 0 0 0 0 0 0 0 0 0 0 0 
0 0 0 0 0 0 0 0 0 0 0 0 6 14 94 147 165 167 155 149 144 142 143 138 130 121 114 104 105 122 129 127 130 115 100 93 89 85 83 87 86 84 84 86 89 95 102 103 94 94 97 100 105 105 99 95 89 86 86 93 104 94 91 90 91 95 97 97 99 102 101 99 101 112 136 153 148 138 125 128 133 135 141 150 165 188 182 166 106 11 1 0 1 1 1 2 2 1 0 0 0 0 0 0 0 0 0 0 0 0 0 0 0 0 0 0 0 0 0 0 0 0 0 0 0 0 0 0 
0 0 0 0 0 0 0 0 0 0 0 0 7 14 97 150 165 167 153 146 142 139 138 138 135 126 121 113 111 127 135 135 114 97 93 91 88 87 90 92 91 87 84 86 90 94 95 102 97 97 100 103 108 111 109 101 94 90 87 102 96 87 87 87 92 96 99 101 101 104 106 107 109 116 130 154 154 145 136 132 130 130 134 143 155 181 183 168 120 16 1 0 1 1 1 2 2 1 0 0 0 0 0 0 0 0 0 0 0 0 0 0 0 0 0 0 0 0 0 0 0 0 0 0 0 0 0 0 
0 0 0 0 0 0 0 0 0 0 0 0 7 15 98 152 169 168 147 141 139 138 134 132 133 130 124 123 130 131 140 128 102 94 92 90 88 89 91 90 90 89 87 86 88 90 96 99 101 99 105 111 118 116 121 106 98 91 90 104 88 82 81 87 93 97 100 103 103 107 109 108 114 126 132 138 148 144 144 134 127 124 128 135 146 172 182 168 131 24 1 0 1 1 1 2 2 1 0 0 0 0 0 0 0 0 0 0 0 0 0 0 0 0 0 0 0 0 0 0 0 0 0 0 0 0 0 0 
0 0 0 0 0 0 0 0 0 0 0 0 7 15 101 154 170 170 139 135 136 135 132 126 129 131 125 122 134 140 146 126 111 102 99 95 92 91 88 87 87 88 88 87 88 90 96 100 100 100 107 115 124 117 125 109 99 93 98 100 83 78 83 91 96 99 100 102 104 107 109 109 116 121 122 125 133 142 145 134 124 122 125 125 135 163 181 169 137 35 1 0 1 1 1 2 2 1 0 0 0 0 0 0 0 0 0 0 0 0 0 0 0 0 0 0 0 0 0 0 0 0 0 0 0 0 0 0 
0 0 0 0 0 0 0 0 0 0 0 0 8 16 101 154 172 170 135 135 135 131 127 121 122 123 121 123 132 134 137 127 121 112 104 100 98 94 90 88 89 90 89 88 90 91 94 99 98 100 107 116 118 114 119 117 105 100 100 92 80 81 89 94 96 98 98 99 101 103 107 110 112 114 118 120 125 138 142 135 120 116 117 117 123 152 177 169 141 44 2 0 1 1 1 2 2 1 0 0 0 0 0 0 0 0 0 0 0 0 0 0 0 0 0 0 0 0 0 0 0 0 0 0 0 0 0 0 
0 0 0 0 0 0 0 0 0 0 0 0 8 17 105 157 174 168 132 133 131 126 120 113 115 118 120 122 125 125 125 117 110 108 101 97 95 93 90 85 86 88 89 92 91 91 92 96 100 101 106 106 105 111 109 115 109 106 100 86 81 86 90 92 93 94 93 94 98 100 102 105 111 113 117 115 124 137 140 133 116 112 112 114 116 139 172 168 144 52 3 0 1 1 1 2 2 1 0 0 0 0 0 0 0 0 0 0 0 0 0 0 0 0 0 0 0 0 0 0 0 0 0 0 0 0 0 0 
0 0 0 0 0 0 0 0 0 0 0 0 8 17 105 159 175 163 127 127 122 118 110 105 108 113 117 125 124 119 118 114 103 103 97 93 90 90 90 87 85 87 89 91 90 89 91 93 99 102 111 109 103 105 104 114 110 111 105 87 86 87 90 87 85 89 92 93 96 99 102 104 107 110 111 113 124 135 136 134 119 110 107 109 109 127 158 166 147 59 3 1 1 1 1 2 2 1 0 0 0 0 0 0 0 0 0 0 0 0 0 0 0 0 0 0 0 0 0 0 0 0 0 0 0 0 0 0 
0 0 0 0 0 0 0 0 0 0 0 0 8 17 103 159 175 157 120 118 115 111 103 99 101 106 111 125 125 119 115 113 102 99 93 89 88 87 88 84 85 87 88 88 86 87 91 89 89 104 120 123 112 100 101 95 115 108 100 91 91 90 90 81 82 88 90 94 96 97 100 102 104 109 109 112 123 131 131 137 128 110 107 110 110 123 138 156 149 64 3 0 1 1 1 2 2 1 0 0 0 0 0 0 0 0 0 0 0 0 0 0 0 0 0 0 0 0 0 0 0 0 0 0 0 0 0 0 
0 0 0 0 0 0 0 0 0 0 0 0 8 17 101 158 174 148 118 113 108 106 102 100 100 101 114 121 122 118 114 112 105 97 93 91 89 89 89 87 84 85 88 90 88 90 93 87 85 100 116 122 103 92 94 83 103 116 93 95 91 90 85 82 87 89 91 93 94 96 99 100 101 105 107 114 125 132 138 139 131 111 105 107 111 121 134 155 149 65 3 0 1 1 1 2 2 1 0 0 0 0 0 0 0 0 0 0 0 0 0 0 0 0 0 0 0 0 0 0 0 0 0 0 0 0 0 0 
0 0 0 0 0 0 0 0 0 0 0 0 7 17 95 156 171 139 117 110 108 107 103 101 101 103 115 116 119 118 116 112 105 97 93 92 89 90 90 90 87 83 83 85 87 90 92 84 84 101 117 109 86 81 88 79 86 122 87 92 89 86 82 88 90 91 92 93 95 97 98 98 102 104 105 119 133 141 136 135 131 111 105 104 110 119 134 159 143 62 3 0 1 1 1 2 2 1 0 0 0 0 0 0 0 0 0 0 0 0 0 0 0 0 0 0 0 0 0 0 0 0 0 0 0 0 0 0 
0 0 0 0 0 0 0 0 0 0 0 0 6 15 86 154 169 135 114 109 107 106 103 100 99 103 115 115 116 118 120 114 104 101 94 89 91 93 91 89 88 86 81 79 82 85 90 83 88 104 110 91 85 82 89 77 79 113 104 89 86 82 82 90 90 90 92 95 97 97 97 97 102 101 103 119 139 135 130 134 129 109 104 103 108 116 134 157 138 57 3 0 1 1 1 2 2 1 0 0 0 0 0 0 0 0 0 0 0 0 0 0 0 0 0 0 0 0 0 0 0 0 0 0 0 0 0 0 
0 0 0 0 0 0 0 0 0 0 0 0 4 15 80 150 167 137 116 109 105 105 104 99 98 99 112 116 114 116 121 116 103 102 96 94 95 96 94 92 89 86 83 79 80 83 85 76 88 106 106 88 86 89 95 81 77 91 114 92 85 79 82 90 90 92 94 96 94 93 95 97 100 98 102 119 134 129 127 132 128 108 105 103 106 114 136 153 131 51 2 0 0 1 1 2 2 1 0 0 0 0 0 0 0 0 0 0 0 0 0 0 0 0 0 0 0 0 0 0 0 0 0 0 0 0 0 0 
0 0 0 0 0 0 0 0 0 0 0 0 2 14 73 145 164 142 117 109 104 103 103 102 98 95 108 117 116 117 122 116 103 100 97 95 96 96 96 94 90 85 80 79 78 80 80 78 94 108 93 86 85 94 101 86 81 78 109 102 97 87 83 89 91 92 93 92 91 91 94 98 97 96 102 117 127 126 125 130 126 106 105 102 104 113 140 148 123 45 2 0 0 1 1 2 2 1 0 0 0 0 0 0 0 0 0 0 0 0 0 0 0 0 0 0 0 0 0 0 0 0 0 0 0 0 0 0 
0 0 0 0 0 0 0 0 0 6 5 0 0 12 64 137 159 143 118 107 102 101 103 103 98 93 103 116 117 117 122 113 104 100 98 95 95 93 94 93 92 89 83 79 85 95 91 88 97 99 88 83 84 98 100 89 84 80 93 110 112 108 101 96 94 94 97 95 91 93 94 98 94 94 102 116 122 124 128 131 125 106 102 99 101 114 142 142 111 38 2 0 0 1 1 2 2 1 0 0 0 0 0 0 0 0 0 0 0 0 0 0 0 0 0 0 0 0 0 0 0 0 0 0 0 0 0 0 
0 0 0 0 0 0 0 0 0 3 9 3 1 9 53 129 156 142 118 107 99 100 102 103 98 91 104 118 118 116 120 114 103 99 98 96 94 93 91 93 99 99 94 87 90 94 98 92 103 92 88 83 84 95 95 91 89 85 87 117 121 121 112 102 97 93 94 97 93 90 90 93 94 93 102 118 122 123 127 133 130 108 98 98 100 114 143 136 102 34 2 0 0 1 1 2 2 1 0 0 0 0 0 0 0 0 0 0 0 0 0 0 0 0 0 0 0 0 0 0 0 0 0 0 0 0 0 0 
0 0 0 0 0 0 0 0 0 2 4 9 3 8 42 118 151 141 114 104 97 97 103 104 100 92 104 119 119 116 119 117 104 100 100 97 93 93 92 95 99 97 93 94 104 109 104 97 107 84 85 82 84 98 93 86 90 89 95 121 125 115 108 112 111 108 105 100 95 91 89 95 99 104 107 123 128 124 127 136 138 117 98 98 101 121 143 131 94 27 1 0 0 1 1 2 2 1 0 0 0 0 0 0 0 0 0 0 0 0 0 0 0 0 0 0 0 0 0 0 0 0 0 0 0 0 0 0 
0 0 0 0 0 0 0 0 0 0 3 10 4 7 32 104 145 144 114 105 101 100 102 102 102 94 107 117 119 121 126 124 116 104 100 98 94 95 100 101 102 102 102 105 99 99 95 106 108 83 82 83 84 104 93 86 86 85 90 119 133 116 106 108 114 124 137 132 125 122 125 123 127 128 133 138 126 121 129 139 139 128 104 99 109 131 144 122 86 18 1 0 1 8 5 1 2 1 0 0 0 0 0 0 0 0 0 0 0 0 0 0 0 0 0 0 0 0 0 0 0 0 0 0 0 0 0 0 
0 0 0 0 0 0 0 0 0 0 2 10 5 7 25 92 140 149 119 111 107 98 98 102 101 101 110 115 119 120 125 124 126 128 119 112 111 113 117 115 113 107 92 91 100 100 97 106 108 81 82 87 87 102 92 80 82 83 90 124 134 112 106 107 111 124 148 153 146 148 152 150 145 132 132 138 136 129 129 139 140 130 120 112 109 139 137 117 78 12 3 2 5 3 2 2 2 1 0 0 0 0 0 0 0 0 0 0 0 0 0 0 0 0 0 0 0 0 0 0 0 0 0 0 0 0 0 0 
0 0 0 0 0 0 0 0 0 0 1 9 6 8 19 82 133 154 134 113 107 96 95 101 106 113 113 117 120 121 121 121 118 122 126 128 129 121 116 112 111 105 100 100 101 96 95 105 109 88 85 92 90 106 95 80 82 88 100 129 132 115 107 108 113 128 147 151 149 154 150 144 139 128 133 129 141 144 139 137 139 133 127 129 144 143 121 115 68 9 3 2 5 2 1 2 2 1 0 0 0 0 0 0 0 0 0 0 0 0 0 0 0 0 0 0 0 0 0 0 0 0 0 0 0 0 0 0 
0 0 0 0 0 0 0 0 0 0 1 7 7 9 14 69 124 151 150 118 108 97 99 111 119 116 119 124 121 122 126 131 133 130 125 127 125 123 123 120 113 105 97 94 94 92 95 101 110 100 89 89 92 107 96 83 89 97 107 119 120 117 113 114 119 132 146 147 146 147 142 143 147 149 146 148 150 154 161 156 151 149 146 154 165 140 112 110 53 7 3 3 3 2 1 2 2 1 0 0 0 0 0 0 0 0 0 0 0 0 0 0 0 0 0 0 0 0 0 0 0 0 0 0 0 0 0 0 
0 0 0 0 0 0 0 0 0 0 0 7 8 9 13 55 116 147 155 133 114 112 117 119 126 125 126 134 130 122 134 144 150 155 154 143 141 139 128 114 103 96 97 92 88 89 96 111 111 94 94 95 89 108 95 88 90 102 109 110 117 109 114 117 121 136 153 155 156 155 152 156 156 147 134 141 141 151 163 166 172 176 171 178 180 131 122 105 32 7 4 3 2 1 1 2 2 1 0 0 0 0 0 0 0 0 0 0 0 0 0 0 0 0 0 0 0 0 0 0 0 0 0 0 0 0 0 0 
0 0 0 0 0 0 0 0 0 0 0 8 10 8 9 37 110 144 153 148 136 147 137 136 141 141 141 137 131 130 139 153 157 161 158 147 151 147 135 115 108 105 100 93 92 92 106 114 100 90 93 97 96 118 101 88 85 95 104 104 112 112 111 117 120 124 136 144 151 156 151 148 143 133 135 135 140 148 160 169 173 180 185 181 162 124 121 86 16 6 5 3 2 1 1 2 2 1 0 0 0 0 0 0 0 0 0 0 0 0 0 0 0 0 0 0 0 0 0 0 0 0 0 0 0 0 0 0 
0 0 0 0 0 0 0 0 0 0 0 5 10 7 8 12 62 130 150 150 153 171 178 161 159 156 144 139 137 140 153 159 158 156 160 152 147 147 140 119 110 110 109 101 97 95 104 112 102 91 93 101 100 115 118 95 84 89 96 105 108 106 113 116 117 119 122 134 138 137 129 134 134 129 136 143 145 147 153 160 168 170 171 167 147 122 118 95 18 6 7 4 2 2 1 2 2 0 0 0 0 0 0 0 0 0 0 0 0 0 0 0 0 0 0 0 0 0 0 0 0 0 0 0 0 0 0 0 
0 0 0 0 0 0 0 0 0 0 0 6 9 5 6 10 37 117 152 152 157 173 174 172 168 165 160 152 137 130 141 152 160 159 161 157 152 153 138 113 106 110 111 107 101 100 111 109 103 96 96 103 105 120 118 100 85 82 88 98 104 102 101 113 117 118 123 131 135 125 122 123 118 127 137 144 141 142 141 147 156 170 159 141 121 123 120 64 8 5 7 5 2 2 1 2 2 0 0 0 0 0 0 0 0 0 0 0 0 0 0 0 0 0 0 0 0 0 0 0 0 0 0 0 0 0 0 0 
0 0 0 0 0 0 0 0 0 0 0 6 6 5 5 9 22 93 147 150 151 157 160 150 166 168 162 152 141 135 132 139 147 158 160 157 151 145 131 119 109 108 111 113 101 99 112 102 98 100 101 99 93 112 121 109 85 84 93 97 104 110 109 109 103 102 117 129 131 132 132 124 125 140 147 149 143 148 140 141 148 159 136 124 127 127 111 32 6 4 6 6 2 2 1 2 2 0 0 0 0 0 0 0 0 0 0 0 0 0 0 0 0 0 0 0 0 0 0 0 0 0 0 0 0 0 0 0 
0 0 0 0 0 0 0 0 0 0 0 5 4 4 4 8 17 63 137 150 145 139 149 149 142 151 152 146 142 144 134 129 135 141 144 148 145 138 130 123 106 104 104 101 100 104 116 101 106 113 109 102 95 102 119 121 95 93 99 96 105 118 120 124 110 92 95 104 110 116 125 122 125 144 153 157 154 151 143 142 135 138 133 119 120 121 79 16 7 6 7 4 3 2 1 2 2 0 0 0 0 0 0 0 0 0 0 0 0 0 0 0 0 0 0 0 0 0 0 0 0 0 0 0 0 0 0 0 
0 0 0 0 0 0 0 0 0 0 0 4 5 4 4 8 15 34 115 138 135 134 143 148 145 139 134 133 138 150 150 132 121 123 138 144 141 133 128 109 96 93 101 107 105 108 126 110 117 118 117 110 100 101 124 124 106 102 105 107 108 122 125 127 120 97 88 89 98 106 114 127 138 141 148 158 161 156 152 148 143 139 123 102 104 113 43 11 6 6 6 2 3 3 1 2 2 0 0 0 0 0 0 0 0 0 0 0 0 0 0 0 0 0 0 0 0 0 0 0 0 0 0 0 0 0 0 0 
0 0 0 0 0 0 0 0 0 0 1 3 5 4 3 9 15 18 83 124 125 131 138 146 140 138 135 131 133 148 153 140 120 116 133 143 143 138 119 97 86 97 103 108 108 113 124 123 122 121 129 129 115 112 138 132 116 107 114 117 113 127 128 128 123 107 89 86 96 112 118 134 133 131 142 151 160 163 175 165 148 126 109 87 96 87 21 11 6 7 5 2 3 3 1 2 1 0 0 0 0 0 0 0 0 0 0 0 0 0 0 0 0 0 0 0 0 0 0 0 0 0 0 0 0 0 0 0 
0 0 0 0 0 0 0 0 0 0 1 3 4 4 2 6 13 13 48 119 132 125 138 151 150 144 140 138 143 147 149 135 118 118 119 124 123 117 108 98 91 102 103 110 120 125 126 130 134 136 143 145 149 153 153 141 138 140 133 130 129 142 142 136 127 110 93 92 105 123 117 114 127 123 135 149 162 172 181 171 138 115 97 90 104 58 13 12 7 7 6 2 2 3 1 2 1 0 0 0 0 0 0 0 0 0 0 0 0 0 0 0 0 0 0 0 0 0 0 0 0 0 0 0 0 0 0 0 
0 0 0 0 0 0 0 0 0 0 1 3 5 4 2 5 11 14 26 103 126 114 125 135 158 157 155 146 149 148 150 142 131 126 115 118 110 96 92 105 107 112 113 118 130 140 139 141 149 152 152 155 164 172 175 167 159 154 145 143 148 162 165 154 136 125 121 118 122 126 112 113 125 122 125 149 159 177 174 163 129 105 86 87 99 32 11 12 6 6 5 2 2 3 1 2 1 0 0 0 0 0 0 0 0 0 0 0 0 0 0 0 0 0 0 0 0 0 0 0 0 0 0 0 0 0 0 0 
0 0 0 0 0 0 0 0 0 0 1 3 5 3 2 5 11 13 15 69 119 120 112 122 150 164 162 155 149 146 150 148 135 130 122 119 113 104 102 109 136 133 131 131 137 148 153 151 152 144 143 146 147 148 153 156 153 146 138 140 146 162 171 167 152 145 143 138 143 120 106 107 115 120 116 142 157 178 163 148 129 115 96 101 82 19 9 9 6 5 5 2 3 3 2 2 1 0 0 0 0 0 0 0 0 0 0 0 0 0 0 0 0 0 0 0 0 0 0 0 0 0 0 0 0 0 0 0 
0 0 0 0 0 0 0 0 0 0 1 4 6 3 2 5 9 10 12 41 95 114 114 116 136 157 164 163 150 146 145 148 139 129 119 120 119 120 125 131 138 154 157 150 153 153 155 160 153 148 143 148 146 151 148 149 149 150 141 144 147 157 171 169 170 164 154 157 148 114 99 98 106 118 124 141 159 173 154 130 112 103 109 100 67 16 9 8 6 4 4 3 3 3 2 2 1 0 0 0 0 0 0 0 0 0 0 0 0 0 0 0 0 0 0 0 0 0 0 0 0 0 0 0 0 0 0 0 
0 0 0 0 0 0 0 0 0 0 1 5 13 9 3 4 8 9 11 29 82 115 122 110 121 139 160 164 155 140 140 141 135 123 111 111 113 117 123 131 140 157 169 170 165 162 163 161 154 151 149 158 159 159 153 146 150 153 139 140 142 150 160 167 171 165 157 159 148 111 90 96 112 125 145 156 162 167 150 128 98 87 98 99 59 16 8 6 6 4 3 3 4 3 2 2 1 0 0 0 0 0 0 0 0 0 0 0 0 0 0 0 0 0 0 0 0 0 0 0 0 0 0 0 0 0 0 0 
0 0 0 0 0 0 0 0 0 0 0 4 12 13 9 7 8 10 13 21 66 102 119 116 114 119 148 152 165 142 130 130 134 111 102 104 107 113 118 120 129 147 164 168 168 164 168 164 160 159 158 166 166 163 157 136 137 143 131 128 134 146 148 167 174 171 167 163 149 111 94 97 108 121 161 176 177 174 155 107 88 86 99 93 39 16 5 4 6 4 3 4 4 4 3 2 1 0 0 0 0 0 0 0 0 0 0 0 0 0 0 0 0 0 0 0 0 0 0 0 0 0 0 0 0 0 0 0 
0 0 0 0 0 0 0 0 0 0 0 3 11 11 9 8 9 12 16 16 34 86 117 116 103 114 139 153 167 150 141 132 134 112 94 100 106 110 110 110 116 142 162 163 163 161 158 155 156 157 161 173 167 164 143 119 119 128 129 126 133 151 154 166 182 178 170 163 147 118 98 99 111 135 165 167 175 161 144 97 79 80 80 64 20 14 8 5 5 5 5 6 7 4 3 2 1 0 0 0 0 0 0 0 0 0 0 0 0 0 0 0 0 0 0 0 0 0 0 0 0 0 0 0 0 0 0 0 
0 0 0 0 0 0 0 0 0 0 0 2 11 10 9 9 9 10 13 15 17 50 108 110 109 109 126 152 167 167 157 141 130 124 104 94 95 97 99 107 125 147 157 159 157 154 151 147 147 143 155 155 144 162 156 131 126 131 129 124 142 161 153 172 177 177 171 169 164 132 123 120 136 148 149 148 128 108 106 77 66 87 92 36 12 9 9 7 5 6 6 7 12 6 2 1 1 0 0 0 0 0 0 0 0 0 0 0 0 0 0 0 0 0 0 0 0 0 0 0 0 0 0 0 0 0 0 0 
0 0 0 0 0 0 0 0 0 0 0 0 9 11 6 6 6 5 9 15 20 28 71 99 94 91 113 147 155 168 167 149 134 134 120 104 103 107 114 134 140 166 179 172 172 166 162 167 172 171 170 159 161 179 182 166 156 159 159 154 162 168 180 186 176 175 169 179 172 168 147 144 143 140 116 96 90 89 93 76 95 98 53 18 10 2 2 4 5 5 5 7 9 5 1 1 1 0 0 0 0 0 0 0 0 0 0 0 0 0 0 0 0 0 0 0 0 0 0 0 0 0 0 0 0 0 0 0 
0 0 0 0 0 0 0 0 0 0 0 0 3 7 5 3 3 3 5 11 17 21 37 82 87 75 91 105 103 143 149 151 144 141 130 112 114 121 131 142 169 183 188 189 193 198 190 198 191 181 180 182 180 178 178 169 167 175 179 181 186 190 203 204 198 206 187 191 149 144 150 142 107 87 77 84 84 83 86 74 72 47 29 22 13 2 0 1 2 3 4 7 7 1 1 1 1 0 0 0 0 0 0 0 0 0 0 0 0 0 0 0 0 0 0 0 0 0 0 0 0 0 0 0 0 0 0 0 
0 0 0 0 0 0 0 0 0 0 0 0 0 3 3 2 1 0 1 7 14 20 25 45 80 84 66 56 67 77 96 110 135 137 129 125 119 132 149 169 176 174 180 182 188 195 189 186 184 172 164 170 170 166 162 160 158 160 164 169 170 190 201 183 171 187 179 172 158 140 125 106 89 79 75 90 92 89 70 48 41 39 36 26 18 0 0 1 1 1 2 7 7 1 1 1 1 0 0 0 0 0 0 0 0 0 0 0 0 0 0 0 0 0 0 0 0 0 0 0 0 0 0 0 0 0 0 0 
0 0 0 0 0 0 0 0 0 0 0 0 0 2 5 4 4 3 2 4 10 14 19 22 36 51 36 43 68 63 64 62 81 85 81 93 83 74 76 76 91 120 142 149 139 137 136 120 129 105 97 110 117 118 114 110 96 91 106 102 98 114 102 139 132 156 126 83 64 64 58 66 63 55 56 78 83 83 50 29 28 26 19 7 3 1 3 3 2 2 2 8 5 1 1 1 1 0 0 0 0 0 0 0 0 0 0 0 0 0 0 0 0 0 0 0 0 0 0 0 0 0 0 0 0 0 0 0 
0 0 0 0 0 0 0 0 0 0 0 0 0 0 3 3 3 3 2 1 6 10 13 16 22 22 23 33 67 65 61 62 63 65 62 66 70 61 67 70 82 88 83 82 90 95 82 71 77 79 60 74 90 91 90 89 73 61 74 74 83 100 87 80 77 94 91 99 106 101 65 63 62 55 56 76 84 81 48 29 28 25 16 6 3 1 2 2 2 2 3 5 2 0 1 1 1 0 0 0 0 0 0 0 0 0 0 0 0 0 0 0 0 0 0 0 0 0 0 0 0 0 0 0 0 0 0 0 
0 0 0 0 0 0 0 0 0 0 0 0 0 0 0 0 0 1 0 0 3 9 10 15 20 26 28 36 69 75 65 65 68 70 67 66 77 94 121 128 139 141 109 101 103 104 96 99 105 90 76 91 97 98 97 94 88 78 96 108 107 116 102 94 118 143 105 90 106 94 88 87 79 74 75 87 92 83 49 33 29 24 14 9 1 0 0 0 1 1 1 1 0 0 1 1 1 0 0 0 0 0 0 0 0 0 0 0 0 0 0 0 0 0 0 0 0 0 0 0 0 0 0 0 0 0 0 0 
0 0 0 0 0 0 0 0 0 0 0 0 0 0 0 0 0 0 0 0 0 4 4 8 15 29 34 45 75 88 79 74 79 86 86 89 102 119 124 143 157 170 158 136 142 161 160 160 146 124 117 124 123 122 119 124 121 114 120 140 147 153 146 151 157 163 130 132 109 126 118 111 96 87 84 86 83 78 51 37 25 17 9 8 1 0 0 0 0 0 0 0 0 0 0 1 1 0 0 0 0 0 0 0 0 0 0 0 0 0 0 0 0 0 0 0 0 0 0 0 0 0 0 0 0 0 0 0 
0 0 0 0 0 0 0 0 0 0 0 0 0 0 0 0 0 0 0 0 0 2 3 5 9 23 29 38 62 79 73 73 84 92 97 96 101 113 125 117 162 171 171 161 173 177 173 182 161 166 166 159 162 164 163 158 157 153 154 155 154 170 168 161 164 158 154 130 145 150 127 129 101 78 60 70 77 57 32 24 17 10 6 2 0 0 0 0 0 0 0 0 0 0 0 1 0 0 0 0 0 0 0 0 0 0 0 0 0 0 0 0 0 0 0 0 0 0 0 0 0 0 0 0 0 0 0 0 
0 0 0 0 0 0 0 0 0 0 0 0 0 0 0 0 0 0 0 0 0 0 2 3 8 17 28 36 53 76 76 71 74 76 75 71 78 94 105 107 128 129 121 107 127 137 155 170 163 154 145 137 141 136 140 132 137 135 134 132 140 147 129 136 136 127 135 141 151 153 114 71 50 50 61 82 80 47 25 22 13 8 6 1 0 1 1 1 1 1 1 1 1 2 3 3 2 2 0 0 0 0 0 0 0 0 0 0 0 0 0 0 0 0 0 0 0 0 0 0 0 0 0 0 0 0 0 0 
0 0 0 0 0 0 0 0 0 0 0 0 0 0 0 0 0 0 0 0 0 0 4 7 9 15 20 22 33 55 68 67 65 66 58 56 55 71 94 116 113 114 109 95 101 117 133 136 124 123 117 97 108 100 104 93 104 107 106 108 113 130 128 105 118 128 137 122 133 121 99 68 53 55 72 101 86 46 24 18 17 13 7 1 0 0 0 1 1 0 0 1 1 1 2 2 1 0 0 0 0 0 0 0 0 0 0 0 0 0 0 0 0 0 0 0 0 0 0 0 0 0 0 0 0 0 0 0 
0 0 0 0 0 0 0 0 0 0 0 0 0 0 0 0 0 0 0 0 0 0 2 6 9 13 19 21 25 45 63 75 73 70 58 51 53 66 87 102 100 101 101 103 110 125 133 131 119 115 108 88 94 93 95 90 103 111 115 109 106 116 108 94 86 106 124 128 125 108 93 68 55 59 82 108 88 49 25 19 18 12 7 1 0 0 0 1 1 0 0 1 1 1 2 2 1 0 0 0 0 0 0 0 0 0 0 0 0 0 0 0 0 0 0 0 0 0 0 0 0 0 0 0 0 0 0 0 
0 0 0 0 0 0 0 0 0 0 0 0 0 0 0 0 0 0 0 0 0 0 1 4 9 10 16 21 23 39 58 76 78 72 62 53 49 58 74 97 93 86 90 93 101 112 121 131 128 117 112 99 102 100 98 92 104 103 117 121 115 123 121 108 102 98 111 118 109 96 79 61 55 64 90 112 87 51 25 19 17 11 6 0 0 0 0 1 1 0 0 1 1 1 2 2 1 0 0 0 0 0 0 0 0 0 0 0 0 0 0 0 0 0 0 0 0 0 0 0 0 0 0 0 0 0 0 0 
0 0 0 0 0 0 0 0 0 0 0 0 0 0 0 0 0 0 0 0 0 0 0 3 6 9 13 19 22 33 50 70 78 75 68 57 52 56 59 66 73 79 87 92 99 107 114 121 137 128 118 108 106 104 98 95 101 99 109 119 122 143 133 111 103 95 100 108 110 100 80 64 59 67 96 114 83 52 26 18 15 11 4 0 0 0 0 1 1 0 0 1 1 1 2 2 1 0 0 0 0 0 0 0 0 0 0 0 0 0 0 0 0 0 0 0 0 0 0 0 0 0 0 0 0 0 0 0 
0 0 0 0 0 0 0 0 0 0 0 0 0 0 0 0 0 0 0 0 0 0 0 0 5 8 11 16 20 28 45 62 81 79 71 64 57 52 53 59 66 74 87 93 102 105 105 111 127 119 115 107 102 102 95 95 98 100 106 113 121 127 121 107 103 103 99 93 96 96 82 72 66 72 96 109 81 52 26 17 15 9 2 0 0 0 0 1 1 1 1 1 1 1 2 2 1 0 0 0 0 0 0 0 0 0 0 0 0 0 0 0 0 0 0 0 0 0 0 0 0 0 0 0 0 0 0 0 
0 0 0 0 0 0 0 0 0 0 0 0 0 0 0 0 0 0 0 0 0 0 0 0 2 5 9 13 18 25 43 55 79 78 76 71 63 56 54 58 64 70 85 99 107 104 97 96 103 108 114 105 98 98 96 94 96 102 107 106 115 112 110 103 107 108 104 88 78 75 68 69 71 81 98 106 79 45 20 16 15 8 1 0 0 0 0 0 1 1 0 1 1 1 2 2 1 0 0 0 0 0 0 0 0 0 0 0 0 0 0 0 0 0 0 0 0 0 0 0 0 0 0 0 0 0 0 0 
0 0 0 0 0 0 0 0 0 0 0 0 0 0 0 0 0 0 0 0 0 0 0 0 0 4 6 12 15 19 33 53 68 73 79 76 67 60 55 54 60 69 84 94 100 99 96 89 89 97 110 101 92 92 93 97 97 101 100 103 109 108 101 92 96 98 97 85 74 66 62 71 79 86 102 88 48 23 17 16 16 8 1 0 1 0 0 1 1 1 0 1 1 1 2 2 1 0 0 0 0 0 0 0 0 0 0 0 0 0 0 0 0 0 0 0 0 0 0 0 0 0 0 0 0 0 0 0 
0 0 0 0 0 0 0 0 0 0 0 0 0 0 0 0 0 0 0 0 0 0 0 0 0 3 4 8 14 18 21 32 41 46 73 80 70 65 58 52 56 67 78 81 91 94 94 88 87 96 113 105 96 95 98 99 99 100 100 100 102 98 94 89 91 90 86 77 74 65 61 73 82 92 100 44 18 17 18 18 16 8 1 0 0 0 0 0 1 1 0 0 1 1 2 2 0 0 0 0 0 0 0 0 0 0 0 0 0 0 0 0 0 0 0 0 0 0 0 0 0 0 0 0 0 0 0 0 
0 0 0 0 0 0 0 0 0 0 0 0 0 0 0 0 0 0 0 0 0 0 0 0 0 0 5 4 12 17 19 20 18 17 32 78 79 73 66 62 59 61 69 72 79 82 88 88 90 100 101 101 95 92 88 93 104 101 95 93 99 97 97 89 86 84 73 71 72 68 71 81 88 97 71 23 15 15 17 18 14 6 1 0 0 0 0 1 1 1 0 0 1 1 2 2 0 0 0 0 0 0 0 0 0 0 0 0 0 0 0 0 0 0 0 0 0 0 0 0 0 0 0 0 0 0 0 0 
0 0 0 0 0 0 0 0 0 0 0 0 0 0 0 0 0 0 0 0 0 0 0 0 0 0 2 5 8 13 18 18 18 18 13 38 77 81 75 69 67 66 68 73 80 78 81 88 101 104 96 97 99 96 92 93 103 105 95 91 98 101 106 97 91 84 80 79 76 76 82 89 91 78 35 19 14 15 17 17 12 6 1 0 0 0 0 0 1 1 0 0 1 1 2 1 0 0 0 0 0 0 0 0 0 0 0 0 0 0 0 0 0 0 0 0 0 0 0 0 0 0 0 0 0 0 0 0 
0 0 0 0 0 0 0 0 0 0 0 0 0 0 0 0 0 0 0 0 0 0 0 0 0 0 0 3 7 9 16 18 17 18 14 13 37 71 82 81 76 73 75 80 88 89 87 87 95 102 97 99 100 97 96 104 113 112 108 104 105 111 107 97 94 89 87 88 86 90 94 94 76 37 24 17 13 16 17 15 11 6 1 0 0 0 0 0 1 1 0 0 1 1 2 2 0 0 0 0 0 0 0 0 0 0 0 0 0 0 0 0 0 0 0 0 0 0 0 0 0 0 0 0 0 0 0 0 
0 0 0 0 0 0 0 0 0 0 0 0 0 0 0 0 0 0 0 0 0 0 0 0 0 0 0 2 5 7 12 17 18 18 14 13 17 33 63 80 84 87 86 87 99 100 92 89 90 103 102 98 99 97 97 107 110 110 111 108 101 103 106 102 98 99 101 100 97 95 92 72 36 26 23 17 14 16 16 14 10 5 1 0 1 0 0 0 1 1 0 0 1 1 2 2 0 0 0 0 0 0 0 0 0 0 0 0 0 0 0 0 0 0 0 0 0 0 0 0 0 0 0 0 0 0 0 0 
0 0 0 0 0 0 0 0 0 0 0 0 0 0 0 0 0 0 0 0 0 0 0 0 0 0 0 1 4 7 9 15 17 19 15 12 16 22 29 52 75 88 94 98 106 110 102 98 101 109 102 95 95 102 106 110 112 108 114 116 108 104 114 109 107 108 110 108 100 87 61 34 28 26 22 17 15 15 15 13 10 5 1 0 0 0 0 0 1 1 0 0 1 1 2 1 0 0 0 0 0 0 0 0 0 0 0 0 0 0 0 0 0 0 0 0 0 0 0 0 0 0 0 0 0 0 0 0 
0 0 0 0 0 0 0 0 0 0 0 0 0 0 0 0 0 0 0 0 0 0 0 0 0 0 0 0 1 7 7 13 16 18 15 12 13 21 25 29 38 61 83 94 107 113 109 106 107 108 108 102 104 104 101 103 105 108 113 115 113 106 114 117 113 110 111 104 82 50 31 29 28 24 21 16 14 14 14 12 9 5 1 0 0 0 0 0 1 1 0 0 1 1 1 1 0 0 0 0 0 0 0 0 0 0 0 0 0 0 0 0 0 0 0 0 0 0 0 0 0 0 0 0 0 0 0 0 
0 0 0 0 0 0 0 0 0 0 0 0 0 0 0 0 0 0 0 0 0 0 0 0 0 0 0 0 0 7 6 11 14 18 15 12 12 20 26 29 31 33 41 60 85 98 100 101 101 106 112 111 108 102 98 100 100 106 115 108 110 114 118 115 110 101 87 62 43 37 29 28 26 23 18 16 13 15 14 12 9 4 1 0 0 0 0 0 1 1 0 0 1 1 2 1 0 0 0 0 0 0 0 0 0 0 0 0 0 0 0 0 0 0 0 0 0 0 0 0 0 0 0 0 0 0 0 0 
0 0 0 0 0 0 0 0 0 0 0 0 0 0 0 0 0 0 0 0 0 0 0 0 0 0 0 0 0 4 6 9 13 17 16 13 12 19 25 28 31 33 32 38 50 68 81 88 91 94 105 108 104 102 103 104 105 106 116 113 115 107 106 100 90 71 53 47 41 36 28 28 26 23 17 14 15 15 14 13 9 3 1 0 0 0 0 0 0 1 0 0 1 1 1 1 0 0 0 0 0 0 0 0 0 0 0 0 0 0 0 0 0 0 0 0 0 0 0 0 0 0 0 0 0 0 0 0 
