P2
128 99
253
0 0 0 0 0 0 0 0 0 0 0 0 0 0 0 0 0 0 0 0 0 0 0 0 0 0 0 0 0 0 0 0 0 0 0 0 0 0 0 0 0 0 0 0 0 0 0 0 0 0 0 0 0 0 0 0 0 0 0 0 0 0 0 0 0 0 0 0 0 0 0 0 0 0 0 0 0 0 0 0 0 0 0 0 0 0 0 0 0 0 0 0 0 0 0 0 0 0 0 0 0 0 0 0 0 0 0 0 0 0 0 0 0 0 0 0 0 0 0 0 0 0 0 0 0 0 0 0 
0 0 0 0 0 0 0 0 0 0 0 0 0 0 0 0 0 0 0 0 0 0 0 0 0 0 0 0 0 0 0 0 0 0 0 0 0 0 0 0 0 0 0 0 0 0 0 0 0 0 0 0 0 0 0 0 0 0 0 0 0 0 0 0 0 0 0 0 0 0 0 0 0 0 0 0 0 0 0 0 0 0 0 0 0 0 0 0 0 0 0 0 0 0 0 0 0 0 0 0 0 0 0 0 0 0 0 0 0 0 0 0 0 0 0 0 0 0 0 0 0 0 0 0 0 0 0 0 
0 0 0 0 0 0 0 0 0 0 0 0 0 0 0 0 0 0 0 0 0 0 0 0 0 0 0 0 0 0 0 0 0 0 0 0 0 0 0 0 0 0 0 0 0 0 0 0 0 0 0 0 0 0 0 0 0 0 0 0 0 0 0 0 0 0 0 0 0 0 0 0 0 0 0 0 0 0 0 0 0 0 0 0 0 0 0 0 0 0 0 0 0 0 0 0 0 0 0 0 0 0 0 0 0 0 0 0 0 0 0 0 0 0 0 0 0 0 0 0 0 0 0 0 0 0 0 0 
0 0 0 0 0 0 0 0 0 0 0 0 0 0 0 0 0 0 0 0 0 0 0 0 0 0 0 0 0 0 0 0 0 0 0 0 0 0 0 0 0 0 0 0 0 1 21 29 24 18 12 12 13 23 24 17 11 7 8 9 4 0 0 0 0 0 0 0 0 0 0 0 0 0 0 0 0 0 0 0 0 0 0 0 0 0 0 0 0 0 0 0 0 0 0 0 0 0 0 0 0 0 0 0 0 0 0 0 0 0 0 0 0 0 0 0 0 0 0 0 0 0 0 0 0 0 0 0 
0 0 0 0 0 0 0 0 0 0 0 0 0 0 0 0 0 0 0 0 0 0 0 0 0 0 0 0 0 0 0 0 0 0 0 0 0 0 0 0 0 1 18 33 26 22 44 78 102 122 142 132 138 141 123 118 106 85 61 48 31 10 10 10 1 0 0 0 0 0 0 0 0 0 0 0 0 0 0 0 0 0 0 0 0 0 0 0 0 0 0 0 0 0 0 0 0 0 0 0 0 0 0 0 0 0 0 0 0 0 0 0 0 0 0 0 0 0 0 0 0 0 0 0 0 0 0 0 
0 0 0 0 0 0 0 0 0 0 0 0 0 0 0 0 0 0 0 0 0 0 0 0 0 0 0 0 0 0 0 0 0 0 0 0 0 0 0 7 31 25 21 65 116 154 165 177 191 203 193 195 189 197 194 196 195 192 190 166 143 120 69 49 16 9 9 0 0 0 0 0 0 0 0 0 0 0 0 0 0 0 0 0 0 0 0 0 0 0 0 0 0 0 0 0 0 0 0 0 0 0 0 0 0 0 0 0 0 0 0 0 0 0 0 0 0 0 0 0 0 0 0 0 0 0 0 0 
0 0 0 0 0 0 0 0 0 0 0 0 0 0 0 0 0 0 0 0 0 0 0 0 0 0 0 0 0 0 0 0 0 0 0 0 0 19 32 24 44 106 159 184 178 196 175 145 199 206 205 205 206 206 205 205 204 200 166 142 195 190 174 148 125 76 45 11 12 3 0 0 0 0 0 0 0 0 0 0 0 0 0 0 0 0 0 0 0 0 0 0 0 0 0 0 0 0 0 0 0 0 0 0 0 0 0 0 0 0 0 0 0 0 0 0 0 0 0 0 0 0 0 0 0 0 0 0 
0 0 0 0 0 0 0 0 0 0 0 0 0 0 0 0 0 0 0 0 0 0 0 0 0 0 0 0 0 0 0 0 0 0 0 19 29 17 44 130 175 182 196 177 148 176 208 193 164 164 184 190 183 169 178 182 199 196 154 205 201 197 139 147 192 175 143 100 50 22 11 1 0 0 0 0 0 0 0 0 0 0 0 0 0 0 0 0 0 0 0 0 0 0 0 0 0 0 0 0 0 0 0 0 0 0 0 0 0 0 0 0 0 0 0 0 0 0 0 0 0 0 0 0 0 0 0 0 
0 0 0 0 0 0 0 0 0 0 0 0 0 0 0 0 0 0 0 0 0 0 0 0 0 0 0 0 0 0 0 0 0 18 28 15 41 136 174 180 197 144 134 160 187 131 172 160 150 108 171 165 163 156 157 164 110 180 200 205 201 199 143 198 196 143 194 193 156 98 47 27 9 0 0 0 0 0 0 0 0 0 0 0 0 0 0 0 0 0 0 0 0 0 0 0 0 0 0 0 0 0 0 0 0 0 0 0 0 0 0 0 0 0 0 0 0 0 0 0 0 0 0 0 0 0 0 0 
0 0 0 0 0 0 0 0 0 0 0 0 0 0 0 0 0 0 0 0 0 0 0 0 0 0 0 0 0 0 0 1 28 19 11 117 169 177 185 147 134 193 169 168 166 159 208 147 131 128 136 145 148 146 153 154 156 155 164 154 217 213 205 207 179 166 197 196 194 196 142 75 35 20 0 0 0 0 0 0 0 0 0 0 0 0 0 0 0 0 0 0 0 0 0 0 0 0 0 0 0 0 0 0 0 0 0 0 0 0 0 0 0 0 0 0 0 0 0 0 0 0 0 0 0 0 0 0 
0 0 0 0 0 0 0 0 0 0 0 0 0 0 0 0 0 0 0 0 0 0 0 0 0 0 0 0 0 0 16 21 13 59 165 187 187 142 161 195 151 198 173 161 161 167 142 136 132 126 131 138 141 141 145 142 141 144 155 169 178 171 223 225 213 205 203 154 198 199 195 177 113 41 30 4 0 0 0 0 0 0 0 0 0 0 0 0 0 0 0 0 0 0 0 0 0 0 0 0 0 0 0 0 0 0 0 0 0 0 0 0 0 0 0 0 0 0 0 0 0 0 0 0 0 0 0 0 
0 0 0 0 0 0 0 0 0 0 0 0 0 0 0 0 0 0 0 0 0 0 0 0 0 0 0 0 0 25 15 13 138 184 190 189 189 201 171 209 182 173 179 160 160 149 151 146 141 141 134 100 94 106 140 141 141 139 142 149 159 173 165 206 214 225 214 201 206 187 205 201 192 144 54 26 10 0 0 0 0 0 0 0 0 0 0 0 0 0 0 0 0 0 0 0 0 0 0 0 0 0 0 0 0 0 0 0 0 0 0 0 0 0 0 0 0 0 0 0 0 0 0 0 0 0 0 0 
0 0 0 0 0 0 0 0 0 0 0 0 0 0 0 0 0 0 0 0 0 0 0 0 0 0 0 0 16 26 40 165 187 193 195 210 172 212 194 177 173 169 157 45 36 50 107 135 133 131 92 96 94 80 118 59 40 40 44 69 148 155 165 175 155 181 245 224 218 206 196 177 200 192 157 67 26 5 0 0 0 0 0 0 0 0 0 0 0 0 0 0 0 0 0 0 0 0 0 0 0 0 0 0 0 0 0 0 0 0 0 0 0 0 0 0 0 0 0 0 0 0 0 0 0 0 0 0 
0 0 0 0 0 0 0 0 0 0 0 0 0 0 0 0 0 0 0 0 0 0 0 0 0 0 0 15 54 80 175 185 195 214 185 204 205 191 170 170 171 106 32 30 28 28 31 36 58 84 99 78 93 58 52 40 33 32 29 31 57 172 176 160 164 177 143 170 238 226 213 197 136 188 190 167 77 25 1 0 0 0 0 0 0 0 0 0 0 0 0 0 0 0 0 0 0 0 0 0 0 0 0 0 0 0 0 0 0 0 0 0 0 0 0 0 0 0 0 0 0 0 0 0 0 0 0 0 
0 0 0 0 0 0 0 0 0 0 0 0 0 0 0 0 0 0 0 0 0 0 0 0 0 0 15 45 80 177 182 203 224 205 212 197 169 156 167 162 96 26 23 25 26 28 35 49 53 54 53 53 54 51 49 48 43 30 29 29 31 49 167 156 161 171 164 173 140 165 234 221 204 153 192 193 176 93 26 0 0 0 0 0 0 0 0 0 0 0 0 0 0 0 0 0 0 0 0 0 0 0 0 0 0 0 0 0 0 0 0 0 0 0 0 0 0 0 0 0 0 0 0 0 0 0 0 0 
0 0 0 0 0 0 0 0 0 0 0 0 0 0 0 0 0 0 0 0 0 0 0 0 0 16 43 87 174 184 207 208 176 191 177 153 167 168 160 41 25 24 26 28 29 36 46 48 52 54 53 54 50 46 46 46 48 45 38 35 34 36 44 172 192 151 162 151 158 169 190 134 233 204 170 195 198 172 114 31 0 0 0 0 0 0 0 0 0 0 0 0 0 0 0 0 0 0 0 0 0 0 0 0 0 0 0 0 0 0 0 0 0 0 0 0 0 0 0 0 0 0 0 0 0 0 0 0 
0 0 0 0 0 0 0 0 0 0 0 0 0 0 0 0 0 0 0 0 0 0 0 0 13 42 156 172 182 207 217 198 185 156 158 156 159 119 34 24 24 28 28 30 34 45 42 47 45 45 49 49 47 46 46 45 46 48 45 44 44 44 39 47 121 174 154 147 179 156 158 173 153 182 207 158 195 198 179 127 34 0 0 0 0 0 0 0 0 0 0 0 0 0 0 0 0 0 0 0 0 0 0 0 0 0 0 0 0 0 0 0 0 0 0 0 0 0 0 0 0 0 0 0 0 0 0 0 
0 0 0 0 0 0 0 0 0 0 0 0 0 0 0 0 0 0 0 0 0 0 0 18 47 162 170 192 211 182 182 160 130 148 157 169 161 37 29 28 31 30 29 37 43 48 44 44 47 45 48 49 44 45 49 46 44 45 45 44 43 42 41 43 49 80 154 170 139 136 153 152 115 197 181 207 160 197 199 178 139 29 0 0 0 0 0 0 0 0 0 0 0 0 0 0 0 0 0 0 0 0 0 0 0 0 0 0 0 0 0 0 0 0 0 0 0 0 0 0 0 0 0 0 0 0 0 0 
0 0 0 0 0 0 0 0 0 0 0 0 0 0 0 0 0 0 0 0 0 0 21 45 94 169 186 205 188 182 161 136 150 156 156 155 37 28 35 35 37 43 43 43 46 44 45 48 48 45 44 47 46 45 47 45 42 44 47 45 47 44 44 43 42 44 54 114 169 141 132 132 145 152 179 224 162 186 196 190 169 128 4 0 0 0 0 0 0 0 0 0 0 0 0 0 0 0 0 0 0 0 0 0 0 0 0 0 0 0 0 0 0 0 0 0 0 0 0 0 0 0 0 0 0 0 0 0 
0 0 0 0 0 0 0 0 0 0 0 0 0 0 0 0 0 0 0 0 0 12 44 91 165 183 198 217 163 136 132 145 154 154 152 43 40 44 43 45 44 42 42 45 44 49 50 46 49 47 51 56 63 65 62 57 50 48 47 45 45 45 44 43 42 47 44 47 103 159 136 132 131 139 150 165 208 155 182 196 189 171 116 0 0 0 0 0 0 0 0 0 0 0 0 0 0 0 0 0 0 0 0 0 0 0 0 0 0 0 0 0 0 0 0 0 0 0 0 0 0 0 0 0 0 0 0 0 
0 0 0 0 0 0 0 0 0 0 0 0 0 0 0 0 0 0 0 0 2 44 89 170 177 195 215 123 158 132 144 152 149 148 45 43 43 45 43 46 42 47 46 45 43 47 54 61 57 66 68 76 89 71 77 89 89 83 73 63 48 44 46 46 45 46 45 41 45 70 146 141 128 126 135 142 168 159 218 200 191 183 164 6 0 0 0 0 0 0 0 0 0 0 0 0 0 0 0 0 0 0 0 0 0 0 0 0 0 0 0 0 0 0 0 0 0 0 0 0 0 0 0 0 0 0 0 0 
0 0 0 0 0 0 0 0 0 0 0 0 0 0 0 0 0 0 0 0 69 147 155 189 186 204 140 152 127 145 150 145 171 50 44 44 47 44 47 44 45 44 43 44 55 76 58 61 68 66 64 65 77 77 94 80 67 62 55 58 77 67 42 47 45 44 45 45 45 45 58 139 135 130 137 135 140 153 190 176 195 192 184 151 0 0 0 0 0 0 0 0 0 0 0 0 0 0 0 0 0 0 0 0 0 0 0 0 0 0 0 0 0 0 0 0 0 0 0 0 0 0 0 0 0 0 0 0 
0 0 0 0 0 0 0 0 0 0 0 0 0 0 0 0 0 0 0 24 140 93 171 184 198 119 151 135 145 143 141 141 67 45 47 43 46 46 46 50 47 47 51 80 62 71 96 98 89 89 85 93 97 100 98 93 96 93 89 87 75 65 66 50 49 46 45 46 48 44 44 56 116 133 141 135 139 129 156 166 213 197 185 177 72 0 0 0 0 0 0 0 0 0 0 0 0 0 0 0 0 0 0 0 0 0 0 0 0 0 0 0 0 0 0 0 0 0 0 0 0 0 0 0 0 0 0 0 
0 0 0 0 0 0 0 0 0 0 0 0 0 0 0 0 0 0 7 82 155 157 180 200 146 159 133 135 141 142 144 72 45 43 42 43 45 45 48 45 46 58 62 74 82 93 92 95 91 92 98 95 98 99 94 97 97 92 89 87 86 82 64 69 54 46 46 45 45 43 46 45 52 114 132 128 140 135 140 151 200 205 189 178 89 0 0 0 0 0 0 0 0 0 0 0 0 0 0 0 0 0 0 0 0 0 0 0 0 0 0 0 0 0 0 0 0 0 0 0 0 0 0 0 0 0 0 0 
0 0 0 0 0 0 0 0 0 0 0 0 0 0 0 0 0 0 17 83 161 172 185 185 130 140 124 143 142 139 96 38 44 42 42 44 46 48 50 46 64 72 80 89 90 89 88 89 94 94 97 98 96 98 99 99 99 94 93 91 90 88 84 65 70 50 46 47 44 45 44 44 46 54 133 130 144 128 128 134 141 208 198 175 169 1 0 0 0 0 0 0 0 0 0 0 0 0 0 0 0 0 0 0 0 0 0 0 0 0 0 0 0 0 0 0 0 0 0 0 0 0 0 0 0 0 0 0 
0 0 0 0 0 0 0 0 0 0 0 0 0 0 0 0 0 2 18 90 153 183 187 134 150 119 135 138 142 113 45 44 40 42 42 45 44 46 48 60 76 85 90 92 89 91 95 98 92 92 89 99 106 108 106 106 101 102 108 100 92 92 87 81 71 64 47 45 45 49 45 43 45 45 56 137 141 141 130 121 174 186 200 185 173 81 0 0 0 0 0 0 0 0 0 0 0 0 0 0 0 0 0 0 0 0 0 0 0 0 0 0 0 0 0 0 0 0 0 0 0 0 0 0 0 0 0 0 
0 0 0 0 0 0 0 0 0 0 0 0 0 0 0 0 0 5 81 101 172 175 166 175 130 124 137 138 101 40 40 41 46 45 44 45 44 49 65 71 84 96 103 101 107 108 103 107 104 107 113 114 112 110 98 101 106 107 105 100 100 106 100 90 81 72 67 46 44 46 44 44 44 41 44 60 156 134 139 126 176 146 189 178 166 164 0 0 0 0 0 0 0 0 0 0 0 0 0 0 0 0 0 0 0 0 0 0 0 0 0 0 0 0 0 0 0 0 0 0 0 0 0 0 0 0 0 0 
0 0 0 0 0 0 0 0 0 0 0 0 0 0 0 0 0 13 26 141 182 158 149 109 125 133 136 61 36 42 42 39 45 45 45 46 45 61 81 100 102 100 103 98 99 104 108 111 112 107 111 114 111 103 89 90 96 102 106 103 100 103 102 106 98 84 70 67 49 48 48 44 45 38 40 44 44 104 124 124 129 118 178 181 176 168 1 0 0 0 0 0 0 0 0 0 0 0 0 0 0 0 0 0 0 0 0 0 0 0 0 0 0 0 0 0 0 0 0 0 0 0 0 0 0 0 0 0 
0 0 0 0 0 0 0 0 0 0 0 0 0 0 0 0 0 17 120 180 170 149 144 91 125 127 97 36 37 41 43 41 45 43 46 48 66 92 102 101 102 102 98 100 101 106 108 109 106 101 99 98 101 101 101 96 96 98 95 102 103 101 101 102 105 102 82 62 63 49 46 45 45 44 45 40 34 44 116 121 121 191 163 188 161 167 78 0 0 0 0 0 0 0 0 0 0 0 0 0 0 0 0 0 0 0 0 0 0 0 0 0 0 0 0 0 0 0 0 0 0 0 0 0 0 0 0 0 
0 0 0 0 0 0 0 0 0 0 0 0 0 0 0 0 8 25 119 174 149 137 104 103 130 104 40 33 43 41 44 44 46 47 43 69 91 98 103 105 97 99 98 98 99 101 96 106 106 96 98 95 104 101 95 95 96 96 96 92 87 85 103 103 107 110 103 83 63 67 55 46 46 46 46 45 33 31 80 117 120 186 125 182 170 164 82 0 0 0 0 0 0 0 0 0 0 0 0 0 0 0 0 0 0 0 0 0 0 0 0 0 0 0 0 0 0 0 0 0 0 0 0 0 0 0 0 0 
0 0 0 0 0 0 0 0 0 0 0 0 0 0 0 0 14 41 184 163 132 133 221 120 126 55 33 38 39 47 44 50 45 50 72 93 101 104 104 96 100 80 83 91 99 102 102 96 96 97 97 99 106 98 94 98 97 96 97 97 98 95 94 98 110 108 110 97 81 74 62 53 46 47 45 43 41 35 58 113 115 122 121 181 153 157 157 0 0 0 0 0 0 0 0 0 0 0 0 0 0 0 0 0 0 0 0 0 0 0 0 0 0 0 0 0 0 0 0 0 0 0 0 0 0 0 0 0 
0 0 0 0 0 0 0 0 0 0 0 0 0 0 0 0 12 109 201 143 118 123 96 128 90 38 36 43 44 43 43 42 51 72 90 107 107 104 101 90 41 44 47 64 90 94 96 95 101 96 96 94 103 95 90 84 84 92 98 100 102 103 102 102 96 109 114 113 103 85 74 76 45 44 45 45 41 36 48 114 113 123 130 177 162 168 162 3 0 0 0 0 0 0 0 0 0 0 0 0 0 0 0 0 0 0 0 0 0 0 0 0 0 0 0 0 0 0 0 0 0 0 0 0 0 0 0 0 
0 0 0 0 0 0 0 0 0 0 0 0 0 0 0 0 24 124 160 127 118 119 100 112 48 38 46 47 41 47 46 46 59 101 111 114 105 103 92 52 45 49 42 47 63 95 100 86 88 92 95 90 94 95 93 90 91 92 91 98 83 79 58 46 58 87 98 117 118 108 89 72 64 41 45 41 42 40 38 87 96 113 137 162 163 164 169 76 0 0 0 0 0 0 0 0 0 0 0 0 0 0 0 0 0 0 0 0 0 0 0 0 0 0 0 0 0 0 0 0 0 0 0 0 0 0 0 0 
0 0 0 0 0 0 0 0 0 0 0 0 0 0 0 2 32 170 191 126 111 105 191 60 42 40 43 42 41 43 50 52 96 115 113 120 107 108 63 44 46 47 46 44 45 87 96 84 92 94 100 103 101 99 95 88 88 91 92 74 44 46 43 45 46 45 66 93 120 122 99 89 70 55 46 41 45 42 40 86 98 112 138 158 174 174 169 79 0 0 0 0 0 0 0 0 0 0 0 0 0 0 0 0 0 0 0 0 0 0 0 0 0 0 0 0 0 0 0 0 0 0 0 0 0 0 0 0 
0 0 0 0 0 0 0 0 0 0 0 0 0 0 0 5 108 169 147 127 103 110 99 41 42 42 45 43 42 46 58 76 119 115 113 111 86 85 92 51 44 46 44 47 46 45 76 91 96 96 102 95 100 92 92 94 92 86 91 64 44 44 46 47 47 45 89 99 103 119 108 89 86 74 47 47 44 43 40 64 105 114 140 156 179 171 175 87 0 0 0 0 0 0 0 0 0 0 0 0 0 0 0 0 0 0 0 0 0 0 0 0 0 0 0 0 0 0 0 0 0 0 0 0 0 0 0 0 
0 0 0 0 0 0 0 0 0 0 0 0 0 0 0 12 130 171 147 123 105 116 105 38 42 44 45 47 46 64 75 106 118 119 112 107 90 89 110 112 113 91 46 47 44 44 45 86 96 93 97 103 93 96 94 98 93 94 92 44 44 48 44 45 47 91 117 117 102 113 123 102 94 77 83 50 44 42 40 59 99 197 116 156 180 175 177 92 0 0 0 0 0 0 0 0 0 0 0 0 0 0 0 0 0 0 0 0 0 0 0 0 0 0 0 0 0 0 0 0 0 0 0 0 0 0 0 0 
0 0 0 0 0 0 0 0 0 0 0 0 0 0 0 17 111 175 152 135 116 125 82 35 38 40 40 44 49 74 106 122 119 121 127 90 63 44 44 46 68 71 71 44 45 42 41 60 94 100 107 106 108 108 111 69 41 45 41 48 44 45 44 77 85 66 57 49 46 58 97 97 99 107 105 101 53 43 38 56 114 115 188 155 179 178 176 171 2 0 0 0 0 0 0 0 0 0 0 0 0 0 0 0 0 0 0 0 0 0 0 0 0 0 0 0 0 0 0 0 0 0 0 0 0 0 0 0 
0 0 0 0 0 0 0 0 0 0 0 0 0 0 0 82 104 170 150 135 119 128 84 35 41 37 43 43 65 89 128 118 125 127 84 49 43 43 48 51 46 64 50 66 75 77 42 42 37 41 48 104 101 92 94 42 41 41 47 46 43 61 67 44 67 71 71 73 71 59 46 54 82 93 105 108 86 44 38 57 118 113 94 156 170 180 172 168 5 0 0 0 0 0 0 0 0 0 0 0 0 0 0 0 0 0 0 0 0 0 0 0 0 0 0 0 0 0 0 0 0 0 0 0 0 0 0 0 
0 0 0 0 0 0 0 0 0 0 0 0 0 0 2 93 113 168 153 134 121 113 78 37 35 34 42 45 74 105 131 127 130 100 48 47 49 69 71 75 71 77 57 54 48 82 62 40 39 40 42 63 98 106 65 42 40 43 45 44 59 67 47 65 83 84 82 75 76 75 70 50 44 74 101 123 120 88 35 56 128 84 113 146 154 177 177 172 79 0 0 0 0 0 0 0 0 0 0 0 0 0 0 0 0 0 0 0 0 0 0 0 0 0 0 0 0 0 0 0 0 0 0 0 0 0 0 0 
0 0 0 0 0 0 0 0 0 0 0 0 0 0 3 95 122 187 148 131 113 112 69 37 30 37 34 51 76 120 133 140 104 44 49 55 66 75 72 69 79 75 77 57 48 47 64 42 41 40 39 49 97 103 66 38 40 44 47 58 71 47 60 89 95 85 75 74 74 76 78 72 57 53 81 127 126 137 40 49 110 86 86 107 139 167 178 174 77 0 0 0 0 0 0 0 0 0 0 0 0 0 0 0 0 0 0 0 0 0 0 0 0 0 0 0 0 0 0 0 0 0 0 0 0 0 0 0 
0 0 0 0 0 0 0 0 0 0 0 0 0 0 8 155 122 187 146 127 101 115 44 40 30 34 36 69 105 124 150 111 65 52 55 71 78 72 80 74 75 78 84 65 49 44 59 58 42 43 39 76 112 111 108 39 43 45 67 97 59 44 61 90 79 74 73 71 67 71 71 79 74 72 70 109 117 103 50 47 103 88 85 76 132 164 160 175 82 0 0 0 0 0 0 0 0 0 0 0 0 0 0 0 0 0 0 0 0 0 0 0 0 0 0 0 0 0 0 0 0 0 0 0 0 0 0 0 
0 0 0 0 0 0 0 0 0 0 0 0 0 0 14 158 113 176 138 120 110 103 46 39 37 33 34 108 101 138 146 102 69 52 71 69 60 66 68 71 70 71 73 83 61 48 58 87 43 44 42 77 120 116 113 44 39 43 70 90 50 48 74 73 78 76 71 72 68 68 70 74 83 86 86 79 128 111 45 53 100 89 84 75 95 153 183 176 85 0 0 0 0 0 0 0 0 0 0 0 0 0 0 0 0 0 0 0 0 0 0 0 0 0 0 0 0 0 0 0 0 0 0 0 0 0 0 0 
0 0 0 0 0 0 0 0 0 0 0 0 0 0 14 95 103 167 130 122 108 89 41 44 42 39 38 80 97 130 138 79 59 66 68 61 62 65 66 72 70 70 71 70 70 54 45 83 42 42 43 48 34 110 61 56 39 46 96 69 42 64 77 75 73 71 69 71 65 65 65 71 76 82 87 77 69 59 34 49 98 95 88 79 80 130 177 172 89 0 0 0 0 0 0 0 0 0 0 0 0 0 0 0 0 0 0 0 0 0 0 0 0 0 0 0 0 0 0 0 0 0 0 0 0 0 0 0 
0 0 0 0 0 0 0 0 0 0 0 0 0 0 16 102 97 158 131 132 101 81 41 42 41 37 41 77 86 98 115 68 63 67 71 64 62 65 68 67 70 65 71 68 71 61 42 73 70 42 42 54 38 39 39 121 62 68 85 67 50 74 77 72 74 71 72 67 65 61 62 73 75 91 89 73 49 34 31 54 95 94 92 85 75 142 169 171 149 0 0 0 0 0 0 0 0 0 0 0 0 0 0 0 0 0 0 0 0 0 0 0 0 0 0 0 0 0 0 0 0 0 0 0 0 0 0 0 
0 0 0 0 0 0 0 0 0 0 0 0 0 0 18 100 115 156 122 112 81 77 46 41 46 39 47 80 93 102 82 57 66 71 69 68 63 65 67 67 66 61 63 63 66 66 56 55 92 43 47 66 39 40 41 71 36 54 94 53 61 73 68 64 68 71 72 68 64 64 68 71 75 90 72 70 42 32 35 57 83 94 92 92 73 114 155 170 151 0 0 0 0 0 0 0 0 0 0 0 0 0 0 0 0 0 0 0 0 0 0 0 0 0 0 0 0 0 0 0 0 0 0 0 0 0 0 0 
0 0 0 0 0 0 0 0 0 0 0 0 0 0 17 25 180 157 207 88 84 80 43 39 43 36 52 63 97 85 70 55 71 79 77 66 65 67 68 65 62 67 62 65 64 66 65 46 43 39 41 36 41 44 45 43 35 37 79 46 64 77 70 63 67 67 65 64 66 62 71 70 74 80 83 71 41 31 34 69 80 91 83 91 81 85 130 158 159 0 0 0 0 0 0 0 0 0 0 0 0 0 0 0 0 0 0 0 0 0 0 0 0 0 0 0 0 0 0 0 0 0 0 0 0 0 0 0 
0 0 0 0 0 0 0 0 0 0 0 0 0 0 14 26 179 149 89 87 82 86 44 42 40 44 67 64 78 82 77 54 70 80 74 65 65 62 61 61 71 60 62 57 65 66 69 40 45 35 40 43 42 42 38 39 30 31 88 54 61 78 73 67 69 67 66 70 69 68 68 73 80 83 64 83 46 32 32 72 76 90 76 91 83 70 122 155 162 1 0 0 0 0 0 0 0 0 0 0 0 0 0 0 0 0 0 0 0 0 0 0 0 0 0 0 0 0 0 0 0 0 0 0 0 0 0 0 
0 0 0 0 0 0 0 0 0 0 0 0 0 0 67 30 175 141 90 90 89 80 44 46 45 60 72 67 50 96 76 60 72 77 72 63 63 66 65 65 63 64 56 59 64 66 68 41 51 34 33 42 52 45 41 44 42 32 45 54 59 77 72 63 64 63 68 67 71 67 67 72 83 90 74 65 50 30 34 69 80 92 76 91 96 35 131 157 148 3 0 0 0 0 0 0 0 0 0 0 0 0 0 0 0 0 0 0 0 0 0 0 0 0 0 0 0 0 0 0 0 0 0 0 0 0 0 0 
0 0 0 0 0 0 0 0 0 0 0 0 0 0 9 92 174 135 87 91 88 82 54 41 50 75 69 60 52 95 111 85 76 73 70 62 63 66 63 61 66 61 56 57 61 60 56 41 38 36 45 48 47 40 39 39 42 39 39 41 45 56 71 67 64 60 65 67 71 67 65 74 81 81 75 73 56 41 39 72 80 86 79 78 75 36 128 160 143 4 0 0 0 0 0 0 0 0 0 0 0 0 0 0 0 0 0 0 0 0 0 0 0 0 0 0 0 0 0 0 0 0 0 0 0 0 0 0 
0 0 0 0 0 0 0 0 0 0 0 0 0 0 59 156 171 203 90 88 84 77 72 42 61 59 59 55 69 93 110 102 62 65 68 63 61 65 70 62 58 56 55 66 59 41 39 44 43 38 48 45 48 47 38 41 40 42 36 74 39 48 62 70 63 65 64 64 66 64 69 72 75 64 52 45 57 57 48 71 78 86 75 75 68 45 143 159 141 4 0 0 0 0 0 0 0 0 0 0 0 0 0 0 0 0 0 0 0 0 0 0 0 0 0 0 0 0 0 0 0 0 0 0 0 0 0 0 
0 0 0 0 0 0 0 0 0 0 0 0 0 0 55 147 169 143 98 76 82 77 70 42 69 43 54 57 85 89 111 103 53 65 62 70 61 65 62 60 59 61 62 71 49 36 45 56 36 35 46 44 61 43 40 44 42 41 38 65 55 45 43 58 68 73 66 69 71 72 77 66 63 53 43 42 49 79 76 64 76 78 77 90 49 72 137 153 131 3 0 0 0 0 0 0 0 0 0 0 0 0 0 0 0 0 0 0 0 0 0 0 0 0 0 0 0 0 0 0 0 0 0 0 0 0 0 0 
0 0 0 0 0 0 0 0 0 0 0 0 0 0 51 142 96 145 108 78 83 72 67 54 66 40 57 67 79 86 105 95 43 43 51 56 70 69 64 62 62 67 62 52 40 36 75 64 38 41 48 52 43 58 38 48 55 42 42 63 105 49 39 39 48 63 74 76 81 78 77 58 50 45 38 37 66 82 113 50 75 76 73 73 37 75 144 148 119 2 0 0 0 0 0 0 0 0 0 0 0 0 0 0 0 0 0 0 0 0 0 0 0 0 0 0 0 0 0 0 0 0 0 0 0 0 0 0 
0 0 0 0 0 0 0 0 0 0 0 0 0 0 45 140 159 147 0 81 72 81 68 60 57 47 55 74 79 82 85 101 45 42 44 43 61 73 70 64 57 51 38 37 41 74 105 94 53 43 49 50 42 66 45 45 77 40 37 34 109 118 82 35 34 47 56 66 71 74 62 51 42 41 43 69 83 90 96 91 75 67 72 58 32 78 148 139 111 0 0 0 0 0 0 0 0 0 0 0 0 0 0 0 0 0 0 0 0 0 0 0 0 0 0 0 0 0 0 0 0 0 0 0 0 0 0 0 
0 0 0 0 0 0 0 0 0 0 0 0 0 0 36 120 153 111 116 94 70 76 53 71 57 50 46 122 89 87 70 109 68 41 40 39 47 69 66 59 40 44 41 53 103 107 106 67 37 41 50 66 41 67 39 57 94 52 40 35 60 91 130 113 105 94 75 60 65 69 47 43 38 36 52 95 99 95 98 103 74 68 62 58 38 100 146 131 99 0 0 0 0 0 0 0 0 0 0 0 0 0 0 0 0 0 0 0 0 0 0 0 0 0 0 0 0 0 0 0 0 0 0 0 0 0 0 0 
0 0 0 0 0 0 0 0 0 0 0 0 0 1 32 106 148 148 122 96 81 71 68 73 49 48 43 68 85 88 88 120 112 59 39 41 40 45 42 45 52 88 145 46 42 42 50 40 35 43 49 80 42 60 40 63 87 59 39 51 34 117 119 106 106 142 113 146 141 86 69 61 66 85 89 109 92 74 95 148 101 66 56 46 108 108 126 126 58 0 0 0 0 0 0 0 0 0 0 0 0 0 0 0 0 0 0 0 0 0 0 0 0 0 0 0 0 0 0 0 0 0 0 0 0 0 0 0 
0 0 0 0 0 0 0 0 0 0 0 0 0 2 19 100 141 148 97 108 251 74 78 51 60 50 42 76 84 89 95 156 148 144 50 35 35 48 146 140 111 40 39 42 37 38 54 88 38 42 73 86 46 63 43 49 47 45 40 90 117 116 148 101 108 117 125 205 117 104 196 147 110 200 108 112 238 70 118 141 74 62 57 67 105 120 139 123 52 0 0 0 0 0 0 0 0 0 0 0 0 0 0 0 0 0 0 0 0 0 0 0 0 0 0 0 0 0 0 0 0 0 0 0 0 0 0 0 
0 0 0 0 0 0 0 0 0 0 0 0 0 3 12 84 133 151 144 114 249 71 74 60 63 51 49 87 80 78 88 164 164 122 98 95 99 110 115 110 109 65 41 36 37 38 37 72 40 42 87 77 45 74 70 47 38 35 51 116 131 112 122 119 145 180 210 163 114 101 120 89 29 52 104 79 103 163 143 134 69 52 61 109 130 158 123 120 50 0 0 0 0 0 0 0 0 0 0 0 0 0 0 0 0 0 0 0 0 0 0 0 0 0 0 0 0 0 0 0 0 0 0 0 0 0 0 0 
0 0 0 0 0 0 0 0 0 0 0 0 0 6 14 58 122 149 160 126 92 80 67 69 59 57 60 79 91 76 80 91 114 121 148 100 131 138 152 145 98 78 63 32 31 36 31 31 43 30 41 48 42 89 65 37 36 37 110 81 94 114 111 116 133 170 190 137 105 89 133 91 25 58 64 116 116 129 168 156 109 67 96 153 175 141 116 116 43 0 0 0 0 0 0 0 0 0 0 0 0 0 0 0 0 0 0 0 0 0 0 0 0 0 0 0 0 0 0 0 0 0 0 0 0 0 0 0 
0 0 0 0 0 0 0 0 0 0 0 0 0 8 13 9 67 141 159 147 109 77 59 65 70 68 111 136 98 87 211 133 133 148 195 128 121 117 109 106 109 81 80 50 35 35 32 38 90 35 37 42 35 127 65 41 42 47 30 30 118 107 109 130 138 162 154 144 114 131 134 17 14 17 21 88 111 165 103 181 170 175 127 159 180 136 122 120 25 0 0 0 0 0 0 0 0 0 0 0 0 0 0 0 0 0 0 0 0 0 0 0 0 0 0 0 0 0 0 0 0 0 0 0 0 0 0 0 
0 0 0 0 0 0 0 0 0 0 0 0 0 8 13 10 66 141 155 153 140 149 89 66 75 103 114 106 96 90 109 169 169 149 118 105 84 81 87 95 102 104 86 78 53 32 27 27 26 35 42 37 35 144 37 39 51 37 31 33 117 105 102 105 114 125 109 121 132 148 108 18 19 20 23 71 136 142 147 169 147 180 155 170 164 127 146 91 10 1 0 0 0 0 0 0 0 0 0 0 0 0 0 0 0 0 0 0 0 0 0 0 0 0 0 0 0 0 0 0 0 0 0 0 0 0 0 0 
0 0 0 0 0 0 0 0 0 0 0 0 0 3 9 15 52 135 147 149 159 177 185 46 96 105 82 210 104 101 106 107 134 198 138 76 75 89 121 112 114 121 102 87 77 42 25 20 29 34 41 40 40 76 93 44 49 44 38 38 67 117 98 93 113 91 68 99 118 114 41 32 24 22 23 72 140 146 147 126 131 100 101 112 119 126 117 96 10 6 0 0 0 0 0 0 0 0 0 0 0 0 0 0 0 0 0 0 0 0 0 0 0 0 0 0 0 0 0 0 0 0 0 0 0 0 0 0 
0 0 0 0 0 0 0 0 0 0 0 0 0 0 13 12 20 114 150 144 160 197 166 181 154 170 171 1 195 92 87 80 88 180 157 132 131 143 183 105 107 106 125 109 90 67 27 20 37 40 49 46 37 89 33 39 44 55 67 145 133 95 98 119 109 72 92 106 121 67 35 31 29 24 78 129 145 150 140 137 118 18 7 115 122 126 140 70 9 9 0 0 0 0 0 0 0 0 0 0 0 0 0 0 0 0 0 0 0 0 0 0 0 0 0 0 0 0 0 0 0 0 0 0 0 0 0 0 
0 0 0 0 0 0 0 0 0 0 0 0 0 0 3 8 11 91 156 159 152 161 163 148 163 92 74 108 134 129 89 70 77 142 176 153 137 112 108 124 113 99 108 113 103 89 69 27 65 91 57 52 45 32 37 37 36 65 96 93 194 93 112 92 65 70 89 132 137 126 82 97 115 114 134 143 138 149 126 123 98 17 0 1 63 130 152 30 8 12 3 0 0 0 0 0 0 0 0 0 0 0 0 0 0 0 0 0 0 0 0 0 0 0 0 0 0 0 0 0 0 0 0 0 0 0 0 0 
0 0 0 0 0 0 0 0 0 0 0 0 0 0 0 0 0 5 142 145 140 138 129 108 91 72 68 108 138 126 121 53 36 54 113 167 130 101 92 108 138 122 108 103 93 90 113 73 95 108 78 50 44 44 38 35 38 42 70 120 110 76 87 86 86 48 73 117 107 116 111 117 117 152 224 184 159 152 143 81 28 13 0 3 0 0 1 12 12 14 20 0 0 0 0 0 0 0 0 0 0 0 0 0 0 0 0 0 0 0 0 0 0 0 0 0 0 0 0 0 0 0 0 0 0 0 0 0 
0 0 0 0 0 0 0 0 0 0 0 0 0 0 0 0 0 0 69 140 136 127 87 84 79 109 81 108 135 159 137 88 31 56 98 171 140 130 99 71 66 84 114 100 82 85 88 114 72 55 51 45 47 49 76 38 48 47 108 90 61 48 64 100 110 72 41 47 49 53 78 121 112 147 187 166 171 157 144 32 14 1 1 3 0 0 0 0 3 17 22 0 0 0 0 0 0 0 0 0 0 0 0 0 0 0 0 0 0 0 0 0 0 0 0 0 0 0 0 0 0 0 0 0 0 0 0 0 
0 0 0 0 0 0 0 0 0 0 0 0 0 0 0 0 0 0 4 67 127 117 56 30 29 116 104 104 11 153 145 122 48 91 113 113 138 156 111 46 37 85 74 56 64 68 74 101 51 45 45 47 48 67 109 76 51 50 77 72 43 99 99 100 136 84 48 49 51 53 78 96 107 124 134 147 165 156 178 73 6 0 6 0 0 0 0 0 0 2 12 0 0 0 0 0 0 0 0 0 0 0 0 0 0 0 0 0 0 0 0 0 0 0 0 0 0 0 0 0 0 0 0 0 0 0 0 0 
0 0 0 0 0 0 0 0 0 0 0 0 0 0 0 0 0 0 4 12 12 11 67 2 21 37 179 236 149 143 149 122 179 103 72 43 46 61 101 40 49 84 59 91 110 76 73 99 50 36 49 57 82 104 109 105 99 72 77 116 72 118 92 47 96 102 70 56 58 87 102 101 108 113 136 155 171 182 181 162 0 0 6 0 0 0 0 0 0 0 2 0 0 0 0 0 0 0 0 0 0 0 0 0 0 0 0 0 0 0 0 0 0 0 0 0 0 0 0 0 0 0 0 0 0 0 0 0 
0 0 0 0 0 0 0 0 0 0 0 0 0 0 0 0 0 0 3 121 74 9 2 0 0 145 150 149 153 148 145 128 108 58 117 56 45 49 55 50 98 123 111 108 113 144 113 173 71 79 150 147 144 166 129 105 91 105 117 140 150 146 110 43 54 96 92 65 79 111 118 100 96 108 20 142 174 171 174 163 127 1 1 0 0 0 0 0 0 0 0 0 0 0 0 0 0 0 0 0 0 0 0 0 0 0 0 0 0 0 0 0 0 0 0 0 0 0 0 0 0 0 0 0 0 0 0 0 
0 0 0 0 0 0 0 0 0 0 0 0 0 0 0 0 0 0 0 51 130 64 10 7 153 164 185 155 153 140 154 200 132 106 113 118 118 66 65 85 133 122 121 119 77 120 159 160 95 104 114 110 107 97 97 54 39 39 81 148 161 168 159 203 77 99 194 126 140 125 115 106 98 95 84 105 141 181 156 130 123 56 0 0 0 0 0 0 0 0 0 0 0 0 0 0 0 0 0 0 0 0 0 0 0 0 0 0 0 0 0 0 0 0 0 0 0 0 0 0 0 0 0 0 0 0 0 0 
0 0 0 0 0 0 0 0 0 0 0 0 0 0 0 0 0 0 0 19 94 109 117 117 150 157 185 166 170 148 145 47 211 123 116 123 123 36 209 125 221 147 167 160 103 119 151 158 108 101 107 105 106 149 155 154 152 65 103 150 160 144 124 248 242 131 126 149 144 104 105 96 91 80 86 48 155 176 136 109 110 104 112 96 6 0 0 0 0 0 0 0 0 0 0 0 0 0 0 0 0 0 0 0 0 0 0 0 0 0 0 0 0 0 0 0 0 0 0 0 0 0 0 0 0 0 0 0 
0 0 0 0 0 0 0 0 0 0 0 0 5 10 4 0 0 0 4 21 54 112 122 117 129 147 163 177 172 138 137 106 120 19 117 123 123 113 8 29 139 155 167 168 185 18 33 208 120 91 149 141 136 149 154 145 148 148 196 142 207 99 115 127 175 168 153 163 161 115 92 89 69 45 43 35 99 173 120 114 101 84 113 103 19 2 0 0 0 0 0 0 0 0 0 0 0 0 0 0 0 0 0 0 0 0 0 0 0 0 0 0 0 0 0 0 0 0 0 0 0 0 0 0 0 0 0 0 
0 0 0 0 0 0 0 0 0 0 0 0 6 10 10 8 0 0 10 16 17 72 123 126 123 130 146 151 172 105 45 62 96 193 121 6 117 119 116 114 125 80 161 160 159 170 21 133 184 134 163 166 171 152 148 133 132 132 118 37 123 141 82 172 178 179 162 163 153 111 101 71 41 33 44 30 189 185 122 106 92 52 92 63 21 14 0 0 0 0 0 0 0 0 0 0 0 0 0 0 0 0 0 0 0 0 0 0 0 0 0 0 0 0 0 0 0 0 0 0 0 0 0 0 0 0 0 0 
0 0 0 0 0 0 0 0 0 0 0 0 1 9 11 8 10 8 10 11 12 28 126 97 118 137 133 166 168 84 36 39 44 47 55 111 123 87 100 217 117 129 125 140 165 169 151 108 190 146 153 167 162 166 144 111 112 126 128 120 113 156 80 165 157 201 147 138 119 100 98 72 40 37 45 12 92 163 136 104 50 10 25 21 13 13 10 2 0 3 9 12 6 0 0 0 0 0 0 0 0 0 0 0 0 0 0 0 0 0 0 0 0 0 0 0 0 0 0 0 0 0 0 0 0 0 0 0 
0 0 0 0 0 0 0 0 0 0 0 0 0 12 9 12 8 9 8 10 11 7 4 124 128 113 130 140 73 8 14 28 29 44 43 45 47 60 89 128 124 206 101 129 156 160 128 195 147 147 155 164 166 161 157 134 123 140 132 222 192 160 133 129 131 172 127 121 143 92 66 21 73 148 148 10 127 97 60 57 69 49 20 19 9 10 11 10 12 12 8 8 7 0 0 0 0 0 0 0 0 0 0 0 0 0 0 0 0 0 0 0 0 0 0 0 0 0 0 0 0 0 0 0 0 0 0 0 
0 0 0 0 0 0 0 0 0 0 0 0 0 4 9 7 8 8 9 8 11 15 26 49 94 121 140 137 49 37 47 100 81 95 78 63 85 72 44 38 79 126 128 123 129 130 197 175 162 172 164 70 52 169 189 164 150 152 156 226 198 162 131 173 167 148 31 136 145 141 115 116 107 144 85 48 56 53 34 32 1 6 26 19 0 0 2 11 7 7 6 0 0 0 0 0 0 0 0 0 0 0 0 0 0 0 0 0 0 0 0 0 0 0 0 0 0 0 0 0 0 0 0 0 0 0 0 0 
0 0 0 0 0 0 0 0 0 0 0 0 0 0 8 8 10 5 2 5 11 15 23 56 65 72 61 32 0 3 8 19 22 73 79 68 79 85 39 47 93 151 167 193 210 201 17 253 203 185 182 184 180 179 189 79 163 176 187 194 212 249 194 186 244 176 47 105 35 140 151 139 105 90 73 79 84 79 38 0 0 1 18 31 0 0 0 3 4 10 7 9 0 0 0 0 0 0 0 0 0 0 0 0 0 0 0 0 0 0 0 0 0 0 0 0 0 0 0 0 0 0 0 0 0 0 0 0 
0 0 0 0 0 0 0 0 0 0 0 0 0 0 2 12 5 2 0 4 17 36 32 26 32 25 7 28 19 18 17 12 0 0 46 72 71 107 139 157 185 157 133 122 136 179 173 133 121 148 174 172 149 130 131 136 137 159 149 159 169 170 224 159 171 214 173 194 159 139 121 107 97 64 74 95 15 1 3 1 0 3 31 24 0 0 0 0 2 0 1 0 0 0 0 0 0 0 0 0 0 0 0 0 0 0 0 0 0 0 0 0 0 0 0 0 0 0 0 0 0 0 0 0 0 0 0 0 
0 0 0 0 0 0 0 0 0 0 0 0 0 0 0 1 11 11 12 8 9 12 11 12 30 39 10 2 2 6 6 42 10 7 33 49 60 48 37 37 88 97 146 181 156 141 104 104 123 123 94 120 130 109 98 94 96 108 106 99 95 103 86 132 133 112 26 26 39 49 49 69 87 59 52 45 43 12 23 7 7 9 26 5 0 1 10 9 0 0 0 0 0 0 0 0 0 0 0 0 0 0 0 0 0 0 0 0 0 0 0 0 0 0 0 0 0 0 0 0 0 0 0 0 0 0 0 0 
0 0 0 0 0 0 0 0 0 0 0 0 0 0 0 0 0 9 8 3 6 6 8 9 10 11 9 14 7 7 11 55 35 10 9 24 59 63 56 35 42 73 63 62 69 79 80 59 73 87 93 93 86 88 89 92 90 60 74 79 75 67 37 46 54 76 29 65 94 102 41 49 70 61 59 46 8 9 11 8 11 13 18 4 0 0 2 0 0 0 0 0 0 0 0 0 0 0 0 0 0 0 0 0 0 0 0 0 0 0 0 0 0 0 0 0 0 0 0 0 0 0 0 0 0 0 0 0 
0 0 0 0 0 0 0 0 0 0 0 0 0 0 0 0 0 0 0 0 2 2 7 10 17 24 25 40 31 23 13 37 32 48 54 82 96 171 186 123 136 162 94 73 67 86 88 72 55 78 88 74 72 81 77 76 99 96 117 108 114 123 127 119 94 128 90 79 117 157 66 51 81 85 52 28 41 19 15 14 13 11 7 3 0 0 0 0 0 0 0 0 0 0 0 0 0 0 0 0 0 0 0 0 0 0 0 0 0 0 0 0 0 0 0 0 0 0 0 0 0 0 0 0 0 0 0 0 
0 0 0 0 0 0 0 0 0 0 0 0 0 0 0 0 0 0 0 0 0 0 3 11 14 10 35 40 79 158 79 68 77 90 111 100 56 126 192 144 159 155 45 64 77 51 83 159 135 107 103 127 110 102 97 112 104 92 96 189 192 86 124 127 30 161 127 128 113 134 107 34 45 37 13 18 3 7 0 0 0 0 0 0 0 0 0 0 0 0 0 0 0 0 0 0 0 0 0 0 0 0 0 0 0 0 0 0 0 0 0 0 0 0 0 0 0 0 0 0 0 0 0 0 0 0 0 0 
0 0 0 0 0 0 0 0 0 0 0 0 0 0 0 0 0 0 0 0 0 0 0 9 8 5 5 39 59 97 96 73 90 96 98 92 150 120 104 92 150 67 48 149 170 177 171 205 167 162 152 150 143 166 172 139 144 139 150 117 63 92 123 142 188 159 140 126 83 150 119 130 110 83 69 45 82 40 0 0 0 0 0 0 0 0 0 0 0 0 0 0 0 0 0 0 0 0 0 0 0 0 0 0 0 0 0 0 0 0 0 0 0 0 0 0 0 0 0 0 0 0 0 0 0 0 0 0 
0 0 0 0 0 0 0 0 0 0 0 0 0 0 0 0 0 0 0 0 0 0 0 3 6 11 26 32 58 82 120 79 118 56 38 50 38 98 33 92 52 29 86 90 117 102 122 172 210 95 141 120 121 118 109 119 122 114 156 145 72 43 87 105 111 150 136 136 133 146 109 62 45 25 21 24 6 0 3 3 0 3 6 0 0 0 0 0 0 0 0 0 0 0 0 0 0 0 0 0 0 0 0 0 0 0 0 0 0 0 0 0 0 0 0 0 0 0 0 0 0 0 0 0 0 0 0 0 
0 0 0 0 0 0 0 0 0 0 0 0 0 0 0 0 0 0 0 0 0 0 0 7 9 16 17 11 16 13 11 72 45 33 16 44 60 59 20 23 20 45 80 96 106 112 126 101 124 128 63 94 94 102 56 71 54 66 82 85 81 111 66 61 108 120 132 24 133 125 102 72 57 55 63 25 14 15 15 15 3 7 9 0 0 0 0 0 0 0 0 0 0 0 0 0 0 0 0 0 0 0 0 0 0 0 0 0 0 0 0 0 0 0 0 0 0 0 0 0 0 0 0 0 0 0 0 0 
0 0 0 0 0 0 0 0 0 0 0 0 0 0 0 0 0 0 0 0 0 0 0 7 12 9 16 12 13 14 11 46 83 46 14 27 34 34 41 47 41 108 113 96 101 111 88 77 85 120 61 72 76 95 90 86 91 84 73 65 57 101 116 88 123 73 103 131 102 104 80 68 51 60 87 12 13 12 11 9 11 9 7 0 0 0 0 0 0 0 0 0 0 0 0 0 0 0 0 0 0 0 0 0 0 0 0 0 0 0 0 0 0 0 0 0 0 0 0 0 0 0 0 0 0 0 0 0 
0 0 0 0 0 0 0 0 0 0 0 0 0 0 0 0 0 0 0 0 0 0 0 3 12 8 18 18 9 17 15 48 83 49 28 40 36 28 41 50 51 91 95 66 97 210 111 63 88 104 78 58 71 73 74 73 74 70 58 44 41 98 99 77 172 106 87 125 86 66 62 53 36 10 53 11 12 21 18 9 11 10 5 0 0 0 0 0 0 0 0 0 0 0 0 0 0 0 0 0 0 0 0 0 0 0 0 0 0 0 0 0 0 0 0 0 0 0 0 0 0 0 0 0 0 0 0 0 
0 0 0 0 0 0 0 0 0 0 0 0 0 0 0 0 0 0 0 0 0 0 0 0 12 9 13 17 10 12 19 47 83 11 21 39 33 38 46 56 84 77 68 81 75 86 104 91 126 111 72 58 62 66 67 65 71 70 49 30 49 108 98 62 138 67 58 110 126 88 55 50 25 5 8 10 13 20 22 11 11 10 4 0 0 0 0 0 0 0 0 0 0 0 0 0 0 0 0 0 0 0 0 0 0 0 0 0 0 0 0 0 0 0 0 0 0 0 0 0 0 0 0 0 0 0 0 0 
0 0 0 0 0 0 0 0 0 0 0 0 0 0 0 0 0 0 0 0 0 0 0 0 6 11 9 18 12 11 12 16 53 11 10 29 20 36 55 79 64 80 183 114 85 85 89 104 128 73 51 49 61 63 65 63 60 52 45 40 45 92 91 117 92 155 48 50 89 103 68 38 24 3 7 10 14 28 26 14 7 9 4 0 0 0 0 0 0 0 0 0 0 0 0 0 0 0 0 0 0 0 0 0 0 0 0 0 0 0 0 0 0 0 0 0 0 0 0 0 0 0 0 0 0 0 0 0 
0 0 0 0 0 0 0 0 0 0 0 0 0 0 0 0 0 0 0 0 0 0 0 0 0 11 9 11 16 27 11 18 12 5 5 13 14 21 56 62 78 58 61 78 167 85 75 57 33 28 35 51 57 52 61 53 50 44 44 38 32 42 85 175 103 211 128 46 54 81 74 38 25 5 8 9 11 22 25 10 8 9 6 0 0 0 0 0 0 0 0 0 0 0 0 0 0 0 0 0 0 0 0 0 0 0 0 0 0 0 0 0 0 0 0 0 0 0 0 0 0 0 0 0 0 0 0 0 
0 0 0 0 0 0 0 0 0 0 0 0 0 0 0 0 0 0 0 0 0 0 0 0 0 4 11 10 12 21 19 10 17 4 3 12 15 2 51 72 66 84 59 71 129 82 82 52 39 36 43 55 47 51 62 52 44 44 46 36 27 33 42 100 107 82 64 57 99 57 64 66 34 6 11 9 12 19 19 8 12 8 6 0 0 0 0 0 0 0 0 0 0 0 0 0 0 0 0 0 0 0 0 0 0 0 0 0 0 0 0 0 0 0 0 0 0 0 0 0 0 0 0 0 0 0 0 0 
0 0 0 0 0 0 0 0 0 0 0 0 0 0 0 0 0 0 0 0 0 0 0 0 0 3 11 10 11 11 11 6 9 11 5 9 18 21 64 63 59 90 58 98 54 81 86 53 37 44 111 63 64 77 77 69 62 50 47 40 28 29 33 125 91 149 62 57 77 56 79 76 30 6 18 6 7 9 10 12 11 10 3 0 0 0 0 0 0 0 0 0 0 0 0 0 0 0 0 0 0 0 0 0 0 0 0 0 0 0 0 0 0 0 0 0 0 0 0 0 0 0 0 0 0 0 0 0 
0 0 0 0 0 0 0 0 0 0 0 0 0 0 0 0 0 0 0 0 0 0 0 0 0 0 9 9 9 6 10 9 8 11 1 3 16 54 70 73 55 96 92 77 57 69 80 50 37 54 63 73 66 71 63 57 56 49 43 42 30 21 45 97 160 72 107 58 53 57 74 86 23 8 16 8 5 10 10 11 10 10 2 0 0 0 0 0 0 0 0 0 0 0 0 0 0 0 0 0 0 0 0 0 0 0 0 0 0 0 0 0 0 0 0 0 0 0 0 0 0 0 0 0 0 0 0 0 
0 0 0 0 0 0 0 0 0 0 0 0 0 0 0 0 0 0 0 0 0 0 0 0 0 0 0 9 8 8 9 12 19 7 5 1 5 55 80 74 69 43 23 39 60 60 72 43 41 80 56 72 82 88 77 74 61 48 46 48 45 77 95 88 87 74 67 52 46 65 87 85 14 5 17 8 6 9 11 12 11 9 5 0 0 0 0 0 0 0 0 0 0 0 0 0 0 0 0 0 0 0 0 0 0 0 0 0 0 0 0 0 0 0 0 0 0 0 0 0 0 0 0 0 0 0 0 0 
0 0 0 0 0 0 0 0 0 0 0 0 0 0 0 0 0 0 0 0 0 0 0 0 0 0 0 4 8 8 12 9 10 14 3 8 1 13 49 89 82 54 38 66 74 66 64 39 34 45 51 63 74 77 71 67 62 56 47 53 60 98 112 58 118 74 94 64 62 89 103 79 8 6 8 10 13 12 16 12 11 11 6 0 0 0 0 0 0 0 0 0 0 0 0 0 0 0 0 0 0 0 0 0 0 0 0 0 0 0 0 0 0 0 0 0 0 0 0 0 0 0 0 0 0 0 0 0 
0 0 0 0 0 0 0 0 0 0 0 0 0 0 0 0 0 0 0 0 0 0 0 0 0 0 0 0 9 6 8 7 9 14 10 4 7 1 16 89 92 83 47 85 92 106 54 40 40 36 46 62 78 76 70 65 69 56 47 54 77 103 70 64 90 83 107 106 88 101 103 57 6 4 7 12 18 17 12 12 11 9 6 0 0 0 0 0 0 0 0 0 0 0 0 0 0 0 0 0 0 0 0 0 0 0 0 0 0 0 0 0 0 0 0 0 0 0 0 0 0 0 0 0 0 0 0 0 
0 0 0 0 0 0 0 0 0 0 0 0 0 0 0 0 0 0 0 0 0 0 0 0 0 0 0 0 4 5 8 8 8 10 14 5 2 2 0 47 76 96 100 105 101 68 49 44 41 36 51 63 76 68 65 63 66 56 50 47 56 104 111 102 84 153 112 110 106 94 64 12 6 4 5 11 21 11 12 12 12 12 5 0 0 0 0 0 0 0 0 0 0 0 0 0 0 0 0 0 0 0 0 0 0 0 0 0 0 0 0 0 0 0 0 0 0 0 0 0 0 0 0 0 0 0 0 0 
0 0 0 0 0 0 0 0 0 0 0 0 0 0 0 0 0 0 0 0 0 0 0 0 0 0 0 0 1 7 4 9 8 9 14 10 4 0 0 1 44 67 91 105 79 97 49 43 43 34 106 68 72 63 53 75 75 100 102 45 37 37 114 119 114 105 113 104 83 57 37 7 9 4 3 16 19 11 11 11 12 10 5 0 0 0 0 0 0 0 0 0 0 0 0 0 0 0 0 0 0 0 0 0 0 0 0 0 0 0 0 0 0 0 0 0 0 0 0 0 0 0 0 0 0 0 0 0 
0 0 0 0 0 0 0 0 0 0 0 0 0 0 0 0 0 0 0 0 0 0 0 0 0 0 0 0 0 10 2 9 8 9 11 12 7 3 3 1 24 38 100 112 49 27 42 42 45 36 78 56 103 97 89 90 89 96 108 96 100 45 48 111 79 62 58 53 51 48 8 8 10 4 3 16 14 13 10 12 12 11 4 0 0 0 0 0 0 0 0 0 0 0 0 0 0 0 0 0 0 0 0 0 0 0 0 0 0 0 0 0 0 0 0 0 0 0 0 0 0 0 0 0 0 0 0 0 
0 0 0 0 0 0 0 0 0 0 0 0 0 0 0 0 0 0 0 0 0 0 0 0 0 0 0 0 0 4 6 2 9 9 10 19 17 9 10 4 23 40 35 23 12 25 33 44 40 63 96 104 104 98 52 42 60 36 99 109 105 46 39 46 63 70 76 62 55 28 5 9 13 8 4 11 14 12 11 11 11 9 5 0 0 0 0 0 0 0 0 0 0 0 0 0 0 0 0 0 0 0 0 0 0 0 0 0 0 0 0 0 0 0 0 0 0 0 0 0 0 0 0 0 0 0 0 0 
