P2
128 99
213
0 0 0 0 0 0 0 0 0 0 0 0 0 0 0 0 0 0 0 0 0 0 0 0 0 0 0 0 0 0 0 0 0 1 0 0 0 0 0 0 0 0 0 0 0 0 0 0 0 0 0 0 0 0 0 0 0 0 0 0 0 0 0 0 0 0 0 0 0 0 0 0 0 0 0 0 0 0 0 0 0 0 0 0 0 0 0 0 0 0 0 0 0 0 1 1 1 1 0 0 0 0 0 0 0 0 0 0 0 0 0 0 0 0 0 0 0 0 0 0 0 0 0 0 0 0 0 0 
0 0 0 0 0 0 0 0 0 0 0 0 0 0 0 0 0 0 0 0 0 0 0 0 0 0 0 0 0 0 0 0 0 1 0 0 0 0 0 0 0 0 0 0 0 0 0 0 0 0 0 0 0 0 0 0 0 0 0 0 0 0 0 0 0 0 0 0 0 0 0 0 0 0 0 0 0 0 0 0 0 0 0 0 0 0 0 0 0 0 0 0 0 0 1 1 1 1 0 0 0 0 0 0 0 0 0 0 0 0 0 0 0 0 0 0 0 0 0 0 0 0 0 0 0 0 0 0 
0 0 0 0 0 0 0 0 0 0 0 0 0 0 0 0 0 0 0 0 0 0 0 0 0 0 0 0 0 0 0 0 0 0 0 0 0 0 0 0 0 0 0 0 0 0 0 0 0 0 1 2 2 2 1 0 0 0 0 0 0 0 0 0 0 0 0 0 0 0 0 0 0 0 0 0 0 0 0 0 0 0 0 0 0 0 0 0 0 0 0 0 0 0 1 1 1 1 0 0 0 0 0 0 0 0 0 0 0 0 0 0 0 0 0 0 0 0 0 0 0 0 0 0 0 0 0 0 
0 0 0 0 0 0 0 0 0 0 0 0 0 0 0 0 0 0 0 0 0 0 0 0 0 0 0 0 0 0 0 0 0 0 0 0 0 0 0 0 0 0 0 1 7 13 17 18 18 19 22 25 28 27 25 21 18 16 14 12 4 0 0 0 0 0 0 0 0 0 0 0 0 0 0 0 0 0 0 0 0 0 0 0 0 0 0 0 0 0 0 0 0 0 1 1 1 1 0 0 0 0 0 0 0 0 0 0 0 0 0 0 0 0 0 0 0 0 0 0 0 0 0 0 0 0 0 0 
0 0 0 0 0 0 0 0 0 0 0 0 0 0 0 0 0 0 0 0 0 0 0 0 0 0 0 0 0 0 0 0 0 0 0 0 0 0 0 0 5 13 19 23 24 33 53 77 101 121 138 149 154 155 151 140 125 104 79 54 33 22 17 10 2 0 0 0 0 0 0 0 0 0 0 0 0 0 0 0 0 0 0 0 0 0 0 0 0 0 0 0 0 0 0 1 1 1 0 0 0 0 0 0 0 0 0 0 0 0 0 0 0 0 0 0 0 0 0 0 0 0 0 0 0 0 0 0 
0 0 0 0 0 0 0 0 0 0 0 0 0 0 0 0 0 0 0 0 0 0 0 0 0 0 0 0 0 0 0 0 0 0 0 0 0 1 9 17 24 25 36 68 111 150 172 182 187 190 191 190 189 188 189 190 189 186 180 170 150 118 79 44 24 16 10 1 0 0 0 0 0 0 0 0 0 0 0 0 0 0 0 0 0 0 0 0 0 0 0 0 0 0 0 1 1 1 0 0 0 0 0 0 0 0 0 0 0 0 0 0 0 0 0 0 0 0 0 0 0 0 0 0 0 0 0 0 
0 0 0 0 0 0 0 0 0 0 0 0 0 0 0 0 0 0 0 0 0 0 0 0 0 0 0 0 0 0 0 0 0 0 0 0 9 21 24 26 52 103 152 179 189 191 192 193 195 198 200 201 201 200 200 200 199 196 193 191 189 185 175 156 123 77 38 18 13 2 0 0 0 0 0 0 0 0 0 0 0 0 0 0 0 0 0 0 0 0 0 0 0 0 1 1 1 1 0 0 0 0 0 0 0 0 0 0 0 0 0 0 0 0 0 0 0 0 0 0 0 0 0 0 0 0 0 0 
0 0 0 0 0 0 0 0 0 0 0 0 0 0 0 0 0 0 0 0 0 0 0 0 0 0 0 0 0 0 0 0 0 0 8 24 25 26 62 125 169 186 191 193 195 198 196 190 184 180 183 190 188 176 174 187 200 206 204 199 196 193 191 190 186 174 149 101 49 22 14 1 0 0 0 0 0 0 0 0 0 0 0 0 0 0 0 0 0 0 0 0 0 0 1 1 1 1 0 0 0 0 0 0 0 0 0 0 0 0 0 0 0 0 0 0 0 0 0 0 0 0 0 0 0 0 0 0 
0 0 0 0 0 0 0 0 0 0 0 0 0 0 0 0 0 0 0 0 0 0 0 0 0 0 0 0 0 0 0 0 5 27 25 23 59 129 173 185 187 191 195 199 196 187 178 167 158 155 156 158 155 148 150 155 163 181 200 208 206 202 199 195 192 191 189 182 157 103 45 23 10 0 0 0 0 0 0 0 0 0 0 0 0 0 0 0 0 0 0 0 0 1 1 1 1 1 0 0 0 0 0 0 0 0 0 0 0 0 0 0 0 0 0 0 0 0 0 0 0 0 0 0 0 0 0 0 
0 0 0 0 0 0 0 0 0 0 0 0 0 0 0 0 0 0 0 0 0 0 0 0 0 0 0 0 0 0 0 23 26 22 41 112 170 184 185 189 193 199 195 180 166 161 154 144 139 136 141 148 149 145 149 151 153 156 168 187 205 210 208 205 201 196 193 191 190 181 149 80 30 19 2 0 0 0 0 0 0 0 0 0 0 0 0 0 0 0 0 0 0 1 1 1 1 1 0 0 0 0 0 0 0 0 0 0 0 0 0 0 0 0 0 0 0 0 0 0 0 0 0 0 0 0 0 0 
0 0 0 0 0 0 0 0 0 0 0 0 0 0 0 0 0 0 0 0 0 0 0 0 0 0 0 0 0 10 28 22 25 84 159 182 185 188 192 198 201 190 171 166 161 153 146 140 136 135 135 140 139 138 142 146 147 146 150 157 173 193 206 211 210 206 201 198 193 193 190 175 120 46 23 6 0 0 0 0 0 0 0 0 0 0 0 0 0 0 0 0 0 1 1 1 1 1 0 0 0 0 0 0 0 0 0 0 0 0 0 0 0 0 0 0 0 0 0 0 0 0 0 0 0 0 0 0 
0 0 0 0 0 0 0 0 0 0 0 0 0 0 0 0 0 0 0 0 0 0 0 0 0 0 0 0 22 25 18 48 133 177 182 188 194 198 202 197 182 172 165 159 156 152 149 144 143 140 134 136 134 132 142 148 148 148 149 152 158 169 185 198 208 212 210 206 202 198 196 193 185 151 68 24 11 0 0 0 0 0 0 0 0 0 0 0 0 0 0 0 0 0 1 1 1 1 0 0 0 0 0 0 0 0 0 0 0 0 0 0 0 0 0 0 0 0 0 0 0 0 0 0 0 0 0 0 
0 0 0 0 0 0 0 0 0 0 0 0 0 0 0 0 0 0 0 0 0 0 0 0 0 0 5 26 21 19 77 158 180 186 192 198 203 203 190 177 171 166 159 156 151 150 149 145 146 139 130 129 127 127 137 146 146 146 148 150 153 163 172 180 190 201 209 213 210 205 200 196 192 185 162 86 25 13 0 0 0 0 0 0 0 0 0 0 0 0 0 0 0 1 1 1 1 1 0 0 0 0 0 0 0 0 0 0 0 0 0 0 0 0 0 0 0 0 0 0 0 0 0 0 0 0 0 0 
0 0 0 0 0 0 0 0 0 0 0 0 0 0 0 0 0 0 0 0 0 0 0 0 0 10 25 18 26 101 168 180 190 197 202 206 199 184 174 168 165 161 156 152 149 149 150 149 141 135 125 124 120 122 127 138 148 151 153 154 153 155 162 169 176 182 190 201 209 212 208 202 196 190 186 168 95 27 14 0 0 0 0 0 0 0 0 0 0 0 0 0 0 1 1 1 1 1 0 0 0 0 0 0 0 0 0 0 0 0 0 0 0 0 0 0 0 0 0 0 0 0 0 0 0 0 0 0 
0 0 0 0 0 0 0 0 0 0 0 0 0 0 0 0 0 0 0 0 0 0 0 0 14 23 16 34 118 170 181 193 200 205 202 190 178 172 169 165 161 157 156 153 148 146 138 130 129 124 122 121 119 122 123 124 134 145 148 148 148 149 153 159 164 168 174 179 186 198 207 209 205 198 190 187 172 106 30 13 0 0 0 0 0 0 0 0 0 0 0 0 0 1 1 1 1 1 0 0 0 0 0 0 0 0 0 0 0 0 0 0 0 0 0 0 0 0 0 0 0 0 0 0 0 0 0 0 
0 0 0 0 0 0 0 0 0 0 0 0 0 0 0 0 0 0 0 0 0 0 3 19 20 15 45 130 168 183 195 202 205 194 180 172 169 168 165 161 157 152 147 139 135 128 124 124 122 122 122 119 117 123 125 125 124 128 137 144 146 145 146 151 157 160 164 165 169 175 187 200 207 205 198 190 186 174 118 36 12 0 0 0 0 0 0 0 0 0 0 0 0 1 1 1 1 1 0 0 0 0 0 0 0 0 0 0 0 0 0 0 0 0 0 0 0 0 0 0 0 0 0 0 0 0 0 0 
0 0 0 0 0 0 0 0 0 0 0 0 0 0 0 0 0 0 0 0 0 5 17 16 16 57 139 167 184 196 204 202 185 173 167 166 164 162 160 156 150 144 139 136 127 120 119 116 119 119 119 115 113 119 122 122 121 122 123 127 130 131 136 143 148 151 153 158 163 165 168 175 191 203 204 198 193 187 173 126 38 9 0 0 0 0 0 0 0 0 0 0 0 1 1 1 1 1 0 0 0 0 0 0 0 0 0 0 0 0 0 0 0 0 0 0 0 0 0 0 0 0 0 0 0 0 0 0 
0 0 0 0 0 0 0 0 0 0 0 0 0 0 0 0 0 0 0 0 7 16 14 18 71 148 167 184 198 204 197 174 165 164 164 160 154 150 148 145 144 139 131 124 120 120 116 119 121 120 118 111 110 120 121 123 124 124 123 125 128 129 131 133 138 141 144 146 150 155 157 161 166 182 196 202 198 193 186 174 130 37 6 0 0 0 0 0 0 0 0 0 0 1 1 1 1 1 0 0 0 0 0 0 0 0 0 0 0 0 0 0 0 0 0 0 0 0 0 0 0 0 0 0 0 0 0 0 
0 0 0 0 0 0 0 0 0 0 0 0 0 0 0 0 0 0 0 6 16 13 19 79 151 168 182 196 203 193 169 159 160 159 154 149 145 143 139 133 127 124 124 123 123 120 116 117 117 113 115 107 109 117 118 119 121 122 122 122 124 125 126 128 127 127 132 140 145 146 146 148 155 161 176 192 201 199 193 184 172 122 29 3 0 0 0 0 0 0 0 0 0 0 1 1 1 1 0 0 0 0 0 0 0 0 0 0 0 0 0 0 0 0 0 0 0 0 0 0 0 0 0 0 0 0 0 0 
0 0 0 0 0 0 0 0 0 0 0 0 0 0 0 0 0 0 5 16 13 20 84 152 166 179 193 201 187 165 159 156 154 152 146 139 134 133 128 123 124 123 121 121 117 113 113 114 112 112 109 104 106 116 118 118 118 119 120 121 120 120 119 120 124 123 126 131 140 144 143 142 145 150 158 171 187 201 199 191 180 167 107 19 2 0 0 0 0 0 0 0 0 1 1 1 1 1 0 0 0 0 0 0 0 0 0 0 0 0 0 0 0 0 0 0 0 0 0 0 0 0 0 0 0 0 0 0 
0 0 0 0 0 0 0 0 0 0 0 0 0 0 0 0 0 2 15 13 19 81 148 162 175 190 201 185 163 156 154 150 147 144 136 129 129 126 123 124 121 117 115 112 111 112 112 111 113 109 102 103 105 115 117 118 120 119 118 119 120 118 116 115 116 120 124 128 133 136 139 140 141 144 150 156 166 183 201 197 188 176 158 83 11 0 0 0 0 0 0 0 0 1 1 1 1 1 0 0 0 0 0 0 0 0 0 0 0 0 0 0 0 0 0 0 0 0 0 0 0 0 0 0 0 0 0 0 
0 0 0 0 0 0 0 0 0 0 0 0 0 0 0 0 0 11 12 16 73 142 157 170 185 198 184 162 155 152 147 144 143 138 127 126 124 122 122 119 113 109 109 111 111 111 109 109 110 101 101 104 106 108 113 114 116 115 117 119 121 118 116 114 112 114 120 125 128 130 131 131 134 136 142 149 156 162 185 201 196 185 170 142 53 4 0 0 0 0 0 0 0 1 1 1 1 2 0 0 0 0 0 0 0 0 0 0 0 0 0 0 0 0 0 0 0 0 0 0 0 0 0 0 0 0 0 0 
0 0 0 0 0 0 0 0 0 0 0 0 0 0 0 0 6 12 14 60 134 151 166 181 195 185 159 153 149 144 142 138 132 126 125 123 122 123 119 112 110 110 111 111 110 107 106 105 101 98 100 103 104 107 107 106 109 109 107 107 111 114 115 112 109 108 111 122 124 125 127 127 127 131 134 141 147 152 158 188 201 193 179 161 117 25 1 0 0 0 0 0 0 1 1 1 1 2 0 0 0 0 0 0 0 0 0 0 0 0 0 0 0 0 0 0 0 0 0 0 0 0 0 0 0 0 0 0 
0 0 0 0 0 0 0 0 0 0 0 0 0 0 0 1 12 13 47 123 146 160 176 191 186 160 149 147 143 143 135 130 128 127 124 122 120 116 112 111 107 103 101 100 101 101 102 102 104 102 106 104 103 106 104 102 103 103 104 104 105 108 110 110 108 107 107 111 119 122 121 122 122 127 132 136 146 146 147 161 193 198 187 172 148 79 7 0 0 0 0 0 0 1 1 1 1 2 0 0 0 0 0 0 0 0 0 0 0 0 0 0 0 0 0 0 0 0 0 0 0 0 0 0 0 0 0 0 
0 0 0 0 0 0 0 0 0 0 0 0 0 0 0 7 11 26 102 138 153 169 186 187 164 149 144 141 141 139 131 127 125 123 120 117 115 112 110 103 98 98 100 100 98 100 101 101 103 104 108 106 102 103 101 100 100 100 100 102 102 102 106 108 110 109 108 109 113 118 118 119 121 121 128 135 142 142 144 145 169 194 191 178 161 122 30 1 0 0 0 0 0 1 1 1 1 2 0 0 0 0 0 0 0 0 0 0 0 0 0 0 0 0 0 0 0 0 0 0 0 0 0 0 0 0 0 0 
0 0 0 0 0 0 0 0 0 0 0 0 0 0 2 9 13 74 130 145 161 178 182 171 148 139 139 138 140 135 129 123 121 121 119 114 112 108 102 99 98 99 100 99 99 99 101 102 102 103 110 109 105 107 103 102 102 103 102 101 101 102 102 104 105 109 107 106 109 113 115 119 120 121 124 132 139 139 139 138 148 179 190 182 167 143 69 4 0 0 0 0 0 1 1 1 1 2 0 0 0 0 0 0 0 0 0 0 0 0 0 0 0 0 0 0 0 0 0 0 0 0 0 0 0 0 0 0 
0 0 0 0 0 0 0 0 0 0 0 0 0 0 6 9 40 114 136 151 171 177 168 158 138 134 136 139 138 133 125 121 120 118 115 108 105 102 101 100 99 99 98 98 101 103 106 106 103 104 111 112 108 107 98 99 104 104 103 103 100 102 102 101 101 103 106 106 107 110 111 117 120 118 121 131 139 138 136 132 137 162 181 184 173 153 106 17 0 0 0 0 0 1 1 1 1 2 0 0 0 0 0 0 0 0 0 0 0 0 0 0 0 0 0 0 0 0 0 0 0 0 0 0 0 0 0 0 
0 0 0 0 0 0 0 0 0 0 0 0 0 0 7 15 84 126 144 159 176 164 162 144 132 132 134 137 134 129 120 116 116 116 112 104 103 104 101 99 98 98 100 101 101 105 106 105 105 102 104 109 109 103 96 96 97 103 104 102 100 101 101 103 103 104 106 108 107 108 111 114 119 120 123 128 137 138 133 129 131 154 171 181 175 159 129 38 2 0 0 0 0 1 1 1 1 2 0 0 0 0 0 0 0 0 0 0 0 0 0 0 0 0 0 0 0 0 0 0 0 0 0 0 0 0 0 0 
0 0 0 0 0 0 0 0 0 0 0 0 0 3 6 37 111 133 149 168 171 159 154 134 129 130 132 135 131 123 119 118 116 114 106 104 105 103 100 98 99 99 101 102 101 103 104 105 103 99 99 103 109 100 95 92 96 99 95 98 100 100 100 103 106 105 104 109 110 108 108 112 118 118 120 130 136 135 129 126 125 148 164 180 177 164 139 61 3 0 0 0 0 1 1 1 1 2 0 0 0 0 0 0 0 0 0 0 0 0 0 0 0 0 0 0 0 0 0 0 0 0 0 0 0 0 0 0 
0 0 0 0 0 0 0 0 0 0 0 0 0 4 9 69 123 138 155 172 157 152 144 129 129 127 128 130 125 121 121 119 117 110 102 105 107 103 100 99 102 103 100 100 100 101 100 102 103 101 100 102 108 102 95 94 97 96 95 95 95 99 100 102 107 107 106 108 113 112 108 111 117 117 119 129 135 129 126 123 120 141 157 176 178 165 146 81 6 0 0 0 0 1 1 1 1 2 0 0 0 0 0 0 0 0 0 0 0 0 0 0 0 0 0 0 0 0 0 0 0 0 0 0 0 0 0 0 
0 0 0 0 0 0 0 0 0 0 0 0 0 6 17 94 128 144 163 165 144 142 137 124 124 123 125 126 118 121 121 120 116 107 106 109 107 102 100 103 105 101 97 97 102 101 100 102 102 99 97 97 104 97 92 92 95 97 97 97 97 98 99 103 106 109 110 109 111 114 112 111 115 118 117 124 130 127 122 122 119 136 151 173 178 166 149 98 10 0 0 0 0 1 1 1 1 2 0 0 0 0 0 0 0 0 0 0 0 0 0 0 0 0 0 0 0 0 0 0 0 0 0 0 0 0 0 0 
0 0 0 0 0 0 0 0 0 0 0 0 1 5 33 112 133 151 164 148 135 137 134 124 119 119 120 123 116 119 120 117 114 110 110 110 104 102 104 104 97 94 96 101 101 100 98 98 97 94 93 92 102 93 91 93 94 95 93 96 100 103 101 103 107 108 112 113 111 111 115 114 114 117 119 122 124 125 119 116 116 134 154 169 179 169 152 114 16 0 0 0 0 1 1 1 1 2 0 0 0 0 0 0 0 0 0 0 0 0 0 0 0 0 0 0 0 0 0 0 0 0 0 0 0 0 0 0 
0 0 0 0 0 0 0 0 0 0 0 0 2 6 49 119 137 156 157 139 130 133 134 122 115 114 119 120 116 115 117 115 114 113 109 110 105 104 102 95 92 95 96 96 98 98 96 91 93 95 95 97 96 92 92 91 90 90 93 96 98 102 104 104 106 109 110 117 117 113 114 116 115 115 120 123 118 119 117 113 112 131 152 164 180 173 157 127 26 1 0 0 0 1 1 1 1 2 0 0 0 0 0 0 0 0 0 0 0 0 0 0 0 0 0 0 0 0 0 0 0 0 0 0 0 0 0 0 
0 0 0 0 0 0 0 0 0 0 0 0 2 7 63 125 143 159 150 136 127 133 135 120 111 111 115 119 113 111 116 115 115 114 111 110 108 105 99 90 92 94 93 93 95 95 93 93 93 94 97 100 97 93 91 90 89 93 93 95 93 96 100 101 103 107 110 113 119 117 114 116 117 116 118 123 113 111 115 114 113 132 153 165 181 177 161 137 37 2 0 0 0 1 1 1 1 2 0 0 0 0 0 0 0 0 0 0 0 0 0 0 0 0 0 0 0 0 0 0 0 0 0 0 0 0 0 0 
0 0 0 0 0 0 0 0 0 0 0 0 3 9 72 128 148 158 149 139 129 132 133 122 113 109 114 116 107 109 116 116 116 113 110 113 107 105 105 98 98 95 92 93 91 92 92 94 93 93 97 99 96 91 88 89 86 88 93 94 92 95 98 100 101 105 107 115 123 122 118 118 119 119 117 122 111 108 112 110 113 136 154 165 179 180 166 147 50 3 0 0 0 1 1 1 1 2 0 0 0 0 0 0 0 0 0 0 0 0 0 0 0 0 0 0 0 0 0 0 0 0 0 0 0 0 0 0 
0 0 0 0 0 0 0 0 0 0 0 0 3 11 81 133 153 160 150 141 133 133 135 124 113 109 112 111 104 108 118 116 115 114 113 114 112 108 111 113 110 102 95 96 95 94 96 99 94 95 97 97 98 91 91 90 88 85 93 94 92 96 98 97 101 108 114 121 122 122 123 124 123 120 120 126 113 109 108 107 116 138 152 163 181 181 170 154 62 4 0 0 0 1 1 1 1 2 0 0 0 0 0 0 0 0 0 0 0 0 0 0 0 0 0 0 0 0 0 0 0 0 0 0 0 0 0 0 
0 0 0 0 0 0 0 0 0 0 0 0 4 12 86 137 157 164 152 145 137 135 136 125 116 111 111 109 103 107 120 118 118 118 119 116 109 101 97 97 94 94 100 104 102 99 97 99 98 98 100 99 101 93 92 93 90 85 92 90 92 97 102 105 102 98 96 97 101 104 109 116 129 132 126 131 125 113 109 111 123 138 149 159 179 184 172 156 77 6 0 0 0 1 1 1 1 2 0 0 0 0 0 0 0 0 0 0 0 0 0 0 0 0 0 0 0 0 0 0 0 0 0 0 0 0 0 0 
0 0 0 0 0 0 0 0 0 0 0 0 5 13 89 140 159 165 151 146 142 140 138 128 120 114 111 104 103 112 123 120 125 124 113 105 97 87 81 83 84 84 86 92 99 106 102 97 94 95 98 98 105 99 94 91 88 84 88 88 95 104 101 95 92 88 91 91 92 95 97 98 111 128 139 138 138 123 113 119 128 137 145 153 173 185 175 159 91 7 0 0 0 1 1 1 1 2 0 0 0 0 0 0 0 0 0 0 0 0 0 0 0 0 0 0 0 0 0 0 0 0 0 0 0 0 0 0 
0 0 0 0 0 0 0 0 0 0 0 0 6 14 93 144 162 163 152 146 142 139 141 136 128 120 113 103 105 119 126 126 129 112 98 91 87 82 80 85 84 83 86 88 90 96 103 102 94 95 97 98 104 103 97 92 87 86 88 93 104 94 90 89 90 94 96 96 99 102 100 97 99 113 134 149 145 136 124 126 131 133 138 147 162 183 177 162 104 11 0 0 0 1 1 1 1 2 0 0 0 0 0 0 0 0 0 0 0 0 0 0 0 0 0 0 0 0 0 0 0 0 0 0 0 0 0 0 
0 0 0 0 0 0 0 0 0 0 0 0 7 14 95 147 162 164 150 143 139 136 136 136 133 124 119 112 109 123 133 133 113 95 92 91 87 85 88 91 90 87 85 88 91 94 95 102 96 98 99 102 107 110 108 101 94 92 88 102 97 88 86 86 91 95 96 99 100 103 105 105 107 115 129 151 150 142 134 130 128 128 132 140 152 177 178 163 118 16 0 0 0 1 1 1 1 2 0 0 0 0 0 0 0 0 0 0 0 0 0 0 0 0 0 0 0 0 0 0 0 0 0 0 0 0 0 0 
0 0 0 0 0 0 0 0 0 0 0 0 7 14 96 148 165 165 145 138 136 136 132 129 130 128 122 121 128 128 138 127 100 92 91 89 86 87 90 90 90 89 87 88 88 90 96 98 100 98 102 109 116 114 119 105 97 91 90 104 89 82 81 86 93 96 98 101 101 106 107 105 112 124 131 136 145 141 142 132 125 123 126 133 143 168 178 164 128 24 0 0 0 1 1 1 1 2 0 0 0 0 0 0 0 0 0 0 0 0 0 0 0 0 0 0 0 0 0 0 0 0 0 0 0 0 0 0 
0 0 0 0 0 0 0 0 0 0 0 0 8 15 99 151 166 166 136 133 134 132 130 124 126 129 123 121 132 137 144 126 110 101 98 94 90 90 87 88 87 89 89 87 88 90 96 100 101 101 106 112 122 115 124 106 96 91 97 100 83 79 84 89 94 97 97 100 103 107 109 107 114 120 120 123 131 140 143 132 122 120 122 122 132 160 177 164 134 34 1 0 0 1 1 1 1 2 0 0 0 0 0 0 0 0 0 0 0 0 0 0 0 0 0 0 0 0 0 0 0 0 0 0 0 0 0 0 
0 0 0 0 0 0 0 0 0 0 0 0 8 16 100 151 168 167 133 132 132 129 125 119 121 121 119 122 129 130 135 127 119 110 103 98 96 93 90 89 89 91 89 89 90 91 94 99 98 100 106 115 117 113 117 114 103 99 99 92 81 81 89 94 95 97 98 97 100 104 106 106 110 113 116 118 123 135 139 132 119 114 115 115 121 149 173 165 138 43 2 0 0 1 1 1 1 2 0 0 0 0 0 0 0 0 0 0 0 0 0 0 0 0 0 0 0 0 0 0 0 0 0 0 0 0 0 0 
0 0 0 0 0 0 0 0 0 0 0 0 8 17 103 154 170 165 130 130 129 124 119 111 113 117 118 121 122 121 123 117 109 106 100 95 93 92 89 85 87 88 90 91 91 91 92 97 101 102 105 105 106 109 107 111 106 104 99 86 83 86 90 91 92 93 92 93 96 100 101 102 109 113 115 113 123 134 137 131 114 110 110 112 114 137 168 164 140 51 3 0 0 1 1 1 1 2 0 0 0 0 0 0 0 0 0 0 0 0 0 0 0 0 0 0 0 0 0 0 0 0 0 0 0 0 0 0 
0 0 0 0 0 0 0 0 0 0 0 0 8 17 103 155 171 160 124 125 120 116 110 103 106 111 114 124 123 116 117 113 102 103 96 91 88 90 89 87 85 87 88 91 90 89 91 92 99 103 111 108 102 104 103 111 107 109 104 87 86 87 91 86 83 86 91 92 94 98 100 101 105 110 109 111 124 133 133 132 117 108 105 107 107 125 154 162 143 58 3 0 0 1 1 1 1 2 0 0 0 0 0 0 0 0 0 0 0 0 0 0 0 0 0 0 0 0 0 0 0 0 0 0 0 0 0 0 
0 0 0 0 0 0 0 0 0 0 0 0 8 18 101 155 171 154 117 116 113 109 103 97 99 105 109 123 125 117 113 112 102 99 93 88 87 86 87 84 86 88 87 87 85 87 91 89 89 103 119 122 111 99 101 94 113 106 99 91 92 91 91 80 81 86 89 92 95 96 99 99 102 109 107 111 123 129 129 135 126 108 105 108 108 121 136 152 145 63 3 0 0 1 1 1 1 2 0 0 0 0 0 0 0 0 0 0 0 0 0 0 0 0 0 0 0 0 0 0 0 0 0 0 0 0 0 0 
0 0 0 0 0 0 0 0 0 0 0 0 8 17 99 154 169 145 115 111 106 104 101 98 98 101 112 118 122 117 112 111 104 96 92 90 88 88 89 88 85 84 86 88 87 90 94 86 85 99 115 121 102 91 93 81 99 112 92 95 92 90 84 81 86 87 91 93 93 95 97 97 101 104 104 113 123 129 136 137 129 109 104 105 109 119 132 152 145 64 3 0 0 1 1 1 1 2 0 0 0 0 0 0 0 0 0 0 0 0 0 0 0 0 0 0 0 0 0 0 0 0 0 0 0 0 0 0 
0 0 0 0 0 0 0 0 0 0 0 0 7 16 93 152 167 136 115 108 106 106 102 99 100 103 114 113 119 117 115 111 105 96 92 90 88 89 89 90 87 83 81 84 87 90 92 83 83 100 116 109 85 80 87 78 84 118 85 91 90 87 82 86 87 88 92 92 94 96 96 96 102 102 103 118 131 138 134 133 129 110 103 102 108 117 132 155 139 61 3 0 0 1 1 1 1 1 0 0 0 0 0 0 0 0 0 0 0 0 0 0 0 0 0 0 0 0 0 0 0 0 0 0 0 0 0 0 
0 0 0 0 0 0 0 0 0 0 0 0 6 15 85 150 165 132 112 107 105 105 102 99 98 102 114 112 116 117 118 113 104 100 93 88 89 92 90 89 88 85 79 78 82 86 90 82 88 103 111 90 85 82 88 77 77 110 102 89 86 83 82 89 88 88 92 94 95 95 95 95 102 99 101 118 137 132 127 132 127 108 103 101 106 114 131 154 135 56 2 0 0 1 1 1 1 1 0 0 0 0 0 0 0 0 0 0 0 0 0 0 0 0 0 0 0 0 0 0 0 0 0 0 0 0 0 0 
0 0 0 0 0 0 0 0 0 0 0 0 4 15 78 146 164 135 114 108 103 103 103 98 96 97 111 113 115 116 119 114 103 101 95 93 93 95 94 91 89 84 82 78 81 84 86 76 88 106 106 88 86 90 95 80 76 89 111 91 85 80 82 88 88 90 93 94 92 92 93 96 100 96 101 118 131 127 124 130 125 106 103 101 105 112 134 150 128 50 2 0 0 1 1 1 1 1 0 0 0 0 0 0 0 0 0 0 0 0 0 0 0 0 0 0 0 0 0 0 0 0 0 0 0 0 0 0 
0 0 0 0 0 0 0 0 0 0 0 0 2 14 72 141 160 139 115 107 103 101 102 101 97 93 107 114 117 116 120 114 102 99 96 94 95 95 95 94 89 82 78 78 78 81 81 79 94 108 93 86 85 94 101 86 80 77 106 99 96 87 84 88 89 90 92 91 89 90 93 98 96 94 101 116 124 125 123 127 123 105 103 101 102 111 137 145 120 44 2 0 0 1 1 1 1 1 0 0 0 0 0 0 0 0 0 0 0 0 0 0 0 0 0 0 0 0 0 0 0 0 0 0 0 0 0 0 
0 0 0 0 0 0 0 0 0 6 5 0 0 12 63 134 155 141 117 105 101 100 101 102 97 91 102 114 117 116 119 112 102 98 97 95 95 92 93 93 90 86 81 78 85 95 92 89 96 99 88 83 85 99 100 88 83 79 91 108 111 107 101 95 92 93 96 94 90 91 93 98 92 93 102 115 121 124 127 128 122 105 100 98 99 112 139 139 109 38 2 0 0 1 1 1 1 2 0 0 0 0 0 0 0 0 0 0 0 0 0 0 0 0 0 0 0 0 0 0 0 0 0 0 0 0 0 0 
0 0 0 0 0 0 0 0 0 3 9 3 1 9 52 126 153 140 116 105 98 99 101 102 97 90 103 116 116 115 117 113 102 97 98 95 94 92 91 92 97 97 93 86 89 93 98 91 102 93 87 82 84 96 94 91 89 84 85 116 121 121 110 101 96 92 93 96 91 89 90 93 91 93 101 115 121 120 124 131 127 106 96 97 98 112 140 133 100 33 1 0 0 1 1 1 1 2 0 0 0 0 0 0 0 0 0 0 0 0 0 0 0 0 0 0 0 0 0 0 0 0 0 0 0 0 0 0 
0 0 0 0 0 0 0 0 0 2 4 9 3 7 41 115 148 138 112 102 96 96 101 102 99 91 103 117 116 116 117 114 103 97 98 96 93 93 92 94 98 95 90 92 102 109 102 94 105 83 84 81 83 97 93 85 89 88 92 120 123 115 107 110 110 106 104 100 92 89 89 93 97 103 105 120 125 123 125 134 135 115 97 97 99 119 140 128 92 26 1 0 0 1 1 1 1 1 0 0 0 0 0 0 0 0 0 0 0 0 0 0 0 0 0 0 0 0 0 0 0 0 0 0 0 0 0 0 
0 0 0 0 0 0 0 0 0 1 3 10 4 7 32 102 142 141 113 103 99 99 101 101 100 93 105 116 116 119 123 123 115 102 98 97 93 95 100 100 101 100 99 103 98 98 94 104 105 82 79 80 81 101 91 84 85 83 90 117 131 114 106 106 112 122 134 130 123 120 123 122 124 126 132 135 123 119 127 136 137 125 103 98 107 128 141 120 84 18 1 0 1 8 5 1 1 1 0 0 0 0 0 0 0 0 0 0 0 0 0 0 0 0 0 0 0 0 0 0 0 0 0 0 0 0 0 0 
0 0 0 0 0 0 0 0 0 0 2 9 5 7 25 90 137 146 117 109 105 97 97 100 100 100 108 114 116 119 125 123 125 127 118 111 110 112 115 113 111 105 90 90 99 100 96 103 106 80 79 85 83 98 90 79 81 83 88 122 132 110 107 107 111 122 146 152 144 146 151 149 143 129 130 136 135 126 128 136 137 127 118 110 107 137 134 115 77 12 3 2 5 3 2 1 1 1 0 0 0 0 0 0 0 0 0 0 0 0 0 0 0 0 0 0 0 0 0 0 0 0 0 0 0 0 0 0 
0 0 0 0 0 0 0 0 0 0 1 8 6 8 19 81 130 151 132 111 105 95 93 99 104 112 112 116 118 120 121 118 117 122 125 126 127 119 114 111 110 103 99 99 100 96 96 105 108 88 82 89 88 103 93 79 81 88 100 129 130 114 105 106 112 127 146 150 149 153 149 143 135 125 130 128 140 142 138 136 136 131 124 127 142 140 121 112 67 9 3 3 5 2 1 1 1 1 0 0 0 0 0 0 0 0 0 0 0 0 0 0 0 0 0 0 0 0 0 0 0 0 0 0 0 0 0 0 
0 0 0 0 0 0 0 0 0 0 1 8 7 9 14 67 121 147 147 116 106 95 97 109 116 113 118 122 120 120 124 127 131 130 124 126 123 121 120 117 111 102 96 95 95 93 95 102 110 98 88 89 91 107 95 83 89 97 108 120 118 116 110 111 118 130 143 146 146 146 141 141 145 147 144 147 149 152 159 154 149 146 142 151 160 137 111 107 52 6 3 2 3 1 1 1 1 2 0 0 0 0 0 0 0 0 0 0 0 0 0 0 0 0 0 0 0 0 0 0 0 0 0 0 0 0 0 0 
0 0 0 0 0 0 0 0 0 0 0 8 8 9 13 54 113 144 151 130 112 110 116 117 124 123 125 132 129 120 132 143 146 152 152 141 138 136 125 111 102 94 97 93 90 91 98 112 111 94 95 95 88 107 94 88 89 100 108 108 114 107 111 114 120 134 149 152 152 151 150 152 153 146 133 141 139 148 160 162 169 172 168 175 176 126 118 102 32 7 4 3 2 1 1 1 1 1 0 0 0 0 0 0 0 0 0 0 0 0 0 0 0 0 0 0 0 0 0 0 0 0 0 0 0 0 0 0 
0 0 0 0 0 0 0 0 0 0 0 8 10 8 9 37 108 141 149 145 134 144 135 134 139 139 139 135 129 128 137 149 152 157 154 143 147 145 133 113 107 103 99 91 92 93 106 113 98 89 92 95 95 117 99 85 83 93 102 102 109 110 109 115 119 123 133 142 148 153 150 146 140 131 134 137 139 146 158 165 170 176 182 179 159 121 118 84 16 6 5 2 2 1 1 1 1 1 0 0 0 0 0 0 0 0 0 0 0 0 0 0 0 0 0 0 0 0 0 0 0 0 0 0 0 0 0 0 
0 0 0 0 0 0 0 0 0 0 0 5 11 7 7 12 61 127 146 147 151 168 174 158 157 153 142 138 135 138 151 158 154 152 156 146 143 143 139 118 109 109 108 99 94 93 102 110 100 90 93 100 97 113 117 94 81 87 93 102 106 106 113 114 115 116 121 133 137 136 128 132 133 129 135 144 147 148 151 158 164 166 169 164 145 120 115 92 17 6 7 4 2 1 1 1 1 1 0 0 0 0 0 0 0 0 0 0 0 0 0 0 0 0 0 0 0 0 0 0 0 0 0 0 0 0 0 0 
0 0 0 0 0 0 0 0 0 0 0 6 8 5 6 10 37 114 148 149 155 171 171 170 165 162 158 150 134 127 139 150 158 156 159 154 149 149 135 112 106 110 111 107 100 99 109 107 103 95 94 102 103 118 116 100 82 79 86 96 105 102 101 110 115 117 122 130 133 124 118 121 119 129 137 143 141 142 140 145 155 167 156 139 117 120 118 63 8 5 7 4 2 1 1 1 1 1 0 0 0 0 0 0 0 0 0 0 0 0 0 0 0 0 0 0 0 0 0 0 0 0 0 0 0 0 0 0 
0 0 0 0 0 0 0 0 0 0 0 6 6 5 4 9 22 91 144 147 148 154 158 149 164 165 159 149 139 133 130 139 145 153 157 155 149 143 128 117 108 108 112 113 102 99 112 103 97 100 101 98 93 113 121 109 85 83 93 97 103 109 107 108 103 101 115 127 130 129 129 122 123 139 145 146 141 147 140 137 145 156 133 121 123 124 108 32 6 4 6 5 2 1 1 1 1 1 0 0 0 0 0 0 0 0 0 0 0 0 0 0 0 0 0 0 0 0 0 0 0 0 0 0 0 0 0 0 
0 0 0 0 0 0 0 0 0 0 0 5 4 4 3 8 17 62 133 146 142 136 145 144 138 147 149 142 139 144 131 126 134 141 142 145 143 135 128 122 105 104 103 99 98 102 114 101 105 112 108 102 95 102 119 120 93 93 99 95 103 116 118 121 108 91 93 103 110 115 122 119 122 141 149 153 149 148 142 139 131 135 130 116 118 118 77 15 7 6 6 4 3 2 1 1 1 1 0 0 0 0 0 0 0 0 0 0 0 0 0 0 0 0 0 0 0 0 0 0 0 0 0 0 0 0 0 0 
0 0 0 0 0 0 0 0 0 0 0 4 4 4 4 9 15 33 112 134 132 131 138 143 143 136 132 129 135 149 146 128 121 124 137 142 139 133 127 107 95 92 100 105 103 105 123 109 116 116 114 108 98 98 121 123 104 99 103 105 108 122 125 125 118 96 87 88 96 106 110 123 136 139 145 153 157 154 151 146 141 136 119 101 103 111 43 11 6 6 6 2 3 3 1 1 1 1 0 0 0 0 0 0 0 0 0 0 0 0 0 0 0 0 0 0 0 0 0 0 0 0 0 0 0 0 0 0 
0 0 0 0 0 0 0 0 0 0 1 3 4 3 2 8 15 18 81 121 120 127 134 142 137 136 132 126 131 145 149 135 117 117 132 139 141 138 120 98 85 97 102 106 107 112 121 121 120 120 127 126 112 110 136 130 113 105 112 115 113 126 126 126 122 106 88 85 95 110 116 130 130 129 139 148 156 161 172 162 146 123 106 85 94 85 20 11 6 6 4 2 2 3 1 1 1 1 0 0 0 0 0 0 0 0 0 0 0 0 0 0 0 0 0 0 0 0 0 0 0 0 0 0 0 0 0 0 
0 0 0 0 0 0 0 0 0 0 1 3 4 4 2 5 13 14 47 115 127 123 134 147 147 141 137 135 140 144 145 130 114 116 117 121 120 115 106 97 91 99 102 110 121 125 125 129 134 134 140 142 148 151 151 139 137 138 130 127 128 139 139 133 126 110 94 90 102 121 115 112 123 121 133 146 158 167 178 167 136 114 94 87 101 57 13 12 7 7 5 2 2 3 1 1 1 1 0 0 0 0 0 0 0 0 0 0 0 0 0 0 0 0 0 0 0 0 0 0 0 0 0 0 0 0 0 0 
0 0 0 0 0 0 0 0 0 0 1 2 5 4 2 5 11 14 25 100 123 113 122 131 154 154 152 143 146 145 146 138 129 124 113 115 107 94 91 104 105 111 112 118 130 138 136 139 148 149 149 152 161 169 172 164 157 152 142 140 146 161 163 152 135 124 120 117 119 125 110 112 122 120 123 146 155 173 170 159 127 103 83 84 97 32 11 12 6 6 5 2 3 3 1 1 1 1 0 0 0 0 0 0 0 0 0 0 0 0 0 0 0 0 0 0 0 0 0 0 0 0 0 0 0 0 0 0 
0 0 0 0 0 0 0 0 0 0 1 3 6 3 3 5 11 13 15 67 117 117 111 117 147 161 159 151 146 145 147 145 133 128 119 116 111 103 100 107 133 132 131 131 136 146 150 149 150 142 142 146 146 146 152 154 150 144 136 137 144 159 168 165 150 143 139 135 140 117 104 106 113 117 115 140 154 175 161 144 125 113 91 98 80 19 9 9 5 5 5 3 4 3 1 1 1 0 0 0 0 0 0 0 0 0 0 0 0 0 0 0 0 0 0 0 0 0 0 0 0 0 0 0 0 0 0 0 
0 0 0 0 0 0 0 0 0 0 1 3 5 3 2 5 9 10 12 41 94 112 113 115 134 154 160 159 148 145 142 145 137 127 116 118 118 119 123 129 137 152 154 148 150 149 151 156 150 146 140 145 143 148 145 145 145 146 137 139 144 155 169 166 166 161 152 156 146 112 98 96 105 116 122 140 157 170 151 127 109 101 108 97 66 16 9 8 5 4 4 3 4 3 1 1 1 0 0 0 0 0 0 0 0 0 0 0 0 0 0 0 0 0 0 0 0 0 0 0 0 0 0 0 0 0 0 0 
0 0 0 0 0 0 0 0 0 0 0 5 13 9 3 4 8 9 12 28 81 112 121 109 119 137 157 160 152 137 137 139 135 121 109 108 111 115 120 129 138 156 166 167 162 159 160 159 151 150 148 155 156 155 150 144 147 150 136 138 141 148 157 164 168 162 154 157 147 110 89 95 110 122 142 154 160 163 146 125 96 86 98 98 58 16 7 6 6 4 4 3 4 3 1 1 1 0 0 0 0 0 0 0 0 0 0 0 0 0 0 0 0 0 0 0 0 0 0 0 0 0 0 0 0 0 0 0 
0 0 0 0 0 0 0 0 0 0 0 4 12 13 9 7 8 10 13 21 65 100 116 114 112 117 146 150 162 139 128 127 133 108 100 102 104 111 116 119 128 146 160 166 165 162 165 161 158 157 155 163 162 159 153 132 134 140 128 126 131 144 146 164 171 169 164 160 147 110 93 96 107 119 158 172 173 170 152 107 87 85 97 91 39 15 5 4 5 4 3 4 4 4 3 1 1 0 0 0 0 0 0 0 0 0 0 0 0 0 0 0 0 0 0 0 0 0 0 0 0 0 0 0 0 0 0 0 
0 0 0 0 0 0 0 0 0 0 0 3 11 11 10 8 8 12 16 16 34 84 114 114 101 111 136 152 164 147 139 131 133 111 93 99 106 108 108 109 115 140 158 159 161 157 154 152 154 154 158 169 164 162 141 116 117 127 128 124 130 148 152 161 180 174 166 161 147 118 96 97 109 133 161 163 172 158 141 97 79 80 80 64 19 14 7 5 5 5 5 5 7 4 3 1 1 0 0 0 0 0 0 0 0 0 0 0 0 0 0 0 0 0 0 0 0 0 0 0 0 0 0 0 0 0 0 0 
0 0 0 0 0 0 0 0 0 0 0 2 11 10 9 9 9 9 13 15 17 49 105 107 105 105 123 149 164 164 153 139 128 123 102 93 93 94 97 105 124 143 153 154 154 151 147 145 145 141 152 152 141 159 154 129 124 128 127 122 139 158 150 167 172 172 166 165 161 133 121 118 133 145 146 145 126 105 104 74 64 84 90 36 11 9 9 7 5 6 6 6 12 6 2 1 1 0 0 0 0 0 0 0 0 0 0 0 0 0 0 0 0 0 0 0 0 0 0 0 0 0 0 0 0 0 0 0 
0 0 0 0 0 0 0 0 0 0 0 0 9 11 6 6 6 5 10 15 20 27 70 97 91 89 112 144 151 164 164 147 131 131 120 104 102 106 113 133 134 166 173 170 167 164 160 165 168 168 167 156 159 175 177 161 152 154 154 151 159 165 176 180 169 169 165 171 167 162 142 141 141 139 114 95 90 88 92 73 93 95 53 17 10 2 2 4 5 5 5 7 8 5 1 1 1 0 0 0 0 0 0 0 0 0 0 0 0 0 0 0 0 0 0 0 0 0 0 0 0 0 0 0 0 0 0 0 
0 0 0 0 0 0 0 0 0 0 0 0 3 7 5 2 3 3 5 11 18 21 36 81 84 74 90 102 100 140 145 148 142 139 129 111 115 121 130 142 168 181 183 185 187 194 189 195 187 179 178 179 178 174 172 167 167 171 173 178 185 188 198 199 195 201 182 187 144 137 145 138 104 85 79 83 83 83 85 73 71 47 29 22 13 2 0 1 2 3 5 7 6 1 0 1 1 0 0 0 0 0 0 0 0 0 0 0 0 0 0 0 0 0 0 0 0 0 0 0 0 0 0 0 0 0 0 0 
0 0 0 0 0 0 0 0 0 0 0 0 0 3 3 2 1 0 0 7 14 20 24 45 79 82 63 54 65 75 94 109 133 135 126 122 115 130 149 165 172 174 177 177 186 190 184 182 178 168 161 166 165 160 158 156 156 156 160 166 168 185 197 180 168 185 175 167 152 135 119 104 89 78 77 90 94 90 69 47 41 40 35 25 18 0 0 0 1 1 2 7 7 0 1 1 1 0 0 0 0 0 0 0 0 0 0 0 0 0 0 0 0 0 0 0 0 0 0 0 0 0 0 0 0 0 0 0 
0 0 0 0 0 0 0 0 0 0 0 0 0 2 5 4 4 2 3 4 10 14 19 22 36 51 35 43 66 63 64 61 79 84 80 90 83 73 76 77 91 119 139 142 137 134 132 117 125 101 95 108 117 115 113 109 93 86 102 100 97 113 102 133 131 151 122 81 65 64 57 65 62 56 56 76 83 82 50 30 28 26 20 7 3 0 3 3 2 2 2 8 5 0 1 1 1 0 0 0 0 0 0 0 0 0 0 0 0 0 0 0 0 0 0 0 0 0 0 0 0 0 0 0 0 0 0 0 
0 0 0 0 0 0 0 0 0 0 0 0 0 0 3 3 3 3 2 1 6 10 13 16 22 22 23 34 66 64 61 62 62 64 63 63 69 62 68 70 82 86 81 82 90 94 81 69 74 77 59 74 89 91 90 88 72 60 73 73 82 99 88 79 77 92 89 97 105 98 63 65 63 54 54 75 84 81 47 29 28 25 16 6 3 1 2 1 2 2 3 5 1 0 1 1 1 0 0 0 0 0 0 0 0 0 0 0 0 0 0 0 0 0 0 0 0 0 0 0 0 0 0 0 0 0 0 0 
0 0 0 0 0 0 0 0 0 0 0 0 0 0 0 0 0 1 0 0 4 9 10 15 21 26 27 36 69 74 65 65 68 71 69 66 76 93 115 125 138 139 108 100 102 103 95 96 102 90 76 89 95 96 95 93 89 75 94 107 106 115 103 95 116 137 102 88 92 83 80 85 77 72 74 86 90 83 48 33 28 24 14 9 1 0 0 0 1 1 1 1 0 0 0 1 1 0 0 0 0 0 0 0 0 0 0 0 0 0 0 0 0 0 0 0 0 0 0 0 0 0 0 0 0 0 0 0 
0 0 0 0 0 0 0 0 0 0 0 0 0 0 0 0 0 0 0 0 0 4 4 8 15 29 36 45 76 87 78 74 78 86 86 87 102 115 116 141 154 168 150 132 139 158 156 154 143 123 116 126 125 123 120 126 121 116 121 140 146 153 145 151 157 162 128 125 109 126 123 110 95 86 84 84 83 78 50 38 25 17 10 8 1 0 0 0 0 0 0 0 0 0 0 1 1 0 0 0 0 0 0 0 0 0 0 0 0 0 0 0 0 0 0 0 0 0 0 0 0 0 0 0 0 0 0 0 
0 0 0 0 0 0 0 0 0 0 0 0 0 0 0 0 0 0 0 0 0 2 3 5 9 24 29 37 63 78 70 71 81 89 94 90 98 114 128 121 153 162 167 159 169 175 172 174 156 163 165 158 161 161 160 154 153 152 153 154 151 167 165 157 163 159 146 128 144 143 129 128 102 77 59 68 77 57 32 24 15 9 6 2 0 0 0 0 0 0 0 0 0 0 0 0 0 1 0 0 0 0 0 0 0 0 0 0 0 0 0 0 0 0 0 0 0 0 0 0 0 0 0 0 0 0 0 0 
0 0 0 0 0 0 0 0 0 0 0 0 0 0 0 0 0 0 0 0 0 0 2 3 8 17 28 35 52 75 75 70 74 77 77 71 78 97 103 98 127 125 120 104 123 139 153 165 158 150 140 135 140 136 138 127 133 134 132 129 133 139 123 130 139 118 131 141 147 150 112 71 53 53 62 82 80 46 26 24 14 8 7 2 1 0 1 1 1 1 1 1 1 2 2 2 2 4 0 0 0 0 0 0 0 0 0 0 0 0 0 0 0 0 0 0 0 0 0 0 0 0 0 0 0 0 0 0 
0 0 0 0 0 0 0 0 0 0 0 0 0 0 0 0 0 0 0 0 0 0 4 7 8 15 19 22 33 55 68 66 65 65 56 53 57 70 96 112 111 111 108 95 106 120 131 135 124 119 113 97 109 100 101 90 102 104 102 103 112 127 126 104 112 124 133 116 131 118 98 65 52 57 73 99 86 47 23 19 18 12 8 1 1 0 0 0 0 0 0 1 0 1 1 1 1 0 0 0 0 0 0 0 0 0 0 0 0 0 0 0 0 0 0 0 0 0 0 0 0 0 0 0 0 0 0 0 
0 0 0 0 0 0 0 0 0 0 0 0 0 0 0 0 0 0 0 0 0 0 2 6 9 13 18 21 25 45 63 73 72 68 56 51 55 65 84 99 99 99 100 102 110 123 131 129 117 112 106 87 93 92 94 89 102 110 111 107 105 114 106 93 84 105 122 125 123 105 93 66 51 57 80 106 87 49 25 19 18 12 7 1 1 0 0 0 0 0 0 0 1 1 1 1 1 0 0 0 0 0 0 0 0 0 0 0 0 0 0 0 0 0 0 0 0 0 0 0 0 0 0 0 0 0 0 0 
0 0 0 0 0 0 0 0 0 0 0 0 0 0 0 0 0 0 0 0 0 0 0 4 9 10 16 21 23 39 59 74 76 71 61 54 49 56 72 97 92 85 89 92 100 110 119 129 125 115 110 97 99 98 97 93 105 104 115 120 113 119 117 105 101 97 109 116 106 94 77 61 55 64 88 110 86 50 25 19 16 12 6 1 1 0 0 0 0 0 0 0 1 1 1 1 1 0 0 0 0 0 0 0 0 0 0 0 0 0 0 0 0 0 0 0 0 0 0 0 0 0 0 0 0 0 0 0 
0 0 0 0 0 0 0 0 0 0 0 0 0 0 0 0 0 0 0 0 0 0 0 3 6 9 13 19 22 33 49 69 77 74 66 57 50 55 60 65 71 79 86 92 99 106 113 120 135 126 114 105 103 101 95 94 100 99 108 118 121 139 131 110 103 93 99 107 108 98 80 63 57 67 94 111 80 51 26 18 15 11 4 1 1 0 0 0 0 0 0 0 1 1 1 1 1 0 0 0 0 0 0 0 0 0 0 0 0 0 0 0 0 0 0 0 0 0 0 0 0 0 0 0 0 0 0 0 
0 0 0 0 0 0 0 0 0 0 0 0 0 0 0 0 0 0 0 0 0 0 0 0 5 8 11 16 21 28 44 60 81 78 70 63 56 52 52 59 66 73 87 92 101 102 103 109 125 117 111 106 100 98 92 92 96 100 106 111 119 126 120 106 103 102 97 91 95 95 81 71 65 70 94 107 80 52 26 17 15 9 3 1 1 0 0 1 1 0 0 0 1 1 1 1 0 0 0 0 0 0 0 0 0 0 0 0 0 0 0 0 0 0 0 0 0 0 0 0 0 0 0 0 0 0 0 0 
0 0 0 0 0 0 0 0 0 0 0 0 0 0 0 0 0 0 0 0 0 0 0 0 2 5 9 13 18 24 42 54 79 76 75 71 62 55 53 59 63 70 85 97 106 103 97 95 101 107 113 104 97 97 94 91 95 103 108 105 113 110 107 102 105 107 102 86 77 74 69 68 71 80 96 103 77 44 20 16 15 8 2 1 1 1 0 0 1 0 0 0 1 1 1 1 0 0 0 0 0 0 0 0 0 0 0 0 0 0 0 0 0 0 0 0 0 0 0 0 0 0 0 0 0 0 0 0 
0 0 0 0 0 0 0 0 0 0 0 0 0 0 0 0 0 0 0 0 0 0 0 0 0 4 6 12 15 19 33 53 67 72 78 73 66 59 55 54 60 69 83 94 99 98 95 89 86 95 109 101 92 91 93 95 96 102 99 101 109 107 100 92 95 98 95 83 75 66 63 70 78 84 100 86 48 23 17 16 16 8 2 1 1 1 0 0 0 0 0 0 1 1 1 1 0 0 0 0 0 0 0 0 0 0 0 0 0 0 0 0 0 0 0 0 0 0 0 0 0 0 0 0 0 0 0 0 
0 0 0 0 0 0 0 0 0 0 0 0 0 0 0 0 0 0 0 0 0 0 0 0 0 3 4 8 14 17 21 32 41 46 71 77 71 62 59 51 56 66 78 80 89 93 94 88 84 94 111 106 95 92 96 96 96 98 99 97 101 98 94 89 90 89 84 76 73 65 61 72 81 90 98 43 17 17 17 18 16 8 1 1 1 1 0 0 1 0 0 0 1 1 1 1 0 0 0 0 0 0 0 0 0 0 0 0 0 0 0 0 0 0 0 0 0 0 0 0 0 0 0 0 0 0 0 0 
0 0 0 0 0 0 0 0 0 0 0 0 0 0 0 0 0 0 0 0 0 0 0 0 0 0 5 5 12 17 19 20 18 17 32 76 79 72 66 61 59 61 68 72 79 82 87 87 89 99 100 103 97 89 84 89 100 99 96 93 97 97 97 88 84 84 72 71 70 68 69 80 87 94 70 24 15 15 17 18 14 6 1 1 1 1 0 0 0 0 0 0 1 1 1 1 0 0 0 0 0 0 0 0 0 0 0 0 0 0 0 0 0 0 0 0 0 0 0 0 0 0 0 0 0 0 0 0 
0 0 0 0 0 0 0 0 0 0 0 0 0 0 0 0 0 0 0 0 0 0 0 0 0 0 2 5 8 13 18 19 18 18 13 37 76 80 73 68 67 65 66 72 79 77 81 87 99 103 95 98 100 94 88 89 99 102 96 92 96 100 106 95 90 84 79 79 74 76 80 87 90 76 35 19 14 15 17 16 12 6 1 1 1 1 0 0 0 0 0 0 1 1 1 1 0 0 0 0 0 0 0 0 0 0 0 0 0 0 0 0 0 0 0 0 0 0 0 0 0 0 0 0 0 0 0 0 
0 0 0 0 0 0 0 0 0 0 0 0 0 0 0 0 0 0 0 0 0 0 0 0 0 0 0 3 6 10 16 19 17 18 13 13 36 70 80 80 76 72 73 80 87 89 87 86 94 99 95 100 101 96 92 100 109 109 108 104 101 109 108 96 92 90 86 87 85 89 93 92 74 37 24 17 13 15 16 14 11 6 1 1 1 1 0 0 0 0 0 0 1 1 1 1 0 0 0 0 0 0 0 0 0 0 0 0 0 0 0 0 0 0 0 0 0 0 0 0 0 0 0 0 0 0 0 0 
0 0 0 0 0 0 0 0 0 0 0 0 0 0 0 0 0 0 0 0 0 0 0 0 0 0 0 2 5 7 12 17 18 18 13 13 17 32 62 78 83 86 84 86 98 100 89 88 90 101 99 97 100 97 95 104 108 107 109 106 98 102 107 101 95 98 100 98 95 94 90 71 36 26 23 16 14 16 15 14 10 5 1 1 1 1 0 0 0 0 0 0 0 1 1 1 0 0 0 0 0 0 0 0 0 0 0 0 0 0 0 0 0 0 0 0 0 0 0 0 0 0 0 0 0 0 0 0 
0 0 0 0 0 0 0 0 0 0 0 0 0 0 0 0 0 0 0 0 0 0 0 0 0 0 0 1 4 6 9 15 17 18 15 12 16 22 29 51 73 87 91 97 104 108 99 96 100 107 100 95 95 100 101 106 109 104 111 115 107 103 113 107 104 107 108 105 97 85 61 34 28 26 22 17 15 14 14 13 10 5 1 1 1 1 0 0 0 0 0 0 1 1 1 1 0 0 0 0 0 0 0 0 0 0 0 0 0 0 0 0 0 0 0 0 0 0 0 0 0 0 0 0 0 0 0 0 
0 0 0 0 0 0 0 0 0 0 0 0 0 0 0 0 0 0 0 0 0 0 0 0 0 0 0 0 1 7 7 13 16 18 15 11 13 21 25 29 38 61 82 92 104 111 105 103 105 106 106 101 102 101 97 100 102 104 109 113 112 105 112 115 110 109 108 101 80 50 31 29 27 25 20 16 14 14 14 12 9 5 1 1 1 1 0 0 1 1 0 0 1 1 1 1 0 0 0 0 0 0 0 0 0 0 0 0 0 0 0 0 0 0 0 0 0 0 0 0 0 0 0 0 0 0 0 0 
0 0 0 0 0 0 0 0 0 0 0 0 0 0 0 0 0 0 0 0 0 0 0 0 0 0 0 0 0 7 6 11 14 17 15 12 12 20 25 29 31 34 41 59 84 95 97 99 98 102 110 109 105 100 96 98 98 104 111 104 108 113 114 113 108 100 86 62 42 38 29 28 26 23 18 16 13 14 14 12 9 4 1 1 1 1 0 0 0 0 0 0 1 1 1 1 0 0 0 0 0 0 0 0 0 0 0 0 0 0 0 0 0 0 0 0 0 0 0 0 0 0 0 0 0 0 0 0 
0 0 0 0 0 0 0 0 0 0 0 0 0 0 0 0 0 0 0 0 0 0 0 0 0 0 0 0 0 4 6 9 13 16 15 12 12 19 26 28 31 33 32 37 50 68 81 88 89 91 102 104 101 101 102 103 103 105 113 110 112 105 104 97 89 71 54 47 41 36 28 28 26 23 17 14 14 14 14 12 9 3 1 1 1 1 0 0 0 0 0 0 0 1 1 1 0 0 0 0 0 0 0 0 0 0 0 0 0 0 0 0 0 0 0 0 0 0 0 0 0 0 0 0 0 0 0 0 
