P2
128 99
239
0 0 0 0 0 0 0 0 0 0 0 0 0 0 0 0 0 0 0 0 0 0 0 0 0 0 0 0 0 0 0 0 0 0 0 0 0 0 0 0 0 0 0 0 0 0 0 0 0 0 0 0 0 0 0 0 0 0 0 0 0 0 0 0 0 0 0 0 0 0 0 0 0 0 0 0 0 0 0 0 0 0 0 0 0 0 0 0 0 0 0 0 0 0 0 0 0 0 0 0 0 0 0 0 0 0 0 0 0 0 0 0 0 0 0 0 0 0 0 0 0 0 0 0 0 0 0 0 
0 0 0 0 0 0 0 0 0 0 0 0 0 0 0 0 0 0 0 0 0 0 0 0 0 0 0 0 0 0 0 0 0 0 0 0 0 0 0 0 0 0 0 0 0 0 0 0 0 0 0 0 0 0 0 0 0 0 0 0 0 0 0 0 0 0 0 0 0 0 0 0 0 0 0 0 0 0 0 0 0 0 0 0 0 0 0 0 0 0 0 0 0 0 0 0 0 0 0 0 0 0 0 0 0 0 0 0 0 0 0 0 0 0 0 0 0 0 0 0 0 0 0 0 0 0 0 0 
0 0 0 0 0 0 0 0 0 0 0 0 0 0 0 0 0 0 0 0 0 0 0 0 0 0 0 0 0 0 0 0 0 0 0 0 0 0 0 0 0 0 0 0 0 0 0 0 0 0 0 0 0 0 0 0 0 0 0 0 0 0 0 0 0 0 0 0 0 0 0 0 0 0 0 0 0 0 0 0 0 0 0 0 0 0 0 0 0 0 0 0 0 0 0 0 0 0 0 0 0 0 0 0 0 0 0 0 0 0 0 0 0 0 0 0 0 0 0 0 0 0 0 0 0 0 0 0 
0 0 0 0 0 0 0 0 0 0 0 0 0 0 0 0 0 0 0 0 0 0 0 0 0 0 0 0 0 0 0 0 0 0 0 0 0 0 0 0 0 0 0 0 0 8 16 17 17 19 22 25 25 26 24 19 15 16 15 12 3 0 0 0 0 0 0 0 0 0 0 0 0 0 0 0 0 0 0 0 0 0 0 0 0 0 0 0 0 0 0 0 0 0 0 0 0 0 0 0 0 0 0 0 0 0 0 0 0 0 0 0 0 0 0 0 0 0 0 0 0 0 0 0 0 0 0 0 
0 0 0 0 0 0 0 0 0 0 0 0 0 0 0 0 0 0 0 0 0 0 0 0 0 0 0 0 0 0 0 0 0 0 0 0 0 0 0 0 0 0 20 23 25 33 54 79 102 124 142 153 158 159 155 135 127 106 80 53 33 22 17 10 0 0 0 0 0 0 0 0 0 0 0 0 0 0 0 0 0 0 0 0 0 0 0 0 0 0 0 0 0 0 0 0 0 0 0 0 0 0 0 0 0 0 0 0 0 0 0 0 0 0 0 0 0 0 0 0 0 0 0 0 0 0 0 0 
0 0 0 0 0 0 0 0 0 0 0 0 0 0 0 0 0 0 0 0 0 0 0 0 0 0 0 0 0 0 0 0 0 0 0 0 0 0 0 9 23 25 36 68 114 154 177 188 193 196 198 196 194 194 195 196 195 192 186 172 155 121 80 46 22 16 11 0 0 0 0 0 0 0 0 0 0 0 0 0 0 0 0 0 0 0 0 0 0 0 0 0 0 0 0 0 0 0 0 0 0 0 0 0 0 0 0 0 0 0 0 0 0 0 0 0 0 0 0 0 0 0 0 0 0 0 0 0 
0 0 0 0 0 0 0 0 0 0 0 0 0 0 0 0 0 0 0 0 0 0 0 0 0 0 0 0 0 0 0 0 0 0 0 0 0 22 25 26 52 105 157 184 195 197 198 199 201 202 205 206 206 207 206 205 204 201 198 196 195 191 177 161 125 78 39 18 12 1 0 0 0 0 0 0 0 0 0 0 0 0 0 0 0 0 0 0 0 0 0 0 0 0 0 0 0 0 0 0 0 0 0 0 0 0 0 0 0 0 0 0 0 0 0 0 0 0 0 0 0 0 0 0 0 0 0 0 
0 0 0 0 0 0 0 0 0 0 0 0 0 0 0 0 0 0 0 0 0 0 0 0 0 0 0 0 0 0 0 0 0 0 0 25 25 24 63 128 174 192 197 199 200 204 200 194 161 185 188 195 188 180 178 191 205 212 210 205 201 197 197 196 192 175 153 102 48 22 13 1 0 0 0 0 0 0 0 0 0 0 0 0 0 0 0 0 0 0 0 0 0 0 0 0 0 0 0 0 0 0 0 0 0 0 0 0 0 0 0 0 0 0 0 0 0 0 0 0 0 0 0 0 0 0 0 0 
0 0 0 0 0 0 0 0 0 0 0 0 0 0 0 0 0 0 0 0 0 0 0 0 0 0 0 0 0 0 0 0 0 27 25 24 57 132 178 191 193 197 200 203 201 193 174 167 160 159 159 161 159 151 153 158 167 186 205 211 208 208 203 199 197 196 195 187 162 104 46 23 9 0 0 0 0 0 0 0 0 0 0 0 0 0 0 0 0 0 0 0 0 0 0 0 0 0 0 0 0 0 0 0 0 0 0 0 0 0 0 0 0 0 0 0 0 0 0 0 0 0 0 0 0 0 0 0 
0 0 0 0 0 0 0 0 0 0 0 0 0 0 0 0 0 0 0 0 0 0 0 0 0 0 0 0 0 0 0 14 26 21 41 117 175 189 192 194 193 202 201 184 170 164 207 146 142 140 143 151 152 148 152 154 156 159 163 191 211 213 212 209 206 202 198 197 196 187 153 81 31 19 0 0 0 0 0 0 0 0 0 0 0 0 0 0 0 0 0 0 0 0 0 0 0 0 0 0 0 0 0 0 0 0 0 0 0 0 0 0 0 0 0 0 0 0 0 0 0 0 0 0 0 0 0 0 
0 0 0 0 0 0 0 0 0 0 0 0 0 0 0 0 0 0 0 0 0 0 0 0 0 0 0 0 0 0 29 21 24 85 164 189 191 193 188 198 205 195 175 170 165 158 150 143 139 135 138 143 142 141 146 147 151 147 153 161 177 198 211 216 216 212 207 203 199 198 197 182 123 46 22 6 0 0 0 0 0 0 0 0 0 0 0 0 0 0 0 0 0 0 0 0 0 0 0 0 0 0 0 0 0 0 0 0 0 0 0 0 0 0 0 0 0 0 0 0 0 0 0 0 0 0 0 0 
0 0 0 0 0 0 0 0 0 0 0 0 0 0 0 0 0 0 0 0 0 0 0 0 0 0 0 0 0 24 14 49 136 182 189 191 200 204 210 202 184 176 169 162 159 156 152 147 145 142 136 139 136 135 146 152 151 150 152 156 162 173 190 204 213 219 216 212 207 203 201 199 191 156 62 24 9 0 0 0 0 0 0 0 0 0 0 0 0 0 0 0 0 0 0 0 0 0 0 0 0 0 0 0 0 0 0 0 0 0 0 0 0 0 0 0 0 0 0 0 0 0 0 0 0 0 0 0 
0 0 0 0 0 0 0 0 0 0 0 0 0 0 0 0 0 0 0 0 0 0 0 0 0 0 0 0 19 19 76 163 185 192 197 208 207 209 195 180 172 170 156 159 154 100 142 149 147 142 133 131 129 129 127 137 149 126 129 143 157 167 177 185 193 206 215 220 216 211 205 202 200 191 168 87 25 9 0 0 0 0 0 0 0 0 0 0 0 0 0 0 0 0 0 0 0 0 0 0 0 0 0 0 0 0 0 0 0 0 0 0 0 0 0 0 0 0 0 0 0 0 0 0 0 0 0 0 
0 0 0 0 0 0 0 0 0 0 0 0 0 0 0 0 0 0 0 0 0 0 0 0 0 0 0 19 26 103 172 185 195 203 207 211 204 187 179 173 169 156 158 155 152 151 153 153 143 56 129 127 125 125 131 143 153 156 156 157 145 159 165 173 180 183 195 204 215 217 214 208 201 195 191 171 86 27 10 0 0 0 0 0 0 0 0 0 0 0 0 0 0 0 0 0 0 0 0 0 0 0 0 0 0 0 0 0 0 0 0 0 0 0 0 0 0 0 0 0 0 0 0 0 0 0 0 0 
0 0 0 0 0 0 0 0 0 0 0 0 0 0 0 0 0 0 0 0 0 0 0 0 0 0 11 35 120 174 185 198 205 211 209 195 181 176 177 168 93 162 158 155 151 150 141 135 134 129 125 123 121 124 126 126 136 148 152 151 152 102 149 163 167 172 178 180 191 156 213 217 211 203 196 193 172 108 31 0 0 0 0 0 0 0 0 0 0 0 0 0 0 0 0 0 0 0 0 0 0 0 0 0 0 0 0 0 0 0 0 0 0 0 0 0 0 0 0 0 0 0 0 0 0 0 0 0 
0 0 0 0 0 0 0 0 0 0 0 0 0 0 0 0 0 0 0 0 0 0 0 0 0 11 51 131 171 187 200 207 210 198 184 177 172 176 169 165 161 155 151 142 141 130 125 126 123 123 122 120 118 123 126 125 124 129 138 147 148 148 98 155 159 164 167 169 173 175 194 205 212 210 173 194 192 179 121 36 0 0 0 0 0 0 0 0 0 0 0 0 0 0 0 0 0 0 0 0 0 0 0 0 0 0 0 0 0 0 0 0 0 0 0 0 0 0 0 0 0 0 0 0 0 0 0 0 
0 0 0 0 0 0 0 0 0 0 0 0 0 0 0 0 0 0 0 0 0 0 0 0 17 58 141 169 188 202 210 210 188 177 171 172 163 167 164 159 153 146 141 138 129 123 122 120 122 121 122 117 115 122 125 125 125 126 127 131 133 139 138 145 151 153 157 162 166 169 173 179 195 169 213 203 198 195 178 129 39 0 0 0 0 0 0 0 0 0 0 0 0 0 0 0 0 0 0 0 0 0 0 0 0 0 0 0 0 0 0 0 0 0 0 0 0 0 0 0 0 0 0 0 0 0 0 0 
0 0 0 0 0 0 0 0 0 0 0 0 0 0 0 0 0 0 0 0 0 0 0 19 72 150 170 188 203 210 206 177 168 168 168 163 162 97 150 148 146 143 136 128 122 122 118 120 120 120 118 94 112 121 121 123 124 126 125 127 130 138 132 136 141 145 146 149 150 157 160 165 171 188 201 207 200 198 191 179 134 27 0 0 0 0 0 0 0 0 0 0 0 0 0 0 0 0 0 0 0 0 0 0 0 0 0 0 0 0 0 0 0 0 0 0 0 0 0 0 0 0 0 0 0 0 0 0 
0 0 0 0 0 0 0 0 0 0 0 0 0 0 0 0 0 0 0 0 0 0 20 80 153 165 187 201 209 198 173 163 162 162 158 152 94 147 142 136 132 127 125 122 122 120 116 119 119 114 116 108 92 119 120 122 124 124 123 124 126 127 126 129 129 131 135 142 148 149 149 151 158 165 184 197 164 203 199 189 171 125 22 0 0 0 0 0 0 0 0 0 0 0 0 0 0 0 0 0 0 0 0 0 0 0 0 0 0 0 0 0 0 0 0 0 0 0 0 0 0 0 0 0 0 0 0 0 
0 0 0 0 0 0 0 0 0 0 0 0 0 0 0 0 0 0 0 0 0 13 85 154 169 183 196 210 191 169 162 158 157 156 149 142 138 136 139 127 126 122 122 122 119 115 114 117 114 114 78 71 66 90 120 71 84 123 123 123 123 128 122 122 124 125 129 134 142 147 141 143 148 153 157 175 198 204 205 196 191 170 110 0 0 0 0 0 0 0 0 0 0 0 0 0 0 0 0 0 0 0 0 0 0 0 0 0 0 0 0 0 0 0 0 0 0 0 0 0 0 0 0 0 0 0 0 0 
0 0 0 0 0 0 0 0 0 0 0 0 0 0 0 0 0 0 0 0 11 82 150 165 178 195 205 189 167 153 157 153 150 145 91 132 131 129 125 125 124 121 119 115 113 114 81 86 61 67 70 104 107 118 119 120 121 120 119 122 123 100 98 81 123 121 125 131 136 137 142 142 141 147 152 159 170 188 207 201 195 180 162 57 0 0 0 0 0 0 0 0 0 0 0 0 0 0 0 0 0 0 0 0 0 0 0 0 0 0 0 0 0 0 0 0 0 0 0 0 0 0 0 0 0 0 0 0 
0 0 0 0 0 0 0 0 0 0 0 0 0 0 0 0 0 0 0 0 74 145 160 172 190 205 188 164 159 152 151 147 145 94 129 129 128 125 123 120 117 119 68 113 80 93 100 90 93 87 100 103 86 99 103 104 105 117 118 119 121 96 76 96 96 116 121 126 131 132 90 134 135 139 146 149 159 165 187 206 200 191 174 147 0 0 0 0 0 0 0 0 0 0 0 0 0 0 0 0 0 0 0 0 0 0 0 0 0 0 0 0 0 0 0 0 0 0 0 0 0 0 0 0 0 0 0 0 
0 0 0 0 0 0 0 0 0 0 0 0 0 0 0 0 0 0 0 61 137 154 169 186 198 150 162 156 152 147 143 141 134 128 127 125 125 124 121 116 75 68 63 67 110 108 107 107 103 99 101 104 106 110 109 109 111 111 100 85 85 114 97 95 79 96 113 123 126 141 130 129 130 133 137 144 150 155 158 192 207 199 184 166 70 0 0 0 0 0 0 0 0 0 0 0 0 0 0 0 0 0 0 0 0 0 0 0 0 0 0 0 0 0 0 0 0 0 0 0 0 0 0 0 0 0 0 0 
0 0 0 0 0 0 0 0 0 0 0 0 0 0 0 0 0 0 34 126 149 164 181 195 191 163 148 149 146 145 138 133 128 129 128 109 106 101 96 79 78 77 100 100 102 103 84 95 95 95 88 96 106 109 97 104 106 107 107 107 96 99 96 109 86 95 96 113 122 125 124 124 124 130 134 139 149 149 150 164 197 202 191 177 152 0 0 0 0 0 0 0 0 0 0 0 0 0 0 0 0 0 0 0 0 0 0 0 0 0 0 0 0 0 0 0 0 0 0 0 0 0 0 0 0 0 0 0 
0 0 0 0 0 0 0 0 0 0 0 0 0 0 0 0 0 0 104 142 156 169 190 191 137 152 147 144 143 141 135 129 127 106 122 103 85 70 71 79 69 98 101 103 100 83 103 93 95 106 102 108 104 106 103 104 102 103 103 105 106 94 97 94 109 95 95 97 114 120 120 121 123 84 131 137 145 146 146 149 173 198 196 183 166 72 0 0 0 0 0 0 0 0 0 0 0 0 0 0 0 0 0 0 0 0 0 0 0 0 0 0 0 0 0 0 0 0 0 0 0 0 0 0 0 0 0 0 
0 0 0 0 0 0 0 0 0 0 0 0 0 0 0 0 0 50 72 149 164 182 184 174 147 142 141 141 142 93 131 126 122 123 105 115 63 68 78 80 90 101 103 102 100 102 104 103 101 105 111 110 106 107 105 105 104 105 103 104 103 106 93 92 91 96 95 109 96 99 117 121 123 123 127 134 142 142 141 141 178 184 194 187 172 78 0 0 0 0 0 0 0 0 0 0 0 0 0 0 0 0 0 0 0 0 0 0 0 0 0 0 0 0 0 0 0 0 0 0 0 0 0 0 0 0 0 0 
0 0 0 0 0 0 0 0 0 0 0 0 0 0 0 0 0 64 140 155 168 181 171 162 141 133 139 142 93 135 129 124 121 85 83 51 110 50 82 102 101 100 99 99 103 104 105 105 102 106 113 113 109 108 96 100 103 103 101 101 100 103 105 105 76 105 86 81 95 112 99 119 121 121 124 90 141 141 138 134 139 165 186 179 178 158 0 0 0 0 0 0 0 0 0 0 0 0 0 0 0 0 0 0 0 0 0 0 0 0 0 0 0 0 0 0 0 0 0 0 0 0 0 0 0 0 0 0 
0 0 0 0 0 0 0 0 0 0 0 0 0 0 0 0 0 129 147 163 178 167 165 119 134 134 136 90 136 132 121 118 117 101 82 107 82 94 102 102 100 100 101 101 101 104 106 106 107 103 107 111 111 101 97 97 98 105 105 102 100 100 102 104 107 80 91 107 96 98 112 115 122 121 125 131 89 141 135 130 132 157 175 183 180 163 73 0 0 0 0 0 0 0 0 0 0 0 0 0 0 0 0 0 0 0 0 0 0 0 0 0 0 0 0 0 0 0 0 0 0 0 0 0 0 0 0 0 
0 0 0 0 0 0 0 0 0 0 0 0 0 0 0 0 0 137 152 171 174 163 156 134 131 132 135 138 133 125 123 102 100 97 96 56 70 102 100 100 100 99 100 101 101 104 106 108 102 101 100 103 109 101 100 94 97 100 98 102 101 101 101 102 103 108 92 109 97 69 110 98 120 121 121 132 139 82 132 127 127 145 167 184 182 169 76 0 0 0 0 0 0 0 0 0 0 0 0 0 0 0 0 0 0 0 0 0 0 0 0 0 0 0 0 0 0 0 0 0 0 0 0 0 0 0 0 0 
0 0 0 0 0 0 0 0 0 0 0 0 0 0 0 0 65 140 120 176 150 155 144 131 131 126 131 133 127 124 123 120 118 98 94 71 107 104 101 101 97 101 101 102 103 103 102 104 104 101 100 100 107 101 95 95 96 97 96 95 97 102 102 103 105 106 110 111 113 112 55 95 118 120 121 131 137 131 86 125 121 144 161 179 169 170 150 0 0 0 0 0 0 0 0 0 0 0 0 0 0 0 0 0 0 0 0 0 0 0 0 0 0 0 0 0 0 0 0 0 0 0 0 0 0 0 0 0 
0 0 0 0 0 0 0 0 0 0 0 0 0 0 0 0 131 88 167 168 147 146 119 127 127 91 127 129 121 123 122 123 119 87 81 100 108 104 102 102 104 101 98 99 104 102 101 103 102 100 98 99 106 99 96 96 96 97 98 97 96 98 102 106 107 106 111 112 98 114 98 114 117 119 120 128 132 125 125 124 120 137 151 176 183 164 153 0 0 0 0 0 0 0 0 0 0 0 0 0 0 0 0 0 0 0 0 0 0 0 0 0 0 0 0 0 0 0 0 0 0 0 0 0 0 0 0 0 
0 0 0 0 0 0 0 0 0 0 0 0 0 0 0 0 137 155 169 151 137 140 136 126 86 122 123 125 119 121 122 104 80 113 111 105 106 103 104 102 74 74 68 90 101 99 99 101 102 99 98 96 102 96 95 89 97 92 98 99 101 102 102 105 110 109 112 114 116 99 115 98 118 118 121 125 126 126 85 118 117 136 158 174 183 174 156 71 0 0 0 0 0 0 0 0 0 0 0 0 0 0 0 0 0 0 0 0 0 0 0 0 0 0 0 0 0 0 0 0 0 0 0 0 0 0 0 0 
0 0 0 0 0 0 0 0 0 0 0 0 0 0 0 0 141 160 160 140 132 136 137 123 80 117 102 123 118 117 119 61 97 112 110 112 107 104 102 71 71 68 67 70 86 100 99 97 98 98 98 100 100 98 95 95 93 95 97 98 102 102 84 77 84 114 102 117 119 117 117 117 95 119 121 124 121 119 117 114 113 133 155 167 186 177 161 74 0 0 0 0 0 0 0 0 0 0 0 0 0 0 0 0 0 0 0 0 0 0 0 0 0 0 0 0 0 0 0 0 0 0 0 0 0 0 0 0 
0 0 0 0 0 0 0 0 0 0 0 0 0 0 0 66 86 163 154 138 130 136 138 123 114 114 116 120 115 113 98 86 116 115 113 113 109 106 88 70 71 71 78 67 70 98 93 96 97 95 102 103 102 97 93 92 91 93 95 89 100 94 78 72 79 79 93 113 118 119 104 119 118 97 120 123 115 112 116 115 114 134 156 168 176 182 165 141 0 0 0 0 0 0 0 0 0 0 0 0 0 0 0 0 0 0 0 0 0 0 0 0 0 0 0 0 0 0 0 0 0 0 0 0 0 0 0 0 
0 0 0 0 0 0 0 0 0 0 0 0 0 0 0 69 151 163 153 142 124 134 109 124 115 110 116 117 108 62 64 117 117 114 113 113 109 106 107 72 77 72 71 72 71 78 96 97 96 96 99 104 101 94 92 93 89 91 93 96 97 100 82 74 79 75 87 117 123 123 119 121 120 121 97 132 113 110 113 112 114 139 155 169 183 184 170 151 0 0 0 0 0 0 0 0 0 0 0 0 0 0 0 0 0 0 0 0 0 0 0 0 0 0 0 0 0 0 0 0 0 0 0 0 0 0 0 0 
0 0 0 0 0 0 0 0 0 0 0 0 0 0 0 74 156 163 153 144 125 135 137 126 116 110 115 112 106 88 122 117 117 115 114 117 114 112 112 115 113 102 70 73 75 79 94 96 95 96 100 102 102 97 94 92 86 88 93 95 95 83 80 77 77 112 118 123 113 123 126 126 125 123 113 90 115 110 108 109 118 141 134 164 185 186 176 159 0 0 0 0 0 0 0 0 0 0 0 0 0 0 0 0 0 0 0 0 0 0 0 0 0 0 0 0 0 0 0 0 0 0 0 0 0 0 0 0 
0 0 0 0 0 0 0 0 0 0 0 0 0 0 0 140 161 169 156 148 129 138 119 128 118 112 99 111 105 110 124 120 119 120 122 119 80 77 72 65 81 94 84 70 71 72 85 93 99 99 102 107 107 100 96 94 91 80 83 93 86 77 80 108 103 93 82 81 81 83 112 104 131 135 129 133 127 115 109 113 125 141 153 158 183 187 175 161 59 0 0 0 0 0 0 0 0 0 0 0 0 0 0 0 0 0 0 0 0 0 0 0 0 0 0 0 0 0 0 0 0 0 0 0 0 0 0 0 
0 0 0 0 0 0 0 0 0 0 0 0 0 0 0 144 162 169 153 149 145 143 122 130 122 115 113 106 98 90 126 121 125 127 112 80 79 77 70 77 67 60 84 76 98 102 100 97 65 96 93 101 110 102 97 95 81 84 89 83 78 87 98 92 75 91 91 90 91 60 97 77 113 129 141 140 141 125 114 121 126 140 148 156 178 190 180 164 65 0 0 0 0 0 0 0 0 0 0 0 0 0 0 0 0 0 0 0 0 0 0 0 0 0 0 0 0 0 0 0 0 0 0 0 0 0 0 0 
0 0 0 0 0 0 0 0 0 0 0 0 0 0 60 148 166 167 155 149 144 142 145 140 130 122 114 106 87 108 129 127 130 111 90 90 72 81 77 84 83 84 68 83 82 88 82 101 95 68 99 98 106 105 100 96 91 87 82 67 83 91 87 59 91 95 97 97 99 101 100 77 82 87 137 153 149 138 126 128 125 135 141 150 151 188 183 167 71 0 0 0 0 0 0 0 0 0 0 0 0 0 0 0 0 0 0 0 0 0 0 0 0 0 0 0 0 0 0 0 0 0 0 0 0 0 0 0 
0 0 0 0 0 0 0 0 0 0 0 0 0 0 62 151 165 167 153 145 142 139 138 139 136 121 120 114 93 127 136 136 114 87 90 75 87 87 88 92 90 86 81 52 86 90 71 77 87 97 98 106 110 109 109 103 96 92 73 88 80 83 72 87 92 96 82 100 84 103 107 108 59 96 131 154 153 146 136 133 130 130 134 143 139 182 183 169 74 0 0 0 0 0 0 0 0 0 0 0 0 0 0 0 0 0 0 0 0 0 0 0 0 0 0 0 0 0 0 0 0 0 0 0 0 0 0 0 
0 0 0 0 0 0 0 0 0 0 0 0 0 0 10 152 169 169 148 142 123 120 132 132 132 129 126 124 118 132 146 128 81 93 75 89 88 90 91 90 89 89 87 73 86 85 94 89 79 91 103 114 119 116 120 108 101 84 73 101 86 79 79 84 94 92 100 104 86 106 108 108 98 127 133 138 148 145 143 137 119 124 129 108 146 172 181 169 131 0 0 0 0 0 0 0 0 0 0 0 0 0 0 0 0 0 0 0 0 0 0 0 0 0 0 0 0 0 0 0 0 0 0 0 0 0 0 0 
0 0 0 0 0 0 0 0 0 0 0 0 0 0 65 155 171 170 139 136 137 135 131 83 129 131 126 123 123 141 146 126 111 90 81 95 85 75 88 75 79 79 81 87 83 88 89 100 80 76 107 117 125 117 126 110 95 83 89 99 80 77 82 86 95 99 82 91 103 106 109 108 117 121 123 114 133 143 145 135 108 122 125 125 135 163 181 169 138 0 0 0 0 0 0 0 0 0 0 0 0 0 0 0 0 0 0 0 0 0 0 0 0 0 0 0 0 0 0 0 0 0 0 0 0 0 0 0 
0 0 0 0 0 0 0 0 0 0 0 0 0 0 65 155 154 171 136 135 126 132 127 81 122 123 122 123 119 135 138 128 96 113 105 97 99 94 77 88 85 85 86 76 90 88 91 95 78 75 106 115 112 114 89 114 105 88 101 77 75 80 85 94 96 97 98 98 61 103 107 109 95 113 118 120 125 138 142 135 121 116 117 118 123 141 178 170 142 0 0 0 0 0 0 0 0 0 0 0 0 0 0 0 0 0 0 0 0 0 0 0 0 0 0 0 0 0 0 0 0 0 0 0 0 0 0 0 
0 0 0 0 0 0 0 0 0 0 0 0 0 0 105 158 160 169 133 134 132 127 120 76 99 119 81 125 126 125 125 118 110 82 101 99 86 93 89 83 86 87 86 89 90 69 89 95 90 76 104 104 105 110 106 115 109 106 93 85 73 85 89 93 93 94 93 78 61 57 102 105 95 113 119 116 125 136 141 133 104 112 112 95 115 144 172 169 145 0 0 0 0 0 0 0 0 0 0 0 0 0 0 0 0 0 0 0 0 0 0 0 0 0 0 0 0 0 0 0 0 0 0 0 0 0 0 0 
0 0 0 0 0 0 0 0 0 0 0 0 0 0 105 162 176 163 127 128 111 118 73 105 94 78 114 126 124 119 119 63 79 102 97 78 89 73 89 77 84 86 89 62 90 73 71 92 98 94 113 90 88 91 89 78 110 111 105 70 69 87 89 64 89 89 92 77 62 78 102 78 107 111 111 113 92 135 136 134 119 109 108 109 109 117 161 167 148 0 0 0 0 0 0 0 0 0 0 0 0 0 0 0 0 0 0 0 0 0 0 0 0 0 0 0 0 0 0 0 0 0 0 0 0 0 0 0 
0 0 0 0 0 0 0 0 0 0 0 0 0 0 104 160 175 157 117 118 115 111 104 99 101 106 84 125 125 120 115 79 102 98 95 83 90 87 88 84 84 83 77 86 86 87 85 87 78 96 80 33 109 101 101 96 115 109 100 68 88 90 88 83 81 76 90 77 95 79 92 84 104 110 109 85 124 131 131 137 128 110 98 110 111 124 140 157 149 0 0 0 0 0 0 0 0 0 0 0 0 0 0 0 0 0 0 0 0 0 0 0 0 0 0 0 0 0 0 0 0 0 0 0 0 0 0 0 
0 0 0 0 0 0 0 0 0 0 0 0 0 0 102 159 174 148 112 114 109 106 73 100 83 73 114 121 123 118 115 53 104 97 93 90 90 74 75 74 82 84 88 88 88 90 87 84 46 102 38 80 103 92 94 84 104 118 112 93 91 90 84 81 76 89 91 93 94 96 93 83 102 105 107 81 82 133 138 92 131 111 83 107 100 122 135 154 148 49 0 0 0 0 0 0 0 0 0 0 0 0 0 0 0 0 0 0 0 0 0 0 0 0 0 0 0 0 0 0 0 0 0 0 0 0 0 0 
0 0 0 0 0 0 0 0 0 0 0 0 0 0 96 157 172 139 117 100 108 107 66 71 94 103 113 119 121 118 117 91 105 97 93 92 84 89 76 89 87 85 72 83 84 66 81 59 64 104 117 70 85 78 63 75 82 122 82 84 87 85 81 88 89 89 93 93 95 84 63 82 102 111 106 119 114 141 137 136 131 111 83 104 99 119 127 159 144 47 0 0 0 0 0 0 0 0 0 0 0 0 0 0 0 0 0 0 0 0 0 0 0 0 0 0 0 0 0 0 0 0 0 0 0 0 0 0 
0 0 0 0 0 0 0 0 0 0 0 0 0 0 87 155 170 135 115 91 107 106 96 71 88 104 116 116 116 104 111 115 104 101 95 87 75 82 74 88 89 81 68 82 62 63 59 83 64 73 79 90 83 81 87 76 76 93 105 89 84 70 81 78 77 60 92 93 83 91 75 82 102 101 103 119 140 135 130 99 130 110 105 103 86 117 134 158 139 44 0 0 0 0 0 0 0 0 0 0 0 0 0 0 0 0 0 0 0 0 0 0 0 0 0 0 0 0 0 0 0 0 0 0 0 0 0 0 
0 0 0 0 0 0 0 0 0 0 0 0 0 0 81 151 167 135 112 100 95 96 96 99 93 73 110 116 116 104 110 117 103 101 96 93 86 94 94 92 89 72 71 78 68 53 87 62 89 107 103 86 84 89 95 78 76 74 115 93 83 79 83 89 89 93 78 92 93 77 92 81 101 78 91 121 134 129 89 67 98 109 93 81 107 78 137 155 133 40 0 0 0 0 0 0 0 0 0 0 0 0 0 0 0 0 0 0 0 0 0 0 0 0 0 0 0 0 0 0 0 0 0 0 0 0 0 0 
0 0 0 0 0 0 0 0 0 0 0 0 0 0 74 146 164 142 117 98 84 102 78 103 98 72 108 82 117 106 111 117 74 99 96 95 95 89 86 94 86 85 77 68 54 69 49 79 93 107 62 84 85 91 76 83 76 78 107 98 81 79 82 73 91 93 93 92 90 79 94 85 58 76 101 118 126 126 126 96 125 83 105 84 96 76 140 149 123 36 0 0 0 0 0 0 0 0 0 0 0 0 0 0 0 0 0 0 0 0 0 0 0 0 0 0 0 0 0 0 0 0 0 0 0 0 0 0 
0 0 0 0 0 0 0 0 0 0 0 0 0 0 65 137 160 144 119 88 83 84 93 74 94 93 104 80 117 118 111 113 103 99 76 94 94 93 94 92 84 88 83 68 86 95 88 90 98 91 90 65 82 97 99 69 64 78 92 82 112 109 102 96 92 94 97 94 91 92 95 82 92 85 101 115 122 125 130 114 126 94 102 82 58 79 142 142 111 31 0 0 0 0 0 0 0 0 0 0 0 0 0 0 0 0 0 0 0 0 0 0 0 0 0 0 0 0 0 0 0 0 0 0 0 0 0 0 
0 0 0 0 0 0 0 0 0 0 0 0 0 0 53 129 157 142 118 98 80 82 92 104 97 47 73 119 119 102 108 114 72 86 69 88 93 92 89 91 98 97 68 87 91 86 98 92 103 93 71 66 83 95 95 80 86 60 59 82 121 121 114 102 97 69 93 91 90 85 72 92 92 92 102 117 122 124 129 133 105 92 98 58 91 114 144 137 103 0 0 0 0 0 0 0 0 0 0 0 0 0 0 0 0 0 0 0 0 0 0 0 0 0 0 0 0 0 0 0 0 0 0 0 0 0 0 0 
0 0 0 0 0 0 0 0 0 0 0 0 0 0 43 119 151 141 114 96 77 77 102 105 76 84 105 119 119 117 105 117 105 89 100 96 73 94 92 90 98 96 89 95 104 111 102 95 107 81 84 81 83 97 93 85 90 84 36 77 122 99 107 112 111 108 104 77 78 93 87 87 83 95 105 124 128 126 128 136 139 97 73 53 70 121 145 131 94 0 0 0 0 0 0 0 0 0 0 0 0 0 0 0 0 0 0 0 0 0 0 0 0 0 0 0 0 0 0 0 0 0 0 0 0 0 0 0 
0 0 0 0 0 0 0 0 0 0 0 0 0 0 32 104 146 147 114 99 91 88 101 77 72 70 107 117 119 121 127 124 109 104 98 98 94 67 73 74 100 103 101 84 99 95 70 101 106 84 79 81 79 103 94 86 87 82 65 48 79 116 108 109 111 121 137 125 113 109 113 114 118 112 134 138 127 115 113 138 140 98 105 70 102 131 144 123 87 0 0 0 0 0 0 0 0 0 0 0 0 0 0 0 0 0 0 0 0 0 0 0 0 0 0 0 0 0 0 0 0 0 0 0 0 0 0 0 
0 0 0 0 0 0 0 0 0 0 0 0 0 1 21 93 141 150 90 111 107 78 98 88 61 76 110 116 119 120 126 112 126 129 119 110 111 114 116 114 110 104 92 91 101 104 99 107 108 82 82 88 90 102 86 79 80 81 80 125 134 112 105 107 112 121 148 171 137 138 153 149 143 129 133 134 137 113 129 139 140 132 95 101 108 140 137 118 79 0 0 0 0 0 0 0 0 0 0 0 0 0 0 0 0 0 0 0 0 0 0 0 0 0 0 0 0 0 0 0 0 0 0 0 0 0 0 0 
0 0 0 0 0 0 0 0 0 0 0 0 0 2 19 82 133 155 138 113 99 86 95 101 107 80 92 118 121 121 120 121 118 123 126 127 128 119 113 112 111 106 101 93 35 89 90 106 106 85 86 92 76 105 87 76 81 88 100 129 132 115 108 106 132 154 148 144 141 154 150 142 93 94 132 128 142 133 140 138 138 97 111 130 145 145 122 115 45 0 0 0 0 0 0 0 0 0 0 0 0 0 0 0 0 0 0 0 0 0 0 0 0 0 0 0 0 0 0 0 0 0 0 0 0 0 0 0 
0 0 0 0 0 0 0 0 0 0 0 0 0 5 14 69 124 152 153 117 95 97 89 87 120 91 85 125 122 119 127 132 133 130 125 127 103 131 123 118 113 106 97 73 55 48 44 101 71 96 84 66 81 105 93 83 89 98 107 119 120 117 113 113 120 130 146 148 135 142 142 122 131 133 114 148 140 155 162 157 151 151 148 154 165 141 112 110 38 0 0 0 0 0 0 0 0 0 0 0 0 0 0 0 0 0 0 0 0 0 0 0 0 0 0 0 0 0 0 0 0 0 0 0 0 0 0 0 
0 0 0 0 0 0 0 0 0 0 0 0 0 6 13 55 115 141 160 140 114 99 119 92 122 84 126 135 129 118 136 148 141 156 155 131 132 131 119 113 103 96 83 92 47 57 77 72 111 94 66 46 89 108 92 87 89 64 109 110 116 110 113 133 121 132 152 162 155 155 142 158 87 105 122 142 143 153 164 177 173 177 171 153 179 134 122 105 27 0 0 0 0 0 0 0 0 0 0 0 0 0 0 0 0 0 0 0 0 0 0 0 0 0 0 0 0 0 0 0 0 0 0 0 0 0 0 0 
0 0 0 0 0 0 0 0 0 0 0 0 0 6 11 34 111 145 157 154 136 142 105 69 109 103 141 118 129 131 134 154 161 162 150 120 120 141 132 110 108 104 100 85 93 48 106 28 34 88 70 68 67 120 99 86 85 60 104 68 112 112 110 118 111 125 134 144 152 157 149 143 75 91 122 129 140 146 161 170 173 181 186 182 163 130 122 87 10 0 0 0 0 0 0 0 0 0 0 0 0 0 0 0 0 0 0 0 0 0 0 0 0 0 0 0 0 0 0 0 0 0 0 0 0 0 0 0 
0 0 0 0 0 0 0 0 0 0 0 0 0 1 7 13 62 130 147 152 155 172 178 162 158 156 135 140 138 142 154 164 162 159 161 127 144 121 138 116 110 110 109 101 98 66 81 112 69 33 66 101 43 79 118 94 65 87 88 106 109 104 101 117 106 119 122 124 134 133 113 116 129 121 128 141 147 147 154 162 169 170 174 108 147 122 119 93 9 4 0 0 0 0 0 0 0 0 0 0 0 0 0 0 0 0 0 0 0 0 0 0 0 0 0 0 0 0 0 0 0 0 0 0 0 0 0 0 
0 0 0 0 0 0 0 0 0 0 0 0 0 0 6 9 37 117 150 153 160 176 175 181 168 178 161 153 198 128 143 157 164 162 163 152 140 151 137 113 107 110 111 107 90 67 29 62 68 84 80 88 106 118 73 100 65 61 68 139 105 101 101 108 117 118 124 130 131 110 110 115 103 116 137 145 142 141 143 150 156 171 159 141 123 124 121 65 8 5 0 0 0 0 0 0 0 0 0 0 0 0 0 0 0 0 0 0 0 0 0 0 0 0 0 0 0 0 0 0 0 0 0 0 0 0 0 0 
0 0 0 0 0 0 0 0 0 0 0 0 0 0 1 7 19 93 157 150 155 158 161 151 166 168 163 152 130 136 133 143 100 161 162 166 150 143 125 118 110 108 110 112 101 99 112 99 68 100 96 87 93 108 93 34 33 81 95 96 98 108 109 109 102 103 118 126 131 131 130 106 121 132 148 150 145 149 144 142 148 159 0 1 62 128 116 30 6 4 4 0 0 0 0 0 0 0 0 0 0 0 0 0 0 0 0 0 0 0 0 0 0 0 0 0 0 0 0 0 0 0 0 0 0 0 0 0 
0 0 0 0 0 0 0 0 0 0 0 0 0 0 0 0 0 44 144 148 145 141 149 117 143 136 152 147 142 145 135 132 119 96 145 149 144 135 111 123 107 103 103 99 95 95 103 101 103 107 108 102 95 103 82 72 35 60 93 89 99 108 103 124 97 93 97 103 109 114 120 116 118 133 156 197 155 151 144 142 135 139 0 61 0 0 28 15 7 8 7 0 0 0 0 0 0 0 0 0 0 0 0 0 0 0 0 0 0 0 0 0 0 0 0 0 0 0 0 0 0 0 0 0 0 0 0 0 
0 0 0 0 0 0 0 0 0 0 0 0 0 0 0 0 0 0 115 140 135 134 143 148 146 138 124 117 138 148 151 119 102 88 123 145 141 128 125 86 97 93 104 98 82 106 126 111 85 115 117 111 100 100 125 123 107 103 105 105 105 104 106 116 109 94 90 87 95 104 102 117 139 143 151 162 161 156 155 148 144 1 0 55 0 0 0 0 2 5 8 0 0 0 0 0 0 0 0 0 0 0 0 0 0 0 0 0 0 0 0 0 0 0 0 0 0 0 0 0 0 0 0 0 0 0 0 0 
0 0 0 0 0 0 0 0 0 0 0 0 0 0 0 0 0 0 54 124 125 126 129 147 141 138 134 130 131 148 147 133 110 103 117 123 145 138 113 66 45 112 99 107 68 94 113 114 71 83 106 81 97 98 126 106 64 80 114 117 109 127 129 112 119 102 87 84 92 99 108 135 134 126 137 152 159 163 176 165 77 0 7 0 0 0 0 0 0 3 4 0 0 0 0 0 0 0 0 0 0 0 0 0 0 0 0 0 0 0 0 0 0 0 0 0 0 0 0 0 0 0 0 0 0 0 0 0 
0 0 0 0 0 0 0 0 0 0 0 0 0 0 0 0 0 0 35 120 132 125 132 1 151 107 145 135 143 149 150 135 107 114 115 123 115 113 107 88 86 102 100 100 119 125 121 122 113 136 89 145 149 154 139 114 123 90 133 131 129 140 137 79 113 101 89 83 99 108 101 103 127 123 136 152 162 173 182 172 0 0 11 0 0 0 0 0 0 0 2 0 0 0 0 0 0 0 0 0 0 0 0 0 0 0 0 0 0 0 0 0 0 0 0 0 0 0 0 0 0 0 0 0 0 0 0 0 
0 0 0 0 0 0 0 0 0 0 0 0 0 0 0 0 0 0 17 103 126 113 60 0 0 160 155 145 150 146 150 135 131 127 112 118 105 95 89 104 104 108 110 115 123 140 139 137 148 148 150 155 164 173 177 165 163 154 147 144 144 160 166 91 121 109 110 109 96 127 111 114 125 107 126 150 161 178 174 164 129 1 1 0 0 0 0 0 0 0 0 0 0 0 0 0 0 0 0 0 0 0 0 0 0 0 0 0 0 0 0 0 0 0 0 0 0 0 0 0 0 0 0 0 0 0 0 0 
0 0 0 0 0 0 0 0 0 0 0 0 0 0 0 0 0 0 0 69 121 121 110 122 150 165 163 153 149 144 151 148 125 132 122 120 104 103 103 109 130 130 127 124 113 149 153 151 153 146 143 145 148 148 152 103 154 146 123 140 146 163 171 168 152 104 130 139 144 120 106 107 115 121 116 142 142 179 164 148 124 61 0 0 0 0 0 0 0 0 0 0 0 0 0 0 0 0 0 0 0 0 0 0 0 0 0 0 0 0 0 0 0 0 0 0 0 0 0 0 0 0 0 0 0 0 0 0 
0 0 0 0 0 0 0 0 0 0 0 0 0 0 0 0 0 0 0 34 96 114 114 120 150 157 185 164 150 147 148 150 139 130 119 117 117 208 127 131 139 154 158 166 132 154 155 163 155 148 134 149 135 152 149 149 149 151 130 152 147 158 171 169 171 160 148 158 149 112 100 97 96 118 117 142 159 174 154 130 112 105 110 98 43 0 0 0 0 0 0 0 0 0 0 0 0 0 0 0 0 0 0 0 0 0 0 0 0 0 0 0 0 0 0 0 0 0 0 0 0 0 0 0 0 0 0 0 
0 0 0 0 0 0 0 0 0 0 0 0 8 9 2 0 0 0 7 19 82 115 123 110 121 139 161 162 154 138 140 127 135 123 117 118 110 117 123 130 140 158 169 173 165 159 162 161 122 134 152 162 164 158 156 147 150 154 140 153 145 142 160 165 172 172 157 160 149 111 90 98 113 89 145 157 163 166 149 116 98 84 98 99 58 2 0 0 0 0 0 0 0 0 0 0 0 0 0 0 0 0 0 0 0 0 0 0 0 0 0 0 0 0 0 0 0 0 0 0 0 0 0 0 0 0 0 0 
0 0 0 0 0 0 0 0 0 0 0 0 7 13 8 5 0 0 14 19 63 101 119 116 115 119 148 152 165 142 91 130 135 101 110 104 107 114 118 120 130 145 156 163 169 165 168 167 129 160 163 172 169 165 157 135 138 143 132 128 130 147 146 165 172 172 167 164 150 112 94 97 109 39 162 177 189 175 136 101 89 85 100 93 40 16 0 0 0 0 0 0 0 0 0 0 0 0 0 0 0 0 0 0 0 0 0 0 0 0 0 0 0 0 0 0 0 0 0 0 0 0 0 0 0 0 0 0 
0 0 0 0 0 0 0 0 0 0 0 0 1 11 9 8 9 12 16 12 30 86 118 117 104 114 140 154 168 151 105 132 87 74 89 112 97 110 110 110 116 142 162 150 169 161 157 227 157 157 161 173 167 165 144 119 119 128 129 126 132 151 110 160 179 179 172 164 132 118 98 99 103 134 166 167 176 161 139 97 78 79 80 63 20 15 8 1 0 2 5 4 4 0 0 0 0 0 0 0 0 0 0 0 0 0 0 0 0 0 0 0 0 0 0 0 0 0 0 0 0 0 0 0 0 0 0 0 
0 0 0 0 0 0 0 0 0 0 0 0 0 10 9 9 9 9 13 15 14 50 108 111 109 109 126 151 167 168 151 141 129 106 104 39 67 66 100 113 125 132 140 159 145 154 152 147 148 143 156 158 153 163 157 131 125 131 127 124 182 157 150 172 177 177 152 143 151 130 124 90 138 149 149 144 127 107 106 77 66 87 92 33 9 8 9 6 6 8 6 5 2 0 0 0 0 0 0 0 0 0 0 0 0 0 0 0 0 0 0 0 0 0 0 0 0 0 0 0 0 0 0 0 0 0 0 0 
0 0 0 0 0 0 0 0 0 0 0 0 0 5 7 6 5 6 9 10 17 23 72 99 73 92 113 147 146 97 167 90 79 135 121 106 104 110 98 116 139 166 179 173 172 146 159 164 167 173 170 160 162 182 185 168 162 159 158 154 162 167 181 186 202 177 106 179 173 138 130 130 146 138 111 69 91 89 80 37 49 97 47 14 0 0 1 4 4 5 3 0 0 0 0 0 0 0 0 0 0 0 0 0 0 0 0 0 0 0 0 0 0 0 0 0 0 0 0 0 0 0 0 0 0 0 0 0 
0 0 0 0 0 0 0 0 0 0 0 0 0 0 5 3 2 2 1 3 13 21 36 82 87 63 91 52 0 72 143 149 140 142 126 111 116 122 133 145 171 159 187 192 196 200 191 198 190 179 181 185 183 181 184 162 166 216 180 188 189 192 203 197 239 206 188 193 123 146 151 142 107 86 76 85 84 83 48 0 0 15 29 24 0 0 0 1 2 4 3 3 0 0 0 0 0 0 0 0 0 0 0 0 0 0 0 0 0 0 0 0 0 0 0 0 0 0 0 0 0 0 0 0 0 0 0 0 
0 0 0 0 0 0 0 0 0 0 0 0 0 0 1 2 3 1 0 5 14 21 24 42 37 84 40 53 35 70 89 108 0 0 118 107 100 132 152 171 177 174 150 179 138 199 189 186 112 173 165 171 151 130 129 136 140 133 137 158 165 187 199 187 174 189 182 176 158 141 125 107 90 78 72 81 87 2 29 25 0 18 32 28 0 0 0 0 1 0 0 0 0 0 0 0 0 0 0 0 0 0 0 0 0 0 0 0 0 0 0 0 0 0 0 0 0 0 0 0 0 0 0 0 0 0 0 0 
0 0 0 0 0 0 0 0 0 0 0 0 0 0 0 1 4 3 2 4 9 14 17 23 23 51 36 17 33 63 62 47 79 82 78 89 70 64 77 75 77 104 140 158 139 137 137 121 131 106 82 97 110 100 100 99 97 85 102 103 98 111 99 139 133 157 82 26 60 55 56 70 67 55 57 78 84 83 50 29 24 21 21 5 0 0 4 4 0 0 0 0 0 0 0 0 0 0 0 0 0 0 0 0 0 0 0 0 0 0 0 0 0 0 0 0 0 0 0 0 0 0 0 0 0 0 0 0 
0 0 0 0 0 0 0 0 0 0 0 0 0 0 0 0 0 3 2 2 4 3 13 15 21 20 23 34 67 65 61 59 62 64 62 49 70 60 68 68 64 86 78 82 91 96 84 73 74 76 52 74 90 76 74 89 73 57 73 75 83 99 87 79 77 93 75 89 101 99 61 53 62 55 56 77 85 81 47 29 28 25 17 3 0 0 1 0 0 0 0 0 0 0 0 0 0 0 0 0 0 0 0 0 0 0 0 0 0 0 0 0 0 0 0 0 0 0 0 0 0 0 0 0 0 0 0 0 
0 0 0 0 0 0 0 0 0 0 0 0 0 0 0 0 0 0 0 0 1 1 5 16 20 26 26 37 69 75 65 65 68 58 53 65 105 168 125 129 140 142 108 101 71 104 95 101 106 88 75 82 79 87 99 95 88 94 96 108 107 96 103 85 118 142 106 91 103 93 86 89 81 81 74 86 91 84 48 24 25 18 4 2 0 0 0 0 0 0 0 0 0 0 0 0 0 0 0 0 0 0 0 0 0 0 0 0 0 0 0 0 0 0 0 0 0 0 0 0 0 0 0 0 0 0 0 0 
0 0 0 0 0 0 0 0 0 0 0 0 0 0 0 0 0 0 0 0 0 0 1 8 12 16 26 41 76 88 80 70 75 86 85 89 101 120 123 144 154 171 155 129 144 149 161 160 147 124 100 130 123 115 121 122 122 117 123 139 167 135 138 125 127 159 131 128 108 130 124 83 94 79 75 47 41 11 0 0 0 0 0 0 0 0 0 0 0 0 0 0 0 0 0 0 0 0 0 0 0 0 0 0 0 0 0 0 0 0 0 0 0 0 0 0 0 0 0 0 0 0 0 0 0 0 0 0 
0 0 0 0 0 0 0 0 0 0 0 0 0 0 0 0 0 0 0 0 0 0 0 4 8 20 24 30 63 80 71 72 83 92 97 94 103 115 127 115 157 171 171 163 174 179 194 183 163 170 169 161 162 164 157 155 160 153 154 117 123 115 168 142 166 156 152 125 147 150 137 128 102 79 61 68 72 61 0 0 0 0 0 0 0 0 0 0 0 0 0 0 0 0 0 0 0 0 0 0 0 0 0 0 0 0 0 0 0 0 0 0 0 0 0 0 0 0 0 0 0 0 0 0 0 0 0 0 
0 0 0 0 0 0 0 0 0 0 0 0 0 0 0 0 0 0 0 0 0 0 0 2 3 16 28 36 52 76 76 72 72 85 75 72 57 95 91 113 124 127 71 81 132 137 156 177 177 154 145 137 139 129 132 122 136 132 131 133 108 149 128 120 129 128 136 139 152 154 113 71 46 50 44 81 78 0 9 10 0 2 3 0 0 0 0 0 0 0 0 0 0 0 0 0 0 0 0 0 0 0 0 0 0 0 0 0 0 0 0 0 0 0 0 0 0 0 0 0 0 0 0 0 0 0 0 0 
0 0 0 0 0 0 0 0 0 0 0 0 0 0 0 0 0 0 0 0 0 0 0 4 10 15 20 22 30 55 68 67 66 75 59 59 58 72 93 68 66 88 109 95 102 117 133 137 125 123 130 97 106 99 105 95 105 92 92 109 115 134 94 110 119 128 134 122 133 121 99 67 53 51 71 99 85 34 19 17 5 9 3 0 0 0 0 0 0 0 0 0 0 0 0 0 0 0 0 0 0 0 0 0 0 0 0 0 0 0 0 0 0 0 0 0 0 0 0 0 0 0 0 0 0 0 0 0 
0 0 0 0 0 0 0 0 0 0 0 0 0 0 0 0 0 0 0 0 0 0 0 4 10 13 18 21 25 37 63 75 74 70 59 39 42 67 83 74 100 101 100 103 107 117 129 132 98 114 75 74 84 60 95 90 99 93 67 85 44 120 120 95 88 107 124 129 128 108 93 68 56 59 78 109 89 47 25 19 18 12 5 0 0 0 0 0 0 0 0 0 0 0 0 0 0 0 0 0 0 0 0 0 0 0 0 0 0 0 0 0 0 0 0 0 0 0 0 0 0 0 0 0 0 0 0 0 
0 0 0 0 0 0 0 0 0 0 0 0 0 0 0 0 0 0 0 0 0 0 0 1 9 10 15 22 23 37 58 76 78 72 49 54 48 55 74 97 47 88 88 91 113 106 112 103 129 117 92 82 98 102 97 90 106 99 89 121 115 124 122 103 109 89 108 119 109 96 68 56 50 63 90 112 87 51 25 18 16 11 3 0 0 0 0 0 0 0 0 0 0 0 0 0 0 0 0 0 0 0 0 0 0 0 0 0 0 0 0 0 0 0 0 0 0 0 0 0 0 0 0 0 0 0 0 0 
0 0 0 0 0 0 0 0 0 0 0 0 0 0 0 0 0 0 0 0 0 0 0 0 8 7 13 19 22 33 50 71 75 74 68 42 37 55 58 67 75 78 85 92 99 98 111 122 138 129 119 83 80 102 97 95 112 80 75 107 122 143 134 93 98 90 100 108 111 100 78 64 41 52 96 113 83 52 26 18 15 10 2 0 0 0 0 0 0 0 0 0 0 0 0 0 0 0 0 0 0 0 0 0 0 0 0 0 0 0 0 0 0 0 0 0 0 0 0 0 0 0 0 0 0 0 0 0 
0 0 0 0 0 0 0 0 0 0 0 0 0 0 0 0 0 0 0 0 0 0 0 0 2 8 9 16 21 29 46 63 81 80 46 48 38 41 50 59 65 75 75 93 93 87 88 107 127 94 90 107 61 103 97 95 64 100 78 91 103 116 119 120 103 103 84 89 95 95 69 52 41 71 97 108 83 52 26 16 13 9 2 0 0 0 0 0 0 0 0 0 0 0 0 0 0 0 0 0 0 0 0 0 0 0 0 0 0 0 0 0 0 0 0 0 0 0 0 0 0 0 0 0 0 0 0 0 
0 0 0 0 0 0 0 0 0 0 0 0 0 0 0 0 0 0 0 0 0 0 0 0 0 7 9 12 18 24 41 55 75 77 76 71 43 54 53 59 64 59 86 99 107 104 86 83 79 97 82 102 80 95 98 81 72 101 100 97 115 85 110 103 107 109 124 87 78 75 68 69 52 81 98 106 81 45 20 17 13 8 1 0 0 0 0 0 0 0 0 0 0 0 0 0 0 0 0 0 0 0 0 0 0 0 0 0 0 0 0 0 0 0 0 0 0 0 0 0 0 0 0 0 0 0 0 0 
0 0 0 0 0 0 0 0 0 0 0 0 0 0 0 0 0 0 0 0 0 0 0 0 0 2 6 13 15 19 34 53 68 37 41 48 45 2 55 55 61 62 83 96 89 99 96 79 89 97 110 64 72 93 78 98 44 68 63 102 110 92 89 89 97 98 86 86 107 63 62 72 80 86 102 87 47 23 18 16 16 8 1 0 0 0 0 0 0 0 0 0 0 0 0 0 0 0 0 0 0 0 0 0 0 0 0 0 0 0 0 0 0 0 0 0 0 0 0 0 0 0 0 0 0 0 0 0 
0 0 0 0 0 0 0 0 0 0 0 0 0 0 0 0 0 0 0 0 0 0 0 0 0 1 4 9 13 16 21 28 41 46 73 80 71 62 59 52 56 60 63 69 84 93 95 78 86 96 113 105 97 95 97 69 67 61 75 100 103 40 60 83 92 89 76 77 72 54 61 74 55 92 100 43 15 17 17 18 14 7 2 0 0 0 0 0 0 0 0 0 0 0 0 0 0 0 0 0 0 0 0 0 0 0 0 0 0 0 0 0 0 0 0 0 0 0 0 0 0 0 0 0 0 0 0 0 
0 0 0 0 0 0 0 0 0 0 0 0 0 0 0 0 0 0 0 0 0 0 0 0 0 0 5 4 11 4 18 20 18 17 0 42 47 72 66 63 58 66 66 63 78 82 88 59 70 100 100 100 71 80 82 89 98 46 94 93 76 97 77 89 86 75 62 53 55 66 83 83 90 15 19 15 15 15 17 18 12 6 1 0 0 0 0 0 0 0 0 0 0 0 0 0 0 0 0 0 0 0 0 0 0 0 0 0 0 0 0 0 0 0 0 0 0 0 0 0 0 0 0 0 0 0 0 0 
0 0 0 0 0 0 0 0 0 0 0 0 0 0 0 0 0 0 0 0 0 0 0 0 0 0 0 4 7 13 15 18 18 18 7 25 77 82 75 69 67 59 45 56 80 78 83 78 89 105 96 97 102 97 92 93 103 62 64 66 44 101 106 98 81 81 78 79 57 64 82 92 56 79 20 14 6 15 17 16 12 6 1 0 0 0 0 0 0 0 0 0 0 0 0 0 0 0 0 0 0 0 0 0 0 0 0 0 0 0 0 0 0 0 0 0 0 0 0 0 0 0 0 0 0 0 0 0 
0 0 0 0 0 0 0 0 0 0 0 0 0 0 0 0 0 0 0 0 0 0 0 0 0 0 0 2 6 6 15 18 18 17 14 6 23 44 82 81 77 62 36 65 88 87 88 87 71 93 83 99 103 97 99 105 90 82 88 77 105 112 107 88 90 87 87 89 83 89 95 98 75 36 23 14 10 16 17 12 14 6 1 0 0 0 0 0 0 0 0 0 0 0 0 0 0 0 0 0 0 0 0 0 0 0 0 0 0 0 0 0 0 0 0 0 0 0 0 0 0 0 0 0 0 0 0 0 
0 0 0 0 0 0 0 0 0 0 0 0 0 0 0 0 0 0 0 0 0 0 0 0 0 0 0 0 5 3 11 17 18 18 13 7 9 0 35 79 84 87 77 86 93 92 91 90 91 103 104 98 100 97 81 87 111 64 60 86 101 105 105 91 93 80 103 102 88 96 96 73 34 26 21 13 14 16 15 13 11 5 1 0 0 0 0 0 0 0 0 0 0 0 0 0 0 0 0 0 0 0 0 0 0 0 0 0 0 0 0 0 0 0 0 0 0 0 0 0 0 0 0 0 0 0 0 0 
0 0 0 0 0 0 0 0 0 0 0 0 0 0 0 0 0 0 0 0 0 0 0 0 0 0 0 0 4 3 7 16 17 19 14 13 19 2 0 50 67 88 95 102 105 76 102 97 100 110 102 95 96 102 82 107 112 106 114 116 108 102 114 106 88 108 110 108 100 87 62 35 28 26 15 15 14 13 14 13 10 5 1 0 0 0 0 0 0 0 0 0 0 0 0 0 0 0 0 0 0 0 0 0 0 0 0 0 0 0 0 0 0 0 0 0 0 0 0 0 0 0 0 0 0 0 0 0 
0 0 0 0 0 0 0 0 0 0 0 0 0 0 0 0 0 0 0 0 0 0 0 0 0 0 0 0 0 5 2 14 16 17 18 12 14 0 0 14 43 60 85 96 98 114 109 107 66 108 108 102 104 101 95 95 105 107 112 114 113 99 115 117 113 79 112 104 83 50 30 29 26 19 14 17 12 12 14 11 9 5 1 0 0 0 0 0 0 0 0 0 0 0 0 0 0 0 0 0 0 0 0 0 0 0 0 0 0 0 0 0 0 0 0 0 0 0 0 0 0 0 0 0 0 0 0 0 
0 0 0 0 0 0 0 0 0 0 0 0 0 0 0 0 0 0 0 0 0 0 0 0 0 0 0 0 0 7 1 7 14 18 15 13 10 20 26 15 31 34 40 61 87 71 101 101 103 100 112 111 104 101 91 92 100 107 115 107 109 115 119 115 110 74 87 63 49 37 29 28 22 14 12 17 15 13 14 10 9 4 1 0 0 0 0 0 0 0 0 0 0 0 0 0 0 0 0 0 0 0 0 0 0 0 0 0 0 0 0 0 0 0 0 0 0 0 0 0 0 0 0 0 0 0 0 0 
0 0 0 0 0 0 0 0 0 0 0 0 0 0 0 0 0 0 0 0 0 0 0 0 0 0 0 0 0 4 4 1 13 17 14 12 12 18 25 28 30 32 33 37 45 53 65 88 64 87 104 107 102 101 96 97 100 102 115 109 112 98 109 92 90 54 50 54 40 37 28 24 25 20 17 12 14 16 14 11 9 3 1 0 0 0 0 0 0 0 0 0 0 0 0 0 0 0 0 0 0 0 0 0 0 0 0 0 0 0 0 0 0 0 0 0 0 0 0 0 0 0 0 0 0 0 0 0 
