P2
128 99
218
0 0 0 0 0 0 0 0 0 0 0 0 0 0 0 0 0 0 0 0 0 0 0 0 0 0 0 0 0 0 0 0 0 0 0 0 0 0 0 0 0 0 0 0 0 0 0 0 0 0 0 0 0 0 0 0 0 0 0 0 0 0 0 0 0 0 0 0 0 0 0 0 0 0 0 0 0 0 0 0 0 0 0 0 0 0 0 0 0 0 0 0 0 0 0 0 0 0 0 0 0 0 0 0 0 0 0 0 0 0 0 0 0 0 0 0 0 0 0 0 0 0 0 0 0 0 0 0 
0 0 0 0 0 0 0 0 0 0 0 0 0 0 0 0 0 0 0 0 0 0 0 0 0 0 0 0 0 0 0 0 0 0 0 0 0 0 0 0 0 0 0 0 0 0 0 0 0 0 0 0 0 0 0 0 0 0 0 0 0 0 0 0 0 0 0 0 0 0 0 0 0 0 0 0 0 0 0 0 0 0 0 0 0 0 0 0 0 0 0 0 0 0 0 0 0 0 0 0 0 0 0 0 0 0 0 0 0 0 0 0 0 0 0 0 0 0 0 0 0 0 0 0 0 0 0 0 
0 0 0 0 0 0 0 0 0 0 0 0 0 0 0 0 0 0 0 0 0 0 0 0 0 0 0 0 0 0 0 0 0 0 0 0 0 0 0 0 0 0 0 0 0 0 0 0 0 0 0 0 0 0 0 0 0 0 0 0 0 0 0 0 0 0 0 0 0 0 0 0 0 0 0 0 0 0 0 0 0 0 0 0 0 0 0 0 0 0 0 0 0 0 0 0 0 0 0 0 0 0 0 0 0 0 0 0 0 0 0 0 0 0 0 0 0 0 0 0 0 0 0 0 0 0 0 0 
0 0 0 0 0 0 0 0 0 0 0 0 0 0 0 0 0 0 0 0 0 0 0 0 0 0 0 0 0 0 0 0 0 0 0 0 0 0 0 0 0 0 0 0 0 7 17 18 18 19 22 25 28 27 25 21 18 16 14 12 3 0 0 0 0 0 0 0 0 0 0 0 0 0 0 0 0 0 0 0 0 0 0 0 0 0 0 0 0 0 0 0 0 0 0 0 0 0 0 0 0 0 0 0 0 0 0 0 0 0 0 0 0 0 0 0 0 0 0 0 0 0 0 0 0 0 0 0 
0 0 0 0 0 0 0 0 0 0 0 0 0 0 0 0 0 0 0 0 0 0 0 0 0 0 0 0 0 0 0 0 0 0 0 0 0 0 0 0 0 8 19 23 24 33 54 79 102 124 141 153 158 159 155 144 127 106 80 54 33 22 17 10 2 0 0 0 0 0 0 0 0 0 0 0 0 0 0 0 0 0 0 0 0 0 0 0 0 0 0 0 0 0 0 0 0 0 0 0 0 0 0 0 0 0 0 0 0 0 0 0 0 0 0 0 0 0 0 0 0 0 0 0 0 0 0 0 
0 0 0 0 0 0 0 0 0 0 0 0 0 0 0 0 0 0 0 0 0 0 0 0 0 0 0 0 0 0 0 0 0 0 0 0 0 0 0 17 23 25 36 68 114 154 177 188 193 196 198 196 194 194 195 196 195 192 186 176 155 121 80 44 22 16 10 0 0 0 0 0 0 0 0 0 0 0 0 0 0 0 0 0 0 0 0 0 0 0 0 0 0 0 0 0 0 0 0 0 0 0 0 0 0 0 0 0 0 0 0 0 0 0 0 0 0 0 0 0 0 0 0 0 0 0 0 0 
0 0 0 0 0 0 0 0 0 0 0 0 0 0 0 0 0 0 0 0 0 0 0 0 0 0 0 0 0 0 0 0 0 0 0 0 0 22 25 26 52 105 156 184 195 197 198 198 201 203 205 206 206 205 206 205 204 202 199 196 195 191 181 161 125 78 39 18 13 2 0 0 0 0 0 0 0 0 0 0 0 0 0 0 0 0 0 0 0 0 0 0 0 0 0 0 0 0 0 0 0 0 0 0 0 0 0 0 0 0 0 0 0 0 0 0 0 0 0 0 0 0 0 0 0 0 0 0 
0 0 0 0 0 0 0 0 0 0 0 0 0 0 0 0 0 0 0 0 0 0 0 0 0 0 0 0 0 0 0 0 0 0 0 24 25 26 63 128 174 192 197 198 200 204 201 194 189 185 188 195 193 179 178 191 205 211 210 205 201 199 197 196 192 180 153 103 49 22 13 1 0 0 0 0 0 0 0 0 0 0 0 0 0 0 0 0 0 0 0 0 0 0 0 0 0 0 0 0 0 0 0 0 0 0 0 0 0 0 0 0 0 0 0 0 0 0 0 0 0 0 0 0 0 0 0 0 
0 0 0 0 0 0 0 0 0 0 0 0 0 0 0 0 0 0 0 0 0 0 0 0 0 0 0 0 0 0 0 0 0 27 25 23 59 132 178 191 193 196 200 204 201 192 183 171 162 159 160 161 159 151 153 158 167 186 206 214 212 208 203 200 197 196 196 187 162 105 46 23 9 0 0 0 0 0 0 0 0 0 0 0 0 0 0 0 0 0 0 0 0 0 0 0 0 0 0 0 0 0 0 0 0 0 0 0 0 0 0 0 0 0 0 0 0 0 0 0 0 0 0 0 0 0 0 0 
0 0 0 0 0 0 0 0 0 0 0 0 0 0 0 0 0 0 0 0 0 0 0 0 0 0 0 0 0 0 0 14 26 21 41 117 175 189 191 194 198 203 200 185 170 165 158 147 142 140 144 151 152 148 152 154 156 159 172 191 211 216 212 211 206 202 198 197 196 187 153 81 31 19 0 0 0 0 0 0 0 0 0 0 0 0 0 0 0 0 0 0 0 0 0 0 0 0 0 0 0 0 0 0 0 0 0 0 0 0 0 0 0 0 0 0 0 0 0 0 0 0 0 0 0 0 0 0 
0 0 0 0 0 0 0 0 0 0 0 0 0 0 0 0 0 0 0 0 0 0 0 0 0 0 0 0 0 0 28 21 25 85 163 187 190 193 198 202 206 195 176 170 165 157 150 143 139 135 138 143 142 141 146 150 150 149 153 161 177 198 211 217 216 212 207 203 199 198 197 181 123 46 22 6 0 0 0 0 0 0 0 0 0 0 0 0 0 0 0 0 0 0 0 0 0 0 0 0 0 0 0 0 0 0 0 0 0 0 0 0 0 0 0 0 0 0 0 0 0 0 0 0 0 0 0 0 
0 0 0 0 0 0 0 0 0 0 0 0 0 0 0 0 0 0 0 0 0 0 0 0 0 0 0 0 0 25 18 48 136 183 187 192 199 203 207 202 186 176 169 163 159 155 152 147 145 142 136 138 136 135 146 152 151 151 152 156 162 174 190 203 214 218 216 211 207 203 201 199 191 155 69 24 9 0 0 0 0 0 0 0 0 0 0 0 0 0 0 0 0 0 0 0 0 0 0 0 0 0 0 0 0 0 0 0 0 0 0 0 0 0 0 0 0 0 0 0 0 0 0 0 0 0 0 0 
0 0 0 0 0 0 0 0 0 0 0 0 0 0 0 0 0 0 0 0 0 0 0 0 0 0 0 0 21 19 78 163 185 191 197 204 208 208 195 181 175 170 163 160 155 153 153 149 150 142 133 131 129 129 140 137 149 138 141 154 157 166 176 185 195 206 215 218 216 210 205 202 198 191 167 87 25 9 0 0 0 0 0 0 0 0 0 0 0 0 0 0 0 0 0 0 0 0 0 0 0 0 0 0 0 0 0 0 0 0 0 0 0 0 0 0 0 0 0 0 0 0 0 0 0 0 0 0 
0 0 0 0 0 0 0 0 0 0 0 0 0 0 0 0 0 0 0 0 0 0 0 0 0 0 0 18 26 103 173 185 196 203 207 211 204 188 179 172 169 164 159 155 152 152 153 152 143 137 128 126 123 125 130 141 152 155 156 156 157 159 166 173 180 186 195 206 214 217 214 207 201 195 191 173 97 27 9 0 0 0 0 0 0 0 0 0 0 0 0 0 0 0 0 0 0 0 0 0 0 0 0 0 0 0 0 0 0 0 0 0 0 0 0 0 0 0 0 0 0 0 0 0 0 0 0 0 
0 0 0 0 0 0 0 0 0 0 0 0 0 0 0 0 0 0 0 0 0 0 0 0 0 0 16 34 121 175 186 198 206 211 207 195 182 176 173 168 165 161 159 156 151 149 141 135 133 128 124 123 121 124 126 126 136 148 152 151 152 153 158 163 167 172 178 183 191 203 213 215 210 203 195 192 177 108 30 0 0 0 0 0 0 0 0 0 0 0 0 0 0 0 0 0 0 0 0 0 0 0 0 0 0 0 0 0 0 0 0 0 0 0 0 0 0 0 0 0 0 0 0 0 0 0 0 0 
0 0 0 0 0 0 0 0 0 0 0 0 0 0 0 0 0 0 0 0 0 0 0 0 0 15 53 133 172 187 200 207 210 198 184 177 173 172 169 165 161 155 150 142 141 130 125 126 122 122 122 120 118 124 126 126 125 129 138 147 148 148 149 155 161 164 167 169 173 180 191 205 212 210 203 195 192 179 121 36 0 0 0 0 0 0 0 0 0 0 0 0 0 0 0 0 0 0 0 0 0 0 0 0 0 0 0 0 0 0 0 0 0 0 0 0 0 0 0 0 0 0 0 0 0 0 0 0 
0 0 0 0 0 0 0 0 0 0 0 0 0 0 0 0 0 0 0 0 0 0 0 0 16 58 142 171 189 201 209 206 189 177 171 170 168 166 164 159 154 146 141 138 129 123 122 119 122 121 122 117 116 122 124 125 125 126 127 130 133 138 139 145 151 154 157 162 166 169 172 179 195 169 209 203 198 193 178 129 39 0 0 0 0 0 0 0 0 0 0 0 0 0 0 0 0 0 0 0 0 0 0 0 0 0 0 0 0 0 0 0 0 0 0 0 0 0 0 0 0 0 0 0 0 0 0 0 
0 0 0 0 0 0 0 0 0 0 0 0 0 0 0 0 0 0 0 0 0 0 0 19 72 151 172 189 204 210 202 178 168 168 168 163 157 97 151 148 146 142 136 127 123 122 118 120 122 120 118 112 112 121 122 123 125 125 125 127 130 131 133 137 141 144 146 149 153 158 161 165 171 187 201 207 203 198 191 179 134 27 0 0 0 0 0 0 0 0 0 0 0 0 0 0 0 0 0 0 0 0 0 0 0 0 0 0 0 0 0 0 0 0 0 0 0 0 0 0 0 0 0 0 0 0 0 0 
0 0 0 0 0 0 0 0 0 0 0 0 0 0 0 0 0 0 0 0 0 0 20 80 155 172 187 202 209 198 172 163 164 162 158 152 147 146 141 135 131 127 125 122 122 120 117 119 119 115 116 108 111 119 120 122 124 124 124 124 126 127 127 130 130 130 135 142 148 149 148 151 158 165 180 197 206 204 199 189 177 125 21 0 0 0 0 0 0 0 0 0 0 0 0 0 0 0 0 0 0 0 0 0 0 0 0 0 0 0 0 0 0 0 0 0 0 0 0 0 0 0 0 0 0 0 0 0 
0 0 0 0 0 0 0 0 0 0 0 0 0 0 0 0 0 0 0 0 0 12 85 156 170 183 198 206 192 169 162 160 157 156 149 141 137 135 131 127 125 122 122 123 118 115 115 116 114 114 111 106 93 120 120 120 122 123 123 123 123 123 122 122 125 125 129 134 142 147 146 142 148 153 162 174 192 206 205 196 185 172 110 0 0 0 0 0 0 0 0 0 0 0 0 0 0 0 0 0 0 0 0 0 0 0 0 0 0 0 0 0 0 0 0 0 0 0 0 0 0 0 0 0 0 0 0 0 
0 0 0 0 0 0 0 0 0 0 0 0 0 0 0 0 0 0 0 0 12 82 152 166 179 195 207 189 167 160 157 153 150 147 139 133 130 129 125 125 121 119 118 115 113 113 113 84 114 111 103 104 107 117 119 119 120 120 119 121 123 121 120 123 119 121 125 131 136 137 142 142 144 147 153 160 169 188 207 202 193 180 162 57 0 0 0 0 0 0 0 0 0 0 0 0 0 0 0 0 0 0 0 0 0 0 0 0 0 0 0 0 0 0 0 0 0 0 0 0 0 0 0 0 0 0 0 0 
0 0 0 0 0 0 0 0 0 0 0 0 0 0 0 0 0 0 0 0 74 145 161 174 190 203 188 165 159 155 150 147 145 140 129 127 127 125 123 121 117 114 112 113 113 111 109 109 101 94 101 104 106 110 114 114 117 116 118 119 120 118 117 117 114 116 121 126 131 133 132 134 135 139 146 152 159 165 190 206 201 191 174 146 0 0 0 0 0 0 0 0 0 0 0 0 0 0 0 0 0 0 0 0 0 0 0 0 0 0 0 0 0 0 0 0 0 0 0 0 0 0 0 0 0 0 0 0 
0 0 0 0 0 0 0 0 0 0 0 0 0 0 0 0 0 0 0 61 137 154 169 186 198 189 162 156 152 147 144 141 134 129 126 125 125 125 121 115 93 111 112 112 110 107 107 106 103 99 101 104 106 109 109 108 111 111 109 109 111 113 97 112 111 110 113 123 125 129 129 129 130 133 137 144 150 155 161 192 207 198 184 165 70 0 0 0 0 0 0 0 0 0 0 0 0 0 0 0 0 0 0 0 0 0 0 0 0 0 0 0 0 0 0 0 0 0 0 0 0 0 0 0 0 0 0 0 
0 0 0 0 0 0 0 0 0 0 0 0 0 0 0 0 0 0 34 126 150 164 180 195 191 163 153 149 146 145 138 132 129 129 127 125 122 118 114 97 108 103 101 100 102 103 103 105 105 95 108 107 106 108 106 104 106 106 107 106 107 110 110 109 109 110 111 113 121 124 124 124 125 130 134 139 149 149 150 164 197 203 192 176 152 0 0 0 0 0 0 0 0 0 0 0 0 0 0 0 0 0 0 0 0 0 0 0 0 0 0 0 0 0 0 0 0 0 0 0 0 0 0 0 0 0 0 0 
0 0 0 0 0 0 0 0 0 0 0 0 0 0 0 0 0 0 105 141 156 169 190 191 137 152 147 144 144 142 134 128 128 124 123 118 116 100 110 104 100 99 102 103 101 102 104 104 95 106 110 108 104 105 103 103 103 103 103 106 95 106 109 108 109 82 111 111 115 120 120 122 123 124 130 137 145 145 146 149 173 198 196 183 165 71 0 0 0 0 0 0 0 0 0 0 0 0 0 0 0 0 0 0 0 0 0 0 0 0 0 0 0 0 0 0 0 0 0 0 0 0 0 0 0 0 0 0 
0 0 0 0 0 0 0 0 0 0 0 0 0 0 0 0 0 50 133 148 164 182 186 175 152 142 141 141 142 93 131 126 123 123 121 114 113 109 91 101 100 101 103 102 101 101 104 104 103 105 110 110 105 108 104 104 103 104 103 103 103 106 93 107 106 108 109 109 111 115 117 122 122 123 127 134 142 142 142 141 151 183 195 187 171 78 0 0 0 0 0 0 0 0 0 0 0 0 0 0 0 0 0 0 0 0 0 0 0 0 0 0 0 0 0 0 0 0 0 0 0 0 0 0 0 0 0 0 
0 0 0 0 0 0 0 0 0 0 0 0 0 0 0 0 0 63 139 155 175 181 171 162 141 136 139 141 141 135 129 123 122 119 99 108 107 106 91 101 102 101 100 100 102 104 105 105 102 105 112 113 109 108 99 100 102 104 103 102 100 103 105 105 105 105 105 107 109 112 113 119 122 120 124 134 141 141 139 134 139 165 186 189 177 157 0 0 0 0 0 0 0 0 0 0 0 0 0 0 0 0 0 0 0 0 0 0 0 0 0 0 0 0 0 0 0 0 0 0 0 0 0 0 0 0 0 0 
0 0 0 0 0 0 0 0 0 0 0 0 0 0 0 0 0 129 147 163 180 167 165 147 135 135 137 140 136 132 122 118 117 117 113 106 108 78 102 101 100 99 101 102 101 104 105 105 106 103 107 111 111 105 97 97 98 104 104 102 100 101 101 104 107 108 107 107 108 98 112 115 122 122 125 131 139 141 136 131 133 157 175 185 180 164 72 0 0 0 0 0 0 0 0 0 0 0 0 0 0 0 0 0 0 0 0 0 0 0 0 0 0 0 0 0 0 0 0 0 0 0 0 0 0 0 0 0 
0 0 0 0 0 0 0 0 0 0 0 0 0 0 0 0 0 137 152 172 174 162 157 137 132 132 134 138 133 125 122 120 118 115 109 108 107 103 101 100 100 100 100 101 101 104 106 107 106 101 101 104 110 100 95 94 98 101 98 102 102 102 101 102 103 108 107 109 110 110 110 113 120 121 122 132 139 138 132 128 127 145 167 184 181 168 76 0 0 0 0 0 0 0 0 0 0 0 0 0 0 0 0 0 0 0 0 0 0 0 0 0 0 0 0 0 0 0 0 0 0 0 0 0 0 0 0 0 
0 0 0 0 0 0 0 0 0 0 0 0 0 0 0 0 65 141 158 171 153 155 146 131 131 129 131 133 127 124 123 120 119 111 107 107 107 103 102 101 101 101 100 101 103 104 103 104 104 101 99 100 107 100 95 95 96 97 95 96 97 102 102 103 106 107 109 111 113 112 96 113 118 119 121 132 137 131 126 126 121 144 160 180 182 169 149 0 0 0 0 0 0 0 0 0 0 0 0 0 0 0 0 0 0 0 0 0 0 0 0 0 0 0 0 0 0 0 0 0 0 0 0 0 0 0 0 0 
0 0 0 0 0 0 0 0 0 0 0 0 0 0 0 0 131 87 167 168 147 146 139 127 126 125 128 128 121 123 123 122 118 110 109 109 107 104 102 103 105 100 97 99 104 102 100 102 102 99 98 99 106 99 96 96 96 97 98 97 96 98 102 106 107 108 111 112 113 114 97 114 117 119 120 128 132 128 125 124 121 137 155 176 183 172 153 0 0 0 0 0 0 0 0 0 0 0 0 0 0 0 0 0 0 0 0 0 0 0 0 0 0 0 0 0 0 0 0 0 0 0 0 0 0 0 0 0 
0 0 0 0 0 0 0 0 0 0 0 0 0 0 0 0 136 155 169 151 137 140 136 126 121 121 122 125 119 121 122 120 117 113 110 110 106 103 104 103 79 79 73 89 101 99 99 101 101 99 98 97 105 98 97 96 97 98 98 100 101 103 101 105 110 110 112 114 114 114 115 98 118 119 121 125 126 126 121 118 119 135 158 173 183 173 157 70 0 0 0 0 0 0 0 0 0 0 0 0 0 0 0 0 0 0 0 0 0 0 0 0 0 0 0 0 0 0 0 0 0 0 0 0 0 0 0 0 
0 0 0 0 0 0 0 0 0 0 0 0 0 0 0 0 140 160 160 141 132 136 137 124 117 117 120 122 118 117 119 119 116 113 110 112 107 104 101 76 76 78 78 78 98 100 99 97 99 98 98 100 100 98 97 95 94 95 97 101 101 102 93 81 104 114 112 117 119 117 116 117 117 119 120 125 121 120 118 114 114 133 155 167 184 177 161 74 0 0 0 0 0 0 0 0 0 0 0 0 0 0 0 0 0 0 0 0 0 0 0 0 0 0 0 0 0 0 0 0 0 0 0 0 0 0 0 0 
0 0 0 0 0 0 0 0 0 0 0 0 0 0 0 66 86 163 154 138 130 135 138 122 114 113 117 121 115 113 119 86 116 115 113 113 109 105 89 73 75 77 78 74 79 98 97 96 96 96 101 103 101 97 94 92 91 94 95 97 100 100 82 83 79 84 112 114 119 119 118 118 118 119 120 124 116 113 116 115 115 134 156 168 176 181 165 141 0 0 0 0 0 0 0 0 0 0 0 0 0 0 0 0 0 0 0 0 0 0 0 0 0 0 0 0 0 0 0 0 0 0 0 0 0 0 0 0 
0 0 0 0 0 0 0 0 0 0 0 0 0 0 0 68 151 161 152 141 132 135 136 124 115 110 116 117 108 111 120 118 117 115 113 114 110 107 108 84 78 79 77 77 77 77 95 96 96 96 101 104 101 96 93 93 89 91 93 96 97 100 82 82 83 82 111 118 123 122 121 121 120 121 120 123 113 109 113 111 114 139 157 169 184 184 170 151 0 0 0 0 0 0 0 0 0 0 0 0 0 0 0 0 0 0 0 0 0 0 0 0 0 0 0 0 0 0 0 0 0 0 0 0 0 0 0 0 
0 0 0 0 0 0 0 0 0 0 0 0 0 0 0 137 157 164 153 144 136 135 137 126 115 110 114 112 106 111 121 117 116 116 115 117 114 111 113 115 112 105 75 74 77 79 99 100 96 97 100 102 103 96 95 94 90 88 93 95 96 89 80 80 79 112 117 123 123 124 126 126 124 123 123 128 115 110 109 109 118 141 155 166 185 186 174 159 0 0 0 0 0 0 0 0 0 0 0 0 0 0 0 0 0 0 0 0 0 0 0 0 0 0 0 0 0 0 0 0 0 0 0 0 0 0 0 0 
0 0 0 0 0 0 0 0 0 0 0 0 0 0 0 140 161 168 156 148 140 138 140 127 118 112 113 111 104 110 124 119 119 120 122 119 74 77 78 82 96 96 102 75 74 78 99 99 99 99 102 102 107 98 95 95 90 86 90 93 86 77 79 108 103 99 97 94 96 98 112 119 130 134 130 133 128 115 110 113 125 141 153 162 183 189 175 161 58 0 0 0 0 0 0 0 0 0 0 0 0 0 0 0 0 0 0 0 0 0 0 0 0 0 0 0 0 0 0 0 0 0 0 0 0 0 0 0 
0 0 0 0 0 0 0 0 0 0 0 0 0 0 58 144 163 169 154 149 145 143 141 131 122 115 112 105 103 114 127 121 126 127 116 92 87 82 81 86 86 85 85 84 98 106 103 99 95 96 96 101 109 102 97 95 91 86 89 83 78 86 102 94 93 91 93 93 93 96 98 99 112 128 141 141 141 125 114 121 130 140 147 156 177 190 180 164 65 0 0 0 0 0 0 0 0 0 0 0 0 0 0 0 0 0 0 0 0 0 0 0 0 0 0 0 0 0 0 0 0 0 0 0 0 0 0 0 
0 0 0 0 0 0 0 0 0 0 0 0 0 0 60 148 166 167 155 149 144 142 143 139 130 122 115 104 106 122 130 127 131 115 89 91 89 83 84 86 86 84 84 86 89 95 102 103 96 96 100 103 106 105 100 97 91 87 82 80 91 93 89 90 91 95 97 97 99 102 101 77 99 113 136 153 148 138 125 128 133 135 141 150 166 188 182 167 71 0 0 0 0 0 0 0 0 0 0 0 0 0 0 0 0 0 0 0 0 0 0 0 0 0 0 0 0 0 0 0 0 0 0 0 0 0 0 0 
0 0 0 0 0 0 0 0 0 0 0 0 0 0 62 151 165 167 152 147 142 139 138 139 135 125 121 113 111 127 135 136 114 97 91 92 88 87 90 93 91 87 84 87 88 92 71 78 88 100 103 105 110 111 109 102 96 91 73 88 96 83 74 87 92 96 99 101 101 104 106 107 109 116 131 154 154 145 137 132 130 130 134 143 140 182 183 168 74 0 0 0 0 0 0 0 0 0 0 0 0 0 0 0 0 0 0 0 0 0 0 0 0 0 0 0 0 0 0 0 0 0 0 0 0 0 0 0 
0 0 0 0 0 0 0 0 0 0 0 0 0 0 63 152 169 169 148 142 125 138 133 132 133 129 124 123 131 132 140 129 101 93 91 90 88 89 91 90 89 89 87 86 87 87 94 89 80 91 108 115 120 116 121 108 101 84 83 104 86 80 80 86 93 91 100 103 103 107 109 108 114 126 133 139 148 144 144 134 119 125 129 135 146 172 183 169 131 0 0 0 0 0 0 0 0 0 0 0 0 0 0 0 0 0 0 0 0 0 0 0 0 0 0 0 0 0 0 0 0 0 0 0 0 0 0 0 
0 0 0 0 0 0 0 0 0 0 0 0 0 0 65 154 171 170 139 135 137 135 132 127 129 131 125 122 135 141 146 127 111 103 99 95 92 74 88 83 87 88 88 87 87 88 95 100 80 76 108 117 125 118 126 112 102 83 87 100 82 77 83 91 96 99 100 102 104 107 109 109 117 121 122 126 133 143 145 134 124 122 125 125 135 163 181 169 138 0 0 0 0 0 0 0 0 0 0 0 0 0 0 0 0 0 0 0 0 0 0 0 0 0 0 0 0 0 0 0 0 0 0 0 0 0 0 0 
0 0 0 0 0 0 0 0 0 0 0 0 0 0 65 155 154 171 136 135 135 132 127 122 122 123 121 123 133 135 137 127 121 113 104 77 98 94 90 89 89 90 89 85 90 90 93 99 78 75 106 116 115 114 119 117 106 87 100 92 78 80 89 94 96 97 98 99 101 103 107 109 112 114 118 120 125 138 142 135 121 116 117 117 124 152 178 169 142 0 0 0 0 0 0 0 0 0 0 0 0 0 0 0 0 0 0 0 0 0 0 0 0 0 0 0 0 0 0 0 0 0 0 0 0 0 0 0 
0 0 0 0 0 0 0 0 0 0 0 0 0 0 105 158 175 169 133 133 132 127 120 113 115 119 120 125 125 125 125 118 111 108 102 97 95 93 90 85 86 88 89 89 92 91 89 96 90 75 107 106 105 111 109 115 49 106 100 85 76 86 90 93 93 94 93 94 98 100 102 105 112 113 117 116 125 136 141 133 116 112 112 114 117 139 172 169 145 0 0 0 0 0 0 0 0 0 0 0 0 0 0 0 0 0 0 0 0 0 0 0 0 0 0 0 0 0 0 0 0 0 0 0 0 0 0 0 
0 0 0 0 0 0 0 0 0 0 0 0 0 0 105 159 175 164 127 127 123 118 111 105 108 113 113 126 123 119 119 114 103 103 97 93 90 91 90 87 85 87 89 91 89 89 91 92 99 94 112 108 88 91 89 114 110 111 105 86 86 87 89 87 85 89 92 93 96 99 102 104 107 110 111 113 125 136 136 134 119 110 107 109 109 127 158 167 148 0 0 0 0 0 0 0 0 0 0 0 0 0 0 0 0 0 0 0 0 0 0 0 0 0 0 0 0 0 0 0 0 0 0 0 0 0 0 0 
0 0 0 0 0 0 0 0 0 0 0 0 0 0 103 160 175 157 120 118 115 111 104 99 101 106 112 125 125 119 115 113 103 99 94 89 88 87 88 84 85 87 84 89 86 86 90 87 79 97 122 123 113 101 102 97 115 109 100 91 91 90 90 81 82 88 90 93 96 97 100 102 103 110 109 112 124 131 131 137 128 110 107 110 111 123 139 156 149 0 0 0 0 0 0 0 0 0 0 0 0 0 0 0 0 0 0 0 0 0 0 0 0 0 0 0 0 0 0 0 0 0 0 0 0 0 0 0 
0 0 0 0 0 0 0 0 0 0 0 0 0 0 101 159 174 148 118 113 108 106 102 100 100 101 114 121 123 118 114 112 105 97 93 91 89 89 89 87 84 85 88 90 88 89 93 85 80 102 119 122 103 92 94 83 103 117 93 95 91 89 85 82 87 89 91 93 95 96 99 99 101 106 107 114 125 132 138 92 132 111 106 107 111 122 134 156 149 49 0 0 0 0 0 0 0 0 0 0 0 0 0 0 0 0 0 0 0 0 0 0 0 0 0 0 0 0 0 0 0 0 0 0 0 0 0 0 
0 0 0 0 0 0 0 0 0 0 0 0 0 0 95 157 172 139 117 110 108 108 96 101 101 103 115 116 120 119 116 112 106 97 93 92 90 90 90 90 87 83 83 85 87 90 92 84 84 104 118 109 85 78 87 78 83 122 82 91 89 86 82 88 90 88 92 93 96 90 98 98 102 104 105 119 134 141 137 136 131 111 105 104 110 119 134 159 144 47 0 0 0 0 0 0 0 0 0 0 0 0 0 0 0 0 0 0 0 0 0 0 0 0 0 0 0 0 0 0 0 0 0 0 0 0 0 0 
0 0 0 0 0 0 0 0 0 0 0 0 0 0 87 154 169 135 115 100 107 106 96 100 100 103 115 116 116 118 121 114 104 102 95 89 91 92 91 89 88 87 81 81 81 85 90 83 89 106 110 90 83 81 89 75 75 113 105 89 84 82 82 90 90 89 92 94 97 97 97 97 102 101 103 119 139 135 130 134 129 110 105 103 109 116 134 158 138 44 0 0 0 0 0 0 0 0 0 0 0 0 0 0 0 0 0 0 0 0 0 0 0 0 0 0 0 0 0 0 0 0 0 0 0 0 0 0 
0 0 0 0 0 0 0 0 0 0 0 0 0 0 80 150 168 137 116 99 105 105 104 100 98 99 110 116 115 117 121 117 104 102 96 94 95 96 94 92 89 86 83 79 80 83 85 76 89 106 103 86 84 89 95 78 76 89 114 93 85 79 82 89 90 92 94 95 94 93 94 97 100 98 102 119 134 129 127 133 128 109 106 103 107 114 137 155 132 40 0 0 0 0 0 0 0 0 0 0 0 0 0 0 0 0 0 0 0 0 0 0 0 0 0 0 0 0 0 0 0 0 0 0 0 0 0 0 
0 0 0 0 0 0 0 0 0 0 0 0 0 0 73 145 164 142 117 109 104 103 76 102 98 89 108 117 116 117 122 117 103 100 97 95 96 96 96 94 90 85 80 79 77 80 80 79 93 107 93 85 85 93 101 84 76 78 109 98 97 87 84 89 91 92 93 92 90 91 94 98 97 91 101 117 126 126 125 130 126 107 105 92 104 103 140 149 123 35 0 0 0 0 0 0 0 0 0 0 0 0 0 0 0 0 0 0 0 0 0 0 0 0 0 0 0 0 0 0 0 0 0 0 0 0 0 0 
0 0 0 0 0 0 0 0 0 0 0 0 0 0 64 138 160 144 119 98 102 102 103 104 98 93 103 116 117 118 110 113 103 98 99 95 95 93 94 93 92 89 83 79 85 95 92 89 97 89 90 83 83 97 100 89 81 78 92 110 112 109 102 96 93 94 97 95 91 92 94 97 94 94 101 115 122 124 128 131 125 107 102 90 101 114 142 142 112 30 0 0 0 0 0 0 0 0 0 0 0 0 0 0 0 0 0 0 0 0 0 0 0 0 0 0 0 0 0 0 0 0 0 0 0 0 0 0 
0 0 0 0 0 0 0 0 0 0 0 0 0 0 53 129 157 142 118 107 91 92 103 103 98 92 104 119 119 116 120 114 103 97 97 97 93 93 92 92 98 99 95 88 91 95 98 92 103 93 88 82 83 95 95 81 90 79 86 118 121 121 113 102 97 93 94 97 93 90 90 93 92 92 101 118 122 123 127 133 105 92 98 83 100 114 143 136 102 0 0 0 0 0 0 0 0 0 0 0 0 0 0 0 0 0 0 0 0 0 0 0 0 0 0 0 0 0 0 0 0 0 0 0 0 0 0 0 
0 0 0 0 0 0 0 0 0 0 0 0 0 0 42 119 151 141 114 104 97 98 103 105 100 92 105 119 119 117 119 117 104 100 100 97 93 93 92 96 99 96 93 95 104 109 104 98 107 84 85 82 83 98 93 86 90 88 92 113 123 115 106 112 111 108 105 100 95 91 89 94 98 102 107 123 128 125 127 136 138 118 98 87 78 121 144 131 94 0 0 0 0 0 0 0 0 0 0 0 0 0 0 0 0 0 0 0 0 0 0 0 0 0 0 0 0 0 0 0 0 0 0 0 0 0 0 0 
0 0 0 0 0 0 0 0 0 0 0 0 0 4 32 104 146 144 115 105 102 100 102 77 102 69 107 118 119 121 126 124 116 104 100 98 94 68 100 74 103 102 102 105 99 95 94 101 108 85 83 81 84 103 93 86 87 83 91 118 133 117 108 109 115 123 137 125 125 122 113 114 118 128 133 138 127 121 129 138 140 130 105 99 109 131 144 122 87 0 0 0 0 0 0 0 0 0 0 0 0 0 0 0 0 0 0 0 0 0 0 0 0 0 0 0 0 0 0 0 0 0 0 0 0 0 0 0 
0 0 0 0 0 0 0 0 0 0 0 0 0 4 25 93 141 149 119 111 107 88 98 102 92 100 110 115 119 120 126 125 126 129 119 112 111 114 117 115 113 107 92 91 102 102 99 107 108 82 83 88 88 102 92 80 80 81 88 125 134 112 105 107 112 125 148 153 146 149 152 150 145 132 132 138 137 127 129 139 140 132 125 112 109 139 137 118 79 0 0 0 0 0 0 0 0 0 0 0 0 0 0 0 0 0 0 0 0 0 0 0 0 0 0 0 0 0 0 0 0 0 0 0 0 0 0 0 
0 0 0 0 0 0 0 0 0 0 0 0 0 4 19 82 133 154 135 113 107 97 95 101 106 113 114 118 121 122 121 122 118 122 126 128 129 121 117 112 111 106 100 101 102 98 97 105 105 87 86 95 90 105 93 76 82 88 100 129 132 115 108 109 133 128 148 152 150 155 150 144 116 115 133 130 142 145 140 138 140 136 132 130 144 143 122 115 45 0 0 0 0 0 0 0 0 0 0 0 0 0 0 0 0 0 0 0 0 0 0 0 0 0 0 0 0 0 0 0 0 0 0 0 0 0 0 0 
0 0 0 0 0 0 0 0 0 0 0 0 0 5 14 69 124 151 150 118 100 97 99 111 119 117 119 125 122 122 127 132 133 131 125 127 116 123 123 119 113 105 97 94 94 95 96 102 111 100 89 90 92 106 93 83 89 97 107 119 119 117 114 115 120 132 146 147 147 148 142 143 140 133 146 148 151 155 162 157 151 151 148 154 165 141 112 110 38 0 0 0 0 0 0 0 0 0 0 0 0 0 0 0 0 0 0 0 0 0 0 0 0 0 0 0 0 0 0 0 0 0 0 0 0 0 0 0 
0 0 0 0 0 0 0 0 0 0 0 0 0 9 13 55 116 147 155 133 115 112 119 121 127 125 126 134 129 123 135 147 152 156 154 131 132 131 124 113 103 96 97 92 89 90 96 111 112 95 95 95 89 107 92 88 89 101 109 110 117 111 114 118 121 136 154 155 156 156 153 157 152 134 128 142 142 151 164 167 173 177 171 178 181 131 122 105 32 0 0 0 0 0 0 0 0 0 0 0 0 0 0 0 0 0 0 0 0 0 0 0 0 0 0 0 0 0 0 0 0 0 0 0 0 0 0 0 
0 0 0 0 0 0 0 0 0 0 0 0 0 8 9 37 110 145 153 149 137 147 137 135 141 141 141 137 131 131 141 156 161 162 150 149 152 147 133 115 109 105 100 94 92 92 106 114 100 88 93 95 96 118 98 86 84 94 104 103 112 112 111 118 120 125 135 144 152 157 152 143 140 124 122 128 140 148 161 170 174 181 186 182 163 124 122 87 16 3 0 0 0 0 0 0 0 0 0 0 0 0 0 0 0 0 0 0 0 0 0 0 0 0 0 0 0 0 0 0 0 0 0 0 0 0 0 0 
0 0 0 0 0 0 0 0 0 0 0 0 0 3 8 12 62 130 150 150 153 172 178 161 160 156 135 139 138 141 155 164 161 159 162 153 148 148 140 116 111 110 109 101 97 95 105 112 102 63 66 101 99 115 118 94 66 89 90 105 108 106 114 117 118 119 123 132 136 135 113 129 129 124 128 138 146 148 154 162 169 170 172 168 147 122 118 95 18 6 0 0 0 0 0 0 0 0 0 0 0 0 0 0 0 0 0 0 0 0 0 0 0 0 0 0 0 0 0 0 0 0 0 0 0 0 0 0 
0 0 0 0 0 0 0 0 0 0 0 0 0 0 6 10 37 117 153 153 158 174 175 172 168 179 161 153 138 130 143 156 163 162 163 155 149 154 139 113 106 110 111 107 101 101 111 109 104 84 93 103 106 120 118 100 84 81 88 98 104 102 102 113 117 118 124 130 133 124 119 115 114 122 137 147 143 143 143 150 156 170 159 142 121 123 120 64 8 5 0 0 0 0 0 0 0 0 0 0 0 0 0 0 0 0 0 0 0 0 0 0 0 0 0 0 0 0 0 0 0 0 0 0 0 0 0 0 
0 0 0 0 0 0 0 0 0 0 0 0 0 0 3 9 22 93 148 151 151 158 160 151 166 168 162 152 142 136 133 143 149 161 162 159 150 143 131 119 110 108 112 113 101 99 112 102 99 101 100 99 92 112 121 109 85 82 93 97 104 110 109 109 103 103 118 127 131 132 130 120 121 141 149 150 144 150 143 142 148 159 0 63 63 128 111 32 6 4 3 0 0 0 0 0 0 0 0 0 0 0 0 0 0 0 0 0 0 0 0 0 0 0 0 0 0 0 0 0 0 0 0 0 0 0 0 0 
0 0 0 0 0 0 0 0 0 0 0 0 0 0 0 0 0 44 137 150 146 140 149 149 143 150 152 146 142 145 134 132 139 143 145 149 144 135 131 122 106 103 104 101 100 104 116 101 102 113 109 101 95 102 120 121 67 94 100 96 105 117 120 124 110 93 95 103 109 115 121 116 118 145 156 159 155 153 144 142 135 139 0 60 0 0 28 16 7 6 7 0 0 0 0 0 0 0 0 0 0 0 0 0 0 0 0 0 0 0 0 0 0 0 0 0 0 0 0 0 0 0 0 0 0 0 0 0 
0 0 0 0 0 0 0 0 0 0 0 0 0 0 0 0 0 0 115 139 136 134 143 148 145 138 134 133 138 150 151 133 123 116 140 145 141 129 125 107 97 93 101 105 103 108 126 110 117 119 117 111 100 101 125 124 107 102 105 105 109 123 125 127 114 97 89 89 96 104 102 117 139 143 151 161 161 156 152 148 143 71 59 53 0 0 0 0 3 6 6 0 0 0 0 0 0 0 0 0 0 0 0 0 0 0 0 0 0 0 0 0 0 0 0 0 0 0 0 0 0 0 0 0 0 0 0 0 
0 0 0 0 0 0 0 0 0 0 0 0 0 0 0 0 0 0 53 124 125 132 139 147 141 138 134 130 134 148 153 137 120 103 117 135 145 139 113 94 42 97 103 109 96 111 124 123 122 122 134 132 115 112 138 133 116 109 114 117 115 127 128 128 112 104 89 85 92 107 113 135 134 131 142 152 161 163 175 165 77 0 64 0 0 0 0 0 0 4 5 0 0 0 0 0 0 0 0 0 0 0 0 0 0 0 0 0 0 0 0 0 0 0 0 0 0 0 0 0 0 0 0 0 0 0 0 0 
0 0 0 0 0 0 0 0 0 0 0 0 0 0 0 0 0 0 35 119 132 125 138 77 150 144 140 137 143 147 150 135 117 118 115 122 117 118 108 88 89 102 101 108 120 125 126 130 134 136 143 145 149 153 153 141 138 140 133 130 129 142 142 136 122 104 89 89 98 119 117 114 127 123 135 149 162 172 182 172 74 0 11 0 0 0 0 0 0 0 2 0 0 0 0 0 0 0 0 0 0 0 0 0 0 0 0 0 0 0 0 0 0 0 0 0 0 0 0 0 0 0 0 0 0 0 0 0 
0 0 0 0 0 0 0 0 0 0 0 0 0 0 0 0 0 0 18 103 126 115 63 0 0 157 155 146 149 148 150 141 131 127 115 118 110 96 91 105 107 113 112 115 128 140 139 142 149 150 152 155 164 173 176 167 161 154 145 144 148 163 166 154 137 120 114 110 117 127 112 114 125 122 125 150 160 178 174 163 129 49 42 0 0 0 0 0 0 0 0 0 0 0 0 0 0 0 0 0 0 0 0 0 0 0 0 0 0 0 0 0 0 0 0 0 0 0 0 0 0 0 0 0 0 0 0 0 
0 0 0 0 0 0 0 0 0 0 0 0 0 0 0 0 0 0 0 69 121 120 112 122 151 165 163 155 149 146 150 148 135 130 122 120 113 104 102 110 136 134 127 124 137 148 153 151 152 144 143 147 147 148 154 157 153 146 138 140 146 162 171 167 152 146 137 139 144 120 106 107 115 120 116 142 157 179 164 148 129 115 0 0 0 0 0 0 0 0 0 0 0 0 0 0 0 0 0 0 0 0 0 0 0 0 0 0 0 0 0 0 0 0 0 0 0 0 0 0 0 0 0 0 0 0 0 0 
0 0 0 0 0 0 0 0 0 0 0 0 0 0 0 0 0 0 0 41 95 114 114 116 137 157 165 164 150 147 145 148 139 130 119 120 116 121 127 131 138 155 157 150 154 154 155 161 153 148 143 148 146 151 148 149 149 150 144 144 147 158 171 169 170 165 155 158 148 114 99 98 106 118 124 142 159 174 154 131 113 103 109 100 64 0 0 0 0 0 0 0 0 0 0 0 0 0 0 0 0 0 0 0 0 0 0 0 0 0 0 0 0 0 0 0 0 0 0 0 0 0 0 0 0 0 0 0 
0 0 0 0 0 0 0 0 0 0 0 0 8 9 2 0 0 0 6 29 83 115 123 110 121 140 161 164 155 138 140 141 135 124 111 111 113 117 123 131 140 158 169 170 165 162 163 162 154 151 152 161 165 166 157 147 151 154 141 145 145 150 160 167 172 165 157 159 148 111 90 97 113 125 145 156 162 166 150 129 98 84 98 99 59 10 0 0 0 0 0 0 0 0 0 0 0 0 0 0 0 0 0 0 0 0 0 0 0 0 0 0 0 0 0 0 0 0 0 0 0 0 0 0 0 0 0 0 
0 0 0 0 0 0 0 0 0 0 0 0 7 13 9 7 0 0 14 19 65 103 119 116 115 119 149 152 165 142 131 130 134 112 102 104 107 113 118 120 130 148 164 168 168 165 168 164 160 160 162 172 170 165 157 136 137 143 131 128 130 147 149 168 174 172 168 164 149 111 94 97 108 121 162 176 178 175 136 108 88 86 99 93 39 15 0 0 0 0 0 0 0 0 0 0 0 0 0 0 0 0 0 0 0 0 0 0 0 0 0 0 0 0 0 0 0 0 0 0 0 0 0 0 0 0 0 0 
0 0 0 0 0 0 0 0 0 0 0 0 6 11 9 8 9 12 16 14 34 86 118 117 103 114 140 154 168 150 141 132 88 113 89 100 106 110 110 110 116 142 163 164 163 161 158 157 157 157 162 173 167 165 143 119 120 128 130 126 133 151 153 166 183 179 171 163 148 119 98 99 111 135 165 167 175 161 145 97 79 80 80 64 20 14 8 3 0 3 5 6 4 0 0 0 0 0 0 0 0 0 0 0 0 0 0 0 0 0 0 0 0 0 0 0 0 0 0 0 0 0 0 0 0 0 0 0 
0 0 0 0 0 0 0 0 0 0 0 0 0 10 9 9 9 10 13 15 17 50 108 111 109 109 126 152 167 168 153 141 130 125 104 94 95 97 99 107 125 147 158 159 158 154 151 148 148 143 155 156 145 163 157 131 126 131 130 124 142 162 154 172 178 178 171 169 165 132 123 120 137 149 149 148 128 107 106 77 66 87 92 36 12 9 10 6 5 6 6 7 12 0 0 0 0 0 0 0 0 0 0 0 0 0 0 0 0 0 0 0 0 0 0 0 0 0 0 0 0 0 0 0 0 0 0 0 
0 0 0 0 0 0 0 0 0 0 0 0 0 5 6 6 6 5 9 15 20 28 71 99 94 92 114 147 147 97 168 150 134 134 121 105 104 108 116 135 140 167 180 173 173 166 163 168 167 173 170 159 161 182 185 168 157 160 160 155 163 168 181 187 176 176 169 179 172 170 148 130 145 137 112 94 91 89 93 76 50 98 53 15 0 0 1 4 5 5 5 0 0 0 0 0 0 0 0 0 0 0 0 0 0 0 0 0 0 0 0 0 0 0 0 0 0 0 0 0 0 0 0 0 0 0 0 0 
0 0 0 0 0 0 0 0 0 0 0 0 0 0 5 3 3 3 3 11 17 21 36 82 87 75 91 100 0 138 143 151 145 142 131 113 115 122 133 145 171 183 188 192 195 201 193 199 192 181 181 183 183 182 179 173 161 176 182 187 190 194 204 205 199 206 188 192 135 145 151 143 107 86 77 85 84 83 48 0 0 20 29 22 0 0 0 1 2 3 4 7 0 0 0 0 0 0 0 0 0 0 0 0 0 0 0 0 0 0 0 0 0 0 0 0 0 0 0 0 0 0 0 0 0 0 0 0 
0 0 0 0 0 0 0 0 0 0 0 0 0 0 1 2 1 0 0 5 14 20 25 40 80 84 66 56 67 77 96 110 0 0 123 125 119 132 151 171 177 174 181 183 189 197 190 186 184 174 165 171 153 168 148 136 140 133 138 159 165 188 202 184 172 188 183 176 158 141 126 107 89 77 75 90 87 46 32 25 0 20 36 26 0 0 0 0 1 0 1 0 0 0 0 0 0 0 0 0 0 0 0 0 0 0 0 0 0 0 0 0 0 0 0 0 0 0 0 0 0 0 0 0 0 0 0 0 
0 0 0 0 0 0 0 0 0 0 0 0 0 0 0 2 4 3 2 4 10 14 19 22 36 51 36 17 68 63 64 61 79 82 78 87 74 68 77 76 77 121 142 149 139 137 137 120 131 106 82 97 110 101 100 101 90 83 101 102 98 111 102 139 133 157 82 83 64 62 56 66 62 55 56 78 84 83 50 29 28 25 22 5 0 0 3 3 0 0 0 0 0 0 0 0 0 0 0 0 0 0 0 0 0 0 0 0 0 0 0 0 0 0 0 0 0 0 0 0 0 0 0 0 0 0 0 0 
0 0 0 0 0 0 0 0 0 0 0 0 0 0 0 0 0 3 2 1 6 10 13 16 21 22 23 33 67 65 61 62 63 64 62 66 69 61 68 67 82 88 83 82 90 95 82 71 76 79 60 74 90 91 91 89 73 61 75 74 83 100 87 80 78 94 92 99 108 101 64 63 62 55 56 76 84 81 47 29 28 24 16 3 0 0 1 0 0 0 0 0 0 0 0 0 0 0 0 0 0 0 0 0 0 0 0 0 0 0 0 0 0 0 0 0 0 0 0 0 0 0 0 0 0 0 0 0 
0 0 0 0 0 0 0 0 0 0 0 0 0 0 0 0 0 0 0 0 3 5 10 15 20 26 27 36 69 75 65 65 68 70 67 66 77 94 122 128 139 142 109 101 103 104 97 99 106 90 75 91 88 98 97 94 88 78 96 108 107 116 102 94 118 143 106 91 106 94 87 88 80 74 74 86 92 84 49 33 29 23 14 5 0 0 0 0 0 0 0 0 0 0 0 0 0 0 0 0 0 0 0 0 0 0 0 0 0 0 0 0 0 0 0 0 0 0 0 0 0 0 0 0 0 0 0 0 
0 0 0 0 0 0 0 0 0 0 0 0 0 0 0 0 0 0 0 0 0 0 2 8 15 29 34 42 76 88 80 74 78 86 86 89 100 120 124 143 157 170 159 136 144 162 161 160 147 124 117 119 126 125 121 127 122 117 123 139 150 135 138 150 134 164 131 133 108 127 119 99 97 81 76 85 84 78 4 0 0 0 0 0 0 0 0 0 0 0 0 0 0 0 0 0 0 0 0 0 0 0 0 0 0 0 0 0 0 0 0 0 0 0 0 0 0 0 0 0 0 0 0 0 0 0 0 0 
0 0 0 0 0 0 0 0 0 0 0 0 0 0 0 0 0 0 0 0 0 0 0 5 8 23 29 38 63 79 74 74 84 92 97 96 102 114 127 118 162 172 172 163 174 179 174 182 162 169 169 160 162 164 163 159 158 154 157 142 123 146 168 142 165 156 150 131 145 150 127 130 101 79 61 70 74 57 0 0 0 0 0 0 0 0 0 0 0 0 0 0 0 0 0 0 0 0 0 0 0 0 0 0 0 0 0 0 0 0 0 0 0 0 0 0 0 0 0 0 0 0 0 0 0 0 0 0 
0 0 0 0 0 0 0 0 0 0 0 0 0 0 0 0 0 0 0 0 0 0 0 3 8 17 28 36 54 76 77 72 74 77 75 71 78 95 107 112 128 130 71 82 127 138 155 171 164 154 145 137 141 136 140 132 137 137 137 135 141 148 129 120 128 127 136 141 152 154 115 71 50 50 61 82 80 18 22 19 0 7 6 0 0 0 0 0 0 0 0 0 0 0 0 0 0 0 0 0 0 0 0 0 0 0 0 0 0 0 0 0 0 0 0 0 0 0 0 0 0 0 0 0 0 0 0 0 
0 0 0 0 0 0 0 0 0 0 0 0 0 0 0 0 0 0 0 0 0 0 0 6 10 15 20 22 33 55 68 67 65 75 58 56 55 72 94 113 113 114 109 95 102 117 133 137 125 123 118 97 107 99 104 94 105 88 108 108 113 130 128 106 118 128 137 122 134 122 99 68 52 55 72 101 86 46 24 17 9 12 7 0 0 0 0 0 0 0 0 0 0 0 0 0 0 0 0 0 0 0 0 0 0 0 0 0 0 0 0 0 0 0 0 0 0 0 0 0 0 0 0 0 0 0 0 0 
0 0 0 0 0 0 0 0 0 0 0 0 0 0 0 0 0 0 0 0 0 0 0 6 9 13 18 21 25 45 63 75 73 70 58 51 53 66 83 102 100 101 101 103 110 121 133 132 99 115 108 74 94 93 96 91 104 112 89 110 78 116 120 95 85 106 125 129 128 108 93 68 55 59 82 108 88 49 24 19 18 12 5 0 0 0 0 0 0 0 0 0 0 0 0 0 0 0 0 0 0 0 0 0 0 0 0 0 0 0 0 0 0 0 0 0 0 0 0 0 0 0 0 0 0 0 0 0 
0 0 0 0 0 0 0 0 0 0 0 0 0 0 0 0 0 0 0 0 0 0 0 3 9 10 16 21 23 37 58 76 78 72 62 53 49 58 74 98 94 86 90 93 102 112 122 122 128 117 112 100 97 101 98 93 104 104 117 122 115 123 121 108 102 98 111 118 109 96 79 61 55 63 90 112 87 51 25 19 16 11 4 0 0 0 0 0 0 0 0 0 0 0 0 0 0 0 0 0 0 0 0 0 0 0 0 0 0 0 0 0 0 0 0 0 0 0 0 0 0 0 0 0 0 0 0 0 
0 0 0 0 0 0 0 0 0 0 0 0 0 0 0 0 0 0 0 0 0 0 0 0 6 9 13 19 22 33 50 70 75 75 68 42 38 56 58 67 73 78 87 92 99 107 114 121 137 128 118 108 106 104 98 95 101 99 83 120 122 143 133 112 99 95 100 108 110 99 81 64 59 66 96 114 83 52 26 18 15 10 3 0 0 0 0 0 0 0 0 0 0 0 0 0 0 0 0 0 0 0 0 0 0 0 0 0 0 0 0 0 0 0 0 0 0 0 0 0 0 0 0 0 0 0 0 0 
0 0 0 0 0 0 0 0 0 0 0 0 0 0 0 0 0 0 0 0 0 0 0 0 2 8 9 16 20 28 45 62 81 79 72 64 57 51 53 59 66 74 87 93 102 105 105 112 127 119 116 107 102 102 96 96 98 100 107 113 121 123 122 100 103 104 99 94 96 96 82 72 66 72 96 110 83 52 26 17 14 9 2 0 0 0 0 0 0 0 0 0 0 0 0 0 0 0 0 0 0 0 0 0 0 0 0 0 0 0 0 0 0 0 0 0 0 0 0 0 0 0 0 0 0 0 0 0 
0 0 0 0 0 0 0 0 0 0 0 0 0 0 0 0 0 0 0 0 0 0 0 0 0 5 9 13 18 25 43 55 80 77 76 71 63 54 54 59 64 71 85 99 107 104 97 83 78 108 81 106 98 99 96 94 96 102 107 107 115 84 110 103 107 108 104 88 78 75 68 69 71 81 98 106 79 45 20 16 13 8 1 0 0 0 0 0 0 0 0 0 0 0 0 0 0 0 0 0 0 0 0 0 0 0 0 0 0 0 0 0 0 0 0 0 0 0 0 0 0 0 0 0 0 0 0 0 
0 0 0 0 0 0 0 0 0 0 0 0 0 0 0 0 0 0 0 0 0 0 0 0 0 2 6 12 15 20 33 53 68 73 79 76 67 60 55 54 60 61 84 94 100 99 96 78 89 97 110 101 93 93 94 97 97 101 100 104 110 93 101 92 96 98 98 85 74 67 61 71 79 86 102 88 48 23 17 16 16 8 1 0 0 0 0 0 0 0 0 0 0 0 0 0 0 0 0 0 0 0 0 0 0 0 0 0 0 0 0 0 0 0 0 0 0 0 0 0 0 0 0 0 0 0 0 0 
0 0 0 0 0 0 0 0 0 0 0 0 0 0 0 0 0 0 0 0 0 0 0 0 0 3 4 8 14 18 21 32 41 46 73 80 70 65 58 52 56 67 78 81 91 94 94 88 87 97 113 105 96 95 99 99 99 80 100 100 103 98 94 89 92 90 85 77 74 65 61 73 82 92 100 44 18 16 17 18 14 7 1 0 0 0 0 0 0 0 0 0 0 0 0 0 0 0 0 0 0 0 0 0 0 0 0 0 0 0 0 0 0 0 0 0 0 0 0 0 0 0 0 0 0 0 0 0 
0 0 0 0 0 0 0 0 0 0 0 0 0 0 0 0 0 0 0 0 0 0 0 0 0 0 5 4 12 17 19 20 18 16 11 77 79 73 66 62 58 61 69 72 79 82 88 88 90 100 102 101 96 90 88 93 104 101 95 93 89 97 97 89 86 84 73 62 72 68 71 81 90 97 72 18 15 15 17 17 14 6 0 0 0 0 0 0 0 0 0 0 0 0 0 0 0 0 0 0 0 0 0 0 0 0 0 0 0 0 0 0 0 0 0 0 0 0 0 0 0 0 0 0 0 0 0 0 
0 0 0 0 0 0 0 0 0 0 0 0 0 0 0 0 0 0 0 0 0 0 0 0 0 0 0 4 8 13 18 18 18 18 13 25 77 81 75 69 67 66 68 73 80 78 83 88 101 104 96 97 99 96 92 93 103 105 68 91 71 101 106 97 87 84 80 79 76 76 82 89 61 78 35 19 14 15 17 16 12 6 1 0 0 0 0 0 0 0 0 0 0 0 0 0 0 0 0 0 0 0 0 0 0 0 0 0 0 0 0 0 0 0 0 0 0 0 0 0 0 0 0 0 0 0 0 0 
0 0 0 0 0 0 0 0 0 0 0 0 0 0 0 0 0 0 0 0 0 0 0 0 0 0 0 2 8 10 16 18 17 18 14 13 23 71 82 81 76 63 75 80 88 87 88 87 82 102 97 99 100 97 96 104 113 112 108 94 105 111 107 97 94 89 87 88 87 90 94 95 76 36 24 17 12 15 17 15 11 6 1 0 0 0 0 0 0 0 0 0 0 0 0 0 0 0 0 0 0 0 0 0 0 0 0 0 0 0 0 0 0 0 0 0 0 0 0 0 0 0 0 0 0 0 0 0 
0 0 0 0 0 0 0 0 0 0 0 0 0 0 0 0 0 0 0 0 0 0 0 0 0 0 0 0 5 7 11 17 18 19 14 7 17 33 35 80 84 87 86 87 100 100 91 89 90 104 103 98 99 98 97 87 111 110 111 108 101 103 106 102 95 80 102 100 97 96 92 72 36 26 23 15 14 16 15 14 10 5 1 0 0 0 0 0 0 0 0 0 0 0 0 0 0 0 0 0 0 0 0 0 0 0 0 0 0 0 0 0 0 0 0 0 0 0 0 0 0 0 0 0 0 0 0 0 
0 0 0 0 0 0 0 0 0 0 0 0 0 0 0 0 0 0 0 0 0 0 0 0 0 0 0 0 3 6 9 15 17 19 15 12 16 10 0 51 75 88 94 98 106 104 102 98 101 109 102 95 95 102 106 110 112 108 114 116 109 105 114 109 94 108 112 108 99 87 62 35 28 26 22 17 15 14 14 13 10 5 1 0 0 0 0 0 0 0 0 0 0 0 0 0 0 0 0 0 0 0 0 0 0 0 0 0 0 0 0 0 0 0 0 0 0 0 0 0 0 0 0 0 0 0 0 0 
0 0 0 0 0 0 0 0 0 0 0 0 0 0 0 0 0 0 0 0 0 0 0 0 0 0 0 0 1 7 7 13 16 18 15 12 14 0 0 15 38 61 83 94 101 113 109 107 107 108 108 103 103 104 99 104 105 108 113 115 114 107 114 117 113 110 111 104 82 50 31 29 28 24 21 16 14 14 14 12 9 5 1 0 0 0 0 0 0 0 0 0 0 0 0 0 0 0 0 0 0 0 0 0 0 0 0 0 0 0 0 0 0 0 0 0 0 0 0 0 0 0 0 0 0 0 0 0 
0 0 0 0 0 0 0 0 0 0 0 0 0 0 0 0 0 0 0 0 0 0 0 0 0 0 0 0 0 7 6 10 14 18 15 12 12 20 25 29 31 33 41 60 85 98 100 101 102 106 113 112 108 101 98 100 100 106 115 108 111 114 118 115 110 101 87 63 43 37 29 28 26 23 18 16 12 15 14 12 9 4 1 0 0 0 0 0 0 0 0 0 0 0 0 0 0 0 0 0 0 0 0 0 0 0 0 0 0 0 0 0 0 0 0 0 0 0 0 0 0 0 0 0 0 0 0 0 
0 0 0 0 0 0 0 0 0 0 0 0 0 0 0 0 0 0 0 0 0 0 0 0 0 0 0 0 0 4 4 5 13 17 16 13 12 19 25 28 31 32 32 37 49 59 81 88 83 94 105 108 104 102 101 104 105 106 116 110 115 107 106 100 90 71 50 57 40 36 28 28 26 22 17 14 15 14 14 12 9 3 1 0 0 0 0 0 0 0 0 0 0 0 0 0 0 0 0 0 0 0 0 0 0 0 0 0 0 0 0 0 0 0 0 0 0 0 0 0 0 0 0 0 0 0 0 0 
