P2
128 99
181
0 0 0 0 0 0 0 0 0 0 0 0 0 0 0 0 0 0 0 0 0 0 0 0 0 0 0 0 0 0 0 0 1 2 1 0 0 0 0 0 0 0 0 0 0 0 0 0 0 0 0 0 0 0 0 0 0 0 0 0 0 0 0 0 0 0 0 0 0 0 0 0 0 0 0 0 0 0 0 0 0 0 0 0 0 0 0 0 0 0 0 0 1 2 2 2 0 0 0 0 0 0 0 0 0 0 0 0 0 0 0 0 0 0 0 0 0 0 0 0 0 0 0 0 0 0 0 0 
0 0 0 0 0 0 0 0 0 0 0 0 0 0 0 0 0 0 0 0 0 0 0 0 0 0 0 0 0 0 0 0 1 2 1 0 0 0 0 0 0 0 0 0 0 0 0 0 0 0 0 0 0 0 0 0 0 0 0 0 0 0 0 0 0 0 0 0 0 0 0 0 0 0 0 0 0 0 0 0 0 0 0 0 0 0 0 0 0 0 0 0 1 2 2 2 0 0 0 0 0 0 0 0 0 0 0 0 0 0 0 0 0 0 0 0 0 0 0 0 0 0 0 0 0 0 0 0 
0 0 0 0 0 0 0 0 0 0 0 0 0 0 0 0 0 0 0 0 0 0 0 0 0 0 0 0 0 0 0 0 1 2 1 0 0 0 0 0 0 0 0 0 0 0 0 0 0 0 0 1 2 2 1 0 0 0 0 0 0 0 0 0 0 0 0 0 0 0 0 0 0 0 0 0 0 0 0 0 0 0 0 0 0 0 0 0 0 0 0 0 1 1 2 2 0 0 0 0 0 0 0 0 0 0 0 0 0 0 0 0 0 0 0 0 0 0 0 0 0 0 0 0 0 0 0 0 
0 0 0 0 0 0 0 0 0 0 0 0 0 0 0 0 0 0 0 0 0 0 0 0 0 0 0 0 0 0 0 0 1 1 1 0 0 0 0 0 0 0 0 1 4 9 11 12 12 13 15 17 19 19 17 14 12 10 10 8 3 0 0 0 0 0 0 0 0 0 0 0 0 0 0 0 0 0 0 0 0 0 0 0 0 0 0 0 0 0 0 0 1 2 2 2 0 0 0 0 0 0 0 0 0 0 0 0 0 0 0 0 0 0 0 0 0 0 0 0 0 0 0 0 0 0 0 0 
0 0 0 0 0 0 0 0 0 0 0 0 0 0 0 0 0 0 0 0 0 0 0 0 0 0 0 0 0 0 0 0 1 1 0 0 0 0 0 0 3 9 13 16 16 23 37 55 73 90 104 114 119 119 115 106 92 75 56 37 23 15 11 7 2 0 0 0 0 0 0 0 0 0 0 0 0 0 0 0 0 0 0 0 0 0 0 0 0 0 0 0 1 2 2 2 0 0 0 0 0 0 0 0 0 0 0 0 0 0 0 0 0 0 0 0 0 0 0 0 0 0 0 0 0 0 0 0 
0 0 0 0 0 0 0 0 0 0 0 0 0 0 0 0 0 0 0 0 0 0 0 0 0 0 0 0 0 0 0 0 1 1 0 0 0 0 6 12 16 16 24 47 81 115 135 146 151 154 156 155 153 152 153 154 153 150 144 134 116 87 56 30 16 11 7 1 0 0 0 0 0 0 0 0 0 0 0 0 0 0 0 0 0 0 0 0 0 0 0 0 1 1 2 2 0 0 0 0 0 0 0 0 0 0 0 0 0 0 0 0 0 0 0 0 0 0 0 0 0 0 0 0 0 0 0 0 
0 0 0 0 0 0 0 0 0 0 0 0 0 0 0 0 0 0 0 0 0 0 0 0 0 0 0 0 0 0 0 0 1 0 0 0 6 15 16 17 36 74 117 142 154 156 157 157 160 163 165 166 166 165 166 166 164 161 158 155 154 149 139 121 91 54 26 13 9 1 0 0 0 0 0 0 0 0 0 0 0 0 0 0 0 0 0 0 0 0 0 0 1 2 2 2 0 0 0 0 0 0 0 0 0 0 0 0 0 0 0 0 0 0 0 0 0 0 0 0 0 0 0 0 0 0 0 0 
0 0 0 0 0 0 0 0 0 0 0 0 0 0 0 0 0 0 0 0 0 0 0 0 0 0 0 0 0 0 0 0 1 0 5 16 16 18 44 93 132 150 156 157 160 163 161 155 148 143 147 154 152 139 137 151 165 172 170 165 161 158 156 154 150 138 113 73 34 16 9 1 0 0 0 0 0 0 0 0 0 0 0 0 0 0 0 0 0 0 0 0 1 2 2 2 0 0 0 0 0 0 0 0 0 0 0 0 0 0 0 0 0 0 0 0 0 0 0 0 0 0 0 0 0 0 0 0 
0 0 0 0 0 0 0 0 0 0 0 0 0 0 0 0 0 0 0 0 0 0 0 0 0 0 0 0 0 0 0 0 3 19 17 16 41 97 137 149 152 156 160 164 161 151 141 131 122 120 120 121 119 113 114 119 127 145 166 176 173 168 164 160 156 156 154 146 121 75 31 16 7 0 0 0 0 0 0 0 0 0 0 0 0 0 0 0 0 0 0 0 1 2 2 2 0 0 0 0 0 0 0 0 0 0 0 0 0 0 0 0 0 0 0 0 0 0 0 0 0 0 0 0 0 0 0 0 
0 0 0 0 0 0 0 0 0 0 0 0 0 0 0 0 0 0 0 0 0 0 0 0 0 0 0 0 0 0 0 16 18 15 28 83 134 147 149 152 157 164 160 144 129 124 117 109 105 103 107 113 114 110 113 116 118 121 130 150 171 177 176 172 166 161 157 156 155 145 114 57 21 13 1 0 0 0 0 0 0 0 0 0 0 0 0 0 0 0 0 0 1 2 2 2 0 0 0 0 0 0 0 0 0 0 0 0 0 0 0 0 0 0 0 0 0 0 0 0 0 0 0 0 0 0 0 0 
0 0 0 0 0 0 0 0 0 0 0 0 0 0 0 0 0 0 0 0 0 0 0 0 0 0 0 0 0 7 19 15 18 60 124 146 150 152 157 163 166 154 135 130 125 118 112 106 102 101 102 105 104 104 108 112 113 111 114 121 137 158 173 179 178 172 167 163 158 157 155 139 89 31 15 4 0 0 0 0 0 0 0 0 0 0 0 0 0 0 0 0 1 2 2 2 0 0 0 0 0 0 0 0 0 0 0 0 0 0 0 0 0 0 0 0 0 0 0 0 0 0 0 0 0 0 0 0 
0 0 0 0 0 0 0 0 0 0 0 0 0 0 0 0 0 0 0 0 0 0 0 0 0 0 0 0 15 16 12 34 100 142 146 152 159 163 168 162 145 136 129 123 120 116 114 109 108 104 100 101 100 99 108 113 113 111 114 117 123 133 149 163 175 180 177 173 167 164 161 157 149 116 48 16 7 0 0 0 0 0 0 0 0 0 0 0 0 0 0 0 1 2 2 2 0 0 0 0 0 0 0 0 0 0 0 0 0 0 0 0 0 0 0 0 0 0 0 0 0 0 0 0 0 0 0 0 
0 0 0 0 0 0 0 0 0 0 0 0 0 0 0 0 0 0 0 0 0 0 0 0 0 0 3 18 14 13 55 123 143 150 157 164 168 168 154 141 134 129 123 120 116 115 115 112 113 105 97 95 93 92 102 108 110 111 114 117 119 126 136 144 154 165 176 181 178 171 165 161 156 149 126 62 17 8 0 0 0 0 0 0 0 0 0 0 0 0 0 0 1 2 2 2 0 0 0 0 0 0 0 0 0 0 0 0 0 0 0 0 0 0 0 0 0 0 0 0 0 0 0 0 0 0 0 0 
0 0 0 0 0 0 0 0 0 0 0 0 0 0 0 0 0 0 0 0 0 0 0 0 0 7 18 12 17 74 132 144 155 163 168 172 164 148 138 131 128 124 120 115 112 112 111 112 107 102 94 93 91 92 95 105 115 117 118 118 118 119 126 134 140 146 154 166 176 179 175 168 161 155 150 132 69 18 9 0 0 0 0 0 0 0 0 0 0 0 0 0 1 2 2 3 0 0 0 0 0 0 0 0 0 0 0 0 0 0 0 0 0 0 0 0 0 0 0 0 0 0 0 0 0 0 0 0 
0 0 0 0 0 0 0 0 0 0 0 0 0 0 0 0 0 0 0 0 0 0 0 0 9 16 11 23 88 134 145 157 166 173 168 154 141 134 132 128 125 122 120 116 114 113 105 98 97 92 88 88 87 88 89 89 98 109 112 110 112 115 119 124 127 132 137 143 150 163 174 176 171 162 154 152 135 77 20 8 0 0 0 0 0 0 0 0 0 0 0 0 1 2 2 2 0 0 0 0 0 0 0 0 0 0 0 0 0 0 0 0 0 0 0 0 0 0 0 0 0 0 0 0 0 0 0 0 
0 0 0 0 0 0 0 0 0 0 0 0 0 0 0 0 0 0 0 0 0 0 2 13 14 10 31 97 132 146 159 168 173 159 143 135 133 132 129 125 121 116 110 104 101 95 91 90 89 89 90 88 85 90 91 92 93 97 104 112 113 111 110 116 121 124 128 129 133 138 150 166 174 170 163 154 151 138 87 24 8 0 0 0 0 0 0 0 0 0 0 0 1 2 2 2 0 0 0 0 0 0 0 0 0 0 0 0 0 0 0 0 0 0 0 0 0 0 0 0 0 0 0 0 0 0 0 0 
0 0 0 0 0 0 0 0 0 0 0 0 0 0 0 0 0 0 0 0 0 4 12 11 12 40 106 131 148 161 169 168 149 137 131 129 127 126 123 119 114 109 106 103 95 90 88 86 86 86 88 84 84 89 88 89 92 91 90 92 95 99 105 110 112 115 118 123 127 130 131 138 156 168 171 163 157 151 137 94 26 6 0 0 0 0 0 0 0 0 0 0 1 2 2 2 0 0 0 0 0 0 0 0 0 0 0 0 0 0 0 0 0 0 0 0 0 0 0 0 0 0 0 0 0 0 0 0 
0 0 0 0 0 0 0 0 0 0 0 0 0 0 0 0 0 0 0 0 5 11 10 13 50 113 131 148 163 170 162 137 128 129 127 124 118 114 114 110 109 105 96 88 86 86 86 88 90 90 87 80 79 87 90 92 95 95 95 97 97 95 95 98 104 108 109 110 115 119 122 124 131 146 161 167 163 157 150 137 98 25 4 0 0 0 0 0 0 0 0 0 1 2 2 2 0 0 0 0 0 0 0 0 0 0 0 0 0 0 0 0 0 0 0 0 0 0 0 0 0 0 0 0 0 0 0 0 
0 0 0 0 0 0 0 0 0 0 0 0 0 0 0 0 0 0 0 4 11 9 13 56 115 131 146 161 170 158 132 123 125 124 119 112 111 108 104 97 94 91 90 91 92 90 86 88 86 81 83 76 78 86 87 89 90 89 87 88 92 95 96 97 93 94 100 108 109 112 110 114 120 126 139 156 167 164 158 148 136 91 20 2 0 0 0 0 0 0 0 0 1 2 2 3 0 0 0 0 0 0 0 0 0 0 0 0 0 0 0 0 0 0 0 0 0 0 0 0 0 0 0 0 0 0 0 0 
0 0 0 0 0 0 0 0 0 0 0 0 0 0 0 0 0 0 3 10 9 14 60 117 129 142 157 167 152 129 123 119 120 119 111 104 99 99 96 93 93 93 92 90 85 81 81 83 81 83 80 75 77 86 86 85 85 87 90 90 87 87 87 90 94 91 92 98 108 108 109 106 111 114 123 134 151 167 165 156 144 131 79 13 1 0 0 0 0 0 0 0 1 2 2 3 0 0 0 0 0 0 0 0 0 0 0 0 0 0 0 0 0 0 0 0 0 0 0 0 0 0 0 0 0 0 0 0 
0 0 0 0 0 0 0 0 0 0 0 0 0 0 0 0 0 1 10 9 13 58 113 126 139 155 166 149 128 122 118 114 113 110 103 95 97 95 92 93 89 85 81 79 80 82 83 83 85 82 76 75 77 85 89 90 91 90 90 91 92 90 84 79 83 91 93 94 99 104 103 107 106 110 114 120 129 148 167 161 152 139 123 60 7 0 0 0 0 0 0 0 1 2 2 3 0 0 0 0 0 0 0 0 0 0 0 0 0 0 0 0 0 0 0 0 0 0 0 0 0 0 0 0 0 0 0 0 
0 0 0 0 0 0 0 0 0 0 0 0 0 0 0 0 0 8 9 11 52 107 122 134 150 163 147 126 120 116 112 109 109 104 93 95 91 88 90 87 80 76 78 84 85 83 80 79 79 70 72 76 77 77 80 83 86 86 87 89 90 90 90 85 78 80 92 95 94 97 99 97 100 102 108 114 120 125 149 166 161 149 134 108 38 3 0 0 0 0 0 0 1 2 2 3 0 0 0 0 0 0 0 0 0 0 0 0 0 0 0 0 0 0 0 0 0 0 0 0 0 0 0 0 0 0 0 0 
0 0 0 0 0 0 0 0 0 0 0 0 0 0 0 0 4 8 10 42 100 115 129 144 159 148 123 117 113 109 107 104 100 95 94 89 87 92 88 81 79 82 85 84 82 77 76 75 70 68 71 74 74 75 74 74 74 74 74 77 81 84 87 87 83 79 80 93 93 91 95 95 95 98 101 108 112 116 122 153 166 159 144 125 86 17 1 0 0 0 0 0 1 2 2 3 0 0 0 0 0 0 0 0 0 0 0 0 0 0 0 0 0 0 0 0 0 0 0 0 0 0 0 0 0 0 0 0 
0 0 0 0 0 0 0 0 0 0 0 0 0 0 0 1 8 9 32 91 111 124 139 154 150 123 113 111 108 107 101 96 96 94 92 88 91 88 81 81 81 78 73 70 70 69 70 71 73 75 77 73 73 78 77 75 75 74 73 72 72 76 79 81 81 81 77 78 91 91 89 92 90 96 98 102 111 110 111 125 158 163 151 136 113 57 5 0 0 0 0 0 1 2 2 3 0 0 0 0 0 0 0 0 0 0 0 0 0 0 0 0 0 0 0 0 0 0 0 0 0 0 0 0 0 0 0 0 
0 0 0 0 0 0 0 0 0 0 0 0 0 0 0 5 7 18 74 104 117 133 149 150 127 113 110 106 106 104 97 95 93 93 87 87 86 80 80 77 71 68 67 66 65 67 70 72 77 79 82 80 77 79 77 76 76 76 76 76 72 68 73 78 82 82 79 76 82 90 86 90 89 90 97 100 108 108 108 110 134 159 155 142 125 91 20 1 0 0 0 0 1 2 2 3 0 0 0 0 0 0 0 0 0 0 0 0 0 0 0 0 0 0 0 0 0 0 0 0 0 0 0 0 0 0 0 0 
0 0 0 0 0 0 0 0 0 0 0 0 0 0 2 6 9 53 96 110 124 142 145 134 115 105 104 104 105 100 98 89 92 90 88 85 78 77 75 71 66 66 67 69 70 72 76 77 77 76 82 82 77 78 77 77 77 78 80 80 77 75 71 71 74 81 81 78 77 82 86 88 89 88 93 98 104 105 104 103 112 142 154 145 130 109 49 2 0 0 0 0 1 2 2 3 0 0 0 0 0 0 0 0 0 0 0 0 0 0 0 0 0 0 0 0 0 0 0 0 0 0 0 0 0 0 0 0 
0 0 0 0 0 0 0 0 0 0 0 0 0 0 4 6 27 84 102 116 134 141 131 123 105 100 101 104 102 100 93 89 91 86 85 77 73 73 74 69 68 70 73 76 79 78 79 78 75 74 78 81 78 76 69 70 73 76 76 77 77 80 79 73 69 71 78 81 79 78 80 86 88 87 89 99 105 103 103 97 102 126 144 147 136 118 78 11 0 0 0 0 1 2 2 3 0 0 0 0 0 0 0 0 0 0 0 0 0 0 0 0 0 0 0 0 0 0 0 0 0 0 0 0 0 0 0 0 
0 0 0 0 0 0 0 0 0 0 0 0 0 0 5 10 60 94 109 124 139 128 124 110 99 99 101 103 99 97 88 87 86 85 81 73 73 77 74 70 72 75 78 77 74 74 74 73 74 72 75 80 81 76 70 70 72 76 73 71 71 75 78 80 77 72 75 80 81 80 80 84 88 88 91 95 103 103 99 96 97 118 135 144 139 123 96 27 1 0 0 0 1 2 2 3 0 0 0 0 0 0 0 0 0 0 0 0 0 0 0 0 0 0 0 0 0 0 0 0 0 0 0 0 0 0 0 0 
0 0 0 0 0 0 0 0 0 0 0 0 0 2 4 26 81 101 112 131 134 123 118 101 97 96 100 100 99 89 90 87 85 83 75 73 79 79 73 72 76 75 71 68 67 69 72 76 75 70 71 75 80 71 63 65 72 76 72 73 72 71 72 75 83 79 74 79 83 82 79 81 87 87 88 97 101 102 96 93 92 113 127 144 141 128 105 43 2 0 0 0 1 2 2 3 0 0 0 0 0 0 0 0 0 0 0 0 0 0 0 0 0 0 0 0 0 0 0 0 0 0 0 0 0 0 0 0 
0 0 0 0 0 0 0 0 0 0 0 0 0 3 6 48 91 105 119 135 120 115 109 97 96 94 96 97 92 89 89 88 86 80 73 79 82 74 71 74 76 71 65 67 71 74 73 71 67 64 61 62 75 62 57 63 63 67 67 70 72 74 71 70 77 82 79 78 83 85 81 81 86 86 87 97 101 96 94 91 88 108 121 140 142 129 111 58 4 0 0 0 1 2 2 3 0 0 0 0 0 0 0 0 0 0 0 0 0 0 0 0 0 0 0 0 0 0 0 0 0 0 0 0 0 0 0 0 
0 0 0 0 0 0 0 0 0 0 0 0 0 4 11 68 95 110 126 128 109 108 103 92 91 92 92 93 88 89 90 89 84 79 79 84 78 72 72 74 74 70 69 69 72 69 63 65 68 66 64 66 74 63 65 68 66 67 67 63 63 69 74 75 73 78 84 81 81 84 83 81 84 87 86 92 98 93 91 89 88 100 116 136 142 130 115 72 7 0 0 0 1 2 2 3 0 0 0 0 0 0 0 0 0 0 0 0 0 0 0 0 0 0 0 0 0 0 0 0 0 0 0 0 0 0 0 0 
0 0 0 0 0 0 0 0 0 0 0 0 1 4 23 82 100 116 129 114 101 104 102 91 89 87 88 91 85 88 90 84 85 84 82 80 74 74 74 73 71 73 73 71 67 63 69 77 79 74 71 72 76 71 74 72 70 70 73 73 66 65 68 72 77 77 82 85 83 80 83 85 84 86 88 89 92 91 89 85 86 100 119 133 143 133 117 84 11 0 0 0 1 2 2 3 0 0 0 0 0 0 0 0 0 0 0 0 0 0 0 0 0 0 0 0 0 0 0 0 0 0 0 0 0 0 0 0 
0 0 0 0 0 0 0 0 0 0 0 0 1 4 35 88 103 121 121 104 96 100 102 89 85 84 87 87 85 86 84 82 89 84 77 77 76 75 72 69 72 70 65 64 69 71 75 76 75 70 66 71 68 66 66 65 63 63 66 71 76 74 72 76 78 81 78 84 87 84 80 84 86 84 88 91 86 88 84 83 82 98 116 128 143 137 121 95 17 0 0 0 1 2 2 3 0 0 0 0 0 0 0 0 0 0 0 0 0 0 0 0 0 0 0 0 0 0 0 0 0 0 0 0 0 0 0 0 
0 0 0 0 0 0 0 0 0 0 0 0 2 5 44 92 109 123 115 101 95 100 101 88 81 80 86 85 84 81 82 86 88 82 80 78 76 74 71 71 70 67 60 65 75 73 70 71 69 63 66 75 69 68 68 64 61 59 58 68 73 74 71 66 73 79 84 82 87 88 85 83 87 86 85 91 82 81 83 84 83 97 117 128 143 141 126 103 26 1 0 0 1 2 2 3 0 0 0 0 0 0 0 0 0 0 0 0 0 0 0 0 0 0 0 0 0 0 0 0 0 0 0 0 0 0 0 0 
0 0 0 0 0 0 0 0 0 0 0 0 2 6 52 95 112 122 114 103 97 101 99 89 82 79 83 83 79 77 85 88 86 83 79 79 75 75 77 71 71 68 59 64 71 73 69 65 63 62 67 77 76 70 69 69 67 63 60 65 67 73 74 72 73 78 78 87 93 90 88 89 87 88 87 88 81 78 82 80 82 101 118 129 143 143 129 112 35 1 0 0 1 2 2 3 0 0 0 0 0 0 0 0 0 0 0 0 0 0 0 0 0 0 0 0 0 0 0 0 0 0 0 0 0 0 0 0 
0 0 0 0 0 0 0 0 0 0 0 0 3 7 58 100 117 125 115 106 99 100 100 91 81 80 80 81 76 77 89 86 86 84 77 78 83 81 79 78 77 76 70 72 71 70 73 68 61 65 68 71 80 74 71 73 72 67 65 67 65 76 78 73 72 78 82 91 95 94 92 91 92 88 89 94 83 79 80 79 86 104 116 127 144 144 132 119 44 2 0 0 2 2 2 3 0 0 0 0 0 0 0 0 0 0 0 0 0 0 0 0 0 0 0 0 0 0 0 0 0 0 0 0 0 0 0 0 
0 0 0 0 0 0 0 0 0 0 0 0 2 8 61 103 121 128 117 109 103 102 102 94 85 81 80 81 73 79 89 87 90 84 84 87 81 70 66 66 67 71 76 80 79 72 68 69 65 68 71 71 79 74 70 75 75 70 68 64 67 77 79 80 75 72 68 68 76 80 84 85 94 101 94 97 94 82 79 82 91 104 114 123 143 148 135 121 55 3 0 0 2 2 2 3 0 0 0 0 0 0 0 0 0 0 0 0 0 0 0 0 0 0 0 0 0 0 0 0 0 0 0 0 0 0 0 0 
0 0 0 0 0 0 0 0 0 0 0 0 3 8 64 106 124 129 114 110 107 106 104 94 88 83 80 76 72 83 92 90 94 92 84 78 70 61 58 61 62 63 64 68 74 78 72 67 63 68 74 71 78 75 70 71 70 68 64 61 73 79 76 69 68 66 66 62 64 69 70 71 80 94 104 104 105 89 82 88 95 103 110 118 137 149 138 123 66 5 0 0 1 2 2 3 0 0 0 0 0 0 0 0 0 0 0 0 0 0 0 0 0 0 0 0 0 0 0 0 0 0 0 0 0 0 0 0 
0 0 0 0 0 0 0 0 0 0 0 0 4 9 66 110 126 127 117 111 106 105 107 103 95 87 83 74 74 88 95 90 97 83 71 66 63 58 58 62 63 62 63 62 63 67 74 73 64 62 70 72 73 74 71 66 64 60 59 70 78 69 64 63 67 72 71 67 70 74 73 72 72 82 102 116 110 102 92 92 98 100 104 112 126 148 141 126 76 7 0 0 2 2 2 3 0 0 0 0 0 0 0 0 0 0 0 0 0 0 0 0 0 0 0 0 0 0 0 0 0 0 0 0 0 0 0 0 
0 0 0 0 0 0 0 0 0 0 0 0 4 10 69 112 125 127 114 109 105 103 103 102 100 91 90 81 78 93 99 97 82 65 65 68 65 64 67 69 68 66 61 60 62 66 69 75 71 70 73 74 75 79 76 72 66 61 62 73 70 62 60 63 69 72 72 70 70 75 77 77 77 84 98 116 114 106 101 97 95 95 99 105 116 140 142 127 87 10 0 0 1 2 2 3 0 0 0 0 0 0 0 0 0 0 0 0 0 0 0 0 0 0 0 0 0 0 0 0 0 0 0 0 0 0 0 0 
0 0 0 0 0 0 0 0 0 0 0 0 5 10 70 113 129 129 110 105 102 102 99 95 98 95 91 89 94 98 103 93 74 65 65 63 61 64 66 66 66 65 62 59 62 63 71 73 75 70 77 82 86 85 87 77 70 61 64 73 62 57 59 62 67 71 73 73 73 77 79 76 81 92 98 101 108 104 108 99 93 91 94 100 109 132 142 128 95 16 0 0 1 2 2 3 0 0 0 0 0 0 0 0 0 0 0 0 0 0 0 0 0 0 0 0 0 0 0 0 0 0 0 0 0 0 0 0 
0 0 0 0 0 0 0 0 0 0 0 0 5 10 72 115 130 130 102 99 99 99 97 90 96 95 92 88 97 105 109 93 80 72 70 67 66 66 65 65 64 62 61 61 62 66 71 73 72 71 78 85 94 89 91 77 71 65 67 69 57 56 59 66 71 75 74 71 71 78 81 77 83 88 88 92 97 102 109 98 91 88 91 90 99 124 140 128 100 23 0 1 1 2 2 3 0 0 0 0 0 0 0 0 0 0 0 0 0 0 0 0 0 0 0 0 0 0 0 0 0 0 0 0 0 0 0 0 
0 0 0 0 0 0 0 0 0 0 0 0 5 11 74 116 132 131 100 98 99 96 93 86 90 88 90 88 94 99 101 93 86 79 75 72 73 70 67 64 64 64 62 63 66 66 67 69 64 67 76 81 85 80 87 86 77 67 68 63 55 57 65 68 70 71 72 70 69 76 80 79 81 85 86 86 91 100 106 97 88 83 84 85 89 113 136 128 103 30 1 0 2 3 3 3 0 0 0 0 0 0 0 0 0 0 0 0 0 0 0 0 0 0 0 0 0 0 0 0 0 0 0 0 0 0 0 0 
0 0 0 0 0 0 0 0 0 0 0 0 5 12 76 119 134 129 97 98 96 92 87 80 84 86 89 88 88 87 91 88 80 76 71 70 70 69 68 63 61 60 63 68 67 65 63 65 68 67 72 73 74 79 79 81 79 73 68 58 55 61 65 67 69 70 68 68 69 75 76 76 79 83 84 81 92 98 104 98 83 81 80 82 84 103 132 128 107 36 1 0 2 2 3 3 0 0 0 0 0 0 0 0 0 0 0 0 0 0 0 0 0 0 0 0 0 0 0 0 0 0 0 0 0 0 0 0 
0 0 0 0 0 0 0 0 0 0 0 0 5 11 75 119 134 125 92 93 88 86 80 74 78 80 85 94 90 84 87 85 73 71 66 66 64 65 67 62 60 62 63 65 63 61 62 63 64 65 76 75 72 73 73 81 79 77 72 59 60 62 65 65 62 65 66 64 68 74 76 74 77 81 79 80 94 100 99 100 85 80 76 78 77 93 118 127 109 41 2 0 2 2 3 3 0 0 0 0 0 0 0 0 0 0 0 0 0 0 0 0 0 0 0 0 0 0 0 0 0 0 0 0 0 0 0 0 
0 0 0 0 0 0 0 0 0 0 0 0 6 12 74 120 134 119 87 85 83 80 74 70 73 75 80 93 94 86 85 83 71 69 64 63 62 62 65 59 56 59 61 62 60 60 61 60 59 72 85 89 80 70 72 68 84 75 68 62 64 66 66 59 58 63 64 64 69 73 74 73 75 81 77 80 91 95 95 103 93 79 76 79 78 90 102 117 110 45 2 0 2 2 2 3 0 0 0 0 0 0 0 0 0 0 0 0 0 0 0 0 0 0 0 0 0 0 0 0 0 0 0 0 0 0 0 0 
0 0 0 0 0 0 0 0 0 0 0 0 5 11 72 119 133 111 85 81 77 76 73 71 71 74 82 88 93 86 86 83 74 67 65 64 62 63 66 61 58 59 63 64 62 63 65 61 55 68 83 86 69 64 64 59 75 84 63 65 65 64 62 60 62 63 63 63 68 73 72 70 74 78 75 80 88 95 100 102 95 80 76 77 79 88 99 116 109 45 2 0 2 2 2 3 0 0 0 0 0 0 0 0 0 0 0 0 0 0 0 0 0 0 0 0 0 0 0 0 0 0 0 0 0 0 0 0 
0 0 0 0 0 0 0 0 0 0 0 0 5 11 68 117 131 103 85 79 77 77 74 72 71 75 83 82 91 85 86 83 74 68 66 66 64 62 64 62 59 56 58 64 63 63 65 59 58 72 85 75 57 54 60 56 63 92 61 64 63 62 60 63 65 67 66 65 69 73 71 70 76 75 75 84 96 104 99 99 96 79 75 74 78 86 99 119 105 43 2 0 1 2 2 3 0 0 0 0 0 0 0 0 0 0 0 0 0 0 0 0 0 0 0 0 0 0 0 0 0 0 0 0 0 0 0 0 
0 0 0 0 0 0 0 0 0 0 0 0 4 10 61 115 129 100 83 78 76 75 73 72 69 74 85 80 87 84 86 85 74 69 68 66 66 65 63 62 58 58 57 58 58 60 64 57 59 71 78 61 57 54 62 56 57 84 76 63 61 58 57 64 64 65 66 66 70 72 69 71 77 72 72 84 103 103 95 98 94 78 75 74 77 84 99 118 101 40 1 0 1 2 2 3 0 0 0 0 0 0 0 0 0 0 0 0 0 0 0 0 0 0 0 0 0 0 0 0 0 0 0 0 0 0 0 0 
0 0 0 0 0 0 0 0 0 0 0 0 3 10 56 112 128 102 84 78 74 75 75 71 68 70 81 80 85 83 84 86 76 70 68 68 67 68 66 64 59 61 58 56 57 57 59 51 56 73 73 60 61 62 65 57 56 65 84 64 59 56 57 63 64 67 65 67 68 69 67 69 73 67 73 84 98 98 95 97 93 77 75 74 75 82 100 114 95 35 1 0 1 2 2 3 0 0 0 0 0 0 0 0 0 0 0 0 0 0 0 0 0 0 0 0 0 0 0 0 0 0 0 0 0 0 0 0 
0 0 0 0 0 0 0 0 0 0 0 0 1 9 51 107 124 106 85 77 74 74 74 73 70 66 79 82 85 83 85 84 77 70 68 69 68 70 67 65 63 63 59 58 55 56 57 51 62 73 65 60 59 66 70 58 57 57 80 74 66 61 58 64 66 67 65 66 66 67 65 69 71 65 72 85 94 95 94 93 91 77 75 73 73 81 103 110 88 31 1 0 1 2 2 3 0 0 0 0 0 0 0 0 0 0 0 0 0 0 0 0 0 0 0 0 0 0 0 0 0 0 0 0 0 0 0 0 
0 0 0 0 0 0 0 0 0 4 3 0 0 8 44 100 120 106 85 76 72 73 74 73 70 65 74 83 85 85 85 82 76 72 69 70 68 65 66 65 64 66 62 57 61 68 63 60 68 66 61 59 60 70 71 62 58 59 67 82 81 80 73 68 69 70 71 67 65 67 65 70 68 65 76 84 90 93 96 95 89 75 72 71 71 81 104 104 79 25 1 0 1 2 2 3 0 0 0 0 0 0 0 0 0 0 0 0 0 0 0 0 0 0 0 0 0 0 0 0 0 0 0 0 0 0 0 0 
0 0 0 0 0 0 0 0 0 2 6 2 1 6 36 94 117 105 85 76 71 72 73 74 70 66 73 86 84 84 83 83 74 68 70 70 68 64 65 65 72 71 68 63 67 69 67 64 71 65 62 59 63 70 69 66 65 63 64 86 88 85 80 74 69 69 66 70 67 64 64 69 67 66 75 87 90 88 90 97 94 76 69 69 71 82 106 100 72 22 1 0 1 2 2 3 0 0 0 0 0 0 0 0 0 0 0 0 0 0 0 0 0 0 0 0 0 0 0 0 0 0 0 0 0 0 0 0 
0 0 0 0 0 0 0 0 0 1 3 6 2 5 29 85 112 104 82 74 69 68 74 73 70 66 73 87 84 87 86 84 77 66 71 70 66 64 65 68 70 68 67 69 74 80 77 68 76 62 60 60 61 72 70 65 64 67 68 86 92 82 76 82 82 81 74 72 70 65 64 68 71 75 77 91 91 89 92 100 101 85 69 69 72 88 106 95 65 18 0 0 1 2 2 3 0 0 0 0 0 0 0 0 0 0 0 0 0 0 0 0 0 0 0 0 0 0 0 0 0 0 0 0 0 0 0 0 
0 0 0 0 0 0 0 0 0 0 2 7 2 5 22 73 106 106 82 75 72 72 73 72 72 66 75 87 85 90 94 91 87 71 68 71 66 67 70 75 74 75 79 76 69 71 72 76 81 64 60 61 60 77 70 66 65 64 67 89 101 86 69 77 87 96 101 96 92 86 91 89 94 94 97 100 91 87 93 102 103 93 75 71 78 95 106 88 60 12 0 0 1 7 5 3 0 0 0 0 0 0 0 0 0 0 0 0 0 0 0 0 0 0 0 0 0 0 0 0 0 0 0 0 0 0 0 0 
0 0 0 0 0 0 0 0 0 0 2 7 4 5 18 65 103 110 86 79 76 70 70 73 72 72 79 83 85 87 88 88 95 92 83 82 84 82 82 84 82 79 66 59 67 72 71 75 80 60 59 63 62 74 68 60 59 58 64 91 100 80 69 71 78 91 108 114 107 107 115 114 109 99 100 99 101 97 92 103 101 95 87 80 78 102 99 83 54 7 2 1 4 5 2 3 0 0 0 0 0 0 0 0 0 0 0 0 0 0 0 0 0 0 0 0 0 0 0 0 0 0 0 0 0 0 0 0 
0 0 0 0 0 0 0 0 0 0 1 6 4 5 13 57 97 115 98 81 76 68 67 73 75 81 83 84 89 90 85 87 90 89 91 97 99 89 84 81 79 74 69 68 67 66 64 73 78 63 59 65 61 75 65 57 60 62 69 93 96 82 74 77 83 90 107 115 109 113 115 107 106 96 98 92 108 111 101 104 103 98 93 94 108 106 88 82 47 6 1 1 4 2 2 3 0 0 0 0 0 0 0 0 0 0 0 0 0 0 0 0 0 0 0 0 0 0 0 0 0 0 0 0 0 0 0 0 
0 0 0 0 0 0 0 0 0 0 0 5 4 6 9 48 90 113 111 85 77 69 71 78 85 81 87 90 89 89 91 96 98 94 87 92 95 94 92 91 81 78 71 61 60 60 65 68 81 69 62 61 64 76 68 57 61 72 79 89 91 87 80 81 87 95 109 108 106 105 104 104 111 112 103 110 113 115 121 118 113 111 109 115 123 106 80 78 36 4 2 1 3 3 2 3 0 0 0 0 0 0 0 0 0 0 0 0 0 0 0 0 0 0 0 0 0 0 0 0 0 0 0 0 0 0 0 0 
0 0 0 0 0 0 0 0 0 0 0 4 5 6 9 38 82 109 115 98 82 81 85 87 92 90 93 100 95 89 96 108 113 117 116 107 104 105 96 87 76 69 74 68 61 60 68 79 80 62 66 70 65 80 69 61 65 76 83 82 89 77 79 85 87 99 114 115 119 120 112 119 116 109 95 109 109 109 120 124 132 136 131 138 139 94 88 74 22 4 2 2 2 3 2 3 0 0 0 0 0 0 0 0 0 0 0 0 0 0 0 0 0 0 0 0 0 0 0 0 0 0 0 0 0 0 0 0 
0 0 0 0 0 0 0 0 0 0 0 5 6 5 6 25 78 107 113 111 100 109 101 101 103 104 104 102 97 95 98 114 123 124 122 114 109 106 97 81 75 74 74 70 68 67 78 83 71 64 67 73 74 90 74 63 62 72 76 77 83 80 77 87 85 91 101 107 118 118 107 113 105 95 102 99 101 108 119 127 136 141 148 143 125 91 86 60 11 4 3 2 2 3 2 3 0 0 0 0 0 0 0 0 0 0 0 0 0 0 0 0 0 0 0 0 0 0 0 0 0 0 0 0 0 0 0 0 
0 0 0 0 0 0 0 0 0 0 0 3 7 5 5 8 43 95 112 113 114 131 139 124 121 119 108 102 103 108 114 120 124 123 126 116 112 107 103 84 73 70 74 75 72 69 76 80 72 67 68 73 71 84 89 68 58 64 66 73 75 73 82 90 86 86 93 100 102 100 96 101 100 92 95 104 104 109 115 123 131 132 134 131 111 89 88 67 12 4 4 3 2 3 3 4 0 0 0 0 0 0 0 0 0 0 0 0 0 0 0 0 0 0 0 0 0 0 0 0 0 0 0 0 0 0 0 0 
0 0 0 0 0 0 0 0 0 0 0 4 5 3 5 6 25 83 112 115 121 132 133 131 127 125 122 113 104 98 106 115 127 126 124 123 117 113 101 80 75 76 76 75 73 70 76 75 73 66 65 72 74 86 84 70 56 56 59 67 73 73 75 81 84 84 89 95 98 93 90 89 85 87 96 100 100 104 103 107 113 129 121 107 85 91 87 44 6 3 3 4 2 3 3 4 0 0 0 0 0 0 0 0 0 0 0 0 0 0 0 0 0 0 0 0 0 0 0 0 0 0 0 0 0 0 0 0 
0 0 0 0 0 0 0 0 0 0 0 4 3 3 3 6 15 66 110 113 112 117 122 117 127 129 128 115 101 96 99 102 109 125 123 119 113 106 97 86 80 79 79 79 70 68 81 73 68 70 70 69 67 84 90 77 57 59 65 71 76 83 82 80 73 73 86 91 91 95 98 91 90 103 110 110 101 103 105 102 109 121 104 92 87 93 78 21 4 2 3 3 2 2 3 4 0 0 0 0 0 0 0 0 0 0 0 0 0 0 0 0 0 0 0 0 0 0 0 0 0 0 0 0 0 0 0 0 
0 0 0 0 0 0 0 0 0 0 0 3 2 2 1 5 12 44 100 112 109 106 114 110 108 115 116 108 105 108 99 95 98 106 113 109 104 97 95 87 73 73 76 74 74 77 86 72 76 83 78 75 71 76 88 87 70 70 73 71 73 83 85 90 78 66 66 73 79 84 93 92 92 105 113 117 113 108 107 105 100 102 100 88 88 88 54 10 5 4 3 2 2 3 3 4 0 0 0 0 0 0 0 0 0 0 0 0 0 0 0 0 0 0 0 0 0 0 0 0 0 0 0 0 0 0 0 0 
0 0 0 0 0 0 0 0 0 0 0 3 3 2 1 5 10 24 82 101 99 100 107 111 105 98 101 100 107 115 111 98 87 86 97 107 101 95 92 76 67 65 71 77 75 81 92 80 86 89 86 78 69 72 91 88 76 72 75 75 73 85 92 96 86 67 61 62 72 79 85 96 104 103 112 119 121 115 110 110 108 103 88 73 73 81 30 7 5 5 4 1 1 4 3 4 0 0 0 0 0 0 0 0 0 0 0 0 0 0 0 0 0 0 0 0 0 0 0 0 0 0 0 0 0 0 0 0 
0 0 0 0 0 0 0 0 0 0 1 2 4 3 2 6 10 12 58 91 89 95 103 111 103 98 101 98 102 114 113 107 91 82 96 104 105 100 84 67 59 70 74 77 74 75 88 90 85 87 93 91 81 81 100 92 83 77 81 85 82 95 98 96 86 75 60 61 71 82 84 99 101 97 107 116 119 123 133 126 114 94 77 60 65 61 14 8 4 6 4 0 1 4 3 4 0 0 0 0 0 0 0 0 0 0 0 0 0 0 0 0 0 0 0 0 0 0 0 0 0 0 0 0 0 0 0 0 
0 0 0 0 0 0 0 0 0 0 1 1 2 3 3 5 8 8 34 85 94 94 103 110 113 107 105 101 109 110 108 101 89 88 90 90 85 87 80 68 63 74 76 78 84 89 92 95 99 106 109 106 111 116 114 106 106 104 97 99 94 105 106 100 93 76 64 67 76 88 84 81 94 90 101 114 122 131 140 127 99 84 68 60 71 40 8 8 6 5 5 0 1 4 3 4 0 0 0 0 0 0 0 0 0 0 0 0 0 0 0 0 0 0 0 0 0 0 0 0 0 0 0 0 0 0 0 0 
0 0 0 0 0 0 0 0 0 0 1 2 2 2 1 4 7 9 18 73 92 87 91 99 121 120 117 107 109 112 113 105 99 95 87 83 74 69 64 76 77 79 78 79 92 101 103 104 109 114 115 117 126 132 135 126 118 112 106 108 111 123 128 115 100 90 87 88 90 90 80 82 91 88 90 113 121 137 132 121 92 76 59 62 69 22 7 6 5 4 4 1 2 3 3 4 0 0 0 0 0 0 0 0 0 0 0 0 0 0 0 0 0 0 0 0 0 0 0 0 0 0 0 0 0 0 0 0 
0 0 0 0 0 0 0 0 0 0 0 2 3 1 1 4 7 9 10 48 85 87 79 86 112 124 124 120 111 106 113 111 99 97 89 88 80 75 73 77 99 99 98 99 102 112 116 115 112 105 106 111 110 109 114 119 114 104 102 105 107 120 129 130 117 110 109 101 107 86 76 80 84 88 82 101 119 138 121 109 91 84 68 68 56 12 6 5 4 4 2 1 1 3 3 4 0 0 0 0 0 0 0 0 0 0 0 0 0 0 0 0 0 0 0 0 0 0 0 0 0 0 0 0 0 0 0 0 
0 0 0 0 0 0 0 0 0 0 1 2 4 2 2 3 7 6 9 27 66 79 80 83 101 116 123 125 111 107 109 111 103 97 87 87 88 86 90 95 99 115 116 114 117 117 117 122 112 106 103 108 105 111 109 111 111 109 104 107 108 117 131 129 130 128 119 120 110 83 72 70 72 86 93 104 119 134 113 95 80 73 80 67 44 11 6 5 3 3 2 0 1 3 3 4 0 0 0 0 0 0 0 0 0 0 0 0 0 0 0 0 0 0 0 0 0 0 0 0 0 0 0 0 0 0 0 0 
0 0 0 0 0 0 0 0 0 0 0 3 8 6 2 3 5 5 8 19 56 82 87 77 91 103 117 121 115 105 105 105 98 92 81 81 85 85 89 94 102 119 128 128 124 120 122 122 112 110 112 120 120 119 115 112 109 109 102 102 105 114 119 126 133 128 117 119 111 80 62 66 80 90 108 119 122 126 114 95 75 64 73 72 41 10 5 3 4 3 2 1 1 3 3 4 0 0 0 0 0 0 0 0 0 0 0 0 0 0 0 0 0 0 0 0 0 0 0 0 0 0 0 0 0 0 0 0 
0 0 0 0 0 0 0 0 0 0 0 2 8 9 6 5 5 7 9 14 45 73 83 84 80 83 114 113 123 103 94 96 99 78 73 75 75 80 86 86 94 113 124 127 128 124 127 124 121 117 121 127 127 124 120 102 103 106 94 89 97 110 112 131 136 130 126 123 111 79 66 70 78 88 122 134 136 135 116 77 69 59 71 66 27 10 3 3 4 3 3 1 2 4 3 4 0 0 0 0 0 0 0 0 0 0 0 0 0 0 0 0 0 0 0 0 0 0 0 0 0 0 0 0 0 0 0 0 
0 0 0 0 0 0 0 0 0 0 0 2 7 7 6 6 5 8 10 11 23 59 83 88 73 78 106 123 129 114 104 99 100 81 67 73 77 83 82 78 82 106 120 122 121 123 119 116 121 117 121 133 128 128 109 87 87 97 97 92 98 110 119 125 148 136 132 130 116 89 69 71 81 99 125 126 136 120 106 71 56 59 59 47 13 9 5 3 3 4 3 5 5 4 4 4 0 0 0 0 0 0 0 0 0 0 0 0 0 0 0 0 0 0 0 0 0 0 0 0 0 0 0 0 0 0 0 0 
0 0 0 0 0 0 0 0 0 0 0 1 7 7 6 6 6 6 9 10 12 34 77 81 77 74 90 118 128 127 118 106 97 90 72 65 67 68 70 76 89 108 117 118 116 115 113 108 113 109 117 119 108 123 117 98 93 94 92 88 103 120 113 129 138 136 135 129 124 99 86 88 100 112 114 109 93 74 75 54 43 59 65 25 8 6 6 4 4 4 3 4 7 5 3 4 0 0 0 0 0 0 0 0 0 0 0 0 0 0 0 0 0 0 0 0 0 0 0 0 0 0 0 0 0 0 0 0 
0 0 0 0 0 0 0 0 0 0 0 0 6 7 5 4 4 3 7 11 13 19 50 70 65 61 81 109 114 126 128 111 99 99 88 77 76 80 84 99 104 134 134 133 133 129 127 129 132 133 131 122 124 139 143 128 115 120 121 114 121 124 139 157 134 131 135 136 124 125 102 107 108 104 86 71 63 61 65 53 67 68 36 12 6 1 1 3 3 4 3 4 5 4 2 4 0 0 0 0 0 0 0 0 0 0 0 0 0 0 0 0 0 0 0 0 0 0 0 0 0 0 0 0 0 0 0 0 
0 0 0 0 0 0 0 0 0 0 0 0 2 5 3 2 2 2 3 8 12 13 27 56 63 53 62 75 71 104 109 110 106 106 100 88 90 96 107 115 129 141 142 157 150 160 156 163 155 144 142 144 144 140 142 136 132 142 149 147 148 157 171 173 158 165 149 144 106 99 111 112 80 64 54 54 55 55 64 53 51 34 18 15 9 1 0 1 1 2 2 5 4 1 2 4 0 0 0 0 0 0 0 0 0 0 0 0 0 0 0 0 0 0 0 0 0 0 0 0 0 0 0 0 0 0 0 0 
0 0 0 0 0 0 0 0 0 0 0 0 0 2 2 1 1 0 1 5 9 13 17 31 56 60 49 41 44 53 68 77 100 102 98 94 89 97 110 126 126 126 144 157 145 157 149 140 150 140 133 132 131 133 127 118 122 127 127 133 134 153 165 151 117 142 110 101 112 105 87 75 68 58 52 61 64 65 49 31 29 26 25 18 11 0 0 0 1 1 1 5 4 1 2 4 0 0 0 0 0 0 0 0 0 0 0 0 0 0 0 0 0 0 0 0 0 0 0 0 0 0 0 0 0 0 0 0 
0 0 0 0 0 0 0 0 0 0 0 0 0 2 3 3 2 2 1 2 7 9 13 15 24 34 24 30 46 44 46 43 58 61 55 70 58 53 53 53 65 87 101 108 103 105 102 94 97 74 61 75 87 93 91 86 73 71 83 78 76 84 72 102 104 116 89 53 43 46 44 47 46 34 41 55 59 59 34 20 19 18 12 5 2 0 2 2 2 1 1 5 3 1 2 4 0 0 0 0 0 0 0 0 0 0 0 0 0 0 0 0 0 0 0 0 0 0 0 0 0 0 0 0 0 0 0 0 
0 0 0 0 0 0 0 0 0 0 0 0 0 0 1 2 2 2 2 1 4 6 9 11 15 15 15 24 47 46 42 42 44 48 40 47 48 42 49 51 61 64 59 57 64 70 59 51 55 55 42 55 69 68 65 65 53 44 56 55 59 74 64 54 53 67 66 59 70 70 49 39 41 39 44 55 61 60 33 20 19 17 11 4 2 0 1 0 1 1 2 3 1 0 2 4 0 0 0 0 0 0 0 0 0 0 0 0 0 0 0 0 0 0 0 0 0 0 0 0 0 0 0 0 0 0 0 0 
0 0 0 0 0 0 0 0 0 0 0 0 0 0 0 0 0 0 0 0 2 6 6 10 14 17 18 25 49 54 47 46 49 53 48 50 54 67 80 101 108 106 76 71 75 78 72 70 78 68 54 64 71 67 65 68 64 57 69 78 81 86 75 66 88 101 79 61 55 67 65 54 53 53 54 62 67 62 34 24 21 17 10 6 1 0 0 0 0 1 1 0 0 0 1 3 0 0 0 0 0 0 0 0 0 0 0 0 0 0 0 0 0 0 0 0 0 0 0 0 0 0 0 0 0 0 0 0 
0 0 0 0 0 0 0 0 0 0 0 0 0 0 0 0 0 0 0 0 0 3 3 5 9 17 22 30 57 64 56 53 54 61 59 71 78 76 85 107 119 133 116 101 114 130 123 128 116 94 84 96 103 99 93 96 83 85 89 106 111 118 110 115 114 122 82 92 93 96 94 81 67 59 57 63 63 56 32 23 16 10 6 5 1 0 0 0 0 0 0 0 0 0 0 2 0 0 0 0 0 0 0 0 0 0 0 0 0 0 0 0 0 0 0 0 0 0 0 0 0 0 0 0 0 0 0 0 
0 0 0 0 0 0 0 0 0 0 0 0 0 0 0 0 0 0 0 0 0 1 2 3 6 15 19 28 46 58 49 46 52 56 60 61 62 75 98 93 126 134 133 129 143 142 125 144 141 130 131 122 129 129 122 118 123 123 123 121 115 129 132 124 113 131 119 91 116 106 101 103 67 46 37 47 55 39 24 18 12 8 7 2 0 0 0 0 0 0 0 0 0 0 0 1 0 0 0 0 0 0 0 0 0 0 0 0 0 0 0 0 0 0 0 0 0 0 0 0 0 0 0 0 0 0 0 0 
0 0 0 0 0 0 0 0 0 0 0 0 0 0 0 0 0 0 0 0 0 0 1 2 5 10 18 23 38 54 52 48 50 54 56 58 55 70 72 64 90 91 87 78 97 103 122 138 128 114 102 101 108 98 103 99 101 99 99 96 94 103 92 98 104 82 80 98 127 120 87 59 37 37 41 58 57 34 19 16 10 4 4 1 0 0 0 0 0 0 0 1 1 3 4 6 0 0 0 0 0 0 0 0 0 0 0 0 0 0 0 0 0 0 0 0 0 0 0 0 0 0 0 0 0 0 0 0 
0 0 0 0 0 0 0 0 0 0 0 0 0 0 0 0 0 0 0 0 0 0 3 4 6 10 14 15 24 40 47 46 45 44 39 39 37 46 87 85 78 82 80 74 72 77 94 94 90 78 81 72 74 70 78 71 73 78 77 77 80 97 100 83 84 96 104 106 99 80 70 48 36 40 54 75 63 32 16 14 11 7 5 1 0 0 0 0 0 0 0 0 0 0 2 5 0 0 0 0 0 0 0 0 0 0 0 0 0 0 0 0 0 0 0 0 0 0 0 0 0 0 0 0 0 0 0 0 
0 0 0 0 0 0 0 0 0 0 0 0 0 0 0 0 0 0 0 0 0 0 1 5 6 9 12 14 17 33 44 51 51 49 39 34 35 49 66 71 72 72 70 73 79 91 92 91 87 81 77 59 66 68 70 68 78 85 87 80 76 88 75 64 57 74 90 92 94 80 65 45 38 40 58 78 65 35 17 13 12 8 4 0 0 0 0 0 0 0 0 0 0 0 2 5 0 0 0 0 0 0 0 0 0 0 0 0 0 0 0 0 0 0 0 0 0 0 0 0 0 0 0 0 0 0 0 0 
0 0 0 0 0 0 0 0 0 0 0 0 0 0 0 0 0 0 0 0 0 0 0 3 6 6 11 15 16 28 42 52 55 49 44 37 31 42 51 68 67 58 63 66 71 79 87 98 95 86 84 70 74 71 71 68 78 75 90 95 80 88 90 79 73 70 79 86 78 66 55 41 41 45 63 80 63 37 17 14 11 8 3 0 0 0 0 0 0 0 0 0 0 0 2 5 0 0 0 0 0 0 0 0 0 0 0 0 0 0 0 0 0 0 0 0 0 0 0 0 0 0 0 0 0 0 0 0 
0 0 0 0 0 0 0 0 0 0 0 0 0 0 0 0 0 0 0 0 0 0 0 2 4 7 9 13 15 22 34 48 55 51 48 37 35 39 39 46 48 55 60 65 71 77 83 87 100 96 85 75 75 69 61 61 66 66 82 88 89 106 97 79 72 67 72 78 78 72 57 46 38 48 69 82 56 34 18 13 10 7 2 0 0 0 0 0 0 0 0 0 0 0 2 4 0 0 0 0 0 0 0 0 0 0 0 0 0 0 0 0 0 0 0 0 0 0 0 0 0 0 0 0 0 0 0 0 
0 0 0 0 0 0 0 0 0 0 0 0 0 0 0 0 0 0 0 0 0 0 0 0 4 5 7 11 13 19 28 41 58 55 49 40 43 33 37 43 46 51 62 68 73 76 74 81 90 85 86 81 74 72 64 64 69 70 78 78 85 89 87 73 74 77 71 65 68 68 58 52 45 49 69 79 58 38 18 12 10 6 1 0 0 0 0 0 0 0 0 0 0 0 2 4 0 0 0 0 0 0 0 0 0 0 0 0 0 0 0 0 0 0 0 0 0 0 0 0 0 0 0 0 0 0 0 0 
0 0 0 0 0 0 0 0 0 0 0 0 0 0 0 0 0 0 0 0 0 0 0 0 2 3 6 8 12 17 30 39 56 54 52 48 46 36 39 40 46 49 61 70 77 74 68 66 73 76 84 81 71 72 70 65 69 73 76 74 83 81 79 72 79 82 74 62 53 53 49 46 51 55 68 76 55 30 13 11 10 6 1 0 0 0 0 0 0 0 0 0 0 0 1 4 0 0 0 0 0 0 0 0 0 0 0 0 0 0 0 0 0 0 0 0 0 0 0 0 0 0 0 0 0 0 0 0 
0 0 0 0 0 0 0 0 0 0 0 0 0 0 0 0 0 0 0 0 0 0 0 0 0 3 4 8 10 13 22 35 46 50 54 53 45 42 38 37 42 50 58 67 72 72 67 63 63 66 77 75 71 66 66 67 67 71 72 72 79 78 73 61 71 69 69 60 52 46 43 50 55 60 73 62 33 16 12 11 10 5 1 0 0 0 0 0 0 0 0 0 0 0 2 4 0 0 0 0 0 0 0 0 0 0 0 0 0 0 0 0 0 0 0 0 0 0 0 0 0 0 0 0 0 0 0 0 
0 0 0 0 0 0 0 0 0 0 0 0 0 0 0 0 0 0 0 0 0 0 0 0 0 2 2 6 10 12 14 22 28 30 49 54 49 45 38 36 40 46 58 55 64 65 66 63 65 69 76 74 74 72 69 68 66 72 73 68 72 72 66 60 68 61 58 55 51 46 42 51 57 65 72 30 13 12 12 12 11 5 0 0 0 0 0 0 0 0 0 0 0 0 1 4 0 0 0 0 0 0 0 0 0 0 0 0 0 0 0 0 0 0 0 0 0 0 0 0 0 0 0 0 0 0 0 0 
0 0 0 0 0 0 0 0 0 0 0 0 0 0 0 0 0 0 0 0 0 0 0 0 0 0 3 3 8 11 13 13 12 11 21 53 56 49 46 43 43 41 50 48 54 55 63 63 69 69 67 71 74 71 63 65 74 75 69 62 69 72 69 60 63 56 52 50 49 48 50 58 62 68 50 16 11 11 12 12 9 4 0 0 0 0 0 0 0 0 0 0 0 0 2 4 0 0 0 0 0 0 0 0 0 0 0 0 0 0 0 0 0 0 0 0 0 0 0 0 0 0 0 0 0 0 0 0 
0 0 0 0 0 0 0 0 0 0 0 0 0 0 0 0 0 0 0 0 0 0 0 0 0 0 1 3 5 9 12 12 13 11 9 25 54 56 52 47 49 44 49 49 56 54 58 61 76 74 66 64 72 70 64 64 72 77 69 59 68 75 76 67 68 58 58 53 53 54 57 63 64 54 24 13 10 11 12 11 8 4 1 0 0 0 0 0 0 0 0 0 0 0 1 4 0 0 0 0 0 0 0 0 0 0 0 0 0 0 0 0 0 0 0 0 0 0 0 0 0 0 0 0 0 0 0 0 
0 0 0 0 0 0 0 0 0 0 0 0 0 0 0 0 0 0 0 0 0 0 0 0 0 0 0 2 4 6 11 12 11 12 9 8 25 49 57 57 54 51 52 55 63 63 60 59 69 76 70 67 70 70 66 69 74 79 81 72 77 83 72 67 69 64 62 60 62 63 68 66 52 25 16 12 9 11 12 10 7 4 1 0 0 0 0 0 0 0 0 0 0 0 1 4 0 0 0 0 0 0 0 0 0 0 0 0 0 0 0 0 0 0 0 0 0 0 0 0 0 0 0 0 0 0 0 0 
0 0 0 0 0 0 0 0 0 0 0 0 0 0 0 0 0 0 0 0 0 0 0 0 0 0 0 2 3 5 8 11 11 12 9 8 11 22 44 55 58 61 60 62 71 70 64 61 64 75 73 63 68 71 68 71 72 78 83 77 75 78 74 68 71 71 75 70 69 67 64 50 24 18 15 12 10 11 11 10 7 4 1 0 0 0 0 0 0 0 0 0 0 0 1 4 0 0 0 0 0 0 0 0 0 0 0 0 0 0 0 0 0 0 0 0 0 0 0 0 0 0 0 0 0 0 0 0 
0 0 0 0 0 0 0 0 0 0 0 0 0 0 0 0 0 0 0 0 0 0 0 0 0 0 0 0 3 4 6 10 11 12 10 8 11 15 19 36 52 61 65 69 75 79 74 69 72 78 71 64 69 75 72 75 75 73 84 84 76 76 84 74 74 76 78 78 71 61 42 24 19 18 14 12 10 9 10 9 6 4 1 0 0 0 0 0 0 0 0 0 0 0 1 4 0 0 0 0 0 0 0 0 0 0 0 0 0 0 0 0 0 0 0 0 0 0 0 0 0 0 0 0 0 0 0 0 
0 0 0 0 0 0 0 0 0 0 0 0 0 0 0 0 0 0 0 0 0 0 0 0 0 0 0 0 1 5 5 9 11 11 9 8 9 15 18 19 26 42 57 64 76 80 78 74 74 77 77 74 77 73 67 71 70 73 83 85 81 75 83 83 80 77 79 72 58 34 21 20 19 16 14 11 10 10 10 9 6 3 1 0 0 0 0 0 0 0 0 0 0 0 1 4 0 0 0 0 0 0 0 0 0 0 0 0 0 0 0 0 0 0 0 0 0 0 0 0 0 0 0 0 0 0 0 0 
0 0 0 0 0 0 0 0 0 0 0 0 0 0 0 0 0 0 0 0 0 0 0 0 0 0 0 0 0 5 4 7 10 11 10 9 8 13 17 20 22 23 28 42 59 68 72 69 71 73 78 81 79 72 67 71 68 73 81 80 80 81 84 81 80 72 60 43 29 25 20 19 18 15 13 11 9 10 10 8 6 3 0 0 0 0 0 0 0 0 0 0 0 0 1 4 0 0 0 0 0 0 0 0 0 0 0 0 0 0 0 0 0 0 0 0 0 0 0 0 0 0 0 0 0 0 0 0 
0 0 0 0 0 0 0 0 0 0 0 0 0 0 0 0 0 0 0 0 0 0 0 0 0 0 0 0 0 3 4 5 9 11 11 9 7 13 17 19 20 22 23 26 35 49 58 64 64 65 74 76 72 72 74 77 77 76 83 83 85 79 74 70 64 48 36 33 28 24 19 19 18 15 11 9 10 10 10 9 6 2 0 0 0 0 0 0 0 0 0 0 0 0 1 4 0 0 0 0 0 0 0 0 0 0 0 0 0 0 0 0 0 0 0 0 0 0 0 0 0 0 0 0 0 0 0 0 
