P2
128 99
255
0 0 1 14 96 135 150 139 128 122 120 118 116 114 108 107 104 95 95 93 94 90 88 84 84 81 83 87 83 82 77 78 78 74 74 76 80 88 90 90 73 62 65 63 61 61 62 61 55 53 57 59 55 55 55 63 66 85 126 127 114 102 111 96 76 69 85 87 98 100 99 103 105 98 102 127 113 59 26 38 63 77 62 58 59 52 48 47 53 45 35 45 37 47 57 55 52 48 52 
0 0 1 13 93 136 151 140 131 121 116 116 115 118 114 107 105 101 98 98 90 90 84 86 85 87 87 80 81 75 87 78 69 71 76 82 83 97 98 82 79 73 65 62 58 61 64 63 54 53 59 61 56 52 61 61 66 80 127 124 107 108 115 108 82 65 69 81 86 88 91 107 100 92 114 114 124 59 28 38 61 74 65 57 47 54 50 48 50 43 46 38 37 51 53 51 52 51 50 
0 0 0 12 89 135 151 141 128 122 115 112 111 113 112 106 98 98 93 92 88 88 89 91 90 90 76 83 77 81 90 69 71 75 73 76 77 92 87 88 97 81 61 63 64 61 62 58 55 55 59 61 51 49 51 66 75 86 121 114 104 115 120 105 91 70 79 89 83 77 79 107 90 90 113 114 111 75 41 43 65 70 69 39 39 46 48 54 49 42 56 28 44 53 45 51 57 57 46 
0 0 0 11 84 135 150 144 128 121 119 113 113 110 108 104 97 94 91 87 90 88 96 93 91 82 75 85 79 87 82 71 75 72 73 77 79 82 85 100 102 79 69 68 65 58 59 59 59 58 60 62 50 46 59 85 80 87 109 105 110 122 127 112 101 79 86 99 90 78 87 100 89 100 104 123 103 90 36 42 67 61 69 35 40 41 47 55 46 46 57 25 54 46 40 52 65 56 41 
0 0 0 11 80 134 150 143 132 122 115 116 116 115 110 105 103 100 93 94 96 94 91 87 86 80 84 87 82 83 78 76 72 70 77 78 69 75 93 101 102 93 86 68 65 63 65 61 58 54 57 61 55 49 67 81 77 86 105 104 115 122 110 111 110 92 97 100 103 91 96 100 95 93 110 107 111 77 35 41 67 63 67 34 40 41 47 45 46 58 46 30 64 37 42 59 68 49 42 
0 0 0 11 74 133 150 141 131 122 114 113 113 115 115 110 103 105 95 100 94 92 85 89 84 88 88 83 82 78 83 76 68 75 79 67 71 81 82 87 106 105 93 75 78 77 68 64 59 57 60 65 60 63 73 68 76 95 104 105 108 113 106 108 115 98 94 90 94 85 101 104 92 81 103 107 102 72 41 40 72 67 60 33 38 37 47 38 51 55 35 40 57 33 49 67 61 47 48 
0 0 0 11 70 132 149 144 130 119 116 113 109 108 110 109 97 100 93 92 90 89 90 91 93 93 80 84 80 81 86 72 70 78 70 67 77 74 73 86 106 97 99 97 93 81 80 84 68 60 61 66 63 65 82 62 67 91 106 106 92 111 107 106 108 95 80 84 91 95 101 114 100 101 112 122 104 67 36 43 77 73 62 35 39 38 45 45 56 41 40 49 48 36 59 64 49 49 50 
0 0 0 10 66 130 148 143 132 120 113 116 111 106 105 106 97 98 94 90 92 91 99 92 94 83 80 86 84 81 87 70 76 76 66 77 72 72 79 86 87 83 95 98 96 88 91 97 85 79 77 79 79 76 74 64 73 77 106 113 87 109 97 95 101 97 76 87 99 95 96 115 106 114 121 119 124 40 33 50 95 83 66 37 41 41 45 52 43 39 54 42 40 45 63 52 48 56 45 
0 0 0 9 61 127 147 142 132 125 113 112 113 111 109 106 102 102 100 96 96 96 93 89 87 84 87 89 78 83 83 73 78 71 74 80 64 78 84 79 81 82 82 85 91 97 100 98 89 91 101 99 94 79 74 77 80 73 95 111 84 104 98 99 109 94 92 91 97 93 104 111 109 102 116 133 126 33 35 64 83 84 82 40 40 41 47 43 38 48 57 30 43 55 54 46 57 55 45 
0 0 0 8 58 124 146 143 129 123 121 109 107 109 108 105 103 102 99 98 92 94 85 90 86 93 85 82 75 87 85 77 76 70 80 70 69 83 76 77 89 78 72 75 88 89 92 89 88 93 102 98 93 84 81 94 81 85 104 103 84 103 95 102 107 95 90 87 84 97 109 109 98 98 132 146 122 34 37 64 101 107 83 40 42 41 44 40 45 56 43 28 54 52 44 50 66 51 49 
0 0 0 7 54 120 144 144 132 119 119 117 106 106 107 103 97 97 93 93 89 90 90 93 92 91 78 78 86 86 84 78 72 76 75 69 78 77 74 81 90 69 65 77 85 76 79 85 85 88 90 86 84 81 84 85 73 87 107 104 95 105 96 98 95 84 82 82 96 104 116 115 104 114 136 149 120 40 37 70 114 106 96 54 42 40 38 43 55 46 37 38 57 38 39 59 64 49 48 
0 0 0 6 50 117 142 146 130 122 114 118 112 107 110 107 98 98 94 93 96 92 99 90 89 84 80 85 91 77 87 78 72 76 71 76 75 74 79 84 81 69 71 72 74 69 81 78 77 76 81 83 81 75 74 83 77 84 100 104 92 99 92 95 89 85 83 97 99 99 113 116 108 111 134 156 120 41 41 87 111 107 110 68 45 37 42 50 49 41 46 42 46 32 49 65 56 51 39 
0 0 0 5 47 113 140 146 133 125 117 113 113 106 105 108 100 103 102 98 98 92 93 86 91 88 82 88 76 80 91 77 76 75 73 77 71 76 84 78 78 76 67 64 67 74 82 73 66 74 81 81 74 67 73 85 82 80 95 98 84 95 96 92 90 87 84 92 102 99 113 122 109 112 141 159 134 46 36 77 108 105 103 72 47 44 46 42 40 48 51 31 41 40 64 57 54 51 37 
0 0 0 5 44 107 138 145 137 121 120 113 113 108 99 98 96 98 98 95 90 93 89 94 93 86 76 86 74 89 89 72 77 72 76 75 69 80 78 75 84 75 61 65 74 76 73 64 74 76 77 68 71 73 81 82 81 83 97 100 81 91 90 92 84 77 84 85 97 91 108 122 114 115 142 162 125 50 31 63 117 113 111 72 57 48 40 37 46 58 42 28 45 56 56 48 58 46 42 
0 0 0 5 43 99 134 143 136 123 121 112 108 111 108 97 98 95 92 94 90 96 92 96 88 80 81 81 82 87 80 77 75 73 80 72 73 81 74 78 86 67 62 72 67 65 68 71 78 68 67 71 80 74 76 72 83 92 100 98 81 84 83 86 86 76 88 83 100 92 100 113 110 110 128 156 128 58 39 68 111 107 129 76 63 45 43 44 53 49 36 30 58 54 42 53 63 47 41 
0 0 0 5 42 90 132 142 136 122 120 116 104 103 109 101 101 102 95 98 94 94 90 86 84 80 89 80 83 81 81 80 70 79 77 72 77 76 73 83 80 67 71 68 61 66 72 72 68 58 75 82 74 64 71 81 85 97 93 101 84 83 84 84 86 84 94 93 101 86 97 106 99 100 119 146 126 69 53 55 106 112 109 88 68 52 55 55 48 39 39 41 56 37 42 65 59 49 32 
0 0 0 5 42 81 130 138 140 127 115 117 111 101 101 99 93 99 92 93 91 87 89 86 86 89 82 78 81 80 88 74 72 81 72 75 75 73 80 77 80 74 70 61 63 74 65 63 63 66 81 71 64 64 78 84 76 88 97 107 88 84 86 80 78 77 86 90 97 87 93 103 99 91 105 148 131 75 71 76 104 117 105 89 76 66 60 48 40 43 50 43 42 32 58 66 56 47 32 
0 0 0 5 42 73 127 134 142 132 116 112 111 106 100 103 91 97 93 92 93 90 95 93 86 89 71 83 81 81 87 70 79 75 70 82 72 75 82 76 83 77 66 62 74 70 59 65 67 67 68 63 68 76 76 73 71 85 109 108 81 88 84 75 74 67 77 85 94 94 102 112 103 97 109 145 132 82 85 78 106 121 85 73 80 69 59 47 48 52 51 30 37 47 67 56 60 41 36 
0 0 0 5 41 67 124 129 141 137 122 113 107 107 98 102 96 95 98 93 94 93 91 86 82 83 74 88 79 82 85 73 79 66 79 79 68 84 77 77 89 73 64 74 77 61 62 75 62 62 66 67 68 73 63 72 81 90 107 96 79 88 78 76 73 73 76 88 90 90 100 112 100 98 113 129 122 92 98 87 104 132 92 63 73 68 71 62 54 50 39 23 44 61 53 54 59 39 38 
0 0 0 5 40 64 118 127 139 140 130 116 109 109 102 93 95 87 91 87 87 87 85 80 90 83 84 85 75 83 82 75 70 71 84 69 73 85 74 83 87 72 71 78 67 60 73 71 57 66 69 70 63 62 66 83 84 85 102 99 87 85 78 86 76 77 80 89 84 80 81 96 96 103 110 120 117 88 83 78 112 134 101 73 73 70 76 66 49 42 35 28 58 48 44 61 51 46 39 
0 0 0 5 39 62 107 125 135 141 137 120 110 109 110 94 97 89 89 89 86 91 90 88 97 81 84 81 80 84 78 75 69 80 74 68 82 78 76 88 84 74 79 69 63 73 74 60 64 72 68 70 62 62 77 81 73 82 104 106 85 84 91 88 79 76 76 78 77 77 78 92 85 90 115 123 119 86 68 95 130 133 109 79 79 69 76 67 45 40 39 40 50 33 51 57 56 50 34 
0 0 0 5 39 61 97 124 132 141 135 130 117 104 107 98 96 97 91 96 90 93 90 91 85 80 82 81 83 76 82 77 71 78 67 79 78 73 86 83 81 82 75 62 72 74 62 62 72 68 65 69 65 66 75 68 74 90 104 102 77 90 93 86 76 75 77 78 82 82 85 97 81 87 113 126 123 87 65 92 120 123 114 78 81 66 71 67 47 47 50 40 38 39 56 54 61 46 31 
0 0 0 5 39 62 85 122 128 138 135 132 123 112 107 100 88 98 86 89 85 84 80 88 78 89 84 84 79 75 87 72 72 73 73 85 68 79 87 77 86 81 65 66 78 64 61 73 71 66 66 68 70 65 70 72 82 88 98 102 82 88 86 76 79 79 83 88 88 87 85 95 79 76 104 120 116 84 57 75 114 130 109 79 80 63 64 65 53 52 52 31 42 48 52 57 58 35 30 
0 0 1 5 39 62 77 119 126 135 132 132 125 116 108 108 88 99 87 85 87 85 81 92 83 92 80 83 77 82 85 65 75 72 78 76 70 88 80 78 91 72 66 75 72 60 71 76 68 65 70 73 66 62 70 85 83 80 102 103 88 79 78 80 83 79 87 94 89 85 80 92 74 68 107 124 114 80 55 63 102 111 107 79 85 67 66 61 54 58 44 30 51 50 50 56 53 29 30 
0 0 0 5 39 61 72 112 123 133 131 129 130 119 105 109 95 98 95 90 92 88 88 89 83 85 75 84 76 82 78 72 78 70 79 74 78 87 76 84 86 69 75 75 63 67 77 74 64 67 73 70 63 65 69 85 80 83 105 98 79 78 77 86 81 79 79 82 90 85 80 92 74 66 102 123 114 81 62 53 82 89 100 79 83 73 70 62 63 52 45 37 57 41 50 54 41 28 29 
0 0 2 5 39 60 70 99 122 130 131 129 128 123 112 106 97 91 92 83 86 80 87 79 85 83 79 84 74 81 77 79 72 72 82 73 84 80 79 86 79 75 79 66 64 77 74 72 65 70 72 66 64 68 70 78 81 92 99 95 83 85 77 80 74 77 74 85 94 83 90 97 78 70 99 119 119 84 69 51 67 91 94 81 78 72 67 66 62 50 52 47 44 39 51 50 37 28 29 
0 0 1 5 39 59 70 84 120 125 130 129 128 122 116 110 104 90 94 85 86 79 92 80 91 85 81 79 79 81 81 76 69 79 79 78 83 78 85 83 80 79 71 60 73 77 69 72 71 66 69 66 68 65 77 73 87 97 100 103 92 88 78 71 72 70 79 92 94 86 99 100 86 75 101 111 114 93 63 51 66 89 93 78 79 80 67 63 56 59 62 41 43 43 56 45 38 29 27 
0 0 1 5 39 59 71 72 118 125 127 127 126 125 116 109 106 95 97 92 88 84 94 82 90 80 81 77 83 77 84 74 73 82 73 82 80 80 88 81 83 79 63 67 80 66 68 73 68 63 68 67 68 64 76 76 91 92 112 109 92 90 75 71 77 75 90 89 95 88 91 98 95 86 101 106 109 95 70 58 77 82 88 74 84 91 64 57 71 73 50 39 49 57 55 47 42 30 28 
0 1 0 5 39 59 70 66 110 123 123 125 123 121 118 110 104 94 95 91 81 81 85 80 87 79 83 79 81 74 87 70 79 78 72 83 77 85 87 79 85 74 66 75 74 60 71 74 60 63 70 66 65 66 75 84 93 99 118 109 88 94 82 76 78 74 81 85 91 84 85 96 100 85 102 112 111 101 73 52 77 75 89 75 75 78 68 75 78 68 51 48 64 63 55 45 41 30 29 
0 1 0 5 39 59 68 63 95 121 124 123 121 122 116 112 106 100 92 94 83 86 87 88 91 86 83 79 79 78 90 71 80 72 80 86 75 89 83 78 87 75 70 75 65 65 76 66 57 66 67 64 63 65 80 91 98 109 113 115 94 96 92 84 77 68 75 89 86 81 86 106 88 79 107 109 105 110 63 43 70 70 95 72 58 69 80 79 61 63 61 62 77 58 51 42 43 33 28 
0 1 0 5 39 59 68 63 77 119 123 124 117 118 116 110 105 102 96 99 84 87 87 88 85 84 78 84 82 88 86 72 78 74 88 77 75 90 77 82 89 72 70 69 64 72 72 59 61 66 63 64 61 65 87 89 97 107 120 121 96 98 92 83 78 68 79 86 93 85 99 104 88 90 103 106 111 105 57 54 68 74 77 64 63 66 73 58 58 64 75 72 71 62 44 43 44 34 29 
0 0 0 5 39 59 68 62 64 114 122 122 120 116 113 110 107 100 93 97 83 86 83 87 84 89 83 92 81 85 79 80 78 76 84 72 86 87 77 87 84 70 72 68 69 73 64 62 68 62 62 65 59 64 84 88 93 107 128 115 100 99 79 79 75 75 83 90 98 90 104 102 97 85 100 111 115 93 69 65 61 74 67 64 73 53 58 66 59 75 71 56 73 59 47 47 43 32 32 
0 0 0 5 39 59 68 62 59 101 121 125 120 114 114 107 108 105 98 97 84 90 87 95 89 92 77 87 75 87 83 84 71 78 80 80 89 78 82 87 77 76 74 67 71 70 63 68 65 58 65 63 63 62 76 88 89 105 127 123 105 95 77 76 77 79 80 83 88 86 102 102 90 82 105 113 114 88 85 54 58 73 70 61 61 46 53 73 64 70 54 58 73 52 56 50 44 40 34 
0 0 0 5 39 59 68 60 58 82 117 123 123 114 112 109 104 107 96 100 89 91 86 93 84 87 75 90 80 89 81 80 70 86 81 80 79 75 88 81 78 82 71 63 72 67 67 68 61 60 65 64 66 57 75 87 81 96 134 123 106 87 80 77 75 77 72 78 90 82 94 97 89 84 103 112 114 96 77 45 63 75 65 51 58 52 60 74 54 62 60 63 70 53 66 55 49 49 36 
0 0 0 5 39 59 68 60 58 65 113 121 126 121 112 106 104 108 94 94 84 89 86 95 88 93 82 91 78 86 81 82 78 86 73 79 78 83 88 78 84 81 62 65 74 67 68 68 60 61 65 68 61 59 77 86 86 110 127 121 110 90 87 77 64 69 70 85 90 78 92 103 90 82 100 110 111 95 68 57 65 64 64 53 60 58 61 62 57 66 65 69 65 53 64 57 56 55 41 
0 0 0 5 39 59 68 60 56 57 100 117 126 127 115 106 101 106 101 98 85 89 89 97 89 92 78 86 78 88 85 81 72 79 74 89 80 83 84 77 87 73 61 74 72 63 69 66 62 59 68 67 58 66 74 90 97 118 120 125 110 93 94 77 64 64 72 90 90 91 101 108 85 83 100 108 108 95 73 60 60 63 68 55 60 53 55 61 71 66 68 64 59 54 55 62 68 58 46 
0 0 0 5 39 59 68 60 55 56 80 114 122 133 117 106 102 100 97 98 89 88 86 92 85 90 79 87 83 87 85 76 73 83 82 88 72 83 82 78 88 70 66 77 64 62 72 68 57 63 70 60 64 66 75 93 98 117 122 122 102 102 98 87 75 67 69 87 94 101 103 102 91 86 101 111 114 101 70 58 64 63 78 54 53 57 59 59 67 62 70 47 61 55 52 58 61 53 52 
0 0 0 5 39 59 68 60 55 56 62 108 117 129 129 106 101 100 99 96 86 82 85 92 86 95 86 89 82 82 85 78 80 84 78 80 73 91 81 79 89 67 70 68 61 70 75 61 60 67 62 61 69 60 80 91 95 111 121 120 97 103 99 90 83 75 72 84 98 92 96 106 97 83 99 115 121 90 66 66 61 66 78 48 63 61 57 56 58 60 55 42 56 53 47 54 56 48 54 
0 0 0 5 39 59 68 60 55 55 53 97 113 122 134 114 103 99 96 101 90 88 87 95 85 92 81 86 82 85 91 77 78 76 78 84 82 91 77 83 86 66 70 62 64 75 66 59 68 63 59 68 65 62 82 91 90 116 124 122 93 101 96 92 86 73 76 88 96 87 101 108 94 87 107 119 120 95 69 64 65 70 74 53 67 52 55 62 60 54 49 42 50 50 47 59 51 49 49 
0 0 0 5 39 59 68 60 55 53 52 77 110 116 131 126 107 104 93 98 86 89 87 91 82 88 77 89 87 86 89 72 77 79 83 86 77 83 79 88 81 69 72 65 69 69 62 65 71 56 63 70 59 68 78 89 93 111 122 120 95 98 96 96 94 82 92 92 102 95 104 106 101 94 108 117 117 96 65 69 72 71 76 51 61 54 60 66 55 52 48 36 45 51 52 59 50 52 43 
0 0 0 5 39 59 68 60 55 53 52 58 106 111 125 133 112 105 96 100 86 85 86 91 87 92 80 91 84 82 89 78 84 83 82 79 78 87 83 86 78 75 70 63 67 64 64 71 63 58 70 67 61 66 77 79 85 110 125 120 92 96 90 102 92 89 93 89 103 102 107 112 99 91 111 124 116 94 60 78 82 73 77 60 60 57 54 62 57 52 40 33 47 52 58 53 55 55 41 
0 0 0 5 39 59 68 60 55 53 51 50 93 108 119 126 124 110 95 99 91 89 88 92 86 90 75 82 81 87 96 79 82 76 80 83 84 88 77 81 80 76 64 59 66 66 65 68 59 62 70 64 64 62 77 72 82 110 126 118 93 95 87 105 87 89 84 97 101 101 108 116 92 94 109 128 122 83 58 80 96 85 78 68 52 58 55 64 67 53 41 35 46 47 55 52 57 49 44 
0 0 0 5 39 59 68 60 55 53 49 49 70 108 114 122 125 117 100 99 86 86 86 91 81 86 80 84 85 90 92 74 80 79 87 87 80 81 77 83 81 75 61 64 70 64 60 66 62 61 70 66 62 64 71 71 91 98 128 122 102 100 91 101 94 84 94 103 92 99 105 114 96 98 118 130 122 81 67 80 92 94 79 63 51 56 63 67 61 56 51 34 43 43 47 52 53 48 50 
0 0 0 5 39 59 68 60 55 53 49 49 51 100 111 117 122 126 101 100 93 91 86 93 83 89 84 85 84 83 90 80 87 83 86 81 77 86 84 83 79 76 64 68 66 58 65 67 58 63 70 62 64 66 62 79 79 86 118 124 105 97 90 100 92 88 89 88 85 91 98 110 96 90 118 133 128 81 53 71 84 96 73 58 47 48 64 57 56 62 53 30 42 39 43 54 53 45 46 
0 0 0 5 39 59 68 60 55 53 49 49 47 81 108 111 116 131 110 97 92 95 90 93 84 85 80 82 84 84 96 83 84 76 83 84 84 89 80 78 81 78 64 66 64 61 70 61 55 68 66 61 70 58 61 87 69 81 117 120 95 89 91 90 90 84 88 93 93 86 97 106 91 90 116 135 126 66 44 62 81 88 76 49 47 55 63 65 60 62 53 29 48 39 43 54 54 39 39 
0 0 0 5 39 59 68 60 55 53 49 47 47 59 104 107 114 124 122 104 95 93 86 92 85 84 80 85 87 84 92 74 82 78 89 86 84 82 77 80 83 75 65 72 69 66 66 58 62 68 62 67 68 54 70 78 68 88 115 118 89 89 91 84 95 91 92 102 101 85 98 107 93 91 120 133 122 72 36 43 73 84 74 42 49 57 63 73 66 65 60 39 52 33 43 57 58 38 37 
0 0 0 5 39 59 68 60 55 53 49 47 47 48 89 106 108 120 124 111 98 101 91 94 88 85 83 81 82 80 89 78 90 79 87 79 83 86 86 86 81 76 69 74 67 63 65 65 65 61 63 71 60 57 68 69 75 87 114 116 82 86 82 81 87 88 98 104 97 86 99 109 97 95 108 137 114 76 40 40 62 76 64 35 51 52 55 68 58 55 62 47 50 33 51 53 56 43 33 
0 0 0 5 39 59 68 60 55 53 49 47 45 47 64 104 107 113 119 122 100 97 89 93 87 80 82 79 84 81 93 78 84 73 88 80 89 89 86 80 80 80 69 73 65 67 71 63 64 64 67 66 58 61 65 71 71 90 116 108 79 79 80 81 81 80 93 101 103 93 100 110 103 95 113 140 108 72 46 35 52 60 50 30 44 41 45 53 61 48 57 48 51 46 55 51 53 49 38 
0 0 0 5 39 59 68 60 55 53 49 46 45 48 49 91 105 109 113 120 116 103 89 93 89 85 86 81 87 75 88 70 82 80 92 80 87 80 83 83 89 81 67 77 69 73 66 60 67 63 65 66 63 59 67 64 72 95 102 104 84 80 82 77 73 73 89 96 101 99 108 112 100 94 115 133 108 61 47 30 44 48 42 27 39 38 39 41 47 55 52 39 46 53 70 59 53 50 45 
0 0 0 5 39 59 68 60 55 53 49 46 45 46 47 63 103 104 108 113 122 109 96 97 95 87 84 77 82 73 90 75 87 78 87 76 85 83 92 87 88 78 70 80 68 70 60 67 65 56 70 68 57 64 63 61 79 85 91 106 89 83 80 75 65 71 84 90 93 105 120 115 109 99 113 126 104 65 42 28 41 44 39 27 39 36 43 41 42 53 47 36 50 55 64 61 57 50 46 
0 0 0 5 39 59 68 60 55 53 49 46 45 45 48 47 86 104 102 110 120 124 97 92 95 84 83 80 85 79 90 71 79 73 88 81 90 85 88 78 85 82 78 80 67 72 65 69 58 60 70 60 62 67 56 70 75 77 102 105 93 87 79 72 63 73 80 77 92 111 116 123 115 108 116 123 110 60 35 28 41 43 38 27 37 34 39 38 40 44 49 41 49 40 52 62 55 54 47 
0 0 0 5 39 59 68 60 55 53 49 46 45 45 47 45 55 101 101 107 110 129 114 96 99 90 89 85 85 77 86 70 82 78 89 79 85 80 87 82 95 83 75 76 74 76 63 65 62 62 65 60 68 58 62 75 67 78 98 106 93 86 79 72 70 76 77 77 100 112 114 131 114 102 108 118 111 56 31 28 41 43 39 27 37 35 37 40 36 43 45 37 42 30 45 56 56 50 54 
0 0 0 5 39 59 68 60 55 53 49 46 45 45 45 46 40 83 101 103 108 121 125 101 100 89 87 82 83 79 90 74 82 72 85 77 86 85 93 85 91 73 77 80 77 68 62 71 62 57 65 63 64 59 62 71 69 75 93 105 84 82 85 79 77 80 73 83 112 108 118 129 112 101 105 114 104 62 29 29 41 44 38 27 36 33 38 40 38 43 38 24 37 29 37 49 52 47 50 
0 0 1 5 39 59 68 60 55 53 49 46 45 45 45 45 40 53 98 101 100 116 127 119 100 93 92 87 89 85 89 72 78 73 87 80 87 80 85 79 90 79 86 77 77 68 70 69 56 63 68 59 67 59 57 76 68 71 98 102 74 81 87 85 86 86 70 94 115 108 118 127 119 104 112 113 97 65 30 28 39 41 37 26 37 32 35 37 39 37 32 19 33 24 30 44 50 47 53 
0 0 1 5 39 59 68 60 55 53 49 46 45 45 45 43 41 41 73 101 97 109 117 126 113 100 96 87 84 81 88 74 82 77 82 74 84 79 89 84 95 79 78 69 81 73 68 72 63 68 60 60 70 51 65 77 62 75 102 97 75 82 92 91 97 77 76 107 113 111 113 133 125 108 120 109 89 67 30 28 39 40 35 25 37 31 33 35 35 33 30 17 29 24 29 38 41 41 42 
0 0 1 5 39 59 68 60 55 53 49 46 45 45 45 43 40 41 45 93 97 99 114 122 123 101 98 88 87 87 92 76 81 71 79 76 86 80 86 78 88 74 78 72 79 69 75 79 64 66 61 68 63 53 71 69 66 82 100 98 80 85 89 95 91 69 90 109 112 109 120 128 128 113 118 107 87 61 29 27 39 40 34 24 35 29 33 33 33 33 28 16 28 24 29 34 37 34 42 
0 0 1 5 39 59 68 60 55 53 49 47 45 45 45 43 38 42 37 61 100 95 107 115 124 118 104 100 92 86 88 72 80 76 86 75 78 73 83 78 92 82 78 69 76 74 79 74 70 74 66 65 65 60 68 71 68 81 100 99 82 84 85 89 77 80 103 104 109 103 111 121 125 111 112 117 88 62 31 27 38 39 35 22 34 27 32 31 30 31 28 17 31 25 29 31 34 30 36 
0 0 1 5 39 59 68 60 55 53 49 47 45 45 45 43 38 40 38 40 79 96 100 112 116 123 110 103 96 88 92 79 83 76 79 70 81 79 89 78 90 76 72 74 82 74 77 75 76 72 67 72 71 56 72 75 67 82 103 98 83 78 88 85 73 92 95 104 113 101 102 127 128 115 115 123 90 59 29 26 37 39 32 20 32 25 29 30 29 28 26 18 32 25 28 30 33 27 31 
0 0 1 5 39 59 68 60 55 53 49 47 45 45 45 43 38 39 39 38 46 92 94 104 111 120 123 109 105 95 95 75 77 74 81 79 83 75 82 72 88 77 79 81 79 70 80 78 73 72 76 82 70 61 77 75 71 79 108 100 76 85 90 82 84 89 90 113 109 94 105 130 123 117 121 118 89 54 26 26 37 39 31 22 31 24 28 28 27 28 26 18 30 25 29 31 33 26 30 
0 0 1 5 39 59 68 60 55 53 49 47 45 45 45 43 38 39 37 38 36 59 93 97 109 110 115 118 109 100 99 80 84 79 82 72 76 74 85 78 91 75 75 75 79 77 82 75 74 74 79 82 71 71 80 79 77 90 105 97 78 90 89 92 98 82 91 103 100 95 113 116 124 121 118 118 83 51 26 25 38 39 33 23 31 24 28 28 26 27 26 17 29 24 30 32 35 26 27 
0 0 1 5 39 59 68 60 55 53 49 47 45 45 45 43 38 39 36 38 37 38 73 91 101 104 107 122 119 113 107 86 82 72 77 77 81 78 84 75 86 75 80 80 82 77 78 76 79 75 79 79 70 69 79 75 82 98 100 106 88 93 85 103 88 80 90 96 96 104 109 116 128 122 116 121 85 51 25 26 38 39 33 23 32 27 30 27 26 27 29 17 29 24 30 35 37 26 26 
0 0 1 5 39 59 68 60 55 53 49 47 45 45 45 43 38 39 36 35 37 37 45 78 92 102 102 112 117 117 111 92 90 82 84 77 75 75 81 79 90 76 78 73 78 80 85 78 75 74 82 81 71 72 79 75 84 84 104 106 83 86 94 98 87 85 82 96 99 95 106 128 122 119 127 120 95 51 27 26 38 39 34 24 33 28 30 29 28 28 28 18 31 25 32 36 35 26 29 
0 0 1 5 39 59 68 60 55 53 49 47 45 45 45 43 38 39 36 35 35 38 38 50 77 94 100 109 114 124 127 109 99 90 85 77 77 83 81 78 82 71 76 77 85 82 82 72 76 79 83 81 74 76 79 79 78 88 105 100 77 88 94 86 88 81 83 97 95 94 116 131 123 117 121 120 98 49 25 25 38 41 36 25 36 28 31 31 28 29 28 19 32 26 31 33 33 27 29 
0 0 1 5 39 59 68 60 55 53 49 47 45 45 45 43 38 39 36 35 34 36 38 39 52 75 95 106 107 115 123 117 112 100 97 87 81 79 76 79 85 78 75 73 79 78 84 81 82 77 80 83 79 79 81 78 83 99 93 105 84 93 86 93 85 84 93 94 97 103 120 130 135 120 116 121 102 45 22 26 40 42 37 27 35 28 33 31 29 31 29 19 32 27 31 32 33 26 27 
0 0 0 5 39 59 68 60 55 53 49 47 45 45 45 43 38 39 36 35 34 35 37 38 39 50 75 101 103 110 118 118 122 112 107 96 89 88 86 85 83 76 71 76 81 85 86 79 79 77 84 88 80 75 81 82 88 90 99 103 80 83 91 90 78 86 91 100 114 107 116 135 137 115 125 124 103 38 23 26 40 42 37 27 35 29 33 31 30 31 30 20 33 28 32 34 35 26 26 
0 0 0 5 39 59 68 60 55 53 49 47 45 45 45 43 38 39 36 35 34 35 36 36 38 37 45 81 100 104 110 111 115 120 120 108 102 97 91 87 87 84 76 78 76 79 79 82 85 83 85 82 76 78 86 81 81 93 109 99 90 88 90 87 87 82 89 107 116 114 128 139 133 118 124 127 97 34 24 26 43 43 38 27 36 29 33 32 30 33 30 20 33 28 33 36 37 29 29 
0 0 0 5 39 59 68 60 55 53 49 47 45 45 45 43 38 39 36 35 34 35 36 36 35 36 33 46 78 101 104 104 110 115 119 115 109 107 103 99 93 85 76 81 77 83 82 84 81 78 81 86 84 78 78 82 86 90 104 109 87 88 98 99 80 84 97 108 121 127 137 142 136 120 131 123 84 27 25 27 41 42 38 27 35 29 33 32 30 33 30 21 34 28 32 36 37 30 30 
0 0 0 5 39 59 68 60 55 53 49 46 45 45 45 43 38 39 35 35 34 35 36 36 35 33 32 36 40 75 100 98 105 112 114 122 119 116 107 106 99 96 84 88 83 82 79 80 82 83 85 84 78 75 83 87 77 87 108 106 84 94 103 85 86 93 98 110 122 128 141 144 135 129 129 113 71 25 25 27 40 42 37 25 34 29 32 31 31 33 31 20 34 28 32 37 37 29 29 
0 0 0 5 39 59 68 60 55 53 49 46 45 45 45 43 38 39 35 35 34 35 36 36 35 33 29 36 33 40 71 87 95 105 107 116 116 124 120 117 111 103 90 91 87 86 86 84 79 81 84 86 81 76 77 84 78 87 102 106 83 95 97 95 95 95 102 107 121 129 141 151 142 127 121 99 59 24 25 27 38 41 35 24 32 27 30 32 29 30 30 20 34 28 32 36 38 29 29 
0 0 0 5 39 59 68 60 55 53 49 46 45 45 45 43 38 39 36 35 34 35 36 36 35 33 29 33 32 36 43 58 83 97 101 109 112 121 121 122 120 112 100 100 93 89 88 86 82 85 84 84 81 79 79 83 75 86 105 103 83 93 103 96 92 98 103 113 129 128 147 155 138 117 109 83 54 26 23 25 36 38 33 22 30 25 28 30 27 29 29 19 32 27 32 36 37 29 30 
0 0 0 5 39 59 68 60 55 53 49 46 45 45 45 43 38 39 35 35 34 35 36 36 35 33 29 32 30 35 40 32 51 83 97 101 106 114 116 123 124 120 110 107 104 98 98 91 86 86 90 88 82 76 82 85 77 86 107 106 82 95 101 102 97 98 114 127 137 143 151 154 129 103 91 75 53 24 21 22 34 37 31 19 28 22 26 27 26 27 28 17 31 25 30 35 35 28 30 
0 0 0 5 39 59 68 60 55 53 49 46 45 45 45 43 37 39 35 35 34 35 36 36 35 33 29 32 30 33 38 29 30 47 77 94 100 107 112 117 121 121 118 118 117 107 107 100 98 91 93 89 89 80 84 85 83 89 107 105 90 100 105 106 107 111 120 139 151 149 154 146 117 89 76 71 53 21 21 19 33 35 30 17 27 20 23 24 24 25 25 16 30 24 29 34 34 27 29 
0 0 0 5 39 59 68 60 55 53 49 46 45 45 45 43 37 39 35 35 34 35 36 36 35 33 29 32 30 33 36 27 29 33 42 68 88 102 108 110 118 115 114 117 123 119 119 113 107 100 100 93 91 86 92 95 88 95 109 109 91 99 109 116 119 118 132 145 152 148 149 137 103 71 68 71 52 22 18 18 31 34 29 16 25 19 21 22 22 23 22 15 29 23 28 34 33 27 27 
0 0 0 5 39 59 68 60 55 53 49 46 45 45 45 43 37 39 35 35 34 35 36 35 35 33 29 32 30 33 36 26 27 32 33 37 56 85 98 105 113 110 109 110 115 116 122 122 119 115 111 103 96 91 93 101 96 103 116 117 102 108 115 120 124 127 139 147 149 145 142 120 87 54 64 69 51 18 16 18 30 33 28 15 24 18 20 21 20 22 20 12 25 21 28 32 32 28 27 
0 0 0 5 39 59 68 60 55 53 49 46 45 45 45 43 37 39 35 35 34 34 36 35 35 33 29 32 30 33 36 26 26 29 32 33 33 49 73 92 103 102 101 106 108 111 113 116 117 122 122 116 107 104 102 107 103 113 126 126 112 114 120 125 129 134 143 145 147 141 127 102 67 44 62 67 48 17 15 17 30 34 27 15 24 18 20 19 20 21 19 11 24 18 25 29 30 26 26 
0 0 0 5 39 59 68 60 55 53 49 46 45 45 45 43 37 39 35 35 34 34 36 35 35 33 29 32 30 33 36 26 26 29 30 31 32 36 41 58 82 89 92 99 101 104 106 107 109 114 119 123 118 115 113 116 115 122 135 137 124 123 126 131 134 135 140 144 144 132 106 80 52 40 60 65 46 17 14 16 29 33 27 14 24 19 22 20 20 22 20 10 22 17 23 28 28 23 23 
0 0 0 5 39 59 68 60 55 53 49 47 45 45 45 43 38 39 35 35 34 34 36 35 35 33 29 32 30 33 36 26 26 29 30 30 29 35 35 36 48 57 72 85 92 94 101 100 102 103 113 115 115 115 119 121 123 129 140 142 130 132 133 134 134 133 136 138 132 112 78 66 48 39 59 65 48 16 12 13 27 32 25 13 22 17 21 20 20 22 21 11 25 17 22 26 26 21 21 
0 0 0 5 39 59 68 60 55 53 49 46 45 45 46 43 38 39 35 35 34 34 36 35 35 33 28 32 29 33 36 26 26 29 30 30 28 33 34 35 39 31 35 52 68 78 87 91 93 95 104 106 107 107 112 117 119 126 133 133 122 130 127 126 125 122 123 113 97 71 57 61 47 39 59 63 44 15 11 12 27 31 25 12 22 16 19 17 17 18 17 9 26 21 24 28 28 21 21 
0 0 0 5 39 59 68 60 55 53 49 46 45 45 46 43 38 39 35 35 34 34 36 35 35 33 28 32 29 33 36 26 26 29 31 31 29 33 33 32 37 29 23 26 34 43 56 65 71 77 87 92 94 95 100 107 108 115 122 120 106 118 115 112 107 95 83 66 56 42 49 59 46 38 57 62 45 14 11 12 27 31 25 12 22 16 19 17 17 19 17 7 20 16 25 29 30 22 22 
0 0 0 5 39 59 68 60 55 53 49 46 45 45 45 43 38 39 35 35 34 34 36 35 35 33 28 32 29 33 36 26 26 29 31 31 30 35 35 38 40 27 22 24 26 25 28 31 36 43 54 60 65 69 76 84 87 94 106 105 87 101 96 88 73 53 45 45 46 38 48 56 42 34 55 61 44 14 11 12 27 31 25 12 22 16 19 17 17 18 17 7 20 14 21 26 28 20 21 
0 0 0 5 39 59 68 60 55 53 49 46 45 45 45 43 38 39 35 35 34 35 36 36 36 35 31 37 35 40 44 33 34 36 36 35 40 51 49 59 52 38 25 22 25 24 26 25 22 23 30 31 30 29 36 43 48 59 75 77 55 71 61 52 41 32 35 42 45 35 44 54 40 33 54 61 44 14 11 12 27 31 25 12 22 16 19 17 17 18 17 7 20 14 20 24 26 19 20 
0 1 0 5 39 59 68 60 55 53 49 46 45 45 45 43 37 39 36 36 35 36 40 44 48 52 53 61 60 64 66 56 54 53 54 57 60 66 63 64 57 52 38 26 26 23 25 24 22 23 28 27 24 19 24 28 29 39 57 58 36 45 41 38 33 29 34 40 42 33 43 54 40 33 54 61 44 14 11 12 27 31 25 12 22 16 19 17 17 18 17 7 20 14 20 23 25 17 19 
0 1 0 5 39 59 68 60 55 53 49 46 45 45 46 43 38 39 36 38 43 52 65 74 79 80 78 81 77 79 82 74 73 72 72 69 64 73 65 55 61 45 42 36 35 25 26 24 21 21 26 26 23 20 24 28 28 39 56 57 35 41 39 36 33 27 32 37 41 33 43 54 40 33 54 61 44 14 11 12 27 31 25 12 22 16 19 17 17 18 17 7 20 14 20 23 24 16 17 
0 0 0 5 39 59 68 60 55 53 49 46 45 45 46 43 38 40 43 56 70 82 91 91 92 90 83 85 83 82 88 82 84 84 81 75 71 71 51 51 54 43 39 39 44 37 33 25 22 20 25 25 22 18 22 26 26 36 53 55 33 39 37 34 30 25 30 37 41 33 43 54 40 33 54 61 44 14 11 12 27 31 25 12 22 16 19 17 17 18 17 7 20 14 19 23 24 16 17 
0 0 1 5 39 59 69 60 55 53 50 46 45 45 46 44 40 53 69 82 87 94 98 99 96 95 92 94 89 93 98 92 91 90 86 83 76 56 50 47 53 37 39 40 48 41 48 38 27 23 26 25 22 19 22 26 26 36 53 55 32 38 35 33 30 25 30 37 41 33 43 53 40 33 54 61 44 14 11 12 27 31 25 12 22 16 19 17 17 18 17 7 20 14 19 23 24 16 17 
0 0 1 5 39 59 68 60 55 53 50 46 45 46 47 46 56 80 89 95 97 100 103 106 104 98 95 99 95 98 104 99 97 97 87 91 81 60 48 48 46 38 42 34 43 43 56 49 42 39 38 31 27 24 28 32 29 37 53 55 32 38 35 34 30 25 31 37 41 33 43 53 40 33 54 61 44 14 11 12 27 31 25 12 22 16 19 17 17 18 17 7 20 14 19 23 24 16 17 
1 0 2 5 39 59 68 60 55 53 50 46 46 47 48 62 82 93 97 104 107 106 108 110 107 101 91 94 88 92 94 84 84 88 89 93 73 67 53 49 49 46 32 30 42 43 53 49 50 55 55 45 40 38 44 50 47 45 54 55 32 38 36 34 30 25 31 38 41 33 43 53 40 33 54 61 44 14 11 12 27 31 25 12 22 16 19 17 17 18 17 7 20 14 19 23 24 16 17 
3 0 2 5 39 59 68 60 55 53 50 47 48 47 61 87 95 100 103 110 110 111 108 110 101 93 83 87 83 87 87 79 71 82 86 89 66 67 64 51 54 39 29 37 40 34 44 48 53 57 54 49 47 46 55 64 64 69 69 67 34 38 36 34 30 26 31 38 41 33 43 53 40 33 54 61 44 14 11 12 27 31 25 12 22 16 19 17 17 18 17 7 20 14 19 23 24 16 17 
1 0 4 5 40 59 68 61 55 53 50 50 47 55 83 100 101 106 109 111 113 110 110 96 89 87 78 83 79 86 86 80 68 74 81 92 68 60 59 60 57 37 37 37 32 30 40 44 46 49 49 51 52 53 61 73 69 72 85 82 47 41 36 34 30 25 30 38 41 33 43 53 40 33 54 61 44 14 11 12 27 31 25 12 22 16 19 17 17 18 17 7 20 14 19 23 24 16 17 
0 0 0 5 39 60 68 61 55 53 52 50 49 75 100 106 106 112 113 114 114 114 105 89 83 89 81 79 77 87 83 72 62 66 69 90 75 67 53 61 62 46 40 29 34 39 41 36 34 40 45 48 46 50 56 79 73 71 86 86 56 59 40 34 30 25 31 38 41 33 44 53 40 33 54 61 44 14 11 12 27 31 25 12 22 16 19 17 17 18 17 7 20 14 19 23 24 16 17 
0 0 0 5 39 61 68 62 55 54 55 49 63 96 107 110 112 116 116 115 116 110 105 86 87 87 81 83 76 77 78 67 63 66 65 79 77 72 54 58 65 52 35 32 41 39 35 32 38 41 41 37 33 33 40 66 75 80 91 88 57 66 57 41 30 25 30 38 41 33 44 54 40 33 54 61 44 14 11 12 27 31 25 12 22 16 19 17 17 18 17 7 20 14 19 23 24 16 17 
0 0 0 5 39 59 68 61 55 56 54 53 84 105 110 115 116 122 117 119 112 107 103 90 83 87 83 81 73 70 72 66 64 67 58 71 76 78 63 60 69 55 39 36 38 35 36 43 42 32 34 39 36 31 35 48 64 81 98 93 69 71 58 56 39 25 30 38 41 33 44 53 41 33 54 61 44 14 11 12 27 31 25 12 22 16 19 17 17 18 17 7 20 14 19 23 24 16 17 
0 0 0 5 39 59 68 60 56 57 52 68 101 109 114 120 121 124 122 117 110 103 102 87 82 85 80 84 68 64 69 61 68 70 59 72 73 80 70 60 74 58 50 42 38 41 49 44 33 30 39 42 33 26 33 42 57 69 89 80 76 82 66 59 52 28 31 38 41 33 43 53 41 33 54 61 44 14 11 12 27 31 25 12 22 16 19 17 17 18 17 7 20 14 19 23 24 16 17 
0 0 0 5 39 59 68 60 58 56 55 89 108 113 119 126 125 128 119 113 105 106 98 86 79 82 81 81 66 66 66 53 74 73 60 65 71 79 81 68 74 66 62 50 48 50 44 37 34 36 46 39 29 25 35 45 56 62 77 77 68 71 75 65 58 34 31 38 41 33 43 53 41 33 55 61 44 14 11 12 27 31 25 12 22 16 19 17 17 18 17 7 20 14 19 23 24 16 17 
0 0 0 5 39 59 68 61 59 56 70 105 111 117 125 130 131 128 120 108 108 106 97 83 79 78 80 84 63 66 69 54 68 70 60 61 72 77 85 83 76 76 69 59 65 50 43 38 34 47 44 38 37 38 45 51 50 51 71 74 64 60 62 64 49 37 33 39 41 33 43 53 40 33 56 62 45 14 11 12 27 31 25 12 22 16 19 17 17 18 17 7 20 14 19 23 24 16 17 
0 0 0 5 39 59 68 63 58 59 91 112 115 122 129 134 132 132 118 110 107 103 95 81 76 81 78 82 67 67 69 58 66 67 67 61 71 78 76 87 88 86 82 76 74 60 49 42 47 40 42 44 48 50 53 55 44 50 62 72 58 52 53 55 40 36 34 40 42 33 43 53 40 33 55 62 48 14 11 12 27 31 25 12 22 16 19 17 17 18 17 7 20 14 19 23 24 16 17 
0 0 0 5 39 59 68 64 58 74 109 114 119 126 133 136 134 131 116 109 102 101 92 81 80 79 80 81 66 69 75 57 63 68 73 68 75 82 79 86 98 102 98 94 86 66 64 55 44 41 47 49 58 54 53 54 48 51 64 68 55 47 46 50 42 39 34 40 43 35 44 54 40 33 55 62 49 15 11 12 27 31 25 12 22 16 19 17 17 18 17 7 20 14 19 23 24 16 17 
0 0 0 5 39 59 71 63 62 96 115 116 123 131 138 137 132 129 114 103 97 97 90 85 80 85 75 80 71 68 68 55 67 69 68 64 71 84 83 88 100 107 101 99 90 83 74 73 54 37 50 45 43 47 49 51 51 57 63 65 46 47 49 49 44 42 38 43 46 38 48 57 43 34 55 62 50 14 11 13 27 31 25 12 22 16 19 17 17 18 17 7 20 14 19 23 24 16 17 
0 0 0 5 39 59 71 63 76 112 115 119 128 137 137 140 132 126 106 95 92 93 89 85 77 80 80 78 67 75 77 57 66 71 71 67 80 83 82 89 95 98 92 91 88 77 73 70 67 60 50 35 38 34 34 51 47 56 68 66 52 50 46 43 42 45 40 45 47 38 48 58 46 38 58 66 52 15 11 14 32 34 25 12 22 16 19 17 17 18 17 7 20 14 19 23 24 16 17 
0 0 0 5 39 61 71 65 96 116 115 122 131 140 141 134 126 116 98 95 90 90 88 76 77 89 82 77 74 75 71 61 74 77 69 66 75 78 81 93 92 81 85 84 82 73 64 63 70 69 63 50 36 29 41 48 36 50 68 71 52 48 45 49 44 41 42 45 48 39 48 58 46 40 61 72 62 17 11 14 35 41 25 12 22 16 19 17 17 18 17 7 20 14 19 23 24 16 17 
0 0 0 5 39 62 71 75 112 117 118 127 136 138 138 128 118 110 100 93 89 86 87 79 83 84 88 84 74 77 81 71 80 77 69 72 77 75 78 96 93 87 89 77 70 65 64 68 61 59 72 67 53 44 45 37 33 51 66 72 59 59 48 49 46 43 50 46 50 41 53 68 53 43 68 84 64 19 11 15 35 41 27 12 22 16 19 17 17 18 17 7 20 14 19 23 24 16 17 
0 0 0 5 39 63 71 92 118 119 124 131 137 140 137 127 120 109 94 91 87 88 87 83 79 85 85 84 76 76 86 80 86 78 72 82 81 75 76 89 94 88 82 67 57 53 50 56 54 56 61 66 70 60 44 33 38 50 59 65 52 61 58 55 52 46 60 52 52 51 71 87 63 46 76 97 80 20 12 16 35 37 32 12 22 16 19 17 17 18 17 7 20 14 19 23 24 16 17 
0 0 0 5 39 62 76 108 120 123 128 135 137 138 137 131 117 100 94 89 93 92 89 82 80 87 84 84 75 76 86 83 85 76 72 81 77 84 82 83 98 88 86 73 68 62 58 55 56 55 62 61 66 72 60 47 40 43 58 64 51 60 54 52 59 52 54 66 63 68 89 91 68 67 108 120 88 27 14 19 36 43 35 13 22 16 19 17 17 18 17 7 20 14 19 23 24 16 17 
0 0 0 5 41 62 86 117 122 129 133 133 137 139 140 128 109 99 91 93 93 98 88 82 84 89 83 84 73 79 90 82 77 70 75 87 76 84 85 83 102 84 82 79 71 63 56 47 46 50 56 59 62 65 63 56 44 45 61 66 54 53 52 44 53 57 60 72 81 79 89 89 84 89 110 125 99 65 15 22 45 61 43 15 22 16 19 17 17 18 17 7 20 14 19 23 24 16 17 
0 0 0 5 42 64 99 120 124 133 133 136 138 139 136 123 102 101 96 95 97 97 90 86 85 89 84 82 81 83 92 77 78 65 78 83 78 89 83 85 92 87 84 79 68 58 54 52 50 50 59 62 68 56 68 71 56 57 62 61 47 58 60 53 49 52 62 71 78 79 86 98 100 95 107 138 115 56 15 24 52 72 54 19 22 16 19 17 17 18 17 7 20 14 19 23 24 16 17 
0 0 0 5 43 67 111 122 127 135 134 135 137 136 131 111 100 99 97 98 100 98 93 86 92 86 80 84 80 83 94 74 71 64 86 79 78 87 83 93 90 83 86 76 70 61 56 58 54 51 59 56 57 55 61 68 61 67 69 63 55 65 65 61 48 53 55 68 77 82 86 102 104 101 109 134 101 36 16 26 59 75 58 24 28 17 20 17 17 18 17 7 20 14 19 23 24 16 17 
0 0 0 5 43 74 118 122 129 136 134 135 133 127 118 104 96 97 98 100 102 99 87 90 92 85 78 80 80 86 87 70 77 72 87 72 81 85 82 88 88 83 77 76 73 62 53 54 51 45 49 52 56 60 66 66 72 68 78 75 57 66 62 55 46 50 57 59 72 72 84 104 105 93 103 125 88 33 18 30 63 75 61 22 30 21 21 18 17 18 17 7 20 14 19 23 24 16 17 
0 0 0 5 43 81 123 125 131 133 135 136 132 125 111 99 97 96 96 102 101 94 89 89 95 84 75 84 80 81 87 70 70 76 88 72 83 79 86 79 85 77 64 84 72 53 56 56 49 56 60 65 61 52 57 67 71 74 85 85 69 74 67 60 48 44 60 59 73 70 92 116 101 86 92 113 104 30 20 34 69 91 66 23 33 22 22 20 19 18 17 7 20 14 19 23 24 16 17 
0 0 0 5 44 90 125 130 133 133 136 137 131 123 113 102 95 99 97 98 101 92 91 96 89 82 79 83 79 83 82 68 75 83 78 68 86 78 75 78 80 68 62 76 64 60 63 53 45 54 58 61 55 50 52 69 73 82 91 90 82 74 67 60 52 49 62 61 73 84 106 112 88 82 105 124 123 40 22 36 76 107 69 44 41 23 25 21 19 21 17 7 20 14 19 23 24 16 17 
0 0 0 6 45 98 127 134 132 130 134 134 131 122 114 108 100 99 99 98 92 93 94 96 88 83 78 84 78 77 84 75 76 84 73 73 80 74 74 80 73 62 61 65 73 59 55 47 44 48 61 61 56 56 57 67 65 86 96 94 72 72 66 55 52 51 62 67 74 91 99 99 88 91 106 125 118 50 24 36 91 99 74 58 36 24 28 23 20 20 19 8 20 14 19 23 24 16 17 
0 0 0 8 48 106 129 136 134 130 130 131 129 123 119 112 103 106 98 94 92 88 99 92 87 83 81 83 75 81 81 76 83 82 66 76 76 75 73 72 73 69 59 56 69 64 57 52 55 49 51 62 57 57 55 63 59 81 101 99 72 71 60 52 46 50 68 74 73 77 94 95 92 92 117 129 109 58 25 36 85 115 101 72 34 37 29 25 23 21 18 9 22 15 19 23 24 16 17 
0 0 0 9 52 112 132 138 137 132 128 129 126 122 121 118 105 104 98 90 89 95 95 89 85 86 81 82 77 79 83 82 76 72 73 85 72 70 67 75 71 58 56 60 71 63 53 54 56 44 53 59 66 59 54 67 67 74 98 99 77 69 61 54 52 51 68 76 67 77 90 92 97 93 137 139 112 62 26 35 104 120 99 52 71 60 33 26 25 24 20 9 21 16 21 23 24 16 17 
0 0 0 10 56 118 135 140 138 136 130 124 120 121 117 114 105 102 93 93 90 94 95 82 88 83 82 81 78 82 87 79 75 77 79 77 70 79 71 66 67 63 67 61 60 62 66 58 53 50 58 60 59 57 60 69 68 66 93 107 88 74 68 56 51 49 67 80 78 81 94 115 114 107 128 130 123 85 34 46 105 129 99 68 89 57 60 31 25 24 23 10 22 15 21 24 24 16 17 
0 0 0 10 60 121 138 140 133 135 132 123 117 118 117 114 97 100 97 92 95 94 87 86 86 87 77 80 80 83 86 83 72 74 86 86 71 74 68 67 77 65 62 56 62 69 67 54 51 54 58 56 60 63 66 75 68 80 95 106 83 79 68 52 49 50 63 81 79 85 102 119 111 105 117 112 123 91 48 56 91 125 99 72 85 70 86 47 30 24 23 12 24 16 20 24 25 16 17 
0 0 0 10 66 125 141 142 132 131 131 124 121 120 116 112 99 97 96 99 95 92 86 87 87 85 74 84 79 85 89 74 69 82 90 83 69 73 73 68 70 60 64 64 63 63 64 61 56 52 53 55 62 54 61 71 69 89 90 103 79 87 76 55 53 53 62 87 88 89 101 114 95 91 118 114 105 77 51 73 80 111 122 88 90 94 92 74 66 40 24 14 26 19 21 24 25 17 17 
0 0 0 10 72 126 142 146 132 130 127 126 123 124 120 109 97 102 99 97 96 84 89 86 89 79 79 81 81 88 82 70 81 76 83 83 73 67 69 66 77 69 59 59 58 68 70 60 51 51 56 60 63 53 67 75 72 83 96 111 93 98 79 56 51 58 66 88 90 81 92 102 95 102 125 121 88 59 42 57 79 111 102 80 92 107 97 102 98 87 58 22 28 21 24 25 25 17 17 
0 0 0 11 77 128 143 146 133 129 123 125 126 125 119 113 106 104 101 94 87 88 86 91 83 81 79 80 83 81 83 75 79 78 84 76 65 68 73 74 73 62 58 65 63 65 60 61 53 55 58 57 56 63 72 72 72 80 96 113 104 103 93 70 58 61 74 94 96 81 91 99 90 109 124 122 98 71 44 57 69 119 72 82 87 103 96 92 77 87 88 69 52 29 26 27 26 17 17 
0 0 0 11 82 130 144 144 134 129 122 120 123 124 120 111 108 107 93 94 87 90 94 88 84 83 78 85 77 81 85 70 88 80 73 75 72 78 67 68 70 69 62 60 58 61 62 64 51 50 55 57 56 70 70 68 73 73 89 111 98 104 110 85 72 65 81 97 94 85 87 93 98 83 103 128 112 61 44 51 58 119 70 74 80 89 92 69 77 72 68 80 93 70 44 32 28 18 17 
0 0 0 12 87 132 148 141 130 128 124 119 118 118 116 110 99 100 96 91 96 94 97 87 85 83 84 81 73 83 79 85 83 72 71 87 77 72 68 69 79 64 53 55 64 65 60 59 52 51 57 63 60 65 57 65 71 74 98 112 100 116 110 96 93 74 87 96 77 72 82 88 79 70 99 128 118 76 59 71 98 132 69 73 88 84 90 73 78 61 65 55 81 95 89 64 39 20 18 
0 0 0 13 91 132 148 138 122 124 125 121 119 117 112 106 102 95 96 96 95 97 87 87 81 86 80 72 79 76 87 86 66 77 81 84 80 77 75 68 71 59 62 62 67 58 60 56 53 52 58 56 56 54 59 62 70 73 95 105 106 121 95 87 93 77 94 90 72 68 75 84 66 63 102 113 116 59 58 66 105 112 70 74 85 76 79 76 74 59 62 42 56 66 95 100 77 37 21 
0 0 1 14 95 132 148 139 122 122 125 123 120 119 117 110 103 105 97 99 95 86 87 84 86 86 72 78 75 82 88 72 71 81 80 87 86 78 67 69 73 66 59 58 63 58 60 58 60 53 54 52 56 54 66 63 67 77 98 102 112 117 90 94 90 87 96 97 74 68 78 82 66 66 96 109 103 48 45 77 121 108 81 76 94 89 77 77 88 74 66 54 54 55 68 99 106 72 38 
0 0 1 15 97 133 147 139 126 122 123 123 123 119 117 117 106 107 102 93 93 84 90 87 92 81 75 81 78 86 76 74 76 79 88 93 78 70 70 77 71 62 55 63 61 60 63 56 55 55 56 57 52 46 56 57 67 78 91 97 98 107 97 95 75 76 90 110 87 77 74 79 66 71 92 110 102 52 35 57 104 105 97 96 94 87 76 78 94 95 85 70 65 63 72 85 107 93 61 
0 0 1 15 98 135 148 138 127 123 120 117 120 120 114 111 109 101 95 94 89 91 90 96 85 82 77 81 84 76 79 76 74 88 91 82 74 75 74 70 69 62 58 60 63 63 62 57 53 56 55 56 52 53 58 66 61 75 84 95 92 87 98 87 77 78 72 101 94 80 72 75 69 73 88 106 121 64 29 42 90 106 95 99 95 95 93 87 99 105 114 104 89 87 99 98 105 98 76 
0 0 1 15 98 135 150 140 127 126 124 118 115 117 116 108 101 99 91 92 91 91 92 88 83 84 79 86 79 75 86 70 82 89 76 80 86 79 76 70 73 63 60 57 62 62 63 60 52 50 53 54 53 55 59 75 59 82 82 99 88 90 99 88 80 78 54 101 99 88 90 89 81 74 89 114 121 48 27 40 83 100 84 77 90 89 91 91 94 85 100 96 94 100 107 102 107 96 81 
0 0 1 15 99 136 151 138 125 124 125 125 118 114 117 114 102 97 97 92 95 86 87 82 85 83 83 87 75 84 80 78 86 73 72 88 83 83 82 71 76 63 59 58 61 64 62 58 56 51 59 57 52 48 55 67 63 84 93 103 74 91 89 83 74 80 73 105 98 92 103 106 89 77 102 118 104 40 28 40 83 100 80 52 63 67 76 64 58 54 68 49 63 66 77 81 93 80 71 
0 0 1 15 100 136 149 139 128 122 119 121 122 121 115 112 111 102 100 97 89 86 84 86 85 88 87 84 79 81 84 85 72 68 82 86 83 86 81 72 75 61 60 65 59 60 60 56 55 53 59 55 52 45 61 77 64 85 111 114 85 87 78 81 86 95 92 106 99 90 94 105 90 86 107 104 102 48 31 39 80 93 80 49 50 60 66 64 57 55 58 34 55 59 60 67 75 59 59 
0 0 1 15 99 136 149 137 131 125 119 115 114 118 116 108 104 103 95 94 87 90 88 90 88 88 80 77 80 81 94 71 67 78 83 83 87 85 77 74 74 70 62 59 60 59 65 56 52 53 58 56 55 47 59 72 58 88 126 112 101 99 79 81 91 93 83 103 95 86 103 118 96 77 102 104 110 53 29 37 78 80 81 53 57 48 52 63 51 57 49 29 57 51 55 66 71 49 55 
0 0 1 14 97 135 150 136 128 126 121 115 111 109 110 107 96 95 90 88 91 89 95 90 86 83 75 83 82 89 84 67 77 80 82 80 82 85 81 85 83 69 60 58 65 61 64 57 51 55 60 59 57 50 54 64 67 91 130 117 109 98 92 88 83 77 92 105 101 97 113 121 100 87 111 126 100 49 27 36 75 71 70 54 59 48 48 55 53 57 37 33 53 43 57 65 61 45 54 
