P2
128 99
163
0 0 1 14 98 139 154 143 133 124 121 119 118 117 113 110 106 99 97 95 94 90 90 87 84 85 85 83 83 83 82 79 77 73 75 79 83 93 92 86 74 66 65 64 60 61 63 63 55 54 57 60 58 57 56 66 67 86 131 132 109 106 112 97 78 72 82 89 99 100 102 110 109 97 107 130 121 54 27 40 66 78 63 59 59 52 49 49 52 47 42 39 42 51 56 57 55 51 51 0 0 0 1 13 95 139 154 144 132 124 119 118 117 118 112 108 105 99 97 95 93 91 90 88 85 84 85 83 
0 0 1 13 95 139 154 144 132 124 119 118 117 118 112 108 105 99 97 95 93 91 90 88 85 84 85 83 82 82 82 78 74 71 73 77 83 93 97 90 80 69 66 65 61 61 61 63 56 56 58 59 56 53 60 66 66 82 123 129 112 113 119 112 83 68 72 77 86 89 94 102 101 101 106 123 135 70 29 40 64 76 62 54 50 53 52 47 48 47 43 40 42 48 54 56 52 50 49 0 0 0 0 12 90 139 155 146 132 123 118 118 117 117 113 107 105 99 97 95 93 90 90 89 87 84 85 83 
0 0 0 12 90 139 155 146 132 123 118 118 117 117 113 107 105 99 97 95 93 90 90 89 87 84 85 83 82 82 80 76 73 70 71 76 82 90 97 96 86 76 69 65 62 61 61 61 58 56 57 59 53 52 61 71 69 84 113 122 114 120 128 113 88 74 80 78 78 81 85 97 99 100 107 112 124 88 35 43 63 70 60 47 39 48 52 50 49 47 45 42 43 46 52 55 51 49 48 0 0 0 0 12 85 139 154 146 133 122 118 117 118 116 113 107 104 99 96 96 94 90 90 89 87 84 85 84 
0 0 0 12 85 139 154 146 133 122 118 117 118 116 113 107 104 99 96 96 94 90 90 89 87 84 85 84 83 82 79 75 74 71 71 75 78 88 94 99 95 84 73 66 62 61 61 60 59 56 56 59 53 51 61 79 76 87 107 114 114 121 127 116 98 82 89 95 90 88 86 92 96 98 102 110 116 85 35 45 64 64 58 47 39 42 47 51 52 48 46 44 44 46 49 54 53 51 49 0 0 0 0 11 80 138 154 147 134 123 118 117 117 116 112 108 105 101 96 96 95 92 90 89 87 86 86 85 
0 0 0 11 80 138 154 147 134 123 118 117 117 116 112 108 105 101 96 96 95 92 90 89 87 86 86 85 83 81 77 75 73 71 72 73 76 82 90 99 100 95 82 73 65 63 62 61 60 57 57 60 54 54 65 76 79 89 105 108 114 120 117 119 108 96 92 95 98 98 91 90 95 91 104 107 117 84 36 43 64 63 57 45 39 42 43 47 52 48 45 45 44 47 49 53 55 54 50 0 0 0 0 11 75 137 154 147 135 123 117 117 117 115 112 108 105 102 97 96 95 91 89 89 88 86 86 85 
0 0 0 11 75 137 154 147 135 123 117 117 117 115 112 108 105 102 97 96 95 91 89 89 88 86 86 85 84 80 77 75 72 72 72 72 74 79 83 95 102 103 96 85 76 72 69 66 62 58 56 62 59 63 71 70 76 94 108 105 108 118 112 117 110 102 91 86 94 97 100 95 102 88 100 102 109 84 38 44 67 68 55 45 39 42 43 44 49 48 43 44 45 48 50 52 55 56 51 0 0 0 0 11 70 135 153 147 135 122 116 117 116 113 111 109 105 102 98 96 95 93 90 90 88 87 86 85 
0 0 0 11 70 135 153 147 135 122 116 117 116 113 111 109 105 102 98 96 95 93 90 90 88 87 86 85 83 79 78 76 73 72 72 72 73 79 82 87 95 101 103 97 88 84 83 80 72 61 59 66 63 69 74 67 69 86 111 107 101 113 108 111 103 95 86 82 94 97 101 109 108 104 105 117 107 76 35 48 72 75 58 45 39 41 44 44 47 47 44 43 45 48 51 53 55 56 51 0 0 0 0 10 66 133 151 147 134 121 116 116 115 113 110 108 105 102 99 96 96 94 91 90 88 88 87 84 
0 0 0 10 66 133 151 147 134 121 116 116 115 113 110 108 105 102 99 96 96 94 91 90 88 88 87 84 82 81 79 76 75 72 72 72 73 79 82 84 84 89 93 98 96 94 92 93 87 82 76 77 78 74 74 70 67 76 105 110 98 108 104 104 102 97 85 79 93 97 98 106 109 111 118 125 111 46 33 52 82 85 62 46 40 42 44 44 47 46 45 43 46 49 52 53 55 55 50 0 0 0 0 9 61 130 150 146 134 123 117 115 114 112 109 108 105 101 99 97 96 94 92 90 88 88 87 84 
0 0 0 9 61 130 150 146 134 123 117 115 114 112 109 108 105 101 99 97 96 94 92 90 88 88 87 84 81 81 80 77 76 73 72 73 74 79 82 83 80 79 83 88 93 97 97 99 96 95 95 95 94 83 80 78 75 77 96 107 98 104 107 105 107 98 86 80 91 99 98 103 109 111 119 130 109 39 35 57 80 87 75 48 40 44 44 43 46 45 45 45 46 48 52 54 55 54 48 0 0 0 0 8 57 126 149 147 134 123 119 115 113 112 109 108 105 101 98 97 96 93 91 89 88 87 86 82 
0 0 0 8 57 126 149 147 134 123 119 115 113 112 109 108 105 101 98 97 96 93 91 89 88 87 86 82 82 81 80 78 77 73 72 74 74 79 82 82 79 76 77 82 84 88 92 95 91 91 95 97 98 92 80 84 83 86 101 104 98 104 108 107 106 94 87 83 90 100 106 106 105 109 126 146 116 42 38 63 96 107 79 47 41 45 43 42 46 46 45 44 44 47 51 54 56 53 46 0 0 0 0 7 54 123 147 148 135 123 119 116 113 112 108 107 105 101 99 97 96 92 91 89 89 88 84 82 
0 0 0 7 54 123 147 148 135 123 119 116 113 112 108 107 105 101 99 97 96 92 91 89 89 88 84 82 83 82 81 80 77 73 73 74 75 81 81 81 79 74 73 77 79 79 82 87 86 85 88 88 84 83 79 81 79 85 105 109 102 106 108 103 97 87 86 85 93 105 111 110 105 114 129 151 124 45 38 71 113 118 94 63 43 43 42 43 48 47 44 42 43 46 49 53 56 53 45 0 0 0 0 6 50 119 145 148 134 123 119 118 114 111 107 106 104 101 99 97 95 93 92 90 89 87 83 83 
0 0 0 6 50 119 145 148 134 123 119 118 114 111 107 106 104 101 99 97 95 93 92 90 89 87 83 83 83 82 82 81 77 73 73 74 75 80 82 82 78 73 70 71 74 76 77 79 78 78 80 80 77 78 78 80 77 80 99 105 102 101 104 99 92 84 83 87 96 108 113 114 107 117 127 156 129 48 38 75 113 121 98 77 45 42 40 43 49 48 43 39 43 46 50 53 56 53 44 0 0 0 0 5 46 115 143 148 134 123 120 118 115 110 106 104 103 100 100 98 96 94 93 91 89 85 83 83 
0 0 0 5 46 115 143 148 134 123 120 118 115 110 106 104 103 100 100 98 96 94 93 91 89 85 83 83 82 82 83 80 77 74 73 73 75 80 82 82 78 71 69 69 70 74 75 75 74 73 75 77 76 76 77 80 81 80 98 100 97 99 106 97 90 84 83 88 101 105 113 119 116 118 132 163 137 50 38 76 109 116 106 81 48 44 41 43 50 48 42 39 43 47 51 54 55 52 43 0 0 0 0 5 44 108 140 148 137 122 121 117 115 110 106 103 102 100 99 97 96 94 92 91 89 83 83 82 
0 0 0 5 44 108 140 148 137 122 121 117 115 110 106 103 102 100 99 97 96 94 92 91 89 83 83 82 81 82 83 80 77 74 74 73 75 80 81 81 78 71 69 69 69 72 73 74 72 71 74 75 74 75 76 78 84 82 99 99 92 92 100 100 85 84 85 87 96 99 107 117 119 114 132 163 137 52 33 75 114 118 108 83 57 48 42 42 49 48 43 40 44 48 52 55 55 50 40 0 0 0 0 5 42 100 137 147 139 123 121 117 113 110 106 102 102 100 99 97 96 93 91 90 86 83 83 81 
0 0 0 5 42 100 137 147 139 123 121 117 113 110 106 102 102 100 99 97 96 93 91 90 86 83 83 81 81 82 82 79 77 75 74 74 76 80 81 80 76 70 69 68 67 69 71 73 71 70 72 74 73 73 75 78 83 87 99 101 91 88 91 94 86 83 84 84 92 95 97 105 111 112 129 154 138 59 36 71 110 120 108 88 66 50 46 43 47 46 43 41 44 48 53 56 55 48 37 0 0 0 0 5 41 91 134 145 142 125 120 116 111 108 105 102 101 100 98 97 95 93 90 89 84 84 83 80 
0 0 0 5 41 91 134 145 142 125 120 116 111 108 105 102 101 100 98 97 95 93 90 89 84 84 83 80 81 82 81 79 77 75 74 75 76 80 80 79 75 70 69 68 66 66 68 71 69 69 71 74 73 73 75 77 78 92 100 103 92 87 89 87 79 83 88 87 90 93 93 100 101 102 113 147 129 71 48 73 94 120 102 90 72 56 50 46 47 45 43 41 43 49 53 56 54 46 34 0 0 0 0 5 41 82 132 141 144 128 120 116 110 107 102 101 101 98 98 97 95 92 91 87 82 83 82 80 
0 0 0 5 41 82 132 141 144 128 120 116 110 107 102 101 101 98 98 97 95 92 91 87 82 83 82 80 82 82 81 79 77 75 74 75 76 80 80 80 76 70 69 68 66 66 66 68 67 67 69 72 72 73 73 77 77 90 102 105 94 89 90 86 75 78 86 89 96 99 95 100 99 97 105 141 133 83 69 77 97 118 94 85 79 66 53 49 50 45 43 40 43 49 54 57 53 45 34 0 0 0 0 5 41 74 129 137 145 134 121 117 111 108 102 99 99 97 97 96 93 91 90 85 83 82 82 81 
0 0 0 5 41 74 129 137 145 134 121 117 111 108 102 99 99 97 97 96 93 91 90 85 83 82 82 81 82 81 81 79 76 74 74 76 76 80 80 80 77 72 71 70 67 67 67 67 65 65 66 68 70 73 72 76 77 86 106 107 93 89 90 87 76 74 80 85 92 100 101 101 103 99 101 139 136 92 80 78 106 117 86 83 80 72 62 52 50 45 42 39 42 49 54 56 53 43 37 0 0 0 0 5 40 68 125 133 144 139 125 118 112 109 103 99 98 96 96 95 92 91 90 84 84 82 81 83 
0 0 0 5 40 68 125 133 144 139 125 118 112 109 103 99 98 96 96 95 92 91 90 84 84 82 81 83 81 81 80 78 75 74 74 75 76 81 82 82 79 74 74 72 69 67 67 67 65 64 64 65 65 71 72 75 77 85 106 106 92 89 91 86 76 74 78 80 82 88 93 102 103 99 107 127 130 96 83 80 113 121 94 72 75 74 69 58 50 46 40 37 42 49 54 55 52 43 40 0 0 0 0 5 39 64 119 130 142 141 133 121 114 109 105 99 98 94 94 93 92 91 89 84 84 82 81 84 
0 0 0 5 39 64 119 130 142 141 133 121 114 109 105 99 98 94 94 93 92 91 89 84 84 82 81 84 81 80 80 77 75 73 74 75 76 82 84 83 80 75 74 73 71 68 67 68 66 65 66 66 65 67 72 76 78 85 105 104 92 90 92 85 76 73 76 79 80 84 83 92 102 105 108 122 126 88 84 89 117 120 103 78 72 74 71 62 50 44 38 37 41 48 53 54 50 45 38 0 0 0 0 5 38 62 108 128 139 142 138 125 116 110 105 100 98 94 93 92 91 90 87 86 85 83 84 84 
0 0 0 5 38 62 108 128 139 142 138 125 116 110 105 100 98 94 93 92 91 90 87 86 85 83 84 84 81 80 79 77 75 73 73 75 77 83 85 85 81 76 74 73 70 68 67 68 67 66 67 68 68 68 71 77 78 85 106 102 91 92 95 87 78 74 76 78 80 84 83 84 91 99 112 121 126 88 78 99 123 129 105 84 72 71 72 64 52 44 39 38 41 46 52 54 49 46 35 0 0 0 0 5 38 62 97 127 135 142 137 131 121 112 106 101 98 94 92 91 90 89 85 86 85 83 85 84 
0 0 0 5 38 62 97 127 135 142 137 131 121 112 106 101 98 94 92 91 90 89 85 86 85 83 85 84 81 80 79 77 75 73 74 75 77 83 85 85 80 76 75 73 69 67 67 68 68 66 66 68 68 69 72 77 78 84 104 102 90 91 95 90 81 79 79 78 81 83 83 84 82 90 105 121 126 92 67 100 117 126 111 86 76 70 70 66 54 46 42 40 41 45 51 50 50 43 32 0 0 0 0 5 38 62 86 125 131 139 137 134 125 116 107 102 98 95 93 91 90 87 83 85 83 84 85 83 
0 0 0 5 38 62 86 125 131 139 137 134 125 116 107 102 98 95 93 91 90 87 83 85 83 84 85 83 81 79 78 77 75 72 74 76 77 83 85 84 78 75 75 72 69 68 68 70 70 68 66 68 67 67 73 77 77 83 103 104 90 89 94 89 81 80 84 81 83 84 83 83 80 80 98 115 117 89 59 81 118 130 106 89 81 71 65 64 55 48 43 42 41 45 49 49 50 37 31 0 0 0 1 5 38 62 77 122 129 137 134 135 128 121 109 103 98 96 93 90 90 86 84 83 82 85 85 82 
0 0 1 5 38 62 77 122 129 137 134 135 128 121 109 103 98 96 93 90 90 86 84 83 82 85 85 82 80 79 77 77 74 72 74 76 79 84 85 83 78 75 75 71 70 69 69 72 71 69 68 69 68 67 72 79 77 81 102 103 92 87 91 88 80 78 83 85 87 86 83 83 80 74 97 115 115 89 54 60 101 115 101 89 86 74 64 61 54 49 45 41 43 45 47 51 47 33 31 0 1 0 0 5 38 62 72 115 127 134 133 133 131 124 111 105 99 96 94 91 89 84 84 82 81 84 83 81 
1 0 0 5 38 62 72 115 127 134 133 133 131 124 111 105 99 96 94 91 89 84 84 82 81 84 83 81 80 79 77 76 75 73 75 78 80 84 85 83 78 75 75 71 69 71 72 74 70 68 68 69 67 68 72 79 82 82 101 102 94 84 86 86 80 77 80 84 91 90 85 84 79 73 94 118 117 89 56 52 85 96 99 88 86 75 68 62 57 51 49 42 42 43 49 52 42 30 30 0 0 0 1 5 38 60 71 101 124 130 131 131 131 125 116 107 101 96 94 91 89 83 85 82 81 83 82 81 
0 0 1 5 38 60 71 101 124 130 131 131 131 125 116 107 101 96 94 91 89 83 85 82 81 83 82 81 80 79 78 77 76 74 77 78 80 85 86 83 78 75 74 72 69 71 73 75 69 67 68 68 66 69 72 77 84 85 101 103 95 85 84 82 78 76 80 84 90 91 88 86 80 73 89 115 120 91 58 54 72 88 93 89 83 73 65 61 60 54 50 43 41 44 54 50 36 29 30 0 0 0 1 5 38 60 71 86 123 126 129 130 130 127 118 110 103 97 94 90 87 83 85 82 83 84 83 81 
0 0 1 5 38 60 71 86 123 126 129 130 130 127 118 110 103 97 94 90 87 83 85 82 83 84 83 81 80 79 78 78 77 74 77 79 81 86 86 84 78 74 73 72 70 70 73 75 69 67 66 67 66 69 72 78 83 92 104 105 98 89 83 80 74 76 80 84 89 90 90 91 88 77 89 108 116 97 64 59 67 83 89 86 84 75 63 65 63 57 51 46 42 50 56 47 33 30 30 0 0 0 0 5 38 60 71 73 121 126 127 128 127 127 119 112 105 98 95 92 86 82 84 81 84 84 83 82 
0 0 0 5 38 60 71 73 121 126 127 128 127 127 119 112 105 98 95 92 86 82 84 81 84 84 83 82 81 79 78 77 76 75 77 79 82 86 87 84 78 74 72 71 70 70 71 72 68 66 66 67 66 69 74 80 85 95 111 107 101 96 84 79 73 75 79 84 89 89 89 93 96 88 94 104 115 100 69 65 68 78 92 79 81 82 68 64 72 62 53 49 50 57 56 43 36 33 31 0 0 0 1 5 38 59 71 67 113 125 126 127 124 125 121 112 107 100 97 94 87 83 83 82 84 83 83 81 
0 0 1 5 38 59 71 67 113 125 126 127 124 125 121 112 107 100 97 94 87 83 83 82 84 83 83 81 80 80 79 77 77 77 78 79 82 87 87 85 78 75 73 71 70 69 69 69 66 64 65 66 65 69 76 85 93 98 116 113 101 100 90 82 73 73 79 83 88 90 90 93 95 94 100 107 118 105 66 64 71 76 94 77 75 82 76 68 73 68 55 54 57 61 55 42 35 33 31 0 0 0 1 5 38 59 69 64 97 123 126 127 123 123 120 113 108 101 98 94 87 84 83 83 85 84 84 82 
0 0 1 5 38 59 69 64 97 123 126 127 123 123 120 113 108 101 98 94 87 84 83 83 85 84 84 82 82 82 81 79 78 77 78 80 83 87 87 84 79 75 73 72 69 68 68 68 64 63 64 65 65 69 80 89 99 104 116 119 102 102 95 85 74 72 79 84 89 91 91 92 93 91 98 105 117 106 64 57 64 69 92 74 67 71 73 69 69 66 61 61 64 62 49 44 37 34 31 0 0 0 1 5 38 59 68 65 78 120 125 126 122 120 118 115 107 103 99 95 87 85 84 84 85 86 86 84 
0 0 1 5 38 59 68 65 78 120 125 126 122 120 118 115 107 103 99 95 87 85 84 84 85 86 86 84 84 83 82 80 78 77 79 81 83 88 86 83 79 75 72 72 69 68 68 68 64 62 62 64 63 68 83 90 96 110 123 120 104 101 98 86 77 74 78 84 93 93 92 93 93 89 96 104 116 104 68 55 60 69 81 76 63 60 68 63 62 64 64 66 68 63 45 42 40 36 31 0 0 0 1 5 38 60 68 64 66 115 124 126 122 118 115 114 109 104 100 96 88 86 85 86 85 86 86 85 
0 0 1 5 38 60 68 64 66 115 124 126 122 118 115 114 109 104 100 96 88 86 85 86 85 86 86 85 84 83 82 81 78 77 79 82 83 87 86 82 79 75 72 71 68 69 68 67 63 62 62 63 63 66 82 89 90 110 129 122 110 99 97 86 78 77 78 82 90 93 94 94 94 90 95 105 117 103 72 54 61 73 72 72 63 55 61 62 63 63 63 69 69 63 50 43 39 37 34 0 0 0 0 5 38 60 68 63 60 101 123 127 123 117 114 112 112 105 102 97 89 87 86 88 86 86 85 85 
0 0 0 5 38 60 68 63 60 101 123 127 123 117 114 112 112 105 102 97 89 87 86 88 86 86 85 85 84 83 82 81 79 78 79 81 82 87 86 83 79 75 72 71 69 69 68 67 63 62 62 63 63 65 80 89 85 104 131 126 111 97 92 80 77 76 78 80 87 90 95 96 94 90 95 106 119 103 73 55 63 74 67 67 61 54 55 64 64 63 62 70 67 61 57 47 43 41 36 0 0 0 1 5 38 59 68 62 59 81 120 126 126 118 113 110 111 108 101 97 90 88 87 89 88 87 86 85 
0 0 1 5 38 59 68 62 59 81 120 126 126 118 113 110 111 108 101 97 90 88 87 89 88 87 86 85 85 83 81 81 80 79 79 80 81 86 86 83 79 75 73 71 69 69 68 67 63 62 62 63 64 65 78 88 83 99 130 126 109 92 86 76 72 74 77 78 86 89 94 96 94 90 95 108 119 101 70 57 65 72 66 65 59 57 55 62 64 64 63 69 62 60 63 52 48 46 39 0 0 0 1 5 38 59 68 62 59 64 115 124 129 122 113 108 109 108 103 96 89 89 87 90 89 88 87 86 
0 0 1 5 38 59 68 62 59 64 115 124 129 122 113 108 109 108 103 96 89 89 87 90 89 88 87 86 85 84 81 81 80 79 79 80 82 86 86 84 78 74 73 70 68 68 68 67 63 62 63 64 64 65 75 90 89 104 127 127 111 95 89 77 67 71 75 79 87 90 94 95 93 90 93 106 117 99 69 59 63 70 64 63 59 58 57 64 65 65 64 68 59 61 65 58 55 52 44 0 0 0 1 5 38 60 68 62 58 55 102 120 129 129 116 108 106 106 104 97 88 88 87 90 89 88 86 86 
0 0 1 5 38 60 68 62 58 55 102 120 129 129 116 108 106 106 104 97 88 88 87 90 89 88 86 86 86 84 82 81 80 79 80 82 82 86 86 84 78 73 72 70 68 68 68 67 63 62 63 65 65 65 74 93 96 113 126 129 115 102 96 85 69 64 74 80 90 94 95 96 92 88 91 107 118 99 72 60 60 67 66 62 59 57 57 66 68 65 63 63 58 58 57 61 63 58 49 0 0 0 1 5 38 60 68 62 56 54 81 117 125 134 120 109 105 103 103 99 88 87 86 90 90 89 87 85 
0 0 1 5 38 60 68 62 56 54 81 117 125 134 120 109 105 103 103 99 88 87 86 90 90 89 87 85 85 84 83 82 80 79 80 81 82 86 85 83 77 73 71 70 67 68 68 68 63 62 63 65 65 66 77 93 98 112 125 128 113 104 100 95 76 64 70 83 94 96 97 97 92 86 91 107 120 100 73 58 61 64 69 60 60 58 56 63 67 64 62 57 55 55 52 55 58 56 51 0 0 0 0 5 38 60 68 62 56 54 62 112 120 131 130 111 105 102 102 99 90 85 85 88 89 89 88 85 
0 0 0 5 38 60 68 62 56 54 62 112 120 131 130 111 105 102 102 99 90 85 85 88 89 89 88 85 85 84 83 82 80 79 80 81 82 86 85 83 78 72 70 68 67 68 68 67 64 61 62 65 64 69 81 90 94 109 124 122 108 104 102 98 80 69 71 81 93 98 99 98 94 87 92 109 122 100 67 58 64 63 70 61 62 59 56 60 60 57 58 52 52 53 51 53 52 52 51 0 0 0 0 5 38 59 68 62 56 53 53 101 116 125 136 118 107 101 101 99 91 86 85 88 87 88 88 87 
0 0 0 5 38 59 68 62 56 53 53 101 116 125 136 118 107 101 101 99 91 86 85 88 87 88 88 87 86 85 84 81 80 79 80 82 83 87 87 83 78 72 70 68 66 67 68 67 64 62 63 64 64 70 83 87 93 110 126 119 105 101 107 101 83 75 78 83 92 97 101 101 97 91 96 112 125 101 64 62 66 63 71 62 63 58 58 60 57 53 51 47 48 52 50 54 50 50 50 0 0 0 0 5 38 59 68 62 56 51 52 80 114 119 132 130 110 102 100 99 91 86 86 89 88 86 86 88 
0 0 0 5 38 59 68 62 56 51 52 80 114 119 132 130 110 102 100 99 91 86 86 89 88 86 86 88 86 85 84 82 81 80 80 82 84 87 87 84 78 72 70 68 66 67 67 67 65 63 63 64 64 70 82 86 93 110 127 119 105 99 107 104 89 86 88 86 95 99 102 106 103 97 102 117 124 101 64 69 69 66 73 65 61 59 58 61 57 51 45 41 44 53 51 55 51 49 48 0 0 0 0 5 38 59 68 62 56 51 52 61 110 115 125 136 117 105 100 98 91 86 85 88 88 86 84 86 
0 0 0 5 38 59 68 62 56 51 52 61 110 115 125 136 117 105 100 98 91 86 85 88 88 86 84 86 87 86 84 83 82 80 81 82 84 87 86 83 77 71 70 68 65 66 66 67 65 64 64 65 65 67 78 82 90 108 124 118 106 97 103 103 91 87 87 86 96 104 105 107 103 98 105 119 125 95 62 77 79 70 74 69 58 60 58 60 61 50 42 38 43 51 54 55 53 50 48 0 0 0 0 5 38 59 68 62 56 51 51 52 97 113 120 130 128 109 101 99 92 87 85 87 87 87 83 83 
0 0 0 5 38 59 68 62 56 51 51 52 97 113 120 130 128 109 101 99 92 87 85 87 87 87 83 83 86 88 86 84 82 81 82 83 85 86 84 83 77 71 69 67 65 65 65 67 64 64 65 65 65 65 74 78 82 103 127 120 105 95 99 102 89 85 87 89 96 107 108 105 100 98 106 124 126 90 62 81 92 84 77 74 53 63 60 60 65 54 42 37 40 49 54 55 53 51 49 0 0 0 0 5 38 59 68 62 56 51 50 51 73 111 115 125 134 115 105 101 92 88 86 87 85 86 85 83 
0 0 0 5 38 59 68 62 56 51 50 51 73 111 115 125 134 115 105 101 92 88 86 87 85 86 85 83 84 87 88 84 82 81 83 84 85 87 85 82 76 72 69 67 64 64 64 66 64 63 65 66 66 64 71 77 78 97 130 125 106 99 99 102 91 88 93 96 97 101 106 104 99 99 111 130 130 87 63 79 91 93 78 74 51 60 61 59 62 60 43 37 38 47 53 51 50 50 49 0 0 0 0 5 38 59 68 62 56 51 49 51 55 104 111 119 129 126 108 102 93 89 88 87 84 85 85 85 
0 0 0 5 38 59 68 62 56 51 49 51 55 104 111 119 129 126 108 102 93 89 88 87 84 85 85 85 85 87 88 86 83 81 83 84 84 87 85 82 76 72 69 67 64 63 64 65 63 62 64 66 65 64 68 77 74 92 125 127 108 98 101 103 92 88 91 91 90 90 101 99 95 95 114 133 132 80 59 74 86 92 74 68 49 53 62 59 60 63 45 39 38 44 51 50 48 45 47 0 0 0 0 5 38 59 68 62 56 51 50 51 50 84 109 114 123 130 114 103 95 91 89 88 85 83 85 85 
0 0 0 5 38 59 68 62 56 51 50 51 50 84 109 114 123 130 114 103 95 91 89 88 85 83 85 85 86 86 88 86 84 82 83 84 85 88 85 82 77 72 71 68 65 63 65 64 63 62 64 66 65 64 66 77 74 86 117 122 103 94 98 98 91 87 89 90 88 86 98 97 92 93 115 131 133 72 44 62 82 87 76 60 48 55 64 67 63 62 51 42 42 43 49 50 47 40 42 0 0 0 0 5 38 59 68 62 56 51 50 49 50 61 105 111 119 125 125 106 96 92 89 89 86 84 84 84 
0 0 0 5 38 59 68 62 56 51 50 49 50 61 105 111 119 125 125 106 96 92 89 89 86 84 84 84 85 85 86 86 83 81 83 84 86 88 86 82 77 73 72 70 67 64 64 65 62 62 64 66 64 64 65 76 75 85 114 117 98 92 95 93 91 90 91 93 94 88 96 99 94 96 111 132 130 76 36 46 73 82 73 52 47 57 63 72 67 65 57 49 44 42 49 50 51 39 39 0 0 0 0 5 38 59 68 62 56 51 50 48 50 51 90 109 114 119 128 115 99 93 90 90 86 85 84 84 
0 0 0 5 38 59 68 62 56 51 50 48 50 51 90 109 114 119 128 115 99 93 90 90 86 85 84 84 84 84 84 85 83 81 83 84 87 89 87 83 77 74 73 72 68 66 65 66 63 63 64 65 64 63 64 73 75 85 112 116 92 89 91 87 82 87 96 97 100 93 96 101 97 97 106 136 122 81 41 42 58 74 62 45 47 54 54 69 59 55 59 56 43 43 49 50 53 47 38 0 0 0 0 5 38 59 68 62 56 51 49 48 49 50 64 107 111 114 121 126 104 95 91 91 87 85 84 84 
0 0 0 5 38 59 68 62 56 51 49 48 49 50 64 107 111 114 121 126 104 95 91 91 87 85 84 84 83 82 83 84 83 82 83 85 86 89 89 85 79 75 74 73 69 67 67 67 64 64 64 64 63 63 64 70 75 83 111 115 90 84 87 83 78 83 95 98 105 102 99 102 100 100 108 138 115 77 45 36 47 57 46 39 43 47 45 53 58 48 52 51 47 52 56 50 51 54 42 0 0 0 0 5 38 59 68 62 56 51 49 48 48 50 49 93 109 109 116 124 116 98 92 92 88 86 84 83 
0 0 0 5 38 59 68 62 56 51 49 48 48 50 49 93 109 109 116 124 116 98 92 92 88 86 84 83 82 80 81 82 82 82 83 84 86 89 90 86 81 77 76 74 70 67 67 67 63 63 65 65 63 62 64 68 73 82 107 112 94 83 85 81 75 79 89 97 103 110 108 105 104 102 112 132 113 71 44 32 41 45 39 37 40 41 40 40 50 53 50 45 49 56 71 56 50 50 47 0 0 0 0 5 38 59 68 62 56 51 49 48 48 49 47 64 107 105 112 117 126 106 94 92 90 87 85 83 
0 0 0 5 38 59 68 62 56 51 49 48 48 49 47 64 107 105 112 117 126 106 94 92 90 87 85 83 82 80 80 81 82 81 83 84 85 89 89 87 82 79 78 76 71 68 66 66 63 62 64 65 64 62 64 68 70 82 101 108 96 84 85 81 72 73 79 87 95 109 113 112 109 107 111 124 113 69 40 30 37 42 37 36 38 39 39 39 43 51 50 44 49 53 70 58 56 51 49 0 0 0 0 5 38 59 68 62 56 51 49 48 48 48 48 47 90 105 107 113 121 123 99 93 92 88 87 85 
0 0 0 5 38 59 68 62 56 51 49 48 48 48 48 47 90 105 107 113 121 123 99 93 92 88 87 85 82 80 80 80 80 80 82 84 85 89 88 87 83 81 80 78 73 68 66 66 63 62 63 64 63 63 65 68 69 81 102 105 96 86 86 81 73 72 74 77 92 108 114 118 114 111 109 118 116 65 35 30 37 41 37 36 37 38 38 38 41 44 49 45 45 43 56 57 53 55 50 0 0 0 0 5 38 59 68 62 56 51 49 48 48 48 47 45 60 103 104 110 114 129 112 94 95 91 88 86 
0 0 0 5 38 59 68 62 56 51 49 48 48 48 47 45 60 103 104 110 114 129 112 94 95 91 88 86 83 80 81 81 79 79 82 84 85 90 89 87 84 81 81 79 75 69 67 66 63 61 62 63 63 64 65 68 69 78 100 105 94 88 90 81 75 70 74 77 95 111 117 127 118 107 104 114 116 63 29 29 37 41 37 36 37 37 38 38 40 41 43 42 36 34 44 53 52 51 54 0 0 0 0 5 38 59 68 62 56 51 49 48 48 48 45 46 45 84 105 105 110 121 128 100 96 93 90 87 
0 0 0 5 38 59 68 62 56 51 49 48 48 48 45 46 45 84 105 105 110 121 128 100 96 93 90 87 86 82 82 81 79 78 81 83 84 89 90 88 84 81 81 80 76 69 67 67 63 61 62 63 63 64 65 68 69 77 97 102 94 86 95 88 77 70 73 81 105 115 119 126 117 104 102 110 109 66 27 29 36 41 37 36 36 36 37 38 40 38 35 31 31 32 37 47 49 50 53 0 0 0 0 5 38 59 68 62 56 51 49 48 48 48 45 46 44 53 101 102 104 115 127 117 98 96 92 87 
0 0 0 5 38 59 68 62 56 51 49 48 48 48 45 46 44 53 101 102 104 115 127 117 98 96 92 87 87 84 82 81 79 77 80 83 84 88 88 88 83 81 81 80 76 69 69 70 64 62 63 63 63 63 65 68 69 76 96 98 89 88 95 93 81 75 75 91 113 117 118 122 118 104 103 107 101 69 27 29 35 40 35 35 37 34 35 36 39 36 31 24 27 29 32 40 46 48 53 0 0 0 0 5 38 59 68 62 56 51 49 48 48 48 45 44 45 41 76 104 99 109 119 126 109 99 96 89 
0 0 0 5 38 59 68 62 56 51 49 48 48 48 45 44 45 41 76 104 99 109 119 126 109 99 96 89 87 86 83 82 79 77 77 81 83 87 86 86 83 81 80 79 76 72 72 73 66 61 62 63 63 64 64 68 69 76 96 98 85 89 95 95 83 78 83 100 115 115 116 124 128 113 106 107 97 69 28 29 36 39 34 35 36 34 33 34 36 34 28 24 25 28 29 34 38 42 44 0 0 0 0 5 38 59 68 62 56 51 49 48 48 48 45 44 44 41 47 95 101 101 113 120 123 104 101 93 
0 0 0 5 38 59 68 62 56 51 49 48 48 48 45 44 44 41 47 95 101 101 113 120 123 104 101 93 87 86 84 82 80 77 77 79 81 85 86 85 83 80 79 77 75 74 76 75 70 64 63 64 63 64 64 69 70 76 96 99 88 89 93 93 85 79 89 106 114 114 117 126 133 119 111 109 95 68 28 29 35 39 33 33 34 33 32 31 34 32 27 24 24 28 29 31 32 37 40 0 0 0 0 5 38 59 68 62 56 51 49 48 48 48 45 44 42 42 40 63 103 95 106 115 122 118 105 100 
0 0 0 5 38 59 68 62 56 51 49 48 48 48 45 44 42 42 40 63 103 95 106 115 122 118 105 100 91 87 85 82 81 77 78 78 79 84 84 84 82 80 78 76 74 76 77 77 74 69 65 65 65 65 65 70 71 77 96 101 91 89 91 87 85 84 96 108 112 112 112 124 129 118 112 113 95 66 28 28 34 38 32 32 33 31 30 30 32 30 26 24 25 28 29 29 30 31 38 0 0 0 0 5 38 59 68 62 56 51 49 48 48 48 45 44 42 41 41 42 81 97 97 110 116 125 113 104 
0 0 0 5 38 59 68 62 56 51 49 48 48 48 45 44 42 41 41 42 81 97 97 110 116 125 113 104 99 91 86 82 81 77 77 78 79 83 84 83 80 79 78 79 76 76 77 77 75 73 71 69 67 67 69 72 71 78 100 102 95 89 90 86 82 86 101 107 112 106 106 121 130 120 111 113 94 63 27 28 34 37 31 31 30 29 28 29 31 27 24 24 25 28 29 29 29 30 33 0 0 0 0 5 38 59 68 62 56 51 49 48 48 48 45 44 42 39 41 39 48 93 93 103 112 118 124 108 
0 0 0 5 38 59 68 62 56 51 49 48 48 48 45 44 42 39 41 39 48 93 93 103 112 118 124 108 106 97 90 83 81 78 76 78 78 82 83 81 78 78 80 80 77 77 78 78 75 74 75 76 72 71 71 74 74 79 100 99 94 89 90 88 84 88 99 103 106 103 105 119 130 120 111 116 92 59 26 27 35 37 32 31 30 28 27 27 29 26 24 23 25 28 30 29 28 28 30 0 0 0 0 5 38 59 68 62 56 51 49 48 48 48 45 44 42 39 39 41 38 60 93 95 106 110 120 119 
0 0 0 5 38 59 68 62 56 51 49 48 48 48 45 44 42 39 39 41 38 60 93 95 106 110 120 119 111 103 93 85 81 77 76 76 77 82 83 82 79 79 80 80 79 77 78 79 77 76 76 77 75 75 75 79 80 85 100 99 94 86 89 96 92 87 92 99 103 102 105 114 129 123 112 117 92 57 24 26 35 38 32 31 31 29 27 27 27 26 25 23 25 28 30 31 29 28 29 0 0 0 0 5 38 59 68 62 56 51 49 48 48 48 45 44 42 39 38 40 39 38 72 90 99 105 111 120 
0 0 0 5 38 59 68 62 56 51 49 48 48 48 45 44 42 39 38 40 39 38 72 90 99 105 111 120 119 111 99 91 84 78 76 77 78 83 85 84 80 79 80 80 79 79 78 79 78 78 78 75 72 72 74 80 82 89 104 106 99 92 95 104 94 85 88 95 100 102 109 115 126 128 115 117 93 57 24 27 35 38 32 32 32 30 28 27 27 25 26 24 25 28 31 32 31 29 29 0 0 0 0 5 38 59 68 62 56 51 50 48 48 48 45 44 42 39 38 37 40 37 43 77 90 101 105 113 
0 0 0 5 38 59 68 62 56 51 50 48 48 48 45 44 42 39 38 37 40 37 43 77 90 101 105 113 122 119 110 99 90 83 79 78 79 83 83 82 79 78 79 80 80 81 80 79 77 78 77 76 74 73 73 79 77 86 104 107 97 96 97 99 92 83 88 93 96 102 110 119 127 128 118 116 99 57 25 27 35 38 33 32 33 31 29 28 29 27 26 25 26 28 31 32 31 30 30 0 0 0 0 5 38 59 68 62 56 51 50 48 48 48 45 44 42 39 38 37 37 38 37 48 75 94 104 108 
0 0 0 5 38 59 68 62 56 51 50 48 48 48 45 44 42 39 38 37 37 38 37 48 75 94 104 108 115 122 123 112 99 91 85 80 79 83 82 81 78 76 78 79 81 82 82 79 77 76 78 78 78 78 77 81 80 86 102 107 92 92 95 94 88 86 87 93 97 104 111 126 130 124 117 116 105 54 25 27 35 39 34 34 34 32 30 29 30 28 26 26 27 29 31 30 30 29 30 0 0 0 0 5 38 59 68 62 56 51 50 48 48 48 45 44 42 39 38 37 36 36 37 37 50 75 98 105 
0 0 0 5 38 59 68 62 56 51 50 48 48 48 45 44 42 39 38 37 36 36 37 37 50 75 98 105 109 114 122 123 114 101 94 87 83 85 83 81 78 75 76 77 79 81 82 80 77 76 78 81 81 80 80 82 84 88 103 107 90 90 94 94 86 88 90 95 99 106 112 128 134 122 115 117 109 49 24 28 37 40 35 35 35 33 31 30 31 29 27 26 27 30 31 31 29 28 29 0 0 0 0 5 38 59 68 62 56 51 50 48 48 48 45 44 42 39 38 37 36 35 36 36 36 50 77 100 
0 0 0 5 38 59 68 62 56 51 50 48 48 48 45 44 42 39 38 37 36 35 36 36 36 50 77 100 105 109 115 120 123 114 104 98 91 90 88 83 79 75 75 76 77 80 81 82 79 78 81 83 81 81 82 83 85 91 105 105 92 91 96 96 86 87 94 99 107 111 118 129 137 122 115 122 110 43 24 30 38 41 36 35 35 33 31 31 32 30 28 26 28 31 33 33 31 29 27 0 0 0 0 5 38 59 68 62 56 51 50 48 48 48 45 44 42 39 38 37 36 35 35 34 35 37 48 79 
0 0 0 5 38 59 68 62 56 51 50 48 48 48 45 44 42 39 38 37 36 35 35 34 35 37 48 79 101 103 107 114 118 120 116 108 101 99 95 89 82 78 78 77 76 79 81 84 83 80 82 83 82 81 82 83 85 92 107 106 95 93 99 93 85 87 97 102 116 123 129 135 137 123 122 124 104 38 24 30 39 42 35 36 35 33 31 31 32 31 28 27 27 31 34 34 32 31 29 0 0 0 0 5 38 59 68 62 56 51 49 48 48 48 45 44 42 39 38 37 36 35 35 33 33 36 36 45 
0 0 0 5 38 59 68 62 56 51 49 48 48 48 45 44 42 39 38 37 36 35 35 33 33 36 36 45 79 100 101 107 112 115 119 118 111 109 104 97 88 82 81 80 78 80 81 84 83 82 83 84 83 82 82 84 83 90 107 108 99 99 101 94 82 90 99 106 120 132 138 140 137 127 128 120 91 33 24 30 38 41 35 35 35 33 31 31 33 31 29 28 28 31 33 34 33 31 31 0 0 0 0 5 38 59 68 62 56 51 49 48 48 48 45 44 42 39 38 37 36 35 35 33 32 33 36 35 
0 0 0 5 38 59 68 62 56 51 49 48 48 48 45 44 42 39 38 37 36 35 35 33 32 33 36 35 42 74 96 100 106 109 113 121 120 118 112 106 98 92 88 86 84 82 82 84 82 83 84 84 83 81 81 84 81 88 105 107 99 102 105 96 86 96 99 106 121 134 142 143 141 136 125 110 78 31 25 29 37 41 34 34 34 33 31 30 32 31 29 28 29 31 33 34 33 31 31 0 0 0 0 5 38 59 68 62 56 51 49 48 48 48 45 44 42 39 38 37 36 35 35 33 32 33 33 35 
0 0 0 5 38 59 68 62 56 51 49 48 48 48 45 44 42 39 38 37 36 35 35 33 32 33 33 35 35 39 68 91 98 104 109 116 121 126 124 117 108 101 97 93 90 87 86 86 83 83 84 84 83 80 79 83 79 86 103 106 97 100 105 97 92 100 100 107 121 133 144 149 144 133 116 96 66 30 24 28 36 39 33 32 32 31 30 30 31 29 28 27 29 31 33 34 33 32 31 0 0 0 0 5 38 59 68 62 56 51 49 48 48 48 45 44 42 39 38 37 36 35 35 33 32 33 32 32 
0 0 0 5 38 59 68 62 56 51 49 48 48 48 45 44 42 39 38 37 36 35 35 33 32 33 32 32 34 35 38 62 87 97 102 109 116 123 127 126 120 111 105 100 95 92 90 89 86 85 85 85 83 81 79 82 79 86 103 105 96 98 105 100 95 102 109 113 126 138 148 154 142 122 103 79 61 30 23 27 34 37 31 30 30 29 28 28 29 28 27 26 27 30 32 33 33 32 32 0 0 0 0 5 38 59 68 62 56 51 49 48 48 48 45 44 42 39 38 37 36 35 35 33 32 33 33 32 
0 0 0 5 38 59 68 62 56 51 49 48 48 48 45 44 42 39 38 37 36 35 35 33 32 33 33 32 32 34 34 35 54 83 97 101 110 117 122 124 123 121 116 111 105 99 96 94 90 88 88 88 84 83 82 82 80 88 104 106 98 99 107 106 100 104 116 127 140 149 154 153 134 110 84 68 60 29 21 24 31 35 29 27 28 26 26 26 28 27 25 25 26 28 31 32 31 30 31 0 0 0 0 5 38 59 68 62 56 51 49 48 48 48 45 44 42 39 38 37 36 35 35 33 32 33 32 32 
0 0 0 5 38 59 68 62 56 51 49 48 48 48 45 44 42 39 38 37 36 35 35 33 32 33 32 32 32 31 33 33 33 46 77 96 104 113 118 119 120 121 122 122 118 112 107 103 98 94 92 91 87 85 85 86 84 90 106 108 102 103 110 113 109 113 125 139 152 156 156 145 121 95 68 66 59 27 19 21 30 34 28 26 25 24 23 23 25 24 23 23 24 28 30 31 30 29 30 0 0 0 1 5 38 59 68 62 56 51 49 48 48 48 45 44 42 39 38 37 36 35 35 33 32 33 33 32 
0 0 1 5 38 59 68 62 56 51 49 48 48 48 45 44 42 39 38 37 36 35 35 33 32 33 33 32 32 32 31 31 32 30 41 69 91 106 111 115 116 116 119 121 122 122 120 117 110 103 98 95 92 91 90 94 92 95 109 109 104 107 115 120 120 124 135 146 154 155 152 132 106 77 58 65 58 26 17 19 27 33 26 25 24 22 21 21 23 22 21 21 23 26 29 31 30 29 29 0 0 0 0 5 38 59 68 62 56 51 49 48 48 48 45 44 42 39 38 37 36 35 35 33 32 33 33 32 
0 0 0 5 38 59 68 62 56 51 49 48 48 48 45 44 42 39 38 37 36 35 35 33 32 33 33 32 32 32 31 30 29 30 31 37 58 88 103 108 110 111 113 115 117 120 123 125 123 118 111 102 98 97 98 100 98 103 117 118 112 114 122 126 127 132 142 147 152 152 143 116 91 60 54 63 56 24 15 18 27 32 26 24 23 21 20 20 22 20 19 18 20 24 28 29 29 28 29 0 0 0 0 5 38 59 68 62 56 51 49 48 48 48 45 44 42 39 38 37 36 35 35 33 32 33 32 32 
0 0 0 5 38 59 68 62 56 51 49 48 48 48 45 44 42 39 38 37 36 35 35 33 32 33 32 32 32 31 31 30 29 27 30 33 35 52 77 95 101 104 107 109 111 113 116 119 121 123 124 117 111 106 105 107 107 113 127 129 122 121 127 130 132 139 145 147 149 147 128 95 70 49 53 61 55 23 14 18 27 32 26 24 23 21 19 19 21 20 18 17 18 22 25 27 27 27 28 0 0 0 0 5 38 59 68 62 56 51 49 48 48 48 45 44 42 39 38 37 36 35 34 33 32 32 32 32 
0 0 0 5 38 59 68 62 56 51 49 48 48 48 45 44 42 39 38 37 36 35 34 33 32 32 32 32 32 31 31 30 29 27 28 31 34 39 44 60 78 90 98 102 103 106 109 111 112 116 120 123 122 119 116 117 117 125 138 139 133 130 135 136 137 139 143 146 146 139 106 71 55 46 51 59 54 23 14 17 26 31 25 24 24 22 20 20 21 20 19 17 17 21 23 25 24 24 25 0 0 0 0 5 38 59 68 62 56 51 49 48 48 48 45 44 42 39 38 37 36 35 34 33 32 32 32 32 
0 0 0 5 38 59 68 62 56 51 49 48 48 48 45 44 42 39 38 37 36 35 34 33 32 32 32 32 32 31 31 30 29 27 28 29 31 39 39 38 41 56 76 88 93 98 101 104 104 108 113 117 118 120 122 124 124 131 144 145 139 138 141 140 136 135 139 139 134 118 76 56 50 45 49 58 53 21 10 14 24 29 23 22 22 20 19 19 21 20 19 19 19 21 23 24 23 22 23 0 0 0 1 5 38 59 68 62 56 51 49 48 48 48 45 44 42 39 38 37 36 35 34 33 32 32 32 32 
0 0 1 5 38 59 68 62 56 51 49 48 48 48 45 44 42 39 38 37 36 35 34 33 32 32 32 32 32 31 31 30 29 27 28 30 31 36 37 37 31 29 38 54 68 80 88 94 95 98 103 108 110 111 114 120 121 126 137 137 131 136 136 132 127 126 125 111 96 76 54 51 50 44 49 57 51 20 10 14 24 29 23 22 21 19 18 17 19 17 15 16 19 24 25 25 23 22 22 0 0 0 1 5 38 59 68 62 56 51 49 48 48 48 45 44 42 39 38 37 36 35 34 33 32 32 32 32 
0 0 1 5 38 59 68 62 56 51 49 48 48 48 45 44 42 39 38 37 36 35 34 33 32 32 32 32 31 31 31 30 29 27 28 30 32 37 37 34 30 28 27 28 33 43 56 68 74 79 86 93 97 100 103 109 110 115 126 124 116 123 123 118 109 98 83 62 52 47 46 50 49 44 47 55 51 20 9 14 24 29 23 22 21 19 18 17 19 17 15 14 15 20 26 26 25 24 23 0 0 0 1 5 38 60 68 62 56 51 49 48 48 48 45 44 42 39 38 37 36 35 34 33 32 32 32 32 
0 0 1 5 38 60 68 62 56 51 49 48 48 48 45 44 42 39 38 37 36 35 34 33 32 32 32 32 32 31 31 30 29 27 29 31 32 38 40 39 32 26 26 26 25 25 28 33 37 44 52 61 67 73 78 85 88 94 109 108 98 106 105 94 74 55 44 40 42 43 44 46 44 39 45 55 51 20 9 14 24 29 23 22 21 19 18 17 19 17 15 14 15 18 21 24 23 22 22 0 0 0 0 5 38 60 68 62 56 51 50 48 48 48 45 44 42 39 38 37 36 35 35 34 33 34 35 36 
0 0 0 5 38 60 68 62 56 51 50 48 48 48 45 44 42 39 38 37 36 35 35 34 33 34 35 36 37 39 38 37 36 33 35 37 42 52 57 56 48 37 28 24 23 24 26 26 23 24 26 30 31 33 36 43 47 57 77 78 65 75 70 58 41 33 34 37 41 41 41 44 43 38 45 55 51 20 9 14 24 29 23 22 21 19 18 17 18 17 15 14 15 18 20 21 22 21 22 0 0 0 1 5 38 59 68 62 56 51 50 48 48 48 45 44 42 39 39 38 37 36 38 42 46 52 58 62 
0 0 1 5 38 59 68 62 56 51 50 48 48 48 45 44 42 39 39 38 37 36 38 42 46 52 58 62 63 63 63 61 57 53 54 56 62 70 69 63 55 48 40 30 24 24 24 26 24 23 25 26 25 23 24 27 28 37 58 60 48 49 50 44 33 30 33 35 38 39 40 43 43 39 45 54 51 20 9 14 24 29 23 22 21 19 18 17 18 17 15 14 15 18 20 21 20 19 20 0 0 0 1 5 38 59 68 62 56 51 50 48 48 48 45 44 42 39 39 39 44 52 63 73 78 81 83 82 
0 0 1 5 38 59 68 62 56 51 50 48 48 48 45 44 42 39 39 39 44 52 63 73 78 81 83 82 81 80 80 79 77 72 70 70 71 74 68 60 51 46 45 40 33 27 25 26 22 21 23 25 24 24 24 28 28 36 57 59 46 46 48 43 32 28 30 32 38 39 40 43 43 38 45 55 51 20 9 14 24 29 23 22 21 19 18 17 18 17 15 14 15 18 20 21 20 18 18 0 0 0 1 5 38 60 68 62 56 51 49 48 48 48 45 44 43 40 45 59 72 83 90 91 90 91 90 87 
0 0 1 5 38 60 68 62 56 51 49 48 48 48 45 44 43 40 45 59 72 83 90 91 90 91 90 87 84 83 86 87 87 85 81 75 74 71 60 52 46 42 42 42 42 39 32 27 23 21 22 24 23 22 22 25 25 33 55 57 44 44 46 41 29 26 29 32 38 39 40 43 43 39 45 55 51 20 9 14 24 29 23 22 21 19 18 17 18 17 15 14 15 18 20 21 19 18 18 0 0 0 1 5 38 60 68 62 56 51 50 48 48 48 46 45 45 54 72 86 92 95 97 97 97 97 95 94 
0 0 1 5 38 60 68 62 56 51 50 48 48 48 46 45 45 54 72 86 92 95 97 97 97 97 95 94 93 94 95 96 95 92 87 83 78 63 53 48 43 40 40 40 44 46 46 40 29 24 23 24 24 23 23 25 25 33 54 56 44 42 45 40 29 26 29 32 38 39 40 43 43 39 45 55 51 20 9 14 24 29 23 22 21 19 18 17 18 17 15 14 15 18 20 21 19 18 18 0 0 0 1 5 38 60 68 62 56 51 50 48 48 49 47 47 61 81 92 97 100 103 105 105 105 102 99 98 
0 0 1 5 38 60 68 62 56 51 50 48 48 49 47 47 61 81 92 97 100 103 105 105 105 102 99 98 98 101 102 103 100 96 90 91 81 62 52 48 42 39 39 39 42 46 50 53 47 39 34 32 29 27 29 31 28 34 55 56 44 42 45 40 29 27 29 32 38 39 40 43 43 38 45 55 51 20 9 14 24 29 23 22 21 19 18 17 18 17 15 14 15 18 20 21 19 18 18 0 1 1 1 5 38 60 68 62 56 51 50 49 49 49 48 63 86 95 100 105 108 109 111 109 107 103 97 93 
1 1 1 5 38 60 68 62 56 51 50 49 49 49 48 63 86 95 100 105 108 109 111 109 107 103 97 93 91 90 91 90 89 88 89 90 77 70 59 51 44 39 38 37 37 43 52 55 53 52 50 49 44 43 47 51 48 43 56 57 44 42 45 41 30 26 30 33 38 39 40 43 43 38 45 54 51 20 9 14 24 29 23 22 21 19 18 17 18 17 15 14 15 18 20 21 19 18 18 0 1 1 1 5 38 60 68 62 56 51 50 49 50 49 60 88 100 102 108 111 112 112 111 109 99 94 89 86 
1 1 1 5 38 60 68 62 56 51 50 49 50 49 60 88 100 102 108 111 112 112 111 109 99 94 89 86 85 85 85 81 78 79 84 89 70 69 67 56 45 39 37 36 34 37 45 53 54 53 53 53 49 49 57 66 64 65 72 69 45 43 45 41 30 26 30 33 38 39 40 43 43 38 45 54 51 20 9 14 24 29 23 22 21 19 18 17 18 17 15 14 15 18 20 21 19 18 18 0 0 1 2 6 39 60 69 62 56 51 50 51 50 57 84 102 107 110 114 115 114 112 111 99 87 86 85 83 
0 1 2 6 39 60 69 62 56 51 50 51 50 57 84 102 107 110 114 115 114 112 111 99 87 86 85 83 84 86 82 80 75 71 79 91 72 62 64 63 50 39 38 36 34 34 38 43 47 49 51 52 51 52 60 76 68 74 89 83 59 46 45 40 30 26 30 33 38 39 40 43 43 38 45 54 51 19 9 14 24 29 23 22 21 19 18 17 18 17 15 14 15 18 20 21 19 18 18 0 0 0 1 5 39 60 69 62 56 51 52 52 52 78 102 108 113 116 119 118 117 113 106 90 85 85 83 83 
0 0 1 5 39 60 69 62 56 51 52 52 52 78 102 108 113 116 119 118 117 113 106 90 85 85 83 83 84 86 82 73 68 64 69 87 78 64 59 61 56 43 39 36 35 35 36 39 39 41 43 45 47 51 60 81 71 72 87 85 71 62 50 40 29 26 29 33 38 39 40 43 43 38 45 54 51 19 9 14 24 29 23 22 21 19 18 17 18 17 15 14 15 18 20 21 19 18 18 0 0 0 0 5 38 60 69 63 56 52 54 51 66 99 109 114 119 121 122 121 119 110 102 91 88 85 83 83 
0 0 0 5 38 60 69 63 56 52 54 51 66 99 109 114 119 121 122 121 119 110 102 91 88 85 83 83 83 81 75 68 64 61 65 77 83 70 62 60 58 49 40 37 35 36 37 39 38 37 39 39 35 35 42 70 75 80 92 88 73 68 65 47 30 26 29 33 38 39 40 44 43 38 45 54 51 19 9 14 24 29 23 22 21 19 18 17 18 17 15 14 15 18 20 21 19 18 18 0 0 0 0 5 38 59 68 62 57 54 54 55 88 110 114 119 124 126 124 124 116 105 102 92 88 85 83 81 
0 0 0 5 38 59 68 62 57 54 54 55 88 110 114 119 124 126 124 124 116 105 102 92 88 85 83 81 78 73 71 69 64 62 64 71 81 77 66 63 60 55 45 38 34 38 40 40 37 35 36 36 33 30 33 51 65 79 98 96 81 73 68 62 38 26 29 32 38 39 40 44 43 38 45 54 51 19 9 14 24 29 23 22 21 19 18 17 18 17 15 14 15 18 20 21 19 18 18 0 0 0 0 5 38 59 68 62 57 56 53 70 105 115 118 124 128 128 128 123 111 104 99 89 87 83 82 79 
0 0 0 5 38 59 68 62 57 56 53 70 105 115 118 124 128 128 128 123 111 104 99 89 87 83 82 79 74 70 67 68 67 63 63 67 74 82 72 66 64 59 53 42 37 42 41 41 38 35 35 36 33 31 34 47 56 66 87 89 83 86 75 65 53 29 30 32 38 39 40 43 43 39 45 54 51 19 9 14 24 29 23 22 21 19 18 17 18 17 15 14 15 18 20 21 19 18 18 0 0 0 0 5 38 59 68 62 59 55 56 91 113 118 122 129 132 131 127 118 110 106 95 87 84 81 81 76 
0 0 0 5 38 59 68 62 59 55 56 91 113 118 122 129 132 131 127 118 110 106 95 87 84 81 81 76 70 68 65 65 69 66 63 65 74 81 83 72 66 66 63 52 48 46 43 42 38 38 38 38 35 32 35 47 53 56 79 82 72 77 85 72 58 35 30 33 38 39 40 43 43 39 45 54 51 19 9 14 24 29 23 22 21 19 18 17 18 17 15 14 15 18 20 21 19 18 18 0 0 0 0 5 38 59 68 63 60 54 70 109 117 122 127 134 134 134 125 114 111 105 92 85 82 79 79 74 
0 0 0 5 38 59 68 63 60 54 70 109 117 122 127 134 134 134 125 114 111 105 92 85 82 79 79 74 71 67 65 64 64 67 64 64 72 79 86 83 71 75 74 62 63 53 43 42 38 39 40 43 41 39 41 47 51 50 72 78 68 65 72 66 49 38 32 33 38 39 40 43 43 39 45 56 51 19 9 14 24 29 23 22 21 19 18 17 18 17 15 14 15 18 20 21 19 18 18 0 0 0 0 5 38 59 68 65 59 58 93 116 120 126 131 136 137 135 123 114 110 101 89 84 80 78 78 77 
0 0 0 5 38 59 68 65 59 58 93 116 120 126 131 136 137 135 123 114 110 101 89 84 80 78 78 77 73 70 67 66 66 65 68 65 71 80 81 89 86 84 85 77 75 61 50 44 41 41 42 45 47 50 51 50 49 48 65 73 66 60 63 55 41 37 33 34 39 39 40 43 43 38 46 57 54 19 9 14 24 29 23 22 21 19 18 17 18 17 15 14 15 18 20 21 19 18 18 0 0 0 0 5 38 59 69 66 59 73 111 118 124 131 136 138 138 133 122 114 107 96 88 84 80 79 79 77 
0 0 0 5 38 59 69 66 59 73 111 118 124 131 136 138 138 133 122 114 107 96 88 84 80 79 79 77 73 70 69 67 64 62 65 69 71 84 82 86 95 100 100 92 84 70 64 55 45 44 46 50 53 54 54 55 51 46 64 70 63 56 57 53 43 39 35 35 40 41 41 44 43 38 46 57 55 20 9 14 24 29 23 22 21 19 18 17 18 17 15 14 15 18 20 21 19 18 18 0 0 0 0 5 38 59 71 65 63 95 118 121 128 135 139 139 137 131 119 110 101 93 87 84 82 83 81 74 
0 0 0 5 38 59 71 65 63 95 118 121 128 135 139 139 137 131 119 110 101 93 87 84 82 83 81 74 72 69 68 66 64 63 66 74 74 86 88 86 95 105 103 99 90 81 75 71 57 44 41 43 44 48 50 53 53 50 64 69 60 52 54 52 46 45 37 38 43 44 44 47 45 39 46 57 55 20 10 14 24 30 23 22 21 19 18 17 18 17 15 14 15 18 20 21 19 18 18 0 0 0 0 5 38 59 72 65 77 112 118 124 132 140 141 138 137 127 114 104 95 89 84 82 82 83 79 73 
0 0 0 5 38 59 72 65 77 112 118 124 132 140 141 138 137 127 114 104 95 89 84 82 82 83 79 73 73 72 72 71 69 66 68 72 79 83 93 88 90 98 98 95 88 80 73 74 71 59 44 38 37 41 43 48 45 52 69 70 60 52 53 51 44 48 40 40 44 44 44 48 48 43 49 62 59 20 10 16 28 31 23 22 21 19 18 17 18 17 15 14 15 18 20 21 19 18 18 0 0 0 0 5 38 61 71 67 98 117 119 128 136 143 142 137 132 119 107 100 93 87 83 80 81 84 80 75 
