P2
128 99
213
0 0 0 0 0 0 0 0 0 0 0 0 0 0 0 0 0 0 0 0 0 0 0 0 0 0 0 0 0 0 0 0 1 2 1 0 0 0 0 0 0 0 0 0 0 0 0 0 0 0 0 0 0 0 0 0 0 0 0 0 0 0 0 0 0 0 0 0 0 0 0 0 0 0 0 0 0 0 0 0 0 0 0 0 0 0 0 0 0 0 0 0 1 2 2 2 0 1 0 0 0 0 0 0 0 0 0 0 0 0 0 0 0 0 0 0 0 0 0 0 0 0 0 0 0 0 0 0 
0 0 0 0 0 0 0 0 0 0 0 0 0 0 0 0 0 0 0 0 0 0 0 0 0 0 0 0 0 0 0 0 1 2 1 0 0 0 0 0 0 0 0 0 0 0 0 0 0 0 0 0 0 0 0 0 0 0 0 0 0 0 0 0 0 0 0 0 0 0 0 0 0 0 0 0 0 0 0 0 0 0 0 0 0 0 0 0 0 0 0 0 1 2 2 2 0 1 0 0 0 0 0 0 0 0 0 0 0 0 0 0 0 0 0 0 0 0 0 0 0 0 0 0 0 0 0 0 
0 0 0 0 0 0 0 0 0 0 0 0 0 0 0 0 0 0 0 0 0 0 0 0 0 0 0 0 0 0 0 0 1 2 1 0 0 0 0 0 0 0 0 0 0 0 0 0 0 0 1 2 2 2 1 0 0 0 0 0 0 0 0 0 0 0 0 0 0 0 0 0 0 0 0 0 0 0 0 0 0 0 0 0 0 0 0 0 0 0 0 0 1 1 2 2 0 1 0 0 0 0 0 0 0 0 0 0 0 0 0 0 0 0 0 0 0 0 0 0 0 0 0 0 0 0 0 0 
0 0 0 0 0 0 0 0 0 0 0 0 0 0 0 0 0 0 0 0 0 0 0 0 0 0 0 0 0 0 0 0 1 1 1 0 0 0 0 0 0 0 0 1 7 13 17 18 18 19 22 25 28 27 25 21 18 16 14 12 4 0 0 0 0 0 0 0 0 0 0 0 0 0 0 0 0 0 0 0 0 0 0 0 0 0 0 0 0 0 0 0 1 2 2 2 0 1 0 0 0 0 0 0 0 0 0 0 0 0 0 0 0 0 0 0 0 0 0 0 0 0 0 0 0 0 0 0 
0 0 0 0 0 0 0 0 0 0 0 0 0 0 0 0 0 0 0 0 0 0 0 0 0 0 0 0 0 0 0 0 1 1 0 0 0 0 0 0 5 13 19 23 24 33 54 77 101 122 138 149 154 155 151 141 125 104 80 54 33 22 17 11 2 0 0 0 0 0 0 0 0 0 0 0 0 0 0 0 0 0 0 0 0 0 0 0 0 0 0 0 1 2 2 2 0 1 0 0 0 0 0 0 0 0 0 0 0 0 0 0 0 0 0 0 0 0 0 0 0 0 0 0 0 0 0 0 
0 0 0 0 0 0 0 0 0 0 0 0 0 0 0 0 0 0 0 0 0 0 0 0 0 0 0 0 0 0 0 0 1 1 0 0 0 1 9 17 23 25 36 68 111 150 172 183 188 191 192 191 189 189 190 190 189 187 181 171 151 118 79 44 24 16 11 1 0 0 0 0 0 0 0 0 0 0 0 0 0 0 0 0 0 0 0 0 0 0 0 0 1 1 2 2 0 1 0 0 0 0 0 0 0 0 0 0 0 0 0 0 0 0 0 0 0 0 0 0 0 0 0 0 0 0 0 0 
0 0 0 0 0 0 0 0 0 0 0 0 0 0 0 0 0 0 0 0 0 0 0 0 0 0 0 0 0 0 0 0 0 0 0 0 9 22 24 25 52 103 153 179 190 192 193 193 196 198 200 201 201 201 201 201 199 196 194 191 190 186 176 157 123 77 39 19 13 2 0 0 0 0 0 0 0 0 0 0 0 0 0 0 0 0 0 0 0 0 0 0 1 2 2 2 0 0 0 0 0 0 0 0 0 0 0 0 0 0 0 0 0 0 0 0 0 0 0 0 0 0 0 0 0 0 0 0 
0 0 0 0 0 0 0 0 0 0 0 0 0 0 0 0 0 0 0 0 0 0 0 0 0 0 0 0 0 0 0 0 0 0 8 24 24 26 62 125 169 186 192 193 196 199 197 190 184 181 184 191 189 176 174 187 200 206 204 200 197 194 192 191 187 175 149 101 49 23 14 1 0 0 0 0 0 0 0 0 0 0 0 0 0 0 0 0 0 0 0 0 1 2 2 2 0 0 0 0 0 0 0 0 0 0 0 0 0 0 0 0 0 0 0 0 0 0 0 0 0 0 0 0 0 0 0 0 
0 0 0 0 0 0 0 0 0 0 0 0 0 0 0 0 0 0 0 0 0 0 0 0 0 0 0 0 0 0 0 0 5 27 26 23 58 129 173 186 188 192 196 199 197 188 178 167 158 156 156 158 155 148 150 155 164 182 201 209 207 203 199 195 193 191 190 182 157 103 45 23 10 0 0 0 0 0 0 0 0 0 0 0 0 0 0 0 0 0 0 0 1 2 2 2 0 1 0 0 0 0 0 0 0 0 0 0 0 0 0 0 0 0 0 0 0 0 0 0 0 0 0 0 0 0 0 0 
0 0 0 0 0 0 0 0 0 0 0 0 0 0 0 0 0 0 0 0 0 0 0 0 0 0 0 0 0 0 0 23 26 22 41 113 170 184 186 189 194 199 196 181 166 161 154 144 139 137 141 148 149 145 148 151 153 156 168 187 205 210 209 206 202 197 193 192 191 182 149 80 31 19 2 0 0 0 0 0 0 0 0 0 0 0 0 0 0 0 0 0 1 2 2 2 0 1 0 0 0 0 0 0 0 0 0 0 0 0 0 0 0 0 0 0 0 0 0 0 0 0 0 0 0 0 0 0 
0 0 0 0 0 0 0 0 0 0 0 0 0 0 0 0 0 0 0 0 0 0 0 0 0 0 0 0 0 10 28 22 26 84 160 183 186 188 193 198 202 191 172 167 161 154 147 140 136 135 136 140 139 138 142 147 148 146 150 157 173 193 207 212 211 207 202 198 194 193 191 176 121 46 23 6 0 0 0 0 0 0 0 0 0 0 0 0 0 0 0 0 1 2 2 2 0 1 0 0 0 0 0 0 0 0 0 0 0 0 0 0 0 0 0 0 0 0 0 0 0 0 0 0 0 0 0 0 
0 0 0 0 0 0 0 0 0 0 0 0 0 0 0 0 0 0 0 0 0 0 0 0 0 0 0 0 22 25 18 48 133 178 183 188 194 198 203 198 182 172 166 160 156 152 149 144 142 139 133 135 133 133 143 149 149 147 149 153 159 170 186 198 209 213 211 207 202 199 196 193 186 152 68 24 11 0 0 0 0 0 0 0 0 0 0 0 0 0 0 0 1 2 2 2 0 1 0 0 0 0 0 0 0 0 0 0 0 0 0 0 0 0 0 0 0 0 0 0 0 0 0 0 0 0 0 0 
0 0 0 0 0 0 0 0 0 0 0 0 0 0 0 0 0 0 0 0 0 0 0 0 0 0 5 26 21 19 77 159 180 187 193 199 203 203 191 177 171 166 159 156 152 150 150 147 147 139 131 128 126 126 137 145 146 147 150 152 154 163 173 181 190 201 210 213 211 206 200 197 193 186 163 86 25 13 0 0 0 0 0 0 0 0 0 0 0 0 0 0 1 2 2 2 0 1 0 0 0 0 0 0 0 0 0 0 0 0 0 0 0 0 0 0 0 0 0 0 0 0 0 0 0 0 0 0 
0 0 0 0 0 0 0 0 0 0 0 0 0 0 0 0 0 0 0 0 0 0 0 0 0 10 26 18 26 102 169 181 191 198 203 206 200 184 175 168 165 161 156 152 149 148 149 149 141 135 126 125 122 123 128 139 149 152 153 154 154 156 162 170 177 183 191 201 210 212 209 203 197 190 186 169 95 27 14 0 0 0 0 0 0 0 0 0 0 0 0 0 1 2 2 3 0 1 0 0 0 0 0 0 0 0 0 0 0 0 0 0 0 0 0 0 0 0 0 0 0 0 0 0 0 0 0 0 
0 0 0 0 0 0 0 0 0 0 0 0 0 0 0 0 0 0 0 0 0 0 0 0 14 23 16 34 119 171 182 193 201 206 203 191 178 172 169 165 162 158 156 153 149 147 139 131 130 125 122 121 119 122 123 124 133 145 149 147 148 150 155 160 164 169 174 179 187 198 208 210 205 198 191 188 172 106 30 13 0 0 0 0 0 0 0 0 0 0 0 0 1 2 2 2 0 1 0 0 0 0 0 0 0 0 0 0 0 0 0 0 0 0 0 0 0 0 0 0 0 0 0 0 0 0 0 0 
0 0 0 0 0 0 0 0 0 0 0 0 0 0 0 0 0 0 0 0 0 0 3 19 20 15 45 130 169 183 195 202 206 195 180 172 169 168 165 161 158 152 147 139 136 128 123 123 121 121 121 119 116 122 124 124 124 128 137 145 146 145 146 152 158 160 164 166 170 176 187 201 207 205 198 190 187 174 118 36 12 0 0 0 0 0 0 0 0 0 0 0 1 2 2 2 0 1 0 0 0 0 0 0 0 0 0 0 0 0 0 0 0 0 0 0 0 0 0 0 0 0 0 0 0 0 0 0 
0 0 0 0 0 0 0 0 0 0 0 0 0 0 0 0 0 0 0 0 0 5 17 16 17 57 140 167 185 197 204 203 185 173 168 166 164 163 160 156 151 144 140 136 127 121 120 117 119 119 120 115 114 120 122 123 124 124 124 127 130 133 138 143 148 151 154 159 163 166 169 176 191 203 205 198 193 188 174 126 38 9 0 0 0 0 0 0 0 0 0 0 1 2 2 2 0 1 0 0 0 0 0 0 0 0 0 0 0 0 0 0 0 0 0 0 0 0 0 0 0 0 0 0 0 0 0 0 
0 0 0 0 0 0 0 0 0 0 0 0 0 0 0 0 0 0 0 0 7 16 14 18 71 149 168 185 199 205 198 174 165 165 164 160 154 150 148 146 144 140 132 124 120 119 116 119 120 120 117 110 110 119 120 122 125 125 125 127 128 129 131 134 138 142 144 146 150 155 158 161 167 183 197 202 199 194 187 175 131 37 6 0 0 0 0 0 0 0 0 0 1 2 2 2 0 1 0 0 0 0 0 0 0 0 0 0 0 0 0 0 0 0 0 0 0 0 0 0 0 0 0 0 0 0 0 0 
0 0 0 0 0 0 0 0 0 0 0 0 0 0 0 0 0 0 0 6 16 13 20 79 151 168 183 197 204 194 169 160 161 160 155 149 145 144 139 132 129 125 123 121 122 119 116 118 117 112 114 106 109 118 118 121 122 122 121 122 124 126 127 129 128 128 133 141 145 147 146 149 155 162 176 193 202 199 194 185 173 123 29 4 0 0 0 0 0 0 0 0 1 2 2 3 0 1 0 0 0 0 0 0 0 0 0 0 0 0 0 0 0 0 0 0 0 0 0 0 0 0 0 0 0 0 0 0 
0 0 0 0 0 0 0 0 0 0 0 0 0 0 0 0 0 0 5 15 13 20 84 152 166 179 193 202 188 166 159 156 155 154 146 139 134 133 129 125 124 122 121 121 117 112 113 114 112 113 110 105 107 118 118 118 119 120 122 122 120 121 120 121 124 123 127 132 141 144 143 142 146 150 159 171 188 202 200 192 181 168 107 20 2 0 0 0 0 0 0 0 1 2 2 3 0 1 0 0 0 0 0 0 0 0 0 0 0 0 0 0 0 0 0 0 0 0 0 0 0 0 0 0 0 0 0 0 
0 0 0 0 0 0 0 0 0 0 0 0 0 0 0 0 0 2 15 13 19 81 148 162 176 191 201 185 164 157 154 150 148 145 137 129 129 127 124 124 120 117 115 112 111 112 112 112 114 110 103 103 106 115 118 119 120 119 119 121 123 121 118 115 116 120 124 129 133 137 139 140 141 145 150 157 166 184 202 197 189 176 159 83 11 0 0 0 0 0 0 0 1 2 2 3 0 1 0 0 0 0 0 0 0 0 0 0 0 0 0 0 0 0 0 0 0 0 0 0 0 0 0 0 0 0 0 0 
0 0 0 0 0 0 0 0 0 0 0 0 0 0 0 0 0 11 12 16 73 142 158 171 186 198 184 162 156 152 148 144 144 138 127 126 124 122 122 119 114 110 110 113 113 111 108 108 109 99 99 103 105 108 112 113 116 116 116 118 120 118 118 115 111 113 121 125 129 131 131 132 133 137 143 149 156 162 186 201 196 186 170 142 54 4 0 0 0 0 0 0 1 2 2 3 0 1 0 0 0 0 0 0 0 0 0 0 0 0 0 0 0 0 0 0 0 0 0 0 0 0 0 0 0 0 0 0 
0 0 0 0 0 0 0 0 0 0 0 0 0 0 0 0 6 12 14 60 134 151 166 182 195 185 159 153 149 144 142 139 133 127 125 122 122 123 119 113 111 111 112 112 109 105 105 105 100 98 100 103 104 106 106 105 107 107 106 107 110 113 114 114 111 109 111 122 124 126 127 128 128 131 135 142 147 152 158 189 201 194 180 162 117 26 1 0 0 0 0 0 1 2 2 3 0 1 0 0 0 0 0 0 0 0 0 0 0 0 0 0 0 0 0 0 0 0 0 0 0 0 0 0 0 0 0 0 
0 0 0 0 0 0 0 0 0 0 0 0 0 0 0 2 12 13 47 123 146 160 176 191 187 160 150 147 143 142 135 130 128 127 125 122 121 117 112 111 108 104 100 98 99 100 101 102 102 102 106 104 103 107 105 103 105 104 104 104 104 107 109 109 109 110 108 110 121 123 122 123 122 128 132 136 146 146 147 161 193 198 187 173 148 80 7 0 0 0 0 0 1 2 2 3 0 1 0 0 0 0 0 0 0 0 0 0 0 0 0 0 0 0 0 0 0 0 0 0 0 0 0 0 0 0 0 0 
0 0 0 0 0 0 0 0 0 0 0 0 0 0 0 7 11 26 102 138 153 170 186 187 164 149 145 141 141 139 131 127 126 124 120 117 115 110 109 104 99 97 98 99 97 99 101 102 104 106 110 108 105 106 103 104 103 103 103 105 103 101 105 107 110 110 109 108 113 119 118 121 120 122 129 134 143 143 143 146 170 194 191 179 161 123 30 1 0 0 0 0 1 2 2 3 0 1 0 0 0 0 0 0 0 0 0 0 0 0 0 0 0 0 0 0 0 0 0 0 0 0 0 0 0 0 0 0 
0 0 0 0 0 0 0 0 0 0 0 0 0 0 2 9 13 74 130 145 161 179 182 171 150 140 139 138 140 135 130 123 123 121 119 113 109 107 104 99 97 98 99 99 99 101 103 103 103 104 110 109 105 107 104 103 103 104 105 105 104 105 103 104 104 108 108 108 109 113 116 120 120 121 125 132 139 139 139 138 148 179 191 183 167 143 69 4 0 0 0 0 1 2 2 3 0 1 0 0 0 0 0 0 0 0 0 0 0 0 0 0 0 0 0 0 0 0 0 0 0 0 0 0 0 0 0 0 
0 0 0 0 0 0 0 0 0 0 0 0 0 0 6 8 40 114 136 152 171 178 168 159 139 134 136 139 138 133 126 122 121 117 114 106 104 104 103 99 98 99 100 101 104 104 105 105 102 103 110 111 107 106 98 99 102 104 103 102 101 104 105 103 101 102 105 108 108 109 111 118 120 119 122 132 139 138 136 131 137 162 182 184 173 154 107 16 0 0 0 0 1 2 2 3 0 1 0 0 0 0 0 0 0 0 0 0 0 0 0 0 0 0 0 0 0 0 0 0 0 0 0 0 0 0 0 0 
0 0 0 0 0 0 0 0 0 0 0 0 0 0 7 15 84 126 144 160 176 164 162 145 132 133 135 138 134 130 120 117 116 116 111 104 104 105 101 99 100 101 103 102 100 102 103 103 104 101 105 110 111 104 97 96 98 104 103 101 99 101 103 106 106 105 105 107 108 109 110 114 120 119 123 128 137 138 133 129 130 154 172 182 176 160 129 39 1 0 0 0 1 2 2 3 0 1 0 0 0 0 0 0 0 0 0 0 0 0 0 0 0 0 0 0 0 0 0 0 0 0 0 0 0 0 0 0 
0 0 0 0 0 0 0 0 0 0 0 0 0 3 6 37 111 134 148 168 171 159 154 135 130 130 133 135 131 122 120 118 116 113 106 105 106 103 100 100 102 100 99 98 98 100 104 106 104 99 100 103 109 99 93 93 98 102 98 101 101 100 100 102 107 108 106 109 110 109 109 111 119 119 120 130 136 136 129 126 125 148 164 181 178 164 140 61 3 0 0 0 1 2 2 3 0 1 0 0 0 0 0 0 0 0 0 0 0 0 0 0 0 0 0 0 0 0 0 0 0 0 0 0 0 0 0 0 
0 0 0 0 0 0 0 0 0 0 0 0 0 4 9 69 123 138 155 172 157 152 144 130 129 127 129 131 125 122 121 119 117 110 104 107 107 102 100 101 102 99 96 98 101 103 102 101 100 96 94 95 105 95 90 93 94 96 95 96 98 102 100 100 105 108 108 109 112 112 110 111 117 117 119 130 135 129 126 123 119 142 158 176 179 166 146 81 6 0 0 0 1 2 2 3 0 1 0 0 0 0 0 0 0 0 0 0 0 0 0 0 0 0 0 0 0 0 0 0 0 0 0 0 0 0 0 0 
0 0 0 0 0 0 0 0 0 0 0 0 0 6 17 94 128 144 163 165 144 143 137 125 124 124 125 126 119 121 121 120 116 108 107 110 106 101 101 102 103 99 98 98 101 99 95 97 100 96 94 96 104 95 94 95 94 96 97 93 92 97 102 105 105 107 111 111 112 113 113 112 115 117 118 125 130 126 123 121 119 135 152 173 179 167 150 99 10 0 0 0 1 2 2 3 0 1 0 0 0 0 0 0 0 0 0 0 0 0 0 0 0 0 0 0 0 0 0 0 0 0 0 0 0 0 0 0 
0 0 0 0 0 0 0 0 0 0 0 0 1 6 33 112 133 152 165 149 135 138 135 124 120 119 120 123 117 119 120 117 116 113 110 108 104 102 103 102 99 100 98 98 98 95 97 102 103 98 96 97 104 97 98 96 96 97 98 101 98 98 99 102 108 109 112 113 113 112 114 116 115 117 119 122 124 124 120 116 117 134 155 170 180 170 153 114 16 0 0 0 1 2 2 3 0 1 0 0 0 0 0 0 0 0 0 0 0 0 0 0 0 0 0 0 0 0 0 0 0 0 0 0 0 0 0 0 
0 0 0 0 0 0 0 0 0 0 0 0 2 6 50 120 137 157 157 139 130 133 135 122 115 115 118 120 116 116 117 116 117 112 107 109 105 103 101 96 97 97 95 93 96 99 100 98 100 97 94 98 98 95 94 92 91 92 95 98 102 102 100 103 107 112 110 115 117 116 114 115 116 116 119 123 118 119 116 113 112 131 152 164 180 173 157 127 26 0 0 0 1 2 2 3 0 1 0 0 0 0 0 0 0 0 0 0 0 0 0 0 0 0 0 0 0 0 0 0 0 0 0 0 0 0 0 0 
0 0 0 0 0 0 0 0 0 0 0 0 2 7 63 124 144 159 151 135 128 133 135 120 112 111 116 118 114 111 115 117 116 113 111 110 106 103 99 96 95 96 91 94 99 97 95 95 95 91 96 103 98 95 94 90 88 89 89 95 99 100 101 98 102 107 112 113 118 119 116 116 117 117 117 122 113 111 114 114 113 131 153 165 181 178 162 137 37 1 0 0 1 2 2 3 0 1 0 0 0 0 0 0 0 0 0 0 0 0 0 0 0 0 0 0 0 0 0 0 0 0 0 0 0 0 0 0 
0 0 0 0 0 0 0 0 0 0 0 0 3 9 73 128 148 158 150 138 130 134 133 121 113 109 114 114 107 108 118 117 116 113 110 111 106 105 107 98 98 96 90 93 96 95 94 93 92 90 96 104 101 94 92 93 90 90 90 93 95 99 101 99 100 107 109 117 124 122 120 120 118 119 119 121 111 108 112 110 112 136 154 166 180 180 166 147 50 2 0 0 1 2 2 3 0 1 0 0 0 0 0 0 0 0 0 0 0 0 0 0 0 0 0 0 0 0 0 0 0 0 0 0 0 0 0 0 
0 0 0 0 0 0 0 0 0 0 0 0 4 10 81 134 153 161 150 141 133 133 135 124 113 109 112 111 104 108 120 116 116 115 110 112 113 110 111 112 109 104 98 98 97 96 98 96 91 93 97 98 104 96 94 95 93 89 91 93 93 100 102 100 102 110 115 122 124 124 124 124 123 120 121 126 114 109 109 108 116 138 152 164 181 182 170 155 62 3 0 0 2 2 2 3 0 1 0 0 0 0 0 0 0 0 0 0 0 0 0 0 0 0 0 0 0 0 0 0 0 0 0 0 0 0 0 0 
0 0 0 0 0 0 0 0 0 0 0 0 4 12 86 137 157 164 153 145 137 136 137 126 116 111 111 110 102 108 121 118 119 116 118 117 110 100 96 96 95 96 102 105 103 98 96 96 94 96 99 98 105 98 95 96 94 88 91 90 93 100 106 108 103 99 96 96 102 106 112 117 128 133 127 130 126 113 109 112 123 138 150 159 180 185 172 157 77 5 0 0 2 2 2 3 0 1 0 0 0 0 0 0 0 0 0 0 0 0 0 0 0 0 0 0 0 0 0 0 0 0 0 0 0 0 0 0 
0 0 0 0 0 0 0 0 0 0 0 0 5 13 89 141 159 165 150 146 142 141 138 128 120 113 110 104 101 113 125 120 125 125 114 106 96 86 82 85 86 86 87 92 99 106 101 96 91 94 99 98 106 102 96 95 92 89 88 87 97 107 103 96 93 90 92 91 92 96 98 100 110 126 138 138 138 123 113 120 128 138 145 154 174 186 176 159 91 7 0 0 1 2 2 3 0 1 0 0 0 0 0 0 0 0 0 0 0 0 0 0 0 0 0 0 0 0 0 0 0 0 0 0 0 0 0 0 
0 0 0 0 0 0 0 0 0 0 0 0 6 14 93 145 162 163 152 146 141 140 141 136 128 120 113 103 104 120 128 124 130 113 99 92 88 83 83 87 86 85 85 86 89 94 101 101 92 92 97 99 103 103 99 93 89 85 85 95 105 94 90 89 92 96 97 96 98 102 100 99 100 112 135 151 145 136 124 125 131 133 138 147 163 184 178 163 104 10 0 0 2 2 2 3 0 1 0 0 0 0 0 0 0 0 0 0 0 0 0 0 0 0 0 0 0 0 0 0 0 0 0 0 0 0 0 0 
0 0 0 0 0 0 0 0 0 0 0 0 7 14 95 147 162 164 150 144 139 137 137 137 134 124 120 112 109 125 133 132 113 94 92 91 88 88 91 94 92 88 84 86 89 93 95 102 96 97 100 102 106 109 107 100 93 88 87 101 96 87 86 87 93 97 99 99 100 103 105 106 108 115 130 152 151 141 134 130 128 128 132 140 153 177 179 164 118 15 0 0 1 2 2 3 0 1 0 0 0 0 0 0 0 0 0 0 0 0 0 0 0 0 0 0 0 0 0 0 0 0 0 0 0 0 0 0 
0 0 0 0 0 0 0 0 0 0 0 0 7 15 97 148 165 165 145 139 136 136 132 129 131 128 123 121 128 130 137 126 102 92 91 89 87 89 91 90 90 89 86 85 87 89 96 99 102 98 104 111 117 115 119 106 98 89 89 103 88 81 82 87 93 97 100 102 102 106 108 106 112 124 131 136 145 140 142 132 125 123 126 133 144 169 178 164 128 23 0 0 1 2 2 3 0 1 0 0 0 0 0 0 0 0 0 0 0 0 0 0 0 0 0 0 0 0 0 0 0 0 0 0 0 0 0 0 
0 0 0 0 0 0 0 0 0 0 0 0 8 15 99 151 167 167 136 133 134 133 130 124 127 129 124 120 132 138 144 125 110 101 97 93 91 91 89 89 88 88 87 86 87 90 96 100 99 100 106 114 124 118 124 108 98 92 96 98 82 78 83 91 96 100 100 100 102 107 109 107 115 119 120 124 131 138 143 132 122 120 123 123 133 161 177 165 134 34 1 1 1 2 2 3 0 1 0 0 0 0 0 0 0 0 0 0 0 0 0 0 0 0 0 0 0 0 0 0 0 0 0 0 0 0 0 0 
0 0 0 0 0 0 0 0 0 0 0 0 8 16 100 152 168 167 134 132 132 129 125 119 121 121 120 121 129 133 135 126 119 110 103 99 98 94 91 89 88 90 88 88 90 91 92 97 95 97 106 114 117 112 118 116 105 97 97 91 79 81 89 94 96 98 99 98 99 103 108 109 111 114 117 118 123 135 140 132 119 114 115 116 121 149 174 165 137 43 1 0 2 3 3 3 0 1 0 0 0 0 0 0 0 0 0 0 0 0 0 0 0 0 0 0 0 0 0 0 0 0 0 0 0 0 0 0 
0 0 0 0 0 0 0 0 0 0 0 0 8 17 103 154 171 165 130 131 129 125 119 111 114 117 119 120 122 122 123 117 110 106 99 96 95 93 91 86 86 87 88 92 91 90 90 94 98 98 104 104 104 110 108 113 109 104 98 85 80 86 90 92 93 95 93 94 97 101 102 105 110 112 115 113 123 134 138 131 114 111 110 112 115 137 169 165 141 51 2 0 2 2 3 3 0 1 0 0 0 0 0 0 0 0 0 0 0 0 0 0 0 0 0 0 0 0 0 0 0 0 0 0 0 0 0 0 
0 0 0 0 0 0 0 0 0 0 0 0 8 17 103 155 171 160 125 125 120 116 110 103 107 111 116 125 122 116 118 114 102 101 94 91 89 90 91 87 85 87 88 90 89 88 89 91 95 98 109 106 101 104 103 113 109 108 103 86 86 87 90 88 85 89 92 92 95 99 102 103 106 110 109 111 124 133 133 132 117 109 106 107 107 126 155 163 144 57 2 0 2 2 3 3 0 1 0 0 0 0 0 0 0 0 0 0 0 0 0 0 0 0 0 0 0 0 0 0 0 0 0 0 0 0 0 0 
0 0 0 0 0 0 0 0 0 0 0 0 9 17 101 156 171 154 118 116 113 109 102 98 100 104 110 124 124 117 115 112 101 97 91 88 87 87 88 84 83 86 86 87 85 85 89 87 87 102 118 122 111 99 100 95 114 106 98 89 90 91 91 81 82 88 90 92 96 98 100 101 103 109 107 111 122 129 129 135 126 108 105 108 108 121 136 153 145 63 3 0 2 2 2 3 0 1 0 0 0 0 0 0 0 0 0 0 0 0 0 0 0 0 0 0 0 0 0 0 0 0 0 0 0 0 0 0 
0 0 0 0 0 0 0 0 0 0 0 0 8 17 99 155 170 146 116 112 106 104 101 99 99 101 113 119 122 117 114 112 104 95 91 90 88 88 90 87 84 84 87 89 87 89 92 86 82 98 114 120 100 91 92 83 102 115 91 93 91 90 85 83 86 88 90 91 94 97 99 99 101 105 105 112 122 129 135 137 129 109 104 106 109 120 132 152 145 64 3 0 2 2 2 3 0 1 0 0 0 0 0 0 0 0 0 0 0 0 0 0 0 0 0 0 0 0 0 0 0 0 0 0 0 0 0 0 
0 0 0 0 0 0 0 0 0 0 0 0 7 16 94 153 168 137 115 108 106 106 102 100 99 102 113 114 119 117 115 112 104 95 92 91 89 88 90 89 85 82 82 86 87 89 91 83 83 100 116 107 84 79 86 79 87 122 86 90 89 87 82 87 90 91 92 92 95 98 98 97 102 103 104 116 130 138 134 133 129 109 104 102 108 117 132 155 139 61 3 0 1 2 2 3 0 1 0 0 0 0 0 0 0 0 0 0 0 0 0 0 0 0 0 0 0 0 0 0 0 0 0 0 0 0 0 0 
0 0 0 0 0 0 0 0 0 0 0 0 6 15 85 151 165 133 113 107 105 104 102 99 98 101 114 112 115 116 118 114 103 99 93 89 90 92 90 88 86 84 80 79 81 85 89 81 86 102 108 88 84 80 88 78 79 113 103 89 86 82 81 89 89 90 92 93 96 98 96 97 103 100 101 117 137 134 128 132 127 108 103 102 107 115 132 154 134 56 2 0 1 2 2 3 0 1 0 0 0 0 0 0 0 0 0 0 0 0 0 0 0 0 0 0 0 0 0 0 0 0 0 0 0 0 0 0 
0 0 0 0 0 0 0 0 0 0 0 0 4 15 79 147 164 135 114 108 103 103 103 98 96 98 111 113 114 114 118 116 104 99 94 93 94 95 93 91 86 86 82 78 79 81 84 74 85 104 103 87 86 89 94 81 78 91 113 91 84 79 81 89 89 92 93 94 93 94 94 96 100 96 101 117 132 128 126 130 126 106 103 102 105 113 134 150 128 50 2 0 1 2 2 3 0 1 0 0 0 0 0 0 0 0 0 0 0 0 0 0 0 0 0 0 0 0 0 0 0 0 0 0 0 0 0 0 
0 0 0 0 0 0 0 0 0 0 0 0 2 14 72 142 161 140 115 107 103 102 102 101 97 93 107 114 115 115 119 115 104 98 95 94 95 96 95 93 89 86 81 79 77 80 80 77 91 105 92 85 84 93 100 84 80 79 108 101 95 87 83 89 91 92 92 92 90 92 92 97 97 94 101 116 125 126 124 127 124 105 104 101 102 111 138 145 120 44 2 0 1 2 2 3 0 1 0 0 0 0 0 0 0 0 0 0 0 0 0 0 0 0 0 0 0 0 0 0 0 0 0 0 0 0 0 0 
0 0 0 0 0 0 0 0 0 6 5 0 0 12 63 134 156 141 117 105 100 100 102 102 97 91 102 114 115 116 119 112 103 99 97 95 94 92 93 92 91 90 84 79 85 95 90 86 95 96 87 82 84 97 99 88 83 81 92 110 112 108 101 95 94 95 97 94 91 92 93 97 94 93 102 115 121 123 127 129 122 104 100 98 99 112 139 139 108 37 1 0 1 2 2 3 0 1 0 0 0 0 0 0 0 0 0 0 0 0 0 0 0 0 0 0 0 0 0 0 0 0 0 0 0 0 0 0 
0 0 0 0 0 0 0 0 0 3 9 3 1 9 52 126 153 140 116 105 98 99 101 102 97 91 103 117 116 115 117 113 102 96 97 96 93 91 91 93 99 98 94 87 91 94 96 90 101 91 87 83 85 96 95 91 90 85 87 116 120 119 111 101 96 94 93 97 93 89 90 94 93 93 102 117 121 121 124 130 127 106 96 97 99 112 141 133 99 33 1 0 1 2 2 3 0 1 0 0 0 0 0 0 0 0 0 0 0 0 0 0 0 0 0 0 0 0 0 0 0 0 0 0 0 0 0 0 
0 0 0 0 0 0 0 0 0 2 4 9 3 7 41 116 148 138 112 102 96 96 102 102 99 91 102 117 117 116 118 115 105 96 98 96 92 92 92 95 98 95 92 94 102 109 104 95 105 84 85 82 84 99 94 87 90 91 95 119 123 114 107 111 111 109 103 100 95 91 89 94 99 103 106 122 125 122 125 134 135 115 97 97 100 119 141 128 91 26 0 0 1 2 2 3 0 1 0 0 0 0 0 0 0 0 0 0 0 0 0 0 0 0 0 0 0 0 0 0 0 0 0 0 0 0 0 0 
0 0 0 0 0 0 0 0 0 1 3 10 4 7 32 102 142 141 113 103 100 99 101 101 100 93 105 116 117 120 125 123 116 101 98 97 92 94 99 102 102 102 104 105 98 98 96 104 108 85 82 83 83 104 94 88 87 86 91 119 133 116 102 106 116 125 135 130 124 120 123 122 126 127 131 135 124 120 126 136 137 126 103 98 107 128 141 120 84 18 1 0 2 9 6 3 0 1 0 0 0 0 0 0 0 0 0 0 0 0 0 0 0 0 0 0 0 0 0 0 0 0 0 0 0 0 0 0 
0 0 0 0 0 0 0 0 0 0 3 10 5 7 25 90 137 146 117 109 105 97 97 101 100 100 109 114 117 118 122 122 126 126 116 111 111 113 115 114 112 107 92 87 98 100 97 104 108 82 82 87 86 101 93 81 82 82 90 124 133 111 102 103 109 123 145 150 143 145 150 148 143 131 132 135 134 128 126 137 137 127 118 110 108 137 133 114 77 11 3 2 6 5 3 3 0 1 0 0 0 0 0 0 0 0 0 0 0 0 0 0 0 0 0 0 0 0 0 0 0 0 0 0 0 0 0 0 
0 0 0 0 0 0 0 0 0 0 1 9 6 8 19 80 130 151 132 111 105 95 94 100 104 112 113 115 120 120 118 120 119 121 123 128 129 120 115 111 110 103 98 97 97 94 93 103 108 88 85 91 88 104 93 79 83 88 99 128 130 113 105 107 112 125 144 150 147 151 148 142 138 127 131 127 140 143 137 136 137 131 125 127 142 141 119 112 66 8 2 2 5 3 2 3 0 1 0 0 0 0 0 0 0 0 0 0 0 0 0 0 0 0 0 0 0 0 0 0 0 0 0 0 0 0 0 0 
0 0 0 0 0 0 0 0 0 0 1 8 6 8 13 68 121 148 147 116 106 96 98 109 117 114 118 122 120 121 124 130 132 128 122 125 125 123 123 120 112 105 97 90 90 89 93 99 110 98 88 88 91 106 96 82 88 98 107 119 120 117 111 113 118 129 143 144 143 143 139 140 145 147 141 145 148 152 158 154 148 146 144 151 161 139 110 107 52 6 2 2 4 3 2 3 0 1 0 0 0 0 0 0 0 0 0 0 0 0 0 0 0 0 0 0 0 0 0 0 0 0 0 0 0 0 0 0 
0 0 0 0 0 0 0 0 0 0 0 7 8 9 13 54 113 144 152 131 112 111 116 118 124 123 125 133 128 121 132 143 148 153 152 141 138 138 127 115 103 96 98 92 87 87 95 109 111 92 94 95 89 108 95 87 90 102 110 110 117 108 111 116 119 133 150 151 154 154 149 154 154 145 132 141 141 147 159 163 169 173 168 175 177 128 120 102 31 6 4 3 3 3 2 3 0 1 0 0 0 0 0 0 0 0 0 0 0 0 0 0 0 0 0 0 0 0 0 0 0 0 0 0 0 0 0 0 
0 0 0 0 0 0 0 0 0 0 0 8 10 8 9 37 108 141 150 146 134 145 135 134 138 139 139 135 130 128 136 150 157 159 156 146 147 144 133 113 106 103 100 94 93 91 105 113 99 89 92 98 98 119 101 88 86 96 104 104 112 111 109 117 118 123 135 142 150 154 147 147 141 130 134 133 138 145 156 165 171 177 183 179 160 122 118 85 16 6 4 3 3 3 2 3 0 1 0 0 0 0 0 0 0 0 0 0 0 0 0 0 0 0 0 0 0 0 0 0 0 0 0 0 0 0 0 0 
0 0 0 0 0 0 0 0 0 0 0 4 10 7 8 12 61 127 147 148 151 168 175 159 157 154 143 136 136 140 150 157 157 156 159 150 145 143 138 117 107 105 105 102 97 94 104 111 101 92 94 100 99 114 118 95 83 89 94 103 106 104 112 117 116 117 123 133 136 135 128 133 133 127 132 141 142 145 150 158 166 168 170 166 146 120 117 93 17 6 6 4 3 3 3 4 0 1 0 0 0 0 0 0 0 0 0 0 0 0 0 0 0 0 0 0 0 0 0 0 0 0 0 0 0 0 0 0 
0 0 0 0 0 0 0 0 0 0 0 6 8 5 6 10 37 114 148 150 156 170 171 169 164 162 158 150 136 129 140 150 160 158 159 156 150 149 136 112 104 108 108 105 100 99 108 107 102 94 94 101 104 119 116 99 82 81 86 96 103 101 101 111 116 116 121 129 132 124 121 121 117 123 132 139 137 140 138 145 152 167 156 140 118 122 118 63 9 4 5 5 3 3 3 4 0 1 0 0 0 0 0 0 0 0 0 0 0 0 0 0 0 0 0 0 0 0 0 0 0 0 0 0 0 0 0 0 
0 0 0 0 0 0 0 0 0 0 0 6 5 5 5 9 22 91 144 148 148 154 158 149 163 165 161 150 138 132 132 137 145 157 158 155 148 142 130 118 109 107 109 110 99 97 111 101 97 99 99 97 93 113 121 107 83 83 92 97 103 111 109 109 102 101 116 125 127 130 131 123 123 138 145 146 139 142 139 138 145 157 136 122 123 125 108 32 6 4 5 5 2 3 3 4 0 1 0 0 0 0 0 0 0 0 0 0 0 0 0 0 0 0 0 0 0 0 0 0 0 0 0 0 0 0 0 0 
0 0 0 0 0 0 0 0 0 0 0 5 4 4 3 8 17 62 134 147 143 139 148 146 141 150 151 144 140 143 132 128 133 140 144 145 142 134 128 121 104 102 104 100 100 104 115 100 105 112 108 102 95 102 119 119 95 94 100 96 103 116 117 123 108 92 93 102 109 115 124 122 123 141 150 154 151 146 141 139 133 136 131 117 118 119 77 16 8 6 6 3 3 3 3 4 0 0 0 0 0 0 0 0 0 0 0 0 0 0 0 0 0 0 0 0 0 0 0 0 0 0 0 0 0 0 0 0 
0 0 0 0 0 0 0 0 0 0 0 4 5 4 3 8 15 34 112 135 132 132 141 146 142 134 133 132 138 149 148 131 119 120 133 141 137 130 125 107 95 92 99 105 103 108 124 109 117 119 116 109 98 99 123 122 105 100 104 105 105 119 124 127 118 94 87 88 98 107 113 126 137 138 146 155 158 152 148 145 142 137 120 99 101 111 43 11 7 7 5 1 3 4 3 4 0 0 0 0 0 0 0 0 0 0 0 0 0 0 0 0 0 0 0 0 0 0 0 0 0 0 0 0 0 0 0 0 
0 0 0 0 0 0 0 0 0 0 1 3 5 4 3 9 15 18 81 122 122 129 136 145 137 134 134 129 133 147 150 139 120 114 130 140 140 136 117 96 85 97 102 107 106 110 121 122 119 119 127 126 113 111 136 129 115 106 112 116 112 126 128 127 120 106 86 85 96 112 117 132 132 129 140 149 156 160 171 162 147 124 106 85 94 86 21 12 7 8 5 2 2 4 3 4 0 0 0 0 0 0 0 0 0 0 0 0 0 0 0 0 0 0 0 0 0 0 0 0 0 0 0 0 0 0 0 0 
0 0 0 0 0 0 0 0 0 0 1 3 4 4 3 6 13 13 48 116 129 124 136 147 148 142 139 135 142 145 146 133 118 117 119 122 120 117 108 97 90 101 103 108 118 123 125 129 132 136 142 142 147 151 151 140 138 138 131 130 127 140 140 134 126 108 92 92 104 121 115 112 125 121 133 147 159 168 178 167 134 113 94 87 101 57 13 13 8 7 6 1 2 4 3 4 0 0 0 0 0 0 0 0 0 0 0 0 0 0 0 0 0 0 0 0 0 0 0 0 0 0 0 0 0 0 0 0 
0 0 0 0 0 0 0 0 0 0 1 3 4 3 2 5 11 13 26 100 124 115 123 133 156 155 152 143 146 146 148 139 130 126 115 115 107 95 91 104 106 110 111 114 127 137 137 139 146 150 150 153 162 170 172 164 156 150 143 142 146 160 164 151 134 123 119 117 121 124 110 112 123 121 123 147 157 174 170 159 126 103 84 86 97 32 11 11 7 6 5 2 3 4 3 4 0 0 0 0 0 0 0 0 0 0 0 0 0 0 0 0 0 0 0 0 0 0 0 0 0 0 0 0 0 0 0 0 
0 0 0 0 0 0 0 0 0 0 1 3 5 2 2 5 11 13 15 68 116 118 110 119 147 161 160 153 147 142 148 146 133 129 120 118 111 103 101 107 134 132 130 130 135 147 151 150 149 141 141 145 145 145 151 154 150 142 136 138 143 159 168 166 151 144 142 136 141 118 105 107 114 119 114 138 155 175 159 145 125 114 94 98 80 19 9 9 6 5 4 1 2 4 3 4 0 0 0 0 0 0 0 0 0 0 0 0 0 0 0 0 0 0 0 0 0 0 0 0 0 0 0 0 0 0 0 0 
0 0 0 0 0 0 0 0 0 0 1 3 6 3 2 5 10 10 13 40 93 111 111 114 134 154 161 161 147 143 143 146 137 128 117 118 118 118 123 129 135 152 154 149 152 152 153 158 150 145 140 145 143 148 145 147 146 146 139 141 144 154 168 166 167 163 153 155 145 113 99 97 103 117 124 139 156 170 150 127 110 102 108 96 65 16 9 8 6 4 3 2 3 4 3 4 0 0 0 0 0 0 0 0 0 0 0 0 0 0 0 0 0 0 0 0 0 0 0 0 0 0 0 0 0 0 0 0 
0 0 0 0 0 0 0 0 0 0 0 5 12 9 3 4 8 8 11 28 80 113 120 108 121 137 156 160 152 139 138 139 133 122 110 110 113 116 121 129 137 155 166 167 162 158 160 159 150 148 147 156 156 156 151 146 146 149 137 138 140 148 157 164 169 163 154 156 146 110 88 94 110 123 143 155 158 163 147 126 99 87 98 98 58 16 8 6 6 4 2 2 3 4 4 4 0 0 0 0 0 0 0 0 0 0 0 0 0 0 0 0 0 0 0 0 0 0 0 0 0 0 0 0 0 0 0 0 
0 0 0 0 0 0 0 0 0 0 0 4 12 13 9 7 7 10 13 21 65 100 116 115 111 116 147 149 161 139 128 128 132 109 100 103 105 111 117 118 128 146 161 165 166 162 165 161 157 155 156 163 163 161 155 135 136 141 129 125 132 144 147 166 172 168 164 160 146 109 93 97 107 120 158 172 174 172 152 105 89 84 97 91 39 15 5 4 6 4 3 2 3 5 4 4 0 0 0 0 0 0 0 0 0 0 0 0 0 0 0 0 0 0 0 0 0 0 0 0 0 0 0 0 0 0 0 0 
0 0 0 0 0 0 0 0 0 0 0 3 10 11 9 8 8 12 16 16 33 84 115 116 101 111 137 153 165 148 138 131 133 110 93 99 105 110 110 108 114 140 158 159 159 159 155 152 155 154 158 170 165 162 142 117 118 127 129 124 131 147 153 163 183 174 168 162 147 118 96 98 110 133 162 164 172 157 142 97 79 80 80 64 19 14 8 5 5 5 5 6 7 5 5 4 0 0 0 0 0 0 0 0 0 0 0 0 0 0 0 0 0 0 0 0 0 0 0 0 0 0 0 0 0 0 0 0 
0 0 0 0 0 0 0 0 0 0 0 2 11 10 9 9 9 10 14 15 17 50 106 109 106 105 123 151 164 164 154 139 129 122 101 92 94 95 98 105 122 144 154 155 153 151 148 144 146 142 153 154 143 159 154 130 124 128 126 121 138 158 150 167 174 174 170 165 161 136 123 119 134 147 147 145 126 106 105 77 64 85 91 36 12 9 10 7 5 6 5 6 11 6 4 4 0 0 0 0 0 0 0 0 0 0 0 0 0 0 0 0 0 0 0 0 0 0 0 0 0 0 0 0 0 0 0 0 
0 0 0 0 0 0 0 0 0 0 0 0 9 11 7 6 6 5 10 15 19 28 70 97 91 88 111 144 151 164 164 147 133 132 119 104 103 107 113 133 137 166 172 169 169 165 161 165 169 169 167 157 160 176 179 164 152 156 157 150 159 164 177 188 172 171 167 173 164 160 141 142 141 139 115 97 90 88 92 75 93 96 52 18 10 2 2 5 5 5 5 6 8 5 2 4 0 0 0 0 0 0 0 0 0 0 0 0 0 0 0 0 0 0 0 0 0 0 0 0 0 0 0 0 0 0 0 0 
0 0 0 0 0 0 0 0 0 0 0 0 3 7 5 3 3 3 4 11 17 20 37 80 86 74 90 103 101 140 146 148 142 139 131 114 116 123 136 145 168 176 181 191 188 194 189 194 188 178 178 179 179 177 177 169 167 175 180 180 185 190 202 202 193 198 187 182 147 137 145 142 108 87 76 81 81 81 86 74 71 47 28 22 14 2 1 2 2 3 4 7 7 1 2 4 0 0 0 0 0 0 0 0 0 0 0 0 0 0 0 0 0 0 0 0 0 0 0 0 0 0 0 0 0 0 0 0 
0 0 0 0 0 0 0 0 0 0 0 0 0 3 3 2 1 0 1 7 14 20 25 45 79 83 66 56 65 76 95 108 133 135 128 124 118 130 146 165 167 166 176 185 181 191 186 181 184 172 166 168 168 167 162 157 158 163 163 169 168 189 201 180 158 182 164 157 149 137 120 105 90 80 75 88 91 89 69 47 41 39 36 26 18 0 1 1 1 1 2 7 6 1 2 4 0 0 0 0 0 0 0 0 0 0 0 0 0 0 0 0 0 0 0 0 0 0 0 0 0 0 0 0 0 0 0 0 
0 0 0 0 0 0 0 0 0 0 0 0 0 2 5 4 4 3 2 4 10 13 19 22 36 50 35 43 67 62 64 62 81 84 79 94 82 74 75 75 91 118 136 146 137 136 134 121 128 104 93 107 117 121 117 111 97 94 109 104 100 113 100 139 135 153 122 79 63 64 60 66 63 53 57 78 83 82 49 29 28 26 19 8 3 1 4 4 3 2 1 7 5 1 2 4 0 0 0 0 0 0 0 0 0 0 0 0 0 0 0 0 0 0 0 0 0 0 0 0 0 0 0 0 0 0 0 0 
0 0 0 0 0 0 0 0 0 0 0 0 0 0 3 3 3 3 2 1 6 9 13 16 22 22 22 34 66 65 60 61 62 65 60 65 69 60 68 71 83 88 83 81 89 95 82 71 76 78 60 75 92 92 90 89 73 62 76 75 82 100 87 78 77 93 91 93 103 99 66 61 61 55 58 76 84 81 48 29 27 24 16 6 2 1 2 2 2 2 3 4 1 0 2 4 0 0 0 0 0 0 0 0 0 0 0 0 0 0 0 0 0 0 0 0 0 0 0 0 0 0 0 0 0 0 0 0 
0 0 0 0 0 0 0 0 0 0 0 0 0 0 0 0 0 1 0 0 3 9 10 15 20 26 27 36 69 74 66 65 68 71 67 68 77 94 115 128 140 139 107 99 102 104 97 98 105 90 75 91 98 96 94 93 87 78 95 107 107 115 102 93 117 137 108 96 95 98 89 82 78 75 75 86 92 84 49 34 29 24 14 9 1 0 0 0 0 1 1 1 0 0 1 3 0 0 0 0 0 0 0 0 0 0 0 0 0 0 0 0 0 0 0 0 0 0 0 0 0 0 0 0 0 0 0 0 
0 0 0 0 0 0 0 0 0 0 0 0 0 0 0 0 0 0 0 0 0 4 5 8 14 28 33 44 76 87 79 75 78 86 85 92 103 111 115 143 154 168 154 135 143 162 157 160 148 125 115 125 128 125 120 125 118 115 120 139 145 152 144 147 150 159 122 125 116 125 119 109 92 82 82 86 84 78 50 36 25 16 9 8 1 0 0 0 0 0 0 0 0 0 0 2 0 0 0 0 0 0 0 0 0 0 0 0 0 0 0 0 0 0 0 0 0 0 0 0 0 0 0 0 0 0 0 0 
0 0 0 0 0 0 0 0 0 0 0 0 0 0 0 0 0 0 0 0 0 2 3 5 9 23 29 40 63 79 71 70 80 87 92 90 94 107 126 118 159 169 168 161 174 176 166 180 170 163 164 156 162 163 159 154 156 154 154 156 152 167 166 160 155 162 153 123 142 146 125 131 96 73 58 69 77 55 34 24 17 10 7 2 0 0 0 0 0 0 0 0 0 0 0 1 0 1 0 0 0 0 0 0 0 0 0 0 0 0 0 0 0 0 0 0 0 0 0 0 0 0 0 0 0 0 0 0 
0 0 0 0 0 0 0 0 0 0 0 0 0 0 0 0 0 0 0 0 0 0 2 3 8 17 27 34 54 75 75 70 73 76 76 74 78 96 103 98 126 127 119 106 126 137 155 168 161 151 140 135 140 133 138 132 136 133 132 131 134 141 126 133 134 124 127 131 157 151 115 75 51 51 60 82 80 47 26 22 14 7 6 1 0 1 1 1 1 0 0 1 1 3 4 6 0 2 0 0 0 0 0 0 0 0 0 0 0 0 0 0 0 0 0 0 0 0 0 0 0 0 0 0 0 0 0 0 
0 0 0 0 0 0 0 0 0 0 0 0 0 0 0 0 0 0 0 0 0 0 4 7 8 15 20 22 33 55 67 66 64 64 57 55 55 69 102 115 110 112 109 97 96 107 130 133 123 117 114 98 105 99 104 94 102 107 105 106 111 128 129 108 116 127 136 131 132 116 97 68 53 56 73 101 86 46 24 19 17 12 7 1 0 0 1 1 1 0 0 0 0 0 2 5 0 0 0 0 0 0 0 0 0 0 0 0 0 0 0 0 0 0 0 0 0 0 0 0 0 0 0 0 0 0 0 0 
0 0 0 0 0 0 0 0 0 0 0 0 0 0 0 0 0 0 0 0 0 0 2 7 8 13 18 21 25 46 62 73 73 68 57 50 53 67 88 99 99 100 99 102 109 123 129 128 118 112 106 86 92 93 95 91 104 112 115 108 105 115 106 92 83 104 122 125 125 107 92 66 55 58 81 107 88 50 25 19 18 12 6 1 0 0 1 1 1 0 0 0 0 0 2 5 0 0 0 0 0 0 0 0 0 0 0 0 0 0 0 0 0 0 0 0 0 0 0 0 0 0 0 0 0 0 0 0 
0 0 0 0 0 0 0 0 0 0 0 0 0 0 0 0 0 0 0 0 0 0 1 5 9 10 16 22 23 40 59 74 77 70 62 53 48 58 73 96 93 84 89 92 100 110 119 130 126 116 112 98 101 99 97 93 104 103 117 122 112 121 120 107 101 97 109 116 107 94 78 60 56 64 89 111 87 52 25 19 17 11 5 0 0 0 0 1 1 0 0 0 0 0 2 5 0 0 0 0 0 0 0 0 0 0 0 0 0 0 0 0 0 0 0 0 0 0 0 0 0 0 0 0 0 0 0 0 
0 0 0 0 0 0 0 0 0 0 0 0 0 0 0 0 0 0 0 0 0 0 0 3 6 10 13 19 22 33 49 69 78 73 67 56 51 56 58 66 71 77 85 91 99 105 113 120 134 127 116 105 104 101 93 92 97 96 109 118 121 140 130 110 101 94 99 107 108 98 80 64 58 67 95 112 81 51 26 18 15 10 3 0 0 0 0 1 1 1 0 0 0 0 2 4 0 0 0 0 0 0 0 0 0 0 0 0 0 0 0 0 0 0 0 0 0 0 0 0 0 0 0 0 0 0 0 0 
0 0 0 0 0 0 0 0 0 0 0 0 0 0 0 0 0 0 0 0 0 0 0 0 5 8 11 16 20 28 44 61 81 77 70 61 58 51 53 60 66 73 86 92 101 104 103 110 124 117 114 107 101 100 93 93 97 98 106 110 118 124 119 104 102 103 98 92 95 94 81 72 65 71 95 108 81 53 26 17 15 9 2 0 0 0 1 1 1 1 0 0 0 0 2 4 0 0 0 0 0 0 0 0 0 0 0 0 0 0 0 0 0 0 0 0 0 0 0 0 0 0 0 0 0 0 0 0 
0 0 0 0 0 0 0 0 0 0 0 0 0 0 0 0 0 0 0 0 0 0 0 0 2 5 9 13 18 25 43 55 79 76 75 70 63 54 55 57 64 69 85 98 106 103 96 94 102 106 113 107 98 98 95 92 95 101 105 104 113 110 109 101 106 109 103 87 76 74 68 68 71 79 96 104 78 45 20 16 15 8 1 0 0 0 0 1 1 1 0 0 0 0 1 4 0 0 0 0 0 0 0 0 0 0 0 0 0 0 0 0 0 0 0 0 0 0 0 0 0 0 0 0 0 0 0 0 
0 0 0 0 0 0 0 0 0 0 0 0 0 0 0 0 0 0 0 0 0 0 0 0 0 4 6 12 14 19 33 52 66 71 77 75 66 60 55 54 60 69 83 93 99 98 94 89 88 94 108 101 95 91 93 95 95 100 99 102 108 107 100 89 96 97 96 84 74 66 61 70 78 85 101 87 48 23 17 16 16 8 1 0 0 0 0 1 1 1 0 0 0 0 2 4 0 0 0 0 0 0 0 0 0 0 0 0 0 0 0 0 0 0 0 0 0 0 0 0 0 0 0 0 0 0 0 0 
0 0 0 0 0 0 0 0 0 0 0 0 0 0 0 0 0 0 0 0 0 0 0 0 0 3 4 9 14 17 21 32 40 44 71 78 70 64 57 52 56 66 79 79 90 92 93 88 87 95 109 104 98 96 97 96 96 99 100 97 100 98 93 87 92 88 84 77 73 64 60 72 81 91 99 43 18 17 18 18 16 7 0 0 0 0 0 1 1 1 0 0 0 0 1 4 0 0 0 0 0 0 0 0 0 0 0 0 0 0 0 0 0 0 0 0 0 0 0 0 0 0 0 0 0 0 0 0 
0 0 0 0 0 0 0 0 0 0 0 0 0 0 0 0 0 0 0 0 0 0 0 0 0 0 5 5 12 17 19 20 18 16 32 76 79 71 65 62 59 60 69 71 78 80 87 88 91 98 98 99 97 93 88 91 102 101 95 90 96 97 96 87 86 82 73 71 71 68 70 80 87 94 71 23 16 16 17 18 14 6 0 0 0 0 0 1 1 1 0 0 0 0 2 4 0 0 0 0 0 0 0 0 0 0 0 0 0 0 0 0 0 0 0 0 0 0 0 0 0 0 0 0 0 0 0 0 
0 0 0 0 0 0 0 0 0 0 0 0 0 0 0 0 0 0 0 0 0 0 0 0 0 0 2 5 8 14 18 18 18 17 14 37 76 79 74 68 67 65 68 72 79 78 81 87 102 103 94 94 99 95 90 91 101 104 95 88 96 100 105 95 91 82 81 77 75 75 81 88 89 76 35 19 15 16 18 17 12 6 1 0 0 0 0 0 1 1 0 0 0 0 1 4 0 0 0 0 0 0 0 0 0 0 0 0 0 0 0 0 0 0 0 0 0 0 0 0 0 0 0 0 0 0 0 0 
0 0 0 0 0 0 0 0 0 0 0 0 0 0 0 0 0 0 0 0 0 0 0 0 0 0 0 3 6 9 16 18 17 17 14 13 37 70 80 80 75 72 74 79 87 88 86 85 95 102 96 97 99 97 93 100 109 110 108 102 104 111 104 95 94 88 86 86 86 88 93 92 74 37 24 18 14 16 17 15 11 6 1 0 0 0 0 0 1 1 0 0 0 0 1 4 0 0 0 0 0 0 0 0 0 0 0 0 0 0 0 0 0 0 0 0 0 0 0 0 0 0 0 0 0 0 0 0 
0 0 0 0 0 0 0 0 0 0 0 0 0 0 0 0 0 0 0 0 0 0 0 0 0 0 0 2 5 7 12 17 17 17 14 13 17 33 62 78 82 85 85 86 98 98 91 88 89 102 101 94 97 97 95 103 106 108 111 107 101 104 104 99 97 98 101 98 95 93 90 71 36 26 23 17 14 16 16 14 10 6 1 0 0 0 0 0 1 1 0 0 0 0 1 4 0 0 0 0 0 0 0 0 0 0 0 0 0 0 0 0 0 0 0 0 0 0 0 0 0 0 0 0 0 0 0 0 
0 0 0 0 0 0 0 0 0 0 0 0 0 0 0 0 0 0 0 0 0 0 0 0 0 0 0 1 4 7 9 15 17 17 16 13 17 22 29 51 74 86 92 96 104 108 101 96 100 107 100 93 94 101 103 107 108 105 113 115 106 103 113 106 104 106 108 106 98 85 60 35 28 26 22 17 15 15 15 13 9 5 1 0 0 0 0 0 1 1 1 0 0 0 1 4 0 0 0 0 0 0 0 0 0 0 0 0 0 0 0 0 0 0 0 0 0 0 0 0 0 0 0 0 0 0 0 0 
0 0 0 0 0 0 0 0 0 0 0 0 0 0 0 0 0 0 0 0 0 0 0 0 0 0 0 0 1 7 7 13 16 17 15 12 14 21 26 28 38 60 81 91 105 110 107 104 104 106 107 102 104 102 98 101 102 105 112 114 112 105 112 114 111 107 109 101 81 49 30 29 28 24 21 17 14 15 15 12 9 5 1 0 0 0 0 0 1 1 1 0 0 0 0 4 0 0 0 0 0 0 0 0 0 0 0 0 0 0 0 0 0 0 0 0 0 0 0 0 0 0 0 0 0 0 0 0 
0 0 0 0 0 0 0 0 0 0 0 0 0 0 0 0 0 0 0 0 0 0 0 0 0 0 0 0 0 7 6 10 15 17 16 13 12 20 26 29 31 33 41 60 84 95 99 98 99 103 110 110 107 101 96 98 98 103 112 107 109 112 115 112 109 99 85 62 43 37 29 28 26 23 18 16 13 15 15 12 9 4 1 0 0 0 0 0 1 1 0 0 0 0 1 4 0 0 0 0 0 0 0 0 0 0 0 0 0 0 0 0 0 0 0 0 0 0 0 0 0 0 0 0 0 0 0 0 
0 0 0 0 0 0 0 0 0 0 0 0 0 0 0 0 0 0 0 0 0 0 0 0 0 0 0 0 0 4 6 8 13 16 16 13 12 19 25 28 30 32 32 38 50 69 81 88 89 92 102 106 101 100 102 104 104 105 114 112 114 106 104 98 89 70 52 48 41 36 28 28 26 22 17 14 14 15 15 13 9 3 1 0 0 0 0 0 1 1 1 0 0 0 1 4 0 0 0 0 0 0 0 0 0 0 0 0 0 0 0 0 0 0 0 0 0 0 0 0 0 0 0 0 0 0 0 0 
