P2
128 99
255
0 0 0 0 0 0 0 0 0 0 0 0 0 0 0 0 0 0 0 0 0 0 0 0 0 0 0 0 0 0 0 0 0 0 0 0 0 0 0 0 0 0 0 0 0 0 0 0 0 0 0 0 0 0 0 0 0 0 0 0 0 0 0 0 0 0 0 0 0 0 0 0 0 0 0 0 0 0 0 0 0 0 0 0 0 0 0 0 0 0 0 0 0 0 0 0 0 0 0 0 0 0 0 0 0 0 0 0 0 0 0 0 0 0 0 0 0 0 0 0 0 0 0 0 0 0 0 0 
0 0 0 0 0 0 0 0 0 0 0 0 0 0 0 0 0 0 0 0 0 0 0 0 0 0 0 0 0 0 0 0 0 0 0 0 0 0 0 0 0 0 0 0 0 0 0 0 0 0 0 0 0 0 0 0 0 0 0 0 0 0 0 0 0 0 0 0 0 0 0 0 0 0 0 0 0 0 0 0 0 0 0 0 0 0 0 0 0 0 0 0 0 0 0 0 0 0 0 0 0 0 0 0 0 0 0 0 0 0 0 0 0 0 0 0 0 0 0 0 0 0 0 0 0 0 0 0 
0 0 0 0 0 0 0 0 0 0 0 0 0 0 0 0 0 0 0 0 0 0 0 0 0 0 0 0 0 0 0 0 0 0 0 0 0 0 0 0 0 0 0 0 0 0 0 0 0 0 0 0 0 0 0 0 0 0 0 0 0 0 0 0 0 0 0 0 0 0 0 0 0 0 0 0 0 0 0 0 0 0 0 0 0 0 0 0 0 0 0 0 0 0 0 0 0 0 0 0 0 0 0 0 0 0 0 0 0 0 0 0 0 0 0 0 0 0 0 0 0 0 0 0 0 0 0 0 
0 0 0 0 0 0 0 0 0 0 0 0 0 0 0 0 0 0 0 0 0 0 0 0 0 0 0 0 0 0 0 0 0 0 0 0 0 0 0 0 0 0 0 0 0 1 21 29 24 17 12 12 13 23 24 17 12 7 8 9 4 0 0 0 0 0 0 0 0 0 0 0 0 0 0 0 0 0 0 0 0 0 0 0 0 0 0 0 0 0 0 0 0 0 0 0 0 0 0 0 0 0 0 0 0 0 0 0 0 0 0 0 0 0 0 0 0 0 0 0 0 0 0 0 0 0 0 0 
0 0 0 0 0 0 0 0 0 0 0 0 0 0 0 0 0 0 0 0 0 0 0 0 0 0 0 0 0 0 0 0 0 0 0 0 0 0 0 0 0 1 18 32 26 22 44 79 103 123 143 132 138 142 124 119 107 85 61 48 31 10 10 10 1 0 0 0 0 0 0 0 0 0 0 0 0 0 0 0 0 0 0 0 0 0 0 0 0 0 0 0 0 0 0 0 0 0 0 0 0 0 0 0 0 0 0 0 0 0 0 0 0 0 0 0 0 0 0 0 0 0 0 0 0 0 0 0 
0 0 0 0 0 0 0 0 0 0 0 0 0 0 0 0 0 0 0 0 0 0 0 0 0 0 0 0 0 0 0 0 0 0 0 0 0 0 0 7 31 25 21 65 116 154 166 178 192 203 194 192 190 194 195 197 196 192 190 167 144 120 69 49 16 9 9 0 0 0 0 0 0 0 0 0 0 0 0 0 0 0 0 0 0 0 0 0 0 0 0 0 0 0 0 0 0 0 0 0 0 0 0 0 0 0 0 0 0 0 0 0 0 0 0 0 0 0 0 0 0 0 0 0 0 0 0 0 
0 0 0 0 0 0 0 0 0 0 0 0 0 0 0 0 0 0 0 0 0 0 0 0 0 0 0 0 0 0 0 0 0 0 0 0 0 20 32 24 43 104 158 185 179 196 176 145 199 206 206 206 207 207 206 206 205 201 163 142 169 190 174 149 125 75 45 11 12 3 0 0 0 0 0 0 0 0 0 0 0 0 0 0 0 0 0 0 0 0 0 0 0 0 0 0 0 0 0 0 0 0 0 0 0 0 0 0 0 0 0 0 0 0 0 0 0 0 0 0 0 0 0 0 0 0 0 0 
0 0 0 0 0 0 0 0 0 0 0 0 0 0 0 0 0 0 0 0 0 0 0 0 0 0 0 0 0 0 0 0 0 0 0 19 29 17 45 131 175 182 196 177 148 174 208 192 166 166 193 191 183 170 178 183 201 209 164 171 202 197 139 148 192 175 143 100 50 22 11 1 0 0 0 0 0 0 0 0 0 0 0 0 0 0 0 0 0 0 0 0 0 0 0 0 0 0 0 0 0 0 0 0 0 0 0 0 0 0 0 0 0 0 0 0 0 0 0 0 0 0 0 0 0 0 0 0 
0 0 0 0 0 0 0 0 0 0 0 0 0 0 0 0 0 0 0 0 0 0 0 0 0 0 0 0 0 0 0 0 0 18 28 15 42 138 175 181 193 145 133 159 188 134 175 161 154 161 170 166 163 157 158 164 121 182 200 206 199 200 145 199 200 143 195 193 156 98 47 28 9 0 0 0 0 0 0 0 0 0 0 0 0 0 0 0 0 0 0 0 0 0 0 0 0 0 0 0 0 0 0 0 0 0 0 0 0 0 0 0 0 0 0 0 0 0 0 0 0 0 0 0 0 0 0 0 
0 0 0 0 0 0 0 0 0 0 0 0 0 0 0 0 0 0 0 0 0 0 0 0 0 0 0 0 0 0 0 1 28 19 11 117 170 178 186 145 133 193 171 178 164 161 205 146 127 130 135 145 149 146 153 152 158 160 154 159 216 214 207 209 194 167 198 198 195 196 143 76 35 21 0 0 0 0 0 0 0 0 0 0 0 0 0 0 0 0 0 0 0 0 0 0 0 0 0 0 0 0 0 0 0 0 0 0 0 0 0 0 0 0 0 0 0 0 0 0 0 0 0 0 0 0 0 0 
0 0 0 0 0 0 0 0 0 0 0 0 0 0 0 0 0 0 0 0 0 0 0 0 0 0 0 0 0 0 16 22 13 59 166 188 187 142 163 196 154 194 172 161 161 168 142 136 133 127 132 139 145 141 146 143 145 146 153 170 178 173 215 229 214 205 204 156 199 200 195 177 114 41 30 4 0 0 0 0 0 0 0 0 0 0 0 0 0 0 0 0 0 0 0 0 0 0 0 0 0 0 0 0 0 0 0 0 0 0 0 0 0 0 0 0 0 0 0 0 0 0 0 0 0 0 0 0 
0 0 0 0 0 0 0 0 0 0 0 0 0 0 0 0 0 0 0 0 0 0 0 0 0 0 0 0 0 25 15 16 140 185 190 189 191 207 173 209 182 173 172 161 161 151 147 147 142 142 116 99 91 111 140 140 140 140 146 150 161 171 164 207 215 225 214 202 206 158 206 202 192 145 55 26 10 0 0 0 0 0 0 0 0 0 0 0 0 0 0 0 0 0 0 0 0 0 0 0 0 0 0 0 0 0 0 0 0 0 0 0 0 0 0 0 0 0 0 0 0 0 0 0 0 0 0 0 
0 0 0 0 0 0 0 0 0 0 0 0 0 0 0 0 0 0 0 0 0 0 0 0 0 0 0 0 16 29 40 166 187 192 196 211 175 213 196 170 171 168 115 40 34 43 100 133 133 131 90 96 91 68 118 55 39 39 41 60 147 158 166 174 153 184 244 225 220 208 196 177 201 192 158 67 26 5 0 0 0 0 0 0 0 0 0 0 0 0 0 0 0 0 0 0 0 0 0 0 0 0 0 0 0 0 0 0 0 0 0 0 0 0 0 0 0 0 0 0 0 0 0 0 0 0 0 0 
0 0 0 0 0 0 0 0 0 0 0 0 0 0 0 0 0 0 0 0 0 0 0 0 0 0 0 16 54 79 182 186 197 216 187 205 207 185 172 169 165 105 32 30 28 29 31 34 50 74 85 99 83 55 52 40 33 31 30 30 48 166 181 162 165 177 142 168 238 228 215 198 137 195 191 168 77 25 1 0 0 0 0 0 0 0 0 0 0 0 0 0 0 0 0 0 0 0 0 0 0 0 0 0 0 0 0 0 0 0 0 0 0 0 0 0 0 0 0 0 0 0 0 0 0 0 0 0 
0 0 0 0 0 0 0 0 0 0 0 0 0 0 0 0 0 0 0 0 0 0 0 0 0 0 16 44 79 177 183 204 225 209 212 199 171 158 169 162 54 25 25 25 26 29 35 50 53 54 54 53 54 50 48 48 43 30 29 29 30 42 170 157 166 186 163 174 137 168 233 224 205 155 189 194 176 93 26 0 0 0 0 0 0 0 0 0 0 0 0 0 0 0 0 0 0 0 0 0 0 0 0 0 0 0 0 0 0 0 0 0 0 0 0 0 0 0 0 0 0 0 0 0 0 0 0 0 
0 0 0 0 0 0 0 0 0 0 0 0 0 0 0 0 0 0 0 0 0 0 0 0 0 17 41 87 175 184 207 211 183 192 178 155 169 169 162 37 25 24 27 29 29 37 46 48 52 54 53 54 49 46 46 46 48 46 36 34 35 36 39 170 177 154 159 162 160 170 189 131 237 206 175 196 194 173 118 31 0 0 0 0 0 0 0 0 0 0 0 0 0 0 0 0 0 0 0 0 0 0 0 0 0 0 0 0 0 0 0 0 0 0 0 0 0 0 0 0 0 0 0 0 0 0 0 0 
0 0 0 0 0 0 0 0 0 0 0 0 0 0 0 0 0 0 0 0 0 0 0 0 13 42 156 173 184 208 217 198 185 157 160 160 165 115 31 24 24 28 28 33 33 45 43 47 44 45 49 49 47 46 45 45 47 48 46 45 44 44 39 44 116 173 155 151 161 155 158 172 151 182 209 160 195 199 188 127 34 0 0 0 0 0 0 0 0 0 0 0 0 0 0 0 0 0 0 0 0 0 0 0 0 0 0 0 0 0 0 0 0 0 0 0 0 0 0 0 0 0 0 0 0 0 0 0 
0 0 0 0 0 0 0 0 0 0 0 0 0 0 0 0 0 0 0 0 0 0 0 18 45 162 171 193 213 182 183 161 143 151 162 169 165 34 29 27 31 29 29 37 44 47 45 44 48 45 49 50 44 45 49 46 44 46 46 44 43 41 40 43 48 62 153 159 142 139 164 148 112 140 175 209 161 197 199 179 139 29 0 0 0 0 0 0 0 0 0 0 0 0 0 0 0 0 0 0 0 0 0 0 0 0 0 0 0 0 0 0 0 0 0 0 0 0 0 0 0 0 0 0 0 0 0 0 
0 0 0 0 0 0 0 0 0 0 0 0 0 0 0 0 0 0 0 0 0 0 21 44 93 169 186 206 189 182 162 142 151 160 157 156 34 29 35 33 38 44 43 44 46 45 44 48 49 45 43 47 47 46 47 45 42 44 47 44 48 43 44 43 43 44 50 103 159 142 133 148 141 153 180 223 165 206 197 190 169 129 4 0 0 0 0 0 0 0 0 0 0 0 0 0 0 0 0 0 0 0 0 0 0 0 0 0 0 0 0 0 0 0 0 0 0 0 0 0 0 0 0 0 0 0 0 0 
0 0 0 0 0 0 0 0 0 0 0 0 0 0 0 0 0 0 0 0 0 14 44 91 166 187 198 217 164 138 133 147 155 156 112 41 40 45 43 45 43 42 42 45 43 50 52 48 51 46 50 54 61 62 60 57 51 48 45 44 44 45 45 43 42 46 43 45 96 170 137 136 133 139 150 166 207 158 184 197 195 171 116 0 0 0 0 0 0 0 0 0 0 0 0 0 0 0 0 0 0 0 0 0 0 0 0 0 0 0 0 0 0 0 0 0 0 0 0 0 0 0 0 0 0 0 0 0 
0 0 0 0 0 0 0 0 0 0 0 0 0 0 0 0 0 0 0 0 4 44 89 169 179 196 215 123 158 132 147 152 149 149 42 43 44 47 43 45 42 47 46 45 43 46 55 64 64 74 79 88 51 53 74 90 92 98 88 71 49 43 46 46 45 45 44 41 44 58 145 140 134 134 135 142 168 161 217 162 192 183 164 6 0 0 0 0 0 0 0 0 0 0 0 0 0 0 0 0 0 0 0 0 0 0 0 0 0 0 0 0 0 0 0 0 0 0 0 0 0 0 0 0 0 0 0 0 
0 0 0 0 0 0 0 0 0 0 0 0 0 0 0 0 0 0 0 0 71 146 155 179 186 211 140 154 128 147 150 146 147 45 43 42 47 44 47 45 46 42 43 43 61 71 64 69 71 81 90 83 93 96 99 99 99 92 89 54 57 77 41 47 45 45 46 45 45 45 53 118 131 125 128 136 142 154 190 172 196 192 184 151 0 0 0 0 0 0 0 0 0 0 0 0 0 0 0 0 0 0 0 0 0 0 0 0 0 0 0 0 0 0 0 0 0 0 0 0 0 0 0 0 0 0 0 0 
0 0 0 0 0 0 0 0 0 0 0 0 0 0 0 0 0 0 0 27 140 94 173 185 198 120 152 133 146 147 141 140 60 46 47 43 46 47 46 49 45 47 53 73 72 84 97 99 93 88 88 95 97 102 98 97 101 99 96 89 90 78 75 53 49 46 45 45 47 44 44 53 109 132 128 135 134 136 156 164 176 199 185 176 72 0 0 0 0 0 0 0 0 0 0 0 0 0 0 0 0 0 0 0 0 0 0 0 0 0 0 0 0 0 0 0 0 0 0 0 0 0 0 0 0 0 0 0 
0 0 0 0 0 0 0 0 0 0 0 0 0 0 0 0 0 0 11 82 152 158 181 200 147 154 133 136 141 144 138 66 45 42 41 44 44 44 48 43 47 65 72 79 93 92 90 91 89 91 95 94 95 93 95 89 95 90 90 90 89 84 84 58 58 47 46 44 46 44 46 45 49 106 134 129 146 135 138 150 200 206 188 178 89 0 0 0 0 0 0 0 0 0 0 0 0 0 0 0 0 0 0 0 0 0 0 0 0 0 0 0 0 0 0 0 0 0 0 0 0 0 0 0 0 0 0 0 
0 0 0 0 0 0 0 0 0 0 0 0 0 0 0 0 0 0 20 83 161 174 189 185 131 141 129 144 140 144 88 37 44 43 41 44 47 49 49 46 72 77 86 88 87 87 88 88 94 95 96 97 98 97 102 100 97 96 95 93 89 88 86 75 58 52 45 47 44 45 44 44 45 50 112 137 145 129 130 136 143 209 197 176 169 1 0 0 0 0 0 0 0 0 0 0 0 0 0 0 0 0 0 0 0 0 0 0 0 0 0 0 0 0 0 0 0 0 0 0 0 0 0 0 0 0 0 0 
0 0 0 0 0 0 0 0 0 0 0 0 0 0 0 0 0 4 18 92 147 184 187 135 150 122 144 138 145 98 44 44 40 41 42 46 43 47 48 66 75 91 90 93 91 93 97 99 97 101 103 103 107 109 107 107 106 105 102 103 100 96 87 81 70 75 48 45 46 49 45 42 46 45 51 135 140 142 130 122 171 155 201 185 172 80 0 0 0 0 0 0 0 0 0 0 0 0 0 0 0 0 0 0 0 0 0 0 0 0 0 0 0 0 0 0 0 0 0 0 0 0 0 0 0 0 0 0 
0 0 0 0 0 0 0 0 0 0 0 0 0 0 0 0 0 7 81 68 172 175 165 175 131 125 137 141 98 39 40 41 47 43 44 45 44 49 73 74 92 101 102 103 105 105 107 107 102 106 115 115 113 111 94 95 101 104 102 104 97 106 107 95 81 77 78 48 44 46 45 44 44 40 44 53 114 128 139 121 175 146 189 177 165 163 0 0 0 0 0 0 0 0 0 0 0 0 0 0 0 0 0 0 0 0 0 0 0 0 0 0 0 0 0 0 0 0 0 0 0 0 0 0 0 0 0 0 
0 0 0 0 0 0 0 0 0 0 0 0 0 0 0 0 0 14 27 142 183 159 148 109 129 133 134 52 36 42 42 38 45 45 46 46 47 69 88 104 103 100 103 100 101 104 106 110 110 106 110 111 109 102 93 98 99 100 103 103 99 101 103 108 102 85 70 77 52 48 48 43 44 38 40 44 39 99 125 124 129 128 176 181 175 168 1 0 0 0 0 0 0 0 0 0 0 0 0 0 0 0 0 0 0 0 0 0 0 0 0 0 0 0 0 0 0 0 0 0 0 0 0 0 0 0 0 0 
0 0 0 0 0 0 0 0 0 0 0 0 0 0 0 0 0 18 126 184 171 149 144 92 128 129 92 34 37 41 44 41 44 41 47 47 74 90 103 101 103 98 101 100 104 107 106 108 104 99 102 105 106 114 107 99 98 101 96 101 107 105 101 102 105 106 83 72 71 53 45 44 45 43 44 41 34 39 117 122 125 192 163 188 161 165 77 0 0 0 0 0 0 0 0 0 0 0 0 0 0 0 0 0 0 0 0 0 0 0 0 0 0 0 0 0 0 0 0 0 0 0 0 0 0 0 0 0 
0 0 0 0 0 0 0 0 0 0 0 0 0 0 0 0 9 26 126 174 147 137 108 106 132 100 38 34 44 39 44 44 47 46 44 77 91 106 104 105 97 99 99 102 103 98 97 105 106 98 99 97 106 99 90 96 97 98 96 102 95 88 96 103 106 105 111 86 68 75 59 47 47 46 46 45 32 31 63 121 121 188 128 182 171 164 82 0 0 0 0 0 0 0 0 0 0 0 0 0 0 0 0 0 0 0 0 0 0 0 0 0 0 0 0 0 0 0 0 0 0 0 0 0 0 0 0 0 
0 0 0 0 0 0 0 0 0 0 0 0 0 0 0 0 15 45 164 162 133 130 105 120 123 50 33 38 39 46 44 49 45 51 79 94 109 104 98 98 107 86 85 94 104 104 107 104 91 97 98 94 103 96 93 97 92 98 98 94 98 98 107 100 108 107 111 106 83 78 68 56 47 48 46 44 42 35 49 119 115 123 120 181 159 155 156 0 0 0 0 0 0 0 0 0 0 0 0 0 0 0 0 0 0 0 0 0 0 0 0 0 0 0 0 0 0 0 0 0 0 0 0 0 0 0 0 0 
0 0 0 0 0 0 0 0 0 0 0 0 0 0 0 0 13 111 203 146 119 123 97 128 72 37 37 43 45 42 42 41 53 78 103 107 108 99 106 92 42 45 47 59 95 94 99 86 87 90 91 91 102 94 82 80 77 81 93 99 99 101 103 100 98 101 114 115 109 87 77 61 46 43 44 46 43 34 46 113 113 124 131 172 163 168 162 3 0 0 0 0 0 0 0 0 0 0 0 0 0 0 0 0 0 0 0 0 0 0 0 0 0 0 0 0 0 0 0 0 0 0 0 0 0 0 0 0 
0 0 0 0 0 0 0 0 0 0 0 0 0 0 0 0 25 130 161 127 119 119 103 105 46 38 46 45 41 48 47 46 64 102 114 114 103 106 92 51 44 50 42 47 70 96 100 82 84 92 94 96 95 95 93 89 88 91 93 93 88 83 64 46 66 85 94 109 117 111 89 72 50 42 45 41 42 39 37 91 96 109 135 162 165 163 168 75 0 0 0 0 0 0 0 0 0 0 0 0 0 0 0 0 0 0 0 0 0 0 0 0 0 0 0 0 0 0 0 0 0 0 0 0 0 0 0 0 
0 0 0 0 0 0 0 0 0 0 0 0 0 0 0 3 34 171 189 127 111 107 190 52 41 40 42 42 41 43 50 54 100 116 114 113 110 107 63 45 47 46 47 44 45 93 93 85 94 96 101 95 101 95 92 92 90 89 92 78 43 45 43 46 46 44 62 88 111 120 103 91 74 60 46 42 45 41 39 63 101 113 141 157 172 174 170 83 0 0 0 0 0 0 0 0 0 0 0 0 0 0 0 0 0 0 0 0 0 0 0 0 0 0 0 0 0 0 0 0 0 0 0 0 0 0 0 0 
0 0 0 0 0 0 0 0 0 0 0 0 0 0 0 6 111 171 148 127 103 111 93 40 42 42 45 42 43 49 59 84 117 116 110 113 88 86 96 53 44 47 44 47 46 46 87 95 98 93 98 104 100 91 92 94 90 90 91 66 44 43 45 47 46 45 74 97 103 109 111 92 85 75 49 49 45 43 39 56 108 115 137 155 177 175 171 87 0 0 0 0 0 0 0 0 0 0 0 0 0 0 0 0 0 0 0 0 0 0 0 0 0 0 0 0 0 0 0 0 0 0 0 0 0 0 0 0 
0 0 0 0 0 0 0 0 0 0 0 0 0 0 0 13 133 170 148 123 105 119 104 38 43 43 45 46 46 67 80 120 118 118 114 96 87 79 104 112 110 89 46 46 45 44 44 84 90 91 97 98 97 92 86 96 98 100 100 44 44 49 43 45 47 89 117 98 113 112 129 106 93 80 75 52 44 42 41 54 110 197 112 156 179 177 177 92 0 0 0 0 0 0 0 0 0 0 0 0 0 0 0 0 0 0 0 0 0 0 0 0 0 0 0 0 0 0 0 0 0 0 0 0 0 0 0 0 
0 0 0 0 0 0 0 0 0 0 0 0 0 0 0 18 106 175 153 127 116 127 82 35 37 41 39 43 50 69 108 121 116 120 124 84 55 44 45 46 67 71 65 45 44 42 39 59 96 102 112 107 104 112 117 65 39 44 40 47 44 44 44 77 87 66 58 48 46 54 94 101 101 103 109 103 58 45 37 50 114 117 188 155 178 179 176 172 2 0 0 0 0 0 0 0 0 0 0 0 0 0 0 0 0 0 0 0 0 0 0 0 0 0 0 0 0 0 0 0 0 0 0 0 0 0 0 0 
0 0 0 0 0 0 0 0 0 0 0 0 0 0 1 82 108 170 151 135 121 129 83 33 42 37 43 43 68 94 129 118 126 127 87 46 43 43 47 49 45 62 49 67 77 71 41 42 37 41 49 98 106 103 102 40 43 40 47 46 43 60 67 42 64 70 71 74 72 60 47 51 79 94 107 110 89 48 39 52 115 112 94 155 168 180 171 167 5 0 0 0 0 0 0 0 0 0 0 0 0 0 0 0 0 0 0 0 0 0 0 0 0 0 0 0 0 0 0 0 0 0 0 0 0 0 0 0 
0 0 0 0 0 0 0 0 0 0 0 0 0 0 4 31 130 169 154 136 123 113 81 37 35 34 42 47 80 120 133 125 128 91 48 46 52 70 72 76 72 76 58 51 47 90 53 40 37 40 40 70 99 109 69 41 40 43 45 43 60 66 46 61 82 84 83 76 77 76 72 50 43 69 103 126 122 95 36 50 129 88 113 147 151 178 178 172 81 0 0 0 0 0 0 0 0 0 0 0 0 0 0 0 0 0 0 0 0 0 0 0 0 0 0 0 0 0 0 0 0 0 0 0 0 0 0 0 
0 0 0 0 0 0 0 0 0 0 0 0 0 0 5 96 134 187 149 132 116 112 70 36 31 37 34 55 80 125 136 137 107 45 50 58 65 75 72 69 79 72 76 54 48 48 63 43 42 40 37 59 99 103 67 38 41 43 47 55 69 46 56 87 94 85 73 74 73 75 78 72 55 51 97 127 124 110 44 44 112 86 79 110 139 166 178 175 80 0 0 0 0 0 0 0 0 0 0 0 0 0 0 0 0 0 0 0 0 0 0 0 0 0 0 0 0 0 0 0 0 0 0 0 0 0 0 0 
0 0 0 0 0 0 0 0 0 0 0 0 0 0 10 156 127 187 147 126 104 118 44 40 31 35 36 71 105 149 146 115 65 53 55 70 77 72 81 73 74 77 84 65 49 43 61 61 43 43 38 76 118 114 109 41 41 45 59 87 59 44 58 90 78 75 74 71 68 70 71 80 71 68 67 103 116 104 68 44 106 87 84 75 132 163 160 175 86 0 0 0 0 0 0 0 0 0 0 0 0 0 0 0 0 0 0 0 0 0 0 0 0 0 0 0 0 0 0 0 0 0 0 0 0 0 0 0 
0 0 0 0 0 0 0 0 0 0 0 0 0 0 16 158 117 176 139 121 108 102 46 39 37 33 34 114 95 138 148 102 69 53 71 69 61 67 69 73 72 68 73 84 60 48 57 84 42 43 40 78 125 112 117 47 39 43 61 91 51 47 73 74 77 77 71 74 68 68 70 73 81 83 82 77 100 144 52 48 101 89 84 77 93 152 179 176 87 0 0 0 0 0 0 0 0 0 0 0 0 0 0 0 0 0 0 0 0 0 0 0 0 0 0 0 0 0 0 0 0 0 0 0 0 0 0 0 
0 0 0 0 0 0 0 0 0 0 0 0 0 0 15 93 105 166 132 122 123 84 40 44 41 39 37 83 102 132 138 78 59 66 69 61 63 67 66 72 69 70 72 69 68 54 46 85 41 41 41 51 33 111 72 79 38 46 86 69 43 63 75 73 72 73 70 72 65 65 66 69 76 81 87 77 77 72 34 44 96 95 87 79 79 130 176 173 90 0 0 0 0 0 0 0 0 0 0 0 0 0 0 0 0 0 0 0 0 0 0 0 0 0 0 0 0 0 0 0 0 0 0 0 0 0 0 0 
0 0 0 0 0 0 0 0 0 0 0 0 0 0 17 101 102 158 129 131 195 77 40 42 41 37 41 84 90 101 116 67 63 66 72 65 62 66 68 68 69 65 71 67 70 58 42 74 69 43 42 63 37 39 37 120 55 56 85 65 50 72 76 71 73 72 73 66 64 60 62 71 73 89 93 75 56 36 32 48 84 95 92 85 74 150 168 171 150 0 0 0 0 0 0 0 0 0 0 0 0 0 0 0 0 0 0 0 0 0 0 0 0 0 0 0 0 0 0 0 0 0 0 0 0 0 0 0 
0 0 0 0 0 0 0 0 0 0 0 0 0 0 18 99 98 153 123 112 83 74 45 39 46 38 48 84 92 109 84 54 67 71 69 67 64 63 67 65 64 61 63 63 65 64 55 55 90 43 46 53 39 41 41 71 35 53 97 50 60 72 68 63 67 71 73 68 65 63 68 71 74 88 83 76 46 32 35 51 84 93 92 90 81 104 153 171 160 0 0 0 0 0 0 0 0 0 0 0 0 0 0 0 0 0 0 0 0 0 0 0 0 0 0 0 0 0 0 0 0 0 0 0 0 0 0 0 
0 0 0 0 0 0 0 0 0 0 0 0 0 0 19 24 159 155 210 87 82 81 43 40 44 37 58 68 101 108 75 54 72 77 75 65 64 65 69 65 61 64 62 66 63 65 64 45 43 39 42 36 41 43 49 46 34 38 83 47 64 77 68 62 68 66 66 65 65 63 70 71 73 79 82 73 44 32 34 61 80 91 85 91 76 90 126 159 161 0 0 0 0 0 0 0 0 0 0 0 0 0 0 0 0 0 0 0 0 0 0 0 0 0 0 0 0 0 0 0 0 0 0 0 0 0 0 0 
0 0 0 0 0 0 0 0 0 0 0 0 0 0 15 25 180 150 89 87 83 80 45 41 41 47 74 66 96 101 86 59 71 80 72 65 64 62 62 60 70 59 62 58 63 63 67 40 46 35 40 44 42 43 37 38 35 30 88 53 61 78 72 67 68 66 67 71 69 67 67 73 78 94 62 82 51 32 31 66 76 90 77 91 81 71 122 152 163 1 0 0 0 0 0 0 0 0 0 0 0 0 0 0 0 0 0 0 0 0 0 0 0 0 0 0 0 0 0 0 0 0 0 0 0 0 0 0 
0 0 0 0 0 0 0 0 0 0 0 0 0 0 67 30 175 141 90 90 89 84 43 45 45 68 73 71 49 98 98 67 73 77 70 63 64 67 65 64 62 63 58 59 65 66 68 38 47 29 33 43 53 45 42 43 40 32 40 52 59 75 71 64 64 62 69 67 71 67 66 72 81 87 95 67 58 30 33 73 74 92 76 90 90 34 129 158 152 3 0 0 0 0 0 0 0 0 0 0 0 0 0 0 0 0 0 0 0 0 0 0 0 0 0 0 0 0 0 0 0 0 0 0 0 0 0 0 
0 0 0 0 0 0 0 0 0 0 0 0 0 0 9 92 174 241 87 89 88 81 52 42 54 74 71 61 54 94 115 78 74 72 69 62 63 67 62 60 64 59 55 56 60 58 54 40 39 36 47 49 46 41 40 39 42 38 39 41 44 55 72 68 63 60 65 68 70 67 64 73 81 79 74 71 58 46 37 68 80 90 75 78 79 36 127 159 144 4 0 0 0 0 0 0 0 0 0 0 0 0 0 0 0 0 0 0 0 0 0 0 0 0 0 0 0 0 0 0 0 0 0 0 0 0 0 0 
0 0 0 0 0 0 0 0 0 0 0 0 0 0 59 157 172 210 90 90 84 88 66 41 62 57 61 58 71 95 112 103 63 66 68 63 61 64 71 63 56 57 55 65 59 40 38 44 43 39 48 46 49 47 37 41 40 42 36 77 39 49 60 69 61 64 64 63 68 65 69 71 75 63 52 43 53 58 49 66 78 86 76 74 69 44 133 158 140 4 0 0 0 0 0 0 0 0 0 0 0 0 0 0 0 0 0 0 0 0 0 0 0 0 0 0 0 0 0 0 0 0 0 0 0 0 0 0 
0 0 0 0 0 0 0 0 0 0 0 0 0 0 55 83 169 143 95 78 82 80 68 42 71 42 59 62 78 91 111 104 52 65 61 70 60 66 60 60 59 62 62 71 47 36 46 55 35 35 46 44 61 42 39 43 41 40 38 67 56 43 42 57 69 73 65 68 72 71 78 67 61 55 42 40 47 83 86 59 76 78 77 88 55 70 141 152 131 3 0 0 0 0 0 0 0 0 0 0 0 0 0 0 0 0 0 0 0 0 0 0 0 0 0 0 0 0 0 0 0 0 0 0 0 0 0 0 
0 0 0 0 0 0 0 0 0 0 0 0 0 0 51 143 96 151 107 75 81 72 75 57 64 42 59 78 88 89 108 104 43 44 52 56 69 67 63 63 61 68 62 52 40 35 71 58 38 40 48 49 43 57 38 44 48 43 41 69 106 48 38 37 47 65 74 76 82 78 77 56 47 44 39 37 69 79 113 48 75 72 74 73 36 74 142 149 122 2 0 0 0 0 0 0 0 0 0 0 0 0 0 0 0 0 0 0 0 0 0 0 0 0 0 0 0 0 0 0 0 0 0 0 0 0 0 0 
0 0 0 0 0 0 0 0 0 0 0 0 0 0 45 141 160 149 3 87 72 81 72 61 54 48 52 109 88 77 98 107 46 43 44 43 60 75 70 64 57 51 38 37 41 69 102 94 60 43 49 50 43 66 43 49 71 39 37 34 111 120 84 35 34 46 55 65 70 73 61 50 43 41 43 68 88 90 94 93 75 68 72 61 31 78 147 139 114 0 0 0 0 0 0 0 0 0 0 0 0 0 0 0 0 0 0 0 0 0 0 0 0 0 0 0 0 0 0 0 0 0 0 0 0 0 0 0 
0 0 0 0 0 0 0 0 0 0 0 0 0 0 36 121 153 111 116 94 68 76 51 68 53 50 42 126 89 78 73 114 68 40 39 40 48 71 65 59 41 45 41 56 101 100 103 67 37 41 49 62 41 68 38 61 94 48 40 35 71 95 149 113 106 95 78 60 65 69 47 43 36 38 53 147 100 88 100 103 76 66 77 60 38 100 147 132 103 0 0 0 0 0 0 0 0 0 0 0 0 0 0 0 0 0 0 0 0 0 0 0 0 0 0 0 0 0 0 0 0 0 0 0 0 0 0 0 
0 0 0 0 0 0 0 0 0 0 0 0 0 1 32 107 148 148 120 100 80 66 67 70 49 46 41 64 87 92 97 124 109 60 39 41 40 46 42 48 56 94 115 39 41 42 45 39 35 43 48 80 42 61 41 65 89 62 40 42 35 112 115 109 108 106 115 118 135 87 71 61 66 92 89 109 92 73 95 149 101 66 56 49 106 107 125 126 60 0 0 0 0 0 0 0 0 0 0 0 0 0 0 0 0 0 0 0 0 0 0 0 0 0 0 0 0 0 0 0 0 0 0 0 0 0 0 0 
0 0 0 0 0 0 0 0 0 0 0 0 0 2 19 97 141 148 97 106 249 72 78 50 58 49 41 77 82 89 97 164 99 148 52 35 36 50 145 138 117 40 41 43 37 39 48 87 37 41 68 87 46 64 43 49 47 44 39 86 113 151 148 103 108 114 123 169 118 105 196 148 98 189 107 111 243 70 125 142 104 63 62 66 102 118 139 124 54 0 0 0 0 0 0 0 0 0 0 0 0 0 0 0 0 0 0 0 0 0 0 0 0 0 0 0 0 0 0 0 0 0 0 0 0 0 0 0 
0 0 0 0 0 0 0 0 0 0 0 0 0 3 12 84 133 152 145 115 252 71 74 60 61 54 50 88 83 84 87 167 166 113 97 94 104 107 114 110 105 60 40 36 36 39 36 73 40 41 76 80 46 74 69 47 39 36 49 116 129 113 102 123 144 170 160 180 112 101 111 90 30 53 106 91 110 159 145 135 70 52 68 108 129 157 118 120 52 0 0 0 0 0 0 0 0 0 0 0 0 0 0 0 0 0 0 0 0 0 0 0 0 0 0 0 0 0 0 0 0 0 0 0 0 0 0 0 
0 0 0 0 0 0 0 0 0 0 0 0 0 6 14 58 122 149 159 128 246 78 69 68 58 56 64 81 91 76 80 92 117 121 187 97 133 141 153 131 102 78 58 31 31 37 31 31 36 30 41 48 41 85 60 38 35 37 111 97 102 113 114 121 132 170 187 137 105 89 124 85 25 59 63 112 124 126 158 149 111 71 96 152 174 137 115 114 44 0 0 0 0 0 0 0 0 0 0 0 0 0 0 0 0 0 0 0 0 0 0 0 0 0 0 0 0 0 0 0 0 0 0 0 0 0 0 0 
0 0 0 0 0 0 0 0 0 0 0 0 0 8 13 9 67 140 160 149 216 77 58 65 70 65 123 135 100 90 204 141 130 152 204 129 119 119 111 104 108 81 80 50 36 37 32 32 108 38 38 42 35 120 65 40 41 48 30 30 120 105 106 125 138 171 163 145 115 131 131 20 13 17 21 87 117 162 92 179 108 175 128 159 180 134 121 119 26 0 0 0 0 0 0 0 0 0 0 0 0 0 0 0 0 0 0 0 0 0 0 0 0 0 0 0 0 0 0 0 0 0 0 0 0 0 0 0 
0 0 0 0 0 0 0 0 0 0 0 0 0 8 14 10 66 142 155 154 128 145 90 68 75 57 113 105 95 92 114 148 156 157 116 112 84 80 88 93 103 102 85 76 51 33 26 28 26 34 43 37 35 141 37 39 51 36 31 32 117 104 103 110 109 122 110 121 134 149 95 18 18 19 23 73 133 147 149 168 152 182 158 170 164 126 142 91 11 1 0 0 0 0 0 0 0 0 0 0 0 0 0 0 0 0 0 0 0 0 0 0 0 0 0 0 0 0 0 0 0 0 0 0 0 0 0 0 
0 0 0 0 0 0 0 0 0 0 0 0 0 3 9 14 53 136 147 149 159 176 141 49 108 106 82 224 105 102 108 137 126 209 143 88 73 88 119 116 114 120 101 86 80 41 24 20 29 34 41 40 42 74 89 44 50 42 37 38 67 116 98 98 100 101 67 98 117 113 41 31 24 22 22 73 135 147 144 130 131 141 102 112 118 123 115 94 11 6 0 0 0 0 0 0 0 0 0 0 0 0 0 0 0 0 0 0 0 0 0 0 0 0 0 0 0 0 0 0 0 0 0 0 0 0 0 0 
0 0 0 0 0 0 0 0 0 0 0 0 0 0 13 12 21 114 151 146 161 198 166 184 159 170 175 15 191 92 90 70 82 112 153 145 135 157 161 105 112 108 125 106 88 67 23 21 36 41 50 47 38 89 32 39 45 53 80 189 128 101 94 111 118 73 92 105 112 66 35 31 26 24 78 134 147 135 143 131 147 18 7 116 119 124 137 61 9 9 0 0 0 0 0 0 0 0 0 0 0 0 0 0 0 0 0 0 0 0 0 0 0 0 0 0 0 0 0 0 0 0 0 0 0 0 0 0 
0 0 0 0 0 0 0 0 0 0 0 0 0 0 3 8 11 92 156 162 152 161 164 143 162 182 78 110 140 134 89 64 52 139 168 158 140 112 114 132 109 100 114 111 105 87 76 28 69 91 55 54 46 32 37 36 36 68 95 101 188 85 118 100 67 70 93 120 136 126 82 98 117 121 144 146 141 149 122 126 125 19 0 1 63 128 126 29 8 12 3 0 0 0 0 0 0 0 0 0 0 0 0 0 0 0 0 0 0 0 0 0 0 0 0 0 0 0 0 0 0 0 0 0 0 0 0 0 
0 0 0 0 0 0 0 0 0 0 0 0 0 0 0 0 0 5 142 146 141 139 129 111 74 66 70 99 140 136 115 47 32 47 111 161 132 100 89 123 134 107 107 105 89 90 112 72 94 106 83 51 45 45 38 35 38 41 76 117 91 87 93 88 86 48 73 124 106 115 103 117 115 164 235 199 167 151 147 81 32 17 0 2 0 0 1 12 12 14 20 0 0 0 0 0 0 0 0 0 0 0 0 0 0 0 0 0 0 0 0 0 0 0 0 0 0 0 0 0 0 0 0 0 0 0 0 0 
0 0 0 0 0 0 0 0 0 0 0 0 0 0 0 0 0 0 69 139 136 130 88 66 86 108 79 107 135 155 134 82 34 54 86 150 227 130 85 72 67 89 120 104 83 86 95 110 84 56 52 46 47 50 80 40 47 47 113 95 47 49 64 85 110 54 42 46 48 53 79 118 113 147 173 168 155 156 146 33 16 1 0 4 0 0 0 0 3 17 22 0 0 0 0 0 0 0 0 0 0 0 0 0 0 0 0 0 0 0 0 0 0 0 0 0 0 0 0 0 0 0 0 0 0 0 0 0 
0 0 0 0 0 0 0 0 0 0 0 0 0 0 0 0 0 0 4 67 127 118 55 34 33 116 105 105 13 153 144 123 50 91 114 113 128 155 111 47 36 86 72 57 64 68 76 101 50 45 47 48 47 68 101 75 50 51 77 76 43 99 95 101 142 85 48 48 52 53 77 95 81 124 136 158 165 158 181 74 9 0 5 0 0 0 0 0 0 2 12 0 0 0 0 0 0 0 0 0 0 0 0 0 0 0 0 0 0 0 0 0 0 0 0 0 0 0 0 0 0 0 0 0 0 0 0 0 
0 0 0 0 0 0 0 0 0 0 0 0 0 0 0 0 0 0 4 12 12 11 67 2 16 77 126 242 153 139 152 124 190 104 73 42 46 58 95 41 49 78 57 79 94 67 64 102 48 35 46 51 79 108 113 110 104 72 78 115 70 101 91 46 94 100 68 56 57 84 88 101 113 116 135 155 176 185 182 160 0 0 6 0 0 0 0 0 0 0 2 0 0 0 0 0 0 0 0 0 0 0 0 0 0 0 0 0 0 0 0 0 0 0 0 0 0 0 0 0 0 0 0 0 0 0 0 0 
0 0 0 0 0 0 0 0 0 0 0 0 0 0 0 0 0 0 3 120 74 9 2 0 0 145 152 147 152 147 146 128 112 188 112 56 47 49 54 50 104 126 118 113 113 143 113 175 71 78 151 150 147 166 108 116 92 107 117 148 145 152 111 43 54 96 91 62 88 109 118 101 99 108 23 146 154 175 173 164 129 1 1 0 0 0 0 0 0 0 0 0 0 0 0 0 0 0 0 0 0 0 0 0 0 0 0 0 0 0 0 0 0 0 0 0 0 0 0 0 0 0 0 0 0 0 0 0 
0 0 0 0 0 0 0 0 0 0 0 0 0 0 0 0 0 0 0 51 131 64 10 7 153 164 186 148 160 141 149 199 131 110 105 127 110 67 66 84 133 119 121 124 79 124 159 164 70 107 116 110 106 91 92 48 38 38 78 147 161 171 159 206 77 91 180 132 142 124 115 109 97 99 86 99 143 180 155 129 122 56 0 0 0 0 0 0 0 0 0 0 0 0 0 0 0 0 0 0 0 0 0 0 0 0 0 0 0 0 0 0 0 0 0 0 0 0 0 0 0 0 0 0 0 0 0 0 
0 0 0 0 0 0 0 0 0 0 0 0 0 0 0 0 0 0 0 20 94 110 119 119 149 159 186 170 151 147 142 47 213 119 121 115 119 26 119 126 216 142 166 168 102 119 148 152 108 99 106 105 116 136 148 154 109 54 95 134 159 145 124 246 248 128 132 152 146 104 105 96 89 81 90 55 156 175 135 109 112 104 113 96 6 0 0 0 0 0 0 0 0 0 0 0 0 0 0 0 0 0 0 0 0 0 0 0 0 0 0 0 0 0 0 0 0 0 0 0 0 0 0 0 0 0 0 0 
0 0 0 0 0 0 0 0 0 0 0 0 5 10 4 0 0 0 4 21 54 112 123 118 129 147 162 177 146 139 141 105 136 31 117 123 238 122 15 32 138 155 165 167 193 11 27 200 120 93 151 142 140 157 158 148 151 151 188 155 147 99 116 133 179 176 156 177 156 115 93 89 77 48 49 38 99 174 117 113 101 86 113 103 18 2 0 0 0 0 0 0 0 0 0 0 0 0 0 0 0 0 0 0 0 0 0 0 0 0 0 0 0 0 0 0 0 0 0 0 0 0 0 0 0 0 0 0 
0 0 0 0 0 0 0 0 0 0 0 0 6 10 10 8 0 0 10 17 17 73 124 123 124 131 145 151 172 106 46 62 103 207 77 255 108 113 115 114 55 133 151 157 160 177 11 132 184 136 164 169 173 154 149 135 133 133 118 39 129 141 82 156 180 178 164 163 154 111 105 72 41 34 48 31 189 186 121 107 92 51 93 63 21 14 0 0 0 0 0 0 0 0 0 0 0 0 0 0 0 0 0 0 0 0 0 0 0 0 0 0 0 0 0 0 0 0 0 0 0 0 0 0 0 0 0 0 
0 0 0 0 0 0 0 0 0 0 0 0 1 9 11 8 10 8 10 11 12 30 126 122 119 138 132 163 167 85 36 38 45 49 58 121 82 86 106 221 116 131 107 139 162 164 153 105 100 150 156 167 161 160 143 111 117 124 127 122 119 150 81 162 165 166 158 139 118 100 97 72 40 35 49 13 92 164 130 104 48 10 26 21 13 13 10 2 0 3 9 12 6 0 0 0 0 0 0 0 0 0 0 0 0 0 0 0 0 0 0 0 0 0 0 0 0 0 0 0 0 0 0 0 0 0 0 0 
0 0 0 0 0 0 0 0 0 0 0 0 0 12 9 12 8 9 8 10 11 7 4 127 144 129 130 140 74 8 16 25 28 46 45 46 42 61 79 135 122 190 88 131 151 155 129 5 146 148 155 164 167 163 157 131 122 136 130 127 198 168 122 150 148 155 128 122 139 93 65 23 73 149 146 10 128 99 60 58 70 48 20 19 9 10 11 10 12 12 8 8 7 0 0 0 0 0 0 0 0 0 0 0 0 0 0 0 0 0 0 0 0 0 0 0 0 0 0 0 0 0 0 0 0 0 0 0 
0 0 0 0 0 0 0 0 0 0 0 0 0 4 9 7 8 8 9 8 11 16 26 49 95 122 142 139 39 29 37 41 82 95 81 63 85 78 45 37 57 127 129 82 125 128 198 190 164 173 168 77 60 171 185 165 194 148 149 225 204 128 130 184 146 141 31 115 148 141 115 103 100 142 85 50 52 53 33 31 1 6 28 19 0 0 2 11 7 7 6 0 0 0 0 0 0 0 0 0 0 0 0 0 0 0 0 0 0 0 0 0 0 0 0 0 0 0 0 0 0 0 0 0 0 0 0 0 
0 0 0 0 0 0 0 0 0 0 0 0 0 0 8 8 10 5 2 5 12 16 23 58 66 74 62 32 0 3 9 14 11 38 67 87 112 66 45 46 94 180 165 209 211 203 71 202 193 187 186 187 175 186 187 99 155 208 169 177 20 241 195 188 186 191 45 98 37 146 150 139 109 86 75 83 88 76 39 0 0 1 18 32 0 0 0 3 4 10 7 9 0 0 0 0 0 0 0 0 0 0 0 0 0 0 0 0 0 0 0 0 0 0 0 0 0 0 0 0 0 0 0 0 0 0 0 0 
0 0 0 0 0 0 0 0 0 0 0 0 0 0 2 12 5 2 0 4 18 36 32 24 34 25 5 14 10 9 8 8 0 0 26 62 68 119 152 161 229 133 104 156 137 186 160 114 46 105 221 159 151 128 130 135 130 153 159 153 174 194 210 143 67 194 182 176 148 142 123 109 94 103 70 95 20 1 3 1 0 3 31 24 0 0 0 0 2 0 1 0 0 0 0 0 0 0 0 0 0 0 0 0 0 0 0 0 0 0 0 0 0 0 0 0 0 0 0 0 0 0 0 0 0 0 0 0 
0 0 0 0 0 0 0 0 0 0 0 0 0 0 0 1 11 11 12 8 9 12 11 12 30 39 10 2 2 6 6 39 10 8 35 51 59 46 37 40 88 101 149 183 147 117 84 103 129 111 94 120 128 107 99 94 97 109 109 98 87 102 92 133 132 117 45 26 39 48 46 63 82 52 45 41 40 14 22 7 7 9 26 5 0 1 10 9 0 0 0 0 0 0 0 0 0 0 0 0 0 0 0 0 0 0 0 0 0 0 0 0 0 0 0 0 0 0 0 0 0 0 0 0 0 0 0 0 
0 0 0 0 0 0 0 0 0 0 0 0 0 0 0 0 0 9 8 3 6 6 8 9 10 11 9 13 7 7 11 56 36 10 9 25 55 59 56 34 42 76 64 63 68 78 80 59 71 89 98 81 89 90 90 89 88 59 73 81 79 68 38 46 62 76 28 63 100 102 40 48 71 62 59 46 8 9 11 8 11 13 18 4 0 0 2 0 0 0 0 0 0 0 0 0 0 0 0 0 0 0 0 0 0 0 0 0 0 0 0 0 0 0 0 0 0 0 0 0 0 0 0 0 0 0 0 0 
0 0 0 0 0 0 0 0 0 0 0 0 0 0 0 0 0 0 0 0 2 2 7 10 17 25 27 43 31 23 15 39 30 48 57 86 97 177 122 152 140 152 93 77 69 84 87 72 56 81 93 74 74 89 89 90 100 97 116 106 111 129 130 125 102 117 89 83 120 150 64 50 80 85 52 27 41 19 15 14 13 12 7 3 0 0 0 0 0 0 0 0 0 0 0 0 0 0 0 0 0 0 0 0 0 0 0 0 0 0 0 0 0 0 0 0 0 0 0 0 0 0 0 0 0 0 0 0 
0 0 0 0 0 0 0 0 0 0 0 0 0 0 0 0 0 0 0 0 0 0 3 11 14 10 41 41 79 160 79 71 78 90 85 112 62 125 190 146 157 157 92 64 91 55 82 170 137 108 90 134 112 103 100 110 103 93 104 125 163 101 107 125 77 160 128 128 107 124 106 34 42 37 13 18 3 9 0 0 0 0 0 0 0 0 0 0 0 0 0 0 0 0 0 0 0 0 0 0 0 0 0 0 0 0 0 0 0 0 0 0 0 0 0 0 0 0 0 0 0 0 0 0 0 0 0 0 
0 0 0 0 0 0 0 0 0 0 0 0 0 0 0 0 0 0 0 0 0 0 0 9 8 5 5 40 59 78 72 72 89 96 98 87 120 87 126 93 163 108 65 159 182 188 198 209 166 164 153 121 169 165 170 195 144 140 121 116 62 91 163 140 168 150 127 119 67 151 139 131 111 83 69 45 89 45 0 0 0 0 0 0 0 0 0 0 0 0 0 0 0 0 0 0 0 0 0 0 0 0 0 0 0 0 0 0 0 0 0 0 0 0 0 0 0 0 0 0 0 0 0 0 0 0 0 0 
0 0 0 0 0 0 0 0 0 0 0 0 0 0 0 0 0 0 0 0 0 0 0 3 6 11 26 35 58 83 117 79 124 88 38 50 38 82 41 96 39 29 84 89 108 102 121 172 249 122 131 121 123 112 117 128 132 118 103 92 68 45 85 106 108 172 136 135 136 154 110 63 60 33 27 21 6 0 3 3 0 3 6 0 0 0 0 0 0 0 0 0 0 0 0 0 0 0 0 0 0 0 0 0 0 0 0 0 0 0 0 0 0 0 0 0 0 0 0 0 0 0 0 0 0 0 0 0 
0 0 0 0 0 0 0 0 0 0 0 0 0 0 0 0 0 0 0 0 0 0 0 7 9 16 17 11 17 13 11 73 47 32 18 50 64 59 23 23 20 44 78 88 108 114 127 100 125 127 112 108 105 105 57 77 60 75 86 78 80 112 72 60 104 123 133 24 134 128 103 73 58 53 57 23 12 13 15 15 3 7 9 0 0 0 0 0 0 0 0 0 0 0 0 0 0 0 0 0 0 0 0 0 0 0 0 0 0 0 0 0 0 0 0 0 0 0 0 0 0 0 0 0 0 0 0 0 
0 0 0 0 0 0 0 0 0 0 0 0 0 0 0 0 0 0 0 0 0 0 0 7 12 9 16 12 14 13 11 47 85 46 15 29 33 32 43 47 41 110 114 95 101 109 90 80 99 114 56 83 85 96 89 84 88 85 76 72 64 98 138 87 131 84 96 125 126 104 84 67 51 60 88 12 12 12 11 9 11 9 7 0 0 0 0 0 0 0 0 0 0 0 0 0 0 0 0 0 0 0 0 0 0 0 0 0 0 0 0 0 0 0 0 0 0 0 0 0 0 0 0 0 0 0 0 0 
0 0 0 0 0 0 0 0 0 0 0 0 0 0 0 0 0 0 0 0 0 0 0 3 12 8 18 18 9 19 13 49 84 50 31 40 36 28 44 49 51 93 94 76 102 210 111 68 91 106 78 69 79 81 82 79 81 79 66 47 40 75 99 80 174 111 88 120 86 66 63 51 39 10 54 11 11 22 18 9 11 10 5 0 0 0 0 0 0 0 0 0 0 0 0 0 0 0 0 0 0 0 0 0 0 0 0 0 0 0 0 0 0 0 0 0 0 0 0 0 0 0 0 0 0 0 0 0 
0 0 0 0 0 0 0 0 0 0 0 0 0 0 0 0 0 0 0 0 0 0 0 0 12 9 13 17 10 13 17 13 84 11 24 38 31 39 47 56 75 78 67 85 58 89 104 118 128 118 74 61 69 75 77 73 79 78 54 33 49 111 98 59 141 69 60 103 128 90 54 49 27 5 8 10 13 20 22 11 12 10 4 0 0 0 0 0 0 0 0 0 0 0 0 0 0 0 0 0 0 0 0 0 0 0 0 0 0 0 0 0 0 0 0 0 0 0 0 0 0 0 0 0 0 0 0 0 
0 0 0 0 0 0 0 0 0 0 0 0 0 0 0 0 0 0 0 0 0 0 0 0 6 11 9 18 12 11 13 15 12 11 11 28 16 37 56 80 65 76 176 116 89 90 117 106 105 73 58 56 64 71 74 70 66 56 46 41 66 91 92 111 88 163 86 48 79 107 70 37 25 3 7 10 15 28 26 14 7 9 4 0 0 0 0 0 0 0 0 0 0 0 0 0 0 0 0 0 0 0 0 0 0 0 0 0 0 0 0 0 0 0 0 0 0 0 0 0 0 0 0 0 0 0 0 0 
0 0 0 0 0 0 0 0 0 0 0 0 0 0 0 0 0 0 0 0 0 0 0 0 0 11 9 11 16 27 11 19 10 5 5 14 11 21 60 64 57 103 61 78 88 90 80 49 33 28 37 57 59 53 66 60 53 43 45 39 33 43 84 101 104 213 127 46 58 81 69 38 26 5 8 9 11 22 25 10 8 9 6 0 0 0 0 0 0 0 0 0 0 0 0 0 0 0 0 0 0 0 0 0 0 0 0 0 0 0 0 0 0 0 0 0 0 0 0 0 0 0 0 0 0 0 0 0 
0 0 0 0 0 0 0 0 0 0 0 0 0 0 0 0 0 0 0 0 0 0 0 0 0 4 11 10 12 21 13 11 17 3 4 13 13 2 58 60 57 77 60 71 135 86 81 46 39 36 44 60 51 50 61 52 45 44 46 37 28 36 41 101 110 81 64 58 99 57 79 67 36 6 11 8 12 19 19 8 13 8 6 0 0 0 0 0 0 0 0 0 0 0 0 0 0 0 0 0 0 0 0 0 0 0 0 0 0 0 0 0 0 0 0 0 0 0 0 0 0 0 0 0 0 0 0 0 
0 0 0 0 0 0 0 0 0 0 0 0 0 0 0 0 0 0 0 0 0 0 0 0 0 3 11 10 11 11 10 6 11 10 5 9 19 22 66 75 58 82 58 97 60 83 85 49 37 45 90 71 66 75 74 68 61 52 48 40 29 31 33 86 92 165 63 57 73 54 80 80 33 6 18 6 7 9 10 12 11 10 3 0 0 0 0 0 0 0 0 0 0 0 0 0 0 0 0 0 0 0 0 0 0 0 0 0 0 0 0 0 0 0 0 0 0 0 0 0 0 0 0 0 0 0 0 0 
0 0 0 0 0 0 0 0 0 0 0 0 0 0 0 0 0 0 0 0 0 0 0 0 0 0 9 9 9 6 10 9 8 12 0 3 18 54 69 67 55 87 91 59 59 70 86 47 37 54 66 79 66 69 60 55 54 49 43 43 30 22 45 99 83 72 119 58 45 55 90 88 26 8 16 8 5 10 10 11 10 10 2 0 0 0 0 0 0 0 0 0 0 0 0 0 0 0 0 0 0 0 0 0 0 0 0 0 0 0 0 0 0 0 0 0 0 0 0 0 0 0 0 0 0 0 0 0 
0 0 0 0 0 0 0 0 0 0 0 0 0 0 0 0 0 0 0 0 0 0 0 0 0 0 0 9 8 8 9 12 20 7 5 1 5 58 81 74 62 52 19 45 63 66 67 42 42 81 59 75 82 83 71 73 59 48 47 48 48 76 118 89 123 72 78 57 40 58 84 90 16 5 17 8 6 9 11 12 11 9 5 0 0 0 0 0 0 0 0 0 0 0 0 0 0 0 0 0 0 0 0 0 0 0 0 0 0 0 0 0 0 0 0 0 0 0 0 0 0 0 0 0 0 0 0 0 
0 0 0 0 0 0 0 0 0 0 0 0 0 0 0 0 0 0 0 0 0 0 0 0 0 0 0 4 8 8 12 10 10 15 4 7 1 14 64 89 79 40 33 73 77 63 55 38 35 45 54 66 72 74 69 65 60 54 47 54 65 108 96 59 84 70 97 65 49 78 101 70 8 6 8 10 13 12 16 12 11 11 6 0 0 0 0 0 0 0 0 0 0 0 0 0 0 0 0 0 0 0 0 0 0 0 0 0 0 0 0 0 0 0 0 0 0 0 0 0 0 0 0 0 0 0 0 0 
0 0 0 0 0 0 0 0 0 0 0 0 0 0 0 0 0 0 0 0 0 0 0 0 0 0 0 0 9 6 8 7 9 14 11 6 6 1 17 90 93 84 56 84 92 91 45 40 40 36 50 66 74 71 68 63 67 55 46 55 73 96 71 85 90 160 107 106 82 101 103 57 6 4 7 12 18 18 12 12 11 9 6 0 0 0 0 0 0 0 0 0 0 0 0 0 0 0 0 0 0 0 0 0 0 0 0 0 0 0 0 0 0 0 0 0 0 0 0 0 0 0 0 0 0 0 0 0 
0 0 0 0 0 0 0 0 0 0 0 0 0 0 0 0 0 0 0 0 0 0 0 0 0 0 0 0 4 5 8 8 8 10 14 5 2 2 0 47 76 96 93 105 101 134 48 44 39 37 74 71 75 65 64 63 65 56 51 51 59 102 108 107 86 113 114 109 106 94 57 14 6 4 5 11 21 11 12 12 12 12 5 0 0 0 0 0 0 0 0 0 0 0 0 0 0 0 0 0 0 0 0 0 0 0 0 0 0 0 0 0 0 0 0 0 0 0 0 0 0 0 0 0 0 0 0 0 
0 0 0 0 0 0 0 0 0 0 0 0 0 0 0 0 0 0 0 0 0 0 0 0 0 0 0 0 1 7 4 9 8 9 14 10 4 0 0 1 46 66 91 106 81 56 47 43 43 35 106 77 77 62 50 94 55 103 101 47 37 38 86 125 113 88 90 105 84 56 39 7 9 4 3 16 19 12 11 11 12 10 5 0 0 0 0 0 0 0 0 0 0 0 0 0 0 0 0 0 0 0 0 0 0 0 0 0 0 0 0 0 0 0 0 0 0 0 0 0 0 0 0 0 0 0 0 0 
0 0 0 0 0 0 0 0 0 0 0 0 0 0 0 0 0 0 0 0 0 0 0 0 0 0 0 0 0 10 2 9 8 9 10 13 7 3 3 1 24 37 91 136 61 28 42 42 45 36 78 58 81 98 69 45 87 98 110 95 99 46 49 112 80 62 57 51 59 48 8 8 10 4 3 16 14 14 10 12 12 11 4 0 0 0 0 0 0 0 0 0 0 0 0 0 0 0 0 0 0 0 0 0 0 0 0 0 0 0 0 0 0 0 0 0 0 0 0 0 0 0 0 0 0 0 0 0 
0 0 0 0 0 0 0 0 0 0 0 0 0 0 0 0 0 0 0 0 0 0 0 0 0 0 0 0 0 4 6 2 9 9 10 20 16 9 10 4 23 39 35 23 12 24 34 44 40 64 97 106 104 100 50 41 60 35 102 109 106 45 39 46 62 69 76 62 55 28 5 9 13 8 4 11 14 12 11 11 11 9 5 0 0 0 0 0 0 0 0 0 0 0 0 0 0 0 0 0 0 0 0 0 0 0 0 0 0 0 0 0 0 0 0 0 0 0 0 0 0 0 0 0 0 0 0 0 
