P2
128 99
234
0 0 0 0 0 0 0 0 0 0 0 0 0 0 0 0 0 0 0 0 0 0 0 0 0 0 0 0 0 0 0 0 10 14 7 0 0 0 0 0 0 0 0 0 0 0 0 0 0 0 0 0 0 0 0 0 0 0 0 0 0 0 0 0 0 0 0 0 0 0 0 0 0 0 0 0 0 0 0 0 0 0 0 0 0 0 0 0 0 0 0 0 6 12 12 16 0 0 0 0 0 0 0 0 0 0 0 0 0 0 0 0 0 0 0 0 0 0 0 0 0 0 0 0 0 0 0 0 
0 0 0 0 0 0 0 0 0 0 0 0 0 0 0 0 0 0 0 0 0 0 0 0 0 0 0 0 0 0 0 0 9 12 7 0 0 0 0 0 0 0 0 0 0 0 0 0 0 0 0 0 0 0 0 0 0 0 0 0 0 0 0 0 0 0 0 0 0 0 0 0 0 0 0 0 0 0 0 0 0 0 0 0 0 0 0 0 0 0 0 0 7 12 12 16 0 0 0 0 0 0 0 0 0 0 0 0 0 0 0 0 0 0 0 0 0 0 0 0 0 0 0 0 0 0 0 0 
0 0 0 0 0 0 0 0 0 0 0 0 0 0 0 0 0 0 0 0 0 0 0 0 0 0 0 0 0 0 0 0 8 11 6 0 0 0 0 0 0 0 0 0 0 0 0 0 0 0 0 1 0 2 0 0 0 0 0 0 0 0 0 0 0 0 0 0 0 0 0 0 0 0 0 0 0 0 0 0 0 0 0 0 0 0 0 0 0 0 0 0 6 10 12 16 0 0 0 0 0 0 0 0 0 0 0 0 0 0 0 0 0 0 0 0 0 0 0 0 0 0 0 0 0 0 0 0 
0 0 0 0 0 0 0 0 0 0 0 0 0 0 0 0 0 0 0 0 0 0 0 0 0 0 0 0 0 0 0 0 7 10 5 0 0 0 0 0 0 0 0 0 6 14 17 20 18 18 18 20 22 24 21 19 19 14 12 12 2 0 0 0 0 0 0 0 0 0 0 0 0 0 0 0 0 0 0 0 0 0 0 0 0 0 0 0 0 0 0 0 5 12 12 17 0 0 0 0 0 0 0 0 0 0 0 0 0 0 0 0 0 0 0 0 0 0 0 0 0 0 0 0 0 0 0 0 
0 0 0 0 0 0 0 0 0 0 0 0 0 0 0 0 0 0 0 0 0 0 0 0 0 0 0 0 0 0 0 0 6 7 2 0 0 0 0 0 3 8 21 24 22 29 50 70 92 111 124 132 136 135 132 123 110 93 74 52 34 19 14 11 0 0 0 0 0 0 0 0 0 0 0 0 0 0 0 0 0 0 0 0 0 0 0 0 0 0 0 0 5 11 12 15 0 0 0 0 0 0 0 0 0 0 0 0 0 0 0 0 0 0 0 0 0 0 0 0 0 0 0 0 0 0 0 0 
0 0 0 0 0 0 0 0 0 0 0 0 0 0 0 0 0 0 0 0 0 0 0 0 0 0 0 0 0 0 0 0 4 4 0 0 0 0 6 17 28 22 30 58 101 134 152 161 161 162 164 166 167 165 167 168 167 162 154 142 129 105 75 43 23 14 11 0 0 0 0 0 0 0 0 0 0 0 0 0 0 0 0 0 0 0 0 0 0 0 0 0 5 10 12 16 0 0 0 0 0 0 0 0 0 0 0 0 0 0 0 0 0 0 0 0 0 0 0 0 0 0 0 0 0 0 0 0 
0 0 0 0 0 0 0 0 0 0 0 0 0 0 0 0 0 0 0 0 0 0 0 0 0 0 0 0 0 0 0 0 3 2 0 0 6 22 25 20 44 90 134 158 163 161 166 168 168 168 170 172 173 173 170 167 160 158 160 163 166 162 144 131 112 77 39 15 15 0 0 0 0 0 0 0 0 0 0 0 0 0 0 0 0 0 0 0 0 0 0 0 5 11 12 15 0 0 0 0 0 0 0 0 0 0 0 0 0 0 0 0 0 0 0 0 0 0 0 0 0 0 0 0 0 0 0 0 
0 0 0 0 0 0 0 0 0 0 0 0 0 0 0 0 0 0 0 0 0 0 0 0 0 0 0 0 0 0 0 0 3 3 7 24 24 20 57 112 150 161 161 171 179 176 171 169 177 185 195 205 207 200 202 215 222 214 195 177 163 158 163 168 163 143 130 97 53 22 15 0 0 0 0 0 0 0 0 0 0 0 0 0 0 0 0 0 0 0 0 1 6 12 13 17 0 0 0 0 0 0 0 0 0 0 0 0 0 0 0 0 0 0 0 0 0 0 0 0 0 0 0 0 0 0 0 0 
0 0 0 0 0 0 0 0 0 0 0 0 0 0 0 0 0 0 0 0 0 0 0 0 0 0 0 0 0 0 0 0 9 27 26 20 57 117 157 161 161 174 175 178 179 172 182 187 171 156 142 134 129 124 121 128 152 183 207 217 218 206 185 169 161 166 170 151 134 102 46 22 8 0 0 0 0 0 0 0 0 0 0 0 0 0 0 0 0 0 0 1 8 12 13 16 0 0 0 0 0 0 0 0 0 0 0 0 0 0 0 0 0 0 0 0 0 0 0 0 0 0 0 0 0 0 0 0 
0 0 0 0 0 0 0 0 0 0 0 0 0 0 0 0 0 0 0 0 0 0 0 0 0 0 0 0 0 0 1 19 30 31 46 102 154 162 162 173 172 173 183 184 177 163 140 116 96 97 125 133 137 136 135 132 123 114 129 159 183 198 212 215 202 178 164 162 167 151 132 77 28 20 1 0 0 0 0 0 0 0 0 0 0 0 0 0 0 0 0 1 8 12 13 16 0 0 0 0 0 0 0 0 0 0 0 0 0 0 0 0 0 0 0 0 0 0 0 0 0 0 0 0 0 0 0 0 
0 0 0 0 0 0 0 0 0 0 0 0 0 0 0 0 0 0 0 0 0 0 0 0 0 0 0 0 0 9 26 30 32 83 143 161 160 174 172 168 183 198 186 162 145 128 121 112 110 122 132 147 147 138 144 140 134 123 121 124 133 150 170 184 201 217 211 186 166 166 165 148 112 41 22 3 0 0 0 0 0 0 0 0 0 0 0 0 0 0 0 2 8 13 14 16 0 0 0 0 0 0 0 0 0 0 0 0 0 0 0 0 0 0 0 0 0 0 0 0 0 0 0 0 0 0 0 0 
0 0 0 0 0 0 0 0 0 0 0 0 0 0 0 0 0 0 0 0 0 0 0 0 0 0 0 0 21 28 22 45 119 163 161 170 173 174 188 202 192 163 134 120 120 131 130 132 139 131 115 116 110 107 126 139 139 142 144 143 150 153 158 164 170 174 188 205 212 191 167 166 158 136 63 24 8 0 0 0 0 0 0 0 0 0 0 0 0 0 0 1 7 12 14 17 0 0 0 0 0 0 0 0 0 0 0 0 0 0 0 0 0 0 0 0 0 0 0 0 0 0 0 0 0 0 0 0 
0 0 0 0 0 0 0 0 0 0 0 0 0 0 0 0 0 0 0 0 0 0 0 0 0 0 4 27 22 19 66 137 163 170 175 175 185 203 187 164 138 123 128 141 146 143 139 133 132 112 107 107 104 104 112 130 130 128 133 135 139 152 165 174 171 171 172 172 185 207 208 180 163 160 143 82 25 9 0 0 0 0 0 0 0 0 0 0 0 0 0 1 8 14 14 17 0 0 0 0 0 0 0 0 0 0 0 0 0 0 0 0 0 0 0 0 0 0 0 0 0 0 0 0 0 0 0 0 
0 0 0 0 0 0 0 0 0 0 0 0 0 0 0 0 0 0 0 0 0 0 0 0 0 8 26 17 22 88 149 164 174 177 179 202 198 170 149 124 132 146 150 140 118 116 127 127 115 109 112 110 109 109 107 109 120 127 131 132 130 131 130 144 162 173 174 173 173 174 195 213 192 164 161 148 93 25 12 0 0 0 0 0 0 0 0 0 0 0 0 2 8 12 13 18 0 0 0 0 0 0 0 0 0 0 0 0 0 0 0 0 0 0 0 0 0 0 0 0 0 0 0 0 0 0 0 0 
0 0 0 0 0 0 0 0 0 0 0 0 0 0 0 0 0 0 0 0 0 0 0 0 11 25 17 31 103 153 167 171 175 188 206 184 156 138 132 144 150 140 122 112 106 102 102 96 99 98 95 91 92 98 97 97 99 110 118 120 123 127 128 128 126 134 155 168 172 170 170 187 210 195 163 158 149 103 28 11 0 0 0 0 0 0 0 0 0 0 0 2 9 13 14 16 0 0 0 0 0 0 0 0 0 0 0 0 0 0 0 0 0 0 0 0 0 0 0 0 0 0 0 0 0 0 0 0 
0 0 0 0 0 0 0 0 0 0 0 0 0 0 0 0 0 0 0 0 0 0 3 16 22 14 42 112 153 167 172 174 196 205 171 143 132 143 150 145 129 115 121 114 104 101 101 97 93 94 86 83 91 117 126 121 115 116 123 129 125 126 123 126 129 121 123 136 157 171 164 166 180 203 194 167 156 154 115 32 12 0 0 0 0 0 0 0 0 0 0 1 8 13 13 16 0 0 0 0 0 0 0 0 0 0 0 0 0 0 0 0 0 0 0 0 0 0 0 0 0 0 0 0 0 0 0 0 
0 0 0 0 0 0 0 0 0 0 0 0 0 0 0 0 0 0 0 0 0 6 13 20 16 54 123 155 167 168 175 197 195 165 133 128 143 139 134 132 135 139 132 130 133 132 125 112 118 125 116 119 124 131 140 141 127 118 117 123 135 136 141 139 126 121 125 121 125 146 166 160 157 174 201 193 172 158 153 115 31 9 0 0 0 0 0 0 0 0 0 1 8 13 12 16 0 0 0 0 0 0 0 0 0 0 0 0 0 0 0 0 0 0 0 0 0 0 0 0 0 0 0 0 0 0 0 0 
0 0 0 0 0 0 0 0 0 0 0 0 0 0 0 0 0 0 0 0 7 12 19 16 66 127 163 166 169 179 197 184 154 128 130 138 124 131 146 143 137 127 120 130 146 153 151 155 168 172 167 162 164 164 167 170 166 158 156 153 151 152 148 141 141 132 112 116 120 121 136 162 157 152 169 199 185 170 159 151 119 31 6 0 0 0 0 0 0 0 0 1 8 12 13 17 0 0 0 0 0 0 0 0 0 0 0 0 0 0 0 0 0 0 0 0 0 0 0 0 0 0 0 0 0 0 0 0 
0 0 0 0 0 0 0 0 0 0 0 0 0 0 0 0 0 0 0 7 14 19 18 72 126 165 162 166 180 198 181 144 124 135 135 137 152 150 133 115 110 125 152 165 168 162 157 154 156 158 159 149 143 145 146 146 146 145 142 143 142 149 156 162 155 145 140 119 114 116 112 120 149 153 149 168 201 181 174 159 155 112 25 2 0 0 0 0 0 0 0 1 8 12 13 18 0 0 0 0 0 0 0 0 0 0 0 0 0 0 0 0 0 0 0 0 0 0 0 0 0 0 0 0 0 0 0 0 
0 0 0 0 0 0 0 0 0 0 0 0 0 0 0 0 0 0 6 14 18 16 77 129 166 158 162 182 196 178 141 114 130 141 150 150 131 116 106 114 148 167 163 156 154 149 147 144 143 144 142 140 136 140 142 143 143 144 140 136 133 135 132 143 156 155 150 144 134 121 115 110 120 140 153 148 168 207 182 175 158 152 99 20 2 0 0 0 0 0 0 2 8 12 14 18 0 0 0 0 0 0 0 0 0 0 0 0 0 0 0 0 0 0 0 0 0 0 0 0 0 0 0 0 0 0 0 0 
0 0 0 0 0 0 0 0 0 0 0 0 0 0 0 0 0 1 15 18 16 78 128 159 163 159 179 186 173 134 112 116 143 158 150 126 103 105 124 153 155 150 149 148 149 150 148 147 153 149 150 147 151 150 147 145 149 149 142 139 141 145 139 131 137 150 152 142 141 137 116 113 120 121 136 148 145 175 202 174 171 152 140 79 13 0 0 0 0 0 0 2 8 13 14 19 0 0 0 0 0 0 0 0 0 0 0 0 0 0 0 0 0 0 0 0 0 0 0 0 0 0 0 0 0 0 0 0 
0 0 0 0 0 0 0 0 0 0 0 0 0 0 0 0 0 13 16 18 76 122 150 157 155 178 174 171 134 105 113 139 161 151 123 104 100 120 152 159 148 152 155 156 154 150 149 146 149 130 139 151 148 135 119 121 131 136 144 154 155 150 142 133 130 138 150 145 127 135 130 104 100 112 123 128 141 148 185 185 172 164 153 124 54 5 0 0 0 0 0 2 9 15 14 18 0 0 0 0 0 0 0 0 0 0 0 0 0 0 0 0 0 0 0 0 0 0 0 0 0 0 0 0 0 0 0 0 
0 0 0 0 0 0 0 0 0 0 0 0 0 0 0 0 7 14 17 63 119 142 150 153 175 170 171 144 103 112 148 151 146 127 102 100 114 152 156 157 156 155 155 151 148 143 137 131 107 97 108 111 104 107 98 94 90 95 103 133 149 150 150 141 141 140 142 152 131 115 132 129 101 98 117 125 114 135 162 194 177 174 165 141 99 24 1 0 0 0 0 2 9 14 14 18 0 0 0 0 0 0 0 0 0 0 0 0 0 0 0 0 0 0 0 0 0 0 0 0 0 0 0 0 0 0 0 0 
0 0 0 0 0 0 0 0 0 0 0 0 0 0 0 1 15 14 48 113 141 143 155 170 169 162 159 106 107 153 150 134 127 113 100 103 145 162 156 159 136 106 91 86 90 85 82 80 77 87 99 81 71 91 84 82 79 79 80 87 99 119 134 138 140 147 145 146 147 114 105 127 126 99 98 120 123 105 128 180 177 175 169 162 123 72 5 0 0 0 0 2 9 15 14 19 0 0 0 0 0 0 0 0 0 0 0 0 0 0 0 0 0 0 0 0 0 0 0 0 0 0 0 0 0 0 0 0 
0 0 0 0 0 0 0 0 0 0 0 0 0 0 0 8 13 22 98 123 145 150 165 172 142 169 114 96 144 156 135 112 110 97 91 130 158 159 156 141 95 68 65 64 62 57 59 61 71 78 95 78 61 78 63 61 59 56 63 66 64 70 99 132 153 149 147 147 149 136 98 100 127 122 99 105 129 114 101 151 175 169 170 171 140 110 28 1 0 0 0 2 9 14 14 18 0 0 0 0 0 0 0 0 0 0 0 0 0 0 0 0 0 0 0 0 0 0 0 0 0 0 0 0 0 0 0 0 
0 0 0 0 0 0 0 0 0 0 0 0 0 0 2 11 13 68 112 144 130 164 167 152 148 137 90 124 160 135 114 95 97 95 120 155 157 154 139 104 71 62 59 58 54 54 56 58 57 60 90 80 57 62 57 55 56 56 56 57 56 54 60 77 112 142 150 147 149 152 122 95 105 132 117 100 119 123 94 121 166 157 164 163 158 120 72 5 0 0 0 2 10 14 14 18 0 0 0 0 0 0 0 0 0 0 0 0 0 0 0 0 0 0 0 0 0 0 0 0 0 0 0 0 0 0 0 0 
0 0 0 0 0 0 0 0 0 0 0 0 0 0 6 11 35 108 122 135 148 166 155 142 145 107 102 153 151 122 100 88 96 114 151 156 146 135 109 74 60 58 55 54 54 55 58 58 56 58 66 68 62 65 65 64 60 59 61 57 55 54 55 56 70 109 144 151 147 156 150 110 92 110 130 114 116 124 104 99 150 163 157 154 171 129 102 16 0 0 0 2 10 13 13 17 0 0 0 0 0 0 0 0 0 0 0 0 0 0 0 0 0 0 0 0 0 0 0 0 0 0 0 0 0 0 0 0 
0 0 0 0 0 0 0 0 0 0 0 0 0 0 6 17 81 120 136 129 164 146 139 124 130 99 128 158 129 108 88 86 115 146 163 134 123 119 87 62 55 56 59 62 64 68 70 65 60 65 70 73 77 82 86 80 72 68 67 66 62 58 55 55 59 81 132 152 148 157 165 141 94 92 117 126 115 120 111 97 134 162 156 152 164 142 111 39 2 0 0 2 9 12 14 17 0 0 0 0 0 0 0 0 0 0 0 0 0 0 0 0 0 0 0 0 0 0 0 0 0 0 0 0 0 0 0 0 
0 0 0 0 0 0 0 0 0 0 0 0 0 2 8 35 107 128 130 145 164 140 134 114 119 107 146 146 110 97 83 99 140 168 140 110 117 103 75 58 60 62 69 77 79 82 78 74 76 81 88 93 98 100 99 95 88 82 79 76 74 71 63 62 59 62 99 146 156 158 161 163 132 92 98 125 118 125 113 96 121 154 156 152 160 152 115 62 4 0 0 1 9 14 16 18 0 0 0 0 0 0 0 0 0 0 0 0 0 0 0 0 0 0 0 0 0 0 0 0 0 0 0 0 0 0 0 0 
0 0 0 0 0 0 0 0 0 0 0 0 0 4 9 58 118 133 132 157 158 133 115 117 117 124 149 119 100 88 91 131 166 153 100 109 114 90 66 62 68 74 80 86 89 91 96 99 102 111 117 119 122 122 119 116 114 108 102 97 91 82 75 72 69 59 71 113 152 157 155 168 165 121 92 115 119 118 107 95 115 145 153 154 163 166 121 77 6 0 0 3 10 15 16 18 0 0 0 0 0 0 0 0 0 0 0 0 0 0 0 0 0 0 0 0 0 0 0 0 0 0 0 0 0 0 0 0 
0 0 0 0 0 0 0 0 0 0 0 0 0 5 17 81 126 133 139 159 141 113 114 118 121 136 125 102 98 93 124 165 172 136 103 110 97 77 71 73 79 85 89 95 105 115 120 122 122 119 114 111 120 115 106 102 105 113 120 121 118 111 98 84 79 69 63 83 125 151 150 151 167 158 111 106 118 119 115 92 109 134 149 157 154 167 129 90 10 0 0 2 9 15 16 20 0 0 0 0 0 0 0 0 0 0 0 0 0 0 0 0 0 0 0 0 0 0 0 0 0 0 0 0 0 0 0 0 
0 0 0 0 0 0 0 0 0 0 0 0 1 6 33 108 128 135 142 156 129 115 120 125 134 121 112 101 99 103 155 170 159 119 103 100 81 79 81 83 87 92 103 117 123 123 119 113 106 90 85 84 103 84 84 83 84 89 90 105 120 127 123 108 94 82 74 80 97 122 140 141 154 168 146 112 119 116 113 93 107 126 149 158 155 166 137 102 17 0 0 3 10 15 15 19 0 0 0 0 0 0 0 0 0 0 0 0 0 0 0 0 0 0 0 0 0 0 0 0 0 0 0 0 0 0 0 0 
0 0 0 0 0 0 0 0 0 0 0 0 1 8 43 121 129 140 135 152 109 109 116 134 129 104 108 100 104 112 167 161 136 104 101 100 85 84 86 88 95 106 121 123 114 107 97 85 85 83 82 84 82 77 78 81 81 82 86 87 99 117 127 123 109 98 101 100 85 95 120 134 137 155 168 136 112 117 106 94 103 121 143 161 158 175 146 114 29 0 0 3 10 14 15 20 0 0 0 0 0 0 0 0 0 0 0 0 0 0 0 0 0 0 0 0 0 0 0 0 0 0 0 0 0 0 0 0 
0 0 0 0 0 0 0 0 0 0 0 0 1 11 53 127 131 138 128 149 99 112 115 140 118 95 105 108 105 117 166 145 109 96 99 104 91 87 89 92 105 118 123 118 105 91 80 78 77 80 82 82 78 76 76 77 78 80 81 84 88 107 123 130 136 145 132 107 86 79 100 119 126 140 164 156 114 119 103 95 112 116 137 165 157 177 153 119 40 1 0 2 10 15 16 19 0 0 0 0 0 0 0 0 0 0 0 0 0 0 0 0 0 0 0 0 0 0 0 0 0 0 0 0 0 0 0 0 
0 0 0 0 0 0 0 0 0 0 0 0 2 12 62 128 131 131 144 148 94 116 121 149 115 92 108 105 102 122 162 124 96 96 97 111 104 91 93 102 112 115 119 117 99 84 80 77 78 78 81 79 78 75 76 80 81 79 81 85 90 108 130 148 151 130 104 107 97 78 87 114 119 132 153 159 115 120 99 93 119 116 134 171 149 170 161 124 49 3 0 2 10 14 16 21 0 0 0 0 0 0 0 0 0 0 0 0 0 0 0 0 0 0 0 0 0 0 0 0 0 0 0 0 0 0 0 0 
0 0 0 0 0 0 0 0 0 0 0 0 4 12 71 130 138 139 157 142 95 119 127 150 113 90 107 104 104 120 144 98 92 99 102 112 118 114 117 123 118 104 119 119 111 91 79 80 77 78 80 80 78 76 77 80 82 80 83 83 90 115 134 128 114 102 116 123 99 76 81 107 116 118 133 159 134 122 97 90 117 115 127 172 150 167 167 128 53 4 0 3 11 16 16 21 0 0 0 0 0 0 0 0 0 0 0 0 0 0 0 0 0 0 0 0 0 0 0 0 0 0 0 0 0 0 0 0 
0 0 0 0 0 0 0 0 0 0 0 0 5 12 78 127 139 141 165 136 97 124 130 149 116 89 111 112 105 115 126 83 96 102 105 112 128 134 142 139 129 116 128 146 141 121 85 77 78 81 80 79 81 75 80 82 81 83 82 84 96 131 132 109 100 105 103 95 86 69 68 92 112 115 111 137 163 128 103 100 124 114 122 169 152 166 175 136 66 4 0 3 11 15 16 20 0 0 0 0 0 0 0 0 0 0 0 0 0 0 0 0 0 0 0 0 0 0 0 0 0 0 0 0 0 0 0 0 
0 0 0 0 0 0 0 0 0 0 0 0 4 12 83 134 144 144 168 136 98 131 135 151 121 103 112 109 106 106 103 76 96 106 101 97 97 90 84 83 81 82 93 108 118 125 108 83 79 78 81 77 88 80 78 82 83 83 85 94 123 132 101 79 78 81 90 91 88 74 65 86 104 111 121 125 164 148 118 118 138 113 117 164 151 167 180 139 80 6 0 3 10 15 16 20 0 0 0 0 0 0 0 0 0 0 0 0 0 0 0 0 0 0 0 0 0 0 0 0 0 0 0 0 0 0 0 0 
0 0 0 0 0 0 0 0 0 0 0 0 5 13 87 131 145 141 173 135 96 127 140 147 134 114 111 110 104 98 93 81 107 100 89 85 83 81 81 80 77 77 75 78 95 111 116 107 84 88 94 85 96 89 85 91 87 88 97 121 130 90 77 74 70 83 92 96 94 80 64 76 106 116 127 130 136 166 149 139 134 105 111 154 146 168 181 139 93 9 0 3 11 14 16 19 0 0 0 0 0 0 0 0 0 0 0 0 0 0 0 0 0 0 0 0 0 0 0 0 0 0 0 0 0 0 0 0 
0 0 0 0 0 0 0 0 0 0 0 0 6 15 88 132 143 139 175 129 95 128 135 140 143 111 117 121 104 94 91 97 104 92 92 87 84 83 85 86 86 80 77 78 78 96 112 117 101 108 107 104 101 97 104 112 98 98 90 108 96 76 78 71 81 94 99 103 105 92 81 90 114 121 122 135 138 169 182 152 124 96 106 143 137 160 180 137 101 13 0 3 10 15 16 19 0 0 0 0 0 0 0 0 0 0 0 0 0 0 0 0 0 0 0 0 0 0 0 0 0 0 0 0 0 0 0 0 
0 0 0 0 0 0 0 0 0 0 0 0 6 16 87 137 145 153 173 120 98 128 130 129 149 120 116 124 116 97 97 105 96 94 89 88 83 83 90 95 97 90 80 77 77 79 99 94 102 83 78 87 100 100 118 104 91 77 87 101 80 76 69 80 99 105 105 108 110 100 75 74 105 127 123 134 152 173 202 166 117 90 106 136 128 149 179 139 108 19 0 3 10 16 16 20 0 0 0 0 0 0 0 0 0 0 0 0 0 0 0 0 0 0 0 0 0 0 0 0 0 0 0 0 0 0 0 0 
0 0 0 0 0 0 0 0 0 0 0 0 6 16 82 140 144 145 162 115 101 119 128 126 138 139 127 124 119 106 110 103 95 99 93 91 95 99 96 97 95 97 90 80 77 75 84 86 101 101 98 89 109 107 120 82 76 82 103 98 80 77 82 90 90 91 96 105 106 95 78 76 109 123 115 116 145 174 201 171 106 86 106 130 119 138 173 143 113 29 2 4 10 15 17 21 0 0 0 0 0 0 0 0 0 0 0 0 0 0 0 0 0 0 0 0 0 0 0 0 0 0 0 0 0 0 0 0 
0 0 0 0 0 0 0 0 0 0 0 0 6 17 82 139 147 146 164 116 103 109 123 118 122 144 135 121 112 104 126 107 110 110 103 100 103 97 91 91 91 92 93 88 80 76 79 84 100 102 96 105 100 109 118 103 100 103 106 90 82 83 82 85 87 86 89 95 101 94 84 81 104 118 117 110 134 175 196 174 101 77 100 137 109 128 164 145 115 36 3 3 12 17 18 21 0 0 0 0 0 0 0 0 0 0 0 0 0 0 0 0 0 0 0 0 0 0 0 0 0 0 0 0 0 0 0 0 
0 0 0 0 0 0 0 0 0 0 0 0 7 18 89 140 150 147 163 123 100 101 119 106 108 141 135 123 113 103 124 91 105 104 98 95 97 95 89 79 80 80 83 86 85 83 80 84 91 103 91 77 106 148 138 107 100 105 106 88 86 78 82 84 84 87 90 92 91 84 73 76 101 114 115 105 135 185 196 176 94 74 95 138 106 117 167 149 119 43 1 3 11 17 18 22 0 0 0 0 0 0 0 0 0 0 0 0 0 0 0 0 0 0 0 0 0 0 0 0 0 0 0 0 0 0 0 0 
0 0 0 0 0 0 0 0 0 0 0 0 8 18 91 137 149 145 158 118 86 99 110 95 101 131 143 158 142 107 119 87 100 104 95 94 93 91 84 78 79 80 82 83 82 85 78 71 89 103 104 95 116 102 101 116 92 107 112 93 81 76 80 82 82 85 90 89 85 78 72 78 105 116 109 106 142 185 186 166 90 74 92 130 106 105 162 156 122 51 3 3 12 17 17 21 0 0 0 0 0 0 0 0 0 0 0 0 0 0 0 0 0 0 0 0 0 0 0 0 0 0 0 0 0 0 0 0 
0 0 0 0 0 0 0 0 0 0 0 0 9 21 94 136 151 144 150 91 78 98 92 96 99 130 155 170 157 124 114 90 99 102 94 91 94 92 79 78 78 77 77 80 71 63 73 76 87 108 117 133 119 78 84 72 98 99 101 83 87 102 113 85 83 88 91 91 82 74 68 77 105 114 108 113 147 171 178 167 88 73 91 127 112 103 140 152 121 56 3 2 11 16 17 21 0 0 0 0 0 0 0 0 0 0 0 0 0 0 0 0 0 0 0 0 0 0 0 0 0 0 0 0 0 0 0 0 
0 0 0 0 0 0 0 0 0 0 0 0 9 18 92 133 152 143 129 85 81 93 83 97 105 134 153 164 158 130 119 106 96 99 92 93 93 90 83 78 78 77 81 77 59 55 65 70 82 89 87 114 90 71 75 59 82 102 89 98 99 100 96 87 86 90 93 91 77 71 62 79 110 113 106 118 153 167 182 163 85 77 88 117 112 101 133 150 121 58 3 3 12 15 16 20 0 0 0 0 0 0 0 0 0 0 0 0 0 0 0 0 0 0 0 0 0 0 0 0 0 0 0 0 0 0 0 0 
0 0 0 0 0 0 0 0 0 0 0 0 9 16 90 128 148 136 121 90 85 94 80 101 106 131 147 161 152 125 122 122 97 99 94 91 91 89 84 80 76 77 80 93 80 78 66 67 79 89 119 109 81 73 80 75 81 109 79 92 88 86 81 86 85 90 95 88 77 69 64 81 118 114 105 123 169 181 172 157 85 77 87 108 112 103 128 153 115 58 1 2 10 16 16 20 0 0 0 0 0 0 0 0 0 0 0 0 0 0 0 0 0 0 0 0 0 0 0 0 0 0 0 0 0 0 0 0 
0 0 0 0 0 0 0 0 0 0 0 0 7 15 86 126 149 133 114 95 83 89 77 99 108 137 155 165 146 119 114 124 98 99 94 88 95 96 88 81 79 77 70 66 53 63 60 64 88 87 115 79 81 79 88 64 64 104 102 90 82 78 78 84 86 93 95 88 78 67 64 81 116 109 101 129 175 166 145 157 90 77 88 112 107 102 125 146 112 59 2 2 10 14 16 20 0 0 0 0 0 0 0 0 0 0 0 0 0 0 0 0 0 0 0 0 0 0 0 0 0 0 0 0 0 0 0 0 
0 0 0 0 0 0 0 0 0 0 0 0 5 15 81 120 143 138 107 103 82 88 77 94 109 136 155 168 148 110 102 106 91 92 86 88 97 95 91 83 82 75 65 56 52 57 59 66 81 97 109 71 76 81 92 72 67 80 113 88 78 78 83 87 90 92 94 88 75 64 61 74 104 107 106 139 169 141 129 158 101 82 93 113 100 100 129 136 111 57 1 1 9 13 16 19 0 0 0 0 0 0 0 0 0 0 0 0 0 0 0 0 0 0 0 0 0 0 0 0 0 0 0 0 0 0 0 0 
0 0 0 0 0 0 0 0 0 0 0 0 1 15 79 118 136 148 109 105 82 88 79 82 105 134 157 170 151 105 90 109 92 93 91 88 93 92 92 84 79 71 64 59 55 59 63 52 70 110 77 71 72 82 91 76 72 71 102 99 87 84 86 87 88 89 94 88 73 64 62 74 102 107 108 147 163 137 123 148 111 83 99 116 94 98 136 128 106 54 1 1 8 14 15 20 0 0 0 0 0 0 0 0 0 0 0 0 0 0 0 0 0 0 0 0 0 0 0 0 0 0 0 0 0 0 0 0 
0 0 0 0 0 0 0 0 0 9 8 0 0 14 74 115 124 146 112 105 80 90 80 72 93 131 159 175 142 99 88 103 102 93 94 88 85 81 83 85 77 71 68 63 60 73 70 58 81 104 69 69 71 85 88 81 75 73 82 115 111 116 108 91 81 88 94 82 65 59 57 71 99 106 115 159 161 134 148 151 120 84 101 114 89 99 134 124 101 51 1 1 8 15 17 21 0 0 0 0 0 0 0 0 0 0 0 0 0 0 0 0 0 0 0 0 0 0 0 0 0 0 0 0 0 0 0 0 
0 0 0 0 0 0 0 0 0 0 10 3 0 12 69 111 125 143 124 109 81 91 88 75 78 121 167 180 130 95 67 94 110 90 93 85 80 80 79 83 82 88 93 87 73 72 62 64 95 87 73 72 70 82 87 88 75 73 71 128 127 118 95 89 85 86 90 75 58 55 55 69 102 116 135 173 119 87 123 141 128 91 103 108 90 110 137 131 101 48 2 1 8 14 16 19 0 0 0 0 0 0 0 0 0 0 0 0 0 0 0 0 0 0 0 0 0 0 0 0 0 0 0 0 0 0 0 0 
0 0 0 0 0 0 0 0 0 1 6 8 3 10 59 104 123 133 127 105 81 85 93 87 71 106 166 186 120 99 63 59 116 111 91 85 77 75 77 84 96 101 97 104 87 80 92 84 113 78 69 65 69 92 86 79 78 77 86 124 128 116 106 106 99 106 107 83 54 57 61 76 115 142 170 146 83 88 106 125 143 89 102 99 100 115 124 127 100 42 1 1 8 15 16 19 0 0 0 0 0 0 0 0 0 0 0 0 0 0 0 0 0 0 0 0 0 0 0 0 0 0 0 0 0 0 0 0 
0 0 0 0 0 0 0 0 0 1 4 7 1 8 48 97 122 123 126 123 94 80 89 92 76 91 169 189 125 103 82 75 104 132 103 88 80 77 95 104 93 95 104 106 81 72 78 101 119 65 63 65 70 101 86 80 77 74 71 104 130 123 117 108 101 109 122 107 82 64 68 110 160 180 178 134 86 99 95 123 150 101 99 101 126 109 125 115 92 29 1 1 10 24 16 18 0 0 0 0 0 0 0 0 0 0 0 0 0 0 0 0 0 0 0 0 0 0 0 0 0 0 0 0 0 0 0 0 
0 0 0 0 0 0 0 0 0 0 3 8 1 6 38 92 121 120 120 131 113 80 83 93 79 77 166 178 137 108 107 96 110 136 135 108 100 108 111 110 113 103 82 80 66 77 85 94 113 59 54 74 78 93 78 70 78 75 76 102 132 121 111 118 125 137 169 180 162 143 129 153 170 172 171 150 128 115 95 130 156 114 102 124 131 113 135 104 89 20 3 4 17 14 16 20 0 0 0 0 0 0 0 0 0 0 0 0 0 0 0 0 0 0 0 0 0 0 0 0 0 0 0 0 0 0 0 0 
0 0 0 0 0 0 0 0 0 0 0 11 2 5 30 87 119 126 121 130 113 79 80 97 86 76 147 165 141 137 135 119 121 129 148 149 134 118 112 114 122 101 81 74 77 72 88 93 115 65 63 89 75 91 71 64 76 76 89 92 132 118 113 127 140 159 175 158 123 158 172 143 141 145 135 117 159 140 116 137 151 123 99 142 129 133 121 85 77 12 1 1 12 18 15 20 0 0 0 0 0 0 0 0 0 0 0 0 0 0 0 0 0 0 0 0 0 0 0 0 0 0 0 0 0 0 0 0 
0 0 0 0 0 0 0 0 0 0 0 11 1 6 20 72 112 127 127 126 119 75 75 95 95 90 134 156 134 135 152 140 125 106 127 149 138 138 143 139 133 117 97 84 84 68 75 91 114 74 65 71 70 82 73 75 99 103 106 108 120 104 109 119 132 157 161 126 100 129 171 142 150 149 119 114 120 106 112 133 156 147 112 157 143 147 93 75 56 5 0 1 12 18 16 21 0 0 0 0 0 0 0 0 0 0 0 0 0 0 0 0 0 0 0 0 0 0 0 0 0 0 0 0 0 0 0 0 
0 0 0 0 0 0 0 0 0 0 0 11 2 7 18 58 102 125 125 135 134 91 92 94 95 115 133 154 149 132 155 166 128 130 160 181 170 160 151 141 124 103 105 95 74 66 77 99 120 95 96 95 69 88 104 112 96 109 89 99 119 110 126 126 111 127 164 141 142 167 163 154 166 153 100 93 101 108 127 138 174 176 147 169 158 121 112 84 30 3 1 0 13 15 17 22 0 0 0 0 0 0 0 0 0 0 0 0 0 0 0 0 0 0 0 0 0 0 0 0 0 0 0 0 0 0 0 0 
0 0 0 0 0 0 0 0 0 0 3 11 5 7 16 42 96 127 119 126 154 131 120 111 105 140 138 128 150 155 162 164 172 131 105 130 139 153 156 148 134 104 103 114 87 69 95 100 116 91 94 110 103 124 107 87 85 104 100 97 116 125 111 97 85 73 124 148 152 162 153 162 166 128 95 92 82 101 118 147 186 187 174 156 127 100 102 73 14 4 2 0 14 14 16 22 0 0 0 0 0 0 0 0 0 0 0 0 0 0 0 0 0 0 0 0 0 0 0 0 0 0 0 0 0 0 0 0 
0 0 0 0 0 0 0 0 0 0 0 11 1 0 12 18 63 120 135 127 147 166 156 145 110 119 156 118 114 148 154 142 153 174 142 106 132 150 162 146 141 127 103 119 121 88 93 102 111 88 87 101 105 106 118 100 87 92 103 118 121 123 102 86 84 63 70 99 119 135 125 146 162 126 96 105 86 80 62 119 177 185 150 110 89 99 123 82 15 2 0 0 7 17 18 26 0 0 0 0 0 0 0 0 0 0 0 0 0 0 0 0 0 0 0 0 0 0 0 0 0 0 0 0 0 0 0 0 
0 0 0 0 0 0 0 0 0 0 0 11 0 0 8 11 45 108 134 120 141 177 164 166 139 137 166 145 108 82 130 141 147 169 166 138 160 159 137 112 119 136 126 129 124 100 104 116 119 95 88 102 111 109 119 100 93 89 93 116 112 103 94 96 97 66 78 98 122 131 136 148 131 91 93 92 80 70 88 137 150 167 120 92 81 140 120 55 6 2 0 0 5 18 18 25 0 0 0 0 0 0 0 0 0 0 0 0 0 0 0 0 0 0 0 0 0 0 0 0 0 0 0 0 0 0 0 0 
0 0 0 0 0 0 0 0 0 0 0 11 0 0 5 13 30 89 127 132 137 156 167 159 167 165 168 152 92 51 78 133 159 166 162 169 161 133 85 71 80 104 114 119 98 98 108 96 102 101 91 93 80 84 107 110 96 80 94 92 83 79 87 89 97 107 118 118 126 146 139 137 152 137 134 122 97 101 108 130 174 168 102 69 79 115 99 34 6 4 0 0 5 16 19 27 0 0 0 0 0 0 0 0 0 0 0 0 0 0 0 0 0 0 0 0 0 0 0 0 0 0 0 0 0 0 0 0 
0 0 0 0 0 0 0 0 0 0 2 9 1 0 0 8 14 63 125 165 134 99 124 141 136 152 161 149 92 75 62 108 145 144 145 166 166 126 75 66 71 84 88 89 90 90 91 84 78 124 133 114 79 74 117 108 73 75 101 88 72 77 96 108 104 113 126 127 132 153 131 110 137 156 157 146 154 136 104 122 169 156 91 94 98 90 72 18 9 6 2 0 5 16 18 27 0 0 0 0 0 0 0 0 0 0 0 0 0 0 0 0 0 0 0 0 0 0 0 0 0 0 0 0 0 0 0 0 
0 0 0 0 0 0 0 0 0 0 3 8 1 0 0 4 10 36 100 139 124 68 106 149 116 98 119 131 86 77 85 75 98 127 140 139 159 156 135 94 89 74 77 81 73 71 86 95 95 130 137 117 102 100 137 109 71 52 101 108 81 82 119 144 136 121 124 123 114 101 90 125 145 149 160 159 165 160 127 142 168 145 88 59 82 77 46 2 11 12 8 0 4 20 20 27 0 0 0 0 0 0 0 0 0 0 0 0 0 0 0 0 0 0 0 0 0 0 0 0 0 0 0 0 0 0 0 0 
0 0 0 0 0 0 0 0 0 0 5 9 3 0 0 2 10 18 77 128 136 88 102 151 117 91 99 123 117 118 135 130 85 102 141 155 169 167 158 106 64 85 84 94 103 107 113 131 117 106 114 117 114 125 148 138 125 104 126 130 105 121 134 141 145 146 141 118 83 75 96 121 146 134 163 176 175 156 168 169 138 76 73 85 95 75 20 3 0 10 12 2 3 19 19 27 0 0 0 0 0 0 0 0 0 0 0 0 0 0 0 0 0 0 0 0 0 0 0 0 0 0 0 0 0 0 0 0 
0 0 0 0 0 0 0 0 0 0 5 10 3 0 0 1 11 7 45 116 143 126 107 139 125 107 99 124 169 181 163 133 110 93 77 103 140 149 130 125 115 127 116 136 140 127 123 123 118 124 132 121 123 127 138 126 121 136 145 156 139 145 131 132 135 145 134 81 71 101 99 91 122 133 169 182 184 186 184 166 111 67 71 92 97 62 7 7 0 3 12 3 3 19 18 27 0 0 0 0 0 0 0 0 0 0 0 0 0 0 0 0 0 0 0 0 0 0 0 0 0 0 0 0 0 0 0 0 
0 0 0 0 0 0 0 0 0 0 5 12 6 0 0 0 11 9 25 85 120 124 102 121 138 122 143 175 181 191 188 143 123 100 68 72 107 115 119 127 142 154 134 116 119 121 125 146 163 151 135 127 142 152 155 153 138 131 141 153 148 173 153 130 126 124 108 80 80 98 95 96 111 115 143 179 187 197 169 143 89 68 96 110 87 35 4 6 2 0 5 0 4 19 19 28 0 0 0 0 0 0 0 0 0 0 0 0 0 0 0 0 0 0 0 0 0 0 0 0 0 0 0 0 0 0 0 0 
0 0 0 0 0 0 0 0 0 0 0 10 9 0 0 0 7 11 10 63 121 118 92 93 126 174 185 178 170 169 180 167 121 101 83 80 80 89 104 115 148 140 127 122 137 162 163 191 190 166 137 138 139 130 131 141 132 125 145 156 143 178 189 163 140 119 108 92 95 104 91 88 85 99 107 141 179 186 140 113 92 120 118 133 79 14 3 6 2 0 0 0 5 19 22 27 0 0 0 0 0 0 0 0 0 0 0 0 0 0 0 0 0 0 0 0 0 0 0 0 0 0 0 0 0 0 0 0 
0 0 0 0 0 0 0 0 0 0 0 2 10 0 0 0 5 8 8 28 112 125 90 67 127 167 197 192 186 173 169 158 144 132 109 89 79 75 88 118 144 150 157 157 169 174 170 182 154 145 125 127 133 125 133 143 138 129 154 150 129 150 162 175 168 139 125 122 118 100 70 64 88 122 108 139 160 166 114 101 113 102 119 141 52 8 5 5 2 0 0 0 9 22 22 28 0 0 0 0 0 0 0 0 0 0 0 0 0 0 0 0 0 0 0 0 0 0 0 0 0 0 0 0 0 0 0 0 
0 0 0 0 0 0 0 0 0 0 0 2 13 8 0 0 3 7 8 15 76 122 111 88 128 131 163 182 195 183 149 119 123 136 140 119 109 101 105 104 109 144 154 150 148 166 193 176 142 135 135 150 167 140 144 154 145 129 149 125 105 114 134 168 181 139 104 107 101 85 74 103 113 123 127 163 137 147 119 118 54 33 57 108 34 9 5 5 0 0 0 0 9 21 22 28 0 0 0 0 0 0 0 0 0 0 0 0 0 0 0 0 0 0 0 0 0 0 0 0 0 0 0 0 0 0 0 0 
0 0 0 0 0 0 0 0 0 0 0 4 16 15 9 8 2 7 13 17 45 106 133 95 98 112 139 152 180 157 130 116 127 118 132 126 112 119 127 117 121 155 150 134 127 156 185 159 133 139 141 154 148 140 110 108 112 113 131 104 100 129 130 128 173 166 108 110 112 117 115 118 118 116 138 164 153 180 166 108 42 52 90 81 25 15 4 2 0 0 0 0 10 20 18 29 0 0 0 0 0 0 0 0 0 0 0 0 0 0 0 0 0 0 0 0 0 0 0 0 0 0 0 0 0 0 0 0 
0 0 0 0 0 0 0 0 0 0 0 0 5 10 7 7 9 15 13 18 26 71 105 84 74 111 139 160 170 107 119 125 128 122 119 127 131 132 100 82 103 160 155 144 130 138 172 141 130 123 141 137 129 144 130 98 88 86 104 87 77 96 99 151 164 176 131 148 146 157 133 110 106 123 142 139 146 178 145 100 74 108 114 55 20 14 14 6 5 10 12 9 12 12 16 28 0 0 0 0 0 0 0 0 0 0 0 0 0 0 0 0 0 0 0 0 0 0 0 0 0 0 0 0 0 0 0 0 
0 0 0 0 0 0 0 0 0 0 0 0 5 8 11 12 9 9 12 12 19 47 73 74 85 93 103 127 157 127 121 117 95 103 122 132 131 127 119 108 155 188 165 149 122 105 137 134 138 135 118 107 104 127 142 124 109 109 98 84 71 97 96 128 176 190 170 177 144 143 118 73 94 123 146 134 114 145 101 64 58 99 74 31 12 10 10 11 11 8 3 2 10 8 15 27 0 0 0 0 0 0 0 0 0 0 0 0 0 0 0 0 0 0 0 0 0 0 0 0 0 0 0 0 0 0 0 0 
0 0 0 0 0 0 0 0 0 0 0 0 5 4 12 11 6 6 10 14 16 29 52 33 44 72 94 117 144 140 140 125 97 75 68 79 97 115 131 193 138 158 173 187 156 145 165 166 145 133 141 145 143 169 170 154 163 177 189 177 165 170 161 172 191 173 191 146 113 123 125 116 116 130 146 117 62 99 65 63 69 73 49 31 10 1 1 6 8 4 0 3 12 6 13 26 0 0 0 0 0 0 0 0 0 0 0 0 0 0 0 0 0 0 0 0 0 0 0 0 0 0 0 0 0 0 0 0 
0 0 0 0 0 0 0 0 0 0 0 0 2 2 3 6 6 1 1 9 14 18 30 52 48 43 55 39 78 105 121 135 127 101 65 44 47 55 107 192 169 155 160 153 170 167 142 164 146 132 165 171 164 172 165 162 169 183 180 165 166 162 190 188 231 173 172 179 196 84 98 98 40 30 61 45 42 72 26 50 57 44 32 37 25 3 0 0 4 1 2 3 8 5 12 26 0 0 0 0 0 0 0 0 0 0 0 0 0 0 0 0 0 0 0 0 0 0 0 0 0 0 0 0 0 0 0 0 
0 0 0 0 0 0 0 0 0 0 0 0 0 1 1 2 6 0 0 6 23 21 15 48 84 70 45 26 53 65 69 109 133 136 121 118 116 146 184 198 156 169 185 170 165 186 188 161 155 121 138 159 147 147 163 176 183 199 182 166 134 146 183 166 109 162 118 156 80 84 86 94 86 82 63 50 62 71 34 32 36 49 49 36 17 0 0 0 0 0 0 3 3 6 12 27 0 0 0 0 0 0 0 0 0 0 0 0 0 0 0 0 0 0 0 0 0 0 0 0 0 0 0 0 0 0 0 0 
0 0 0 0 0 0 0 0 0 0 0 0 0 2 4 0 1 9 6 7 13 17 18 23 35 38 33 28 54 60 43 51 98 85 86 103 83 75 79 82 79 119 136 165 127 128 138 137 107 95 137 124 103 107 103 100 92 85 82 97 111 131 88 194 180 145 131 102 57 54 54 55 51 60 66 28 48 72 32 28 29 28 21 10 0 0 8 2 0 0 0 3 3 5 13 26 0 0 0 0 0 0 0 0 0 0 0 0 0 0 0 0 0 0 0 0 0 0 0 0 0 0 0 0 0 0 0 0 
0 0 0 0 0 0 0 0 0 0 0 0 0 0 4 0 0 2 8 5 9 12 14 15 21 20 24 25 51 61 35 72 81 69 64 78 71 56 50 48 45 54 72 67 75 99 109 77 68 75 69 62 79 82 72 55 39 46 50 63 88 75 61 58 64 85 52 46 43 60 40 35 49 60 80 33 57 71 32 29 29 24 19 8 0 0 0 0 0 0 3 3 2 3 11 25 0 0 0 0 0 0 0 0 0 0 0 0 0 0 0 0 0 0 0 0 0 0 0 0 0 0 0 0 0 0 0 0 
0 0 0 0 0 0 0 0 0 0 0 0 0 0 0 0 0 0 0 0 5 10 10 14 22 29 27 31 60 95 47 80 91 82 69 71 85 75 144 166 156 145 76 63 60 69 92 95 65 54 56 60 80 86 65 47 31 33 52 100 112 114 120 112 119 126 124 21 17 41 61 63 89 124 136 88 93 84 54 45 25 21 18 14 0 0 0 0 0 0 1 1 0 2 8 21 0 0 0 0 0 0 0 0 0 0 0 0 0 0 0 0 0 0 0 0 0 0 0 0 0 0 0 0 0 0 0 0 
0 0 0 0 0 0 0 0 0 0 0 0 0 0 0 0 0 0 0 0 0 2 5 11 23 46 40 42 64 94 55 59 70 58 46 53 78 106 150 111 91 101 149 114 139 140 146 103 90 70 82 79 62 68 68 64 52 73 94 128 156 187 189 151 140 121 87 36 54 72 161 182 173 170 178 157 130 103 90 79 39 25 16 11 0 0 0 0 0 0 0 0 0 0 2 14 0 0 0 0 0 0 0 0 0 0 0 0 0 0 0 0 0 0 0 0 0 0 0 0 0 0 0 0 0 0 0 0 
0 0 0 0 0 0 0 0 0 0 0 0 0 0 0 0 0 0 0 0 0 0 0 3 19 48 40 35 34 65 39 56 58 26 36 56 55 86 176 87 97 123 211 163 165 125 117 111 160 137 185 183 126 101 87 67 50 68 92 124 147 195 234 207 108 166 110 119 102 129 134 138 136 110 86 48 81 60 68 82 40 4 1 0 0 0 0 0 0 0 0 1 0 0 1 10 0 0 0 0 0 0 0 0 0 0 0 0 0 0 0 0 0 0 0 0 0 0 0 0 0 0 0 0 0 0 0 0 
0 0 0 0 0 0 0 0 0 0 0 0 0 0 0 0 0 0 0 0 0 0 0 4 10 23 34 32 34 80 75 83 92 81 90 113 139 160 118 70 121 117 153 109 121 125 142 151 180 146 98 74 53 53 48 43 36 45 60 67 77 138 155 153 149 93 74 74 110 109 92 100 100 100 115 93 100 58 51 55 19 12 5 0 0 0 0 0 0 0 0 4 8 23 30 39 0 0 0 0 0 0 0 0 0 0 0 0 0 0 0 0 0 0 0 0 0 0 0 0 0 0 0 0 0 0 0 0 
0 0 0 0 0 0 0 0 0 0 0 0 0 0 0 0 0 0 0 0 0 0 4 9 6 19 23 25 27 64 97 75 91 64 40 41 57 91 168 145 115 93 121 110 80 57 116 127 156 88 110 70 53 64 56 41 36 55 66 85 144 161 141 111 99 106 137 172 103 85 79 36 30 53 97 96 89 33 19 17 18 18 7 1 0 0 0 0 0 0 0 0 0 3 16 33 0 0 0 0 0 0 0 0 0 0 0 0 0 0 0 0 0 0 0 0 0 0 0 0 0 0 0 0 0 0 0 0 
0 0 0 0 0 0 0 0 0 0 0 0 0 0 0 0 0 0 0 0 0 0 0 10 10 13 19 20 22 45 94 78 97 60 30 25 21 34 60 86 94 96 96 105 84 77 117 125 153 154 176 138 106 100 99 79 97 115 129 138 163 173 109 73 98 130 138 141 151 88 76 44 26 29 84 104 89 37 19 20 19 12 9 0 0 0 0 0 0 0 0 0 0 3 16 32 0 0 0 0 0 0 0 0 0 0 0 0 0 0 0 0 0 0 0 0 0 0 0 0 0 0 0 0 0 0 0 0 
0 0 0 0 0 0 0 0 0 0 0 0 0 0 0 0 0 0 0 0 0 0 0 7 11 10 18 21 21 33 95 74 99 66 31 28 29 44 83 115 105 71 84 114 90 61 90 145 121 157 176 152 147 139 137 116 146 137 147 149 171 188 135 82 103 122 123 124 142 134 94 43 28 26 84 109 88 39 18 19 17 11 7 0 0 0 0 0 0 0 0 0 0 2 14 31 0 0 0 0 0 0 0 0 0 0 0 0 0 0 0 0 0 0 0 0 0 0 0 0 0 0 0 0 0 0 0 0 
0 0 0 0 0 0 0 0 0 0 0 0 0 0 0 0 0 0 0 0 0 0 0 3 12 8 13 20 20 28 82 64 90 67 30 30 69 113 108 67 53 55 68 106 102 52 67 120 142 174 179 139 144 152 146 132 144 132 142 136 161 197 146 88 96 130 116 105 117 133 142 98 49 30 73 107 75 39 18 19 14 10 5 0 0 0 0 0 0 0 0 0 0 0 12 30 0 0 0 0 0 0 0 0 0 0 0 0 0 0 0 0 0 0 0 0 0 0 0 0 0 0 0 0 0 0 0 0 
0 0 0 0 0 0 0 0 0 0 0 0 0 0 0 0 0 0 0 0 0 0 0 0 8 9 9 17 18 28 72 50 90 72 33 51 108 98 49 37 38 45 89 117 100 58 66 76 118 156 177 136 145 158 149 142 137 130 151 130 104 138 144 102 90 129 120 84 77 96 109 137 106 44 56 103 64 52 19 19 14 8 4 0 0 0 0 0 0 0 0 0 0 0 11 30 0 0 0 0 0 0 0 0 0 0 0 0 0 0 0 0 0 0 0 0 0 0 0 0 0 0 0 0 0 0 0 0 
0 0 0 0 0 0 0 0 0 0 0 0 0 0 0 0 0 0 0 0 0 0 0 0 2 7 11 13 18 28 60 39 81 73 39 74 127 81 41 36 41 51 84 141 123 63 56 59 86 112 141 137 144 154 140 117 113 130 144 105 78 84 123 115 96 127 133 71 51 50 45 94 133 78 56 97 68 61 20 16 15 10 3 0 0 0 0 0 0 0 0 0 0 0 10 30 0 0 0 0 0 0 0 0 0 0 0 0 0 0 0 0 0 0 0 0 0 0 0 0 0 0 0 0 0 0 0 0 
0 0 0 0 0 0 0 0 0 0 0 0 0 0 0 0 0 0 0 0 0 0 0 0 0 6 8 12 15 19 51 70 70 66 49 82 137 70 39 37 40 57 99 149 110 56 53 55 81 99 114 121 128 135 129 113 107 114 117 94 71 83 87 74 65 67 132 86 49 41 31 68 146 96 64 68 68 30 17 16 16 11 4 0 0 0 0 0 0 0 0 0 0 1 13 30 0 0 0 0 0 0 0 0 0 0 0 0 0 0 0 0 0 0 0 0 0 0 0 0 0 0 0 0 0 0 0 0 
0 0 0 0 0 0 0 0 0 0 0 0 0 0 0 0 0 0 0 0 0 0 0 0 0 4 6 8 12 14 23 41 30 42 66 99 143 70 34 36 43 71 121 106 70 59 53 56 78 112 119 106 121 127 121 118 117 122 109 82 68 89 88 65 62 62 92 92 54 39 31 59 148 112 77 43 19 14 15 16 17 8 2 0 0 0 0 0 0 0 0 0 0 0 10 30 0 0 0 0 0 0 0 0 0 0 0 0 0 0 0 0 0 0 0 0 0 0 0 0 0 0 0 0 0 0 0 0 
0 0 0 0 0 0 0 0 0 0 0 0 0 0 0 0 0 0 0 0 0 0 0 0 0 0 8 3 11 12 22 18 14 16 29 73 128 82 34 37 41 59 91 77 58 52 52 53 82 114 96 93 116 126 116 115 124 122 105 82 83 102 96 76 72 61 68 96 69 37 32 59 130 103 47 23 12 14 15 17 14 6 2 0 0 0 0 0 0 0 0 0 0 0 11 29 0 0 0 0 0 0 0 0 0 0 0 0 0 0 0 0 0 0 0 0 0 0 0 0 0 0 0 0 0 0 0 0 
0 0 0 0 0 0 0 0 0 0 0 0 0 0 0 0 0 0 0 0 0 0 0 0 0 0 0 6 9 12 17 15 15 17 15 25 90 100 46 31 38 68 98 85 64 52 54 55 92 101 76 94 129 140 121 105 113 121 129 103 97 114 121 97 77 72 91 112 104 40 38 68 127 64 21 20 12 15 19 18 13 5 2 0 0 0 0 0 0 0 0 0 0 0 8 27 0 0 0 0 0 0 0 0 0 0 0 0 0 0 0 0 0 0 0 0 0 0 0 0 0 0 0 0 0 0 0 0 
0 0 0 0 0 0 0 0 0 0 0 0 0 0 0 0 0 0 0 0 0 0 0 0 0 0 0 3 7 7 14 18 14 19 14 13 42 110 91 51 59 103 104 93 82 65 64 63 84 83 71 87 113 123 101 86 100 119 142 134 135 116 106 83 60 52 81 116 136 88 75 118 114 32 22 23 11 17 20 19 13 6 2 0 0 0 0 0 0 0 0 0 0 0 8 28 0 0 0 0 0 0 0 0 0 0 0 0 0 0 0 0 0 0 0 0 0 0 0 0 0 0 0 0 0 0 0 0 
0 0 0 0 0 0 0 0 0 0 0 0 0 0 0 0 0 0 0 0 0 0 0 0 0 0 0 1 7 6 10 17 15 15 20 15 16 54 117 101 87 99 85 91 93 72 70 85 95 93 88 96 118 109 91 91 103 132 156 141 119 94 92 96 63 56 85 103 113 99 100 122 48 24 23 19 12 20 19 18 13 6 3 0 0 0 0 0 0 0 0 0 0 0 7 28 0 0 0 0 0 0 0 0 0 0 0 0 0 0 0 0 0 0 0 0 0 0 0 0 0 0 0 0 0 0 0 0 
0 0 0 0 0 0 0 0 0 0 0 0 0 0 0 0 0 0 0 0 0 0 0 0 0 0 0 0 7 6 9 15 12 13 15 15 18 20 34 75 74 59 56 92 105 87 79 94 100 84 93 116 131 117 101 96 121 137 158 157 129 116 128 127 90 71 91 92 71 70 74 37 23 25 21 14 12 18 18 15 13 6 2 0 0 0 0 0 0 0 0 0 0 0 5 26 0 0 0 0 0 0 0 0 0 0 0 0 0 0 0 0 0 0 0 0 0 0 0 0 0 0 0 0 0 0 0 0 
0 0 0 0 0 0 0 0 0 0 0 0 0 0 0 0 0 0 0 0 0 0 0 0 0 0 0 0 3 7 6 14 16 12 12 16 16 14 22 24 29 31 36 78 106 89 88 92 87 82 122 148 139 115 98 85 103 127 150 164 152 96 96 130 110 88 90 76 52 38 27 25 25 23 17 13 15 15 16 14 12 8 2 0 0 0 0 0 0 0 0 0 0 0 3 25 0 0 0 0 0 0 0 0 0 0 0 0 0 0 0 0 0 0 0 0 0 0 0 0 0 0 0 0 0 0 0 0 
0 0 0 0 0 0 0 0 0 0 0 0 0 0 0 0 0 0 0 0 0 0 0 0 0 0 0 0 0 9 6 7 18 17 12 16 17 19 22 24 28 30 28 45 89 100 95 90 71 78 131 145 124 103 89 92 101 117 136 143 154 110 79 107 123 115 91 50 46 38 24 24 23 19 10 14 13 15 15 13 11 7 2 0 0 0 0 0 0 0 0 0 0 0 7 27 0 0 0 0 0 0 0 0 0 0 0 0 0 0 0 0 0 0 0 0 0 0 0 0 0 0 0 0 0 0 0 0 
0 0 0 0 0 0 0 0 0 0 0 0 0 0 0 0 0 0 0 0 0 0 0 0 0 0 0 0 0 5 6 7 14 16 15 16 17 22 27 27 28 31 30 39 52 72 87 77 59 68 115 140 125 118 119 127 136 136 143 149 153 102 74 77 99 95 61 48 41 38 31 21 21 19 8 12 17 13 14 13 11 6 2 0 0 0 0 0 0 0 0 0 0 0 5 25 0 0 0 0 0 0 0 0 0 0 0 0 0 0 0 0 0 0 0 0 0 0 0 0 0 0 0 0 0 0 0 0 
