P2
128 99
209
0 0 0 0 0 0 0 0 0 0 0 0 0 0 0 0 0 0 0 0 0 0 0 0 0 0 0 0 0 0 0 0 1 2 1 0 0 0 0 0 0 0 0 0 0 0 0 0 0 0 0 0 0 0 0 0 0 0 0 0 0 0 0 0 0 0 0 0 0 0 0 0 0 0 0 0 0 0 0 0 0 0 0 0 0 0 0 0 0 0 0 0 1 1 2 2 0 0 0 0 0 0 0 0 0 0 0 0 0 0 0 0 0 0 0 0 0 0 0 0 0 0 0 0 0 0 0 0 
0 0 0 0 0 0 0 0 0 0 0 0 0 0 0 0 0 0 0 0 0 0 0 0 0 0 0 0 0 0 0 0 1 2 1 0 0 0 0 0 0 0 0 0 0 0 0 0 0 0 0 0 0 0 0 0 0 0 0 0 0 0 0 0 0 0 0 0 0 0 0 0 0 0 0 0 0 0 0 0 0 0 0 0 0 0 0 0 0 0 0 0 1 1 2 2 0 0 0 0 0 0 0 0 0 0 0 0 0 0 0 0 0 0 0 0 0 0 0 0 0 0 0 0 0 0 0 0 
0 0 0 0 0 0 0 0 0 0 0 0 0 0 0 0 0 0 0 0 0 0 0 0 0 0 0 0 0 0 0 0 1 1 1 0 0 0 0 0 0 0 0 0 0 0 0 0 0 0 1 2 2 3 2 0 0 0 0 0 0 0 0 0 0 0 0 0 0 0 0 0 0 0 0 0 0 0 0 0 0 0 0 0 0 0 0 0 0 0 0 0 1 1 2 2 0 0 0 0 0 0 0 0 0 0 0 0 0 0 0 0 0 0 0 0 0 0 0 0 0 0 0 0 0 0 0 0 
0 0 0 0 0 0 0 0 0 0 0 0 0 0 0 0 0 0 0 0 0 0 0 0 0 0 0 0 0 0 0 0 1 1 1 0 0 0 0 0 0 0 0 1 6 13 17 18 18 19 22 25 28 28 25 21 18 16 14 12 4 0 0 0 0 0 0 0 0 0 0 0 0 0 0 0 0 0 0 0 0 0 0 0 0 0 0 0 0 0 0 0 1 1 2 2 0 0 0 0 0 0 0 0 0 0 0 0 0 0 0 0 0 0 0 0 0 0 0 0 0 0 0 0 0 0 0 0 
0 0 0 0 0 0 0 0 0 0 0 0 0 0 0 0 0 0 0 0 0 0 0 0 0 0 0 0 0 0 0 0 1 1 0 0 0 0 0 0 5 14 19 23 24 33 53 77 100 121 136 147 151 152 148 138 123 103 79 54 33 22 17 10 2 0 0 0 0 0 0 0 0 0 0 0 0 0 0 0 0 0 0 0 0 0 0 0 0 0 0 0 1 1 1 2 0 0 0 0 0 0 0 0 0 0 0 0 0 0 0 0 0 0 0 0 0 0 0 0 0 0 0 0 0 0 0 0 
0 0 0 0 0 0 0 0 0 0 0 0 0 0 0 0 0 0 0 0 0 0 0 0 0 0 0 0 0 0 0 0 1 1 0 0 0 1 9 17 23 24 35 67 110 147 169 179 184 187 188 187 186 185 186 187 186 183 178 168 148 116 79 44 24 16 10 1 0 0 0 0 0 0 0 0 0 0 0 0 0 0 0 0 0 0 0 0 0 0 0 0 1 1 2 2 0 0 0 0 0 0 0 0 0 0 0 0 0 0 0 0 0 0 0 0 0 0 0 0 0 0 0 0 0 0 0 0 
0 0 0 0 0 0 0 0 0 0 0 0 0 0 0 0 0 0 0 0 0 0 0 0 0 0 0 0 0 0 0 0 0 0 0 0 9 22 24 25 51 102 150 176 186 188 189 190 192 194 197 198 198 198 198 198 196 193 190 188 186 182 172 154 121 76 39 18 13 2 0 0 0 0 0 0 0 0 0 0 0 0 0 0 0 0 0 0 0 0 0 0 1 1 2 2 0 0 0 0 0 0 0 0 0 0 0 0 0 0 0 0 0 0 0 0 0 0 0 0 0 0 0 0 0 0 0 0 
0 0 0 0 0 0 0 0 0 0 0 0 0 0 0 0 0 0 0 0 0 0 0 0 0 0 0 0 0 0 0 0 0 0 8 24 24 26 62 123 166 183 188 191 193 195 193 187 182 178 181 188 187 174 172 184 197 202 200 197 194 190 188 187 183 171 147 100 49 22 13 1 0 0 0 0 0 0 0 0 0 0 0 0 0 0 0 0 0 0 0 0 1 2 2 2 0 0 0 0 0 0 0 0 0 0 0 0 0 0 0 0 0 0 0 0 0 0 0 0 0 0 0 0 0 0 0 0 
0 0 0 0 0 0 0 0 0 0 0 0 0 0 0 0 0 0 0 0 0 0 0 0 0 0 0 0 0 0 0 0 5 27 26 24 58 127 170 182 184 188 192 196 193 184 175 164 157 154 155 156 153 145 147 152 162 180 199 206 203 198 195 192 190 188 186 179 154 102 45 23 10 0 0 0 0 0 0 0 0 0 0 0 0 0 0 0 0 0 0 0 1 2 2 2 0 0 0 0 0 0 0 0 0 0 0 0 0 0 0 0 0 0 0 0 0 0 0 0 0 0 0 0 0 0 0 0 
0 0 0 0 0 0 0 0 0 0 0 0 0 0 0 0 0 0 0 0 0 0 0 0 0 0 0 0 0 0 0 24 27 21 41 112 167 180 182 186 191 196 193 177 164 160 154 143 139 136 141 148 148 145 148 150 152 155 165 184 202 207 206 202 198 194 190 188 187 178 147 80 31 19 2 0 0 0 0 0 0 0 0 0 0 0 0 0 0 0 0 0 1 2 2 2 0 0 0 0 0 0 0 0 0 0 0 0 0 0 0 0 0 0 0 0 0 0 0 0 0 0 0 0 0 0 0 0 
0 0 0 0 0 0 0 0 0 0 0 0 0 0 0 0 0 0 0 0 0 0 0 0 0 0 0 0 0 10 28 23 26 84 157 179 182 185 189 195 198 188 171 165 157 149 144 139 135 135 134 137 135 135 139 144 144 144 148 156 172 191 203 208 207 204 199 195 191 190 187 172 119 45 22 6 0 0 0 0 0 0 0 0 0 0 0 0 0 0 0 0 1 2 2 2 0 0 0 0 0 0 0 0 0 0 0 0 0 0 0 0 0 0 0 0 0 0 0 0 0 0 0 0 0 0 0 0 
0 0 0 0 0 0 0 0 0 0 0 0 0 0 0 0 0 0 0 0 0 0 0 0 0 0 0 0 22 24 18 48 131 175 180 185 191 195 199 195 180 169 162 158 156 153 148 142 140 137 131 134 132 131 140 146 147 146 147 150 155 167 184 197 206 209 207 204 199 196 193 189 182 149 68 24 11 0 0 0 0 0 0 0 0 0 0 0 0 0 0 0 1 2 2 2 0 0 0 0 0 0 0 0 0 0 0 0 0 0 0 0 0 0 0 0 0 0 0 0 0 0 0 0 0 0 0 0 
0 0 0 0 0 0 0 0 0 0 0 0 0 0 0 0 0 0 0 0 0 0 0 0 0 0 5 26 21 19 76 156 177 184 190 195 200 200 187 173 170 166 158 153 147 147 147 145 148 140 132 130 128 128 136 144 145 145 148 150 154 161 170 177 187 199 207 209 207 203 197 194 189 183 160 85 25 13 0 0 0 0 0 0 0 0 0 0 0 0 0 0 1 2 2 2 0 0 0 0 0 0 0 0 0 0 0 0 0 0 0 0 0 0 0 0 0 0 0 0 0 0 0 0 0 0 0 0 
0 0 0 0 0 0 0 0 0 0 0 0 0 0 0 0 0 0 0 0 0 0 0 0 0 10 25 18 26 100 166 178 188 195 200 203 197 181 173 168 162 157 151 149 148 147 147 145 136 130 121 120 117 119 125 136 146 149 149 149 150 155 161 170 175 179 187 199 207 208 205 199 193 187 183 165 95 27 14 0 0 0 0 0 0 0 0 0 0 0 0 0 1 2 2 2 0 0 0 0 0 0 0 0 0 0 0 0 0 0 0 0 0 0 0 0 0 0 0 0 0 0 0 0 0 0 0 0 
0 0 0 0 0 0 0 0 0 0 0 0 0 0 0 0 0 0 0 0 0 0 0 0 14 23 16 34 117 168 179 190 197 203 200 188 175 171 166 161 158 157 157 153 146 145 140 132 129 124 121 120 118 120 122 123 132 144 147 146 147 147 151 155 161 168 174 176 183 196 205 206 202 194 188 184 169 105 30 13 0 0 0 0 0 0 0 0 0 0 0 0 1 2 2 2 0 0 0 0 0 0 0 0 0 0 0 0 0 0 0 0 0 0 0 0 0 0 0 0 0 0 0 0 0 0 0 0 
0 0 0 0 0 0 0 0 0 0 0 0 0 0 0 0 0 0 0 0 0 0 3 19 20 15 45 129 166 180 192 199 202 192 177 171 168 164 163 160 157 152 144 135 131 125 121 123 121 122 123 122 120 124 126 125 125 129 139 146 146 145 145 151 155 156 161 166 168 173 184 198 204 202 195 187 183 171 116 36 12 0 0 0 0 0 0 0 0 0 0 0 1 2 2 2 0 0 0 0 0 0 0 0 0 0 0 0 0 0 0 0 0 0 0 0 0 0 0 0 0 0 0 0 0 0 0 0 
0 0 0 0 0 0 0 0 0 0 0 0 0 0 0 0 0 0 0 0 0 5 17 17 16 56 138 165 182 193 201 199 183 171 165 163 160 162 159 153 148 140 135 135 128 121 120 116 118 118 116 110 108 114 117 117 117 119 121 125 129 131 137 144 148 150 151 154 162 166 166 173 189 200 202 195 190 185 171 124 39 9 0 0 0 0 0 0 0 0 0 0 1 2 2 2 0 0 0 0 0 0 0 0 0 0 0 0 0 0 0 0 0 0 0 0 0 0 0 0 0 0 0 0 0 0 0 0 
0 0 0 0 0 0 0 0 0 0 0 0 0 0 0 0 0 0 0 0 7 16 15 19 71 146 166 182 195 202 194 173 162 163 161 159 155 148 146 143 142 138 132 122 117 116 113 114 116 116 111 106 106 117 117 119 122 124 124 126 127 127 128 131 137 142 144 145 146 152 157 160 165 181 194 199 196 190 184 171 129 36 6 0 0 0 0 0 0 0 0 0 1 2 2 2 0 0 0 0 0 0 0 0 0 0 0 0 0 0 0 0 0 0 0 0 0 0 0 0 0 0 0 0 0 0 0 0 
0 0 0 0 0 0 0 0 0 0 0 0 0 0 0 0 0 0 0 6 16 13 19 79 149 165 180 193 200 190 168 156 159 157 154 149 141 139 136 134 127 122 121 120 122 120 118 118 116 112 112 106 109 119 122 122 122 121 120 119 121 124 126 128 124 124 132 141 144 144 143 148 153 161 174 190 199 196 191 182 170 121 29 3 0 0 0 0 0 0 0 0 1 2 2 2 0 0 0 0 0 0 0 0 0 0 0 0 0 0 0 0 0 0 0 0 0 0 0 0 0 0 0 0 0 0 0 0 
0 0 0 0 0 0 0 0 0 0 0 0 0 0 0 0 0 0 5 16 13 19 83 150 164 176 191 198 185 165 156 154 153 152 147 135 130 133 130 122 121 120 120 121 116 113 116 117 113 114 113 110 113 120 120 121 123 124 124 122 121 118 118 119 123 124 123 129 141 144 142 139 144 149 158 168 185 199 197 188 178 165 106 19 2 0 0 0 0 0 0 0 1 2 2 2 0 0 0 0 0 0 0 0 0 0 0 0 0 0 0 0 0 0 0 0 0 0 0 0 0 0 0 0 0 0 0 0 
0 0 0 0 0 0 0 0 0 0 0 0 0 0 0 0 0 2 14 13 19 80 146 160 173 188 198 182 162 153 153 150 147 144 132 126 131 127 120 122 118 116 115 111 110 112 112 112 114 110 101 101 103 114 117 116 117 117 118 121 126 125 121 115 113 118 125 127 133 135 139 137 138 141 148 155 162 182 198 194 185 173 156 82 11 0 0 0 0 0 0 0 1 2 2 2 0 0 0 0 0 0 0 0 0 0 0 0 0 0 0 0 0 0 0 0 0 0 0 0 0 0 0 0 0 0 0 0 
0 0 0 0 0 0 0 0 0 0 0 0 0 0 0 0 0 11 12 16 73 140 156 167 183 195 181 161 152 150 147 142 145 134 125 127 126 119 119 117 112 110 111 113 112 109 107 105 106 96 96 99 99 102 107 107 110 110 110 112 113 114 120 120 113 111 118 126 127 130 128 131 133 135 140 148 155 158 184 198 193 183 167 140 52 4 0 0 0 0 0 0 1 2 2 2 0 0 0 0 0 0 0 0 0 0 0 0 0 0 0 0 0 0 0 0 0 0 0 0 0 0 0 0 0 0 0 0 
0 0 0 0 0 0 0 0 0 0 0 0 0 0 0 0 5 12 14 59 131 149 164 179 192 182 157 151 148 144 138 138 131 126 125 124 119 121 118 111 109 110 112 110 106 102 102 101 99 97 97 99 100 102 103 104 106 105 103 101 103 107 111 115 116 111 109 120 124 126 127 124 128 132 133 137 148 150 156 186 198 191 177 159 115 25 1 0 0 0 0 0 1 2 2 2 0 0 0 0 0 0 0 0 0 0 0 0 0 0 0 0 0 0 0 0 0 0 0 0 0 0 0 0 0 0 0 0 
0 0 0 0 0 0 0 0 0 0 0 0 0 0 0 1 12 13 46 121 144 158 174 188 184 158 148 144 143 139 134 129 128 127 126 120 119 114 107 107 106 102 97 93 95 97 99 100 103 102 103 102 104 108 108 107 109 109 108 106 104 105 106 105 107 112 110 108 117 122 123 122 119 127 133 133 142 148 144 158 191 194 184 170 145 78 7 0 0 0 0 0 1 2 2 2 0 0 0 0 0 0 0 0 0 0 0 0 0 0 0 0 0 0 0 0 0 0 0 0 0 0 0 0 0 0 0 0 
0 0 0 0 0 0 0 0 0 0 0 0 0 0 0 7 10 26 101 136 151 166 183 184 162 147 140 140 138 137 131 126 126 123 119 112 111 104 105 103 98 98 99 100 100 102 103 104 105 105 108 106 105 104 101 102 104 107 107 110 109 106 107 106 106 108 111 108 110 117 120 121 117 118 129 136 138 141 144 143 168 191 188 176 159 120 30 1 0 0 0 0 1 2 2 2 0 0 0 0 0 0 0 0 0 0 0 0 0 0 0 0 0 0 0 0 0 0 0 0 0 0 0 0 0 0 0 0 
0 0 0 0 0 0 0 0 0 0 0 0 0 0 2 8 13 73 128 143 158 175 180 169 147 136 137 138 138 135 128 125 121 122 115 109 104 104 105 103 100 102 104 106 106 104 106 104 103 103 109 109 104 105 102 100 100 102 102 104 106 109 107 106 104 106 106 106 106 110 114 122 120 117 122 133 138 135 139 139 145 177 187 180 165 141 68 4 0 0 0 0 1 2 2 2 0 0 0 0 0 0 0 0 0 0 0 0 0 0 0 0 0 0 0 0 0 0 0 0 0 0 0 0 0 0 0 0 
0 0 0 0 0 0 0 0 0 0 0 0 0 0 6 9 40 112 135 149 169 175 166 157 135 132 137 137 136 132 126 120 122 114 111 104 104 108 107 103 102 102 103 102 103 103 105 105 103 104 111 113 111 111 100 102 105 103 100 96 96 101 107 108 105 103 102 106 106 108 108 115 124 119 119 129 142 135 134 132 136 160 179 181 170 151 105 17 0 0 0 0 1 2 2 2 0 0 0 0 0 0 0 0 0 0 0 0 0 0 0 0 0 0 0 0 0 0 0 0 0 0 0 0 0 0 0 0 
0 0 0 0 0 0 0 0 0 0 0 0 0 0 7 15 83 124 142 158 174 162 160 142 128 132 135 134 133 128 119 118 113 112 110 106 110 110 104 101 99 98 96 95 96 102 104 105 105 103 107 111 111 103 92 94 99 106 105 100 97 96 97 103 109 108 105 105 107 107 108 112 118 123 122 125 136 138 131 126 130 151 170 178 173 157 127 38 1 0 0 0 1 2 2 2 0 0 0 0 0 0 0 0 0 0 0 0 0 0 0 0 0 0 0 0 0 0 0 0 0 0 0 0 0 0 0 0 
0 0 0 0 0 0 0 0 0 0 0 0 0 3 6 37 108 131 147 166 169 157 151 132 128 131 131 133 131 121 121 117 112 112 108 109 110 103 96 98 97 92 92 96 101 104 105 104 101 94 93 98 106 93 88 88 91 97 98 103 103 102 98 96 104 109 108 108 108 108 107 109 115 120 123 127 134 135 128 123 124 147 162 178 175 162 137 60 3 0 0 0 1 2 2 2 0 0 0 0 0 0 0 0 0 0 0 0 0 0 0 0 0 0 0 0 0 0 0 0 0 0 0 0 0 0 0 0 
0 0 0 0 0 0 0 0 0 0 0 0 0 4 9 68 121 136 152 169 154 151 141 126 130 125 124 131 124 120 121 113 115 111 107 109 106 98 96 97 96 97 100 104 103 102 100 97 99 99 97 97 101 96 94 94 93 92 91 93 96 101 103 102 103 106 108 110 110 110 108 110 113 115 121 129 132 129 125 122 117 141 155 173 176 163 143 80 5 0 0 0 1 2 2 2 0 0 0 0 0 0 0 0 0 0 0 0 0 0 0 0 0 0 0 0 0 0 0 0 0 0 0 0 0 0 0 0 
0 0 0 0 0 0 0 0 0 0 0 0 0 5 17 93 126 142 160 162 142 142 135 124 124 120 123 128 116 121 118 117 116 112 111 109 101 97 97 99 104 105 102 98 100 97 98 100 102 98 95 94 97 94 92 91 91 93 95 96 94 95 100 106 106 107 110 110 111 110 110 112 113 114 118 125 127 125 121 121 116 134 149 171 177 165 147 97 10 0 0 0 1 2 2 2 0 0 0 0 0 0 0 0 0 0 0 0 0 0 0 0 0 0 0 0 0 0 0 0 0 0 0 0 0 0 0 0 
0 0 0 0 0 0 0 0 0 0 0 0 1 6 33 111 131 148 162 146 134 136 132 125 118 117 120 122 114 118 117 115 118 115 109 105 101 98 102 105 106 102 98 95 91 93 95 95 96 93 94 92 99 94 94 93 96 95 91 94 97 98 96 101 107 111 115 112 111 110 110 116 117 113 118 122 123 124 119 116 115 133 152 167 176 167 150 112 16 0 0 0 1 2 2 2 0 0 0 0 0 0 0 0 0 0 0 0 0 0 0 0 0 0 0 0 0 0 0 0 0 0 0 0 0 0 0 0 
0 0 0 0 0 0 0 0 0 0 0 0 2 6 49 118 136 154 155 137 130 131 134 122 111 114 117 120 114 114 114 117 120 113 105 106 103 103 103 102 99 97 95 96 91 92 95 92 97 101 102 102 102 101 100 97 97 99 99 96 95 98 99 99 106 112 112 117 115 114 113 113 119 117 115 122 117 119 115 113 111 130 150 163 178 171 155 125 25 0 0 0 1 2 2 3 0 0 0 0 0 0 0 0 0 0 0 0 0 0 0 0 0 0 0 0 0 0 0 0 0 0 0 0 0 0 0 0 
0 0 0 0 0 0 0 0 0 0 0 0 3 7 62 123 142 157 148 134 127 130 136 119 110 111 113 118 112 107 116 121 117 113 107 105 107 108 103 98 96 96 95 97 95 90 95 97 98 99 102 102 100 94 91 88 87 93 97 100 99 96 99 97 96 102 108 117 121 117 117 115 116 120 115 121 112 112 115 114 111 132 151 163 179 175 159 136 37 1 0 0 1 2 2 2 0 0 0 0 0 0 0 0 0 0 0 0 0 0 0 0 0 0 0 0 0 0 0 0 0 0 0 0 0 0 0 0 
0 0 0 0 0 0 0 0 0 0 0 0 3 8 72 127 146 156 147 138 128 132 134 120 111 109 112 116 103 106 120 119 117 112 105 108 110 109 107 101 99 98 94 93 96 95 94 98 97 95 99 101 98 91 86 84 78 81 89 101 99 93 93 95 95 101 105 118 128 126 121 118 115 120 120 119 109 107 112 111 111 136 153 162 177 177 164 146 49 2 0 0 1 2 2 3 0 0 0 0 0 0 0 0 0 0 0 0 0 0 0 0 0 0 0 0 0 0 0 0 0 0 0 0 0 0 0 0 
0 0 0 0 0 0 0 0 0 0 0 0 3 11 80 132 151 158 148 140 132 132 134 122 111 109 111 111 100 108 122 115 115 110 109 115 113 107 109 113 110 102 92 91 94 100 106 104 95 93 96 100 99 93 90 83 79 76 85 100 99 97 97 94 96 105 112 118 121 125 129 126 118 118 121 126 113 106 108 108 115 136 150 161 180 179 167 152 62 3 0 0 1 2 2 3 0 0 0 0 0 0 0 0 0 0 0 0 0 0 0 0 0 0 0 0 0 0 0 0 0 0 0 0 0 0 0 0 
0 0 0 0 0 0 0 0 0 0 0 0 4 12 85 135 154 163 151 144 135 136 134 122 115 111 110 109 99 109 122 116 118 117 121 117 107 97 95 96 93 92 97 100 101 101 105 109 99 93 96 98 104 97 92 93 89 80 87 97 95 99 102 104 99 98 95 93 99 106 115 123 127 127 125 131 127 110 107 111 122 137 149 156 178 182 170 155 76 5 0 0 1 2 2 2 0 0 0 0 0 0 0 0 0 0 0 0 0 0 0 0 0 0 0 0 0 0 0 0 0 0 0 0 0 0 0 0 
0 0 0 0 0 0 0 0 0 0 0 0 4 14 88 138 156 163 149 145 140 140 135 127 121 113 109 103 101 113 124 118 127 127 114 104 95 86 84 85 84 83 86 90 97 105 104 105 100 96 98 99 106 100 95 96 91 85 90 92 93 103 102 96 90 87 88 88 91 96 98 103 111 122 136 136 137 121 112 119 126 136 143 150 172 183 173 157 90 7 0 0 1 2 2 2 0 0 0 0 0 0 0 0 0 0 0 0 0 0 0 0 0 0 0 0 0 0 0 0 0 0 0 0 0 0 0 0 
0 0 0 0 0 0 0 0 0 0 0 0 6 14 92 142 159 161 150 144 139 139 137 133 128 119 112 100 104 119 125 126 132 111 96 87 84 81 80 83 81 81 84 88 90 94 101 101 96 91 92 99 103 102 98 91 86 83 88 92 102 95 94 93 90 92 94 93 97 103 100 98 98 107 132 147 144 135 122 124 129 131 137 145 160 180 175 160 102 10 0 0 1 2 2 2 0 0 0 0 0 0 0 0 0 0 0 0 0 0 0 0 0 0 0 0 0 0 0 0 0 0 0 0 0 0 0 0 
0 0 0 0 0 0 0 0 0 0 0 0 7 15 94 144 159 162 148 142 137 137 133 134 132 123 118 109 110 123 131 136 116 93 88 85 83 84 88 90 88 84 84 86 91 94 93 101 95 96 96 98 102 106 106 101 94 93 90 101 96 90 93 91 92 94 96 99 100 105 108 107 110 111 128 149 149 140 133 129 127 126 132 138 150 175 176 161 115 15 0 0 1 2 2 2 0 0 0 0 0 0 0 0 0 0 0 0 0 0 0 0 0 0 0 0 0 0 0 0 0 0 0 0 0 0 0 0 
0 0 0 0 0 0 0 0 0 0 0 0 7 15 95 146 163 163 143 136 135 135 129 127 129 127 122 119 129 127 137 129 103 88 86 87 89 91 91 88 88 88 88 86 86 87 94 95 97 97 101 107 110 109 115 104 98 94 93 104 88 87 86 88 93 93 95 97 99 107 110 107 114 122 130 136 143 137 140 131 124 121 126 130 142 166 176 162 126 23 0 0 1 2 2 2 0 0 0 0 0 0 0 0 0 0 0 0 0 0 0 0 0 0 0 0 0 0 0 0 0 0 0 0 0 0 0 0 
0 0 0 0 0 0 0 0 0 0 0 0 7 15 98 148 164 164 134 131 133 132 127 123 127 129 123 118 132 136 143 126 109 98 96 93 91 91 87 84 84 87 87 87 86 86 94 99 99 103 107 112 119 115 123 105 97 95 97 99 84 81 87 92 95 95 96 99 99 103 108 110 116 116 118 124 130 137 143 131 120 118 122 120 132 157 174 162 132 33 1 0 1 2 2 3 0 0 0 0 0 0 0 0 0 0 0 0 0 0 0 0 0 0 0 0 0 0 0 0 0 0 0 0 0 0 0 0 
0 0 0 0 0 0 0 0 0 0 0 0 8 16 99 149 165 165 130 131 131 129 123 118 121 121 119 120 129 130 132 126 118 108 99 97 96 92 88 88 89 90 88 86 87 88 91 97 97 98 103 114 118 112 117 114 103 99 98 92 82 82 92 97 95 94 94 95 97 101 106 110 113 108 112 118 123 135 140 130 117 113 115 113 120 147 171 162 136 43 2 0 1 2 2 3 0 0 0 0 0 0 0 0 0 0 0 0 0 0 0 0 0 0 0 0 0 0 0 0 0 0 0 0 0 0 0 0 
0 0 0 0 0 0 0 0 0 0 0 0 8 17 102 152 168 163 129 131 127 124 117 110 113 117 119 118 123 121 122 116 107 105 100 95 92 90 87 84 86 88 89 90 89 90 90 94 97 98 101 102 102 108 107 111 105 105 99 87 82 87 92 93 90 89 90 92 95 99 101 106 113 108 112 112 122 133 139 129 113 109 111 110 114 136 166 161 138 50 2 0 1 2 2 3 0 0 0 0 0 0 0 0 0 0 0 0 0 0 0 0 0 0 0 0 0 0 0 0 0 0 0 0 0 0 0 0 
0 0 0 0 0 0 0 0 0 0 0 0 8 17 102 153 168 158 124 124 119 115 108 102 106 111 115 122 123 117 118 114 101 101 97 91 88 90 89 87 84 84 86 89 89 87 89 91 96 100 106 103 99 102 103 113 108 109 103 88 86 87 91 90 84 85 90 93 94 98 102 104 107 105 108 110 124 132 134 131 118 106 106 106 106 124 152 160 140 56 2 0 2 2 2 3 0 0 0 0 0 0 0 0 0 0 0 0 0 0 0 0 0 0 0 0 0 0 0 0 0 0 0 0 0 0 0 0 
0 0 0 0 0 0 0 0 0 0 0 0 8 17 100 153 168 152 116 116 111 109 101 96 100 104 110 121 124 117 115 113 100 97 92 85 86 87 87 85 84 84 85 87 85 86 88 85 86 99 114 119 108 95 97 93 114 107 99 91 90 91 91 81 81 84 87 92 93 95 101 102 101 104 106 110 121 127 128 134 125 106 105 107 107 120 134 150 142 61 2 0 1 2 2 3 0 0 0 0 0 0 0 0 0 0 0 0 0 0 0 0 0 0 0 0 0 0 0 0 0 0 0 0 0 0 0 0 
0 0 0 0 0 0 0 0 0 0 0 0 8 17 98 152 167 143 114 111 103 104 100 97 99 100 114 116 119 116 115 111 103 96 91 88 89 90 90 88 82 83 88 89 86 87 90 82 80 93 112 118 100 89 94 84 103 115 92 93 91 89 85 82 85 86 87 92 91 95 100 100 97 100 103 111 119 128 134 134 127 107 103 105 107 119 130 149 142 63 3 0 1 2 2 2 0 0 0 0 0 0 0 0 0 0 0 0 0 0 0 0 0 0 0 0 0 0 0 0 0 0 0 0 0 0 0 0 
0 0 0 0 0 0 0 0 0 0 0 0 7 17 93 150 165 135 113 107 105 106 101 99 99 102 115 112 115 116 117 111 104 96 90 89 88 92 94 90 83 81 82 84 85 87 88 80 80 97 114 105 82 78 84 78 85 118 85 89 90 88 85 89 90 88 90 92 92 97 100 96 97 99 102 116 129 139 134 131 128 107 102 102 106 116 130 152 137 60 2 0 1 2 2 3 0 0 0 0 0 0 0 0 0 0 0 0 0 0 0 0 0 0 0 0 0 0 0 0 0 0 0 0 0 0 0 0 
0 0 0 0 0 0 0 0 0 0 0 0 6 15 84 148 163 131 111 107 103 104 101 99 97 100 115 110 110 114 120 113 103 100 92 85 88 95 93 90 85 81 78 77 81 83 87 80 84 99 106 86 78 77 85 77 79 111 101 85 85 84 84 92 89 87 89 93 94 96 98 95 98 97 102 118 137 139 131 129 126 106 101 101 105 113 131 151 132 55 2 0 1 2 2 3 0 0 0 0 0 0 0 0 0 0 0 0 0 0 0 0 0 0 0 0 0 0 0 0 0 0 0 0 0 0 0 0 
0 0 0 0 0 0 0 0 0 0 0 0 4 15 78 144 161 133 113 106 102 102 103 98 95 95 111 112 109 111 121 115 103 101 92 90 93 97 96 90 85 83 80 77 79 80 80 71 83 101 97 81 80 84 91 79 77 90 110 89 85 80 84 91 89 88 92 94 90 91 96 96 97 95 103 116 131 136 131 129 124 104 102 100 103 110 132 147 126 49 2 0 1 2 2 2 0 0 0 0 0 0 0 0 0 0 0 0 0 0 0 0 0 0 0 0 0 0 0 0 0 0 0 0 0 0 0 0 
0 0 0 0 0 0 0 0 0 0 0 0 2 14 71 139 159 138 114 105 102 99 102 101 95 90 108 115 110 110 122 116 103 98 93 90 96 97 97 91 86 83 79 77 76 78 76 71 91 102 87 80 80 90 97 84 80 78 107 98 95 87 85 90 90 89 91 91 87 90 96 95 93 93 104 115 124 130 128 128 123 102 103 99 101 109 136 143 117 43 2 0 1 2 2 2 0 0 0 0 0 0 0 0 0 0 0 0 0 0 0 0 0 0 0 0 0 0 0 0 0 0 0 0 0 0 0 0 
0 0 0 0 0 0 0 0 0 5 5 0 0 12 63 132 154 140 116 103 101 98 100 102 97 88 102 116 111 109 118 113 104 98 94 90 95 97 95 90 88 88 83 78 83 93 90 84 96 94 86 81 81 95 97 86 81 79 92 105 107 105 102 97 93 90 94 92 88 93 96 93 90 92 106 113 120 124 123 129 123 102 100 97 98 110 137 137 107 37 1 0 1 2 2 3 0 0 0 0 0 0 0 0 0 0 0 0 0 0 0 0 0 0 0 0 0 0 0 0 0 0 0 0 0 0 0 0 
0 0 0 0 0 0 0 0 0 4 9 3 1 9 52 123 151 138 115 103 98 97 100 102 98 88 101 118 112 107 115 113 101 98 96 90 92 97 94 91 95 96 92 85 88 88 93 89 100 89 86 82 81 94 92 88 87 82 84 113 114 118 115 104 98 89 91 94 90 91 89 88 91 94 105 114 120 120 120 131 127 105 94 97 97 111 138 131 98 32 1 0 1 2 2 2 0 0 0 0 0 0 0 0 0 0 0 0 0 0 0 0 0 0 0 0 0 0 0 0 0 0 0 0 0 0 0 0 
0 0 0 0 0 0 0 0 0 2 3 9 3 8 41 114 146 138 111 102 96 96 101 101 100 89 99 117 114 115 121 116 100 94 98 92 93 97 94 94 94 93 89 94 99 105 97 96 103 82 86 82 83 97 91 82 89 86 88 117 120 113 113 117 110 105 102 99 95 94 90 93 97 104 106 121 128 122 120 133 133 114 96 96 98 118 138 125 90 26 0 0 1 2 2 2 0 0 0 0 0 0 0 0 0 0 0 0 0 0 0 0 0 0 0 0 0 0 0 0 0 0 0 0 0 0 0 0 
0 0 0 0 0 0 0 0 0 0 3 10 5 7 32 100 141 140 111 103 98 99 99 99 101 92 101 115 117 121 121 124 114 97 94 94 94 97 101 98 99 96 100 103 95 94 94 103 101 83 82 81 83 104 92 82 81 80 87 114 129 117 111 114 113 121 132 130 127 127 125 123 123 124 128 134 126 122 126 135 135 124 101 97 106 127 140 119 83 18 0 0 2 9 6 2 0 0 0 0 0 0 0 0 0 0 0 0 0 0 0 0 0 0 0 0 0 0 0 0 0 0 0 0 0 0 0 0 
0 0 0 0 0 0 0 0 0 0 2 9 5 7 25 89 135 144 117 108 103 97 96 99 99 100 106 113 119 118 120 123 126 127 116 107 108 114 118 113 110 102 88 90 99 96 94 106 103 80 81 85 87 101 92 78 78 79 85 125 135 112 105 106 107 115 140 144 139 146 150 151 146 129 126 134 136 128 130 134 137 125 117 109 105 136 133 113 76 12 3 2 6 5 4 2 0 0 0 0 0 0 0 0 0 0 0 0 0 0 0 0 0 0 0 0 0 0 0 0 0 0 0 0 0 0 0 0 
0 0 0 0 0 0 0 0 0 0 1 9 5 8 19 80 128 149 132 110 104 93 93 98 102 114 110 114 121 117 113 119 122 121 119 120 124 119 120 114 113 102 100 105 102 92 94 104 103 89 85 91 91 108 98 81 83 88 100 130 133 115 107 107 110 122 143 148 147 150 146 143 139 125 129 130 137 144 139 132 137 129 122 126 141 139 118 112 65 8 3 3 5 3 2 3 0 0 0 0 0 0 0 0 0 0 0 0 0 0 0 0 0 0 0 0 0 0 0 0 0 0 0 0 0 0 0 0 
0 0 0 0 0 0 0 0 0 0 1 8 6 9 13 67 119 145 146 114 106 95 97 109 115 116 118 119 121 121 120 126 134 132 122 122 119 117 121 118 112 102 94 93 97 90 93 103 111 107 91 89 95 109 100 88 90 100 107 119 119 116 111 113 121 130 139 143 143 143 138 140 142 143 146 145 142 154 158 152 148 144 142 150 160 134 109 106 51 6 2 3 4 3 2 3 0 0 0 0 0 0 0 0 0 0 0 0 0 0 0 0 0 0 0 0 0 0 0 0 0 0 0 0 0 0 0 0 
0 0 0 0 0 0 0 0 0 0 0 8 7 9 12 53 112 142 151 130 111 109 116 115 123 120 126 128 126 121 130 135 144 153 152 139 138 134 126 112 103 93 94 91 88 88 95 112 113 97 92 95 90 110 97 91 89 100 106 105 114 107 114 115 117 131 148 151 149 147 143 153 152 144 134 137 139 154 160 160 168 170 164 173 174 129 118 101 32 6 3 2 4 2 2 3 0 0 0 0 0 0 0 0 0 0 0 0 0 0 0 0 0 0 0 0 0 0 0 0 0 0 0 0 0 0 0 0 
0 0 0 0 0 0 0 0 0 0 0 9 9 8 8 36 106 139 149 146 134 143 135 132 140 136 138 132 126 124 138 144 149 156 159 147 150 147 132 112 106 103 98 92 90 91 106 112 99 88 88 94 93 116 100 88 85 94 102 102 108 107 109 112 120 121 135 140 145 150 146 145 142 133 132 127 137 148 160 162 165 174 178 179 158 124 116 84 16 5 4 2 3 2 2 3 0 0 0 0 0 0 0 0 0 0 0 0 0 0 0 0 0 0 0 0 0 0 0 0 0 0 0 0 0 0 0 0 
0 0 0 0 0 0 0 0 0 0 0 5 11 7 7 12 61 125 145 147 149 166 171 158 156 154 142 134 134 134 149 157 153 150 156 152 148 148 139 117 109 107 109 97 92 93 103 111 99 86 89 96 94 110 114 92 83 89 95 103 105 103 109 112 115 120 120 132 135 135 126 135 134 132 136 137 136 145 156 162 166 167 167 161 140 122 116 92 17 6 5 5 2 3 2 3 0 0 0 0 0 0 0 0 0 0 0 0 0 0 0 0 0 0 0 0 0 0 0 0 0 0 0 0 0 0 0 0 
0 0 0 0 0 0 0 0 0 0 0 6 11 4 5 9 36 111 146 146 154 168 167 164 163 164 159 147 135 130 137 149 157 150 154 155 152 153 135 112 102 108 109 103 97 97 108 108 100 93 93 101 101 116 115 99 84 84 89 95 101 101 98 109 116 117 116 127 132 123 117 120 120 128 127 133 132 140 139 144 153 167 152 135 112 120 116 62 7 4 6 6 2 3 2 3 0 0 0 0 0 0 0 0 0 0 0 0 0 0 0 0 0 0 0 0 0 0 0 0 0 0 0 0 0 0 0 0 
0 0 0 0 0 0 0 0 0 0 0 6 7 4 5 8 22 90 141 147 148 154 155 145 160 161 160 148 136 135 127 133 145 153 151 152 145 143 131 117 108 107 110 110 99 98 109 101 95 96 101 98 93 111 120 106 84 84 92 94 102 108 107 112 105 98 107 122 128 131 128 121 124 137 141 139 137 147 133 134 149 158 131 118 128 124 106 31 6 4 6 5 2 2 2 3 0 0 0 0 0 0 0 0 0 0 0 0 0 0 0 0 0 0 0 0 0 0 0 0 0 0 0 0 0 0 0 0 
0 0 0 0 0 0 0 0 0 0 0 5 5 4 3 8 16 61 131 148 141 136 147 147 144 149 144 141 137 144 130 122 129 136 142 145 138 131 128 121 106 100 103 103 99 99 110 100 105 109 107 99 92 101 117 118 91 94 97 92 101 119 116 123 108 87 89 102 109 112 124 123 126 137 145 151 152 147 135 139 134 132 126 112 116 115 76 14 6 6 6 3 2 3 2 3 0 0 0 0 0 0 0 0 0 0 0 0 0 0 0 0 0 0 0 0 0 0 0 0 0 0 0 0 0 0 0 0 
0 0 0 0 0 0 0 0 0 0 0 4 4 3 3 8 15 33 111 135 129 129 141 145 145 132 125 130 139 150 150 130 114 119 131 142 137 129 125 107 99 94 104 110 105 106 127 113 118 118 113 108 100 101 122 122 108 106 106 106 107 123 121 121 113 92 88 87 94 104 117 133 140 137 144 154 159 154 143 146 137 134 117 97 98 109 42 10 6 4 4 2 2 4 2 3 0 0 0 0 0 0 0 0 0 0 0 0 0 0 0 0 0 0 0 0 0 0 0 0 0 0 0 0 0 0 0 0 
0 0 0 0 0 0 0 0 0 0 1 2 5 3 3 9 14 17 80 120 118 125 135 140 138 132 130 134 134 150 153 138 119 111 127 137 139 132 114 92 82 96 103 106 106 112 121 123 121 121 129 126 111 108 134 128 111 108 111 114 109 122 123 121 120 109 88 81 93 114 120 133 132 127 136 145 160 159 169 159 143 122 106 87 91 83 19 11 7 6 5 1 1 4 2 3 0 0 0 0 0 0 0 0 0 0 0 0 0 0 0 0 0 0 0 0 0 0 0 0 0 0 0 0 0 0 0 0 
0 0 0 0 0 0 0 0 0 0 1 1 4 4 3 6 12 13 48 116 126 119 132 144 143 142 141 137 139 143 148 130 112 113 114 119 122 116 106 95 88 98 98 105 118 120 122 126 128 132 135 138 146 150 149 135 135 138 128 130 127 138 139 132 128 107 88 88 104 121 114 111 124 121 128 143 160 163 176 167 131 107 93 85 95 55 11 12 8 7 6 1 1 4 2 3 0 0 0 0 0 0 0 0 0 0 0 0 0 0 0 0 0 0 0 0 0 0 0 0 0 0 0 0 0 0 0 0 
0 0 0 0 0 0 0 0 0 0 1 2 4 4 2 5 11 14 25 98 120 107 120 131 154 156 153 142 145 144 146 137 125 119 109 114 110 94 90 105 104 110 112 118 129 137 137 137 144 148 149 152 161 167 170 162 155 151 141 141 147 157 163 151 134 125 117 114 117 125 109 111 122 123 121 145 154 170 167 159 125 97 78 79 95 32 10 11 8 6 6 2 2 4 2 4 0 0 0 0 0 0 0 0 0 0 0 0 0 0 0 0 0 0 0 0 0 0 0 0 0 0 0 0 0 0 0 0 
0 0 0 0 0 0 0 0 0 0 1 3 5 3 3 4 10 13 15 67 114 116 108 116 148 160 161 153 143 145 151 145 134 126 116 116 112 101 98 107 133 128 127 130 138 145 151 145 147 142 144 145 143 141 149 151 147 139 134 138 142 156 166 164 148 143 142 136 140 119 107 107 113 118 117 139 150 174 157 141 124 109 90 94 78 19 9 7 5 6 6 2 2 3 3 3 0 0 0 0 0 0 0 0 0 0 0 0 0 0 0 0 0 0 0 0 0 0 0 0 0 0 0 0 0 0 0 0 
0 0 0 0 0 0 0 0 0 0 1 3 6 4 3 4 9 10 12 41 91 111 110 111 135 153 159 161 143 141 147 147 133 123 114 115 116 118 122 126 133 147 149 146 150 148 148 155 150 146 139 143 140 143 142 144 143 142 135 139 143 156 169 166 169 162 150 157 148 115 99 96 102 113 124 139 155 169 148 124 107 99 105 95 66 15 8 6 4 4 4 2 2 3 3 4 0 0 0 0 0 0 0 0 0 0 0 0 0 0 0 0 0 0 0 0 0 0 0 0 0 0 0 0 0 0 0 0 
0 0 0 0 0 0 0 0 0 0 0 5 12 10 3 3 8 9 12 28 80 112 117 107 115 132 154 161 148 133 138 141 130 118 105 107 109 112 117 127 137 153 163 165 159 156 156 156 148 146 143 150 153 154 148 144 148 149 136 134 138 150 158 161 167 161 154 157 146 110 87 93 109 121 141 152 157 162 147 130 97 80 98 99 58 16 6 5 5 4 4 3 2 4 3 4 0 0 0 0 0 0 0 0 0 0 0 0 0 0 0 0 0 0 0 0 0 0 0 0 0 0 0 0 0 0 0 0 
0 0 0 0 0 0 0 0 0 0 0 4 12 12 8 6 8 10 13 21 64 100 115 115 113 119 138 144 156 135 126 129 135 111 98 100 103 112 116 118 123 142 159 164 162 159 161 156 154 153 156 163 163 161 154 132 137 142 128 121 131 140 144 163 169 170 165 158 144 108 93 96 105 117 156 171 172 166 151 102 88 82 94 90 38 16 5 3 5 4 4 4 3 5 4 4 0 0 0 0 0 0 0 0 0 0 0 0 0 0 0 0 0 0 0 0 0 0 0 0 0 0 0 0 0 0 0 0 
0 0 0 0 0 0 0 0 0 0 0 3 11 11 10 9 9 12 16 16 34 84 113 111 101 113 135 143 159 143 135 128 132 112 96 98 101 106 109 109 113 135 155 157 155 156 153 145 150 153 161 171 164 159 138 117 116 124 127 123 135 146 147 158 179 176 162 153 140 116 96 96 108 133 161 162 172 154 138 97 82 73 72 60 20 15 7 4 5 5 4 6 7 5 5 4 0 0 0 0 0 0 0 0 0 0 0 0 0 0 0 0 0 0 0 0 0 0 0 0 0 0 0 0 0 0 0 0 
0 0 0 0 0 0 0 0 0 0 0 2 11 11 9 9 9 10 13 15 18 49 103 108 106 107 121 147 163 163 152 136 127 119 101 94 95 96 99 106 119 141 152 153 153 151 152 143 139 138 151 152 143 156 150 127 122 125 126 124 141 155 144 164 173 174 164 161 156 122 113 120 132 142 142 142 127 103 102 71 64 80 88 36 12 9 10 6 6 5 5 6 12 6 3 3 0 0 0 0 0 0 0 0 0 0 0 0 0 0 0 0 0 0 0 0 0 0 0 0 0 0 0 0 0 0 0 0 
0 0 0 0 0 0 0 0 0 0 0 0 9 11 6 6 6 5 9 16 20 26 70 97 92 93 109 145 153 162 162 144 132 132 119 105 105 109 117 132 143 162 170 168 171 170 166 169 171 165 163 154 157 174 176 161 153 154 153 150 160 168 178 185 173 170 169 178 171 167 141 147 141 137 113 95 89 87 90 74 90 96 55 20 11 1 1 4 4 5 5 6 8 5 2 3 0 0 0 0 0 0 0 0 0 0 0 0 0 0 0 0 0 0 0 0 0 0 0 0 0 0 0 0 0 0 0 0 
0 0 0 0 0 0 0 0 0 0 0 0 3 6 5 3 3 3 5 10 17 22 37 80 86 76 91 104 102 138 144 146 140 135 128 112 117 129 140 148 171 181 177 182 188 193 185 194 188 177 176 178 178 182 181 167 164 172 170 173 181 188 196 192 196 199 181 183 140 147 148 137 101 84 74 78 81 77 84 74 68 47 28 23 14 1 0 1 2 3 5 7 7 1 2 3 0 0 0 0 0 0 0 0 0 0 0 0 0 0 0 0 0 0 0 0 0 0 0 0 0 0 0 0 0 0 0 0 
0 0 0 0 0 0 0 0 0 0 0 0 0 3 4 2 2 0 1 7 12 21 26 45 74 80 66 53 65 74 94 116 138 129 122 126 119 132 147 163 173 166 179 181 191 185 183 182 182 172 161 166 164 157 158 160 157 162 155 155 158 190 194 175 167 181 171 173 149 134 121 105 86 76 79 95 95 87 67 47 41 41 33 23 19 0 0 0 1 1 3 6 6 1 1 3 0 0 0 0 0 0 0 0 0 0 0 0 0 0 0 0 0 0 0 0 0 0 0 0 0 0 0 0 0 0 0 0 
0 0 0 0 0 0 0 0 0 0 0 0 0 2 5 4 4 3 2 4 9 13 19 22 36 51 36 40 65 61 65 64 80 81 76 90 86 76 74 72 90 114 138 145 144 135 135 122 132 106 95 106 116 110 104 105 89 84 100 97 97 111 102 139 143 152 117 76 63 63 56 59 61 57 57 78 82 81 50 30 28 26 19 7 3 0 3 3 2 1 1 8 5 1 2 3 0 0 0 0 0 0 0 0 0 0 0 0 0 0 0 0 0 0 0 0 0 0 0 0 0 0 0 0 0 0 0 0 
0 0 0 0 0 0 0 0 0 0 0 0 0 0 3 3 3 3 2 1 6 10 13 16 21 22 23 32 63 63 60 61 60 60 56 60 67 62 69 70 83 85 81 82 91 97 77 69 71 74 60 75 91 90 89 91 71 58 72 70 79 97 88 83 78 91 85 107 112 96 68 64 67 59 54 77 83 79 48 29 28 25 16 6 2 1 2 1 2 2 3 5 1 0 1 3 0 0 0 0 0 0 0 0 0 0 0 0 0 0 0 0 0 0 0 0 0 0 0 0 0 0 0 0 0 0 0 0 
0 0 0 0 0 0 0 0 0 0 0 0 0 0 0 0 0 1 0 0 3 9 10 15 20 26 28 36 66 72 65 63 66 68 60 60 76 96 120 133 138 140 108 104 102 102 93 93 99 89 75 89 95 97 95 96 87 76 93 101 104 111 97 89 110 133 87 90 105 102 96 89 78 72 74 88 90 83 50 33 28 23 12 8 1 0 0 0 1 1 1 0 0 0 1 3 0 0 0 0 0 0 0 0 0 0 0 0 0 0 0 0 0 0 0 0 0 0 0 0 0 0 0 0 0 0 0 0 
0 0 0 0 0 0 0 0 0 0 0 0 0 0 0 0 0 0 0 0 0 4 4 8 15 29 33 43 69 86 80 74 78 85 84 92 113 121 120 132 141 164 155 134 139 157 159 157 148 126 114 118 115 116 109 112 114 104 106 128 140 146 137 140 145 156 116 123 123 120 103 102 89 81 76 76 75 70 44 30 21 15 7 7 1 0 0 0 0 0 0 0 0 0 0 2 0 0 0 0 0 0 0 0 0 0 0 0 0 0 0 0 0 0 0 0 0 0 0 0 0 0 0 0 0 0 0 0 
0 0 0 0 0 0 0 0 0 0 0 0 0 0 0 0 0 0 0 0 0 2 3 6 10 21 30 38 58 77 74 72 78 85 81 84 95 104 127 121 161 173 169 161 169 174 170 175 156 159 166 153 157 160 156 153 155 145 146 150 147 161 161 147 161 152 146 131 144 152 119 116 98 74 54 64 72 56 38 26 17 10 5 1 0 0 0 0 0 0 0 0 0 0 0 1 0 0 0 0 0 0 0 0 0 0 0 0 0 0 0 0 0 0 0 0 0 0 0 0 0 0 0 0 0 0 0 0 
0 0 0 0 0 0 0 0 0 0 0 0 0 0 0 0 0 0 0 0 0 0 2 4 8 17 28 35 51 72 78 69 71 76 70 64 79 101 102 106 128 130 113 106 138 144 168 170 162 150 148 140 140 130 130 126 132 125 126 128 135 139 126 133 132 130 133 132 144 154 115 72 47 50 62 82 79 47 28 24 14 9 7 2 1 0 0 0 0 0 0 1 1 3 4 5 0 0 0 0 0 0 0 0 0 0 0 0 0 0 0 0 0 0 0 0 0 0 0 0 0 0 0 0 0 0 0 0 
0 0 0 0 0 0 0 0 0 0 0 0 0 0 0 0 0 0 0 0 0 0 4 7 9 14 19 21 31 52 67 64 63 65 54 49 55 73 107 112 111 113 109 101 108 122 126 125 123 121 124 101 103 100 101 93 110 108 101 106 116 131 127 107 117 121 121 114 123 113 102 65 48 50 71 100 80 44 26 17 16 13 8 1 1 0 0 0 0 0 0 0 0 0 2 4 0 0 0 0 0 0 0 0 0 0 0 0 0 0 0 0 0 0 0 0 0 0 0 0 0 0 0 0 0 0 0 0 
0 0 0 0 0 0 0 0 0 0 0 0 0 0 0 0 0 0 0 0 0 0 2 6 9 13 18 21 24 43 61 73 73 69 54 47 56 67 83 100 98 100 98 101 107 119 123 120 117 113 107 87 89 87 91 86 99 111 116 109 106 116 104 90 83 105 121 123 124 109 93 65 52 56 79 106 85 47 25 19 18 12 7 1 1 0 0 0 0 0 0 0 0 0 2 4 0 0 0 0 0 0 0 0 0 0 0 0 0 0 0 0 0 0 0 0 0 0 0 0 0 0 0 0 0 0 0 0 
0 0 0 0 0 0 0 0 0 0 0 0 0 0 0 0 0 0 0 0 0 0 1 5 9 10 16 22 23 38 54 74 75 71 58 57 56 55 68 94 90 86 88 91 100 106 119 127 124 115 111 101 100 96 95 92 104 106 121 123 108 116 119 112 103 96 108 117 109 91 77 67 58 62 88 110 87 52 25 19 17 12 6 1 1 0 0 0 0 0 0 0 0 0 2 4 0 0 0 0 0 0 0 0 0 0 0 0 0 0 0 0 0 0 0 0 0 0 0 0 0 0 0 0 0 0 0 0 
0 0 0 0 0 0 0 0 0 0 0 0 0 0 0 0 0 0 0 0 0 0 0 3 6 9 13 19 22 33 48 69 76 72 64 60 50 51 56 66 75 76 87 89 97 105 115 118 132 122 113 108 108 104 95 92 101 101 112 120 116 135 129 109 100 92 97 103 108 99 75 62 61 70 94 110 84 55 26 18 15 11 4 1 1 0 0 0 0 0 0 0 0 0 2 4 0 0 0 0 0 0 0 0 0 0 0 0 0 0 0 0 0 0 0 0 0 0 0 0 0 0 0 0 0 0 0 0 
0 0 0 0 0 0 0 0 0 0 0 0 0 0 0 0 0 0 0 0 0 0 0 0 5 8 10 16 20 28 42 60 81 76 68 64 53 48 54 64 63 73 87 91 102 102 103 113 123 114 109 104 101 103 97 94 98 102 106 114 120 123 117 103 100 104 98 93 92 95 84 68 64 70 94 106 78 50 26 17 15 10 3 1 1 0 0 0 0 0 0 0 0 0 1 4 0 0 0 0 0 0 0 0 0 0 0 0 0 0 0 0 0 0 0 0 0 0 0 0 0 0 0 0 0 0 0 0 
0 0 0 0 0 0 0 0 0 0 0 0 0 0 0 0 0 0 0 0 0 0 0 0 2 5 9 12 18 24 42 54 77 74 74 72 57 55 59 56 60 72 87 96 107 102 92 97 102 104 109 101 94 98 96 95 94 99 104 104 112 112 105 98 101 109 103 90 79 71 72 68 68 79 95 104 78 44 20 16 14 9 2 1 1 1 0 0 0 0 0 0 0 0 1 4 0 0 0 0 0 0 0 0 0 0 0 0 0 0 0 0 0 0 0 0 0 0 0 0 0 0 0 0 0 0 0 0 
0 0 0 0 0 0 0 0 0 0 0 0 0 0 0 0 0 0 0 0 0 0 0 0 0 4 6 12 14 19 33 50 66 70 79 73 61 63 61 50 57 75 83 90 102 98 92 91 92 97 108 94 89 89 90 95 95 99 96 97 109 110 99 88 90 101 96 83 79 63 62 73 74 85 98 85 47 23 17 16 15 8 2 1 1 1 0 0 0 0 0 0 0 0 2 4 0 0 0 0 0 0 0 0 0 0 0 0 0 0 0 0 0 0 0 0 0 0 0 0 0 0 0 0 0 0 0 0 
0 0 0 0 0 0 0 0 0 0 0 0 0 0 0 0 0 0 0 0 0 0 0 0 0 3 5 8 13 17 20 33 40 45 71 74 64 69 61 48 54 71 75 78 93 91 91 89 90 99 110 98 89 91 96 96 94 98 96 97 103 99 90 88 88 91 85 73 77 63 58 78 78 89 97 44 18 16 18 18 15 8 1 1 1 1 0 0 0 0 0 0 0 0 1 4 0 0 0 0 0 0 0 0 0 0 0 0 0 0 0 0 0 0 0 0 0 0 0 0 0 0 0 0 0 0 0 0 
0 0 0 0 0 0 0 0 0 0 0 0 0 0 0 0 0 0 0 0 0 0 0 0 0 0 5 4 12 17 20 21 19 15 31 75 77 75 65 58 57 65 67 71 82 81 84 87 90 102 101 95 92 89 85 88 97 97 93 91 102 99 93 88 82 85 75 67 73 68 65 80 86 93 68 23 16 16 17 18 14 6 1 1 1 1 0 0 0 0 0 0 0 0 1 4 0 0 0 0 0 0 0 0 0 0 0 0 0 0 0 0 0 0 0 0 0 0 0 0 0 0 0 0 0 0 0 0 
0 0 0 0 0 0 0 0 0 0 0 0 0 0 0 0 0 0 0 0 0 0 0 0 0 0 2 5 8 13 18 18 18 17 13 38 74 77 74 65 68 68 66 73 79 78 80 86 98 110 100 98 99 94 86 82 94 101 93 89 100 103 98 93 85 83 79 76 76 78 79 86 86 77 35 20 15 16 18 17 12 6 1 1 1 1 0 0 0 0 0 0 0 0 1 3 0 0 0 0 0 0 0 0 0 0 0 0 0 0 0 0 0 0 0 0 0 0 0 0 0 0 0 0 0 0 0 0 
0 0 0 0 0 0 0 0 0 0 0 0 0 0 0 0 0 0 0 0 0 0 0 0 0 0 0 3 7 9 15 18 18 17 13 12 37 69 83 81 74 73 73 77 85 87 85 83 91 105 102 100 100 97 93 99 110 111 106 103 105 113 101 91 91 89 85 86 84 88 91 93 73 38 24 18 14 16 17 15 11 6 2 1 1 1 0 0 0 0 0 0 0 0 1 4 0 0 0 0 0 0 0 0 0 0 0 0 0 0 0 0 0 0 0 0 0 0 0 0 0 0 0 0 0 0 0 0 
0 0 0 0 0 0 0 0 0 0 0 0 0 0 0 0 0 0 0 0 0 0 0 0 0 0 0 2 6 7 12 17 18 18 13 12 16 31 62 79 78 86 85 83 94 99 91 83 84 105 107 102 99 94 94 104 108 107 109 108 105 106 103 95 94 97 98 96 95 91 87 71 37 27 23 17 14 16 15 14 10 6 2 1 1 1 0 0 0 0 0 0 0 0 1 4 0 0 0 0 0 0 0 0 0 0 0 0 0 0 0 0 0 0 0 0 0 0 0 0 0 0 0 0 0 0 0 0 
0 0 0 0 0 0 0 0 0 0 0 0 0 0 0 0 0 0 0 0 0 0 0 0 0 0 0 1 4 7 8 15 16 18 14 12 16 21 29 51 72 87 93 93 102 109 100 91 98 113 106 97 92 99 103 108 109 104 109 112 108 108 113 101 103 107 106 102 98 84 60 34 29 26 22 17 15 15 14 13 9 5 1 1 1 1 0 0 0 0 0 0 0 0 1 3 0 0 0 0 0 0 0 0 0 0 0 0 0 0 0 0 0 0 0 0 0 0 0 0 0 0 0 0 0 0 0 0 
0 0 0 0 0 0 0 0 0 0 0 0 0 0 0 0 0 0 0 0 0 0 0 0 0 0 0 0 1 7 7 13 15 17 14 11 12 20 26 29 40 61 81 87 102 112 105 98 108 110 110 101 97 100 100 104 103 104 107 107 109 107 116 112 110 110 109 97 79 50 30 29 28 24 20 16 14 15 14 12 9 5 1 1 1 1 0 0 0 0 0 0 0 0 0 3 0 0 0 0 0 0 0 0 0 0 0 0 0 0 0 0 0 0 0 0 0 0 0 0 0 0 0 0 0 0 0 0 
0 0 0 0 0 0 0 0 0 0 0 0 0 0 0 0 0 0 0 0 0 0 0 0 0 0 0 0 0 7 6 10 14 16 15 12 11 20 26 29 32 34 42 60 83 98 97 96 99 106 111 106 101 98 98 100 97 102 109 101 107 111 116 111 105 101 87 62 42 37 29 28 26 23 18 16 13 15 14 12 9 4 1 1 1 1 0 0 0 0 0 0 0 0 1 3 0 0 0 0 0 0 0 0 0 0 0 0 0 0 0 0 0 0 0 0 0 0 0 0 0 0 0 0 0 0 0 0 
0 0 0 0 0 0 0 0 0 0 0 0 0 0 0 0 0 0 0 0 0 0 0 0 0 0 0 0 0 4 6 9 13 15 15 12 11 19 25 28 32 33 33 38 49 66 79 86 87 91 100 104 99 96 97 101 101 102 109 109 114 105 103 97 89 71 53 49 40 36 28 28 26 23 17 15 14 15 15 13 9 3 1 1 1 1 0 0 0 0 0 0 0 0 1 3 0 0 0 0 0 0 0 0 0 0 0 0 0 0 0 0 0 0 0 0 0 0 0 0 0 0 0 0 0 0 0 0 
