P2
128 99
211
0 0 0 0 0 0 0 0 0 0 0 0 0 0 0 0 0 0 0 0 0 0 0 0 0 0 0 0 0 0 0 1 0 0 0 0 0 0 0 0 0 0 0 0 0 0 0 0 0 0 0 0 0 0 0 0 0 0 0 0 0 0 0 0 0 0 0 0 0 0 0 0 0 0 0 0 0 0 0 0 0 0 0 0 0 0 0 0 0 0 0 0 0 0 0 2 6 0 0 0 0 0 0 0 0 0 0 0 0 0 0 0 0 0 0 0 0 0 0 0 0 0 0 0 0 0 0 0 
0 0 0 0 0 0 0 0 0 0 0 0 0 0 0 0 0 0 0 0 0 0 0 0 0 0 0 0 0 0 0 1 0 0 0 0 0 0 0 0 0 0 0 0 0 0 0 0 0 0 0 0 0 0 0 0 0 0 0 0 0 0 0 0 0 0 0 0 0 0 0 0 0 0 0 0 0 0 0 0 0 0 0 0 0 0 0 0 0 0 0 0 0 0 0 2 6 0 0 0 0 0 0 0 0 0 0 0 0 0 0 0 0 0 0 0 0 0 0 0 0 0 0 0 0 0 0 0 
0 0 0 0 0 0 0 0 0 0 0 0 0 0 0 0 0 0 0 0 0 0 0 0 0 0 0 0 0 0 0 1 0 0 0 0 0 0 0 0 0 1 0 0 0 0 0 0 0 0 0 2 2 3 1 0 0 0 0 0 0 0 0 0 0 0 0 0 0 0 0 0 0 0 0 0 0 0 0 0 0 0 0 0 0 0 0 0 0 0 0 0 0 0 0 1 6 0 0 0 0 0 0 0 0 0 0 0 0 0 0 0 0 0 0 0 0 0 0 0 0 0 0 0 0 0 0 0 
0 0 0 0 0 0 0 0 0 0 0 0 0 0 0 0 0 0 0 0 0 0 0 0 0 0 0 0 0 0 0 1 0 0 0 0 0 0 0 0 0 1 0 1 7 13 17 18 18 19 22 25 27 27 25 21 18 16 14 11 4 0 0 0 0 0 0 0 0 0 0 0 0 0 0 0 0 0 0 0 0 0 0 0 0 0 0 0 0 0 0 0 0 0 0 1 6 0 0 0 0 0 0 0 0 0 0 0 0 0 0 0 0 0 0 0 0 0 0 0 0 0 0 0 0 0 0 0 
0 0 0 0 0 0 0 0 0 0 0 0 0 0 0 0 0 0 0 0 0 0 0 0 0 0 0 0 0 0 0 0 0 0 0 0 0 0 0 0 6 14 20 23 24 33 53 77 100 121 137 148 153 153 150 140 124 104 79 54 33 22 17 10 2 0 0 0 0 0 0 0 0 0 0 0 0 0 0 0 0 0 0 0 0 0 0 0 0 0 0 0 0 0 0 1 6 0 0 0 0 0 0 0 0 0 0 0 0 0 0 0 0 0 0 0 0 0 0 0 0 0 0 0 0 0 0 0 
0 0 0 0 0 0 0 0 0 0 0 0 0 0 0 0 0 0 0 0 0 0 0 0 0 0 0 0 0 0 0 0 0 0 0 0 0 1 9 17 24 25 36 67 111 149 170 180 185 188 190 188 187 186 187 188 187 184 178 169 149 118 79 44 23 16 11 1 0 0 0 0 0 0 0 0 0 0 0 0 0 0 0 0 0 0 0 0 0 0 0 0 0 0 0 1 6 0 0 0 0 0 0 0 0 0 0 0 0 0 0 0 0 0 0 0 0 0 0 0 0 0 0 0 0 0 0 0 
0 0 0 0 0 0 0 0 0 0 0 0 0 0 0 0 0 0 0 0 0 0 0 0 0 0 0 0 0 0 0 0 0 0 0 0 9 21 24 26 52 103 151 177 187 189 190 191 194 196 198 199 199 199 199 199 197 195 191 189 188 183 173 155 121 76 39 18 13 2 0 0 0 0 0 0 0 0 0 0 0 0 0 0 0 0 0 0 0 0 0 0 0 0 0 2 6 0 0 0 0 0 0 0 0 0 0 0 0 0 0 0 0 0 0 0 0 0 0 0 0 0 0 0 0 0 0 0 
0 0 0 0 0 0 0 0 0 0 0 0 0 0 0 0 0 0 0 0 0 0 0 0 0 0 0 0 0 0 0 0 0 0 8 24 24 26 62 124 167 184 189 191 193 196 194 188 183 179 182 188 186 174 172 185 197 204 202 198 195 191 189 188 184 172 147 100 49 22 14 1 0 0 0 0 0 0 0 0 0 0 0 0 1 0 0 0 0 0 0 0 0 0 0 2 6 0 0 0 0 0 0 0 0 0 0 0 0 0 0 0 0 0 0 0 0 0 0 0 0 0 0 0 0 0 0 0 
0 0 0 0 0 0 0 0 0 0 0 0 0 0 0 0 0 0 0 0 0 0 0 0 0 0 0 0 0 0 0 0 5 27 25 23 58 128 171 183 186 189 193 197 194 186 177 165 156 155 156 158 156 149 150 155 164 180 199 206 204 200 197 193 190 189 187 180 155 102 46 23 11 0 0 0 0 0 0 0 0 0 0 0 1 0 0 0 0 0 0 0 0 0 0 2 6 0 0 0 0 0 0 0 0 0 0 0 0 0 0 0 0 0 0 0 0 0 0 0 0 0 0 0 0 0 0 0 
0 0 0 0 0 0 0 0 0 0 0 0 0 0 0 0 0 0 0 0 0 0 0 0 0 0 0 0 0 0 0 24 26 22 40 112 168 182 183 187 192 197 194 180 164 159 153 143 136 134 140 147 148 144 148 150 151 153 165 185 204 208 206 203 199 195 191 190 188 179 147 80 31 19 2 0 0 0 0 0 0 0 0 0 1 0 0 0 0 0 0 0 0 0 0 2 6 0 0 0 0 0 0 0 0 0 0 0 0 0 0 0 0 0 0 0 0 0 0 0 0 0 0 0 0 0 0 0 
0 0 0 0 0 0 0 0 0 0 0 0 0 0 0 0 0 0 0 0 0 0 0 0 0 0 0 0 0 10 28 23 25 83 157 180 183 186 191 196 199 189 170 165 161 153 147 141 138 135 135 139 138 136 141 144 146 146 150 157 172 191 204 210 209 204 200 196 192 191 188 173 120 46 22 6 0 0 0 0 0 0 0 0 0 0 0 0 0 0 0 0 0 0 0 2 6 0 0 0 0 0 0 0 0 0 0 0 0 0 0 0 0 0 0 0 0 0 0 0 0 0 0 0 0 0 0 0 
0 0 0 0 0 0 0 0 0 0 0 0 0 0 0 0 0 0 0 0 0 0 0 0 0 0 0 0 22 25 18 48 131 175 181 186 192 196 200 196 181 171 163 157 154 150 147 141 139 138 132 134 133 133 143 148 146 146 146 149 157 169 185 197 206 210 209 204 200 197 194 191 183 150 68 23 11 0 0 0 0 0 0 0 0 1 0 0 0 0 0 0 0 0 0 2 6 0 0 0 0 0 0 0 0 0 0 0 0 0 0 0 0 0 0 0 0 0 0 0 0 0 0 0 0 0 0 0 
0 0 0 0 0 0 0 0 0 0 0 0 0 0 0 0 0 0 0 0 0 0 0 0 0 0 5 26 20 20 76 157 178 184 190 197 201 201 189 175 170 166 159 156 150 148 149 145 146 140 131 129 127 126 135 145 145 147 150 153 154 161 170 177 188 200 208 211 209 203 198 195 190 184 161 85 25 13 0 0 0 0 0 0 0 0 0 0 0 0 0 0 0 0 0 2 6 0 0 0 0 0 0 0 0 0 0 0 0 0 0 0 0 0 0 0 0 0 0 0 0 0 0 0 0 0 0 0 
0 0 0 0 0 0 0 0 0 0 0 0 0 0 0 0 0 0 0 0 0 0 0 0 0 10 25 18 26 101 166 179 189 196 200 204 198 183 173 168 165 159 153 149 147 148 148 146 137 131 121 119 117 120 125 136 145 147 149 150 151 154 162 169 174 180 188 200 207 210 207 200 195 188 184 166 95 27 13 0 0 0 0 0 0 1 0 0 0 0 0 0 0 0 0 2 6 0 0 0 0 0 0 0 0 0 0 0 0 0 0 0 0 0 0 0 0 0 0 0 0 0 0 0 0 0 0 0 
0 0 0 0 0 0 0 0 0 0 0 0 0 0 0 0 0 0 0 0 0 0 0 0 14 23 16 34 117 169 180 191 198 204 201 189 175 172 168 162 160 157 155 152 148 146 138 130 130 125 123 125 122 124 125 126 135 146 149 148 148 149 150 156 162 168 173 176 185 197 205 208 203 196 189 186 170 105 30 13 0 0 0 0 1 0 0 0 0 0 0 0 0 0 0 2 7 0 0 0 0 0 0 0 0 0 0 0 0 0 0 0 0 0 0 0 0 0 0 0 0 0 0 0 0 0 0 0 
0 0 0 0 0 0 0 0 0 0 0 0 0 0 0 0 0 0 0 0 0 0 3 19 20 15 45 129 167 181 193 200 204 193 178 171 169 166 163 161 157 151 146 139 136 130 126 126 122 121 120 116 114 120 123 122 121 125 135 143 144 145 148 152 156 157 161 164 168 173 186 198 205 203 196 188 185 172 117 35 12 0 0 0 1 1 0 0 0 0 0 0 0 0 0 2 7 0 0 0 0 0 0 0 0 0 0 0 0 0 0 0 0 0 0 0 0 0 0 0 0 0 0 0 0 0 0 0 
0 0 0 0 0 0 0 0 0 0 0 0 0 0 0 0 0 0 0 0 0 5 17 17 16 57 138 166 182 194 202 201 183 171 166 163 160 161 160 154 150 145 137 133 124 117 116 113 116 116 117 112 110 116 117 118 119 123 123 126 127 128 133 140 149 152 153 155 161 166 166 175 190 201 203 196 191 186 171 125 38 9 0 0 1 0 0 0 0 0 0 0 0 0 0 2 7 0 0 0 0 0 0 0 0 0 0 0 0 0 0 0 0 0 0 0 0 0 0 0 0 0 0 0 0 0 0 0 
0 0 0 0 0 0 0 0 0 0 0 0 0 0 0 0 0 0 0 0 7 16 14 18 71 147 167 183 197 203 195 173 164 163 162 158 155 148 145 145 143 137 130 122 117 116 113 114 116 116 114 109 110 121 122 123 125 125 126 128 129 129 128 130 135 140 144 147 148 153 158 160 166 181 194 200 197 191 185 173 129 36 6 0 1 1 0 0 0 0 0 0 0 0 0 2 7 0 0 0 0 0 0 0 0 0 0 0 0 0 0 0 0 0 0 0 0 0 0 0 0 0 0 0 0 0 0 0 
0 0 0 0 0 0 0 0 0 0 0 0 0 0 0 0 0 0 0 6 15 14 19 78 150 166 182 195 202 192 167 159 159 157 154 149 142 141 138 133 128 122 121 121 124 124 122 124 123 118 118 112 113 121 123 124 125 125 122 123 125 129 130 130 124 124 130 140 146 144 143 149 154 162 174 190 200 197 192 183 171 121 29 4 1 1 0 0 0 0 0 0 0 0 0 2 7 0 0 0 0 0 0 0 0 0 0 0 0 0 0 0 0 0 0 0 0 0 0 0 0 0 0 0 0 0 0 0 
0 0 0 0 0 0 0 0 0 0 0 0 0 0 0 0 0 0 4 15 13 20 83 150 164 177 191 199 186 165 158 155 154 151 146 136 132 132 130 124 121 121 123 125 119 113 113 114 109 109 106 102 105 115 115 116 117 118 118 119 118 119 121 123 127 124 123 129 139 145 141 140 146 149 158 169 186 199 198 189 179 166 106 20 2 1 0 0 0 0 0 0 0 0 0 2 7 0 0 0 0 0 0 0 0 0 0 0 0 0 0 0 0 0 0 0 0 0 0 0 0 0 0 0 0 0 0 0 
0 0 0 0 0 0 0 0 0 0 0 0 0 0 0 0 0 2 14 13 19 81 147 162 174 189 199 183 163 155 152 150 146 142 133 129 131 127 120 122 122 121 116 110 106 106 107 107 109 107 99 98 101 110 112 111 112 112 114 117 119 116 114 114 118 124 125 126 131 135 140 137 140 144 149 156 164 182 200 195 187 174 157 83 11 1 0 0 0 0 0 0 0 0 0 2 7 0 0 0 0 0 0 0 0 0 0 0 0 0 0 0 0 0 0 0 0 0 0 0 0 0 0 0 0 0 0 0 
0 0 0 0 0 0 0 0 0 0 0 0 0 0 0 0 0 11 12 16 72 141 157 169 184 197 182 161 154 150 148 142 141 134 128 127 123 119 120 121 115 108 105 108 109 108 106 105 106 97 96 98 99 104 109 111 113 112 113 114 117 117 115 113 111 116 122 126 126 127 131 133 131 136 143 148 154 161 184 199 194 184 169 140 54 4 0 0 0 0 0 0 0 0 0 3 7 0 0 0 0 0 0 0 0 0 0 0 0 0 0 0 0 0 0 0 0 0 0 0 0 0 0 0 0 0 0 0 
0 0 0 0 0 0 0 0 0 0 0 0 0 0 0 0 6 12 14 60 132 150 165 180 194 183 158 152 147 145 140 137 131 127 125 122 118 119 120 114 109 108 109 107 105 101 100 100 99 99 100 105 108 112 113 112 114 113 110 108 109 111 110 108 106 106 111 123 123 124 124 129 128 129 134 140 147 149 157 186 199 191 178 159 116 26 1 0 0 0 0 0 0 0 0 3 7 0 0 0 0 0 0 0 0 0 0 0 0 0 0 0 0 0 0 0 0 0 0 0 0 0 0 0 0 0 0 0 
0 0 0 0 0 0 0 0 0 0 0 0 0 0 0 2 12 13 47 121 145 158 174 190 184 158 149 145 144 139 134 130 127 128 122 118 115 116 114 110 107 101 98 97 98 101 106 108 111 111 115 114 114 115 111 108 110 111 111 109 107 107 107 107 106 106 106 112 119 122 120 119 124 127 130 135 145 146 145 160 191 196 185 170 147 79 7 0 0 0 0 0 0 0 0 3 7 0 0 0 0 0 0 0 0 0 0 0 0 0 0 0 0 0 0 0 0 0 0 0 0 0 0 0 0 0 0 0 
0 0 0 0 0 0 0 0 0 0 0 0 0 0 0 8 10 26 101 137 152 168 185 185 163 147 142 143 139 137 130 125 127 122 116 112 116 116 110 105 100 96 99 103 103 106 108 110 111 110 113 108 104 105 100 99 100 102 104 109 110 106 106 105 107 108 106 107 115 116 119 118 120 122 128 134 141 143 141 145 169 192 190 177 160 122 30 1 0 0 0 0 0 0 0 3 7 0 0 0 0 0 0 0 0 0 0 0 0 0 0 0 0 0 0 0 0 0 0 0 0 0 0 0 0 0 0 0 
0 0 0 0 0 0 0 0 0 0 0 0 0 0 2 9 14 74 129 144 159 177 181 169 148 138 139 138 138 136 127 124 121 117 115 114 116 109 103 101 99 99 102 104 104 103 105 103 99 98 106 103 98 102 98 97 96 97 98 101 106 109 107 104 103 107 106 105 109 113 112 121 118 120 124 132 137 138 139 136 149 178 189 180 165 142 68 4 0 0 0 0 0 0 0 3 7 0 0 0 0 0 0 0 0 0 0 0 0 0 0 0 0 0 0 0 0 0 0 0 0 0 0 0 0 0 0 0 
0 0 0 0 0 0 0 0 0 0 0 0 0 0 6 9 40 112 135 151 170 176 166 157 137 132 136 135 139 132 126 122 117 114 115 111 106 103 103 101 100 102 102 101 100 100 101 100 97 99 107 108 103 102 93 95 100 99 98 97 96 103 108 107 103 103 105 107 106 109 109 115 121 118 122 130 139 135 136 131 135 161 180 182 171 152 106 16 0 0 0 0 0 0 0 3 7 0 0 0 0 0 0 0 0 0 0 0 0 0 0 0 0 0 0 0 0 0 0 0 0 0 0 0 0 0 0 0 
0 0 0 0 0 0 0 0 0 0 0 0 0 0 8 15 83 125 142 159 175 163 160 144 130 132 132 136 135 128 122 114 113 116 113 105 102 104 103 100 100 99 99 98 96 98 99 100 100 100 102 105 104 94 86 89 94 98 99 98 96 97 99 105 109 108 105 106 108 108 109 111 119 120 122 126 137 138 132 129 128 153 171 180 174 158 128 39 2 0 0 0 0 0 0 3 7 0 0 0 0 0 0 0 0 0 0 0 0 0 0 0 0 0 0 0 0 0 0 0 0 0 0 0 0 0 0 0 
0 0 0 0 0 0 0 0 0 0 0 0 0 3 6 37 110 133 148 167 169 158 153 134 128 129 131 134 130 124 119 115 116 114 107 103 105 102 98 99 99 96 95 96 96 99 101 102 103 100 100 104 111 102 101 102 100 97 96 98 98 98 97 96 104 110 108 106 109 108 108 110 114 119 120 129 135 137 126 125 125 146 163 179 176 162 138 60 3 0 0 0 0 0 0 3 7 0 0 0 0 0 0 0 0 0 0 0 0 0 0 0 0 0 0 0 0 0 0 0 0 0 0 0 0 0 0 0 
0 0 0 0 0 0 0 0 0 0 0 0 0 4 8 68 122 137 153 170 156 150 143 128 129 126 127 131 125 121 119 117 118 110 102 104 103 99 101 99 96 94 94 96 100 104 106 109 111 110 106 105 110 106 104 103 102 103 103 102 100 99 98 98 99 105 112 110 109 109 108 111 115 114 121 128 133 130 123 121 121 140 157 175 177 163 145 81 6 0 0 0 0 0 0 3 7 0 0 0 0 0 0 0 0 0 0 0 0 0 0 0 0 0 0 0 0 0 0 0 0 0 0 0 0 0 0 0 
0 0 0 0 0 0 0 0 0 0 0 0 0 6 17 94 127 142 161 164 143 143 135 124 125 123 123 128 118 119 119 121 118 106 105 105 102 103 100 96 97 93 93 99 109 110 108 109 107 103 101 101 108 103 102 98 96 95 100 105 106 105 105 103 99 101 109 114 112 110 110 111 117 114 117 125 128 125 123 119 120 133 151 171 177 165 148 98 10 0 0 0 0 0 0 3 7 0 0 0 0 0 0 0 0 0 0 0 0 0 0 0 0 0 0 0 0 0 0 0 0 0 0 0 0 0 0 0 
0 0 0 0 0 0 0 0 0 0 0 0 1 5 33 111 131 150 163 147 134 137 133 124 119 117 120 122 114 118 120 119 114 108 104 105 104 99 98 97 94 97 100 103 103 104 102 101 102 104 104 103 108 104 102 98 100 101 100 103 103 107 105 108 107 102 106 114 115 112 111 113 116 119 116 121 123 123 119 115 116 132 153 168 177 168 151 113 16 0 0 0 0 0 0 3 8 0 0 0 0 0 0 0 0 0 0 0 0 0 0 0 0 0 0 0 0 0 0 0 0 0 0 0 0 0 0 0 
0 0 0 0 0 0 0 0 0 0 0 0 2 6 49 119 136 155 156 137 129 132 133 122 113 115 119 118 113 116 120 116 113 107 104 110 104 99 96 95 98 101 103 102 98 99 102 98 99 102 101 102 100 100 95 93 94 96 100 103 100 100 105 106 109 112 109 113 116 115 114 112 114 116 119 122 118 117 116 112 110 130 150 163 178 171 156 125 25 0 0 0 0 0 0 3 8 0 0 0 0 0 0 0 0 0 0 0 0 0 0 0 0 0 0 0 0 0 0 0 0 0 0 0 0 0 0 0 
0 0 0 0 0 0 0 0 0 0 0 0 3 7 63 123 142 158 149 134 128 133 135 120 109 112 115 115 112 112 116 115 111 109 111 110 105 101 98 98 100 102 98 94 94 94 99 98 98 100 105 107 104 103 101 100 99 100 95 94 100 100 103 105 111 113 106 107 113 115 116 116 114 116 117 122 113 110 113 113 111 132 151 164 180 176 160 136 37 1 0 0 0 0 0 3 8 0 0 0 0 0 0 0 0 0 0 0 0 0 0 0 0 0 0 0 0 0 0 0 0 0 0 0 0 0 0 0 
0 0 0 0 0 0 0 0 0 0 0 0 3 9 72 127 146 156 148 137 129 131 134 121 111 111 111 113 108 109 115 114 113 111 109 112 106 104 108 104 102 100 95 92 91 92 89 93 96 98 104 108 106 102 98 96 91 93 92 89 93 101 103 104 105 108 109 110 117 119 116 119 118 115 116 121 112 108 111 110 110 136 152 165 178 178 164 146 50 2 0 0 0 0 0 3 8 0 0 0 0 0 0 0 0 0 0 0 0 0 0 0 0 0 0 0 0 0 0 0 0 0 0 0 0 0 0 0 
0 0 0 0 0 0 0 0 0 0 0 0 3 11 81 132 152 159 149 140 133 132 134 121 113 110 110 110 105 108 117 116 116 112 111 113 113 114 118 117 112 104 98 99 95 92 92 92 90 97 102 103 104 98 94 88 84 86 91 90 90 99 98 97 106 112 115 120 119 118 119 122 124 120 117 124 117 108 106 108 114 138 150 162 180 180 168 153 62 3 0 0 0 0 0 3 8 0 0 0 0 0 0 0 0 0 0 0 0 0 0 0 0 0 0 0 0 0 0 0 0 0 0 0 0 0 0 0 
0 0 0 0 0 0 0 0 0 0 0 0 4 12 85 136 156 163 152 144 136 135 136 123 117 111 108 110 102 107 118 120 115 112 117 116 112 106 102 98 95 95 101 102 100 98 93 93 94 96 100 101 104 94 88 87 85 85 92 87 90 95 100 107 103 98 99 101 102 105 107 116 128 131 126 128 126 112 108 113 121 138 149 158 178 183 170 155 76 5 0 0 0 0 0 3 7 0 0 0 0 0 0 0 0 0 0 0 0 0 0 0 0 0 0 0 0 0 0 0 0 0 0 0 0 0 0 0 
0 0 0 0 0 0 0 0 0 0 0 0 4 13 88 139 157 163 149 145 141 140 138 128 121 111 108 106 102 110 124 122 119 119 113 111 104 93 85 87 86 85 85 89 96 104 100 92 92 96 98 97 105 95 87 86 84 87 88 83 94 102 99 94 95 92 95 93 89 93 97 100 110 124 137 139 137 123 111 120 125 137 144 152 172 183 174 159 90 7 0 0 0 0 0 3 7 0 0 0 0 0 0 0 0 0 0 0 0 0 0 0 0 0 0 0 0 0 0 0 0 0 0 0 0 0 0 0 
0 0 0 0 0 0 0 0 0 0 0 0 6 14 92 143 160 163 151 146 140 140 139 135 129 118 111 105 103 118 127 126 124 111 103 95 92 87 84 86 85 84 84 84 86 93 102 100 91 95 98 97 102 101 94 92 88 88 85 92 101 89 86 88 91 95 97 98 95 98 98 96 97 111 133 150 146 134 122 127 128 132 137 146 160 181 176 161 103 10 0 0 0 0 0 3 7 0 0 0 0 0 0 0 0 0 0 0 0 0 0 0 0 0 0 0 0 0 0 0 0 0 0 0 0 0 0 0 
0 0 0 0 0 0 0 0 0 0 0 0 7 14 95 146 160 163 148 143 137 137 134 134 134 122 118 113 108 124 132 131 107 94 92 91 90 87 88 91 89 85 83 85 88 91 91 96 91 95 96 99 104 106 105 101 96 92 83 99 94 83 84 87 94 98 99 104 101 101 105 106 108 115 128 151 153 140 131 131 124 127 131 139 151 176 177 162 117 16 0 0 0 0 0 3 7 0 0 0 0 0 0 0 0 0 0 0 0 0 0 0 0 0 0 0 0 0 0 0 0 0 0 0 0 0 0 0 
0 0 0 0 0 0 0 0 0 0 0 0 8 14 96 147 164 164 143 138 134 135 130 128 130 127 121 122 127 130 136 124 96 92 92 91 90 88 88 89 89 89 87 84 84 87 92 95 96 95 103 108 114 108 115 101 96 91 88 102 85 80 78 84 92 97 99 103 100 103 107 106 114 125 130 133 145 138 138 131 124 122 125 132 142 167 176 162 126 23 0 0 0 0 0 3 7 0 0 0 0 0 0 0 0 0 0 0 0 0 0 0 0 0 0 0 0 0 0 0 0 0 0 0 0 0 0 0 
0 0 0 0 0 0 0 0 0 0 0 0 7 15 98 149 165 165 136 131 132 132 128 123 127 127 121 121 132 139 143 123 107 99 101 98 92 89 86 85 85 85 84 84 84 86 95 100 101 99 106 113 122 116 121 104 96 91 97 98 81 75 79 88 96 100 100 101 99 99 108 110 114 118 121 123 129 137 140 132 121 119 122 123 132 159 176 163 132 33 1 0 0 0 0 3 7 0 0 0 0 0 0 0 0 0 0 0 0 0 0 0 0 0 0 0 0 0 0 0 0 0 0 0 0 0 0 0 
0 0 0 0 0 0 0 0 0 0 0 0 7 16 99 150 166 166 132 131 131 129 124 118 120 119 118 120 130 134 135 124 116 108 103 102 98 90 87 87 88 90 85 84 87 90 94 100 100 101 110 116 118 115 117 112 103 100 102 90 77 79 86 91 96 99 100 98 96 96 104 110 111 111 115 120 122 134 137 132 118 113 114 116 121 149 172 163 136 43 1 0 0 0 0 3 7 0 0 0 0 0 0 0 0 0 0 0 0 0 0 0 0 0 0 0 0 0 0 0 0 0 0 0 0 0 0 0 
0 0 0 0 0 0 0 0 0 0 0 0 8 16 102 153 169 163 129 130 128 125 117 111 114 115 117 120 124 126 124 114 106 105 102 100 94 88 88 85 86 86 87 89 89 92 93 96 99 101 107 106 105 110 108 113 108 106 100 84 79 84 87 90 93 96 95 94 94 95 100 105 111 109 112 114 122 134 135 130 112 109 109 112 114 137 167 163 139 50 2 0 0 0 0 3 7 0 0 0 0 0 0 0 0 0 0 0 0 0 0 0 0 0 0 0 0 0 0 0 0 0 0 0 0 0 0 0 
0 0 0 0 0 0 0 0 0 0 0 0 8 17 102 154 169 159 125 124 119 116 108 103 109 110 115 123 122 115 117 110 97 101 99 97 89 87 88 85 82 83 83 88 91 91 93 94 99 99 109 109 103 105 106 113 108 112 104 83 84 85 88 84 84 90 92 91 90 94 101 103 107 107 107 112 122 132 132 132 115 109 104 107 106 125 154 160 142 57 2 0 0 0 0 3 8 0 0 0 0 0 0 0 0 0 0 0 0 0 0 0 0 0 0 0 0 0 0 0 0 0 0 0 0 0 0 0 
0 0 0 0 0 0 0 0 0 0 0 0 8 17 100 154 169 152 116 116 111 109 101 97 101 104 109 121 122 116 112 108 97 96 95 91 88 84 87 82 82 84 83 86 89 91 94 90 89 100 115 121 112 102 105 99 115 108 97 86 88 90 88 77 81 90 91 91 91 92 100 102 104 105 104 111 123 128 127 136 124 109 102 108 108 120 136 151 143 62 2 0 0 0 0 3 7 0 0 0 0 0 0 0 0 0 0 0 0 0 0 0 0 0 0 0 0 0 0 0 0 0 0 0 0 0 0 0 
0 0 0 0 0 0 0 0 0 0 0 0 8 17 98 153 168 144 114 111 105 105 100 97 100 101 110 118 117 116 112 107 101 96 95 94 89 85 88 85 81 82 86 92 92 93 96 88 86 95 115 121 102 92 95 84 102 109 86 92 89 89 84 80 87 92 94 91 89 93 99 100 101 100 102 113 126 129 133 138 127 110 102 105 109 119 131 150 143 63 2 0 0 0 0 2 7 0 0 0 0 0 0 0 0 0 0 0 0 0 0 0 0 0 0 0 0 0 0 0 0 0 0 0 0 0 0 0 
0 0 0 0 0 0 0 0 0 0 0 0 7 16 93 151 166 136 113 108 106 105 101 97 101 103 112 114 114 115 114 108 102 96 96 96 90 88 89 87 84 80 82 89 90 91 93 87 84 96 116 109 86 81 91 84 89 118 82 88 87 84 80 87 90 94 94 90 90 93 99 98 100 98 103 118 133 134 132 134 126 110 102 102 108 116 131 154 138 60 2 0 0 0 0 2 7 0 0 0 0 0 0 0 0 0 0 0 0 0 0 0 0 0 0 0 0 0 0 0 0 0 0 0 0 0 0 0 
0 0 0 0 0 0 0 0 0 0 0 0 6 15 84 149 164 132 111 106 106 103 102 97 99 103 111 113 110 115 119 110 101 101 96 94 93 93 90 89 84 85 81 83 85 86 89 85 87 101 108 89 84 84 91 82 82 111 98 85 83 80 80 89 91 92 93 91 91 93 98 98 98 96 103 119 138 128 124 132 125 109 102 101 106 114 131 152 133 55 2 0 0 0 0 2 7 0 0 0 0 0 0 0 0 0 0 0 0 0 0 0 0 0 0 0 0 0 0 0 0 0 0 0 0 0 0 0 
0 0 0 0 0 0 0 0 0 0 0 0 4 15 78 145 162 134 113 106 103 102 104 97 95 99 108 114 108 115 122 113 100 100 97 97 97 94 91 90 86 85 84 82 83 84 86 80 93 105 104 87 86 89 97 84 81 91 111 88 81 77 79 87 91 94 94 91 88 89 96 97 96 95 104 118 132 123 120 129 124 107 103 101 103 111 133 148 127 49 2 0 0 0 0 2 7 0 0 0 0 0 0 0 0 0 0 0 0 0 0 0 0 0 0 0 0 0 0 0 0 0 0 0 0 0 0 0 
0 0 0 0 0 0 0 0 0 0 0 0 2 14 72 140 159 139 114 106 102 101 101 100 95 94 104 113 111 119 122 113 97 98 97 95 96 94 92 93 88 85 83 83 81 83 83 83 95 107 92 86 85 94 102 88 82 78 106 94 91 84 80 87 92 96 95 88 86 88 95 97 93 94 104 118 126 121 120 125 123 106 103 100 101 111 137 144 118 43 1 0 0 0 0 2 7 0 0 0 0 0 0 0 0 0 0 0 0 0 0 0 0 0 0 0 0 0 0 0 0 0 0 0 0 0 0 0 
0 0 0 0 0 0 0 0 0 6 5 0 0 12 63 133 154 140 116 105 100 100 100 101 95 91 100 114 116 123 123 110 98 96 99 95 95 92 91 90 89 89 86 84 91 99 94 91 100 101 90 85 87 99 102 91 86 80 88 105 106 105 98 94 93 98 99 91 86 91 98 98 90 96 104 115 121 121 123 126 123 105 100 97 98 111 138 137 107 37 1 0 0 0 0 2 7 0 0 0 0 0 0 0 0 0 0 0 0 0 0 0 0 0 0 0 0 0 0 0 0 0 0 0 0 0 0 0 
0 0 0 0 0 0 0 0 0 2 9 3 1 9 52 125 151 139 115 105 97 99 99 102 95 89 102 116 119 116 115 111 96 93 99 97 93 89 90 90 96 97 95 90 95 99 99 96 106 96 87 84 87 97 96 93 90 87 82 116 117 118 109 105 102 98 94 94 91 89 91 91 90 94 101 117 122 123 127 129 127 107 95 96 98 111 139 132 99 33 1 0 0 0 0 2 7 0 0 0 0 0 0 0 0 0 0 0 0 0 0 0 0 0 0 0 0 0 0 0 0 0 0 0 0 0 0 0 
0 0 0 0 0 0 0 0 0 2 5 9 3 8 41 115 146 137 112 101 95 96 99 102 100 90 101 116 118 114 116 115 99 94 97 96 90 90 90 92 93 94 92 96 109 112 106 102 110 86 84 83 84 99 94 87 89 87 90 118 125 111 101 106 114 113 106 99 93 90 91 92 96 101 104 120 124 120 127 132 134 114 95 97 98 118 139 127 90 26 0 0 0 0 0 2 7 0 0 0 0 0 0 0 0 0 0 0 0 0 0 0 0 0 0 0 0 0 0 0 0 0 0 0 0 0 0 0 
0 0 0 0 0 0 0 0 0 1 2 10 4 7 32 101 141 140 112 103 99 99 100 98 101 93 103 115 116 115 124 124 112 100 98 99 96 94 97 98 98 96 100 106 97 99 95 104 106 85 82 83 82 102 90 83 84 80 88 117 131 109 101 105 113 126 134 130 124 122 124 117 123 127 131 134 123 113 127 135 135 125 103 97 107 128 140 119 83 17 0 0 1 8 4 2 7 0 0 0 0 0 0 0 0 0 0 0 0 0 0 0 0 0 0 0 0 0 0 0 0 0 0 0 0 0 0 0 
0 0 0 0 0 0 0 0 0 0 1 10 6 7 25 90 136 145 116 108 105 95 97 99 100 101 105 113 118 117 125 120 118 121 118 113 112 112 114 112 109 101 88 90 96 94 90 105 105 77 81 86 83 97 87 74 77 79 87 118 131 104 102 105 109 121 145 149 142 146 150 145 139 131 129 133 135 126 126 135 136 126 118 109 107 137 136 113 76 12 3 2 5 3 1 2 7 0 0 0 0 0 0 0 0 0 0 0 0 0 0 0 0 0 0 0 0 0 0 0 0 0 0 0 0 0 0 0 
0 0 0 0 0 0 0 0 0 0 1 8 5 8 20 79 129 150 131 110 104 95 93 99 104 114 111 114 120 119 119 117 111 118 129 130 127 118 114 109 106 99 93 96 98 89 93 101 105 83 83 91 86 101 88 76 76 85 95 127 128 112 108 109 113 128 144 148 149 153 145 140 133 121 129 129 140 143 135 134 136 129 124 125 142 142 118 110 66 9 2 2 4 1 0 2 7 0 0 0 0 0 0 0 0 0 0 0 0 0 0 0 0 0 0 0 0 0 0 0 0 0 0 0 0 0 0 0 
0 0 0 0 0 0 0 0 0 0 1 7 6 9 13 67 120 147 146 115 105 95 96 109 116 114 118 119 118 116 123 131 129 124 123 128 127 124 122 116 107 95 91 94 94 88 90 97 105 95 86 89 92 106 95 76 86 94 104 117 114 115 116 114 119 128 141 144 143 144 134 137 143 144 143 146 151 152 156 151 145 145 144 151 160 136 107 105 52 6 2 3 2 0 0 2 7 0 0 0 0 0 0 0 0 0 0 0 0 0 0 0 0 0 0 0 0 0 0 0 0 0 0 0 0 0 0 0 
0 0 0 0 0 0 0 0 0 0 0 7 8 9 13 54 112 142 149 129 112 109 114 117 124 122 125 134 125 119 135 141 147 151 149 138 139 139 131 113 101 92 94 89 87 86 91 108 107 93 97 93 90 108 95 85 87 98 105 106 112 107 118 116 118 131 145 150 155 148 147 150 151 148 136 142 141 143 158 164 167 173 168 174 176 130 118 101 32 6 4 2 2 1 0 2 7 0 0 0 0 0 0 0 0 0 0 0 0 0 0 0 0 0 0 0 0 0 0 0 0 0 0 0 0 0 0 0 
0 0 0 0 0 0 0 0 0 0 0 8 10 9 9 37 107 140 148 143 133 144 134 133 137 139 137 139 125 128 141 147 153 159 154 141 142 142 135 116 107 100 95 90 89 91 103 112 98 91 93 97 99 120 100 86 82 94 103 103 108 114 110 113 112 122 130 141 147 150 148 141 132 136 134 139 141 145 155 166 169 176 182 175 157 122 118 84 16 5 3 2 2 0 0 2 7 0 0 0 0 0 0 0 0 0 0 0 0 0 0 0 0 0 0 0 0 0 0 0 0 0 0 0 0 0 0 0 
0 0 0 0 0 0 0 0 0 0 0 5 12 7 7 12 61 125 145 144 150 165 171 156 153 152 139 135 138 136 154 159 152 152 160 148 142 143 136 117 109 111 108 99 98 95 103 111 101 93 93 99 101 116 117 97 84 89 97 103 110 106 112 114 110 118 123 132 135 135 130 134 128 132 134 144 146 143 145 155 162 165 166 163 147 120 113 91 17 4 6 3 2 1 0 1 7 0 0 0 0 0 0 0 0 0 0 0 0 0 0 0 0 0 0 0 0 0 0 0 0 0 0 0 0 0 0 0 
0 0 0 0 0 0 0 0 0 0 0 6 8 5 5 10 36 113 147 147 155 170 170 166 162 160 158 151 132 123 139 151 159 155 161 154 152 151 135 110 104 112 115 109 102 101 110 112 106 96 95 103 105 119 116 99 85 83 89 96 104 99 98 112 112 119 124 130 133 127 126 124 123 130 134 139 137 136 137 148 150 165 153 140 120 117 118 62 8 4 6 3 3 1 0 1 6 0 0 0 0 0 0 0 0 0 0 0 0 0 0 0 0 0 0 0 0 0 0 0 0 0 0 0 0 0 0 0 
0 0 0 0 0 0 0 0 0 0 0 6 6 6 5 9 22 91 142 143 146 154 157 149 164 167 162 152 137 126 131 137 142 152 154 152 148 148 130 114 106 105 111 111 99 97 107 102 96 98 98 95 89 108 117 107 83 83 91 93 99 108 107 108 101 100 113 128 130 131 128 120 130 140 145 143 135 138 136 143 145 156 130 122 125 125 108 33 6 3 6 5 2 1 0 1 6 0 0 0 0 0 0 0 0 0 0 0 0 0 0 0 0 0 0 0 0 0 0 0 0 0 0 0 0 0 0 0 
0 0 0 0 0 0 0 0 0 0 0 4 4 5 4 8 16 62 131 143 140 137 148 148 141 142 146 145 140 137 133 127 128 133 136 141 137 139 129 118 106 102 101 98 98 99 112 98 102 108 105 99 94 102 118 116 89 92 98 93 102 118 117 125 111 91 94 105 109 110 120 123 124 141 150 153 145 140 138 140 136 141 133 118 114 120 77 16 7 5 7 4 3 1 0 1 6 0 0 0 0 0 0 0 0 0 0 0 0 0 0 0 0 0 0 0 0 0 0 0 0 0 0 0 0 0 0 0 
0 0 0 0 0 0 0 0 0 0 1 4 3 3 3 9 16 33 110 132 131 131 141 143 140 134 131 128 131 146 148 130 117 112 132 144 138 128 125 110 98 92 100 104 99 106 125 109 118 117 113 108 99 99 120 120 104 102 103 105 106 123 122 123 115 94 91 90 93 101 109 124 136 139 144 155 154 149 147 143 144 140 123 98 96 108 43 11 6 6 5 2 3 2 0 1 6 0 0 0 0 0 0 0 0 0 0 0 0 0 0 0 0 0 0 0 0 0 0 0 0 0 0 0 0 0 0 0 
0 0 0 0 0 0 0 0 0 0 1 3 4 4 3 9 14 17 81 117 124 128 135 140 133 133 129 127 131 147 152 136 117 113 131 144 145 138 116 93 85 100 105 105 106 111 120 122 122 120 127 127 113 109 134 130 114 108 111 115 111 127 124 126 120 106 89 85 94 109 114 129 132 128 137 148 155 156 171 160 144 123 106 82 97 87 20 13 7 9 5 1 1 2 0 1 6 0 0 0 0 0 0 0 0 0 0 0 0 0 0 0 0 0 0 0 0 0 0 0 0 0 0 0 0 0 0 0 
0 0 0 0 0 0 0 0 0 0 1 3 4 4 2 5 13 13 48 114 130 124 133 145 143 135 137 135 141 147 148 130 111 111 115 125 123 117 109 99 88 98 101 107 118 120 122 128 132 134 140 144 149 150 151 139 134 137 128 128 128 139 143 136 127 106 90 93 103 120 115 113 124 123 136 145 158 167 178 166 132 115 97 88 104 57 14 13 8 8 4 2 1 2 0 1 6 0 0 0 0 0 0 0 0 0 0 0 0 0 0 0 0 0 0 0 0 0 0 0 0 0 0 0 0 0 0 0 
0 0 0 0 0 0 0 0 0 0 1 3 5 3 1 5 11 14 26 100 122 113 122 129 153 153 151 143 147 147 146 135 125 119 111 118 108 95 91 104 106 106 109 113 126 137 136 137 146 148 145 151 162 169 170 161 155 152 141 141 147 158 165 150 130 122 121 119 119 123 108 109 119 123 127 144 155 173 171 158 125 101 90 89 98 33 12 12 7 6 5 2 2 2 1 0 5 0 0 0 0 0 0 0 0 0 0 0 0 0 0 0 0 0 0 0 0 0 0 0 0 0 0 0 0 0 0 0 
0 0 0 0 0 0 0 0 0 0 1 3 5 3 1 5 11 12 16 68 116 119 108 116 147 160 159 149 146 145 145 140 127 126 122 118 110 101 99 107 133 130 127 127 134 144 151 149 152 143 140 143 143 142 148 152 150 144 134 136 143 158 168 164 147 141 141 138 143 120 101 102 110 118 115 137 151 173 158 145 126 112 97 101 80 19 9 10 5 6 4 2 1 2 1 0 5 0 0 0 0 0 0 0 0 0 0 0 0 0 0 0 0 0 0 0 0 0 0 0 0 0 0 0 0 0 0 0 
0 0 0 0 0 0 0 0 0 0 1 3 5 3 1 5 9 10 12 40 94 111 108 112 133 154 161 159 145 142 142 142 135 129 119 116 115 117 123 127 134 151 157 147 148 148 150 156 149 146 142 144 142 149 145 146 147 147 136 137 142 157 170 165 168 161 151 157 146 111 95 94 104 115 121 138 153 170 151 130 111 101 108 98 66 16 9 9 5 3 2 2 2 2 1 0 5 0 0 0 0 0 0 0 0 0 0 0 0 0 0 0 0 0 0 0 0 0 0 0 0 0 0 0 0 0 0 0 
0 0 0 0 0 0 0 0 0 0 1 5 13 8 2 5 8 9 11 29 80 110 117 107 119 137 157 161 151 134 136 140 133 124 111 110 109 115 122 132 139 153 165 168 160 155 156 156 147 148 148 153 153 153 150 143 147 147 134 133 139 146 157 163 168 160 153 156 143 108 88 95 110 122 140 153 158 163 149 130 97 86 94 96 57 15 8 6 6 3 2 2 3 2 2 0 5 0 0 0 0 0 0 0 0 0 0 0 0 0 0 0 0 0 0 0 0 0 0 0 0 0 0 0 0 0 0 0 
0 0 0 0 0 0 0 0 0 0 0 5 11 13 10 7 8 11 12 21 64 98 115 112 113 115 142 154 159 134 125 128 133 112 101 104 108 113 117 121 127 143 161 166 166 161 163 157 155 156 156 163 162 158 152 132 135 140 127 125 134 143 146 161 168 164 164 159 142 106 90 95 106 119 156 171 173 169 149 111 87 81 94 91 40 16 6 4 6 4 2 3 3 3 2 0 5 0 0 0 0 0 0 0 0 0 0 0 0 0 0 0 0 0 0 0 0 0 0 0 0 0 0 0 0 0 0 0 
0 0 0 0 0 0 0 0 0 0 0 3 12 10 10 7 9 12 15 15 34 84 114 114 97 108 135 149 163 145 138 128 131 107 90 99 107 110 112 111 114 140 161 161 160 158 155 148 149 153 159 169 163 159 138 113 115 127 128 125 131 147 147 163 174 170 166 158 140 112 97 98 108 131 159 165 171 156 142 97 72 74 81 64 20 15 8 6 5 5 4 5 6 4 1 0 4 0 0 0 0 0 0 0 0 0 0 0 0 0 0 0 0 0 0 0 0 0 0 0 0 0 0 0 0 0 0 0 
0 0 0 0 0 0 0 0 0 0 0 2 10 11 9 9 9 9 13 15 17 50 104 108 102 103 120 146 163 163 155 137 127 122 102 92 92 92 95 106 125 141 154 157 155 151 150 144 144 139 150 151 141 157 152 128 122 128 128 124 139 156 152 169 174 173 165 164 159 126 117 119 133 145 147 147 126 110 107 73 59 81 90 36 12 9 9 9 5 5 6 7 12 5 2 0 4 0 0 0 0 0 0 0 0 0 0 0 0 0 0 0 0 0 0 0 0 0 0 0 0 0 0 0 0 0 0 0 
0 0 0 0 0 0 0 0 0 0 0 0 10 11 6 6 5 6 8 15 19 27 70 97 95 90 113 144 150 165 163 147 136 135 121 102 101 105 111 134 136 161 173 168 166 161 157 165 168 164 162 153 159 179 182 165 155 158 160 151 158 163 175 174 174 175 166 175 159 160 135 140 140 140 116 98 90 94 95 79 90 95 53 20 11 2 2 5 6 4 4 6 8 4 0 0 4 0 0 0 0 0 0 0 0 0 0 0 0 0 0 0 0 0 0 0 0 0 0 0 0 0 0 0 0 0 0 0 
0 0 0 0 0 0 0 0 0 0 0 0 3 7 5 3 2 3 5 10 17 22 36 81 85 77 93 100 100 141 146 147 142 138 133 118 119 123 127 133 162 180 180 181 186 189 177 187 183 174 172 176 177 175 175 170 166 165 175 185 191 193 197 194 195 205 181 184 142 137 141 130 101 77 67 78 79 83 84 71 70 46 27 22 14 2 1 2 3 3 4 7 7 0 0 0 3 0 0 0 0 0 0 0 0 0 0 0 0 0 0 0 0 0 0 0 0 0 0 0 0 0 0 0 0 0 0 0 
0 0 0 0 0 0 0 0 0 0 0 0 0 3 3 1 2 0 1 7 14 20 24 46 81 80 63 57 67 76 94 108 125 132 126 122 115 127 148 165 175 181 173 187 183 187 184 188 180 168 158 171 169 168 164 165 167 158 163 173 172 191 203 175 170 181 178 163 157 136 120 104 89 76 74 91 94 93 72 50 43 39 34 24 18 0 1 1 1 1 3 6 7 0 0 0 3 0 0 0 0 0 0 0 0 0 0 0 0 0 0 0 0 0 0 0 0 0 0 0 0 0 0 0 0 0 0 0 
0 0 0 0 0 0 0 0 0 0 0 0 0 2 5 4 4 2 2 4 9 14 20 22 36 50 37 43 65 63 63 63 77 82 78 90 85 73 75 75 91 119 147 149 141 136 130 116 128 105 100 116 123 124 121 119 105 89 96 97 96 113 99 135 136 153 121 79 62 62 56 64 60 53 62 79 82 82 49 30 28 25 19 7 3 1 4 4 2 1 2 8 5 0 0 0 3 0 0 0 0 0 0 0 0 0 0 0 0 0 0 0 0 0 0 0 0 0 0 0 0 0 0 0 0 0 0 0 
0 0 0 0 0 0 0 0 0 0 0 0 0 0 3 3 3 3 3 1 5 10 13 16 22 22 23 33 64 65 59 65 60 64 57 61 69 62 68 73 86 92 88 82 85 93 79 66 72 75 58 71 90 92 91 90 72 59 71 74 81 95 83 80 78 94 87 101 114 99 64 66 67 56 57 75 82 80 47 29 27 25 16 6 3 1 2 2 2 2 3 4 1 0 0 0 3 0 0 0 0 0 0 0 0 0 0 0 0 0 0 0 0 0 0 0 0 0 0 0 0 0 0 0 0 0 0 0 
0 0 0 0 0 0 0 0 0 0 0 0 0 0 0 0 0 0 0 0 3 9 9 15 21 26 28 37 69 75 65 66 67 74 63 59 73 94 113 118 137 140 108 97 98 104 97 96 102 88 76 90 99 101 100 92 82 74 90 106 103 110 96 91 116 139 108 68 113 89 83 82 77 68 74 89 91 85 51 34 28 21 14 7 2 0 0 0 1 1 1 1 0 0 0 0 3 0 0 0 0 0 0 0 0 0 0 0 0 0 0 0 0 0 0 0 0 0 0 0 0 0 0 0 0 0 0 0 
0 0 0 0 0 0 0 0 0 0 0 0 0 0 0 0 0 0 0 0 0 3 5 8 15 28 32 44 77 88 84 78 80 87 85 82 86 124 120 145 158 169 142 131 132 155 158 150 136 115 112 120 123 125 124 123 121 118 126 140 146 147 139 148 152 163 138 118 125 130 112 115 108 95 88 84 84 79 49 38 23 15 7 8 1 0 0 0 0 0 0 0 0 0 0 0 3 0 0 0 0 0 0 0 0 0 0 0 0 0 0 0 0 0 0 0 0 0 0 0 0 0 0 0 0 0 0 0 
0 0 0 0 0 0 0 0 0 0 0 0 0 0 0 0 0 0 0 0 0 2 3 4 10 23 29 41 66 81 76 75 82 91 88 83 87 118 121 115 162 162 161 159 173 171 178 178 153 158 165 152 154 159 162 156 154 154 156 151 149 168 168 159 166 150 143 121 146 145 124 133 103 69 50 59 70 57 34 24 19 10 6 2 0 0 0 0 0 0 0 0 0 0 0 0 2 0 0 0 0 0 0 0 0 0 0 0 0 0 0 0 0 0 0 0 0 0 0 0 0 0 0 0 0 0 0 0 
0 0 0 0 0 0 0 0 0 0 0 0 0 0 0 0 0 0 0 0 0 0 2 3 8 17 30 37 56 77 77 72 75 78 71 69 65 95 113 90 119 119 121 109 127 135 141 161 154 151 143 131 135 134 137 127 132 127 127 125 138 140 124 128 130 132 137 138 143 146 110 64 46 49 58 79 76 47 28 18 10 7 6 1 1 1 2 2 1 1 0 0 0 0 2 3 9 0 0 0 0 0 0 0 0 0 0 0 0 0 0 0 0 0 0 0 0 0 0 0 0 0 0 0 0 0 0 0 
0 0 0 0 0 0 0 0 0 0 0 0 0 0 0 0 0 0 0 0 0 0 4 7 8 15 21 21 32 53 67 66 63 66 53 54 53 72 80 105 108 110 107 94 107 126 127 126 118 122 115 92 106 100 105 94 102 101 101 103 118 131 123 96 117 126 124 107 130 113 94 62 51 58 72 99 86 48 25 18 17 11 7 1 0 0 1 1 1 1 0 0 0 0 0 0 5 0 0 0 0 0 0 0 0 0 0 0 0 0 0 0 0 0 0 0 0 0 0 0 0 0 0 0 0 0 0 0 
0 0 0 0 0 0 0 0 0 0 0 0 0 0 0 0 0 0 0 0 0 0 2 6 9 13 19 21 25 43 62 75 71 69 56 54 57 70 84 99 98 101 100 102 108 117 130 125 117 115 105 83 87 89 93 89 100 109 110 106 109 118 109 93 89 104 119 121 117 102 93 66 52 57 78 104 86 49 24 19 18 12 7 1 0 0 1 1 1 1 0 0 0 0 0 0 4 0 0 0 0 0 0 0 0 0 0 0 0 0 0 0 0 0 0 0 0 0 0 0 0 0 0 0 0 0 0 0 
0 0 0 0 0 0 0 0 0 0 0 0 0 0 0 0 0 0 0 0 0 0 1 4 8 10 16 21 23 39 59 74 76 70 61 54 49 56 68 95 94 84 86 92 102 114 124 131 128 118 111 96 96 93 95 91 100 101 118 123 115 119 121 110 104 98 108 114 107 92 76 61 56 68 88 108 82 49 24 19 17 11 5 0 0 0 1 1 1 1 0 0 0 0 0 0 3 0 0 0 0 0 0 0 0 0 0 0 0 0 0 0 0 0 0 0 0 0 0 0 0 0 0 0 0 0 0 0 
0 0 0 0 0 0 0 0 0 0 0 0 0 0 0 0 0 0 0 0 0 0 0 3 6 9 13 19 22 33 53 68 77 72 65 57 52 54 60 66 71 76 85 90 98 106 114 119 133 124 116 102 102 103 93 92 97 97 114 123 120 138 128 111 101 95 98 103 107 97 79 63 55 66 96 109 80 50 26 18 15 11 3 0 0 0 1 1 1 1 0 0 0 0 0 0 3 0 0 0 0 0 0 0 0 0 0 0 0 0 0 0 0 0 0 0 0 0 0 0 0 0 0 0 0 0 0 0 
0 0 0 0 0 0 0 0 0 0 0 0 0 0 0 0 0 0 0 0 0 0 0 0 5 8 11 16 21 29 45 59 80 76 68 63 57 55 52 59 65 73 88 89 100 101 104 112 124 113 111 104 97 97 91 91 94 95 106 112 118 127 117 104 102 99 98 92 95 92 81 72 63 66 95 106 80 51 25 17 15 9 2 0 0 0 1 1 2 1 0 0 0 0 0 0 3 0 0 0 0 0 0 0 0 0 0 0 0 0 0 0 0 0 0 0 0 0 0 0 0 0 0 0 0 0 0 0 
0 0 0 0 0 0 0 0 0 0 0 0 0 0 0 0 0 0 0 0 0 0 0 0 3 5 9 13 18 25 39 51 78 75 73 71 63 55 54 55 63 70 85 97 108 103 93 90 105 105 113 106 93 93 91 87 88 95 110 107 117 114 107 99 106 106 101 88 78 74 66 68 73 76 96 102 76 44 19 16 15 8 1 0 0 0 0 1 1 1 0 0 0 0 0 0 2 0 0 0 0 0 0 0 0 0 0 0 0 0 0 0 0 0 0 0 0 0 0 0 0 0 0 0 0 0 0 0 
0 0 0 0 0 0 0 0 0 0 0 0 0 0 0 0 0 0 0 0 0 0 0 0 0 4 6 11 14 19 33 52 67 70 78 75 65 61 55 54 62 66 85 95 99 98 90 83 93 97 110 101 88 87 88 90 89 97 102 104 111 108 100 90 96 98 96 84 71 67 61 70 79 84 99 86 48 23 17 16 16 8 1 0 0 0 0 1 1 1 0 0 0 0 0 0 2 0 0 0 0 0 0 0 0 0 0 0 0 0 0 0 0 0 0 0 0 0 0 0 0 0 0 0 0 0 0 0 
0 0 0 0 0 0 0 0 0 0 0 0 0 0 0 0 0 0 0 0 0 0 0 0 0 3 5 8 14 17 20 31 41 45 73 75 69 67 54 53 57 63 78 82 86 94 90 83 89 97 111 106 93 89 92 94 94 98 98 101 105 98 93 87 92 89 85 78 69 65 60 73 81 88 98 43 17 17 18 18 16 7 0 0 0 0 0 1 1 1 1 0 0 0 0 0 2 0 0 0 0 0 0 0 0 0 0 0 0 0 0 0 0 0 0 0 0 0 0 0 0 0 0 0 0 0 0 0 
0 0 0 0 0 0 0 0 0 0 0 0 0 0 0 0 0 0 0 0 0 0 0 0 0 0 5 5 11 17 19 20 19 16 31 75 81 75 60 64 60 58 71 73 75 85 86 84 92 100 103 101 96 91 84 88 99 100 95 95 102 99 95 86 91 87 69 75 67 69 71 76 88 91 69 24 15 15 17 18 14 6 0 0 0 0 0 1 1 1 1 0 0 0 0 0 2 0 0 0 0 0 0 0 0 0 0 0 0 0 0 0 0 0 0 0 0 0 0 0 0 0 0 0 0 0 0 0 
0 0 0 0 0 0 0 0 0 0 0 0 0 0 0 0 0 0 0 0 0 0 0 0 0 0 2 5 8 14 18 19 18 16 14 39 75 79 71 73 66 60 69 73 78 82 79 83 100 108 97 95 96 93 87 87 98 102 94 89 97 100 104 96 91 86 76 82 71 73 84 85 89 75 35 19 14 15 17 17 12 6 1 0 0 0 0 1 1 1 1 0 0 0 0 0 2 0 0 0 0 0 0 0 0 0 0 0 0 0 0 0 0 0 0 0 0 0 0 0 0 0 0 0 0 0 0 0 
0 0 0 0 0 0 0 0 0 0 0 0 0 0 0 0 0 0 0 0 0 0 0 0 0 0 0 4 7 10 16 18 17 18 14 14 36 72 81 80 73 70 77 78 86 90 83 84 92 101 96 101 100 94 92 103 111 106 106 101 102 107 109 99 92 90 81 87 86 85 93 91 74 37 23 18 13 15 16 15 10 6 1 0 0 0 0 1 1 1 1 0 0 0 0 0 2 0 0 0 0 0 0 0 0 0 0 0 0 0 0 0 0 0 0 0 0 0 0 0 0 0 0 0 0 0 0 0 
0 0 0 0 0 0 0 0 0 0 0 0 0 0 0 0 0 0 0 0 0 0 0 0 0 0 0 2 5 7 11 17 18 17 15 13 18 33 62 76 82 84 85 84 96 97 89 87 89 101 102 101 99 94 96 109 111 107 109 108 100 101 104 104 98 99 98 97 96 92 89 69 36 26 23 17 14 15 15 13 10 6 1 0 0 0 0 1 1 1 1 0 0 0 0 0 1 0 0 0 0 0 0 0 0 0 0 0 0 0 0 0 0 0 0 0 0 0 0 0 0 0 0 0 0 0 0 0 
0 0 0 0 0 0 0 0 0 0 0 0 0 0 0 0 0 0 0 0 0 0 0 0 0 0 0 1 4 6 9 15 16 17 15 12 16 22 30 51 75 86 92 96 101 106 100 94 96 106 101 100 95 101 107 113 113 106 112 115 109 104 110 105 106 108 109 106 98 86 61 34 28 26 22 17 15 14 14 13 9 5 1 0 0 0 0 1 1 1 1 0 0 0 0 0 1 0 0 0 0 0 0 0 0 0 0 0 0 0 0 0 0 0 0 0 0 0 0 0 0 0 0 0 0 0 0 0 
0 0 0 0 0 0 0 0 0 0 0 0 0 0 0 0 0 0 0 0 0 0 0 0 0 0 0 0 1 7 7 13 15 17 16 12 13 21 25 27 37 59 80 92 104 110 108 105 103 108 109 105 102 103 100 104 104 106 108 112 111 107 112 111 108 108 110 105 80 50 31 28 28 24 21 17 13 14 14 13 9 5 1 0 0 0 0 1 1 1 1 0 0 0 0 0 1 0 0 0 0 0 0 0 0 0 0 0 0 0 0 0 0 0 0 0 0 0 0 0 0 0 0 0 0 0 0 0 
0 0 0 0 0 0 0 0 0 0 0 0 0 0 0 0 0 0 0 0 0 0 0 0 0 0 0 0 0 7 6 10 14 17 16 13 13 19 25 28 31 33 42 60 83 93 98 95 94 103 111 107 101 100 99 101 100 106 110 101 108 112 117 109 108 98 85 63 44 38 30 27 26 23 17 16 13 14 14 12 9 4 1 0 0 0 0 1 1 1 1 0 0 0 0 0 1 0 0 0 0 0 0 0 0 0 0 0 0 0 0 0 0 0 0 0 0 0 0 0 0 0 0 0 0 0 0 0 
0 0 0 0 0 0 0 0 0 0 0 0 0 0 0 0 0 0 0 0 0 0 0 0 0 0 0 0 0 4 6 8 14 15 16 14 13 19 26 28 30 32 32 37 49 68 80 86 86 92 100 100 98 99 102 104 104 106 113 106 111 105 107 97 89 69 52 47 42 37 28 28 26 22 18 14 15 14 14 12 9 3 1 0 0 0 0 0 1 1 1 0 0 0 0 0 1 0 0 0 0 0 0 0 0 0 0 0 0 0 0 0 0 0 0 0 0 0 0 0 0 0 0 0 0 0 0 0 
