P2
128 99
217
0 0 0 0 0 0 0 0 0 0 0 0 0 0 0 0 0 0 0 0 0 0 0 0 0 0 0 0 0 0 0 0 0 0 0 0 0 0 0 0 0 0 0 0 0 0 0 0 0 0 0 0 0 0 0 0 0 0 0 0 0 0 0 0 0 0 0 0 0 0 0 0 0 0 0 0 0 0 0 0 0 0 0 0 0 0 0 0 0 0 0 0 0 0 0 0 0 0 0 0 0 0 0 0 0 0 0 0 0 0 0 0 0 0 0 0 0 0 0 0 0 0 0 0 0 0 0 0 
0 0 0 0 0 0 0 0 0 0 0 0 0 0 0 0 0 0 0 0 0 0 0 0 0 0 0 0 0 0 0 0 0 0 0 0 0 0 0 0 0 0 0 0 0 0 0 0 0 0 0 0 0 0 0 0 0 0 0 0 0 1 1 1 1 1 0 0 0 0 0 0 0 0 0 0 0 0 0 0 0 0 0 0 0 0 0 0 0 0 0 0 0 0 0 0 0 0 0 0 0 0 0 0 0 0 0 0 0 0 0 0 0 0 0 0 0 0 0 0 0 0 0 0 0 0 0 0 
0 0 0 0 0 0 0 0 0 0 0 0 0 0 0 0 0 0 0 0 0 0 0 0 0 0 0 0 0 0 0 0 0 0 0 0 0 0 0 0 0 0 0 0 0 0 0 0 0 0 0 1 1 3 0 0 0 0 0 0 0 1 1 1 1 1 1 0 0 0 0 0 0 0 0 0 0 0 0 0 0 0 0 0 0 0 0 0 0 0 0 0 0 0 0 0 0 0 0 0 0 0 0 0 0 0 0 0 0 0 0 0 0 0 0 0 0 0 0 0 0 0 0 0 0 0 0 0 
0 0 0 0 0 0 0 0 0 0 0 0 0 0 0 0 0 0 0 0 0 0 0 0 0 0 0 0 0 0 0 0 0 0 0 0 0 0 0 0 0 0 0 0 7 12 14 18 19 22 27 31 34 34 31 23 20 17 12 12 4 0 1 1 1 1 0 0 0 0 0 0 0 0 0 0 0 0 0 0 0 0 0 0 0 0 0 0 0 0 0 0 0 0 0 0 0 0 0 0 0 0 0 0 0 0 0 0 0 0 0 0 0 0 0 0 0 0 0 0 0 0 0 0 0 0 0 0 
0 0 0 0 0 0 0 0 0 0 0 0 0 0 0 0 0 0 0 0 0 0 0 0 0 0 0 0 0 0 0 0 0 0 0 0 0 0 0 0 6 12 19 23 24 36 53 72 93 111 123 133 140 142 139 129 113 94 71 49 32 23 15 12 1 1 0 0 0 0 0 0 0 0 0 0 0 0 0 0 0 0 0 0 0 0 0 0 0 0 0 0 0 0 0 0 0 0 0 0 0 0 0 0 0 0 0 0 0 0 0 0 0 0 0 0 0 0 0 0 0 0 0 0 0 0 0 0 
0 0 0 0 0 0 0 0 0 0 0 0 0 0 0 0 0 0 0 0 0 0 0 0 0 0 0 0 0 0 0 0 0 0 0 0 0 0 11 17 23 22 39 66 103 133 153 169 178 181 178 171 165 162 162 163 165 169 172 166 144 106 70 41 26 16 14 1 0 0 0 0 0 0 0 0 0 0 0 0 0 0 0 0 0 0 0 0 0 0 0 0 0 0 0 0 0 0 0 0 0 0 0 0 0 0 0 0 0 0 0 0 0 0 0 0 0 0 0 0 0 0 0 0 0 0 0 0 
0 0 0 0 0 0 0 0 0 0 0 0 0 0 0 0 0 0 0 0 0 0 0 0 0 0 0 0 0 0 0 0 0 0 0 0 10 21 23 24 56 96 131 155 176 185 179 166 165 169 176 179 180 180 181 179 174 166 159 154 156 167 170 150 112 71 43 18 15 1 0 0 0 0 0 0 0 0 0 0 0 0 0 0 0 0 0 0 0 0 0 0 0 0 0 0 0 0 0 0 0 0 0 0 0 0 0 0 0 0 0 0 0 0 0 0 0 0 0 0 0 0 0 0 0 0 0 0 
0 0 0 0 0 0 0 0 0 0 0 0 0 0 0 0 0 0 0 0 0 0 0 0 0 0 0 0 0 0 0 0 0 0 10 24 21 27 66 115 143 167 181 180 166 162 164 165 165 159 158 163 162 148 146 160 178 187 188 185 176 163 154 158 171 168 139 88 48 23 14 1 0 0 0 0 0 0 0 0 0 0 0 0 0 0 0 0 0 0 0 0 0 0 0 0 0 0 0 0 0 0 0 0 0 0 0 0 0 0 0 0 0 0 0 0 0 0 0 0 0 0 0 0 0 0 0 0 
0 0 0 0 0 0 0 0 0 0 0 0 0 0 0 0 0 0 0 0 0 0 0 0 0 0 0 0 0 0 0 0 7 25 25 24 61 119 148 168 178 166 155 164 174 169 159 140 130 123 127 132 132 128 126 123 130 152 171 179 180 182 185 175 161 153 166 174 145 91 43 21 10 0 0 0 0 0 0 0 0 0 0 0 0 0 0 0 0 0 0 0 0 0 0 0 0 0 0 0 0 0 0 0 0 0 0 0 0 0 0 0 0 0 0 0 0 0 0 0 0 0 0 0 0 0 0 0 
0 0 0 0 0 0 0 0 0 0 0 0 0 0 0 0 0 0 0 0 0 0 0 0 0 0 0 0 0 0 1 23 27 21 44 105 146 164 178 164 154 169 181 168 156 155 149 143 144 156 169 178 177 176 181 178 170 167 167 174 181 179 178 179 182 180 168 158 165 173 135 69 29 18 1 0 0 0 0 0 0 0 0 0 0 0 0 0 0 0 0 0 0 0 0 0 0 0 0 0 0 0 0 0 0 0 0 0 0 0 0 0 0 0 0 0 0 0 0 0 0 0 0 0 0 0 0 0 
0 0 0 0 0 0 0 0 0 0 0 0 0 0 0 0 0 0 0 0 0 0 0 0 0 0 0 0 0 9 27 20 27 83 142 163 175 165 156 170 186 177 149 145 152 163 173 175 175 155 132 130 127 127 133 149 161 169 176 185 198 199 197 190 180 177 180 182 171 160 172 166 106 41 21 5 0 0 0 0 0 0 0 0 0 0 0 0 0 0 0 0 0 0 0 0 0 0 0 0 0 0 0 0 0 0 0 0 0 0 0 0 0 0 0 0 0 0 0 0 0 0 0 0 0 0 0 0 
0 0 0 0 0 0 0 0 0 0 0 0 0 0 0 0 0 0 0 0 0 0 0 0 0 0 0 0 22 23 14 51 125 156 173 174 160 172 189 183 160 151 164 175 181 173 160 154 149 135 128 121 119 123 128 137 138 132 135 147 165 178 195 211 213 201 184 174 175 180 172 163 174 141 64 23 12 0 0 0 0 0 0 0 0 0 0 0 0 0 0 0 0 0 0 0 0 0 0 0 0 0 0 0 0 0 0 0 0 0 0 0 0 0 0 0 0 0 0 0 0 0 0 0 0 0 0 0 
0 0 0 0 0 0 0 0 0 0 0 0 0 0 0 0 0 0 0 0 0 0 0 0 0 0 5 25 18 18 83 143 162 176 166 173 190 188 171 162 172 181 165 146 127 117 119 125 131 133 131 131 130 128 130 127 130 127 124 120 126 140 151 165 184 207 215 206 187 178 179 178 163 167 155 80 25 13 0 0 0 0 0 0 0 0 0 0 0 0 0 0 0 0 0 0 0 0 0 0 0 0 0 0 0 0 0 0 0 0 0 0 0 0 0 0 0 0 0 0 0 0 0 0 0 0 0 0 
0 0 0 0 0 0 0 0 0 0 0 0 0 0 0 0 0 0 0 0 0 0 0 0 0 11 24 16 31 102 146 167 176 169 187 192 180 169 179 182 173 153 138 126 124 131 134 135 128 124 107 113 107 107 113 119 133 138 143 143 140 144 149 140 141 158 180 206 217 204 182 174 177 165 166 161 90 27 13 0 0 0 0 0 0 0 0 0 0 0 0 0 0 0 0 0 0 0 0 0 0 0 0 0 0 0 0 0 0 0 0 0 0 0 0 0 0 0 0 0 0 0 0 0 0 0 0 0 
0 0 0 0 0 0 0 0 0 0 0 0 0 0 0 0 0 0 0 0 0 0 0 0 14 22 15 37 115 151 170 172 176 192 189 175 172 181 175 162 146 132 127 131 135 140 130 124 121 111 108 107 104 103 104 105 115 129 134 133 134 138 154 167 154 142 141 152 175 208 212 192 179 175 168 166 162 98 32 13 0 0 0 0 0 0 0 0 0 0 0 0 0 0 0 0 0 0 0 0 0 0 0 0 0 0 0 0 0 0 0 0 0 0 0 0 0 0 0 0 0 0 0 0 0 0 0 0 
0 0 0 0 0 0 0 0 0 0 0 0 0 0 0 0 0 0 0 0 0 0 4 19 20 13 44 122 152 177 175 185 192 180 163 174 180 170 155 138 127 131 136 135 134 122 105 102 101 101 99 100 94 92 95 95 97 103 114 122 125 125 136 150 168 171 155 137 135 154 190 207 197 180 170 165 167 163 109 40 14 0 0 0 0 0 0 0 0 0 0 0 0 0 0 0 0 0 0 0 0 0 0 0 0 0 0 0 0 0 0 0 0 0 0 0 0 0 0 0 0 0 0 0 0 0 0 0 
0 0 0 0 0 0 0 0 0 0 0 0 0 0 0 0 0 0 0 0 0 6 15 18 15 57 131 150 179 173 185 188 164 149 172 178 167 142 129 133 137 132 129 126 115 101 102 101 102 101 103 105 103 102 101 101 102 103 100 97 95 95 106 121 131 154 169 162 145 131 142 174 198 192 182 176 167 168 158 110 41 10 0 0 0 0 0 0 0 0 0 0 0 0 0 0 0 0 0 0 0 0 0 0 0 0 0 0 0 0 0 0 0 0 0 0 0 0 0 0 0 0 0 0 0 0 0 0 
0 0 0 0 0 0 0 0 0 0 0 0 0 0 0 0 0 0 0 0 7 15 15 17 71 137 152 175 177 184 182 154 145 176 178 155 132 126 130 127 123 122 116 103 89 88 89 95 91 87 101 102 101 102 96 95 98 106 105 104 102 99 96 103 113 122 139 153 160 150 129 135 165 186 184 181 174 163 165 154 116 39 7 0 0 0 0 0 0 0 0 0 0 0 0 0 0 0 0 0 0 0 0 0 0 0 0 0 0 0 0 0 0 0 0 0 0 0 0 0 0 0 0 0 0 0 0 0 
0 0 0 0 0 0 0 0 0 0 0 0 0 0 0 0 0 0 0 6 13 15 18 78 138 146 171 180 183 174 143 146 180 171 146 124 118 124 123 114 106 104 100 88 83 81 80 83 82 80 83 71 72 87 83 86 91 100 106 111 111 106 100 99 95 93 103 121 146 159 153 132 125 161 184 177 182 176 162 168 154 116 31 1 0 0 0 0 0 0 0 0 0 0 0 0 0 0 0 0 0 0 0 0 0 0 0 0 0 0 0 0 0 0 0 0 0 0 0 0 0 0 0 0 0 0 0 0 
0 0 0 0 0 0 0 0 0 0 0 0 0 0 0 0 0 0 5 14 16 20 81 143 145 167 184 180 169 133 146 178 168 143 116 112 123 118 104 97 97 92 86 82 80 78 77 78 80 82 77 61 73 97 98 101 105 106 109 117 120 121 114 103 97 93 90 96 116 140 155 150 130 129 163 176 170 188 179 160 172 147 102 18 1 0 0 0 0 0 0 0 0 0 0 0 0 0 0 0 0 0 0 0 0 0 0 0 0 0 0 0 0 0 0 0 0 0 0 0 0 0 0 0 0 0 0 0 
0 0 0 0 0 0 0 0 0 0 0 0 0 0 0 0 0 2 14 11 17 78 139 144 157 190 179 167 135 145 176 162 142 115 108 117 105 99 98 101 93 90 94 95 86 85 90 91 89 81 74 81 93 116 125 125 123 122 122 126 127 123 125 121 108 96 95 95 105 118 134 145 145 130 134 167 165 167 190 171 168 162 137 77 9 0 0 0 0 0 0 0 0 0 0 0 0 0 0 0 0 0 0 0 0 0 0 0 0 0 0 0 0 0 0 0 0 0 0 0 0 0 0 0 0 0 0 0 
0 0 0 0 0 0 0 0 0 0 0 0 0 0 0 0 0 12 8 15 70 130 138 146 184 177 167 134 144 176 165 143 119 104 103 94 101 110 115 110 106 109 109 106 108 108 107 112 111 113 118 125 130 136 144 146 146 143 136 128 119 111 108 114 111 103 100 95 96 107 120 127 136 144 132 142 169 153 171 187 163 171 150 131 48 2 0 0 0 0 0 0 0 0 0 0 0 0 0 0 0 0 0 0 0 0 0 0 0 0 0 0 0 0 0 0 0 0 0 0 0 0 0 0 0 0 0 0 
0 0 0 0 0 0 0 0 0 0 0 0 0 0 0 0 6 10 11 55 120 137 143 179 182 160 138 140 167 161 138 116 97 97 98 108 124 126 121 117 114 112 108 111 116 124 134 140 147 152 150 150 151 154 153 151 154 150 145 136 126 115 105 101 105 107 103 105 97 95 102 116 120 127 139 136 149 162 145 180 179 169 166 141 107 21 1 0 0 0 0 0 0 0 0 0 0 0 0 0 0 0 0 0 0 0 0 0 0 0 0 0 0 0 0 0 0 0 0 0 0 0 0 0 0 0 0 0 
0 0 0 0 0 0 0 0 0 0 0 0 0 0 0 2 12 7 42 108 140 135 168 186 159 142 133 156 164 136 113 100 98 104 120 133 130 121 109 98 97 99 107 117 131 143 148 152 154 148 139 141 146 146 144 140 150 149 152 152 147 137 119 104 101 104 108 107 107 99 97 99 104 112 130 140 145 160 145 146 183 170 173 151 137 73 4 0 0 0 0 0 0 0 0 0 0 0 0 0 0 0 0 0 0 0 0 0 0 2 0 0 0 0 0 0 0 0 0 0 0 0 0 0 0 0 0 0 
0 0 0 0 0 0 0 0 0 0 0 0 0 0 0 9 8 24 91 127 131 155 180 173 143 131 138 164 143 113 104 101 111 122 138 129 119 106 91 88 93 109 126 136 141 145 146 138 139 141 133 130 131 133 137 136 140 140 145 155 157 152 139 119 101 98 106 111 115 102 93 96 101 102 110 133 143 149 152 125 156 174 173 158 143 116 32 0 0 0 0 0 0 0 0 0 0 0 0 0 0 0 0 0 0 0 0 0 0 2 0 0 0 0 0 0 0 0 0 0 0 0 0 0 0 0 0 0 
0 0 0 0 0 0 0 0 0 0 0 0 0 0 4 8 9 72 115 133 137 169 176 148 134 124 160 158 118 106 109 114 126 136 127 112 101 89 85 87 107 129 146 148 146 138 130 123 125 136 132 135 132 135 137 138 141 143 147 152 154 158 156 146 121 103 101 106 112 113 97 94 99 101 102 113 138 149 159 120 127 163 173 162 146 135 71 4 0 0 0 0 0 0 0 0 0 0 0 0 0 0 0 0 0 0 0 0 0 1 0 0 0 0 0 0 0 0 0 0 0 0 0 0 0 0 0 0 
0 0 0 0 0 0 0 0 0 0 0 0 0 0 7 7 45 98 121 133 162 171 159 134 129 137 167 132 97 106 119 128 137 127 109 89 84 87 93 107 131 149 152 146 143 142 136 132 130 139 139 142 140 139 132 141 147 144 141 143 145 156 157 153 146 122 100 94 105 116 108 101 98 96 104 108 119 141 159 122 117 149 168 169 150 144 100 19 0 0 0 0 0 0 0 0 0 0 0 0 0 0 0 0 0 0 0 0 0 1 0 0 0 0 0 0 0 0 0 0 0 0 0 0 0 0 0 0 
0 0 0 0 0 0 0 0 0 0 0 0 0 1 7 17 83 111 130 143 168 158 137 133 133 146 148 97 98 114 129 134 122 111 94 84 89 97 112 138 152 154 152 144 139 142 143 140 142 142 140 138 132 129 124 127 126 133 144 149 144 145 153 153 151 145 123 99 96 106 111 105 104 93 104 118 105 120 158 138 109 141 157 175 151 144 115 39 1 0 0 0 0 0 0 0 0 0 0 0 0 0 0 0 0 0 0 0 0 1 0 0 0 0 0 0 0 0 0 0 0 0 0 0 0 0 0 0 
0 0 0 0 0 0 0 0 0 0 0 0 0 2 5 41 98 121 136 156 161 150 128 140 129 143 124 95 102 121 136 125 111 101 85 90 99 114 138 150 150 146 144 139 134 136 140 136 138 135 128 125 123 113 106 96 104 113 128 132 129 131 141 146 143 149 146 121 101 98 106 109 110 97 99 121 113 103 144 151 113 132 148 176 155 141 127 56 3 0 0 0 0 0 0 0 0 0 0 0 0 0 0 0 0 0 0 0 0 1 0 0 0 0 0 0 0 0 0 0 0 0 0 0 0 0 0 0 
0 0 0 0 0 0 0 0 0 0 0 0 0 4 7 64 110 126 146 160 146 130 134 141 127 127 109 97 105 132 132 114 109 91 87 101 116 140 153 146 135 135 130 125 116 113 121 130 134 123 118 122 112 109 102 92 98 102 102 102 109 119 127 141 142 142 151 149 122 102 102 103 112 100 99 115 122 96 125 155 116 123 140 177 159 142 142 75 6 0 0 0 0 0 0 0 0 0 0 0 0 0 0 0 0 0 0 0 0 2 0 0 0 0 0 0 0 0 0 0 0 0 0 0 0 0 0 0 
0 0 0 0 0 0 0 0 0 0 0 0 0 5 17 84 116 133 156 153 123 124 142 133 108 118 102 101 111 135 118 106 98 82 95 120 146 160 148 133 123 94 87 96 103 105 104 112 119 109 109 122 111 112 104 91 91 95 101 102 99 103 113 128 138 134 140 149 146 122 103 103 112 105 98 107 117 93 107 154 126 123 133 171 163 144 146 92 12 0 0 0 0 0 0 0 0 0 0 0 0 0 0 0 0 0 0 0 0 2 0 0 0 0 0 0 0 0 0 0 0 0 0 0 0 0 0 0 
0 0 0 0 0 0 0 0 0 0 0 0 2 4 34 101 118 148 156 137 109 136 146 119 94 114 100 109 128 128 110 104 92 90 114 148 162 150 131 101 71 64 60 64 84 103 98 88 86 88 97 106 112 113 102 86 86 91 98 115 119 111 103 109 127 130 127 134 148 146 121 103 108 106 100 100 108 88 101 138 126 122 135 163 167 146 145 107 19 0 0 0 0 0 0 0 0 0 0 0 0 0 0 0 0 0 0 0 0 2 0 0 0 0 0 0 0 0 0 0 0 0 0 0 0 0 0 0 
0 0 0 0 0 0 0 0 0 0 0 0 3 7 51 109 117 155 147 127 111 147 144 100 91 112 100 122 132 117 106 99 91 112 144 164 153 130 97 62 59 57 55 57 71 108 94 74 75 87 101 105 120 118 108 102 107 111 114 109 84 83 74 81 100 114 117 131 141 156 150 119 108 109 98 92 96 90 99 124 122 119 129 154 170 153 144 121 27 0 0 0 0 0 0 0 0 0 0 0 0 0 0 0 0 0 0 0 0 3 0 0 0 0 0 0 0 0 0 0 0 0 0 0 0 0 0 0 
0 0 0 0 0 0 0 0 0 0 0 0 3 8 63 112 126 157 140 120 115 146 132 89 94 108 105 126 126 113 106 92 106 144 163 156 132 107 69 54 54 55 56 56 57 86 98 88 89 104 121 122 131 132 125 125 128 133 125 84 59 60 64 68 86 104 107 115 132 141 157 151 124 113 95 90 88 81 99 118 121 124 128 153 173 157 140 129 34 1 0 0 0 0 0 0 0 0 0 0 0 0 0 0 0 0 0 0 0 2 0 0 0 0 0 0 0 0 0 0 0 0 0 0 0 0 0 0 
0 0 0 0 0 0 0 0 0 0 0 0 2 9 68 112 133 148 140 117 122 146 123 94 95 108 114 123 119 113 102 100 138 161 157 138 106 89 81 55 55 56 54 57 57 58 82 102 106 121 134 132 129 130 128 130 124 132 126 82 64 60 61 62 75 96 110 124 125 130 143 157 155 133 100 95 85 78 99 104 117 135 130 151 176 157 142 136 44 2 0 0 0 0 0 0 0 0 0 0 0 0 0 0 0 0 0 0 0 1 0 0 0 0 0 0 0 0 0 0 0 0 0 0 0 0 0 0 
0 0 0 0 0 0 0 0 0 0 0 0 4 9 75 115 144 148 141 117 138 141 118 99 96 114 120 116 113 113 108 131 157 158 143 125 95 75 71 75 79 76 56 55 56 59 63 85 110 126 133 129 113 114 121 118 103 111 114 80 67 63 61 61 72 102 123 117 119 127 139 145 164 167 124 99 83 86 99 95 116 143 129 151 180 161 144 139 52 3 0 0 0 0 0 0 0 0 0 0 0 0 0 0 0 0 0 0 0 0 0 0 0 0 0 0 0 0 0 0 0 0 0 0 0 0 0 0 
0 0 0 0 0 0 0 0 0 0 0 0 4 10 80 118 153 153 143 125 152 135 114 98 95 119 122 109 107 111 134 158 157 144 137 104 69 54 53 55 58 68 62 55 57 59 65 74 105 123 128 128 118 107 110 80 67 80 90 81 67 61 61 72 76 88 106 114 111 105 105 127 162 178 171 125 87 95 99 90 122 146 121 146 179 167 150 141 74 4 0 0 0 0 0 0 0 0 0 0 0 0 0 0 0 0 0 0 0 0 0 0 0 0 0 0 0 0 0 0 0 0 0 0 0 0 0 0 
0 0 0 0 0 0 0 0 0 0 0 0 5 12 81 125 156 153 142 130 157 136 110 102 93 121 123 103 104 126 156 155 153 140 106 88 71 57 56 64 68 64 57 62 74 69 62 71 82 91 96 114 125 109 90 67 71 78 84 71 62 66 78 76 83 97 116 121 117 114 113 107 124 159 178 168 121 99 99 89 123 143 120 151 176 163 152 140 93 6 0 0 0 0 0 0 0 0 0 0 0 0 0 0 0 0 0 0 0 0 0 0 0 0 0 0 0 0 0 0 0 0 0 0 0 0 0 0 
0 0 0 0 0 0 0 0 0 0 0 0 6 15 84 133 159 149 141 131 155 138 110 118 95 125 130 103 109 153 162 148 145 114 106 96 81 74 73 79 79 78 67 63 63 76 69 72 81 96 100 100 116 114 89 83 84 86 73 63 68 74 70 69 72 85 102 107 110 107 105 100 102 114 160 180 164 126 99 95 129 138 114 145 168 164 153 138 106 10 0 0 0 0 0 0 0 0 0 0 0 0 0 0 0 0 0 0 0 0 0 0 0 0 0 0 0 0 0 0 0 0 0 0 0 0 0 0 
0 0 0 0 0 0 0 0 0 0 0 0 6 18 86 138 156 143 137 124 153 138 101 116 103 125 140 112 124 164 164 159 124 115 107 79 62 62 61 63 68 68 71 76 79 75 80 80 85 101 110 105 120 119 104 98 97 89 69 68 76 66 59 63 64 75 96 104 103 106 104 101 104 117 137 174 175 142 100 104 127 130 112 140 163 163 156 137 114 15 0 0 0 0 0 0 0 0 0 0 0 0 0 0 0 0 0 0 0 0 0 0 0 0 0 0 0 0 0 0 0 0 0 0 0 0 0 0 
0 0 0 0 0 0 0 0 0 0 0 0 6 18 87 143 152 151 130 115 154 142 98 110 104 120 142 130 154 159 166 139 115 113 93 67 57 54 56 58 61 58 65 70 83 88 90 92 90 101 114 117 133 122 123 108 105 88 73 93 72 58 59 65 64 72 101 117 114 117 123 120 115 124 139 150 157 133 102 107 130 125 112 134 159 157 157 138 125 22 0 0 0 0 0 0 0 0 0 0 0 0 0 0 0 0 0 0 0 0 0 0 0 0 0 0 0 0 0 0 0 0 0 0 0 0 0 0 
0 0 0 0 0 0 0 0 0 0 0 0 7 17 87 149 150 144 109 110 155 138 103 106 103 117 137 131 164 166 166 134 130 118 98 69 57 54 57 61 61 61 68 76 83 94 98 98 86 93 106 118 124 109 127 114 105 89 89 92 67 60 61 66 80 96 112 122 119 120 120 117 109 127 143 135 118 107 99 106 130 121 106 121 149 150 157 142 132 33 1 0 0 0 0 0 0 0 0 0 0 0 0 0 0 0 0 0 0 0 0 0 0 0 0 0 0 0 0 0 0 0 0 0 0 0 0 0 
0 0 0 0 0 0 0 0 0 0 0 0 7 18 88 152 146 147 108 113 156 129 108 101 106 118 124 136 161 168 145 119 126 120 100 79 77 80 77 73 70 71 77 82 86 89 96 99 81 92 105 102 98 103 110 113 106 103 98 84 64 64 76 91 92 90 101 120 125 123 124 117 112 126 141 133 101 84 91 104 128 115 95 115 141 139 146 142 133 41 1 0 0 0 0 0 0 0 0 0 0 0 0 0 0 0 0 0 0 0 0 0 0 0 0 0 0 0 0 0 0 0 0 0 0 0 0 0 
0 0 0 0 0 0 0 0 0 0 0 0 7 19 94 155 145 149 107 115 153 125 102 87 100 113 118 135 149 158 130 128 132 124 93 78 82 87 91 87 89 88 90 89 87 87 84 91 86 88 104 98 90 99 101 123 118 111 100 76 69 86 90 76 78 88 102 120 129 127 123 119 118 127 138 134 95 75 83 100 124 113 85 108 140 126 148 144 132 49 2 0 0 0 0 0 0 0 0 0 0 0 0 0 0 0 0 0 0 0 0 0 0 0 0 0 0 0 0 0 0 0 0 0 0 0 0 0 
0 0 0 0 0 0 0 0 0 0 0 0 7 18 96 153 143 147 107 111 147 119 82 82 95 106 110 130 146 143 125 129 122 108 82 68 71 86 93 92 88 99 109 104 89 84 82 80 84 83 104 96 107 130 127 135 117 108 98 81 93 82 65 58 60 75 103 119 127 126 125 121 119 123 135 126 90 74 81 105 133 112 85 96 133 113 141 145 133 55 2 0 0 0 0 0 0 0 0 0 0 0 0 0 0 0 0 0 0 0 0 0 0 0 0 0 0 0 0 0 0 0 0 0 0 0 0 0 
0 0 0 0 0 0 0 0 0 0 0 0 8 19 94 151 143 145 96 95 148 107 69 83 94 92 99 125 151 144 125 127 126 110 88 68 65 76 92 89 72 79 91 99 102 98 89 78 72 87 104 110 114 88 94 99 137 124 112 98 78 65 58 50 55 70 100 118 127 126 121 121 118 124 134 114 85 74 79 116 148 112 86 98 130 110 122 139 132 55 3 0 0 0 0 0 0 0 0 0 0 0 0 0 0 0 0 0 0 0 0 0 0 0 0 0 0 0 0 0 0 0 0 0 0 0 0 0 
0 0 0 0 0 0 0 0 0 0 0 0 8 15 87 148 144 143 97 95 143 93 70 84 91 79 94 112 145 150 131 123 125 106 84 65 64 70 82 88 80 79 85 88 89 96 97 77 73 89 110 125 98 95 88 85 110 115 96 92 74 67 56 53 57 71 94 112 122 125 123 122 118 127 131 111 88 81 94 121 154 111 85 96 122 109 120 141 132 53 3 0 0 0 0 0 0 0 0 0 0 0 0 0 0 0 0 0 0 0 0 0 0 0 0 0 0 0 0 0 0 0 0 0 0 0 0 0 
0 0 0 0 0 0 0 0 0 0 0 0 6 13 81 146 145 135 102 98 143 101 72 88 92 82 86 104 137 165 144 118 121 106 79 64 57 61 71 94 93 85 83 83 85 83 92 68 72 79 85 106 78 75 87 83 89 125 85 93 83 68 56 53 61 69 90 109 123 126 126 123 120 126 120 107 98 98 95 123 156 112 89 97 118 109 125 145 127 48 2 0 0 0 0 0 0 0 0 0 0 0 0 0 0 0 0 0 0 0 0 0 0 0 0 0 0 0 0 0 0 0 0 0 0 0 0 0 
0 0 0 0 0 0 0 0 0 0 0 0 6 13 74 145 145 128 105 96 132 106 73 84 87 80 78 94 136 179 167 132 119 113 86 66 56 57 72 91 99 89 85 80 87 85 86 66 72 83 101 83 74 74 90 88 89 117 100 87 78 65 59 56 57 66 90 114 126 127 127 125 122 121 101 102 108 99 96 126 152 109 88 96 112 108 126 137 121 44 2 0 0 0 0 0 0 0 0 0 0 0 0 0 0 0 0 0 0 0 0 0 0 0 0 0 0 0 0 0 0 0 0 0 0 0 0 0 
0 0 0 0 0 0 0 0 0 0 0 0 5 13 66 137 144 123 106 98 122 112 75 75 84 75 69 87 135 184 185 144 126 130 106 84 70 75 84 95 99 93 88 84 84 77 77 64 72 88 100 72 84 85 96 82 85 102 117 94 75 65 61 62 59 73 96 118 128 121 129 126 119 106 84 92 93 97 101 121 144 105 91 102 107 101 125 131 119 40 2 0 0 0 0 0 0 0 0 0 0 0 0 0 0 0 0 0 0 0 0 0 0 0 0 0 0 0 0 0 0 0 0 0 0 0 0 0 
0 0 0 0 0 0 0 0 0 0 0 0 2 12 59 129 142 128 110 95 118 111 78 76 89 73 65 81 139 183 191 145 125 126 113 90 78 82 87 97 104 92 84 84 76 78 82 67 70 95 94 71 85 92 102 84 84 85 127 99 94 71 57 57 63 85 94 111 120 119 129 124 116 96 72 84 83 99 106 111 134 105 93 107 98 97 124 129 106 33 1 0 0 0 0 0 0 0 0 0 0 0 0 0 0 0 0 0 0 0 0 0 0 0 0 0 0 0 0 0 0 0 0 0 0 0 0 0 
0 0 0 0 0 0 0 0 0 5 4 0 0 11 53 122 136 129 114 95 117 111 85 78 91 76 63 77 145 173 185 143 121 118 115 93 80 80 89 99 108 102 84 80 80 100 83 76 83 102 87 73 86 101 100 85 82 87 111 111 104 99 74 58 68 79 94 115 117 119 120 119 119 81 62 75 88 129 134 106 125 104 95 108 86 103 120 130 91 29 2 0 0 0 0 0 0 0 0 0 0 0 0 0 0 0 0 0 0 0 0 0 0 0 0 0 0 0 0 0 0 0 0 0 0 0 0 0 
0 0 0 0 0 0 0 0 0 0 9 4 0 11 46 113 141 134 114 97 106 116 92 77 89 84 69 74 149 150 169 151 123 119 109 94 77 82 90 98 105 105 86 80 96 102 111 93 90 108 94 84 97 98 93 94 91 85 104 117 107 123 104 87 74 78 100 117 119 117 115 120 117 66 57 82 131 154 152 128 128 112 103 111 76 107 118 136 80 27 2 0 0 0 0 0 0 0 0 0 0 0 0 0 0 0 0 0 0 0 0 0 0 0 0 0 0 0 0 0 0 0 0 0 0 0 0 0 
0 0 0 0 0 0 0 0 0 3 10 10 5 9 38 101 140 132 105 99 99 116 105 83 87 88 73 75 147 134 145 157 129 121 105 84 73 79 86 92 100 102 88 97 123 108 92 82 100 107 89 87 94 89 89 92 108 98 96 122 108 107 92 85 94 110 124 122 121 120 115 123 95 49 58 115 134 118 137 148 123 127 122 94 72 113 121 136 71 25 1 0 0 0 0 0 0 0 0 0 0 0 0 0 0 0 0 0 0 0 0 0 0 0 0 0 0 0 0 0 0 0 0 0 0 0 0 0 
0 0 0 0 0 0 0 0 0 2 7 4 1 11 33 88 141 132 102 106 88 117 116 89 83 91 80 74 141 143 134 124 121 110 105 85 66 70 81 89 107 116 107 96 113 105 85 89 106 102 75 90 88 88 96 93 101 102 107 119 129 109 97 78 83 119 161 157 148 139 128 123 86 69 93 112 101 101 128 161 122 143 119 73 86 118 135 121 60 17 2 0 1 6 2 0 0 0 0 0 0 0 0 0 0 0 0 0 0 0 0 0 0 0 0 0 0 0 0 0 0 0 0 0 0 0 0 0 
0 0 0 0 0 0 0 0 0 0 4 5 0 7 27 76 139 137 102 111 98 105 118 93 81 91 85 84 129 132 116 110 110 118 113 106 92 94 105 111 114 106 88 85 101 112 102 94 108 98 80 91 92 99 97 88 86 85 99 134 146 109 89 77 87 125 162 166 161 152 148 136 114 117 138 137 120 102 130 160 125 148 101 72 98 121 144 105 59 14 7 6 8 2 0 0 0 0 0 0 0 0 0 0 0 0 0 0 0 0 0 0 0 0 0 0 0 0 0 0 0 0 0 0 0 0 0 0 
0 0 0 0 0 0 0 0 0 0 0 6 0 5 22 67 132 141 108 102 104 92 121 105 90 98 86 110 122 116 113 116 121 137 138 126 111 102 96 95 106 111 90 96 90 92 95 98 106 99 86 95 85 102 102 84 78 81 92 135 133 94 84 87 101 140 154 157 146 138 147 120 90 100 138 125 132 127 168 160 130 149 100 85 134 135 133 86 55 11 2 0 2 6 0 0 0 0 0 0 0 0 0 0 0 0 0 0 0 0 0 0 0 0 0 0 0 0 0 0 0 0 0 0 0 0 0 0 
0 0 0 0 0 0 0 0 0 0 0 7 2 7 15 54 121 142 120 96 105 93 117 129 115 98 92 126 124 111 117 122 135 147 143 143 132 118 109 109 117 115 98 77 67 76 78 74 95 85 84 87 82 98 87 67 70 80 93 117 102 81 91 117 136 154 150 141 131 141 167 120 100 113 133 138 134 143 182 174 144 159 125 125 165 136 117 71 43 7 0 0 2 3 0 0 0 0 0 0 0 0 0 0 0 0 0 0 0 0 0 0 0 0 0 0 0 0 0 0 0 0 0 0 0 0 0 0 
0 0 0 0 0 0 0 0 0 0 0 7 7 10 14 42 111 140 124 106 101 109 123 141 139 109 111 145 121 103 121 141 161 163 152 143 136 111 93 84 81 94 93 71 62 60 70 81 86 68 87 97 72 81 68 62 69 75 81 93 93 74 79 100 134 145 150 155 140 150 146 120 120 112 113 119 112 142 169 178 151 152 166 171 181 145 132 76 24 4 1 0 2 0 0 0 0 0 0 0 0 0 0 0 0 0 0 0 0 0 0 0 0 0 0 0 0 0 0 0 0 0 0 0 0 0 0 0 
0 0 0 0 0 0 0 0 0 0 1 8 13 11 8 30 107 143 123 106 114 160 154 143 138 125 133 148 133 123 135 155 161 158 130 125 132 129 105 89 92 90 92 75 60 51 76 88 60 72 98 102 73 94 84 69 70 68 72 68 89 86 83 126 147 141 144 157 150 138 131 125 125 106 101 90 125 152 164 178 152 133 158 162 145 135 126 66 14 6 3 1 2 0 0 0 0 0 0 0 0 0 0 0 0 0 0 0 0 0 0 0 0 0 0 0 0 0 0 0 0 0 0 0 0 0 0 0 
0 0 0 0 0 0 0 0 0 0 0 6 9 3 7 10 58 139 135 117 114 138 171 142 133 135 147 169 147 140 126 126 136 154 149 123 115 124 131 117 97 81 99 90 75 65 68 80 61 81 114 123 114 130 118 81 60 61 72 63 73 93 118 142 151 136 130 147 146 117 79 106 124 107 100 95 130 153 161 167 173 148 158 132 92 119 137 73 10 2 2 3 0 2 0 0 0 0 0 0 0 0 0 0 0 0 0 0 0 0 0 0 0 0 0 0 0 0 0 0 0 0 0 0 0 0 0 0 
0 0 0 0 0 0 0 0 0 0 0 5 5 3 5 7 40 123 148 112 124 132 138 153 166 157 148 164 135 115 112 91 115 143 161 156 145 133 136 123 100 81 89 95 85 82 95 77 73 93 114 116 112 137 121 81 55 60 73 83 90 101 118 147 149 141 132 145 126 89 87 110 107 106 108 125 147 156 138 153 137 135 148 117 79 114 126 43 4 2 2 2 0 2 0 0 0 0 0 0 0 0 0 0 0 0 0 0 0 0 0 0 0 0 0 0 0 0 0 0 0 0 0 0 0 0 0 0 
0 0 0 0 0 0 0 0 0 0 0 4 2 3 2 6 25 91 146 109 118 136 127 113 131 138 121 152 157 128 108 81 91 127 157 171 156 131 140 147 136 115 123 116 100 93 107 95 105 115 96 99 102 133 127 111 70 77 96 104 116 126 133 145 139 136 130 125 108 105 131 128 129 138 140 138 136 159 147 145 121 129 127 93 82 133 98 23 3 2 3 1 0 2 0 0 0 0 0 0 0 0 0 0 0 0 0 0 0 0 0 0 0 0 0 0 0 0 0 0 0 0 0 0 0 0 0 0 
0 0 0 0 0 0 0 0 0 0 1 4 0 1 0 5 18 54 146 142 117 114 126 126 107 126 116 129 164 158 137 102 86 86 123 156 153 143 154 154 127 116 123 121 115 116 138 119 127 113 95 91 100 122 123 142 129 114 112 111 120 125 139 151 138 108 84 86 112 132 128 121 138 169 172 157 148 165 164 124 112 129 126 102 118 128 57 11 5 5 5 0 0 2 0 0 0 0 0 0 0 0 0 0 0 0 0 0 0 0 0 0 0 0 0 0 0 0 0 0 0 0 0 0 0 0 0 0 
0 0 0 0 0 0 0 0 0 0 2 4 1 0 0 4 13 28 116 129 108 108 107 134 115 109 118 118 140 179 165 104 76 79 104 118 150 152 156 132 112 109 123 117 110 113 130 124 125 118 117 104 99 107 142 152 152 135 125 117 110 132 140 149 130 77 50 65 112 130 108 120 156 169 157 154 155 160 148 133 146 146 112 88 101 88 34 4 1 4 4 0 0 3 0 0 0 0 0 0 0 0 0 0 0 0 0 0 0 0 0 0 0 0 0 0 0 0 0 0 0 0 0 0 0 0 0 0 
0 0 0 0 0 0 0 0 0 0 2 5 2 0 0 4 13 17 78 122 105 114 112 129 107 93 123 129 140 162 162 131 82 89 96 113 134 153 124 115 114 126 119 109 103 109 120 125 116 121 134 140 134 141 162 140 118 109 113 119 114 138 124 117 94 67 50 65 84 118 113 150 153 127 133 138 166 170 150 136 145 105 101 134 129 65 20 6 1 0 2 0 0 3 0 0 0 0 0 0 0 0 0 0 0 0 0 0 0 0 0 0 0 0 0 0 0 0 0 0 0 0 0 0 0 0 0 0 
0 0 0 0 0 0 0 0 0 0 2 6 4 0 0 4 14 15 43 126 141 110 116 124 120 94 115 146 161 155 155 137 107 97 84 81 109 111 77 82 103 123 115 111 116 130 132 140 145 139 138 151 173 180 165 152 146 140 132 135 125 129 111 91 89 82 67 75 86 115 135 125 126 113 129 141 171 174 146 145 138 99 121 162 115 47 12 12 2 0 0 0 0 3 0 0 0 0 0 0 0 0 0 0 0 0 0 0 0 0 0 0 0 0 0 0 0 0 0 0 0 0 0 0 0 0 0 0 
0 0 0 0 0 0 0 0 0 0 3 5 4 1 0 4 15 14 26 94 122 89 92 118 122 121 130 164 185 169 159 128 114 118 90 81 95 94 68 73 86 94 98 109 128 141 131 139 136 137 151 171 183 175 162 152 152 160 145 145 144 140 119 101 95 91 88 84 101 130 121 116 114 111 122 135 151 173 152 150 125 96 130 154 90 30 7 12 4 0 0 0 0 4 1 0 0 0 0 0 0 0 0 0 0 0 0 0 0 0 0 0 0 0 0 0 0 0 0 0 0 0 0 0 0 0 0 0 
0 0 0 0 0 0 0 0 0 0 2 5 4 1 0 5 15 17 20 66 129 103 86 99 133 139 152 164 141 154 138 125 103 108 120 107 92 86 83 90 127 106 88 86 102 111 114 116 124 114 143 147 145 152 135 124 120 122 120 135 135 139 132 128 115 121 130 139 156 119 105 105 105 118 103 107 117 181 174 139 107 101 127 131 78 21 7 11 6 0 0 0 1 4 2 0 0 0 0 0 0 0 0 0 0 0 0 0 0 0 0 0 0 0 0 0 0 0 0 0 0 0 0 0 0 0 0 0 
0 0 0 0 0 0 0 0 0 0 0 4 5 0 0 5 12 15 15 39 117 109 91 89 122 137 160 164 125 136 139 130 117 99 93 112 127 118 120 129 123 126 133 116 107 124 137 152 178 168 151 128 110 127 130 121 98 100 114 157 156 157 179 172 171 181 188 191 165 123 110 103 109 115 96 98 122 181 171 117 104 101 93 129 65 18 11 12 5 0 0 0 3 5 3 0 0 0 0 0 0 0 0 0 0 0 0 0 0 0 0 0 0 0 0 0 0 0 0 0 0 0 0 0 0 0 0 0 
0 0 0 0 0 0 0 0 0 0 0 2 14 7 1 1 9 13 12 25 101 113 83 91 106 124 149 160 142 127 114 125 118 114 100 93 99 115 131 148 144 167 173 179 172 155 160 178 193 184 133 109 110 112 134 146 127 109 115 153 147 169 198 200 179 178 185 193 178 128 88 82 84 115 140 115 145 158 144 110 75 50 53 120 47 18 11 9 2 0 0 0 4 5 3 0 0 0 0 0 0 0 0 0 0 0 0 0 0 0 0 0 0 0 0 0 0 0 0 0 0 0 0 0 0 0 0 0 
0 0 0 0 0 0 0 0 0 0 0 5 14 11 4 2 5 12 13 19 72 118 94 85 108 98 117 144 149 115 110 89 98 80 85 101 113 131 143 145 141 148 155 169 185 171 178 186 193 180 128 128 141 122 130 138 133 124 126 144 131 168 192 189 172 179 189 173 142 76 59 78 90 109 150 161 182 170 145 88 46 44 77 105 29 20 8 6 0 0 0 0 4 6 3 0 0 0 0 0 0 0 0 0 0 0 0 0 0 0 0 0 0 0 0 0 0 0 0 0 0 0 0 0 0 0 0 0 
0 0 0 0 0 0 0 0 0 0 0 3 12 10 5 3 9 16 13 16 32 94 98 76 84 111 111 132 132 125 132 98 98 95 65 80 117 125 127 134 147 150 158 166 180 170 165 169 174 167 143 154 153 145 115 105 117 133 139 147 142 175 199 166 144 151 162 152 145 96 80 85 93 119 154 149 165 161 136 78 33 60 103 78 19 16 11 4 0 1 3 4 6 5 0 0 0 0 0 0 0 0 0 0 0 0 0 0 0 0 0 0 0 0 0 0 0 0 0 0 0 0 0 0 0 0 0 0 
0 0 0 0 0 0 0 0 0 0 0 0 10 12 12 11 8 7 13 14 16 58 86 76 83 91 103 129 132 134 155 117 109 140 118 96 89 73 67 74 93 93 94 120 155 153 148 137 134 151 145 155 157 159 143 115 105 111 113 115 113 132 120 107 108 134 144 138 174 152 112 117 114 126 137 143 126 97 109 80 49 81 101 37 13 7 6 10 5 5 2 2 7 2 0 0 0 0 0 0 0 0 0 0 0 0 0 0 0 0 0 0 0 0 0 0 0 0 0 0 0 0 0 0 0 0 0 0 
0 0 0 0 0 0 0 0 0 0 0 0 9 8 9 9 3 3 12 15 18 30 65 42 60 85 101 132 148 164 187 147 108 130 138 114 108 111 102 108 103 125 112 111 148 192 199 168 150 163 148 130 132 135 147 157 159 165 164 149 144 153 148 125 105 142 138 168 181 206 170 153 133 125 104 98 91 60 75 92 73 77 48 13 11 2 0 4 7 3 1 5 13 1 0 0 0 0 0 0 0 0 0 0 0 0 0 0 0 0 0 0 0 0 0 0 0 0 0 0 0 0 0 0 0 0 0 0 
0 0 0 0 0 0 0 0 0 0 0 0 3 3 5 3 3 1 6 13 15 24 34 56 47 57 70 77 82 130 168 153 141 138 134 92 103 108 85 113 136 133 138 193 201 189 192 190 183 168 160 156 148 141 143 141 160 186 203 203 183 169 187 146 171 211 175 189 120 176 171 169 128 95 74 102 108 96 57 60 60 38 15 6 2 1 0 1 1 3 5 7 13 0 0 0 0 0 0 0 0 0 0 0 0 0 0 0 0 0 0 0 0 0 0 0 0 0 0 0 0 0 0 0 0 0 0 0 
0 0 0 0 0 0 0 0 0 0 0 0 0 3 2 2 1 0 0 9 11 23 22 44 77 81 47 56 52 45 94 81 90 111 142 155 119 127 126 126 130 131 132 138 146 151 147 177 170 192 181 169 176 154 147 159 178 188 184 196 189 215 203 134 174 208 155 186 178 166 144 95 73 77 58 91 69 71 53 37 27 40 40 20 12 1 0 0 0 0 0 4 6 0 0 0 0 0 0 0 0 0 0 0 0 0 0 0 0 0 0 0 0 0 0 0 0 0 0 0 0 0 0 0 0 0 0 0 
0 0 0 0 0 0 0 0 0 0 0 0 0 4 7 0 3 3 2 2 10 16 21 20 44 50 30 39 61 42 82 75 53 58 70 124 94 60 62 58 64 79 103 120 118 117 193 130 94 118 94 106 129 117 112 124 110 112 117 89 103 117 91 68 128 125 91 49 48 51 50 96 96 66 56 117 68 58 39 28 27 30 25 11 2 0 4 3 0 0 0 6 5 0 0 0 0 0 0 0 0 0 0 0 0 0 0 0 0 0 0 0 0 0 0 0 0 0 0 0 0 0 0 0 0 0 0 0 
0 0 0 0 0 0 0 0 0 0 0 0 0 0 6 0 0 2 3 1 5 9 19 16 19 22 23 33 61 45 81 82 39 33 45 88 92 60 54 47 51 64 59 74 90 104 89 62 63 99 57 77 101 84 74 85 61 64 103 78 83 87 85 70 56 68 82 86 97 109 81 83 67 46 40 110 66 63 38 24 29 28 22 9 3 0 0 0 0 0 5 6 3 0 0 0 0 0 0 0 0 0 0 0 0 0 0 0 0 0 0 0 0 0 0 0 0 0 0 0 0 0 0 0 0 0 0 0 
0 0 0 0 0 0 0 0 0 0 0 0 0 0 0 0 0 0 0 0 2 8 12 19 19 23 25 37 61 45 68 79 47 35 45 82 106 102 120 110 126 118 90 92 102 97 97 86 91 97 68 88 108 104 101 99 74 66 103 139 143 126 122 119 146 179 134 143 149 120 110 97 65 46 40 101 55 53 26 29 31 27 16 10 2 0 0 0 0 0 2 2 0 0 0 0 0 0 0 0 0 0 0 0 0 0 0 0 0 0 0 0 0 0 0 0 0 0 0 0 0 0 0 0 0 0 0 0 
0 0 0 0 0 0 0 0 0 0 0 0 0 0 0 0 0 0 0 0 0 7 8 11 20 20 28 57 78 82 85 102 73 65 69 103 113 103 112 139 171 151 147 146 151 156 189 177 126 117 120 132 143 159 170 175 163 137 127 146 160 171 128 152 100 187 180 149 93 150 97 81 69 41 33 80 46 42 23 19 18 17 3 1 0 0 0 0 0 0 0 0 0 0 0 0 0 0 0 0 0 0 0 0 0 0 0 0 0 0 0 0 0 0 0 0 0 0 0 0 0 0 0 0 0 0 0 0 
0 0 0 0 0 0 0 0 0 0 0 0 0 0 0 0 0 0 0 0 0 0 3 8 14 10 12 40 68 94 97 99 96 99 121 129 137 96 124 101 140 116 152 172 213 210 213 189 144 164 170 156 179 202 201 193 190 173 156 142 153 197 163 134 161 128 125 110 67 137 124 99 88 73 65 119 57 27 8 5 3 12 4 1 0 0 0 0 0 0 0 0 0 0 0 0 0 0 0 0 0 0 0 0 0 0 0 0 0 0 0 0 0 0 0 0 0 0 0 0 0 0 0 0 0 0 0 0 
0 0 0 0 0 0 0 0 0 0 0 0 0 0 0 0 0 0 0 0 0 0 1 7 11 14 11 34 59 80 74 87 60 41 47 82 86 66 80 123 99 100 122 126 145 127 135 139 136 167 184 191 204 179 184 154 172 160 159 157 177 176 130 140 141 165 174 146 125 139 144 76 23 17 18 87 61 22 10 14 14 11 5 2 0 0 0 0 0 0 0 0 0 0 0 0 0 0 0 0 0 0 0 0 0 0 0 0 0 0 0 0 0 0 0 0 0 0 0 0 0 0 0 0 0 0 0 0 
0 0 0 0 0 0 0 0 0 0 0 0 0 0 0 0 0 0 0 0 0 0 2 7 11 18 13 22 35 58 58 76 61 40 72 104 84 46 54 81 85 92 93 94 117 131 144 124 104 158 165 139 174 151 164 141 164 158 166 145 151 166 141 87 132 169 166 85 165 143 117 111 61 42 44 96 77 32 20 17 15 14 5 0 0 0 0 0 0 0 0 0 0 0 0 0 0 0 0 0 0 0 0 0 0 0 0 0 0 0 0 0 0 0 0 0 0 0 0 0 0 0 0 0 0 0 0 0 
0 0 0 0 0 0 0 0 0 0 0 0 0 0 0 0 0 0 0 0 0 0 2 5 10 15 17 22 26 48 53 78 75 41 80 93 70 66 72 83 82 98 114 83 98 120 129 95 81 149 150 113 154 143 140 136 154 152 152 135 110 131 102 76 77 98 121 112 74 79 84 110 95 72 68 100 88 40 24 20 18 13 7 0 0 0 0 0 0 0 0 0 0 0 0 0 0 0 0 0 0 0 0 0 0 0 0 0 0 0 0 0 0 0 0 0 0 0 0 0 0 0 0 0 0 0 0 0 
0 0 0 0 0 0 0 0 0 0 0 0 0 0 0 0 0 0 0 0 0 0 0 4 10 12 16 22 23 42 45 78 85 41 85 73 34 39 54 83 81 88 98 66 84 127 112 91 96 139 129 99 141 133 125 136 154 141 148 142 111 107 88 73 88 88 105 91 61 58 51 67 84 76 88 100 89 48 21 18 17 13 5 0 0 0 0 0 0 0 0 0 0 0 0 0 0 0 0 0 0 0 0 0 0 0 0 0 0 0 0 0 0 0 0 0 0 0 0 0 0 0 0 0 0 0 0 0 
0 0 0 0 0 0 0 0 0 0 0 0 0 0 0 0 0 0 0 0 0 0 0 2 6 11 14 18 23 35 35 70 91 45 92 67 31 33 39 46 71 99 84 58 78 119 122 107 112 146 112 81 108 104 82 98 116 108 118 126 125 138 91 68 89 79 85 108 100 60 38 38 77 72 87 101 85 52 21 19 17 13 3 0 0 0 0 0 0 0 0 0 0 0 0 0 0 0 0 0 0 0 0 0 0 0 0 0 0 0 0 0 0 0 0 0 0 0 0 0 0 0 0 0 0 0 0 0 
0 0 0 0 0 0 0 0 0 0 0 0 0 0 0 0 0 0 0 0 0 0 0 0 7 8 11 14 20 31 30 63 93 54 102 63 31 31 38 58 101 99 81 59 80 131 124 87 86 110 107 80 72 69 68 75 85 82 92 108 97 123 108 91 117 92 70 87 112 96 47 34 67 85 85 97 81 45 29 18 18 10 2 0 0 0 0 0 0 0 0 0 0 0 0 0 0 0 0 0 0 0 0 0 0 0 0 0 0 0 0 0 0 0 0 0 0 0 0 0 0 0 0 0 0 0 0 0 
0 0 0 0 0 0 0 0 0 0 0 0 0 0 0 0 0 0 0 0 0 0 0 0 0 8 8 12 17 27 42 69 95 56 102 63 31 33 43 82 99 74 62 75 98 134 106 68 70 91 119 96 67 68 72 67 76 84 97 97 96 88 103 98 137 108 68 58 82 114 72 42 60 111 96 96 88 38 20 17 18 7 1 0 0 0 0 0 0 0 0 0 0 0 0 0 0 0 0 0 0 0 0 0 0 0 0 0 0 0 0 0 0 0 0 0 0 0 0 0 0 0 0 0 0 0 0 0 
0 0 0 0 0 0 0 0 0 0 0 0 0 0 0 0 0 0 0 0 0 0 0 0 0 4 6 9 16 18 27 43 84 70 89 57 30 31 51 92 87 53 63 71 86 127 99 64 64 83 119 105 69 65 65 58 61 78 97 106 91 67 73 101 140 116 68 57 62 103 94 52 50 98 116 91 46 20 17 19 18 7 1 0 0 0 0 0 0 0 0 0 0 0 0 0 0 0 0 0 0 0 0 0 0 0 0 0 0 0 0 0 0 0 0 0 0 0 0 0 0 0 0 0 0 0 0 0 
0 0 0 0 0 0 0 0 0 0 0 0 0 0 0 0 0 0 0 0 0 0 0 0 0 1 8 8 13 17 19 21 48 58 47 53 34 32 64 87 67 55 65 56 79 133 95 60 59 79 130 115 88 70 54 42 54 77 106 107 77 57 64 73 126 110 62 58 54 88 102 58 41 60 93 47 17 17 19 20 18 6 1 0 0 0 0 0 0 0 0 0 0 0 0 0 0 0 0 0 0 0 0 0 0 0 0 0 0 0 0 0 0 0 0 0 0 0 0 0 0 0 0 0 0 0 0 0 
0 0 0 0 0 0 0 0 0 0 0 0 0 0 0 0 0 0 0 0 0 0 0 0 0 0 6 5 11 17 19 16 14 15 22 55 42 43 83 116 68 51 57 54 84 120 89 61 63 89 111 115 100 85 65 60 76 103 113 99 82 78 70 63 105 111 56 49 43 88 136 86 52 63 67 27 10 16 20 21 16 4 0 0 0 0 0 0 0 0 0 0 0 0 0 0 0 0 0 0 0 0 0 0 0 0 0 0 0 0 0 0 0 0 0 0 0 0 0 0 0 0 0 0 0 0 0 0 
0 0 0 0 0 0 0 0 0 0 0 0 0 0 0 0 0 0 0 0 0 0 0 0 0 0 0 8 8 13 19 18 12 15 17 39 65 68 101 130 77 43 45 54 91 101 63 45 64 95 91 106 116 110 96 88 84 100 115 101 73 59 64 61 84 108 75 48 41 80 146 113 74 70 45 28 15 17 23 24 15 4 1 0 0 0 0 0 0 0 0 0 0 0 0 0 0 0 0 0 0 0 0 0 0 0 0 0 0 0 0 0 0 0 0 0 0 0 0 0 0 0 0 0 0 0 0 0 
0 0 0 0 0 0 0 0 0 0 0 0 0 0 0 0 0 0 0 0 0 0 0 0 0 0 0 2 8 10 18 18 16 14 13 13 35 56 76 119 93 45 42 68 124 106 74 44 52 68 95 116 107 102 100 102 107 119 116 131 115 85 62 70 89 117 102 52 44 90 134 91 58 35 29 28 16 20 25 24 14 4 1 0 0 0 0 0 0 0 0 0 0 0 0 0 0 0 0 0 0 0 0 0 0 0 0 0 0 0 0 0 0 0 0 0 0 0 0 0 0 0 0 0 0 0 0 0 
0 0 0 0 0 0 0 0 0 0 0 0 0 0 0 0 0 0 0 0 0 0 0 0 0 0 0 0 11 6 14 18 17 14 12 17 23 22 31 87 112 74 56 80 131 114 87 59 57 75 113 121 116 113 112 123 132 119 110 110 94 88 65 73 89 118 117 78 64 109 119 48 28 21 25 26 18 19 24 23 11 4 1 0 0 0 0 0 0 0 0 0 0 0 0 0 0 0 0 0 0 0 0 0 0 0 0 0 0 0 0 0 0 0 0 0 0 0 0 0 0 0 0 0 0 0 0 0 
0 0 0 0 0 0 0 0 0 0 0 0 0 0 0 0 0 0 0 0 0 0 0 0 0 0 0 0 5 8 10 18 15 14 10 10 17 24 26 46 109 115 87 98 115 107 92 61 51 64 104 111 105 99 101 112 122 102 98 113 106 93 84 80 89 99 106 89 98 129 77 30 25 23 23 25 13 16 22 21 11 4 1 0 0 0 0 0 0 0 0 0 0 0 0 0 0 0 0 0 0 0 0 0 0 0 0 0 0 0 0 0 0 0 0 0 0 0 0 0 0 0 0 0 0 0 0 0 
0 0 0 0 0 0 0 0 0 0 0 0 0 0 0 0 0 0 0 0 0 0 0 0 0 0 0 0 0 11 7 14 17 11 11 8 7 20 24 28 51 103 116 102 105 89 93 81 74 91 118 108 100 94 86 94 96 86 93 103 118 110 84 92 94 80 78 93 115 77 35 26 23 22 23 19 13 16 20 17 9 4 1 0 0 0 0 0 0 0 0 0 0 0 0 0 0 0 0 0 0 0 0 0 0 0 0 0 0 0 0 0 0 0 0 0 0 0 0 0 0 0 0 0 0 0 0 0 
0 0 0 0 0 0 0 0 0 0 0 0 0 0 0 0 0 0 0 0 0 0 0 0 0 0 0 0 0 10 6 11 15 14 10 10 7 14 27 32 34 37 48 65 78 76 96 93 85 101 112 94 87 86 85 88 84 76 82 79 105 119 104 99 99 73 50 47 39 34 29 22 20 22 16 11 11 19 18 13 7 3 1 0 0 0 0 0 0 0 0 0 0 0 0 0 0 0 0 0 0 0 0 0 0 0 0 0 0 0 0 0 0 0 0 0 0 0 0 0 0 0 0 0 0 0 0 0 
0 0 0 0 0 0 0 0 0 0 0 0 0 0 0 0 0 0 0 0 0 0 0 0 0 0 0 0 0 7 7 8 14 16 10 10 9 11 27 30 34 37 40 52 61 67 84 104 103 97 81 68 69 73 74 73 76 65 73 69 80 99 108 110 97 76 57 45 37 29 30 25 22 24 15 8 13 17 18 11 7 3 1 0 0 0 0 0 0 0 0 0 0 0 0 0 0 0 0 0 0 0 0 0 0 0 0 0 0 0 0 0 0 0 0 0 0 0 0 0 0 0 0 0 0 0 0 0 
