P2
128 99
206
0 0 0 0 0 0 0 0 0 0 0 0 0 0 0 0 0 0 0 0 0 0 0 0 0 0 0 0 0 0 0 0 0 0 0 0 0 0 0 0 0 1 1 0 0 0 0 0 0 0 0 0 0 0 0 0 0 0 0 0 0 0 0 0 0 0 0 0 0 0 0 0 0 0 0 0 0 0 0 0 0 0 0 0 1 0 0 0 0 0 0 0 0 0 0 0 0 0 0 0 0 0 0 0 0 0 0 0 0 0 0 0 0 0 0 0 0 0 0 0 0 0 0 0 0 0 0 0 
0 0 0 0 0 0 0 0 0 0 0 0 0 0 0 0 0 0 0 0 0 0 0 0 0 0 0 0 0 0 0 0 0 0 0 0 0 0 0 0 0 1 1 0 0 0 0 0 0 0 0 0 0 0 0 0 0 0 0 0 0 0 0 0 0 0 0 0 0 0 0 0 0 0 0 0 0 0 0 0 0 0 0 0 1 1 0 0 0 0 0 0 0 0 0 0 0 0 0 0 0 0 0 0 0 0 0 0 0 0 0 0 0 0 0 0 0 0 0 0 0 0 0 0 0 0 0 0 
0 0 0 0 0 0 0 0 0 0 0 0 0 0 0 0 0 0 0 0 0 0 0 0 0 0 0 0 0 0 0 0 0 0 0 0 0 0 0 0 1 1 1 0 0 0 0 0 0 0 0 1 2 3 2 0 0 0 0 0 0 0 0 0 0 0 0 0 0 0 0 0 0 0 0 0 0 0 0 0 0 0 0 0 1 1 0 0 0 0 0 0 0 0 0 0 0 0 0 0 0 0 0 0 0 0 0 0 0 0 0 0 0 0 0 0 0 0 0 0 0 0 0 0 0 0 0 0 
0 0 0 0 0 0 0 0 0 0 0 0 0 0 0 0 0 0 0 0 0 0 0 0 0 0 0 0 0 0 0 0 0 0 0 0 0 0 0 0 0 1 1 1 6 13 16 18 18 19 22 26 28 28 25 21 18 16 14 12 4 0 0 0 0 0 0 0 0 0 0 0 0 0 0 0 0 0 0 0 0 0 0 0 1 1 0 0 0 0 0 0 0 0 0 0 0 0 0 0 0 0 0 0 0 0 0 0 0 0 0 0 0 0 0 0 0 0 0 0 0 0 0 0 0 0 0 0 
0 0 0 0 0 0 0 0 0 0 0 0 0 0 0 0 0 0 0 0 0 0 0 0 0 0 0 0 0 0 0 0 0 0 0 0 0 0 0 0 6 14 19 24 24 34 54 77 100 119 135 145 150 150 147 138 123 102 77 53 33 22 16 10 2 0 0 0 0 0 0 0 0 0 0 0 0 0 0 0 0 0 0 0 1 1 0 0 0 0 0 0 0 0 0 0 0 0 0 0 0 0 0 0 0 0 0 0 0 0 0 0 0 0 0 0 0 0 0 0 0 0 0 0 0 0 0 0 
0 0 0 0 0 0 0 0 0 0 0 0 0 0 0 0 0 0 0 0 0 0 0 0 0 0 0 0 0 0 0 0 0 0 0 0 0 1 9 17 24 26 36 67 109 145 166 177 181 184 184 184 183 182 183 183 181 178 173 164 146 116 77 43 24 16 10 1 0 0 0 0 0 0 0 0 0 0 0 0 0 0 0 0 1 1 0 0 0 0 0 0 0 0 0 0 0 0 0 0 0 0 0 0 0 0 0 0 0 0 0 0 0 0 0 0 0 0 0 0 0 0 0 0 0 0 0 0 
0 0 0 0 0 0 0 0 0 0 0 0 0 0 0 0 0 0 0 0 0 0 0 0 0 0 0 0 0 0 0 0 0 0 0 0 9 21 24 27 52 102 148 172 182 184 185 187 191 194 194 194 193 193 193 193 192 191 188 186 184 177 169 152 120 75 39 18 13 2 0 0 0 0 0 0 0 0 0 0 0 0 0 0 1 1 0 0 0 0 0 0 0 0 0 0 0 0 0 0 0 0 0 0 0 0 0 0 0 0 0 0 0 0 0 0 0 0 0 0 0 0 0 0 0 0 0 0 
0 0 0 0 0 0 0 0 0 0 0 0 0 0 0 0 0 0 0 0 0 0 0 0 0 0 0 0 0 0 0 0 0 0 8 24 25 28 62 121 165 181 185 187 189 194 193 186 177 174 179 186 185 174 171 182 194 198 195 191 189 188 187 184 179 168 145 97 48 23 14 1 0 0 0 0 0 0 0 0 0 0 0 0 1 1 0 0 0 0 0 0 0 0 0 0 0 0 0 0 0 0 0 0 0 0 0 0 0 0 0 0 0 0 0 0 0 0 0 0 0 0 0 0 0 0 0 0 
0 0 0 0 0 0 0 0 0 0 0 0 0 0 0 0 0 0 0 0 0 0 0 0 0 0 0 0 0 0 0 0 5 27 25 23 57 126 167 179 181 185 191 195 190 180 172 163 158 155 153 153 149 141 143 149 159 178 198 204 201 195 190 187 187 186 182 174 152 100 46 23 10 0 0 0 0 0 0 0 0 0 0 0 1 1 0 0 0 0 0 0 0 0 0 0 0 0 0 0 0 0 0 0 0 0 0 0 0 0 0 0 0 0 0 0 0 0 0 0 0 0 0 0 0 0 0 0 
0 0 0 0 0 0 0 0 0 0 0 0 0 0 0 0 0 0 0 0 0 0 0 0 0 0 0 0 0 0 0 23 26 20 41 110 165 177 179 183 189 193 188 175 162 157 151 137 133 131 134 142 143 139 142 145 147 149 159 178 198 205 206 201 193 188 187 186 183 174 144 79 31 19 2 0 0 0 0 0 0 0 0 0 1 1 0 0 0 0 0 0 0 0 0 0 0 0 0 0 0 0 0 0 0 0 0 0 0 0 0 0 0 0 0 0 0 0 0 0 0 0 0 0 0 0 0 0 
0 0 0 0 0 0 0 0 0 0 0 0 0 0 0 0 0 0 0 0 0 0 0 0 0 0 0 0 0 10 28 23 25 82 155 176 179 182 188 193 193 184 172 166 156 149 143 136 132 134 139 144 143 144 146 148 148 144 145 151 165 184 199 204 206 203 196 190 187 187 183 169 117 46 23 6 0 0 0 0 0 0 0 0 1 1 0 0 0 0 0 0 0 0 0 0 0 0 0 0 0 0 0 0 0 0 0 0 0 0 0 0 0 0 0 0 0 0 0 0 0 0 0 0 0 0 0 0 
0 0 0 0 0 0 0 0 0 0 0 0 0 0 0 0 0 0 0 0 0 0 0 0 0 0 0 0 22 25 18 48 130 172 176 181 189 193 195 193 181 171 160 151 149 147 146 144 142 137 127 131 126 121 133 139 140 146 148 151 158 170 182 192 201 204 204 203 197 190 190 186 178 147 68 24 10 0 0 0 0 0 0 0 1 1 0 0 0 0 0 0 0 0 0 0 0 0 0 0 0 0 0 0 0 0 0 0 0 0 0 0 0 0 0 0 0 0 0 0 0 0 0 0 0 0 0 0 
0 0 0 0 0 0 0 0 0 0 0 0 0 0 0 0 0 0 0 0 0 0 0 0 0 0 5 26 22 19 75 154 174 180 186 192 195 198 189 173 165 160 156 157 152 147 144 134 134 129 123 123 121 123 136 144 139 143 146 147 147 155 168 179 190 197 202 204 204 201 194 190 187 179 158 85 25 13 0 0 0 0 0 1 1 1 0 0 0 0 0 0 0 0 0 0 0 0 0 0 0 0 0 0 0 0 0 0 0 0 0 0 0 0 0 0 0 0 0 0 0 0 0 0 0 0 0 0 
0 0 0 0 0 0 0 0 0 0 0 0 0 0 0 0 0 0 0 0 0 0 0 0 0 10 26 19 25 101 163 175 184 192 195 199 195 178 167 162 162 159 151 146 144 146 149 149 141 134 127 126 126 126 124 133 142 144 148 152 151 148 153 161 170 178 188 196 201 203 203 199 190 184 179 163 94 26 13 0 0 0 0 1 1 1 0 0 0 0 0 0 0 0 0 0 0 0 0 0 0 0 0 0 0 0 0 0 0 0 0 0 0 0 0 0 0 0 0 0 0 0 0 0 0 0 0 0 
0 0 0 0 0 0 0 0 0 0 0 0 0 0 0 0 0 0 0 0 0 0 0 0 14 23 17 35 115 166 177 186 194 198 199 187 171 165 164 161 160 156 154 148 141 140 131 124 128 128 123 122 119 127 130 129 134 145 147 146 149 151 150 152 157 163 167 175 185 193 201 203 201 192 184 181 167 103 30 12 0 0 0 0 1 1 0 0 0 0 0 0 0 0 0 0 0 0 0 0 0 0 0 0 0 0 0 0 0 0 0 0 0 0 0 0 0 0 0 0 0 0 0 0 0 0 0 0 
0 0 0 0 0 0 0 0 0 0 0 0 0 0 0 0 0 0 0 0 0 0 4 19 20 16 45 127 163 178 188 196 199 191 174 164 163 164 161 161 153 143 137 134 138 130 126 128 121 120 118 116 113 118 122 119 119 122 134 144 145 148 153 155 155 153 156 160 165 174 183 195 199 201 191 184 180 168 115 35 12 0 0 0 1 1 1 0 0 0 0 0 0 0 0 0 0 0 0 0 0 0 0 0 0 0 0 0 0 0 0 0 0 0 0 0 0 0 0 0 0 0 0 0 0 0 0 0 
0 0 0 0 0 0 0 0 0 0 0 0 0 0 0 0 0 0 0 0 0 5 18 17 16 57 136 160 179 190 198 198 181 166 159 162 160 159 157 146 145 145 143 141 130 125 119 108 110 111 110 107 105 109 111 109 108 109 111 116 123 128 133 142 152 154 152 152 157 159 165 173 187 195 199 192 188 181 167 122 38 9 0 1 1 1 0 0 0 0 0 0 0 0 0 0 0 0 0 0 0 0 0 0 0 0 0 0 0 0 0 0 0 0 0 0 0 0 0 0 0 0 0 0 0 0 0 0 
0 0 0 0 0 0 0 0 0 0 0 0 0 0 0 0 0 0 0 0 6 15 15 19 71 144 162 180 192 199 192 171 158 158 164 158 150 143 142 149 147 134 126 122 120 118 112 114 116 116 118 112 112 119 115 117 119 118 117 117 117 118 123 124 131 140 146 149 148 149 147 155 166 179 188 196 191 187 180 168 126 36 6 1 1 1 0 0 0 0 0 0 0 0 0 0 0 0 0 0 0 0 0 0 0 0 0 0 0 0 0 0 0 0 0 0 0 0 0 0 0 0 0 0 0 0 0 0 
0 0 0 0 0 0 0 0 0 0 0 0 0 0 0 0 0 0 0 6 15 13 20 79 147 164 178 190 198 188 167 153 155 162 153 145 139 140 140 126 118 120 124 120 117 112 108 107 105 103 107 103 105 112 113 117 123 127 128 126 126 122 120 121 120 121 132 142 147 143 139 139 153 160 173 186 196 193 189 177 166 119 29 4 1 1 1 0 0 0 0 0 0 0 0 0 0 0 0 0 0 0 0 0 0 0 0 0 0 0 0 0 0 0 0 0 0 0 0 0 0 0 0 0 0 0 0 0 
0 0 0 0 0 0 0 0 0 0 0 0 0 0 0 0 0 0 5 14 14 20 82 148 162 175 186 196 182 162 152 152 154 149 142 134 130 132 120 115 124 127 121 118 112 108 108 108 104 104 100 94 99 114 116 117 117 117 121 122 123 124 122 119 119 116 119 128 143 144 136 140 138 149 155 168 183 196 193 186 175 162 105 21 2 1 0 0 0 0 0 0 0 0 0 0 0 0 0 0 0 0 0 0 0 0 0 0 0 0 0 0 0 0 0 0 0 0 0 0 0 0 0 0 0 0 0 0 
0 0 0 0 0 0 0 0 0 0 0 0 0 0 0 0 0 2 15 11 20 79 142 157 170 183 195 179 160 151 154 149 143 140 132 124 126 123 122 129 129 118 111 107 108 110 112 112 115 113 108 106 108 119 120 118 120 118 115 114 116 116 119 119 120 120 120 119 126 142 138 133 137 136 149 152 162 180 196 192 184 170 154 82 12 1 0 0 0 0 0 0 0 0 0 0 0 0 0 0 0 0 0 0 0 0 0 0 0 0 0 0 0 0 0 0 0 0 0 0 0 0 0 0 0 0 0 0 
0 0 0 0 0 0 0 0 0 0 0 0 0 0 0 0 0 11 13 16 71 138 152 167 179 193 178 157 149 150 146 141 138 132 121 131 125 124 129 125 111 104 104 106 113 118 120 121 121 112 111 114 113 112 116 120 122 122 124 124 123 117 112 111 118 121 120 119 115 125 137 127 129 136 135 148 150 160 183 194 192 180 164 137 53 5 0 0 0 0 0 0 0 0 0 0 0 0 0 0 0 0 0 0 0 0 0 0 0 0 0 0 0 0 0 0 0 0 0 0 0 0 0 0 0 0 0 0 
0 0 0 0 0 0 0 0 0 0 0 0 0 0 0 0 5 12 14 58 129 146 161 175 191 180 155 150 148 141 141 133 127 120 133 126 122 127 119 106 103 105 108 111 114 111 109 107 104 101 101 102 102 104 104 103 108 108 107 113 119 118 111 101 99 109 117 124 116 113 125 134 120 129 130 137 145 146 157 184 194 187 174 156 114 26 2 0 0 0 0 0 0 0 0 0 0 0 0 0 0 0 0 0 0 0 0 0 0 0 0 0 0 0 0 0 0 0 0 0 0 0 0 0 0 0 0 0 
0 0 0 0 0 0 0 0 0 0 0 0 0 0 0 2 12 13 45 119 141 156 172 188 183 153 147 145 140 141 130 123 123 137 126 118 120 111 104 100 99 99 101 102 102 99 96 97 99 99 100 97 98 106 103 101 102 101 103 106 111 117 117 110 98 94 105 117 121 114 111 123 126 119 133 132 145 142 143 161 187 191 182 168 143 78 8 0 0 0 0 0 0 0 0 0 0 0 0 0 0 0 0 0 0 0 0 0 0 0 0 0 0 0 0 0 0 0 0 0 0 0 0 0 0 0 0 0 
0 0 0 0 0 0 0 0 0 0 0 0 0 0 0 8 10 26 100 133 148 163 181 183 159 142 141 136 141 133 125 118 133 125 118 116 109 103 99 94 96 103 108 103 99 98 98 97 100 102 105 102 99 103 101 100 99 97 99 102 103 104 114 119 112 98 94 107 121 119 112 111 123 121 122 133 138 139 139 147 166 188 185 174 156 119 31 1 0 0 0 0 0 0 0 0 0 0 0 0 0 0 0 0 0 0 0 0 0 0 0 0 0 0 0 0 0 0 0 0 0 0 0 0 0 0 0 0 
0 0 0 0 0 0 0 0 0 0 0 0 0 0 2 9 14 72 126 142 156 172 177 165 141 137 134 134 135 129 121 127 124 119 117 110 107 102 97 98 105 109 109 102 101 101 98 98 100 104 110 110 104 105 103 101 101 103 103 102 99 100 105 113 115 110 97 94 110 121 113 111 116 126 121 129 135 137 130 137 146 174 183 179 161 138 68 4 0 0 0 0 0 0 0 0 0 0 0 0 0 0 0 0 0 0 0 0 0 0 0 0 0 0 0 0 0 0 0 0 0 0 0 0 0 0 0 0 
0 0 0 0 0 0 0 0 0 0 0 0 0 0 6 8 40 110 131 148 165 174 164 154 135 133 130 136 132 125 126 128 118 115 110 105 99 97 103 107 109 106 102 97 98 100 102 106 105 108 112 113 110 110 107 105 103 103 101 104 99 101 100 102 105 110 107 96 98 113 118 114 112 120 123 127 137 137 131 125 136 160 175 180 167 149 104 17 0 0 0 0 0 0 0 0 0 0 0 0 0 0 0 0 0 0 0 0 0 0 0 0 0 0 0 0 0 0 0 0 0 0 0 0 0 0 0 0 
0 0 0 0 0 0 0 0 0 0 0 0 0 1 7 15 81 121 140 154 172 160 158 139 131 129 130 136 124 126 126 118 113 112 108 97 95 102 108 109 105 101 99 98 96 103 108 110 112 105 101 105 110 104 94 91 93 97 100 99 96 96 99 102 102 104 115 110 97 101 113 119 114 113 127 127 131 138 131 121 128 154 168 175 171 154 125 37 2 0 0 0 0 0 0 0 0 0 0 0 0 0 0 0 0 0 0 0 0 0 0 0 0 0 0 0 0 0 0 0 0 0 0 0 0 0 0 0 
0 0 0 0 0 0 0 0 0 0 0 0 0 2 7 37 108 129 145 162 169 156 151 131 129 123 133 130 123 127 123 115 110 112 99 93 100 110 106 99 97 95 94 96 94 96 97 101 99 89 90 97 104 101 93 84 85 86 81 84 89 95 97 101 101 99 109 121 109 97 105 117 120 109 116 132 128 136 132 119 122 146 162 175 173 158 135 59 3 0 0 0 0 0 0 0 0 0 0 0 0 0 0 0 0 0 0 0 0 0 0 0 0 0 0 0 0 0 0 0 0 0 0 0 0 0 0 0 
0 0 0 0 0 0 0 0 0 0 0 0 0 5 8 67 119 133 151 167 155 147 141 128 126 123 128 122 123 128 121 113 114 107 92 99 113 111 97 90 90 95 96 93 90 88 83 88 91 88 94 105 110 111 101 94 90 84 79 75 76 85 93 100 108 99 100 114 123 108 97 109 125 115 108 130 131 124 133 115 116 140 158 170 174 161 142 79 5 0 0 0 0 0 0 0 0 0 0 0 0 0 0 0 0 0 0 0 0 0 0 0 0 0 0 0 0 0 0 0 0 0 0 0 0 0 0 0 
0 0 0 0 0 0 0 0 0 0 0 0 0 5 17 92 125 140 156 163 141 140 135 123 122 122 122 120 120 125 118 113 113 99 97 113 115 99 86 88 96 102 102 97 94 94 96 99 103 107 111 116 124 122 115 110 108 107 103 97 89 81 83 94 109 109 100 102 118 121 103 99 121 124 107 119 129 118 129 118 115 132 153 167 174 160 144 97 10 0 0 0 0 0 0 0 0 0 0 0 0 0 0 0 0 0 0 0 0 0 0 0 0 0 0 0 0 0 0 0 0 0 0 0 0 0 0 0 
0 0 0 0 0 0 0 0 0 0 0 0 1 6 32 109 132 147 159 147 132 133 134 123 118 118 117 121 120 120 111 112 111 101 109 116 100 88 92 99 92 83 83 102 114 116 115 114 112 106 102 104 117 107 96 94 98 103 106 116 119 111 98 95 105 114 107 98 106 119 117 102 110 123 116 112 123 116 121 116 110 131 155 165 175 167 148 111 16 0 0 0 0 0 0 0 0 0 0 0 0 0 0 0 0 0 0 0 0 0 0 0 0 0 0 0 0 0 0 0 0 0 0 0 0 0 0 0 
0 0 0 0 0 0 0 0 0 0 0 0 2 6 50 116 134 150 153 136 127 129 135 121 114 110 113 123 118 111 109 112 109 109 113 109 94 95 101 92 83 83 92 107 125 122 109 102 97 92 89 94 99 89 86 85 86 89 95 115 126 129 121 107 103 104 105 109 103 108 117 114 106 118 124 114 114 113 118 116 108 122 150 160 174 169 153 124 26 0 0 0 0 0 0 0 0 0 0 0 0 0 0 0 0 0 0 0 0 0 0 0 0 0 0 0 0 0 0 0 0 0 0 0 0 0 0 0 
0 0 0 0 0 0 0 0 0 0 0 0 2 7 62 120 141 153 148 132 122 129 135 122 108 104 115 123 111 108 112 113 115 115 113 104 98 102 102 87 84 93 105 113 122 120 103 93 88 86 92 96 90 87 86 86 87 91 97 102 101 113 116 108 99 103 109 107 108 102 109 118 117 114 120 118 108 104 116 117 112 126 150 160 174 174 157 134 36 2 0 0 0 0 0 0 0 0 0 0 0 0 0 0 0 0 0 0 0 0 0 0 0 0 0 0 0 0 0 0 0 0 0 0 0 0 0 0 
0 0 0 0 0 0 0 0 0 0 0 0 3 9 71 126 144 150 146 136 124 130 132 122 107 102 118 117 98 105 112 119 119 111 106 105 104 104 107 102 100 102 106 113 109 110 104 90 87 87 94 96 91 91 91 94 95 94 97 97 89 108 117 116 106 102 103 110 117 110 106 112 122 123 118 117 100 103 110 114 113 129 152 162 176 175 161 142 47 2 0 0 0 0 0 0 0 0 0 0 0 0 0 0 0 0 0 0 0 0 0 0 0 0 0 0 0 0 0 0 0 0 0 0 0 0 0 0 
0 0 0 0 0 0 0 0 0 0 0 0 4 11 78 130 148 155 148 137 129 132 136 122 105 106 118 109 95 106 118 123 112 107 107 112 109 104 107 116 117 109 105 109 106 98 93 101 93 92 97 96 92 92 96 103 104 100 100 90 84 108 115 116 109 104 112 116 114 111 115 119 119 124 127 127 103 104 108 109 118 128 152 161 176 176 166 149 59 3 0 0 0 0 0 0 0 0 0 0 0 0 0 0 0 0 0 0 0 0 0 0 0 0 0 0 0 0 0 0 0 0 0 0 0 0 0 0 
0 0 0 0 0 0 0 0 0 0 0 0 4 12 85 134 153 160 150 140 134 132 135 120 109 111 117 104 96 109 126 119 108 115 116 109 104 99 100 105 105 104 109 113 107 98 86 93 98 102 105 98 95 91 97 102 96 95 92 79 84 106 112 115 110 106 103 107 106 99 105 121 128 122 129 141 115 107 107 111 126 130 149 156 176 179 168 152 75 5 0 0 0 0 0 0 0 0 0 0 0 0 0 0 0 0 0 0 0 0 0 0 0 0 0 0 0 0 0 0 0 0 0 0 0 0 0 0 
0 0 0 0 0 0 0 0 0 0 0 0 5 15 87 137 156 160 146 140 141 137 137 121 114 117 118 97 97 116 125 115 119 122 109 106 101 94 92 98 96 89 81 87 98 103 95 83 78 83 92 97 99 94 98 88 86 82 77 76 93 110 105 99 100 99 99 100 97 91 91 102 111 117 131 146 137 116 111 121 128 129 143 151 168 178 171 153 88 7 0 0 0 0 0 0 0 0 0 0 0 0 0 0 0 0 0 0 0 0 0 0 0 0 0 0 0 0 0 0 0 0 0 0 0 0 0 0 
0 0 0 0 0 0 0 0 0 0 0 0 6 14 91 141 157 159 148 141 141 138 138 129 122 123 118 95 103 123 119 125 129 117 106 98 95 94 92 93 89 89 85 81 79 87 97 99 80 83 90 92 97 95 92 87 87 81 77 86 100 92 91 90 93 95 98 102 101 95 89 89 97 107 126 153 145 134 118 126 128 126 136 144 159 175 174 157 102 10 0 0 0 0 0 0 0 0 0 0 0 0 0 0 0 0 0 0 0 0 0 0 0 0 0 0 0 0 0 0 0 0 0 0 0 0 0 0 
0 0 0 0 0 0 0 0 0 0 0 0 7 14 94 142 157 160 147 138 138 135 132 130 128 129 120 109 112 119 123 128 113 101 91 91 90 90 91 91 87 83 77 79 85 86 88 104 96 89 96 98 99 99 95 94 89 80 83 101 92 82 84 86 91 96 99 103 103 99 97 99 105 110 124 152 148 142 125 130 125 122 131 138 151 173 175 159 115 16 0 0 0 0 0 0 0 0 0 0 0 0 0 0 0 0 0 0 0 0 0 0 0 0 0 0 0 0 0 0 0 0 0 0 0 0 0 0 
0 0 0 0 0 0 0 0 0 0 0 0 7 14 94 144 161 160 141 134 135 136 127 124 125 132 117 118 131 118 128 119 101 90 90 96 95 92 90 90 87 85 80 79 77 84 90 97 105 97 105 102 106 108 113 97 88 80 92 103 82 75 74 83 97 102 104 108 107 103 100 99 107 122 130 141 146 139 133 129 125 117 127 131 142 165 174 159 124 23 0 0 0 0 0 0 0 0 0 0 0 0 0 0 0 0 0 0 0 0 0 0 0 0 0 0 0 0 0 0 0 0 0 0 0 0 0 0 
0 0 0 0 0 0 0 0 0 0 0 0 8 15 96 146 164 162 136 125 133 133 124 117 121 134 119 116 131 131 135 117 110 100 98 97 95 92 89 90 89 85 79 79 83 84 94 97 104 105 112 111 119 118 123 106 101 98 107 96 78 68 80 94 100 103 105 107 106 101 98 102 111 114 114 132 131 135 134 128 124 114 122 119 131 156 173 159 129 32 1 0 0 0 0 0 0 0 0 0 0 0 0 0 0 0 0 0 0 0 0 0 0 0 0 0 0 0 0 0 0 0 0 0 0 0 0 0 
0 0 0 0 0 0 0 0 0 0 0 0 8 15 97 147 164 162 129 124 132 128 120 113 114 128 117 116 132 126 128 120 119 106 104 103 101 94 89 87 88 90 87 82 85 88 90 97 98 108 115 114 114 114 126 122 114 110 106 89 72 76 83 90 95 96 97 101 103 103 101 102 107 106 111 129 125 126 131 126 120 108 114 114 118 147 169 160 134 42 1 0 0 0 0 0 0 0 0 0 0 0 0 0 0 0 0 0 0 0 0 0 0 0 0 0 0 0 0 0 0 0 0 0 0 0 0 0 
0 0 0 0 0 0 0 0 0 0 0 0 8 16 100 150 165 161 126 124 129 123 115 107 108 123 115 115 125 122 118 115 113 101 99 96 97 94 94 83 79 79 82 91 90 86 88 93 103 104 109 99 101 103 106 119 112 109 103 84 77 79 83 88 92 96 96 93 99 101 100 101 107 102 106 125 126 120 127 123 115 104 109 111 111 136 166 160 137 50 2 0 0 0 0 0 0 0 0 0 0 0 0 0 0 0 0 0 0 0 0 0 0 0 0 0 0 0 0 0 0 0 0 0 0 0 0 0 
0 0 0 0 0 0 0 0 0 0 0 0 8 16 100 151 165 158 124 121 120 116 105 102 103 118 115 117 125 120 111 112 101 93 95 92 91 90 90 82 79 82 83 88 91 91 88 89 100 107 112 105 96 101 107 113 107 113 108 86 80 82 86 88 88 95 94 87 92 100 100 101 104 102 102 125 125 121 126 127 117 104 105 105 103 125 152 159 138 56 2 0 0 0 0 0 0 0 0 0 0 0 0 0 0 0 0 0 0 0 0 0 0 0 0 0 0 0 0 0 0 0 0 0 0 0 0 0 
0 0 0 0 0 0 0 0 0 0 0 0 9 17 98 151 165 153 118 111 113 110 98 97 92 109 112 117 128 122 110 108 97 89 92 91 92 89 85 79 77 79 84 89 88 86 90 89 90 110 122 125 115 99 104 100 112 107 104 87 87 85 87 81 86 91 92 86 92 99 99 98 100 101 103 123 118 118 121 133 125 106 104 106 104 121 133 149 139 60 2 0 0 0 0 0 0 0 0 0 0 0 0 0 0 0 0 0 0 0 0 0 0 0 0 0 0 0 0 0 0 0 0 0 0 0 0 0 
0 0 0 0 0 0 0 0 0 0 0 0 8 16 96 149 164 143 112 107 106 104 98 97 89 104 116 108 123 123 114 107 100 88 92 92 91 90 86 81 78 82 92 97 88 88 91 89 80 98 113 119 100 90 92 84 107 126 95 91 86 85 83 84 87 94 91 84 91 96 96 96 96 95 105 123 116 120 126 138 128 108 105 102 105 119 128 148 140 61 2 0 0 0 0 0 0 0 0 0 0 0 0 0 0 0 0 0 0 0 0 0 0 0 0 0 0 0 0 0 0 0 0 0 0 0 0 0 
0 0 0 0 0 0 0 0 0 0 0 0 7 17 91 147 163 134 113 105 103 106 100 98 91 104 120 102 117 125 121 109 100 89 94 93 92 92 87 81 79 82 89 88 84 88 90 87 85 97 107 102 84 79 87 81 89 128 86 87 81 80 79 89 94 96 91 83 92 98 96 95 98 96 109 121 120 126 123 135 126 110 106 98 105 116 127 150 135 59 2 0 0 0 0 0 0 0 0 0 0 0 0 0 0 0 0 0 0 0 0 0 0 0 0 0 0 0 0 0 0 0 0 0 0 0 0 0 
0 0 0 0 0 0 0 0 0 0 0 0 5 15 83 145 159 130 110 106 100 105 102 98 92 98 120 105 115 124 124 112 100 94 92 92 94 94 91 82 82 85 84 82 79 78 83 83 90 99 98 84 78 81 89 81 84 112 101 87 80 75 77 94 95 93 87 84 92 98 96 94 98 94 108 116 128 122 111 132 121 109 106 95 107 114 127 149 131 55 2 0 0 0 0 0 0 0 0 0 0 0 0 0 0 0 0 0 0 0 0 0 0 0 0 0 0 0 0 0 0 0 0 0 0 0 0 0 
0 0 0 0 0 0 0 0 0 0 0 0 5 16 77 141 158 134 110 108 98 101 105 96 93 90 113 110 116 120 121 114 101 99 90 94 97 95 92 85 83 87 86 80 76 79 84 77 85 98 91 82 80 88 96 85 81 90 114 89 80 74 79 98 97 94 88 85 90 95 95 93 94 92 107 116 125 113 106 129 120 111 105 95 108 109 131 146 124 48 1 0 0 0 0 0 0 0 0 0 0 0 0 0 0 0 0 0 0 0 0 0 0 0 0 0 0 0 0 0 0 0 0 0 0 0 0 0 
0 0 0 0 0 0 0 0 0 0 0 0 2 15 71 138 154 138 111 108 100 97 104 97 95 86 105 113 119 113 118 112 96 101 94 95 94 94 91 89 87 91 87 81 75 78 81 79 92 100 79 80 79 91 101 86 81 82 106 97 89 81 81 96 98 94 89 83 86 93 94 92 89 96 108 119 118 116 111 121 120 111 102 94 106 106 134 140 115 42 2 0 0 0 0 0 0 0 0 0 0 0 0 0 0 0 0 0 0 0 0 0 0 0 0 0 0 0 0 0 0 0 0 0 0 0 0 0 
0 0 0 0 0 0 0 0 0 5 5 0 1 13 61 131 150 139 111 105 102 94 104 101 93 87 97 117 118 104 111 109 94 99 103 93 94 92 88 89 91 95 93 84 87 99 89 87 100 92 82 79 79 92 99 91 84 83 90 112 105 99 102 99 100 99 92 83 84 92 93 89 88 101 109 114 122 126 132 122 121 110 96 94 101 108 136 134 104 37 1 0 0 0 0 0 0 0 0 0 0 0 0 0 0 0 0 0 0 0 0 0 0 0 0 0 0 0 0 0 0 0 0 0 0 0 0 0 
0 0 0 0 0 0 0 0 1 4 9 3 1 9 52 121 148 137 113 102 100 94 99 104 91 86 95 121 115 99 106 110 93 89 102 94 91 91 83 89 100 105 102 93 92 97 98 106 114 86 84 80 79 90 89 88 86 90 88 116 118 112 111 99 98 93 89 83 88 91 86 85 98 104 101 116 123 112 128 129 128 111 91 98 98 110 138 129 96 33 1 0 0 0 0 0 0 0 0 0 0 0 0 0 0 0 0 0 0 0 0 0 0 0 0 0 0 0 0 0 0 0 0 0 0 0 0 0 
0 0 0 0 0 0 0 0 0 0 4 9 2 8 42 113 143 134 111 100 97 94 98 104 92 86 94 120 115 106 114 109 98 90 97 100 90 88 84 93 100 105 101 103 103 105 103 113 108 76 85 81 83 91 90 82 86 92 105 113 122 113 109 118 113 107 98 88 95 98 91 95 109 103 105 128 125 117 121 132 135 117 93 95 96 117 134 124 89 27 0 0 0 0 0 0 0 0 0 0 0 0 0 0 0 0 0 0 0 0 0 0 0 0 0 0 0 0 0 0 0 0 0 0 0 0 0 0 
0 0 0 0 0 0 0 0 0 0 2 9 5 8 32 99 137 138 111 100 101 97 96 100 99 87 96 118 117 119 121 115 110 98 95 96 91 91 94 99 102 109 103 109 102 96 100 119 110 76 79 82 81 97 88 79 84 83 93 110 134 110 94 107 116 129 136 124 121 122 122 117 129 122 132 133 118 115 121 132 141 125 100 93 104 128 137 115 81 18 0 0 1 9 3 0 0 0 0 0 0 0 0 0 0 0 0 0 0 0 0 0 0 0 0 0 0 0 0 0 0 0 0 0 0 0 0 0 
0 0 0 0 0 0 0 0 0 0 1 9 7 6 24 88 130 141 114 105 103 98 95 95 102 97 98 118 120 119 123 133 128 124 116 112 111 111 115 109 107 107 89 86 94 103 100 107 103 77 77 84 83 96 84 74 75 78 90 111 129 100 103 106 112 123 144 153 149 144 144 146 134 121 135 138 129 120 117 132 138 123 113 110 108 134 126 110 74 12 1 2 5 0 1 0 0 0 0 0 0 0 0 0 0 0 0 0 0 0 0 0 0 0 0 0 0 0 0 0 0 0 0 0 0 0 0 0 
0 0 0 0 0 0 0 0 0 0 1 9 5 8 20 80 123 145 126 111 101 97 93 93 106 113 104 117 119 117 120 132 121 109 118 130 131 121 113 106 102 103 97 90 88 88 91 97 103 83 80 84 84 100 87 70 78 91 95 121 129 107 102 109 112 127 147 147 145 148 138 146 130 120 133 134 140 135 130 142 132 127 119 126 139 135 115 111 64 9 4 1 4 2 0 0 0 0 0 0 0 0 0 0 0 0 0 0 0 0 0 0 0 0 0 0 0 0 0 0 0 0 0 0 0 0 0 0 
0 0 0 0 0 0 0 0 0 0 1 8 4 9 13 67 115 142 140 115 101 95 98 103 115 112 109 123 118 127 126 136 137 127 119 126 127 120 119 119 111 108 99 96 77 79 90 99 103 104 86 75 84 97 91 83 84 98 104 118 117 114 115 112 116 128 148 143 135 140 139 143 144 146 149 154 148 150 148 157 143 143 143 145 158 137 112 108 51 7 3 3 2 1 0 0 0 0 0 0 0 0 0 0 0 0 0 0 0 0 0 0 0 0 0 0 0 0 0 0 0 0 0 0 0 0 0 0 
0 0 0 0 0 0 0 0 0 0 0 9 6 8 13 54 110 138 149 128 109 106 120 110 122 121 119 130 128 126 122 134 142 149 151 139 135 135 128 114 103 98 105 91 78 72 84 102 109 94 97 87 84 105 96 85 84 98 105 109 121 109 119 114 109 130 156 155 156 159 152 159 156 148 130 138 135 144 154 160 157 164 164 169 173 125 119 100 31 7 4 3 3 0 0 0 0 0 0 0 0 0 0 0 0 0 0 0 0 0 0 0 0 0 0 0 0 0 0 0 0 0 0 0 0 0 0 0 
0 0 0 0 0 0 0 0 0 0 0 9 8 7 8 36 105 135 147 140 135 139 134 132 136 138 138 129 122 124 130 152 157 157 149 135 141 139 138 120 105 102 99 94 90 85 100 111 99 88 91 100 93 118 103 91 88 91 105 112 122 112 108 107 97 120 145 138 142 151 144 145 142 129 133 131 125 147 159 161 170 171 174 169 156 123 113 84 15 6 2 3 3 0 0 0 0 0 0 0 0 0 0 0 0 0 0 0 0 0 0 0 0 0 0 0 0 0 0 0 0 0 0 0 0 0 0 0 
0 0 0 0 0 0 0 0 0 0 0 6 11 7 9 12 60 121 145 142 150 167 170 157 156 147 140 142 129 136 145 154 158 160 155 150 143 145 138 112 105 110 110 102 106 104 104 114 105 97 99 111 102 114 121 99 90 92 98 110 110 101 101 107 103 110 132 131 125 132 114 125 126 112 121 138 138 142 154 142 160 163 158 158 146 116 111 92 19 4 3 3 4 0 0 0 0 0 0 0 0 0 0 0 0 0 0 0 0 0 0 0 0 0 0 0 0 0 0 0 0 0 0 0 0 0 0 0 
0 0 0 0 0 0 0 0 0 0 0 7 11 6 6 10 37 110 145 146 149 165 165 165 161 161 150 148 129 127 128 148 164 163 157 149 146 151 133 106 101 106 108 102 100 106 116 113 102 98 102 106 107 119 115 100 87 85 94 97 94 87 85 103 113 110 119 128 130 121 105 114 106 106 138 150 141 141 133 133 157 164 155 140 129 114 108 64 9 3 7 4 5 0 0 0 0 0 0 0 0 0 0 0 0 0 0 0 0 0 0 0 0 0 0 0 0 0 0 0 0 0 0 0 0 0 0 0 
0 0 0 0 0 0 0 0 0 0 0 7 8 4 4 9 22 90 137 143 143 147 151 142 152 161 154 149 141 136 125 132 142 157 155 146 150 145 130 117 102 94 99 105 91 92 103 103 88 100 98 91 90 110 117 101 77 79 90 85 94 109 110 108 102 99 109 124 123 121 131 122 119 148 155 157 157 154 130 136 141 145 135 124 123 108 103 34 5 2 5 6 4 1 0 0 0 0 0 0 0 0 0 0 0 0 0 0 0 0 0 0 0 0 0 0 0 0 0 0 0 0 0 0 0 0 0 0 
0 0 0 0 0 0 0 0 0 0 0 6 2 2 2 9 17 62 128 143 143 135 148 148 138 144 146 145 136 142 127 121 131 140 141 141 149 143 129 122 102 95 97 92 90 101 105 105 103 100 100 93 87 93 109 115 88 86 92 84 103 118 119 116 102 91 98 98 97 114 121 109 119 148 152 158 165 161 137 138 123 132 132 119 109 107 78 19 8 4 5 6 4 2 0 0 0 0 0 0 0 0 0 0 0 0 0 0 0 0 0 0 0 0 0 0 0 0 0 0 0 0 0 0 0 0 0 0 
0 0 0 0 0 0 0 0 0 0 0 4 3 2 1 5 14 33 110 135 135 129 136 144 140 134 128 133 134 138 145 128 112 114 131 140 147 144 132 110 97 100 103 109 106 106 121 115 118 113 113 103 90 92 118 128 108 101 107 104 104 119 114 124 121 103 87 84 99 112 112 121 134 135 143 155 159 163 152 135 132 138 122 90 96 110 42 13 10 10 6 0 2 3 0 0 0 0 0 0 0 0 0 0 0 0 0 0 0 0 0 0 0 0 0 0 0 0 0 0 0 0 0 0 0 0 0 0 
0 0 0 0 0 0 0 0 0 0 1 3 3 3 0 7 15 18 82 126 131 129 127 140 138 138 134 119 120 135 138 135 120 113 125 140 144 145 119 98 87 97 100 100 100 110 117 125 120 114 132 132 111 107 134 125 103 100 113 107 103 129 125 128 124 109 86 82 89 113 121 129 120 122 146 149 158 164 169 159 139 122 111 79 88 86 21 12 9 13 6 0 3 3 0 0 0 0 0 0 0 0 0 0 0 0 0 0 0 0 0 0 0 0 0 0 0 0 0 0 0 0 0 0 0 0 0 0 
0 0 0 0 0 0 0 0 0 0 1 4 2 3 2 5 13 13 46 115 129 121 128 138 144 147 137 119 133 143 142 123 114 120 111 118 118 118 102 95 95 109 99 104 109 115 122 135 128 122 134 143 147 152 149 132 132 134 132 120 116 143 152 143 126 106 92 85 103 128 109 105 116 122 141 143 156 168 174 166 131 116 99 77 95 57 15 14 8 10 6 1 4 4 0 0 0 0 0 0 0 0 0 0 0 0 0 0 0 0 0 0 0 0 0 0 0 0 0 0 0 0 0 0 0 0 0 0 
0 0 0 0 0 0 0 0 0 0 0 3 5 2 2 5 11 14 25 97 117 118 124 127 146 161 151 141 141 142 141 133 125 118 109 110 106 96 89 99 103 115 111 115 121 131 135 142 144 147 148 149 155 166 172 162 158 150 145 138 140 160 169 144 122 118 119 115 125 118 98 105 122 128 129 145 154 176 170 150 119 98 85 82 94 32 14 15 7 5 7 3 6 3 0 0 0 0 0 0 0 0 0 0 0 0 0 0 0 0 0 0 0 0 0 0 0 0 0 0 0 0 0 0 0 0 0 0 
0 0 0 0 0 0 0 0 0 0 0 2 4 1 2 5 9 13 15 66 109 118 111 121 144 164 163 152 142 139 138 137 126 119 116 119 108 100 98 102 124 120 123 117 126 140 146 151 153 138 134 138 141 145 149 151 146 144 136 127 128 151 168 166 147 140 143 144 145 115 97 100 116 113 108 141 156 177 166 140 113 108 97 100 80 21 10 9 6 4 2 2 4 4 0 0 0 0 0 0 0 0 0 0 0 0 0 0 0 0 0 0 0 0 0 0 0 0 0 0 0 0 0 0 0 0 0 0 
0 0 0 0 0 0 0 0 0 0 1 2 5 2 2 4 9 8 13 38 83 111 108 111 135 152 157 153 144 145 135 142 128 125 119 116 113 114 118 124 130 147 156 154 144 145 151 158 149 140 138 147 150 153 144 143 146 154 147 138 142 151 164 167 169 165 158 157 144 110 92 91 100 107 113 143 162 166 154 123 103 90 101 86 63 18 8 9 6 3 2 1 4 3 0 0 0 0 0 0 0 0 0 0 0 0 0 0 0 0 0 0 0 0 0 0 0 0 0 0 0 0 0 0 0 0 0 0 
0 0 0 0 0 0 0 0 0 0 0 6 12 9 3 2 7 7 10 26 72 111 115 106 121 134 153 152 147 144 135 128 121 115 113 115 114 112 120 128 135 150 164 168 158 154 155 153 154 151 143 156 152 151 143 137 140 147 135 132 140 144 152 163 169 161 151 150 142 105 85 92 108 119 141 156 161 160 139 113 99 75 100 97 58 16 8 6 6 4 2 2 4 3 0 0 0 0 0 0 0 0 0 0 0 0 0 0 0 0 0 0 0 0 0 0 0 0 0 0 0 0 0 0 0 0 0 0 
0 0 0 0 0 0 0 0 0 0 0 3 13 14 8 7 7 9 13 20 62 100 113 107 113 119 149 146 159 136 122 115 115 109 101 105 109 115 115 112 123 137 153 155 160 153 155 154 161 152 148 162 162 157 148 125 126 139 130 126 129 137 148 166 164 158 159 165 150 111 96 97 104 119 153 169 170 165 140 107 83 80 99 88 41 16 6 5 6 3 2 2 4 2 0 0 0 0 0 0 0 0 0 0 0 0 0 0 0 0 0 0 0 0 0 0 0 0 0 0 0 0 0 0 0 0 0 0 
0 0 0 0 0 0 0 0 0 0 0 2 9 11 10 8 9 11 15 15 33 79 113 118 103 109 136 151 167 146 135 130 125 110 91 92 97 103 108 107 108 132 146 145 153 152 147 144 155 157 149 162 159 154 139 119 116 121 126 120 122 139 156 144 165 166 166 170 157 120 90 90 101 128 159 163 167 147 138 93 75 87 82 56 20 16 8 6 7 6 6 6 7 2 2 0 0 0 0 0 0 0 0 0 0 0 0 0 0 0 0 0 0 0 0 0 0 0 0 0 0 0 0 0 0 0 0 0 
0 0 0 0 0 0 0 0 0 0 0 2 11 10 11 9 9 9 13 14 17 51 102 114 107 106 121 152 164 166 153 141 127 117 93 85 90 93 100 110 119 132 140 137 146 149 152 145 143 143 149 151 141 152 147 124 121 125 128 122 137 155 147 160 171 168 157 167 161 124 120 123 134 146 140 140 121 104 107 84 75 93 87 36 11 9 9 7 5 8 3 5 13 6 1 0 0 0 0 0 0 0 0 0 0 0 0 0 0 0 0 0 0 0 0 0 0 0 0 0 0 0 0 0 0 0 0 0 
0 0 0 0 0 0 0 0 0 0 0 0 10 11 6 8 5 6 9 15 18 27 71 100 100 95 111 145 144 162 160 151 135 136 118 105 104 109 112 128 118 156 168 154 153 161 157 158 168 172 168 154 158 165 170 161 153 154 152 150 155 165 166 173 164 164 142 167 161 163 143 151 142 136 106 85 85 88 93 80 93 100 55 18 10 3 3 6 5 4 6 7 9 4 0 0 0 0 0 0 0 0 0 0 0 0 0 0 0 0 0 0 0 0 0 0 0 0 0 0 0 0 0 0 0 0 0 0 
0 0 0 0 0 0 0 0 0 0 0 0 4 7 4 2 3 2 5 12 18 19 38 86 91 77 89 103 93 141 146 151 147 149 135 119 123 127 127 139 164 172 177 177 184 191 179 183 191 181 178 180 178 170 173 171 177 180 179 181 183 196 206 200 186 191 176 194 151 128 142 135 105 79 71 86 81 81 88 72 68 48 30 22 13 3 1 2 3 4 3 5 7 1 0 0 0 0 0 0 0 0 0 0 0 0 0 0 0 0 0 0 0 0 0 0 0 0 0 0 0 0 0 0 0 0 0 0 
0 0 0 0 0 0 0 0 0 0 0 0 0 3 3 1 1 1 0 8 14 20 26 51 71 82 75 61 53 80 103 117 136 129 117 112 117 145 162 177 164 170 189 178 189 179 185 179 180 165 145 148 153 151 152 147 148 159 164 163 155 174 200 179 138 174 184 166 156 156 132 108 89 66 56 92 106 91 74 52 39 37 37 26 18 1 1 1 1 1 1 6 8 0 0 0 0 0 0 0 0 0 0 0 0 0 0 0 0 0 0 0 0 0 0 0 0 0 0 0 0 0 0 0 0 0 0 0 
0 0 0 0 0 0 0 0 0 0 0 0 0 2 4 5 4 3 3 4 9 14 19 21 36 51 39 47 63 69 61 61 90 81 82 88 76 72 81 82 94 129 153 151 126 116 118 115 122 103 83 96 112 104 105 108 92 89 104 91 87 112 106 140 140 166 120 84 60 61 59 61 61 56 51 72 84 80 49 29 28 25 18 8 2 1 4 3 3 2 1 8 5 0 0 0 0 0 0 0 0 0 0 0 0 0 0 0 0 0 0 0 0 0 0 0 0 0 0 0 0 0 0 0 0 0 0 0 
0 0 0 0 0 0 0 0 0 0 0 0 0 0 3 3 3 2 3 2 7 10 12 16 21 21 22 39 65 75 58 56 68 54 55 71 68 58 72 77 85 92 95 95 96 95 77 62 60 70 52 72 82 79 78 79 67 58 72 65 79 96 91 82 80 97 85 121 121 110 61 49 54 62 59 72 85 78 48 28 27 23 16 7 2 1 2 2 2 2 3 5 1 0 0 0 0 0 0 0 0 0 0 0 0 0 0 0 0 0 0 0 0 0 0 0 0 0 0 0 0 0 0 0 0 0 0 0 
0 0 0 0 0 0 0 0 0 0 0 0 0 0 0 0 1 0 0 0 4 10 11 15 20 24 28 38 72 79 63 61 71 59 59 68 77 96 103 110 137 142 111 99 103 102 88 89 101 95 67 76 84 79 76 82 86 82 98 104 103 114 107 102 123 141 95 70 119 91 86 68 62 85 82 84 85 81 44 30 27 20 12 10 1 0 0 1 1 1 1 0 0 0 0 0 0 0 0 0 0 0 0 0 0 0 0 0 0 0 0 0 0 0 0 0 0 0 0 0 0 0 0 0 0 0 0 0 
0 0 0 0 0 0 0 0 0 0 0 0 0 0 0 0 0 0 0 0 0 5 6 8 20 28 34 39 72 87 78 74 89 83 70 78 89 115 126 129 159 160 133 119 138 154 150 153 144 132 125 127 125 124 116 121 117 97 95 130 143 149 147 152 152 152 99 108 108 113 121 109 93 89 83 80 73 72 42 37 28 24 15 13 0 0 0 0 0 0 0 0 0 0 0 0 0 0 0 0 0 0 0 0 0 0 0 0 0 0 0 0 0 0 0 0 0 0 0 0 0 0 0 0 0 0 0 0 
0 0 0 0 0 0 0 0 0 0 0 0 0 0 0 0 0 0 0 0 0 3 4 4 10 25 31 27 53 66 69 70 81 82 79 92 91 127 136 109 134 155 159 160 171 182 171 189 170 161 158 153 172 172 161 152 147 141 138 148 153 173 158 149 148 142 140 116 131 142 129 125 103 90 75 76 80 68 33 20 12 5 1 2 0 0 0 0 0 0 0 0 0 0 0 0 0 0 0 0 0 0 0 0 0 0 0 0 0 0 0 0 0 0 0 0 0 0 0 0 0 0 0 0 0 0 0 0 
0 0 0 0 0 0 0 0 0 0 0 0 0 0 0 0 0 0 0 0 0 1 4 3 7 17 24 32 51 66 76 66 77 74 62 64 64 92 120 101 114 118 127 112 129 151 154 171 168 157 162 151 158 147 144 137 139 144 133 129 136 129 109 125 130 105 115 145 137 137 115 67 56 67 63 80 79 50 23 16 11 9 8 0 1 2 3 3 2 1 0 0 0 0 0 0 0 0 0 0 0 0 0 0 0 0 0 0 0 0 0 0 0 0 0 0 0 0 0 0 0 0 0 0 0 0 0 0 
0 0 0 0 0 0 0 0 0 0 0 0 0 0 0 0 0 0 0 0 0 0 5 7 8 15 21 22 36 50 67 60 67 63 50 61 53 53 102 120 104 108 105 89 110 141 121 130 115 131 134 106 118 96 106 95 103 108 107 111 112 133 132 103 137 120 122 102 136 131 97 66 50 51 67 95 79 47 21 15 16 17 8 1 0 0 2 2 2 1 0 0 0 0 0 0 0 0 0 0 0 0 0 0 0 0 0 0 0 0 0 0 0 0 0 0 0 0 0 0 0 0 0 0 0 0 0 0 
0 0 0 0 0 0 0 0 0 0 0 0 0 0 0 0 0 0 0 0 0 0 2 7 9 12 20 21 29 42 64 72 76 66 55 67 62 66 88 101 96 104 100 94 104 119 134 136 112 110 107 94 96 87 85 82 99 103 100 88 100 118 114 103 102 106 121 121 118 107 95 71 56 52 74 101 83 52 22 19 19 13 7 0 0 0 1 2 2 1 0 0 0 0 0 0 0 0 0 0 0 0 0 0 0 0 0 0 0 0 0 0 0 0 0 0 0 0 0 0 0 0 0 0 0 0 0 0 
0 0 0 0 0 0 0 0 0 0 0 0 0 0 0 0 0 0 0 0 0 0 0 5 8 10 17 22 24 40 60 73 76 66 67 61 40 55 78 96 87 86 88 91 93 110 124 131 125 106 108 109 105 101 92 91 108 100 103 106 107 116 112 104 96 96 108 108 96 88 76 55 63 74 91 104 83 53 24 20 16 11 5 0 0 0 1 2 2 1 0 0 0 0 0 0 0 0 0 0 0 0 0 0 0 0 0 0 0 0 0 0 0 0 0 0 0 0 0 0 0 0 0 0 0 0 0 0 
0 0 0 0 0 0 0 0 0 0 0 0 0 0 0 0 0 0 0 0 0 0 0 4 6 8 14 20 22 35 57 69 77 69 70 53 44 64 59 55 72 73 94 96 90 99 105 127 136 113 113 117 116 108 98 101 111 104 109 117 111 133 125 109 100 96 97 102 108 89 78 64 48 67 102 108 78 47 28 19 13 10 3 0 0 0 1 2 2 1 0 0 0 0 0 0 0 0 0 0 0 0 0 0 0 0 0 0 0 0 0 0 0 0 0 0 0 0 0 0 0 0 0 0 0 0 0 0 
0 0 0 0 0 0 0 0 0 0 0 0 0 0 0 0 0 0 0 0 0 0 0 0 6 7 11 16 20 26 45 58 75 73 70 56 59 54 43 63 65 71 94 98 97 97 89 109 130 117 118 109 99 103 99 104 102 100 95 112 122 132 129 107 105 101 96 96 87 96 75 73 58 62 97 106 82 51 26 17 14 8 2 0 0 0 2 2 3 2 1 0 0 0 0 0 0 0 0 0 0 0 0 0 0 0 0 0 0 0 0 0 0 0 0 0 0 0 0 0 0 0 0 0 0 0 0 0 
0 0 0 0 0 0 0 0 0 0 0 0 0 0 0 0 0 0 0 0 0 0 0 0 2 6 9 12 18 22 35 47 73 75 69 62 69 46 52 66 57 77 83 98 107 97 77 82 113 118 117 100 85 88 94 97 93 95 90 98 115 120 106 95 109 105 99 86 84 79 76 63 72 72 94 102 78 47 19 16 15 8 1 0 0 0 1 2 2 2 1 0 0 0 0 0 0 0 0 0 0 0 0 0 0 0 0 0 0 0 0 0 0 0 0 0 0 0 0 0 0 0 0 0 0 0 0 0 
0 0 0 0 0 0 0 0 0 0 0 0 0 0 0 0 0 0 0 0 0 0 0 0 1 5 6 11 15 19 31 47 64 72 73 79 70 49 61 53 59 69 78 98 98 96 80 82 101 110 115 92 82 76 85 91 89 87 87 97 103 115 92 79 89 96 99 73 74 68 72 66 83 81 99 84 46 22 17 17 16 8 1 0 0 0 1 2 2 2 1 0 0 0 0 0 0 0 0 0 0 0 0 0 0 0 0 0 0 0 0 0 0 0 0 0 0 0 0 0 0 0 0 0 0 0 0 0 
0 0 0 0 0 0 0 0 0 0 0 0 0 0 0 0 0 0 0 0 0 0 0 0 0 2 6 7 15 18 21 32 41 43 74 88 65 54 68 47 53 66 78 79 89 96 87 85 96 110 115 91 83 83 87 94 97 96 100 97 105 110 83 76 85 92 87 68 68 63 63 73 77 88 100 44 16 15 17 18 15 8 1 0 0 0 0 2 2 2 1 0 0 0 0 0 0 0 0 0 0 0 0 0 0 0 0 0 0 0 0 0 0 0 0 0 0 0 0 0 0 0 0 0 0 0 0 0 
0 0 0 0 0 0 0 0 0 0 0 0 0 0 0 0 0 0 0 0 0 0 0 0 0 0 6 5 11 16 20 19 18 16 33 74 69 67 69 62 60 61 64 71 82 78 83 86 95 116 108 92 85 87 89 97 109 101 90 84 104 102 89 80 83 83 77 63 64 69 72 84 79 85 71 21 14 14 16 17 13 7 1 0 0 0 1 2 2 2 1 0 0 0 0 0 0 0 0 0 0 0 0 0 0 0 0 0 0 0 0 0 0 0 0 0 0 0 0 0 0 0 0 0 0 0 0 0 
0 0 0 0 0 0 0 0 0 0 0 0 0 0 0 0 0 0 0 0 0 0 0 0 0 0 1 7 7 13 19 18 16 17 14 40 75 73 78 80 60 62 60 77 94 75 80 83 106 118 98 88 93 94 95 92 101 102 86 86 110 109 102 101 95 77 92 72 67 71 89 93 85 73 36 18 14 14 15 16 12 6 1 0 0 0 0 1 2 2 1 0 0 0 0 0 0 0 0 0 0 0 0 0 0 0 0 0 0 0 0 0 0 0 0 0 0 0 0 0 0 0 0 0 0 0 0 0 
0 0 0 0 0 0 0 0 0 0 0 0 0 0 0 0 0 0 0 0 0 0 0 0 0 0 0 3 6 10 17 20 16 17 16 14 40 71 87 84 63 68 63 86 96 82 87 73 90 116 99 83 82 88 96 105 114 109 96 101 111 114 106 95 95 77 100 87 75 79 95 100 72 37 25 18 14 15 16 15 11 6 1 0 0 0 0 1 2 2 1 0 0 0 0 0 0 0 0 0 0 0 0 0 0 0 0 0 0 0 0 0 0 0 0 0 0 0 0 0 0 0 0 0 0 0 0 0 
0 0 0 0 0 0 0 0 0 0 0 0 0 0 0 0 0 0 0 0 0 0 0 0 0 0 0 2 5 7 11 18 17 17 14 14 20 30 55 76 75 79 79 98 104 88 88 82 92 117 105 87 94 99 99 105 111 110 103 104 101 104 103 97 97 89 107 106 87 86 87 68 34 25 24 18 15 15 15 14 11 6 1 0 0 0 0 1 2 2 1 0 0 0 0 0 0 0 0 0 0 0 0 0 0 0 0 0 0 0 0 0 0 0 0 0 0 0 0 0 0 0 0 0 0 0 0 0 
0 0 0 0 0 0 0 0 0 0 0 0 0 0 0 0 0 0 0 0 0 0 0 0 0 0 0 0 4 6 9 15 18 17 16 14 20 23 27 50 75 80 88 100 107 101 95 98 110 116 100 87 91 100 103 108 112 107 105 108 113 113 118 111 104 100 112 113 89 81 63 35 28 26 21 17 16 14 15 13 11 5 1 0 0 0 0 1 2 2 1 0 0 0 0 0 0 0 0 0 0 0 0 0 0 0 0 0 0 0 0 0 0 0 0 0 0 0 0 0 0 0 0 0 0 0 0 0 
0 0 0 0 0 0 0 0 0 0 0 0 0 0 0 0 0 0 0 0 0 0 0 0 0 0 0 0 1 7 6 12 17 17 17 13 15 21 24 27 41 63 79 88 102 106 112 110 114 114 106 93 98 101 101 108 110 104 102 107 110 108 119 111 108 102 108 104 79 51 32 28 26 23 20 18 14 14 13 13 10 5 1 0 0 0 0 1 2 2 1 0 0 0 0 0 0 0 0 0 0 0 0 0 0 0 0 0 0 0 0 0 0 0 0 0 0 0 0 0 0 0 0 0 0 0 0 0 
0 0 0 0 0 0 0 0 0 0 0 0 0 0 0 0 0 0 0 0 0 0 0 0 0 0 0 0 0 7 5 10 15 18 17 13 13 22 25 29 31 34 38 52 81 96 97 100 102 110 107 108 113 104 104 106 104 105 109 103 101 104 120 107 103 99 86 62 43 36 30 28 24 22 17 17 14 15 14 11 9 4 1 0 0 0 0 1 2 2 1 0 0 0 0 0 0 0 0 0 0 0 0 0 0 0 0 0 0 0 0 0 0 0 0 0 0 0 0 0 0 0 0 0 0 0 0 0 
0 0 0 0 0 0 0 0 0 0 0 0 0 0 0 0 0 0 0 0 0 0 0 0 0 0 0 0 0 3 6 7 13 16 17 14 14 19 25 28 29 33 30 34 49 71 83 86 85 101 104 109 114 108 105 104 104 103 109 112 106 100 103 90 87 72 51 50 43 36 27 26 25 22 17 14 15 15 14 11 9 3 1 0 0 0 0 1 2 2 1 0 0 0 0 0 0 0 0 0 0 0 0 0 0 0 0 0 0 0 0 0 0 0 0 0 0 0 0 0 0 0 0 0 0 0 0 0 
