P2
128 99
225
0 0 0 0 0 0 0 0 0 0 0 0 0 0 0 0 0 0 0 0 0 0 0 0 0 0 0 0 0 0 0 0 0 0 0 0 0 0 0 0 0 0 0 0 0 0 0 0 0 0 0 0 0 0 0 0 0 0 0 0 0 0 0 0 0 0 0 0 0 0 0 0 0 0 0 0 0 1 1 0 0 0 0 0 0 0 0 0 0 0 0 0 0 0 0 0 0 0 0 0 0 0 0 0 0 0 0 0 0 0 0 0 0 0 0 0 0 0 0 0 0 0 0 0 0 0 0 0 
0 0 0 0 0 0 0 0 0 0 0 0 0 0 0 0 0 0 0 0 0 0 0 0 0 0 0 0 0 0 0 0 0 0 0 0 0 0 0 0 0 0 0 0 0 0 0 0 0 0 0 0 0 0 0 0 0 0 0 0 0 0 0 0 0 1 0 0 0 0 0 0 0 0 0 0 0 1 1 0 0 0 0 0 0 0 0 0 0 0 0 0 0 0 0 0 0 0 0 0 0 0 0 0 0 0 0 0 0 0 0 0 0 0 0 0 0 0 0 0 0 0 0 0 0 0 0 0 
0 0 0 0 0 0 0 0 0 0 0 0 0 0 0 0 0 0 0 0 0 0 0 0 0 0 0 0 0 0 0 0 0 0 0 0 0 0 0 0 0 0 0 0 0 0 0 0 0 0 0 1 2 4 2 0 0 0 0 0 0 0 0 1 0 1 0 0 0 0 0 0 0 0 0 0 0 1 1 1 0 0 0 0 0 0 0 0 0 0 0 0 0 0 0 0 0 0 0 0 0 0 0 0 0 0 0 0 0 0 0 0 0 0 0 0 0 0 0 0 0 0 0 0 0 0 0 0 
0 0 0 0 0 0 0 0 0 0 0 0 0 0 0 0 0 0 0 0 0 0 0 0 0 0 0 0 0 0 0 0 0 0 0 0 0 0 0 0 0 0 0 1 5 14 17 17 15 18 23 27 30 29 27 25 22 17 13 12 5 0 1 1 1 0 0 0 0 0 0 0 0 0 0 0 0 1 1 1 0 0 0 0 0 0 0 0 0 0 0 0 0 0 0 0 0 0 0 0 0 0 0 0 0 0 0 0 0 0 0 0 0 0 0 0 0 0 0 0 0 0 0 0 0 0 0 0 
0 0 0 0 0 0 0 0 0 0 0 0 0 0 0 0 0 0 0 0 0 0 0 0 0 0 0 0 0 0 0 0 0 0 0 0 0 0 0 0 6 13 17 21 23 33 52 73 96 115 128 137 141 143 141 134 121 102 76 52 35 23 17 12 4 1 0 0 0 0 0 0 0 0 0 0 0 0 0 0 0 0 0 0 0 0 0 0 0 0 0 0 0 0 0 0 0 0 0 0 0 0 0 0 0 0 0 0 0 0 0 0 0 0 0 0 0 0 0 0 0 0 0 0 0 0 0 0 
0 0 0 0 0 0 0 0 0 0 0 0 0 0 0 0 0 0 0 0 0 0 0 0 0 0 0 0 0 0 0 0 0 0 0 0 0 0 8 15 22 22 37 68 106 136 154 167 174 176 173 170 168 166 165 167 167 168 168 164 145 111 74 44 26 16 11 2 0 0 0 0 0 0 0 0 0 0 1 0 0 0 0 0 0 0 0 0 0 0 0 0 0 0 0 0 0 0 0 0 0 0 0 0 0 0 0 0 0 0 0 0 0 0 0 0 0 0 0 0 0 0 0 0 0 0 0 0 
0 0 0 0 0 0 0 0 0 0 0 0 0 0 0 0 0 0 0 0 0 0 0 0 0 0 0 0 0 0 0 0 0 0 0 0 8 22 22 23 56 100 139 159 176 180 176 176 182 187 188 188 188 188 186 185 184 181 178 172 166 166 167 150 117 70 39 19 14 2 0 0 0 0 0 0 0 0 0 0 0 0 0 0 0 0 0 0 0 0 0 0 0 0 0 0 0 0 0 0 0 0 0 0 0 0 0 0 0 0 0 0 0 0 0 0 0 0 0 0 0 0 0 0 0 0 0 0 
0 0 0 0 0 0 0 0 0 0 0 0 0 0 0 0 0 0 0 0 0 0 0 0 0 0 0 0 0 0 0 0 0 0 7 24 21 28 63 118 152 172 183 181 177 181 185 175 166 161 166 177 176 162 159 172 183 186 186 185 182 177 170 165 168 165 142 91 45 23 13 1 0 0 0 0 0 0 0 0 0 0 0 0 0 0 0 0 0 0 0 0 0 0 0 0 0 0 0 0 0 0 0 0 0 0 0 0 0 0 0 0 0 0 0 0 0 0 0 0 0 0 0 0 0 0 0 0 
0 0 0 0 0 0 0 0 0 0 0 0 0 0 0 0 0 0 0 0 0 0 0 0 0 0 0 0 0 0 0 0 6 25 27 26 59 119 154 173 181 173 174 182 180 174 161 154 160 170 172 169 162 156 160 166 174 188 198 199 190 184 182 179 175 166 163 167 148 96 44 24 10 0 0 0 0 0 0 0 0 0 0 0 0 0 0 0 0 0 0 0 0 0 0 0 0 0 0 0 0 0 0 0 0 0 0 0 0 0 0 0 0 0 0 0 0 0 0 0 0 0 0 0 0 0 0 0 
0 0 0 0 0 0 0 0 0 0 0 0 0 0 0 0 0 0 0 0 0 0 0 0 0 0 0 0 0 0 0 24 29 21 41 107 153 168 176 171 173 185 182 163 153 162 164 148 130 120 127 135 136 125 124 131 130 136 155 184 206 210 200 189 182 181 177 166 164 168 141 74 30 18 3 0 0 0 0 0 0 0 0 0 0 0 0 0 0 0 0 0 0 0 0 0 0 0 0 0 0 0 0 0 0 0 0 0 0 0 0 0 0 0 0 0 0 0 0 0 0 0 0 0 0 0 0 0 
0 0 0 0 0 0 0 0 0 0 0 0 0 0 0 0 0 0 0 0 0 0 0 0 0 0 0 0 0 10 30 21 24 80 146 166 175 168 171 182 185 176 165 167 159 143 125 111 110 112 120 129 129 129 128 131 133 127 119 123 148 171 194 209 209 196 184 182 178 169 168 163 113 44 23 6 0 0 0 0 0 0 0 0 0 0 0 0 0 0 0 0 0 0 0 0 0 0 0 0 0 0 0 0 0 0 0 0 0 0 0 0 0 0 0 0 0 0 0 0 0 0 0 0 0 0 0 0 
0 0 0 0 0 0 0 0 0 0 0 0 0 0 0 0 0 0 0 0 0 0 0 0 0 0 0 0 23 24 15 47 123 160 170 170 170 181 186 184 179 169 156 144 140 135 135 142 144 151 140 137 135 139 150 149 151 154 152 144 142 152 159 169 185 200 209 200 183 183 181 169 169 143 66 23 10 0 0 0 0 0 0 0 0 0 0 0 0 0 0 0 0 0 0 0 0 0 0 0 0 0 0 0 0 0 0 0 0 0 0 0 0 0 0 0 0 0 0 0 0 0 0 0 0 0 0 0 
0 0 0 0 0 0 0 0 0 0 0 0 0 0 0 0 0 0 0 0 0 0 0 0 0 0 5 28 19 19 73 143 165 173 170 182 184 188 187 173 155 150 146 151 149 149 146 135 132 125 115 114 109 103 115 130 132 134 140 146 153 162 168 169 168 174 183 196 210 198 182 183 174 167 154 83 25 13 0 0 0 0 0 0 0 0 0 0 0 0 0 0 0 0 0 0 0 0 0 0 0 0 0 0 0 0 0 0 0 0 0 0 0 0 0 0 0 0 0 0 0 0 0 0 0 0 0 0 
0 0 0 0 0 0 0 0 0 0 0 0 0 0 0 0 0 0 0 0 0 0 0 0 0 10 27 17 25 95 152 169 175 179 184 188 193 181 163 155 154 156 154 151 148 145 139 128 118 111 111 108 105 106 113 130 134 134 130 129 130 136 153 165 174 177 174 174 183 200 208 189 180 177 166 156 93 26 15 1 0 0 0 0 0 0 0 0 0 0 0 0 0 0 0 0 0 0 0 0 0 0 0 0 0 0 0 0 0 0 0 0 0 0 0 0 0 0 0 0 0 0 0 0 0 0 0 0 
0 0 0 0 0 0 0 0 0 0 0 0 0 0 0 0 0 0 0 0 0 0 0 0 14 24 15 32 112 158 172 176 183 185 185 190 172 155 156 155 153 148 145 136 127 129 134 126 126 129 127 118 119 132 136 136 144 148 144 140 135 125 124 135 150 160 171 176 169 170 188 208 197 178 175 166 159 101 32 15 0 0 0 0 0 0 0 0 0 0 0 0 0 0 0 0 0 0 0 0 0 0 0 0 0 0 0 0 0 0 0 0 0 0 0 0 0 0 0 0 0 0 0 0 0 0 0 0 
0 0 0 0 0 0 0 0 0 0 0 0 0 0 0 0 0 0 0 0 0 0 4 18 22 14 42 125 160 174 174 183 184 185 186 163 155 159 152 142 140 139 125 114 118 117 120 134 135 140 146 152 152 160 164 160 157 161 170 173 165 153 134 126 129 136 147 156 170 171 161 175 204 201 178 174 169 161 111 38 13 0 0 0 0 0 0 0 0 0 0 0 0 0 0 0 0 0 0 0 0 0 0 0 0 0 0 0 0 0 0 0 0 0 0 0 0 0 0 0 0 0 0 0 0 0 0 0 
0 0 0 0 0 0 0 0 0 0 0 0 0 0 0 0 0 0 0 0 0 6 16 18 15 51 133 155 173 175 183 183 185 183 153 152 153 140 131 136 141 139 139 149 148 144 142 132 133 131 126 129 125 125 130 129 122 125 136 155 170 173 170 160 144 133 128 140 148 159 169 158 164 196 202 181 177 172 160 118 40 9 0 0 0 0 0 0 0 0 0 0 0 0 0 0 0 0 0 0 0 0 0 0 0 0 0 0 0 0 0 0 0 0 0 0 0 0 0 0 0 0 0 0 0 0 0 0 
0 0 0 0 0 0 0 0 0 0 0 0 0 0 0 0 0 0 0 0 7 17 16 18 67 142 153 174 178 184 179 183 171 147 149 143 129 130 142 155 162 157 149 139 133 127 115 113 118 114 107 107 105 102 102 106 102 99 105 113 126 142 160 168 167 157 138 126 125 133 147 162 157 154 187 193 180 176 174 158 118 36 5 0 0 0 0 0 0 0 0 0 0 0 0 0 0 0 0 0 0 0 0 0 0 0 0 0 0 0 0 0 0 0 0 0 0 0 0 0 0 0 0 0 0 0 0 0 
0 0 0 0 0 0 0 0 0 0 0 0 0 0 0 0 0 0 0 6 16 14 18 75 146 152 169 177 182 179 185 165 141 140 138 128 133 147 152 153 140 125 123 118 113 105 100 101 101 100 103 102 100 100 98 96 94 94 95 95 96 103 115 133 150 160 160 149 130 119 125 141 159 156 156 184 192 182 177 172 155 111 25 3 0 0 0 0 0 0 0 0 0 0 0 0 0 0 0 0 0 0 0 0 0 0 0 0 0 0 0 0 0 0 0 0 0 0 0 0 0 0 0 0 0 0 0 0 
0 0 0 0 0 0 0 0 0 0 0 0 0 0 0 0 0 0 5 16 13 19 79 145 154 165 174 180 175 181 160 133 132 137 132 135 140 150 145 128 120 115 106 102 100 100 99 102 103 109 110 102 102 110 107 106 105 103 102 98 93 92 93 98 113 136 157 159 153 130 117 121 141 152 150 154 183 190 185 172 174 149 98 17 2 0 0 0 0 0 0 0 0 0 0 0 0 0 0 0 0 0 0 0 0 0 0 0 0 0 0 0 0 0 0 0 0 0 0 0 0 0 0 0 0 0 0 0 
0 0 0 0 0 0 0 0 0 0 0 0 0 0 0 0 0 3 14 11 20 73 138 154 158 177 181 176 179 157 130 133 137 133 128 129 145 141 122 115 106 99 99 98 100 100 99 101 106 105 87 85 87 106 109 106 106 103 99 98 103 97 95 90 92 106 131 156 162 147 122 113 121 142 151 147 156 185 190 180 173 167 143 79 10 0 0 0 0 0 0 0 0 0 0 0 0 0 0 0 0 0 0 0 0 0 0 0 0 0 0 0 0 0 0 0 0 0 0 0 0 0 0 0 0 0 0 0 
0 0 0 0 0 0 0 0 0 0 0 0 0 0 0 0 0 11 11 16 68 131 151 155 174 180 177 173 156 125 129 137 133 127 126 143 140 116 110 101 94 92 94 95 95 96 98 100 97 69 71 79 78 83 96 97 100 102 105 108 106 99 98 93 88 93 105 131 156 163 132 106 111 120 141 145 141 162 185 187 179 176 158 131 52 5 0 0 0 0 0 0 0 0 0 0 0 0 0 0 0 0 0 0 0 0 0 0 0 0 0 0 0 0 0 0 0 0 0 0 0 0 0 0 0 0 0 0 
0 0 0 0 0 0 0 0 0 0 0 0 0 0 0 0 5 13 14 63 120 145 153 171 176 176 165 162 127 128 139 128 117 123 136 139 121 110 99 89 86 89 93 92 87 84 86 87 77 71 77 83 84 86 90 97 105 107 101 94 92 101 101 97 92 89 93 107 129 156 158 119 97 110 121 142 140 135 167 176 183 175 172 146 106 26 2 0 0 0 0 0 0 0 0 0 0 0 0 0 0 0 0 0 0 0 0 0 0 0 0 0 0 0 0 0 0 0 0 0 0 0 0 0 0 0 0 0 
0 0 0 0 0 0 0 0 0 0 0 0 0 0 0 1 11 12 51 111 137 148 162 177 170 163 159 127 124 144 128 114 123 132 131 114 108 101 92 95 91 82 73 72 75 80 86 91 89 85 92 98 103 106 109 109 113 113 109 106 102 103 102 96 88 88 88 95 109 131 155 151 113 101 112 129 149 135 141 164 177 178 174 159 134 75 7 0 0 0 0 0 0 0 0 0 0 0 0 0 0 0 0 0 0 0 0 0 0 0 0 0 0 0 0 0 0 0 0 0 0 0 0 0 0 0 0 0 
0 0 0 0 0 0 0 0 0 0 0 0 0 0 0 6 11 24 99 130 143 156 172 172 160 148 132 119 135 137 114 117 124 123 115 101 105 97 100 90 82 82 87 90 94 98 105 108 102 99 101 106 107 107 109 111 114 117 117 117 118 113 111 104 93 84 85 88 99 115 135 153 138 109 103 117 141 139 135 151 151 177 177 164 153 113 29 2 0 0 0 0 0 0 0 0 0 0 0 0 0 0 0 0 0 0 0 0 0 0 0 0 0 0 0 0 0 0 0 0 0 0 0 0 0 0 0 0 
0 0 0 0 0 0 0 0 0 0 0 0 0 0 2 8 12 74 120 134 151 161 170 168 147 135 120 123 139 119 113 115 115 121 113 108 109 105 98 92 91 96 105 111 114 109 116 115 109 104 106 108 105 105 106 107 110 111 115 120 122 122 117 112 103 91 79 77 87 101 114 144 152 131 102 103 123 140 131 149 128 161 176 170 158 131 66 3 0 0 0 0 0 0 0 0 0 0 0 0 0 0 0 0 0 0 0 0 0 0 0 0 0 0 0 0 0 0 0 0 0 0 0 0 0 0 0 0 
0 0 0 0 0 0 0 0 0 0 0 0 0 0 6 11 37 107 126 140 155 158 164 163 126 132 116 131 129 118 112 107 118 114 119 117 114 106 98 95 101 109 116 119 116 114 111 108 104 104 105 107 104 100 92 99 109 108 109 111 114 119 123 120 112 105 93 81 76 89 97 121 147 148 123 108 114 130 130 144 130 144 166 176 156 146 100 18 0 0 0 0 0 0 0 0 0 0 0 0 0 0 0 0 0 0 0 0 0 0 0 0 0 0 0 0 0 0 0 0 0 0 0 0 0 0 0 0 
0 0 0 0 0 0 0 0 0 0 0 0 0 0 9 16 79 118 130 154 154 152 163 140 126 128 116 138 126 117 103 114 115 119 128 122 112 99 97 100 107 112 113 110 108 108 107 107 106 105 105 102 100 92 92 103 110 111 110 107 109 111 115 118 118 116 110 93 80 76 89 112 125 148 147 123 115 122 122 135 136 135 159 174 159 153 115 38 2 0 0 0 0 0 0 0 0 0 0 0 0 0 0 0 0 0 0 0 0 0 0 0 0 0 0 0 0 0 0 0 0 0 0 0 0 0 0 0 
0 0 0 0 0 0 0 0 0 0 0 0 0 4 9 36 103 121 141 154 149 163 152 126 124 119 121 138 122 106 115 123 121 130 126 116 99 94 98 106 110 109 107 106 107 108 108 109 110 106 102 99 105 98 106 114 113 112 113 110 107 107 106 106 110 118 118 108 93 78 76 99 112 130 153 141 124 121 115 122 139 132 148 174 161 156 126 55 2 0 0 0 0 0 0 0 0 0 0 0 0 0 0 0 0 0 0 0 0 0 0 0 0 0 0 0 0 0 0 0 0 0 0 0 0 0 0 0 
0 0 0 0 0 0 0 0 0 0 0 0 0 4 12 62 116 122 153 150 150 154 137 116 128 117 129 134 109 110 126 120 124 128 114 94 89 95 108 111 107 106 106 110 109 111 114 113 116 114 109 107 108 110 114 116 113 113 112 110 108 106 105 104 102 109 120 119 107 86 75 90 104 112 138 153 134 121 113 107 134 133 138 168 166 150 136 70 5 0 0 0 0 0 0 0 0 0 0 0 0 0 0 0 0 0 0 0 0 0 0 0 0 0 0 0 0 0 0 0 0 0 0 0 0 0 0 0 
0 0 0 0 0 0 0 0 0 0 0 0 0 6 16 87 122 128 157 146 146 139 132 108 124 121 138 118 94 118 128 124 128 120 102 90 94 108 113 109 105 94 93 100 108 113 114 115 118 118 115 115 112 114 118 118 114 115 114 113 108 107 109 107 102 100 112 122 119 102 83 86 96 105 123 149 139 123 114 104 132 133 134 160 168 156 149 86 9 0 0 0 0 0 0 0 0 0 0 0 0 0 0 0 0 0 0 0 0 0 0 0 0 0 0 0 0 0 0 0 0 0 0 0 0 0 0 0 
0 0 0 0 0 0 0 0 0 0 0 0 0 7 28 108 123 143 154 138 132 135 127 108 123 129 129 93 87 117 125 123 124 110 93 95 109 112 109 98 93 94 95 96 95 105 113 116 124 131 132 131 133 137 138 133 132 131 126 123 116 110 104 106 105 99 102 114 128 125 101 93 91 94 108 139 134 132 116 102 125 135 136 151 168 152 148 102 16 0 0 0 0 0 0 0 0 0 0 0 0 0 0 0 0 0 0 0 0 0 0 0 0 0 0 0 0 0 0 0 0 0 0 0 0 0 0 0 
0 0 0 0 0 0 0 0 0 0 0 0 2 8 42 113 126 152 146 136 129 128 121 115 129 128 105 83 86 118 120 122 119 106 101 111 114 111 95 86 93 93 93 93 97 113 129 133 144 153 156 155 156 157 153 147 148 151 149 135 113 104 101 97 91 98 101 109 133 144 131 106 94 89 94 126 121 132 119 101 118 132 137 147 169 157 148 113 27 1 0 0 0 0 0 0 0 0 0 0 0 0 0 0 0 0 0 0 0 0 0 0 0 0 0 0 0 0 0 0 0 0 0 0 0 0 0 0 
0 0 0 0 0 0 0 0 0 0 0 0 3 8 56 118 128 154 137 136 126 122 121 122 132 110 89 85 83 118 123 125 117 111 110 112 110 107 93 89 90 91 96 98 105 115 138 144 148 150 157 156 151 136 129 119 119 136 146 139 128 113 103 99 96 92 95 115 131 145 148 127 103 90 88 111 109 125 121 102 115 137 143 143 172 163 147 127 38 2 0 0 0 0 0 0 0 0 0 0 0 0 0 0 0 0 0 0 0 0 0 0 0 0 0 0 0 0 0 0 0 0 0 0 0 0 0 0 
0 0 0 0 0 0 0 0 0 0 0 0 3 9 69 120 131 149 136 139 125 115 118 130 131 94 86 82 80 123 125 121 121 119 113 110 100 102 104 92 92 94 96 102 112 122 131 143 143 135 140 145 135 112 99 91 83 99 122 136 134 121 109 103 100 98 105 126 122 133 145 146 121 95 83 89 91 118 121 107 110 133 145 141 172 167 149 139 48 3 0 0 0 0 0 0 0 0 0 0 0 0 0 0 0 0 0 0 0 0 0 0 0 0 0 0 0 0 0 0 0 0 0 0 0 0 0 0 
0 0 0 0 0 0 0 0 0 0 0 0 4 11 80 123 142 150 141 139 130 111 123 137 124 84 82 81 86 126 123 120 131 122 111 109 103 102 105 106 103 99 93 101 114 127 136 141 128 118 117 126 121 102 89 69 65 71 99 124 135 131 119 110 109 119 120 117 124 136 146 148 136 114 88 89 86 115 121 110 113 133 148 141 174 167 152 145 61 4 0 0 0 0 0 0 0 0 0 0 0 0 0 0 0 0 0 0 0 0 0 0 0 0 0 0 0 0 0 0 0 0 0 0 0 0 0 0 
0 0 0 0 0 0 0 0 0 0 0 0 3 12 85 127 151 150 146 140 136 111 128 135 123 87 84 84 92 126 123 131 135 120 119 124 115 101 102 108 99 92 93 97 107 119 130 134 118 97 98 109 112 94 79 65 63 63 89 116 125 121 123 133 131 123 114 107 105 112 130 147 142 122 105 95 89 111 123 116 115 132 143 134 174 165 153 146 72 4 0 0 0 0 0 0 0 0 0 0 0 0 0 0 0 0 0 0 0 0 0 0 0 0 0 0 0 0 0 0 0 0 0 0 0 0 0 0 
0 0 0 0 0 0 0 0 0 0 0 0 3 12 86 127 158 146 143 142 141 115 133 139 123 91 90 85 100 122 132 136 133 125 124 122 123 120 116 117 111 106 103 93 96 106 115 125 112 86 84 92 105 86 66 62 61 63 89 113 108 111 121 119 111 101 94 87 85 93 101 111 120 125 116 120 103 114 131 129 110 130 137 134 171 170 158 150 86 6 0 0 0 0 0 0 0 0 0 0 0 0 0 0 0 0 0 0 0 0 0 0 0 0 0 0 0 0 0 0 0 0 0 0 0 0 0 0 
0 0 0 0 0 0 0 0 0 0 0 0 4 11 88 131 159 139 146 144 141 120 136 140 121 95 92 90 104 125 139 133 127 115 104 96 96 97 93 90 83 82 89 96 88 84 87 103 109 94 77 76 90 88 62 60 59 69 97 100 101 109 100 98 99 98 96 89 89 93 96 106 106 106 129 130 123 114 132 129 109 127 130 129 161 172 159 149 100 9 0 0 0 0 0 0 0 0 0 0 0 0 0 0 0 0 0 0 0 0 0 0 0 0 0 0 0 0 0 0 0 0 0 0 0 0 0 0 
0 0 0 0 0 0 0 0 0 0 0 0 6 13 88 134 162 146 142 141 133 124 132 140 120 105 98 109 116 133 139 129 111 88 85 88 92 92 93 87 80 73 70 72 86 94 82 83 98 106 94 78 84 95 87 88 91 104 100 95 96 86 90 96 102 103 101 98 95 100 105 114 114 99 121 144 133 121 129 131 107 120 129 122 151 167 160 148 115 15 0 0 0 0 0 0 0 0 0 0 0 0 0 0 0 0 0 0 0 0 0 0 0 0 0 0 0 0 0 0 0 0 0 0 0 0 0 0 
0 0 0 0 0 0 0 0 0 0 0 0 6 15 91 138 165 141 140 130 128 131 132 134 115 117 100 112 140 137 137 128 104 80 82 90 93 93 95 91 84 76 69 66 68 81 93 85 94 118 127 119 104 95 102 110 112 113 96 96 73 76 89 100 110 110 104 100 98 103 103 108 114 119 121 135 131 121 137 129 110 114 127 115 144 156 160 148 124 22 0 0 0 0 0 0 0 0 0 0 0 0 0 0 0 0 0 0 0 0 0 0 0 0 0 0 0 0 0 0 0 0 0 0 0 0 0 0 
0 0 0 0 0 0 0 0 0 0 0 0 6 15 92 142 166 147 135 122 128 128 130 125 104 122 111 110 142 148 140 128 103 85 91 95 99 102 94 86 81 84 74 69 70 76 98 103 100 126 134 131 113 99 109 112 112 108 89 82 61 72 90 96 98 98 98 100 99 101 105 109 117 105 95 125 125 125 148 127 111 116 120 100 135 147 156 147 128 30 0 0 0 0 0 0 0 0 0 0 0 0 0 0 0 0 0 0 0 0 0 0 0 0 0 0 0 0 0 0 0 0 0 0 0 0 0 0 
0 0 0 0 0 0 0 0 0 0 0 0 7 17 90 148 165 146 122 119 130 122 130 116 96 111 112 115 144 145 134 142 114 98 100 102 102 95 83 76 73 77 78 75 76 80 92 95 89 112 121 120 111 105 106 113 109 104 86 68 62 69 81 91 96 96 97 98 101 105 111 113 109 95 85 110 130 138 153 127 108 114 111 94 127 142 162 149 133 39 1 0 0 0 0 0 0 0 0 0 0 0 0 0 0 0 0 0 0 0 0 0 0 0 0 0 0 0 0 0 0 0 0 0 0 0 0 0 
0 0 0 0 0 0 0 0 0 0 0 0 7 18 92 151 162 148 121 124 130 116 128 111 92 100 112 112 131 131 119 130 103 97 100 100 97 92 77 65 63 62 65 77 86 87 89 94 87 109 117 106 100 115 108 105 107 111 84 68 64 63 78 97 104 102 100 98 99 104 105 108 103 89 81 94 129 143 154 133 109 115 101 82 127 130 159 151 134 46 2 0 0 0 0 0 0 0 0 0 0 0 0 0 0 0 0 0 0 0 0 0 0 0 0 0 0 0 0 0 0 0 0 0 0 0 0 0 
0 0 0 0 0 0 0 0 0 0 0 0 7 18 90 152 159 149 119 126 125 107 117 112 91 90 108 108 108 111 114 128 100 99 98 99 95 88 71 62 61 62 64 72 85 91 92 89 89 105 116 103 104 100 96 105 109 114 88 66 59 71 94 109 103 102 102 100 100 104 107 107 101 86 74 95 137 150 151 141 120 117 98 78 122 122 145 145 135 50 2 0 0 0 0 0 0 0 0 0 0 0 0 0 0 0 0 0 0 0 0 0 0 0 0 0 0 0 0 0 0 0 0 0 0 0 0 0 
0 0 0 0 0 0 0 0 0 0 0 0 7 19 89 151 155 141 109 115 120 92 108 111 76 76 101 104 102 103 108 130 101 97 97 97 96 86 71 63 62 65 68 75 83 86 92 86 78 110 116 118 100 102 102 91 99 104 70 66 79 84 91 89 94 98 97 98 96 100 105 104 94 84 74 100 130 149 144 143 134 120 94 80 123 117 130 136 136 57 2 0 0 0 0 0 0 0 0 0 0 0 0 0 0 0 0 0 0 0 0 0 0 0 0 0 0 0 0 0 0 0 0 0 0 0 0 0 
0 0 0 0 0 0 0 0 0 0 0 0 7 20 89 146 153 135 98 115 116 82 106 114 78 80 119 103 92 95 102 129 108 94 94 97 100 94 76 64 63 74 94 99 99 97 91 86 73 93 105 120 102 95 109 96 100 110 77 73 75 75 80 89 100 103 101 99 96 101 106 99 89 78 76 102 117 145 142 143 142 124 91 80 122 114 128 132 133 60 3 0 0 0 0 0 0 0 0 0 0 0 0 0 0 0 0 0 0 0 0 0 0 0 0 0 0 0 0 0 0 0 0 0 0 0 0 0 
0 0 0 0 0 0 0 0 0 0 0 0 8 19 86 142 150 128 98 115 120 84 102 114 81 88 132 96 83 90 99 122 119 96 96 97 100 99 86 68 61 63 78 85 91 95 94 91 93 106 128 109 77 74 87 78 85 106 65 67 71 77 85 106 114 111 107 104 103 106 103 91 86 75 81 118 125 147 136 134 145 125 88 80 123 116 126 136 127 57 3 0 0 0 0 0 0 0 0 0 0 0 0 0 0 0 0 0 0 0 0 0 0 0 0 0 0 0 0 0 0 0 0 0 0 0 0 0 
0 0 0 0 0 0 0 0 0 0 0 0 7 18 79 139 150 125 96 110 120 83 100 116 87 89 132 96 77 89 101 115 129 103 96 92 96 104 91 69 60 64 69 78 83 84 85 88 94 94 116 84 80 79 90 82 86 111 77 67 67 76 88 118 118 110 105 107 109 106 97 80 80 71 84 117 132 146 124 125 147 122 82 83 120 110 121 137 124 53 2 0 0 0 0 0 0 0 0 0 0 0 0 0 0 0 0 0 0 0 0 0 0 0 0 0 0 0 0 0 0 0 0 0 0 0 0 0 
0 0 0 0 0 0 0 0 0 0 0 0 4 17 77 137 150 128 97 100 121 85 97 116 96 84 125 102 78 94 109 116 134 110 92 91 96 103 90 68 61 73 76 79 83 88 87 70 74 98 106 85 86 89 95 80 76 95 90 66 69 66 83 115 116 110 108 109 107 104 88 71 74 74 98 130 139 141 116 118 148 117 77 94 116 100 113 136 116 50 2 0 0 0 0 0 0 0 0 0 0 0 0 0 0 0 0 0 0 0 0 0 0 0 0 0 0 0 0 0 0 0 0 0 0 0 0 0 
0 0 0 0 0 0 0 0 0 0 0 0 2 16 73 129 146 131 104 95 122 90 89 111 102 78 117 104 83 100 111 110 131 118 93 94 102 99 85 67 68 83 83 79 79 84 81 70 72 108 93 85 85 99 104 86 77 75 101 68 72 72 83 111 114 107 106 108 107 102 83 67 74 82 115 146 140 124 111 121 152 109 71 102 111 95 113 135 107 47 2 0 0 0 0 0 0 0 0 0 0 0 0 0 0 0 0 0 0 0 0 0 0 0 0 0 0 0 0 0 0 0 0 0 0 0 0 0 
0 0 0 0 0 0 0 0 0 4 3 0 1 13 65 120 142 125 110 87 120 96 83 106 104 78 105 101 90 105 112 105 125 126 104 96 97 94 79 66 68 90 95 80 85 101 91 78 80 104 100 91 87 105 109 95 81 72 83 78 81 87 111 117 112 107 112 114 110 101 79 68 76 93 132 141 121 110 100 117 149 102 70 109 100 95 117 130 98 43 2 0 0 0 0 0 0 0 0 0 0 0 0 0 0 0 0 0 0 0 0 0 0 0 0 0 0 0 0 0 0 0 0 0 0 0 0 0 
0 0 0 0 0 0 0 0 0 3 11 3 2 9 54 112 145 124 116 85 108 107 83 99 100 77 95 102 104 102 109 107 109 125 116 97 97 91 75 68 83 97 111 95 84 90 93 80 98 96 104 99 89 101 103 89 81 80 71 100 93 110 130 125 124 110 107 113 111 103 82 72 88 110 133 125 119 125 116 121 148 95 74 122 89 103 122 123 91 38 1 0 0 0 0 0 0 0 0 0 0 0 0 0 0 0 0 0 0 0 0 0 0 0 0 0 0 0 0 0 0 0 0 0 0 0 0 0 
0 0 0 0 0 0 0 0 0 0 3 12 3 7 39 102 138 122 112 88 92 117 91 94 99 79 88 98 115 106 109 115 94 101 122 102 93 89 78 80 88 91 91 97 104 111 99 84 107 90 106 102 96 105 101 85 84 86 87 114 96 104 107 117 133 136 128 127 115 106 93 89 104 122 115 122 127 123 123 128 143 103 99 118 84 112 125 113 86 30 0 0 0 0 0 0 0 0 0 0 0 0 0 0 0 0 0 0 0 0 0 0 0 0 0 0 0 0 0 0 0 0 0 0 0 0 0 0 
0 0 0 0 0 0 0 0 0 0 2 14 7 6 26 89 132 135 111 101 78 118 100 85 97 81 90 89 114 121 125 121 107 95 108 104 100 97 93 88 86 92 99 87 75 95 92 93 108 90 100 97 92 108 99 80 73 68 79 113 120 107 106 121 115 120 149 149 148 145 141 135 135 119 116 121 113 105 119 131 133 123 113 99 103 119 131 104 83 19 0 0 0 4 4 0 0 0 0 0 0 0 0 0 0 0 0 0 0 0 0 0 0 0 0 0 0 0 0 0 0 0 0 0 0 0 0 0 
0 0 0 0 0 0 0 0 0 0 3 11 8 7 20 80 123 143 103 112 80 99 108 85 98 98 102 86 112 118 131 133 131 142 143 140 139 135 125 116 108 96 68 57 71 87 81 76 93 89 100 98 95 108 98 79 66 65 75 116 127 107 108 112 113 122 169 167 162 158 147 157 160 138 111 107 117 113 116 125 125 136 112 104 112 119 136 101 74 11 2 1 7 7 1 0 0 0 0 0 0 0 0 0 0 0 0 0 0 0 0 0 0 0 0 0 0 0 0 0 0 0 0 0 0 0 0 0 
0 0 0 0 0 0 0 0 0 0 3 5 7 8 14 70 111 151 124 112 87 74 107 91 98 129 100 90 113 110 120 140 149 148 137 133 145 133 117 97 96 68 54 61 73 63 75 75 85 98 98 99 103 119 106 87 84 87 86 124 136 110 101 107 112 142 192 191 180 167 156 164 154 123 98 90 124 128 130 123 122 153 116 111 128 126 131 104 60 7 6 8 4 0 0 0 0 0 0 0 0 0 0 0 0 0 0 0 0 0 0 0 0 0 0 0 0 0 0 0 0 0 0 0 0 0 0 0 
0 0 0 0 0 0 0 0 0 0 2 4 8 7 11 57 104 142 142 114 100 70 102 108 113 138 94 91 107 105 115 128 151 158 137 132 137 127 129 123 111 88 77 77 54 55 69 79 108 133 113 100 109 118 120 104 86 102 102 110 122 116 115 116 126 147 165 167 161 152 160 147 156 142 98 124 130 132 149 144 130 175 140 133 133 145 128 106 45 6 6 6 4 0 0 0 0 0 0 0 0 0 0 0 0 0 0 0 0 0 0 0 0 0 0 0 0 0 0 0 0 0 0 0 0 0 0 0 
0 0 0 0 0 0 0 0 0 0 1 4 9 7 12 48 102 139 146 127 115 85 115 113 132 140 103 103 118 110 104 108 139 165 161 151 153 145 143 132 117 99 99 79 63 61 71 88 115 107 106 113 114 140 122 98 86 94 112 96 112 112 120 123 126 142 155 151 139 147 150 153 161 143 98 110 120 127 149 153 145 174 166 157 151 142 104 95 30 8 3 3 4 0 0 0 0 0 0 0 0 0 0 0 0 0 0 0 0 0 0 0 0 0 0 0 0 0 0 0 0 0 0 0 0 0 0 0 
0 0 0 0 0 0 0 0 0 0 0 5 8 4 7 28 93 137 143 139 136 131 140 112 141 150 131 111 107 110 114 126 149 153 144 153 170 165 153 137 115 104 102 98 85 83 99 101 111 97 81 110 125 141 114 102 87 82 113 117 123 115 116 124 124 118 141 147 135 138 141 155 150 116 114 116 124 125 150 163 154 160 164 154 138 142 109 79 17 2 2 2 2 1 0 0 0 0 0 0 0 0 0 0 0 0 0 0 0 0 0 0 0 0 0 0 0 0 0 0 0 0 0 0 0 0 0 0 
0 0 0 0 0 0 0 0 0 0 0 1 11 3 5 9 50 116 142 132 152 168 157 136 130 160 145 128 113 124 136 144 150 167 152 144 158 169 155 122 108 111 114 113 113 103 104 118 109 97 83 89 101 119 130 105 96 91 101 115 125 122 121 129 127 115 117 134 131 129 113 151 142 111 113 122 132 124 115 151 171 158 156 143 131 150 102 81 15 1 3 4 0 2 0 0 0 0 0 0 0 0 0 0 0 0 0 0 0 0 0 0 0 0 0 0 0 0 0 0 0 0 0 0 0 0 0 0 
0 0 0 0 0 0 0 0 0 0 0 3 10 3 5 6 30 100 148 137 149 165 170 171 153 163 151 124 110 84 113 140 148 160 157 143 153 159 133 114 108 114 115 115 115 115 118 123 107 87 74 81 101 105 110 101 98 104 116 117 119 116 111 130 120 99 91 122 135 115 109 126 108 109 110 127 131 120 118 151 149 174 153 133 114 126 97 59 5 3 5 6 1 1 0 0 0 0 0 0 0 0 0 0 0 0 0 0 0 0 0 0 0 0 0 0 0 0 0 0 0 0 0 0 0 0 0 0 
0 0 0 0 0 0 0 0 0 0 0 4 10 4 5 7 19 78 140 143 140 139 142 145 134 141 143 136 130 108 99 122 122 139 149 149 147 142 139 131 125 124 130 130 112 109 117 122 96 88 85 76 83 101 115 106 101 104 120 112 125 121 120 127 102 83 84 112 132 141 141 124 107 131 136 136 123 140 145 133 116 163 161 143 141 110 92 31 4 3 5 7 1 0 0 0 0 0 0 0 0 0 0 0 0 0 0 0 0 0 0 0 0 0 0 0 0 0 0 0 0 0 0 0 0 0 0 0 
0 0 0 0 0 0 0 0 0 0 0 1 9 5 2 6 15 51 118 145 143 124 123 124 131 126 120 127 137 120 104 99 104 102 135 155 144 130 138 135 121 116 126 125 117 105 117 119 103 111 113 100 91 95 126 126 111 125 125 109 117 118 116 126 78 65 76 94 119 137 130 95 116 141 151 141 138 153 155 114 96 131 140 130 124 100 71 18 4 2 6 7 2 0 0 0 0 0 0 0 0 0 0 0 0 0 0 0 0 0 0 0 0 0 0 0 0 0 0 0 0 0 0 0 0 0 0 0 
0 0 0 0 0 0 0 0 0 0 0 1 5 2 0 6 14 27 96 146 135 124 133 122 129 132 120 106 121 134 115 101 91 93 110 133 137 123 126 102 94 110 115 116 119 125 130 126 131 140 138 125 114 113 145 147 127 126 131 121 106 97 100 114 93 72 76 80 106 125 123 120 136 145 142 138 147 164 154 116 125 149 129 114 108 105 39 12 6 5 8 5 4 0 0 0 0 0 0 0 0 0 0 0 0 0 0 0 0 0 0 0 0 0 0 0 0 0 0 0 0 0 0 0 0 0 0 0 
0 0 0 0 0 0 0 0 0 0 0 0 4 2 0 7 13 16 66 121 131 112 114 111 122 125 119 109 100 131 128 115 92 85 108 138 142 131 96 76 66 95 94 105 111 116 124 136 124 127 149 151 127 129 163 149 126 104 109 104 86 93 98 107 110 106 91 79 96 131 112 123 130 118 122 127 153 163 163 138 143 142 123 97 75 82 19 13 6 6 11 4 1 0 0 0 0 0 0 0 0 0 0 0 0 0 0 0 0 0 0 0 0 0 0 0 0 0 0 0 0 0 0 0 0 0 0 0 
0 0 0 0 0 0 0 0 0 0 0 0 3 4 0 4 12 13 42 93 138 111 100 119 130 127 112 126 128 122 124 122 111 106 97 125 126 114 88 85 75 83 83 96 101 98 96 105 122 135 140 144 152 157 144 118 105 106 114 125 104 99 109 118 121 98 89 76 103 130 111 107 110 91 116 131 160 165 164 156 119 92 110 85 73 54 12 13 10 3 10 4 0 0 0 0 0 0 0 0 0 0 0 0 0 0 0 0 0 0 0 0 0 0 0 0 0 0 0 0 0 0 0 0 0 0 0 0 
0 0 0 0 0 0 0 0 0 0 0 0 5 5 0 4 14 15 26 89 136 133 110 120 141 144 131 140 149 130 118 125 129 112 102 125 123 100 80 87 90 91 91 94 99 110 109 134 149 142 126 128 141 160 163 146 134 126 128 137 142 156 159 153 149 127 101 93 103 135 121 105 96 112 120 140 160 173 160 152 101 64 74 68 81 30 13 14 7 1 8 2 0 0 0 0 0 0 0 0 0 0 0 0 0 0 0 0 0 0 0 0 0 0 0 0 0 0 0 0 0 0 0 0 0 0 0 0 
0 0 0 0 0 0 0 0 0 0 0 0 8 4 0 5 11 17 17 59 110 139 116 115 126 155 156 132 137 149 141 124 124 128 118 104 99 105 103 102 124 115 116 126 134 148 136 148 146 118 115 130 131 112 125 145 141 125 131 137 137 161 180 161 143 148 138 119 140 137 117 91 84 105 121 150 168 172 155 120 108 107 97 89 71 20 12 6 3 0 6 2 0 0 0 0 0 0 0 0 0 0 0 0 0 0 0 0 0 0 0 0 0 0 0 0 0 0 0 0 0 0 0 0 0 0 0 0 
0 0 0 0 0 0 0 0 0 0 0 0 7 4 0 6 9 13 20 35 79 124 113 111 115 153 154 136 117 149 147 122 103 113 114 115 110 99 100 109 123 142 150 143 138 139 141 149 130 114 118 122 121 134 126 116 121 124 125 122 122 139 167 156 151 155 160 167 145 111 89 81 89 109 129 164 160 165 140 90 110 97 107 93 51 19 10 6 3 0 6 2 0 0 0 0 0 0 0 0 0 0 0 0 0 0 0 0 0 0 0 0 0 0 0 0 0 0 0 0 0 0 0 0 0 0 0 0 
0 0 0 0 0 0 0 0 0 0 1 4 10 10 0 4 10 9 17 26 61 122 120 111 111 121 155 149 126 134 138 117 113 105 93 98 108 120 129 137 143 168 182 179 149 144 157 156 129 132 142 146 158 173 173 149 154 166 146 121 115 124 145 159 160 145 173 179 147 102 78 81 101 120 129 169 172 176 142 124 108 72 129 85 49 17 5 2 5 0 5 5 0 0 0 0 0 0 0 0 0 0 0 0 0 0 0 0 0 0 0 0 0 0 0 0 0 0 0 0 0 0 0 0 0 0 0 0 
0 0 0 0 0 0 0 0 0 0 0 3 8 14 7 6 7 8 16 19 50 92 106 98 106 101 136 152 153 137 110 112 123 118 99 93 98 110 116 113 137 165 179 180 162 143 153 148 136 141 151 168 170 175 170 143 155 166 145 108 117 126 121 146 157 158 179 181 159 108 77 96 107 114 150 164 166 153 139 106 93 108 139 83 39 19 3 2 3 1 2 6 1 0 0 0 0 0 0 0 0 0 0 0 0 0 0 0 0 0 0 0 0 0 0 0 0 0 0 0 0 0 0 0 0 0 0 0 
0 0 0 0 0 0 0 0 0 0 0 2 8 12 10 3 5 12 15 14 30 81 108 104 92 103 144 142 145 150 130 139 138 118 102 97 98 97 91 83 95 124 146 150 153 137 141 138 134 131 163 180 163 178 155 121 135 147 142 117 140 138 123 157 197 185 183 174 162 149 112 104 102 136 152 148 155 153 138 90 87 85 95 63 22 16 5 4 2 7 5 8 3 0 0 0 0 0 0 0 0 0 0 0 0 0 0 0 0 0 0 0 0 0 0 0 0 0 0 0 0 0 0 0 0 0 0 0 
0 0 0 0 0 0 0 0 0 0 0 1 10 10 9 10 10 12 14 12 16 49 109 77 85 103 122 129 152 175 153 151 143 118 110 104 95 80 73 86 98 121 122 122 141 137 132 136 139 128 174 176 152 171 171 144 143 150 149 150 173 166 142 161 161 169 189 167 166 158 150 150 141 144 136 125 109 111 107 54 34 64 95 34 11 8 11 3 4 5 6 8 14 5 2 0 0 0 0 0 0 0 0 0 0 0 0 0 0 0 0 0 0 0 0 0 0 0 0 0 0 0 0 0 0 0 0 0 
0 0 0 0 0 0 0 0 0 0 0 0 11 10 9 8 7 4 9 14 16 25 73 77 58 62 83 129 135 167 155 143 150 158 130 121 128 143 163 157 162 154 149 136 153 165 166 183 211 191 178 173 152 162 166 160 167 172 170 166 162 147 170 178 165 160 188 198 202 162 139 190 171 140 104 68 77 71 96 81 91 111 57 14 10 1 0 4 2 2 2 6 4 4 0 0 0 0 0 0 0 0 0 0 0 0 0 0 0 0 0 0 0 0 0 0 0 0 0 0 0 0 0 0 0 0 0 0 
0 0 0 0 0 0 0 0 0 0 0 0 5 5 3 2 2 1 4 11 14 17 31 79 53 46 74 96 74 135 123 132 135 138 126 109 118 143 131 127 171 171 183 202 178 205 215 215 210 209 210 210 192 181 173 168 171 172 165 177 208 206 198 220 225 181 173 166 81 157 134 151 119 94 66 48 68 50 79 83 75 51 34 23 8 1 0 0 2 3 5 4 3 0 0 0 0 0 0 0 0 0 0 0 0 0 0 0 0 0 0 0 0 0 0 0 0 0 0 0 0 0 0 0 0 0 0 0 
0 0 0 0 0 0 0 0 0 0 0 0 0 3 1 1 2 0 0 7 12 18 23 52 67 75 65 64 53 90 79 111 157 137 106 109 111 125 130 132 149 155 173 189 172 159 191 183 202 194 183 172 160 148 145 157 176 179 160 158 160 170 188 214 187 190 178 159 117 96 77 66 75 78 84 85 92 57 51 48 38 40 34 27 19 1 0 0 0 0 0 5 7 0 0 0 0 0 0 0 0 0 0 0 0 0 0 0 0 0 0 0 0 0 0 0 0 0 0 0 0 0 0 0 0 0 0 0 
0 0 0 0 0 0 0 0 0 0 0 0 0 3 6 6 3 3 2 3 8 13 18 20 44 75 53 51 57 88 61 60 112 110 85 81 74 74 70 62 61 87 130 116 124 113 117 123 172 132 76 82 89 83 84 89 86 104 130 110 109 120 126 192 146 120 133 90 46 46 45 46 74 65 46 55 91 59 42 28 27 25 21 10 1 0 3 1 0 0 1 10 9 0 0 0 0 0 0 0 0 0 0 0 0 0 0 0 0 0 0 0 0 0 0 0 0 0 0 0 0 0 0 0 0 0 0 0 
0 0 0 0 0 0 0 0 0 0 0 0 0 0 6 5 5 1 3 2 6 10 13 15 22 23 23 39 62 88 55 43 85 84 56 48 41 43 64 92 96 89 90 95 76 73 68 57 64 88 53 69 75 66 66 81 69 60 84 63 78 106 123 119 98 85 64 72 95 86 41 34 72 72 41 53 91 63 41 27 25 24 17 9 2 0 0 1 3 5 5 6 1 0 0 0 0 0 0 0 0 0 0 0 0 0 0 0 0 0 0 0 0 0 0 0 0 0 0 0 0 0 0 0 0 0 0 0 
0 0 0 0 0 0 0 0 0 0 0 0 0 0 0 0 0 0 0 0 2 12 12 12 21 22 25 41 67 90 61 38 74 79 46 55 71 104 96 85 94 153 113 121 109 90 86 87 90 96 66 79 82 83 85 97 74 62 93 107 110 120 104 97 92 106 73 76 73 100 107 117 114 86 67 64 93 66 41 33 29 23 11 11 2 0 0 0 2 3 3 0 0 0 0 0 0 0 0 0 0 0 0 0 0 0 0 0 0 0 0 0 0 0 0 0 0 0 0 0 0 0 0 0 0 0 0 0 
0 0 0 0 0 0 0 0 0 0 0 0 0 0 0 0 0 0 0 0 0 7 8 10 17 34 34 56 74 88 74 44 74 84 86 129 155 128 114 116 126 161 143 125 122 141 144 117 102 82 74 101 107 111 112 118 117 98 109 116 123 125 133 132 133 155 98 96 126 101 93 139 130 107 91 70 68 66 44 39 35 27 12 8 0 0 0 0 0 0 0 0 0 0 0 0 0 0 0 0 0 0 0 0 0 0 0 0 0 0 0 0 0 0 0 0 0 0 0 0 0 0 0 0 0 0 0 0 
0 0 0 0 0 0 0 0 0 0 0 0 0 0 0 0 0 0 0 0 0 3 4 2 8 29 38 53 67 65 68 69 89 95 109 124 131 98 98 101 161 180 172 185 165 159 172 189 159 151 170 171 160 145 138 138 156 156 171 150 115 106 138 127 149 162 174 139 126 144 131 173 164 112 62 49 65 46 19 14 15 6 3 2 0 0 0 0 0 0 0 0 0 0 0 0 0 0 0 0 0 0 0 0 0 0 0 0 0 0 0 0 0 0 0 0 0 0 0 0 0 0 0 0 0 0 0 0 
0 0 0 0 0 0 0 0 0 0 0 0 0 0 0 0 0 0 0 0 0 0 3 3 9 22 25 21 48 53 76 48 59 51 34 56 101 123 88 101 134 114 120 102 105 125 156 174 160 160 153 150 140 131 130 135 135 138 128 125 115 126 133 135 144 155 143 112 139 165 153 90 52 30 37 66 77 50 30 28 24 15 8 3 2 0 0 0 0 0 0 0 0 0 0 0 0 0 0 0 0 0 0 0 0 0 0 0 0 0 0 0 0 0 0 0 0 0 0 0 0 0 0 0 0 0 0 0 
0 0 0 0 0 0 0 0 0 0 0 0 0 0 0 0 0 0 0 0 0 0 3 9 9 16 19 17 35 38 71 52 56 63 24 25 39 74 133 146 140 128 120 94 78 85 123 133 126 101 114 98 84 72 72 90 108 103 84 85 105 115 114 98 91 119 104 85 119 92 82 56 42 47 50 82 73 40 18 15 20 20 9 2 2 0 0 0 0 0 0 0 0 0 0 0 0 0 0 0 0 0 0 0 0 0 0 0 0 0 0 0 0 0 0 0 0 0 0 0 0 0 0 0 0 0 0 0 
0 0 0 0 0 0 0 0 0 0 0 0 0 0 0 0 0 0 0 0 0 0 1 7 9 11 21 19 26 35 63 77 70 76 29 51 62 62 91 132 115 93 93 82 89 98 126 122 110 109 121 108 92 79 81 82 95 104 106 95 96 106 84 65 76 93 103 94 96 108 89 60 36 44 62 85 77 43 20 19 18 16 9 2 2 0 0 0 0 0 0 0 0 0 0 0 0 0 0 0 0 0 0 0 0 0 0 0 0 0 0 0 0 0 0 0 0 0 0 0 0 0 0 0 0 0 0 0 
0 0 0 0 0 0 0 0 0 0 0 0 0 0 0 0 0 0 0 0 0 0 0 5 8 7 18 20 21 34 52 80 64 81 44 89 86 80 79 96 68 62 84 91 101 113 137 149 115 105 115 110 99 87 91 84 108 108 111 96 91 113 99 77 92 94 101 94 92 102 95 85 77 76 81 91 78 45 21 18 15 14 8 2 2 0 0 0 0 0 0 0 0 0 0 0 0 0 0 0 0 0 0 0 0 0 0 0 0 0 0 0 0 0 0 0 0 0 0 0 0 0 0 0 0 0 0 0 
0 0 0 0 0 0 0 0 0 0 0 0 0 0 0 0 0 0 0 0 0 0 0 4 6 8 14 20 22 30 53 81 63 81 59 97 59 54 58 54 60 72 76 91 99 114 115 98 113 129 112 106 103 100 91 89 112 111 112 103 107 149 130 85 103 96 100 98 102 86 84 74 78 106 111 95 78 42 25 17 13 12 6 3 2 1 0 0 0 0 0 0 0 0 0 0 0 0 0 0 0 0 0 0 0 0 0 0 0 0 0 0 0 0 0 0 0 0 0 0 0 0 0 0 0 0 0 0 
0 0 0 0 0 0 0 0 0 0 0 0 0 0 0 0 0 0 0 0 0 0 0 0 7 6 10 17 21 21 42 73 65 79 64 93 53 50 41 42 63 70 96 111 115 121 108 65 88 146 119 107 107 104 95 101 107 115 119 106 118 137 117 107 112 108 107 93 95 92 73 74 63 103 122 96 87 49 26 15 15 10 5 3 3 1 0 0 0 0 0 0 0 0 0 0 0 0 0 0 0 0 0 0 0 0 0 0 0 0 0 0 0 0 0 0 0 0 0 0 0 0 0 0 0 0 0 0 
0 0 0 0 0 0 0 0 0 0 0 0 0 0 0 0 0 0 0 0 0 0 0 0 2 6 6 14 20 21 33 52 61 74 60 93 59 47 35 48 66 71 101 102 116 120 91 54 78 123 118 104 98 99 94 93 94 100 108 90 102 112 82 104 120 118 95 96 84 85 64 62 54 96 112 93 82 45 18 14 17 11 3 3 3 2 0 0 0 0 0 0 0 0 0 0 0 0 0 0 0 0 0 0 0 0 0 0 0 0 0 0 0 0 0 0 0 0 0 0 0 0 0 0 0 0 0 0 
0 0 0 0 0 0 0 0 0 0 0 0 0 0 0 0 0 0 0 0 0 0 0 0 0 5 5 11 18 20 24 43 59 64 59 99 70 42 36 55 72 85 78 71 109 110 79 56 82 102 114 101 83 81 81 87 91 95 97 92 111 111 66 73 107 123 83 77 90 79 60 55 68 98 99 73 45 19 16 15 16 10 4 3 4 2 0 0 0 0 0 0 0 0 0 0 0 0 0 0 0 0 0 0 0 0 0 0 0 0 0 0 0 0 0 0 0 0 0 0 0 0 0 0 0 0 0 0 
0 0 0 0 0 0 0 0 0 0 0 0 0 0 0 0 0 0 0 0 0 0 0 0 0 2 7 7 15 19 18 39 48 38 65 111 76 37 37 55 65 70 61 56 100 108 80 59 77 93 117 116 98 90 91 96 100 107 109 116 124 98 59 70 101 118 76 55 73 80 56 43 71 120 102 40 18 14 16 16 16 9 3 3 3 2 0 0 0 0 0 0 0 0 0 0 0 0 0 0 0 0 0 0 0 0 0 0 0 0 0 0 0 0 0 0 0 0 0 0 0 0 0 0 0 0 0 0 
0 0 0 0 0 0 0 0 0 0 0 0 0 0 0 0 0 0 0 0 0 0 0 0 0 0 6 5 10 16 17 20 17 17 28 94 72 39 41 62 76 60 53 59 99 108 82 64 74 93 113 127 118 104 88 89 109 115 120 119 108 92 73 76 102 117 70 47 61 94 68 46 54 115 74 25 18 13 16 17 15 7 3 3 3 2 1 0 0 0 0 0 0 0 0 0 0 0 0 0 0 0 0 0 0 0 0 0 0 0 0 0 0 0 0 0 0 0 0 0 0 0 0 0 0 0 0 0 
0 0 0 0 0 0 0 0 0 0 0 0 0 0 0 0 0 0 0 0 0 0 0 0 0 0 1 8 5 12 15 17 19 15 9 43 88 60 53 86 103 61 42 60 108 118 73 61 78 97 105 121 125 110 87 83 97 125 132 125 115 102 90 84 87 115 75 40 56 112 102 63 71 94 34 22 17 14 16 17 14 7 3 3 3 3 0 0 0 0 0 0 0 0 0 0 0 0 0 0 0 0 0 0 0 0 0 0 0 0 0 0 0 0 0 0 0 0 0 0 0 0 0 0 0 0 0 0 
0 0 0 0 0 0 0 0 0 0 0 0 0 0 0 0 0 0 0 0 0 0 0 0 0 0 0 4 4 8 15 17 19 17 9 14 60 89 84 112 103 54 39 51 113 133 80 56 66 91 103 111 118 109 96 100 117 134 138 135 126 123 93 77 89 121 87 41 44 101 125 89 90 46 23 18 16 16 17 19 14 7 2 3 3 3 1 0 0 0 0 0 0 0 0 0 0 0 0 0 0 0 0 0 0 0 0 0 0 0 0 0 0 0 0 0 0 0 0 0 0 0 0 0 0 0 0 0 
0 0 0 0 0 0 0 0 0 0 0 0 0 0 0 0 0 0 0 0 0 0 0 0 0 0 0 0 6 5 12 17 18 21 11 12 18 37 59 72 78 60 47 66 121 136 87 57 60 92 109 116 128 116 103 108 112 122 133 136 127 116 94 87 93 137 120 64 49 77 87 61 40 25 23 17 18 14 18 19 13 6 3 3 4 2 1 0 0 0 0 0 0 0 0 0 0 0 0 0 0 0 0 0 0 0 0 0 0 0 0 0 0 0 0 0 0 0 0 0 0 0 0 0 0 0 0 0 
0 0 0 0 0 0 0 0 0 0 0 0 0 0 0 0 0 0 0 0 0 0 0 0 0 0 0 0 4 4 10 14 16 19 13 12 17 22 27 33 59 72 64 82 124 133 97 67 78 109 115 122 125 108 94 91 101 109 120 129 134 131 108 101 110 142 131 82 66 72 46 29 28 26 22 17 18 14 17 18 13 5 1 2 3 3 1 0 0 0 0 0 0 0 0 0 0 0 0 0 0 0 0 0 0 0 0 0 0 0 0 0 0 0 0 0 0 0 0 0 0 0 0 0 0 0 0 0 
0 0 0 0 0 0 0 0 0 0 0 0 0 0 0 0 0 0 0 0 0 0 0 0 0 0 0 0 1 6 7 12 15 19 15 9 11 19 28 31 37 60 75 83 107 125 119 100 104 108 118 120 113 106 89 84 90 93 104 118 117 124 107 113 128 137 124 93 74 50 33 28 25 23 20 19 17 14 15 17 12 5 1 2 3 3 1 0 0 0 0 0 0 0 0 0 0 0 0 0 0 0 0 0 0 0 0 0 0 0 0 0 0 0 0 0 0 0 0 0 0 0 0 0 0 0 0 0 
0 0 0 0 0 0 0 0 0 0 0 0 0 0 0 0 0 0 0 0 0 0 0 0 0 0 0 0 0 7 5 8 15 16 18 9 8 19 29 31 32 33 44 51 61 100 123 108 95 93 100 99 93 90 91 94 96 91 91 90 97 111 107 113 140 127 86 67 48 38 31 26 25 23 16 19 14 15 15 15 10 5 1 2 3 2 1 0 0 0 0 0 0 0 0 0 0 0 0 0 0 0 0 0 0 0 0 0 0 0 0 0 0 0 0 0 0 0 0 0 0 0 0 0 0 0 0 0 
0 0 0 0 0 0 0 0 0 0 0 0 0 0 0 0 0 0 0 0 0 0 0 0 0 0 0 0 0 4 8 6 13 16 17 11 7 17 30 31 31 34 38 38 48 70 101 118 93 64 72 84 83 90 101 107 113 105 93 93 90 83 88 114 123 92 62 57 44 37 31 27 26 25 16 14 16 15 15 14 10 3 1 2 3 3 1 0 0 0 0 0 0 0 0 0 0 0 0 0 0 0 0 0 0 0 0 0 0 0 0 0 0 0 0 0 0 0 0 0 0 0 0 0 0 0 0 0 
