P2
128 99
220
0 0 0 0 0 0 0 0 0 0 0 0 0 0 0 0 0 0 0 0 0 0 0 0 0 0 0 0 0 0 0 0 0 0 0 0 0 0 0 0 1 1 1 0 0 0 0 0 0 0 0 0 0 0 0 0 0 0 0 0 0 0 0 0 0 0 0 0 0 0 0 0 0 0 0 0 0 0 0 0 0 0 0 0 1 1 0 0 0 0 0 0 0 0 0 0 0 0 0 0 0 0 0 0 0 0 0 0 0 0 0 0 0 0 0 0 0 0 0 0 0 0 0 0 0 0 0 0 
0 0 0 0 0 0 0 0 0 0 0 0 0 0 0 0 0 0 0 0 0 0 0 0 0 0 0 0 0 0 0 0 0 0 0 0 0 0 0 0 1 1 1 1 0 0 0 0 0 0 0 0 0 0 0 0 0 0 0 0 0 0 0 0 0 0 0 0 0 0 0 0 0 0 0 0 0 0 0 0 0 0 0 0 1 1 0 0 0 0 0 0 0 0 0 0 0 0 0 0 0 0 0 0 0 0 0 0 0 0 0 0 0 0 0 0 0 0 0 0 0 0 0 0 0 0 0 0 
0 0 0 0 0 0 0 0 0 0 0 0 0 0 0 0 0 0 0 0 0 0 0 0 0 0 0 0 0 0 0 0 0 0 0 0 0 0 0 0 1 1 1 1 0 0 0 0 0 0 1 1 2 3 2 0 0 0 0 0 0 0 0 0 0 0 0 0 0 0 0 0 0 0 0 0 0 0 0 0 0 0 0 1 1 1 0 0 0 0 0 0 0 0 0 0 0 0 0 0 0 0 0 0 0 0 0 0 0 0 0 0 0 0 0 0 0 0 0 0 0 0 0 0 0 0 0 0 
0 0 0 0 0 0 0 0 0 0 0 0 0 0 0 0 0 0 0 0 0 0 0 0 0 0 0 0 0 0 0 0 0 0 0 0 0 0 0 0 1 1 1 1 8 13 16 15 17 20 22 26 29 26 24 20 19 16 14 11 5 0 0 0 0 0 0 0 0 0 0 0 0 0 0 0 0 0 0 0 0 0 0 0 1 1 1 0 0 0 0 0 0 0 0 0 0 0 0 0 0 0 0 0 0 0 0 0 0 0 0 0 0 0 0 0 0 0 0 0 0 0 0 0 0 0 0 0 
0 0 0 0 0 0 0 0 0 0 0 0 0 0 0 0 0 0 0 0 0 0 0 0 0 0 0 0 0 0 0 0 0 0 0 0 0 0 0 0 5 15 20 23 26 33 53 74 96 117 133 142 146 146 142 133 120 102 78 53 33 23 16 11 3 0 0 0 0 0 0 0 0 0 0 0 0 0 0 0 0 0 0 0 1 1 1 0 0 0 0 0 0 0 0 0 0 0 0 0 0 0 0 0 0 0 0 0 0 0 0 0 0 0 0 0 0 0 0 0 0 0 0 0 0 0 0 0 
0 0 0 0 0 0 0 0 0 0 0 0 0 0 0 0 0 0 0 0 0 0 0 0 0 0 0 0 0 0 0 0 0 0 0 0 0 1 7 18 24 27 36 65 106 143 162 171 174 175 176 176 177 178 177 176 174 171 165 156 141 114 77 43 23 16 10 1 0 0 0 0 0 0 0 0 0 0 0 0 0 0 0 0 1 1 1 0 0 0 0 0 0 0 0 0 0 0 0 0 0 0 0 0 0 0 0 0 0 0 0 0 0 0 0 0 0 0 0 0 0 0 0 0 0 0 0 0 
0 0 0 0 0 0 0 0 0 0 0 0 0 0 0 0 0 0 0 0 0 0 0 0 0 0 0 0 0 0 0 0 0 0 0 0 8 22 24 25 50 96 145 166 176 175 176 179 185 190 193 193 192 191 189 190 190 191 188 184 179 170 160 147 117 73 38 17 12 2 0 0 0 0 0 0 0 0 0 0 0 0 0 0 1 1 0 0 0 0 0 0 0 0 0 0 0 0 0 0 0 0 0 0 0 0 0 0 0 0 0 0 0 0 0 0 0 0 0 0 0 0 0 0 0 0 0 0 
0 0 0 0 0 0 0 0 0 0 0 0 0 0 0 0 0 0 0 0 0 0 0 0 0 0 0 0 0 0 0 0 0 0 8 24 25 25 58 118 159 174 177 179 184 191 195 185 175 170 174 181 181 172 170 177 184 186 184 182 187 189 184 180 170 159 140 94 46 21 12 1 0 0 0 0 0 0 0 0 0 0 0 1 1 1 0 0 0 0 0 0 0 0 0 0 0 0 0 0 0 0 0 0 0 0 0 0 0 0 0 0 0 0 0 0 0 0 0 0 0 0 0 0 0 0 0 0 
0 0 0 0 0 0 0 0 0 0 0 0 0 0 0 0 0 0 0 0 0 0 0 0 0 0 0 0 0 0 0 0 6 27 24 21 55 122 162 174 174 179 188 194 189 175 165 156 148 143 140 142 139 133 133 138 153 171 191 197 192 185 182 186 185 179 174 165 146 96 45 25 10 0 0 0 0 0 0 0 0 0 0 1 1 1 0 0 0 0 0 0 0 0 0 0 0 0 0 0 0 0 0 0 0 0 0 0 0 0 0 0 0 0 0 0 0 0 0 0 0 0 0 0 0 0 0 0 
0 0 0 0 0 0 0 0 0 0 0 0 0 0 0 0 0 0 0 0 0 0 0 0 0 0 0 0 0 0 0 24 24 20 43 109 160 172 171 178 189 193 186 174 157 153 147 135 130 135 140 147 148 147 151 154 151 143 159 175 190 196 195 191 184 183 186 181 174 165 139 77 30 19 2 0 0 0 0 0 0 0 0 1 1 1 0 0 0 0 0 0 0 0 0 0 0 0 0 0 0 0 0 0 0 0 0 0 0 0 0 0 0 0 0 0 0 0 0 0 0 0 0 0 0 0 0 0 
0 0 0 0 0 0 0 0 0 0 0 0 0 0 0 0 0 0 0 0 0 0 0 0 0 0 0 0 0 11 27 24 25 81 150 170 171 174 184 192 190 179 163 148 140 133 134 136 140 131 134 135 135 134 132 134 142 143 151 159 168 184 193 196 196 194 187 184 186 183 175 162 114 46 22 5 0 0 0 0 0 0 0 1 1 1 1 0 0 0 0 0 0 0 0 0 0 0 0 0 0 0 0 0 0 0 0 0 0 0 0 0 0 0 0 0 0 0 0 0 0 0 0 0 0 0 0 0 
0 0 0 0 0 0 0 0 0 0 0 0 0 0 0 0 0 0 0 0 0 0 0 0 0 0 0 0 21 26 18 46 125 166 170 174 184 190 188 183 168 157 147 158 166 162 152 143 131 125 121 130 131 127 136 137 143 146 141 141 146 162 186 198 201 200 196 194 189 185 189 182 171 143 67 25 10 0 0 0 0 0 0 1 1 1 1 0 0 0 0 0 0 0 0 0 0 0 0 0 0 0 0 0 0 0 0 0 0 0 0 0 0 0 0 0 0 0 0 0 0 0 0 0 0 0 0 0 
0 0 0 0 0 0 0 0 0 0 0 0 0 0 0 0 0 0 0 0 0 0 0 0 0 0 5 26 22 20 75 149 168 174 183 191 190 188 174 160 166 175 169 153 142 136 140 139 139 139 137 133 130 131 135 138 135 141 145 148 151 152 157 165 183 201 206 202 197 194 188 186 185 172 153 83 25 12 0 0 0 0 0 1 1 1 1 0 0 0 0 0 0 0 0 0 0 0 0 0 0 0 0 0 0 0 0 0 0 0 0 0 0 0 0 0 0 0 0 0 0 0 0 0 0 0 0 0 
0 0 0 0 0 0 0 0 0 0 0 0 0 0 0 0 0 0 0 0 0 0 0 0 0 10 25 18 27 98 156 168 177 190 193 189 182 168 172 179 168 146 136 141 142 146 146 139 128 124 108 103 95 100 112 123 132 132 133 138 142 151 159 163 167 169 178 197 203 199 195 189 183 181 171 158 91 26 14 0 0 0 0 1 1 1 1 0 0 0 0 0 0 0 0 0 0 0 0 0 0 0 0 0 0 0 0 0 0 0 0 0 0 0 0 0 0 0 0 0 0 0 0 0 0 0 0 0 
0 0 0 0 0 0 0 0 0 0 0 0 0 0 0 0 0 0 0 0 0 0 0 0 13 24 17 34 111 159 172 182 194 191 186 175 171 182 172 152 140 147 157 153 146 146 144 130 119 111 109 108 106 112 118 121 128 139 141 136 132 130 136 148 159 166 172 169 177 195 198 196 191 184 184 174 160 100 30 13 0 0 0 1 2 1 1 0 0 0 0 0 0 0 0 0 0 0 0 0 0 0 0 0 0 0 0 0 0 0 0 0 0 0 0 0 0 0 0 0 0 0 0 0 0 0 0 0 
0 0 0 0 0 0 0 0 0 0 0 0 0 0 0 0 0 0 0 0 0 0 3 17 22 15 44 124 159 174 185 196 190 181 170 177 179 157 143 144 152 155 144 129 122 114 113 118 115 115 126 134 135 133 132 131 131 132 140 140 137 132 132 135 139 145 154 162 165 167 185 191 193 192 186 186 173 163 111 36 12 0 0 1 2 2 1 0 0 0 0 0 0 0 0 0 0 0 0 0 0 0 0 0 0 0 0 0 0 0 0 0 0 0 0 0 0 0 0 0 0 0 0 0 0 0 0 0 
0 0 0 0 0 0 0 0 0 0 0 0 0 0 0 0 0 0 0 0 0 6 16 18 15 55 135 157 173 186 198 187 175 169 176 163 143 148 154 151 148 136 121 120 117 112 115 122 128 129 133 133 129 131 128 126 128 133 142 149 149 142 138 135 132 135 135 143 155 162 162 171 184 190 190 185 189 174 165 121 37 10 0 1 1 1 1 0 0 0 0 0 0 0 0 0 0 0 0 0 0 0 0 0 0 0 0 0 0 0 0 0 0 0 0 0 0 0 0 0 0 0 0 0 0 0 0 0 
0 0 0 0 0 0 0 0 0 0 0 0 0 0 0 0 0 0 0 0 7 16 16 17 69 141 156 174 188 197 181 168 164 165 151 141 147 147 141 142 137 132 131 127 124 121 116 116 115 116 109 98 97 108 105 105 106 109 111 119 130 140 146 153 147 137 132 132 132 140 149 158 162 179 184 187 184 190 174 166 123 35 6 1 2 1 1 0 0 0 0 0 0 0 0 0 0 0 0 0 0 0 0 0 0 0 0 0 0 0 0 0 0 0 0 0 0 0 0 0 0 0 0 0 0 0 0 0 
0 0 0 0 0 0 0 0 0 0 0 0 0 0 0 0 0 0 0 6 15 16 19 76 142 155 173 186 196 178 166 159 158 144 139 147 137 133 133 136 131 125 117 111 109 107 105 103 103 100 98 91 91 98 103 105 109 111 110 109 110 112 117 127 138 141 136 133 134 128 135 147 155 164 169 181 187 186 190 169 163 117 28 4 2 2 1 0 0 0 0 0 0 0 0 0 0 0 0 0 0 0 0 0 0 0 0 0 0 0 0 0 0 0 0 0 0 0 0 0 0 0 0 0 0 0 0 0 
0 0 0 0 0 0 0 0 0 0 0 0 0 0 0 0 0 0 4 15 15 20 81 142 156 168 181 193 174 165 155 154 144 140 144 129 123 123 128 124 115 108 110 112 108 106 108 104 96 95 98 102 108 114 121 126 129 128 124 120 117 114 107 103 118 133 139 137 129 131 129 132 136 151 164 158 177 187 188 183 166 156 102 20 3 2 1 0 0 0 0 0 0 0 0 0 0 0 0 0 0 0 0 0 0 0 0 0 0 0 0 0 0 0 0 0 0 0 0 0 0 0 0 0 0 0 0 0 
0 0 0 0 0 0 0 0 0 0 0 0 0 0 0 0 0 1 14 13 20 80 138 156 166 177 189 171 160 148 148 144 139 140 121 114 116 122 121 118 121 122 121 117 112 110 109 108 106 106 106 114 119 121 119 120 123 124 123 124 123 121 118 114 106 110 129 142 139 123 127 125 129 130 151 163 151 173 188 189 178 165 148 82 12 2 1 0 0 0 0 0 0 0 0 0 0 0 0 0 0 0 0 0 0 0 0 0 0 0 0 0 0 0 0 0 0 0 0 0 0 0 0 0 0 0 0 0 
0 0 0 0 0 0 0 0 0 0 0 0 0 0 0 0 0 11 12 16 74 131 151 161 175 185 174 158 147 148 147 135 137 121 108 112 125 132 131 132 126 119 112 109 106 106 107 109 114 106 105 105 106 118 120 114 112 111 111 117 121 117 116 118 116 111 110 131 143 132 116 122 125 122 125 153 162 140 175 188 186 172 159 135 51 5 1 0 0 0 0 0 0 0 0 0 0 0 0 0 0 0 0 0 0 0 0 0 0 0 0 0 0 0 0 0 0 0 0 0 0 0 0 0 0 0 0 0 
0 0 0 0 0 0 0 0 0 0 0 0 0 0 0 0 6 12 13 59 123 146 156 173 180 177 155 145 147 146 130 130 119 107 116 128 141 137 127 116 110 106 101 101 103 106 109 110 105 103 101 100 99 110 113 114 117 114 112 104 106 108 107 109 113 116 114 117 135 140 120 116 119 124 120 125 159 151 138 174 192 180 169 150 110 23 2 0 0 0 0 0 0 0 0 0 0 0 0 0 0 0 0 0 0 0 0 0 0 1 0 0 0 0 0 0 0 0 0 0 0 0 0 0 0 0 0 0 
0 0 0 0 0 0 0 0 0 0 0 0 0 0 0 2 11 13 44 116 136 157 165 176 175 155 145 138 146 129 123 121 116 122 130 142 134 124 111 105 95 86 83 86 91 96 96 98 101 99 102 99 94 99 99 99 102 100 101 99 96 98 100 102 107 113 117 117 119 138 132 109 108 120 128 119 137 162 139 141 181 187 178 162 139 73 7 0 0 0 0 0 0 0 0 0 0 0 0 0 0 0 0 0 0 0 0 0 0 1 0 0 0 0 0 0 0 0 0 0 0 0 0 0 0 0 0 0 
0 0 0 0 0 0 0 0 0 0 0 0 0 0 0 8 11 24 98 129 151 159 174 171 164 144 130 142 132 123 122 121 126 127 137 131 119 110 100 86 79 85 92 92 93 94 93 89 95 98 97 96 93 95 96 98 98 96 98 101 98 98 95 90 96 107 117 119 121 126 135 120 104 107 122 127 125 144 149 132 156 190 179 172 151 117 30 1 0 0 0 0 0 0 0 0 0 0 0 0 0 0 0 0 0 0 0 0 0 1 0 0 0 0 0 0 0 0 0 0 0 0 0 0 0 0 0 0 
0 0 0 0 0 0 0 0 0 0 0 0 0 0 3 9 14 69 121 142 152 169 168 168 145 125 130 142 126 123 122 131 125 133 137 115 110 97 85 77 85 95 99 97 96 91 86 82 86 98 96 97 96 98 98 99 99 100 102 102 100 100 100 99 90 90 102 113 121 125 129 132 115 105 113 129 125 131 150 134 133 176 178 176 157 135 68 4 0 0 0 0 0 0 0 0 0 0 0 0 0 0 0 0 0 0 0 0 0 0 0 0 0 0 0 0 0 0 0 0 0 0 0 0 0 0 0 0 
0 0 0 0 0 0 0 0 0 0 0 0 0 0 5 8 40 109 127 150 159 165 156 166 129 117 147 129 124 125 130 124 126 138 125 102 96 90 82 85 97 102 101 97 98 98 96 94 90 100 100 103 103 105 103 102 103 102 101 102 99 102 102 98 96 89 89 99 108 121 127 129 128 110 110 124 131 124 143 131 132 162 174 170 165 142 101 16 0 0 0 0 0 0 0 0 0 0 0 0 0 0 0 0 0 0 0 0 0 0 0 0 0 0 0 0 0 0 0 0 0 0 0 0 0 0 0 0 
0 0 0 0 0 0 0 0 0 0 0 0 0 0 7 15 80 123 142 150 164 149 164 147 115 127 139 119 125 128 120 120 131 126 111 95 96 92 88 101 108 106 104 102 101 106 108 105 105 107 108 109 111 112 101 96 89 93 103 108 104 102 104 101 99 96 91 92 100 107 123 130 131 123 114 119 130 123 137 130 126 151 166 167 169 150 122 39 1 0 0 0 0 0 0 0 0 0 0 0 0 0 0 0 0 0 0 0 0 0 0 0 0 0 0 0 0 0 0 0 0 0 0 0 0 0 0 0 
0 0 0 0 0 0 0 0 0 0 0 0 0 3 6 37 105 128 143 157 158 153 159 124 117 131 125 120 127 118 117 132 130 112 99 98 96 92 101 106 108 107 107 107 105 109 113 113 117 115 112 116 119 111 106 99 97 93 97 102 104 104 105 106 100 95 97 94 96 100 111 129 129 129 120 122 130 118 123 130 122 139 159 170 171 157 132 61 4 0 0 0 0 0 0 0 0 0 0 0 0 0 0 0 0 0 0 0 0 0 0 0 0 0 0 0 0 0 0 0 0 0 0 0 0 0 0 0 
0 0 0 0 0 0 0 0 0 0 0 0 0 4 8 66 116 132 147 161 146 153 140 116 124 126 119 123 120 114 133 134 116 96 96 96 96 105 110 105 102 100 97 96 96 99 113 128 134 128 129 133 135 132 126 118 118 114 109 102 100 103 106 109 106 97 97 98 96 101 106 120 126 129 127 123 130 120 112 127 120 131 157 169 169 158 135 79 5 0 0 0 0 0 0 0 0 0 0 0 0 0 0 0 0 0 0 0 0 0 0 0 0 0 0 0 0 0 0 0 0 0 0 0 0 0 0 0 
0 0 0 0 0 0 0 0 0 0 0 0 0 6 16 91 124 140 155 153 141 146 127 117 121 121 120 123 109 120 140 123 101 88 94 100 110 114 104 97 91 82 85 96 112 122 128 135 134 124 118 118 130 126 108 100 101 114 125 127 124 116 110 112 114 104 97 96 100 103 110 114 118 122 129 121 125 125 107 120 120 131 151 167 169 161 139 91 10 0 0 0 0 0 0 0 0 0 0 0 0 0 0 0 0 0 0 0 0 1 0 0 0 0 0 0 0 0 0 0 0 0 0 0 0 0 0 0 
0 0 0 0 0 0 0 0 0 0 0 0 1 6 32 107 126 144 158 133 140 134 121 121 109 121 112 119 112 129 134 108 91 93 104 113 116 105 95 85 76 80 92 112 131 133 123 111 101 84 83 87 110 89 83 78 79 82 87 109 130 138 133 121 119 113 99 93 102 111 116 115 112 113 125 126 124 126 112 114 114 137 154 163 170 162 142 107 16 0 0 0 0 0 0 0 0 0 0 0 0 0 0 0 0 0 0 0 0 0 0 0 0 0 0 0 0 0 0 0 0 0 0 0 0 0 0 0 
0 0 0 0 0 0 0 0 0 0 0 0 2 6 47 112 130 146 149 128 140 127 126 120 105 119 106 123 116 122 118 93 90 106 120 124 109 94 85 77 84 99 116 119 116 117 95 75 74 76 80 84 89 82 78 78 82 85 89 89 95 118 127 121 115 112 106 109 117 121 124 119 113 112 117 125 118 122 114 109 105 136 151 154 171 164 150 119 26 0 0 0 0 0 0 0 0 0 0 0 0 0 0 0 0 0 0 0 0 0 0 0 0 0 0 0 0 0 0 0 0 0 0 0 0 0 0 0 
0 0 0 0 0 0 0 0 0 0 0 0 2 7 61 118 137 154 141 131 130 124 129 116 105 114 104 128 115 115 105 88 99 122 133 122 98 88 81 82 98 114 119 114 98 91 79 74 73 76 83 82 82 81 78 79 82 87 88 78 70 89 116 123 118 115 118 123 116 111 120 124 117 112 112 119 105 117 114 109 102 134 150 152 172 168 155 130 37 1 0 0 0 0 0 0 0 0 0 0 0 0 0 0 0 0 0 0 0 0 0 0 0 0 0 0 0 0 0 0 0 0 0 0 0 0 0 0 
0 0 0 0 0 0 0 0 0 0 0 0 2 10 70 122 140 151 135 141 126 121 127 115 108 106 108 125 107 104 96 91 115 130 131 121 92 87 93 93 107 113 116 110 91 72 75 80 78 80 85 81 78 79 80 83 84 88 87 74 69 77 102 115 118 119 130 134 115 109 113 119 125 117 111 113 98 108 117 108 98 134 153 153 170 172 157 140 48 2 0 0 0 0 0 0 0 0 0 0 0 0 0 0 0 0 0 0 0 0 0 0 0 0 0 0 0 0 0 0 0 0 0 0 0 0 0 0 
0 0 0 0 0 0 0 0 0 0 0 0 3 13 77 128 145 157 135 147 125 122 129 119 107 104 116 119 101 97 94 104 124 135 130 121 96 89 105 120 122 104 110 108 97 76 67 77 82 83 87 84 74 77 83 85 82 83 83 70 69 77 91 113 131 128 140 140 127 114 114 113 119 126 117 108 97 104 112 100 103 132 152 150 169 173 161 146 58 4 0 0 0 0 0 0 0 0 0 0 0 0 0 0 0 0 0 0 0 0 0 0 0 0 0 0 0 0 0 0 0 0 0 0 0 0 0 0 
0 0 0 0 0 0 0 0 0 0 0 0 5 13 81 132 151 155 140 153 126 126 135 125 105 106 116 117 100 88 104 113 126 131 127 114 114 119 128 128 107 90 99 110 109 90 72 71 82 86 87 86 80 81 87 78 73 71 70 70 69 90 115 120 114 109 116 118 109 95 86 95 114 126 133 120 101 103 115 104 113 133 155 150 166 173 161 148 71 5 0 0 0 0 0 0 0 0 0 0 0 0 0 0 0 0 0 0 0 0 0 0 0 0 0 0 0 0 0 0 0 0 0 0 0 0 0 0 
0 0 0 0 0 0 0 0 0 0 0 0 5 14 84 135 156 152 141 154 132 130 136 130 106 111 114 109 100 91 109 110 122 129 116 103 100 94 87 84 82 85 88 92 93 98 94 74 73 72 73 82 89 90 87 76 73 71 70 69 84 114 96 78 71 75 92 106 106 93 82 75 83 126 142 132 115 103 119 117 113 131 151 142 163 177 165 151 87 6 0 0 0 0 0 0 0 0 0 0 0 0 0 0 0 0 0 0 0 0 0 0 0 0 0 0 0 0 0 0 0 0 0 0 0 0 0 0 
0 0 0 0 0 0 0 0 0 0 0 0 5 12 88 135 156 152 141 151 131 128 137 131 111 112 118 104 103 104 113 111 122 116 93 78 70 73 72 74 72 68 67 79 87 85 92 95 73 74 75 79 92 95 88 80 74 71 68 82 107 85 74 74 76 85 100 114 116 109 94 83 84 104 140 141 133 120 120 124 119 128 144 134 158 178 166 153 101 10 0 0 0 0 0 0 0 0 0 0 0 0 0 0 0 0 0 0 0 0 0 0 0 0 0 0 0 0 0 0 0 0 0 0 0 0 0 0 
0 0 0 0 0 0 0 0 0 0 0 0 7 13 89 137 157 148 139 148 126 125 134 133 117 119 127 109 104 107 115 121 116 102 90 79 76 79 85 86 84 77 71 71 75 88 84 98 81 75 82 86 100 100 94 86 76 74 81 114 90 75 75 70 76 81 94 112 115 108 99 93 98 112 136 157 143 132 118 126 120 123 134 128 145 172 165 151 114 14 0 0 0 0 0 0 0 0 0 0 0 0 0 0 0 0 0 0 0 0 0 0 0 0 0 0 0 0 0 0 0 0 0 0 0 0 0 0 
0 0 0 0 0 0 0 0 0 0 0 0 7 15 91 140 162 153 138 143 122 127 134 129 118 119 129 118 119 109 118 119 106 100 91 86 83 83 84 82 82 81 80 78 72 74 88 97 103 91 90 101 108 113 111 93 82 80 85 109 77 73 63 66 73 79 95 115 119 117 107 97 101 115 134 148 142 135 124 131 118 118 125 122 136 165 167 151 122 22 0 0 0 0 0 0 0 0 0 0 0 0 0 0 0 0 0 0 0 0 0 0 0 0 0 0 0 0 0 0 0 0 0 0 0 0 0 0 
0 0 0 0 0 0 0 0 0 0 0 0 6 15 92 142 163 153 132 132 123 123 130 125 113 123 127 117 117 118 131 131 120 116 104 90 81 75 72 74 72 72 74 77 77 73 81 89 108 104 104 107 118 115 124 104 81 75 101 97 75 64 66 76 88 97 101 113 118 111 102 97 101 114 124 126 132 128 131 136 120 121 122 117 128 155 169 153 127 31 1 0 0 0 0 0 0 0 0 0 0 0 0 0 0 0 0 0 0 0 0 0 0 0 0 0 0 0 0 0 0 0 0 0 0 0 0 0 
0 0 0 0 0 0 0 0 0 0 0 0 7 16 93 144 163 151 120 131 123 121 121 121 109 118 122 127 117 112 123 126 115 114 97 91 89 87 85 87 86 80 74 71 76 82 85 93 116 121 118 129 117 109 113 115 100 98 106 89 69 69 84 91 90 92 96 108 115 109 102 98 104 109 117 118 121 124 134 142 116 117 115 104 118 142 163 155 132 42 2 0 0 0 0 0 0 0 0 0 0 0 0 0 0 0 0 0 0 0 0 0 0 0 0 0 0 0 0 0 0 0 0 0 0 0 0 0 
0 0 0 0 0 0 0 0 0 0 0 0 8 16 96 147 162 150 121 134 119 117 114 115 103 116 116 122 112 106 119 121 115 116 103 91 89 86 84 84 90 92 88 80 78 86 98 104 119 127 123 123 111 116 108 105 101 103 114 80 76 85 78 76 76 81 92 105 115 108 99 98 107 113 120 112 113 123 130 138 118 118 109 101 109 133 159 154 133 47 2 0 0 0 0 0 0 0 0 0 0 0 0 0 0 0 0 0 0 0 0 0 0 0 0 0 0 0 0 0 0 0 0 0 0 0 0 0 
0 0 0 0 0 0 0 0 0 0 0 0 9 18 96 148 160 149 122 134 111 106 108 112 95 112 114 111 112 102 114 126 113 113 100 90 91 92 91 87 79 84 87 91 94 94 97 105 125 132 128 123 122 124 110 108 98 107 109 82 84 72 73 75 72 75 89 104 111 105 100 99 103 112 120 104 104 120 129 136 123 119 102 98 103 123 155 154 134 54 2 0 0 0 0 0 0 0 0 0 0 0 0 0 0 0 0 0 0 0 0 0 0 0 0 0 0 0 0 0 0 0 0 0 0 0 0 0 
0 0 0 0 0 0 0 0 0 0 0 0 8 18 95 146 162 142 109 125 103 97 103 110 83 91 116 117 117 104 110 131 116 111 99 84 86 88 87 79 73 76 76 79 90 104 102 102 113 121 127 128 118 102 100 87 109 114 113 87 80 78 80 72 70 74 88 103 109 105 99 97 101 114 114 99 103 122 131 139 128 120 96 98 104 122 133 143 135 60 3 0 0 0 0 0 0 0 0 0 0 0 0 0 0 0 0 0 0 0 0 0 0 0 0 0 0 0 0 0 0 0 0 0 0 0 0 0 
0 0 0 0 0 0 0 0 0 0 0 0 9 17 94 145 161 133 109 123 98 95 102 117 76 86 131 119 114 111 107 128 120 109 93 89 89 88 86 83 75 72 77 83 84 97 107 98 109 119 126 135 120 109 101 75 91 110 91 88 77 76 74 71 73 78 89 101 107 103 96 96 101 114 108 102 101 123 141 149 135 122 93 97 103 119 124 143 136 61 2 0 0 0 0 0 0 0 0 0 0 0 0 0 0 0 0 0 0 0 0 0 0 0 0 0 0 0 0 0 0 0 0 0 0 0 0 0 
0 0 0 0 0 0 0 0 0 0 0 0 8 16 90 142 156 128 113 110 99 95 102 118 79 85 134 118 111 121 115 127 120 100 90 85 85 85 85 93 79 75 78 76 84 96 99 99 105 116 120 117 103 98 95 74 73 106 76 83 80 74 68 73 76 79 89 99 105 103 98 94 103 114 97 101 103 130 137 141 138 122 94 96 101 118 124 145 129 57 1 0 0 0 0 0 0 0 0 0 0 0 0 0 0 0 0 0 0 0 0 0 0 0 0 0 0 0 0 0 0 0 0 0 0 0 0 0 
0 0 0 0 0 0 0 0 0 0 0 0 6 15 82 139 152 126 113 109 100 95 101 118 83 81 129 122 108 124 128 129 124 102 89 78 79 83 89 94 86 74 65 69 82 93 94 98 110 118 118 108 106 104 102 85 73 95 97 80 80 72 68 75 76 80 89 100 104 103 99 96 104 103 84 92 98 123 121 129 137 116 95 99 99 120 124 147 126 53 1 0 0 0 0 0 0 0 0 0 0 0 0 0 0 0 0 0 0 0 0 0 0 0 0 0 0 0 0 0 0 0 0 0 0 0 0 0 
0 0 0 0 0 0 0 0 0 0 0 0 4 14 74 137 149 126 114 109 100 94 97 118 90 77 123 124 109 122 134 131 125 106 97 95 94 88 88 88 84 69 66 71 86 98 96 91 109 122 126 108 102 108 113 95 77 77 102 82 73 69 72 81 77 81 93 100 103 98 98 100 104 96 77 93 101 122 112 119 140 110 97 100 98 117 128 142 118 49 1 0 0 0 0 0 0 0 0 0 0 0 0 0 0 0 0 0 0 0 0 0 0 0 0 0 0 0 0 0 0 0 0 0 0 0 0 0 
0 0 0 0 0 0 0 0 0 0 0 0 1 14 70 135 150 131 114 108 97 95 89 116 96 71 114 123 112 116 130 127 125 105 98 95 93 84 85 85 82 68 68 77 84 93 95 99 113 123 112 104 105 109 121 107 86 73 88 91 98 75 75 80 77 81 87 90 93 93 101 105 98 89 77 97 110 132 120 120 141 101 101 98 98 116 132 141 110 43 2 0 0 0 0 0 0 0 0 0 0 0 0 0 0 0 0 0 0 0 0 0 0 0 0 0 0 0 0 0 0 0 0 0 0 0 0 0 
0 0 0 0 0 0 0 0 0 7 7 0 1 13 62 128 146 135 114 107 97 99 85 112 104 71 104 118 111 107 123 125 129 112 96 92 91 86 86 85 88 77 74 76 86 107 107 107 111 122 97 93 100 110 105 103 92 74 76 98 101 95 91 82 79 83 87 89 90 92 99 98 94 85 81 100 109 122 119 128 139 92 103 92 99 109 132 137 102 39 1 0 0 0 0 0 0 0 0 0 0 0 0 0 0 0 0 0 0 0 0 0 0 0 0 0 0 0 0 0 0 0 0 0 0 0 0 0 
0 0 0 0 0 0 0 0 0 3 6 3 1 10 53 118 144 135 111 108 87 100 89 104 110 74 102 114 116 98 108 115 127 126 100 87 82 86 84 85 93 93 85 89 93 90 109 110 114 103 87 88 91 105 97 91 82 78 80 98 98 110 96 88 88 82 89 92 92 89 89 92 94 92 100 100 114 127 119 137 136 93 103 84 105 104 135 132 95 34 0 0 0 0 0 0 0 0 0 0 0 0 0 0 0 0 0 0 0 0 0 0 0 0 0 0 0 0 0 0 0 0 0 0 0 0 0 0 
0 0 0 0 0 0 0 0 0 1 3 9 3 10 45 107 139 134 105 107 84 95 93 101 114 83 101 108 119 94 94 102 115 135 110 80 76 80 80 86 91 86 82 92 95 101 118 110 104 91 84 76 84 99 87 78 84 71 89 112 98 108 112 109 89 85 102 106 95 91 87 99 105 109 106 103 128 112 108 139 134 101 95 87 105 110 137 122 89 27 0 0 0 0 0 0 0 0 0 0 0 0 0 0 0 0 0 0 0 0 0 0 0 0 0 0 0 0 0 0 0 0 0 0 0 0 0 0 
0 0 0 0 0 0 0 0 0 0 1 14 7 10 36 98 134 136 109 102 102 89 100 93 111 95 108 99 118 107 104 116 116 115 116 87 77 77 88 82 88 88 88 102 102 94 88 96 98 78 68 67 80 95 83 71 74 70 84 109 109 109 112 100 100 108 131 123 113 117 122 137 139 133 134 141 131 99 113 146 128 126 96 107 99 128 144 113 83 18 0 0 0 9 4 0 0 0 0 0 0 0 0 0 0 0 0 0 0 0 0 0 0 0 0 0 0 0 0 0 0 0 0 0 0 0 0 0 
0 0 0 0 0 0 0 0 0 0 2 13 5 9 30 88 129 139 109 102 112 85 97 94 107 110 114 96 114 116 123 129 129 129 120 97 88 83 92 95 97 84 77 88 115 97 82 97 109 71 58 67 77 87 77 63 68 69 83 120 126 110 105 101 106 120 147 151 140 137 134 140 129 124 122 148 142 107 119 138 127 133 117 113 91 134 147 109 77 13 3 1 3 0 2 0 0 0 0 0 0 0 0 0 0 0 0 0 0 0 0 0 0 0 0 0 0 0 0 0 0 0 0 0 0 0 0 0 
0 0 0 0 0 0 0 0 0 0 2 10 1 8 22 78 121 146 126 101 110 90 80 99 100 121 112 99 102 118 134 126 115 116 119 112 113 98 96 102 95 82 84 96 112 96 94 102 104 70 60 72 73 88 77 60 70 81 104 134 123 110 98 97 107 134 160 157 144 138 143 153 128 122 127 141 140 124 128 124 130 133 124 118 132 137 114 104 67 10 5 4 5 2 0 0 0 0 0 0 0 0 0 0 0 0 0 0 0 0 0 0 0 0 0 0 0 0 0 0 0 0 0 0 0 0 0 0 
0 0 0 0 0 0 0 0 0 0 2 9 2 8 16 67 112 142 137 107 105 107 74 107 108 134 112 108 98 114 141 136 123 116 119 124 107 103 113 116 118 108 98 94 99 99 94 92 97 85 66 65 75 86 72 76 84 93 114 120 99 114 118 121 118 132 151 143 127 139 165 153 157 165 158 159 143 138 151 142 141 141 137 139 159 130 91 93 51 7 6 5 5 0 0 0 0 0 0 0 0 0 0 0 0 0 0 0 0 0 0 0 0 0 0 0 0 0 0 0 0 0 0 0 0 0 0 0 
0 0 0 0 0 0 0 0 0 0 1 8 2 8 12 55 103 139 142 126 104 131 101 101 110 135 128 117 114 122 149 146 145 152 143 130 122 116 97 88 99 105 91 70 77 93 102 107 109 80 80 82 66 85 78 76 77 94 99 103 102 109 115 114 122 134 148 147 138 144 174 160 170 163 146 135 134 147 166 170 158 169 156 169 170 142 117 95 32 7 3 0 6 0 0 0 0 0 0 0 0 0 0 0 0 0 0 0 0 0 0 0 0 0 0 0 0 0 0 0 0 0 0 0 0 0 0 0 
0 0 0 0 0 0 0 0 0 0 0 9 3 7 8 38 98 136 145 140 130 151 126 117 121 144 141 128 110 118 148 153 147 148 144 137 153 139 121 109 109 110 106 74 73 87 108 101 90 71 85 95 77 93 85 77 76 84 95 99 109 116 114 106 107 117 136 136 141 159 161 156 159 147 138 129 132 114 139 171 163 182 179 162 148 127 110 79 16 2 1 0 4 0 0 0 0 0 0 0 0 0 0 0 0 0 0 0 0 0 0 0 0 0 0 0 0 0 0 0 0 0 0 0 0 0 0 0 
0 0 0 0 0 0 0 0 0 0 0 7 4 5 8 14 57 115 156 146 147 164 171 147 144 153 143 131 128 126 149 161 152 151 153 145 152 148 135 111 106 111 116 106 89 92 103 98 89 89 103 112 97 106 115 90 79 85 88 104 104 104 105 96 117 126 115 129 144 146 131 138 150 138 136 135 134 123 132 152 161 169 169 148 145 128 113 89 16 4 3 0 1 3 0 0 0 0 0 0 0 0 0 0 0 0 0 0 0 0 0 0 0 0 0 0 0 0 0 0 0 0 0 0 0 0 0 0 
0 0 0 0 0 0 0 0 0 0 0 6 5 3 5 10 35 105 149 147 148 165 160 160 162 161 148 146 140 124 137 162 158 155 156 141 141 152 126 108 103 107 113 105 95 102 115 102 101 107 119 117 113 129 127 101 86 78 78 97 92 91 100 109 134 138 127 142 148 127 115 112 127 122 127 140 117 120 132 150 158 177 152 134 136 137 112 62 4 1 4 1 2 3 0 0 0 0 0 0 0 0 0 0 0 0 0 0 0 0 0 0 0 0 0 0 0 0 0 0 0 0 0 0 0 0 0 0 
0 0 0 0 0 0 0 0 0 0 0 5 2 1 2 7 22 84 139 160 138 153 150 144 163 165 162 151 140 136 129 137 133 143 148 143 131 137 114 114 104 101 106 116 106 106 116 93 105 118 105 100 99 116 120 114 91 72 74 92 103 96 110 112 115 109 119 135 142 133 111 109 111 127 138 134 120 134 117 140 153 165 141 147 150 130 101 33 4 2 2 3 2 2 0 0 0 0 0 0 0 0 0 0 0 0 0 0 0 0 0 0 0 0 0 0 0 0 0 0 0 0 0 0 0 0 0 0 
0 0 0 0 0 0 0 0 0 0 0 6 1 2 0 5 14 58 124 162 140 126 144 147 139 148 161 147 141 130 127 127 128 138 130 148 140 119 106 115 112 118 109 104 102 112 119 102 104 107 106 96 90 109 119 129 96 74 78 91 104 107 111 119 128 112 102 97 96 107 113 112 107 137 149 145 142 138 123 136 140 139 147 140 130 117 75 17 5 4 4 3 0 3 0 0 0 0 0 0 0 0 0 0 0 0 0 0 0 0 0 0 0 0 0 0 0 0 0 0 0 0 0 0 0 0 0 0 
0 0 0 0 0 0 0 0 0 0 0 7 2 2 0 4 16 35 104 146 136 109 127 139 150 141 133 130 137 140 135 130 137 146 143 136 140 128 113 91 94 94 99 103 96 96 122 98 91 102 114 106 92 91 116 117 106 99 103 110 96 111 116 118 132 109 81 71 80 103 122 111 117 125 123 138 145 144 138 147 150 139 140 116 95 96 46 12 3 3 4 0 0 3 0 0 0 0 0 0 0 0 0 0 0 0 0 0 0 0 0 0 0 0 0 0 0 0 0 0 0 0 0 0 0 0 0 0 
0 0 0 0 0 0 0 0 0 0 0 7 5 3 0 7 18 23 78 129 134 127 108 126 141 135 140 125 120 127 135 127 127 135 138 140 119 135 128 106 93 94 88 85 96 107 113 102 101 106 122 133 117 114 132 126 112 104 112 110 99 118 132 128 121 103 78 80 102 119 106 116 121 100 126 136 145 152 154 142 126 123 128 92 77 77 28 16 9 7 2 0 0 3 0 0 0 0 0 0 0 0 0 0 0 0 0 0 0 0 0 0 0 0 0 0 0 0 0 0 0 0 0 0 0 0 0 0 
0 0 0 0 0 0 0 0 0 0 0 7 9 5 2 7 17 15 45 112 137 112 117 133 136 133 138 127 113 120 132 129 128 129 130 140 104 83 94 114 106 103 93 96 117 123 130 131 124 134 140 151 152 152 149 143 143 151 141 128 124 138 139 132 113 101 88 92 106 116 109 123 111 101 136 137 144 149 155 145 116 116 116 96 89 59 21 19 12 7 2 0 0 4 0 0 0 0 0 0 0 0 0 0 0 0 0 0 0 0 0 0 0 0 0 0 0 0 0 0 0 0 0 0 0 0 0 0 
0 0 0 0 0 0 0 0 0 0 2 7 11 8 3 7 18 13 24 91 122 125 110 122 135 152 143 121 120 119 127 135 139 135 116 127 114 82 71 85 105 114 110 114 118 125 140 145 156 156 162 165 163 165 167 163 157 156 145 144 144 151 163 151 130 121 117 109 102 127 110 108 116 127 137 142 139 154 158 141 110 90 99 92 99 39 19 21 11 6 3 0 0 5 0 0 0 0 0 0 0 0 0 0 0 0 0 0 0 0 0 0 0 0 0 0 0 0 0 0 0 0 0 0 0 0 0 0 
0 0 0 0 0 0 0 0 0 0 3 7 8 9 5 7 11 12 13 65 115 142 105 102 137 155 162 131 127 142 135 149 154 149 125 107 99 101 97 98 121 116 118 115 112 125 138 142 158 157 154 152 144 142 147 144 140 135 127 141 152 159 178 154 134 137 144 142 137 130 100 84 112 129 126 130 128 170 156 136 123 103 99 106 86 28 15 12 8 7 2 0 4 6 1 0 0 0 0 0 0 0 0 0 0 0 0 0 0 0 0 0 0 0 0 0 0 0 0 0 0 0 0 0 0 0 0 0 
0 0 0 0 0 0 0 0 0 0 2 7 6 3 2 5 8 8 11 40 96 137 114 91 130 143 168 158 122 133 134 153 154 145 127 116 106 109 118 125 129 139 156 133 117 125 136 152 158 159 134 135 139 136 146 148 141 130 119 128 136 168 180 166 152 144 134 151 141 109 85 97 121 115 113 134 141 160 149 126 99 94 114 108 69 23 12 9 9 7 4 5 7 7 2 0 0 0 0 0 0 0 0 0 0 0 0 0 0 0 0 0 0 0 0 0 0 0 0 0 0 0 0 0 0 0 0 0 
0 0 0 0 0 0 0 0 0 0 0 4 13 9 3 5 7 6 12 29 79 131 131 109 114 129 162 164 129 121 116 140 140 122 112 111 102 108 123 142 145 162 188 189 168 160 169 154 151 155 144 152 159 157 155 141 151 150 137 130 131 147 157 148 152 138 136 156 153 109 91 104 127 123 144 145 140 142 146 130 93 63 100 106 54 20 10 10 9 8 5 7 7 8 4 0 0 0 0 0 0 0 0 0 0 0 0 0 0 0 0 0 0 0 0 0 0 0 0 0 0 0 0 0 0 0 0 0 
0 0 0 0 0 0 0 0 0 0 0 7 13 13 6 7 8 8 17 20 56 112 131 103 100 111 132 147 141 117 114 123 132 114 107 112 116 116 107 109 127 140 163 178 181 173 175 145 136 148 164 162 161 173 158 126 139 150 146 131 131 139 132 138 155 155 160 175 170 135 105 106 122 119 156 165 167 159 164 109 64 68 93 85 32 20 9 8 10 7 1 3 6 7 6 0 0 0 0 0 0 0 0 0 0 0 0 0 0 0 0 0 0 0 0 0 0 0 0 0 0 0 0 0 0 0 0 0 
0 0 0 0 0 0 0 0 0 0 0 7 12 9 9 9 10 13 16 17 30 81 118 100 89 111 119 132 143 122 126 126 142 128 105 101 102 108 109 109 111 120 145 150 170 159 165 133 122 143 158 162 159 154 137 106 98 107 117 117 122 143 133 149 175 176 174 184 165 148 112 98 107 123 158 164 173 155 155 98 52 36 74 50 19 17 10 6 8 1 1 3 6 8 3 0 0 0 0 0 0 0 0 0 0 0 0 0 0 0 0 0 0 0 0 0 0 0 0 0 0 0 0 0 0 0 0 0 
0 0 0 0 0 0 0 0 0 0 0 3 13 8 9 9 11 11 11 14 18 47 101 100 99 104 122 145 152 162 160 132 110 118 103 93 94 97 105 116 133 138 151 157 163 151 162 150 132 126 141 143 134 143 142 129 125 121 119 119 128 142 147 185 188 182 167 161 143 153 143 101 126 136 136 149 133 132 118 76 57 90 92 32 11 9 12 9 5 4 2 3 14 6 0 0 0 0 0 0 0 0 0 0 0 0 0 0 0 0 0 0 0 0 0 0 0 0 0 0 0 0 0 0 0 0 0 0 
0 0 0 0 0 0 0 0 0 0 0 0 8 9 7 5 6 8 6 15 19 28 73 86 80 95 114 145 131 153 162 154 129 113 104 88 90 93 111 128 131 148 181 179 152 161 177 171 161 154 158 154 152 166 170 152 140 142 146 155 155 162 188 198 200 168 150 143 156 144 157 134 132 128 112 116 97 106 113 84 92 99 52 18 9 3 4 6 4 4 6 6 8 4 0 0 0 0 0 0 0 0 0 0 0 0 0 0 0 0 0 0 0 0 0 0 0 0 0 0 0 0 0 0 0 0 0 0 
0 0 0 0 0 0 0 0 0 0 0 0 4 5 5 2 2 1 5 11 17 24 41 78 81 72 91 98 76 125 135 144 125 119 116 85 74 79 102 118 186 166 187 199 171 180 173 178 175 159 161 166 160 152 148 146 148 146 150 164 165 176 205 174 220 185 171 163 113 125 128 146 103 72 68 97 87 84 87 77 70 45 28 18 7 3 2 3 2 5 5 6 7 0 0 0 0 0 0 0 0 0 0 0 0 0 0 0 0 0 0 0 0 0 0 0 0 0 0 0 0 0 0 0 0 0 0 0 
0 0 0 0 0 0 0 0 0 0 0 0 0 3 4 1 0 0 0 9 19 23 26 46 70 65 57 59 63 83 95 125 131 131 126 127 113 143 170 177 168 161 172 171 160 168 194 202 177 155 138 160 156 136 138 154 151 157 166 181 180 188 184 145 151 184 177 196 132 106 106 78 56 70 80 102 76 70 55 49 44 38 29 18 17 1 2 2 1 0 0 2 7 0 0 0 0 0 0 0 0 0 0 0 0 0 0 0 0 0 0 0 0 0 0 0 0 0 0 0 0 0 0 0 0 0 0 0 
0 0 0 0 0 0 0 0 0 0 0 0 0 3 5 4 5 2 1 4 11 12 20 24 38 64 48 54 67 68 63 73 68 69 65 100 101 81 98 95 92 125 163 144 118 130 159 128 147 108 93 113 107 89 88 97 93 76 94 95 84 103 110 192 154 153 119 119 68 54 44 59 69 78 61 103 79 73 46 27 33 25 18 6 3 1 5 5 1 0 1 8 7 0 0 0 0 0 0 0 0 0 0 0 0 0 0 0 0 0 0 0 0 0 0 0 0 0 0 0 0 0 0 0 0 0 0 0 
0 0 0 0 0 0 0 0 0 0 0 0 0 0 4 4 4 2 2 0 6 8 12 16 20 24 24 42 72 69 56 74 44 41 43 66 98 75 70 71 73 84 83 84 73 77 78 68 85 77 57 80 94 93 92 86 67 52 67 72 84 98 98 98 100 102 73 98 101 84 59 73 79 68 52 96 77 75 42 29 29 24 14 5 3 0 2 4 4 3 4 7 0 0 0 0 0 0 0 0 0 0 0 0 0 0 0 0 0 0 0 0 0 0 0 0 0 0 0 0 0 0 0 0 0 0 0 0 
0 0 0 0 0 0 0 0 0 0 0 0 0 0 0 0 1 0 0 0 3 6 10 16 20 28 31 39 74 75 51 72 56 51 51 52 86 86 129 89 104 142 115 101 100 93 87 90 99 74 69 96 96 103 109 107 106 87 100 101 105 111 94 69 89 123 140 118 114 117 110 100 104 87 64 90 75 71 42 31 31 19 9 6 1 0 0 1 2 2 2 0 0 0 0 0 0 0 0 0 0 0 0 0 0 0 0 0 0 0 0 0 0 0 0 0 0 0 0 0 0 0 0 0 0 0 0 0 
0 0 0 0 0 0 0 0 0 0 0 0 0 0 0 0 0 0 0 0 0 1 3 8 13 23 30 43 83 90 78 90 94 101 100 97 110 135 112 135 130 166 155 125 124 157 126 144 135 134 133 126 103 108 111 136 147 129 124 129 135 144 143 130 130 158 157 125 88 129 133 132 123 123 109 94 61 63 31 22 21 4 0 4 1 0 0 0 0 0 0 0 0 0 0 0 0 0 0 0 0 0 0 0 0 0 0 0 0 0 0 0 0 0 0 0 0 0 0 0 0 0 0 0 0 0 0 0 
0 0 0 0 0 0 0 0 0 0 0 0 0 0 0 0 0 0 0 0 0 4 10 5 7 15 25 30 70 84 78 89 110 139 146 142 161 131 96 95 150 174 155 133 174 163 153 178 180 171 165 157 147 141 153 158 151 126 125 136 143 167 184 154 164 170 145 114 122 167 119 152 147 145 125 107 76 67 37 33 30 5 4 4 1 0 0 1 0 0 0 0 0 0 0 0 0 0 0 0 0 0 0 0 0 0 0 0 0 0 0 0 0 0 0 0 0 0 0 0 0 0 0 0 0 0 0 0 
0 0 0 0 0 0 0 0 0 0 0 0 0 0 0 0 0 0 0 0 0 0 1 3 7 17 21 27 60 73 72 61 69 58 49 64 131 146 111 110 133 109 123 100 97 111 155 166 171 136 131 128 121 120 125 122 131 136 144 146 151 157 150 142 156 162 151 103 123 145 119 79 67 73 86 100 85 65 32 32 15 5 8 1 1 3 4 5 3 2 0 0 0 0 0 0 0 0 0 0 0 0 0 0 0 0 0 0 0 0 0 0 0 0 0 0 0 0 0 0 0 0 0 0 0 0 0 0 
0 0 0 0 0 0 0 0 0 0 0 0 0 0 0 0 0 0 0 0 0 0 3 6 9 16 16 22 39 48 68 56 70 48 31 29 67 115 64 131 128 114 103 83 84 123 158 159 102 112 112 100 106 106 92 65 83 100 117 116 144 137 115 90 101 112 124 96 103 108 104 69 48 51 68 90 81 52 21 12 14 14 7 1 0 1 3 3 3 1 0 0 0 0 0 0 0 0 0 0 0 0 0 0 0 0 0 0 0 0 0 0 0 0 0 0 0 0 0 0 0 0 0 0 0 0 0 0 
0 0 0 0 0 0 0 0 0 0 0 0 0 0 0 0 0 0 0 0 0 0 2 5 9 11 18 21 28 39 58 67 83 58 42 38 58 58 73 97 91 82 98 101 108 129 153 135 86 118 110 98 96 100 104 84 100 117 130 113 124 137 118 78 73 89 107 120 96 94 90 67 40 38 74 97 78 52 20 16 18 12 6 1 0 0 2 3 3 2 0 0 0 0 0 0 0 0 0 0 0 0 0 0 0 0 0 0 0 0 0 0 0 0 0 0 0 0 0 0 0 0 0 0 0 0 0 0 
0 0 0 0 0 0 0 0 0 0 0 0 0 0 0 0 0 0 0 0 0 0 1 4 7 10 15 21 23 41 47 70 81 65 44 55 79 79 88 91 80 83 80 99 86 101 110 120 115 137 123 97 109 113 112 106 116 114 126 120 123 145 120 91 89 90 102 113 104 99 92 87 58 39 79 102 74 56 22 17 16 11 5 0 0 0 2 3 3 2 0 0 0 0 0 0 0 0 0 0 0 0 0 0 0 0 0 0 0 0 0 0 0 0 0 0 0 0 0 0 0 0 0 0 0 0 0 0 
0 0 0 0 0 0 0 0 0 0 0 0 0 0 0 0 0 0 0 0 0 0 0 3 6 9 13 18 22 39 49 74 78 69 63 92 92 66 51 54 72 71 66 102 85 97 100 109 138 139 130 106 118 124 117 117 119 108 114 118 103 126 131 113 85 93 104 107 116 97 73 85 106 65 77 102 72 53 27 17 15 11 4 0 0 1 2 3 3 2 0 0 0 0 0 0 0 0 0 0 0 0 0 0 0 0 0 0 0 0 0 0 0 0 0 0 0 0 0 0 0 0 0 0 0 0 0 0 
0 0 0 0 0 0 0 0 0 0 0 0 0 0 0 0 0 0 0 0 0 0 0 0 4 9 10 14 19 28 59 72 81 67 77 108 77 41 42 59 67 57 71 109 91 84 90 105 144 117 95 92 103 107 107 102 98 88 98 109 102 98 121 107 90 89 115 81 89 102 71 62 107 97 78 100 79 49 31 17 14 11 2 0 0 0 3 4 4 3 1 0 0 0 0 0 0 0 0 0 0 0 0 0 0 0 0 0 0 0 0 0 0 0 0 0 0 0 0 0 0 0 0 0 0 0 0 0 
0 0 0 0 0 0 0 0 0 0 0 0 0 0 0 0 0 0 0 0 0 0 0 0 2 5 9 12 16 20 42 47 78 59 90 113 64 38 51 64 54 49 97 119 87 75 79 78 121 105 77 85 92 99 97 97 94 91 92 100 105 105 115 96 96 79 121 95 55 73 67 43 85 121 86 98 86 51 17 15 14 8 2 0 0 0 1 3 4 3 1 0 0 0 0 0 0 0 0 0 0 0 0 0 0 0 0 0 0 0 0 0 0 0 0 0 0 0 0 0 0 0 0 0 0 0 0 0 
0 0 0 0 0 0 0 0 0 0 0 0 0 0 0 0 0 0 0 0 0 0 0 0 2 4 7 12 12 18 26 35 73 66 93 102 59 37 57 62 52 60 107 109 86 79 80 75 108 100 79 78 85 105 105 108 104 103 81 82 93 113 107 87 91 86 104 108 67 58 69 51 67 121 93 82 41 18 15 15 15 7 1 0 0 0 1 3 3 3 1 0 0 0 0 0 0 0 0 0 0 0 0 0 0 0 0 0 0 0 0 0 0 0 0 0 0 0 0 0 0 0 0 0 0 0 0 0 
0 0 0 0 0 0 0 0 0 0 0 0 0 0 0 0 0 0 0 0 0 0 0 0 0 2 4 7 13 17 19 29 39 54 67 85 63 47 64 57 49 64 79 86 79 84 88 82 104 101 93 84 79 92 109 113 111 92 80 74 89 117 107 84 84 81 81 75 72 54 66 63 67 105 92 44 17 15 16 17 14 7 0 0 0 0 1 3 4 3 2 0 0 0 0 0 0 0 0 0 0 0 0 0 0 0 0 0 0 0 0 0 0 0 0 0 0 0 0 0 0 0 0 0 0 0 0 0 
0 0 0 0 0 0 0 0 0 0 0 0 0 0 0 0 0 0 0 0 0 0 0 0 0 0 5 4 11 15 18 20 18 14 28 80 89 65 57 59 48 58 64 91 83 76 80 86 105 108 85 78 73 81 96 107 112 91 71 70 85 109 119 93 73 74 69 76 72 57 65 71 84 106 54 20 13 12 15 18 13 6 0 0 0 0 1 3 3 3 2 0 0 0 0 0 0 0 0 0 0 0 0 0 0 0 0 0 0 0 0 0 0 0 0 0 0 0 0 0 0 0 0 0 0 0 0 0 
0 0 0 0 0 0 0 0 0 0 0 0 0 0 0 0 0 0 0 0 0 0 0 0 0 0 3 5 9 12 18 18 18 16 19 42 92 72 50 60 68 71 62 96 93 73 69 88 114 112 77 75 74 84 99 114 122 91 59 55 77 107 122 94 64 66 90 89 78 76 71 69 86 90 30 18 11 13 14 16 11 6 1 0 0 0 0 2 3 3 2 0 0 0 0 0 0 0 0 0 0 0 0 0 0 0 0 0 0 0 0 0 0 0 0 0 0 0 0 0 0 0 0 0 0 0 0 0 
0 0 0 0 0 0 0 0 0 0 0 0 0 0 0 0 0 0 0 0 0 0 0 0 0 0 1 3 6 9 15 19 17 18 18 18 50 78 67 89 96 66 64 99 97 74 63 80 105 105 77 76 82 92 110 127 129 108 77 59 68 125 128 94 57 64 98 101 75 99 104 82 80 39 23 17 10 13 15 14 11 6 1 0 0 0 0 2 3 3 2 0 0 0 0 0 0 0 0 0 0 0 0 0 0 0 0 0 0 0 0 0 0 0 0 0 0 0 0 0 0 0 0 0 0 0 0 0 
0 0 0 0 0 0 0 0 0 0 0 0 0 0 0 0 0 0 0 0 0 0 0 0 0 0 0 3 4 6 11 17 16 17 16 17 19 43 65 88 89 59 72 109 102 70 64 95 111 106 73 72 77 83 105 121 131 117 89 69 70 99 115 111 68 66 107 118 78 85 97 73 40 25 24 16 11 14 14 12 10 5 1 0 0 0 0 2 3 3 2 0 0 0 0 0 0 0 0 0 0 0 0 0 0 0 0 0 0 0 0 0 0 0 0 0 0 0 0 0 0 0 0 0 0 0 0 0 
0 0 0 0 0 0 0 0 0 0 0 0 0 0 0 0 0 0 0 0 0 0 0 0 0 0 0 0 5 5 10 17 15 20 19 17 15 19 26 39 59 62 79 117 109 81 85 119 119 97 69 68 75 99 121 128 137 128 102 82 74 81 112 129 97 86 116 122 82 65 50 30 26 26 23 15 12 13 13 10 9 4 1 0 0 0 0 2 3 3 2 0 0 0 0 0 0 0 0 0 0 0 0 0 0 0 0 0 0 0 0 0 0 0 0 0 0 0 0 0 0 0 0 0 0 0 0 0 
0 0 0 0 0 0 0 0 0 0 0 0 0 0 0 0 0 0 0 0 0 0 0 0 0 0 0 0 0 6 6 15 14 18 23 14 13 18 26 30 38 56 75 104 110 97 107 126 123 87 72 77 102 122 126 123 131 140 127 97 80 75 106 129 109 93 125 117 76 46 29 26 27 25 19 13 10 13 10 9 8 4 1 0 0 0 0 2 4 4 2 0 0 0 0 0 0 0 0 0 0 0 0 0 0 0 0 0 0 0 0 0 0 0 0 0 0 0 0 0 0 0 0 0 0 0 0 0 
0 0 0 0 0 0 0 0 0 0 0 0 0 0 0 0 0 0 0 0 0 0 0 0 0 0 0 0 0 6 6 12 14 16 21 14 12 17 27 30 31 32 40 52 89 103 97 108 94 82 88 107 122 129 126 120 120 132 142 115 92 85 97 114 108 102 99 66 50 38 26 26 27 26 16 13 10 12 11 10 7 4 1 0 0 0 0 2 3 3 2 0 0 0 0 0 0 0 0 0 0 0 0 0 0 0 0 0 0 0 0 0 0 0 0 0 0 0 0 0 0 0 0 0 0 0 0 0 
0 0 0 0 0 0 0 0 0 0 0 0 0 0 0 0 0 0 0 0 0 0 0 0 0 0 0 0 0 5 7 10 14 15 21 17 14 16 28 30 31 34 33 35 53 79 89 72 71 77 91 110 118 113 115 104 100 108 131 123 107 87 89 81 84 75 51 49 48 42 24 27 28 26 18 13 13 10 13 12 8 3 1 0 0 0 0 1 3 3 2 1 0 0 0 0 0 0 0 0 0 0 0 0 0 0 0 0 0 0 0 0 0 0 0 0 0 0 0 0 0 0 0 0 0 0 0 0 
