P2
128 99
255
0 0 0 0 0 0 0 0 0 0 0 0 0 0 0 0 0 0 0 0 0 0 0 0 0 0 0 0 0 0 0 0 0 0 0 0 0 0 0 0 0 0 0 0 0 0 0 0 0 0 0 0 0 0 0 0 0 0 0 0 0 0 0 0 0 0 0 0 0 0 0 0 0 0 0 0 1 1 1 1 0 0 0 0 0 0 0 0 0 0 0 0 0 0 0 0 0 0 0 0 0 0 0 0 0 0 0 0 0 0 0 0 0 0 0 0 0 0 0 0 0 0 0 0 0 0 0 0 
0 0 0 0 0 0 0 0 0 0 0 0 0 0 0 0 0 0 0 0 0 0 0 0 0 0 0 0 0 0 0 0 0 0 0 0 0 0 0 0 0 0 0 0 0 0 0 0 0 0 0 0 0 0 0 0 0 0 0 0 0 1 1 1 1 1 0 0 0 0 0 0 0 0 0 0 1 1 2 0 0 0 0 0 0 0 0 0 0 0 0 0 0 0 0 0 0 0 0 0 0 0 0 0 0 0 0 0 0 0 0 0 0 0 0 0 0 0 0 0 0 0 0 0 0 0 0 0 
0 0 0 0 0 0 0 0 0 0 0 0 0 0 0 0 0 0 0 0 0 0 0 0 0 0 0 0 0 0 0 0 0 0 0 0 0 0 0 0 0 0 0 0 0 0 0 0 0 0 1 1 0 2 2 0 0 0 0 0 0 1 1 1 1 1 1 0 0 0 0 0 0 0 0 0 0 1 2 1 0 0 0 0 0 0 0 0 0 0 0 0 0 0 0 0 0 0 0 0 0 0 0 0 0 0 0 0 0 0 0 0 0 0 0 0 0 0 0 0 0 0 0 0 0 0 0 0 
0 0 0 0 0 0 0 0 0 0 0 0 0 0 0 0 0 0 0 0 0 0 0 0 0 0 0 0 0 0 0 0 0 0 0 0 0 0 0 0 0 0 0 1 6 15 17 16 12 12 17 22 26 27 25 22 20 16 10 12 8 0 1 1 1 1 0 0 0 0 0 0 0 0 0 0 0 1 2 1 0 0 0 0 0 0 0 0 0 0 0 0 0 0 0 0 0 0 0 0 0 0 0 0 0 0 0 0 0 0 0 0 0 0 0 0 0 0 0 0 0 0 0 0 0 0 0 0 
0 0 0 0 0 0 0 0 0 0 0 0 0 0 0 0 0 0 0 0 0 0 0 0 0 0 0 0 0 0 0 0 0 0 0 0 0 0 0 0 0 15 23 17 25 39 53 75 95 111 124 132 133 131 127 119 109 96 77 54 38 25 14 16 7 1 0 0 0 0 0 0 0 0 0 0 0 1 1 0 0 0 0 0 0 0 0 0 0 0 0 0 0 0 0 0 0 0 0 0 0 0 0 0 0 0 0 0 0 0 0 0 0 0 0 0 0 0 0 0 0 0 0 0 0 0 0 0 
0 0 0 0 0 0 0 0 0 0 0 0 0 0 0 0 0 0 0 0 0 0 0 0 0 0 0 0 0 0 0 0 0 0 0 0 0 0 3 23 25 24 37 64 107 141 153 149 150 157 166 168 168 169 168 164 162 159 150 135 121 106 84 53 30 15 18 5 0 0 0 0 0 0 0 0 0 0 1 0 0 0 0 0 0 0 0 0 0 0 0 0 0 0 0 0 0 0 0 0 0 0 0 0 0 0 0 0 0 0 0 0 0 0 0 0 0 0 0 0 0 0 0 0 0 0 0 0 
0 0 0 0 0 0 0 0 0 0 0 0 0 0 0 0 0 0 0 0 0 0 0 0 0 0 0 0 0 0 0 0 0 0 0 0 5 29 29 24 46 98 147 155 150 164 174 170 164 162 159 160 159 159 162 164 168 173 173 169 167 164 146 123 107 82 45 20 16 5 0 0 0 0 0 0 0 0 0 0 0 0 0 0 0 0 0 0 0 0 0 0 0 0 0 0 0 0 0 0 0 0 0 0 0 0 0 0 0 0 0 0 0 0 0 0 0 0 0 0 0 0 0 0 0 0 0 0 
0 0 0 0 0 0 0 0 0 0 0 0 0 0 0 0 0 0 0 0 0 0 0 0 0 0 0 0 0 0 0 0 0 0 7 33 26 23 55 124 158 150 156 169 171 162 150 149 147 151 163 176 181 180 178 185 185 173 163 162 164 172 179 175 166 141 113 95 62 22 14 5 0 0 0 0 0 0 0 0 0 0 0 0 0 0 0 0 0 0 0 0 0 0 0 0 0 0 0 0 0 0 0 0 0 0 0 0 0 0 0 0 0 0 0 0 0 0 0 0 0 0 0 0 0 0 0 0 
0 0 0 0 0 0 0 0 0 0 0 0 0 0 0 0 0 0 0 0 0 0 0 0 0 0 0 0 0 0 0 0 4 34 26 22 53 127 158 148 156 170 171 167 162 158 166 178 196 202 203 204 201 186 186 196 207 219 222 206 188 169 162 165 172 178 172 153 116 90 58 24 16 0 0 0 0 1 0 0 0 0 0 0 0 0 0 0 0 0 0 0 0 0 0 0 0 0 0 0 0 0 0 0 0 0 0 0 0 0 0 0 0 0 0 0 0 0 0 0 0 0 0 0 0 0 0 0 
0 0 0 0 0 0 0 0 0 0 0 0 0 0 0 0 0 0 0 0 0 0 0 0 0 0 0 0 0 0 0 30 27 18 36 105 159 148 157 170 170 166 164 165 172 186 193 181 162 157 158 159 162 151 149 149 153 167 194 214 224 223 210 187 165 158 165 170 168 147 111 82 38 19 6 0 0 1 1 0 0 0 0 0 0 0 0 0 0 0 0 0 0 0 0 0 0 0 0 0 0 0 0 0 0 0 0 0 0 0 0 0 0 0 0 0 0 0 0 0 0 0 0 0 0 0 0 0 
0 0 0 0 0 0 0 0 0 0 0 0 0 0 0 0 0 0 0 0 0 0 0 0 0 0 0 0 0 15 32 18 21 76 154 152 148 167 167 166 171 177 187 198 187 172 159 140 131 130 122 113 107 108 113 117 121 127 135 157 188 201 211 224 224 203 172 155 159 167 161 134 106 60 20 7 0 0 1 0 0 0 0 0 0 0 0 0 0 0 0 0 0 0 0 0 0 0 0 0 0 0 0 0 0 0 0 0 0 0 0 0 0 0 0 0 0 0 0 0 0 0 0 0 0 0 0 0 
0 0 0 0 0 0 0 0 0 0 0 0 0 0 0 0 0 0 0 0 0 0 0 0 0 0 0 0 25 24 10 44 132 158 144 160 167 164 172 186 197 200 181 163 147 122 107 102 110 121 99 92 88 95 121 118 114 105 98 102 122 137 160 183 201 220 225 211 174 155 158 160 150 121 76 25 10 0 1 1 0 0 0 0 0 0 0 0 0 0 0 0 0 0 0 0 0 0 0 0 0 0 0 0 0 0 0 0 0 0 0 0 0 0 0 0 0 0 0 0 0 0 0 0 0 0 0 0 
0 0 0 0 0 0 0 0 0 0 0 0 0 0 0 0 0 0 0 0 0 0 0 0 0 0 5 29 22 21 77 158 150 147 164 167 171 190 207 192 172 151 125 114 101 92 96 98 106 89 77 85 78 61 78 99 99 105 105 104 110 122 126 128 142 170 197 215 229 210 169 155 159 155 128 87 29 13 0 0 0 0 0 0 0 0 0 0 0 0 0 0 0 0 0 0 0 0 0 0 0 0 0 0 0 0 0 0 0 0 0 0 0 0 0 0 0 0 0 0 0 0 0 0 0 0 0 0 
0 0 0 0 0 0 0 0 0 0 0 0 0 0 0 0 0 0 0 0 0 0 0 0 0 9 28 20 25 100 164 142 152 164 167 181 205 200 171 149 129 112 111 104 98 95 97 95 70 57 60 69 73 73 76 95 107 105 100 96 94 103 123 130 133 131 139 168 201 225 228 190 155 153 159 134 90 32 12 2 0 0 0 0 0 0 0 0 0 0 0 0 0 0 0 0 0 0 0 0 0 0 0 0 0 0 0 0 0 0 0 0 0 0 0 0 0 0 0 0 0 0 0 0 0 0 0 0 
0 0 0 0 0 0 0 0 0 0 0 0 0 0 0 0 0 0 0 0 0 0 0 0 14 23 19 30 114 164 140 158 166 166 187 205 178 149 134 119 117 113 103 104 107 114 104 95 99 104 108 115 116 121 128 135 144 153 150 148 138 125 116 124 126 129 132 130 142 179 206 229 203 156 151 159 137 98 35 14 0 0 0 0 0 0 0 0 0 0 0 0 0 0 0 0 0 0 0 0 0 0 0 0 0 0 0 0 0 0 0 0 0 0 0 0 0 0 0 0 0 0 0 0 0 0 0 0 
0 0 0 0 0 0 0 0 0 0 0 0 0 0 0 0 0 0 0 0 0 0 2 20 19 19 37 123 159 146 165 168 167 191 195 171 142 127 121 115 107 118 145 163 170 164 150 138 137 138 134 130 135 140 147 150 146 148 150 151 151 151 148 141 143 129 118 123 126 124 152 197 225 211 159 145 159 139 113 37 11 0 0 0 0 0 0 0 0 0 0 0 0 0 0 0 0 0 0 0 0 0 0 0 0 0 0 0 0 0 0 0 0 0 0 0 0 0 0 0 0 0 0 0 0 0 0 0 
0 0 0 0 0 0 0 0 0 0 0 0 0 0 0 0 0 0 0 0 0 6 18 16 19 51 128 156 149 166 163 162 189 183 157 132 117 115 113 130 150 165 169 169 161 155 156 156 160 158 154 147 149 145 143 146 143 141 137 132 130 132 142 147 149 151 140 120 120 125 121 135 181 218 210 157 150 159 138 119 37 6 0 0 0 0 0 0 0 0 0 0 0 0 0 0 0 0 0 0 0 0 0 0 0 0 0 0 0 0 0 0 0 0 0 0 0 0 0 0 0 0 0 0 0 0 0 0 
0 0 0 0 0 0 0 0 0 0 0 0 0 0 0 0 0 0 0 0 8 18 13 21 63 132 152 147 170 164 161 177 176 156 127 111 108 130 154 159 152 151 148 145 144 142 141 142 151 152 154 149 143 142 141 145 140 138 138 139 136 133 125 129 139 147 148 144 125 116 123 122 124 176 214 205 166 159 158 137 123 35 4 0 0 0 0 0 0 0 0 0 0 0 0 0 0 0 0 0 0 0 0 0 0 0 0 0 0 0 0 0 0 0 0 0 0 0 0 0 0 0 0 0 0 0 0 0 
0 0 0 0 0 0 0 0 0 0 0 0 0 0 0 0 0 0 0 8 15 13 25 70 135 156 146 170 164 159 179 175 153 122 118 122 135 151 140 133 136 135 136 140 142 142 145 145 146 149 155 134 134 147 144 146 145 144 138 139 135 134 133 128 124 129 142 150 149 129 112 114 107 128 178 207 204 168 157 153 142 119 26 2 0 0 0 0 0 0 0 0 0 0 0 0 0 0 0 0 0 0 0 0 0 0 0 0 0 0 0 0 0 0 0 0 0 0 0 0 0 0 0 0 0 0 0 0 
0 0 0 0 0 0 0 0 0 0 0 0 0 0 0 0 0 0 4 17 6 26 78 127 153 143 169 167 160 180 171 146 117 124 133 137 137 125 124 124 132 137 142 146 150 149 147 147 147 152 147 122 131 153 147 149 148 141 137 138 138 134 131 126 124 117 121 138 154 151 121 102 104 105 130 175 208 197 166 157 145 147 100 19 2 0 0 0 0 0 0 0 0 0 0 0 0 0 0 0 0 0 0 0 0 0 0 0 0 0 0 0 0 0 0 0 0 0 0 0 0 0 0 0 0 0 0 0 
0 0 0 0 0 0 0 0 0 0 0 0 0 0 0 0 0 0 17 7 22 82 123 150 143 165 171 153 174 166 150 124 131 134 123 126 120 123 130 135 136 136 143 147 146 145 147 147 140 113 109 122 126 134 125 126 135 139 137 143 151 145 136 133 132 123 117 120 133 152 147 109 90 99 107 140 176 213 187 164 153 137 149 73 10 0 0 0 0 0 0 0 0 0 0 0 0 0 0 0 0 0 0 0 0 0 0 0 0 0 0 0 0 0 0 0 0 0 0 0 0 0 0 0 0 0 0 0 
0 0 0 0 0 0 0 0 0 0 0 0 0 0 0 0 0 13 6 15 75 121 145 154 157 170 152 163 170 142 129 140 138 120 123 118 125 134 140 138 135 143 144 134 128 120 115 115 91 58 66 87 80 67 76 86 98 111 121 131 144 137 127 127 126 125 129 123 117 131 152 138 100 96 104 113 153 185 205 178 165 146 145 130 40 3 0 0 0 0 0 0 0 0 0 0 0 0 0 0 0 0 0 0 0 0 0 0 0 0 0 0 0 0 0 0 0 0 0 0 0 0 0 0 0 0 0 0 
0 0 0 0 0 0 0 0 0 0 0 0 0 0 0 0 8 9 9 57 118 126 168 155 171 156 145 176 144 132 141 130 107 115 122 127 136 143 143 143 139 126 109 95 84 74 69 67 59 56 55 56 52 52 52 54 58 62 61 71 91 115 128 129 123 119 119 138 124 120 133 153 121 91 96 102 117 159 192 183 178 165 143 158 94 15 0 0 0 0 0 0 0 0 0 0 0 0 0 0 0 0 0 0 0 0 0 0 0 0 0 0 0 0 0 0 0 0 0 0 0 0 0 0 0 0 0 0 
0 0 0 0 0 0 0 0 0 0 0 0 0 0 0 0 14 7 35 108 113 160 153 163 164 135 173 149 131 140 125 92 106 124 133 136 142 148 148 136 106 72 58 57 61 59 58 56 56 56 54 51 50 51 55 52 53 56 54 55 59 68 90 120 132 123 118 127 136 128 125 136 148 100 85 100 108 124 161 176 171 177 158 153 141 54 3 0 0 0 0 0 0 0 0 0 0 0 0 0 0 0 0 0 0 0 0 0 0 0 0 0 0 0 0 0 0 0 0 0 0 0 0 0 0 0 0 0 
0 0 0 0 0 0 0 0 0 0 0 0 0 0 0 7 7 16 86 118 139 171 151 162 134 143 153 134 137 130 92 94 119 130 138 142 145 145 127 93 62 51 52 54 55 54 56 54 54 53 53 53 52 50 53 54 55 54 55 54 55 57 64 85 116 129 124 122 129 128 117 123 146 140 86 88 104 109 142 176 145 170 168 142 159 103 16 0 0 0 0 0 0 0 0 0 0 0 0 0 0 0 0 0 0 0 0 0 0 0 0 0 0 0 0 0 0 0 0 0 0 0 0 0 0 0 0 0 
0 0 0 0 0 0 0 0 0 0 0 0 0 0 2 8 7 53 122 115 172 157 157 146 110 151 140 138 133 105 90 118 133 141 147 150 145 113 76 57 54 53 51 50 54 54 55 55 53 54 53 52 53 53 53 53 54 56 57 55 54 55 54 59 81 116 130 124 123 130 122 124 132 149 126 78 93 101 126 170 143 149 174 143 156 138 47 2 0 0 0 0 0 0 0 0 0 0 0 0 0 0 0 0 0 0 0 0 0 0 0 0 0 0 0 0 0 0 0 0 0 0 0 0 0 0 0 0 
0 0 0 0 0 0 0 0 0 0 0 0 0 0 7 8 26 105 113 143 171 145 154 130 120 153 137 128 115 91 115 139 141 140 145 131 98 64 55 50 51 52 51 52 53 56 56 56 53 55 58 55 50 52 52 55 55 56 54 54 53 55 54 55 55 80 118 124 120 126 131 135 126 132 147 113 84 88 116 150 148 135 164 153 151 148 93 10 0 0 0 0 0 0 0 0 0 0 0 0 0 0 0 0 0 0 0 0 0 0 0 0 0 0 0 0 0 0 0 0 0 0 0 0 0 0 0 0 
0 0 0 0 0 0 0 0 0 0 0 0 0 0 9 12 70 119 113 170 160 144 137 117 132 155 136 120 95 107 137 139 142 144 130 89 55 50 51 49 49 49 50 54 53 54 58 56 59 64 68 73 76 77 76 72 65 61 57 56 54 54 54 55 54 60 92 126 129 129 128 125 129 128 139 141 102 83 104 146 149 140 149 161 140 150 119 32 0 0 0 0 0 0 0 0 0 0 0 0 0 0 0 0 0 0 0 0 0 0 0 0 0 0 0 0 0 0 0 0 0 0 0 0 0 0 0 0 
0 0 0 0 0 0 0 0 0 0 0 0 0 3 6 34 99 115 125 175 141 132 129 107 138 149 131 117 95 131 140 140 145 141 99 57 48 51 50 51 50 53 52 49 54 63 74 87 102 116 128 139 146 143 137 132 121 109 89 70 61 55 56 54 56 56 65 103 132 130 126 124 140 132 132 145 132 86 89 134 143 129 135 166 141 156 125 54 3 0 0 0 0 0 0 0 0 0 0 0 0 0 0 0 0 0 0 0 0 0 0 0 0 0 0 0 0 0 0 0 0 0 0 0 0 0 0 0 
0 0 0 0 0 0 0 0 0 0 0 0 0 2 8 65 107 108 147 172 118 130 116 105 149 152 122 106 109 143 144 145 147 117 63 48 50 49 49 55 55 54 52 65 86 113 137 152 158 162 152 141 162 136 114 121 134 152 156 148 128 96 72 57 54 55 54 71 115 132 129 130 143 135 132 139 146 98 79 120 142 120 124 160 146 157 126 70 4 0 0 0 0 0 0 0 0 0 0 0 0 0 0 0 0 0 0 0 0 0 0 0 0 0 0 0 0 0 0 0 0 0 0 0 0 0 0 0 
0 0 0 0 0 0 0 0 0 0 0 0 0 4 19 83 105 114 169 156 112 120 98 104 160 147 113 96 125 148 146 153 146 92 54 50 50 53 53 56 58 61 84 127 159 172 163 151 118 86 57 58 119 80 56 56 58 62 103 145 168 171 142 99 66 57 56 57 81 123 131 132 145 142 137 141 140 105 75 109 149 117 116 153 152 154 129 86 8 0 0 0 0 0 0 0 0 0 0 0 0 0 0 0 0 0 0 0 0 0 0 0 0 0 0 0 0 0 0 0 0 0 0 0 0 0 0 0 
0 0 0 0 0 0 0 0 0 0 0 0 0 3 35 94 96 126 177 132 112 106 97 118 167 140 100 101 135 148 147 151 125 64 49 53 52 51 59 60 73 111 155 175 171 135 85 63 55 56 56 56 89 56 59 57 56 58 59 59 86 154 179 168 120 75 58 59 63 90 126 131 137 140 137 140 132 115 75 96 142 117 126 146 158 151 131 100 11 0 0 0 0 0 0 0 0 0 0 0 0 0 0 0 0 0 0 0 0 0 0 0 0 0 0 0 0 0 0 0 0 0 0 0 0 0 0 0 
0 0 0 0 0 0 0 0 0 0 0 0 1 4 48 101 103 142 172 122 105 103 96 135 161 119 90 108 139 147 146 136 82 51 53 52 52 57 62 81 129 167 172 151 111 67 55 55 55 55 56 58 55 56 59 58 56 56 58 59 57 82 154 178 168 123 74 59 59 66 106 132 128 136 137 136 126 117 91 98 136 106 123 139 160 144 145 111 20 0 0 0 0 0 0 0 0 0 0 0 0 0 0 0 0 0 0 0 0 0 0 0 0 0 0 0 0 0 0 0 0 0 0 0 0 0 0 0 
0 0 0 0 0 0 0 0 0 0 0 0 2 7 57 101 103 146 152 114 105 103 98 148 154 102 97 112 141 151 147 109 60 51 51 52 58 61 79 125 163 169 143 96 56 60 59 59 55 55 58 56 58 58 58 58 57 58 58 59 58 58 106 151 175 157 103 66 62 63 81 119 125 135 134 132 118 112 105 104 129 98 126 142 160 143 163 126 33 0 0 0 0 0 0 0 0 0 0 0 0 0 0 0 0 0 0 0 0 0 0 0 0 0 0 0 0 0 0 0 0 0 0 0 0 0 0 0 
0 0 0 0 0 0 0 0 0 0 0 0 2 8 62 105 112 161 142 104 110 99 104 153 148 105 106 112 141 151 129 82 55 52 51 59 61 80 121 157 168 156 137 91 60 63 60 59 58 61 62 63 65 66 67 64 59 60 58 61 58 60 64 104 153 157 115 95 70 57 67 104 130 143 141 131 120 112 108 116 126 108 120 139 156 141 170 147 44 1 0 0 0 0 0 0 0 0 0 0 0 0 0 0 0 0 0 0 0 0 0 0 0 0 0 0 0 0 0 0 0 0 0 0 0 0 0 0 
0 0 0 0 0 0 0 0 0 0 0 0 3 11 68 111 122 177 131 99 120 95 114 149 142 113 111 110 137 143 102 69 57 54 52 59 78 126 163 174 165 139 150 133 85 65 69 68 69 73 74 74 73 77 78 74 68 64 63 62 62 62 64 93 145 124 125 153 130 89 65 92 135 145 141 141 123 112 118 123 114 107 118 135 157 144 168 158 49 4 0 0 0 0 0 0 0 0 0 0 0 0 0 0 0 0 0 0 0 0 0 0 0 0 0 0 0 0 0 0 0 0 0 0 0 0 0 0 
0 0 0 0 0 0 0 0 0 0 0 0 4 10 72 112 136 191 127 98 128 98 119 143 152 133 115 114 131 130 96 72 49 49 66 102 146 165 153 124 91 73 104 136 146 101 82 82 85 85 89 87 87 87 88 84 77 70 67 67 63 74 124 126 95 77 83 103 118 109 87 90 129 145 140 142 128 114 129 129 110 111 111 138 155 146 163 165 55 4 0 0 0 0 0 0 0 0 0 0 0 0 0 0 0 0 0 0 0 0 0 0 0 0 0 0 0 0 0 0 0 0 0 0 0 0 0 0 
0 0 0 0 0 0 0 0 0 0 0 0 5 9 78 115 142 189 125 96 128 110 125 133 161 148 117 114 125 117 93 68 50 64 115 150 135 94 67 74 80 65 65 79 97 134 129 96 98 98 99 97 98 100 98 93 85 77 73 72 85 122 105 98 89 83 80 81 78 81 91 101 122 138 139 141 126 119 144 140 99 111 116 138 155 146 158 173 67 5 0 0 0 0 0 0 0 0 0 0 0 0 0 0 0 0 0 0 0 0 0 0 0 0 0 0 0 0 0 0 0 0 0 0 0 0 0 0 
0 0 0 0 0 0 0 0 0 0 0 0 6 8 84 118 149 185 124 98 123 119 136 137 162 157 126 115 115 99 90 75 68 94 113 104 88 82 81 86 85 90 91 94 102 109 138 139 102 102 99 101 102 104 102 100 93 86 78 90 126 100 93 83 69 62 63 67 62 67 66 71 109 133 134 137 125 129 154 130 82 103 113 125 146 144 152 178 78 6 0 0 0 0 0 0 0 0 0 0 0 0 0 0 0 0 0 0 0 0 0 0 0 0 0 0 0 0 0 0 0 0 0 0 0 0 0 0 
0 0 0 0 0 0 0 0 0 0 0 0 8 7 85 115 154 181 120 101 119 114 131 134 162 159 142 126 108 89 84 82 82 90 83 71 67 63 64 65 67 80 97 114 126 117 116 148 110 101 100 101 100 104 105 105 101 94 89 144 117 98 83 77 70 67 66 67 64 63 53 53 89 132 136 144 137 146 147 134 70 97 112 114 139 146 151 181 93 9 0 0 0 0 0 0 0 0 0 0 0 0 0 0 0 0 0 0 0 0 0 0 0 0 0 0 0 0 0 0 0 0 0 0 0 0 0 0 
0 0 0 0 0 0 0 0 0 0 0 0 8 8 90 118 160 185 123 105 111 111 130 135 155 167 156 138 115 83 83 80 77 76 66 63 62 64 66 67 70 81 94 104 115 122 112 128 132 97 98 99 98 99 105 104 102 101 114 149 112 95 86 80 75 72 68 65 61 59 56 50 76 136 155 156 149 142 156 138 68 90 114 113 125 138 147 178 106 16 0 0 0 0 0 0 0 0 0 0 0 0 0 0 0 0 0 0 0 0 0 0 0 0 0 0 0 0 0 0 0 0 0 0 0 0 0 0 
0 0 0 0 0 0 0 0 0 0 0 0 6 10 94 118 166 189 124 102 93 113 138 131 140 175 175 149 116 87 82 83 78 60 62 63 65 69 67 70 75 89 103 107 107 111 118 121 144 99 89 92 101 112 106 103 103 106 153 147 106 95 87 81 78 69 64 62 64 62 63 53 71 123 151 159 159 149 170 129 66 85 107 105 115 127 144 180 115 25 1 0 0 0 0 0 0 0 0 0 0 0 0 0 0 0 0 0 0 0 0 0 0 0 0 0 0 0 0 0 0 0 0 0 0 0 0 0 
0 0 0 0 0 0 0 0 0 0 0 0 7 12 96 124 174 187 126 90 91 109 139 126 127 169 180 174 137 81 61 72 84 58 52 59 62 70 70 74 85 95 101 107 108 105 111 120 149 126 108 105 107 112 109 113 144 148 168 124 101 95 88 82 77 66 62 63 62 59 60 60 68 121 148 158 166 169 175 110 64 79 94 105 112 116 140 179 121 33 1 0 0 0 0 0 0 0 0 0 0 0 0 0 0 0 0 0 0 0 0 0 0 0 0 0 0 0 0 0 0 0 0 0 0 0 0 0 
0 0 0 0 0 0 0 0 0 0 0 0 8 14 95 128 184 180 94 69 91 101 132 113 112 151 174 178 128 63 56 71 76 57 50 61 64 68 72 80 89 99 103 103 103 106 101 108 141 136 118 94 92 102 102 113 150 172 158 112 100 100 99 92 77 65 62 60 58 60 57 61 75 115 143 158 168 172 166 96 62 79 83 101 114 107 131 172 129 38 2 0 0 0 0 0 0 0 0 0 0 0 0 0 0 0 0 0 0 0 0 0 0 0 0 0 0 0 0 0 0 0 0 0 0 0 0 0 
0 0 0 0 0 0 0 0 0 0 0 0 9 17 94 132 186 175 80 71 94 99 117 102 106 137 168 171 110 57 50 70 66 53 50 55 62 70 76 85 95 101 101 101 95 97 99 94 115 108 105 93 109 124 123 119 109 162 147 107 101 108 129 123 79 66 63 60 58 58 57 62 81 115 140 157 171 176 156 99 77 81 77 89 113 104 117 168 135 46 1 0 0 0 0 0 0 0 0 0 0 0 0 0 0 0 0 0 0 0 0 0 0 0 0 0 0 0 0 0 0 0 0 0 0 0 0 0 
0 0 0 0 0 0 0 0 0 0 0 0 9 19 90 136 182 163 75 71 100 88 104 110 108 124 159 162 116 56 48 70 69 53 50 48 62 67 82 95 99 102 104 101 94 95 95 90 106 84 80 96 113 99 103 96 114 134 133 116 130 132 124 85 70 68 68 63 61 55 57 61 92 124 144 156 153 172 145 104 105 86 78 92 112 103 102 158 138 51 2 0 0 0 0 0 0 0 0 0 0 0 0 0 0 0 0 0 0 0 0 0 0 0 0 0 0 0 0 0 0 0 0 0 0 0 0 0 
0 0 0 0 0 0 0 0 0 0 0 0 9 17 86 139 173 142 74 78 102 68 97 114 114 123 158 146 108 56 45 63 76 53 51 60 62 69 85 97 100 109 127 126 122 112 95 86 105 81 85 114 105 101 114 112 128 131 123 130 121 112 87 74 71 69 66 64 61 59 56 53 97 130 147 153 151 171 135 95 115 92 75 87 111 103 95 152 136 52 1 0 0 0 0 0 0 0 0 0 0 0 0 0 0 0 0 0 0 0 0 0 0 0 0 0 0 0 0 0 0 0 0 0 0 0 0 0 
0 0 0 0 0 0 0 0 0 0 0 0 8 19 77 140 166 138 81 81 106 67 89 115 121 127 156 132 97 50 46 54 83 65 50 62 61 74 88 97 98 99 110 99 108 118 104 103 119 110 103 97 77 78 90 86 84 124 102 111 108 101 86 94 95 81 65 59 57 58 62 64 107 137 151 158 160 166 118 89 123 97 79 90 109 105 96 160 120 49 1 0 0 0 0 0 0 0 0 0 0 0 0 0 0 0 0 0 0 0 0 0 0 0 0 0 0 0 0 0 0 0 0 0 0 0 0 0 
0 0 0 0 0 0 0 0 0 0 0 0 3 20 73 138 162 134 87 84 104 65 77 113 124 128 158 134 88 51 47 49 72 78 51 62 64 77 85 93 100 97 94 90 91 96 91 92 114 85 82 84 78 79 87 73 81 100 100 106 107 99 90 115 96 77 64 60 58 62 62 70 113 136 149 162 184 159 96 82 126 96 80 95 105 104 104 163 108 46 1 0 0 0 0 0 0 0 0 0 0 0 0 0 0 0 0 0 0 0 0 0 0 0 0 0 0 0 0 0 0 0 0 0 0 0 0 0 
0 0 0 0 0 0 0 0 0 0 0 0 2 21 67 132 164 130 89 81 100 67 66 107 124 129 152 153 99 55 45 45 60 83 63 60 68 78 86 99 101 104 101 92 90 93 91 74 83 74 91 78 76 81 93 81 82 90 102 102 107 96 91 122 100 72 61 59 59 61 61 64 101 140 156 174 181 144 76 72 126 99 83 100 97 106 120 161 98 42 1 0 0 0 0 0 0 0 0 0 0 0 0 0 0 0 0 0 0 0 0 0 0 0 0 0 0 0 0 0 0 0 0 0 0 0 0 0 
0 0 0 0 0 0 0 0 0 0 0 0 0 20 63 125 163 132 95 77 99 72 55 97 124 126 145 157 109 57 46 44 49 74 75 57 65 81 93 97 104 113 102 91 87 89 76 69 73 73 92 83 75 90 95 85 94 86 109 106 106 103 102 115 97 71 60 54 57 58 59 62 103 148 162 187 181 131 60 64 124 101 88 105 85 114 141 153 90 38 1 0 0 0 0 0 0 0 0 0 0 0 0 0 0 0 0 0 0 0 0 0 0 0 0 0 0 0 0 0 0 0 0 0 0 0 0 0 
0 0 0 0 0 0 0 0 0 7 6 0 0 16 58 116 162 143 102 77 97 83 49 80 118 130 133 157 112 65 54 52 54 58 71 54 69 83 96 102 104 127 121 92 91 101 74 69 66 83 90 79 76 100 104 92 97 92 103 102 110 99 122 111 98 68 72 65 59 56 57 62 115 161 170 191 174 108 48 57 118 100 94 101 74 114 157 142 83 33 0 0 0 0 0 0 0 0 0 0 0 0 0 0 0 0 0 0 0 0 0 0 0 0 0 0 0 0 0 0 0 0 0 0 0 0 0 0 
0 0 0 0 0 0 0 0 0 0 3 1 2 13 52 103 152 154 101 77 88 95 53 61 107 135 143 164 131 81 53 46 45 47 60 71 69 86 100 103 114 131 124 95 87 80 81 77 70 92 96 85 83 99 99 95 104 102 100 101 121 129 135 111 97 70 70 69 59 55 51 62 135 170 183 190 153 78 45 64 123 110 102 91 71 115 166 118 77 29 0 0 0 0 0 0 0 0 0 0 0 0 0 0 0 0 0 0 0 0 0 0 0 0 0 0 0 0 0 0 0 0 0 0 0 0 0 0 
0 0 0 0 0 0 0 0 0 0 0 4 3 13 48 91 136 157 97 81 80 96 75 52 84 131 141 161 149 105 68 57 48 45 46 68 74 91 102 110 123 114 109 110 94 109 112 89 80 98 97 82 79 96 104 96 99 106 101 113 124 137 132 136 103 84 76 76 67 63 73 116 169 179 180 188 137 64 46 73 129 134 114 68 73 130 166 94 75 25 0 0 0 0 0 0 0 0 0 0 0 0 0 0 0 0 0 0 0 0 0 0 0 0 0 0 0 0 0 0 0 0 0 0 0 0 0 0 
0 0 0 0 0 0 0 0 0 0 0 7 5 12 42 84 122 150 95 81 75 95 93 55 64 118 142 152 156 147 159 156 107 54 50 53 75 102 120 125 126 119 119 118 85 97 88 92 84 92 88 83 81 101 107 95 97 102 110 125 124 130 114 121 104 126 148 147 137 136 157 181 189 183 214 227 157 71 49 84 135 151 110 44 84 162 153 83 73 18 0 0 0 8 4 0 0 0 0 0 0 0 0 0 0 0 0 0 0 0 0 0 0 0 0 0 0 0 0 0 0 0 0 0 0 0 0 0 
0 0 0 0 0 0 0 0 0 0 0 11 10 8 37 82 113 144 117 83 79 83 96 65 50 94 139 147 159 174 194 173 156 137 105 90 103 120 123 130 139 121 95 88 89 97 94 90 90 86 81 86 80 96 105 98 99 104 106 122 131 125 118 97 94 124 146 171 169 188 196 211 219 179 161 176 171 102 58 98 137 152 93 39 90 178 127 80 75 12 0 0 3 0 0 0 0 0 0 0 0 0 0 0 0 0 0 0 0 0 0 0 0 0 0 0 0 0 0 0 0 0 0 0 0 0 0 0 
0 0 0 0 0 0 0 0 0 0 0 19 13 11 32 79 101 144 144 87 83 76 94 86 71 92 126 146 158 178 203 173 137 111 107 114 127 117 116 113 106 90 93 94 109 109 98 93 115 99 90 89 87 109 108 101 126 134 126 127 128 104 83 69 61 68 69 68 96 146 181 222 225 184 154 125 146 114 99 116 135 149 86 68 155 170 75 77 70 10 0 0 3 0 0 0 0 0 0 0 0 0 0 0 0 0 0 0 0 0 0 0 0 0 0 0 0 0 0 0 0 0 0 0 0 0 0 0 
0 0 0 0 0 0 0 0 0 0 0 19 11 13 20 71 94 136 158 103 87 81 90 109 115 83 100 138 156 183 223 196 152 124 104 106 82 75 87 95 90 87 92 101 108 101 105 117 140 161 108 89 91 115 127 134 126 140 128 99 103 86 63 65 71 76 75 90 105 116 137 200 220 205 162 156 158 115 136 145 139 146 97 121 178 156 32 73 58 8 3 0 3 0 0 0 0 0 0 0 0 0 0 0 0 0 0 0 0 0 0 0 0 0 0 0 0 0 0 0 0 0 0 0 0 0 0 0 
0 0 0 0 0 0 0 0 0 0 0 17 4 6 22 60 87 124 168 115 83 86 96 122 133 92 82 130 140 152 210 208 174 146 125 83 80 95 108 71 62 66 81 85 86 89 98 112 124 115 120 122 106 132 121 81 75 110 117 75 79 70 60 73 108 138 146 147 130 166 188 193 196 211 170 154 130 116 127 115 119 128 141 163 179 140 78 84 34 10 10 0 3 0 0 0 0 0 0 0 0 0 0 0 0 0 0 0 0 0 0 0 0 0 0 0 0 0 0 0 0 0 0 0 0 0 0 0 
0 0 0 0 0 0 0 0 0 0 0 19 4 2 4 44 87 112 170 140 99 120 120 131 132 112 88 105 146 172 206 212 191 147 145 111 102 102 102 72 53 49 56 61 64 65 87 98 86 58 70 112 116 131 90 59 63 83 108 89 79 65 69 82 118 133 149 166 171 217 228 184 186 195 164 147 131 124 113 108 97 120 159 155 169 75 68 70 15 13 12 3 2 0 0 0 0 0 0 0 0 0 0 0 0 0 0 0 0 0 0 0 0 0 0 0 0 0 0 0 0 0 0 0 0 0 0 0 
0 0 0 0 0 0 0 0 0 0 0 7 13 0 4 8 61 91 137 176 123 143 155 136 150 143 96 61 99 171 212 226 216 160 173 162 131 100 86 63 51 58 46 44 47 49 64 90 71 54 53 90 83 93 106 54 55 58 84 102 88 71 67 72 63 86 132 159 169 172 201 196 195 174 167 163 150 137 130 132 125 145 185 184 165 93 67 77 21 16 13 9 1 2 0 0 0 0 0 0 0 0 0 0 0 0 0 0 0 0 0 0 0 0 0 0 0 0 0 0 0 0 0 0 0 0 0 0 
0 0 0 0 0 0 0 0 0 0 0 7 8 0 4 3 41 87 120 180 160 141 166 156 140 130 95 52 50 135 228 224 217 216 177 143 136 97 95 74 56 71 69 50 47 74 75 100 94 80 67 65 91 96 86 62 58 62 59 79 94 73 52 66 49 53 121 173 173 165 174 192 173 148 150 165 156 132 133 135 114 168 203 185 124 97 89 56 15 14 13 6 0 2 0 0 0 0 0 0 0 0 0 0 0 0 0 0 0 0 0 0 0 0 0 0 0 0 0 0 0 0 0 0 0 0 0 0 
0 0 0 0 0 0 0 0 0 0 0 7 3 5 2 3 28 75 100 163 167 114 123 115 134 138 98 84 57 87 207 242 221 228 192 143 129 114 142 120 78 82 84 87 71 70 75 102 82 71 62 61 68 91 75 64 58 70 57 54 82 74 78 68 45 49 151 199 192 178 186 177 122 119 141 162 138 141 131 115 132 159 193 167 109 91 85 32 11 11 9 0 0 3 0 0 0 0 0 0 0 0 0 0 0 0 0 0 0 0 0 0 0 0 0 0 0 0 0 0 0 0 0 0 0 0 0 0 
0 0 0 0 0 0 0 0 0 0 0 7 1 8 0 8 21 58 90 143 169 121 103 129 106 108 92 87 92 100 156 227 238 217 194 172 152 137 152 110 50 60 85 68 49 54 60 67 64 80 112 96 56 53 78 86 81 74 52 51 74 81 88 107 97 118 164 170 162 167 168 123 78 87 136 164 138 137 151 134 160 164 180 127 87 72 70 21 11 11 3 0 0 3 0 0 0 0 0 0 0 0 0 0 0 0 0 0 0 0 0 0 0 0 0 0 0 0 0 0 0 0 0 0 0 0 0 0 
0 0 0 0 0 0 0 0 0 0 0 8 2 0 12 15 15 39 83 117 179 188 150 108 144 119 99 92 98 123 152 178 214 197 195 207 202 171 139 74 46 74 67 48 52 52 51 56 92 139 150 138 93 83 140 123 91 62 53 60 97 106 124 153 155 141 151 160 173 161 107 67 52 82 124 168 161 155 180 172 171 167 162 105 50 70 43 11 7 2 0 0 0 4 0 0 0 0 0 0 0 0 0 0 0 0 0 0 0 0 0 0 0 0 0 0 0 0 0 0 0 0 0 0 0 0 0 0 
0 0 0 0 0 0 0 0 0 0 0 8 6 0 3 16 16 22 71 87 140 202 184 150 143 135 109 101 108 112 132 99 89 151 197 197 196 202 187 124 60 68 45 55 82 93 83 102 121 110 107 126 144 149 169 158 131 81 64 81 133 146 157 182 180 155 160 168 129 102 77 52 69 92 121 169 168 164 156 162 170 146 138 90 23 71 14 2 0 0 0 0 0 4 0 0 0 0 0 0 0 0 0 0 0 0 0 0 0 0 0 0 0 0 0 0 0 0 0 0 0 0 0 0 0 0 0 0 
0 0 0 0 0 0 0 0 0 0 0 8 9 3 0 5 21 18 53 87 105 181 202 147 138 143 123 109 114 91 103 95 56 56 117 145 161 179 190 180 103 66 88 131 150 158 126 123 114 99 94 102 138 144 144 145 146 154 141 143 167 179 167 180 186 162 172 147 87 86 85 82 92 98 115 165 172 144 128 150 176 136 133 73 59 61 7 2 1 0 0 0 0 5 0 0 0 0 0 0 0 0 0 0 0 0 0 0 0 0 0 0 0 0 0 0 0 0 0 0 0 0 0 0 0 0 0 0 
0 0 0 0 0 0 0 0 0 0 2 8 10 6 0 3 7 18 31 83 81 132 162 138 127 109 121 107 127 90 88 91 80 63 83 132 140 155 156 164 168 164 178 176 162 151 104 96 117 116 110 129 148 150 161 162 175 164 142 124 137 171 183 176 171 172 165 157 131 108 96 97 102 105 107 158 141 123 106 136 148 144 126 71 89 44 3 1 1 0 0 0 0 6 0 0 0 0 0 0 0 0 0 0 0 0 0 0 0 0 0 0 0 0 0 0 0 0 0 0 0 0 0 0 0 0 0 0 
0 0 0 0 0 0 0 0 0 0 4 8 8 8 1 4 5 11 25 67 91 115 142 92 118 104 112 120 120 98 93 95 81 86 84 110 131 120 131 139 164 202 176 177 173 146 116 116 125 114 135 150 161 157 124 112 116 131 135 136 133 138 170 173 160 145 125 144 128 103 92 99 106 111 106 145 118 152 119 129 161 157 108 75 79 26 3 2 1 0 0 0 4 7 1 0 0 0 0 0 0 0 0 0 0 0 0 0 0 0 0 0 0 0 0 0 0 0 0 0 0 0 0 0 0 0 0 0 
0 0 0 0 0 0 0 0 0 0 2 9 8 7 0 3 7 8 15 43 86 106 160 118 110 99 117 133 109 132 98 83 83 82 88 108 128 128 145 165 170 189 180 163 168 146 126 164 167 161 163 162 156 155 141 125 116 121 127 144 139 142 160 152 125 125 143 154 130 103 106 115 116 107 91 123 109 151 129 116 94 119 128 87 63 17 2 3 1 0 1 6 8 9 3 0 0 0 0 0 0 0 0 0 0 0 0 0 0 0 0 0 0 0 0 0 0 0 0 0 0 0 0 0 0 0 0 0 
0 0 0 0 0 0 0 0 0 0 0 3 17 17 6 1 6 6 11 27 64 100 155 97 103 103 110 121 142 116 101 75 92 99 93 92 113 115 108 117 147 166 166 156 170 139 135 162 165 169 148 132 131 136 149 141 119 100 92 105 103 152 154 160 140 130 147 154 137 110 100 98 80 64 121 136 106 154 124 96 69 139 98 83 43 14 2 2 0 0 2 7 9 9 4 0 0 0 0 0 0 0 0 0 0 0 0 0 0 0 0 0 0 0 0 0 0 0 0 0 0 0 0 0 0 0 0 0 
0 0 0 0 0 0 0 0 0 0 0 7 16 11 11 0 3 6 12 20 32 87 161 154 89 78 88 88 154 173 136 100 83 83 94 99 99 101 100 98 105 125 130 139 149 111 128 145 159 165 140 132 141 134 137 122 116 97 84 102 113 180 159 167 152 124 154 178 149 99 70 46 42 94 175 139 139 168 130 65 105 142 92 68 24 12 2 1 0 0 0 3 7 8 7 0 0 0 0 0 0 0 0 0 0 0 0 0 0 0 0 0 0 0 0 0 0 0 0 0 0 0 0 0 0 0 0 0 
0 0 0 0 0 0 0 0 0 0 0 7 13 9 11 10 1 5 14 19 17 55 159 133 73 71 74 115 171 205 167 140 109 60 59 69 84 102 106 110 105 126 172 159 165 134 115 125 143 150 154 174 181 148 111 95 102 126 126 126 142 186 165 166 142 133 172 170 109 55 39 34 84 145 168 146 163 138 83 106 132 139 79 42 16 11 2 0 0 0 0 2 11 9 4 0 0 0 0 0 0 0 0 0 0 0 0 0 0 0 0 0 0 0 0 0 0 0 0 0 0 0 0 0 0 0 0 0 
0 0 0 0 0 0 0 0 0 0 0 3 15 9 11 10 9 12 12 13 17 26 125 153 123 68 72 121 163 180 153 146 139 81 59 54 58 67 78 91 96 112 172 184 148 142 123 121 137 151 156 154 146 153 128 116 119 121 119 107 110 154 135 134 123 133 170 133 124 121 127 133 142 171 143 117 148 87 41 38 114 124 65 22 8 7 4 0 0 0 10 14 18 5 0 0 0 0 0 0 0 0 0 0 0 0 0 0 0 0 0 0 0 0 0 0 0 0 0 0 0 0 0 0 0 0 0 0 
0 0 0 0 0 0 0 0 0 0 0 0 8 14 9 8 7 4 11 8 18 23 64 143 112 71 113 155 126 154 148 152 166 138 91 65 61 70 87 91 105 158 193 202 140 151 145 123 124 146 159 149 161 154 163 145 132 123 124 128 130 142 168 156 144 159 186 159 168 134 185 190 154 144 122 87 103 69 22 32 110 85 35 13 5 0 0 6 4 9 10 9 9 1 0 0 0 0 0 0 0 0 0 0 0 0 0 0 0 0 0 0 0 0 0 0 0 0 0 0 0 0 0 0 0 0 0 0 
0 0 0 0 0 0 0 0 0 0 0 0 3 13 8 3 4 7 7 11 19 23 29 83 125 96 147 128 102 148 121 134 172 174 153 139 133 122 88 129 182 209 206 144 154 183 192 192 191 183 171 177 173 146 166 173 171 153 147 159 186 209 190 167 226 255 172 173 182 161 112 89 71 84 91 97 80 90 109 120 102 47 35 12 4 0 0 0 0 1 11 14 9 0 0 0 0 0 0 0 0 0 0 0 0 0 0 0 0 0 0 0 0 0 0 0 0 0 0 0 0 0 0 0 0 0 0 0 
0 0 0 0 0 0 0 0 0 0 0 0 0 4 5 3 2 0 0 7 8 18 25 45 105 142 121 39 56 113 92 105 151 164 170 168 165 155 215 233 242 238 235 172 144 224 162 156 156 161 151 129 98 127 174 156 150 136 135 133 154 175 178 173 140 168 163 74 76 70 40 24 49 64 66 60 100 48 54 63 52 43 32 12 17 0 0 0 0 0 10 14 9 0 0 0 0 0 0 0 0 0 0 0 0 0 0 0 0 0 0 0 0 0 0 0 0 0 0 0 0 0 0 0 0 0 0 0 
0 0 0 0 0 0 0 0 0 0 0 0 0 0 11 10 10 2 0 0 4 8 9 21 41 59 26 22 41 112 68 42 84 98 60 79 65 64 82 98 143 190 216 204 168 211 169 108 83 93 80 60 76 85 87 81 67 76 77 65 88 127 90 116 120 164 179 127 69 62 39 42 98 106 55 53 117 45 16 23 30 30 19 5 1 0 5 8 9 8 8 13 0 0 0 0 0 0 0 0 0 0 0 0 0 0 0 0 0 0 0 0 0 0 0 0 0 0 0 0 0 0 0 0 0 0 0 0 
0 0 0 0 0 0 0 0 0 0 0 0 0 0 0 8 11 9 0 0 2 5 9 10 25 23 21 23 34 107 72 41 55 81 34 40 46 47 64 83 127 131 98 121 145 110 80 64 68 86 50 69 106 103 94 78 41 51 82 73 79 142 117 68 75 109 142 155 153 129 49 34 78 95 37 43 112 44 26 23 28 24 13 5 2 2 5 6 7 9 3 0 0 0 0 0 0 0 0 0 0 0 0 0 0 0 0 0 0 0 0 0 0 0 0 0 0 0 0 0 0 0 0 0 0 0 0 0 
0 0 0 0 0 0 0 0 0 0 0 0 0 0 0 0 0 7 0 0 1 5 7 13 14 20 21 28 33 100 82 57 45 68 48 52 54 94 108 130 166 172 138 136 164 154 93 82 85 70 57 72 93 87 94 81 44 25 40 66 73 137 128 94 108 142 122 106 92 105 82 105 108 89 35 33 93 34 12 15 15 11 1 1 2 0 0 0 0 0 0 0 0 0 0 0 0 0 0 0 0 0 0 0 0 0 0 0 0 0 0 0 0 0 0 0 0 0 0 0 0 0 0 0 0 0 0 0 
0 0 0 0 0 0 0 0 0 0 0 0 0 0 0 0 0 0 0 0 0 3 7 10 8 16 13 18 20 86 73 55 60 63 58 71 55 79 89 127 166 186 169 141 159 145 98 86 58 70 95 92 80 70 76 86 52 25 46 55 61 116 128 143 154 143 96 50 48 174 202 185 152 124 85 39 54 34 27 20 16 13 2 0 0 0 0 0 0 0 0 0 0 0 0 0 0 0 0 0 0 0 0 0 0 0 0 0 0 0 0 0 0 0 0 0 0 0 0 0 0 0 0 0 0 0 0 0 
0 0 0 0 0 0 0 0 0 0 0 0 0 0 0 0 0 0 0 0 0 0 0 2 2 13 31 20 12 27 41 36 46 33 40 50 56 83 127 103 149 184 208 103 125 112 153 165 144 83 115 150 122 127 128 122 99 78 95 96 96 123 93 100 74 110 130 68 167 220 193 208 148 78 39 16 67 9 17 8 2 0 4 1 0 0 0 0 0 0 0 0 0 0 0 0 0 0 0 0 0 0 0 0 0 0 0 0 0 0 0 0 0 0 0 0 0 0 0 0 0 0 0 0 0 0 0 0 
0 0 0 0 0 0 0 0 0 0 0 0 0 0 0 0 0 0 0 0 0 0 0 2 10 11 26 11 14 25 82 36 60 48 25 28 35 59 87 138 131 137 130 82 83 89 98 94 94 111 104 116 143 149 151 101 127 128 138 142 163 143 115 85 78 82 121 121 151 158 187 128 107 96 73 35 87 12 10 12 10 8 8 5 3 0 0 0 0 0 0 0 0 0 0 0 0 0 0 0 0 0 0 0 0 0 0 0 0 0 0 0 0 0 0 0 0 0 0 0 0 0 0 0 0 0 0 0 
0 0 0 0 0 0 0 0 0 0 0 0 0 0 0 0 0 0 0 0 0 0 2 4 9 14 18 19 20 22 90 76 59 64 65 78 51 27 48 106 109 109 88 64 87 73 67 69 82 115 111 103 136 130 135 109 124 137 129 114 128 149 118 73 68 73 92 95 105 104 61 47 39 68 60 44 92 18 14 19 23 11 7 3 3 0 0 0 0 0 0 0 0 0 0 0 0 0 0 0 0 0 0 0 0 0 0 0 0 0 0 0 0 0 0 0 0 0 0 0 0 0 0 0 0 0 0 0 
0 0 0 0 0 0 0 0 0 0 0 0 0 0 0 0 0 0 0 0 0 0 1 3 7 13 19 24 19 26 73 110 70 73 76 79 73 74 75 102 104 105 87 91 124 123 125 128 106 103 108 83 121 116 113 115 131 138 136 108 80 95 70 58 55 66 85 73 70 82 86 76 74 97 84 45 94 27 20 26 22 15 7 4 3 0 0 0 0 0 0 0 0 0 0 0 0 0 0 0 0 0 0 0 0 0 0 0 0 0 0 0 0 0 0 0 0 0 0 0 0 0 0 0 0 0 0 0 
0 0 0 0 0 0 0 0 0 0 0 0 0 0 0 0 0 0 0 0 0 0 0 3 4 9 19 26 25 24 61 107 61 79 78 69 33 40 52 94 94 76 85 108 129 112 84 120 114 88 92 75 118 109 100 113 125 114 124 111 68 75 104 100 97 108 95 74 67 69 57 38 52 108 132 53 96 29 20 24 21 17 7 4 3 1 0 0 0 0 0 0 0 0 0 0 0 0 0 0 0 0 0 0 0 0 0 0 0 0 0 0 0 0 0 0 0 0 0 0 0 0 0 0 0 0 0 0 
0 0 0 0 0 0 0 0 0 0 0 0 0 0 0 0 0 0 0 0 0 0 0 1 4 5 18 23 31 24 55 116 63 83 78 60 34 35 35 46 57 66 104 120 119 96 67 99 121 77 60 59 91 84 68 91 89 79 82 85 66 98 115 109 113 105 125 90 72 65 50 29 30 81 144 66 100 33 21 25 19 12 6 6 4 1 0 0 0 0 0 0 0 0 0 0 0 0 0 0 0 0 0 0 0 0 0 0 0 0 0 0 0 0 0 0 0 0 0 0 0 0 0 0 0 0 0 0 
0 0 0 0 0 0 0 0 0 0 0 0 0 0 0 0 0 0 0 0 0 0 0 0 4 3 12 20 30 29 48 103 59 65 71 57 32 39 38 41 54 87 116 93 91 110 82 98 121 77 53 58 61 60 71 74 74 64 54 58 56 96 99 92 108 97 128 122 90 67 55 36 30 61 129 72 102 48 25 19 18 10 4 6 5 2 0 0 0 0 0 0 0 0 0 0 0 0 0 0 0 0 0 0 0 0 0 0 0 0 0 0 0 0 0 0 0 0 0 0 0 0 0 0 0 0 0 0 
0 0 0 0 0 0 0 0 0 0 0 0 0 0 0 0 0 0 0 0 0 0 0 0 0 5 7 13 24 32 52 75 61 46 65 61 31 38 41 43 63 83 129 95 86 128 109 120 130 87 56 64 57 68 71 69 73 68 58 52 64 104 119 78 80 98 126 138 90 73 54 46 34 59 104 81 107 55 25 16 18 11 4 5 5 3 0 0 0 0 0 0 0 0 0 0 0 0 0 0 0 0 0 0 0 0 0 0 0 0 0 0 0 0 0 0 0 0 0 0 0 0 0 0 0 0 0 0 
0 0 0 0 0 0 0 0 0 0 0 0 0 0 0 0 0 0 0 0 0 0 0 0 0 1 5 11 19 27 38 63 80 28 59 70 36 40 40 45 63 70 138 114 87 98 117 120 132 97 56 57 56 72 68 63 60 66 44 46 57 109 129 77 77 93 122 138 75 75 52 45 31 50 86 58 62 25 22 17 19 13 4 5 7 4 0 0 0 0 0 0 0 0 0 0 0 0 0 0 0 0 0 0 0 0 0 0 0 0 0 0 0 0 0 0 0 0 0 0 0 0 0 0 0 0 0 0 
0 0 0 0 0 0 0 0 0 0 0 0 0 0 0 0 0 0 0 0 0 0 0 0 0 0 2 12 16 20 24 59 64 19 42 69 35 37 37 44 51 56 121 134 97 89 110 106 124 99 58 52 46 45 44 40 42 49 49 41 49 115 131 96 78 84 108 113 80 71 48 35 27 55 87 32 17 11 16 19 19 15 4 6 6 4 1 0 0 0 0 0 0 0 0 0 0 0 0 0 0 0 0 0 0 0 0 0 0 0 0 0 0 0 0 0 0 0 0 0 0 0 0 0 0 0 0 0 
0 0 0 0 0 0 0 0 0 0 0 0 0 0 0 0 0 0 0 0 0 0 0 0 0 0 0 6 11 19 19 26 24 16 21 67 39 34 39 70 58 50 111 131 92 92 98 97 114 89 56 55 46 44 39 43 51 58 52 45 53 105 132 100 85 109 112 137 92 75 69 45 40 73 78 25 21 13 17 17 19 15 3 6 6 4 1 0 0 0 0 0 0 0 0 0 0 0 0 0 0 0 0 0 0 0 0 0 0 0 0 0 0 0 0 0 0 0 0 0 0 0 0 0 0 0 0 0 
0 0 0 0 0 0 0 0 0 0 0 0 0 0 0 0 0 0 0 0 0 0 0 0 0 0 0 1 9 13 19 19 25 19 11 43 78 66 78 80 51 50 116 124 68 75 96 107 125 88 52 54 59 56 53 49 46 47 51 47 51 90 135 134 127 118 118 162 91 61 83 83 79 87 41 24 15 16 19 20 18 14 4 5 6 5 1 0 0 0 0 0 0 0 0 0 0 0 0 0 0 0 0 0 0 0 0 0 0 0 0 0 0 0 0 0 0 0 0 0 0 0 0 0 0 0 0 0 
0 0 0 0 0 0 0 0 0 0 0 0 0 0 0 0 0 0 0 0 0 0 0 0 0 0 0 0 5 8 17 19 18 21 13 10 36 70 76 49 38 58 132 140 77 86 105 111 138 126 58 49 49 51 47 41 42 63 55 49 50 80 136 139 109 88 115 175 123 49 55 80 72 45 21 17 12 19 23 21 19 14 4 5 6 5 1 0 0 0 0 0 0 0 0 0 0 0 0 0 0 0 0 0 0 0 0 0 0 0 0 0 0 0 0 0 0 0 0 0 0 0 0 0 0 0 0 0 
0 0 0 0 0 0 0 0 0 0 0 0 0 0 0 0 0 0 0 0 0 0 0 0 0 0 0 0 4 6 11 18 15 23 17 9 7 12 21 32 33 55 135 154 105 85 97 113 106 125 65 48 53 58 63 69 76 65 55 54 52 75 116 125 112 82 123 184 135 40 24 27 25 26 19 15 10 18 20 20 17 12 4 6 7 4 1 0 0 0 0 0 0 0 0 0 0 0 0 0 0 0 0 0 0 0 0 0 0 0 0 0 0 0 0 0 0 0 0 0 0 0 0 0 0 0 0 0 
0 0 0 0 0 0 0 0 0 0 0 0 0 0 0 0 0 0 0 0 0 0 0 0 0 0 0 0 0 5 6 19 16 18 19 13 7 10 20 29 36 44 116 174 142 126 151 129 121 128 62 49 56 59 61 69 78 56 47 53 54 65 104 107 130 118 147 183 118 28 25 29 33 22 13 12 10 11 18 19 16 10 1 4 6 5 3 0 0 0 0 0 0 0 0 0 0 0 0 0 0 0 0 0 0 0 0 0 0 0 0 0 0 0 0 0 0 0 0 0 0 0 0 0 0 0 0 0 
0 0 0 0 0 0 0 0 0 0 0 0 0 0 0 0 0 0 0 0 0 0 0 0 0 0 0 0 0 7 5 13 14 15 18 14 10 11 20 29 37 38 69 154 164 170 161 118 89 61 46 48 50 56 61 65 59 51 51 50 50 57 101 103 141 155 165 166 84 36 23 31 33 13 6 11 12 13 17 16 15 9 0 4 5 5 1 0 0 0 0 0 0 0 0 0 0 0 0 0 0 0 0 0 0 0 0 0 0 0 0 0 0 0 0 0 0 0 0 0 0 0 0 0 0 0 0 0 
0 0 0 0 0 0 0 0 0 0 0 0 0 0 0 0 0 0 0 0 0 0 0 0 0 0 0 0 0 7 6 12 13 15 17 14 11 13 19 26 37 35 31 76 152 170 158 91 45 43 46 45 45 51 64 69 54 51 57 39 44 49 83 94 153 178 161 92 54 47 26 29 27 14 5 9 7 14 14 14 14 7 1 4 5 4 1 0 0 0 0 0 0 0 0 0 0 0 0 0 0 0 0 0 0 0 0 0 0 0 0 0 0 0 0 0 0 0 0 0 0 0 0 0 0 0 0 0 
0 0 0 0 0 0 0 0 0 0 0 0 0 0 0 0 0 0 0 0 0 0 0 0 0 0 0 0 0 5 7 9 14 15 13 15 12 13 19 28 34 30 27 28 49 100 105 62 49 39 36 43 45 54 68 69 54 50 67 39 44 52 85 79 90 97 59 48 50 45 22 21 25 18 14 6 8 12 14 14 14 6 0 3 6 6 3 0 0 0 0 0 0 0 0 0 0 0 0 0 0 0 0 0 0 0 0 0 0 0 0 0 0 0 0 0 0 0 0 0 0 0 0 0 0 0 0 0 
