P2
128 99
224
0 0 0 0 0 0 0 0 0 0 0 0 0 0 0 0 0 0 0 0 0 0 0 0 0 0 0 0 0 0 0 0 0 0 0 0 0 0 0 0 0 0 0 0 0 0 0 0 0 0 0 0 0 0 0 0 0 0 0 0 0 0 0 0 0 0 0 0 0 0 0 0 0 0 0 0 0 0 0 0 0 0 0 0 0 0 0 0 0 0 0 0 0 0 0 0 0 0 0 0 0 0 0 0 0 0 0 0 0 0 0 0 0 0 0 0 0 0 0 0 0 0 0 0 0 0 0 0 
0 0 0 0 0 0 0 0 0 0 0 0 0 0 0 0 0 0 0 0 0 0 0 0 0 0 0 0 0 0 0 0 0 0 0 0 0 0 0 0 0 0 0 0 0 0 0 0 0 0 0 0 0 0 0 0 0 0 0 0 0 0 0 0 0 0 0 0 0 0 0 0 0 0 0 0 0 0 0 0 0 0 0 0 0 0 0 0 0 0 0 0 0 0 0 0 0 0 0 0 0 0 0 0 0 0 0 0 0 0 0 0 0 0 0 0 0 0 0 0 0 0 0 0 0 0 0 0 
0 0 0 0 0 0 0 0 0 0 0 0 0 0 0 0 0 0 0 0 0 0 0 0 0 0 0 0 0 0 0 0 0 0 0 0 0 0 0 0 0 0 0 0 0 0 0 0 0 0 0 1 1 4 0 0 0 0 0 0 0 0 0 0 0 0 0 0 0 0 0 0 0 0 0 0 0 0 0 0 0 0 0 0 0 0 0 0 0 0 0 0 0 0 0 0 0 0 0 0 0 0 0 0 0 0 0 0 0 0 0 0 0 0 0 0 0 0 0 0 0 0 0 0 0 0 0 0 
0 0 0 0 0 0 0 0 0 0 0 0 0 0 0 0 0 0 0 0 0 0 0 0 0 0 0 0 0 0 0 0 0 0 0 0 0 0 0 0 0 0 0 0 5 14 14 15 15 16 18 21 23 25 23 20 16 14 13 12 3 0 0 0 0 0 0 0 0 0 0 0 0 0 0 0 0 0 0 0 0 0 0 0 0 0 0 0 0 0 0 0 0 0 0 0 0 0 0 0 0 0 0 0 0 0 0 0 0 0 0 0 0 0 0 0 0 0 0 0 0 0 0 0 0 0 0 0 
0 0 0 0 0 0 0 0 0 0 0 0 0 0 0 0 0 0 0 0 0 0 0 0 0 0 0 0 0 0 0 0 0 0 0 0 0 0 0 0 8 14 19 20 26 35 58 81 98 110 116 119 121 122 120 114 105 92 76 53 31 19 16 12 1 0 0 0 0 0 0 0 0 0 0 0 0 0 0 0 0 0 0 0 0 0 0 0 0 0 0 0 0 0 0 0 0 0 0 0 0 0 0 0 0 0 0 0 0 0 0 0 0 0 0 0 0 0 0 0 0 0 0 0 0 0 0 0 
0 0 0 0 0 0 0 0 0 0 0 0 0 0 0 0 0 0 0 0 0 0 0 0 0 0 0 0 0 0 0 0 0 0 0 0 0 0 12 15 25 27 34 70 106 133 142 150 161 171 179 186 190 190 190 187 180 171 158 140 120 100 74 38 20 17 12 1 0 0 0 0 0 0 0 0 0 0 0 0 0 0 0 0 0 0 0 0 0 0 0 0 0 0 0 0 0 0 0 0 0 0 0 0 0 0 0 0 0 0 0 0 0 0 0 0 0 0 0 0 0 0 0 0 0 0 0 0 
0 0 0 0 0 0 0 0 0 0 0 0 0 0 0 0 0 0 0 0 0 0 0 0 0 0 0 0 0 0 0 0 0 0 0 0 11 22 27 26 51 103 136 147 162 172 184 199 202 194 184 177 172 168 166 168 173 181 195 204 195 172 146 125 103 75 34 16 16 1 0 0 0 0 0 0 0 0 0 0 0 0 0 0 0 0 0 0 0 0 0 0 0 0 0 0 0 0 0 0 0 0 0 0 0 0 0 0 0 0 0 0 0 0 0 0 0 0 0 0 0 0 0 0 0 0 0 0 
0 0 0 0 0 0 0 0 0 0 0 0 0 0 0 0 0 0 0 0 0 0 0 0 0 0 0 0 0 0 0 0 0 0 10 27 27 24 65 123 145 154 164 181 203 209 187 159 153 150 153 159 160 157 154 153 154 155 150 152 164 182 200 191 167 140 120 90 49 19 16 1 0 0 0 0 0 0 0 0 0 0 0 0 0 0 0 0 0 0 0 0 0 0 0 0 0 0 0 0 0 0 0 0 0 0 0 0 0 0 0 0 0 0 0 0 0 0 0 0 0 0 0 0 0 0 0 0 
0 0 0 0 0 0 0 0 0 0 0 0 0 0 0 0 0 0 0 0 0 0 0 0 0 0 0 0 0 0 0 0 8 27 25 20 59 127 147 155 159 182 207 197 174 149 136 142 146 148 151 156 154 139 142 160 171 177 180 175 161 151 151 161 184 201 181 151 125 92 45 23 11 0 0 0 0 0 0 0 0 0 0 0 0 0 0 0 0 0 0 0 0 0 0 0 0 0 0 0 0 0 0 0 0 0 0 0 0 0 0 0 0 0 0 0 0 0 0 0 0 0 0 0 0 0 0 0 
0 0 0 0 0 0 0 0 0 0 0 0 0 0 0 0 0 0 0 0 0 0 0 0 0 0 0 0 0 0 1 27 22 18 38 118 147 152 154 177 198 182 163 140 127 130 139 142 140 120 110 112 113 108 106 111 130 149 168 181 190 190 178 162 149 153 176 199 184 150 122 71 29 17 2 0 0 0 0 0 0 0 0 0 0 0 0 0 0 0 0 0 0 0 0 0 0 0 0 0 0 0 0 0 0 0 0 0 0 0 0 0 0 0 0 0 0 0 0 0 0 0 0 0 0 0 0 0 
0 0 0 0 0 0 0 0 0 0 0 0 0 0 0 0 0 0 0 0 0 0 0 0 0 0 0 0 0 12 25 22 25 89 146 148 149 175 197 177 159 146 137 143 142 129 119 110 86 100 114 118 118 117 112 106 99 98 116 130 149 177 192 195 188 174 159 153 170 198 181 146 99 42 20 6 0 0 0 0 0 0 0 0 0 0 0 0 0 0 0 0 0 0 0 0 0 0 0 0 0 0 0 0 0 0 0 0 0 0 0 0 0 0 0 0 0 0 0 0 0 0 0 0 0 0 0 0 
0 0 0 0 0 0 0 0 0 0 0 0 0 0 0 0 0 0 0 0 0 0 0 0 0 0 0 0 23 22 20 46 130 150 148 164 196 177 158 155 145 151 147 130 123 120 122 107 101 109 112 120 125 124 129 123 119 110 109 120 118 127 155 176 188 195 191 178 160 155 178 201 171 126 62 23 11 0 0 0 0 0 0 0 0 0 0 0 0 0 0 0 0 0 0 0 0 0 0 0 0 0 0 0 0 0 0 0 0 0 0 0 0 0 0 0 0 0 0 0 0 0 0 0 0 0 0 0 
0 0 0 0 0 0 0 0 0 0 0 0 0 0 0 0 0 0 0 0 0 0 0 0 0 0 5 25 19 17 72 147 150 160 191 187 161 160 161 155 154 148 143 150 155 154 138 127 126 128 112 113 113 114 131 147 150 144 138 134 133 136 143 143 158 175 187 189 188 180 164 164 195 184 138 75 27 13 0 0 0 0 0 0 0 0 0 0 0 0 0 0 0 0 0 0 0 0 0 0 0 0 0 0 0 0 0 0 0 0 0 0 0 0 0 0 0 0 0 0 0 0 0 0 0 0 0 0 
0 0 0 0 0 0 0 0 0 0 0 0 0 0 0 0 0 0 0 0 0 0 0 0 0 9 25 18 24 100 146 151 181 201 172 159 166 165 159 152 149 151 154 157 157 150 146 149 152 157 158 159 159 166 171 182 183 179 176 164 151 143 146 156 152 145 153 171 184 191 189 170 159 185 190 143 84 32 13 0 0 0 0 0 0 0 0 0 0 0 0 0 0 0 0 0 0 0 0 0 0 0 0 0 0 0 0 0 0 0 0 0 0 0 0 0 0 0 0 0 0 0 0 0 0 0 0 0 
0 0 0 0 0 0 0 0 0 0 0 0 0 0 0 0 0 0 0 0 0 0 0 0 15 24 16 32 116 145 158 194 197 166 161 166 160 160 157 143 139 148 160 172 179 186 187 180 177 173 168 160 154 157 161 164 175 179 180 185 185 180 172 164 162 165 156 145 153 173 190 191 174 159 176 190 149 95 35 15 0 0 0 0 0 0 0 0 0 0 0 0 0 0 0 0 0 0 0 0 0 0 0 0 0 0 0 0 0 0 0 0 0 0 0 0 0 0 0 0 0 0 0 0 0 0 0 0 
0 0 0 0 0 0 0 0 0 0 0 0 0 0 0 0 0 0 0 0 0 0 3 20 21 15 41 126 146 167 200 189 160 160 166 163 159 147 136 141 162 180 188 185 174 165 162 163 164 159 162 160 156 155 158 159 161 163 166 170 169 164 162 168 177 175 172 166 149 137 156 178 187 173 162 179 188 154 105 43 16 0 0 0 0 0 0 0 0 0 0 0 0 0 0 0 0 0 0 0 0 0 0 0 0 0 0 0 0 0 0 0 0 0 0 0 0 0 0 0 0 0 0 0 0 0 0 0 
0 0 0 0 0 0 0 0 0 0 0 0 0 0 0 0 0 0 0 0 0 6 15 19 18 57 133 141 168 201 185 160 154 167 167 155 139 137 155 178 185 184 164 141 126 120 129 134 132 129 147 158 150 142 133 132 140 152 155 154 154 155 148 144 154 163 171 171 169 160 138 139 167 183 177 162 181 187 153 108 44 10 0 0 0 0 0 0 0 0 0 0 0 0 0 0 0 0 0 0 0 0 0 0 0 0 0 0 0 0 0 0 0 0 0 0 0 0 0 0 0 0 0 0 0 0 0 0 
0 0 0 0 0 0 0 0 0 0 0 0 0 0 0 0 0 0 0 0 7 14 18 17 70 141 141 168 199 182 159 147 168 163 146 131 128 158 178 175 169 168 142 118 110 107 101 103 100 95 100 90 85 95 88 87 91 103 115 129 138 141 142 149 151 148 152 159 170 159 160 147 128 155 178 174 162 183 181 151 114 39 6 0 0 0 0 0 0 0 0 0 0 0 0 0 0 0 0 0 0 0 0 0 0 0 0 0 0 0 0 0 0 0 0 0 0 0 0 0 0 0 0 0 0 0 0 0 
0 0 0 0 0 0 0 0 0 0 0 0 0 0 0 0 0 0 0 7 12 17 19 75 144 141 164 191 179 156 149 167 157 137 119 111 157 181 168 163 149 124 104 92 90 89 87 90 89 90 91 61 65 93 87 86 92 94 93 98 108 117 127 131 132 141 143 150 164 168 144 149 149 129 148 170 172 166 193 172 151 113 30 1 0 0 0 0 0 0 0 0 0 0 0 0 0 0 0 0 0 0 0 0 0 0 0 0 0 0 0 0 0 0 0 0 0 0 0 0 0 0 0 0 0 0 0 0 
0 0 0 0 0 0 0 0 0 0 0 0 0 0 0 0 0 0 6 12 16 19 76 144 142 162 181 186 152 155 169 153 130 111 112 164 174 161 157 132 101 86 83 87 87 85 82 85 88 97 85 57 65 98 99 96 98 101 104 109 107 101 102 111 122 124 130 140 150 162 164 131 143 152 129 143 169 170 169 196 156 145 101 19 1 0 0 0 0 0 0 0 0 0 0 0 0 0 0 0 0 0 0 0 0 0 0 0 0 0 0 0 0 0 0 0 0 0 0 0 0 0 0 0 0 0 0 0 
0 0 0 0 0 0 0 0 0 0 0 0 0 0 0 0 0 1 14 12 21 74 140 145 156 172 191 154 154 170 147 122 105 108 155 160 157 154 124 94 82 86 95 96 90 91 92 88 82 67 62 66 74 99 114 118 116 113 115 118 114 102 96 88 89 111 128 138 142 144 164 157 119 140 151 126 141 163 166 187 181 146 141 77 11 0 0 0 0 0 0 0 0 0 0 0 0 0 0 0 0 0 0 0 0 0 0 0 0 0 0 0 0 0 0 0 0 0 0 0 0 0 0 0 0 0 0 0 
0 0 0 0 0 0 0 0 0 0 0 0 0 0 0 0 0 12 8 21 67 128 150 152 161 190 161 150 169 145 112 96 104 145 157 150 150 124 99 97 103 99 99 104 101 93 83 80 76 71 79 86 88 89 94 99 105 103 98 94 92 90 91 91 80 76 111 135 142 143 147 166 142 107 139 150 133 143 160 165 200 165 145 136 49 4 0 0 0 0 0 0 0 0 0 0 0 0 0 0 0 0 0 0 0 0 0 0 0 0 0 0 0 0 0 0 0 0 0 0 0 0 0 0 0 0 0 0 
0 0 0 0 0 0 0 0 0 0 0 0 0 0 0 0 7 8 17 56 116 149 144 154 179 174 143 164 147 108 97 101 133 160 152 150 132 113 109 104 97 93 92 92 91 89 88 87 86 89 90 90 88 88 88 88 87 83 80 80 81 84 86 88 90 84 79 114 139 153 149 154 162 122 109 139 146 133 137 156 186 195 151 145 103 19 1 0 0 0 0 0 0 0 0 0 0 0 0 0 0 0 0 0 0 0 0 0 0 0 0 0 0 0 0 0 0 0 0 0 0 0 0 0 0 0 0 0 
0 0 0 0 0 0 0 0 0 0 0 0 0 0 0 1 12 8 44 103 137 148 146 165 180 145 159 148 109 98 99 119 159 158 158 146 121 109 96 88 89 87 84 84 85 87 89 91 95 98 99 99 101 101 104 102 102 97 93 86 82 80 82 83 88 90 87 80 116 150 156 156 159 153 114 114 139 140 133 138 170 205 173 143 143 63 3 0 0 0 0 0 0 0 0 0 0 0 0 0 0 0 0 0 0 0 0 0 0 1 0 0 0 0 0 0 0 0 0 0 0 0 0 0 0 0 0 0 
0 0 0 0 0 0 0 0 0 0 0 0 0 0 0 8 5 23 89 118 153 137 154 178 156 148 158 120 96 102 107 152 166 162 153 130 104 90 83 82 81 84 80 81 82 88 95 99 107 113 111 112 112 113 115 115 117 112 108 103 91 84 79 79 81 86 91 86 89 123 141 153 158 164 142 110 116 137 139 128 143 199 186 154 148 114 18 1 0 0 0 0 0 0 0 0 0 0 0 0 0 0 0 0 0 0 0 0 0 2 0 0 0 0 0 0 0 0 0 0 0 0 0 0 0 0 0 0 
0 0 0 0 0 0 0 0 0 0 0 0 0 0 2 8 8 66 112 146 141 146 163 178 143 147 128 99 100 110 144 168 167 153 132 100 87 79 77 73 77 79 81 88 95 100 103 103 107 113 109 110 109 109 112 114 115 116 119 119 110 99 88 81 80 85 88 90 87 90 120 150 161 159 163 127 106 123 138 133 113 168 183 161 139 143 57 3 0 0 0 0 0 0 0 0 0 0 0 0 0 0 0 0 0 0 0 0 0 1 0 0 0 0 0 0 0 0 0 0 0 0 0 0 0 0 0 0 
0 0 0 0 0 0 0 0 0 0 0 0 0 0 8 5 32 104 117 156 140 156 161 161 134 128 102 100 108 143 174 168 155 129 102 79 77 77 76 76 79 83 93 103 111 111 107 100 96 105 107 108 106 99 84 84 101 109 112 114 119 118 106 92 83 79 81 83 88 86 87 129 163 150 158 165 114 111 128 137 106 138 178 163 145 148 103 12 0 0 0 0 0 0 0 0 0 0 0 0 0 0 0 0 0 0 0 0 0 1 0 0 0 0 0 0 0 0 0 0 0 0 0 0 0 0 0 0 
0 0 0 0 0 0 0 0 0 0 0 0 0 0 8 11 79 109 144 146 148 146 161 146 122 114 96 106 134 177 171 148 132 106 82 75 76 76 76 80 89 100 112 114 111 110 105 99 101 94 91 101 102 85 83 76 76 106 110 112 114 116 117 114 101 86 79 78 84 89 84 88 152 157 159 175 150 108 116 133 113 124 163 161 151 137 123 35 1 0 0 0 0 0 0 0 0 0 0 0 0 0 0 0 0 0 0 0 0 1 0 0 0 0 0 0 0 0 0 0 0 0 0 0 0 0 0 0 
0 0 0 0 0 0 0 0 0 0 0 0 0 3 6 34 106 115 154 140 146 136 162 129 112 108 100 117 160 180 152 139 118 90 77 77 79 79 81 90 107 118 116 111 106 106 107 104 95 86 83 84 101 74 62 65 82 95 94 110 114 112 113 115 115 106 86 78 82 86 88 79 113 147 157 169 174 117 108 123 112 121 161 161 158 135 130 58 2 0 0 0 0 0 0 0 0 0 0 0 0 0 0 0 0 0 0 0 0 1 0 0 0 0 0 0 0 0 0 0 0 0 0 0 0 0 0 0 
0 0 0 0 0 0 0 0 0 0 0 0 0 4 7 68 106 130 146 139 130 143 162 113 108 107 113 128 170 164 136 125 104 79 77 77 80 83 94 110 120 114 101 98 98 96 98 94 93 85 77 75 93 61 62 83 88 89 78 80 92 106 104 105 111 116 105 86 81 83 88 85 89 117 156 169 180 124 107 118 108 114 159 153 160 141 140 74 3 0 0 0 0 0 0 0 0 0 0 0 0 0 0 0 0 0 0 0 0 2 0 0 0 0 0 0 0 0 0 0 0 0 0 0 0 0 0 0 
0 0 0 0 0 0 0 0 0 0 0 0 0 4 18 88 101 144 145 135 116 150 148 107 110 114 122 131 160 144 126 108 87 74 76 81 87 96 113 118 111 81 67 68 78 80 78 92 97 82 66 69 81 55 70 86 85 86 89 79 71 80 95 105 102 110 116 105 87 81 87 88 88 93 128 163 173 125 108 115 115 108 156 154 157 141 144 90 7 0 0 0 0 0 0 0 0 0 0 0 0 0 0 0 0 0 0 0 0 1 0 0 0 0 0 0 0 0 0 0 0 0 0 0 0 0 0 0 
0 0 0 0 0 0 0 0 0 0 0 0 0 4 33 102 104 154 140 114 117 155 129 97 111 119 125 126 152 140 113 97 80 74 77 86 104 118 117 100 69 60 58 57 61 62 72 88 90 76 63 70 77 65 82 83 78 75 81 81 67 73 75 83 101 102 111 119 106 84 84 88 90 87 100 144 163 129 108 109 116 117 151 154 161 148 139 104 13 0 0 0 0 0 0 0 0 0 0 0 0 0 0 0 0 0 0 0 0 2 0 0 0 0 0 0 0 0 0 0 0 0 0 0 0 0 0 0 
0 0 0 0 0 0 0 0 0 0 0 0 1 4 46 103 119 160 131 106 127 146 125 97 117 127 116 109 150 134 102 85 76 75 81 102 120 115 94 58 55 54 52 51 53 55 68 80 80 65 58 76 72 78 86 83 82 77 66 53 57 60 63 72 83 104 103 111 117 109 90 83 90 91 83 116 157 127 112 105 111 118 146 153 162 158 140 120 25 0 0 0 0 0 0 0 0 0 0 0 0 0 0 0 0 0 0 0 0 2 0 0 0 0 0 0 0 0 0 0 0 0 0 0 0 0 0 0 
0 0 0 0 0 0 0 0 0 0 0 0 1 6 56 101 128 152 110 114 134 140 130 103 119 122 104 108 156 130 94 78 75 80 100 119 119 99 69 52 51 52 51 51 50 50 54 66 66 54 58 80 76 76 74 63 55 58 52 53 51 53 56 61 73 85 104 104 111 117 109 91 90 96 85 94 145 117 110 105 109 121 142 148 157 166 136 137 37 1 0 0 0 0 0 0 0 0 0 0 0 0 0 0 0 0 0 0 0 2 0 0 0 0 0 0 0 0 0 0 0 0 0 0 0 0 0 0 
0 0 0 0 0 0 0 0 0 0 0 0 3 7 67 104 139 148 113 132 135 137 126 106 123 115 84 110 154 128 90 76 78 98 118 121 104 83 74 51 50 51 49 50 50 49 50 50 52 51 57 74 75 61 52 50 51 51 53 54 51 52 53 56 65 84 108 103 104 115 122 113 95 105 95 87 122 115 115 104 99 127 148 151 143 163 132 144 47 2 0 0 0 0 0 0 0 0 0 0 0 0 0 0 0 0 0 0 0 1 0 0 0 0 0 0 0 0 0 0 0 0 0 0 0 0 0 0 
0 0 0 0 0 0 0 0 0 0 0 0 4 9 76 109 155 150 115 144 128 139 134 117 124 107 80 111 147 127 90 78 91 117 121 110 95 82 79 76 68 60 50 50 53 51 52 49 52 53 55 58 80 65 51 51 53 52 53 54 52 52 53 54 66 104 107 104 108 111 117 120 120 121 111 88 99 113 120 111 106 123 148 154 143 163 136 145 56 3 0 0 0 0 0 0 0 0 0 0 0 0 0 0 0 0 0 0 0 0 0 0 0 0 0 0 0 0 0 0 0 0 0 0 0 0 0 0 
0 0 0 0 0 0 0 0 0 0 0 0 4 8 82 115 167 143 119 154 123 140 138 122 129 100 86 104 135 125 93 94 116 118 117 107 74 52 48 50 53 58 62 54 53 54 52 50 53 52 55 52 76 68 53 55 58 55 56 54 52 51 55 65 66 75 85 86 85 86 99 119 141 151 135 93 83 115 125 119 115 123 157 148 143 165 140 146 75 4 0 0 0 0 0 0 0 0 0 0 0 0 0 0 0 0 0 0 0 0 0 0 0 0 0 0 0 0 0 0 0 0 0 0 0 0 0 0 
0 0 0 0 0 0 0 0 0 0 0 0 5 11 84 125 166 133 121 158 121 136 139 120 130 94 98 99 125 132 102 112 120 117 104 81 65 53 53 59 66 56 49 52 61 66 54 54 54 55 55 54 71 71 56 55 55 54 52 51 49 56 84 91 92 97 107 106 99 103 111 115 146 155 145 112 79 117 121 118 116 129 155 132 142 168 145 142 96 7 0 0 0 0 0 0 0 0 0 0 0 0 0 0 0 0 0 0 0 0 0 0 0 0 0 0 0 0 0 0 0 0 0 0 0 0 0 0 
0 0 0 0 0 0 0 0 0 0 0 0 5 15 86 136 166 125 125 162 120 133 154 130 135 102 106 95 113 130 122 114 118 103 97 105 96 78 79 101 99 78 59 57 57 61 67 56 56 57 57 57 61 72 64 56 54 53 51 50 57 74 85 83 85 96 101 100 100 107 112 119 127 132 141 127 100 117 118 114 112 135 156 125 135 167 149 140 111 10 0 0 0 0 0 0 0 0 0 0 0 0 0 0 0 0 0 0 0 0 0 0 0 0 0 0 0 0 0 0 0 0 0 0 0 0 0 0 
0 0 0 0 0 0 0 0 0 0 0 0 6 17 87 140 163 128 129 154 115 130 156 136 129 116 110 101 100 140 139 127 110 105 126 111 91 84 82 82 84 87 82 84 73 59 62 56 56 56 60 60 73 84 73 59 55 52 52 63 75 80 62 53 54 64 79 80 78 83 83 91 104 114 133 133 108 116 119 110 116 143 148 115 125 164 149 135 119 15 0 0 0 0 0 0 0 0 0 0 0 0 0 0 0 0 0 0 0 0 0 0 0 0 0 0 0 0 0 0 0 0 0 0 0 0 0 0 
0 0 0 0 0 0 0 0 0 0 0 0 6 18 85 147 163 130 127 142 113 128 152 139 117 122 112 109 109 135 140 130 120 127 112 73 58 51 51 51 53 53 57 67 84 70 58 61 58 61 63 71 103 127 102 63 55 54 57 87 81 50 49 53 56 62 80 82 78 80 83 93 118 134 149 123 95 113 125 107 109 143 142 107 115 156 151 135 131 21 0 0 0 0 0 0 0 0 0 0 0 0 0 0 0 0 0 0 0 0 0 0 0 0 0 0 0 0 0 0 0 0 0 0 0 0 0 0 
0 0 0 0 0 0 0 0 0 0 0 0 6 18 84 155 161 124 103 137 114 124 148 140 113 108 115 113 118 124 128 126 130 116 91 60 49 48 49 54 53 56 57 54 62 83 72 69 67 69 72 93 135 136 136 80 58 56 70 86 56 46 49 54 58 59 71 81 81 87 89 91 107 131 147 126 89 119 125 103 103 142 140 97 106 145 148 137 137 31 1 0 0 0 0 0 0 0 0 0 0 0 0 0 0 0 0 0 0 0 0 0 0 0 0 0 0 0 0 0 0 0 0 0 0 0 0 0 
0 0 0 0 0 0 0 0 0 0 0 0 7 18 85 163 156 120 100 135 114 119 143 143 105 87 115 115 121 119 107 116 132 113 78 50 48 45 46 50 52 56 56 57 58 71 92 87 82 86 89 108 139 107 118 106 61 62 80 74 49 48 50 55 63 70 74 84 83 81 81 80 94 128 152 125 89 123 123 99 99 132 132 92 89 141 144 138 138 39 1 0 0 0 0 0 0 0 0 0 0 0 0 0 0 0 0 0 0 0 0 0 0 0 0 0 0 0 0 0 0 0 0 0 0 0 0 0 
0 0 0 0 0 0 0 0 0 0 0 0 7 17 88 163 152 113 100 138 119 114 141 142 98 73 114 116 113 102 89 98 110 113 69 52 47 47 46 47 50 52 54 55 61 68 90 110 112 111 109 127 141 100 98 120 87 89 79 57 49 51 57 68 73 67 67 78 81 82 80 81 92 129 152 119 93 129 121 98 98 124 132 100 80 135 148 144 139 47 1 0 0 0 0 0 0 0 0 0 0 0 0 0 0 0 0 0 0 0 0 0 0 0 0 0 0 0 0 0 0 0 0 0 0 0 0 0 
0 0 0 0 0 0 0 0 0 0 0 0 7 16 89 162 148 112 97 134 108 108 142 132 91 65 107 115 99 86 80 102 104 107 70 54 47 47 46 46 48 50 52 56 62 78 89 105 107 96 120 151 106 91 79 99 87 73 72 53 55 60 69 67 60 57 64 76 80 80 80 81 92 117 139 105 94 130 120 105 111 112 116 104 78 120 139 145 136 53 2 0 0 0 0 0 0 0 0 0 0 0 0 0 0 0 0 0 0 0 0 0 0 0 0 0 0 0 0 0 0 0 0 0 0 0 0 0 
0 0 0 0 0 0 0 0 0 0 0 0 8 18 92 162 146 116 98 120 99 114 141 114 92 62 95 113 101 83 81 101 108 97 72 55 47 45 45 45 57 67 68 67 69 88 98 99 94 101 136 147 115 101 89 75 95 65 60 62 71 67 57 53 57 62 67 79 82 81 79 84 93 119 139 96 95 128 113 109 146 116 117 113 79 112 123 134 131 55 3 0 0 0 0 0 0 0 0 0 0 0 0 0 0 0 0 0 0 0 0 0 0 0 0 0 0 0 0 0 0 0 0 0 0 0 0 0 
0 0 0 0 0 0 0 0 0 0 0 0 7 15 87 158 143 122 95 103 101 120 138 110 96 58 83 110 99 83 78 89 114 99 74 56 49 48 47 49 53 68 73 76 90 105 108 102 96 106 143 126 115 111 108 81 94 97 69 64 60 55 48 54 68 65 72 80 81 83 83 86 94 125 133 94 102 126 110 105 159 116 112 118 85 114 121 137 127 54 3 0 0 0 0 0 0 0 0 0 0 0 0 0 0 0 0 0 0 0 0 0 0 0 0 0 0 0 0 0 0 0 0 0 0 0 0 0 
0 0 0 0 0 0 0 0 0 0 0 0 8 15 81 153 140 126 89 94 104 124 136 108 98 58 72 108 101 84 79 80 107 105 77 57 50 51 52 50 59 57 55 66 85 101 113 111 99 114 140 106 97 89 89 72 73 101 72 60 57 54 51 63 65 68 75 79 83 83 84 86 95 127 124 100 108 123 108 101 163 114 102 117 87 110 118 142 124 51 3 0 0 0 0 0 0 0 0 0 0 0 0 0 0 0 0 0 0 0 0 0 0 0 0 0 0 0 0 0 0 0 0 0 0 0 0 0 
0 0 0 0 0 0 0 0 0 0 0 0 4 15 72 153 138 127 83 84 104 127 135 108 104 65 62 99 106 89 80 78 88 113 88 59 52 53 49 46 58 71 61 65 84 100 122 119 104 131 119 100 97 92 94 76 59 99 98 71 58 52 53 68 65 66 78 82 83 82 85 88 102 127 113 102 114 121 110 101 157 110 104 112 89 104 117 136 117 48 3 0 0 0 0 0 0 0 0 0 0 0 0 0 0 0 0 0 0 0 0 0 0 0 0 0 0 0 0 0 0 0 0 0 0 0 0 0 
0 0 0 0 0 0 0 0 0 0 0 0 5 17 67 147 134 134 93 78 99 122 137 112 103 70 53 91 105 96 86 78 79 102 94 64 53 53 46 50 63 76 67 68 88 105 109 102 120 140 114 101 96 98 95 77 66 71 109 84 64 49 49 59 65 65 73 81 82 81 87 94 111 125 99 99 121 117 110 101 143 106 115 102 88 102 116 131 117 45 2 0 0 0 0 0 0 0 0 0 0 0 0 0 0 0 0 0 0 0 0 0 0 0 0 0 0 0 0 0 0 0 0 0 0 0 0 0 
0 0 0 0 0 0 0 0 0 0 0 0 2 18 61 138 133 138 103 71 95 118 137 126 108 76 51 81 105 110 102 81 76 85 97 71 50 47 48 61 75 79 71 77 88 107 100 115 154 125 96 96 92 96 97 77 63 58 87 110 76 67 51 62 67 70 76 80 83 84 89 99 120 108 81 95 121 118 116 109 126 98 121 91 85 105 118 128 107 40 2 0 0 0 0 0 0 0 0 0 0 0 0 0 0 0 0 0 0 0 0 0 0 0 0 0 0 0 0 0 0 0 0 0 0 0 0 0 
0 0 0 0 0 0 0 0 0 3 3 0 0 16 54 127 131 131 109 71 84 113 135 129 110 74 48 71 107 130 118 85 77 76 88 83 56 48 50 55 73 83 79 75 95 105 106 138 138 93 85 87 82 93 92 77 66 61 66 113 108 58 59 75 71 75 88 95 87 88 95 114 123 84 71 94 118 119 114 106 102 107 113 82 82 111 120 124 91 36 3 0 0 0 0 0 0 0 0 0 0 0 0 0 0 0 0 0 0 0 0 0 0 0 0 0 0 0 0 0 0 0 0 0 0 0 0 0 
0 0 0 0 0 0 0 0 0 1 10 5 1 11 49 111 144 133 114 77 74 100 133 131 113 80 52 64 115 138 128 95 80 74 75 92 77 53 54 60 78 75 79 70 77 90 122 126 118 82 80 73 69 77 77 76 84 58 58 98 143 95 62 68 65 75 94 110 101 99 95 114 111 61 64 98 126 135 122 99 93 121 96 79 81 116 121 129 85 34 2 0 0 0 0 0 0 0 0 0 0 0 0 0 0 0 0 0 0 0 0 0 0 0 0 0 0 0 0 0 0 0 0 0 0 0 0 0 
0 0 0 0 0 0 0 0 0 1 11 12 6 11 41 94 146 129 110 87 68 84 129 132 121 89 55 57 115 137 125 117 85 80 76 73 74 64 65 59 69 71 70 68 86 104 129 129 113 58 63 63 59 70 72 61 78 63 58 75 143 111 71 78 79 81 92 96 96 101 93 95 74 44 52 104 142 151 145 111 114 149 84 75 85 114 126 127 79 30 2 0 0 0 0 0 0 0 0 0 0 0 0 0 0 0 0 0 0 0 0 0 0 0 0 0 0 0 0 0 0 0 0 0 0 0 0 0 
0 0 0 0 0 0 0 0 0 1 10 4 2 12 34 77 147 128 105 92 72 74 114 130 125 96 61 51 108 134 132 127 111 91 87 77 71 78 74 65 67 72 70 82 80 98 127 139 97 64 54 56 56 73 61 54 64 55 52 83 138 125 86 78 76 82 100 93 88 93 104 87 67 67 83 118 143 148 149 113 126 166 95 82 96 109 138 112 70 22 3 0 1 5 0 0 0 0 0 0 0 0 0 0 0 0 0 0 0 0 0 0 0 0 0 0 0 0 0 0 0 0 0 0 0 0 0 0 
0 0 0 0 0 0 0 0 0 0 9 3 1 6 28 71 141 135 108 96 86 70 90 136 135 110 62 45 89 127 132 119 109 104 88 77 68 75 65 70 72 68 66 64 71 94 120 139 92 46 54 59 49 66 63 48 56 55 56 93 116 112 86 82 77 93 126 134 112 100 114 104 87 107 115 147 158 150 135 115 130 155 134 95 88 124 149 98 67 17 7 7 10 1 0 0 0 0 0 0 0 0 0 0 0 0 0 0 0 0 0 0 0 0 0 0 0 0 0 0 0 0 0 0 0 0 0 0 
0 0 0 0 0 0 0 0 0 0 3 3 2 6 24 65 126 151 108 99 93 71 65 115 157 139 90 55 92 125 122 108 100 106 104 93 78 79 65 66 68 64 76 71 73 89 121 132 95 52 53 54 45 65 60 56 54 57 56 103 107 104 78 72 80 114 136 151 149 137 126 113 84 80 124 162 172 151 129 114 120 139 159 115 118 141 141 87 58 12 4 0 5 7 0 0 0 0 0 0 0 0 0 0 0 0 0 0 0 0 0 0 0 0 0 0 0 0 0 0 0 0 0 0 0 0 0 0 
0 0 0 0 0 0 0 0 0 0 1 4 1 8 15 55 111 152 116 97 96 76 64 110 179 153 116 93 90 98 103 101 103 103 89 90 85 78 61 59 56 55 68 82 91 87 111 121 104 62 69 66 56 81 68 43 50 59 58 70 120 131 83 69 86 119 130 143 152 153 171 134 121 117 151 159 145 118 121 142 134 135 164 149 137 158 130 83 43 9 1 0 2 6 0 0 0 0 0 0 0 0 0 0 0 0 0 0 0 0 0 0 0 0 0 0 0 0 0 0 0 0 0 0 0 0 0 0 
0 0 0 0 0 0 0 0 0 0 0 6 5 9 17 45 104 152 124 111 110 88 77 111 162 151 117 122 119 89 102 112 106 109 119 121 129 117 88 66 59 55 79 104 95 77 100 131 93 59 76 81 65 88 51 38 57 75 75 80 123 133 114 100 96 106 124 133 149 145 142 144 156 143 155 160 125 93 123 165 168 149 173 182 160 138 120 79 20 6 3 1 2 2 0 0 0 0 0 0 0 0 0 0 0 0 0 0 0 0 0 0 0 0 0 0 0 0 0 0 0 0 0 0 0 0 0 0 
0 0 0 0 0 0 0 0 0 0 0 6 10 4 7 32 101 150 131 109 137 132 91 138 176 153 139 147 143 127 112 133 139 142 139 133 147 145 113 79 74 96 103 93 88 76 98 135 82 56 86 94 90 106 60 51 56 76 86 92 100 115 91 100 105 98 117 125 131 123 126 150 166 150 152 145 131 118 142 164 157 169 185 145 143 132 121 67 12 9 3 1 2 0 0 0 0 0 0 0 0 0 0 0 0 0 0 0 0 0 0 0 0 0 0 0 0 0 0 0 0 0 0 0 0 0 0 0 
0 0 0 0 0 0 0 0 0 0 0 5 2 0 3 10 56 139 151 108 114 145 144 156 184 159 141 143 155 122 107 111 145 182 147 125 126 147 150 119 91 91 89 85 76 70 88 120 96 61 73 81 90 113 102 63 67 75 66 82 82 86 94 90 93 99 104 125 127 113 95 107 142 156 159 159 143 136 155 164 150 144 169 150 126 136 131 74 6 0 0 0 2 0 0 0 0 0 0 0 0 0 0 0 0 0 0 0 0 0 0 0 0 0 0 0 0 0 0 0 0 0 0 0 0 0 0 0 
0 0 0 0 0 0 0 0 0 0 0 6 2 0 3 7 39 122 159 125 112 134 157 155 156 147 137 153 161 122 104 113 151 166 153 122 117 147 151 114 84 82 78 74 74 75 89 104 73 98 96 94 110 125 132 112 66 56 72 69 93 98 110 106 108 110 103 99 96 73 98 112 136 151 151 138 111 123 132 142 151 159 185 139 91 105 121 43 3 0 0 0 2 1 0 0 0 0 0 0 0 0 0 0 0 0 0 0 0 0 0 0 0 0 0 0 0 0 0 0 0 0 0 0 0 0 0 0 
0 0 0 0 0 0 0 0 0 0 0 6 2 0 2 7 22 91 153 130 110 112 125 121 149 139 90 125 161 167 140 131 151 142 161 145 138 142 117 90 82 82 86 95 101 89 106 112 87 100 100 105 105 121 132 110 60 63 90 73 98 128 121 97 112 117 101 73 50 63 112 126 165 161 143 121 114 131 127 118 133 137 143 127 87 102 92 19 2 1 0 0 2 2 0 0 0 0 0 0 0 0 0 0 0 0 0 0 0 0 0 0 0 0 0 0 0 0 0 0 0 0 0 0 0 0 0 0 
0 0 0 0 0 0 0 0 0 0 0 6 2 0 3 9 19 60 148 164 116 80 105 130 114 109 80 92 134 160 159 141 127 100 110 140 141 125 104 109 93 95 103 102 91 85 117 134 101 88 77 72 71 68 75 88 79 88 92 73 94 131 135 110 100 98 74 47 47 83 118 145 174 160 132 105 111 131 126 116 120 125 116 135 137 102 63 10 3 2 0 0 2 2 0 0 0 0 0 0 0 0 0 0 0 0 0 0 0 0 0 0 0 0 0 0 0 0 0 0 0 0 0 0 0 0 0 0 
0 0 0 0 0 0 0 0 0 0 1 5 1 0 2 7 12 33 112 144 108 86 111 141 143 110 84 81 98 149 165 145 113 85 69 100 113 111 116 129 108 103 107 94 86 79 106 126 121 91 81 69 69 69 78 82 79 96 111 91 110 141 134 105 94 70 52 49 77 123 137 161 172 163 133 120 114 114 141 149 131 115 116 104 114 89 40 11 6 4 1 0 3 3 0 0 0 0 0 0 0 0 0 0 0 0 0 0 0 0 0 0 0 0 0 0 0 0 0 0 0 0 0 0 0 0 0 0 
0 0 0 0 0 0 0 0 0 0 1 5 2 0 1 2 10 17 70 116 103 93 126 145 162 132 89 79 96 136 166 160 148 124 106 95 109 104 94 109 101 112 111 100 86 95 113 134 125 128 146 128 94 85 100 103 82 101 138 129 116 142 137 85 61 58 52 61 120 150 146 167 153 128 114 109 100 107 150 156 114 95 106 132 103 69 18 9 7 7 3 0 4 3 0 0 0 0 0 0 0 0 0 0 0 0 0 0 0 0 0 0 0 0 0 0 0 0 0 0 0 0 0 0 0 0 0 0 
0 0 0 0 0 0 0 0 0 0 1 5 2 0 0 0 11 12 40 121 147 113 119 138 147 162 114 112 123 132 168 167 143 150 136 124 96 74 69 72 104 106 103 102 110 128 126 143 145 155 153 148 156 158 145 133 141 135 131 112 106 131 147 88 62 51 59 90 131 152 144 115 117 112 109 93 99 136 177 171 108 90 103 129 95 49 12 12 3 7 6 0 5 5 0 0 0 0 0 0 0 0 0 0 0 0 0 0 0 0 0 0 0 0 0 0 0 0 0 0 0 0 0 0 0 0 0 0 
0 0 0 0 0 0 0 0 0 0 0 5 5 0 0 0 11 15 20 93 140 103 103 111 140 146 166 146 140 149 167 175 146 133 123 120 107 77 54 63 74 66 73 90 140 149 151 160 166 151 134 126 129 136 157 146 133 142 150 141 139 154 170 164 131 98 104 120 138 129 112 97 117 119 117 91 105 169 164 132 88 88 83 113 83 25 11 12 5 6 7 1 6 4 0 0 0 0 0 0 0 0 0 0 0 0 0 0 0 0 0 0 0 0 0 0 0 0 0 0 0 0 0 0 0 0 0 0 
0 0 0 0 0 0 0 0 0 0 0 2 5 0 0 0 11 17 15 58 132 75 94 107 124 152 175 177 135 126 135 150 120 118 115 111 112 115 106 95 105 116 116 129 145 134 137 129 125 117 120 121 119 130 150 153 154 156 150 136 144 162 161 178 172 159 145 135 141 100 68 79 111 132 103 100 139 159 126 121 94 104 78 131 73 14 10 11 5 1 4 1 6 6 0 0 0 0 0 0 0 0 0 0 0 0 0 0 0 0 0 0 0 0 0 0 0 0 0 0 0 0 0 0 0 0 0 0 
0 0 0 0 0 0 0 0 0 0 0 0 5 0 0 0 4 14 13 25 119 109 66 96 123 157 150 173 141 131 126 132 100 93 114 125 115 106 104 102 106 128 123 113 119 123 141 153 135 130 127 138 131 129 146 154 162 159 134 123 131 135 143 160 179 161 146 125 108 74 80 92 116 142 105 120 139 141 122 129 95 59 80 142 52 12 12 11 2 0 0 2 6 5 0 0 0 0 0 0 0 0 0 0 0 0 0 0 0 0 0 0 0 0 0 0 0 0 0 0 0 0 0 0 0 0 0 0 
0 0 0 0 0 0 0 0 0 0 0 1 13 7 0 0 0 12 10 18 94 135 73 78 111 152 160 134 139 139 140 124 108 86 77 87 97 98 102 107 112 132 146 141 136 142 130 126 126 132 134 143 143 143 127 123 133 148 126 111 110 114 140 135 131 118 97 114 119 99 95 100 106 131 133 129 137 151 131 126 49 27 84 124 35 15 12 6 0 0 0 2 6 4 0 0 0 0 0 0 0 0 0 0 0 0 0 0 0 0 0 0 0 0 0 0 0 0 0 0 0 0 0 0 0 0 0 0 
0 0 0 0 0 0 0 0 0 0 0 0 13 11 6 5 2 12 10 18 68 131 102 67 81 124 166 133 143 138 109 113 108 91 83 80 83 101 116 120 114 120 147 151 161 175 136 123 123 134 146 138 140 157 152 119 127 145 117 75 71 86 97 98 134 151 129 139 134 102 92 90 86 96 138 147 180 182 159 107 38 65 128 106 28 15 10 2 0 0 0 2 6 2 0 0 0 0 0 0 0 0 0 0 0 0 0 0 0 0 0 0 0 0 0 0 0 0 0 0 0 0 0 0 0 0 0 0 
0 0 0 0 0 0 0 0 0 0 0 0 7 12 8 4 9 14 13 14 35 104 103 74 68 86 156 146 153 143 119 101 96 79 82 107 130 130 115 108 115 141 168 159 152 177 127 106 107 129 143 161 167 155 134 113 110 116 119 86 95 110 108 130 190 194 153 149 140 92 64 44 60 126 140 143 164 171 166 100 66 96 130 76 17 17 13 7 5 7 6 2 6 0 0 0 0 0 0 0 0 0 0 0 0 0 0 0 0 0 0 0 0 0 0 0 0 0 0 0 0 0 0 0 0 0 0 0 
0 0 0 0 0 0 0 0 0 0 0 0 11 12 13 15 12 5 11 14 21 64 100 61 70 71 107 142 153 173 161 143 108 96 81 83 94 100 102 99 104 130 153 151 151 185 149 127 108 109 143 155 137 158 140 122 133 141 143 132 145 152 122 150 176 180 139 121 112 68 45 89 124 139 134 118 131 111 163 107 53 90 112 36 10 7 8 10 5 3 0 1 9 0 0 0 0 0 0 0 0 0 0 0 0 0 0 0 0 0 0 0 0 0 0 0 0 0 0 0 0 0 0 0 0 0 0 0 
0 0 0 0 0 0 0 0 0 0 0 0 11 9 9 10 4 4 7 16 26 29 66 32 43 60 84 154 165 182 188 156 137 137 110 83 92 100 97 100 94 135 146 135 152 149 128 137 145 129 150 150 149 182 179 135 125 152 158 155 155 159 172 173 162 138 96 150 164 144 151 154 157 140 112 95 120 87 149 122 96 107 57 8 2 1 1 4 6 0 0 8 12 0 0 0 0 0 0 0 0 0 0 0 0 0 0 0 0 0 0 0 0 0 0 0 0 0 0 0 0 0 0 0 0 0 0 0 
0 0 0 0 0 0 0 0 0 0 0 0 5 5 2 0 2 2 4 9 21 25 36 62 56 53 66 112 138 158 159 149 156 170 162 152 137 91 74 89 109 157 166 175 180 169 181 196 194 190 176 179 172 180 184 153 163 186 167 153 152 158 179 224 164 158 176 174 185 167 156 132 91 118 99 80 119 97 127 91 88 58 22 13 17 1 0 0 1 2 4 8 10 0 0 0 0 0 0 0 0 0 0 0 0 0 0 0 0 0 0 0 0 0 0 0 0 0 0 0 0 0 0 0 0 0 0 0 
0 0 0 0 0 0 0 0 0 0 0 0 0 4 1 0 0 1 0 7 11 28 24 59 96 85 49 74 82 68 53 68 97 139 150 139 127 121 112 119 120 120 128 134 160 132 135 165 196 170 175 171 177 187 187 143 113 144 136 152 161 153 151 153 127 135 120 116 157 172 165 149 110 85 76 63 106 106 111 50 34 25 23 20 23 0 0 0 0 0 0 6 7 0 0 0 0 0 0 0 0 0 0 0 0 0 0 0 0 0 0 0 0 0 0 0 0 0 0 0 0 0 0 0 0 0 0 0 
0 0 0 0 0 0 0 0 0 0 0 0 0 5 9 1 0 0 4 6 12 20 21 26 49 63 27 30 51 56 54 47 62 76 75 60 52 44 43 41 43 78 94 59 102 124 95 133 155 107 88 100 125 159 146 100 69 71 86 112 87 83 106 129 89 131 66 48 67 79 76 77 74 47 43 51 115 98 78 27 26 28 20 8 2 0 0 0 0 0 0 7 7 0 0 0 0 0 0 0 0 0 0 0 0 0 0 0 0 0 0 0 0 0 0 0 0 0 0 0 0 0 0 0 0 0 0 0 
0 0 0 0 0 0 0 0 0 0 0 0 0 0 9 2 0 0 0 2 8 12 19 19 23 20 18 19 35 54 53 43 54 70 65 42 44 47 52 43 46 56 71 67 65 80 86 73 47 45 42 48 67 84 79 61 44 43 54 68 66 65 65 58 47 79 153 82 118 179 65 67 81 36 22 46 112 86 72 28 28 26 19 5 2 0 0 0 0 1 6 8 4 0 0 0 0 0 0 0 0 0 0 0 0 0 0 0 0 0 0 0 0 0 0 0 0 0 0 0 0 0 0 0 0 0 0 0 
0 0 0 0 0 0 0 0 0 0 0 0 0 0 0 0 0 0 0 0 7 11 11 17 20 25 18 23 30 48 57 37 48 77 68 55 67 62 90 102 114 106 116 116 115 103 102 105 91 74 71 80 94 94 79 70 64 67 70 114 120 108 105 102 105 102 78 97 118 151 98 112 101 57 33 51 106 82 56 16 17 26 15 5 2 0 0 0 0 1 4 2 0 0 0 0 0 0 0 0 0 0 0 0 0 0 0 0 0 0 0 0 0 0 0 0 0 0 0 0 0 0 0 0 0 0 0 0 
0 0 0 0 0 0 0 0 0 0 0 0 0 0 0 0 0 0 0 0 0 2 2 8 11 19 19 39 52 64 76 58 62 93 94 91 78 99 90 141 188 202 171 191 194 214 208 215 208 167 135 134 127 135 126 119 116 110 111 147 153 131 100 113 124 116 154 162 108 152 72 51 41 31 30 30 70 80 49 22 23 24 8 2 0 0 0 0 0 0 0 0 0 0 0 0 0 0 0 0 0 0 0 0 0 0 0 0 0 0 0 0 0 0 0 0 0 0 0 0 0 0 0 0 0 0 0 0 
0 0 0 0 0 0 0 0 0 0 0 0 0 0 0 0 0 0 0 0 0 4 0 0 6 12 20 50 69 79 79 80 71 93 132 67 61 68 96 138 198 194 125 163 147 174 175 171 162 207 219 182 170 185 191 183 176 161 151 136 123 132 143 144 179 169 204 88 106 120 108 88 39 28 16 26 61 47 17 4 2 8 0 0 0 0 0 0 0 0 0 0 0 0 0 0 0 0 0 0 0 0 0 0 0 0 0 0 0 0 0 0 0 0 0 0 0 0 0 0 0 0 0 0 0 0 0 0 
0 0 0 0 0 0 0 0 0 0 0 0 0 0 0 0 0 0 0 0 0 1 4 1 11 15 15 23 35 48 58 55 45 61 97 67 41 52 54 109 144 131 128 112 155 120 139 154 152 129 123 101 103 112 110 106 104 111 127 134 132 134 134 116 119 168 183 164 201 172 100 32 15 36 27 48 60 36 16 6 4 10 1 2 0 0 0 0 0 0 0 0 0 0 0 0 0 0 0 0 0 0 0 0 0 0 0 0 0 0 0 0 0 0 0 0 0 0 0 0 0 0 0 0 0 0 0 0 
0 0 0 0 0 0 0 0 0 0 0 0 0 0 0 0 0 0 0 0 0 0 7 6 10 17 19 16 18 31 51 58 45 84 116 89 63 45 67 104 123 152 135 113 127 116 136 146 137 85 92 102 87 75 75 66 62 65 62 71 91 112 128 135 121 109 130 142 147 154 88 55 53 98 65 82 82 48 32 19 21 12 4 1 0 0 0 0 0 0 0 0 0 0 0 0 0 0 0 0 0 0 0 0 0 0 0 0 0 0 0 0 0 0 0 0 0 0 0 0 0 0 0 0 0 0 0 0 
0 0 0 0 0 0 0 0 0 0 0 0 0 0 0 0 0 0 0 0 0 0 2 6 6 18 20 15 13 23 38 58 38 85 121 58 66 96 106 129 120 129 114 70 104 151 101 125 148 88 68 63 56 59 59 58 62 62 52 59 92 115 149 147 75 83 81 74 86 125 103 84 94 144 121 76 77 59 35 19 20 10 5 1 0 0 0 0 0 0 0 0 0 0 0 0 0 0 0 0 0 0 0 0 0 0 0 0 0 0 0 0 0 0 0 0 0 0 0 0 0 0 0 0 0 0 0 0 
0 0 0 0 0 0 0 0 0 0 0 0 0 0 0 0 0 0 0 0 0 0 0 4 9 8 18 18 13 18 34 60 41 76 118 51 29 41 68 109 106 109 126 65 65 105 126 131 158 109 95 92 58 59 64 63 74 64 63 95 144 140 152 161 109 62 83 81 61 67 54 34 31 108 147 87 80 62 32 19 19 9 5 0 0 0 0 0 0 0 0 0 0 0 0 0 0 0 0 0 0 0 0 0 0 0 0 0 0 0 0 0 0 0 0 0 0 0 0 0 0 0 0 0 0 0 0 0 
0 0 0 0 0 0 0 0 0 0 0 0 0 0 0 0 0 0 0 0 0 0 0 3 8 6 14 21 16 15 23 59 40 71 114 47 28 25 32 49 64 112 121 75 60 88 153 173 178 135 111 127 85 69 74 78 74 75 88 136 184 178 165 162 105 55 77 108 79 56 38 28 25 70 151 86 84 58 24 18 19 8 4 0 0 0 0 0 0 0 0 0 0 0 0 0 0 0 0 0 0 0 0 0 0 0 0 0 0 0 0 0 0 0 0 0 0 0 0 0 0 0 0 0 0 0 0 0 
0 0 0 0 0 0 0 0 0 0 0 0 0 0 0 0 0 0 0 0 0 0 0 0 4 6 11 19 18 17 18 54 45 69 112 47 27 25 29 39 89 120 85 66 63 79 130 158 151 122 141 145 121 103 91 95 95 114 133 166 164 154 157 135 89 63 63 92 118 68 38 34 30 55 152 80 65 28 13 17 19 7 2 0 0 0 0 0 0 0 0 0 0 0 0 0 0 0 0 0 0 0 0 0 0 0 0 0 0 0 0 0 0 0 0 0 0 0 0 0 0 0 0 0 0 0 0 0 
0 0 0 0 0 0 0 0 0 0 0 0 0 0 0 0 0 0 0 0 0 0 0 0 2 4 8 14 17 18 22 46 49 59 108 52 32 34 33 60 108 78 68 72 87 84 116 136 116 124 172 138 106 119 129 121 128 137 130 151 167 140 137 124 103 76 56 52 88 102 53 47 39 55 146 82 52 17 14 17 16 6 1 0 0 0 0 0 0 0 0 0 0 0 0 0 0 0 0 0 0 0 0 0 0 0 0 0 0 0 0 0 0 0 0 0 0 0 0 0 0 0 0 0 0 0 0 0 
0 0 0 0 0 0 0 0 0 0 0 0 0 0 0 0 0 0 0 0 0 0 0 0 0 4 4 14 15 19 23 40 44 43 95 59 34 37 37 70 84 62 74 68 70 84 117 130 102 120 171 116 74 92 124 131 122 108 107 130 144 132 123 121 101 54 40 47 61 98 63 47 40 55 134 79 29 14 17 21 17 8 2 0 0 0 0 0 0 0 0 0 0 0 0 0 0 0 0 0 0 0 0 0 0 0 0 0 0 0 0 0 0 0 0 0 0 0 0 0 0 0 0 0 0 0 0 0 
0 0 0 0 0 0 0 0 0 0 0 0 0 0 0 0 0 0 0 0 0 0 0 0 0 4 2 7 16 20 22 31 42 24 70 68 31 42 47 74 73 60 63 56 65 83 114 130 122 134 146 95 60 71 102 111 96 88 86 96 111 122 125 106 93 49 37 45 61 98 85 50 35 67 131 38 11 14 20 24 20 7 1 0 0 0 0 0 0 0 0 0 0 0 0 0 0 0 0 0 0 0 0 0 0 0 0 0 0 0 0 0 0 0 0 0 0 0 0 0 0 0 0 0 0 0 0 0 
0 0 0 0 0 0 0 0 0 0 0 0 0 0 0 0 0 0 0 0 0 0 0 0 0 0 5 2 13 20 22 19 15 15 39 94 49 60 93 99 73 54 52 55 70 81 102 123 142 144 103 67 58 52 64 87 90 88 83 84 120 144 129 77 81 58 41 38 49 94 127 98 66 107 124 28 13 13 21 22 18 5 1 0 0 0 0 0 0 0 0 0 0 0 0 0 0 0 0 0 0 0 0 0 0 0 0 0 0 0 0 0 0 0 0 0 0 0 0 0 0 0 0 0 0 0 0 0 
0 0 0 0 0 0 0 0 0 0 0 0 0 0 0 0 0 0 0 0 0 0 0 0 0 0 1 3 8 15 21 18 11 14 14 65 94 91 111 86 78 56 48 59 71 82 86 102 143 129 94 76 75 76 74 74 80 66 81 105 130 142 113 69 83 73 45 34 48 88 112 113 91 114 61 19 11 15 21 20 14 3 0 0 0 0 0 0 0 0 0 0 0 0 0 0 0 0 0 0 0 0 0 0 0 0 0 0 0 0 0 0 0 0 0 0 0 0 0 0 0 0 0 0 0 0 0 0 
0 0 0 0 0 0 0 0 0 0 0 0 0 0 0 0 0 0 0 0 0 0 0 0 0 0 0 2 8 13 16 21 10 11 10 11 31 51 53 61 82 61 40 61 100 109 83 91 122 110 109 99 76 68 56 72 82 77 86 126 155 148 111 70 78 92 58 31 47 84 69 50 58 45 27 17 10 15 18 17 10 2 0 0 0 0 0 0 0 0 0 0 0 0 0 0 0 0 0 0 0 0 0 0 0 0 0 0 0 0 0 0 0 0 0 0 0 0 0 0 0 0 0 0 0 0 0 0 
0 0 0 0 0 0 0 0 0 0 0 0 0 0 0 0 0 0 0 0 0 0 0 0 0 0 0 3 6 12 13 18 16 8 6 9 12 19 26 41 75 77 50 55 111 113 76 91 128 128 123 107 82 73 69 78 71 88 97 113 120 137 124 90 75 96 79 48 60 85 52 26 30 34 26 15 9 16 15 17 9 2 0 0 0 0 0 0 0 0 0 0 0 0 0 0 0 0 0 0 0 0 0 0 0 0 0 0 0 0 0 0 0 0 0 0 0 0 0 0 0 0 0 0 0 0 0 0 
0 0 0 0 0 0 0 0 0 0 0 0 0 0 0 0 0 0 0 0 0 0 0 0 0 0 0 2 4 11 12 15 18 8 8 12 17 18 25 27 56 82 73 77 120 107 68 88 137 125 112 88 67 96 99 95 89 85 108 130 127 145 150 113 78 97 99 83 79 76 30 25 32 32 23 12 11 13 16 16 9 2 0 0 0 0 0 0 0 0 0 0 0 0 0 0 0 0 0 0 0 0 0 0 0 0 0 0 0 0 0 0 0 0 0 0 0 0 0 0 0 0 0 0 0 0 0 0 
0 0 0 0 0 0 0 0 0 0 0 0 0 0 0 0 0 0 0 0 0 0 0 0 0 0 0 0 2 9 12 13 17 11 5 12 15 17 23 26 35 61 82 98 123 87 66 93 145 153 122 77 79 93 93 104 106 101 97 119 149 158 157 122 71 83 103 97 81 43 23 24 31 27 20 11 10 11 18 15 9 2 0 0 0 0 0 0 0 0 0 0 0 0 0 0 0 0 0 0 0 0 0 0 0 0 0 0 0 0 0 0 0 0 0 0 0 0 0 0 0 0 0 0 0 0 0 0 
0 0 0 0 0 0 0 0 0 0 0 0 0 0 0 0 0 0 0 0 0 0 0 0 0 0 0 0 0 10 9 13 14 14 8 10 12 18 25 27 31 28 36 71 104 82 73 91 145 169 156 122 116 109 105 107 109 120 125 126 153 176 173 127 64 64 73 58 31 22 21 24 29 23 16 11 8 12 17 14 9 2 0 0 0 0 0 0 0 0 0 0 0 0 0 0 0 0 0 0 0 0 0 0 0 0 0 0 0 0 0 0 0 0 0 0 0 0 0 0 0 0 0 0 0 0 0 0 
0 0 0 0 0 0 0 0 0 0 0 0 0 0 0 0 0 0 0 0 0 0 0 0 0 0 0 0 0 6 4 14 13 13 11 10 10 17 25 32 34 29 27 50 66 71 75 89 126 165 159 145 132 122 121 120 120 130 142 148 167 179 170 108 83 78 63 52 35 22 17 23 28 19 9 10 10 12 16 13 8 1 0 0 0 0 0 0 0 0 0 0 0 0 0 0 0 0 0 0 0 0 0 0 0 0 0 0 0 0 0 0 0 0 0 0 0 0 0 0 0 0 0 0 0 0 0 0 
