P2
128 99
212
0 0 0 0 0 0 0 0 0 0 0 0 0 0 0 0 0 0 0 0 0 0 0 0 0 0 0 0 0 0 0 0 0 0 0 0 1 1 1 0 0 0 0 0 0 0 0 0 0 0 0 0 0 0 0 0 0 0 0 0 0 0 0 0 0 0 0 0 0 0 0 0 0 0 0 0 0 0 0 0 0 0 0 0 0 0 0 0 1 1 1 0 0 0 0 0 1 0 0 0 0 0 0 0 0 0 0 0 0 0 0 0 0 0 0 0 0 0 0 0 0 0 0 0 0 0 0 0 
0 0 0 0 0 0 0 0 0 0 0 0 0 0 0 0 0 0 0 0 0 0 0 0 0 0 0 0 0 0 0 0 0 0 0 0 1 1 1 0 0 0 0 0 0 0 0 0 0 0 0 0 0 0 0 0 0 0 0 0 0 0 0 0 0 0 0 0 0 0 0 0 0 0 0 0 0 0 0 0 0 0 0 0 0 0 0 0 1 1 1 0 0 0 0 0 1 0 0 0 0 0 0 0 0 0 0 0 0 0 0 0 0 0 0 0 0 0 0 0 0 0 0 0 0 0 0 0 
0 0 0 0 0 0 0 0 0 0 0 0 0 0 0 0 0 0 0 0 0 0 0 0 0 0 0 0 0 0 0 0 0 0 0 0 1 1 1 0 0 0 0 0 0 0 0 0 0 0 1 2 2 3 1 0 0 0 0 0 0 0 0 0 0 0 0 0 0 0 0 0 0 0 0 0 0 0 0 0 0 0 0 0 0 0 0 0 1 1 1 0 0 0 0 0 1 0 0 0 0 0 0 0 0 0 0 0 0 0 0 0 0 0 0 0 0 0 0 0 0 0 0 0 0 0 0 0 
0 0 0 0 0 0 0 0 0 0 0 0 0 0 0 0 0 0 0 0 0 0 0 0 0 0 0 0 0 0 0 0 0 0 0 0 1 1 1 0 0 0 0 1 6 13 17 18 18 19 21 25 28 28 25 21 18 16 14 12 4 0 0 0 0 0 0 0 0 0 0 0 0 0 0 0 0 0 0 0 0 0 0 0 0 0 0 0 1 1 1 0 0 0 0 0 1 0 0 0 0 0 0 0 0 0 0 0 0 0 0 0 0 0 0 0 0 0 0 0 0 0 0 0 0 0 0 0 
0 0 0 0 0 0 0 0 0 0 0 0 0 0 0 0 0 0 0 0 0 0 0 0 0 0 0 0 0 0 0 0 0 0 0 0 1 1 1 0 5 13 19 23 24 33 53 78 100 121 137 148 153 154 150 140 124 103 79 54 33 22 17 11 2 0 0 0 0 0 0 0 0 0 0 0 0 0 0 0 0 0 0 0 0 0 0 0 1 1 1 0 0 0 0 0 1 0 0 0 0 0 0 0 0 0 0 0 0 0 0 0 0 0 0 0 0 0 0 0 0 0 0 0 0 0 0 0 
0 0 0 0 0 0 0 0 0 0 0 0 0 0 0 0 0 0 0 0 0 0 0 0 0 0 0 0 0 0 0 0 0 0 0 0 0 1 10 16 23 25 35 67 111 149 171 181 186 189 190 189 188 187 188 188 188 185 179 169 150 118 79 44 24 16 11 1 0 0 0 0 0 0 0 0 0 0 0 0 0 0 0 0 0 0 0 0 1 1 1 0 0 0 0 0 1 0 0 0 0 0 0 0 0 0 0 0 0 0 0 0 0 0 0 0 0 0 0 0 0 0 0 0 0 0 0 0 
0 0 0 0 0 0 0 0 0 0 0 0 0 0 0 0 0 0 0 0 0 0 0 0 0 0 0 0 0 0 0 0 0 0 0 0 9 22 24 26 52 103 151 178 188 190 191 192 194 196 199 200 200 199 200 199 198 195 192 189 188 183 174 156 122 76 39 19 13 2 0 0 0 0 0 0 0 0 0 0 0 0 0 0 0 0 0 0 1 1 1 0 0 0 0 0 1 0 0 0 0 0 0 0 0 0 0 0 0 0 0 0 0 0 0 0 0 0 0 0 0 0 0 0 0 0 0 0 
0 0 0 0 0 0 0 0 0 0 0 0 0 0 0 0 0 0 0 0 0 0 0 0 0 0 0 0 0 0 0 0 0 0 8 24 25 27 63 124 168 185 189 191 194 197 195 189 183 179 182 189 188 175 174 186 199 204 202 198 196 192 190 189 185 173 148 100 49 22 14 1 0 0 0 0 0 0 0 0 0 0 0 0 0 0 0 0 1 1 1 0 0 0 0 0 1 0 0 0 0 0 0 0 0 0 0 0 0 0 0 0 0 0 0 0 0 0 0 0 0 0 0 0 0 0 0 0 
0 0 0 0 0 0 0 0 0 0 0 0 0 0 0 0 0 0 0 0 0 0 0 0 0 0 0 0 0 0 0 0 5 27 25 23 58 129 172 184 186 190 194 197 195 186 177 166 157 154 155 157 155 148 149 154 162 180 199 207 205 201 197 194 191 190 188 180 156 102 45 24 11 0 0 0 0 0 0 0 0 0 0 0 0 0 0 0 1 1 1 0 0 0 0 0 1 0 0 0 0 0 0 0 0 0 0 0 0 0 0 0 0 0 0 0 0 0 0 0 0 0 0 0 0 0 0 0 
0 0 0 0 0 0 0 0 0 0 0 0 0 0 0 0 0 0 0 0 0 0 0 0 0 0 0 0 0 0 0 24 26 21 41 112 169 183 184 188 192 197 194 179 165 160 153 143 139 137 141 147 147 143 147 149 152 154 167 186 204 208 207 204 199 195 191 190 189 180 148 80 31 19 2 0 0 0 0 0 0 0 0 0 0 0 0 0 1 1 1 0 0 0 0 0 1 0 0 0 0 0 0 0 0 0 0 0 0 0 0 0 0 0 0 0 0 0 0 0 0 0 0 0 0 0 0 0 
0 0 0 0 0 0 0 0 0 0 0 0 0 0 0 0 0 0 0 0 0 0 0 0 0 0 0 0 0 10 28 23 25 83 158 181 184 187 191 197 200 189 171 165 160 153 147 140 136 134 135 140 139 138 142 146 146 145 149 156 171 192 205 210 209 205 200 196 192 191 189 174 120 46 22 6 0 0 0 0 0 0 0 0 0 0 0 0 1 1 1 0 0 0 0 0 1 0 0 0 0 0 0 0 0 0 0 0 0 0 0 0 0 0 0 0 0 0 0 0 0 0 0 0 0 0 0 0 
0 0 0 0 0 0 0 0 0 0 0 0 0 0 0 0 0 0 0 0 0 0 0 0 0 0 0 0 22 25 18 48 132 176 181 186 193 197 201 196 181 171 164 158 155 151 148 144 143 139 132 134 132 131 141 147 147 146 148 152 159 170 185 197 207 211 209 204 201 197 194 191 184 150 68 24 11 0 0 0 0 0 0 0 0 0 0 0 1 1 1 0 0 0 0 0 1 0 0 0 0 0 0 0 0 0 0 0 0 0 0 0 0 0 0 0 0 0 0 0 0 0 0 0 0 0 0 0 
0 0 0 0 0 0 0 0 0 0 0 0 0 0 0 0 0 0 0 0 0 0 0 0 0 0 5 26 21 20 76 158 179 185 191 197 202 202 189 176 170 165 159 157 151 149 148 144 145 138 130 129 127 126 137 146 146 147 149 150 152 161 171 180 189 199 208 212 209 204 199 195 191 184 161 85 25 12 0 0 0 0 0 0 0 0 0 0 1 1 1 0 0 0 0 0 1 0 0 0 0 0 0 0 0 0 0 0 0 0 0 0 0 0 0 0 0 0 0 0 0 0 0 0 0 0 0 0 
0 0 0 0 0 0 0 0 0 0 0 0 0 0 0 0 0 0 0 0 0 0 0 0 0 10 25 18 26 101 167 179 189 196 201 204 198 183 173 168 165 160 154 150 147 148 149 149 140 134 124 123 120 122 126 137 147 150 152 153 153 155 162 169 175 181 189 200 207 211 207 201 195 189 185 167 94 26 13 0 0 0 0 0 0 0 0 0 1 1 1 0 0 0 0 0 1 1 0 0 0 0 0 0 0 0 0 0 0 0 0 0 0 0 0 0 0 0 0 0 0 0 0 0 0 0 0 0 
0 0 0 0 0 0 0 0 0 0 0 0 0 0 0 0 0 0 0 0 0 0 0 0 14 23 16 34 118 169 180 192 199 204 201 189 177 171 169 163 159 157 157 154 149 145 137 130 129 125 121 120 118 122 123 123 133 144 148 147 148 149 152 158 163 169 173 178 186 197 206 208 204 197 189 186 171 105 30 13 0 0 0 0 0 0 0 0 1 2 1 0 0 0 0 0 2 1 0 0 0 0 0 0 0 0 0 0 0 0 0 0 0 0 0 0 0 0 0 0 0 0 0 0 0 0 0 0 
0 0 0 0 0 0 0 0 0 0 0 0 0 0 0 0 0 0 0 0 0 0 3 19 20 15 45 129 167 182 194 200 204 193 179 171 168 167 163 161 158 151 145 138 133 125 123 124 121 121 121 118 116 120 123 123 122 126 135 143 144 144 146 151 156 158 162 165 168 175 186 199 205 204 197 189 185 173 117 36 12 0 0 0 0 0 0 0 1 1 1 0 0 0 0 0 2 1 0 0 0 0 0 0 0 0 0 0 0 0 0 0 0 0 0 0 0 0 0 0 0 0 0 0 0 0 0 0 
0 0 0 0 0 0 0 0 0 0 0 0 0 0 0 0 0 0 0 0 0 5 17 16 17 57 139 166 183 195 203 202 183 172 167 165 162 162 161 154 149 142 138 134 124 119 118 114 116 115 117 113 111 117 119 121 122 123 124 127 130 132 135 142 148 151 153 157 162 165 168 175 190 202 203 197 191 186 172 125 39 9 0 0 0 0 0 0 1 1 1 0 0 0 0 1 2 1 0 0 0 0 0 0 0 0 0 0 0 0 0 0 0 0 0 0 0 0 0 0 0 0 0 0 0 0 0 0 
0 0 0 0 0 0 0 0 0 0 0 0 0 0 0 0 0 0 0 0 7 16 14 18 71 147 166 183 197 204 196 173 164 163 164 159 154 149 146 144 144 140 133 125 121 119 115 117 119 118 117 110 110 121 121 122 123 123 123 125 127 128 130 133 136 141 144 147 149 154 157 160 167 181 195 201 197 192 185 173 130 36 6 0 0 0 0 0 1 1 1 0 0 0 0 0 2 1 0 0 0 0 0 0 0 0 0 0 0 0 0 0 0 0 0 0 0 0 0 0 0 0 0 0 0 0 0 0 
0 0 0 0 0 0 0 0 0 0 0 0 0 0 0 0 0 0 0 6 15 13 19 79 150 167 181 195 203 192 168 160 159 158 154 149 143 141 140 136 130 125 121 119 121 120 118 120 119 116 117 110 111 120 119 120 122 122 122 123 125 126 127 128 126 127 132 140 145 146 145 147 154 161 175 191 200 198 193 183 171 122 29 3 0 0 0 0 1 2 1 0 0 0 0 1 2 1 0 0 0 0 0 0 0 0 0 0 0 0 0 0 0 0 0 0 0 0 0 0 0 0 0 0 0 0 0 0 
0 0 0 0 0 0 0 0 0 0 0 0 0 0 0 0 0 0 5 16 13 20 83 151 165 178 192 200 186 164 159 155 154 152 146 139 135 135 129 123 121 119 120 122 117 112 112 113 110 110 106 102 104 114 116 117 119 120 121 120 119 119 119 122 125 123 126 131 140 144 142 142 143 149 157 170 186 200 198 190 179 166 107 20 2 0 0 0 1 2 1 0 0 0 0 1 2 1 0 0 0 0 0 0 0 0 0 0 0 0 0 0 0 0 0 0 0 0 0 0 0 0 0 0 0 0 0 0 
0 0 0 0 0 0 0 0 0 0 0 0 0 0 0 0 0 2 15 13 19 81 147 161 174 189 200 184 163 156 153 150 146 144 137 130 129 127 120 120 120 119 115 109 108 108 108 107 109 106 98 98 102 112 115 116 117 117 117 119 122 120 117 115 116 121 123 128 132 135 138 139 141 141 150 155 166 182 200 195 187 175 157 83 11 0 0 0 1 2 1 0 0 0 0 1 2 1 0 0 0 0 0 0 0 0 0 0 0 0 0 0 0 0 0 0 0 0 0 0 0 0 0 0 0 0 0 0 
0 0 0 0 0 0 0 0 0 0 0 0 0 0 0 0 0 11 12 17 73 141 156 169 184 197 183 161 154 151 147 143 142 138 126 127 124 118 119 121 115 110 109 110 109 109 107 106 108 100 99 102 105 108 113 114 115 113 113 115 116 115 117 117 113 114 120 124 128 130 131 129 133 137 141 149 154 162 185 200 195 184 169 141 53 4 0 0 1 1 1 0 0 0 0 1 2 1 0 0 0 0 0 0 0 0 0 0 0 0 0 0 0 0 0 0 0 0 0 0 0 0 0 0 0 0 0 0 
0 0 0 0 0 0 0 0 0 0 0 0 0 0 0 0 6 12 14 60 133 150 165 181 194 183 159 152 148 144 140 137 133 125 125 123 120 122 122 115 111 110 111 111 109 106 106 106 105 103 104 107 108 111 110 109 112 112 110 107 108 110 111 111 111 110 112 121 122 126 128 127 126 131 134 140 147 151 157 187 200 192 178 160 116 25 1 0 1 2 1 0 0 0 0 1 2 1 0 0 0 0 0 0 0 0 0 0 0 0 0 0 0 0 0 0 0 0 0 0 0 0 0 0 0 0 0 0 
0 0 0 0 0 0 0 0 0 0 0 0 0 0 0 2 12 13 47 122 145 159 175 190 185 159 149 146 143 141 135 130 125 127 125 122 121 119 114 110 106 102 99 100 102 104 106 108 107 105 110 108 107 108 105 103 106 107 108 108 108 107 107 106 106 109 110 111 117 121 122 123 121 126 132 135 145 146 147 160 192 197 186 171 147 79 7 0 1 2 1 0 0 0 0 1 2 1 0 0 0 0 0 0 0 0 0 0 0 0 0 0 0 0 0 0 0 0 0 0 0 0 0 0 0 0 0 0 
0 0 0 0 0 0 0 0 0 0 0 0 0 0 0 7 10 25 102 136 152 168 185 185 164 148 144 141 140 137 133 123 124 124 121 118 117 113 108 103 98 96 99 102 101 102 105 106 104 103 108 104 100 102 100 100 99 100 101 105 107 107 108 106 106 106 109 111 114 115 118 120 120 120 128 135 141 143 143 145 170 193 190 177 160 122 30 1 1 2 1 0 0 0 0 1 2 1 0 0 0 0 0 0 0 0 0 0 0 0 0 0 0 0 0 0 0 0 0 0 0 0 0 0 0 0 0 0 
0 0 0 0 0 0 0 0 0 0 0 0 0 0 2 9 13 74 129 144 160 177 180 170 148 139 138 138 138 137 127 122 122 122 120 114 112 108 102 100 99 99 101 101 99 99 101 100 98 99 106 104 100 104 99 99 99 99 99 100 101 105 106 106 104 106 106 108 112 112 112 120 121 119 123 132 138 138 138 137 148 178 190 182 166 142 68 4 1 1 1 0 0 0 0 1 2 1 0 0 0 0 0 0 0 0 0 0 0 0 0 0 0 0 0 0 0 0 0 0 0 0 0 0 0 0 0 0 
0 0 0 0 0 0 0 0 0 0 0 0 0 0 6 9 40 113 136 151 170 177 167 157 138 134 135 137 138 133 124 122 120 119 114 109 106 103 102 98 98 99 99 98 98 99 101 100 97 100 109 110 105 105 97 99 103 102 101 99 97 100 103 104 104 104 104 104 109 111 108 114 121 120 120 130 140 136 136 131 135 161 180 183 172 152 106 17 1 1 1 0 0 0 0 1 2 1 0 0 0 0 0 0 0 0 0 0 0 0 0 0 0 0 0 0 0 0 0 0 0 0 0 0 0 0 0 0 
0 0 0 0 0 0 0 0 0 0 0 0 0 0 7 15 83 125 143 159 175 164 161 143 131 132 133 136 135 127 120 117 115 115 112 107 105 103 99 98 99 100 101 101 100 103 104 103 104 104 108 112 112 106 99 100 102 105 105 102 100 100 100 101 105 108 106 105 106 111 112 111 118 121 124 126 137 138 132 129 129 153 170 180 175 158 128 39 3 1 1 0 0 0 0 1 2 1 0 0 0 0 0 0 0 0 0 0 0 0 0 0 0 0 0 0 0 0 0 0 0 0 0 0 0 0 0 0 
0 0 0 0 0 0 0 0 0 0 0 0 0 3 7 37 110 133 148 167 170 159 153 133 130 129 131 136 131 121 120 118 114 114 109 105 104 101 100 100 101 99 99 100 100 104 108 109 110 108 107 110 114 103 99 100 103 105 104 105 103 102 101 101 103 108 108 107 107 107 111 111 114 118 123 128 134 136 128 125 125 147 163 179 176 163 138 61 4 2 1 1 0 0 0 1 2 1 0 0 0 0 0 0 0 0 0 0 0 0 0 0 0 0 0 0 0 0 0 0 0 0 0 0 0 0 0 0 
0 0 0 0 0 0 0 0 0 0 0 0 0 4 9 68 122 137 155 171 157 151 143 129 129 125 129 130 123 121 121 117 115 111 104 104 105 103 104 102 101 100 100 102 105 108 109 109 109 106 102 101 107 98 94 92 94 97 102 104 104 106 104 103 104 106 110 110 110 108 109 114 115 114 120 130 132 128 126 122 120 141 157 175 177 164 145 81 7 2 1 1 0 0 0 1 2 1 0 0 0 0 0 0 0 0 0 0 0 0 0 0 0 0 0 0 0 0 0 0 0 0 0 0 0 0 0 0 
0 0 0 0 0 0 0 0 0 0 0 0 0 6 17 93 127 144 162 164 144 143 137 125 123 123 126 126 117 120 121 118 116 108 106 107 108 107 104 103 103 98 98 102 107 106 101 103 104 101 99 99 103 97 96 94 95 95 96 97 100 105 108 109 106 105 109 112 112 110 109 114 118 114 116 126 129 125 123 120 118 134 151 171 177 165 149 98 11 2 1 1 0 0 0 1 2 1 0 0 0 0 0 0 0 0 0 0 0 0 0 0 0 0 0 0 0 0 0 0 0 0 0 0 0 0 0 0 
0 0 0 0 0 0 0 0 0 0 0 0 1 6 33 111 132 150 163 148 134 137 134 124 118 119 120 122 115 119 119 117 114 111 108 111 109 104 103 100 98 99 99 98 98 97 98 97 98 98 97 96 101 97 95 93 94 95 96 99 101 102 103 108 112 108 110 113 114 112 111 113 118 117 116 122 124 123 120 114 116 133 154 169 178 169 152 113 17 2 1 1 0 0 0 1 2 1 0 0 0 0 0 0 0 0 0 0 0 0 0 0 0 0 0 0 0 0 0 0 0 0 0 0 0 0 0 0 
0 0 0 0 0 0 0 0 0 0 0 0 2 6 49 119 136 155 156 138 130 133 134 122 114 116 117 119 115 116 116 115 114 112 110 113 108 103 98 95 97 97 95 91 90 96 97 94 96 98 99 101 101 99 98 97 97 97 98 99 96 96 97 102 108 115 113 115 116 115 113 112 116 118 118 121 120 116 117 113 111 130 152 164 179 172 156 126 27 2 1 0 0 0 0 1 2 1 0 0 0 0 0 0 0 0 0 0 0 1 0 0 0 0 0 0 0 0 0 0 0 0 0 0 0 0 0 0 
0 0 0 0 0 0 0 0 0 0 0 0 2 7 63 124 143 159 150 134 127 132 135 120 111 111 114 118 114 110 116 115 114 115 114 113 108 102 97 95 95 94 90 90 90 91 96 96 95 97 102 103 101 97 94 93 94 98 98 94 96 96 97 97 106 112 110 112 118 117 116 116 115 118 117 121 116 108 114 114 112 131 152 165 180 176 161 137 38 3 1 0 0 0 0 1 2 1 0 0 0 0 0 0 0 0 0 0 0 0 0 0 0 0 0 0 0 0 0 0 0 0 0 0 0 0 0 0 
0 0 0 0 0 0 0 0 0 0 0 0 3 9 72 128 147 157 148 138 129 133 133 121 113 109 112 116 107 108 115 115 116 116 112 113 107 105 107 98 96 93 88 89 90 91 91 94 95 96 100 101 98 93 90 89 84 88 93 95 95 98 98 96 96 106 110 118 124 122 118 119 118 118 117 121 112 107 111 111 111 136 153 165 178 179 165 146 50 4 2 1 0 0 0 1 2 1 0 0 0 0 0 0 0 0 0 0 0 0 0 0 0 0 0 0 0 0 0 0 0 0 0 0 0 0 0 0 
0 0 0 0 0 0 0 0 0 0 0 0 3 11 80 132 152 159 149 141 132 133 135 123 114 108 111 113 103 107 117 117 117 115 112 114 113 111 112 112 109 103 96 96 93 94 95 95 92 94 98 100 99 93 91 87 83 81 88 94 95 100 95 93 100 111 115 123 124 124 123 122 122 122 119 124 115 109 107 108 115 138 151 162 180 180 168 153 62 5 1 0 0 0 0 1 2 1 0 0 0 0 0 0 0 0 0 0 0 0 0 0 0 0 0 0 0 0 0 0 0 0 0 0 0 0 0 0 
0 0 0 0 0 0 0 0 0 0 0 0 4 12 85 136 155 163 152 145 136 135 136 125 117 108 110 111 101 105 120 121 118 116 121 120 111 99 95 95 94 94 99 101 98 98 97 96 96 95 98 99 103 96 93 90 87 81 88 92 95 96 99 104 100 98 98 98 103 108 113 116 125 131 129 129 124 114 107 111 122 137 149 158 178 183 171 155 77 7 1 1 0 0 0 1 2 1 0 0 0 0 0 0 0 0 0 0 0 0 0 0 0 0 0 0 0 0 0 0 0 0 0 0 0 0 0 0 
0 0 0 0 0 0 0 0 0 0 0 0 4 13 88 139 158 164 150 145 141 140 138 128 120 111 111 104 101 110 125 121 122 125 118 110 98 86 81 84 84 83 84 89 96 105 102 97 95 95 97 98 107 101 94 92 87 82 87 90 95 103 100 94 90 88 92 92 92 96 99 99 108 125 139 137 136 124 111 119 127 136 144 152 173 185 174 158 91 9 2 1 0 0 0 1 2 1 0 0 0 0 0 0 0 0 0 0 0 0 0 0 0 0 0 0 0 0 0 0 0 0 0 0 0 0 0 0 
0 0 0 0 0 0 0 0 0 0 0 0 6 13 92 143 161 162 151 146 141 140 140 136 128 118 114 102 104 119 127 123 128 116 103 93 86 82 81 84 82 81 84 86 89 96 103 103 97 98 98 98 105 105 98 95 89 85 90 93 102 92 90 88 87 93 97 96 98 102 102 97 98 111 135 149 144 136 123 124 130 132 138 146 161 183 176 161 104 11 2 1 0 0 0 1 2 1 0 0 0 0 0 0 0 0 0 0 0 0 0 0 0 0 0 0 0 0 0 0 0 0 0 0 0 0 0 0 
0 0 0 0 0 0 0 0 0 0 0 0 7 14 94 146 161 163 149 143 138 137 136 136 132 123 120 112 109 125 132 131 111 97 93 89 85 84 88 90 88 85 84 87 91 95 95 100 97 98 99 101 108 111 109 102 96 92 88 100 95 87 87 85 88 93 97 99 100 104 107 105 106 113 130 152 151 142 133 130 127 127 131 139 151 176 177 163 117 17 2 1 0 0 0 1 2 1 0 0 0 0 0 0 0 0 0 0 0 0 0 0 0 0 0 0 0 0 0 0 0 0 0 0 0 0 0 0 
0 0 0 0 0 0 0 0 0 0 0 0 7 14 96 147 164 164 144 138 135 136 130 130 130 127 124 121 128 129 137 125 100 93 93 89 86 87 88 87 87 88 88 89 89 91 97 99 100 100 103 108 119 118 122 104 96 92 91 105 90 84 80 84 90 94 99 102 102 105 109 107 111 123 131 136 144 140 140 132 125 122 126 132 142 168 177 163 127 25 2 1 0 0 0 1 2 1 0 0 0 0 0 0 0 0 0 0 0 0 0 0 0 0 0 0 0 0 0 0 0 0 0 0 0 0 0 0 
0 0 0 0 0 0 0 0 0 0 0 0 7 16 99 150 166 165 136 132 133 132 129 126 126 127 124 119 132 137 143 124 110 103 101 95 89 88 85 85 87 88 88 88 89 90 96 101 100 100 105 113 124 117 125 108 98 95 99 102 86 79 82 89 93 96 100 103 104 106 108 108 114 119 120 123 129 138 139 132 121 119 122 122 132 160 175 163 133 35 2 1 0 0 0 1 2 1 0 0 0 0 0 0 0 0 0 0 0 0 0 0 0 0 0 0 0 0 0 0 0 0 0 0 0 0 0 0 
0 0 0 0 0 0 0 0 0 0 0 0 8 16 99 150 167 166 132 131 132 129 124 120 120 119 120 119 130 133 136 126 119 113 106 98 95 90 87 87 89 92 91 89 90 92 94 99 95 95 101 112 116 112 116 113 102 98 100 94 82 82 88 92 92 94 97 100 100 103 105 107 111 112 116 118 122 135 137 132 117 114 115 114 121 149 172 164 137 44 3 1 0 0 0 1 2 1 0 0 0 0 0 0 0 0 0 0 0 0 0 0 0 0 0 0 0 0 0 0 0 0 0 0 0 0 0 0 
0 0 0 0 0 0 0 0 0 0 0 0 8 17 102 153 169 164 129 130 128 124 117 112 112 115 119 119 123 125 124 116 108 108 102 95 91 90 89 85 86 88 90 92 91 91 92 94 96 95 100 102 103 110 109 113 107 103 100 88 84 87 90 90 89 91 92 95 98 100 100 104 111 112 116 113 123 135 136 132 112 110 110 111 114 137 167 163 140 52 4 1 0 0 0 1 2 1 0 0 0 0 0 0 0 0 0 0 0 0 0 0 0 0 0 0 0 0 0 0 0 0 0 0 0 0 0 0 
0 0 0 0 0 0 0 0 0 0 0 0 8 17 102 154 170 159 124 124 119 116 108 104 105 110 115 123 120 117 117 113 102 104 98 91 86 87 90 88 87 89 89 91 89 89 88 90 96 99 105 105 100 102 103 113 108 108 105 88 88 89 90 84 81 87 93 95 97 99 99 102 107 110 111 111 123 134 133 133 116 108 105 106 107 125 154 161 143 58 4 1 0 0 0 1 2 1 0 0 0 0 0 0 0 0 0 0 0 0 0 0 0 0 0 0 0 0 0 0 0 0 0 0 0 0 0 0 
0 0 0 0 0 0 0 0 0 0 0 0 8 17 100 154 170 153 117 116 112 109 101 98 100 103 110 121 121 117 112 111 101 100 95 87 85 84 86 86 87 89 88 88 84 83 87 86 86 100 117 119 108 97 98 93 113 103 98 92 93 91 90 78 80 86 90 95 97 97 97 100 103 109 108 111 123 130 129 135 123 108 105 107 108 120 135 152 144 63 4 1 0 0 0 1 2 1 0 0 0 0 0 0 0 0 0 0 0 0 0 0 0 0 0 0 0 0 0 0 0 0 0 0 0 0 0 0 
0 0 0 0 0 0 0 0 0 0 0 0 8 17 98 153 169 145 115 111 105 104 99 99 99 98 112 118 117 115 110 110 104 98 94 89 87 86 88 90 86 84 86 87 85 87 89 85 82 97 112 119 99 88 92 81 101 113 92 96 93 90 83 79 84 87 91 95 96 95 95 97 100 105 105 112 123 130 136 136 127 109 104 105 109 118 131 151 144 65 4 1 0 0 0 1 2 1 0 0 0 0 0 0 0 0 0 0 0 0 0 0 0 0 0 0 0 0 0 0 0 0 0 0 0 0 0 0 
0 0 0 0 0 0 0 0 0 0 0 0 7 16 93 151 167 136 114 107 106 105 101 99 101 101 114 114 115 115 111 110 104 98 94 90 86 88 88 90 88 84 81 83 84 87 89 79 80 99 114 107 84 79 85 76 84 119 87 94 92 87 81 84 86 88 92 94 97 96 94 96 101 103 103 117 131 138 135 133 127 108 104 102 108 116 131 154 139 62 4 1 0 0 0 1 2 1 0 0 0 0 0 0 0 0 0 0 0 0 0 0 0 0 0 0 0 0 0 0 0 0 0 0 0 0 0 0 
0 0 0 0 0 0 0 0 0 0 0 0 6 15 84 149 164 131 112 107 105 104 101 98 100 102 113 112 112 116 116 111 103 102 95 88 87 89 90 88 89 85 79 77 79 83 86 79 84 102 110 91 82 79 85 75 77 111 103 90 88 83 81 87 86 88 92 96 98 94 93 97 103 99 101 118 138 133 129 132 126 106 103 100 106 114 131 153 134 57 4 1 0 0 0 1 2 1 0 0 0 0 0 0 0 0 0 0 0 0 0 0 0 0 0 0 0 0 0 0 0 0 0 0 0 0 0 0 
0 0 0 0 0 0 0 0 0 0 0 0 4 15 78 145 163 134 113 107 103 102 103 97 97 97 111 113 111 117 119 113 104 103 95 93 91 93 93 93 89 85 81 77 78 79 83 72 85 105 104 89 85 88 92 79 76 90 112 93 87 80 81 88 87 90 93 97 94 89 92 100 101 95 101 116 132 126 124 130 125 104 104 101 104 112 133 149 128 51 3 1 0 0 0 1 2 1 0 0 0 0 0 0 0 0 0 0 0 0 0 0 0 0 0 0 0 0 0 0 0 0 0 0 0 0 0 0 
0 0 0 0 0 0 0 0 0 0 0 0 2 14 71 141 159 139 115 107 102 100 102 100 97 93 107 113 113 119 121 112 103 103 97 93 93 93 96 96 90 83 77 76 75 77 77 75 91 106 92 86 84 92 100 85 80 78 108 102 97 88 83 87 88 90 93 94 90 88 92 101 96 92 100 114 123 122 121 127 124 103 104 101 101 110 136 144 120 45 3 1 0 0 0 1 2 1 0 0 0 0 0 0 0 0 0 0 0 0 0 0 0 0 0 0 0 0 0 0 0 0 0 0 0 0 0 0 
0 0 0 0 0 0 0 0 0 6 5 0 0 12 62 133 155 140 116 105 100 100 102 101 97 91 102 112 116 120 122 110 103 102 99 93 92 93 95 95 91 87 80 77 82 92 88 85 94 97 88 83 83 97 99 88 83 81 92 110 112 105 99 94 91 92 97 96 91 90 93 98 92 92 102 114 118 123 125 127 122 103 100 98 99 111 138 138 109 39 3 1 0 0 0 1 2 1 0 0 0 0 0 0 0 0 0 0 0 0 0 0 0 0 0 0 0 0 0 0 0 0 0 0 0 0 0 0 
0 0 0 0 0 0 0 0 0 3 9 3 1 9 52 125 152 139 115 105 97 99 100 102 97 89 102 115 117 114 117 112 102 99 100 93 91 93 92 94 98 97 92 84 86 89 94 87 99 91 87 82 83 95 95 91 91 86 89 118 120 122 111 97 92 90 95 98 92 87 89 93 91 91 101 115 121 124 126 128 128 107 96 96 99 112 139 133 99 34 3 1 0 0 0 0 2 1 0 0 0 0 0 0 0 0 0 0 0 0 0 0 0 0 0 0 0 0 0 0 0 0 0 0 0 0 0 0 
0 0 0 0 0 0 0 0 0 2 4 9 3 7 41 115 146 138 112 102 95 96 101 103 98 90 102 116 117 112 115 114 103 100 102 97 92 94 93 96 98 98 92 91 99 107 102 94 105 83 85 80 83 97 93 87 92 91 96 122 124 118 106 106 107 106 104 100 93 88 88 95 98 101 106 120 126 121 125 134 134 116 96 96 99 118 140 127 91 27 2 1 0 0 0 0 2 1 0 0 0 0 0 0 0 0 0 0 0 0 0 0 0 0 0 0 0 0 0 0 0 0 0 0 0 0 0 0 
0 0 0 0 0 0 0 0 0 0 3 10 4 7 32 101 141 141 112 102 100 98 101 101 100 92 103 115 116 117 124 121 115 104 100 97 91 93 101 102 102 103 100 99 92 97 93 106 109 81 81 81 83 102 93 87 88 87 90 119 134 115 104 104 111 122 135 130 122 121 126 123 123 125 133 135 125 117 126 136 137 125 103 97 106 128 141 119 84 19 2 1 0 7 4 0 2 1 0 0 0 0 0 0 0 0 0 0 0 0 0 0 0 0 0 0 0 0 0 0 0 0 0 0 0 0 0 0 
0 0 0 0 0 0 0 0 0 0 3 10 6 7 25 90 136 145 117 108 104 96 97 101 100 99 107 113 117 119 124 120 122 130 120 112 108 110 116 113 113 107 89 86 97 100 99 106 107 79 80 84 85 100 91 80 83 84 91 124 132 111 103 104 109 122 148 151 141 144 151 149 143 130 129 134 134 126 126 136 137 127 118 110 107 137 135 114 77 13 4 3 6 3 1 0 2 1 0 0 0 0 0 0 0 0 0 0 0 0 0 0 0 0 0 0 0 0 0 0 0 0 0 0 0 0 0 0 
0 0 0 0 0 0 0 0 0 0 1 9 6 8 20 80 129 150 132 111 104 95 93 100 104 112 110 116 118 118 118 117 116 124 127 127 125 116 114 110 111 106 102 101 99 100 96 103 107 87 84 93 90 106 95 80 81 90 100 131 130 112 103 105 112 128 148 148 147 153 147 143 136 123 129 128 137 142 137 134 136 130 124 127 141 139 120 112 67 10 4 3 3 2 0 0 2 1 0 0 0 0 0 0 0 0 0 0 0 0 0 0 0 0 0 0 0 0 0 0 0 0 0 0 0 0 0 0 
0 0 0 0 0 0 0 0 0 0 1 7 6 9 14 67 120 147 147 115 105 95 96 109 117 114 117 121 120 119 123 128 130 131 127 127 124 119 118 115 109 105 98 95 95 95 99 102 110 99 88 89 92 107 95 84 90 97 106 118 118 113 109 113 120 132 144 142 144 148 140 140 144 145 144 146 150 154 158 152 146 146 142 150 160 137 108 106 52 8 4 4 3 1 0 0 2 1 0 0 0 0 0 0 0 0 0 0 0 0 0 0 0 0 0 0 0 0 0 0 0 0 0 0 0 0 0 0 
0 0 0 0 0 0 0 0 0 0 0 7 8 9 12 54 112 143 151 130 112 110 115 117 124 123 125 130 127 121 133 142 148 154 153 143 140 135 125 111 99 94 93 91 90 91 98 112 110 93 94 94 87 106 93 86 88 101 107 109 115 105 110 116 121 134 148 148 153 153 148 152 152 143 134 142 141 147 157 162 168 171 168 175 177 129 120 102 32 8 6 4 2 0 0 0 2 1 0 0 0 0 0 0 0 0 0 0 0 0 0 0 0 0 0 0 0 0 0 0 0 0 0 0 0 0 0 0 
0 0 0 0 0 0 0 0 0 0 0 7 10 8 8 36 107 140 149 143 133 144 135 133 137 137 138 135 126 130 138 149 153 161 154 144 149 145 134 111 104 101 95 89 90 91 105 112 97 86 91 95 94 115 98 84 83 93 102 102 109 111 110 116 119 122 131 138 149 154 148 146 137 131 135 135 141 147 156 163 168 175 181 177 160 122 119 84 17 7 6 3 2 0 0 0 2 0 0 0 0 0 0 0 0 0 0 0 0 0 0 0 0 0 0 0 0 0 0 0 0 0 0 0 0 0 0 0 
0 0 0 0 0 0 0 0 0 0 0 4 10 7 7 12 61 126 146 145 149 167 172 157 156 151 141 135 132 136 152 155 153 156 157 146 140 143 140 118 109 108 108 97 92 92 102 110 101 89 92 100 98 114 117 92 82 87 95 103 105 103 114 116 115 115 121 131 135 132 125 129 126 125 134 144 144 145 150 159 163 165 168 163 142 121 116 91 18 6 7 4 3 1 0 0 2 0 0 0 0 0 0 0 0 0 0 0 0 0 0 0 0 0 0 0 0 0 0 0 0 0 0 0 0 0 0 0 
0 0 0 0 0 0 0 0 0 0 0 6 8 5 6 10 37 114 147 147 153 169 171 169 164 164 160 150 131 128 141 147 156 157 158 153 146 148 136 115 107 112 111 104 97 97 110 107 101 96 94 102 105 121 118 99 82 82 87 97 104 104 102 111 114 115 123 130 131 121 121 120 116 125 135 144 141 140 140 148 154 167 154 138 118 118 117 62 10 6 8 6 3 1 0 0 1 0 0 0 0 0 0 0 0 0 0 0 0 0 0 0 0 0 0 0 0 0 0 0 0 0 0 0 0 0 0 0 
0 0 0 0 0 0 0 0 0 0 0 6 6 5 4 9 22 91 142 144 145 153 156 148 162 163 159 151 139 130 130 133 146 156 158 154 149 142 126 116 110 111 114 113 101 99 112 103 99 100 99 99 93 111 120 108 85 83 92 98 105 110 106 106 101 100 117 127 127 128 130 120 126 141 147 146 141 144 139 141 144 154 132 121 123 121 107 32 7 5 7 7 2 1 0 0 1 0 0 0 0 0 0 0 0 0 0 0 0 0 0 0 0 0 0 0 0 0 0 0 0 0 0 0 0 0 0 0 
0 0 0 0 0 0 0 0 0 0 0 5 4 4 3 8 17 62 132 146 142 139 149 147 139 145 145 145 143 140 133 126 130 137 138 145 144 138 126 117 104 104 105 101 100 103 115 101 105 113 109 102 94 102 119 120 96 93 99 97 102 113 115 120 109 91 93 101 108 112 122 123 126 145 152 154 150 148 141 140 134 136 130 114 116 118 77 15 8 7 8 6 3 1 0 0 1 0 0 0 0 0 0 0 0 0 0 0 0 0 0 0 0 0 0 0 0 0 0 0 0 0 0 0 0 0 0 0 
0 0 0 0 0 0 0 0 0 0 0 5 6 3 3 8 15 33 112 133 131 130 140 147 141 134 130 134 136 146 149 132 116 120 135 141 139 130 125 108 94 90 98 103 104 106 123 106 115 115 116 109 98 100 123 121 102 98 103 104 105 120 123 126 120 97 88 88 95 103 113 127 136 140 146 154 156 152 149 145 138 135 121 96 99 110 42 11 7 7 7 4 3 2 0 0 1 0 0 0 0 0 0 0 0 0 0 0 0 0 0 0 0 0 0 0 0 0 0 0 0 0 0 0 0 0 0 0 
0 0 0 0 0 0 0 0 0 0 0 3 6 3 2 8 14 17 82 120 120 129 136 144 137 134 131 128 131 144 149 136 117 117 133 142 142 136 115 96 87 96 102 107 107 113 123 121 120 118 126 126 112 109 134 129 113 107 114 115 110 125 127 126 120 106 88 86 95 110 117 130 130 128 138 147 155 160 172 160 143 124 107 84 91 84 21 11 7 8 7 4 2 2 0 0 1 0 0 0 0 0 0 0 0 0 0 0 0 0 0 0 0 0 0 0 0 0 0 0 0 0 0 0 0 0 0 0 
0 0 0 0 0 0 0 0 0 0 1 2 5 4 1 5 13 13 48 115 128 120 133 147 148 140 137 134 139 144 148 131 113 117 121 127 121 115 106 96 88 101 101 109 118 122 126 128 132 135 142 142 145 149 151 141 137 137 131 129 127 141 142 134 125 108 90 91 105 121 114 111 123 122 134 144 156 169 178 166 132 113 95 86 99 57 13 12 7 9 7 4 2 2 0 0 1 0 0 0 0 0 0 0 0 0 0 0 0 0 0 0 0 0 0 0 0 0 0 0 0 0 0 0 0 0 0 0 
0 0 0 0 0 0 0 0 0 0 1 2 5 4 2 4 11 14 26 99 123 112 122 131 155 154 149 142 147 146 146 137 126 125 116 115 106 94 91 104 105 108 110 117 127 136 137 138 148 150 150 152 161 170 173 163 155 149 142 141 145 158 162 150 132 121 119 119 120 123 109 110 120 122 125 144 154 172 168 159 126 102 84 87 97 32 11 12 6 7 7 3 2 3 0 0 1 0 0 0 0 0 0 0 0 0 0 0 0 0 0 0 0 0 0 0 0 0 0 0 0 0 0 0 0 0 0 0 
0 0 0 0 0 0 0 0 0 0 1 3 6 4 3 5 10 13 15 68 116 116 108 118 147 161 159 151 146 143 146 142 131 130 123 119 110 101 100 108 134 130 127 127 133 145 150 149 150 141 139 143 144 145 149 152 149 144 135 135 141 160 168 164 147 142 141 137 143 118 102 103 112 117 113 140 152 172 158 144 124 111 97 98 80 19 9 9 5 6 7 4 4 3 1 0 1 0 0 0 0 0 0 0 0 0 0 0 0 0 0 0 0 0 0 0 0 0 0 0 0 0 0 0 0 0 0 0 
0 0 0 0 0 0 0 0 0 0 1 4 6 3 2 4 9 10 13 41 93 113 111 112 134 153 162 163 147 143 141 144 137 130 120 118 117 118 122 128 135 152 157 149 149 149 152 156 149 146 140 145 143 148 145 144 146 148 138 140 144 154 166 165 167 161 152 157 146 112 96 95 105 115 119 138 156 170 150 126 108 100 109 97 65 16 8 9 6 5 6 5 4 2 1 0 1 0 0 0 0 0 0 0 0 0 0 0 0 0 0 0 0 0 0 0 0 0 0 0 0 0 0 0 0 0 0 0 
0 0 0 0 0 0 0 0 0 0 0 5 13 9 2 4 8 9 11 29 80 112 118 110 121 138 157 162 151 138 136 140 135 123 110 111 111 114 121 130 138 154 164 166 160 156 157 154 148 146 144 154 156 155 149 142 145 149 134 136 139 145 156 165 167 160 153 156 144 109 89 94 109 122 142 152 159 165 148 126 97 83 97 99 57 16 8 6 6 4 5 5 4 3 1 0 1 0 0 0 0 0 0 0 0 0 0 0 0 0 0 0 0 0 0 0 0 0 0 0 0 0 0 0 0 0 0 0 
0 0 0 0 0 0 0 0 0 0 0 4 12 12 9 8 8 11 13 21 65 99 115 113 113 116 143 149 160 137 127 126 131 111 101 103 106 111 115 117 127 145 161 163 165 163 164 161 156 153 152 161 161 159 153 134 136 142 128 126 132 142 146 164 169 170 163 157 142 106 92 96 107 120 157 171 174 170 151 107 88 83 96 91 39 15 5 4 6 4 4 6 5 4 2 0 1 0 0 0 0 0 0 0 0 0 0 0 0 0 0 0 0 0 0 0 0 0 0 0 0 0 0 0 0 0 0 0 
0 0 0 0 0 0 0 0 0 0 0 3 10 11 10 8 9 12 16 16 33 83 113 114 100 109 133 149 163 146 138 129 130 112 94 99 104 108 110 109 114 140 160 159 158 157 156 153 152 154 157 168 163 161 141 118 119 126 128 124 130 147 150 165 179 176 166 155 141 115 96 96 110 132 160 162 171 158 141 93 75 79 78 64 20 14 8 5 5 6 6 6 7 4 3 0 1 0 0 0 0 0 0 0 0 0 0 0 0 0 0 0 0 0 0 0 0 0 0 0 0 0 0 0 0 0 0 0 
0 0 0 0 0 0 0 0 0 0 0 2 11 11 9 9 9 10 13 15 18 50 105 110 105 105 122 148 163 164 154 140 127 123 102 93 95 94 96 105 123 140 152 155 155 150 149 145 144 140 154 154 142 158 153 129 123 127 127 121 139 158 149 166 172 173 164 162 157 126 116 120 133 146 146 144 126 109 105 77 64 86 90 36 12 9 9 7 6 7 6 8 13 6 1 0 1 0 0 0 0 0 0 0 0 0 0 0 0 0 0 0 0 0 0 0 0 0 0 0 0 0 0 0 0 0 0 0 
0 0 0 0 0 0 0 0 0 0 0 0 9 11 6 6 6 5 9 15 19 27 70 97 95 90 112 145 150 163 162 148 132 133 120 105 102 107 113 134 140 163 172 165 168 161 158 163 169 168 168 157 157 172 175 162 153 154 153 149 157 162 174 184 175 174 162 175 168 161 140 141 140 138 112 94 88 88 93 79 92 95 53 18 9 2 2 4 5 5 6 8 10 5 0 0 1 0 0 0 0 0 0 0 0 0 0 0 0 0 0 0 0 0 0 0 0 0 0 0 0 0 0 0 0 0 0 0 
0 0 0 0 0 0 0 0 0 0 0 0 3 7 5 2 2 3 4 11 18 21 38 80 86 77 92 103 99 139 144 148 141 139 127 112 117 125 132 138 162 177 181 184 188 194 182 192 188 179 176 177 176 172 171 165 163 172 175 181 187 188 199 203 192 199 184 184 140 138 147 135 102 84 75 82 80 79 84 73 69 46 29 23 12 2 0 1 2 3 5 8 8 1 0 0 1 0 0 0 0 0 0 0 0 0 0 0 0 0 0 0 0 0 0 0 0 0 0 0 0 0 0 0 0 0 0 0 
0 0 0 0 0 0 0 0 0 0 0 0 0 3 3 2 1 0 1 7 13 21 24 45 78 84 64 56 68 75 94 107 131 132 127 123 115 126 145 164 173 175 172 184 180 186 181 183 182 169 160 167 166 163 158 155 156 158 161 166 168 189 195 180 170 184 169 162 152 138 118 101 88 79 78 93 91 87 69 48 41 38 35 26 18 0 0 1 1 2 3 8 8 1 0 0 1 0 0 0 0 0 0 0 0 0 0 0 0 0 0 0 0 0 0 0 0 0 0 0 0 0 0 0 0 0 0 0 
0 0 0 0 0 0 0 0 0 0 0 0 0 2 5 4 4 2 3 3 10 13 19 22 37 50 35 43 69 63 64 60 78 81 82 95 81 71 74 76 91 115 140 149 143 134 133 120 127 106 94 106 112 112 108 101 91 89 104 101 97 111 105 136 129 152 124 80 63 63 57 65 58 56 55 76 81 80 50 29 28 25 19 7 3 1 3 3 2 2 3 9 6 1 1 0 1 0 0 0 0 0 0 0 0 0 0 0 0 0 0 0 0 0 0 0 0 0 0 0 0 0 0 0 0 0 0 0 
0 0 0 0 0 0 0 0 0 0 0 0 0 0 3 2 3 3 2 1 6 9 13 16 22 22 23 33 68 64 61 60 61 60 62 67 68 60 69 72 83 89 84 83 87 94 84 72 78 80 61 73 88 93 92 86 70 62 74 77 84 97 84 77 78 93 87 102 108 100 65 63 58 55 56 76 83 79 47 29 28 24 16 6 3 1 2 2 2 2 4 5 2 1 1 0 1 0 0 0 0 0 0 0 0 0 0 0 0 0 0 0 0 0 0 0 0 0 0 0 0 0 0 0 0 0 0 0 
0 0 0 0 0 0 0 0 0 0 0 0 0 0 0 0 0 0 0 0 3 9 9 15 20 26 28 37 69 74 66 64 68 67 67 65 73 94 117 127 141 138 107 98 100 104 101 103 106 92 79 91 94 96 95 93 89 75 91 105 106 115 101 93 117 139 103 98 98 96 88 86 73 76 78 88 91 82 49 33 28 23 13 9 1 0 0 0 1 1 1 1 0 0 1 0 1 0 0 0 0 0 0 0 0 0 0 0 0 0 0 0 0 0 0 0 0 0 0 0 0 0 0 0 0 0 0 0 
0 0 0 0 0 0 0 0 0 0 0 0 0 0 0 0 0 0 0 0 0 3 4 8 15 28 33 44 72 87 80 75 82 85 85 88 102 114 119 140 158 168 149 129 140 158 156 152 139 122 115 121 122 121 117 120 121 113 116 136 146 153 144 148 157 161 134 124 108 128 123 113 97 87 84 86 84 77 51 39 26 18 10 9 0 0 0 0 0 0 0 0 0 0 0 0 1 0 0 0 0 0 0 0 0 0 0 0 0 0 0 0 0 0 0 0 0 0 0 0 0 0 0 0 0 0 0 0 
0 0 0 0 0 0 0 0 0 0 0 0 0 0 0 0 0 0 0 0 0 2 3 5 10 23 27 36 61 78 74 75 87 92 93 92 95 110 129 130 159 164 163 157 168 170 169 176 152 167 163 163 160 160 159 152 151 148 150 151 152 169 166 156 165 149 145 130 148 151 129 127 98 72 53 64 73 53 33 22 13 8 5 2 0 0 0 0 0 0 0 1 0 0 1 0 0 0 0 0 0 0 0 0 0 0 0 0 0 0 0 0 0 0 0 0 0 0 0 0 0 0 0 0 0 0 0 0 
0 0 0 0 0 0 0 0 0 0 0 0 0 0 0 0 0 0 0 0 0 0 2 3 8 17 29 36 54 76 77 73 76 78 75 70 71 84 98 97 118 123 115 104 124 134 156 163 158 154 143 133 136 136 138 129 132 131 132 128 135 143 122 127 132 126 136 141 151 155 113 73 49 46 56 78 77 44 24 19 13 7 6 1 0 1 1 1 2 3 2 3 2 2 3 1 2 1 0 0 0 0 0 0 0 0 0 0 0 0 0 0 0 0 0 0 0 0 0 0 0 0 0 0 0 0 0 0 
0 0 0 0 0 0 0 0 0 0 0 0 0 0 0 0 0 0 0 0 0 0 4 6 9 15 20 22 32 55 66 64 65 65 59 53 55 66 91 110 108 112 109 96 102 113 128 127 119 118 113 98 108 98 104 92 101 105 103 107 111 126 123 99 116 127 129 110 128 113 97 69 57 56 72 99 83 45 24 18 16 14 7 1 0 0 0 1 0 0 1 2 2 2 2 0 1 0 0 0 0 0 0 0 0 0 0 0 0 0 0 0 0 0 0 0 0 0 0 0 0 0 0 0 0 0 0 0 
0 0 0 0 0 0 0 0 0 0 0 0 0 0 0 0 0 0 0 0 0 0 2 6 9 13 19 21 25 45 61 73 73 69 58 51 54 65 86 100 97 100 100 103 111 125 128 125 115 110 102 85 94 96 99 92 103 110 112 107 104 113 108 91 82 104 120 123 120 104 91 66 54 56 81 107 86 49 25 19 18 12 6 1 0 0 0 1 1 0 1 2 2 2 2 0 1 0 0 0 0 0 0 0 0 0 0 0 0 0 0 0 0 0 0 0 0 0 0 0 0 0 0 0 0 0 0 0 
0 0 0 0 0 0 0 0 0 0 0 0 0 0 0 0 0 0 0 0 0 0 0 5 9 10 16 21 22 38 56 74 77 72 64 54 47 57 73 95 91 85 88 92 99 110 119 127 127 115 108 96 98 101 99 90 101 100 111 117 117 121 120 107 102 98 109 115 105 93 77 60 58 65 88 110 85 50 25 19 16 11 5 0 0 0 0 1 1 0 1 2 2 2 2 0 1 0 0 0 0 0 0 0 0 0 0 0 0 0 0 0 0 0 0 0 0 0 0 0 0 0 0 0 0 0 0 0 
0 0 0 0 0 0 0 0 0 0 0 0 0 0 0 0 0 0 0 0 0 0 0 3 6 9 13 19 22 32 47 69 77 76 68 55 48 56 60 65 72 77 85 92 99 105 114 121 137 127 114 105 103 101 97 94 98 98 105 117 122 140 131 113 102 93 98 104 109 96 79 63 56 69 94 111 82 52 26 18 15 10 4 0 0 0 0 1 1 0 1 2 2 2 2 0 1 0 0 0 0 0 0 0 0 0 0 0 0 0 0 0 0 0 0 0 0 0 0 0 0 0 0 0 0 0 0 0 
0 0 0 0 0 0 0 0 0 0 0 0 0 0 0 0 0 0 0 0 0 0 0 0 5 8 11 16 21 28 43 61 80 79 71 60 55 53 51 58 67 71 86 91 100 102 105 111 124 116 115 106 103 100 94 96 99 102 108 111 114 123 117 105 102 101 97 92 95 94 80 73 61 70 94 106 80 52 26 17 14 10 2 0 0 0 0 1 1 1 1 2 2 2 3 0 1 0 0 0 0 0 0 0 0 0 0 0 0 0 0 0 0 0 0 0 0 0 0 0 0 0 0 0 0 0 0 0 
0 0 0 0 0 0 0 0 0 0 0 0 0 0 0 0 0 0 0 0 0 0 0 0 2 5 9 13 18 25 43 55 78 78 74 67 64 55 52 58 63 69 86 96 108 103 95 95 101 106 115 103 96 100 98 97 100 104 106 103 110 109 108 99 104 106 100 89 77 74 68 69 71 77 96 102 77 44 20 16 15 8 1 0 0 0 0 0 1 0 1 2 2 3 3 0 1 0 0 0 0 0 0 0 0 0 0 0 0 0 0 0 0 0 0 0 0 0 0 0 0 0 0 0 0 0 0 0 
0 0 0 0 0 0 0 0 0 0 0 0 0 0 0 0 0 0 0 0 0 0 0 0 0 4 6 12 15 19 33 51 66 73 76 74 67 58 55 55 60 68 84 94 101 96 92 89 87 93 111 98 88 92 96 100 101 101 97 102 107 106 102 91 93 97 96 84 74 66 62 68 80 83 100 86 48 23 17 16 16 8 1 0 0 0 0 0 1 1 1 2 2 3 3 0 0 0 0 0 0 0 0 0 0 0 0 0 0 0 0 0 0 0 0 0 0 0 0 0 0 0 0 0 0 0 0 0 
0 0 0 0 0 0 0 0 0 0 0 0 0 0 0 0 0 0 0 0 0 0 0 0 0 3 4 8 14 17 20 32 40 46 72 78 69 63 59 53 55 64 78 80 89 93 91 90 87 91 111 103 89 91 98 99 100 97 95 98 100 96 96 87 88 87 84 77 72 64 61 72 80 89 97 43 18 17 18 18 16 7 1 0 0 0 0 0 1 1 1 1 2 3 3 0 0 0 0 0 0 0 0 0 0 0 0 0 0 0 0 0 0 0 0 0 0 0 0 0 0 0 0 0 0 0 0 0 
0 0 0 0 0 0 0 0 0 0 0 0 0 0 0 0 0 0 0 0 0 0 0 0 0 0 5 4 12 16 19 20 18 19 31 75 78 74 64 63 58 59 71 71 78 84 85 90 94 97 99 98 92 89 88 93 103 99 92 92 97 96 99 86 84 85 70 73 70 68 69 79 87 92 70 23 15 16 17 18 14 6 0 0 0 0 0 1 1 1 1 1 2 3 3 0 0 0 0 0 0 0 0 0 0 0 0 0 0 0 0 0 0 0 0 0 0 0 0 0 0 0 0 0 0 0 0 0 
0 0 0 0 0 0 0 0 0 0 0 0 0 0 0 0 0 0 0 0 0 0 0 0 0 0 2 5 8 13 18 19 18 19 13 37 75 80 71 70 67 61 70 70 79 81 78 89 103 102 95 95 95 93 91 92 101 103 93 91 97 99 107 95 87 84 77 80 74 74 82 85 90 75 34 19 14 15 17 17 12 6 1 0 0 0 0 0 1 1 0 1 2 3 3 0 0 0 0 0 0 0 0 0 0 0 0 0 0 0 0 0 0 0 0 0 0 0 0 0 0 0 0 0 0 0 0 0 
0 0 0 0 0 0 0 0 0 0 0 0 0 0 0 0 0 0 0 0 0 0 0 0 0 0 0 3 7 10 16 18 17 20 14 13 36 71 80 81 74 70 77 77 88 90 83 88 95 98 98 100 96 95 94 101 109 110 106 103 101 107 109 98 91 89 84 86 86 87 93 91 74 37 23 17 13 16 17 15 10 6 1 0 0 0 0 0 0 0 0 1 2 3 3 0 0 0 0 0 0 0 0 0 0 0 0 0 0 0 0 0 0 0 0 0 0 0 0 0 0 0 0 0 0 0 0 0 
0 0 0 0 0 0 0 0 0 0 0 0 0 0 0 0 0 0 0 0 0 0 0 0 0 0 0 2 6 7 12 17 18 21 14 13 16 33 62 76 81 85 86 84 99 99 89 89 89 100 102 99 97 97 94 102 105 106 109 106 98 103 107 103 97 99 99 97 96 91 89 70 36 26 23 17 14 16 16 14 10 6 1 0 0 0 0 0 0 1 1 1 2 2 3 0 0 0 0 0 0 0 0 0 0 0 0 0 0 0 0 0 0 0 0 0 0 0 0 0 0 0 0 0 0 0 0 0 
0 0 0 0 0 0 0 0 0 0 0 0 0 0 0 0 0 0 0 0 0 0 0 0 0 0 0 1 4 7 8 15 17 21 16 12 16 21 30 51 74 86 92 96 104 108 99 95 100 105 100 96 96 101 102 105 106 103 112 115 106 103 111 108 105 107 108 105 98 84 60 35 28 26 23 16 15 14 15 13 10 5 1 0 0 0 0 0 1 1 0 1 2 3 3 0 0 0 0 0 0 0 0 0 0 0 0 0 0 0 0 0 0 0 0 0 0 0 0 0 0 0 0 0 0 0 0 0 
0 0 0 0 0 0 0 0 0 0 0 0 0 0 0 0 0 0 0 0 0 0 0 0 0 0 0 0 1 7 7 13 15 20 16 11 13 19 26 29 37 60 81 92 105 110 106 104 105 104 105 101 103 103 97 99 101 105 111 114 112 104 111 113 109 106 108 103 80 49 30 28 27 24 21 16 14 15 14 12 9 5 1 0 0 0 0 0 1 1 0 1 2 2 3 0 0 0 0 0 0 0 0 0 0 0 0 0 0 0 0 0 0 0 0 0 0 0 0 0 0 0 0 0 0 0 0 0 
0 0 0 0 0 0 0 0 0 0 0 0 0 0 0 0 0 0 0 0 0 0 0 0 0 0 0 0 0 7 6 10 14 19 16 12 11 19 26 29 30 33 41 60 82 95 98 96 98 102 109 108 106 101 97 100 100 106 115 108 109 111 115 111 106 98 84 63 43 37 29 28 26 23 18 16 13 15 14 12 9 4 0 0 0 0 0 0 1 0 1 1 2 3 3 0 0 0 0 0 0 0 0 0 0 0 0 0 0 0 0 0 0 0 0 0 0 0 0 0 0 0 0 0 0 0 0 0 
0 0 0 0 0 0 0 0 0 0 0 0 0 0 0 0 0 0 0 0 0 0 0 0 0 0 0 0 0 4 6 9 13 18 16 13 11 19 25 28 30 32 32 37 50 68 80 87 91 92 100 106 103 102 103 104 106 108 117 114 113 103 104 98 88 69 53 47 41 36 28 28 26 23 17 14 14 15 15 13 9 3 1 0 0 0 0 0 0 0 0 0 2 3 3 0 0 0 0 0 0 0 0 0 0 0 0 0 0 0 0 0 0 0 0 0 0 0 0 0 0 0 0 0 0 0 0 0 
