P2
128 99
208
0 0 0 0 0 0 0 0 0 0 0 0 0 0 0 0 0 0 0 0 0 0 0 0 0 0 0 0 0 0 0 1 0 0 0 0 0 0 0 0 0 0 0 0 0 0 0 0 0 0 0 0 0 0 0 0 0 0 0 0 0 0 0 0 0 0 0 0 0 0 0 0 0 0 0 0 0 0 0 0 0 0 0 0 0 0 0 0 0 0 0 0 0 0 0 1 4 3 0 0 0 0 0 0 0 0 0 0 0 0 0 0 0 0 0 0 0 0 0 0 0 0 0 0 0 0 0 0 
0 0 0 0 0 0 0 0 0 0 0 0 0 0 0 0 0 0 0 0 0 0 0 0 0 0 0 0 0 0 0 1 0 0 0 0 0 0 0 0 0 0 0 0 0 0 0 0 0 0 0 0 0 0 0 0 0 0 0 0 0 0 0 0 0 0 0 0 0 0 0 0 0 0 0 0 0 0 0 0 0 0 0 0 0 0 0 0 0 0 0 0 0 0 0 1 4 4 0 0 0 0 0 0 0 0 0 0 0 0 0 0 0 0 0 0 0 0 0 0 0 0 0 0 0 0 0 0 
0 0 0 0 0 0 0 0 0 0 0 0 0 0 0 0 0 0 0 0 0 0 0 0 0 0 0 0 0 0 0 1 0 0 0 0 0 0 0 0 0 0 0 0 0 0 0 0 0 0 1 3 3 3 0 0 0 0 0 0 0 0 0 0 0 0 0 0 0 0 0 0 0 0 0 0 0 0 0 0 0 0 0 0 0 0 0 0 0 0 0 0 0 0 0 1 4 4 0 0 0 0 0 0 0 0 0 0 0 0 0 0 0 0 0 0 0 0 0 0 0 0 0 0 0 0 0 0 
0 0 0 0 0 0 0 0 0 0 0 0 0 0 0 0 0 0 0 0 0 0 0 0 0 0 0 0 0 0 0 1 0 0 0 0 0 0 0 0 0 0 0 2 7 14 16 18 18 18 21 25 30 30 27 21 19 16 15 11 3 0 0 0 0 0 0 0 0 0 0 0 0 0 0 0 0 0 0 0 0 0 0 0 0 0 0 0 0 0 0 0 0 0 0 1 4 4 0 0 0 0 0 0 0 0 0 0 0 0 0 0 0 0 0 0 0 0 0 0 0 0 0 0 0 0 0 0 
0 0 0 0 0 0 0 0 0 0 0 0 0 0 0 0 0 0 0 0 0 0 0 0 0 0 0 0 0 0 0 0 0 0 0 0 0 0 0 0 5 14 19 23 22 33 52 73 96 115 128 138 143 144 142 133 117 97 74 50 33 22 17 10 2 0 0 0 0 0 0 0 0 0 0 0 0 0 0 0 0 0 0 0 0 0 0 0 0 0 0 0 0 0 0 1 4 4 0 0 0 0 0 0 0 0 0 0 0 0 0 0 0 0 0 0 0 0 0 0 0 0 0 0 0 0 0 0 
0 0 0 0 0 0 0 0 0 0 0 0 0 0 0 0 0 0 0 0 0 0 0 0 0 0 0 0 0 0 0 0 0 0 0 0 0 0 9 17 23 24 38 65 108 142 161 170 176 180 180 176 173 174 175 176 175 172 169 160 141 112 75 43 24 15 11 2 0 0 0 0 0 0 0 0 0 0 0 0 0 0 0 0 0 0 0 0 0 0 0 0 0 0 0 1 4 3 0 0 0 0 0 0 0 0 0 0 0 0 0 0 0 0 0 0 0 0 0 0 0 0 0 0 0 0 0 0 
0 0 0 0 0 0 0 0 0 0 0 0 0 0 0 0 0 0 0 0 0 0 0 0 0 0 0 0 0 0 0 0 0 0 0 0 9 22 22 25 51 98 144 167 176 180 181 175 177 181 184 184 182 181 184 184 184 182 178 173 172 172 166 146 114 74 42 19 13 2 0 0 0 0 0 0 0 0 0 0 0 0 0 0 0 0 0 0 0 0 0 0 0 0 0 1 4 3 0 0 0 0 0 0 0 0 0 0 0 0 0 0 0 0 0 0 0 0 0 0 0 0 0 0 0 0 0 0 
0 0 0 0 0 0 0 0 0 0 0 0 0 0 0 0 0 0 0 0 0 0 0 0 0 0 0 0 0 0 0 0 0 0 7 25 24 25 60 119 158 171 179 181 179 182 182 177 175 176 182 192 193 185 183 192 196 195 189 183 182 179 176 175 176 165 137 94 51 24 13 2 0 0 0 0 0 0 0 0 0 0 0 0 0 0 0 0 0 0 0 0 0 0 0 1 4 3 0 0 0 0 0 0 0 0 0 0 0 0 0 0 0 0 0 0 0 0 0 0 0 0 0 0 0 0 0 0 
0 0 0 0 0 0 0 0 0 0 0 0 0 0 0 0 0 0 0 0 0 0 0 0 0 0 0 0 0 0 0 0 3 28 24 20 56 122 160 171 178 181 181 183 179 173 172 171 164 152 143 142 138 133 133 137 150 175 199 208 204 193 184 180 179 175 176 173 146 95 45 22 11 0 0 0 0 0 0 0 0 0 0 0 0 0 0 0 0 0 0 0 0 0 0 2 4 3 0 0 0 0 0 0 0 0 0 0 0 0 0 0 0 0 0 0 0 0 0 0 0 0 0 0 0 0 0 0 
0 0 0 0 0 0 0 0 0 0 0 0 0 0 0 0 0 0 0 0 0 0 0 0 0 0 0 0 0 0 0 23 24 21 43 107 157 168 177 179 180 184 180 174 166 165 154 137 122 126 135 141 143 140 142 144 143 132 147 169 189 200 207 203 191 181 177 175 176 171 137 76 32 19 3 0 0 0 0 0 0 0 0 0 0 0 0 0 0 0 0 0 0 0 0 1 4 3 0 0 0 0 0 0 0 0 0 0 0 0 0 0 0 0 0 0 0 0 0 0 0 0 0 0 0 0 0 0 
0 0 0 0 0 0 0 0 0 0 0 0 0 0 0 0 0 0 0 0 0 0 0 0 0 0 0 0 0 9 28 25 27 80 148 166 175 180 181 185 189 185 178 163 143 128 124 119 123 125 133 134 131 130 131 129 133 131 131 142 159 175 185 191 200 204 196 185 177 174 176 164 112 46 24 7 0 0 0 0 0 0 0 0 0 0 0 0 0 0 0 0 0 0 0 1 4 3 0 0 0 0 0 0 0 0 0 0 0 0 0 0 0 0 0 0 0 0 0 0 0 0 0 0 0 0 0 0 
0 0 0 0 0 0 0 0 0 0 0 0 0 0 0 0 0 0 0 0 0 0 0 0 0 0 0 0 21 28 19 48 127 163 171 180 180 184 191 195 181 161 142 139 144 145 138 134 125 121 110 121 120 116 133 135 136 140 136 133 141 157 175 185 189 191 195 202 197 184 177 174 173 141 68 25 11 0 0 0 0 0 0 0 0 0 0 0 0 0 0 0 0 0 0 1 4 4 0 0 0 0 0 0 0 0 0 0 0 0 0 0 0 0 0 0 0 0 0 0 0 0 0 0 0 0 0 0 
0 0 0 0 0 0 0 0 0 0 0 0 0 0 0 0 0 0 0 0 0 0 0 0 0 0 5 26 21 17 75 149 165 177 179 183 191 198 184 160 151 154 158 156 148 143 143 138 140 136 137 139 140 141 145 149 144 141 143 148 148 147 155 164 176 187 193 192 196 202 192 180 174 171 154 80 25 13 0 0 0 0 0 0 0 0 0 0 0 0 0 0 0 0 0 2 5 5 0 0 0 0 0 0 0 0 0 0 0 0 0 0 0 0 0 0 0 0 0 0 0 0 0 0 0 0 0 0 
0 0 0 0 0 0 0 0 0 0 0 0 0 0 0 0 0 0 0 0 0 0 0 0 0 11 26 19 25 99 156 168 180 181 188 199 193 165 158 160 162 154 146 139 136 143 147 148 147 144 136 133 124 126 131 141 153 153 154 156 158 161 161 160 162 166 175 186 191 191 198 199 184 174 170 158 88 26 13 0 0 0 0 0 0 0 0 0 0 0 0 0 0 0 0 2 5 5 0 0 0 0 0 0 0 0 0 0 0 0 0 0 0 0 0 0 0 0 0 0 0 0 0 0 0 0 0 0 
0 0 0 0 0 0 0 0 0 0 0 0 0 0 0 0 0 0 0 0 0 0 0 0 14 23 16 33 113 160 173 181 182 190 196 178 159 166 167 158 148 147 154 160 164 162 150 135 126 116 109 105 100 106 111 114 122 134 141 141 143 151 161 169 170 168 167 164 171 185 190 195 201 190 176 171 161 98 28 13 0 0 0 0 0 0 0 0 0 0 0 0 0 0 0 1 5 5 0 0 0 0 0 0 0 0 0 0 0 0 0 0 0 0 0 0 0 0 0 0 0 0 0 0 0 0 0 0 
0 0 0 0 0 0 0 0 0 0 0 0 0 0 0 0 0 0 0 0 0 0 4 19 21 15 40 121 160 176 179 186 190 188 165 165 169 160 152 150 155 162 159 149 135 123 123 120 116 114 118 119 120 123 126 128 128 127 131 132 127 125 131 143 156 164 170 166 162 160 173 184 191 201 189 176 172 163 111 34 13 0 0 0 0 0 0 0 0 0 0 0 0 0 0 1 5 5 0 0 0 0 0 0 0 0 0 0 0 0 0 0 0 0 0 0 0 0 0 0 0 0 0 0 0 0 0 0 
0 0 0 0 0 0 0 0 0 0 0 0 0 0 0 0 0 0 0 0 0 5 17 15 15 52 129 159 177 178 188 188 179 162 166 160 150 149 156 158 156 151 140 122 110 104 104 109 111 111 123 128 126 127 123 121 125 130 132 131 130 126 125 123 127 139 149 162 165 161 158 158 175 187 200 188 179 171 161 119 36 9 0 0 0 0 0 0 0 0 0 0 0 0 0 2 5 5 0 0 0 0 0 0 0 0 0 0 0 0 0 0 0 0 0 0 0 0 0 0 0 0 0 0 0 0 0 0 
0 0 0 0 0 0 0 0 0 0 0 0 0 0 0 0 0 0 0 0 6 16 14 20 67 137 161 177 182 188 182 170 161 159 153 141 141 155 154 151 144 137 120 107 106 110 111 116 117 121 123 107 104 119 115 116 119 121 125 132 136 134 132 131 127 123 125 139 156 157 152 155 154 166 183 196 185 179 170 161 124 37 7 0 0 0 0 0 0 0 0 0 0 0 0 1 5 5 0 0 0 0 0 0 0 0 0 0 0 0 0 0 0 0 0 0 0 0 0 0 0 0 0 0 0 0 0 0 
0 0 0 0 0 0 0 0 0 0 0 0 0 0 0 0 0 0 0 6 15 15 21 77 139 161 174 183 187 180 171 160 155 145 134 142 154 148 139 134 120 110 110 112 115 114 111 110 113 115 113 91 90 105 103 102 105 107 109 111 117 125 133 135 128 121 121 126 138 149 151 146 152 153 156 179 197 184 180 170 158 117 30 3 0 0 0 0 0 0 0 0 0 0 0 2 5 5 0 0 0 0 0 0 0 0 0 0 0 0 0 0 0 0 0 0 0 0 0 0 0 0 0 0 0 0 0 0 
0 0 0 0 0 0 0 0 0 0 0 0 0 0 0 0 0 0 4 15 15 21 82 139 159 170 184 183 177 172 159 149 137 132 143 149 133 127 126 114 108 109 107 111 109 107 105 102 97 98 93 84 84 95 104 102 102 105 107 102 96 96 97 111 131 129 121 122 128 136 148 142 140 150 151 151 178 199 185 179 171 157 102 19 2 0 0 0 0 0 0 0 0 0 0 2 5 5 0 0 0 0 0 0 0 0 0 0 0 0 0 0 0 0 0 0 0 0 0 0 0 0 0 0 0 0 0 0 
0 0 0 0 0 0 0 0 0 0 0 0 0 0 0 0 0 2 15 14 18 79 133 157 165 179 184 171 168 154 144 132 127 143 145 128 124 119 110 107 105 104 104 102 104 107 103 93 92 88 88 88 89 93 99 108 113 110 108 104 95 91 86 84 94 119 132 122 122 124 133 146 135 136 148 150 146 180 194 183 180 163 147 78 10 0 0 0 0 0 0 0 0 0 0 2 5 6 0 0 0 0 0 0 0 0 0 0 0 0 0 0 0 0 0 0 0 0 0 0 0 0 0 0 0 0 0 0 
0 0 0 0 0 0 0 0 0 0 0 0 0 0 0 0 0 11 12 15 72 130 151 160 175 182 169 165 153 139 129 126 141 146 124 118 113 104 108 111 103 96 95 100 99 94 90 88 90 82 89 96 100 98 95 102 108 109 113 116 114 107 98 87 81 89 117 132 122 119 120 129 143 126 132 146 146 140 183 189 182 178 156 133 49 4 0 0 0 0 0 0 0 0 0 2 5 7 0 0 0 0 0 0 0 0 0 0 0 0 0 0 0 0 0 0 0 0 0 0 0 0 0 0 0 0 0 0 
0 0 0 0 0 0 0 0 0 0 0 0 0 0 0 0 5 13 13 57 125 141 158 172 182 167 161 157 137 127 127 136 141 127 115 109 102 109 108 101 100 99 102 99 98 96 94 92 82 81 93 102 103 108 106 105 104 105 106 115 119 119 116 103 93 87 91 122 129 121 120 122 129 137 122 133 144 137 146 185 184 181 170 151 109 23 1 0 0 0 0 0 0 0 0 2 5 7 0 0 0 0 0 0 0 0 0 0 0 0 0 0 0 0 0 0 0 0 0 0 0 0 0 0 0 0 0 0 
0 0 0 0 0 0 0 0 0 0 0 0 0 0 0 1 11 13 42 116 136 155 161 180 172 156 162 130 124 128 128 135 130 118 108 105 109 109 108 112 108 100 98 96 94 93 95 95 92 99 109 106 104 113 111 107 106 104 102 103 105 110 116 116 110 100 90 90 116 129 118 116 117 133 134 122 141 140 130 157 183 181 179 160 140 76 6 0 0 0 0 0 0 0 0 2 5 8 0 0 0 0 0 0 0 0 0 0 0 0 0 0 0 0 0 0 0 0 0 0 0 0 0 0 0 0 0 0 
0 0 0 0 0 0 0 0 0 0 0 0 0 0 0 7 11 24 94 127 149 158 175 170 157 161 132 121 127 130 131 133 123 110 102 111 112 115 119 116 103 95 93 94 93 93 97 101 108 112 121 119 112 115 112 112 108 103 100 97 92 91 102 114 120 113 100 89 93 117 119 114 116 122 137 128 128 141 130 142 161 179 179 170 151 117 30 1 0 0 0 0 0 0 0 2 5 6 0 0 0 0 0 0 0 0 0 0 0 0 0 0 0 0 0 0 0 0 0 0 0 0 0 0 0 0 0 0 
0 0 0 0 0 0 0 0 0 0 0 0 0 0 2 8 14 71 124 140 154 165 168 156 151 139 116 126 134 130 135 126 115 106 114 120 119 118 113 102 92 86 84 87 92 96 103 108 112 120 131 130 122 122 122 124 123 120 116 108 99 91 86 93 106 117 113 100 91 97 112 117 116 117 131 138 123 134 133 130 148 168 177 174 154 132 66 3 0 0 0 0 0 0 0 2 5 7 0 0 0 0 0 0 0 0 0 0 0 0 0 0 0 0 0 0 0 0 0 0 0 0 0 0 0 0 0 0 
0 0 0 0 0 0 0 0 0 0 0 0 0 0 6 8 41 104 129 148 163 163 154 157 143 119 124 132 130 140 133 117 106 113 123 120 115 110 101 89 82 81 84 93 106 112 115 112 114 118 122 124 115 110 94 94 114 123 125 123 117 107 96 88 92 104 118 113 102 93 96 108 119 112 119 142 134 126 138 118 139 153 166 172 164 143 101 18 0 0 0 0 0 0 0 2 5 7 0 0 0 0 0 0 0 0 0 0 0 0 0 0 0 0 0 0 0 0 0 0 0 0 0 0 0 0 0 0 
0 0 0 0 0 0 0 0 0 0 0 0 0 0 5 18 78 117 139 153 166 153 158 149 125 116 130 130 136 143 115 103 112 123 122 109 103 98 89 81 82 86 102 114 120 118 115 110 111 97 91 105 105 86 92 91 91 118 120 119 121 122 116 105 92 94 111 117 113 103 95 94 115 119 117 132 143 124 135 125 125 147 160 172 170 146 121 39 1 0 0 0 0 0 0 2 5 8 0 0 0 0 0 0 0 0 0 0 0 0 0 0 0 0 0 0 0 0 0 0 0 0 0 0 0 0 0 0 
0 0 0 0 0 0 0 0 0 0 0 0 0 3 6 40 99 131 139 160 159 152 154 128 122 117 128 127 144 125 101 113 124 123 109 98 98 92 85 84 94 111 123 124 120 115 113 108 94 90 91 87 96 89 89 85 91 100 90 107 117 118 120 121 109 97 100 115 120 113 98 94 107 116 116 128 145 120 121 127 122 137 155 172 170 154 129 55 2 0 0 0 0 0 0 2 5 7 0 0 0 0 0 0 0 0 0 0 0 0 0 0 0 0 0 0 0 0 0 0 0 0 0 0 0 0 0 0 
0 0 0 0 0 0 0 0 0 0 0 0 0 4 8 67 114 137 143 166 143 152 140 118 123 121 124 125 139 105 104 129 127 112 94 94 94 90 90 104 123 130 121 116 112 105 95 91 94 92 92 88 94 88 88 92 101 96 88 89 89 105 111 115 121 114 103 109 120 119 106 97 103 110 116 125 143 115 114 123 126 128 152 168 168 160 135 76 5 0 0 0 0 0 0 2 5 8 0 0 0 0 0 0 0 0 0 0 0 0 0 0 0 0 0 0 0 0 0 0 0 0 0 0 0 0 0 0 
0 0 0 0 0 0 0 0 0 0 0 0 0 4 16 89 124 139 153 157 135 151 127 117 122 123 121 127 122 99 121 135 118 102 91 93 93 96 109 129 134 115 97 89 92 90 90 93 98 97 92 93 97 86 88 102 113 112 97 90 85 88 92 107 114 123 120 112 115 121 114 97 98 110 111 117 139 122 107 117 127 124 140 166 165 160 136 94 10 0 0 0 0 0 0 2 5 8 0 0 0 0 0 0 0 0 0 0 0 0 0 0 0 0 0 0 0 0 0 0 0 0 0 0 0 0 0 0 
0 0 0 0 0 0 0 0 0 0 0 0 1 4 33 100 132 140 158 134 137 139 121 119 117 119 113 124 108 109 134 126 110 95 89 93 98 115 131 129 108 89 88 88 89 88 92 99 104 101 95 96 103 95 97 107 112 111 109 97 91 92 91 92 104 108 124 132 121 117 117 105 94 105 114 114 137 123 103 111 126 129 144 164 166 164 140 108 18 0 0 0 0 0 0 2 6 8 0 0 0 0 0 0 0 0 0 0 0 0 0 0 0 0 0 0 0 0 0 0 0 0 0 0 0 0 0 0 
0 0 0 0 0 0 0 0 0 0 0 0 2 5 50 106 135 142 150 123 141 129 123 123 113 114 108 114 112 120 129 116 99 85 88 105 120 134 127 98 85 84 82 83 87 92 99 102 104 101 99 106 99 99 103 99 96 93 94 95 95 92 93 90 93 109 120 136 134 119 113 113 97 94 115 117 137 121 105 106 117 128 139 157 167 164 151 118 26 1 0 0 0 0 0 2 6 9 0 0 0 0 0 0 0 0 0 0 0 0 0 0 0 0 0 0 0 0 0 0 0 0 0 0 0 0 0 0 
0 0 0 0 0 0 0 0 0 0 0 0 2 8 61 115 138 148 145 125 137 125 126 123 110 109 102 111 121 120 123 108 89 83 99 126 135 132 108 81 79 75 75 77 84 91 97 100 100 90 93 102 94 85 80 73 70 78 87 93 94 94 94 94 98 108 123 126 128 130 120 116 104 91 110 116 130 118 100 106 115 127 143 160 170 164 157 125 35 1 0 0 0 0 0 2 6 8 0 0 0 0 0 0 0 0 0 0 0 0 0 0 0 0 0 0 0 0 0 0 0 0 0 0 0 0 0 0 
0 0 0 0 0 0 0 0 0 0 0 0 2 10 68 124 137 144 138 132 138 123 121 124 114 106 92 109 126 119 118 97 83 91 118 141 134 114 102 76 70 66 68 74 80 87 91 95 92 82 85 94 87 74 67 66 63 67 77 88 91 96 98 101 103 108 111 111 120 135 136 129 111 92 103 118 122 115 103 101 113 132 142 156 174 167 160 136 47 2 0 0 0 0 0 2 6 8 0 0 0 0 0 0 0 0 0 0 0 0 0 0 0 0 0 0 0 0 0 0 0 0 0 0 0 0 0 0 
0 0 0 0 0 0 0 0 0 0 0 0 3 13 74 129 142 154 137 141 135 123 122 128 115 100 85 110 129 117 111 90 90 115 136 136 129 114 104 94 79 69 66 73 82 87 91 95 88 82 81 84 91 74 69 68 66 63 72 82 89 99 104 96 95 116 115 109 113 124 140 148 133 98 98 113 117 112 103 98 116 133 142 153 174 168 162 144 58 3 0 0 0 0 0 2 6 7 0 0 0 0 0 0 0 0 0 0 0 0 0 0 0 0 0 0 0 0 0 0 0 0 0 0 0 0 0 0 
0 0 0 0 0 0 0 0 0 0 0 0 3 12 78 133 146 162 137 145 138 128 124 132 118 94 84 112 133 112 101 95 115 133 137 131 112 93 81 76 75 79 88 90 91 95 93 94 90 83 81 82 98 81 74 71 71 67 75 83 90 94 95 97 99 99 94 85 81 87 111 140 157 146 115 107 117 114 111 104 124 133 143 151 171 170 163 149 71 4 0 0 0 0 0 2 5 7 0 0 0 0 0 0 0 0 0 0 0 0 0 0 0 0 0 0 0 0 0 0 0 0 0 0 0 0 0 0 
0 0 0 0 0 0 0 0 0 0 0 0 4 13 80 137 148 161 133 145 138 129 124 131 119 97 85 107 135 117 102 114 134 135 119 98 85 76 65 61 60 64 71 83 94 102 93 96 93 85 82 79 100 89 76 76 74 69 78 89 91 89 97 98 101 100 96 91 80 83 91 107 142 161 149 112 115 118 116 119 125 131 138 146 167 169 163 151 81 5 0 0 0 0 0 2 5 7 0 0 0 0 0 0 0 0 0 0 0 0 0 0 0 0 0 0 0 0 0 0 0 0 0 0 0 0 0 0 
0 0 0 0 0 0 0 0 0 0 0 0 6 12 83 137 149 158 135 144 136 132 131 141 124 100 97 105 129 124 124 131 135 114 94 93 89 78 70 77 74 69 72 77 83 93 102 93 96 92 87 81 90 90 78 78 76 76 87 93 92 87 95 103 112 119 114 108 105 110 111 117 129 135 138 133 118 132 125 125 124 129 131 141 157 170 165 154 93 8 0 0 0 0 0 2 5 7 0 0 0 0 0 0 0 0 0 0 0 0 0 0 0 0 0 0 0 0 0 0 0 0 0 0 0 0 0 0 
0 0 0 0 0 0 0 0 0 0 0 0 6 13 86 138 151 162 135 141 137 133 127 139 128 100 110 112 119 137 148 141 110 87 102 112 106 96 92 90 90 90 87 87 80 83 93 91 94 101 97 88 89 94 96 98 92 96 87 90 91 92 93 91 95 100 97 93 90 91 97 112 121 126 120 131 128 138 134 130 120 122 126 134 151 166 166 157 108 15 0 0 0 0 0 2 5 7 0 0 0 0 0 0 0 0 0 0 0 0 0 0 0 0 0 0 0 0 0 0 0 0 0 0 0 0 0 0 
0 0 0 0 0 0 0 0 0 0 0 0 7 13 90 139 153 160 132 138 134 131 125 135 130 105 109 124 125 145 157 136 90 98 117 113 98 84 77 73 76 77 84 92 90 79 85 88 84 91 92 94 96 93 103 103 98 94 83 92 94 81 78 82 92 99 99 97 91 90 95 106 124 134 129 114 124 135 144 139 118 117 124 129 144 155 167 157 118 25 0 0 0 0 0 2 5 7 0 0 0 0 0 0 0 0 0 0 0 0 0 0 0 0 0 0 0 0 0 0 0 0 0 0 0 0 0 0 
0 0 0 0 0 0 0 0 0 0 0 0 8 14 95 141 156 162 122 137 131 128 125 128 120 116 111 120 125 146 154 123 110 117 116 102 82 73 69 72 75 77 77 77 87 85 81 84 79 86 91 96 107 100 107 94 93 92 85 96 85 73 78 87 97 104 102 94 91 88 87 101 127 136 114 96 114 134 143 137 117 116 119 119 136 145 166 157 125 34 0 0 0 0 0 2 5 7 0 0 0 0 0 0 0 0 0 0 0 0 0 0 0 0 0 0 0 0 0 0 0 0 0 0 0 0 0 0 
0 0 0 0 0 0 0 0 0 0 0 0 9 16 97 142 160 164 126 137 125 123 121 121 111 109 113 129 123 123 125 105 107 113 107 96 86 81 80 82 86 85 82 76 78 84 83 81 77 82 86 92 107 118 115 96 88 91 89 92 75 76 85 89 93 98 99 94 89 88 91 99 123 134 114 90 107 136 145 128 111 114 110 113 127 137 167 155 128 42 1 0 0 0 0 2 5 7 0 0 0 0 0 0 0 0 0 0 0 0 0 0 0 0 0 0 0 0 0 0 0 0 0 0 0 0 0 0 
0 0 0 0 0 0 0 0 0 0 0 0 8 17 99 143 164 160 125 130 123 117 117 115 104 101 105 127 119 109 114 99 103 119 106 92 81 75 77 79 83 86 87 82 78 76 83 89 85 88 85 84 105 100 103 109 94 98 97 81 77 82 80 76 81 91 95 96 94 90 88 99 124 137 117 82 105 140 142 121 108 112 99 109 116 126 157 152 132 49 3 0 0 0 0 2 5 7 0 0 0 0 0 0 0 0 0 0 0 0 0 0 0 0 0 0 0 0 0 0 0 0 0 0 0 0 0 0 
0 0 0 0 0 0 0 0 0 0 0 0 8 17 99 141 164 151 110 120 120 108 106 113 100 96 100 124 127 110 106 101 101 120 109 94 81 79 80 78 77 78 78 81 78 72 75 83 89 92 94 89 91 83 89 110 102 103 96 83 82 77 84 79 78 87 94 95 94 90 89 99 120 127 106 77 104 141 138 117 109 114 94 100 110 118 141 149 134 54 2 0 0 0 0 2 6 7 0 0 0 0 0 0 0 0 0 0 0 0 0 0 0 0 0 0 0 0 0 0 0 0 0 0 0 0 0 0 
0 0 0 0 0 0 0 0 0 0 0 0 8 17 96 141 166 148 106 113 117 101 97 111 91 86 102 118 129 118 105 101 104 109 104 92 80 75 80 78 74 75 73 74 73 77 79 76 68 82 94 102 88 82 88 85 102 98 90 86 87 92 97 73 75 84 90 94 93 90 92 102 118 124 101 74 100 135 133 116 119 113 89 100 112 121 128 146 135 59 2 0 0 0 0 2 5 6 0 0 0 0 0 0 0 0 0 0 0 0 0 0 0 0 0 0 0 0 0 0 0 0 0 0 0 0 0 0 
0 0 0 0 0 0 0 0 0 0 0 0 8 16 95 140 165 137 107 109 116 92 93 111 91 84 103 108 123 121 107 102 108 108 103 95 86 79 81 78 73 74 80 87 79 79 79 67 61 74 97 109 86 77 82 68 87 100 86 95 88 84 77 72 74 84 92 96 91 91 95 105 117 116 89 75 101 135 136 119 125 112 89 99 111 120 120 142 134 59 3 0 0 0 0 2 5 6 0 0 0 0 0 0 0 0 0 0 0 0 0 0 0 0 0 0 0 0 0 0 0 0 0 0 0 0 0 0 
0 0 0 0 0 0 0 0 0 0 0 0 7 16 90 136 163 128 107 101 120 93 89 109 94 87 102 99 116 122 112 104 101 107 105 97 89 83 82 82 74 74 82 83 81 85 79 66 65 82 115 92 61 59 71 64 80 111 76 82 83 80 75 76 79 86 93 93 93 92 96 104 114 110 80 79 108 139 127 112 125 111 92 99 111 115 120 146 127 57 3 0 0 0 0 2 5 6 0 0 0 0 0 0 0 0 0 0 0 0 0 0 0 0 0 0 0 0 0 0 0 0 0 0 0 0 0 0 
0 0 0 0 0 0 0 0 0 0 0 0 6 14 84 136 160 126 104 96 116 94 87 107 98 88 110 102 107 120 116 108 96 106 106 99 91 88 86 83 78 72 72 69 68 75 73 66 78 78 101 69 61 65 77 65 68 103 91 80 79 75 75 86 88 88 91 95 95 93 97 102 109 94 72 84 122 135 111 113 120 105 98 100 112 114 123 146 122 53 2 0 0 0 0 2 5 5 0 0 0 0 0 0 0 0 0 0 0 0 0 0 0 0 0 0 0 0 0 0 0 0 0 0 0 0 0 0 
0 0 0 0 0 0 0 0 0 0 0 0 4 15 77 133 157 126 108 97 112 96 88 104 100 89 110 105 104 118 119 108 94 99 108 108 99 91 86 83 79 72 72 68 66 76 70 57 61 87 86 65 65 72 87 65 65 83 100 81 78 72 81 93 87 90 95 98 95 93 97 101 104 79 71 93 125 123 98 113 117 97 101 100 111 107 125 144 116 47 2 0 0 0 0 2 5 5 0 0 0 0 0 0 0 0 0 0 0 0 0 0 0 0 0 0 0 0 0 0 0 0 0 0 0 0 0 0 
0 0 0 0 0 0 0 0 0 0 0 0 2 15 71 129 151 132 109 96 107 99 87 99 104 89 106 106 104 118 121 110 96 91 103 108 99 89 84 81 76 69 70 69 68 68 63 59 67 94 68 67 65 72 87 69 66 67 97 84 82 78 87 93 86 92 97 94 94 95 98 103 94 69 69 98 126 121 97 114 113 91 102 105 106 105 132 141 108 41 1 0 0 0 0 2 5 5 0 0 0 0 0 0 0 0 0 0 0 0 0 0 0 0 0 0 0 0 0 0 0 0 0 0 0 0 0 0 
0 0 0 0 0 0 0 0 0 7 5 0 0 12 62 124 145 139 109 97 100 103 86 92 104 87 102 107 103 121 125 108 98 91 100 110 106 88 82 80 79 74 74 68 75 82 70 64 75 81 65 66 68 83 84 77 70 66 79 97 92 91 101 93 91 95 97 91 91 92 95 101 80 66 80 113 129 121 105 118 107 84 104 105 99 106 138 135 94 34 2 0 0 0 0 2 5 6 0 0 0 0 0 0 0 0 0 0 0 0 0 0 0 0 0 0 0 0 0 0 0 0 0 0 0 0 0 0 
0 0 0 0 0 0 0 0 0 1 9 2 0 11 51 120 142 141 105 100 90 109 93 89 99 88 101 114 100 129 133 109 100 92 94 108 109 90 83 82 85 87 83 78 78 68 82 70 96 69 66 70 68 79 76 75 73 72 71 108 116 115 111 99 98 93 90 95 93 91 96 97 75 80 100 124 124 120 114 124 104 85 109 100 94 104 138 125 87 30 2 0 0 0 0 2 5 6 0 0 0 0 0 0 0 0 0 0 0 0 0 0 0 0 0 0 0 0 0 0 0 0 0 0 0 0 0 0 
0 0 0 0 0 0 0 0 0 1 5 9 2 8 40 114 137 140 102 101 80 102 107 94 93 90 101 117 109 133 127 113 96 94 90 100 100 86 82 79 87 89 87 92 88 92 74 77 99 63 69 64 62 77 71 71 80 80 81 105 112 106 102 98 104 111 107 100 93 95 92 89 94 103 115 130 144 142 131 120 106 104 107 90 95 114 140 119 82 24 1 0 0 0 0 2 5 6 0 0 0 0 0 0 0 0 0 0 0 0 0 0 0 0 0 0 0 0 0 0 0 0 0 0 0 0 0 0 
0 0 0 0 0 0 0 0 0 1 3 8 2 8 31 101 135 139 105 98 91 94 110 96 90 89 101 111 119 134 123 110 106 100 93 94 94 96 100 92 92 90 97 93 77 82 78 87 97 61 66 69 64 87 74 71 75 79 88 107 121 100 93 104 118 132 142 140 139 141 142 131 119 125 135 139 127 114 137 122 121 136 109 91 96 129 128 100 79 15 1 0 0 7 6 1 5 5 0 0 0 0 0 0 0 0 0 0 0 0 0 0 0 0 0 0 0 0 0 0 0 0 0 0 0 0 0 0 
0 0 0 0 0 0 0 0 0 0 2 8 5 6 23 90 131 141 118 97 102 80 103 101 94 90 99 104 113 129 129 123 123 129 124 121 123 118 112 108 108 96 75 73 80 77 73 97 92 59 79 80 69 84 77 69 70 76 84 112 126 97 94 101 109 115 133 133 130 149 166 149 136 119 118 128 131 117 136 127 127 141 125 108 94 137 109 94 75 9 2 2 8 3 0 1 5 5 0 0 0 0 0 0 0 0 0 0 0 0 0 0 0 0 0 0 0 0 0 0 0 0 0 0 0 0 0 0 
0 0 0 0 0 0 0 0 0 0 0 6 9 7 19 80 123 144 138 102 104 79 89 108 101 92 98 106 117 124 126 127 126 126 133 128 124 121 105 96 98 81 80 87 92 80 80 97 85 74 86 91 77 94 84 73 78 92 105 140 135 94 89 102 102 105 123 125 131 149 137 122 133 114 115 108 113 130 141 124 124 132 126 131 132 130 104 92 70 5 1 1 3 2 0 2 5 6 0 0 0 0 0 0 0 0 0 0 0 0 0 0 0 0 0 0 0 0 0 0 0 0 0 0 0 0 0 0 
0 0 0 0 0 0 0 0 0 0 0 5 14 11 12 69 115 140 148 111 104 93 79 123 122 100 101 109 120 119 129 146 156 143 128 129 125 123 116 104 92 80 79 93 84 80 81 96 109 103 100 97 93 118 102 94 98 99 97 110 113 89 92 113 121 123 120 127 153 153 116 123 128 131 132 126 132 155 158 144 138 145 143 153 160 126 102 96 57 5 0 2 1 1 0 1 5 6 0 0 0 0 0 0 0 0 0 0 0 0 0 0 0 0 0 0 0 0 0 0 0 0 0 0 0 0 0 0 
0 0 0 0 0 0 0 0 0 0 0 4 17 13 13 55 106 137 144 125 104 112 100 123 120 120 116 122 133 115 133 152 162 149 144 143 144 145 129 108 91 82 85 77 77 81 87 108 110 104 116 118 101 119 113 87 76 94 95 94 103 76 93 127 144 140 132 143 159 147 130 134 130 134 131 143 135 138 147 157 155 169 172 166 167 124 111 92 37 6 2 3 1 0 0 2 5 5 0 0 0 0 0 0 0 0 0 0 0 0 0 0 0 0 0 0 0 0 0 0 0 0 0 0 0 0 0 0 
0 0 0 0 0 0 0 0 0 0 0 5 19 11 9 37 96 132 139 135 123 135 139 134 118 131 131 139 136 112 137 159 160 157 156 151 148 149 135 109 85 75 76 68 73 82 93 99 102 95 107 116 106 125 106 73 65 75 89 86 93 85 109 138 140 126 126 130 133 135 136 119 122 133 139 144 129 125 153 176 166 171 171 173 155 110 103 78 17 7 5 3 0 0 0 1 5 5 0 0 0 0 0 0 0 0 0 0 0 0 0 0 0 0 0 0 0 0 0 0 0 0 0 0 0 0 0 0 
0 0 0 0 0 0 0 0 0 0 0 3 15 11 9 14 58 113 126 139 140 159 163 148 141 142 133 121 140 129 146 161 155 144 160 163 160 150 134 106 91 87 79 74 77 77 85 100 95 95 95 106 98 111 125 89 66 73 80 93 100 106 111 129 130 126 125 121 110 104 114 113 124 123 129 132 139 132 154 168 163 169 165 157 134 115 104 84 19 7 7 6 0 0 0 1 5 4 0 0 0 0 0 0 0 0 0 0 0 0 0 0 0 0 0 0 0 0 0 0 0 0 0 0 0 0 0 0 
0 0 0 0 0 0 0 0 0 0 0 5 10 10 9 11 38 103 134 136 148 167 168 162 158 134 127 127 128 124 141 153 162 147 155 162 156 145 137 121 112 109 98 88 91 101 103 115 106 90 76 88 102 114 111 95 76 81 86 104 115 114 104 119 123 118 119 110 104 102 120 124 124 133 136 139 125 146 161 153 149 164 151 130 113 116 105 62 11 6 6 8 0 0 0 1 5 3 0 0 0 0 0 0 0 0 0 0 0 0 0 0 0 0 0 0 0 0 0 0 0 0 0 0 0 0 0 0 
0 0 0 0 0 0 0 0 0 0 0 6 7 7 10 11 24 84 128 119 142 163 163 143 170 166 152 136 135 136 126 138 145 145 149 150 149 152 144 140 125 120 115 115 104 102 106 116 118 89 76 75 73 94 107 109 96 99 99 106 122 126 114 119 111 98 101 110 112 123 142 127 123 129 144 138 124 157 158 152 142 137 123 111 101 115 100 33 7 5 5 7 2 0 0 1 5 3 0 0 0 0 0 0 0 0 0 0 0 0 0 0 0 0 0 0 0 0 0 0 0 0 0 0 0 0 0 0 
0 0 0 0 0 0 0 0 0 0 0 5 7 4 12 13 20 59 120 122 131 152 156 147 136 147 150 140 143 167 142 141 139 146 149 136 135 144 143 133 98 105 102 103 102 98 101 99 127 115 99 89 79 88 108 118 111 117 106 107 132 131 118 133 115 80 76 91 99 107 113 124 119 127 128 118 146 157 148 146 125 115 116 91 91 103 73 16 8 4 6 2 5 0 0 1 5 3 0 0 0 0 0 0 0 0 0 0 0 0 0 0 0 0 0 0 0 0 0 0 0 0 0 0 0 0 0 0 
0 0 0 0 0 0 0 0 0 0 0 2 9 6 12 15 17 34 106 120 120 136 143 154 138 142 129 122 132 175 173 148 130 130 146 148 132 129 144 123 106 101 101 113 113 113 116 96 135 141 126 116 105 108 134 136 103 103 100 123 135 133 116 118 111 79 68 76 104 120 112 128 140 144 132 142 155 154 166 153 133 126 103 66 98 104 42 10 6 3 6 2 4 2 0 1 5 3 0 0 0 0 0 0 0 0 0 0 0 0 0 0 0 0 0 0 0 0 0 0 0 0 0 0 0 0 0 0 
0 0 0 0 0 0 0 0 0 0 0 0 3 6 11 17 17 19 78 107 100 129 141 160 144 131 129 126 143 157 161 145 119 108 119 130 136 127 112 100 96 97 115 126 122 130 127 125 138 131 140 148 136 137 156 144 126 119 116 133 138 132 110 96 100 92 72 76 101 110 124 160 146 124 120 143 153 156 176 160 139 113 88 82 86 80 19 11 6 3 5 4 6 3 0 0 4 3 0 0 0 0 0 0 0 0 0 0 0 0 0 0 0 0 0 0 0 0 0 0 0 0 0 0 0 0 0 0 
0 0 0 0 0 0 0 0 0 0 0 0 1 2 4 9 12 15 49 105 110 109 150 157 167 136 133 138 153 150 150 143 118 106 112 119 122 122 98 74 75 87 111 116 129 136 123 127 146 142 138 139 153 160 151 134 133 124 113 122 138 143 130 117 111 100 73 79 93 122 138 126 119 114 117 135 148 162 169 161 138 98 86 96 86 54 9 11 6 4 5 5 5 1 0 0 4 3 0 0 0 0 0 0 0 0 0 0 0 0 0 0 0 0 0 0 0 0 0 0 0 0 0 0 0 0 0 0 
0 0 0 0 0 0 0 0 0 0 0 0 2 2 0 6 10 10 30 90 98 89 130 139 167 155 138 142 156 146 158 144 124 118 107 105 108 101 82 92 81 105 95 108 129 136 135 140 143 136 130 133 144 152 161 146 142 134 129 130 149 164 158 149 141 123 108 107 121 136 118 102 115 121 116 126 139 166 158 155 134 93 82 71 73 28 6 9 6 4 4 2 1 0 0 0 4 3 0 0 0 0 0 0 0 0 0 0 0 0 0 0 0 0 0 0 0 0 0 0 0 0 0 0 0 0 0 0 
0 0 0 0 0 0 0 0 0 0 0 0 3 2 0 6 11 10 18 66 102 96 113 139 146 145 157 155 145 132 148 152 125 119 110 116 117 111 107 108 129 131 127 134 147 143 141 139 128 123 123 119 119 136 152 152 148 131 113 113 126 154 156 159 143 140 134 127 139 112 90 91 114 128 111 132 150 172 159 147 135 107 90 74 70 17 6 9 6 4 5 1 0 0 0 0 4 2 0 0 0 0 0 0 0 0 0 0 0 0 0 0 0 0 0 0 0 0 0 0 0 0 0 0 0 0 0 0 
0 0 0 0 0 0 0 0 0 0 3 7 7 2 0 8 11 9 13 41 80 87 115 133 122 121 146 159 141 136 139 156 122 117 116 109 110 123 128 126 138 151 139 134 150 141 158 154 129 124 135 151 151 153 150 149 151 152 141 132 137 140 150 155 166 152 147 139 133 99 94 104 115 121 122 131 165 166 147 121 119 107 78 79 65 14 6 8 7 2 3 1 0 0 0 0 4 1 0 0 0 0 0 0 0 0 0 0 0 0 0 0 0 0 0 0 0 0 0 0 0 0 0 0 0 0 0 0 
0 0 0 0 0 0 0 0 0 0 2 7 14 13 7 6 9 9 11 28 78 92 107 116 92 107 129 139 140 139 138 146 118 106 106 103 96 98 106 112 122 144 162 156 156 154 163 161 140 136 149 165 164 157 145 154 156 155 135 140 151 152 146 150 154 131 132 136 130 103 92 97 101 121 140 152 147 159 144 103 92 84 71 77 59 16 6 5 3 2 2 2 0 0 0 0 4 1 0 0 0 0 0 0 0 0 0 0 0 0 0 0 0 0 0 0 0 0 0 0 0 0 0 0 0 0 0 0 
0 0 0 0 0 0 0 0 0 0 0 3 12 13 12 5 5 12 12 21 62 89 108 121 96 84 117 117 144 138 152 137 123 98 95 104 107 102 98 101 104 134 164 170 164 142 141 156 148 134 147 160 152 153 132 113 113 122 105 109 123 131 130 151 146 138 143 143 142 106 90 90 105 122 147 161 163 175 135 84 88 94 97 90 41 14 5 3 2 8 3 3 0 0 0 0 3 1 0 0 0 0 0 0 0 0 0 0 0 0 0 0 0 0 0 0 0 0 0 0 0 0 0 0 0 0 0 0 
0 0 0 0 0 0 0 0 0 0 0 5 12 10 8 7 6 12 16 18 31 82 115 129 102 102 110 121 150 143 121 117 117 108 93 99 109 117 115 109 103 142 157 166 169 154 122 136 147 143 141 150 151 142 130 103 89 98 106 110 122 132 137 127 141 139 140 148 154 116 97 96 90 118 153 159 160 161 122 77 85 91 78 71 19 13 7 3 3 6 8 7 8 6 5 0 3 1 0 0 0 0 0 0 0 0 0 0 0 0 0 0 0 0 0 0 0 0 0 0 0 0 0 0 0 0 0 0 
0 0 0 0 0 0 0 0 0 0 0 3 12 10 7 9 8 9 15 16 19 46 101 112 110 102 107 127 157 148 137 124 98 102 95 93 99 102 111 113 126 155 160 160 172 168 130 135 153 141 138 144 138 141 132 121 121 124 117 106 132 151 148 153 158 154 156 165 171 138 105 95 123 140 150 151 118 91 81 61 60 81 87 36 12 7 7 4 2 4 7 10 11 8 5 0 3 0 0 0 0 0 0 0 0 0 0 0 0 0 0 0 0 0 0 0 0 0 0 0 0 0 0 0 0 0 0 0 
0 0 0 0 0 0 0 0 0 0 0 0 10 12 6 7 6 5 12 13 21 27 60 107 106 92 105 137 140 155 153 149 125 107 92 81 86 83 93 130 136 167 156 155 173 175 145 152 168 175 173 153 148 169 181 166 163 179 171 153 161 162 152 155 152 161 161 167 161 173 139 125 128 138 115 100 93 76 73 65 91 84 49 16 9 0 1 3 6 5 5 3 8 4 0 0 3 0 0 0 0 0 0 0 0 0 0 0 0 0 0 0 0 0 0 0 0 0 0 0 0 0 0 0 0 0 0 0 
0 0 0 0 0 0 0 0 0 0 0 0 2 7 6 4 2 4 6 15 16 20 29 72 93 87 111 117 94 136 140 152 152 154 139 100 92 87 105 135 155 168 163 174 184 197 182 186 187 184 183 170 172 183 185 169 173 191 191 171 185 175 154 170 141 182 172 186 179 147 160 163 121 113 109 104 95 79 79 84 68 39 40 24 7 1 0 1 0 5 6 6 10 1 0 0 2 0 0 0 0 0 0 0 0 0 0 0 0 0 0 0 0 0 0 0 0 0 0 0 0 0 0 0 0 0 0 0 
0 0 0 0 0 0 0 0 0 0 0 0 0 1 4 3 1 0 1 9 15 21 21 34 88 105 77 53 48 69 65 96 131 139 141 135 100 111 130 146 158 143 142 158 201 193 187 159 166 156 168 157 156 167 167 172 177 187 186 180 179 170 162 169 150 186 190 170 165 149 135 126 114 113 107 106 101 68 56 48 43 35 26 17 15 0 0 0 0 4 4 11 9 0 0 0 2 0 0 0 0 0 0 0 0 0 0 0 0 0 0 0 0 0 0 0 0 0 0 0 0 0 0 0 0 0 0 0 
0 0 0 0 0 0 0 0 0 0 0 0 0 2 4 6 5 3 1 3 8 12 16 22 36 45 30 44 57 76 47 53 65 66 64 99 85 70 66 64 84 97 87 112 132 142 119 107 119 119 106 106 121 156 156 145 125 146 149 130 125 123 100 98 96 135 117 74 75 78 68 55 61 89 72 80 80 65 41 29 28 26 21 7 3 1 2 4 4 4 4 4 2 0 0 0 2 0 0 0 0 0 0 0 0 0 0 0 0 0 0 0 0 0 0 0 0 0 0 0 0 0 0 0 0 0 0 0 
0 0 0 0 0 0 0 0 0 0 0 0 0 0 2 0 4 4 2 1 4 9 11 15 22 22 22 38 62 81 50 64 46 43 38 47 65 59 63 54 77 72 62 69 105 114 96 94 101 116 81 83 111 112 119 120 89 86 102 94 96 115 83 65 58 88 121 94 103 115 67 57 61 75 57 72 75 63 39 26 29 26 16 6 2 2 3 2 1 1 2 2 1 0 0 0 2 0 0 0 0 0 0 0 0 0 0 0 0 0 0 0 0 0 0 0 0 0 0 0 0 0 0 0 0 0 0 0 
0 0 0 0 0 0 0 0 0 0 0 0 0 0 0 0 0 1 0 0 3 9 11 16 18 24 24 36 67 93 57 80 71 53 50 44 61 75 107 140 149 128 93 94 120 139 114 119 129 101 76 91 119 117 114 105 78 76 109 132 128 144 125 115 122 131 135 90 80 78 68 46 69 86 75 75 77 62 33 25 25 17 9 5 0 0 0 0 0 0 1 1 0 0 0 0 2 1 0 0 0 0 0 0 0 0 0 0 0 0 0 0 0 0 0 0 0 0 0 0 0 0 0 0 0 0 0 0 
0 0 0 0 0 0 0 0 0 0 0 0 0 0 0 0 0 0 0 0 0 4 7 8 10 23 29 43 84 105 81 93 104 100 101 72 76 96 102 123 159 153 153 162 166 173 179 154 141 108 108 116 131 144 147 152 134 129 146 172 170 173 179 174 174 161 169 161 120 122 135 82 74 71 62 74 69 59 35 30 18 9 6 5 1 0 0 0 0 0 0 0 0 0 0 0 2 2 0 0 0 0 0 0 0 0 0 0 0 0 0 0 0 0 0 0 0 0 0 0 0 0 0 0 0 0 0 0 
0 0 0 0 0 0 0 0 0 0 0 0 0 0 0 0 0 0 0 0 0 2 3 2 4 20 28 36 80 98 92 88 95 114 115 58 74 89 107 76 131 140 186 183 155 161 147 152 111 143 171 171 176 183 191 188 172 174 182 174 160 179 192 192 172 173 154 153 120 127 132 116 84 56 32 53 63 47 34 33 11 3 0 2 0 0 0 0 0 0 0 0 0 0 0 0 1 4 0 0 0 0 0 0 0 0 0 0 0 0 0 0 0 0 0 0 0 0 0 0 0 0 0 0 0 0 0 0 
0 0 0 0 0 0 0 0 0 0 0 0 0 0 0 0 0 0 0 0 0 0 3 2 8 14 23 25 51 82 88 67 86 92 127 87 79 102 100 69 117 119 123 112 128 138 114 135 126 129 125 127 146 150 156 151 151 157 154 143 139 134 132 150 163 106 139 128 142 118 79 60 50 62 73 83 80 41 25 27 5 6 5 1 0 0 0 0 0 0 0 0 0 0 1 2 8 14 0 0 0 0 0 0 0 0 0 0 0 0 0 0 0 0 0 0 0 0 0 0 0 0 0 0 0 0 0 0 
0 0 0 0 0 0 0 0 0 0 0 0 0 0 0 0 0 0 0 0 0 0 4 8 11 15 17 20 37 51 85 65 84 65 74 53 71 92 111 99 91 87 75 81 94 80 91 124 154 118 85 69 106 109 112 114 127 128 110 104 89 104 129 119 122 132 161 148 138 120 96 75 58 82 100 86 83 42 20 18 19 14 6 1 0 0 0 0 0 0 0 0 0 0 0 0 4 1 0 0 0 0 0 0 0 0 0 0 0 0 0 0 0 0 0 0 0 0 0 0 0 0 0 0 0 0 0 0 
0 0 0 0 0 0 0 0 0 0 0 0 0 0 0 0 0 0 0 0 0 0 2 6 9 12 18 20 29 40 74 72 90 68 67 34 54 68 72 77 85 88 92 106 104 99 108 146 149 89 86 80 87 88 84 93 106 112 107 103 97 89 111 129 111 112 118 116 116 103 87 61 45 66 121 95 77 43 23 20 18 12 6 1 0 0 0 0 0 0 0 0 0 0 0 0 3 0 0 0 0 0 0 0 0 0 0 0 0 0 0 0 0 0 0 0 0 0 0 0 0 0 0 0 0 0 0 0 
0 0 0 0 0 0 0 0 0 0 0 0 0 0 0 0 0 0 0 0 0 0 1 5 6 12 15 21 25 37 64 72 86 74 63 34 39 45 72 100 100 101 96 82 101 94 117 141 136 83 90 98 96 89 86 90 88 97 117 123 125 110 122 121 101 89 106 118 97 86 67 57 39 47 120 104 76 46 24 20 16 11 4 0 0 0 0 0 0 0 0 0 0 0 0 0 2 0 0 0 0 0 0 0 0 0 0 0 0 0 0 0 0 0 0 0 0 0 0 0 0 0 0 0 0 0 0 0 
0 0 0 0 0 0 0 0 0 0 0 0 0 0 0 0 0 0 0 0 0 0 0 3 5 9 13 19 24 33 62 71 79 79 67 40 50 56 59 59 70 98 91 73 95 105 124 134 135 107 103 106 102 97 104 99 96 100 110 132 152 159 138 102 105 83 84 118 109 86 69 65 51 38 104 107 72 44 27 18 15 10 3 0 0 0 0 0 0 0 0 0 0 0 0 0 2 0 0 0 0 0 0 0 0 0 0 0 0 0 0 0 0 0 0 0 0 0 0 0 0 0 0 0 0 0 0 0 
0 0 0 0 0 0 0 0 0 0 0 0 0 0 0 0 0 0 0 0 0 0 0 0 5 6 12 15 21 27 54 60 76 77 74 51 60 45 39 54 81 91 72 80 106 115 128 120 116 122 127 111 108 106 99 100 102 108 113 126 135 146 100 90 98 100 74 80 106 86 63 70 72 42 85 104 78 52 27 17 15 9 1 0 0 0 0 0 0 0 0 0 0 0 0 0 2 0 0 0 0 0 0 0 0 0 0 0 0 0 0 0 0 0 0 0 0 0 0 0 0 0 0 0 0 0 0 0 
0 0 0 0 0 0 0 0 0 0 0 0 0 0 0 0 0 0 0 0 0 0 0 0 1 5 9 11 18 25 46 40 74 66 87 66 68 46 43 67 84 77 66 92 105 111 124 107 86 121 142 114 109 100 86 90 92 100 119 111 114 106 85 92 103 109 97 69 83 74 55 56 82 66 80 102 77 54 19 15 17 7 1 0 0 0 0 0 0 0 0 0 0 0 0 0 2 0 0 0 0 0 0 0 0 0 0 0 0 0 0 0 0 0 0 0 0 0 0 0 0 0 0 0 0 0 0 0 
0 0 0 0 0 0 0 0 0 0 0 0 0 0 0 0 0 0 0 0 0 0 0 0 0 3 7 9 17 21 35 46 70 60 91 65 63 47 46 60 76 73 70 87 94 102 116 82 61 100 131 117 100 81 77 82 91 91 100 118 121 93 78 97 94 89 95 79 77 75 57 50 78 80 88 81 49 24 18 16 17 8 1 0 0 0 0 0 0 0 0 0 0 0 0 0 2 0 0 0 0 0 0 0 0 0 0 0 0 0 0 0 0 0 0 0 0 0 0 0 0 0 0 0 0 0 0 0 
0 0 0 0 0 0 0 0 0 0 0 0 0 0 0 0 0 0 0 0 0 0 0 0 0 2 4 11 14 18 22 39 38 44 75 61 60 54 62 60 75 77 72 78 88 99 106 72 52 83 122 118 105 89 82 74 83 91 98 116 105 71 70 94 98 84 78 81 87 83 72 64 71 77 96 51 19 16 16 17 17 8 0 0 0 0 0 0 0 0 0 0 0 0 0 0 1 0 0 0 0 0 0 0 0 0 0 0 0 0 0 0 0 0 0 0 0 0 0 0 0 0 0 0 0 0 0 0 
0 0 0 0 0 0 0 0 0 0 0 0 0 0 0 0 0 0 0 0 0 0 0 0 0 0 2 8 11 18 19 23 19 15 33 68 79 86 80 60 77 74 63 51 68 85 98 68 51 82 110 111 89 74 63 66 86 94 101 115 106 78 70 85 98 89 68 69 81 85 75 97 102 85 74 31 19 15 16 17 15 8 0 0 0 0 0 0 0 0 0 0 0 0 0 0 1 0 0 0 0 0 0 0 0 0 0 0 0 0 0 0 0 0 0 0 0 0 0 0 0 0 0 0 0 0 0 0 
0 0 0 0 0 0 0 0 0 0 0 0 0 0 0 0 0 0 0 0 0 0 0 0 0 0 1 6 8 12 18 18 21 18 11 38 80 93 65 54 86 84 63 48 60 76 89 67 64 86 105 112 101 90 77 73 85 93 108 120 110 81 74 80 102 90 61 67 86 95 69 82 103 78 39 24 16 14 15 16 13 7 1 0 0 0 0 0 0 0 0 0 0 0 0 0 1 0 0 0 0 0 0 0 0 0 0 0 0 0 0 0 0 0 0 0 0 0 0 0 0 0 0 0 0 0 0 0 
0 0 0 0 0 0 0 0 0 0 0 0 0 0 0 0 0 0 0 0 0 0 0 0 0 0 0 2 8 7 17 17 18 19 12 8 26 53 52 59 96 100 65 49 71 99 94 77 85 102 111 109 98 81 66 71 92 104 112 128 114 87 82 68 97 107 66 64 91 114 81 66 61 31 23 20 14 15 15 16 12 7 1 0 0 0 0 0 0 0 0 0 0 0 0 0 1 0 0 0 0 0 0 0 0 0 0 0 0 0 0 0 0 0 0 0 0 0 0 0 0 0 0 0 0 0 0 0 
0 0 0 0 0 0 0 0 0 0 0 0 0 0 0 0 0 0 0 0 0 0 0 0 0 0 0 2 5 6 11 16 19 18 14 9 16 32 55 65 99 113 72 56 99 126 91 64 68 103 127 117 104 87 81 97 106 103 108 128 103 89 89 71 91 119 90 67 95 119 83 64 34 22 18 16 14 17 14 16 10 6 1 0 0 0 0 0 0 0 0 0 0 0 0 0 1 0 0 0 0 0 0 0 0 0 0 0 0 0 0 0 0 0 0 0 0 0 0 0 0 0 0 0 0 0 0 0 
0 0 0 0 0 0 0 0 0 0 0 0 0 0 0 0 0 0 0 0 0 0 0 0 0 0 0 1 3 7 8 13 17 19 16 11 12 23 30 45 70 103 87 73 106 122 81 55 71 118 136 124 103 93 96 105 95 91 107 130 127 107 92 66 85 117 105 83 102 93 51 36 26 23 17 16 12 13 14 14 10 6 1 0 0 0 0 0 0 0 0 0 0 0 0 0 1 0 0 0 0 0 0 0 0 0 0 0 0 0 0 0 0 0 0 0 0 0 0 0 0 0 0 0 0 0 0 0 
0 0 0 0 0 0 0 0 0 0 0 0 0 0 0 0 0 0 0 0 0 0 0 0 0 0 0 0 1 8 7 11 16 16 16 13 9 21 25 27 34 65 100 92 110 112 79 68 80 115 135 115 89 81 83 86 78 77 90 112 130 129 106 79 81 107 108 97 98 49 30 30 26 22 21 16 12 14 14 12 9 5 1 0 0 0 0 0 0 0 0 0 0 0 0 0 1 0 0 0 0 0 0 0 0 0 0 0 0 0 0 0 0 0 0 0 0 0 0 0 0 0 0 0 0 0 0 0 
0 0 0 0 0 0 0 0 0 0 0 0 0 0 0 0 0 0 0 0 0 0 0 0 0 0 0 0 0 6 7 9 13 16 15 12 11 18 26 27 31 36 51 72 79 77 76 73 79 111 128 102 78 75 80 81 81 80 87 83 108 132 120 93 81 81 80 72 49 40 31 28 21 22 18 14 10 15 13 11 9 4 1 0 0 0 0 0 0 0 0 0 0 0 0 0 1 0 0 0 0 0 0 0 0 0 0 0 0 0 0 0 0 0 0 0 0 0 0 0 0 0 0 0 0 0 0 0 
0 0 0 0 0 0 0 0 0 0 0 0 0 0 0 0 0 0 0 0 0 0 0 0 0 0 0 0 0 4 8 8 12 15 14 10 11 18 26 26 31 34 31 36 42 53 66 81 78 84 107 100 92 99 113 119 114 111 113 101 110 118 104 103 77 50 44 47 45 43 28 25 21 24 20 11 13 14 13 11 9 3 1 0 0 0 0 0 0 0 0 0 0 0 0 0 1 0 0 0 0 0 0 0 0 0 0 0 0 0 0 0 0 0 0 0 0 0 0 0 0 0 0 0 0 0 0 0 
