P2
128 99
213
0 0 0 0 0 0 0 0 0 0 0 0 0 0 0 0 0 0 0 0 0 0 0 0 0 0 0 0 0 0 0 0 0 0 0 0 0 0 0 0 0 0 0 0 0 0 0 0 0 0 0 0 0 0 0 0 0 0 0 0 0 0 0 0 0 0 0 0 0 0 0 0 0 0 0 0 0 0 0 0 0 0 0 0 0 0 0 0 0 0 0 0 0 0 0 0 0 0 0 0 0 0 0 0 0 0 0 0 0 0 0 0 0 0 0 0 0 0 0 0 0 0 0 0 0 0 0 0 
0 0 0 0 0 0 0 0 0 0 0 0 0 0 0 0 0 0 0 0 0 0 0 0 0 0 0 0 0 0 0 0 0 0 0 0 0 0 0 0 0 0 0 0 0 0 0 0 0 0 0 0 0 0 0 0 0 0 0 0 0 0 0 0 0 0 0 0 0 0 0 0 0 0 0 0 0 0 0 0 0 0 0 0 0 0 0 0 0 0 0 0 0 0 0 0 0 0 0 0 0 0 0 0 0 0 0 0 0 0 0 0 0 0 0 0 0 0 0 0 0 0 0 0 0 0 0 0 
0 0 0 0 0 0 0 0 0 0 0 0 0 0 0 0 0 0 0 0 0 0 0 0 0 0 0 0 0 0 0 0 0 0 0 0 0 0 0 0 0 0 0 0 0 0 0 0 0 0 0 0 2 4 3 0 0 0 0 0 0 0 0 0 0 0 0 0 0 0 0 0 0 0 0 0 0 0 0 0 0 0 0 0 0 0 0 0 0 0 0 0 0 0 0 0 0 0 0 0 0 0 0 0 0 0 0 0 0 0 0 0 0 0 0 0 0 0 0 0 0 0 0 0 0 0 0 0 
0 0 0 0 0 0 0 0 0 0 0 0 0 0 0 0 0 0 0 0 0 0 0 0 0 0 0 0 0 0 0 0 0 0 0 0 0 0 0 0 0 0 0 0 7 14 17 17 16 19 22 25 28 27 25 22 19 17 13 11 5 0 0 0 0 0 0 0 0 0 0 0 0 0 0 0 0 0 0 0 0 0 0 0 0 0 0 0 0 0 0 0 0 0 0 0 0 0 0 0 0 0 0 0 0 0 0 0 0 0 0 0 0 0 0 0 0 0 0 0 0 0 0 0 0 0 0 0 
0 0 0 0 0 0 0 0 0 0 0 0 0 0 0 0 0 0 0 0 0 0 0 0 0 0 0 0 0 0 0 0 0 0 0 0 0 0 0 0 3 13 19 19 25 36 54 76 95 115 130 141 145 145 142 134 121 103 80 53 33 24 16 11 3 0 0 0 0 0 0 0 0 0 0 0 0 0 0 0 0 0 0 0 0 0 0 0 0 0 0 0 0 0 0 0 0 0 0 0 0 0 0 0 0 0 0 0 0 0 0 0 0 0 0 0 0 0 0 0 0 0 0 0 0 0 0 0 
0 0 0 0 0 0 0 0 0 0 0 0 0 0 0 0 0 0 0 0 0 0 0 0 0 0 0 0 0 0 0 0 0 0 0 0 0 1 6 19 23 25 34 66 106 140 160 169 174 177 176 175 175 173 173 172 171 171 166 159 142 113 77 44 25 14 11 1 0 0 0 0 0 0 0 0 0 0 0 0 0 0 0 0 0 0 0 0 0 0 0 0 0 0 0 0 0 0 0 0 0 0 0 0 0 0 0 0 0 0 0 0 0 0 0 0 0 0 0 0 0 0 0 0 0 0 0 0 
0 0 0 0 0 0 0 0 0 0 0 0 0 0 0 0 0 0 0 0 0 0 0 0 0 0 0 0 0 0 0 0 0 0 0 1 7 22 25 26 49 98 141 163 178 180 177 177 181 184 185 187 189 189 188 187 184 182 181 179 175 169 163 147 115 73 36 18 13 2 0 0 0 0 0 0 0 0 0 0 0 0 0 0 0 0 0 0 0 0 0 0 0 0 0 0 0 0 0 0 0 0 0 0 0 0 0 0 0 0 0 0 0 0 0 0 0 0 0 0 0 0 0 0 0 0 0 0 
0 0 0 0 0 0 0 0 0 0 0 0 0 0 0 0 0 0 0 0 0 0 0 0 0 0 0 0 0 0 0 0 0 0 8 26 22 26 60 120 156 173 181 179 178 182 180 177 176 178 181 183 178 168 166 180 193 201 199 192 184 178 177 173 168 162 140 94 46 22 13 2 0 0 0 0 0 0 0 0 0 0 0 0 0 0 0 0 0 0 0 0 0 0 0 0 0 0 0 0 0 0 0 0 0 0 0 0 0 0 0 0 0 0 0 0 0 0 0 0 0 0 0 0 0 0 0 0 
0 0 0 0 0 0 0 0 0 0 0 0 0 0 0 0 0 0 0 0 0 0 0 0 0 0 0 0 0 0 0 0 5 26 24 26 58 123 159 175 178 173 179 185 186 186 183 167 151 145 148 153 152 144 144 147 151 163 180 192 197 199 192 182 175 175 171 167 146 96 46 25 10 0 0 0 0 0 0 0 0 0 0 0 0 0 0 0 0 0 0 0 0 0 0 0 0 0 0 0 0 0 0 0 0 0 0 0 0 0 0 0 0 0 0 0 0 0 0 0 0 0 0 0 0 0 0 0 
0 0 0 0 0 0 0 0 0 0 0 0 0 0 0 0 0 0 0 0 0 0 0 0 0 0 0 0 0 0 0 24 26 20 39 107 158 173 175 171 176 186 193 187 171 152 139 129 130 133 139 145 144 140 142 142 145 152 157 171 186 188 190 195 195 186 178 174 171 166 139 75 31 18 3 0 0 0 0 0 0 0 0 0 0 0 0 0 0 0 0 0 0 0 0 0 0 0 0 0 0 0 0 0 0 0 0 0 0 0 0 0 0 0 0 0 0 0 0 0 0 0 0 0 0 0 0 0 
0 0 0 0 0 0 0 0 0 0 0 0 0 0 0 0 0 0 0 0 0 0 0 0 0 0 0 0 0 11 28 19 24 83 149 169 174 169 173 186 197 192 164 148 148 150 148 146 141 130 115 118 117 117 135 139 142 145 148 151 168 183 192 193 191 191 196 190 181 177 172 162 113 47 21 5 0 0 0 0 0 0 0 0 0 0 0 0 0 0 0 0 0 0 0 0 0 0 0 0 0 0 0 0 0 0 0 0 0 0 0 0 0 0 0 0 0 0 0 0 0 0 0 0 0 0 0 0 
0 0 0 0 0 0 0 0 0 0 0 0 0 0 0 0 0 0 0 0 0 0 0 0 0 0 0 0 23 22 16 49 126 163 171 168 175 185 198 193 164 153 160 157 150 139 133 125 131 137 137 138 140 142 145 147 135 129 133 139 148 159 170 184 196 197 192 190 194 191 182 178 170 143 65 23 10 0 0 0 0 0 0 0 0 0 0 0 0 0 0 0 0 0 0 0 0 0 0 0 0 0 0 0 0 0 0 0 0 0 0 0 0 0 0 0 0 0 0 0 0 0 0 0 0 0 0 0 
0 0 0 0 0 0 0 0 0 0 0 0 0 0 0 0 0 0 0 0 0 0 0 0 0 0 4 27 21 24 77 149 166 172 172 185 196 195 172 160 165 161 143 134 125 129 132 137 146 143 138 137 131 126 135 150 152 151 149 147 147 158 163 164 171 184 197 199 193 188 194 187 178 170 152 83 25 12 0 0 0 0 0 0 0 0 0 0 0 0 0 0 0 0 0 0 0 0 0 0 0 0 0 0 0 0 0 0 0 0 0 0 0 0 0 0 0 0 0 0 0 0 0 0 0 0 0 0 
0 0 0 0 0 0 0 0 0 0 0 0 0 0 0 0 0 0 0 0 0 0 0 0 0 9 26 18 26 97 156 169 174 181 191 199 182 166 167 161 151 140 138 141 151 156 154 147 132 119 104 102 103 108 118 133 147 150 147 145 146 153 170 175 170 170 172 184 195 196 192 195 191 179 172 157 92 26 13 0 0 0 0 0 0 0 0 0 0 0 0 0 0 0 0 0 0 0 0 0 0 0 0 0 0 0 0 0 0 0 0 0 0 0 0 0 0 0 0 0 0 0 0 0 0 0 0 0 
0 0 0 0 0 0 0 0 0 0 0 0 0 0 0 0 0 0 0 0 0 0 0 0 13 23 17 34 112 158 168 177 187 198 194 174 167 162 151 144 149 161 166 160 149 138 130 127 126 121 121 125 127 125 124 125 132 143 144 142 141 139 142 157 170 176 172 167 169 182 193 193 196 193 175 170 160 100 30 13 0 0 0 0 0 0 0 0 0 0 0 0 0 0 0 0 0 0 0 0 0 0 0 0 0 0 0 0 0 0 0 0 0 0 0 0 0 0 0 0 0 0 0 0 0 0 0 0 
0 0 0 0 0 0 0 0 0 0 0 0 0 0 0 0 0 0 0 0 0 0 2 19 21 16 44 125 157 168 181 188 199 184 166 160 153 148 156 169 171 158 142 128 117 111 110 115 117 119 123 121 119 122 122 120 120 124 129 135 139 138 138 142 150 157 165 170 164 161 168 184 190 195 194 173 170 162 110 35 11 0 0 0 0 0 0 0 0 0 0 0 0 0 0 0 0 0 0 0 0 0 0 0 0 0 0 0 0 0 0 0 0 0 0 0 0 0 0 0 0 0 0 0 0 0 0 0 
0 0 0 0 0 0 0 0 0 0 0 0 0 0 0 0 0 0 0 0 0 6 17 17 18 57 135 156 169 184 190 198 174 156 152 149 149 164 171 162 148 128 116 121 118 121 124 126 131 132 126 106 106 122 121 122 125 126 126 127 130 134 136 142 141 145 152 156 169 167 157 165 178 185 194 193 177 176 162 116 36 10 0 0 0 0 0 0 0 0 0 0 0 0 0 0 0 0 0 0 0 0 0 0 0 0 0 0 0 0 0 0 0 0 0 0 0 0 0 0 0 0 0 0 0 0 0 0 
0 0 0 0 0 0 0 0 0 0 0 0 0 0 0 0 0 0 0 0 8 16 14 17 68 141 153 171 185 192 195 166 147 152 151 154 169 158 145 131 124 121 122 124 127 125 125 122 123 126 110 95 96 114 117 116 119 119 112 115 117 121 126 133 138 138 137 141 149 165 163 150 157 170 176 193 194 178 174 161 120 35 5 0 0 0 0 0 0 0 0 0 0 0 0 0 0 0 0 0 0 0 0 0 0 0 0 0 0 0 0 0 0 0 0 0 0 0 0 0 0 0 0 0 0 0 0 0 
0 0 0 0 0 0 0 0 0 0 0 0 0 0 0 0 0 0 0 7 15 13 20 73 143 153 173 184 189 193 159 142 149 148 157 165 146 131 122 114 117 118 116 119 122 121 119 121 117 106 103 100 102 109 120 124 126 123 113 108 107 109 111 116 121 127 127 130 136 149 157 154 138 151 169 175 194 194 176 172 160 114 27 3 0 0 0 0 0 0 0 0 0 0 0 0 0 0 0 0 0 0 0 0 0 0 0 0 0 0 0 0 0 0 0 0 0 0 0 0 0 0 0 0 0 0 0 0 
0 0 0 0 0 0 0 0 0 0 0 0 0 0 0 0 0 0 5 16 10 20 80 142 152 170 178 188 187 152 140 146 153 158 163 134 120 112 113 114 113 115 123 126 114 104 108 108 91 85 90 103 108 107 107 115 121 122 123 122 118 114 108 100 103 115 125 126 128 138 143 155 148 131 150 165 166 195 192 172 167 153 102 21 1 0 0 0 0 0 0 0 0 0 0 0 0 0 0 0 0 0 0 0 0 0 0 0 0 0 0 0 0 0 0 0 0 0 0 0 0 0 0 0 0 0 0 0 
0 0 0 0 0 0 0 0 0 0 0 0 0 0 0 0 0 1 15 11 22 80 138 150 168 180 186 184 150 138 144 155 153 156 131 112 106 114 118 122 125 128 119 105 95 90 89 91 89 88 88 92 96 95 95 95 97 101 108 115 122 125 121 114 103 99 110 125 129 124 132 142 155 140 134 150 157 165 201 184 170 167 147 81 11 0 0 0 0 0 0 0 0 0 0 0 0 0 0 0 0 0 0 0 0 0 0 0 0 0 0 0 0 0 0 0 0 0 0 0 0 0 0 0 0 0 0 0 
0 0 0 0 0 0 0 0 0 0 0 0 0 0 0 0 0 12 11 17 75 132 148 163 178 183 181 153 134 145 156 148 151 129 108 104 117 126 130 130 122 106 94 90 87 87 86 88 92 87 86 86 86 97 98 93 91 88 88 92 100 108 118 123 118 110 101 114 128 125 120 126 137 153 139 134 149 150 175 197 179 172 160 133 51 3 0 0 0 0 0 0 0 0 0 0 0 0 0 0 0 0 0 0 0 0 0 0 0 0 0 0 0 0 0 0 0 0 0 0 0 0 0 0 0 0 0 0 
0 0 0 0 0 0 0 0 0 0 0 0 0 0 0 0 7 13 13 62 124 144 160 176 179 178 157 130 139 154 144 146 128 110 111 121 131 135 129 115 98 88 84 84 84 88 91 94 95 97 98 99 102 111 114 114 114 109 103 92 85 86 89 102 116 120 113 107 115 124 114 117 130 141 147 131 138 147 144 184 193 178 169 150 108 24 2 0 0 0 0 0 0 0 0 0 0 0 0 0 0 0 0 0 0 0 0 0 0 1 0 0 0 0 0 0 0 0 0 0 0 0 0 0 0 0 0 0 
0 0 0 0 0 0 0 0 0 0 0 0 0 0 0 1 14 11 47 116 135 155 171 179 174 158 125 138 153 142 141 132 113 114 125 136 130 123 110 92 80 74 67 69 76 87 100 111 119 120 123 122 121 121 119 115 119 117 115 108 96 86 81 83 96 117 121 113 105 114 116 110 115 131 141 137 133 142 139 150 184 185 173 158 137 73 6 0 0 0 0 0 0 0 0 0 0 0 0 0 0 0 0 0 0 0 0 0 0 1 0 0 0 0 0 0 0 0 0 0 0 0 0 0 0 0 0 0 
0 0 0 0 0 0 0 0 0 0 0 0 0 0 0 7 11 24 100 129 145 163 174 176 153 133 126 153 142 138 137 117 113 121 131 125 117 103 86 73 65 69 74 83 94 107 115 115 117 118 116 114 109 108 108 109 112 114 115 120 113 100 86 74 77 97 119 122 113 106 112 113 108 115 137 145 132 135 141 137 163 181 178 165 150 113 27 1 0 0 0 0 0 0 0 0 0 0 0 0 0 0 0 0 0 0 0 0 0 0 0 0 0 0 0 0 0 0 0 0 0 0 0 0 0 0 0 0 
0 0 0 0 0 0 0 0 0 0 0 0 0 0 2 9 11 69 122 133 157 167 172 159 138 122 147 143 136 144 128 113 116 128 128 109 95 83 74 64 67 79 94 107 114 110 106 98 98 103 101 103 99 100 102 103 104 106 113 121 122 120 109 92 74 74 96 119 119 111 109 113 105 109 123 148 142 124 139 128 147 163 180 172 158 136 65 4 0 0 0 0 0 0 0 0 0 0 0 0 0 0 0 0 0 0 0 0 0 0 0 0 0 0 0 0 0 0 0 0 0 0 0 0 0 0 0 0 
0 0 0 0 0 0 0 0 0 0 0 0 0 0 7 8 34 111 124 144 161 169 159 144 130 132 143 128 144 136 116 113 125 127 113 85 81 80 72 71 83 100 114 116 112 108 102 97 93 99 101 102 101 97 79 83 100 101 102 107 112 123 123 115 93 75 74 98 114 116 112 110 109 109 114 135 158 117 123 130 134 147 172 178 159 144 101 14 0 0 0 0 0 0 0 0 0 0 0 0 0 0 0 0 0 0 0 0 0 0 0 0 0 0 0 0 0 0 0 0 0 0 0 0 0 0 0 0 
0 0 0 0 0 0 0 0 0 0 0 0 0 0 8 14 79 123 129 157 163 161 149 133 136 138 126 131 140 116 112 119 123 117 94 80 82 78 74 86 107 118 121 114 108 108 105 100 99 99 97 98 100 83 75 80 85 91 99 108 112 115 118 119 116 100 77 79 101 115 120 116 109 110 109 122 153 139 107 127 132 146 158 176 156 150 123 37 2 0 0 0 0 0 0 0 0 0 0 0 0 0 0 0 0 0 0 0 0 0 0 0 0 0 0 0 0 0 0 0 0 0 0 0 0 0 0 0 
0 0 0 0 0 0 0 0 0 0 0 0 0 2 7 33 109 123 141 162 156 153 140 128 136 132 124 133 129 108 119 124 119 96 83 85 81 78 87 108 118 115 110 108 106 106 106 103 103 98 91 96 104 93 99 106 99 90 96 102 103 105 108 107 110 118 101 80 85 106 118 122 115 115 108 116 140 150 101 111 128 146 149 173 162 153 130 62 3 0 0 0 0 0 0 0 0 0 0 0 0 0 0 0 0 0 0 0 0 0 0 0 0 0 0 0 0 0 0 0 0 0 0 0 0 0 0 0 
0 0 0 0 0 0 0 0 0 0 0 0 0 3 8 64 118 122 155 158 147 143 132 135 131 124 117 131 115 114 132 125 106 81 81 82 79 89 112 117 107 98 95 98 102 103 106 113 118 114 109 114 115 117 123 121 113 106 105 98 96 97 99 102 102 111 119 102 83 91 111 122 118 115 115 112 128 148 105 100 117 146 141 167 168 153 134 80 6 0 0 0 0 0 0 0 0 0 0 0 0 0 0 0 0 0 0 0 0 0 0 0 0 0 0 0 0 0 0 0 0 0 0 0 0 0 0 0 
0 0 0 0 0 0 0 0 0 0 0 0 0 6 17 86 119 132 162 147 140 130 131 134 119 117 108 128 112 123 133 115 89 76 81 82 92 115 117 105 92 71 71 85 104 111 114 123 125 126 128 131 129 131 136 131 124 120 120 118 110 101 99 100 99 97 111 120 104 86 101 119 119 113 121 112 116 141 116 98 108 139 139 158 172 152 140 94 10 0 0 0 0 0 0 0 0 0 0 0 0 0 0 0 0 0 0 0 0 1 0 0 0 0 0 0 0 0 0 0 0 0 0 0 0 0 0 0 
0 0 0 0 0 0 0 0 0 0 0 0 1 5 34 108 115 144 160 138 130 126 136 133 112 104 102 127 118 131 123 95 79 82 85 99 121 122 107 84 68 73 78 83 95 120 132 131 134 138 139 139 141 144 145 139 134 132 133 138 130 115 98 98 102 96 97 113 127 111 99 112 119 115 116 119 115 137 118 98 102 132 142 157 175 154 142 106 14 0 0 0 0 0 0 0 0 0 0 0 0 0 0 0 0 0 0 0 0 0 0 0 0 0 0 0 0 0 0 0 0 0 0 0 0 0 0 0 
0 0 0 0 0 0 0 0 0 0 0 0 2 7 47 119 121 155 148 132 119 124 135 127 106 98 107 135 125 123 105 80 79 88 105 130 129 112 88 71 75 78 85 95 104 127 142 131 128 132 132 134 134 133 128 126 128 130 136 132 113 107 101 94 93 102 99 106 129 135 119 103 113 116 113 121 110 130 115 103 95 131 144 152 178 158 145 118 23 0 0 0 0 0 0 0 0 0 0 0 0 0 0 0 0 0 0 0 0 0 0 0 0 0 0 0 0 0 0 0 0 0 0 0 0 0 0 0 
0 0 0 0 0 0 0 0 0 0 0 0 2 7 59 119 125 155 134 130 119 127 138 122 105 91 111 137 123 104 88 76 82 106 135 139 121 102 81 79 81 86 93 102 109 115 133 131 123 124 129 134 128 128 126 124 124 127 117 107 114 113 107 99 97 100 103 107 112 128 134 118 108 114 112 118 107 119 114 111 96 136 146 148 176 166 149 131 37 1 0 0 0 0 0 0 0 0 0 0 0 0 0 0 0 0 0 0 0 0 0 0 0 0 0 0 0 0 0 0 0 0 0 0 0 0 0 0 
0 0 0 0 0 0 0 0 0 0 0 0 2 8 67 119 136 160 135 131 121 124 137 123 103 90 116 138 113 88 81 77 99 131 143 135 104 95 94 84 86 91 96 107 110 110 105 112 110 114 123 132 128 124 118 107 99 104 101 92 106 114 112 104 101 107 120 115 102 111 128 134 119 112 113 114 113 109 111 111 99 138 148 149 170 168 150 142 49 3 0 0 0 0 0 0 0 0 0 0 0 0 0 0 0 0 0 0 0 0 0 0 0 0 0 0 0 0 0 0 0 0 0 0 0 0 0 0 
0 0 0 0 0 0 0 0 0 0 0 0 4 11 75 122 142 156 137 129 130 122 135 122 100 93 121 136 98 78 81 89 125 146 139 125 110 96 100 102 102 103 102 109 111 107 101 96 86 101 114 119 120 120 113 94 89 90 90 89 98 112 113 113 112 124 128 115 102 104 114 127 135 130 118 113 116 103 106 111 104 138 148 149 174 173 151 148 59 4 0 0 0 0 0 0 0 0 0 0 0 0 0 0 0 0 0 0 0 0 0 0 0 0 0 0 0 0 0 0 0 0 0 0 0 0 0 0 
0 0 0 0 0 0 0 0 0 0 0 0 5 11 81 123 149 156 142 131 135 124 133 118 98 99 120 137 91 74 88 115 136 135 130 118 105 98 100 104 106 108 110 110 110 106 102 92 88 91 101 110 111 113 103 90 89 89 90 89 99 112 115 119 114 110 111 103 84 73 80 101 127 149 151 127 120 99 104 114 115 137 142 141 171 175 154 150 72 5 0 0 0 0 0 0 0 0 0 0 0 0 0 0 0 0 0 0 0 0 0 0 0 0 0 0 0 0 0 0 0 0 0 0 0 0 0 0 
0 0 0 0 0 0 0 0 0 0 0 0 5 12 88 127 154 155 140 134 142 131 137 126 101 109 117 128 91 75 110 127 127 127 113 103 97 94 93 97 98 101 101 104 112 110 106 102 89 88 85 93 106 107 92 90 88 89 88 89 107 114 102 92 93 97 107 104 89 73 68 68 86 138 173 163 131 95 109 122 128 135 135 139 168 176 159 152 86 7 0 0 0 0 0 0 0 0 0 0 0 0 0 0 0 0 0 0 0 0 0 0 0 0 0 0 0 0 0 0 0 0 0 0 0 0 0 0 
0 0 0 0 0 0 0 0 0 0 0 0 5 13 94 131 158 154 141 137 144 132 135 130 110 123 119 118 101 97 128 121 120 108 98 93 92 90 92 94 92 90 89 92 95 95 99 107 98 88 85 84 95 101 85 89 88 88 91 105 106 93 90 97 101 108 116 118 107 94 84 74 74 108 168 175 152 108 117 133 133 124 131 135 159 176 161 152 99 10 0 0 0 0 0 0 0 0 0 0 0 0 0 0 0 0 0 0 0 0 0 0 0 0 0 0 0 0 0 0 0 0 0 0 0 0 0 0 
0 0 0 0 0 0 0 0 0 0 0 0 8 12 95 133 158 148 137 134 140 131 130 127 116 126 128 111 110 123 129 123 103 95 97 93 94 97 108 114 108 98 91 86 86 94 95 100 105 97 92 88 95 104 95 95 90 93 107 112 97 88 102 105 112 115 122 132 123 109 100 93 92 104 143 174 166 129 125 134 126 117 127 129 150 169 160 153 111 14 0 0 0 0 0 0 0 0 0 0 0 0 0 0 0 0 0 0 0 0 0 0 0 0 0 0 0 0 0 0 0 0 0 0 0 0 0 0 
0 0 0 0 0 0 0 0 0 0 0 0 8 13 95 135 165 153 134 130 133 131 127 117 115 124 131 113 125 137 130 112 90 96 100 105 112 117 116 111 111 112 109 95 84 85 95 100 107 106 109 110 117 114 118 109 107 107 108 112 91 94 86 89 95 95 105 114 108 100 98 91 102 114 127 146 154 142 133 127 123 111 121 123 137 166 160 151 119 21 0 0 0 0 0 0 0 0 0 0 0 0 0 0 0 0 0 0 0 0 0 0 0 0 0 0 0 0 0 0 0 0 0 0 0 0 0 0 
0 0 0 0 0 0 0 0 0 0 0 0 7 14 94 135 166 153 135 120 128 131 126 107 118 125 128 114 122 141 141 107 98 109 120 119 112 105 100 97 94 91 93 98 91 84 92 97 99 106 109 114 129 130 136 115 112 109 109 103 94 80 82 92 99 107 111 113 102 91 98 103 112 112 119 125 128 132 134 132 113 108 117 114 125 160 158 152 123 29 2 0 0 0 0 0 0 0 0 0 0 0 0 0 0 0 0 0 0 0 0 0 0 0 0 0 0 0 0 0 0 0 0 0 0 0 0 0 
0 0 0 0 0 0 0 0 0 0 0 0 8 14 95 136 165 150 125 114 130 130 127 103 113 122 127 103 111 134 125 111 111 124 119 116 112 101 92 90 91 88 87 88 95 94 88 93 93 106 108 116 128 131 140 122 107 108 113 106 88 84 91 101 105 106 107 107 98 86 88 108 115 102 116 119 117 122 136 146 109 104 111 106 115 148 152 152 128 39 2 0 0 0 0 0 0 0 0 0 0 0 0 0 0 0 0 0 0 0 0 0 0 0 0 0 0 0 0 0 0 0 0 0 0 0 0 0 
0 0 0 0 0 0 0 0 0 0 0 0 9 15 99 143 167 148 117 116 129 126 119 97 106 122 125 101 98 115 109 104 102 118 120 118 110 104 101 95 95 94 90 90 90 98 98 97 97 108 107 108 114 106 109 127 112 110 124 101 85 96 99 97 100 105 106 101 92 84 84 98 114 103 122 117 113 117 137 145 101 99 111 97 114 137 154 154 132 47 2 0 0 0 0 0 0 0 0 0 0 0 0 0 0 0 0 0 0 0 0 0 0 0 0 0 0 0 0 0 0 0 0 0 0 0 0 0 
0 0 0 0 0 0 0 0 0 0 0 0 9 18 99 146 166 150 118 121 120 118 111 89 94 117 128 106 87 89 99 102 92 105 112 107 96 97 102 101 97 97 95 93 90 90 97 111 114 117 111 117 103 104 108 119 115 123 126 92 97 96 89 86 90 101 103 96 88 83 86 93 102 108 122 117 107 111 133 138 97 98 107 95 105 126 145 153 134 54 2 0 0 0 0 0 0 0 0 0 0 0 0 0 0 0 0 0 0 0 0 0 0 0 0 0 0 0 0 0 0 0 0 0 0 0 0 0 
0 0 0 0 0 0 0 0 0 0 0 0 9 19 97 146 161 145 111 115 111 103 108 81 91 118 124 111 91 84 90 98 89 96 100 99 96 95 99 96 92 92 91 94 94 88 88 93 94 113 126 133 118 100 101 99 110 108 111 95 98 99 98 90 90 98 99 91 87 81 83 91 98 111 119 115 106 107 133 138 95 101 109 97 107 118 124 143 135 59 2 0 0 0 0 0 0 0 0 0 0 0 0 0 0 0 0 0 0 0 0 0 0 0 0 0 0 0 0 0 0 0 0 0 0 0 0 0 
0 0 0 0 0 0 0 0 0 0 0 0 9 18 94 146 156 138 102 117 99 95 110 83 94 113 124 114 95 87 84 94 87 93 98 99 91 93 98 97 92 86 89 90 83 87 96 95 93 108 130 124 110 97 89 81 101 116 98 104 105 109 99 94 94 100 95 84 82 81 84 93 95 111 118 115 104 110 136 135 95 105 108 97 106 117 121 142 135 61 2 0 0 0 0 0 0 0 0 0 0 0 0 0 0 0 0 0 0 0 0 0 0 0 0 0 0 0 0 0 0 0 0 0 0 0 0 0 
0 0 0 0 0 0 0 0 0 0 0 0 8 18 89 147 152 133 102 121 101 93 112 88 95 110 123 112 96 93 87 92 88 93 100 101 91 94 96 95 94 92 90 95 92 91 94 93 95 105 132 120 103 94 101 97 100 131 90 97 97 98 90 93 97 103 95 85 82 82 86 91 97 110 114 112 108 122 136 127 96 107 102 96 106 116 118 145 131 59 2 0 0 0 0 0 0 0 0 0 0 0 0 0 0 0 0 0 0 0 0 0 0 0 0 0 0 0 0 0 0 0 0 0 0 0 0 0 
0 0 0 0 0 0 0 0 0 0 0 0 5 18 79 143 148 129 100 117 105 89 112 93 96 112 118 112 95 107 103 98 89 90 98 99 101 98 94 96 95 93 88 88 82 84 93 94 101 117 115 96 97 101 103 90 88 122 107 96 92 91 87 91 94 98 95 87 86 85 91 94 100 106 106 107 115 118 130 118 98 105 98 96 103 113 117 146 125 55 1 0 0 0 0 0 0 0 0 0 0 0 0 0 0 0 0 0 0 0 0 0 0 0 0 0 0 0 0 0 0 0 0 0 0 0 0 0 
0 0 0 0 0 0 0 0 0 0 0 0 4 16 74 138 148 129 99 111 107 86 111 99 97 110 114 113 95 118 122 105 92 92 100 102 107 103 99 99 96 92 88 82 77 76 88 98 111 119 98 97 97 99 105 86 83 94 119 102 90 88 88 94 94 99 94 84 82 82 93 96 97 98 97 105 116 124 130 109 98 102 96 98 100 112 122 142 118 49 1 0 0 0 0 0 0 0 0 0 0 0 0 0 0 0 0 0 0 0 0 0 0 0 0 0 0 0 0 0 0 0 0 0 0 0 0 0 
0 0 0 0 0 0 0 0 0 0 0 0 2 15 70 133 151 133 104 109 109 85 103 106 94 106 111 113 102 130 132 105 94 94 102 102 107 105 101 100 95 87 86 84 78 78 92 96 112 111 87 86 89 93 102 85 79 82 111 104 106 93 88 92 97 101 92 81 77 84 93 94 89 88 92 105 119 132 129 101 100 102 93 96 97 108 130 138 112 44 1 0 0 0 0 0 0 0 0 0 0 0 0 0 0 0 0 0 0 0 0 0 0 0 0 0 0 0 0 0 0 0 0 0 0 0 0 0 
0 0 0 0 0 0 0 0 0 7 8 0 1 12 61 123 149 131 110 104 110 87 93 108 95 105 109 111 109 133 134 103 97 97 106 101 103 103 101 98 92 92 89 89 98 94 99 102 116 91 82 80 85 92 95 89 84 82 96 115 108 112 101 94 97 100 92 78 76 91 97 92 82 84 90 105 115 125 124 102 102 100 89 94 96 103 130 133 106 39 0 0 0 0 0 0 0 0 0 0 0 0 0 0 0 0 0 0 0 0 0 0 0 0 0 0 0 0 0 0 0 0 0 0 0 0 0 0 
0 0 0 0 0 0 0 0 0 4 6 3 2 11 53 113 146 128 113 98 111 89 83 107 96 100 116 110 120 122 124 108 98 103 105 100 96 101 102 99 103 101 90 96 100 107 107 110 118 85 78 77 88 94 94 93 95 84 85 118 129 123 98 90 96 94 84 78 78 78 80 80 80 79 97 112 127 145 132 106 118 97 84 101 95 104 137 130 98 36 0 0 0 0 0 0 0 0 0 0 0 0 0 0 0 0 0 0 0 0 0 0 0 0 0 0 0 0 0 0 0 0 0 0 0 0 0 0 
0 0 0 0 0 0 0 0 0 1 1 7 3 11 46 102 137 128 109 93 109 98 76 95 102 99 120 114 130 108 98 114 99 109 112 104 96 100 98 105 94 92 87 94 113 111 118 122 115 75 76 79 83 92 93 89 99 92 95 112 130 112 96 94 100 101 90 81 86 76 71 89 108 112 115 123 131 127 136 128 129 99 95 105 89 111 137 120 90 29 0 0 0 0 0 0 0 0 0 0 0 0 0 0 0 0 0 0 0 0 0 0 0 0 0 0 0 0 0 0 0 0 0 0 0 0 0 0 
0 0 0 0 0 0 0 0 0 0 2 12 7 8 39 93 130 132 105 99 99 115 84 82 98 101 124 120 132 109 99 99 97 97 113 114 104 98 99 94 94 98 104 106 94 94 107 125 105 69 75 83 82 103 90 87 96 93 93 102 134 110 98 93 99 105 118 100 96 101 109 129 150 141 140 132 117 108 125 138 123 107 117 86 100 118 143 116 83 20 0 0 2 11 4 0 0 0 0 0 0 0 0 0 0 0 0 0 0 0 0 0 0 0 0 0 0 0 0 0 0 0 0 0 0 0 0 0 
0 0 0 0 0 0 0 0 0 0 2 17 7 7 32 86 122 137 104 106 95 110 91 80 88 102 125 120 135 108 95 93 102 113 116 115 109 106 118 117 117 111 97 99 95 100 109 129 100 71 79 92 86 98 86 77 79 83 87 111 134 114 97 98 106 123 154 150 141 137 138 148 159 162 147 141 126 114 116 143 121 118 135 93 101 132 147 111 76 15 2 1 3 0 3 0 0 0 0 0 0 0 0 0 0 0 0 0 0 0 0 0 0 0 0 0 0 0 0 0 0 0 0 0 0 0 0 0 
0 0 0 0 0 0 0 0 0 0 1 15 2 9 24 79 117 144 115 105 94 99 103 82 80 104 125 122 146 121 89 101 108 119 126 128 131 122 115 109 111 111 102 92 94 88 95 117 93 72 81 96 84 99 89 77 76 84 90 126 134 123 112 113 118 134 164 167 162 153 136 143 142 138 146 141 128 121 127 137 126 131 118 118 134 146 99 101 66 12 4 0 3 0 0 0 0 0 0 0 0 0 0 0 0 0 0 0 0 0 0 0 0 0 0 0 0 0 0 0 0 0 0 0 0 0 0 0 
0 0 0 0 0 0 0 0 0 0 2 11 2 8 17 66 108 141 135 105 100 91 117 118 87 103 123 133 141 128 119 135 139 127 115 127 124 118 122 113 111 105 103 95 94 89 88 107 98 79 75 84 84 101 87 76 94 101 117 125 136 127 109 105 109 117 153 146 139 129 130 143 162 157 133 138 128 133 157 154 131 145 130 149 153 139 76 89 51 7 5 5 4 0 0 0 0 0 0 0 0 0 0 0 0 0 0 0 0 0 0 0 0 0 0 0 0 0 0 0 0 0 0 0 0 0 0 0 
0 0 0 0 0 0 0 0 0 0 0 10 3 6 16 56 101 133 149 118 110 101 131 134 117 104 112 152 145 128 134 152 159 153 140 134 134 140 144 120 107 107 113 108 100 89 89 118 107 95 95 82 81 100 98 102 101 112 114 119 140 124 113 103 90 113 140 129 141 150 152 162 171 159 120 101 106 125 160 169 153 152 145 170 167 141 112 94 31 8 7 6 5 0 0 0 0 0 0 0 0 0 0 0 0 0 0 0 0 0 0 0 0 0 0 0 0 0 0 0 0 0 0 0 0 0 0 0 
0 0 0 0 0 0 0 0 0 0 1 10 4 6 8 38 101 129 152 135 127 143 145 136 142 127 121 151 135 129 147 161 170 159 140 143 149 148 147 123 111 108 117 118 108 96 103 134 108 98 111 107 96 119 105 98 98 113 117 110 126 116 93 87 100 124 127 138 147 151 145 160 157 141 120 98 116 142 161 161 145 145 157 165 154 114 107 78 16 4 2 1 5 0 0 0 0 0 0 0 0 0 0 0 0 0 0 0 0 0 0 0 0 0 0 0 0 0 0 0 0 0 0 0 0 0 0 0 
0 0 0 0 0 0 0 0 0 0 0 8 5 5 9 11 61 116 154 151 139 157 166 166 157 152 123 136 155 145 157 166 166 176 156 132 133 139 141 116 112 112 111 121 122 109 110 129 118 101 109 119 118 121 117 103 97 102 113 110 104 98 92 95 114 123 134 141 138 137 129 145 134 122 132 124 131 139 144 162 161 144 138 159 149 107 101 87 19 3 3 0 4 2 0 0 0 0 0 0 0 0 0 0 0 0 0 0 0 0 0 0 0 0 0 0 0 0 0 0 0 0 0 0 0 0 0 0 
0 0 0 0 0 0 0 0 0 0 0 8 6 3 5 8 40 105 145 156 145 158 159 175 161 165 165 158 148 118 137 152 163 176 168 131 130 137 122 91 85 95 104 119 121 103 111 124 105 105 113 117 121 135 126 105 88 84 98 98 87 79 81 95 111 111 126 140 139 123 116 116 117 107 122 133 141 143 137 160 134 150 153 152 137 119 107 59 5 1 4 1 4 2 0 0 0 0 0 0 0 0 0 0 0 0 0 0 0 0 0 0 0 0 0 0 0 0 0 0 0 0 0 0 0 0 0 0 
0 0 0 0 0 0 0 0 0 0 0 6 1 2 3 8 25 86 133 169 150 135 146 153 165 157 162 153 138 124 135 147 149 170 172 145 131 135 117 98 89 80 93 100 86 78 102 99 92 97 90 91 89 108 118 103 72 68 91 85 77 100 88 91 98 96 116 138 134 134 126 120 114 116 143 160 148 150 148 151 129 153 152 140 141 117 98 34 4 1 1 6 2 3 0 0 0 0 0 0 0 0 0 0 0 0 0 0 0 0 0 0 0 0 0 0 0 0 0 0 0 0 0 0 0 0 0 0 
0 0 0 0 0 0 0 0 0 0 1 6 0 3 0 6 16 63 121 166 153 119 130 148 153 147 141 124 137 115 120 126 134 124 152 164 146 138 124 113 103 80 88 80 83 85 113 104 103 85 79 75 75 81 92 97 76 73 93 83 95 122 94 94 93 82 92 102 108 114 120 107 93 128 165 175 164 167 151 130 142 158 152 143 106 101 72 19 7 3 4 5 0 3 0 0 0 0 0 0 0 0 0 0 0 0 0 0 0 0 0 0 0 0 0 0 0 0 0 0 0 0 0 0 0 0 0 0 
0 0 0 0 0 0 0 0 0 0 3 7 3 3 0 6 15 37 100 145 156 126 138 138 146 123 111 112 133 146 130 115 101 95 124 158 155 125 107 92 90 75 81 77 79 99 123 115 113 111 106 94 76 72 94 101 89 96 101 92 91 112 112 109 100 90 89 84 90 97 115 102 109 141 163 170 172 160 137 132 148 154 156 118 70 87 42 11 11 11 10 0 0 4 0 0 0 0 0 0 0 0 0 0 0 0 0 0 0 0 0 0 0 0 0 0 0 0 0 0 0 0 0 0 0 0 0 0 
0 0 0 0 0 0 0 0 0 0 3 8 6 3 0 7 15 20 80 124 156 141 137 136 135 135 121 119 113 137 139 122 96 103 131 151 148 134 102 76 72 82 78 74 84 94 98 129 135 130 128 121 94 89 122 128 113 96 99 96 93 129 132 135 123 100 89 91 97 111 102 113 123 128 136 146 179 160 150 147 134 130 137 87 89 84 21 11 9 13 9 1 0 4 0 0 0 0 0 0 0 0 0 0 0 0 0 0 0 0 0 0 0 0 0 0 0 0 0 0 0 0 0 0 0 0 0 0 
0 0 0 0 0 0 0 0 0 0 3 8 8 2 0 5 16 16 53 114 147 149 128 140 124 137 132 119 125 124 137 127 97 98 118 146 122 105 105 90 80 98 102 108 121 113 114 144 124 119 137 148 148 157 168 159 152 131 125 124 121 154 167 152 133 102 100 106 109 111 101 95 117 113 132 146 177 166 158 152 119 124 121 84 107 62 17 12 9 8 5 1 0 4 0 0 0 0 0 0 0 0 0 0 0 0 0 0 0 0 0 0 0 0 0 0 0 0 0 0 0 0 0 0 0 0 0 0 
0 0 0 0 0 0 0 0 0 0 4 7 6 2 0 6 12 19 30 95 126 142 120 124 129 130 142 127 121 120 123 136 121 105 110 146 117 94 91 101 107 110 126 121 119 117 123 142 132 130 136 145 161 172 170 156 149 137 129 127 126 161 176 149 123 123 130 125 113 116 100 109 110 122 135 150 158 154 162 142 108 107 114 110 104 39 16 13 5 2 2 0 0 5 2 0 0 0 0 0 0 0 0 0 0 0 0 0 0 0 0 0 0 0 0 0 0 0 0 0 0 0 0 0 0 0 0 0 
0 0 0 0 0 0 0 0 0 0 3 8 6 2 0 7 10 18 20 70 116 142 109 97 126 145 136 121 122 129 138 135 127 128 126 116 107 101 97 102 126 117 131 117 115 126 142 140 116 105 119 142 153 132 127 131 125 127 122 121 119 148 174 162 139 140 138 128 144 131 108 99 95 108 120 141 119 142 136 121 119 117 123 124 86 23 11 7 3 2 0 0 1 6 3 0 0 0 0 0 0 0 0 0 0 0 0 0 0 0 0 0 0 0 0 0 0 0 0 0 0 0 0 0 0 0 0 0 
0 0 0 0 0 0 0 0 0 0 0 6 6 0 0 7 11 13 17 43 98 133 105 91 119 144 153 140 131 125 140 142 137 136 121 115 110 106 112 122 123 148 171 152 140 142 157 147 117 116 147 152 151 168 149 140 139 149 145 143 140 140 159 155 154 128 121 151 152 111 91 88 93 104 108 119 121 140 122 111 108 99 135 112 66 19 8 7 5 2 0 0 4 7 4 0 0 0 0 0 0 0 0 0 0 0 0 0 0 0 0 0 0 0 0 0 0 0 0 0 0 0 0 0 0 0 0 0 
0 0 0 0 0 0 0 0 0 0 0 4 12 8 0 6 11 11 14 29 72 126 138 88 123 138 153 157 150 115 117 144 141 141 112 113 118 130 139 146 147 172 199 200 174 154 152 159 147 146 145 142 138 142 147 142 130 133 124 126 120 126 143 152 157 141 150 169 156 114 95 94 100 95 116 135 130 136 126 126 93 83 105 99 51 13 6 5 6 2 0 0 5 7 5 0 0 0 0 0 0 0 0 0 0 0 0 0 0 0 0 0 0 0 0 0 0 0 0 0 0 0 0 0 0 0 0 0 
0 0 0 0 0 0 0 0 0 0 0 8 14 14 5 5 9 8 14 20 51 105 139 110 112 119 135 142 161 130 94 113 133 126 112 107 110 115 115 112 132 159 177 188 194 159 146 160 173 160 134 146 149 135 140 135 118 106 107 114 113 130 148 153 150 152 174 182 162 114 91 85 79 95 147 163 151 151 148 116 70 76 93 79 33 13 3 2 7 0 0 0 5 8 4 0 0 0 0 0 0 0 0 0 0 0 0 0 0 0 0 0 0 0 0 0 0 0 0 0 0 0 0 0 0 0 0 0 
0 0 0 0 0 0 0 0 0 0 0 5 13 9 11 6 9 10 15 16 29 76 127 106 97 110 145 151 166 134 151 130 134 91 76 86 94 101 102 100 107 146 157 161 187 176 139 149 162 146 146 168 165 150 118 107 113 113 119 127 125 153 155 149 150 153 168 170 148 114 90 92 119 133 158 156 154 137 142 106 49 53 86 44 20 15 4 5 5 3 4 3 6 8 0 0 0 0 0 0 0 0 0 0 0 0 0 0 0 0 0 0 0 0 0 0 0 0 0 0 0 0 0 0 0 0 0 0 
0 0 0 0 0 0 0 0 0 0 0 1 9 9 10 8 7 11 10 14 16 45 108 116 98 92 118 153 171 162 165 144 134 121 92 79 85 90 89 99 115 142 140 144 164 183 141 131 139 132 145 140 131 151 146 118 113 132 139 138 141 164 139 130 137 154 164 162 158 142 121 132 136 136 148 142 127 129 114 89 81 109 87 29 12 10 8 4 5 4 1 6 14 4 0 0 0 0 0 0 0 0 0 0 0 0 0 0 0 0 0 0 0 0 0 0 0 0 0 0 0 0 0 0 0 0 0 0 
0 0 0 0 0 0 0 0 0 0 0 0 9 9 7 6 5 5 8 12 16 30 76 103 90 84 109 144 150 149 159 144 144 143 126 104 91 83 99 114 111 133 141 140 150 153 139 140 143 142 140 117 135 175 179 151 156 175 191 159 158 171 153 142 142 150 142 146 145 173 158 140 129 131 126 105 89 113 112 98 104 107 56 30 15 3 2 3 3 4 6 7 10 3 0 0 0 0 0 0 0 0 0 0 0 0 0 0 0 0 0 0 0 0 0 0 0 0 0 0 0 0 0 0 0 0 0 0 
0 0 0 0 0 0 0 0 0 0 0 0 4 7 4 2 2 0 2 8 14 22 39 89 95 74 79 85 102 122 129 129 135 123 124 116 109 112 102 116 160 161 192 213 197 175 179 198 173 160 148 151 156 173 176 160 159 180 202 198 191 185 169 188 173 204 181 174 119 161 157 149 107 83 66 65 80 95 101 90 93 56 29 30 19 1 0 0 2 3 2 4 8 0 0 0 0 0 0 0 0 0 0 0 0 0 0 0 0 0 0 0 0 0 0 0 0 0 0 0 0 0 0 0 0 0 0 0 
0 0 0 0 0 0 0 0 0 0 0 0 0 4 4 1 2 0 0 3 9 11 21 49 84 76 61 44 64 63 95 101 111 118 111 107 118 136 143 131 152 161 167 167 174 161 175 206 184 146 142 178 187 198 202 200 196 197 213 213 197 203 207 189 148 196 195 159 154 138 137 117 92 75 65 67 70 81 71 60 54 47 37 22 13 0 0 0 0 0 0 4 8 0 0 0 0 0 0 0 0 0 0 0 0 0 0 0 0 0 0 0 0 0 0 0 0 0 0 0 0 0 0 0 0 0 0 0 
0 0 0 0 0 0 0 0 0 0 0 0 0 2 5 6 5 3 2 2 8 12 20 22 37 59 41 31 73 46 61 57 60 65 64 77 65 61 59 55 75 115 153 135 131 113 130 119 108 100 118 143 138 160 149 140 137 112 100 88 99 142 129 136 127 150 106 73 43 47 54 71 57 46 66 68 79 87 46 28 29 25 13 8 2 0 3 1 2 2 3 9 6 0 0 0 0 0 0 0 0 0 0 0 0 0 0 0 0 0 0 0 0 0 0 0 0 0 0 0 0 0 0 0 0 0 0 0 
0 0 0 0 0 0 0 0 0 0 0 0 0 0 4 5 5 2 3 2 5 10 11 15 21 21 22 25 61 50 53 68 44 59 51 63 51 46 49 60 81 110 128 111 85 80 77 54 64 65 48 72 77 80 68 63 67 50 62 57 65 93 96 105 100 87 64 97 106 70 60 54 44 43 57 62 75 77 46 29 25 23 13 7 3 0 1 2 3 3 4 5 0 0 0 0 0 0 0 0 0 0 0 0 0 0 0 0 0 0 0 0 0 0 0 0 0 0 0 0 0 0 0 0 0 0 0 0 
0 0 0 0 0 0 0 0 0 0 0 0 0 0 0 0 1 0 0 0 2 10 9 13 19 30 28 36 65 71 62 71 53 82 71 70 78 74 110 81 103 130 122 115 101 86 74 78 87 84 65 94 103 99 97 88 90 89 105 103 96 114 101 89 115 124 76 94 148 78 77 72 68 71 69 84 87 80 56 37 30 20 9 4 2 0 0 1 2 2 1 0 0 0 0 0 0 0 0 0 0 0 0 0 0 0 0 0 0 0 0 0 0 0 0 0 0 0 0 0 0 0 0 0 0 0 0 0 
0 0 0 0 0 0 0 0 0 0 0 0 0 0 0 0 0 0 0 0 0 4 6 7 12 26 39 71 100 122 118 119 93 110 100 91 85 128 104 126 130 134 119 127 110 141 145 138 156 140 132 136 128 134 147 161 169 154 147 154 151 149 149 157 131 183 185 157 159 109 106 94 76 77 68 62 62 50 28 15 14 5 0 0 0 0 0 0 0 0 0 0 0 0 0 0 0 0 0 0 0 0 0 0 0 0 0 0 0 0 0 0 0 0 0 0 0 0 0 0 0 0 0 0 0 0 0 0 
0 0 0 0 0 0 0 0 0 0 0 0 0 0 0 0 0 0 0 0 0 1 0 4 15 26 34 63 93 123 118 125 126 141 113 114 105 109 78 70 128 141 147 162 166 139 138 157 150 168 196 162 164 172 177 177 174 180 162 153 162 174 160 153 195 164 137 165 146 128 116 139 121 106 79 77 71 51 39 38 49 22 14 0 0 0 0 0 0 0 0 0 0 0 0 0 0 0 0 0 0 0 0 0 0 0 0 0 0 0 0 0 0 0 0 0 0 0 0 0 0 0 0 0 0 0 0 0 
0 0 0 0 0 0 0 0 0 0 0 0 0 0 0 0 0 0 0 0 0 0 1 3 7 21 33 38 59 88 74 85 64 82 38 66 89 105 87 80 109 95 117 113 144 139 119 147 145 161 149 132 141 139 141 140 153 154 161 161 156 149 137 161 146 174 172 127 117 132 106 71 37 65 92 94 86 48 34 22 18 6 3 0 0 0 0 0 0 0 0 0 0 0 0 0 0 0 0 0 0 0 0 0 0 0 0 0 0 0 0 0 0 0 0 0 0 0 0 0 0 0 0 0 0 0 0 0 
0 0 0 0 0 0 0 0 0 0 0 0 0 0 0 0 0 0 0 0 0 0 4 6 4 15 22 20 27 60 65 70 49 66 39 39 34 78 72 108 101 91 89 95 132 138 94 108 135 145 124 76 85 84 89 89 101 109 102 103 99 123 140 113 145 156 129 95 134 103 106 73 57 44 98 104 83 40 25 17 15 11 5 0 0 0 0 0 0 0 0 0 0 0 0 0 0 0 0 0 0 0 0 0 0 0 0 0 0 0 0 0 0 0 0 0 0 0 0 0 0 0 0 0 0 0 0 0 
0 0 0 0 0 0 0 0 0 0 0 0 0 0 0 0 0 0 0 0 0 0 1 6 7 13 19 21 22 45 68 71 61 73 50 38 29 43 86 97 88 86 89 98 109 110 123 136 139 119 101 66 68 69 69 65 74 82 84 81 77 102 121 135 122 100 117 129 112 101 79 57 52 35 90 116 83 42 20 19 19 13 7 0 0 0 0 0 0 0 0 0 0 0 0 0 0 0 0 0 0 0 0 0 0 0 0 0 0 0 0 0 0 0 0 0 0 0 0 0 0 0 0 0 0 0 0 0 
0 0 0 0 0 0 0 0 0 0 0 0 0 0 0 0 0 0 0 0 0 0 0 4 9 8 17 21 22 35 74 67 75 72 54 46 47 54 76 92 91 88 81 90 101 129 149 167 147 103 107 105 93 79 66 64 79 78 93 102 88 99 113 119 99 96 103 126 121 97 76 51 50 36 77 120 82 45 21 20 19 11 5 0 0 0 0 0 0 0 0 0 0 0 0 0 0 0 0 0 0 0 0 0 0 0 0 0 0 0 0 0 0 0 0 0 0 0 0 0 0 0 0 0 0 0 0 0 
0 0 0 0 0 0 0 0 0 0 0 0 0 0 0 0 0 0 0 0 0 0 0 3 7 8 14 20 22 28 62 55 77 79 60 58 62 53 50 71 86 84 62 77 87 98 112 138 141 102 114 128 108 97 82 85 87 92 91 107 111 134 138 119 103 100 84 98 117 106 75 58 71 62 72 116 83 54 21 18 16 11 3 0 0 0 0 0 0 0 0 0 0 0 0 0 0 0 0 0 0 0 0 0 0 0 0 0 0 0 0 0 0 0 0 0 0 0 0 0 0 0 0 0 0 0 0 0 
0 0 0 0 0 0 0 0 0 0 0 0 0 0 0 0 0 0 0 0 0 0 0 0 6 7 11 16 20 30 55 48 79 83 68 64 57 41 57 73 80 75 74 93 94 91 98 105 127 120 122 122 101 102 106 106 109 109 92 115 148 157 123 103 106 97 88 69 97 99 81 55 69 85 75 108 68 52 19 17 14 10 2 0 0 0 0 0 0 0 0 0 0 0 0 0 0 0 0 0 0 0 0 0 0 0 0 0 0 0 0 0 0 0 0 0 0 0 0 0 0 0 0 0 0 0 0 0 
0 0 0 0 0 0 0 0 0 0 0 0 0 0 0 0 0 0 0 0 0 0 0 0 5 4 7 14 19 27 42 45 79 81 72 62 52 45 63 62 75 57 73 103 104 100 97 83 118 120 131 108 92 102 101 98 102 107 109 114 140 145 91 99 121 100 98 69 67 87 68 52 59 91 87 105 64 44 18 16 14 10 1 0 0 0 0 0 0 0 0 0 0 0 0 0 0 0 0 0 0 0 0 0 0 0 0 0 0 0 0 0 0 0 0 0 0 0 0 0 0 0 0 0 0 0 0 0 
0 0 0 0 0 0 0 0 0 0 0 0 0 0 0 0 0 0 0 0 0 0 0 0 0 5 4 13 14 21 41 65 71 72 72 59 53 60 64 66 75 59 75 84 95 99 98 86 117 120 129 89 75 89 91 92 85 95 98 100 112 128 79 75 109 92 92 77 63 84 75 71 58 84 95 87 59 27 15 16 15 9 1 0 0 0 0 0 0 0 0 0 0 0 0 0 0 0 0 0 0 0 0 0 0 0 0 0 0 0 0 0 0 0 0 0 0 0 0 0 0 0 0 0 0 0 0 0 
0 0 0 0 0 0 0 0 0 0 0 0 0 0 0 0 0 0 0 0 0 0 0 0 0 4 4 6 15 18 21 29 36 43 67 63 63 80 61 68 65 62 66 66 90 107 103 91 110 129 130 87 69 70 83 93 87 95 96 105 124 116 70 64 99 86 81 72 68 80 75 85 80 81 83 44 16 15 16 17 15 8 1 0 0 0 0 0 0 0 0 0 0 0 0 0 0 0 0 0 0 0 0 0 0 0 0 0 0 0 0 0 0 0 0 0 0 0 0 0 0 0 0 0 0 0 0 0 
0 0 0 0 0 0 0 0 0 0 0 0 0 0 0 0 0 0 0 0 0 0 0 0 0 0 6 2 11 16 21 18 18 18 40 84 101 86 53 78 65 55 53 63 84 111 104 90 106 131 131 106 85 81 84 87 84 84 88 102 131 111 72 69 103 97 73 60 64 80 83 69 101 106 65 23 14 16 16 17 13 7 1 0 0 0 0 0 0 0 0 0 0 0 0 0 0 0 0 0 0 0 0 0 0 0 0 0 0 0 0 0 0 0 0 0 0 0 0 0 0 0 0 0 0 0 0 0 
0 0 0 0 0 0 0 0 0 0 0 0 0 0 0 0 0 0 0 0 0 0 0 0 0 0 2 4 6 13 19 18 20 16 18 35 66 56 49 84 86 61 46 60 99 113 91 87 112 127 117 102 89 84 70 61 69 81 75 94 126 121 108 100 97 104 84 49 63 90 96 58 68 73 33 18 14 15 16 16 12 7 1 0 0 0 0 0 0 0 0 0 0 0 0 0 0 0 0 0 0 0 0 0 0 0 0 0 0 0 0 0 0 0 0 0 0 0 0 0 0 0 0 0 0 0 0 0 
0 0 0 0 0 0 0 0 0 0 0 0 0 0 0 0 0 0 0 0 0 0 0 0 0 0 0 5 5 8 17 18 20 21 13 15 32 53 61 97 107 65 42 59 109 114 76 67 87 123 112 99 94 86 76 78 92 86 86 105 130 127 113 97 94 112 99 51 57 105 115 70 62 35 21 19 13 15 17 14 11 7 1 0 0 0 0 0 0 0 0 0 0 0 0 0 0 0 0 0 0 0 0 0 0 0 0 0 0 0 0 0 0 0 0 0 0 0 0 0 0 0 0 0 0 0 0 0 
0 0 0 0 0 0 0 0 0 0 0 0 0 0 0 0 0 0 0 0 0 0 0 0 0 0 0 0 7 6 11 18 18 22 15 14 20 34 54 85 109 73 51 76 130 106 67 62 84 130 119 104 91 78 69 73 79 86 98 120 135 126 103 99 89 119 130 77 58 104 106 61 38 27 23 21 13 15 14 14 11 7 1 0 0 0 0 0 0 0 0 0 0 0 0 0 0 0 0 0 0 0 0 0 0 0 0 0 0 0 0 0 0 0 0 0 0 0 0 0 0 0 0 0 0 0 0 0 
0 0 0 0 0 0 0 0 0 0 0 0 0 0 0 0 0 0 0 0 0 0 0 0 0 0 0 0 5 6 8 17 16 19 17 15 17 21 25 38 79 90 74 94 125 105 78 87 119 144 121 98 74 79 81 82 86 88 103 111 131 145 127 104 89 115 137 106 82 96 51 29 30 27 23 19 17 13 13 13 11 7 1 0 0 0 0 0 0 0 0 0 0 0 0 0 0 0 0 0 0 0 0 0 0 0 0 0 0 0 0 0 0 0 0 0 0 0 0 0 0 0 0 0 0 0 0 0 
0 0 0 0 0 0 0 0 0 0 0 0 0 0 0 0 0 0 0 0 0 0 0 0 0 0 0 0 1 7 5 15 15 17 16 13 14 18 23 28 40 76 88 90 105 105 105 114 129 140 124 93 72 74 78 82 84 95 92 88 110 136 140 109 90 94 121 114 101 60 27 28 32 21 19 17 17 13 13 14 11 6 1 0 0 0 0 0 0 0 0 0 0 0 0 0 0 0 0 0 0 0 0 0 0 0 0 0 0 0 0 0 0 0 0 0 0 0 0 0 0 0 0 0 0 0 0 0 
0 0 0 0 0 0 0 0 0 0 0 0 0 0 0 0 0 0 0 0 0 0 0 0 0 0 0 0 0 7 5 11 16 18 16 12 14 17 22 28 32 31 40 52 61 82 82 85 105 130 122 103 85 76 73 77 80 99 101 84 98 125 141 105 96 86 71 64 51 36 27 29 31 20 15 16 15 14 13 14 11 4 1 0 0 0 0 0 0 0 0 0 0 0 0 0 0 0 0 0 0 0 0 0 0 0 0 0 0 0 0 0 0 0 0 0 0 0 0 0 0 0 0 0 0 0 0 0 
0 0 0 0 0 0 0 0 0 0 0 0 0 0 0 0 0 0 0 0 0 0 0 0 0 0 0 0 0 4 6 7 16 17 15 13 12 18 23 29 31 30 29 35 47 65 78 77 73 100 121 114 101 87 81 83 87 101 111 104 110 117 115 85 91 70 43 43 43 35 27 28 28 20 15 15 16 15 13 14 11 4 1 0 0 0 0 0 0 0 0 0 0 0 0 0 0 0 0 0 0 0 0 0 0 0 0 0 0 0 0 0 0 0 0 0 0 0 0 0 0 0 0 0 0 0 0 0 
