P2
128 99
238
0 0 0 0 0 0 0 0 0 0 0 0 0 0 0 0 0 0 0 0 0 0 0 0 0 0 0 0 0 0 0 0 0 0 0 0 0 0 0 0 0 0 0 0 0 0 0 0 0 0 0 0 0 0 0 0 0 0 0 0 0 0 0 0 0 0 0 0 0 0 0 0 0 0 0 0 0 0 0 0 0 0 0 0 0 0 0 0 0 0 0 0 0 0 0 0 0 0 0 0 0 0 0 0 0 0 0 0 0 0 0 0 0 0 0 0 0 0 0 0 0 0 0 0 0 0 0 0 
0 0 0 0 0 0 0 0 0 0 0 0 0 0 0 0 0 0 0 0 0 0 0 0 0 0 0 0 0 0 0 0 0 0 0 0 0 0 0 0 0 0 0 0 0 0 0 0 0 0 0 0 0 0 0 0 0 0 0 0 0 0 0 0 0 0 0 0 0 0 0 0 0 0 0 0 0 0 0 0 0 0 0 0 0 0 0 0 0 0 0 0 0 0 0 0 0 0 0 0 0 0 0 0 0 0 0 0 0 0 0 0 0 0 0 0 0 0 0 0 0 0 0 0 0 0 0 0 
0 0 0 0 0 0 0 0 0 0 0 0 0 0 0 0 0 0 0 0 0 0 0 0 0 0 0 0 0 0 0 0 0 0 0 0 0 0 0 0 0 0 0 0 0 0 0 0 0 0 0 0 3 7 4 0 0 0 0 0 0 0 0 0 0 0 0 0 0 0 0 0 0 0 0 0 0 0 0 0 0 0 0 0 0 0 0 0 0 0 0 0 0 0 0 0 0 0 0 0 0 0 0 0 0 0 0 0 0 0 0 0 0 0 0 0 0 0 0 0 0 0 0 0 0 0 0 0 
0 0 0 0 0 0 0 0 0 0 0 0 0 0 0 0 0 0 0 0 0 0 0 0 0 0 0 0 0 0 0 0 0 0 0 0 0 0 0 0 0 0 0 0 4 17 18 16 13 14 20 25 29 30 27 25 22 17 10 11 9 0 0 0 0 0 0 0 0 0 0 0 0 0 0 0 0 0 0 0 0 0 0 0 0 0 0 0 0 0 0 0 0 0 0 0 0 0 0 0 0 0 0 0 0 0 0 0 0 0 0 0 0 0 0 0 0 0 0 0 0 0 0 0 0 0 0 0 
0 0 0 0 0 0 0 0 0 0 0 0 0 0 0 0 0 0 0 0 0 0 0 0 0 0 0 0 0 0 0 0 0 0 0 0 0 0 0 0 0 16 21 17 21 40 60 81 99 114 126 132 132 129 129 124 116 102 79 54 38 26 15 17 7 0 0 0 0 0 0 0 0 0 0 0 0 0 0 0 0 0 0 0 0 0 0 0 0 0 0 0 0 0 0 0 0 0 0 0 0 0 0 0 0 0 0 0 0 0 0 0 0 0 0 0 0 0 0 0 0 0 0 0 0 0 0 0 
0 0 0 0 0 0 0 0 0 0 0 0 0 0 0 0 0 0 0 0 0 0 0 0 0 0 0 0 0 0 0 0 0 0 0 0 0 0 4 23 20 27 38 69 109 142 151 145 147 157 163 166 167 163 164 160 159 159 151 138 124 108 81 52 30 14 17 3 0 0 0 0 0 0 0 0 0 0 0 0 0 0 0 0 0 0 0 0 0 0 0 0 0 0 0 0 0 0 0 0 0 0 0 0 0 0 0 0 0 0 0 0 0 0 0 0 0 0 0 0 0 0 0 0 0 0 0 0 
0 0 0 0 0 0 0 0 0 0 0 0 0 0 0 0 0 0 0 0 0 0 0 0 0 0 0 0 0 0 0 0 0 0 0 0 5 23 25 28 52 103 147 152 150 168 180 174 164 160 162 165 163 162 163 167 171 174 169 166 166 162 147 123 105 75 42 20 16 5 0 0 0 0 0 0 0 0 0 0 0 0 0 0 0 0 0 0 0 0 0 0 0 0 0 0 0 0 0 0 0 0 0 0 0 0 0 0 0 0 0 0 0 0 0 0 0 0 0 0 0 0 0 0 0 0 0 0 
0 0 0 0 0 0 0 0 0 0 0 0 0 0 0 0 0 0 0 0 0 0 0 0 0 0 0 0 0 0 0 0 0 0 8 33 27 27 59 124 154 148 162 177 174 170 158 148 150 164 180 194 198 195 192 199 195 185 176 171 170 173 173 169 162 142 115 90 50 22 15 4 0 0 0 0 0 0 0 0 0 0 0 0 0 0 0 0 0 0 0 0 0 0 0 0 0 0 0 0 0 0 0 0 0 0 0 0 0 0 0 0 0 0 0 0 0 0 0 0 0 0 0 0 0 0 0 0 
0 0 0 0 0 0 0 0 0 0 0 0 0 0 0 0 0 0 0 0 0 0 0 0 0 0 0 0 0 0 0 0 7 35 26 24 54 124 152 147 163 175 175 164 154 159 174 189 201 195 190 191 189 182 183 188 189 196 213 217 205 185 169 167 170 168 164 151 118 89 57 24 14 0 0 0 0 0 0 0 0 0 0 0 0 0 0 0 0 0 0 0 0 0 0 0 0 0 0 0 0 0 0 0 0 0 0 0 0 0 0 0 0 0 0 0 0 0 0 0 0 0 0 0 0 0 0 0 
0 0 0 0 0 0 0 0 0 0 0 0 0 0 0 0 0 0 0 0 0 0 0 0 0 0 0 0 0 0 0 31 28 20 37 109 152 145 160 169 167 162 153 162 183 195 190 172 155 155 157 160 162 154 151 151 156 172 185 196 213 220 219 201 179 162 163 165 160 146 112 82 36 19 6 0 0 0 0 0 0 0 0 0 0 0 0 0 0 0 0 0 0 0 0 0 0 0 0 0 0 0 0 0 0 0 0 0 0 0 0 0 0 0 0 0 0 0 0 0 0 0 0 0 0 0 0 0 
0 0 0 0 0 0 0 0 0 0 0 0 0 0 0 0 0 0 0 0 0 0 0 0 0 0 0 0 0 16 32 18 22 80 150 146 154 165 160 158 171 187 202 197 177 164 151 129 120 120 111 106 99 102 113 115 113 115 126 149 179 191 196 210 222 214 191 167 160 161 153 135 103 59 19 7 0 0 0 0 0 0 0 0 0 0 0 0 0 0 0 0 0 0 0 0 0 0 0 0 0 0 0 0 0 0 0 0 0 0 0 0 0 0 0 0 0 0 0 0 0 0 0 0 0 0 0 0 
0 0 0 0 0 0 0 0 0 0 0 0 0 0 0 0 0 0 0 0 0 0 0 0 0 0 0 0 26 23 12 41 130 153 144 159 159 156 174 202 209 192 170 153 141 124 114 116 123 125 97 93 86 87 120 127 130 126 119 115 117 133 153 173 194 209 216 216 193 166 161 155 147 119 75 22 10 0 0 0 0 0 0 0 0 0 0 0 0 0 0 0 0 0 0 0 0 0 0 0 0 0 0 0 0 0 0 0 0 0 0 0 0 0 0 0 0 0 0 0 0 0 0 0 0 0 0 0 
0 0 0 0 0 0 0 0 0 0 0 0 0 0 0 0 0 0 0 0 0 0 0 0 0 0 5 31 19 16 77 155 144 148 156 154 172 202 214 183 158 139 122 110 99 101 112 116 119 99 88 90 87 84 89 99 94 99 103 111 120 128 130 132 143 163 189 209 217 216 183 159 157 151 125 87 27 13 0 0 0 0 0 0 0 0 0 0 0 0 0 0 0 0 0 0 0 0 0 0 0 0 0 0 0 0 0 0 0 0 0 0 0 0 0 0 0 0 0 0 0 0 0 0 0 0 0 0 
0 0 0 0 0 0 0 0 0 0 0 0 0 0 0 0 0 0 0 0 0 0 0 0 0 8 32 16 25 100 166 143 151 151 163 195 211 190 153 132 124 119 112 102 95 93 100 103 89 89 98 115 107 101 99 111 124 123 116 112 113 121 122 126 131 135 143 160 192 214 224 203 164 156 154 130 91 32 14 0 0 0 0 0 0 0 0 0 0 0 0 0 0 0 0 0 0 0 0 0 0 0 0 0 0 0 0 0 0 0 0 0 0 0 0 0 0 0 0 0 0 0 0 0 0 0 0 0 
0 0 0 0 0 0 0 0 0 0 0 0 0 0 0 0 0 0 0 0 0 0 0 0 12 28 20 31 114 164 142 154 156 174 203 204 171 135 124 126 118 102 99 105 114 117 108 101 100 98 95 96 94 93 94 97 105 120 126 134 137 142 145 138 124 121 130 134 142 169 199 220 215 169 153 158 134 98 38 13 0 0 0 0 0 0 0 0 0 0 0 0 0 0 0 0 0 0 0 0 0 0 0 0 0 0 0 0 0 0 0 0 0 0 0 0 0 0 0 0 0 0 0 0 0 0 0 0 
0 0 0 0 0 0 0 0 0 0 0 0 0 0 0 0 0 0 0 0 0 0 1 19 25 17 42 129 161 145 158 165 179 202 188 155 126 127 133 115 104 111 125 127 117 98 91 89 90 89 88 92 91 93 97 99 107 110 107 103 100 101 118 142 156 142 122 119 124 127 145 189 215 218 176 151 162 136 110 44 12 0 0 0 0 0 0 0 0 0 0 0 0 0 0 0 0 0 0 0 0 0 0 0 0 0 0 0 0 0 0 0 0 0 0 0 0 0 0 0 0 0 0 0 0 0 0 0 
0 0 0 0 0 0 0 0 0 0 0 0 0 0 0 0 0 0 0 0 0 3 18 17 16 53 140 160 147 161 168 180 200 176 145 124 128 122 107 119 129 130 130 129 117 112 112 106 109 106 106 109 115 123 133 140 140 140 138 134 133 123 108 99 123 145 148 131 119 125 125 131 178 213 216 170 159 166 136 118 43 8 0 0 0 0 0 0 0 0 0 0 0 0 0 0 0 0 0 0 0 0 0 0 0 0 0 0 0 0 0 0 0 0 0 0 0 0 0 0 0 0 0 0 0 0 0 0 
0 0 0 0 0 0 0 0 0 0 0 0 0 0 0 0 0 0 0 0 7 17 14 15 62 148 153 142 165 170 177 191 168 145 125 121 108 112 135 139 133 139 145 157 162 164 161 159 158 152 150 140 151 164 164 162 155 149 141 138 138 144 144 134 112 106 124 142 138 116 119 117 120 177 211 210 172 162 164 136 117 38 3 0 0 0 0 0 0 0 0 0 0 0 0 0 0 0 0 0 0 0 0 0 0 0 0 0 0 0 0 0 0 0 0 0 0 0 0 0 0 0 0 0 0 0 0 0 
0 0 0 0 0 0 0 0 0 0 0 0 0 0 0 0 0 0 0 7 16 11 18 63 145 153 140 167 168 178 191 165 143 117 114 106 115 138 138 133 135 148 156 157 160 158 156 158 157 155 155 136 138 153 146 144 145 145 143 136 131 131 135 143 146 130 108 110 141 140 115 107 101 119 177 209 211 170 156 159 137 113 27 2 0 0 0 0 0 0 0 0 0 0 0 0 0 0 0 0 0 0 0 0 0 0 0 0 0 0 0 0 0 0 0 0 0 0 0 0 0 0 0 0 0 0 0 0 
0 0 0 0 0 0 0 0 0 0 0 0 0 0 0 0 0 0 5 15 9 22 71 137 151 134 167 169 175 187 164 137 107 116 115 128 141 136 127 130 144 145 145 145 142 138 135 141 148 152 140 120 124 145 141 134 133 132 131 137 136 135 132 131 138 142 137 116 115 141 137 102 97 101 115 175 211 211 166 157 152 145 101 20 1 0 0 0 0 0 0 0 0 0 0 0 0 0 0 0 0 0 0 0 0 0 0 0 0 0 0 0 0 0 0 0 0 0 0 0 0 0 0 0 0 0 0 0 
0 0 0 0 0 0 0 0 0 0 0 0 0 0 0 0 0 1 16 8 21 76 129 152 133 169 172 169 183 157 137 105 111 120 135 145 131 126 126 135 135 134 139 139 137 135 136 138 146 141 123 116 117 138 147 142 139 136 133 135 139 128 122 122 119 123 131 139 120 110 133 131 98 95 101 124 179 216 201 162 158 145 150 77 11 0 0 0 0 0 0 0 0 0 0 0 0 0 0 0 0 0 0 0 0 0 0 0 0 0 0 0 0 0 0 0 0 0 0 0 0 0 0 0 0 0 0 0 
0 0 0 0 0 0 0 0 0 0 0 0 0 0 0 0 0 12 9 17 72 125 149 142 162 172 160 183 160 131 103 109 126 141 147 127 123 129 132 131 134 136 139 140 139 135 122 126 132 127 122 122 125 126 131 137 141 136 132 126 123 118 111 109 107 107 118 130 138 124 105 121 119 100 98 102 132 179 218 180 160 157 149 130 45 3 0 0 0 0 0 0 0 0 0 0 0 0 0 0 0 0 0 0 0 0 0 0 0 0 0 0 0 0 0 0 0 0 0 0 0 0 0 0 0 0 0 0 
0 0 0 0 0 0 0 0 0 0 0 0 0 0 0 0 7 13 10 56 119 138 150 156 173 160 170 172 128 101 111 128 136 146 123 114 126 134 139 138 129 118 128 130 129 126 122 125 127 113 119 122 123 113 101 95 104 118 124 127 123 122 121 116 110 102 103 126 133 142 123 107 114 109 98 95 102 140 187 201 171 163 149 158 91 16 1 0 0 0 0 0 0 0 0 0 0 0 0 0 0 0 0 0 0 0 0 0 0 0 0 0 0 0 0 0 0 0 0 0 0 0 0 0 0 0 0 0 
0 0 0 0 0 0 0 0 0 0 0 0 0 0 0 0 13 11 38 111 120 157 150 167 166 158 174 130 96 114 131 129 139 126 118 130 137 138 133 125 120 122 124 126 127 125 124 127 106 92 111 108 98 78 67 61 68 84 93 112 124 124 126 119 115 115 109 111 126 132 141 126 107 105 101 100 99 108 149 188 178 164 157 153 140 54 3 0 0 0 0 0 0 0 0 0 0 0 0 0 0 0 0 0 0 0 0 0 0 0 0 0 0 0 0 0 0 0 0 0 0 0 0 0 0 0 0 0 
0 0 0 0 0 0 0 0 0 0 0 0 0 0 0 8 7 14 88 118 141 156 160 165 154 160 143 101 106 135 129 133 129 119 129 137 138 128 123 124 124 117 115 116 111 108 109 112 82 65 77 77 69 56 54 54 54 57 61 70 95 117 128 122 120 119 117 115 116 121 125 140 122 107 93 100 102 97 128 175 165 170 159 143 166 98 16 0 0 0 0 0 0 0 0 0 0 0 0 0 0 0 0 0 0 0 0 0 0 0 0 0 0 0 0 0 0 0 0 0 0 0 0 0 0 0 0 0 
0 0 0 0 0 0 0 0 0 0 0 0 0 0 0 12 8 51 124 125 165 151 159 160 126 153 120 100 128 127 128 127 119 127 137 132 124 121 128 125 114 100 89 87 80 80 82 87 66 55 56 56 55 52 49 51 50 52 54 55 70 93 115 125 124 119 120 117 112 114 118 136 139 118 102 89 104 95 108 155 159 171 164 143 157 138 43 3 0 0 0 0 0 0 0 0 0 0 0 0 0 0 0 0 0 0 0 0 0 0 0 0 0 0 0 0 0 0 0 0 0 0 0 0 0 0 0 0 
0 0 0 0 0 0 0 0 0 0 0 0 0 0 5 7 20 105 115 149 161 152 163 132 128 149 110 112 129 124 132 119 123 133 129 121 125 128 117 101 83 69 63 61 57 57 58 61 58 56 59 60 59 62 61 57 57 55 53 53 53 60 76 101 119 123 124 117 114 105 107 122 139 133 112 97 99 99 105 136 158 148 169 149 146 157 84 8 0 0 0 0 0 0 0 0 0 0 0 0 0 0 0 0 0 0 0 0 0 0 0 0 0 0 0 0 0 0 0 0 0 0 0 0 0 0 0 0 
0 0 0 0 0 0 0 0 0 0 0 0 0 0 8 9 60 129 120 164 156 163 149 115 136 142 109 119 122 130 123 124 134 134 125 125 122 100 77 64 56 56 54 53 53 52 58 68 77 91 103 113 119 120 114 108 100 89 73 62 54 55 56 66 95 127 128 122 122 121 115 110 132 130 127 109 92 99 109 136 151 140 158 155 135 160 119 23 1 0 0 0 0 0 0 0 0 0 0 0 0 0 0 0 0 0 0 0 0 0 0 0 0 0 0 0 0 0 0 0 0 0 0 0 0 0 0 0 
0 0 0 0 0 0 0 0 0 0 0 0 0 1 8 24 105 119 131 173 151 149 123 103 143 127 108 127 125 131 120 132 143 131 125 129 98 67 53 54 52 52 49 55 63 80 101 122 137 146 146 152 159 133 121 135 146 144 129 110 87 70 57 55 71 108 127 124 122 121 118 110 131 126 131 120 104 87 101 132 148 131 140 164 136 160 132 48 3 0 0 0 0 0 0 0 0 0 0 0 0 0 0 0 0 0 0 0 0 0 0 0 0 0 0 0 0 0 0 0 0 0 0 0 0 0 0 0 
0 0 0 0 0 0 0 0 0 0 0 0 0 5 7 54 120 108 151 172 137 130 98 104 148 120 115 118 122 125 127 139 141 128 122 94 60 52 51 53 51 53 60 89 122 146 151 145 129 117 95 82 133 79 66 68 76 106 137 157 157 137 104 72 61 81 113 130 129 125 120 118 134 127 132 130 113 78 88 128 150 128 131 163 138 155 138 68 4 0 0 0 0 0 0 0 0 0 0 0 0 0 0 0 0 0 0 0 0 0 0 0 0 0 0 0 0 0 0 0 0 0 0 0 0 0 0 0 
0 0 0 0 0 0 0 0 0 0 0 0 0 5 14 83 113 113 170 161 123 110 91 118 142 119 119 102 119 126 135 146 141 124 110 71 56 53 51 53 61 84 123 154 164 150 105 86 68 60 52 53 90 56 51 50 51 52 62 80 125 161 164 138 95 69 90 120 130 125 120 119 131 136 131 134 116 78 79 116 149 128 123 160 145 141 137 85 6 0 0 0 0 0 0 0 0 0 0 0 0 0 0 0 0 0 0 0 0 0 0 0 0 0 0 0 0 0 0 0 0 0 0 0 0 0 0 0 
0 0 0 0 0 0 0 0 0 0 0 0 0 6 28 102 104 120 181 133 107 93 93 130 136 121 107 96 128 134 143 144 136 125 91 59 54 56 57 68 107 150 167 160 139 77 56 52 51 53 51 51 69 48 49 50 51 52 52 50 62 91 149 173 155 108 76 97 126 125 124 121 125 141 138 137 118 74 70 105 147 121 126 153 147 144 146 100 10 0 0 0 0 0 0 0 0 0 0 0 0 0 0 0 0 0 0 0 0 0 0 0 0 0 0 0 0 0 0 0 0 0 0 0 0 0 0 0 
0 0 0 0 0 0 0 0 0 0 0 0 0 7 40 111 100 136 173 113 94 93 102 135 132 111 99 102 133 139 145 140 134 106 67 53 54 57 75 118 158 168 140 92 64 52 48 49 50 51 52 50 50 49 48 49 50 51 52 50 52 58 92 150 173 157 109 83 113 125 122 122 117 134 140 134 121 70 71 101 140 110 119 143 155 137 155 111 19 0 0 0 0 0 0 0 0 0 0 0 0 0 0 0 0 0 0 0 0 0 0 0 0 0 0 0 0 0 0 0 0 0 0 0 0 0 0 0 
0 0 0 0 0 0 0 0 0 0 0 0 1 6 49 113 109 156 164 106 92 96 106 128 132 106 95 114 142 142 143 136 124 84 57 52 57 74 118 158 166 143 87 61 50 50 47 48 47 50 51 49 49 48 48 49 51 51 54 52 51 50 65 86 145 169 142 97 96 125 125 122 119 128 135 138 124 73 60 104 137 115 125 140 155 134 168 130 31 1 0 0 0 0 0 0 0 0 0 0 0 0 0 0 0 0 0 0 0 0 0 0 0 0 0 0 0 0 0 0 0 0 0 0 0 0 0 0 
0 0 0 0 0 0 0 0 0 0 0 0 2 7 58 114 111 172 143 103 100 96 101 127 141 101 101 115 145 148 144 132 102 67 54 58 73 118 156 168 161 126 80 63 56 54 52 49 46 48 52 51 49 50 49 50 49 50 49 53 53 52 53 64 103 159 144 137 115 119 130 126 123 135 139 138 124 83 55 107 141 116 125 135 161 136 164 153 41 2 0 0 0 0 0 0 0 0 0 0 0 0 0 0 0 0 0 0 0 0 0 0 0 0 0 0 0 0 0 0 0 0 0 0 0 0 0 0 
0 0 0 0 0 0 0 0 0 0 0 0 4 7 64 114 118 188 132 103 113 97 90 130 149 105 106 114 145 151 145 122 84 56 53 73 118 156 168 169 160 141 131 105 62 57 56 54 53 53 54 54 53 53 50 51 51 51 52 50 52 52 52 61 117 128 138 166 163 157 147 132 132 142 147 144 123 93 59 109 131 117 121 132 168 140 158 167 47 2 0 0 0 0 0 0 0 0 0 0 0 0 0 0 0 0 0 0 0 0 0 0 0 0 0 0 0 0 0 0 0 0 0 0 0 0 0 0 
0 0 0 0 0 0 0 0 0 0 0 0 3 6 73 112 133 190 124 105 126 99 82 129 153 113 111 114 138 147 141 111 68 56 92 140 168 165 136 105 82 75 97 122 115 63 57 60 55 57 57 55 53 55 55 55 58 54 53 53 53 53 91 102 78 62 62 81 111 151 169 150 144 145 146 142 122 99 76 110 132 118 114 130 160 137 150 174 61 3 0 0 0 0 0 0 0 0 0 0 0 0 0 0 0 0 0 0 0 0 0 0 0 0 0 0 0 0 0 0 0 0 0 0 0 0 0 0 
0 0 0 0 0 0 0 0 0 0 0 0 2 5 79 113 145 185 116 106 132 101 85 136 159 136 115 112 128 147 139 101 68 104 149 157 119 73 55 60 65 53 57 61 70 98 81 56 55 55 56 55 56 53 55 56 55 56 53 51 59 95 85 80 79 72 71 73 73 100 145 155 150 142 142 138 119 109 102 129 130 115 115 130 158 137 142 176 72 5 0 0 0 0 0 0 0 0 0 0 0 0 0 0 0 0 0 0 0 0 0 0 0 0 0 0 0 0 0 0 0 0 0 0 0 0 0 0 
0 0 0 0 0 0 0 0 0 0 0 0 3 5 84 114 156 187 113 102 128 104 92 141 161 154 126 114 121 144 139 100 101 128 122 99 88 76 76 87 85 73 65 62 63 62 98 86 55 56 57 53 55 54 55 56 57 56 56 63 103 76 74 70 64 63 60 62 66 84 122 143 140 135 135 139 121 125 120 126 118 103 114 124 151 141 140 182 90 6 0 0 0 0 0 0 0 0 0 0 0 0 0 0 0 0 0 0 0 0 0 0 0 0 0 0 0 0 0 0 0 0 0 0 0 0 0 0 
0 0 0 0 0 0 0 0 0 0 0 0 4 5 88 116 163 185 112 105 122 103 89 136 158 154 139 123 121 142 139 115 102 92 93 83 76 70 71 72 75 76 78 82 76 65 69 107 61 61 60 56 54 58 58 58 57 55 57 113 87 78 57 51 53 58 60 59 59 70 102 128 131 132 134 147 137 144 129 132 109 92 115 121 142 134 141 183 107 10 0 0 0 0 0 0 0 0 0 0 0 0 0 0 0 0 0 0 0 0 0 0 0 0 0 0 0 0 0 0 0 0 0 0 0 0 0 0 
0 0 0 0 0 0 0 0 0 0 0 0 6 8 89 118 173 188 113 101 108 105 93 129 160 168 153 134 125 135 137 114 91 91 76 60 59 58 57 60 62 60 60 65 78 76 75 102 102 80 81 80 72 67 61 58 56 57 69 110 80 59 56 55 60 63 60 59 58 65 93 119 130 134 147 153 146 157 149 142 101 86 112 120 130 124 140 180 116 13 0 0 0 0 0 0 0 0 0 0 0 0 0 0 0 0 0 0 0 0 0 0 0 0 0 0 0 0 0 0 0 0 0 0 0 0 0 0 
0 0 0 0 0 0 0 0 0 0 0 0 6 13 87 127 179 187 113 86 106 104 97 121 145 184 172 139 131 129 125 102 84 73 60 57 57 55 53 57 60 61 61 61 64 88 94 108 129 100 99 97 95 102 77 63 58 59 98 106 62 53 53 57 60 59 57 54 58 61 88 117 130 140 148 152 154 159 146 132 94 84 106 112 119 114 139 176 123 19 1 0 0 0 0 0 0 0 0 0 0 0 0 0 0 0 0 0 0 0 0 0 0 0 0 0 0 0 0 0 0 0 0 0 0 0 0 0 
0 0 0 0 0 0 0 0 0 0 0 0 6 15 85 136 182 184 100 78 107 104 98 111 132 178 183 162 139 127 114 85 82 68 54 56 53 52 54 54 55 58 60 66 76 94 109 117 142 110 105 104 112 117 98 75 81 77 107 82 53 53 54 58 57 56 53 53 54 61 85 119 128 136 152 151 158 172 155 115 88 84 93 109 118 107 134 173 134 27 2 0 0 0 0 0 0 0 0 0 0 0 0 0 0 0 0 0 0 0 0 0 0 0 0 0 0 0 0 0 0 0 0 0 0 0 0 0 
0 0 0 0 0 0 0 0 0 0 0 0 7 16 87 145 189 175 84 74 108 103 90 100 122 164 175 165 132 119 103 77 73 67 51 55 54 53 54 54 57 57 61 74 88 102 106 116 142 115 107 100 101 111 102 91 115 112 96 65 51 57 59 59 54 55 55 53 54 60 84 118 129 136 154 149 160 174 143 99 84 85 84 102 115 106 139 169 142 36 1 0 0 0 0 0 0 0 0 0 0 0 0 0 0 0 0 0 0 0 0 0 0 0 0 0 0 0 0 0 0 0 0 0 0 0 0 0 
0 0 0 0 0 0 0 0 0 0 0 0 7 16 85 150 188 166 85 75 109 94 67 92 117 158 166 149 124 118 95 72 68 62 46 55 54 53 53 53 56 54 64 81 96 101 101 101 111 95 100 102 117 132 128 120 86 96 93 62 54 62 90 78 58 58 57 54 53 58 84 123 134 133 145 147 158 166 121 97 97 85 83 91 100 107 124 158 141 45 2 0 0 0 0 0 0 0 0 0 0 0 0 0 0 0 0 0 0 0 0 0 0 0 0 0 0 0 0 0 0 0 0 0 0 0 0 0 
0 0 0 0 0 0 0 0 0 0 0 0 8 19 83 149 183 152 79 83 110 80 52 90 113 149 163 136 119 116 87 69 67 57 44 48 55 53 57 57 53 59 70 87 99 102 102 97 109 95 103 119 128 102 108 95 100 75 73 66 81 101 118 78 59 57 58 54 53 57 85 123 134 133 148 147 145 148 113 100 121 89 80 93 94 110 105 147 142 50 1 0 0 0 0 0 0 0 0 0 0 0 0 0 0 0 0 0 0 0 0 0 0 0 0 0 0 0 0 0 0 0 0 0 0 0 0 0 
0 0 0 0 0 0 0 0 0 0 0 0 6 22 79 152 175 133 88 90 100 66 50 83 112 143 159 124 119 116 74 58 73 58 52 58 53 55 61 56 52 59 91 120 120 112 101 97 107 90 94 122 111 106 114 102 108 98 76 87 78 78 71 62 59 55 55 57 54 57 86 121 130 135 149 148 131 135 113 95 128 93 81 91 93 115 97 141 142 53 1 0 0 0 0 0 0 0 0 0 0 0 0 0 0 0 0 0 0 0 0 0 0 0 0 0 0 0 0 0 0 0 0 0 0 0 0 0 
0 0 0 0 0 0 0 0 0 0 0 0 5 23 77 148 163 123 96 96 103 73 48 76 111 145 156 122 118 108 73 52 72 65 51 56 52 61 60 54 55 62 96 117 119 126 110 104 113 111 117 109 87 89 99 96 100 110 63 70 64 62 61 62 62 57 53 52 53 60 86 126 129 139 153 156 136 131 95 88 130 100 86 89 91 121 98 149 130 52 0 0 0 0 0 0 0 0 0 0 0 0 0 0 0 0 0 0 0 0 0 0 0 0 0 0 0 0 0 0 0 0 0 0 0 0 0 0 
0 0 0 0 0 0 0 0 0 0 0 0 4 23 70 144 157 119 101 96 97 74 49 66 107 147 169 131 118 114 76 50 56 76 58 56 55 54 53 51 55 65 78 97 103 106 98 99 119 96 97 95 92 91 102 98 92 90 75 71 59 58 64 84 67 57 54 53 55 60 89 126 136 148 156 158 160 122 78 83 128 102 87 85 95 121 103 154 119 50 0 0 0 0 0 0 0 0 0 0 0 0 0 0 0 0 0 0 0 0 0 0 0 0 0 0 0 0 0 0 0 0 0 0 0 0 0 0 
0 0 0 0 0 0 0 0 0 0 0 0 2 20 65 132 161 115 102 94 95 76 53 56 96 141 174 143 115 112 79 49 50 71 69 56 55 52 51 54 54 67 86 97 100 103 99 88 95 94 110 93 95 98 107 99 92 81 78 65 56 51 72 102 70 57 53 55 55 60 82 124 140 152 156 164 151 105 67 76 123 101 91 77 107 117 112 149 106 47 0 0 0 0 0 0 0 0 0 0 0 0 0 0 0 0 0 0 0 0 0 0 0 0 0 0 0 0 0 0 0 0 0 0 0 0 0 0 
0 0 0 0 0 0 0 0 0 0 0 0 0 18 65 125 164 115 102 95 95 78 57 49 77 128 174 147 121 115 85 52 49 63 72 56 50 49 51 53 59 74 95 102 102 104 93 89 92 101 109 100 93 107 109 100 105 82 87 70 57 59 89 104 74 57 55 53 53 57 78 121 144 153 153 158 128 96 57 68 118 102 91 72 113 113 127 149 99 45 0 0 0 0 0 0 0 0 0 0 0 0 0 0 0 0 0 0 0 0 0 0 0 0 0 0 0 0 0 0 0 0 0 0 0 0 0 0 
0 0 0 0 0 0 0 0 0 6 6 0 2 15 62 110 163 119 102 93 99 77 61 46 59 113 172 151 128 127 103 61 49 48 62 62 50 51 55 59 70 93 104 105 109 110 93 93 93 110 110 101 95 113 116 105 104 88 81 69 58 58 103 93 71 57 56 53 51 56 82 120 148 153 165 161 111 89 58 66 108 101 87 71 115 111 136 138 89 42 0 0 0 0 0 0 0 0 0 0 0 0 0 0 0 0 0 0 0 0 0 0 0 0 0 0 0 0 0 0 0 0 0 0 0 0 0 0 
0 0 0 0 0 0 0 0 0 0 5 1 3 12 58 97 157 133 95 90 98 85 65 47 49 89 165 165 129 124 112 69 49 45 47 69 58 49 54 61 80 115 122 111 103 97 99 98 97 118 112 103 97 112 110 108 105 96 82 69 93 107 92 61 55 50 56 58 52 54 80 122 147 160 181 152 96 83 61 78 106 107 85 80 111 112 153 125 85 40 0 0 0 0 0 0 0 0 0 0 0 0 0 0 0 0 0 0 0 0 0 0 0 0 0 0 0 0 0 0 0 0 0 0 0 0 0 0 
0 0 0 0 0 0 0 0 0 0 0 5 4 11 51 85 137 143 91 83 95 94 76 51 45 68 146 172 143 126 134 93 52 46 42 52 53 50 55 63 89 112 119 121 103 114 116 104 102 114 111 106 97 103 108 97 100 99 78 85 84 103 89 82 64 57 52 52 52 60 96 151 185 192 183 137 113 87 60 76 108 127 93 76 111 123 157 102 83 32 0 0 0 0 0 0 0 0 0 0 0 0 0 0 0 0 0 0 0 0 0 0 0 0 0 0 0 0 0 0 0 0 0 0 0 0 0 0 
0 0 0 0 0 0 0 0 0 0 0 13 10 8 42 78 122 156 94 74 89 100 86 60 46 51 122 164 151 152 194 174 101 51 45 45 51 61 72 84 98 108 106 100 80 92 96 101 98 106 100 92 81 97 98 81 77 71 74 100 76 71 62 74 76 88 96 81 85 115 180 208 221 209 212 198 175 115 65 85 117 150 93 60 111 148 146 88 79 22 0 0 1 8 2 0 0 0 0 0 0 0 0 0 0 0 0 0 0 0 0 0 0 0 0 0 0 0 0 0 0 0 0 0 0 0 0 0 
0 0 0 0 0 0 0 0 0 0 0 19 12 8 35 78 105 155 118 74 85 96 91 67 49 44 93 156 163 180 208 193 170 142 105 90 91 94 92 94 103 98 66 58 72 88 87 79 85 83 73 71 63 80 85 64 61 63 63 89 61 83 89 83 80 101 136 161 145 173 201 219 215 187 136 130 171 140 83 94 129 146 91 73 110 168 129 84 79 16 0 0 4 0 0 0 0 0 0 0 0 0 0 0 0 0 0 0 0 0 0 0 0 0 0 0 0 0 0 0 0 0 0 0 0 0 0 0 
0 0 0 0 0 0 0 0 0 0 2 20 6 12 26 76 93 157 137 78 80 90 96 82 74 55 57 141 166 198 213 198 154 122 124 123 118 96 80 69 65 42 44 52 71 76 62 64 87 75 66 55 53 88 80 57 58 81 90 97 87 71 67 65 62 78 100 104 129 156 179 227 225 172 91 88 133 137 106 113 130 137 103 106 137 174 83 77 72 13 5 1 3 0 0 0 0 0 0 0 0 0 0 0 0 0 0 0 0 0 0 1 0 0 0 0 0 0 0 0 0 0 0 0 0 0 0 0 
0 0 0 0 0 0 0 0 0 0 3 15 1 12 17 66 88 144 162 97 72 92 103 109 113 60 43 102 167 191 214 205 170 126 108 112 80 71 67 66 48 39 42 50 53 54 55 60 98 107 58 51 51 83 77 94 101 90 93 68 80 56 57 59 62 73 94 112 154 166 153 201 229 199 108 128 158 150 129 122 113 129 129 128 156 175 50 73 55 10 10 8 3 0 0 0 0 0 0 0 0 0 0 0 0 0 0 0 0 0 0 0 0 0 0 0 0 0 0 0 0 0 0 0 0 0 0 0 
0 0 0 0 0 0 0 0 0 0 1 14 0 2 14 59 88 129 170 126 67 87 111 123 132 79 51 69 155 196 209 207 207 175 119 69 66 82 80 61 51 42 50 47 50 50 61 84 92 108 106 103 65 98 111 87 67 97 94 62 63 53 53 60 74 106 102 127 146 165 204 220 219 198 138 127 156 136 119 109 86 124 157 148 164 137 75 82 29 13 13 10 7 0 0 0 0 0 0 0 0 0 0 0 0 0 0 0 0 0 0 0 0 0 0 0 0 0 0 0 0 0 0 0 0 0 0 0 
0 0 0 0 0 0 0 0 0 0 2 14 0 1 4 36 88 117 174 134 92 104 125 135 136 104 75 49 114 195 187 200 190 178 164 118 97 98 89 60 55 41 40 43 46 46 71 85 85 63 77 109 103 116 99 56 46 76 90 59 57 55 55 68 83 123 124 157 175 207 222 219 184 153 162 142 154 147 122 100 62 111 159 117 153 90 71 67 16 8 3 5 8 0 0 0 0 0 0 0 0 0 0 0 0 0 0 0 0 0 0 0 0 0 0 0 0 0 0 0 0 0 0 0 0 0 0 0 
0 0 0 0 0 0 0 0 0 0 0 9 6 0 4 4 55 97 156 170 127 153 133 126 140 127 90 61 71 154 204 224 212 180 200 174 121 96 90 53 51 65 37 38 42 40 58 88 74 44 57 101 74 87 100 49 46 50 87 105 82 64 66 78 75 82 133 174 187 174 201 211 164 112 155 178 162 153 136 106 82 135 151 173 176 105 70 75 19 4 3 3 8 2 0 0 0 0 0 0 0 0 0 0 0 0 0 0 0 0 0 0 0 0 0 0 0 0 0 0 0 0 0 0 0 0 0 0 
0 0 0 0 0 0 0 0 0 0 0 8 4 0 3 3 34 91 139 185 153 151 162 158 149 134 94 60 43 107 201 232 228 201 186 176 124 84 85 53 54 75 67 46 47 68 74 97 93 77 70 80 91 95 80 53 50 51 64 87 97 77 59 67 58 61 126 199 194 181 191 151 125 109 147 179 169 134 122 118 113 153 183 185 171 104 88 54 7 2 1 3 8 3 0 0 0 0 0 0 0 0 0 0 0 0 0 0 0 0 0 0 0 0 0 0 0 0 0 0 0 0 0 0 0 0 0 0 
0 0 0 0 0 0 0 0 0 0 0 8 1 0 2 5 22 79 114 186 178 120 123 135 158 141 106 97 76 98 174 216 228 206 176 164 134 119 131 84 71 91 92 73 51 55 64 91 77 75 105 108 62 77 79 60 50 58 66 57 69 62 66 82 68 92 152 204 199 187 183 121 79 110 140 156 153 122 107 133 140 150 216 211 133 71 85 34 6 2 2 6 4 2 0 0 0 0 0 0 0 0 0 0 0 0 0 0 0 0 0 0 0 0 0 0 0 0 0 0 0 0 0 0 0 0 0 0 
0 0 0 0 0 0 0 0 0 0 1 6 1 0 0 7 15 60 95 171 192 141 133 138 107 108 100 91 93 110 155 193 222 204 176 165 168 175 155 110 69 80 69 48 44 47 63 69 69 116 140 126 93 91 126 102 70 72 64 49 58 60 76 113 138 143 154 168 174 159 139 118 97 130 143 158 146 113 92 148 175 190 205 186 79 53 67 20 9 3 8 7 0 3 0 0 0 0 0 0 0 0 0 0 0 0 0 0 0 0 0 0 0 0 0 0 0 0 0 0 0 0 0 0 0 0 0 0 
0 0 0 0 0 0 0 0 0 0 2 6 1 0 0 10 19 39 87 143 203 175 172 136 142 113 101 94 92 112 166 181 161 134 185 214 194 175 156 128 80 81 58 54 61 71 77 95 133 131 125 128 127 130 164 155 134 99 69 67 92 117 131 147 146 148 155 158 135 118 119 103 85 103 123 148 131 101 103 141 171 196 196 115 45 70 43 16 13 13 11 0 0 6 0 0 0 0 0 0 0 0 0 0 0 0 0 0 0 0 0 0 0 0 0 0 0 0 0 0 0 0 0 0 0 0 0 0 
0 0 0 0 0 0 0 0 0 0 3 6 2 0 0 15 18 21 73 108 190 196 162 139 142 134 113 101 100 112 122 123 89 99 145 195 210 194 151 140 121 101 88 109 121 128 129 133 128 114 107 112 126 143 169 156 143 130 114 124 132 145 162 184 184 165 153 120 86 111 103 80 79 94 115 134 129 104 109 138 154 173 173 64 57 78 21 14 14 15 5 0 0 5 0 0 0 0 0 0 0 0 0 0 0 0 0 0 0 0 0 0 0 0 0 0 0 0 0 0 0 0 0 0 0 0 0 0 
0 0 0 0 0 0 0 0 0 0 4 7 2 0 0 6 21 17 46 94 152 188 156 127 125 130 133 106 110 99 114 104 69 57 91 143 162 193 202 174 137 124 126 129 125 133 117 115 100 94 100 110 143 148 153 146 150 156 142 140 154 181 192 197 179 147 101 91 108 122 93 86 83 101 116 125 113 115 111 120 125 159 135 49 84 62 16 14 16 10 0 0 0 6 0 0 0 0 0 0 0 0 0 0 0 0 0 0 0 0 0 0 0 0 0 0 0 0 0 0 0 0 0 0 0 0 0 0 
0 0 0 0 0 0 0 0 0 0 3 8 4 0 0 4 11 22 31 84 122 183 156 131 109 103 131 115 102 90 103 107 78 72 80 125 108 117 156 186 178 147 143 133 132 130 100 105 129 134 143 158 169 168 168 162 170 159 138 121 123 150 194 181 124 89 106 141 158 118 90 91 104 131 125 112 76 141 109 118 97 118 111 79 87 39 18 13 6 0 0 0 1 6 1 0 0 0 0 0 0 0 0 0 0 0 0 0 0 0 0 0 0 0 0 0 0 0 0 0 0 0 0 0 0 0 0 0 
0 0 0 0 0 0 0 0 0 0 0 7 6 0 0 4 5 20 23 63 105 162 130 110 116 103 108 124 88 77 93 111 86 85 119 130 81 62 84 115 153 175 148 143 148 141 129 131 149 150 158 157 166 170 156 138 130 133 136 140 139 152 174 156 118 144 161 179 165 123 98 100 107 127 118 99 121 153 125 112 102 114 133 101 76 26 8 2 2 0 0 0 2 7 3 0 0 0 0 0 0 0 0 0 0 0 0 0 0 0 0 0 0 0 0 0 0 0 0 0 0 0 0 0 0 0 0 0 
0 0 0 0 0 0 0 0 0 0 0 1 7 1 0 4 6 8 23 37 85 144 134 79 112 103 105 118 115 104 73 97 101 100 107 112 105 89 92 105 107 177 194 165 144 135 134 172 179 173 156 147 145 144 141 139 127 120 122 134 123 144 174 176 163 141 133 143 137 111 109 103 92 81 65 141 129 137 112 96 80 77 148 102 52 21 3 3 2 0 0 0 5 8 3 0 0 0 0 0 0 0 0 0 0 0 0 0 0 0 0 0 0 0 0 0 0 0 0 0 0 0 0 0 0 0 0 0 
0 0 0 0 0 0 0 0 0 0 0 1 13 15 1 2 6 5 16 24 48 134 170 88 103 119 126 135 136 138 68 47 72 113 110 114 115 122 130 140 147 152 164 155 143 110 122 149 150 148 120 107 104 102 109 113 107 90 91 111 115 168 183 187 165 120 128 140 128 89 61 65 75 57 119 164 115 142 107 98 102 100 127 82 32 16 3 2 2 0 0 0 5 8 3 0 0 0 0 0 0 0 0 0 0 0 0 0 0 0 0 0 0 0 0 0 0 0 0 0 0 0 0 0 0 0 0 0 
0 0 0 0 0 0 0 0 0 0 0 3 14 15 6 0 4 5 11 18 24 102 175 121 81 94 121 142 144 152 120 51 57 102 88 103 114 118 108 105 137 146 160 156 155 108 120 128 134 134 112 115 134 112 113 98 107 110 106 120 123 180 171 172 151 115 129 126 103 68 54 48 49 99 172 147 143 161 117 121 98 118 145 64 22 14 2 2 1 0 0 0 7 8 0 0 0 0 0 0 0 0 0 0 0 0 0 0 0 0 0 0 0 0 0 0 0 0 0 0 0 0 0 0 0 0 0 0 
0 0 0 0 0 0 0 0 0 0 0 0 7 8 12 3 2 5 13 16 16 65 168 149 89 75 97 143 155 175 180 164 116 74 54 60 65 79 94 107 113 144 196 184 171 128 125 127 140 145 138 164 172 140 104 94 102 122 122 119 128 178 162 158 131 124 144 125 82 53 48 54 106 154 178 146 150 134 135 120 81 123 134 37 18 17 1 2 0 0 0 0 9 3 0 0 0 0 0 0 0 0 0 0 0 0 0 0 0 0 0 0 0 0 0 0 0 0 0 0 0 0 0 0 0 0 0 0 
0 0 0 0 0 0 0 0 0 0 0 0 11 10 11 11 11 12 10 10 16 40 136 157 110 77 88 139 170 195 182 192 155 95 63 56 60 55 60 79 74 101 181 200 165 114 114 111 113 125 131 128 116 126 109 93 86 92 99 97 93 143 129 125 126 138 132 84 69 61 107 156 152 165 141 109 127 157 118 95 90 140 88 17 7 8 6 0 0 0 1 13 21 0 0 0 0 0 0 0 0 0 0 0 0 0 0 0 0 0 0 0 0 0 0 0 0 0 0 0 0 0 0 0 0 0 0 0 
0 0 0 0 0 0 0 0 0 0 0 0 14 15 9 7 6 5 7 9 16 28 83 134 118 78 124 170 132 153 142 163 182 169 137 105 90 78 77 84 97 167 195 199 177 172 144 136 137 140 140 132 146 150 153 124 116 132 132 115 114 151 177 162 148 187 181 134 178 183 197 193 143 142 128 93 91 127 113 105 125 116 46 12 4 1 0 4 3 3 8 10 9 0 0 0 0 0 0 0 0 0 0 0 0 0 0 0 0 0 0 0 0 0 0 0 0 0 0 0 0 0 0 0 0 0 0 0 
0 0 0 0 0 0 0 0 0 0 0 0 5 10 4 0 1 1 4 7 17 18 31 98 138 133 148 124 99 135 106 113 141 157 168 160 160 138 113 144 197 215 208 165 180 203 168 181 191 182 158 161 167 153 158 159 170 177 160 150 181 227 197 167 208 211 185 169 176 143 102 98 99 124 131 126 92 89 136 145 128 54 37 19 2 1 0 0 1 5 5 8 6 0 0 0 0 0 0 0 0 0 0 0 0 0 0 0 0 0 0 0 0 0 0 0 0 0 0 0 0 0 0 0 0 0 0 0 
0 0 0 0 0 0 0 0 0 0 0 0 0 6 4 1 0 0 0 4 13 19 23 49 130 154 126 47 67 97 68 82 116 120 137 161 141 124 164 230 238 233 232 200 145 227 150 164 158 164 124 104 114 128 133 121 125 144 143 135 136 177 174 167 151 184 97 87 68 47 22 21 34 108 107 81 88 58 58 74 54 39 34 13 14 2 0 0 0 0 1 9 13 0 0 0 0 0 0 0 0 0 0 0 0 0 0 0 0 0 0 0 0 0 0 0 0 0 0 0 0 0 0 0 0 0 0 0 
0 0 0 0 0 0 0 0 0 0 0 0 0 4 11 12 10 0 0 0 3 9 16 25 51 91 55 27 49 104 51 36 72 63 43 44 45 56 65 82 132 213 232 232 203 220 169 121 94 81 59 70 87 74 69 77 63 55 77 71 86 126 140 152 151 157 165 88 59 48 37 36 54 102 52 44 107 60 19 22 27 28 18 5 2 0 0 2 6 6 6 12 8 0 0 0 0 0 0 0 0 0 0 0 0 0 0 0 0 0 0 0 0 0 0 0 0 0 0 0 0 0 0 0 0 0 0 0 
0 0 0 0 0 0 0 0 0 0 0 0 0 0 6 11 10 3 0 0 2 6 8 13 24 23 22 22 40 100 58 48 42 47 35 37 38 44 52 50 77 136 139 152 133 99 66 48 50 68 37 58 71 61 52 62 48 41 70 46 56 135 151 125 107 115 144 111 99 122 52 32 35 74 44 39 96 58 29 28 25 23 13 5 3 0 3 5 6 6 8 5 0 0 0 0 0 0 0 0 0 0 0 0 0 0 0 0 0 0 0 0 0 0 0 0 0 0 0 0 0 0 0 0 0 0 0 0 
0 0 0 0 0 0 0 0 0 0 0 0 0 0 0 0 2 1 0 0 0 7 7 12 18 25 24 30 39 115 67 65 48 39 45 50 53 61 118 148 168 164 150 166 173 138 76 69 82 86 48 72 94 89 77 69 53 38 61 56 67 140 120 89 93 133 98 71 63 96 82 101 83 90 57 32 90 46 22 16 15 10 2 2 0 0 0 1 4 3 1 0 0 0 0 0 0 0 0 0 0 0 0 0 0 0 0 0 0 0 0 0 0 0 0 0 0 0 0 0 0 0 0 0 0 0 0 0 
0 0 0 0 0 0 0 0 0 0 0 0 0 0 0 0 0 0 0 0 0 5 5 10 9 12 15 21 34 105 58 60 62 54 57 68 44 89 113 123 162 180 155 152 176 177 132 120 97 87 99 119 114 97 82 77 67 43 44 49 58 117 133 129 133 132 124 74 101 208 191 149 96 60 44 38 57 33 26 17 14 12 5 0 0 0 0 0 0 0 0 0 0 0 0 0 0 0 0 0 0 0 0 0 0 0 0 0 0 0 0 0 0 0 0 0 0 0 0 0 0 0 0 0 0 0 0 0 
0 0 0 0 0 0 0 0 0 0 0 0 0 0 0 0 0 0 0 0 0 0 0 2 8 27 27 10 22 51 48 39 61 36 56 57 45 47 131 146 134 147 168 139 150 153 162 167 140 98 138 171 176 145 122 111 112 107 119 117 119 147 128 121 125 126 130 89 182 206 206 163 73 27 12 7 76 6 18 12 1 0 0 0 0 0 0 0 0 0 0 0 0 0 0 0 0 0 0 0 0 0 0 0 0 0 0 0 0 0 0 0 0 0 0 0 0 0 0 0 0 0 0 0 0 0 0 0 
0 0 0 0 0 0 0 0 0 0 0 0 0 0 0 0 0 0 0 0 0 0 1 2 11 22 23 8 14 49 80 46 63 41 59 47 41 48 48 110 129 135 129 86 87 98 107 98 104 116 114 118 125 116 134 101 101 102 122 133 156 154 126 88 82 101 125 129 182 210 174 130 99 55 38 21 92 7 6 5 8 4 2 0 0 0 0 0 0 0 0 0 0 0 0 0 0 0 0 0 0 0 0 0 0 0 0 0 0 0 0 0 0 0 0 0 0 0 0 0 0 0 0 0 0 0 0 0 
0 0 0 0 0 0 0 0 0 0 0 0 0 0 0 0 0 0 0 0 0 0 2 5 5 16 23 16 21 40 110 73 68 51 86 81 60 26 58 97 99 97 78 56 92 96 88 67 71 117 126 120 125 104 122 100 107 110 120 112 121 142 139 71 67 66 100 109 118 119 72 52 56 74 79 47 101 15 8 15 25 15 3 0 0 0 0 0 0 0 0 0 0 0 0 0 0 0 0 0 0 0 0 0 0 0 0 0 0 0 0 0 0 0 0 0 0 0 0 0 0 0 0 0 0 0 0 0 
0 0 0 0 0 0 0 0 0 0 0 0 0 0 0 0 0 0 0 0 0 0 1 3 6 12 26 24 20 26 97 99 75 57 79 59 66 79 75 95 100 99 74 76 110 119 139 120 77 109 116 90 111 101 102 97 113 115 123 109 94 104 80 55 50 62 91 86 86 91 76 73 83 97 114 51 95 27 10 20 27 16 4 0 0 0 0 0 0 0 0 0 0 0 0 0 0 0 0 0 0 0 0 0 0 0 0 0 0 0 0 0 0 0 0 0 0 0 0 0 0 0 0 0 0 0 0 0 
0 0 0 0 0 0 0 0 0 0 0 0 0 0 0 0 0 0 0 0 0 0 0 3 5 7 23 26 22 24 83 100 75 71 79 40 33 47 61 94 95 83 88 94 101 116 122 141 113 97 102 82 101 97 94 99 123 112 121 110 71 81 91 76 95 114 101 76 64 68 47 28 40 81 136 61 95 28 12 22 24 14 3 0 0 0 0 0 0 0 0 0 0 0 0 0 0 0 0 0 0 0 0 0 0 0 0 0 0 0 0 0 0 0 0 0 0 0 0 0 0 0 0 0 0 0 0 0 
0 0 0 0 0 0 0 0 0 0 0 0 0 0 0 0 0 0 0 0 0 0 0 2 3 4 18 26 27 21 73 103 66 83 80 39 28 34 37 47 51 75 112 111 101 88 73 113 114 88 74 67 81 80 66 81 100 96 103 94 60 96 116 115 88 92 126 101 74 61 44 23 33 56 132 70 86 29 13 21 20 12 1 0 0 0 0 0 0 0 0 0 0 0 0 0 0 0 0 0 0 0 0 0 0 0 0 0 0 0 0 0 0 0 0 0 0 0 0 0 0 0 0 0 0 0 0 0 
0 0 0 0 0 0 0 0 0 0 0 0 0 0 0 0 0 0 0 0 0 0 0 0 4 4 11 21 26 26 67 90 65 67 78 44 32 36 39 41 55 86 108 78 91 84 72 96 108 79 51 56 57 55 52 63 73 80 77 79 86 108 93 96 93 80 118 122 98 62 44 29 28 49 114 73 79 49 19 19 18 11 1 0 0 0 0 0 0 0 0 0 0 0 0 0 0 0 0 0 0 0 0 0 0 0 0 0 0 0 0 0 0 0 0 0 0 0 0 0 0 0 0 0 0 0 0 0 
0 0 0 0 0 0 0 0 0 0 0 0 0 0 0 0 0 0 0 0 0 0 0 0 1 4 5 17 25 29 66 56 66 43 73 51 31 37 44 51 66 80 126 84 92 93 72 87 132 78 54 56 58 58 70 57 67 86 79 69 77 120 111 80 82 93 111 143 89 68 45 38 37 53 97 78 92 66 21 17 19 10 0 0 0 0 0 0 0 0 0 0 0 0 0 0 0 0 0 0 0 0 0 0 0 0 0 0 0 0 0 0 0 0 0 0 0 0 0 0 0 0 0 0 0 0 0 0 
0 0 0 0 0 0 0 0 0 0 0 0 0 0 0 0 0 0 0 0 0 0 0 0 0 3 3 13 21 23 47 72 77 28 66 63 36 38 44 56 54 84 138 90 88 89 86 113 152 81 54 49 49 58 63 58 53 61 61 61 62 118 128 83 79 105 117 140 83 65 47 36 37 49 82 51 69 26 18 17 21 12 0 0 0 0 0 0 0 0 0 0 0 0 0 0 0 0 0 0 0 0 0 0 0 0 0 0 0 0 0 0 0 0 0 0 0 0 0 0 0 0 0 0 0 0 0 0 
0 0 0 0 0 0 0 0 0 0 0 0 0 0 0 0 0 0 0 0 0 0 0 0 0 1 4 7 16 17 22 55 46 17 48 67 40 36 47 55 40 71 133 104 90 83 96 129 156 84 56 48 42 41 34 37 44 60 71 63 57 119 133 101 83 88 104 127 91 59 49 35 36 56 84 31 13 7 13 19 21 12 0 0 0 0 0 0 0 0 0 0 0 0 0 0 0 0 0 0 0 0 0 0 0 0 0 0 0 0 0 0 0 0 0 0 0 0 0 0 0 0 0 0 0 0 0 0 
0 0 0 0 0 0 0 0 0 0 0 0 0 0 0 0 0 0 0 0 0 0 0 0 0 0 3 2 11 17 21 24 18 16 27 74 49 42 65 78 43 64 129 113 87 92 103 132 150 83 55 58 48 48 47 48 52 68 71 56 58 101 136 106 85 81 80 133 109 58 76 63 63 78 76 21 16 9 13 19 18 12 0 0 0 0 0 0 0 0 0 0 0 0 0 0 0 0 0 0 0 0 0 0 0 0 0 0 0 0 0 0 0 0 0 0 0 0 0 0 0 0 0 0 0 0 0 0 
0 0 0 0 0 0 0 0 0 0 0 0 0 0 0 0 0 0 0 0 0 0 0 0 0 0 1 3 4 13 18 20 23 19 14 46 80 77 87 68 42 72 133 102 88 103 102 115 140 88 50 50 55 55 53 47 46 61 61 57 56 80 131 131 113 85 89 140 115 53 71 96 95 85 38 20 13 10 15 18 18 12 0 0 0 0 0 0 0 0 0 0 0 0 0 0 0 0 0 0 0 0 0 0 0 0 0 0 0 0 0 0 0 0 0 0 0 0 0 0 0 0 0 0 0 0 0 0 
0 0 0 0 0 0 0 0 0 0 0 0 0 0 0 0 0 0 0 0 0 0 0 0 0 0 0 2 2 8 16 21 20 20 13 10 32 57 48 40 44 84 148 109 66 92 86 101 119 110 54 51 54 57 62 65 71 72 56 59 57 99 144 146 132 80 74 145 149 62 37 67 69 29 19 17 9 10 17 18 17 11 0 0 0 0 0 0 0 0 0 0 0 0 0 0 0 0 0 0 0 0 0 0 0 0 0 0 0 0 0 0 0 0 0 0 0 0 0 0 0 0 0 0 0 0 0 0 
0 0 0 0 0 0 0 0 0 0 0 0 0 0 0 0 0 0 0 0 0 0 0 0 0 0 0 0 4 5 13 18 20 21 16 13 14 19 21 22 38 83 154 127 77 82 105 103 98 112 58 57 66 65 70 80 83 74 67 55 56 93 110 125 141 107 96 156 154 56 27 37 31 18 17 15 10 14 14 19 16 11 0 0 0 0 0 0 0 0 0 0 0 0 0 0 0 0 0 0 0 0 0 0 0 0 0 0 0 0 0 0 0 0 0 0 0 0 0 0 0 0 0 0 0 0 0 0 
0 0 0 0 0 0 0 0 0 0 0 0 0 0 0 0 0 0 0 0 0 0 0 0 0 0 0 0 2 5 8 17 18 19 16 14 13 17 22 24 25 59 142 156 128 142 144 113 113 115 57 56 61 57 65 78 90 70 57 53 50 71 83 101 135 147 148 179 134 38 28 39 28 20 11 15 14 10 13 18 16 9 0 0 0 0 0 0 0 0 0 0 0 0 0 0 0 0 0 0 0 0 0 0 0 0 0 0 0 0 0 0 0 0 0 0 0 0 0 0 0 0 0 0 0 0 0 0 
0 0 0 0 0 0 0 0 0 0 0 0 0 0 0 0 0 0 0 0 0 0 0 0 0 0 0 0 0 6 5 15 17 16 17 11 11 15 20 28 27 37 87 160 163 181 170 128 104 58 51 52 58 60 65 70 81 69 50 45 45 68 91 89 130 163 176 184 91 31 28 40 26 14 11 14 13 10 12 18 14 7 0 0 0 0 0 0 0 0 0 0 0 0 0 0 0 0 0 0 0 0 0 0 0 0 0 0 0 0 0 0 0 0 0 0 0 0 0 0 0 0 0 0 0 0 0 0 
0 0 0 0 0 0 0 0 0 0 0 0 0 0 0 0 0 0 0 0 0 0 0 0 0 0 0 0 0 7 6 11 19 17 16 11 14 16 21 28 27 34 32 92 163 175 145 74 47 44 49 53 59 65 69 73 73 70 63 39 36 59 92 78 133 182 174 116 62 44 31 39 23 14 7 12 9 10 12 17 13 5 0 0 0 0 0 0 0 0 0 0 0 0 0 0 0 0 0 0 0 0 0 0 0 0 0 0 0 0 0 0 0 0 0 0 0 0 0 0 0 0 0 0 0 0 0 0 
0 0 0 0 0 0 0 0 0 0 0 0 0 0 0 0 0 0 0 0 0 0 0 0 0 0 0 0 0 5 7 8 16 16 17 15 13 15 20 28 27 33 26 29 61 98 87 51 45 37 41 49 58 59 60 59 63 57 53 37 31 51 84 70 80 97 63 56 58 48 28 32 24 18 9 5 11 11 13 16 12 3 0 0 0 0 0 0 0 0 0 0 0 0 0 0 0 0 0 0 0 0 0 0 0 0 0 0 0 0 0 0 0 0 0 0 0 0 0 0 0 0 0 0 0 0 0 0 
