P2
128 99
245
0 0 0 0 0 0 0 0 0 0 0 0 0 0 0 0 0 0 0 0 0 0 0 0 0 0 0 0 0 0 0 0 0 0 0 0 0 0 0 0 0 0 0 0 0 0 0 0 0 0 0 0 0 0 0 0 0 0 0 0 0 0 0 0 0 0 0 0 0 0 0 0 0 0 0 0 0 0 0 0 0 0 0 0 0 0 0 0 0 0 0 0 0 0 0 0 0 0 0 0 0 0 0 0 0 0 0 0 0 0 0 0 0 0 0 0 0 0 0 0 0 0 0 0 0 0 0 0 
0 0 0 0 0 0 0 0 0 0 0 0 0 0 0 0 0 0 0 0 0 0 0 0 0 0 0 0 0 0 0 0 0 0 0 0 0 0 0 0 0 0 0 0 0 0 0 0 0 0 0 0 0 0 0 0 0 0 0 0 0 0 0 0 0 0 0 0 0 0 0 0 0 0 0 0 0 0 0 0 0 0 0 0 0 0 0 0 0 0 0 0 0 0 0 0 0 0 0 0 0 0 0 0 0 0 0 0 0 0 0 0 0 0 0 0 0 0 0 0 0 0 0 0 0 0 0 0 
0 0 0 0 0 0 0 0 0 0 0 0 0 0 0 0 0 0 0 0 0 0 0 0 0 0 0 0 0 0 0 0 0 0 0 0 0 0 0 0 0 0 0 0 0 0 0 0 0 0 0 2 3 1 3 1 0 0 0 0 0 0 0 0 0 0 0 0 0 0 0 0 0 0 0 0 0 0 0 0 0 0 0 0 0 0 0 0 0 0 0 0 0 0 0 0 0 0 0 0 0 0 0 0 0 0 0 0 0 0 0 0 0 0 0 0 0 0 0 0 0 0 0 0 0 0 0 0 
0 0 0 0 0 0 0 0 0 0 0 0 0 0 0 0 0 0 0 0 0 0 0 0 0 0 0 0 0 0 0 0 0 0 0 0 0 0 0 0 0 0 0 0 9 12 14 20 20 21 26 32 36 33 28 20 14 15 18 16 4 0 0 0 0 0 0 0 0 0 0 0 0 0 0 0 0 0 0 0 0 0 0 0 0 0 0 0 0 0 0 0 0 0 0 0 0 0 0 0 0 0 0 0 0 0 0 0 0 0 0 0 0 0 0 0 0 0 0 0 0 0 0 0 0 0 0 0 
0 0 0 0 0 0 0 0 0 0 0 0 0 0 0 0 0 0 0 0 0 0 0 0 0 0 0 0 0 0 0 0 0 0 0 0 0 0 0 0 13 17 18 26 24 34 57 78 93 104 115 120 125 124 121 114 102 87 70 48 27 20 22 7 0 0 0 0 0 0 0 0 0 0 0 0 0 0 0 0 0 0 0 0 0 0 0 0 0 0 0 0 0 0 0 0 0 0 0 0 0 0 0 0 0 0 0 0 0 0 0 0 0 0 0 0 0 0 0 0 0 0 0 0 0 0 0 0 
0 0 0 0 0 0 0 0 0 0 0 0 0 0 0 0 0 0 0 0 0 0 0 0 0 0 0 0 0 0 0 0 0 0 0 0 0 4 19 16 24 22 35 65 102 129 138 147 152 153 149 143 141 142 144 146 145 141 139 136 120 91 62 33 19 22 6 0 0 0 0 0 0 0 0 0 0 0 0 0 0 0 0 0 0 0 0 0 0 0 0 0 0 0 0 0 0 0 0 0 0 0 0 0 0 0 0 0 0 0 0 0 0 0 0 0 0 0 0 0 0 0 0 0 0 0 0 0 
0 0 0 0 0 0 0 0 0 0 0 0 0 0 0 0 0 0 0 0 0 0 0 0 0 0 0 0 0 0 0 0 0 0 0 3 19 18 25 26 55 98 124 140 153 148 139 141 157 172 190 200 204 207 209 207 197 183 169 156 145 139 138 127 97 58 30 19 14 0 0 0 0 0 0 0 0 0 0 0 0 0 0 0 0 0 0 0 0 0 0 0 0 0 0 0 0 0 0 0 0 0 0 0 0 0 0 0 0 0 0 0 0 0 0 0 0 0 0 0 0 0 0 0 0 0 0 0 
0 0 0 0 0 0 0 0 0 0 0 0 0 0 0 0 0 0 0 0 0 0 0 0 0 0 0 0 0 0 0 0 0 0 14 19 24 25 66 111 131 146 146 144 153 172 197 217 220 214 209 206 205 196 195 196 202 212 216 216 204 178 155 142 138 140 123 78 38 22 16 0 0 0 0 0 0 0 0 0 0 0 0 0 0 0 0 0 0 0 0 0 0 0 0 0 0 0 0 0 0 0 0 0 0 0 0 0 0 0 0 0 0 0 0 0 0 0 0 0 0 0 0 0 0 0 0 0 
0 0 0 0 0 0 0 0 0 0 0 0 0 0 0 0 0 0 0 0 0 0 0 0 0 0 0 0 0 0 0 0 6 22 24 23 65 118 132 144 142 144 162 191 215 215 204 187 163 144 134 129 125 122 120 119 133 159 187 204 210 214 214 200 172 148 142 143 128 82 34 21 10 0 0 0 0 0 0 0 0 0 0 0 0 0 0 0 0 0 0 0 0 0 0 0 0 0 0 0 0 0 0 0 0 0 0 0 0 0 0 0 0 0 0 0 0 0 0 0 0 0 0 0 0 0 0 0 
0 0 0 0 0 0 0 0 0 0 0 0 0 0 0 0 0 0 0 0 0 0 0 0 0 0 0 0 0 0 0 21 20 21 52 110 132 143 139 145 169 199 225 213 173 148 133 119 117 132 136 128 125 123 138 144 138 110 115 138 165 180 194 210 217 213 187 155 143 146 120 63 25 19 0 0 0 0 0 0 0 0 0 0 0 0 0 0 0 0 0 0 0 0 0 0 0 0 0 0 0 0 0 0 0 0 0 0 0 0 0 0 0 0 0 0 0 0 0 0 0 0 0 0 0 0 0 0 
0 0 0 0 0 0 0 0 0 0 0 0 0 0 0 0 0 0 0 0 0 0 0 0 0 0 0 0 0 6 22 31 30 85 129 140 143 146 170 204 222 208 175 141 114 93 87 93 102 98 130 140 138 130 112 120 119 105 104 107 118 140 160 165 179 202 218 218 195 160 151 143 93 34 23 6 0 0 0 0 0 0 0 0 0 0 0 0 0 0 0 0 0 0 0 0 0 0 0 0 0 0 0 0 0 0 0 0 0 0 0 0 0 0 0 0 0 0 0 0 0 0 0 0 0 0 0 0 
0 0 0 0 0 0 0 0 0 0 0 0 0 0 0 0 0 0 0 0 0 0 0 0 0 0 0 0 15 29 28 53 117 134 148 155 170 203 221 201 171 153 122 105 100 100 95 99 98 80 101 130 129 106 97 108 126 120 116 107 105 125 149 156 157 156 167 192 217 223 197 162 153 121 53 22 14 0 0 0 0 0 0 0 0 0 0 0 0 0 0 0 0 0 0 0 0 0 0 0 0 0 0 0 0 0 0 0 0 0 0 0 0 0 0 0 0 0 0 0 0 0 0 0 0 0 0 0 
0 0 0 0 0 0 0 0 0 0 0 0 0 0 0 0 0 0 0 0 0 0 0 0 0 0 3 25 27 23 77 128 142 160 170 197 223 204 164 149 138 117 101 101 109 116 125 131 124 106 105 109 110 110 112 119 135 139 138 134 134 132 148 155 152 154 160 157 166 195 220 216 174 155 137 70 23 16 0 0 0 0 0 0 0 0 0 0 0 0 0 0 0 0 0 0 0 0 0 0 0 0 0 0 0 0 0 0 0 0 0 0 0 0 0 0 0 0 0 0 0 0 0 0 0 0 0 0 
0 0 0 0 0 0 0 0 0 0 0 0 0 0 0 0 0 0 0 0 0 0 0 0 0 11 25 22 25 96 124 151 170 186 219 216 180 145 145 126 102 115 137 145 150 146 145 142 129 126 128 130 132 134 137 138 142 146 149 149 143 136 137 154 168 161 151 156 158 157 174 206 222 183 150 139 81 26 16 0 0 0 0 0 0 0 0 0 0 0 0 0 0 0 0 0 0 0 0 0 0 0 0 0 0 0 0 0 0 0 0 0 0 0 0 0 0 0 0 0 0 0 0 0 0 0 0 0 
0 0 0 0 0 0 0 0 0 0 0 0 0 0 0 0 0 0 0 0 0 0 0 0 14 25 16 34 108 125 159 172 195 223 205 162 143 144 116 124 151 159 155 149 145 143 148 136 133 133 133 132 128 128 129 130 128 128 130 131 133 134 135 138 145 159 169 156 143 151 158 166 202 225 196 149 142 92 29 15 0 0 0 0 0 0 0 0 0 0 0 0 0 0 0 0 0 0 0 0 0 0 0 0 0 0 0 0 0 0 0 0 0 0 0 0 0 0 0 0 0 0 0 0 0 0 0 0 
0 0 0 0 0 0 0 0 0 0 0 0 0 0 0 0 0 0 0 0 0 0 3 16 25 17 45 114 127 165 173 202 218 190 149 142 129 126 149 157 150 144 133 122 121 124 126 128 132 133 128 102 100 122 123 123 126 124 122 121 122 125 128 129 139 149 148 158 166 149 144 149 163 194 223 199 145 144 99 38 14 0 0 0 0 0 0 0 0 0 0 0 0 0 0 0 0 0 0 0 0 0 0 0 0 0 0 0 0 0 0 0 0 0 0 0 0 0 0 0 0 0 0 0 0 0 0 0 
0 0 0 0 0 0 0 0 0 0 0 0 0 0 0 0 0 0 0 0 0 4 15 22 19 57 122 128 169 171 207 218 176 141 139 127 143 157 149 143 133 118 115 122 125 128 129 128 128 127 119 91 89 118 117 119 124 120 118 118 117 119 125 122 121 131 145 148 149 161 153 139 143 163 197 224 199 142 142 106 45 12 0 0 0 0 0 0 0 0 0 0 0 0 0 0 0 0 0 0 0 0 0 0 0 0 0 0 0 0 0 0 0 0 0 0 0 0 0 0 0 0 0 0 0 0 0 0 
0 0 0 0 0 0 0 0 0 0 0 0 0 0 0 0 0 0 0 0 4 11 22 22 68 130 133 171 171 213 213 166 134 133 131 149 151 140 127 113 113 118 122 124 120 119 118 120 116 112 97 87 89 105 114 116 122 112 101 104 114 118 118 111 111 112 117 128 134 139 150 151 132 131 154 197 218 195 138 140 112 42 8 0 0 0 0 0 0 0 0 0 0 0 0 0 0 0 0 0 0 0 0 0 0 0 0 0 0 0 0 0 0 0 0 0 0 0 0 0 0 0 0 0 0 0 0 0 
0 0 0 0 0 0 0 0 0 0 0 0 0 0 0 0 0 0 0 4 11 21 21 77 135 133 167 169 216 210 155 134 132 131 144 148 127 115 113 111 115 117 118 114 107 93 80 91 85 61 63 68 69 67 75 91 97 95 92 90 92 95 100 113 113 104 107 112 120 131 138 141 145 133 121 155 200 219 192 140 137 113 33 4 0 0 0 0 0 0 0 0 0 0 0 0 0 0 0 0 0 0 0 0 0 0 0 0 0 0 0 0 0 0 0 0 0 0 0 0 0 0 0 0 0 0 0 0 
0 0 0 0 0 0 0 0 0 0 0 0 0 0 0 0 0 0 4 12 23 19 76 145 140 167 164 206 208 157 139 140 128 139 133 111 108 115 113 111 113 111 103 87 64 51 53 56 50 50 51 50 50 49 50 51 53 58 70 83 90 94 92 88 93 104 111 110 114 116 132 143 137 129 137 126 157 210 222 174 141 132 105 20 0 0 0 0 0 0 0 0 0 0 0 0 0 0 0 0 0 0 0 0 0 0 0 0 0 0 0 0 0 0 0 0 0 0 0 0 0 0 0 0 0 0 0 0 
0 0 0 0 0 0 0 0 0 0 0 0 0 0 0 0 0 2 7 25 19 63 145 144 160 160 192 208 153 138 144 123 133 127 106 111 116 115 116 118 108 83 59 48 48 47 46 49 51 49 50 50 49 50 52 51 51 50 50 54 58 75 88 90 90 88 98 110 113 113 114 137 150 130 117 132 120 159 217 203 163 139 130 79 7 0 0 0 0 0 0 0 0 0 0 0 0 0 0 0 0 0 0 0 0 0 0 0 0 0 0 0 0 0 0 0 0 0 0 0 0 0 0 0 0 0 0 0 
0 0 0 0 0 0 0 0 0 0 0 0 0 0 0 0 0 6 17 19 50 133 145 146 153 173 206 159 142 139 118 128 128 110 111 116 111 112 112 88 59 48 47 47 47 47 47 48 48 49 49 47 48 48 50 52 53 46 47 50 49 49 55 71 89 94 88 96 114 109 108 116 132 145 120 112 134 122 177 214 182 162 129 133 48 1 0 0 0 0 0 0 0 0 0 0 0 0 0 0 0 0 0 0 0 0 0 0 0 0 0 0 0 0 0 0 0 0 0 0 0 0 0 0 0 0 0 0 
0 0 0 0 0 0 0 0 0 0 0 0 0 0 0 0 4 9 22 42 112 155 141 151 163 191 173 146 135 118 113 122 113 114 111 110 116 111 85 55 46 46 49 46 47 47 47 49 51 51 55 55 53 56 58 57 57 54 50 48 50 48 49 50 59 81 91 89 98 109 103 104 118 131 133 103 116 130 137 201 202 170 151 123 121 22 1 0 0 0 0 0 0 0 0 0 0 0 0 0 0 0 0 0 0 0 0 0 0 0 0 0 0 0 0 0 0 0 0 0 0 0 0 0 0 0 0 0 
0 0 0 0 0 0 0 0 0 0 0 0 0 0 0 2 5 20 40 98 160 148 150 164 168 176 156 129 119 111 117 113 113 116 117 119 99 70 51 46 50 49 48 47 48 50 57 65 75 81 87 92 96 96 97 92 90 79 71 61 53 47 50 49 50 57 80 89 84 92 106 103 108 119 133 131 99 116 127 166 205 172 167 129 135 77 6 0 0 0 0 0 0 0 0 0 0 0 0 0 0 0 0 0 0 0 0 0 0 0 0 0 0 0 0 0 0 0 0 0 0 0 0 0 0 0 0 0 
0 0 0 0 0 0 0 0 0 0 0 0 0 0 0 6 9 36 81 131 161 134 161 155 166 173 133 113 108 118 112 112 116 113 107 84 58 47 48 49 50 47 46 48 58 67 80 99 111 122 131 137 140 137 135 134 131 121 105 91 70 55 50 47 48 49 59 84 87 83 93 111 107 115 121 140 128 92 113 145 199 181 167 158 121 117 30 1 0 0 0 0 0 0 0 0 0 0 0 0 0 0 0 0 0 0 0 0 0 0 0 0 0 0 0 0 0 0 0 0 0 0 0 0 0 0 0 0 
0 0 0 0 0 0 0 0 0 0 0 0 0 0 3 4 19 66 96 167 130 151 153 135 173 142 112 106 112 121 114 106 109 105 83 57 47 46 46 49 48 50 54 65 82 101 119 132 141 147 153 156 154 148 149 155 154 149 147 134 111 87 62 51 47 48 50 62 86 90 87 95 105 111 115 128 149 97 86 127 181 178 153 168 127 131 67 3 0 0 0 0 0 0 0 0 0 0 0 0 0 0 0 0 0 0 0 0 0 0 0 0 0 0 0 0 0 0 0 0 0 0 0 0 0 0 0 0 
0 0 0 0 0 0 0 0 0 0 0 0 0 0 4 1 50 80 142 154 138 157 114 160 167 119 110 105 119 112 109 108 104 83 56 48 46 49 51 50 51 58 78 103 126 136 141 136 134 139 141 144 136 120 71 70 119 147 152 155 150 136 106 75 55 49 49 49 69 88 85 85 94 106 111 117 143 134 82 90 164 186 145 159 144 124 95 18 1 0 0 0 0 0 0 0 0 0 0 0 0 0 0 0 0 0 0 0 0 0 0 0 0 0 0 0 0 0 0 0 0 0 0 0 0 0 0 0 
0 0 0 0 0 0 0 0 0 0 0 0 0 2 3 15 75 88 171 135 149 123 130 176 149 113 108 112 117 112 112 97 84 59 49 47 47 49 50 54 66 93 126 145 149 145 137 123 124 88 69 108 121 64 67 65 65 134 141 144 153 159 149 126 89 59 49 46 51 71 88 91 92 106 112 114 127 146 98 75 129 190 155 152 158 125 118 33 1 0 0 0 0 0 0 0 0 0 0 0 0 0 0 0 0 0 0 0 0 0 0 0 0 0 0 0 0 0 0 0 0 0 0 0 0 0 0 0 
0 0 0 0 0 0 0 0 0 0 0 0 0 2 1 37 76 127 167 133 145 125 141 167 146 107 91 114 114 114 112 90 62 46 45 45 49 51 58 73 104 141 158 154 146 138 132 119 79 61 63 70 114 85 90 96 107 113 81 124 143 142 146 153 136 100 63 48 46 54 75 90 90 96 107 114 116 134 110 75 107 189 168 149 164 128 127 52 2 0 0 0 0 0 0 0 0 0 0 0 0 0 0 0 0 0 0 0 0 0 0 0 0 0 0 0 0 0 0 0 0 0 0 0 0 0 0 0 
0 0 0 0 0 0 0 0 0 0 0 0 0 3 2 62 80 170 150 133 130 136 146 167 126 91 86 119 115 120 106 73 51 47 46 48 55 60 79 118 156 163 147 142 146 133 98 79 77 80 89 100 133 111 117 137 144 120 91 81 85 120 124 131 149 148 108 66 50 48 55 73 89 91 104 119 114 122 110 85 88 167 174 145 161 140 135 70 4 0 0 0 0 0 0 0 0 0 0 0 0 0 0 0 0 0 0 0 0 0 0 0 0 0 0 0 0 0 0 0 0 0 0 0 0 0 0 0 
0 0 0 0 0 0 0 0 0 0 0 0 0 3 11 73 105 175 133 124 131 135 162 153 107 76 93 120 115 120 87 55 46 47 49 54 61 86 128 165 166 124 94 90 114 112 106 113 114 114 110 119 144 124 139 165 170 161 132 104 88 82 94 122 133 159 159 115 67 53 50 58 78 88 100 119 116 123 104 94 85 147 165 149 158 153 140 86 11 0 0 0 0 0 0 0 0 0 0 0 0 0 0 0 0 0 0 0 0 0 0 0 0 0 0 0 0 0 0 0 0 0 0 0 0 0 0 0 
0 0 0 0 0 0 0 0 0 0 0 0 2 2 30 76 138 167 119 122 133 126 167 149 86 77 102 119 118 102 59 47 46 48 54 62 94 146 175 162 105 83 92 105 119 122 133 148 149 139 130 135 153 144 163 178 173 163 154 132 109 101 96 98 128 130 161 167 125 70 55 51 64 84 97 112 115 121 100 94 89 144 168 159 157 151 143 103 16 0 0 0 0 0 0 0 0 0 0 0 0 0 0 0 0 0 0 0 0 0 0 0 0 0 0 0 0 0 0 0 0 0 0 0 0 0 0 0 
0 0 0 0 0 0 0 0 0 0 0 0 3 2 48 80 162 156 115 128 133 117 170 137 77 78 106 120 115 71 45 44 48 51 64 103 156 182 166 103 86 95 104 120 134 138 151 159 155 143 134 144 139 147 158 156 151 143 135 126 122 122 127 118 105 135 138 165 170 121 66 49 53 70 91 109 112 121 97 91 90 138 161 160 159 158 138 120 20 0 0 0 0 0 0 0 0 0 0 0 0 0 0 0 0 0 0 0 0 0 0 0 0 0 0 0 0 0 0 0 0 0 0 0 0 0 0 0 
0 0 0 0 0 0 0 0 0 0 0 0 3 2 59 89 173 149 115 133 114 114 158 128 77 79 108 122 97 48 46 46 48 60 100 159 189 182 134 92 99 107 118 133 142 147 148 151 145 139 141 142 138 140 144 143 139 137 134 134 136 135 138 135 120 115 147 149 171 168 119 63 50 56 79 103 108 118 93 92 96 132 153 156 162 163 126 128 29 1 0 0 0 0 0 0 0 0 0 0 0 0 0 0 0 0 0 0 0 0 0 0 0 0 0 0 0 0 0 0 0 0 0 0 0 0 0 0 
0 0 0 0 0 0 0 0 0 0 0 0 2 5 63 103 180 131 123 145 110 120 151 131 82 82 110 118 65 46 49 48 51 94 154 188 182 157 150 108 109 118 131 142 144 146 140 140 140 141 144 141 139 139 140 143 141 140 140 140 139 142 147 145 134 139 151 130 148 172 170 121 64 51 71 93 116 118 83 89 102 134 156 160 158 162 125 127 42 1 0 0 0 0 0 0 0 0 0 0 0 0 0 0 0 0 0 0 0 0 0 0 0 0 0 0 0 0 0 0 0 0 0 0 0 0 0 0 
0 0 0 0 0 0 0 0 0 0 0 0 2 11 63 117 177 117 130 148 107 120 149 131 86 83 112 106 54 46 51 45 82 154 186 183 176 166 167 166 153 144 141 145 147 144 139 141 138 134 136 141 142 141 139 140 141 140 138 141 142 143 144 145 148 180 160 141 143 159 176 176 138 73 67 88 111 113 86 88 112 142 158 160 159 163 129 127 63 3 0 0 0 0 0 0 0 0 0 0 0 0 0 0 0 0 0 0 0 0 0 0 0 0 0 0 0 0 0 0 0 0 0 0 0 0 0 0 
0 0 0 0 0 0 0 0 0 0 0 0 3 16 64 129 169 121 139 148 106 120 150 128 93 85 105 99 51 47 47 74 145 183 187 186 155 125 115 123 134 150 164 152 142 140 136 134 140 138 139 138 141 141 134 138 138 136 138 137 138 140 145 158 154 143 120 83 63 71 119 168 184 162 109 94 120 102 83 92 128 146 160 156 161 168 135 122 95 7 0 0 0 0 0 0 0 0 0 0 0 0 0 0 0 0 0 0 0 0 0 0 0 0 0 0 0 0 0 0 0 0 0 0 0 0 0 0 
0 0 0 0 0 0 0 0 0 0 0 0 3 23 65 141 158 122 141 146 113 119 146 139 101 89 91 89 54 50 65 137 178 184 171 140 127 122 120 127 134 141 141 143 146 151 138 140 139 134 126 122 134 143 130 133 135 136 136 130 135 145 144 146 150 148 132 97 68 52 49 68 131 176 179 149 122 93 89 112 137 148 143 146 152 166 141 114 114 9 0 0 0 0 0 0 0 0 0 0 0 0 0 0 0 0 0 0 0 0 0 0 0 0 0 0 0 0 0 0 0 0 0 0 0 0 0 0 
0 0 0 0 0 0 0 0 0 0 0 0 4 25 71 156 158 120 143 144 118 118 139 151 107 92 79 81 65 60 123 174 181 149 122 131 136 133 134 137 140 141 139 137 134 133 152 137 138 134 128 124 126 131 127 130 129 131 133 129 141 138 144 148 154 155 148 118 87 70 58 53 61 118 180 179 129 94 113 138 163 137 126 149 147 160 144 110 122 15 0 0 0 0 0 0 0 0 0 0 0 0 0 0 0 0 0 0 0 0 0 0 0 0 0 0 0 0 0 0 0 0 0 0 0 0 0 0 
0 0 0 0 0 0 0 0 0 0 0 0 6 26 74 166 151 118 144 138 119 118 131 150 129 104 77 68 78 107 168 177 135 91 120 141 143 145 151 160 156 149 140 134 133 129 136 139 132 127 129 130 120 125 125 129 128 127 130 148 141 132 147 154 168 170 163 144 116 99 90 85 82 87 115 150 122 103 128 160 166 126 111 144 146 161 146 110 130 22 0 0 0 0 0 0 0 0 0 0 0 0 0 0 0 0 0 0 0 0 0 0 0 0 0 0 0 0 0 0 0 0 0 0 0 0 0 0 
0 0 0 0 0 0 0 0 0 0 0 0 9 22 77 171 149 113 130 135 119 122 115 136 144 110 89 52 90 152 173 143 79 87 125 149 156 161 164 159 158 158 147 132 126 123 125 137 130 122 127 130 125 128 123 127 130 129 134 152 133 133 138 153 160 158 150 127 103 86 76 67 81 99 93 103 99 95 126 170 168 118 102 141 146 164 150 113 138 32 0 0 0 0 0 0 0 0 0 0 0 0 0 0 0 0 0 0 0 0 0 0 0 0 0 0 0 0 0 0 0 0 0 0 0 0 0 0 
0 0 0 0 0 0 0 0 0 0 0 0 10 21 86 174 145 110 121 129 118 122 103 140 159 133 91 48 81 151 162 86 76 99 139 162 164 159 152 152 149 142 144 137 127 123 124 139 132 124 129 126 131 136 125 125 128 128 138 144 131 123 139 152 154 155 145 113 87 80 84 78 95 91 74 91 89 91 127 173 166 121 100 129 149 162 150 110 141 46 2 0 0 0 0 0 0 0 0 0 0 0 0 0 0 0 0 0 0 0 0 0 0 0 0 0 0 0 0 0 0 0 0 0 0 0 0 0 
0 0 0 0 0 0 0 0 0 0 0 0 10 17 91 167 144 113 121 131 120 116 96 137 166 142 70 42 60 110 99 95 105 120 142 158 162 154 143 135 137 132 130 130 137 129 126 132 132 129 129 129 128 138 121 126 126 128 138 142 124 131 144 149 154 154 142 107 71 64 79 92 95 73 69 79 87 89 120 170 165 117 100 121 134 160 143 106 142 59 2 0 0 0 0 0 0 0 0 0 0 0 0 0 0 0 0 0 0 0 0 0 0 0 0 0 0 0 0 0 0 0 0 0 0 0 0 0 
0 0 0 0 0 0 0 0 0 0 0 0 8 17 99 163 137 114 131 137 124 106 91 128 157 154 76 45 47 70 69 78 90 116 142 157 159 151 143 133 136 132 128 133 137 135 128 135 135 129 126 127 132 148 146 133 126 127 145 139 122 138 143 145 150 152 138 103 65 54 64 73 81 68 68 77 86 85 106 149 148 111 104 122 123 150 141 111 136 68 3 0 0 0 0 0 0 0 0 0 0 0 0 0 0 0 0 0 0 0 0 0 0 0 0 0 0 0 0 0 0 0 0 0 0 0 0 0 
0 0 0 0 0 0 0 0 0 0 0 0 8 15 101 160 136 117 137 133 109 98 90 124 138 147 78 44 41 46 59 70 84 111 138 151 153 147 142 133 128 128 125 134 132 124 138 141 146 131 129 136 151 151 150 157 138 139 166 133 134 138 138 141 151 149 127 88 60 54 63 70 73 74 64 76 87 86 100 140 147 105 103 124 122 128 135 114 134 73 3 0 0 0 0 0 0 0 0 0 0 0 0 0 0 0 0 0 0 0 0 0 0 0 0 0 0 0 0 0 0 0 0 0 0 0 0 0 
0 0 0 0 0 0 0 0 0 0 0 0 7 13 100 153 137 118 139 124 86 97 91 125 133 111 63 42 41 43 52 67 80 103 127 145 154 148 142 130 129 128 120 124 125 118 126 132 131 138 146 156 156 141 141 133 143 122 143 129 138 145 145 146 152 147 122 82 61 57 64 68 70 73 63 78 87 86 99 145 144 98 103 125 122 123 119 103 132 73 2 0 0 0 0 0 0 0 0 0 0 0 0 0 0 0 0 0 0 0 0 0 0 0 0 0 0 0 0 0 0 0 0 0 0 0 0 0 
0 0 0 0 0 0 0 0 0 0 0 0 7 12 99 150 139 125 138 113 72 97 95 137 124 88 65 42 42 43 47 61 75 98 129 145 147 145 143 133 128 126 126 127 120 120 128 127 127 136 139 153 137 129 129 119 132 134 136 138 141 147 149 153 153 145 117 80 58 57 65 69 67 62 60 80 88 103 151 164 140 90 103 128 122 125 116 113 138 66 2 0 0 0 0 0 0 0 0 0 0 0 0 0 0 0 0 0 0 0 0 0 0 0 0 0 0 0 0 0 0 0 0 0 0 0 0 0 
0 0 0 0 0 0 0 0 0 0 0 0 5 12 94 151 140 126 128 103 67 96 99 144 127 88 72 47 46 47 48 54 71 100 133 147 148 148 143 130 125 124 130 127 118 120 126 127 129 132 139 144 133 140 142 126 124 149 141 148 155 150 146 152 153 140 111 76 57 58 67 66 69 65 70 84 97 142 156 159 136 88 108 124 119 112 111 113 143 57 2 0 0 0 0 0 0 0 0 0 0 0 0 0 0 0 0 0 0 0 0 0 0 0 0 0 0 0 0 0 0 0 0 0 0 0 0 0 
0 0 0 0 0 0 0 0 0 0 0 0 6 10 81 150 137 128 119 106 58 92 99 139 116 85 78 54 46 50 50 56 67 98 129 147 160 156 145 136 131 129 128 121 124 130 125 126 130 135 154 136 127 133 143 133 128 149 154 139 149 145 142 151 152 137 110 75 57 62 70 64 69 59 73 91 110 142 155 159 126 91 119 127 118 103 108 111 141 45 2 0 0 0 0 0 0 0 0 0 0 0 0 0 0 0 0 0 0 0 0 0 0 0 0 0 0 0 0 0 0 0 0 0 0 0 0 0 
0 0 0 0 0 0 0 0 0 0 0 0 6 11 65 150 132 137 129 117 54 84 99 127 115 89 76 49 43 54 56 54 62 91 127 149 162 162 150 140 130 123 127 125 131 121 118 124 130 139 140 115 124 126 131 128 126 133 148 132 138 141 145 154 154 142 111 73 56 64 69 66 64 54 73 93 101 131 154 153 124 97 123 127 112 95 104 110 137 32 3 0 0 0 0 0 0 0 0 0 0 0 0 0 0 0 0 0 0 0 0 0 0 0 0 0 0 0 0 0 0 0 0 0 0 0 0 0 
0 0 0 0 0 0 0 0 0 0 0 0 6 11 49 150 133 141 132 124 61 69 98 124 123 88 75 51 46 68 70 52 53 86 123 150 157 156 149 137 124 118 124 125 120 115 121 128 134 140 110 112 120 123 129 141 129 124 139 133 144 145 145 155 158 145 112 72 58 69 64 63 55 46 67 93 100 130 151 136 111 89 125 127 107 91 92 107 123 21 2 0 0 0 0 0 0 0 0 0 0 0 0 0 0 0 0 0 0 0 0 0 0 0 0 0 0 0 0 0 0 0 0 0 0 0 0 0 
0 0 0 0 0 0 0 0 0 1 5 0 0 8 35 144 129 134 128 127 73 59 94 123 139 94 78 53 56 105 104 51 52 75 124 150 154 145 147 132 120 120 128 130 135 123 133 142 148 128 97 108 119 129 124 128 137 125 126 139 143 148 159 154 153 144 113 70 61 73 66 67 48 46 74 89 104 146 161 126 105 81 124 130 101 92 85 114 111 18 1 0 0 0 0 0 0 0 0 0 0 0 0 0 0 0 0 0 0 0 0 0 0 0 0 0 0 0 0 0 0 0 0 0 0 0 0 0 
0 0 0 0 0 0 0 0 1 16 15 7 0 6 24 132 126 115 127 132 81 48 86 116 150 113 85 61 74 146 149 73 49 74 123 151 150 142 140 134 130 130 129 133 139 141 161 146 134 110 93 104 120 129 128 124 131 122 139 158 162 144 144 147 153 137 95 67 57 58 64 55 43 46 73 91 140 183 156 111 100 73 126 128 98 88 80 126 91 15 0 0 0 0 0 0 0 0 0 0 0 0 0 0 0 0 0 0 0 0 0 0 0 0 0 0 0 0 0 0 0 0 0 0 0 0 0 0 
0 0 0 0 0 0 0 0 0 8 0 8 6 6 16 118 136 113 119 137 85 45 69 108 140 126 92 71 104 150 127 119 55 70 121 151 145 140 136 134 125 115 118 122 132 153 163 123 121 98 91 114 116 128 125 122 121 121 123 176 158 134 143 157 153 134 88 56 63 51 47 42 42 43 72 141 207 205 173 116 92 93 120 125 99 75 87 144 70 13 0 0 0 0 0 0 0 0 0 0 0 0 0 0 0 0 0 0 0 0 0 0 0 0 0 0 0 0 0 0 0 0 0 0 0 0 0 0 
0 0 0 0 0 0 0 0 0 0 0 3 11 6 11 98 146 113 113 137 121 61 53 89 132 139 106 81 121 155 133 147 106 68 115 154 152 147 135 133 121 118 127 133 142 150 144 125 122 91 100 118 111 138 121 117 127 124 120 161 162 143 155 160 158 139 93 51 50 40 37 37 38 48 118 189 166 159 186 138 103 126 132 141 94 65 114 146 51 9 0 0 2 12 1 0 0 0 0 0 0 0 0 0 0 0 0 0 0 0 0 0 0 0 0 0 0 0 0 0 0 0 0 0 0 0 0 0 
0 0 0 0 0 0 0 0 0 0 0 2 4 8 8 75 148 116 102 131 134 83 49 64 117 138 120 87 101 141 139 119 110 99 105 149 159 150 139 140 134 123 123 128 141 117 119 128 123 91 112 114 114 132 111 107 113 116 122 163 175 149 155 162 157 129 109 110 80 64 70 74 97 135 179 162 142 142 193 130 104 126 159 154 69 81 137 147 37 11 10 5 0 2 10 0 0 0 0 0 0 0 0 0 0 0 0 0 0 0 0 0 0 0 0 0 0 0 0 0 0 0 0 0 0 0 0 0 
0 0 0 0 0 0 0 0 0 0 0 6 0 8 7 62 147 123 100 121 142 99 46 47 91 132 119 117 145 143 96 75 70 87 103 137 156 156 159 158 155 155 156 177 133 110 110 123 123 101 98 103 115 131 123 112 114 125 156 175 178 171 166 163 145 118 127 146 142 129 104 83 98 161 212 190 165 163 190 99 102 133 162 150 85 90 128 141 30 11 3 0 0 0 0 0 0 0 0 0 0 0 0 0 0 0 0 0 0 0 0 0 0 0 0 0 0 0 0 0 0 0 0 0 0 0 0 0 
0 0 0 0 0 0 0 0 0 0 1 7 3 9 9 49 139 132 106 112 147 116 70 62 63 125 130 140 179 148 79 78 111 101 88 116 151 173 176 168 168 182 171 147 137 118 110 122 136 115 102 108 118 147 138 123 128 156 156 162 162 169 175 168 141 116 121 130 149 117 93 87 109 156 204 201 161 176 207 134 139 156 162 150 105 95 149 120 26 10 0 0 0 0 0 0 0 0 0 0 0 0 0 0 0 0 0 0 0 0 0 0 0 0 0 0 0 0 0 0 0 0 0 0 0 0 0 0 
0 0 0 0 0 0 0 0 0 0 0 6 6 13 7 42 139 136 108 118 149 145 128 82 48 96 145 149 190 171 129 129 153 138 130 133 157 169 168 173 177 168 143 140 147 135 129 143 153 125 106 117 125 155 147 140 152 156 160 170 164 154 141 116 100 98 106 109 107 55 58 89 119 142 166 199 176 171 214 180 169 171 158 145 121 97 143 121 22 7 0 4 0 0 0 0 0 0 0 0 0 0 0 0 0 0 0 0 0 0 0 0 0 0 0 0 0 0 0 0 0 0 0 0 0 0 0 0 
0 0 0 0 0 0 0 0 0 0 0 6 14 15 12 35 140 145 107 124 159 165 161 134 80 87 158 174 168 143 152 168 138 133 143 138 151 167 168 176 185 169 152 151 160 151 159 149 147 148 119 114 130 157 171 162 158 166 170 162 155 133 113 100 94 92 68 54 60 54 41 86 128 145 140 150 177 170 215 214 175 170 183 170 140 142 167 103 13 7 3 4 0 0 0 0 0 0 0 0 0 0 0 0 0 0 0 0 0 0 0 0 0 0 0 0 0 0 0 0 0 0 0 0 0 0 0 0 
0 0 0 0 0 0 0 0 0 0 0 4 18 19 7 17 72 156 143 99 130 186 175 183 160 120 144 167 183 161 183 189 154 136 120 87 105 125 140 155 157 146 164 162 158 166 156 151 146 150 151 140 130 135 168 158 141 154 161 164 137 108 97 86 77 79 52 44 57 61 64 91 104 138 132 105 143 166 206 236 215 197 195 168 123 77 146 117 17 9 11 5 0 0 0 0 0 0 0 0 0 0 0 0 0 0 0 0 0 0 0 0 0 0 0 0 0 0 0 0 0 0 0 0 0 0 0 0 
0 0 0 0 0 0 0 0 0 0 0 4 25 10 1 12 37 141 158 96 102 181 178 191 211 207 203 182 201 183 191 184 148 123 126 102 96 110 93 79 85 104 120 127 128 131 138 133 129 114 99 114 101 113 116 111 105 119 127 132 118 75 67 74 80 85 54 50 55 60 93 131 133 138 119 96 138 184 202 186 163 169 123 88 72 84 131 65 2 0 13 10 0 0 0 0 0 0 0 0 0 0 0 0 0 0 0 0 0 0 0 0 0 0 0 0 0 0 0 0 0 0 0 0 0 0 0 0 
0 0 0 0 0 0 0 0 0 0 0 3 10 4 2 8 23 108 170 126 100 143 165 158 185 191 182 122 169 188 144 163 142 128 130 106 82 85 69 56 64 69 77 84 88 87 97 93 100 96 65 52 51 68 76 72 71 84 100 93 96 81 52 54 67 65 45 41 57 73 118 135 142 130 111 122 163 215 204 156 124 112 56 65 139 162 132 22 1 0 7 14 0 0 0 0 0 0 0 0 0 0 0 0 0 0 0 0 0 0 0 0 0 0 0 0 0 0 0 0 0 0 0 0 0 0 0 0 
0 0 0 0 0 0 0 0 0 0 0 0 6 4 2 5 21 64 170 131 86 93 162 164 176 193 182 132 132 171 135 154 148 148 143 113 57 58 65 67 71 66 65 67 66 69 71 64 96 83 54 44 41 45 71 75 57 74 72 59 65 94 62 48 51 46 41 47 79 97 129 143 142 118 120 126 193 220 186 134 96 64 61 61 131 178 75 10 1 2 8 2 0 0 0 0 0 0 0 0 0 0 0 0 0 0 0 0 0 0 0 0 0 0 0 0 0 0 0 0 0 0 0 0 0 0 0 0 
0 0 0 0 0 0 0 0 0 0 0 0 3 4 6 9 22 28 136 112 76 76 100 149 130 121 129 139 159 164 159 154 138 139 145 147 76 57 72 79 73 57 71 69 62 72 81 66 83 75 96 71 44 40 76 59 63 81 79 69 71 73 65 39 48 47 58 82 97 99 123 148 171 163 159 170 189 179 143 144 102 68 63 70 101 139 36 14 6 5 3 0 0 0 0 0 0 0 0 0 0 0 0 0 0 0 0 0 0 0 0 0 0 0 0 0 0 0 0 0 0 0 0 0 0 0 0 0 
0 0 0 0 0 0 0 0 0 0 0 0 0 1 7 7 14 11 89 120 82 73 75 110 111 117 151 180 188 167 149 143 147 117 114 137 160 100 51 43 38 52 79 94 87 67 59 53 90 98 107 112 84 71 100 78 57 83 95 82 70 64 62 70 56 61 77 92 98 106 135 188 159 127 137 154 166 154 150 148 96 64 75 93 145 83 16 17 9 7 2 0 0 0 0 0 0 0 0 0 0 0 0 0 0 0 0 0 0 0 0 0 0 0 0 0 0 0 0 0 0 0 0 0 0 0 0 0 
0 0 0 0 0 0 0 0 0 0 0 0 0 0 3 3 7 11 38 153 123 80 72 89 119 140 172 183 176 178 170 116 109 126 125 119 130 123 112 43 37 42 67 81 101 87 78 86 109 107 104 100 107 116 108 124 133 122 109 97 85 92 120 101 109 103 107 109 103 133 127 94 114 145 140 143 169 152 164 136 83 75 80 119 150 36 12 14 9 10 4 0 0 0 0 0 0 0 0 0 0 0 0 0 0 0 0 0 0 0 0 0 0 0 0 0 0 0 0 0 0 0 0 0 0 0 0 0 
0 0 0 0 0 0 0 0 0 0 0 0 0 0 0 0 7 10 15 121 123 57 75 75 99 168 188 163 156 164 176 154 114 103 103 105 104 95 87 106 64 51 77 95 117 121 105 115 148 143 125 108 106 120 122 130 137 143 131 135 139 136 129 120 110 114 120 110 118 113 54 59 117 152 148 156 169 152 168 111 87 86 85 100 108 21 10 14 6 10 6 0 0 0 0 0 0 0 0 0 0 0 0 0 0 0 0 0 0 0 0 0 0 0 0 0 0 0 0 0 0 0 0 0 0 0 0 0 
0 0 0 0 0 0 0 0 0 0 0 0 0 0 0 0 10 7 10 79 123 92 78 80 88 151 197 183 149 161 175 173 151 103 84 100 100 97 98 101 130 112 110 100 106 111 110 138 148 138 99 85 82 79 84 98 109 113 105 112 135 159 166 154 125 116 117 107 133 59 46 72 130 153 163 159 135 168 134 86 89 88 90 113 95 16 8 11 1 9 8 0 0 0 0 0 0 0 0 0 0 0 0 0 0 0 0 0 0 0 0 0 0 0 0 0 0 0 0 0 0 0 0 0 0 0 0 0 
0 0 0 0 0 0 0 0 0 0 0 0 0 0 0 0 12 6 5 53 108 78 81 84 84 118 173 202 150 141 175 168 153 137 123 99 92 99 104 99 110 152 148 111 128 122 132 150 134 144 117 142 149 106 110 122 130 117 107 115 121 157 171 167 140 103 80 93 117 59 63 106 144 159 176 131 131 161 124 85 86 95 91 100 101 14 6 10 1 0 0 0 0 0 0 0 0 0 0 0 0 0 0 0 0 0 0 0 0 0 0 0 0 0 0 0 0 0 0 0 0 0 0 0 0 0 0 0 
0 0 0 0 0 0 0 0 0 0 0 5 11 0 0 0 12 7 6 37 131 112 87 84 93 109 121 161 140 126 167 179 165 132 124 117 82 61 67 82 101 157 205 179 143 133 154 136 114 129 143 182 189 159 138 134 147 139 122 113 103 104 127 141 126 106 101 130 163 131 139 149 173 191 177 100 113 136 144 108 92 74 94 133 96 16 6 8 6 0 0 0 0 0 0 0 0 0 0 0 0 0 0 0 0 0 0 0 0 0 0 0 0 0 0 0 0 0 0 0 0 0 0 0 0 0 0 0 
0 0 0 0 0 0 0 0 0 0 0 7 15 12 8 7 17 10 8 24 130 128 79 82 144 160 138 133 134 109 123 174 180 152 130 130 124 101 72 59 62 126 199 200 156 138 161 137 118 144 180 158 139 176 145 106 118 122 96 79 81 85 118 160 144 143 139 169 209 178 177 168 155 137 158 156 149 168 170 87 65 36 55 125 60 15 3 2 11 5 3 0 0 0 0 0 0 0 0 0 0 0 0 0 0 0 0 0 0 0 0 0 0 0 0 0 0 0 0 0 0 0 0 0 0 0 0 0 
0 0 0 0 0 0 0 0 0 0 0 2 16 16 19 18 21 16 12 10 62 139 83 73 154 165 162 160 122 90 82 118 149 149 154 155 151 153 152 140 126 167 204 193 171 148 145 126 127 169 165 118 110 123 146 110 66 65 81 65 63 107 154 165 164 163 146 186 231 187 165 133 108 119 132 118 140 160 164 90 69 30 22 72 28 11 7 8 17 8 6 0 0 0 0 0 0 0 0 0 0 0 0 0 0 0 0 0 0 0 0 0 0 0 0 0 0 0 0 0 0 0 0 0 0 0 0 0 
0 0 0 0 0 0 0 0 0 0 0 4 15 14 14 10 6 6 9 18 18 85 104 88 97 129 144 171 143 132 130 123 127 106 129 151 170 178 180 182 182 206 242 244 233 198 174 180 185 173 133 121 130 120 127 146 148 131 128 124 152 160 176 191 192 173 148 196 225 154 86 66 87 90 84 86 76 86 128 127 87 83 127 64 14 5 6 7 15 5 0 0 5 4 0 0 0 0 0 0 0 0 0 0 0 0 0 0 0 0 0 0 0 0 0 0 0 0 0 0 0 0 0 0 0 0 0 0 
0 0 0 0 0 0 0 0 0 0 0 0 12 10 0 1 5 5 6 25 19 27 101 93 91 109 105 147 168 182 178 147 125 89 93 95 100 124 141 142 136 203 235 232 240 233 210 198 200 174 148 145 135 135 132 137 149 162 168 176 187 191 199 187 180 148 105 132 160 179 112 89 107 100 69 51 58 71 72 95 99 120 92 25 14 0 1 2 4 9 11 11 12 12 0 0 0 0 0 0 0 0 0 0 0 0 0 0 0 0 0 0 0 0 0 0 0 0 0 0 0 0 0 0 0 0 0 0 
0 0 0 0 0 0 0 0 0 0 0 0 5 13 7 0 1 4 3 4 21 19 49 107 95 69 37 123 125 171 173 174 181 167 147 106 60 52 81 101 104 172 190 188 170 222 184 200 213 178 169 164 155 152 140 110 88 89 108 131 125 136 175 162 142 218 86 103 192 205 210 213 190 162 132 103 90 65 48 30 65 77 44 34 11 0 0 1 1 0 0 4 10 0 0 0 0 0 0 0 0 0 0 0 0 0 0 0 0 0 0 0 0 0 0 0 0 0 0 0 0 0 0 0 0 0 0 0 
0 0 0 0 0 0 0 0 0 0 0 0 0 5 11 0 0 0 3 2 18 35 30 45 59 28 17 79 99 93 127 107 135 126 90 74 55 56 65 72 114 120 160 154 222 244 181 146 167 135 122 133 151 149 143 131 101 93 109 143 139 149 151 144 147 169 94 97 179 211 196 188 172 131 88 96 92 114 55 30 35 49 54 38 11 0 0 1 0 0 0 2 7 0 0 0 0 0 0 0 0 0 0 0 0 0 0 0 0 0 0 0 0 0 0 0 0 0 0 0 0 0 0 0 0 0 0 0 
0 0 0 0 0 0 0 0 0 0 0 0 0 3 4 0 0 0 3 7 12 20 25 23 26 26 20 65 122 53 69 39 71 91 55 57 67 63 46 39 50 142 132 90 126 204 128 95 61 56 50 73 115 105 102 102 72 69 85 119 99 100 130 132 134 106 93 68 76 84 74 64 60 52 56 91 49 115 59 36 26 25 23 12 6 0 0 0 0 0 0 13 7 0 0 0 0 0 0 0 0 0 0 0 0 0 0 0 0 0 0 0 0 0 0 0 0 0 0 0 0 0 0 0 0 0 0 0 
0 0 0 0 0 0 0 0 0 0 0 0 0 0 0 0 0 0 0 2 7 9 17 22 24 21 21 53 138 67 64 34 54 99 67 38 38 49 45 32 32 42 64 61 78 84 74 80 57 44 50 58 88 90 87 87 57 45 60 86 73 65 62 67 50 62 51 47 63 59 56 52 43 39 42 73 50 128 61 33 28 27 17 6 2 0 0 0 0 0 4 11 1 0 0 0 0 0 0 0 0 0 0 0 0 0 0 0 0 0 0 0 0 0 0 0 0 0 0 0 0 0 0 0 0 0 0 0 
0 0 0 0 0 0 0 0 0 0 0 0 0 0 0 0 0 0 0 0 5 8 8 16 23 33 30 52 140 85 70 39 61 103 97 61 57 70 82 73 85 75 67 65 61 63 73 116 110 79 73 78 97 102 102 92 92 122 140 132 94 75 82 91 90 58 27 21 105 69 48 30 42 57 62 83 70 124 53 45 40 36 22 11 0 0 0 0 0 0 0 0 0 0 0 0 0 0 0 0 0 0 0 0 0 0 0 0 0 0 0 0 0 0 0 0 0 0 0 0 0 0 0 0 0 0 0 0 
0 0 0 0 0 0 0 0 0 0 0 0 0 0 0 0 0 0 0 0 1 2 1 2 14 49 54 89 168 154 114 78 62 105 88 68 74 124 83 105 151 142 77 89 117 122 160 166 169 147 134 129 145 163 170 177 186 193 190 199 196 182 162 166 200 185 168 197 201 203 124 41 25 37 61 74 72 85 34 23 16 13 3 2 0 0 0 0 0 0 0 0 0 0 0 0 0 0 0 0 0 0 0 0 0 0 0 0 0 0 0 0 0 0 0 0 0 0 0 0 0 0 0 0 0 0 0 0 
0 0 0 0 0 0 0 0 0 0 0 0 0 0 0 0 0 0 0 0 0 0 17 19 9 28 48 82 155 175 148 107 98 96 63 51 61 108 94 66 192 153 80 124 192 222 180 186 185 186 174 210 217 228 245 243 207 170 157 158 164 195 180 165 168 218 219 182 210 177 152 91 49 39 22 50 61 50 13 19 21 32 38 11 0 0 0 0 0 0 0 0 0 0 0 0 0 0 0 0 0 0 0 0 0 0 0 0 0 0 0 0 0 0 0 0 0 0 0 0 0 0 0 0 0 0 0 0 
0 0 0 0 0 0 0 0 0 0 0 0 0 0 0 0 0 0 0 0 0 1 2 10 4 23 36 38 87 134 114 60 64 79 40 39 45 73 74 70 106 78 87 94 132 156 187 183 191 186 191 179 161 158 164 159 165 184 189 167 161 163 130 98 183 134 135 147 180 162 92 38 12 22 77 89 93 67 25 22 18 3 2 2 0 0 0 0 0 0 0 0 0 0 0 0 0 0 0 0 0 0 0 0 0 0 0 0 0 0 0 0 0 0 0 0 0 0 0 0 0 0 0 0 0 0 0 0 
0 0 0 0 0 0 0 0 0 0 0 0 0 0 0 0 0 0 0 0 0 0 5 6 6 15 26 24 48 107 99 59 44 74 35 23 25 44 80 89 90 86 91 89 73 90 109 109 102 95 132 115 108 108 110 78 82 74 97 128 149 139 104 79 67 143 195 170 164 126 106 66 45 30 93 115 98 65 31 25 22 6 6 2 0 0 0 0 0 0 0 0 0 0 0 0 0 0 0 0 0 0 0 0 0 0 0 0 0 0 0 0 0 0 0 0 0 0 0 0 0 0 0 0 0 0 0 0 
0 0 0 0 0 0 0 0 0 0 0 0 0 0 0 0 0 0 0 0 0 0 3 6 9 16 23 24 34 87 86 78 43 73 34 28 24 49 97 99 106 84 95 102 100 93 91 88 82 108 128 119 120 118 125 107 119 136 165 172 153 137 98 55 64 89 84 93 106 110 89 50 33 29 83 126 100 69 31 26 22 5 6 1 0 0 0 0 0 0 0 0 0 0 0 0 0 0 0 0 0 0 0 0 0 0 0 0 0 0 0 0 0 0 0 0 0 0 0 0 0 0 0 0 0 0 0 0 
0 0 0 0 0 0 0 0 0 0 0 0 0 0 0 0 0 0 0 0 0 0 2 6 9 12 17 23 27 78 63 81 44 71 32 27 22 31 61 88 94 80 105 72 60 65 72 66 78 119 126 133 144 142 147 132 138 161 179 181 147 131 103 68 95 55 89 108 103 88 59 40 32 26 75 125 89 85 30 27 21 5 6 1 0 0 0 0 0 0 0 0 0 0 0 0 0 0 0 0 0 0 0 0 0 0 0 0 0 0 0 0 0 0 0 0 0 0 0 0 0 0 0 0 0 0 0 0 
0 0 0 0 0 0 0 0 0 0 0 0 0 0 0 0 0 0 0 0 0 0 0 4 6 12 15 21 23 68 53 73 56 76 34 23 26 28 49 77 63 84 110 74 54 59 80 68 71 138 166 167 164 155 154 149 153 155 157 155 143 124 90 79 73 42 66 99 80 84 68 35 27 28 74 126 66 99 38 29 17 8 4 0 0 0 0 0 0 0 0 0 0 0 0 0 0 0 0 0 0 0 0 0 0 0 0 0 0 0 0 0 0 0 0 0 0 0 0 0 0 0 0 0 0 0 0 0 
0 0 0 0 0 0 0 0 0 0 0 0 0 0 0 0 0 0 0 0 0 0 0 0 6 9 11 16 20 48 64 63 70 75 33 26 36 35 65 61 75 114 92 72 59 49 77 85 82 111 127 122 143 154 149 149 155 146 143 112 114 69 57 91 79 63 65 90 117 60 73 52 32 30 69 113 50 83 57 28 14 7 4 0 0 0 0 0 0 0 0 0 0 0 0 0 0 0 0 0 0 0 0 0 0 0 0 0 0 0 0 0 0 0 0 0 0 0 0 0 0 0 0 0 0 0 0 0 
0 0 0 0 0 0 0 0 0 0 0 0 0 0 0 0 0 0 0 0 0 0 0 0 3 5 10 13 17 29 85 67 49 71 46 24 38 58 55 47 113 108 76 71 71 53 108 94 77 87 79 91 114 136 141 141 137 126 112 78 65 62 51 98 101 85 86 80 122 93 55 64 41 33 66 96 72 73 30 22 12 5 2 0 0 0 0 0 0 0 0 0 0 0 0 0 0 0 0 0 0 0 0 0 0 0 0 0 0 0 0 0 0 0 0 0 0 0 0 0 0 0 0 0 0 0 0 0 
0 0 0 0 0 0 0 0 0 0 0 0 0 0 0 0 0 0 0 0 0 0 0 0 0 5 7 12 12 17 30 32 16 57 60 23 42 78 49 49 120 97 68 71 73 79 128 102 76 74 68 72 97 120 131 144 145 140 106 79 75 66 74 105 92 54 70 70 106 122 60 84 54 37 70 64 29 22 19 15 9 5 2 0 0 0 0 0 0 0 0 0 0 0 0 0 0 0 0 0 0 0 0 0 0 0 0 0 0 0 0 0 0 0 0 0 0 0 0 0 0 0 0 0 0 0 0 0 
0 0 0 0 0 0 0 0 0 0 0 0 0 0 0 0 0 0 0 0 0 0 0 0 0 6 4 8 12 18 16 16 10 29 74 47 65 82 46 59 117 95 64 68 70 87 130 98 67 83 97 90 102 121 147 156 144 117 101 86 82 72 65 103 88 42 56 62 108 137 65 80 88 70 84 40 9 20 22 13 6 4 1 0 0 0 0 0 0 0 0 0 0 0 0 0 0 0 0 0 0 0 0 0 0 0 0 0 0 0 0 0 0 0 0 0 0 0 0 0 0 0 0 0 0 0 0 0 
0 0 0 0 0 0 0 0 0 0 0 0 0 0 0 0 0 0 0 0 0 0 0 0 0 0 5 4 14 18 22 17 12 11 49 83 87 67 46 76 125 94 63 58 61 83 120 86 68 94 108 103 110 123 135 137 133 102 70 77 94 63 30 81 84 50 53 52 93 146 82 53 89 102 71 15 8 20 20 15 6 3 0 0 0 0 0 0 0 0 0 0 0 0 0 0 0 0 0 0 0 0 0 0 0 0 0 0 0 0 0 0 0 0 0 0 0 0 0 0 0 0 0 0 0 0 0 0 
0 0 0 0 0 0 0 0 0 0 0 0 0 0 0 0 0 0 0 0 0 0 0 0 0 0 2 2 14 16 20 19 14 10 13 24 27 38 46 87 147 109 54 51 52 70 110 90 84 98 112 129 139 136 132 121 137 131 73 53 65 61 37 60 89 67 56 52 94 165 107 42 42 51 34 15 11 21 19 14 4 2 0 0 0 0 0 0 0 0 0 0 0 0 0 0 0 0 0 0 0 0 0 0 0 0 0 0 0 0 0 0 0 0 0 0 0 0 0 0 0 0 0 0 0 0 0 0 
0 0 0 0 0 0 0 0 0 0 0 0 0 0 0 0 0 0 0 0 0 0 0 0 0 0 0 5 7 16 17 20 16 8 9 13 22 32 42 86 156 126 55 55 82 92 82 68 64 63 76 116 146 153 153 148 160 162 141 101 72 64 57 58 88 99 70 51 97 170 109 40 37 34 31 18 13 18 18 7 0 1 0 0 0 0 0 0 0 0 0 0 0 0 0 0 0 0 0 0 0 0 0 0 0 0 0 0 0 0 0 0 0 0 0 0 0 0 0 0 0 0 0 0 0 0 0 0 
0 0 0 0 0 0 0 0 0 0 0 0 0 0 0 0 0 0 0 0 0 0 0 0 0 0 0 5 6 9 18 17 20 12 8 16 30 33 34 53 135 158 94 64 114 107 74 61 67 61 95 117 125 122 126 129 132 137 123 89 95 53 46 49 74 98 103 75 124 168 85 34 35 34 29 20 14 16 15 8 1 1 0 0 0 0 0 0 0 0 0 0 0 0 0 0 0 0 0 0 0 0 0 0 0 0 0 0 0 0 0 0 0 0 0 0 0 0 0 0 0 0 0 0 0 0 0 0 
0 0 0 0 0 0 0 0 0 0 0 0 0 0 0 0 0 0 0 0 0 0 0 0 0 0 0 3 5 8 12 16 17 18 9 10 25 31 34 34 80 161 149 127 142 108 70 56 61 68 97 96 105 128 127 125 127 137 134 102 102 55 32 38 60 98 144 146 168 142 42 30 34 33 27 22 17 19 13 8 1 1 0 0 0 0 0 0 0 0 0 0 0 0 0 0 0 0 0 0 0 0 0 0 0 0 0 0 0 0 0 0 0 0 0 0 0 0 0 0 0 0 0 0 0 0 0 0 
0 0 0 0 0 0 0 0 0 0 0 0 0 0 0 0 0 0 0 0 0 0 0 0 0 0 0 0 3 10 7 16 15 14 10 8 16 25 29 30 33 99 171 170 161 106 69 57 58 83 106 121 129 140 135 118 117 139 153 132 124 63 26 32 43 95 171 188 158 64 30 29 34 30 27 19 15 21 13 7 3 1 0 0 0 0 0 0 0 0 0 0 0 0 0 0 0 0 0 0 0 0 0 0 0 0 0 0 0 0 0 0 0 0 0 0 0 0 0 0 0 0 0 0 0 0 0 0 
0 0 0 0 0 0 0 0 0 0 0 0 0 0 0 0 0 0 0 0 0 0 0 0 0 0 0 0 0 8 7 12 16 12 10 10 11 26 27 29 31 30 61 114 133 102 69 61 60 80 105 141 138 125 118 107 105 116 144 154 140 81 32 33 33 63 124 105 44 30 29 28 28 27 24 19 14 20 14 8 5 1 0 0 0 0 0 0 0 0 0 0 0 0 0 0 0 0 0 0 0 0 0 0 0 0 0 0 0 0 0 0 0 0 0 0 0 0 0 0 0 0 0 0 0 0 0 0 
0 0 0 0 0 0 0 0 0 0 0 0 0 0 0 0 0 0 0 0 0 0 0 0 0 0 0 0 0 5 7 9 14 15 8 10 10 24 29 27 28 29 30 45 63 67 61 56 58 72 111 147 130 109 111 109 106 110 126 152 160 93 38 34 37 36 30 32 37 38 30 26 27 25 18 20 13 19 15 8 5 1 0 0 0 0 0 0 0 0 0 0 0 0 0 0 0 0 0 0 0 0 0 0 0 0 0 0 0 0 0 0 0 0 0 0 0 0 0 0 0 0 0 0 0 0 0 0 
