P2
128 99
242
0 0 0 0 0 0 0 0 0 0 0 0 0 0 0 0 0 0 0 0 0 0 0 0 0 0 0 0 0 0 0 0 0 0 0 0 0 0 0 0 0 0 0 0 0 0 0 0 0 0 0 0 0 0 0 0 0 0 0 0 0 0 0 0 0 0 0 0 0 0 0 0 0 0 0 0 0 0 0 0 0 0 0 0 0 0 0 0 0 0 0 0 0 0 0 0 0 0 0 0 0 0 0 0 0 0 0 0 0 0 0 0 0 0 0 0 0 0 0 0 0 0 0 0 0 0 0 0 
0 0 0 0 0 0 0 0 0 0 0 0 0 0 0 0 0 0 0 0 0 0 0 0 0 0 0 0 0 0 0 0 0 0 0 0 0 0 0 0 0 0 0 0 0 0 0 0 0 0 0 0 0 0 0 0 0 0 0 0 0 0 0 0 0 1 0 0 0 0 0 0 0 0 0 0 0 0 0 0 0 0 0 0 0 0 0 0 0 0 0 0 0 0 0 0 0 0 0 0 0 0 0 0 0 0 0 0 0 0 0 0 0 0 0 0 0 0 0 0 0 0 0 0 0 0 0 0 
0 0 0 0 0 0 0 0 0 0 0 0 0 0 0 0 0 0 0 0 0 0 0 0 0 0 0 0 0 0 0 0 0 0 0 0 0 0 0 0 0 0 0 0 0 0 0 0 0 0 0 0 1 1 1 0 0 0 0 0 0 0 0 1 0 1 0 0 0 0 0 0 0 0 0 0 0 0 0 0 0 0 0 0 0 0 0 0 0 0 0 0 0 0 0 0 0 0 0 0 0 0 0 0 0 0 0 0 0 0 0 0 0 0 0 0 0 0 0 0 0 0 0 0 0 0 0 0 
0 0 0 0 0 0 0 0 0 0 0 0 0 0 0 0 0 0 0 0 0 0 0 0 0 0 0 0 0 0 0 0 0 0 0 0 0 0 0 0 0 0 0 1 7 7 6 13 18 20 21 23 23 21 18 17 17 19 21 12 2 0 1 1 1 0 0 0 0 0 0 0 0 0 0 0 0 0 0 0 0 0 0 0 0 0 0 0 0 0 0 0 0 0 0 0 0 0 0 0 0 0 0 0 0 0 0 0 0 0 0 0 0 0 0 0 0 0 0 0 0 0 0 0 0 0 0 0 
0 0 0 0 0 0 0 0 0 0 0 0 0 0 0 0 0 0 0 0 0 0 0 0 0 0 0 0 0 0 0 0 0 0 0 0 0 0 0 0 8 10 10 25 36 41 50 63 83 104 128 146 158 163 159 152 137 117 88 53 27 23 22 4 1 1 0 0 0 0 0 0 0 0 0 0 0 0 0 0 0 0 0 0 0 0 0 0 0 0 0 0 0 0 0 0 0 0 0 0 0 0 0 0 0 0 0 0 0 0 0 0 0 0 0 0 0 0 0 0 0 0 0 0 0 0 0 0 
0 0 0 0 0 0 0 0 0 0 0 0 0 0 0 0 0 0 0 0 0 0 0 0 0 0 0 0 0 0 0 0 0 0 0 0 0 1 10 10 25 38 40 55 88 132 165 190 198 185 166 152 147 143 139 137 136 143 163 183 177 137 81 29 20 20 1 0 0 0 0 0 0 0 0 0 0 0 0 0 0 0 0 0 0 0 0 0 0 0 0 0 0 0 0 0 0 0 0 0 0 0 0 0 0 0 0 0 0 0 0 0 0 0 0 0 0 0 0 0 0 0 0 0 0 0 0 0 
0 0 0 0 0 0 0 0 0 0 0 0 0 0 0 0 0 0 0 0 0 0 0 0 0 0 0 0 0 0 0 0 0 0 0 0 11 19 28 38 49 82 129 167 205 194 155 132 130 132 136 140 143 143 142 143 140 140 133 126 125 142 174 182 137 75 22 19 8 0 0 0 0 0 0 0 0 0 0 0 0 0 0 0 0 0 0 0 0 0 0 0 0 0 0 0 0 0 0 0 0 0 0 0 0 0 0 0 0 0 0 0 0 0 0 0 0 0 0 0 0 0 0 0 0 0 0 0 
0 0 0 0 0 0 0 0 0 0 0 0 0 0 0 0 0 0 0 0 0 0 0 0 0 0 0 0 0 0 0 0 0 0 7 24 34 34 55 101 148 195 200 158 128 124 134 144 152 158 165 170 171 172 169 170 167 165 156 147 142 135 129 128 148 184 173 101 44 19 12 0 0 0 0 0 0 0 0 0 0 0 0 0 0 0 0 0 0 0 0 0 0 0 0 0 0 0 0 0 0 0 0 0 0 0 0 0 0 0 0 0 0 0 0 0 0 0 0 0 0 0 0 0 0 0 0 0 
0 0 0 0 0 0 0 0 0 0 0 0 0 0 0 0 0 0 0 0 0 0 0 0 0 0 0 0 0 0 0 0 1 24 28 27 50 106 153 200 191 141 123 132 141 148 156 156 136 118 120 128 134 115 102 113 135 154 167 179 175 165 156 141 131 127 137 173 181 105 39 24 4 0 0 0 0 0 0 0 0 0 0 0 0 0 0 0 0 0 0 0 0 0 0 0 0 0 0 0 0 0 0 0 0 0 0 0 0 0 0 0 0 0 0 0 0 0 0 0 0 0 0 0 0 0 0 0 
0 0 0 0 0 0 0 0 0 0 0 0 0 0 0 0 0 0 0 0 0 0 0 0 0 0 0 0 0 0 0 22 20 26 35 92 147 196 185 139 120 131 150 157 151 154 144 121 114 123 131 141 146 146 144 139 129 123 138 155 165 172 179 177 163 147 132 130 135 180 173 77 31 14 0 0 0 0 0 0 0 0 0 0 0 0 0 0 0 0 0 0 0 0 0 0 0 0 0 0 0 0 0 0 0 0 0 0 0 0 0 0 0 0 0 0 0 0 0 0 0 0 0 0 0 0 0 0 
0 0 0 0 0 0 0 0 0 0 0 0 0 0 0 0 0 0 0 0 0 0 0 0 0 0 0 0 0 9 23 21 23 66 133 186 197 141 115 129 157 171 168 162 152 136 130 131 137 144 129 121 115 123 141 144 142 138 137 143 155 162 161 166 177 178 167 153 134 130 146 187 126 40 20 4 0 0 0 0 0 0 0 0 0 0 0 0 0 0 0 0 0 0 0 0 0 0 0 0 0 0 0 0 0 0 0 0 0 0 0 0 0 0 0 0 0 0 0 0 0 0 0 0 0 0 0 0 
0 0 0 0 0 0 0 0 0 0 0 0 0 0 0 0 0 0 0 0 0 0 0 0 0 0 0 1 21 17 20 45 111 167 203 158 121 124 155 181 174 156 149 142 128 128 134 134 139 134 107 102 94 92 129 140 139 143 140 136 136 144 162 171 167 166 175 178 171 151 138 133 165 170 63 23 7 0 0 0 0 0 0 0 0 0 0 0 0 0 0 0 0 0 0 0 0 0 0 0 0 0 0 0 0 0 0 0 0 0 0 0 0 0 0 0 0 0 0 0 0 0 0 0 0 0 0 0 
0 0 0 0 0 0 0 0 0 0 0 0 0 0 0 0 0 0 0 0 0 0 0 0 0 0 7 21 12 22 72 137 184 184 129 124 155 183 179 160 148 140 131 118 109 121 135 136 139 116 105 101 99 99 111 115 103 116 131 138 136 137 134 145 165 173 176 176 177 181 169 143 132 148 181 83 26 8 0 0 0 0 0 0 0 0 0 0 0 0 0 0 0 0 0 0 0 0 0 0 0 0 0 0 0 0 0 0 0 0 0 0 0 0 0 0 0 0 0 0 0 0 0 0 0 0 0 0 
0 0 0 0 0 0 0 0 0 0 0 0 0 0 0 0 0 0 0 0 0 0 0 0 0 13 22 10 35 102 144 187 160 127 145 180 188 158 143 142 132 118 101 94 90 93 105 115 99 90 90 102 90 71 57 71 96 101 102 117 131 138 135 134 133 144 163 174 175 174 179 177 154 132 142 182 87 24 8 0 0 0 0 0 0 0 0 0 0 0 0 0 0 0 0 0 0 0 0 0 0 0 0 0 0 0 0 0 0 0 0 0 0 0 0 0 0 0 0 0 0 0 0 0 0 0 0 0 
0 0 0 0 0 0 0 0 0 0 0 0 0 0 0 0 0 0 0 0 0 0 0 0 19 19 7 47 112 143 182 146 134 164 194 186 153 140 139 125 114 94 89 90 92 86 68 51 50 52 56 64 59 62 60 61 65 78 86 92 102 125 136 136 131 126 125 141 166 175 175 176 180 159 136 142 183 95 24 12 0 0 0 0 0 0 0 0 0 0 0 0 0 0 0 0 0 0 0 0 0 0 0 0 0 0 0 0 0 0 0 0 0 0 0 0 0 0 0 0 0 0 0 0 0 0 0 0 
0 0 0 0 0 0 0 0 0 0 0 0 0 0 0 0 0 0 0 0 0 0 3 24 15 9 53 114 146 183 142 144 173 192 165 143 136 131 128 109 87 82 90 83 65 60 73 89 104 119 135 147 156 158 164 162 158 151 140 126 106 90 104 125 132 126 123 120 121 144 166 173 176 181 162 131 144 187 106 27 12 0 0 0 0 0 0 0 0 0 0 0 0 0 0 0 0 0 0 0 0 0 0 0 0 0 0 0 0 0 0 0 0 0 0 0 0 0 0 0 0 0 0 0 0 0 0 0 
0 0 0 0 0 0 0 0 0 0 0 0 0 0 0 0 0 0 0 0 0 6 21 13 13 69 118 135 173 133 150 179 182 148 127 119 115 119 108 90 87 86 104 117 137 158 170 172 175 172 170 171 169 167 168 167 164 166 173 178 180 171 163 147 138 127 121 120 119 122 129 146 168 175 175 155 125 139 187 114 31 10 0 0 0 0 0 0 0 0 0 0 0 0 0 0 0 0 0 0 0 0 0 0 0 0 0 0 0 0 0 0 0 0 0 0 0 0 0 0 0 0 0 0 0 0 0 0 
0 0 0 0 0 0 0 0 0 0 0 0 0 0 0 0 0 0 0 0 8 20 13 14 81 123 130 174 137 153 176 166 128 115 117 119 116 102 94 96 121 163 173 172 167 163 153 151 147 141 139 143 144 145 138 138 137 138 143 148 151 155 164 179 185 172 133 118 118 115 116 112 124 161 168 171 147 121 138 191 117 32 6 0 0 0 0 0 0 0 0 0 0 0 0 0 0 0 0 0 0 0 0 0 0 0 0 0 0 0 0 0 0 0 0 0 0 0 0 0 0 0 0 0 0 0 0 0 
0 0 0 0 0 0 0 0 0 0 0 0 0 0 0 0 0 0 0 6 17 11 16 83 129 125 179 144 153 173 152 116 112 123 122 121 101 74 94 152 177 164 154 146 143 146 144 146 142 136 148 153 149 150 148 141 140 140 143 146 146 146 144 151 158 176 185 149 119 112 112 111 110 120 157 169 172 141 119 156 183 102 26 3 0 0 0 0 0 0 0 0 0 0 0 0 0 0 0 0 0 0 0 0 0 0 0 0 0 0 0 0 0 0 0 0 0 0 0 0 0 0 0 0 0 0 0 0 
0 0 0 0 0 0 0 0 0 0 0 0 0 0 0 0 0 0 5 18 10 16 85 132 120 177 155 149 171 145 111 109 116 128 125 86 53 99 168 175 156 145 146 145 148 149 152 155 157 161 169 167 166 174 168 158 165 164 159 155 146 147 147 147 145 145 163 182 154 120 109 103 106 110 115 153 176 173 134 119 178 164 84 16 0 0 0 0 0 0 0 0 0 0 0 0 0 0 0 0 0 0 0 0 0 0 0 0 0 0 0 0 0 0 0 0 0 0 0 0 0 0 0 0 0 0 0 0 
0 0 0 0 0 0 0 0 0 0 0 0 0 0 0 0 0 0 17 10 15 73 134 121 167 173 144 158 142 111 110 112 118 122 89 56 108 168 156 148 145 149 158 155 148 141 141 145 162 171 130 125 140 180 182 183 186 182 178 184 179 166 158 153 149 143 140 165 179 133 105 106 104 111 110 115 145 182 165 124 144 192 138 55 6 0 0 0 0 0 0 0 0 0 0 0 0 0 0 0 0 0 0 0 0 0 0 0 0 0 0 0 0 0 0 0 0 0 0 0 0 0 0 0 0 0 0 0 
0 0 0 0 0 0 0 0 0 0 0 0 0 0 0 0 0 11 11 11 55 125 123 148 189 148 156 142 110 111 116 115 121 94 56 99 166 150 146 149 150 152 152 150 142 139 144 146 155 106 97 112 138 180 205 199 196 198 207 216 213 192 183 159 141 142 143 150 174 168 109 93 96 100 106 115 117 141 186 148 123 173 170 116 31 3 0 0 0 0 0 0 0 0 0 0 0 0 0 0 0 0 0 0 0 0 0 0 0 0 0 0 0 0 0 0 0 0 0 0 0 0 0 0 0 0 0 0 
0 0 0 0 0 0 0 0 0 0 0 0 0 0 0 0 8 9 9 35 107 121 123 185 161 143 133 114 105 114 118 111 85 52 83 158 164 157 156 153 163 179 184 182 168 157 159 150 118 117 135 155 162 174 178 186 197 200 191 170 173 199 205 187 156 133 145 144 161 182 139 85 89 98 106 108 115 112 146 180 133 140 186 145 91 13 0 0 0 0 0 0 0 0 0 0 0 0 0 0 0 0 0 0 0 0 0 0 0 0 0 0 0 0 0 0 0 0 0 0 0 0 0 0 0 0 0 0 
0 0 0 0 0 0 0 0 0 0 0 0 0 0 0 1 11 9 28 93 121 116 163 180 142 117 114 104 107 115 106 73 49 65 142 171 168 173 171 192 194 176 166 163 160 160 159 156 148 144 157 159 150 148 148 147 147 149 150 149 153 162 179 190 183 165 151 151 152 173 174 108 73 91 98 105 117 114 112 157 157 128 173 161 131 50 4 0 0 0 0 0 0 0 0 0 0 0 0 0 0 0 0 0 0 0 0 0 0 0 0 0 0 0 0 0 0 0 0 0 0 0 0 0 0 0 0 0 
0 0 0 0 0 0 0 0 0 0 0 0 0 0 0 10 6 20 73 120 118 136 192 155 111 114 112 105 115 113 78 49 52 120 177 161 186 191 198 178 161 160 157 160 155 155 152 145 143 142 140 142 133 132 135 140 135 134 136 137 141 144 150 159 169 174 166 155 145 159 171 153 78 70 85 97 113 118 113 130 147 133 155 181 135 100 16 0 0 0 0 0 0 0 0 0 0 0 0 0 0 0 0 0 0 0 0 0 0 0 0 0 0 0 0 0 0 0 0 0 0 0 0 0 0 0 0 0 
0 0 0 0 0 0 0 0 0 0 0 0 0 0 4 6 11 59 102 113 117 172 182 110 97 119 106 108 119 86 48 44 101 184 186 180 205 197 170 149 144 140 141 140 142 139 137 127 125 131 127 128 129 136 137 138 141 139 138 136 139 139 139 147 157 167 163 145 145 152 165 180 125 62 74 92 107 111 113 115 129 127 139 187 143 126 53 0 0 0 0 0 0 0 0 0 0 0 0 0 0 0 0 0 0 0 0 0 0 0 0 0 0 0 0 0 0 0 0 0 0 0 0 0 0 0 0 0 
0 0 0 0 0 0 0 0 0 0 0 0 0 0 8 4 43 87 111 110 141 192 136 93 107 117 113 120 104 55 43 82 171 196 200 198 195 176 146 138 134 128 130 133 140 140 131 124 124 128 131 134 130 131 139 144 143 138 137 137 135 136 135 138 148 151 159 150 134 144 140 178 174 101 51 76 112 115 118 115 118 119 130 186 159 127 94 14 0 0 0 0 0 0 0 0 0 0 0 0 0 0 0 0 0 0 0 0 0 0 0 0 0 0 0 0 0 0 0 0 0 0 0 0 0 0 0 0 
0 0 0 0 0 0 0 0 0 0 0 0 0 0 7 16 85 96 112 116 167 173 111 91 107 115 119 114 67 45 67 157 192 192 208 196 186 156 136 132 133 127 134 137 134 133 127 130 133 135 139 138 129 139 149 147 140 137 136 134 134 132 136 137 143 146 148 155 147 123 139 171 184 162 81 46 88 117 121 118 120 110 121 170 168 121 111 39 0 0 0 0 0 0 0 0 0 0 0 0 0 0 0 0 0 0 0 0 0 0 0 0 0 0 0 0 0 0 0 0 0 0 0 0 0 0 0 0 
0 0 0 0 0 0 0 0 0 0 0 0 0 4 2 54 90 109 108 135 178 146 104 89 115 114 117 92 50 50 137 200 193 198 202 197 162 135 135 133 135 133 131 134 134 137 141 139 145 146 144 141 139 145 133 114 120 134 137 139 138 138 136 136 138 140 137 148 158 134 121 162 171 186 145 59 65 106 119 122 124 110 121 156 176 123 117 59 0 0 0 0 0 0 0 0 0 0 0 0 0 0 0 0 0 0 0 0 0 0 0 0 0 0 0 0 0 0 0 0 0 0 0 0 0 0 0 0 
0 0 0 0 0 0 0 0 0 0 0 0 0 4 7 86 84 111 112 150 164 129 88 93 119 114 101 63 42 91 193 195 187 193 189 158 132 131 134 134 139 136 133 134 134 138 148 149 154 150 147 144 145 138 116 114 123 136 138 143 143 138 136 138 136 133 134 140 154 155 131 151 157 173 182 108 51 85 112 124 126 124 125 158 180 132 124 71 2 0 0 0 0 0 0 0 0 0 0 0 0 0 0 0 0 0 0 0 0 0 0 0 0 0 0 0 0 0 0 0 0 0 0 0 0 0 0 0 
0 0 0 0 0 0 0 0 0 0 0 0 0 3 26 92 86 115 127 157 150 119 86 105 121 105 74 49 49 145 209 190 184 185 168 140 139 138 138 142 146 141 137 138 140 144 144 147 159 148 136 136 133 117 102 102 102 117 133 140 138 142 142 136 133 129 128 130 145 163 168 164 146 158 188 157 58 79 103 115 122 128 126 157 179 134 126 83 6 0 0 0 0 0 0 0 0 0 0 0 0 0 0 0 0 0 0 0 0 0 0 0 0 0 0 0 0 0 0 0 0 0 0 0 0 0 0 0 
0 0 0 0 0 0 0 0 0 0 0 0 0 1 50 88 98 119 146 142 143 115 101 116 116 73 45 42 63 172 209 190 179 177 149 139 139 139 137 138 141 134 128 132 136 138 138 139 140 123 111 106 108 99 82 69 72 86 105 126 136 148 148 141 134 130 130 130 137 156 181 193 158 143 172 183 72 56 94 110 125 131 120 156 181 132 117 92 12 0 0 0 0 0 0 0 0 0 0 0 0 0 0 0 0 0 0 0 0 0 0 0 0 0 0 0 0 0 0 0 0 0 0 0 0 0 0 0 
0 0 0 0 0 0 0 0 0 0 0 0 1 1 68 84 107 123 147 127 136 113 115 125 94 45 41 45 86 181 205 185 180 174 147 140 138 135 128 124 120 111 108 112 118 124 122 108 100 89 87 87 80 77 63 61 62 71 85 103 123 135 143 145 146 140 135 131 135 167 188 203 186 142 146 178 73 43 78 108 120 131 112 150 181 140 121 108 23 0 0 0 0 0 0 0 0 0 0 0 0 0 0 0 0 0 0 0 0 0 0 0 0 0 0 0 0 0 0 0 0 0 0 0 0 0 0 0 
0 0 0 0 0 0 0 0 0 0 0 0 1 4 76 82 111 117 132 121 133 114 115 115 71 39 44 56 108 191 198 183 184 175 155 137 135 129 112 105 99 90 87 88 96 101 98 87 82 70 73 74 69 65 61 60 61 65 71 83 95 108 125 137 149 145 136 129 112 139 180 200 198 152 142 174 78 41 60 112 125 140 124 146 178 154 124 120 33 0 0 0 0 0 0 0 0 0 0 0 0 0 0 0 0 0 0 0 0 0 0 0 0 0 0 0 0 0 0 0 0 0 0 0 0 0 0 0 
0 0 0 0 0 0 0 0 0 0 0 0 2 8 81 87 115 125 133 132 136 113 117 102 72 40 45 73 129 194 192 177 183 169 144 135 133 121 98 84 77 74 69 73 76 77 79 81 74 67 72 75 69 69 69 70 67 68 68 73 76 88 106 118 143 149 144 143 121 129 148 186 202 159 124 155 83 45 51 104 127 132 124 133 169 173 126 125 39 0 0 0 0 0 0 0 0 0 0 0 0 0 0 0 0 0 0 0 0 0 0 0 0 0 0 0 0 0 0 0 0 0 0 0 0 0 0 0 
0 0 0 0 0 0 0 0 0 0 0 0 3 16 80 94 119 140 137 149 138 109 113 93 75 43 51 95 149 185 182 174 181 153 134 133 131 113 88 71 60 62 63 65 67 69 73 75 68 69 78 83 83 81 80 84 77 72 68 65 69 78 95 117 148 148 150 144 138 130 129 141 172 158 114 147 91 50 45 96 121 130 128 130 171 178 129 126 48 3 0 0 0 0 0 0 0 0 0 0 0 0 0 0 0 0 0 0 0 0 0 0 0 0 0 0 0 0 0 0 0 0 0 0 0 0 0 0 
0 0 0 0 0 0 0 0 0 0 0 0 3 18 80 102 124 147 139 161 133 107 105 86 79 49 62 115 157 167 176 170 159 130 133 137 141 123 114 126 95 67 66 66 64 65 66 69 66 72 80 90 94 93 91 91 81 71 71 65 66 75 107 134 166 177 179 168 157 146 139 133 145 142 99 129 100 57 55 99 117 114 117 125 179 192 135 123 63 5 0 0 0 0 0 0 0 0 0 0 0 0 0 0 0 0 0 0 0 0 0 0 0 0 0 0 0 0 0 0 0 0 0 0 0 0 0 0 
0 0 0 0 0 0 0 0 0 0 0 0 5 19 75 106 126 150 133 165 151 114 103 82 80 73 75 135 162 160 182 147 131 125 137 158 166 144 119 111 108 114 127 108 73 62 64 65 65 69 81 93 103 107 105 96 87 71 63 62 72 102 120 111 127 143 146 143 131 134 138 146 159 144 102 104 109 56 77 109 120 101 110 125 184 202 141 123 77 7 0 0 0 0 0 0 0 0 0 0 0 0 0 0 0 0 0 0 0 0 0 0 0 0 0 0 0 0 0 0 0 0 0 0 0 0 0 0 
0 0 0 0 0 0 0 0 0 0 0 0 7 17 75 116 130 151 130 161 158 117 93 76 80 87 101 147 164 162 164 112 118 136 149 140 118 81 60 54 54 56 70 100 105 78 62 64 66 69 83 100 111 117 114 107 87 71 63 78 98 99 70 71 103 138 142 142 140 136 136 148 162 163 119 93 120 83 93 119 117 89 102 129 186 201 148 132 86 9 0 0 0 0 0 0 0 0 0 0 0 0 0 0 0 0 0 0 0 0 0 0 0 0 0 0 0 0 0 0 0 0 0 0 0 0 0 0 
0 0 0 0 0 0 0 0 0 0 0 0 8 15 81 121 128 152 123 164 158 121 90 65 85 85 124 153 161 150 140 124 128 139 139 130 101 70 62 56 50 49 49 50 73 108 81 63 66 68 89 109 123 126 122 109 85 67 76 92 92 57 55 72 95 134 143 143 139 140 136 146 159 164 144 153 162 124 102 125 110 89 99 138 187 199 158 133 95 15 0 0 0 0 0 0 0 0 0 0 0 0 0 0 0 0 0 0 0 0 0 0 0 0 0 0 0 0 0 0 0 0 0 0 0 0 0 0 
0 0 0 0 0 0 0 0 0 0 0 0 9 12 82 123 129 136 105 168 161 128 81 47 85 93 129 167 167 148 135 139 147 135 138 121 85 62 61 57 53 54 49 49 50 71 104 79 73 87 113 131 132 128 125 114 86 77 88 96 63 51 56 69 94 124 145 144 141 139 141 153 167 166 140 168 190 159 129 131 110 86 90 139 192 197 163 131 100 22 0 0 0 0 0 0 0 0 0 0 0 0 0 0 0 0 0 0 0 0 0 0 0 0 0 0 0 0 0 0 0 0 0 0 0 0 0 0 
0 0 0 0 0 0 0 0 0 0 0 0 9 11 86 129 129 142 105 166 169 132 73 41 72 103 137 170 171 144 141 174 149 138 137 116 75 56 53 50 52 56 53 53 47 51 87 82 68 66 86 132 126 102 126 139 103 63 58 79 53 50 53 64 88 119 145 145 142 148 145 153 164 171 129 126 192 172 151 140 106 87 89 121 176 186 173 134 104 31 0 0 0 0 0 0 0 0 0 0 0 0 0 0 0 0 0 0 0 0 0 0 0 0 0 0 0 0 0 0 0 0 0 0 0 0 0 0 
0 0 0 0 0 0 0 0 0 0 0 0 9 10 90 130 128 141 109 170 175 134 57 35 63 104 143 178 171 149 168 185 142 138 138 107 72 52 49 49 51 50 52 51 51 49 65 64 52 52 77 134 107 84 124 150 96 55 63 65 54 51 54 61 87 119 143 147 144 147 151 156 165 170 126 95 177 178 175 177 111 90 90 104 143 173 167 136 109 41 1 0 0 0 0 0 0 0 0 0 0 0 0 0 0 0 0 0 0 0 0 0 0 0 0 0 0 0 0 0 0 0 0 0 0 0 0 0 
0 0 0 0 0 0 0 0 0 0 0 0 9 12 88 130 128 140 116 168 177 121 44 35 62 98 130 170 167 150 180 182 141 139 131 105 67 50 54 55 52 53 50 51 50 49 55 66 52 54 89 125 96 79 99 101 85 60 68 56 49 50 53 61 85 117 141 145 147 151 148 159 167 166 111 75 158 185 206 211 124 89 90 101 104 166 173 137 111 46 1 0 0 0 0 0 0 0 0 0 0 0 0 0 0 0 0 0 0 0 0 0 0 0 0 0 0 0 0 0 0 0 0 0 0 0 0 0 
0 0 0 0 0 0 0 0 0 0 0 0 8 12 82 132 125 142 130 163 156 90 42 35 59 92 117 162 168 159 180 189 139 142 137 110 70 56 57 60 61 57 57 52 50 53 51 56 54 54 86 106 75 76 64 74 99 65 50 49 56 51 60 65 77 109 140 143 145 147 145 159 172 161 96 77 163 200 204 218 148 93 92 97 68 142 169 138 111 49 2 0 0 0 0 0 0 0 0 0 0 0 0 0 0 0 0 0 0 0 0 0 0 0 0 0 0 0 0 0 0 0 0 0 0 0 0 0 
0 0 0 0 0 0 0 0 0 0 0 0 9 13 81 133 125 139 145 155 118 77 40 38 54 87 119 162 168 162 179 202 143 139 136 115 74 58 55 59 63 59 57 50 51 53 51 48 48 61 99 85 48 62 53 61 98 83 53 53 67 76 86 65 75 107 138 146 149 148 150 165 173 153 80 95 177 201 205 220 164 93 93 96 55 139 159 125 108 48 2 0 0 0 0 0 0 0 0 0 0 0 0 0 0 0 0 0 0 0 0 0 0 0 0 0 0 0 0 0 0 0 0 0 0 0 0 0 
0 0 0 0 0 0 0 0 0 0 0 0 7 11 73 132 128 143 160 144 90 79 41 41 49 94 171 168 169 164 170 212 159 140 136 112 79 61 57 62 62 60 56 63 54 55 50 54 49 76 95 72 61 59 56 53 89 105 71 73 74 66 59 61 79 110 140 148 145 150 157 165 168 133 62 104 158 190 199 213 171 96 94 92 51 143 159 132 107 43 1 0 0 0 0 0 0 0 0 0 0 0 0 0 0 0 0 0 0 0 0 0 0 0 0 0 0 0 0 0 0 0 0 0 0 0 0 0 
0 0 0 0 0 0 0 0 0 0 0 0 7 11 67 134 131 143 158 108 86 79 44 43 47 112 192 161 166 166 167 207 173 140 140 118 85 65 62 62 58 60 66 76 68 78 63 55 51 99 100 64 54 43 45 48 73 108 76 63 64 57 50 60 85 120 143 149 149 152 159 167 159 98 58 149 179 193 182 202 175 99 98 82 48 150 159 130 102 37 1 0 0 0 0 0 0 0 0 0 0 0 0 0 0 0 0 0 0 0 0 0 0 0 0 0 0 0 0 0 0 0 0 0 0 0 0 0 
0 0 0 0 0 0 0 0 0 0 0 0 3 12 57 133 131 139 155 108 85 79 48 43 49 111 197 153 158 168 164 198 184 143 142 127 93 73 60 58 56 57 55 58 55 67 60 58 71 98 66 48 51 45 48 45 46 88 105 67 61 55 52 69 90 124 146 149 151 156 168 172 141 74 56 142 158 170 170 196 181 103 98 71 50 151 157 130 95 30 1 0 0 0 0 0 0 0 0 0 0 0 0 0 0 0 0 0 0 0 0 0 0 0 0 0 0 0 0 0 0 0 0 0 0 0 0 0 
0 0 0 0 0 0 0 0 0 0 0 0 3 14 47 131 131 136 159 119 84 83 59 42 51 99 190 153 152 172 167 198 193 146 141 130 102 71 56 55 52 54 55 54 53 60 72 48 70 91 56 48 48 61 64 58 52 58 105 89 62 49 61 75 85 118 142 154 154 159 171 168 121 58 68 144 158 171 167 186 189 107 97 55 54 159 150 128 86 22 1 0 0 0 0 0 0 0 0 0 0 0 0 0 0 0 0 0 0 0 0 0 0 0 0 0 0 0 0 0 0 0 0 0 0 0 0 0 
0 0 0 0 0 0 0 0 0 0 0 0 2 14 39 127 135 136 152 130 86 83 68 40 49 80 183 140 141 170 171 195 202 156 139 129 101 69 56 51 48 47 49 49 48 55 69 62 85 76 42 45 52 62 73 60 54 49 78 111 110 72 76 80 84 110 137 144 147 159 170 164 110 51 84 149 163 151 161 195 197 114 92 42 61 174 135 118 75 15 1 0 0 0 0 0 0 0 0 0 0 0 0 0 0 0 0 0 0 0 0 0 0 0 0 0 0 0 0 0 0 0 0 0 0 0 0 0 
0 0 0 0 0 0 0 0 0 6 6 0 0 13 29 120 138 134 144 140 90 85 74 41 43 64 165 125 122 166 168 186 207 181 146 133 99 63 47 47 45 49 55 49 54 90 107 87 87 57 43 50 56 60 66 53 54 54 50 97 112 115 108 83 93 124 142 146 147 156 160 154 95 51 111 146 105 80 108 200 205 120 83 37 75 176 118 107 64 11 1 0 0 0 0 0 0 0 0 0 0 0 0 0 0 0 0 0 0 0 0 0 0 0 0 0 0 0 0 0 0 0 0 0 0 0 0 0 
0 0 0 0 0 0 0 0 1 6 8 4 0 11 23 106 138 132 115 145 93 84 78 50 40 53 147 115 104 159 161 165 200 204 164 136 94 59 48 47 56 71 86 83 64 84 91 71 90 45 44 63 54 56 55 48 51 57 61 91 108 129 105 87 123 146 149 149 147 152 159 143 81 86 141 116 65 69 81 170 207 130 66 36 104 160 111 94 53 9 0 0 0 0 0 0 0 0 0 0 0 0 0 0 0 0 0 0 0 0 0 0 0 0 0 0 0 0 0 0 0 0 0 0 0 0 0 0 
0 0 0 0 0 0 0 0 0 0 0 8 0 8 17 89 134 133 83 141 105 82 78 54 39 47 136 116 95 152 158 148 166 193 192 137 90 57 48 64 65 73 81 91 90 88 86 82 87 42 50 62 55 56 55 51 48 62 87 122 130 132 114 106 115 143 159 167 156 152 160 134 88 139 126 74 61 70 77 145 206 142 51 54 141 143 119 87 43 8 0 0 0 0 0 0 0 0 0 0 0 0 0 0 0 0 0 0 0 0 0 0 0 0 0 0 0 0 0 0 0 0 0 0 0 0 0 0 
0 0 0 0 0 0 0 0 0 0 0 5 5 8 18 73 129 135 72 112 131 86 83 71 40 48 145 107 92 144 158 140 143 160 185 146 99 70 67 74 87 95 98 101 97 97 81 85 80 45 61 56 50 58 57 52 47 53 72 105 129 137 131 130 143 157 155 150 159 174 180 151 132 142 90 73 69 66 79 132 203 147 52 120 130 149 140 83 38 6 0 0 1 9 5 0 0 0 0 0 0 0 0 0 0 0 0 0 0 0 0 0 0 0 0 0 0 0 0 0 0 0 0 0 0 0 0 0 
0 0 0 0 0 0 0 0 0 0 0 2 8 5 18 63 119 129 88 81 152 101 83 79 47 84 171 101 91 132 169 160 148 151 165 156 143 121 108 104 102 104 90 102 130 100 70 83 79 49 77 76 54 60 62 47 44 49 74 80 113 127 126 130 150 172 170 166 166 177 169 116 103 90 63 74 73 68 85 133 201 155 99 141 92 143 118 79 35 4 0 1 3 0 1 0 0 0 0 0 0 0 0 0 0 0 0 0 0 0 0 0 0 0 0 0 0 0 0 0 0 0 0 0 0 0 0 0 
0 0 0 0 0 0 0 0 0 0 0 0 5 6 15 57 103 124 100 60 141 123 85 84 67 139 161 96 77 122 178 178 159 153 158 159 163 128 112 121 124 109 123 131 136 99 73 82 79 62 100 106 65 68 66 49 45 56 92 86 112 122 121 136 161 175 181 186 179 185 159 69 94 92 64 77 81 94 97 132 199 176 144 134 141 114 79 87 34 4 2 0 0 0 0 0 0 0 0 0 0 0 0 0 0 0 0 0 0 0 0 0 0 0 0 0 0 0 0 0 0 0 0 0 0 0 0 0 
0 0 0 0 0 0 0 0 0 0 0 0 2 7 12 52 92 124 101 55 124 145 97 82 98 161 142 82 72 86 154 189 182 160 151 154 159 137 116 93 90 87 79 81 113 118 92 88 103 74 131 135 87 83 73 68 79 76 115 98 99 99 115 143 163 166 171 171 168 165 122 76 115 105 107 120 130 146 149 152 184 201 175 159 146 109 60 87 32 4 1 0 0 0 0 0 0 0 0 0 0 0 0 0 0 0 0 0 0 0 0 0 0 0 0 0 0 0 0 0 0 0 0 0 0 0 0 0 
0 0 0 0 0 0 0 0 0 0 0 0 3 9 8 51 92 121 122 66 109 160 124 97 120 159 121 61 81 81 132 165 175 168 156 164 193 181 126 94 83 72 62 56 85 118 97 111 114 109 147 162 121 126 118 86 71 87 111 102 104 108 116 144 160 153 151 168 169 120 78 112 127 78 90 122 163 165 148 132 154 206 174 147 130 110 88 89 25 4 0 0 0 0 0 0 0 0 0 0 0 0 0 0 0 0 0 0 0 0 0 0 0 0 0 0 0 0 0 0 0 0 0 0 0 0 0 0 
0 0 0 0 0 0 0 0 0 0 0 0 6 8 7 41 95 113 129 105 117 160 96 118 144 168 142 87 92 83 58 89 145 164 173 183 199 180 155 112 86 61 57 68 91 101 113 120 108 121 158 168 158 166 136 73 66 78 97 101 105 122 147 166 163 148 158 172 146 82 96 134 99 82 93 107 128 147 144 118 165 204 162 130 136 120 97 81 11 5 0 0 0 0 0 0 0 0 0 0 0 0 0 0 0 0 0 0 0 0 0 0 0 0 0 0 0 0 0 0 0 0 0 0 0 0 0 0 
0 0 0 0 0 0 0 0 0 0 0 0 8 8 8 18 62 98 126 110 120 162 128 91 123 172 151 87 119 118 81 35 65 136 168 181 189 189 164 143 117 98 68 71 87 94 117 109 113 133 145 155 156 169 168 111 71 66 76 107 129 144 166 174 190 186 169 164 118 97 118 133 97 57 73 115 121 122 119 90 118 182 169 129 150 94 73 87 16 4 4 0 0 0 0 0 0 0 0 0 0 0 0 0 0 0 0 0 0 0 0 0 0 0 0 0 0 0 0 0 0 0 0 0 0 0 0 0 
0 0 0 0 0 0 0 0 0 0 0 3 9 8 5 16 38 89 121 122 104 141 155 154 193 199 173 139 135 108 70 37 35 70 143 192 175 179 163 159 159 150 126 102 117 136 143 129 134 136 125 138 152 161 166 137 98 94 92 129 151 159 181 197 210 221 200 142 81 120 169 168 98 56 85 143 150 147 115 78 119 191 184 154 168 72 61 61 7 5 9 2 0 0 0 0 0 0 0 0 0 0 0 0 0 0 0 0 0 0 0 0 0 0 0 0 0 0 0 0 0 0 0 0 0 0 0 0 
0 0 0 0 0 0 0 0 0 0 0 3 8 6 2 11 24 77 110 109 90 94 136 147 178 219 233 202 148 95 59 31 29 31 79 163 174 181 190 175 159 168 167 158 160 163 172 156 157 133 119 117 119 136 150 157 149 134 130 158 170 157 168 178 192 198 157 88 78 143 168 149 81 60 101 142 163 151 112 75 143 182 166 169 141 86 78 26 5 0 5 9 0 0 0 0 0 0 0 0 0 0 0 0 0 0 0 0 0 0 0 0 0 0 0 0 0 0 0 0 0 0 0 0 0 0 0 0 
0 0 0 0 0 0 0 0 0 0 0 0 1 1 3 10 22 54 100 95 93 112 104 95 133 174 208 197 184 142 98 47 29 42 43 95 143 177 201 204 186 188 169 162 160 159 169 154 153 151 127 107 122 135 142 157 170 171 160 162 175 175 187 186 171 123 74 49 53 110 162 126 70 89 99 126 146 141 106 92 137 122 158 183 158 120 67 15 6 1 0 9 4 0 0 0 0 0 0 0 0 0 0 0 0 0 0 0 0 0 0 0 0 0 0 0 0 0 0 0 0 0 0 0 0 0 0 0 
0 0 0 0 0 0 0 0 0 0 0 0 0 0 6 16 25 39 95 106 98 140 104 104 122 121 182 207 193 170 158 119 107 153 100 59 60 119 181 192 191 175 164 175 168 166 173 164 169 168 121 109 133 147 155 175 175 180 174 187 195 193 194 158 108 63 50 48 47 69 158 140 115 98 98 105 111 116 154 167 149 109 143 182 100 99 45 19 8 5 0 2 2 0 0 0 0 0 0 0 0 0 0 0 0 0 0 0 0 0 0 0 0 0 0 0 0 0 0 0 0 0 0 0 0 0 0 0 
0 0 0 0 0 0 0 0 0 0 0 0 0 0 11 22 25 22 62 84 88 125 109 117 138 128 167 188 173 163 167 181 183 85 47 97 57 50 95 150 171 181 178 186 193 183 187 176 161 156 143 128 134 161 179 194 187 182 193 200 196 176 154 94 54 51 48 46 44 64 107 174 166 116 105 102 80 97 135 123 120 113 167 156 64 69 29 30 17 9 0 0 0 0 0 0 0 0 0 0 0 0 0 0 0 0 0 0 0 0 0 0 0 0 0 0 0 0 0 0 0 0 0 0 0 0 0 0 
0 0 0 0 0 0 0 0 0 0 0 0 0 0 15 21 17 4 37 67 70 106 108 99 127 152 151 144 145 137 147 176 182 122 117 131 122 61 49 92 97 129 152 152 153 162 162 143 144 167 174 177 161 157 172 168 163 169 165 133 118 89 76 79 54 48 45 45 55 89 104 154 192 135 104 79 60 86 117 128 169 175 186 109 71 37 15 30 23 15 3 0 0 0 0 0 0 0 0 0 0 0 0 0 0 0 0 0 0 0 0 0 0 0 0 0 0 0 0 0 0 0 0 0 0 0 0 0 
0 0 0 0 0 0 0 0 0 0 0 0 0 0 13 17 10 4 17 79 70 83 102 91 95 139 133 100 87 112 140 178 191 163 90 89 97 65 47 52 59 50 63 63 74 121 133 131 125 141 164 167 162 153 143 143 134 135 135 99 73 60 92 96 66 48 51 66 87 115 98 121 183 156 97 57 70 105 158 128 160 184 149 83 82 17 7 26 24 20 2 0 0 0 0 0 0 0 0 0 0 0 0 0 0 0 0 0 0 0 0 0 0 0 0 0 0 0 0 0 0 0 0 0 0 0 0 0 
0 0 0 0 0 0 0 0 0 0 0 0 0 0 3 8 6 3 4 55 57 51 91 101 111 113 108 93 58 73 131 186 187 160 103 92 74 65 51 46 70 46 51 49 64 146 160 135 134 149 165 185 181 178 182 183 181 154 148 134 120 93 74 88 98 86 93 99 116 130 108 121 163 157 83 66 97 145 180 157 102 94 52 64 81 12 5 17 23 23 7 0 0 0 0 0 0 0 0 0 0 0 0 0 0 0 0 0 0 0 0 0 0 0 0 0 0 0 0 0 0 0 0 0 0 0 0 0 
0 0 0 0 0 0 0 0 0 0 0 0 0 0 0 0 7 3 1 33 47 33 54 95 105 104 96 103 68 75 104 177 188 143 103 94 96 92 91 85 100 109 122 132 144 165 141 135 145 132 130 138 138 144 165 181 161 138 125 120 123 135 114 101 117 148 148 151 145 140 111 119 139 140 115 84 111 140 174 156 87 49 22 35 75 22 6 12 18 22 9 0 0 0 0 0 0 0 0 0 0 0 0 0 0 0 0 0 0 0 0 0 0 0 0 0 0 0 0 0 0 0 0 0 0 0 0 0 
0 0 0 0 0 0 0 0 0 0 0 10 8 0 0 2 7 4 2 23 68 68 45 54 116 123 111 107 110 96 85 138 131 123 109 113 110 101 98 102 106 114 122 166 187 180 138 120 118 97 112 133 138 151 152 156 145 143 129 122 132 146 145 122 141 188 204 180 153 119 54 87 150 133 143 122 115 126 114 97 50 28 60 87 77 23 12 9 18 20 9 0 0 0 0 0 0 0 0 0 0 0 0 0 0 0 0 0 0 0 0 0 0 0 0 0 0 0 0 0 0 0 0 0 0 0 0 0 
0 0 0 0 0 0 0 0 0 0 0 6 10 8 17 22 21 16 13 18 81 75 39 48 112 144 119 104 135 147 102 127 111 94 72 79 101 112 115 111 114 119 111 132 185 182 155 137 121 123 145 138 128 129 134 132 135 149 154 127 124 138 164 176 175 204 204 152 141 154 87 96 117 99 159 152 142 142 82 49 26 21 43 89 57 22 15 16 27 23 11 0 0 0 0 0 0 0 0 0 0 0 0 0 0 0 0 0 0 0 0 0 0 0 0 0 0 0 0 0 0 0 0 0 0 0 0 0 
0 0 0 0 0 0 0 0 0 0 0 2 10 10 14 21 19 18 19 15 44 81 64 81 93 90 118 113 134 159 143 104 113 93 50 45 52 65 74 85 101 110 114 124 145 169 170 153 141 152 131 163 185 150 125 115 118 123 154 146 120 127 162 173 161 180 190 142 125 185 114 77 86 109 152 145 144 124 59 40 30 23 21 60 25 18 16 13 19 18 1 0 0 0 0 0 0 0 0 0 0 0 0 0 0 0 0 0 0 0 0 0 0 0 0 0 0 0 0 0 0 0 0 0 0 0 0 0 
0 0 0 0 0 0 0 0 0 0 0 3 10 8 5 6 15 14 18 19 18 57 93 93 96 91 87 92 126 154 174 160 92 60 53 52 56 63 71 88 128 134 97 101 90 119 153 135 108 91 119 148 129 161 125 75 65 75 109 95 105 138 120 164 153 173 206 134 113 139 176 158 161 168 140 104 84 66 47 80 76 69 83 40 16 7 10 12 11 9 4 2 8 9 2 0 0 0 0 0 0 0 0 0 0 0 0 0 0 0 0 0 0 0 0 0 0 0 0 0 0 0 0 0 0 0 0 0 
0 0 0 0 0 0 0 0 0 0 0 0 7 7 0 0 11 14 13 19 15 17 66 95 96 91 83 68 101 136 163 182 160 135 108 104 117 143 196 240 210 83 121 126 115 102 150 137 105 93 122 107 119 143 143 108 70 74 79 90 128 116 151 180 164 178 215 128 111 131 163 204 180 138 102 85 68 74 42 51 101 115 65 10 3 0 3 5 1 1 6 6 7 9 0 0 0 0 0 0 0 0 0 0 0 0 0 0 0 0 0 0 0 0 0 0 0 0 0 0 0 0 0 0 0 0 0 0 
0 0 0 0 0 0 0 0 0 0 0 0 3 7 2 0 0 10 12 8 11 3 20 77 84 54 45 56 73 101 91 126 161 167 162 136 113 132 146 118 150 125 138 189 211 148 179 184 158 138 135 136 131 112 117 132 135 150 151 147 135 141 177 197 198 120 206 154 137 116 123 108 69 59 65 61 55 29 2 16 35 41 30 22 4 0 0 2 1 0 0 1 5 2 0 0 0 0 0 0 0 0 0 0 0 0 0 0 0 0 0 0 0 0 0 0 0 0 0 0 0 0 0 0 0 0 0 0 
0 0 0 0 0 0 0 0 0 0 0 0 0 1 2 0 0 0 5 4 11 8 15 24 40 40 23 6 24 55 56 70 116 129 117 121 137 150 139 136 137 125 140 190 131 121 157 225 191 140 123 157 163 142 138 118 97 110 136 201 217 202 181 137 148 153 192 199 149 126 102 71 67 101 111 79 68 25 1 10 30 38 33 15 9 0 0 0 0 0 0 2 5 0 0 0 0 0 0 0 0 0 0 0 0 0 0 0 0 0 0 0 0 0 0 0 0 0 0 0 0 0 0 0 0 0 0 0 
0 0 0 0 0 0 0 0 0 0 0 0 0 0 0 0 0 0 1 10 11 14 20 20 23 22 21 22 35 58 42 33 43 46 45 63 85 117 123 98 83 76 71 70 72 84 116 155 163 117 81 106 117 96 88 113 87 61 133 160 122 103 90 104 93 119 102 85 91 76 54 53 52 76 51 28 57 48 22 21 24 25 25 12 10 0 0 0 0 0 0 8 5 0 0 0 0 0 0 0 0 0 0 0 0 0 0 0 0 0 0 0 0 0 0 0 0 0 0 0 0 0 0 0 0 0 0 0 
0 0 0 0 0 0 0 0 0 0 0 0 0 0 0 0 0 0 0 1 12 14 9 15 20 20 19 18 34 58 36 58 39 48 61 64 60 62 103 130 140 116 84 78 83 90 94 122 141 85 49 101 123 88 95 146 112 71 111 111 79 87 87 77 79 133 97 101 142 119 73 51 40 60 47 26 61 41 19 23 22 23 18 11 7 0 0 0 0 0 0 4 0 0 0 0 0 0 0 0 0 0 0 0 0 0 0 0 0 0 0 0 0 0 0 0 0 0 0 0 0 0 0 0 0 0 0 0 
0 0 0 0 0 0 0 0 0 0 0 0 0 0 0 0 0 0 0 0 10 15 12 9 19 23 23 19 33 77 40 57 48 52 47 36 24 90 206 113 50 189 101 94 85 82 97 125 160 85 57 118 130 97 107 144 143 103 135 131 93 87 82 61 65 165 150 52 119 153 217 232 186 134 94 61 77 50 38 36 30 18 4 2 0 0 0 0 0 0 0 0 0 0 0 0 0 0 0 0 0 0 0 0 0 0 0 0 0 0 0 0 0 0 0 0 0 0 0 0 0 0 0 0 0 0 0 0 
0 0 0 0 0 0 0 0 0 0 0 0 0 0 0 0 0 0 0 0 1 12 4 0 6 16 24 19 34 81 49 59 55 95 157 221 207 175 169 135 76 113 218 146 97 157 133 164 161 105 104 139 148 115 115 142 124 76 85 114 123 122 96 68 98 187 91 120 69 46 73 232 231 224 197 149 124 89 67 51 43 12 0 0 0 0 0 0 0 0 0 0 0 0 0 0 0 0 0 0 0 0 0 0 0 0 0 0 0 0 0 0 0 0 0 0 0 0 0 0 0 0 0 0 0 0 0 0 
0 0 0 0 0 0 0 0 0 0 0 0 0 0 0 0 0 0 0 0 0 0 0 0 4 22 19 5 11 39 30 60 105 152 197 242 240 69 145 121 150 159 190 93 97 167 168 147 159 192 163 158 155 138 158 175 163 109 90 127 143 130 127 139 117 187 167 141 69 97 50 158 197 188 142 98 96 45 41 56 52 11 2 2 0 0 0 0 0 0 0 0 0 0 0 0 0 0 0 0 0 0 0 0 0 0 0 0 0 0 0 0 0 0 0 0 0 0 0 0 0 0 0 0 0 0 0 0 
0 0 0 0 0 0 0 0 0 0 0 0 0 0 0 0 0 0 0 0 0 0 4 0 1 10 21 15 17 45 50 45 57 37 41 92 197 234 145 126 186 208 162 104 127 156 167 196 198 173 161 175 174 154 148 165 166 144 152 182 193 184 183 214 137 172 128 71 63 98 134 84 39 25 54 66 98 60 53 56 32 0 8 3 0 0 0 0 0 0 0 0 0 0 0 0 0 0 0 0 0 0 0 0 0 0 0 0 0 0 0 0 0 0 0 0 0 0 0 0 0 0 0 0 0 0 0 0 
0 0 0 0 0 0 0 0 0 0 0 0 0 0 0 0 0 0 0 0 0 0 10 11 5 6 24 22 20 39 76 54 67 33 19 21 32 172 183 226 229 235 199 127 92 150 172 154 103 101 95 88 101 106 79 91 113 130 134 132 114 112 129 137 137 141 127 121 50 35 33 31 29 37 53 50 76 35 23 13 10 8 14 4 0 0 0 0 0 0 0 0 0 0 0 0 0 0 0 0 0 0 0 0 0 0 0 0 0 0 0 0 0 0 0 0 0 0 0 0 0 0 0 0 0 0 0 0 
0 0 0 0 0 0 0 0 0 0 0 0 0 0 0 0 0 0 0 0 0 0 6 12 11 8 21 22 21 28 74 72 82 48 28 43 59 57 98 174 164 127 128 115 108 152 140 116 104 82 65 56 52 73 93 93 88 121 137 124 96 96 108 92 93 139 180 194 154 116 74 46 36 39 65 68 77 29 22 22 16 10 12 3 0 0 0 0 0 0 0 0 0 0 0 0 0 0 0 0 0 0 0 0 0 0 0 0 0 0 0 0 0 0 0 0 0 0 0 0 0 0 0 0 0 0 0 0 
0 0 0 0 0 0 0 0 0 0 0 0 0 0 0 0 0 0 0 0 0 0 5 12 14 8 18 23 22 24 66 69 86 59 50 119 153 142 119 114 87 72 100 119 90 126 115 99 106 106 86 67 76 98 99 82 83 87 103 115 109 131 135 114 73 100 137 169 183 160 146 126 105 74 73 75 80 33 23 21 14 10 11 0 0 0 0 0 0 0 0 0 0 0 0 0 0 0 0 0 0 0 0 0 0 0 0 0 0 0 0 0 0 0 0 0 0 0 0 0 0 0 0 0 0 0 0 0 
0 0 0 0 0 0 0 0 0 0 0 0 0 0 0 0 0 0 0 0 0 0 0 10 13 11 13 22 23 24 60 69 74 61 78 172 138 91 51 54 65 58 80 130 88 119 118 107 122 112 111 106 98 85 69 63 56 60 83 132 151 129 126 115 70 98 148 134 183 178 139 130 166 157 92 75 70 34 23 17 11 13 9 0 0 0 0 0 0 0 0 0 0 0 0 0 0 0 0 0 0 0 0 0 0 0 0 0 0 0 0 0 0 0 0 0 0 0 0 0 0 0 0 0 0 0 0 0 
0 0 0 0 0 0 0 0 0 0 0 0 0 0 0 0 0 0 0 0 0 0 0 0 11 13 10 19 23 23 59 60 76 57 88 178 106 44 32 41 46 46 87 163 117 115 118 130 153 112 123 132 97 65 56 57 48 62 106 162 154 103 120 120 105 111 169 111 110 165 142 111 134 189 115 73 65 49 25 16 8 14 5 0 0 0 0 0 0 0 0 0 0 0 0 0 0 0 0 0 0 0 0 0 0 0 0 0 0 0 0 0 0 0 0 0 0 0 0 0 0 0 0 0 0 0 0 0 
0 0 0 0 0 0 0 0 0 0 0 0 0 0 0 0 0 0 0 0 0 0 0 0 5 9 12 16 22 24 54 40 71 39 79 175 91 36 37 38 40 52 121 138 76 69 91 97 134 130 129 137 115 86 72 71 79 102 136 164 137 98 105 109 124 98 143 117 61 82 88 64 85 184 118 75 77 59 24 13 10 10 3 0 0 0 0 0 0 0 0 0 0 0 0 0 0 0 0 0 0 0 0 0 0 0 0 0 0 0 0 0 0 0 0 0 0 0 0 0 0 0 0 0 0 0 0 0 
0 0 0 0 0 0 0 0 0 0 0 0 0 0 0 0 0 0 0 0 0 0 0 0 4 10 9 16 16 22 42 61 68 25 60 162 98 40 42 44 45 74 109 77 52 66 94 85 77 97 129 131 129 116 101 104 118 143 149 151 143 105 92 96 81 74 87 120 83 60 59 55 78 173 106 38 62 32 20 13 14 9 1 0 0 0 0 0 0 0 0 0 0 0 0 0 0 0 0 0 0 0 0 0 0 0 0 0 0 0 0 0 0 0 0 0 0 0 0 0 0 0 0 0 0 0 0 0 
0 0 0 0 0 0 0 0 0 0 0 0 0 0 0 0 0 0 0 0 0 0 0 0 0 9 3 9 15 15 19 40 31 15 43 148 105 45 40 44 49 64 54 54 53 68 105 82 58 76 135 143 142 147 150 159 164 161 158 156 141 97 84 87 73 53 56 68 80 58 46 44 89 179 94 18 17 20 17 14 13 5 0 0 0 0 0 0 0 0 0 0 0 0 0 0 0 0 0 0 0 0 0 0 0 0 0 0 0 0 0 0 0 0 0 0 0 0 0 0 0 0 0 0 0 0 0 0 
0 0 0 0 0 0 0 0 0 0 0 0 0 0 0 0 0 0 0 0 0 0 0 0 0 0 10 2 12 12 17 19 13 10 16 127 125 58 33 43 53 58 45 55 53 59 100 93 67 75 92 113 124 131 133 158 186 162 122 110 111 72 82 88 68 48 43 43 74 66 42 48 98 184 74 14 19 20 17 12 7 2 0 0 0 0 0 0 0 0 0 0 0 0 0 0 0 0 0 0 0 0 0 0 0 0 0 0 0 0 0 0 0 0 0 0 0 0 0 0 0 0 0 0 0 0 0 0 
0 0 0 0 0 0 0 0 0 0 0 0 0 0 0 0 0 0 0 0 0 0 0 0 0 0 7 4 8 15 14 21 18 11 8 67 164 119 57 60 84 64 46 55 58 59 85 104 92 82 83 95 104 108 128 146 177 159 101 89 129 100 81 94 71 48 41 32 70 84 80 88 153 168 39 15 18 19 18 10 2 1 0 0 0 0 0 0 0 0 0 0 0 0 0 0 0 0 0 0 0 0 0 0 0 0 0 0 0 0 0 0 0 0 0 0 0 0 0 0 0 0 0 0 0 0 0 0 
0 0 0 0 0 0 0 0 0 0 0 0 0 0 0 0 0 0 0 0 0 0 0 0 0 0 4 10 3 10 13 16 17 11 9 21 103 180 162 148 100 48 44 52 57 58 85 108 100 75 80 94 107 115 136 155 157 142 117 91 100 108 84 101 84 70 46 38 55 88 157 188 186 76 20 10 13 20 15 7 1 1 0 0 0 0 0 0 0 0 0 0 0 0 0 0 0 0 0 0 0 0 0 0 0 0 0 0 0 0 0 0 0 0 0 0 0 0 0 0 0 0 0 0 0 0 0 0 
0 0 0 0 0 0 0 0 0 0 0 0 0 0 0 0 0 0 0 0 0 0 0 0 0 0 0 11 3 3 9 12 13 11 9 7 8 76 153 155 79 34 37 45 49 59 86 117 102 84 66 82 107 120 127 136 129 125 125 112 100 87 88 107 90 67 65 41 37 62 138 144 66 34 23 7 11 21 12 3 1 1 0 0 0 0 0 0 0 0 0 0 0 0 0 0 0 0 0 0 0 0 0 0 0 0 0 0 0 0 0 0 0 0 0 0 0 0 0 0 0 0 0 0 0 0 0 0 
0 0 0 0 0 0 0 0 0 0 0 0 0 0 0 0 0 0 0 0 0 0 0 0 0 0 0 2 12 3 4 12 14 21 9 5 8 22 27 43 33 31 34 37 42 57 97 125 106 82 64 76 106 127 135 140 135 135 133 135 119 74 85 115 100 81 72 42 33 35 28 28 34 38 19 9 15 17 10 4 2 2 0 0 0 0 0 0 0 0 0 0 0 0 0 0 0 0 0 0 0 0 0 0 0 0 0 0 0 0 0 0 0 0 0 0 0 0 0 0 0 0 0 0 0 0 0 0 
0 0 0 0 0 0 0 0 0 0 0 0 0 0 0 0 0 0 0 0 0 0 0 0 0 0 0 0 3 8 3 9 13 20 12 5 8 21 26 34 35 31 34 36 37 50 90 123 117 94 91 105 138 139 137 145 150 149 146 155 142 78 103 121 97 71 81 37 33 32 24 26 37 30 16 12 17 13 11 5 1 3 0 0 0 0 0 0 0 0 0 0 0 0 0 0 0 0 0 0 0 0 0 0 0 0 0 0 0 0 0 0 0 0 0 0 0 0 0 0 0 0 0 0 0 0 0 0 
0 0 0 0 0 0 0 0 0 0 0 0 0 0 0 0 0 0 0 0 0 0 0 0 0 0 0 0 0 6 4 6 14 16 14 4 6 20 27 34 34 28 30 33 35 55 83 122 130 127 134 140 154 150 142 140 142 148 157 165 147 115 120 122 85 40 29 26 27 30 22 27 36 23 17 16 18 20 16 8 2 1 0 0 0 0 0 0 0 0 0 0 0 0 0 0 0 0 0 0 0 0 0 0 0 0 0 0 0 0 0 0 0 0 0 0 0 0 0 0 0 0 0 0 0 0 0 0 
0 0 0 0 0 0 0 0 0 0 0 0 0 0 0 0 0 0 0 0 0 0 0 0 0 0 0 0 0 1 8 3 15 15 18 10 4 18 28 38 30 28 30 35 45 56 65 92 126 134 139 140 141 142 125 106 111 124 149 169 173 135 122 101 49 29 26 27 30 28 21 21 34 20 17 15 19 21 20 12 2 2 0 0 0 0 0 0 0 0 0 0 0 0 0 0 0 0 0 0 0 0 0 0 0 0 0 0 0 0 0 0 0 0 0 0 0 0 0 0 0 0 0 0 0 0 0 0 
