P2
128 99
253
0 0 0 0 0 0 0 0 0 0 0 0 0 0 0 0 0 0 0 0 0 0 0 0 0 0 0 0 0 0 0 0 0 0 0 0 0 0 0 0 0 0 0 0 0 0 0 0 0 0 0 0 0 0 0 0 0 0 0 0 0 0 0 0 0 0 0 0 0 0 0 0 0 0 0 0 0 0 0 0 0 0 0 0 0 0 0 0 0 0 0 0 0 0 0 0 0 0 0 0 0 0 0 0 0 0 0 0 0 0 0 0 0 0 0 0 0 0 0 0 0 0 0 0 0 0 0 0 
0 0 0 0 0 0 0 0 0 0 0 0 0 0 0 0 0 0 0 0 0 0 0 0 0 0 0 0 0 0 0 0 0 0 0 0 0 0 0 0 0 0 0 0 0 0 0 0 0 0 0 0 0 0 0 0 0 0 0 0 0 0 0 0 0 0 0 0 0 0 0 0 0 0 0 0 0 0 0 0 0 0 0 0 0 0 0 0 0 0 0 0 0 0 0 0 0 0 0 0 0 0 0 0 0 0 0 0 0 0 0 0 0 0 0 0 0 0 0 0 0 0 0 0 0 0 0 0 
0 0 0 0 0 0 0 0 0 0 0 0 0 0 0 0 0 0 0 0 0 0 0 0 0 0 0 0 0 0 0 0 0 0 0 0 0 0 0 0 0 0 0 0 0 0 0 0 0 0 0 1 1 3 0 0 0 0 0 0 0 0 0 0 0 0 0 0 0 0 0 0 0 0 0 0 0 0 0 0 0 0 0 0 0 0 0 0 0 0 0 0 0 0 0 0 0 0 0 0 0 0 0 0 0 0 0 0 0 0 0 0 0 0 0 0 0 0 0 0 0 0 0 0 0 0 0 0 
0 0 0 0 0 0 0 0 0 0 0 0 0 0 0 0 0 0 0 0 0 0 0 0 0 0 0 0 0 0 0 0 0 0 0 0 0 0 0 0 0 0 0 0 3 8 18 20 19 27 34 35 38 38 36 29 20 19 12 7 2 0 0 0 0 0 0 0 0 0 0 0 0 0 0 0 0 0 0 0 0 0 0 0 0 0 0 0 0 0 0 0 0 0 0 0 0 0 0 0 0 0 0 0 0 0 0 0 0 0 0 0 0 0 0 0 0 0 0 0 0 0 0 0 0 0 0 0 
0 0 0 0 0 0 0 0 0 0 0 0 0 0 0 0 0 0 0 0 0 0 0 0 0 0 0 0 0 0 0 0 0 0 0 0 0 0 0 0 6 10 13 22 27 37 48 64 83 102 120 132 139 146 148 143 125 99 72 49 29 22 14 8 0 0 0 0 0 0 0 0 0 0 0 0 0 0 0 0 0 0 0 0 0 0 0 0 0 0 0 0 0 0 0 0 0 0 0 0 0 0 0 0 0 0 0 0 0 0 0 0 0 0 0 0 0 0 0 0 0 0 0 0 0 0 0 0 
0 0 0 0 0 0 0 0 0 0 0 0 0 0 0 0 0 0 0 0 0 0 0 0 0 0 0 0 0 0 0 0 0 0 0 0 0 0 9 10 19 26 39 58 91 122 151 179 203 217 213 202 193 185 186 192 199 208 208 198 164 115 71 42 22 12 9 1 0 0 0 0 0 0 0 0 0 0 0 0 0 0 0 0 0 0 0 0 0 0 0 0 0 0 0 0 0 0 0 0 0 0 0 0 0 0 0 0 0 0 0 0 0 0 0 0 0 0 0 0 0 0 0 0 0 0 0 0 
0 0 0 0 0 0 0 0 0 0 0 0 0 0 0 0 0 0 0 0 0 0 0 0 0 0 0 0 0 0 0 0 0 0 0 0 8 14 22 28 53 88 122 153 187 215 211 184 156 138 131 128 130 129 130 127 127 129 136 152 173 199 208 170 116 65 40 17 10 0 0 0 0 0 0 0 0 0 0 0 0 0 0 0 0 0 0 0 0 0 0 0 0 0 0 0 0 0 0 0 0 0 0 0 0 0 0 0 0 0 0 0 0 0 0 0 0 0 0 0 0 0 0 0 0 0 0 0 
0 0 0 0 0 0 0 0 0 0 0 0 0 0 0 0 0 0 0 0 0 0 0 0 0 0 0 0 0 0 0 0 0 0 7 17 20 31 61 104 136 169 206 213 183 156 150 143 133 135 144 155 154 142 140 151 154 147 143 133 126 129 145 170 206 204 154 84 41 25 9 1 0 0 0 0 0 0 0 0 0 0 0 0 0 0 0 0 0 0 0 0 0 0 0 0 0 0 0 0 0 0 0 0 0 0 0 0 0 0 0 0 0 0 0 0 0 0 0 0 0 0 0 0 0 0 0 0 
0 0 0 0 0 0 0 0 0 0 0 0 0 0 0 0 0 0 0 0 0 0 0 0 0 0 0 0 0 0 0 0 5 22 19 26 58 107 139 169 204 195 167 149 147 138 125 130 139 138 144 146 147 143 140 145 152 169 173 166 156 145 131 122 127 152 195 211 164 84 35 22 7 0 0 0 0 0 0 0 0 0 0 0 0 0 0 0 0 0 0 0 0 0 0 0 0 0 0 0 0 0 0 0 0 0 0 0 0 0 0 0 0 0 0 0 0 0 0 0 0 0 0 0 0 0 0 0 
0 0 0 0 0 0 0 0 0 0 0 0 0 0 0 0 0 0 0 0 0 0 0 0 0 0 0 0 0 0 1 24 18 19 43 98 134 160 201 190 157 141 141 137 124 125 143 144 138 136 132 133 134 129 125 123 130 135 148 171 182 181 174 157 136 121 123 144 190 207 147 62 29 14 2 0 0 0 0 0 0 0 0 0 0 0 0 0 0 0 0 0 0 0 0 0 0 0 0 0 0 0 0 0 0 0 0 0 0 0 0 0 0 0 0 0 0 0 0 0 0 0 0 0 0 0 0 0 
0 0 0 0 0 0 0 0 0 0 0 0 0 0 0 0 0 0 0 0 0 0 0 0 0 0 0 0 0 10 23 16 37 79 124 149 196 199 157 138 139 136 137 144 141 136 114 88 87 118 136 138 137 138 132 126 114 97 93 109 142 172 184 188 183 171 146 127 121 146 199 191 106 36 20 4 0 0 0 0 0 0 0 0 0 0 0 0 0 0 0 0 0 0 0 0 0 0 0 0 0 0 0 0 0 0 0 0 0 0 0 0 0 0 0 0 0 0 0 0 0 0 0 0 0 0 0 0 
0 0 0 0 0 0 0 0 0 0 0 0 0 0 0 0 0 0 0 0 0 0 0 0 0 0 0 0 21 21 19 55 110 139 175 206 166 139 143 146 146 157 152 133 120 100 88 91 95 105 102 103 101 96 106 101 97 92 88 90 98 129 152 170 181 185 187 174 153 128 123 162 207 153 58 23 11 0 0 0 0 0 0 0 0 0 0 0 0 0 0 0 0 0 0 0 0 0 0 0 0 0 0 0 0 0 0 0 0 0 0 0 0 0 0 0 0 0 0 0 0 0 0 0 0 0 0 0 
0 0 0 0 0 0 0 0 0 0 0 0 0 0 0 0 0 0 0 0 0 0 0 0 0 0 7 24 21 17 76 127 151 200 185 144 139 155 159 164 157 136 122 119 101 96 99 99 101 101 64 56 56 57 86 103 102 102 102 100 97 109 137 149 157 171 181 186 185 174 148 122 137 199 174 74 22 13 0 0 0 0 0 0 0 0 0 0 0 0 0 0 0 0 0 0 0 0 0 0 0 0 0 0 0 0 0 0 0 0 0 0 0 0 0 0 0 0 0 0 0 0 0 0 0 0 0 0 
0 0 0 0 0 0 0 0 0 0 0 0 0 0 0 0 0 0 0 0 0 0 0 0 0 13 21 18 27 96 133 168 211 162 138 148 170 166 159 144 131 127 112 96 96 98 96 95 79 64 49 52 53 51 56 90 100 98 100 96 96 102 109 133 147 153 160 173 179 188 183 162 131 128 190 181 86 25 13 0 0 0 0 0 0 0 0 0 0 0 0 0 0 0 0 0 0 0 0 0 0 0 0 0 0 0 0 0 0 0 0 0 0 0 0 0 0 0 0 0 0 0 0 0 0 0 0 0 
0 0 0 0 0 0 0 0 0 0 0 0 0 0 0 0 0 0 0 0 0 0 0 0 16 19 14 42 109 133 181 201 151 143 164 175 164 152 139 128 120 101 99 106 105 108 90 64 55 56 57 62 66 74 90 108 128 131 121 116 107 98 98 102 118 137 148 150 153 171 183 184 171 140 125 179 182 97 28 13 0 0 0 0 0 0 0 0 0 0 0 0 0 0 0 0 0 0 0 0 0 0 0 0 0 0 0 0 0 0 0 0 0 0 0 0 0 0 0 0 0 0 0 0 0 0 0 0 
0 0 0 0 0 0 0 0 0 0 0 0 0 0 0 0 0 0 0 0 0 0 7 19 18 14 53 118 138 199 191 143 150 161 166 157 146 133 128 110 101 120 149 160 163 151 132 121 122 123 124 120 135 152 160 162 158 160 163 157 142 126 108 102 97 96 119 137 143 146 155 175 183 169 147 124 180 178 103 36 13 0 0 0 0 0 0 0 0 0 0 0 0 0 0 0 0 0 0 0 0 0 0 0 0 0 0 0 0 0 0 0 0 0 0 0 0 0 0 0 0 0 0 0 0 0 0 0 
0 0 0 0 0 0 0 0 0 0 0 0 0 0 0 0 0 0 0 0 0 9 13 16 22 66 124 141 207 184 142 150 152 160 151 137 123 105 100 118 145 172 175 176 165 154 154 155 161 164 164 167 171 169 169 169 164 158 156 151 140 123 118 113 118 103 87 98 123 137 141 144 164 176 166 150 134 184 168 106 37 9 0 0 0 0 0 0 0 0 0 0 0 0 0 0 0 0 0 0 0 0 0 0 0 0 0 0 0 0 0 0 0 0 0 0 0 0 0 0 0 0 0 0 0 0 0 0 
0 0 0 0 0 0 0 0 0 0 0 0 0 0 0 0 0 0 0 0 9 9 13 23 78 126 140 193 178 142 149 146 159 150 129 108 108 122 137 155 164 155 145 146 156 165 176 185 199 209 214 212 211 211 212 215 213 208 207 201 195 181 157 129 119 125 119 90 83 109 125 130 136 160 171 158 149 136 182 160 107 33 7 0 0 0 0 0 0 0 0 0 0 0 0 0 0 0 0 0 0 0 0 0 0 0 0 0 0 0 0 0 0 0 0 0 0 0 0 0 0 0 0 0 0 0 0 0 
0 0 0 0 0 0 0 0 0 0 0 0 0 0 0 0 0 0 0 8 10 11 22 80 122 140 183 179 138 135 136 152 139 108 99 121 137 141 138 138 136 145 170 193 204 205 207 204 205 208 211 199 194 197 196 198 198 198 194 199 201 206 206 196 167 125 122 135 110 87 94 119 124 126 150 164 155 147 142 192 151 98 23 3 0 0 0 0 0 0 0 0 0 0 0 0 0 0 0 0 0 0 0 0 0 0 0 0 0 0 0 0 0 0 0 0 0 0 0 0 0 0 0 0 0 0 0 0 
0 0 0 0 0 0 0 0 0 0 0 0 0 0 0 0 0 0 7 11 13 20 74 118 143 173 192 141 128 132 152 131 97 109 134 138 121 120 119 131 173 200 208 208 207 201 197 193 189 188 188 187 183 189 189 190 190 188 183 182 184 189 189 201 206 184 141 122 133 116 83 84 113 123 122 151 167 155 144 172 193 135 81 15 0 0 0 0 0 0 0 0 0 0 0 0 0 0 0 0 0 0 0 0 0 0 0 0 0 0 0 0 0 0 0 0 0 0 0 0 0 0 0 0 0 0 0 0 
0 0 0 0 0 0 0 0 0 0 0 0 0 0 0 0 0 5 13 14 20 63 104 144 159 199 155 133 130 150 128 100 121 139 124 103 109 115 142 189 202 202 201 198 198 195 195 194 192 178 185 191 196 187 178 179 189 194 188 188 189 189 187 187 197 206 190 136 112 123 113 80 77 108 122 126 152 165 150 146 195 162 124 64 8 0 0 0 0 0 0 0 0 0 0 0 0 0 0 0 0 0 0 0 0 0 0 0 0 0 0 0 0 0 0 0 0 0 0 0 0 0 0 0 0 0 0 0 
0 0 0 0 0 0 0 0 0 0 0 0 0 0 0 0 0 13 9 20 61 93 140 151 189 175 133 128 150 126 111 135 147 125 98 105 116 147 196 212 199 202 203 197 191 183 183 178 180 165 171 184 184 169 152 152 160 167 178 193 203 199 189 183 183 197 207 182 124 106 121 113 76 70 104 122 130 156 159 142 163 204 139 120 50 3 0 0 0 0 0 0 0 0 0 0 0 0 0 0 0 0 0 0 0 0 0 0 0 0 0 0 0 0 0 0 0 0 0 0 0 0 0 0 0 0 0 0 
0 0 0 0 0 0 0 0 0 0 0 0 0 0 0 0 8 9 15 63 89 130 143 167 193 141 121 142 123 113 143 141 111 91 108 120 142 193 209 210 210 202 194 184 178 172 168 163 144 141 153 158 155 168 158 148 139 138 139 168 187 189 196 191 188 189 199 206 164 112 109 118 100 74 77 106 120 132 152 147 144 200 171 127 104 34 3 0 0 0 0 0 0 0 0 0 0 0 0 0 0 0 0 0 0 0 0 0 0 0 0 0 0 0 0 0 0 0 0 0 0 0 0 0 0 0 0 0 
0 0 0 0 0 0 0 0 0 0 0 0 0 0 0 5 12 10 66 97 116 147 148 199 157 112 128 119 111 142 134 95 87 104 120 134 183 212 210 208 170 118 101 98 105 102 104 104 118 146 167 127 113 159 141 132 127 129 129 131 135 146 160 177 189 194 195 205 197 148 112 110 113 93 72 84 105 116 141 144 142 169 199 128 116 92 11 0 0 0 0 0 0 0 0 0 0 0 0 0 0 0 0 0 0 0 0 0 0 0 0 0 0 0 0 0 0 0 0 0 0 0 0 0 0 0 0 0 
0 0 0 0 0 0 0 0 0 0 0 0 0 0 0 13 11 44 113 87 139 135 171 191 110 108 121 111 138 140 97 83 98 120 125 163 202 211 203 173 106 70 72 76 70 63 67 83 110 124 159 120 84 129 93 79 71 68 84 97 93 90 120 161 193 198 195 198 205 180 128 109 115 111 85 82 88 97 125 143 131 151 199 146 119 106 49 3 0 0 0 0 0 0 0 0 0 0 0 0 0 0 0 0 0 0 0 0 0 0 0 0 0 0 0 0 0 0 0 0 0 0 0 0 0 0 0 0 
0 0 0 0 0 0 0 0 0 0 0 0 0 0 7 10 17 112 81 125 140 139 192 136 94 103 106 128 144 118 86 100 121 127 153 199 206 191 164 122 87 72 67 60 55 59 66 69 69 78 142 115 65 80 61 58 56 60 59 57 60 62 68 87 132 184 199 195 203 205 165 126 116 118 101 82 83 86 103 132 120 125 187 182 124 107 90 9 0 0 0 0 0 0 0 0 0 0 0 0 0 0 0 0 0 0 0 0 0 0 0 0 0 0 0 0 0 0 0 0 0 0 0 0 0 0 0 0 
0 0 0 0 0 0 0 0 0 0 0 0 0 0 12 6 71 105 90 145 136 172 170 109 91 93 110 141 132 99 100 125 129 138 190 202 178 160 138 97 77 65 56 52 53 54 59 56 54 59 89 83 57 57 54 54 56 56 56 55 54 56 57 60 78 131 186 196 195 212 203 152 120 110 109 102 87 85 88 112 106 110 158 201 135 115 103 27 2 0 0 0 0 0 0 0 0 0 0 0 0 0 0 0 0 0 0 0 0 0 0 0 0 0 0 0 0 0 0 0 0 0 0 0 0 0 0 0 
0 0 0 0 0 0 0 0 0 0 0 0 0 2 8 17 120 70 123 140 145 171 142 99 68 96 131 136 117 103 117 124 140 179 210 162 148 153 119 79 60 53 53 54 51 56 53 53 53 53 55 54 51 52 52 51 51 52 55 55 57 56 56 57 62 98 165 198 197 209 219 189 132 124 112 111 102 85 85 92 93 103 139 203 157 118 97 56 4 0 0 0 0 0 0 0 0 0 0 0 0 0 0 0 0 0 0 0 0 0 0 0 0 0 0 0 0 0 0 0 0 0 0 0 0 0 0 0 
0 0 0 0 0 0 0 0 0 0 0 0 0 5 5 53 114 78 142 139 150 163 119 79 65 120 139 129 113 112 120 134 167 210 174 128 147 136 100 66 55 54 55 55 52 56 53 52 51 54 53 53 50 53 53 53 50 53 52 50 51 55 56 56 57 72 129 187 203 207 215 216 179 135 122 119 121 91 83 89 80 102 137 192 169 127 100 78 5 0 0 0 0 0 0 0 0 0 0 0 0 0 0 0 0 0 0 0 0 0 0 0 0 0 0 0 0 0 0 0 0 0 0 0 0 0 0 0 
0 0 0 0 0 0 0 0 0 0 0 0 0 7 6 98 84 110 142 136 135 149 100 53 88 137 134 124 114 116 132 167 206 192 116 139 150 120 74 59 53 55 52 51 49 51 51 51 51 57 57 58 53 55 57 55 56 53 53 50 52 51 51 53 56 59 97 153 198 207 208 224 217 164 126 125 133 99 82 89 73 89 131 177 170 133 105 92 11 0 0 0 0 0 0 0 0 0 0 0 0 0 0 0 0 0 0 0 0 0 0 0 0 0 0 0 0 0 0 0 0 0 0 0 0 0 0 0 
0 0 0 0 0 0 0 0 0 0 0 0 0 9 19 114 78 132 136 124 123 139 87 48 121 139 126 123 121 128 158 211 218 164 125 138 122 88 64 54 55 51 50 48 47 50 54 57 57 60 56 57 56 54 58 56 55 53 57 55 55 53 51 54 53 55 69 125 174 197 200 207 224 207 151 130 141 111 80 88 75 75 128 178 174 143 112 98 19 0 0 0 0 0 0 0 0 0 0 0 0 0 0 0 0 0 0 0 0 0 0 0 0 0 0 0 0 0 0 0 0 0 0 0 0 0 0 0 
0 0 0 0 0 0 0 0 0 0 0 0 4 7 50 111 90 139 119 111 117 131 66 71 140 138 133 123 124 139 198 224 194 135 119 125 81 58 56 55 50 49 50 50 48 52 57 56 55 57 59 56 56 53 56 55 55 56 55 56 56 57 53 52 51 52 63 115 146 161 184 192 211 223 193 139 144 127 82 83 77 72 127 178 168 150 118 94 23 0 0 0 0 0 0 0 0 0 0 0 0 0 0 0 0 0 0 0 0 0 0 0 0 0 0 0 0 0 0 0 0 0 0 0 0 0 0 0 
0 0 0 0 0 0 0 0 0 0 0 0 7 6 76 101 108 142 114 106 120 117 73 96 140 134 130 121 130 145 216 209 154 113 114 127 68 55 53 50 49 51 54 54 52 52 53 53 55 57 57 54 57 53 56 55 54 55 54 58 60 59 58 52 51 57 83 119 115 119 153 180 188 211 223 171 138 137 92 77 74 72 120 173 167 155 122 96 33 0 0 0 0 0 0 0 0 0 0 0 0 0 0 0 0 0 0 0 0 0 0 0 0 0 0 0 0 0 0 0 0 0 0 0 0 0 0 0 
0 0 0 0 0 0 0 0 0 0 0 0 6 4 90 91 120 137 112 106 121 107 85 115 141 140 124 126 133 153 217 178 114 103 116 130 77 53 50 48 49 53 59 57 55 55 54 52 51 55 56 54 56 52 53 54 57 57 55 58 74 82 73 77 79 80 79 88 95 101 124 160 173 192 221 202 135 137 104 78 76 89 125 165 174 156 123 100 42 3 0 0 0 0 0 0 0 0 0 0 0 0 0 0 0 0 0 0 0 0 0 0 0 0 0 0 0 0 0 0 0 0 0 0 0 0 0 0 
0 0 0 0 0 0 0 0 0 0 0 0 6 6 101 89 131 130 116 115 123 100 107 122 143 142 125 122 134 156 201 145 102 99 107 128 92 56 49 49 50 54 59 61 56 57 56 52 52 54 54 54 56 53 54 54 58 57 58 62 84 106 114 127 109 66 54 70 85 90 104 149 167 179 207 219 150 142 121 84 73 92 120 158 182 153 126 111 51 4 0 0 0 0 0 0 0 0 0 0 0 0 0 0 0 0 0 0 0 0 0 0 0 0 0 0 0 0 0 0 0 0 0 0 0 0 0 0 
0 0 0 0 0 0 0 0 0 0 0 0 6 7 104 89 140 116 110 118 129 97 112 126 148 143 127 118 136 150 175 117 99 101 99 104 91 71 65 62 55 55 60 71 84 72 61 56 55 56 57 54 64 57 54 55 57 58 58 59 81 117 122 85 49 49 65 68 62 62 83 133 165 168 181 218 184 146 134 90 71 98 116 161 191 152 125 120 61 4 0 0 0 0 0 0 0 0 0 0 0 0 0 0 0 0 0 0 0 0 0 0 0 0 0 0 0 0 0 0 0 0 0 0 0 0 0 0 
0 0 0 0 0 0 0 0 0 0 0 0 6 12 104 92 143 121 114 126 137 103 113 125 155 149 133 124 135 134 160 107 99 94 84 73 67 68 80 93 101 98 97 99 97 115 75 52 55 54 57 56 75 57 56 55 58 58 59 61 95 122 90 57 51 62 58 48 45 49 56 80 138 183 172 197 218 163 140 97 60 100 109 145 193 157 131 124 73 7 0 0 0 0 0 0 0 0 0 0 0 0 0 0 0 0 0 0 0 0 0 0 0 0 0 0 0 0 0 0 0 0 0 0 0 0 0 0 
0 0 0 0 0 0 0 0 0 0 0 0 8 18 105 102 146 129 117 127 141 117 122 132 153 149 139 128 136 119 147 96 92 79 57 49 48 48 48 48 50 56 76 102 111 102 81 63 58 60 60 60 90 71 59 62 59 59 61 83 121 99 79 52 47 48 48 49 51 50 53 76 111 154 196 186 224 200 152 92 49 89 109 153 194 162 136 125 88 10 0 0 0 0 0 0 0 0 0 0 0 0 0 0 0 0 0 0 0 0 0 0 0 0 0 0 0 0 0 0 0 0 0 0 0 0 0 0 
0 0 0 0 0 0 0 0 0 0 0 0 9 23 102 107 151 133 123 126 145 136 128 130 150 150 141 132 128 110 141 102 94 56 46 48 48 50 51 50 49 48 49 52 81 119 92 73 65 77 94 79 102 87 75 83 68 66 84 118 95 65 50 49 51 54 55 56 57 55 57 69 111 135 165 202 209 229 174 92 40 73 116 166 185 158 142 125 100 13 0 0 0 0 0 0 0 0 0 0 0 0 0 0 0 0 0 0 0 0 0 0 0 0 0 0 0 0 0 0 0 0 0 0 0 0 0 0 
0 0 0 0 0 0 0 0 0 0 0 0 9 25 99 113 147 136 126 114 135 145 132 131 147 150 146 147 124 109 137 121 67 49 49 49 50 53 55 54 53 51 49 49 52 83 103 73 79 101 99 108 117 106 110 116 91 85 61 54 68 48 48 52 54 56 56 58 58 58 57 66 103 139 149 197 213 226 209 103 38 60 124 167 180 150 141 128 102 14 0 0 0 0 0 0 0 0 0 0 0 0 0 0 0 0 0 0 0 0 0 0 0 0 0 0 0 0 0 0 0 0 0 0 0 0 0 0 
0 0 0 0 0 0 0 0 0 0 0 0 9 21 88 116 150 140 118 94 132 150 140 138 137 152 154 157 138 124 156 127 52 50 51 51 51 50 54 57 54 52 52 48 52 53 83 61 59 54 57 84 134 124 139 89 65 48 48 56 50 47 48 51 54 58 57 56 53 55 58 73 111 151 157 170 219 219 228 136 40 57 121 172 171 162 141 128 110 18 0 0 0 0 0 0 0 0 0 0 0 0 0 0 0 0 0 0 0 0 0 0 0 0 0 0 0 0 0 0 0 0 0 0 0 0 0 0 
0 0 0 0 0 0 0 0 0 0 0 0 8 24 85 119 150 128 81 83 134 156 151 141 132 148 160 162 153 148 174 112 54 51 51 50 51 54 55 57 54 54 53 52 52 53 68 62 60 64 68 97 149 129 148 68 51 49 48 64 50 49 49 54 54 54 56 57 59 63 71 74 97 138 154 159 196 222 226 148 44 54 112 153 159 165 137 130 116 24 0 0 0 0 0 0 0 0 0 0 0 0 0 0 0 0 0 0 0 0 0 0 0 0 0 0 0 0 0 0 0 0 0 0 0 0 0 0 
0 0 0 0 0 0 0 0 0 0 0 0 8 23 78 113 149 128 80 90 133 158 160 141 129 142 160 167 164 159 175 96 63 57 49 50 54 56 56 55 56 58 56 54 55 58 69 80 77 80 85 113 132 111 127 95 53 49 58 60 49 46 53 59 67 70 67 62 61 55 53 56 88 138 149 155 189 220 213 151 47 51 86 136 153 175 144 129 119 29 0 0 0 0 0 0 0 0 0 0 0 0 0 0 0 0 0 0 0 0 0 0 0 0 0 0 0 0 0 0 0 0 0 0 0 0 0 0 
0 0 0 0 0 0 0 0 0 0 0 0 9 23 79 122 151 124 80 96 136 158 149 130 119 136 162 179 167 146 159 71 51 52 49 55 55 54 52 51 53 56 60 56 58 67 77 95 88 91 96 121 136 116 96 98 60 50 58 51 54 49 63 82 85 73 60 53 54 55 53 58 91 137 148 152 194 232 217 164 47 49 79 109 153 169 154 134 124 34 0 0 0 0 0 0 0 0 0 0 0 0 0 0 0 0 0 0 0 0 0 0 0 0 0 0 0 0 0 0 0 0 0 0 0 0 0 0 
0 0 0 0 0 0 0 0 0 0 0 0 9 17 77 126 151 117 76 99 135 137 121 128 116 130 166 219 198 142 147 68 49 50 49 54 56 52 51 53 50 55 59 62 64 74 85 97 96 96 105 127 99 90 77 82 73 52 58 49 58 67 81 76 63 55 54 53 53 53 52 58 93 140 145 155 204 235 218 165 50 47 78 88 125 164 136 132 128 36 1 0 0 0 0 0 0 0 0 0 0 0 0 0 0 0 0 0 0 0 0 0 0 0 0 0 0 0 0 0 0 0 0 0 0 0 0 0 
0 0 0 0 0 0 0 0 0 0 0 0 9 13 73 128 151 112 79 109 131 85 105 134 125 129 173 235 215 168 142 79 50 49 50 54 54 52 50 53 61 72 72 73 71 83 94 97 97 99 119 126 95 92 77 65 93 62 54 65 79 70 63 54 56 63 60 57 54 53 52 61 103 144 148 162 213 231 208 161 48 47 78 88 129 163 123 119 124 39 3 0 0 0 0 0 0 0 0 0 0 0 0 0 0 0 0 0 0 0 0 0 0 0 0 0 0 0 0 0 0 0 0 0 0 0 0 0 
0 0 0 0 0 0 0 0 0 0 0 0 10 12 71 124 146 108 85 125 98 50 97 140 136 133 182 232 208 175 159 114 53 52 50 56 53 52 52 53 60 76 80 85 93 102 107 104 101 109 133 122 115 105 94 78 95 98 68 64 61 52 51 57 77 71 71 59 54 53 54 67 117 147 147 169 226 228 206 158 51 46 79 91 130 158 127 124 122 38 4 0 0 0 0 0 0 0 0 0 0 0 0 0 0 0 0 0 0 0 0 0 0 0 0 0 0 0 0 0 0 0 0 0 0 0 0 0 
0 0 0 0 0 0 0 0 0 0 0 0 9 10 65 120 143 108 88 136 102 48 85 144 147 137 185 229 202 172 169 150 63 55 52 57 53 51 52 54 69 65 60 72 80 97 109 114 107 118 134 107 101 93 90 78 65 98 70 55 59 52 55 78 76 72 67 57 53 52 54 72 129 152 147 181 240 226 194 159 57 48 80 88 133 148 129 134 119 38 3 0 0 0 0 0 0 0 0 0 0 0 0 0 0 0 0 0 0 0 0 0 0 0 0 0 0 0 0 0 0 0 0 0 0 0 0 0 
0 0 0 0 0 0 0 0 0 0 0 0 7 8 55 116 137 111 86 131 96 43 72 140 151 140 181 229 197 171 173 163 71 53 52 54 54 53 54 52 68 84 70 66 76 88 102 108 114 130 125 107 107 103 103 85 65 89 85 61 51 49 54 84 79 72 67 59 55 52 55 71 131 146 149 191 233 205 160 170 65 53 84 90 138 132 118 121 108 34 3 0 0 0 0 0 0 0 0 0 0 0 0 0 0 0 0 0 0 0 0 0 0 0 0 0 0 0 0 0 0 0 0 0 0 0 0 0 
0 0 0 0 0 0 0 0 0 0 0 0 7 9 51 112 126 112 89 127 100 41 61 125 155 146 177 229 203 165 165 147 66 45 46 51 54 53 52 61 74 89 78 69 79 92 102 104 126 136 122 108 110 110 110 83 65 63 97 74 56 49 43 61 75 70 66 55 54 54 56 66 116 151 157 194 220 173 126 177 84 62 86 94 143 113 109 116 105 31 2 0 0 0 0 0 0 0 0 0 0 0 0 0 0 0 0 0 0 0 0 0 0 0 0 0 0 0 0 0 0 0 0 0 0 0 0 0 
0 0 0 0 0 0 0 0 0 0 0 0 5 10 38 104 118 113 90 128 113 42 53 104 154 148 172 228 214 178 163 153 75 44 46 47 51 54 57 76 90 90 69 67 78 92 101 105 133 123 101 97 98 113 113 83 72 55 80 98 70 47 44 58 68 73 72 62 57 57 57 69 123 155 159 197 217 165 112 170 103 64 86 100 145 90 93 114 96 26 2 0 0 0 0 0 0 0 0 0 0 0 0 0 0 0 0 0 0 0 0 0 0 0 0 0 0 0 0 0 0 0 0 0 0 0 0 0 
0 0 0 0 0 0 0 0 0 0 0 0 0 8 27 93 114 111 89 115 124 48 47 76 144 153 167 232 218 172 156 139 88 44 46 46 44 49 50 58 76 87 79 66 76 98 118 118 121 96 89 86 91 98 103 89 66 59 56 99 133 89 58 74 73 71 76 73 62 63 67 81 120 153 165 208 216 166 148 173 122 64 85 115 133 75 90 112 84 19 2 0 0 0 0 0 0 0 0 0 0 0 0 0 0 0 0 0 0 0 0 0 0 0 0 0 0 0 0 0 0 0 0 0 0 0 0 0 
0 0 0 0 0 0 0 0 0 0 4 4 0 6 21 83 117 113 97 100 133 62 44 55 124 158 184 235 210 140 98 140 107 53 46 45 47 50 51 57 78 84 95 84 82 85 99 110 104 86 82 85 83 87 88 104 74 61 52 89 109 77 76 95 81 72 79 81 74 72 67 75 124 149 171 211 178 95 124 163 129 56 90 149 104 72 98 120 67 13 2 0 0 0 0 0 0 0 0 0 0 0 0 0 0 0 0 0 0 0 0 0 0 0 0 0 0 0 0 0 0 0 0 0 0 0 0 0 
0 0 0 0 0 0 0 0 0 1 9 7 5 8 16 71 116 120 98 91 124 96 58 41 90 153 192 232 190 142 98 90 130 91 52 51 55 62 65 65 89 96 81 68 83 84 101 110 113 80 78 83 80 86 80 77 91 79 67 85 119 92 64 71 80 95 103 89 70 65 64 79 118 148 192 188 104 43 88 151 152 89 123 157 64 67 112 119 52 10 2 0 0 0 0 0 0 0 0 0 0 0 0 0 0 0 0 0 0 0 0 0 0 0 0 0 0 0 0 0 0 0 0 0 0 0 0 0 
0 0 0 0 0 0 0 0 0 1 12 7 1 6 12 53 115 133 101 87 112 128 64 39 58 137 204 226 175 144 112 80 100 144 88 70 76 74 92 105 77 78 64 77 75 85 114 126 102 66 72 63 72 81 74 70 65 67 70 79 124 97 73 75 73 59 60 82 87 75 77 91 153 180 170 139 56 33 74 154 177 136 160 120 41 60 111 108 41 8 2 0 0 0 0 0 0 0 0 0 0 0 0 0 0 0 0 0 0 0 0 0 0 0 0 0 0 0 0 0 0 0 0 0 0 0 0 0 
0 0 0 0 0 0 0 0 0 0 14 13 0 4 12 37 113 134 104 94 94 129 77 40 44 106 208 219 171 147 117 85 74 105 110 77 82 73 66 65 67 75 69 61 81 105 113 117 85 71 79 71 68 83 82 69 65 73 78 60 98 101 76 67 61 54 57 55 51 55 76 128 157 161 171 123 69 49 72 160 196 153 146 85 37 83 133 95 24 6 6 6 5 0 0 0 0 0 0 0 0 0 0 0 0 0 0 0 0 0 0 0 0 0 0 0 0 0 0 0 0 0 0 0 0 0 0 0 
0 0 0 0 0 0 0 0 0 0 7 14 3 3 10 26 106 126 112 94 87 115 104 46 36 82 198 212 162 153 134 86 66 74 104 98 69 60 60 57 57 41 48 66 83 98 116 126 96 86 94 98 72 85 81 77 66 66 86 55 78 96 76 64 57 60 56 59 65 84 122 162 166 166 157 84 68 70 90 172 209 181 135 63 67 127 151 74 16 6 3 0 2 5 0 0 0 0 0 0 0 0 0 0 0 0 0 0 0 0 0 0 0 0 0 0 0 0 0 0 0 0 0 0 0 0 0 0 
0 0 0 0 0 0 0 0 0 0 3 8 7 5 7 16 92 123 124 98 86 102 134 82 42 79 183 207 156 146 135 71 44 49 78 76 45 45 49 51 48 42 50 58 70 88 108 106 96 85 76 72 74 87 95 63 61 59 81 63 78 88 66 59 63 80 76 81 95 130 166 172 169 167 139 103 98 97 112 187 214 215 154 63 112 180 176 59 10 6 1 1 5 5 0 0 0 0 0 0 0 0 0 0 0 0 0 0 0 0 0 0 0 0 0 0 0 0 0 0 0 0 0 0 0 0 0 0 
0 0 0 0 0 0 0 0 0 0 0 1 15 6 9 11 72 120 118 121 100 114 158 130 110 111 164 188 158 139 140 107 60 43 53 78 41 46 51 51 51 49 55 59 65 79 99 110 94 69 52 66 78 104 73 54 54 66 94 60 84 90 65 54 60 68 57 81 109 150 179 187 192 178 102 46 35 36 69 156 204 224 178 101 157 179 131 35 4 5 5 10 0 2 0 0 0 0 0 0 0 0 0 0 0 0 0 0 0 0 0 0 0 0 0 0 0 0 0 0 0 0 0 0 0 0 0 0 
0 0 0 0 0 0 0 0 0 0 0 0 21 3 0 14 68 124 107 121 132 166 190 168 146 148 166 165 173 169 160 156 120 93 74 90 62 73 61 53 53 50 51 62 72 65 98 126 87 50 45 56 85 113 65 55 60 69 97 85 76 90 67 67 81 86 65 112 146 185 209 217 213 166 80 42 50 71 102 153 187 176 78 119 162 182 126 20 7 7 14 2 0 0 0 0 0 0 0 0 0 0 0 0 0 0 0 0 0 0 0 0 0 0 0 0 0 0 0 0 0 0 0 0 0 0 0 0 
0 0 0 0 0 0 0 0 0 0 0 3 4 9 0 3 32 111 122 85 117 145 166 167 151 133 164 160 160 188 169 152 157 155 105 74 69 54 53 46 43 47 48 50 65 56 85 120 87 58 54 50 70 93 85 70 57 64 75 74 68 80 105 97 107 113 105 131 159 181 195 210 207 165 90 83 73 81 103 146 190 190 104 133 135 153 134 33 0 0 8 2 0 0 0 0 0 0 0 0 0 0 0 0 0 0 0 0 0 0 0 0 0 0 0 0 0 0 0 0 0 0 0 0 0 0 0 0 
0 0 0 0 0 0 0 0 0 0 0 6 3 8 0 3 27 91 135 99 96 124 151 162 137 143 179 149 87 133 161 146 162 184 156 91 67 42 57 54 45 56 70 74 80 65 78 111 59 57 55 56 72 79 89 88 71 63 88 51 64 63 73 66 66 94 104 144 189 199 205 202 180 109 87 102 89 100 112 164 180 187 120 107 148 111 93 15 0 0 10 0 0 0 0 0 0 0 0 0 0 0 0 0 0 0 0 0 0 0 0 0 0 0 0 0 0 0 0 0 0 0 0 0 0 0 0 0 
0 0 0 0 0 0 0 0 0 0 0 6 5 9 0 5 23 56 129 110 130 120 118 125 125 118 167 162 116 87 130 160 169 201 197 153 89 84 108 117 102 94 114 98 77 61 87 102 60 61 70 72 74 105 101 96 77 70 92 58 65 80 88 68 56 61 99 170 196 200 215 189 126 76 81 86 121 126 122 168 189 174 98 64 122 124 57 7 0 0 12 0 0 0 0 0 0 0 0 0 0 0 0 0 0 0 0 0 0 0 0 0 0 0 0 0 0 0 0 0 0 0 0 0 0 0 0 0 
0 0 0 0 0 0 0 0 0 0 0 5 11 14 0 6 20 32 119 137 131 110 139 120 99 109 144 178 124 93 86 162 182 175 193 197 172 159 137 142 110 63 77 70 54 58 99 116 78 103 137 115 73 82 99 99 78 109 124 91 72 92 93 78 73 100 137 166 191 202 187 124 83 71 89 132 139 127 122 152 153 127 122 141 165 123 26 6 0 4 13 0 0 0 0 0 0 0 0 0 0 0 0 0 0 0 0 0 0 0 0 0 0 0 0 0 0 0 0 0 0 0 0 0 0 0 0 0 
0 0 0 0 0 0 0 0 0 0 0 2 15 14 0 8 20 18 83 136 141 144 143 151 112 114 115 122 104 95 77 93 146 170 188 210 206 189 153 90 53 62 61 50 53 65 104 127 140 161 157 150 107 95 124 137 121 126 91 79 85 98 102 110 137 150 152 162 186 179 110 77 60 67 89 144 157 127 141 147 145 144 151 175 171 78 16 7 3 6 10 0 0 0 0 0 0 0 0 0 0 0 0 0 0 0 0 0 0 0 0 0 0 0 0 0 0 0 0 0 0 0 0 0 0 0 0 0 
0 0 0 0 0 0 0 0 0 0 0 1 12 11 0 8 17 12 50 124 161 137 125 133 116 124 118 105 111 135 82 66 64 124 177 211 219 188 155 103 59 65 53 56 77 88 123 168 182 174 171 165 151 144 172 192 158 115 108 113 122 147 160 149 152 167 169 172 136 96 79 62 52 76 101 120 170 133 161 196 187 144 158 177 189 49 16 10 3 6 6 0 0 0 0 0 0 0 0 0 0 0 0 0 0 0 0 0 0 0 0 0 0 0 0 0 0 0 0 0 0 0 0 0 0 0 0 0 
0 0 0 0 0 0 0 0 0 0 0 0 3 5 0 8 17 22 33 106 175 156 111 102 122 134 130 120 132 126 108 80 55 54 101 191 225 190 157 146 112 88 87 125 147 143 156 150 131 120 131 165 176 179 197 170 155 159 155 147 145 162 178 167 170 177 181 128 57 85 75 51 73 91 93 96 155 174 194 217 161 150 158 170 130 27 15 16 4 5 2 0 0 0 0 0 0 0 0 0 0 0 0 0 0 0 0 0 0 0 0 0 0 0 0 0 0 0 0 0 0 0 0 0 0 0 0 0 
0 0 0 0 0 0 0 0 0 0 0 0 0 1 0 11 18 25 27 69 155 140 132 119 117 149 130 154 152 126 121 108 78 55 66 136 189 183 172 167 155 148 147 142 137 138 160 119 99 95 98 117 144 148 147 143 144 161 163 157 154 162 171 157 141 143 115 66 41 78 67 84 105 103 98 100 133 199 193 194 171 163 145 172 63 20 15 16 10 2 0 0 0 0 0 0 0 0 0 0 0 0 0 0 0 0 0 0 0 0 0 0 0 0 0 0 0 0 0 0 0 0 0 0 0 0 0 0 
0 0 0 0 0 0 0 0 0 0 0 0 0 0 0 14 22 25 28 38 116 125 139 164 97 128 133 131 116 102 97 90 86 86 74 71 85 121 145 153 162 143 134 130 130 146 164 142 137 143 155 167 165 150 137 134 136 142 141 142 141 138 141 151 142 112 78 55 87 78 53 85 103 121 102 114 159 192 170 171 159 158 158 157 45 22 15 17 12 1 0 0 0 0 0 0 0 0 0 0 0 0 0 0 0 0 0 0 0 0 0 0 0 0 0 0 0 0 0 0 0 0 0 0 0 0 0 0 
0 0 0 0 0 0 0 0 0 0 0 0 0 0 0 14 21 24 25 34 83 112 107 145 113 122 116 102 109 123 109 95 96 107 92 83 64 58 86 111 148 144 137 144 146 157 140 137 140 150 144 170 175 155 157 166 159 145 128 130 136 131 113 111 129 115 97 103 122 100 87 99 113 135 114 131 159 192 169 161 165 160 126 104 40 25 18 17 11 1 0 0 0 0 0 0 0 0 0 0 0 0 0 0 0 0 0 0 0 0 0 0 0 0 0 0 0 0 0 0 0 0 0 0 0 0 0 0 
0 0 0 0 0 0 0 0 0 0 0 0 6 3 0 8 19 22 19 27 70 93 94 111 153 162 133 78 67 123 137 116 121 121 91 92 94 78 61 65 91 141 151 150 151 153 125 128 140 133 137 155 153 148 124 126 110 94 78 64 59 82 115 80 100 110 87 93 129 132 108 116 118 126 121 123 174 189 172 159 173 165 109 84 36 22 17 11 9 1 0 0 0 0 0 0 0 0 0 0 0 0 0 0 0 0 0 0 0 0 0 0 0 0 0 0 0 0 0 0 0 0 0 0 0 0 0 0 
0 0 0 0 0 0 0 0 0 0 0 0 7 6 0 1 14 18 15 18 52 89 81 86 140 158 158 133 69 79 110 133 146 132 101 100 98 118 125 111 99 142 145 155 164 149 91 86 106 107 135 128 123 135 118 78 56 48 42 38 43 79 102 79 105 139 131 134 143 135 114 112 103 79 94 116 160 159 127 100 103 96 92 75 28 19 12 5 5 0 0 0 0 0 0 0 0 0 0 0 0 0 0 0 0 0 0 0 0 0 0 0 0 0 0 0 0 0 0 0 0 0 0 0 0 0 0 0 
0 0 0 0 0 0 0 0 0 0 0 0 5 8 3 0 9 17 14 14 25 78 78 40 51 103 161 154 101 97 87 105 128 102 102 120 135 139 125 116 124 181 133 150 184 163 108 97 102 116 120 113 109 112 114 117 93 79 68 69 81 111 107 126 145 156 138 155 172 156 95 80 79 85 90 95 137 143 103 45 35 64 92 62 20 18 9 9 1 0 0 0 0 0 0 0 0 0 0 0 0 0 0 0 0 0 0 0 0 0 0 0 0 0 0 0 0 0 0 0 0 0 0 0 0 0 0 0 
0 0 0 0 0 0 0 0 0 0 0 0 8 9 8 9 6 11 14 13 14 45 87 35 20 36 86 103 102 137 112 92 104 121 86 83 100 108 111 115 181 204 128 124 165 203 190 158 122 118 143 160 164 179 173 150 135 132 140 151 161 176 144 148 159 161 152 208 205 179 104 109 108 123 102 109 116 74 90 80 53 77 85 26 15 10 8 5 0 0 0 0 3 0 0 0 0 0 0 0 0 0 0 0 0 0 0 0 0 0 0 0 0 0 0 0 0 0 0 0 0 0 0 0 0 0 0 0 
0 0 0 0 0 0 0 0 0 0 0 0 8 7 7 6 0 0 13 14 15 18 53 24 20 27 36 81 114 151 149 98 75 150 101 48 46 54 81 213 108 111 107 124 148 160 159 165 175 183 170 163 176 186 181 179 188 190 191 143 120 146 170 149 124 111 99 98 74 200 119 119 129 114 79 45 62 34 72 103 101 90 39 5 7 4 1 2 3 0 0 6 7 0 0 0 0 0 0 0 0 0 0 0 0 0 0 0 0 0 0 0 0 0 0 0 0 0 0 0 0 0 0 0 0 0 0 0 
0 0 0 0 0 0 0 0 0 0 0 0 4 4 1 0 0 0 6 13 13 9 17 43 19 41 46 36 36 101 130 131 105 115 110 43 29 41 119 174 107 94 95 177 237 145 116 170 159 150 128 136 170 185 193 172 155 184 170 118 90 101 151 134 129 210 115 176 214 88 170 158 103 52 14 11 41 19 49 77 71 45 14 0 0 4 0 0 0 1 3 6 8 0 0 0 0 0 0 0 0 0 0 0 0 0 0 0 0 0 0 0 0 0 0 0 0 0 0 0 0 0 0 0 0 0 0 0 
0 0 0 0 0 0 0 0 0 0 0 0 0 3 1 0 0 0 0 4 5 6 4 43 89 89 61 36 27 46 49 62 93 115 97 74 57 90 139 102 99 99 127 130 218 109 174 188 194 201 180 187 214 173 158 177 170 188 165 133 116 160 158 152 144 148 150 184 191 207 185 187 178 112 70 66 87 37 41 43 30 22 18 13 13 1 0 0 0 0 0 5 5 0 0 0 0 0 0 0 0 0 0 0 0 0 0 0 0 0 0 0 0 0 0 0 0 0 0 0 0 0 0 0 0 0 0 0 
0 0 0 0 0 0 0 0 0 0 0 0 0 4 7 0 0 0 0 0 6 15 14 17 41 59 37 30 28 57 68 60 77 113 92 85 94 101 101 88 75 89 101 97 82 56 79 127 127 136 86 153 177 119 98 126 120 73 116 70 54 68 105 119 104 117 49 53 58 56 54 83 75 37 41 58 85 34 24 29 18 19 21 16 4 0 0 0 0 0 0 5 5 0 0 0 0 0 0 0 0 0 0 0 0 0 0 0 0 0 0 0 0 0 0 0 0 0 0 0 0 0 0 0 0 0 0 0 
0 0 0 0 0 0 0 0 0 0 0 0 0 0 7 1 0 0 0 0 5 12 16 14 18 15 27 22 26 54 65 49 63 80 68 42 42 43 49 58 79 89 105 97 62 61 50 46 79 101 37 85 86 76 70 89 88 60 118 66 50 81 106 120 80 68 50 44 46 40 46 70 83 41 32 58 83 33 27 21 17 22 20 12 5 0 0 0 0 1 5 6 3 0 0 0 0 0 0 0 0 0 0 0 0 0 0 0 0 0 0 0 0 0 0 0 0 0 0 0 0 0 0 0 0 0 0 0 
0 0 0 0 0 0 0 0 0 0 0 0 0 0 0 0 0 0 0 0 0 17 16 13 14 15 22 35 32 61 83 63 77 104 86 50 38 54 177 202 198 173 84 105 85 92 76 70 109 114 40 80 78 77 71 77 78 42 113 147 146 158 155 162 214 230 190 22 22 46 76 103 142 130 132 130 126 69 48 31 11 19 11 7 5 0 0 0 0 1 3 2 0 0 0 0 0 0 0 0 0 0 0 0 0 0 0 0 0 0 0 0 0 0 0 0 0 0 0 0 0 0 0 0 0 0 0 0 
0 0 0 0 0 0 0 0 0 0 0 0 0 0 0 0 0 0 0 0 0 11 12 9 6 10 15 22 16 29 64 40 51 74 73 76 66 56 146 136 109 86 112 138 144 176 166 176 162 113 73 113 79 83 78 103 151 128 161 198 224 246 248 248 186 225 160 71 66 70 79 132 184 211 217 208 181 142 114 98 32 7 0 1 0 0 0 0 0 0 0 0 0 0 0 0 0 0 0 0 0 0 0 0 0 0 0 0 0 0 0 0 0 0 0 0 0 0 0 0 0 0 0 0 0 0 0 0 
0 0 0 0 0 0 0 0 0 0 0 0 0 0 0 0 0 0 0 0 0 0 0 0 4 4 10 27 16 21 29 34 40 61 73 56 79 78 229 126 81 62 153 129 161 140 130 136 94 137 155 119 113 141 138 138 161 167 188 193 198 234 249 253 131 202 84 106 52 87 78 98 144 111 70 64 91 85 94 98 35 6 2 0 0 0 0 0 0 0 0 0 0 0 0 0 0 0 0 0 0 0 0 0 0 0 0 0 0 0 0 0 0 0 0 0 0 0 0 0 0 0 0 0 0 0 0 0 
0 0 0 0 0 0 0 0 0 0 0 0 0 0 0 0 0 0 0 0 0 0 2 3 9 11 40 43 38 51 78 81 89 127 150 164 153 176 152 42 95 120 136 105 130 76 126 133 146 138 132 113 85 84 86 85 90 97 104 115 131 137 116 169 213 39 54 77 48 53 52 68 78 91 83 85 86 56 60 63 10 10 5 2 0 0 0 0 0 0 0 0 0 0 0 0 0 0 0 0 0 0 0 0 0 0 0 0 0 0 0 0 0 0 0 0 0 0 0 0 0 0 0 0 0 0 0 0 
0 0 0 0 0 0 0 0 0 0 0 0 0 0 0 0 0 0 0 0 0 0 4 10 11 13 18 21 22 20 52 67 44 85 72 74 86 118 188 145 127 117 108 92 137 149 163 146 143 132 127 130 93 66 68 64 66 66 71 79 95 143 157 157 183 234 232 205 122 36 28 34 53 79 52 60 58 18 15 17 16 17 9 0 0 0 0 0 0 0 0 0 0 0 0 0 0 0 0 0 0 0 0 0 0 0 0 0 0 0 0 0 0 0 0 0 0 0 0 0 0 0 0 0 0 0 0 0 
0 0 0 0 0 0 0 0 0 0 0 0 0 0 0 0 0 0 0 0 0 0 2 6 10 15 16 19 19 17 33 72 40 77 49 42 42 42 40 47 95 98 79 124 128 158 142 137 155 137 115 98 71 69 61 59 61 58 61 65 83 133 143 129 92 186 229 203 176 59 32 37 38 56 39 56 64 20 15 19 18 15 9 0 0 0 0 0 0 0 0 0 0 0 0 0 0 0 0 0 0 0 0 0 0 0 0 0 0 0 0 0 0 0 0 0 0 0 0 0 0 0 0 0 0 0 0 0 
0 0 0 0 0 0 0 0 0 0 0 0 0 0 0 0 0 0 0 0 0 0 0 6 10 10 16 19 18 15 26 73 47 75 44 41 47 56 80 117 122 82 60 99 124 139 131 133 146 128 125 119 67 61 56 58 66 62 71 88 120 132 135 127 86 134 167 190 188 142 78 42 40 60 44 55 67 21 14 18 15 14 8 0 0 0 0 0 0 0 0 0 0 0 0 0 0 0 0 0 0 0 0 0 0 0 0 0 0 0 0 0 0 0 0 0 0 0 0 0 0 0 0 0 0 0 0 0 
0 0 0 0 0 0 0 0 0 0 0 0 0 0 0 0 0 0 0 0 0 0 0 5 7 11 14 19 21 14 18 70 55 69 42 42 88 135 129 84 70 62 58 84 106 77 110 134 146 120 118 140 99 70 62 70 84 89 102 123 151 162 143 127 90 149 115 153 181 170 161 115 60 62 65 53 68 20 13 16 18 13 3 0 0 0 0 0 0 0 0 0 0 0 0 0 0 0 0 0 0 0 0 0 0 0 0 0 0 0 0 0 0 0 0 0 0 0 0 0 0 0 0 0 0 0 0 0 
0 0 0 0 0 0 0 0 0 0 0 0 0 0 0 0 0 0 0 0 0 0 0 0 8 8 11 15 22 18 15 68 61 69 35 66 138 114 59 49 58 53 51 105 133 68 93 120 110 92 121 136 119 104 88 93 119 131 140 159 168 153 138 116 73 139 115 89 123 139 145 172 137 74 83 64 72 20 16 15 19 12 3 0 0 0 0 0 0 0 0 0 0 0 0 0 0 0 0 0 0 0 0 0 0 0 0 0 0 0 0 0 0 0 0 0 0 0 0 0 0 0 0 0 0 0 0 0 
0 0 0 0 0 0 0 0 0 0 0 0 0 0 0 0 0 0 0 0 0 0 0 0 6 5 6 15 22 23 20 59 70 63 32 85 166 99 48 39 50 46 52 135 149 77 82 108 90 89 139 125 109 115 109 117 129 137 140 155 143 109 104 81 69 120 132 56 53 60 58 109 174 105 82 75 66 20 17 15 18 11 0 0 0 0 0 0 0 0 0 0 0 0 0 0 0 0 0 0 0 0 0 0 0 0 0 0 0 0 0 0 0 0 0 0 0 0 0 0 0 0 0 0 0 0 0 0 
0 0 0 0 0 0 0 0 0 0 0 0 0 0 0 0 0 0 0 0 0 0 0 0 0 8 2 12 18 20 21 49 64 51 25 79 166 98 48 43 45 42 66 137 114 73 80 101 81 95 140 105 77 84 97 109 112 118 122 115 108 106 101 84 64 101 138 73 43 46 38 76 176 112 49 74 37 14 16 20 19 7 0 0 0 0 0 0 0 0 0 0 0 0 0 0 0 0 0 0 0 0 0 0 0 0 0 0 0 0 0 0 0 0 0 0 0 0 0 0 0 0 0 0 0 0 0 0 
0 0 0 0 0 0 0 0 0 0 0 0 0 0 0 0 0 0 0 0 0 0 0 0 0 3 7 7 15 17 21 32 54 33 16 69 170 109 48 44 51 60 86 99 72 62 79 101 94 102 125 90 57 63 82 93 96 111 122 115 101 94 99 74 59 62 103 84 49 38 36 79 174 95 27 21 11 12 18 21 19 5 0 0 0 0 0 0 0 0 0 0 0 0 0 0 0 0 0 0 0 0 0 0 0 0 0 0 0 0 0 0 0 0 0 0 0 0 0 0 0 0 0 0 0 0 0 0 
0 0 0 0 0 0 0 0 0 0 0 0 0 0 0 0 0 0 0 0 0 0 0 0 0 0 9 2 12 18 17 18 16 21 18 50 164 135 57 49 47 59 76 59 60 56 67 99 110 107 102 99 84 81 87 95 99 117 119 92 105 116 105 55 47 47 46 69 51 36 42 92 173 89 29 26 18 13 19 20 15 2 0 0 0 0 0 0 0 0 0 0 0 0 0 0 0 0 0 0 0 0 0 0 0 0 0 0 0 0 0 0 0 0 0 0 0 0 0 0 0 0 0 0 0 0 0 0 
0 0 0 0 0 0 0 0 0 0 0 0 0 0 0 0 0 0 0 0 0 0 0 0 0 0 5 6 6 14 16 15 15 14 16 25 125 156 78 45 50 72 81 61 61 54 52 75 110 104 81 70 71 75 67 65 77 108 103 93 106 113 99 64 48 47 44 65 72 48 57 112 179 78 31 26 18 14 20 20 12 1 0 0 0 0 0 0 0 0 0 0 0 0 0 0 0 0 0 0 0 0 0 0 0 0 0 0 0 0 0 0 0 0 0 0 0 0 0 0 0 0 0 0 0 0 0 0 
0 0 0 0 0 0 0 0 0 0 0 0 0 0 0 0 0 0 0 0 0 0 0 0 0 0 0 8 5 7 17 16 15 14 12 20 57 156 144 89 97 108 75 58 69 57 47 64 98 101 101 94 84 82 75 95 118 117 92 116 130 115 89 72 69 58 44 63 87 124 144 181 158 36 32 22 20 15 19 19 10 1 0 0 0 0 0 0 0 0 0 0 0 0 0 0 0 0 0 0 0 0 0 0 0 0 0 0 0 0 0 0 0 0 0 0 0 0 0 0 0 0 0 0 0 0 0 0 
0 0 0 0 0 0 0 0 0 0 0 0 0 0 0 0 0 0 0 0 0 0 0 0 0 0 0 0 10 4 12 18 16 15 12 21 22 78 175 175 172 133 63 41 63 66 49 63 98 113 110 115 98 81 76 90 84 95 99 107 98 106 91 72 64 69 58 49 82 158 195 181 69 30 31 23 23 17 19 19 9 1 0 0 0 0 0 0 0 0 0 0 0 0 0 0 0 0 0 0 0 0 0 0 0 0 0 0 0 0 0 0 0 0 0 0 0 0 0 0 0 0 0 0 0 0 0 0 
0 0 0 0 0 0 0 0 0 0 0 0 0 0 0 0 0 0 0 0 0 0 0 0 0 0 0 0 6 7 7 15 14 13 6 8 23 26 57 125 151 108 45 36 63 62 43 62 104 105 96 85 65 84 98 102 102 102 101 98 93 105 107 76 59 68 70 61 60 130 127 56 36 28 30 25 27 16 18 18 9 1 0 0 0 0 0 0 0 0 0 0 0 0 0 0 0 0 0 0 0 0 0 0 0 0 0 0 0 0 0 0 0 0 0 0 0 0 0 0 0 0 0 0 0 0 0 0 
0 0 0 0 0 0 0 0 0 0 0 0 0 0 0 0 0 0 0 0 0 0 0 0 0 0 0 0 0 10 5 10 13 12 5 1 11 20 35 38 38 38 33 45 64 52 45 69 109 117 97 69 81 87 100 112 120 108 79 85 111 121 119 88 46 45 53 56 37 37 36 34 31 26 29 23 22 15 16 19 9 1 0 0 0 0 0 0 0 0 0 0 0 0 0 0 0 0 0 0 0 0 0 0 0 0 0 0 0 0 0 0 0 0 0 0 0 0 0 0 0 0 0 0 0 0 0 0 
0 0 0 0 0 0 0 0 0 0 0 0 0 0 0 0 0 0 0 0 0 0 0 0 0 0 0 0 0 10 6 7 14 12 7 1 1 20 29 35 37 37 34 45 65 60 57 73 112 128 115 106 113 108 111 120 124 125 101 97 116 137 133 97 49 45 40 32 32 35 35 31 28 24 27 21 21 18 19 17 6 1 0 0 0 0 0 0 0 0 0 0 0 0 0 0 0 0 0 0 0 0 0 0 0 0 0 0 0 0 0 0 0 0 0 0 0 0 0 0 0 0 0 0 0 0 0 0 
0 0 0 0 0 0 0 0 0 0 0 0 0 0 0 0 0 0 0 0 0 0 0 0 0 0 0 0 0 4 9 7 10 16 9 2 0 16 27 32 39 37 35 47 54 67 74 81 103 124 121 122 121 119 114 118 119 126 112 112 124 138 132 88 78 82 56 52 40 33 31 30 24 21 18 15 21 19 18 14 5 2 0 0 0 0 0 0 0 0 0 0 0 0 0 0 0 0 0 0 0 0 0 0 0 0 0 0 0 0 0 0 0 0 0 0 0 0 0 0 0 0 0 0 0 0 0 0 
