P2
128 99
239
0 0 0 0 0 0 0 0 0 0 0 0 0 0 0 0 0 0 0 0 0 0 0 0 0 0 0 0 0 0 0 0 0 0 0 0 0 0 0 0 2 3 2 1 0 0 0 0 0 0 0 0 0 0 0 0 0 0 0 0 0 0 0 0 0 0 0 0 0 0 0 0 0 0 0 0 0 0 0 0 0 0 0 1 3 2 1 0 0 0 0 0 0 0 0 0 0 0 0 0 0 0 0 0 0 0 0 0 0 0 0 0 0 0 0 0 0 0 0 0 0 0 0 0 0 0 0 0 
0 0 0 0 0 0 0 0 0 0 0 0 0 0 0 0 0 0 0 0 0 0 0 0 0 0 0 0 0 0 0 0 0 0 0 0 0 0 0 0 2 3 3 1 0 0 0 0 0 0 0 0 0 0 0 0 0 0 0 0 0 0 0 0 0 0 0 0 0 0 0 0 0 0 0 0 0 0 0 0 0 0 0 1 3 3 1 0 0 0 0 0 0 0 0 0 0 0 0 0 0 0 0 0 0 0 0 0 0 0 0 0 0 0 0 0 0 0 0 0 0 0 0 0 0 0 0 0 
0 0 0 0 0 0 0 0 0 0 0 0 0 0 0 0 0 0 0 0 0 0 0 0 0 0 0 0 0 0 0 0 0 0 0 0 0 0 0 0 3 4 3 1 0 0 0 0 0 0 0 2 1 5 0 0 0 0 0 0 0 0 0 0 0 0 0 0 0 0 0 0 0 0 0 0 0 0 0 0 0 0 0 2 3 3 1 0 0 0 0 0 0 0 0 0 0 0 0 0 0 0 0 0 0 0 0 0 0 0 0 0 0 0 0 0 0 0 0 0 0 0 0 0 0 0 0 0 
0 0 0 0 0 0 0 0 0 0 0 0 0 0 0 0 0 0 0 0 0 0 0 0 0 0 0 0 0 0 0 0 0 0 0 0 0 0 0 0 2 4 3 0 5 14 18 17 19 23 25 29 32 33 31 24 18 15 17 14 4 0 0 0 0 0 0 0 0 0 0 0 0 0 0 0 0 0 0 0 0 0 0 1 3 3 1 0 0 0 0 0 0 0 0 0 0 0 0 0 0 0 0 0 0 0 0 0 0 0 0 0 0 0 0 0 0 0 0 0 0 0 0 0 0 0 0 0 
0 0 0 0 0 0 0 0 0 0 0 0 0 0 0 0 0 0 0 0 0 0 0 0 0 0 0 0 0 0 0 0 0 0 0 0 0 0 0 0 12 20 20 25 24 32 55 78 97 113 119 121 123 126 126 120 110 94 72 51 32 21 20 12 0 0 0 0 0 0 0 0 0 0 0 0 0 0 0 0 0 0 0 0 3 3 1 0 0 0 0 0 0 0 0 0 0 0 0 0 0 0 0 0 0 0 0 0 0 0 0 0 0 0 0 0 0 0 0 0 0 0 0 0 0 0 0 0 
0 0 0 0 0 0 0 0 0 0 0 0 0 0 0 0 0 0 0 0 0 0 0 0 0 0 0 0 0 0 0 0 0 0 0 0 0 0 17 16 22 27 36 74 111 131 135 141 151 154 149 143 142 141 142 142 147 151 151 143 122 97 68 39 23 21 14 1 0 0 0 0 0 0 0 0 0 0 0 0 0 0 0 1 3 3 2 0 0 0 0 0 0 0 0 0 0 0 0 0 0 0 0 0 0 0 0 0 0 0 0 0 0 0 0 0 0 0 0 0 0 0 0 0 0 0 0 0 
0 0 0 0 0 0 0 0 0 0 0 0 0 0 0 0 0 0 0 0 0 0 0 0 0 0 0 0 0 0 0 0 0 0 0 0 15 17 19 25 65 112 131 136 152 157 157 160 163 169 179 186 193 197 193 185 172 158 145 142 145 149 149 133 98 64 33 19 16 0 0 0 0 0 0 0 0 0 0 0 0 0 0 1 3 3 0 0 0 0 0 0 0 0 0 0 0 0 0 0 0 0 0 0 0 0 0 0 0 0 0 0 0 0 0 0 0 0 0 0 0 0 0 0 0 0 0 0 
0 0 0 0 0 0 0 0 0 0 0 0 0 0 0 0 0 0 0 0 0 0 0 0 0 0 0 0 0 0 0 0 0 0 13 20 20 26 75 122 131 143 163 168 169 170 173 180 194 208 212 210 202 192 197 208 220 228 228 209 182 153 135 139 146 148 123 78 41 21 16 1 0 0 0 0 0 0 0 0 0 0 0 2 4 3 0 0 0 0 0 0 0 0 0 0 0 0 0 0 0 0 0 0 0 0 0 0 0 0 0 0 0 0 0 0 0 0 0 0 0 0 0 0 0 0 0 0 
0 0 0 0 0 0 0 0 0 0 0 0 0 0 0 0 0 0 0 0 0 0 0 0 0 0 0 0 0 0 0 0 10 23 22 32 69 121 129 145 164 165 161 171 183 195 206 186 161 172 173 163 156 155 156 152 156 175 199 215 226 228 213 183 149 133 142 148 127 82 36 22 11 0 0 0 0 0 0 0 0 0 0 2 4 3 1 0 0 0 0 0 0 0 0 0 0 0 0 0 0 0 0 0 0 0 0 0 0 0 0 0 0 0 0 0 0 0 0 0 0 0 0 0 0 0 0 0 
0 0 0 0 0 0 0 0 0 0 0 0 0 0 0 0 0 0 0 0 0 0 0 0 0 0 0 0 0 0 2 22 30 29 46 109 129 141 161 159 158 175 196 203 181 159 142 113 99 102 128 141 142 134 131 130 120 122 129 155 186 200 211 223 226 202 161 135 138 144 121 61 24 18 2 0 0 0 0 0 0 0 0 2 4 3 1 0 0 0 0 0 0 0 0 0 0 0 0 0 0 0 0 0 0 0 0 0 0 0 0 0 0 0 0 0 0 0 0 0 0 0 0 0 0 0 0 0 
0 0 0 0 0 0 0 0 0 0 0 0 0 0 0 0 0 0 0 0 0 0 0 0 0 0 0 0 0 8 33 27 28 83 130 136 159 155 151 173 207 215 177 149 131 107 86 87 95 97 82 105 101 84 99 114 108 101 93 86 105 140 165 185 204 216 225 216 173 139 143 140 94 37 19 7 0 0 0 0 0 0 0 2 3 3 1 0 0 0 0 0 0 0 0 0 0 0 0 0 0 0 0 0 0 0 0 0 0 0 0 0 0 0 0 0 0 0 0 0 0 0 0 0 0 0 0 0 
0 0 0 0 0 0 0 0 0 0 0 0 0 0 0 0 0 0 0 0 0 0 0 0 0 0 0 0 26 26 17 48 120 134 154 153 148 174 209 217 192 141 122 124 121 118 121 122 126 107 99 105 108 106 115 132 132 131 130 117 109 125 147 145 152 167 191 209 226 218 171 145 149 125 59 21 14 0 0 0 0 0 0 2 3 4 1 0 0 0 0 0 0 0 0 0 0 0 0 0 0 0 0 0 0 0 0 0 0 0 0 0 0 0 0 0 0 0 0 0 0 0 0 0 0 0 0 0 
0 0 0 0 0 0 0 0 0 0 0 0 0 0 0 0 0 0 0 0 0 0 0 0 0 0 3 33 21 16 70 134 141 159 150 164 203 217 190 158 129 134 135 132 125 123 123 126 134 127 135 137 132 131 131 146 149 145 144 140 138 132 131 146 154 148 153 165 189 201 221 205 156 143 131 80 23 16 0 0 0 0 0 2 3 3 2 0 0 0 0 0 0 0 0 0 0 0 0 0 0 0 0 0 0 0 0 0 0 0 0 0 0 0 0 0 0 0 0 0 0 0 0 0 0 0 0 0 
0 0 0 0 0 0 0 0 0 0 0 0 0 0 0 0 0 0 0 0 0 0 0 0 0 7 32 15 22 93 137 152 163 158 187 219 200 166 137 134 135 125 122 128 136 142 146 147 133 128 126 122 113 115 117 124 138 144 147 148 153 154 150 147 149 157 155 145 149 171 198 218 218 169 142 133 91 28 17 0 0 0 0 2 3 4 1 0 0 0 0 0 0 0 0 0 0 0 0 0 0 0 0 0 0 0 0 0 0 0 0 0 0 0 0 0 0 0 0 0 0 0 0 0 0 0 0 0 
0 0 0 0 0 0 0 0 0 0 0 0 0 0 0 0 0 0 0 0 0 0 0 0 12 31 14 27 107 144 163 165 167 206 213 184 156 138 134 125 125 139 150 149 139 132 144 130 123 125 123 122 117 120 124 127 128 127 127 124 125 126 132 146 153 150 148 150 155 144 157 191 217 222 177 146 135 101 34 16 0 0 0 2 4 3 2 0 0 0 0 0 0 0 0 0 0 0 0 0 0 0 0 0 0 0 0 0 0 0 0 0 0 0 0 0 0 0 0 0 0 0 0 0 0 0 0 0 
0 0 0 0 0 0 0 0 0 0 0 0 0 0 0 0 0 0 0 0 0 0 3 15 29 12 38 125 148 161 162 172 210 199 175 149 135 125 123 138 149 147 134 106 89 90 105 116 114 112 121 127 126 123 122 122 125 124 124 122 121 117 113 117 140 147 149 146 145 157 149 146 182 215 222 182 153 135 108 47 16 0 0 2 4 4 3 0 0 0 0 0 0 0 0 0 0 0 0 0 0 0 0 0 0 0 0 0 0 0 0 0 0 0 0 0 0 0 0 0 0 0 0 0 0 0 0 0 
0 0 0 0 0 0 0 0 0 0 0 0 0 0 0 0 0 0 0 0 0 4 11 29 15 45 137 148 156 163 182 213 200 177 136 121 112 128 141 145 146 129 95 83 84 93 95 94 96 94 98 84 83 98 93 91 96 104 115 121 126 127 122 117 118 127 136 141 147 142 145 151 140 174 210 219 181 160 133 111 47 9 0 3 4 3 2 0 0 0 0 0 0 0 0 0 0 0 0 0 0 0 0 0 0 0 0 0 0 0 0 0 0 0 0 0 0 0 0 0 0 0 0 0 0 0 0 0 
0 0 0 0 0 0 0 0 0 0 0 0 0 0 0 0 0 0 0 0 5 11 25 14 58 147 147 155 166 187 214 202 168 119 113 112 133 140 136 130 119 100 91 90 90 91 90 90 87 92 81 52 55 88 81 80 84 88 90 97 109 118 125 124 117 113 112 115 131 145 139 137 144 135 175 214 218 176 163 134 115 42 7 3 4 4 1 0 0 0 0 0 0 0 0 0 0 0 0 0 0 0 0 0 0 0 0 0 0 0 0 0 0 0 0 0 0 0 0 0 0 0 0 0 0 0 0 0 
0 0 0 0 0 0 0 0 0 0 0 0 0 0 0 0 0 0 0 4 12 23 12 60 154 146 151 166 188 215 209 158 104 110 113 140 142 130 121 114 94 90 88 84 85 88 83 82 85 82 72 56 59 79 86 81 81 83 84 79 82 88 101 111 112 111 111 111 112 130 141 132 133 140 130 176 220 214 169 166 132 115 30 4 4 4 2 0 0 0 0 0 0 0 0 0 0 0 0 0 0 0 0 0 0 0 0 0 0 0 0 0 0 0 0 0 0 0 0 0 0 0 0 0 0 0 0 0 
0 0 0 0 0 0 0 0 0 0 0 0 0 0 0 0 0 0 3 12 22 15 59 158 148 143 160 182 215 205 148 103 104 113 139 126 117 118 106 89 83 81 83 92 81 80 84 78 62 59 57 57 55 58 75 83 85 82 73 58 53 52 52 68 97 114 113 110 110 118 135 139 123 128 142 133 181 225 201 166 165 127 100 17 5 4 2 0 0 0 0 0 0 0 0 0 0 0 0 0 0 0 0 0 0 0 0 0 0 0 0 0 0 0 0 0 0 0 0 0 0 0 0 0 0 0 0 0 
0 0 0 0 0 0 0 0 0 0 0 0 0 0 0 0 0 2 11 19 18 54 145 156 134 165 177 211 207 140 97 102 103 135 121 112 115 103 88 90 90 87 76 65 63 66 62 53 52 54 54 53 52 54 55 62 65 64 60 57 56 50 52 49 50 77 111 115 112 112 119 133 135 108 123 135 135 185 226 181 167 155 129 80 13 4 2 0 0 0 0 0 0 0 0 0 0 0 0 0 0 0 0 0 0 0 0 0 0 0 0 0 0 0 0 0 0 0 0 0 0 0 0 0 0 0 0 0 
0 0 0 0 0 0 0 0 0 0 0 0 0 0 0 0 0 6 13 19 51 125 163 129 159 168 206 208 138 95 101 104 129 123 115 122 105 86 84 88 75 60 56 55 53 53 51 51 57 53 54 55 55 58 60 64 66 64 66 67 60 57 54 50 50 50 69 108 115 112 105 108 125 126 110 119 120 146 202 207 162 167 138 139 57 7 2 0 0 0 0 0 0 0 0 0 0 0 0 0 0 0 0 0 0 0 0 0 0 0 0 0 0 0 0 0 0 0 0 0 0 0 0 0 0 0 0 0 
0 0 0 0 0 0 0 0 0 0 0 0 0 0 0 0 4 15 17 52 110 171 127 151 166 187 215 152 94 103 107 111 119 116 123 103 85 84 74 57 55 58 57 55 54 56 55 57 56 59 65 72 82 90 104 112 117 107 100 93 86 81 70 55 50 49 54 78 107 121 114 108 107 121 110 105 115 111 163 216 177 159 162 137 111 29 4 0 0 0 0 0 0 0 0 0 0 0 0 0 0 0 0 0 0 0 0 0 0 0 0 0 0 0 0 0 0 0 0 0 0 0 0 0 0 0 0 0 
0 0 0 0 0 0 0 0 0 0 0 0 0 0 0 2 11 14 52 92 162 141 140 162 166 203 163 97 97 109 104 119 120 122 102 92 77 56 59 65 69 76 82 83 76 77 83 81 77 74 89 110 126 135 145 147 147 148 144 136 128 119 103 81 59 51 52 53 69 108 116 115 109 110 119 101 110 111 113 197 193 157 159 145 136 75 9 0 0 0 0 0 0 0 0 0 0 0 0 0 0 0 0 0 0 0 0 0 0 0 0 0 0 0 0 0 0 0 0 0 0 0 0 0 0 0 0 0 
0 0 0 0 0 0 0 0 0 0 0 0 0 0 0 5 14 26 79 127 152 125 153 160 183 188 107 90 107 103 117 119 119 99 81 69 59 64 76 89 105 126 138 136 129 127 133 132 126 122 132 145 149 145 145 147 149 146 145 143 148 145 134 115 88 64 52 50 53 73 107 112 111 106 117 117 106 111 106 143 202 161 158 155 150 111 30 2 0 0 0 0 0 0 0 0 0 0 0 0 0 0 0 0 0 0 0 0 0 0 0 0 0 0 0 0 0 0 0 0 0 0 0 0 0 0 0 0 
0 0 0 0 0 0 0 0 0 0 0 0 0 0 2 9 12 66 103 158 132 135 152 169 191 140 92 99 106 116 118 119 101 90 80 74 84 94 112 134 147 151 151 147 149 144 151 148 150 155 161 167 166 167 165 163 160 154 147 141 142 142 142 138 116 93 65 48 47 53 73 104 113 111 110 127 116 99 108 120 173 172 155 159 153 133 55 3 0 0 0 0 0 0 0 0 0 0 0 0 0 0 0 0 0 0 0 0 0 0 0 0 0 0 0 0 0 0 0 0 0 0 0 0 0 0 0 0 
0 0 0 0 0 0 0 0 0 0 0 0 0 0 4 13 35 85 141 150 127 149 161 172 158 109 94 105 112 124 118 99 84 86 89 100 111 127 144 150 150 140 139 136 142 149 159 166 177 188 197 202 198 199 185 182 193 188 176 160 149 141 139 142 140 118 92 68 53 49 51 70 113 117 109 123 135 103 105 121 137 156 160 160 150 154 83 11 0 0 0 0 0 0 0 0 0 0 0 0 0 0 0 0 0 0 0 0 0 0 0 0 0 0 0 0 0 0 0 0 0 0 0 0 0 0 0 0 
0 0 0 0 0 0 0 0 0 0 0 0 0 0 6 13 64 109 156 139 131 157 169 148 141 112 102 106 125 120 102 86 85 99 111 117 138 142 142 141 131 126 130 140 157 174 187 196 197 179 165 180 184 143 123 127 155 200 203 194 181 166 147 140 138 132 111 93 68 50 46 54 86 116 117 116 132 122 103 114 143 133 150 154 142 161 103 30 2 0 0 0 0 0 0 0 0 0 0 0 0 0 0 0 0 0 0 0 0 0 0 0 0 0 0 0 0 0 0 0 0 0 0 0 0 0 0 0 
0 0 0 0 0 0 0 0 0 0 0 0 0 3 8 25 85 130 155 137 140 166 144 136 135 113 105 106 126 105 89 90 100 112 116 130 136 133 127 126 124 134 155 181 194 194 190 183 153 126 122 117 152 119 127 126 129 150 142 181 198 200 186 163 140 132 126 108 89 59 46 49 63 95 114 115 123 124 100 109 144 132 132 149 138 158 124 47 3 0 0 0 0 0 0 0 0 0 0 0 0 0 0 0 0 0 0 0 0 0 0 0 0 0 0 0 0 0 0 0 0 0 0 0 0 0 0 0 
0 0 0 0 0 0 0 0 0 0 0 0 0 4 8 49 108 138 153 133 157 149 114 140 136 109 92 107 121 90 92 96 113 115 124 129 127 123 128 133 149 179 202 203 188 173 138 131 138 132 126 119 120 124 128 130 128 126 121 123 132 177 196 198 180 146 134 123 104 78 51 46 53 79 102 115 121 115 100 96 141 145 127 152 148 152 150 63 4 0 0 0 0 0 0 0 0 0 0 0 0 0 0 0 0 0 0 0 0 0 0 0 0 0 0 0 0 0 0 0 0 0 0 0 0 0 0 0 
0 0 0 0 0 0 0 0 0 0 0 0 0 5 14 71 130 151 156 132 140 115 112 143 126 90 84 112 99 86 95 105 110 109 123 126 123 125 139 160 193 208 198 170 153 129 133 131 138 134 130 125 121 129 134 132 138 133 126 123 120 120 149 191 205 194 157 133 119 100 66 49 48 67 87 103 114 109 93 96 136 154 125 150 152 145 163 74 6 0 0 0 0 0 0 0 0 0 0 0 0 0 0 0 0 0 0 0 0 0 0 0 0 0 0 0 0 0 0 0 0 0 0 0 0 0 0 0 
0 0 0 0 0 0 0 0 0 0 0 0 0 5 22 95 134 157 139 130 119 107 121 146 104 77 87 101 84 94 100 111 107 115 123 123 124 134 169 203 204 170 131 127 123 123 125 127 133 134 133 125 128 128 126 127 161 157 129 127 124 127 124 152 192 206 204 166 137 119 93 63 46 54 81 97 119 112 82 95 130 154 118 154 153 145 174 86 13 0 0 0 0 0 0 0 0 0 0 0 0 0 0 0 0 0 0 0 0 0 0 0 0 0 0 0 0 0 0 0 0 0 0 0 0 0 0 0 
0 0 0 0 0 0 0 0 0 0 0 0 2 7 29 113 135 160 133 129 116 108 132 141 87 82 79 92 88 96 106 110 109 117 122 127 139 175 200 196 160 128 127 127 126 124 124 122 127 131 128 127 126 125 111 101 101 114 120 126 129 129 130 125 162 188 206 205 165 134 114 80 52 51 75 92 117 110 80 88 125 156 112 154 158 143 162 109 21 0 0 0 0 0 0 0 0 0 0 0 0 0 0 0 0 0 0 0 0 0 0 0 0 0 0 0 0 0 0 0 0 0 0 0 0 0 0 0 
0 0 0 0 0 0 0 0 0 0 0 0 3 7 44 120 142 168 135 134 110 106 130 140 87 76 66 96 94 96 108 110 115 117 117 137 177 208 205 168 128 126 127 126 128 125 124 115 121 111 119 118 113 109 92 81 81 96 112 124 130 129 130 127 126 162 196 211 196 161 128 104 64 49 68 86 110 106 81 88 129 156 117 149 163 147 147 129 29 1 0 0 0 0 0 0 0 0 0 0 0 0 0 0 0 0 0 0 0 0 0 0 0 0 0 0 0 0 0 0 0 0 0 0 0 0 0 0 
0 0 0 0 0 0 0 0 0 0 0 0 3 8 57 122 149 157 133 141 111 101 126 148 98 64 57 94 91 103 110 119 123 112 128 172 208 205 195 166 124 124 124 120 120 119 119 118 112 92 99 103 94 92 73 65 65 77 93 107 118 126 128 127 126 166 185 191 206 207 165 117 76 52 57 80 98 97 82 87 129 161 124 148 164 147 137 147 43 2 0 0 0 0 0 0 0 0 0 0 0 0 0 0 0 0 0 0 0 0 0 0 0 0 0 0 0 0 0 0 0 0 0 0 0 0 0 0 
0 0 0 0 0 0 0 0 0 0 0 0 3 10 69 123 159 141 133 143 113 100 125 146 101 53 56 95 97 111 121 125 114 124 171 204 203 191 190 193 170 134 105 101 107 111 111 112 98 79 85 90 81 81 67 55 59 61 72 88 105 120 127 128 144 181 181 179 199 218 218 177 99 52 54 72 88 81 82 84 135 164 125 138 166 154 133 153 57 2 0 0 0 0 0 0 0 0 0 0 0 0 0 0 0 0 0 0 0 0 0 0 0 0 0 0 0 0 0 0 0 0 0 0 0 0 0 0 
0 0 0 0 0 0 0 0 0 0 0 0 3 11 75 130 167 131 136 142 110 99 125 140 103 47 54 98 119 116 121 130 138 181 208 210 194 162 140 124 112 111 118 108 83 87 92 95 75 65 75 81 80 72 59 56 55 51 59 65 82 104 124 145 141 137 125 119 133 163 201 215 184 101 69 81 77 71 82 98 141 163 126 123 164 151 133 151 82 6 0 0 0 0 0 0 0 0 0 0 0 0 0 0 0 0 0 0 0 0 0 0 0 0 0 0 0 0 0 0 0 0 0 0 0 0 0 0 
0 0 0 0 0 0 0 0 0 0 0 0 3 17 79 137 170 128 136 144 118 105 120 145 109 60 53 97 130 123 126 145 191 211 206 174 133 125 121 105 89 80 70 67 75 98 77 78 64 58 64 72 70 61 56 55 56 53 56 58 68 103 125 137 137 133 128 126 121 132 142 155 175 157 115 82 64 66 87 126 158 151 125 121 159 156 135 148 107 8 0 0 0 0 0 0 0 0 0 0 0 0 0 0 0 0 0 0 0 0 0 0 0 0 0 0 0 0 0 0 0 0 0 0 0 0 0 0 
0 0 0 0 0 0 0 0 0 0 0 0 4 18 79 147 176 135 136 142 120 106 118 152 113 76 54 95 139 135 143 197 213 199 148 126 126 128 118 106 90 75 67 62 62 75 105 78 59 57 58 62 61 60 55 55 54 53 52 57 96 102 133 145 152 152 149 142 142 155 157 146 135 125 104 81 63 81 112 157 161 130 117 115 148 158 137 140 125 13 0 0 0 0 0 0 0 0 0 0 0 0 0 0 0 0 0 0 0 0 0 0 0 0 0 0 0 0 0 0 0 0 0 0 0 0 0 0 
0 0 0 0 0 0 0 0 0 0 0 0 4 21 77 155 175 132 133 130 118 104 116 141 127 80 64 91 135 143 184 214 187 129 125 132 136 137 134 122 105 87 74 70 67 67 74 104 61 58 57 58 56 54 55 55 56 56 52 103 83 102 129 139 143 143 141 141 145 156 159 154 136 108 86 75 73 109 145 169 147 118 109 120 138 154 139 134 133 17 0 0 0 0 0 0 0 0 0 0 0 0 0 0 0 0 0 0 0 0 0 0 0 0 0 0 0 0 0 0 0 0 0 0 0 0 0 0 
0 0 0 0 0 0 0 0 0 0 0 0 3 23 73 162 175 132 124 116 119 109 115 119 129 93 82 98 123 156 199 199 137 118 135 148 151 138 120 99 90 87 87 85 68 61 62 91 75 59 58 57 55 58 56 54 54 54 56 82 75 89 107 126 136 136 129 125 128 142 154 157 146 120 83 64 70 126 167 151 143 111 95 114 135 146 136 129 145 25 0 0 0 0 0 0 0 0 0 0 0 0 0 0 0 0 0 0 0 0 0 0 0 0 0 0 0 0 0 0 0 0 0 0 0 0 0 0 
0 0 0 0 0 0 0 0 0 0 0 0 3 22 72 168 174 128 111 113 119 110 109 104 121 120 95 111 115 145 181 162 143 140 148 149 139 116 91 76 69 67 66 74 79 63 59 81 86 57 57 54 55 72 63 55 55 51 65 77 68 65 92 120 126 130 128 124 126 133 146 161 152 114 67 56 58 124 169 154 141 105 87 101 140 143 145 131 154 36 0 0 0 0 0 0 0 0 0 0 0 0 0 0 0 0 0 0 0 0 0 0 0 0 0 0 0 0 0 0 0 0 0 0 0 0 0 0 
0 0 0 0 0 0 0 0 0 0 0 0 3 21 68 172 166 131 110 112 119 114 98 92 115 134 86 82 111 129 153 151 151 143 139 139 127 96 70 67 66 66 64 61 72 75 61 71 94 55 53 67 68 78 57 52 53 52 55 73 58 61 85 113 129 130 132 130 131 136 147 160 149 99 67 55 50 110 168 164 145 104 83 75 137 142 149 128 154 44 0 0 0 0 0 0 0 0 0 0 0 0 0 0 0 0 0 0 0 0 0 0 0 0 0 0 0 0 0 0 0 0 0 0 0 0 0 0 
0 0 0 0 0 0 0 0 0 0 0 0 3 22 73 176 162 125 106 114 118 110 89 87 107 122 95 75 108 131 149 143 143 150 149 138 119 86 64 59 63 65 61 62 60 68 72 73 101 60 56 59 59 74 74 60 55 56 71 69 53 61 77 105 126 130 130 129 134 139 146 156 145 101 70 51 51 97 155 148 134 103 81 83 130 140 150 124 154 52 1 0 0 0 0 0 0 0 0 0 0 0 0 0 0 0 0 0 0 0 0 0 0 0 0 0 0 0 0 0 0 0 0 0 0 0 0 0 
0 0 0 0 0 0 0 0 0 0 0 0 3 23 80 177 159 120 114 122 115 91 83 84 105 117 107 67 103 135 144 146 142 150 150 137 118 82 62 61 59 60 55 55 57 58 66 82 111 77 62 57 87 92 90 101 72 77 87 56 52 58 73 98 127 135 133 131 130 139 148 154 134 100 64 45 46 86 144 142 130 106 77 93 124 128 145 125 154 57 3 0 0 0 0 0 0 0 0 0 0 0 0 0 0 0 0 0 0 0 0 0 0 0 0 0 0 0 0 0 0 0 0 0 0 0 0 0 
0 0 0 0 0 0 0 0 0 0 0 0 4 21 80 175 152 114 119 123 104 80 84 85 107 118 82 57 96 132 143 144 132 130 136 137 123 88 65 61 61 57 58 53 48 54 58 55 63 55 73 77 85 63 68 61 79 51 72 57 58 67 80 98 125 132 129 132 133 141 152 150 118 92 58 44 46 73 125 138 126 105 71 97 129 127 134 109 150 59 3 0 0 0 0 0 0 0 0 0 0 0 0 0 0 0 0 0 0 0 0 0 0 0 0 0 0 0 0 0 0 0 0 0 0 0 0 0 
0 0 0 0 0 0 0 0 0 0 0 0 5 16 79 172 149 106 124 122 94 79 82 87 115 82 53 50 77 130 147 138 134 132 135 137 130 102 71 62 61 62 55 58 52 57 57 50 51 52 51 84 60 53 67 48 64 62 53 77 96 108 94 110 127 134 132 134 135 142 156 140 93 71 49 48 48 91 145 139 128 105 65 96 130 130 132 108 149 59 3 0 0 0 0 0 0 0 0 0 0 0 0 0 0 0 0 0 0 0 0 0 0 0 0 0 0 0 0 0 0 0 0 0 0 0 0 0 
0 0 0 0 0 0 0 0 0 0 0 0 5 15 77 161 146 100 131 107 93 83 81 90 122 91 49 46 64 126 149 133 128 134 137 140 133 119 87 65 55 60 55 62 73 74 60 54 49 54 70 95 73 57 79 69 54 80 57 81 75 83 89 118 130 136 136 138 145 150 158 129 87 70 43 48 73 141 146 135 124 103 55 90 132 130 130 118 143 55 3 0 0 0 0 0 0 0 0 0 0 0 0 0 0 0 0 0 0 0 0 0 0 0 0 0 0 0 0 0 0 0 0 0 0 0 0 0 
0 0 0 0 0 0 0 0 0 0 0 0 6 13 70 154 149 98 132 105 92 84 83 90 118 85 43 45 57 116 148 135 128 139 140 137 131 126 100 67 56 56 55 73 85 82 75 55 61 68 69 54 43 39 49 44 63 85 73 63 66 72 89 119 133 131 128 143 151 155 155 118 81 62 48 54 122 137 137 136 116 94 50 92 131 132 115 114 134 50 3 0 0 0 0 0 0 0 0 0 0 0 0 0 0 0 0 0 0 0 0 0 0 0 0 0 0 0 0 0 0 0 0 0 0 0 0 0 
0 0 0 0 0 0 0 0 0 0 0 0 6 11 66 143 149 103 131 106 91 84 81 86 117 87 51 48 53 108 152 147 133 137 134 137 136 126 96 63 55 54 57 58 66 66 63 68 74 48 75 44 44 45 46 50 43 54 90 63 55 62 89 117 132 134 139 146 148 157 152 112 79 55 52 63 137 140 131 145 112 80 52 105 132 130 98 111 136 46 3 0 0 0 0 0 0 0 0 0 0 0 0 0 0 0 0 0 0 0 0 0 0 0 0 0 0 0 0 0 0 0 0 0 0 0 0 0 
0 0 0 0 0 0 0 0 0 0 0 0 4 11 62 131 145 99 127 106 88 86 82 88 117 99 49 46 52 96 148 152 140 135 132 136 142 126 85 61 54 54 54 55 58 54 49 66 70 63 64 54 44 52 53 47 56 45 81 63 52 61 78 111 132 136 139 141 146 158 149 105 64 50 54 63 120 137 126 139 107 63 54 115 133 125 86 117 125 39 2 0 0 0 0 0 0 0 0 0 0 0 0 0 0 0 0 0 0 0 0 0 0 0 0 0 0 0 0 0 0 0 0 0 0 0 0 0 
0 0 0 0 0 0 0 0 0 0 0 0 0 11 51 119 140 94 119 105 83 87 82 84 113 115 56 44 50 86 143 151 145 137 138 136 140 126 79 59 58 56 56 58 67 53 54 53 50 70 60 62 48 66 57 49 60 45 78 82 58 57 79 108 132 135 132 137 147 155 142 89 46 45 47 78 136 132 129 136 99 51 55 120 136 116 79 122 105 32 4 0 0 0 0 0 0 0 0 0 0 0 0 0 0 0 0 0 0 0 0 0 0 0 0 0 0 0 0 0 0 0 0 0 0 0 0 0 
0 0 0 0 0 0 0 0 0 0 11 5 0 6 37 102 146 106 109 108 69 87 84 82 100 109 73 46 46 96 159 148 138 129 130 138 139 124 84 69 69 57 48 47 48 59 76 50 54 69 70 73 50 67 62 55 58 49 52 106 112 80 80 109 128 128 128 138 148 152 122 69 43 42 47 107 135 121 134 137 83 45 64 129 144 100 85 140 94 28 2 0 0 0 0 0 0 0 0 0 0 0 0 0 0 0 0 0 0 0 0 0 0 0 0 0 0 0 0 0 0 0 0 0 0 0 0 0 
0 0 0 0 0 0 0 0 0 4 23 14 8 7 26 91 144 122 106 102 63 84 86 85 95 111 87 49 53 143 201 176 129 125 127 140 136 122 86 71 53 48 47 53 70 83 56 50 58 67 88 89 63 73 65 55 66 66 54 118 109 77 95 117 129 131 133 137 150 148 100 48 42 45 59 139 181 178 159 127 62 44 83 136 145 81 107 143 84 24 2 0 0 0 0 0 0 0 0 0 0 0 0 0 0 0 0 0 0 0 0 0 0 0 0 0 0 0 0 0 0 0 0 0 0 0 0 0 
0 0 0 0 0 0 0 0 0 3 15 7 2 8 18 77 144 142 115 112 74 77 89 84 87 117 103 69 75 164 189 203 159 130 123 129 132 119 103 61 54 51 55 87 69 50 50 46 64 67 109 110 77 96 80 57 50 50 64 111 101 81 105 121 126 126 131 136 149 147 80 48 80 97 127 161 152 182 182 93 43 58 109 151 134 61 123 130 69 16 3 0 0 0 0 0 0 0 0 0 0 0 0 0 0 0 0 0 0 0 0 0 0 0 0 0 0 0 0 0 0 0 0 0 0 0 0 0 
0 0 0 0 0 0 0 0 0 0 9 3 2 7 11 60 143 157 119 115 93 67 86 86 82 105 101 91 99 167 179 196 181 159 127 119 125 137 130 97 87 68 53 85 76 53 46 72 67 88 134 120 99 110 100 60 51 54 63 103 102 94 117 128 127 125 139 157 159 146 113 114 157 189 183 150 148 194 185 69 40 87 162 159 122 89 145 117 54 12 10 10 11 2 0 0 0 0 0 0 0 0 0 0 0 0 0 0 0 0 0 0 0 0 0 0 0 0 0 0 0 0 0 0 0 0 0 0 
0 0 0 0 0 0 0 0 0 0 1 0 3 5 10 49 138 160 127 112 100 65 69 89 84 94 107 95 125 161 135 176 152 146 149 139 141 151 144 117 105 99 94 84 56 56 44 70 79 103 141 126 116 133 119 72 58 74 103 123 101 120 150 156 147 154 166 174 185 160 115 117 138 172 185 156 171 212 172 52 56 126 172 159 101 123 155 108 39 11 4 2 7 15 0 0 0 0 0 0 0 0 0 0 0 0 0 0 0 0 0 0 0 0 0 0 0 0 0 0 0 0 0 0 0 0 0 0 
0 0 0 0 0 0 0 0 0 0 0 0 4 8 6 35 129 152 143 118 114 77 57 109 97 88 113 98 128 183 122 156 202 193 170 159 156 152 145 114 94 79 52 48 55 65 53 71 93 129 151 136 131 158 138 91 86 88 94 81 74 107 134 148 147 145 160 177 171 153 149 142 153 128 166 165 189 218 141 96 108 152 177 156 100 135 159 96 24 11 0 2 0 6 0 0 0 0 0 0 0 0 0 0 0 0 0 0 0 0 0 0 0 0 0 0 0 0 0 0 0 0 0 0 0 0 0 0 
0 0 0 0 0 0 0 0 0 0 0 0 10 11 9 24 113 147 139 134 128 100 86 99 102 83 105 118 137 160 140 144 172 187 179 155 155 161 155 134 103 66 56 53 57 64 60 72 121 162 155 129 131 155 153 155 119 95 91 90 94 116 139 139 139 143 165 148 102 108 144 165 168 124 136 135 161 190 140 95 127 160 183 159 135 166 165 75 10 7 5 0 0 0 0 0 0 0 0 0 0 0 0 0 0 0 0 0 0 0 0 0 0 0 0 0 0 0 0 0 0 0 0 0 0 0 0 0 
0 0 0 0 0 0 0 0 0 0 0 0 18 8 0 20 106 151 121 124 156 147 88 97 110 103 128 166 182 171 156 151 145 150 175 165 169 167 170 152 137 92 80 79 78 78 98 104 135 165 163 138 130 170 176 144 113 112 116 118 133 138 147 143 149 161 149 105 60 97 136 157 139 126 126 134 131 144 138 97 145 163 166 172 158 175 162 56 10 10 9 0 0 0 0 0 0 0 0 0 0 0 0 0 0 0 0 0 0 0 0 0 0 0 0 0 0 0 0 0 0 0 0 0 0 0 0 0 
0 0 0 0 0 0 0 0 0 0 0 0 0 3 0 7 47 158 145 103 143 195 149 114 112 99 116 176 202 199 176 140 108 118 124 157 163 149 147 156 162 158 129 117 115 118 125 128 143 137 131 144 166 155 163 149 122 113 143 159 158 156 152 150 172 172 144 93 68 96 106 96 115 133 146 155 145 127 146 113 150 143 150 158 117 160 174 71 0 0 4 0 0 0 0 0 0 0 0 0 0 0 0 0 0 0 0 0 0 0 0 0 0 0 0 0 0 0 0 0 0 0 0 0 0 0 0 0 
0 0 0 0 0 0 0 0 0 0 0 0 0 2 0 6 30 136 168 102 133 184 172 167 143 106 137 191 191 176 131 137 134 105 73 105 152 155 150 145 152 153 143 146 139 140 140 146 144 127 107 120 140 142 140 136 135 125 142 167 165 143 151 170 181 170 127 84 85 106 102 80 106 142 145 165 146 141 140 147 156 130 144 101 85 103 147 36 1 0 5 0 0 0 0 0 0 0 0 0 0 0 0 0 0 0 0 0 0 0 0 0 0 0 0 0 0 0 0 0 0 0 0 0 0 0 0 0 
0 0 0 0 0 0 0 0 0 0 0 0 0 3 0 6 15 86 167 86 118 156 176 170 189 178 178 188 175 172 114 132 163 103 67 55 110 151 160 164 146 141 136 135 135 138 136 132 134 134 117 95 104 123 126 129 137 134 139 148 160 151 152 160 156 112 71 64 85 102 85 80 104 112 125 138 143 176 161 145 149 141 102 68 85 135 105 15 2 0 3 0 0 0 0 0 0 0 0 0 0 0 0 0 0 0 0 0 0 0 0 0 0 0 0 0 0 0 0 0 0 0 0 0 0 0 0 0 
0 0 0 0 0 0 0 0 0 0 0 0 0 4 0 3 14 45 168 164 111 128 159 175 189 193 169 153 138 170 156 167 156 130 100 62 57 107 154 180 169 162 148 138 141 144 146 137 147 133 109 99 118 127 134 150 141 141 146 151 162 163 159 126 80 48 43 45 60 93 77 86 118 139 129 101 146 180 145 129 128 137 92 82 151 168 62 8 3 2 3 0 0 0 0 0 0 0 0 0 0 0 0 0 0 0 0 0 0 0 0 0 0 0 0 0 0 0 0 0 0 0 0 0 0 0 0 0 
0 0 0 0 0 0 0 0 0 0 0 0 0 6 0 3 17 21 115 126 80 97 127 142 150 164 150 119 106 158 188 183 161 145 144 110 47 48 74 129 160 159 156 160 158 161 166 155 141 129 135 125 126 131 148 152 164 165 166 170 161 128 92 56 45 43 46 44 57 93 112 147 175 179 154 130 146 151 106 102 106 107 105 57 122 116 38 10 3 4 3 0 0 0 0 0 0 0 0 0 0 0 0 0 0 0 0 0 0 0 0 0 0 0 0 0 0 0 0 0 0 0 0 0 0 0 0 0 
0 0 0 0 0 0 0 0 0 0 0 0 0 6 0 6 20 16 64 110 70 64 103 118 108 136 143 126 84 118 156 157 158 149 147 162 136 70 47 58 93 114 133 137 137 153 134 122 121 134 151 156 139 141 155 145 127 140 140 115 92 59 53 52 46 48 44 47 86 135 186 190 145 105 81 92 146 128 115 121 122 96 59 104 154 70 32 19 4 7 2 0 0 0 0 0 0 0 0 0 0 0 0 0 0 0 0 0 0 0 0 0 0 0 0 0 0 0 0 0 0 0 0 0 0 0 0 0 
0 0 0 0 0 0 0 0 0 0 0 1 4 7 2 8 22 17 26 134 159 62 77 120 114 117 136 129 108 92 137 151 147 140 120 110 94 121 130 53 47 55 54 65 97 103 93 97 100 119 131 140 141 142 131 129 127 122 95 55 54 81 105 76 60 42 45 65 118 182 165 139 114 68 58 103 143 122 118 121 126 82 43 134 131 45 27 30 7 8 4 0 0 0 0 0 0 0 0 0 0 0 0 0 0 0 0 0 0 0 0 0 0 0 0 0 0 0 0 0 0 0 0 0 0 0 0 0 
0 0 0 0 0 0 0 0 0 0 0 0 7 8 4 9 22 18 13 92 152 74 76 99 132 130 131 142 129 128 137 153 156 147 116 104 88 57 72 114 58 50 68 78 83 79 85 110 147 144 138 138 134 142 147 142 142 135 112 99 87 95 123 123 101 78 76 110 151 142 127 121 114 90 76 110 128 132 127 130 96 59 20 139 102 28 21 30 14 9 6 0 0 0 0 0 0 0 0 0 0 0 0 0 0 0 0 0 0 0 0 0 0 0 0 0 0 0 0 0 0 0 0 0 0 0 0 0 
0 0 0 0 0 0 0 0 0 0 0 0 4 5 4 9 21 18 15 48 149 81 74 85 110 135 134 139 127 118 142 142 139 141 112 97 93 88 80 81 114 94 99 97 99 98 105 129 151 143 127 116 102 100 129 131 122 115 104 112 115 136 150 154 145 139 127 142 158 105 82 60 82 111 90 118 133 172 135 118 87 76 26 155 75 28 21 27 18 10 6 0 0 0 0 0 0 0 0 0 0 0 0 0 0 0 0 0 0 0 0 0 0 0 0 0 0 0 0 0 0 0 0 0 0 0 0 0 
0 0 0 0 0 0 0 0 0 0 0 0 0 0 3 6 10 10 13 27 130 131 81 80 89 119 152 149 170 122 132 167 142 120 105 103 99 97 96 90 91 132 126 102 98 99 119 148 145 143 113 105 106 112 121 125 126 119 111 116 119 143 161 200 199 149 145 145 127 56 46 60 113 161 134 131 157 181 134 93 83 81 98 151 57 31 26 26 17 9 7 0 0 0 0 0 0 0 0 0 0 0 0 0 0 0 0 0 0 0 0 0 0 0 0 0 0 0 0 0 0 0 0 0 0 0 0 0 
0 0 0 0 0 0 0 0 0 0 0 0 10 5 3 7 4 12 6 26 116 144 95 74 80 103 144 150 176 148 130 163 157 101 67 70 82 93 104 104 105 123 163 134 116 126 150 137 140 151 132 148 160 131 137 122 131 129 123 120 122 145 179 184 151 102 60 91 125 79 76 115 158 183 173 145 164 172 115 90 86 87 109 133 46 29 26 25 12 9 5 2 0 0 0 0 0 0 0 0 0 0 0 0 0 0 0 0 0 0 0 0 0 0 0 0 0 0 0 0 0 0 0 0 0 0 0 0 
0 0 0 0 0 0 0 0 0 0 0 0 12 8 4 7 6 16 11 19 88 149 123 68 59 73 93 121 152 140 151 163 158 132 88 58 55 91 111 117 116 126 197 178 131 135 149 127 125 146 145 177 186 150 126 105 117 132 133 118 116 148 154 139 126 108 71 94 117 81 114 148 170 160 149 182 173 195 137 87 93 110 128 120 36 26 23 16 11 9 1 0 0 0 0 0 0 0 0 0 0 0 0 0 0 0 0 0 0 0 0 0 0 0 0 0 0 0 0 0 0 0 0 0 0 0 0 0 
0 0 0 0 0 0 0 0 0 0 0 0 10 12 5 6 13 17 10 13 38 130 120 45 28 57 78 97 133 119 156 177 175 160 142 137 139 118 93 93 114 147 212 211 149 113 132 110 112 127 141 138 114 132 85 55 52 60 80 75 80 152 153 148 138 128 85 120 164 147 148 156 151 128 119 139 123 192 167 83 55 104 141 94 22 23 23 14 9 1 0 0 0 0 0 0 0 0 0 0 0 0 0 0 0 0 0 0 0 0 0 0 0 0 0 0 0 0 0 0 0 0 0 0 0 0 0 0 
0 0 0 0 0 0 0 0 0 0 0 0 14 15 14 16 13 6 9 11 15 80 132 42 22 47 79 101 158 142 139 153 175 187 185 177 165 136 110 90 91 135 204 220 216 133 119 121 123 137 129 85 87 102 143 130 82 58 69 81 90 137 130 144 151 131 120 171 207 168 152 111 90 83 95 131 86 137 151 117 59 112 132 41 9 8 11 19 3 0 0 0 3 0 0 0 0 0 0 0 0 0 0 0 0 0 0 0 0 0 0 0 0 0 0 0 0 0 0 0 0 0 0 0 0 0 0 0 
0 0 0 0 0 0 0 0 0 0 0 0 14 11 10 10 1 6 3 10 19 28 86 40 32 36 37 102 186 178 162 111 86 109 148 167 164 160 171 171 167 208 227 212 239 236 191 196 205 181 152 148 162 173 163 159 156 149 143 133 124 172 194 175 170 184 156 190 205 163 112 96 103 119 96 82 71 105 106 142 129 147 76 27 14 6 8 11 10 0 0 9 14 0 0 0 0 0 0 0 0 0 0 0 0 0 0 0 0 0 0 0 0 0 0 0 0 0 0 0 0 0 0 0 0 0 0 0 
0 0 0 0 0 0 0 0 0 0 0 0 5 5 4 0 0 1 5 6 7 17 37 89 37 34 41 60 118 150 168 152 124 90 62 58 90 101 121 146 192 204 187 152 190 224 151 154 190 164 160 172 196 205 193 182 152 123 126 159 178 195 208 191 202 207 133 135 184 184 192 187 168 149 141 131 95 86 52 95 111 82 43 27 23 7 6 7 3 2 5 8 16 0 0 0 0 0 0 0 0 0 0 0 0 0 0 0 0 0 0 0 0 0 0 0 0 0 0 0 0 0 0 0 0 0 0 0 
0 0 0 0 0 0 0 0 0 0 0 0 0 4 2 0 0 0 0 2 1 13 31 84 123 83 32 14 74 37 80 83 103 84 71 59 66 80 112 195 210 195 194 210 227 235 219 163 171 155 122 140 137 114 95 117 127 118 121 135 120 137 160 85 111 117 110 140 143 142 190 183 128 105 109 138 133 115 45 36 39 46 41 21 14 2 6 6 2 0 0 7 10 0 0 0 0 0 0 0 0 0 0 0 0 0 0 0 0 0 0 0 0 0 0 0 0 0 0 0 0 0 0 0 0 0 0 0 
0 0 0 0 0 0 0 0 0 0 0 0 0 7 11 0 0 0 0 2 8 16 27 28 57 65 32 30 102 47 58 54 49 55 54 56 59 68 87 89 105 202 204 204 212 217 174 112 114 80 46 82 79 56 55 80 76 55 83 81 65 53 44 139 214 144 92 75 70 59 49 42 38 44 75 61 43 109 45 28 24 28 24 8 5 2 6 7 4 0 0 9 7 0 0 0 0 0 0 0 0 0 0 0 0 0 0 0 0 0 0 0 0 0 0 0 0 0 0 0 0 0 0 0 0 0 0 0 
0 0 0 0 0 0 0 0 0 0 0 0 0 0 11 0 0 0 0 0 5 9 20 22 25 23 23 25 102 70 57 54 34 35 40 49 54 59 69 62 51 65 63 60 120 110 64 65 79 69 41 67 65 55 61 82 76 45 60 65 60 68 68 54 48 62 64 131 134 112 42 29 38 39 61 43 46 99 36 27 25 28 22 4 4 1 3 5 3 0 8 9 6 0 0 0 0 0 0 0 0 0 0 0 0 0 0 0 0 0 0 0 0 0 0 0 0 0 0 0 0 0 0 0 0 0 0 0 
0 0 0 0 0 0 0 0 0 0 0 0 0 0 0 0 0 0 0 0 3 7 8 18 25 32 29 34 109 101 73 61 47 63 58 48 55 70 83 105 111 90 86 64 71 67 68 70 101 79 69 88 82 75 77 89 99 62 93 129 121 140 148 136 115 78 52 92 118 119 67 27 49 66 77 62 57 80 33 24 18 22 13 0 0 0 0 2 0 0 4 3 0 0 0 0 0 0 0 0 0 0 0 0 0 0 0 0 0 0 0 0 0 0 0 0 0 0 0 0 0 0 0 0 0 0 0 0 
0 0 0 0 0 0 0 0 0 0 0 0 0 0 0 0 0 0 0 0 0 1 3 5 13 29 34 40 106 128 121 97 94 122 101 43 46 105 91 110 147 170 125 118 135 132 152 140 114 107 106 133 136 146 139 122 123 102 125 166 158 147 145 149 142 125 118 148 164 160 114 23 14 13 16 23 35 34 13 8 7 13 0 0 0 0 0 0 0 0 0 0 0 0 0 0 0 0 0 0 0 0 0 0 0 0 0 0 0 0 0 0 0 0 0 0 0 0 0 0 0 0 0 0 0 0 0 0 
0 0 0 0 0 0 0 0 0 0 0 0 0 0 0 0 0 0 0 0 0 0 1 14 26 26 24 32 80 132 130 101 96 120 93 55 55 78 108 96 158 176 119 137 151 169 197 181 134 113 140 168 192 215 204 131 115 100 101 114 120 158 146 142 187 137 183 153 154 173 137 62 18 9 17 35 65 50 29 19 29 34 2 2 2 0 1 2 0 0 0 0 0 0 0 0 0 0 0 0 0 0 0 0 0 0 0 0 0 0 0 0 0 0 0 0 0 0 0 0 0 0 0 0 0 0 0 0 
0 0 0 0 0 0 0 0 0 0 0 0 0 0 0 0 0 0 0 0 0 0 0 9 20 32 22 30 50 115 101 85 59 91 71 29 52 69 72 70 122 127 100 108 119 102 132 126 125 113 134 113 107 100 93 92 144 144 110 105 136 145 94 66 103 228 214 130 167 134 64 30 10 56 88 78 101 45 19 11 14 17 4 0 4 7 10 11 8 5 0 0 0 0 0 0 0 0 0 0 0 0 0 0 0 0 0 0 0 0 0 0 0 0 0 0 0 0 0 0 0 0 0 0 0 0 0 0 
0 0 0 0 0 0 0 0 0 0 0 0 0 0 0 0 0 0 0 0 0 0 3 5 11 22 18 19 28 105 105 92 39 71 46 21 36 67 93 105 102 106 84 67 71 103 133 129 63 121 130 95 97 78 96 60 107 112 116 104 126 126 103 74 67 71 83 100 128 116 103 82 57 63 114 89 104 46 23 16 21 23 6 1 0 2 7 9 7 4 0 0 0 0 0 0 0 0 0 0 0 0 0 0 0 0 0 0 0 0 0 0 0 0 0 0 0 0 0 0 0 0 0 0 0 0 0 0 
0 0 0 0 0 0 0 0 0 0 0 0 0 0 0 0 0 0 0 0 0 0 2 5 6 15 23 21 23 81 118 102 43 70 57 27 36 51 89 102 88 88 84 104 94 87 122 105 45 105 117 100 109 105 108 88 108 109 116 108 126 129 89 46 65 96 88 103 105 102 86 57 26 46 116 107 105 45 23 22 27 10 5 1 0 1 5 9 8 5 0 0 0 0 0 0 0 0 0 0 0 0 0 0 0 0 0 0 0 0 0 0 0 0 0 0 0 0 0 0 0 0 0 0 0 0 0 0 
0 0 0 0 0 0 0 0 0 0 0 0 0 0 0 0 0 0 0 0 0 0 2 4 7 9 21 26 21 62 126 97 51 64 58 33 34 38 66 103 106 99 101 94 55 50 65 58 64 118 119 94 104 104 106 100 112 111 115 121 151 135 72 44 94 80 108 112 91 67 59 42 22 34 112 113 104 54 23 23 25 8 5 0 0 0 4 8 8 4 0 0 0 0 0 0 0 0 0 0 0 0 0 0 0 0 0 0 0 0 0 0 0 0 0 0 0 0 0 0 0 0 0 0 0 0 0 0 
0 0 0 0 0 0 0 0 0 0 0 0 0 0 0 0 0 0 0 0 0 0 0 4 4 7 16 26 25 48 86 63 64 62 60 29 35 33 46 60 90 91 120 90 62 57 92 129 108 153 136 89 104 110 104 109 121 111 121 140 159 127 55 65 66 48 83 106 92 73 51 32 22 29 101 105 79 68 24 25 22 8 4 0 0 2 5 8 8 6 0 0 0 0 0 0 0 0 0 0 0 0 0 0 0 0 0 0 0 0 0 0 0 0 0 0 0 0 0 0 0 0 0 0 0 0 0 0 
0 0 0 0 0 0 0 0 0 0 0 0 0 0 0 0 0 0 0 0 0 0 0 0 5 7 10 21 23 45 71 39 66 64 64 30 38 35 38 61 68 106 108 60 62 62 89 114 81 114 124 78 87 97 84 89 94 86 110 141 102 89 64 74 66 58 69 100 76 70 64 35 22 22 83 98 48 74 28 26 19 9 1 0 0 1 6 9 10 8 2 0 0 0 0 0 0 0 0 0 0 0 0 0 0 0 0 0 0 0 0 0 0 0 0 0 0 0 0 0 0 0 0 0 0 0 0 0 
0 0 0 0 0 0 0 0 0 0 0 0 0 0 0 0 0 0 0 0 0 0 0 0 2 3 10 16 20 36 59 44 59 56 74 34 40 45 52 55 68 130 89 78 71 67 85 114 77 101 122 77 67 70 71 79 79 74 104 137 88 64 93 101 75 65 83 119 125 57 67 45 33 30 76 82 54 65 24 23 20 6 1 0 0 0 3 7 9 7 2 0 0 0 0 0 0 0 0 0 0 0 0 0 0 0 0 0 0 0 0 0 0 0 0 0 0 0 0 0 0 0 0 0 0 0 0 0 
0 0 0 0 0 0 0 0 0 0 0 0 0 0 0 0 0 0 0 0 0 0 0 0 2 4 7 15 16 18 63 95 43 38 81 42 41 56 65 36 69 133 85 61 73 67 103 136 76 91 117 77 57 52 63 75 78 73 101 123 86 72 100 134 72 52 69 94 138 76 61 59 39 41 76 52 68 36 16 19 22 5 0 0 0 0 2 7 8 7 3 0 0 0 0 0 0 0 0 0 0 0 0 0 0 0 0 0 0 0 0 0 0 0 0 0 0 0 0 0 0 0 0 0 0 0 0 0 
0 0 0 0 0 0 0 0 0 0 0 0 0 0 0 0 0 0 0 0 0 0 0 0 0 3 2 10 14 16 20 20 13 18 77 56 43 72 78 36 67 131 92 62 74 70 98 135 77 80 115 77 56 61 77 84 80 70 79 104 95 75 111 141 70 45 62 93 147 95 63 82 54 52 88 39 11 12 16 20 16 4 0 0 0 0 2 7 9 8 4 0 0 0 0 0 0 0 0 0 0 0 0 0 0 0 0 0 0 0 0 0 0 0 0 0 0 0 0 0 0 0 0 0 0 0 0 0 
0 0 0 0 0 0 0 0 0 0 0 0 0 0 0 0 0 0 0 0 0 0 0 0 0 0 4 1 15 16 21 15 9 6 44 88 90 94 70 40 74 130 90 60 72 72 89 121 85 91 79 57 46 53 68 83 93 81 77 88 102 91 95 118 59 38 37 60 143 103 52 82 98 98 85 24 12 12 17 19 14 3 0 0 0 0 3 7 9 8 4 0 0 0 0 0 0 0 0 0 0 0 0 0 0 0 0 0 0 0 0 0 0 0 0 0 0 0 0 0 0 0 0 0 0 0 0 0 
0 0 0 0 0 0 0 0 0 0 0 0 0 0 0 0 0 0 0 0 0 0 0 0 0 0 4 1 9 20 18 19 7 7 18 50 81 71 46 42 87 143 89 53 70 65 97 103 77 85 74 62 49 52 71 89 103 83 82 96 94 63 50 94 78 47 39 60 151 136 52 49 78 77 39 18 10 11 19 20 11 1 0 0 0 0 1 5 8 8 4 0 0 0 0 0 0 0 0 0 0 0 0 0 0 0 0 0 0 0 0 0 0 0 0 0 0 0 0 0 0 0 0 0 0 0 0 0 
0 0 0 0 0 0 0 0 0 0 0 0 0 0 0 0 0 0 0 0 0 0 0 0 0 0 1 4 5 13 20 18 13 6 21 24 36 37 36 45 93 158 95 60 92 91 97 90 64 63 88 100 68 68 87 101 104 84 78 131 135 80 42 76 93 82 41 52 149 158 55 33 33 30 26 18 9 10 21 17 10 0 0 0 0 0 0 4 7 7 4 0 0 0 0 0 0 0 0 0 0 0 0 0 0 0 0 0 0 0 0 0 0 0 0 0 0 0 0 0 0 0 0 0 0 0 0 0 
0 0 0 0 0 0 0 0 0 0 0 0 0 0 0 0 0 0 0 0 0 0 0 0 0 0 0 4 6 7 16 17 15 12 23 25 27 37 35 36 76 162 128 60 102 132 107 79 66 98 99 96 61 68 91 102 107 97 75 92 83 76 40 58 88 108 72 79 160 148 46 35 33 33 29 19 9 14 18 14 7 0 0 0 0 0 0 4 7 8 5 0 0 0 0 0 0 0 0 0 0 0 0 0 0 0 0 0 0 0 0 0 0 0 0 0 0 0 0 0 0 0 0 0 0 0 0 0 
0 0 0 0 0 0 0 0 0 0 0 0 0 0 0 0 0 0 0 0 0 0 0 0 0 0 0 0 7 9 13 15 15 11 21 17 17 30 36 29 40 127 160 122 155 153 95 67 65 65 82 75 55 79 101 106 106 101 81 88 96 75 42 48 80 126 132 134 169 105 34 32 33 34 30 12 8 18 17 13 7 0 0 0 0 0 0 4 8 8 6 1 0 0 0 0 0 0 0 0 0 0 0 0 0 0 0 0 0 0 0 0 0 0 0 0 0 0 0 0 0 0 0 0 0 0 0 0 
0 0 0 0 0 0 0 0 0 0 0 0 0 0 0 0 0 0 0 0 0 0 0 0 0 0 0 0 0 12 9 15 17 13 19 16 17 24 30 32 31 65 149 178 191 155 84 62 57 54 78 64 72 91 101 102 108 107 96 92 106 96 49 43 67 130 173 178 131 52 34 31 32 32 24 9 8 12 17 12 5 1 0 0 0 0 0 5 9 9 5 1 0 0 0 0 0 0 0 0 0 0 0 0 0 0 0 0 0 0 0 0 0 0 0 0 0 0 0 0 0 0 0 0 0 0 0 0 
0 0 0 0 0 0 0 0 0 0 0 0 0 0 0 0 0 0 0 0 0 0 0 0 0 0 0 0 0 10 6 14 16 17 18 15 19 23 32 32 29 31 48 138 195 154 80 64 56 73 76 71 88 96 100 103 108 106 105 92 88 100 80 51 43 104 152 97 31 36 35 28 28 26 18 9 7 13 18 10 3 0 0 0 0 0 1 4 7 7 5 0 0 0 0 0 0 0 0 0 0 0 0 0 0 0 0 0 0 0 0 0 0 0 0 0 0 0 0 0 0 0 0 0 0 0 0 0 
0 0 0 0 0 0 0 0 0 0 0 0 0 0 0 0 0 0 0 0 0 0 0 0 0 0 0 0 0 8 7 12 16 18 23 15 19 21 32 32 30 31 28 62 81 79 81 87 78 75 57 71 88 88 91 97 97 93 94 93 80 88 100 78 56 57 49 34 25 31 44 32 26 20 15 9 7 10 18 12 4 1 0 0 0 0 0 3 7 7 5 2 0 0 0 0 0 0 0 0 0 0 0 0 0 0 0 0 0 0 0 0 0 0 0 0 0 0 0 0 0 0 0 0 0 0 0 0 
