P2
128 99
217
0 0 0 0 0 0 0 0 0 0 0 0 0 0 0 0 0 0 0 0 0 0 0 0 0 0 0 0 0 0 0 0 0 0 0 0 0 0 0 0 0 0 0 0 0 0 0 0 0 0 0 0 0 0 0 0 0 0 0 0 0 0 0 0 0 0 0 0 0 0 0 0 0 0 0 0 0 0 0 0 0 0 0 0 0 0 0 0 0 0 0 0 0 0 0 0 0 0 0 0 0 0 0 0 0 0 0 0 0 0 0 0 0 0 0 0 0 0 0 0 0 0 0 0 0 0 0 0 
0 0 0 0 0 0 0 0 0 0 0 0 0 0 0 0 0 0 0 0 0 0 0 0 0 0 0 0 0 0 0 0 0 0 0 0 0 0 0 0 0 0 0 0 0 0 0 0 0 0 0 0 0 0 0 0 0 0 0 0 0 0 0 0 0 0 0 0 0 0 0 0 0 0 0 0 0 0 0 0 0 0 0 0 0 0 0 0 0 0 0 0 0 0 0 0 0 0 0 0 0 0 0 0 0 0 0 0 0 0 0 0 0 0 0 0 0 0 0 0 0 0 0 0 0 0 0 0 
0 0 0 0 0 0 0 0 0 0 0 0 0 0 0 0 0 0 0 0 0 0 0 0 0 0 0 0 0 0 0 0 0 0 0 0 0 0 0 0 0 0 0 0 0 0 0 0 0 0 0 2 2 1 2 0 0 0 0 0 0 0 0 0 0 0 0 0 0 0 0 0 0 0 0 0 0 0 0 0 0 0 0 0 0 0 0 0 0 0 0 0 0 0 0 0 0 0 0 0 0 0 0 0 0 0 0 0 0 0 0 0 0 0 0 0 0 0 0 0 0 0 0 0 0 0 0 0 
0 0 0 0 0 0 0 0 0 0 0 0 0 0 0 0 0 0 0 0 0 0 0 0 0 0 0 0 0 0 0 0 0 0 0 0 0 0 0 0 0 0 0 0 6 14 15 13 13 18 24 29 33 32 26 22 19 18 16 13 4 0 0 0 0 0 0 0 0 0 0 0 0 0 0 0 0 0 0 0 0 0 0 0 0 0 0 0 0 0 0 0 0 0 0 0 0 0 0 0 0 0 0 0 0 0 0 0 0 0 0 0 0 0 0 0 0 0 0 0 0 0 0 0 0 0 0 0 
0 0 0 0 0 0 0 0 0 0 0 0 0 0 0 0 0 0 0 0 0 0 0 0 0 0 0 0 0 0 0 0 0 0 0 0 0 0 0 0 8 13 19 18 26 37 54 73 90 107 125 138 144 145 141 134 119 100 77 51 31 24 18 9 1 0 0 0 0 0 0 0 0 0 0 0 0 0 0 0 0 0 0 0 0 0 0 0 0 0 0 0 0 0 0 0 0 0 0 0 0 0 0 0 0 0 0 0 0 0 0 0 0 0 0 0 0 0 0 0 0 0 0 0 0 0 0 0 
0 0 0 0 0 0 0 0 0 0 0 0 0 0 0 0 0 0 0 0 0 0 0 0 0 0 0 0 0 0 0 0 0 0 0 0 0 3 12 16 23 27 38 63 102 135 156 171 175 175 169 164 160 158 157 157 157 157 159 159 145 113 72 37 25 17 9 1 0 0 0 0 0 0 0 0 0 0 0 0 0 0 0 0 0 0 0 0 0 0 0 0 0 0 0 0 0 0 0 0 0 0 0 0 0 0 0 0 0 0 0 0 0 0 0 0 0 0 0 0 0 0 0 0 0 0 0 0 
0 0 0 0 0 0 0 0 0 0 0 0 0 0 0 0 0 0 0 0 0 0 0 0 0 0 0 0 0 0 0 0 0 0 0 2 12 24 23 29 53 96 133 158 177 178 163 157 165 172 179 183 182 181 182 181 179 174 168 160 153 155 163 150 115 69 35 21 12 1 0 0 0 0 0 0 0 0 0 0 0 0 0 0 0 0 0 0 0 0 0 0 0 0 0 0 0 0 0 0 0 0 0 0 0 0 0 0 0 0 0 0 0 0 0 0 0 0 0 0 0 0 0 0 0 0 0 0 
0 0 0 0 0 0 0 0 0 0 0 0 0 0 0 0 0 0 0 0 0 0 0 0 0 0 0 0 0 0 0 0 0 0 10 26 22 29 61 113 147 169 175 165 160 171 180 180 174 164 162 166 164 156 155 165 174 179 180 180 180 173 164 156 160 165 143 92 47 24 13 1 0 0 0 0 0 0 0 0 0 0 0 0 0 0 0 0 0 0 0 0 0 0 0 0 0 0 0 0 0 0 0 0 0 0 0 0 0 0 0 0 0 0 0 0 0 0 0 0 0 0 0 0 0 0 0 0 
0 0 0 0 0 0 0 0 0 0 0 0 0 0 0 0 0 0 0 0 0 0 0 0 0 0 0 0 0 0 0 0 5 27 23 26 60 118 151 170 171 161 164 175 176 168 155 137 120 117 128 142 147 139 133 131 141 154 169 181 181 180 181 178 170 163 160 171 151 91 40 22 10 0 0 0 0 0 0 0 0 0 0 0 0 0 0 0 0 0 0 0 0 0 0 0 0 0 0 0 0 0 0 0 0 0 0 0 0 0 0 0 0 0 0 0 0 0 0 0 0 0 0 0 0 0 0 0 
0 0 0 0 0 0 0 0 0 0 0 0 0 0 0 0 0 0 0 0 0 0 0 0 0 0 0 0 0 0 0 24 25 23 45 104 148 169 172 162 165 178 178 158 134 130 133 132 145 157 156 158 154 159 170 177 177 171 172 182 188 185 180 181 180 180 174 166 162 171 140 72 32 18 1 0 0 0 0 0 0 0 0 0 0 0 0 0 0 0 0 0 0 0 0 0 0 0 0 0 0 0 0 0 0 0 0 0 0 0 0 0 0 0 0 0 0 0 0 0 0 0 0 0 0 0 0 0 
0 0 0 0 0 0 0 0 0 0 0 0 0 0 0 0 0 0 0 0 0 0 0 0 0 0 0 0 0 9 28 20 28 81 140 165 177 164 164 177 178 167 148 152 168 183 183 171 157 135 136 140 138 132 128 133 143 150 157 166 188 203 202 197 185 178 183 183 174 166 166 167 110 42 20 7 0 0 0 0 0 0 0 0 0 0 0 0 0 0 0 0 0 0 0 0 0 0 0 0 0 0 0 0 0 0 0 0 0 0 0 0 0 0 0 0 0 0 0 0 0 0 0 0 0 0 0 0 
0 0 0 0 0 0 0 0 0 0 0 0 0 0 0 0 0 0 0 0 0 0 0 0 0 0 0 1 21 25 15 51 122 158 177 173 164 175 180 175 170 172 178 178 171 156 146 142 131 121 118 115 112 116 121 127 137 144 143 143 147 165 182 198 214 210 192 182 181 182 177 164 164 142 63 23 11 0 0 0 0 0 0 0 0 0 0 0 0 0 0 0 0 0 0 0 0 0 0 0 0 0 0 0 0 0 0 0 0 0 0 0 0 0 0 0 0 0 0 0 0 0 0 0 0 0 0 0 
0 0 0 0 0 0 0 0 0 0 0 0 0 0 0 0 0 0 0 0 0 0 0 0 0 0 5 26 20 16 76 142 169 179 165 176 179 180 181 185 187 171 160 150 133 135 146 144 139 141 124 110 111 121 140 137 128 145 155 152 143 137 143 159 178 197 212 211 194 181 183 178 165 161 156 78 24 13 0 0 0 0 0 0 0 0 0 0 0 0 0 0 0 0 0 0 0 0 0 0 0 0 0 0 0 0 0 0 0 0 0 0 0 0 0 0 0 0 0 0 0 0 0 0 0 0 0 0 
0 0 0 0 0 0 0 0 0 0 0 0 0 0 0 0 0 0 0 0 0 0 0 0 0 11 25 17 23 104 149 171 171 169 183 186 185 187 190 169 155 146 123 109 112 126 141 150 150 148 135 137 133 126 117 125 129 132 144 156 157 151 141 134 143 158 175 199 215 208 186 177 179 168 158 159 88 26 14 0 0 0 0 0 0 0 0 0 0 0 0 0 0 0 0 0 0 0 0 0 0 0 0 0 0 0 0 0 0 0 0 0 0 0 0 0 0 0 0 0 0 0 0 0 0 0 0 0 
0 0 0 0 0 0 0 0 0 0 0 0 0 0 0 0 0 0 0 0 0 0 0 0 16 23 13 38 115 149 172 163 173 187 187 184 190 171 149 145 139 117 124 138 142 141 121 109 108 100 99 114 108 103 105 111 127 135 134 140 150 159 158 152 145 139 139 154 174 201 216 196 179 180 172 159 161 97 29 15 0 0 0 0 0 0 0 0 0 0 0 0 0 0 0 0 0 0 0 0 0 0 0 0 0 0 0 0 0 0 0 0 0 0 0 0 0 0 0 0 0 0 0 0 0 0 0 0 
0 0 0 0 0 0 0 0 0 0 0 0 0 0 0 0 0 0 0 0 0 0 4 19 19 14 48 120 149 169 160 180 192 186 178 182 155 142 146 143 141 149 148 140 133 112 104 105 105 103 103 106 105 101 100 101 103 114 123 127 135 141 152 159 153 150 142 131 138 157 186 208 198 177 178 171 158 162 106 36 13 0 0 0 0 0 0 0 0 0 0 0 0 0 0 0 0 0 0 0 0 0 0 0 0 0 0 0 0 0 0 0 0 0 0 0 0 0 0 0 0 0 0 0 0 0 0 0 
0 0 0 0 0 0 0 0 0 0 0 0 0 0 0 0 0 0 0 0 0 6 16 16 17 60 129 148 165 159 184 195 173 170 172 146 133 142 160 155 143 130 127 119 99 96 98 101 105 104 105 103 103 100 97 97 99 102 100 100 100 101 111 146 164 151 142 144 135 127 144 171 202 195 176 175 175 159 158 112 42 11 0 0 0 0 0 0 0 0 0 0 0 0 0 0 0 0 0 0 0 0 0 0 0 0 0 0 0 0 0 0 0 0 0 0 0 0 0 0 0 0 0 0 0 0 0 0 
0 0 0 0 0 0 0 0 0 0 0 0 0 0 0 0 0 0 0 0 7 16 17 20 73 136 146 164 165 190 188 158 166 167 143 137 154 161 141 124 120 115 102 95 95 96 96 100 102 102 104 85 84 98 96 96 97 98 94 95 97 99 96 102 132 157 156 140 138 129 122 130 164 200 190 173 175 175 161 157 114 37 7 0 0 0 0 0 0 0 0 0 0 0 0 0 0 0 0 0 0 0 0 0 0 0 0 0 0 0 0 0 0 0 0 0 0 0 0 0 0 0 0 0 0 0 0 0 
0 0 0 0 0 0 0 0 0 0 0 0 0 0 0 0 0 0 0 6 15 15 18 78 139 146 163 168 192 181 145 156 162 135 138 156 154 130 115 105 100 95 94 95 97 97 96 97 98 100 101 78 82 100 95 96 97 95 93 93 94 94 95 93 94 107 135 152 146 139 127 119 122 155 199 190 175 173 172 163 156 109 30 3 0 0 0 0 0 0 0 0 0 0 0 0 0 0 0 0 0 0 0 0 0 0 0 0 0 0 0 0 0 0 0 0 0 0 0 0 0 0 0 0 0 0 0 0 
0 0 0 0 0 0 0 0 0 0 0 0 0 0 0 0 0 0 6 16 15 18 81 142 147 156 171 192 176 140 161 154 134 144 155 149 122 101 90 88 91 91 93 99 99 98 94 98 97 100 95 87 93 108 108 104 102 101 100 101 94 92 90 85 90 85 95 124 150 150 133 123 114 117 152 195 185 176 176 167 168 148 100 20 1 0 0 0 0 0 0 0 0 0 0 0 0 0 0 0 0 0 0 0 0 0 0 0 0 0 0 0 0 0 0 0 0 0 0 0 0 0 0 0 0 0 0 0 
0 0 0 0 0 0 0 0 0 0 0 0 0 0 0 0 0 2 12 17 16 76 142 142 155 175 186 171 135 161 155 137 141 147 148 109 91 89 89 92 90 93 100 98 95 99 106 108 108 99 101 110 114 117 124 131 135 137 136 131 113 90 78 74 77 85 88 93 115 146 152 135 116 112 121 159 194 176 176 172 169 167 140 76 9 0 0 0 0 0 0 0 0 0 0 0 0 0 0 0 0 0 0 0 0 0 0 0 0 0 0 0 0 0 0 0 0 0 0 0 0 0 0 0 0 0 0 0 
0 0 0 0 0 0 0 0 0 0 0 0 0 0 0 0 0 11 11 15 66 136 143 138 169 182 172 137 155 156 141 137 142 146 105 84 91 94 94 98 97 88 86 96 105 112 117 123 125 124 125 125 129 127 126 129 133 137 135 134 134 121 102 82 75 77 89 93 92 110 149 160 133 108 113 124 165 186 173 174 168 177 151 127 48 3 0 0 0 0 0 0 0 0 0 0 0 0 0 0 0 0 0 0 0 0 0 0 0 0 0 0 0 0 0 0 0 0 0 0 0 0 0 0 0 0 0 0 
0 0 0 0 0 0 0 0 0 0 0 0 0 0 0 0 6 8 16 53 122 140 141 166 182 170 137 144 156 140 130 133 135 107 92 94 96 97 97 92 78 74 88 108 119 124 124 123 120 112 111 112 115 113 111 107 115 119 122 122 132 136 126 108 88 75 76 92 92 94 106 146 160 128 107 111 127 168 172 171 173 166 170 140 109 19 1 0 0 0 0 0 0 0 0 0 0 0 0 0 0 0 0 0 0 0 0 0 0 0 0 0 0 0 0 0 0 0 0 0 0 0 0 0 0 0 0 0 
0 0 0 0 0 0 0 0 0 0 0 0 0 0 0 1 12 11 41 109 145 137 152 186 170 139 125 155 144 125 132 126 105 92 97 100 96 92 83 71 72 94 117 126 125 117 113 114 106 97 95 103 110 113 114 112 118 122 123 126 137 144 140 127 104 83 75 76 93 96 93 106 139 153 124 110 117 143 169 161 172 165 174 154 140 67 4 0 0 0 0 0 0 0 0 0 0 0 0 0 0 0 0 0 0 0 0 0 0 0 0 0 0 0 0 0 0 0 0 0 0 0 0 0 0 0 0 0 
0 0 0 0 0 0 0 0 0 0 0 0 0 0 0 8 8 26 87 135 137 144 182 172 143 116 141 156 132 128 129 106 94 96 99 99 85 78 70 69 96 125 141 136 125 121 124 121 113 109 111 119 124 125 132 133 134 135 135 141 145 149 155 148 123 98 79 74 76 89 87 94 112 140 146 119 117 125 156 151 162 165 166 165 141 115 23 1 0 0 0 0 0 0 0 0 0 0 0 0 0 0 0 0 0 0 0 0 0 0 0 0 0 0 0 0 0 0 0 0 0 0 0 0 0 0 0 0 
0 0 0 0 0 0 0 0 0 0 0 0 0 0 2 8 12 66 115 142 129 165 184 146 129 118 156 140 126 135 113 96 94 96 99 88 77 66 78 105 135 149 153 146 139 133 140 142 142 135 136 142 140 138 141 141 146 148 148 152 145 152 157 158 145 120 94 79 74 77 88 94 98 116 148 141 117 115 145 132 147 162 161 172 146 132 65 3 0 0 0 0 0 0 0 0 0 0 0 0 0 0 0 0 0 0 0 0 0 0 0 0 0 0 0 0 0 0 0 0 0 0 0 0 0 0 0 0 
0 0 0 0 0 0 0 0 0 0 0 0 0 0 5 5 40 101 134 123 148 181 152 137 114 127 158 131 134 131 102 96 98 92 92 81 79 92 118 145 156 155 152 150 144 140 142 143 145 142 139 141 138 138 141 145 145 143 144 146 137 144 150 152 151 143 119 90 75 76 77 88 95 89 113 155 136 119 135 135 121 163 153 171 157 134 104 17 0 0 0 0 0 0 0 0 0 0 0 0 0 0 0 0 0 0 0 0 0 0 0 0 0 0 0 0 0 0 0 0 0 0 0 0 0 0 0 0 
0 0 0 0 0 0 0 0 0 0 0 0 0 0 8 15 81 116 140 127 166 164 138 133 99 144 150 129 123 111 96 94 93 96 94 92 104 124 150 156 150 144 145 139 130 131 133 133 132 131 131 124 122 131 131 134 135 128 129 122 109 112 129 149 148 143 144 122 92 79 77 78 96 92 93 132 152 125 131 143 107 148 151 162 158 138 122 39 1 0 0 0 0 0 0 0 0 0 0 0 0 0 0 0 0 0 0 0 0 0 0 0 0 0 0 0 0 0 0 0 0 0 0 0 0 0 0 0 
0 0 0 0 0 0 0 0 0 0 0 0 0 3 4 41 99 132 132 146 165 146 140 116 108 157 142 120 115 103 91 97 101 104 100 105 122 145 148 139 141 138 133 124 115 111 111 111 118 121 126 129 125 141 129 122 121 118 114 103 100 101 106 126 142 139 146 148 119 88 79 77 95 95 89 115 149 132 127 151 109 132 154 157 160 143 128 60 2 0 0 0 0 0 0 0 0 0 0 0 0 0 0 0 0 0 0 0 0 0 0 0 0 0 0 0 0 0 0 0 0 0 0 0 0 0 0 0 
0 0 0 0 0 0 0 0 0 0 0 0 0 4 7 71 106 140 127 160 150 136 127 106 131 159 127 105 105 95 95 104 113 104 102 115 143 153 143 135 136 139 124 112 105 106 112 115 119 115 119 141 134 138 119 113 114 114 107 103 100 100 99 108 128 134 141 152 150 117 87 80 88 94 95 104 134 128 125 154 118 122 150 154 165 151 133 74 4 0 0 0 0 0 0 0 0 0 0 0 0 0 0 0 0 0 0 0 0 0 0 0 0 0 0 0 0 0 0 0 0 0 0 0 0 0 0 0 
0 0 0 0 0 0 0 0 0 0 0 0 0 3 18 87 114 141 135 163 132 129 121 114 146 147 105 102 103 94 98 115 116 105 118 142 156 146 136 134 134 125 118 113 108 115 113 112 115 111 112 124 136 126 112 110 110 112 108 107 104 101 101 102 113 127 133 140 151 147 112 87 87 95 96 96 121 119 123 143 122 110 142 156 159 152 138 87 8 0 0 0 0 0 0 0 0 0 0 0 0 0 0 0 0 0 0 0 0 0 0 0 0 0 0 0 0 0 0 0 0 0 0 0 0 0 0 0 
0 0 0 0 0 0 0 0 0 0 0 0 1 3 37 99 127 140 148 149 129 123 116 129 149 126 92 103 102 98 104 115 113 121 146 157 153 138 132 126 105 101 105 121 124 115 104 106 109 114 116 118 135 126 117 116 116 117 117 120 126 123 111 109 110 114 115 115 137 155 145 107 85 91 96 92 108 114 119 128 116 109 141 159 159 152 137 105 16 0 0 0 0 0 0 0 0 0 0 0 0 0 0 0 0 0 0 0 0 0 0 0 0 0 0 0 0 0 0 0 0 0 0 0 0 0 0 0 
0 0 0 0 0 0 0 0 0 0 0 0 1 3 49 101 134 139 148 134 119 114 128 136 140 110 94 102 105 103 105 107 122 147 156 146 137 134 123 99 98 99 98 105 133 124 106 110 121 130 133 133 145 141 135 130 132 136 138 146 145 144 133 118 108 98 91 111 129 152 158 142 101 86 93 92 96 100 115 128 111 112 137 157 163 153 142 122 26 1 0 0 0 0 0 0 0 0 0 0 0 0 0 0 0 0 0 0 0 0 0 0 0 0 0 0 0 0 0 0 0 0 0 0 0 0 0 0 
0 0 0 0 0 0 0 0 0 0 0 0 2 6 59 107 139 131 139 123 119 115 141 135 125 103 90 95 106 102 103 118 150 158 145 127 125 123 112 96 97 97 101 100 124 136 120 117 129 136 142 139 142 138 132 125 130 145 153 153 114 104 105 103 100 98 95 89 117 136 154 157 140 100 91 95 91 84 115 136 115 127 137 155 167 154 145 130 37 1 0 0 0 0 0 0 0 0 0 0 0 0 0 0 0 0 0 0 0 0 0 0 0 0 0 0 0 0 0 0 0 0 0 0 0 0 0 0 
0 0 0 0 0 0 0 0 0 0 0 0 2 7 68 113 143 128 146 122 123 120 146 128 117 103 87 90 107 105 112 144 162 147 127 116 109 113 118 111 115 114 104 103 104 123 139 136 135 134 138 134 131 117 109 115 115 132 153 151 118 110 106 106 102 103 95 94 110 123 135 142 152 143 104 95 91 78 114 133 111 130 138 155 165 155 150 131 46 2 0 0 0 0 0 0 0 0 0 0 0 0 0 0 0 0 0 0 0 0 0 0 0 0 0 0 0 0 0 0 0 0 0 0 0 0 0 0 
0 0 0 0 0 0 0 0 0 0 0 0 3 12 76 120 146 145 148 122 127 121 145 112 112 100 87 86 106 112 136 161 155 131 114 114 105 107 112 118 124 126 104 103 106 115 132 161 148 135 134 130 119 106 106 118 124 121 150 141 124 116 109 106 106 107 108 97 96 109 129 131 134 158 150 108 87 81 114 131 110 136 142 155 170 152 156 134 58 3 0 0 0 0 0 0 0 0 0 0 0 0 0 0 0 0 0 0 0 0 0 0 0 0 0 0 0 0 0 0 0 0 0 0 0 0 0 0 
0 0 0 0 0 0 0 0 0 0 0 0 4 15 79 127 140 151 150 126 135 130 146 105 110 105 87 85 108 127 163 159 138 124 116 100 95 97 102 103 105 110 102 99 101 112 121 151 154 147 143 131 120 102 109 111 99 102 124 115 116 113 110 110 111 104 88 84 89 97 104 109 130 158 168 151 96 90 113 126 113 131 131 144 174 160 157 135 79 6 0 0 0 0 0 0 0 0 0 0 0 0 0 0 0 0 0 0 0 0 0 0 0 0 0 0 0 0 0 0 0 0 0 0 0 0 0 0 
0 0 0 0 0 0 0 0 0 0 0 0 4 18 78 134 135 153 147 124 141 140 150 113 103 104 91 82 112 153 172 143 134 116 97 99 100 102 102 102 100 94 90 94 103 103 109 118 109 98 113 125 128 107 105 68 62 64 93 99 98 108 119 117 115 106 104 101 99 107 112 107 100 130 163 163 143 104 113 123 111 126 119 140 179 164 158 135 94 8 0 0 0 0 0 0 0 0 0 0 0 0 0 0 0 0 0 0 0 0 0 0 0 0 0 0 0 0 0 0 0 0 0 0 0 0 0 0 
0 0 0 0 0 0 0 0 0 0 0 0 4 19 81 141 134 148 148 118 145 148 138 113 99 111 97 84 122 174 164 143 124 98 98 105 110 109 112 118 111 92 84 80 83 94 92 95 98 89 85 97 114 104 82 58 56 68 86 83 94 109 114 115 118 121 117 109 107 115 121 123 105 87 126 168 170 143 122 129 118 119 117 142 177 163 159 138 101 12 0 0 0 0 0 0 0 0 0 0 0 0 0 0 0 0 0 0 0 0 0 0 0 0 0 0 0 0 0 0 0 0 0 0 0 0 0 0 
0 0 0 0 0 0 0 0 0 0 0 0 5 18 85 146 133 158 146 112 145 149 128 114 100 124 114 101 147 179 160 139 101 95 111 118 118 117 118 115 109 98 89 85 82 82 84 80 81 86 83 91 108 105 93 78 80 86 74 68 91 109 107 105 108 106 103 99 99 102 108 113 98 87 110 154 173 164 128 132 121 111 116 139 171 161 161 140 110 17 0 0 0 0 0 0 0 0 0 0 0 0 0 0 0 0 0 0 0 0 0 0 0 0 0 0 0 0 0 0 0 0 0 0 0 0 0 0 
0 0 0 0 0 0 0 0 0 0 0 0 7 18 88 148 134 156 132 108 147 148 121 110 94 115 132 129 171 170 165 133 110 105 109 107 108 106 104 98 88 82 77 80 85 77 82 78 72 83 89 95 104 95 101 89 87 83 61 80 84 90 102 108 108 108 105 101 101 107 115 125 113 99 113 127 158 166 122 130 125 108 109 138 155 154 161 143 117 24 0 0 0 0 0 0 0 0 0 0 0 0 0 0 0 0 0 0 0 0 0 0 0 0 0 0 0 0 0 0 0 0 0 0 0 0 0 0 
0 0 0 0 0 0 0 0 0 0 0 0 9 16 88 150 133 152 123 109 148 148 121 105 97 104 119 136 180 174 171 134 123 113 107 103 102 102 96 86 78 79 76 73 72 81 77 79 68 79 89 94 96 81 105 86 81 78 66 80 68 78 100 107 109 119 123 120 119 120 123 121 110 107 115 108 123 157 118 132 128 108 105 132 136 153 155 143 122 35 2 0 0 0 0 0 0 0 0 0 0 0 0 0 0 0 0 0 0 0 0 0 0 0 0 0 0 0 0 0 0 0 0 0 0 0 0 0 
0 0 0 0 0 0 0 0 0 0 0 0 9 15 93 148 139 154 126 117 144 148 121 98 98 89 109 137 178 176 156 126 130 131 120 110 106 101 89 76 77 75 75 70 68 70 77 77 63 74 82 87 80 80 88 86 75 80 71 69 57 72 102 126 130 131 132 126 117 111 109 109 100 110 120 109 108 123 101 130 126 107 97 126 123 149 152 140 124 44 2 0 0 0 0 0 0 0 0 0 0 0 0 0 0 0 0 0 0 0 0 0 0 0 0 0 0 0 0 0 0 0 0 0 0 0 0 0 
0 0 0 0 0 0 0 0 0 0 0 0 9 14 97 142 140 149 128 118 135 144 111 93 97 89 105 131 160 167 145 120 119 123 112 114 115 111 91 79 75 72 69 64 64 61 68 79 89 85 83 78 65 76 76 83 84 88 72 57 56 77 114 130 129 131 128 119 113 110 114 114 106 118 126 116 115 101 88 122 120 105 97 114 116 136 151 140 126 53 2 0 0 0 0 0 0 0 0 0 0 0 0 0 0 0 0 0 0 0 0 0 0 0 0 0 0 0 0 0 0 0 0 0 0 0 0 0 
0 0 0 0 0 0 0 0 0 0 0 0 9 15 95 141 142 141 121 108 127 132 96 90 92 87 97 134 159 170 136 112 111 118 103 102 101 101 98 102 91 87 79 64 58 58 59 66 70 77 91 77 97 112 106 111 91 87 68 53 79 101 105 107 110 132 136 131 123 115 113 107 94 109 125 115 113 94 87 117 122 109 98 105 90 132 142 141 127 61 2 0 0 0 0 0 0 0 0 0 0 0 0 0 0 0 0 0 0 0 0 0 0 0 0 0 0 0 0 0 0 0 0 0 0 0 0 0 
0 0 0 0 0 0 0 0 0 0 0 0 8 16 97 143 147 134 111 111 125 116 94 90 80 73 84 125 159 168 132 110 112 110 102 101 101 95 91 91 93 93 88 83 73 64 59 59 60 82 93 99 97 64 69 67 106 86 76 80 85 80 90 100 110 133 128 131 126 114 112 99 82 111 129 116 112 89 88 123 134 109 97 101 89 132 120 135 127 63 2 0 0 0 0 0 0 0 0 0 0 0 0 0 0 0 0 0 0 0 0 0 0 0 0 0 0 0 0 0 0 0 0 0 0 0 0 0 
0 0 0 0 0 0 0 0 0 0 0 0 7 16 95 142 150 132 114 119 103 104 96 96 72 73 79 112 155 165 140 109 113 109 100 102 105 102 98 101 84 62 60 64 71 77 78 73 63 82 96 122 88 77 80 66 88 100 75 71 71 82 96 103 119 127 126 127 125 113 107 86 74 111 130 120 110 88 106 135 140 113 100 95 86 130 112 140 129 62 2 0 0 0 0 0 0 0 0 0 0 0 0 0 0 0 0 0 0 0 0 0 0 0 0 0 0 0 0 0 0 0 0 0 0 0 0 0 
0 0 0 0 0 0 0 0 0 0 0 0 7 15 90 140 153 124 113 127 102 101 99 97 77 75 78 100 151 166 153 111 113 113 103 103 106 105 101 100 90 72 57 58 59 63 77 53 55 72 87 112 70 65 60 53 57 97 66 72 74 87 97 109 124 125 126 131 127 115 102 73 72 116 125 117 106 98 113 128 134 115 102 86 86 137 110 143 127 58 3 0 0 0 0 0 0 0 0 0 0 0 0 0 0 0 0 0 0 0 0 0 0 0 0 0 0 0 0 0 0 0 0 0 0 0 0 0 
0 0 0 0 0 0 0 0 0 0 0 0 7 14 81 142 156 123 110 126 99 98 101 97 80 75 74 89 147 168 167 128 109 116 107 98 101 109 101 88 84 77 64 54 56 62 71 54 61 79 100 91 71 68 75 61 61 91 77 77 75 85 101 111 121 123 127 134 133 118 94 73 87 119 116 113 99 94 104 119 130 114 102 79 88 135 110 141 117 50 2 0 0 0 0 0 0 0 0 0 0 0 0 0 0 0 0 0 0 0 0 0 0 0 0 0 0 0 0 0 0 0 0 0 0 0 0 0 
0 0 0 0 0 0 0 0 0 0 0 0 4 15 73 139 155 125 102 130 99 93 106 98 85 73 74 89 148 162 168 151 117 117 110 101 104 113 109 93 81 81 72 56 60 64 74 52 61 84 123 94 74 76 79 57 52 74 88 72 70 81 100 106 113 130 133 138 126 113 92 80 92 112 101 98 89 97 102 114 130 117 101 71 96 128 111 134 110 43 2 0 0 0 0 0 0 0 0 0 0 0 0 0 0 0 0 0 0 0 0 0 0 0 0 0 0 0 0 0 0 0 0 0 0 0 0 0 
0 0 0 0 0 0 0 0 0 0 0 0 3 16 66 136 154 135 94 132 101 91 100 103 87 72 71 87 147 151 168 154 125 118 115 110 116 119 116 98 83 78 53 51 50 58 57 49 50 101 109 77 71 78 90 65 53 54 96 55 73 78 88 103 124 132 131 132 123 113 93 79 87 97 86 84 89 120 115 110 123 114 94 70 104 118 113 125 103 38 1 0 0 0 0 0 0 0 0 0 0 0 0 0 0 0 0 0 0 0 0 0 0 0 0 0 0 0 0 0 0 0 0 0 0 0 0 0 
0 0 0 0 0 0 0 0 0 1 4 0 0 14 58 130 146 144 89 127 107 90 98 108 91 73 64 91 142 130 158 152 127 119 114 115 113 119 109 95 83 83 53 47 52 62 70 53 56 109 99 81 68 80 78 67 56 49 75 92 99 93 93 108 125 120 124 131 130 116 89 74 88 82 78 78 109 150 161 135 119 106 79 71 108 107 117 118 97 34 1 0 0 0 0 0 0 0 0 0 0 0 0 0 0 0 0 0 0 0 0 0 0 0 0 0 0 0 0 0 0 0 0 0 0 0 0 0 
0 0 0 0 0 0 0 0 0 13 14 4 0 12 47 121 135 138 84 113 116 89 94 104 96 78 70 100 138 113 143 157 124 116 107 115 124 123 100 87 79 76 58 43 49 71 75 81 86 104 91 90 78 90 77 72 55 53 67 104 89 133 125 117 121 116 124 131 127 106 76 74 80 71 73 86 135 130 157 158 120 103 68 91 106 101 122 118 92 32 1 0 0 0 0 0 0 0 0 0 0 0 0 0 0 0 0 0 0 0 0 0 0 0 0 0 0 0 0 0 0 0 0 0 0 0 0 0 
0 0 0 0 0 0 0 0 0 8 0 7 5 9 35 108 132 136 86 88 119 100 91 94 92 84 73 103 133 115 138 153 128 119 119 122 132 128 112 90 76 74 58 57 74 80 50 53 84 102 99 91 90 102 91 73 68 63 80 115 101 105 123 120 135 138 136 130 122 97 65 67 68 68 76 113 121 96 135 168 118 96 74 111 90 105 121 121 84 26 0 0 0 0 0 0 0 0 0 0 0 0 0 0 0 0 0 0 0 0 0 0 0 0 0 0 0 0 0 0 0 0 0 0 0 0 0 0 
0 0 0 0 0 0 0 0 0 0 0 2 6 8 27 91 135 128 98 77 119 114 91 94 86 91 73 104 134 120 136 141 136 123 120 117 116 120 116 92 92 96 68 62 73 86 56 50 89 105 103 102 101 112 104 85 82 65 69 115 125 98 102 118 139 158 166 167 157 132 100 75 80 97 109 117 99 90 138 167 117 118 112 97 87 114 125 118 75 17 0 0 2 6 0 0 0 0 0 0 0 0 0 0 0 0 0 0 0 0 0 0 0 0 0 0 0 0 0 0 0 0 0 0 0 0 0 0 
0 0 0 0 0 0 0 0 0 0 0 2 4 8 20 77 134 123 111 79 100 117 94 96 84 90 83 113 129 106 120 132 129 138 136 130 126 132 134 122 91 92 73 65 89 87 63 55 87 108 109 116 119 121 115 93 71 68 82 114 123 104 124 115 126 132 139 129 137 135 140 131 109 89 119 132 105 103 133 163 114 124 126 79 83 127 135 120 67 14 7 2 4 4 6 0 0 0 0 0 0 0 0 0 0 0 0 0 0 0 0 0 0 0 0 0 0 0 0 0 0 0 0 0 0 0 0 0 
0 0 0 0 0 0 0 0 0 0 0 2 3 7 19 68 131 129 126 89 85 117 107 95 94 80 90 125 118 99 88 106 141 142 134 129 136 132 123 107 92 84 88 87 90 59 49 68 95 115 113 132 121 132 136 102 86 76 88 123 123 114 122 130 137 134 128 128 122 108 109 121 114 103 142 140 127 133 143 161 109 129 127 96 129 133 129 120 54 10 1 1 2 0 0 0 0 0 0 0 0 0 0 0 0 0 0 0 0 0 0 0 0 0 0 0 0 0 0 0 0 0 0 0 0 0 0 0 
0 0 0 0 0 0 0 0 0 0 0 3 3 7 15 52 125 127 133 96 74 101 121 108 107 78 94 141 122 106 82 90 138 156 140 135 130 135 138 142 125 103 92 79 69 65 58 65 93 117 105 119 120 133 122 103 94 94 114 144 121 120 136 145 154 160 149 127 102 94 94 110 111 129 147 146 154 166 185 178 118 140 142 139 160 150 129 111 39 7 0 2 0 0 0 0 0 0 0 0 0 0 0 0 0 0 0 0 0 0 0 0 0 0 0 0 0 0 0 0 0 0 0 0 0 0 0 0 
0 0 0 0 0 0 0 0 0 0 0 3 4 12 11 44 125 127 132 113 76 99 129 126 116 96 103 150 128 108 100 90 130 166 163 148 146 145 143 138 126 120 91 70 70 77 70 90 113 104 95 102 122 128 109 104 104 110 131 135 124 114 134 149 159 157 146 136 129 105 112 126 126 133 127 140 155 150 153 152 150 142 146 165 170 104 101 110 24 7 0 2 0 0 0 0 0 0 0 0 0 0 0 0 0 0 0 0 0 0 0 0 0 0 0 0 0 0 0 0 0 0 0 0 0 0 0 0 
0 0 0 0 0 0 0 0 0 0 0 5 9 14 16 37 123 128 129 138 102 152 137 137 131 129 119 136 121 112 124 125 113 140 148 133 138 142 132 126 119 121 111 99 97 111 108 128 111 96 86 94 114 124 112 111 112 102 115 131 122 124 144 155 154 141 113 110 123 127 133 124 116 109 106 148 164 149 139 147 156 137 169 166 140 94 130 91 13 7 0 3 0 0 0 0 0 0 0 0 0 0 0 0 0 0 0 0 0 0 0 0 0 0 0 0 0 0 0 0 0 0 0 0 0 0 0 0 
0 0 0 0 0 0 0 0 0 0 0 3 11 14 6 17 70 133 132 133 120 142 164 147 156 161 139 145 140 139 140 150 127 98 129 125 120 129 126 117 111 112 130 120 122 140 132 143 120 100 90 81 107 143 128 120 113 110 121 118 132 123 149 168 167 159 132 113 115 114 122 110 93 102 94 130 160 162 144 132 168 153 177 134 104 83 110 106 16 10 7 1 2 0 0 0 0 0 0 0 0 0 0 0 0 0 0 0 0 0 0 0 0 0 0 0 0 0 0 0 0 0 0 0 0 0 0 0 
0 0 0 0 0 0 0 0 0 0 0 3 14 4 4 15 43 122 131 124 135 143 146 146 165 182 171 178 141 156 145 132 137 113 114 113 120 140 142 137 133 131 133 126 135 126 132 127 104 90 80 87 100 131 119 112 110 111 122 121 131 136 135 148 140 130 124 120 116 114 127 99 81 94 145 155 153 149 114 114 161 166 160 112 86 97 127 65 6 4 4 7 3 0 0 0 0 0 0 0 0 0 0 0 0 0 0 0 0 0 0 0 0 0 0 0 0 0 0 0 0 0 0 0 0 0 0 0 
0 0 0 0 0 0 0 0 0 0 0 5 2 0 3 10 27 97 131 131 140 148 143 125 146 155 152 158 141 154 148 105 88 128 138 130 101 125 145 157 156 150 149 131 116 116 140 115 100 94 80 77 92 127 117 113 108 121 138 140 146 150 138 136 86 60 94 131 133 131 132 97 87 148 177 163 151 150 120 117 142 134 118 114 114 118 119 28 4 3 1 6 3 0 0 0 0 0 0 0 0 0 0 0 0 0 0 0 0 0 0 0 0 0 0 0 0 0 0 0 0 0 0 0 0 0 0 0 
0 0 0 0 0 0 0 0 0 0 0 4 3 0 0 6 19 61 131 129 117 119 141 142 115 130 150 151 157 183 142 103 91 108 130 131 115 115 142 151 140 130 138 122 123 131 156 117 113 118 114 100 99 108 124 130 122 126 149 145 137 131 113 117 87 46 67 106 109 102 106 90 84 147 167 183 174 149 146 134 119 125 86 88 106 123 72 9 5 3 0 2 3 0 0 0 0 0 0 0 0 0 0 0 0 0 0 0 0 0 0 0 0 0 0 0 0 0 0 0 0 0 0 0 0 0 0 0 
0 0 0 0 0 0 0 0 0 0 0 5 3 0 0 5 15 34 115 112 105 105 129 138 116 93 121 146 173 178 146 113 97 96 125 135 133 110 107 94 81 99 116 119 123 133 148 119 126 135 137 133 115 116 144 144 144 144 132 112 92 104 98 102 100 79 74 75 82 89 72 82 133 131 145 177 175 138 130 139 143 120 87 76 89 120 36 6 2 0 0 3 4 0 0 0 0 0 0 0 0 0 0 0 0 0 0 0 0 0 0 0 0 0 0 0 0 0 0 0 0 0 0 0 0 0 0 0 
0 0 0 0 0 0 0 0 0 0 0 3 4 0 0 4 13 18 82 98 102 98 121 129 123 103 127 153 165 154 128 111 87 93 116 129 117 113 91 62 52 75 93 88 89 103 118 128 136 133 129 138 134 130 149 149 140 113 82 87 68 94 87 97 100 95 79 81 81 78 86 126 121 118 139 156 170 144 153 147 129 100 93 84 103 89 18 8 3 0 0 4 4 0 0 0 0 0 0 0 0 0 0 0 0 0 0 0 0 0 0 0 0 0 0 0 0 0 0 0 0 0 0 0 0 0 0 0 
0 0 0 0 0 0 0 0 0 0 0 2 4 0 0 6 10 16 48 122 107 113 122 125 122 139 147 143 159 152 124 104 86 78 95 132 119 85 82 72 68 77 67 71 91 105 104 98 103 108 142 164 156 145 155 149 119 114 103 110 108 110 100 102 109 111 94 87 87 103 118 104 104 107 127 136 157 183 174 164 111 88 91 89 118 56 14 12 3 0 1 5 4 0 0 0 0 0 0 0 0 0 0 0 0 0 0 0 0 0 0 0 0 0 0 0 0 0 0 0 0 0 0 0 0 0 0 0 
0 0 0 0 0 0 0 0 0 0 0 0 5 0 0 8 11 17 29 111 105 98 107 112 130 156 165 121 116 127 140 117 93 103 113 127 108 87 83 88 103 100 81 86 112 117 108 110 115 137 155 172 184 181 170 145 137 149 132 126 137 134 123 117 113 116 121 115 119 123 101 103 106 95 89 125 135 176 176 138 104 90 84 37 97 31 12 11 4 2 1 5 4 0 0 0 0 0 0 0 0 0 0 0 0 0 0 0 0 0 0 0 0 0 0 0 0 0 0 0 0 0 0 0 0 0 0 0 
0 0 0 0 0 0 0 0 0 0 0 0 5 1 0 9 15 17 17 78 111 92 100 113 131 147 172 127 104 107 124 142 116 118 125 124 121 105 101 112 127 110 101 113 125 131 145 151 176 156 142 120 106 126 151 162 146 129 128 138 142 149 153 158 149 143 136 145 148 118 106 106 96 76 82 103 125 164 158 117 107 112 84 89 94 19 11 12 5 2 1 5 3 0 0 0 0 0 0 0 0 0 0 0 0 0 0 0 0 0 0 0 0 0 0 0 0 0 0 0 0 0 0 0 0 0 0 0 
0 0 0 0 0 0 0 0 0 0 0 0 5 2 0 10 19 13 16 48 107 77 85 124 127 126 162 162 117 129 119 137 141 142 104 93 100 124 141 149 146 150 158 172 153 147 166 181 198 176 126 113 108 109 120 138 136 135 142 164 168 186 199 173 149 164 173 180 173 128 92 63 57 82 105 105 145 161 130 102 109 83 97 112 82 16 13 14 8 3 1 5 4 0 0 0 0 0 0 0 0 0 0 0 0 0 0 0 0 0 0 0 0 0 0 0 0 0 0 0 0 0 0 0 0 0 0 0 
0 0 0 0 0 0 0 0 0 0 0 2 15 6 1 9 19 15 15 37 102 95 85 100 116 106 119 149 150 132 135 132 130 137 108 105 103 102 108 115 123 139 150 182 181 156 165 172 183 175 129 129 135 118 124 135 138 129 127 138 144 178 187 184 161 184 203 195 168 110 72 83 96 121 153 130 149 138 115 127 84 46 93 110 67 18 11 11 11 3 1 4 4 0 0 0 0 0 0 0 0 0 0 0 0 0 0 0 0 0 0 0 0 0 0 0 0 0 0 0 0 0 0 0 0 0 0 0 
0 0 0 0 0 0 0 0 0 0 0 4 11 8 4 4 17 13 13 25 92 89 98 97 126 137 140 127 154 153 126 121 137 104 77 85 92 101 113 113 110 114 112 143 176 162 166 162 175 171 144 150 156 142 130 117 125 125 129 139 143 158 185 171 147 174 193 176 157 119 99 95 99 117 181 164 167 160 148 115 107 64 85 89 43 16 3 5 11 0 0 4 3 0 0 0 0 0 0 0 0 0 0 0 0 0 0 0 0 0 0 0 0 0 0 0 0 0 0 0 0 0 0 0 0 0 0 0 
0 0 0 0 0 0 0 0 0 0 0 2 12 12 12 11 15 14 15 12 48 91 87 119 135 145 157 153 139 140 136 105 127 108 85 89 91 95 105 106 106 104 104 111 144 154 165 142 143 158 152 159 167 155 129 107 103 107 111 115 126 144 164 121 106 142 162 165 166 125 106 124 140 153 169 138 164 138 134 118 120 93 52 60 24 12 2 7 6 0 0 5 6 0 0 0 0 0 0 0 0 0 0 0 0 0 0 0 0 0 0 0 0 0 0 0 0 0 0 0 0 0 0 0 0 0 0 0 
0 0 0 0 0 0 0 0 0 0 0 2 11 13 11 7 3 10 11 12 16 56 85 119 131 127 132 156 127 145 148 113 117 155 118 109 117 118 116 112 111 88 88 101 113 136 163 129 110 123 117 111 95 112 109 94 79 75 86 100 134 139 125 111 129 165 166 162 172 137 78 124 138 148 137 116 120 72 92 93 79 85 87 48 14 11 9 4 9 5 4 5 8 1 0 0 0 0 0 0 0 0 0 0 0 0 0 0 0 0 0 0 0 0 0 0 0 0 0 0 0 0 0 0 0 0 0 0 
0 0 0 0 0 0 0 0 0 0 0 0 8 10 3 3 3 2 9 17 17 29 77 110 107 113 139 143 129 161 169 129 110 142 134 108 118 119 106 115 110 148 144 146 156 183 205 177 147 127 123 108 114 155 166 144 143 160 174 158 172 177 167 147 141 161 143 153 140 167 141 126 137 131 90 72 98 72 62 79 91 77 48 8 7 4 2 2 4 11 10 8 9 7 0 0 0 0 0 0 0 0 0 0 0 0 0 0 0 0 0 0 0 0 0 0 0 0 0 0 0 0 0 0 0 0 0 0 
0 0 0 0 0 0 0 0 0 0 0 0 3 10 8 3 2 1 3 10 18 22 38 94 128 104 86 97 92 150 157 131 135 152 163 123 107 98 98 109 131 138 166 185 157 173 170 182 190 178 160 152 155 152 161 164 177 192 195 175 170 168 190 158 165 196 140 168 103 134 158 137 101 97 95 85 108 91 72 62 63 48 20 6 2 2 0 0 2 5 2 7 7 0 0 0 0 0 0 0 0 0 0 0 0 0 0 0 0 0 0 0 0 0 0 0 0 0 0 0 0 0 0 0 0 0 0 0 
0 0 0 0 0 0 0 0 0 0 0 0 0 2 8 3 1 0 0 5 13 18 10 33 88 78 63 53 49 67 100 81 98 123 139 131 141 160 161 143 139 146 146 124 154 135 126 180 169 188 116 114 135 128 128 156 185 188 185 158 136 202 217 160 179 196 194 180 150 139 128 111 83 52 46 76 81 63 58 46 35 20 27 24 19 0 0 0 2 3 3 7 3 0 0 0 0 0 0 0 0 0 0 0 0 0 0 0 0 0 0 0 0 0 0 0 0 0 0 0 0 0 0 0 0 0 0 0 
0 0 0 0 0 0 0 0 0 0 0 0 0 4 4 4 3 3 1 1 7 14 19 19 30 29 26 47 59 52 86 50 47 56 87 88 59 63 71 74 97 105 117 96 78 88 183 135 114 101 62 92 91 114 115 106 110 114 144 109 103 106 81 105 147 129 100 62 43 46 54 102 54 35 36 94 99 65 43 30 28 24 18 11 5 1 3 3 3 2 0 8 4 0 0 0 0 0 0 0 0 0 0 0 0 0 0 0 0 0 0 0 0 0 0 0 0 0 0 0 0 0 0 0 0 0 0 0 
0 0 0 0 0 0 0 0 0 0 0 0 0 0 0 0 2 3 2 0 3 8 14 18 23 24 25 40 64 56 87 54 42 42 79 76 45 50 58 60 95 104 93 73 69 91 71 52 72 71 43 71 62 59 57 62 66 45 77 66 65 70 55 79 74 78 98 69 90 109 88 94 44 31 26 90 98 66 43 27 26 24 17 7 4 1 2 0 0 0 3 7 2 0 0 0 0 0 0 0 0 0 0 0 0 0 0 0 0 0 0 0 0 0 0 0 0 0 0 0 0 0 0 0 0 0 0 0 
0 0 0 0 0 0 0 0 0 0 0 0 0 0 0 0 0 0 0 0 0 10 11 16 18 24 28 42 65 58 82 64 52 54 93 92 68 78 112 141 141 119 100 102 88 112 98 88 112 111 87 110 97 91 88 92 108 97 135 128 114 103 89 98 159 181 138 122 168 111 116 113 49 31 31 81 88 63 26 21 27 27 16 6 4 0 0 0 0 0 0 0 0 0 0 0 0 0 0 0 0 0 0 0 0 0 0 0 0 0 0 0 0 0 0 0 0 0 0 0 0 0 0 0 0 0 0 0 
0 0 0 0 0 0 0 0 0 0 0 0 0 0 0 0 0 0 0 0 0 6 6 7 12 17 26 39 76 82 103 102 84 93 135 138 87 80 110 163 168 145 147 144 151 171 187 196 191 169 155 165 154 157 162 163 170 156 142 142 153 169 144 163 120 171 134 178 74 107 82 83 26 21 21 68 74 59 19 17 13 13 3 1 0 0 0 0 0 0 0 0 0 0 0 0 0 0 0 0 0 0 0 0 0 0 0 0 0 0 0 0 0 0 0 0 0 0 0 0 0 0 0 0 0 0 0 0 
0 0 0 0 0 0 0 0 0 0 0 0 0 0 0 0 0 0 0 0 0 3 8 5 6 7 19 28 62 66 72 88 95 113 160 162 131 103 136 148 120 126 149 189 212 205 216 200 177 189 188 161 157 154 139 144 165 183 191 181 177 207 165 157 189 130 123 80 75 81 88 108 79 80 70 119 119 82 21 10 3 3 4 3 0 0 0 0 0 0 0 0 0 0 0 0 0 0 0 0 0 0 0 0 0 0 0 0 0 0 0 0 0 0 0 0 0 0 0 0 0 0 0 0 0 0 0 0 
0 0 0 0 0 0 0 0 0 0 0 0 0 0 0 0 0 0 0 0 0 0 2 3 6 9 21 50 69 75 73 86 72 77 123 94 42 56 81 115 100 105 113 118 150 167 201 189 191 200 208 193 184 161 147 114 129 122 144 137 176 182 131 138 166 106 138 186 118 131 88 83 61 51 40 72 69 34 7 10 11 9 4 0 0 0 0 0 0 0 0 0 0 0 0 0 0 0 0 0 0 0 0 0 0 0 0 0 0 0 0 0 0 0 0 0 0 0 0 0 0 0 0 0 0 0 0 0 
0 0 0 0 0 0 0 0 0 0 0 0 0 0 0 0 0 0 0 0 0 0 3 5 13 13 20 30 43 49 60 75 48 56 108 77 55 52 68 80 76 82 87 96 143 164 161 126 127 164 166 133 142 124 144 105 147 134 151 128 152 164 140 94 157 171 181 94 168 163 107 84 90 71 59 84 89 44 18 23 21 10 5 0 0 0 0 0 0 0 0 0 0 0 0 0 0 0 0 0 0 0 0 0 0 0 0 0 0 0 0 0 0 0 0 0 0 0 0 0 0 0 0 0 0 0 0 0 
0 0 0 0 0 0 0 0 0 0 0 0 0 0 0 0 0 0 0 0 0 0 1 3 11 15 18 24 33 39 50 81 52 61 93 45 38 54 74 82 78 90 103 119 136 124 149 114 114 159 163 118 134 131 137 119 135 138 165 157 137 147 102 68 80 106 152 159 127 99 77 55 89 90 81 88 86 49 25 25 18 10 6 0 0 0 0 0 0 0 0 0 0 0 0 0 0 0 0 0 0 0 0 0 0 0 0 0 0 0 0 0 0 0 0 0 0 0 0 0 0 0 0 0 0 0 0 0 
0 0 0 0 0 0 0 0 0 0 0 0 0 0 0 0 0 0 0 0 0 0 0 3 8 15 16 21 27 43 39 84 66 67 99 36 24 34 60 86 86 100 85 78 129 141 129 118 126 156 164 128 143 136 133 134 149 148 178 175 107 116 110 99 99 98 109 118 79 63 49 31 53 81 83 91 83 54 28 23 17 11 5 0 0 0 0 0 0 0 0 0 0 0 0 0 0 0 0 0 0 0 0 0 0 0 0 0 0 0 0 0 0 0 0 0 0 0 0 0 0 0 0 0 0 0 0 0 
0 0 0 0 0 0 0 0 0 0 0 0 0 0 0 0 0 0 0 0 0 0 0 2 4 12 15 19 24 42 41 80 68 69 99 39 28 28 41 58 87 107 78 62 107 131 108 79 105 141 158 140 148 143 119 120 138 136 146 132 90 103 95 76 111 100 84 118 122 82 40 28 44 89 86 93 83 53 33 22 16 11 3 0 0 0 0 0 0 0 0 0 0 0 0 0 0 0 0 0 0 0 0 0 0 0 0 0 0 0 0 0 0 0 0 0 0 0 0 0 0 0 0 0 0 0 0 0 
0 0 0 0 0 0 0 0 0 0 0 0 0 0 0 0 0 0 0 0 0 0 0 0 5 9 12 14 22 30 49 81 69 70 92 42 29 28 43 89 104 83 66 70 105 135 106 89 95 100 99 101 117 120 103 104 111 115 100 82 116 115 87 84 124 107 71 69 104 119 60 33 38 96 101 90 92 48 35 20 16 10 2 0 0 0 0 0 0 0 0 0 0 0 0 0 0 0 0 0 0 0 0 0 0 0 0 0 0 0 0 0 0 0 0 0 0 0 0 0 0 0 0 0 0 0 0 0 
0 0 0 0 0 0 0 0 0 0 0 0 0 0 0 0 0 0 0 0 0 0 0 0 6 4 7 12 19 22 36 73 74 70 78 39 27 33 66 108 81 55 62 72 116 143 98 84 68 83 97 88 99 107 110 105 108 111 98 96 99 104 81 75 119 105 73 60 61 106 103 46 41 85 117 84 94 45 23 18 15 8 0 0 0 0 0 0 0 0 0 0 0 0 0 0 0 0 0 0 0 0 0 0 0 0 0 0 0 0 0 0 0 0 0 0 0 0 0 0 0 0 0 0 0 0 0 0 
0 0 0 0 0 0 0 0 0 0 0 0 0 0 0 0 0 0 0 0 0 0 0 0 0 4 6 12 14 21 23 52 70 63 57 36 28 40 85 88 57 48 61 76 116 143 91 69 64 78 95 89 90 96 103 109 111 112 104 101 91 85 86 64 108 126 78 75 61 74 114 67 44 55 115 87 40 19 20 19 13 6 0 0 0 0 0 0 0 0 0 0 0 0 0 0 0 0 0 0 0 0 0 0 0 0 0 0 0 0 0 0 0 0 0 0 0 0 0 0 0 0 0 0 0 0 0 0 
0 0 0 0 0 0 0 0 0 0 0 0 0 0 0 0 0 0 0 0 0 0 0 0 0 3 6 8 13 18 23 27 58 36 41 39 30 47 101 77 46 47 55 68 109 139 80 65 63 83 110 108 99 95 98 90 77 87 107 117 111 82 79 63 92 130 94 76 60 56 110 89 39 39 72 31 12 19 23 19 13 4 0 0 0 0 0 0 0 0 0 0 0 0 0 0 0 0 0 0 0 0 0 0 0 0 0 0 0 0 0 0 0 0 0 0 0 0 0 0 0 0 0 0 0 0 0 0 
0 0 0 0 0 0 0 0 0 0 0 0 0 0 0 0 0 0 0 0 0 0 0 0 0 0 6 7 12 18 21 19 18 17 28 54 47 67 125 97 45 43 52 60 102 113 73 63 68 92 120 132 128 108 91 76 66 79 107 113 116 88 66 55 75 118 84 56 49 51 128 131 68 63 68 25 11 19 21 19 10 4 0 0 0 0 0 0 0 0 0 0 0 0 0 0 0 0 0 0 0 0 0 0 0 0 0 0 0 0 0 0 0 0 0 0 0 0 0 0 0 0 0 0 0 0 0 0 
0 0 0 0 0 0 0 0 0 0 0 0 0 0 0 0 0 0 0 0 0 0 0 0 0 0 3 7 10 15 19 19 18 20 16 35 65 83 119 101 46 40 44 68 108 90 65 62 76 109 124 134 134 107 78 74 81 113 107 95 83 76 86 66 68 96 97 62 47 50 121 136 82 66 44 24 13 20 21 16 8 4 1 0 0 0 0 0 0 0 0 0 0 0 0 0 0 0 0 0 0 0 0 0 0 0 0 0 0 0 0 0 0 0 0 0 0 0 0 0 0 0 0 0 0 0 0 0 
0 0 0 0 0 0 0 0 0 0 0 0 0 0 0 0 0 0 0 0 0 0 0 0 0 0 0 6 9 11 17 20 19 19 16 13 25 41 79 111 63 37 44 92 120 91 70 61 72 95 120 142 154 140 130 141 147 145 136 121 94 68 83 72 76 100 120 78 50 66 121 97 41 29 33 23 15 20 20 13 6 4 1 0 0 0 0 0 0 0 0 0 0 0 0 0 0 0 0 0 0 0 0 0 0 0 0 0 0 0 0 0 0 0 0 0 0 0 0 0 0 0 0 0 0 0 0 0 
0 0 0 0 0 0 0 0 0 0 0 0 0 0 0 0 0 0 0 0 0 0 0 0 0 0 0 0 10 7 13 19 23 21 12 15 22 23 47 109 93 58 70 107 121 102 79 61 68 83 132 147 128 118 129 150 148 133 118 113 115 83 91 82 79 105 132 103 73 96 130 63 26 27 30 22 18 21 20 13 6 4 1 0 0 0 0 0 0 0 0 0 0 0 0 0 0 0 0 0 0 0 0 0 0 0 0 0 0 0 0 0 0 0 0 0 0 0 0 0 0 0 0 0 0 0 0 0 
0 0 0 0 0 0 0 0 0 0 0 0 0 0 0 0 0 0 0 0 0 0 0 0 0 0 0 0 5 8 11 17 19 20 13 12 21 23 32 65 117 105 92 99 94 106 87 59 72 106 136 127 105 112 129 141 136 128 124 104 109 87 90 72 87 99 115 110 99 127 92 31 26 29 27 23 19 19 16 12 7 5 1 0 0 0 0 0 0 0 0 0 0 0 0 0 0 0 0 0 0 0 0 0 0 0 0 0 0 0 0 0 0 0 0 0 0 0 0 0 0 0 0 0 0 0 0 0 
0 0 0 0 0 0 0 0 0 0 0 0 0 0 0 0 0 0 0 0 0 0 0 0 0 0 0 0 0 11 7 15 18 20 12 8 12 24 27 35 54 103 101 75 78 107 94 79 83 110 133 127 114 118 128 131 126 123 120 98 110 103 95 85 88 91 80 95 106 82 30 23 26 30 24 24 17 22 14 13 8 5 1 0 0 0 0 0 0 0 0 0 0 0 0 0 0 0 0 0 0 0 0 0 0 0 0 0 0 0 0 0 0 0 0 0 0 0 0 0 0 0 0 0 0 0 0 0 
0 0 0 0 0 0 0 0 0 0 0 0 0 0 0 0 0 0 0 0 0 0 0 0 0 0 0 0 0 8 5 10 17 20 14 8 7 18 28 35 31 33 40 46 60 87 100 91 91 101 114 125 124 117 119 122 114 112 105 91 98 114 99 96 91 70 41 39 39 41 26 22 29 28 24 20 16 22 15 13 7 3 1 0 0 0 0 0 0 0 0 0 0 0 0 0 0 0 0 0 0 0 0 0 0 0 0 0 0 0 0 0 0 0 0 0 0 0 0 0 0 0 0 0 0 0 0 0 
0 0 0 0 0 0 0 0 0 0 0 0 0 0 0 0 0 0 0 0 0 0 0 0 0 0 0 0 0 6 7 8 15 19 14 9 9 13 28 34 29 30 33 46 56 63 81 98 95 84 100 114 103 95 96 102 98 91 83 84 100 93 82 100 89 53 37 40 37 38 25 22 29 27 20 17 18 23 15 13 8 3 1 0 0 0 0 0 0 0 0 0 0 0 0 0 0 0 0 0 0 0 0 0 0 0 0 0 0 0 0 0 0 0 0 0 0 0 0 0 0 0 0 0 0 0 0 0 
