P2
128 99
224
0 0 0 0 0 0 0 0 0 0 0 0 0 0 0 0 0 0 0 0 0 0 0 0 0 0 0 0 0 0 0 1 0 0 0 0 0 0 0 0 0 0 0 0 0 0 0 0 0 0 0 0 0 0 0 0 0 0 0 0 0 0 0 0 0 0 0 0 0 0 0 0 0 0 0 0 0 0 0 0 0 0 0 0 0 0 0 0 0 0 0 0 0 0 0 1 5 1 0 0 0 0 0 0 0 0 0 0 0 0 0 0 0 0 0 0 0 0 0 0 0 0 0 0 0 0 0 0 
0 0 0 0 0 0 0 0 0 0 0 0 0 0 0 0 0 0 0 0 0 0 0 0 0 0 0 0 0 0 0 1 0 0 0 0 0 0 0 0 0 0 0 0 0 0 0 0 0 0 0 0 0 0 0 0 0 0 0 0 0 0 0 0 0 0 0 0 0 0 0 0 0 0 0 0 0 0 0 0 0 0 0 0 0 0 0 0 0 0 0 0 0 0 0 1 5 1 0 0 0 0 0 0 0 0 0 0 0 0 0 0 0 0 0 0 0 0 0 0 0 0 0 0 0 0 0 0 
0 0 0 0 0 0 0 0 0 0 0 0 0 0 0 0 0 0 0 0 0 0 0 0 0 0 0 0 0 0 0 1 0 0 0 0 0 0 0 0 0 0 0 0 0 0 0 0 0 0 1 3 2 3 0 0 0 0 0 0 0 0 0 0 0 0 0 0 0 0 0 0 0 0 0 0 0 0 0 0 0 0 0 0 0 0 0 0 0 0 0 0 0 0 0 1 5 2 0 0 0 0 0 0 0 0 0 0 0 0 0 0 0 0 0 0 0 0 0 0 0 0 0 0 0 0 0 0 
0 0 0 0 0 0 0 0 0 0 0 0 0 0 0 0 0 0 0 0 0 0 0 0 0 0 0 0 0 0 0 1 0 0 0 0 0 0 0 0 0 0 0 1 6 12 18 18 19 22 24 26 29 29 27 22 17 16 15 10 3 0 0 0 0 0 0 0 0 0 0 0 0 0 0 0 0 0 0 0 0 0 0 0 0 0 0 0 0 0 0 0 0 0 0 1 5 2 0 0 0 0 0 0 0 0 0 0 0 0 0 0 0 0 0 0 0 0 0 0 0 0 0 0 0 0 0 0 
0 0 0 0 0 0 0 0 0 0 0 0 0 0 0 0 0 0 0 0 0 0 0 0 0 0 0 0 0 0 0 0 0 0 0 0 0 0 0 0 5 14 19 22 27 34 51 74 95 114 128 136 141 143 141 132 119 100 77 53 31 22 17 11 1 0 0 0 0 0 0 0 0 0 0 0 0 0 0 0 0 0 0 0 0 0 0 0 0 0 0 0 0 0 0 1 5 1 0 0 0 0 0 0 0 0 0 0 0 0 0 0 0 0 0 0 0 0 0 0 0 0 0 0 0 0 0 0 
0 0 0 0 0 0 0 0 0 0 0 0 0 0 0 0 0 0 0 0 0 0 0 0 0 0 0 0 0 0 0 0 0 0 0 0 0 0 11 16 21 26 34 65 107 138 158 168 171 171 170 167 166 164 166 165 164 162 159 155 140 112 75 42 24 16 12 1 0 0 0 0 0 0 0 0 0 0 0 0 0 0 0 0 0 0 0 0 0 0 0 0 0 0 0 1 5 1 0 0 0 0 0 0 0 0 0 0 0 0 0 0 0 0 0 0 0 0 0 0 0 0 0 0 0 0 0 0 
0 0 0 0 0 0 0 0 0 0 0 0 0 0 0 0 0 0 0 0 0 0 0 0 0 0 0 0 0 0 0 0 0 0 0 0 10 20 23 27 49 97 138 161 174 174 169 169 173 177 179 179 179 176 175 174 173 172 171 170 166 160 156 146 117 74 36 18 13 1 0 0 0 0 0 0 0 0 0 0 0 0 0 0 0 0 0 0 0 0 0 0 0 0 0 2 5 1 0 0 0 0 0 0 0 0 0 0 0 0 0 0 0 0 0 0 0 0 0 0 0 0 0 0 0 0 0 0 
0 0 0 0 0 0 0 0 0 0 0 0 0 0 0 0 0 0 0 0 0 0 0 0 0 0 0 0 0 0 0 0 0 0 9 24 23 26 61 118 151 169 172 171 174 184 180 174 173 177 184 193 196 192 191 196 199 195 186 176 171 170 170 166 160 157 140 96 46 23 12 1 0 0 0 0 0 0 0 0 0 0 0 0 0 0 0 0 0 0 0 0 0 0 0 2 5 1 0 0 0 0 0 0 0 0 0 0 0 0 0 0 0 0 0 0 0 0 0 0 0 0 0 0 0 0 0 0 
0 0 0 0 0 0 0 0 0 0 0 0 0 0 0 0 0 0 0 0 0 0 0 0 0 0 0 0 0 0 0 0 6 26 21 23 58 121 154 167 167 171 179 181 177 167 171 177 166 154 144 141 137 131 133 140 151 174 200 213 206 193 179 169 169 169 164 163 147 95 41 24 11 0 0 0 0 0 0 0 0 0 0 0 0 0 0 0 0 0 0 0 0 0 0 2 5 1 0 0 0 0 0 0 0 0 0 0 0 0 0 0 0 0 0 0 0 0 0 0 0 0 0 0 0 0 0 0 
0 0 0 0 0 0 0 0 0 0 0 0 0 0 0 0 0 0 0 0 0 0 0 0 0 0 0 0 0 0 1 24 23 25 43 107 151 167 167 168 175 177 177 171 166 164 151 125 110 115 128 133 137 135 134 136 139 130 137 159 187 201 209 207 191 177 172 174 167 164 140 73 30 18 2 0 0 0 0 0 0 0 0 0 0 0 0 0 0 0 0 0 0 0 0 2 5 1 0 0 0 0 0 0 0 0 0 0 0 0 0 0 0 0 0 0 0 0 0 0 0 0 0 0 0 0 0 0 
0 0 0 0 0 0 0 0 0 0 0 0 0 0 0 0 0 0 0 0 0 0 0 0 0 0 0 0 0 10 28 25 30 80 143 163 171 170 174 176 182 187 180 163 148 132 120 119 119 128 141 148 144 139 142 137 135 135 136 133 146 167 179 190 202 208 201 186 175 174 167 162 111 43 20 6 0 0 0 0 0 0 0 0 0 0 0 0 0 0 0 0 0 0 0 2 5 1 0 0 0 0 0 0 0 0 0 0 0 0 0 0 0 0 0 0 0 0 0 0 0 0 0 0 0 0 0 0 
0 0 0 0 0 0 0 0 0 0 0 0 0 0 0 0 0 0 0 0 0 0 0 0 0 0 0 0 22 27 19 48 121 159 172 173 176 177 185 194 187 163 137 131 137 135 140 133 126 118 98 101 95 91 114 122 122 127 134 141 145 159 175 180 182 185 194 205 203 186 176 171 164 142 65 23 12 0 0 0 0 0 0 0 0 0 0 0 0 0 0 0 0 0 0 2 5 2 0 0 0 0 0 0 0 0 0 0 0 0 0 0 0 0 0 0 0 0 0 0 0 0 0 0 0 0 0 0 
0 0 0 0 0 0 0 0 0 0 0 0 0 0 0 0 0 0 0 0 0 0 0 0 0 0 4 27 21 15 72 144 165 176 175 178 186 201 188 161 142 138 145 143 135 137 133 126 127 113 110 117 120 122 129 135 130 128 127 128 134 140 153 169 180 185 187 186 192 205 199 179 171 161 151 79 24 13 0 0 0 0 0 0 0 0 0 0 0 0 0 0 0 0 0 2 6 2 0 0 0 0 0 0 0 0 0 0 0 0 0 0 0 0 0 0 0 0 0 0 0 0 0 0 0 0 0 0 
0 0 0 0 0 0 0 0 0 0 0 0 0 0 0 0 0 0 0 0 0 0 0 0 0 9 26 17 23 96 151 169 176 179 184 199 199 165 146 143 154 154 146 144 142 136 134 137 130 127 126 128 127 128 127 132 142 141 141 142 141 139 137 140 153 167 179 184 185 187 198 201 183 170 163 155 90 27 13 0 0 0 0 0 0 0 0 0 0 0 0 0 0 0 0 2 6 2 0 0 0 0 0 0 0 0 0 0 0 0 0 0 0 0 0 0 0 0 0 0 0 0 0 0 0 0 0 0 
0 0 0 0 0 0 0 0 0 0 0 0 0 0 0 0 0 0 0 0 0 0 0 0 14 24 15 34 110 153 170 174 183 192 205 184 153 147 153 162 156 146 142 141 140 136 130 128 135 137 136 137 135 142 146 143 143 151 159 157 153 155 154 148 138 138 149 165 176 178 181 193 203 189 173 165 157 100 30 14 0 0 0 0 0 0 0 0 0 0 0 0 0 0 0 2 6 2 0 0 0 0 0 0 0 0 0 0 0 0 0 0 0 0 0 0 0 0 0 0 0 0 0 0 0 0 0 0 
0 0 0 0 0 0 0 0 0 0 0 0 0 0 0 0 0 0 0 0 0 0 3 17 22 16 45 121 153 168 176 185 195 195 162 146 154 164 162 150 134 130 140 153 158 158 158 153 145 145 138 129 124 126 131 133 131 131 139 149 149 153 165 168 162 150 144 137 149 166 170 176 187 204 190 175 165 160 109 37 12 0 0 0 0 0 0 0 0 0 0 0 0 0 0 2 6 2 0 0 0 0 0 0 0 0 0 0 0 0 0 0 0 0 0 0 0 0 0 0 0 0 0 0 0 0 0 0 
0 0 0 0 0 0 0 0 0 0 0 0 0 0 0 0 0 0 0 0 0 5 14 20 19 58 130 155 170 178 189 193 183 153 148 160 160 153 141 134 143 159 168 162 153 146 141 131 130 130 129 125 120 121 121 121 121 123 120 121 121 129 140 146 164 170 161 149 139 141 158 165 169 182 200 186 180 167 158 114 40 9 0 0 0 0 0 0 0 0 0 0 0 0 0 2 6 2 0 0 0 0 0 0 0 0 0 0 0 0 0 0 0 0 0 0 0 0 0 0 0 0 0 0 0 0 0 0 
0 0 0 0 0 0 0 0 0 0 0 0 0 0 0 0 0 0 0 0 7 12 18 18 68 137 158 171 177 190 188 172 152 151 163 155 141 129 141 159 161 159 154 141 122 112 107 111 105 99 114 119 116 114 108 110 116 119 120 119 114 113 115 125 132 147 161 166 152 143 132 146 156 166 181 198 185 180 167 160 122 37 7 0 0 0 0 0 0 0 0 0 0 0 0 2 6 2 0 0 0 0 0 0 0 0 0 0 0 0 0 0 0 0 0 0 0 0 0 0 0 0 0 0 0 0 0 0 
0 0 0 0 0 0 0 0 0 0 0 0 0 0 0 0 0 0 0 6 13 17 18 71 140 158 171 175 188 186 169 151 150 159 148 132 122 140 154 147 144 140 129 110 100 95 92 94 91 90 97 96 98 106 105 109 116 124 132 136 135 127 117 112 112 119 138 154 165 149 137 126 141 148 156 179 199 181 178 167 160 115 29 3 0 0 0 0 0 0 0 0 0 0 0 2 6 2 0 0 0 0 0 0 0 0 0 0 0 0 0 0 0 0 0 0 0 0 0 0 0 0 0 0 0 0 0 0 
0 0 0 0 0 0 0 0 0 0 0 0 0 0 0 0 0 0 4 13 17 16 75 141 155 165 176 186 180 166 155 149 153 143 128 113 129 145 142 140 133 119 109 105 101 97 97 100 103 105 99 81 91 114 110 110 109 110 114 123 130 136 138 128 114 104 111 132 153 163 143 135 125 140 146 150 182 202 178 177 165 151 99 18 1 0 0 0 0 0 0 0 0 0 0 2 6 2 0 0 0 0 0 0 0 0 0 0 0 0 0 0 0 0 0 0 0 0 0 0 0 0 0 0 0 0 0 0 
0 0 0 0 0 0 0 0 0 0 0 0 0 0 0 0 0 3 12 17 18 73 137 155 163 173 185 172 162 154 147 144 134 125 109 127 145 145 139 133 121 106 101 99 99 100 103 105 107 104 87 85 88 111 114 107 106 104 102 106 114 112 122 131 134 122 111 118 133 150 150 135 137 128 136 141 145 186 196 176 176 166 142 76 10 0 0 0 0 0 0 0 0 0 0 2 6 2 0 0 0 0 0 0 0 0 0 0 0 0 0 0 0 0 0 0 0 0 0 0 0 0 0 0 0 0 0 0 
0 0 0 0 0 0 0 0 0 0 0 0 0 0 0 0 0 10 13 17 67 126 153 155 174 179 164 164 154 144 140 129 127 115 126 148 144 142 131 113 99 95 93 95 101 106 107 109 106 97 93 93 92 96 111 116 117 114 114 110 109 104 101 107 121 132 126 114 118 132 146 132 127 136 124 134 133 143 191 183 175 177 153 133 52 3 0 0 0 0 0 0 0 0 0 2 6 3 0 0 0 0 0 0 0 0 0 0 0 0 0 0 0 0 0 0 0 0 0 0 0 0 0 0 0 0 0 0 
0 0 0 0 0 0 0 0 0 0 0 0 0 0 0 0 6 12 15 56 120 149 150 169 175 163 156 157 140 135 129 121 108 121 149 146 141 126 108 94 92 93 91 94 96 91 92 95 97 97 94 95 94 94 96 96 102 101 98 94 95 93 86 82 85 100 122 130 119 119 135 142 120 126 135 124 129 125 154 187 178 172 169 145 111 27 2 0 0 0 0 0 0 0 0 2 7 3 0 0 0 0 0 0 0 0 0 0 0 0 0 0 0 0 0 0 0 0 0 0 0 0 0 0 0 0 0 0 
0 0 0 0 0 0 0 0 0 0 0 0 0 0 0 3 10 15 49 107 142 150 161 176 166 147 161 139 131 131 115 103 118 151 148 137 118 100 93 84 84 84 86 88 93 94 93 96 97 93 89 90 91 91 91 88 91 91 94 95 97 97 92 85 77 78 93 122 131 124 123 132 132 114 128 133 132 118 119 169 177 175 173 155 137 78 9 0 0 0 0 0 0 0 0 3 6 3 0 0 0 0 0 0 0 0 0 0 0 0 0 0 0 0 0 0 0 0 0 0 0 0 0 0 0 0 0 0 
0 0 0 0 0 0 0 0 0 0 0 0 0 0 0 7 12 29 92 125 148 152 176 165 143 157 147 127 131 123 104 110 147 147 145 121 101 90 80 70 76 86 93 93 93 94 95 91 93 94 92 91 91 91 92 91 91 90 91 96 97 97 98 92 83 74 77 101 130 128 125 125 134 122 114 129 134 129 104 142 168 177 169 167 142 114 33 2 0 0 0 0 0 0 0 2 6 2 0 0 0 0 0 0 0 0 0 0 0 0 0 0 0 0 0 0 0 0 0 0 0 0 0 0 0 0 0 0 
0 0 0 0 0 0 0 0 0 0 0 0 0 0 3 7 17 76 111 146 139 166 168 148 139 154 126 126 129 113 109 137 149 145 126 101 94 80 71 75 85 95 99 96 96 97 92 90 92 95 94 94 94 95 93 93 91 94 95 95 95 98 101 102 94 82 74 78 105 129 127 128 133 133 114 119 135 134 110 115 156 169 169 175 150 132 63 5 0 0 0 0 0 0 0 3 6 3 0 0 0 0 0 0 0 0 0 0 0 0 0 0 0 0 0 0 0 0 0 0 0 0 0 0 0 0 0 0 
0 0 0 0 0 0 0 0 0 0 0 0 0 0 6 11 43 101 132 145 155 171 146 137 146 141 122 131 117 101 131 154 147 127 99 85 73 70 78 87 95 100 99 94 93 95 94 96 94 94 95 97 94 94 90 89 89 89 89 93 93 98 100 99 97 90 78 72 83 111 126 137 132 135 132 115 133 141 123 101 135 161 167 171 163 139 95 15 1 0 0 0 0 0 0 2 6 3 0 0 0 0 0 0 0 0 0 0 0 0 0 0 0 0 0 0 0 0 0 0 0 0 0 0 0 0 0 0 
0 0 0 0 0 0 0 0 0 0 0 0 0 0 7 14 81 108 146 141 167 157 140 137 145 126 124 126 105 124 152 146 124 103 84 74 72 76 87 99 103 100 98 95 89 93 96 96 97 93 90 92 95 91 84 83 82 80 83 88 87 90 96 99 96 94 91 81 76 86 109 133 142 132 144 126 117 138 135 102 118 147 157 164 168 144 117 38 2 0 0 0 0 0 0 2 6 3 0 0 0 0 0 0 0 0 0 0 0 0 0 0 0 0 0 0 0 0 0 0 0 0 0 0 0 0 0 0 
0 0 0 0 0 0 0 0 0 0 0 0 0 4 6 37 98 128 144 152 164 144 139 130 142 115 125 117 108 146 156 133 107 92 77 73 77 88 96 98 95 92 88 84 81 82 85 90 95 87 85 91 90 91 86 81 82 77 77 72 73 78 87 95 95 93 95 93 79 74 89 117 138 135 139 145 116 125 139 107 111 129 158 159 167 152 126 61 3 0 0 0 0 0 0 2 6 3 0 0 0 0 0 0 0 0 0 0 0 0 0 0 0 0 0 0 0 0 0 0 0 0 0 0 0 0 0 0 
0 0 0 0 0 0 0 0 0 0 0 0 0 4 8 70 106 141 137 159 145 131 130 130 133 110 122 107 125 161 147 112 97 86 76 79 92 98 94 86 79 80 77 75 78 78 76 82 84 79 83 95 96 98 89 81 78 76 73 68 66 70 76 86 97 95 93 99 94 81 77 94 125 133 133 150 128 112 135 116 108 117 153 161 167 159 135 81 7 0 0 0 0 0 0 2 7 3 0 0 0 0 0 0 0 0 0 0 0 0 0 0 0 0 0 0 0 0 0 0 0 0 0 0 0 0 0 0 
0 0 0 0 0 0 0 0 0 0 0 0 0 7 18 89 116 146 145 152 129 125 132 131 124 111 115 111 135 158 123 94 92 79 79 93 103 95 80 75 74 74 76 81 84 85 81 84 86 92 102 112 121 121 114 105 98 94 88 83 77 72 71 81 95 95 92 94 100 94 80 85 111 126 126 147 131 113 128 123 105 109 143 161 166 158 137 93 10 0 0 0 0 0 0 3 7 3 0 0 0 0 0 0 0 0 0 0 0 0 0 0 0 0 0 0 0 0 0 0 0 0 0 0 0 0 0 0 
0 0 0 0 0 0 0 0 0 0 0 0 2 6 35 100 124 146 147 134 127 125 129 132 114 105 105 124 139 134 95 87 92 82 92 102 97 83 78 75 62 61 66 80 100 111 117 125 130 133 137 140 150 148 141 136 132 132 133 127 115 97 84 82 90 95 90 83 93 98 93 83 100 118 123 134 124 102 120 124 114 112 145 165 166 159 142 101 15 0 0 0 0 0 0 3 7 3 0 0 0 0 0 0 0 0 0 0 0 0 0 0 0 0 0 0 0 0 0 0 0 0 0 0 0 0 0 0 
0 0 0 0 0 0 0 0 0 0 0 0 3 6 50 109 133 147 139 125 120 129 130 130 102 94 111 129 127 116 89 93 92 93 102 100 86 81 77 65 64 68 75 91 121 142 146 143 139 141 137 138 141 123 114 112 108 117 137 152 144 127 104 89 82 81 80 86 89 98 100 93 95 110 118 124 120 94 113 122 117 111 138 162 170 163 150 115 24 0 0 0 0 0 0 3 7 4 0 0 0 0 0 0 0 0 0 0 0 0 0 0 0 0 0 0 0 0 0 0 0 0 0 0 0 0 0 0 
0 0 0 0 0 0 0 0 0 0 0 0 3 5 62 114 141 151 137 123 116 136 130 124 93 93 120 124 111 112 91 95 100 106 107 90 82 81 75 66 70 76 88 110 135 151 149 142 129 125 127 134 120 104 106 106 105 110 119 138 141 137 119 99 84 79 78 80 93 94 97 102 103 107 109 117 110 94 105 121 124 116 142 162 173 164 151 126 34 2 0 0 0 0 0 3 7 3 0 0 0 0 0 0 0 0 0 0 0 0 0 0 0 0 0 0 0 0 0 0 0 0 0 0 0 0 0 0 
0 0 0 0 0 0 0 0 0 0 0 0 4 8 69 117 144 148 137 126 121 139 127 117 94 103 127 113 96 106 92 104 111 108 99 85 78 82 86 80 81 85 96 121 138 146 147 138 123 113 115 126 113 104 109 114 114 113 116 117 134 147 134 112 94 85 84 94 101 91 90 101 116 118 108 114 104 100 97 114 131 119 141 162 173 160 152 134 49 2 0 0 0 0 0 3 7 3 0 0 0 0 0 0 0 0 0 0 0 0 0 0 0 0 0 0 0 0 0 0 0 0 0 0 0 0 0 0 
0 0 0 0 0 0 0 0 0 0 0 0 5 12 77 123 148 144 138 131 130 139 124 114 100 113 126 98 87 104 100 116 113 104 92 87 82 81 86 92 100 105 114 134 144 142 138 132 114 112 112 112 109 102 112 118 118 116 115 109 125 149 144 131 109 97 96 99 102 96 96 103 120 129 121 123 104 103 97 110 135 123 136 159 177 163 154 139 61 3 0 0 0 0 0 3 7 3 0 0 0 0 0 0 0 0 0 0 0 0 0 0 0 0 0 0 0 0 0 0 0 0 0 0 0 0 0 0 
0 0 0 0 0 0 0 0 0 0 0 0 4 12 82 127 150 144 140 138 137 137 123 114 110 122 120 88 80 107 114 120 105 99 95 87 84 77 78 90 98 108 118 134 144 140 134 124 119 117 116 109 104 102 112 111 107 106 109 109 130 145 141 139 124 110 107 114 112 98 94 111 125 124 130 137 111 102 96 113 140 120 132 148 176 170 159 139 76 6 0 0 0 0 0 3 7 3 0 0 0 0 0 0 0 0 0 0 0 0 0 0 0 0 0 0 0 0 0 0 0 0 0 0 0 0 0 0 
0 0 0 0 0 0 0 0 0 0 0 0 6 14 85 132 148 148 141 138 145 137 124 115 119 130 114 79 74 112 123 119 108 105 95 108 113 101 98 118 125 117 108 114 130 135 141 133 108 102 98 101 105 107 109 101 101 100 102 113 139 137 130 126 124 117 108 98 91 86 91 98 105 110 123 150 132 107 104 127 145 119 124 139 174 173 161 139 92 9 0 0 0 0 0 3 6 3 0 0 0 0 0 0 0 0 0 0 0 0 0 0 0 0 0 0 0 0 0 0 0 0 0 0 0 0 0 0 
0 0 0 0 0 0 0 0 0 0 0 0 6 16 87 138 152 152 142 136 147 133 122 118 132 135 115 77 75 115 118 122 117 110 116 116 112 109 109 113 117 126 124 113 102 102 116 140 124 103 95 96 102 106 100 97 98 98 106 130 122 119 112 103 101 97 94 91 83 74 71 71 79 97 124 154 148 123 109 133 143 114 121 135 165 170 164 141 103 11 0 0 0 0 0 2 6 3 0 0 0 0 0 0 0 0 0 0 0 0 0 0 0 0 0 0 0 0 0 0 0 0 0 0 0 0 0 0 
0 0 0 0 0 0 0 0 0 0 0 0 7 16 88 143 152 149 142 129 147 129 121 121 140 134 117 90 87 111 116 117 110 108 95 92 95 97 97 101 104 106 104 107 117 105 100 122 134 117 102 97 100 110 109 106 104 112 134 131 120 101 94 97 101 102 99 94 86 79 78 78 83 102 121 157 159 138 118 138 140 110 114 133 154 161 163 141 111 16 0 0 0 0 0 2 6 3 0 0 0 0 0 0 0 0 0 0 0 0 0 0 0 0 0 0 0 0 0 0 0 0 0 0 0 0 0 0 
0 0 0 0 0 0 0 0 0 0 0 0 7 17 86 145 150 152 138 119 151 127 117 116 142 140 108 106 112 103 114 105 103 90 82 90 96 99 102 105 107 103 99 92 97 108 101 108 128 129 131 122 112 108 120 124 128 132 134 132 108 93 93 99 106 109 108 103 93 88 82 78 80 103 132 154 157 141 130 140 137 107 102 129 141 157 163 141 122 23 0 0 0 0 0 2 6 3 0 0 0 0 0 0 0 0 0 0 0 0 0 0 0 0 0 0 0 0 0 0 0 0 0 0 0 0 0 0 
0 0 0 0 0 0 0 0 0 0 0 0 6 18 89 148 147 150 117 109 151 125 116 110 135 148 111 104 116 110 112 109 112 88 87 95 98 103 106 110 112 105 99 92 90 98 111 109 119 140 139 126 120 112 123 124 136 144 140 121 99 89 98 109 116 112 105 97 89 84 81 78 82 95 120 145 143 132 128 133 127 104 98 126 129 157 167 144 129 34 0 0 0 0 0 2 6 3 0 0 0 0 0 0 0 0 0 0 0 0 0 0 0 0 0 0 0 0 0 0 0 0 0 0 0 0 0 0 
0 0 0 0 0 0 0 0 0 0 0 0 7 20 89 146 146 153 119 116 148 125 113 105 127 145 118 111 112 106 105 115 115 86 90 98 106 110 113 113 114 113 104 93 94 94 106 113 108 143 141 122 120 120 125 129 138 151 134 110 92 100 105 102 103 103 99 93 88 87 84 80 80 90 112 145 138 128 130 127 120 100 95 118 118 150 162 146 129 42 1 0 0 0 0 2 6 3 0 0 0 0 0 0 0 0 0 0 0 0 0 0 0 0 0 0 0 0 0 0 0 0 0 0 0 0 0 0 
0 0 0 0 0 0 0 0 0 0 0 0 8 19 91 146 148 151 121 122 139 124 104 102 116 139 116 101 104 104 95 114 111 84 84 90 100 107 113 107 104 102 101 104 102 92 94 108 112 132 131 111 110 118 114 130 133 142 119 100 98 107 100 98 99 101 92 84 88 90 86 80 77 80 102 140 138 127 128 124 114 92 95 113 112 138 152 144 132 48 2 0 0 0 0 3 6 3 0 0 0 0 0 0 0 0 0 0 0 0 0 0 0 0 0 0 0 0 0 0 0 0 0 0 0 0 0 0 
0 0 0 0 0 0 0 0 0 0 0 0 7 17 94 147 150 143 119 117 130 116 96 97 108 132 111 89 92 99 87 109 95 79 80 91 101 110 113 102 95 98 94 99 104 99 97 98 105 128 124 106 109 104 106 116 120 138 123 106 105 103 107 101 100 97 85 75 83 89 88 80 76 80 97 140 135 128 120 130 126 84 95 112 93 130 143 147 134 54 2 0 0 0 0 3 7 3 0 0 0 0 0 0 0 0 0 0 0 0 0 0 0 0 0 0 0 0 0 0 0 0 0 0 0 0 0 0 
0 0 0 0 0 0 0 0 0 0 0 0 7 17 91 146 154 138 109 112 123 109 98 91 100 130 116 83 92 97 86 109 97 79 82 89 98 107 110 97 96 98 92 92 94 98 103 105 104 130 122 121 116 117 119 109 112 129 116 105 112 121 127 104 99 91 78 70 79 85 84 81 77 81 101 137 126 123 120 138 145 86 96 114 95 131 125 138 132 58 3 0 0 0 0 2 6 2 0 0 0 0 0 0 0 0 0 0 0 0 0 0 0 0 0 0 0 0 0 0 0 0 0 0 0 0 0 0 
0 0 0 0 0 0 0 0 0 0 0 0 8 16 90 146 157 132 111 114 101 107 97 88 95 127 120 78 86 97 90 102 107 80 88 92 96 108 111 99 95 94 98 107 103 100 106 105 88 111 122 131 112 108 116 98 102 126 106 117 114 115 109 101 94 89 76 68 76 83 83 78 78 80 108 138 121 119 126 139 147 86 96 114 91 130 122 143 132 59 4 0 0 0 0 2 6 2 0 0 0 0 0 0 0 0 0 0 0 0 0 0 0 0 0 0 0 0 0 0 0 0 0 0 0 0 0 0 
0 0 0 0 0 0 0 0 0 0 0 0 6 14 85 143 158 122 114 113 91 108 99 89 96 132 125 76 84 99 98 96 113 87 89 96 98 109 109 99 92 92 103 112 107 111 108 99 90 110 138 117 89 92 99 93 108 136 96 102 108 108 102 101 98 90 78 70 76 80 79 77 79 81 118 140 121 127 121 135 145 86 96 110 90 129 124 145 129 57 3 0 0 0 0 2 6 2 0 0 0 0 0 0 0 0 0 0 0 0 0 0 0 0 0 0 0 0 0 0 0 0 0 0 0 0 0 0 
0 0 0 0 0 0 0 0 0 0 0 0 7 12 76 139 156 118 114 117 84 109 101 86 94 130 136 84 86 99 103 95 110 98 88 98 104 110 109 104 98 96 96 95 92 93 102 99 102 99 118 92 89 93 98 88 90 127 108 99 101 101 100 105 97 88 75 71 76 80 76 74 78 85 121 133 137 125 115 131 141 87 102 108 92 127 121 139 124 52 3 0 0 0 0 2 6 2 0 0 0 0 0 0 0 0 0 0 0 0 0 0 0 0 0 0 0 0 0 0 0 0 0 0 0 0 0 0 
0 0 0 0 0 0 0 0 0 0 0 0 5 12 71 135 150 117 110 120 75 106 104 82 90 117 132 91 90 100 103 96 103 106 86 98 106 107 107 106 97 95 96 94 89 90 102 88 86 99 102 94 94 94 98 88 88 103 111 94 101 98 102 115 100 91 77 69 73 78 75 76 79 90 121 134 139 118 112 123 132 91 109 99 99 129 123 135 123 46 2 0 0 0 0 2 6 2 0 0 0 0 0 0 0 0 0 0 0 0 0 0 0 0 0 0 0 0 0 0 0 0 0 0 0 0 0 0 
0 0 0 0 0 0 0 0 0 0 0 0 3 11 63 129 145 125 105 125 75 96 108 90 93 103 124 92 96 96 96 90 89 103 89 95 101 102 106 105 96 90 94 94 88 93 93 88 91 102 95 94 92 92 98 90 85 87 110 99 109 107 116 117 101 89 75 65 70 77 75 80 79 99 122 136 128 119 112 113 123 98 111 91 105 119 128 133 116 40 2 0 0 0 0 2 6 2 0 0 0 0 0 0 0 0 0 0 0 0 0 0 0 0 0 0 0 0 0 0 0 0 0 0 0 0 0 0 
0 0 0 0 0 0 0 0 0 4 3 0 0 10 51 123 138 130 102 125 78 83 110 96 88 99 114 98 100 92 91 84 77 94 102 98 101 98 102 103 97 95 96 93 96 116 96 93 94 92 77 80 86 93 101 93 88 88 98 107 106 107 133 118 105 96 76 63 68 77 79 77 83 108 117 126 125 129 125 104 117 108 103 87 110 104 128 126 101 31 2 0 0 0 0 2 6 2 0 0 0 0 0 0 0 0 0 0 0 0 0 0 0 0 0 0 0 0 0 0 0 0 0 0 0 0 0 0 
0 0 0 0 0 0 0 0 0 0 6 3 0 8 41 114 140 133 99 123 86 69 106 101 89 94 115 108 105 86 86 89 75 76 103 102 97 95 95 98 102 108 109 103 103 97 102 101 104 83 70 72 87 98 99 94 105 100 94 111 118 134 126 109 100 96 77 66 69 75 78 81 94 111 105 128 128 129 125 100 120 121 97 91 118 93 129 125 90 25 2 0 0 0 0 2 6 2 0 0 0 0 0 0 0 0 0 0 0 0 0 0 0 0 0 0 0 0 0 0 0 0 0 0 0 0 0 0 
0 0 0 0 0 0 0 0 0 1 12 9 4 8 33 103 139 133 100 105 98 65 94 106 91 92 111 117 111 85 82 92 76 69 92 110 96 93 92 96 102 107 117 117 107 109 103 96 102 74 69 72 81 99 98 94 91 97 108 121 120 124 123 110 112 104 77 67 76 80 76 78 100 106 107 134 129 127 118 106 123 130 90 105 107 97 133 123 80 20 1 0 0 0 0 2 6 2 0 0 0 0 0 0 0 0 0 0 0 0 0 0 0 0 0 0 0 0 0 0 0 0 0 0 0 0 0 0 
0 0 0 0 0 0 0 0 0 1 14 10 1 8 28 90 138 132 107 99 119 80 78 108 95 91 106 115 119 97 89 86 86 75 84 99 96 97 97 106 112 119 126 111 91 97 95 98 113 85 71 73 78 98 94 89 94 95 97 118 126 111 105 115 120 125 138 124 119 122 127 122 130 131 135 142 135 120 102 104 126 148 112 112 93 104 132 116 73 14 2 0 0 4 3 2 6 2 0 0 0 0 0 0 0 0 0 0 0 0 0 0 0 0 0 0 0 0 0 0 0 0 0 0 0 0 0 0 
0 0 0 0 0 0 0 0 0 0 7 12 0 6 23 75 138 140 120 98 117 92 67 97 103 100 104 114 123 103 99 123 146 145 136 136 133 130 129 131 126 124 106 93 106 101 101 112 108 75 72 79 79 95 88 87 90 92 91 123 118 121 128 125 123 113 130 131 137 144 156 166 157 147 160 168 154 114 93 110 126 148 128 102 91 121 119 103 63 10 5 5 7 1 0 2 6 2 0 0 0 0 0 0 0 0 0 0 0 0 0 0 0 0 0 0 0 0 0 0 0 0 0 0 0 0 0 0 
0 0 0 0 0 0 0 0 0 0 1 7 4 6 18 65 132 141 130 98 108 108 70 78 117 134 108 123 119 116 116 149 157 134 127 136 144 133 118 115 111 92 92 98 104 108 97 100 102 86 76 82 91 100 90 90 90 97 109 153 136 124 127 127 120 110 132 124 120 118 130 154 135 130 155 145 139 118 109 115 129 149 139 117 130 130 118 102 55 8 2 0 7 7 0 2 6 2 0 0 0 0 0 0 0 0 0 0 0 0 0 0 0 0 0 0 0 0 0 0 0 0 0 0 0 0 0 0 
0 0 0 0 0 0 0 0 0 0 0 4 4 8 11 54 121 142 136 106 100 113 89 74 130 133 110 132 124 115 115 144 165 144 123 128 143 136 134 127 111 98 101 97 102 106 104 104 116 105 84 86 93 97 95 108 115 112 128 151 149 136 122 111 96 112 132 109 126 152 166 166 147 148 157 139 132 130 135 143 132 144 164 144 146 124 118 96 43 6 0 3 2 4 0 2 6 2 0 0 0 0 0 0 0 0 0 0 0 0 0 0 0 0 0 0 0 0 0 0 0 0 0 0 0 0 0 0 
0 0 0 0 0 0 0 0 0 0 0 4 8 10 11 41 102 140 134 128 98 128 119 89 126 127 111 136 138 118 128 148 171 167 146 123 105 103 117 123 111 108 113 110 109 105 115 124 124 109 114 114 93 114 121 115 111 126 132 128 136 121 109 92 79 103 124 122 141 156 163 161 151 136 119 118 99 107 125 154 159 150 179 162 161 144 140 83 25 4 4 1 1 1 0 2 6 2 0 0 0 0 0 0 0 0 0 0 0 0 0 0 0 0 0 0 0 0 0 0 0 0 0 0 0 0 0 0 
0 0 0 0 0 0 0 0 0 0 0 4 13 8 5 30 97 140 127 136 130 158 138 114 135 131 119 134 141 140 142 142 150 164 143 117 99 85 88 97 109 119 124 115 113 113 125 124 118 98 110 126 117 128 120 104 103 112 131 111 121 110 92 80 81 97 105 114 141 152 154 139 140 124 113 101 105 110 112 142 160 168 182 163 165 144 130 64 15 7 7 0 1 0 0 2 6 2 0 0 0 0 0 0 0 0 0 0 0 0 0 0 0 0 0 0 0 0 0 0 0 0 0 0 0 0 0 0 
0 0 0 0 0 0 0 0 0 0 0 3 2 5 5 10 55 132 135 122 146 171 168 162 161 143 117 137 146 146 134 135 143 151 142 121 98 94 84 82 97 117 119 119 104 106 119 119 120 102 107 127 106 112 124 99 92 95 104 110 84 83 93 93 104 123 123 126 136 141 120 114 120 121 118 126 118 123 131 142 141 134 162 149 148 143 144 76 11 3 5 1 2 0 0 1 6 1 0 0 0 0 0 0 0 0 0 0 0 0 0 0 0 0 0 0 0 0 0 0 0 0 0 0 0 0 0 0 
0 0 0 0 0 0 0 0 0 0 0 4 2 4 4 9 35 116 144 120 139 169 175 176 177 166 140 156 142 134 118 102 148 151 140 133 125 129 116 93 90 108 113 102 95 97 104 102 101 91 104 115 116 117 119 92 78 75 80 90 86 76 72 85 111 131 132 137 135 119 101 104 114 119 124 116 106 118 122 129 148 159 153 119 124 115 123 47 6 3 4 1 2 0 0 1 6 1 0 0 0 0 0 0 0 0 0 0 0 0 0 0 0 0 0 0 0 0 0 0 0 0 0 0 0 0 0 0 
0 0 0 0 0 0 0 0 0 0 0 4 1 4 2 8 20 85 143 117 117 152 164 172 184 187 149 144 146 135 128 112 133 156 150 137 127 126 119 106 100 113 107 103 79 67 88 83 77 92 97 95 88 98 120 93 63 70 74 92 87 79 90 108 93 86 114 143 124 97 111 121 138 142 132 106 108 125 115 125 142 153 99 87 116 135 98 22 5 3 4 0 2 0 0 1 6 1 0 0 0 0 0 0 0 0 0 0 0 0 0 0 0 0 0 0 0 0 0 0 0 0 0 0 0 0 0 0 
0 0 0 0 0 0 0 0 0 0 0 5 1 5 2 5 13 54 141 140 111 141 151 138 135 159 141 126 134 152 146 124 122 135 132 129 116 112 127 122 105 110 98 86 97 97 95 81 91 99 85 81 86 97 116 107 64 64 73 85 93 82 85 115 111 87 87 98 96 100 128 138 142 142 131 133 130 131 115 129 128 116 107 118 143 138 63 8 6 8 6 0 1 1 0 1 6 1 0 0 0 0 0 0 0 0 0 0 0 0 0 0 0 0 0 0 0 0 0 0 0 0 0 0 0 0 0 0 
0 0 0 0 0 0 0 0 0 0 0 4 5 7 1 5 11 28 109 125 105 107 130 147 126 115 120 131 118 141 163 129 108 127 134 124 111 98 104 94 83 88 88 99 105 113 114 85 92 97 98 86 77 81 102 102 80 86 100 109 92 87 87 120 130 98 74 81 92 111 117 128 137 116 111 140 156 131 114 136 120 93 111 114 122 103 35 6 4 4 3 0 0 2 0 1 6 1 0 0 0 0 0 0 0 0 0 0 0 0 0 0 0 0 0 0 0 0 0 0 0 0 0 0 0 0 0 0 
0 0 0 0 0 0 0 0 0 0 0 4 8 9 0 5 14 16 78 115 94 103 121 146 135 120 108 122 123 121 139 126 114 132 140 127 100 102 98 95 79 89 88 85 84 92 117 112 105 121 122 118 96 86 120 109 109 99 92 100 89 97 108 119 119 90 70 86 96 117 117 122 106 97 116 141 159 140 157 152 129 105 96 98 124 71 21 9 4 6 3 0 0 3 0 1 5 1 0 0 0 0 0 0 0 0 0 0 0 0 0 0 0 0 0 0 0 0 0 0 0 0 0 0 0 0 0 0 
0 0 0 0 0 0 0 0 0 0 0 0 9 10 2 7 16 17 48 124 122 95 114 141 143 127 121 109 130 144 139 109 109 133 145 132 102 75 80 91 91 93 88 84 87 100 112 135 153 145 139 139 138 138 140 139 137 130 124 138 130 125 125 125 126 105 92 98 97 126 115 90 93 100 132 140 139 148 169 161 125 115 75 99 110 50 18 14 5 9 6 0 1 2 0 0 5 1 0 0 0 0 0 0 0 0 0 0 0 0 0 0 0 0 0 0 0 0 0 0 0 0 0 0 0 0 0 0 
0 0 0 0 0 0 0 0 0 0 0 0 5 7 3 8 17 20 25 94 125 84 106 110 145 155 141 127 143 167 162 114 104 139 148 120 100 95 85 88 97 101 105 117 128 144 138 141 143 145 159 165 165 177 187 177 173 158 143 145 155 158 144 121 113 126 119 103 116 113 95 106 103 103 121 129 135 161 182 163 133 113 46 108 97 31 15 15 9 9 5 2 3 2 0 0 5 1 0 0 0 0 0 0 0 0 0 0 0 0 0 0 0 0 0 0 0 0 0 0 0 0 0 0 0 0 0 0 
0 0 0 0 0 0 0 0 0 0 1 3 2 2 6 10 18 21 18 59 124 87 88 112 135 148 153 148 125 128 136 131 127 136 138 122 109 99 99 102 124 117 118 117 114 125 137 136 134 127 126 127 127 136 139 140 125 112 109 117 127 135 144 147 141 139 150 138 131 91 81 90 103 121 104 109 139 188 178 150 122 91 53 108 69 22 14 16 12 9 4 3 3 1 0 0 5 1 0 0 0 0 0 0 0 0 0 0 0 0 0 0 0 0 0 0 0 0 0 0 0 0 0 0 0 0 0 0 
0 0 0 0 0 0 0 0 0 0 2 5 4 4 6 10 15 16 16 39 105 107 89 102 135 137 151 160 148 132 117 140 162 156 109 102 116 122 125 123 128 134 138 140 125 129 153 150 129 126 124 130 128 139 135 131 134 136 120 115 124 136 145 166 168 168 184 180 140 102 86 85 108 128 109 120 155 183 161 140 98 88 92 104 59 20 17 16 12 9 3 2 2 1 0 0 5 1 0 0 0 0 0 0 0 0 0 0 0 0 0 0 0 0 0 0 0 0 0 0 0 0 0 0 0 0 0 0 
0 0 0 0 0 0 0 0 0 0 0 3 12 9 4 9 9 16 13 31 95 109 92 85 108 138 143 142 157 148 113 122 159 152 121 98 87 90 100 113 130 136 136 152 145 141 155 147 121 121 134 154 165 170 159 143 162 176 147 132 139 122 126 144 149 165 175 179 150 101 81 102 113 130 139 150 153 157 151 131 99 100 86 109 51 19 16 13 9 8 2 2 2 2 0 0 4 0 0 0 0 0 0 0 0 0 0 0 0 0 0 0 0 0 0 0 0 0 0 0 0 0 0 0 0 0 0 0 
0 0 0 0 0 0 0 0 0 0 0 2 12 10 4 7 8 15 14 21 68 111 94 93 86 109 120 113 137 124 129 112 137 113 106 115 108 111 119 125 124 110 110 125 137 148 154 149 138 133 157 175 162 183 165 127 140 153 125 121 152 138 121 127 145 168 168 170 152 114 101 108 130 124 145 166 169 176 137 91 89 77 79 100 33 17 10 6 7 3 4 3 3 4 3 0 4 0 0 0 0 0 0 0 0 0 0 0 0 0 0 0 0 0 0 0 0 0 0 0 0 0 0 0 0 0 0 0 
0 0 0 0 0 0 0 0 0 0 0 4 11 10 5 4 12 15 15 14 30 93 95 78 64 83 104 106 136 111 116 124 123 122 106 117 138 135 121 115 117 111 121 130 123 133 142 139 137 135 178 186 165 178 168 118 128 147 145 148 167 150 124 156 188 170 167 185 170 129 104 113 121 108 138 146 158 169 126 74 43 56 80 74 16 17 10 5 2 0 2 5 6 5 5 0 4 0 0 0 0 0 0 0 0 0 0 0 0 0 0 0 0 0 0 0 0 0 0 0 0 0 0 0 0 0 0 0 
0 0 0 0 0 0 0 0 0 0 0 2 12 13 10 10 9 9 12 15 17 55 93 81 75 83 104 120 148 148 135 134 113 133 117 113 116 115 119 121 120 107 104 112 130 131 124 139 157 145 168 175 156 170 176 167 148 138 134 144 172 170 158 181 169 177 183 177 160 113 120 124 120 133 130 134 115 100 102 78 51 71 95 32 10 9 10 9 3 4 3 2 8 5 1 0 4 0 0 0 0 0 0 0 0 0 0 0 0 0 0 0 0 0 0 0 0 0 0 0 0 0 0 0 0 0 0 0 
0 0 0 0 0 0 0 0 0 0 0 0 10 11 8 8 2 3 7 13 21 24 60 58 74 89 107 137 157 172 168 160 126 135 119 95 108 132 147 136 148 158 155 142 160 166 159 172 193 183 184 193 181 173 162 154 140 142 149 169 173 173 196 205 197 175 164 193 167 145 127 176 163 154 131 112 86 77 84 86 81 84 54 17 8 3 3 4 6 3 2 5 10 2 0 0 3 0 0 0 0 0 0 0 0 0 0 0 0 0 0 0 0 0 0 0 0 0 0 0 0 0 0 0 0 0 0 0 
0 0 0 0 0 0 0 0 0 0 0 0 3 4 4 2 2 1 4 10 16 17 38 57 48 77 95 91 99 144 152 169 153 145 129 110 125 143 107 107 145 152 173 166 167 186 217 214 193 189 191 185 173 159 162 154 143 149 173 195 203 206 200 224 209 175 172 167 107 137 121 138 139 106 90 101 89 69 63 56 61 39 26 26 14 1 0 0 2 3 5 9 11 0 0 0 3 0 0 0 0 0 0 0 0 0 0 0 0 0 0 0 0 0 0 0 0 0 0 0 0 0 0 0 0 0 0 0 
0 0 0 0 0 0 0 0 0 0 0 0 0 2 2 1 2 0 0 7 14 21 24 46 80 86 60 55 67 79 70 102 111 103 103 103 127 152 152 154 150 146 164 155 144 156 183 186 190 169 158 153 153 161 162 148 155 152 182 177 167 150 154 199 191 185 169 146 150 134 103 82 47 69 64 86 108 93 67 36 40 38 33 22 19 0 0 0 1 1 3 6 7 0 0 0 3 0 0 0 0 0 0 0 0 0 0 0 0 0 0 0 0 0 0 0 0 0 0 0 0 0 0 0 0 0 0 0 
0 0 0 0 0 0 0 0 0 0 0 0 0 3 6 2 3 2 1 1 9 14 18 25 44 51 30 39 69 76 43 56 74 69 75 87 91 81 84 88 93 96 115 112 84 87 93 88 167 104 67 98 105 105 99 88 89 76 93 83 82 90 75 167 152 150 139 118 56 48 40 40 42 74 65 60 81 80 49 25 27 25 19 8 4 1 2 3 0 0 0 5 4 0 0 0 3 0 0 0 0 0 0 0 0 0 0 0 0 0 0 0 0 0 0 0 0 0 0 0 0 0 0 0 0 0 0 0 
0 0 0 0 0 0 0 0 0 0 0 0 0 0 6 1 1 2 3 0 4 8 15 16 23 23 25 27 58 74 38 63 54 36 33 46 70 75 102 122 118 96 62 58 63 77 64 47 66 69 56 84 80 82 79 80 83 52 62 58 68 75 65 64 75 80 96 140 147 134 57 46 44 77 80 64 77 73 48 30 26 24 18 7 4 1 1 0 0 0 4 5 3 0 0 0 3 0 0 0 0 0 0 0 0 0 0 0 0 0 0 0 0 0 0 0 0 0 0 0 0 0 0 0 0 0 0 0 
0 0 0 0 0 0 0 0 0 0 0 0 0 0 0 0 0 0 0 0 1 8 9 15 20 26 28 34 53 86 38 61 63 42 48 54 75 135 113 107 123 139 116 83 73 90 82 61 85 81 62 85 68 71 68 80 100 69 82 102 117 105 96 102 130 137 88 74 144 108 90 105 64 73 74 59 79 68 45 22 23 23 12 5 1 0 0 0 0 0 3 2 0 0 0 0 3 0 0 0 0 0 0 0 0 0 0 0 0 0 0 0 0 0 0 0 0 0 0 0 0 0 0 0 0 0 0 0 
0 0 0 0 0 0 0 0 0 0 0 0 0 0 0 0 0 0 0 0 0 4 2 8 14 20 24 34 51 95 61 65 81 58 71 67 79 137 120 137 168 175 141 131 128 136 144 119 126 113 96 115 100 101 105 114 131 110 106 117 131 124 113 128 156 142 91 89 108 114 99 113 90 78 56 47 56 57 37 29 29 29 12 14 3 0 0 0 0 0 0 0 0 0 0 0 2 1 0 0 0 0 0 0 0 0 0 0 0 0 0 0 0 0 0 0 0 0 0 0 0 0 0 0 0 0 0 0 
0 0 0 0 0 0 0 0 0 0 0 0 0 0 0 0 0 0 0 0 0 2 1 2 10 26 22 20 29 65 56 59 76 63 73 89 85 142 119 90 158 166 170 195 192 194 172 198 164 157 171 165 152 141 151 151 157 137 139 137 140 151 156 141 143 130 161 91 124 135 126 141 121 98 75 61 78 44 19 16 2 6 2 1 0 0 0 0 0 0 0 0 0 0 0 0 2 1 0 0 0 0 0 0 0 0 0 0 0 0 0 0 0 0 0 0 0 0 0 0 0 0 0 0 0 0 0 0 
0 0 0 0 0 0 0 0 0 0 0 0 0 0 0 0 0 0 0 0 0 0 2 1 11 18 12 26 30 66 67 59 82 42 33 38 44 84 125 108 122 129 143 136 130 130 142 180 154 143 131 127 121 116 119 114 114 105 98 93 108 128 117 126 108 103 124 160 149 145 151 64 55 47 38 47 61 28 15 12 4 12 9 1 0 0 0 0 0 0 0 0 0 0 2 3 8 6 0 0 0 0 0 0 0 0 0 0 0 0 0 0 0 0 0 0 0 0 0 0 0 0 0 0 0 0 0 0 
0 0 0 0 0 0 0 0 0 0 0 0 0 0 0 0 0 0 0 0 0 0 3 5 12 16 16 23 25 46 79 55 90 54 51 73 54 49 80 112 111 134 134 102 89 90 112 137 137 112 88 73 54 55 56 59 81 95 92 83 86 100 114 117 104 116 121 81 136 139 90 52 37 41 59 80 78 41 20 14 16 15 11 1 0 0 0 0 0 0 0 0 0 0 0 0 4 1 0 0 0 0 0 0 0 0 0 0 0 0 0 0 0 0 0 0 0 0 0 0 0 0 0 0 0 0 0 0 
0 0 0 0 0 0 0 0 0 0 0 0 0 0 0 0 0 0 0 0 0 0 1 5 10 15 18 21 23 34 75 66 95 53 70 98 90 97 102 125 110 114 119 110 108 82 104 124 115 97 89 76 63 62 60 54 70 72 77 93 99 89 90 98 80 84 108 96 83 111 115 83 69 72 78 93 81 46 27 18 21 13 7 1 0 0 0 0 0 0 0 0 0 0 0 0 3 0 0 0 0 0 0 0 0 0 0 0 0 0 0 0 0 0 0 0 0 0 0 0 0 0 0 0 0 0 0 0 
0 0 0 0 0 0 0 0 0 0 0 0 0 0 0 0 0 0 0 0 0 0 0 4 9 10 16 21 22 25 67 66 91 58 83 96 55 71 70 84 85 80 91 94 104 93 100 139 128 109 97 87 82 77 73 71 81 82 89 100 122 114 96 88 98 85 93 82 67 75 83 69 79 110 109 96 82 46 27 19 18 11 5 0 0 0 0 0 0 0 0 0 0 0 0 0 3 0 0 0 0 0 0 0 0 0 0 0 0 0 0 0 0 0 0 0 0 0 0 0 0 0 0 0 0 0 0 0 
0 0 0 0 0 0 0 0 0 0 0 0 0 0 0 0 0 0 0 0 0 0 0 2 5 9 13 19 22 20 55 64 79 59 83 79 46 50 42 42 58 75 96 93 109 101 113 136 147 145 116 89 82 85 87 85 96 92 90 112 143 144 114 72 102 96 93 91 90 76 58 64 43 86 125 101 80 49 25 18 17 11 4 0 0 0 0 0 0 0 0 0 0 0 0 0 2 0 0 0 0 0 0 0 0 0 0 0 0 0 0 0 0 0 0 0 0 0 0 0 0 0 0 0 0 0 0 0 
0 0 0 0 0 0 0 0 0 0 0 0 0 0 0 0 0 0 0 0 0 0 0 0 4 9 10 17 21 22 52 55 80 61 77 76 49 38 38 52 65 79 101 98 101 104 99 89 97 142 132 90 82 93 91 88 108 100 102 122 126 126 96 63 92 106 97 104 97 90 62 56 43 62 113 93 73 51 20 17 15 11 1 0 0 0 0 0 0 0 0 0 0 0 0 0 2 0 0 0 0 0 0 0 0 0 0 0 0 0 0 0 0 0 0 0 0 0 0 0 0 0 0 0 0 0 0 0 
0 0 0 0 0 0 0 0 0 0 0 0 0 0 0 0 0 0 0 0 0 0 0 0 5 5 9 13 20 23 50 39 74 52 73 83 52 39 46 61 68 85 80 106 119 111 81 62 67 134 138 91 86 91 79 81 97 98 114 128 112 103 94 70 84 93 94 97 106 95 75 51 55 69 104 92 68 49 20 16 15 9 0 0 0 0 0 0 0 0 0 0 0 0 0 0 2 0 0 0 0 0 0 0 0 0 0 0 0 0 0 0 0 0 0 0 0 0 0 0 0 0 0 0 0 0 0 0 
0 0 0 0 0 0 0 0 0 0 0 0 0 0 0 0 0 0 0 0 0 0 0 0 0 4 5 14 17 20 40 55 71 52 79 102 49 40 51 59 70 61 66 96 123 103 72 57 64 123 134 95 90 80 72 77 84 90 106 127 114 108 84 86 93 107 102 77 86 85 72 55 60 85 109 66 54 25 19 18 18 7 0 0 0 0 0 0 0 0 0 0 0 0 0 0 2 0 0 0 0 0 0 0 0 0 0 0 0 0 0 0 0 0 0 0 0 0 0 0 0 0 0 0 0 0 0 0 
0 0 0 0 0 0 0 0 0 0 0 0 0 0 0 0 0 0 0 0 0 0 0 0 0 3 4 9 13 17 20 40 37 37 77 99 46 40 57 54 60 50 57 61 104 102 71 58 67 113 132 105 83 76 72 66 72 85 99 119 134 105 78 74 80 101 90 68 66 77 67 54 48 97 118 36 17 14 18 20 19 5 0 0 0 0 0 0 0 0 0 0 0 0 0 0 1 0 0 0 0 0 0 0 0 0 0 0 0 0 0 0 0 0 0 0 0 0 0 0 0 0 0 0 0 0 0 0 
0 0 0 0 0 0 0 0 0 0 0 0 0 0 0 0 0 0 0 0 0 0 0 0 0 0 6 4 14 16 20 21 18 18 22 80 50 41 63 80 69 45 49 53 86 86 64 56 70 117 130 115 86 72 65 61 65 79 107 127 146 124 86 61 64 97 80 55 51 87 92 68 47 85 81 17 16 14 17 19 15 4 0 0 0 0 0 0 0 0 0 0 0 0 0 0 1 0 0 0 0 0 0 0 0 0 0 0 0 0 0 0 0 0 0 0 0 0 0 0 0 0 0 0 0 0 0 0 
0 0 0 0 0 0 0 0 0 0 0 0 0 0 0 0 0 0 0 0 0 0 0 0 0 0 3 4 8 14 17 18 18 18 14 51 81 65 93 111 67 39 45 70 113 75 59 59 77 123 131 114 84 67 59 55 70 87 107 132 137 122 86 57 51 85 102 60 44 77 123 101 75 95 40 18 14 13 18 17 11 3 1 0 0 0 0 0 0 0 0 0 0 0 0 0 1 0 0 0 0 0 0 0 0 0 0 0 0 0 0 0 0 0 0 0 0 0 0 0 0 0 0 0 0 0 0 0 
0 0 0 0 0 0 0 0 0 0 0 0 0 0 0 0 0 0 0 0 0 0 0 0 0 0 0 4 8 8 16 18 16 18 15 14 52 80 98 100 56 38 42 82 134 89 61 63 79 114 146 133 99 79 69 69 76 80 107 146 152 129 86 53 52 95 121 73 45 56 103 99 79 50 23 20 12 14 18 16 10 4 1 0 0 0 0 0 0 0 0 0 0 0 0 0 1 0 0 0 0 0 0 0 0 0 0 0 0 0 0 0 0 0 0 0 0 0 0 0 0 0 0 0 0 0 0 0 
0 0 0 0 0 0 0 0 0 0 0 0 0 0 0 0 0 0 0 0 0 0 0 0 0 0 0 3 8 7 11 17 19 17 14 17 16 30 41 62 62 50 54 94 143 109 62 60 79 121 151 130 96 73 66 71 75 72 95 131 132 136 100 67 59 107 143 101 64 63 73 51 35 30 25 19 15 17 15 15 9 4 1 0 0 0 0 0 0 0 0 0 0 0 0 0 1 0 0 0 0 0 0 0 0 0 0 0 0 0 0 0 0 0 0 0 0 0 0 0 0 0 0 0 0 0 0 0 
0 0 0 0 0 0 0 0 0 0 0 0 0 0 0 0 0 0 0 0 0 0 0 0 0 0 0 0 4 8 8 16 16 17 14 14 14 24 28 40 66 69 70 100 140 121 72 67 91 117 147 130 94 74 71 77 82 77 93 118 126 130 113 73 73 110 137 108 81 75 52 34 33 29 24 16 17 16 16 13 8 3 1 0 0 0 0 0 0 0 0 0 0 0 0 0 1 0 0 0 0 0 0 0 0 0 0 0 0 0 0 0 0 0 0 0 0 0 0 0 0 0 0 0 0 0 0 0 
0 0 0 0 0 0 0 0 0 0 0 0 0 0 0 0 0 0 0 0 0 0 0 0 0 0 0 0 0 9 7 14 16 17 13 9 11 19 28 30 41 67 73 89 134 122 94 86 93 114 136 112 87 71 67 68 71 78 91 97 116 130 111 92 94 119 121 95 80 54 30 31 31 26 22 15 15 15 17 13 7 4 1 0 0 0 0 0 0 0 0 0 0 0 0 0 1 0 0 0 0 0 0 0 0 0 0 0 0 0 0 0 0 0 0 0 0 0 0 0 0 0 0 0 0 0 0 0 
0 0 0 0 0 0 0 0 0 0 0 0 0 0 0 0 0 0 0 0 0 0 0 0 0 0 0 0 0 9 5 12 15 18 14 7 10 18 27 30 32 33 37 51 90 123 115 97 93 101 108 90 73 67 60 62 68 82 90 74 96 120 113 100 109 113 65 41 39 39 28 31 28 22 22 16 13 15 18 13 8 3 1 0 0 0 0 0 0 0 0 0 0 0 0 0 1 0 0 0 0 0 0 0 0 0 0 0 0 0 0 0 0 0 0 0 0 0 0 0 0 0 0 0 0 0 0 0 
0 0 0 0 0 0 0 0 0 0 0 0 0 0 0 0 0 0 0 0 0 0 0 0 0 0 0 0 0 6 5 11 14 17 16 7 8 19 25 28 34 32 31 45 55 74 113 120 89 69 83 82 77 73 70 75 83 94 105 88 92 102 91 110 125 84 52 47 42 39 30 29 25 21 21 13 15 14 17 15 9 3 1 0 0 0 0 0 0 0 0 0 0 0 0 0 1 0 0 0 0 0 0 0 0 0 0 0 0 0 0 0 0 0 0 0 0 0 0 0 0 0 0 0 0 0 0 0 
