P2
128 99
210
0 0 0 0 0 0 0 0 0 0 0 0 0 0 0 0 0 0 0 0 0 0 0 0 0 0 0 0 0 0 0 0 0 0 0 0 0 0 0 0 0 1 1 0 0 0 0 0 0 0 0 0 0 0 0 0 0 0 0 0 0 0 0 0 0 0 0 0 0 0 0 0 0 0 0 0 0 0 0 0 0 0 0 0 1 0 0 0 0 0 0 0 0 0 0 0 0 0 0 0 0 0 0 0 0 0 0 0 0 0 0 0 0 0 0 0 0 0 0 0 0 0 0 0 0 0 0 0 
0 0 0 0 0 0 0 0 0 0 0 0 0 0 0 0 0 0 0 0 0 0 0 0 0 0 0 0 0 0 0 0 0 0 0 0 0 0 0 0 0 1 1 0 0 0 0 0 0 0 0 0 0 0 0 0 0 0 0 0 0 0 0 0 0 0 0 0 0 0 0 0 0 0 0 0 0 0 0 0 0 0 0 0 1 1 0 0 0 0 0 0 0 0 0 0 0 0 0 0 0 0 0 0 0 0 0 0 0 0 0 0 0 0 0 0 0 0 0 0 0 0 0 0 0 0 0 0 
0 0 0 0 0 0 0 0 0 0 0 0 0 0 0 0 0 0 0 0 0 0 0 0 0 0 0 0 0 0 0 0 0 0 0 0 0 0 0 0 1 1 1 0 0 0 0 0 0 0 0 1 1 3 0 0 0 0 0 0 0 0 0 0 0 0 0 0 0 0 0 0 0 0 0 0 0 0 0 0 0 0 0 0 1 1 0 0 0 0 0 0 0 0 0 0 0 0 0 0 0 0 0 0 0 0 0 0 0 0 0 0 0 0 0 0 0 0 0 0 0 0 0 0 0 0 0 0 
0 0 0 0 0 0 0 0 0 0 0 0 0 0 0 0 0 0 0 0 0 0 0 0 0 0 0 0 0 0 0 0 0 0 0 0 0 0 0 0 0 1 1 1 5 14 17 17 19 20 22 24 26 26 25 21 18 15 16 11 3 0 0 0 0 0 0 0 0 0 0 0 0 0 0 0 0 0 1 0 0 0 0 0 1 1 0 0 0 0 0 0 0 0 0 0 0 0 0 0 0 0 0 0 0 0 0 0 0 0 0 0 0 0 0 0 0 0 0 0 0 0 0 0 0 0 0 0 
0 0 0 0 0 0 0 0 0 0 0 0 0 0 0 0 0 0 0 0 0 0 0 0 0 0 0 0 0 0 0 0 0 0 0 0 0 0 0 0 8 14 17 24 24 31 54 76 97 115 128 135 140 142 139 131 118 100 76 53 34 21 17 10 2 0 0 0 0 0 0 0 0 0 0 0 0 0 0 0 0 0 0 0 1 1 0 0 0 0 0 0 0 0 0 0 0 0 0 0 0 0 0 0 0 0 0 0 0 0 0 0 0 0 0 0 0 0 0 0 0 0 0 0 0 0 0 0 
0 0 0 0 0 0 0 0 0 0 0 0 0 0 0 0 0 0 0 0 0 0 0 0 0 0 0 0 0 0 0 0 0 0 0 0 0 0 10 14 22 28 38 66 104 137 157 168 173 173 173 170 168 168 169 169 168 164 162 156 141 114 76 42 22 17 10 1 0 0 0 0 0 0 0 0 0 0 0 0 0 0 0 0 1 1 0 0 0 0 0 0 0 0 0 0 0 0 0 0 0 0 0 0 0 0 0 0 0 0 0 0 0 0 0 0 0 0 0 0 0 0 0 0 0 0 0 0 
0 0 0 0 0 0 0 0 0 0 0 0 0 0 0 0 0 0 0 0 0 0 0 0 0 0 0 0 0 0 0 0 0 0 0 0 8 21 21 28 53 97 140 165 176 174 175 179 181 185 190 193 195 196 198 198 194 185 177 172 169 164 158 146 117 73 37 18 12 2 0 0 0 0 0 0 0 0 0 0 0 0 0 0 1 1 0 0 0 0 0 0 0 0 0 0 0 0 0 0 0 0 0 0 0 0 0 0 0 0 0 0 0 0 0 0 0 0 0 0 0 0 0 0 0 0 0 0 
0 0 0 0 0 0 0 0 0 0 0 0 0 0 0 0 0 0 0 0 0 0 0 0 0 0 0 0 0 0 0 0 0 0 7 23 27 28 61 114 155 173 175 174 178 184 189 189 183 173 170 172 169 157 157 167 180 189 195 197 195 185 174 170 164 156 139 97 47 22 13 1 0 0 0 0 0 0 0 0 0 0 0 0 1 1 0 0 0 0 0 0 0 0 0 0 0 0 0 0 0 0 0 0 0 0 0 0 0 0 0 0 0 0 0 0 0 0 0 0 0 0 0 0 0 0 0 0 
0 0 0 0 0 0 0 0 0 0 0 0 0 0 0 0 0 0 0 0 0 0 0 0 0 0 0 0 0 0 0 0 6 29 26 23 55 118 157 172 169 172 180 187 191 181 162 142 134 140 146 149 148 143 143 146 152 167 182 185 184 187 194 193 184 173 167 161 146 99 42 22 10 0 0 0 0 0 0 0 0 0 0 0 1 1 0 0 0 0 0 0 0 0 0 0 0 0 0 0 0 0 0 0 0 0 0 0 0 0 0 0 0 0 0 0 0 0 0 0 0 0 0 0 0 0 0 0 
0 0 0 0 0 0 0 0 0 0 0 0 0 0 0 0 0 0 0 0 0 0 0 0 0 0 0 0 0 0 0 24 25 20 40 106 155 171 168 170 178 188 187 164 141 140 143 138 137 134 133 140 140 137 146 147 148 151 163 176 188 189 186 186 190 195 188 177 171 163 140 78 28 18 2 0 0 0 0 0 0 0 0 0 1 1 0 0 0 0 0 0 0 0 0 0 0 0 0 0 0 0 0 0 0 0 0 0 0 0 0 0 0 0 0 0 0 0 0 0 0 0 0 0 0 0 0 0 
0 0 0 0 0 0 0 0 0 0 0 0 0 0 0 0 0 0 0 0 0 0 0 0 0 0 0 0 0 11 27 22 25 81 146 170 172 170 178 189 194 171 153 157 159 151 142 133 127 124 125 129 130 130 128 138 133 131 141 153 162 179 193 196 188 184 186 194 189 178 171 158 114 44 22 6 0 0 0 0 0 0 0 0 1 1 0 0 0 0 0 0 0 0 0 0 0 0 0 0 0 0 0 0 0 0 0 0 0 0 0 0 0 0 0 0 0 0 0 0 0 0 0 0 0 0 0 0 
0 0 0 0 0 0 0 0 0 0 0 0 0 0 0 0 0 0 0 0 0 0 0 0 0 0 0 0 23 24 19 46 123 164 171 170 178 188 193 180 168 164 155 148 140 136 135 137 147 144 145 148 143 141 149 161 165 162 158 153 151 159 174 186 195 197 190 185 186 194 188 175 166 141 67 23 11 0 0 0 0 0 0 0 1 1 0 0 0 0 0 0 0 0 0 0 0 0 0 0 0 0 0 0 0 0 0 0 0 0 0 0 0 0 0 0 0 0 0 0 0 0 0 0 0 0 0 0 
0 0 0 0 0 0 0 0 0 0 0 0 0 0 0 0 0 0 0 0 0 0 0 0 0 0 5 26 20 18 70 147 170 172 177 187 194 186 178 168 157 149 147 149 153 159 169 167 162 149 134 126 127 132 142 141 146 152 162 164 163 168 172 174 182 190 194 195 191 185 187 192 180 167 150 81 24 13 0 0 0 0 0 1 1 1 0 0 0 0 0 0 0 0 0 0 0 0 0 0 0 0 0 0 0 0 0 0 0 0 0 0 0 0 0 0 0 0 0 0 0 0 0 0 0 0 0 0 
0 0 0 0 0 0 0 0 0 0 0 0 0 0 0 0 0 0 0 0 0 0 0 0 0 10 25 17 25 99 156 170 174 182 196 193 185 174 158 149 153 163 165 159 150 142 142 147 139 133 126 131 125 116 110 117 124 132 142 151 158 159 158 169 179 182 183 189 194 195 188 182 189 180 168 154 90 28 14 0 0 0 0 1 1 1 0 0 0 0 0 0 0 0 0 0 0 0 0 0 0 0 0 0 0 0 0 0 0 0 0 0 0 0 0 0 0 0 0 0 0 0 0 0 0 0 0 0 
0 0 0 0 0 0 0 0 0 0 0 0 0 0 0 0 0 0 0 0 0 0 0 0 14 24 15 35 114 158 170 176 188 200 188 175 162 152 156 171 174 156 145 136 130 129 123 111 112 114 114 112 109 114 113 114 121 125 124 123 128 138 144 145 150 161 176 180 180 188 194 190 181 188 184 172 158 100 32 14 0 0 0 0 1 1 0 0 0 0 0 0 0 0 0 0 0 0 0 0 0 0 0 0 0 0 0 0 0 0 0 0 0 0 0 0 0 0 0 0 0 0 0 0 0 0 0 0 
0 0 0 0 0 0 0 0 0 0 0 0 0 0 0 0 0 0 0 0 0 0 4 17 21 13 45 124 156 170 177 193 201 179 163 155 155 171 177 160 141 130 123 115 119 119 118 122 123 126 116 99 98 119 124 122 118 120 127 132 130 130 134 141 141 146 150 160 174 174 180 190 190 181 189 188 174 163 110 38 13 0 0 0 1 1 1 0 0 0 0 0 0 0 0 0 0 0 0 0 0 0 0 0 0 0 0 0 0 0 0 0 0 0 0 0 0 0 0 0 0 0 0 0 0 0 0 0 
0 0 0 0 0 0 0 0 0 0 0 0 0 0 0 0 0 0 0 0 0 5 17 16 14 54 132 155 170 179 200 197 169 158 155 154 170 171 149 130 121 119 125 131 123 118 120 111 114 113 104 93 93 107 120 125 122 117 116 122 123 120 122 132 148 142 137 145 152 169 168 164 185 189 182 191 187 171 165 118 41 9 0 1 1 1 0 0 0 0 0 0 0 0 0 0 0 0 0 0 0 0 0 0 0 0 0 0 0 0 0 0 0 0 0 0 0 0 0 0 0 0 0 0 0 0 0 0 
0 0 0 0 0 0 0 0 0 0 0 0 0 0 0 0 0 0 0 0 6 16 15 18 68 142 157 173 181 202 191 156 152 152 155 170 158 131 115 119 133 138 137 127 119 117 109 110 112 103 97 102 104 109 119 125 125 121 124 126 130 131 130 120 120 136 142 134 130 143 161 158 153 179 187 180 191 184 171 167 121 37 6 1 1 1 0 0 0 0 0 0 0 0 0 0 0 0 0 0 0 0 0 0 0 0 0 0 0 0 0 0 0 0 0 0 0 0 0 0 0 0 0 0 0 0 0 0 
0 0 0 0 0 0 0 0 0 0 0 0 0 0 0 0 0 0 0 6 15 14 19 77 144 155 170 179 202 184 149 147 147 151 161 149 126 116 127 136 137 134 134 127 123 116 108 112 112 102 104 107 107 107 107 107 105 104 110 113 119 123 125 131 126 116 125 142 134 125 135 149 153 145 170 186 181 194 181 171 164 114 28 3 1 1 1 0 0 0 0 0 0 0 0 0 0 0 0 0 0 0 0 0 0 0 0 0 0 0 0 0 0 0 0 0 0 0 0 0 0 0 0 0 0 0 0 0 
0 0 0 0 0 0 0 0 0 0 0 0 0 0 0 0 0 0 4 15 15 19 79 145 151 167 180 198 177 145 148 146 143 158 145 120 118 136 139 138 135 125 117 109 102 98 97 101 103 105 103 99 98 105 104 102 100 100 100 101 103 108 116 122 123 123 125 125 140 133 126 135 153 143 137 163 182 182 192 177 170 157 99 19 3 1 0 0 0 0 0 0 0 0 0 0 0 0 0 0 0 0 0 0 0 0 0 0 0 0 0 0 0 0 0 0 0 0 0 0 0 0 0 0 0 0 0 0 
0 0 0 0 0 0 0 0 0 0 0 0 0 0 0 0 0 3 15 12 18 74 140 150 162 177 193 176 147 147 144 134 151 142 123 126 139 137 133 127 113 101 97 92 95 98 99 106 117 123 109 104 108 122 126 123 122 118 112 108 106 98 99 105 116 121 123 129 125 132 131 129 142 157 139 131 160 174 184 189 175 168 146 79 12 1 0 0 0 0 0 0 0 0 0 0 0 0 0 0 0 0 0 0 0 0 0 0 0 0 0 0 0 0 0 0 0 0 0 0 0 0 0 0 0 0 0 0 
0 0 0 0 0 0 0 0 0 0 0 0 0 0 0 0 0 11 10 18 69 133 147 159 175 188 178 146 149 143 129 150 145 132 128 139 133 126 112 97 92 91 93 101 111 118 124 131 137 133 128 126 129 134 140 141 139 137 135 133 127 114 104 97 98 110 118 123 128 123 126 127 123 143 155 133 135 158 174 190 182 170 160 132 54 6 0 0 0 0 0 0 0 0 0 0 0 0 0 0 0 0 0 0 0 0 0 0 0 0 0 0 0 0 0 0 0 0 0 0 0 0 0 0 0 0 0 0 
0 0 0 0 0 0 0 0 0 0 0 0 0 0 0 0 5 12 15 60 124 142 148 170 185 178 146 142 139 125 142 146 133 126 128 132 124 108 95 90 92 99 110 122 129 128 130 132 133 128 125 126 128 127 124 123 130 134 133 128 130 128 119 104 90 88 104 116 122 127 118 111 121 127 142 147 126 135 151 177 187 176 168 153 109 27 2 0 0 0 0 0 0 0 0 0 0 0 0 0 0 0 0 0 0 0 0 0 0 0 0 0 0 0 0 0 0 0 0 0 0 0 0 0 0 0 0 0 
0 0 0 0 0 0 0 0 0 0 0 0 0 0 0 1 11 12 48 114 137 147 163 181 177 149 135 138 125 139 145 134 125 130 130 114 100 90 90 93 101 112 122 126 129 129 128 128 124 116 114 117 120 114 107 99 109 117 122 127 133 136 130 114 94 81 86 101 115 120 124 112 108 123 130 151 140 125 138 153 187 180 172 161 139 76 7 0 0 0 0 0 0 0 0 0 0 0 0 0 0 0 0 0 0 0 0 0 0 0 0 0 0 0 0 0 0 0 0 0 0 0 0 0 0 0 0 0 
0 0 0 0 0 0 0 0 0 0 0 0 0 0 0 7 11 27 97 126 142 151 177 173 160 137 141 123 135 151 139 123 123 125 109 91 94 91 94 95 106 122 132 133 128 128 126 125 113 106 110 110 107 99 98 95 97 106 111 122 133 138 138 127 112 92 82 88 106 115 123 121 109 109 120 140 161 125 129 134 172 181 173 167 153 114 29 1 0 0 0 0 0 0 0 0 0 0 0 0 0 0 0 0 0 0 0 0 0 0 0 0 0 0 0 0 0 0 0 0 0 0 0 0 0 0 0 0 
0 0 0 0 0 0 0 0 0 0 0 0 0 0 1 9 12 74 120 137 147 167 172 159 146 134 125 122 150 147 124 115 119 111 95 92 92 92 94 107 123 133 135 129 124 122 125 127 113 99 100 104 102 100 99 100 101 105 109 117 124 139 144 141 130 111 88 77 90 108 115 124 118 104 109 127 157 140 116 128 145 178 173 172 154 134 65 4 0 0 0 0 0 0 0 0 0 0 0 0 0 0 0 0 0 0 0 0 0 0 0 0 0 0 0 0 0 0 0 0 0 0 0 0 0 0 0 0 
0 0 0 0 0 0 0 0 0 0 0 0 0 0 6 7 37 108 127 145 156 174 159 149 134 124 120 143 153 127 114 116 111 95 93 95 93 97 111 125 133 135 130 123 118 116 116 119 111 102 102 103 102 102 105 108 104 102 103 108 108 124 136 139 137 127 106 86 80 93 106 119 124 116 100 112 143 160 121 118 127 168 170 171 159 147 100 17 0 0 0 0 0 0 0 0 0 0 0 0 0 0 0 0 0 0 0 0 0 0 0 0 0 0 0 0 0 0 0 0 0 0 0 0 0 0 0 0 
0 0 0 0 0 0 0 0 0 0 0 0 0 0 7 14 79 116 140 147 168 160 152 142 119 120 129 151 136 119 117 110 94 92 97 100 104 114 127 132 127 121 117 110 102 103 106 106 107 107 109 106 104 116 113 115 112 99 98 94 88 95 111 130 137 135 128 107 86 82 94 114 122 125 113 97 122 160 133 113 115 153 163 167 168 150 120 36 1 0 0 0 0 0 0 0 0 0 0 0 0 0 0 0 0 0 0 0 0 0 0 0 0 0 0 0 0 0 0 0 0 0 0 0 0 0 0 0 
0 0 0 0 0 0 0 0 0 0 0 0 0 3 8 35 106 123 143 153 170 154 141 135 118 124 128 145 124 118 120 102 91 95 103 110 116 123 124 117 115 110 102 94 89 88 92 95 106 109 114 119 113 119 108 100 105 100 96 83 79 81 86 105 128 135 135 128 104 83 83 98 112 121 123 108 106 146 142 119 109 145 157 166 170 153 133 54 2 0 0 0 0 0 0 0 0 0 0 0 0 0 0 0 0 0 0 0 0 0 0 0 0 0 0 0 0 0 0 0 0 0 0 0 0 0 0 0 
0 0 0 0 0 0 0 0 0 0 0 0 0 5 9 64 117 125 140 162 159 137 135 126 118 119 121 138 118 124 110 90 92 102 110 115 120 123 116 106 101 99 92 84 83 87 92 100 103 100 105 121 123 122 106 97 97 98 93 84 79 78 81 89 108 127 135 138 130 103 85 89 100 112 124 122 103 125 140 128 105 135 158 163 168 149 141 73 5 0 0 0 0 0 0 0 0 0 0 0 0 0 0 0 0 0 0 0 0 0 0 0 0 0 0 0 0 0 0 0 0 0 0 0 0 0 0 0 
0 0 0 0 0 0 0 0 0 0 0 0 0 6 14 93 120 137 147 166 138 131 128 117 121 105 126 135 117 121 98 91 101 108 122 128 127 117 105 100 95 89 92 93 95 99 99 102 103 100 103 111 127 116 101 94 94 99 103 99 95 88 83 85 94 108 127 134 137 128 99 90 94 104 119 130 109 116 131 128 109 128 157 163 167 154 146 93 9 0 0 0 0 0 0 0 0 0 0 0 0 0 0 0 0 0 0 0 0 0 0 0 0 0 0 0 0 0 0 0 0 0 0 0 0 0 0 0 
0 0 0 0 0 0 0 0 0 0 0 0 1 8 28 108 124 144 152 145 122 128 127 117 113 102 137 126 111 103 92 94 110 125 137 133 122 107 97 91 77 74 80 103 116 112 102 97 93 88 90 95 114 97 85 79 80 85 94 108 119 115 104 95 94 97 105 117 131 138 125 104 95 98 114 129 107 114 121 119 115 128 153 161 167 159 147 109 16 0 0 0 0 0 0 0 0 0 0 0 0 0 0 0 0 0 0 0 0 0 0 0 0 0 0 0 0 0 0 0 0 0 0 0 0 0 0 0 
0 0 0 0 0 0 0 0 0 0 0 0 1 6 45 110 128 146 152 127 119 127 133 116 100 106 139 117 100 94 92 104 129 146 138 121 104 96 89 76 72 77 85 94 114 113 92 81 80 79 80 86 96 85 79 77 80 86 95 110 115 121 114 103 92 79 82 108 131 139 138 127 106 95 105 129 108 109 114 109 115 126 144 157 162 162 148 119 26 1 0 0 0 0 0 0 0 0 0 0 0 0 0 0 0 0 0 0 0 0 0 0 0 0 0 0 0 0 0 0 0 0 0 0 0 0 0 0 
0 0 0 0 0 0 0 0 0 0 0 0 2 8 60 115 133 150 154 120 118 127 130 109 95 114 133 112 90 91 97 120 150 152 126 101 91 89 84 74 77 86 91 93 103 107 88 76 75 79 83 85 87 83 81 81 87 93 99 98 77 87 96 94 85 77 76 91 127 137 140 141 130 103 96 122 114 106 108 109 118 129 144 160 165 165 149 129 36 2 0 0 0 0 0 0 0 0 0 0 0 0 0 0 0 0 0 0 0 0 0 0 0 0 0 0 0 0 0 0 0 0 0 0 0 0 0 0 
0 0 0 0 0 0 0 0 0 0 0 0 3 7 70 119 137 146 150 126 124 129 134 107 102 117 129 107 80 94 110 141 160 140 107 87 79 87 97 91 99 95 92 95 89 91 97 86 81 83 87 84 80 82 84 90 95 98 103 93 72 82 92 93 86 78 75 94 122 131 130 136 144 127 97 110 116 111 96 101 116 135 144 162 169 170 151 136 48 2 0 0 0 0 0 0 0 0 0 0 0 0 0 0 0 0 0 0 0 0 0 0 0 0 0 0 0 0 0 0 0 0 0 0 0 0 0 0 
0 0 0 0 0 0 0 0 0 0 0 0 4 9 79 123 146 151 146 133 127 129 131 104 113 117 123 101 81 100 128 157 156 120 91 86 78 82 93 104 112 107 92 96 93 85 84 100 96 94 93 86 78 82 91 102 103 100 103 83 70 82 89 93 92 85 92 102 112 128 131 127 136 144 125 113 115 116 89 100 120 142 140 158 168 171 157 143 61 3 0 0 0 0 0 0 0 0 0 0 0 0 0 0 0 0 0 0 0 0 0 0 0 0 0 0 0 0 0 0 0 0 0 0 0 0 0 0 
0 0 0 0 0 0 0 0 0 0 0 0 4 10 84 128 151 157 145 143 128 132 131 111 123 117 116 99 80 106 148 158 136 104 94 86 81 80 88 93 90 89 92 96 95 89 78 91 104 109 106 94 85 87 99 97 88 87 86 70 72 87 95 101 99 91 87 89 100 117 122 116 123 133 142 140 130 118 86 103 121 143 140 153 167 173 158 145 75 4 0 0 0 0 0 0 0 0 0 0 0 0 0 0 0 0 0 0 0 0 0 0 0 0 0 0 0 0 0 0 0 0 0 0 0 0 0 0 
0 0 0 0 0 0 0 0 0 0 0 0 4 11 86 132 152 155 139 144 134 139 130 118 129 115 111 98 82 122 160 148 126 105 88 87 89 86 85 87 86 84 81 83 91 94 92 77 72 74 85 94 96 96 97 73 68 68 67 66 79 95 89 80 76 69 73 74 85 107 113 103 98 114 136 162 163 125 88 106 122 141 135 144 163 175 160 146 88 6 0 0 0 0 0 0 0 0 0 0 0 0 0 0 0 0 0 0 0 0 0 0 0 0 0 0 0 0 0 0 0 0 0 0 0 0 0 0 
0 0 0 0 0 0 0 0 0 0 0 0 4 13 87 135 151 151 140 143 134 135 126 127 135 118 104 101 95 143 152 137 118 91 81 73 73 74 76 78 78 79 82 82 78 84 87 92 73 68 71 81 92 92 82 65 64 64 66 77 93 82 71 69 71 71 75 75 82 100 112 102 87 103 136 167 177 140 99 112 128 133 128 137 154 174 163 148 101 9 0 0 0 0 0 0 0 0 0 0 0 0 0 0 0 0 0 0 0 0 0 0 0 0 0 0 0 0 0 0 0 0 0 0 0 0 0 0 
0 0 0 0 0 0 0 0 0 0 0 0 6 15 88 139 152 160 139 139 132 130 121 130 141 122 100 110 124 146 142 131 99 79 70 70 72 75 80 85 84 76 72 74 81 85 81 89 81 67 70 78 96 97 82 63 62 62 69 92 87 72 69 74 84 91 92 95 98 112 128 125 110 109 124 158 174 156 113 118 126 128 119 135 143 171 165 149 113 14 0 0 0 0 0 0 0 0 0 0 0 0 0 0 0 0 0 0 0 0 0 0 0 0 0 0 0 0 0 0 0 0 0 0 0 0 0 0 
0 0 0 0 0 0 0 0 0 0 0 0 5 15 90 141 153 158 134 133 132 127 116 122 137 129 113 113 154 145 142 124 94 72 64 66 72 84 97 99 97 93 80 73 73 79 89 90 96 86 87 89 109 119 105 66 58 60 78 96 73 71 74 84 95 94 92 95 99 111 123 121 115 121 118 130 161 154 122 117 127 123 110 130 135 161 167 151 123 23 0 0 0 0 0 0 0 0 0 0 0 0 0 0 0 0 0 0 0 0 0 0 0 0 0 0 0 0 0 0 0 0 0 0 0 0 0 0 
0 0 0 0 0 0 0 0 0 0 0 0 6 16 91 146 154 158 115 126 134 124 110 124 139 129 116 115 156 156 151 123 95 75 76 82 93 101 97 94 92 96 94 82 75 80 95 105 110 109 110 113 135 136 135 83 68 73 89 85 69 76 79 78 76 77 77 89 103 117 130 124 121 110 106 122 138 148 123 118 129 119 107 123 128 148 164 152 129 32 0 0 0 0 0 0 0 0 0 0 0 0 0 0 0 0 0 0 0 0 0 0 0 0 0 0 0 0 0 0 0 0 0 0 0 0 0 0 
0 0 0 0 0 0 0 0 0 0 0 0 7 16 91 149 153 161 115 129 132 125 101 120 136 125 103 112 151 159 156 143 119 100 95 97 97 93 87 82 77 80 85 88 88 89 97 106 105 110 113 119 131 120 131 117 90 82 86 72 74 75 76 77 81 85 82 82 92 111 130 131 115 101 100 115 128 130 113 120 133 113 103 115 117 140 167 152 131 39 1 0 0 0 0 0 0 0 0 0 0 0 0 0 0 0 0 0 0 0 0 0 0 0 0 0 0 0 0 0 0 0 0 0 0 0 0 0 
0 0 0 0 0 0 0 0 0 0 0 0 6 18 93 150 153 159 117 131 125 121 91 109 132 124 109 109 138 151 138 124 101 88 91 92 92 92 80 70 72 74 75 84 98 101 98 100 110 109 109 114 117 107 103 113 88 87 86 76 71 71 80 85 86 83 76 75 82 100 119 117 104 99 98 109 129 124 109 126 130 106 99 114 104 132 163 152 133 47 2 0 0 0 0 0 0 0 0 0 0 0 0 0 0 0 0 0 0 0 0 0 0 0 0 0 0 0 0 0 0 0 0 0 0 0 0 0 
0 0 0 0 0 0 0 0 0 0 0 0 8 17 93 150 152 150 115 122 117 113 83 97 125 120 105 107 131 140 129 114 94 87 85 85 85 81 73 71 71 71 73 82 90 100 106 101 105 107 112 122 103 106 105 104 92 93 100 72 67 79 82 77 74 75 76 75 80 97 117 114 103 98 92 110 133 125 107 134 137 103 93 109 92 122 150 148 134 53 2 0 0 0 0 0 0 0 0 0 0 0 0 0 0 0 0 0 0 0 0 0 0 0 0 0 0 0 0 0 0 0 0 0 0 0 0 0 
0 0 0 0 0 0 0 0 0 0 0 0 7 18 91 150 156 143 113 116 109 110 74 93 125 112 94 103 130 133 120 109 91 86 81 79 83 78 72 71 76 77 77 83 88 92 103 95 92 110 127 141 117 112 112 92 101 85 86 70 77 78 75 70 74 79 77 81 84 94 112 108 98 93 89 113 135 118 99 138 141 97 94 108 95 120 136 141 133 58 3 0 0 0 0 0 0 0 0 0 0 0 0 0 0 0 0 0 0 0 0 0 0 0 0 0 0 0 0 0 0 0 0 0 0 0 0 0 
0 0 0 0 0 0 0 0 0 0 0 0 6 18 90 147 157 134 120 110 99 110 74 93 121 105 101 98 124 133 116 107 92 81 79 80 83 79 76 73 73 72 76 88 95 99 100 94 90 102 124 120 105 91 92 85 98 109 78 73 78 78 76 74 82 80 83 84 85 93 107 103 97 89 91 117 132 116 114 143 141 92 95 104 96 119 131 141 129 60 4 0 0 0 0 0 0 0 0 0 0 0 0 0 0 0 0 0 0 0 0 0 0 0 0 0 0 0 0 0 0 0 0 0 0 0 0 0 
0 0 0 0 0 0 0 0 0 0 0 0 7 18 86 142 156 125 126 99 96 112 77 94 120 113 108 98 122 136 125 106 96 80 78 78 84 79 76 77 75 67 71 83 91 94 98 90 87 105 123 112 93 93 98 87 85 108 75 84 86 83 77 81 80 80 84 86 87 97 104 98 97 86 96 128 143 129 117 144 139 90 98 98 96 116 133 143 126 57 3 0 0 0 0 0 0 0 0 0 0 0 0 0 0 0 0 0 0 0 0 0 0 0 0 0 0 0 0 0 0 0 0 0 0 0 0 0 
0 0 0 0 0 0 0 0 0 0 0 0 7 15 79 141 155 120 127 102 90 111 81 87 109 112 108 98 127 139 136 106 101 88 77 72 81 85 79 75 71 73 73 83 100 99 99 86 91 120 115 95 92 90 99 98 86 103 96 74 80 77 76 80 77 79 86 87 90 95 99 98 96 88 102 130 143 122 118 147 136 92 101 91 98 117 131 137 122 54 2 0 0 0 0 0 0 0 0 0 0 0 0 0 0 0 0 0 0 0 0 0 0 0 0 0 0 0 0 0 0 0 0 0 0 0 0 0 
0 0 0 0 0 0 0 0 0 0 0 0 5 15 76 138 153 121 126 109 86 109 86 77 100 105 108 97 128 139 134 115 99 90 75 73 78 83 84 76 70 74 78 86 99 95 93 85 104 124 109 99 95 98 103 91 84 86 102 82 78 70 72 74 77 82 84 86 88 91 92 100 98 94 110 126 124 116 120 147 134 94 103 88 99 115 125 135 117 50 3 0 0 0 0 0 0 0 0 0 0 0 0 0 0 0 0 0 0 0 0 0 0 0 0 0 0 0 0 0 0 0 0 0 0 0 0 0 
0 0 0 0 0 0 0 0 0 0 0 0 2 16 71 131 147 125 119 114 84 105 93 79 97 95 106 99 132 133 132 112 94 90 78 76 79 82 88 83 77 80 85 92 95 97 95 97 128 115 110 101 99 107 110 95 88 81 98 94 85 81 71 76 82 79 82 84 88 86 90 103 100 99 113 119 107 116 127 141 129 96 104 83 102 114 124 131 108 46 3 0 0 0 0 0 0 0 0 0 0 0 0 0 0 0 0 0 0 0 0 0 0 0 0 0 0 0 0 0 0 0 0 0 0 0 0 0 
0 0 0 0 0 0 0 0 0 4 4 0 0 13 63 123 143 129 114 116 84 98 102 84 95 90 102 103 138 129 129 110 91 93 82 73 75 76 85 84 79 85 88 93 102 105 109 122 132 105 114 103 99 111 108 95 86 83 88 109 115 101 91 87 78 82 94 93 94 89 96 107 98 101 117 108 103 136 152 146 127 100 99 80 103 112 124 126 96 40 3 0 0 0 0 0 0 0 0 0 0 0 0 0 0 0 0 0 0 0 0 0 0 0 0 0 0 0 0 0 0 0 0 0 0 0 0 0 
0 0 0 0 0 0 0 0 0 3 11 5 1 8 53 114 144 130 107 116 88 89 108 90 94 90 96 108 135 118 119 121 83 84 89 74 72 79 85 89 93 100 109 101 99 113 124 137 122 101 113 100 97 110 107 101 90 83 90 121 136 115 83 76 77 80 86 96 89 87 97 103 99 102 103 96 127 128 146 150 123 109 88 77 109 107 124 122 89 36 2 0 0 0 0 0 0 0 0 0 0 0 0 0 0 0 0 0 0 0 0 0 0 0 0 0 0 0 0 0 0 0 0 0 0 0 0 0 
0 0 0 0 0 0 0 0 0 0 7 12 4 7 41 106 141 129 102 107 94 79 105 96 94 90 91 107 128 112 118 124 90 77 91 85 79 85 90 93 97 88 84 91 107 122 139 134 109 98 104 94 94 113 106 95 88 78 90 129 138 103 96 94 89 83 85 93 87 83 98 96 89 97 86 110 113 100 133 153 127 116 75 87 108 109 126 120 85 29 1 0 0 0 0 0 0 0 0 0 0 0 0 0 0 0 0 0 0 0 0 0 0 0 0 0 0 0 0 0 0 0 0 0 0 0 0 0 
0 0 0 0 0 0 0 0 0 0 7 9 2 7 28 89 138 134 109 95 111 81 97 103 96 96 91 107 120 115 127 130 112 86 84 90 84 85 88 89 91 87 79 90 102 110 125 135 104 94 91 90 86 110 97 91 88 71 80 111 130 108 84 92 100 112 125 121 106 103 109 104 111 128 127 124 105 104 138 153 129 114 75 109 99 119 123 108 80 20 2 0 0 4 4 0 0 0 0 0 0 0 0 0 0 0 0 0 0 0 0 0 0 0 0 0 0 0 0 0 0 0 0 0 0 0 0 0 
0 0 0 0 0 0 0 0 0 0 6 6 4 6 23 80 132 139 115 96 115 93 86 105 96 106 97 113 120 110 127 136 124 113 93 90 86 89 95 98 87 77 74 84 105 101 120 115 100 84 81 82 81 99 85 74 76 77 80 106 121 106 101 90 92 90 105 119 122 131 147 151 145 134 138 145 132 127 140 142 131 105 105 132 103 127 123 103 74 12 4 4 9 6 1 0 0 0 0 0 0 0 0 0 0 0 0 0 0 0 0 0 0 0 0 0 0 0 0 0 0 0 0 0 0 0 0 0 
0 0 0 0 0 0 0 0 0 0 3 3 7 7 17 71 121 147 129 103 105 107 81 98 102 123 104 123 121 106 125 128 121 106 96 102 114 97 97 104 99 92 87 96 84 88 110 118 97 82 75 73 81 95 82 70 73 82 96 105 111 113 105 102 99 105 117 133 136 140 146 148 143 130 139 139 148 149 145 138 131 107 130 136 131 126 129 99 62 8 3 3 5 2 0 0 0 0 0 0 0 0 0 0 0 0 0 0 0 0 0 0 0 0 0 0 0 0 0 0 0 0 0 0 0 0 0 0 
0 0 0 0 0 0 0 0 0 0 2 3 8 8 10 60 111 143 141 113 96 114 95 91 110 117 116 130 130 114 118 126 131 123 104 103 106 104 105 107 103 101 87 65 82 91 101 108 93 86 73 72 82 96 86 70 78 89 106 106 95 113 115 119 116 118 118 131 133 149 163 154 152 141 146 150 155 153 158 157 143 121 151 139 156 134 133 102 47 5 2 3 1 4 0 0 0 0 0 0 0 0 0 0 0 0 0 0 0 0 0 0 0 0 0 0 0 0 0 0 0 0 0 0 0 0 0 0 
0 0 0 0 0 0 0 0 0 0 0 3 11 9 11 50 105 141 139 131 100 120 135 101 109 117 130 140 122 124 134 137 144 155 140 117 113 109 96 94 97 78 70 71 76 88 97 125 112 84 72 71 80 96 76 84 90 94 103 96 103 107 112 109 111 117 130 148 145 141 156 163 150 117 105 141 161 163 170 173 170 166 159 159 174 132 118 91 29 6 3 3 0 3 0 0 0 0 0 0 0 0 0 0 0 0 0 0 0 0 0 0 0 0 0 0 0 0 0 0 0 0 0 0 0 0 0 0 
0 0 0 0 0 0 0 0 0 0 0 4 12 5 6 31 96 140 136 141 136 141 134 131 124 126 146 150 135 149 149 147 142 160 152 128 130 118 106 96 112 92 76 74 78 84 110 128 96 84 71 64 77 103 97 89 85 90 96 100 109 114 113 109 107 107 109 130 142 147 152 155 133 104 105 125 148 152 160 169 176 181 182 178 152 126 123 76 16 7 4 2 0 1 0 0 0 0 0 0 0 0 0 0 0 0 0 0 0 0 0 0 0 0 0 0 0 0 0 0 0 0 0 0 0 0 0 0 
0 0 0 0 0 0 0 0 0 0 0 2 10 4 5 11 54 125 131 128 147 162 162 150 147 128 136 159 143 145 157 148 131 132 149 143 128 110 109 110 110 106 104 80 75 85 98 118 98 88 86 82 83 101 103 89 80 86 87 94 101 106 115 118 119 104 97 123 136 143 140 133 123 109 107 138 144 146 144 147 160 158 170 158 125 130 122 82 13 3 3 5 0 0 0 0 0 0 0 0 0 0 0 0 0 0 0 0 0 0 0 0 0 0 0 0 0 0 0 0 0 0 0 0 0 0 0 0 
0 0 0 0 0 0 0 0 0 0 0 4 9 3 4 9 32 111 142 130 145 167 158 149 156 153 146 170 152 150 141 137 136 126 135 143 126 121 113 109 108 108 108 96 85 84 97 107 92 84 88 98 83 100 100 95 85 77 76 95 97 95 101 106 112 118 128 133 137 148 138 115 102 109 136 140 132 149 126 134 166 155 123 113 90 111 111 58 6 3 3 6 0 0 0 0 0 0 0 0 0 0 0 0 0 0 0 0 0 0 0 0 0 0 0 0 0 0 0 0 0 0 0 0 0 0 0 0 
0 0 0 0 0 0 0 0 0 0 0 4 9 2 4 8 19 84 142 124 132 160 162 147 152 170 167 164 159 134 117 103 125 137 135 142 124 116 109 108 108 105 106 101 92 88 104 96 83 106 118 110 90 106 119 110 87 82 87 102 113 110 101 91 85 101 114 124 134 143 120 107 110 145 151 129 132 142 126 144 150 146 118 109 100 117 98 29 7 4 4 7 0 0 0 0 0 0 0 0 0 0 0 0 0 0 0 0 0 0 0 0 0 0 0 0 0 0 0 0 0 0 0 0 0 0 0 0 
0 0 0 0 0 0 0 0 0 0 0 3 9 3 4 6 16 55 130 127 126 130 155 155 141 161 174 169 154 145 130 111 123 153 132 125 121 113 110 106 100 110 102 96 95 107 106 105 102 130 129 121 115 118 132 122 93 81 88 96 106 123 112 112 112 100 96 108 118 118 111 108 115 151 140 140 144 127 143 145 112 121 110 111 117 111 71 12 7 3 6 5 2 0 0 0 0 0 0 0 0 0 0 0 0 0 0 0 0 0 0 0 0 0 0 0 0 0 0 0 0 0 0 0 0 0 0 0 
0 0 0 0 0 0 0 0 0 0 0 1 8 4 4 7 15 33 111 131 112 111 130 151 150 152 151 144 143 144 142 130 124 143 145 129 125 119 111 99 83 81 95 116 117 110 129 128 129 114 106 112 117 115 130 132 113 90 88 103 114 131 127 112 116 101 98 95 90 94 101 111 135 124 119 137 143 129 135 130 125 122 105 96 127 113 44 10 3 1 4 5 3 0 0 0 0 0 0 0 0 0 0 0 0 0 0 0 0 0 0 0 0 0 0 0 0 0 0 0 0 0 0 0 0 0 0 0 
0 0 0 0 0 0 0 0 0 0 0 0 5 2 3 10 15 18 72 118 101 111 121 127 126 138 144 123 119 130 128 137 135 116 110 121 116 128 110 98 90 98 111 127 129 117 137 128 105 111 120 112 101 99 123 116 104 100 119 124 108 118 128 125 130 118 97 76 79 105 109 137 121 109 127 142 131 137 159 147 136 124 92 103 100 83 27 17 4 4 5 6 4 0 0 0 0 0 0 0 0 0 0 0 0 0 0 0 0 0 0 0 0 0 0 0 0 0 0 0 0 0 0 0 0 0 0 0 
0 0 0 0 0 0 0 0 0 0 0 0 3 3 3 8 16 12 40 109 126 99 123 134 137 132 143 117 114 139 140 128 144 133 115 105 104 103 100 99 103 109 107 108 111 117 138 133 116 116 128 132 137 141 142 138 140 138 123 118 118 127 141 128 132 122 98 75 87 126 125 118 125 110 124 130 138 156 169 155 106 95 83 107 86 55 18 21 8 5 6 4 1 0 0 0 0 0 0 0 0 0 0 0 0 0 0 0 0 0 0 0 0 0 0 0 0 0 0 0 0 0 0 0 0 0 0 0 
0 0 0 0 0 0 0 0 0 0 0 0 4 4 4 8 16 11 21 90 129 96 112 127 153 147 134 127 133 151 156 146 149 150 121 98 92 86 90 104 108 115 111 115 125 140 152 145 141 146 161 163 169 175 172 167 169 166 144 133 143 152 161 142 119 113 116 102 111 127 111 123 147 118 101 123 160 174 144 145 112 76 66 86 80 30 15 21 12 6 6 2 0 0 0 0 0 0 0 0 0 0 0 0 0 0 0 0 0 0 0 0 0 0 0 0 0 0 0 0 0 0 0 0 0 0 0 0 
0 0 0 0 0 0 0 0 0 0 0 0 7 3 3 8 16 11 13 59 117 98 100 132 150 154 144 155 147 130 136 147 142 138 123 119 103 85 86 104 129 128 128 127 123 147 162 151 153 159 167 170 168 168 172 172 164 161 146 133 132 132 141 159 149 141 142 135 135 107 98 112 137 128 83 121 175 176 136 132 122 103 85 95 71 20 14 19 12 7 6 2 0 0 0 0 0 0 0 0 0 0 0 0 0 0 0 0 0 0 0 0 0 0 0 0 0 0 0 0 0 0 0 0 0 0 0 0 
0 0 0 0 0 0 0 0 0 0 1 3 7 4 2 6 8 10 11 33 93 102 98 118 134 151 146 166 153 138 124 143 154 133 109 107 108 113 119 116 125 144 159 159 141 151 157 157 155 159 154 161 158 156 161 168 168 170 151 152 152 146 153 162 164 170 164 170 157 120 101 102 115 124 108 137 170 170 132 119 108 93 87 103 58 20 15 14 11 9 7 3 0 0 0 0 0 0 0 0 0 0 0 0 0 0 0 0 0 0 0 0 0 0 0 0 0 0 0 0 0 0 0 0 0 0 0 0 
0 0 0 0 0 0 0 0 0 0 1 3 12 11 5 8 6 9 9 26 81 114 98 113 114 138 153 158 146 142 140 133 138 111 103 107 101 97 104 113 124 139 147 166 165 155 144 151 153 140 128 147 147 138 123 131 132 140 134 143 146 155 167 153 144 164 168 172 158 109 78 85 115 134 144 154 173 175 151 122 99 70 103 90 48 21 15 9 10 9 7 4 0 0 0 0 0 0 0 0 0 0 0 0 0 0 0 0 0 0 0 0 0 0 0 0 0 0 0 0 0 0 0 0 0 0 0 0 
0 0 0 0 0 0 0 0 0 0 0 2 9 11 10 9 6 13 13 21 61 100 92 102 100 91 135 161 147 127 130 148 133 92 80 88 99 117 131 134 130 128 135 154 177 173 150 150 151 147 144 148 151 140 131 120 117 118 127 134 137 152 156 144 146 168 173 166 148 101 78 95 126 121 145 159 180 175 147 102 98 97 117 91 38 20 13 8 9 10 3 5 1 0 0 0 0 0 0 0 0 0 0 0 0 0 0 0 0 0 0 0 0 0 0 0 0 0 0 0 0 0 0 0 0 0 0 0 
0 0 0 0 0 0 0 0 0 0 0 2 8 11 5 8 8 15 14 15 31 88 92 104 92 106 116 146 153 146 120 141 152 117 88 92 105 111 106 106 111 112 127 144 158 173 148 140 144 152 143 149 150 147 132 114 109 111 118 122 125 148 146 142 146 165 176 167 151 115 89 98 103 125 147 149 166 165 142 84 93 87 86 69 19 17 14 5 6 4 2 6 5 1 1 0 0 0 0 0 0 0 0 0 0 0 0 0 0 0 0 0 0 0 0 0 0 0 0 0 0 0 0 0 0 0 0 0 
0 0 0 0 0 0 0 0 0 0 0 1 10 11 9 10 13 9 12 15 19 52 94 82 93 108 109 134 151 162 141 140 148 126 106 88 86 87 90 89 92 92 101 117 124 158 147 127 127 124 133 124 117 145 144 107 113 129 118 90 117 152 141 155 159 181 177 159 154 137 116 112 128 133 130 124 114 111 112 77 60 70 90 35 10 8 11 9 3 4 6 8 12 4 3 0 0 0 0 0 0 0 0 0 0 0 0 0 0 0 0 0 0 0 0 0 0 0 0 0 0 0 0 0 0 0 0 0 
0 0 0 0 0 0 0 0 0 0 0 0 9 11 8 6 4 7 7 14 21 27 61 68 76 82 96 128 149 158 158 144 149 136 129 114 105 109 112 127 135 153 155 146 137 153 157 153 153 162 160 139 150 190 201 185 174 179 179 155 168 158 152 153 154 160 149 171 173 167 143 142 138 123 100 67 69 83 96 83 93 97 55 15 10 2 3 6 4 3 2 6 5 3 0 0 0 0 0 0 0 0 0 0 0 0 0 0 0 0 0 0 0 0 0 0 0 0 0 0 0 0 0 0 0 0 0 0 
0 0 0 0 0 0 0 0 0 0 0 0 4 6 3 2 2 2 7 10 12 20 31 61 55 65 84 89 88 126 144 133 137 130 114 115 126 140 137 135 159 165 182 199 192 184 194 195 183 171 192 199 199 207 205 206 205 208 210 200 201 181 195 183 178 191 178 183 122 137 137 127 97 70 65 64 78 95 69 67 66 55 34 24 13 3 1 2 2 4 4 10 7 0 0 0 0 0 0 0 0 0 0 0 0 0 0 0 0 0 0 0 0 0 0 0 0 0 0 0 0 0 0 0 0 0 0 0 
0 0 0 0 0 0 0 0 0 0 0 0 0 3 2 2 1 0 0 6 10 22 24 46 68 78 60 52 69 73 109 99 138 124 95 87 97 131 154 164 154 142 158 147 164 153 172 198 184 178 183 191 191 193 192 199 208 206 202 187 162 194 170 150 149 185 166 154 133 140 139 120 81 46 40 68 77 96 56 37 37 48 51 34 18 1 1 1 2 2 2 8 6 0 0 0 0 0 0 0 0 0 0 0 0 0 0 0 0 0 0 0 0 0 0 0 0 0 0 0 0 0 0 0 0 0 0 0 
0 0 0 0 0 0 0 0 0 0 0 0 0 3 5 3 3 2 1 4 10 12 20 22 41 56 37 44 76 54 83 58 106 119 90 74 72 83 99 98 92 98 123 109 87 111 132 149 143 113 147 155 138 138 123 125 121 107 125 123 106 113 89 97 98 156 111 90 68 60 56 62 53 35 37 71 62 87 49 29 25 26 22 6 4 1 4 4 2 1 0 6 6 0 0 0 0 0 0 0 0 0 0 0 0 0 0 0 0 0 0 0 0 0 0 0 0 0 0 0 0 0 0 0 0 0 0 0 
0 0 0 0 0 0 0 0 0 0 0 0 0 0 6 3 1 2 2 0 7 9 15 17 22 22 23 34 76 53 76 49 89 105 96 72 69 65 82 87 95 88 61 60 63 84 76 72 89 78 61 79 86 79 87 99 87 67 76 72 81 93 80 71 70 89 66 88 99 82 60 58 50 35 44 71 69 92 45 31 26 25 17 5 4 1 2 1 1 2 4 5 3 0 0 0 0 0 0 0 0 0 0 0 0 0 0 0 0 0 0 0 0 0 0 0 0 0 0 0 0 0 0 0 0 0 0 0 
0 0 0 0 0 0 0 0 0 0 0 0 0 0 0 0 0 0 0 0 4 7 9 16 22 28 30 40 77 60 75 45 78 100 98 82 76 90 94 108 121 132 98 82 84 88 84 85 105 72 66 100 94 93 90 91 91 63 94 106 125 118 102 100 139 164 102 117 111 73 70 89 64 45 68 79 83 96 48 42 33 32 23 16 1 0 0 0 0 2 3 1 0 0 0 0 0 0 0 0 0 0 0 0 0 0 0 0 0 0 0 0 0 0 0 0 0 0 0 0 0 0 0 0 0 0 0 0 
0 0 0 0 0 0 0 0 0 0 0 0 0 0 0 0 0 0 0 0 0 2 4 7 15 47 60 66 95 88 93 60 80 90 93 103 129 120 104 134 144 150 130 111 136 162 165 173 172 149 132 143 133 121 111 113 116 89 85 105 130 140 105 137 150 172 107 129 80 110 81 97 87 78 98 80 86 89 52 46 36 29 19 10 0 0 0 0 0 0 0 0 0 0 0 0 0 0 0 0 0 0 0 0 0 0 0 0 0 0 0 0 0 0 0 0 0 0 0 0 0 0 0 0 0 0 0 0 
0 0 0 0 0 0 0 0 0 0 0 0 0 0 0 0 0 0 0 0 0 0 4 10 13 33 45 60 72 75 74 76 91 98 115 128 124 133 141 144 127 133 133 145 186 160 175 192 182 183 183 163 149 156 138 114 111 98 93 110 123 156 149 142 153 135 133 121 145 124 103 110 117 103 88 79 89 66 15 6 6 17 15 4 0 0 0 0 0 0 0 0 0 0 0 0 0 0 0 0 0 0 0 0 0 0 0 0 0 0 0 0 0 0 0 0 0 0 0 0 0 0 0 0 0 0 0 0 
0 0 0 0 0 0 0 0 0 0 0 0 0 0 0 0 0 0 0 0 0 0 0 6 11 23 26 45 58 79 74 69 72 69 54 49 60 77 81 98 98 94 85 91 148 111 153 161 162 161 157 153 155 152 143 122 128 125 126 120 128 135 113 137 140 107 108 152 138 168 127 70 59 51 66 79 77 50 23 23 19 11 7 2 2 2 2 3 2 1 0 0 0 0 0 0 0 0 0 0 0 0 0 0 0 0 0 0 0 0 0 0 0 0 0 0 0 0 0 0 0 0 0 0 0 0 0 0 
0 0 0 0 0 0 0 0 0 0 0 0 0 0 0 0 0 0 0 0 0 0 3 5 12 13 17 25 34 66 64 62 49 69 36 34 47 42 88 99 109 117 118 113 127 114 116 111 123 126 111 106 109 101 102 93 101 108 116 116 108 135 141 136 161 146 146 85 147 139 106 56 51 46 65 107 86 52 20 18 23 17 7 2 1 0 2 2 2 1 0 0 0 0 0 0 0 0 0 0 0 0 0 0 0 0 0 0 0 0 0 0 0 0 0 0 0 0 0 0 0 0 0 0 0 0 0 0 
0 0 0 0 0 0 0 0 0 0 0 0 0 0 0 0 0 0 0 0 0 0 2 5 10 13 18 20 25 57 59 75 54 74 37 46 49 58 87 103 103 86 104 98 113 128 94 102 114 106 77 56 79 79 80 85 93 101 101 99 89 116 134 136 92 101 125 142 123 105 94 59 42 43 59 114 89 51 26 17 19 13 7 2 1 0 1 2 2 1 0 0 0 0 0 0 0 0 0 0 0 0 0 0 0 0 0 0 0 0 0 0 0 0 0 0 0 0 0 0 0 0 0 0 0 0 0 0 
0 0 0 0 0 0 0 0 0 0 0 0 0 0 0 0 0 0 0 0 0 0 2 4 9 10 15 20 22 49 47 76 59 74 45 59 48 51 68 87 70 72 81 87 84 89 93 116 131 102 87 77 76 73 71 70 80 79 85 104 105 114 123 138 102 82 100 105 104 101 83 61 61 64 60 112 84 49 21 16 17 12 7 1 1 0 1 2 2 1 0 0 0 0 0 0 0 0 0 0 0 0 0 0 0 0 0 0 0 0 0 0 0 0 0 0 0 0 0 0 0 0 0 0 0 0 0 0 
0 0 0 0 0 0 0 0 0 0 0 0 0 0 0 0 0 0 0 0 0 0 0 4 6 10 11 19 21 43 37 70 69 78 50 54 34 45 64 69 72 74 76 92 81 103 126 147 155 109 81 94 83 77 68 59 66 68 83 117 127 122 127 122 94 79 92 95 108 98 89 52 47 75 79 111 74 56 22 18 17 12 5 1 1 1 1 2 2 1 0 0 0 0 0 0 0 0 0 0 0 0 0 0 0 0 0 0 0 0 0 0 0 0 0 0 0 0 0 0 0 0 0 0 0 0 0 0 
0 0 0 0 0 0 0 0 0 0 0 0 0 0 0 0 0 0 0 0 0 0 0 0 4 9 9 17 19 31 37 61 79 86 51 54 39 58 59 66 75 64 78 96 91 109 107 141 147 113 95 103 101 94 79 72 70 88 95 125 135 113 129 90 96 91 97 82 85 105 85 68 45 69 91 109 68 49 29 18 15 11 3 1 1 1 1 2 2 2 1 0 0 0 0 0 0 0 0 0 0 0 0 0 0 0 0 0 0 0 0 0 0 0 0 0 0 0 0 0 0 0 0 0 0 0 0 0 
0 0 0 0 0 0 0 0 0 0 0 0 0 0 0 0 0 0 0 0 0 0 0 0 2 4 11 12 17 26 50 70 73 90 56 60 54 65 57 74 60 60 86 91 97 105 84 100 105 122 122 103 91 93 101 96 91 94 93 124 147 123 123 82 100 87 95 88 67 87 90 77 49 64 94 101 74 41 21 17 15 8 2 1 1 1 1 2 2 2 1 0 0 0 0 0 0 0 0 0 0 0 0 0 0 0 0 0 0 0 0 0 0 0 0 0 0 0 0 0 0 0 0 0 0 0 0 0 
0 0 0 0 0 0 0 0 0 0 0 0 0 0 0 0 0 0 0 0 0 0 0 0 2 4 6 11 14 16 33 53 49 79 62 65 70 67 67 63 54 61 74 86 92 104 75 86 94 120 129 94 73 77 95 103 95 82 79 109 135 129 107 79 101 97 83 79 72 66 87 88 76 66 92 82 41 21 14 17 17 7 1 1 2 1 1 2 2 2 1 0 0 0 0 0 0 0 0 0 0 0 0 0 0 0 0 0 0 0 0 0 0 0 0 0 0 0 0 0 0 0 0 0 0 0 0 0 
0 0 0 0 0 0 0 0 0 0 0 0 0 0 0 0 0 0 0 0 0 0 0 0 0 3 3 8 13 17 18 28 36 44 77 91 90 62 75 56 48 52 59 71 89 99 69 85 108 124 114 88 78 83 97 100 92 81 71 83 116 118 101 79 91 100 78 62 62 56 79 84 95 99 91 42 17 16 16 18 16 6 1 1 1 1 1 2 2 2 1 0 0 0 0 0 0 0 0 0 0 0 0 0 0 0 0 0 0 0 0 0 0 0 0 0 0 0 0 0 0 0 0 0 0 0 0 0 
0 0 0 0 0 0 0 0 0 0 0 0 0 0 0 0 0 0 0 0 0 0 0 0 0 0 5 3 12 17 18 18 14 15 38 84 77 53 80 75 54 48 56 73 93 80 59 77 113 122 86 63 62 64 61 70 88 83 73 76 109 128 116 68 62 89 72 53 50 63 90 86 65 94 68 25 14 14 16 19 13 5 1 1 2 1 1 2 2 2 1 0 0 0 0 0 0 0 0 0 0 0 0 0 0 0 0 0 0 0 0 0 0 0 0 0 0 0 0 0 0 0 0 0 0 0 0 0 
0 0 0 0 0 0 0 0 0 0 0 0 0 0 0 0 0 0 0 0 0 0 0 0 0 0 4 4 8 14 17 18 15 14 10 31 57 56 83 97 65 46 49 83 102 66 51 66 113 123 91 62 56 58 55 60 84 75 63 72 115 130 106 60 53 73 93 65 45 67 105 96 58 60 31 22 13 13 16 18 11 4 1 1 1 1 0 1 2 2 1 0 0 0 0 0 0 0 0 0 0 0 0 0 0 0 0 0 0 0 0 0 0 0 0 0 0 0 0 0 0 0 0 0 0 0 0 0 
0 0 0 0 0 0 0 0 0 0 0 0 0 0 0 0 0 0 0 0 0 0 0 0 0 0 1 3 5 11 16 16 17 13 12 16 41 65 89 114 70 39 52 100 117 71 56 65 112 121 111 83 67 63 57 70 81 67 65 81 121 136 100 58 47 70 113 88 45 65 119 104 62 39 24 15 11 13 16 14 10 4 2 1 2 1 0 1 2 2 1 0 0 0 0 0 0 0 0 0 0 0 0 0 0 0 0 0 0 0 0 0 0 0 0 0 0 0 0 0 0 0 0 0 0 0 0 0 
0 0 0 0 0 0 0 0 0 0 0 0 0 0 0 0 0 0 0 0 0 0 0 0 0 0 0 4 3 7 14 14 16 18 14 16 19 32 52 92 77 54 73 114 115 74 60 73 110 123 115 82 63 60 63 80 73 72 71 86 97 123 114 75 50 66 122 117 68 70 110 68 31 26 20 13 11 15 15 11 9 4 1 2 2 1 0 1 2 2 1 0 0 0 0 0 0 0 0 0 0 0 0 0 0 0 0 0 0 0 0 0 0 0 0 0 0 0 0 0 0 0 0 0 0 0 0 0 
0 0 0 0 0 0 0 0 0 0 0 0 0 0 0 0 0 0 0 0 0 0 0 0 0 0 0 0 5 6 10 14 14 19 18 10 14 25 27 48 90 82 90 113 106 76 65 84 114 117 108 73 61 75 90 96 81 75 79 90 98 116 136 99 65 73 112 116 82 91 76 35 27 27 23 14 11 16 13 11 9 3 1 1 1 1 1 1 2 2 1 0 0 0 0 0 0 0 0 0 0 0 0 0 0 0 0 0 0 0 0 0 0 0 0 0 0 0 0 0 0 0 0 0 0 0 0 0 
0 0 0 0 0 0 0 0 0 0 0 0 0 0 0 0 0 0 0 0 0 0 0 0 0 0 0 0 0 8 7 12 15 18 19 11 11 23 27 27 46 81 88 94 100 81 80 93 122 128 102 65 67 79 90 104 98 89 84 87 95 116 139 118 81 77 99 94 78 63 37 29 28 26 24 14 9 13 13 11 7 3 1 1 1 1 0 1 2 2 1 0 0 0 0 0 0 0 0 0 0 0 0 0 0 0 0 0 0 0 0 0 0 0 0 0 0 0 0 0 0 0 0 0 0 0 0 0 
0 0 0 0 0 0 0 0 0 0 0 0 0 0 0 0 0 0 0 0 0 0 0 0 0 0 0 0 0 7 6 10 14 16 19 14 12 22 28 30 31 35 42 50 84 92 89 98 117 123 105 84 87 90 98 99 102 102 105 91 91 123 140 123 89 81 69 45 31 32 31 29 26 25 20 14 10 11 14 11 7 2 1 1 1 1 0 1 2 2 1 0 0 0 0 0 0 0 0 0 0 0 0 0 0 0 0 0 0 0 0 0 0 0 0 0 0 0 0 0 0 0 0 0 0 0 0 0 
0 0 0 0 0 0 0 0 0 0 0 0 0 0 0 0 0 0 0 0 0 0 0 0 0 0 0 0 0 5 6 10 13 17 20 14 12 21 30 28 30 36 32 39 55 73 83 88 94 111 106 96 97 95 96 101 105 104 112 110 112 123 125 101 93 72 58 53 40 30 28 32 27 24 16 15 14 12 15 12 6 2 1 1 1 1 1 1 2 2 1 0 0 0 0 0 0 0 0 0 0 0 0 0 0 0 0 0 0 0 0 0 0 0 0 0 0 0 0 0 0 0 0 0 0 0 0 0 
