P2
128 99
202
0 0 0 0 0 0 0 0 0 0 0 0 0 0 0 0 0 0 0 0 0 0 0 0 0 0 0 0 0 0 0 0 0 0 0 0 0 0 0 0 1 1 1 0 0 0 0 0 0 0 0 0 0 0 0 0 0 0 0 0 0 0 0 0 0 0 0 0 0 0 0 0 0 0 0 0 0 0 0 0 0 0 0 0 1 1 0 0 0 0 0 0 0 0 0 0 0 0 0 0 0 0 0 0 0 0 0 0 0 0 0 0 0 0 0 0 0 0 0 0 0 0 0 0 0 0 0 0 
0 0 0 0 0 0 0 0 0 0 0 0 0 0 0 0 0 0 0 0 0 0 0 0 0 0 0 0 0 0 0 0 0 0 0 0 0 0 0 0 1 1 1 0 0 0 0 0 0 0 0 0 0 0 0 0 0 0 0 0 0 0 0 0 0 0 0 0 0 0 0 0 0 0 0 0 0 0 0 0 0 0 0 0 1 1 0 0 0 0 0 0 0 0 0 0 0 0 0 0 0 0 0 0 0 0 0 0 0 0 0 0 0 0 0 0 0 0 0 0 0 0 0 0 0 0 0 0 
0 0 0 0 0 0 0 0 0 0 0 0 0 0 0 0 0 0 0 0 0 0 0 0 0 0 0 0 0 0 0 0 0 0 0 0 0 0 0 0 1 1 1 0 0 0 0 0 0 0 1 3 3 2 1 0 0 0 0 0 0 0 0 0 0 0 0 0 0 0 0 0 0 0 0 0 0 0 0 0 0 0 0 1 1 1 0 0 0 0 0 0 0 0 0 0 0 0 0 0 0 0 0 0 0 0 0 0 0 0 0 0 0 0 0 0 0 0 0 0 0 0 0 0 0 0 0 0 
0 0 0 0 0 0 0 0 0 0 0 0 0 0 0 0 0 0 0 0 0 0 0 0 0 0 0 0 0 0 0 0 0 0 0 0 0 0 0 0 1 1 1 1 6 13 17 18 18 18 20 24 29 28 26 21 19 14 14 12 4 0 0 0 0 0 0 0 0 0 0 0 0 0 0 0 0 0 0 0 0 0 0 0 1 1 0 0 0 0 0 0 0 0 0 0 0 0 0 0 0 0 0 0 0 0 0 0 0 0 0 0 0 0 0 0 0 0 0 0 0 0 0 0 0 0 0 0 
0 0 0 0 0 0 0 0 0 0 0 0 0 0 0 0 0 0 0 0 0 0 0 0 0 0 0 0 0 0 0 0 0 0 0 0 0 0 0 0 5 13 20 24 24 34 53 75 96 115 129 139 145 145 142 132 119 100 77 52 33 21 16 11 2 0 0 0 0 0 0 0 0 0 0 0 0 0 0 0 0 0 0 0 1 1 0 0 0 0 0 0 0 0 0 0 0 0 0 0 0 0 0 0 0 0 0 0 0 0 0 0 0 0 0 0 0 0 0 0 0 0 0 0 0 0 0 0 
0 0 0 0 0 0 0 0 0 0 0 0 0 0 0 0 0 0 0 0 0 0 0 0 0 0 0 0 0 0 0 0 0 0 0 0 0 1 10 16 24 26 36 66 105 139 160 170 175 179 182 180 179 178 178 179 179 176 171 162 142 112 75 44 22 16 11 1 0 0 0 0 0 0 0 0 0 0 0 0 0 0 0 0 1 1 1 0 0 0 0 0 0 0 0 0 0 0 0 0 0 0 0 0 0 0 0 0 0 0 0 0 0 0 0 0 0 0 0 0 0 0 0 0 0 0 0 0 
0 0 0 0 0 0 0 0 0 0 0 0 0 0 0 0 0 0 0 0 0 0 0 0 0 0 0 0 0 0 0 0 0 0 0 1 9 22 25 25 54 99 143 167 177 182 182 178 180 183 186 187 189 188 187 187 186 184 180 177 177 176 168 148 115 74 39 18 13 2 0 0 0 0 0 0 0 0 0 0 0 0 0 0 1 1 0 0 0 0 0 0 0 0 0 0 0 0 0 0 0 0 0 0 0 0 0 0 0 0 0 0 0 0 0 0 0 0 0 0 0 0 0 0 0 0 0 0 
0 0 0 0 0 0 0 0 0 0 0 0 0 0 0 0 0 0 0 0 0 0 0 0 0 0 0 0 0 0 0 0 0 0 8 25 25 24 60 118 158 174 181 182 180 182 183 179 174 175 181 187 185 174 174 188 199 200 195 188 183 182 178 179 177 165 140 96 49 21 14 1 0 0 0 0 0 0 0 0 0 0 0 1 1 1 0 0 0 0 0 0 0 0 0 0 0 0 0 0 0 0 0 0 0 0 0 0 0 0 0 0 0 0 0 0 0 0 0 0 0 0 0 0 0 0 0 0 
0 0 0 0 0 0 0 0 0 0 0 0 0 0 0 0 0 0 0 0 0 0 0 0 0 0 0 0 0 0 0 0 5 27 25 23 57 121 162 174 179 179 179 187 188 182 179 171 158 150 150 151 148 143 143 145 154 173 192 201 202 196 190 183 181 178 180 172 147 99 47 23 10 0 0 0 0 0 0 0 0 0 0 1 1 1 0 0 0 0 0 0 0 0 0 0 0 0 0 0 0 0 0 0 0 0 0 0 0 0 0 0 0 0 0 0 0 0 0 0 0 0 0 0 0 0 0 0 
0 0 0 0 0 0 0 0 0 0 0 0 0 0 0 0 0 0 0 0 0 0 0 0 0 0 0 0 0 0 0 23 27 21 41 108 160 171 175 180 182 189 186 175 166 156 142 135 132 129 134 142 144 142 142 143 144 151 160 174 190 196 200 199 194 185 181 178 178 172 139 78 30 20 1 0 0 0 0 0 0 0 0 1 1 1 0 0 0 0 0 0 0 0 0 0 0 0 0 0 0 0 0 0 0 0 0 0 0 0 0 0 0 0 0 0 0 0 0 0 0 0 0 0 0 0 0 0 
0 0 0 0 0 0 0 0 0 0 0 0 0 0 0 0 0 0 0 0 0 0 0 0 0 0 0 0 0 10 28 20 25 84 151 170 175 176 180 189 193 186 171 161 153 145 141 134 133 133 121 122 118 120 133 137 141 137 141 156 167 183 193 196 197 198 196 188 181 180 179 164 114 46 22 6 0 0 0 0 0 0 0 1 1 1 0 0 0 0 0 0 0 0 0 0 0 0 0 0 0 0 0 0 0 0 0 0 0 0 0 0 0 0 0 0 0 0 0 0 0 0 0 0 0 0 0 0 
0 0 0 0 0 0 0 0 0 0 0 0 0 0 0 0 0 0 0 0 0 0 0 0 0 0 0 0 21 24 19 48 126 166 172 180 181 187 193 194 176 161 153 146 137 132 123 122 125 135 140 149 150 146 151 152 146 144 138 133 141 154 173 187 197 198 196 196 195 189 184 179 175 143 66 23 11 0 0 0 0 0 0 1 1 1 0 0 0 0 0 0 0 0 0 0 0 0 0 0 0 0 0 0 0 0 0 0 0 0 0 0 0 0 0 0 0 0 0 0 0 0 0 0 0 0 0 0 
0 0 0 0 0 0 0 0 0 0 0 0 0 0 0 0 0 0 0 0 0 0 0 0 0 0 4 25 21 20 74 150 169 177 182 188 194 197 180 165 161 154 147 150 151 153 160 156 154 142 132 130 129 128 140 149 147 152 159 161 158 163 167 168 176 188 199 199 196 198 196 185 179 175 153 82 24 13 0 0 0 0 0 1 1 1 1 0 0 0 0 0 0 0 0 0 0 0 0 0 0 0 0 0 0 0 0 0 0 0 0 0 0 0 0 0 0 0 0 0 0 0 0 0 0 0 0 0 
0 0 0 0 0 0 0 0 0 0 0 0 0 0 0 0 0 0 0 0 0 0 0 0 0 11 24 20 25 98 159 170 181 186 191 199 190 171 161 155 156 161 167 161 150 148 147 141 132 124 116 115 113 109 109 118 130 132 136 144 148 153 164 176 176 173 177 189 198 196 195 197 186 175 174 160 92 27 13 0 0 0 0 1 1 1 0 0 0 0 0 0 0 0 0 0 0 0 0 0 0 0 0 0 0 0 0 0 0 0 0 0 0 0 0 0 0 0 0 0 0 0 0 0 0 0 0 0 
0 0 0 0 0 0 0 0 0 0 0 0 0 0 0 0 0 0 0 0 0 0 0 0 15 22 18 32 114 162 173 184 187 195 197 177 164 161 163 167 171 162 148 139 139 135 120 114 119 117 121 122 120 120 120 121 127 135 136 135 134 137 141 151 165 173 176 172 172 187 196 193 199 188 177 176 164 102 30 13 0 0 0 1 1 1 1 0 0 0 0 0 0 0 0 0 0 0 0 0 0 0 0 0 0 0 0 0 0 0 0 0 0 0 0 0 0 0 0 0 0 0 0 0 0 0 0 0 
0 0 0 0 0 0 0 0 0 0 0 0 0 0 0 0 0 0 0 0 0 0 3 20 19 18 45 125 162 177 184 188 196 187 164 161 166 171 174 163 143 133 138 140 138 133 131 130 130 130 124 107 108 127 132 134 132 132 134 137 135 137 141 142 143 152 165 172 171 165 175 189 192 198 191 176 176 166 113 36 12 0 0 1 1 2 1 0 0 0 0 0 0 0 0 0 0 0 0 0 0 0 0 0 0 0 0 0 0 0 0 0 0 0 0 0 0 0 0 0 0 0 0 0 0 0 0 0 
0 0 0 0 0 0 0 0 0 0 0 0 0 0 0 0 0 0 0 0 0 5 18 15 18 56 133 161 178 183 189 197 178 158 165 166 167 165 149 137 139 147 149 139 125 119 123 124 124 121 122 115 114 124 125 126 126 122 120 125 124 125 129 139 144 141 142 155 167 173 161 161 181 187 196 191 178 176 163 120 39 10 0 1 1 1 1 0 0 0 0 0 0 0 0 0 0 0 0 0 0 0 0 0 0 0 0 0 0 0 0 0 0 0 0 0 0 0 0 0 0 0 0 0 0 0 0 0 
0 0 0 0 0 0 0 0 0 0 0 0 0 0 0 0 0 0 0 0 7 16 13 19 68 140 160 177 184 190 192 168 155 164 158 157 147 132 136 146 150 147 132 112 105 105 101 104 106 104 100 105 99 100 104 107 109 108 112 118 121 121 120 121 130 136 135 137 142 157 171 158 152 172 180 194 192 179 176 165 123 36 6 1 1 1 0 0 0 0 0 0 0 0 0 0 0 0 0 0 0 0 0 0 0 0 0 0 0 0 0 0 0 0 0 0 0 0 0 0 0 0 0 0 0 0 0 0 
0 0 0 0 0 0 0 0 0 0 0 0 0 0 0 0 0 0 0 6 15 11 20 76 143 161 174 184 191 189 162 152 162 150 149 142 133 135 142 135 128 116 106 100 101 99 96 107 110 106 108 107 109 112 114 118 117 113 112 115 117 118 115 117 115 116 128 135 132 129 145 164 152 147 168 179 195 192 180 173 163 115 28 4 2 1 1 0 0 0 0 0 0 0 0 0 0 0 0 0 0 0 0 0 0 0 0 0 0 0 0 0 0 0 0 0 0 0 0 0 0 0 0 0 0 0 0 0 
0 0 0 0 0 0 0 0 0 0 0 0 0 0 0 0 0 0 4 14 12 21 82 144 159 171 181 188 183 159 154 156 143 147 142 129 128 133 126 119 109 102 106 109 108 107 111 116 120 119 114 110 112 122 121 122 125 126 125 124 124 123 121 116 109 107 118 127 139 133 121 139 165 144 142 162 176 197 193 178 171 158 101 21 3 2 1 0 0 0 0 0 0 0 0 0 0 0 0 0 0 0 0 0 0 0 0 0 0 0 0 0 0 0 0 0 0 0 0 0 0 0 0 0 0 0 0 0 
0 0 0 0 0 0 0 0 0 0 0 0 0 0 0 0 0 2 14 12 20 78 141 153 170 183 189 177 157 152 153 139 140 141 129 125 127 120 118 109 102 107 114 115 115 113 114 113 114 109 100 102 107 121 122 123 123 123 125 128 133 132 131 125 118 109 107 117 129 140 127 119 144 166 144 143 157 172 196 186 177 165 150 81 13 2 1 0 0 0 0 0 0 0 0 0 0 0 0 0 0 0 0 0 0 0 0 0 0 0 0 0 0 0 0 0 0 0 0 0 0 0 0 0 0 0 0 0 
0 0 0 0 0 0 0 0 0 0 0 0 0 0 0 0 0 10 10 18 69 135 148 163 177 189 176 158 151 150 135 139 142 126 116 122 118 114 106 102 114 125 127 125 121 120 117 113 107 90 96 107 111 111 115 118 120 121 125 129 132 132 135 133 125 115 110 109 116 126 137 122 111 142 160 139 144 150 179 192 185 175 160 135 54 6 1 0 0 0 0 0 0 0 0 0 0 0 0 0 0 0 0 0 0 0 0 0 0 0 0 0 0 0 0 0 0 0 0 0 0 0 0 0 0 0 0 0 
0 0 0 0 0 0 0 0 0 0 0 0 0 0 0 0 5 10 16 59 127 141 162 171 186 174 156 149 147 134 137 144 121 108 117 120 120 111 109 124 135 138 135 130 123 116 113 108 99 98 98 104 104 103 102 100 103 104 105 108 115 121 126 131 130 119 106 108 107 113 122 128 115 114 147 154 136 141 147 184 188 184 168 152 113 27 2 0 0 0 0 0 0 0 0 0 0 0 0 0 0 0 0 0 0 0 0 0 0 0 0 0 0 0 0 0 0 0 0 0 0 0 0 0 0 0 0 0 
0 0 0 0 0 0 0 0 0 0 0 0 0 0 0 1 11 13 47 115 137 155 168 182 174 153 150 143 131 135 143 120 106 121 126 118 112 112 127 137 136 129 122 118 116 112 110 108 106 103 103 102 101 98 99 100 101 98 97 99 103 110 117 125 129 130 117 102 105 105 113 121 121 112 122 149 148 136 135 156 181 187 179 163 141 77 7 0 0 0 0 0 0 0 0 0 0 0 0 0 0 0 0 0 0 0 0 0 0 1 0 0 0 0 0 0 0 0 0 0 0 0 0 0 0 0 0 0 
0 0 0 0 0 0 0 0 0 0 0 0 0 0 0 6 8 27 98 130 144 164 175 179 154 153 142 134 129 147 126 104 118 127 117 109 112 122 130 128 121 111 107 106 104 103 102 101 102 105 105 103 103 102 100 106 103 100 97 96 94 95 105 114 123 129 129 115 103 102 104 113 125 120 110 131 152 140 136 137 163 178 186 168 152 117 30 1 0 0 0 0 0 0 0 0 0 0 0 0 0 0 0 0 0 0 0 0 0 1 0 0 0 0 0 0 0 0 0 0 0 0 0 0 0 0 0 0 
0 0 0 0 0 0 0 0 0 0 0 0 0 0 1 8 12 74 122 138 157 169 176 160 149 145 132 122 146 136 111 112 127 120 111 110 118 127 122 114 110 103 98 97 93 96 95 93 96 107 111 108 108 117 109 107 108 104 94 88 88 90 92 100 111 124 127 127 110 99 97 105 118 124 114 114 144 140 134 126 145 168 184 174 157 136 64 3 0 0 0 0 0 0 0 0 0 0 0 0 0 0 0 0 0 0 0 0 0 0 0 0 0 0 0 0 0 0 0 0 0 0 0 0 0 0 0 0 
0 0 0 0 0 0 0 0 0 0 0 0 0 0 6 8 38 110 131 146 166 170 158 152 149 132 122 135 144 114 110 128 123 111 108 110 118 118 112 107 100 92 87 86 91 95 97 95 96 107 122 118 113 118 106 108 110 109 104 92 84 81 83 89 100 111 117 123 125 107 98 104 109 119 121 114 134 145 134 125 134 155 169 180 161 144 102 16 0 0 0 0 0 0 0 0 0 0 0 0 0 0 0 0 0 0 0 0 0 0 0 0 0 0 0 0 0 0 0 0 0 0 0 0 0 0 0 0 
0 0 0 0 0 0 0 0 0 0 0 0 0 0 8 14 80 117 137 154 170 157 149 148 139 115 122 147 124 112 128 121 109 106 105 112 113 105 103 100 92 85 86 89 94 98 98 95 97 99 108 112 107 102 92 87 91 105 106 103 98 90 85 81 93 103 109 115 124 124 101 98 105 115 125 120 124 139 130 125 129 147 161 175 164 150 125 37 1 0 0 0 0 0 0 0 0 0 0 0 0 0 0 0 0 0 0 0 0 0 0 0 0 0 0 0 0 0 0 0 0 0 0 0 0 0 0 0 
0 0 0 0 0 0 0 0 0 0 0 0 0 4 7 35 106 125 147 162 166 145 151 146 123 115 129 141 111 121 131 112 105 107 109 113 105 97 100 98 91 87 93 100 103 105 104 98 92 90 90 93 101 92 82 74 74 86 88 102 105 103 99 91 88 97 98 109 121 130 117 96 99 110 123 128 119 135 123 125 122 142 154 174 170 154 133 58 2 0 0 0 0 0 0 0 0 0 0 0 0 0 0 0 0 0 0 0 0 0 0 0 0 0 0 0 0 0 0 0 0 0 0 0 0 0 0 0 
0 0 0 0 0 0 0 0 0 0 0 0 0 4 9 68 116 133 151 165 145 141 151 131 114 120 131 127 112 131 121 106 105 113 113 110 105 98 100 99 98 101 104 106 104 100 94 94 95 94 94 94 96 89 78 78 79 81 81 87 91 101 104 103 96 92 93 99 112 125 130 111 95 98 116 132 121 129 119 124 117 137 146 167 174 156 139 78 5 0 0 0 0 0 0 0 0 0 0 0 0 0 0 0 0 0 0 0 0 1 0 0 0 0 0 0 0 0 0 0 0 0 0 0 0 0 0 0 
0 0 0 0 0 0 0 0 0 0 0 0 0 5 15 92 118 142 153 158 128 141 142 118 115 125 121 122 116 127 112 105 115 121 112 107 102 97 101 108 114 113 106 98 99 94 93 96 97 93 91 91 89 86 81 79 82 82 83 87 88 90 98 105 104 99 99 96 100 114 131 131 109 90 106 130 126 129 119 118 116 132 145 165 175 155 141 95 10 0 0 0 0 0 0 0 0 0 0 0 0 0 0 0 0 0 0 0 0 1 0 0 0 0 0 0 0 0 0 0 0 0 0 0 0 0 0 0 
0 0 0 0 0 0 0 0 0 0 0 0 1 6 30 105 121 146 152 142 121 145 130 113 117 112 117 122 115 117 106 114 129 119 101 100 100 99 108 116 117 110 100 92 89 90 94 98 102 98 97 96 100 97 95 95 102 99 90 90 91 94 95 100 107 108 112 105 91 97 118 137 131 98 94 121 122 125 116 110 118 133 146 162 173 162 144 110 16 0 0 0 0 0 0 0 0 0 0 0 0 0 0 0 0 0 0 0 0 1 0 0 0 0 0 0 0 0 0 0 0 0 0 0 0 0 0 0 
0 0 0 0 0 0 0 0 0 0 0 0 2 6 47 113 131 150 147 132 122 145 122 116 113 102 120 116 111 112 110 131 127 103 90 100 107 107 108 108 102 99 102 97 89 93 101 106 109 113 113 112 111 110 108 107 108 109 107 105 105 101 100 103 118 127 115 109 91 90 103 123 140 123 92 112 116 122 111 107 113 132 143 156 173 167 147 121 25 1 0 0 0 0 0 0 0 0 0 0 0 0 0 0 0 0 0 0 0 1 0 0 0 0 0 0 0 0 0 0 0 0 0 0 0 0 0 0 
0 0 0 0 0 0 0 0 0 0 0 0 3 6 60 115 138 151 143 126 128 138 121 119 105 100 120 114 111 109 123 134 113 94 94 105 119 113 105 97 92 96 100 100 94 95 102 109 110 111 115 112 106 90 88 86 88 98 108 117 125 115 112 114 113 110 108 102 102 91 96 111 130 138 108 103 112 119 106 110 114 132 141 157 171 171 152 130 36 2 0 0 0 0 0 0 0 0 0 0 0 0 0 0 0 0 0 0 0 1 0 0 0 0 0 0 0 0 0 0 0 0 0 0 0 0 0 0 
0 0 0 0 0 0 0 0 0 0 0 0 3 7 70 118 147 151 144 126 132 130 121 120 108 103 120 111 104 109 129 125 102 90 98 116 127 117 106 98 93 97 99 100 98 98 104 109 106 100 101 101 92 73 71 75 75 81 96 119 126 108 98 90 94 110 112 107 117 111 103 106 119 134 123 103 111 120 99 101 112 135 141 158 170 173 159 139 48 2 0 0 0 0 0 0 0 0 0 0 0 0 0 0 0 0 0 0 0 0 0 0 0 0 0 0 0 0 0 0 0 0 0 0 0 0 0 0 
0 0 0 0 0 0 0 0 0 0 0 0 4 9 78 123 149 150 141 127 136 127 125 124 110 101 113 111 102 111 127 111 91 94 115 125 126 116 111 112 107 103 95 89 98 114 117 111 101 90 86 90 89 70 69 70 71 72 88 114 124 106 91 87 96 114 116 117 111 106 108 116 118 119 118 123 116 121 98 101 114 138 139 154 175 176 165 146 62 3 0 0 0 0 0 0 0 0 0 0 0 0 0 0 0 0 0 0 0 0 0 0 0 0 0 0 0 0 0 0 0 0 0 0 0 0 0 0 
0 0 0 0 0 0 0 0 0 0 0 0 3 11 83 128 150 154 145 137 137 129 129 128 114 101 109 116 99 108 119 101 93 111 127 124 108 88 79 85 92 96 97 87 89 102 123 117 101 86 82 81 88 72 69 77 78 72 90 117 116 96 88 94 98 107 111 107 98 94 104 117 128 127 108 120 141 124 100 103 122 140 136 153 173 177 166 149 77 5 0 0 0 0 0 0 0 0 0 0 0 0 0 0 0 0 0 0 0 0 0 0 0 0 0 0 0 0 0 0 0 0 0 0 0 0 0 0 
0 0 0 0 0 0 0 0 0 0 0 0 4 12 87 131 148 154 144 140 140 135 132 130 114 104 105 115 99 111 111 100 112 122 121 116 98 83 81 88 89 84 78 82 89 100 110 118 107 95 89 78 85 75 76 90 86 79 99 114 101 95 88 87 94 102 107 102 90 82 84 99 117 122 123 122 146 138 108 113 128 139 134 151 166 174 168 149 89 8 0 0 0 0 0 0 0 0 0 0 0 0 0 0 0 0 0 0 0 0 0 0 0 0 0 0 0 0 0 0 0 0 0 0 0 0 0 0 
0 0 0 0 0 0 0 0 0 0 0 0 5 14 90 138 152 153 145 140 137 135 133 134 125 111 109 117 104 114 106 110 123 119 114 101 90 83 83 84 83 84 82 78 78 82 87 98 104 100 89 87 82 82 86 84 82 87 100 96 92 82 80 77 82 96 103 102 93 83 79 85 100 120 128 132 135 146 131 123 128 134 128 142 156 172 169 152 99 11 0 0 0 0 0 0 0 0 0 0 0 0 0 0 0 0 0 0 0 0 0 0 0 0 0 0 0 0 0 0 0 0 0 0 0 0 0 0 
0 0 0 0 0 0 0 0 0 0 0 0 6 14 91 141 153 159 143 140 133 133 129 132 133 114 119 121 113 113 115 122 111 105 100 91 80 76 84 93 87 77 73 75 80 80 77 88 93 98 89 85 84 88 98 86 87 98 93 90 84 73 74 78 92 108 119 122 112 103 97 101 112 125 128 130 137 145 149 130 124 128 123 136 144 169 170 154 111 17 0 0 0 0 0 0 0 0 0 0 0 0 0 0 0 0 0 0 0 0 0 0 0 0 0 0 0 0 0 0 0 0 0 0 0 0 0 0 
0 0 0 0 0 0 0 0 0 0 0 0 7 16 92 142 156 158 136 137 131 133 125 126 136 113 119 124 132 120 120 113 96 97 98 90 82 89 98 98 94 90 79 70 70 76 79 80 87 102 102 100 95 86 102 98 102 103 86 90 75 69 71 79 90 97 111 117 111 104 99 97 112 132 130 126 134 144 154 136 124 124 119 128 135 163 168 156 121 24 0 0 0 0 0 0 0 0 0 0 0 0 0 0 0 0 0 0 0 0 0 0 0 0 0 0 0 0 0 0 0 0 0 0 0 0 0 0 
0 0 0 0 0 0 0 0 0 0 0 0 8 17 96 144 156 156 130 131 132 128 125 122 128 115 120 122 135 127 126 105 101 103 106 100 95 95 92 92 87 86 88 79 70 72 83 89 88 105 110 106 106 99 111 98 99 101 89 87 70 68 71 74 82 94 106 110 107 105 105 103 118 124 121 112 126 146 150 135 120 121 116 120 125 155 165 157 126 33 1 0 0 0 0 0 0 0 0 0 0 0 0 0 0 0 0 0 0 0 0 0 0 0 0 0 0 0 0 0 0 0 0 0 0 0 0 0 
0 0 0 0 0 0 0 0 0 0 0 0 9 17 98 143 159 159 124 127 131 124 119 117 118 109 122 131 130 120 121 117 122 120 118 109 99 93 85 79 76 76 78 80 78 73 82 97 94 109 113 111 120 111 111 100 96 104 86 79 73 69 73 80 84 93 103 106 100 100 106 113 118 116 116 108 116 144 143 130 115 115 107 113 117 145 166 158 130 42 2 0 0 0 0 0 0 0 0 0 0 0 0 0 0 0 0 0 0 0 0 0 0 0 0 0 0 0 0 0 0 0 0 0 0 0 0 0 
0 0 0 0 0 0 0 0 0 0 0 0 8 16 100 145 160 158 120 129 126 119 114 109 113 106 115 131 122 114 113 110 113 109 112 107 100 96 86 78 79 76 73 74 81 85 86 96 101 111 115 109 105 106 95 103 97 101 80 81 69 74 79 77 81 93 103 106 99 95 96 102 114 113 111 103 115 143 147 125 108 110 97 113 112 134 158 158 132 50 2 0 0 0 0 0 0 0 0 0 0 0 0 0 0 0 0 0 0 0 0 0 0 0 0 0 0 0 0 0 0 0 0 0 0 0 0 0 
0 0 0 0 0 0 0 0 0 0 0 0 8 15 101 146 161 154 117 125 119 112 104 103 108 101 111 142 130 117 114 102 101 104 106 97 85 83 82 82 81 80 78 77 80 86 99 103 106 116 120 112 107 108 105 108 105 109 97 77 75 76 75 69 73 90 104 105 98 94 96 102 112 116 104 100 113 140 139 122 112 109 94 106 109 121 147 155 133 55 2 0 0 0 0 0 0 0 0 0 0 0 0 0 0 0 0 0 0 0 0 0 0 0 0 0 0 0 0 0 0 0 0 0 0 0 0 0 
0 0 0 0 0 0 0 0 0 0 0 0 8 17 98 144 160 151 106 111 118 108 93 99 97 97 109 136 131 118 113 101 99 101 100 92 84 77 81 78 74 75 74 79 85 86 97 100 96 120 128 138 121 105 99 82 104 99 87 78 79 82 90 73 72 86 97 99 96 92 94 101 111 116 99 97 112 137 136 126 120 106 94 106 111 114 127 147 136 60 2 0 0 0 0 0 0 0 0 0 0 0 0 0 0 0 0 0 0 0 0 0 0 0 0 0 0 0 0 0 0 0 0 0 0 0 0 0 
0 0 0 0 0 0 0 0 0 0 0 0 8 17 96 145 161 146 106 104 115 101 89 101 97 99 102 128 131 117 115 106 101 99 99 91 80 77 83 80 73 70 74 82 82 91 102 100 95 108 125 135 115 100 90 73 88 100 78 87 84 81 78 73 77 87 95 97 93 93 96 102 111 109 93 96 121 143 142 130 122 107 96 100 115 111 126 148 138 62 3 0 0 0 0 0 0 0 0 0 0 0 0 0 0 0 0 0 0 0 0 0 0 0 0 0 0 0 0 0 0 0 0 0 0 0 0 0 
0 0 0 0 0 0 0 0 0 0 0 0 7 18 91 143 159 139 108 99 115 103 88 98 99 103 97 122 132 114 113 106 101 99 99 92 83 80 82 80 76 73 78 90 90 99 103 96 93 109 138 135 101 90 87 78 88 110 68 78 78 77 73 74 79 88 97 96 94 95 96 101 114 103 88 97 135 153 143 124 120 106 99 95 117 108 127 149 133 60 3 0 0 0 0 0 0 0 0 0 0 0 0 0 0 0 0 0 0 0 0 0 0 0 0 0 0 0 0 0 0 0 0 0 0 0 0 0 
0 0 0 0 0 0 0 0 0 0 0 0 6 17 82 143 159 135 107 98 115 101 89 95 99 109 100 114 127 109 112 107 100 104 100 93 87 86 78 78 78 76 72 75 78 89 95 95 104 109 119 101 96 90 91 76 76 108 85 81 73 71 70 77 81 89 97 98 96 97 100 104 113 95 83 101 149 150 140 126 118 106 99 95 115 106 127 148 127 54 2 0 0 0 0 0 0 0 0 0 0 0 0 0 0 0 0 0 0 0 0 0 0 0 0 0 0 0 0 0 0 0 0 0 0 0 0 0 
0 0 0 0 0 0 0 0 0 0 0 0 4 15 76 139 158 136 107 98 111 103 90 91 98 107 100 113 125 108 106 109 100 109 102 95 89 90 85 82 79 76 73 73 77 89 96 91 98 110 107 94 94 94 96 82 71 87 98 80 74 68 73 80 81 91 98 100 95 97 100 103 103 85 81 103 148 141 137 131 116 104 98 101 109 105 127 142 120 48 2 0 0 0 0 0 0 0 0 0 0 0 0 0 0 0 0 0 0 0 0 0 0 0 0 0 0 0 0 0 0 0 0 0 0 0 0 0 
0 0 0 0 0 0 0 0 0 0 0 0 2 14 70 135 153 139 108 99 106 104 91 93 98 105 98 111 120 108 111 112 98 108 104 96 91 90 90 82 78 74 72 74 78 87 94 87 96 111 99 88 89 95 101 83 73 67 107 77 81 78 78 80 82 91 98 96 94 99 99 100 95 80 82 107 137 131 129 136 112 105 98 108 100 105 132 135 111 43 2 0 0 0 0 0 0 0 0 0 0 0 0 0 0 0 0 0 0 0 0 0 0 0 0 0 0 0 0 0 0 0 0 0 0 0 0 0 
0 0 0 0 0 0 0 0 0 3 3 0 0 11 63 126 147 140 112 98 97 105 94 91 94 102 94 109 115 112 110 111 95 104 113 98 87 84 88 83 78 76 73 77 89 97 95 88 97 99 94 82 85 96 100 87 75 66 89 88 91 104 98 82 79 89 101 98 97 100 95 97 90 80 83 111 130 115 119 138 111 107 98 106 96 107 137 128 101 37 1 0 0 0 0 0 0 0 0 0 0 0 0 0 0 0 0 0 0 0 0 0 0 0 0 0 0 0 0 0 0 0 0 0 0 0 0 0 
0 0 0 0 0 0 0 0 0 7 13 3 1 8 51 118 142 135 115 101 92 105 100 94 88 99 101 112 113 123 121 110 99 98 112 97 81 81 85 83 86 94 91 89 94 96 86 89 102 89 84 80 76 84 91 83 77 75 77 104 103 116 104 85 85 93 95 97 92 92 95 94 90 81 83 122 116 112 125 133 119 108 96 99 95 108 139 123 94 34 1 0 0 0 0 0 0 0 0 0 0 0 0 0 0 0 0 0 0 0 0 0 0 0 0 0 0 0 0 0 0 0 0 0 0 0 0 0 
0 0 0 0 0 0 0 0 0 4 3 8 4 6 39 109 138 130 116 98 90 95 106 103 90 96 104 119 113 125 120 110 101 98 110 102 81 78 82 83 86 85 88 91 101 108 97 96 99 82 69 70 68 83 78 72 75 75 82 109 92 95 84 92 111 123 112 96 95 85 88 99 104 98 101 126 124 132 127 119 138 119 99 93 96 118 133 120 87 27 0 0 0 0 0 0 0 0 0 0 0 0 0 0 0 0 0 0 0 0 0 0 0 0 0 0 0 0 0 0 0 0 0 0 0 0 0 0 
0 0 0 0 0 0 0 0 0 1 0 7 5 5 30 96 134 130 118 100 97 93 104 106 95 92 105 121 115 119 111 106 110 103 103 104 86 82 82 92 92 91 93 88 77 95 95 99 94 70 65 67 63 88 71 69 72 76 84 98 104 92 91 92 105 124 144 140 134 125 127 133 131 123 123 133 123 130 126 120 140 116 100 91 104 125 127 114 80 17 0 0 0 4 2 0 0 0 0 0 0 0 0 0 0 0 0 0 0 0 0 0 0 0 0 0 0 0 0 0 0 0 0 0 0 0 0 0 
0 0 0 0 0 0 0 0 0 0 0 8 5 6 24 84 130 136 120 109 105 93 95 106 101 96 106 115 115 116 109 105 125 142 141 134 121 113 112 106 101 101 75 67 74 79 85 92 85 63 63 70 69 86 71 61 68 71 88 109 110 102 101 102 118 139 161 155 155 158 156 156 144 121 124 132 129 132 121 126 141 116 114 105 109 131 117 112 71 11 4 1 6 8 3 0 0 0 0 0 0 0 0 0 0 0 0 0 0 0 0 0 0 0 0 0 0 0 0 0 0 0 0 0 0 0 0 0 
0 0 0 0 0 0 0 0 0 0 0 7 4 6 19 73 125 143 130 113 98 95 90 103 110 106 111 117 112 118 114 114 129 144 145 140 132 112 100 94 96 78 70 69 75 67 72 91 80 70 70 78 69 86 71 62 69 76 83 113 124 108 97 103 127 144 160 154 148 149 160 145 122 120 129 115 128 141 130 131 142 123 120 123 143 138 118 116 60 9 2 2 2 0 0 0 0 0 0 0 0 0 0 0 0 0 0 0 0 0 0 0 0 0 0 0 0 0 0 0 0 0 0 0 0 0 0 0 
0 0 0 0 0 0 0 0 0 0 1 6 5 8 14 61 119 140 143 121 98 95 102 109 119 110 114 127 110 107 118 125 138 143 144 143 141 128 130 125 114 92 80 79 73 69 67 84 92 81 79 81 73 85 77 73 85 89 96 111 112 110 108 113 122 137 145 134 134 145 154 128 120 136 136 127 137 145 156 147 151 140 134 148 159 138 123 111 45 6 2 4 1 0 0 0 0 0 0 0 0 0 0 0 0 0 0 0 0 0 0 0 0 0 0 0 0 0 0 0 0 0 0 0 0 0 0 0 
0 0 0 0 0 0 0 0 0 0 0 6 7 9 11 49 112 132 143 135 107 100 125 125 120 123 127 136 134 104 118 150 161 166 163 143 140 137 130 121 109 99 91 73 66 66 70 95 91 87 100 104 79 96 93 89 82 95 102 106 109 108 110 118 123 139 152 147 140 154 159 140 140 141 129 119 122 138 168 158 163 171 164 166 167 122 116 103 29 5 3 4 1 0 0 0 0 0 0 0 0 0 0 0 0 0 0 0 0 0 0 0 0 0 0 0 0 0 0 0 0 0 0 0 0 0 0 0 
0 0 0 0 0 0 0 0 0 0 0 7 10 10 11 35 106 128 140 141 125 134 140 139 128 134 141 133 142 114 105 141 161 145 136 135 141 141 137 131 124 110 104 85 72 75 86 105 96 90 106 114 102 119 101 79 77 87 92 91 107 114 107 111 117 117 133 151 148 146 134 132 130 129 127 131 109 115 143 149 165 170 176 179 160 120 122 84 15 4 2 3 2 0 0 0 0 0 0 0 0 0 0 0 0 0 0 0 0 0 0 0 0 0 0 0 0 0 0 0 0 0 0 0 0 0 0 0 
0 0 0 0 0 0 0 0 0 0 0 3 16 7 6 14 61 121 138 141 143 158 171 154 152 150 151 133 140 140 126 132 140 139 148 147 140 142 136 123 122 119 113 104 92 84 88 101 96 96 109 113 108 122 128 93 77 80 89 96 95 106 106 111 119 108 112 129 143 130 101 112 125 127 124 125 117 131 141 134 143 158 155 148 137 122 119 96 18 5 5 7 3 0 0 0 0 0 0 0 0 0 0 0 0 0 0 0 0 0 0 0 0 0 0 0 0 0 0 0 0 0 0 0 0 0 0 0 
0 0 0 0 0 0 0 0 0 0 0 4 14 2 4 9 36 110 136 138 144 168 165 165 157 148 155 154 149 131 132 142 135 140 151 155 154 147 130 114 117 118 120 111 100 96 99 104 107 106 98 104 111 125 122 100 80 77 74 93 103 103 106 125 126 115 121 139 136 114 108 107 110 120 125 116 120 140 145 141 154 167 142 130 112 113 122 64 7 2 4 9 3 0 0 0 0 0 0 0 0 0 0 0 0 0 0 0 0 0 0 0 0 0 0 0 0 0 0 0 0 0 0 0 0 0 0 0 
0 0 0 0 0 0 0 0 0 0 0 4 8 2 2 7 21 90 133 145 143 144 164 160 164 160 156 155 141 137 133 131 122 131 140 148 149 137 119 110 113 118 124 125 103 94 108 103 108 99 90 87 80 100 116 116 90 74 79 102 100 109 101 119 109 107 122 130 136 127 108 99 111 126 129 122 130 131 137 142 154 153 136 116 126 119 113 32 6 3 4 6 3 0 0 0 0 0 0 0 0 0 0 0 0 0 0 0 0 0 0 0 0 0 0 0 0 0 0 0 0 0 0 0 0 0 0 0 
0 0 0 0 0 0 0 0 0 0 0 4 5 2 2 2 13 57 123 142 137 127 130 137 136 145 147 140 137 144 123 121 120 116 113 130 147 136 118 115 109 113 105 102 104 101 113 97 103 110 111 98 82 93 117 126 103 88 102 102 103 116 105 126 116 90 85 92 114 121 116 104 114 133 147 158 150 127 125 155 139 139 132 99 98 109 75 15 10 7 10 4 1 1 0 0 0 0 0 0 0 0 0 0 0 0 0 0 0 0 0 0 0 0 0 0 0 0 0 0 0 0 0 0 0 0 0 0 
0 0 0 0 0 0 0 0 0 0 0 2 7 1 1 3 13 30 105 120 129 121 129 126 136 128 131 127 136 145 141 118 118 126 140 125 125 132 117 100 96 91 99 102 105 106 116 106 104 113 109 114 107 109 136 126 99 88 100 106 101 113 129 132 121 79 67 75 99 104 102 116 127 127 154 166 164 137 129 146 134 148 119 83 85 116 39 9 6 9 11 2 0 1 0 0 0 0 0 0 0 0 0 0 0 0 0 0 0 0 0 0 0 0 0 0 0 0 0 0 0 0 0 0 0 0 0 0 
0 0 0 0 0 0 0 0 0 0 0 0 6 4 1 6 14 15 75 103 115 117 122 126 129 129 126 136 135 141 152 132 105 120 148 155 133 122 113 98 89 101 104 110 116 109 119 132 112 109 126 131 121 121 144 133 115 101 111 115 109 129 131 131 117 84 73 83 93 99 116 123 113 116 151 161 159 156 170 147 144 132 104 66 82 84 22 12 7 8 9 2 0 2 0 0 0 0 0 0 0 0 0 0 0 0 0 0 0 0 0 0 0 0 0 0 0 0 0 0 0 0 0 0 0 0 0 0 
0 0 0 0 0 0 0 0 0 0 0 0 2 4 3 6 13 12 40 113 116 112 118 135 130 127 143 147 141 134 141 128 118 114 110 131 122 107 91 81 85 106 112 118 125 122 129 144 140 135 136 141 152 156 148 136 132 135 128 133 120 131 130 124 124 105 93 87 95 124 110 97 110 113 138 162 173 175 171 154 119 97 85 70 91 53 16 15 7 6 6 2 1 1 0 0 0 0 0 0 0 0 0 0 0 0 0 0 0 0 0 0 0 0 0 0 0 0 0 0 0 0 0 0 0 0 0 0 
0 0 0 0 0 0 0 0 0 0 0 0 4 4 3 6 11 13 20 98 105 96 115 121 138 146 165 147 138 133 132 124 124 125 103 108 113 99 85 89 89 97 108 112 122 133 138 142 134 138 136 144 161 172 168 165 164 160 140 143 140 148 155 140 123 120 118 101 120 121 91 104 116 112 119 162 171 172 157 160 116 87 68 49 88 30 14 15 7 4 6 3 3 1 0 0 0 0 0 0 0 0 0 0 0 0 0 0 0 0 0 0 0 0 0 0 0 0 0 0 0 0 0 0 0 0 0 0 
0 0 0 0 0 0 0 0 0 0 0 1 6 3 3 7 11 12 11 65 108 108 109 115 139 163 162 146 139 129 131 132 122 130 120 107 97 98 103 109 134 119 123 119 114 130 151 139 135 127 130 143 143 129 134 146 139 136 126 136 141 152 168 163 142 130 131 125 140 109 95 103 106 100 110 134 154 172 151 139 122 102 89 79 77 20 10 10 6 5 5 2 1 0 0 0 0 0 0 0 0 0 0 0 0 0 0 0 0 0 0 0 0 0 0 0 0 0 0 0 0 0 0 0 0 0 0 0 
0 0 0 0 0 0 0 0 0 0 2 3 8 6 3 5 11 6 11 40 91 101 111 125 135 159 173 158 143 137 125 135 139 117 116 127 120 111 118 133 139 150 151 144 140 154 156 164 156 143 145 155 145 142 132 135 135 137 139 163 163 155 170 171 172 160 148 147 131 106 97 92 95 108 120 124 150 166 147 120 103 96 114 92 65 17 9 10 7 5 5 2 0 0 0 0 0 0 0 0 0 0 0 0 0 0 0 0 0 0 0 0 0 0 0 0 0 0 0 0 0 0 0 0 0 0 0 0 
0 0 0 0 0 0 0 0 0 0 0 3 12 11 4 3 10 7 10 32 84 106 118 106 114 144 168 175 155 134 120 128 136 119 105 107 117 126 132 137 136 152 153 149 147 156 157 174 163 153 144 143 144 148 141 137 130 127 125 145 133 140 159 175 175 170 167 166 142 114 92 100 120 122 137 142 157 170 153 136 104 79 113 97 60 17 10 10 7 6 5 3 0 0 0 0 0 0 0 0 0 0 0 0 0 0 0 0 0 0 0 0 0 0 0 0 0 0 0 0 0 0 0 0 0 0 0 0 
0 0 0 0 0 0 0 0 0 0 0 3 11 12 7 6 8 11 13 24 71 98 119 105 103 118 157 161 165 127 110 118 125 113 109 106 107 115 119 120 134 148 148 142 142 146 155 168 163 168 147 141 149 145 151 135 120 112 114 123 108 134 157 157 164 174 168 154 133 108 92 92 98 109 160 167 163 177 158 124 109 95 100 86 38 17 6 7 6 5 4 5 1 1 1 0 0 0 0 0 0 0 0 0 0 0 0 0 0 0 0 0 0 0 0 0 0 0 0 0 0 0 0 0 0 0 0 0 
0 0 0 0 0 0 0 0 0 0 0 3 11 11 10 10 11 15 16 15 39 87 112 117 123 127 142 159 152 126 141 133 125 95 86 102 107 108 112 121 138 159 159 151 145 141 143 152 156 156 149 153 151 149 132 119 127 130 131 126 122 154 155 161 156 169 155 141 122 93 81 89 108 132 161 150 158 168 155 117 91 88 71 60 22 14 11 6 5 1 6 11 6 4 3 0 0 0 0 0 0 0 0 0 0 0 0 0 0 0 0 0 0 0 0 0 0 0 0 0 0 0 0 0 0 0 0 0 
0 0 0 0 0 0 0 0 0 0 0 2 10 11 10 9 8 10 13 15 17 49 97 104 111 128 140 147 148 148 153 151 141 110 91 85 93 101 99 109 135 160 154 156 145 139 138 132 131 134 153 148 141 157 148 123 122 126 121 121 138 155 138 138 151 167 158 160 145 81 105 109 120 136 143 125 111 130 112 86 62 80 89 40 11 9 11 10 10 6 3 5 9 4 1 0 0 0 0 0 0 0 0 0 0 0 0 0 0 0 0 0 0 0 0 0 0 0 0 0 0 0 0 0 0 0 0 0 
0 0 0 0 0 0 0 0 0 0 0 0 10 10 7 5 5 7 9 17 20 26 74 101 85 92 128 141 141 156 158 150 144 120 114 99 90 95 99 117 138 156 162 164 158 157 154 150 151 160 168 168 170 176 182 178 166 157 143 142 145 151 162 162 153 173 174 175 147 151 120 136 132 139 121 88 80 97 82 79 86 90 53 25 10 3 4 6 6 8 6 6 8 5 0 0 0 0 0 0 0 0 0 0 0 0 0 0 0 0 0 0 0 0 0 0 0 0 0 0 0 0 0 0 0 0 0 0 
0 0 0 0 0 0 0 0 0 0 0 0 2 7 7 4 3 1 3 13 20 19 35 85 95 85 91 93 98 138 147 144 155 138 122 112 121 132 148 153 162 181 173 161 180 184 180 187 180 171 178 187 183 176 174 172 163 167 165 168 186 175 181 179 180 192 185 179 159 142 140 118 95 86 87 72 73 61 64 63 75 49 31 32 13 4 2 3 2 4 3 6 6 0 0 0 0 0 0 0 0 0 0 0 0 0 0 0 0 0 0 0 0 0 0 0 0 0 0 0 0 0 0 0 0 0 0 0 
0 0 0 0 0 0 0 0 0 0 0 0 0 3 4 3 1 0 0 10 23 22 16 43 80 68 55 51 60 74 100 95 123 120 118 125 127 127 133 163 177 180 168 166 181 188 166 170 192 195 179 175 148 127 124 143 158 152 150 142 140 184 181 188 184 188 171 151 148 129 122 123 100 89 75 81 96 86 67 48 47 46 48 31 12 1 2 2 1 0 0 3 7 0 0 0 0 0 0 0 0 0 0 0 0 0 0 0 0 0 0 0 0 0 0 0 0 0 0 0 0 0 0 0 0 0 0 0 
0 0 0 0 0 0 0 0 0 0 0 0 0 3 5 3 6 4 3 3 11 16 20 20 32 41 35 42 60 62 55 48 84 95 83 104 85 75 77 78 92 118 120 145 140 131 159 128 133 127 111 103 91 79 89 104 108 115 121 114 113 117 95 119 137 163 124 79 50 50 51 68 61 58 45 55 70 68 40 28 28 24 23 8 2 1 7 6 2 1 1 7 4 0 0 0 0 0 0 0 0 0 0 0 0 0 0 0 0 0 0 0 0 0 0 0 0 0 0 0 0 0 0 0 0 0 0 0 
0 0 0 0 0 0 0 0 0 0 0 0 0 0 1 2 2 3 4 1 5 9 14 15 20 22 22 35 59 64 50 59 65 84 73 78 69 63 70 77 80 96 86 87 89 94 93 81 90 93 72 74 86 90 96 89 71 63 72 80 92 91 71 68 73 90 72 93 92 86 63 54 45 52 53 60 72 65 40 29 27 25 18 6 2 0 2 3 2 1 3 5 1 0 0 0 0 0 0 0 0 0 0 0 0 0 0 0 0 0 0 0 0 0 0 0 0 0 0 0 0 0 0 0 0 0 0 0 
0 0 0 0 0 0 0 0 0 0 0 0 0 0 0 0 0 0 0 0 3 6 10 17 21 29 34 38 70 81 57 69 69 84 82 83 75 99 104 120 129 133 110 92 91 93 105 106 108 91 74 82 90 89 84 78 74 67 85 93 93 95 80 73 101 121 52 53 99 69 76 74 52 60 72 78 90 83 60 40 32 29 19 12 1 0 0 1 1 1 0 0 0 0 0 0 0 0 0 0 0 0 0 0 0 0 0 0 0 0 0 0 0 0 0 0 0 0 0 0 0 0 0 0 0 0 0 0 
0 0 0 0 0 0 0 0 0 0 0 0 0 0 0 0 0 0 0 0 0 1 5 10 17 36 46 53 85 96 67 67 57 67 60 73 85 128 124 136 129 144 139 107 111 141 165 160 142 109 89 87 89 88 76 82 88 100 114 125 129 146 128 129 147 137 78 109 113 92 96 89 74 63 81 88 98 88 72 48 27 18 8 3 0 0 0 0 0 0 0 0 0 0 0 0 0 0 0 0 0 0 0 0 0 0 0 0 0 0 0 0 0 0 0 0 0 0 0 0 0 0 0 0 0 0 0 0 
0 0 0 0 0 0 0 0 0 0 0 0 0 0 0 0 0 0 0 0 0 2 3 3 11 34 40 47 69 80 57 56 62 54 51 65 72 117 106 98 137 149 155 180 167 144 162 183 137 124 130 118 123 132 119 111 126 132 152 161 165 177 142 126 140 132 139 116 158 121 108 102 79 47 32 60 73 48 30 22 12 12 15 5 1 0 0 1 0 0 0 0 0 0 0 0 0 0 0 0 0 0 0 0 0 0 0 0 0 0 0 0 0 0 0 0 0 0 0 0 0 0 0 0 0 0 0 0 
0 0 0 0 0 0 0 0 0 0 0 0 0 0 0 0 0 0 0 0 0 0 1 2 7 22 42 50 65 83 78 81 85 84 67 62 48 77 118 91 133 138 110 109 140 152 169 155 142 144 130 120 124 120 117 101 126 125 131 125 146 150 114 114 92 115 119 137 138 131 97 59 36 24 57 69 70 35 17 17 14 4 3 0 1 3 4 4 3 2 0 0 0 0 0 0 0 0 0 0 0 0 0 0 0 0 0 0 0 0 0 0 0 0 0 0 0 0 0 0 0 0 0 0 0 0 0 0 
0 0 0 0 0 0 0 0 0 0 0 0 0 0 0 0 0 0 0 0 0 0 2 7 9 17 19 24 35 52 74 66 68 63 50 63 47 42 66 90 96 104 111 102 113 109 91 109 123 146 125 81 105 103 113 108 130 131 132 114 112 142 134 101 122 108 110 117 117 110 95 74 48 33 73 95 80 41 23 22 20 11 5 1 0 1 2 3 3 1 0 0 0 0 0 0 0 0 0 0 0 0 0 0 0 0 0 0 0 0 0 0 0 0 0 0 0 0 0 0 0 0 0 0 0 0 0 0 
0 0 0 0 0 0 0 0 0 0 0 0 0 0 0 0 0 0 0 0 0 0 1 6 10 13 19 21 26 40 71 69 80 65 50 63 51 60 87 98 101 104 102 94 94 96 109 114 105 129 111 67 100 106 106 99 108 116 132 129 95 114 115 106 101 115 124 127 140 103 91 69 58 46 78 106 77 42 21 19 20 12 6 0 0 0 2 3 3 2 0 0 0 0 0 0 0 0 0 0 0 0 0 0 0 0 0 0 0 0 0 0 0 0 0 0 0 0 0 0 0 0 0 0 0 0 0 0 
0 0 0 0 0 0 0 0 0 0 0 0 0 0 0 0 0 0 0 0 0 0 1 4 9 11 18 21 23 36 67 68 88 70 58 57 38 44 60 86 94 79 82 86 94 90 120 126 119 114 107 88 107 112 99 91 101 103 130 146 105 107 110 103 107 99 107 116 124 99 70 49 62 64 83 108 77 44 22 19 18 11 5 0 0 0 2 3 3 2 0 0 0 0 0 0 0 0 0 0 0 0 0 0 0 0 0 0 0 0 0 0 0 0 0 0 0 0 0 0 0 0 0 0 0 0 0 0 
0 0 0 0 0 0 0 0 0 0 0 0 0 0 0 0 0 0 0 0 0 0 0 2 8 9 15 19 22 32 64 63 82 79 63 50 33 43 67 89 77 66 83 85 110 94 112 121 130 126 111 104 106 106 93 82 85 95 110 115 103 116 114 94 104 103 92 91 97 112 89 42 44 65 89 111 72 42 25 19 16 11 4 0 0 1 2 3 3 2 0 0 0 0 0 0 0 0 0 0 0 0 0 0 0 0 0 0 0 0 0 0 0 0 0 0 0 0 0 0 0 0 0 0 0 0 0 0 
0 0 0 0 0 0 0 0 0 0 0 0 0 0 0 0 0 0 0 0 0 0 0 0 4 8 11 16 19 26 56 53 81 85 65 47 37 66 85 64 47 68 87 84 120 100 92 108 116 119 98 99 101 101 95 90 82 99 98 95 108 125 97 81 99 115 91 95 86 86 106 70 42 64 85 108 76 51 24 18 15 10 2 0 0 0 2 3 4 3 1 0 0 0 0 0 0 0 0 0 0 0 0 0 0 0 0 0 0 0 0 0 0 0 0 0 0 0 0 0 0 0 0 0 0 0 0 0 
0 0 0 0 0 0 0 0 0 0 0 0 0 0 0 0 0 0 0 0 0 0 0 0 1 6 9 13 19 25 44 41 76 84 68 48 49 87 67 44 50 78 72 87 126 104 83 84 88 107 107 97 99 95 89 92 86 95 93 87 109 124 98 93 95 127 97 86 87 60 72 95 54 69 89 103 75 50 19 16 15 8 2 0 0 0 1 2 3 3 1 0 0 0 0 0 0 0 0 0 0 0 0 0 0 0 0 0 0 0 0 0 0 0 0 0 0 0 0 0 0 0 0 0 0 0 0 0 
0 0 0 0 0 0 0 0 0 0 0 0 0 0 0 0 0 0 0 0 0 0 0 0 1 3 7 13 15 19 37 53 68 76 70 52 65 99 59 38 54 70 64 89 129 101 83 87 86 100 114 97 92 86 87 92 96 93 82 89 117 111 88 88 88 122 103 70 77 57 48 103 83 65 96 83 52 23 19 16 15 7 1 0 0 0 1 3 3 3 1 0 0 0 0 0 0 0 0 0 0 0 0 0 0 0 0 0 0 0 0 0 0 0 0 0 0 0 0 0 0 0 0 0 0 0 0 0 
0 0 0 0 0 0 0 0 0 0 0 0 0 0 0 0 0 0 0 0 0 0 0 0 0 2 5 9 13 17 19 36 36 44 70 70 85 97 53 35 52 67 69 79 107 91 83 89 87 104 130 116 100 100 96 83 74 76 83 102 119 98 78 79 81 104 100 71 70 57 38 94 106 82 90 41 17 16 18 18 15 7 1 0 0 0 1 2 3 3 1 0 0 0 0 0 0 0 0 0 0 0 0 0 0 0 0 0 0 0 0 0 0 0 0 0 0 0 0 0 0 0 0 0 0 0 0 0 
0 0 0 0 0 0 0 0 0 0 0 0 0 0 0 0 0 0 0 0 0 0 0 0 0 0 6 4 11 15 18 20 16 13 37 82 84 87 60 43 55 62 66 73 80 85 81 87 89 112 132 130 109 85 70 64 73 77 91 116 122 96 71 85 84 90 83 75 69 63 46 78 94 89 67 21 14 15 18 19 13 5 0 0 0 0 1 3 3 3 1 0 0 0 0 0 0 0 0 0 0 0 0 0 0 0 0 0 0 0 0 0 0 0 0 0 0 0 0 0 0 0 0 0 0 0 0 0 
0 0 0 0 0 0 0 0 0 0 0 0 0 0 0 0 0 0 0 0 0 0 0 0 0 0 2 6 9 13 17 18 18 15 13 34 55 76 79 59 55 61 69 73 81 90 83 80 90 120 128 130 124 104 83 78 79 83 98 107 109 94 90 89 87 88 85 87 69 68 68 90 82 60 31 19 14 16 19 18 12 5 1 0 0 0 0 2 3 3 2 0 0 0 0 0 0 0 0 0 0 0 0 0 0 0 0 0 0 0 0 0 0 0 0 0 0 0 0 0 0 0 0 0 0 0 0 0 
0 0 0 0 0 0 0 0 0 0 0 0 0 0 0 0 0 0 0 0 0 0 0 0 0 0 0 2 9 8 16 17 19 18 14 12 32 68 97 70 53 68 85 79 79 99 87 72 74 100 117 132 133 114 97 90 95 104 119 122 115 109 92 86 98 101 85 98 87 72 75 104 73 34 23 19 13 16 19 16 11 6 1 0 0 0 0 1 3 3 2 0 0 0 0 0 0 0 0 0 0 0 0 0 0 0 0 0 0 0 0 0 0 0 0 0 0 0 0 0 0 0 0 0 0 0 0 0 
0 0 0 0 0 0 0 0 0 0 0 0 0 0 0 0 0 0 0 0 0 0 0 0 0 0 0 1 7 7 12 17 18 19 16 12 20 28 66 73 65 94 99 72 94 119 96 67 70 102 122 123 118 105 93 95 98 96 107 120 129 119 88 87 101 118 98 98 103 84 78 78 35 23 22 17 14 18 17 15 10 6 1 0 0 0 0 1 3 3 2 0 0 0 0 0 0 0 0 0 0 0 0 0 0 0 0 0 0 0 0 0 0 0 0 0 0 0 0 0 0 0 0 0 0 0 0 0 
0 0 0 0 0 0 0 0 0 0 0 0 0 0 0 0 0 0 0 0 0 0 0 0 0 0 0 0 5 8 10 15 15 18 20 12 16 22 29 64 77 93 94 78 101 132 103 71 89 122 127 114 101 95 88 90 88 87 102 109 124 129 114 89 105 127 107 90 103 86 69 39 27 23 19 16 13 17 15 12 9 6 1 0 0 0 0 2 3 3 2 0 0 0 0 0 0 0 0 0 0 0 0 0 0 0 0 0 0 0 0 0 0 0 0 0 0 0 0 0 0 0 0 0 0 0 0 0 
0 0 0 0 0 0 0 0 0 0 0 0 0 0 0 0 0 0 0 0 0 0 0 0 0 0 0 0 0 9 8 13 15 18 20 15 12 22 23 27 37 54 70 75 102 135 115 94 105 121 127 106 90 79 72 76 78 84 99 97 103 120 118 102 108 123 104 81 69 46 30 31 28 21 19 17 11 16 12 10 8 6 1 0 0 0 0 2 3 3 2 0 0 0 0 0 0 0 0 0 0 0 0 0 0 0 0 0 0 0 0 0 0 0 0 0 0 0 0 0 0 0 0 0 0 0 0 0 
0 0 0 0 0 0 0 0 0 0 0 0 0 0 0 0 0 0 0 0 0 0 0 0 0 0 0 0 0 7 7 11 13 18 20 15 13 20 24 27 31 32 37 59 82 106 103 88 95 111 113 98 83 73 71 74 76 83 92 86 91 115 115 102 110 108 81 59 42 36 28 30 27 20 19 19 11 14 12 10 8 5 1 0 0 0 0 2 3 3 2 0 0 0 0 0 0 0 0 0 0 0 0 0 0 0 0 0 0 0 0 0 0 0 0 0 0 0 0 0 0 0 0 0 0 0 0 0 
0 0 0 0 0 0 0 0 0 0 0 0 0 0 0 0 0 0 0 0 0 0 0 0 0 0 0 0 0 5 7 9 12 15 21 15 12 20 25 26 31 31 30 41 54 64 82 95 88 87 98 93 83 77 76 78 81 82 91 97 103 100 96 95 100 68 56 46 39 33 29 28 25 21 20 15 13 14 12 11 8 4 1 0 0 0 0 1 2 3 2 1 0 0 0 0 0 0 0 0 0 0 0 0 0 0 0 0 0 0 0 0 0 0 0 0 0 0 0 0 0 0 0 0 0 0 0 0 
