P2
128 99
218
0 0 0 0 0 0 0 0 0 0 0 0 0 0 0 0 0 0 0 0 0 0 0 0 0 0 0 0 0 0 0 0 0 0 0 0 0 0 0 0 0 0 0 0 0 0 0 0 0 0 0 0 0 0 0 0 0 0 0 0 0 0 0 0 0 0 0 0 0 0 0 0 0 0 0 0 1 2 1 1 0 0 0 0 0 0 0 0 0 0 0 0 0 0 0 0 0 0 0 0 0 0 0 0 0 0 0 0 0 0 0 0 0 0 0 0 0 0 0 0 0 0 0 0 0 0 0 0 
0 0 0 0 0 0 0 0 0 0 0 0 0 0 0 0 0 0 0 0 0 0 0 0 0 0 0 0 0 0 0 0 0 0 0 0 0 0 0 0 0 0 0 0 0 0 0 0 0 0 0 0 0 0 0 0 0 0 0 0 0 0 0 0 0 1 0 0 0 0 0 0 0 0 0 0 1 2 2 1 0 0 0 0 0 0 0 0 0 0 0 0 0 0 0 0 0 0 0 0 0 0 0 0 0 0 0 0 0 0 0 0 0 0 0 0 0 0 0 0 0 0 0 0 0 0 0 0 
0 0 0 0 0 0 0 0 0 0 0 0 0 0 0 0 0 0 0 0 0 0 0 0 0 0 0 0 0 0 0 0 0 0 0 0 0 0 0 0 0 0 0 0 0 0 0 0 0 0 0 1 1 1 2 0 0 0 0 0 0 0 0 0 0 0 0 0 0 0 0 0 0 0 0 0 0 1 2 2 0 0 0 0 0 0 0 0 0 0 0 0 0 0 0 0 0 0 0 0 0 0 0 0 0 0 0 0 0 0 0 0 0 0 0 0 0 0 0 0 0 0 0 0 0 0 0 0 
0 0 0 0 0 0 0 0 0 0 0 0 0 0 0 0 0 0 0 0 0 0 0 0 0 0 0 0 0 0 0 0 0 0 0 0 0 0 0 0 0 0 0 2 9 12 18 18 16 16 21 25 31 30 25 21 19 17 14 14 3 0 0 0 0 0 0 0 0 0 0 0 0 0 0 0 0 2 3 1 0 0 0 0 0 0 0 0 0 0 0 0 0 0 0 0 0 0 0 0 0 0 0 0 0 0 0 0 0 0 0 0 0 0 0 0 0 0 0 0 0 0 0 0 0 0 0 0 
0 0 0 0 0 0 0 0 0 0 0 0 0 0 0 0 0 0 0 0 0 0 0 0 0 0 0 0 0 0 0 0 0 0 0 0 0 0 0 0 10 16 20 20 19 36 56 75 91 102 116 129 137 138 134 123 106 84 64 45 30 22 18 10 2 0 0 0 0 0 0 0 0 0 0 0 0 1 1 0 0 0 0 0 0 0 0 0 0 0 0 0 0 0 0 0 0 0 0 0 0 0 0 0 0 0 0 0 0 0 0 0 0 0 0 0 0 0 0 0 0 0 0 0 0 0 0 0 
0 0 0 0 0 0 0 0 0 0 0 0 0 0 0 0 0 0 0 0 0 0 0 0 0 0 0 0 0 0 0 0 0 0 0 0 0 0 13 18 20 16 40 71 102 122 141 161 176 185 188 184 177 174 176 180 186 188 186 169 141 100 65 43 27 16 7 1 0 0 0 0 0 0 0 0 0 0 1 0 0 0 0 0 0 0 0 0 0 0 0 0 0 0 0 0 0 0 0 0 0 0 0 0 0 0 0 0 0 0 0 0 0 0 0 0 0 0 0 0 0 0 0 0 0 0 0 0 
0 0 0 0 0 0 0 0 0 0 0 0 0 0 0 0 0 0 0 0 0 0 0 0 0 0 0 0 0 0 0 0 0 0 0 0 14 21 19 23 65 99 124 145 164 184 192 178 167 159 159 161 162 163 163 159 153 146 142 149 168 187 182 148 103 64 40 22 12 1 0 0 0 0 0 0 0 0 0 0 0 0 0 0 0 0 0 0 0 0 0 0 0 0 0 0 0 0 0 0 0 0 0 0 0 0 0 0 0 0 0 0 0 0 0 0 0 0 0 0 0 0 0 0 0 0 0 0 
0 0 0 0 0 0 0 0 0 0 0 0 0 0 0 0 0 0 0 0 0 0 0 0 0 0 0 0 0 0 0 0 0 0 8 20 18 30 73 109 135 159 180 192 180 160 154 158 157 156 165 174 173 160 163 179 188 188 184 172 156 144 151 172 193 176 133 84 45 24 12 1 0 0 0 0 0 0 0 0 0 0 0 0 0 0 0 0 0 0 0 0 0 0 0 0 0 0 0 0 0 0 0 0 0 0 0 0 0 0 0 0 0 0 0 0 0 0 0 0 0 0 0 0 0 0 0 0 
0 0 0 0 0 0 0 0 0 0 0 0 0 0 0 0 0 0 0 0 0 0 0 0 0 0 0 0 0 0 0 0 1 24 28 29 66 110 139 162 191 188 161 147 149 154 160 149 141 140 139 132 124 123 123 123 130 155 180 189 189 183 173 157 147 160 189 187 144 86 38 21 10 0 0 0 0 1 1 0 0 0 0 0 0 0 0 0 0 0 0 0 0 0 0 0 0 0 0 0 0 0 0 0 0 0 0 0 0 0 0 0 0 0 0 0 0 0 0 0 0 0 0 0 0 0 0 0 
0 0 0 0 0 0 0 0 0 0 0 0 0 0 0 0 0 0 0 0 0 0 0 0 0 0 0 0 0 0 0 20 32 20 42 96 136 162 191 190 161 151 152 148 148 145 132 119 97 102 140 161 165 157 150 144 127 121 130 158 177 184 188 188 181 169 152 157 182 183 133 70 28 19 1 0 0 1 1 0 0 0 0 0 0 0 0 0 0 0 0 0 0 0 0 0 0 0 0 0 0 0 0 0 0 0 0 0 0 0 0 0 0 0 0 0 0 0 0 0 0 0 0 0 0 0 0 0 
0 0 0 0 0 0 0 0 0 0 0 0 0 0 0 0 0 0 0 0 0 0 0 0 0 0 0 0 0 6 33 23 23 73 126 157 188 194 163 152 162 170 159 154 148 142 135 120 116 120 110 115 109 105 118 121 118 116 118 131 149 161 172 181 185 189 183 172 155 158 186 170 106 39 21 7 0 0 1 0 0 0 0 0 0 0 0 0 0 0 0 0 0 0 0 0 0 0 0 0 0 0 0 0 0 0 0 0 0 0 0 0 0 0 0 0 0 0 0 0 0 0 0 0 0 0 0 0 
0 0 0 0 0 0 0 0 0 0 0 0 0 0 0 0 0 0 0 0 0 0 0 0 0 0 0 0 21 28 13 46 111 147 178 199 170 154 168 179 180 156 141 134 130 128 114 112 120 124 118 127 127 129 146 153 145 136 127 120 132 153 164 171 181 179 180 182 182 172 155 162 185 138 60 20 13 0 1 1 0 0 0 0 0 0 0 0 0 0 0 0 0 0 0 0 0 0 0 0 0 0 0 0 0 0 0 0 0 0 0 0 0 0 0 0 0 0 0 0 0 0 0 0 0 0 0 0 
0 0 0 0 0 0 0 0 0 0 0 0 0 0 0 0 0 0 0 0 0 0 0 0 0 0 4 27 22 14 74 132 162 190 180 156 165 182 181 164 142 131 129 133 125 128 146 162 175 168 164 161 156 156 166 176 175 181 184 176 163 155 155 162 167 171 181 181 181 185 177 162 152 181 154 77 19 14 1 0 0 0 0 0 0 0 0 0 0 0 0 0 0 0 0 0 0 0 0 0 0 0 0 0 0 0 0 0 0 0 0 0 0 0 0 0 0 0 0 0 0 0 0 0 0 0 0 0 
0 0 0 0 0 0 0 0 0 0 0 0 0 0 0 0 0 0 0 0 0 0 0 0 0 10 28 19 19 97 142 171 193 162 160 181 187 170 144 128 130 135 146 146 152 163 170 171 156 144 137 137 134 132 131 137 151 154 159 168 175 181 184 182 174 167 168 173 182 183 179 180 166 152 175 161 83 22 15 2 0 0 0 0 0 0 0 0 0 0 0 0 0 0 0 0 0 0 0 0 0 0 0 0 0 0 0 0 0 0 0 0 0 0 0 0 0 0 0 0 0 0 0 0 0 0 0 0 
0 0 0 0 0 0 0 0 0 0 0 0 0 0 0 0 0 0 0 0 0 0 0 0 14 24 15 30 107 149 177 184 157 169 189 181 156 134 130 141 171 181 167 149 138 131 125 126 127 123 121 129 126 120 121 125 131 138 142 147 156 164 171 175 177 183 178 162 163 178 183 180 181 168 156 175 161 91 27 14 0 0 0 0 0 0 0 0 0 0 0 0 0 0 0 0 0 0 0 0 0 0 0 0 0 0 0 0 0 0 0 0 0 0 0 0 0 0 0 0 0 0 0 0 0 0 0 0 
0 0 0 0 0 0 0 0 0 0 0 0 0 0 0 0 0 0 0 0 0 0 3 21 21 14 39 115 152 183 177 158 180 184 163 139 127 138 178 192 168 145 139 134 121 118 118 116 111 104 99 83 86 104 106 112 117 120 119 117 117 127 146 161 166 163 168 179 167 156 168 178 181 181 168 153 176 160 100 33 10 0 0 0 0 0 0 0 0 0 0 0 0 0 0 0 0 0 0 0 0 0 0 0 0 0 0 0 0 0 0 0 0 0 0 0 0 0 0 0 0 0 0 0 0 0 0 0 
0 0 0 0 0 0 0 0 0 0 0 0 0 0 0 0 0 0 0 0 0 3 19 18 17 48 121 154 185 173 161 183 176 150 130 129 152 186 176 153 149 146 141 132 123 119 114 111 111 110 106 83 92 123 126 130 134 134 133 131 130 128 123 126 138 151 155 156 172 172 149 156 172 181 183 169 156 179 154 107 38 9 0 0 0 0 0 0 0 0 0 0 0 0 0 0 0 0 0 0 0 0 0 0 0 0 0 0 0 0 0 0 0 0 0 0 0 0 0 0 0 0 0 0 0 0 0 0 
0 0 0 0 0 0 0 0 0 0 0 0 0 0 0 0 0 0 0 0 3 20 15 17 61 132 151 172 174 163 181 174 144 128 128 150 174 159 152 153 143 133 128 135 143 145 147 142 141 143 119 104 109 130 136 134 135 130 121 124 129 134 137 129 121 120 129 147 153 167 170 143 153 162 175 179 164 156 181 153 110 38 6 0 0 0 0 0 0 0 0 0 0 0 0 0 0 0 0 0 0 0 0 0 0 0 0 0 0 0 0 0 0 0 0 0 0 0 0 0 0 0 0 0 0 0 0 0 
0 0 0 0 0 0 0 0 0 0 0 0 0 0 0 0 0 0 0 3 20 13 17 70 137 152 166 179 167 178 165 136 124 122 143 172 160 158 150 128 119 123 128 132 136 134 132 135 137 127 118 115 113 115 123 130 129 124 111 98 98 106 119 131 132 128 122 121 140 147 159 160 124 148 161 171 181 166 161 186 145 105 29 5 0 0 0 0 0 0 0 0 0 0 0 0 0 0 0 0 0 0 0 0 0 0 0 0 0 0 0 0 0 0 0 0 0 0 0 0 0 0 0 0 0 0 0 0 
0 0 0 0 0 0 0 0 0 0 0 0 0 0 0 0 0 0 3 20 13 16 77 142 150 160 183 165 174 159 129 117 108 141 179 168 155 140 118 112 117 121 127 125 117 111 114 118 117 118 111 109 109 114 116 118 116 111 106 102 93 90 90 98 114 130 135 128 130 143 136 156 150 108 141 162 170 182 164 171 186 140 97 19 1 0 0 0 0 0 0 0 0 0 0 0 0 0 0 0 0 0 0 0 0 0 0 0 0 0 0 0 0 0 0 0 0 0 0 0 0 0 0 0 0 0 0 0 
0 0 0 0 0 0 0 0 0 0 0 0 0 0 0 0 0 2 15 18 15 72 143 142 147 185 169 168 160 125 114 102 131 183 176 155 130 114 115 117 122 117 112 107 113 115 118 121 130 134 128 128 130 133 137 135 134 131 126 120 117 108 97 89 86 96 117 129 130 134 136 136 162 130 104 141 161 171 175 153 184 167 129 76 9 0 0 0 0 0 0 0 0 0 0 0 0 0 0 0 0 0 0 0 0 0 0 0 0 0 0 0 0 0 0 0 0 0 0 0 0 0 0 0 0 0 0 0 
0 0 0 0 0 0 0 0 0 0 0 0 0 0 0 0 0 7 19 12 59 144 136 142 178 180 155 160 126 109 100 126 185 181 158 132 110 112 115 111 109 107 112 119 128 136 137 142 147 138 142 146 149 144 138 139 141 139 139 137 135 126 114 99 93 87 88 113 129 128 133 136 144 163 123 102 133 163 175 165 163 186 149 117 48 4 0 0 0 0 0 0 0 0 0 0 0 0 0 0 0 0 0 0 0 0 0 0 0 0 0 0 0 0 0 0 0 0 0 0 0 0 0 0 0 0 0 0 
0 0 0 0 0 0 0 0 0 0 0 0 0 0 0 0 3 17 13 44 132 136 143 167 192 154 158 132 100 97 125 186 182 156 131 106 108 118 113 106 104 107 125 137 144 147 146 146 137 118 127 131 131 118 106 98 111 125 136 144 146 144 138 122 107 95 85 95 115 126 128 138 139 152 158 106 96 126 165 172 157 185 171 131 112 27 1 0 0 0 0 0 0 0 0 0 0 0 0 0 0 0 0 0 0 0 0 0 0 0 0 0 0 0 0 0 0 0 0 0 0 0 0 0 0 0 0 0 
0 0 0 0 0 0 0 0 0 0 0 0 0 0 0 2 10 18 38 113 147 130 157 190 165 151 139 99 91 125 183 181 153 139 115 114 113 107 110 114 119 130 139 143 144 138 136 136 114 94 107 107 101 91 82 76 83 91 100 118 139 147 149 140 123 111 100 90 89 108 123 128 139 135 155 146 101 99 125 167 160 168 185 157 125 77 10 0 0 0 0 0 0 0 0 0 0 0 0 0 0 0 0 0 0 0 0 0 0 0 0 0 0 0 0 0 0 0 0 0 0 0 0 0 0 0 0 0 
0 0 0 0 0 0 0 0 0 0 0 0 0 0 0 5 15 25 83 148 120 149 178 183 142 142 102 90 115 178 184 156 145 121 104 104 106 107 112 119 129 128 128 124 119 116 117 117 94 83 87 88 83 77 79 78 78 82 85 93 108 126 147 150 139 123 110 102 88 88 108 125 134 138 141 166 131 97 106 142 160 154 188 162 135 109 30 1 0 0 0 0 0 0 0 0 0 0 0 0 0 0 0 0 0 0 0 0 0 0 0 0 0 0 0 0 0 0 0 0 0 0 0 0 0 0 0 0 
0 0 0 0 0 0 0 0 0 0 0 0 0 0 2 8 17 58 126 129 127 163 180 156 136 114 89 97 161 191 159 136 123 107 105 102 107 111 120 123 121 114 108 102 100 100 99 101 94 85 85 88 84 82 80 80 83 84 87 90 93 108 126 143 147 134 119 110 98 86 90 110 125 141 141 158 162 102 96 116 145 153 180 167 151 122 61 3 0 0 0 0 0 0 0 0 0 0 0 0 0 0 0 0 0 0 0 0 0 0 0 0 0 0 0 0 0 0 0 0 0 0 0 0 0 0 0 0 
0 0 0 0 0 0 0 0 0 0 0 0 0 0 4 13 38 89 150 112 151 163 173 134 115 97 91 128 192 168 142 122 103 102 101 108 115 117 112 109 104 99 92 89 88 89 89 95 95 91 88 89 87 88 92 92 89 87 85 86 80 89 98 112 133 143 137 118 107 91 85 90 110 134 139 145 178 134 97 98 127 143 168 171 154 134 90 15 1 0 0 0 0 0 0 0 0 0 0 0 0 0 0 0 0 0 0 0 0 0 0 0 0 0 0 0 0 0 0 0 0 0 0 0 0 0 0 0 
0 0 0 0 0 0 0 0 0 0 0 0 0 1 6 18 63 124 133 127 156 158 160 107 105 92 108 168 183 145 134 106 103 102 108 114 106 93 96 97 92 87 86 83 82 86 91 91 94 94 91 93 94 97 92 93 94 89 84 76 65 65 79 93 107 134 147 135 119 112 100 86 92 116 136 134 166 158 102 97 112 129 161 170 154 145 112 30 1 0 0 0 0 0 0 0 0 0 0 0 0 0 0 0 0 0 0 0 0 0 0 0 0 0 0 0 0 0 0 0 0 0 0 0 0 0 0 0 
0 0 0 0 0 0 0 0 0 0 0 0 0 2 7 34 85 143 122 142 156 167 128 103 98 96 127 176 162 134 116 103 105 106 112 110 90 89 89 83 87 81 79 77 74 75 77 77 84 81 88 97 96 96 84 76 82 83 73 60 57 58 61 78 94 112 139 147 134 118 109 90 87 100 120 136 150 159 106 98 104 122 145 175 151 146 127 47 2 0 0 0 0 0 0 0 0 0 0 0 0 0 0 0 0 0 0 0 0 0 0 0 0 0 0 0 0 0 0 0 0 0 0 0 0 0 0 0 
0 0 0 0 0 0 0 0 0 0 0 0 0 2 11 51 115 142 125 153 155 148 109 97 99 108 141 163 149 124 106 105 105 110 107 86 90 93 85 81 83 84 76 71 69 70 69 68 70 66 71 88 91 86 72 64 66 67 63 58 57 58 60 68 85 93 117 146 152 134 116 105 95 92 110 132 141 149 106 99 101 116 131 176 153 142 136 66 5 0 0 0 0 0 0 0 0 0 0 0 0 0 0 0 0 0 0 0 0 0 0 0 0 0 0 0 0 0 0 0 0 0 0 0 0 0 0 0 
0 0 0 0 0 0 0 0 0 0 0 0 0 4 17 70 138 132 130 156 138 132 99 94 101 123 129 154 134 114 111 109 111 113 102 96 98 90 79 83 85 85 85 79 75 72 65 62 62 60 64 75 90 78 66 62 63 63 63 62 61 58 57 64 77 86 97 125 147 148 128 112 99 94 104 122 138 149 107 95 98 109 124 169 155 150 143 84 10 0 0 0 0 0 0 0 0 0 0 0 0 0 0 0 0 0 0 0 0 0 0 0 0 0 0 0 0 0 0 0 0 0 0 0 0 0 0 0 
0 0 0 0 0 0 0 0 0 0 0 0 1 6 30 94 152 131 137 152 112 124 91 97 111 118 122 147 135 117 110 109 121 120 107 102 97 85 83 81 61 53 59 82 84 73 65 61 59 60 63 68 83 73 65 59 63 64 65 71 77 72 68 69 77 82 79 89 128 149 145 124 105 99 103 118 146 145 106 95 99 108 129 165 153 149 145 102 12 0 0 0 0 0 0 0 0 0 0 0 0 0 0 0 0 0 0 0 0 0 0 0 0 0 0 0 0 0 0 0 0 0 0 0 0 0 0 0 
0 0 0 0 0 0 0 0 0 0 0 0 2 6 42 110 151 126 144 140 108 119 97 105 112 109 126 149 139 115 109 116 128 118 103 92 85 84 85 64 52 53 54 61 86 81 67 64 62 64 63 66 77 71 65 64 63 67 76 89 89 90 83 75 73 61 54 76 108 139 148 143 117 102 105 118 147 142 93 95 94 100 125 166 154 149 142 117 20 0 0 0 0 0 0 0 0 0 0 0 0 0 0 0 0 0 0 0 0 0 0 0 0 0 0 0 0 0 0 0 0 0 0 0 0 0 0 0 
0 0 0 0 0 0 0 0 0 0 0 0 2 6 53 122 153 129 155 124 107 117 99 108 111 102 124 156 141 109 113 126 131 109 91 79 78 81 77 55 55 54 54 60 80 92 78 71 69 69 72 71 76 76 75 75 74 78 87 87 63 62 62 59 56 53 53 53 88 118 140 147 138 116 102 113 146 147 85 99 100 97 120 171 161 150 145 121 29 1 0 0 0 0 0 0 0 0 0 0 0 0 0 0 0 0 0 0 0 0 0 0 0 0 0 0 0 0 0 0 0 0 0 0 0 0 0 0 
0 0 0 0 0 0 0 0 0 0 0 0 2 10 60 130 148 126 156 113 109 120 108 113 117 99 124 155 127 113 121 135 120 98 81 70 70 77 86 75 75 66 55 65 71 87 94 84 79 82 90 92 92 96 100 104 96 91 93 90 67 67 66 64 60 55 52 57 81 101 128 144 149 140 109 104 147 142 74 95 105 111 117 164 170 153 153 124 43 1 0 0 0 0 0 0 0 0 0 0 0 0 0 0 0 0 0 0 0 0 0 0 0 0 0 0 0 0 0 0 0 0 0 0 0 0 0 0 
0 0 0 0 0 0 0 0 0 0 0 0 2 12 66 137 137 126 160 105 114 119 106 118 120 96 124 154 122 116 131 132 106 85 72 74 70 69 73 81 85 84 61 69 77 80 92 110 102 103 114 119 117 122 130 136 126 108 103 88 72 71 72 66 60 60 67 65 64 87 127 138 143 147 138 111 140 133 73 92 105 114 117 162 177 154 154 125 60 3 0 0 0 0 0 0 0 0 0 0 0 0 0 0 0 0 0 0 0 0 0 0 0 0 0 0 0 0 0 0 0 0 0 0 0 0 0 0 
0 0 0 0 0 0 0 0 0 0 0 0 2 17 70 143 125 137 160 101 124 129 108 127 121 97 121 158 121 118 139 118 87 79 82 61 52 54 53 54 58 69 69 78 84 90 93 111 120 128 137 140 144 149 155 152 133 112 100 80 77 76 74 70 66 60 55 52 53 68 103 126 141 143 148 143 144 122 81 95 106 118 109 163 181 159 157 121 73 6 0 0 0 0 0 0 0 0 0 0 0 0 0 0 0 0 0 0 0 0 0 0 0 0 0 0 0 0 0 0 0 0 0 0 0 0 0 0 
0 0 0 0 0 0 0 0 0 0 0 0 3 18 71 141 122 147 151 95 125 141 107 128 123 110 115 148 123 129 136 105 88 80 57 56 53 52 53 53 55 62 71 88 100 100 99 99 100 108 130 153 166 172 171 150 127 98 85 79 77 76 79 77 70 63 62 57 56 67 97 118 118 136 163 167 157 122 94 102 113 111 111 170 175 157 159 127 83 7 0 0 0 0 0 0 0 0 0 0 0 0 0 0 0 0 0 0 0 0 0 0 0 0 0 0 0 0 0 0 0 0 0 0 0 0 0 0 
0 0 0 0 0 0 0 0 0 0 0 0 7 16 75 148 127 155 152 94 122 151 117 141 130 120 115 136 145 148 130 103 87 57 56 57 58 60 60 66 65 71 83 91 98 107 102 103 103 104 125 155 173 177 172 158 131 100 88 81 82 80 89 97 94 93 86 79 80 88 105 120 127 142 156 167 158 138 110 107 108 99 112 166 159 152 160 130 90 10 0 0 0 0 0 0 0 0 0 0 0 0 0 0 0 0 0 0 0 0 0 0 0 0 0 0 0 0 0 0 0 0 0 0 0 0 0 0 
0 0 0 0 0 0 0 0 0 0 0 0 9 15 81 148 122 154 141 94 122 151 114 132 132 115 120 128 162 152 124 99 60 55 59 64 66 73 94 114 105 90 92 95 99 101 100 101 101 103 125 159 177 181 178 162 127 100 88 89 89 93 112 120 117 111 107 114 110 112 126 143 149 152 143 152 158 158 120 109 100 93 115 159 151 142 162 136 101 18 0 0 0 0 0 0 0 0 0 0 0 0 0 0 0 0 0 0 0 0 0 0 0 0 0 0 0 0 0 0 0 0 0 0 0 0 0 0 
0 0 0 0 0 0 0 0 0 0 0 0 9 13 88 145 124 150 129 96 125 147 114 126 132 123 124 128 164 162 127 78 55 57 64 82 103 120 116 108 111 124 124 112 101 98 99 97 93 94 116 158 176 168 173 156 120 100 91 101 99 107 102 93 86 81 70 71 76 86 99 117 149 164 141 132 152 163 133 110 99 87 121 155 152 144 163 136 106 28 0 0 0 0 0 0 0 0 0 0 0 0 0 0 0 0 0 0 0 0 0 0 0 0 0 0 0 0 0 0 0 0 0 0 0 0 0 0 
0 0 0 0 0 0 0 0 0 0 0 0 9 15 97 143 128 160 131 99 126 145 124 125 123 132 132 135 155 160 136 78 69 79 97 114 114 111 102 93 92 100 111 122 111 99 96 98 89 87 111 149 162 130 146 157 123 99 97 105 108 99 91 87 83 74 63 56 58 69 100 128 166 161 137 124 131 156 131 108 92 82 114 143 148 143 160 134 109 42 0 0 0 0 0 0 0 0 0 0 0 0 0 0 0 0 0 0 0 0 0 0 0 0 0 0 0 0 0 0 0 0 0 0 0 0 0 0 
0 0 0 0 0 0 0 0 0 0 0 0 8 15 99 135 129 165 132 104 122 141 126 118 115 131 136 139 147 155 124 89 111 110 93 102 103 94 82 85 92 97 100 106 117 106 94 97 87 84 116 156 137 111 125 159 127 100 98 110 107 91 94 88 82 72 61 51 51 56 83 138 165 139 135 123 119 144 126 107 89 77 99 138 144 133 155 132 111 54 1 0 0 0 0 0 0 0 0 0 0 0 0 0 0 0 0 0 0 0 0 0 0 0 0 0 0 0 0 0 0 0 0 0 0 0 0 0 
0 0 0 0 0 0 0 0 0 0 0 0 8 18 102 134 133 166 133 101 111 134 115 105 107 126 136 135 142 140 105 74 83 103 108 106 92 81 84 90 97 99 102 102 103 112 103 94 98 86 117 145 119 99 105 143 134 101 111 114 91 93 92 85 73 65 54 52 50 53 68 117 156 136 140 117 116 136 115 101 85 76 82 130 142 121 155 133 114 61 2 0 0 0 0 0 0 0 0 0 0 0 0 0 0 0 0 0 0 0 0 0 0 0 0 0 0 0 0 0 0 0 0 0 0 0 0 0 
0 0 0 0 0 0 0 0 0 0 0 0 6 17 101 133 137 162 123 82 108 128 91 96 103 121 134 133 141 135 95 69 77 88 102 96 74 72 87 94 96 93 92 99 92 88 111 122 104 103 133 135 85 89 89 110 153 138 133 98 91 91 92 78 67 58 54 51 49 50 67 114 144 140 128 113 116 129 97 91 83 80 81 113 143 112 137 128 117 67 3 0 0 0 0 0 0 0 0 0 0 0 0 0 0 0 0 0 0 0 0 0 0 0 0 0 0 0 0 0 0 0 0 0 0 0 0 0 
0 0 0 0 0 0 0 0 0 0 0 0 7 17 99 132 138 153 109 76 116 116 65 93 103 119 131 121 137 135 87 62 68 75 74 78 71 73 85 94 97 95 93 94 89 83 91 88 75 100 161 136 122 116 118 125 127 127 114 96 100 105 103 77 66 57 53 50 53 53 72 118 139 137 120 112 113 119 93 91 81 79 82 115 143 113 120 124 122 69 3 0 0 0 0 0 0 0 0 0 0 0 0 0 0 0 0 0 0 0 0 0 0 0 0 0 0 0 0 0 0 0 0 0 0 0 0 0 
0 0 0 0 0 0 0 0 0 0 0 0 7 17 98 129 146 148 115 77 118 94 58 89 105 120 124 115 139 135 86 56 63 67 71 79 71 79 86 95 98 96 94 95 89 88 84 79 75 111 135 98 101 90 99 92 123 143 109 106 107 103 91 79 68 56 51 51 54 54 76 124 136 131 114 111 108 112 90 92 79 80 82 104 149 116 120 128 127 68 3 0 0 0 0 0 0 0 0 0 0 0 0 0 0 0 0 0 0 0 0 0 0 0 0 0 0 0 0 0 0 0 0 0 0 0 0 0 
0 0 0 0 0 0 0 0 0 0 0 0 5 14 96 132 153 130 118 86 122 96 59 83 106 120 119 114 136 131 97 55 58 66 71 83 75 78 89 95 94 98 99 107 103 105 98 84 76 132 121 94 76 75 85 84 103 136 118 97 99 95 87 80 67 53 51 57 54 57 77 121 135 128 114 114 113 113 85 87 78 81 85 95 151 116 123 123 127 63 3 0 0 0 0 0 0 0 0 0 0 0 0 0 0 0 0 0 0 0 0 0 0 0 0 0 0 0 0 0 0 0 0 0 0 0 0 0 
0 0 0 0 0 0 0 0 0 0 0 0 4 13 86 131 155 123 119 89 117 88 61 75 108 124 124 116 135 134 107 64 52 69 68 78 87 83 92 98 96 93 94 92 90 95 90 83 96 141 94 73 73 73 81 71 78 119 138 100 97 93 86 78 62 53 52 55 54 58 84 122 137 121 113 115 128 104 80 84 78 81 87 88 147 109 121 123 127 55 2 0 0 0 0 0 0 0 0 0 0 0 0 0 0 0 0 0 0 0 0 0 0 0 0 0 0 0 0 0 0 0 0 0 0 0 0 0 
0 0 0 0 0 0 0 0 0 0 0 0 5 13 79 130 156 127 116 98 113 86 65 63 103 123 127 119 136 132 106 76 50 63 69 76 92 93 97 101 97 89 92 88 89 92 85 78 105 128 81 72 73 85 97 75 78 94 136 128 105 92 90 82 64 54 52 51 51 58 87 121 137 120 119 123 126 94 81 85 78 84 86 104 140 103 120 121 122 44 2 0 0 0 0 0 0 0 0 0 0 0 0 0 0 0 0 0 0 0 0 0 0 0 0 0 0 0 0 0 0 0 0 0 0 0 0 0 
0 0 0 0 0 0 0 0 0 0 0 0 4 10 68 130 152 136 112 100 112 87 68 57 88 119 132 122 142 127 101 75 47 54 68 71 89 107 103 95 86 81 83 89 85 84 84 87 117 104 68 71 72 90 104 80 77 77 110 155 136 111 103 87 71 60 51 50 53 66 87 120 128 119 122 124 111 100 95 85 78 84 86 125 128 101 117 118 119 35 2 0 0 0 0 0 0 0 0 0 0 0 0 0 0 0 0 0 0 0 0 0 0 0 0 0 0 0 0 0 0 0 0 0 0 0 0 0 
0 0 0 0 0 0 0 0 0 11 8 0 0 8 57 132 147 141 108 99 111 96 73 56 66 112 133 125 144 129 105 75 45 48 70 73 94 108 102 88 83 81 85 93 110 96 125 121 119 81 68 69 72 96 99 82 78 79 82 136 163 161 129 101 78 64 63 55 56 78 100 122 119 121 127 122 107 114 124 96 78 85 86 134 116 101 114 112 114 26 1 0 0 0 0 0 0 0 0 0 0 0 0 0 0 0 0 0 0 0 0 0 0 0 0 0 0 0 0 0 0 0 0 0 0 0 0 0 
0 0 0 0 0 0 0 0 0 4 9 4 0 6 41 130 134 133 107 98 102 112 87 63 54 97 134 141 145 126 107 87 48 46 67 80 88 102 110 97 102 95 90 97 115 144 143 116 127 74 79 80 83 89 96 99 84 82 80 110 151 174 151 104 76 61 56 58 59 59 82 106 117 124 132 121 106 97 120 110 84 90 96 136 106 103 109 106 101 19 0 0 0 0 0 0 0 0 0 0 0 0 0 0 0 0 0 0 0 0 0 0 0 0 0 0 0 0 0 0 0 0 0 0 0 0 0 0 
0 0 0 0 0 0 0 0 0 0 1 10 0 3 31 124 124 128 109 86 91 112 112 80 45 79 125 148 144 129 117 92 61 54 60 81 87 108 107 103 90 91 101 117 133 130 120 110 124 80 73 66 70 90 90 97 101 89 85 97 147 165 162 144 105 76 65 59 76 62 72 108 127 137 138 118 89 85 106 117 97 107 111 125 103 110 108 108 84 14 0 0 0 0 0 0 0 0 0 0 0 0 0 0 0 0 0 0 0 0 0 0 0 0 0 0 0 0 0 0 0 0 0 0 0 0 0 0 
0 0 0 0 0 0 0 0 0 0 2 11 5 5 23 111 119 130 119 94 85 109 114 89 49 59 111 147 147 139 131 96 69 57 56 85 102 106 114 117 121 127 135 146 144 122 118 143 116 67 64 71 75 115 87 94 99 97 110 102 145 155 149 152 139 135 126 113 107 102 113 139 147 158 154 111 84 92 103 122 111 112 114 113 119 127 116 120 79 10 0 0 0 13 10 0 0 0 0 0 0 0 0 0 0 0 0 0 0 0 0 0 0 0 0 0 0 0 0 0 0 0 0 0 0 0 0 0 
0 0 0 0 0 0 0 0 0 0 3 10 11 7 17 101 120 130 127 108 81 92 114 95 59 46 92 146 153 136 134 111 94 86 70 86 118 138 157 157 144 144 137 131 140 128 113 129 115 71 67 86 83 108 90 92 94 97 93 100 140 155 151 135 117 102 87 84 105 143 169 170 153 141 123 110 106 98 99 129 120 115 154 140 135 129 108 126 67 5 0 0 4 0 0 0 0 0 0 0 0 0 0 0 0 0 0 0 0 0 0 0 0 0 0 0 0 0 0 0 0 0 0 0 0 0 0 0 
0 0 0 0 0 0 0 0 0 0 1 5 11 10 11 89 119 120 135 119 84 84 112 114 73 39 66 143 156 148 139 126 110 97 91 105 131 143 149 151 146 138 138 139 145 140 117 133 125 93 82 88 86 105 92 95 99 107 98 114 137 149 136 125 107 79 64 61 85 128 138 141 137 118 83 93 120 127 124 137 123 120 151 164 147 91 94 139 63 4 0 1 1 0 0 0 0 0 0 0 0 0 0 0 0 0 0 0 0 0 0 0 0 0 0 0 0 0 0 0 0 0 0 0 0 0 0 0 
0 0 0 0 0 0 0 0 0 0 0 2 9 11 9 75 120 112 140 125 90 73 113 153 100 49 57 130 153 150 144 139 124 103 85 92 100 116 134 139 121 116 112 117 125 142 139 138 141 107 93 85 88 119 108 104 120 114 109 115 120 122 122 116 110 105 88 68 94 137 123 127 131 102 89 139 179 177 160 162 154 166 167 186 144 82 89 138 58 3 2 1 2 0 0 0 0 0 0 0 0 0 0 0 0 0 0 0 0 0 0 0 0 0 0 0 0 0 0 0 0 0 0 0 0 0 0 0 
0 0 0 0 0 0 0 0 0 0 0 0 12 14 8 57 123 113 144 135 101 58 137 167 126 88 79 124 146 142 150 158 154 143 118 97 86 88 101 105 78 79 92 95 98 117 141 145 139 110 100 100 82 99 101 101 98 110 91 91 113 113 109 111 111 107 116 124 145 162 145 150 144 94 97 153 166 166 148 125 164 199 192 192 127 86 112 130 43 6 2 3 0 0 0 0 0 0 0 0 0 0 0 0 0 0 0 0 0 0 0 0 0 0 0 0 0 0 0 0 0 0 0 0 0 0 0 0 
0 0 0 0 0 0 0 0 0 0 0 0 16 14 8 39 125 113 129 149 122 89 158 171 123 98 98 115 140 153 154 159 155 151 117 73 69 74 78 91 81 66 72 80 83 90 132 128 99 83 84 86 80 103 88 76 75 94 85 71 75 101 116 100 89 88 108 135 170 173 165 168 132 90 114 150 151 156 142 120 155 148 170 190 120 101 118 111 22 8 4 0 0 0 0 0 0 0 0 0 0 0 0 0 0 0 0 0 0 0 0 0 0 0 0 0 0 0 0 0 0 0 0 0 0 0 0 0 
0 0 0 0 0 0 0 0 0 0 0 1 13 16 14 10 70 115 102 122 157 165 158 166 147 123 108 106 107 144 166 156 149 147 162 132 97 77 71 84 88 73 60 62 61 72 110 109 81 67 64 74 67 78 89 68 61 69 81 65 57 72 117 107 89 85 107 133 167 158 148 161 138 69 70 131 153 155 146 118 150 137 141 172 122 80 90 108 28 9 9 0 0 0 0 0 0 0 0 0 0 0 0 0 0 0 0 0 0 0 0 0 0 0 0 0 0 0 0 0 0 0 0 0 0 0 0 0 
0 0 0 0 0 0 0 0 0 0 0 6 11 15 15 11 39 110 109 114 154 160 166 172 162 134 115 114 90 119 143 162 155 153 168 165 137 108 105 113 113 107 88 63 57 77 112 92 70 56 58 71 76 95 96 77 65 71 68 70 69 66 84 82 82 76 108 153 168 157 163 146 78 55 100 139 168 189 154 141 139 112 133 137 96 76 105 85 18 12 14 3 0 0 0 0 0 0 0 0 0 0 0 0 0 0 0 0 0 0 0 0 0 0 0 0 0 0 0 0 0 0 0 0 0 0 0 0 
0 0 0 0 0 0 0 0 0 0 0 7 12 15 9 12 25 99 111 86 133 153 162 158 164 153 156 155 135 111 103 120 148 178 182 183 152 117 107 123 127 118 103 82 60 76 117 85 75 70 93 102 65 73 98 92 77 86 69 78 82 70 98 94 64 77 129 154 173 182 168 98 64 121 138 148 174 190 186 156 137 122 124 90 113 98 114 42 8 4 13 12 0 0 0 0 0 0 0 0 0 0 0 0 0 0 0 0 0 0 0 0 0 0 0 0 0 0 0 0 0 0 0 0 0 0 0 0 
0 0 0 0 0 0 0 0 0 0 0 2 8 10 2 9 20 69 115 75 105 154 155 145 161 164 153 157 164 149 111 89 124 165 180 176 171 145 123 95 73 66 63 61 64 86 124 76 102 130 140 127 88 86 116 115 99 90 76 80 73 96 114 123 123 115 126 152 175 156 94 69 76 127 134 148 170 186 199 158 119 130 137 72 87 137 89 16 5 5 4 12 7 0 0 0 0 0 0 0 0 0 0 0 0 0 0 0 0 0 0 0 0 0 0 0 0 0 0 0 0 0 0 0 0 0 0 0 
0 0 0 0 0 0 0 0 0 0 0 1 5 6 0 6 16 35 117 93 86 148 145 139 138 159 173 170 162 165 143 100 84 118 171 185 189 168 160 102 74 58 64 77 74 99 152 117 143 152 145 144 131 133 159 147 104 75 70 79 82 120 165 142 137 129 132 134 138 104 52 73 117 110 122 137 164 198 183 131 132 152 103 70 82 133 41 12 0 2 3 5 7 0 0 0 0 0 0 0 0 0 0 0 0 0 0 0 0 0 0 0 0 0 0 0 0 0 0 0 0 0 0 0 0 0 0 0 
0 0 0 0 0 0 0 0 0 0 0 1 5 4 0 3 15 16 96 102 80 121 135 134 129 154 162 154 148 162 157 104 69 70 112 154 181 188 149 115 97 92 106 112 132 143 156 140 141 116 100 118 142 157 158 136 119 107 113 145 146 145 170 171 146 145 136 101 68 74 73 102 102 108 129 143 185 208 195 146 163 120 69 56 98 100 17 12 0 2 2 0 0 0 0 0 0 0 0 0 0 0 0 0 0 0 0 0 0 0 0 0 0 0 0 0 0 0 0 0 0 0 0 0 0 0 0 0 
0 0 0 0 0 0 0 0 0 0 0 0 2 3 0 5 10 12 59 100 96 82 119 139 166 168 148 146 160 150 147 106 76 66 56 86 141 176 145 123 117 136 153 156 151 142 150 116 111 114 125 124 140 159 160 147 138 137 130 141 148 153 161 181 163 148 103 73 59 80 88 87 98 96 114 142 206 204 190 184 158 96 59 56 121 57 10 12 1 2 1 0 0 0 0 0 0 0 0 0 0 0 0 0 0 0 0 0 0 0 0 0 0 0 0 0 0 0 0 0 0 0 0 0 0 0 0 0 
0 0 0 0 0 0 0 0 0 0 0 0 0 1 0 5 9 12 33 118 107 81 99 122 178 180 143 142 173 150 148 128 83 85 72 50 72 118 129 140 140 150 158 146 144 151 147 126 121 136 147 150 157 154 152 147 145 142 135 142 154 146 146 164 148 127 114 93 82 93 84 97 98 82 73 137 195 188 172 190 147 85 56 91 119 28 9 11 1 1 0 0 0 0 0 0 0 0 0 0 0 0 0 0 0 0 0 0 0 0 0 0 0 0 0 0 0 0 0 0 0 0 0 0 0 0 0 0 
0 0 0 0 0 0 0 0 0 0 0 0 0 0 0 6 14 10 16 84 90 82 72 104 167 188 156 161 164 147 166 157 102 85 86 90 81 75 96 119 144 135 149 143 159 166 166 152 143 144 143 145 165 177 191 176 181 165 142 132 139 142 150 156 148 123 127 124 114 96 99 103 88 61 65 150 179 174 164 179 113 84 74 76 94 17 9 11 1 0 0 0 0 0 0 0 0 0 0 0 0 0 0 0 0 0 0 0 0 0 0 0 0 0 0 0 0 0 0 0 0 0 0 0 0 0 0 0 
0 0 0 0 0 0 0 0 0 0 0 0 0 0 0 7 17 11 11 57 64 70 78 92 122 162 170 156 156 150 162 169 124 91 80 79 86 99 107 112 125 145 165 169 170 175 169 152 142 134 126 124 134 152 163 167 158 150 133 123 121 128 133 121 144 168 148 145 142 114 87 65 48 70 136 155 163 182 169 137 92 88 77 39 83 19 6 13 2 0 0 0 0 0 0 0 0 0 0 0 0 0 0 0 0 0 0 0 0 0 0 0 0 0 0 0 0 0 0 0 0 0 0 0 0 0 0 0 
0 0 0 0 0 0 0 0 0 0 1 13 15 6 2 8 18 11 11 42 79 63 77 89 112 113 146 163 153 156 153 176 131 85 82 87 90 96 97 94 95 110 131 157 180 188 152 133 122 114 127 147 157 155 143 118 130 141 120 104 122 119 114 121 156 198 172 147 125 74 48 56 102 147 172 152 164 177 141 104 102 86 71 82 95 15 4 5 8 0 0 0 0 0 0 0 0 0 0 0 0 0 0 0 0 0 0 0 0 0 0 0 0 0 0 0 0 0 0 0 0 0 0 0 0 0 0 0 
0 0 0 0 0 0 0 0 0 0 0 8 14 16 13 13 15 17 14 22 92 56 45 111 147 119 119 145 167 145 152 170 145 94 66 67 78 87 99 102 102 105 107 133 173 178 146 133 107 107 135 174 172 149 136 107 120 137 123 122 154 132 109 135 164 178 168 135 113 72 91 123 137 164 184 179 150 154 104 67 91 56 51 97 69 15 2 2 8 2 0 0 0 0 0 0 0 0 0 0 0 0 0 0 0 0 0 0 0 0 0 0 0 0 0 0 0 0 0 0 0 0 0 0 0 0 0 0 
0 0 0 0 0 0 0 0 0 0 0 3 14 15 14 8 3 13 20 18 45 75 69 136 124 108 130 127 159 154 157 165 160 126 105 79 56 60 74 70 78 85 93 112 150 172 146 132 112 111 150 167 144 164 143 112 121 134 125 117 136 109 105 143 171 154 169 146 143 135 138 141 139 142 177 160 146 139 87 59 56 35 30 81 27 11 4 0 2 7 0 3 3 0 0 0 0 0 0 0 0 0 0 0 0 0 0 0 0 0 0 0 0 0 0 0 0 0 0 0 0 0 0 0 0 0 0 0 
0 0 0 0 0 0 0 0 0 0 0 5 14 14 6 4 3 9 22 18 16 57 93 143 144 131 132 141 138 126 133 151 169 138 129 122 110 90 81 89 97 89 81 75 85 125 128 113 101 120 161 151 139 157 166 122 100 116 113 111 149 138 132 163 144 138 158 174 194 185 171 161 153 157 150 123 92 80 49 72 68 49 78 53 20 6 7 2 1 15 16 11 15 13 5 0 0 0 0 0 0 0 0 0 0 0 0 0 0 0 0 0 0 0 0 0 0 0 0 0 0 0 0 0 0 0 0 0 
0 0 0 0 0 0 0 0 0 0 0 0 10 14 3 4 3 3 18 21 18 29 72 142 149 131 135 120 131 139 126 121 143 133 146 157 150 150 147 145 153 184 182 157 145 147 147 162 194 203 198 200 187 189 189 191 201 203 186 171 194 166 165 183 160 152 155 190 197 172 131 104 103 129 106 74 65 83 55 67 93 95 80 47 23 0 0 3 4 5 8 8 9 12 1 0 0 0 0 0 0 0 0 0 0 0 0 0 0 0 0 0 0 0 0 0 0 0 0 0 0 0 0 0 0 0 0 0 
0 0 0 0 0 0 0 0 0 0 0 0 4 9 5 4 3 1 5 22 21 15 24 83 103 86 95 103 108 148 137 138 148 127 136 135 139 145 162 169 186 179 182 184 161 189 203 197 179 185 201 206 182 176 174 180 181 183 202 207 208 215 183 177 170 173 159 180 87 82 129 142 101 82 100 97 91 76 64 74 65 59 46 50 13 2 0 0 2 5 3 6 8 2 0 0 0 0 0 0 0 0 0 0 0 0 0 0 0 0 0 0 0 0 0 0 0 0 0 0 0 0 0 0 0 0 0 0 
0 0 0 0 0 0 0 0 0 0 0 0 0 1 3 3 2 0 0 14 17 12 8 9 35 65 60 21 35 72 115 125 134 98 102 87 81 104 118 138 130 138 159 159 183 159 152 186 159 165 207 218 185 173 167 161 178 152 150 189 209 201 145 121 140 185 211 174 176 166 150 99 54 41 35 45 79 69 52 61 69 58 43 18 6 0 0 0 2 4 3 10 6 0 0 0 0 0 0 0 0 0 0 0 0 0 0 0 0 0 0 0 0 0 0 0 0 0 0 0 0 0 0 0 0 0 0 0 
0 0 0 0 0 0 0 0 0 0 0 0 0 0 0 5 4 3 1 0 8 8 18 17 23 23 22 25 41 51 44 42 63 85 65 97 62 57 63 66 88 100 118 110 97 90 88 109 165 158 132 120 141 136 130 128 108 130 139 119 111 104 79 108 88 122 88 47 50 64 66 59 44 52 54 36 53 53 28 25 28 30 30 9 0 1 4 4 3 2 0 10 6 0 0 0 0 0 0 0 0 0 0 0 0 0 0 0 0 0 0 0 0 0 0 0 0 0 0 0 0 0 0 0 0 0 0 0 
0 0 0 0 0 0 0 0 0 0 0 0 0 0 0 0 2 4 3 0 3 9 9 16 21 22 20 25 41 53 37 53 57 92 53 46 40 49 56 46 66 71 61 69 101 131 115 102 121 142 77 70 111 104 106 107 83 107 135 117 112 112 67 51 50 73 60 121 129 89 71 40 43 57 55 38 57 50 32 24 24 27 25 8 1 2 3 0 0 0 0 2 0 0 0 0 0 0 0 0 0 0 0 0 0 0 0 0 0 0 0 0 0 0 0 0 0 0 0 0 0 0 0 0 0 0 0 0 
0 0 0 0 0 0 0 0 0 0 0 0 0 0 0 0 0 0 0 0 2 8 13 13 22 32 29 41 56 82 58 67 72 124 95 48 44 58 85 107 132 105 94 96 125 149 166 159 167 151 119 111 125 126 139 147 126 115 136 157 146 129 96 82 108 123 77 106 163 70 37 27 40 62 73 67 80 76 53 41 31 28 17 5 0 0 0 0 0 0 0 0 0 0 0 0 0 0 0 0 0 0 0 0 0 0 0 0 0 0 0 0 0 0 0 0 0 0 0 0 0 0 0 0 0 0 0 0 
0 0 0 0 0 0 0 0 0 0 0 0 0 0 0 0 0 0 0 0 0 5 11 9 11 37 57 79 108 143 135 127 118 138 94 61 51 102 105 140 166 178 166 177 160 175 174 207 194 153 162 177 189 191 193 181 144 130 131 140 150 150 137 142 119 142 185 153 124 105 31 29 19 23 34 28 35 33 17 14 10 5 2 0 0 0 0 0 0 0 0 0 0 0 0 0 0 0 0 0 0 0 0 0 0 0 0 0 0 0 0 0 0 0 0 0 0 0 0 0 0 0 0 0 0 0 0 0 
0 0 0 0 0 0 0 0 0 0 0 0 0 0 0 0 0 0 0 0 0 0 0 3 7 40 60 64 91 121 115 114 118 128 95 96 89 148 151 162 159 189 188 171 179 169 165 159 184 172 144 154 164 180 197 212 215 182 166 160 145 139 133 152 187 124 103 125 170 100 58 31 39 46 50 44 72 61 47 49 40 31 33 3 0 0 0 0 0 0 0 0 0 0 0 0 0 0 0 0 0 0 0 0 0 0 0 0 0 0 0 0 0 0 0 0 0 0 0 0 0 0 0 0 0 0 0 0 
0 0 0 0 0 0 0 0 0 0 0 0 0 0 0 0 0 0 0 0 0 0 1 4 6 23 45 55 63 89 88 84 94 129 56 43 40 57 84 109 111 106 98 110 139 153 123 151 144 139 138 153 176 185 189 189 177 169 153 130 111 86 76 103 122 78 101 185 180 156 71 35 30 77 125 66 73 41 39 34 15 11 12 7 4 0 0 0 0 0 0 0 0 0 0 0 0 0 0 0 0 0 0 0 0 0 0 0 0 0 0 0 0 0 0 0 0 0 0 0 0 0 0 0 0 0 0 0 
0 0 0 0 0 0 0 0 0 0 0 0 0 0 0 0 0 0 0 0 0 0 3 7 12 15 21 21 35 52 75 62 69 104 47 34 33 46 61 85 95 79 65 76 88 154 133 133 102 89 69 80 124 153 130 120 110 112 101 73 77 87 87 80 126 130 129 117 177 165 121 49 32 47 139 96 71 31 32 30 19 14 9 4 4 0 0 0 0 0 0 0 0 0 0 0 0 0 0 0 0 0 0 0 0 0 0 0 0 0 0 0 0 0 0 0 0 0 0 0 0 0 0 0 0 0 0 0 
0 0 0 0 0 0 0 0 0 0 0 0 0 0 0 0 0 0 0 0 0 0 1 5 11 14 20 19 29 38 68 67 73 108 51 31 30 49 106 90 93 101 93 93 112 162 123 112 122 72 49 59 90 117 131 135 127 134 129 76 60 64 84 82 80 107 112 139 133 115 101 57 34 39 137 117 73 33 25 25 17 18 11 6 4 1 0 0 0 0 0 0 0 0 0 0 0 0 0 0 0 0 0 0 0 0 0 0 0 0 0 0 0 0 0 0 0 0 0 0 0 0 0 0 0 0 0 0 
0 0 0 0 0 0 0 0 0 0 0 0 0 0 0 0 0 0 0 0 0 0 0 4 6 11 19 19 26 33 63 63 77 109 52 31 24 28 64 106 125 114 77 71 112 173 139 100 116 88 63 60 92 117 124 102 95 89 99 90 80 95 129 141 107 96 84 107 100 74 53 41 37 36 123 126 73 37 23 21 15 18 9 6 4 1 0 0 0 0 0 0 0 0 0 0 0 0 0 0 0 0 0 0 0 0 0 0 0 0 0 0 0 0 0 0 0 0 0 0 0 0 0 0 0 0 0 0 
0 0 0 0 0 0 0 0 0 0 0 0 0 0 0 0 0 0 0 0 0 0 0 2 4 12 16 19 24 30 58 60 70 114 58 28 24 30 54 92 111 89 69 64 90 158 125 87 116 85 78 88 113 106 84 82 81 71 73 101 121 139 161 157 118 82 63 76 94 89 62 39 31 31 108 127 67 38 23 18 13 14 8 8 6 2 0 0 0 0 0 0 0 0 0 0 0 0 0 0 0 0 0 0 0 0 0 0 0 0 0 0 0 0 0 0 0 0 0 0 0 0 0 0 0 0 0 0 
0 0 0 0 0 0 0 0 0 0 0 0 0 0 0 0 0 0 0 0 0 0 0 0 6 7 12 15 22 29 57 51 74 115 61 32 29 34 75 107 76 61 69 62 84 141 135 123 146 76 98 134 103 72 67 91 94 67 69 113 143 136 165 161 129 90 55 52 59 86 83 44 30 32 91 127 59 45 25 14 11 12 6 7 7 3 0 0 0 0 0 0 0 0 0 0 0 0 0 0 0 0 0 0 0 0 0 0 0 0 0 0 0 0 0 0 0 0 0 0 0 0 0 0 0 0 0 0 
0 0 0 0 0 0 0 0 0 0 0 0 0 0 0 0 0 0 0 0 0 0 0 0 0 7 6 10 20 28 48 40 70 105 77 34 34 52 94 81 55 51 61 69 84 128 132 119 118 70 112 148 113 78 72 87 96 88 107 133 132 111 137 135 133 95 64 47 40 67 98 61 37 37 89 128 65 52 25 11 13 9 5 7 7 4 0 0 0 0 0 0 0 0 0 0 0 0 0 0 0 0 0 0 0 0 0 0 0 0 0 0 0 0 0 0 0 0 0 0 0 0 0 0 0 0 0 0 
0 0 0 0 0 0 0 0 0 0 0 0 0 0 0 0 0 0 0 0 0 0 0 0 0 1 9 8 17 22 38 57 63 80 94 32 38 82 99 58 49 47 62 69 84 119 127 86 71 63 118 142 132 112 97 97 119 140 152 121 101 108 114 126 129 95 67 58 45 53 97 101 52 39 93 100 55 33 23 15 14 7 5 7 8 5 1 0 0 0 0 0 0 0 0 0 0 0 0 0 0 0 0 0 0 0 0 0 0 0 0 0 0 0 0 0 0 0 0 0 0 0 0 0 0 0 0 0 
0 0 0 0 0 0 0 0 0 0 0 0 0 0 0 0 0 0 0 0 0 0 0 0 0 0 4 9 14 15 22 37 32 42 101 45 60 109 97 50 43 49 49 61 88 113 132 83 58 63 118 143 137 137 135 135 149 161 148 107 85 86 97 120 121 95 66 55 51 46 83 128 94 56 107 65 22 24 20 16 16 8 5 7 7 5 1 0 0 0 0 0 0 0 0 0 0 0 0 0 0 0 0 0 0 0 0 0 0 0 0 0 0 0 0 0 0 0 0 0 0 0 0 0 0 0 0 0 
0 0 0 0 0 0 0 0 0 0 0 0 0 0 0 0 0 0 0 0 0 0 0 0 0 0 1 6 8 16 19 22 22 19 58 88 101 108 85 64 42 47 47 58 83 82 123 104 66 68 89 126 146 147 137 134 158 155 109 62 54 62 107 122 100 87 67 49 46 49 79 103 115 88 91 29 20 24 18 15 14 7 4 8 8 6 1 0 0 0 0 0 0 0 0 0 0 0 0 0 0 0 0 0 0 0 0 0 0 0 0 0 0 0 0 0 0 0 0 0 0 0 0 0 0 0 0 0 
0 0 0 0 0 0 0 0 0 0 0 0 0 0 0 0 0 0 0 0 0 0 0 0 0 0 0 6 5 15 18 21 22 18 10 25 39 46 71 73 44 40 42 59 87 65 103 116 85 80 78 95 115 115 126 138 143 148 103 66 59 67 109 128 100 71 78 56 43 50 83 76 45 47 29 17 22 20 19 15 13 7 5 7 8 6 1 0 0 0 0 0 0 0 0 0 0 0 0 0 0 0 0 0 0 0 0 0 0 0 0 0 0 0 0 0 0 0 0 0 0 0 0 0 0 0 0 0 
0 0 0 0 0 0 0 0 0 0 0 0 0 0 0 0 0 0 0 0 0 0 0 0 0 0 0 1 8 9 18 21 20 20 10 5 9 23 55 80 55 36 44 72 91 63 106 124 97 86 90 86 90 99 118 143 142 138 119 80 68 85 105 130 102 68 94 76 45 60 89 68 27 24 18 16 21 20 18 16 12 8 5 6 8 6 1 0 0 0 0 0 0 0 0 0 0 0 0 0 0 0 0 0 0 0 0 0 0 0 0 0 0 0 0 0 0 0 0 0 0 0 0 0 0 0 0 0 
0 0 0 0 0 0 0 0 0 0 0 0 0 0 0 0 0 0 0 0 0 0 0 0 0 0 0 0 8 6 12 21 22 20 13 9 15 21 35 78 75 56 69 95 88 68 105 140 97 74 84 90 100 125 131 140 129 118 115 105 74 77 116 141 117 70 96 97 71 78 93 52 27 22 20 15 22 19 17 17 10 6 5 8 8 6 2 0 0 0 0 0 0 0 0 0 0 0 0 0 0 0 0 0 0 0 0 0 0 0 0 0 0 0 0 0 0 0 0 0 0 0 0 0 0 0 0 0 
0 0 0 0 0 0 0 0 0 0 0 0 0 0 0 0 0 0 0 0 0 0 0 0 0 0 0 0 1 10 7 16 21 20 14 9 12 20 28 51 85 91 94 101 67 60 115 152 111 73 74 80 102 126 129 133 122 109 113 131 91 59 115 150 132 67 83 98 92 97 73 33 28 25 20 18 19 14 16 13 9 5 2 6 8 6 3 0 0 0 0 0 0 0 0 0 0 0 0 0 0 0 0 0 0 0 0 0 0 0 0 0 0 0 0 0 0 0 0 0 0 0 0 0 0 0 0 0 
0 0 0 0 0 0 0 0 0 0 0 0 0 0 0 0 0 0 0 0 0 0 0 0 0 0 0 0 0 7 7 11 19 17 11 10 14 18 26 31 51 81 98 82 54 55 100 146 134 99 98 103 125 135 127 139 125 110 110 133 125 83 133 162 135 61 57 82 87 68 37 29 29 23 19 18 19 15 14 9 7 4 2 5 7 6 2 0 0 0 0 0 0 0 0 0 0 0 0 0 0 0 0 0 0 0 0 0 0 0 0 0 0 0 0 0 0 0 0 0 0 0 0 0 0 0 0 0 
0 0 0 0 0 0 0 0 0 0 0 0 0 0 0 0 0 0 0 0 0 0 0 0 0 0 0 0 0 4 8 7 16 19 12 7 13 18 22 28 35 38 49 44 29 41 83 147 154 141 138 122 134 140 138 143 130 118 119 122 128 138 155 165 120 61 46 42 37 42 37 29 27 22 20 19 16 16 12 6 7 3 2 5 6 5 1 0 0 0 0 0 0 0 0 0 0 0 0 0 0 0 0 0 0 0 0 0 0 0 0 0 0 0 0 0 0 0 0 0 0 0 0 0 0 0 0 0 
0 0 0 0 0 0 0 0 0 0 0 0 0 0 0 0 0 0 0 0 0 0 0 0 0 0 0 0 0 2 11 5 13 17 13 7 6 20 20 28 33 32 39 33 34 55 69 105 152 157 142 118 119 135 144 143 138 118 122 127 128 152 160 144 82 49 47 44 36 37 38 32 24 20 20 15 17 16 11 7 7 3 2 4 7 7 3 0 0 0 0 0 0 0 0 0 0 0 0 0 0 0 0 0 0 0 0 0 0 0 0 0 0 0 0 0 0 0 0 0 0 0 0 0 0 0 0 0 
