P2
128 99
208
0 0 0 0 0 0 0 0 0 0 0 0 0 0 0 0 0 0 0 0 0 0 0 0 0 0 0 0 0 0 0 0 0 0 0 0 0 0 0 0 0 1 0 0 0 0 0 0 0 0 0 0 0 0 0 0 0 0 0 0 0 0 0 0 0 0 0 0 0 0 0 0 0 0 0 0 0 0 0 0 0 0 0 0 1 0 0 0 0 0 0 0 0 0 0 0 2 1 0 0 0 0 0 0 0 0 0 0 0 0 0 0 0 0 0 0 0 0 0 0 0 0 0 0 0 0 0 0 
0 0 0 0 0 0 0 0 0 0 0 0 0 0 0 0 0 0 0 0 0 0 0 0 0 0 0 0 0 0 0 0 0 0 0 0 0 0 0 0 0 1 0 0 0 0 0 0 0 0 0 0 0 0 0 0 0 0 0 0 0 0 0 0 0 0 0 0 0 0 0 0 0 0 0 0 0 0 0 0 0 0 0 0 0 0 0 0 0 0 0 0 0 0 0 0 2 2 0 0 0 0 0 0 0 0 0 0 0 0 0 0 0 0 0 0 0 0 0 0 0 0 0 0 0 0 0 0 
0 0 0 0 0 0 0 0 0 0 0 0 0 0 0 0 0 0 0 0 0 0 0 0 0 0 0 0 0 0 0 0 0 0 0 0 0 0 0 0 0 1 1 0 0 0 0 0 0 0 0 1 2 2 1 0 0 0 0 0 0 0 0 0 0 0 0 0 0 0 0 0 0 0 0 0 0 0 0 0 0 0 0 0 1 1 0 0 0 0 0 0 0 0 0 0 2 2 0 0 0 0 0 0 0 0 0 0 0 0 0 0 0 0 0 0 0 0 0 0 0 0 0 0 0 0 0 0 
0 0 0 0 0 0 0 0 0 0 0 0 0 0 0 0 0 0 0 0 0 0 0 0 0 0 0 0 0 0 0 0 0 0 0 0 0 0 0 0 0 1 0 1 7 14 17 18 18 18 21 24 27 27 25 21 18 16 14 12 4 0 0 0 0 0 0 0 0 0 0 0 0 0 0 0 0 0 0 0 0 0 0 0 1 1 0 0 0 0 0 0 0 0 0 0 2 2 0 0 0 0 0 0 0 0 0 0 0 0 0 0 0 0 0 0 0 0 0 0 0 0 0 0 0 0 0 0 
0 0 0 0 0 0 0 0 0 0 0 0 0 0 0 0 0 0 0 0 0 0 0 0 0 0 0 0 0 0 0 0 0 0 0 0 0 0 0 0 6 14 20 23 24 33 54 78 100 120 136 146 151 152 148 138 123 102 79 54 33 22 17 11 2 0 0 0 0 0 0 0 0 0 0 0 0 0 0 0 0 0 0 0 0 1 0 0 0 0 0 0 0 0 0 0 2 2 0 0 0 0 0 0 0 0 0 0 0 0 0 0 0 0 0 0 0 0 0 0 0 0 0 0 0 0 0 0 
0 0 0 0 0 0 0 0 0 0 0 0 0 0 0 0 0 0 0 0 0 0 0 0 0 0 0 0 0 0 0 0 0 0 0 0 0 0 9 17 24 25 36 67 110 147 169 179 184 187 188 187 185 185 186 186 185 183 177 167 147 117 79 44 23 16 10 1 0 0 0 0 0 0 0 0 0 0 0 0 0 0 0 0 1 1 0 0 0 0 0 0 0 0 0 0 2 1 0 0 0 0 0 0 0 0 0 0 0 0 0 0 0 0 0 0 0 0 0 0 0 0 0 0 0 0 0 0 
0 0 0 0 0 0 0 0 0 0 0 0 0 0 0 0 0 0 0 0 0 0 0 0 0 0 0 0 0 0 0 0 0 0 0 0 9 21 23 26 52 102 149 175 185 188 188 190 192 194 196 197 198 197 198 197 196 193 189 187 186 181 171 153 121 76 39 19 13 2 0 0 0 0 0 0 0 0 0 0 0 0 0 0 1 1 0 0 0 0 0 0 0 0 0 1 2 1 0 0 0 0 0 0 0 0 0 0 0 0 0 0 0 0 0 0 0 0 0 0 0 0 0 0 0 0 0 0 
0 0 0 0 0 0 0 0 0 0 0 0 0 0 0 0 0 0 0 0 0 0 0 0 0 0 0 0 0 0 0 0 0 0 8 24 25 26 62 123 166 183 187 190 192 194 193 187 182 177 179 187 185 173 171 183 195 201 200 196 193 190 188 187 183 170 146 100 49 23 14 1 0 0 0 0 0 0 0 0 0 0 0 0 1 1 0 0 0 0 0 0 0 0 0 1 2 1 0 0 0 0 0 0 0 0 0 0 0 0 0 0 0 0 0 0 0 0 0 0 0 0 0 0 0 0 0 0 
0 0 0 0 0 0 0 0 0 0 0 0 0 0 0 0 0 0 0 0 0 0 0 0 0 0 0 0 0 0 0 0 5 27 26 23 58 127 169 182 184 188 192 195 193 184 174 163 156 153 154 156 154 147 148 153 162 179 198 205 202 198 195 192 189 188 187 178 154 102 44 23 10 0 0 0 0 0 0 0 0 0 0 0 1 1 0 0 0 0 0 0 0 0 0 1 2 1 0 0 0 0 0 0 0 0 0 0 0 0 0 0 0 0 0 0 0 0 0 0 0 0 0 0 0 0 0 0 
0 0 0 0 0 0 0 0 0 0 0 0 0 0 0 0 0 0 0 0 0 0 0 0 0 0 0 0 0 0 0 23 26 22 41 111 167 180 182 186 190 195 193 178 163 159 154 144 136 133 138 145 146 142 146 148 149 150 164 184 202 207 205 201 197 194 190 188 187 177 146 79 30 19 2 0 0 0 0 0 0 0 0 0 1 1 0 0 0 0 0 0 0 0 0 1 2 1 0 0 0 0 0 0 0 0 0 0 0 0 0 0 0 0 0 0 0 0 0 0 0 0 0 0 0 0 0 0 
0 0 0 0 0 0 0 0 0 0 0 0 0 0 0 0 0 0 0 0 0 0 0 0 0 0 0 0 0 10 28 22 26 82 156 179 182 185 189 195 198 187 169 163 158 148 142 136 133 134 136 141 139 138 141 147 146 145 148 154 169 189 202 208 207 203 198 195 190 189 187 171 119 45 23 6 0 0 0 0 0 0 0 0 1 0 0 0 0 0 0 0 0 0 0 1 2 1 0 0 0 0 0 0 0 0 0 0 0 0 0 0 0 0 0 0 0 0 0 0 0 0 0 0 0 0 0 0 
0 0 0 0 0 0 0 0 0 0 0 0 0 0 0 0 0 0 0 0 0 0 0 0 0 0 0 0 22 25 18 47 131 174 179 184 190 195 199 194 179 170 161 157 157 155 152 147 143 137 130 131 129 128 138 146 146 145 147 153 158 169 183 195 204 208 207 203 198 195 192 189 181 149 67 24 11 0 0 0 0 0 0 0 1 1 0 0 0 0 0 0 0 0 0 1 2 2 0 0 0 0 0 0 0 0 0 0 0 0 0 0 0 0 0 0 0 0 0 0 0 0 0 0 0 0 0 0 
0 0 0 0 0 0 0 0 0 0 0 0 0 0 0 0 0 0 0 0 0 0 0 0 0 0 5 26 20 19 76 156 176 183 188 195 200 200 187 174 169 166 158 153 147 145 144 140 143 137 129 128 127 126 134 143 144 143 144 145 150 160 169 177 188 199 206 208 207 202 197 194 189 182 159 84 24 12 0 0 0 0 0 0 1 1 0 0 0 0 0 0 0 0 0 1 2 2 0 0 0 0 0 0 0 0 0 0 0 0 0 0 0 0 0 0 0 0 0 0 0 0 0 0 0 0 0 0 
0 0 0 0 0 0 0 0 0 0 0 0 0 0 0 0 0 0 0 0 0 0 0 0 0 10 25 18 26 100 165 177 187 194 199 201 196 181 172 167 164 157 150 147 146 145 147 148 140 133 124 122 119 122 127 139 148 151 152 152 151 154 159 165 173 179 187 198 205 208 206 199 193 187 182 165 94 27 13 0 0 0 0 0 1 1 0 0 0 0 0 0 0 0 0 1 2 2 0 0 0 0 0 0 0 0 0 0 0 0 0 0 0 0 0 0 0 0 0 0 0 0 0 0 0 0 0 0 
0 0 0 0 0 0 0 0 0 0 0 0 0 0 0 0 0 0 0 0 0 0 0 0 14 23 16 34 117 168 178 189 197 202 199 188 174 170 166 161 157 155 157 154 148 147 140 132 130 125 121 120 118 122 123 123 132 144 147 146 147 147 152 159 161 165 170 176 184 196 204 206 201 194 187 183 168 104 30 13 0 0 0 0 1 1 0 0 0 0 0 0 0 0 0 1 2 2 0 0 0 0 0 0 0 0 0 0 0 0 0 0 0 0 0 0 0 0 0 0 0 0 0 0 0 0 0 0 
0 0 0 0 0 0 0 0 0 0 0 0 0 0 0 0 0 0 0 0 0 0 3 18 21 15 44 128 165 180 191 199 201 191 178 169 167 164 160 159 159 154 144 135 132 125 119 119 115 114 116 116 113 116 117 117 118 123 133 142 143 143 143 150 156 158 161 162 166 174 185 197 204 201 194 187 183 171 116 36 12 0 0 0 1 1 0 0 0 0 0 0 0 0 0 1 2 2 0 0 0 0 0 0 0 0 0 0 0 0 0 0 0 0 0 0 0 0 0 0 0 0 0 0 0 0 0 0 
0 0 0 0 0 0 0 0 0 0 0 0 0 0 0 0 0 0 0 0 0 5 17 16 17 57 137 165 181 193 201 199 182 170 164 163 160 159 160 155 149 140 135 130 122 117 116 115 118 120 121 118 116 121 122 123 124 124 123 127 130 131 133 137 143 151 153 156 160 161 166 175 188 200 201 194 190 184 170 124 39 9 0 1 1 1 0 0 0 0 0 0 0 0 0 1 2 2 0 0 0 0 0 0 0 0 0 0 0 0 0 0 0 0 0 0 0 0 0 0 0 0 0 0 0 0 0 0 
0 0 0 0 0 0 0 0 0 0 0 0 0 0 0 0 0 0 0 0 6 16 14 18 71 146 165 181 196 202 194 173 162 161 162 159 153 150 146 143 138 132 128 123 121 121 118 119 120 119 116 105 104 115 118 120 123 123 123 125 127 129 132 135 136 136 141 145 148 153 153 159 165 179 193 198 195 190 183 170 128 37 6 0 1 1 0 0 0 0 0 0 0 0 0 1 2 2 0 0 0 0 0 0 0 0 0 0 0 0 0 0 0 0 0 0 0 0 0 0 0 0 0 0 0 0 0 0 
0 0 0 0 0 0 0 0 0 0 0 0 0 0 0 0 0 0 0 6 16 13 19 78 149 165 180 193 200 190 168 157 156 157 154 148 144 140 134 125 127 129 126 123 123 120 116 117 116 112 114 106 110 120 120 121 122 122 121 122 124 124 123 126 129 129 129 137 145 146 145 144 153 161 172 190 198 196 190 181 169 121 28 4 1 1 0 0 0 0 0 0 0 0 0 1 2 2 0 0 0 0 0 0 0 0 0 0 0 0 0 0 0 0 0 0 0 0 0 0 0 0 0 0 0 0 0 0 
0 0 0 0 0 0 0 0 0 0 0 0 0 0 0 0 0 0 5 15 13 20 83 149 163 177 191 197 184 163 155 153 154 152 145 136 130 128 126 130 128 122 120 122 118 116 115 116 112 110 108 105 106 115 117 115 116 120 123 122 119 120 118 118 121 124 128 129 135 143 145 141 140 148 159 167 185 199 196 188 178 164 105 20 2 1 0 0 0 0 0 0 0 0 0 1 2 2 0 0 0 0 0 0 0 0 0 0 0 0 0 0 0 0 0 0 0 0 0 0 0 0 0 0 0 0 0 0 
0 0 0 0 0 0 0 0 0 0 0 0 0 0 0 0 0 2 15 13 19 80 146 160 172 187 196 182 162 152 151 151 146 143 133 125 128 125 128 124 120 118 115 111 111 111 109 106 107 105 100 99 101 108 111 113 116 114 114 115 116 117 117 113 113 119 125 131 128 130 137 143 139 138 148 156 162 181 199 194 185 173 155 82 11 1 0 0 0 0 0 0 0 0 0 1 2 2 0 0 0 0 0 0 0 0 0 0 0 0 0 0 0 0 0 0 0 0 0 0 0 0 0 0 0 0 0 0 
0 0 0 0 0 0 0 0 0 0 0 0 0 0 0 0 0 11 12 16 73 139 155 168 182 195 182 158 151 150 148 142 141 136 125 125 122 125 122 119 116 109 105 106 106 104 101 103 106 100 101 105 106 110 112 112 114 113 112 112 113 110 113 116 113 113 118 127 131 125 125 130 137 134 137 148 154 159 183 198 192 183 167 139 53 5 0 0 0 0 0 0 0 0 0 1 2 3 0 0 0 0 0 0 0 0 0 0 0 0 0 0 0 0 0 0 0 0 0 0 0 0 0 0 0 0 0 0 
0 0 0 0 0 0 0 0 0 0 0 0 0 0 0 0 6 13 14 59 131 149 162 179 192 183 157 151 147 145 140 135 131 127 125 119 124 124 118 113 108 106 104 104 104 104 106 107 104 101 102 104 105 112 112 111 112 111 110 109 109 105 102 103 107 109 109 121 128 127 122 122 126 135 130 136 147 149 155 185 198 190 176 159 115 26 2 0 0 0 0 0 0 0 0 1 2 3 0 0 0 0 0 0 0 0 0 0 0 0 0 0 0 0 0 0 0 0 0 0 0 0 0 0 0 0 0 0 
0 0 0 0 0 0 0 0 0 0 0 0 0 0 0 2 11 13 46 121 144 157 174 188 185 158 147 144 144 140 130 130 129 126 120 124 121 113 109 105 101 95 93 94 97 101 103 104 105 103 106 103 103 106 104 103 108 108 109 108 106 109 106 99 98 106 109 107 120 127 120 118 118 128 134 131 142 145 145 158 190 194 183 169 145 78 7 0 0 0 0 0 0 0 0 1 2 3 0 0 0 0 0 0 0 0 0 0 0 0 0 0 0 0 0 0 0 0 0 0 0 0 0 0 0 0 0 0 
0 0 0 0 0 0 0 0 0 0 0 0 0 0 0 8 11 26 101 136 151 167 183 184 163 146 141 141 141 134 129 129 126 118 119 121 110 106 103 96 89 92 97 101 101 103 103 100 99 101 106 106 102 102 101 101 102 104 105 109 111 109 108 103 100 102 109 110 110 121 123 118 115 117 131 135 137 141 142 144 166 191 187 175 158 120 31 1 0 0 0 0 0 0 0 1 2 3 0 0 0 0 0 0 0 0 0 0 0 0 0 0 0 0 0 0 0 0 0 0 0 0 0 0 0 0 0 0 
0 0 0 0 0 0 0 0 0 0 0 0 0 0 2 9 14 73 126 143 159 177 178 168 146 136 137 139 136 131 132 124 118 118 122 109 104 104 99 92 96 103 108 108 105 103 105 104 103 103 108 109 105 106 102 101 101 102 103 105 109 113 113 110 102 97 101 110 109 111 120 121 115 116 122 134 137 136 138 138 146 177 188 179 165 140 68 4 0 0 0 0 0 0 0 1 2 3 0 0 0 0 0 0 0 0 0 0 0 0 0 0 0 0 0 0 0 0 0 0 0 0 0 0 0 0 0 0 
0 0 0 0 0 0 0 0 0 0 0 0 0 0 6 9 40 112 134 149 169 175 166 155 135 132 136 137 132 135 126 119 117 119 112 99 101 102 99 100 106 110 110 106 105 106 108 109 105 104 110 111 107 106 99 102 103 102 100 100 102 108 112 113 109 101 93 101 110 108 111 121 120 114 118 132 140 136 134 130 136 159 180 181 171 151 105 16 0 0 0 0 0 0 0 1 2 3 0 0 0 0 0 0 0 0 0 0 0 0 0 0 0 0 0 0 0 0 0 0 0 0 0 0 0 0 0 0 
0 0 0 0 0 0 0 0 0 0 0 0 0 0 7 15 82 124 142 157 174 162 160 141 128 134 135 132 134 130 117 113 116 115 105 101 106 106 103 108 110 106 102 99 98 102 105 107 106 101 104 103 102 97 90 93 97 100 100 101 100 102 105 109 112 111 103 98 104 110 109 115 123 116 118 125 138 135 132 125 130 151 169 179 173 157 126 38 2 0 0 0 0 0 0 1 2 3 0 0 0 0 0 0 0 0 0 0 0 0 0 0 0 0 0 0 0 0 0 0 0 0 0 0 0 0 0 0 
0 0 0 0 0 0 0 0 0 0 0 0 0 3 7 37 109 133 146 166 167 158 150 129 128 131 130 130 134 120 115 117 118 109 105 108 108 104 106 106 100 96 96 97 98 100 102 103 104 101 100 100 104 101 101 97 95 96 94 95 95 97 100 103 106 111 111 106 100 106 110 110 122 121 115 126 135 135 128 123 124 147 161 178 174 162 137 60 3 0 0 0 0 0 0 1 2 3 0 0 0 0 0 0 0 0 0 0 0 0 0 0 0 0 0 0 0 0 0 0 0 0 0 0 0 0 0 0 
0 0 0 0 0 0 0 0 0 0 0 0 0 4 9 67 121 136 152 169 156 151 140 127 131 124 125 130 126 117 118 122 114 106 106 109 105 103 103 97 93 95 99 99 99 100 101 107 111 111 111 112 112 112 106 102 102 102 100 95 91 94 96 101 105 107 111 112 107 104 109 110 116 123 117 124 134 128 125 120 117 140 155 175 175 163 144 80 6 0 0 0 0 0 0 1 2 3 0 0 0 0 0 0 0 0 0 0 0 0 0 0 0 0 0 0 0 0 0 0 0 0 0 0 0 0 0 0 
0 0 0 0 0 0 0 0 0 0 0 0 0 6 16 93 127 142 161 163 145 141 135 126 123 119 123 127 118 117 123 119 112 107 109 108 105 102 98 96 98 94 94 100 108 110 110 111 110 105 104 105 109 106 98 93 94 97 102 105 105 101 98 101 104 106 110 112 115 110 107 111 113 120 122 118 128 124 122 120 117 134 149 171 175 164 147 97 10 0 0 0 0 0 0 1 2 3 0 0 0 0 0 0 0 0 0 0 0 0 0 0 0 0 0 0 0 0 0 0 0 0 0 0 0 0 0 0 
0 0 0 0 0 0 0 0 0 0 0 0 1 6 33 111 132 149 163 145 135 133 132 124 116 117 119 122 115 118 120 112 115 111 111 110 104 97 97 96 93 92 93 100 109 110 103 99 97 93 95 96 105 97 94 91 95 95 91 99 107 113 110 107 105 105 110 111 117 118 112 110 114 116 122 121 121 122 120 115 115 131 153 168 176 167 150 112 16 0 0 0 0 0 0 1 2 4 0 0 0 0 0 0 0 0 0 0 0 0 0 0 0 0 0 0 0 0 0 0 0 0 0 0 0 0 0 0 
0 0 0 0 0 0 0 0 0 0 0 0 2 6 49 118 136 154 155 136 131 129 136 120 112 115 116 120 115 114 112 112 113 111 113 110 100 97 95 89 91 96 102 101 98 103 97 89 91 95 98 99 101 99 96 94 96 98 99 98 96 101 105 104 103 103 106 116 118 119 119 110 111 115 120 125 117 117 116 111 110 128 150 162 177 170 155 125 26 0 0 0 0 0 0 1 2 4 0 0 0 0 0 0 0 0 0 0 0 0 0 0 0 0 0 0 0 0 0 0 0 0 0 0 0 0 0 0 
0 0 0 0 0 0 0 0 0 0 0 0 2 7 62 122 141 157 148 134 126 130 137 118 109 111 114 118 113 106 111 114 113 117 115 106 102 100 93 89 93 100 102 98 90 93 95 90 92 96 100 99 99 96 93 92 95 100 101 94 92 94 103 107 105 102 104 112 118 117 119 118 111 113 119 124 112 108 114 111 112 130 152 162 179 175 160 135 37 1 0 0 0 0 0 1 2 4 0 0 0 0 0 0 0 0 0 0 0 0 0 0 0 0 0 0 0 0 0 0 0 0 0 0 0 0 0 0 
0 0 0 0 0 0 0 0 0 0 0 0 3 9 71 127 145 155 147 138 128 132 134 119 110 109 111 116 105 102 115 114 118 116 109 109 103 101 104 97 98 102 102 98 90 84 90 95 95 96 101 100 96 94 92 93 90 94 97 93 92 90 95 100 105 110 108 115 121 120 119 118 117 114 116 122 110 103 113 109 111 135 153 163 178 177 163 144 49 2 0 0 0 0 0 1 2 3 0 0 0 0 0 0 0 0 0 0 0 0 0 0 0 0 0 0 0 0 0 0 0 0 0 0 0 0 0 0 
0 0 0 0 0 0 0 0 0 0 0 0 4 11 79 131 150 159 148 141 131 133 133 121 111 110 110 113 101 103 117 118 119 113 108 112 108 104 112 119 117 108 100 96 94 92 90 94 95 96 101 103 97 97 97 93 86 85 89 90 93 91 94 101 109 113 116 118 120 120 123 121 117 118 120 126 113 104 109 108 115 136 151 161 178 177 166 151 61 3 0 0 0 0 0 1 2 3 0 0 0 0 0 0 0 0 0 0 0 0 0 0 0 0 0 0 0 0 0 0 0 0 0 0 0 0 0 0 
0 0 0 0 0 0 0 0 0 0 0 0 4 13 85 135 154 162 150 143 136 136 133 122 114 111 109 109 100 106 123 123 118 113 113 111 109 105 107 106 100 96 101 101 99 96 94 93 94 96 101 104 104 102 100 89 81 74 78 87 90 95 104 107 102 99 93 92 99 102 108 115 122 127 130 131 123 108 108 111 122 136 149 156 176 181 169 153 75 5 0 0 0 0 0 1 2 3 0 0 0 0 0 0 0 0 0 0 0 0 0 0 0 0 0 0 0 0 0 0 0 0 0 0 0 0 0 0 
0 0 0 0 0 0 0 0 0 0 0 0 4 13 87 137 156 163 148 143 140 140 136 127 120 113 110 101 101 113 129 121 122 118 107 103 97 88 84 87 87 84 83 88 96 103 101 97 91 88 94 104 112 109 101 92 85 76 80 84 91 104 100 92 89 87 88 87 91 97 99 99 106 123 137 139 137 118 112 119 126 135 143 150 171 183 172 156 89 7 0 0 0 0 0 1 2 3 0 0 0 0 0 0 0 0 0 0 0 0 0 0 0 0 0 0 0 0 0 0 0 0 0 0 0 0 0 0 
0 0 0 0 0 0 0 0 0 0 0 0 6 14 91 142 160 162 150 144 140 140 137 134 128 119 114 98 103 124 128 125 126 106 93 88 85 83 84 89 85 81 78 81 88 96 101 103 94 91 97 105 113 111 103 95 86 77 80 88 101 93 89 88 90 94 97 97 101 106 104 100 98 106 133 148 148 132 120 124 129 130 137 145 160 181 175 160 102 10 0 0 0 0 0 1 2 3 0 0 0 0 0 0 0 0 0 0 0 0 0 0 0 0 0 0 0 0 0 0 0 0 0 0 0 0 0 0 
0 0 0 0 0 0 0 0 0 0 0 0 7 14 94 145 159 161 148 141 138 136 134 134 132 124 119 107 109 128 131 131 111 89 89 91 89 89 93 94 92 84 80 84 88 95 98 105 96 95 102 108 117 116 111 101 88 82 82 98 93 87 85 84 87 91 93 95 96 103 107 108 105 110 128 152 152 143 129 129 127 125 131 138 151 174 176 161 115 15 0 0 0 0 0 1 2 3 0 0 0 0 0 0 0 0 0 0 0 0 0 0 0 0 0 0 0 0 0 0 0 0 0 0 0 0 0 0 
0 0 0 0 0 0 0 0 0 0 0 0 7 14 95 146 162 163 143 136 135 135 130 126 130 129 121 117 129 129 137 127 98 88 92 92 88 89 90 88 85 84 84 87 90 90 97 102 101 95 97 112 121 118 122 110 96 86 81 100 86 81 80 82 87 92 96 99 100 106 108 107 111 120 129 137 148 142 139 130 124 120 126 130 142 166 175 161 125 23 0 0 0 0 0 1 2 3 0 0 0 0 0 0 0 0 0 0 0 0 0 0 0 0 0 0 0 0 0 0 0 0 0 0 0 0 0 0 
0 0 0 0 0 0 0 0 0 0 0 0 7 15 97 148 163 164 134 130 133 131 127 121 126 129 123 115 133 137 143 128 109 100 99 92 87 87 85 84 83 83 86 88 89 90 94 97 97 95 100 109 119 115 123 107 94 88 98 100 81 76 81 89 94 97 97 97 98 104 108 107 113 114 117 124 131 136 142 131 120 117 122 121 132 159 174 162 131 33 1 0 0 0 0 1 2 3 0 0 0 0 0 0 0 0 0 0 0 0 0 0 0 0 0 0 0 0 0 0 0 0 0 0 0 0 0 0 
0 0 0 0 0 0 0 0 0 0 0 0 8 16 98 148 165 164 132 130 130 128 123 116 120 121 120 115 131 133 137 125 114 105 101 96 95 92 88 86 87 90 91 90 89 89 90 94 95 97 104 116 112 108 115 115 107 103 104 92 76 79 88 91 91 92 95 96 94 102 108 107 109 110 114 119 123 131 139 131 117 111 115 113 121 148 170 162 134 42 1 0 0 0 0 1 2 3 0 0 0 0 0 0 0 0 0 0 0 0 0 0 0 0 0 0 0 0 0 0 0 0 0 0 0 0 0 0 
0 0 0 0 0 0 0 0 0 0 0 0 8 17 101 150 167 162 129 128 127 123 117 109 114 118 120 114 123 124 125 117 106 103 98 93 93 91 88 84 84 88 93 94 89 87 89 93 98 101 105 106 102 108 106 115 110 108 107 85 79 83 87 91 91 90 91 93 94 100 105 105 107 109 113 113 123 129 136 128 113 107 111 109 114 136 167 161 138 50 2 0 0 0 0 1 2 3 0 0 0 0 0 0 0 0 0 0 0 0 0 0 0 0 0 0 0 0 0 0 0 0 0 0 0 0 0 0 
0 0 0 0 0 0 0 0 0 0 0 0 8 17 101 152 168 157 122 122 119 115 108 100 107 111 115 117 117 117 118 114 97 99 94 89 89 88 89 84 82 87 89 88 85 87 88 90 101 102 112 107 101 103 101 112 111 113 108 86 83 84 88 87 83 86 89 90 92 99 106 103 103 105 108 112 122 127 130 130 117 105 107 106 106 124 152 159 141 57 2 0 0 0 0 1 2 3 0 0 0 0 0 0 0 0 0 0 0 0 0 0 0 0 0 0 0 0 0 0 0 0 0 0 0 0 0 0 
0 0 0 0 0 0 0 0 0 0 0 0 8 18 100 153 168 151 115 115 111 108 102 94 100 105 112 121 119 115 115 111 96 94 91 85 86 85 86 82 82 87 87 87 82 84 89 88 89 100 117 120 111 99 101 95 115 111 105 89 88 88 89 80 80 85 87 88 93 99 104 100 98 106 106 110 121 124 126 134 125 105 105 107 107 119 134 150 141 61 3 0 0 0 0 1 2 3 0 0 0 0 0 0 0 0 0 0 0 0 0 0 0 0 0 0 0 0 0 0 0 0 0 0 0 0 0 0 
0 0 0 0 0 0 0 0 0 0 0 0 8 17 97 152 167 143 114 111 104 104 101 95 98 100 115 120 116 114 114 111 99 94 92 88 86 87 89 86 85 88 90 88 86 87 92 86 82 94 108 117 98 89 91 80 102 116 96 93 90 87 82 82 84 87 89 89 92 99 102 96 97 103 104 113 121 126 132 135 128 106 102 105 107 119 130 150 141 62 3 0 0 0 0 1 2 3 0 0 0 0 0 0 0 0 0 0 0 0 0 0 0 0 0 0 0 0 0 0 0 0 0 0 0 0 0 0 
0 0 0 0 0 0 0 0 0 0 0 0 7 16 92 150 164 135 113 108 103 106 101 98 98 102 116 115 114 115 117 112 100 95 94 90 87 88 91 89 87 84 82 82 84 87 90 84 83 99 111 102 82 77 86 77 82 117 88 93 90 86 81 88 88 90 90 89 92 100 100 92 98 101 103 117 130 135 129 132 128 106 101 103 107 116 130 153 136 60 2 0 0 0 0 1 2 2 0 0 0 0 0 0 0 0 0 0 0 0 0 0 0 0 0 0 0 0 0 0 0 0 0 0 0 0 0 0 
0 0 0 0 0 0 0 0 0 0 0 0 6 14 83 148 162 130 109 107 102 105 102 98 96 100 116 113 112 116 125 116 99 96 93 88 88 91 91 89 87 87 80 76 80 84 90 85 86 102 108 86 80 79 86 76 77 108 105 88 86 81 80 88 88 88 90 91 93 98 96 93 100 97 101 116 134 129 123 129 126 107 101 102 105 114 129 151 131 55 2 0 0 0 0 1 2 2 0 0 0 0 0 0 0 0 0 0 0 0 0 0 0 0 0 0 0 0 0 0 0 0 0 0 0 0 0 0 
0 0 0 0 0 0 0 0 0 0 0 0 4 14 77 143 160 132 112 107 101 102 104 99 94 93 113 114 111 116 126 120 102 96 92 92 88 92 94 93 89 89 81 76 77 80 82 74 87 104 101 83 83 85 90 76 74 87 112 96 85 79 80 87 87 91 91 92 90 94 92 92 97 93 103 116 128 126 120 126 124 104 102 100 103 112 133 147 125 49 2 0 0 0 0 1 2 2 0 0 0 0 0 0 0 0 0 0 0 0 0 0 0 0 0 0 0 0 0 0 0 0 0 0 0 0 0 0 
0 0 0 0 0 0 0 0 0 0 0 0 2 14 71 138 157 137 114 107 101 99 102 101 95 88 108 116 113 114 122 118 101 95 93 92 90 93 95 94 92 88 80 77 74 75 75 75 92 104 89 82 80 90 95 78 75 75 105 106 99 87 81 87 88 90 91 89 88 91 90 95 94 91 103 114 121 127 121 122 122 101 103 99 102 110 136 142 117 44 1 0 0 0 0 1 2 2 0 0 0 0 0 0 0 0 0 0 0 0 0 0 0 0 0 0 0 0 0 0 0 0 0 0 0 0 0 0 
0 0 0 0 0 0 0 0 0 7 6 0 0 12 61 131 153 139 115 103 101 98 101 102 97 88 104 117 114 110 116 116 101 94 94 91 92 90 94 93 92 90 83 77 82 92 89 87 95 94 88 81 81 93 95 83 77 77 92 109 114 109 98 95 94 94 96 92 89 92 90 96 91 93 103 111 120 124 125 124 121 100 100 95 99 110 136 136 106 37 1 0 0 0 0 1 2 3 0 0 0 0 0 0 0 0 0 0 0 0 0 0 0 0 0 0 0 0 0 0 0 0 0 0 0 0 0 0 
0 0 0 0 0 0 0 0 0 3 8 4 1 10 51 124 151 138 114 102 99 97 100 102 97 88 102 119 117 108 111 115 101 92 93 92 91 92 93 93 99 95 92 86 88 93 99 89 100 89 87 83 80 93 91 86 84 81 84 113 117 122 113 100 92 93 92 95 93 92 89 93 92 93 104 116 121 123 123 131 126 103 97 96 98 111 137 130 98 32 1 0 0 0 0 1 2 3 0 0 0 0 0 0 0 0 0 0 0 0 0 0 0 0 0 0 0 0 0 0 0 0 0 0 0 0 0 0 
0 0 0 0 0 0 0 0 0 1 4 9 3 8 41 114 145 137 111 101 95 95 100 101 100 89 102 119 117 112 113 116 103 96 94 92 88 90 94 97 99 93 92 91 101 107 101 96 105 80 86 83 84 98 92 81 87 85 92 115 123 118 114 112 105 104 102 98 96 94 88 91 96 101 106 121 125 120 119 136 131 111 96 96 97 117 139 125 90 26 1 0 0 0 0 1 2 2 0 0 0 0 0 0 0 0 0 0 0 0 0 0 0 0 0 0 0 0 0 0 0 0 0 0 0 0 0 0 
0 0 0 0 0 0 0 0 0 0 5 10 4 7 32 100 139 140 111 102 98 99 99 99 101 92 106 115 117 116 121 124 115 98 96 90 87 94 104 105 104 103 106 111 102 94 90 101 108 84 84 85 87 107 96 86 86 83 89 117 137 118 109 110 111 121 132 125 124 121 121 116 120 125 134 135 125 118 125 139 132 128 102 96 105 127 140 118 83 18 1 0 1 8 4 1 2 2 0 0 0 0 0 0 0 0 0 0 0 0 0 0 0 0 0 0 0 0 0 0 0 0 0 0 0 0 0 0 
0 0 0 0 0 0 0 0 0 0 3 10 5 7 25 89 134 145 115 107 102 96 96 98 99 100 107 113 120 115 122 124 122 121 114 103 104 109 118 121 116 109 96 96 106 95 88 106 109 86 85 90 91 107 99 85 83 84 92 124 137 116 108 106 107 119 140 147 141 140 145 145 140 130 128 138 140 124 126 135 134 128 116 108 107 136 134 112 75 11 3 2 5 2 1 1 2 2 0 0 0 0 0 0 0 0 0 0 0 0 0 0 0 0 0 0 0 0 0 0 0 0 0 0 0 0 0 0 
0 0 0 0 0 0 0 0 0 0 2 8 6 7 19 79 128 148 130 110 104 93 93 98 101 113 110 115 119 115 121 122 118 117 117 120 123 119 120 119 116 110 108 109 105 97 91 107 115 94 90 95 95 111 99 86 86 91 101 126 130 117 105 104 104 120 140 148 146 148 144 137 135 124 128 135 142 137 138 132 134 129 122 127 141 139 119 109 66 8 2 1 5 1 0 1 2 2 0 0 0 0 0 0 0 0 0 0 0 0 0 0 0 0 0 0 0 0 0 0 0 0 0 0 0 0 0 0 
0 0 0 0 0 0 0 0 0 0 1 6 7 9 14 67 118 145 145 114 106 94 95 108 114 115 117 123 119 120 129 128 131 128 116 120 118 117 117 115 109 104 101 98 97 94 97 105 117 106 89 88 92 105 97 84 87 95 103 113 116 118 110 111 114 129 143 150 149 145 136 137 145 145 144 152 148 152 158 151 147 144 140 149 161 139 106 104 51 6 2 3 2 2 0 1 2 3 0 0 0 0 0 0 0 0 0 0 0 0 0 0 0 0 0 0 0 0 0 0 0 0 0 0 0 0 0 0 
0 0 0 0 0 0 0 0 0 0 0 6 9 10 13 53 110 141 149 129 111 110 113 115 123 121 124 131 123 119 136 142 142 150 150 139 136 134 125 111 102 91 96 92 87 82 96 110 114 92 84 89 83 104 90 87 89 96 102 105 113 113 115 114 117 134 148 151 153 147 147 150 149 141 136 143 144 150 156 157 167 169 164 172 175 127 117 100 31 7 3 2 2 1 0 1 2 2 0 0 0 0 0 0 0 0 0 0 0 0 0 0 0 0 0 0 0 0 0 0 0 0 0 0 0 0 0 0 
0 0 0 0 0 0 0 0 0 0 1 7 11 8 9 37 105 140 147 144 133 143 134 131 139 136 138 134 126 132 143 151 151 157 156 144 145 143 131 113 109 103 100 93 91 88 108 112 99 86 86 91 93 115 97 87 86 95 105 105 111 108 106 113 122 130 131 136 145 153 148 144 138 129 141 140 141 145 157 166 168 172 179 177 159 119 115 83 16 6 3 1 2 0 0 1 2 2 0 0 0 0 0 0 0 0 0 0 0 0 0 0 0 0 0 0 0 0 0 0 0 0 0 0 0 0 0 0 
0 0 0 0 0 0 0 0 0 0 0 4 10 8 8 12 60 125 144 142 149 166 171 156 154 150 140 138 132 131 153 156 149 147 153 145 144 143 136 118 111 108 108 99 96 96 108 109 100 90 90 96 96 110 114 94 85 92 98 105 104 100 108 116 119 120 121 128 135 137 131 130 130 125 141 147 148 145 151 156 166 167 167 166 145 116 114 90 17 5 5 2 2 1 0 0 2 2 0 0 0 0 0 0 0 0 0 0 0 0 0 0 0 0 0 0 0 0 0 0 0 0 0 0 0 0 0 0 
0 0 0 0 0 0 0 0 0 0 0 6 7 6 8 10 37 113 145 146 152 167 168 169 161 162 158 148 129 125 141 150 150 147 156 146 143 152 137 111 101 104 103 101 99 101 112 108 100 95 94 101 101 115 115 99 84 81 88 92 100 97 97 110 112 114 121 127 131 124 126 124 119 133 141 150 144 139 140 144 152 162 153 138 115 117 116 62 9 4 6 4 2 1 0 0 2 1 0 0 0 0 0 0 0 0 0 0 0 0 0 0 0 0 0 0 0 0 0 0 0 0 0 0 0 0 0 0 
0 0 0 0 0 0 0 0 0 0 0 6 5 7 5 10 23 90 141 144 148 153 154 142 159 161 153 145 140 135 130 134 141 149 156 151 143 146 131 118 106 102 103 106 100 97 110 98 92 96 98 98 93 111 118 104 81 80 92 90 102 112 113 108 100 98 114 125 129 131 132 126 127 140 148 151 145 145 137 138 142 152 128 117 117 121 105 33 5 3 5 5 2 1 0 0 2 1 0 0 0 0 0 0 0 0 0 0 0 0 0 0 0 0 0 0 0 0 0 0 0 0 0 0 0 0 0 0 
0 0 0 0 0 0 0 0 0 0 0 4 3 4 5 10 17 62 131 142 142 138 151 147 136 147 148 140 137 139 133 125 135 140 139 144 143 136 128 124 108 100 98 99 98 103 116 100 104 112 107 99 92 100 116 120 93 92 101 96 109 120 124 124 107 94 95 104 110 114 119 118 121 143 153 154 153 148 141 135 125 132 126 120 118 118 76 16 6 4 5 4 2 2 0 0 2 1 0 0 0 0 0 0 0 0 0 0 0 0 0 0 0 0 0 0 0 0 0 0 0 0 0 0 0 0 0 0 
0 0 0 0 0 0 0 0 0 0 1 4 3 3 4 10 15 33 110 133 130 133 143 149 147 144 133 124 130 143 141 129 118 115 130 141 144 135 127 108 97 96 104 110 111 112 129 112 117 118 120 111 101 101 123 122 109 106 108 106 105 118 116 122 120 99 90 88 93 102 107 121 131 142 143 151 155 155 151 141 137 132 118 99 103 107 42 12 6 6 5 2 2 3 0 0 2 1 0 0 0 0 0 0 0 0 0 0 0 0 0 0 0 0 0 0 0 0 0 0 0 0 0 0 0 0 0 0 
0 0 0 0 0 0 0 0 0 0 1 3 4 4 2 9 15 18 80 120 119 130 138 147 140 142 133 119 128 143 141 136 120 115 128 137 144 141 121 99 84 94 104 110 106 110 121 118 121 119 128 126 110 107 132 129 110 101 112 113 109 123 124 123 120 108 88 84 93 110 114 130 129 131 134 144 154 156 170 163 141 119 102 85 99 85 20 12 7 8 5 1 0 3 0 0 2 1 0 0 0 0 0 0 0 0 0 0 0 0 0 0 0 0 0 0 0 0 0 0 0 0 0 0 0 0 0 0 
0 0 0 0 0 0 0 0 0 0 1 3 4 4 2 5 12 14 47 113 127 124 135 149 148 144 134 135 141 144 145 132 114 115 113 119 121 112 105 99 92 98 102 108 116 123 125 124 129 130 140 141 144 150 150 136 132 136 132 127 127 140 140 138 124 108 93 89 102 117 113 114 124 118 129 140 154 168 179 170 131 111 88 83 103 57 14 13 7 8 6 0 1 3 0 0 2 1 0 0 0 0 0 0 0 0 0 0 0 0 0 0 0 0 0 0 0 0 0 0 0 0 0 0 0 0 0 0 
0 0 0 0 0 0 0 0 0 0 1 3 4 3 1 5 11 13 27 99 125 116 123 134 154 151 148 144 151 148 147 141 127 120 111 118 109 91 89 104 107 114 107 113 126 136 134 137 150 151 149 150 159 166 168 158 152 149 140 140 146 161 163 151 134 120 117 117 117 121 112 114 122 117 121 141 151 176 172 157 127 101 79 90 97 32 12 12 6 6 6 1 2 3 1 0 2 1 0 0 0 0 0 0 0 0 0 0 0 0 0 0 0 0 0 0 0 0 0 0 0 0 0 0 0 0 0 0 
0 0 0 0 0 0 0 0 0 0 0 3 4 1 2 5 11 12 16 67 113 112 103 120 144 158 154 150 148 146 146 141 129 121 115 118 113 103 98 106 132 134 128 128 136 146 149 147 152 144 139 142 143 146 152 152 149 145 134 133 143 160 164 161 149 143 138 133 138 117 103 101 114 119 112 136 154 173 157 142 125 111 91 99 80 19 10 10 6 4 4 1 1 3 1 0 2 1 0 0 0 0 0 0 0 0 0 0 0 0 0 0 0 0 0 0 0 0 0 0 0 0 0 0 0 0 0 0 
0 0 0 0 0 0 0 0 0 0 1 3 6 2 2 5 9 10 12 39 91 104 101 111 130 149 154 160 149 145 142 143 131 123 115 113 113 117 122 126 133 148 152 143 149 146 148 151 148 146 139 141 141 147 146 144 146 147 133 133 136 149 166 166 165 160 152 153 143 110 97 98 108 115 117 140 156 165 142 126 114 102 102 95 63 16 9 9 5 3 2 0 2 3 1 0 2 1 0 0 0 0 0 0 0 0 0 0 0 0 0 0 0 0 0 0 0 0 0 0 0 0 0 0 0 0 0 0 
0 0 0 0 0 0 0 0 0 0 0 5 13 9 3 4 8 9 10 28 78 108 112 104 117 137 153 157 152 141 142 139 131 116 106 109 108 111 118 126 135 151 165 168 165 159 160 154 147 147 146 156 156 153 148 141 148 151 136 137 141 146 157 162 165 160 154 156 145 110 89 92 106 122 141 154 157 157 142 122 93 86 93 98 57 15 9 6 6 3 2 1 2 3 1 0 2 0 0 0 0 0 0 0 0 0 0 0 0 0 0 0 0 0 0 0 0 0 0 0 0 0 0 0 0 0 0 0 
0 0 0 0 0 0 0 0 0 0 0 4 12 13 10 8 8 10 12 20 64 97 110 109 113 119 145 151 161 143 132 129 129 105 95 101 104 107 113 117 126 138 155 163 166 163 166 160 151 153 155 162 160 157 149 131 135 143 130 128 133 144 139 164 172 166 164 160 146 108 90 95 104 119 155 170 174 170 150 104 82 83 95 90 39 15 6 4 5 3 2 1 3 4 1 0 1 0 0 0 0 0 0 0 0 0 0 0 0 0 0 0 0 0 0 0 0 0 0 0 0 0 0 0 0 0 0 0 
0 0 0 0 0 0 0 0 0 0 0 2 10 11 10 8 8 12 15 17 34 81 110 115 102 108 139 157 166 150 136 125 128 107 87 94 102 108 109 108 111 132 153 157 160 160 152 151 152 152 155 167 164 160 140 114 112 125 124 120 127 144 154 161 182 175 171 160 145 121 100 96 105 130 157 162 170 155 139 92 70 76 79 65 20 15 8 6 5 5 5 5 7 4 2 0 1 0 0 0 0 0 0 0 0 0 0 0 0 0 0 0 0 0 0 0 0 0 0 0 0 0 0 0 0 0 0 0 
0 0 0 0 0 0 0 0 0 0 0 2 10 11 9 9 9 9 13 15 18 49 103 107 107 105 121 150 164 163 150 134 123 121 102 93 92 92 96 101 122 140 153 153 152 152 148 146 148 141 147 150 140 156 151 127 121 125 126 124 141 158 155 172 177 175 169 159 155 124 127 119 135 145 143 143 126 103 103 77 60 85 88 36 12 9 10 7 5 6 6 5 12 5 2 0 1 0 0 0 0 0 0 0 0 0 0 0 0 0 0 0 0 0 0 0 0 0 0 0 0 0 0 0 0 0 0 0 
0 0 0 0 0 0 0 0 0 0 0 0 9 10 6 6 5 5 9 15 20 28 69 96 93 90 110 143 154 162 160 143 130 137 119 101 101 104 110 126 135 158 173 168 164 154 159 161 165 166 161 150 151 173 177 158 152 158 158 150 157 163 177 177 170 167 156 173 163 159 151 138 138 135 110 95 90 83 92 75 95 95 53 16 10 2 2 5 5 4 5 6 8 4 0 0 1 0 0 0 0 0 0 0 0 0 0 0 0 0 0 0 0 0 0 0 0 0 0 0 0 0 0 0 0 0 0 0 
0 0 0 0 0 0 0 0 0 0 0 0 3 7 4 2 2 2 5 10 17 22 39 78 86 74 87 102 102 135 141 144 137 140 130 108 107 113 124 138 163 171 182 184 189 187 178 187 180 171 169 168 171 177 178 165 162 177 184 179 180 185 200 199 193 194 179 179 135 135 137 131 98 78 73 81 83 84 86 74 69 50 29 21 15 2 1 2 2 4 4 6 7 1 0 0 1 0 0 0 0 0 0 0 0 0 0 0 0 0 0 0 0 0 0 0 0 0 0 0 0 0 0 0 0 0 0 0 
0 0 0 0 0 0 0 0 0 0 0 0 0 3 3 2 1 1 0 6 11 22 27 45 78 84 66 51 61 75 96 111 135 137 127 119 112 132 152 170 177 166 166 172 176 186 181 174 177 164 155 167 171 175 175 169 158 165 173 172 169 183 201 184 171 185 183 169 145 127 115 90 77 65 69 85 89 85 70 49 41 37 33 25 20 1 1 1 1 2 2 7 6 0 0 0 1 0 0 0 0 0 0 0 0 0 0 0 0 0 0 0 0 0 0 0 0 0 0 0 0 0 0 0 0 0 0 0 
0 0 0 0 0 0 0 0 0 0 0 0 0 2 5 4 4 2 3 4 9 14 19 22 37 51 35 40 63 62 67 66 83 87 79 96 84 72 75 74 89 117 145 152 135 129 126 115 122 99 87 108 119 132 128 114 98 98 110 100 94 106 99 131 120 154 123 86 65 64 57 60 64 49 59 81 82 82 51 30 28 26 18 7 3 1 3 4 3 2 2 7 5 0 0 0 1 0 0 0 0 0 0 0 0 0 0 0 0 0 0 0 0 0 0 0 0 0 0 0 0 0 0 0 0 0 0 0 
0 0 0 0 0 0 0 0 0 0 0 0 0 0 3 2 3 3 2 1 6 10 13 16 21 21 23 32 63 63 61 62 63 66 57 61 70 62 65 67 80 85 84 80 84 90 76 66 72 75 57 71 83 89 87 84 73 60 71 75 80 97 84 80 74 90 90 89 97 100 60 59 67 58 62 79 82 79 47 29 28 25 15 6 2 1 2 2 1 2 3 4 1 0 0 0 1 0 0 0 0 0 0 0 0 0 0 0 0 0 0 0 0 0 0 0 0 0 0 0 0 0 0 0 0 0 0 0 
0 0 0 0 0 0 0 0 0 0 0 0 0 0 0 0 0 0 0 0 4 10 10 14 20 24 26 36 66 72 65 63 67 70 65 63 71 91 113 112 127 133 103 95 96 100 93 98 102 92 75 89 95 99 97 96 95 84 101 113 112 120 106 101 120 145 119 106 109 79 75 70 84 75 72 83 86 77 46 30 28 23 13 8 2 0 0 0 0 1 1 1 0 0 0 0 1 1 0 0 0 0 0 0 0 0 0 0 0 0 0 0 0 0 0 0 0 0 0 0 0 0 0 0 0 0 0 0 
0 0 0 0 0 0 0 0 0 0 0 0 0 0 0 0 0 0 0 0 0 3 4 8 13 26 35 46 75 86 82 72 84 93 87 81 88 113 129 137 157 161 158 135 137 153 154 151 143 120 119 133 131 133 131 134 131 131 132 147 152 156 145 152 148 148 131 132 93 103 130 101 92 84 81 78 76 70 47 32 25 15 11 10 2 0 0 0 0 0 0 0 0 0 0 0 1 1 0 0 0 0 0 0 0 0 0 0 0 0 0 0 0 0 0 0 0 0 0 0 0 0 0 0 0 0 0 0 
0 0 0 0 0 0 0 0 0 0 0 0 0 0 0 0 0 0 0 0 0 2 3 5 8 20 27 38 59 78 77 79 95 111 118 108 106 123 105 99 159 171 165 149 162 177 172 171 155 161 160 158 160 164 165 160 162 156 153 156 151 161 169 156 169 138 147 127 125 124 129 137 112 95 77 75 74 52 28 24 19 10 5 2 0 0 0 0 0 0 0 0 0 0 0 0 1 2 0 0 0 0 0 0 0 0 0 0 0 0 0 0 0 0 0 0 0 0 0 0 0 0 0 0 0 0 0 0 
0 0 0 0 0 0 0 0 0 0 0 0 0 0 0 0 0 0 0 0 0 1 2 4 8 16 25 33 50 72 75 69 72 74 78 75 81 95 106 105 120 123 122 98 123 136 149 163 164 150 140 129 139 136 142 132 140 136 131 132 136 143 133 138 129 136 145 136 142 140 103 73 53 60 69 86 80 44 24 21 12 7 5 1 1 1 2 2 1 1 0 0 0 0 1 1 3 6 0 0 0 0 0 0 0 0 0 0 0 0 0 0 0 0 0 0 0 0 0 0 0 0 0 0 0 0 0 0 
0 0 0 0 0 0 0 0 0 0 0 0 0 0 0 0 0 0 0 0 0 0 4 7 9 15 20 22 32 53 68 65 65 66 54 51 53 83 94 117 108 106 100 86 92 121 124 132 120 115 119 93 106 106 101 85 96 98 94 103 120 128 117 93 118 123 127 111 128 122 97 73 54 61 71 98 83 44 24 16 18 13 8 1 0 0 1 2 1 1 0 0 0 0 0 0 2 1 0 0 0 0 0 0 0 0 0 0 0 0 0 0 0 0 0 0 0 0 0 0 0 0 0 0 0 0 0 0 
0 0 0 0 0 0 0 0 0 0 0 0 0 0 0 0 0 0 0 0 0 0 2 6 9 13 19 20 25 44 61 72 71 70 56 48 49 68 86 96 95 97 98 102 108 119 131 131 121 112 108 92 92 93 100 92 102 108 110 103 105 108 99 80 81 101 120 126 118 106 90 62 49 56 80 106 86 47 26 19 18 12 6 1 0 0 1 2 2 1 0 0 0 0 0 0 1 0 0 0 0 0 0 0 0 0 0 0 0 0 0 0 0 0 0 0 0 0 0 0 0 0 0 0 0 0 0 0 
0 0 0 0 0 0 0 0 0 0 0 0 0 0 0 0 0 0 0 0 0 0 0 4 9 10 16 21 23 39 55 75 74 72 61 48 48 65 78 95 90 88 90 92 105 116 118 126 124 114 106 98 96 99 101 91 103 100 111 113 112 118 117 104 99 97 109 114 103 95 81 57 51 60 87 109 89 52 25 19 16 11 5 0 0 0 1 1 1 1 0 0 0 0 0 0 1 0 0 0 0 0 0 0 0 0 0 0 0 0 0 0 0 0 0 0 0 0 0 0 0 0 0 0 0 0 0 0 
0 0 0 0 0 0 0 0 0 0 0 0 0 0 0 0 0 0 0 0 0 0 0 3 6 9 13 19 22 34 48 69 75 71 66 54 61 60 56 63 72 82 83 91 96 107 106 115 130 123 113 103 102 102 98 96 102 101 105 109 122 143 131 112 104 94 98 108 110 96 77 71 59 61 94 110 83 53 25 18 15 10 4 0 0 0 1 2 2 1 0 0 0 0 0 0 1 0 0 0 0 0 0 0 0 0 0 0 0 0 0 0 0 0 0 0 0 0 0 0 0 0 0 0 0 0 0 0 
0 0 0 0 0 0 0 0 0 0 0 0 0 0 0 0 0 0 0 0 0 0 0 0 5 8 11 16 20 28 40 59 80 76 68 67 63 49 51 57 69 71 83 90 94 105 102 106 125 113 113 108 101 100 96 101 103 105 108 110 119 125 126 111 104 99 98 88 93 96 76 70 72 69 92 105 77 48 25 17 15 9 2 0 0 0 1 2 2 1 0 0 0 0 0 0 1 0 0 0 0 0 0 0 0 0 0 0 0 0 0 0 0 0 0 0 0 0 0 0 0 0 0 0 0 0 0 0 
0 0 0 0 0 0 0 0 0 0 0 0 0 0 0 0 0 0 0 0 0 0 0 0 2 5 10 13 18 25 41 55 77 74 73 77 65 52 49 63 62 65 86 100 103 103 100 93 104 105 109 103 98 95 94 94 98 105 108 106 110 105 111 103 106 100 104 87 71 74 67 62 74 79 92 103 77 43 20 16 15 8 1 0 0 0 1 1 2 1 0 0 0 0 0 0 1 0 0 0 0 0 0 0 0 0 0 0 0 0 0 0 0 0 0 0 0 0 0 0 0 0 0 0 0 0 0 0 
0 0 0 0 0 0 0 0 0 0 0 0 0 0 0 0 0 0 0 0 0 0 0 0 0 4 6 12 15 19 34 52 64 69 77 82 65 55 53 61 58 64 88 96 94 98 96 80 85 94 104 93 94 94 95 96 100 107 103 103 104 103 98 90 96 90 95 87 68 64 65 64 78 88 96 85 47 23 17 16 16 8 1 0 0 0 0 1 2 1 0 0 0 0 0 0 1 0 0 0 0 0 0 0 0 0 0 0 0 0 0 0 0 0 0 0 0 0 0 0 0 0 0 0 0 0 0 0 
0 0 0 0 0 0 0 0 0 0 0 0 0 0 0 0 0 0 0 0 0 0 0 0 0 3 4 8 15 17 21 33 41 44 72 80 66 58 61 58 52 64 77 82 88 96 95 80 83 96 105 98 93 99 102 102 106 107 100 96 99 94 91 89 94 87 83 77 71 61 67 69 77 93 96 44 18 17 18 18 16 7 1 0 0 0 0 1 2 1 1 0 0 0 0 0 1 0 0 0 0 0 0 0 0 0 0 0 0 0 0 0 0 0 0 0 0 0 0 0 0 0 0 0 0 0 0 0 
0 0 0 0 0 0 0 0 0 0 0 0 0 0 0 0 0 0 0 0 0 0 0 0 0 0 5 4 11 17 19 20 19 17 31 73 78 72 70 64 54 59 65 77 79 82 87 82 88 100 91 92 94 98 99 103 116 109 91 83 93 94 96 91 84 83 69 71 70 64 75 84 86 95 69 24 15 16 17 18 14 6 0 0 0 0 0 1 2 1 1 0 0 0 0 0 0 0 0 0 0 0 0 0 0 0 0 0 0 0 0 0 0 0 0 0 0 0 0 0 0 0 0 0 0 0 0 0 
0 0 0 0 0 0 0 0 0 0 0 0 0 0 0 0 0 0 0 0 0 0 0 0 0 0 2 5 7 14 18 18 18 17 15 38 77 80 71 69 61 65 65 77 80 74 80 87 98 101 87 84 90 96 100 102 109 112 91 84 97 100 106 101 89 82 78 79 74 70 80 87 90 78 35 19 15 15 17 16 12 6 1 0 0 0 0 1 1 1 1 0 0 0 0 0 0 0 0 0 0 0 0 0 0 0 0 0 0 0 0 0 0 0 0 0 0 0 0 0 0 0 0 0 0 0 0 0 
0 0 0 0 0 0 0 0 0 0 0 0 0 0 0 0 0 0 0 0 0 0 0 0 0 0 0 4 6 10 15 18 17 17 15 14 37 68 77 81 76 71 70 83 91 83 85 89 96 101 89 84 90 98 101 107 115 116 103 94 103 108 109 103 91 84 87 87 84 87 94 88 73 36 25 16 13 15 16 14 10 6 1 0 0 0 0 1 1 1 1 0 0 0 0 0 0 0 0 0 0 0 0 0 0 0 0 0 0 0 0 0 0 0 0 0 0 0 0 0 0 0 0 0 0 0 0 0 
0 0 0 0 0 0 0 0 0 0 0 0 0 0 0 0 0 0 0 0 0 0 0 0 0 0 0 2 5 8 12 17 18 17 15 15 17 34 62 80 86 80 81 91 100 94 88 93 91 102 99 87 91 101 99 103 107 112 113 101 94 97 103 108 98 92 99 100 91 92 92 69 37 27 24 16 14 16 15 14 10 5 1 0 0 0 0 1 1 2 1 0 0 0 0 0 0 0 0 0 0 0 0 0 0 0 0 0 0 0 0 0 0 0 0 0 0 0 0 0 0 0 0 0 0 0 0 0 
0 0 0 0 0 0 0 0 0 0 0 0 0 0 0 0 0 0 0 0 0 0 0 0 0 0 0 1 4 7 8 16 17 17 16 14 18 22 29 49 73 82 90 99 103 100 98 99 97 103 96 84 93 106 103 103 109 112 117 111 102 97 106 109 109 101 109 109 95 81 59 34 28 27 23 16 16 16 14 13 10 5 1 0 0 0 0 1 2 2 1 0 0 0 0 0 0 0 0 0 0 0 0 0 0 0 0 0 0 0 0 0 0 0 0 0 0 0 0 0 0 0 0 0 0 0 0 0 
0 0 0 0 0 0 0 0 0 0 0 0 0 0 0 0 0 0 0 0 0 0 0 0 0 0 0 0 1 7 8 13 15 15 16 13 15 20 25 30 38 61 80 97 104 103 104 105 100 99 98 98 111 111 99 97 105 113 117 118 111 97 106 111 110 101 106 105 80 50 31 28 27 25 21 16 14 15 14 13 10 5 1 0 0 0 0 1 2 2 1 0 0 0 0 0 0 0 0 0 0 0 0 0 0 0 0 0 0 0 0 0 0 0 0 0 0 0 0 0 0 0 0 0 0 0 0 0 
0 0 0 0 0 0 0 0 0 0 0 0 0 0 0 0 0 0 0 0 0 0 0 0 0 0 0 0 0 7 6 10 15 16 16 14 14 20 25 30 31 33 42 58 85 94 97 102 94 100 105 112 113 106 99 101 102 109 117 114 110 108 111 112 107 95 84 60 43 37 29 27 26 23 17 16 13 14 14 13 9 4 1 0 0 0 0 1 1 1 1 0 0 0 0 0 0 0 0 0 0 0 0 0 0 0 0 0 0 0 0 0 0 0 0 0 0 0 0 0 0 0 0 0 0 0 0 0 
0 0 0 0 0 0 0 0 0 0 0 0 0 0 0 0 0 0 0 0 0 0 0 0 0 0 0 0 0 4 6 8 13 15 17 14 13 19 25 29 31 33 31 38 51 70 81 88 91 90 101 111 105 106 112 110 107 110 118 116 113 102 103 100 90 74 53 46 42 36 27 28 26 22 16 14 15 14 15 13 9 3 1 0 0 0 0 1 1 1 1 0 0 0 0 0 0 0 0 0 0 0 0 0 0 0 0 0 0 0 0 0 0 0 0 0 0 0 0 0 0 0 0 0 0 0 0 0 
