P2
128 99
251
0 0 0 0 0 0 0 0 0 0 0 0 0 0 0 0 0 0 0 0 0 0 0 0 0 0 0 0 0 0 0 0 0 0 0 0 0 0 0 0 0 0 0 0 0 0 0 0 0 0 0 0 0 0 0 0 0 0 0 0 0 0 0 0 0 0 0 0 0 0 0 0 0 0 0 0 0 0 0 0 0 0 0 0 0 0 0 0 0 0 0 0 0 0 0 0 0 0 0 0 0 0 0 0 0 0 0 0 0 0 0 0 0 0 0 0 0 0 0 0 0 0 0 0 0 0 0 0 
0 0 0 0 0 0 0 0 0 0 0 0 0 0 0 0 0 0 0 0 0 0 0 0 0 0 0 0 0 0 0 0 0 0 0 0 0 0 0 0 0 0 0 0 0 0 0 0 0 0 0 0 0 0 0 0 0 0 0 0 0 0 0 0 0 0 0 0 0 0 0 0 0 0 0 0 0 0 0 0 0 0 0 0 0 0 0 0 0 0 0 0 0 0 0 0 0 0 0 0 0 0 0 0 0 0 0 0 0 0 0 0 0 0 0 0 0 0 0 0 0 0 0 0 0 0 0 0 
0 0 0 0 0 0 0 0 0 0 0 0 0 0 0 0 0 0 0 0 0 0 0 0 0 0 0 0 0 0 0 0 0 0 0 0 0 0 0 0 0 0 0 0 0 0 0 0 0 0 0 1 1 1 3 1 0 0 0 0 0 0 0 0 0 0 0 0 0 0 0 0 0 0 0 0 0 0 0 0 0 0 0 0 0 0 0 0 0 0 0 0 0 0 0 0 0 0 0 0 0 0 0 0 0 0 0 0 0 0 0 0 0 0 0 0 0 0 0 0 0 0 0 0 0 0 0 0 
0 0 0 0 0 0 0 0 0 0 0 0 0 0 0 0 0 0 0 0 0 0 0 0 0 0 0 0 0 0 0 0 0 0 0 0 0 0 0 0 0 0 0 0 11 12 12 18 20 21 23 28 29 27 23 16 14 15 18 16 3 0 0 0 0 0 0 0 0 0 0 0 0 0 0 0 0 0 0 0 0 0 0 0 0 0 0 0 0 0 0 0 0 0 0 0 0 0 0 0 0 0 0 0 0 0 0 0 0 0 0 0 0 0 0 0 0 0 0 0 0 0 0 0 0 0 0 0 
0 0 0 0 0 0 0 0 0 0 0 0 0 0 0 0 0 0 0 0 0 0 0 0 0 0 0 0 0 0 0 0 0 0 0 0 0 0 0 0 15 16 17 26 23 35 57 76 90 102 113 119 125 125 119 111 99 84 66 45 24 20 23 7 0 0 0 0 0 0 0 0 0 0 0 0 0 0 0 0 0 0 0 0 0 0 0 0 0 0 0 0 0 0 0 0 0 0 0 0 0 0 0 0 0 0 0 0 0 0 0 0 0 0 0 0 0 0 0 0 0 0 0 0 0 0 0 0 
0 0 0 0 0 0 0 0 0 0 0 0 0 0 0 0 0 0 0 0 0 0 0 0 0 0 0 0 0 0 0 0 0 0 0 0 0 2 17 16 25 22 34 63 99 124 134 145 152 153 148 145 146 150 151 152 145 137 135 129 117 92 62 31 19 21 4 0 0 0 0 0 0 0 0 0 0 0 0 0 0 0 0 0 0 0 0 0 0 0 0 0 0 0 0 0 0 0 0 0 0 0 0 0 0 0 0 0 0 0 0 0 0 0 0 0 0 0 0 0 0 0 0 0 0 0 0 0 
0 0 0 0 0 0 0 0 0 0 0 0 0 0 0 0 0 0 0 0 0 0 0 0 0 0 0 0 0 0 0 0 0 0 0 1 18 19 24 27 53 93 123 142 155 148 138 148 171 190 205 211 213 215 217 217 211 201 189 171 151 136 133 125 100 59 30 19 14 0 0 0 0 0 0 0 0 0 0 0 0 0 0 0 0 0 0 0 0 0 0 0 0 0 0 0 0 0 0 0 0 0 0 0 0 0 0 0 0 0 0 0 0 0 0 0 0 0 0 0 0 0 0 0 0 0 0 0 
0 0 0 0 0 0 0 0 0 0 0 0 0 0 0 0 0 0 0 0 0 0 0 0 0 0 0 0 0 0 0 0 0 0 12 22 23 28 65 105 133 150 143 136 148 176 208 220 211 200 193 188 187 175 173 175 186 199 202 209 214 198 172 152 139 136 122 80 39 24 15 0 0 0 0 0 0 0 0 0 0 0 0 0 0 0 0 0 0 0 0 0 0 0 0 0 0 0 0 0 0 0 0 0 0 0 0 0 0 0 0 0 0 0 0 0 0 0 0 0 0 0 0 0 0 0 0 0 
0 0 0 0 0 0 0 0 0 0 0 0 0 0 0 0 0 0 0 0 0 0 0 0 0 0 0 0 0 0 0 0 3 21 23 19 61 112 137 148 136 136 165 205 226 216 198 185 160 135 123 125 125 122 121 119 131 153 174 186 191 199 208 212 192 166 147 142 128 82 36 24 9 0 0 0 0 0 0 0 0 0 0 0 0 0 0 0 0 0 0 0 0 0 0 0 0 0 0 0 0 0 0 0 0 0 0 0 0 0 0 0 0 0 0 0 0 0 0 0 0 0 0 0 0 0 0 0 
0 0 0 0 0 0 0 0 0 0 0 0 0 0 0 0 0 0 0 0 0 0 0 0 0 0 0 0 0 0 0 19 21 17 38 104 136 148 137 140 174 214 226 207 180 154 136 133 143 142 120 112 110 113 125 135 140 137 131 143 161 171 181 194 204 213 204 178 151 143 119 61 27 20 0 0 0 0 0 0 0 0 0 0 0 0 0 0 0 0 0 0 0 0 0 0 0 0 0 0 0 0 0 0 0 0 0 0 0 0 0 0 0 0 0 0 0 0 0 0 0 0 0 0 0 0 0 0 
0 0 0 0 0 0 0 0 0 0 0 0 0 0 0 0 0 0 0 0 0 0 0 0 0 0 0 0 0 4 21 20 31 84 133 146 139 143 181 220 220 196 167 154 122 100 99 105 122 130 137 138 136 141 142 143 145 129 124 127 131 151 165 164 170 183 199 211 209 180 158 142 93 36 25 6 0 0 0 0 0 0 0 0 0 0 0 0 0 0 0 0 0 0 0 0 0 0 0 0 0 0 0 0 0 0 0 0 0 0 0 0 0 0 0 0 0 0 0 0 0 0 0 0 0 0 0 0 
0 0 0 0 0 0 0 0 0 0 0 0 0 0 0 0 0 0 0 0 0 0 0 0 0 0 0 0 14 24 29 54 117 141 146 149 181 219 219 188 156 147 135 112 98 100 98 107 102 112 147 168 168 143 123 119 131 138 133 122 115 124 145 158 161 157 162 179 198 214 211 177 154 119 54 23 13 0 0 0 0 0 0 0 0 0 0 0 0 0 0 0 0 0 0 0 0 0 0 0 0 0 0 0 0 0 0 0 0 0 0 0 0 0 0 0 0 0 0 0 0 0 0 0 0 0 0 0 
0 0 0 0 0 0 0 0 0 0 0 0 0 0 0 0 0 0 0 0 0 0 0 0 0 0 3 19 27 27 79 128 145 153 174 213 224 192 151 142 148 126 106 113 122 127 134 126 105 96 95 99 97 89 89 92 101 115 127 132 136 151 168 160 148 154 162 159 162 188 207 217 190 158 136 70 23 15 0 0 0 0 0 0 0 0 0 0 0 0 0 0 0 0 0 0 0 0 0 0 0 0 0 0 0 0 0 0 0 0 0 0 0 0 0 0 0 0 0 0 0 0 0 0 0 0 0 0 
0 0 0 0 0 0 0 0 0 0 0 0 0 0 0 0 0 0 0 0 0 0 0 0 0 11 22 27 30 98 124 146 167 199 226 210 169 140 148 139 118 125 135 133 128 125 124 111 96 98 96 100 103 107 115 117 116 115 116 118 116 119 142 172 176 161 149 152 160 156 168 194 215 197 157 140 76 22 15 0 0 0 0 0 0 0 0 0 0 0 0 0 0 0 0 0 0 0 0 0 0 0 0 0 0 0 0 0 0 0 0 0 0 0 0 0 0 0 0 0 0 0 0 0 0 0 0 0 
0 0 0 0 0 0 0 0 0 0 0 0 0 0 0 0 0 0 0 0 0 0 0 0 14 19 21 34 107 126 151 175 208 222 194 152 144 153 131 125 136 137 139 141 141 138 140 126 126 125 126 123 128 136 140 141 140 139 137 133 126 114 106 120 157 173 175 162 139 146 159 157 186 212 203 158 143 85 25 14 0 0 0 0 0 0 0 0 0 0 0 0 0 0 0 0 0 0 0 0 0 0 0 0 0 0 0 0 0 0 0 0 0 0 0 0 0 0 0 0 0 0 0 0 0 0 0 0 
0 0 0 0 0 0 0 0 0 0 0 0 0 0 0 0 0 0 0 0 0 0 3 20 14 20 43 110 123 159 179 212 211 177 140 142 144 134 135 136 145 150 142 132 132 136 136 136 137 138 126 101 103 130 133 131 126 123 125 130 133 137 136 125 117 139 163 173 171 150 141 155 161 183 209 203 152 146 96 32 14 0 0 0 0 0 0 0 0 0 0 0 0 0 0 0 0 0 0 0 0 0 0 0 0 0 0 0 0 0 0 0 0 0 0 0 0 0 0 0 0 0 0 0 0 0 0 0 
0 0 0 0 0 0 0 0 0 0 0 0 0 0 0 0 0 0 0 0 0 4 17 14 20 56 114 117 165 178 217 213 162 132 143 140 139 143 147 148 140 126 120 123 124 123 125 120 129 129 110 90 90 107 118 122 113 100 100 114 123 125 131 135 135 127 126 149 166 170 156 132 145 163 187 216 201 146 144 101 39 12 0 0 0 0 0 0 0 0 0 0 0 0 0 0 0 0 0 0 0 0 0 0 0 0 0 0 0 0 0 0 0 0 0 0 0 0 0 0 0 0 0 0 0 0 0 0 
0 0 0 0 0 0 0 0 0 0 0 0 0 0 0 0 0 0 0 0 4 15 12 24 70 122 122 168 183 220 209 152 124 136 135 147 151 145 131 122 120 118 119 115 118 117 106 110 122 117 94 84 82 88 109 114 105 91 85 89 103 114 118 114 118 125 130 125 118 142 164 159 130 123 147 189 212 199 140 142 109 41 8 0 0 0 0 0 0 0 0 0 0 0 0 0 0 0 0 0 0 0 0 0 0 0 0 0 0 0 0 0 0 0 0 0 0 0 0 0 0 0 0 0 0 0 0 0 
0 0 0 0 0 0 0 0 0 0 0 0 0 0 0 0 0 0 0 4 13 13 24 81 127 123 171 181 221 206 137 123 136 123 148 153 133 120 118 115 111 110 114 117 116 106 93 101 101 90 88 86 86 89 92 98 94 86 84 84 84 85 91 104 110 110 116 129 128 110 128 160 161 129 123 148 192 220 201 139 142 111 34 4 0 0 0 0 0 0 0 0 0 0 0 0 0 0 0 0 0 0 0 0 0 0 0 0 0 0 0 0 0 0 0 0 0 0 0 0 0 0 0 0 0 0 0 0 
0 0 0 0 0 0 0 0 0 0 0 0 0 0 0 0 0 0 3 14 16 24 86 139 126 174 170 214 202 138 130 138 127 149 142 122 113 112 109 106 111 113 114 108 96 86 86 85 78 76 78 83 86 82 78 81 86 86 88 89 88 83 84 78 82 92 109 116 129 129 116 128 163 153 128 124 148 201 228 177 137 136 105 22 0 0 0 0 0 0 0 0 0 0 0 0 0 0 0 0 0 0 0 0 0 0 0 0 0 0 0 0 0 0 0 0 0 0 0 0 0 0 0 0 0 0 0 0 
0 0 0 0 0 0 0 0 0 0 0 0 0 0 0 0 0 1 12 16 23 76 146 126 167 166 201 202 131 127 141 133 147 131 115 115 113 111 116 111 102 95 89 80 72 67 65 69 62 54 57 65 66 59 56 60 66 71 81 88 92 89 86 83 82 83 87 110 114 123 129 119 133 163 148 130 116 144 206 215 154 137 127 77 7 0 0 0 0 0 0 0 0 0 0 0 0 0 0 0 0 0 0 0 0 0 0 0 0 0 0 0 0 0 0 0 0 0 0 0 0 0 0 0 0 0 0 0 
0 0 0 0 0 0 0 0 0 0 0 0 0 0 0 0 0 6 15 19 56 141 126 157 163 181 205 140 126 140 133 144 127 113 113 110 106 112 100 90 87 80 66 58 51 54 51 53 52 53 54 55 53 54 55 56 56 54 55 59 73 83 89 91 89 87 87 91 107 109 118 128 114 118 150 141 133 114 163 216 197 147 130 129 47 3 0 0 0 0 0 0 0 0 0 0 0 0 0 0 0 0 0 0 0 0 0 0 0 0 0 0 0 0 0 0 0 0 0 0 0 0 0 0 0 0 0 0 
0 0 0 0 0 0 0 0 0 0 0 0 0 0 0 0 4 9 22 43 122 130 146 159 167 196 151 123 141 139 134 123 111 114 111 109 113 102 92 88 74 57 50 48 50 52 56 60 67 71 76 78 82 84 83 83 83 75 67 59 57 60 71 83 92 90 87 87 87 105 107 112 126 112 111 141 142 133 122 188 211 171 139 123 124 23 0 0 0 0 0 0 0 0 0 0 0 0 0 0 0 0 0 0 0 0 0 0 0 0 0 0 0 0 0 0 0 0 0 0 0 0 0 0 0 0 0 0 
0 0 0 0 0 0 0 0 0 0 0 0 0 0 0 2 4 17 37 106 146 144 154 164 176 160 128 134 140 128 120 115 113 118 115 105 96 93 86 70 55 48 48 50 53 65 79 94 109 115 122 128 136 136 135 129 130 121 109 92 72 58 52 59 79 88 89 84 81 85 97 105 118 127 107 115 135 143 130 146 206 187 163 125 134 77 7 0 0 0 0 0 0 0 0 0 0 0 0 0 0 0 0 0 0 0 0 0 0 0 0 0 0 0 0 0 0 0 0 0 0 0 0 0 0 0 0 0 
0 0 0 0 0 0 0 0 0 0 0 0 0 0 0 6 7 31 84 138 143 146 162 159 168 150 130 137 127 125 110 111 114 106 93 90 88 80 65 53 48 47 51 60 72 95 113 131 143 149 152 155 155 151 151 151 154 152 141 132 106 82 63 52 58 76 90 86 83 83 82 95 113 127 125 109 128 125 138 136 188 192 175 148 118 124 31 0 0 0 0 0 0 0 0 0 0 0 0 0 0 0 0 0 0 0 0 0 0 0 0 0 0 0 0 0 0 0 0 0 0 0 0 0 0 0 0 0 
0 0 0 0 0 0 0 0 0 0 0 0 0 0 3 3 16 67 110 147 140 156 153 144 167 132 129 124 128 116 111 108 99 88 90 87 71 55 52 48 48 53 66 91 115 128 138 141 142 141 141 144 135 131 135 144 144 145 157 162 149 127 94 68 54 59 79 90 85 81 84 86 99 116 129 121 123 111 121 133 166 180 160 163 117 133 70 1 0 0 0 0 0 0 0 0 0 0 0 0 0 0 0 0 0 0 0 0 0 0 0 0 0 0 0 0 0 0 0 0 0 0 0 0 0 0 0 0 
0 0 0 0 0 0 0 0 0 0 0 0 0 0 4 5 47 84 134 151 148 155 114 169 165 120 124 122 123 111 109 99 88 85 86 67 51 48 50 49 57 79 108 134 147 143 135 124 117 122 127 132 127 103 50 56 104 128 135 149 159 164 145 112 74 55 61 79 86 85 85 84 84 102 119 129 122 120 95 124 163 185 146 166 134 126 106 18 0 0 0 0 0 0 0 0 0 0 0 0 0 0 0 0 0 0 0 0 0 0 0 0 0 0 0 0 0 0 0 0 0 0 0 0 0 0 0 0 
0 0 0 0 0 0 0 0 0 0 0 0 0 1 3 16 78 97 156 142 153 118 131 188 143 111 113 122 111 114 105 88 85 85 68 50 48 47 50 60 90 125 153 155 145 136 129 121 124 101 88 115 121 55 50 61 77 129 132 137 147 156 161 155 123 83 59 67 83 91 87 85 80 94 110 124 129 120 86 91 154 194 155 157 154 117 127 37 0 0 0 0 0 0 0 0 0 0 0 0 0 0 0 0 0 0 0 0 0 0 0 0 0 0 0 0 0 0 0 0 0 0 0 0 0 0 0 0 
0 0 0 0 0 0 0 0 0 0 0 0 0 2 1 43 82 133 161 139 144 112 163 185 129 113 98 116 112 115 97 87 87 72 52 44 48 51 64 95 137 157 153 137 131 129 133 128 103 73 68 73 114 62 71 96 124 123 103 133 140 137 137 145 149 133 87 62 73 87 89 86 84 87 98 117 127 123 80 75 129 200 174 149 164 115 132 53 1 0 0 0 0 0 0 0 0 0 0 0 0 0 0 0 0 0 0 0 0 0 0 0 0 0 0 0 0 0 0 0 0 0 0 0 0 0 0 0 
0 0 0 0 0 0 0 0 0 0 0 0 0 3 4 65 88 167 152 138 119 140 186 158 121 101 95 115 112 112 94 91 82 57 48 46 51 66 104 148 162 144 121 120 128 123 109 96 94 79 73 74 115 71 95 139 136 129 98 82 93 120 119 119 132 155 140 91 67 80 89 89 86 85 94 117 121 126 78 63 100 185 177 143 166 123 133 71 3 0 0 0 0 0 0 0 0 0 0 0 0 0 0 0 0 0 0 0 0 0 0 0 0 0 0 0 0 0 0 0 0 0 0 0 0 0 0 0 
0 0 0 0 0 0 0 0 0 0 0 0 0 2 16 76 104 176 138 129 119 150 182 142 113 87 101 115 116 108 91 91 69 51 48 54 69 111 153 162 142 78 52 60 89 86 82 108 116 102 81 90 116 76 114 145 138 135 133 100 71 75 96 114 114 135 163 148 94 71 80 91 88 84 90 113 118 129 92 53 85 167 176 147 162 135 136 91 10 0 0 0 0 0 0 0 0 0 0 0 0 0 0 0 0 0 0 0 0 0 0 0 0 0 0 0 0 0 0 0 0 0 0 0 0 0 0 0 
0 0 0 0 0 0 0 0 0 0 0 0 2 0 32 76 131 169 125 126 133 152 165 145 93 82 105 115 113 97 89 76 54 47 53 74 122 165 165 126 58 52 54 53 54 67 91 118 122 108 88 102 114 100 130 128 119 111 121 121 81 68 60 72 107 109 140 171 157 101 75 86 89 85 88 107 113 129 104 50 77 167 178 154 163 144 126 110 15 0 0 0 0 0 0 0 0 0 0 0 0 0 0 0 0 0 0 0 0 0 0 0 0 0 0 0 0 0 0 0 0 0 0 0 0 0 0 0 
0 0 0 0 0 0 0 0 0 0 0 0 2 1 49 78 152 160 120 126 139 131 160 138 85 79 112 116 112 93 80 58 47 51 76 133 169 169 127 50 54 54 55 53 55 65 96 107 100 79 73 92 88 96 102 99 98 94 89 66 55 52 51 48 51 107 120 147 176 159 101 80 86 85 83 104 110 126 111 55 61 156 174 155 160 159 118 126 22 0 0 0 0 0 0 0 0 0 0 0 0 0 0 0 0 0 0 0 0 0 0 0 0 0 0 0 0 0 0 0 0 0 0 0 0 0 0 0 
0 0 0 0 0 0 0 0 0 0 0 0 2 3 61 86 172 147 117 131 139 114 160 132 81 80 112 115 106 83 65 49 48 71 128 171 171 149 81 53 53 53 52 54 53 57 74 85 81 67 70 87 87 94 94 83 74 73 63 56 54 54 52 52 49 55 109 125 157 180 157 101 84 86 81 95 107 120 112 65 59 150 169 153 154 166 112 127 29 1 0 0 0 0 0 0 0 0 0 0 0 0 0 0 0 0 0 0 0 0 0 0 0 0 0 0 0 0 0 0 0 0 0 0 0 0 0 0 
0 0 0 0 0 0 0 0 0 0 0 0 2 8 66 97 178 127 124 140 129 100 153 129 83 86 116 116 92 69 55 47 61 122 168 170 136 114 107 53 52 52 54 56 57 61 59 64 67 71 78 95 102 109 93 78 67 64 59 58 55 56 55 55 53 64 115 118 128 158 179 161 108 89 86 85 105 121 107 76 59 146 175 155 151 166 117 122 44 1 0 0 0 0 0 0 0 0 0 0 0 0 0 0 0 0 0 0 0 0 0 0 0 0 0 0 0 0 0 0 0 0 0 0 0 0 0 0 
0 0 0 0 0 0 0 0 0 0 0 0 2 12 67 113 175 124 132 141 119 104 159 127 81 85 115 112 84 61 52 56 115 172 169 140 129 120 122 115 102 84 55 58 65 68 72 75 79 87 94 99 122 130 107 86 71 61 61 61 58 59 60 57 59 120 119 115 127 147 168 181 173 126 94 88 99 121 101 83 68 143 181 157 150 167 124 118 63 3 0 0 0 0 0 0 0 0 0 0 0 0 0 0 0 0 0 0 0 0 0 0 0 0 0 0 0 0 0 0 0 0 0 0 0 0 0 0 
0 0 0 0 0 0 0 0 0 0 0 0 2 16 68 126 164 123 139 148 105 108 162 125 89 82 110 114 75 56 57 107 167 168 156 134 80 56 53 54 61 75 86 77 78 90 94 96 104 108 115 115 138 149 118 97 88 74 67 65 65 66 72 85 70 59 54 49 47 59 99 157 186 195 156 99 111 114 94 89 94 147 179 156 151 168 133 111 89 6 0 0 0 0 0 0 0 0 0 0 0 0 0 0 0 0 0 0 0 0 0 0 0 0 0 0 0 0 0 0 0 0 0 0 0 0 0 0 
0 0 0 0 0 0 0 0 0 0 0 0 2 20 65 136 153 125 143 148 103 116 162 139 95 83 101 107 69 58 92 160 175 165 118 65 52 51 52 55 55 62 69 90 112 127 117 124 129 132 134 135 150 162 132 120 103 84 73 72 71 79 81 76 65 59 59 55 52 48 48 59 118 189 207 174 126 106 93 111 102 154 165 148 145 167 139 106 105 8 0 0 0 0 0 0 0 0 0 0 0 0 0 0 0 0 0 0 0 0 0 0 0 0 0 0 0 0 0 0 0 0 0 0 0 0 0 0 
0 0 0 0 0 0 0 0 0 0 0 0 5 18 69 151 149 120 144 149 104 118 155 150 103 86 93 106 72 85 149 174 169 108 56 55 52 59 59 61 63 74 89 115 128 141 153 145 147 146 146 148 148 151 140 135 118 102 91 85 95 87 88 90 78 67 63 59 56 57 54 51 60 124 204 209 153 93 111 137 139 155 155 147 144 169 144 108 113 13 0 0 0 0 0 0 0 0 0 0 0 0 0 0 0 0 0 0 0 0 0 0 0 0 0 0 0 0 0 0 0 0 0 0 0 0 0 0 
0 0 0 0 0 0 0 0 0 0 0 0 9 20 76 158 142 123 142 150 102 120 142 154 122 101 93 102 88 139 175 173 106 50 54 56 59 64 72 81 80 87 111 132 142 148 156 150 152 151 152 152 150 154 150 145 131 119 107 118 111 102 106 103 97 90 87 86 82 82 82 84 85 99 140 181 155 96 118 148 151 142 141 144 143 168 146 107 119 22 0 0 0 0 0 0 0 0 0 0 0 0 0 0 0 0 0 0 0 0 0 0 0 0 0 0 0 0 0 0 0 0 0 0 0 0 0 0 
0 0 0 0 0 0 0 0 0 0 0 0 9 17 87 162 141 114 133 151 104 123 129 149 136 103 101 88 120 171 174 129 55 50 56 63 71 85 96 97 102 116 130 143 150 151 151 156 147 143 147 146 152 158 152 150 143 133 132 151 129 120 116 110 102 87 80 80 76 78 74 69 80 108 120 120 121 96 103 152 152 139 133 137 145 166 147 108 126 33 0 0 0 0 0 0 0 0 0 0 0 0 0 0 0 0 0 0 0 0 0 0 0 0 0 0 0 0 0 0 0 0 0 0 0 0 0 0 
0 0 0 0 0 0 0 0 0 0 0 0 10 15 99 163 136 116 129 148 100 119 118 146 154 117 97 76 117 176 163 76 57 59 68 81 94 104 99 100 107 132 153 156 157 151 150 155 134 127 128 137 151 160 154 148 148 146 155 157 141 132 120 99 82 67 59 65 75 78 78 75 94 97 106 106 95 91 103 159 154 145 133 124 137 163 143 109 129 50 1 0 0 0 0 0 0 0 0 0 0 0 0 0 0 0 0 0 0 0 0 0 0 0 0 0 0 0 0 0 0 0 0 0 0 0 0 0 
0 0 0 0 0 0 0 0 0 0 0 0 11 15 106 158 134 116 134 148 103 109 108 146 164 116 84 72 98 149 116 94 93 89 88 92 94 98 100 102 109 134 152 162 159 150 140 146 124 118 121 129 134 150 144 148 151 152 164 157 145 133 120 100 80 65 54 53 61 73 83 89 91 85 99 95 88 87 101 157 144 141 126 118 121 159 139 110 127 65 2 0 0 0 0 0 0 0 0 0 0 0 0 0 0 0 0 0 0 0 0 0 0 0 0 0 0 0 0 0 0 0 0 0 0 0 0 0 
0 0 0 0 0 0 0 0 0 0 0 0 9 14 111 147 132 124 140 151 103 96 107 140 162 135 88 71 73 110 77 73 72 76 85 87 89 99 99 102 121 140 152 158 154 151 135 135 125 112 114 122 140 159 164 155 145 151 170 160 140 134 124 97 72 61 52 51 50 61 69 71 73 83 101 90 88 85 93 130 126 138 130 126 117 144 135 115 122 73 2 0 0 0 0 0 0 0 0 0 0 0 0 0 0 0 0 0 0 0 0 0 0 0 0 0 0 0 0 0 0 0 0 0 0 0 0 0 
0 0 0 0 0 0 0 0 0 0 0 0 7 11 112 141 130 126 131 147 83 88 106 140 146 135 88 71 54 61 64 66 71 74 80 77 80 88 97 115 133 146 149 150 133 137 148 139 135 114 117 132 157 157 157 170 154 157 180 155 138 133 118 84 65 58 53 51 48 55 69 70 71 87 98 90 88 85 96 111 119 136 129 125 115 121 123 121 124 79 4 0 0 0 0 0 0 0 0 0 0 0 0 0 0 0 0 0 0 0 0 0 0 0 0 0 0 0 0 0 0 0 0 0 0 0 0 0 
0 0 0 0 0 0 0 0 0 0 0 0 10 11 112 139 129 133 135 134 68 83 108 137 118 94 84 71 52 52 58 61 64 76 73 71 79 82 105 130 139 145 146 145 129 123 137 126 113 122 131 145 157 153 152 145 159 143 159 152 142 131 108 75 65 54 50 50 53 59 68 67 71 89 96 92 87 87 99 120 122 137 133 126 114 108 105 111 125 77 3 0 0 0 0 0 0 0 0 0 0 0 0 0 0 0 0 0 0 0 0 0 0 0 0 0 0 0 0 0 0 0 0 0 0 0 0 0 
0 0 0 0 0 0 0 0 0 0 0 0 7 12 107 138 127 145 133 124 66 75 115 149 102 86 85 74 52 53 52 57 60 65 69 69 76 84 110 136 146 144 138 134 136 128 119 109 110 110 117 138 123 119 139 139 150 149 157 154 145 134 100 77 64 53 55 54 53 59 68 66 75 91 94 91 89 98 147 160 127 144 137 130 113 100 109 121 125 69 3 0 0 0 0 0 0 0 0 0 0 0 0 0 0 0 0 0 0 0 0 0 0 0 0 0 0 0 0 0 0 0 0 0 0 0 0 0 
0 0 0 0 0 0 0 0 0 0 0 0 5 12 100 139 128 142 120 122 68 67 117 153 101 84 87 80 60 58 48 51 59 63 68 67 79 86 109 134 145 150 139 129 130 124 120 102 106 102 122 127 115 119 140 131 129 158 159 162 153 131 106 80 62 52 52 52 54 64 66 62 76 91 97 89 89 121 161 140 121 146 140 124 112 88 107 117 128 60 2 0 0 0 0 0 0 0 0 0 0 0 0 0 0 0 0 0 0 0 0 0 0 0 0 0 0 0 0 0 0 0 0 0 0 0 0 0 
0 0 0 0 0 0 0 0 0 0 0 0 5 11 86 142 128 146 107 119 80 59 115 150 98 88 88 77 56 63 58 50 60 66 67 64 79 94 110 132 145 146 143 125 117 126 116 100 100 105 141 127 123 125 139 107 123 155 165 157 157 130 107 77 57 50 52 53 55 66 66 64 76 87 93 94 91 114 139 120 113 150 144 126 109 79 109 117 132 49 3 0 0 0 0 0 0 0 0 0 0 0 0 0 0 0 0 0 0 0 0 0 0 0 0 0 0 0 0 0 0 0 0 0 0 0 0 0 
0 0 0 0 0 0 0 0 0 0 0 0 6 12 71 151 125 153 116 122 92 53 106 149 103 88 86 79 59 81 82 55 51 58 62 64 75 104 124 142 151 138 143 130 128 128 111 98 102 122 146 122 117 122 140 124 129 144 162 155 152 134 109 80 57 52 54 54 57 68 64 63 70 83 89 92 97 106 120 110 122 154 141 129 99 71 108 120 129 36 2 0 0 0 0 0 0 0 0 0 0 0 0 0 0 0 0 0 0 0 0 0 0 0 0 0 0 0 0 0 0 0 0 0 0 0 0 0 
0 0 0 0 0 0 0 0 0 0 0 0 4 11 58 154 125 156 123 121 102 55 89 146 113 85 84 82 70 110 112 54 43 55 60 63 75 109 139 147 145 136 130 132 128 114 104 99 101 135 126 116 112 122 151 155 132 135 153 154 155 145 109 78 63 55 52 53 63 69 61 65 61 74 86 91 100 112 105 95 114 146 136 128 86 69 102 111 116 24 2 0 0 0 0 0 0 0 0 0 0 0 0 0 0 0 0 0 0 0 0 0 0 0 0 0 0 0 0 0 0 0 0 0 0 0 0 0 
0 0 0 0 0 0 0 0 0 8 9 0 0 10 43 155 126 144 125 116 107 56 73 144 134 85 76 82 91 148 142 58 44 44 59 58 79 109 143 152 141 134 134 131 133 120 120 112 114 136 107 105 105 125 130 152 154 137 146 162 169 158 129 88 59 54 65 60 67 68 61 65 55 76 86 89 101 122 117 101 115 138 130 127 76 81 97 112 105 19 2 0 0 0 0 0 0 0 0 0 0 0 0 0 0 0 0 0 0 0 0 0 0 0 0 0 0 0 0 0 0 0 0 0 0 0 0 0 
0 0 0 0 0 0 0 0 3 13 15 7 0 8 30 147 130 120 130 125 115 63 56 127 148 97 87 89 121 162 156 85 40 41 56 62 82 116 147 158 150 145 143 136 129 135 154 128 131 110 99 99 110 126 129 124 141 144 157 176 192 163 121 86 56 49 47 62 59 66 67 61 50 75 88 94 139 189 160 112 123 112 125 122 65 91 90 116 90 16 0 0 0 0 0 0 0 0 0 0 0 0 0 0 0 0 0 0 0 0 0 0 0 0 0 0 0 0 0 0 0 0 0 0 0 0 0 0 
0 0 0 0 0 0 0 0 0 0 0 13 1 5 22 134 138 101 127 135 118 69 47 95 145 115 92 96 149 145 110 127 54 40 53 63 84 124 151 160 156 136 130 129 139 149 169 126 128 108 103 119 117 138 130 134 142 141 162 193 172 155 136 106 70 51 43 53 55 54 57 46 48 72 89 135 199 188 178 130 148 129 130 107 64 93 92 130 74 15 0 0 0 0 0 0 0 0 0 0 0 0 0 0 0 0 0 0 0 0 0 0 0 0 0 0 0 0 0 0 0 0 0 0 0 0 0 0 
0 0 0 0 0 0 0 0 0 0 0 7 10 7 17 113 142 101 111 135 124 99 51 62 133 131 96 97 157 155 129 142 104 44 48 65 85 125 149 156 152 143 146 141 144 162 152 132 133 110 114 129 122 143 136 139 150 147 153 185 181 161 139 101 65 56 71 63 52 43 39 39 50 81 130 187 163 129 178 174 142 120 138 104 82 96 122 135 62 10 0 0 1 16 8 0 0 0 0 0 0 0 0 0 0 0 0 0 0 0 0 0 0 0 0 0 0 0 0 0 0 0 0 0 0 0 0 0 
0 0 0 0 0 0 0 0 0 0 0 1 13 7 13 95 143 108 94 137 138 117 63 49 113 137 109 93 135 145 138 105 91 72 44 60 79 116 141 158 160 147 144 144 159 143 144 142 143 121 135 137 130 146 142 138 142 145 160 187 187 146 122 102 77 71 107 134 107 83 78 67 92 141 174 176 125 117 177 179 125 123 147 123 86 99 128 135 55 7 0 2 4 0 2 0 0 0 0 0 0 0 0 0 0 0 0 0 0 0 0 0 0 0 0 0 0 0 0 0 0 0 0 0 0 0 0 0 
0 0 0 0 0 0 0 0 0 0 0 0 7 10 12 85 139 113 90 127 143 122 80 50 82 119 120 115 169 156 98 72 63 74 72 74 86 99 130 153 164 169 168 177 164 144 142 149 151 143 129 126 143 156 152 140 141 152 175 183 179 139 99 74 72 94 122 148 149 142 116 107 128 144 191 180 157 151 184 160 126 139 135 129 106 74 110 144 52 7 5 0 0 0 0 0 0 0 0 0 0 0 0 0 0 0 0 0 0 0 0 0 0 0 0 0 0 0 0 0 0 0 0 0 0 0 0 0 
0 0 0 0 0 0 0 0 0 0 0 1 3 11 10 74 134 122 88 111 143 126 122 75 61 113 118 152 183 144 91 79 95 86 66 70 80 103 129 155 178 192 193 180 145 142 139 150 159 146 114 105 124 150 136 121 122 143 149 146 125 113 117 112 110 123 143 144 141 126 117 120 136 158 192 199 161 166 215 205 167 153 137 142 108 72 104 141 48 7 1 0 0 0 0 0 0 0 0 0 0 0 0 0 0 0 0 0 0 0 0 0 0 0 0 0 0 0 0 0 0 0 0 0 0 0 0 0 
0 0 0 0 0 0 0 0 0 0 0 1 8 15 9 63 143 133 106 103 148 145 156 130 67 95 123 166 197 172 138 132 148 147 140 137 143 127 106 115 147 155 141 130 126 117 115 132 144 107 77 73 71 107 93 84 105 112 110 121 96 74 93 104 113 121 139 147 143 104 74 99 108 140 184 192 158 165 226 221 173 155 148 174 127 100 145 142 40 7 0 0 0 0 0 0 0 0 0 0 0 0 0 0 0 0 0 0 0 0 0 0 0 0 0 0 0 0 0 0 0 0 0 0 0 0 0 0 
0 0 0 0 0 0 0 0 0 0 0 1 12 14 8 45 142 137 110 112 152 162 167 154 125 118 139 177 169 155 178 183 165 153 127 118 148 151 136 134 115 103 101 93 103 91 100 88 98 82 54 58 51 81 81 83 78 86 90 89 92 76 91 98 74 72 92 88 74 71 71 86 95 119 138 152 175 186 226 241 178 164 178 173 145 138 153 130 18 8 0 0 0 0 0 0 0 0 0 0 0 0 0 0 0 0 0 0 0 0 0 0 0 0 0 0 0 0 0 0 0 0 0 0 0 0 0 0 
0 0 0 0 0 0 0 0 0 0 0 0 17 16 17 13 82 147 122 99 137 189 183 197 176 170 154 147 173 151 191 207 177 177 133 100 118 144 138 124 95 75 99 101 102 110 85 70 71 81 91 82 68 79 114 89 69 76 93 104 93 71 77 78 63 64 67 65 53 72 75 86 93 106 108 110 157 190 215 235 215 195 175 166 145 90 122 131 28 8 7 1 0 0 0 0 0 0 0 0 0 0 0 0 0 0 0 0 0 0 0 0 0 0 0 0 0 0 0 0 0 0 0 0 0 0 0 0 
0 0 0 0 0 0 0 0 0 0 0 5 18 16 9 14 41 136 136 102 98 174 181 205 224 220 205 160 166 145 185 201 184 174 149 83 102 141 105 83 77 80 71 71 71 76 83 71 73 68 65 93 69 89 95 68 50 60 89 104 93 65 63 66 73 77 68 55 52 76 100 124 110 101 99 127 173 212 213 194 172 179 156 124 93 82 95 87 14 8 15 5 0 0 0 0 0 0 0 0 0 0 0 0 0 0 0 0 0 0 0 0 0 0 0 0 0 0 0 0 0 0 0 0 0 0 0 0 
0 0 0 0 0 0 0 0 0 0 0 3 14 10 4 12 23 114 148 97 82 121 171 163 190 199 190 165 191 165 157 171 145 153 171 112 109 112 69 59 61 53 55 68 59 65 85 71 73 80 46 37 39 58 65 51 39 44 82 84 90 77 66 51 76 85 61 55 75 101 120 137 138 117 126 170 208 240 217 159 89 85 78 83 116 121 125 39 4 1 8 15 0 0 0 0 0 0 0 0 0 0 0 0 0 0 0 0 0 0 0 0 0 0 0 0 0 0 0 0 0 0 0 0 0 0 0 0 
0 0 0 0 0 0 0 0 0 0 0 0 1 1 3 9 22 75 156 95 82 86 139 159 177 199 190 171 184 119 124 156 134 132 153 148 87 73 56 61 62 65 57 55 57 66 62 62 74 78 55 45 33 37 64 65 42 43 70 59 73 93 88 63 53 57 61 82 99 108 127 125 115 126 153 174 210 247 210 118 47 58 71 74 125 180 97 20 5 3 0 14 7 0 0 0 0 0 0 0 0 0 0 0 0 0 0 0 0 0 0 0 0 0 0 0 0 0 0 0 0 0 0 0 0 0 0 0 
0 0 0 0 0 0 0 0 0 0 0 0 0 0 1 5 14 31 143 113 73 85 80 114 126 133 163 171 165 155 135 132 125 118 122 149 117 82 75 75 71 63 75 77 75 63 72 72 70 84 109 79 45 32 73 55 48 53 87 71 72 89 91 56 62 77 88 94 102 107 109 110 152 177 197 192 206 219 183 131 74 65 60 69 94 147 42 16 9 6 2 1 2 0 0 0 0 0 0 0 0 0 0 0 0 0 0 0 0 0 0 0 0 0 0 0 0 0 0 0 0 0 0 0 0 0 0 0 
0 0 0 0 0 0 0 0 0 0 0 0 0 0 0 0 11 14 105 144 83 82 74 90 122 157 160 149 134 153 139 105 123 125 124 129 165 144 86 51 42 66 88 97 86 70 76 79 96 95 104 107 89 83 114 98 79 75 105 86 68 84 90 98 105 101 104 106 105 92 89 167 160 155 165 168 183 200 192 132 78 68 66 75 96 99 18 11 6 9 5 0 0 0 0 0 0 0 0 0 0 0 0 0 0 0 0 0 0 0 0 0 0 0 0 0 0 0 0 0 0 0 0 0 0 0 0 0 
0 0 0 0 0 0 0 0 0 0 0 0 0 0 0 0 5 7 54 130 92 77 77 79 119 174 145 138 162 171 175 128 94 116 122 117 121 126 126 70 52 69 81 99 119 108 98 103 105 94 96 94 106 121 123 142 141 113 118 111 104 115 131 109 116 126 127 108 82 87 117 90 139 157 155 166 183 189 184 130 96 83 79 80 121 55 12 12 2 9 8 1 0 0 0 0 0 0 0 0 0 0 0 0 0 0 0 0 0 0 0 0 0 0 0 0 0 0 0 0 0 0 0 0 0 0 0 0 
0 0 0 0 0 0 0 0 0 0 0 0 0 0 0 0 5 7 24 127 98 72 82 78 101 177 172 152 158 170 166 167 140 95 72 94 105 101 98 117 94 91 103 104 120 122 102 126 149 129 116 107 110 116 120 126 124 127 138 137 138 151 136 121 119 121 123 89 74 101 70 105 148 153 163 178 190 173 170 111 88 91 85 112 124 26 9 13 0 5 9 0 0 0 0 0 0 0 0 0 0 0 0 0 0 0 0 0 0 0 0 0 0 0 0 0 0 0 0 0 0 0 0 0 0 0 0 0 
0 0 0 0 0 0 0 0 0 0 0 0 0 0 0 0 10 6 11 89 95 80 78 78 109 169 193 180 150 159 178 170 153 122 72 68 97 103 104 106 139 128 113 113 116 122 112 149 155 129 96 112 124 92 89 103 105 116 127 117 129 158 169 158 131 110 87 64 123 71 84 129 147 153 162 172 165 144 157 101 91 94 85 95 109 18 10 11 0 1 3 0 0 0 0 0 0 0 0 0 0 0 0 0 0 0 0 0 0 0 0 0 0 0 0 0 0 0 0 0 0 0 0 0 0 0 0 0 
0 0 0 0 0 0 0 0 0 0 0 0 0 0 0 0 12 6 5 55 71 58 76 80 87 130 169 182 150 148 175 178 156 136 126 118 90 87 104 106 122 161 157 122 128 123 137 155 146 138 124 172 178 139 116 116 122 124 125 116 120 145 163 158 120 93 69 93 138 106 124 136 148 161 169 126 113 125 150 93 91 90 50 37 98 13 4 11 0 0 0 0 0 0 0 0 0 0 0 0 0 0 0 0 0 0 0 0 0 0 0 0 0 0 0 0 0 0 0 0 0 0 0 0 0 0 0 0 
0 0 0 0 0 0 0 0 0 0 0 16 12 0 0 2 12 8 6 38 103 80 58 80 126 128 148 156 133 123 160 166 171 147 129 126 127 111 90 82 98 168 215 188 144 141 161 149 134 138 165 172 174 187 158 136 141 147 128 106 94 88 112 143 113 89 97 135 184 154 156 159 165 169 153 85 116 124 152 93 79 51 66 121 107 10 2 3 7 0 0 0 0 0 0 0 0 0 0 0 0 0 0 0 0 0 0 0 0 0 0 0 0 0 0 0 0 0 0 0 0 0 0 0 0 0 0 0 
0 0 0 0 0 0 0 0 0 0 0 10 17 17 11 16 16 10 12 22 126 101 42 72 162 151 166 150 164 118 92 124 152 154 148 141 135 138 129 116 103 152 207 201 173 146 160 144 138 175 185 137 124 167 176 129 103 111 94 69 73 81 98 153 164 170 153 180 222 188 180 152 116 126 151 154 153 149 145 71 37 27 39 129 74 11 0 0 12 0 0 0 0 0 0 0 0 0 0 0 0 0 0 0 0 0 0 0 0 0 0 0 0 0 0 0 0 0 0 0 0 0 0 0 0 0 0 0 
0 0 0 0 0 0 0 0 0 0 0 3 16 18 18 15 15 11 17 12 59 110 64 87 135 141 172 165 162 127 85 96 98 90 118 146 155 153 151 149 150 188 224 212 203 184 161 157 171 187 160 122 119 120 133 142 122 104 107 87 92 122 174 200 193 187 165 205 227 155 115 89 77 101 153 151 150 150 138 56 44 19 20 81 26 10 5 6 13 14 8 2 0 0 0 0 0 0 0 0 0 0 0 0 0 0 0 0 0 0 0 0 0 0 0 0 0 0 0 0 0 0 0 0 0 0 0 0 
0 0 0 0 0 0 0 0 0 0 0 6 16 13 13 5 5 6 13 18 18 81 94 94 130 145 148 167 139 127 115 115 112 71 54 59 93 141 168 182 187 208 237 236 238 220 194 195 192 169 132 137 146 129 118 132 157 161 160 163 180 180 188 200 192 172 136 174 214 170 120 116 145 147 138 102 67 78 107 98 98 75 101 64 15 6 6 7 7 18 6 1 12 14 1 0 0 0 0 0 0 0 0 0 0 0 0 0 0 0 0 0 0 0 0 0 0 0 0 0 0 0 0 0 0 0 0 0 
0 0 0 0 0 0 0 0 0 0 0 0 11 12 1 5 4 5 6 23 21 32 89 98 106 124 108 152 155 169 167 151 138 104 102 94 85 103 111 114 100 176 216 212 227 210 185 177 176 148 121 112 111 107 116 121 125 138 145 161 189 168 163 161 150 107 61 119 158 203 138 107 118 100 65 39 61 65 77 47 91 102 85 19 16 1 2 2 3 3 11 11 12 14 0 0 0 0 0 0 0 0 0 0 0 0 0 0 0 0 0 0 0 0 0 0 0 0 0 0 0 0 0 0 0 0 0 0 
0 0 0 0 0 0 0 0 0 0 0 0 6 12 4 1 3 3 1 7 28 22 46 89 83 46 49 148 135 168 162 168 187 180 169 146 111 97 103 114 105 166 179 204 177 217 197 210 205 173 150 139 124 112 109 101 90 94 118 133 124 138 152 136 151 219 70 90 170 211 217 214 177 133 105 93 95 69 51 19 39 59 46 37 14 0 0 0 2 0 0 2 9 3 0 0 0 0 0 0 0 0 0 0 0 0 0 0 0 0 0 0 0 0 0 0 0 0 0 0 0 0 0 0 0 0 0 0 
0 0 0 0 0 0 0 0 0 0 0 0 0 3 5 0 0 2 0 7 26 31 23 24 31 25 18 109 119 113 134 118 163 141 98 85 74 70 87 100 119 125 165 189 193 227 163 145 161 127 129 143 170 175 168 135 123 127 141 179 172 141 146 138 124 167 93 84 190 213 182 163 147 115 81 87 72 108 63 28 29 38 54 47 19 0 0 0 0 0 0 2 8 0 0 0 0 0 0 0 0 0 0 0 0 0 0 0 0 0 0 0 0 0 0 0 0 0 0 0 0 0 0 0 0 0 0 0 
0 0 0 0 0 0 0 0 0 0 0 0 0 0 0 0 0 2 5 7 14 17 24 22 24 19 27 89 122 60 55 37 83 102 71 56 57 50 42 42 41 100 159 75 160 174 100 85 65 64 64 78 95 103 99 81 69 73 74 91 84 100 125 135 121 100 81 53 48 61 73 67 54 51 51 87 58 116 69 33 31 24 21 10 1 0 2 0 0 0 0 13 7 0 0 0 0 0 0 0 0 0 0 0 0 0 0 0 0 0 0 0 0 0 0 0 0 0 0 0 0 0 0 0 0 0 0 0 
0 0 0 0 0 0 0 0 0 0 0 0 0 0 0 0 0 0 2 4 8 10 13 22 23 23 20 73 139 75 53 35 75 99 87 47 31 43 40 25 33 43 68 65 66 72 76 65 60 60 53 55 65 76 79 67 63 69 53 75 80 64 58 63 52 62 46 42 52 66 51 41 45 39 35 68 57 125 67 31 29 27 16 7 1 0 0 0 0 0 0 9 0 0 0 0 0 0 0 0 0 0 0 0 0 0 0 0 0 0 0 0 0 0 0 0 0 0 0 0 0 0 0 0 0 0 0 0 
0 0 0 0 0 0 0 0 0 0 0 0 0 0 0 0 0 0 0 0 6 9 12 13 25 32 31 58 141 84 51 31 75 98 94 92 78 77 79 63 85 76 70 65 62 68 102 137 141 132 108 92 85 92 95 109 137 151 142 133 96 70 83 88 113 95 25 31 118 77 39 22 27 46 61 75 74 125 59 41 42 35 22 19 0 0 0 0 0 0 0 0 0 0 0 0 0 0 0 0 0 0 0 0 0 0 0 0 0 0 0 0 0 0 0 0 0 0 0 0 0 0 0 0 0 0 0 0 
0 0 0 0 0 0 0 0 0 0 0 0 0 0 0 0 0 0 0 0 0 4 2 6 20 57 62 107 174 145 97 70 90 87 60 64 99 131 87 108 164 129 71 83 123 137 161 135 133 153 173 175 174 184 192 211 212 187 183 200 195 163 129 151 154 193 174 144 206 206 114 43 25 33 66 74 78 109 52 43 34 27 19 10 0 0 0 0 0 0 0 0 0 0 0 0 0 0 0 0 0 0 0 0 0 0 0 0 0 0 0 0 0 0 0 0 0 0 0 0 0 0 0 0 0 0 0 0 
0 0 0 0 0 0 0 0 0 0 0 0 0 0 0 0 0 0 0 0 0 7 25 12 2 41 56 99 169 170 143 124 123 106 83 66 52 109 86 54 202 115 65 99 182 207 161 160 179 196 208 229 242 246 251 246 233 177 139 146 152 163 168 178 161 229 220 185 201 173 141 110 67 54 37 62 62 73 8 7 7 7 21 11 0 0 0 0 0 0 0 0 0 0 0 0 0 0 0 0 0 0 0 0 0 0 0 0 0 0 0 0 0 0 0 0 0 0 0 0 0 0 0 0 0 0 0 0 
0 0 0 0 0 0 0 0 0 0 0 0 0 0 0 0 0 0 0 0 0 2 6 6 0 21 38 35 104 127 102 73 74 62 41 43 47 58 61 91 104 55 84 88 122 130 167 183 196 196 195 192 191 188 190 193 186 195 203 184 148 145 134 125 160 178 120 122 190 180 118 45 15 16 57 99 81 88 25 23 15 2 0 0 0 0 0 0 0 0 0 0 0 0 0 0 0 0 0 0 0 0 0 0 0 0 0 0 0 0 0 0 0 0 0 0 0 0 0 0 0 0 0 0 0 0 0 0 
0 0 0 0 0 0 0 0 0 0 0 0 0 0 0 0 0 0 0 0 0 0 6 7 6 15 26 26 64 90 88 51 51 67 27 23 27 37 61 74 93 80 93 98 76 80 112 116 119 95 136 106 94 89 88 64 57 58 84 111 145 141 112 79 73 192 197 190 196 135 121 74 53 36 81 119 93 83 33 23 23 4 6 1 0 0 0 0 0 0 0 0 0 0 0 0 0 0 0 0 0 0 0 0 0 0 0 0 0 0 0 0 0 0 0 0 0 0 0 0 0 0 0 0 0 0 0 0 
0 0 0 0 0 0 0 0 0 0 0 0 0 0 0 0 0 0 0 0 0 0 2 6 8 14 23 23 45 72 76 58 50 65 28 24 28 43 82 91 93 79 107 97 96 90 93 96 107 118 141 126 115 124 143 128 129 139 152 136 143 140 94 46 70 94 83 97 109 103 90 51 34 25 71 123 87 87 34 26 16 5 7 1 0 0 0 0 0 0 0 0 0 0 0 0 0 0 0 0 0 0 0 0 0 0 0 0 0 0 0 0 0 0 0 0 0 0 0 0 0 0 0 0 0 0 0 0 
0 0 0 0 0 0 0 0 0 0 0 0 0 0 0 0 0 0 0 0 0 0 0 6 6 11 17 23 30 74 56 63 51 66 25 24 24 34 59 89 70 66 112 81 67 75 76 82 87 117 128 128 146 173 174 146 154 140 134 135 135 135 95 52 92 68 98 107 90 95 69 40 29 23 63 125 75 99 37 26 12 6 6 0 0 0 0 0 0 0 0 0 0 0 0 0 0 0 0 0 0 0 0 0 0 0 0 0 0 0 0 0 0 0 0 0 0 0 0 0 0 0 0 0 0 0 0 0 
0 0 0 0 0 0 0 0 0 0 0 0 0 0 0 0 0 0 0 0 0 0 0 3 7 10 14 20 24 70 64 64 54 71 26 22 27 36 64 73 55 95 98 86 61 55 69 68 74 111 136 145 161 157 146 136 143 125 122 124 120 132 91 74 89 64 77 103 80 72 81 41 29 27 63 125 58 96 48 25 9 6 4 0 0 0 0 0 0 0 0 0 0 0 0 0 0 0 0 0 0 0 0 0 0 0 0 0 0 0 0 0 0 0 0 0 0 0 0 0 0 0 0 0 0 0 0 0 
0 0 0 0 0 0 0 0 0 0 0 0 0 0 0 0 0 0 0 0 0 0 0 0 6 8 13 15 20 42 89 68 55 77 33 29 31 51 62 49 95 111 94 73 62 54 74 52 62 107 146 128 124 126 121 131 127 115 121 102 97 82 86 102 99 81 76 82 123 75 67 62 37 32 62 114 58 80 60 21 9 6 3 0 0 0 0 0 0 0 0 0 0 0 0 0 0 0 0 0 0 0 0 0 0 0 0 0 0 0 0 0 0 0 0 0 0 0 0 0 0 0 0 0 0 0 0 0 
0 0 0 0 0 0 0 0 0 0 0 0 0 0 0 0 0 0 0 0 0 0 0 0 2 5 11 13 17 21 59 48 44 82 47 30 48 63 41 58 126 89 71 62 71 64 102 59 55 97 109 94 96 106 102 111 110 103 102 75 73 51 54 111 130 96 71 61 107 119 53 76 47 37 65 94 73 79 27 15 9 5 2 0 0 0 0 0 0 0 0 0 0 0 0 0 0 0 0 0 0 0 0 0 0 0 0 0 0 0 0 0 0 0 0 0 0 0 0 0 0 0 0 0 0 0 0 0 
0 0 0 0 0 0 0 0 0 0 0 0 0 0 0 0 0 0 0 0 0 0 0 0 0 5 10 11 13 17 18 21 22 65 57 26 59 66 36 71 130 78 64 65 57 70 122 72 55 72 92 80 87 93 93 103 112 114 101 76 65 73 61 98 121 55 54 55 83 136 73 84 73 46 76 73 26 22 20 11 6 6 2 0 0 0 0 0 0 0 0 0 0 0 0 0 0 0 0 0 0 0 0 0 0 0 0 0 0 0 0 0 0 0 0 0 0 0 0 0 0 0 0 0 0 0 0 0 
0 0 0 0 0 0 0 0 0 0 0 0 0 0 0 0 0 0 0 0 0 0 0 0 0 5 6 4 14 18 18 20 17 35 75 64 78 61 41 82 119 79 63 67 65 83 125 69 41 59 100 94 97 102 114 144 156 130 107 89 94 78 53 89 110 50 45 53 86 142 86 67 95 88 92 50 17 24 23 11 6 5 2 0 0 0 0 0 0 0 0 0 0 0 0 0 0 0 0 0 0 0 0 0 0 0 0 0 0 0 0 0 0 0 0 0 0 0 0 0 0 0 0 0 0 0 0 0 
0 0 0 0 0 0 0 0 0 0 0 0 0 0 0 0 0 0 0 0 0 0 0 0 0 0 6 8 9 15 23 15 14 10 41 78 66 49 51 106 125 76 57 58 62 87 112 54 45 68 89 116 123 127 129 138 159 120 74 57 64 41 32 72 106 67 46 42 68 148 115 53 68 96 63 18 10 20 17 11 6 3 1 0 0 0 0 0 0 0 0 0 0 0 0 0 0 0 0 0 0 0 0 0 0 0 0 0 0 0 0 0 0 0 0 0 0 0 0 0 0 0 0 0 0 0 0 0 
0 0 0 0 0 0 0 0 0 0 0 0 0 0 0 0 0 0 0 0 0 0 0 0 0 0 1 7 10 13 19 18 15 14 13 13 16 33 54 121 150 81 45 51 52 78 96 63 64 59 66 97 125 120 126 126 146 147 93 69 74 73 65 76 108 91 55 40 68 154 140 53 35 35 22 11 13 19 12 9 4 3 1 0 0 0 0 0 0 0 0 0 0 0 0 0 0 0 0 0 0 0 0 0 0 0 0 0 0 0 0 0 0 0 0 0 0 0 0 0 0 0 0 0 0 0 0 0 
0 0 0 0 0 0 0 0 0 0 0 0 0 0 0 0 0 0 0 0 0 0 0 0 0 0 0 3 5 15 16 23 15 16 9 10 22 30 43 114 164 97 47 55 93 96 79 62 55 44 46 67 101 118 134 146 152 144 138 106 70 58 67 65 86 102 89 46 72 161 140 45 37 32 26 15 16 18 13 8 3 2 0 0 0 0 0 0 0 0 0 0 0 0 0 0 0 0 0 0 0 0 0 0 0 0 0 0 0 0 0 0 0 0 0 0 0 0 0 0 0 0 0 0 0 0 0 0 
0 0 0 0 0 0 0 0 0 0 0 0 0 0 0 0 0 0 0 0 0 0 0 0 0 0 0 3 2 9 13 19 21 17 9 11 27 30 28 67 156 144 82 78 121 94 67 63 58 44 42 62 127 132 112 110 109 120 127 116 81 43 55 65 75 98 116 84 107 171 114 35 31 30 28 19 18 15 16 6 5 2 0 0 0 0 0 0 0 0 0 0 0 0 0 0 0 0 0 0 0 0 0 0 0 0 0 0 0 0 0 0 0 0 0 0 0 0 0 0 0 0 0 0 0 0 0 0 
0 0 0 0 0 0 0 0 0 0 0 0 0 0 0 0 0 0 0 0 0 0 0 0 0 0 0 1 5 5 13 16 19 20 11 14 25 33 26 34 106 169 149 144 134 83 63 58 58 48 51 78 119 122 108 108 115 121 125 121 113 60 61 71 73 91 134 150 161 160 57 30 29 30 28 22 18 16 16 7 6 3 0 0 0 0 0 0 0 0 0 0 0 0 0 0 0 0 0 0 0 0 0 0 0 0 0 0 0 0 0 0 0 0 0 0 0 0 0 0 0 0 0 0 0 0 0 0 
0 0 0 0 0 0 0 0 0 0 0 0 0 0 0 0 0 0 0 0 0 0 0 0 0 0 0 0 3 6 6 15 15 18 15 12 18 27 24 25 40 118 177 175 140 67 51 45 48 63 77 107 140 132 117 124 131 134 131 142 127 45 32 54 65 81 148 188 166 76 29 26 27 28 27 22 17 19 13 7 7 3 0 0 0 0 0 0 0 0 0 0 0 0 0 0 0 0 0 0 0 0 0 0 0 0 0 0 0 0 0 0 0 0 0 0 0 0 0 0 0 0 0 0 0 0 0 0 
0 0 0 0 0 0 0 0 0 0 0 0 0 0 0 0 0 0 0 0 0 0 0 0 0 0 0 0 0 5 6 9 18 16 15 10 13 27 27 26 31 32 63 97 87 67 69 64 65 77 94 132 153 140 137 147 144 142 143 147 122 48 24 40 56 67 95 90 41 29 26 25 26 25 26 20 17 19 14 7 7 3 0 0 0 0 0 0 0 0 0 0 0 0 0 0 0 0 0 0 0 0 0 0 0 0 0 0 0 0 0 0 0 0 0 0 0 0 0 0 0 0 0 0 0 0 0 0 
0 0 0 0 0 0 0 0 0 0 0 0 0 0 0 0 0 0 0 0 0 0 0 0 0 0 0 0 0 0 9 6 15 17 12 12 11 24 30 27 29 29 31 30 45 64 64 66 68 84 113 148 155 151 139 134 138 138 148 159 129 52 23 32 42 53 49 38 26 29 28 22 26 27 23 17 18 18 15 7 7 2 1 0 0 0 0 0 0 0 0 0 0 0 0 0 0 0 0 0 0 0 0 0 0 0 0 0 0 0 0 0 0 0 0 0 0 0 0 0 0 0 0 0 0 0 0 0 
