P2
128 99
227
0 0 0 0 0 0 0 0 0 0 0 0 0 0 0 0 0 0 0 0 0 0 0 0 0 0 0 0 0 0 0 0 0 0 0 0 0 0 0 0 0 0 0 0 0 0 0 0 0 0 0 0 0 0 0 0 0 0 0 0 0 0 0 0 0 0 0 0 0 0 0 0 0 0 0 0 0 0 0 0 0 0 0 0 0 0 0 0 0 0 0 0 0 0 0 0 0 4 0 0 0 0 0 0 0 0 0 0 0 0 0 0 0 0 0 0 0 0 0 0 0 0 0 0 0 0 0 0 
0 0 0 0 0 0 0 0 0 0 0 0 0 0 0 0 0 0 0 0 0 0 0 0 0 0 0 0 0 0 0 0 0 0 0 0 0 0 0 0 0 0 0 0 0 0 0 0 0 0 0 0 0 0 0 0 0 0 0 0 0 0 0 0 0 0 0 0 0 0 0 0 0 0 0 0 0 0 0 0 0 0 0 0 0 0 0 0 0 0 0 0 0 0 0 0 0 4 0 0 0 0 0 0 0 0 0 0 0 0 0 0 0 0 0 0 0 0 0 0 0 0 0 0 0 0 0 0 
0 0 0 0 0 0 0 0 0 0 0 0 0 0 0 0 0 0 0 0 0 0 0 0 0 0 0 0 0 0 0 0 0 0 0 0 0 0 0 0 0 0 0 0 0 0 0 0 0 0 0 1 1 2 2 0 0 0 0 0 0 0 0 0 0 0 0 0 0 0 0 0 0 0 0 0 0 0 0 0 0 0 0 0 0 0 0 0 0 0 0 0 0 0 0 0 0 4 0 0 0 0 0 0 0 0 0 0 0 0 0 0 0 0 0 0 0 0 0 0 0 0 0 0 0 0 0 0 
0 0 0 0 0 0 0 0 0 0 0 0 0 0 0 0 0 0 0 0 0 0 0 0 0 0 0 0 0 0 0 0 0 0 0 0 0 0 0 0 0 0 0 1 5 12 21 21 20 21 23 25 28 29 27 23 16 15 14 13 6 0 0 0 0 0 0 0 0 0 0 0 0 0 0 0 0 0 0 0 0 0 0 0 0 0 0 0 0 0 0 0 0 0 0 0 0 4 0 0 0 0 0 0 0 0 0 0 0 0 0 0 0 0 0 0 0 0 0 0 0 0 0 0 0 0 0 0 
0 0 0 0 0 0 0 0 0 0 0 0 0 0 0 0 0 0 0 0 0 0 0 0 0 0 0 0 0 0 0 0 0 0 0 0 0 0 0 0 4 15 20 23 24 29 46 73 96 116 132 140 142 142 139 130 116 96 75 56 33 22 18 12 4 0 0 0 0 0 0 0 0 0 0 0 0 0 0 0 0 0 0 0 0 0 0 0 0 0 0 0 0 0 0 0 0 4 0 0 0 0 0 0 0 0 0 0 0 0 0 0 0 0 0 0 0 0 0 0 0 0 0 0 0 0 0 0 
0 0 0 0 0 0 0 0 0 0 0 0 0 0 0 0 0 0 0 0 0 0 0 0 0 0 0 0 0 0 0 0 0 0 0 0 0 0 6 18 21 23 33 62 107 144 157 154 156 159 160 158 157 160 163 163 161 158 152 146 133 110 80 50 25 16 13 4 0 0 0 0 0 0 0 0 0 0 0 0 0 0 0 0 0 0 0 0 0 0 0 0 0 0 0 0 0 4 0 0 0 0 0 0 0 0 0 0 0 0 0 0 0 0 0 0 0 0 0 0 0 0 0 0 0 0 0 0 
0 0 0 0 0 0 0 0 0 0 0 0 0 0 0 0 0 0 0 0 0 0 0 0 0 0 0 0 0 0 0 0 0 0 0 0 8 21 22 24 48 99 143 160 158 162 164 169 180 191 200 205 207 210 213 213 210 203 189 175 164 158 154 138 114 75 42 20 14 4 0 0 0 0 0 0 0 0 0 0 0 0 0 0 0 0 0 0 0 0 0 0 0 0 0 0 0 4 0 0 0 0 0 0 0 0 0 0 0 0 0 0 0 0 0 0 0 0 0 0 0 0 0 0 0 0 0 0 
0 0 0 0 0 0 0 0 0 0 0 0 0 0 0 0 0 0 0 0 0 0 0 0 0 0 0 0 0 0 0 0 0 0 7 23 23 27 57 118 156 160 165 165 167 182 198 205 189 169 162 161 155 141 142 158 172 186 200 211 214 200 182 168 161 154 132 96 51 25 13 4 0 0 0 0 0 0 0 0 0 0 0 0 0 0 0 0 0 0 0 0 0 0 0 0 0 4 0 0 0 0 0 0 0 0 0 0 0 0 0 0 0 0 0 0 0 0 0 0 0 0 0 0 0 0 0 0 
0 0 0 0 0 0 0 0 0 0 0 0 0 0 0 0 0 0 0 0 0 0 0 0 0 0 0 0 0 0 0 0 2 29 27 25 53 119 156 158 164 167 176 190 201 195 167 131 116 116 124 129 128 127 128 124 127 143 156 166 174 188 203 210 193 172 164 161 136 92 45 24 13 0 0 0 0 0 0 0 0 0 0 0 0 0 0 0 0 0 0 0 0 0 0 0 0 4 0 0 0 0 0 0 0 0 0 0 0 0 0 0 0 0 0 0 0 0 0 0 0 0 0 0 0 0 0 0 
0 0 0 0 0 0 0 0 0 0 0 0 0 0 0 0 0 0 0 0 0 0 0 0 0 0 0 0 0 0 0 25 27 20 34 100 155 158 164 164 177 200 202 177 160 152 148 141 145 144 142 150 149 147 155 161 159 162 158 160 165 162 163 173 190 207 200 178 166 158 127 77 34 19 5 0 0 0 0 0 0 0 0 0 0 0 0 0 0 0 0 0 0 0 0 0 0 4 0 0 0 0 0 0 0 0 0 0 0 0 0 0 0 0 0 0 0 0 0 0 0 0 0 0 0 0 0 0 
0 0 0 0 0 0 0 0 0 0 0 0 0 0 0 0 0 0 0 0 0 0 0 0 0 0 0 0 0 11 31 19 22 71 145 161 164 165 177 203 206 181 151 141 143 152 156 158 162 138 116 114 111 111 117 135 152 161 167 168 177 183 180 172 163 161 174 200 203 177 159 147 109 50 24 8 0 0 0 0 0 0 0 0 0 0 0 0 0 0 0 0 0 0 0 0 0 4 0 0 0 0 0 0 0 0 0 0 0 0 0 0 0 0 0 0 0 0 0 0 0 0 0 0 0 0 0 0 
0 0 0 0 0 0 0 0 0 0 0 0 0 0 0 0 0 0 0 0 0 0 0 0 0 0 0 0 23 25 14 42 123 160 158 162 175 202 204 180 150 139 150 159 165 161 159 157 148 138 135 128 125 131 135 141 147 147 150 157 161 166 177 188 190 183 167 161 174 199 199 168 153 129 68 25 12 0 0 0 0 0 0 0 0 0 0 0 0 0 0 0 0 0 0 0 0 4 0 0 0 0 0 0 0 0 0 0 0 0 0 0 0 0 0 0 0 0 0 0 0 0 0 0 0 0 0 0 
0 0 0 0 0 0 0 0 0 0 0 0 0 0 0 0 0 0 0 0 0 0 0 0 0 0 6 28 19 17 76 148 158 155 163 193 207 186 157 143 150 162 154 132 117 118 128 136 132 137 136 133 130 125 115 100 105 114 119 124 140 152 152 159 172 186 191 187 171 160 175 199 181 156 134 82 25 14 0 0 0 0 0 0 0 0 0 0 0 0 0 0 0 0 0 0 0 5 0 0 0 0 0 0 0 0 0 0 0 0 0 0 0 0 0 0 0 0 0 0 0 0 0 0 0 0 0 0 
0 0 0 0 0 0 0 0 0 0 0 0 0 0 0 0 0 0 0 0 0 0 0 0 0 11 26 17 31 98 159 154 153 175 208 196 170 150 152 162 164 141 118 112 115 120 120 116 104 103 85 95 86 87 100 104 113 117 123 123 125 141 154 147 144 157 171 185 191 182 164 164 193 189 157 138 88 26 13 0 0 0 0 0 0 0 0 0 0 0 0 0 0 0 0 0 0 6 0 0 0 0 0 0 0 0 0 0 0 0 0 0 0 0 0 0 0 0 0 0 0 0 0 0 0 0 0 0 
0 0 0 0 0 0 0 0 0 0 0 0 0 0 0 0 0 0 0 0 0 0 0 0 13 21 16 39 110 159 150 159 191 209 182 158 146 154 163 158 131 123 132 137 136 138 135 119 111 104 104 111 115 116 117 118 122 129 130 123 117 116 137 151 148 143 144 153 166 181 187 173 165 190 195 162 143 99 30 13 0 0 0 0 0 0 0 0 0 0 0 0 0 0 0 0 0 6 0 0 0 0 0 0 0 0 0 0 0 0 0 0 0 0 0 0 0 0 0 0 0 0 0 0 0 0 0 0 
0 0 0 0 0 0 0 0 0 0 0 0 0 0 0 0 0 0 0 0 0 0 5 18 18 15 48 119 156 148 164 201 203 162 139 146 158 162 149 133 134 136 124 117 124 129 130 134 143 152 155 154 153 151 155 155 154 156 161 164 160 153 146 149 155 156 149 140 140 148 172 185 177 168 187 194 166 144 111 35 10 0 0 0 0 0 0 0 0 0 0 0 0 0 0 0 0 6 0 0 0 0 0 0 0 0 0 0 0 0 0 0 0 0 0 0 0 0 0 0 0 0 0 0 0 0 0 0 
0 0 0 0 0 0 0 0 0 0 0 0 0 0 0 0 0 0 0 0 0 6 18 15 18 59 127 157 151 177 208 193 149 129 146 158 161 150 139 131 121 123 137 156 161 150 146 141 142 138 136 133 130 127 128 129 128 130 133 140 143 145 160 169 164 162 157 150 143 135 140 162 177 175 169 187 192 165 143 121 37 6 0 0 0 0 0 0 0 0 0 0 0 0 0 0 0 6 0 0 0 0 0 0 0 0 0 0 0 0 0 0 0 0 0 0 0 0 0 0 0 0 0 0 0 0 0 0 
0 0 0 0 0 0 0 0 0 0 0 0 0 0 0 0 0 0 0 0 6 16 10 20 72 138 153 152 184 209 184 140 126 146 159 165 153 131 113 124 152 162 153 141 136 133 128 128 129 128 127 127 127 129 126 125 123 119 123 126 126 127 131 142 159 175 174 158 143 135 130 133 151 170 174 173 193 192 165 146 125 36 6 0 0 0 0 0 0 0 0 0 0 0 0 0 0 6 0 0 0 0 0 0 0 0 0 0 0 0 0 0 0 0 0 0 0 0 0 0 0 0 0 0 0 0 0 0 
0 0 0 0 0 0 0 0 0 0 0 0 0 0 0 0 0 0 0 5 17 8 21 78 140 152 154 185 208 178 130 127 148 154 162 151 115 106 138 159 148 133 128 129 132 132 129 130 124 121 130 130 131 132 126 124 123 123 124 127 129 129 128 128 126 135 157 169 159 147 137 132 127 143 167 173 174 196 184 162 146 115 25 3 0 0 0 0 0 0 0 0 0 0 0 0 0 6 0 0 0 0 0 0 0 0 0 0 0 0 0 0 0 0 0 0 0 0 0 0 0 0 0 0 0 0 0 0 
0 0 0 0 0 0 0 0 0 0 0 0 0 0 0 0 0 0 5 16 6 21 80 135 148 150 184 202 171 123 123 147 160 162 135 98 102 142 152 135 129 129 132 129 124 114 110 112 109 110 109 101 103 109 104 103 106 110 115 117 118 121 126 127 125 120 126 147 164 152 149 141 131 128 141 158 165 176 199 168 156 146 98 17 1 0 0 0 0 0 0 0 0 0 0 0 0 6 0 0 0 0 0 0 0 0 0 0 0 0 0 0 0 0 0 0 0 0 0 0 0 0 0 0 0 0 0 0 
0 0 0 0 0 0 0 0 0 0 0 0 0 0 0 0 0 3 15 11 17 75 129 147 147 180 196 176 128 125 147 160 160 128 94 102 139 141 126 131 131 130 121 104 94 87 84 85 89 90 68 65 67 90 94 90 88 89 92 97 107 105 111 116 125 128 124 132 157 155 140 145 145 134 129 137 148 160 185 190 159 154 144 73 8 0 0 0 0 0 0 0 0 0 0 0 0 6 0 0 0 0 0 0 0 0 0 0 0 0 0 0 0 0 0 0 0 0 0 0 0 0 0 0 0 0 0 0 
0 0 0 0 0 0 0 0 0 0 0 0 0 0 0 0 0 11 12 12 69 123 143 149 177 185 183 134 121 149 162 156 131 95 89 127 138 125 132 130 117 100 86 81 79 80 83 85 84 61 56 55 55 64 89 90 88 85 89 89 93 95 102 110 114 125 131 130 137 158 142 127 142 137 132 131 138 134 164 202 175 159 152 128 48 4 0 0 0 0 0 0 0 0 0 0 0 7 0 0 0 0 0 0 0 0 0 0 0 0 0 0 0 0 0 0 0 0 0 0 0 0 0 0 0 0 0 0 
0 0 0 0 0 0 0 0 0 0 0 0 0 0 0 0 5 14 9 57 118 131 153 172 178 183 138 115 146 158 145 129 97 81 122 144 132 134 130 110 88 83 79 78 71 65 66 64 56 53 55 54 53 56 60 72 82 83 73 60 61 74 80 87 99 110 123 129 129 139 149 121 119 139 132 131 136 133 127 178 200 159 152 151 108 28 2 0 0 0 0 0 0 0 0 0 0 7 0 0 0 0 0 0 0 0 0 0 0 0 0 0 0 0 0 0 0 0 0 0 0 0 0 0 0 0 0 0 
0 0 0 0 0 0 0 0 0 0 0 0 0 0 0 3 11 11 45 112 125 146 166 174 178 153 104 137 161 141 122 99 83 110 140 130 133 125 106 89 74 63 56 54 53 54 55 56 55 54 59 63 63 69 77 78 81 78 73 71 69 71 68 63 69 88 103 118 130 134 142 135 100 118 138 135 142 145 125 129 200 176 152 150 134 80 11 0 0 0 0 0 0 0 0 0 0 8 0 0 0 0 0 0 0 0 0 0 0 0 0 0 0 0 0 0 0 0 0 0 0 0 0 0 0 0 0 0 
0 0 0 0 0 0 0 0 0 0 0 0 0 0 0 9 14 30 95 122 131 164 171 168 171 118 120 158 148 124 101 87 100 137 140 126 130 104 91 65 59 65 69 67 65 63 68 69 67 65 71 77 85 90 98 103 102 98 95 91 91 90 84 73 59 64 84 103 124 131 136 145 117 90 122 140 143 140 133 109 170 192 156 144 150 106 37 2 0 0 0 0 0 0 0 0 0 7 0 0 0 0 0 0 0 0 0 0 0 0 0 0 0 0 0 0 0 0 0 0 0 0 0 0 0 0 0 0 
0 0 0 0 0 0 0 0 0 0 0 0 0 0 4 9 16 77 116 118 161 168 161 159 146 108 152 160 130 103 93 94 127 147 138 125 110 90 72 72 78 87 93 93 88 79 94 96 96 96 100 103 106 110 115 117 118 115 112 109 102 101 98 90 73 59 64 81 106 123 126 148 142 100 96 128 145 143 144 109 142 192 174 150 154 124 67 6 0 0 0 0 0 0 0 0 0 8 0 0 0 0 0 0 0 0 0 0 0 0 0 0 0 0 0 0 0 0 0 0 0 0 0 0 0 0 0 0 
0 0 0 0 0 0 0 0 0 0 0 0 0 0 7 8 48 99 120 133 172 161 148 162 125 130 165 139 104 93 91 117 146 137 131 114 101 89 89 93 97 103 105 108 106 105 109 107 112 121 127 129 128 130 130 133 132 127 124 117 110 105 104 100 91 76 61 66 82 108 113 139 151 133 96 104 133 144 143 121 127 177 178 162 150 141 89 20 1 0 0 0 0 0 0 0 0 8 0 0 0 0 0 0 0 0 0 0 0 0 0 0 0 0 0 0 0 0 0 0 0 0 0 0 0 0 0 0 
0 0 0 0 0 0 0 0 0 0 0 0 0 1 7 15 82 108 116 160 166 152 152 158 129 150 149 101 91 89 106 140 134 132 130 120 110 101 103 103 106 108 110 112 114 117 121 129 134 139 142 138 137 137 133 136 141 140 136 128 118 113 107 105 101 92 74 62 68 85 108 139 144 151 129 101 109 127 144 128 123 166 170 167 150 151 106 41 3 0 0 0 0 0 0 0 0 9 0 0 0 0 0 0 0 0 0 0 0 0 0 0 0 0 0 0 0 0 0 0 0 0 0 0 0 0 0 0 
0 0 0 0 0 0 0 0 0 0 0 0 0 4 7 39 95 116 124 175 153 148 148 154 137 148 116 90 89 93 141 145 131 135 127 117 107 105 107 108 107 114 116 119 127 133 140 140 137 130 117 116 128 107 108 113 124 136 139 140 138 132 122 111 102 100 92 73 63 72 90 125 137 150 154 124 102 110 128 133 122 160 160 167 149 157 122 58 3 0 0 0 0 0 0 0 0 8 0 0 0 0 0 0 0 0 0 0 0 0 0 0 0 0 0 0 0 0 0 0 0 0 0 0 0 0 0 0 
0 0 0 0 0 0 0 0 0 0 0 0 0 4 8 68 105 111 143 173 139 140 150 156 142 123 93 92 84 125 155 135 132 133 115 100 102 109 114 112 112 117 127 137 138 140 134 122 118 115 109 107 113 107 106 110 109 110 109 120 132 139 139 128 109 99 102 91 70 63 76 111 132 135 152 148 105 102 110 131 120 147 151 167 145 146 130 76 8 0 0 0 0 0 0 0 0 9 0 0 0 0 0 0 0 0 0 0 0 0 0 0 0 0 0 0 0 0 0 0 0 0 0 0 0 0 0 0 
0 0 0 0 0 0 0 0 0 0 0 0 0 8 17 90 111 115 166 157 131 127 152 153 124 100 90 93 86 143 149 134 136 123 108 99 103 110 115 112 120 133 139 139 132 119 115 116 118 115 112 109 106 106 108 111 110 111 108 108 106 114 134 141 134 114 103 100 83 64 63 98 125 130 142 157 112 98 104 124 124 143 140 163 154 152 136 90 13 0 0 0 0 0 0 0 0 8 0 0 0 0 0 0 0 0 0 0 0 0 0 0 0 0 0 0 0 0 0 0 0 0 0 0 0 0 0 0 
0 0 0 0 0 0 0 0 0 0 0 0 3 6 38 101 114 128 176 137 121 114 157 146 97 95 89 95 92 141 136 126 126 111 100 99 108 109 112 123 136 138 131 115 105 102 106 110 112 113 116 107 105 106 109 111 113 110 110 107 106 109 111 136 141 134 117 106 103 84 66 84 114 125 130 148 112 93 105 115 118 139 143 159 156 147 140 98 16 0 0 0 0 0 0 0 0 9 0 0 0 0 0 0 0 0 0 0 0 0 0 0 0 0 0 0 0 0 0 0 0 0 0 0 0 0 0 0 
0 0 0 0 0 0 0 0 0 0 0 0 4 6 55 103 117 141 172 127 118 120 161 126 83 92 95 99 97 137 123 123 118 108 99 104 105 110 122 133 135 122 104 103 102 102 103 104 111 112 113 109 106 111 112 109 109 110 107 106 107 107 110 114 132 138 132 120 124 116 86 76 97 114 120 138 105 92 101 104 107 141 142 150 160 138 145 108 24 0 0 0 0 0 0 0 0 10 0 0 0 0 0 0 0 0 0 0 0 0 0 0 0 0 0 0 0 0 0 0 0 0 0 0 0 0 0 0 
0 0 0 0 0 0 0 0 0 0 0 0 4 6 69 106 119 150 165 117 121 128 158 110 83 93 94 96 92 124 119 121 117 108 97 103 110 127 137 133 121 105 104 105 104 104 104 99 109 113 113 111 110 114 110 105 105 108 106 106 106 107 109 109 114 132 138 143 143 134 110 82 86 100 110 135 92 84 100 102 103 142 146 153 171 138 154 117 33 2 0 0 0 0 0 0 0 9 0 0 0 0 0 0 0 0 0 0 0 0 0 0 0 0 0 0 0 0 0 0 0 0 0 0 0 0 0 0 
0 0 0 0 0 0 0 0 0 0 0 0 4 6 75 109 122 159 150 110 128 132 144 104 82 94 94 94 83 116 120 119 118 106 100 111 124 138 140 133 124 110 109 108 106 103 104 106 110 109 111 111 112 111 104 97 96 101 104 106 107 108 110 111 110 134 140 160 153 143 124 100 82 87 95 116 90 84 99 99 104 148 147 146 177 143 157 135 46 3 0 0 0 0 0 0 0 9 0 0 0 0 0 0 0 0 0 0 0 0 0 0 0 0 0 0 0 0 0 0 0 0 0 0 0 0 0 0 
0 0 0 0 0 0 0 0 0 0 0 0 4 9 80 114 125 163 140 110 139 136 135 102 83 95 95 87 75 115 118 119 120 107 112 130 135 137 135 136 137 129 118 108 108 109 108 109 108 102 105 111 108 111 100 87 85 88 97 104 108 111 110 112 125 137 142 156 163 166 154 123 92 87 90 109 92 92 92 91 108 155 148 139 179 144 153 146 58 4 0 0 0 0 0 0 0 8 0 0 0 0 0 0 0 0 0 0 0 0 0 0 0 0 0 0 0 0 0 0 0 0 0 0 0 0 0 0 
0 0 0 0 0 0 0 0 0 0 0 0 5 13 80 118 129 172 136 115 150 135 134 105 86 94 94 80 70 114 118 126 126 124 142 161 159 137 131 134 124 115 118 118 109 108 109 106 99 95 102 105 104 103 91 79 78 77 82 93 105 111 125 147 145 139 135 134 138 151 166 155 109 86 88 96 92 98 94 93 121 157 144 133 172 148 148 149 67 6 0 0 0 0 0 0 0 8 0 0 0 0 0 0 0 0 0 0 0 0 0 0 0 0 0 0 0 0 0 0 0 0 0 0 0 0 0 0 
0 0 0 0 0 0 0 0 0 0 0 0 6 14 84 118 137 180 130 115 155 135 134 119 89 92 90 71 77 111 122 129 137 152 169 165 155 144 139 146 139 134 129 110 98 110 108 105 92 82 91 98 99 91 78 73 70 73 80 82 99 125 140 137 124 107 104 102 100 107 115 117 106 96 86 94 96 95 96 101 123 159 140 131 169 153 147 158 77 7 0 0 0 0 0 0 0 8 0 0 0 0 0 0 0 0 0 0 0 0 0 0 0 0 0 0 0 0 0 0 0 0 0 0 0 0 0 0 
0 0 0 0 0 0 0 0 0 0 0 0 8 14 87 119 147 182 127 114 154 132 126 128 92 90 92 72 79 105 123 135 151 163 141 118 112 113 112 112 107 105 113 118 105 100 110 100 86 73 80 88 88 83 73 68 65 67 73 85 126 132 118 111 108 108 109 106 105 106 107 103 81 81 105 105 104 97 106 117 146 153 133 126 154 151 148 162 88 8 0 0 0 0 0 0 0 7 0 0 0 0 0 0 0 0 0 0 0 0 0 0 0 0 0 0 0 0 0 0 0 0 0 0 0 0 0 0 
0 0 0 0 0 0 0 0 0 0 0 0 8 14 89 124 149 179 118 119 155 125 117 132 103 99 103 81 86 107 130 139 149 122 103 101 105 108 110 105 98 89 85 89 108 114 98 101 77 68 69 77 81 79 70 65 61 64 69 104 119 110 107 109 113 111 110 111 111 109 111 112 92 79 123 129 108 94 107 125 151 144 124 122 149 139 146 168 102 13 0 0 0 0 0 0 0 8 0 0 0 0 0 0 0 0 0 0 0 0 0 0 0 0 0 0 0 0 0 0 0 0 0 0 0 0 0 0 
0 0 0 0 0 0 0 0 0 0 0 0 8 11 89 121 153 176 114 123 152 122 114 126 107 96 112 86 99 109 129 145 132 100 91 98 106 108 108 100 95 88 81 79 82 97 102 96 82 67 73 71 72 74 66 61 58 62 84 102 84 96 109 113 115 115 115 117 118 121 120 114 91 76 114 143 112 88 95 125 154 137 113 117 142 142 146 165 112 20 0 0 0 0 0 0 0 8 0 0 0 0 0 0 0 0 0 0 0 0 0 0 0 0 0 0 0 0 0 0 0 0 0 0 0 0 0 0 
0 0 0 0 0 0 0 0 0 0 0 0 8 13 96 120 158 181 117 122 139 122 112 126 120 102 104 78 97 118 133 153 135 112 110 111 110 108 99 88 86 85 81 80 77 78 100 100 90 77 78 71 75 93 79 68 65 64 80 85 70 88 106 113 119 122 118 121 124 122 120 113 90 75 99 137 123 88 98 130 159 143 109 114 132 143 149 164 119 29 0 0 0 0 0 0 0 8 0 0 0 0 0 0 0 0 0 0 0 0 0 0 0 0 0 0 0 0 0 0 0 0 0 0 0 0 0 0 
0 0 0 0 0 0 0 0 0 0 0 0 8 14 93 118 162 183 120 117 136 125 107 122 130 103 86 79 88 111 131 158 133 119 114 118 121 119 104 91 90 86 81 78 75 69 76 76 69 54 64 78 104 127 130 100 78 58 68 70 65 83 115 126 124 120 123 125 127 123 123 117 90 70 79 124 129 92 106 147 157 137 101 101 126 132 155 162 124 37 0 0 0 0 0 0 0 8 0 0 0 0 0 0 0 0 0 0 0 0 0 0 0 0 0 0 0 0 0 0 0 0 0 0 0 0 0 0 
0 0 0 0 0 0 0 0 0 0 0 0 9 17 93 126 170 178 103 101 133 123 95 115 131 115 84 78 84 107 130 155 133 126 123 120 120 114 100 89 92 91 87 75 69 65 64 70 69 52 59 73 111 92 114 104 58 61 59 62 72 92 110 117 117 121 124 126 130 123 120 114 91 71 76 115 132 111 127 168 153 138 99 95 123 116 145 155 132 42 2 0 0 0 0 0 0 8 0 0 0 0 0 0 0 0 0 0 0 0 0 0 0 0 0 0 0 0 0 0 0 0 0 0 0 0 0 0 
0 0 0 0 0 0 0 0 0 0 0 0 8 17 91 132 173 171 92 101 127 113 86 112 120 113 82 71 85 106 128 156 131 123 115 118 119 117 102 88 78 85 85 77 63 62 58 56 66 53 52 74 88 63 68 85 62 55 61 64 80 85 97 108 114 117 125 126 127 126 122 112 83 68 77 118 142 135 141 181 171 140 98 93 109 107 127 147 139 48 2 0 0 0 0 0 0 8 0 0 0 0 0 0 0 0 0 0 0 0 0 0 0 0 0 0 0 0 0 0 0 0 0 0 0 0 0 0 
0 0 0 0 0 0 0 0 0 0 0 0 7 15 83 138 170 158 91 109 127 102 85 111 106 87 74 68 83 103 125 162 135 122 118 116 118 115 104 85 74 72 65 59 61 68 63 57 64 53 56 88 53 60 61 51 83 63 69 70 73 83 96 106 111 117 123 128 131 125 120 103 76 71 80 123 146 139 143 190 185 139 98 94 105 106 118 140 142 53 2 0 0 0 0 0 0 7 0 0 0 0 0 0 0 0 0 0 0 0 0 0 0 0 0 0 0 0 0 0 0 0 0 0 0 0 0 0 
0 0 0 0 0 0 0 0 0 0 0 0 8 15 82 138 165 140 100 109 110 97 89 123 95 84 110 71 79 96 118 162 145 121 113 117 121 118 105 91 77 63 54 49 50 63 66 53 56 61 87 90 66 62 58 47 69 64 54 68 75 90 104 109 113 118 124 130 130 126 117 93 67 68 86 121 135 137 167 203 193 141 98 94 96 105 117 133 142 55 2 0 0 0 0 0 0 7 0 0 0 0 0 0 0 0 0 0 0 0 0 0 0 0 0 0 0 0 0 0 0 0 0 0 0 0 0 0 
0 0 0 0 0 0 0 0 0 0 0 0 7 15 76 137 164 124 106 109 108 101 92 127 96 98 134 72 69 93 114 155 156 118 112 114 116 116 111 100 76 54 46 48 51 55 59 48 50 63 101 64 56 51 61 48 60 90 62 86 91 93 104 112 115 118 127 133 136 128 112 84 68 69 91 137 141 152 169 197 194 142 102 96 87 103 122 139 134 53 2 0 0 0 0 0 0 6 0 0 0 0 0 0 0 0 0 0 0 0 0 0 0 0 0 0 0 0 0 0 0 0 0 0 0 0 0 0 
0 0 0 0 0 0 0 0 0 0 0 0 6 13 70 133 162 112 112 109 107 104 95 124 92 98 135 76 57 88 111 147 168 131 113 107 107 114 115 102 73 54 44 45 54 67 63 48 49 85 116 73 66 57 80 55 49 93 91 73 95 96 105 109 112 115 127 137 140 128 99 72 62 69 95 132 128 135 156 191 192 139 100 93 80 100 121 141 125 47 1 0 0 0 0 0 0 6 0 0 0 0 0 0 0 0 0 0 0 0 0 0 0 0 0 0 0 0 0 0 0 0 0 0 0 0 0 0 
0 0 0 0 0 0 0 0 0 0 0 0 5 15 66 129 161 106 114 109 103 104 98 119 92 89 129 75 53 80 111 140 177 151 121 114 117 122 118 95 69 51 48 49 63 68 70 46 60 116 113 77 70 73 85 59 51 66 104 74 79 89 105 108 111 121 133 137 138 120 86 62 60 66 103 132 122 114 136 175 196 138 101 90 79 102 126 142 115 40 2 0 0 0 0 0 0 6 0 0 0 0 0 0 0 0 0 0 0 0 0 0 0 0 0 0 0 0 0 0 0 0 0 0 0 0 0 0 
0 0 0 0 0 0 0 0 0 0 0 0 4 14 57 120 158 106 110 107 101 101 95 114 98 77 119 74 52 72 106 134 176 159 125 121 124 121 112 87 66 48 46 48 52 57 71 50 76 131 97 82 76 82 86 82 62 54 88 92 93 93 97 109 115 121 126 133 133 114 77 55 56 68 120 140 115 100 119 156 195 135 102 84 81 101 130 141 107 34 1 0 0 0 0 0 0 6 0 0 0 0 0 0 0 0 0 0 0 0 0 0 0 0 0 0 0 0 0 0 0 0 0 0 0 0 0 0 
0 0 0 0 0 0 0 0 0 6 4 0 0 10 44 112 158 114 106 107 101 102 89 114 112 76 102 70 51 64 101 124 163 164 132 119 117 117 107 87 71 58 49 51 54 87 74 60 105 102 94 83 77 93 75 68 70 57 67 112 84 107 110 111 115 119 120 129 128 102 68 53 53 76 132 124 91 103 119 137 196 135 99 73 82 99 135 135 96 25 1 0 0 0 0 0 0 6 0 0 0 0 0 0 0 0 0 0 0 0 0 0 0 0 0 0 0 0 0 0 0 0 0 0 0 0 0 0 
0 0 0 0 0 0 0 0 0 0 3 1 1 7 36 105 145 122 95 107 101 99 84 103 123 87 90 73 53 57 95 115 137 158 147 119 117 119 108 86 76 72 66 59 66 60 67 79 117 74 99 91 88 97 84 67 63 70 80 120 112 100 112 110 117 122 126 130 125 93 60 52 56 88 114 86 96 120 112 138 192 140 93 68 84 95 135 118 82 18 0 0 0 0 0 0 0 6 0 0 0 0 0 0 0 0 0 0 0 0 0 0 0 0 0 0 0 0 0 0 0 0 0 0 0 0 0 0 
0 0 0 0 0 0 0 0 0 0 2 4 2 6 29 98 131 133 83 99 109 98 84 90 120 101 89 73 57 65 112 121 118 129 150 125 113 116 110 95 73 61 50 58 69 69 64 87 103 73 108 96 98 110 99 76 70 69 78 123 130 99 115 117 110 115 125 135 121 83 56 75 98 121 96 92 129 112 95 137 181 148 89 83 77 107 141 105 68 12 0 0 0 0 0 0 0 6 0 0 0 0 0 0 0 0 0 0 0 0 0 0 0 0 0 0 0 0 0 0 0 0 0 0 0 0 0 0 
0 0 0 0 0 0 0 0 0 0 5 10 4 4 20 85 119 147 82 93 105 109 98 79 111 117 99 73 63 81 109 128 119 115 129 122 109 112 109 91 78 61 58 68 67 74 59 94 93 91 110 99 106 118 114 87 72 62 68 115 154 115 113 112 122 139 150 155 146 129 134 146 135 115 123 137 130 114 113 151 162 151 94 84 84 129 129 99 65 8 0 0 0 6 5 0 0 6 0 0 0 0 0 0 0 0 0 0 0 0 0 0 0 0 0 0 0 0 0 0 0 0 0 0 0 0 0 0 
0 0 0 0 0 0 0 0 0 0 6 16 10 6 17 74 115 152 96 88 101 110 100 85 99 138 130 77 70 88 94 118 125 123 116 111 111 111 109 97 83 64 55 59 93 72 84 119 99 100 107 103 116 129 125 98 81 70 75 127 162 124 107 108 114 133 139 144 133 133 144 161 169 123 115 132 131 118 135 147 150 160 93 74 89 143 105 97 54 5 0 0 2 0 0 0 0 6 0 0 0 0 0 0 0 0 0 0 0 0 0 0 0 0 0 0 0 0 0 0 0 0 0 0 0 0 0 0 
0 0 0 0 0 0 0 0 0 0 1 16 17 10 14 64 108 142 136 85 100 109 106 97 91 164 138 89 78 92 80 100 109 115 118 121 127 114 120 113 99 86 69 92 79 65 76 115 97 102 106 112 117 134 125 102 86 84 102 129 146 131 117 115 114 119 126 136 138 133 128 158 191 162 133 108 105 133 161 143 154 161 104 78 139 135 93 97 48 5 0 0 2 0 0 0 0 6 0 0 0 0 0 0 0 0 0 0 0 0 0 0 0 0 0 0 0 0 0 0 0 0 0 0 0 0 0 0 
0 0 0 0 0 0 0 0 0 0 0 10 18 13 11 54 99 130 159 98 93 111 116 102 117 163 132 109 98 109 116 121 127 128 126 128 132 127 136 138 140 136 121 81 61 66 72 103 100 109 116 116 121 132 117 106 96 115 114 123 129 135 144 144 141 142 150 149 152 134 88 160 187 184 159 123 130 170 195 169 147 161 132 114 163 114 94 97 41 6 2 2 6 0 0 0 0 7 0 0 0 0 0 0 0 0 0 0 0 0 0 0 0 0 0 0 0 0 0 0 0 0 0 0 0 0 0 0 
0 0 0 0 0 0 0 0 0 0 0 7 16 8 13 43 87 122 161 116 83 119 126 121 143 148 136 114 105 120 130 148 166 162 149 144 149 144 149 134 135 132 100 82 79 84 87 125 131 103 104 105 110 127 112 109 113 120 117 129 149 120 129 137 160 169 158 150 140 128 120 157 158 159 169 132 135 180 192 154 139 169 155 153 177 138 109 83 28 9 11 5 0 0 0 0 0 6 0 0 0 0 0 0 0 0 0 0 0 0 0 0 0 0 0 0 0 0 0 0 0 0 0 0 0 0 0 0 
0 0 0 0 0 0 0 0 0 0 0 8 17 5 4 32 86 117 154 149 100 136 136 129 155 158 138 115 115 122 151 168 149 152 173 169 168 157 152 137 134 131 120 106 102 111 126 135 129 108 90 97 105 132 122 122 117 119 121 127 149 134 136 153 176 174 138 121 125 145 161 142 114 127 143 147 178 185 181 163 122 168 176 179 188 137 106 66 15 11 16 2 0 0 0 0 0 5 0 0 0 0 0 0 0 0 0 0 0 0 0 0 0 0 0 0 0 0 0 0 0 0 0 0 0 0 0 0 
0 0 0 0 0 0 0 0 0 0 0 2 16 10 3 6 49 98 120 158 148 141 159 149 160 184 158 118 119 136 164 202 175 120 149 161 155 151 140 134 121 112 138 138 128 138 132 133 117 105 109 101 112 142 142 131 121 125 131 136 137 136 144 154 162 158 136 123 115 107 126 135 118 138 162 163 182 186 176 175 167 186 206 209 192 127 94 67 20 13 18 6 0 0 0 0 0 4 0 0 0 0 0 0 0 0 0 0 0 0 0 0 0 0 0 0 0 0 0 0 0 0 0 0 0 0 0 0 
0 0 0 0 0 0 0 0 0 0 0 4 10 9 3 6 29 88 123 158 157 162 135 143 173 199 179 124 98 128 178 187 180 140 118 124 128 144 136 129 121 118 124 131 130 130 137 129 124 105 95 110 110 134 135 123 112 117 123 126 127 139 134 136 135 120 127 134 122 103 91 110 114 151 142 169 177 165 138 130 142 197 200 179 147 93 87 51 14 12 18 6 0 0 0 0 0 4 0 0 0 0 0 0 0 0 0 0 0 0 0 0 0 0 0 0 0 0 0 0 0 0 0 0 0 0 0 0 
0 0 0 0 0 0 0 0 0 0 0 5 6 15 6 8 20 70 117 134 165 149 148 122 154 191 175 134 110 134 165 178 171 152 134 107 98 130 161 158 143 136 132 129 127 129 135 130 128 102 97 87 97 118 130 133 113 114 118 126 134 154 133 115 93 65 111 150 130 110 113 105 92 95 131 158 160 156 128 99 99 170 146 130 133 128 85 30 11 10 15 5 0 0 0 0 0 4 0 0 0 0 0 0 0 0 0 0 0 0 0 0 0 0 0 0 0 0 0 0 0 0 0 0 0 0 0 0 
0 0 0 0 0 0 0 0 0 0 0 4 7 19 7 12 18 49 103 107 156 159 162 143 130 172 168 145 130 121 149 168 173 166 146 112 96 120 163 142 127 131 136 132 130 134 138 129 138 109 109 106 106 121 116 117 117 132 131 138 163 157 120 96 74 54 72 93 85 79 109 109 85 113 141 154 139 137 142 102 102 130 149 115 122 134 63 19 10 9 9 4 3 0 0 0 0 4 0 0 0 0 0 0 0 0 0 0 0 0 0 0 0 0 0 0 0 0 0 0 0 0 0 0 0 0 0 0 
0 0 0 0 0 0 0 0 0 0 0 3 10 13 12 17 17 27 90 103 152 193 170 125 113 144 138 122 115 137 163 162 151 131 151 154 121 106 110 78 72 90 108 116 122 122 128 120 143 146 137 127 110 108 119 119 106 119 122 133 149 146 107 104 91 69 72 77 79 92 125 102 89 127 141 156 143 138 157 138 120 123 143 123 120 103 32 11 7 5 5 3 5 0 0 0 0 3 0 0 0 0 0 0 0 0 0 0 0 0 0 0 0 0 0 0 0 0 0 0 0 0 0 0 0 0 0 0 
0 0 0 0 0 0 0 0 0 0 0 2 10 8 4 17 19 17 68 93 120 185 180 135 96 130 134 120 106 126 135 124 102 120 147 138 119 99 98 88 43 51 70 92 103 108 112 119 143 135 141 142 106 91 120 124 115 117 96 92 135 140 101 102 125 93 81 84 94 115 119 99 109 122 118 135 151 157 158 168 159 148 118 90 125 78 15 7 2 5 5 2 3 0 0 0 0 3 0 0 0 0 0 0 0 0 0 0 0 0 0 0 0 0 0 0 0 0 0 0 0 0 0 0 0 0 0 0 
0 0 0 0 0 0 0 0 0 0 0 0 7 6 0 5 20 22 44 87 109 151 179 146 138 112 102 121 113 100 103 109 85 91 135 129 106 98 102 90 52 45 72 93 106 113 103 128 127 105 112 120 128 132 147 130 135 118 90 87 139 175 146 120 130 106 90 94 109 114 114 120 120 116 112 135 148 144 154 155 172 158 96 88 113 50 11 8 2 6 3 0 0 0 0 0 0 3 0 0 0 0 0 0 0 0 0 0 0 0 0 0 0 0 0 0 0 0 0 0 0 0 0 0 0 0 0 0 
0 0 0 0 0 0 0 0 0 0 0 0 0 2 0 4 8 21 29 83 106 120 149 141 148 128 90 87 122 108 94 94 108 118 133 141 104 85 87 100 86 97 122 130 126 128 105 124 112 111 132 153 155 153 150 139 123 102 90 90 123 174 181 153 128 127 130 139 138 134 124 126 129 120 115 134 124 130 167 165 177 154 88 106 89 32 8 8 3 5 1 0 0 0 0 0 0 3 0 0 0 0 0 0 0 0 0 0 0 0 0 0 0 0 0 0 0 0 0 0 0 0 0 0 0 0 0 0 
0 0 0 0 0 0 0 0 0 0 0 0 0 0 1 6 11 11 23 59 87 113 126 119 129 124 133 108 110 126 116 104 117 131 132 140 140 101 92 98 132 145 133 136 135 139 130 111 89 108 145 153 154 153 132 113 99 98 101 103 117 153 171 166 143 132 135 138 147 127 117 126 125 127 111 139 112 148 171 160 163 138 103 75 62 23 9 9 4 3 0 0 0 0 0 0 0 2 0 0 0 0 0 0 0 0 0 0 0 0 0 0 0 0 0 0 0 0 0 0 0 0 0 0 0 0 0 0 
0 0 0 0 0 0 0 0 0 0 1 2 1 2 2 9 11 8 16 45 60 91 150 127 106 126 132 136 106 105 120 113 127 124 101 115 143 151 157 155 155 167 151 145 153 138 149 149 125 145 152 130 130 151 165 167 139 114 119 110 117 138 153 170 178 151 156 165 153 135 129 123 108 98 103 128 127 168 180 139 113 140 117 48 56 18 8 10 7 4 0 0 0 0 0 0 0 2 0 0 0 0 0 0 0 0 0 0 0 0 0 0 0 0 0 0 0 0 0 0 0 0 0 0 0 0 0 0 
0 0 0 0 0 0 0 0 0 0 2 5 12 14 7 11 10 9 13 36 63 74 141 108 89 121 135 139 124 82 100 106 131 132 106 102 114 124 127 140 159 169 173 174 182 166 171 166 147 149 133 106 111 125 147 174 167 141 123 120 128 158 150 154 184 159 163 168 156 124 82 83 87 98 116 134 152 152 170 112 129 174 99 50 57 13 6 6 10 3 0 0 0 0 0 0 0 1 0 0 0 0 0 0 0 0 0 0 0 0 0 0 0 0 0 0 0 0 0 0 0 0 0 0 0 0 0 0 
0 0 0 0 0 0 0 0 0 0 0 4 11 12 14 7 7 9 13 22 57 60 117 148 124 99 117 145 146 129 138 117 131 83 79 91 106 115 118 125 129 143 164 175 178 164 167 161 152 138 116 127 140 128 141 139 138 136 123 118 130 162 143 153 177 172 164 149 135 104 63 77 106 105 126 154 158 132 127 69 122 135 87 71 42 11 3 3 7 3 0 0 0 0 0 0 0 1 0 0 0 0 0 0 0 0 0 0 0 0 0 0 0 0 0 0 0 0 0 0 0 0 0 0 0 0 0 0 
0 0 0 0 0 0 0 0 0 0 0 3 10 12 11 8 5 7 15 14 27 70 125 121 80 90 108 148 153 163 156 128 135 106 69 56 60 79 95 116 121 138 165 181 187 184 163 152 145 124 131 162 160 157 136 125 144 157 151 142 154 169 145 149 170 159 141 127 120 124 84 104 117 109 139 147 146 121 111 77 110 112 59 57 16 12 1 2 1 4 1 2 4 1 0 0 0 1 0 0 0 0 0 0 0 0 0 0 0 0 0 0 0 0 0 0 0 0 0 0 0 0 0 0 0 0 0 0 
0 0 0 0 0 0 0 0 0 0 0 2 11 11 8 8 8 11 12 16 15 40 122 129 107 72 104 156 156 136 141 129 128 142 111 78 65 59 65 78 88 107 132 151 159 167 146 120 104 103 149 159 155 180 181 147 130 126 124 104 135 156 114 122 159 160 139 131 132 137 150 153 141 128 127 139 130 78 73 44 95 93 71 27 8 9 6 2 0 2 14 16 14 6 4 0 0 0 0 0 0 0 0 0 0 0 0 0 0 0 0 0 0 0 0 0 0 0 0 0 0 0 0 0 0 0 0 0 
0 0 0 0 0 0 0 0 0 0 0 0 10 14 7 6 6 3 6 12 21 29 71 145 119 60 93 156 131 131 140 124 118 138 142 114 112 135 163 191 166 154 150 140 155 155 137 127 141 165 174 163 160 171 166 154 138 118 112 103 133 114 112 158 161 177 172 182 206 132 132 195 183 147 115 98 94 78 62 29 103 90 32 6 10 2 2 4 4 7 8 8 5 5 0 0 0 0 0 0 0 0 0 0 0 0 0 0 0 0 0 0 0 0 0 0 0 0 0 0 0 0 0 0 0 0 0 0 
0 0 0 0 0 0 0 0 0 0 0 0 4 12 6 3 3 5 5 7 20 28 33 92 118 86 117 144 96 122 135 130 96 98 115 110 118 129 121 134 178 180 175 164 205 227 210 178 175 173 183 194 190 186 179 163 151 163 176 179 174 163 168 189 211 194 186 221 144 139 132 140 132 92 76 88 64 100 104 87 72 23 16 10 6 1 0 0 0 1 9 10 6 0 0 0 0 0 0 0 0 0 0 0 0 0 0 0 0 0 0 0 0 0 0 0 0 0 0 0 0 0 0 0 0 0 0 0 
0 0 0 0 0 0 0 0 0 0 0 0 0 3 4 3 1 0 0 5 13 22 26 36 97 110 92 83 93 77 111 120 123 108 88 89 71 90 106 139 175 160 180 188 220 211 216 209 192 174 161 178 176 171 151 134 120 113 129 155 153 146 151 193 157 142 154 194 133 102 84 67 84 100 123 152 105 103 65 33 27 24 29 20 14 0 0 0 0 1 8 13 10 0 0 0 0 0 0 0 0 0 0 0 0 0 0 0 0 0 0 0 0 0 0 0 0 0 0 0 0 0 0 0 0 0 0 0 
0 0 0 0 0 0 0 0 0 0 0 0 0 0 8 8 8 2 0 1 8 10 18 23 33 52 29 67 100 53 82 72 56 67 65 89 89 71 65 74 120 130 128 135 140 121 83 74 100 104 95 104 104 71 70 74 80 60 64 63 71 103 101 119 112 152 136 47 57 57 41 52 55 47 48 113 59 92 50 28 28 23 10 5 3 0 4 6 7 6 6 12 2 0 0 0 0 0 0 0 0 0 0 0 0 0 0 0 0 0 0 0 0 0 0 0 0 0 0 0 0 0 0 0 0 0 0 0 
0 0 0 0 0 0 0 0 0 0 0 0 0 0 0 5 8 7 1 0 3 6 12 16 21 20 25 51 113 62 74 67 36 30 33 49 63 47 89 137 164 141 87 90 122 94 61 56 84 87 63 75 69 73 80 88 94 73 67 59 65 121 106 82 91 110 113 118 149 104 52 60 54 41 46 108 67 99 52 28 26 22 6 5 3 2 4 5 6 6 2 0 0 0 0 0 0 0 0 0 0 0 0 0 0 0 0 0 0 0 0 0 0 0 0 0 0 0 0 0 0 0 0 0 0 0 0 0 
0 0 0 0 0 0 0 0 0 0 0 0 0 0 0 0 0 5 0 0 0 6 7 16 18 20 23 44 104 61 67 63 40 30 39 59 87 114 95 128 132 192 112 103 123 119 75 78 89 78 64 85 74 84 92 81 81 60 82 84 84 129 120 102 93 99 139 121 55 120 131 145 95 66 66 110 71 91 43 30 34 23 4 5 1 0 0 0 0 0 0 0 0 0 0 0 0 1 0 0 0 0 0 0 0 0 0 0 0 0 0 0 0 0 0 0 0 0 0 0 0 0 0 0 0 0 0 0 
0 0 0 0 0 0 0 0 0 0 0 0 0 0 0 0 0 0 0 0 0 3 2 7 10 21 19 23 93 73 60 63 51 54 85 134 195 109 83 106 130 161 142 132 152 168 166 117 127 98 91 104 92 92 80 72 85 57 61 90 112 104 130 131 156 151 79 98 139 136 118 162 160 144 114 122 86 84 34 31 31 15 0 2 0 0 0 0 0 0 0 0 0 0 0 0 0 2 0 0 0 0 0 0 0 0 0 0 0 0 0 0 0 0 0 0 0 0 0 0 0 0 0 0 0 0 0 0 
0 0 0 0 0 0 0 0 0 0 0 0 0 0 0 0 0 0 0 0 0 2 17 12 4 9 7 10 65 84 58 52 61 76 92 128 156 126 122 111 149 158 154 167 141 119 109 175 146 178 219 210 196 159 126 110 110 107 104 107 92 103 149 144 104 160 189 117 128 144 118 164 144 81 46 88 60 51 7 8 14 7 11 6 0 0 0 0 0 0 0 0 0 0 0 0 0 4 0 0 0 0 0 0 0 0 0 0 0 0 0 0 0 0 0 0 0 0 0 0 0 0 0 0 0 0 0 0 
0 0 0 0 0 0 0 0 0 0 0 0 0 0 0 0 0 0 0 0 0 0 1 5 7 7 13 12 57 86 62 51 44 37 35 79 132 141 77 71 150 158 113 94 127 172 117 191 201 147 132 126 126 125 124 126 121 110 94 86 108 116 151 172 132 114 104 87 145 165 154 86 34 16 15 96 78 65 26 32 27 1 5 2 0 0 0 0 0 0 0 0 0 0 0 0 2 15 0 0 0 0 0 0 0 0 0 0 0 0 0 0 0 0 0 0 0 0 0 0 0 0 0 0 0 0 0 0 
0 0 0 0 0 0 0 0 0 0 0 0 0 0 0 0 0 0 0 0 0 0 2 3 8 12 14 21 40 66 63 58 50 28 26 51 75 80 161 168 166 164 129 95 121 115 77 140 180 113 89 70 70 72 69 63 68 69 69 72 88 121 155 133 147 86 83 83 64 62 77 68 45 32 29 104 80 55 21 18 14 5 4 1 0 0 0 0 0 0 0 0 0 0 0 0 0 2 0 0 0 0 0 0 0 0 0 0 0 0 0 0 0 0 0 0 0 0 0 0 0 0 0 0 0 0 0 0 
0 0 0 0 0 0 0 0 0 0 0 0 0 0 0 0 0 0 0 0 0 0 1 3 6 11 16 24 29 53 53 70 60 33 41 90 102 87 95 144 136 96 87 114 114 111 123 198 191 104 98 86 58 63 71 72 71 69 76 79 109 122 159 170 132 80 86 77 65 83 97 83 52 38 32 105 82 58 23 22 17 9 4 0 0 0 0 0 0 0 0 0 0 0 0 0 0 0 0 0 0 0 0 0 0 0 0 0 0 0 0 0 0 0 0 0 0 0 0 0 0 0 0 0 0 0 0 0 
0 0 0 0 0 0 0 0 0 0 0 0 0 0 0 0 0 0 0 0 0 0 0 3 4 11 13 22 27 55 38 71 61 33 62 128 111 90 72 95 73 53 74 110 109 109 126 181 177 106 125 130 91 75 75 66 63 78 109 124 146 135 142 132 86 85 105 90 90 89 90 115 117 95 48 101 74 71 25 21 17 11 3 0 0 0 0 0 0 0 0 0 0 0 0 0 0 0 0 0 0 0 0 0 0 0 0 0 0 0 0 0 0 0 0 0 0 0 0 0 0 0 0 0 0 0 0 0 
0 0 0 0 0 0 0 0 0 0 0 0 0 0 0 0 0 0 0 0 0 0 0 1 2 11 11 18 25 53 40 69 65 35 83 134 70 46 38 45 50 48 84 107 93 95 104 169 158 108 142 142 124 123 113 97 107 116 122 147 157 163 147 123 93 70 118 104 95 89 80 82 107 134 85 101 63 75 34 21 17 10 2 0 0 0 0 0 0 0 0 0 0 0 0 0 0 0 0 0 0 0 0 0 0 0 0 0 0 0 0 0 0 0 0 0 0 0 0 0 0 0 0 0 0 0 0 0 
0 0 0 0 0 0 0 0 0 0 0 0 0 0 0 0 0 0 0 0 0 0 0 0 3 7 11 15 22 40 56 73 72 40 93 127 58 35 35 40 44 60 108 107 85 96 84 134 135 111 150 141 131 128 114 110 136 130 113 133 164 166 104 78 79 80 132 124 89 85 77 72 84 131 107 94 64 59 47 20 16 9 1 0 0 0 0 0 0 0 0 0 0 0 0 0 0 0 0 0 0 0 0 0 0 0 0 0 0 0 0 0 0 0 0 0 0 0 0 0 0 0 0 0 0 0 0 0 
0 0 0 0 0 0 0 0 0 0 0 0 0 0 0 0 0 0 0 0 0 0 0 0 3 2 10 13 18 26 56 67 69 40 97 128 55 37 38 38 44 93 125 87 70 102 104 132 118 116 153 123 113 111 90 93 106 109 117 112 139 130 96 77 63 69 109 143 104 68 57 50 63 137 110 81 78 55 24 16 16 8 0 0 0 0 0 0 0 0 0 0 0 0 0 0 0 0 0 0 0 0 0 0 0 0 0 0 0 0 0 0 0 0 0 0 0 0 0 0 0 0 0 0 0 0 0 0 
0 0 0 0 0 0 0 0 0 0 0 0 0 0 0 0 0 0 0 0 0 0 0 0 0 3 5 11 17 19 23 26 57 55 90 119 57 38 39 40 56 111 95 66 62 78 107 121 94 104 131 107 92 81 72 71 80 87 100 121 115 112 109 79 56 64 78 112 125 68 49 47 51 133 122 69 30 19 15 14 15 10 0 0 0 0 0 0 0 0 0 0 0 0 0 0 0 0 0 0 0 0 0 0 0 0 0 0 0 0 0 0 0 0 0 0 0 0 0 0 0 0 0 0 0 0 0 0 
0 0 0 0 0 0 0 0 0 0 0 0 0 0 0 0 0 0 0 0 0 0 0 0 0 2 3 9 15 19 19 20 32 45 58 104 61 37 37 39 55 85 77 78 77 71 91 104 82 90 109 108 91 75 80 79 83 89 90 114 112 82 97 88 64 67 77 94 116 75 43 37 46 127 114 36 20 17 17 14 14 10 0 0 0 0 0 0 0 0 0 0 0 0 0 0 0 0 0 0 0 0 0 0 0 0 0 0 0 0 0 0 0 0 0 0 0 0 0 0 0 0 0 0 0 0 0 0 
0 0 0 0 0 0 0 0 0 0 0 0 0 0 0 0 0 0 0 0 0 0 0 0 0 0 3 8 11 18 20 18 17 14 20 98 74 34 31 45 73 80 71 66 73 78 83 96 71 85 111 103 87 79 68 63 78 83 90 109 106 71 91 92 73 87 82 80 110 96 45 38 53 124 73 17 18 14 15 16 14 10 0 0 0 0 0 0 0 0 0 0 0 0 0 0 0 0 0 0 0 0 0 0 0 0 0 0 0 0 0 0 0 0 0 0 0 0 0 0 0 0 0 0 0 0 0 0 
0 0 0 0 0 0 0 0 0 0 0 0 0 0 0 0 0 0 0 0 0 0 0 0 0 0 2 2 11 13 17 18 18 18 17 57 115 75 47 74 105 83 69 45 50 62 86 107 85 85 99 88 67 67 49 45 75 87 83 103 101 74 94 115 102 87 66 73 100 126 83 58 93 127 42 16 14 13 13 16 12 10 1 0 0 0 0 0 0 0 0 0 0 0 0 0 0 0 0 0 0 0 0 0 0 0 0 0 0 0 0 0 0 0 0 0 0 0 0 0 0 0 0 0 0 0 0 0 
0 0 0 0 0 0 0 0 0 0 0 0 0 0 0 0 0 0 0 0 0 0 0 0 0 0 0 3 3 11 15 18 17 21 16 17 76 123 90 97 89 80 77 48 45 65 96 111 104 116 105 96 78 65 50 77 101 76 88 105 99 75 103 117 110 80 60 73 91 111 105 93 120 62 24 15 15 12 16 14 12 10 1 0 0 0 0 0 0 0 0 0 0 0 0 0 0 0 0 0 0 0 0 0 0 0 0 0 0 0 0 0 0 0 0 0 0 0 0 0 0 0 0 0 0 0 0 0 
0 0 0 0 0 0 0 0 0 0 0 0 0 0 0 0 0 0 0 0 0 0 0 0 0 0 0 2 2 9 13 17 21 20 17 18 17 45 69 55 47 71 83 60 63 81 97 88 73 118 111 97 85 77 72 97 99 93 99 122 99 79 97 94 106 82 72 87 92 67 59 62 42 28 24 15 15 11 16 12 12 9 1 0 0 0 0 0 0 0 0 0 0 0 0 0 0 0 0 0 0 0 0 0 0 0 0 0 0 0 0 0 0 0 0 0 0 0 0 0 0 0 0 0 0 0 0 0 
0 0 0 0 0 0 0 0 0 0 0 0 0 0 0 0 0 0 0 0 0 0 0 0 0 0 0 0 2 4 11 15 17 22 18 16 21 23 26 30 31 56 89 88 80 97 109 88 96 142 126 105 86 100 113 116 100 98 115 125 128 108 91 73 99 92 82 100 95 44 33 30 29 26 27 20 17 13 15 12 11 8 0 0 0 0 0 0 0 0 0 0 0 0 0 0 0 0 0 0 0 0 0 0 0 0 0 0 0 0 0 0 0 0 0 0 0 0 0 0 0 0 0 0 0 0 0 0 
0 0 0 0 0 0 0 0 0 0 0 0 0 0 0 0 0 0 0 0 0 0 0 0 0 0 0 0 0 5 6 13 16 19 20 12 19 22 26 32 33 41 77 87 87 112 94 64 81 122 131 103 82 99 103 101 88 79 89 103 119 133 121 74 92 96 98 112 84 39 32 29 29 25 26 18 14 16 14 13 12 7 0 0 0 0 0 0 0 0 0 0 0 0 0 0 0 0 0 0 0 0 0 0 0 0 0 0 0 0 0 0 0 0 0 0 0 0 0 0 0 0 0 0 0 0 0 0 
0 0 0 0 0 0 0 0 0 0 0 0 0 0 0 0 0 0 0 0 0 0 0 0 0 0 0 0 0 5 5 9 18 18 18 14 15 21 22 29 31 33 41 61 79 83 62 42 56 118 138 113 90 90 96 97 93 95 99 86 107 140 130 76 68 86 89 73 49 47 32 29 28 24 24 16 14 13 14 13 12 6 0 0 0 0 0 0 0 0 0 0 0 0 0 0 0 0 0 0 0 0 0 0 0 0 0 0 0 0 0 0 0 0 0 0 0 0 0 0 0 0 0 0 0 0 0 0 
0 0 0 0 0 0 0 0 0 0 0 0 0 0 0 0 0 0 0 0 0 0 0 0 0 0 0 0 0 4 7 7 14 19 16 14 14 24 19 26 29 33 32 26 30 48 49 46 46 91 135 126 125 129 132 135 131 134 137 126 121 137 117 71 47 41 37 43 42 42 31 34 26 23 19 12 14 13 14 15 13 5 0 0 0 0 0 0 0 0 0 0 0 0 0 0 0 0 0 0 0 0 0 0 0 0 0 0 0 0 0 0 0 0 0 0 0 0 0 0 0 0 0 0 0 0 0 0 
