P2
128 99
245
0 0 0 0 0 0 0 0 0 0 0 0 0 0 0 0 0 0 0 0 0 0 0 0 0 0 0 0 0 0 0 0 0 0 0 0 0 0 0 0 0 0 0 0 0 0 0 0 0 0 0 0 0 0 0 0 0 0 0 0 0 0 0 0 0 0 0 0 0 0 0 0 0 0 0 0 0 0 0 0 0 0 0 0 0 0 0 0 0 0 0 0 0 0 0 0 0 0 0 0 0 0 0 0 0 0 0 0 0 0 0 0 0 0 0 0 0 0 0 0 0 0 0 0 0 0 0 0 
0 0 0 0 0 0 0 0 0 0 0 0 0 0 0 0 0 0 0 0 0 0 0 0 0 0 0 0 0 0 0 0 0 0 0 0 0 0 0 0 0 0 0 0 0 0 0 0 0 0 0 0 0 0 0 0 0 0 0 0 0 0 0 0 0 0 0 0 0 0 0 0 0 0 0 0 0 0 0 0 0 0 0 0 0 0 0 0 0 0 0 0 0 0 0 0 0 0 0 0 0 0 0 0 0 0 0 0 0 0 0 0 0 0 0 0 0 0 0 0 0 0 0 0 0 0 0 0 
0 0 0 0 0 0 0 0 0 0 0 0 0 0 0 0 0 0 0 0 0 0 0 0 0 0 0 0 0 0 0 0 0 0 0 0 0 0 0 0 0 0 0 0 0 0 0 0 0 0 1 4 5 2 0 0 0 0 0 0 0 0 0 0 0 0 0 0 0 0 0 0 0 0 0 0 0 0 0 0 0 0 0 0 0 0 0 0 0 0 0 0 0 0 0 0 0 0 0 0 0 0 0 0 0 0 0 0 0 0 0 0 0 0 0 0 0 0 0 0 0 0 0 0 0 0 0 0 
0 0 0 0 0 0 0 0 0 0 0 0 0 0 0 0 0 0 0 0 0 0 0 0 0 0 0 0 0 0 0 0 0 0 0 0 0 0 0 0 0 0 0 0 8 14 16 19 20 23 27 32 35 33 30 24 16 16 18 15 4 0 0 0 0 0 0 0 0 0 0 0 0 0 0 0 0 0 0 0 0 0 0 0 0 0 0 0 0 0 0 0 0 0 0 0 0 0 0 0 0 0 0 0 0 0 0 0 0 0 0 0 0 0 0 0 0 0 0 0 0 0 0 0 0 0 0 0 
0 0 0 0 0 0 0 0 0 0 0 0 0 0 0 0 0 0 0 0 0 0 0 0 0 0 0 0 0 0 0 0 0 0 0 0 0 0 0 0 11 16 17 25 25 33 55 75 95 108 115 119 122 123 122 117 107 91 73 51 29 20 20 8 0 0 0 0 0 0 0 0 0 0 0 0 0 0 0 0 0 0 0 0 0 0 0 0 0 0 0 0 0 0 0 0 0 0 0 0 0 0 0 0 0 0 0 0 0 0 0 0 0 0 0 0 0 0 0 0 0 0 0 0 0 0 0 0 
0 0 0 0 0 0 0 0 0 0 0 0 0 0 0 0 0 0 0 0 0 0 0 0 0 0 0 0 0 0 0 0 0 0 0 0 0 3 19 16 21 23 34 67 108 130 137 144 151 152 148 144 143 140 141 143 146 147 147 141 121 93 64 35 19 22 11 0 0 0 0 0 0 0 0 0 0 0 0 0 0 0 0 0 0 0 0 0 0 0 0 0 0 0 0 0 0 0 0 0 0 0 0 0 0 0 0 0 0 0 0 0 0 0 0 0 0 0 0 0 0 0 0 0 0 0 0 0 
0 0 0 0 0 0 0 0 0 0 0 0 0 0 0 0 0 0 0 0 0 0 0 0 0 0 0 0 0 0 0 0 0 0 0 2 18 17 21 25 58 106 127 137 151 150 146 146 154 166 181 191 197 199 198 195 183 165 152 146 146 146 145 130 95 60 30 20 14 0 0 0 0 0 0 0 0 0 0 0 0 0 0 0 0 0 0 0 0 0 0 0 0 0 0 0 0 0 0 0 0 0 0 0 0 0 0 0 0 0 0 0 0 0 0 0 0 0 0 0 0 0 0 0 0 0 0 0 
0 0 0 0 0 0 0 0 0 0 0 0 0 0 0 0 0 0 0 0 0 0 0 0 0 0 0 0 0 0 0 0 0 0 15 18 22 24 69 118 126 143 154 154 162 174 186 201 213 215 208 204 201 194 197 203 214 224 227 216 190 164 140 138 142 145 121 77 38 22 17 0 0 0 0 0 0 0 0 0 0 0 0 0 0 0 0 0 0 0 0 0 0 0 0 0 0 0 0 0 0 0 0 0 0 0 0 0 0 0 0 0 0 0 0 0 0 0 0 0 0 0 0 0 0 0 0 0 
0 0 0 0 0 0 0 0 0 0 0 0 0 0 0 0 0 0 0 0 0 0 0 0 0 0 0 0 0 0 0 0 7 21 20 23 69 120 128 144 155 158 160 177 199 210 208 191 171 159 148 140 137 136 135 133 144 169 194 212 220 226 218 190 156 135 139 147 127 82 35 22 10 0 0 0 0 0 0 0 0 0 0 0 0 0 0 0 0 0 0 0 0 0 0 0 0 0 0 0 0 0 0 0 0 0 0 0 0 0 0 0 0 0 0 0 0 0 0 0 0 0 0 0 0 0 0 0 
0 0 0 0 0 0 0 0 0 0 0 0 0 0 0 0 0 0 0 0 0 0 0 0 0 0 0 0 0 0 0 22 21 32 51 111 128 141 149 154 161 184 214 209 169 152 135 104 89 105 135 140 141 136 143 143 135 109 110 141 176 190 205 220 227 209 170 140 139 146 120 63 24 19 0 0 0 0 0 0 0 0 0 0 0 0 0 0 0 0 0 0 0 0 0 0 0 0 0 0 0 0 0 0 0 0 0 0 0 0 0 0 0 0 0 0 0 0 0 0 0 0 0 0 0 0 0 0 
0 0 0 0 0 0 0 0 0 0 0 0 0 0 0 0 0 0 0 0 0 0 0 0 0 0 0 0 0 8 27 29 30 86 128 137 153 154 158 186 218 214 172 140 124 100 87 92 100 91 101 128 124 99 91 107 106 102 101 98 116 138 159 172 189 207 223 221 184 144 145 142 92 35 22 7 0 0 0 0 0 0 0 0 0 0 0 0 0 0 0 0 0 0 0 0 0 0 0 0 0 0 0 0 0 0 0 0 0 0 0 0 0 0 0 0 0 0 0 0 0 0 0 0 0 0 0 0 
0 0 0 0 0 0 0 0 0 0 0 0 0 0 0 0 0 0 0 0 0 0 0 0 0 0 0 0 19 30 23 51 119 132 151 158 159 186 220 213 187 145 112 107 102 100 99 99 101 74 74 94 98 97 100 118 123 114 108 100 100 118 151 152 152 159 175 202 225 226 183 151 152 123 54 22 14 0 0 0 0 0 0 0 0 0 0 0 0 0 0 0 0 0 0 0 0 0 0 0 0 0 0 0 0 0 0 0 0 0 0 0 0 0 0 0 0 0 0 0 0 0 0 0 0 0 0 0 
0 0 0 0 0 0 0 0 0 0 0 0 0 0 0 0 0 0 0 0 0 0 0 0 0 0 3 31 23 17 75 131 141 160 158 180 215 214 178 150 124 116 119 122 124 127 132 140 146 135 139 143 142 141 139 148 160 158 156 148 137 122 126 146 152 153 157 159 176 201 224 212 161 148 134 74 22 16 0 0 0 0 0 0 0 0 0 0 0 0 0 0 0 0 0 0 0 0 0 0 0 0 0 0 0 0 0 0 0 0 0 0 0 0 0 0 0 0 0 0 0 0 0 0 0 0 0 0 
0 0 0 0 0 0 0 0 0 0 0 0 0 0 0 0 0 0 0 0 0 0 0 0 0 9 31 17 22 93 129 153 166 169 205 220 189 155 138 123 124 130 135 139 147 149 149 147 134 125 125 122 118 117 120 123 135 142 148 152 155 156 155 149 147 153 151 154 155 161 183 212 225 175 144 138 85 26 16 0 0 0 0 0 0 0 0 0 0 0 0 0 0 0 0 0 0 0 0 0 0 0 0 0 0 0 0 0 0 0 0 0 0 0 0 0 0 0 0 0 0 0 0 0 0 0 0 0 
0 0 0 0 0 0 0 0 0 0 0 0 0 0 0 0 0 0 0 0 0 0 0 0 11 31 14 31 107 130 163 169 182 218 209 171 146 139 131 133 143 150 151 147 142 141 147 132 125 125 125 126 122 120 121 124 125 122 123 121 121 123 131 148 156 154 148 148 150 146 155 177 208 227 185 145 138 97 33 15 0 0 0 0 0 0 0 0 0 0 0 0 0 0 0 0 0 0 0 0 0 0 0 0 0 0 0 0 0 0 0 0 0 0 0 0 0 0 0 0 0 0 0 0 0 0 0 0 
0 0 0 0 0 0 0 0 0 0 0 0 0 0 0 0 0 0 0 0 0 0 3 15 29 14 43 117 137 167 165 187 218 199 159 145 139 137 142 151 146 141 135 126 122 125 130 131 131 129 130 118 116 125 127 128 129 125 119 119 117 117 115 115 135 152 155 153 146 150 147 148 173 203 226 194 145 140 105 43 13 0 0 0 0 0 0 0 0 0 0 0 0 0 0 0 0 0 0 0 0 0 0 0 0 0 0 0 0 0 0 0 0 0 0 0 0 0 0 0 0 0 0 0 0 0 0 0 
0 0 0 0 0 0 0 0 0 0 0 0 0 0 0 0 0 0 0 0 0 4 12 28 19 53 130 141 165 163 194 217 186 158 142 129 129 144 142 141 136 126 119 110 105 110 116 122 120 116 121 97 98 123 116 116 126 129 126 123 119 121 121 117 115 124 136 146 154 149 144 145 138 166 202 225 193 147 136 111 47 11 0 0 0 0 0 0 0 0 0 0 0 0 0 0 0 0 0 0 0 0 0 0 0 0 0 0 0 0 0 0 0 0 0 0 0 0 0 0 0 0 0 0 0 0 0 0 
0 0 0 0 0 0 0 0 0 0 0 0 0 0 0 0 0 0 0 0 4 9 27 17 63 140 144 161 162 199 212 180 154 132 121 129 143 137 128 117 118 122 119 101 91 90 92 93 87 91 78 72 67 89 86 84 98 112 115 123 124 120 117 115 113 112 111 115 129 152 153 144 139 133 165 206 220 189 147 136 115 42 8 0 0 0 0 0 0 0 0 0 0 0 0 0 0 0 0 0 0 0 0 0 0 0 0 0 0 0 0 0 0 0 0 0 0 0 0 0 0 0 0 0 0 0 0 0 
0 0 0 0 0 0 0 0 0 0 0 0 0 0 0 0 0 0 0 3 12 24 15 66 144 142 158 163 204 212 184 154 122 118 124 142 131 117 114 121 118 108 94 83 81 81 80 82 82 63 52 48 48 57 77 82 86 83 75 81 94 106 113 117 107 103 109 111 107 125 147 149 136 133 120 164 211 216 179 154 133 113 32 3 0 0 0 0 0 0 0 0 0 0 0 0 0 0 0 0 0 0 0 0 0 0 0 0 0 0 0 0 0 0 0 0 0 0 0 0 0 0 0 0 0 0 0 0 
0 0 0 0 0 0 0 0 0 0 0 0 0 0 0 0 0 0 3 10 25 14 66 152 147 147 162 200 215 188 156 120 111 121 136 117 111 116 121 114 94 78 80 79 63 54 62 64 51 49 48 49 45 46 54 64 64 56 51 51 54 61 75 93 104 108 108 112 114 112 129 146 142 129 139 126 167 217 211 173 153 127 104 19 0 0 0 0 0 0 0 0 0 0 0 0 0 0 0 0 0 0 0 0 0 0 0 0 0 0 0 0 0 0 0 0 0 0 0 0 0 0 0 0 0 0 0 0 
0 0 0 0 0 0 0 0 0 0 0 0 0 0 0 0 0 2 8 27 17 55 146 154 149 162 186 211 188 151 118 104 111 131 110 109 117 118 109 99 80 73 61 48 49 48 49 48 48 48 49 48 48 49 50 50 50 48 48 49 48 47 52 62 78 92 106 109 115 113 111 127 146 132 119 133 123 175 226 188 169 146 128 77 8 0 0 0 0 0 0 0 0 0 0 0 0 0 0 0 0 0 0 0 0 0 0 0 0 0 0 0 0 0 0 0 0 0 0 0 0 0 0 0 0 0 0 0 
0 0 0 0 0 0 0 0 0 0 0 0 0 0 0 0 0 6 21 19 50 127 162 132 157 169 202 187 150 111 105 113 133 112 108 119 117 103 89 72 55 47 47 48 50 52 51 53 54 54 56 56 54 54 54 56 56 49 49 50 50 50 48 49 52 69 91 109 114 112 109 113 122 144 128 111 124 129 192 213 173 170 132 137 51 2 0 0 0 0 0 0 0 0 0 0 0 0 0 0 0 0 0 0 0 0 0 0 0 0 0 0 0 0 0 0 0 0 0 0 0 0 0 0 0 0 0 0 
0 0 0 0 0 0 0 0 0 0 0 0 0 0 0 0 4 11 23 46 107 170 132 148 161 184 196 157 108 107 105 120 116 105 115 118 101 87 65 48 47 49 50 52 55 55 55 56 54 52 54 55 55 54 55 56 58 55 54 52 53 51 50 48 49 52 67 95 111 114 109 113 112 122 132 116 103 114 152 212 190 167 161 128 118 24 2 0 0 0 0 0 0 0 0 0 0 0 0 0 0 0 0 0 0 0 0 0 0 0 0 0 0 0 0 0 0 0 0 0 0 0 0 0 0 0 0 0 
0 0 0 0 0 0 0 0 0 0 0 0 0 0 0 2 9 21 47 92 166 142 141 158 161 195 173 109 105 103 113 117 108 114 121 107 80 55 51 53 53 56 53 56 55 53 53 52 54 55 58 60 61 64 68 67 66 60 56 54 55 52 52 52 48 49 50 64 90 106 110 108 114 111 125 126 114 92 106 183 201 167 166 137 135 77 7 0 0 0 0 0 0 0 0 0 0 0 0 0 0 0 0 0 0 0 0 0 0 0 0 0 0 0 0 0 0 0 0 0 0 0 0 0 0 0 0 0 
0 0 0 0 0 0 0 0 0 0 0 0 0 0 0 5 13 35 79 125 161 132 158 153 170 196 124 99 102 110 119 110 116 119 102 67 54 51 53 53 56 56 54 53 54 54 57 64 72 81 91 100 106 110 114 116 109 94 83 70 61 56 55 51 49 47 48 51 70 90 105 108 110 113 115 130 129 108 84 129 203 171 162 158 132 112 30 2 0 0 0 0 0 0 0 0 0 0 0 0 0 0 0 0 0 0 0 0 0 0 0 0 0 0 0 0 0 0 0 0 0 0 0 0 0 0 0 0 
0 0 0 0 0 0 0 0 0 0 0 0 0 0 3 5 21 67 94 168 123 145 151 140 195 151 96 102 107 125 114 113 117 106 66 51 52 52 52 54 54 58 61 64 65 72 95 111 128 141 153 160 168 170 174 176 170 159 143 118 90 73 61 56 51 50 48 48 53 70 90 104 106 112 113 123 137 112 93 98 177 173 156 164 141 132 62 4 0 0 0 0 0 0 0 0 0 0 0 0 0 0 0 0 0 0 0 0 0 0 0 0 0 0 0 0 0 0 0 0 0 0 0 0 0 0 0 0 
0 0 0 0 0 0 0 0 0 0 0 0 0 0 5 9 43 80 145 152 131 154 129 166 179 114 96 105 117 115 114 117 102 70 54 50 50 52 56 61 66 76 89 102 122 142 163 169 174 180 188 195 193 192 167 165 186 196 193 181 157 126 94 68 55 52 49 47 49 55 74 91 107 111 112 116 137 125 108 90 137 178 153 158 151 134 87 13 1 0 0 0 0 0 0 0 0 0 0 0 0 0 0 0 0 0 0 0 0 0 0 0 0 0 0 0 0 0 0 0 0 0 0 0 0 0 0 0 
0 0 0 0 0 0 0 0 0 0 0 0 0 1 4 14 70 97 171 133 140 139 144 176 146 108 107 110 123 112 118 99 65 55 51 52 59 67 75 82 96 119 146 174 190 196 199 188 185 163 155 181 188 155 152 151 155 196 201 201 199 189 162 123 82 57 49 48 49 47 55 76 98 116 116 113 128 134 114 98 114 168 155 150 150 143 106 33 2 0 0 0 0 0 0 0 0 0 0 0 0 0 0 0 0 0 0 0 0 0 0 0 0 0 0 0 0 0 0 0 0 0 0 0 0 0 0 0 
0 0 0 0 0 0 0 0 0 0 0 0 0 3 3 34 78 137 162 134 143 137 149 160 137 107 100 109 120 117 114 77 52 51 55 60 76 96 110 119 137 170 197 208 206 199 196 182 153 145 145 145 165 142 140 145 151 164 149 182 199 202 199 189 146 89 60 47 47 48 49 56 80 112 118 114 120 127 111 106 114 150 156 146 151 148 120 50 2 0 0 0 0 0 0 0 0 0 0 0 0 0 0 0 0 0 0 0 0 0 0 0 0 0 0 0 0 0 0 0 0 0 0 0 0 0 0 0 
0 0 0 0 0 0 0 0 0 0 0 0 0 3 4 57 93 162 150 132 141 132 132 156 127 100 88 113 123 116 93 57 49 54 63 82 112 132 143 156 187 209 209 202 191 178 151 147 145 140 139 136 141 133 133 139 157 145 141 143 142 175 192 201 200 158 97 62 52 48 46 46 55 91 117 118 117 114 103 107 113 143 152 151 153 150 139 68 5 0 0 0 0 0 0 0 0 0 0 0 0 0 0 0 0 0 0 0 0 0 0 0 0 0 0 0 0 0 0 0 0 0 0 0 0 0 0 0 
0 0 0 0 0 0 0 0 0 0 0 0 0 5 12 70 118 167 142 125 130 115 140 144 115 85 86 119 115 104 72 51 53 63 84 111 139 150 168 199 213 199 169 150 148 134 138 143 144 134 136 131 135 125 127 149 173 168 141 131 131 137 154 188 203 208 169 99 62 53 49 47 45 63 107 120 114 116 90 105 120 138 138 154 153 154 154 81 8 0 0 0 0 0 0 0 0 0 0 0 0 0 0 0 0 0 0 0 0 0 0 0 0 0 0 0 0 0 0 0 0 0 0 0 0 0 0 0 
0 0 0 0 0 0 0 0 0 0 0 0 2 4 29 82 145 166 133 127 129 122 149 143 96 77 93 121 101 84 55 50 60 84 108 137 153 177 205 212 182 144 133 128 128 125 129 131 134 133 135 121 128 120 130 163 177 172 153 128 129 134 132 149 188 198 209 173 103 61 57 51 47 51 90 119 119 119 84 96 126 138 136 161 153 151 160 92 14 0 0 0 0 0 0 0 0 0 0 0 0 0 0 0 0 0 0 0 0 0 0 0 0 0 0 0 0 0 0 0 0 0 0 0 0 0 0 0 
0 0 0 0 0 0 0 0 0 0 0 0 3 3 42 94 152 160 123 129 113 123 155 137 80 79 99 110 88 66 51 56 77 104 131 153 178 207 209 174 138 127 123 120 120 121 123 125 129 131 124 123 114 120 135 137 134 128 127 124 124 124 127 130 148 182 201 208 174 100 58 49 47 46 69 112 121 118 84 84 124 144 127 161 157 151 155 112 19 0 0 0 0 0 0 0 0 0 0 0 0 0 0 0 0 0 0 0 0 0 0 0 0 0 0 0 0 0 0 0 0 0 0 0 0 0 0 0 
0 0 0 0 0 0 0 0 0 0 0 0 3 6 51 106 163 159 118 130 110 119 144 132 80 77 99 104 82 53 49 64 88 115 144 177 207 214 190 136 124 124 122 122 117 118 119 120 122 125 129 132 127 124 123 126 125 123 119 119 120 123 126 127 128 160 199 211 207 163 91 56 48 45 54 95 121 119 84 82 125 147 120 158 161 153 138 125 28 2 0 0 0 0 0 0 0 0 0 0 0 0 0 0 0 0 0 0 0 0 0 0 0 0 0 0 0 0 0 0 0 0 0 0 0 0 0 0 
0 0 0 0 0 0 0 0 0 0 0 0 3 6 57 113 167 145 122 135 115 115 139 139 88 81 92 97 65 48 61 81 102 132 173 206 208 194 184 140 126 121 122 123 118 115 115 121 124 125 128 125 124 123 124 128 129 125 124 125 124 122 125 125 126 162 188 193 206 199 157 87 51 46 48 81 120 110 80 74 121 154 124 159 161 156 132 135 42 2 0 0 0 0 0 0 0 0 0 0 0 0 0 0 0 0 0 0 0 0 0 0 0 0 0 0 0 0 0 0 0 0 0 0 0 0 0 0 
0 0 0 0 0 0 0 0 0 0 0 0 3 8 65 122 173 128 129 143 117 108 137 136 93 80 82 91 58 51 71 92 121 171 208 210 193 184 188 187 169 146 127 123 122 120 117 120 121 126 124 126 124 126 128 129 126 123 126 127 126 125 123 123 137 183 185 198 204 201 194 166 103 52 48 64 113 101 80 81 126 165 122 155 161 155 130 139 62 2 0 0 0 0 0 0 0 0 0 0 0 0 0 0 0 0 0 0 0 0 0 0 0 0 0 0 0 0 0 0 0 0 0 0 0 0 0 0 
0 0 0 0 0 0 0 0 0 0 0 0 3 15 67 132 168 119 136 145 115 107 135 131 104 78 67 90 63 58 77 107 164 213 218 208 180 145 131 127 135 145 152 139 122 120 120 117 120 128 130 125 122 127 128 128 126 122 125 124 126 125 126 141 136 136 139 142 147 142 161 183 176 131 70 73 110 92 82 92 136 166 125 148 162 156 132 135 91 7 0 0 0 0 0 0 0 0 0 0 0 0 0 0 0 0 0 0 0 0 0 0 0 0 0 0 0 0 0 0 0 0 0 0 0 0 0 0 
0 0 0 0 0 0 0 0 0 0 0 0 4 18 70 146 170 124 137 150 121 110 132 141 111 77 54 85 66 66 86 149 209 223 202 156 131 125 122 125 125 130 129 127 129 142 126 125 125 125 129 125 126 130 124 125 124 123 126 120 124 132 129 130 122 110 134 140 142 124 96 95 142 166 149 104 101 85 83 117 148 159 112 138 158 160 137 129 117 11 0 0 0 0 0 0 0 0 0 0 0 0 0 0 0 0 0 0 0 0 0 0 0 0 0 0 0 0 0 0 0 0 0 0 0 0 0 0 
0 0 0 0 0 0 0 0 0 0 0 0 4 22 73 155 169 123 142 148 122 107 125 153 120 81 49 73 83 75 125 198 222 202 146 127 124 121 127 135 134 133 133 127 123 129 152 131 126 124 126 123 124 129 126 119 115 117 120 121 143 132 135 133 122 136 151 151 156 148 117 81 72 118 146 123 96 93 107 144 163 144 98 135 149 160 140 122 127 16 0 0 0 0 0 0 0 0 0 0 0 0 0 0 0 0 0 0 0 0 0 0 0 0 0 0 0 0 0 0 0 0 0 0 0 0 0 0 
0 0 0 0 0 0 0 0 0 0 0 0 4 24 75 166 167 121 139 138 120 109 123 145 137 85 54 58 85 107 179 209 195 149 136 126 123 131 144 152 151 141 136 133 130 128 134 141 125 118 117 119 124 127 123 114 106 108 112 148 137 134 145 140 145 145 151 159 169 163 137 106 85 86 95 96 87 115 134 167 157 134 85 132 145 151 141 117 135 21 0 0 0 0 0 0 0 0 0 0 0 0 0 0 0 0 0 0 0 0 0 0 0 0 0 0 0 0 0 0 0 0 0 0 0 0 0 0 
0 0 0 0 0 0 0 0 0 0 0 0 5 23 72 171 163 121 128 130 120 111 111 127 148 98 73 50 79 146 192 190 151 139 128 124 127 142 146 145 148 149 149 142 133 131 129 140 123 109 104 107 118 125 117 102 97 97 110 133 128 135 130 132 134 131 132 141 157 155 129 92 86 97 81 67 76 112 155 169 158 129 70 130 146 157 146 116 145 29 0 0 0 0 0 0 0 0 0 0 0 0 0 0 0 0 0 0 0 0 0 0 0 0 0 0 0 0 0 0 0 0 0 0 0 0 0 0 
0 0 0 0 0 0 0 0 0 0 0 0 8 22 74 175 160 116 115 126 123 112 103 124 151 128 89 56 63 134 178 150 154 156 154 152 144 141 135 132 132 132 138 144 138 128 124 138 123 91 89 101 117 129 116 92 82 83 103 124 127 129 131 133 128 127 126 142 151 149 127 103 97 91 65 57 71 108 159 166 153 124 64 115 146 154 148 116 150 41 1 0 0 0 0 0 0 0 0 0 0 0 0 0 0 0 0 0 0 0 0 0 0 0 0 0 0 0 0 0 0 0 0 0 0 0 0 0 
0 0 0 0 0 0 0 0 0 0 0 0 8 20 78 173 156 120 120 127 123 113 95 118 154 139 69 43 48 93 125 148 168 165 151 143 140 132 124 124 130 130 130 132 138 131 120 125 114 75 66 81 101 125 104 82 70 72 86 121 126 125 137 134 132 128 134 143 152 143 117 104 99 69 58 54 70 99 151 163 155 119 68 115 139 152 146 112 148 52 2 0 0 0 0 0 0 0 0 0 0 0 0 0 0 0 0 0 0 0 0 0 0 0 0 0 0 0 0 0 0 0 0 0 0 0 0 0 
0 0 0 0 0 0 0 0 0 0 0 0 7 20 84 173 149 119 122 129 127 106 87 112 148 139 82 47 45 65 107 140 163 168 160 146 132 124 122 122 131 130 128 127 124 127 113 103 100 70 62 61 74 111 112 83 69 70 96 116 121 128 131 130 130 132 137 149 153 138 102 90 94 72 63 50 71 90 131 143 145 112 70 116 128 146 148 116 148 62 2 0 0 0 0 0 0 0 0 0 0 0 0 0 0 0 0 0 0 0 0 0 0 0 0 0 0 0 0 0 0 0 0 0 0 0 0 0 
0 0 0 0 0 0 0 0 0 0 0 0 6 17 87 172 145 115 128 124 120 91 83 105 138 127 81 44 42 59 96 140 161 165 159 147 131 126 125 121 124 128 127 121 103 91 87 92 115 89 77 76 97 104 104 111 86 92 122 108 120 127 129 128 129 132 139 148 152 135 96 77 82 76 59 45 68 89 121 143 149 105 68 118 119 126 147 116 146 66 3 0 0 0 0 0 0 0 0 0 0 0 0 0 0 0 0 0 0 0 0 0 0 0 0 0 0 0 0 0 0 0 0 0 0 0 0 0 
0 0 0 0 0 0 0 0 0 0 0 0 5 17 87 169 143 110 134 119 105 87 85 107 139 112 57 42 43 54 85 137 161 158 148 141 130 127 122 119 123 122 111 92 69 58 57 64 83 90 98 103 102 72 80 70 90 69 105 110 124 133 134 129 128 134 140 152 155 134 89 74 74 75 54 46 69 88 112 144 148 96 64 119 128 128 129 102 146 69 4 0 0 0 0 0 0 0 0 0 0 0 0 0 0 0 0 0 0 0 0 0 0 0 0 0 0 0 0 0 0 0 0 0 0 0 0 0 
0 0 0 0 0 0 0 0 0 0 0 0 5 12 87 164 146 112 140 111 94 86 84 113 139 72 44 42 40 47 76 127 159 157 145 139 132 128 125 124 126 113 92 69 52 54 56 59 84 108 99 105 85 62 64 50 75 84 97 121 139 144 138 133 133 136 144 156 152 123 82 73 70 60 42 49 75 103 144 146 146 86 60 118 125 128 124 106 148 65 3 0 0 0 0 0 0 0 0 0 0 0 0 0 0 0 0 0 0 0 0 0 0 0 0 0 0 0 0 0 0 0 0 0 0 0 0 0 
0 0 0 0 0 0 0 0 0 0 0 0 5 12 84 160 146 112 137 93 94 89 84 117 145 78 48 41 40 46 70 119 156 161 144 137 129 124 125 127 122 101 75 61 56 59 53 55 88 128 120 105 100 84 84 62 61 104 108 139 148 148 133 131 132 140 152 160 152 113 76 72 70 65 42 51 101 153 142 142 143 74 60 112 122 125 120 115 151 59 4 0 0 0 0 0 0 0 0 0 0 0 0 0 0 0 0 0 0 0 0 0 0 0 0 0 0 0 0 0 0 0 0 0 0 0 0 0 
0 0 0 0 0 0 0 0 0 0 0 0 6 10 75 157 146 115 137 91 83 90 83 109 134 76 49 49 45 46 66 113 153 162 146 133 132 131 130 131 116 84 61 58 86 86 73 56 89 140 145 112 109 91 75 77 74 105 123 126 139 138 134 128 131 145 157 162 150 101 71 72 70 58 49 60 134 146 142 150 137 66 70 123 121 123 110 111 144 47 3 0 0 0 0 0 0 0 0 0 0 0 0 0 0 0 0 0 0 0 0 0 0 0 0 0 0 0 0 0 0 0 0 0 0 0 0 0 
0 0 0 0 0 0 0 0 0 0 0 0 6 8 65 149 144 119 138 99 73 93 83 99 129 82 52 47 40 49 60 106 148 162 150 134 144 141 133 128 107 72 55 58 72 63 55 55 88 130 141 113 115 118 96 77 75 91 124 119 124 126 134 133 142 150 156 160 142 89 70 74 70 52 52 72 128 150 143 157 128 57 83 123 120 120 95 105 142 38 3 0 0 0 0 0 0 0 0 0 0 0 0 0 0 0 0 0 0 0 0 0 0 0 0 0 0 0 0 0 0 0 0 0 0 0 0 0 
0 0 0 0 0 0 0 0 0 0 0 0 5 8 52 138 137 117 135 107 63 91 88 99 132 93 50 48 44 49 55 96 144 159 151 142 151 147 132 122 97 66 56 56 56 52 50 54 90 128 127 110 115 130 124 102 96 92 117 118 120 129 129 137 144 143 151 161 135 87 71 71 58 43 46 69 118 151 143 151 112 49 92 128 122 115 84 109 131 30 2 0 0 0 0 0 0 0 0 0 0 0 0 0 0 0 0 0 0 0 0 0 0 0 0 0 0 0 0 0 0 0 0 0 0 0 0 0 
0 0 0 0 0 0 0 0 0 0 0 0 0 7 34 127 131 111 128 117 54 87 91 94 136 108 53 48 43 65 70 90 143 154 152 143 139 136 133 122 99 76 64 62 73 55 58 73 100 134 123 113 119 140 130 114 108 101 124 134 128 134 133 137 134 139 154 158 124 84 75 72 45 40 45 77 130 152 143 146 94 45 95 130 119 105 77 117 112 22 1 0 0 0 0 0 0 0 0 0 0 0 0 0 0 0 0 0 0 0 0 0 0 0 0 0 0 0 0 0 0 0 0 0 0 0 0 0 
0 0 0 0 0 0 0 0 0 7 14 6 0 6 25 118 133 109 117 129 52 75 93 92 130 124 66 46 51 115 129 96 137 150 149 142 132 135 136 126 117 91 66 61 67 68 97 67 84 128 113 115 125 138 138 124 117 108 120 162 158 138 130 124 123 135 151 155 118 67 60 49 43 41 47 97 148 150 140 140 73 45 104 131 126 87 80 138 92 19 0 0 0 0 0 0 0 0 0 0 0 0 0 0 0 0 0 0 0 0 0 0 0 0 0 0 0 0 0 0 0 0 0 0 0 0 0 0 
0 0 0 0 0 0 0 0 0 10 11 8 9 5 17 103 139 117 109 122 53 56 92 91 121 129 86 46 74 149 145 134 137 147 142 140 127 135 129 129 111 91 72 66 69 97 74 62 100 124 113 122 124 139 141 131 126 122 114 172 159 127 130 133 129 139 153 148 111 61 47 41 40 40 53 149 199 198 172 125 53 50 106 133 130 64 96 152 71 14 0 0 0 0 0 0 0 0 0 0 0 0 0 0 0 0 0 0 0 0 0 0 0 0 0 0 0 0 0 0 0 0 0 0 0 0 0 0 
0 0 0 0 0 0 0 0 0 4 6 4 4 7 12 84 142 122 113 132 93 47 84 91 108 138 109 54 97 159 141 165 162 149 135 135 128 126 135 130 117 99 91 95 92 79 75 82 116 121 120 127 120 147 138 131 129 117 125 158 156 134 133 136 135 142 149 137 85 51 38 39 44 53 108 180 153 174 198 100 47 84 121 150 115 47 113 146 56 10 1 0 0 0 0 0 0 0 0 0 0 0 0 0 0 0 0 0 0 0 0 0 0 0 0 0 0 0 0 0 0 0 0 0 0 0 0 0 
0 0 0 0 0 0 0 0 0 0 4 8 0 10 11 61 152 134 109 127 122 50 63 88 97 131 117 72 92 154 142 144 172 172 142 134 126 124 135 136 131 110 90 102 108 79 85 114 133 127 125 122 125 142 135 126 120 123 126 160 165 134 128 133 134 144 159 152 88 67 78 90 124 168 187 156 138 172 198 80 55 115 167 166 88 76 141 135 37 11 11 4 1 12 2 0 0 0 0 0 0 0 0 0 0 0 0 0 0 0 0 0 0 0 0 0 0 0 0 0 0 0 0 0 0 0 0 0 
0 0 0 0 0 0 0 0 0 0 0 5 2 4 10 47 152 142 115 117 133 66 46 75 92 125 121 103 123 146 104 94 121 162 155 140 138 141 154 160 158 152 138 146 111 100 105 130 140 129 101 111 126 146 137 118 120 138 164 170 163 156 150 148 151 164 181 157 117 118 105 91 105 178 206 166 170 199 184 59 68 136 167 159 83 121 160 126 28 13 1 0 1 1 2 0 0 0 0 0 0 0 0 0 0 0 0 0 0 0 0 0 0 0 0 0 0 0 0 0 0 0 0 0 0 0 0 0 
0 0 0 0 0 0 0 0 0 0 0 0 3 7 7 32 144 145 125 115 140 88 48 84 89 110 138 118 153 168 93 89 143 164 169 163 160 158 152 142 143 153 136 120 125 120 118 136 148 128 97 111 124 155 136 123 133 150 153 147 140 147 157 166 170 171 158 119 103 107 117 100 106 138 183 189 183 202 180 89 118 157 178 156 89 132 163 106 18 10 0 2 4 0 0 0 0 0 0 0 0 0 0 0 0 0 0 0 0 0 0 0 0 0 0 0 0 0 0 0 0 0 0 0 0 0 0 0 
0 0 0 0 0 0 0 0 0 0 0 0 7 13 8 26 127 140 110 124 144 125 87 82 78 97 136 137 169 161 129 131 143 139 163 174 182 175 156 148 151 132 126 125 131 134 128 143 150 129 89 109 115 146 129 149 151 148 152 146 140 141 153 158 158 149 127 88 54 58 102 127 135 126 135 178 181 188 176 112 153 176 187 153 119 103 145 89 10 6 3 3 0 0 0 0 0 0 0 0 0 0 0 0 0 0 0 0 0 0 0 0 0 0 0 0 0 0 0 0 0 0 0 0 0 0 0 0 
0 0 0 0 0 0 0 0 0 0 0 0 17 15 9 27 127 153 97 121 155 164 116 94 81 98 150 171 178 141 139 152 129 112 137 161 192 198 179 159 160 140 129 127 135 137 150 131 127 133 118 96 110 149 166 146 149 156 160 151 147 151 161 165 157 128 62 38 54 55 89 146 144 129 119 143 138 154 187 159 167 177 188 177 146 148 170 70 9 7 6 0 0 0 0 0 0 0 0 0 0 0 0 0 0 0 0 0 0 0 0 0 0 0 0 0 0 0 0 0 0 0 0 0 0 0 0 0 
0 0 0 0 0 0 0 0 0 0 0 0 16 13 0 13 61 163 149 96 138 185 163 137 106 98 142 182 201 197 188 176 137 96 103 111 134 161 183 181 175 158 152 136 135 138 143 138 131 134 139 147 145 140 164 148 139 152 164 176 167 166 171 164 155 111 49 40 48 79 91 110 139 149 115 112 143 126 165 195 182 173 184 164 106 119 173 88 5 3 15 3 0 0 0 0 0 0 0 0 0 0 0 0 0 0 0 0 0 0 0 0 0 0 0 0 0 0 0 0 0 0 0 0 0 0 0 0 
0 0 0 0 0 0 0 0 0 0 0 0 6 3 0 10 33 141 165 101 120 186 176 186 179 136 174 191 202 189 164 159 133 95 81 89 79 103 142 158 163 159 152 155 149 144 150 152 156 138 118 129 143 152 155 141 143 145 157 180 181 160 154 137 111 95 64 49 58 88 101 106 116 126 117 117 148 155 168 154 140 136 135 87 80 103 158 40 0 0 4 5 0 0 0 0 0 0 0 0 0 0 0 0 0 0 0 0 0 0 0 0 0 0 0 0 0 0 0 0 0 0 0 0 0 0 0 0 
0 0 0 0 0 0 0 0 0 0 0 1 0 4 1 6 20 100 174 116 110 158 172 162 193 185 177 169 176 174 140 154 139 107 89 64 45 62 100 130 149 159 162 158 160 158 158 155 170 162 112 100 128 142 142 148 151 159 160 169 174 146 105 72 63 67 50 45 62 86 101 110 114 124 116 115 140 199 188 136 120 128 70 64 96 159 119 13 2 0 3 0 0 0 0 0 0 0 0 0 0 0 0 0 0 0 0 0 0 0 0 0 0 0 0 0 0 0 0 0 0 0 0 0 0 0 0 0 
0 0 0 0 0 0 0 0 0 0 0 2 0 6 1 4 18 54 170 151 97 113 166 165 179 197 189 140 140 184 154 157 140 129 119 79 39 42 69 101 122 140 147 151 153 150 154 147 157 134 101 96 102 102 115 136 147 150 143 134 125 107 56 44 45 42 41 42 56 86 117 123 122 137 113 90 163 205 164 124 118 105 72 65 136 175 59 4 2 2 3 0 0 0 0 0 0 0 0 0 0 0 0 0 0 0 0 0 0 0 0 0 0 0 0 0 0 0 0 0 0 0 0 0 0 0 0 0 
0 0 0 0 0 0 0 0 0 0 0 3 5 7 3 7 20 27 122 87 79 73 115 153 146 145 163 137 132 190 193 173 160 167 154 127 54 41 45 63 73 66 82 101 96 104 115 96 100 108 109 87 70 68 102 94 107 111 95 85 79 53 54 41 45 42 44 53 80 97 127 149 181 173 148 141 175 155 119 116 128 96 70 76 105 125 29 7 4 5 3 0 0 0 0 0 0 0 0 0 0 0 0 0 0 0 0 0 0 0 0 0 0 0 0 0 0 0 0 0 0 0 0 0 0 0 0 0 
0 0 0 0 0 0 0 0 0 0 0 2 8 6 5 9 21 13 69 91 75 61 83 119 105 110 150 163 160 150 169 163 157 128 122 148 142 71 38 39 42 47 50 62 83 85 65 61 75 97 116 122 93 84 111 101 84 86 86 78 62 47 53 60 45 48 45 59 94 104 159 202 166 114 116 137 160 131 123 133 123 76 74 71 155 66 21 16 8 7 4 0 0 0 0 0 0 0 0 0 0 0 0 0 0 0 0 0 0 0 0 0 0 0 0 0 0 0 0 0 0 0 0 0 0 0 0 0 
0 0 0 0 0 0 0 0 0 0 0 0 6 5 6 9 17 13 29 140 137 73 68 109 121 108 144 169 158 151 139 141 147 130 118 117 114 114 121 44 38 47 63 72 92 87 74 77 91 117 121 120 123 122 110 122 125 112 100 74 64 74 108 86 84 51 53 89 103 156 154 121 115 95 128 140 158 127 132 130 98 78 58 124 156 31 12 22 10 10 5 0 0 0 0 0 0 0 0 0 0 0 0 0 0 0 0 0 0 0 0 0 0 0 0 0 0 0 0 0 0 0 0 0 0 0 0 0 
0 0 0 0 0 0 0 0 0 0 0 0 0 2 4 7 11 15 13 108 141 62 65 78 124 136 166 164 132 154 158 138 134 138 110 105 104 81 72 100 51 39 68 82 102 109 113 123 143 138 132 123 119 129 130 136 141 142 138 126 112 111 124 122 108 99 105 111 136 138 80 65 92 101 137 140 145 139 144 120 89 82 49 108 103 18 5 18 10 11 2 0 0 0 0 0 0 0 0 0 0 0 0 0 0 0 0 0 0 0 0 0 0 0 0 0 0 0 0 0 0 0 0 0 0 0 0 0 
0 0 0 0 0 0 0 0 0 0 0 0 0 0 1 2 12 13 11 62 149 83 61 76 87 133 177 170 136 126 159 169 137 121 106 100 95 96 90 89 118 97 106 96 96 104 118 138 144 131 110 97 77 84 107 114 115 107 110 122 127 144 159 154 127 116 124 135 155 83 50 51 83 125 152 133 133 174 144 101 84 84 80 138 80 17 5 14 11 10 4 0 0 0 0 0 0 0 0 0 0 0 0 0 0 0 0 0 0 0 0 0 0 0 0 0 0 0 0 0 0 0 0 0 0 0 0 0 
0 0 0 0 0 0 0 0 0 0 0 0 0 0 0 0 11 6 7 41 134 102 77 85 79 99 167 191 158 131 152 175 165 127 100 100 100 98 99 94 101 141 139 106 114 122 138 152 136 134 110 118 114 107 122 132 130 115 116 127 132 153 162 177 173 135 127 133 118 47 40 65 120 172 164 134 145 181 124 90 84 91 131 153 81 22 10 14 11 8 4 0 0 0 0 0 0 0 0 0 0 0 0 0 0 0 0 0 0 0 0 0 0 0 0 0 0 0 0 0 0 0 0 0 0 0 0 0 
0 0 0 0 0 0 0 0 0 0 0 0 13 0 0 0 8 8 5 32 133 128 102 86 85 88 103 153 166 139 150 176 155 138 110 75 62 69 87 97 107 139 189 162 141 142 155 136 123 133 129 169 187 147 148 142 143 136 128 126 125 136 148 167 158 132 95 126 148 99 102 140 177 194 185 123 138 161 132 125 103 88 102 141 73 23 13 13 10 7 3 0 0 0 0 0 0 0 0 0 0 0 0 0 0 0 0 0 0 0 0 0 0 0 0 0 0 0 0 0 0 0 0 0 0 0 0 0 
0 0 0 0 0 0 0 0 0 0 0 2 13 8 6 7 12 14 7 23 122 143 106 86 92 92 129 129 136 126 137 180 170 143 129 114 85 74 73 76 79 123 195 190 148 140 158 131 117 137 157 178 170 167 131 111 118 124 115 94 93 113 154 150 127 117 96 119 164 141 152 161 170 162 170 167 157 188 165 113 105 63 93 124 42 18 8 11 10 9 5 0 0 0 0 0 0 0 0 0 0 0 0 0 0 0 0 0 0 0 0 0 0 0 0 0 0 0 0 0 0 0 0 0 0 0 0 0 
0 0 0 0 0 0 0 0 0 0 0 0 14 14 12 13 19 16 10 13 57 141 105 72 94 91 115 140 123 92 117 157 180 161 152 167 177 161 137 121 123 165 207 198 158 123 134 114 108 135 154 121 102 131 118 67 49 56 79 69 71 127 156 152 138 128 115 167 217 177 175 169 130 104 93 114 137 174 172 92 56 83 121 105 21 12 7 12 7 7 1 0 0 0 0 0 0 0 0 0 0 0 0 0 0 0 0 0 0 0 0 0 0 0 0 0 0 0 0 0 0 0 0 0 0 0 0 0 
0 0 0 0 0 0 0 0 0 0 0 3 14 14 13 14 7 6 9 14 15 82 117 56 32 41 95 144 143 120 138 138 145 149 173 178 174 165 155 149 151 185 224 235 223 161 139 149 161 167 132 98 101 110 143 154 112 80 86 82 108 132 137 160 173 160 150 192 227 168 97 56 59 75 77 101 82 107 144 116 56 91 140 53 13 3 5 13 9 1 0 0 1 0 0 0 0 0 0 0 0 0 0 0 0 0 0 0 0 0 0 0 0 0 0 0 0 0 0 0 0 0 0 0 0 0 0 0 
0 0 0 0 0 0 0 0 0 0 0 0 13 10 3 2 5 6 5 21 23 25 97 70 34 32 72 130 179 182 173 134 101 86 105 129 146 162 168 162 167 218 237 230 243 240 209 203 206 182 157 157 153 160 150 153 161 163 165 164 167 196 205 195 181 174 153 167 178 163 104 87 101 112 82 64 58 83 83 130 104 130 83 29 15 0 1 2 6 8 4 8 13 7 0 0 0 0 0 0 0 0 0 0 0 0 0 0 0 0 0 0 0 0 0 0 0 0 0 0 0 0 0 0 0 0 0 0 
0 0 0 0 0 0 0 0 0 0 0 0 3 10 7 0 0 5 5 3 14 18 45 110 71 57 38 88 119 166 182 174 159 128 100 52 48 49 82 111 149 187 193 175 182 224 171 178 202 170 168 171 176 175 158 134 102 91 109 145 156 170 191 177 168 222 99 121 187 195 204 205 188 163 144 121 94 76 46 57 90 80 45 27 14 0 0 2 0 1 1 6 8 0 0 0 0 0 0 0 0 0 0 0 0 0 0 0 0 0 0 0 0 0 0 0 0 0 0 0 0 0 0 0 0 0 0 0 
0 0 0 0 0 0 0 0 0 0 0 0 0 6 5 0 0 0 2 1 5 32 35 73 98 55 20 36 83 59 103 97 99 89 78 66 49 51 69 104 160 152 166 137 241 245 204 147 166 146 121 132 146 121 109 120 108 100 110 130 127 135 148 115 143 162 102 120 162 180 201 195 166 125 95 113 117 117 52 36 39 53 43 24 12 0 0 0 0 0 0 2 8 0 0 0 0 0 0 0 0 0 0 0 0 0 0 0 0 0 0 0 0 0 0 0 0 0 0 0 0 0 0 0 0 0 0 0 
0 0 0 0 0 0 0 0 0 0 0 0 0 6 10 0 0 0 1 5 9 23 28 26 39 37 19 44 118 50 71 46 55 62 50 57 66 75 69 62 78 181 152 150 154 216 157 112 94 59 38 75 110 75 73 97 77 64 94 115 97 92 102 146 173 115 82 70 80 80 65 57 58 48 59 78 43 114 54 33 26 27 24 10 5 0 0 0 0 0 0 11 7 0 0 0 0 0 0 0 0 0 0 0 0 0 0 0 0 0 0 0 0 0 0 0 0 0 0 0 0 0 0 0 0 0 0 0 
0 0 0 0 0 0 0 0 0 0 0 0 0 0 1 0 0 0 0 0 6 10 24 22 23 20 21 36 123 62 69 42 36 65 44 43 47 51 58 44 41 53 63 62 103 97 74 81 81 53 43 68 83 68 66 87 69 46 68 76 62 65 61 58 45 66 58 114 133 88 58 42 42 39 55 66 47 118 46 31 26 26 19 5 3 0 0 0 0 0 6 10 4 0 0 0 0 0 0 0 0 0 0 0 0 0 0 0 0 0 0 0 0 0 0 0 0 0 0 0 0 0 0 0 0 0 0 0 
0 0 0 0 0 0 0 0 0 0 0 0 0 0 0 0 0 0 0 0 4 9 7 17 24 32 26 44 129 93 82 49 51 90 70 40 54 71 81 89 93 77 73 63 63 58 62 85 102 69 70 89 101 85 90 98 91 72 118 133 105 96 98 105 84 49 22 56 121 68 44 45 48 61 75 87 64 107 48 40 27 24 13 1 0 0 0 0 0 0 0 0 0 0 0 0 0 0 0 0 0 0 0 0 0 0 0 0 0 0 0 0 0 0 0 0 0 0 0 0 0 0 0 0 0 0 0 0 
0 0 0 0 0 0 0 0 0 0 0 0 0 0 0 0 0 0 0 0 0 5 1 3 18 32 45 57 144 147 130 90 74 107 102 46 47 114 85 106 142 155 100 101 118 117 151 168 142 101 105 125 145 148 157 154 133 141 185 196 188 171 157 168 208 169 164 198 209 198 112 40 23 23 28 34 35 45 11 9 8 11 3 0 0 0 0 0 0 0 0 0 0 0 0 0 0 0 0 0 0 0 0 0 0 0 0 0 0 0 0 0 0 0 0 0 0 0 0 0 0 0 0 0 0 0 0 0 
0 0 0 0 0 0 0 0 0 0 0 0 0 0 0 0 0 0 0 0 0 0 7 19 18 24 35 52 125 164 146 107 89 111 58 65 49 106 102 82 176 171 98 142 184 207 199 201 176 146 146 187 202 214 226 192 148 142 161 160 170 197 170 136 194 178 187 172 199 174 155 71 33 20 19 34 49 42 30 29 31 46 20 1 0 0 0 0 0 0 0 0 0 0 0 0 0 0 0 0 0 0 0 0 0 0 0 0 0 0 0 0 0 0 0 0 0 0 0 0 0 0 0 0 0 0 0 0 
0 0 0 0 0 0 0 0 0 0 0 0 0 0 0 0 0 0 0 0 0 0 2 12 13 24 28 38 63 131 111 70 57 87 44 35 53 79 68 65 112 105 91 105 140 144 163 157 162 148 154 135 125 117 119 108 142 161 144 126 146 160 110 75 178 137 184 168 160 136 73 32 9 51 87 84 96 51 30 17 13 9 3 1 0 0 0 0 0 0 0 0 0 0 0 0 0 0 0 0 0 0 0 0 0 0 0 0 0 0 0 0 0 0 0 0 0 0 0 0 0 0 0 0 0 0 0 0 
0 0 0 0 0 0 0 0 0 0 0 0 0 0 0 0 0 0 0 0 0 0 4 8 8 17 20 22 38 114 109 72 41 75 35 23 26 54 92 103 100 97 87 77 76 94 117 118 88 107 126 99 93 88 97 68 100 106 122 123 132 131 101 75 71 94 155 112 134 115 105 67 41 41 110 106 95 50 30 20 20 9 6 2 0 0 0 0 0 0 0 0 0 0 0 0 0 0 0 0 0 0 0 0 0 0 0 0 0 0 0 0 0 0 0 0 0 0 0 0 0 0 0 0 0 0 0 0 
0 0 0 0 0 0 0 0 0 0 0 0 0 0 0 0 0 0 0 0 0 0 3 6 8 15 23 23 28 94 106 86 40 77 42 25 25 48 94 106 97 89 88 108 98 87 108 100 64 107 123 108 111 106 112 94 110 120 139 149 141 131 93 54 72 94 90 97 102 105 91 52 28 35 100 120 102 53 28 24 26 7 5 1 0 0 0 0 0 0 0 0 0 0 0 0 0 0 0 0 0 0 0 0 0 0 0 0 0 0 0 0 0 0 0 0 0 0 0 0 0 0 0 0 0 0 0 0 
0 0 0 0 0 0 0 0 0 0 0 0 0 0 0 0 0 0 0 0 0 0 2 5 9 9 18 24 26 79 91 93 42 73 44 30 24 31 63 95 109 90 101 81 56 53 68 61 68 120 131 110 113 109 113 105 115 120 160 182 159 130 95 61 95 61 97 111 100 77 60 40 26 33 93 124 100 67 26 26 25 5 6 0 0 0 0 0 0 0 0 0 0 0 0 0 0 0 0 0 0 0 0 0 0 0 0 0 0 0 0 0 0 0 0 0 0 0 0 0 0 0 0 0 0 0 0 0 
0 0 0 0 0 0 0 0 0 0 0 0 0 0 0 0 0 0 0 0 0 0 0 4 6 9 14 23 24 61 64 73 58 70 43 24 29 28 46 71 80 86 116 79 55 55 81 87 90 157 170 131 116 116 111 109 116 123 165 158 152 112 64 67 67 38 68 97 83 89 57 32 24 29 89 120 74 89 29 28 21 7 4 0 0 0 0 0 0 0 0 0 0 0 0 0 0 0 0 0 0 0 0 0 0 0 0 0 0 0 0 0 0 0 0 0 0 0 0 0 0 0 0 0 0 0 0 0 
0 0 0 0 0 0 0 0 0 0 0 0 0 0 0 0 0 0 0 0 0 0 0 0 5 7 9 19 22 46 52 45 67 67 42 21 36 32 51 70 67 113 101 68 63 56 91 115 84 95 122 128 120 116 100 101 120 127 159 123 99 78 47 80 71 56 59 87 99 68 68 42 28 24 76 109 47 83 41 28 17 8 2 0 0 0 0 0 0 0 0 0 0 0 0 0 0 0 0 0 0 0 0 0 0 0 0 0 0 0 0 0 0 0 0 0 0 0 0 0 0 0 0 0 0 0 0 0 
0 0 0 0 0 0 0 0 0 0 0 0 0 0 0 0 0 0 0 0 0 0 0 0 2 3 11 15 18 33 72 58 52 59 54 26 36 48 63 44 91 124 79 74 70 62 105 103 77 85 87 120 118 110 98 98 114 134 142 97 69 70 71 101 91 76 84 98 136 70 60 52 33 26 68 90 60 63 27 24 18 5 1 0 0 0 0 0 0 0 0 0 0 0 0 0 0 0 0 0 0 0 0 0 0 0 0 0 0 0 0 0 0 0 0 0 0 0 0 0 0 0 0 0 0 0 0 0 
0 0 0 0 0 0 0 0 0 0 0 0 0 0 0 0 0 0 0 0 0 0 0 0 1 4 6 14 14 18 53 62 29 46 67 29 38 68 64 36 99 117 71 67 83 79 114 115 67 72 78 108 116 106 100 105 111 134 129 90 84 71 94 122 75 55 74 91 133 99 58 73 41 35 68 54 45 28 18 18 16 4 0 0 0 0 0 0 0 0 0 0 0 0 0 0 0 0 0 0 0 0 0 0 0 0 0 0 0 0 0 0 0 0 0 0 0 0 0 0 0 0 0 0 0 0 0 0 
0 0 0 0 0 0 0 0 0 0 0 0 0 0 0 0 0 0 0 0 0 0 0 0 0 4 2 9 14 17 16 13 10 25 73 42 49 85 62 40 98 113 76 65 72 78 114 114 64 75 98 116 122 114 111 110 97 90 103 99 87 70 93 128 73 39 61 88 136 118 57 88 73 60 84 38 12 16 19 18 13 3 0 0 0 0 0 0 0 0 0 0 0 0 0 0 0 0 0 0 0 0 0 0 0 0 0 0 0 0 0 0 0 0 0 0 0 0 0 0 0 0 0 0 0 0 0 0 
0 0 0 0 0 0 0 0 0 0 0 0 0 0 0 0 0 0 0 0 0 0 0 0 0 0 4 2 15 18 20 14 7 12 45 84 94 85 51 51 106 114 73 58 59 83 110 106 78 88 107 114 105 88 90 107 112 93 83 98 107 91 60 103 71 39 45 62 121 130 59 65 100 103 81 22 9 15 19 19 9 1 0 0 0 0 0 0 0 0 0 0 0 0 0 0 0 0 0 0 0 0 0 0 0 0 0 0 0 0 0 0 0 0 0 0 0 0 0 0 0 0 0 0 0 0 0 0 
0 0 0 0 0 0 0 0 0 0 0 0 0 0 0 0 0 0 0 0 0 0 0 0 0 0 3 2 14 18 18 21 8 4 12 35 53 46 41 58 124 133 68 50 54 67 119 101 75 95 110 104 110 99 96 106 116 109 100 85 82 56 37 74 86 53 43 57 129 158 75 40 57 66 39 21 11 16 20 16 6 1 0 0 0 0 0 0 0 0 0 0 0 0 0 0 0 0 0 0 0 0 0 0 0 0 0 0 0 0 0 0 0 0 0 0 0 0 0 0 0 0 0 0 0 0 0 0 
0 0 0 0 0 0 0 0 0 0 0 0 0 0 0 0 0 0 0 0 0 0 0 0 0 0 1 4 8 15 18 18 15 3 9 18 26 32 37 60 131 147 72 59 80 89 99 82 61 54 85 130 137 123 117 116 117 124 145 133 106 68 42 59 90 95 49 43 128 169 77 35 35 33 28 19 12 15 21 12 4 0 0 0 0 0 0 0 0 0 0 0 0 0 0 0 0 0 0 0 0 0 0 0 0 0 0 0 0 0 0 0 0 0 0 0 0 0 0 0 0 0 0 0 0 0 0 0 
0 0 0 0 0 0 0 0 0 0 0 0 0 0 0 0 0 0 0 0 0 0 0 0 0 0 0 5 6 8 20 15 15 9 9 21 25 34 34 42 108 165 109 59 103 119 92 75 77 78 94 108 104 110 112 110 109 120 130 99 103 68 37 46 80 106 88 67 145 163 59 34 35 34 28 20 12 17 20 11 2 0 0 0 0 0 0 0 0 0 0 0 0 0 0 0 0 0 0 0 0 0 0 0 0 0 0 0 0 0 0 0 0 0 0 0 0 0 0 0 0 0 0 0 0 0 0 0 
0 0 0 0 0 0 0 0 0 0 0 0 0 0 0 0 0 0 0 0 0 0 0 0 0 0 0 1 9 7 13 17 16 13 9 10 19 33 35 32 57 148 151 115 148 129 79 57 62 69 81 80 98 111 106 104 106 115 128 111 99 61 33 40 67 113 143 135 174 128 34 32 35 34 30 19 12 18 16 10 1 1 0 0 0 0 0 0 0 0 0 0 0 0 0 0 0 0 0 0 0 0 0 0 0 0 0 0 0 0 0 0 0 0 0 0 0 0 0 0 0 0 0 0 0 0 0 0 
0 0 0 0 0 0 0 0 0 0 0 0 0 0 0 0 0 0 0 0 0 0 0 0 0 0 0 0 2 11 10 16 18 13 9 7 15 26 32 32 31 81 162 169 181 134 72 56 50 55 81 108 128 112 101 95 103 115 129 135 109 85 38 38 53 111 174 180 149 61 30 31 34 31 27 15 11 17 16 9 1 1 0 0 0 0 0 0 0 0 0 0 0 0 0 0 0 0 0 0 0 0 0 0 0 0 0 0 0 0 0 0 0 0 0 0 0 0 0 0 0 0 0 0 0 0 0 0 
0 0 0 0 0 0 0 0 0 0 0 0 0 0 0 0 0 0 0 0 0 0 0 0 0 0 0 0 0 10 6 13 15 15 9 8 12 22 29 32 31 30 56 130 172 117 62 55 45 54 85 118 119 104 96 95 104 110 117 131 116 109 54 39 39 72 133 100 43 44 31 28 31 28 23 14 12 17 16 9 1 1 0 0 0 0 0 0 0 0 0 0 0 0 0 0 0 0 0 0 0 0 0 0 0 0 0 0 0 0 0 0 0 0 0 0 0 0 0 0 0 0 0 0 0 0 0 0 
0 0 0 0 0 0 0 0 0 0 0 0 0 0 0 0 0 0 0 0 0 0 0 0 0 0 0 0 0 7 7 11 15 17 11 7 9 23 29 30 30 31 31 51 68 75 77 73 59 70 88 101 103 100 94 94 98 101 107 124 140 121 78 47 41 37 26 23 28 44 38 28 27 21 16 11 9 17 16 9 1 1 0 0 0 0 0 0 0 0 0 0 0 0 0 0 0 0 0 0 0 0 0 0 0 0 0 0 0 0 0 0 0 0 0 0 0 0 0 0 0 0 0 0 0 0 0 0 
