P2
128 99
222
0 0 0 0 0 0 0 0 0 0 0 0 0 0 0 0 0 0 0 0 0 0 0 0 0 0 0 0 0 0 0 0 0 0 0 0 0 0 0 0 0 1 1 0 0 0 0 0 0 0 0 0 0 0 0 0 0 0 0 0 0 0 0 0 0 0 0 0 0 0 0 0 0 0 0 0 0 0 0 0 0 0 0 0 1 1 0 0 0 0 0 0 0 0 0 0 0 0 0 0 0 0 0 0 0 0 0 0 0 0 0 0 0 0 0 0 0 0 0 0 0 0 0 0 0 0 0 0 
0 0 0 0 0 0 0 0 0 0 0 0 0 0 0 0 0 0 0 0 0 0 0 0 0 0 0 0 0 0 0 0 0 0 0 0 0 0 0 0 1 1 1 0 0 0 0 0 0 0 0 0 0 0 0 0 0 0 0 0 0 0 0 0 0 0 0 0 0 0 0 0 0 0 0 0 0 0 0 0 0 0 0 0 1 1 0 0 0 0 0 0 0 0 0 0 0 0 0 0 0 0 0 0 0 0 0 0 0 0 0 0 0 0 0 0 0 0 0 0 0 0 0 0 0 0 0 0 
0 0 0 0 0 0 0 0 0 0 0 0 0 0 0 0 0 0 0 0 0 0 0 0 0 0 0 0 0 0 0 0 0 0 0 0 0 0 0 0 1 1 1 0 0 0 0 0 0 0 1 2 2 3 1 0 0 0 0 0 0 0 0 0 0 0 0 0 0 0 0 0 0 0 0 0 0 0 0 0 0 0 0 0 1 1 0 0 0 0 0 0 0 0 0 0 0 0 0 0 0 0 0 0 0 0 0 0 0 0 0 0 0 0 0 0 0 0 0 0 0 0 0 0 0 0 0 0 
0 0 0 0 0 0 0 0 0 0 0 0 0 0 0 0 0 0 0 0 0 0 0 0 0 0 0 0 0 0 0 0 0 0 0 0 0 0 0 0 1 1 1 1 7 13 18 18 17 18 21 26 29 29 25 22 18 16 14 11 4 0 0 0 0 0 0 0 0 0 0 0 0 0 0 0 0 0 0 0 0 0 0 0 1 1 0 0 0 0 0 0 0 0 0 0 0 0 0 0 0 0 0 0 0 0 0 0 0 0 0 0 0 0 0 0 0 0 0 0 0 0 0 0 0 0 0 0 
0 0 0 0 0 0 0 0 0 0 0 0 0 0 0 0 0 0 0 0 0 0 0 0 0 0 0 0 0 0 0 0 0 0 0 0 0 0 0 0 6 15 20 23 23 35 53 76 98 117 132 142 147 147 144 135 120 100 76 53 33 22 16 11 2 0 0 0 0 0 0 0 0 0 0 0 0 0 0 0 0 0 0 0 1 1 0 0 0 0 0 0 0 0 0 0 0 0 0 0 0 0 0 0 0 0 0 0 0 0 0 0 0 0 0 0 0 0 0 0 0 0 0 0 0 0 0 0 
0 0 0 0 0 0 0 0 0 0 0 0 0 0 0 0 0 0 0 0 0 0 0 0 0 0 0 0 0 0 0 0 0 0 0 0 0 1 9 17 24 26 37 68 107 142 164 175 179 181 183 181 179 177 179 178 178 176 172 164 144 113 76 43 24 15 10 1 0 0 0 0 0 0 0 0 0 0 0 0 0 0 0 0 1 1 0 0 0 0 0 0 0 0 0 0 0 0 0 0 0 0 0 0 0 0 0 0 0 0 0 0 0 0 0 0 0 0 0 0 0 0 0 0 0 0 0 0 
0 0 0 0 0 0 0 0 0 0 0 0 0 0 0 0 0 0 0 0 0 0 0 0 0 0 0 0 0 0 0 0 0 0 0 0 8 21 24 25 51 100 145 172 181 184 184 182 185 190 193 194 195 194 195 195 194 190 185 180 178 175 168 151 118 75 39 18 13 2 0 0 0 0 0 0 0 0 0 0 0 0 0 0 1 1 0 0 0 0 0 0 0 0 0 0 0 0 0 0 0 0 0 0 0 0 0 0 0 0 0 0 0 0 0 0 0 0 0 0 0 0 0 0 0 0 0 0 
0 0 0 0 0 0 0 0 0 0 0 0 0 0 0 0 0 0 0 0 0 0 0 0 0 0 0 0 0 0 0 0 0 0 8 24 25 25 61 119 161 179 183 184 185 188 189 184 177 172 174 181 180 167 165 176 189 194 195 194 191 188 183 179 177 167 143 98 49 23 13 1 0 0 0 0 0 0 0 0 0 0 0 0 1 1 0 0 0 0 0 0 0 0 0 0 0 0 0 0 0 0 0 0 0 0 0 0 0 0 0 0 0 0 0 0 0 0 0 0 0 0 0 0 0 0 0 0 
0 0 0 0 0 0 0 0 0 0 0 0 0 0 0 0 0 0 0 0 0 0 0 0 0 0 0 0 0 0 0 0 5 27 25 24 58 124 165 177 179 181 186 192 192 182 169 160 153 148 148 152 151 144 145 149 155 174 194 199 195 192 192 190 186 182 179 173 150 99 46 23 11 0 0 0 0 0 0 0 0 0 0 1 1 1 0 0 0 0 0 0 0 0 0 0 0 0 0 0 0 0 0 0 0 0 0 0 0 0 0 0 0 0 0 0 0 0 0 0 0 0 0 0 0 0 0 0 
0 0 0 0 0 0 0 0 0 0 0 0 0 0 0 0 0 0 0 0 0 0 0 0 0 0 0 0 0 0 0 23 26 19 40 110 163 176 177 178 185 194 189 171 157 154 148 141 143 143 143 147 145 143 147 149 155 160 166 182 197 201 199 195 191 191 186 183 179 173 142 77 30 19 2 0 0 0 0 0 0 0 0 0 1 1 0 0 0 0 0 0 0 0 0 0 0 0 0 0 0 0 0 0 0 0 0 0 0 0 0 0 0 0 0 0 0 0 0 0 0 0 0 0 0 0 0 0 
0 0 0 0 0 0 0 0 0 0 0 0 0 0 0 0 0 0 0 0 0 0 0 0 0 0 0 0 0 10 28 21 26 82 153 175 177 179 184 194 195 179 161 158 151 148 142 133 128 128 128 134 134 137 141 147 142 136 137 150 171 191 202 204 202 196 191 190 187 184 181 167 115 44 22 5 0 0 0 0 0 0 0 1 1 1 0 0 0 0 0 0 0 0 0 0 0 0 0 0 0 0 0 0 0 0 0 0 0 0 0 0 0 0 0 0 0 0 0 0 0 0 0 0 0 0 0 0 
0 0 0 0 0 0 0 0 0 0 0 0 0 0 0 0 0 0 0 0 0 0 0 0 0 0 0 0 22 24 19 48 128 170 175 180 186 193 197 187 171 167 165 161 156 148 142 141 141 135 133 138 134 128 132 140 146 143 144 148 149 156 174 190 203 207 202 197 190 190 189 182 176 145 68 23 11 0 0 0 0 0 0 1 1 1 0 0 0 0 0 0 0 0 0 0 0 0 0 0 0 0 0 0 0 0 0 0 0 0 0 0 0 0 0 0 0 0 0 0 0 0 0 0 0 0 0 0 
0 0 0 0 0 0 0 0 0 0 0 0 0 0 0 0 0 0 0 0 0 0 0 0 0 0 5 25 21 18 76 152 173 179 184 192 196 193 181 174 173 161 149 146 145 143 141 140 140 129 119 115 115 119 131 139 144 141 139 138 144 158 171 175 179 190 203 207 202 198 192 191 184 176 155 83 25 12 0 0 0 0 0 1 1 1 0 0 0 0 0 0 0 0 0 0 0 0 0 0 0 0 0 0 0 0 0 0 0 0 0 0 0 0 0 0 0 0 0 0 0 0 0 0 0 0 0 0 
0 0 0 0 0 0 0 0 0 0 0 0 0 0 0 0 0 0 0 0 0 0 0 0 0 10 25 18 25 98 160 174 183 190 196 196 190 180 176 162 154 154 156 148 146 146 149 150 144 140 133 133 128 129 134 145 157 160 160 158 152 150 152 163 172 177 182 191 204 205 199 194 189 183 176 161 93 28 13 0 0 0 0 1 1 1 0 0 0 0 0 0 0 0 0 0 0 0 0 0 0 0 0 0 0 0 0 0 0 0 0 0 0 0 0 0 0 0 0 0 0 0 0 0 0 0 0 0 
0 0 0 0 0 0 0 0 0 0 0 0 0 0 0 0 0 0 0 0 0 0 0 0 14 23 17 33 116 164 175 184 194 198 192 185 178 166 158 158 156 153 147 146 146 144 138 133 132 123 118 113 110 115 114 114 127 141 143 143 146 150 158 161 160 163 168 176 178 188 202 200 196 189 183 178 164 103 31 13 0 0 0 0 1 1 0 0 0 0 0 0 0 0 0 0 0 0 0 0 0 0 0 0 0 0 0 0 0 0 0 0 0 0 0 0 0 0 0 0 0 0 0 0 0 0 0 0 
0 0 0 0 0 0 0 0 0 0 0 0 0 0 0 0 0 0 0 0 0 0 3 19 20 16 45 127 162 178 185 194 196 186 177 171 162 161 157 151 155 155 145 136 129 114 104 105 105 107 108 114 113 120 122 121 120 124 134 142 142 137 135 142 154 163 165 160 164 171 177 195 200 195 188 182 177 167 114 35 11 0 0 1 1 1 1 0 0 0 0 0 0 0 0 0 0 0 0 0 0 0 0 0 0 0 0 0 0 0 0 0 0 0 0 0 0 0 0 0 0 0 0 0 0 0 0 0 
0 0 0 0 0 0 0 0 0 0 0 0 0 0 0 0 0 0 0 0 0 5 17 17 18 57 136 162 180 187 197 194 180 171 167 160 156 152 153 161 154 139 137 136 125 123 125 122 125 127 125 123 124 127 130 129 125 122 122 127 137 142 143 141 134 137 150 163 162 159 164 166 186 196 194 191 187 178 166 120 37 9 0 1 1 1 1 0 0 0 0 0 0 0 0 0 0 0 0 0 0 0 0 0 0 0 0 0 0 0 0 0 0 0 0 0 0 0 0 0 0 0 0 0 0 0 0 0 
0 0 0 0 0 0 0 0 0 0 0 0 0 0 0 0 0 0 0 0 7 16 13 19 70 143 161 178 188 197 191 171 160 162 157 149 141 153 157 145 136 136 130 125 122 119 113 116 118 114 115 105 103 111 108 111 112 113 112 114 117 123 134 145 148 138 130 136 149 154 152 158 161 178 188 192 193 188 177 166 126 37 7 1 1 1 0 0 0 0 0 0 0 0 0 0 0 0 0 0 0 0 0 0 0 0 0 0 0 0 0 0 0 0 0 0 0 0 0 0 0 0 0 0 0 0 0 0 
0 0 0 0 0 0 0 0 0 0 0 0 0 0 0 0 0 0 0 6 16 13 20 78 145 162 176 185 196 188 163 154 159 147 141 139 153 152 135 124 124 123 121 114 107 103 100 101 102 102 104 90 90 102 101 101 105 109 109 111 111 111 110 118 131 141 135 128 132 146 147 141 151 158 173 185 191 195 187 175 165 120 29 5 1 1 1 0 0 0 0 0 0 0 0 0 0 0 0 0 0 0 0 0 0 0 0 0 0 0 0 0 0 0 0 0 0 0 0 0 0 0 0 0 0 0 0 0 
0 0 0 0 0 0 0 0 0 0 0 0 0 0 0 0 0 0 4 15 12 19 82 146 160 176 184 194 182 156 154 156 141 140 140 151 143 125 117 118 117 110 104 104 103 105 104 107 111 114 110 104 109 125 127 124 125 125 125 125 120 118 112 106 107 115 136 136 130 132 144 139 138 145 155 170 180 193 194 184 173 160 104 21 3 1 1 0 0 0 0 0 0 0 0 0 0 0 0 0 0 0 0 0 0 0 0 0 0 0 0 0 0 0 0 0 0 0 0 0 0 0 0 0 0 0 0 0 
0 0 0 0 0 0 0 0 0 0 0 0 0 0 0 0 0 2 15 13 19 78 142 155 170 182 193 182 154 151 155 135 139 141 148 136 115 117 118 113 108 105 112 116 120 126 130 129 132 125 125 128 129 136 139 142 141 139 136 133 128 122 114 106 101 102 111 133 137 131 131 144 134 138 145 155 165 175 192 191 179 169 151 82 11 1 1 0 0 0 0 0 0 0 0 0 0 0 0 0 0 0 0 0 0 0 0 0 0 0 0 0 0 0 0 0 0 0 0 0 0 0 0 0 0 0 0 0 
0 0 0 0 0 0 0 0 0 0 0 0 0 0 0 0 0 11 12 17 72 135 151 166 177 189 183 155 152 152 131 139 140 143 128 110 117 121 116 115 111 112 120 133 136 132 126 124 122 105 109 116 116 114 111 110 118 119 121 125 127 123 120 111 101 101 105 111 131 138 129 127 135 130 138 143 159 158 177 193 189 178 163 137 53 5 1 0 0 0 0 0 0 0 0 0 0 0 0 0 0 0 0 0 0 0 0 0 0 0 0 0 0 0 0 0 0 0 0 0 0 0 0 0 0 0 0 0 
0 0 0 0 0 0 0 0 0 0 0 0 0 0 0 0 5 13 15 57 129 145 160 173 186 183 152 147 148 131 137 137 134 128 108 119 126 120 112 106 106 116 125 125 121 114 111 108 96 87 88 91 88 90 91 90 93 96 99 105 115 123 125 120 109 101 101 109 113 129 130 125 128 129 125 135 143 159 150 180 194 186 172 156 113 26 2 0 0 0 0 0 0 0 0 0 0 0 0 0 0 0 0 0 0 0 0 0 0 0 0 0 0 0 0 0 0 0 0 0 0 0 0 0 0 0 0 0 
0 0 0 0 0 0 0 0 0 0 0 0 0 0 0 2 12 13 46 119 139 156 170 183 183 155 142 144 132 139 136 132 131 115 120 127 115 107 99 107 116 116 108 102 99 93 90 90 86 82 85 85 82 82 84 83 86 85 86 88 94 106 118 126 119 109 101 104 111 115 122 129 123 129 126 129 137 146 154 150 186 189 182 165 142 77 9 0 0 0 0 0 0 0 0 0 0 0 0 0 0 0 0 0 0 0 0 0 0 1 0 0 0 0 0 0 0 0 0 0 0 0 0 0 0 0 0 0 
0 0 0 0 0 0 0 0 0 0 0 0 0 0 0 7 11 26 98 129 148 164 177 181 161 142 142 132 136 139 134 132 116 116 122 113 98 96 101 108 107 103 98 93 90 87 86 87 89 88 88 90 90 89 92 96 97 95 93 94 91 92 103 115 122 119 107 104 106 110 108 119 126 124 128 127 137 132 149 145 161 185 184 170 155 119 30 1 0 0 0 0 0 0 0 0 0 0 0 0 0 0 0 0 0 0 0 0 0 0 0 0 0 0 0 0 0 0 0 0 0 0 0 0 0 0 0 0 
0 0 0 0 0 0 0 0 0 0 0 0 0 0 2 10 14 72 124 140 157 171 176 168 144 134 135 130 139 133 139 117 112 119 114 96 96 99 102 100 99 99 98 96 91 89 92 95 98 102 103 108 110 113 115 112 112 112 107 103 97 98 98 102 109 117 112 103 103 108 111 112 119 127 128 125 132 130 135 144 138 170 180 177 160 138 67 5 0 0 0 0 0 0 0 0 0 0 0 0 0 0 0 0 0 0 0 0 0 0 0 0 0 0 0 0 0 0 0 0 0 0 0 0 0 0 0 0 
0 0 0 0 0 0 0 0 0 0 0 0 0 0 6 8 39 111 130 148 162 170 168 157 133 126 128 137 131 141 128 111 117 112 102 93 96 101 105 104 103 104 101 102 102 101 110 113 115 120 123 126 126 129 123 123 121 121 118 111 99 99 100 97 96 106 114 110 100 102 105 109 112 118 128 136 128 133 128 134 139 156 173 180 166 149 102 16 0 0 0 0 0 0 0 0 0 0 0 0 0 0 0 0 0 0 0 0 0 0 0 0 0 0 0 0 0 0 0 0 0 0 0 0 0 0 0 0 
0 0 0 0 0 0 0 0 0 0 0 0 0 0 7 14 80 122 140 152 168 161 157 141 125 125 132 135 134 135 111 112 114 102 97 98 101 111 110 108 107 104 104 107 107 111 114 113 113 114 120 123 122 118 97 96 103 112 114 109 104 101 99 102 103 99 108 115 108 98 105 108 115 109 122 140 133 131 129 123 131 151 162 177 170 154 125 37 2 0 0 0 0 0 0 0 0 0 0 0 0 0 0 0 0 0 0 0 0 0 0 0 0 0 0 0 0 0 0 0 0 0 0 0 0 0 0 0 
0 0 0 0 0 0 0 0 0 0 0 0 0 3 7 35 106 128 147 160 165 157 148 134 119 125 130 133 135 119 108 117 110 99 101 104 115 115 108 108 109 105 103 104 103 103 105 104 99 93 95 103 106 95 80 80 82 89 89 98 105 107 106 104 109 103 99 112 118 105 100 107 117 111 110 137 143 122 126 122 120 152 155 175 171 157 137 60 3 0 0 0 0 0 0 0 0 0 0 0 0 0 0 0 0 0 0 0 0 0 0 0 0 0 0 0 0 0 0 0 0 0 0 0 0 0 0 0 
0 0 0 0 0 0 0 0 0 0 0 0 0 4 8 65 118 133 152 164 153 148 143 123 118 126 128 128 122 111 114 116 105 99 106 117 121 113 109 107 110 107 101 97 92 92 89 93 91 86 83 88 89 85 78 79 77 77 78 80 84 96 104 108 110 108 101 104 119 118 105 103 112 114 111 125 145 116 118 127 108 144 152 169 173 159 141 80 6 0 0 0 0 0 0 0 0 0 0 0 0 0 0 0 0 0 0 0 0 0 0 0 0 0 0 0 0 0 0 0 0 0 0 0 0 0 0 0 
0 0 0 0 0 0 0 0 0 0 0 0 0 6 16 89 123 142 156 159 141 140 136 114 115 127 128 117 118 114 116 113 105 109 120 124 117 106 102 106 112 115 105 89 84 78 83 89 92 90 92 94 98 95 94 92 93 89 85 82 79 80 90 103 110 115 111 100 105 121 121 106 105 114 113 117 137 121 109 125 110 136 149 167 174 160 144 97 10 0 0 0 0 0 0 0 0 0 0 0 0 0 0 0 0 0 0 0 0 0 0 0 0 0 0 0 0 0 0 0 0 0 0 0 0 0 0 0 
0 0 0 0 0 0 0 0 0 0 0 0 1 6 32 108 129 148 156 146 133 134 130 115 117 127 117 115 121 112 115 107 115 127 126 116 107 100 105 114 113 103 95 92 85 87 96 105 110 110 112 109 112 107 106 108 113 113 109 106 98 89 82 88 105 115 119 107 100 112 128 123 105 109 113 117 128 124 108 115 111 134 154 163 175 166 148 110 15 0 0 0 0 0 0 0 0 0 0 0 0 0 0 0 0 0 0 0 0 0 0 0 0 0 0 0 0 0 0 0 0 0 0 0 0 0 0 0 
0 0 0 0 0 0 0 0 0 0 0 0 2 6 48 115 132 152 147 136 128 130 133 114 123 119 108 120 118 107 108 109 130 129 114 104 100 105 111 112 101 91 89 95 104 104 106 106 106 105 99 98 96 84 81 81 80 86 99 117 125 117 103 97 106 109 104 114 115 111 119 128 118 107 111 116 118 123 112 109 110 127 151 157 174 170 150 122 24 0 0 0 0 0 0 0 0 0 0 0 0 0 0 0 0 0 0 0 0 0 0 0 0 0 0 0 0 0 0 0 0 0 0 0 0 0 0 0 
0 0 0 0 0 0 0 0 0 0 0 0 2 6 61 121 139 155 146 136 125 127 128 115 122 105 108 120 115 106 108 123 133 121 108 100 105 109 111 102 95 96 91 101 119 111 103 98 94 90 88 95 85 79 79 79 79 79 81 110 119 114 101 84 78 91 106 113 120 113 111 122 125 119 112 113 113 112 111 107 109 123 153 157 171 172 154 132 35 1 0 0 0 0 0 0 0 0 0 0 0 0 0 0 0 0 0 0 0 0 0 0 0 0 0 0 0 0 0 0 0 0 0 0 0 0 0 0 
0 0 0 0 0 0 0 0 0 0 0 0 3 8 72 124 145 154 146 139 125 126 127 122 121 100 112 112 110 107 120 133 125 110 102 107 106 108 110 107 103 103 89 96 113 117 107 96 88 80 81 90 86 82 83 82 82 82 82 97 101 110 104 90 83 96 107 113 127 125 113 112 120 129 125 113 106 106 110 103 109 130 153 158 172 174 159 140 48 2 0 0 0 0 0 0 0 0 0 0 0 0 0 0 0 0 0 0 0 0 0 0 0 0 0 0 0 0 0 0 0 0 0 0 0 0 0 0 
0 0 0 0 0 0 0 0 0 0 0 0 3 10 77 128 149 154 146 139 129 126 129 130 115 100 110 103 110 109 130 126 114 107 110 116 105 101 104 108 110 107 94 104 109 110 118 106 86 85 85 87 89 87 88 90 89 82 88 99 93 112 111 104 99 103 108 115 117 121 123 118 112 121 136 126 104 107 111 102 112 134 152 157 174 174 163 148 61 3 0 0 0 0 0 0 0 0 0 0 0 0 0 0 0 0 0 0 0 0 0 0 0 0 0 0 0 0 0 0 0 0 0 0 0 0 0 0 
0 0 0 0 0 0 0 0 0 0 0 0 3 11 82 132 152 155 150 141 133 126 133 132 112 104 109 100 109 115 133 115 110 118 118 107 98 89 90 95 97 100 103 111 111 110 111 114 99 98 98 93 94 94 95 105 102 91 95 93 96 113 116 111 98 90 88 90 95 101 108 112 124 127 127 137 119 109 113 102 116 134 146 154 173 175 166 149 73 5 0 0 0 0 0 0 0 0 0 0 0 0 0 0 0 0 0 0 0 0 0 0 0 0 0 0 0 0 0 0 0 0 0 0 0 0 0 0 
0 0 0 0 0 0 0 0 0 0 0 0 5 13 87 137 156 159 150 142 137 132 136 131 112 111 106 94 108 127 127 111 122 123 105 90 80 80 82 85 86 87 90 99 108 114 115 110 99 103 109 102 104 104 105 99 91 90 88 81 106 114 108 94 85 77 87 91 94 100 102 102 112 126 131 131 139 121 119 109 119 134 140 148 168 178 169 150 87 7 0 0 0 0 0 0 0 0 0 0 0 0 0 0 0 0 0 0 0 0 0 0 0 0 0 0 0 0 0 0 0 0 0 0 0 0 0 0 
0 0 0 0 0 0 0 0 0 0 0 0 5 14 90 138 157 155 150 141 135 132 142 139 116 119 107 94 108 133 124 122 125 108 87 82 83 82 87 96 96 87 85 89 96 100 111 120 101 86 89 104 106 108 107 88 80 76 78 102 109 96 93 92 91 93 95 99 102 109 110 109 108 108 122 138 139 141 129 113 123 130 135 142 156 176 172 155 100 10 0 0 0 0 0 0 0 0 0 0 0 0 0 0 0 0 0 0 0 0 0 0 0 0 0 0 0 0 0 0 0 0 0 0 0 0 0 0 
0 0 0 0 0 0 0 0 0 0 0 0 6 14 92 142 155 154 149 140 133 129 137 138 121 124 115 107 115 133 133 131 113 93 96 96 94 96 98 99 100 97 95 97 95 98 99 112 109 94 89 99 109 117 113 92 81 82 97 109 101 97 89 84 85 83 85 91 95 99 104 106 107 108 120 142 142 150 140 119 122 125 129 135 144 168 171 155 113 15 0 0 0 0 0 0 0 0 0 0 0 0 0 0 0 0 0 0 0 0 0 0 0 0 0 0 0 0 0 0 0 0 0 0 0 0 0 0 
0 0 0 0 0 0 0 0 0 0 0 0 7 15 92 142 159 158 146 134 131 132 133 131 120 125 120 117 131 128 139 130 106 103 95 78 78 84 89 92 94 92 90 95 101 94 101 105 109 100 102 112 116 116 122 107 93 94 98 104 97 88 86 89 91 90 91 99 101 106 108 105 109 120 126 134 138 146 150 124 121 121 126 129 137 163 173 155 123 22 0 0 0 0 0 0 0 0 0 0 0 0 0 0 0 0 0 0 0 0 0 0 0 0 0 0 0 0 0 0 0 0 0 0 0 0 0 0 
0 0 0 0 0 0 0 0 0 0 0 0 8 16 96 145 160 159 135 128 128 128 132 126 118 126 122 116 135 132 141 127 113 107 93 78 83 91 92 90 91 98 95 91 92 96 95 96 96 96 96 110 118 110 120 111 98 98 96 100 88 88 91 91 91 94 95 103 107 108 109 104 111 120 116 119 130 145 152 125 117 118 123 119 127 155 170 157 128 33 1 0 0 0 0 0 0 0 0 0 0 0 0 0 0 0 0 0 0 0 0 0 0 0 0 0 0 0 0 0 0 0 0 0 0 0 0 0 
0 0 0 0 0 0 0 0 0 0 0 0 8 16 97 145 160 158 132 128 129 123 128 122 116 120 115 123 132 125 134 124 121 117 100 92 94 97 94 92 92 96 97 94 90 89 90 92 86 92 95 110 107 103 109 111 97 97 95 90 84 89 96 100 97 91 90 99 108 110 111 104 105 120 121 113 119 136 144 125 116 113 115 108 115 143 166 158 131 43 1 0 0 0 0 0 0 0 0 0 0 0 0 0 0 0 0 0 0 0 0 0 0 0 0 0 0 0 0 0 0 0 0 0 0 0 0 0 
0 0 0 0 0 0 0 0 0 0 0 0 9 18 100 148 162 157 129 126 126 115 121 112 108 115 112 123 121 119 126 119 115 113 91 87 95 106 103 96 97 97 92 89 88 83 82 89 96 96 94 95 92 109 105 103 101 102 94 83 85 95 103 98 91 92 92 98 107 111 108 100 107 121 124 111 115 120 134 121 113 108 111 106 111 131 157 157 133 49 2 0 0 0 0 0 0 0 0 0 0 0 0 0 0 0 0 0 0 0 0 0 0 0 0 0 0 0 0 0 0 0 0 0 0 0 0 0 
0 0 0 0 0 0 0 0 0 0 0 0 9 18 99 149 162 155 119 123 117 107 111 106 99 109 105 124 124 120 124 116 103 103 83 78 84 96 100 102 102 105 99 86 75 75 75 77 82 90 100 93 95 93 91 105 100 101 91 84 94 99 97 89 82 89 93 98 103 111 109 97 103 116 117 108 110 115 126 121 119 104 107 98 107 123 145 158 136 55 2 0 0 0 0 0 0 0 0 0 0 0 0 0 0 0 0 0 0 0 0 0 0 0 0 0 0 0 0 0 0 0 0 0 0 0 0 0 
0 0 0 0 0 0 0 0 0 0 0 0 8 17 96 149 163 153 117 112 113 101 103 103 97 99 101 124 132 119 119 112 103 98 82 77 81 90 99 100 93 91 87 82 77 71 75 72 74 94 105 105 91 80 83 75 98 97 91 91 97 96 97 85 77 84 88 98 106 107 101 93 101 118 117 105 107 115 121 123 128 104 107 98 106 118 128 150 137 60 3 0 0 0 0 0 0 0 0 0 0 0 0 0 0 0 0 0 0 0 0 0 0 0 0 0 0 0 0 0 0 0 0 0 0 0 0 0 
0 0 0 0 0 0 0 0 0 0 0 0 8 17 95 149 161 143 110 110 107 94 99 105 97 91 105 117 135 115 117 111 104 97 81 78 83 90 98 103 93 80 75 74 74 78 80 72 69 92 108 112 89 82 83 68 87 106 83 92 95 95 89 83 80 83 87 93 104 106 95 92 103 118 116 107 105 120 128 121 130 105 108 98 110 117 126 149 135 61 3 0 0 0 0 0 0 0 0 0 0 0 0 0 0 0 0 0 0 0 0 0 0 0 0 0 0 0 0 0 0 0 0 0 0 0 0 0 
0 0 0 0 0 0 0 0 0 0 0 0 7 15 89 146 158 134 110 108 107 97 97 108 101 92 107 112 134 115 118 112 103 96 82 77 81 87 94 104 97 80 71 69 71 74 78 65 68 94 108 93 76 67 76 62 72 119 79 94 100 97 88 84 84 87 91 97 106 105 92 89 108 121 110 106 117 133 125 119 132 106 105 94 110 114 129 151 131 60 3 0 0 0 0 0 0 0 0 0 0 0 0 0 0 0 0 0 0 0 0 0 0 0 0 0 0 0 0 0 0 0 0 0 0 0 0 0 
0 0 0 0 0 0 0 0 0 0 0 0 6 14 80 144 156 130 105 107 104 97 95 106 99 89 107 111 130 112 118 117 102 99 88 73 79 90 94 100 93 79 68 65 73 78 81 68 76 99 112 83 76 65 75 63 60 108 96 90 94 93 88 86 81 85 93 100 110 105 87 90 113 118 97 102 125 137 123 120 128 108 101 93 111 110 129 149 128 55 2 0 0 0 0 0 0 0 0 0 0 0 0 0 0 0 0 0 0 0 0 0 0 0 0 0 0 0 0 0 0 0 0 0 0 0 0 0 
0 0 0 0 0 0 0 0 0 0 0 0 4 13 75 141 155 133 106 108 103 98 93 102 102 88 104 116 128 108 108 124 108 100 91 81 82 95 102 103 90 78 69 67 70 70 74 60 74 100 99 81 78 79 81 63 63 77 102 96 92 87 89 88 81 88 94 102 109 97 83 86 109 108 87 99 118 140 132 119 125 108 99 95 111 107 133 145 124 48 2 0 0 0 0 0 0 0 0 0 0 0 0 0 0 0 0 0 0 0 0 0 0 0 0 0 0 0 0 0 0 0 0 0 0 0 0 0 
0 0 0 0 0 0 0 0 0 0 0 0 2 14 67 136 152 137 108 105 105 95 93 103 104 89 101 114 123 103 106 121 109 99 96 89 90 101 108 102 87 75 66 65 62 67 68 64 79 94 88 78 76 89 88 69 70 65 95 96 103 94 90 89 87 88 89 100 104 93 79 85 106 95 80 100 119 144 144 124 119 102 97 100 107 103 136 139 116 42 2 0 0 0 0 0 0 0 0 0 0 0 0 0 0 0 0 0 0 0 0 0 0 0 0 0 0 0 0 0 0 0 0 0 0 0 0 0 
0 0 0 0 0 0 0 0 0 5 6 0 0 11 59 128 149 136 109 99 106 95 95 100 104 93 98 114 116 100 101 120 110 103 95 91 91 99 105 102 88 80 67 64 69 80 76 73 81 87 87 77 79 96 91 74 68 69 84 106 116 115 102 95 87 85 91 98 100 88 77 86 103 86 87 108 121 133 137 134 116 98 92 101 102 105 139 134 104 35 2 0 0 0 0 0 0 0 0 0 0 0 0 0 0 0 0 0 0 0 0 0 0 0 0 0 0 0 0 0 0 0 0 0 0 0 0 0 
0 0 0 0 0 0 0 0 0 4 7 4 1 8 50 120 146 135 115 97 104 97 97 94 101 97 101 115 111 107 110 118 112 103 91 93 99 101 104 102 92 91 80 69 69 76 80 76 85 83 89 86 85 96 95 83 75 70 82 121 117 132 112 88 81 77 86 99 97 80 73 91 102 87 97 114 116 116 116 139 118 93 92 99 98 108 139 128 95 30 2 0 0 0 0 0 0 0 0 0 0 0 0 0 0 0 0 0 0 0 0 0 0 0 0 0 0 0 0 0 0 0 0 0 0 0 0 0 
0 0 0 0 0 0 0 0 0 1 3 10 4 7 41 111 144 135 115 96 97 96 103 98 97 96 102 113 112 120 123 116 115 108 98 87 94 100 103 102 98 90 76 75 83 95 85 74 93 80 86 79 83 95 96 84 82 82 89 121 120 124 126 110 97 93 94 100 93 80 71 90 105 97 102 120 119 118 112 138 129 113 97 94 98 120 139 123 85 23 1 0 0 0 0 0 0 0 0 0 0 0 0 0 0 0 0 0 0 0 0 0 0 0 0 0 0 0 0 0 0 0 0 0 0 0 0 0 
0 0 0 0 0 0 0 0 0 0 6 11 3 6 32 98 138 137 115 98 96 105 98 97 93 93 107 111 113 122 117 119 119 104 98 87 85 99 109 104 107 94 83 83 90 84 77 90 103 81 79 80 81 101 95 90 85 88 91 115 136 128 116 102 105 116 133 135 118 102 106 121 128 125 131 130 118 122 120 137 133 123 105 95 105 127 136 113 81 17 1 0 0 7 4 0 0 0 0 0 0 0 0 0 0 0 0 0 0 0 0 0 0 0 0 0 0 0 0 0 0 0 0 0 0 0 0 0 
0 0 0 0 0 0 0 0 0 0 6 12 3 6 25 87 133 141 116 107 101 102 97 97 91 91 110 114 115 119 109 122 145 137 118 103 97 106 117 114 108 104 83 79 92 90 91 94 106 81 78 86 86 100 100 90 86 87 92 122 138 125 110 101 102 115 144 154 145 139 147 147 141 140 147 137 130 126 128 139 130 126 117 107 111 132 119 105 73 11 4 3 4 1 2 0 0 0 0 0 0 0 0 0 0 0 0 0 0 0 0 0 0 0 0 0 0 0 0 0 0 0 0 0 0 0 0 0 
0 0 0 0 0 0 0 0 0 0 2 10 5 7 20 81 127 145 125 111 98 93 99 98 99 97 104 122 111 115 102 115 134 123 110 108 117 117 117 124 122 114 101 99 92 90 92 103 110 90 81 91 90 109 101 92 94 101 110 130 136 123 101 91 97 119 150 146 128 143 153 139 137 143 143 120 140 142 145 135 129 131 126 123 140 134 109 106 64 8 4 2 6 0 0 0 0 0 0 0 0 0 0 0 0 0 0 0 0 0 0 0 0 0 0 0 0 0 0 0 0 0 0 0 0 0 0 0 
0 0 0 0 0 0 0 0 0 0 1 8 7 9 14 67 115 145 139 117 99 90 98 113 115 107 110 125 120 119 110 118 133 136 121 116 116 122 122 128 130 133 120 95 95 97 99 109 117 105 84 84 92 112 99 97 102 106 110 126 129 124 108 107 118 133 147 137 134 145 161 147 148 151 139 137 140 148 155 153 150 143 141 146 155 130 113 103 50 6 2 2 5 2 0 0 0 0 0 0 0 0 0 0 0 0 0 0 0 0 0 0 0 0 0 0 0 0 0 0 0 0 0 0 0 0 0 0 
0 0 0 0 0 0 0 0 0 0 0 7 10 10 14 54 104 140 146 133 110 106 114 125 121 118 123 122 131 120 123 136 143 150 157 147 132 128 122 112 110 108 113 107 98 98 102 121 122 93 83 87 84 98 89 89 97 108 111 116 123 117 110 108 123 139 158 151 145 163 158 149 150 133 115 135 136 156 165 155 165 162 164 168 168 123 124 97 32 6 3 2 1 2 0 0 0 0 0 0 0 0 0 0 0 0 0 0 0 0 0 0 0 0 0 0 0 0 0 0 0 0 0 0 0 0 0 0 
0 0 0 0 0 0 0 0 0 0 0 8 9 7 9 37 101 137 145 148 137 140 132 137 138 132 147 123 134 124 119 145 163 158 157 151 150 144 131 110 108 104 106 107 96 90 109 120 104 82 80 81 76 99 94 88 89 97 104 101 117 111 110 121 129 119 131 143 148 156 146 138 139 119 115 124 126 143 164 159 167 170 173 173 147 115 111 80 17 4 4 2 1 2 0 0 0 0 0 0 0 0 0 0 0 0 0 0 0 0 0 0 0 0 0 0 0 0 0 0 0 0 0 0 0 0 0 0 
0 0 0 0 0 0 0 0 0 0 0 4 8 7 8 14 58 124 143 150 150 164 166 157 157 151 149 141 126 149 144 142 158 163 151 143 144 137 135 122 108 101 107 107 102 99 101 110 98 88 88 96 85 105 110 90 85 92 97 105 105 106 114 123 122 106 105 122 135 140 124 124 130 111 129 134 124 135 157 163 176 173 169 162 135 114 116 89 17 4 5 2 3 0 0 0 0 0 0 0 0 0 0 0 0 0 0 0 0 0 0 0 0 0 0 0 0 0 0 0 0 0 0 0 0 0 0 0 
0 0 0 0 0 0 0 0 0 0 0 6 7 5 4 10 37 112 143 147 151 168 164 167 161 160 159 150 136 127 135 139 147 154 157 150 147 140 136 121 103 98 96 104 102 98 114 104 97 91 94 97 97 116 112 94 83 80 88 102 98 102 109 114 110 100 107 120 131 121 116 123 100 117 138 128 121 136 139 129 160 166 155 130 102 122 111 59 7 3 5 4 4 0 0 0 0 0 0 0 0 0 0 0 0 0 0 0 0 0 0 0 0 0 0 0 0 0 0 0 0 0 0 0 0 0 0 0 
0 0 0 0 0 0 0 0 0 0 0 7 3 5 5 9 24 87 142 148 140 147 151 133 146 143 143 143 137 142 113 118 124 151 163 160 150 132 128 130 118 108 110 112 94 96 118 100 96 103 96 95 90 112 118 104 87 91 99 98 106 123 118 104 94 97 112 120 125 135 133 122 108 141 141 141 132 135 131 136 152 154 131 108 107 119 104 32 5 3 2 3 5 0 0 0 0 0 0 0 0 0 0 0 0 0 0 0 0 0 0 0 0 0 0 0 0 0 0 0 0 0 0 0 0 0 0 0 
0 0 0 0 0 0 0 0 0 0 0 8 3 5 5 6 15 58 132 145 137 131 142 140 135 144 140 140 131 149 119 112 129 136 148 153 150 120 118 125 102 109 114 106 108 106 124 109 112 126 121 107 94 101 119 125 106 102 105 101 111 113 111 111 98 89 96 97 112 139 115 92 113 140 147 155 151 142 135 147 115 116 132 122 118 102 75 19 8 7 3 1 3 1 0 0 0 0 0 0 0 0 0 0 0 0 0 0 0 0 0 0 0 0 0 0 0 0 0 0 0 0 0 0 0 0 0 0 
0 0 0 0 0 0 0 0 0 0 0 7 8 4 3 6 14 33 108 140 121 120 129 147 145 135 118 121 135 133 127 118 119 122 126 125 135 131 124 99 80 89 94 100 101 106 120 108 117 131 134 118 104 103 137 133 104 91 105 104 94 108 120 132 122 88 81 88 110 119 96 113 133 131 148 153 154 157 151 141 117 120 110 116 112 104 42 9 8 10 5 2 2 2 0 0 0 0 0 0 0 0 0 0 0 0 0 0 0 0 0 0 0 0 0 0 0 0 0 0 0 0 0 0 0 0 0 0 
0 0 0 0 0 0 0 0 0 0 0 3 11 7 2 10 14 17 77 128 110 116 128 145 140 132 125 116 122 134 134 136 115 114 130 134 127 131 122 99 78 86 83 93 101 108 117 115 107 111 125 130 118 122 143 127 106 89 108 116 105 114 120 114 115 99 86 87 92 115 113 124 119 124 139 145 153 166 172 155 130 112 102 98 92 80 22 13 5 11 9 3 2 3 0 0 0 0 0 0 0 0 0 0 0 0 0 0 0 0 0 0 0 0 0 0 0 0 0 0 0 0 0 0 0 0 0 0 
0 0 0 0 0 0 0 0 0 0 0 1 5 6 4 7 13 13 45 119 119 114 129 149 145 136 130 120 135 133 137 136 131 125 109 104 110 119 105 95 99 108 107 114 120 128 119 122 122 130 137 134 141 150 145 131 121 128 129 132 126 131 126 119 114 106 93 80 96 117 111 106 124 116 123 146 160 173 175 165 133 108 93 92 93 56 15 14 7 9 10 4 4 2 0 0 0 0 0 0 0 0 0 0 0 0 0 0 0 0 0 0 0 0 0 0 0 0 0 0 0 0 0 0 0 0 0 0 
0 0 0 0 0 0 0 0 0 0 0 0 2 1 3 8 12 13 24 94 119 102 113 126 145 147 142 131 148 141 147 152 144 132 109 104 98 99 90 98 107 122 116 112 128 134 127 146 154 151 148 147 152 162 171 165 158 148 137 140 144 165 156 150 141 128 109 100 115 121 113 117 131 110 109 150 167 174 162 155 130 102 73 88 87 33 13 14 9 6 7 6 6 1 0 0 0 0 0 0 0 0 0 0 0 0 0 0 0 0 0 0 0 0 0 0 0 0 0 0 0 0 0 0 0 0 0 0 
0 0 0 0 0 0 0 0 0 0 0 2 2 0 4 9 13 12 15 64 113 107 102 113 135 154 158 155 152 143 143 151 134 128 112 106 103 103 104 110 136 131 128 131 135 141 139 151 145 140 134 136 138 145 150 155 149 138 133 137 141 162 166 169 158 140 134 127 130 106 101 112 117 115 102 136 156 171 150 140 119 103 86 97 73 21 13 12 7 5 1 4 3 0 0 0 0 0 0 0 0 0 0 0 0 0 0 0 0 0 0 0 0 0 0 0 0 0 0 0 0 0 0 0 0 0 0 0 
0 0 0 0 0 0 0 0 0 0 2 5 7 5 5 6 9 11 12 37 88 105 107 118 131 151 157 162 156 154 139 141 129 125 115 116 111 109 113 128 136 146 144 148 153 152 154 162 143 138 136 148 147 145 142 142 141 140 141 140 134 140 153 163 164 156 145 150 140 106 103 104 102 112 119 130 153 164 149 118 105 94 93 84 60 18 12 8 7 5 1 2 2 0 0 0 0 0 0 0 0 0 0 0 0 0 0 0 0 0 0 0 0 0 0 0 0 0 0 0 0 0 0 0 0 0 0 0 
0 0 0 0 0 0 0 0 0 0 0 5 11 11 5 3 8 8 10 27 81 114 121 107 112 131 144 156 150 149 140 130 123 112 106 111 120 116 116 119 122 144 154 157 158 162 169 164 153 139 147 159 158 160 148 143 144 154 147 141 134 133 146 156 166 156 139 142 145 117 91 93 107 123 140 145 153 158 143 103 85 89 97 99 57 16 11 7 5 7 2 2 2 0 0 0 0 0 0 0 0 0 0 0 0 0 0 0 0 0 0 0 0 0 0 0 0 0 0 0 0 0 0 0 0 0 0 0 
0 0 0 0 0 0 0 0 0 0 0 3 11 13 7 6 6 11 15 21 61 107 114 110 104 112 133 136 161 138 124 125 123 99 98 97 102 118 127 122 126 141 153 151 147 156 165 163 152 145 149 154 158 157 152 131 130 140 136 123 118 133 135 159 176 175 157 156 151 116 94 95 102 112 151 161 170 172 149 81 64 75 91 91 38 18 7 5 5 5 5 3 2 2 1 0 0 0 0 0 0 0 0 0 0 0 0 0 0 0 0 0 0 0 0 0 0 0 0 0 0 0 0 0 0 0 0 0 
0 0 0 0 0 0 0 0 0 0 0 4 10 12 7 8 8 14 16 18 30 87 112 99 99 106 128 144 160 146 127 126 126 110 94 97 101 109 107 105 111 132 143 149 147 145 149 152 154 148 145 156 157 162 147 127 128 129 127 107 113 135 143 162 188 182 153 155 145 112 86 88 105 129 159 150 168 155 131 81 70 64 67 60 19 15 11 5 7 5 9 10 7 6 6 0 0 0 0 0 0 0 0 0 0 0 0 0 0 0 0 0 0 0 0 0 0 0 0 0 0 0 0 0 0 0 0 0 
0 0 0 0 0 0 0 0 0 0 0 2 11 11 11 10 10 10 12 15 17 48 101 95 99 100 113 142 160 161 145 131 126 118 94 82 91 100 102 103 111 142 145 139 142 139 141 148 150 134 158 159 147 165 159 136 132 135 134 125 145 158 145 164 175 178 154 156 140 118 118 109 126 140 138 132 120 91 94 71 56 78 90 34 12 8 11 7 7 5 3 4 11 7 2 0 0 0 0 0 0 0 0 0 0 0 0 0 0 0 0 0 0 0 0 0 0 0 0 0 0 0 0 0 0 0 0 0 
0 0 0 0 0 0 0 0 0 0 0 0 10 10 9 7 6 5 10 14 21 30 65 90 84 77 93 136 152 156 163 144 123 116 112 103 101 97 98 112 131 160 167 158 145 141 140 155 171 175 184 174 166 169 169 165 155 155 157 168 166 163 173 181 174 173 159 172 154 152 132 129 129 133 116 87 93 73 88 72 87 89 51 14 7 2 3 7 5 5 4 6 6 4 0 0 0 0 0 0 0 0 0 0 0 0 0 0 0 0 0 0 0 0 0 0 0 0 0 0 0 0 0 0 0 0 0 0 
0 0 0 0 0 0 0 0 0 0 0 0 2 8 4 4 3 2 5 13 14 20 36 73 80 66 81 106 100 133 142 139 136 132 126 111 118 130 150 130 175 164 173 181 170 181 191 188 182 180 181 177 171 166 170 170 167 168 170 176 181 183 190 222 193 185 184 158 123 123 144 155 117 97 71 69 79 81 83 71 68 48 31 18 9 1 2 2 3 1 4 6 6 0 0 0 0 0 0 0 0 0 0 0 0 0 0 0 0 0 0 0 0 0 0 0 0 0 0 0 0 0 0 0 0 0 0 0 
0 0 0 0 0 0 0 0 0 0 0 0 0 4 3 1 3 0 0 7 11 22 26 39 69 84 63 54 58 60 89 86 123 138 136 128 124 146 156 166 160 172 179 188 176 185 193 192 179 154 152 155 144 142 135 126 141 151 154 177 165 164 185 184 171 171 176 158 166 144 134 111 89 80 66 75 76 81 68 38 33 35 43 27 15 1 2 2 1 1 2 8 6 0 0 0 0 0 0 0 0 0 0 0 0 0 0 0 0 0 0 0 0 0 0 0 0 0 0 0 0 0 0 0 0 0 0 0 
0 0 0 0 0 0 0 0 0 0 0 0 0 2 5 4 2 4 3 4 11 13 18 22 37 55 34 42 70 56 72 52 75 80 86 103 83 80 86 79 87 119 137 150 127 129 126 110 119 107 77 82 104 110 102 91 84 94 113 110 105 113 93 168 160 153 117 95 62 61 56 78 64 53 44 77 77 76 47 26 27 28 20 7 2 1 6 4 2 1 1 6 5 0 0 0 0 0 0 0 0 0 0 0 0 0 0 0 0 0 0 0 0 0 0 0 0 0 0 0 0 0 0 0 0 0 0 0 
0 0 0 0 0 0 0 0 0 0 0 0 0 0 4 3 2 2 4 2 7 10 14 15 21 23 24 32 69 56 73 53 56 50 65 83 65 57 59 55 63 70 66 66 92 102 90 76 81 94 73 88 104 104 102 102 80 70 89 88 97 112 95 77 68 81 103 85 86 99 72 55 45 49 40 78 79 76 44 27 28 26 15 7 3 1 2 3 2 3 3 5 1 0 0 0 0 0 0 0 0 0 0 0 0 0 0 0 0 0 0 0 0 0 0 0 0 0 0 0 0 0 0 0 0 0 0 0 
0 0 0 0 0 0 0 0 0 0 0 0 0 0 0 0 0 1 0 0 4 9 10 16 20 25 24 35 66 65 72 65 65 50 62 94 89 76 114 129 124 119 101 96 111 113 107 107 119 108 80 92 105 97 98 105 101 99 108 114 121 122 103 83 112 141 131 96 88 99 96 74 70 69 64 82 82 75 40 30 30 22 13 10 1 0 0 0 0 2 2 1 0 0 0 0 0 0 0 0 0 0 0 0 0 0 0 0 0 0 0 0 0 0 0 0 0 0 0 0 0 0 0 0 0 0 0 0 
0 0 0 0 0 0 0 0 0 0 0 0 0 0 0 0 0 0 0 0 0 3 7 8 16 29 31 29 62 76 77 78 82 87 96 118 97 106 114 156 149 173 166 158 165 175 167 174 175 154 131 132 128 129 121 122 122 116 107 119 138 146 139 127 138 138 132 140 94 117 102 87 68 72 69 81 77 74 44 32 27 18 10 5 0 0 0 0 0 0 0 0 0 0 0 0 0 0 0 0 0 0 0 0 0 0 0 0 0 0 0 0 0 0 0 0 0 0 0 0 0 0 0 0 0 0 0 0 
0 0 0 0 0 0 0 0 0 0 0 0 0 0 0 0 0 0 0 0 0 1 3 7 11 24 30 30 50 70 60 67 81 95 123 115 106 90 107 139 166 184 177 179 162 174 166 177 186 166 167 164 151 154 158 158 158 141 135 160 166 176 183 168 174 150 140 85 126 106 100 113 82 85 78 97 89 59 40 15 13 8 4 1 0 0 0 1 0 0 0 0 0 0 0 0 0 0 0 0 0 0 0 0 0 0 0 0 0 0 0 0 0 0 0 0 0 0 0 0 0 0 0 0 0 0 0 0 
0 0 0 0 0 0 0 0 0 0 0 0 0 0 0 0 0 0 0 0 0 0 1 6 8 16 19 36 51 74 72 69 68 76 101 93 78 81 93 117 122 109 119 114 120 135 158 173 166 157 144 135 138 134 136 139 144 141 138 137 136 146 139 143 136 144 146 139 142 130 90 72 45 48 50 84 74 35 17 16 16 8 4 0 1 2 3 3 2 1 0 0 0 0 0 0 0 0 0 0 0 0 0 0 0 0 0 0 0 0 0 0 0 0 0 0 0 0 0 0 0 0 0 0 0 0 0 0 
0 0 0 0 0 0 0 0 0 0 0 0 0 0 0 0 0 0 0 0 0 0 4 7 8 16 18 23 32 55 68 63 60 57 79 73 57 69 66 103 101 100 106 90 79 88 120 126 131 112 111 88 112 106 97 93 104 121 112 107 104 116 117 101 116 109 133 129 122 117 105 86 63 64 71 98 88 42 21 17 19 14 6 0 0 0 2 3 2 1 0 0 0 0 0 0 0 0 0 0 0 0 0 0 0 0 0 0 0 0 0 0 0 0 0 0 0 0 0 0 0 0 0 0 0 0 0 0 
0 0 0 0 0 0 0 0 0 0 0 0 0 0 0 0 0 0 0 0 0 0 1 7 9 13 17 21 23 45 57 73 67 61 72 49 43 59 78 90 88 99 98 93 104 108 114 113 121 106 105 88 100 98 92 93 110 116 113 109 101 112 92 71 80 106 126 139 147 111 81 72 73 69 92 105 85 44 25 18 17 11 8 0 0 0 2 3 2 1 0 0 0 0 0 0 0 0 0 0 0 0 0 0 0 0 0 0 0 0 0 0 0 0 0 0 0 0 0 0 0 0 0 0 0 0 0 0 
0 0 0 0 0 0 0 0 0 0 0 0 0 0 0 0 0 0 0 0 0 0 1 5 9 9 14 22 22 40 46 74 70 64 74 41 41 57 79 93 84 93 96 91 98 93 98 123 115 110 111 103 109 101 98 98 108 103 106 105 108 129 115 96 99 95 105 120 104 90 72 48 53 53 91 108 84 48 24 19 16 10 5 0 0 0 1 2 2 1 0 0 0 0 0 0 0 0 0 0 0 0 0 0 0 0 0 0 0 0 0 0 0 0 0 0 0 0 0 0 0 0 0 0 0 0 0 0 
0 0 0 0 0 0 0 0 0 0 0 0 0 0 0 0 0 0 0 0 0 0 0 3 7 9 12 19 21 36 39 72 73 73 81 49 47 52 59 64 73 86 90 90 93 93 94 110 135 131 123 112 107 99 105 106 108 97 93 105 131 158 142 104 106 99 93 114 108 94 69 51 64 63 85 111 82 57 24 19 16 10 3 0 0 0 1 2 2 2 0 0 0 0 0 0 0 0 0 0 0 0 0 0 0 0 0 0 0 0 0 0 0 0 0 0 0 0 0 0 0 0 0 0 0 0 0 0 
0 0 0 0 0 0 0 0 0 0 0 0 0 0 0 0 0 0 0 0 0 0 0 0 7 6 10 15 21 31 38 65 80 77 87 56 47 46 53 70 70 80 81 100 103 95 87 94 119 137 125 113 107 112 106 108 117 99 104 105 112 116 125 104 98 117 88 83 95 99 77 57 62 83 87 103 74 50 27 18 15 8 2 0 0 0 2 3 3 2 1 0 0 0 0 0 0 0 0 0 0 0 0 0 0 0 0 0 0 0 0 0 0 0 0 0 0 0 0 0 0 0 0 0 0 0 0 0 
0 0 0 0 0 0 0 0 0 0 0 0 0 0 0 0 0 0 0 0 0 0 0 0 1 6 8 11 17 26 50 66 77 76 84 61 52 49 63 71 66 65 74 104 110 94 90 94 87 113 109 109 114 117 100 98 107 102 103 92 102 96 99 108 102 120 102 72 66 74 79 66 60 88 96 100 80 42 20 15 16 8 2 0 0 0 1 2 3 2 1 0 0 0 0 0 0 0 0 0 0 0 0 0 0 0 0 0 0 0 0 0 0 0 0 0 0 0 0 0 0 0 0 0 0 0 0 0 
0 0 0 0 0 0 0 0 0 0 0 0 0 0 0 0 0 0 0 0 0 0 0 0 1 4 7 11 15 19 31 46 63 70 74 65 60 57 63 60 52 68 74 89 108 94 93 88 73 101 103 95 106 106 103 106 110 110 89 79 105 102 88 90 86 102 97 73 67 57 67 73 70 82 106 85 46 20 15 16 15 8 2 0 0 0 1 2 2 2 1 0 0 0 0 0 0 0 0 0 0 0 0 0 0 0 0 0 0 0 0 0 0 0 0 0 0 0 0 0 0 0 0 0 0 0 0 0 
0 0 0 0 0 0 0 0 0 0 0 0 0 0 0 0 0 0 0 0 0 0 0 0 0 3 4 8 15 18 20 28 41 43 65 74 62 60 69 56 50 71 71 71 104 85 90 85 75 107 111 88 91 104 112 108 108 111 96 76 97 95 82 87 81 99 95 70 73 53 67 79 72 84 91 43 19 15 16 16 16 7 1 0 0 0 1 2 3 2 1 0 0 0 0 0 0 0 0 0 0 0 0 0 0 0 0 0 0 0 0 0 0 0 0 0 0 0 0 0 0 0 0 0 0 0 0 0 
0 0 0 0 0 0 0 0 0 0 0 0 0 0 0 0 0 0 0 0 0 0 0 0 0 0 5 4 11 17 19 18 15 18 36 72 67 71 92 62 48 63 59 65 88 66 73 83 76 103 100 90 86 93 95 98 108 106 91 83 99 96 88 94 78 87 92 57 69 53 77 106 84 92 71 25 15 15 16 17 14 6 1 0 0 0 1 2 3 2 1 0 0 0 0 0 0 0 0 0 0 0 0 0 0 0 0 0 0 0 0 0 0 0 0 0 0 0 0 0 0 0 0 0 0 0 0 0 
0 0 0 0 0 0 0 0 0 0 0 0 0 0 0 0 0 0 0 0 0 0 0 0 0 0 1 4 8 13 18 17 15 16 17 38 74 85 91 55 55 69 53 77 94 59 69 84 89 98 94 95 100 100 95 88 101 102 97 90 108 109 104 97 79 81 108 68 72 64 69 108 94 76 39 21 14 14 17 17 13 6 1 0 0 0 0 1 2 2 1 0 0 0 0 0 0 0 0 0 0 0 0 0 0 0 0 0 0 0 0 0 0 0 0 0 0 0 0 0 0 0 0 0 0 0 0 0 
0 0 0 0 0 0 0 0 0 0 0 0 0 0 0 0 0 0 0 0 0 0 0 0 0 0 0 3 6 9 16 16 16 15 15 12 31 56 77 72 68 68 60 89 103 76 77 85 89 106 98 87 94 94 86 85 98 116 113 104 123 121 93 81 77 80 110 86 74 83 80 92 65 36 25 17 12 15 17 15 13 6 1 0 0 0 0 1 2 2 1 0 0 0 0 0 0 0 0 0 0 0 0 0 0 0 0 0 0 0 0 0 0 0 0 0 0 0 0 0 0 0 0 0 0 0 0 0 
0 0 0 0 0 0 0 0 0 0 0 0 0 0 0 0 0 0 0 0 0 0 0 0 0 0 0 2 6 6 13 16 18 18 14 16 16 29 60 85 72 77 84 97 110 98 84 79 82 107 102 86 97 92 86 91 100 106 113 110 113 111 102 87 80 89 117 105 87 88 90 74 34 26 22 16 13 16 15 16 12 6 1 0 0 0 0 1 2 2 1 0 0 0 0 0 0 0 0 0 0 0 0 0 0 0 0 0 0 0 0 0 0 0 0 0 0 0 0 0 0 0 0 0 0 0 0 0 
0 0 0 0 0 0 0 0 0 0 0 0 0 0 0 0 0 0 0 0 0 0 0 0 0 0 0 0 5 7 9 15 17 19 18 15 18 20 29 53 70 82 92 97 112 106 89 92 106 114 101 86 92 98 98 101 107 105 118 118 111 112 124 104 89 97 114 107 93 80 64 36 27 25 20 15 15 14 15 14 11 5 1 0 0 0 0 1 2 2 2 0 0 0 0 0 0 0 0 0 0 0 0 0 0 0 0 0 0 0 0 0 0 0 0 0 0 0 0 0 0 0 0 0 0 0 0 0 
0 0 0 0 0 0 0 0 0 0 0 0 0 0 0 0 0 0 0 0 0 0 0 0 0 0 0 0 1 8 6 13 17 18 19 13 15 19 26 29 42 64 77 80 106 108 93 99 108 112 100 101 103 98 96 94 96 105 119 124 117 101 114 118 105 103 108 86 75 50 31 30 26 24 19 14 13 13 14 12 10 5 1 0 0 0 0 1 3 3 2 0 0 0 0 0 0 0 0 0 0 0 0 0 0 0 0 0 0 0 0 0 0 0 0 0 0 0 0 0 0 0 0 0 0 0 0 0 
0 0 0 0 0 0 0 0 0 0 0 0 0 0 0 0 0 0 0 0 0 0 0 0 0 0 0 0 0 8 6 10 13 18 18 14 12 19 26 28 30 33 36 52 84 107 94 101 108 102 107 112 102 96 92 94 90 100 114 115 117 107 108 114 108 110 91 54 40 33 28 30 25 23 18 14 12 13 14 11 9 5 1 0 0 0 0 1 2 2 1 0 0 0 0 0 0 0 0 0 0 0 0 0 0 0 0 0 0 0 0 0 0 0 0 0 0 0 0 0 0 0 0 0 0 0 0 0 
0 0 0 0 0 0 0 0 0 0 0 0 0 0 0 0 0 0 0 0 0 0 0 0 0 0 0 0 0 4 6 9 11 17 19 14 11 19 25 28 30 34 30 39 56 73 87 93 86 81 103 116 101 97 101 102 99 103 116 122 122 96 88 95 102 82 61 54 41 30 27 28 27 23 15 14 14 13 13 11 9 4 1 0 0 0 0 1 2 2 2 0 0 0 0 0 0 0 0 0 0 0 0 0 0 0 0 0 0 0 0 0 0 0 0 0 0 0 0 0 0 0 0 0 0 0 0 0 
