P2
128 99
217
0 0 0 0 0 0 0 0 0 0 0 0 0 0 0 0 0 0 0 0 0 0 0 0 0 0 0 0 0 0 0 0 1 1 0 0 0 0 0 0 0 0 0 0 0 0 0 0 0 0 0 0 0 0 0 0 0 0 0 0 0 0 0 0 0 0 0 0 0 0 0 0 0 0 0 0 0 0 0 0 0 0 0 0 0 0 0 0 0 0 0 0 0 1 1 1 2 0 0 0 0 0 0 0 0 0 0 0 0 0 0 0 0 0 0 0 0 0 0 0 0 0 0 0 0 0 0 0 
0 0 0 0 0 0 0 0 0 0 0 0 0 0 0 0 0 0 0 0 0 0 0 0 0 0 0 0 0 0 0 0 0 1 0 0 0 1 0 0 0 0 0 0 0 0 0 0 0 0 0 0 0 0 0 0 0 0 0 0 0 0 0 0 0 0 0 0 0 0 0 0 0 0 0 0 0 0 0 0 0 0 0 0 0 0 0 0 0 0 0 0 0 1 1 1 1 0 0 0 0 0 0 0 0 0 0 0 0 0 0 0 0 0 0 0 0 0 0 0 0 0 0 0 0 0 0 0 
0 0 0 0 0 0 0 0 0 0 0 0 0 0 0 0 0 0 0 0 0 0 0 0 0 0 0 0 0 0 0 0 0 1 0 0 0 0 0 0 0 0 0 0 0 0 0 0 0 0 1 2 2 2 1 0 0 0 0 0 0 0 0 0 0 0 0 0 0 0 0 0 0 0 0 0 0 0 0 0 0 0 0 0 0 0 0 0 0 0 0 0 0 1 1 1 1 0 0 0 0 0 0 0 0 0 0 0 0 0 0 0 0 0 0 0 0 0 0 0 0 0 0 0 0 0 0 0 
0 0 0 0 0 0 0 0 0 0 0 0 0 0 0 0 0 0 0 0 0 0 0 0 0 0 0 0 0 0 0 0 0 1 0 0 0 0 0 0 0 0 0 1 7 13 17 18 18 19 22 25 28 27 25 21 18 16 14 12 4 0 0 0 0 0 0 0 0 0 0 0 0 0 0 0 0 0 0 0 0 0 0 0 0 0 0 0 0 0 0 0 0 1 1 1 1 0 0 0 0 0 0 0 0 0 0 0 0 0 0 0 0 0 0 0 0 0 0 0 0 0 0 0 0 0 0 0 
0 0 0 0 0 0 0 0 0 0 0 0 0 0 0 0 0 0 0 0 0 0 0 0 0 0 0 0 0 0 0 0 0 0 0 0 0 0 0 0 6 13 19 23 24 33 54 78 102 123 141 152 157 158 154 143 127 105 80 54 33 22 17 10 2 0 0 0 0 0 0 0 0 0 0 0 0 0 0 0 0 0 0 0 0 0 0 0 0 0 0 0 0 1 1 1 1 0 0 0 0 0 0 0 0 0 0 0 0 0 0 0 0 0 0 0 0 0 0 0 0 0 0 0 0 0 0 0 
0 0 0 0 0 0 0 0 0 0 0 0 0 0 0 0 0 0 0 0 0 0 0 0 0 0 0 0 0 0 0 0 0 0 0 0 0 1 9 17 24 25 36 68 113 153 176 187 192 195 196 195 193 192 194 194 193 191 185 175 154 120 80 44 24 16 10 1 0 0 0 0 0 0 0 0 0 0 0 0 0 0 0 0 0 0 0 0 0 0 0 0 0 1 1 1 1 0 0 0 0 0 0 0 0 0 0 0 0 0 0 0 0 0 0 0 0 0 0 0 0 0 0 0 0 0 0 0 
0 0 0 0 0 0 0 0 0 0 0 0 0 0 0 0 0 0 0 0 0 0 0 0 0 0 0 0 0 0 0 0 0 0 0 0 9 22 24 26 52 104 155 183 194 196 197 197 200 202 204 205 205 205 205 205 203 200 197 195 194 189 180 160 125 77 39 18 13 2 0 0 0 0 0 0 0 0 0 0 0 0 0 0 0 0 0 0 0 0 0 0 0 1 1 1 1 0 0 0 0 0 0 0 0 0 0 0 0 0 0 0 0 0 0 0 0 0 0 0 0 0 0 0 0 0 0 0 
0 0 0 0 0 0 0 0 0 0 0 0 0 0 0 0 0 0 0 0 0 0 0 0 0 0 0 0 0 0 0 0 0 0 8 24 25 26 63 127 173 190 195 197 199 202 200 194 188 184 187 194 192 179 177 190 204 210 208 204 201 197 196 195 191 178 152 102 49 23 14 1 0 0 0 0 0 0 0 0 0 0 0 0 0 0 0 0 0 0 0 0 0 1 1 1 2 0 0 0 0 0 0 0 0 0 0 0 0 0 0 0 0 0 0 0 0 0 0 0 0 0 0 0 0 0 0 0 
0 0 0 0 0 0 0 0 0 0 0 0 0 0 0 0 0 0 0 0 0 0 0 0 0 0 0 0 0 0 0 0 5 27 25 23 59 131 177 190 191 195 199 203 200 191 182 170 161 158 159 161 158 151 152 157 166 185 205 213 211 206 203 199 196 195 194 186 160 104 46 23 10 0 0 0 0 0 0 0 0 0 0 0 0 0 0 0 0 0 0 0 0 1 1 1 1 0 0 0 0 0 0 0 0 0 0 0 0 0 0 0 0 0 0 0 0 0 0 0 0 0 0 0 0 0 0 0 
0 0 0 0 0 0 0 0 0 0 0 0 0 0 0 0 0 0 0 0 0 0 0 0 0 0 0 0 0 0 0 24 26 22 41 114 174 188 189 193 197 203 199 184 169 164 157 147 142 139 143 151 151 148 151 153 156 158 171 190 209 214 213 210 205 201 197 196 195 186 152 81 31 19 2 0 0 0 0 0 0 0 0 0 0 0 0 0 0 0 0 0 0 1 1 1 2 0 0 0 0 0 0 0 0 0 0 0 0 0 0 0 0 0 0 0 0 0 0 0 0 0 0 0 0 0 0 0 
0 0 0 0 0 0 0 0 0 0 0 0 0 0 0 0 0 0 0 0 0 0 0 0 0 0 0 0 0 10 28 22 26 85 162 186 189 192 196 202 205 194 175 169 164 156 149 143 139 137 137 142 141 140 145 149 150 149 152 160 176 196 210 216 215 210 206 202 197 197 195 179 123 46 23 6 0 0 0 0 0 0 0 0 0 0 0 0 0 1 0 0 0 1 1 1 2 0 0 0 0 0 0 0 0 0 0 0 0 0 0 0 0 0 0 0 0 0 0 0 0 0 0 0 0 0 0 0 
0 0 0 0 0 0 0 0 0 0 0 0 0 0 0 0 0 0 0 0 0 0 0 0 0 0 0 0 22 25 18 48 135 181 186 191 198 202 206 201 185 175 168 162 158 155 151 147 145 142 135 137 135 134 145 151 151 150 152 155 161 173 189 202 212 217 215 210 206 202 200 197 190 155 69 24 11 0 0 0 0 0 0 0 0 0 0 0 0 1 0 0 0 1 1 1 2 0 0 0 0 0 0 0 0 0 0 0 0 0 0 0 0 0 0 0 0 0 0 0 0 0 0 0 0 0 0 0 
0 0 0 0 0 0 0 0 0 0 0 0 0 0 0 0 0 0 0 0 0 0 0 0 0 0 5 26 21 19 77 162 184 190 196 202 207 207 194 180 174 169 162 159 154 152 152 149 149 142 132 130 128 128 139 148 148 150 152 153 156 166 176 184 194 205 213 217 215 209 204 200 196 190 166 87 25 13 0 0 0 0 0 0 0 0 0 0 0 1 0 0 0 1 1 1 2 1 0 0 0 0 0 0 0 0 0 0 0 0 0 0 0 0 0 0 0 0 0 0 0 0 0 0 0 0 0 0 
0 0 0 0 0 0 0 0 0 0 0 0 0 0 0 0 0 0 0 0 0 0 0 0 0 10 25 18 26 103 172 184 194 201 206 210 203 187 178 171 168 164 158 154 151 151 152 151 142 137 127 126 123 124 129 140 151 153 155 156 156 158 165 173 179 185 194 205 213 216 212 206 200 194 190 172 96 27 14 0 0 0 0 0 0 0 0 0 0 0 0 0 0 1 1 1 2 1 0 0 0 0 0 0 0 0 0 0 0 0 0 0 0 0 0 0 0 0 0 0 0 0 0 0 0 0 0 0 
0 0 0 0 0 0 0 0 0 0 0 0 0 0 0 0 0 0 0 0 0 0 0 0 14 23 16 34 120 174 185 197 204 210 206 194 181 175 172 168 164 160 159 155 150 148 141 133 132 127 124 123 120 124 125 126 135 147 151 151 151 152 156 162 166 172 177 182 190 202 211 214 209 201 194 191 176 107 30 13 0 0 0 0 0 0 0 0 0 1 0 0 0 1 1 1 2 1 0 0 0 0 0 0 0 0 0 0 0 0 0 0 0 0 0 0 0 0 0 0 0 0 0 0 0 0 0 0 
0 0 0 0 0 0 0 0 0 0 0 0 0 0 0 0 0 0 0 0 0 0 3 19 20 15 45 132 171 186 199 206 209 198 183 175 172 171 168 164 160 155 149 142 138 130 125 125 122 122 122 120 117 123 125 125 125 128 138 146 147 147 148 154 161 163 166 168 172 179 190 204 211 209 202 194 191 178 120 36 12 0 0 0 0 0 0 0 0 1 0 0 0 1 1 1 2 1 0 0 0 0 0 0 0 0 0 0 0 0 0 0 0 0 0 0 0 0 0 0 0 0 0 0 0 0 0 0 
0 0 0 0 0 0 0 0 0 0 0 0 0 0 0 0 0 0 0 0 0 5 17 17 16 58 142 170 188 200 208 206 188 176 170 169 166 165 163 159 153 145 140 137 128 122 122 119 121 121 121 116 115 122 124 125 125 125 126 130 133 135 139 144 150 153 156 161 166 169 171 178 194 207 208 202 197 191 177 128 39 9 0 0 0 0 0 0 0 1 0 0 0 1 1 1 2 1 0 0 0 0 0 0 0 0 0 0 0 0 0 0 0 0 0 0 0 0 0 0 0 0 0 0 0 0 0 0 
0 0 0 0 0 0 0 0 0 0 0 0 0 0 0 0 0 0 0 0 7 16 15 18 72 151 171 188 203 209 201 177 167 167 167 162 156 152 150 148 145 142 135 127 122 121 117 120 121 120 118 111 111 121 121 123 124 125 124 127 129 131 133 136 140 143 145 149 152 157 160 164 170 186 200 205 202 197 190 178 133 37 6 0 0 0 0 0 0 0 0 0 0 1 1 1 2 1 0 0 0 0 0 0 0 0 0 0 0 0 0 0 0 0 0 0 0 0 0 0 0 0 0 0 0 0 0 0 
0 0 0 0 0 0 0 0 0 0 0 0 0 0 0 0 0 0 0 6 16 13 20 80 154 171 186 200 208 197 172 162 163 161 157 151 147 146 141 135 131 127 125 122 122 120 117 119 118 114 116 108 110 119 120 122 123 124 123 124 126 126 127 129 129 130 135 142 147 149 148 151 157 164 179 196 205 203 198 188 176 125 29 3 0 0 0 0 0 1 0 0 0 1 1 2 2 1 0 0 0 0 0 0 0 0 0 0 0 0 0 0 0 0 0 0 0 0 0 0 0 0 0 0 0 0 0 0 
0 0 0 0 0 0 0 0 0 0 0 0 0 0 0 0 0 0 5 16 13 20 85 155 169 182 197 205 191 168 162 159 157 155 149 141 137 134 130 126 125 122 121 122 118 114 115 116 114 114 111 106 109 120 120 120 121 122 122 123 122 123 122 122 124 124 129 133 142 147 145 144 147 152 161 173 191 205 203 195 184 171 109 20 2 0 0 0 0 1 0 0 0 1 1 2 2 1 0 0 0 0 0 0 0 0 0 0 0 0 0 0 0 0 0 0 0 0 0 0 0 0 0 0 0 0 0 0 
0 0 0 0 0 0 0 0 0 0 0 0 0 0 0 0 0 2 15 13 19 82 151 165 178 194 205 188 166 159 156 152 150 146 138 132 130 128 125 124 121 119 118 115 113 113 113 112 114 110 103 103 106 116 118 118 120 119 119 121 123 121 119 118 118 121 124 131 135 137 141 141 143 146 152 159 169 187 205 201 192 179 161 84 11 0 0 0 0 1 0 0 0 1 1 2 2 1 0 0 0 0 0 0 0 0 0 0 0 0 0 0 0 0 0 0 0 0 0 0 0 0 0 0 0 0 0 0 
0 0 0 0 0 0 0 0 0 0 0 0 0 0 0 0 0 11 12 16 74 145 160 173 189 202 187 164 158 154 150 146 145 140 129 127 126 124 123 121 116 113 112 113 112 111 109 109 110 102 101 104 105 109 113 115 117 116 117 119 120 117 117 116 114 115 120 125 130 133 132 134 135 139 145 151 158 165 189 205 200 189 173 145 54 4 0 0 0 0 0 0 0 1 1 2 2 1 0 0 0 0 0 0 0 0 0 0 0 0 0 0 0 0 0 0 0 0 0 0 0 0 0 0 0 0 0 0 
0 0 0 0 0 0 0 0 0 0 0 0 0 0 0 0 6 12 14 60 136 154 168 185 198 188 162 156 152 146 143 140 134 128 126 125 125 124 120 115 112 111 112 111 110 107 107 106 103 100 101 104 105 109 109 108 111 111 109 109 111 113 114 112 111 110 113 123 125 128 128 128 130 132 136 143 149 154 160 191 205 197 183 164 119 25 1 0 0 1 0 0 0 1 1 2 2 1 0 0 0 0 0 0 0 0 0 0 0 0 0 0 0 0 0 0 0 0 0 0 0 0 0 0 0 0 0 0 
0 0 0 0 0 0 0 0 0 0 0 0 0 0 0 2 12 13 47 125 149 163 179 194 190 162 152 149 145 144 137 132 129 129 127 124 121 117 113 111 107 102 100 100 102 102 103 105 105 103 108 106 105 108 105 104 106 106 106 106 107 109 110 109 109 110 110 112 120 124 124 123 124 129 133 138 148 149 150 163 196 202 190 175 151 80 7 0 0 1 0 0 0 1 1 2 2 1 0 0 0 0 0 0 0 0 0 0 0 0 0 0 0 0 0 0 0 0 0 0 0 0 0 0 0 0 0 0 
0 0 0 0 0 0 0 0 0 0 0 0 0 0 0 7 11 26 104 140 156 172 189 190 167 151 146 143 143 141 133 128 127 124 122 118 115 112 110 104 99 99 101 102 101 102 104 104 105 105 110 108 104 105 103 103 103 103 103 105 105 105 108 108 109 109 111 111 115 119 120 121 122 123 130 136 144 145 146 148 172 197 195 182 164 125 31 1 0 1 0 0 0 1 1 2 2 1 0 0 0 0 0 0 0 0 0 0 0 0 0 0 0 0 0 0 0 0 0 0 0 0 0 0 0 0 0 0 
0 0 0 0 0 0 0 0 0 0 0 0 0 0 2 9 13 75 132 148 163 181 185 174 151 142 140 140 142 138 131 125 123 123 120 114 112 109 104 100 100 101 102 102 101 101 104 103 103 104 110 109 105 108 104 103 103 104 103 103 103 106 106 107 106 108 108 109 111 115 117 121 121 123 126 134 141 141 141 140 150 182 194 186 171 146 70 4 0 1 0 0 1 1 1 2 2 1 0 0 0 0 0 0 0 0 0 0 0 0 0 0 0 0 0 0 0 0 0 0 0 0 0 0 0 0 0 0 
0 0 0 0 0 0 0 0 0 0 0 0 0 0 6 9 40 116 139 154 174 180 171 161 141 136 138 140 140 134 128 123 121 119 115 108 107 106 104 101 101 101 100 100 102 104 105 105 102 104 112 113 109 108 99 100 104 104 103 102 100 102 105 105 105 105 105 107 109 111 112 119 122 120 124 133 141 140 138 133 139 165 185 188 176 157 109 17 1 1 0 0 1 1 1 2 2 1 0 0 0 0 0 0 0 0 0 0 0 0 0 0 0 0 0 0 0 0 0 0 0 0 0 0 0 0 0 0 
0 0 0 0 0 0 0 0 0 0 0 0 0 0 7 15 85 128 146 162 179 167 164 146 134 134 136 139 136 131 122 117 117 117 112 106 107 105 102 101 100 99 101 101 101 104 105 105 106 103 106 111 111 104 97 97 98 104 104 102 100 101 102 104 106 108 107 107 108 110 112 115 121 121 124 131 139 140 135 130 132 156 174 184 179 163 132 39 2 1 0 0 0 1 1 2 2 1 0 0 0 0 0 0 0 0 0 0 0 0 0 0 0 0 0 0 0 0 0 0 0 0 0 0 0 0 0 0 
0 0 0 0 0 0 0 0 0 0 0 0 0 3 7 37 113 136 151 171 173 162 156 136 131 131 134 137 133 125 121 119 117 115 109 108 106 102 100 100 100 99 100 100 101 103 106 107 106 101 100 103 110 100 95 94 98 101 98 101 102 102 101 102 105 108 108 109 110 109 110 113 120 120 122 131 138 137 131 127 126 150 166 183 180 167 142 62 3 1 0 0 0 1 1 2 2 1 0 0 0 0 0 0 0 0 0 0 0 0 0 0 0 0 0 0 0 0 0 0 0 0 0 0 0 0 0 0 
0 0 0 0 0 0 0 0 0 0 0 0 0 4 9 69 125 140 157 175 160 154 146 131 130 128 131 132 126 123 123 120 118 111 106 107 106 103 102 101 101 101 100 101 103 103 103 104 104 101 99 100 107 100 95 95 96 96 95 96 97 102 102 103 105 107 109 111 112 112 110 112 118 119 121 131 137 130 127 125 121 143 160 179 182 168 149 83 6 1 1 0 1 1 1 2 2 1 0 0 0 0 0 0 0 0 0 0 0 0 0 0 0 0 0 0 0 0 0 0 0 0 0 0 0 0 0 0 
0 0 0 0 0 0 0 0 0 0 0 0 0 6 17 96 130 147 166 167 146 145 139 126 126 125 127 128 120 122 122 121 118 110 109 109 107 103 101 102 104 100 99 99 104 102 99 102 103 99 97 98 106 99 96 96 96 97 98 97 96 98 102 106 107 108 111 112 113 113 113 114 117 118 120 127 132 128 124 123 120 137 154 175 182 169 152 100 11 1 1 0 0 1 1 2 2 1 0 0 0 0 0 0 0 0 0 0 0 0 0 0 0 0 0 0 0 0 0 0 0 0 0 0 0 0 0 0 
0 0 0 0 0 0 0 0 0 0 0 0 1 6 34 114 135 154 167 151 137 139 136 126 121 121 122 124 118 120 121 119 117 113 110 109 106 102 104 103 99 98 98 99 100 99 99 100 101 98 97 97 105 98 96 95 96 97 97 100 101 102 101 105 110 110 112 113 114 113 115 116 117 118 120 125 126 126 121 118 118 135 157 172 182 173 156 116 16 1 1 0 1 1 1 2 2 1 0 0 0 0 0 0 0 0 0 0 0 0 0 0 0 0 0 0 0 0 0 0 0 0 0 0 0 0 0 0 
0 0 0 0 0 0 0 0 0 0 0 0 2 6 50 122 140 159 159 141 132 135 136 124 116 117 119 122 117 116 119 118 116 113 109 111 107 104 101 96 96 97 97 97 97 100 99 96 97 97 96 99 99 96 95 93 93 94 96 99 101 102 102 102 108 113 112 117 118 117 116 116 117 118 120 124 120 120 118 114 114 132 154 167 183 176 160 129 26 1 1 0 1 1 1 2 2 1 0 0 0 0 0 0 0 0 0 0 0 0 0 0 0 0 0 0 0 0 0 0 0 0 0 0 0 0 0 0 
0 0 0 0 0 0 0 0 0 0 0 0 2 7 64 127 146 162 153 137 129 135 137 122 113 112 117 120 115 112 118 118 115 114 113 112 108 105 100 94 95 96 95 96 97 97 97 95 94 94 99 102 99 95 93 90 90 93 94 96 99 100 102 102 104 108 111 113 119 119 118 118 118 118 119 123 115 112 116 115 114 133 155 168 184 181 164 140 38 2 0 0 1 1 1 2 2 1 0 0 0 0 0 0 0 0 0 0 0 0 0 0 0 0 0 0 0 0 0 0 0 0 0 0 0 0 0 0 
0 0 0 0 0 0 0 0 0 0 0 0 3 9 74 131 150 160 152 141 131 135 135 123 114 110 115 116 108 110 119 117 116 114 112 114 109 107 108 99 98 96 94 96 95 94 94 95 94 93 98 102 99 94 91 91 88 90 92 95 96 99 100 99 99 107 111 117 123 123 121 120 120 120 120 123 112 109 113 111 114 138 156 168 183 183 169 150 50 3 1 0 1 1 1 2 2 1 0 0 0 0 0 0 0 0 0 0 0 0 0 0 0 0 0 0 0 0 0 0 0 0 0 0 0 0 0 0 
0 0 0 0 0 0 0 0 0 0 0 0 3 11 82 136 156 163 152 143 135 135 136 125 115 110 114 112 105 110 121 117 116 116 114 116 114 111 113 115 112 105 98 98 97 97 97 97 94 94 98 100 101 94 93 92 89 87 91 93 95 99 99 99 104 111 117 122 123 124 126 125 124 122 122 128 115 110 110 109 117 140 154 166 184 185 173 158 63 4 0 0 1 1 1 2 2 1 0 0 0 0 0 0 0 0 0 0 0 0 0 0 0 0 0 0 0 0 0 0 0 0 0 0 0 0 0 0 
0 0 0 0 0 0 0 0 0 0 0 0 4 12 87 139 159 167 155 147 140 138 138 127 118 112 112 110 104 109 123 119 118 119 122 119 111 102 98 98 95 96 102 104 102 99 98 98 96 97 100 99 104 96 93 93 89 85 89 91 93 98 104 108 103 99 97 98 101 105 111 119 129 134 129 132 127 114 110 113 125 140 152 161 182 188 175 160 78 6 1 0 1 1 1 2 2 1 0 0 0 0 0 0 0 0 0 0 0 0 0 0 0 0 0 0 0 0 0 0 0 0 0 0 0 0 0 0 
0 0 0 0 0 0 0 0 0 0 0 0 5 13 90 143 162 168 153 148 145 142 140 130 121 115 111 105 103 114 126 120 125 127 115 107 98 88 83 85 86 85 86 92 98 106 103 98 93 93 97 99 106 101 95 93 89 85 87 88 96 106 102 96 93 90 93 93 93 96 99 102 111 128 140 140 140 125 114 121 129 140 147 156 177 189 179 163 92 8 1 0 1 1 1 2 2 1 0 0 0 0 0 0 0 0 0 0 0 0 0 0 0 0 0 0 0 0 0 0 0 0 0 0 0 0 0 0 
0 0 0 0 0 0 0 0 0 0 0 0 6 14 94 147 165 166 154 148 144 142 143 138 130 121 114 104 105 121 129 127 130 114 100 93 89 85 83 87 86 84 84 86 89 95 102 103 94 94 97 100 104 104 99 95 89 86 86 93 104 94 91 90 91 95 97 97 99 102 101 99 101 112 136 152 148 138 125 127 132 135 140 149 165 187 181 166 106 11 1 0 1 1 1 2 2 1 0 0 0 0 0 0 0 0 0 0 0 0 0 0 0 0 0 0 0 0 0 0 0 0 0 0 0 0 0 0 
0 0 0 0 0 0 0 0 0 0 0 0 7 14 97 150 164 167 152 146 141 139 138 138 135 125 120 113 110 126 135 135 114 97 93 91 88 87 90 92 91 87 84 86 90 94 95 102 97 97 100 102 108 110 109 101 93 90 87 102 96 87 87 87 92 96 98 101 101 104 106 107 109 116 130 154 153 144 136 132 129 130 134 142 155 180 182 167 120 16 1 0 1 1 1 2 2 1 0 0 0 0 0 0 0 0 0 0 0 0 0 0 0 0 0 0 0 0 0 0 0 0 0 0 0 0 0 0 
0 0 0 0 0 0 0 0 0 0 0 0 7 15 98 151 168 168 147 141 138 138 133 131 132 129 124 122 130 131 140 128 101 94 91 90 88 89 91 90 90 89 87 86 88 90 96 99 101 99 105 111 118 116 120 106 97 91 90 104 88 82 81 86 93 97 100 103 103 107 108 107 114 126 132 138 147 143 144 133 127 124 128 135 145 172 182 167 131 24 1 0 1 1 1 2 2 1 0 0 0 0 0 0 0 0 0 0 0 0 0 0 0 0 0 0 0 0 0 0 0 0 0 0 0 0 0 0 
0 0 0 0 0 0 0 0 0 0 0 0 7 15 101 154 170 169 139 135 136 134 132 126 128 130 125 121 134 140 146 126 111 102 99 95 92 91 88 87 87 88 88 87 88 90 96 100 100 100 106 115 124 117 125 109 99 93 97 100 83 78 83 90 96 99 100 102 104 107 109 109 116 121 122 125 133 142 145 134 124 122 124 124 135 163 180 168 137 34 1 0 1 1 1 2 2 1 0 0 0 0 0 0 0 0 0 0 0 0 0 0 0 0 0 0 0 0 0 0 0 0 0 0 0 0 0 0 
0 0 0 0 0 0 0 0 0 0 0 0 8 16 101 154 171 170 135 134 135 131 127 121 122 122 121 123 132 134 137 127 121 112 104 100 98 94 90 88 89 90 89 88 90 91 93 99 98 100 106 116 118 114 119 116 105 100 100 92 80 81 89 94 96 97 98 99 101 103 107 109 112 114 118 120 125 138 142 134 120 115 116 117 123 151 177 168 141 44 2 0 1 1 1 2 2 1 0 0 0 0 0 0 0 0 0 0 0 0 0 0 0 0 0 0 0 0 0 0 0 0 0 0 0 0 0 0 
0 0 0 0 0 0 0 0 0 0 0 0 8 17 105 157 174 168 132 132 131 126 120 113 114 118 119 122 124 124 125 117 110 108 101 97 95 93 90 85 86 87 89 92 91 91 91 96 100 101 106 106 105 110 109 115 109 105 100 86 81 86 90 92 93 94 93 94 98 100 102 105 111 113 117 115 124 136 140 133 116 112 112 114 116 139 171 168 144 52 3 0 1 1 1 2 2 1 0 0 0 0 0 0 0 0 0 0 0 0 0 0 0 0 0 0 0 0 0 0 0 0 0 0 0 0 0 0 
0 0 0 0 0 0 0 0 0 0 0 0 8 17 105 158 174 163 126 127 122 118 110 105 107 113 116 125 123 118 118 114 103 103 97 93 90 90 90 87 84 87 89 91 89 89 91 92 99 102 111 108 103 105 104 114 110 111 105 87 86 87 90 87 85 89 92 93 96 99 102 103 107 110 111 112 124 135 135 133 119 110 107 109 109 127 157 166 147 59 3 1 1 1 1 2 2 1 0 0 0 0 0 0 0 0 0 0 0 0 0 0 0 0 0 0 0 0 0 0 0 0 0 0 0 0 0 0 
0 0 0 0 0 0 0 0 0 0 0 0 8 17 103 159 174 157 119 118 115 110 103 99 101 105 111 125 125 118 115 113 102 99 93 89 88 87 87 84 85 87 87 88 86 86 90 89 89 104 120 123 112 99 101 95 114 108 100 91 91 90 90 81 82 88 90 93 96 97 100 102 103 109 109 112 123 131 131 137 128 110 106 110 110 123 138 156 148 64 3 0 1 1 1 2 2 1 0 0 0 0 0 0 0 0 0 0 0 0 0 0 0 0 0 0 0 0 0 0 0 0 0 0 0 0 0 0 
0 0 0 0 0 0 0 0 0 0 0 0 8 17 100 158 173 148 117 113 108 105 102 100 100 101 113 120 122 118 113 112 105 97 93 91 89 89 89 87 84 85 88 90 88 90 93 87 84 99 116 122 102 92 94 83 102 116 92 95 91 90 85 82 87 89 91 93 94 96 99 99 101 105 106 114 124 132 138 139 131 111 105 107 110 121 134 155 148 65 3 0 1 1 1 2 2 1 0 0 0 0 0 0 0 0 0 0 0 0 0 0 0 0 0 0 0 0 0 0 0 0 0 0 0 0 0 0 
0 0 0 0 0 0 0 0 0 0 0 0 7 17 95 156 171 139 117 110 108 107 103 101 101 103 115 116 119 118 116 112 105 97 93 91 89 90 90 90 87 83 83 85 87 90 92 84 84 101 117 109 86 81 87 79 86 122 87 91 89 86 82 87 90 91 92 93 95 97 98 98 102 104 105 119 133 140 136 135 131 111 105 104 110 119 134 158 143 62 3 0 1 1 1 2 2 1 0 0 0 0 0 0 0 0 0 0 0 0 0 0 0 0 0 0 0 0 0 0 0 0 0 0 0 0 0 0 
0 0 0 0 0 0 0 0 0 0 0 0 6 15 86 153 168 135 114 109 106 106 103 100 99 103 115 115 115 118 120 114 104 101 94 89 91 93 91 89 88 86 81 79 81 85 90 83 88 104 110 91 85 82 89 77 79 112 104 89 86 82 82 90 90 90 92 94 97 97 97 97 102 101 103 119 139 135 130 134 129 109 104 103 108 116 133 157 138 57 3 0 1 1 1 2 2 1 0 0 0 0 0 0 0 0 0 0 0 0 0 0 0 0 0 0 0 0 0 0 0 0 0 0 0 0 0 0 
0 0 0 0 0 0 0 0 0 0 0 0 4 15 80 149 167 137 116 109 104 104 104 99 97 99 112 116 114 116 120 116 103 102 95 94 95 96 94 92 88 86 83 79 80 83 85 76 88 106 105 88 86 89 95 81 77 91 114 92 85 79 82 89 90 92 94 95 94 93 94 97 100 98 102 118 133 129 126 132 128 108 105 103 106 114 136 153 131 51 2 0 0 1 1 2 2 1 0 0 0 0 0 0 0 0 0 0 0 0 0 0 0 0 0 0 0 0 0 0 0 0 0 0 0 0 0 0 
0 0 0 0 0 0 0 0 0 0 0 0 2 14 73 145 163 141 117 109 104 103 103 102 98 95 107 116 116 116 122 116 103 100 97 95 96 96 96 94 90 85 80 79 77 80 80 78 93 108 92 86 85 94 101 86 80 78 108 101 97 87 83 89 91 92 93 92 90 91 94 98 97 96 101 117 126 126 125 129 125 106 105 102 103 113 140 148 122 45 2 0 0 1 1 2 2 1 0 0 0 0 0 0 0 0 0 0 0 0 0 0 0 0 0 0 0 0 0 0 0 0 0 0 0 0 0 0 
0 0 0 0 0 0 0 0 0 6 5 0 0 12 64 137 159 143 118 107 102 101 102 103 98 93 103 116 117 117 121 113 104 99 98 95 95 93 94 93 91 89 83 79 85 95 91 88 97 98 88 83 84 98 99 89 84 80 93 110 112 108 101 96 94 94 97 95 91 92 94 97 94 94 102 116 122 124 128 131 124 106 101 99 100 113 141 142 111 38 2 0 0 1 1 2 2 1 0 0 0 0 0 0 0 0 0 0 0 0 0 0 0 0 0 0 0 0 0 0 0 0 0 0 0 0 0 0 
0 0 0 0 0 0 0 0 0 3 9 3 1 9 53 128 156 142 118 106 99 100 102 103 97 91 104 118 118 116 119 114 103 98 98 96 94 92 91 93 99 98 94 87 90 94 98 92 103 92 88 83 84 95 95 91 89 85 87 117 121 121 112 101 97 93 94 97 93 90 90 93 94 93 102 118 121 123 127 133 129 108 97 98 100 114 143 136 102 34 2 0 0 1 1 2 2 1 0 0 0 0 0 0 0 0 0 0 0 0 0 0 0 0 0 0 0 0 0 0 0 0 0 0 0 0 0 0 
0 0 0 0 0 0 0 0 0 2 4 9 3 8 42 118 150 141 114 104 97 97 103 104 100 92 104 118 118 116 119 116 104 100 99 96 93 93 92 95 99 97 92 94 104 109 103 97 106 83 85 82 84 98 93 86 90 89 95 121 124 115 108 111 111 108 105 100 95 91 89 95 99 103 107 123 127 124 127 136 137 117 98 98 101 120 143 130 93 27 1 0 0 1 1 2 2 1 0 0 0 0 0 0 0 0 0 0 0 0 0 0 0 0 0 0 0 0 0 0 0 0 0 0 0 0 0 0 
0 0 0 0 0 0 0 0 0 0 3 10 4 7 32 104 145 144 114 105 101 100 102 102 101 94 106 117 119 121 125 124 116 103 100 97 94 95 100 101 102 102 102 105 99 99 95 106 108 83 82 83 83 104 93 86 86 85 90 119 133 116 106 108 114 124 137 132 125 122 124 123 127 128 133 138 126 121 129 138 139 128 104 99 108 130 144 122 86 18 1 0 1 8 5 1 2 1 0 0 0 0 0 0 0 0 0 0 0 0 0 0 0 0 0 0 0 0 0 0 0 0 0 0 0 0 0 0 
0 0 0 0 0 0 0 0 0 0 2 10 5 7 25 92 140 148 119 110 107 98 98 102 101 100 110 115 119 120 125 124 126 128 119 112 111 113 117 115 113 107 92 91 100 100 97 106 108 81 82 87 87 102 92 80 82 83 90 124 133 112 106 106 111 123 148 153 145 148 152 150 144 132 132 137 136 129 129 138 139 129 120 111 109 139 137 117 78 12 3 2 5 3 2 2 2 1 0 0 0 0 0 0 0 0 0 0 0 0 0 0 0 0 0 0 0 0 0 0 0 0 0 0 0 0 0 0 
0 0 0 0 0 0 0 0 0 0 1 9 6 8 19 82 132 154 134 113 106 96 95 101 106 113 113 117 120 121 120 121 118 122 125 128 129 121 116 112 111 105 100 100 100 96 95 105 108 88 85 92 90 105 95 80 82 88 100 129 131 115 107 108 113 127 147 151 149 154 149 144 138 127 133 129 140 144 139 137 139 133 127 128 144 143 121 114 68 9 3 2 5 2 1 2 2 1 0 0 0 0 0 0 0 0 0 0 0 0 0 0 0 0 0 0 0 0 0 0 0 0 0 0 0 0 0 0 
0 0 0 0 0 0 0 0 0 0 1 7 7 9 14 69 123 150 149 118 107 97 98 111 118 116 119 124 121 122 125 131 133 130 125 127 125 122 123 120 113 105 97 94 94 92 94 101 110 100 89 89 92 107 96 83 89 97 107 118 120 117 113 114 119 132 145 147 146 146 142 142 147 149 145 147 149 154 160 156 150 149 145 153 164 140 111 109 53 7 3 3 3 2 1 2 2 1 0 0 0 0 0 0 0 0 0 0 0 0 0 0 0 0 0 0 0 0 0 0 0 0 0 0 0 0 0 0 
0 0 0 0 0 0 0 0 0 0 0 7 8 9 13 55 116 146 154 133 114 112 117 119 126 125 126 133 129 122 134 144 149 155 154 143 140 138 128 114 103 96 97 92 88 89 96 111 111 94 94 95 89 108 95 88 90 102 109 110 116 109 114 117 120 135 152 154 155 155 152 155 156 147 134 140 141 150 163 166 172 176 170 177 180 131 121 105 32 7 4 3 2 1 1 2 2 1 0 0 0 0 0 0 0 0 0 0 0 0 0 0 0 0 0 0 0 0 0 0 0 0 0 0 0 0 0 0 
0 0 0 0 0 0 0 0 0 0 0 8 10 8 9 37 110 144 152 148 136 146 137 136 141 141 141 137 131 130 139 152 157 161 157 147 150 147 134 115 108 104 100 93 92 92 106 114 99 89 92 97 96 118 101 87 85 95 104 104 112 112 111 117 119 124 136 144 151 155 151 148 142 133 135 135 140 147 159 168 173 180 185 181 162 124 121 86 16 6 5 3 2 1 1 2 2 1 0 0 0 0 0 0 0 0 0 0 0 0 0 0 0 0 0 0 0 0 0 0 0 0 0 0 0 0 0 0 
0 0 0 0 0 0 0 0 0 0 0 5 10 7 8 12 62 129 149 149 153 171 178 161 159 155 144 139 137 140 153 159 157 156 160 152 147 147 140 119 110 110 109 101 97 95 104 112 102 91 93 101 100 114 118 95 84 89 96 105 107 106 113 116 117 119 122 134 138 137 129 134 134 129 135 143 145 147 152 160 167 169 171 167 146 121 118 94 18 6 7 4 2 2 1 2 2 0 0 0 0 0 0 0 0 0 0 0 0 0 0 0 0 0 0 0 0 0 0 0 0 0 0 0 0 0 0 0 
0 0 0 0 0 0 0 0 0 0 0 6 9 5 6 10 37 117 152 152 157 173 174 171 167 165 160 152 137 129 141 151 160 159 160 157 152 152 138 113 106 110 110 107 101 100 111 108 103 96 96 103 105 120 118 100 84 82 88 97 104 102 101 112 117 118 123 131 134 125 122 123 118 127 136 144 141 142 140 147 156 170 158 141 121 123 120 64 8 5 7 5 2 2 1 2 2 0 0 0 0 0 0 0 0 0 0 0 0 0 0 0 0 0 0 0 0 0 0 0 0 0 0 0 0 0 0 0 
0 0 0 0 0 0 0 0 0 0 0 6 6 5 5 9 22 93 147 150 150 157 160 150 165 167 162 152 141 135 132 138 147 157 160 157 151 145 131 119 109 107 111 112 101 99 112 102 98 100 101 99 93 112 121 108 85 84 93 97 104 110 109 109 103 102 117 128 131 132 132 124 125 140 147 148 143 147 140 140 147 158 136 123 127 127 110 32 6 4 6 6 2 2 1 2 2 0 0 0 0 0 0 0 0 0 0 0 0 0 0 0 0 0 0 0 0 0 0 0 0 0 0 0 0 0 0 0 
0 0 0 0 0 0 0 0 0 0 0 5 4 4 4 8 17 62 136 149 145 139 149 148 142 150 152 146 142 144 133 128 135 141 144 148 145 137 130 123 106 104 104 101 100 104 116 101 106 113 109 102 94 102 119 121 95 93 99 95 105 118 119 124 109 92 95 104 110 116 124 122 124 143 153 157 153 150 142 141 135 138 133 119 119 121 78 16 7 6 7 4 3 2 1 2 2 0 0 0 0 0 0 0 0 0 0 0 0 0 0 0 0 0 0 0 0 0 0 0 0 0 0 0 0 0 0 0 
0 0 0 0 0 0 0 0 0 0 0 4 5 4 4 8 15 34 114 138 135 133 143 147 145 138 134 132 138 150 150 132 121 123 137 144 140 133 127 108 96 93 100 106 105 108 125 110 117 118 117 110 100 100 124 124 106 101 105 107 108 122 125 127 120 97 88 89 98 106 114 127 138 140 148 158 160 156 151 147 143 139 122 102 104 113 43 11 6 6 6 2 3 3 1 2 2 0 0 0 0 0 0 0 0 0 0 0 0 0 0 0 0 0 0 0 0 0 0 0 0 0 0 0 0 0 0 0 
0 0 0 0 0 0 0 0 0 0 1 3 5 4 3 9 15 18 83 124 124 131 138 146 140 138 135 130 133 148 153 139 120 116 132 143 143 138 119 97 86 97 103 108 108 113 123 123 122 121 129 129 114 112 138 132 116 107 113 116 113 126 128 128 122 107 88 86 96 112 118 134 133 130 141 151 160 162 175 164 147 125 108 87 96 87 21 11 6 7 5 2 3 3 1 2 1 0 0 0 0 0 0 0 0 0 0 0 0 0 0 0 0 0 0 0 0 0 0 0 0 0 0 0 0 0 0 0 
0 0 0 0 0 0 0 0 0 0 1 3 4 4 2 6 13 13 48 119 132 125 137 150 150 143 140 137 142 146 149 134 118 117 119 124 122 116 108 98 91 102 103 110 120 125 126 130 133 136 143 144 149 153 153 141 138 139 132 129 129 142 142 136 127 109 93 91 105 123 117 114 126 123 135 149 161 171 181 171 137 115 97 90 104 58 13 12 7 7 6 2 2 3 1 2 1 0 0 0 0 0 0 0 0 0 0 0 0 0 0 0 0 0 0 0 0 0 0 0 0 0 0 0 0 0 0 0 
0 0 0 0 0 0 0 0 0 0 1 3 5 4 2 5 11 14 26 102 126 114 125 135 158 156 154 145 149 148 149 141 131 126 115 118 109 96 92 105 107 112 113 118 130 140 139 141 149 151 151 154 164 172 175 166 159 153 145 143 148 162 165 153 136 124 121 118 121 126 111 113 125 122 125 149 159 177 173 163 129 104 85 87 98 32 11 12 6 6 5 2 2 3 1 2 1 0 0 0 0 0 0 0 0 0 0 0 0 0 0 0 0 0 0 0 0 0 0 0 0 0 0 0 0 0 0 0 
0 0 0 0 0 0 0 0 0 0 1 3 5 3 2 5 11 13 15 69 119 119 112 121 150 164 162 154 149 145 149 147 134 130 122 119 113 104 102 109 135 133 131 131 137 148 152 151 152 144 143 146 147 148 153 156 152 145 137 139 145 162 170 167 151 145 142 137 143 120 106 107 115 120 115 142 156 178 163 147 129 115 96 101 82 19 9 9 6 5 5 2 3 3 2 2 1 0 0 0 0 0 0 0 0 0 0 0 0 0 0 0 0 0 0 0 0 0 0 0 0 0 0 0 0 0 0 0 
0 0 0 0 0 0 0 0 0 0 1 4 6 3 2 5 9 10 12 41 95 114 113 116 136 156 164 163 149 146 145 148 139 129 119 119 119 120 125 130 138 154 156 150 153 153 154 160 153 148 143 148 145 151 148 149 148 149 141 143 146 156 170 168 169 164 154 157 148 114 99 98 106 118 124 141 159 173 153 130 112 103 109 99 67 16 9 8 6 4 4 3 3 3 2 2 1 0 0 0 0 0 0 0 0 0 0 0 0 0 0 0 0 0 0 0 0 0 0 0 0 0 0 0 0 0 0 0 
0 0 0 0 0 0 0 0 0 0 1 5 13 9 3 4 8 9 11 29 82 115 122 110 121 139 160 163 154 140 139 141 135 123 110 111 113 116 122 131 140 157 168 170 165 161 162 161 153 151 149 157 159 158 153 146 150 153 139 140 142 150 160 166 171 164 156 158 148 111 89 96 112 125 145 156 162 166 150 128 98 87 98 99 59 16 8 6 6 4 3 3 4 3 2 2 1 0 0 0 0 0 0 0 0 0 0 0 0 0 0 0 0 0 0 0 0 0 0 0 0 0 0 0 0 0 0 0 
0 0 0 0 0 0 0 0 0 0 0 4 12 13 9 7 8 10 13 21 66 102 118 116 114 119 148 152 164 141 130 129 134 111 102 104 106 113 117 120 129 147 163 168 168 164 167 164 159 158 158 166 165 163 156 135 137 143 131 128 134 146 148 167 173 171 167 163 149 111 94 97 108 121 161 176 177 174 154 107 88 85 98 93 39 16 5 4 6 4 3 4 4 4 3 2 1 0 0 0 0 0 0 0 0 0 0 0 0 0 0 0 0 0 0 0 0 0 0 0 0 0 0 0 0 0 0 0 
0 0 0 0 0 0 0 0 0 0 0 3 11 11 9 8 9 12 16 16 34 86 117 116 103 114 139 153 167 150 140 132 134 112 94 100 106 110 110 110 116 142 162 163 163 160 158 154 156 157 161 172 167 164 143 119 119 128 129 126 132 150 154 165 182 177 170 162 147 118 98 99 111 135 165 167 175 160 144 97 79 79 80 64 20 14 8 5 5 5 5 6 7 4 3 2 1 0 0 0 0 0 0 0 0 0 0 0 0 0 0 0 0 0 0 0 0 0 0 0 0 0 0 0 0 0 0 0 
0 0 0 0 0 0 0 0 0 0 0 2 11 10 9 9 9 10 13 15 17 50 107 110 108 108 126 151 167 167 156 141 130 124 103 94 95 96 99 106 125 147 157 158 157 153 151 147 147 143 154 155 144 162 156 131 125 130 129 124 141 161 153 171 177 177 170 168 164 132 123 120 135 148 148 147 128 107 106 77 66 87 92 36 12 9 9 7 5 6 6 7 12 6 2 1 1 0 0 0 0 0 0 0 0 0 0 0 0 0 0 0 0 0 0 0 0 0 0 0 0 0 0 0 0 0 0 0 
0 0 0 0 0 0 0 0 0 0 0 0 9 11 6 6 6 5 9 15 20 28 71 99 93 91 113 146 155 167 167 149 134 133 120 104 103 107 114 133 139 166 179 172 172 165 162 167 172 171 169 158 161 179 182 165 156 159 159 154 162 167 180 186 175 175 168 178 171 167 147 144 142 140 116 96 90 89 93 76 94 98 53 18 10 2 2 4 5 5 5 7 9 5 1 1 1 0 0 0 0 0 0 0 0 0 0 0 0 0 0 0 0 0 0 0 0 0 0 0 0 0 0 0 0 0 0 0 
0 0 0 0 0 0 0 0 0 0 0 0 3 7 5 3 3 3 5 11 17 21 37 81 86 75 91 104 103 143 148 150 144 141 130 112 114 121 131 142 169 182 187 189 192 197 189 197 191 180 180 182 180 177 177 169 167 174 179 181 186 189 202 203 198 206 187 191 148 143 149 141 107 87 77 84 84 83 86 74 71 47 29 22 13 2 0 1 2 3 4 7 7 1 1 1 1 0 0 0 0 0 0 0 0 0 0 0 0 0 0 0 0 0 0 0 0 0 0 0 0 0 0 0 0 0 0 0 
0 0 0 0 0 0 0 0 0 0 0 0 0 3 3 2 1 0 1 7 13 20 25 45 80 84 66 56 67 77 96 110 135 136 128 125 118 131 149 168 175 174 180 182 187 194 189 186 184 172 164 170 169 165 162 159 158 160 164 169 170 189 200 182 171 187 179 172 158 140 124 106 89 78 75 90 92 89 70 48 41 39 36 26 18 0 0 1 1 1 2 7 7 1 1 1 1 0 0 0 0 0 0 0 0 0 0 0 0 0 0 0 0 0 0 0 0 0 0 0 0 0 0 0 0 0 0 0 
0 0 0 0 0 0 0 0 0 0 0 0 0 2 5 4 4 3 2 4 10 14 19 22 36 51 36 43 67 63 64 62 81 85 81 93 83 74 76 76 91 120 141 148 138 136 136 120 129 105 97 110 117 118 114 110 96 91 106 102 98 114 102 138 132 156 125 83 64 64 58 66 62 55 56 78 83 83 50 29 28 26 19 7 3 1 3 3 2 2 2 8 5 1 1 1 1 0 0 0 0 0 0 0 0 0 0 0 0 0 0 0 0 0 0 0 0 0 0 0 0 0 0 0 0 0 0 0 
0 0 0 0 0 0 0 0 0 0 0 0 0 0 3 3 3 3 2 1 6 10 13 16 22 22 23 33 67 65 61 62 63 64 62 66 69 60 67 70 82 88 83 82 90 95 82 71 77 79 60 74 90 91 90 89 73 61 74 74 83 100 87 80 77 94 91 98 106 101 65 63 62 55 56 76 84 81 48 29 28 25 16 6 3 1 2 2 2 2 3 5 2 0 1 1 1 0 0 0 0 0 0 0 0 0 0 0 0 0 0 0 0 0 0 0 0 0 0 0 0 0 0 0 0 0 0 0 
0 0 0 0 0 0 0 0 0 0 0 0 0 0 0 0 0 1 0 0 3 9 10 15 20 26 28 36 69 74 65 64 68 70 67 66 77 94 121 128 139 141 109 101 102 104 96 99 105 90 76 91 97 98 96 94 88 78 96 108 107 116 102 93 118 142 104 90 106 94 88 87 79 74 75 87 91 83 49 33 29 24 14 9 1 0 0 0 1 1 1 1 0 0 1 1 1 0 0 0 0 0 0 0 0 0 0 0 0 0 0 0 0 0 0 0 0 0 0 0 0 0 0 0 0 0 0 0 
0 0 0 0 0 0 0 0 0 0 0 0 0 0 0 0 0 0 0 0 0 4 4 8 15 29 34 44 75 88 79 74 78 86 86 89 101 119 123 142 156 169 158 136 142 161 160 159 146 124 117 124 123 122 118 123 121 114 120 140 147 153 145 151 157 162 130 132 109 126 118 111 95 86 84 85 83 78 51 37 25 17 9 8 1 0 0 0 0 0 0 0 0 0 0 1 1 0 0 0 0 0 0 0 0 0 0 0 0 0 0 0 0 0 0 0 0 0 0 0 0 0 0 0 0 0 0 0 
0 0 0 0 0 0 0 0 0 0 0 0 0 0 0 0 0 0 0 0 0 2 3 5 9 23 29 38 62 79 73 73 83 92 97 95 101 113 125 116 161 170 171 161 172 177 173 181 161 166 166 159 162 163 162 157 157 153 154 155 154 170 167 160 164 158 153 130 144 149 126 128 100 78 60 70 77 57 32 24 17 9 6 2 0 0 0 0 0 0 0 0 0 0 0 1 0 0 0 0 0 0 0 0 0 0 0 0 0 0 0 0 0 0 0 0 0 0 0 0 0 0 0 0 0 0 0 0 
0 0 0 0 0 0 0 0 0 0 0 0 0 0 0 0 0 0 0 0 0 0 2 3 8 17 28 36 53 76 76 71 74 76 75 71 78 94 105 106 128 129 120 107 127 137 154 170 162 153 145 136 140 136 139 131 137 135 134 132 140 146 129 135 136 126 135 140 151 153 114 71 50 50 61 82 80 47 25 22 13 8 6 1 0 1 1 1 1 1 1 1 1 2 3 3 2 2 0 0 0 0 0 0 0 0 0 0 0 0 0 0 0 0 0 0 0 0 0 0 0 0 0 0 0 0 0 0 
0 0 0 0 0 0 0 0 0 0 0 0 0 0 0 0 0 0 0 0 0 0 4 7 9 15 20 22 33 55 68 67 65 66 58 56 55 71 94 115 112 113 109 95 101 117 132 136 123 122 117 97 107 100 104 93 104 107 106 108 113 129 127 105 118 128 137 121 133 121 99 68 53 55 72 101 86 46 24 18 17 13 7 1 0 0 0 1 1 0 0 1 1 1 2 2 1 0 0 0 0 0 0 0 0 0 0 0 0 0 0 0 0 0 0 0 0 0 0 0 0 0 0 0 0 0 0 0 
0 0 0 0 0 0 0 0 0 0 0 0 0 0 0 0 0 0 0 0 0 0 2 6 9 13 19 21 25 45 63 75 73 69 58 51 53 66 86 101 100 101 101 103 110 124 133 131 119 114 107 88 94 93 95 90 103 111 115 109 106 115 108 93 86 106 124 128 125 108 93 68 55 59 82 108 88 49 25 19 18 12 7 1 0 0 0 1 1 0 0 1 1 1 2 2 1 0 0 0 0 0 0 0 0 0 0 0 0 0 0 0 0 0 0 0 0 0 0 0 0 0 0 0 0 0 0 0 
0 0 0 0 0 0 0 0 0 0 0 0 0 0 0 0 0 0 0 0 0 0 1 4 9 10 16 21 23 39 58 75 78 72 62 53 49 58 74 97 93 86 90 93 101 112 121 131 128 117 112 99 101 100 98 92 104 103 117 121 114 123 120 107 102 98 111 118 109 95 79 61 55 64 90 112 87 51 25 19 17 11 6 0 0 0 0 1 1 0 0 1 1 1 2 2 1 0 0 0 0 0 0 0 0 0 0 0 0 0 0 0 0 0 0 0 0 0 0 0 0 0 0 0 0 0 0 0 
0 0 0 0 0 0 0 0 0 0 0 0 0 0 0 0 0 0 0 0 0 0 0 3 6 9 13 19 22 33 49 70 78 75 67 57 52 56 59 66 73 78 87 92 99 107 114 121 136 128 118 108 106 104 98 95 100 99 109 119 122 142 132 111 103 95 99 108 110 99 80 64 59 67 96 113 82 52 26 18 15 11 4 0 0 0 0 1 1 0 0 1 1 1 2 2 1 0 0 0 0 0 0 0 0 0 0 0 0 0 0 0 0 0 0 0 0 0 0 0 0 0 0 0 0 0 0 0 
0 0 0 0 0 0 0 0 0 0 0 0 0 0 0 0 0 0 0 0 0 0 0 0 5 8 11 16 20 28 45 62 81 79 71 64 57 52 53 59 66 74 87 92 102 104 104 111 127 118 114 106 102 102 95 95 98 100 106 113 120 127 121 106 103 103 99 93 96 96 82 72 66 72 96 109 81 52 26 17 15 9 2 0 0 0 0 1 1 1 1 1 1 1 2 2 1 0 0 0 0 0 0 0 0 0 0 0 0 0 0 0 0 0 0 0 0 0 0 0 0 0 0 0 0 0 0 0 
0 0 0 0 0 0 0 0 0 0 0 0 0 0 0 0 0 0 0 0 0 0 0 0 2 5 9 13 18 25 43 54 79 78 76 71 63 56 54 58 64 70 85 98 107 103 97 96 103 108 114 105 97 98 96 93 96 101 107 106 115 111 110 103 106 108 104 88 78 74 68 69 71 81 98 105 79 45 20 16 15 8 1 0 0 0 0 0 1 1 0 1 1 1 2 2 1 0 0 0 0 0 0 0 0 0 0 0 0 0 0 0 0 0 0 0 0 0 0 0 0 0 0 0 0 0 0 0 
0 0 0 0 0 0 0 0 0 0 0 0 0 0 0 0 0 0 0 0 0 0 0 0 0 4 6 12 15 19 33 53 67 73 79 76 67 60 55 54 60 69 84 94 100 98 96 89 88 96 110 101 92 92 93 97 97 101 99 103 109 108 101 92 95 98 97 85 74 66 62 71 79 86 102 88 48 23 17 16 16 8 1 0 1 0 0 1 1 1 0 1 1 1 2 2 1 0 0 0 0 0 0 0 0 0 0 0 0 0 0 0 0 0 0 0 0 0 0 0 0 0 0 0 0 0 0 0 
0 0 0 0 0 0 0 0 0 0 0 0 0 0 0 0 0 0 0 0 0 0 0 0 0 3 4 8 14 17 21 32 41 46 73 80 70 64 58 52 56 67 78 81 91 94 94 88 86 96 112 105 96 95 98 99 99 100 100 100 102 98 94 89 91 89 85 77 74 65 61 73 82 92 100 44 18 17 18 18 16 8 1 0 0 0 0 0 1 1 0 0 1 1 2 2 0 0 0 0 0 0 0 0 0 0 0 0 0 0 0 0 0 0 0 0 0 0 0 0 0 0 0 0 0 0 0 0 
0 0 0 0 0 0 0 0 0 0 0 0 0 0 0 0 0 0 0 0 0 0 0 0 0 0 5 4 12 17 19 20 18 17 32 77 79 73 65 62 59 61 69 72 79 82 88 88 90 100 101 101 95 92 88 93 104 101 95 93 98 97 97 89 86 84 73 71 72 68 71 81 88 96 71 23 15 15 17 18 14 6 1 0 0 0 0 1 1 1 0 0 1 1 2 2 0 0 0 0 0 0 0 0 0 0 0 0 0 0 0 0 0 0 0 0 0 0 0 0 0 0 0 0 0 0 0 0 
0 0 0 0 0 0 0 0 0 0 0 0 0 0 0 0 0 0 0 0 0 0 0 0 0 0 2 5 8 13 18 18 18 18 13 38 76 80 74 69 67 66 68 73 79 78 81 88 101 104 96 97 99 96 92 92 103 104 94 91 98 100 106 97 91 83 80 79 76 76 82 89 91 78 35 19 14 15 17 17 12 6 1 0 0 0 0 0 1 1 0 0 1 1 2 1 0 0 0 0 0 0 0 0 0 0 0 0 0 0 0 0 0 0 0 0 0 0 0 0 0 0 0 0 0 0 0 0 
0 0 0 0 0 0 0 0 0 0 0 0 0 0 0 0 0 0 0 0 0 0 0 0 0 0 0 3 7 9 16 18 17 18 14 13 37 71 82 81 76 73 74 80 88 89 87 87 95 102 96 99 100 97 95 103 113 112 108 103 105 111 107 97 93 89 87 88 86 90 94 94 75 37 24 17 13 16 17 15 11 6 1 0 0 0 0 0 1 1 0 0 1 1 2 2 0 0 0 0 0 0 0 0 0 0 0 0 0 0 0 0 0 0 0 0 0 0 0 0 0 0 0 0 0 0 0 0 
0 0 0 0 0 0 0 0 0 0 0 0 0 0 0 0 0 0 0 0 0 0 0 0 0 0 0 2 5 7 12 17 18 18 14 13 17 33 63 80 84 86 86 87 99 100 91 89 89 103 102 98 99 97 97 106 110 109 110 108 101 103 105 102 97 99 101 100 96 95 92 72 36 26 23 17 14 16 16 14 10 5 1 0 1 0 0 0 1 1 0 0 1 1 2 2 0 0 0 0 0 0 0 0 0 0 0 0 0 0 0 0 0 0 0 0 0 0 0 0 0 0 0 0 0 0 0 0 
0 0 0 0 0 0 0 0 0 0 0 0 0 0 0 0 0 0 0 0 0 0 0 0 0 0 0 1 4 7 9 15 17 19 15 12 16 22 29 51 75 88 93 98 106 109 102 97 101 109 102 95 95 102 105 110 111 108 114 115 108 104 114 108 107 108 110 108 100 86 61 34 28 26 22 17 15 15 15 13 10 5 1 0 0 0 0 0 1 1 0 0 1 1 2 1 0 0 0 0 0 0 0 0 0 0 0 0 0 0 0 0 0 0 0 0 0 0 0 0 0 0 0 0 0 0 0 0 
0 0 0 0 0 0 0 0 0 0 0 0 0 0 0 0 0 0 0 0 0 0 0 0 0 0 0 0 1 7 7 13 16 18 15 12 13 20 25 29 38 61 82 94 107 113 108 106 107 108 108 102 104 104 101 103 105 108 113 114 113 106 114 116 113 109 111 103 81 50 31 29 28 24 21 16 14 14 14 12 9 5 1 0 0 0 0 0 1 1 0 0 1 1 1 1 0 0 0 0 0 0 0 0 0 0 0 0 0 0 0 0 0 0 0 0 0 0 0 0 0 0 0 0 0 0 0 0 
0 0 0 0 0 0 0 0 0 0 0 0 0 0 0 0 0 0 0 0 0 0 0 0 0 0 0 0 0 7 6 11 14 18 15 12 12 20 26 29 31 33 41 60 85 97 100 100 100 105 112 111 107 101 98 99 100 106 115 108 110 114 117 114 110 101 87 62 43 37 29 28 26 23 18 16 13 15 14 12 9 4 1 0 0 0 0 0 1 1 0 0 1 1 2 1 0 0 0 0 0 0 0 0 0 0 0 0 0 0 0 0 0 0 0 0 0 0 0 0 0 0 0 0 0 0 0 0 
0 0 0 0 0 0 0 0 0 0 0 0 0 0 0 0 0 0 0 0 0 0 0 0 0 0 0 0 0 4 6 9 13 17 16 13 12 19 25 28 31 33 32 38 50 68 81 88 91 94 104 108 104 101 103 104 104 106 115 113 115 107 106 99 90 71 53 47 41 36 28 28 26 23 17 14 15 15 14 13 9 3 1 0 0 0 0 0 0 1 0 0 1 1 1 1 0 0 0 0 0 0 0 0 0 0 0 0 0 0 0 0 0 0 0 0 0 0 0 0 0 0 0 0 0 0 0 0 
