P2
128 99
226
0 0 0 0 0 0 0 0 0 0 0 0 0 0 0 0 0 0 0 0 0 0 0 0 0 0 0 0 0 0 0 0 0 0 0 0 0 0 0 0 0 0 0 0 0 0 0 0 0 0 0 0 0 0 0 0 0 0 0 0 0 0 0 0 0 0 0 0 0 0 0 0 0 0 0 0 0 0 0 0 0 0 0 0 0 0 0 0 0 0 0 0 0 0 0 0 0 0 0 0 0 0 0 0 0 0 0 0 0 0 0 0 0 0 0 0 0 0 0 0 0 0 0 0 0 0 0 0 
0 0 0 0 0 0 0 0 0 0 0 0 0 0 0 0 0 0 0 0 0 0 0 0 0 0 0 0 0 0 0 0 0 0 0 0 0 0 0 0 0 0 0 0 0 0 0 0 0 0 0 0 0 0 0 0 0 0 0 0 0 0 0 0 0 0 0 0 0 0 0 0 0 0 0 0 0 0 0 0 0 0 0 0 0 0 0 0 0 0 0 0 0 0 0 0 0 0 0 0 0 0 0 0 0 0 0 0 0 0 0 0 0 0 0 0 0 0 0 0 0 0 0 0 0 0 0 0 
0 0 0 0 0 0 0 0 0 0 0 0 0 0 0 0 0 0 0 0 0 0 0 0 0 0 0 0 0 0 0 0 0 0 0 0 0 0 0 0 0 0 0 0 0 0 0 0 0 0 0 1 1 2 0 0 0 0 0 0 0 0 0 0 0 0 0 0 0 0 0 0 0 0 0 0 0 0 0 0 0 0 0 0 0 0 0 0 0 0 0 0 0 0 0 0 0 0 0 0 0 0 0 0 0 0 0 0 0 0 0 0 0 0 0 0 0 0 0 0 0 0 0 0 0 0 0 0 
0 0 0 0 0 0 0 0 0 0 0 0 0 0 0 0 0 0 0 0 0 0 0 0 0 0 0 0 0 0 0 0 0 0 0 0 0 0 0 0 0 0 0 0 2 13 17 22 22 21 21 22 24 25 25 23 21 14 15 9 2 0 0 0 0 0 0 0 0 0 0 0 0 0 0 0 0 0 0 0 0 0 0 0 0 0 0 0 0 0 0 0 0 0 0 0 0 0 0 0 0 0 0 0 0 0 0 0 0 0 0 0 0 0 0 0 0 0 0 0 0 0 0 0 0 0 0 0 
0 0 0 0 0 0 0 0 0 0 0 0 0 0 0 0 0 0 0 0 0 0 0 0 0 0 0 0 0 0 0 0 0 0 0 0 0 0 0 0 4 7 15 29 26 30 47 68 92 114 127 135 140 144 144 139 127 108 80 53 35 19 16 7 0 0 0 0 0 0 0 0 0 0 0 0 0 0 0 0 0 0 0 0 0 0 0 0 0 0 0 0 0 0 0 0 0 0 0 0 0 0 0 0 0 0 0 0 0 0 0 0 0 0 0 0 0 0 0 0 0 0 0 0 0 0 0 0 
0 0 0 0 0 0 0 0 0 0 0 0 0 0 0 0 0 0 0 0 0 0 0 0 0 0 0 0 0 0 0 0 0 0 0 0 0 0 7 7 24 30 34 56 94 130 154 164 161 152 144 142 142 142 141 140 138 134 134 142 143 122 78 40 19 16 7 0 0 0 0 0 0 0 0 0 0 0 0 0 0 0 0 0 0 0 0 0 0 0 0 0 0 0 0 0 0 0 0 0 0 0 0 0 0 0 0 0 0 0 0 0 0 0 0 0 0 0 0 0 0 0 0 0 0 0 0 0 
0 0 0 0 0 0 0 0 0 0 0 0 0 0 0 0 0 0 0 0 0 0 0 0 0 0 0 0 0 0 0 0 0 0 0 0 7 16 23 31 47 84 130 163 173 156 146 157 167 174 179 179 178 177 178 178 178 175 169 158 144 130 133 144 128 75 33 16 12 0 0 0 0 0 0 0 0 0 0 0 0 0 0 0 0 0 0 0 0 0 0 0 0 0 0 0 0 0 0 0 0 0 0 0 0 0 0 0 0 0 0 0 0 0 0 0 0 0 0 0 0 0 0 0 0 0 0 0 
0 0 0 0 0 0 0 0 0 0 0 0 0 0 0 0 0 0 0 0 0 0 0 0 0 0 0 0 0 0 0 0 0 0 6 19 31 28 53 103 150 173 165 151 153 169 180 173 161 154 152 153 149 138 136 144 155 165 168 173 180 177 159 142 129 138 149 105 44 19 14 0 0 0 0 0 0 0 0 0 0 0 0 0 0 0 0 0 0 0 0 0 0 0 0 0 0 0 0 0 0 0 0 0 0 0 0 0 0 0 0 0 0 0 0 0 0 0 0 0 0 0 0 0 0 0 0 0 
0 0 0 0 0 0 0 0 0 0 0 0 0 0 0 0 0 0 0 0 0 0 0 0 0 0 0 0 0 0 0 0 7 26 26 24 48 105 156 175 153 144 159 170 168 160 144 132 119 119 123 127 125 119 126 127 124 138 155 168 169 171 170 175 174 154 135 136 153 109 42 23 7 0 0 0 0 0 0 0 0 0 0 0 0 0 0 0 0 0 0 0 0 0 0 0 0 0 0 0 0 0 0 0 0 0 0 0 0 0 0 0 0 0 0 0 0 0 0 0 0 0 0 0 0 0 0 0 
0 0 0 0 0 0 0 0 0 0 0 0 0 0 0 0 0 0 0 0 0 0 0 0 0 0 0 0 0 0 1 24 21 24 38 94 149 176 152 139 155 172 167 150 150 160 154 145 151 146 144 159 164 166 169 170 167 171 158 155 164 166 164 168 169 174 178 163 142 143 152 80 25 17 1 0 0 0 0 0 0 0 0 0 0 0 0 0 0 0 0 0 0 0 0 0 0 0 0 0 0 0 0 0 0 0 0 0 0 0 0 0 0 0 0 0 0 0 0 0 0 0 0 0 0 0 0 0 
0 0 0 0 0 0 0 0 0 0 0 0 0 0 0 0 0 0 0 0 0 0 0 0 0 0 0 0 0 11 23 23 25 73 137 174 160 138 154 171 178 167 153 156 153 151 165 183 196 186 165 158 158 164 170 178 195 207 210 204 193 182 177 169 168 163 165 175 179 163 142 151 120 38 23 3 0 0 0 0 0 0 0 0 0 0 0 0 0 0 0 0 0 0 0 0 0 0 0 0 0 0 0 0 0 0 0 0 0 0 0 0 0 0 0 0 0 0 0 0 0 0 0 0 0 0 0 0 
0 0 0 0 0 0 0 0 0 0 0 0 0 0 0 0 0 0 0 0 0 0 0 0 0 0 0 0 21 17 20 44 113 165 166 136 150 171 179 179 154 143 160 171 184 199 204 195 179 173 169 159 159 166 174 176 173 186 192 198 202 205 213 212 199 181 172 167 167 173 178 160 143 144 64 23 8 0 0 0 0 0 0 0 0 0 0 0 0 0 0 0 0 0 0 0 0 0 0 0 0 0 0 0 0 0 0 0 0 0 0 0 0 0 0 0 0 0 0 0 0 0 0 0 0 0 0 0 
0 0 0 0 0 0 0 0 0 0 0 0 0 0 0 0 0 0 0 0 0 0 0 0 0 0 6 24 11 21 69 138 171 153 146 170 183 182 164 147 165 191 188 168 157 165 177 174 173 174 166 154 151 148 137 120 113 120 141 165 185 193 188 191 213 226 210 186 171 165 166 174 171 143 146 81 24 11 0 0 0 0 0 0 0 0 0 0 0 0 0 0 0 0 0 0 0 0 0 0 0 0 0 0 0 0 0 0 0 0 0 0 0 0 0 0 0 0 0 0 0 0 0 0 0 0 0 0 
0 0 0 0 0 0 0 0 0 0 0 0 0 0 0 0 0 0 0 0 0 0 0 0 0 9 22 10 34 89 149 168 145 161 184 189 174 149 165 195 198 173 147 140 136 133 118 107 111 113 97 102 86 81 88 89 93 90 95 103 124 154 174 179 176 187 213 224 205 181 172 163 168 172 145 147 91 26 13 0 0 0 0 0 0 0 0 0 0 0 0 0 0 0 0 0 0 0 0 0 0 0 0 0 0 0 0 0 0 0 0 0 0 0 0 0 0 0 0 0 0 0 0 0 0 0 0 0 
0 0 0 0 0 0 0 0 0 0 0 0 0 0 0 0 0 0 0 0 0 0 0 0 15 20 9 43 102 148 158 147 175 188 178 155 152 185 203 192 161 136 125 110 107 110 104 99 90 69 57 56 57 60 64 66 78 97 104 96 93 106 130 140 150 162 172 182 207 215 195 177 165 167 171 150 153 103 29 14 0 0 0 0 0 0 0 0 0 0 0 0 0 0 0 0 0 0 0 0 0 0 0 0 0 0 0 0 0 0 0 0 0 0 0 0 0 0 0 0 0 0 0 0 0 0 0 0 
0 0 0 0 0 0 0 0 0 0 0 0 0 0 0 0 0 0 0 0 0 0 5 19 17 8 55 119 148 147 154 186 184 163 142 160 195 193 174 136 110 107 109 110 114 110 97 80 68 67 69 75 80 88 92 95 95 98 114 125 118 114 115 134 141 141 150 160 166 182 213 200 177 166 168 173 152 159 111 35 13 0 0 0 0 0 0 0 0 0 0 0 0 0 0 0 0 0 0 0 0 0 0 0 0 0 0 0 0 0 0 0 0 0 0 0 0 0 0 0 0 0 0 0 0 0 0 0 
0 0 0 0 0 0 0 0 0 0 0 0 0 0 0 0 0 0 0 0 0 6 17 12 8 64 130 147 147 162 192 180 154 137 159 188 185 165 122 109 117 120 123 129 126 102 93 91 94 96 98 103 106 108 107 107 104 101 100 102 103 102 116 120 129 137 136 140 154 164 168 200 201 180 169 167 170 156 167 117 35 8 0 0 0 0 0 0 0 0 0 0 0 0 0 0 0 0 0 0 0 0 0 0 0 0 0 0 0 0 0 0 0 0 0 0 0 0 0 0 0 0 0 0 0 0 0 0 
0 0 0 0 0 0 0 0 0 0 0 0 0 0 0 0 0 0 0 0 9 14 13 12 77 133 149 157 165 190 172 141 117 157 188 184 156 112 114 125 125 119 114 107 104 105 110 114 119 123 125 127 125 123 121 124 123 120 121 120 117 111 109 114 121 126 135 139 133 136 151 162 189 191 180 172 166 163 154 172 115 30 5 0 0 0 0 0 0 0 0 0 0 0 0 0 0 0 0 0 0 0 0 0 0 0 0 0 0 0 0 0 0 0 0 0 0 0 0 0 0 0 0 0 0 0 0 0 
0 0 0 0 0 0 0 0 0 0 0 0 0 0 0 0 0 0 0 8 13 10 12 82 132 141 162 165 185 168 130 109 162 187 184 155 118 122 121 115 107 101 107 115 118 116 117 115 115 117 117 113 108 108 109 110 109 110 110 112 110 116 118 120 115 109 116 130 135 126 127 159 169 182 176 176 172 165 159 155 171 101 25 3 0 0 0 0 0 0 0 0 0 0 0 0 0 0 0 0 0 0 0 0 0 0 0 0 0 0 0 0 0 0 0 0 0 0 0 0 0 0 0 0 0 0 0 0 
0 0 0 0 0 0 0 0 0 0 0 0 0 0 0 0 0 0 6 12 12 13 82 132 140 168 166 182 163 125 108 155 186 183 151 117 115 112 103 97 108 116 116 114 113 110 110 107 107 108 109 107 105 108 109 108 107 107 107 104 104 105 105 113 119 117 110 117 125 133 127 128 167 172 177 155 172 174 168 152 159 160 87 18 2 0 0 0 0 0 0 0 0 0 0 0 0 0 0 0 0 0 0 0 0 0 0 0 0 0 0 0 0 0 0 0 0 0 0 0 0 0 0 0 0 0 0 0 
0 0 0 0 0 0 0 0 0 0 0 0 0 0 0 0 0 4 14 11 14 75 127 132 168 170 178 162 126 111 155 185 182 158 118 112 100 84 92 112 112 111 110 111 111 112 112 112 115 112 113 111 113 114 113 109 112 111 108 106 109 110 107 104 109 117 118 109 119 122 129 122 141 174 176 168 139 163 175 170 149 172 139 77 14 0 0 0 0 0 0 0 0 0 0 0 0 0 0 0 0 0 0 0 0 0 0 0 0 0 0 0 0 0 0 0 0 0 0 0 0 0 0 0 0 0 0 0 
0 0 0 0 0 0 0 0 0 0 0 0 0 0 0 0 0 13 8 15 75 121 131 153 176 168 164 124 105 153 189 181 168 118 99 83 75 91 115 117 111 114 116 117 114 114 112 112 113 100 107 116 115 106 95 96 104 107 111 117 117 114 108 103 103 110 116 112 103 112 116 122 124 147 170 179 159 121 165 177 159 152 167 121 62 6 0 0 0 0 0 0 0 0 0 0 0 0 0 0 0 0 0 0 0 0 0 0 0 0 0 0 0 0 0 0 0 0 0 0 0 0 0 0 0 0 0 0 
0 0 0 0 0 0 0 0 0 0 0 0 0 0 0 0 7 11 15 75 115 128 137 179 161 162 118 106 151 183 179 173 121 92 76 71 88 114 117 118 117 116 116 114 112 109 106 104 90 83 93 95 92 97 89 86 83 85 90 108 117 114 114 109 108 108 111 118 104 90 106 113 115 129 159 172 188 140 119 173 175 148 167 147 99 35 3 0 0 0 0 0 0 0 0 0 0 0 0 0 0 0 0 0 0 0 0 0 0 0 0 0 0 0 0 0 0 0 0 0 0 0 0 0 0 0 0 0 
0 0 0 0 0 0 0 0 0 0 0 0 0 0 0 1 13 10 59 115 118 122 171 164 159 126 98 136 185 177 165 122 97 81 71 80 110 120 117 119 105 84 76 71 73 71 70 69 72 82 95 75 67 89 82 78 76 77 79 83 87 98 106 107 108 111 111 114 115 94 85 94 100 111 134 162 189 186 121 130 178 157 145 159 122 79 9 0 0 0 0 0 0 0 0 0 0 0 0 0 0 0 0 0 0 0 0 0 0 0 0 0 0 0 0 0 0 0 0 0 0 0 0 0 0 0 0 0 
0 0 0 0 0 0 0 0 0 0 0 0 0 0 0 7 9 29 114 110 119 144 179 157 146 104 116 173 186 174 131 98 85 73 76 98 117 118 118 107 77 60 57 56 55 52 52 59 69 74 90 72 57 73 60 56 53 52 60 64 62 64 83 104 116 114 113 113 116 109 85 84 93 95 110 150 176 191 150 106 155 177 143 166 145 103 35 3 0 0 0 0 0 0 0 0 0 0 0 0 0 0 0 0 0 0 0 0 0 0 0 0 0 0 0 0 0 0 0 0 0 0 0 0 0 0 0 0 
0 0 0 0 0 0 0 0 0 0 0 0 0 0 0 10 11 84 115 115 129 170 160 148 121 104 150 192 181 139 102 92 75 77 91 114 117 114 105 81 60 54 52 51 51 50 53 55 55 59 84 75 54 55 51 51 51 52 51 52 52 53 55 68 91 108 112 111 114 118 100 83 86 96 97 120 162 189 178 112 120 175 153 160 149 120 69 5 0 0 0 0 0 0 0 0 0 0 0 0 0 0 0 0 0 0 0 0 0 0 0 0 0 0 0 0 0 0 0 0 0 0 0 0 0 0 0 0 
0 0 0 0 0 0 0 0 0 0 0 0 0 0 7 9 35 120 108 125 153 182 144 133 112 127 181 189 153 102 94 82 78 86 111 117 109 101 85 62 54 52 51 50 51 52 54 55 54 56 65 64 55 54 54 53 52 51 53 51 51 50 53 53 61 87 111 113 112 118 118 94 80 87 106 96 133 175 187 126 111 153 164 156 151 131 100 19 0 0 0 0 0 0 0 0 0 0 0 0 0 0 0 0 0 0 0 0 0 0 0 0 0 0 0 0 0 0 0 0 0 0 0 0 0 0 0 0 
0 0 0 0 0 0 0 0 0 0 0 0 0 0 11 13 88 113 114 139 176 167 134 123 116 140 187 165 115 94 75 76 85 107 120 101 93 89 70 56 51 49 50 50 53 55 57 57 56 57 56 57 57 57 58 56 56 54 53 52 51 50 51 52 54 72 104 115 112 117 124 112 82 79 97 100 94 146 185 138 119 136 161 156 159 134 115 40 3 0 0 0 0 0 0 0 0 0 0 0 0 0 0 0 0 0 0 0 0 0 0 0 0 0 0 0 0 0 0 0 0 0 0 0 0 0 0 0 
0 0 0 0 0 0 0 0 0 0 0 0 0 4 10 30 121 100 118 153 181 146 126 125 124 146 174 138 99 78 73 81 102 122 106 85 89 79 63 52 53 52 55 53 55 56 57 56 58 57 57 57 56 58 56 57 57 55 55 52 51 52 52 52 52 57 86 115 118 118 121 123 106 83 85 109 92 114 168 151 127 138 154 153 161 136 122 62 4 0 0 0 0 0 0 0 0 0 0 0 0 0 0 0 0 0 0 0 0 0 0 0 0 0 0 0 0 0 0 0 0 0 0 0 0 0 0 0 
0 0 0 0 0 0 0 0 0 0 0 0 0 6 11 70 121 97 130 164 168 125 132 126 134 148 156 127 87 72 78 98 118 113 80 85 85 74 57 55 55 55 54 55 56 56 57 55 57 57 59 58 56 58 58 57 58 56 54 54 54 54 54 53 51 52 67 99 120 120 118 124 124 99 82 104 102 104 149 154 130 145 153 153 162 132 126 80 7 0 0 0 0 0 0 0 0 0 0 0 0 0 0 0 0 0 0 0 0 0 0 0 0 0 0 0 0 0 0 0 0 0 0 0 0 0 0 0 
0 0 0 0 0 0 0 0 0 0 0 0 0 9 11 105 107 111 148 161 145 118 138 132 129 144 143 119 80 77 94 121 122 101 81 83 75 62 55 53 56 55 56 58 56 53 55 57 57 60 62 62 65 64 64 62 62 60 58 55 55 55 56 57 54 52 55 81 110 118 114 114 124 119 92 94 109 110 135 150 131 148 149 155 161 132 128 96 11 0 0 0 0 0 0 0 0 0 0 0 0 0 0 0 0 0 0 0 0 0 0 0 0 0 0 0 0 0 0 0 0 0 0 0 0 0 0 0 
0 0 0 0 0 0 0 0 0 0 0 0 0 12 25 124 97 124 159 144 126 121 145 134 116 145 135 115 79 80 116 125 114 88 77 76 59 52 57 55 56 56 60 57 56 60 67 76 87 95 100 102 110 110 110 108 107 100 90 76 64 59 58 58 55 53 52 74 96 108 109 108 115 124 113 94 108 115 128 144 126 142 142 154 164 144 132 106 20 0 0 0 0 0 0 0 0 0 0 0 0 0 0 0 0 0 0 0 0 0 0 0 0 0 0 0 0 0 0 0 0 0 0 0 0 0 0 0 
0 0 0 0 0 0 0 0 0 0 0 0 2 9 42 119 96 138 154 127 123 123 148 127 107 143 130 109 80 86 122 119 98 75 73 78 58 56 55 56 54 57 59 60 67 83 105 125 140 151 155 153 154 151 152 149 146 145 138 121 94 73 65 60 56 60 70 81 80 88 100 105 105 116 123 104 100 116 120 127 116 143 138 146 168 152 131 112 32 2 0 0 0 0 0 0 0 0 0 0 0 0 0 0 0 0 0 0 0 0 0 0 0 0 0 0 0 0 0 0 0 0 0 0 0 0 0 0 
0 0 0 0 0 0 0 0 0 0 0 0 4 8 60 114 102 149 146 125 125 130 149 114 104 141 130 107 80 89 124 110 78 68 74 82 61 57 56 54 55 58 62 70 87 109 133 150 156 158 164 161 155 125 122 116 109 129 147 147 128 100 82 70 76 87 85 79 71 74 88 100 100 107 121 115 90 122 123 115 111 150 147 144 167 162 130 116 43 3 0 0 0 0 0 0 0 0 0 0 0 0 0 0 0 0 0 0 0 0 0 0 0 0 0 0 0 0 0 0 0 0 0 0 0 0 0 0 
0 0 0 0 0 0 0 0 0 0 0 0 5 5 73 110 112 154 138 136 127 133 136 112 103 138 132 100 77 93 120 93 68 68 72 84 72 56 58 57 58 59 67 82 103 126 148 162 160 152 151 156 143 109 106 109 91 99 128 156 151 132 109 101 95 81 64 75 73 68 79 100 100 103 114 117 93 121 131 97 108 146 154 143 166 172 132 124 54 4 0 0 0 0 0 0 0 0 0 0 0 0 0 0 0 0 0 0 0 0 0 0 0 0 0 0 0 0 0 0 0 0 0 0 0 0 0 0 
0 0 0 0 0 0 0 0 0 0 0 0 5 6 88 106 125 156 135 153 129 133 131 116 101 135 128 91 80 95 109 77 67 67 70 79 86 76 72 71 65 68 83 105 129 147 165 172 163 149 141 149 142 113 116 109 99 91 120 151 159 155 136 107 73 65 75 76 67 62 72 95 102 99 103 119 109 127 116 74 110 139 151 141 167 178 135 130 63 4 0 0 0 0 0 0 0 0 0 0 0 0 0 0 0 0 0 0 0 0 0 0 0 0 0 0 0 0 0 0 0 0 0 0 0 0 0 0 
0 0 0 0 0 0 0 0 0 0 0 0 4 6 95 106 135 157 137 163 130 129 130 116 99 126 128 90 81 88 98 72 68 69 71 77 80 79 82 87 92 94 110 138 156 168 175 180 173 151 145 144 148 123 125 120 112 101 127 157 165 157 135 105 81 71 60 52 48 48 57 75 95 104 96 108 133 137 116 76 121 134 151 132 166 184 141 134 74 5 0 0 0 0 0 0 0 0 0 0 0 0 0 0 0 0 0 0 0 0 0 0 0 0 0 0 0 0 0 0 0 0 0 0 0 0 0 0 
0 0 0 0 0 0 0 0 0 0 0 0 4 10 98 110 140 148 132 170 138 124 134 120 96 116 120 81 82 83 91 67 67 73 66 57 55 56 59 68 73 86 110 138 155 165 173 185 179 160 148 142 158 137 135 132 123 111 137 168 160 138 118 99 80 66 55 50 49 47 53 72 82 91 110 109 149 148 114 87 122 137 141 121 163 190 148 134 87 8 0 0 0 0 0 0 0 0 0 0 0 0 0 0 0 0 0 0 0 0 0 0 0 0 0 0 0 0 0 0 0 0 0 0 0 0 0 0 
0 0 0 0 0 0 0 0 0 0 0 0 3 11 97 112 140 144 131 170 140 114 129 120 102 106 117 82 79 79 87 69 76 58 55 56 57 62 68 72 78 96 116 133 147 153 158 173 185 174 156 146 160 156 138 139 131 132 161 164 140 121 114 103 82 69 60 55 49 48 50 63 80 84 108 134 153 160 118 102 132 141 133 118 155 191 155 135 97 12 0 0 0 0 0 0 0 0 0 0 0 0 0 0 0 0 0 0 0 0 0 0 0 0 0 0 0 0 0 0 0 0 0 0 0 0 0 0 
0 0 0 0 0 0 0 0 0 0 0 0 6 14 91 115 145 155 135 167 142 114 130 124 107 102 122 106 79 79 87 83 59 51 55 59 61 72 79 83 91 107 125 136 142 148 154 157 174 189 177 159 158 174 177 178 172 182 167 137 132 122 123 108 91 77 66 59 54 54 66 82 108 118 115 137 157 147 126 107 133 137 123 120 148 184 157 138 100 16 0 0 0 0 0 0 0 0 0 0 0 0 0 0 0 0 0 0 0 0 0 0 0 0 0 0 0 0 0 0 0 0 0 0 0 0 0 0 
0 0 0 0 0 0 0 0 0 0 0 0 4 16 88 119 147 161 132 161 143 112 121 121 110 102 110 124 114 87 92 82 49 51 55 62 73 86 93 96 104 116 130 135 139 138 143 143 153 176 184 186 177 164 191 201 193 187 154 140 136 133 125 109 95 89 90 95 88 94 93 83 98 115 117 124 142 130 132 116 135 134 114 112 147 170 160 141 108 22 0 0 0 0 0 0 0 0 0 0 0 0 0 0 0 0 0 0 0 0 0 0 0 0 0 0 0 0 0 0 0 0 0 0 0 0 0 0 
0 0 0 0 0 0 0 0 0 0 0 0 5 14 84 123 145 147 112 158 145 110 108 115 114 104 101 112 120 123 121 90 71 68 70 74 85 104 110 113 122 131 135 136 135 136 139 136 135 166 179 183 178 154 182 188 182 183 151 145 138 134 129 126 125 116 100 92 86 82 82 80 92 109 117 109 123 124 131 120 137 138 115 102 141 150 156 140 113 28 0 0 0 0 0 0 0 0 0 0 0 0 0 0 0 0 0 0 0 0 0 0 0 0 0 0 0 0 0 0 0 0 0 0 0 0 0 0 
0 0 0 0 0 0 0 0 0 0 0 0 7 14 81 130 141 147 113 161 148 106 94 111 114 93 87 114 111 112 118 89 68 71 83 98 120 139 148 151 154 157 144 136 136 129 131 132 126 155 165 171 159 136 145 167 172 181 151 143 137 141 151 143 116 100 98 87 77 80 85 86 99 107 104 101 109 121 125 115 131 135 114 95 123 141 166 139 116 34 1 0 0 0 0 0 0 0 0 0 0 0 0 0 0 0 0 0 0 0 0 0 0 0 0 0 0 0 0 0 0 0 0 0 0 0 0 0 
0 0 0 0 0 0 0 0 0 0 0 0 6 16 83 133 140 139 120 162 150 95 90 112 111 96 83 111 117 105 112 86 78 77 89 97 114 131 143 149 155 160 161 153 139 128 122 128 120 150 159 148 128 134 124 146 174 177 147 139 147 155 142 119 94 81 85 91 89 83 79 86 102 100 98 94 106 127 125 113 127 135 111 98 105 133 172 142 119 40 2 0 0 0 0 0 0 0 0 0 0 0 0 0 0 0 0 0 0 0 0 0 0 0 0 0 0 0 0 0 0 0 0 0 0 0 0 0 
0 0 0 0 0 0 0 0 0 0 0 0 8 16 84 135 140 136 130 151 137 81 90 114 109 94 88 122 142 109 111 83 77 80 86 98 115 140 152 147 142 144 148 153 142 127 126 122 111 147 169 139 123 131 135 142 172 181 150 154 152 138 131 107 84 69 78 90 91 86 84 86 100 100 96 91 111 129 125 111 129 137 111 96 85 106 174 149 120 46 2 0 0 0 0 0 0 0 0 0 0 0 0 0 0 0 0 0 0 0 0 0 0 0 0 0 0 0 0 0 0 0 0 0 0 0 0 0 
0 0 0 0 0 0 0 0 0 0 0 0 8 18 83 139 139 132 138 141 117 80 88 109 90 80 95 128 148 127 112 92 83 91 96 87 104 129 152 145 138 136 129 130 131 137 141 133 121 158 169 147 146 142 141 145 163 200 159 156 141 134 119 95 78 60 65 78 80 79 83 87 99 97 91 91 115 127 119 119 135 138 114 98 78 101 162 135 118 53 4 0 0 0 0 0 0 0 0 0 0 0 0 0 0 0 0 0 0 0 0 0 0 0 0 0 0 0 0 0 0 0 0 0 0 0 0 0 
0 0 0 0 0 0 0 0 0 0 0 0 7 18 84 136 134 129 149 119 105 83 83 111 86 82 104 123 142 138 117 102 87 89 90 95 107 134 152 151 136 131 126 125 127 130 138 115 102 141 173 161 139 126 125 121 130 164 142 151 145 136 117 96 76 61 66 81 79 79 78 88 103 95 87 95 122 127 123 133 138 137 120 97 70 104 156 134 117 58 4 0 0 0 0 0 0 0 0 0 0 0 0 0 0 0 0 0 0 0 0 0 0 0 0 0 0 0 0 0 0 0 0 0 0 0 0 0 
0 0 0 0 0 0 0 0 0 0 0 0 9 20 81 131 132 123 138 99 109 92 81 108 90 84 106 121 131 141 127 117 88 78 82 93 105 130 151 158 139 133 125 123 124 119 125 101 88 122 151 149 107 106 119 117 127 148 131 133 142 138 125 103 77 61 68 75 76 77 77 86 105 96 84 97 129 128 117 130 135 138 125 98 65 97 156 140 115 60 4 0 0 0 0 0 0 0 0 0 0 0 0 0 0 0 0 0 0 0 0 0 0 0 0 0 0 0 0 0 0 0 0 0 0 0 0 0 
0 0 0 0 0 0 0 0 0 0 0 0 9 17 77 127 133 116 133 97 105 99 79 106 90 85 107 122 118 136 134 125 99 83 81 80 97 131 151 163 149 132 130 117 110 112 115 98 93 111 130 117 105 104 110 92 119 151 134 132 138 134 122 102 80 65 70 77 77 72 71 76 99 88 79 103 124 115 90 131 130 134 122 90 61 99 153 127 106 60 3 0 0 0 0 0 0 0 0 0 0 0 0 0 0 0 0 0 0 0 0 0 0 0 0 0 0 0 0 0 0 0 0 0 0 0 0 0 
0 0 0 0 0 0 0 0 0 0 0 0 6 17 79 122 133 115 146 99 105 109 85 100 91 88 105 122 117 123 139 123 96 86 85 95 114 137 154 162 151 128 130 120 111 115 108 94 93 108 111 107 104 107 111 101 111 144 133 125 140 137 122 98 78 70 81 79 74 66 66 72 90 83 82 106 117 96 74 131 134 130 119 80 64 101 137 114 107 60 2 0 0 0 0 0 0 0 0 0 0 0 0 0 0 0 0 0 0 0 0 0 0 0 0 0 0 0 0 0 0 0 0 0 0 0 0 0 
0 0 0 0 0 0 0 0 0 0 0 0 3 17 79 113 132 105 147 103 101 110 86 90 94 88 104 125 120 114 129 119 93 76 77 89 111 133 157 157 143 119 114 117 113 107 102 87 91 107 102 104 107 112 122 115 111 119 145 123 151 139 124 96 73 72 83 74 68 63 66 71 87 84 84 108 116 90 70 123 138 135 113 69 68 111 128 106 104 59 3 0 0 0 0 0 0 0 0 0 0 0 0 0 0 0 0 0 0 0 0 0 0 0 0 0 0 0 0 0 0 0 0 0 0 0 0 0 
0 0 0 0 0 0 0 0 0 0 2 0 0 15 72 104 129 96 145 113 99 110 86 82 92 90 106 127 119 103 116 108 94 73 74 90 110 136 159 154 144 118 112 109 110 130 109 87 88 101 102 99 112 126 128 125 117 116 137 127 148 162 141 109 85 74 70 62 63 66 61 66 83 83 89 115 113 89 93 131 145 133 102 56 76 126 114 107 105 55 3 0 0 0 0 0 0 0 0 0 0 0 0 0 0 0 0 0 0 0 0 0 0 0 0 0 0 0 0 0 0 0 0 0 0 0 0 0 
0 0 0 0 0 0 0 0 0 6 18 2 0 6 62 95 131 96 122 125 99 107 91 77 85 90 112 130 110 83 85 100 96 86 78 81 106 133 153 150 142 131 117 122 137 108 105 101 103 93 92 86 107 133 119 115 118 123 128 139 133 159 179 161 118 75 64 62 60 64 66 72 83 85 97 120 93 66 101 156 157 133 88 47 89 126 112 119 104 52 3 0 0 0 0 0 0 0 0 0 0 0 0 0 0 0 0 0 0 0 0 0 0 0 0 0 0 0 0 0 0 0 0 0 0 0 0 0 
0 0 0 0 0 0 0 0 0 2 12 12 3 4 45 88 123 102 94 134 109 103 95 73 77 85 115 129 98 81 70 66 84 78 69 72 102 135 148 145 147 136 124 133 144 149 114 104 107 89 101 91 115 138 120 114 116 117 138 170 159 162 160 139 132 125 105 90 68 63 70 87 92 93 115 108 73 72 102 153 161 127 75 50 119 114 112 121 105 43 1 0 0 0 0 0 0 0 0 0 0 0 0 0 0 0 0 0 0 0 0 0 0 0 0 0 0 0 0 0 0 0 0 0 0 0 0 0 
0 0 0 0 0 0 0 0 0 1 5 7 2 4 29 78 121 116 77 123 109 104 104 87 73 82 120 127 93 83 64 44 60 84 78 84 104 132 147 152 147 140 150 144 126 149 124 100 116 103 90 94 121 135 131 122 116 122 139 173 164 174 167 135 97 89 125 129 138 132 132 132 120 124 119 93 72 62 106 160 154 103 59 85 126 91 111 126 94 28 1 0 0 0 0 0 0 0 0 0 0 0 0 0 0 0 0 0 0 0 0 0 0 0 0 0 0 0 0 0 0 0 0 0 0 0 0 0 
0 0 0 0 0 0 0 0 0 0 4 5 6 3 19 70 115 127 85 111 136 106 103 100 78 81 122 123 90 80 67 50 81 133 149 142 148 160 168 174 172 159 139 142 156 140 113 126 137 101 89 102 125 137 133 122 123 129 145 196 186 152 134 111 85 77 144 119 107 124 141 163 162 148 136 102 82 77 121 169 151 95 69 134 105 109 150 120 79 14 4 4 14 13 2 0 0 0 0 0 0 0 0 0 0 0 0 0 0 0 0 0 0 0 0 0 0 0 0 0 0 0 0 0 0 0 0 0 
0 0 0 0 0 0 0 0 0 0 0 2 6 2 14 63 111 134 113 95 140 113 107 112 84 75 116 122 90 79 76 69 111 133 132 131 135 152 166 172 180 168 168 174 168 149 143 129 126 122 103 111 131 140 133 125 128 144 163 213 185 145 114 90 82 103 176 183 171 167 172 173 171 160 142 111 103 117 151 172 146 88 100 146 143 136 161 108 56 7 2 5 3 5 0 0 0 0 0 0 0 0 0 0 0 0 0 0 0 0 0 0 0 0 0 0 0 0 0 0 0 0 0 0 0 0 0 0 
0 0 0 0 0 0 0 0 0 0 0 2 7 3 7 51 104 125 134 96 135 128 118 109 102 81 109 127 93 79 86 90 126 138 128 126 127 129 150 153 167 158 159 170 165 151 150 133 136 143 109 99 132 129 121 123 127 149 161 203 166 131 104 88 89 114 132 153 169 169 161 159 151 166 152 112 98 136 163 175 140 101 129 148 173 156 159 91 33 5 0 6 0 3 0 0 0 0 0 0 0 0 0 0 0 0 0 0 0 0 0 0 0 0 0 0 0 0 0 0 0 0 0 0 0 0 0 0 
0 0 0 0 0 0 0 0 0 0 0 2 10 5 9 45 99 118 127 116 128 158 132 115 117 109 106 120 112 105 116 79 91 134 150 169 180 166 143 142 154 157 157 148 153 159 157 145 137 112 97 86 85 97 94 102 113 127 141 151 128 90 84 88 88 97 80 95 133 136 136 147 155 158 126 127 148 157 164 189 156 126 126 156 211 155 133 77 15 3 2 4 0 0 0 0 0 0 0 0 0 0 0 0 0 0 0 0 0 0 0 0 0 0 0 0 0 0 0 0 0 0 0 0 0 0 0 0 
0 0 0 0 0 0 0 0 0 0 0 4 13 4 7 27 91 120 118 116 139 179 145 122 135 148 129 118 106 112 114 117 113 129 160 185 185 171 145 129 110 133 139 127 144 151 139 110 94 84 71 70 60 78 66 78 92 105 110 114 99 65 75 96 109 88 60 60 87 111 117 130 145 134 108 119 163 175 178 190 191 187 155 175 196 148 137 60 7 5 5 3 0 0 0 0 0 0 0 0 0 0 0 0 0 0 0 0 0 0 0 0 0 0 0 0 0 0 0 0 0 0 0 0 0 0 0 0 
0 0 0 0 0 0 0 0 0 0 0 1 10 0 1 13 49 117 131 113 124 158 172 134 135 157 144 107 111 113 105 111 116 129 136 140 163 177 159 109 84 94 126 111 116 116 116 90 79 90 80 64 56 78 87 65 69 92 81 88 101 88 72 78 101 133 67 54 71 106 119 136 138 134 103 118 152 163 163 158 168 169 146 136 138 147 153 74 5 0 1 7 0 0 0 0 0 0 0 0 0 0 0 0 0 0 0 0 0 0 0 0 0 0 0 0 0 0 0 0 0 0 0 0 0 0 0 0 
0 0 0 0 0 0 0 0 0 0 0 2 10 1 1 9 31 100 123 118 120 148 144 130 158 165 170 159 114 84 95 104 123 125 128 136 131 151 124 74 63 79 98 97 94 101 108 80 88 72 57 65 64 95 82 53 56 73 68 64 69 84 72 116 135 138 74 68 86 108 139 150 154 126 109 144 144 137 114 127 156 162 117 114 76 110 131 43 2 0 2 7 0 0 0 0 0 0 0 0 0 0 0 0 0 0 0 0 0 0 0 0 0 0 0 0 0 0 0 0 0 0 0 0 0 0 0 0 
0 0 0 0 0 0 0 0 0 0 0 2 11 2 3 8 16 77 120 128 140 131 129 114 148 169 173 161 104 59 78 105 118 100 94 119 97 116 93 64 57 62 75 106 102 103 98 72 72 52 49 49 39 81 90 62 50 71 67 55 62 78 67 104 119 101 78 84 86 113 146 158 152 120 135 143 135 109 75 110 163 153 99 95 99 96 93 19 3 0 4 5 0 0 0 0 0 0 0 0 0 0 0 0 0 0 0 0 0 0 0 0 0 0 0 0 0 0 0 0 0 0 0 0 0 0 0 0 
0 0 0 0 0 0 0 0 0 0 0 2 9 2 4 9 20 54 122 157 155 98 113 125 113 124 136 151 137 98 59 94 108 89 78 97 82 84 80 83 85 82 78 105 99 73 82 63 76 72 81 70 45 79 96 86 56 82 75 66 65 99 82 124 119 89 85 88 94 117 163 167 146 147 142 130 111 97 73 113 137 130 85 73 95 107 66 10 3 2 6 4 0 0 0 0 0 0 0 0 0 0 0 0 0 0 0 0 0 0 0 0 0 0 0 0 0 0 0 0 0 0 0 0 0 0 0 0 
0 0 0 0 0 0 0 0 0 0 0 1 9 2 9 14 20 29 94 112 132 101 119 122 87 94 119 138 138 144 134 78 74 114 93 88 83 86 100 105 95 60 85 102 88 93 121 52 92 91 78 78 66 67 99 104 61 86 71 67 84 128 114 143 127 101 93 98 101 99 128 163 161 157 139 126 116 118 87 109 108 131 112 30 73 96 48 15 9 5 8 4 0 0 0 0 0 0 0 0 0 0 0 0 0 0 0 0 0 0 0 0 0 0 0 0 0 0 0 0 0 0 0 0 0 0 0 0 
0 0 0 0 0 0 0 0 0 0 0 0 7 3 13 14 12 8 54 111 125 111 109 105 75 83 128 153 153 178 191 177 143 76 94 111 102 89 97 80 55 56 80 102 96 86 122 110 112 93 79 78 76 81 119 118 111 108 94 95 105 134 135 128 126 114 103 100 80 75 106 177 198 169 130 123 139 142 117 119 127 142 90 52 74 66 21 19 15 11 12 4 0 0 0 0 0 0 0 0 0 0 0 0 0 0 0 0 0 0 0 0 0 0 0 0 0 0 0 0 0 0 0 0 0 0 0 0 
0 0 0 0 0 0 0 0 0 0 0 0 5 6 9 10 7 6 28 107 140 106 111 110 86 75 126 162 153 171 188 178 135 91 107 124 133 102 89 91 73 70 81 98 119 107 117 104 131 130 114 112 109 111 120 108 112 146 154 151 130 133 135 128 134 124 102 77 59 97 135 168 198 168 125 126 137 134 133 127 86 87 61 64 67 46 7 14 17 16 14 4 0 0 0 0 0 0 0 0 0 0 0 0 0 0 0 0 0 0 0 0 0 0 0 0 0 0 0 0 0 0 0 0 0 0 0 0 
0 0 0 0 0 0 0 0 0 0 0 0 9 9 2 5 6 9 13 78 137 106 117 137 115 123 148 158 147 179 180 174 171 140 78 75 102 108 96 101 93 92 95 97 111 126 138 105 126 147 157 166 175 171 158 155 159 168 159 146 144 146 143 128 131 124 84 64 82 128 136 147 183 176 139 120 103 131 119 125 92 61 39 63 79 21 5 9 16 18 17 3 0 0 0 0 0 0 0 0 0 0 0 0 0 0 0 0 0 0 0 0 0 0 0 0 0 0 0 0 0 0 0 0 0 0 0 0 
0 0 0 0 0 0 0 0 0 0 0 0 14 7 0 0 6 9 10 44 125 108 98 129 115 141 166 149 128 162 178 165 163 139 123 107 81 87 101 105 117 102 101 111 130 142 146 137 155 165 175 163 161 177 173 175 180 149 122 122 130 138 140 129 127 138 137 123 133 135 133 146 164 171 128 99 112 145 121 100 142 129 114 139 69 9 3 6 11 17 21 3 0 0 0 0 0 0 0 0 0 0 0 0 0 0 0 0 0 0 0 0 0 0 0 0 0 0 0 0 0 0 0 0 0 0 0 0 
0 0 0 0 0 0 0 0 0 0 0 0 12 7 0 0 3 4 12 17 98 136 99 123 139 135 161 154 112 111 163 164 152 118 103 113 118 108 115 125 145 140 138 142 159 158 143 148 167 172 175 163 149 171 171 170 172 171 148 143 150 154 154 154 166 178 191 185 158 148 140 131 133 129 104 118 165 157 117 93 131 125 145 148 46 12 5 6 4 6 13 4 0 0 0 0 0 0 0 0 0 0 0 0 0 0 0 0 0 0 0 0 0 0 0 0 0 0 0 0 0 0 0 0 0 0 0 0 
0 0 0 0 0 0 0 0 0 0 0 0 8 5 0 0 0 5 7 13 63 114 110 137 139 152 167 149 122 102 136 148 133 127 111 113 117 122 124 132 143 154 164 177 179 164 152 158 167 161 170 167 150 168 168 174 181 179 153 163 170 168 182 168 160 175 202 197 161 120 75 80 101 95 122 166 198 179 159 130 106 84 140 105 33 20 6 5 0 4 10 8 0 0 0 0 0 0 0 0 0 0 0 0 0 0 0 0 0 0 0 0 0 0 0 0 0 0 0 0 0 0 0 0 0 0 0 0 
0 0 0 0 0 0 0 0 0 0 0 0 5 6 13 12 8 9 7 16 52 94 129 112 99 99 176 171 130 102 140 129 139 94 79 94 109 139 153 162 156 161 173 186 170 151 142 155 165 165 171 173 164 146 153 150 167 186 167 166 171 171 186 199 178 179 189 154 101 71 49 57 75 87 128 183 194 171 170 130 133 143 124 71 28 17 11 6 8 12 9 10 1 0 0 0 0 0 0 0 0 0 0 0 0 0 0 0 0 0 0 0 0 0 0 0 0 0 0 0 0 0 0 0 0 0 0 0 
0 0 0 0 0 0 0 0 0 0 0 0 4 5 9 10 14 14 11 12 33 73 86 84 80 92 152 163 148 101 138 116 118 98 47 62 85 96 109 130 151 178 197 201 185 165 158 174 183 178 144 176 172 153 135 139 151 168 185 187 181 185 192 170 173 155 146 130 104 91 63 67 82 118 135 173 169 155 155 114 127 140 100 54 21 18 16 12 12 14 7 8 5 0 0 0 0 0 0 0 0 0 0 0 0 0 0 0 0 0 0 0 0 0 0 0 0 0 0 0 0 0 0 0 0 0 0 0 
0 0 0 0 0 0 0 0 0 0 0 0 6 7 6 13 13 9 12 14 20 48 73 48 67 90 115 126 120 131 151 137 113 141 102 65 55 45 45 61 106 130 146 152 150 123 109 126 148 142 134 143 132 140 133 112 113 114 122 113 116 147 135 141 147 144 172 155 126 126 114 86 111 119 122 164 122 96 112 74 50 77 77 31 14 8 10 14 9 3 0 2 4 0 0 0 0 0 0 0 0 0 0 0 0 0 0 0 0 0 0 0 0 0 0 0 0 0 0 0 0 0 0 0 0 0 0 0 
0 0 0 0 0 0 0 0 0 0 0 0 6 5 5 5 9 9 10 15 16 19 53 37 42 56 72 131 126 143 156 149 112 130 138 97 80 62 63 122 93 117 123 137 152 111 93 134 166 159 136 90 91 118 130 127 122 122 113 91 85 120 123 129 122 148 185 158 129 177 140 122 122 109 93 129 87 55 81 75 79 83 44 13 19 0 1 6 7 0 0 4 6 0 0 0 0 0 0 0 0 0 0 0 0 0 0 0 0 0 0 0 0 0 0 0 0 0 0 0 0 0 0 0 0 0 0 0 
0 0 0 0 0 0 0 0 0 0 0 0 2 2 2 0 1 8 6 4 11 17 38 68 49 43 46 73 71 121 146 155 95 102 123 94 96 100 121 165 161 175 177 186 188 174 155 148 165 168 167 133 139 144 135 136 143 141 131 150 185 188 154 166 143 170 177 185 161 103 117 103 65 76 64 97 76 59 62 64 55 33 17 14 18 0 0 4 2 1 2 3 7 0 0 0 0 0 0 0 0 0 0 0 0 0 0 0 0 0 0 0 0 0 0 0 0 0 0 0 0 0 0 0 0 0 0 0 
0 0 0 0 0 0 0 0 0 0 0 0 0 2 1 0 0 0 5 5 10 18 33 57 86 77 42 74 75 64 65 125 76 76 117 153 132 156 176 180 164 155 168 172 168 178 189 173 159 191 170 146 136 121 115 141 166 170 158 147 156 218 212 178 170 146 162 176 154 96 63 74 72 69 72 101 79 78 61 38 45 47 25 28 26 0 0 1 0 0 0 3 4 0 0 0 0 0 0 0 0 0 0 0 0 0 0 0 0 0 0 0 0 0 0 0 0 0 0 0 0 0 0 0 0 0 0 0 
0 0 0 0 0 0 0 0 0 0 0 0 0 3 5 0 0 0 4 10 12 18 20 21 40 52 42 66 70 61 55 109 83 68 84 132 140 111 105 92 84 93 97 130 130 138 166 166 151 99 74 82 105 94 100 106 78 107 146 169 153 124 94 129 84 134 151 131 105 83 52 52 64 77 90 140 71 68 58 41 33 23 14 12 9 0 0 0 0 0 0 4 3 0 0 0 0 0 0 0 0 0 0 0 0 0 0 0 0 0 0 0 0 0 0 0 0 0 0 0 0 0 0 0 0 0 0 0 
0 0 0 0 0 0 0 0 0 0 0 0 0 0 5 0 0 0 0 2 10 12 16 15 16 21 29 51 79 68 52 110 65 47 57 65 124 89 78 58 54 53 73 66 58 76 81 92 68 43 45 65 89 85 85 100 63 47 67 92 79 76 71 66 63 92 85 71 86 65 87 111 115 85 90 143 75 72 55 36 31 22 14 9 4 0 0 0 0 0 3 4 2 0 0 0 0 0 0 0 0 0 0 0 0 0 0 0 0 0 0 0 0 0 0 0 0 0 0 0 0 0 0 0 0 0 0 0 
0 0 0 0 0 0 0 0 0 0 0 0 0 0 0 0 0 0 0 0 9 14 13 16 16 22 36 46 84 70 44 95 76 52 40 41 103 126 140 129 133 124 93 82 53 57 63 77 69 39 44 67 89 84 80 83 61 43 75 114 111 119 111 102 122 135 86 18 16 80 93 65 72 78 97 140 77 82 61 46 36 25 17 15 2 0 0 0 0 0 2 1 0 0 0 0 0 0 0 0 0 0 0 0 0 0 0 0 0 0 0 0 0 0 0 0 0 0 0 0 0 0 0 0 0 0 0 0 
0 0 0 0 0 0 0 0 0 0 0 0 0 0 0 0 0 0 0 0 1 7 2 5 17 26 30 38 80 64 40 62 59 54 63 75 154 160 144 105 108 118 172 123 90 92 103 118 98 58 63 63 90 88 79 92 80 73 95 162 170 166 152 148 116 133 84 34 65 85 135 147 133 120 101 130 90 87 48 41 19 9 7 20 4 0 0 0 0 0 0 0 0 0 0 0 0 0 0 0 0 0 0 0 0 0 0 0 0 0 0 0 0 0 0 0 0 0 0 0 0 0 0 0 0 0 0 0 
0 0 0 0 0 0 0 0 0 0 0 0 0 0 0 0 0 0 0 0 0 5 6 1 4 17 16 23 66 65 46 44 41 48 44 50 126 147 134 51 77 128 164 119 123 156 196 137 88 111 112 93 130 129 139 133 120 143 187 202 187 175 172 168 99 140 84 102 84 164 157 164 164 104 56 86 57 73 47 47 19 5 0 4 0 0 0 0 0 0 0 0 0 0 0 0 0 0 0 0 0 0 0 0 0 0 0 0 0 0 0 0 0 0 0 0 0 0 0 0 0 0 0 0 0 0 0 0 
0 0 0 0 0 0 0 0 0 0 0 0 0 0 0 0 0 0 0 0 0 1 6 1 7 10 20 28 65 74 62 58 79 60 74 81 123 159 132 83 92 110 120 95 105 106 159 119 109 124 142 136 144 131 134 132 132 125 128 136 127 121 100 120 139 89 73 49 103 143 116 101 92 62 58 119 64 59 44 45 7 9 16 4 0 0 0 0 0 0 0 0 0 0 0 0 0 0 0 0 0 0 0 0 0 0 0 0 0 0 0 0 0 0 0 0 0 0 0 0 0 0 0 0 0 0 0 0 
0 0 0 0 0 0 0 0 0 0 0 0 0 0 0 0 0 0 0 0 0 0 9 13 6 12 19 22 47 52 60 54 100 47 38 43 79 110 121 90 80 103 108 80 60 80 129 110 84 97 113 90 113 103 115 133 164 143 109 131 104 91 103 96 104 132 125 115 100 89 101 64 27 33 53 131 58 45 27 15 6 9 16 3 0 0 0 0 0 0 0 0 0 0 0 0 0 0 0 0 0 0 0 0 0 0 0 0 0 0 0 0 0 0 0 0 0 0 0 0 0 0 0 0 0 0 0 0 
0 0 0 0 0 0 0 0 0 0 0 0 0 0 0 0 0 0 0 0 0 0 5 13 9 11 16 20 31 43 54 57 113 49 35 42 72 80 55 44 63 79 90 91 95 107 119 85 70 76 76 70 76 75 78 77 81 103 107 122 104 74 67 62 73 117 127 108 102 72 91 70 37 29 43 126 70 53 25 16 14 10 10 2 0 0 0 0 0 0 0 0 0 0 0 0 0 0 0 0 0 0 0 0 0 0 0 0 0 0 0 0 0 0 0 0 0 0 0 0 0 0 0 0 0 0 0 0 
0 0 0 0 0 0 0 0 0 0 0 0 0 0 0 0 0 0 0 0 0 0 3 9 11 9 12 20 21 42 47 62 114 49 32 48 74 65 65 75 72 64 85 89 113 109 118 93 95 82 68 63 56 58 67 66 83 98 111 123 112 87 91 108 109 102 107 105 105 92 94 106 60 36 45 124 74 56 26 16 14 10 9 1 0 0 0 0 0 0 0 0 0 0 0 0 0 0 0 0 0 0 0 0 0 0 0 0 0 0 0 0 0 0 0 0 0 0 0 0 0 0 0 0 0 0 0 0 
0 0 0 0 0 0 0 0 0 0 0 0 0 0 0 0 0 0 0 0 0 0 0 8 10 10 9 15 21 34 51 55 111 47 36 68 89 80 69 53 51 48 74 89 139 137 143 103 117 121 78 62 55 52 57 63 73 77 111 135 137 118 105 89 122 104 91 94 102 95 89 110 97 43 42 119 77 48 31 15 13 11 7 0 0 0 0 0 0 0 0 0 0 0 0 0 0 0 0 0 0 0 0 0 0 0 0 0 0 0 0 0 0 0 0 0 0 0 0 0 0 0 0 0 0 0 0 0 
0 0 0 0 0 0 0 0 0 0 0 0 0 0 0 0 0 0 0 0 0 0 0 0 9 10 11 12 16 22 39 48 114 63 45 90 98 61 39 40 43 48 67 107 160 151 136 88 99 119 92 69 57 52 52 65 61 84 122 132 109 108 97 88 126 133 91 72 75 75 73 101 132 61 36 120 97 49 25 15 15 11 6 0 0 0 0 0 0 0 0 0 0 0 0 0 0 0 0 0 0 0 0 0 0 0 0 0 0 0 0 0 0 0 0 0 0 0 0 0 0 0 0 0 0 0 0 0 
0 0 0 0 0 0 0 0 0 0 0 0 0 0 0 0 0 0 0 0 0 0 0 0 4 7 13 13 13 15 21 34 115 74 68 116 98 56 37 35 42 48 69 130 167 140 87 56 85 123 111 75 58 53 63 66 64 83 121 125 98 121 100 87 116 153 116 57 47 41 36 63 141 115 46 112 88 38 12 15 16 9 3 0 0 0 0 0 0 0 0 0 0 0 0 0 0 0 0 0 0 0 0 0 0 0 0 0 0 0 0 0 0 0 0 0 0 0 0 0 0 0 0 0 0 0 0 0 
0 0 0 0 0 0 0 0 0 0 0 0 0 0 0 0 0 0 0 0 0 0 0 0 0 8 7 12 11 14 21 28 97 109 91 103 86 52 35 35 41 46 76 113 138 116 69 59 59 109 128 91 57 49 56 67 70 71 106 137 150 123 82 79 84 134 118 68 44 37 28 50 118 139 75 105 39 14 13 14 15 10 2 0 0 0 0 0 0 0 0 0 0 0 0 0 0 0 0 0 0 0 0 0 0 0 0 0 0 0 0 0 0 0 0 0 0 0 0 0 0 0 0 0 0 0 0 0 
0 0 0 0 0 0 0 0 0 0 0 0 0 0 0 0 0 0 0 0 0 0 0 0 0 10 5 10 12 14 15 26 43 97 78 65 82 54 35 35 47 58 83 73 105 111 69 58 58 103 142 117 85 72 65 80 77 75 104 142 155 111 72 67 79 125 84 68 47 37 30 52 98 109 84 54 19 13 16 16 14 8 1 0 0 0 0 0 0 0 0 0 0 0 0 0 0 0 0 0 0 0 0 0 0 0 0 0 0 0 0 0 0 0 0 0 0 0 0 0 0 0 0 0 0 0 0 0 
0 0 0 0 0 0 0 0 0 0 0 0 0 0 0 0 0 0 0 0 0 0 0 0 0 0 8 5 13 15 14 19 16 14 14 32 78 66 38 37 45 57 72 52 88 99 69 60 74 111 117 107 87 63 49 75 92 92 113 133 153 128 75 57 82 123 64 58 52 34 32 54 89 59 28 22 16 11 16 17 11 4 0 0 0 0 0 0 0 0 0 0 0 0 0 0 0 0 0 0 0 0 0 0 0 0 0 0 0 0 0 0 0 0 0 0 0 0 0 0 0 0 0 0 0 0 0 0 
0 0 0 0 0 0 0 0 0 0 0 0 0 0 0 0 0 0 0 0 0 0 0 0 0 0 3 7 8 12 14 15 14 13 15 22 65 78 48 33 41 63 74 59 104 111 60 62 95 124 124 120 111 87 79 83 97 106 120 129 152 141 84 68 82 119 71 60 70 38 37 64 91 54 26 18 11 11 15 15 8 3 0 0 0 0 0 0 0 0 0 0 0 0 0 0 0 0 0 0 0 0 0 0 0 0 0 0 0 0 0 0 0 0 0 0 0 0 0 0 0 0 0 0 0 0 0 0 
0 0 0 0 0 0 0 0 0 0 0 0 0 0 0 0 0 0 0 0 0 0 0 0 0 0 0 8 6 9 12 14 15 13 13 16 37 83 77 55 61 86 75 60 113 135 83 68 87 103 128 131 118 100 93 89 93 110 123 134 148 142 104 87 103 142 86 59 89 76 71 92 84 36 24 16 10 13 13 12 5 2 0 0 0 0 0 0 0 0 0 0 0 0 0 0 0 0 0 0 0 0 0 0 0 0 0 0 0 0 0 0 0 0 0 0 0 0 0 0 0 0 0 0 0 0 0 0 
0 0 0 0 0 0 0 0 0 0 0 0 0 0 0 0 0 0 0 0 0 0 0 0 0 0 0 9 4 5 9 10 14 10 11 11 19 48 86 89 91 91 62 55 124 156 96 60 79 112 134 128 111 97 87 87 90 99 115 124 139 145 117 105 108 156 119 49 76 89 92 92 45 29 24 15 12 11 12 10 4 2 0 0 0 0 0 0 0 0 0 0 0 0 0 0 0 0 0 0 0 0 0 0 0 0 0 0 0 0 0 0 0 0 0 0 0 0 0 0 0 0 0 0 0 0 0 0 
0 0 0 0 0 0 0 0 0 0 0 0 0 0 0 0 0 0 0 0 0 0 0 0 0 0 0 4 8 4 7 8 11 17 11 9 18 28 37 66 76 62 45 49 124 165 122 73 93 120 120 117 104 84 72 69 68 80 98 116 127 134 117 99 132 171 133 46 40 60 60 37 30 31 25 16 10 11 13 11 5 2 0 0 0 0 0 0 0 0 0 0 0 0 0 0 0 0 0 0 0 0 0 0 0 0 0 0 0 0 0 0 0 0 0 0 0 0 0 0 0 0 0 0 0 0 0 0 
0 0 0 0 0 0 0 0 0 0 0 0 0 0 0 0 0 0 0 0 0 0 0 0 0 0 0 0 4 9 5 8 8 13 15 12 11 24 30 32 34 34 35 45 114 163 151 133 136 123 113 104 89 71 60 60 67 84 96 111 122 117 129 135 155 179 132 40 22 25 28 27 28 29 25 16 11 16 15 13 5 2 0 0 0 0 0 0 0 0 0 0 0 0 0 0 0 0 0 0 0 0 0 0 0 0 0 0 0 0 0 0 0 0 0 0 0 0 0 0 0 0 0 0 0 0 0 0 
0 0 0 0 0 0 0 0 0 0 0 0 0 0 0 0 0 0 0 0 0 0 0 0 0 0 0 0 0 9 4 7 9 8 15 15 8 18 30 32 33 37 35 41 79 134 166 152 146 120 100 80 68 64 65 62 64 75 85 92 105 108 137 161 165 146 70 28 16 20 27 29 25 28 20 17 13 19 18 14 7 2 0 0 0 0 0 0 0 0 0 0 0 0 0 0 0 0 0 0 0 0 0 0 0 0 0 0 0 0 0 0 0 0 0 0 0 0 0 0 0 0 0 0 0 0 0 0 
0 0 0 0 0 0 0 0 0 0 0 0 0 0 0 0 0 0 0 0 0 0 0 0 0 0 0 0 0 4 5 5 11 7 14 14 12 21 28 28 33 40 34 44 56 69 121 165 149 97 67 56 57 58 57 57 61 64 72 85 113 90 117 167 136 66 40 31 20 22 23 30 25 25 16 15 16 18 18 15 8 1 0 0 0 0 0 0 0 0 0 0 0 0 0 0 0 0 0 0 0 0 0 0 0 0 0 0 0 0 0 0 0 0 0 0 0 0 0 0 0 0 0 0 0 0 0 0 
