P2
128 99
230
0 0 0 0 0 0 0 0 0 0 0 0 0 0 0 0 0 0 0 0 0 0 0 0 0 0 0 0 0 0 0 0 0 0 0 0 0 0 0 0 1 2 1 1 0 0 0 0 0 0 0 0 0 0 0 0 0 0 0 0 0 0 0 0 0 0 0 0 0 0 0 0 0 0 0 0 0 0 0 0 0 0 0 1 2 1 1 0 0 0 0 0 0 0 0 0 0 0 0 0 0 0 0 0 0 0 0 0 0 0 0 0 0 0 0 0 0 0 0 0 0 0 0 0 0 0 0 0 
0 0 0 0 0 0 0 0 0 0 0 0 0 0 0 0 0 0 0 0 0 0 0 0 0 0 0 0 0 0 0 0 0 0 0 0 0 0 0 0 1 2 2 1 0 0 0 0 0 0 0 0 0 0 0 0 0 0 0 0 0 0 0 0 0 0 0 0 0 0 0 0 0 0 0 0 0 0 0 0 0 0 0 1 2 2 1 0 0 0 0 0 0 0 0 0 0 0 0 0 0 0 0 0 0 0 0 0 0 0 0 0 0 0 0 0 0 0 0 0 0 0 0 0 0 0 0 0 
0 0 0 0 0 0 0 0 0 0 0 0 0 0 0 0 0 0 0 0 0 0 0 0 0 0 0 0 0 0 0 0 0 0 0 0 0 0 0 0 2 2 2 1 0 0 0 0 0 0 0 0 1 0 1 0 0 0 0 0 0 0 0 0 0 0 0 0 0 0 0 0 0 0 0 0 0 0 0 0 0 0 0 1 2 2 1 0 0 0 0 0 0 0 0 0 0 0 0 0 0 0 0 0 0 0 0 0 0 0 0 0 0 0 0 0 0 0 0 0 0 0 0 0 0 0 0 0 
0 0 0 0 0 0 0 0 0 0 0 0 0 0 0 0 0 0 0 0 0 0 0 0 0 0 0 0 0 0 0 0 0 0 0 0 0 0 0 0 1 2 2 0 3 16 18 16 16 17 18 23 27 26 23 20 18 14 13 12 6 0 0 0 0 0 0 0 0 0 0 0 0 0 0 0 0 0 0 0 0 0 0 1 2 2 1 0 0 0 0 0 0 0 0 0 0 0 0 0 0 0 0 0 0 0 0 0 0 0 0 0 0 0 0 0 0 0 0 0 0 0 0 0 0 0 0 0 
0 0 0 0 0 0 0 0 0 0 0 0 0 0 0 0 0 0 0 0 0 0 0 0 0 0 0 0 0 0 0 0 0 0 0 0 0 0 0 0 6 13 23 23 22 27 49 79 98 115 129 137 139 139 135 126 114 96 78 56 34 20 16 12 3 0 0 0 0 0 0 0 0 0 0 0 0 0 0 0 0 0 0 0 2 2 1 0 0 0 0 0 0 0 0 0 0 0 0 0 0 0 0 0 0 0 0 0 0 0 0 0 0 0 0 0 0 0 0 0 0 0 0 0 0 0 0 0 
0 0 0 0 0 0 0 0 0 0 0 0 0 0 0 0 0 0 0 0 0 0 0 0 0 0 0 0 0 0 0 0 0 0 0 0 0 1 5 16 24 26 30 68 110 142 156 157 161 168 173 176 179 181 184 183 180 172 160 148 130 108 81 46 24 16 12 3 0 0 0 0 0 0 0 0 0 0 0 0 0 0 0 1 2 2 1 0 0 0 0 0 0 0 0 0 0 0 0 0 0 0 0 0 0 0 0 0 0 0 0 0 0 0 0 0 0 0 0 0 0 0 0 0 0 0 0 0 
0 0 0 0 0 0 0 0 0 0 0 0 0 0 0 0 0 0 0 0 0 0 0 0 0 0 0 0 0 0 0 0 0 0 0 1 7 24 22 22 48 103 143 158 161 168 178 192 197 190 183 180 177 175 174 171 174 177 184 192 189 174 156 136 109 78 41 17 13 3 0 0 0 0 0 0 0 0 0 0 0 0 0 1 2 2 0 0 0 0 0 0 0 0 0 0 0 0 0 0 0 0 0 0 0 0 0 0 0 0 0 0 0 0 0 0 0 0 0 0 0 0 0 0 0 0 0 0 
0 0 0 0 0 0 0 0 0 0 0 0 0 0 0 0 0 0 0 0 0 0 0 0 0 0 0 0 0 0 0 0 0 0 7 25 21 22 60 120 154 159 166 180 197 201 189 173 159 155 162 174 174 164 163 175 181 180 176 169 170 179 192 189 174 156 132 96 50 22 13 3 0 0 0 0 0 0 0 0 0 0 0 1 2 2 0 0 0 0 0 0 0 0 0 0 0 0 0 0 0 0 0 0 0 0 0 0 0 0 0 0 0 0 0 0 0 0 0 0 0 0 0 0 0 0 0 0 
0 0 0 0 0 0 0 0 0 0 0 0 0 0 0 0 0 0 0 0 0 0 0 0 0 0 0 0 0 0 0 0 4 26 23 27 58 123 155 158 170 189 199 187 167 157 156 149 139 144 142 138 129 121 126 142 154 171 185 190 186 180 174 170 179 192 182 164 138 94 42 22 11 0 0 0 0 0 0 0 0 0 0 1 2 2 0 0 0 0 0 0 0 0 0 0 0 0 0 0 0 0 0 0 0 0 0 0 0 0 0 0 0 0 0 0 0 0 0 0 0 0 0 0 0 0 0 0 
0 0 0 0 0 0 0 0 0 0 0 0 0 0 0 0 0 0 0 0 0 0 0 0 0 0 0 0 0 0 0 22 29 23 37 104 154 159 171 190 196 182 167 154 155 158 151 133 125 114 132 142 145 140 135 137 140 146 154 171 188 192 190 184 177 170 175 190 182 161 132 76 31 19 3 0 0 0 0 0 0 0 0 1 2 2 1 0 0 0 0 0 0 0 0 0 0 0 0 0 0 0 0 0 0 0 0 0 0 0 0 0 0 0 0 0 0 0 0 0 0 0 0 0 0 0 0 0 
0 0 0 0 0 0 0 0 0 0 0 0 0 0 0 0 0 0 0 0 0 0 0 0 0 0 0 0 0 9 33 23 22 77 144 160 170 186 194 178 172 172 164 158 147 133 123 120 103 110 124 139 136 131 130 126 119 123 129 130 145 172 184 191 192 187 179 173 171 187 177 154 111 47 23 6 0 0 0 0 0 0 0 1 2 2 1 0 0 0 0 0 0 0 0 0 0 0 0 0 0 0 0 0 0 0 0 0 0 0 0 0 0 0 0 0 0 0 0 0 0 0 0 0 0 0 0 0 
0 0 0 0 0 0 0 0 0 0 0 0 0 0 0 0 0 0 0 0 0 0 0 0 0 0 0 0 25 27 16 43 123 159 164 178 191 178 174 179 178 158 141 132 130 128 140 141 149 154 142 140 134 136 154 159 157 156 159 163 153 156 170 176 187 190 192 187 180 171 175 187 166 134 68 25 10 0 0 0 0 0 0 1 2 2 1 0 0 0 0 0 0 0 0 0 0 0 0 0 0 0 0 0 0 0 0 0 0 0 0 0 0 0 0 0 0 0 0 0 0 0 0 0 0 0 0 0 
0 0 0 0 0 0 0 0 0 0 0 0 0 0 0 0 0 0 0 0 0 0 0 0 0 0 4 28 21 18 72 147 161 171 185 181 175 182 178 162 140 137 138 145 158 168 160 148 149 138 132 134 137 138 143 148 145 141 140 144 159 177 181 182 181 183 192 191 190 184 174 170 183 175 143 82 25 12 0 0 0 0 0 1 2 2 1 0 0 0 0 0 0 0 0 0 0 0 0 0 0 0 0 0 0 0 0 0 0 0 0 0 0 0 0 0 0 0 0 0 0 0 0 0 0 0 0 0 
0 0 0 0 0 0 0 0 0 0 0 0 0 0 0 0 0 0 0 0 0 0 0 0 0 9 27 17 24 92 158 161 176 187 176 182 183 164 141 137 157 172 181 180 173 155 146 140 130 123 124 128 124 120 120 127 134 135 137 141 144 150 160 168 179 188 187 182 187 190 191 180 169 178 175 145 90 25 14 0 0 0 0 1 2 2 1 0 0 0 0 0 0 0 0 0 0 0 0 0 0 0 0 0 0 0 0 0 0 0 0 0 0 0 0 0 0 0 0 0 0 0 0 0 0 0 0 0 
0 0 0 0 0 0 0 0 0 0 0 0 0 0 0 0 0 0 0 0 0 0 0 0 14 25 15 31 106 159 162 181 188 176 179 169 150 136 159 185 183 173 164 154 142 131 121 116 122 125 118 105 102 119 122 122 121 126 131 132 132 135 146 151 150 160 174 186 181 178 186 192 184 170 178 178 149 101 27 14 0 0 0 1 2 2 1 0 0 0 0 0 0 0 0 0 0 0 0 0 0 0 0 0 0 0 0 0 0 0 0 0 0 0 0 0 0 0 0 0 0 0 0 0 0 0 0 0 
0 0 0 0 0 0 0 0 0 0 0 0 0 0 0 0 0 0 0 0 0 0 4 17 21 15 41 117 157 162 189 187 174 168 157 143 149 183 187 169 149 135 131 134 136 131 131 131 130 137 120 103 103 126 136 128 118 114 119 124 117 119 126 138 148 147 154 161 173 182 173 179 187 185 171 178 180 150 113 33 12 0 0 1 2 3 2 0 0 0 0 0 0 0 0 0 0 0 0 0 0 0 0 0 0 0 0 0 0 0 0 0 0 0 0 0 0 0 0 0 0 0 0 0 0 0 0 0 
0 0 0 0 0 0 0 0 0 0 0 0 0 0 0 0 0 0 0 0 0 6 15 18 16 52 127 161 161 191 185 171 160 152 142 162 187 177 150 134 125 127 138 141 135 138 142 134 141 144 135 128 125 132 143 141 131 125 124 129 134 130 125 118 127 139 145 150 160 169 176 168 173 185 186 169 181 183 151 122 37 8 0 2 2 2 1 0 0 0 0 0 0 0 0 0 0 0 0 0 0 0 0 0 0 0 0 0 0 0 0 0 0 0 0 0 0 0 0 0 0 0 0 0 0 0 0 0 
0 0 0 0 0 0 0 0 0 0 0 0 0 0 0 0 0 0 0 0 6 16 14 18 66 135 161 161 195 183 165 156 147 146 171 184 158 127 120 129 137 145 151 145 132 122 108 113 112 103 111 118 113 111 107 112 116 120 118 119 122 129 135 132 121 115 125 144 147 155 162 170 155 160 183 186 171 184 186 152 121 34 5 2 2 2 1 0 0 0 0 0 0 0 0 0 0 0 0 0 0 0 0 0 0 0 0 0 0 0 0 0 0 0 0 0 0 0 0 0 0 0 0 0 0 0 0 0 
0 0 0 0 0 0 0 0 0 0 0 0 0 0 0 0 0 0 0 6 16 13 19 75 138 162 159 192 179 160 157 145 149 169 177 142 114 116 121 131 141 146 142 121 101 86 78 81 79 75 79 86 83 80 81 84 94 104 117 127 129 123 115 121 130 127 121 119 136 137 146 148 164 144 153 181 187 170 188 180 149 112 25 5 3 2 1 0 0 0 0 0 0 0 0 0 0 0 0 0 0 0 0 0 0 0 0 0 0 0 0 0 0 0 0 0 0 0 0 0 0 0 0 0 0 0 0 0 
0 0 0 0 0 0 0 0 0 0 0 0 0 0 0 0 0 0 5 16 12 20 77 136 164 157 185 179 153 156 148 150 161 169 138 111 108 118 132 144 142 122 101 89 84 82 82 81 81 79 81 88 92 97 100 101 103 105 108 116 124 133 134 123 111 113 131 125 121 131 134 145 158 159 139 145 177 184 169 191 168 147 97 19 5 3 1 0 0 0 0 0 0 0 0 0 0 0 0 0 0 0 0 0 0 0 0 0 0 0 0 0 0 0 0 0 0 0 0 0 0 0 0 0 0 0 0 0 
0 0 0 0 0 0 0 0 0 0 0 0 0 0 0 0 0 3 14 14 17 74 131 157 154 180 187 152 157 151 149 153 162 135 108 108 114 139 145 137 118 102 99 99 94 93 92 93 96 97 95 100 103 108 106 104 104 102 101 103 106 112 123 135 132 118 114 129 122 110 122 133 156 163 152 133 143 172 177 179 182 160 142 78 14 3 1 0 0 0 0 0 0 0 0 0 0 0 0 0 0 0 0 0 0 0 0 0 0 0 0 0 0 0 0 0 0 0 0 0 0 0 0 0 0 0 0 0 
0 0 0 0 0 0 0 0 0 0 0 0 0 0 0 0 0 11 14 14 74 126 152 152 169 186 154 153 153 146 141 158 140 114 104 119 141 148 136 118 107 105 100 99 97 96 96 95 99 92 89 87 89 100 103 95 94 91 92 99 102 99 101 108 123 134 124 115 125 116 100 110 134 162 165 139 125 145 175 172 185 174 153 125 54 7 1 0 0 0 0 0 0 0 0 0 0 0 0 0 0 0 0 0 0 0 0 0 0 0 0 0 0 0 0 0 0 0 0 0 0 0 0 0 0 0 0 0 
0 0 0 0 0 0 0 0 0 0 0 0 0 0 0 0 6 14 14 64 119 142 152 167 183 165 143 157 145 132 156 143 109 102 112 143 152 133 112 101 98 99 97 94 93 91 90 87 80 78 78 77 76 88 92 94 95 92 90 84 86 91 89 91 97 113 132 125 117 121 109 94 105 140 163 159 125 122 150 173 183 184 165 147 106 28 3 0 0 0 0 0 0 0 0 0 0 0 0 0 0 0 0 0 0 0 0 0 0 1 0 0 0 0 0 0 0 0 0 0 0 0 0 0 0 0 0 0 
0 0 0 0 0 0 0 0 0 0 0 0 0 0 0 1 13 13 49 115 139 148 158 174 178 140 157 145 129 157 143 110 104 124 142 143 121 104 94 93 91 83 74 72 72 73 72 72 76 76 83 81 71 76 78 77 78 76 78 75 72 78 86 89 90 98 115 134 128 120 111 99 98 110 148 171 156 114 118 156 175 193 169 162 133 73 9 0 0 0 0 0 0 0 0 0 0 0 0 0 0 0 0 0 0 0 0 0 0 1 0 0 0 0 0 0 0 0 0 0 0 0 0 0 0 0 0 0 
0 0 0 0 0 0 0 0 0 0 0 0 0 0 0 7 12 23 100 131 140 157 171 176 149 146 150 125 147 155 116 100 119 128 139 114 98 93 88 82 76 76 75 71 69 70 70 70 75 78 81 83 77 79 79 81 81 75 76 75 73 73 73 75 82 92 104 124 139 127 118 100 97 102 117 155 174 134 104 128 160 190 176 163 152 110 31 1 0 0 0 0 0 0 0 0 0 0 0 0 0 0 0 0 0 0 0 0 0 0 0 0 0 0 0 0 0 0 0 0 0 0 0 0 0 0 0 0 
0 0 0 0 0 0 0 0 0 0 0 0 0 0 1 10 12 69 120 134 152 167 167 166 139 149 131 126 161 131 105 111 122 133 117 90 93 90 80 72 73 76 74 73 72 69 68 70 78 94 99 102 103 106 106 105 100 95 86 79 75 73 74 75 73 77 86 101 125 142 133 114 94 101 98 126 169 159 109 110 138 181 183 164 164 124 70 5 0 0 0 0 0 0 0 0 0 0 0 0 0 0 0 0 0 0 0 0 0 0 0 0 0 0 0 0 0 0 0 0 0 0 0 0 0 0 0 0 
0 0 0 0 0 0 0 0 0 0 0 0 0 0 6 10 37 104 127 124 163 164 153 155 135 144 119 152 140 104 111 125 132 120 98 87 88 87 76 75 77 76 72 70 74 82 94 105 113 128 136 137 135 137 126 121 129 127 116 103 90 79 74 72 72 72 73 84 101 130 140 130 107 99 100 105 145 175 126 106 117 155 187 166 165 140 101 19 0 0 0 0 0 0 0 0 0 0 0 0 0 0 0 0 0 0 0 0 0 0 0 0 0 0 0 0 0 0 0 0 0 0 0 0 0 0 0 0 
0 0 0 0 0 0 0 0 0 0 0 0 0 0 8 16 79 119 127 145 164 146 162 136 140 128 121 151 117 111 122 123 117 101 95 88 92 84 76 80 79 76 77 86 99 114 128 133 134 126 115 127 129 93 69 62 82 129 138 135 125 110 91 80 76 75 72 76 83 100 132 144 131 109 100 99 119 164 142 104 112 129 178 165 154 155 113 39 2 0 0 0 0 0 0 0 0 0 0 0 0 0 0 0 0 0 0 0 0 0 0 0 0 0 0 0 0 0 0 0 0 0 0 0 0 0 0 0 
0 0 0 0 0 0 0 0 0 0 0 0 0 2 9 36 105 129 127 166 152 147 152 130 135 111 121 142 110 123 127 124 104 93 91 94 88 76 76 78 80 87 102 121 131 132 132 123 99 79 72 73 99 60 58 56 59 82 81 121 138 139 130 108 85 76 72 73 77 84 105 137 139 124 106 103 108 145 146 106 105 116 159 164 150 160 118 58 3 0 0 0 0 0 0 0 0 0 0 0 0 0 0 0 0 0 0 0 0 0 0 0 0 0 0 0 0 0 0 0 0 0 0 0 0 0 0 0 
0 0 0 0 0 0 0 0 0 0 0 0 0 5 10 61 116 128 141 168 144 147 140 127 127 97 125 131 116 132 132 110 94 85 91 89 78 76 81 84 93 115 130 130 120 105 79 80 80 71 65 62 62 58 55 55 57 56 58 59 71 116 137 139 123 93 77 75 75 80 89 111 130 133 120 114 109 129 143 116 97 112 147 165 156 163 126 72 6 0 0 0 0 0 0 0 0 0 0 0 0 0 0 0 0 0 0 0 0 0 0 0 0 0 0 0 0 0 0 0 0 0 0 0 0 0 0 0 
0 0 0 0 0 0 0 0 0 0 0 0 0 5 17 83 124 129 159 157 131 130 133 130 116 99 134 132 126 132 118 96 87 82 89 82 81 78 83 99 123 132 120 98 86 62 60 64 65 60 59 57 57 57 58 55 64 58 55 57 56 60 91 129 142 133 100 80 76 81 90 99 112 127 127 124 114 131 140 123 100 111 134 162 159 167 141 86 10 0 0 0 0 0 0 0 0 0 0 0 0 0 0 0 0 0 0 0 0 1 0 0 0 0 0 0 0 0 0 0 0 0 0 0 0 0 0 0 
0 0 0 0 0 0 0 0 0 0 0 0 0 7 29 108 126 132 164 142 120 122 129 122 101 104 135 134 131 114 105 90 84 87 87 80 78 81 105 130 124 94 61 54 56 55 54 58 56 55 57 56 60 56 54 60 77 72 56 55 56 57 59 86 129 144 138 107 86 86 96 101 103 116 129 131 113 128 132 121 107 107 141 163 163 157 147 102 17 0 0 0 0 0 0 0 0 0 0 0 0 0 0 0 0 0 0 0 0 0 0 0 0 0 0 0 0 0 0 0 0 0 0 0 0 0 0 0 
0 0 0 0 0 0 0 0 0 0 0 0 1 7 41 115 130 141 158 133 116 131 134 112 96 99 137 139 115 93 97 86 86 89 86 80 84 106 131 126 87 57 56 54 54 52 54 54 57 55 55 54 54 55 56 55 56 56 55 56 57 55 57 58 98 127 142 145 120 97 95 95 98 106 120 134 115 124 133 114 114 101 137 160 168 153 153 113 27 1 0 0 0 0 0 0 0 0 0 0 0 0 0 0 0 0 0 0 0 0 0 0 0 0 0 0 0 0 0 0 0 0 0 0 0 0 0 0 
0 0 0 0 0 0 0 0 0 0 0 0 1 9 55 120 128 142 147 127 115 138 133 106 93 99 142 139 96 88 92 84 85 92 91 92 112 132 130 97 59 56 55 52 53 53 54 56 58 57 57 56 57 56 56 55 56 55 54 57 56 55 57 57 61 102 140 158 146 112 95 96 94 98 109 125 117 118 126 111 117 105 142 163 175 150 160 122 38 2 0 0 0 0 0 0 0 0 0 0 0 0 0 0 0 0 0 0 0 0 0 0 0 0 0 0 0 0 0 0 0 0 0 0 0 0 0 0 
0 0 0 0 0 0 0 0 0 0 0 0 3 10 67 124 131 144 141 122 125 144 126 101 95 105 151 128 81 85 91 87 87 90 98 124 134 127 117 92 58 57 54 55 57 56 58 61 62 62 61 63 63 66 66 63 58 57 56 57 56 57 59 58 63 108 136 147 153 147 117 95 92 93 101 120 115 128 111 105 121 116 140 161 171 156 162 132 47 2 0 0 0 0 0 0 0 0 0 0 0 0 0 0 0 0 0 0 0 0 0 0 0 0 0 0 0 0 0 0 0 0 0 0 0 0 0 0 
0 0 0 0 0 0 0 0 0 0 0 0 4 12 76 126 134 157 140 121 134 148 123 106 100 110 149 116 76 82 89 84 88 101 132 152 135 115 113 117 101 75 57 56 58 63 64 70 70 73 76 78 74 76 76 74 67 60 59 60 60 58 63 68 88 122 132 142 148 155 157 133 99 90 95 116 116 134 106 104 124 116 134 154 172 159 165 143 56 3 0 0 0 0 0 0 0 0 0 0 0 0 0 0 0 0 0 0 0 0 0 0 0 0 0 0 0 0 0 0 0 0 0 0 0 0 0 0 
0 0 0 0 0 0 0 0 0 0 0 0 4 12 81 129 137 166 140 122 144 146 119 107 109 120 141 110 75 75 89 83 99 138 156 149 132 102 88 86 79 76 83 82 71 74 78 83 86 88 91 90 90 91 92 87 78 67 64 64 64 66 79 88 83 79 85 84 86 105 134 151 143 111 95 111 129 132 99 107 133 116 135 146 170 161 161 149 69 5 0 0 0 0 0 0 0 0 0 0 0 0 0 0 0 0 0 0 0 0 0 0 0 0 0 0 0 0 0 0 0 0 0 0 0 0 0 0 
0 0 0 0 0 0 0 0 0 0 0 0 4 15 84 130 142 168 137 121 147 144 122 107 120 126 131 103 73 73 86 93 137 158 151 111 73 63 64 66 67 72 81 91 92 96 89 94 97 101 102 102 109 109 111 103 89 77 67 67 70 84 84 74 63 59 69 76 74 73 77 97 122 132 119 124 146 131 104 113 138 119 133 137 168 166 159 153 82 7 0 0 0 0 0 0 0 0 0 0 0 0 0 0 0 0 0 0 0 0 0 0 0 0 0 0 0 0 0 0 0 0 0 0 0 0 0 0 
0 0 0 0 0 0 0 0 0 0 0 0 4 15 88 131 145 161 132 119 148 136 129 113 133 133 123 103 72 77 97 134 153 142 91 58 54 54 56 59 61 65 77 95 107 108 117 105 106 108 107 112 119 122 121 117 101 87 79 82 98 85 78 75 67 63 68 79 77 77 75 75 81 106 137 139 148 125 103 114 134 121 133 131 156 166 157 158 94 10 0 0 0 0 0 0 0 0 0 0 0 0 0 0 0 0 0 0 0 0 0 0 0 0 0 0 0 0 0 0 0 0 0 0 0 0 0 0 
0 0 0 0 0 0 0 0 0 0 0 0 6 15 88 133 145 167 132 121 148 125 131 122 135 137 114 116 80 76 126 154 140 89 66 58 57 60 64 68 71 72 87 98 105 111 113 120 105 110 117 119 127 131 131 125 110 100 95 115 99 84 86 80 76 80 88 96 96 95 101 103 103 106 121 149 149 129 107 114 133 126 124 128 151 161 157 160 105 15 0 0 0 0 0 0 0 0 0 0 0 0 0 0 0 0 0 0 0 0 0 0 0 0 0 0 0 0 0 0 0 0 0 0 0 0 0 0 
0 0 0 0 0 0 0 0 0 0 0 0 6 16 90 136 153 167 120 121 148 120 128 124 131 139 104 110 110 89 135 140 90 74 67 60 61 68 83 88 93 94 95 102 102 104 111 122 112 112 118 128 134 133 137 133 119 112 106 120 99 92 90 91 103 97 97 107 107 108 101 94 99 120 122 140 148 132 122 115 128 125 115 119 142 155 158 159 113 20 0 0 0 0 0 0 0 0 0 0 0 0 0 0 0 0 0 0 0 0 0 0 0 0 0 0 0 0 0 0 0 0 0 0 0 0 0 0 
0 0 0 0 0 0 0 0 0 0 0 0 7 14 89 138 156 168 119 123 140 117 128 121 127 137 108 94 106 104 127 105 82 81 73 70 83 101 102 100 101 118 115 107 104 101 105 112 107 95 102 122 132 129 136 137 122 113 116 121 105 99 101 92 80 71 76 98 107 105 102 104 111 103 98 120 141 135 128 115 118 121 112 112 133 143 155 157 118 29 2 0 0 0 0 0 0 0 0 0 0 0 0 0 0 0 0 0 0 0 0 0 0 0 0 0 0 0 0 0 0 0 0 0 0 0 0 0 
0 0 0 0 0 0 0 0 0 0 0 0 7 13 88 138 162 167 121 119 134 118 124 123 119 129 113 99 97 92 119 125 107 100 95 92 94 95 97 99 99 113 121 115 109 102 99 107 111 92 101 132 126 121 126 135 119 114 116 118 110 107 92 81 70 62 57 76 97 105 115 113 105 94 94 108 135 139 131 123 113 113 108 101 126 134 157 154 125 38 2 0 0 0 0 0 0 0 0 0 0 0 0 0 0 0 0 0 0 0 0 0 0 0 0 0 0 0 0 0 0 0 0 0 0 0 0 0 
0 0 0 0 0 0 0 0 0 0 0 0 8 16 90 138 168 160 112 100 130 116 118 122 109 120 108 98 82 93 106 106 96 88 83 78 82 97 98 90 97 105 105 110 114 108 99 103 112 88 101 125 117 113 118 129 119 113 120 124 112 100 94 82 65 58 55 65 86 100 97 98 99 89 93 101 132 139 132 126 114 103 108 108 120 123 161 147 128 44 2 0 0 0 0 0 0 0 0 0 0 0 0 0 0 0 0 0 0 0 0 0 0 0 0 0 0 0 0 0 0 0 0 0 0 0 0 0 
0 0 0 0 0 0 0 0 0 0 0 0 9 20 90 140 170 153 101 91 126 110 116 113 100 117 104 90 73 79 101 100 88 86 80 74 78 89 89 96 106 108 107 105 100 114 118 105 108 88 108 126 116 132 135 140 129 121 135 127 104 98 99 78 60 55 56 67 79 96 98 97 95 96 88 96 127 137 130 124 116 89 101 116 113 114 153 144 132 52 2 0 0 0 0 0 0 0 0 0 0 0 0 0 0 0 0 0 0 0 0 0 0 0 0 0 0 0 0 0 0 0 0 0 0 0 0 0 
0 0 0 0 0 0 0 0 0 0 0 0 8 19 90 141 170 143 104 91 119 114 118 97 95 112 109 100 81 73 94 102 85 82 75 73 80 85 87 101 108 108 106 106 95 94 116 104 95 102 132 142 148 137 133 125 139 116 123 120 111 106 99 70 59 53 53 69 82 95 97 93 93 96 85 98 124 137 129 125 119 88 107 124 110 111 135 132 134 57 3 0 0 0 0 0 0 0 0 0 0 0 0 0 0 0 0 0 0 0 0 0 0 0 0 0 0 0 0 0 0 0 0 0 0 0 0 0 
0 0 0 0 0 0 0 0 0 0 0 0 8 20 90 140 166 129 110 90 105 117 117 94 94 110 122 105 81 71 85 104 83 80 76 72 78 84 89 105 107 108 107 112 108 104 98 91 84 95 115 133 115 95 105 105 130 139 124 123 111 100 84 68 59 52 58 70 83 94 95 93 90 84 83 106 123 132 124 127 117 81 108 128 107 110 128 133 135 60 2 0 0 0 0 0 0 0 0 0 0 0 0 0 0 0 0 0 0 0 0 0 0 0 0 0 0 0 0 0 0 0 0 0 0 0 0 0 
0 0 0 0 0 0 0 0 0 0 0 0 8 19 87 135 163 118 116 82 95 121 116 96 98 111 126 104 85 74 82 105 88 76 73 71 75 87 92 103 107 113 112 105 102 106 101 85 80 100 110 117 86 84 99 96 106 147 121 113 105 94 82 73 59 54 58 68 86 94 92 88 96 86 79 109 126 131 117 129 115 75 104 126 103 114 124 141 126 60 3 0 0 0 0 0 0 0 0 0 0 0 0 0 0 0 0 0 0 0 0 0 0 0 0 0 0 0 0 0 0 0 0 0 0 0 0 0 
0 0 0 0 0 0 0 0 0 0 0 0 7 19 82 131 163 114 120 87 84 127 116 92 97 109 127 110 86 77 83 99 93 79 72 66 72 92 96 104 111 112 109 97 93 97 99 98 94 99 93 96 81 83 92 76 89 124 125 112 102 95 82 76 60 53 60 70 88 92 91 89 95 87 76 108 126 120 108 129 110 70 102 121 97 115 118 142 117 56 2 0 0 0 0 0 0 0 0 0 0 0 0 0 0 0 0 0 0 0 0 0 0 0 0 0 0 0 0 0 0 0 0 0 0 0 0 0 
0 0 0 0 0 0 0 0 0 0 0 0 5 19 82 127 163 118 120 92 75 123 120 89 93 106 126 116 90 81 84 97 94 74 61 64 69 90 105 108 114 108 109 98 92 93 89 82 96 96 90 88 79 85 98 92 97 106 129 124 112 95 87 82 61 57 60 72 90 92 89 92 92 84 77 113 125 118 110 123 102 70 110 116 93 116 115 139 108 52 2 0 0 0 0 0 0 0 0 0 0 0 0 0 0 0 0 0 0 0 0 0 0 0 0 0 0 0 0 0 0 0 0 0 0 0 0 0 
0 0 0 0 0 0 0 0 0 0 0 0 3 20 78 123 162 122 117 99 68 111 126 100 96 102 119 114 89 80 81 90 89 77 63 60 66 87 113 114 108 102 100 98 98 92 84 88 105 88 90 83 78 88 100 96 101 95 120 126 130 111 95 87 65 52 56 71 89 91 91 94 86 78 76 121 131 124 120 121 96 77 116 108 90 116 113 131 101 49 1 0 0 0 0 0 0 0 0 0 0 0 0 0 0 0 0 0 0 0 0 0 0 0 0 0 0 0 0 0 0 0 0 0 0 0 0 0 
0 0 0 0 0 0 0 0 0 3 6 0 0 16 70 115 154 130 107 105 67 96 128 108 93 98 112 110 87 78 78 90 92 78 68 58 71 93 109 118 107 104 102 99 100 109 101 99 94 83 95 79 76 91 100 96 102 99 113 119 141 139 125 96 67 64 74 82 91 87 86 90 81 74 88 132 128 110 112 116 96 94 106 100 93 113 119 127 100 48 1 0 0 0 0 0 0 0 0 0 0 0 0 0 0 0 0 0 0 0 0 0 0 0 0 0 0 0 0 0 0 0 0 0 0 0 0 0 
0 0 0 0 0 0 0 0 0 11 14 2 0 12 60 109 140 137 99 108 67 79 125 113 95 95 116 108 85 91 95 87 95 85 74 64 73 94 110 122 118 126 128 115 103 114 121 100 103 89 94 82 73 84 88 89 114 103 110 136 166 153 116 83 70 56 64 80 87 88 84 88 84 80 105 131 114 110 102 106 108 113 96 98 102 108 127 121 98 44 1 0 0 0 0 0 0 0 0 0 0 0 0 0 0 0 0 0 0 0 0 0 0 0 0 0 0 0 0 0 0 0 0 0 0 0 0 0 
0 0 0 0 0 0 0 0 0 1 0 9 2 8 48 102 127 143 93 103 74 66 113 120 101 97 117 106 95 121 133 106 91 97 86 68 74 97 109 122 129 129 113 117 118 128 124 112 107 76 92 84 78 99 86 85 110 115 137 150 145 141 120 94 65 57 71 89 84 90 93 100 110 107 110 132 153 156 115 106 125 116 92 99 104 104 131 116 95 36 0 0 0 0 0 0 0 0 0 0 0 0 0 0 0 0 0 0 0 0 0 0 0 0 0 0 0 0 0 0 0 0 0 0 0 0 0 0 
0 0 0 0 0 0 0 0 0 0 0 5 6 6 34 89 121 145 100 104 89 68 92 122 106 97 120 101 103 139 130 128 97 82 89 74 79 101 117 121 130 120 117 125 127 122 125 137 107 77 89 83 79 102 90 86 93 102 113 138 139 132 118 96 91 105 121 129 126 125 134 145 132 111 130 157 154 157 126 104 135 107 91 109 107 117 132 113 88 25 0 0 1 6 0 0 0 0 0 0 0 0 0 0 0 0 0 0 0 0 0 0 0 0 0 0 0 0 0 0 0 0 0 0 0 0 0 0 
0 0 0 0 0 0 0 0 0 0 0 4 9 6 21 79 113 135 111 99 99 74 73 119 116 108 124 102 109 149 136 128 115 101 92 90 91 111 127 127 132 120 112 118 127 135 135 138 108 78 88 87 87 112 96 86 93 103 106 141 126 129 119 91 83 94 113 128 122 138 157 152 130 97 101 142 150 140 131 118 141 102 107 126 100 132 148 117 80 15 3 2 7 2 6 0 0 0 0 0 0 0 0 0 0 0 0 0 0 0 0 0 0 0 0 0 0 0 0 0 0 0 0 0 0 0 0 0 
0 0 0 0 0 0 0 0 0 0 0 6 9 8 21 73 108 130 142 97 103 84 67 94 121 128 128 110 103 142 121 114 105 99 102 105 106 105 116 117 121 113 118 123 134 136 139 130 122 88 87 95 106 122 105 96 100 110 120 141 133 116 93 66 57 69 88 93 101 125 116 114 121 109 124 136 127 135 132 121 133 120 115 133 135 129 135 109 64 9 1 2 3 0 0 0 0 0 0 0 0 0 0 0 0 0 0 0 0 0 0 0 0 0 0 0 0 0 0 0 0 0 0 0 0 0 0 0 
0 0 0 0 0 0 0 0 0 0 0 8 12 9 16 58 102 120 158 107 107 94 77 75 116 140 134 123 109 144 140 133 129 119 107 105 88 80 97 102 107 108 106 116 137 136 135 148 141 112 98 97 99 115 104 101 111 104 105 103 129 121 81 59 63 80 97 116 128 136 107 136 143 162 155 142 137 167 157 159 149 134 122 137 162 145 131 102 46 7 0 3 0 0 0 0 0 0 0 0 0 0 0 0 0 0 0 0 0 0 0 0 0 0 0 0 0 0 0 0 0 0 0 0 0 0 0 0 
0 0 0 0 0 0 0 0 0 0 0 9 11 11 16 50 105 117 156 128 105 112 128 79 113 144 133 127 139 127 141 154 146 125 124 110 103 108 115 93 81 85 100 116 119 119 121 133 122 101 96 96 70 99 94 79 93 107 95 93 110 111 97 89 106 125 134 143 146 141 141 150 167 165 159 146 136 175 165 152 171 152 133 166 177 95 103 97 27 8 3 4 0 0 0 0 0 0 0 0 0 0 0 0 0 0 0 0 0 0 0 0 0 0 0 0 0 0 0 0 0 0 0 0 0 0 0 0 
0 0 0 0 0 0 0 0 0 0 0 12 12 9 14 38 100 116 143 155 118 134 142 110 134 139 134 132 152 131 136 160 146 145 161 150 142 116 105 67 72 93 98 94 90 91 104 113 90 72 89 97 73 95 81 71 73 81 93 85 96 95 87 104 133 127 132 145 143 159 161 126 149 159 154 154 146 161 157 134 163 171 162 177 152 90 114 80 12 8 3 6 0 0 0 0 0 0 0 0 0 0 0 0 0 0 0 0 0 0 0 0 0 0 0 0 0 0 0 0 0 0 0 0 0 0 0 0 
0 0 0 0 0 0 0 0 0 0 0 5 16 10 7 16 59 113 127 157 142 156 178 177 169 155 122 121 152 163 162 168 165 128 144 163 153 129 112 79 75 99 82 77 61 68 89 102 90 66 75 94 79 82 92 74 75 80 81 98 83 63 73 83 107 111 119 147 145 141 129 101 128 149 179 173 160 146 156 132 137 160 175 173 138 82 97 92 17 12 8 1 3 0 0 0 0 0 0 0 0 0 0 0 0 0 0 0 0 0 0 0 0 0 0 0 0 0 0 0 0 0 0 0 0 0 0 0 
0 0 0 0 0 0 0 0 0 0 0 6 13 7 0 14 37 104 127 149 160 151 171 164 135 124 118 133 156 170 180 180 173 135 137 139 126 132 139 113 75 75 64 55 58 72 102 84 83 102 104 100 104 108 114 97 75 54 64 85 82 71 81 90 99 108 137 143 135 106 79 98 118 155 167 162 147 142 138 121 140 171 168 144 79 103 107 65 10 7 7 4 5 0 0 0 0 0 0 0 0 0 0 0 0 0 0 0 0 0 0 0 0 0 0 0 0 0 0 0 0 0 0 0 0 0 0 0 
0 0 0 0 0 0 0 0 0 0 0 8 6 9 4 12 22 83 124 144 176 151 136 127 148 147 131 130 144 185 184 194 176 140 153 139 127 146 141 132 94 78 76 71 70 81 94 76 86 105 103 96 86 93 102 93 64 52 51 64 90 97 100 89 80 86 123 147 126 107 109 122 117 125 136 152 162 181 141 107 130 146 125 94 104 91 103 35 7 4 2 7 5 0 0 0 0 0 0 0 0 0 0 0 0 0 0 0 0 0 0 0 0 0 0 0 0 0 0 0 0 0 0 0 0 0 0 0 
0 0 0 0 0 0 0 0 0 0 0 7 5 4 9 11 15 56 114 126 154 136 129 140 136 158 141 106 113 166 164 179 185 169 144 141 138 141 138 125 89 95 95 86 89 93 97 89 91 86 79 71 69 74 85 108 82 65 63 81 109 133 126 111 94 83 93 95 74 97 116 124 105 116 122 140 173 190 135 96 107 128 91 68 88 91 77 20 7 1 0 4 6 0 0 0 0 0 0 0 0 0 0 0 0 0 0 0 0 0 0 0 0 0 0 0 0 0 0 0 0 0 0 0 0 0 0 0 
0 0 0 0 0 0 0 0 0 0 0 8 5 1 8 10 17 36 102 121 139 155 168 153 143 154 142 119 110 150 177 180 178 163 165 154 132 126 130 95 82 84 83 111 119 107 122 97 86 82 91 85 76 76 105 111 87 75 83 105 124 139 133 131 116 75 70 80 96 107 118 129 128 126 136 152 174 177 157 124 126 127 74 54 85 105 44 9 2 0 0 6 7 0 0 0 0 0 0 0 0 0 0 0 0 0 0 0 0 0 0 0 0 0 0 0 0 0 0 0 0 0 0 0 0 0 0 0 
0 0 0 0 0 0 0 0 0 0 0 6 7 0 4 13 17 23 73 112 135 148 182 166 142 149 145 139 109 113 127 139 143 151 155 153 127 109 116 111 88 81 89 128 140 135 138 102 105 121 126 120 99 80 113 122 85 74 93 113 125 114 126 133 136 103 86 90 98 111 152 147 101 99 105 140 170 162 150 170 130 94 66 58 74 87 23 11 3 2 1 8 7 0 0 0 0 0 0 0 0 0 0 0 0 0 0 0 0 0 0 0 0 0 0 0 0 0 0 0 0 0 0 0 0 0 0 0 
0 0 0 0 0 0 0 0 0 0 0 4 8 0 1 5 14 19 39 100 125 144 173 178 158 162 137 127 127 123 108 101 124 133 141 125 113 110 113 94 87 90 115 133 140 150 147 131 134 131 123 124 135 142 150 140 139 138 121 110 133 137 157 150 140 122 111 100 105 139 123 110 103 92 91 153 172 153 173 193 146 85 61 55 87 59 14 13 4 3 2 10 8 0 0 0 0 0 0 0 0 0 0 0 0 0 0 0 0 0 0 0 0 0 0 0 0 0 0 0 0 0 0 0 0 0 0 0 
0 0 0 0 0 0 0 0 0 0 0 0 9 1 2 5 7 15 25 89 117 130 145 152 170 164 139 100 133 140 122 97 112 127 133 134 116 101 96 110 89 110 136 154 158 167 159 133 144 143 144 146 149 163 157 162 167 160 140 132 141 153 159 159 142 148 148 125 148 135 95 97 117 91 92 161 166 151 174 174 131 90 80 40 90 33 14 14 6 4 2 9 7 0 0 0 0 0 0 0 0 0 0 0 0 0 0 0 0 0 0 0 0 0 0 0 0 0 0 0 0 0 0 0 0 0 0 0 
0 0 0 0 0 0 0 0 0 0 0 0 9 1 3 5 8 7 16 64 109 117 132 127 137 174 155 110 119 133 145 122 105 113 115 133 141 115 105 113 145 147 129 129 135 145 124 116 114 130 144 148 151 168 148 136 150 158 122 117 121 126 137 162 152 138 136 133 141 96 78 90 108 101 107 171 172 142 142 139 137 146 125 126 91 22 13 12 7 4 3 9 6 0 0 0 0 0 0 0 0 0 0 0 0 0 0 0 0 0 0 0 0 0 0 0 0 0 0 0 0 0 0 0 0 0 0 0 
0 0 0 0 0 0 0 0 0 0 0 0 10 5 2 4 6 5 10 35 89 106 130 146 119 162 165 140 128 130 141 142 131 99 83 105 127 146 147 140 153 169 147 132 152 144 117 133 140 147 153 167 149 161 151 147 147 167 140 145 153 149 162 163 175 150 118 120 135 99 97 100 105 104 116 159 184 140 119 96 133 128 116 116 65 17 12 10 7 6 3 9 7 0 0 0 0 0 0 0 0 0 0 0 0 0 0 0 0 0 0 0 0 0 0 0 0 0 0 0 0 0 0 0 0 0 0 0 
0 0 0 0 0 0 0 0 0 0 0 2 15 12 5 4 6 5 9 28 66 102 136 137 129 136 156 148 143 119 137 139 152 112 87 83 90 96 102 114 138 160 177 169 176 167 151 165 176 150 143 177 165 149 139 134 139 160 145 172 173 167 181 178 169 148 134 137 144 111 78 92 122 126 132 172 176 164 109 109 87 101 112 87 45 16 12 10 9 6 3 8 7 0 0 0 0 0 0 0 0 0 0 0 0 0 0 0 0 0 0 0 0 0 0 0 0 0 0 0 0 0 0 0 0 0 0 0 
0 0 0 0 0 0 0 0 0 0 0 2 8 9 10 6 7 8 12 26 58 79 139 137 139 137 167 136 163 144 161 154 151 117 94 87 88 88 85 89 101 135 183 185 176 167 168 184 185 161 137 170 164 138 123 120 111 114 118 155 158 169 181 209 183 164 160 146 145 110 95 105 120 114 156 175 161 151 140 125 98 130 106 68 35 15 9 7 10 5 1 7 6 0 0 0 0 0 0 0 0 0 0 0 0 0 0 0 0 0 0 0 0 0 0 0 0 0 0 0 0 0 0 0 0 0 0 0 
0 0 0 0 0 0 0 0 0 0 0 0 7 11 10 14 8 7 17 19 35 69 118 129 112 129 176 151 165 150 149 151 158 139 112 99 84 76 86 99 99 127 176 186 188 170 156 170 174 171 156 165 159 147 113 98 102 105 118 145 148 190 198 207 179 145 137 125 144 138 118 111 119 145 153 141 148 139 134 108 151 149 68 34 19 14 7 6 9 1 0 5 10 0 0 0 0 0 0 0 0 0 0 0 0 0 0 0 0 0 0 0 0 0 0 0 0 0 0 0 0 0 0 0 0 0 0 0 
0 0 0 0 0 0 0 0 0 0 0 1 7 10 10 8 9 9 12 14 17 46 100 120 131 117 141 157 159 137 116 144 149 140 129 124 123 118 112 104 117 150 184 190 187 169 141 149 165 167 148 128 124 128 137 114 93 91 92 92 115 158 160 173 143 134 144 154 175 158 145 99 118 129 127 116 129 77 100 78 88 105 63 32 10 10 8 7 4 3 8 10 15 2 0 0 0 0 0 0 0 0 0 0 0 0 0 0 0 0 0 0 0 0 0 0 0 0 0 0 0 0 0 0 0 0 0 0 
0 0 0 0 0 0 0 0 0 0 0 0 7 11 5 6 6 7 7 12 21 33 67 124 116 89 125 155 157 155 132 134 129 109 94 101 114 124 135 151 155 183 191 186 198 200 161 173 179 165 130 112 119 140 143 138 138 138 140 127 138 160 162 151 142 169 161 151 178 154 127 120 133 132 105 76 100 69 91 53 111 95 51 17 11 4 6 7 7 9 11 7 5 4 0 0 0 0 0 0 0 0 0 0 0 0 0 0 0 0 0 0 0 0 0 0 0 0 0 0 0 0 0 0 0 0 0 0 
0 0 0 0 0 0 0 0 0 0 0 0 2 12 8 4 1 4 11 12 21 25 33 99 128 93 111 130 136 149 132 156 153 124 80 64 64 85 112 120 186 177 173 178 183 209 174 180 174 177 161 163 172 183 183 176 170 145 135 138 146 168 191 166 171 198 175 153 176 175 170 154 125 105 103 106 106 91 102 67 73 41 36 35 24 2 3 4 2 3 8 7 4 0 0 0 0 0 0 0 0 0 0 0 0 0 0 0 0 0 0 0 0 0 0 0 0 0 0 0 0 0 0 0 0 0 0 0 
0 0 0 0 0 0 0 0 0 0 0 0 0 4 8 3 1 0 0 7 11 22 25 46 90 102 88 69 84 79 71 116 152 140 117 107 97 110 123 158 197 192 158 181 214 230 211 226 177 151 128 143 155 164 161 135 125 130 149 164 158 179 213 130 154 212 228 175 147 138 139 127 107 107 101 103 117 92 86 44 42 39 42 37 24 2 3 3 1 3 7 11 6 0 0 0 0 0 0 0 0 0 0 0 0 0 0 0 0 0 0 0 0 0 0 0 0 0 0 0 0 0 0 0 0 0 0 0 
0 0 0 0 0 0 0 0 0 0 0 0 0 0 5 8 6 3 0 2 8 12 16 22 29 36 29 37 68 70 43 53 119 109 87 56 66 71 78 78 116 161 160 169 192 183 160 139 128 85 60 76 80 115 100 67 55 74 124 125 109 114 86 83 130 162 103 58 72 78 63 48 49 70 48 41 92 89 72 34 30 22 12 3 2 2 6 10 7 4 5 7 2 0 0 0 0 0 0 0 0 0 0 0 0 0 0 0 0 0 0 0 0 0 0 0 0 0 0 0 0 0 0 0 0 0 0 0 
0 0 0 0 0 0 0 0 0 0 0 0 0 0 0 1 6 6 3 0 6 9 10 15 23 19 20 26 53 59 37 48 107 83 77 68 65 60 70 80 112 103 74 83 135 125 84 73 70 57 38 56 59 57 59 65 59 42 56 60 65 105 85 70 72 102 97 90 96 71 45 34 40 58 48 47 93 79 66 32 28 19 11 4 3 3 6 8 7 3 1 3 0 0 0 0 0 0 0 0 0 0 0 0 0 0 0 0 0 0 0 0 0 0 0 0 0 0 0 0 0 0 0 0 0 0 0 0 
0 0 0 0 0 0 0 0 0 0 0 0 0 0 0 0 0 3 0 0 3 7 8 15 21 27 19 28 46 65 40 52 99 79 58 77 90 82 128 109 123 146 108 99 116 112 71 66 87 59 42 66 74 68 68 75 89 79 98 90 83 126 105 89 83 110 123 97 92 63 60 68 78 79 96 75 103 88 69 39 30 26 18 17 0 0 0 1 0 0 0 0 0 0 0 0 0 0 0 0 0 0 0 0 0 0 0 0 0 0 0 0 0 0 0 0 0 0 0 0 0 0 0 0 0 0 0 0 
0 0 0 0 0 0 0 0 0 0 0 0 0 0 0 0 0 0 0 0 0 1 3 6 21 56 55 49 59 78 55 42 79 77 71 83 106 139 116 145 147 174 141 136 121 147 98 126 126 109 99 113 115 108 104 101 116 114 116 128 139 169 148 136 168 146 122 99 120 127 83 82 75 75 113 83 87 93 75 59 50 35 28 18 0 0 0 0 0 0 0 0 0 0 0 0 0 0 0 0 0 0 0 0 0 0 0 0 0 0 0 0 0 0 0 0 0 0 0 0 0 0 0 0 0 0 0 0 
0 0 0 0 0 0 0 0 0 0 0 0 0 0 0 0 0 0 0 0 0 4 0 0 5 55 59 46 48 66 64 71 87 78 103 107 108 121 81 108 168 154 98 90 129 191 189 129 116 147 134 138 162 189 196 177 165 151 140 181 193 197 154 145 174 138 163 139 139 116 89 95 75 71 61 53 72 50 31 22 22 3 2 1 1 0 1 1 0 0 0 0 0 0 0 0 0 0 0 0 0 0 0 0 0 0 0 0 0 0 0 0 0 0 0 0 0 0 0 0 0 0 0 0 0 0 0 0 
0 0 0 0 0 0 0 0 0 0 0 0 0 0 0 0 0 0 0 0 0 0 2 0 4 25 28 24 26 40 54 46 72 45 30 57 93 104 96 112 128 91 74 50 81 123 135 125 117 156 157 149 170 163 174 175 202 198 190 184 176 171 131 118 131 191 176 83 128 128 72 40 28 23 58 86 74 51 30 29 19 10 6 0 2 4 6 7 5 3 0 0 0 0 0 0 0 0 0 0 0 0 0 0 0 0 0 0 0 0 0 0 0 0 0 0 0 0 0 0 0 0 0 0 0 0 0 0 
0 0 0 0 0 0 0 0 0 0 0 0 0 0 0 0 0 0 0 0 0 0 4 4 8 14 16 23 23 30 57 43 77 63 20 23 28 78 58 118 110 89 79 60 65 98 125 116 100 151 130 83 151 131 129 133 150 151 141 146 95 88 89 73 73 85 99 95 110 103 103 63 35 30 63 111 71 45 26 19 21 17 4 1 0 1 4 5 4 2 0 0 0 0 0 0 0 0 0 0 0 0 0 0 0 0 0 0 0 0 0 0 0 0 0 0 0 0 0 0 0 0 0 0 0 0 0 0 
0 0 0 0 0 0 0 0 0 0 0 0 0 0 0 0 0 0 0 0 0 0 1 4 5 16 15 20 20 26 49 55 87 70 26 27 33 41 77 103 86 58 81 116 125 145 132 119 121 94 74 56 109 101 99 98 111 118 116 114 65 74 80 66 56 94 100 103 119 99 92 61 27 28 64 118 69 54 34 20 17 8 4 0 0 0 3 5 5 3 0 0 0 0 0 0 0 0 0 0 0 0 0 0 0 0 0 0 0 0 0 0 0 0 0 0 0 0 0 0 0 0 0 0 0 0 0 0 
0 0 0 0 0 0 0 0 0 0 0 0 0 0 0 0 0 0 0 0 0 0 1 2 6 12 14 19 22 23 43 53 78 74 28 41 59 68 89 91 68 56 78 97 106 116 109 89 119 91 77 72 93 90 84 77 98 95 85 98 75 92 122 119 91 83 110 95 105 121 108 66 37 31 65 118 75 50 34 21 16 9 3 0 0 0 3 5 5 3 0 0 0 0 0 0 0 0 0 0 0 0 0 0 0 0 0 0 0 0 0 0 0 0 0 0 0 0 0 0 0 0 0 0 0 0 0 0 
0 0 0 0 0 0 0 0 0 0 0 0 0 0 0 0 0 0 0 0 0 0 0 2 5 8 11 19 22 23 38 56 72 84 35 62 74 83 87 62 56 62 92 86 84 110 110 107 127 97 99 101 89 79 74 79 90 80 69 97 97 105 122 128 96 65 94 100 88 92 117 88 70 51 63 115 90 60 31 19 16 7 2 0 0 1 3 5 5 3 0 0 0 0 0 0 0 0 0 0 0 0 0 0 0 0 0 0 0 0 0 0 0 0 0 0 0 0 0 0 0 0 0 0 0 0 0 0 
0 0 0 0 0 0 0 0 0 0 0 0 0 0 0 0 0 0 0 0 0 0 0 0 3 3 12 15 20 22 37 50 73 93 44 73 77 82 47 38 45 80 91 86 88 105 119 141 138 94 88 97 83 73 70 80 81 83 86 103 111 102 106 120 87 80 92 98 83 74 85 99 75 74 64 106 75 44 20 18 14 6 1 0 0 1 4 6 6 5 1 0 0 0 0 0 0 0 0 0 0 0 0 0 0 0 0 0 0 0 0 0 0 0 0 0 0 0 0 0 0 0 0 0 0 0 0 0 
0 0 0 0 0 0 0 0 0 0 0 0 0 0 0 0 0 0 0 0 0 0 0 0 1 2 9 11 17 21 40 36 70 97 49 75 87 71 36 38 57 96 90 93 70 96 135 162 112 76 81 88 90 83 93 82 87 99 99 96 96 98 110 127 88 72 104 110 98 55 49 84 70 76 68 105 61 35 19 17 14 6 1 0 0 0 2 4 5 4 1 0 0 0 0 0 0 0 0 0 0 0 0 0 0 0 0 0 0 0 0 0 0 0 0 0 0 0 0 0 0 0 0 0 0 0 0 0 
0 0 0 0 0 0 0 0 0 0 0 0 0 0 0 0 0 0 0 0 0 0 0 0 1 2 5 15 13 20 33 43 59 90 62 88 106 62 37 36 62 108 91 77 66 85 136 143 82 70 79 73 77 86 102 105 108 104 92 81 84 89 121 128 81 60 79 108 115 65 36 66 99 86 71 81 40 21 20 18 15 7 0 0 0 0 1 4 5 4 2 0 0 0 0 0 0 0 0 0 0 0 0 0 0 0 0 0 0 0 0 0 0 0 0 0 0 0 0 0 0 0 0 0 0 0 0 0 
0 0 0 0 0 0 0 0 0 0 0 0 0 0 0 0 0 0 0 0 0 0 0 0 0 2 1 9 15 17 22 40 37 52 90 116 108 48 35 36 62 107 81 82 86 87 127 128 73 69 86 72 67 85 106 114 111 101 88 73 75 83 117 134 89 68 79 103 130 76 36 44 104 123 85 48 17 17 20 21 17 7 0 0 0 0 1 4 6 5 2 0 0 0 0 0 0 0 0 0 0 0 0 0 0 0 0 0 0 0 0 0 0 0 0 0 0 0 0 0 0 0 0 0 0 0 0 0 
0 0 0 0 0 0 0 0 0 0 0 0 0 0 0 0 0 0 0 0 0 0 0 0 0 0 3 4 13 16 20 25 23 18 41 81 78 40 33 38 65 102 70 61 73 80 108 123 69 68 73 71 68 81 94 97 101 91 75 67 72 69 103 134 96 84 72 75 129 85 37 35 61 101 55 25 17 18 19 18 14 8 0 0 0 0 2 4 5 5 2 0 0 0 0 0 0 0 0 0 0 0 0 0 0 0 0 0 0 0 0 0 0 0 0 0 0 0 0 0 0 0 0 0 0 0 0 0 
0 0 0 0 0 0 0 0 0 0 0 0 0 0 0 0 0 0 0 0 0 0 0 0 0 0 3 2 12 14 17 20 21 21 15 26 58 49 36 40 84 121 67 43 50 59 106 117 83 71 64 76 77 75 81 84 99 89 68 58 65 66 101 131 114 77 59 74 131 112 47 41 62 61 27 21 15 19 19 15 12 8 1 0 0 0 0 3 5 5 3 0 0 0 0 0 0 0 0 0 0 0 0 0 0 0 0 0 0 0 0 0 0 0 0 0 0 0 0 0 0 0 0 0 0 0 0 0 
0 0 0 0 0 0 0 0 0 0 0 0 0 0 0 0 0 0 0 0 0 0 0 0 0 0 1 2 9 10 14 19 18 20 16 15 41 67 60 67 103 128 75 45 51 73 123 128 107 102 70 80 89 86 88 97 103 92 81 70 61 73 107 116 123 82 52 67 125 142 81 68 69 36 24 17 10 18 16 12 11 8 2 0 0 0 0 2 4 4 3 0 0 0 0 0 0 0 0 0 0 0 0 0 0 0 0 0 0 0 0 0 0 0 0 0 0 0 0 0 0 0 0 0 0 0 0 0 
0 0 0 0 0 0 0 0 0 0 0 0 0 0 0 0 0 0 0 0 0 0 0 0 0 0 0 2 5 11 10 16 21 18 17 16 23 43 61 69 88 124 95 56 76 108 132 109 86 103 78 76 82 75 76 85 83 80 80 73 72 74 110 107 124 96 64 80 121 126 77 62 36 26 28 18 10 19 11 11 9 7 1 0 0 0 0 2 4 5 3 0 0 0 0 0 0 0 0 0 0 0 0 0 0 0 0 0 0 0 0 0 0 0 0 0 0 0 0 0 0 0 0 0 0 0 0 0 
0 0 0 0 0 0 0 0 0 0 0 0 0 0 0 0 0 0 0 0 0 0 0 0 0 0 0 0 3 9 7 14 21 20 24 20 26 28 26 27 38 96 117 93 88 114 122 107 106 116 79 65 63 78 93 95 96 94 95 90 81 67 99 99 114 101 82 99 128 75 31 27 25 27 29 16 12 15 13 10 9 7 1 0 0 0 0 3 5 5 3 1 0 0 0 0 0 0 0 0 0 0 0 0 0 0 0 0 0 0 0 0 0 0 0 0 0 0 0 0 0 0 0 0 0 0 0 0 
0 0 0 0 0 0 0 0 0 0 0 0 0 0 0 0 0 0 0 0 0 0 0 0 0 0 0 0 0 7 8 12 18 22 23 21 23 25 26 27 25 55 116 121 103 114 96 96 105 96 76 75 81 89 95 97 99 102 102 103 96 73 104 101 95 94 98 128 107 48 25 26 27 27 25 17 10 14 13 9 9 6 1 0 0 0 0 3 5 6 3 0 0 0 0 0 0 0 0 0 0 0 0 0 0 0 0 0 0 0 0 0 0 0 0 0 0 0 0 0 0 0 0 0 0 0 0 0 
0 0 0 0 0 0 0 0 0 0 0 0 0 0 0 0 0 0 0 0 0 0 0 0 0 0 0 0 0 6 7 12 13 20 22 18 22 23 25 26 26 28 47 92 108 89 68 85 101 101 103 105 98 95 93 90 86 94 112 106 102 93 110 104 67 69 99 81 45 46 29 26 25 27 21 18 9 14 13 9 9 5 0 0 0 0 0 3 4 4 3 0 0 0 0 0 0 0 0 0 0 0 0 0 0 0 0 0 0 0 0 0 0 0 0 0 0 0 0 0 0 0 0 0 0 0 0 0 
0 0 0 0 0 0 0 0 0 0 0 0 0 0 0 0 0 0 0 0 0 0 0 0 0 0 0 0 0 5 5 11 15 16 24 19 19 24 24 24 26 27 26 35 50 54 51 60 90 100 111 122 105 95 91 87 72 76 91 103 106 97 111 96 58 44 35 37 36 38 34 25 25 28 19 15 13 16 13 11 9 4 0 0 0 0 0 2 4 4 3 1 0 0 0 0 0 0 0 0 0 0 0 0 0 0 0 0 0 0 0 0 0 0 0 0 0 0 0 0 0 0 0 0 0 0 0 0 
