P2
128 99
203
0 0 0 0 0 0 0 0 0 0 0 0 0 0 0 0 0 0 0 0 0 0 0 0 0 0 0 0 0 0 0 0 0 0 0 0 0 0 0 0 1 1 1 0 0 0 0 0 0 0 0 0 0 0 0 0 0 0 0 0 0 0 0 0 0 0 0 0 0 0 0 0 0 0 0 0 0 0 0 0 0 0 0 0 1 1 0 0 0 0 0 0 0 0 0 0 0 0 0 0 0 0 0 0 0 0 0 0 0 0 0 0 0 0 0 0 0 0 0 0 0 0 0 0 0 0 0 0 
0 0 0 0 0 0 0 0 0 0 0 0 0 0 0 0 0 0 0 0 0 0 0 0 0 0 0 0 0 0 0 0 0 0 0 0 0 0 0 0 1 1 1 0 0 0 0 0 0 0 0 0 0 0 0 0 0 0 0 0 0 0 0 0 0 0 0 0 0 0 0 0 0 0 0 0 0 0 1 0 0 0 0 0 1 1 0 0 0 0 0 0 0 0 0 0 0 0 0 0 0 0 0 0 0 0 0 0 0 0 0 0 0 0 0 0 0 0 0 0 0 0 0 0 0 0 0 0 
0 0 0 0 0 0 0 0 0 0 0 0 0 0 0 0 0 0 0 0 0 0 0 0 0 0 0 0 0 0 0 0 0 0 0 0 0 0 0 0 1 1 1 0 0 0 0 0 0 0 1 3 3 3 2 0 0 0 0 0 0 0 0 0 0 0 0 0 0 0 0 0 0 0 0 0 0 0 1 0 0 0 0 1 1 1 0 0 0 0 0 0 0 0 0 0 0 0 0 0 0 0 0 0 0 0 0 0 0 0 0 0 0 0 0 0 0 0 0 0 0 0 0 0 0 0 0 0 
0 0 0 0 0 0 0 0 0 0 0 0 0 0 0 0 0 0 0 0 0 0 0 0 0 0 0 0 0 0 0 0 0 0 0 0 0 0 0 0 1 1 1 1 7 13 17 18 18 19 21 24 27 26 25 21 17 16 15 10 4 0 0 0 0 0 0 0 0 0 0 0 0 0 0 0 0 0 1 0 0 0 0 0 1 1 0 0 0 0 0 0 0 0 0 0 0 0 0 0 0 0 0 0 0 0 0 0 0 0 0 0 0 0 0 0 0 0 0 0 0 0 0 0 0 0 0 0 
0 0 0 0 0 0 0 0 0 0 0 0 0 0 0 0 0 0 0 0 0 0 0 0 0 0 0 0 0 0 0 0 0 0 0 0 0 0 0 0 5 15 20 24 23 31 54 77 98 118 132 142 146 145 143 134 119 100 77 54 33 22 17 10 3 0 0 0 0 0 0 0 0 0 0 0 0 0 0 0 0 0 0 0 1 1 0 0 0 0 0 0 0 0 0 0 0 0 0 0 0 0 0 0 0 0 0 0 0 0 0 0 0 0 0 0 0 0 0 0 0 0 0 0 0 0 0 0 
0 0 0 0 0 0 0 0 0 0 0 0 0 0 0 0 0 0 0 0 0 0 0 0 0 0 0 0 0 0 0 0 0 0 0 0 0 1 9 16 24 26 38 68 108 143 162 172 177 180 183 184 182 180 182 183 182 178 173 162 143 113 77 43 22 16 10 1 0 0 0 0 0 0 0 0 0 0 0 0 0 0 0 0 1 1 1 0 0 0 0 0 0 0 0 0 0 0 0 0 0 0 0 0 0 0 0 0 0 0 0 0 0 0 0 0 0 0 0 0 0 0 0 0 0 0 0 0 
0 0 0 0 0 0 0 0 0 0 0 0 0 0 0 0 0 0 0 0 0 0 0 0 0 0 0 0 0 0 0 0 0 0 0 0 8 21 24 26 52 101 145 169 179 183 187 186 186 186 189 190 189 190 191 190 188 184 180 180 180 177 167 147 117 74 38 18 13 2 0 0 0 0 0 0 0 0 0 0 0 0 0 0 1 1 0 0 0 0 0 0 0 0 0 0 0 0 0 0 0 0 0 0 0 0 0 0 0 0 0 0 0 0 0 0 0 0 0 0 0 0 0 0 0 0 0 0 
0 0 0 0 0 0 0 0 0 0 0 0 0 0 0 0 0 0 0 0 0 0 0 0 0 0 0 0 0 0 0 0 0 0 7 22 26 26 60 119 160 176 183 187 187 187 185 176 173 173 179 186 184 173 172 185 196 200 197 191 187 181 179 182 179 165 141 98 47 22 14 1 0 0 0 0 0 0 0 0 0 0 0 1 1 1 0 0 0 0 0 0 0 0 0 0 0 0 0 0 0 0 0 0 0 0 0 0 0 0 0 0 0 0 0 0 0 0 0 0 0 0 0 0 0 0 0 0 
0 0 0 0 0 0 0 0 0 0 0 0 0 0 0 0 0 0 0 0 0 0 0 0 0 0 0 0 0 0 0 0 5 27 26 23 58 123 164 176 180 184 184 186 187 183 176 166 157 152 151 151 150 145 145 149 158 174 191 200 201 195 189 186 181 179 181 172 148 100 45 24 11 0 0 0 0 0 0 0 0 0 0 1 1 1 0 0 0 0 0 0 0 0 0 0 0 0 0 0 0 0 0 0 0 0 0 0 0 0 0 0 0 0 0 0 0 0 0 0 0 0 0 0 0 0 0 0 
0 0 0 0 0 0 0 0 0 0 0 0 0 0 0 0 0 0 0 0 0 0 0 0 0 0 0 0 0 0 0 24 26 21 39 109 163 174 176 181 181 188 189 176 166 156 146 136 131 128 135 144 144 140 142 143 144 151 162 178 195 198 199 199 194 188 183 180 182 172 141 80 30 19 2 0 0 0 0 0 0 0 0 1 1 1 0 0 0 0 0 0 0 0 0 0 0 0 0 0 0 0 0 0 0 0 0 0 0 0 0 0 0 0 0 0 0 0 0 0 0 0 0 0 0 0 0 0 
0 0 0 0 0 0 0 0 0 0 0 0 0 0 0 0 0 0 0 0 0 0 0 0 0 0 0 0 0 11 28 21 23 84 153 173 177 180 181 188 195 186 168 160 154 147 144 136 133 131 128 134 133 133 142 145 145 141 147 155 168 186 197 200 199 199 197 190 184 181 181 165 116 45 23 6 0 0 0 0 0 0 0 1 1 1 0 0 0 0 0 0 0 0 0 0 0 0 0 0 0 0 0 0 0 0 0 0 0 0 0 0 0 0 0 0 0 0 0 0 0 0 0 0 0 0 0 0 
0 0 0 0 0 0 0 0 0 0 0 0 0 0 0 0 0 0 0 0 0 0 0 0 0 0 0 0 23 23 20 49 128 169 173 180 184 188 195 192 175 160 156 148 138 138 139 138 143 145 139 139 137 138 146 149 148 149 149 151 158 166 176 188 199 203 199 197 196 189 185 182 175 143 67 24 10 0 0 0 0 0 0 1 1 1 0 0 0 0 0 0 0 0 0 0 0 0 0 0 0 0 0 0 0 0 0 0 0 0 0 0 0 0 0 0 0 0 0 0 0 0 0 0 0 0 0 0 
0 0 0 0 0 0 0 0 0 0 0 0 0 0 0 0 0 0 0 0 0 0 0 0 0 0 5 27 20 21 74 151 171 177 183 188 195 196 181 164 161 158 155 161 162 157 151 143 138 129 121 123 120 118 129 138 135 139 145 146 145 159 171 179 185 191 199 203 198 196 193 185 181 179 154 83 25 13 0 0 0 0 0 1 1 1 1 0 0 0 0 0 0 0 0 0 0 0 0 0 0 0 0 0 0 0 0 0 0 0 0 0 0 0 0 0 0 0 0 0 0 0 0 0 0 0 0 0 
0 0 0 0 0 0 0 0 0 0 0 0 0 0 0 0 0 0 0 0 0 0 0 0 0 10 25 19 25 98 160 171 182 188 193 199 192 172 162 161 168 168 157 148 136 133 140 139 134 131 125 124 122 121 120 129 138 141 143 147 146 147 156 162 168 177 185 193 200 201 197 196 187 180 179 159 92 27 14 1 0 0 0 1 1 1 0 0 0 0 0 0 0 0 0 0 0 0 0 0 0 0 0 0 0 0 0 0 0 0 0 0 0 0 0 0 0 0 0 0 0 0 0 0 0 0 0 0 
0 0 0 0 0 0 0 0 0 0 0 0 0 0 0 0 0 0 0 0 0 0 0 0 13 23 17 36 115 161 172 185 190 197 198 182 168 167 171 167 156 144 145 147 147 146 136 124 123 121 113 108 106 118 122 121 127 135 138 139 140 144 147 154 161 162 166 174 180 189 197 197 198 191 181 180 163 102 31 13 0 0 0 1 1 1 1 0 0 0 0 0 0 0 0 0 0 0 0 0 0 0 0 0 0 0 0 0 0 0 0 0 0 0 0 0 0 0 0 0 0 0 0 0 0 0 0 0 
0 0 0 0 0 0 0 0 0 0 0 0 0 0 0 0 0 0 0 0 0 0 3 18 20 15 45 125 160 175 186 189 198 189 169 165 168 171 157 148 148 149 151 143 133 124 126 127 123 121 117 113 113 122 126 122 116 116 123 130 130 130 135 142 147 156 160 160 165 172 178 191 195 198 191 180 178 166 112 36 11 0 0 1 1 1 1 0 0 0 0 0 0 0 0 0 0 0 0 0 0 0 0 0 0 0 0 0 0 0 0 0 0 0 0 0 0 0 0 0 0 0 0 0 0 0 0 0 
0 0 0 0 0 0 0 0 0 0 0 0 0 0 0 0 0 0 0 0 0 5 18 16 17 57 135 161 177 187 192 197 177 161 162 166 163 149 150 152 147 143 133 116 107 110 115 113 119 121 127 132 129 128 130 128 127 130 130 132 134 131 125 130 138 139 147 157 158 162 167 168 182 193 199 191 181 180 166 121 38 9 0 1 1 1 1 0 0 0 0 0 0 0 0 0 0 0 0 0 0 0 0 0 0 0 0 0 0 0 0 0 0 0 0 0 0 0 0 0 0 0 0 0 0 0 0 0 
0 0 0 0 0 0 0 0 0 0 0 0 0 0 0 0 0 0 0 0 6 17 15 19 70 144 161 178 189 194 192 167 158 159 162 155 142 145 143 138 136 135 125 120 123 122 112 113 116 113 111 104 99 106 108 112 115 120 125 132 136 137 136 135 133 132 131 136 148 152 154 161 162 174 184 195 191 181 178 167 126 36 7 1 1 1 0 0 0 0 0 0 0 0 0 0 0 0 0 0 0 0 0 0 0 0 0 0 0 0 0 0 0 0 0 0 0 0 0 0 0 0 0 0 0 0 0 0 
0 0 0 0 0 0 0 0 0 0 0 0 0 0 0 0 0 0 0 5 17 12 19 78 146 160 176 188 193 188 163 154 156 158 148 141 142 134 129 128 132 132 130 123 119 112 107 106 104 101 103 94 96 108 111 113 116 115 115 119 125 128 129 133 134 133 131 131 136 140 143 147 158 154 168 181 196 191 182 176 164 118 29 5 1 1 1 0 0 0 0 0 0 0 0 0 0 0 0 0 0 0 0 0 0 0 0 0 0 0 0 0 0 0 0 0 0 0 0 0 0 0 0 0 0 0 0 0 
0 0 0 0 0 0 0 0 0 0 0 0 0 0 0 0 0 0 4 16 11 20 82 146 157 173 187 192 183 161 154 150 155 149 138 132 121 119 130 139 137 127 120 119 117 116 114 114 110 109 110 110 113 121 121 117 116 115 116 117 116 117 120 124 129 126 131 130 130 138 137 137 147 155 150 163 175 196 193 181 173 160 104 21 3 1 1 0 0 0 0 0 0 0 0 0 0 0 0 0 0 0 0 0 0 0 0 0 0 0 0 0 0 0 0 0 0 0 0 0 0 0 0 0 0 0 0 0 
0 0 0 0 0 0 0 0 0 0 0 0 0 0 0 0 0 2 15 12 21 78 141 154 171 182 190 179 161 152 146 150 146 132 129 115 118 137 142 132 123 119 118 117 116 117 117 116 115 114 113 114 115 116 116 118 121 121 121 122 117 111 106 109 117 127 129 132 123 124 134 133 137 153 158 146 159 174 199 187 179 168 152 82 11 1 1 0 0 0 0 0 0 0 0 0 0 0 0 0 0 0 0 0 0 0 0 0 0 0 0 0 0 0 0 0 0 0 0 0 0 0 0 0 0 0 0 0 
0 0 0 0 0 0 0 0 0 0 0 0 0 0 0 0 0 11 12 18 71 135 150 164 177 188 174 161 150 144 148 145 128 127 115 123 139 139 125 120 117 110 106 108 108 107 104 105 112 110 107 104 104 111 112 109 112 110 110 115 118 113 111 107 104 113 129 136 130 117 120 127 122 128 151 153 143 153 179 195 186 176 164 136 51 5 1 0 0 0 0 0 0 0 0 0 0 0 0 0 0 0 0 0 0 0 0 0 0 0 0 0 0 0 0 0 0 0 0 0 0 0 0 0 0 0 0 0 
0 0 0 0 0 0 0 0 0 0 0 0 0 0 0 0 5 13 13 58 128 146 162 174 186 175 159 148 142 146 146 125 121 121 127 136 134 124 115 110 103 98 97 101 103 103 102 102 99 95 94 92 93 105 108 107 107 104 104 103 106 107 106 104 102 103 112 133 138 126 112 118 125 116 129 155 145 140 149 183 191 185 171 155 112 25 2 0 0 0 0 0 0 0 0 0 0 0 0 0 0 0 0 0 0 0 0 0 0 0 0 0 0 0 0 0 0 0 0 0 0 0 0 0 0 0 0 0 
0 0 0 0 0 0 0 0 0 0 0 0 0 0 0 2 13 12 46 119 140 156 172 185 178 159 146 140 143 146 124 118 123 132 132 127 120 113 104 97 91 89 89 89 89 90 88 89 95 93 98 95 91 100 99 99 102 101 102 99 96 103 105 102 100 100 103 112 135 141 116 105 117 126 117 135 158 141 136 154 185 190 178 164 143 77 8 0 0 0 0 0 0 0 0 0 0 0 0 0 0 0 0 0 0 0 0 0 0 0 0 0 0 0 0 0 0 0 0 0 0 0 0 0 0 0 0 0 
0 0 0 0 0 0 0 0 0 0 0 0 0 0 0 8 12 26 98 130 148 165 178 180 159 150 138 139 143 129 118 123 130 124 119 120 110 102 94 84 84 93 97 95 92 93 94 91 95 96 102 104 98 100 101 100 101 101 103 105 103 102 103 101 101 102 105 106 118 140 131 105 105 122 125 115 145 152 136 136 165 183 184 168 155 118 30 1 0 0 0 0 0 0 0 0 0 0 0 0 0 0 0 0 0 0 0 0 0 0 0 0 0 0 0 0 0 0 0 0 0 0 0 0 0 0 0 0 
0 0 0 0 0 0 0 0 0 0 0 0 0 0 2 10 14 73 123 137 157 171 173 162 149 139 133 139 136 121 124 129 120 113 120 107 102 94 90 90 97 104 105 102 101 99 103 101 103 102 105 107 102 100 98 96 96 100 104 106 105 106 108 105 99 96 100 103 107 122 140 126 103 110 126 120 124 148 139 125 142 168 185 174 161 137 67 5 0 0 0 0 0 0 0 0 0 0 0 0 0 0 0 0 0 0 0 0 0 0 0 0 0 0 0 0 0 0 0 0 0 0 0 0 0 0 0 0 
0 0 0 0 0 0 0 0 0 0 0 0 0 0 6 8 38 112 130 145 165 169 160 152 141 130 132 140 127 128 131 122 111 116 116 97 95 98 99 103 107 108 106 101 102 103 106 109 105 103 107 109 108 106 101 99 96 95 93 99 101 107 109 107 102 95 92 98 100 109 127 140 119 98 109 131 124 136 140 129 129 152 175 179 163 148 101 17 0 0 0 0 0 0 0 0 0 0 0 0 0 0 0 0 0 0 0 0 0 0 0 0 0 0 0 0 0 0 0 0 0 0 0 0 0 0 0 0 
0 0 0 0 0 0 0 0 0 0 0 0 0 1 6 15 80 123 137 155 169 157 157 143 135 122 129 134 122 135 121 104 113 118 109 97 105 110 107 109 108 105 101 95 92 99 108 115 118 115 116 119 123 117 108 106 107 104 100 95 92 97 103 109 108 102 98 100 100 100 112 130 138 113 103 121 132 127 131 131 127 146 165 178 167 154 123 36 2 0 0 0 0 0 0 0 0 0 0 0 0 0 0 0 0 0 0 0 0 0 0 0 0 0 0 0 0 0 0 0 0 0 0 0 0 0 0 0 
0 0 0 0 0 0 0 0 0 0 0 0 0 2 7 35 106 127 147 161 164 152 151 136 125 123 130 126 129 132 108 112 120 113 103 107 112 110 104 100 99 94 88 88 91 100 110 119 121 110 103 108 116 98 88 90 102 110 106 102 98 96 96 100 107 103 101 104 101 97 102 117 136 130 107 114 131 129 125 126 127 143 158 177 171 158 135 58 3 0 0 0 0 0 0 0 0 0 0 0 0 0 0 0 0 0 0 0 0 0 0 0 0 0 0 0 0 0 0 0 0 0 0 0 0 0 0 0 
0 0 0 0 0 0 0 0 0 0 0 0 0 4 9 65 120 126 152 163 150 145 144 129 120 121 127 119 132 118 112 123 120 102 104 112 110 104 95 89 86 88 90 98 105 108 104 98 92 83 78 83 94 82 74 71 73 78 83 94 103 107 105 101 107 104 102 103 107 104 101 107 123 134 122 114 125 125 123 120 124 139 150 172 173 157 141 79 6 0 0 0 0 0 0 0 0 0 0 0 0 0 0 0 0 0 0 0 0 0 0 0 0 0 0 0 0 0 0 0 0 0 0 0 0 0 0 0 
0 0 0 0 0 0 0 0 0 0 0 0 0 5 16 88 124 137 156 157 137 142 139 122 119 120 120 124 129 108 121 124 110 99 109 113 107 92 84 84 89 100 110 112 106 93 78 75 74 73 74 75 84 77 72 71 70 71 69 70 77 90 105 112 115 110 105 103 109 112 108 104 110 128 129 118 121 125 126 112 120 133 146 167 173 157 145 95 10 0 0 0 0 0 0 0 0 0 0 0 0 0 0 0 0 0 0 0 0 0 0 0 0 0 0 0 0 0 0 0 0 0 0 0 0 0 0 0 
0 0 0 0 0 0 0 0 0 0 0 0 1 6 33 108 129 149 159 143 127 141 133 120 116 107 118 129 116 108 126 114 104 107 118 110 93 83 83 92 100 105 102 97 87 73 70 70 72 74 75 76 83 78 76 75 74 74 74 74 76 77 86 108 119 122 111 100 110 117 117 108 105 117 130 125 116 119 125 105 120 133 147 166 174 161 148 109 15 0 0 0 0 0 0 0 0 0 0 0 0 0 0 0 0 0 0 0 0 0 0 0 0 0 0 0 0 0 0 0 0 0 0 0 0 0 0 0 
0 0 0 0 0 0 0 0 0 0 0 0 2 6 49 115 130 154 151 131 125 135 126 120 108 103 126 122 109 108 118 103 105 117 117 101 84 83 95 102 105 96 79 71 79 78 73 76 82 86 89 89 91 90 89 87 87 87 85 86 83 81 81 90 109 115 116 116 117 118 120 115 105 108 124 131 114 110 121 104 111 133 145 160 174 167 153 122 24 0 0 0 0 0 0 0 0 0 0 0 0 0 0 0 0 0 0 0 0 0 0 0 0 0 0 0 0 0 0 0 0 0 0 0 0 0 0 0 
0 0 0 0 0 0 0 0 0 0 0 0 2 7 61 121 134 155 145 126 127 134 129 118 100 107 126 113 105 108 108 102 113 120 115 93 82 93 107 106 97 80 70 69 79 85 83 85 90 93 95 95 96 93 91 88 87 93 95 93 77 73 73 72 85 108 124 128 118 113 117 117 111 105 116 127 113 103 117 109 111 136 143 160 173 172 152 132 36 1 0 0 0 0 0 0 0 0 0 0 0 0 0 0 0 0 0 0 0 0 0 0 0 0 0 0 0 0 0 0 0 0 0 0 0 0 0 0 
0 0 0 0 0 0 0 0 0 0 0 0 3 8 69 125 141 154 142 132 131 129 130 117 103 113 122 108 100 104 107 109 118 117 104 95 92 106 116 110 102 83 71 73 76 85 93 94 96 95 97 96 95 87 85 86 82 87 97 97 83 78 77 77 85 115 125 137 132 119 113 112 114 113 114 122 108 104 114 105 108 139 143 160 173 176 156 140 47 2 0 0 0 0 0 0 0 0 0 0 0 0 0 0 0 0 0 0 0 0 0 0 0 0 0 0 0 0 0 0 0 0 0 0 0 0 0 0 
0 0 0 0 0 0 0 0 0 0 0 0 3 10 77 128 148 152 142 137 132 127 131 116 108 114 117 103 99 101 111 115 117 111 98 109 114 112 112 112 109 103 86 82 82 87 97 108 105 102 101 99 94 87 88 90 87 83 98 98 88 85 86 90 101 111 120 132 140 138 130 114 107 115 121 120 107 109 108 104 110 139 142 159 173 176 161 147 60 3 0 0 0 0 0 0 0 0 0 0 0 0 0 0 0 0 0 0 0 0 0 0 0 0 0 0 0 0 0 0 0 0 0 0 0 0 0 0 
0 0 0 0 0 0 0 0 0 0 0 0 3 11 81 132 152 155 145 143 134 132 133 119 115 113 112 101 98 104 119 115 115 111 114 121 125 114 105 100 92 88 93 103 98 94 99 110 112 108 107 102 99 90 92 91 86 82 92 91 89 92 103 105 95 85 76 82 102 114 118 115 115 120 124 126 115 115 106 109 119 142 142 154 170 178 163 150 73 5 0 0 0 0 0 0 0 0 0 0 0 0 0 0 0 0 0 0 0 0 0 0 0 0 0 0 0 0 0 0 0 0 0 0 0 0 0 0 
0 0 0 0 0 0 0 0 0 0 0 0 5 13 86 135 157 158 141 145 138 135 134 126 121 114 112 97 97 111 123 111 119 128 121 109 89 76 73 76 78 81 92 102 105 105 101 103 102 98 101 101 105 96 94 86 81 76 87 89 91 104 104 94 83 73 72 77 90 98 99 99 98 114 127 130 136 120 107 116 125 139 138 149 165 178 167 151 86 7 0 0 0 0 0 0 0 0 0 0 0 0 0 0 0 0 0 0 0 0 0 0 0 0 0 0 0 0 0 0 0 0 0 0 0 0 0 0 
0 0 0 0 0 0 0 0 0 0 0 0 6 12 91 137 159 155 144 147 136 136 134 131 132 121 114 98 97 114 122 120 133 119 91 76 74 73 76 81 81 78 83 93 104 104 107 102 101 98 96 96 103 99 91 85 81 83 90 94 108 100 94 92 88 83 80 83 96 104 103 100 94 98 128 143 145 128 117 126 127 133 131 142 153 176 169 155 99 10 0 0 0 0 0 0 0 0 0 0 0 0 0 0 0 0 0 0 0 0 0 0 0 0 0 0 0 0 0 0 0 0 0 0 0 0 0 0 
0 0 0 0 0 0 0 0 0 0 0 0 6 12 94 140 158 155 142 144 131 135 129 129 138 125 117 112 102 114 126 133 120 86 79 82 82 83 85 87 87 89 91 94 97 104 105 107 94 101 104 100 104 104 99 97 95 98 94 105 101 97 94 89 87 84 82 84 93 102 107 107 102 102 121 151 151 141 127 130 123 128 127 136 142 168 170 156 114 15 0 0 0 0 0 0 0 0 0 0 0 0 0 0 0 0 0 0 0 0 0 0 0 0 0 0 0 0 0 0 0 0 0 0 0 0 0 0 
0 0 0 0 0 0 0 0 0 0 0 0 7 14 93 141 162 157 138 137 128 131 126 122 135 126 118 122 123 113 129 129 100 83 79 77 78 82 86 88 88 88 87 91 95 93 101 106 99 98 100 107 111 110 111 108 103 100 87 105 94 90 93 94 99 98 92 94 101 111 112 109 104 110 123 141 151 148 135 134 119 123 120 128 136 164 172 157 124 23 0 0 0 0 0 0 0 0 0 0 0 0 0 0 0 0 0 0 0 0 0 0 0 0 0 0 0 0 0 0 0 0 0 0 0 0 0 0 
0 0 0 0 0 0 0 0 0 0 0 0 7 15 96 142 161 158 132 132 127 129 122 118 133 127 116 115 127 122 132 125 104 89 79 77 85 94 96 93 94 100 94 89 89 92 95 94 91 86 91 102 117 125 126 104 97 92 92 103 89 88 96 98 96 92 89 95 103 113 114 111 110 110 112 118 139 145 135 136 115 122 116 118 129 158 170 157 128 32 1 0 0 0 0 0 0 0 0 0 0 0 0 0 0 0 0 0 0 0 0 0 0 0 0 0 0 0 0 0 0 0 0 0 0 0 0 0 
0 0 0 0 0 0 0 0 0 0 0 0 8 16 97 143 162 158 124 132 125 125 118 117 122 120 117 112 119 121 135 130 114 102 92 90 93 97 96 95 96 100 99 92 90 87 89 91 90 82 88 105 120 115 125 109 92 93 94 96 86 91 95 98 93 86 80 85 98 111 115 110 103 107 114 112 129 137 133 143 112 115 108 117 118 147 167 157 132 42 1 0 0 0 0 0 0 0 0 0 0 0 0 0 0 0 0 0 0 0 0 0 0 0 0 0 0 0 0 0 0 0 0 0 0 0 0 0 
0 0 0 0 0 0 0 0 0 0 0 0 8 16 100 147 162 157 127 132 122 122 113 109 113 121 116 108 108 119 128 119 102 91 82 83 89 98 98 90 89 90 89 90 93 85 85 91 97 86 88 101 104 96 97 108 99 98 96 90 89 89 97 98 89 82 75 76 91 107 111 108 102 107 117 108 127 134 130 140 109 111 104 115 111 135 159 156 134 49 3 0 0 0 0 0 0 0 0 0 0 0 0 0 0 0 0 0 0 0 0 0 0 0 0 0 0 0 0 0 0 0 0 0 0 0 0 0 
0 0 0 0 0 0 0 0 0 0 0 0 9 16 99 149 162 154 121 124 116 114 105 98 106 117 112 109 105 113 122 116 93 86 75 78 83 93 95 92 93 92 88 83 82 89 89 86 85 82 93 100 97 98 96 106 101 100 100 94 88 92 95 87 79 80 79 78 90 107 109 104 98 104 111 108 123 129 125 136 113 111 96 111 103 123 148 154 135 54 2 0 0 0 0 0 0 0 0 0 0 0 0 0 0 0 0 0 0 0 0 0 0 0 0 0 0 0 0 0 0 0 0 0 0 0 0 0 
0 0 0 0 0 0 0 0 0 0 0 0 8 17 96 149 164 150 113 117 109 109 97 93 99 111 116 116 110 110 118 115 90 83 74 77 85 90 92 91 92 92 88 85 80 80 91 86 83 89 106 117 108 105 103 97 110 93 93 93 94 98 100 83 79 79 75 79 90 106 109 100 93 107 110 110 119 123 127 139 122 110 93 111 109 117 134 148 136 60 2 0 0 0 0 0 0 0 0 0 0 0 0 0 0 0 0 0 0 0 0 0 0 0 0 0 0 0 0 0 0 0 0 0 0 0 0 0 
0 0 0 0 0 0 0 0 0 0 0 0 8 17 94 147 163 143 113 106 105 106 95 97 93 110 122 116 112 109 113 116 91 81 76 79 84 93 94 95 90 83 81 84 85 86 87 84 74 82 104 112 95 87 95 84 99 105 90 97 97 96 91 84 81 76 75 79 91 104 107 93 87 102 110 116 116 119 133 142 127 112 90 107 109 114 131 145 137 62 3 0 0 0 0 0 0 0 0 0 0 0 0 0 0 0 0 0 0 0 0 0 0 0 0 0 0 0 0 0 0 0 0 0 0 0 0 0 
0 0 0 0 0 0 0 0 0 0 0 0 7 16 88 146 160 132 108 103 109 107 96 97 92 109 124 112 114 112 117 117 93 80 77 79 85 94 95 95 90 86 84 92 92 92 92 76 68 84 112 104 73 71 81 78 86 112 87 93 91 92 89 86 80 74 75 79 92 105 103 90 90 104 107 117 116 129 130 134 129 112 90 104 110 110 131 148 133 60 3 0 0 0 0 0 0 0 0 0 0 0 0 0 0 0 0 0 0 0 0 0 0 0 0 0 0 0 0 0 0 0 0 0 0 0 0 0 
0 0 0 0 0 0 0 0 0 0 0 0 6 14 80 144 157 127 106 99 111 105 96 97 92 106 127 115 112 114 121 119 94 80 79 75 84 98 99 93 90 86 83 79 77 85 88 73 75 89 98 81 73 73 81 68 74 103 100 92 90 88 88 86 80 76 76 81 95 104 99 89 96 106 103 108 114 120 118 126 130 108 91 105 106 107 132 146 130 54 2 0 0 0 0 0 0 0 0 0 0 0 0 0 0 0 0 0 0 0 0 0 0 0 0 0 0 0 0 0 0 0 0 0 0 0 0 0 
0 0 0 0 0 0 0 0 0 0 0 0 4 14 74 140 155 129 111 96 108 104 97 96 91 100 125 118 113 112 121 121 97 77 75 76 81 98 103 96 90 84 84 78 78 82 84 71 81 95 94 80 74 77 87 75 72 88 107 92 89 87 90 86 77 80 79 84 92 99 96 92 97 105 97 104 113 117 115 119 130 104 94 105 103 107 134 142 123 48 2 0 0 0 0 0 0 0 0 0 0 0 0 0 0 0 0 0 0 0 0 0 0 0 0 0 0 0 0 0 0 0 0 0 0 0 0 0 
0 0 0 0 0 0 0 0 0 0 0 0 2 14 67 134 152 134 115 96 104 107 97 98 93 93 120 120 114 106 118 121 101 80 76 77 84 96 105 99 86 82 76 79 78 81 77 69 90 98 82 76 72 79 94 79 74 75 104 98 97 93 91 86 81 78 77 83 89 96 94 93 95 99 90 98 116 132 124 117 125 100 98 102 98 106 137 140 116 42 2 0 0 0 0 0 0 0 0 0 0 0 0 0 0 0 0 0 0 0 0 0 0 0 0 0 0 0 0 0 0 0 0 0 0 0 0 0 
0 0 0 0 0 0 0 0 0 6 5 0 1 11 59 126 148 135 118 97 96 106 97 98 95 88 112 119 110 96 111 120 106 83 76 80 86 98 102 100 88 83 77 77 83 94 82 78 90 86 77 74 69 82 87 79 77 77 86 109 108 112 108 97 86 81 82 85 93 98 93 92 91 94 88 100 120 126 131 127 118 98 101 96 95 110 140 136 104 35 1 0 0 0 0 0 0 0 0 0 0 0 0 0 0 0 0 0 0 0 0 0 0 0 0 0 0 0 0 0 0 0 0 0 0 0 0 0 
0 0 0 0 0 0 0 0 0 4 7 3 1 8 50 119 146 131 117 99 92 105 99 99 96 87 112 119 107 91 103 116 110 89 75 81 95 99 98 98 95 92 94 89 83 88 86 94 96 80 79 77 71 84 83 83 79 78 80 118 134 131 112 96 86 74 77 85 93 96 90 89 87 93 95 110 118 113 121 130 120 103 96 94 92 113 138 129 94 30 1 0 0 0 0 0 0 0 0 0 0 0 0 0 0 0 0 0 0 0 0 0 0 0 0 0 0 0 0 0 0 0 0 0 0 0 0 0 
0 0 0 0 0 0 0 0 0 2 1 9 3 8 40 111 143 131 112 99 90 97 101 96 99 90 109 121 107 97 117 119 110 102 87 82 96 104 104 102 102 100 95 96 95 99 94 100 95 74 78 76 77 92 86 80 84 84 100 125 139 125 108 102 96 87 88 92 94 98 90 87 98 116 106 112 125 111 112 131 133 111 94 94 95 121 138 123 84 23 0 0 0 0 0 0 0 0 0 0 0 0 0 0 0 0 0 0 0 0 0 0 0 0 0 0 0 0 0 0 0 0 0 0 0 0 0 0 
0 0 0 0 0 0 0 0 0 0 3 12 5 7 31 98 137 135 110 103 92 95 105 96 100 97 111 118 111 114 130 132 110 95 94 85 92 104 111 104 105 105 97 95 84 95 96 111 101 75 81 81 80 100 91 85 85 76 80 122 142 117 104 103 99 107 116 116 123 123 122 121 136 135 126 135 133 127 120 134 128 126 99 91 107 128 133 111 81 16 0 0 0 7 4 0 0 0 0 0 0 0 0 0 0 0 0 0 0 0 0 0 0 0 0 0 0 0 0 0 0 0 0 0 0 0 0 0 
0 0 0 0 0 0 0 0 0 0 4 14 3 7 24 88 132 142 111 110 99 89 98 100 98 107 115 111 117 121 122 126 124 116 108 103 108 119 126 120 113 107 86 80 88 99 109 106 94 79 83 89 88 104 94 81 82 79 86 127 131 113 111 104 95 99 134 147 141 143 149 150 139 120 112 130 136 142 117 128 132 129 109 111 110 130 118 104 73 11 3 1 4 1 2 0 0 0 0 0 0 0 0 0 0 0 0 0 0 0 0 0 0 0 0 0 0 0 0 0 0 0 0 0 0 0 0 0 
0 0 0 0 0 0 0 0 0 0 3 12 5 8 18 81 124 148 123 114 103 90 89 102 103 117 119 110 111 131 115 121 129 124 117 120 122 119 119 113 113 104 103 101 93 91 99 102 99 91 87 98 98 115 103 85 89 87 102 130 131 113 105 102 98 116 156 168 160 151 139 140 129 110 109 130 149 155 120 134 138 129 117 130 141 135 111 103 64 8 4 4 4 0 0 0 0 0 0 0 0 0 0 0 0 0 0 0 0 0 0 0 0 0 0 0 0 0 0 0 0 0 0 0 0 0 0 0 
0 0 0 0 0 0 0 0 0 0 2 9 7 8 13 67 114 146 139 114 106 90 94 108 114 117 124 121 105 129 122 119 132 132 120 118 110 116 118 119 113 106 103 106 96 86 100 106 107 105 90 93 97 114 99 90 100 100 115 124 116 107 104 100 102 124 155 163 154 143 133 130 123 133 137 142 152 146 140 142 142 145 134 148 158 134 110 101 51 6 3 3 6 0 0 0 0 0 0 0 0 0 0 0 0 0 0 0 0 0 0 0 0 0 0 0 0 0 0 0 0 0 0 0 0 0 0 0 
0 0 0 0 0 0 0 0 0 0 1 7 9 9 12 53 104 141 144 125 117 105 112 113 124 124 126 137 125 140 141 125 137 157 154 142 135 128 117 112 110 105 93 94 97 89 93 116 114 104 99 97 84 103 98 94 96 105 104 108 110 92 101 109 111 124 151 153 156 143 146 148 143 142 139 145 152 143 150 155 167 181 159 161 164 119 113 96 33 7 2 4 3 0 0 0 0 0 0 0 0 0 0 0 0 0 0 0 0 0 0 0 0 0 0 0 0 0 0 0 0 0 0 0 0 0 0 0 
0 0 0 0 0 0 0 0 0 0 0 8 10 7 9 35 100 136 145 141 136 138 133 134 137 144 135 131 131 134 134 130 130 152 157 141 142 141 121 111 110 104 90 87 95 92 100 118 101 85 86 93 89 107 94 82 80 95 95 92 96 94 95 101 106 123 143 133 136 144 139 134 138 129 132 141 157 164 162 169 173 177 173 169 142 110 106 79 16 2 4 3 2 1 0 0 0 0 0 0 0 0 0 0 0 0 0 0 0 0 0 0 0 0 0 0 0 0 0 0 0 0 0 0 0 0 0 0 
0 0 0 0 0 0 0 0 0 0 0 5 8 9 6 12 57 119 143 146 144 163 170 154 141 150 137 119 131 138 138 149 144 149 155 144 153 156 138 108 100 100 95 84 90 93 94 113 95 73 78 93 85 98 102 81 72 84 96 96 101 92 96 105 108 118 126 130 131 135 130 127 137 134 128 147 150 170 161 160 176 163 158 151 137 115 107 89 16 4 6 4 2 1 0 0 0 0 0 0 0 0 0 0 0 0 0 0 0 0 0 0 0 0 0 0 0 0 0 0 0 0 0 0 0 0 0 0 
0 0 0 0 0 0 0 0 0 0 0 7 8 5 6 10 36 108 145 143 151 168 161 155 147 157 159 140 119 144 134 138 154 150 155 148 153 167 138 102 97 108 110 97 88 88 103 108 93 83 91 102 94 107 105 88 76 72 82 87 95 98 94 109 118 117 112 120 139 129 119 120 134 130 137 150 145 148 133 145 168 164 142 123 121 128 110 61 7 2 5 6 3 1 0 0 0 0 0 0 0 0 0 0 0 0 0 0 0 0 0 0 0 0 0 0 0 0 0 0 0 0 0 0 0 0 0 0 
0 0 0 0 0 0 0 0 0 0 0 8 5 3 6 9 22 86 141 149 147 153 157 154 169 163 152 135 112 136 138 121 131 142 151 153 146 154 128 108 98 104 104 100 84 86 98 99 88 99 104 100 100 116 128 106 70 73 85 81 89 115 111 118 109 96 100 120 129 121 123 131 137 152 157 151 143 138 127 141 148 160 129 121 124 119 102 32 4 2 4 4 5 0 0 0 0 0 0 0 0 0 0 0 0 0 0 0 0 0 0 0 0 0 0 0 0 0 0 0 0 0 0 0 0 0 0 0 
0 0 0 0 0 0 0 0 0 0 0 8 6 5 6 9 18 61 128 149 138 136 143 142 147 146 153 129 121 137 136 123 113 122 140 147 136 130 122 117 107 99 97 93 95 97 106 105 109 99 100 107 105 109 118 117 83 84 95 87 101 130 119 109 99 85 95 106 94 90 125 142 140 158 157 153 149 136 134 142 118 128 126 124 112 98 73 16 7 6 4 2 5 1 0 0 0 0 0 0 0 0 0 0 0 0 0 0 0 0 0 0 0 0 0 0 0 0 0 0 0 0 0 0 0 0 0 0 
0 0 0 0 0 0 0 0 0 0 0 5 10 6 6 10 16 33 106 138 127 116 136 135 139 136 123 112 123 141 137 132 119 99 119 138 137 126 123 111 109 102 113 122 119 118 128 118 122 110 100 100 95 93 108 111 104 109 112 108 113 129 110 116 115 104 91 76 81 104 127 143 155 149 142 146 144 136 143 143 137 130 115 115 104 103 44 15 9 7 5 2 3 2 0 0 0 0 0 0 0 0 0 0 0 0 0 0 0 0 0 0 0 0 0 0 0 0 0 0 0 0 0 0 0 0 0 0 
0 0 0 0 0 0 0 0 0 0 0 2 9 8 5 9 13 16 77 119 117 114 124 135 136 132 133 124 130 139 145 133 123 114 130 145 150 144 115 90 81 93 112 116 104 108 120 124 120 113 124 118 103 96 121 120 105 107 112 109 99 123 117 122 121 107 80 76 104 119 119 135 134 135 135 138 137 145 168 163 146 117 119 98 91 82 20 14 13 10 6 3 4 3 0 0 0 0 0 0 0 0 0 0 0 0 0 0 0 0 0 0 0 0 0 0 0 0 0 0 0 0 0 0 0 0 0 0 
0 0 0 0 0 0 0 0 0 0 0 1 4 4 3 7 12 12 47 116 127 113 126 147 138 131 144 143 145 149 143 127 106 107 118 134 131 124 116 106 89 96 96 104 113 118 122 124 129 125 130 137 143 143 148 132 131 134 128 123 125 143 146 131 118 97 81 91 109 122 106 108 123 119 130 137 135 167 181 165 125 110 111 95 98 55 14 13 13 11 7 5 6 2 0 0 0 0 0 0 0 0 0 0 0 0 0 0 0 0 0 0 0 0 0 0 0 0 0 0 0 0 0 0 0 0 0 0 
0 0 0 0 0 0 0 0 0 0 0 0 2 1 1 5 12 13 25 94 121 104 109 127 154 142 154 154 142 150 148 133 123 110 105 116 110 89 85 110 111 106 105 113 132 140 144 138 146 146 141 146 159 164 164 154 149 153 148 141 147 154 169 151 129 116 116 111 118 124 112 106 116 127 128 141 148 168 159 149 123 100 84 78 82 32 13 12 9 8 8 5 5 1 0 0 0 0 0 0 0 0 0 0 0 0 0 0 0 0 0 0 0 0 0 0 0 0 0 0 0 0 0 0 0 0 0 0 
0 0 0 0 0 0 0 0 0 0 0 1 2 0 1 5 10 13 15 64 112 118 102 118 152 154 158 153 157 154 156 145 125 125 122 112 107 102 97 101 127 123 119 127 137 143 149 142 149 138 139 148 143 131 136 144 140 139 133 128 134 147 158 163 147 145 141 135 138 129 115 106 110 118 129 148 155 161 153 139 114 99 100 91 69 20 12 7 5 5 5 4 2 0 0 0 0 0 0 0 0 0 0 0 0 0 0 0 0 0 0 0 0 0 0 0 0 0 0 0 0 0 0 0 0 0 0 0 
0 0 0 0 0 0 0 0 0 0 2 5 6 3 2 6 10 10 14 41 84 111 106 111 134 150 149 150 148 151 149 143 126 116 112 115 112 112 116 118 125 143 142 140 138 135 139 149 142 139 136 135 133 149 141 139 145 150 130 129 136 155 170 162 162 152 137 146 150 126 104 92 100 111 124 146 160 161 143 127 101 86 101 88 62 16 10 6 6 2 1 2 2 0 0 0 0 0 0 0 0 0 0 0 0 0 0 0 0 0 0 0 0 0 0 0 0 0 0 0 0 0 0 0 0 0 0 0 
0 0 0 0 0 0 0 0 0 0 1 5 13 11 4 4 7 9 13 28 78 114 119 107 105 119 144 152 144 136 150 134 129 121 102 99 103 112 122 131 140 155 169 173 155 140 141 146 139 147 145 141 146 158 157 141 151 155 132 120 127 145 156 164 169 154 156 158 144 109 89 90 96 111 130 155 157 151 133 129 97 74 96 90 60 17 8 5 5 4 1 2 2 0 0 0 0 0 0 0 0 0 0 0 0 0 0 0 0 0 0 0 0 0 0 0 0 0 0 0 0 0 0 0 0 0 0 0 
0 0 0 0 0 0 0 0 0 0 0 3 11 13 8 5 6 10 13 20 60 105 114 111 102 108 136 143 151 133 127 112 126 112 100 99 100 110 116 120 134 151 172 180 174 153 144 140 148 159 161 168 163 163 162 137 142 150 125 110 134 136 142 165 173 162 164 158 150 119 85 78 90 109 148 168 167 162 146 98 79 68 103 88 38 16 5 3 4 5 3 2 2 1 1 0 0 0 0 0 0 0 0 0 0 0 0 0 0 0 0 0 0 0 0 0 0 0 0 0 0 0 0 0 0 0 0 0 
0 0 0 0 0 0 0 0 0 0 0 4 11 10 10 7 8 12 16 14 31 88 115 111 101 112 120 142 153 130 129 123 123 101 87 101 107 105 103 103 108 131 170 170 169 167 147 134 142 149 165 176 163 158 134 113 122 134 139 130 148 152 141 167 182 173 164 150 138 122 96 101 114 129 157 154 167 153 139 88 69 60 75 62 18 16 8 8 7 6 9 7 7 6 5 0 0 0 0 0 0 0 0 0 0 0 0 0 0 0 0 0 0 0 0 0 0 0 0 0 0 0 0 0 0 0 0 0 
0 0 0 0 0 0 0 0 0 0 0 2 11 9 9 10 9 10 12 15 19 47 103 99 97 100 110 140 162 158 157 142 119 118 95 84 83 88 93 102 120 136 163 163 161 159 151 130 136 139 154 159 147 158 151 127 114 122 129 134 146 154 153 176 177 175 157 130 130 138 142 113 130 139 141 137 119 115 108 67 53 77 97 34 10 12 13 8 7 4 2 5 13 6 3 0 0 0 0 0 0 0 0 0 0 0 0 0 0 0 0 0 0 0 0 0 0 0 0 0 0 0 0 0 0 0 0 0 
0 0 0 0 0 0 0 0 0 0 0 0 10 11 5 6 7 6 9 16 22 26 68 94 80 87 102 134 146 155 163 152 127 127 109 97 97 94 95 114 129 165 172 163 162 159 149 155 170 159 145 147 159 175 177 160 144 146 146 144 147 154 180 186 178 191 173 163 175 163 162 123 128 140 125 100 82 103 101 75 84 93 53 17 8 4 3 6 5 4 4 5 7 4 0 0 0 0 0 0 0 0 0 0 0 0 0 0 0 0 0 0 0 0 0 0 0 0 0 0 0 0 0 0 0 0 0 0 
0 0 0 0 0 0 0 0 0 0 0 0 3 6 4 2 2 2 4 9 18 20 38 81 86 80 93 98 92 128 133 133 124 125 116 101 99 101 119 136 177 173 177 183 179 193 170 184 187 173 157 162 166 169 169 166 167 174 170 164 177 182 193 184 196 200 183 181 130 111 134 150 125 107 99 98 84 93 87 71 67 45 28 26 16 4 2 3 3 5 5 6 6 1 0 0 0 0 0 0 0 0 0 0 0 0 0 0 0 0 0 0 0 0 0 0 0 0 0 0 0 0 0 0 0 0 0 0 
0 0 0 0 0 0 0 0 0 0 0 0 0 2 3 1 1 1 1 6 19 23 19 47 80 82 73 49 58 70 82 98 126 134 124 115 113 133 149 160 170 177 168 194 195 191 189 191 180 169 146 154 164 167 163 165 159 155 149 138 150 192 197 175 165 182 185 163 134 108 114 95 74 78 73 79 74 85 65 46 38 36 37 31 20 1 2 2 2 2 1 7 7 0 0 0 0 0 0 0 0 0 0 0 0 0 0 0 0 0 0 0 0 0 0 0 0 0 0 0 0 0 0 0 0 0 0 0 
0 0 0 0 0 0 0 0 0 0 0 0 0 3 5 6 3 1 3 5 10 14 18 23 36 58 43 41 57 57 57 52 85 78 89 87 75 74 74 74 93 139 152 147 134 140 125 116 149 104 94 117 132 136 137 130 104 92 98 94 89 100 105 138 130 144 120 64 60 62 61 54 40 47 51 63 79 89 45 30 30 26 21 8 4 1 4 4 2 1 1 7 6 0 0 0 0 0 0 0 0 0 0 0 0 0 0 0 0 0 0 0 0 0 0 0 0 0 0 0 0 0 0 0 0 0 0 0 
0 0 0 0 0 0 0 0 0 0 0 0 0 0 4 3 4 2 1 1 6 10 12 17 23 22 25 32 55 58 53 62 74 56 70 79 69 55 59 59 74 79 88 75 81 96 75 64 64 72 70 80 100 110 112 100 76 59 63 71 81 98 92 93 87 93 85 59 78 89 66 60 41 47 64 67 82 89 46 30 29 26 16 6 2 1 2 2 3 3 4 6 1 0 0 0 0 0 0 0 0 0 0 0 0 0 0 0 0 0 0 0 0 0 0 0 0 0 0 0 0 0 0 0 0 0 0 0 
0 0 0 0 0 0 0 0 0 0 0 0 0 0 0 0 0 0 0 0 5 10 9 14 21 26 26 35 57 71 54 64 77 58 64 74 82 78 121 110 124 136 110 108 104 100 86 89 93 83 71 87 95 103 102 95 89 95 106 105 106 112 91 87 102 131 120 85 102 98 87 85 85 87 90 75 85 85 43 32 31 25 16 11 1 0 0 1 1 2 2 0 0 0 0 0 0 0 0 0 0 0 0 0 0 0 0 0 0 0 0 0 0 0 0 0 0 0 0 0 0 0 0 0 0 0 0 0 
0 0 0 0 0 0 0 0 0 0 0 0 0 0 0 0 0 0 0 0 0 3 3 7 17 38 34 38 63 81 68 68 83 78 92 96 94 110 127 141 147 160 152 134 136 159 159 160 152 124 108 118 128 126 120 118 128 137 136 129 130 147 141 138 139 134 126 119 96 125 124 117 93 86 90 83 79 76 49 45 36 25 19 15 0 0 0 0 0 0 0 0 0 0 0 0 0 0 0 0 0 0 0 0 0 0 0 0 0 0 0 0 0 0 0 0 0 0 0 0 0 0 0 0 0 0 0 0 
0 0 0 0 0 0 0 0 0 0 0 0 0 0 0 0 0 0 0 0 0 1 4 3 11 35 33 32 43 63 58 76 94 105 134 132 125 125 94 104 145 149 153 153 179 171 173 185 140 146 154 137 153 162 153 139 142 146 157 143 144 173 170 158 163 143 139 103 128 105 99 129 108 98 76 72 89 67 35 39 28 5 4 2 1 0 0 1 0 0 0 0 0 0 0 0 0 0 0 0 0 0 0 0 0 0 0 0 0 0 0 0 0 0 0 0 0 0 0 0 0 0 0 0 0 0 0 0 
0 0 0 0 0 0 0 0 0 0 0 0 0 0 0 0 0 0 0 0 0 1 3 2 8 18 21 27 40 65 64 63 70 57 79 82 101 101 90 119 113 102 118 92 132 134 154 156 146 140 140 125 126 129 133 121 114 100 109 116 146 157 147 145 149 130 130 130 142 144 95 82 62 46 59 82 87 58 32 31 19 13 9 3 2 2 3 4 3 2 0 0 0 0 0 0 0 0 0 0 0 0 0 0 0 0 0 0 0 0 0 0 0 0 0 0 0 0 0 0 0 0 0 0 0 0 0 0 
0 0 0 0 0 0 0 0 0 0 0 0 0 0 0 0 0 0 0 0 0 0 5 6 8 14 23 23 32 49 72 62 75 57 61 48 47 85 81 132 114 101 100 99 119 124 115 117 117 122 121 104 95 89 101 93 105 91 82 89 116 144 144 117 132 111 123 112 126 122 96 65 54 51 67 96 93 50 20 15 20 19 9 2 1 1 2 3 2 1 0 0 0 0 0 0 0 0 0 0 0 0 0 0 0 0 0 0 0 0 0 0 0 0 0 0 0 0 0 0 0 0 0 0 0 0 0 0 
0 0 0 0 0 0 0 0 0 0 0 0 0 0 0 0 0 0 0 0 0 0 2 6 9 13 19 20 24 36 63 67 80 60 55 34 39 56 79 98 91 88 96 103 101 107 114 117 113 111 99 81 79 77 79 77 96 97 98 103 113 122 122 116 95 100 113 120 119 104 84 58 51 55 79 103 89 53 24 17 18 14 7 2 1 0 2 3 3 2 0 0 0 0 0 0 0 0 0 0 0 0 0 0 0 0 0 0 0 0 0 0 0 0 0 0 0 0 0 0 0 0 0 0 0 0 0 0 
0 0 0 0 0 0 0 0 0 0 0 0 0 0 0 0 0 0 0 0 0 0 0 5 8 10 16 22 22 34 57 69 86 64 57 34 48 67 94 99 79 82 90 94 95 100 129 136 132 108 107 99 87 81 81 85 92 93 114 125 114 114 121 125 111 102 109 106 98 105 94 56 45 50 79 107 84 51 23 17 17 13 7 2 1 0 1 2 2 1 0 0 0 0 0 0 0 0 0 0 0 0 0 0 0 0 0 0 0 0 0 0 0 0 0 0 0 0 0 0 0 0 0 0 0 0 0 0 
0 0 0 0 0 0 0 0 0 0 0 0 0 0 0 0 0 0 0 0 0 0 0 3 6 8 13 20 20 32 54 64 80 68 62 54 72 79 66 55 63 75 90 95 94 103 118 132 129 107 103 108 101 97 94 88 90 97 113 122 115 132 130 122 101 86 104 111 105 92 92 84 73 62 76 108 72 44 23 16 15 11 5 2 2 1 2 3 3 2 0 0 0 0 0 0 0 0 0 0 0 0 0 0 0 0 0 0 0 0 0 0 0 0 0 0 0 0 0 0 0 0 0 0 0 0 0 0 
0 0 0 0 0 0 0 0 0 0 0 0 0 0 0 0 0 0 0 0 0 0 0 0 5 9 11 16 19 27 58 60 83 76 65 74 77 59 40 52 62 70 87 93 99 97 98 128 124 105 95 99 98 107 96 90 99 104 101 106 126 129 120 109 98 94 100 91 90 93 72 83 84 85 80 105 72 45 24 17 15 10 4 2 2 1 2 3 3 3 1 0 0 0 0 0 0 0 0 0 0 0 0 0 0 0 0 0 0 0 0 0 0 0 0 0 0 0 0 0 0 0 0 0 0 0 0 0 
0 0 0 0 0 0 0 0 0 0 0 0 0 0 0 0 0 0 0 0 0 0 0 0 3 5 9 12 19 24 47 47 79 78 65 79 78 51 44 59 58 69 98 101 102 95 84 104 112 110 110 96 93 97 99 98 100 103 97 99 129 125 105 93 96 98 99 93 67 68 63 66 80 91 87 99 76 50 19 16 15 9 2 2 2 1 1 2 3 2 1 0 0 0 0 0 0 0 0 0 0 0 0 0 0 0 0 0 0 0 0 0 0 0 0 0 0 0 0 0 0 0 0 0 0 0 0 0 
0 0 0 0 0 0 0 0 0 0 0 0 0 0 0 0 0 0 0 0 0 0 0 0 0 4 6 12 15 19 36 53 68 76 66 91 85 47 50 53 49 81 109 89 89 94 79 97 111 103 114 94 88 84 91 101 98 95 86 100 127 116 106 78 78 90 83 100 76 54 60 58 90 93 92 81 50 24 16 16 16 9 3 2 2 1 1 2 3 2 1 0 0 0 0 0 0 0 0 0 0 0 0 0 0 0 0 0 0 0 0 0 0 0 0 0 0 0 0 0 0 0 0 0 0 0 0 0 
0 0 0 0 0 0 0 0 0 0 0 0 0 0 0 0 0 0 0 0 0 0 0 0 0 5 4 7 14 18 23 34 37 47 73 103 83 46 57 50 45 79 95 69 81 86 70 95 111 105 109 97 88 89 92 89 81 85 87 98 111 102 99 87 80 91 71 88 85 50 60 58 83 109 87 40 18 16 17 17 17 9 2 2 2 1 1 2 3 3 1 0 0 0 0 0 0 0 0 0 0 0 0 0 0 0 0 0 0 0 0 0 0 0 0 0 0 0 0 0 0 0 0 0 0 0 0 0 
0 0 0 0 0 0 0 0 0 0 0 0 0 0 0 0 0 0 0 0 0 0 0 0 0 0 5 4 11 18 20 21 17 19 34 77 78 57 68 57 44 74 83 65 76 77 65 91 107 112 102 95 85 75 71 78 81 81 88 93 110 107 100 87 69 82 61 71 90 51 67 76 78 103 63 22 16 14 16 18 14 7 1 2 2 2 1 2 3 2 1 0 0 0 0 0 0 0 0 0 0 0 0 0 0 0 0 0 0 0 0 0 0 0 0 0 0 0 0 0 0 0 0 0 0 0 0 0 
0 0 0 0 0 0 0 0 0 0 0 0 0 0 0 0 0 0 0 0 0 0 0 0 0 0 2 5 7 14 18 19 18 17 18 37 81 76 70 55 53 87 81 64 76 74 68 90 108 115 104 99 96 88 76 75 79 87 86 91 107 112 102 92 73 73 66 73 102 67 64 82 89 81 31 19 15 15 17 16 12 6 1 2 2 2 1 2 2 2 1 0 0 0 0 0 0 0 0 0 0 0 0 0 0 0 0 0 0 0 0 0 0 0 0 0 0 0 0 0 0 0 0 0 0 0 0 0 
0 0 0 0 0 0 0 0 0 0 0 0 0 0 0 0 0 0 0 0 0 0 0 0 0 0 0 4 4 10 16 18 17 16 16 15 41 71 72 79 80 90 83 68 77 82 80 93 90 103 100 98 98 92 83 92 105 104 100 98 109 122 108 99 92 79 69 75 106 99 89 83 78 39 24 18 14 14 16 14 9 6 2 2 2 2 0 1 2 2 1 0 0 0 0 0 0 0 0 0 0 0 0 0 0 0 0 0 0 0 0 0 0 0 0 0 0 0 0 0 0 0 0 0 0 0 0 0 
0 0 0 0 0 0 0 0 0 0 0 0 0 0 0 0 0 0 0 0 0 0 0 0 0 0 0 3 4 7 11 16 19 15 14 15 16 38 67 86 85 82 93 77 79 89 96 92 86 103 109 99 88 85 88 103 109 104 102 109 112 112 107 104 105 90 80 85 101 95 91 73 41 27 22 14 13 15 15 13 10 5 1 2 2 2 1 1 2 3 2 0 0 0 0 0 0 0 0 0 0 0 0 0 0 0 0 0 0 0 0 0 0 0 0 0 0 0 0 0 0 0 0 0 0 0 0 0 
0 0 0 0 0 0 0 0 0 0 0 0 0 0 0 0 0 0 0 0 0 0 0 0 0 0 0 2 4 5 10 14 17 19 16 13 18 21 28 45 61 72 100 90 87 105 105 85 92 120 112 95 81 88 98 110 106 98 106 108 113 123 116 104 116 107 94 98 96 70 53 33 28 27 19 13 16 15 13 13 9 5 1 2 2 2 1 1 3 3 2 0 0 0 0 0 0 0 0 0 0 0 0 0 0 0 0 0 0 0 0 0 0 0 0 0 0 0 0 0 0 0 0 0 0 0 0 0 
0 0 0 0 0 0 0 0 0 0 0 0 0 0 0 0 0 0 0 0 0 0 0 0 0 0 0 0 2 6 7 12 14 17 17 12 14 21 25 29 36 56 87 93 90 109 108 91 106 125 114 95 84 84 90 102 101 100 98 97 107 120 121 108 115 114 103 105 77 45 31 27 28 26 19 15 16 14 13 14 10 4 1 1 2 2 0 2 3 3 2 0 0 0 0 0 0 0 0 0 0 0 0 0 0 0 0 0 0 0 0 0 0 0 0 0 0 0 0 0 0 0 0 0 0 0 0 0 
0 0 0 0 0 0 0 0 0 0 0 0 0 0 0 0 0 0 0 0 0 0 0 0 0 0 0 0 0 6 6 11 12 16 18 13 12 21 24 29 31 34 42 63 88 99 99 86 99 113 110 99 93 89 91 95 97 104 100 89 99 119 127 104 106 108 97 71 43 36 30 29 27 22 19 16 15 14 13 14 10 3 1 1 2 1 1 1 2 2 2 0 0 0 0 0 0 0 0 0 0 0 0 0 0 0 0 0 0 0 0 0 0 0 0 0 0 0 0 0 0 0 0 0 0 0 0 0 
0 0 0 0 0 0 0 0 0 0 0 0 0 0 0 0 0 0 0 0 0 0 0 0 0 0 0 0 0 4 5 10 11 14 19 14 12 21 25 28 29 34 31 36 51 69 71 76 83 95 98 97 97 92 93 96 100 108 109 99 107 111 111 92 84 71 57 50 41 38 27 30 24 21 16 15 16 14 14 14 10 2 1 1 2 2 1 1 2 2 2 1 0 0 0 0 0 0 0 0 0 0 0 0 0 0 0 0 0 0 0 0 0 0 0 0 0 0 0 0 0 0 0 0 0 0 0 0 
