P2
128 99
209
0 0 0 0 0 0 0 0 0 0 0 0 0 0 0 0 0 0 0 0 0 0 0 0 0 0 0 0 0 0 0 1 0 0 0 0 0 0 0 0 0 0 0 0 0 0 0 0 0 0 0 0 0 0 0 0 0 0 0 0 0 0 0 0 0 0 0 0 0 0 0 0 0 0 0 0 0 0 0 0 0 0 0 0 0 0 0 0 0 0 0 0 0 0 0 1 3 3 0 0 0 0 0 0 0 0 0 0 0 0 0 0 0 0 0 0 0 0 0 0 0 0 0 0 0 0 0 0 
0 0 0 0 0 0 0 0 0 0 0 0 0 0 0 0 0 0 0 0 0 0 0 0 0 0 0 0 0 0 0 1 0 0 0 0 0 0 0 0 0 0 0 0 0 0 0 0 0 0 0 0 0 0 0 0 0 0 0 0 0 0 0 0 0 0 0 0 0 0 0 0 0 0 0 0 0 0 0 0 0 0 0 0 0 0 0 0 0 0 0 0 0 0 0 1 3 3 0 0 0 0 0 0 0 0 0 0 0 0 0 0 0 0 0 0 0 0 0 0 0 0 0 0 0 0 0 0 
0 0 0 0 0 0 0 0 0 0 0 0 0 0 0 0 0 0 0 0 0 0 0 0 0 0 0 0 0 0 0 1 0 0 0 0 0 0 0 0 0 0 0 0 0 0 0 0 0 0 0 2 3 3 1 0 0 0 0 0 0 0 0 0 0 0 0 0 0 0 0 0 0 0 0 0 0 0 0 0 0 0 0 0 0 0 0 0 0 0 0 0 0 0 0 1 3 3 0 0 0 0 0 0 0 0 0 0 0 0 0 0 0 0 0 0 0 0 0 0 0 0 0 0 0 0 0 0 
0 0 0 0 0 0 0 0 0 0 0 0 0 0 0 0 0 0 0 0 0 0 0 0 0 0 0 0 0 0 0 0 0 0 0 0 0 0 0 0 0 0 0 1 6 14 16 17 16 17 21 26 29 28 25 22 19 16 14 12 4 0 0 0 0 0 0 0 0 0 0 0 0 0 0 0 0 0 0 0 0 0 0 0 0 0 0 0 0 0 0 0 0 0 0 1 3 3 0 0 0 0 0 0 0 0 0 0 0 0 0 0 0 0 0 0 0 0 0 0 0 0 0 0 0 0 0 0 
0 0 0 0 0 0 0 0 0 0 0 0 0 0 0 0 0 0 0 0 0 0 0 0 0 0 0 0 0 0 0 0 0 0 0 0 0 0 0 0 5 12 20 22 24 34 52 75 97 115 131 142 147 147 143 134 120 100 78 53 33 22 16 10 2 0 0 0 0 0 0 0 0 0 0 0 0 0 0 0 0 0 0 0 0 0 0 0 0 0 0 0 0 0 0 1 3 3 0 0 0 0 0 0 0 0 0 0 0 0 0 0 0 0 0 0 0 0 0 0 0 0 0 0 0 0 0 0 
0 0 0 0 0 0 0 0 0 0 0 0 0 0 0 0 0 0 0 0 0 0 0 0 0 0 0 0 0 0 0 0 0 0 0 0 0 1 9 16 24 25 35 65 107 143 164 173 178 180 180 180 178 175 176 176 176 175 171 163 144 114 76 43 24 15 12 1 0 0 0 0 0 0 0 0 0 0 0 0 0 0 0 0 0 0 0 0 0 0 0 0 0 0 0 1 3 3 0 0 0 0 0 0 0 0 0 0 0 0 0 0 0 0 0 0 0 0 0 0 0 0 0 0 0 0 0 0 
0 0 0 0 0 0 0 0 0 0 0 0 0 0 0 0 0 0 0 0 0 0 0 0 0 0 0 0 0 0 0 0 0 0 0 1 9 23 24 25 51 101 144 169 179 182 181 180 184 187 191 194 194 194 194 194 192 187 183 180 177 175 168 150 117 76 39 19 13 2 0 0 0 0 0 0 0 0 0 0 0 0 0 0 0 0 0 0 0 0 0 0 0 0 0 1 3 2 0 0 0 0 0 0 0 0 0 0 0 0 0 0 0 0 0 0 0 0 0 0 0 0 0 0 0 0 0 0 
0 0 0 0 0 0 0 0 0 0 0 0 0 0 0 0 0 0 0 0 0 0 0 0 0 0 0 0 0 0 0 0 0 0 8 24 25 25 60 120 159 176 181 181 182 189 190 186 181 175 174 178 177 167 165 177 189 194 195 195 191 186 182 178 176 167 141 97 48 22 14 1 0 0 0 0 0 0 0 0 0 0 0 0 0 0 0 0 0 0 0 0 0 0 0 1 3 2 0 0 0 0 0 0 0 0 0 0 0 0 0 0 0 0 0 0 0 0 0 0 0 0 0 0 0 0 0 0 
0 0 0 0 0 0 0 0 0 0 0 0 0 0 0 0 0 0 0 0 0 0 0 0 0 0 0 0 0 0 0 0 5 27 24 21 58 124 163 176 179 180 184 189 190 184 172 159 152 147 146 148 147 139 139 144 154 173 190 196 194 193 193 189 183 179 178 174 149 99 46 23 10 0 0 0 0 0 0 0 0 0 0 0 0 0 0 0 0 0 0 0 0 0 0 1 3 3 0 0 0 0 0 0 0 0 0 0 0 0 0 0 0 0 0 0 0 0 0 0 0 0 0 0 0 0 0 0 
0 0 0 0 0 0 0 0 0 0 0 0 0 0 0 0 0 0 0 0 0 0 0 0 0 0 0 0 0 0 0 23 25 24 43 109 161 174 177 179 184 191 193 175 153 148 140 127 120 123 136 144 146 144 151 150 149 141 150 176 195 198 196 193 193 191 186 181 179 173 141 79 31 20 1 0 0 0 0 0 0 0 0 0 0 0 0 0 0 0 0 0 0 0 0 1 3 3 0 0 0 0 0 0 0 0 0 0 0 0 0 0 0 0 0 0 0 0 0 0 0 0 0 0 0 0 0 0 
0 0 0 0 0 0 0 0 0 0 0 0 0 0 0 0 0 0 0 0 0 0 0 0 0 0 0 0 0 10 29 22 25 83 151 171 177 179 183 191 195 180 160 156 157 151 147 147 148 142 139 144 144 139 139 146 149 155 159 159 172 183 194 200 198 193 191 192 187 181 179 167 116 46 22 6 0 0 0 0 0 0 0 0 0 0 0 0 0 0 0 0 0 0 0 1 3 3 0 0 0 0 0 0 0 0 0 0 0 0 0 0 0 0 0 0 0 0 0 0 0 0 0 0 0 0 0 0 
0 0 0 0 0 0 0 0 0 0 0 0 0 0 0 0 0 0 0 0 0 0 0 0 0 0 0 0 21 26 17 49 127 168 175 180 184 191 197 187 174 166 157 155 155 150 141 132 130 124 117 120 120 120 128 136 135 131 132 140 154 170 187 196 200 202 199 194 191 193 188 181 174 144 66 24 11 0 0 0 0 0 0 0 0 0 0 0 0 0 0 0 0 0 0 1 3 3 0 0 0 0 0 0 0 0 0 0 0 0 0 0 0 0 0 0 0 0 0 0 0 0 0 0 0 0 0 0 
0 0 0 0 0 0 0 0 0 0 0 0 0 0 0 0 0 0 0 0 0 0 0 0 0 0 5 26 21 18 75 150 172 180 182 191 195 192 183 172 165 163 158 155 146 145 144 143 146 137 133 132 131 130 139 149 153 154 154 150 146 149 159 171 186 200 203 201 199 193 191 190 181 174 155 82 24 12 0 0 0 0 0 0 0 0 0 0 0 0 0 0 0 0 0 1 4 4 0 0 0 0 0 0 0 0 0 0 0 0 0 0 0 0 0 0 0 0 0 0 0 0 0 0 0 0 0 0 
0 0 0 0 0 0 0 0 0 0 0 0 0 0 0 0 0 0 0 0 0 0 0 0 0 10 25 19 24 99 161 174 181 187 195 195 189 179 171 168 162 155 147 138 139 142 145 148 138 130 115 107 106 110 116 120 131 138 147 151 151 151 156 159 164 171 184 201 204 201 196 190 191 181 174 160 91 26 13 0 0 0 0 0 0 0 0 0 0 0 0 0 0 0 0 1 4 4 0 0 0 0 0 0 0 0 0 0 0 0 0 0 0 0 0 0 0 0 0 0 0 0 0 0 0 0 0 0 
0 0 0 0 0 0 0 0 0 0 0 0 0 0 0 0 0 0 0 0 0 0 0 0 13 23 17 35 115 162 175 182 191 198 191 182 170 170 164 156 156 148 140 137 132 130 125 119 114 108 110 119 118 114 114 117 125 137 140 139 138 136 137 150 156 160 162 168 184 197 198 198 192 190 182 175 163 101 30 12 0 0 0 0 0 0 0 0 0 0 0 0 0 0 0 1 4 4 0 0 0 0 0 0 0 0 0 0 0 0 0 0 0 0 0 0 0 0 0 0 0 0 0 0 0 0 0 0 
0 0 0 0 0 0 0 0 0 0 0 0 0 0 0 0 0 0 0 0 0 0 4 18 20 16 45 124 161 177 182 192 198 189 173 167 168 158 156 157 144 137 135 134 137 137 133 131 129 130 133 132 131 136 139 141 139 141 151 156 156 157 151 140 141 149 154 156 156 167 186 193 195 192 191 184 175 166 114 36 12 0 0 0 0 0 0 0 0 0 0 0 0 0 0 1 4 4 0 0 0 0 0 0 0 0 0 0 0 0 0 0 0 0 0 0 0 0 0 0 0 0 0 0 0 0 0 0 
0 0 0 0 0 0 0 0 0 0 0 0 0 0 0 0 0 0 0 0 0 6 17 17 17 58 133 161 176 183 194 197 178 165 163 161 150 152 152 148 143 144 149 152 145 131 127 125 123 119 120 112 113 118 115 115 117 120 121 125 128 133 151 163 156 142 138 146 155 154 157 175 185 190 192 190 188 176 163 122 39 9 0 0 0 0 0 0 0 0 0 0 0 0 0 1 4 4 0 0 0 0 0 0 0 0 0 0 0 0 0 0 0 0 0 0 0 0 0 0 0 0 0 0 0 0 0 0 
0 0 0 0 0 0 0 0 0 0 0 0 0 0 0 0 0 0 0 0 6 15 16 19 71 142 161 176 184 198 192 166 157 162 155 144 146 147 145 145 151 150 139 122 109 104 103 104 105 107 104 104 100 105 102 104 106 108 110 115 115 115 118 132 152 161 149 133 134 148 148 151 170 182 184 189 192 188 175 164 125 36 6 0 0 0 0 0 0 0 0 0 0 0 0 1 4 4 0 0 0 0 0 0 0 0 0 0 0 0 0 0 0 0 0 0 0 0 0 0 0 0 0 0 0 0 0 0 
0 0 0 0 0 0 0 0 0 0 0 0 0 0 0 0 0 0 0 6 16 14 19 77 144 162 173 184 200 187 160 153 156 150 139 145 148 141 142 144 130 113 103 100 103 105 107 110 112 111 112 109 109 114 118 119 121 119 114 114 114 114 112 111 111 127 151 155 134 131 140 144 144 163 175 182 188 191 185 173 162 116 28 3 0 0 0 0 0 0 0 0 0 0 0 1 4 4 0 0 0 0 0 0 0 0 0 0 0 0 0 0 0 0 0 0 0 0 0 0 0 0 0 0 0 0 0 0 
0 0 0 0 0 0 0 0 0 0 0 0 0 0 0 0 0 0 5 15 14 19 80 144 161 168 182 199 184 157 153 149 144 139 148 142 131 137 132 113 102 100 107 115 115 114 116 119 119 121 117 109 113 125 126 129 130 126 124 122 121 119 117 112 106 105 118 147 159 135 126 138 139 139 162 171 176 186 191 183 173 159 104 20 2 0 0 0 0 0 0 0 0 0 0 1 4 4 0 0 0 0 0 0 0 0 0 0 0 0 0 0 0 0 0 0 0 0 0 0 0 0 0 0 0 0 0 0 
0 0 0 0 0 0 0 0 0 0 0 0 0 0 0 0 0 2 14 14 18 78 141 156 167 180 196 181 154 149 149 143 138 148 135 124 130 121 108 109 109 116 121 120 120 117 117 117 116 107 99 104 108 119 118 117 119 118 117 117 122 117 120 118 115 106 106 118 151 158 131 119 133 136 140 161 163 174 192 189 181 168 150 80 11 0 0 0 0 0 0 0 0 0 0 1 4 4 0 0 0 0 0 0 0 0 0 0 0 0 0 0 0 0 0 0 0 0 0 0 0 0 0 0 0 0 0 0 
0 0 0 0 0 0 0 0 0 0 0 0 0 0 0 0 0 12 14 17 71 136 152 160 175 191 180 151 146 144 144 141 149 136 118 124 121 113 114 114 116 119 119 117 116 115 116 114 107 86 88 96 93 90 98 102 103 104 110 115 120 117 118 120 118 114 109 107 120 148 153 127 114 133 139 143 158 160 177 193 186 180 161 135 52 4 0 0 0 0 0 0 0 0 0 2 4 5 0 0 0 0 0 0 0 0 0 0 0 0 0 0 0 0 0 0 0 0 0 0 0 0 0 0 0 0 0 0 
0 0 0 0 0 0 0 0 0 0 0 0 0 0 0 0 6 12 16 58 127 146 158 170 188 180 151 146 140 143 138 140 131 110 122 129 119 115 111 112 116 116 111 108 103 96 94 93 87 82 79 82 81 80 81 84 89 90 87 87 96 107 113 116 116 113 110 109 107 119 144 148 122 114 128 132 144 151 157 178 193 184 173 152 111 24 1 0 0 0 0 0 0 0 0 2 4 5 0 0 0 0 0 0 0 0 0 0 0 1 0 0 0 0 0 0 0 0 0 0 0 0 0 0 0 0 0 0 
0 0 0 0 0 0 0 0 0 0 0 0 0 0 0 1 13 13 47 117 144 153 165 184 180 155 143 135 144 140 135 129 114 119 131 118 112 109 113 118 111 98 88 87 87 85 83 84 86 83 82 83 82 83 85 85 85 82 81 81 82 86 94 105 110 109 107 107 108 109 120 136 136 116 117 127 139 145 142 158 184 188 180 165 142 75 6 0 0 0 0 0 0 0 0 2 4 6 0 0 0 0 0 0 0 0 0 0 0 1 0 0 0 0 0 0 0 0 0 0 0 0 0 0 0 0 0 0 
0 0 0 0 0 0 0 0 0 0 0 0 0 0 0 8 11 26 98 132 149 163 179 181 158 144 131 141 141 136 131 115 118 135 124 106 109 111 115 100 88 82 83 81 80 79 81 83 87 92 94 96 97 98 97 101 98 92 89 85 80 80 85 90 101 106 106 105 109 107 109 122 134 126 117 124 134 143 136 142 164 182 181 170 153 117 28 1 0 0 0 0 0 0 0 2 4 5 0 0 0 0 0 0 0 0 0 0 0 0 0 0 0 0 0 0 0 0 0 0 0 0 0 0 0 0 0 0 
0 0 0 0 0 0 0 0 0 0 0 0 0 0 2 9 14 72 121 143 151 171 179 162 147 131 131 142 136 136 117 117 132 130 112 108 113 108 93 83 82 83 82 81 79 82 88 94 99 109 114 115 117 121 119 118 116 113 104 94 87 84 81 83 89 101 105 104 105 106 103 116 128 132 127 122 129 132 141 129 151 171 181 175 160 135 68 4 0 0 0 0 0 0 0 2 4 5 0 0 0 0 0 0 0 0 0 0 0 0 0 0 0 0 0 0 0 0 0 0 0 0 0 0 0 0 0 0 
0 0 0 0 0 0 0 0 0 0 0 0 0 0 6 8 39 109 132 142 162 173 162 150 136 122 135 137 138 123 115 130 129 110 108 109 102 89 84 84 83 84 84 87 95 104 113 114 112 118 128 129 124 126 108 108 118 123 122 114 104 94 87 81 81 89 99 102 101 105 105 109 121 128 131 128 130 125 139 121 132 163 171 176 167 144 103 16 0 0 0 0 0 0 0 2 4 6 0 0 0 0 0 0 0 0 0 0 0 0 0 0 0 0 0 0 0 0 0 0 0 0 0 0 0 0 0 0 
0 0 0 0 0 0 0 0 0 0 0 0 0 0 7 15 81 121 142 149 168 161 151 144 123 120 141 140 128 112 126 128 109 105 107 101 92 87 87 89 88 92 100 111 117 121 123 116 114 106 107 117 118 103 93 89 91 114 121 123 121 118 107 95 89 86 91 100 104 103 103 108 110 126 134 131 132 130 131 123 117 157 164 173 167 151 121 39 2 0 0 0 0 0 0 1 4 6 0 0 0 0 0 0 0 0 0 0 0 0 0 0 0 0 0 0 0 0 0 0 0 0 0 0 0 0 0 0 
0 0 0 0 0 0 0 0 0 0 0 0 0 2 7 37 107 131 143 161 167 152 148 133 117 124 143 133 114 115 134 117 103 107 103 96 90 92 95 98 99 109 120 124 121 119 117 111 101 96 92 94 102 87 82 82 85 93 92 109 120 123 123 119 107 93 86 94 104 105 102 104 106 117 133 138 134 129 126 123 114 143 159 171 169 157 130 60 3 0 0 0 0 0 0 1 4 6 0 0 0 0 0 0 0 0 0 0 0 0 0 0 0 0 0 0 0 0 0 0 0 0 0 0 0 0 0 0 
0 0 0 0 0 0 0 0 0 0 0 0 0 4 9 67 117 134 147 165 154 142 140 123 116 134 134 121 110 129 128 105 104 109 98 95 101 102 105 108 116 122 119 114 105 99 93 96 95 90 87 85 87 81 80 82 88 84 83 86 89 105 116 122 125 113 93 87 100 107 106 107 105 104 122 139 132 123 122 123 110 134 153 168 170 160 137 78 5 0 0 0 0 0 0 2 4 6 0 0 0 0 0 0 0 0 0 0 0 0 0 0 0 0 0 0 0 0 0 0 0 0 0 0 0 0 0 0 
0 0 0 0 0 0 0 0 0 0 0 0 0 5 17 90 122 141 152 161 137 136 135 112 120 135 120 115 109 131 115 105 113 109 101 103 107 105 110 121 124 114 96 85 86 81 84 90 92 89 89 88 91 87 87 95 105 102 87 82 82 86 96 112 123 129 120 97 90 102 109 113 111 101 111 135 129 123 114 122 111 127 148 164 170 162 142 94 9 0 0 0 0 0 0 2 4 6 0 0 0 0 0 0 0 0 0 0 0 0 0 0 0 0 0 0 0 0 0 0 0 0 0 0 0 0 0 0 
0 0 0 0 0 0 0 0 0 0 0 0 1 6 34 107 130 146 156 148 130 135 129 115 126 127 108 116 112 122 106 110 118 109 103 106 108 111 121 123 107 93 88 82 80 84 91 95 98 98 99 94 98 93 97 109 115 114 106 94 90 87 83 92 111 121 134 123 94 89 106 117 119 104 100 122 126 123 111 115 112 125 153 163 169 163 145 108 16 0 0 0 0 0 0 2 4 7 0 0 0 0 0 0 0 0 0 0 0 0 0 0 0 0 0 0 0 0 0 0 0 0 0 0 0 0 0 0 
0 0 0 0 0 0 0 0 0 0 0 0 1 6 49 113 134 149 150 138 121 134 129 121 121 115 104 117 110 115 107 117 117 109 102 108 116 120 118 100 88 88 88 87 87 92 94 94 95 95 91 91 87 80 86 87 85 84 90 97 99 94 87 85 97 117 125 133 122 97 97 111 122 117 101 112 118 120 112 110 111 122 148 158 170 166 151 122 26 0 0 0 0 0 0 2 4 7 0 0 0 0 0 0 0 0 0 0 0 0 0 0 0 0 0 0 0 0 0 0 0 0 0 0 0 0 0 0 
0 0 0 0 0 0 0 0 0 0 0 0 2 8 60 119 139 149 144 132 118 129 126 126 112 106 106 118 107 114 114 119 116 110 106 117 127 121 106 84 84 87 91 95 94 92 91 90 86 87 88 93 84 78 78 79 80 80 79 92 105 104 99 92 89 98 117 129 142 123 99 106 119 123 109 106 107 118 115 109 111 126 145 162 172 168 156 130 37 2 0 0 0 0 0 2 4 7 0 0 0 0 0 0 0 0 0 0 0 0 0 0 0 0 0 0 0 0 0 0 0 0 0 0 0 0 0 0 
0 0 0 0 0 0 0 0 0 0 0 0 3 8 69 123 142 146 145 131 123 125 130 131 108 105 110 113 100 111 114 117 117 109 114 127 124 113 105 89 86 89 92 97 98 95 90 87 84 80 81 87 82 78 79 82 83 80 81 87 99 102 97 86 79 94 112 124 145 141 121 111 117 123 115 105 102 109 114 104 109 135 145 163 170 171 161 138 48 2 0 0 0 0 0 2 4 6 0 0 0 0 0 0 0 0 0 0 0 0 0 0 0 0 0 0 0 0 0 0 0 0 0 0 0 0 0 0 
0 0 0 0 0 0 0 0 0 0 0 0 4 11 78 128 149 152 148 132 129 122 135 129 105 107 110 106 96 108 111 114 115 119 131 127 114 106 108 108 105 100 96 96 98 101 96 87 79 82 81 81 87 82 81 84 82 82 83 88 97 100 95 90 89 104 112 128 134 136 133 134 128 120 117 115 104 106 109 99 109 137 143 162 172 171 165 144 59 3 0 0 0 0 0 2 4 6 0 0 0 0 0 0 0 0 0 0 0 0 0 0 0 0 0 0 0 0 0 0 0 0 0 0 0 0 0 0 
0 0 0 0 0 0 0 0 0 0 0 0 4 13 83 132 148 155 151 137 131 126 141 124 108 110 108 104 95 105 111 116 126 137 136 124 104 86 83 89 95 99 104 98 95 96 100 90 81 85 86 83 90 87 86 88 86 83 85 89 96 97 98 107 101 99 106 113 117 118 123 134 143 138 118 121 118 108 112 106 114 137 138 158 172 173 166 147 75 6 0 0 0 0 0 2 4 5 0 0 0 0 0 0 0 0 0 0 0 0 0 0 0 0 0 0 0 0 0 0 0 0 0 0 0 0 0 0 
0 0 0 0 0 0 0 0 0 0 0 0 5 14 85 136 151 158 149 138 136 132 142 124 112 113 105 99 95 103 110 129 146 143 126 108 101 94 94 101 100 98 93 90 95 105 104 101 88 89 93 89 96 96 91 95 90 86 88 89 98 103 101 97 89 81 92 94 97 98 91 95 122 141 140 130 124 117 115 113 118 137 130 152 169 175 167 150 89 7 0 0 0 0 0 2 4 5 0 0 0 0 0 0 0 0 0 0 0 0 0 0 0 0 0 0 0 0 0 0 0 0 0 0 0 0 0 0 
0 0 0 0 0 0 0 0 0 0 0 0 6 14 89 140 153 157 150 137 135 134 143 133 117 115 107 97 100 104 118 144 150 132 106 88 83 81 84 89 87 92 97 95 89 92 104 105 96 91 95 98 99 103 103 94 87 86 84 95 106 98 90 83 77 84 92 97 102 104 93 81 89 121 139 142 128 128 124 119 119 131 124 146 158 172 169 154 100 11 0 0 0 0 0 2 4 5 0 0 0 0 0 0 0 0 0 0 0 0 0 0 0 0 0 0 0 0 0 0 0 0 0 0 0 0 0 0 
0 0 0 0 0 0 0 0 0 0 0 0 6 15 92 144 153 160 149 134 132 135 137 132 122 115 115 106 102 111 136 146 133 106 86 76 77 80 89 93 91 87 85 88 98 99 96 105 104 97 94 100 111 118 115 93 81 81 90 107 101 87 88 86 88 88 93 102 107 110 106 96 102 120 135 141 134 131 133 126 116 127 121 139 150 164 170 156 113 16 0 0 0 0 0 2 4 6 0 0 0 0 0 0 0 0 0 0 0 0 0 0 0 0 0 0 0 0 0 0 0 0 0 0 0 0 0 0 
0 0 0 0 0 0 0 0 0 0 0 0 7 15 93 144 155 162 142 130 128 133 130 126 120 120 119 114 118 124 143 137 112 93 81 76 79 87 90 91 93 93 92 90 91 100 103 106 106 103 105 111 126 133 131 103 89 87 97 105 88 84 81 81 83 83 91 101 108 113 110 93 99 124 136 135 127 121 138 127 117 123 117 135 141 159 170 156 121 23 0 0 0 0 0 2 4 6 0 0 0 0 0 0 0 0 0 0 0 0 0 0 0 0 0 0 0 0 0 0 0 0 0 0 0 0 0 0 
0 0 0 0 0 0 0 0 0 0 0 0 8 15 93 146 156 161 136 124 130 129 130 123 119 124 122 117 118 131 147 132 121 106 98 92 88 88 87 86 85 87 91 96 97 96 108 113 105 102 106 118 135 127 136 114 95 94 99 98 86 82 83 88 93 94 93 102 108 108 105 95 99 116 124 130 121 121 141 127 114 118 111 123 129 152 168 157 126 33 1 0 0 0 0 2 4 6 0 0 0 0 0 0 0 0 0 0 0 0 0 0 0 0 0 0 0 0 0 0 0 0 0 0 0 0 0 0 
0 0 0 0 0 0 0 0 0 0 0 0 8 15 94 144 158 162 132 123 128 125 128 118 117 119 113 121 118 115 123 132 124 109 98 94 96 96 93 93 95 94 92 95 99 97 98 103 91 89 96 112 118 110 116 124 103 93 92 92 85 84 96 97 93 91 96 101 108 107 102 96 101 109 112 124 116 119 139 126 113 113 106 121 118 144 164 158 130 41 1 0 0 0 0 2 4 5 0 0 0 0 0 0 0 0 0 0 0 0 0 0 0 0 0 0 0 0 0 0 0 0 0 0 0 0 0 0 
0 0 0 0 0 0 0 0 0 0 0 0 8 16 98 145 160 159 130 124 123 119 121 109 109 114 113 121 114 101 113 127 120 111 103 98 93 91 89 90 96 100 104 101 95 96 91 89 83 83 89 98 94 103 106 110 99 94 89 88 87 94 92 88 85 86 92 102 109 107 98 91 102 108 109 116 115 122 141 128 111 106 103 116 110 131 162 157 134 49 2 0 0 0 0 2 4 5 0 0 0 0 0 0 0 0 0 0 0 0 0 0 0 0 0 0 0 0 0 0 0 0 0 0 0 0 0 0 
0 0 0 0 0 0 0 0 0 0 0 0 9 16 97 147 161 152 130 118 116 112 110 101 102 107 111 121 116 98 109 125 114 109 102 97 94 94 94 90 85 94 101 104 93 84 80 81 88 88 98 106 87 92 93 105 105 100 98 89 93 88 89 88 81 80 89 100 108 104 96 88 97 108 106 112 117 127 139 133 121 101 101 108 102 122 151 153 135 56 2 0 0 0 0 2 4 5 0 0 0 0 0 0 0 0 0 0 0 0 0 0 0 0 0 0 0 0 0 0 0 0 0 0 0 0 0 0 
0 0 0 0 0 0 0 0 0 0 0 0 8 18 97 147 162 146 117 107 112 103 102 97 100 99 103 118 118 100 106 126 118 108 99 91 90 91 92 86 85 90 91 85 81 82 77 74 78 93 114 113 108 94 99 95 115 107 99 95 94 91 88 79 77 78 88 102 107 103 91 88 97 110 105 109 115 129 131 133 129 100 102 106 105 119 131 148 137 61 3 0 0 0 0 1 4 5 0 0 0 0 0 0 0 0 0 0 0 0 0 0 0 0 0 0 0 0 0 0 0 0 0 0 0 0 0 0 
0 0 0 0 0 0 0 0 0 0 0 0 7 16 96 146 164 141 116 104 108 94 98 101 102 89 107 113 112 100 101 121 124 106 96 92 90 92 93 91 89 90 87 81 75 76 80 67 74 99 122 115 94 76 77 69 96 116 92 97 95 93 85 79 80 82 90 101 105 99 88 88 100 106 100 105 115 135 139 131 132 100 100 102 104 117 124 148 139 62 2 0 0 0 0 1 4 5 0 0 0 0 0 0 0 0 0 0 0 0 0 0 0 0 0 0 0 0 0 0 0 0 0 0 0 0 0 0 
0 0 0 0 0 0 0 0 0 0 0 0 8 16 91 144 164 134 113 103 110 95 97 102 109 95 113 111 107 99 102 119 126 103 92 89 87 88 92 97 91 83 77 71 73 73 72 67 80 109 112 91 77 71 77 69 76 125 94 100 99 93 82 84 84 86 93 101 105 96 85 86 103 107 98 108 131 149 139 130 133 98 100 97 104 116 124 150 133 60 3 0 0 0 0 1 4 4 0 0 0 0 0 0 0 0 0 0 0 0 0 0 0 0 0 0 0 0 0 0 0 0 0 0 0 0 0 0 
0 0 0 0 0 0 0 0 0 0 0 0 6 14 83 144 163 130 111 104 106 95 97 99 106 94 110 111 101 96 105 117 128 112 92 83 83 89 94 99 91 80 72 69 77 76 76 71 85 115 109 85 81 76 78 74 73 113 110 94 93 87 82 85 84 86 95 102 104 92 81 83 104 101 96 109 146 147 137 133 133 96 100 96 106 113 124 149 128 55 2 0 0 0 0 1 4 4 0 0 0 0 0 0 0 0 0 0 0 0 0 0 0 0 0 0 0 0 0 0 0 0 0 0 0 0 0 0 
0 0 0 0 0 0 0 0 0 0 0 0 5 14 78 139 161 131 108 106 103 96 97 97 106 92 103 113 100 90 102 113 127 119 99 92 96 94 93 97 93 82 74 72 73 71 72 63 90 110 100 85 85 90 90 74 73 88 116 99 91 81 82 87 87 88 95 101 100 85 79 83 98 97 101 115 143 139 129 137 131 99 102 94 107 112 125 143 121 49 2 0 0 0 0 1 4 4 0 0 0 0 0 0 0 0 0 0 0 0 0 0 0 0 0 0 0 0 0 0 0 0 0 0 0 0 0 0 
0 0 0 0 0 0 0 0 0 0 0 0 3 14 71 135 155 137 107 107 103 95 96 99 108 91 96 113 103 88 99 108 120 118 99 95 97 94 95 97 95 81 74 70 67 68 69 72 103 100 89 82 85 98 104 82 79 80 106 113 104 91 82 88 87 88 93 98 94 82 80 84 94 98 106 120 133 123 116 138 128 100 100 96 104 109 129 138 114 45 2 0 0 0 0 1 4 4 0 0 0 0 0 0 0 0 0 0 0 0 0 0 0 0 0 0 0 0 0 0 0 0 0 0 0 0 0 0 
0 0 0 0 0 0 0 0 0 5 4 0 0 13 61 127 147 141 111 107 102 96 96 95 107 95 86 108 104 94 100 102 114 119 102 92 91 93 99 100 99 88 78 70 75 90 86 95 98 95 88 82 89 107 104 89 85 83 98 115 120 105 98 92 87 90 97 99 90 81 81 82 90 100 110 118 124 112 112 135 125 104 93 98 96 107 134 131 104 39 1 0 0 0 0 1 4 5 0 0 0 0 0 0 0 0 0 0 0 0 0 0 0 0 0 0 0 0 0 0 0 0 0 0 0 0 0 0 
0 0 0 0 0 0 0 0 0 4 11 3 1 10 53 121 143 139 111 104 99 99 96 91 102 101 89 107 114 115 115 101 105 112 109 89 87 93 99 101 106 101 87 80 87 78 101 87 90 95 89 87 96 108 103 100 98 93 93 124 134 121 108 96 92 90 97 103 92 77 74 78 95 106 100 113 121 107 115 129 129 107 91 102 93 106 137 127 96 34 1 0 0 0 0 1 4 5 0 0 0 0 0 0 0 0 0 0 0 0 0 0 0 0 0 0 0 0 0 0 0 0 0 0 0 0 0 0 
0 0 0 0 0 0 0 0 0 4 4 8 4 8 43 110 138 134 109 97 94 99 101 91 94 101 93 102 120 127 113 106 101 100 107 91 81 90 95 103 103 96 87 87 90 107 101 91 102 92 90 88 96 106 104 96 104 100 91 124 128 121 112 112 104 100 104 107 94 77 75 89 101 102 96 129 132 128 131 127 132 114 96 96 96 111 133 124 88 27 0 0 0 0 0 1 4 4 0 0 0 0 0 0 0 0 0 0 0 0 0 0 0 0 0 0 0 0 0 0 0 0 0 0 0 0 0 0 
0 0 0 0 0 0 0 0 0 1 2 8 3 7 33 96 135 133 114 99 99 98 99 93 87 101 102 98 123 129 104 105 115 102 96 92 85 88 99 105 106 96 96 103 104 99 105 110 108 96 83 87 94 110 105 96 93 92 102 120 132 129 122 114 115 121 139 138 120 110 112 119 125 113 116 132 108 122 145 123 135 124 102 90 103 123 129 113 81 18 0 0 0 6 2 1 4 4 0 0 0 0 0 0 0 0 0 0 0 0 0 0 0 0 0 0 0 0 0 0 0 0 0 0 0 0 0 0 
0 0 0 0 0 0 0 0 0 0 1 10 4 7 26 84 132 136 117 106 105 95 96 97 84 101 110 100 118 126 105 108 130 130 113 99 93 94 104 109 113 103 91 99 115 110 111 122 121 94 84 85 94 107 100 90 88 92 95 131 140 125 112 106 111 124 148 148 131 127 129 145 149 137 137 124 115 128 144 125 135 128 116 99 101 131 126 110 73 13 4 1 5 4 1 1 4 4 0 0 0 0 0 0 0 0 0 0 0 0 0 0 0 0 0 0 0 0 0 0 0 0 0 0 0 0 0 0 
0 0 0 0 0 0 0 0 0 0 0 8 5 7 21 75 126 142 130 108 101 91 98 97 96 115 114 107 119 123 104 102 112 123 118 109 109 106 113 118 116 109 106 112 111 116 122 126 116 97 76 82 89 107 99 86 89 100 112 140 128 130 112 105 117 131 147 140 128 127 139 146 132 141 148 110 114 144 150 126 128 134 115 116 140 140 123 108 64 10 2 0 3 0 1 1 4 4 0 0 0 0 0 0 0 0 0 0 0 0 0 0 0 0 0 0 0 0 0 0 0 0 0 0 0 0 0 0 
0 0 0 0 0 0 0 0 0 0 1 6 5 8 15 62 118 139 143 113 102 86 100 108 115 113 119 113 123 130 116 113 124 130 131 127 127 121 121 115 111 105 93 92 102 112 122 121 123 103 81 72 86 103 93 84 88 104 108 121 116 129 117 120 133 139 138 127 120 130 148 145 135 147 146 128 142 162 166 131 137 147 141 146 160 147 120 106 49 6 2 3 3 0 0 1 4 5 0 0 0 0 0 0 0 0 0 0 0 0 0 0 0 0 0 0 0 0 0 0 0 0 0 0 0 0 0 0 
0 0 0 0 0 0 0 0 0 0 0 6 6 9 13 50 111 134 140 127 106 101 110 113 128 120 117 124 132 118 129 144 154 150 150 135 127 118 108 97 96 92 94 93 95 108 121 124 116 86 76 80 75 101 83 85 93 101 107 105 112 125 114 111 124 137 142 138 125 140 158 150 145 135 112 123 132 153 165 141 160 167 169 169 171 108 105 98 29 5 3 4 2 0 0 1 4 4 0 0 0 0 0 0 0 0 0 0 0 0 0 0 0 0 0 0 0 0 0 0 0 0 0 0 0 0 0 0 
0 0 0 0 0 0 0 0 0 0 0 7 9 10 12 36 108 132 136 139 123 144 131 121 138 127 127 126 133 112 130 163 158 145 142 138 146 137 122 102 109 114 110 95 91 100 122 119 94 81 80 80 76 108 98 87 93 100 110 101 107 120 113 118 128 128 120 134 139 147 154 147 140 124 102 118 116 134 155 150 159 168 181 176 153 104 115 81 16 4 3 2 3 0 0 1 4 4 0 0 0 0 0 0 0 0 0 0 0 0 0 0 0 0 0 0 0 0 0 0 0 0 0 0 0 0 0 0 
0 0 0 0 0 0 0 0 0 0 0 5 11 7 7 14 62 121 137 135 145 153 168 142 146 151 148 139 139 140 147 169 168 144 145 140 128 132 139 127 123 122 126 107 89 87 109 116 98 89 91 100 96 107 113 89 87 95 102 108 104 108 122 114 118 118 105 121 137 139 119 132 133 118 107 115 129 133 145 154 146 161 172 154 133 106 108 89 16 4 7 2 3 0 0 1 4 3 0 0 0 0 0 0 0 0 0 0 0 0 0 0 0 0 0 0 0 0 0 0 0 0 0 0 0 0 0 0 
0 0 0 0 0 0 0 0 0 0 0 6 6 3 5 11 38 112 140 139 149 164 165 166 162 159 159 147 138 132 134 150 162 154 153 153 137 134 136 126 117 113 118 118 98 92 112 107 98 94 96 101 104 120 120 97 84 88 95 102 112 106 110 105 111 112 103 127 135 120 111 120 107 105 115 116 134 136 135 132 138 157 151 126 118 113 116 59 7 3 3 4 3 0 0 1 4 3 0 0 0 0 0 0 0 0 0 0 0 0 0 0 0 0 0 0 0 0 0 0 0 0 0 0 0 0 0 0 
0 0 0 0 0 0 0 0 0 0 0 7 4 2 3 8 23 92 133 137 145 156 154 141 149 160 154 147 153 134 127 139 137 153 164 152 134 125 130 129 126 122 126 126 112 105 118 109 105 109 103 98 98 116 120 105 88 94 96 106 113 108 109 99 92 89 104 136 137 131 141 125 103 116 122 123 127 141 143 127 125 143 131 118 111 114 107 32 6 4 3 4 3 1 0 1 4 3 0 0 0 0 0 0 0 0 0 0 0 0 0 0 0 0 0 0 0 0 0 0 0 0 0 0 0 0 0 0 
0 0 0 0 0 0 0 0 0 0 0 7 4 3 3 6 15 60 125 138 136 126 144 145 135 143 150 137 145 161 128 123 127 125 139 146 140 127 125 119 112 111 111 113 109 107 125 118 113 115 113 102 92 102 111 121 107 108 98 93 95 103 99 110 108 87 96 110 120 129 139 114 105 128 139 141 141 139 133 130 123 132 121 108 100 105 71 14 9 7 7 3 4 2 0 0 4 2 0 0 0 0 0 0 0 0 0 0 0 0 0 0 0 0 0 0 0 0 0 0 0 0 0 0 0 0 0 0 
0 0 0 0 0 0 0 0 0 0 0 6 6 4 3 7 15 34 108 123 131 111 131 150 142 124 127 131 142 171 161 123 112 126 139 146 142 137 123 88 75 77 94 96 87 94 123 111 118 122 118 105 89 85 113 122 106 100 92 91 88 104 111 113 126 98 81 82 112 120 111 116 137 136 149 158 160 139 140 132 138 138 113 89 99 109 41 9 5 6 7 2 5 3 0 0 4 2 0 0 0 0 0 0 0 0 0 0 0 0 0 0 0 0 0 0 0 0 0 0 0 0 0 0 0 0 0 0 
0 0 0 0 0 0 0 0 0 0 1 5 5 3 4 9 15 16 77 106 126 114 122 140 134 118 117 132 153 159 158 136 98 101 121 138 142 139 121 91 72 85 81 76 86 92 115 116 110 115 122 126 112 113 137 129 104 91 101 111 103 123 139 128 126 102 81 85 91 103 121 139 134 123 146 155 161 155 157 147 138 116 107 72 98 84 20 11 6 6 3 2 6 3 0 0 3 2 0 0 0 0 0 0 0 0 0 0 0 0 0 0 0 0 0 0 0 0 0 0 0 0 0 0 0 0 0 0 
0 0 0 0 0 0 0 0 0 0 1 4 4 2 3 6 13 12 44 111 124 121 121 136 141 130 133 137 149 150 141 125 105 94 94 114 120 119 109 98 89 96 94 102 116 113 126 118 110 121 137 145 148 149 148 133 128 133 129 130 120 135 148 128 119 107 88 87 93 128 119 108 118 119 140 150 164 161 164 166 119 106 91 80 109 54 10 13 7 5 2 3 6 3 0 0 3 2 0 0 0 0 0 0 0 0 0 0 0 0 0 0 0 0 0 0 0 0 0 0 0 0 0 0 0 0 0 0 
0 0 0 0 0 0 0 0 0 0 0 3 4 1 1 5 9 14 24 101 118 114 113 115 143 153 160 144 140 139 142 124 114 115 96 99 108 100 91 101 101 107 113 112 116 133 144 136 139 148 145 143 149 159 161 154 146 146 139 144 144 146 156 143 119 123 118 106 120 124 97 99 112 114 126 146 148 170 165 160 112 93 81 63 88 28 8 11 6 4 1 2 5 3 0 0 3 2 0 0 0 0 0 0 0 0 0 0 0 0 0 0 0 0 0 0 0 0 0 0 0 0 0 0 0 0 0 0 
0 0 0 0 0 0 0 0 0 0 0 1 5 0 0 4 8 13 13 70 114 110 106 118 141 162 169 155 135 133 133 138 121 117 112 106 100 103 102 109 135 118 124 120 115 140 161 150 147 141 139 142 141 142 149 153 153 142 133 143 153 159 171 168 146 126 131 131 148 115 98 98 100 106 117 122 145 179 172 140 105 111 100 100 79 17 6 7 5 3 2 2 5 4 0 0 3 1 0 0 0 0 0 0 0 0 0 0 0 0 0 0 0 0 0 0 0 0 0 0 0 0 0 0 0 0 0 0 
0 0 0 0 0 0 0 0 0 0 1 2 5 1 0 4 9 8 11 40 95 101 105 117 137 152 162 168 134 131 127 142 143 122 113 116 112 111 122 134 143 154 159 149 139 152 156 153 140 138 130 136 136 156 154 149 157 157 137 142 155 164 162 158 166 159 159 167 148 104 84 83 96 119 121 126 152 178 158 115 103 89 110 105 66 15 6 7 6 3 2 3 5 3 0 0 3 1 0 0 0 0 0 0 0 0 0 0 0 0 0 0 0 0 0 0 0 0 0 0 0 0 0 0 0 0 0 0 
0 0 0 0 0 0 0 0 0 0 1 3 15 11 3 3 8 8 11 29 81 105 113 102 123 140 151 165 151 125 117 135 125 120 112 107 109 113 120 134 138 149 159 158 157 163 155 141 137 143 151 167 167 166 160 137 145 151 136 140 151 140 144 150 168 179 166 164 149 102 85 99 113 122 142 151 157 168 145 125 93 66 90 93 55 16 7 5 5 3 1 2 5 3 0 0 3 1 0 0 0 0 0 0 0 0 0 0 0 0 0 0 0 0 0 0 0 0 0 0 0 0 0 0 0 0 0 0 
0 0 0 0 0 0 0 0 0 0 0 2 12 12 9 4 6 10 11 22 70 92 113 103 112 124 151 157 159 132 113 121 119 111 110 109 104 105 111 121 132 143 155 155 160 170 164 142 139 145 162 178 167 161 150 127 129 136 126 139 149 143 145 165 164 176 157 149 144 106 90 92 102 118 159 172 173 167 148 123 93 76 105 86 36 16 4 5 4 5 2 2 5 1 0 0 3 1 0 0 0 0 0 0 0 0 0 0 0 0 0 0 0 0 0 0 0 0 0 0 0 0 0 0 0 0 0 0 
0 0 0 0 0 0 0 0 0 0 0 2 10 10 9 8 10 13 15 16 36 84 110 119 108 121 138 159 154 137 134 123 126 106 89 107 116 114 111 113 122 145 151 151 154 161 164 153 146 142 155 171 163 150 133 108 107 118 119 133 131 138 148 141 180 175 156 156 154 113 97 101 102 127 147 162 169 150 143 107 85 107 95 65 19 14 7 5 2 3 4 7 8 2 1 0 3 0 0 0 0 0 0 0 0 0 0 0 0 0 0 0 0 0 0 0 0 0 0 0 0 0 0 0 0 0 0 0 
0 0 0 0 0 0 0 0 0 0 0 2 9 11 9 9 8 9 14 15 16 50 96 103 108 115 129 155 156 155 151 128 119 119 108 96 97 99 101 111 129 146 142 147 148 152 152 161 159 149 141 146 135 146 144 124 115 122 119 123 133 143 158 182 187 178 161 172 174 115 106 117 121 130 133 148 126 102 104 80 60 84 88 36 12 7 8 8 8 6 4 7 12 3 2 0 2 0 0 0 0 0 0 0 0 0 0 0 0 0 0 0 0 0 0 0 0 0 0 0 0 0 0 0 0 0 0 0 
0 0 0 0 0 0 0 0 0 0 0 0 9 10 6 5 6 6 10 15 20 28 69 95 90 99 130 152 148 157 157 145 132 127 122 105 108 117 126 136 153 171 161 151 166 181 179 190 186 182 171 154 154 168 167 150 151 162 160 148 159 176 184 189 174 162 164 179 166 146 125 171 159 137 105 99 84 78 86 77 78 87 50 20 14 1 1 4 6 7 5 5 9 4 0 0 2 0 0 0 0 0 0 0 0 0 0 0 0 0 0 0 0 0 0 0 0 0 0 0 0 0 0 0 0 0 0 0 
0 0 0 0 0 0 0 0 0 0 0 0 2 6 7 3 3 3 6 10 16 22 36 82 85 84 91 100 103 141 151 156 144 146 148 114 115 132 137 135 152 168 171 185 186 199 196 200 200 191 185 176 176 173 173 166 175 177 167 164 181 209 209 200 173 178 171 188 166 180 171 153 118 82 76 88 76 63 70 62 63 45 26 18 13 0 0 1 2 4 4 8 5 0 0 0 2 0 0 0 0 0 0 0 0 0 0 0 0 0 0 0 0 0 0 0 0 0 0 0 0 0 0 0 0 0 0 0 
0 0 0 0 0 0 0 0 0 0 0 0 0 3 3 2 1 1 1 8 10 23 33 49 79 70 48 49 69 65 97 125 126 125 126 131 108 120 123 142 157 153 161 166 195 189 191 195 191 177 158 145 162 156 147 139 144 163 163 174 174 190 201 160 170 172 138 166 181 173 158 144 117 89 97 118 111 94 66 44 41 42 32 20 17 0 0 0 1 0 1 3 7 0 0 0 2 0 0 0 0 0 0 0 0 0 0 0 0 0 0 0 0 0 0 0 0 0 0 0 0 0 0 0 0 0 0 0 
0 0 0 0 0 0 0 0 0 0 0 0 0 3 5 3 5 3 2 3 10 15 21 22 35 47 31 37 72 58 70 75 73 74 67 92 92 71 65 62 84 115 119 138 133 131 135 137 145 96 85 105 127 129 118 111 93 99 123 124 114 132 119 140 162 149 93 80 69 72 63 67 77 68 65 97 73 78 50 30 27 26 21 8 2 0 4 4 1 1 1 7 4 0 0 0 2 0 0 0 0 0 0 0 0 0 0 0 0 0 0 0 0 0 0 0 0 0 0 0 0 0 0 0 0 0 0 0 
0 0 0 0 0 0 0 0 0 0 0 0 0 0 2 2 2 3 3 0 5 9 16 16 20 22 23 29 68 55 66 70 51 55 41 47 77 67 76 90 96 99 83 94 107 112 94 74 72 81 56 73 89 79 78 89 68 63 87 74 83 96 87 77 73 91 73 111 129 100 63 72 83 63 56 91 74 78 45 29 28 23 17 6 2 0 1 1 1 1 3 4 1 0 0 0 2 0 0 0 0 0 0 0 0 0 0 0 0 0 0 0 0 0 0 0 0 0 0 0 0 0 0 0 0 0 0 0 
0 0 0 0 0 0 0 0 0 0 0 0 0 0 0 0 0 0 0 0 2 8 10 17 20 26 27 36 68 63 68 70 56 63 50 44 79 118 92 118 128 139 104 94 103 101 97 89 100 86 62 82 102 92 86 85 66 59 98 112 103 106 96 92 93 107 56 93 98 98 90 94 72 59 63 98 80 79 52 36 27 22 11 6 1 0 0 0 1 1 0 0 0 0 0 0 2 1 0 0 0 0 0 0 0 0 0 0 0 0 0 0 0 0 0 0 0 0 0 0 0 0 0 0 0 0 0 0 
0 0 0 0 0 0 0 0 0 0 0 0 0 0 0 0 0 0 0 0 0 6 5 10 17 21 32 41 74 80 82 73 63 72 76 84 128 114 104 144 145 172 136 106 122 145 138 178 157 119 91 113 129 125 125 136 104 118 143 162 147 140 135 143 162 161 104 142 149 123 86 89 77 72 60 76 63 62 42 27 19 12 2 5 1 0 0 0 0 0 0 0 0 0 0 0 2 1 0 0 0 0 0 0 0 0 0 0 0 0 0 0 0 0 0 0 0 0 0 0 0 0 0 0 0 0 0 0 
0 0 0 0 0 0 0 0 0 0 0 0 0 0 0 0 0 0 0 0 0 1 3 8 12 15 25 33 66 85 80 68 63 74 58 77 99 122 126 136 165 165 133 140 155 183 173 179 160 163 140 144 162 181 197 190 181 172 176 170 153 154 138 126 155 157 162 119 152 141 112 102 79 53 46 70 60 39 26 13 14 18 7 0 0 0 0 0 0 0 0 0 0 0 0 0 1 3 0 0 0 0 0 0 0 0 0 0 0 0 0 0 0 0 0 0 0 0 0 0 0 0 0 0 0 0 0 0 
0 0 0 0 0 0 0 0 0 0 0 0 0 0 0 0 0 0 0 0 0 0 2 6 9 16 27 35 47 78 77 67 65 68 52 55 79 103 99 76 139 138 101 109 121 137 166 161 145 134 130 127 138 132 145 141 152 150 130 121 114 116 94 99 131 108 136 143 146 153 117 52 29 40 46 79 69 32 24 20 13 7 8 1 0 0 0 0 0 0 0 0 0 0 1 2 6 11 0 0 0 0 0 0 0 0 0 0 0 0 0 0 0 0 0 0 0 0 0 0 0 0 0 0 0 0 0 0 
0 0 0 0 0 0 0 0 0 0 0 0 0 0 0 0 0 0 0 0 0 0 3 7 10 16 16 20 29 56 63 64 64 57 34 45 66 70 102 100 110 126 125 98 115 136 148 135 113 107 100 106 119 94 90 85 105 111 105 99 93 106 106 85 101 111 129 97 107 103 97 64 40 40 63 101 77 36 26 18 15 10 7 1 0 0 0 0 0 0 0 0 0 0 0 0 3 1 0 0 0 0 0 0 0 0 0 0 0 0 0 0 0 0 0 0 0 0 0 0 0 0 0 0 0 0 0 0 
0 0 0 0 0 0 0 0 0 0 0 0 0 0 0 0 0 0 0 0 0 0 2 4 10 13 19 21 24 48 60 74 74 66 45 66 80 80 88 108 103 104 104 103 119 150 137 115 102 107 83 80 89 81 79 82 100 104 104 94 91 111 116 91 73 104 116 106 106 101 103 72 45 47 67 107 83 43 24 19 19 12 6 0 0 0 0 0 0 0 0 0 0 0 0 0 2 0 0 0 0 0 0 0 0 0 0 0 0 0 0 0 0 0 0 0 0 0 0 0 0 0 0 0 0 0 0 0 
0 0 0 0 0 0 0 0 0 0 0 0 0 0 0 0 0 0 0 0 0 0 1 3 10 10 16 21 23 41 52 78 74 67 57 85 69 56 59 84 90 76 85 84 88 112 115 104 118 125 104 88 84 74 76 82 99 96 114 122 111 120 129 117 106 88 104 108 100 79 72 87 79 76 81 110 86 48 23 19 18 12 5 0 0 0 0 0 0 0 0 0 0 0 0 0 2 0 0 0 0 0 0 0 0 0 0 0 0 0 0 0 0 0 0 0 0 0 0 0 0 0 0 0 0 0 0 0 
0 0 0 0 0 0 0 0 0 0 0 0 0 0 0 0 0 0 0 0 0 0 0 3 6 10 13 19 22 35 42 73 79 64 69 83 48 34 45 65 73 70 88 84 80 89 115 107 138 133 117 106 92 81 77 84 96 97 121 127 118 128 134 124 100 89 90 95 98 96 66 60 66 82 99 110 86 60 24 18 16 11 3 0 0 0 0 0 0 0 0 0 0 0 0 0 2 0 0 0 0 0 0 0 0 0 0 0 0 0 0 0 0 0 0 0 0 0 0 0 0 0 0 0 0 0 0 0 
0 0 0 0 0 0 0 0 0 0 0 0 0 0 0 0 0 0 0 0 0 0 0 0 5 8 11 16 20 31 34 59 84 65 72 79 46 40 53 59 57 77 94 89 90 80 110 127 129 98 93 111 104 91 76 83 95 104 122 119 107 117 119 116 88 97 94 98 97 91 82 59 63 71 100 104 76 52 25 17 15 10 2 0 0 0 0 0 0 0 0 0 0 0 0 0 1 0 0 0 0 0 0 0 0 0 0 0 0 0 0 0 0 0 0 0 0 0 0 0 0 0 0 0 0 0 0 0 
0 0 0 0 0 0 0 0 0 0 0 0 0 0 0 0 0 0 0 0 0 0 0 0 1 7 9 12 16 24 42 57 82 60 81 84 45 51 54 46 64 92 89 92 103 85 104 110 96 86 92 109 103 99 101 93 105 121 116 98 101 112 112 110 94 103 100 97 105 74 67 63 65 84 96 101 76 40 20 16 16 8 1 0 0 0 0 0 0 0 0 0 0 0 0 0 1 0 0 0 0 0 0 0 0 0 0 0 0 0 0 0 0 0 0 0 0 0 0 0 0 0 0 0 0 0 0 0 
0 0 0 0 0 0 0 0 0 0 0 0 0 0 0 0 0 0 0 0 0 0 0 0 0 4 7 11 15 18 35 48 70 64 89 78 47 60 54 42 71 89 73 91 107 87 104 105 76 83 101 100 91 95 109 113 115 116 98 80 100 110 110 116 91 101 98 78 102 74 53 73 64 93 103 81 45 23 17 16 16 7 1 0 0 0 0 0 0 0 0 0 0 0 0 0 1 0 0 0 0 0 0 0 0 0 0 0 0 0 0 0 0 0 0 0 0 0 0 0 0 0 0 0 0 0 0 0 
0 0 0 0 0 0 0 0 0 0 0 0 0 0 0 0 0 0 0 0 0 0 0 0 0 1 6 8 13 16 19 26 39 51 70 68 54 67 49 39 70 77 66 73 89 80 106 108 81 89 115 103 92 96 105 102 101 96 88 77 85 98 102 103 84 76 86 71 88 81 47 75 69 86 106 44 17 16 17 19 16 6 0 0 0 0 0 0 0 0 0 0 0 0 0 0 1 0 0 0 0 0 0 0 0 0 0 0 0 0 0 0 0 0 0 0 0 0 0 0 0 0 0 0 0 0 0 0 
0 0 0 0 0 0 0 0 0 0 0 0 0 0 0 0 0 0 0 0 0 0 0 0 0 0 5 4 10 16 18 18 18 16 28 75 72 71 48 46 80 72 59 66 68 76 100 109 96 99 107 102 85 76 81 93 101 95 81 79 93 102 103 98 82 67 72 68 79 92 53 70 77 85 72 24 14 15 17 19 14 5 0 0 0 0 0 0 0 0 0 0 0 0 0 0 1 0 0 0 0 0 0 0 0 0 0 0 0 0 0 0 0 0 0 0 0 0 0 0 0 0 0 0 0 0 0 0 
0 0 0 0 0 0 0 0 0 0 0 0 0 0 0 0 0 0 0 0 0 0 0 0 0 0 1 7 8 13 18 20 16 16 13 40 71 71 64 69 93 76 57 65 73 72 95 101 104 108 100 96 94 89 90 97 99 92 83 78 87 95 110 93 87 66 74 72 76 107 88 80 76 76 40 23 13 16 18 17 12 6 1 0 0 0 0 0 0 0 0 0 0 0 0 0 1 0 0 0 0 0 0 0 0 0 0 0 0 0 0 0 0 0 0 0 0 0 0 0 0 0 0 0 0 0 0 0 
0 0 0 0 0 0 0 0 0 0 0 0 0 0 0 0 0 0 0 0 0 0 0 0 0 0 0 3 8 9 16 19 18 15 12 14 42 74 88 83 84 78 65 68 76 84 89 90 96 95 95 105 100 92 91 102 107 111 103 96 92 116 113 90 96 90 78 75 79 100 95 94 72 40 27 21 15 17 18 16 12 6 1 0 0 0 0 0 0 0 0 0 0 0 0 0 1 0 0 0 0 0 0 0 0 0 0 0 0 0 0 0 0 0 0 0 0 0 0 0 0 0 0 0 0 0 0 0 
0 0 0 0 0 0 0 0 0 0 0 0 0 0 0 0 0 0 0 0 0 0 0 0 0 0 0 2 8 6 13 17 19 15 11 14 17 31 58 62 72 95 79 68 94 106 84 83 100 104 96 99 97 96 98 109 108 107 103 87 94 118 115 98 95 105 92 84 93 96 74 63 33 25 25 20 15 16 16 16 10 6 1 0 0 0 0 0 0 0 0 0 0 0 0 0 1 0 0 0 0 0 0 0 0 0 0 0 0 0 0 0 0 0 0 0 0 0 0 0 0 0 0 0 0 0 0 0 
0 0 0 0 0 0 0 0 0 0 0 0 0 0 0 0 0 0 0 0 0 0 0 0 0 0 0 0 5 7 9 16 19 17 13 10 17 23 30 47 64 95 91 80 105 114 84 92 114 107 91 83 86 98 107 115 114 104 107 100 84 101 127 109 93 111 108 93 105 90 51 32 28 27 23 20 15 15 15 14 10 6 1 0 0 0 0 0 0 0 0 0 0 0 0 0 1 0 0 0 0 0 0 0 0 0 0 0 0 0 0 0 0 0 0 0 0 0 0 0 0 0 0 0 0 0 0 0 
0 0 0 0 0 0 0 0 0 0 0 0 0 0 0 0 0 0 0 0 0 0 0 0 0 0 0 0 1 9 7 12 19 17 14 10 13 21 26 31 36 58 90 85 109 117 94 106 118 102 92 90 105 107 108 114 120 114 111 108 92 97 125 123 97 104 109 94 87 50 29 26 28 27 22 18 14 14 14 13 8 5 1 0 0 0 0 0 0 0 0 0 0 0 0 0 1 0 0 0 0 0 0 0 0 0 0 0 0 0 0 0 0 0 0 0 0 0 0 0 0 0 0 0 0 0 0 0 
0 0 0 0 0 0 0 0 0 0 0 0 0 0 0 0 0 0 0 0 0 0 0 0 0 0 0 0 0 8 6 10 15 18 13 11 12 17 25 31 32 32 45 70 86 87 78 94 110 100 100 109 117 114 111 109 116 117 123 114 108 108 121 119 91 86 82 69 47 42 28 26 28 26 18 16 14 15 14 11 8 4 1 0 0 0 0 0 0 0 0 0 0 0 0 0 1 0 0 0 0 0 0 0 0 0 0 0 0 0 0 0 0 0 0 0 0 0 0 0 0 0 0 0 0 0 0 0 
0 0 0 0 0 0 0 0 0 0 0 0 0 0 0 0 0 0 0 0 0 0 0 0 0 0 0 0 0 5 6 8 12 17 14 11 13 18 24 29 30 33 32 37 48 62 75 82 91 98 104 111 110 108 107 103 108 110 116 116 122 112 112 96 88 68 49 45 43 39 27 26 28 24 14 12 15 17 13 11 8 3 1 0 0 0 0 0 0 0 0 0 0 0 0 0 1 0 0 0 0 0 0 0 0 0 0 0 0 0 0 0 0 0 0 0 0 0 0 0 0 0 0 0 0 0 0 0 
