P2
128 99
243
0 0 0 0 0 0 0 0 0 0 0 0 0 0 0 0 0 0 0 0 0 0 0 0 0 0 0 0 0 0 0 0 4 6 3 4 10 10 7 1 0 0 0 0 0 0 0 0 0 0 0 0 0 0 0 0 0 0 0 0 0 0 0 0 0 0 0 0 0 0 0 0 0 0 0 0 0 0 0 0 0 0 0 0 0 0 0 0 7 9 8 2 2 5 5 6 0 0 0 0 0 0 0 0 0 0 0 0 0 0 0 0 0 0 0 0 0 0 0 0 0 0 0 0 0 0 0 0 
0 0 0 0 0 0 0 0 0 0 0 0 0 0 0 0 0 0 0 0 0 0 0 0 0 0 0 0 0 0 0 0 4 5 3 3 10 12 8 1 0 0 0 0 0 0 0 0 0 0 0 0 0 0 0 0 0 0 0 0 0 0 0 0 0 0 0 0 0 0 0 0 0 0 0 0 0 0 0 0 0 0 0 0 0 0 0 1 6 10 7 1 3 5 5 6 0 0 0 0 0 0 0 0 0 0 0 0 0 0 0 0 0 0 0 0 0 0 0 0 0 0 0 0 0 0 0 0 
0 0 0 0 0 0 0 0 0 0 0 0 0 0 0 0 0 0 0 0 0 0 0 0 0 0 0 0 0 0 0 0 3 4 2 4 10 11 6 0 0 0 0 0 0 0 0 0 0 0 0 0 1 2 2 0 0 0 0 0 0 0 0 0 0 0 0 0 0 0 0 0 0 0 0 0 0 0 0 0 0 0 0 0 0 0 0 0 6 9 8 2 2 4 5 6 0 0 0 0 0 0 0 0 0 0 0 0 0 0 0 0 0 0 0 0 0 0 0 0 0 0 0 0 0 0 0 0 
0 0 0 0 0 0 0 0 0 0 0 0 0 0 0 0 0 0 0 0 0 0 0 0 0 0 0 0 0 0 0 0 3 4 2 1 8 10 5 0 0 0 0 0 2 19 20 18 15 13 13 15 19 21 20 20 20 10 5 7 5 0 0 0 0 0 0 0 0 0 0 0 0 0 0 0 0 0 0 0 0 0 0 0 0 0 0 1 5 8 7 1 2 5 5 7 0 0 0 0 0 0 0 0 0 0 0 0 0 0 0 0 0 0 0 0 0 0 0 0 0 0 0 0 0 0 0 0 
0 0 0 0 0 0 0 0 0 0 0 0 0 0 0 0 0 0 0 0 0 0 0 0 0 0 0 0 0 0 0 0 2 3 1 0 5 8 6 0 0 8 23 20 15 23 52 72 86 97 106 115 118 119 119 111 95 78 60 49 39 16 8 9 3 0 0 0 0 0 0 0 0 0 0 0 0 0 0 0 0 0 0 0 0 0 0 0 6 7 7 1 2 4 5 6 0 0 0 0 0 0 0 0 0 0 0 0 0 0 0 0 0 0 0 0 0 0 0 0 0 0 0 0 0 0 0 0 
0 0 0 0 0 0 0 0 0 0 0 0 0 0 0 0 0 0 0 0 0 0 0 0 0 0 0 0 0 0 0 0 2 2 0 0 4 8 7 14 20 16 36 68 96 118 133 147 160 175 195 208 212 214 216 217 213 204 182 156 128 94 69 49 22 8 10 3 0 0 0 0 0 0 0 0 0 0 0 0 0 0 0 0 0 0 0 0 6 9 7 2 2 4 5 6 0 0 0 0 0 0 0 0 0 0 0 0 0 0 0 0 0 0 0 0 0 0 0 0 0 0 0 0 0 0 0 0 
0 0 0 0 0 0 0 0 0 0 0 0 0 0 0 0 0 0 0 0 0 0 0 0 0 0 0 0 0 0 0 0 1 1 0 0 6 30 24 17 51 90 119 142 152 176 209 225 216 201 190 179 173 170 168 168 176 186 199 211 219 203 165 130 98 66 45 14 9 3 0 0 0 0 0 0 0 0 0 0 0 0 0 0 0 0 0 0 6 10 7 2 2 4 5 6 0 0 0 0 0 0 0 0 0 0 0 0 0 0 0 0 0 0 0 0 0 0 0 0 0 0 0 0 0 0 0 0 
0 0 0 0 0 0 0 0 0 0 0 0 0 0 0 0 0 0 0 0 0 0 0 0 0 0 0 0 0 0 0 0 1 1 5 23 21 29 64 101 133 149 175 209 228 213 183 161 143 127 129 138 138 125 125 135 142 144 147 156 169 186 211 222 203 157 120 84 50 19 9 3 0 0 0 0 0 0 0 0 0 0 0 0 0 0 0 1 8 10 8 2 3 5 5 7 0 0 0 0 0 0 0 0 0 0 0 0 0 0 0 0 0 0 0 0 0 0 0 0 0 0 0 0 0 0 0 0 
0 0 0 0 0 0 0 0 0 0 0 0 0 0 0 0 0 0 0 0 0 0 0 0 0 0 0 0 0 0 0 0 7 27 24 21 62 106 137 156 185 220 220 190 160 139 122 104 105 110 108 104 94 90 92 107 127 146 151 150 146 144 154 168 192 218 217 173 128 85 42 21 9 0 0 0 0 0 0 0 0 0 0 0 0 0 0 1 8 9 8 2 3 5 5 6 0 0 0 0 0 0 0 0 0 0 0 0 0 0 0 0 0 0 0 0 0 0 0 0 0 0 0 0 0 0 0 0 
0 0 0 0 0 0 0 0 0 0 0 0 0 0 0 0 0 0 0 0 0 0 0 0 0 0 0 0 0 0 0 24 28 18 41 94 135 154 184 219 212 179 144 114 112 108 106 106 98 90 117 137 140 135 127 124 116 126 144 148 153 154 150 142 140 153 179 209 214 171 120 70 26 18 3 0 0 0 0 0 0 0 0 0 0 0 0 1 7 10 8 3 3 5 5 6 0 0 0 0 0 0 0 0 0 0 0 0 0 0 0 0 0 0 0 0 0 0 0 0 0 0 0 0 0 0 0 0 
0 0 0 0 0 0 0 0 0 0 0 0 0 0 0 0 0 0 0 0 0 0 0 0 0 0 0 0 0 12 31 17 23 81 122 148 177 217 216 175 146 129 113 109 108 120 132 122 106 94 91 98 104 106 101 98 100 99 122 147 155 163 167 159 149 143 135 145 171 207 206 155 102 43 22 4 0 0 0 0 0 0 0 0 0 0 0 1 7 12 8 3 3 5 6 6 0 0 0 0 0 0 0 0 0 0 0 0 0 0 0 0 0 0 0 0 0 0 0 0 0 0 0 0 0 0 0 0 
0 0 0 0 0 0 0 0 0 0 0 0 0 0 0 0 0 0 0 0 0 0 0 0 0 0 0 0 27 24 10 44 107 140 158 200 218 177 147 135 126 118 126 149 166 165 151 142 136 131 135 142 145 149 154 158 165 162 145 133 133 142 160 174 179 169 153 143 135 144 180 211 189 125 58 23 8 0 0 0 0 0 0 0 0 0 0 1 8 12 8 2 3 5 6 7 0 0 0 0 0 0 0 0 0 0 0 0 0 0 0 0 0 0 0 0 0 0 0 0 0 0 0 0 0 0 0 0 
0 0 0 0 0 0 0 0 0 0 0 0 0 0 0 0 0 0 0 0 0 0 0 0 0 0 6 29 18 13 64 124 148 174 216 187 150 140 132 125 141 165 176 175 174 174 171 168 171 175 163 140 136 156 166 165 159 160 168 174 172 152 146 147 157 176 182 168 153 145 136 156 199 205 138 71 22 12 0 0 0 0 0 0 0 0 0 1 8 12 8 2 3 6 6 7 0 0 0 0 0 0 0 0 0 0 0 0 0 0 0 0 0 0 0 0 0 0 0 0 0 0 0 0 0 0 0 0 
0 0 0 0 0 0 0 0 0 0 0 0 0 0 0 0 0 0 0 0 0 0 0 0 0 10 26 15 18 82 138 153 194 206 159 140 137 141 153 162 165 165 165 170 168 167 164 163 171 172 155 142 130 130 138 147 152 152 155 156 156 156 147 151 154 154 160 176 179 164 151 137 144 187 207 145 76 23 14 0 0 0 0 0 0 0 0 1 9 11 8 5 3 5 5 7 0 0 0 0 0 0 0 0 0 0 0 0 0 0 0 0 0 0 0 0 0 0 0 0 0 0 0 0 0 0 0 0 
0 0 0 0 0 0 0 0 0 0 0 0 0 0 0 0 0 0 0 0 0 0 0 0 13 24 12 24 97 147 164 206 191 145 130 132 154 168 167 161 160 165 170 162 153 151 165 167 163 153 151 143 132 137 139 142 153 160 159 154 151 149 141 133 133 149 162 159 158 177 173 153 141 139 180 210 151 84 26 12 0 0 0 0 0 0 0 1 9 12 10 3 4 5 6 6 0 0 0 0 0 0 0 0 0 0 0 0 0 0 0 0 0 0 0 0 0 0 0 0 0 0 0 0 0 0 0 0 
0 0 0 0 0 0 0 0 0 0 0 0 0 0 0 0 0 0 0 0 0 0 5 19 19 12 34 113 148 172 211 179 138 127 142 164 165 159 159 158 160 158 145 120 109 100 105 125 121 116 135 144 140 134 130 128 132 138 152 158 156 149 149 144 131 123 134 151 158 151 165 172 151 140 137 184 214 150 93 29 12 0 0 0 0 0 0 2 10 12 9 2 3 5 5 6 0 0 0 0 0 0 0 0 0 0 0 0 0 0 0 0 0 0 0 0 0 0 0 0 0 0 0 0 0 0 0 0 
0 0 0 0 0 0 0 0 0 0 0 0 0 0 0 0 0 0 0 0 0 7 17 14 12 45 123 150 173 211 172 131 132 155 167 158 158 163 162 154 158 151 112 97 81 54 53 58 57 56 74 106 91 71 63 63 68 90 118 137 143 137 136 148 145 136 123 126 138 155 148 152 170 151 142 139 186 214 148 97 30 8 0 0 0 0 0 1 8 12 8 3 3 5 5 6 0 0 0 0 0 0 0 0 0 0 0 0 0 0 0 0 0 0 0 0 0 0 0 0 0 0 0 0 0 0 0 0 
0 0 0 0 0 0 0 0 0 0 0 0 0 0 0 0 0 0 0 0 8 19 12 15 62 126 150 166 214 167 132 143 154 161 152 152 149 151 157 164 156 119 78 57 48 47 48 51 51 53 54 58 54 55 53 54 52 52 63 83 109 127 138 142 144 145 135 129 125 130 147 157 156 165 157 144 145 191 212 148 96 27 4 0 0 0 0 1 9 11 8 3 3 5 5 7 0 0 0 0 0 0 0 0 0 0 0 0 0 0 0 0 0 0 0 0 0 0 0 0 0 0 0 0 0 0 0 0 
0 0 0 0 0 0 0 0 0 0 0 0 0 0 0 0 0 0 0 8 18 10 16 67 126 151 159 208 165 133 145 144 155 145 139 142 151 157 163 140 88 51 46 47 48 51 56 65 69 76 79 85 93 96 98 96 95 91 87 77 74 78 96 115 128 126 127 141 133 118 120 137 157 158 160 149 139 146 205 202 139 90 23 4 0 0 0 2 9 12 11 4 3 5 5 7 0 0 0 0 0 0 0 0 0 0 0 0 0 0 0 0 0 0 0 0 0 0 0 0 0 0 0 0 0 0 0 0 
0 0 0 0 0 0 0 0 0 0 0 0 0 0 0 0 0 0 7 19 11 20 74 122 151 151 200 171 131 148 141 151 139 133 142 149 161 157 119 67 47 45 46 61 81 100 119 132 143 144 144 153 159 162 158 158 161 161 156 149 140 121 94 78 103 131 129 121 133 129 118 115 132 153 157 146 134 132 156 214 181 132 88 23 3 0 0 2 10 13 9 4 3 5 6 7 0 0 0 0 0 0 0 0 0 0 0 0 0 0 0 0 0 0 0 0 0 0 0 0 0 0 0 0 0 0 0 0 
0 0 0 0 0 0 0 0 0 0 0 0 0 0 0 0 0 5 18 11 19 81 116 145 146 184 188 137 149 140 144 129 129 145 148 149 147 105 58 46 47 64 100 128 143 154 162 163 163 154 152 157 158 158 150 151 153 155 155 156 163 165 156 124 83 85 131 135 132 141 135 119 116 128 152 154 136 125 133 183 203 153 122 88 17 0 0 1 9 12 8 3 3 5 6 8 0 0 0 0 0 0 0 0 0 0 0 0 0 0 0 0 0 0 0 0 0 0 0 0 0 0 0 0 0 0 0 0 
0 0 0 0 0 0 0 0 0 0 0 0 0 0 0 0 0 17 13 19 93 119 134 148 169 201 148 148 143 145 125 119 134 141 137 138 99 61 49 49 82 126 156 162 159 154 152 143 142 133 130 136 140 137 134 131 131 136 137 144 147 151 168 166 133 81 79 125 135 135 137 137 126 115 129 152 153 122 120 147 207 177 146 106 70 8 0 1 9 11 8 3 4 6 6 7 0 0 0 0 0 0 0 0 0 0 0 0 0 0 0 0 0 0 0 0 0 0 0 0 0 0 0 0 0 0 0 0 
0 0 0 0 0 0 0 0 0 0 0 0 0 0 0 0 7 16 15 85 130 121 143 153 197 172 143 140 144 122 120 136 135 140 139 95 64 52 53 89 138 162 168 161 151 142 142 138 134 126 118 126 134 134 133 127 130 135 136 135 143 146 157 169 160 122 72 73 117 131 128 131 132 123 123 129 147 141 107 122 179 208 161 130 98 37 3 2 10 13 10 3 4 6 6 7 0 0 0 0 0 0 0 0 0 0 0 0 0 0 0 0 0 0 0 0 0 0 0 0 0 0 0 0 0 0 0 0 
0 0 0 0 0 0 0 0 0 0 0 0 0 0 0 0 17 13 61 134 112 131 141 171 193 149 138 133 123 120 137 142 140 144 94 65 64 61 85 136 164 171 172 162 160 154 150 150 149 138 129 135 146 140 134 140 145 145 143 143 145 150 153 161 163 155 110 60 67 113 132 122 122 139 139 126 129 152 117 98 150 213 175 150 109 88 11 3 11 13 9 4 4 6 6 8 0 0 0 0 0 0 0 0 0 0 0 0 0 0 0 0 0 0 0 0 0 0 0 0 0 0 0 0 0 0 0 0 
0 0 0 0 0 0 0 0 0 0 0 0 0 0 0 7 14 26 121 119 119 138 146 196 179 135 127 126 119 133 145 142 139 106 67 66 61 79 120 155 162 160 164 159 159 161 156 151 152 149 146 152 156 143 135 153 156 163 152 155 145 144 152 160 160 165 144 91 55 77 120 131 122 125 136 139 123 136 144 93 122 198 192 148 136 106 36 5 10 12 9 2 4 6 6 7 0 0 0 0 0 0 0 0 0 0 0 0 0 0 0 0 0 0 0 0 0 0 0 0 0 0 0 0 0 0 0 0 
0 0 0 0 0 0 0 0 0 0 0 0 0 0 0 13 11 78 137 110 139 140 163 209 150 116 121 124 131 141 146 140 102 72 63 64 73 118 151 159 160 156 155 159 150 154 148 146 151 158 160 169 171 179 170 163 162 165 148 135 136 149 144 146 146 159 159 135 75 53 79 120 136 123 124 143 133 131 148 114 95 174 203 147 146 110 79 13 9 12 8 2 4 6 6 7 0 0 0 0 0 0 0 0 0 0 0 0 0 0 0 0 0 0 0 0 0 0 0 0 0 0 0 0 0 0 0 0 
0 0 0 0 0 0 0 0 0 0 0 0 0 0 7 12 30 133 111 109 135 134 190 191 117 100 133 139 142 152 144 95 58 68 63 68 108 153 165 163 156 150 143 147 150 149 155 150 146 155 175 180 176 185 146 160 157 156 151 122 104 109 137 149 149 145 144 154 123 67 53 78 125 126 124 140 144 137 143 129 93 140 199 153 145 128 107 24 9 12 8 2 4 5 5 7 0 0 0 0 0 0 0 0 0 0 0 0 0 0 0 0 0 0 0 0 0 0 0 0 0 0 0 0 0 0 0 0 
0 0 0 0 0 0 0 0 0 0 0 0 0 0 13 14 80 140 99 127 127 142 204 147 101 110 143 143 152 152 96 51 52 70 69 103 154 167 159 160 148 137 133 134 134 130 126 116 114 123 164 173 161 163 120 125 132 129 126 110 104 102 103 120 154 148 136 146 152 109 58 52 83 127 137 145 147 150 147 131 104 116 185 166 141 139 110 43 13 12 9 4 4 5 6 7 0 0 0 0 0 0 0 0 0 0 0 0 0 0 0 0 0 0 0 0 0 0 0 0 0 0 0 0 0 0 0 0 
0 0 0 0 0 0 0 0 0 0 0 0 0 1 14 27 133 117 104 133 124 167 184 120 95 130 143 145 151 114 60 49 52 75 98 150 174 158 151 165 151 126 115 112 108 109 109 107 108 110 118 133 130 125 106 105 108 109 107 106 107 107 106 110 139 157 133 140 157 151 94 56 52 87 133 149 146 148 150 141 105 105 158 176 133 142 114 66 15 13 10 5 4 6 6 7 0 0 0 0 0 0 0 0 0 0 0 0 0 0 0 0 0 0 0 0 0 0 0 0 0 0 0 0 0 0 0 0 
0 0 0 0 0 0 0 0 0 0 0 0 0 6 16 53 151 100 116 136 137 182 151 106 109 141 143 151 131 71 48 46 56 102 150 187 188 169 166 164 147 124 110 105 103 104 105 107 105 102 101 101 102 99 95 98 100 99 101 102 103 102 106 108 119 146 139 138 147 171 145 82 52 54 101 144 149 150 154 150 110 105 138 173 134 135 117 86 19 14 12 6 4 6 6 7 0 0 0 0 0 0 0 0 0 0 0 0 0 0 0 0 0 0 0 0 0 0 0 0 0 0 0 0 0 0 0 0 
0 0 0 0 0 0 0 0 0 0 0 0 0 9 17 91 139 89 129 129 138 167 120 110 118 147 153 150 85 48 47 51 83 155 192 194 179 162 151 156 156 146 127 105 101 99 99 102 100 97 100 96 94 92 94 95 95 95 94 95 93 98 103 104 109 131 158 141 125 156 178 140 74 48 61 114 150 151 150 152 116 109 138 170 139 138 120 100 24 14 12 6 4 6 6 8 0 0 0 0 0 0 0 0 0 0 0 0 0 0 0 0 0 0 0 0 0 0 0 0 0 0 0 0 0 0 0 0 
0 0 0 0 0 0 0 0 0 0 0 0 0 13 24 137 122 101 133 113 133 148 116 113 124 153 152 119 56 45 49 74 146 200 196 184 173 151 155 157 162 158 140 112 95 91 94 95 97 98 100 94 92 93 96 97 95 95 97 93 94 95 96 100 107 128 161 147 118 127 164 182 129 64 48 79 141 153 154 149 116 115 139 154 137 140 126 113 31 14 12 6 4 6 6 8 0 0 0 0 0 0 0 0 0 0 0 0 0 0 0 0 0 0 0 0 0 0 0 0 0 0 0 0 0 0 0 0 
0 0 0 0 0 0 0 0 0 0 0 0 0 13 34 147 110 110 129 113 132 139 123 114 131 160 136 92 53 46 63 132 191 198 170 166 168 155 142 149 148 133 113 103 94 89 91 93 98 100 96 91 92 93 97 96 95 95 97 101 114 102 99 106 130 146 114 127 123 115 138 175 180 121 56 60 120 152 152 146 115 119 141 153 142 139 132 116 43 17 12 5 4 6 6 8 0 0 0 0 0 0 0 0 0 0 0 0 0 0 0 0 0 0 0 0 0 0 0 0 0 0 0 0 0 0 0 0 
0 0 0 0 0 0 0 0 0 0 0 0 1 13 49 150 102 116 121 121 134 147 135 118 136 150 111 82 52 49 100 179 198 185 158 150 163 150 137 134 132 117 106 105 103 93 88 92 95 98 99 98 98 96 95 96 95 95 96 126 142 114 104 102 98 95 98 101 130 122 122 154 182 175 101 54 94 141 146 147 118 121 143 158 147 141 141 115 59 17 11 4 4 6 6 8 0 0 0 0 0 0 0 0 0 0 0 0 0 0 0 0 0 0 0 0 0 0 0 0 0 0 0 0 0 0 0 0 
0 0 0 0 0 0 0 0 0 0 0 0 5 11 63 146 98 123 115 130 137 150 139 119 141 129 94 69 48 57 147 195 187 166 145 142 153 155 150 138 129 123 106 101 108 106 95 94 95 96 98 95 99 97 97 97 98 98 101 138 129 94 90 89 90 93 97 101 151 139 124 123 156 184 162 83 73 130 152 145 109 122 144 163 149 144 148 117 66 18 12 6 4 6 6 8 0 0 0 0 0 0 0 0 0 0 0 0 0 0 0 0 0 0 0 0 0 0 0 0 0 0 0 0 0 0 0 0 
0 0 0 0 0 0 0 0 0 0 0 0 6 8 80 140 104 131 118 137 138 162 140 127 136 108 82 58 50 72 178 185 159 152 143 142 145 140 130 124 124 137 101 88 91 119 139 119 99 98 96 99 105 101 99 103 104 98 108 148 124 91 90 88 90 94 101 115 116 113 117 123 128 153 180 153 84 126 149 135 128 129 138 158 150 147 150 124 68 16 11 5 4 6 6 8 0 0 0 0 0 0 0 0 0 0 0 0 0 0 0 0 0 0 0 0 0 0 0 0 0 0 0 0 0 0 0 0 
0 0 0 0 0 0 0 0 0 0 0 0 6 6 93 130 108 135 119 134 144 179 151 140 121 93 76 49 54 94 189 164 146 160 153 120 98 94 89 95 104 120 104 91 88 90 135 149 115 108 106 101 124 112 107 137 133 109 122 149 108 92 91 91 91 95 94 97 104 102 87 67 115 156 160 187 154 137 150 136 131 129 155 166 147 145 149 131 68 18 12 7 4 6 6 8 0 0 0 0 0 0 0 0 0 0 0 0 0 0 0 0 0 0 0 0 0 0 0 0 0 0 0 0 0 0 0 0 
0 0 0 0 0 0 0 0 0 0 0 0 6 8 101 121 116 140 120 133 145 180 156 144 117 83 71 47 59 129 182 152 167 166 112 102 99 95 90 90 90 92 93 105 100 95 103 129 129 136 142 119 118 119 125 152 143 134 137 114 92 98 95 91 85 79 94 100 106 108 93 67 52 96 166 177 201 181 148 135 131 134 171 165 138 144 149 140 72 21 12 7 4 6 6 8 0 0 0 0 0 0 0 0 0 0 0 0 0 0 0 0 0 0 0 0 0 0 0 0 0 0 0 0 0 0 0 0 
0 0 0 0 0 0 0 0 0 0 0 0 6 10 105 114 119 129 122 129 138 179 173 146 120 81 73 50 75 167 167 169 167 125 107 101 99 97 94 97 97 97 96 90 97 106 91 91 90 90 100 135 116 113 137 101 98 105 89 87 101 93 88 88 89 95 101 102 106 113 103 77 50 46 96 186 202 223 163 131 130 143 176 154 123 142 147 141 81 23 12 7 4 6 6 8 0 0 0 0 0 0 0 0 0 0 0 0 0 0 0 0 0 0 0 0 0 0 0 0 0 0 0 0 0 0 0 0 
0 0 0 0 0 0 0 0 0 0 0 0 7 10 105 107 119 132 120 132 136 171 175 152 112 75 81 70 115 184 168 178 121 119 110 105 101 97 97 99 101 100 94 92 92 95 92 90 88 82 82 107 119 108 122 79 75 77 78 88 98 91 90 89 97 97 100 103 108 114 109 90 73 72 83 144 204 222 195 135 129 148 171 140 115 133 146 142 91 28 12 6 4 6 6 8 0 0 0 0 0 0 0 0 0 0 0 0 0 0 0 0 0 0 0 0 0 0 0 0 0 0 0 0 0 0 0 0 
0 0 0 0 0 0 0 0 0 0 0 0 7 13 101 104 127 144 125 136 127 170 186 155 102 67 74 94 169 177 182 146 111 120 105 97 94 96 97 99 99 99 95 93 95 94 104 89 84 77 75 97 109 99 102 73 69 71 75 91 90 91 90 95 98 99 106 113 120 125 125 102 78 78 86 107 181 209 210 146 123 144 167 129 102 122 144 143 95 31 12 7 4 6 6 8 0 0 0 0 0 0 0 0 0 0 0 0 0 0 0 0 0 0 0 0 0 0 0 0 0 0 0 0 0 0 0 0 
0 0 0 0 0 0 0 0 0 0 0 0 8 13 92 105 134 142 127 132 119 167 188 161 94 52 68 110 190 190 192 135 124 131 118 111 106 100 95 94 96 99 98 96 91 90 96 100 78 67 64 90 107 111 109 70 63 62 70 95 87 91 96 100 107 116 114 116 123 125 121 99 75 77 82 83 138 208 211 151 125 141 171 127 92 108 138 142 97 38 16 7 4 6 7 8 0 0 0 0 0 0 0 0 0 0 0 0 0 0 0 0 0 0 0 0 0 0 0 0 0 0 0 0 0 0 0 0 
0 0 0 0 0 0 0 0 0 0 0 0 8 16 86 107 137 142 126 120 113 169 185 161 78 44 65 137 187 184 173 126 123 135 128 124 124 118 112 106 103 98 95 95 92 87 87 105 73 59 54 71 107 128 125 80 58 57 69 84 84 93 112 119 118 113 116 120 126 128 125 104 77 75 74 77 94 178 186 141 128 121 143 127 96 95 139 142 100 42 16 7 5 7 7 9 0 0 0 0 0 0 0 0 0 0 0 0 0 0 0 0 0 0 0 0 0 0 0 0 0 0 0 0 0 0 0 0 
0 0 0 0 0 0 0 0 0 0 0 1 8 18 89 111 143 133 97 106 116 177 183 146 65 41 57 135 168 180 163 128 132 141 134 124 123 120 116 112 116 112 104 95 88 80 74 78 69 54 54 62 98 105 112 96 59 55 67 73 91 109 114 107 107 114 118 123 128 126 115 95 83 79 74 79 77 154 181 138 130 120 120 127 104 92 144 138 106 50 17 8 4 7 7 9 0 0 0 0 0 0 0 0 0 0 0 0 0 0 0 0 0 0 0 0 0 0 0 0 0 0 0 0 0 0 0 0 
0 0 0 0 0 0 0 0 0 0 0 0 9 19 92 114 146 130 88 105 118 175 171 126 61 47 60 158 186 182 167 130 128 135 119 117 116 123 118 111 106 112 113 105 85 67 60 56 58 58 69 92 77 59 68 85 66 58 67 82 107 103 98 95 96 105 119 123 125 124 114 91 80 75 73 76 70 139 166 138 132 117 88 113 111 92 146 132 109 59 15 9 5 7 7 9 0 0 0 0 0 0 0 0 0 0 0 0 0 0 0 0 0 0 0 0 0 0 0 0 0 0 0 0 0 0 0 0 
0 0 0 0 0 0 0 0 0 0 0 0 10 24 94 117 142 118 74 101 119 176 148 120 68 51 60 152 190 181 174 128 128 136 122 115 113 114 116 107 91 89 85 80 78 70 61 56 62 71 88 114 91 52 56 55 85 77 92 95 96 95 98 93 92 103 120 123 124 121 106 85 73 72 73 68 69 139 159 135 132 115 75 118 123 89 140 138 113 68 17 9 4 6 7 8 0 0 0 0 0 0 0 0 0 0 0 0 0 0 0 0 0 0 0 0 0 0 0 0 0 0 0 0 0 0 0 0 
0 0 0 0 0 0 0 0 0 0 0 0 9 25 97 113 139 98 69 95 128 178 139 124 77 53 62 142 192 175 181 136 124 130 114 113 113 112 110 108 93 82 68 58 56 63 72 53 66 86 118 116 94 70 54 43 68 71 74 87 89 95 100 94 94 104 116 120 122 118 100 81 75 73 74 64 84 160 163 137 134 110 61 103 130 90 129 123 111 78 15 7 5 6 6 8 0 0 0 0 0 0 0 0 0 0 0 0 0 0 0 0 0 0 0 0 0 0 0 0 0 0 0 0 0 0 0 0 
0 0 0 0 0 0 0 0 0 0 0 0 11 25 95 108 135 91 69 88 134 180 141 126 84 55 60 130 189 175 186 146 120 128 112 108 104 102 105 117 100 75 58 53 53 50 65 48 59 86 114 89 65 53 53 45 59 94 68 81 90 95 95 94 99 105 118 122 123 113 96 83 79 76 65 60 119 185 174 137 133 103 54 101 130 92 125 129 106 84 17 7 4 6 6 8 0 0 0 0 0 0 0 0 0 0 0 0 0 0 0 0 0 0 0 0 0 0 0 0 0 0 0 0 0 0 0 0 
0 0 0 0 0 0 0 0 0 0 0 0 9 23 97 106 136 88 72 76 132 173 140 130 96 52 58 121 180 156 189 161 120 134 118 104 102 98 106 116 102 72 51 50 49 47 60 47 58 100 109 74 76 68 63 54 53 87 83 82 86 90 95 94 98 107 121 124 125 110 87 77 76 68 55 61 144 207 195 141 128 94 46 106 117 89 118 127 106 87 16 7 4 6 6 8 0 0 0 0 0 0 0 0 0 0 0 0 0 0 0 0 0 0 0 0 0 0 0 0 0 0 0 0 0 0 0 0 
0 0 0 0 0 0 0 0 0 0 0 0 7 24 104 100 138 98 75 69 125 164 140 132 104 56 57 129 174 136 163 172 128 145 133 120 115 117 116 113 98 66 51 50 46 44 45 45 61 108 103 80 87 89 93 80 63 70 103 93 88 90 94 98 100 113 124 127 123 99 76 70 68 57 43 49 142 216 215 163 131 79 54 123 97 84 119 123 108 90 14 8 4 5 6 8 0 0 0 0 0 0 0 0 0 0 0 0 0 0 0 0 0 0 0 0 0 0 0 0 0 0 0 0 0 0 0 0 
0 0 0 0 0 0 0 0 0 0 0 0 2 23 106 95 134 104 79 57 117 163 141 137 113 59 57 135 164 120 159 173 130 143 134 128 128 120 116 109 94 64 53 49 48 58 63 52 75 117 91 81 94 106 112 94 71 72 97 100 102 88 89 92 101 114 118 126 115 88 72 64 58 47 45 47 140 216 226 193 133 63 88 122 86 87 127 123 114 93 16 9 3 6 6 8 0 0 0 0 0 0 0 0 0 0 0 0 0 0 0 0 0 0 0 0 0 0 0 0 0 0 0 0 0 0 0 0 
0 0 0 0 0 0 0 0 0 5 7 0 1 18 107 94 127 113 77 49 100 159 151 138 120 64 53 141 155 116 141 166 128 140 131 123 120 115 117 109 99 72 45 42 48 72 86 59 89 100 90 83 98 113 105 93 75 78 83 119 136 120 96 93 97 105 113 117 105 79 63 58 58 44 42 59 156 196 204 217 133 66 112 108 83 96 145 121 119 90 15 8 3 6 7 9 0 0 0 0 0 0 0 0 0 0 0 0 0 0 0 0 0 0 0 0 0 0 0 0 0 0 0 0 0 0 0 0 
0 0 0 0 0 0 0 0 0 8 16 0 1 11 99 99 122 126 81 47 75 155 170 146 122 69 54 142 154 142 156 162 131 136 130 121 115 114 114 106 97 86 59 52 75 61 51 76 108 95 106 85 99 102 104 116 92 80 74 125 107 126 128 98 95 101 111 116 103 72 55 60 61 45 41 102 170 184 197 223 122 95 113 88 82 105 150 118 128 85 16 8 3 6 6 8 0 0 0 0 0 0 0 0 0 0 0 0 0 0 0 0 0 0 0 0 0 0 0 0 0 0 0 0 0 0 0 0 
0 0 0 0 0 0 0 0 0 0 0 10 2 8 81 104 111 126 80 50 54 134 179 170 145 81 56 144 163 148 145 153 147 134 123 113 109 109 108 104 102 90 79 68 74 51 57 86 115 82 78 82 97 102 99 99 109 84 75 96 117 99 122 131 122 115 118 112 89 61 56 83 93 76 76 129 163 175 187 215 139 105 105 82 84 108 134 109 137 70 14 5 3 6 6 8 0 0 0 0 0 0 0 0 0 0 0 0 0 0 0 0 0 0 0 0 0 0 0 0 0 0 0 0 0 0 0 0 
0 0 0 0 0 0 0 0 0 0 0 9 4 5 55 101 102 127 88 61 42 96 169 167 163 95 61 144 163 116 90 109 142 142 123 115 106 102 105 114 121 86 66 61 71 58 66 110 109 75 80 86 91 100 97 106 108 96 89 94 130 116 105 99 107 123 134 148 122 92 102 122 116 101 98 122 165 181 197 211 134 111 79 82 100 112 108 103 138 53 13 9 4 10 6 7 0 0 0 0 0 0 0 0 0 0 0 0 0 0 0 0 0 0 0 0 0 0 0 0 0 0 0 0 0 0 0 0 
0 0 0 0 0 0 0 0 0 0 0 13 11 4 36 102 96 124 97 72 45 61 146 175 171 118 71 149 155 88 50 70 119 141 132 119 107 102 124 104 95 88 72 63 66 81 85 121 123 84 82 100 96 114 101 88 106 93 105 133 143 118 98 97 99 130 146 143 129 121 126 116 108 68 74 112 162 189 198 193 161 97 65 86 101 116 115 100 133 36 13 7 15 9 10 8 0 0 0 0 0 0 0 0 0 0 0 0 0 0 0 0 0 0 0 0 0 0 0 0 0 0 0 0 0 0 0 0 
0 0 0 0 0 0 0 0 0 0 0 15 13 8 29 100 96 127 130 84 50 40 94 171 175 150 103 146 143 71 43 54 110 154 137 132 126 99 96 97 97 97 81 72 77 80 97 131 114 92 91 104 96 114 104 82 107 94 97 121 134 102 92 96 99 111 125 125 119 116 103 112 113 73 65 118 160 186 171 176 185 84 80 87 131 148 138 92 112 27 15 12 9 6 6 8 0 0 0 0 0 0 0 0 0 0 0 0 0 0 0 0 0 0 0 0 0 0 0 0 0 0 0 0 0 0 0 0 
0 0 0 0 0 0 0 0 0 0 0 16 10 7 17 77 94 117 150 105 59 39 52 145 182 164 151 152 133 72 73 85 96 147 141 121 107 100 97 100 107 109 96 96 100 86 94 120 118 103 71 84 99 109 101 85 109 96 110 125 126 116 117 108 103 110 127 127 118 98 58 104 121 117 114 145 159 171 160 163 192 114 89 108 159 172 125 92 79 20 18 14 5 6 6 8 0 0 0 0 0 0 0 0 0 0 0 0 0 0 0 0 0 0 0 0 0 0 0 0 0 0 0 0 0 0 0 0 
0 0 0 0 0 0 0 0 0 0 0 17 5 2 17 64 90 113 144 124 73 60 46 109 163 178 199 169 127 57 71 103 110 135 152 137 134 133 126 102 95 107 109 104 94 94 102 133 118 91 78 95 99 110 94 90 102 119 116 125 131 112 143 147 136 145 147 144 146 147 142 151 155 141 166 167 163 152 179 177 211 184 140 171 172 69 73 83 39 20 22 17 5 6 7 9 0 0 0 0 0 0 0 0 0 0 0 0 0 0 0 0 0 0 0 0 0 0 0 0 0 0 0 0 0 0 0 0 
0 0 0 0 0 0 0 0 0 0 0 22 3 0 10 37 82 106 139 136 95 89 90 136 142 175 214 184 140 80 74 106 126 133 150 154 153 149 145 123 127 134 114 101 98 97 105 133 122 81 75 78 84 114 103 96 105 115 109 106 132 141 129 125 135 142 157 152 140 146 135 151 137 140 179 187 165 150 162 151 192 171 178 162 124 44 74 68 19 21 21 21 5 6 6 9 0 0 0 0 0 0 0 0 0 0 0 0 0 0 0 0 0 0 0 0 0 0 0 0 0 0 0 0 0 0 0 0 
0 0 0 0 0 0 0 0 0 0 0 11 13 0 3 7 54 92 111 152 128 103 151 149 141 135 174 194 179 101 101 132 145 149 167 179 176 171 160 117 109 119 121 109 106 99 100 123 100 85 73 76 74 107 115 109 107 117 110 104 110 135 122 122 118 109 111 120 122 108 109 127 160 172 191 197 177 139 167 152 174 181 153 154 113 65 76 74 21 21 22 19 14 5 7 10 0 0 0 0 0 0 0 0 0 0 0 0 0 0 0 0 0 0 0 0 0 0 0 0 0 0 0 0 0 0 0 0 
0 0 0 0 0 0 0 0 0 0 0 12 11 0 1 7 37 90 98 150 170 134 120 91 64 82 133 192 186 122 133 140 156 186 165 169 158 155 152 113 109 116 133 129 117 117 127 120 128 108 101 97 92 124 125 138 134 113 102 104 105 122 114 110 97 79 94 106 129 131 101 107 130 183 191 180 110 101 163 170 213 186 141 142 73 143 131 60 14 19 20 21 14 6 7 10 0 0 0 0 0 0 0 0 0 0 0 0 0 0 0 0 0 0 0 0 0 0 0 0 0 0 0 0 0 0 0 0 
0 0 0 0 0 0 0 0 0 0 0 16 9 2 0 7 21 83 92 144 183 151 111 104 90 68 93 170 181 163 134 146 167 171 149 144 146 148 138 110 107 116 135 137 120 118 126 116 137 147 145 139 137 159 165 172 130 115 123 125 112 129 107 92 83 67 94 109 110 95 75 68 126 197 181 139 85 101 168 163 212 189 161 114 52 47 92 38 14 19 20 19 14 6 8 11 0 0 0 0 0 0 0 0 0 0 0 0 0 0 0 0 0 0 0 0 0 0 0 0 0 0 0 0 0 0 0 0 
0 0 0 0 0 0 0 0 0 0 0 14 8 2 0 5 14 66 87 149 189 113 113 126 91 67 74 153 172 176 153 132 134 163 140 123 154 143 109 88 86 100 109 116 110 108 120 116 138 152 156 166 150 166 172 153 109 108 121 117 126 121 100 76 73 59 68 62 49 48 69 105 162 169 141 110 77 92 166 194 190 201 160 72 32 27 82 17 13 19 20 18 17 6 7 11 0 0 0 0 0 0 0 0 0 0 0 0 0 0 0 0 0 0 0 0 0 0 0 0 0 0 0 0 0 0 0 0 
0 0 0 0 0 0 0 0 0 0 0 15 8 0 4 8 15 45 88 128 180 146 153 148 115 111 111 103 141 137 154 158 123 112 153 154 148 144 91 55 54 64 84 91 87 86 104 99 120 112 96 113 118 114 109 101 80 79 72 79 95 121 103 98 80 60 46 46 59 90 128 159 176 140 114 106 94 105 132 162 206 208 122 35 72 86 58 8 11 16 17 22 19 7 8 11 0 0 0 0 0 0 0 0 0 0 0 0 0 0 0 0 0 0 0 0 0 0 0 0 0 0 0 0 0 0 0 0 
0 0 0 0 0 0 0 0 0 0 1 12 11 0 1 9 16 21 73 99 152 145 168 162 115 108 130 91 65 109 136 150 141 131 143 142 137 135 91 60 47 50 57 65 60 65 76 83 92 88 133 131 72 64 92 79 71 77 78 72 95 124 96 95 102 68 43 51 122 149 168 173 136 103 92 106 112 139 163 211 205 148 77 18 40 98 21 4 6 14 17 23 19 7 8 11 0 0 0 0 0 0 0 0 0 0 0 0 0 0 0 0 0 0 0 0 0 0 0 0 0 0 0 0 0 0 0 0 
0 0 0 0 0 0 0 0 0 0 1 9 12 0 0 1 15 14 44 89 129 154 176 186 144 111 127 119 68 60 98 123 143 157 152 142 133 103 62 54 44 51 62 68 71 71 73 95 108 136 156 153 143 146 124 106 85 73 62 59 92 138 122 101 92 62 43 89 159 172 177 133 89 81 88 111 145 175 206 200 158 105 42 18 65 79 6 4 8 14 16 26 21 8 7 11 0 0 0 0 0 0 0 0 0 0 0 0 0 0 0 0 0 0 0 0 0 0 0 0 0 0 0 0 0 0 0 0 
0 0 0 0 0 0 0 0 0 0 0 4 16 1 0 0 7 18 29 84 122 153 142 171 195 119 109 131 114 69 62 86 117 151 164 174 162 91 47 59 47 70 83 91 102 98 133 168 156 152 146 144 157 167 159 136 122 116 123 136 155 189 191 171 149 121 132 166 182 185 133 91 70 76 77 119 138 175 139 169 113 75 65 23 79 41 7 3 4 10 17 26 22 7 7 11 0 0 0 0 0 0 0 0 0 0 0 0 0 0 0 0 0 0 0 0 0 0 0 0 0 0 0 0 0 0 0 0 
0 0 0 0 0 0 0 0 0 0 0 1 16 2 0 0 5 12 19 63 115 144 137 137 186 176 140 128 140 114 79 61 97 131 140 166 166 140 119 107 130 131 151 159 156 138 166 158 145 142 130 104 91 93 134 153 151 148 143 140 153 186 191 191 176 173 174 173 195 138 88 63 58 68 67 130 135 130 128 164 117 158 165 112 74 17 2 3 3 9 17 26 21 8 7 11 0 0 0 0 0 0 0 0 0 0 0 0 0 0 0 0 0 0 0 0 0 0 0 0 0 0 0 0 0 0 0 0 
0 0 0 0 0 0 0 0 0 0 0 0 16 7 0 0 6 9 17 29 94 148 161 145 162 200 174 141 113 112 106 66 59 110 125 133 142 153 160 168 173 182 166 176 176 166 166 152 135 127 111 106 106 116 140 162 163 164 166 166 172 180 192 189 203 210 179 151 152 88 56 51 62 66 88 148 177 135 134 139 119 123 167 142 40 9 1 2 2 8 17 25 22 9 7 11 0 0 0 0 0 0 0 0 0 0 0 0 0 0 0 0 0 0 0 0 0 0 0 0 0 0 0 0 0 0 0 0 
0 0 0 0 0 0 0 0 0 0 0 1 18 15 3 0 6 9 14 22 41 108 158 156 126 142 199 168 125 101 113 114 77 83 77 84 108 125 135 150 157 173 170 179 188 186 179 182 164 139 117 132 135 118 119 161 175 172 167 171 173 188 177 158 176 192 154 104 121 93 52 65 72 79 119 184 191 171 128 136 92 99 117 68 22 11 3 2 1 6 14 26 21 8 8 11 0 0 0 0 0 0 0 0 0 0 0 0 0 0 0 0 0 0 0 0 0 0 0 0 0 0 0 0 0 0 0 0 
0 0 0 0 0 0 0 0 0 0 0 0 7 6 6 0 1 11 11 23 22 65 154 160 98 83 167 197 144 124 135 117 132 103 70 59 50 58 73 87 105 144 144 148 170 172 166 169 154 125 126 155 166 139 115 111 120 126 121 100 86 116 101 88 144 182 141 86 110 78 61 75 86 102 143 149 170 147 175 174 125 145 152 45 23 8 4 0 0 6 14 25 20 6 7 12 0 0 0 0 0 0 0 0 0 0 0 0 0 0 0 0 0 0 0 0 0 0 0 0 0 0 0 0 0 0 0 0 
0 0 0 0 0 0 0 0 0 0 0 0 3 5 7 5 0 7 15 18 22 36 114 137 90 98 119 177 159 150 153 141 141 135 98 71 49 58 59 57 61 115 113 103 126 137 103 112 122 102 112 142 147 138 92 71 69 61 59 62 63 95 85 82 112 152 121 87 108 73 75 91 108 143 154 150 164 148 168 151 155 191 123 33 17 10 4 0 0 6 13 20 22 4 7 11 0 0 0 0 0 0 0 0 0 0 0 0 0 0 0 0 0 0 0 0 0 0 0 0 0 0 0 0 0 0 0 0 
0 0 0 0 0 0 0 0 0 0 0 0 5 6 6 6 6 6 15 14 19 28 75 105 109 91 110 144 142 117 126 130 132 150 123 105 90 80 64 52 77 164 140 115 109 141 123 88 85 75 101 102 94 122 119 85 71 71 64 53 61 97 82 82 108 134 108 115 188 105 90 104 117 117 149 170 164 146 133 58 78 93 45 25 7 11 3 0 0 6 16 25 27 6 7 11 0 0 0 0 0 0 0 0 0 0 0 0 0 0 0 0 0 0 0 0 0 0 0 0 0 0 0 0 0 0 0 0 
0 0 0 0 0 0 0 0 0 0 0 0 5 9 6 5 4 3 13 18 20 38 51 90 75 52 96 140 110 94 113 89 94 127 129 110 109 109 93 88 173 181 133 148 187 183 178 168 151 136 137 165 194 202 208 208 199 192 186 181 173 179 166 116 126 169 163 131 127 178 122 115 128 152 133 106 106 125 121 48 72 56 17 13 5 3 0 3 2 11 14 21 16 6 6 10 0 0 0 0 0 0 0 0 0 0 0 0 0 0 0 0 0 0 0 0 0 0 0 0 0 0 0 0 0 0 0 0 
0 0 0 0 0 0 0 0 0 0 0 0 2 7 3 1 2 3 7 18 31 28 26 63 85 62 88 73 72 81 123 114 67 93 89 108 148 192 213 185 174 148 158 155 208 139 135 172 165 155 169 176 177 170 175 199 207 183 156 148 160 153 151 181 164 237 171 182 136 217 205 154 73 42 33 62 78 123 130 87 70 17 3 5 7 9 0 0 0 3 9 21 10 5 5 10 0 0 0 0 0 0 0 0 0 0 0 0 0 0 0 0 0 0 0 0 0 0 0 0 0 0 0 0 0 0 0 0 
0 0 0 0 0 0 0 0 0 0 0 0 0 3 3 2 0 0 0 13 30 22 19 32 72 88 90 42 32 19 78 113 115 150 139 152 130 110 99 127 180 179 135 164 179 140 108 150 195 187 177 173 161 172 183 179 179 181 170 147 118 173 185 162 138 176 243 121 174 167 172 163 124 98 62 65 62 102 100 52 35 26 21 10 14 0 0 0 0 2 9 20 15 7 6 11 0 0 0 0 0 0 0 0 0 0 0 0 0 0 0 0 0 0 0 0 0 0 0 0 0 0 0 0 0 0 0 0 
0 0 0 0 0 0 0 0 0 0 0 0 0 1 7 6 6 1 0 4 11 13 15 19 32 49 35 23 31 37 57 67 73 95 97 142 99 67 60 53 90 104 123 186 192 153 182 186 170 154 171 170 168 153 165 172 157 149 162 154 138 151 106 56 53 127 83 40 39 48 54 82 79 58 41 78 70 80 43 29 33 27 14 2 1 0 2 4 6 9 14 18 12 8 10 11 0 0 0 0 0 0 0 0 0 0 0 0 0 0 0 0 0 0 0 0 0 0 0 0 0 0 0 0 0 0 0 0 
0 0 0 0 0 0 0 0 0 0 0 0 0 0 1 5 6 4 0 0 6 12 11 14 19 18 26 23 27 31 54 71 38 55 63 116 117 49 44 48 78 93 85 96 92 83 93 82 69 76 73 65 103 103 110 83 52 51 51 57 58 94 85 74 81 93 87 134 87 47 67 72 56 35 31 83 74 80 44 28 28 22 15 3 1 0 3 3 4 6 9 10 8 6 10 10 0 0 0 0 0 0 0 0 0 0 0 0 0 0 0 0 0 0 0 0 0 0 0 0 0 0 0 0 0 0 0 0 
0 0 0 0 0 0 0 0 0 0 0 0 0 0 0 0 1 3 0 0 2 7 8 17 19 20 32 36 37 39 58 80 49 55 47 94 129 101 128 157 152 112 91 87 99 97 73 78 86 75 71 77 100 118 107 83 67 59 54 61 64 98 83 59 184 227 102 156 181 49 67 33 20 19 42 98 98 108 64 26 19 16 13 7 2 0 0 0 0 0 1 3 3 3 8 9 0 0 0 0 0 0 0 0 0 0 0 0 0 0 0 0 0 0 0 0 0 0 0 0 0 0 0 0 0 0 0 0 
0 0 0 0 0 0 0 0 0 0 0 0 0 0 0 0 0 0 0 0 0 1 5 7 12 16 22 27 35 34 43 84 68 74 58 95 126 80 112 178 114 118 96 99 135 167 190 178 171 146 141 146 128 96 60 52 42 47 68 92 103 79 94 169 163 154 61 199 118 120 49 26 18 15 18 86 95 106 68 16 4 1 0 1 0 0 0 0 0 0 0 0 0 0 4 6 0 0 0 0 0 0 0 0 0 0 0 0 0 0 0 0 0 0 0 0 0 0 0 0 0 0 0 0 0 0 0 0 
0 0 0 0 0 0 0 0 0 0 0 0 0 0 0 0 0 0 0 0 0 0 0 1 4 9 11 21 37 40 32 50 33 42 51 76 114 94 101 149 139 84 112 178 186 120 94 147 88 109 144 133 133 104 75 64 60 72 102 133 124 124 125 108 181 77 91 69 148 80 56 20 18 22 44 126 124 110 69 8 1 0 0 0 0 0 0 0 0 0 0 6 2 0 5 4 0 0 0 0 0 0 0 0 0 0 0 0 0 0 0 0 0 0 0 0 0 0 0 0 0 0 0 0 0 0 0 0 
0 0 0 0 0 0 0 0 0 0 0 0 0 0 0 0 0 0 0 0 0 0 0 0 5 5 36 68 80 89 84 103 98 117 102 84 85 65 136 171 115 105 44 96 159 175 139 164 162 148 106 90 72 58 44 45 42 46 51 70 112 122 123 181 87 51 113 220 58 101 94 53 21 18 18 74 59 54 10 9 11 0 2 3 0 0 0 0 11 17 17 25 23 28 31 16 0 0 0 0 0 0 0 0 0 0 0 0 0 0 0 0 0 0 0 0 0 0 0 0 0 0 0 0 0 0 0 0 
0 0 0 0 0 0 0 0 0 0 0 0 0 0 0 0 0 0 0 0 0 0 1 4 8 11 12 17 21 25 27 52 59 60 60 87 81 60 34 31 32 47 70 93 116 114 63 112 142 127 101 70 54 55 60 50 51 66 86 93 113 155 163 148 224 224 220 123 122 117 162 123 51 33 34 92 81 64 21 15 15 7 0 0 0 0 0 0 0 2 7 16 14 16 22 14 0 0 0 0 0 0 0 0 0 0 0 0 0 0 0 0 0 0 0 0 0 0 0 0 0 0 0 0 0 0 0 0 
0 0 0 0 0 0 0 0 0 0 0 0 0 0 0 0 0 0 0 0 0 0 0 6 6 10 12 18 14 19 25 45 74 64 56 72 49 41 49 41 46 91 84 94 95 93 106 157 145 104 97 76 58 62 62 53 60 69 77 108 127 136 147 152 152 179 206 203 207 116 78 95 63 41 34 79 59 48 14 15 16 13 4 0 0 0 0 0 0 0 9 14 16 16 22 13 0 0 0 0 0 0 0 0 0 0 0 0 0 0 0 0 0 0 0 0 0 0 0 0 0 0 0 0 0 0 0 0 
0 0 0 0 0 0 0 0 0 0 0 0 0 0 0 0 0 0 0 0 0 0 0 3 5 10 12 17 16 19 24 45 77 68 57 58 35 33 38 48 74 101 57 65 107 98 104 140 143 92 108 110 95 91 72 61 86 87 108 133 136 138 141 126 104 111 137 174 150 71 40 67 72 46 40 78 48 25 12 13 17 13 1 0 0 0 0 0 0 0 7 13 17 16 24 13 0 0 0 0 0 0 0 0 0 0 0 0 0 0 0 0 0 0 0 0 0 0 0 0 0 0 0 0 0 0 0 0 
0 0 0 0 0 0 0 0 0 0 0 0 0 0 0 0 0 0 0 0 0 0 0 0 6 4 13 15 15 22 22 46 75 72 66 57 35 36 50 98 114 94 66 64 110 97 83 123 132 87 110 116 113 125 104 90 103 107 118 131 119 133 132 115 104 97 91 116 146 137 58 43 80 59 40 79 54 18 12 13 16 11 1 0 0 0 0 0 0 0 7 13 17 17 24 12 0 0 0 0 0 0 0 0 0 0 0 0 0 0 0 0 0 0 0 0 0 0 0 0 0 0 0 0 0 0 0 0 
0 0 0 0 0 0 0 0 0 0 0 0 0 0 0 0 0 0 0 0 0 0 0 0 0 4 9 13 14 25 21 47 76 80 82 55 34 58 110 114 79 69 69 65 128 115 66 100 119 94 115 115 118 136 128 110 104 117 110 113 129 137 90 63 101 124 72 89 111 145 134 64 72 73 45 81 62 18 13 14 15 8 0 0 0 0 0 0 0 0 9 14 17 19 27 12 0 0 0 0 0 0 0 0 0 0 0 0 0 0 0 0 0 0 0 0 0 0 0 0 0 0 0 0 0 0 0 0 
0 0 0 0 0 0 0 0 0 0 0 0 0 0 0 0 0 0 0 0 0 0 0 0 0 0 9 8 14 20 26 40 82 84 89 53 40 92 110 80 58 45 52 69 131 128 70 88 101 95 117 108 116 121 134 110 93 114 109 91 114 119 73 53 89 144 76 63 71 75 127 123 73 91 62 87 60 17 13 15 14 6 0 0 0 0 0 0 0 0 6 14 18 20 28 12 0 0 0 0 0 0 0 0 0 0 0 0 0 0 0 0 0 0 0 0 0 0 0 0 0 0 0 0 0 0 0 0 
0 0 0 0 0 0 0 0 0 0 0 0 0 0 0 0 0 0 0 0 0 0 0 0 0 0 0 10 10 16 25 31 80 101 83 39 53 129 103 49 38 37 50 64 122 111 76 87 82 88 101 92 93 94 110 108 87 62 76 95 99 91 63 51 77 132 80 56 49 42 84 154 91 85 91 90 36 15 18 18 17 8 0 0 0 0 0 0 0 0 3 13 19 23 31 12 0 0 0 0 0 0 0 0 0 0 0 0 0 0 0 0 0 0 0 0 0 0 0 0 0 0 0 0 0 0 0 0 
0 0 0 0 0 0 0 0 0 0 0 0 0 0 0 0 0 0 0 0 0 0 0 0 0 0 0 4 16 15 22 28 49 85 38 24 52 139 108 40 41 41 55 82 130 95 73 80 72 84 90 84 79 80 84 85 71 60 68 83 83 74 57 50 63 106 109 65 51 36 69 167 97 45 68 40 22 15 18 20 19 10 0 0 0 0 0 0 0 0 3 9 17 22 30 12 0 0 0 0 0 0 0 0 0 0 0 0 0 0 0 0 0 0 0 0 0 0 0 0 0 0 0 0 0 0 0 0 
0 0 0 0 0 0 0 0 0 0 0 0 0 0 0 0 0 0 0 0 0 0 0 0 0 0 0 1 11 17 19 22 22 44 19 19 44 131 135 57 40 36 55 85 106 78 77 81 73 83 90 81 77 78 80 77 67 62 72 83 86 70 61 50 62 86 115 70 48 37 80 170 93 23 22 24 18 13 18 20 16 10 0 0 0 0 0 0 0 0 2 10 16 21 29 12 0 0 0 0 0 0 0 0 0 0 0 0 0 0 0 0 0 0 0 0 0 0 0 0 0 0 0 0 0 0 0 0 
0 0 0 0 0 0 0 0 0 0 0 0 0 0 0 0 0 0 0 0 0 0 0 0 0 0 0 0 10 13 18 22 17 47 19 17 29 97 154 77 45 45 61 79 73 72 77 80 86 82 83 78 74 86 75 68 62 54 69 83 88 69 78 79 85 74 82 79 46 46 104 175 82 21 23 24 15 15 18 22 16 7 0 0 0 0 0 0 0 0 1 8 17 20 28 11 0 0 0 0 0 0 0 0 0 0 0 0 0 0 0 0 0 0 0 0 0 0 0 0 0 0 0 0 0 0 0 0 
0 0 0 0 0 0 0 0 0 0 0 0 0 0 0 0 0 0 0 0 0 0 0 0 0 0 0 0 6 9 14 21 17 38 21 13 15 49 153 120 58 47 89 87 60 64 69 66 79 96 83 78 75 73 61 64 71 53 63 81 88 74 90 85 80 69 84 97 86 72 130 171 55 23 22 21 13 17 18 18 13 7 0 0 0 0 0 0 0 0 1 8 15 20 29 11 0 0 0 0 0 0 0 0 0 0 0 0 0 0 0 0 0 0 0 0 0 0 0 0 0 0 0 0 0 0 0 0 
0 0 0 0 0 0 0 0 0 0 0 0 0 0 0 0 0 0 0 0 0 0 0 0 0 0 0 0 1 11 9 17 19 35 15 12 15 20 102 166 118 126 131 85 64 58 54 46 56 101 90 83 78 74 67 77 79 81 80 89 86 79 81 67 65 62 74 100 138 146 183 133 26 19 21 17 13 14 17 13 11 7 0 0 0 0 0 0 0 0 1 8 14 19 29 11 0 0 0 0 0 0 0 0 0 0 0 0 0 0 0 0 0 0 0 0 0 0 0 0 0 0 0 0 0 0 0 0 
0 0 0 0 0 0 0 0 0 0 0 0 0 0 0 0 0 0 0 0 0 0 0 0 0 0 0 0 0 6 9 11 18 37 16 10 19 18 29 124 181 180 151 78 55 60 67 63 84 117 101 91 78 85 89 90 90 94 103 96 102 103 88 54 47 50 58 96 169 191 156 44 20 22 21 18 7 10 10 10 10 6 0 0 0 0 0 0 0 0 1 7 16 22 29 11 0 0 0 0 0 0 0 0 0 0 0 0 0 0 0 0 0 0 0 0 0 0 0 0 0 0 0 0 0 0 0 0 
0 0 0 0 0 0 0 0 0 0 0 0 0 0 0 0 0 0 0 0 0 0 0 0 0 0 0 0 0 3 9 7 17 38 18 12 20 25 21 25 63 110 101 48 38 65 62 60 80 103 107 89 71 70 74 79 81 78 81 91 98 116 111 61 44 38 47 73 111 82 33 25 25 25 24 19 8 9 7 10 8 5 0 0 0 0 0 0 0 0 1 8 15 20 27 10 0 0 0 0 0 0 0 0 0 0 0 0 0 0 0 0 0 0 0 0 0 0 0 0 0 0 0 0 0 0 0 0 
0 0 0 0 0 0 0 0 0 0 0 0 0 0 0 0 0 0 0 0 0 0 0 0 0 0 0 0 0 3 9 9 9 41 16 16 19 24 22 27 28 30 34 29 30 30 35 38 60 100 112 93 77 68 67 71 72 83 92 78 91 117 117 66 49 45 42 50 45 39 31 25 27 27 20 17 11 7 7 9 8 4 0 0 0 0 0 0 0 0 2 9 17 22 28 11 0 0 0 0 0 0 0 0 0 0 0 0 0 0 0 0 0 0 0 0 0 0 0 0 0 0 0 0 0 0 0 0 
0 0 0 0 0 0 0 0 0 0 0 0 0 0 0 0 0 0 0 0 0 0 0 0 0 0 0 0 0 3 4 14 7 34 17 16 21 23 19 23 26 32 36 29 35 44 42 40 52 87 109 99 95 91 89 85 87 89 94 95 99 114 106 65 51 36 41 44 39 36 32 31 26 24 14 14 17 10 8 8 8 3 0 0 0 0 0 0 0 0 0 3 13 21 28 10 0 0 0 0 0 0 0 0 0 0 0 0 0 0 0 0 0 0 0 0 0 0 0 0 0 0 0 0 0 0 0 0 
