P2
128 99
210
0 0 0 0 0 0 0 0 0 0 0 0 0 0 0 0 0 0 0 0 0 0 0 0 0 0 0 0 0 0 0 0 0 0 0 1 4 4 2 0 0 1 0 0 0 0 0 0 0 0 0 0 0 0 0 0 0 0 0 0 0 0 0 0 0 0 0 0 0 0 0 0 0 0 0 0 0 0 0 0 0 0 0 0 1 0 0 0 2 3 3 1 0 0 0 0 0 0 0 0 0 0 0 0 0 0 0 0 0 0 0 0 0 0 0 0 0 0 0 0 0 0 0 0 0 0 0 0 
0 0 0 0 0 0 0 0 0 0 0 0 0 0 0 0 0 0 0 0 0 0 0 0 0 0 0 0 0 0 0 0 0 0 0 1 4 4 3 0 0 1 1 0 0 0 0 0 0 0 0 0 0 0 0 0 0 0 0 0 0 0 0 0 0 0 0 0 0 0 0 0 0 0 0 0 0 0 0 0 0 0 0 0 1 1 0 0 2 4 3 1 0 0 0 0 0 0 0 0 0 0 0 0 0 0 0 0 0 0 0 0 0 0 0 0 0 0 0 0 0 0 0 0 0 0 0 0 
0 0 0 0 0 0 0 0 0 0 0 0 0 0 0 0 0 0 0 0 0 0 0 0 0 0 0 0 0 0 0 0 0 0 0 1 4 4 2 0 1 1 1 0 0 0 0 0 0 0 0 2 2 2 0 0 0 0 0 0 0 0 0 0 0 0 0 0 0 0 0 0 0 0 0 0 0 0 0 0 0 0 0 0 1 1 0 0 2 3 3 1 0 0 0 0 0 0 0 0 0 0 0 0 0 0 0 0 0 0 0 0 0 0 0 0 0 0 0 0 0 0 0 0 0 0 0 0 
0 0 0 0 0 0 0 0 0 0 0 0 0 0 0 0 0 0 0 0 0 0 0 0 0 0 0 0 0 0 0 0 0 0 0 1 3 4 2 0 0 1 1 1 5 14 16 19 18 19 21 24 26 27 26 22 19 15 15 11 3 0 0 0 0 0 0 0 0 0 0 0 0 0 0 0 0 0 0 0 0 0 0 0 1 1 0 0 2 3 2 1 0 0 0 0 0 0 0 0 0 0 0 0 0 0 0 0 0 0 0 0 0 0 0 0 0 0 0 0 0 0 0 0 0 0 0 0 
0 0 0 0 0 0 0 0 0 0 0 0 0 0 0 0 0 0 0 0 0 0 0 0 0 0 0 0 0 0 0 0 0 0 0 0 2 3 2 0 6 13 19 24 23 34 52 77 98 115 128 136 140 142 140 133 119 101 78 52 33 21 17 9 1 0 0 0 0 0 0 0 0 0 0 0 0 0 0 0 0 0 0 0 1 1 0 0 2 3 2 1 0 0 0 0 0 0 0 0 0 0 0 0 0 0 0 0 0 0 0 0 0 0 0 0 0 0 0 0 0 0 0 0 0 0 0 0 
0 0 0 0 0 0 0 0 0 0 0 0 0 0 0 0 0 0 0 0 0 0 0 0 0 0 0 0 0 0 0 0 0 0 0 0 1 3 12 14 24 27 36 66 107 140 159 168 172 177 179 179 179 178 180 181 178 172 165 154 138 113 77 41 22 16 11 1 0 0 0 0 0 0 0 0 0 0 0 0 0 0 0 0 1 1 0 0 2 3 3 1 0 0 0 0 0 0 0 0 0 0 0 0 0 0 0 0 0 0 0 0 0 0 0 0 0 0 0 0 0 0 0 0 0 0 0 0 
0 0 0 0 0 0 0 0 0 0 0 0 0 0 0 0 0 0 0 0 0 0 0 0 0 0 0 0 0 0 0 0 0 0 0 0 11 22 27 27 51 101 143 167 175 177 182 187 188 187 186 184 183 183 183 182 183 181 182 182 180 171 159 142 117 76 37 18 14 1 0 0 0 0 0 0 0 0 0 0 0 0 0 0 1 1 0 0 2 4 3 1 0 0 0 0 0 0 0 0 0 0 0 0 0 0 0 0 0 0 0 0 0 0 0 0 0 0 0 0 0 0 0 0 0 0 0 0 
0 0 0 0 0 0 0 0 0 0 0 0 0 0 0 0 0 0 0 0 0 0 0 0 0 0 0 0 0 0 0 0 0 0 9 25 28 29 61 119 158 172 175 181 187 191 183 172 168 167 168 175 174 162 161 175 189 192 188 183 180 179 183 181 173 158 138 99 47 21 14 1 0 0 0 0 0 0 0 0 0 0 0 0 1 1 0 0 3 4 3 1 0 0 0 0 0 0 0 0 0 0 0 0 0 0 0 0 0 0 0 0 0 0 0 0 0 0 0 0 0 0 0 0 0 0 0 0 
0 0 0 0 0 0 0 0 0 0 0 0 0 0 0 0 0 0 0 0 0 0 0 0 0 0 0 0 0 0 0 0 6 27 25 23 57 123 161 172 172 180 186 185 179 172 168 162 154 151 154 160 160 157 159 160 158 169 186 192 191 188 183 179 182 185 180 166 145 101 45 23 10 0 0 0 0 0 0 0 0 0 0 0 1 1 0 1 3 3 3 1 0 0 0 0 0 0 0 0 0 0 0 0 0 0 0 0 0 0 0 0 0 0 0 0 0 0 0 0 0 0 0 0 0 0 0 0 
0 0 0 0 0 0 0 0 0 0 0 0 0 0 0 0 0 0 0 0 0 0 0 0 0 0 0 0 0 0 1 24 25 23 39 107 159 173 172 178 183 184 180 168 157 151 146 142 146 146 146 148 145 141 144 149 161 170 177 187 197 197 193 189 187 181 181 186 181 165 139 76 30 18 2 0 0 0 0 0 0 0 0 0 1 1 0 0 3 4 3 1 0 0 0 0 0 0 0 0 0 0 0 0 0 0 0 0 0 0 0 0 0 0 0 0 0 0 0 0 0 0 0 0 0 0 0 0 
0 0 0 0 0 0 0 0 0 0 0 0 0 0 0 0 0 0 0 0 0 0 0 0 0 0 0 0 0 11 27 23 26 82 150 170 170 178 184 184 187 177 156 153 159 161 160 150 135 121 118 123 122 120 129 131 133 141 146 154 176 198 207 204 197 191 187 181 179 186 179 161 114 44 22 5 0 0 0 0 0 0 0 0 1 1 0 0 3 4 3 1 0 0 0 0 0 0 0 0 0 0 0 0 0 0 0 0 0 0 0 0 0 0 0 0 0 0 0 0 0 0 0 0 0 0 0 0 
0 0 0 0 0 0 0 0 0 0 0 0 0 0 0 0 0 0 0 0 0 0 0 0 0 0 0 0 22 23 18 50 128 166 169 174 186 188 190 186 167 165 173 166 151 140 137 134 138 144 142 138 136 140 146 147 139 133 141 147 151 156 169 188 205 210 202 190 185 181 181 186 172 141 66 22 10 0 0 0 0 0 0 0 1 1 0 0 3 4 3 1 0 0 0 0 0 0 0 0 0 0 0 0 0 0 0 0 0 0 0 0 0 0 0 0 0 0 0 0 0 0 0 0 0 0 0 0 
0 0 0 0 0 0 0 0 0 0 0 0 0 0 0 0 0 0 0 0 0 0 0 0 0 0 5 26 17 22 75 150 168 171 182 188 190 190 179 175 175 162 139 132 129 134 133 127 130 127 115 112 107 100 115 127 126 124 125 131 142 159 162 165 171 185 204 210 201 191 184 180 185 176 151 82 25 12 0 0 0 0 0 0 1 1 0 1 3 4 3 1 0 0 0 0 0 0 0 0 0 0 0 0 0 0 0 0 0 0 0 0 0 0 0 0 0 0 0 0 0 0 0 0 0 0 0 0 
0 0 0 0 0 0 0 0 0 0 0 0 0 0 0 0 0 0 0 0 0 0 0 0 0 10 26 16 27 96 158 170 179 188 188 193 188 180 178 161 145 140 145 144 145 142 136 130 121 115 101 103 105 110 118 133 143 143 138 133 129 133 151 159 165 170 174 186 203 209 198 189 181 180 178 154 91 27 13 0 0 0 0 0 1 1 0 1 3 4 3 1 0 0 0 0 0 0 0 0 0 0 0 0 0 0 0 0 0 0 0 0 0 0 0 0 0 0 0 0 0 0 0 0 0 0 0 0 
0 0 0 0 0 0 0 0 0 0 0 0 0 0 0 0 0 0 0 0 0 0 0 0 14 23 15 33 113 161 170 182 189 191 188 181 180 165 150 145 149 153 152 150 144 133 123 123 129 129 131 134 137 137 136 136 147 154 151 148 146 141 140 146 148 156 162 166 169 188 206 203 192 183 177 179 160 102 30 14 0 0 0 0 1 1 0 1 3 5 4 1 0 0 0 0 0 0 0 0 0 0 0 0 0 0 0 0 0 0 0 0 0 0 0 0 0 0 0 0 0 0 0 0 0 0 0 0 
0 0 0 0 0 0 0 0 0 0 0 0 0 0 0 0 0 0 0 0 0 0 3 20 20 13 46 124 157 169 186 188 188 179 174 171 149 148 155 156 156 146 134 129 129 123 125 132 136 141 140 133 128 133 135 135 135 143 151 158 161 157 152 151 154 150 147 149 157 160 172 199 203 193 182 176 179 163 113 36 14 0 0 0 1 1 1 1 4 4 3 1 0 0 0 0 0 0 0 0 0 0 0 0 0 0 0 0 0 0 0 0 0 0 0 0 0 0 0 0 0 0 0 0 0 0 0 0 
0 0 0 0 0 0 0 0 0 0 0 0 0 0 0 0 0 0 0 0 0 4 17 16 14 58 132 157 172 191 188 187 170 166 158 147 155 160 157 151 143 136 139 145 137 131 131 123 126 125 116 104 101 109 111 115 113 111 112 122 129 136 146 159 163 158 156 149 148 155 157 164 189 198 195 182 177 179 161 118 39 9 0 1 1 1 0 0 3 4 3 1 0 0 0 0 0 0 0 0 0 0 0 0 0 0 0 0 0 0 0 0 0 0 0 0 0 0 0 0 0 0 0 0 0 0 0 0 
0 0 0 0 0 0 0 0 0 0 0 0 0 0 0 0 0 0 0 0 7 15 14 16 71 140 158 175 193 188 184 161 155 155 153 161 154 141 140 142 148 144 130 123 123 122 116 115 118 116 107 100 100 110 116 118 118 111 106 108 109 114 119 127 143 155 159 153 148 146 150 152 152 176 189 193 182 177 177 163 123 36 6 1 1 1 0 1 3 4 3 1 0 0 0 0 0 0 0 0 0 0 0 0 0 0 0 0 0 0 0 0 0 0 0 0 0 0 0 0 0 0 0 0 0 0 0 0 
0 0 0 0 0 0 0 0 0 0 0 0 0 0 0 0 0 0 0 6 14 12 18 79 143 159 173 190 186 180 157 150 154 155 161 145 130 132 141 134 126 119 120 122 124 120 113 117 111 103 108 111 117 122 121 125 127 124 121 118 115 112 110 112 114 123 136 150 150 150 137 135 141 148 174 183 192 182 181 175 164 116 29 3 1 1 0 1 3 5 4 1 0 0 0 0 0 0 0 0 0 0 0 0 0 0 0 0 0 0 0 0 0 0 0 0 0 0 0 0 0 0 0 0 0 0 0 0 
0 0 0 0 0 0 0 0 0 0 0 0 0 0 0 0 0 0 5 14 14 19 82 144 157 174 186 185 177 152 151 154 156 159 138 122 129 138 128 119 120 125 127 124 113 106 107 111 109 110 109 105 112 121 116 117 119 124 130 132 129 125 120 113 107 108 118 128 148 148 143 135 134 134 148 169 174 192 184 184 170 160 101 20 3 1 0 1 4 5 3 1 0 0 0 0 0 0 0 0 0 0 0 0 0 0 0 0 0 0 0 0 0 0 0 0 0 0 0 0 0 0 0 0 0 0 0 0 
0 0 0 0 0 0 0 0 0 0 0 0 0 0 0 0 0 3 15 13 18 76 140 151 171 182 190 176 150 150 155 156 151 132 121 125 137 132 125 126 127 121 109 102 102 103 106 109 113 110 97 93 95 111 112 110 110 110 114 119 130 129 127 119 115 110 109 122 135 144 139 141 137 133 135 151 167 169 192 186 178 164 148 79 13 1 0 1 3 5 3 1 0 0 0 0 0 0 0 0 0 0 0 0 0 0 0 0 0 0 0 0 0 0 0 0 0 0 0 0 0 0 0 0 0 0 0 0 
0 0 0 0 0 0 0 0 0 0 0 0 0 0 0 0 0 11 10 18 71 134 147 162 175 186 174 145 145 156 152 146 127 118 119 136 133 127 124 117 108 97 97 101 104 107 108 107 106 92 88 88 86 90 104 105 103 102 103 105 111 115 125 128 123 118 112 113 124 137 140 128 132 137 136 134 155 160 171 192 188 173 161 134 54 5 0 1 3 4 3 1 0 0 0 0 0 0 0 0 0 0 0 0 0 0 0 0 0 0 0 0 0 0 0 0 0 0 0 0 0 0 0 0 0 0 0 0 
0 0 0 0 0 0 0 0 0 0 0 0 0 0 0 0 6 12 13 61 126 142 156 175 183 176 145 141 155 147 142 127 109 119 136 137 131 125 118 103 94 99 101 102 98 91 89 89 88 85 83 83 83 83 86 86 92 93 89 83 86 95 102 110 114 116 115 113 113 125 134 125 124 132 136 133 134 158 148 178 192 184 168 153 111 27 2 1 4 5 4 1 0 0 0 0 0 0 0 0 0 0 0 0 0 0 0 0 0 0 0 0 0 0 0 0 0 0 0 0 0 0 0 0 0 0 0 0 
0 0 0 0 0 0 0 0 0 0 0 0 0 0 0 1 12 11 49 115 140 146 171 178 182 151 134 156 147 142 127 110 116 136 139 131 125 112 99 93 97 98 93 89 87 86 85 86 87 85 82 82 83 83 83 84 85 84 85 85 86 87 88 92 95 103 109 110 113 114 126 132 115 122 130 137 133 139 154 148 183 194 171 162 141 76 7 1 4 5 3 1 0 0 0 0 0 0 0 0 0 0 0 0 0 0 0 0 0 0 0 0 0 0 0 0 0 0 0 0 0 0 0 0 0 0 0 0 
0 0 0 0 0 0 0 0 0 0 0 0 0 0 0 7 9 25 100 126 140 161 175 181 157 130 146 153 138 131 116 113 125 139 135 124 114 95 89 85 89 92 91 88 86 86 86 86 88 88 86 87 88 86 87 89 90 91 90 91 90 86 88 89 90 92 99 106 112 113 118 132 126 110 122 133 136 132 148 140 158 190 182 167 153 116 30 2 4 5 3 1 0 0 0 0 0 0 0 0 0 0 0 0 0 0 0 0 0 0 0 0 0 0 0 0 0 0 0 0 0 0 0 0 0 0 0 0 
0 0 0 0 0 0 0 0 0 0 0 0 0 0 1 9 11 74 123 138 152 167 170 167 132 129 158 138 129 123 118 117 130 137 129 111 96 87 84 87 90 91 93 92 90 90 91 92 91 92 92 94 96 98 98 96 94 97 97 96 91 93 92 91 88 89 90 98 107 110 112 125 132 118 112 127 137 129 138 136 137 169 188 168 156 135 64 5 3 4 3 1 0 0 0 0 0 0 0 0 0 0 0 0 0 0 0 0 0 0 0 0 0 0 0 0 0 0 0 0 0 0 0 0 0 0 0 0 
0 0 0 0 0 0 0 0 0 0 0 0 0 0 6 8 35 110 130 144 164 169 167 142 125 144 143 124 125 124 116 124 133 128 110 93 84 82 90 93 93 97 97 98 97 97 102 104 101 99 104 109 113 114 109 107 103 102 101 99 93 95 98 93 86 84 85 93 100 106 106 120 127 131 115 120 136 124 128 136 123 143 180 173 161 146 102 17 3 4 3 0 0 0 0 0 0 0 0 0 0 0 0 0 0 0 0 0 0 0 0 0 0 0 0 0 0 0 0 0 0 0 0 0 0 0 0 0 
0 0 0 0 0 0 0 0 0 0 0 0 0 0 8 15 78 117 136 155 168 165 153 124 135 149 122 121 123 118 122 130 123 115 96 89 90 96 98 99 101 104 104 105 103 106 110 108 109 112 123 130 134 133 121 118 117 111 106 99 96 96 95 100 96 87 83 89 95 102 107 118 121 128 131 122 131 131 114 137 126 141 167 176 164 148 123 36 5 4 3 1 0 0 0 0 0 0 0 0 0 0 0 0 0 0 0 0 0 0 0 0 0 0 0 0 0 0 0 0 0 0 0 0 0 0 0 0 
0 0 0 0 0 0 0 0 0 0 0 0 0 3 7 35 107 125 143 164 166 154 140 121 139 137 118 123 119 119 135 127 111 99 92 95 102 106 102 104 107 103 100 98 99 105 115 123 128 128 131 139 141 128 116 121 128 125 120 113 106 103 99 100 106 97 85 87 92 96 104 111 118 122 132 133 126 136 109 124 126 139 158 173 166 152 132 57 6 5 4 2 0 0 0 0 0 0 0 0 0 0 0 0 0 0 0 0 0 0 0 0 0 0 0 0 0 0 0 0 0 0 0 0 0 0 0 0 
0 0 0 0 0 0 0 0 0 0 0 0 0 5 9 67 118 130 151 164 155 141 135 133 136 124 114 122 112 134 138 117 99 96 96 106 116 110 106 105 103 99 97 104 114 124 129 128 120 113 104 102 121 100 91 92 95 107 120 129 128 122 113 105 109 107 94 87 91 96 98 109 117 115 124 140 128 133 114 112 119 139 151 169 170 154 140 79 10 5 4 2 0 0 0 0 0 0 0 0 0 0 0 0 0 0 0 0 0 0 0 0 0 0 0 0 0 0 0 0 0 0 0 0 0 0 0 0 
0 0 0 0 0 0 0 0 0 0 0 0 0 6 16 90 119 137 159 156 139 130 133 134 120 117 112 119 113 140 129 104 93 100 111 120 118 108 102 102 104 110 119 127 129 123 106 101 93 88 87 86 98 85 83 84 85 84 89 95 111 129 132 125 116 113 107 92 85 92 95 107 117 115 117 135 127 124 121 110 113 135 144 163 170 149 141 97 13 5 4 2 0 0 0 0 0 0 0 0 0 0 0 0 0 0 0 0 0 0 0 0 0 0 0 0 0 0 0 0 0 0 0 0 0 0 0 0 
0 0 0 0 0 0 0 0 0 0 0 0 1 6 31 105 122 145 155 140 130 127 143 129 115 109 111 118 117 133 109 90 100 116 123 121 112 104 102 106 118 132 137 133 116 90 84 84 84 85 87 80 85 80 81 85 84 85 84 84 88 100 121 133 132 125 118 100 87 88 96 108 118 115 111 124 115 121 120 108 105 128 148 160 173 158 148 110 20 5 4 2 0 0 0 0 0 0 0 0 0 0 0 0 0 0 0 0 0 0 0 0 0 0 0 0 0 0 0 0 0 0 0 0 0 0 0 0 
0 0 0 0 0 0 0 0 0 0 0 0 1 6 47 112 126 153 143 133 121 125 142 119 113 106 117 120 119 123 92 95 117 129 122 112 106 102 106 123 135 136 122 103 91 80 79 80 84 85 83 80 80 82 84 85 85 85 85 88 93 95 105 129 140 136 119 110 105 93 91 102 120 119 111 117 102 114 116 113 100 121 147 155 174 164 148 120 29 7 4 1 0 0 0 0 0 0 0 0 0 0 0 0 0 0 0 0 0 0 0 0 0 0 0 0 0 0 0 0 0 0 0 0 0 0 0 0 
0 0 0 0 0 0 0 0 0 0 0 0 3 7 59 118 133 157 139 132 118 129 142 115 113 103 116 116 112 107 89 111 129 132 118 104 101 105 121 135 136 127 101 90 92 82 79 81 82 87 89 90 89 88 87 90 90 88 85 92 89 85 89 93 117 131 128 120 125 109 93 98 117 124 112 114 95 98 113 120 100 124 151 158 172 169 148 130 40 7 4 1 0 0 0 0 0 0 0 0 0 0 0 0 0 0 0 0 0 0 0 0 0 0 0 0 0 0 0 0 0 0 0 0 0 0 0 0 
0 0 0 0 0 0 0 0 0 0 0 0 3 7 68 120 139 154 139 134 120 135 138 116 111 104 118 114 97 95 97 122 134 128 109 99 99 119 136 141 139 123 96 87 88 90 85 84 86 89 94 96 95 95 97 99 98 92 90 96 86 82 83 86 100 124 125 139 143 121 99 97 111 124 119 109 97 96 110 119 102 129 151 158 171 173 153 138 52 7 5 2 0 0 0 0 0 0 0 0 0 0 0 0 0 0 0 0 0 0 0 0 0 0 0 0 0 0 0 0 0 0 0 0 0 0 0 0 
0 0 0 0 0 0 0 0 0 0 0 0 4 9 77 123 146 153 142 137 123 138 138 120 110 107 118 110 84 92 109 128 130 119 105 105 113 128 137 140 139 131 112 99 86 86 95 95 90 95 100 102 102 102 104 106 104 97 96 101 88 86 84 85 103 111 125 153 157 142 117 104 106 118 131 125 99 98 108 118 107 128 149 158 173 176 157 145 63 7 4 1 0 0 0 0 0 0 0 0 0 0 0 0 0 0 0 0 0 0 0 0 0 0 0 0 0 0 0 0 0 0 0 0 0 0 0 0 
0 0 0 0 0 0 0 0 0 0 0 0 3 10 84 126 151 156 144 137 130 138 135 113 108 111 116 104 75 96 118 129 125 120 122 132 136 127 116 110 103 101 104 106 101 86 90 98 97 103 109 105 107 107 109 116 113 102 101 96 87 87 97 110 105 101 107 122 139 142 131 113 107 112 126 137 113 102 107 116 118 122 146 152 169 179 161 148 80 9 4 2 0 0 0 0 0 0 0 0 0 0 0 0 0 0 0 0 0 0 0 0 0 0 0 0 0 0 0 0 0 0 0 0 0 0 0 0 
0 0 0 0 0 0 0 0 0 0 0 0 3 11 86 129 152 154 142 138 134 141 136 112 108 118 115 97 70 100 124 130 134 142 143 144 132 110 103 110 109 104 100 94 93 99 94 90 95 103 113 110 111 112 112 112 106 102 97 85 88 103 105 102 91 79 87 92 104 110 100 89 88 100 124 143 133 109 111 118 127 125 142 146 163 179 164 147 91 12 5 2 0 0 0 0 0 0 0 0 0 0 0 0 0 0 0 0 0 0 0 0 0 0 0 0 0 0 0 0 0 0 0 0 0 0 0 0 
0 0 0 0 0 0 0 0 0 0 0 0 5 12 90 134 155 149 145 142 135 141 141 123 120 129 118 97 78 104 118 132 143 145 128 101 91 89 90 94 93 98 106 104 95 92 102 98 88 91 101 110 109 111 114 103 99 90 87 88 109 104 91 80 72 78 85 93 104 110 98 79 71 91 126 151 142 122 117 123 129 124 135 139 148 176 168 149 102 15 5 2 0 0 0 0 0 0 0 0 0 0 0 0 0 0 0 0 0 0 0 0 0 0 0 0 0 0 0 0 0 0 0 0 0 0 0 0 
0 0 0 0 0 0 0 0 0 0 0 0 6 14 91 139 156 156 145 136 136 138 137 124 124 137 125 102 89 104 119 131 131 116 93 86 83 85 94 97 98 93 90 94 103 102 94 104 89 89 98 106 110 112 111 102 94 84 83 109 106 91 84 80 89 93 96 103 113 119 111 91 81 92 130 151 147 128 123 122 127 123 129 132 141 172 170 152 113 22 5 2 0 0 0 0 0 0 0 0 0 0 0 0 0 0 0 0 0 0 0 0 0 0 0 0 0 0 0 0 0 0 0 0 0 0 0 0 
0 0 0 0 0 0 0 0 0 0 0 0 6 14 92 141 155 154 141 130 132 135 129 119 118 136 131 111 114 107 122 126 118 100 87 81 81 91 98 101 102 101 96 90 91 101 103 104 101 93 101 110 113 112 110 97 87 79 91 113 92 86 84 87 93 89 91 101 112 120 117 99 89 101 126 148 143 133 126 115 125 117 127 123 134 162 170 153 123 29 5 2 0 0 0 0 0 0 0 0 0 0 0 0 0 0 0 0 0 0 0 0 0 0 0 0 0 0 0 0 0 0 0 0 0 0 0 0 
0 0 0 0 0 0 0 0 0 0 0 0 7 15 96 145 155 153 131 128 128 133 127 112 116 128 125 112 121 119 131 132 121 105 97 96 97 96 93 95 96 99 98 95 91 93 109 116 115 100 107 114 116 114 106 97 84 78 98 106 85 87 86 86 88 94 98 108 120 128 123 104 94 97 114 141 136 131 123 114 117 113 124 109 126 151 165 153 129 38 6 2 0 0 0 0 0 0 0 0 0 0 0 0 0 0 0 0 0 0 0 0 0 0 0 0 0 0 0 0 0 0 0 0 0 0 0 0 
0 0 0 0 0 0 0 0 0 0 0 0 8 16 95 146 156 155 132 127 125 126 125 106 112 117 123 108 114 116 129 145 137 123 113 106 102 97 92 90 90 91 91 97 98 100 105 113 107 88 100 112 112 113 110 109 98 77 92 90 87 85 91 100 101 102 102 105 114 120 115 104 92 91 107 136 133 124 122 119 110 109 119 106 117 144 168 153 132 46 6 2 0 0 0 0 0 0 0 0 0 0 0 0 0 0 0 0 0 0 0 0 0 0 0 0 0 0 0 0 0 0 0 0 0 0 0 0 
0 0 0 0 0 0 0 0 0 0 0 0 7 18 98 147 159 151 129 120 126 120 122 102 107 116 121 108 103 108 122 139 122 108 106 106 106 105 98 93 95 92 90 95 101 104 99 98 103 83 94 96 99 124 123 103 98 86 83 85 85 91 104 104 102 105 101 101 108 113 109 99 95 93 108 136 137 117 124 126 103 105 117 101 110 132 161 153 134 54 8 3 0 0 0 0 0 0 0 0 0 0 0 0 0 0 0 0 0 0 0 0 0 0 0 0 0 0 0 0 0 0 0 0 0 0 0 0 
0 0 0 0 0 0 0 0 0 0 0 0 8 17 98 148 158 145 121 114 117 113 117 95 99 112 118 114 104 107 118 130 108 101 95 95 93 94 100 106 105 103 101 98 93 92 88 84 92 84 97 103 108 104 101 106 96 90 92 81 93 103 99 89 88 102 105 105 109 112 105 95 90 95 109 141 137 117 123 131 109 101 114 96 103 117 147 152 136 59 7 3 0 0 0 0 0 0 0 0 0 0 0 0 0 0 0 0 0 0 0 0 0 0 0 0 0 0 0 0 0 0 0 0 0 0 0 0 
0 0 0 0 0 0 0 0 0 0 0 0 8 18 95 149 158 146 121 107 106 108 114 85 89 112 109 110 111 104 108 126 109 101 92 88 92 90 95 101 103 101 100 98 89 81 79 78 86 91 109 117 106 96 102 88 104 88 90 93 98 95 95 87 89 103 103 108 111 109 100 88 86 96 112 142 134 112 121 135 119 106 119 100 104 110 135 147 137 63 8 3 0 0 0 0 0 0 0 0 0 0 0 0 0 0 0 0 0 0 0 0 0 0 0 0 0 0 0 0 0 0 0 0 0 0 0 0 
0 0 0 0 0 0 0 0 0 0 0 0 7 18 93 148 156 142 115 99 101 102 115 82 86 112 115 103 112 101 102 120 113 98 91 91 91 89 99 105 98 85 81 80 81 88 87 84 91 104 113 121 101 87 93 79 97 100 88 95 95 99 94 88 96 100 101 107 109 104 93 81 80 93 119 140 124 111 127 133 124 111 118 100 103 109 132 145 136 64 8 2 0 0 0 0 0 0 0 0 0 0 0 0 0 0 0 0 0 0 0 0 0 0 0 0 0 0 0 0 0 0 0 0 0 0 0 0 
0 0 0 0 0 0 0 0 0 0 0 0 7 17 87 145 155 134 108 101 102 103 117 86 88 116 121 97 113 104 101 114 120 101 91 90 89 89 93 104 101 87 73 79 83 84 86 72 85 109 118 117 93 83 86 76 79 110 85 95 89 93 88 88 96 99 102 105 108 102 89 83 82 94 125 142 124 121 130 129 125 110 114 101 102 106 133 149 132 62 8 2 0 0 0 0 0 0 0 0 0 0 0 0 0 0 0 0 0 0 0 0 0 0 0 0 0 0 0 0 0 0 0 0 0 0 0 0 
0 0 0 0 0 0 0 0 0 0 0 0 6 16 80 145 156 130 104 100 101 101 117 90 88 112 122 94 110 106 103 111 123 108 92 86 89 89 89 96 97 85 74 76 79 80 85 77 85 113 121 102 94 88 90 78 74 103 105 96 89 89 86 87 90 99 103 107 110 100 88 87 91 99 126 136 129 127 133 123 126 107 109 102 99 105 131 143 125 58 7 2 0 0 0 0 0 0 0 0 0 0 0 0 0 0 0 0 0 0 0 0 0 0 0 0 0 0 0 0 0 0 0 0 0 0 0 0 
0 0 0 0 0 0 0 0 0 0 0 0 5 16 76 138 154 133 108 97 101 97 119 96 86 102 118 95 106 105 101 114 126 120 96 89 90 95 99 101 94 83 77 73 74 75 87 72 87 115 125 103 100 104 103 86 82 86 115 98 91 85 86 86 91 102 103 107 101 90 86 90 91 97 126 127 126 127 134 115 123 107 108 101 99 105 129 137 122 53 6 3 0 0 0 0 0 0 0 0 0 0 0 0 0 0 0 0 0 0 0 0 0 0 0 0 0 0 0 0 0 0 0 0 0 0 0 0 
0 0 0 0 0 0 0 0 0 0 0 0 3 16 69 133 149 134 115 95 102 93 113 105 86 93 111 97 103 102 109 112 124 128 102 92 97 104 108 104 91 81 70 74 74 75 82 73 87 121 106 97 99 113 114 96 91 80 105 109 104 93 86 88 97 100 100 103 94 87 85 88 87 99 126 124 117 123 130 110 123 112 105 98 96 105 131 130 113 48 7 3 0 0 0 0 0 0 0 0 0 0 0 0 0 0 0 0 0 0 0 0 0 0 0 0 0 0 0 0 0 0 0 0 0 0 0 0 
0 0 0 0 0 0 0 0 0 4 4 0 0 14 62 124 145 129 119 92 101 91 107 111 88 89 102 100 99 99 107 111 121 129 106 91 93 99 105 104 94 90 76 75 81 94 91 77 94 119 103 101 102 116 118 102 92 88 90 118 115 118 102 95 98 96 103 105 98 93 87 86 87 103 126 109 107 121 120 106 124 116 98 94 93 111 134 125 101 44 7 3 0 0 0 0 0 0 0 0 0 0 0 0 0 0 0 0 0 0 0 0 0 0 0 0 0 0 0 0 0 0 0 0 0 0 0 0 
0 0 0 0 0 0 0 0 0 4 13 3 0 9 52 116 144 128 117 93 97 92 96 112 90 86 97 106 95 95 108 110 112 121 118 93 92 98 101 102 102 104 93 82 85 100 86 80 109 117 104 102 102 111 112 104 107 103 85 121 120 127 107 94 93 97 104 106 92 81 81 80 86 100 106 103 112 113 105 110 140 123 93 94 93 116 131 124 94 40 7 3 0 0 0 0 0 0 0 0 0 0 0 0 0 0 0 0 0 0 0 0 0 0 0 0 0 0 0 0 0 0 0 0 0 0 0 0 
0 0 0 0 0 0 0 0 0 2 7 11 4 6 40 108 141 127 112 98 91 97 88 108 97 85 95 110 96 100 118 118 115 115 121 108 99 102 102 106 102 96 84 86 105 108 101 91 121 101 98 98 100 112 111 100 100 103 87 121 130 116 113 120 112 103 101 106 92 76 74 80 87 98 95 108 117 119 106 126 145 126 98 86 102 119 130 123 88 34 6 2 0 0 0 0 0 0 0 0 0 0 0 0 0 0 0 0 0 0 0 0 0 0 0 0 0 0 0 0 0 0 0 0 0 0 0 0 
0 0 0 0 0 0 0 0 0 1 5 6 2 6 29 92 138 132 104 105 86 102 91 97 102 87 94 114 101 106 139 144 132 115 107 106 93 95 102 105 109 106 98 102 97 98 91 111 120 98 95 91 93 110 105 94 92 94 93 132 138 114 103 105 120 132 131 126 108 98 97 96 104 114 132 143 147 124 99 123 143 130 99 78 116 116 125 114 81 25 6 3 0 4 3 0 0 0 0 0 0 0 0 0 0 0 0 0 0 0 0 0 0 0 0 0 0 0 0 0 0 0 0 0 0 0 0 0 
0 0 0 0 0 0 0 0 0 0 3 6 5 5 22 81 132 140 111 112 95 95 96 93 100 102 102 113 112 112 125 119 127 128 108 103 104 110 116 118 116 113 96 89 86 105 102 99 120 90 78 87 92 104 101 87 85 90 96 129 131 102 97 105 113 129 149 155 131 121 123 128 135 124 135 148 155 135 100 131 137 132 103 109 114 128 118 107 74 18 9 6 10 6 2 0 0 0 0 0 0 0 0 0 0 0 0 0 0 0 0 0 0 0 0 0 0 0 0 0 0 0 0 0 0 0 0 0 
0 0 0 0 0 0 0 0 0 0 0 6 7 5 19 73 125 144 125 113 105 82 100 92 100 131 112 111 119 120 107 97 111 128 124 126 134 118 120 118 120 129 130 109 105 103 83 100 126 90 72 94 91 113 105 81 79 85 93 126 132 107 99 104 113 128 143 145 139 140 124 117 136 119 134 152 163 151 125 134 132 135 105 131 135 136 125 104 64 14 7 5 2 4 0 0 0 0 0 0 0 0 0 0 0 0 0 0 0 0 0 0 0 0 0 0 0 0 0 0 0 0 0 0 0 0 0 0 
0 0 0 0 0 0 0 0 0 0 0 6 10 8 13 61 117 140 142 112 115 82 99 104 116 126 118 115 117 126 122 109 109 128 125 122 113 110 115 116 113 109 107 115 111 97 88 98 115 84 70 84 88 108 91 79 87 97 117 134 138 120 104 101 117 133 143 148 148 137 117 137 146 144 150 159 160 150 140 148 143 143 132 152 151 141 130 103 50 11 6 6 0 2 0 0 0 0 0 0 0 0 0 0 0 0 0 0 0 0 0 0 0 0 0 0 0 0 0 0 0 0 0 0 0 0 0 0 
0 0 0 0 0 0 0 0 0 0 0 6 12 9 13 52 112 135 143 123 122 104 107 113 135 126 116 124 119 128 136 119 100 130 155 155 159 147 136 127 105 99 110 121 116 103 101 111 115 87 80 74 85 102 87 91 96 114 124 136 134 114 118 118 127 139 139 135 149 137 123 143 147 149 155 161 147 145 133 155 169 152 168 167 176 127 124 93 30 10 8 6 0 0 0 0 0 0 0 0 0 0 0 0 0 0 0 0 0 0 0 0 0 0 0 0 0 0 0 0 0 0 0 0 0 0 0 0 
0 0 0 0 0 0 0 0 0 0 0 8 16 8 8 36 105 132 136 130 133 145 128 121 153 136 131 131 124 148 149 140 127 150 158 149 160 154 142 121 106 108 105 111 123 113 108 121 103 84 79 79 84 104 87 88 91 108 118 128 121 117 119 133 131 117 112 127 135 151 142 138 133 142 156 148 162 170 155 160 177 170 173 167 160 115 126 78 15 11 10 7 0 0 0 0 0 0 0 0 0 0 0 0 0 0 0 0 0 0 0 0 0 0 0 0 0 0 0 0 0 0 0 0 0 0 0 0 
0 0 0 0 0 0 0 0 0 0 0 4 15 5 4 12 60 127 127 129 139 154 162 146 153 151 125 126 136 144 149 139 139 147 141 133 138 163 159 128 116 120 114 106 109 110 114 119 109 81 76 86 86 112 101 93 95 102 114 124 129 110 120 121 108 101 103 118 115 114 115 120 118 130 156 161 163 167 156 153 161 157 167 142 127 118 123 86 15 8 11 11 2 0 0 0 0 0 0 0 0 0 0 0 0 0 0 0 0 0 0 0 0 0 0 0 0 0 0 0 0 0 0 0 0 0 0 0 
0 0 0 0 0 0 0 0 0 0 0 5 12 4 3 8 38 115 135 130 137 159 166 164 155 161 152 139 125 127 139 134 152 152 157 147 134 159 156 127 115 119 111 104 107 109 125 114 107 101 102 105 109 127 119 102 90 96 107 103 121 116 109 111 100 96 100 105 104 94 113 140 129 155 155 159 161 147 137 135 157 162 154 128 99 101 119 56 10 7 10 13 2 0 0 0 0 0 0 0 0 0 0 0 0 0 0 0 0 0 0 0 0 0 0 0 0 0 0 0 0 0 0 0 0 0 0 0 
0 0 0 0 0 0 0 0 0 0 0 5 10 6 5 10 21 90 134 119 137 143 148 132 145 159 143 141 121 128 141 147 160 154 155 159 150 149 132 118 110 105 108 105 101 110 125 114 107 112 109 103 104 121 120 106 91 100 109 95 104 118 106 97 96 91 99 106 106 111 144 153 156 166 153 160 147 137 131 119 140 144 117 95 96 104 104 28 8 8 11 12 3 0 0 0 0 0 0 0 0 0 0 0 0 0 0 0 0 0 0 0 0 0 0 0 0 0 0 0 0 0 0 0 0 0 0 0 
0 0 0 0 0 0 0 0 0 0 0 4 8 4 9 12 19 59 130 129 130 125 125 131 126 134 127 127 116 120 133 146 136 129 130 142 147 131 125 112 101 95 102 97 96 107 125 112 117 117 109 98 98 104 118 124 98 102 104 90 101 126 123 103 92 82 87 98 104 109 146 152 158 159 158 150 135 133 139 128 117 120 97 84 90 109 74 16 8 8 12 9 5 0 0 0 0 0 0 0 0 0 0 0 0 0 0 0 0 0 0 0 0 0 0 0 0 0 0 0 0 0 0 0 0 0 0 0 
0 0 0 0 0 0 0 0 0 0 0 3 8 3 8 13 14 30 109 114 121 113 129 140 130 128 113 111 114 127 135 140 127 104 111 132 135 128 130 110 95 87 100 99 99 102 116 106 116 113 127 104 83 79 107 107 100 104 106 95 93 120 122 115 102 87 91 94 100 112 131 148 147 150 143 136 138 139 150 130 119 121 97 66 94 112 41 13 10 9 10 10 6 1 0 0 0 0 0 0 0 0 0 0 0 0 0 0 0 0 0 0 0 0 0 0 0 0 0 0 0 0 0 0 0 0 0 0 
0 0 0 0 0 0 0 0 0 0 0 1 6 2 5 9 12 13 75 103 106 117 135 149 128 133 114 111 131 156 153 132 131 122 123 134 156 147 115 95 70 82 99 105 98 94 99 94 116 115 121 121 101 92 118 110 94 93 109 100 99 111 106 118 113 105 93 97 105 122 118 129 140 150 125 131 150 152 169 154 136 108 88 72 96 81 19 9 10 11 12 11 7 1 0 0 0 0 0 0 0 0 0 0 0 0 0 0 0 0 0 0 0 0 0 0 0 0 0 0 0 0 0 0 0 0 0 0 
0 0 0 0 0 0 0 0 0 0 0 1 4 2 1 4 11 13 42 113 118 108 131 150 151 133 131 139 158 165 164 130 102 115 120 111 130 132 123 108 81 89 98 109 120 119 115 117 130 127 132 130 132 139 143 132 129 138 139 126 128 143 134 133 122 113 107 110 112 106 102 118 144 133 122 136 159 171 181 169 124 90 75 86 95 52 10 11 7 12 14 11 5 0 0 0 0 0 0 0 0 0 0 0 0 0 0 0 0 0 0 0 0 0 0 0 0 0 0 0 0 0 0 0 0 0 0 0 
0 0 0 0 0 0 0 0 0 0 0 0 5 2 0 2 9 13 24 94 112 86 120 127 154 137 150 167 172 163 156 136 119 105 102 114 106 94 97 120 122 110 112 120 131 141 118 130 160 156 145 139 142 150 154 149 142 141 142 141 147 159 154 143 122 117 127 131 113 111 114 117 124 122 129 135 153 171 166 157 117 91 65 78 82 27 8 10 6 11 16 9 4 0 0 0 0 0 0 0 0 0 0 0 0 0 0 0 0 0 0 0 0 0 0 0 0 0 0 0 0 0 0 0 0 0 0 0 
0 0 0 0 0 0 0 0 0 0 0 0 6 2 0 3 10 12 16 62 113 87 105 129 128 151 160 163 157 148 147 132 118 109 102 109 117 104 98 106 134 134 118 122 139 149 132 143 164 147 129 137 143 137 130 133 135 137 135 131 144 163 166 156 143 134 127 128 136 118 105 99 109 122 123 137 140 155 150 127 126 111 96 103 73 16 8 10 6 6 14 8 4 0 0 0 0 0 0 0 0 0 0 0 0 0 0 0 0 0 0 0 0 0 0 0 0 0 0 0 0 0 0 0 0 0 0 0 
0 0 0 0 0 0 0 0 0 0 1 3 8 4 0 4 8 9 13 34 95 95 102 125 123 145 148 159 157 148 151 128 121 112 100 104 114 120 121 125 125 139 139 135 154 143 130 140 142 145 137 124 124 144 140 130 132 132 115 107 115 142 163 168 170 176 173 172 151 109 93 95 116 129 109 121 155 157 130 108 110 102 95 106 60 14 10 9 7 3 9 8 4 1 0 0 0 0 0 0 0 0 0 0 0 0 0 0 0 0 0 0 0 0 0 0 0 0 0 0 0 0 0 0 0 0 0 0 
0 0 0 0 0 0 0 0 0 0 1 3 12 10 3 3 5 10 10 23 83 97 101 108 108 131 146 146 161 144 150 141 125 117 100 98 101 110 116 125 132 141 144 154 154 150 154 135 128 147 147 142 147 156 165 145 152 156 132 115 116 122 143 166 179 183 170 166 155 117 94 95 97 114 132 146 166 166 134 113 84 76 89 94 50 16 9 7 4 3 7 10 4 0 0 0 0 0 0 0 0 0 0 0 0 0 0 0 0 0 0 0 0 0 0 0 0 0 0 0 0 0 0 0 0 0 0 0 
0 0 0 0 0 0 0 0 0 0 0 2 10 11 11 6 5 10 9 21 68 94 107 107 101 104 152 137 161 147 141 124 120 103 99 97 97 104 113 119 119 127 145 153 147 159 178 155 144 156 157 162 158 153 152 141 148 160 133 117 133 142 132 164 191 192 176 162 148 101 72 75 87 112 151 163 172 172 135 98 88 102 107 92 37 15 7 4 2 5 7 10 4 1 0 0 0 0 0 0 0 0 0 0 0 0 0 0 0 0 0 0 0 0 0 0 0 0 0 0 0 0 0 0 0 0 0 0 
0 0 0 0 0 0 0 0 0 0 0 2 9 10 8 6 9 12 16 15 35 87 105 107 97 102 136 137 160 141 141 123 117 94 76 92 112 115 112 113 114 126 165 153 133 154 174 153 142 147 156 173 162 156 129 103 114 130 133 124 132 144 140 173 201 197 175 150 135 103 79 81 99 130 155 148 155 154 133 87 96 119 91 69 20 15 10 9 6 11 13 10 8 3 2 0 0 0 0 0 0 0 0 0 0 0 0 0 0 0 0 0 0 0 0 0 0 0 0 0 0 0 0 0 0 0 0 0 
0 0 0 0 0 0 0 0 0 0 0 1 10 10 10 12 9 8 14 15 19 52 97 86 92 98 118 127 155 152 147 129 129 126 102 90 89 87 90 93 101 115 153 153 132 130 158 157 148 140 143 156 150 158 148 123 117 128 136 132 137 145 146 184 195 185 162 139 142 105 117 128 128 145 149 133 124 90 105 75 59 82 88 34 11 10 8 11 5 6 9 12 12 5 3 0 0 0 0 0 0 0 0 0 0 0 0 0 0 0 0 0 0 0 0 0 0 0 0 0 0 0 0 0 0 0 0 0 
0 0 0 0 0 0 0 0 0 0 0 0 9 9 5 8 6 5 10 13 21 28 63 81 72 63 90 134 153 163 163 135 131 135 135 116 108 118 129 130 161 173 172 168 158 154 163 176 183 171 155 150 149 155 161 152 149 155 149 137 141 146 177 191 181 172 168 179 177 145 128 176 165 152 118 93 93 69 86 75 85 87 46 13 9 3 3 5 8 5 6 10 12 4 0 0 0 0 0 0 0 0 0 0 0 0 0 0 0 0 0 0 0 0 0 0 0 0 0 0 0 0 0 0 0 0 0 0 
0 0 0 0 0 0 0 0 0 0 0 0 2 6 4 2 2 4 7 10 16 22 33 72 62 48 72 98 111 144 151 134 143 146 140 126 144 163 154 141 164 176 164 178 170 189 187 188 187 185 188 182 176 179 186 178 180 176 172 168 176 190 204 202 188 175 185 163 118 153 137 128 115 85 75 73 76 71 80 67 66 42 23 22 15 1 1 2 2 3 6 11 12 2 0 0 0 0 0 0 0 0 0 0 0 0 0 0 0 0 0 0 0 0 0 0 0 0 0 0 0 0 0 0 0 0 0 0 
0 0 0 0 0 0 0 0 0 0 0 0 0 3 2 1 0 1 1 7 8 17 20 49 85 86 53 60 88 80 101 95 122 129 125 123 115 121 132 170 176 179 173 185 162 187 157 158 177 165 144 130 146 170 173 137 138 152 150 139 158 175 183 184 160 169 168 119 120 108 70 60 74 64 69 88 97 93 76 37 34 39 36 32 18 1 1 2 0 2 4 12 11 2 1 0 0 0 0 0 0 0 0 0 0 0 0 0 0 0 0 0 0 0 0 0 0 0 0 0 0 0 0 0 0 0 0 0 
0 0 0 0 0 0 0 0 0 0 0 0 0 3 6 3 2 1 4 5 9 16 20 22 41 44 28 42 76 59 70 51 70 92 95 94 72 73 71 76 94 135 158 159 145 157 121 118 120 88 60 68 92 112 109 85 64 86 114 107 98 103 97 138 99 132 133 75 64 72 59 80 56 39 42 60 89 77 58 31 28 26 18 9 4 1 2 3 3 3 5 10 8 2 2 0 0 0 0 0 0 0 0 0 0 0 0 0 0 0 0 0 0 0 0 0 0 0 0 0 0 0 0 0 0 0 0 0 
0 0 0 0 0 0 0 0 0 0 0 0 0 0 4 0 2 2 1 2 7 11 15 16 23 22 21 30 67 59 65 55 53 79 87 75 48 49 79 100 109 88 78 73 83 93 76 66 54 68 60 69 87 95 92 83 63 58 71 79 77 89 79 62 61 88 81 111 125 104 63 76 48 35 42 65 92 72 55 29 28 25 15 7 3 1 2 3 2 2 5 7 5 2 2 0 0 0 0 0 0 0 0 0 0 0 0 0 0 0 0 0 0 0 0 0 0 0 0 0 0 0 0 0 0 0 0 0 
0 0 0 0 0 0 0 0 0 0 0 0 0 0 0 0 0 1 0 0 6 11 10 15 18 28 26 32 63 65 65 64 54 78 93 93 63 102 87 105 114 128 92 81 80 80 68 91 81 72 65 79 89 93 86 80 67 62 84 112 102 108 109 103 111 119 86 112 76 86 98 114 59 52 53 73 96 80 52 32 33 30 18 12 2 0 0 0 0 0 2 2 1 1 2 0 0 0 0 0 0 0 0 0 0 0 0 0 0 0 0 0 0 0 0 0 0 0 0 0 0 0 0 0 0 0 0 0 
0 0 0 0 0 0 0 0 0 0 0 0 0 0 0 0 0 0 0 0 0 5 3 7 11 32 35 43 61 71 70 74 58 75 91 127 136 110 102 144 158 187 142 126 136 137 140 154 131 101 104 117 126 113 100 90 81 87 104 131 124 116 115 132 151 142 74 112 128 134 137 126 94 80 71 75 91 79 49 29 26 22 5 4 0 0 0 0 0 0 0 0 0 0 1 0 0 0 0 0 0 0 0 0 0 0 0 0 0 0 0 0 0 0 0 0 0 0 0 0 0 0 0 0 0 0 0 0 
0 0 0 0 0 0 0 0 0 0 0 0 0 0 0 0 0 0 0 0 0 3 1 1 9 22 23 36 51 59 45 53 64 62 69 104 102 117 121 156 188 185 149 155 167 186 169 173 167 181 164 179 168 144 141 134 136 127 129 113 100 125 154 134 134 134 157 113 177 142 125 128 86 57 43 74 77 50 27 8 15 13 8 2 0 0 0 0 0 0 0 2 1 0 2 0 0 0 0 0 0 0 0 0 0 0 0 0 0 0 0 0 0 0 0 0 0 0 0 0 0 0 0 0 0 0 0 0 
0 0 0 0 0 0 0 0 0 0 0 0 0 0 0 0 0 0 0 0 0 1 4 2 8 18 26 37 49 63 52 67 53 68 63 67 64 81 88 87 128 129 106 97 126 154 162 181 187 162 154 133 122 123 126 111 99 84 72 72 100 119 114 111 99 98 111 148 164 169 144 99 59 36 49 77 73 39 20 19 19 8 1 1 1 2 2 3 6 8 6 9 7 7 7 0 0 0 0 0 0 0 0 0 0 0 0 0 0 0 0 0 0 0 0 0 0 0 0 0 0 0 0 0 0 0 0 0 
0 0 0 0 0 0 0 0 0 0 0 0 0 0 0 0 0 0 0 0 0 0 6 8 8 13 19 21 31 50 51 66 42 57 65 59 47 41 87 106 117 129 121 91 75 117 141 143 113 92 121 117 105 101 104 80 72 63 63 83 125 128 119 93 105 111 111 95 102 94 87 70 65 40 67 102 81 43 26 22 15 10 6 1 0 0 1 2 1 1 2 6 5 6 6 0 0 0 0 0 0 0 0 0 0 0 0 0 0 0 0 0 0 0 0 0 0 0 0 0 0 0 0 0 0 0 0 0 
0 0 0 0 0 0 0 0 0 0 0 0 0 0 0 0 0 0 0 0 0 0 3 7 8 15 19 19 24 44 54 72 56 64 63 77 73 72 92 120 115 108 95 96 104 122 138 134 120 105 117 119 100 93 92 86 107 108 105 104 133 123 93 58 70 98 109 114 115 107 94 65 66 49 65 102 81 51 28 20 17 10 7 1 0 0 1 2 2 1 3 5 6 6 6 0 0 0 0 0 0 0 0 0 0 0 0 0 0 0 0 0 0 0 0 0 0 0 0 0 0 0 0 0 0 0 0 0 
0 0 0 0 0 0 0 0 0 0 0 0 0 0 0 0 0 0 0 0 0 0 0 6 10 10 16 20 20 31 58 67 72 66 78 88 65 62 61 87 81 72 85 96 104 109 105 114 118 125 118 114 101 95 104 101 118 116 122 124 151 143 123 91 99 101 100 101 99 87 75 67 88 89 72 103 80 48 30 19 15 9 6 0 0 0 1 2 2 1 2 5 6 6 7 0 0 0 0 0 0 0 0 0 0 0 0 0 0 0 0 0 0 0 0 0 0 0 0 0 0 0 0 0 0 0 0 0 
0 0 0 0 0 0 0 0 0 0 0 0 0 0 0 0 0 0 0 0 0 0 0 4 6 9 12 19 21 24 42 58 71 74 85 77 38 40 48 66 63 62 95 108 92 100 92 117 126 147 142 109 103 109 119 117 126 124 136 135 152 163 124 112 103 83 106 90 96 97 74 48 62 108 91 103 87 53 30 17 15 9 4 0 0 0 1 2 2 1 3 5 6 6 7 0 0 0 0 0 0 0 0 0 0 0 0 0 0 0 0 0 0 0 0 0 0 0 0 0 0 0 0 0 0 0 0 0 
0 0 0 0 0 0 0 0 0 0 0 0 0 0 0 0 0 0 0 0 0 0 0 0 6 6 11 15 21 26 37 54 71 81 88 70 34 40 56 61 52 60 109 94 78 100 93 110 119 115 139 108 107 115 105 114 119 125 141 125 113 128 128 119 103 91 111 107 82 95 86 54 46 103 105 92 87 55 22 15 15 8 3 0 0 0 1 2 2 2 4 5 7 7 8 0 0 0 0 0 0 0 0 0 0 0 0 0 0 0 0 0 0 0 0 0 0 0 0 0 0 0 0 0 0 0 0 0 
0 0 0 0 0 0 0 0 0 0 0 0 0 0 0 0 0 0 0 0 0 0 0 0 2 5 9 13 19 24 34 52 75 87 80 67 36 51 60 51 50 79 115 84 92 104 93 102 111 94 114 111 103 98 100 100 104 113 128 112 89 85 118 98 101 98 92 121 89 75 83 64 41 95 116 87 68 33 18 16 16 8 2 0 0 0 1 1 2 1 3 5 7 8 9 0 0 0 0 0 0 0 0 0 0 0 0 0 0 0 0 0 0 0 0 0 0 0 0 0 0 0 0 0 0 0 0 0 
0 0 0 0 0 0 0 0 0 0 0 0 0 0 0 0 0 0 0 0 0 0 0 0 0 5 6 13 16 19 32 58 68 78 70 68 44 62 62 42 50 85 105 80 82 96 91 92 95 78 101 105 99 91 92 100 106 112 120 115 93 83 110 91 82 80 72 96 94 63 63 77 54 82 121 84 50 22 17 17 16 9 2 0 0 0 0 1 2 2 2 5 7 8 10 0 0 0 0 0 0 0 0 0 0 0 0 0 0 0 0 0 0 0 0 0 0 0 0 0 0 0 0 0 0 0 0 0 
0 0 0 0 0 0 0 0 0 0 0 0 0 0 0 0 0 0 0 0 0 0 0 0 0 5 4 9 14 18 22 32 47 47 61 77 58 61 60 41 48 64 91 78 81 89 85 85 92 81 101 100 102 106 105 106 115 117 110 97 75 76 112 92 78 77 80 84 81 61 51 73 69 90 97 38 17 16 17 19 17 8 1 0 0 0 0 1 2 2 2 4 7 8 10 0 0 0 0 0 0 0 0 0 0 0 0 0 0 0 0 0 0 0 0 0 0 0 0 0 0 0 0 0 0 0 0 0 
0 0 0 0 0 0 0 0 0 0 0 0 0 0 0 0 0 0 0 0 0 0 0 0 0 0 6 4 13 17 20 20 16 23 32 86 66 54 60 55 61 58 82 76 73 68 75 85 95 89 80 78 87 102 106 114 126 120 100 80 83 91 110 91 76 73 70 80 80 71 58 69 70 100 76 26 16 14 17 19 16 6 1 0 0 0 1 2 2 2 2 4 6 8 9 0 0 0 0 0 0 0 0 0 0 0 0 0 0 0 0 0 0 0 0 0 0 0 0 0 0 0 0 0 0 0 0 0 
0 0 0 0 0 0 0 0 0 0 0 0 0 0 0 0 0 0 0 0 0 0 0 0 0 0 1 4 9 14 17 19 15 24 16 44 69 59 75 82 73 57 83 80 62 55 72 92 103 84 74 81 99 113 118 114 121 124 108 93 91 91 109 107 87 69 76 94 80 83 90 86 73 84 39 22 14 14 18 16 12 5 0 0 0 0 0 1 2 2 1 3 6 8 10 0 0 0 0 0 0 0 0 0 0 0 0 0 0 0 0 0 0 0 0 0 0 0 0 0 0 0 0 0 0 0 0 0 
0 0 0 0 0 0 0 0 0 0 0 0 0 0 0 0 0 0 0 0 0 0 0 0 0 0 0 4 9 9 16 17 17 23 15 14 47 74 94 99 62 58 94 98 78 71 92 111 97 76 73 86 90 104 110 109 123 132 117 110 104 92 111 121 96 64 74 104 95 73 96 101 78 46 26 19 13 15 15 15 9 4 1 0 0 0 0 1 1 1 1 3 6 8 10 0 0 0 0 0 0 0 0 0 0 0 0 0 0 0 0 0 0 0 0 0 0 0 0 0 0 0 0 0 0 0 0 0 
0 0 0 0 0 0 0 0 0 0 0 0 0 0 0 0 0 0 0 0 0 0 0 0 0 0 0 3 6 8 12 16 19 24 14 13 20 32 54 68 54 70 107 102 83 81 104 120 90 86 89 90 94 108 109 115 121 129 125 102 80 81 97 122 111 72 76 111 107 68 71 64 37 26 24 18 14 16 14 15 9 4 0 0 0 0 0 1 1 2 2 3 5 7 10 0 0 0 0 0 0 0 0 0 0 0 0 0 0 0 0 0 0 0 0 0 0 0 0 0 0 0 0 0 0 0 0 0 
0 0 0 0 0 0 0 0 0 0 0 0 0 0 0 0 0 0 0 0 0 0 0 0 0 0 0 2 5 7 9 13 17 24 18 13 20 23 28 43 59 74 109 109 89 93 115 110 84 78 79 89 104 117 118 121 126 131 134 124 98 84 88 115 121 88 87 119 104 66 50 36 28 26 23 16 14 15 16 15 9 4 0 0 0 0 0 1 2 2 1 3 6 8 10 0 0 0 0 0 0 0 0 0 0 0 0 0 0 0 0 0 0 0 0 0 0 0 0 0 0 0 0 0 0 0 0 0 
0 0 0 0 0 0 0 0 0 0 0 0 0 0 0 0 0 0 0 0 0 0 0 0 0 0 0 0 3 8 8 10 13 24 15 14 14 22 26 28 38 56 79 104 104 99 109 99 77 78 98 117 126 125 116 110 118 128 138 143 129 92 81 103 116 97 96 109 71 45 28 30 25 24 21 17 13 15 17 15 10 4 0 0 0 0 0 1 2 2 1 3 6 7 10 0 0 0 0 0 0 0 0 0 0 0 0 0 0 0 0 0 0 0 0 0 0 0 0 0 0 0 0 0 0 0 0 0 
0 0 0 0 0 0 0 0 0 0 0 0 0 0 0 0 0 0 0 0 0 0 0 0 0 0 0 0 0 8 6 10 11 22 16 13 13 20 26 27 28 34 33 67 106 101 102 90 76 86 112 127 123 110 101 100 109 115 130 137 135 108 97 95 102 100 99 64 33 33 26 29 23 22 19 16 12 16 16 13 9 3 0 0 0 0 0 1 2 1 2 4 6 8 9 0 0 0 0 0 0 0 0 0 0 0 0 0 0 0 0 0 0 0 0 0 0 0 0 0 0 0 0 0 0 0 0 0 
0 0 0 0 0 0 0 0 0 0 0 0 0 0 0 0 0 0 0 0 0 0 0 0 0 0 0 0 0 4 6 10 12 20 16 13 12 21 26 27 32 33 30 40 56 71 75 80 87 92 103 121 112 107 110 112 117 118 122 125 128 105 104 95 75 73 56 41 33 30 27 27 23 22 16 15 13 17 16 12 9 3 0 0 0 0 0 1 1 1 1 1 5 8 10 0 0 0 0 0 0 0 0 0 0 0 0 0 0 0 0 0 0 0 0 0 0 0 0 0 0 0 0 0 0 0 0 0 
