P2
128 99
233
0 0 0 0 0 0 0 0 0 0 0 0 0 0 0 0 0 0 0 0 0 0 0 0 0 0 0 0 0 0 0 0 0 0 0 0 0 0 0 0 0 0 0 0 0 0 0 0 0 0 0 0 0 0 0 0 0 0 0 0 0 0 0 0 0 0 0 0 0 0 0 0 0 0 0 0 0 0 0 0 0 0 0 0 0 0 0 0 0 0 0 0 0 0 0 0 0 0 0 0 0 0 0 0 0 0 0 0 0 0 0 0 0 0 0 0 0 0 0 0 0 0 0 0 0 0 0 0 
0 0 0 0 0 0 0 0 0 0 0 0 0 0 0 0 0 0 0 0 0 0 0 0 0 0 0 0 0 0 0 0 0 0 0 0 0 0 0 0 0 0 0 0 0 0 0 0 0 0 0 0 0 0 0 0 0 0 0 0 0 0 0 0 0 0 0 0 0 0 0 0 0 0 0 0 0 0 0 0 0 0 0 0 0 0 0 0 0 0 0 0 0 0 0 0 0 0 0 0 0 0 0 0 0 0 0 0 0 0 0 0 0 0 0 0 0 0 0 0 0 0 0 0 0 0 0 0 
0 0 0 0 0 0 0 0 0 0 0 0 0 0 0 0 0 0 0 0 0 0 0 0 0 0 0 0 0 0 0 0 0 0 0 0 0 0 0 0 0 0 0 0 0 0 0 0 0 0 1 1 1 4 2 0 0 0 0 0 0 0 0 0 0 0 0 0 0 0 0 0 0 0 0 0 0 0 0 0 0 0 0 0 0 0 0 0 0 0 0 0 0 0 0 0 0 0 0 0 0 0 0 0 0 0 0 0 0 0 0 0 0 0 0 0 0 0 0 0 0 0 0 0 0 0 0 0 
0 0 0 0 0 0 0 0 0 0 0 0 0 0 0 0 0 0 0 0 0 0 0 0 0 0 0 0 0 0 0 0 0 0 0 0 0 0 0 0 0 0 0 0 7 14 14 16 16 19 23 27 30 28 24 20 17 15 13 11 6 0 0 0 0 0 0 0 0 0 0 0 0 0 0 0 0 0 0 0 0 0 0 0 0 0 0 0 0 0 0 0 0 0 0 0 0 0 0 0 0 0 0 0 0 0 0 0 0 0 0 0 0 0 0 0 0 0 0 0 0 0 0 0 0 0 0 0 
0 0 0 0 0 0 0 0 0 0 0 0 0 0 0 0 0 0 0 0 0 0 0 0 0 0 0 0 0 0 0 0 0 0 0 0 0 0 0 0 5 16 18 23 26 34 52 77 99 117 125 128 129 127 125 119 110 100 81 54 32 22 16 12 4 0 0 0 0 0 0 0 0 0 0 0 0 0 0 0 0 0 0 0 0 0 0 0 0 0 0 0 0 0 0 0 0 0 0 0 0 0 0 0 0 0 0 0 0 0 0 0 0 0 0 0 0 0 0 0 0 0 0 0 0 0 0 0 
0 0 0 0 0 0 0 0 0 0 0 0 0 0 0 0 0 0 0 0 0 0 0 0 0 0 0 0 0 0 0 0 0 0 0 0 0 0 8 18 25 26 33 67 112 143 150 151 157 165 171 175 179 181 182 178 171 165 154 139 122 103 78 40 22 16 12 2 0 0 0 0 0 0 0 0 0 0 0 0 0 0 0 0 0 0 0 0 0 0 0 0 0 0 0 0 0 0 0 0 0 0 0 0 0 0 0 0 0 0 0 0 0 0 0 0 0 0 0 0 0 0 0 0 0 0 0 0 
0 0 0 0 0 0 0 0 0 0 0 0 0 0 0 0 0 0 0 0 0 0 0 0 0 0 0 0 0 0 0 0 0 0 0 0 7 23 25 23 44 101 143 152 160 165 173 186 199 207 203 195 189 185 183 185 192 200 210 205 188 168 146 127 106 75 35 17 14 3 0 0 0 0 0 0 0 0 0 0 0 0 0 0 0 0 0 0 0 0 0 0 0 0 0 0 0 0 0 0 0 0 0 0 0 0 0 0 0 0 0 0 0 0 0 0 0 0 0 0 0 0 0 0 0 0 0 0 
0 0 0 0 0 0 0 0 0 0 0 0 0 0 0 0 0 0 0 0 0 0 0 0 0 0 0 0 0 0 0 0 0 0 8 27 25 21 57 126 149 156 164 176 196 212 204 179 162 151 149 157 159 152 147 151 156 160 163 168 182 200 202 184 164 144 122 88 47 22 15 1 0 0 0 0 0 0 0 0 0 0 0 0 0 0 0 0 0 0 0 0 0 0 0 0 0 0 0 0 0 0 0 0 0 0 0 0 0 0 0 0 0 0 0 0 0 0 0 0 0 0 0 0 0 0 0 0 
0 0 0 0 0 0 0 0 0 0 0 0 0 0 0 0 0 0 0 0 0 0 0 0 0 0 0 0 0 0 0 0 7 26 23 20 56 128 150 155 163 181 206 210 186 163 138 128 120 124 126 135 133 126 133 140 152 164 169 169 163 161 166 179 197 193 170 150 127 89 46 24 11 0 0 0 0 0 0 0 0 0 0 0 0 0 0 0 0 0 0 0 0 0 0 0 0 0 0 0 0 0 0 0 0 0 0 0 0 0 0 0 0 0 0 0 0 0 0 0 0 0 0 0 0 0 0 0 
0 0 0 0 0 0 0 0 0 0 0 0 0 0 0 0 0 0 0 0 0 0 0 0 0 0 0 0 0 0 0 25 22 22 41 116 151 151 158 175 203 203 177 148 116 116 123 123 129 118 113 114 112 112 115 126 143 143 159 174 181 177 167 162 162 169 189 194 171 149 123 71 31 17 4 0 0 0 0 0 0 0 0 0 0 0 0 0 0 0 0 0 0 0 0 0 0 0 0 0 0 0 0 0 0 0 0 0 0 0 0 0 0 0 0 0 0 0 0 0 0 0 0 0 0 0 0 0 
0 0 0 0 0 0 0 0 0 0 0 0 0 0 0 0 0 0 0 0 0 0 0 0 0 0 0 0 0 13 28 23 22 84 148 152 153 170 199 195 173 148 121 120 138 142 134 127 107 96 119 137 143 141 131 124 122 130 128 129 150 179 187 183 175 164 161 166 185 194 170 145 100 45 23 7 0 0 0 0 0 0 0 0 0 0 0 0 0 0 0 0 0 0 0 0 0 0 0 0 0 0 0 0 0 0 0 0 0 0 0 0 0 0 0 0 0 0 0 0 0 0 0 0 0 0 0 0 
0 0 0 0 0 0 0 0 0 0 0 0 0 0 0 0 0 0 0 0 0 0 0 0 0 0 0 0 24 24 20 44 128 151 151 163 194 193 167 150 137 147 158 160 155 151 147 139 126 126 126 126 121 125 127 128 132 137 147 150 140 141 160 175 183 189 181 170 161 167 192 195 164 127 65 27 10 0 0 0 0 0 0 0 0 0 0 0 0 0 0 0 0 0 0 0 0 0 0 0 0 0 0 0 0 0 0 0 0 0 0 0 0 0 0 0 0 0 0 0 0 0 0 0 0 0 0 0 
0 0 0 0 0 0 0 0 0 0 0 0 0 0 0 0 0 0 0 0 0 0 0 0 0 0 5 28 20 19 75 147 149 160 181 195 172 157 152 161 166 160 150 146 147 151 146 139 136 134 111 94 91 101 123 134 134 133 136 145 150 152 157 163 170 178 186 190 180 168 164 179 200 174 138 81 29 13 0 0 0 0 0 0 0 0 0 0 0 0 0 0 0 0 0 0 0 0 0 0 0 0 0 0 0 0 0 0 0 0 0 0 0 0 0 0 0 0 0 0 0 0 0 0 0 0 0 0 
0 0 0 0 0 0 0 0 0 0 0 0 0 0 0 0 0 0 0 0 0 0 0 0 0 10 27 15 25 100 149 153 169 197 181 159 161 169 174 161 142 142 146 148 153 154 146 143 145 149 144 143 144 147 154 166 164 158 150 142 136 131 134 145 159 170 177 182 184 186 175 166 173 197 177 141 88 30 15 0 0 0 0 0 0 0 0 0 0 0 0 0 0 0 0 0 0 0 0 0 0 0 0 0 0 0 0 0 0 0 0 0 0 0 0 0 0 0 0 0 0 0 0 0 0 0 0 0 
0 0 0 0 0 0 0 0 0 0 0 0 0 0 0 0 0 0 0 0 0 0 0 0 15 26 14 34 119 151 156 179 199 172 158 171 177 165 147 136 139 147 142 129 131 134 148 168 179 180 183 182 178 177 174 172 183 193 192 191 188 176 151 126 124 140 153 171 175 177 183 180 166 169 193 178 145 96 34 15 0 0 0 0 0 0 0 0 0 0 0 0 0 0 0 0 0 0 0 0 0 0 0 0 0 0 0 0 0 0 0 0 0 0 0 0 0 0 0 0 0 0 0 0 0 0 0 0 
0 0 0 0 0 0 0 0 0 0 0 0 0 0 0 0 0 0 0 0 0 0 4 16 24 12 46 126 150 159 187 197 169 168 177 168 145 132 131 138 149 148 145 154 158 143 133 134 129 121 132 147 137 124 120 121 127 140 156 175 186 185 186 183 164 139 135 133 150 171 173 175 180 166 168 194 177 149 109 40 14 0 0 0 0 0 0 0 0 0 0 0 0 0 0 0 0 0 0 0 0 0 0 0 0 0 0 0 0 0 0 0 0 0 0 0 0 0 0 0 0 0 0 0 0 0 0 0 
0 0 0 0 0 0 0 0 0 0 0 0 0 0 0 0 0 0 0 0 0 7 14 21 15 58 132 147 161 189 195 167 167 173 157 133 127 140 151 165 177 166 148 137 123 115 115 111 112 109 115 121 118 114 112 116 117 123 125 133 145 157 164 173 181 175 162 138 131 140 159 162 172 177 166 169 198 177 151 116 40 11 0 0 0 0 0 0 0 0 0 0 0 0 0 0 0 0 0 0 0 0 0 0 0 0 0 0 0 0 0 0 0 0 0 0 0 0 0 0 0 0 0 0 0 0 0 0 
0 0 0 0 0 0 0 0 0 0 0 0 0 0 0 0 0 0 0 0 8 14 19 19 71 139 148 163 193 195 170 159 158 145 130 128 134 147 175 175 149 139 128 124 123 125 119 120 118 111 115 111 113 118 118 119 119 124 126 131 133 140 147 161 165 168 170 167 138 121 132 152 161 165 169 163 168 201 175 147 120 37 6 0 0 0 0 0 0 0 0 0 0 0 0 0 0 0 0 0 0 0 0 0 0 0 0 0 0 0 0 0 0 0 0 0 0 0 0 0 0 0 0 0 0 0 0 0 
0 0 0 0 0 0 0 0 0 0 0 0 0 0 0 0 0 0 0 7 12 21 20 75 140 145 158 184 193 169 154 146 139 125 127 120 139 181 167 136 130 133 135 128 126 121 116 115 112 108 107 92 98 116 114 114 112 113 114 115 117 120 126 136 147 157 150 159 171 142 105 118 150 160 160 164 160 169 204 166 146 117 28 1 0 0 0 0 0 0 0 0 0 0 0 0 0 0 0 0 0 0 0 0 0 0 0 0 0 0 0 0 0 0 0 0 0 0 0 0 0 0 0 0 0 0 0 0 
0 0 0 0 0 0 0 0 0 0 0 0 0 0 0 0 0 0 5 13 16 21 77 140 148 150 174 197 169 154 152 136 126 122 118 146 184 160 136 133 135 127 119 114 110 108 107 110 110 116 112 85 92 119 111 108 106 106 105 107 109 108 109 114 125 140 151 145 157 175 138 99 111 141 158 156 159 157 177 196 152 142 102 17 1 0 0 0 0 0 0 0 0 0 0 0 0 0 0 0 0 0 0 0 0 0 0 0 0 0 0 0 0 0 0 0 0 0 0 0 0 0 0 0 0 0 0 0 
0 0 0 0 0 0 0 0 0 0 0 0 0 0 0 0 0 0 13 10 21 75 134 155 147 161 200 173 147 149 133 124 116 115 147 179 160 139 134 130 114 103 104 104 102 105 107 109 110 103 84 77 78 107 113 105 103 98 99 106 116 109 102 103 107 115 135 157 151 163 175 128 94 114 140 157 156 155 162 193 178 147 142 78 8 0 0 0 0 0 0 0 0 0 0 0 0 0 0 0 0 0 0 0 0 0 0 0 0 0 0 0 0 0 0 0 0 0 0 0 0 0 0 0 0 0 0 0 
0 0 0 0 0 0 0 0 0 0 0 0 0 0 0 0 0 11 9 19 68 121 155 144 154 193 184 142 147 135 117 104 108 141 179 159 138 134 121 104 97 98 101 100 102 98 89 91 90 83 79 78 75 82 96 104 110 106 102 96 93 89 86 88 88 93 113 139 155 157 167 165 115 95 115 139 158 151 152 172 199 166 144 135 42 3 0 0 0 0 0 0 0 0 0 0 0 0 0 0 0 0 0 0 0 0 0 0 0 0 0 0 0 0 0 0 0 0 0 0 0 0 0 0 0 0 0 0 
0 0 0 0 0 0 0 0 0 0 0 0 0 0 0 0 7 10 11 55 109 150 138 152 177 196 138 139 138 112 101 107 130 176 159 129 129 121 106 100 96 91 89 88 84 77 77 77 84 82 77 79 78 79 83 80 83 79 79 77 76 76 75 74 75 77 88 124 145 157 157 168 152 109 101 117 140 158 136 154 194 184 160 145 101 15 0 0 0 0 0 0 0 0 0 0 0 0 0 0 0 0 0 0 0 0 0 0 0 0 0 0 0 0 0 0 0 0 0 0 0 0 0 0 0 0 0 0 
0 0 0 0 0 0 0 0 0 0 0 0 0 0 0 2 11 9 42 101 136 148 137 166 196 150 132 140 114 105 112 134 174 167 135 131 126 110 96 83 79 79 78 76 77 78 80 78 83 83 83 83 83 83 81 79 81 81 81 81 77 77 75 73 72 73 76 91 128 147 159 167 169 138 108 104 125 143 154 133 179 199 168 147 138 64 3 0 0 0 0 0 0 0 0 0 0 0 0 0 0 0 0 0 0 0 0 0 0 0 0 0 0 0 0 0 0 0 0 0 0 0 0 0 0 0 0 0 
0 0 0 0 0 0 0 0 0 0 0 0 0 0 0 9 8 19 88 118 157 136 158 183 173 124 142 126 104 114 137 163 168 135 133 132 117 96 82 76 78 80 79 80 80 81 81 84 88 90 93 96 97 92 87 85 85 85 83 82 83 79 78 73 76 75 75 79 100 126 137 156 170 157 124 112 113 128 147 139 149 201 172 160 149 116 25 0 0 0 0 0 0 0 0 0 0 0 0 0 0 0 0 0 0 0 0 0 0 0 0 0 0 0 0 0 0 0 0 0 0 0 0 0 0 0 0 0 
0 0 0 0 0 0 0 0 0 0 0 0 0 0 4 8 11 66 108 141 142 144 168 191 142 123 132 104 105 130 155 167 140 134 133 115 97 80 78 80 78 79 78 80 82 86 94 100 100 98 102 104 103 99 95 96 93 94 93 88 88 86 82 81 79 77 75 74 81 103 118 144 164 171 149 118 109 118 135 143 127 181 171 160 152 138 68 4 0 0 0 0 0 0 0 0 0 0 0 0 0 0 0 0 0 0 0 0 0 0 0 0 0 0 0 0 0 0 0 0 0 0 0 0 0 0 0 0 
0 0 0 0 0 0 0 0 0 0 0 0 0 0 7 8 42 100 116 150 133 154 173 175 119 122 114 105 125 155 166 145 130 130 114 84 78 78 80 81 79 77 77 79 87 96 103 106 101 94 95 96 91 85 65 62 83 93 94 97 98 95 91 85 80 76 72 74 75 81 101 136 155 165 175 145 116 110 126 140 127 160 173 158 156 146 102 17 0 0 0 0 0 0 0 0 0 0 0 0 0 0 0 0 0 0 0 0 0 0 0 0 0 0 0 0 0 0 0 0 0 0 0 0 0 0 0 0 
0 0 0 0 0 0 0 0 0 0 0 0 0 0 6 16 82 112 137 145 142 157 176 144 108 122 108 121 145 162 156 129 125 121 90 77 76 79 76 75 73 72 77 87 91 93 96 91 89 67 57 75 79 54 53 52 51 83 86 90 98 103 101 96 89 83 78 75 77 76 79 102 147 141 174 179 135 118 115 132 122 145 165 157 154 149 117 41 1 0 0 0 0 0 0 0 0 0 0 0 0 0 0 0 0 0 0 0 0 0 0 0 0 0 0 0 0 0 0 0 0 0 0 0 0 0 0 0 
0 0 0 0 0 0 0 0 0 0 0 0 0 3 5 44 95 120 144 140 145 162 163 117 109 118 111 131 150 162 141 126 127 105 81 80 79 75 66 64 70 79 91 92 88 82 82 80 65 55 54 54 66 51 53 52 56 64 52 72 85 89 96 102 102 91 81 78 75 74 76 85 131 134 150 185 160 122 114 121 117 140 160 153 153 153 123 59 2 0 0 0 0 0 0 0 0 0 0 0 0 0 0 0 0 0 0 0 0 0 0 0 0 0 0 0 0 0 0 0 0 0 0 0 0 0 0 0 
0 0 0 0 0 0 0 0 0 0 0 0 0 4 7 67 103 127 148 138 153 154 141 109 116 121 123 139 142 157 128 122 119 88 81 81 72 60 59 66 85 94 89 82 79 71 57 59 57 58 59 55 58 53 54 55 69 59 52 52 51 71 79 90 107 108 91 82 78 79 76 81 115 129 138 166 174 126 116 117 110 137 166 150 156 154 131 73 5 0 0 0 0 0 0 0 0 0 0 0 0 0 0 0 0 0 0 0 0 0 0 0 0 0 0 0 0 0 0 0 0 0 0 0 0 0 0 0 
0 0 0 0 0 0 0 0 0 0 0 0 0 4 19 82 114 133 155 136 152 136 127 103 112 122 134 124 131 144 123 117 104 81 83 79 66 58 68 89 96 83 63 50 58 54 58 57 58 59 59 55 61 54 54 69 85 79 60 53 51 53 56 78 93 112 113 93 82 80 78 78 102 122 134 146 158 124 118 119 105 132 163 150 156 153 141 86 9 0 0 0 0 0 0 0 0 0 0 0 0 0 0 0 0 0 0 0 0 0 0 0 0 0 0 0 0 0 0 0 0 0 0 0 0 0 0 0 
0 0 0 0 0 0 0 0 0 0 0 0 2 3 37 93 119 140 151 128 138 124 129 108 115 127 124 107 131 132 117 105 95 81 81 68 60 75 94 94 75 54 54 55 57 55 55 58 57 57 58 57 62 54 61 80 84 82 71 52 52 53 52 56 80 93 115 115 94 81 80 77 90 109 128 137 131 126 125 116 101 127 165 146 159 148 144 101 17 0 0 0 0 0 0 0 0 0 0 0 0 0 0 0 0 0 0 0 0 0 0 0 0 0 0 0 0 0 0 0 0 0 0 0 0 0 0 0 
0 0 0 0 0 0 0 0 0 0 0 0 2 4 52 99 122 147 136 129 122 115 134 112 126 130 113 99 131 129 108 97 88 83 73 64 78 96 97 74 55 56 57 55 55 56 55 54 56 56 57 63 55 57 67 67 64 55 55 54 53 51 52 52 57 79 95 117 115 91 79 76 82 99 112 123 112 113 123 120 98 122 163 145 160 148 151 112 27 0 0 0 0 0 0 0 0 0 0 0 0 0 0 0 0 0 0 0 0 0 0 0 0 0 0 0 0 0 0 0 0 0 0 0 0 0 0 0 
0 0 0 0 0 0 0 0 0 0 0 0 1 7 62 110 125 151 120 134 110 114 136 113 125 118 101 91 129 131 104 93 83 81 72 79 95 99 84 55 55 55 55 54 55 53 56 55 55 55 55 61 56 56 56 55 55 55 55 55 53 54 53 52 49 62 90 107 121 114 92 80 80 94 99 115 102 94 121 121 99 122 167 144 157 153 148 128 36 1 0 0 0 0 0 0 0 0 0 0 0 0 0 0 0 0 0 0 0 0 0 0 0 0 0 0 0 0 0 0 0 0 0 0 0 0 0 0 
0 0 0 0 0 0 0 0 0 0 0 0 1 11 68 115 126 145 120 147 108 116 135 116 124 108 94 87 125 133 103 92 82 79 82 95 94 85 82 59 53 56 54 54 55 53 56 56 55 56 57 58 58 59 59 60 58 56 56 54 54 52 55 54 53 66 81 90 115 123 115 92 86 101 101 107 94 79 120 119 100 123 168 149 149 157 143 144 44 2 0 0 0 0 0 0 0 0 0 0 0 0 0 0 0 0 0 0 0 0 0 0 0 0 0 0 0 0 0 0 0 0 0 0 0 0 0 0 
0 0 0 0 0 0 0 0 0 0 0 0 3 14 73 119 136 150 129 154 109 120 142 124 115 106 92 83 118 131 104 93 84 91 96 95 87 83 88 86 75 62 55 55 54 55 58 59 60 64 63 60 64 64 66 65 62 58 57 58 55 54 57 57 64 86 80 89 108 118 123 120 115 114 107 106 89 74 116 121 109 125 168 150 145 156 143 152 53 3 0 0 0 0 0 0 0 0 0 0 0 0 0 0 0 0 0 0 0 0 0 0 0 0 0 0 0 0 0 0 0 0 0 0 0 0 0 0 
0 0 0 0 0 0 0 0 0 0 0 0 5 14 76 122 152 153 132 152 111 123 152 124 107 105 91 79 107 130 105 98 100 104 98 93 82 62 55 56 60 61 67 64 60 62 65 65 72 76 76 72 77 75 75 72 67 61 58 57 56 57 63 78 71 64 65 77 92 100 113 137 151 133 115 108 86 80 116 120 110 115 172 149 139 151 141 152 66 3 0 0 0 0 0 0 0 0 0 0 0 0 0 0 0 0 0 0 0 0 0 0 0 0 0 0 0 0 0 0 0 0 0 0 0 0 0 0 
0 0 0 0 0 0 0 0 0 0 0 0 5 12 79 126 164 148 134 153 118 127 157 119 104 103 96 77 92 126 112 116 116 104 94 88 82 66 62 85 96 70 57 62 73 82 75 81 86 93 94 90 94 96 91 83 75 64 59 59 58 64 95 108 105 95 91 88 92 106 121 134 150 143 127 114 94 89 114 127 114 122 166 136 140 160 145 154 85 5 0 0 0 0 0 0 0 0 0 0 0 0 0 0 0 0 0 0 0 0 0 0 0 0 0 0 0 0 0 0 0 0 0 0 0 0 0 0 
0 0 0 0 0 0 0 0 0 0 0 0 5 12 81 126 165 135 135 153 118 122 164 127 116 111 100 80 83 110 124 134 120 105 100 112 108 95 94 105 105 102 87 82 87 91 107 101 107 111 111 106 107 109 104 96 82 73 67 65 71 90 93 85 73 64 59 57 65 80 90 94 107 120 129 128 107 93 109 125 121 136 162 129 136 165 144 152 103 8 0 0 0 0 0 0 0 0 0 0 0 0 0 0 0 0 0 0 0 0 0 0 0 0 0 0 0 0 0 0 0 0 0 0 0 0 0 0 
0 0 0 0 0 0 0 0 0 0 0 0 6 15 84 130 166 128 134 149 111 122 164 134 117 123 103 90 78 110 139 140 127 109 94 74 66 61 62 65 68 77 88 112 125 113 117 120 121 127 128 122 119 122 117 110 96 84 78 93 99 86 71 66 60 60 57 53 57 72 82 82 91 110 122 135 109 93 106 120 129 142 151 124 122 160 145 146 119 11 0 0 0 0 0 0 0 0 0 0 0 0 0 0 0 0 0 0 0 0 0 0 0 0 0 0 0 0 0 0 0 0 0 0 0 0 0 0 
0 0 0 0 0 0 0 0 0 0 0 0 6 17 86 136 169 134 138 134 104 124 152 132 111 129 112 103 95 113 137 136 111 91 62 54 55 54 58 58 60 65 81 99 123 135 125 131 125 126 126 127 136 148 137 123 112 98 97 122 105 76 67 66 63 60 57 53 58 73 89 95 102 123 140 139 104 91 106 113 129 139 143 121 116 155 152 143 130 18 0 0 0 0 0 0 0 0 0 0 0 0 0 0 0 0 0 0 0 0 0 0 0 0 0 0 0 0 0 0 0 0 0 0 0 0 0 0 
0 0 0 0 0 0 0 0 0 0 0 0 5 16 85 143 170 135 130 122 107 124 148 127 112 114 105 101 107 116 131 130 113 71 55 52 54 55 57 61 63 77 98 112 122 134 137 129 116 113 113 130 158 176 169 136 124 119 132 131 98 80 68 66 66 65 65 65 72 86 97 96 97 120 144 142 106 95 100 111 129 140 145 109 107 140 151 142 136 27 1 0 0 0 0 0 0 0 0 0 0 0 0 0 0 0 0 0 0 0 0 0 0 0 0 0 0 0 0 0 0 0 0 0 0 0 0 0 
0 0 0 0 0 0 0 0 0 0 0 0 7 17 86 151 172 130 121 122 108 124 139 117 113 95 100 101 104 106 108 121 131 86 64 61 58 58 59 66 72 91 108 120 124 123 134 137 119 117 113 122 160 153 171 155 135 140 145 124 98 83 72 73 75 78 72 66 67 75 83 84 87 109 144 149 111 98 98 108 120 137 144 98 92 130 147 142 140 37 1 0 0 0 0 0 0 0 0 0 0 0 0 0 0 0 0 0 0 0 0 0 0 0 0 0 0 0 0 0 0 0 0 0 0 0 0 0 
0 0 0 0 0 0 0 0 0 0 0 0 9 20 89 159 170 126 125 125 114 118 138 119 113 92 99 103 101 92 96 113 107 71 56 61 60 64 66 68 80 98 115 123 119 121 121 129 120 106 116 122 154 137 150 172 147 151 134 119 95 88 89 82 76 73 64 56 60 73 83 87 93 109 137 151 117 94 98 107 115 135 139 89 79 127 145 141 139 42 1 0 0 0 0 0 0 0 0 0 0 0 0 0 0 0 0 0 0 0 0 0 0 0 0 0 0 0 0 0 0 0 0 0 0 0 0 0 
0 0 0 0 0 0 0 0 0 0 0 0 9 20 87 158 164 126 125 122 108 109 139 118 104 89 93 101 96 91 87 102 86 62 49 53 54 60 72 87 100 112 124 123 111 112 119 113 110 96 107 139 124 125 127 146 138 137 133 118 105 100 87 67 63 69 67 61 63 74 84 84 88 100 133 152 119 87 100 125 126 125 137 87 72 119 141 141 140 47 1 0 0 0 0 0 0 0 0 0 0 0 0 0 0 0 0 0 0 0 0 0 0 0 0 0 0 0 0 0 0 0 0 0 0 0 0 0 
0 0 0 0 0 0 0 0 0 0 0 0 8 20 88 156 161 116 122 118 91 105 142 98 83 88 87 100 97 87 80 99 89 60 52 52 52 57 70 96 115 130 137 135 116 111 111 106 99 96 116 138 121 119 121 124 146 131 133 128 114 91 67 54 63 74 66 67 64 71 83 84 87 99 139 151 117 81 99 143 162 133 139 87 75 120 127 128 138 51 2 0 0 0 0 0 0 0 0 0 0 0 0 0 0 0 0 0 0 0 0 0 0 0 0 0 0 0 0 0 0 0 0 0 0 0 0 0 
0 0 0 0 0 0 0 0 0 0 0 0 8 18 83 152 155 107 119 117 86 107 142 89 77 88 87 96 96 88 76 83 101 62 53 52 50 56 71 103 118 123 124 124 126 120 111 101 100 101 137 123 112 116 133 132 147 146 137 130 108 86 61 54 66 66 67 65 64 71 80 83 87 98 143 154 115 74 104 139 172 138 141 91 75 119 119 124 134 51 2 0 0 0 0 0 0 0 0 0 0 0 0 0 0 0 0 0 0 0 0 0 0 0 0 0 0 0 0 0 0 0 0 0 0 0 0 0 
0 0 0 0 0 0 0 0 0 0 0 0 7 15 78 146 145 106 109 109 87 107 143 86 72 89 88 89 97 89 78 72 105 77 53 54 51 55 69 99 123 130 119 107 113 110 112 92 89 104 134 109 99 101 119 112 121 148 141 129 109 87 64 63 67 63 61 59 61 69 81 86 87 106 153 156 104 70 107 132 174 139 136 88 77 119 118 133 123 44 2 0 0 0 0 0 0 0 0 0 0 0 0 0 0 0 0 0 0 0 0 0 0 0 0 0 0 0 0 0 0 0 0 0 0 0 0 0 
0 0 0 0 0 0 0 0 0 0 0 0 5 15 71 142 141 109 97 107 89 104 142 93 65 85 91 90 99 94 81 69 89 98 58 53 53 57 65 89 123 136 130 107 102 102 110 99 96 120 120 99 97 101 113 96 108 147 158 136 110 85 66 63 63 61 60 60 61 69 83 86 90 121 158 147 92 78 107 123 173 138 129 87 77 120 119 138 120 41 2 0 0 0 0 0 0 0 0 0 0 0 0 0 0 0 0 0 0 0 0 0 0 0 0 0 0 0 0 0 0 0 0 0 0 0 0 0 
0 0 0 0 0 0 0 0 0 0 0 0 3 15 64 139 139 115 98 106 94 103 145 112 62 74 88 87 95 95 87 69 73 105 69 51 56 63 73 103 131 135 132 111 102 102 106 92 108 132 106 100 98 107 118 106 112 131 162 142 115 86 67 59 60 64 61 61 55 66 84 92 99 133 155 138 79 87 110 115 170 140 122 81 79 115 115 143 112 38 2 0 0 0 0 0 0 0 0 0 0 0 0 0 0 0 0 0 0 0 0 0 0 0 0 0 0 0 0 0 0 0 0 0 0 0 0 0 
0 0 0 0 0 0 0 0 0 0 0 0 0 16 57 132 141 122 98 103 97 99 137 127 67 63 82 89 94 101 97 73 61 84 80 53 55 67 90 121 138 137 122 116 111 106 96 98 140 125 87 92 92 104 118 109 112 117 145 155 132 105 70 62 68 68 63 57 55 67 85 95 105 139 141 116 66 81 109 112 164 142 108 76 79 115 115 143 99 35 2 0 0 0 0 0 0 0 0 0 0 0 0 0 0 0 0 0 0 0 0 0 0 0 0 0 0 0 0 0 0 0 0 0 0 0 0 0 
0 0 0 0 0 0 0 0 0 6 5 0 1 14 52 122 141 128 96 95 98 94 132 137 77 54 77 89 94 108 107 77 63 61 79 62 57 70 95 129 140 139 128 118 122 126 103 127 150 101 87 95 92 108 119 118 119 120 131 164 142 99 79 72 73 67 66 63 63 77 91 95 118 132 105 71 55 92 111 114 157 142 88 75 81 113 115 145 83 33 2 0 0 0 0 0 0 0 0 0 0 0 0 0 0 0 0 0 0 0 0 0 0 0 0 0 0 0 0 0 0 0 0 0 0 0 0 0 
0 0 0 0 0 0 0 0 0 0 3 5 4 15 45 112 150 134 91 90 96 94 123 136 88 47 70 85 93 122 128 91 66 51 64 79 64 77 99 131 144 142 132 117 114 116 128 146 146 103 82 84 91 99 104 104 135 134 131 161 173 120 77 67 64 62 76 74 67 75 87 94 121 106 76 51 63 112 116 114 157 139 76 75 88 107 122 137 71 29 1 0 0 0 0 0 0 0 0 0 0 0 0 0 0 0 0 0 0 0 0 0 0 0 0 0 0 0 0 0 0 0 0 0 0 0 0 0 
0 0 0 0 0 0 0 0 0 0 2 12 6 13 39 97 146 140 87 84 83 97 111 139 104 49 59 81 92 129 132 113 74 60 59 83 86 94 112 131 141 137 127 117 125 133 141 162 143 88 82 88 91 102 104 108 122 144 137 156 179 125 82 73 68 56 59 61 70 80 85 89 99 100 69 57 111 156 144 134 158 142 69 74 101 108 140 122 66 25 1 0 0 0 0 0 0 0 0 0 0 0 0 0 0 0 0 0 0 0 0 0 0 0 0 0 0 0 0 0 0 0 0 0 0 0 0 0 
0 0 0 0 0 0 0 0 0 0 6 15 6 12 33 85 140 146 94 86 85 96 97 131 120 56 51 78 98 126 131 128 97 67 66 70 78 94 111 127 139 140 130 134 138 143 164 175 134 100 88 95 95 109 105 110 120 130 134 158 169 135 92 77 75 62 60 59 69 90 120 121 119 110 96 97 123 141 151 134 151 157 85 91 96 122 157 99 64 19 1 0 0 7 3 0 0 0 0 0 0 0 0 0 0 0 0 0 0 0 0 0 0 0 0 0 0 0 0 0 0 0 0 0 0 0 0 0 
0 0 0 0 0 0 0 0 0 0 7 11 0 11 30 77 131 147 96 82 89 86 95 124 134 77 46 67 95 121 128 118 105 78 56 59 67 90 94 115 133 137 140 139 144 157 170 170 127 94 97 100 97 106 107 105 117 126 134 158 157 118 78 65 64 70 93 96 89 102 124 133 121 109 101 116 135 150 160 142 127 148 119 104 71 125 156 83 65 15 5 3 3 0 0 0 0 0 0 0 0 0 0 0 0 0 0 0 0 0 0 0 0 0 0 0 0 0 0 0 0 0 0 0 0 0 0 0 
0 0 0 0 0 0 0 0 0 0 5 10 0 9 23 69 116 155 112 77 90 72 92 105 153 131 58 59 100 113 106 96 85 74 68 63 71 84 86 100 118 131 145 147 158 152 157 166 133 105 97 104 100 107 107 94 96 113 122 148 146 106 68 60 62 82 128 150 150 150 135 147 136 113 106 104 141 156 162 125 97 148 148 101 99 146 123 68 62 10 10 9 8 0 0 0 0 0 0 0 0 0 0 0 0 0 0 0 0 0 0 0 0 0 0 0 0 0 0 0 0 0 0 0 0 0 0 0 
0 0 0 0 0 0 0 0 0 0 3 10 1 8 15 58 100 156 126 80 94 71 72 110 177 148 77 64 98 112 95 96 104 86 65 57 62 65 78 84 91 99 109 128 144 136 138 149 128 91 93 94 86 99 85 69 77 97 105 118 142 126 86 68 66 68 104 156 170 152 159 178 189 168 120 125 135 151 148 128 104 146 162 115 132 150 86 60 48 8 5 0 9 1 0 0 0 0 0 0 0 0 0 0 0 0 0 0 0 0 0 0 0 0 0 0 0 0 0 0 0 0 0 0 0 0 0 0 
0 0 0 0 0 0 0 0 0 0 1 10 3 9 15 52 89 155 136 101 103 95 61 105 155 161 88 72 122 135 112 100 106 112 116 92 106 110 88 90 86 80 109 121 122 125 124 145 106 66 81 68 69 86 57 52 68 100 118 120 138 105 101 90 68 88 122 134 142 141 159 188 190 161 100 146 153 149 147 163 149 145 174 168 159 154 100 74 30 10 2 0 5 2 0 0 0 0 0 0 0 0 0 0 0 0 0 0 0 0 0 0 0 0 0 0 0 0 0 0 0 0 0 0 0 0 0 0 
0 0 0 0 0 0 0 0 0 0 1 10 0 2 5 32 82 151 146 118 123 130 71 99 165 164 131 105 113 132 117 124 136 145 163 153 153 138 106 72 62 95 94 97 118 120 104 135 89 62 57 53 63 87 51 59 73 82 94 115 120 107 96 108 76 64 111 142 135 133 158 179 174 145 139 140 142 125 145 161 169 181 200 132 129 137 85 65 17 1 0 0 3 4 0 0 0 0 0 0 0 0 0 0 0 0 0 0 0 0 0 0 0 0 0 0 0 0 0 0 0 0 0 0 0 0 0 0 
0 0 0 0 0 0 0 0 0 0 0 6 1 0 4 9 46 115 163 137 124 145 152 112 168 167 122 112 122 126 136 154 168 168 158 159 163 155 128 71 62 86 98 97 94 94 104 128 101 67 61 60 60 102 87 71 81 88 77 94 98 76 77 72 70 76 85 130 127 131 150 173 155 136 149 158 150 126 132 167 163 162 191 150 136 146 99 70 8 0 0 0 0 4 0 0 0 0 0 0 0 0 0 0 0 0 0 0 0 0 0 0 0 0 0 0 0 0 0 0 0 0 0 0 0 0 0 0 
0 0 0 0 0 0 0 0 0 0 0 6 1 0 4 8 30 97 166 152 133 140 151 139 162 161 127 126 138 106 110 159 176 165 152 153 136 132 119 67 52 59 70 75 84 89 100 113 84 79 87 94 86 107 99 84 62 66 63 66 98 82 80 79 85 97 89 99 124 125 137 126 124 142 151 149 118 94 118 141 137 188 205 154 106 148 93 44 2 0 0 0 0 2 0 0 0 0 0 0 0 0 0 0 0 0 0 0 0 0 0 0 0 0 0 0 0 0 0 0 0 0 0 0 0 0 0 0 
0 0 0 0 0 0 0 0 0 0 0 5 0 0 3 5 21 72 155 169 125 129 125 126 152 162 137 128 142 142 104 142 173 144 135 141 132 138 118 66 52 51 65 66 70 67 85 99 78 84 91 79 68 87 95 75 49 72 64 50 71 105 81 78 88 96 86 93 118 128 132 116 98 124 128 128 98 111 111 109 119 168 177 162 132 130 75 22 1 0 0 0 0 2 0 0 0 0 0 0 0 0 0 0 0 0 0 0 0 0 0 0 0 0 0 0 0 0 0 0 0 0 0 0 0 0 0 0 
0 0 0 0 0 0 0 0 0 0 1 5 0 0 1 7 19 51 129 178 144 112 120 126 128 122 105 118 125 161 137 99 127 134 140 145 132 110 113 106 78 68 69 66 61 61 84 99 101 97 82 71 72 72 79 77 53 67 48 40 73 126 103 93 87 87 90 92 96 103 120 106 119 128 118 100 94 109 99 103 124 121 149 179 160 95 59 13 2 1 0 0 0 3 0 0 0 0 0 0 0 0 0 0 0 0 0 0 0 0 0 0 0 0 0 0 0 0 0 0 0 0 0 0 0 0 0 0 
0 0 0 0 0 0 0 0 0 0 1 5 1 0 3 7 20 33 100 171 128 97 123 147 138 93 92 120 135 159 171 129 110 121 119 128 99 81 95 114 89 76 80 85 80 78 94 117 127 107 75 70 71 72 79 86 81 87 77 82 113 140 119 100 99 98 92 76 65 95 120 144 162 145 128 104 91 84 126 154 153 121 137 173 119 69 44 15 4 2 0 0 0 4 0 0 0 0 0 0 0 0 0 0 0 0 0 0 0 0 0 0 0 0 0 0 0 0 0 0 0 0 0 0 0 0 0 0 
0 0 0 0 0 0 0 0 0 0 1 7 3 0 6 11 16 21 68 139 127 112 121 158 152 92 96 114 132 146 175 156 133 75 74 107 117 95 82 102 80 85 87 100 93 88 100 125 112 112 126 101 70 73 94 98 85 105 121 118 114 134 121 95 96 99 74 52 79 144 144 166 151 132 104 95 70 80 126 132 117 101 155 175 75 58 26 19 10 3 0 0 0 3 0 0 0 0 0 0 0 0 0 0 0 0 0 0 0 0 0 0 0 0 0 0 0 0 0 0 0 0 0 0 0 0 0 0 
0 0 0 0 0 0 0 0 0 0 1 7 6 1 6 7 13 13 44 99 153 135 112 143 171 134 107 106 105 124 163 153 139 114 98 99 93 102 110 100 100 90 84 85 93 113 110 128 112 133 151 147 140 143 135 125 141 132 117 107 108 138 158 115 98 73 56 65 121 168 143 129 136 107 96 86 75 113 144 140 99 97 175 167 72 50 14 17 17 6 1 0 0 4 0 0 0 0 0 0 0 0 0 0 0 0 0 0 0 0 0 0 0 0 0 0 0 0 0 0 0 0 0 0 0 0 0 0 
0 0 0 0 0 0 0 0 0 0 3 7 7 3 2 4 14 12 27 73 137 140 99 113 149 157 134 104 94 107 148 174 149 131 123 127 87 63 75 107 116 92 89 89 111 142 143 157 164 173 157 142 146 159 171 156 141 132 130 127 134 157 188 175 141 105 94 119 149 155 140 123 128 133 106 94 109 138 175 130 89 100 157 135 75 35 12 15 14 7 2 0 0 5 1 0 0 0 0 0 0 0 0 0 0 0 0 0 0 0 0 0 0 0 0 0 0 0 0 0 0 0 0 0 0 0 0 0 
0 0 0 0 0 0 0 0 0 0 3 7 6 4 1 0 11 16 18 55 118 157 114 85 116 140 150 126 111 111 128 155 155 133 116 114 106 97 85 93 122 124 121 131 161 174 179 169 154 152 146 139 144 149 169 179 172 157 156 159 165 163 173 180 166 170 154 150 148 127 126 107 112 144 126 121 116 137 154 110 101 105 128 116 69 19 14 5 6 8 4 0 2 6 2 0 0 0 0 0 0 0 0 0 0 0 0 0 0 0 0 0 0 0 0 0 0 0 0 0 0 0 0 0 0 0 0 0 
0 0 0 0 0 0 0 0 0 0 1 6 6 1 0 0 1 15 17 31 97 145 113 85 98 117 142 154 107 117 119 119 128 127 119 107 102 104 102 105 110 136 135 128 140 155 164 165 137 134 137 127 137 144 157 171 175 158 144 136 146 147 160 157 169 159 163 155 139 103 88 87 114 136 128 145 128 123 120 109 101 84 99 117 58 17 12 1 2 6 3 2 5 7 3 0 0 0 0 0 0 0 0 0 0 0 0 0 0 0 0 0 0 0 0 0 0 0 0 0 0 0 0 0 0 0 0 0 
0 0 0 0 0 0 0 0 0 0 0 2 13 8 0 0 0 6 16 17 71 147 132 109 110 113 146 138 115 101 129 125 100 94 95 102 105 107 112 120 128 147 157 137 140 147 135 131 115 112 118 135 140 126 116 135 138 139 128 123 125 143 159 143 162 134 126 118 98 71 73 92 118 118 132 147 119 111 138 126 76 49 97 106 37 21 6 0 0 4 2 3 6 7 4 0 0 0 0 0 0 0 0 0 0 0 0 0 0 0 0 0 0 0 0 0 0 0 0 0 0 0 0 0 0 0 0 0 
0 0 0 0 0 0 0 0 0 0 0 6 13 12 5 5 4 6 19 16 40 128 126 85 92 100 139 106 129 108 106 127 136 107 83 79 80 93 107 118 138 161 180 182 164 163 134 123 119 119 142 149 144 155 140 123 136 146 133 106 102 122 127 132 145 114 110 134 133 98 87 93 101 109 138 132 141 135 175 91 26 53 127 93 22 20 5 4 6 7 4 1 5 7 5 0 0 0 0 0 0 0 0 0 0 0 0 0 0 0 0 0 0 0 0 0 0 0 0 0 0 0 0 0 0 0 0 0 
0 0 0 0 0 0 0 0 0 0 0 5 11 10 7 5 5 11 14 16 25 89 133 74 69 95 147 114 125 127 110 125 153 131 112 110 110 95 75 61 76 119 146 161 167 175 130 108 107 124 147 152 158 163 142 107 102 107 109 82 79 103 95 119 164 163 140 162 164 113 91 78 86 113 134 130 159 154 160 74 23 22 113 61 15 17 8 5 5 6 1 0 5 7 1 0 0 0 0 0 0 0 0 0 0 0 0 0 0 0 0 0 0 0 0 0 0 0 0 0 0 0 0 0 0 0 0 0 
0 0 0 0 0 0 0 0 0 0 0 1 11 9 10 13 15 10 10 13 20 46 122 78 73 67 118 137 160 183 166 119 96 107 107 102 99 97 95 92 89 123 148 141 147 171 140 109 101 106 141 154 139 156 142 120 115 116 119 104 122 140 116 138 183 181 134 140 149 150 135 97 110 139 133 122 129 125 153 62 28 86 109 24 7 6 14 4 4 1 0 1 16 3 0 0 0 0 0 0 0 0 0 0 0 0 0 0 0 0 0 0 0 0 0 0 0 0 0 0 0 0 0 0 0 0 0 0 
0 0 0 0 0 0 0 0 0 0 0 0 11 10 9 7 10 5 8 14 22 31 74 51 50 72 101 156 152 181 192 164 130 111 90 86 113 135 141 120 113 149 167 154 158 158 136 136 134 136 156 150 138 169 177 148 118 137 152 153 161 164 175 183 183 159 136 183 201 150 163 188 171 163 125 101 115 94 151 91 98 105 45 4 2 1 1 6 1 0 1 7 7 1 0 0 0 0 0 0 0 0 0 0 0 0 0 0 0 0 0 0 0 0 0 0 0 0 0 0 0 0 0 0 0 0 0 0 
0 0 0 0 0 0 0 0 0 0 0 0 4 7 3 0 0 4 5 13 17 27 44 69 42 50 80 149 133 169 166 162 163 155 129 96 109 106 79 100 138 163 166 169 169 168 189 181 187 179 178 186 179 184 183 156 142 178 185 185 181 179 197 233 199 175 185 197 180 160 147 139 142 127 102 104 125 86 136 107 93 39 14 14 8 0 0 3 1 3 9 8 5 0 0 0 0 0 0 0 0 0 0 0 0 0 0 0 0 0 0 0 0 0 0 0 0 0 0 0 0 0 0 0 0 0 0 0 
0 0 0 0 0 0 0 0 0 0 0 0 0 5 1 0 0 0 2 11 11 14 29 59 84 101 77 104 104 107 74 65 103 127 140 145 140 119 115 112 141 147 148 137 193 155 175 190 190 150 149 141 128 147 144 109 100 128 119 143 157 149 150 187 146 148 152 122 141 154 172 161 117 89 61 85 125 116 113 53 32 28 23 23 17 0 0 0 0 0 0 7 5 0 0 0 0 0 0 0 0 0 0 0 0 0 0 0 0 0 0 0 0 0 0 0 0 0 0 0 0 0 0 0 0 0 0 0 
0 0 0 0 0 0 0 0 0 0 0 0 0 5 8 8 2 0 1 4 9 15 23 26 50 94 53 72 98 83 60 39 52 62 80 72 61 63 57 49 55 108 95 93 103 145 115 128 148 102 80 81 94 99 95 102 89 72 77 101 96 102 130 149 113 130 70 42 78 84 71 78 60 46 38 70 110 89 79 22 27 23 16 5 4 0 0 0 0 0 1 9 11 0 0 0 0 0 0 0 0 0 0 0 0 0 0 0 0 0 0 0 0 0 0 0 0 0 0 0 0 0 0 0 0 0 0 0 
0 0 0 0 0 0 0 0 0 0 0 0 0 0 9 8 4 0 0 1 7 10 17 17 24 23 18 39 96 76 59 42 44 49 71 60 42 45 72 75 78 65 69 65 75 78 72 77 68 51 47 67 96 93 86 87 61 52 68 67 70 113 134 117 89 99 148 168 171 179 78 76 51 33 26 63 107 86 67 28 29 24 13 4 2 0 0 0 3 7 7 9 3 0 0 0 0 0 0 0 0 0 0 0 0 0 0 0 0 0 0 0 0 0 0 0 0 0 0 0 0 0 0 0 0 0 0 0 
0 0 0 0 0 0 0 0 0 0 0 0 0 0 0 0 0 0 0 0 5 10 10 16 19 27 21 28 79 66 53 39 43 48 66 52 44 86 102 92 126 150 150 145 127 91 75 81 80 53 60 86 102 89 83 88 57 39 51 61 80 108 88 94 102 107 75 92 110 158 121 172 106 58 33 61 103 81 50 21 24 23 11 5 2 0 0 0 2 4 5 2 0 0 0 0 0 0 0 0 0 0 0 0 0 0 0 0 0 0 0 0 0 0 0 0 0 0 0 0 0 0 0 0 0 0 0 0 
0 0 0 0 0 0 0 0 0 0 0 0 0 0 0 0 0 0 0 0 1 6 2 5 10 17 18 25 75 69 61 43 41 53 81 76 72 108 80 103 163 186 158 154 166 191 180 170 154 121 103 103 118 108 112 116 87 73 66 93 101 123 121 129 159 132 126 113 86 153 115 123 82 54 38 52 82 92 47 26 24 28 5 1 0 0 0 0 0 0 0 0 0 0 0 0 0 0 0 0 0 0 0 0 0 0 0 0 0 0 0 0 0 0 0 0 0 0 0 0 0 0 0 0 0 0 0 0 
0 0 0 0 0 0 0 0 0 0 0 0 0 0 0 0 0 0 0 0 0 7 4 1 7 6 7 23 70 79 57 45 37 43 71 75 69 117 114 83 171 202 156 128 128 131 126 169 157 179 224 182 191 192 195 183 156 133 111 94 96 122 143 116 132 182 198 94 111 142 111 106 34 10 12 44 61 59 16 5 1 4 0 0 0 0 0 0 0 0 0 0 0 0 0 0 0 0 0 0 0 0 0 0 0 0 0 0 0 0 0 0 0 0 0 0 0 0 0 0 0 0 0 0 0 0 0 0 
0 0 0 0 0 0 0 0 0 0 0 0 0 0 0 0 0 0 0 0 0 0 4 2 12 15 15 20 46 59 43 43 29 28 60 53 52 55 100 162 145 123 164 114 167 119 148 185 181 131 125 121 124 122 117 114 119 121 113 117 133 142 153 141 140 125 169 151 147 98 149 45 24 9 14 54 59 58 13 5 8 10 3 1 0 0 0 0 0 0 0 0 0 0 0 0 0 0 0 0 0 0 0 0 0 0 0 0 0 0 0 0 0 0 0 0 0 0 0 0 0 0 0 0 0 0 0 0 
0 0 0 0 0 0 0 0 0 0 0 0 0 0 0 0 0 0 0 0 0 0 4 8 8 14 19 13 37 50 41 51 41 52 106 108 67 34 72 151 152 162 139 110 108 102 114 128 149 93 90 89 67 69 75 82 84 91 84 86 86 114 142 172 144 78 118 120 120 121 57 55 56 44 40 82 61 62 25 13 15 13 4 1 0 0 0 0 0 0 0 0 0 0 0 0 0 0 0 0 0 0 0 0 0 0 0 0 0 0 0 0 0 0 0 0 0 0 0 0 0 0 0 0 0 0 0 0 
0 0 0 0 0 0 0 0 0 0 0 0 0 0 0 0 0 0 0 0 0 0 2 7 6 13 19 13 20 49 36 49 38 49 113 99 94 105 105 141 135 130 118 78 88 120 88 141 160 91 64 51 49 53 56 54 60 85 82 79 93 124 162 173 100 82 85 58 63 109 110 106 117 126 77 74 63 68 27 15 17 11 4 1 0 0 0 0 0 0 0 0 0 0 0 0 0 0 0 0 0 0 0 0 0 0 0 0 0 0 0 0 0 0 0 0 0 0 0 0 0 0 0 0 0 0 0 0 
0 0 0 0 0 0 0 0 0 0 0 0 0 0 0 0 0 0 0 0 0 0 1 4 10 4 16 18 14 34 40 51 47 54 120 76 33 51 70 116 108 90 116 73 59 82 144 174 169 103 96 101 66 52 51 51 61 66 90 107 131 141 159 157 98 55 86 68 58 72 62 48 61 134 124 82 59 58 31 17 18 9 4 0 0 0 0 0 0 0 0 0 0 0 0 0 0 0 0 0 0 0 0 0 0 0 0 0 0 0 0 0 0 0 0 0 0 0 0 0 0 0 0 0 0 0 0 0 
0 0 0 0 0 0 0 0 0 0 0 0 0 0 0 0 0 0 0 0 0 0 0 4 5 7 11 18 16 17 26 47 44 59 121 68 24 29 36 48 53 83 132 77 60 95 154 175 169 112 107 134 98 71 64 66 58 79 115 143 160 169 163 141 77 44 88 99 69 60 45 35 32 96 142 92 72 56 35 15 17 9 3 0 0 0 0 0 0 0 0 0 0 0 0 0 0 0 0 0 0 0 0 0 0 0 0 0 0 0 0 0 0 0 0 0 0 0 0 0 0 0 0 0 0 0 0 0 
0 0 0 0 0 0 0 0 0 0 0 0 0 0 0 0 0 0 0 0 0 0 0 0 4 4 9 15 18 15 17 46 48 59 116 70 30 29 39 43 65 124 111 74 82 85 117 165 149 126 133 141 123 113 105 94 93 118 132 160 172 151 138 116 75 56 72 116 113 64 46 36 34 83 148 79 90 60 20 14 17 8 2 0 0 0 0 0 0 0 0 0 0 0 0 0 0 0 0 0 0 0 0 0 0 0 0 0 0 0 0 0 0 0 0 0 0 0 0 0 0 0 0 0 0 0 0 0 
0 0 0 0 0 0 0 0 0 0 0 0 0 0 0 0 0 0 0 0 0 0 0 0 1 3 6 13 16 17 17 45 52 60 103 77 34 37 41 49 97 105 75 76 76 71 100 131 136 146 155 130 96 114 119 116 111 116 114 134 180 157 116 114 93 66 61 78 125 98 53 43 39 87 157 75 53 19 12 15 16 8 1 0 0 0 0 0 0 0 0 0 0 0 0 0 0 0 0 0 0 0 0 0 0 0 0 0 0 0 0 0 0 0 0 0 0 0 0 0 0 0 0 0 0 0 0 0 
0 0 0 0 0 0 0 0 0 0 0 0 0 0 0 0 0 0 0 0 0 0 0 0 0 3 3 13 14 18 19 38 46 52 86 92 36 37 40 56 95 80 63 56 69 75 99 123 134 139 149 105 72 89 101 105 91 88 83 103 159 149 108 102 90 64 52 61 90 107 53 47 42 73 149 83 29 13 13 16 16 8 1 0 0 0 0 0 0 0 0 0 0 0 0 0 0 0 0 0 0 0 0 0 0 0 0 0 0 0 0 0 0 0 0 0 0 0 0 0 0 0 0 0 0 0 0 0 
0 0 0 0 0 0 0 0 0 0 0 0 0 0 0 0 0 0 0 0 0 0 0 0 0 4 1 10 16 20 20 25 41 28 64 95 38 32 39 56 82 74 62 61 75 73 97 117 142 138 119 86 65 68 84 89 70 72 81 95 131 136 96 99 88 62 47 57 78 104 56 41 39 77 127 38 14 14 16 20 18 7 0 0 0 0 0 0 0 0 0 0 0 0 0 0 0 0 0 0 0 0 0 0 0 0 0 0 0 0 0 0 0 0 0 0 0 0 0 0 0 0 0 0 0 0 0 0 
0 0 0 0 0 0 0 0 0 0 0 0 0 0 0 0 0 0 0 0 0 0 0 0 0 0 3 2 16 19 21 20 15 15 32 103 54 36 55 92 86 66 55 63 83 75 94 106 138 136 94 65 58 51 58 76 82 82 81 83 123 145 105 88 72 48 44 46 65 112 107 63 58 112 113 28 13 12 15 18 17 6 0 0 0 0 0 0 0 0 0 0 0 0 0 0 0 0 0 0 0 0 0 0 0 0 0 0 0 0 0 0 0 0 0 0 0 0 0 0 0 0 0 0 0 0 0 0 
0 0 0 0 0 0 0 0 0 0 0 0 0 0 0 0 0 0 0 0 0 0 0 0 0 0 2 2 10 12 19 18 16 13 16 73 106 74 99 104 82 76 49 59 78 77 94 88 127 126 88 65 62 73 63 65 81 64 67 75 128 145 89 60 75 50 38 39 67 105 127 100 92 128 57 22 10 12 15 15 13 5 0 0 0 0 0 0 0 0 0 0 0 0 0 0 0 0 0 0 0 0 0 0 0 0 0 0 0 0 0 0 0 0 0 0 0 0 0 0 0 0 0 0 0 0 0 0 
0 0 0 0 0 0 0 0 0 0 0 0 0 0 0 0 0 0 0 0 0 0 0 0 0 0 0 4 9 9 14 18 15 14 12 17 50 83 73 61 77 80 44 48 79 99 91 72 108 121 91 70 65 69 56 73 90 74 73 81 135 166 91 52 83 78 40 34 67 90 80 76 82 53 27 16 7 12 12 15 11 4 0 0 0 0 0 0 0 0 0 0 0 0 0 0 0 0 0 0 0 0 0 0 0 0 0 0 0 0 0 0 0 0 0 0 0 0 0 0 0 0 0 0 0 0 0 0 
0 0 0 0 0 0 0 0 0 0 0 0 0 0 0 0 0 0 0 0 0 0 0 0 0 0 0 4 3 10 12 16 14 12 7 11 12 23 24 28 63 88 62 45 80 112 88 68 109 141 102 68 63 67 69 81 84 99 98 106 123 146 108 61 76 87 60 43 75 86 44 31 28 30 25 17 7 9 11 15 10 4 0 0 0 0 0 0 0 0 0 0 0 0 0 0 0 0 0 0 0 0 0 0 0 0 0 0 0 0 0 0 0 0 0 0 0 0 0 0 0 0 0 0 0 0 0 0 
0 0 0 0 0 0 0 0 0 0 0 0 0 0 0 0 0 0 0 0 0 0 0 0 0 0 0 1 4 6 10 15 16 15 12 14 13 17 28 27 41 81 76 65 103 107 80 73 117 153 106 71 61 93 100 98 97 92 104 111 123 156 139 84 76 97 89 72 87 68 31 27 25 29 25 13 11 6 12 13 10 3 0 0 0 0 0 0 0 0 0 0 0 0 0 0 0 0 0 0 0 0 0 0 0 0 0 0 0 0 0 0 0 0 0 0 0 0 0 0 0 0 0 0 0 0 0 0 
0 0 0 0 0 0 0 0 0 0 0 0 0 0 0 0 0 0 0 0 0 0 0 0 0 0 0 0 2 6 11 13 12 17 13 12 12 15 28 31 31 55 83 92 107 101 81 83 139 161 112 69 69 84 85 100 102 103 91 93 120 161 161 111 79 104 113 95 80 41 27 24 23 26 20 11 8 6 14 14 9 2 0 0 0 0 0 0 0 0 0 0 0 0 0 0 0 0 0 0 0 0 0 0 0 0 0 0 0 0 0 0 0 0 0 0 0 0 0 0 0 0 0 0 0 0 0 0 
0 0 0 0 0 0 0 0 0 0 0 0 0 0 0 0 0 0 0 0 0 0 0 0 0 0 0 0 0 7 6 15 12 13 15 11 10 13 31 31 28 30 42 72 100 86 75 86 131 153 143 109 107 104 102 104 109 125 122 107 125 165 173 119 80 82 97 75 49 37 22 21 25 27 12 7 7 10 14 15 8 2 0 0 0 0 0 0 0 0 0 0 0 0 0 0 0 0 0 0 0 0 0 0 0 0 0 0 0 0 0 0 0 0 0 0 0 0 0 0 0 0 0 0 0 0 0 0 
0 0 0 0 0 0 0 0 0 0 0 0 0 0 0 0 0 0 0 0 0 0 0 0 0 0 0 0 0 5 6 12 16 12 14 14 9 13 32 32 31 30 31 41 62 75 69 71 88 136 149 140 139 131 122 120 122 135 152 142 154 166 153 88 78 70 59 52 50 41 21 22 27 30 12 9 9 9 15 16 8 1 0 0 0 0 0 0 0 0 0 0 0 0 0 0 0 0 0 0 0 0 0 0 0 0 0 0 0 0 0 0 0 0 0 0 0 0 0 0 0 0 0 0 0 0 0 0 
