P2
128 99
212
0 0 0 0 0 0 0 0 0 0 0 0 0 0 0 0 0 0 0 0 0 0 0 0 0 0 0 0 0 0 0 0 1 1 1 0 0 0 0 0 0 0 0 0 0 0 0 0 0 0 0 0 0 0 0 0 0 0 0 0 0 0 0 0 0 0 0 0 0 0 0 0 0 0 0 0 0 0 0 0 0 0 0 0 0 0 0 0 0 0 0 0 1 1 1 2 3 0 0 0 0 0 0 0 0 0 0 0 0 0 0 0 0 0 0 0 0 0 0 0 0 0 0 0 0 0 0 0 
0 0 0 0 0 0 0 0 0 0 0 0 0 0 0 0 0 0 0 0 0 0 0 0 0 0 0 0 0 0 0 0 1 1 1 0 0 0 0 0 0 0 0 0 0 0 0 0 0 0 0 0 0 0 0 0 0 0 0 0 0 0 0 0 0 0 0 0 0 0 0 0 0 0 0 0 0 0 0 0 0 0 0 0 0 0 0 0 0 0 0 0 1 1 1 2 2 0 0 0 0 0 0 0 0 0 0 0 0 0 0 0 0 0 0 0 0 0 0 0 0 0 0 0 0 0 0 0 
0 0 0 0 0 0 0 0 0 0 0 0 0 0 0 0 0 0 0 0 0 0 0 0 0 0 0 0 0 0 0 0 1 1 1 0 0 0 0 0 0 0 0 0 0 0 0 0 0 0 0 2 2 2 1 0 0 0 0 0 0 0 0 0 0 0 0 0 0 0 0 0 0 0 0 0 0 0 0 0 0 0 0 0 0 0 0 0 0 0 0 0 0 1 1 2 2 0 0 0 0 0 0 0 0 0 0 0 0 0 0 0 0 0 0 0 0 0 0 0 0 0 0 0 0 0 0 0 
0 0 0 0 0 0 0 0 0 0 0 0 0 0 0 0 0 0 0 0 0 0 0 0 0 0 0 0 0 0 0 0 1 1 0 0 0 0 0 0 0 0 0 1 7 13 17 18 18 19 22 25 28 27 25 21 18 16 14 12 4 0 0 0 0 0 0 0 0 0 0 0 0 0 0 0 0 0 0 0 0 0 0 0 0 0 0 0 0 0 0 0 0 1 1 2 2 0 0 0 0 0 0 0 0 0 0 0 0 0 0 0 0 0 0 0 0 0 0 0 0 0 0 0 0 0 0 0 
0 0 0 0 0 0 0 0 0 0 0 0 0 0 0 0 0 0 0 0 0 0 0 0 0 0 0 0 0 0 0 0 1 1 0 0 0 0 0 0 6 14 20 23 24 33 53 77 100 121 137 148 153 154 150 140 124 104 79 54 33 22 17 10 2 0 0 0 0 0 0 0 0 0 0 0 0 0 0 0 0 0 0 0 0 0 0 0 0 0 0 0 0 1 1 2 2 0 0 0 0 0 0 0 0 0 0 0 0 0 0 0 0 0 0 0 0 0 0 0 0 0 0 0 0 0 0 0 
0 0 0 0 0 0 0 0 0 0 0 0 0 0 0 0 0 0 0 0 0 0 0 0 0 0 0 0 0 0 0 0 0 0 0 0 0 1 9 17 24 25 36 68 111 150 171 181 186 189 191 190 188 188 189 189 188 186 180 170 150 118 79 44 24 16 10 1 0 0 0 0 0 0 0 0 0 0 0 0 0 0 0 0 0 0 0 0 0 0 0 0 0 1 1 2 2 0 0 0 0 0 0 0 0 0 0 0 0 0 0 0 0 0 0 0 0 0 0 0 0 0 0 0 0 0 0 0 
0 0 0 0 0 0 0 0 0 0 0 0 0 0 0 0 0 0 0 0 0 0 0 0 0 0 0 0 0 0 0 0 0 0 0 0 9 21 24 25 52 103 152 178 188 191 192 192 195 197 199 200 200 200 200 200 198 195 193 190 189 184 175 156 122 76 39 18 13 2 0 0 0 0 0 0 0 0 0 0 0 0 0 0 0 0 0 0 0 0 0 0 0 1 1 2 2 0 0 0 0 0 0 0 0 0 0 0 0 0 0 0 0 0 0 0 0 0 0 0 0 0 0 0 0 0 0 0 
0 0 0 0 0 0 0 0 0 0 0 0 0 0 0 0 0 0 0 0 0 0 0 0 0 0 0 0 0 0 0 0 0 0 8 24 24 26 62 124 168 185 190 192 194 197 196 189 183 180 183 190 188 175 173 186 199 205 203 199 196 193 191 190 186 173 148 101 49 22 14 1 0 0 0 0 0 0 0 0 0 0 0 0 0 0 0 0 0 0 0 0 1 1 1 2 3 0 0 0 0 0 0 0 0 0 0 0 0 0 0 0 0 0 0 0 0 0 0 0 0 0 0 0 0 0 0 0 
0 0 0 0 0 0 0 0 0 0 0 0 0 0 0 0 0 0 0 0 0 0 0 0 0 0 0 0 0 0 0 0 5 27 26 23 58 128 172 184 187 190 195 198 195 187 178 166 158 155 156 158 155 148 150 154 163 181 200 208 206 202 198 194 192 190 189 181 156 103 45 23 10 0 0 0 0 0 0 0 0 0 0 0 0 0 0 0 0 0 0 0 1 1 1 2 2 0 0 0 0 0 0 0 0 0 0 0 0 0 0 0 0 0 0 0 0 0 0 0 0 0 0 0 0 0 0 0 
0 0 0 0 0 0 0 0 0 0 0 0 0 0 0 0 0 0 0 0 0 0 0 0 0 0 0 0 0 0 0 23 26 22 41 112 169 183 185 188 193 198 195 180 166 160 154 144 139 136 141 148 149 145 148 150 152 155 167 186 205 209 208 205 200 196 192 191 189 181 148 80 30 19 2 0 0 0 0 0 0 0 0 0 0 0 0 0 0 0 0 0 1 1 1 2 3 0 0 0 0 0 0 0 0 0 0 0 0 0 0 0 0 0 0 0 0 0 0 0 0 0 0 0 0 0 0 0 
0 0 0 0 0 0 0 0 0 0 0 0 0 0 0 0 0 0 0 0 0 0 0 0 0 0 0 0 0 10 28 22 26 84 158 182 185 187 192 197 201 190 171 165 161 152 146 139 136 134 135 139 138 137 142 146 147 146 150 157 173 192 205 211 210 205 201 197 193 192 190 174 120 46 22 6 0 0 0 0 0 0 0 0 0 0 0 0 0 0 0 0 1 1 1 2 3 0 0 0 0 0 0 0 0 0 0 0 0 0 0 0 0 0 0 0 0 0 0 0 0 0 0 0 0 0 0 0 
0 0 0 0 0 0 0 0 0 0 0 0 0 0 0 0 0 0 0 0 0 0 0 0 0 0 0 0 22 25 18 48 132 177 182 187 193 197 201 197 181 172 164 159 155 151 148 143 141 139 133 135 133 132 142 148 148 147 149 152 157 168 185 198 208 212 210 205 201 198 195 192 185 151 68 24 11 0 0 0 0 0 0 0 0 0 0 0 0 0 0 0 1 1 1 2 3 0 0 0 0 0 0 0 0 0 0 0 0 0 0 0 0 0 0 0 0 0 0 0 0 0 0 0 0 0 0 0 
0 0 0 0 0 0 0 0 0 0 0 0 0 0 0 0 0 0 0 0 0 0 0 0 0 0 5 26 21 19 77 158 179 186 191 198 202 203 189 176 171 166 158 155 151 150 150 147 147 139 130 128 126 126 136 144 145 146 148 150 153 163 172 180 189 200 209 212 210 204 199 196 192 185 162 86 25 13 0 0 0 0 0 0 0 0 0 0 0 0 0 0 1 1 1 2 3 0 0 0 0 0 0 0 0 0 0 0 0 0 0 0 0 0 0 0 0 0 0 0 0 0 0 0 0 0 0 0 
0 0 0 0 0 0 0 0 0 0 0 0 0 0 0 0 0 0 0 0 0 0 0 0 0 10 26 18 26 101 168 180 190 197 201 205 199 183 174 168 165 161 156 152 148 148 148 148 139 134 125 124 121 123 128 139 149 151 153 153 153 155 161 169 176 182 189 200 209 211 207 202 195 189 185 167 95 27 13 0 0 0 0 0 0 0 0 0 0 0 0 0 1 1 1 2 3 0 0 0 0 0 0 0 0 0 0 0 0 0 0 0 0 0 0 0 0 0 0 0 0 0 0 0 0 0 0 0 
0 0 0 0 0 0 0 0 0 0 0 0 0 0 0 0 0 0 0 0 0 0 0 0 14 23 17 34 118 170 181 192 200 205 202 190 177 171 168 165 161 157 155 152 148 146 139 132 130 125 122 121 119 121 123 123 133 145 148 148 148 150 154 159 163 168 174 178 186 198 207 209 204 197 190 186 171 105 30 13 0 0 0 0 0 0 0 0 0 0 0 0 1 1 1 2 3 0 0 0 0 0 0 0 0 0 0 0 0 0 0 0 0 0 0 0 0 0 0 0 0 0 0 0 0 0 0 0 
0 0 0 0 0 0 0 0 0 0 0 0 0 0 0 0 0 0 0 0 0 0 3 19 20 15 45 129 168 182 194 201 205 194 179 171 169 167 165 160 157 153 147 139 136 128 123 122 120 120 120 118 116 121 123 123 123 126 136 143 145 144 145 151 157 160 164 164 169 175 186 199 206 204 198 189 186 173 117 36 12 0 0 0 0 1 0 0 0 0 0 0 1 1 1 2 3 0 0 0 0 0 0 0 0 0 0 0 0 0 0 0 0 0 0 0 0 0 0 0 0 0 0 0 0 0 0 0 
0 0 0 0 0 0 0 0 0 0 0 0 0 0 0 0 0 0 0 0 0 5 17 17 16 57 139 167 184 195 203 202 184 172 167 165 163 162 160 157 150 142 137 134 126 120 120 118 121 120 120 115 114 120 122 124 124 124 125 128 131 133 137 141 147 150 153 158 162 165 168 174 190 202 204 197 192 187 173 126 39 9 0 0 0 0 0 0 0 0 0 0 1 1 1 2 3 0 0 0 0 0 0 0 0 0 0 0 0 0 0 0 0 0 0 0 0 0 0 0 0 0 0 0 0 0 0 0 
0 0 0 0 0 0 0 0 0 0 0 0 0 0 0 0 0 0 0 0 7 16 14 19 71 148 167 184 198 204 197 174 164 164 163 159 153 149 148 144 142 140 135 125 121 119 115 117 119 117 115 109 109 118 119 121 123 123 122 125 127 129 130 134 139 141 143 146 150 154 157 161 167 182 195 201 198 192 185 174 130 36 6 0 0 0 0 0 0 0 0 0 1 1 1 2 3 0 0 0 0 0 0 0 0 0 0 0 0 0 0 0 0 0 0 0 0 0 0 0 0 0 0 0 0 0 0 0 
0 0 0 0 0 0 0 0 0 0 0 0 0 0 0 0 0 0 0 6 16 13 20 79 151 167 182 196 203 193 168 159 161 157 154 148 144 143 137 134 131 126 123 119 120 118 114 117 117 113 115 107 109 118 119 121 122 121 121 122 124 125 125 127 127 129 133 139 145 146 145 148 154 161 175 192 201 198 193 184 172 122 28 3 1 0 0 0 0 0 0 0 1 1 1 3 3 0 0 0 0 0 0 0 0 0 0 0 0 0 0 0 0 0 0 0 0 0 0 0 0 0 0 0 0 0 0 0 
0 0 0 0 0 0 0 0 0 0 0 0 0 0 0 0 0 0 5 16 13 20 84 151 166 178 192 201 187 165 159 156 153 152 146 138 134 131 130 125 122 119 119 120 117 114 115 116 114 114 111 107 109 119 119 118 120 120 121 122 121 122 122 120 122 122 127 132 139 144 144 141 145 149 158 170 187 200 199 191 180 167 107 20 2 1 0 0 0 0 0 0 1 1 1 3 3 0 0 0 0 0 0 0 0 0 0 0 0 0 0 0 0 0 0 0 0 0 0 0 0 0 0 0 0 0 0 0 
0 0 0 0 0 0 0 0 0 0 0 0 0 0 0 0 0 2 14 13 19 81 147 162 175 190 200 184 163 156 153 149 148 143 136 130 128 126 123 122 118 117 118 114 111 110 110 110 111 107 100 101 104 113 116 116 118 118 118 121 122 119 118 117 117 118 122 129 134 134 139 140 140 144 149 156 165 183 201 196 187 175 157 83 11 1 0 0 0 0 0 0 1 1 1 3 3 0 0 0 0 0 0 0 0 0 0 0 0 0 0 0 0 0 0 0 0 0 0 0 0 0 0 0 0 0 0 0 
0 0 0 0 0 0 0 0 0 0 0 0 0 0 0 0 0 11 12 17 73 141 157 169 185 197 183 161 155 151 147 144 142 137 127 124 125 122 119 117 116 113 111 111 110 108 105 105 107 99 98 101 103 108 112 113 115 114 115 117 118 116 116 116 114 114 118 123 129 131 129 133 133 136 143 148 155 161 185 200 195 185 169 141 53 4 0 0 0 0 0 0 1 1 1 3 3 0 0 0 0 0 0 0 0 0 0 0 0 0 0 0 0 0 0 0 0 0 0 0 0 0 0 0 0 0 0 0 
0 0 0 0 0 0 0 0 0 0 0 0 0 0 0 0 6 12 14 60 133 151 165 181 194 184 158 153 149 144 141 137 132 127 122 123 123 121 118 116 113 110 110 110 108 105 105 104 101 99 100 103 104 108 108 107 110 110 108 106 108 111 112 111 111 110 111 120 122 128 126 125 129 130 134 141 146 151 157 188 200 193 179 161 117 26 2 0 0 0 0 0 1 1 1 3 3 0 0 0 0 0 0 0 0 0 0 0 0 0 0 0 0 0 0 0 0 0 0 0 0 0 0 0 0 0 0 0 
0 0 0 0 0 0 0 0 0 0 0 0 0 0 0 1 12 13 46 122 146 160 175 190 186 159 150 146 143 141 135 130 128 125 125 123 119 116 114 112 107 102 100 99 101 101 102 104 105 104 108 107 106 108 105 103 106 107 106 106 105 107 108 108 108 111 110 110 118 122 123 121 121 129 130 136 145 146 147 160 192 197 186 171 147 79 7 0 0 0 0 0 1 1 1 3 3 0 0 0 0 0 0 0 0 0 0 0 0 0 0 0 0 0 0 0 0 0 0 0 0 0 0 0 0 0 0 0 
0 0 0 0 0 0 0 0 0 0 0 0 0 0 0 7 11 26 102 137 153 169 185 186 163 149 144 142 140 139 131 127 125 122 121 116 114 111 110 103 98 98 100 101 100 102 104 105 104 104 109 107 104 103 101 102 102 102 103 105 104 103 105 105 106 108 112 111 112 117 118 121 119 121 129 134 142 142 142 145 169 193 190 178 161 122 30 1 0 0 0 0 1 1 1 3 3 0 0 0 0 0 0 0 0 0 0 0 0 0 0 0 0 0 0 0 0 0 0 0 0 0 0 0 0 0 0 0 
0 0 0 0 0 0 0 0 0 0 0 0 0 0 2 9 14 74 129 145 160 178 181 170 149 139 139 138 139 135 130 123 121 122 118 111 110 107 103 99 99 100 100 101 101 102 103 103 101 101 107 106 103 106 102 102 102 102 101 102 103 106 105 104 103 106 107 110 109 112 115 120 120 120 125 132 138 139 139 137 148 179 190 182 167 143 69 4 0 0 0 0 1 1 1 3 3 0 0 0 0 0 0 0 0 0 0 0 0 0 0 0 0 0 0 0 0 0 0 0 0 0 0 0 0 0 0 0 
0 0 0 0 0 0 0 0 0 0 0 0 0 0 6 9 40 113 136 151 170 177 167 158 139 134 136 138 138 133 126 120 121 118 113 105 105 105 102 99 99 99 100 100 101 103 104 102 99 102 110 111 107 106 97 99 102 103 102 100 99 102 104 104 103 102 102 105 109 109 110 117 121 117 121 132 139 138 136 131 136 161 181 184 172 153 106 17 0 0 0 0 1 1 1 3 3 0 0 0 0 0 0 0 0 0 0 0 0 0 0 0 0 0 0 0 0 0 0 0 0 0 0 0 0 0 0 0 
0 0 0 0 0 0 0 0 0 0 0 0 0 0 7 15 83 125 143 159 175 164 161 144 132 132 134 137 134 129 119 117 116 114 109 104 105 103 100 99 99 99 101 100 100 102 103 103 104 102 106 110 110 102 95 95 98 104 103 101 100 99 101 104 107 106 104 105 107 110 109 112 120 120 121 129 137 137 133 128 130 153 171 181 175 159 129 38 2 0 0 0 1 1 1 3 3 0 0 0 0 0 0 0 0 0 0 0 0 0 0 0 0 0 0 0 0 0 0 0 0 0 0 0 0 0 0 0 
0 0 0 0 0 0 0 0 0 0 0 0 0 3 7 37 110 133 148 168 170 159 153 134 129 130 131 134 131 122 119 118 115 112 106 107 105 100 99 100 101 100 99 99 100 102 105 107 106 102 101 104 111 101 96 96 100 102 100 102 101 101 100 101 105 109 105 106 107 109 109 110 118 120 121 128 136 134 129 125 124 148 163 180 177 164 139 61 3 0 0 0 1 1 1 3 3 0 0 0 0 0 0 0 0 0 0 0 0 0 0 0 0 0 0 0 0 0 0 0 0 0 0 0 0 0 0 0 
0 0 0 0 0 0 0 0 0 0 0 0 0 4 9 68 122 138 154 171 157 151 144 128 129 127 128 131 124 121 122 118 116 109 106 105 104 101 102 103 101 99 98 100 102 104 104 105 105 101 98 99 107 97 93 95 95 98 98 99 100 103 101 101 104 107 109 108 109 110 110 111 114 117 121 128 134 128 124 123 118 141 157 176 178 164 145 81 6 0 0 0 1 1 1 3 3 0 0 0 0 0 0 0 0 0 0 0 0 0 0 0 0 0 0 0 0 0 0 0 0 0 0 0 0 0 0 0 
0 0 0 0 0 0 0 0 0 0 0 0 0 5 16 94 128 144 163 164 144 143 137 124 124 123 126 125 118 121 120 119 115 109 108 107 105 103 103 103 103 99 98 99 104 102 99 102 102 98 95 96 104 95 94 94 93 94 97 97 97 100 104 106 105 105 111 111 109 110 112 114 114 115 119 126 128 126 122 121 118 134 151 172 178 166 149 98 10 0 0 0 1 1 2 3 3 0 0 0 0 0 0 0 0 0 0 0 0 0 0 0 0 0 0 0 0 0 0 0 0 0 0 0 0 0 0 0 
0 0 0 0 0 0 0 0 0 0 0 0 1 6 33 111 132 151 164 148 134 137 134 124 119 119 120 122 117 118 119 117 115 112 108 107 105 103 104 102 97 98 98 99 98 96 96 99 100 98 96 96 103 96 96 93 95 95 96 99 98 100 101 105 109 107 111 113 113 110 113 116 117 115 118 124 123 124 119 116 117 132 154 169 179 169 152 113 16 0 0 0 1 1 2 3 3 0 0 0 0 0 0 0 0 0 0 0 0 0 0 0 0 0 0 0 0 0 0 0 0 0 0 0 0 0 0 0 
0 0 0 0 0 0 0 0 0 0 0 0 2 6 50 119 137 156 156 138 129 133 134 122 114 115 118 119 115 115 118 116 115 112 107 110 107 103 99 93 95 97 96 94 93 95 97 97 99 98 96 99 99 98 97 96 96 97 97 98 98 98 100 102 108 114 110 115 118 116 114 115 117 117 116 123 118 118 117 112 112 130 152 164 180 172 156 126 26 0 0 0 1 1 1 3 3 0 0 0 0 0 0 0 0 0 0 0 0 0 0 0 0 0 0 0 0 0 0 0 0 0 0 0 0 0 0 0 
0 0 0 0 0 0 0 0 0 0 0 0 2 7 62 124 143 159 150 135 127 133 135 120 111 111 115 118 114 111 116 115 114 113 111 110 107 103 97 93 94 95 94 93 92 93 95 96 95 94 98 102 99 94 92 89 88 92 94 95 98 98 100 101 105 107 110 112 118 118 117 116 117 117 117 121 114 110 114 113 112 131 152 164 180 177 161 137 37 1 0 0 1 1 1 3 3 0 0 0 0 0 0 0 0 0 0 0 0 0 0 0 0 0 0 0 0 0 0 0 0 0 0 0 0 0 0 0 
0 0 0 0 0 0 0 0 0 0 0 0 3 9 72 128 147 157 149 138 130 132 133 121 113 109 113 115 108 109 117 115 116 113 111 112 107 105 107 99 97 95 94 93 91 92 93 93 93 93 98 102 99 92 89 88 85 86 89 95 96 97 96 95 98 107 111 116 122 122 120 119 118 119 119 121 112 107 111 109 112 136 153 165 179 179 165 147 49 2 0 0 1 1 1 3 3 0 0 0 0 0 0 0 0 0 0 0 0 0 0 0 0 0 0 0 0 0 0 0 0 0 0 0 0 0 0 0 
0 0 0 0 0 0 0 0 0 0 0 0 4 11 80 133 152 160 150 141 133 133 134 124 113 109 112 110 105 108 118 115 117 115 113 114 113 110 112 113 110 104 98 95 94 97 97 97 92 93 96 99 101 94 92 89 87 84 88 94 96 97 95 95 101 111 116 122 122 123 124 123 122 122 120 126 114 108 107 108 115 138 151 163 181 181 169 154 62 3 0 0 1 1 1 3 3 0 0 0 0 0 0 0 0 0 0 0 0 0 0 0 0 0 0 0 0 0 0 0 0 0 0 0 0 0 0 0 
0 0 0 0 0 0 0 0 0 0 0 0 4 12 85 137 156 164 152 145 137 135 136 125 116 110 110 109 103 106 120 119 119 117 119 118 110 100 96 97 94 94 100 100 100 97 100 98 96 94 97 97 104 96 93 93 89 84 88 92 94 96 102 105 100 98 96 97 100 105 110 115 126 133 127 129 127 113 108 112 122 138 149 159 179 183 171 156 77 5 0 0 1 1 1 3 3 0 0 0 0 0 0 0 0 0 0 0 0 0 0 0 0 0 0 0 0 0 0 0 0 0 0 0 0 0 0 0 
0 0 0 0 0 0 0 0 0 0 0 0 5 13 88 140 158 165 150 145 142 140 138 128 120 113 109 104 102 111 125 120 123 123 114 106 96 86 81 84 85 84 86 92 97 105 103 100 94 93 96 97 106 101 95 95 90 84 88 92 95 104 101 95 91 88 92 92 92 96 99 99 109 126 138 137 137 124 112 119 127 137 144 153 173 185 175 159 90 7 0 0 1 1 1 3 3 0 0 0 0 0 0 0 0 0 0 0 0 0 0 0 0 0 0 0 0 0 0 0 0 0 0 0 0 0 0 0 
0 0 0 0 0 0 0 0 0 0 0 0 6 13 92 144 161 163 151 145 141 139 140 136 128 119 112 103 103 119 128 124 127 112 99 92 86 82 82 86 85 83 84 87 90 95 100 102 95 95 97 99 103 104 99 95 90 87 89 94 103 93 90 89 89 93 96 95 97 101 101 98 98 111 135 149 146 135 123 125 130 133 137 147 162 183 177 161 103 10 0 0 1 1 1 3 3 0 0 0 0 0 0 0 0 0 0 0 0 0 0 0 0 0 0 0 0 0 0 0 0 0 0 0 0 0 0 0 
0 0 0 0 0 0 0 0 0 0 0 0 7 14 95 147 161 163 149 143 138 137 136 135 133 123 119 112 108 125 133 132 111 94 92 90 86 85 89 92 90 87 85 88 90 94 94 101 96 97 99 101 107 111 109 100 92 90 89 102 96 88 86 86 91 95 98 99 100 103 106 106 107 114 129 151 151 141 134 130 127 128 131 140 152 176 178 163 117 15 0 0 1 1 1 3 3 0 0 0 0 0 0 0 0 0 0 0 0 0 0 0 0 0 0 0 0 0 0 0 0 0 0 0 0 0 0 0 
0 0 0 0 0 0 0 0 0 0 0 0 7 15 96 148 165 165 144 138 136 136 131 129 130 127 122 121 127 130 137 127 101 93 90 86 84 87 90 89 89 89 87 87 89 90 96 99 100 99 104 110 118 116 120 105 96 91 91 105 89 83 82 87 92 95 98 102 102 105 109 106 112 124 131 136 145 140 141 131 125 122 126 132 143 168 177 163 127 23 0 0 1 1 1 3 3 0 0 0 0 0 0 0 0 0 0 0 0 0 0 0 0 0 0 0 0 0 0 0 0 0 0 0 0 0 0 0 
0 0 0 0 0 0 0 0 0 0 0 0 7 15 99 150 166 166 136 133 133 132 130 124 127 128 123 120 132 137 144 125 109 101 97 92 90 90 87 88 87 89 89 88 88 90 95 99 98 97 102 113 122 116 124 109 98 92 96 101 83 79 83 89 94 96 97 100 103 106 110 108 114 119 121 123 131 140 142 132 121 120 122 123 132 160 176 164 133 33 1 0 1 1 2 3 3 0 0 0 0 0 0 0 0 0 0 0 0 0 0 0 0 0 0 0 0 0 0 0 0 0 0 0 0 0 0 0 
0 0 0 0 0 0 0 0 0 0 0 0 8 16 99 150 167 166 133 132 132 129 125 119 121 120 119 122 130 132 135 126 119 110 102 97 96 93 90 89 89 91 89 89 90 90 92 98 95 97 103 114 116 112 117 114 102 98 99 92 81 82 89 94 95 96 97 98 99 102 107 108 110 112 118 117 123 136 139 132 118 114 114 115 122 149 173 164 137 43 1 0 1 2 2 3 3 0 0 0 0 0 0 0 0 0 0 0 0 0 0 0 0 0 0 0 0 0 0 0 0 0 0 0 0 0 0 0 
0 0 0 0 0 0 0 0 0 0 0 0 8 17 102 153 170 164 130 130 129 124 118 111 114 116 118 121 122 122 123 116 109 106 99 94 92 92 90 86 88 89 90 91 91 90 90 95 99 100 104 105 105 109 108 113 108 104 99 86 83 87 90 92 92 92 92 94 97 99 101 103 108 112 116 112 122 135 138 131 113 111 110 112 115 137 167 164 140 50 2 0 1 2 2 3 3 0 0 0 0 0 0 0 0 0 0 0 0 0 0 0 0 0 0 0 0 0 0 0 0 0 0 0 0 0 0 0 
0 0 0 0 0 0 0 0 0 0 0 0 8 17 102 155 170 159 124 125 120 116 109 103 107 110 115 124 121 115 117 113 102 102 96 91 88 89 89 87 86 87 89 90 87 87 89 92 97 99 110 108 102 103 102 112 109 108 104 87 86 87 91 86 83 86 91 93 95 98 101 102 105 109 110 109 122 134 134 131 117 108 105 107 107 125 154 162 143 57 2 0 1 2 2 3 3 0 0 0 0 0 0 0 0 0 0 0 0 0 0 0 0 0 0 0 0 0 0 0 0 0 0 0 0 0 0 0 
0 0 0 0 0 0 0 0 0 0 0 0 8 18 101 155 170 154 117 116 113 109 102 97 100 103 110 123 122 115 113 112 101 99 93 87 86 86 88 85 86 89 87 86 83 85 90 88 88 102 118 122 111 99 100 92 113 106 98 90 91 91 90 80 81 86 89 93 94 96 99 100 102 108 108 109 122 130 129 134 126 108 105 108 109 121 136 152 144 62 3 0 1 1 2 3 3 0 0 0 0 0 0 0 0 0 0 0 0 0 0 0 0 0 0 0 0 0 0 0 0 0 0 0 0 0 0 0 
0 0 0 0 0 0 0 0 0 0 0 0 8 17 98 154 169 145 115 111 106 104 101 98 99 100 112 120 119 115 111 111 104 97 92 89 87 88 90 88 85 85 86 87 86 89 93 86 84 99 115 121 103 91 92 81 100 113 91 95 92 90 84 82 86 86 91 93 93 95 98 98 100 105 105 111 123 131 136 136 128 109 104 105 109 119 132 151 144 63 3 0 1 1 1 3 3 0 0 0 0 0 0 0 0 0 0 0 0 0 0 0 0 0 0 0 0 0 0 0 0 0 0 0 0 0 0 0 
0 0 0 0 0 0 0 0 0 0 0 0 7 17 93 152 167 137 114 108 106 105 101 99 100 102 112 115 116 115 113 111 105 96 92 89 88 90 90 91 88 83 81 83 85 88 91 83 83 100 116 110 86 80 86 78 84 119 86 91 90 87 82 87 87 88 92 93 94 96 97 96 100 103 103 117 132 139 135 132 129 109 103 102 108 117 132 154 139 61 2 0 1 1 1 3 3 0 0 0 0 0 0 0 0 0 0 0 0 0 0 0 0 0 0 0 0 0 0 0 0 0 0 0 0 0 0 0 
0 0 0 0 0 0 0 0 0 0 0 0 6 15 84 150 165 132 112 107 105 104 101 99 98 102 112 114 113 114 117 112 103 101 94 87 88 92 91 90 88 86 79 77 79 84 89 83 87 104 111 91 86 82 88 75 77 110 103 89 87 83 82 89 88 88 92 94 96 95 96 96 101 100 101 117 138 133 130 130 127 107 103 101 107 114 131 153 133 56 2 0 1 1 1 3 3 0 0 0 0 0 0 0 0 0 0 0 0 0 0 0 0 0 0 0 0 0 0 0 0 0 0 0 0 0 0 0 
0 0 0 0 0 0 0 0 0 0 0 0 4 15 78 146 163 134 114 107 103 102 103 98 96 99 109 115 112 114 118 114 103 100 95 92 92 95 93 92 89 85 82 77 79 82 84 76 89 107 106 88 87 89 94 79 75 89 112 91 86 80 82 87 88 90 94 95 93 92 93 96 99 98 100 117 132 128 127 129 126 106 103 102 104 112 134 150 127 49 2 0 1 1 1 3 3 0 0 0 0 0 0 0 0 0 0 0 0 0 0 0 0 0 0 0 0 0 0 0 0 0 0 0 0 0 0 0 
0 0 0 0 0 0 0 0 0 0 0 0 2 14 72 141 160 139 115 107 102 101 102 101 96 94 106 115 114 115 121 114 102 98 96 93 94 95 96 94 89 84 78 76 75 79 79 78 93 108 93 86 85 93 100 85 79 77 107 101 97 88 83 87 89 90 93 92 89 89 92 97 97 94 99 116 125 124 125 127 123 104 103 101 102 111 137 144 119 44 2 0 1 1 1 3 3 0 0 0 0 0 0 0 0 0 0 0 0 0 0 0 0 0 0 0 0 0 0 0 0 0 0 0 0 0 0 0 
0 0 0 0 0 0 0 0 0 6 5 0 0 12 63 134 155 140 116 105 100 100 101 102 97 91 102 114 115 117 121 111 103 97 97 94 93 93 94 93 91 87 81 76 83 93 90 86 94 97 88 83 84 97 99 87 81 79 92 108 112 107 100 95 91 92 97 94 91 91 93 98 94 93 101 114 119 121 125 129 122 104 100 98 99 112 139 138 108 37 1 0 1 1 2 3 3 0 0 0 0 0 0 0 0 0 0 0 0 0 0 0 0 0 0 0 0 0 0 0 0 0 0 0 0 0 0 0 
0 0 0 0 0 0 0 0 0 3 9 3 1 9 52 125 153 139 116 105 98 99 101 102 96 90 103 115 117 117 118 112 103 98 96 94 92 92 91 93 98 96 92 85 88 91 95 88 100 91 86 82 83 94 94 90 88 83 87 115 120 121 110 101 95 91 94 97 92 89 90 94 92 91 101 116 118 122 125 129 127 106 96 97 98 112 140 132 99 33 1 0 1 1 1 3 3 0 0 0 0 0 0 0 0 0 0 0 0 0 0 0 0 0 0 0 0 0 0 0 0 0 0 0 0 0 0 0 
0 0 0 0 0 0 0 0 0 2 4 9 3 7 41 115 147 138 112 102 96 96 102 103 99 90 103 116 118 115 116 115 103 98 98 93 91 93 93 95 98 95 90 91 101 108 103 93 104 84 83 81 83 97 92 85 90 88 93 121 123 114 106 111 110 107 104 100 93 89 89 94 97 103 106 120 125 123 125 133 135 115 96 97 99 119 140 127 91 26 0 0 1 1 1 3 3 0 0 0 0 0 0 0 0 0 0 0 0 0 0 0 0 0 0 0 0 0 0 0 0 0 0 0 0 0 0 0 
0 0 0 0 0 0 0 0 0 0 3 10 4 7 32 101 141 141 113 104 100 99 100 101 101 93 105 115 118 118 123 122 115 101 99 96 92 96 100 101 102 101 100 102 95 98 93 104 106 83 81 82 82 103 92 86 86 84 90 119 130 114 106 107 111 121 134 130 122 119 124 123 124 127 131 136 126 120 126 136 136 126 103 98 107 128 141 119 84 18 0 0 1 8 5 2 3 0 0 0 0 0 0 0 0 0 0 0 0 0 0 0 0 0 0 0 0 0 0 0 0 0 0 0 0 0 0 0 
0 0 0 0 0 0 0 0 0 0 3 9 5 7 25 90 137 146 116 109 105 97 96 101 100 99 108 112 116 118 123 121 125 127 117 110 109 112 115 114 112 105 90 89 99 98 95 105 107 81 81 86 86 100 92 80 82 84 90 125 132 111 107 104 109 122 146 150 142 145 150 147 144 131 129 137 134 128 127 136 136 127 118 109 107 137 135 114 76 12 3 2 6 4 2 3 3 0 0 0 0 0 0 0 0 0 0 0 0 0 0 0 0 0 0 0 0 0 0 0 0 0 0 0 0 0 0 0 
0 0 0 0 0 0 0 0 0 0 1 9 6 7 19 80 129 150 132 111 105 95 93 100 105 111 112 115 118 120 119 119 117 122 123 125 126 118 115 112 111 103 98 99 100 98 95 104 108 87 85 90 89 105 94 80 82 88 100 130 131 115 105 105 112 125 145 151 149 152 148 141 137 127 131 126 138 142 138 134 136 130 125 126 142 141 119 111 66 8 3 2 5 3 1 3 3 0 0 0 0 0 0 0 0 0 0 0 0 0 0 0 0 0 0 0 0 0 0 0 0 0 0 0 0 0 0 0 
0 0 0 0 0 0 0 0 0 0 1 7 7 9 14 67 120 147 147 116 106 95 97 109 117 115 117 122 120 119 123 127 131 129 123 124 123 120 121 118 112 103 96 93 95 94 95 101 110 97 89 89 91 107 96 83 89 97 107 118 119 115 110 111 118 130 144 146 145 143 140 140 145 147 143 144 147 151 159 153 148 146 143 150 161 138 109 106 51 6 2 2 4 2 1 3 3 0 0 0 0 0 0 0 0 0 0 0 0 0 0 0 0 0 0 0 0 0 0 0 0 0 0 0 0 0 0 0 
0 0 0 0 0 0 0 0 0 0 0 7 8 9 13 54 113 143 151 131 112 110 115 118 124 123 124 132 128 119 133 143 148 153 151 140 138 136 126 113 103 96 95 92 90 92 97 111 112 92 93 95 88 107 94 87 89 101 109 109 115 108 110 114 120 133 149 151 153 150 149 152 154 145 132 139 141 148 160 163 169 172 166 174 176 130 118 102 32 6 4 3 3 2 2 3 3 0 0 0 0 0 0 0 0 0 0 0 0 0 0 0 0 0 0 0 0 0 0 0 0 0 0 0 0 0 0 0 
0 0 0 0 0 0 0 0 0 0 0 7 10 8 9 37 107 140 150 146 134 144 135 133 139 138 139 135 129 129 137 150 154 157 155 145 148 145 133 114 109 104 99 92 91 92 105 113 98 88 90 95 96 116 99 86 84 94 103 102 109 112 109 115 121 122 131 142 148 152 149 145 139 133 132 134 143 146 156 165 167 176 182 178 160 121 119 84 16 5 4 2 2 2 1 3 3 0 0 0 0 0 0 0 0 0 0 0 0 0 0 0 0 0 0 0 0 0 0 0 0 0 0 0 0 0 0 0 
0 0 0 0 0 0 0 0 0 0 0 4 11 7 7 12 61 126 146 147 150 167 174 157 156 154 141 134 134 137 149 157 155 152 157 148 144 146 139 118 110 108 108 100 95 93 102 110 100 89 92 99 99 114 116 93 82 88 95 104 106 105 112 113 115 117 119 132 138 135 129 133 132 130 134 140 144 145 149 160 165 167 169 163 143 119 115 92 17 5 6 3 2 2 2 3 3 0 0 0 0 0 0 0 0 0 0 0 0 0 0 0 0 0 0 0 0 0 0 0 0 0 0 0 0 0 0 0 
0 0 0 0 0 0 0 0 0 0 0 6 9 5 6 9 37 114 148 150 154 170 171 169 165 163 158 150 134 127 140 150 157 156 159 154 149 149 136 113 106 108 110 106 98 97 108 107 102 95 94 102 104 119 117 99 82 81 86 96 105 102 102 110 115 116 122 130 132 122 122 122 118 126 134 141 140 139 138 146 152 168 156 138 115 120 117 63 8 4 6 4 2 2 2 3 3 0 0 0 0 0 0 0 0 0 0 0 0 0 0 0 0 0 0 0 0 0 0 0 0 0 0 0 0 0 0 0 
0 0 0 0 0 0 0 0 0 0 0 6 6 5 5 8 22 91 143 147 147 153 157 148 163 165 159 148 138 133 132 136 143 153 157 155 147 142 128 116 108 108 112 114 102 99 111 102 99 99 99 98 92 111 119 108 85 83 91 97 103 109 108 107 101 101 117 127 130 131 129 123 124 137 144 145 140 144 136 139 145 157 133 121 124 126 108 32 6 4 6 5 2 2 2 3 3 0 0 0 0 0 0 0 0 0 0 0 0 0 0 0 0 0 0 0 0 0 0 0 0 0 0 0 0 0 0 0 
0 0 0 0 0 0 0 0 0 0 0 5 5 5 4 8 17 61 132 145 143 136 145 145 140 147 148 143 139 140 131 127 132 137 140 147 142 136 129 121 105 103 103 100 98 102 115 100 105 113 108 101 94 102 119 120 95 93 99 95 104 116 118 122 110 91 94 103 110 115 124 123 124 140 150 153 148 145 140 139 133 135 130 115 117 118 77 16 7 5 6 3 3 3 2 3 3 0 0 0 0 0 0 0 0 0 0 0 0 0 0 0 0 0 0 0 0 0 0 0 0 0 0 0 0 0 0 0 
0 0 0 0 0 0 0 0 0 0 0 4 5 4 4 8 15 33 112 134 132 130 140 145 142 134 131 130 135 147 145 128 119 120 134 140 137 129 125 108 95 90 99 104 103 106 123 108 115 117 114 109 98 99 122 121 104 100 103 105 108 122 125 126 119 95 87 88 96 104 112 125 136 138 146 154 156 151 149 146 141 136 121 100 102 110 43 11 6 6 6 2 3 3 2 3 3 0 0 0 0 0 0 0 0 0 0 0 0 0 0 0 0 0 0 0 0 0 0 0 0 0 0 0 0 0 0 0 
0 0 0 0 0 0 0 0 0 0 1 3 5 3 3 9 15 17 81 120 122 129 136 143 136 133 131 130 133 146 151 136 116 113 131 140 140 135 116 96 86 96 102 108 107 111 122 121 120 121 126 126 112 110 135 130 114 106 111 116 113 124 127 126 121 104 87 85 95 110 115 131 131 129 138 148 155 159 172 161 144 123 106 86 95 86 20 12 6 7 5 1 2 3 2 3 2 0 0 0 0 0 0 0 0 0 0 0 0 0 0 0 0 0 0 0 0 0 0 0 0 0 0 0 0 0 0 0 
0 0 0 0 0 0 0 0 0 0 1 3 4 4 2 5 13 14 47 116 130 123 134 147 147 139 136 137 141 144 147 132 115 113 117 123 121 114 107 98 90 100 101 109 121 124 125 128 133 136 141 142 146 151 151 140 136 138 130 129 130 139 139 132 125 108 93 92 103 119 115 112 124 121 131 146 158 168 178 167 134 111 96 90 102 57 13 13 7 6 5 1 1 3 2 3 2 0 0 0 0 0 0 0 0 0 0 0 0 0 0 0 0 0 0 0 0 0 0 0 0 0 0 0 0 0 0 0 
0 0 0 0 0 0 0 0 0 0 1 3 5 3 1 5 11 14 26 100 123 111 121 131 154 152 151 142 147 145 147 139 127 123 114 117 107 95 91 104 106 109 113 117 129 139 136 139 146 149 149 152 162 169 172 163 156 151 142 141 147 160 162 152 135 123 120 117 119 125 110 111 122 120 122 146 156 172 168 159 126 102 87 86 97 32 11 12 7 5 5 1 2 3 2 3 2 0 0 0 0 0 0 0 0 0 0 0 0 0 0 0 0 0 0 0 0 0 0 0 0 0 0 0 0 0 0 0 
0 0 0 0 0 0 0 0 0 0 1 3 5 3 1 5 11 13 15 68 117 118 110 117 146 160 159 151 146 144 148 145 132 128 120 116 111 102 101 108 134 133 129 130 136 146 150 148 147 142 141 144 144 144 150 153 150 143 135 138 146 160 167 164 149 143 140 134 140 117 105 106 113 119 115 139 154 173 158 143 128 113 96 100 80 19 10 9 5 5 4 1 2 4 2 3 2 0 0 0 0 0 0 0 0 0 0 0 0 0 0 0 0 0 0 0 0 0 0 0 0 0 0 0 0 0 0 0 
0 0 0 0 0 0 0 0 0 0 1 4 6 3 1 5 9 10 12 41 94 112 112 113 132 153 162 161 147 144 142 144 137 127 117 117 117 118 123 129 137 152 154 146 151 151 152 158 151 146 141 145 142 147 145 146 146 146 137 141 144 155 168 166 165 160 150 154 145 113 99 97 104 116 123 139 155 169 149 126 110 103 108 99 66 16 9 8 5 4 3 2 3 4 2 3 2 0 0 0 0 0 0 0 0 0 0 0 0 0 0 0 0 0 0 0 0 0 0 0 0 0 0 0 0 0 0 0 
0 0 0 0 0 0 0 0 0 0 1 5 13 9 3 5 8 9 11 29 80 112 120 107 118 135 157 161 151 136 137 138 134 121 108 108 111 115 120 129 137 155 165 166 163 159 160 159 150 147 147 154 156 155 150 144 147 150 137 139 139 147 157 163 167 162 155 157 145 110 89 95 110 122 142 154 158 163 148 127 96 86 97 96 58 16 8 6 6 3 2 3 3 4 3 3 2 0 0 0 0 0 0 0 0 0 0 0 0 0 0 0 0 0 0 0 0 0 0 0 0 0 0 0 0 0 0 0 
0 0 0 0 0 0 0 0 0 0 0 5 12 13 9 7 8 10 13 21 64 99 115 114 113 117 145 149 161 138 128 129 134 108 99 102 104 111 115 119 128 146 160 165 165 162 165 161 156 155 156 162 161 158 153 134 135 138 127 125 132 144 145 163 172 171 165 158 144 110 93 95 106 119 158 172 173 170 153 105 87 85 96 90 39 16 5 4 6 4 2 2 3 4 3 3 2 0 0 0 0 0 0 0 0 0 0 0 0 0 0 0 0 0 0 0 0 0 0 0 0 0 0 0 0 0 0 0 
0 0 0 0 0 0 0 0 0 0 0 4 11 11 9 8 9 12 15 16 34 85 114 113 102 114 137 149 163 147 138 130 133 109 92 98 104 108 107 108 116 140 160 160 159 157 154 152 153 154 158 169 164 161 140 116 116 125 127 124 130 148 150 164 177 174 166 157 141 115 98 99 110 133 161 163 171 159 142 96 77 77 76 64 20 15 8 5 5 5 5 5 6 5 3 3 2 0 0 0 0 0 0 0 0 0 0 0 0 0 0 0 0 0 0 0 0 0 0 0 0 0 0 0 0 0 0 0 
0 0 0 0 0 0 0 0 0 0 0 2 11 10 9 9 9 10 13 15 18 49 105 107 106 107 125 149 163 163 153 138 128 122 102 93 94 95 98 104 124 146 156 156 153 151 147 144 145 140 151 152 142 159 153 129 123 128 126 121 138 158 151 170 173 174 167 163 158 125 117 118 133 145 145 144 126 107 105 74 64 84 90 36 12 9 10 7 6 5 5 6 12 6 3 2 2 0 0 0 0 0 0 0 0 0 0 0 0 0 0 0 0 0 0 0 0 0 0 0 0 0 0 0 0 0 0 0 
0 0 0 0 0 0 0 0 0 0 0 0 9 10 6 6 6 5 9 15 19 27 70 98 92 89 113 144 153 164 164 146 132 130 119 102 101 106 114 132 135 161 174 168 170 163 159 165 168 167 165 154 157 175 178 163 154 157 156 151 160 166 178 182 173 173 167 168 163 165 143 142 141 138 115 97 90 88 91 74 93 95 52 18 10 2 2 5 5 5 5 6 8 5 1 2 2 0 0 0 0 0 0 0 0 0 0 0 0 0 0 0 0 0 0 0 0 0 0 0 0 0 0 0 0 0 0 0 
0 0 0 0 0 0 0 0 0 0 0 0 3 7 5 3 2 3 5 10 17 21 36 80 86 74 90 104 104 140 145 147 140 137 128 112 112 117 126 141 170 180 185 182 189 194 191 196 187 177 177 178 176 173 171 165 162 168 174 177 183 188 196 198 192 198 181 183 142 138 141 135 101 88 81 83 83 81 83 73 72 46 27 23 13 2 1 2 2 3 4 7 7 1 1 2 1 0 0 0 0 0 0 0 0 0 0 0 0 0 0 0 0 0 0 0 0 0 0 0 0 0 0 0 0 0 0 0 
0 0 0 0 0 0 0 0 0 0 0 0 0 3 3 2 1 0 1 7 14 20 24 45 79 81 64 57 68 76 94 107 132 135 128 124 116 127 144 162 174 174 180 179 181 191 183 181 183 173 164 171 170 164 159 157 156 156 160 169 173 192 196 176 163 180 178 166 154 136 119 105 88 80 77 86 89 86 68 47 41 39 37 26 18 0 1 1 1 1 2 6 6 0 1 2 1 0 0 0 0 0 0 0 0 0 0 0 0 0 0 0 0 0 0 0 0 0 0 0 0 0 0 0 0 0 0 0 
0 0 0 0 0 0 0 0 0 0 0 0 0 2 5 4 4 3 2 4 10 14 19 22 36 50 35 43 67 62 63 61 80 84 80 92 83 73 74 74 90 117 138 143 138 135 134 119 127 104 99 111 117 115 110 106 93 88 103 103 98 113 100 138 130 152 121 82 63 63 56 64 62 55 56 77 82 81 49 29 28 25 19 8 3 1 4 4 2 2 2 8 5 0 1 2 1 0 0 0 0 0 0 0 0 0 0 0 0 0 0 0 0 0 0 0 0 0 0 0 0 0 0 0 0 0 0 0 
0 0 0 0 0 0 0 0 0 0 0 0 0 0 3 3 3 3 2 1 6 9 13 16 21 22 23 33 66 64 60 63 62 65 63 63 69 60 66 69 81 87 81 80 88 93 82 73 79 80 61 74 88 90 90 88 72 61 74 75 82 99 86 78 76 92 91 92 101 98 64 64 64 55 55 75 83 79 47 29 28 24 16 6 2 1 2 2 2 2 3 4 1 0 1 2 1 0 0 0 0 0 0 0 0 0 0 0 0 0 0 0 0 0 0 0 0 0 0 0 0 0 0 0 0 0 0 0 
0 0 0 0 0 0 0 0 0 0 0 0 0 0 0 0 0 1 0 0 3 8 9 15 20 26 28 36 67 73 64 65 67 69 68 65 76 94 122 126 133 137 107 101 102 103 97 101 105 89 76 92 101 102 100 94 85 76 94 106 105 112 98 89 114 137 94 80 112 98 92 89 81 73 74 85 90 81 50 33 29 24 14 9 2 0 0 0 1 1 1 1 0 0 1 2 1 0 0 0 0 0 0 0 0 0 0 0 0 0 0 0 0 0 0 0 0 0 0 0 0 0 0 0 0 0 0 0 
0 0 0 0 0 0 0 0 0 0 0 0 0 0 0 0 0 0 0 0 0 4 4 8 15 28 34 45 74 86 77 73 77 84 86 91 100 125 124 142 149 163 157 137 140 160 157 158 146 122 117 121 120 119 116 121 119 113 119 138 143 147 139 143 145 160 125 128 112 120 108 106 90 80 80 84 83 78 52 37 24 16 9 7 1 0 0 0 0 0 0 0 0 0 0 1 1 0 0 0 0 0 0 0 0 0 0 0 0 0 0 0 0 0 0 0 0 0 0 0 0 0 0 0 0 0 0 0 
0 0 0 0 0 0 0 0 0 0 0 0 0 0 0 0 0 0 0 0 0 2 3 5 9 23 29 40 62 79 72 72 81 88 96 91 98 107 118 111 155 163 166 159 169 174 166 175 161 164 162 156 158 159 159 155 154 152 155 154 151 165 163 160 163 159 151 130 140 147 119 125 98 74 57 67 76 55 31 23 16 9 7 2 0 0 0 0 0 0 0 0 0 0 0 1 1 0 0 0 0 0 0 0 0 0 0 0 0 0 0 0 0 0 0 0 0 0 0 0 0 0 0 0 0 0 0 0 
0 0 0 0 0 0 0 0 0 0 0 0 0 0 0 0 0 0 0 0 0 0 2 3 8 17 28 36 53 75 76 71 73 75 76 70 77 100 107 101 133 130 118 105 121 139 154 163 157 150 140 134 137 135 138 129 133 132 133 132 138 143 127 134 132 132 135 131 147 153 112 70 51 47 58 80 78 45 24 21 13 6 6 1 0 1 1 1 1 1 0 0 1 2 4 5 4 0 0 0 0 0 0 0 0 0 0 0 0 0 0 0 0 0 0 0 0 0 0 0 0 0 0 0 0 0 0 0 
0 0 0 0 0 0 0 0 0 0 0 0 0 0 0 0 0 0 0 0 0 0 4 6 9 15 19 22 32 54 67 66 64 64 58 54 55 73 92 110 109 111 109 95 104 118 131 137 124 119 111 94 106 98 102 92 103 105 104 106 111 127 126 102 111 126 131 120 133 121 99 68 52 55 71 99 84 45 24 18 17 12 7 1 0 0 1 1 1 0 0 0 0 0 1 3 2 0 0 0 0 0 0 0 0 0 0 0 0 0 0 0 0 0 0 0 0 0 0 0 0 0 0 0 0 0 0 0 
0 0 0 0 0 0 0 0 0 0 0 0 0 0 0 0 0 0 0 0 0 0 2 6 9 13 18 21 24 43 61 74 72 68 57 48 53 66 85 100 98 98 100 102 110 121 131 128 116 112 105 85 91 92 95 90 101 110 115 111 104 112 105 91 84 104 121 125 122 106 92 66 54 60 81 106 87 49 25 19 18 12 6 0 0 0 1 1 1 1 0 0 0 0 1 3 2 0 0 0 0 0 0 0 0 0 0 0 0 0 0 0 0 0 0 0 0 0 0 0 0 0 0 0 0 0 0 0 
0 0 0 0 0 0 0 0 0 0 0 0 0 0 0 0 0 0 0 0 0 0 1 4 9 10 16 21 23 38 56 74 76 70 61 52 52 58 73 94 91 85 90 92 101 110 119 129 126 116 110 97 100 100 98 91 102 102 117 122 112 120 119 106 102 97 109 115 107 95 79 62 54 63 88 110 85 51 25 19 16 11 5 0 0 0 1 1 1 1 0 0 0 0 1 3 1 0 0 0 0 0 0 0 0 0 0 0 0 0 0 0 0 0 0 0 0 0 0 0 0 0 0 0 0 0 0 0 
0 0 0 0 0 0 0 0 0 0 0 0 0 0 0 0 0 0 0 0 0 0 0 3 7 9 13 19 22 33 48 69 77 73 66 59 52 54 58 67 71 78 85 91 99 105 112 118 134 126 115 106 103 102 96 91 96 97 108 118 121 140 131 110 102 94 98 106 107 98 79 62 60 67 93 112 81 52 26 18 15 10 4 0 0 0 1 1 1 1 0 0 0 0 1 3 1 0 0 0 0 0 0 0 0 0 0 0 0 0 0 0 0 0 0 0 0 0 0 0 0 0 0 0 0 0 0 0 
0 0 0 0 0 0 0 0 0 0 0 0 0 0 0 0 0 0 0 0 0 0 0 0 5 8 11 16 20 28 45 62 80 77 70 64 55 52 56 58 65 73 85 91 101 103 103 109 124 117 111 105 102 99 93 93 95 99 105 111 119 124 118 106 103 102 97 91 97 94 82 70 65 72 94 107 80 51 26 17 15 9 2 0 0 0 1 1 1 1 0 0 0 0 1 3 1 0 0 0 0 0 0 0 0 0 0 0 0 0 0 0 0 0 0 0 0 0 0 0 0 0 0 0 0 0 0 0 
0 0 0 0 0 0 0 0 0 0 0 0 0 0 0 0 0 0 0 0 0 0 0 0 2 5 9 13 18 25 43 55 78 75 76 71 60 57 53 57 64 67 84 97 105 102 98 95 102 106 111 104 99 98 94 91 95 102 108 105 113 109 108 102 104 108 103 87 76 74 66 70 70 80 96 103 77 44 20 16 15 8 1 0 0 0 0 1 1 1 0 0 0 0 1 3 1 0 0 0 0 0 0 0 0 0 0 0 0 0 0 0 0 0 0 0 0 0 0 0 0 0 0 0 0 0 0 0 
0 0 0 0 0 0 0 0 0 0 0 0 0 0 0 0 0 0 0 0 0 0 0 0 0 4 6 12 15 20 33 52 66 70 78 74 65 62 54 54 60 68 84 92 100 97 96 88 86 94 108 101 94 93 94 96 98 102 100 102 109 106 101 92 95 97 95 85 73 66 60 71 77 84 99 86 48 23 17 16 16 8 1 0 0 0 0 1 1 1 0 0 0 0 1 3 1 0 0 0 0 0 0 0 0 0 0 0 0 0 0 0 0 0 0 0 0 0 0 0 0 0 0 0 0 0 0 0 
0 0 0 0 0 0 0 0 0 0 0 0 0 0 0 0 0 0 0 0 0 0 0 0 0 3 4 8 14 18 21 32 40 45 71 78 69 65 56 52 56 66 78 80 91 92 93 86 85 94 110 105 97 96 98 97 98 99 99 98 101 96 94 89 90 88 85 77 74 64 60 72 81 91 97 43 18 17 18 18 16 7 1 0 0 0 0 1 1 1 0 0 0 0 1 3 1 0 0 0 0 0 0 0 0 0 0 0 0 0 0 0 0 0 0 0 0 0 0 0 0 0 0 0 0 0 0 0 
0 0 0 0 0 0 0 0 0 0 0 0 0 0 0 0 0 0 0 0 0 0 0 0 0 0 5 4 11 17 19 20 18 16 31 76 77 72 65 62 58 60 69 72 79 82 87 87 90 98 99 101 96 91 85 89 101 98 94 92 98 96 97 88 85 84 73 72 71 67 71 79 86 95 70 24 16 16 17 18 14 6 0 0 0 0 0 1 1 1 0 0 0 0 1 3 1 0 0 0 0 0 0 0 0 0 0 0 0 0 0 0 0 0 0 0 0 0 0 0 0 0 0 0 0 0 0 0 
0 0 0 0 0 0 0 0 0 0 0 0 0 0 0 0 0 0 0 0 0 0 0 0 0 0 2 5 8 13 18 18 18 17 14 37 74 80 74 67 67 64 68 72 78 78 80 88 99 101 95 97 99 94 89 91 101 102 94 90 97 100 106 95 88 84 79 79 75 75 81 87 89 77 35 20 15 16 17 17 12 6 1 0 0 0 0 1 1 1 1 0 0 0 1 2 1 0 0 0 0 0 0 0 0 0 0 0 0 0 0 0 0 0 0 0 0 0 0 0 0 0 0 0 0 0 0 0 
0 0 0 0 0 0 0 0 0 0 0 0 0 0 0 0 0 0 0 0 0 0 0 0 0 0 0 3 7 10 16 18 17 18 14 14 36 70 80 80 76 70 75 79 87 89 86 89 95 99 95 99 101 96 93 101 110 109 108 102 103 110 107 97 91 89 85 87 85 87 92 91 74 37 24 17 13 16 17 15 11 6 1 0 0 0 0 0 1 1 1 0 0 0 1 3 1 0 0 0 0 0 0 0 0 0 0 0 0 0 0 0 0 0 0 0 0 0 0 0 0 0 0 0 0 0 0 0 
0 0 0 0 0 0 0 0 0 0 0 0 0 0 0 0 0 0 0 0 0 0 0 0 0 0 0 2 5 8 12 17 18 17 14 13 17 33 62 78 82 84 85 85 98 99 89 90 89 100 101 97 98 95 94 104 106 106 109 107 100 103 105 102 95 97 100 98 95 92 90 70 36 26 23 17 14 16 16 14 10 5 1 0 0 0 0 0 1 1 1 0 0 0 1 3 1 0 0 0 0 0 0 0 0 0 0 0 0 0 0 0 0 0 0 0 0 0 0 0 0 0 0 0 0 0 0 0 
0 0 0 0 0 0 0 0 0 0 0 0 0 0 0 0 0 0 0 0 0 0 0 0 0 0 0 1 4 6 9 15 16 18 16 13 16 22 29 51 73 86 92 96 104 107 99 96 99 108 100 95 93 99 102 106 108 105 112 114 107 103 111 107 104 106 108 105 99 84 60 34 28 26 22 17 15 15 15 13 9 5 1 0 0 0 0 1 1 1 1 0 0 0 0 2 0 0 0 0 0 0 0 0 0 0 0 0 0 0 0 0 0 0 0 0 0 0 0 0 0 0 0 0 0 0 0 0 
0 0 0 0 0 0 0 0 0 0 0 0 0 0 0 0 0 0 0 0 0 0 0 0 0 0 0 0 1 7 7 12 15 17 16 12 13 21 26 29 38 60 80 92 105 110 105 104 104 105 106 101 101 102 99 100 103 106 111 112 112 104 111 115 110 107 109 101 80 49 31 29 27 24 21 16 14 15 14 12 9 5 1 0 0 0 0 1 1 1 1 0 0 0 0 2 0 0 0 0 0 0 0 0 0 0 0 0 0 0 0 0 0 0 0 0 0 0 0 0 0 0 0 0 0 0 0 0 
0 0 0 0 0 0 0 0 0 0 0 0 0 0 0 0 0 0 0 0 0 0 0 0 0 0 0 0 0 7 6 11 14 16 16 13 12 20 26 28 31 33 41 60 84 96 98 99 99 103 110 109 105 99 97 97 98 104 113 105 108 113 114 113 108 99 85 62 43 38 29 27 26 23 18 16 13 15 14 12 9 4 1 0 0 0 0 1 1 1 1 0 0 0 1 2 1 0 0 0 0 0 0 0 0 0 0 0 0 0 0 0 0 0 0 0 0 0 0 0 0 0 0 0 0 0 0 0 
0 0 0 0 0 0 0 0 0 0 0 0 0 0 0 0 0 0 0 0 0 0 0 0 0 0 0 0 0 4 7 9 13 16 16 13 12 19 25 28 31 32 32 38 50 68 80 86 89 91 103 105 101 98 100 102 102 104 113 110 113 106 103 98 89 71 53 47 41 36 28 28 26 23 17 14 15 15 14 13 9 3 1 0 0 0 0 0 1 1 1 0 0 0 0 2 0 0 0 0 0 0 0 0 0 0 0 0 0 0 0 0 0 0 0 0 0 0 0 0 0 0 0 0 0 0 0 0 
