P2
128 99
219
0 0 0 0 0 0 0 0 0 0 0 0 0 0 0 0 0 0 0 0 0 0 0 0 0 0 0 0 0 0 0 2 3 5 3 0 0 0 0 0 0 0 0 0 0 0 0 0 0 0 0 0 0 0 0 0 0 0 0 0 0 0 0 0 0 0 0 0 0 0 0 0 0 0 0 0 0 0 0 0 0 0 0 0 0 0 0 0 0 0 0 0 2 4 4 8 10 0 0 0 0 0 0 0 0 0 0 0 0 0 0 0 0 0 0 0 0 0 0 0 0 0 0 0 0 0 0 0 
0 0 0 0 0 0 0 0 0 0 0 0 0 0 0 0 0 0 0 0 0 0 0 0 0 0 0 0 0 0 0 2 3 4 2 0 0 0 0 0 0 0 0 0 0 0 0 0 0 0 0 0 0 0 0 0 0 0 0 0 0 0 0 0 0 0 0 0 0 0 0 0 0 0 0 0 0 0 0 0 0 0 0 0 0 0 0 0 0 0 0 0 2 4 4 8 9 0 0 0 0 0 0 0 0 0 0 0 0 0 0 0 0 0 0 0 0 0 0 0 0 0 0 0 0 0 0 0 
0 0 0 0 0 0 0 0 0 0 0 0 0 0 0 0 0 0 0 0 0 0 0 0 0 0 0 0 0 0 0 1 3 4 2 0 0 0 0 0 0 0 0 0 0 0 0 0 0 0 1 2 2 1 1 0 0 0 0 0 0 0 0 0 0 0 0 0 0 0 0 0 0 0 0 0 0 0 0 0 0 0 0 0 0 0 0 0 0 0 0 0 2 3 4 8 9 0 0 0 0 0 0 0 0 0 0 0 0 0 0 0 0 0 0 0 0 0 0 0 0 0 0 0 0 0 0 0 
0 0 0 0 0 0 0 0 0 0 0 0 0 0 0 0 0 0 0 0 0 0 0 0 0 0 0 0 0 0 0 1 2 3 2 0 0 0 0 0 0 0 0 0 7 13 17 19 19 19 23 27 30 29 27 22 17 16 14 12 4 0 0 0 0 0 0 0 0 0 0 0 0 0 0 0 0 0 0 0 0 0 0 0 0 0 0 0 0 0 0 0 2 4 4 8 9 0 0 0 0 0 0 0 0 0 0 0 0 0 0 0 0 0 0 0 0 0 0 0 0 0 0 0 0 0 0 0 
0 0 0 0 0 0 0 0 0 0 0 0 0 0 0 0 0 0 0 0 0 0 0 0 0 0 0 0 0 0 0 1 2 2 1 0 0 0 0 0 5 12 19 25 25 34 51 72 94 115 131 141 146 145 142 133 118 99 77 52 32 21 16 8 1 0 0 0 0 0 0 0 0 0 0 0 0 0 0 0 0 0 0 0 0 0 0 0 0 0 0 0 2 4 4 8 9 0 0 0 0 0 0 0 0 0 0 0 0 0 0 0 0 0 0 0 0 0 0 0 0 0 0 0 0 0 0 0 
0 0 0 0 0 0 0 0 0 0 0 0 0 0 0 0 0 0 0 0 0 0 0 0 0 0 0 0 0 0 0 0 1 1 0 0 0 2 10 15 24 23 33 63 106 141 158 165 167 169 170 172 173 173 174 174 172 167 161 153 137 110 75 42 22 17 10 1 0 0 0 0 0 0 0 0 0 0 0 0 0 0 0 0 0 0 0 0 0 0 0 0 2 3 4 8 9 0 0 0 0 0 0 0 0 0 0 0 0 0 0 0 0 0 0 0 0 0 0 0 0 0 0 0 0 0 0 0 
0 0 0 0 0 0 0 0 0 0 0 0 0 0 0 0 0 0 0 0 0 0 0 0 0 0 0 0 0 0 0 0 1 1 0 1 10 19 26 25 51 98 141 163 170 169 172 176 186 194 196 195 193 191 190 189 191 191 188 181 174 166 156 143 116 73 36 17 14 1 0 0 0 0 0 0 0 0 0 0 0 0 0 0 0 0 0 0 0 0 0 0 2 4 4 8 9 0 0 0 0 0 0 0 0 0 0 0 0 0 0 0 0 0 0 0 0 0 0 0 0 0 0 0 0 0 0 0 
0 0 0 0 0 0 0 0 0 0 0 0 0 0 0 0 0 0 0 0 0 0 0 0 0 0 0 0 0 0 0 0 1 1 9 21 25 24 61 117 154 169 169 174 181 190 193 183 168 160 162 170 171 162 162 171 182 185 182 183 186 189 184 177 169 157 140 96 47 21 14 1 0 0 0 0 0 0 0 0 0 0 0 0 0 0 0 0 0 0 0 0 2 4 5 8 10 0 0 0 0 0 0 0 0 0 0 0 0 0 0 0 0 0 0 0 0 0 0 0 0 0 0 0 0 0 0 0 
0 0 0 0 0 0 0 0 0 0 0 0 0 0 0 0 0 0 0 0 0 0 0 0 0 0 0 0 0 0 0 0 6 25 26 27 60 119 160 170 170 177 183 193 187 170 162 156 150 150 152 153 147 139 142 147 156 174 190 191 186 182 182 187 187 181 175 165 147 98 44 23 10 0 0 0 0 0 0 0 0 0 0 0 0 0 0 0 0 0 0 0 3 4 5 9 9 0 0 0 0 0 0 0 0 0 0 0 0 0 0 0 0 0 0 0 0 0 0 0 0 0 0 0 0 0 0 0 
0 0 0 0 0 0 0 0 0 0 0 0 0 0 0 0 0 0 0 0 0 0 0 0 0 0 0 0 0 0 0 23 28 26 42 104 157 171 170 177 186 194 186 163 150 153 146 132 121 115 122 128 129 124 127 135 136 138 152 175 193 196 191 183 180 184 189 183 174 163 140 75 29 18 1 0 0 0 0 0 0 0 0 0 0 0 0 0 0 0 0 0 3 4 5 8 10 0 0 0 0 0 0 0 0 0 0 0 0 0 0 0 0 0 0 0 0 0 0 0 0 0 0 0 0 0 0 0 
0 0 0 0 0 0 0 0 0 0 0 0 0 0 0 0 0 0 0 0 0 0 0 0 0 0 0 0 0 10 28 25 26 80 146 170 170 174 185 194 185 174 156 152 144 132 124 118 124 123 138 153 153 150 148 149 152 144 134 133 152 175 191 196 195 187 180 182 189 183 173 160 114 43 23 5 0 0 0 0 0 0 0 0 0 0 0 0 0 0 0 1 3 4 5 8 10 0 0 0 0 0 0 0 0 0 0 0 0 0 0 0 0 0 0 0 0 0 0 0 0 0 0 0 0 0 0 0 
0 0 0 0 0 0 0 0 0 0 0 0 0 0 0 0 0 0 0 0 0 0 0 0 0 0 0 0 22 23 18 49 123 166 170 173 185 193 186 180 169 156 150 145 150 154 159 164 159 152 140 137 134 137 147 148 154 162 165 165 167 169 175 181 189 197 196 188 180 182 190 183 168 140 63 24 11 0 0 0 0 0 0 0 0 0 0 0 0 0 0 0 3 4 5 9 10 0 0 0 0 0 0 0 0 0 0 0 0 0 0 0 0 0 0 0 0 0 0 0 0 0 0 0 0 0 0 0 
0 0 0 0 0 0 0 0 0 0 0 0 0 0 0 0 0 0 0 0 0 0 0 0 0 0 4 28 19 21 75 146 170 172 180 193 188 186 177 164 156 160 162 168 166 159 150 135 129 123 119 119 115 108 112 121 122 127 135 144 152 166 179 187 190 189 191 195 195 188 180 188 187 170 150 82 24 13 0 0 0 0 0 0 0 0 0 0 0 0 0 0 3 5 5 9 10 0 0 0 0 0 0 0 0 0 0 0 0 0 0 0 0 0 0 0 0 0 0 0 0 0 0 0 0 0 0 0 
0 0 0 0 0 0 0 0 0 0 0 0 0 0 0 0 0 0 0 0 0 0 0 0 0 10 26 16 25 94 153 171 176 191 192 185 183 171 165 167 173 167 158 150 144 141 136 126 119 119 119 114 114 121 126 134 136 133 130 128 126 132 149 161 174 187 194 193 192 195 193 181 183 187 171 154 92 26 13 0 0 0 0 0 0 0 0 0 0 0 0 1 3 4 5 9 10 0 0 0 0 0 0 0 0 0 0 0 0 0 0 0 0 0 0 0 0 0 0 0 0 0 0 0 0 0 0 0 
0 0 0 0 0 0 0 0 0 0 0 0 0 0 0 0 0 0 0 0 0 0 0 0 14 24 14 34 109 158 170 177 196 189 183 179 170 169 176 167 151 146 143 137 133 139 145 140 140 139 130 121 119 134 142 139 143 152 155 148 143 134 129 135 145 154 170 187 190 186 192 196 187 180 189 172 157 103 29 13 0 0 0 0 0 0 0 0 0 0 0 1 3 4 5 9 10 0 0 0 0 0 0 0 0 0 0 0 0 0 0 0 0 0 0 0 0 0 0 0 0 0 0 0 0 0 0 0 
0 0 0 0 0 0 0 0 0 0 0 0 0 0 0 0 0 0 0 0 0 0 3 18 21 13 45 122 159 170 180 194 182 175 176 169 168 170 147 136 138 145 142 136 139 131 127 129 114 109 116 124 122 119 119 115 116 121 137 152 152 148 143 141 141 140 144 151 170 187 181 182 193 189 178 187 171 159 112 34 11 0 0 0 0 0 0 0 0 0 0 0 3 4 4 8 10 0 0 0 0 0 0 0 0 0 0 0 0 0 0 0 0 0 0 0 0 0 0 0 0 0 0 0 0 0 0 0 
0 0 0 0 0 0 0 0 0 0 0 0 0 0 0 0 0 0 0 0 0 6 16 19 17 58 133 159 170 183 193 179 172 172 157 164 160 141 136 145 155 149 132 127 121 112 103 91 92 90 93 103 98 91 91 90 87 92 102 118 133 140 141 138 138 142 142 143 143 156 179 176 172 189 189 176 188 174 158 120 37 9 0 0 0 0 0 0 0 0 0 0 3 4 4 9 10 0 0 0 0 0 0 0 0 0 0 0 0 0 0 0 0 0 0 0 0 0 0 0 0 0 0 0 0 0 0 0 
0 0 0 0 0 0 0 0 0 0 0 0 0 0 0 0 0 0 0 0 7 15 17 16 70 139 159 169 186 192 175 169 161 147 164 152 133 138 152 157 143 123 117 111 104 95 87 88 92 92 94 96 93 92 91 91 87 86 87 91 100 113 127 137 135 133 133 140 133 128 141 173 175 159 180 189 177 189 170 159 124 35 7 0 0 0 0 0 0 0 0 0 3 4 4 9 10 0 0 0 0 0 0 0 0 0 0 0 0 0 0 0 0 0 0 0 0 0 0 0 0 0 0 0 0 0 0 0 
0 0 0 0 0 0 0 0 0 0 0 0 0 0 0 0 0 0 0 6 16 14 16 74 141 159 171 186 191 173 168 153 143 158 150 133 136 152 145 125 113 106 100 92 90 89 91 95 95 97 102 92 95 104 103 102 101 101 96 93 89 89 94 106 122 130 130 135 141 130 121 138 174 170 151 175 187 178 189 169 160 116 28 3 0 0 0 0 0 0 0 0 3 4 4 10 10 0 0 0 0 0 0 0 0 0 0 0 0 0 0 0 0 0 0 0 0 0 0 0 0 0 0 0 0 0 0 0 
0 0 0 0 0 0 0 0 0 0 0 0 0 0 0 0 0 0 5 15 13 17 79 143 158 169 179 191 175 168 148 136 154 150 131 133 145 137 117 106 104 93 88 93 97 101 107 112 117 121 118 109 115 130 127 127 129 126 122 119 115 106 93 85 95 110 124 129 133 143 130 120 139 170 168 149 171 184 185 182 166 155 100 19 1 0 0 0 0 0 0 1 3 4 5 10 10 0 0 0 0 0 0 0 0 0 0 0 0 0 0 0 0 0 0 0 0 0 0 0 0 0 0 0 0 0 0 0 
0 0 0 0 0 0 0 0 0 0 0 0 0 0 0 0 0 2 13 16 17 74 141 153 167 175 190 175 165 146 131 150 154 131 128 137 131 113 97 90 84 87 98 110 117 122 128 130 130 119 114 118 121 132 129 131 134 135 137 142 144 137 123 106 90 87 107 126 126 132 137 123 122 146 170 159 144 169 182 187 171 163 144 77 10 0 0 0 0 0 0 1 3 5 5 10 11 0 0 0 0 0 0 0 0 0 0 0 0 0 0 0 0 0 0 0 0 0 0 0 0 0 0 0 0 0 0 0 
0 0 0 0 0 0 0 0 0 0 0 0 0 0 0 0 0 10 14 15 67 135 150 157 168 182 179 160 143 128 150 153 132 126 134 128 102 87 85 85 93 112 125 128 127 123 120 117 108 94 97 108 114 115 120 126 130 135 140 145 148 145 139 127 104 84 86 106 124 127 126 124 113 119 142 164 151 145 171 186 186 170 159 131 51 3 0 0 0 0 0 1 3 5 5 11 11 0 0 0 0 0 0 0 0 0 0 0 0 0 0 0 0 0 0 0 0 0 0 0 0 0 0 0 0 0 0 0 
0 0 0 0 0 0 0 0 0 0 0 0 0 0 0 0 6 12 15 56 124 147 155 169 177 181 155 147 130 149 153 123 119 132 125 97 87 89 94 107 124 135 137 131 121 112 111 107 101 98 102 110 116 117 118 114 119 122 122 124 132 141 146 143 126 98 78 89 102 119 129 129 113 107 121 154 158 141 147 172 195 179 168 148 112 25 2 0 0 0 0 1 3 5 5 10 12 0 0 0 0 0 0 0 0 0 0 0 0 0 0 0 0 0 0 0 0 0 0 0 0 0 0 0 0 0 0 0 
0 0 0 0 0 0 0 0 0 0 0 0 0 0 0 2 12 14 47 111 145 149 166 172 181 157 145 126 145 156 121 112 131 130 99 90 99 108 118 131 137 138 137 132 130 125 123 120 115 109 108 111 113 110 110 110 112 114 115 118 124 129 137 148 145 127 95 77 86 101 118 125 128 111 111 131 167 149 134 149 180 189 170 161 137 77 8 0 0 0 0 1 3 5 5 11 11 0 0 0 0 0 0 0 0 0 0 0 0 0 0 0 0 0 0 0 0 0 0 0 0 0 0 0 0 0 0 0 
0 0 0 0 0 0 0 0 0 0 0 0 0 0 0 7 12 29 94 132 143 161 170 176 167 142 123 132 155 130 111 121 129 99 95 107 115 120 127 133 136 132 133 131 128 126 122 116 114 111 107 107 107 101 101 109 108 110 109 112 115 117 127 139 146 144 122 90 79 84 101 117 124 126 109 114 149 159 134 135 156 188 177 170 146 112 32 2 0 0 0 1 3 5 5 10 11 0 0 0 0 0 0 0 0 0 0 0 0 0 0 0 0 0 0 0 0 0 0 0 0 0 0 0 0 0 0 0 
0 0 0 0 0 0 0 0 0 0 0 0 0 0 3 9 15 71 118 139 147 167 167 172 149 123 122 149 139 112 117 125 106 101 113 120 122 122 126 127 128 123 122 120 116 115 108 102 104 108 107 108 108 113 111 109 111 111 106 103 103 110 113 122 131 145 142 117 86 79 81 105 123 131 119 105 122 159 141 132 127 174 180 168 159 131 65 5 0 0 0 1 3 5 5 11 11 0 0 0 0 0 0 0 0 0 0 0 0 0 0 0 0 0 0 0 0 0 0 0 0 0 0 0 0 0 0 0 
0 0 0 0 0 0 0 0 0 0 0 0 0 0 6 10 42 102 134 135 159 164 160 165 127 120 135 148 120 117 124 106 104 115 119 112 112 121 126 123 119 110 106 105 106 104 102 99 102 108 113 114 113 119 113 120 114 109 107 97 89 91 100 112 120 129 140 137 114 84 77 88 108 124 136 121 109 142 146 131 120 150 172 169 165 138 96 15 0 0 0 1 3 4 5 10 11 0 0 0 0 0 0 0 0 0 0 0 0 0 0 0 0 0 0 0 0 0 0 0 0 0 0 0 0 0 0 0 
0 0 0 0 0 0 0 0 0 0 0 0 0 0 7 15 80 117 135 144 165 153 162 144 119 125 136 135 117 125 106 99 115 122 112 105 114 121 119 115 108 96 97 99 97 95 93 90 95 102 121 122 114 124 109 109 110 104 99 90 86 84 86 95 111 116 126 140 137 109 78 75 88 109 134 138 115 120 140 129 127 139 165 168 161 149 118 39 2 0 0 1 3 4 5 10 11 0 0 0 0 0 0 0 0 0 0 0 0 0 0 0 0 0 0 0 0 0 0 0 0 0 0 0 0 0 0 0 
0 0 0 0 0 0 0 0 0 0 0 0 0 3 7 36 100 132 134 157 157 152 157 127 120 122 132 129 121 113 98 110 121 118 102 110 118 114 108 112 106 95 91 89 90 93 96 97 105 110 118 127 125 126 112 101 102 102 97 93 92 89 87 88 98 108 109 131 146 134 97 76 84 90 118 142 130 116 131 123 127 136 155 166 161 155 127 61 3 0 0 0 3 5 5 10 11 0 0 0 0 0 0 0 0 0 0 0 0 0 0 0 0 0 0 0 0 0 0 0 0 0 0 0 0 0 0 0 
0 0 0 0 0 0 0 0 0 0 0 0 0 4 8 67 111 136 144 159 145 153 146 121 123 119 133 127 114 101 106 118 123 111 108 120 123 114 111 110 105 99 92 93 97 103 112 115 120 120 117 117 122 114 99 99 105 112 111 111 107 98 92 90 90 96 100 115 137 149 126 92 87 83 97 133 140 118 125 110 123 137 147 164 164 159 136 79 6 0 0 1 3 5 6 10 12 0 0 0 0 0 0 0 0 0 0 0 0 0 0 0 0 0 0 0 0 0 0 0 0 0 0 0 0 0 0 0 
0 0 0 0 0 0 0 0 0 0 0 0 0 6 17 86 122 140 154 147 141 138 138 114 117 118 139 116 100 102 116 120 120 115 122 125 120 112 105 109 113 115 113 111 115 119 117 115 112 104 94 94 107 93 81 79 80 87 100 111 115 116 109 98 90 92 98 101 114 144 148 119 97 86 85 115 138 123 124 105 122 137 138 161 165 159 142 91 10 0 0 1 3 5 6 12 12 0 0 0 0 0 0 0 0 0 0 0 0 0 0 0 0 0 0 0 0 0 0 0 0 0 0 0 0 0 0 0 
0 0 0 0 0 0 0 0 0 0 0 0 2 6 35 103 126 142 151 139 138 132 135 114 111 126 131 99 97 111 120 122 128 128 124 121 115 104 108 113 125 129 134 132 120 108 97 93 93 87 84 82 91 79 71 64 66 73 81 89 99 117 121 116 104 100 101 94 96 120 147 146 115 90 83 99 125 130 126 100 113 138 143 162 167 158 146 102 15 0 0 1 3 5 6 12 12 0 0 0 0 0 0 0 0 0 0 0 0 0 0 0 0 0 0 0 0 0 0 0 0 0 0 0 0 0 0 0 
0 0 0 0 0 0 0 0 0 0 0 0 3 7 48 114 132 146 140 139 132 125 133 115 113 129 111 90 104 119 120 131 135 123 109 109 108 107 107 118 128 132 129 125 110 91 85 79 76 74 72 72 71 67 60 57 58 63 71 87 109 117 129 134 137 121 91 89 87 99 129 152 142 109 84 90 112 125 130 98 103 134 144 157 172 162 149 117 23 0 0 1 3 5 6 12 12 0 0 0 0 0 0 0 0 0 0 0 0 0 0 0 0 0 0 0 0 0 0 0 0 0 0 0 0 0 0 0 
0 0 0 0 0 0 0 0 0 0 0 0 3 7 62 117 137 147 130 142 127 123 134 119 115 117 101 91 108 122 129 139 133 116 103 99 107 105 108 119 128 127 114 105 99 84 77 72 71 64 65 65 64 61 58 57 57 60 65 89 101 100 115 122 122 112 96 82 82 89 109 141 151 136 96 83 97 118 131 98 100 131 146 156 173 169 149 127 35 1 0 1 3 5 6 12 12 0 0 0 0 0 0 0 0 0 0 0 0 0 0 0 0 0 0 0 0 0 0 0 0 0 0 0 0 0 0 0 
0 0 0 0 0 0 0 0 0 0 0 0 3 8 70 120 143 147 133 147 125 119 128 123 115 101 96 94 114 126 136 138 124 104 94 99 107 112 116 124 127 123 101 84 85 85 74 72 67 64 64 64 62 63 62 61 59 61 64 86 78 73 79 92 110 112 101 90 94 95 99 119 143 150 124 90 80 114 134 101 96 132 149 153 167 170 155 137 48 2 0 1 3 5 6 12 12 0 0 0 0 0 0 0 0 0 0 0 0 0 0 0 0 0 0 0 0 0 0 0 0 0 0 0 0 0 0 0 
0 0 0 0 0 0 0 0 0 0 0 0 4 11 77 125 146 143 139 150 125 117 134 131 110 92 97 99 115 126 141 131 107 94 97 103 109 113 116 117 115 110 91 75 67 79 95 86 72 70 70 70 71 69 69 71 72 65 71 89 72 66 73 85 105 107 108 112 102 92 94 107 128 138 138 120 83 111 129 99 101 130 153 151 169 172 156 142 61 4 0 1 4 6 6 12 12 0 0 0 0 0 0 0 0 0 0 0 0 0 0 0 0 0 0 0 0 0 0 0 0 0 0 0 0 0 0 0 
0 0 0 0 0 0 0 0 0 0 0 0 5 14 80 130 145 143 146 147 127 120 140 131 106 89 101 108 116 123 140 117 95 95 105 107 107 101 89 79 73 74 76 76 81 71 89 103 89 84 86 81 88 83 83 98 94 77 81 86 64 63 82 90 95 100 100 102 101 94 89 97 125 130 125 138 115 117 124 104 110 129 152 148 167 176 161 143 76 7 0 1 4 5 6 11 12 0 0 0 0 0 0 0 0 0 0 0 0 0 0 0 0 0 0 0 0 0 0 0 0 0 0 0 0 0 0 0 
0 0 0 0 0 0 0 0 0 0 0 0 6 16 85 134 145 149 148 146 129 122 142 130 106 89 109 108 113 132 134 102 101 103 105 116 107 85 66 66 67 59 58 70 77 86 91 92 96 102 107 97 100 102 105 107 96 87 84 68 64 82 84 88 98 103 103 101 92 90 96 103 114 120 118 129 147 140 123 120 109 129 147 143 161 177 166 145 91 10 0 1 3 5 5 11 11 0 0 0 0 0 0 0 0 0 0 0 0 0 0 0 0 0 0 0 0 0 0 0 0 0 0 0 0 0 0 0 
0 0 0 0 0 0 0 0 0 0 0 0 6 18 89 139 150 151 150 147 127 125 148 137 109 89 112 111 115 140 120 103 103 102 109 108 99 83 73 73 72 74 72 72 78 85 89 89 80 83 87 107 110 112 118 94 82 77 66 66 81 76 76 78 85 95 95 93 86 85 85 93 110 118 118 134 145 156 135 124 113 132 137 134 147 176 170 145 99 12 0 1 4 5 5 11 11 0 0 0 0 0 0 0 0 0 0 0 0 0 0 0 0 0 0 0 0 0 0 0 0 0 0 0 0 0 0 0 
0 0 0 0 0 0 0 0 0 0 0 0 6 17 91 144 147 145 149 144 126 124 143 139 113 100 116 129 127 133 116 113 99 104 103 96 83 69 62 61 62 67 73 83 89 86 84 92 81 80 85 103 121 125 123 95 81 74 69 89 85 74 70 75 82 95 98 95 90 88 92 99 116 129 121 132 145 156 148 126 116 128 129 124 141 165 170 148 108 16 0 1 3 5 6 11 11 0 0 0 0 0 0 0 0 0 0 0 0 0 0 0 0 0 0 0 0 0 0 0 0 0 0 0 0 0 0 0 
0 0 0 0 0 0 0 0 0 0 0 0 8 16 90 144 150 149 142 142 122 126 138 135 111 106 113 141 152 122 117 106 96 100 96 88 75 65 63 64 66 68 73 77 85 88 88 87 87 78 82 104 127 130 132 97 81 77 79 101 83 72 72 79 93 109 114 113 109 103 98 98 110 137 135 120 136 146 154 130 116 123 125 115 136 160 170 146 117 24 0 1 3 5 6 11 11 0 0 0 0 0 0 0 0 0 0 0 0 0 0 0 0 0 0 0 0 0 0 0 0 0 0 0 0 0 0 0 
0 0 0 0 0 0 0 0 0 0 0 0 8 17 93 143 151 148 139 141 116 124 133 127 107 110 112 139 157 133 126 108 110 103 98 91 79 76 76 78 81 85 84 82 80 82 89 89 89 75 78 103 128 117 131 106 83 79 98 103 79 75 82 93 102 107 111 111 107 104 99 99 110 129 127 109 113 146 158 131 118 126 121 100 132 155 172 148 123 34 1 1 3 5 6 11 11 0 0 0 0 0 0 0 0 0 0 0 0 0 0 0 0 0 0 0 0 0 0 0 0 0 0 0 0 0 0 0 
0 0 0 0 0 0 0 0 0 0 0 0 9 16 93 140 152 149 140 136 116 116 127 121 105 98 108 144 159 135 128 112 116 108 107 99 92 85 86 87 92 101 94 84 80 76 82 94 92 83 86 111 118 98 111 120 99 94 105 90 79 85 84 77 82 91 101 106 105 103 105 101 107 126 124 107 98 135 146 119 112 123 111 95 121 144 167 146 124 43 1 1 4 6 7 12 11 0 0 0 0 0 0 0 0 0 0 0 0 0 0 0 0 0 0 0 0 0 0 0 0 0 0 0 0 0 0 0 
0 0 0 0 0 0 0 0 0 0 0 0 8 17 96 140 156 145 132 129 120 106 125 118 102 97 104 139 150 137 119 107 112 105 100 92 80 76 84 80 78 83 88 92 85 76 73 84 92 83 92 108 97 92 96 113 108 102 97 86 90 84 77 74 76 86 93 99 105 103 99 104 107 114 111 98 94 122 138 105 107 124 104 97 114 131 162 146 128 51 2 1 4 6 6 12 11 0 0 0 0 0 0 0 0 0 0 0 0 0 0 0 0 0 0 0 0 0 0 0 0 0 0 0 0 0 0 0 
0 0 0 0 0 0 0 0 0 0 0 0 8 18 97 142 158 144 130 125 112 99 118 117 98 93 101 143 150 142 119 106 109 107 100 93 81 78 83 76 77 80 80 80 84 88 80 72 76 73 92 106 82 92 90 100 104 102 101 95 82 78 83 77 71 82 93 96 103 101 98 102 111 112 101 95 93 115 130 105 110 127 99 92 112 112 154 148 132 58 2 1 4 6 6 12 12 0 0 0 0 0 0 0 0 0 0 0 0 0 0 0 0 0 0 0 0 0 0 0 0 0 0 0 0 0 0 0 
0 0 0 0 0 0 0 0 0 0 0 0 8 17 93 143 155 141 127 117 103 93 114 116 79 74 93 136 150 143 126 106 111 107 103 92 81 76 78 74 77 78 78 76 72 77 88 83 81 77 105 110 98 88 87 84 114 104 101 89 85 85 79 66 67 79 92 99 105 102 100 103 110 109 95 93 88 115 124 112 125 130 96 95 112 106 138 139 134 63 3 1 4 6 6 11 11 0 0 0 0 0 0 0 0 0 0 0 0 0 0 0 0 0 0 0 0 0 0 0 0 0 0 0 0 0 0 0 
0 0 0 0 0 0 0 0 0 0 0 0 8 16 92 144 156 137 122 107 105 85 112 120 75 74 90 126 146 136 134 110 114 107 103 95 85 82 81 78 77 80 82 81 80 75 81 80 69 77 102 97 81 74 79 75 103 111 89 90 85 80 70 63 68 83 95 100 103 102 100 100 109 99 91 92 93 126 134 122 134 135 95 92 111 109 137 141 137 63 3 1 4 5 5 11 11 0 0 0 0 0 0 0 0 0 0 0 0 0 0 0 0 0 0 0 0 0 0 0 0 0 0 0 0 0 0 0 
0 0 0 0 0 0 0 0 0 0 0 0 7 16 86 144 156 129 111 101 108 87 110 120 79 75 87 112 141 133 136 111 114 110 104 100 88 85 85 80 78 77 78 73 75 77 80 70 74 93 92 75 65 64 73 69 76 114 90 89 83 75 70 72 77 88 96 100 105 101 100 101 106 91 90 97 108 139 137 113 136 134 91 92 108 107 135 142 134 60 3 1 3 5 6 11 11 0 0 0 0 0 0 0 0 0 0 0 0 0 0 0 0 0 0 0 0 0 0 0 0 0 0 0 0 0 0 0 
0 0 0 0 0 0 0 0 0 0 0 0 7 13 78 141 155 125 105 98 109 86 105 124 83 73 86 105 135 121 133 114 108 115 105 102 91 88 88 82 78 76 76 71 70 75 75 68 82 98 78 71 67 66 78 62 66 103 108 92 84 73 69 79 81 89 94 101 104 100 101 101 100 83 89 99 124 149 133 106 134 130 87 96 104 103 134 141 128 53 2 1 3 5 6 10 11 0 0 0 0 0 0 0 0 0 0 0 0 0 0 0 0 0 0 0 0 0 0 0 0 0 0 0 0 0 0 0 
0 0 0 0 0 0 0 0 0 0 0 0 5 12 72 136 156 130 111 95 109 87 101 127 90 71 84 110 135 116 119 122 105 111 103 101 92 87 87 88 82 79 79 74 75 82 77 64 94 98 80 69 65 71 84 66 65 81 112 95 85 72 69 81 82 87 95 104 104 101 101 100 88 83 89 99 122 153 138 110 136 125 85 103 97 106 135 134 122 45 2 0 3 5 5 10 11 0 0 0 0 0 0 0 0 0 0 0 0 0 0 0 0 0 0 0 0 0 0 0 0 0 0 0 0 0 0 0 
0 0 0 0 0 0 0 0 0 0 0 0 3 12 64 132 154 132 118 89 108 92 91 126 97 68 80 114 132 109 114 121 101 107 101 97 89 84 89 91 80 77 75 73 71 76 69 80 106 86 75 68 63 77 93 76 70 70 97 113 98 86 74 77 79 85 95 101 101 101 100 99 80 85 91 101 120 151 144 121 137 116 82 108 91 110 135 129 116 39 2 0 3 5 5 10 11 0 0 0 0 0 0 0 0 0 0 0 0 0 0 0 0 0 0 0 0 0 0 0 0 0 0 0 0 0 0 0 
0 0 0 0 0 0 0 0 0 4 4 0 0 10 52 125 149 129 120 88 102 99 85 121 106 71 75 116 123 104 107 119 100 102 104 95 90 86 89 90 85 80 77 70 76 92 95 102 95 81 72 65 63 78 87 86 76 69 80 111 127 104 95 88 86 98 107 106 99 95 95 91 81 90 88 97 126 138 132 136 137 103 81 108 86 117 131 126 107 31 0 0 3 5 6 11 11 0 0 0 0 0 0 0 0 0 0 0 0 0 0 0 0 0 0 0 0 0 0 0 0 0 0 0 0 0 0 0 
0 0 0 0 0 0 0 0 0 6 9 3 1 8 41 117 141 126 114 93 89 106 85 110 110 73 74 119 121 110 107 111 98 93 101 103 91 83 84 86 92 89 88 81 83 84 99 98 97 70 69 65 65 80 76 72 71 79 89 112 130 132 114 86 86 98 102 104 102 95 93 87 84 87 91 110 127 125 128 153 143 96 89 104 88 119 128 125 96 27 0 0 3 5 5 10 11 0 0 0 0 0 0 0 0 0 0 0 0 0 0 0 0 0 0 0 0 0 0 0 0 0 0 0 0 0 0 0 
0 0 0 0 0 0 0 0 0 6 5 5 4 7 34 107 135 131 108 100 76 106 94 101 110 81 74 118 120 118 112 105 101 90 101 102 88 85 84 88 95 95 101 92 87 102 111 104 91 70 71 61 67 85 77 71 68 82 111 114 135 142 126 122 110 105 104 104 102 99 102 94 89 88 95 119 127 122 116 152 141 100 102 90 103 114 129 124 84 21 0 0 3 5 6 10 11 0 0 0 0 0 0 0 0 0 0 0 0 0 0 0 0 0 0 0 0 0 0 0 0 0 0 0 0 0 0 0 
0 0 0 0 0 0 0 0 0 1 6 8 5 6 27 95 130 133 100 112 74 99 103 91 109 88 75 116 117 120 123 118 119 102 101 97 91 90 91 100 104 99 97 103 98 111 111 112 100 71 68 67 70 92 79 74 70 72 91 125 143 138 123 109 110 127 130 128 121 120 129 104 93 103 120 140 141 121 117 151 130 107 103 90 121 106 131 122 74 14 0 0 3 10 7 9 11 0 0 0 0 0 0 0 0 0 0 0 0 0 0 0 0 0 0 0 0 0 0 0 0 0 0 0 0 0 0 0 
0 0 0 0 0 0 0 0 0 0 2 12 3 7 21 83 131 139 105 114 92 80 105 92 107 93 81 117 118 119 129 118 123 127 122 107 104 106 112 106 97 94 89 95 116 113 111 113 86 65 75 83 70 94 81 69 70 76 90 122 135 125 116 106 106 130 150 155 141 142 141 116 103 94 119 140 143 126 118 144 121 114 105 115 111 123 129 120 63 11 5 2 4 9 8 10 11 0 0 0 0 0 0 0 0 0 0 0 0 0 0 0 0 0 0 0 0 0 0 0 0 0 0 0 0 0 0 0 
0 0 0 0 0 0 0 0 0 0 0 10 6 6 17 73 129 136 124 106 109 66 93 99 106 104 89 116 109 111 127 117 112 115 115 126 125 108 108 107 105 106 114 118 123 119 120 106 94 75 93 95 89 104 85 73 78 91 100 130 130 125 101 97 102 127 149 156 158 161 143 124 122 119 134 149 159 147 134 139 120 127 109 136 144 134 114 115 53 10 1 0 7 6 6 10 11 0 0 0 0 0 0 0 0 0 0 0 0 0 0 0 0 0 0 0 0 0 0 0 0 0 0 0 0 0 0 0 
0 0 0 0 0 0 0 0 0 0 0 7 6 7 12 60 123 133 139 107 120 71 76 108 119 113 98 122 108 105 131 133 121 120 109 113 120 116 106 104 105 107 114 127 109 112 137 123 102 100 104 100 100 107 98 84 78 99 99 115 105 120 110 112 121 139 155 168 169 147 112 117 133 153 159 165 157 147 155 148 143 144 123 157 161 127 107 103 40 7 1 2 6 5 6 10 11 0 0 0 0 0 0 0 0 0 0 0 0 0 0 0 0 0 0 0 0 0 0 0 0 0 0 0 0 0 0 0 
0 0 0 0 0 0 0 0 0 0 0 6 6 8 12 45 113 128 142 120 127 104 94 103 122 122 127 123 114 104 126 126 124 137 149 150 164 153 123 99 104 103 104 89 96 98 123 121 110 88 109 111 99 111 97 66 67 91 97 100 102 104 107 122 134 145 151 156 165 131 121 128 137 158 173 176 155 136 141 148 165 148 154 169 173 118 119 99 23 6 5 1 4 5 6 11 11 0 0 0 0 0 0 0 0 0 0 0 0 0 0 0 0 0 0 0 0 0 0 0 0 0 0 0 0 0 0 0 
0 0 0 0 0 0 0 0 0 0 0 7 10 9 9 35 112 127 136 137 135 145 129 110 127 142 158 129 104 104 116 127 135 151 166 156 170 172 154 123 89 85 83 73 86 93 114 110 91 88 96 108 103 118 94 69 63 70 89 98 101 106 116 126 122 127 136 132 126 126 125 116 119 144 162 170 166 155 154 171 186 173 182 170 165 116 127 79 10 7 7 1 4 5 6 11 11 0 0 0 0 0 0 0 0 0 0 0 0 0 0 0 0 0 0 0 0 0 0 0 0 0 0 0 0 0 0 0 
0 0 0 0 0 0 0 0 0 0 0 4 11 9 4 13 60 123 136 141 137 154 175 143 133 156 154 139 121 111 127 143 139 144 165 164 162 179 169 132 99 88 93 85 90 93 106 105 84 92 99 102 100 115 125 89 64 67 81 94 106 105 120 114 105 117 130 122 106 98 105 115 120 141 161 155 161 163 164 167 191 189 181 169 158 108 122 91 14 7 12 3 2 6 6 11 11 0 0 0 0 0 0 0 0 0 0 0 0 0 0 0 0 0 0 0 0 0 0 0 0 0 0 0 0 0 0 0 
0 0 0 0 0 0 0 0 0 0 0 4 9 4 3 8 37 112 133 138 139 153 161 155 147 156 165 154 131 113 139 150 145 142 168 171 163 173 152 119 108 110 105 93 93 110 127 115 101 95 85 93 102 116 120 103 67 73 83 89 109 117 118 116 115 118 121 108 93 90 111 144 134 167 164 158 147 134 145 151 165 178 176 144 122 107 126 54 6 4 8 5 2 6 6 11 10 0 0 0 0 0 0 0 0 0 0 0 0 0 0 0 0 0 0 0 0 0 0 0 0 0 0 0 0 0 0 0 
0 0 0 0 0 0 0 0 0 0 0 4 1 5 3 7 24 89 132 142 146 137 132 126 139 140 134 144 117 127 143 141 121 120 141 164 165 160 141 118 104 109 112 118 112 116 127 128 100 80 69 70 75 95 101 102 84 96 109 101 106 121 122 101 114 114 117 103 96 103 139 140 142 172 159 155 128 137 146 131 150 151 129 109 131 137 111 24 5 3 5 2 2 6 6 11 10 0 0 0 0 0 0 0 0 0 0 0 0 0 0 0 0 0 0 0 0 0 0 0 0 0 0 0 0 0 0 0 
0 0 0 0 0 0 0 0 0 0 0 4 0 7 3 9 21 61 129 138 132 133 135 131 124 125 118 131 131 139 127 123 116 106 100 124 146 141 139 122 104 104 108 110 110 107 119 117 101 92 93 78 73 83 89 102 103 114 116 101 110 127 141 118 100 93 97 85 86 96 126 129 147 153 155 142 133 153 159 152 137 131 131 107 125 139 73 14 5 6 4 0 2 6 6 11 10 0 0 0 0 0 0 0 0 0 0 0 0 0 0 0 0 0 0 0 0 0 0 0 0 0 0 0 0 0 0 0 
0 0 0 0 0 0 0 0 0 0 0 5 3 6 7 12 17 30 102 108 119 128 133 124 114 109 115 108 144 143 122 118 115 97 99 111 130 137 143 129 116 109 115 116 111 104 126 114 123 115 110 106 93 101 122 118 103 110 108 99 123 152 144 133 117 97 83 80 93 104 110 139 148 148 139 131 149 161 154 149 137 131 116 104 96 105 37 13 9 7 3 0 1 6 7 11 10 0 0 0 0 0 0 0 0 0 0 0 0 0 0 0 0 0 0 0 0 0 0 0 0 0 0 0 0 0 0 0 
0 0 0 0 0 0 0 0 0 0 0 6 7 6 4 8 13 13 74 97 105 122 131 132 113 106 117 135 152 157 156 141 133 105 117 122 136 139 124 103 91 110 119 125 115 115 142 131 133 123 131 134 122 129 142 135 115 113 125 123 135 149 143 121 110 99 85 83 99 110 107 134 150 146 123 135 159 157 159 157 149 117 94 66 112 75 15 8 8 10 5 0 1 6 6 10 9 0 0 0 0 0 0 0 0 0 0 0 0 0 0 0 0 0 0 0 0 0 0 0 0 0 0 0 0 0 0 0 
0 0 0 0 0 0 0 0 0 0 0 4 10 7 1 3 12 13 42 116 113 115 129 139 127 115 129 163 173 158 155 140 116 109 116 115 120 114 96 94 74 84 101 121 127 131 139 121 129 137 143 146 153 160 151 137 129 141 132 113 124 137 138 121 108 94 87 92 100 100 105 123 141 125 117 152 162 158 158 149 150 121 77 77 122 46 9 7 6 13 9 0 1 6 6 10 9 0 0 0 0 0 0 0 0 0 0 0 0 0 0 0 0 0 0 0 0 0 0 0 0 0 0 0 0 0 0 0 
0 0 0 0 0 0 0 0 0 0 1 4 7 6 0 2 7 14 20 100 108 94 108 118 137 149 169 161 165 163 143 135 131 110 101 113 108 91 77 87 85 87 97 100 113 132 133 126 137 133 130 137 148 149 155 146 138 148 137 124 135 163 167 161 140 123 116 115 112 118 113 104 108 115 124 159 140 154 175 154 137 121 73 83 102 28 5 6 3 11 9 0 1 7 6 10 8 0 0 0 0 0 0 0 0 0 0 0 0 0 0 0 0 0 0 0 0 0 0 0 0 0 0 0 0 0 0 0 
0 0 0 0 0 0 0 0 0 0 2 4 4 4 1 2 8 10 15 65 113 102 94 91 123 148 188 164 151 155 160 135 123 113 106 106 110 107 102 100 115 128 121 125 146 148 141 127 136 132 138 140 144 138 135 134 147 157 149 140 148 156 156 163 152 130 125 128 138 117 97 84 96 109 134 150 129 169 179 148 128 118 86 102 81 18 4 6 1 6 7 0 3 7 6 10 8 0 0 0 0 0 0 0 0 0 0 0 0 0 0 0 0 0 0 0 0 0 0 0 0 0 0 0 0 0 0 0 
0 0 0 0 0 0 0 0 0 0 1 4 4 2 0 2 9 7 11 40 99 99 103 97 110 133 173 172 133 138 153 139 117 106 109 115 115 112 116 123 136 145 133 136 155 147 129 137 155 150 135 124 116 124 132 136 135 139 126 131 140 158 165 153 153 174 168 149 128 91 77 78 102 119 128 142 145 171 172 131 99 110 126 108 73 15 5 7 2 0 1 3 5 8 7 10 8 0 0 0 0 0 0 0 0 0 0 0 0 0 0 0 0 0 0 0 0 0 0 0 0 0 0 0 0 0 0 0 
0 0 0 0 0 0 0 0 0 0 0 2 12 5 1 1 8 6 8 28 90 98 117 89 104 111 138 152 146 125 145 133 133 109 90 90 103 111 113 118 137 145 137 151 164 156 139 147 162 160 140 138 141 126 135 136 132 131 115 115 116 144 168 171 167 185 165 146 136 108 88 102 119 125 144 152 156 153 151 126 98 113 97 103 64 14 5 6 3 0 1 3 5 8 8 10 8 0 0 0 0 0 0 0 0 0 0 0 0 0 0 0 0 0 0 0 0 0 0 0 0 0 0 0 0 0 0 0 
0 0 0 0 0 0 0 0 0 0 0 5 12 10 10 6 9 8 9 20 78 97 121 114 111 119 137 120 154 147 138 115 131 118 100 91 80 81 87 95 115 128 130 143 155 160 149 147 153 161 149 149 153 144 137 129 137 142 117 102 102 132 149 157 162 173 162 144 132 105 98 99 99 120 162 180 167 160 157 104 107 88 72 87 37 14 2 3 3 3 1 2 4 7 10 10 8 0 0 0 0 0 0 0 0 0 0 0 0 0 0 0 0 0 0 0 0 0 0 0 0 0 0 0 0 0 0 0 
0 0 0 0 0 0 0 0 0 0 0 4 12 10 13 12 13 12 14 15 40 88 113 102 101 107 133 142 143 135 143 127 119 114 102 109 107 100 104 105 103 116 131 119 126 151 141 131 136 150 151 151 147 156 132 94 100 122 125 103 109 141 146 151 170 174 157 138 132 111 103 103 115 133 142 151 154 139 137 101 85 85 62 63 21 11 6 8 9 8 7 1 4 7 7 10 7 0 0 0 0 0 0 0 0 0 0 0 0 0 0 0 0 0 0 0 0 0 0 0 0 0 0 0 0 0 0 0 
0 0 0 0 0 0 0 0 0 0 0 3 12 9 10 11 7 9 12 14 19 49 99 108 89 78 119 152 137 138 135 137 128 129 114 116 121 113 103 98 109 124 135 133 113 141 149 129 126 148 152 134 131 166 174 142 133 144 140 104 124 143 120 150 162 179 159 152 151 133 120 101 106 125 116 133 109 80 97 76 78 92 87 41 14 7 7 8 10 3 3 3 7 5 5 9 7 0 0 0 0 0 0 0 0 0 0 0 0 0 0 0 0 0 0 0 0 0 0 0 0 0 0 0 0 0 0 0 
0 0 0 0 0 0 0 0 0 0 0 0 8 8 3 4 6 6 10 18 20 21 71 106 78 72 111 151 137 160 151 149 114 124 104 103 115 124 125 120 150 166 170 172 151 159 180 169 161 166 183 178 180 200 194 175 178 185 191 177 190 195 199 192 181 181 179 165 150 138 124 131 128 124 103 99 85 60 63 62 87 85 51 17 12 1 1 3 5 7 6 7 9 7 5 9 6 0 0 0 0 0 0 0 0 0 0 0 0 0 0 0 0 0 0 0 0 0 0 0 0 0 0 0 0 0 0 0 
0 0 0 0 0 0 0 0 0 0 0 0 3 9 6 1 3 5 5 9 20 18 47 99 109 85 85 113 96 154 145 162 150 143 123 100 119 148 167 165 177 173 170 168 168 175 182 186 178 158 188 196 185 199 199 186 189 197 203 201 197 189 219 185 189 194 184 171 129 120 120 110 85 68 51 83 69 69 73 51 62 43 26 22 14 0 0 1 1 1 3 7 7 2 4 9 5 0 0 0 0 0 0 0 0 0 0 0 0 0 0 0 0 0 0 0 0 0 0 0 0 0 0 0 0 0 0 0 
0 0 0 0 0 0 0 0 0 0 0 0 0 3 5 1 0 1 2 8 17 25 28 57 87 79 61 75 72 96 92 118 139 131 137 131 124 131 146 176 176 167 168 184 172 174 157 189 175 163 183 191 184 208 198 175 151 156 155 160 174 212 200 131 131 150 184 161 157 143 122 91 65 46 39 70 80 80 73 44 36 32 33 34 23 0 0 1 0 0 3 4 5 2 4 9 5 0 0 0 0 0 0 0 0 0 0 0 0 0 0 0 0 0 0 0 0 0 0 0 0 0 0 0 0 0 0 0 
0 0 0 0 0 0 0 0 0 0 0 0 0 3 7 3 3 1 4 6 11 18 18 21 30 37 27 62 72 77 51 68 104 79 94 111 92 73 73 71 88 113 149 164 135 133 137 121 100 89 134 119 135 137 120 99 66 71 82 106 92 105 104 106 124 152 106 76 77 81 56 41 46 54 60 85 78 73 50 31 30 22 18 10 4 0 1 2 2 2 2 9 3 2 4 9 5 0 0 0 0 0 0 0 0 0 0 0 0 0 0 0 0 0 0 0 0 0 0 0 0 0 0 0 0 0 0 0 
0 0 0 0 0 0 0 0 0 0 0 0 0 0 0 2 3 2 0 2 7 11 15 16 21 18 24 49 77 80 50 58 84 56 53 64 76 57 57 61 76 73 79 79 89 93 84 77 63 67 48 62 101 108 104 88 46 48 74 93 85 95 76 58 62 88 96 127 117 99 57 57 67 74 81 91 84 75 50 31 29 22 14 8 2 0 1 1 2 2 3 5 1 1 4 9 5 0 0 0 0 0 0 0 0 0 0 0 0 0 0 0 0 0 0 0 0 0 0 0 0 0 0 0 0 0 0 0 
0 0 0 0 0 0 0 0 0 0 0 0 0 0 0 0 0 2 0 0 6 11 12 14 19 23 29 47 84 82 53 52 80 55 47 53 73 115 120 125 137 122 101 94 105 107 95 106 89 72 73 83 102 104 105 88 66 59 85 112 87 95 94 76 120 160 93 105 106 82 63 72 70 82 83 87 87 87 53 30 32 22 12 12 1 0 0 0 0 0 0 0 0 1 3 7 5 0 0 0 0 0 0 0 0 0 0 0 0 0 0 0 0 0 0 0 0 0 0 0 0 0 0 0 0 0 0 0 
0 0 0 0 0 0 0 0 0 0 0 0 0 0 0 0 0 0 0 0 0 4 4 7 21 36 27 31 76 75 57 50 84 72 67 67 95 107 126 145 147 166 155 115 128 159 146 202 185 154 137 116 115 110 96 85 74 81 102 116 124 137 136 141 147 137 79 102 65 108 95 100 78 67 59 66 65 82 50 34 32 31 26 26 2 0 0 0 0 0 0 0 0 0 1 5 4 0 0 0 0 0 0 0 0 0 0 0 0 0 0 0 0 0 0 0 0 0 0 0 0 0 0 0 0 0 0 0 
0 0 0 0 0 0 0 0 0 0 0 0 0 0 0 0 0 0 0 0 0 5 9 3 4 27 28 23 55 58 50 43 59 48 51 60 72 107 151 151 172 176 166 138 159 152 173 180 172 176 140 124 116 140 156 149 140 134 137 140 149 159 143 120 141 116 123 88 135 130 76 93 60 48 52 69 74 71 38 8 2 3 2 4 0 0 0 0 0 0 0 0 0 0 0 3 3 0 0 0 0 0 0 0 0 0 0 0 0 0 0 0 0 0 0 0 0 0 0 0 0 0 0 0 0 0 0 0 
0 0 0 0 0 0 0 0 0 0 0 0 0 0 0 0 0 0 0 0 0 1 5 3 5 12 29 40 67 75 85 64 98 74 56 38 45 63 135 165 123 120 102 100 127 151 169 158 165 154 143 133 138 135 137 106 120 118 120 121 137 137 110 121 98 91 122 162 128 124 113 59 41 40 45 75 60 49 17 9 10 9 11 1 0 0 0 0 0 0 0 1 3 8 14 19 13 0 0 0 0 0 0 0 0 0 0 0 0 0 0 0 0 0 0 0 0 0 0 0 0 0 0 0 0 0 0 0 
0 0 0 0 0 0 0 0 0 0 0 0 0 0 0 0 0 0 0 0 0 0 6 10 7 15 20 23 43 46 72 51 87 63 57 62 44 54 78 97 96 116 119 102 124 136 135 115 105 121 122 129 152 132 118 96 103 105 103 104 119 142 129 104 148 127 119 106 126 132 117 66 33 43 54 102 73 55 26 13 15 14 13 1 0 0 0 0 0 0 0 0 0 1 5 12 8 0 0 0 0 0 0 0 0 0 0 0 0 0 0 0 0 0 0 0 0 0 0 0 0 0 0 0 0 0 0 0 
0 0 0 0 0 0 0 0 0 0 0 0 0 0 0 0 0 0 0 0 0 0 3 8 9 15 18 21 32 42 60 64 87 65 58 56 51 77 90 90 81 109 103 90 124 162 126 106 104 110 105 92 108 104 100 101 109 116 121 123 109 118 111 83 81 122 137 138 146 120 103 75 57 65 60 102 74 55 24 20 19 10 7 1 0 0 0 0 0 0 0 0 0 1 5 11 6 0 0 0 0 0 0 0 0 0 0 0 0 0 0 0 0 0 0 0 0 0 0 0 0 0 0 0 0 0 0 0 
0 0 0 0 0 0 0 0 0 0 0 0 0 0 0 0 0 0 0 0 0 0 1 7 8 11 16 21 27 44 50 68 79 64 59 48 36 67 73 78 80 86 91 86 111 125 104 96 115 116 112 96 101 95 97 100 107 113 137 149 123 111 123 132 113 106 100 108 97 83 90 58 46 72 82 105 74 59 27 21 17 10 6 0 0 0 0 0 0 0 0 0 0 1 5 11 5 0 0 0 0 0 0 0 0 0 0 0 0 0 0 0 0 0 0 0 0 0 0 0 0 0 0 0 0 0 0 0 
0 0 0 0 0 0 0 0 0 0 0 0 0 0 0 0 0 0 0 0 0 0 0 4 7 8 14 17 24 40 53 71 76 63 57 45 47 61 50 65 78 76 96 96 106 106 97 106 132 111 116 117 103 89 89 97 98 103 120 130 131 126 140 155 122 97 94 90 96 92 74 71 40 59 93 111 75 54 33 22 15 9 5 0 0 0 0 0 0 0 0 0 0 0 4 10 4 0 0 0 0 0 0 0 0 0 0 0 0 0 0 0 0 0 0 0 0 0 0 0 0 0 0 0 0 0 0 0 
0 0 0 0 0 0 0 0 0 0 0 0 0 0 0 0 0 0 0 0 0 0 0 0 7 7 12 14 19 28 51 65 74 67 53 50 57 53 61 74 60 69 95 83 98 94 93 128 151 85 84 118 106 90 89 96 110 110 114 113 110 116 139 139 115 108 89 93 85 97 88 77 54 48 87 110 86 55 33 19 16 8 3 0 0 0 0 0 0 0 0 0 0 0 4 10 4 0 0 0 0 0 0 0 0 0 0 0 0 0 0 0 0 0 0 0 0 0 0 0 0 0 0 0 0 0 0 0 
0 0 0 0 0 0 0 0 0 0 0 0 0 0 0 0 0 0 0 0 0 0 0 0 2 6 10 13 17 20 37 43 69 68 55 65 64 60 69 60 57 61 82 86 111 102 103 125 124 88 92 115 111 110 105 106 121 128 117 103 107 112 121 106 102 119 88 80 73 74 87 89 75 54 78 101 83 49 19 17 17 7 2 0 0 0 0 0 0 0 0 0 0 0 3 10 4 0 0 0 0 0 0 0 0 0 0 0 0 0 0 0 0 0 0 0 0 0 0 0 0 0 0 0 0 0 0 0 
0 0 0 0 0 0 0 0 0 0 0 0 0 0 0 0 0 0 0 0 0 0 0 0 0 5 7 12 15 19 24 33 59 74 68 93 70 76 69 45 51 48 83 88 107 98 105 111 92 82 103 103 104 117 122 127 131 135 110 93 105 111 128 94 70 95 81 69 56 62 66 94 94 78 83 80 35 17 18 16 14 8 2 0 0 0 0 0 0 0 0 0 0 0 4 10 3 0 0 0 0 0 0 0 0 0 0 0 0 0 0 0 0 0 0 0 0 0 0 0 0 0 0 0 0 0 0 0 
0 0 0 0 0 0 0 0 0 0 0 0 0 0 0 0 0 0 0 0 0 0 0 0 0 5 5 10 13 19 18 31 37 52 80 94 56 77 74 41 47 44 71 86 104 86 99 110 96 97 111 102 97 106 123 121 110 101 98 83 83 107 130 91 61 81 93 65 55 54 59 97 80 99 99 44 16 15 19 17 14 8 1 0 0 0 0 0 0 0 0 0 0 0 3 10 3 0 0 0 0 0 0 0 0 0 0 0 0 0 0 0 0 0 0 0 0 0 0 0 0 0 0 0 0 0 0 0 
0 0 0 0 0 0 0 0 0 0 0 0 0 0 0 0 0 0 0 0 0 0 0 0 0 0 5 7 12 17 19 19 19 18 25 52 42 76 86 62 48 42 66 89 85 71 85 111 115 111 99 92 88 82 89 104 107 96 81 82 98 111 122 87 59 70 87 72 56 55 75 105 67 69 64 20 14 13 18 17 12 7 0 0 0 0 0 0 0 0 0 0 0 0 4 10 2 0 0 0 0 0 0 0 0 0 0 0 0 0 0 0 0 0 0 0 0 0 0 0 0 0 0 0 0 0 0 0 
0 0 0 0 0 0 0 0 0 0 0 0 0 0 0 0 0 0 0 0 0 0 0 0 0 0 1 6 9 13 18 17 16 16 14 29 56 77 109 74 43 42 70 97 71 61 80 120 131 107 101 104 104 97 96 99 98 84 78 79 92 110 131 107 80 70 93 94 56 53 86 122 81 63 35 18 12 15 17 15 10 5 0 0 0 0 0 0 0 0 0 0 0 0 3 9 2 0 0 0 0 0 0 0 0 0 0 0 0 0 0 0 0 0 0 0 0 0 0 0 0 0 0 0 0 0 0 0 
0 0 0 0 0 0 0 0 0 0 0 0 0 0 0 0 0 0 0 0 0 0 0 0 0 0 0 4 8 11 16 19 13 13 15 12 31 65 107 78 42 43 84 114 79 73 83 118 121 89 79 102 108 100 92 103 104 112 110 96 91 108 139 120 82 69 95 117 79 55 81 117 69 40 26 18 12 15 16 13 7 5 0 0 0 0 0 0 0 0 0 0 0 0 3 10 2 0 0 0 0 0 0 0 0 0 0 0 0 0 0 0 0 0 0 0 0 0 0 0 0 0 0 0 0 0 0 0 
0 0 0 0 0 0 0 0 0 0 0 0 0 0 0 0 0 0 0 0 0 0 0 0 0 0 0 4 6 7 12 17 16 13 9 14 18 26 61 92 61 68 106 112 86 76 80 119 120 97 84 94 90 94 98 109 106 103 102 87 93 94 131 130 89 62 87 124 102 73 92 77 32 30 25 18 14 15 16 14 8 4 0 0 0 0 0 0 0 0 0 0 0 0 2 10 2 0 0 0 0 0 0 0 0 0 0 0 0 0 0 0 0 0 0 0 0 0 0 0 0 0 0 0 0 0 0 0 
0 0 0 0 0 0 0 0 0 0 0 0 0 0 0 0 0 0 0 0 0 0 0 0 0 0 0 2 6 5 10 15 15 16 10 12 18 22 31 70 92 84 101 101 85 87 101 129 135 110 79 68 72 98 108 112 108 97 103 104 97 92 125 134 103 76 84 112 100 90 82 37 32 28 23 17 15 14 16 14 7 4 0 0 0 0 0 0 0 0 0 0 0 0 2 9 2 0 0 0 0 0 0 0 0 0 0 0 0 0 0 0 0 0 0 0 0 0 0 0 0 0 0 0 0 0 0 0 
0 0 0 0 0 0 0 0 0 0 0 0 0 0 0 0 0 0 0 0 0 0 0 0 0 0 0 0 3 9 6 13 12 13 13 11 14 18 28 29 48 65 66 75 86 102 104 125 129 105 84 78 96 106 106 114 112 109 111 112 111 93 119 134 108 90 87 81 66 57 28 27 30 26 19 16 14 17 15 13 8 4 0 0 0 0 0 0 0 0 0 0 0 0 1 9 2 0 0 0 0 0 0 0 0 0 0 0 0 0 0 0 0 0 0 0 0 0 0 0 0 0 0 0 0 0 0 0 
0 0 0 0 0 0 0 0 0 0 0 0 0 0 0 0 0 0 0 0 0 0 0 0 0 0 0 0 0 8 5 10 12 12 13 11 10 17 23 28 32 32 31 51 83 94 94 107 116 112 105 107 114 113 114 112 105 108 115 119 117 112 121 124 100 94 79 45 32 37 29 26 28 24 19 15 13 17 14 12 9 3 0 0 0 0 0 0 0 0 0 0 0 0 3 9 2 0 0 0 0 0 0 0 0 0 0 0 0 0 0 0 0 0 0 0 0 0 0 0 0 0 0 0 0 0 0 0 
0 0 0 0 0 0 0 0 0 0 0 0 0 0 0 0 0 0 0 0 0 0 0 0 0 0 0 0 0 4 6 8 13 11 10 12 12 18 22 25 31 30 29 42 55 71 72 72 101 119 113 110 102 98 103 93 89 96 110 117 134 124 124 87 61 59 43 30 30 35 32 25 25 22 18 11 14 16 14 11 9 3 0 0 0 0 0 0 0 0 0 0 0 0 2 9 2 0 0 0 0 0 0 0 0 0 0 0 0 0 0 0 0 0 0 0 0 0 0 0 0 0 0 0 0 0 0 0 
