P2
128 99
242
0 0 0 0 0 0 0 0 0 0 0 0 0 0 0 0 0 0 0 0 0 0 0 0 0 0 0 0 0 0 0 0 0 0 0 0 0 0 0 0 0 0 0 0 0 0 0 0 0 0 0 0 0 0 0 0 0 0 0 0 0 0 0 0 0 0 0 0 0 0 0 0 0 0 0 0 1 2 2 1 0 0 0 0 0 0 0 0 0 0 0 0 0 0 0 0 0 0 0 0 0 0 0 0 0 0 0 0 0 0 0 0 0 0 0 0 0 0 0 0 0 0 0 0 0 0 0 0 
0 0 0 0 0 0 0 0 0 0 0 0 0 0 0 0 0 0 0 0 0 0 0 0 0 0 0 0 0 0 0 0 0 0 0 0 0 0 0 0 0 0 0 0 0 0 0 0 0 1 0 0 0 0 0 0 0 0 0 0 0 0 0 0 0 1 0 0 0 0 0 0 0 0 0 0 1 2 3 1 0 0 0 0 0 0 0 0 0 0 0 0 0 0 0 0 0 0 0 0 0 0 0 0 0 0 0 0 0 0 0 0 0 0 0 0 0 0 0 0 0 0 0 0 0 0 0 0 
0 0 0 0 0 0 0 0 0 0 0 0 0 0 0 0 0 0 0 0 0 0 0 0 0 0 0 0 0 0 0 0 0 0 0 0 0 0 0 0 0 0 0 0 0 0 0 0 1 1 0 0 1 4 2 0 0 0 0 0 0 0 0 1 0 1 0 0 0 0 0 0 0 0 0 0 0 2 3 2 0 0 0 0 0 0 0 0 0 0 0 0 0 0 0 0 0 0 0 0 0 0 0 0 0 0 0 0 0 0 0 0 0 0 0 0 0 0 0 0 0 0 0 0 0 0 0 0 
0 0 0 0 0 0 0 0 0 0 0 0 0 0 0 0 0 0 0 0 0 0 0 0 0 0 0 0 0 0 0 0 0 0 0 0 0 0 0 0 0 0 0 0 2 12 22 21 17 17 23 28 35 35 32 30 24 12 6 7 5 0 1 1 1 0 0 0 0 0 0 0 0 0 0 0 0 2 4 2 0 0 0 0 0 0 0 0 0 0 0 0 0 0 0 0 0 0 0 0 0 0 0 0 0 0 0 0 0 0 0 0 0 0 0 0 0 0 0 0 0 0 0 0 0 0 0 0 
0 0 0 0 0 0 0 0 0 0 0 0 0 0 0 0 0 0 0 0 0 0 0 0 0 0 0 0 0 0 0 0 0 0 0 0 0 0 0 0 3 10 14 22 20 33 49 66 80 96 111 123 127 131 133 128 112 89 63 46 37 17 10 10 4 1 0 0 0 0 0 0 0 0 0 0 0 1 1 0 0 0 0 0 0 0 0 0 0 0 0 0 0 0 0 0 0 0 0 0 0 0 0 0 0 0 0 0 0 0 0 0 0 0 0 0 0 0 0 0 0 0 0 0 0 0 0 0 
0 0 0 0 0 0 0 0 0 0 0 0 0 0 0 0 0 0 0 0 0 0 0 0 0 0 0 0 0 0 0 0 0 0 0 0 0 0 5 10 20 18 38 63 93 116 140 164 184 199 211 215 213 212 215 218 222 219 205 178 144 102 67 50 24 10 10 2 0 0 0 0 0 0 0 0 0 0 2 0 0 0 0 0 0 0 0 0 0 0 0 0 0 0 0 0 0 0 0 0 0 0 0 0 0 0 0 0 0 0 0 0 0 0 0 0 0 0 0 0 0 0 0 0 0 0 0 0 
0 0 0 0 0 0 0 0 0 0 0 0 0 0 0 0 0 0 0 0 0 0 0 0 0 0 0 0 0 0 0 0 0 0 0 0 4 15 21 20 50 89 120 144 166 196 221 213 188 168 156 150 146 142 139 136 138 150 161 181 208 219 193 150 102 63 46 16 10 2 0 0 0 0 0 0 0 0 1 0 0 0 0 0 0 0 0 0 0 0 0 0 0 0 0 0 0 0 0 0 0 0 0 0 0 0 0 0 0 0 0 0 0 0 0 0 0 0 0 0 0 0 0 0 0 0 0 0 
0 0 0 0 0 0 0 0 0 0 0 0 0 0 0 0 0 0 0 0 0 0 0 0 0 0 0 0 0 0 0 0 0 0 4 19 19 23 60 106 133 154 189 221 220 191 172 152 136 136 143 154 149 137 140 156 160 152 145 137 137 147 173 209 220 184 133 76 44 22 9 2 0 0 0 0 0 0 0 0 0 0 0 0 0 0 0 0 0 0 0 0 0 0 0 0 0 0 0 0 0 0 0 0 0 0 0 0 0 0 0 0 0 0 0 0 0 0 0 0 0 0 0 0 0 0 0 0 
0 0 0 0 0 0 0 0 0 0 0 0 0 0 0 0 0 0 0 0 0 0 0 0 0 0 0 0 0 0 0 0 6 24 17 20 63 105 135 159 200 222 195 168 144 133 123 120 120 115 116 121 121 119 113 115 122 142 158 161 157 149 138 138 149 184 217 196 143 80 44 23 8 0 0 0 0 1 1 0 0 0 0 0 0 0 0 0 0 0 0 0 0 0 0 0 0 0 0 0 0 0 0 0 0 0 0 0 0 0 0 0 0 0 0 0 0 0 0 0 0 0 0 0 0 0 0 0 
0 0 0 0 0 0 0 0 0 0 0 0 0 0 0 0 0 0 0 0 0 0 0 0 0 0 0 0 0 0 0 24 21 19 49 98 131 147 194 223 190 158 139 129 109 104 115 120 111 116 133 136 133 133 133 135 136 133 141 161 167 166 162 154 144 135 140 168 206 190 132 65 29 15 3 0 0 1 1 0 0 0 0 0 0 0 0 0 0 0 0 0 0 0 0 0 0 0 0 0 0 0 0 0 0 0 0 0 0 0 0 0 0 0 0 0 0 0 0 0 0 0 0 0 0 0 0 0 
0 0 0 0 0 0 0 0 0 0 0 0 0 0 0 0 0 0 0 0 0 0 0 0 0 0 0 0 0 11 26 20 27 79 122 141 184 219 185 149 137 133 119 106 120 137 133 105 89 86 110 129 125 115 105 95 91 89 91 117 152 177 182 174 165 160 148 138 137 175 213 176 102 41 22 5 0 0 1 1 0 0 0 0 0 0 0 0 0 0 0 0 0 0 0 0 0 0 0 0 0 0 0 0 0 0 0 0 0 0 0 0 0 0 0 0 0 0 0 0 0 0 0 0 0 0 0 0 
0 0 0 0 0 0 0 0 0 0 0 0 0 0 0 0 0 0 0 0 0 0 0 0 0 0 0 0 26 24 13 46 105 134 164 214 191 148 137 137 134 132 135 138 130 117 94 91 92 99 99 96 94 100 104 100 94 89 87 93 113 135 154 170 185 182 178 161 150 138 145 190 206 140 59 24 10 0 1 1 0 0 0 0 0 0 0 0 0 0 0 0 0 0 0 0 0 0 0 0 0 0 0 0 0 0 0 0 0 0 0 0 0 0 0 0 0 0 0 0 0 0 0 0 0 0 0 0 
0 0 0 0 0 0 0 0 0 0 0 0 0 0 0 0 0 0 0 0 0 0 0 0 0 0 7 30 19 11 69 121 145 192 204 156 136 141 145 150 148 134 127 129 120 105 105 105 107 111 84 74 81 94 128 147 146 134 116 103 94 106 131 147 159 176 193 187 170 154 142 139 164 206 158 73 23 14 1 0 0 0 0 0 0 0 0 0 0 0 0 0 0 0 0 0 0 0 0 0 0 0 0 0 0 0 0 0 0 0 0 0 0 0 0 0 0 0 0 0 0 0 0 0 0 0 0 0 
0 0 0 0 0 0 0 0 0 0 0 0 0 0 0 0 0 0 0 0 0 0 0 0 0 10 27 13 18 85 131 161 210 182 141 140 146 152 156 138 130 138 160 169 171 174 173 160 154 144 125 117 131 147 164 181 186 186 182 167 142 121 108 111 135 150 162 176 184 180 164 153 140 151 200 166 84 25 18 3 0 0 0 0 0 0 0 0 0 0 0 0 0 0 0 0 0 0 0 0 0 0 0 0 0 0 0 0 0 0 0 0 0 0 0 0 0 0 0 0 0 0 0 0 0 0 0 0 
0 0 0 0 0 0 0 0 0 0 0 0 0 0 0 0 0 0 0 0 0 0 0 0 13 24 11 31 100 138 177 212 169 141 144 144 156 146 137 143 162 180 178 174 173 169 156 151 160 157 151 141 137 132 133 139 153 163 167 172 172 160 149 136 119 116 134 149 156 176 185 171 154 142 149 199 168 93 29 17 0 0 0 0 0 0 0 0 0 0 0 0 0 0 0 0 0 0 0 0 0 0 0 0 0 0 0 0 0 0 0 0 0 0 0 0 0 0 0 0 0 0 0 0 0 0 0 0 
0 0 0 0 0 0 0 0 0 0 0 0 0 0 0 0 0 0 0 0 0 0 6 14 21 12 45 117 144 194 210 159 143 132 141 153 138 141 161 173 169 158 156 159 160 141 136 137 146 151 143 132 121 120 123 124 127 135 148 153 157 154 145 142 144 140 124 114 133 147 161 180 171 152 142 151 201 166 103 36 13 0 0 0 0 0 0 0 0 0 0 0 0 0 0 0 0 0 0 0 0 0 0 0 0 0 0 0 0 0 0 0 0 0 0 0 0 0 0 0 0 0 0 0 0 0 0 0 
0 0 0 0 0 0 0 0 0 0 0 0 0 0 0 0 0 0 0 0 0 9 12 19 14 56 126 151 199 205 151 135 128 144 151 149 160 163 161 159 152 147 155 156 141 139 143 142 146 150 144 137 129 132 135 133 132 130 128 125 119 117 125 134 136 132 144 140 118 118 138 147 170 164 148 141 162 211 159 106 33 7 0 0 0 0 0 0 0 0 0 0 0 0 0 0 0 0 0 0 0 0 0 0 0 0 0 0 0 0 0 0 0 0 0 0 0 0 0 0 0 0 0 0 0 0 0 0 
0 0 0 0 0 0 0 0 0 0 0 0 0 0 0 0 0 0 0 0 10 10 16 18 66 121 153 190 202 146 128 122 148 155 156 151 141 142 146 146 147 149 143 139 128 125 130 141 135 132 152 155 162 168 160 162 166 165 155 144 133 126 122 121 128 123 125 134 144 130 113 130 145 165 160 142 141 169 209 151 103 29 6 0 0 0 0 0 0 0 0 0 0 0 0 0 0 0 0 0 0 0 0 0 0 0 0 0 0 0 0 0 0 0 0 0 0 0 0 0 0 0 0 0 0 0 0 0 
0 0 0 0 0 0 0 0 0 0 0 0 0 0 0 0 0 0 0 8 11 14 16 70 118 155 172 200 145 120 127 146 160 152 135 120 124 140 139 131 137 141 143 138 131 137 145 154 155 157 172 182 188 185 180 184 193 203 207 206 199 183 160 137 126 110 108 114 129 144 138 108 113 137 159 154 144 140 180 203 137 92 21 3 0 0 0 0 0 0 0 0 0 0 0 0 0 0 0 0 0 0 0 0 0 0 0 0 0 0 0 0 0 0 0 0 0 0 0 0 0 0 0 0 0 0 0 0 
0 0 0 0 0 0 0 0 0 0 0 0 0 0 0 0 0 0 7 14 13 18 70 111 158 152 196 152 124 133 154 162 150 126 110 121 134 132 123 127 139 144 147 156 165 164 164 166 167 154 144 158 154 154 151 149 155 164 175 193 209 221 218 195 158 128 118 105 109 123 135 142 107 105 136 154 150 142 143 203 190 126 80 15 1 0 0 0 0 0 0 0 0 0 0 0 0 0 0 0 0 0 0 0 0 0 0 0 0 0 0 0 0 0 0 0 0 0 0 0 0 0 0 0 0 0 0 0 
0 0 0 0 0 0 0 0 0 0 0 0 0 0 0 0 0 5 13 14 20 71 102 159 151 195 173 126 130 158 162 145 125 108 120 129 126 130 130 142 159 163 170 164 151 143 144 141 139 132 125 132 134 133 130 128 132 133 134 140 150 175 204 220 211 176 139 121 111 109 119 131 136 106 107 140 153 140 140 158 211 154 122 76 11 0 0 0 0 0 0 0 0 0 0 0 0 0 0 0 0 0 0 0 0 0 0 0 0 0 0 0 0 0 0 0 0 0 0 0 0 0 0 0 0 0 0 0 
0 0 0 0 0 0 0 0 0 0 0 0 0 0 0 0 0 13 13 16 76 97 148 149 176 192 129 122 159 162 136 120 107 121 118 119 127 133 147 163 168 166 155 146 150 151 149 137 140 136 128 133 135 137 134 135 133 133 134 138 138 139 155 181 212 214 173 132 121 115 117 116 129 135 104 101 142 149 135 142 191 201 136 115 66 6 0 0 0 0 0 0 0 0 0 0 0 0 0 0 0 0 0 0 0 0 0 0 0 0 0 0 0 0 0 0 0 0 0 0 0 0 0 0 0 0 0 0 
0 0 0 0 0 0 0 0 0 0 0 0 0 0 0 0 8 12 16 85 100 135 146 155 198 146 116 151 163 134 119 115 108 116 113 122 135 140 159 171 171 166 166 162 158 156 158 148 146 143 129 142 148 149 151 143 141 142 138 143 145 143 144 149 165 195 203 161 127 117 114 113 116 129 135 103 92 141 135 129 160 219 170 123 101 40 3 0 0 0 0 0 0 0 0 0 0 0 0 0 0 0 0 0 0 0 0 0 0 0 0 0 0 0 0 0 0 0 0 0 0 0 0 0 0 0 0 0 
0 0 0 0 0 0 0 0 0 0 0 0 0 0 0 5 14 16 76 110 119 143 142 189 171 116 146 162 135 123 118 108 116 117 129 136 125 133 156 165 159 145 150 153 160 160 159 154 158 158 161 158 158 158 147 151 147 144 140 136 142 144 144 143 146 168 199 193 145 124 120 116 107 117 141 135 96 98 139 123 139 198 196 145 107 93 13 0 0 0 0 0 0 0 0 0 0 0 0 0 0 0 0 0 0 0 0 0 0 0 0 0 0 0 0 0 0 0 0 0 0 0 0 0 0 0 0 0 
0 0 0 0 0 0 0 0 0 0 0 0 0 0 0 11 12 36 124 103 136 139 162 196 124 119 151 143 118 119 117 112 114 117 140 115 106 146 162 160 148 122 135 142 137 130 136 138 140 151 167 152 143 156 137 138 126 123 125 129 125 127 139 141 146 147 168 200 178 134 127 128 116 108 124 142 118 89 115 123 123 171 207 153 126 104 47 4 0 0 0 0 0 0 0 0 0 0 0 0 0 0 0 0 0 0 0 0 0 0 0 0 0 0 0 0 0 0 0 0 0 0 0 0 0 0 0 0 
0 0 0 0 0 0 0 0 0 0 0 0 0 0 4 11 17 104 103 125 128 139 183 167 111 131 149 119 113 133 130 111 117 133 114 90 132 162 152 152 151 134 120 108 93 114 124 123 123 127 165 135 117 147 98 96 90 89 70 67 88 102 108 122 138 149 141 176 194 168 138 128 120 115 110 131 140 108 100 106 104 148 203 166 141 100 84 6 0 0 0 0 0 0 0 0 0 0 0 0 0 0 0 0 0 0 0 0 0 0 0 0 0 0 0 0 0 0 0 0 0 0 0 0 0 0 0 0 
0 0 0 0 0 0 0 0 0 0 0 0 0 0 10 15 50 125 106 131 132 153 186 138 113 134 131 113 124 137 120 127 140 112 78 117 155 152 152 143 123 104 77 69 75 94 100 85 72 81 150 128 91 97 62 69 68 69 68 58 59 59 74 95 127 148 135 144 186 191 150 133 120 118 115 128 141 133 103 90 90 126 182 174 148 113 102 24 0 0 0 0 0 0 0 0 0 0 0 0 0 0 0 0 0 0 0 0 0 0 0 0 0 0 0 0 0 0 0 0 0 0 0 0 0 0 0 0 
0 0 0 0 0 0 0 0 0 0 0 0 0 0 12 19 107 108 118 129 138 156 173 111 124 127 113 122 139 129 119 126 116 78 109 147 150 140 147 124 90 63 56 57 63 65 69 64 62 65 87 84 71 71 62 60 59 62 58 58 57 58 57 60 95 143 141 132 147 191 181 153 140 131 125 131 146 145 118 92 64 110 167 180 143 133 102 55 4 0 0 0 0 0 0 0 0 0 0 0 0 0 0 0 0 0 0 0 0 0 0 0 0 0 0 0 0 0 0 0 0 0 0 0 0 0 0 0 
0 0 0 0 0 0 0 0 0 0 0 0 0 6 9 41 125 105 120 132 137 164 140 107 117 122 120 138 141 126 135 127 80 94 147 151 126 125 136 112 70 55 59 59 63 67 66 64 62 61 60 59 59 60 58 58 56 59 59 57 58 58 57 56 66 115 131 136 131 168 194 174 149 135 125 135 145 149 131 102 50 87 151 188 145 146 99 80 6 0 0 0 0 0 0 0 0 0 0 0 0 0 0 0 0 0 0 0 0 0 0 0 0 0 0 0 0 0 0 0 0 0 0 0 0 0 0 0 
0 0 0 0 0 0 0 0 0 0 0 0 0 7 11 84 120 108 127 135 135 152 113 112 105 119 137 151 136 136 136 101 94 142 153 146 148 138 125 95 65 57 58 63 65 63 64 60 59 57 58 56 57 58 59 60 58 57 58 54 57 56 59 54 55 80 114 129 128 143 179 187 164 144 130 137 151 152 147 120 56 73 141 185 153 151 102 90 8 0 0 0 0 0 0 0 0 0 0 0 0 0 0 0 0 0 0 0 0 0 0 0 0 0 0 0 0 0 0 0 0 0 0 0 0 0 0 0 
0 0 0 0 0 0 0 0 0 0 0 0 0 13 19 117 115 112 135 124 127 130 114 104 103 132 150 153 135 138 112 97 147 173 148 141 135 113 104 84 75 66 62 61 62 64 62 60 60 60 63 61 58 62 64 64 62 61 59 57 54 55 56 56 57 61 102 137 131 125 158 193 186 155 130 132 152 151 148 135 68 62 131 184 150 150 112 93 15 0 0 0 0 0 0 0 0 0 0 0 0 0 0 0 0 0 0 0 0 0 0 0 0 0 0 0 0 0 0 0 0 0 0 0 0 0 0 0 
0 0 0 0 0 0 0 0 0 0 0 0 0 11 36 130 111 120 134 118 111 129 121 96 116 146 152 151 138 116 87 144 179 157 120 129 118 86 83 74 73 78 70 62 62 63 65 64 62 63 63 60 64 65 64 67 63 64 61 60 60 56 54 55 57 61 95 137 116 102 126 171 203 187 150 130 138 146 148 138 77 60 134 178 148 147 126 94 22 0 0 0 0 0 0 0 0 0 0 0 0 0 0 0 0 0 0 0 0 0 0 0 0 0 0 0 0 0 0 0 0 0 0 0 0 0 0 0 
0 0 0 0 0 0 0 0 0 0 0 0 5 10 53 130 109 125 117 113 90 139 124 96 133 149 151 150 125 77 119 177 162 128 99 127 109 72 62 62 64 70 73 68 65 67 68 68 68 67 67 64 66 68 69 68 65 63 61 66 77 72 61 59 62 93 118 117 86 88 98 135 180 207 178 136 131 141 148 147 89 56 126 174 154 147 140 97 38 2 0 0 0 0 0 0 0 0 0 0 0 0 0 0 0 0 0 0 0 0 0 0 0 0 0 0 0 0 0 0 0 0 0 0 0 0 0 0 
0 0 0 0 0 0 0 0 0 0 0 0 7 9 70 127 111 134 105 108 86 147 125 105 144 146 147 141 95 62 153 173 138 110 108 127 117 72 58 57 60 66 80 90 79 77 80 76 75 70 70 72 76 74 76 74 68 68 68 81 135 133 104 89 81 65 55 54 91 90 94 108 146 193 207 159 123 128 147 150 99 52 118 174 162 150 143 101 50 5 0 0 0 0 0 0 0 0 0 0 0 0 0 0 0 0 0 0 0 0 0 0 0 0 0 0 0 0 0 0 0 0 0 0 0 0 0 0 
0 0 0 0 0 0 0 0 0 0 0 0 6 8 89 123 113 134 104 109 98 149 127 119 146 150 147 124 66 67 165 155 120 95 103 118 128 92 69 60 61 71 82 103 97 86 83 82 82 80 80 82 87 87 87 84 77 74 72 93 140 138 125 83 62 53 49 55 108 106 101 98 112 155 207 199 141 133 142 147 105 74 106 170 166 145 144 113 61 5 0 0 0 0 0 0 0 0 0 0 0 0 0 0 0 0 0 0 0 0 0 0 0 0 0 0 0 0 0 0 0 0 0 0 0 0 0 0 
0 0 0 0 0 0 0 0 0 0 0 0 6 10 104 120 120 130 109 108 120 152 134 133 145 149 147 96 53 71 160 130 99 97 106 111 125 101 84 77 78 89 89 94 116 134 115 94 91 93 94 95 111 99 99 96 88 81 77 95 143 116 83 68 61 56 56 66 62 63 79 104 115 123 174 225 177 138 152 149 113 86 103 170 175 145 145 124 67 5 0 0 0 0 0 0 0 0 0 0 0 0 0 0 0 0 0 0 0 0 0 0 0 0 0 0 0 0 0 0 0 0 0 0 0 0 0 0 
0 0 0 0 0 0 0 0 0 0 0 0 6 13 108 116 129 122 108 105 144 159 136 137 145 156 139 77 55 78 155 111 91 101 106 83 62 57 58 71 91 110 109 92 93 129 152 117 103 104 104 107 131 113 106 106 101 90 86 109 144 91 79 73 65 63 56 48 49 49 47 47 88 142 153 210 225 161 151 140 116 96 102 178 179 145 146 131 72 8 0 0 0 0 0 0 0 0 0 0 0 0 0 0 0 0 0 0 0 0 0 0 0 0 0 0 0 0 0 0 0 0 0 0 0 0 0 0 
0 0 0 0 0 0 0 0 0 0 0 0 6 15 112 115 137 119 108 110 154 167 140 129 141 154 133 68 55 92 146 100 105 102 61 55 53 53 52 54 56 64 89 120 124 127 137 137 117 116 120 113 130 127 120 139 122 104 109 133 131 106 97 84 72 64 59 54 54 52 47 46 47 78 164 195 232 212 159 132 116 97 118 180 175 144 150 135 83 11 0 0 0 0 0 0 0 0 0 0 0 0 0 0 0 0 0 0 0 0 0 0 0 0 0 0 0 0 0 0 0 0 0 0 0 0 0 0 
0 0 0 0 0 0 0 0 0 0 0 0 8 15 111 112 135 123 115 109 153 179 157 139 144 154 124 66 59 115 136 119 119 57 56 56 57 60 61 60 65 75 91 103 121 146 120 125 132 139 147 145 135 129 145 160 147 136 134 129 112 95 90 90 83 75 69 61 57 55 54 50 47 45 102 208 223 238 193 130 112 98 118 170 165 149 148 135 95 15 0 0 0 0 0 0 0 0 0 0 0 0 0 0 0 0 0 0 0 0 0 0 0 0 0 0 0 0 0 0 0 0 0 0 0 0 0 0 
0 0 0 0 0 0 0 0 0 0 0 0 8 18 103 109 139 131 119 109 143 180 162 142 142 153 124 83 70 138 139 140 66 51 54 65 68 69 67 73 79 90 98 107 113 124 120 110 111 109 106 136 140 125 152 125 113 107 97 99 105 96 95 94 89 83 73 67 62 59 57 55 55 60 92 181 227 229 225 141 111 93 125 159 146 142 145 133 98 17 0 0 0 0 0 0 0 0 0 0 0 0 0 0 0 0 0 0 0 0 0 0 0 0 0 0 0 0 0 0 0 0 0 0 0 0 0 0 
0 0 0 0 0 0 0 0 0 0 0 0 8 19 92 112 146 144 122 86 134 184 167 148 132 145 123 102 120 159 156 110 50 55 62 67 72 77 77 81 88 95 102 107 110 112 119 107 103 97 99 118 142 128 144 106 107 103 104 110 106 102 99 95 93 86 73 71 64 66 73 79 73 76 92 149 219 218 229 163 114 85 135 162 141 122 142 133 104 19 0 0 0 0 0 0 0 0 0 0 0 0 0 0 0 0 0 0 0 0 0 0 0 0 0 0 0 0 0 0 0 0 0 0 0 0 0 0 
0 0 0 0 0 0 0 0 0 0 0 0 7 19 83 115 145 137 108 64 134 189 182 143 124 129 110 104 159 182 177 93 59 61 61 67 77 86 85 88 94 102 108 109 112 110 115 120 98 90 94 114 150 145 154 107 105 103 106 116 108 104 103 100 95 95 97 90 85 85 86 80 77 78 90 130 193 224 223 167 110 74 123 147 142 111 146 132 107 23 0 0 0 0 0 0 0 0 0 0 0 0 0 0 0 0 0 0 0 0 0 0 0 0 0 0 0 0 0 0 0 0 0 0 0 0 0 0 
0 0 0 0 0 0 0 0 0 0 0 0 6 20 78 118 148 135 87 59 135 184 189 145 128 125 110 116 174 184 167 86 79 87 85 82 83 89 93 93 99 106 109 111 111 106 106 120 95 89 91 105 140 140 146 122 104 105 109 113 106 103 111 115 112 105 96 86 80 70 67 64 68 80 89 128 177 215 206 160 109 59 89 143 143 116 151 132 113 28 0 0 0 0 0 0 0 0 0 0 0 0 0 0 0 0 0 0 0 0 0 0 0 0 0 0 0 0 0 0 0 0 0 0 0 0 0 0 
0 0 0 0 0 0 0 0 0 0 0 0 7 18 76 122 149 134 89 60 137 180 184 135 122 124 107 139 164 173 153 76 67 65 70 79 87 101 107 104 107 107 112 112 110 105 100 105 92 87 87 104 133 131 131 130 104 103 109 106 105 113 126 119 106 98 85 75 68 67 68 69 80 86 88 133 178 218 223 165 103 48 54 133 141 117 153 128 115 33 2 0 0 0 0 0 0 0 0 0 0 0 0 0 0 0 0 0 0 0 0 0 0 0 0 0 0 0 0 0 0 0 0 0 0 0 0 0 
0 0 0 0 0 0 0 0 0 0 0 0 7 20 78 120 150 127 85 56 138 179 158 125 122 126 111 188 185 170 150 66 53 56 60 59 72 93 113 125 123 121 118 113 104 96 102 99 89 88 91 110 105 101 104 120 110 102 108 107 121 127 118 97 82 94 87 82 79 69 66 65 72 84 93 136 178 217 225 159 95 42 49 100 141 116 161 138 117 36 3 0 0 0 0 0 0 0 0 0 0 0 0 0 0 0 0 0 0 0 0 0 0 0 0 0 0 0 0 0 0 0 0 0 0 0 0 0 
0 0 0 0 0 0 0 0 0 0 0 0 9 19 76 121 153 114 78 58 143 166 138 124 127 130 113 190 179 177 150 68 55 57 58 58 73 86 108 123 126 124 124 123 111 96 101 95 87 89 101 120 95 98 96 99 124 107 114 125 125 111 101 80 82 94 82 85 79 68 66 65 68 83 99 144 187 217 217 154 90 38 48 104 148 123 142 119 118 47 2 0 0 0 0 0 0 0 0 0 0 0 0 0 0 0 0 0 0 0 0 0 0 0 0 0 0 0 0 0 0 0 0 0 0 0 0 0 
0 0 0 0 0 0 0 0 0 0 0 0 10 21 80 117 148 95 79 63 144 141 137 126 131 137 123 189 167 170 162 95 54 56 58 59 71 87 108 127 118 104 101 107 112 111 110 97 91 98 130 124 106 104 110 107 126 126 120 117 112 107 94 85 89 86 78 78 76 64 58 59 63 77 106 152 206 229 222 154 85 35 47 92 152 122 134 119 117 56 2 0 0 0 0 0 0 0 0 0 0 0 0 0 0 0 0 0 0 0 0 0 0 0 0 0 0 0 0 0 0 0 0 0 0 0 0 0 
0 0 0 0 0 0 0 0 0 0 0 0 10 19 80 111 140 90 82 70 138 139 142 133 138 137 126 184 168 157 162 127 57 60 58 63 73 85 101 124 123 114 102 99 103 99 111 88 82 95 139 129 98 94 97 93 99 130 116 106 108 105 97 91 91 79 75 75 75 63 59 58 64 79 114 163 224 228 227 156 79 36 45 88 154 120 125 127 112 59 2 0 0 0 0 0 0 0 0 0 0 0 0 0 0 0 0 0 0 0 0 0 0 0 0 0 0 0 0 0 0 0 0 0 0 0 0 0 
0 0 0 0 0 0 0 0 0 0 0 0 9 16 76 100 135 97 84 72 123 126 139 137 139 136 130 178 163 144 172 140 54 54 60 66 76 88 99 112 122 118 109 98 92 91 101 85 92 104 110 97 85 87 97 82 88 119 123 111 102 101 97 93 84 75 72 76 78 67 61 66 76 83 113 175 227 219 230 173 71 36 51 98 154 109 111 127 109 60 2 0 0 0 0 0 0 0 0 0 0 0 0 0 0 0 0 0 0 0 0 0 0 0 0 0 0 0 0 0 0 0 0 0 0 0 0 0 
0 0 0 0 0 0 0 0 0 0 0 0 5 14 78 100 132 98 82 77 111 112 134 133 132 134 128 176 157 132 156 144 60 53 58 70 79 95 112 121 122 117 116 102 91 90 99 89 97 111 101 91 91 97 119 92 91 101 129 119 109 105 97 86 79 82 75 81 69 61 68 78 76 75 108 162 214 205 221 189 63 38 56 115 145 100 101 121 105 62 3 0 0 0 0 0 0 0 0 0 0 0 0 0 0 0 0 0 0 0 0 0 0 0 0 0 0 0 0 0 0 0 0 0 0 0 0 0 
0 0 0 0 0 0 0 0 0 0 0 0 3 15 81 94 127 98 80 77 104 98 127 139 136 133 126 175 158 142 167 159 74 57 54 67 86 108 127 130 122 114 96 93 94 94 99 88 113 107 78 79 84 104 123 101 97 90 118 123 120 104 94 81 87 85 78 72 66 68 75 75 68 69 101 154 198 189 208 200 68 37 72 139 130 91 105 121 103 60 4 0 0 0 0 0 0 0 0 0 0 0 0 0 0 0 0 0 0 0 0 0 0 0 0 0 0 0 0 0 0 0 0 0 0 0 0 0 
0 0 0 0 0 0 0 0 0 0 0 0 1 14 72 89 119 102 80 78 98 95 125 143 133 133 129 178 171 162 164 144 86 59 57 64 87 112 124 127 117 110 95 93 95 106 123 102 115 87 77 82 90 114 119 107 98 96 98 132 157 132 101 92 93 78 74 75 74 76 75 67 69 62 109 165 195 189 194 194 91 42 91 146 112 80 103 120 107 56 3 0 0 0 0 0 0 0 0 0 0 0 0 0 0 0 0 0 0 0 0 0 0 0 0 0 0 0 0 0 0 0 0 0 0 0 0 0 
0 0 0 0 0 0 0 0 0 0 10 2 2 6 54 84 114 110 79 79 85 110 122 142 133 132 143 188 179 161 155 153 99 59 56 69 93 111 115 117 116 112 109 96 106 106 99 115 116 85 91 101 101 99 109 118 105 102 92 136 133 142 136 108 92 73 71 72 70 64 64 63 66 50 107 178 188 203 197 173 106 55 120 141 99 72 122 123 106 49 1 0 0 0 0 0 0 0 0 0 0 0 0 0 0 0 0 0 0 0 0 0 0 0 0 0 0 0 0 0 0 0 0 0 0 0 0 0 
0 0 0 0 0 0 0 0 0 4 18 12 3 4 36 81 106 121 84 67 64 105 137 156 140 133 152 196 168 108 94 121 122 80 72 88 112 126 124 124 124 124 115 93 108 107 107 127 124 92 81 80 86 99 97 108 118 114 104 129 144 129 108 103 112 97 80 72 64 59 59 70 72 74 138 187 184 194 167 153 127 95 138 115 92 75 127 113 110 37 0 0 0 0 0 0 0 0 0 0 0 0 0 0 0 0 0 0 0 0 0 0 0 0 0 0 0 0 0 0 0 0 0 0 0 0 0 0 
0 0 0 0 0 0 0 0 0 0 3 21 6 4 19 73 99 133 98 82 64 100 120 134 148 136 159 200 152 75 89 82 113 120 84 92 107 120 131 141 131 117 101 102 112 112 126 146 120 74 78 77 82 95 90 108 113 129 129 122 149 128 108 99 91 69 59 93 85 78 93 108 118 124 137 144 157 160 142 159 164 126 131 96 88 75 118 113 98 21 0 0 0 0 0 0 0 0 0 0 0 0 0 0 0 0 0 0 0 0 0 0 0 0 0 0 0 0 0 0 0 0 0 0 0 0 0 0 
0 0 0 0 0 0 0 0 0 0 4 12 8 5 13 60 95 133 107 87 70 68 109 114 145 139 169 199 140 63 77 65 75 106 101 89 104 114 132 112 113 118 117 111 111 133 144 142 111 79 83 84 91 97 94 102 111 123 132 124 137 124 106 95 86 85 87 74 74 94 111 114 90 82 145 149 162 121 132 164 185 146 107 95 70 86 143 106 76 10 2 1 5 5 0 0 0 0 0 0 0 0 0 0 0 0 0 0 0 0 0 0 0 0 0 0 0 0 0 0 0 0 0 0 0 0 0 0 
0 0 0 0 0 0 0 0 0 0 3 4 7 5 7 45 99 130 141 90 74 49 102 111 124 144 179 200 140 47 49 44 48 85 94 92 90 102 109 111 112 118 127 117 128 130 137 147 123 110 103 120 101 112 116 113 117 122 121 120 130 115 91 77 74 84 105 107 108 111 95 115 103 112 145 143 134 103 145 174 191 152 92 93 84 131 164 103 47 4 7 11 10 3 0 0 0 0 0 0 0 0 0 0 0 0 0 0 0 0 0 0 0 0 0 0 0 0 0 0 0 0 0 0 0 0 0 0 
0 0 0 0 0 0 0 0 0 0 2 3 9 5 6 32 91 119 152 110 81 51 82 122 115 146 195 201 156 59 49 54 47 64 96 65 57 72 86 101 110 113 112 125 129 129 135 143 124 122 104 103 105 134 137 118 121 114 124 116 115 99 76 74 80 66 89 111 116 113 104 113 144 160 151 165 132 105 143 178 211 187 109 100 106 172 166 81 26 6 6 9 5 0 0 0 0 0 0 0 0 0 0 0 0 0 0 0 0 0 0 0 0 0 0 0 0 0 0 0 0 0 0 0 0 0 0 0 
0 0 0 0 0 0 0 0 0 0 1 3 11 4 10 25 75 112 136 146 96 78 81 131 130 155 209 197 164 98 59 58 78 76 96 65 50 66 69 73 85 101 106 112 116 120 133 141 125 108 94 104 114 125 105 96 101 110 129 130 115 84 71 92 94 81 108 117 123 147 154 172 199 185 161 134 65 66 127 164 202 214 176 132 153 179 139 60 13 8 7 0 4 0 0 0 0 0 0 0 0 0 0 0 0 0 0 0 0 0 0 0 0 0 0 0 0 0 0 0 0 0 0 0 0 0 0 0 
0 0 0 0 0 0 0 0 0 0 0 3 9 0 1 11 63 115 120 154 129 131 149 138 105 141 215 203 162 130 74 84 114 106 112 108 100 103 90 80 73 84 85 90 95 103 115 141 112 76 70 69 82 107 82 79 91 105 98 88 82 83 87 90 66 73 122 141 136 146 164 191 203 186 176 104 43 45 111 166 175 161 121 144 164 178 120 41 10 0 9 0 2 1 0 0 0 0 0 0 0 0 0 0 0 0 0 0 0 0 0 0 0 0 0 0 0 0 0 0 0 0 0 0 0 0 0 0 
0 0 0 0 0 0 0 0 0 0 0 0 4 6 0 3 23 94 141 143 150 141 169 138 114 115 160 204 182 165 138 114 124 139 144 158 145 116 88 64 63 59 74 71 73 91 95 132 95 63 60 58 57 99 86 79 73 74 87 66 68 82 97 85 58 54 99 137 144 117 112 175 212 191 183 119 47 63 110 177 183 189 134 156 150 176 165 59 3 0 8 1 0 2 0 0 0 0 0 0 0 0 0 0 0 0 0 0 0 0 0 0 0 0 0 0 0 0 0 0 0 0 0 0 0 0 0 0 
0 0 0 0 0 0 0 0 0 0 0 0 3 5 0 2 18 79 131 137 160 147 135 128 85 59 119 164 179 151 149 151 162 169 165 163 163 104 73 72 71 68 73 79 82 77 86 113 75 65 61 60 63 93 87 93 80 87 78 55 68 82 72 61 57 53 63 117 144 109 125 181 189 189 153 90 53 86 147 181 180 198 127 105 140 169 120 35 0 0 10 0 1 1 0 0 0 0 0 0 0 0 0 0 0 0 0 0 0 0 0 0 0 0 0 0 0 0 0 0 0 0 0 0 0 0 0 0 
0 0 0 0 0 0 0 0 0 0 0 0 4 7 0 0 15 51 120 169 169 156 120 105 110 99 121 144 157 167 152 161 163 173 165 160 169 123 91 96 97 94 102 97 73 73 92 109 93 71 73 80 75 113 108 107 96 99 73 59 55 95 73 63 56 50 55 94 139 149 177 182 179 170 102 66 47 89 165 185 197 194 143 137 153 120 74 17 0 0 9 0 2 0 0 0 0 0 0 0 0 0 0 0 0 0 0 0 0 0 0 0 0 0 0 0 0 0 0 0 0 0 0 0 0 0 0 0 
0 0 0 0 0 0 0 0 0 0 0 0 1 7 0 0 15 36 104 182 173 136 149 133 110 87 102 145 151 148 159 159 162 168 180 168 169 131 99 92 55 49 68 63 61 66 84 99 123 118 108 87 72 86 99 119 112 119 92 79 76 100 73 62 61 51 50 79 145 165 169 177 178 109 73 67 66 109 157 201 180 167 170 151 164 97 51 9 0 1 11 2 0 0 0 0 0 0 0 0 0 0 0 0 0 0 0 0 0 0 0 0 0 0 0 0 0 0 0 0 0 0 0 0 0 0 0 0 
0 0 0 0 0 0 0 0 0 0 0 0 0 8 0 2 16 18 67 155 169 135 176 156 111 94 97 122 125 92 123 163 159 158 189 186 163 124 102 58 45 53 63 60 56 56 74 91 133 147 156 145 97 102 126 121 93 71 51 66 76 106 92 78 66 62 76 125 169 184 179 182 119 67 65 83 88 121 160 153 159 193 166 129 114 73 29 12 1 5 9 0 0 0 0 0 0 0 0 0 0 0 0 0 0 0 0 0 0 0 0 0 0 0 0 0 0 0 0 0 0 0 0 0 0 0 0 0 
0 0 0 0 0 0 0 0 0 0 0 0 0 14 0 7 16 15 47 150 168 120 134 153 122 99 98 118 126 77 77 116 162 159 171 193 176 149 83 46 51 56 59 57 53 58 72 92 108 147 175 183 159 139 125 75 56 68 78 71 67 98 77 67 71 87 107 134 161 194 170 99 48 55 91 108 109 152 167 180 204 176 113 72 76 54 12 12 6 9 6 0 0 0 0 0 0 0 0 0 0 0 0 0 0 0 0 0 0 0 0 0 0 0 0 0 0 0 0 0 0 0 0 0 0 0 0 0 
0 0 0 0 0 0 0 0 0 0 0 1 4 16 0 8 14 16 29 108 158 140 110 147 144 112 101 116 141 92 60 51 101 160 167 180 178 173 82 53 53 59 56 59 72 90 112 149 150 142 134 138 166 175 156 116 124 129 112 88 78 116 144 147 152 133 140 156 168 163 91 48 44 47 100 119 137 184 173 202 186 124 83 61 61 40 11 13 10 8 7 0 0 0 0 0 0 0 0 0 0 0 0 0 0 0 0 0 0 0 0 0 0 0 0 0 0 0 0 0 0 0 0 0 0 0 0 0 
0 0 0 0 0 0 0 0 0 0 0 0 15 17 0 7 15 22 19 70 153 180 145 145 157 168 119 117 145 104 94 71 59 85 147 176 167 166 132 108 89 73 83 118 138 138 164 156 131 116 96 105 131 149 157 157 155 160 156 155 150 172 190 183 174 168 168 157 127 127 75 60 65 87 109 129 152 182 182 222 136 87 44 60 71 22 11 12 6 6 11 0 0 0 0 0 0 0 0 0 0 0 0 0 0 0 0 0 0 0 0 0 0 0 0 0 0 0 0 0 0 0 0 0 0 0 0 0 
0 0 0 0 0 0 0 0 0 0 0 0 14 13 0 9 12 23 19 40 129 181 158 123 119 184 164 130 143 117 112 103 79 74 97 124 141 159 159 158 164 144 144 134 121 130 166 147 125 116 123 126 109 105 112 126 135 148 150 159 169 187 195 190 171 163 155 128 143 100 72 62 62 95 121 141 151 180 178 203 167 153 80 133 52 17 11 6 1 6 12 0 0 0 0 0 0 0 0 0 0 0 0 0 0 0 0 0 0 0 0 0 0 0 0 0 0 0 0 0 0 0 0 0 0 0 0 0 
0 0 0 0 0 0 0 0 0 0 0 0 4 5 0 7 13 15 26 23 80 178 161 149 141 142 181 129 105 126 119 102 94 82 58 77 104 123 127 140 157 159 147 148 151 158 145 137 119 129 133 131 146 147 150 149 150 148 141 145 155 161 172 149 161 151 104 111 141 102 65 58 86 106 108 152 173 183 182 178 166 164 179 132 28 23 10 6 1 0 14 3 0 0 0 0 0 0 0 0 0 0 0 0 0 0 0 0 0 0 0 0 0 0 0 0 0 0 0 0 0 0 0 0 0 0 0 0 
0 0 0 0 0 0 0 0 0 0 0 0 5 7 0 3 14 9 20 24 38 129 171 171 160 156 158 136 97 116 135 122 93 97 82 53 54 67 101 128 151 177 162 147 142 156 134 139 141 146 134 151 158 128 131 142 132 121 111 107 97 118 125 104 142 147 101 76 100 90 65 90 107 104 116 157 189 177 186 189 178 175 181 76 26 22 6 5 0 0 10 6 0 0 0 0 0 0 0 0 0 0 0 0 0 0 0 0 0 0 0 0 0 0 0 0 0 0 0 0 0 0 0 0 0 0 0 0 
0 0 0 0 0 0 0 0 0 0 0 0 4 8 0 0 8 12 16 18 24 82 153 122 83 121 158 138 80 106 121 125 129 109 97 95 76 81 83 78 101 161 173 153 145 152 125 133 140 124 121 146 148 136 113 95 78 64 52 48 49 90 106 96 120 146 114 81 90 89 97 105 108 98 133 126 143 160 183 177 177 179 129 51 26 19 3 3 0 0 1 10 0 0 0 0 0 0 0 0 0 0 0 0 0 0 0 0 0 0 0 0 0 0 0 0 0 0 0 0 0 0 0 0 0 0 0 0 
0 0 0 0 0 0 0 0 0 0 0 0 4 6 5 0 2 15 14 16 20 54 99 80 43 78 131 149 101 79 125 137 156 135 120 120 114 102 77 57 83 177 144 152 151 138 92 88 96 98 121 133 125 136 107 78 68 64 55 58 58 94 88 88 108 137 108 98 106 104 102 101 97 116 120 109 147 156 150 120 126 92 96 42 22 13 5 0 0 0 0 1 0 0 0 0 0 0 0 0 0 0 0 0 0 0 0 0 0 0 0 0 0 0 0 0 0 0 0 0 0 0 0 0 0 0 0 0 
0 0 0 0 0 0 0 0 0 0 0 0 6 6 7 8 8 12 15 11 14 36 88 44 34 68 101 117 130 135 122 105 109 131 116 109 112 114 102 102 160 214 143 139 164 159 153 113 111 122 120 110 108 120 146 161 139 115 95 73 70 104 103 109 136 153 126 168 219 112 68 54 73 118 117 120 126 117 93 47 36 66 73 27 14 6 9 0 0 0 0 2 9 0 0 0 0 0 0 0 0 0 0 0 0 0 0 0 0 0 0 0 0 0 0 0 0 0 0 0 0 0 0 0 0 0 0 0 
0 0 0 0 0 0 0 0 0 0 0 0 8 8 6 5 5 2 18 18 20 22 60 48 20 27 49 101 108 122 139 96 65 81 80 80 96 105 103 191 167 135 120 126 188 182 192 205 212 220 221 217 215 218 217 214 229 236 217 172 136 144 141 172 146 163 121 137 94 153 82 113 129 137 103 80 70 66 89 91 82 79 35 11 11 1 0 2 0 0 2 5 2 0 0 0 0 0 0 0 0 0 0 0 0 0 0 0 0 0 0 0 0 0 0 0 0 0 0 0 0 0 0 0 0 0 0 0 
0 0 0 0 0 0 0 0 0 0 0 0 4 4 2 0 0 0 6 27 17 20 26 64 42 44 67 54 40 79 127 102 62 60 84 26 53 92 152 140 102 114 117 159 2 163 138 185 172 180 212 230 225 212 206 212 205 175 165 150 149 138 141 146 113 148 182 173 228 155 242 172 85 60 19 29 53 39 79 100 82 40 10 5 3 2 0 0 0 4 6 4 1 0 0 0 0 0 0 0 0 0 0 0 0 0 0 0 0 0 0 0 0 0 0 0 0 0 0 0 0 0 0 0 0 0 0 0 
0 0 0 0 0 0 0 0 0 0 0 0 0 3 1 0 0 0 0 18 14 8 8 36 71 99 82 32 27 51 80 73 91 105 163 125 73 66 81 104 115 123 124 137 205 126 146 179 209 197 216 211 175 166 168 187 214 198 164 154 155 184 180 191 209 185 150 119 236 230 230 230 203 144 108 103 83 51 63 59 34 26 20 17 14 0 0 0 0 0 0 4 6 0 0 0 0 0 0 0 0 0 0 0 0 0 0 0 0 0 0 0 0 0 0 0 0 0 0 0 0 0 0 0 0 0 0 0 
0 0 0 0 0 0 0 0 0 0 0 0 0 4 7 6 3 0 0 0 10 11 17 14 41 79 61 35 34 43 69 46 81 97 126 153 88 69 67 66 75 78 86 131 184 132 175 180 177 186 148 127 140 147 148 151 138 168 178 147 132 123 110 96 88 118 63 37 45 55 62 92 54 37 36 71 77 30 30 21 26 29 26 10 2 0 0 0 0 0 1 7 8 0 0 0 0 0 0 0 0 0 0 0 0 0 0 0 0 0 0 0 0 0 0 0 0 0 0 0 0 0 0 0 0 0 0 0 
0 0 0 0 0 0 0 0 0 0 0 0 0 0 6 6 5 0 0 0 4 11 13 12 16 23 24 28 27 36 67 42 40 39 81 87 51 43 43 38 44 56 76 91 99 111 121 114 124 155 76 69 131 128 124 113 60 93 156 132 128 153 130 109 99 88 62 57 59 39 66 83 41 29 29 75 76 32 26 20 22 25 22 10 3 0 0 2 4 5 5 7 1 0 0 0 0 0 0 0 0 0 0 0 0 0 0 0 0 0 0 0 0 0 0 0 0 0 0 0 0 0 0 0 0 0 0 0 
0 0 0 0 0 0 0 0 0 0 0 0 0 0 0 0 0 0 0 0 3 11 15 16 14 15 35 42 45 53 79 69 60 49 74 76 53 85 151 189 179 131 108 113 141 151 146 145 156 133 82 90 118 107 96 98 47 34 70 125 135 154 120 83 177 228 92 100 120 35 79 93 40 66 88 129 124 82 66 39 19 20 12 8 2 0 0 0 2 3 3 0 0 0 0 0 0 0 0 0 0 0 0 0 0 0 0 0 0 0 0 0 0 0 0 0 0 0 0 0 0 0 0 0 0 0 0 0 
0 0 0 0 0 0 0 0 0 0 0 0 0 0 0 0 0 0 0 0 0 7 15 9 9 11 7 19 30 32 54 51 36 33 74 89 72 54 125 182 138 92 101 119 164 203 203 192 154 113 72 66 93 105 104 107 75 82 112 142 160 175 180 181 181 182 138 206 91 68 65 73 54 74 105 158 163 146 141 101 28 8 0 1 0 0 0 0 0 0 0 0 0 0 0 0 0 0 0 0 0 0 0 0 0 0 0 0 0 0 0 0 0 0 0 0 0 0 0 0 0 0 0 0 0 0 0 0 
0 0 0 0 0 0 0 0 0 0 0 0 0 0 0 0 0 0 0 0 0 0 0 1 7 4 2 11 35 32 34 32 32 37 70 78 85 71 161 154 96 63 107 147 174 131 97 138 76 84 129 102 129 162 154 143 132 120 155 161 169 175 157 187 162 80 76 122 79 71 53 57 26 20 29 90 96 71 61 32 3 3 8 1 0 0 0 0 0 0 0 0 0 0 0 0 0 0 0 0 0 0 0 0 0 0 0 0 0 0 0 0 0 0 0 0 0 0 0 0 0 0 0 0 0 0 0 0 
0 0 0 0 0 0 0 0 0 0 0 0 0 0 0 0 0 0 0 0 0 0 1 5 10 12 62 76 91 95 106 125 120 132 160 123 53 54 141 42 98 159 58 83 136 101 119 129 127 88 76 80 121 141 138 134 136 134 124 111 133 137 118 169 85 44 122 138 74 79 39 56 35 19 16 42 40 9 18 23 20 24 15 10 5 0 0 0 0 0 0 0 0 0 0 0 0 0 0 0 0 0 0 0 0 0 0 0 0 0 0 0 0 0 0 0 0 0 0 0 0 0 0 0 0 0 0 0 
0 0 0 0 0 0 0 0 0 0 0 0 0 0 0 0 0 0 0 0 0 0 5 10 12 15 16 17 21 26 26 65 46 50 93 88 71 65 45 36 57 92 100 95 111 116 90 101 118 91 91 93 119 140 137 143 132 130 110 79 102 150 159 156 216 232 224 125 132 103 67 96 97 44 30 54 56 20 25 20 22 23 13 5 5 0 0 0 0 0 0 0 0 0 0 0 0 0 0 0 0 0 0 0 0 0 0 0 0 0 0 0 0 0 0 0 0 0 0 0 0 0 0 0 0 0 0 0 
0 0 0 0 0 0 0 0 0 0 0 0 0 0 0 0 0 0 0 0 0 0 2 7 11 11 16 14 13 20 23 59 53 49 60 44 36 39 42 46 64 108 80 84 66 90 81 119 126 101 79 70 107 129 110 117 115 119 108 80 97 137 147 143 131 211 222 203 200 62 48 54 72 54 44 64 51 16 14 19 18 24 14 8 5 1 0 0 0 0 0 0 0 0 0 0 0 0 0 0 0 0 0 0 0 0 0 0 0 0 0 0 0 0 0 0 0 0 0 0 0 0 0 0 0 0 0 0 
0 0 0 0 0 0 0 0 0 0 0 0 0 0 0 0 0 0 0 0 0 0 0 6 6 8 15 17 15 13 25 54 68 54 64 37 37 43 44 68 111 100 63 69 79 75 115 142 139 101 105 110 121 112 97 105 113 122 135 142 132 134 134 122 105 139 155 184 176 108 53 43 62 62 40 63 56 16 12 16 18 22 13 8 6 1 0 0 0 0 0 0 0 0 0 0 0 0 0 0 0 0 0 0 0 0 0 0 0 0 0 0 0 0 0 0 0 0 0 0 0 0 0 0 0 0 0 0 
0 0 0 0 0 0 0 0 0 0 0 0 0 0 0 0 0 0 0 0 0 0 0 2 6 8 13 15 19 13 23 52 68 65 66 35 41 67 99 121 110 95 72 73 103 81 101 126 134 93 100 127 139 114 100 120 129 124 138 149 156 168 160 125 94 128 93 130 162 161 116 53 52 78 44 67 65 16 12 13 18 17 11 11 8 2 0 0 0 0 0 0 0 0 0 0 0 0 0 0 0 0 0 0 0 0 0 0 0 0 0 0 0 0 0 0 0 0 0 0 0 0 0 0 0 0 0 0 
0 0 0 0 0 0 0 0 0 0 0 0 0 0 0 0 0 0 0 0 0 0 0 0 8 4 10 12 18 18 19 55 71 77 66 37 63 115 105 70 62 65 64 82 151 83 73 113 111 98 107 131 127 118 114 142 136 125 116 132 145 134 114 99 83 135 76 92 129 140 147 129 68 88 66 69 72 20 15 13 17 14 8 10 10 4 0 0 0 0 0 0 0 0 0 0 0 0 0 0 0 0 0 0 0 0 0 0 0 0 0 0 0 0 0 0 0 0 0 0 0 0 0 0 0 0 0 0 
0 0 0 0 0 0 0 0 0 0 0 0 0 0 0 0 0 0 0 0 0 0 0 0 0 6 3 8 15 23 17 57 77 85 57 41 103 130 67 50 51 46 52 98 151 86 62 85 104 103 118 130 102 100 104 130 128 104 98 119 138 127 78 61 73 151 97 59 77 58 67 152 114 89 91 78 67 19 13 12 19 11 7 10 10 6 0 0 0 0 0 0 0 0 0 0 0 0 0 0 0 0 0 0 0 0 0 0 0 0 0 0 0 0 0 0 0 0 0 0 0 0 0 0 0 0 0 0 
0 0 0 0 0 0 0 0 0 0 0 0 0 0 0 0 0 0 0 0 0 0 0 0 0 1 6 6 15 18 19 47 69 79 36 36 122 142 62 45 45 46 53 95 143 79 59 75 108 104 120 110 76 68 82 98 110 86 71 81 112 114 75 58 64 121 111 52 50 30 39 132 155 79 98 91 42 13 14 17 19 10 7 10 12 7 1 0 0 0 0 0 0 0 0 0 0 0 0 0 0 0 0 0 0 0 0 0 0 0 0 0 0 0 0 0 0 0 0 0 0 0 0 0 0 0 0 0 
0 0 0 0 0 0 0 0 0 0 0 0 0 0 0 0 0 0 0 0 0 0 0 0 0 0 3 10 13 16 18 27 55 41 20 32 119 150 60 39 51 56 63 99 116 66 60 72 106 101 105 91 65 59 75 79 78 83 87 73 98 106 68 56 58 77 115 66 44 30 35 135 156 53 42 27 18 12 15 19 21 11 7 10 10 7 1 0 0 0 0 0 0 0 0 0 0 0 0 0 0 0 0 0 0 0 0 0 0 0 0 0 0 0 0 0 0 0 0 0 0 0 0 0 0 0 0 0 
0 0 0 0 0 0 0 0 0 0 0 0 0 0 0 0 0 0 0 0 0 0 0 0 0 0 0 3 9 17 15 15 20 18 15 26 100 167 85 43 47 54 75 82 77 67 60 71 99 104 92 91 78 71 74 77 94 106 94 76 92 109 78 59 53 48 77 73 41 28 42 139 151 40 31 22 17 12 16 20 20 9 6 11 11 8 2 0 0 0 0 0 0 0 0 0 0 0 0 0 0 0 0 0 0 0 0 0 0 0 0 0 0 0 0 0 0 0 0 0 0 0 0 0 0 0 0 0 
0 0 0 0 0 0 0 0 0 0 0 0 0 0 0 0 0 0 0 0 0 0 0 0 0 0 0 3 5 12 17 15 17 20 10 19 64 154 117 50 52 60 83 73 71 70 65 63 92 100 80 84 102 108 96 91 84 78 86 71 91 102 69 48 45 39 50 78 63 41 71 155 144 31 28 20 18 12 19 21 18 8 6 10 11 8 1 0 0 0 0 0 0 0 0 0 0 0 0 0 0 0 0 0 0 0 0 0 0 0 0 0 0 0 0 0 0 0 0 0 0 0 0 0 0 0 0 0 
0 0 0 0 0 0 0 0 0 0 0 0 0 0 0 0 0 0 0 0 0 0 0 0 0 0 0 1 7 6 17 16 13 18 13 7 26 106 157 91 69 89 96 62 59 66 64 57 77 104 83 65 73 83 68 74 88 99 80 76 98 126 81 37 39 33 50 79 101 94 116 182 108 27 27 18 16 14 18 23 17 7 5 9 11 9 2 0 0 0 0 0 0 0 0 0 0 0 0 0 0 0 0 0 0 0 0 0 0 0 0 0 0 0 0 0 0 0 0 0 0 0 0 0 0 0 0 0 
0 0 0 0 0 0 0 0 0 0 0 0 0 0 0 0 0 0 0 0 0 0 0 0 0 0 0 0 9 4 11 17 15 14 12 13 15 43 150 164 142 161 102 49 51 64 60 61 85 116 89 67 75 92 99 114 112 104 80 83 94 112 91 48 38 36 41 67 116 161 184 164 47 21 21 17 18 11 18 24 14 4 5 11 12 8 2 0 0 0 0 0 0 0 0 0 0 0 0 0 0 0 0 0 0 0 0 0 0 0 0 0 0 0 0 0 0 0 0 0 0 0 0 0 0 0 0 0 
0 0 0 0 0 0 0 0 0 0 0 0 0 0 0 0 0 0 0 0 0 0 0 0 0 0 0 0 1 8 6 14 16 13 7 14 11 17 49 145 188 177 96 37 49 59 56 67 102 129 93 72 71 102 113 117 101 76 82 85 95 121 110 69 48 45 39 47 119 184 152 55 29 24 19 19 12 4 16 19 12 3 1 8 11 9 5 0 0 0 0 0 0 0 0 0 0 0 0 0 0 0 0 0 0 0 0 0 0 0 0 0 0 0 0 0 0 0 0 0 0 0 0 0 0 0 0 0 
0 0 0 0 0 0 0 0 0 0 0 0 0 0 0 0 0 0 0 0 0 0 0 0 0 0 0 0 0 9 5 8 15 10 6 7 8 17 29 40 54 69 48 36 46 55 67 76 113 124 99 71 71 87 94 109 94 78 71 73 89 125 123 83 57 50 51 46 54 55 32 30 28 24 18 19 10 8 13 13 8 2 1 7 10 9 2 0 0 0 0 0 0 0 0 0 0 0 0 0 0 0 0 0 0 0 0 0 0 0 0 0 0 0 0 0 0 0 0 0 0 0 0 0 0 0 0 0 
0 0 0 0 0 0 0 0 0 0 0 0 0 0 0 0 0 0 0 0 0 0 0 0 0 0 0 0 0 6 8 7 10 12 9 9 9 13 31 39 40 40 35 37 46 49 57 70 99 112 108 95 96 102 107 112 100 97 91 82 92 125 129 85 62 68 64 56 51 46 30 29 30 24 17 15 7 12 10 9 7 2 2 7 8 7 2 0 0 0 0 0 0 0 0 0 0 0 0 0 0 0 0 0 0 0 0 0 0 0 0 0 0 0 0 0 0 0 0 0 0 0 0 0 0 0 0 0 
0 0 0 0 0 0 0 0 0 0 0 0 0 0 0 0 0 0 0 0 0 0 0 0 0 0 0 0 0 3 9 7 8 11 9 15 9 8 27 41 41 39 31 37 52 66 66 64 66 101 109 110 115 118 120 115 113 102 100 103 105 120 117 68 59 58 58 51 49 47 32 30 30 27 18 7 8 9 8 10 7 1 1 6 10 10 5 0 0 0 0 0 0 0 0 0 0 0 0 0 0 0 0 0 0 0 0 0 0 0 0 0 0 0 0 0 0 0 0 0 0 0 0 0 0 0 0 0 
