P2
128 99
233
0 0 0 0 0 0 0 0 0 0 0 0 0 0 0 0 0 0 0 0 0 0 0 0 0 0 0 0 0 0 0 0 0 0 0 0 0 0 0 0 0 0 0 0 0 0 0 0 0 0 0 0 0 0 0 0 0 0 0 0 0 0 0 0 0 0 0 0 0 0 0 0 0 0 0 0 0 0 0 0 0 0 0 0 0 0 0 0 0 0 0 0 0 0 0 0 0 0 0 0 0 0 0 0 0 0 0 0 0 0 0 0 0 0 0 0 0 0 0 0 0 0 0 0 0 0 0 0 
0 0 0 0 0 0 0 0 0 0 0 0 0 0 0 0 0 0 0 0 0 0 0 0 0 0 0 0 0 0 0 0 0 0 0 0 0 0 0 0 0 0 0 0 0 0 0 0 0 0 0 0 0 0 0 0 0 0 0 0 0 0 0 0 0 0 0 0 0 0 0 0 0 0 0 0 0 0 0 0 0 0 0 0 0 0 0 0 0 0 0 0 0 0 0 0 0 0 0 0 0 0 0 0 0 0 0 0 0 0 0 0 0 0 0 0 0 0 0 0 0 0 0 0 0 0 0 0 
0 0 0 0 0 0 0 0 0 0 0 0 0 0 0 0 0 0 0 0 0 0 0 0 0 0 0 0 0 0 0 0 0 0 0 0 0 0 0 0 0 0 0 0 0 0 0 0 0 0 3 4 3 2 1 0 0 0 0 0 0 0 0 0 0 0 0 0 0 0 0 0 0 0 0 0 0 0 0 0 0 0 0 0 0 0 0 0 0 0 0 0 0 0 0 0 0 0 0 0 0 0 0 0 0 0 0 0 0 0 0 0 0 0 0 0 0 0 0 0 0 0 0 0 0 0 0 0 
0 0 0 0 0 0 0 0 0 0 0 0 0 0 0 0 0 0 0 0 0 0 0 0 0 0 0 0 0 0 0 0 0 0 0 0 0 0 0 0 0 0 0 2 10 13 13 19 20 20 21 23 23 22 22 18 17 18 15 8 3 0 0 0 0 0 0 0 0 0 0 0 0 0 0 0 0 0 0 0 0 0 0 0 0 0 0 0 0 0 0 0 0 0 0 0 0 0 0 0 0 0 0 0 0 0 0 0 0 0 0 0 0 0 0 0 0 0 0 0 0 0 0 0 0 0 0 0 
0 0 0 0 0 0 0 0 0 0 0 0 0 0 0 0 0 0 0 0 0 0 0 0 0 0 0 0 0 0 0 0 0 0 0 0 0 0 0 0 3 13 19 27 25 30 49 70 94 114 127 133 137 137 134 124 111 95 75 54 32 23 14 7 2 0 0 0 0 0 0 0 0 0 0 0 0 0 0 0 0 0 0 0 0 0 0 0 0 0 0 0 0 0 0 0 0 0 0 0 0 0 0 0 0 0 0 0 0 0 0 0 0 0 0 0 0 0 0 0 0 0 0 0 0 0 0 0 
0 0 0 0 0 0 0 0 0 0 0 0 0 0 0 0 0 0 0 0 0 0 0 0 0 0 0 0 0 0 0 0 0 0 0 0 0 0 7 16 25 22 34 68 102 134 151 157 157 156 160 162 162 164 166 165 163 158 153 144 131 106 74 40 21 15 8 1 0 0 0 0 0 0 0 0 0 0 0 0 0 0 0 0 0 0 0 0 0 0 0 0 0 0 0 0 0 0 0 0 0 0 0 0 0 0 0 0 0 0 0 0 0 0 0 0 0 0 0 0 0 0 0 0 0 0 0 0 
0 0 0 0 0 0 0 0 0 0 0 0 0 0 0 0 0 0 0 0 0 0 0 0 0 0 0 0 0 0 0 0 0 0 0 0 6 18 24 22 49 93 133 159 164 160 167 173 177 179 181 178 177 177 175 172 168 164 165 168 169 158 144 135 115 73 36 16 13 1 0 0 0 0 0 0 0 0 0 0 0 0 0 0 0 0 0 0 0 0 0 0 0 0 0 0 0 0 0 0 0 0 0 0 0 0 0 0 0 0 0 0 0 0 0 0 0 0 0 0 0 0 0 0 0 0 0 0 
0 0 0 0 0 0 0 0 0 0 0 0 0 0 0 0 0 0 0 0 0 0 0 0 0 0 0 0 0 0 0 0 0 0 7 20 23 24 59 109 150 166 165 173 179 176 167 157 155 161 174 188 192 184 182 189 196 194 186 177 169 163 166 169 158 143 133 96 44 20 13 1 0 0 0 0 0 0 0 0 0 0 0 0 0 0 0 0 0 0 0 0 0 0 0 0 0 0 0 0 0 0 0 0 0 0 0 0 0 0 0 0 0 0 0 0 0 0 0 0 0 0 0 0 0 0 0 0 
0 0 0 0 0 0 0 0 0 0 0 0 0 0 0 0 0 0 0 0 0 0 0 0 0 0 0 0 0 0 0 0 5 20 30 27 56 111 155 168 166 175 176 173 169 162 164 169 170 173 167 159 149 142 147 159 171 189 209 211 202 189 180 170 166 166 162 147 139 103 42 24 9 0 0 0 0 0 0 0 0 0 0 0 0 0 0 0 0 0 0 0 0 0 0 0 0 0 0 0 0 0 0 0 0 0 0 0 0 0 0 0 0 0 0 0 0 0 0 0 0 0 0 0 0 0 0 0 
0 0 0 0 0 0 0 0 0 0 0 0 0 0 0 0 0 0 0 0 0 0 0 0 0 0 0 0 0 0 0 20 29 25 37 99 151 167 164 171 172 173 168 160 171 181 170 150 132 122 140 151 152 144 138 137 133 144 157 176 199 211 211 199 187 178 168 168 163 148 138 77 25 19 2 0 0 0 0 0 0 0 0 0 0 0 0 0 0 0 0 0 0 0 0 0 0 0 0 0 0 0 0 0 0 0 0 0 0 0 0 0 0 0 0 0 0 0 0 0 0 0 0 0 0 0 0 0 
0 0 0 0 0 0 0 0 0 0 0 0 0 0 0 0 0 0 0 0 0 0 0 0 0 0 0 0 0 10 28 26 24 76 139 170 165 167 172 170 177 186 184 180 159 134 122 112 102 112 111 115 108 107 116 118 112 111 123 130 145 168 185 197 210 209 193 181 173 168 160 148 116 39 23 4 0 0 0 0 0 0 0 0 0 0 0 0 0 0 0 0 0 0 0 0 0 0 0 0 0 0 0 0 0 0 0 0 0 0 0 0 0 0 0 0 0 0 0 0 0 0 0 0 0 0 0 0 
0 0 0 0 0 0 0 0 0 0 0 0 0 0 0 0 0 0 0 0 0 0 0 0 0 0 0 0 24 22 20 44 115 161 165 163 172 173 179 195 197 172 149 130 120 124 128 123 128 131 113 115 110 112 136 141 140 137 133 136 138 145 158 169 178 187 202 206 194 180 171 168 156 137 64 23 9 0 0 0 0 0 0 0 0 0 0 0 0 0 0 0 0 0 0 0 0 0 0 0 0 0 0 0 0 0 0 0 0 0 0 0 0 0 0 0 0 0 0 0 0 0 0 0 0 0 0 0 
0 0 0 0 0 0 0 0 0 0 0 0 0 0 0 0 0 0 0 0 0 0 0 0 0 0 4 27 17 21 70 137 165 161 168 172 183 199 199 170 143 130 118 116 123 125 129 132 136 119 111 111 108 104 112 121 119 120 123 128 140 150 152 157 163 169 176 186 200 205 186 177 171 158 142 84 24 11 0 0 0 0 0 0 0 0 0 0 0 0 0 0 0 0 0 0 0 0 0 0 0 0 0 0 0 0 0 0 0 0 0 0 0 0 0 0 0 0 0 0 0 0 0 0 0 0 0 0 
0 0 0 0 0 0 0 0 0 0 0 0 0 0 0 0 0 0 0 0 0 0 0 0 0 11 26 15 29 88 146 165 163 173 177 194 205 177 143 125 125 127 135 143 136 122 124 122 109 103 105 118 116 118 122 135 145 143 136 127 127 135 141 150 155 159 162 167 177 191 206 196 177 172 162 146 92 26 12 0 0 0 0 0 0 0 0 0 0 0 0 0 0 0 0 0 0 0 0 0 0 0 0 0 0 0 0 0 0 0 0 0 0 0 0 0 0 0 0 0 0 0 0 0 0 0 0 0 
0 0 0 0 0 0 0 0 0 0 0 0 0 0 0 0 0 0 0 0 0 0 0 0 13 25 13 35 103 153 163 168 175 184 202 197 157 130 127 136 147 155 156 151 147 143 132 120 121 121 121 122 122 122 123 124 128 137 144 150 150 149 148 140 134 140 149 150 158 169 181 201 203 181 174 164 149 100 27 10 0 0 0 0 0 0 0 0 0 0 0 0 0 0 0 0 0 0 0 0 0 0 0 0 0 0 0 0 0 0 0 0 0 0 0 0 0 0 0 0 0 0 0 0 0 0 0 0 
0 0 0 0 0 0 0 0 0 0 0 0 0 0 0 0 0 0 0 0 0 0 2 19 22 9 42 112 154 161 174 183 187 196 178 136 119 136 155 160 157 144 142 141 136 129 127 125 129 133 120 95 94 113 117 118 117 114 115 118 119 129 142 154 157 139 132 141 145 150 163 176 196 205 177 175 163 153 107 29 10 0 0 0 0 0 0 0 0 0 0 0 0 0 0 0 0 0 0 0 0 0 0 0 0 0 0 0 0 0 0 0 0 0 0 0 0 0 0 0 0 0 0 0 0 0 0 0 
0 0 0 0 0 0 0 0 0 0 0 0 0 0 0 0 0 0 0 0 0 5 18 20 11 51 120 154 160 176 183 182 190 161 121 123 151 168 158 147 134 130 134 133 125 125 128 125 132 135 123 102 97 114 121 124 120 113 108 109 107 109 115 120 143 159 154 135 137 147 143 150 168 197 206 177 171 167 159 113 31 9 0 0 0 0 0 0 0 0 0 0 0 0 0 0 0 0 0 0 0 0 0 0 0 0 0 0 0 0 0 0 0 0 0 0 0 0 0 0 0 0 0 0 0 0 0 0 
0 0 0 0 0 0 0 0 0 0 0 0 0 0 0 0 0 0 0 0 6 18 16 13 63 128 160 165 177 181 180 181 142 116 136 164 162 142 136 133 127 129 127 122 126 131 129 134 142 145 135 127 132 148 156 156 155 146 133 127 122 117 107 97 103 118 143 159 145 133 141 139 137 155 194 203 172 167 166 161 119 32 8 0 0 0 0 0 0 0 0 0 0 0 0 0 0 0 0 0 0 0 0 0 0 0 0 0 0 0 0 0 0 0 0 0 0 0 0 0 0 0 0 0 0 0 0 0 
0 0 0 0 0 0 0 0 0 0 0 0 0 0 0 0 0 0 0 4 20 14 13 73 132 156 167 175 178 180 181 136 121 147 165 153 128 121 112 111 113 118 126 140 153 155 154 161 157 150 155 157 162 164 162 167 169 165 160 159 158 152 142 128 106 96 106 129 156 150 128 127 130 136 149 187 201 170 168 166 161 112 30 3 0 0 0 0 0 0 0 0 0 0 0 0 0 0 0 0 0 0 0 0 0 0 0 0 0 0 0 0 0 0 0 0 0 0 0 0 0 0 0 0 0 0 0 0 
0 0 0 0 0 0 0 0 0 0 0 0 0 0 0 0 0 0 3 20 13 16 81 136 154 170 172 174 174 176 133 126 148 163 150 121 102 101 105 109 123 147 163 166 154 138 134 134 124 116 114 126 124 121 119 120 128 139 147 154 159 162 163 156 138 113 100 103 128 152 152 124 122 124 132 146 188 200 169 167 163 154 98 21 3 0 0 0 0 0 0 0 0 0 0 0 0 0 0 0 0 0 0 0 0 0 0 0 0 0 0 0 0 0 0 0 0 0 0 0 0 0 0 0 0 0 0 0 
0 0 0 0 0 0 0 0 0 0 0 0 0 0 0 0 0 1 18 11 21 82 134 150 167 169 175 170 175 133 131 147 153 145 114 101 104 112 120 136 157 161 145 127 114 109 109 108 107 104 100 104 106 103 102 100 103 110 118 126 137 151 158 160 160 148 116 103 104 115 142 151 130 119 118 127 149 194 192 169 164 165 139 82 11 0 0 0 0 0 0 0 0 0 0 0 0 0 0 0 0 0 0 0 0 0 0 0 0 0 0 0 0 0 0 0 0 0 0 0 0 0 0 0 0 0 0 0 
0 0 0 0 0 0 0 0 0 0 0 0 0 0 0 0 0 12 13 16 74 130 140 162 169 173 157 172 140 133 141 146 146 118 99 104 112 122 138 156 148 128 118 114 114 115 114 106 111 112 106 108 110 111 109 110 110 108 111 115 116 123 136 152 162 163 147 113 101 98 105 134 150 133 117 116 123 156 195 180 169 160 161 122 50 4 0 0 0 0 0 0 0 0 0 0 0 0 0 0 0 0 0 0 0 0 0 0 0 0 0 0 0 0 0 0 0 0 0 0 0 0 0 0 0 0 0 0 
0 0 0 0 0 0 0 0 0 0 0 0 0 0 0 0 5 15 12 55 127 136 149 173 170 156 159 153 136 137 142 139 115 105 106 109 120 136 157 152 133 126 127 123 122 120 119 113 113 114 107 116 121 124 126 121 120 122 120 124 127 123 122 125 141 158 161 138 104 98 96 103 133 150 130 110 108 120 167 189 174 166 167 143 102 21 0 0 0 0 0 0 0 0 0 0 0 0 0 0 0 0 0 0 0 0 0 0 0 0 0 0 0 0 0 0 0 0 0 0 0 0 0 0 0 0 0 0 
0 0 0 0 0 0 0 0 0 0 0 0 0 0 0 1 15 12 38 116 133 136 172 167 159 146 160 140 134 143 135 107 102 112 118 120 127 146 144 131 119 105 110 112 115 114 115 109 111 114 119 117 117 124 122 122 121 122 121 122 129 129 126 118 121 144 161 156 124 96 94 95 106 133 143 130 111 105 122 177 178 173 161 166 123 75 6 0 0 0 0 0 0 0 0 0 0 0 0 0 0 0 0 0 0 0 0 0 0 0 0 0 0 0 0 0 0 0 0 0 0 0 0 0 0 0 0 0 
0 0 0 0 0 0 0 0 0 0 0 0 0 0 0 5 13 20 92 129 131 153 173 160 142 154 146 131 136 143 107 98 105 109 114 117 129 139 133 130 120 104 115 119 109 100 104 107 109 109 118 109 105 114 107 104 101 101 103 111 117 120 130 133 127 125 142 160 148 112 93 96 99 115 136 143 127 105 109 146 167 176 162 171 146 112 30 0 0 0 0 0 0 0 0 0 0 0 0 0 0 0 0 0 0 0 0 0 0 0 0 0 0 0 0 0 0 0 0 0 0 0 0 0 0 0 0 0 
0 0 0 0 0 0 0 0 0 0 0 0 0 0 2 9 12 63 127 124 139 171 156 154 133 148 136 132 146 123 101 99 105 107 113 120 134 137 134 134 129 120 112 103 96 97 102 100 97 98 118 105 93 104 87 85 85 85 85 86 91 97 103 117 127 132 122 146 161 137 106 94 92 101 119 140 144 109 96 128 138 171 164 161 161 124 65 4 0 0 0 0 0 0 0 0 0 0 0 0 0 0 0 0 0 0 0 0 0 0 0 0 0 0 0 0 0 0 0 0 0 0 0 0 0 0 0 0 
0 0 0 0 0 0 0 0 0 0 0 0 0 0 3 14 34 107 129 124 154 163 149 134 122 152 130 136 132 103 102 106 110 111 113 134 141 137 139 129 117 103 89 85 86 89 88 83 79 84 107 101 85 86 81 84 80 80 82 82 83 83 88 97 114 133 127 128 153 157 124 102 93 95 103 123 151 131 97 113 129 146 168 155 165 139 95 16 0 0 0 0 0 0 0 0 0 0 0 0 0 0 0 0 0 0 0 0 0 0 0 0 0 0 0 0 0 0 0 0 0 0 0 0 0 0 0 0 
0 0 0 0 0 0 0 0 0 0 0 0 0 1 8 17 70 127 118 136 164 149 149 104 142 149 127 134 113 105 108 103 112 120 135 141 136 135 136 115 93 82 79 78 78 80 78 80 80 80 85 82 80 83 81 81 82 80 80 77 77 78 80 83 94 122 135 128 133 161 156 123 99 97 100 107 137 147 110 105 132 129 165 155 164 151 112 33 0 0 0 0 0 0 0 0 0 0 0 0 0 0 0 0 0 0 0 0 0 0 0 0 0 0 0 0 0 0 0 0 0 0 0 0 0 0 0 0 
0 0 0 0 0 0 0 0 0 0 0 0 0 1 8 32 98 129 123 145 163 152 121 103 156 135 121 128 107 111 111 110 118 130 142 129 126 127 122 97 78 75 77 77 77 78 78 82 82 82 82 78 78 79 82 82 80 79 80 76 77 79 78 79 82 99 124 133 128 146 168 149 117 103 98 101 125 144 115 100 127 131 151 161 160 153 124 51 3 0 0 0 0 0 0 0 0 0 0 0 0 0 0 0 0 0 0 0 0 0 0 0 0 0 0 0 0 0 0 0 0 0 0 0 0 0 0 0 
0 0 0 0 0 0 0 0 0 0 0 0 0 2 12 50 126 119 135 155 164 134 108 124 157 119 113 118 110 119 115 120 134 146 127 127 133 124 104 85 79 78 77 78 76 77 82 85 89 91 91 91 91 97 96 93 90 86 82 81 81 80 79 78 77 81 103 124 130 129 151 167 144 112 104 108 116 135 120 101 122 133 142 162 160 152 134 73 6 0 0 0 0 0 0 0 0 0 0 0 0 0 0 0 0 0 0 0 0 0 0 0 0 0 0 0 0 0 0 0 0 0 0 0 0 0 0 0 
0 0 0 0 0 0 0 0 0 0 0 0 0 4 18 75 139 115 149 157 147 110 117 145 146 110 113 113 116 120 120 138 153 144 125 127 121 102 90 81 81 81 83 79 81 90 97 103 110 113 114 113 112 116 114 112 109 110 106 102 94 87 81 79 79 78 89 111 125 119 128 162 166 131 107 112 113 132 126 103 117 133 138 157 159 154 140 89 11 0 0 0 0 0 0 0 0 0 0 0 0 0 0 0 0 0 0 0 0 0 0 0 0 0 0 0 0 0 0 0 0 0 0 0 0 0 0 0 
0 0 0 0 0 0 0 0 0 0 0 0 1 7 28 105 138 130 152 147 111 104 134 153 132 103 102 117 121 118 129 155 153 128 109 120 100 81 81 81 85 91 93 93 101 111 115 116 115 110 102 104 108 102 89 86 87 96 108 116 117 110 98 85 80 79 87 102 107 111 112 135 171 164 123 113 108 124 123 108 119 129 135 152 162 155 144 104 15 0 0 0 0 0 0 0 0 0 0 0 0 0 0 0 0 0 0 0 0 0 0 0 0 0 0 0 0 0 0 0 0 0 0 0 0 0 0 0 
0 0 0 0 0 0 0 0 0 0 0 0 2 9 41 124 125 136 149 137 102 108 144 149 117 87 108 121 123 114 141 157 135 113 104 110 90 77 72 78 87 99 113 115 115 114 109 100 97 89 82 92 91 77 73 68 70 76 80 106 120 123 115 100 93 99 108 100 91 98 104 114 142 172 153 120 107 115 122 115 117 118 131 152 166 160 146 115 26 0 0 0 0 0 0 0 0 0 0 0 0 0 0 0 0 0 0 0 0 0 0 0 0 0 0 0 0 0 0 0 0 0 0 0 0 0 0 0 
0 0 0 0 0 0 0 0 0 0 0 0 2 11 52 134 123 146 146 129 97 122 149 139 108 85 112 122 115 97 148 147 118 103 98 100 90 78 79 82 87 103 120 125 117 109 99 86 78 74 76 83 74 71 66 60 63 69 76 87 126 142 139 134 134 119 88 84 88 92 100 103 118 157 169 139 107 106 112 121 120 111 128 152 168 171 147 123 35 0 0 0 0 0 0 0 0 0 0 0 0 0 0 0 0 0 0 0 0 0 0 0 0 0 0 0 0 0 0 0 0 0 0 0 0 0 0 0 
0 0 0 0 0 0 0 0 0 0 0 0 1 13 60 137 123 146 143 135 97 134 145 131 107 92 115 124 100 96 148 133 108 92 89 96 100 91 85 87 92 104 118 125 117 105 93 79 74 66 69 73 65 67 60 56 58 63 69 81 116 145 150 138 105 83 78 79 95 96 97 99 97 126 166 163 122 111 100 126 129 113 132 152 167 175 152 131 45 2 0 0 0 0 0 0 0 0 0 0 0 0 0 0 0 0 0 0 0 0 0 0 0 0 0 0 0 0 0 0 0 0 0 0 0 0 0 0 
0 0 0 0 0 0 0 0 0 0 0 0 2 13 67 137 126 144 150 138 101 144 146 128 111 97 117 121 90 100 142 119 95 86 88 96 107 109 108 109 108 107 123 129 126 117 93 75 68 61 65 68 70 65 58 54 55 55 62 73 108 138 128 112 105 90 85 87 83 86 92 96 90 99 146 174 148 113 97 128 128 105 127 148 163 177 157 136 54 3 0 0 0 0 0 0 0 0 0 0 0 0 0 0 0 0 0 0 0 0 0 0 0 0 0 0 0 0 0 0 0 0 0 0 0 0 0 0 
0 0 0 0 0 0 0 0 0 0 0 0 4 12 76 137 137 152 151 136 108 150 137 126 120 104 118 117 91 100 136 106 89 88 93 92 92 95 103 110 111 109 118 117 112 124 106 73 61 57 62 65 77 63 56 56 57 57 57 70 107 121 111 107 101 95 82 77 77 79 83 87 86 94 123 160 179 123 100 131 136 104 129 145 160 180 161 139 60 3 0 0 0 0 0 0 0 0 0 0 0 0 0 0 0 0 0 0 0 0 0 0 0 0 0 0 0 0 0 0 0 0 0 0 0 0 0 0 
0 0 0 0 0 0 0 0 0 0 0 0 6 10 81 134 145 156 145 138 116 151 133 124 134 117 113 110 94 104 126 94 89 87 79 78 78 79 76 69 62 58 63 81 95 116 119 81 59 58 63 63 76 67 59 69 62 57 64 85 118 121 95 80 81 80 80 80 80 82 83 86 84 78 118 146 180 155 117 143 141 104 126 138 151 179 169 144 72 5 0 0 0 0 0 0 0 0 0 0 0 0 0 0 0 0 0 0 0 0 0 0 0 0 0 0 0 0 0 0 0 0 0 0 0 0 0 0 
0 0 0 0 0 0 0 0 0 0 0 0 6 11 86 132 148 150 145 141 119 147 136 125 146 126 119 111 99 110 110 97 95 79 76 76 79 80 73 66 59 55 52 51 65 94 101 107 71 76 88 81 77 69 77 89 77 74 81 100 107 73 71 77 83 86 86 81 82 84 85 89 89 84 117 144 160 178 153 145 138 102 116 129 140 177 169 143 84 6 0 0 0 0 0 0 0 0 0 0 0 0 0 0 0 0 0 0 0 0 0 0 0 0 0 0 0 0 0 0 0 0 0 0 0 0 0 0 
0 0 0 0 0 0 0 0 0 0 0 0 9 12 88 129 144 140 140 139 118 143 133 120 151 133 121 114 105 108 106 103 79 71 78 81 85 83 83 84 73 60 52 52 53 69 75 81 82 66 58 83 81 73 90 84 73 65 62 84 69 60 71 82 95 100 100 101 100 102 102 105 104 92 111 145 162 176 181 156 132 101 108 124 133 173 170 140 97 13 0 0 0 0 0 0 0 0 0 0 0 0 0 0 0 0 0 0 0 0 0 0 0 0 0 0 0 0 0 0 0 0 0 0 0 0 0 0 
0 0 0 0 0 0 0 0 0 0 0 0 8 14 88 129 148 149 144 128 117 141 125 113 147 143 123 118 124 119 112 103 78 74 78 83 87 91 91 84 78 75 64 54 55 55 73 70 84 76 77 70 85 83 107 58 51 53 74 76 56 56 70 85 94 95 94 95 94 96 95 97 104 106 118 134 172 177 195 173 120 94 100 112 135 162 172 141 108 22 0 0 0 0 0 0 0 0 0 0 0 0 0 0 0 0 0 0 0 0 0 0 0 0 0 0 0 0 0 0 0 0 0 0 0 0 0 0 
0 0 0 0 0 0 0 0 0 0 0 0 7 17 89 131 151 152 134 121 118 139 117 109 137 153 132 112 129 130 126 101 82 79 86 94 99 95 84 76 70 71 71 63 56 55 62 71 82 87 89 87 100 87 105 75 74 80 79 70 55 58 67 77 83 84 84 84 91 95 101 102 111 95 93 116 159 182 191 171 109 91 99 102 136 151 176 143 113 33 1 0 0 0 0 0 0 0 0 0 0 0 0 0 0 0 0 0 0 0 0 0 0 0 0 0 0 0 0 0 0 0 0 0 0 0 0 0 
0 0 0 0 0 0 0 0 0 0 0 0 6 20 91 136 150 154 127 122 121 131 112 114 122 146 144 126 135 134 140 108 102 97 92 97 98 83 67 60 57 58 62 64 62 56 56 71 75 91 91 89 84 82 88 83 85 87 81 63 60 54 63 76 81 83 83 83 86 95 104 110 108 83 86 112 150 184 186 160 102 80 94 99 123 133 168 143 115 41 3 0 0 0 0 0 0 0 0 0 0 0 0 0 0 0 0 0 0 0 0 0 0 0 0 0 0 0 0 0 0 0 0 0 0 0 0 0 
0 0 0 0 0 0 0 0 0 0 0 0 7 20 95 140 150 156 131 122 121 124 109 107 107 139 141 134 133 136 139 97 91 91 96 98 93 76 60 52 55 54 56 60 63 66 60 67 75 95 92 74 88 127 112 84 84 86 80 64 54 51 63 73 77 80 82 82 85 89 97 100 98 78 89 112 152 191 190 157 95 76 92 106 115 125 159 142 115 47 3 0 0 0 0 0 0 0 0 0 0 0 0 0 0 0 0 0 0 0 0 0 0 0 0 0 0 0 0 0 0 0 0 0 0 0 0 0 
0 0 0 0 0 0 0 0 0 0 0 0 7 22 97 139 151 158 133 112 108 120 108 92 98 133 140 154 150 141 136 92 91 91 94 94 85 69 55 52 52 51 52 57 57 61 72 76 80 103 98 81 118 104 93 103 80 91 91 58 52 56 79 82 79 82 81 81 82 87 97 103 92 78 89 113 151 190 186 149 91 73 83 113 114 107 158 143 117 52 2 0 0 0 0 0 0 0 0 0 0 0 0 0 0 0 0 0 0 0 0 0 0 0 0 0 0 0 0 0 0 0 0 0 0 0 0 0 
0 0 0 0 0 0 0 0 0 0 0 0 9 22 94 137 148 150 134 96 89 124 102 85 96 126 146 149 140 147 134 95 86 88 85 87 84 67 54 51 52 52 53 57 56 57 69 71 76 104 105 113 97 77 76 57 85 78 73 57 69 83 99 77 79 81 80 82 85 88 95 99 85 75 88 114 149 182 182 145 88 73 80 117 111 101 148 139 118 57 3 0 0 0 0 0 0 0 0 0 0 0 0 0 0 0 0 0 0 0 0 0 0 0 0 0 0 0 0 0 0 0 0 0 0 0 0 0 
0 0 0 0 0 0 0 0 0 0 0 0 9 21 91 134 147 141 132 73 78 123 104 88 99 124 152 145 121 143 143 109 83 82 83 88 87 73 56 51 49 53 66 79 72 64 70 70 69 86 81 112 83 71 76 56 77 102 69 73 69 67 75 74 81 83 83 84 84 86 97 94 77 72 94 116 156 184 188 143 84 73 77 115 112 104 149 133 118 60 3 0 0 0 0 0 0 0 0 0 0 0 0 0 0 0 0 0 0 0 0 0 0 0 0 0 0 0 0 0 0 0 0 0 0 0 0 0 
0 0 0 0 0 0 0 0 0 0 0 0 7 17 87 131 142 126 122 70 75 119 109 95 101 123 146 142 113 132 146 125 84 84 82 88 92 78 63 53 49 54 72 77 74 83 77 77 74 86 104 88 66 63 71 50 63 106 47 57 64 58 67 80 86 84 85 85 90 95 97 87 70 72 99 121 170 183 182 142 82 75 77 112 108 101 147 134 115 58 3 0 0 0 0 0 0 0 0 0 0 0 0 0 0 0 0 0 0 0 0 0 0 0 0 0 0 0 0 0 0 0 0 0 0 0 0 0 
0 0 0 0 0 0 0 0 0 0 0 0 6 15 82 126 139 112 118 71 70 113 112 97 103 121 155 147 105 119 146 132 83 85 85 84 90 85 69 53 51 54 53 58 58 67 74 77 84 71 104 71 65 62 74 50 49 84 72 55 54 55 67 95 89 83 81 87 92 99 100 79 65 69 100 131 187 175 173 146 79 74 78 110 99 101 147 133 118 55 3 0 0 0 0 0 0 0 0 0 0 0 0 0 0 0 0 0 0 0 0 0 0 0 0 0 0 0 0 0 0 0 0 0 0 0 0 0 
0 0 0 0 0 0 0 0 0 0 0 0 3 14 78 122 141 122 130 77 68 103 114 98 96 115 153 154 105 106 134 129 80 80 81 84 89 86 68 52 50 50 56 55 55 64 68 60 60 76 104 63 65 64 67 55 46 56 83 56 53 51 72 105 91 83 83 88 90 101 97 75 61 67 101 130 178 160 157 149 78 71 85 111 95 101 145 133 116 51 2 0 0 0 0 0 0 0 0 0 0 0 0 0 0 0 0 0 0 0 0 0 0 0 0 0 0 0 0 0 0 0 0 0 0 0 0 0 
0 0 0 0 0 0 0 0 0 0 0 0 0 11 74 116 137 127 139 83 68 95 115 101 95 110 150 158 115 106 124 135 87 79 76 83 87 87 69 55 50 53 56 54 54 59 60 54 58 94 72 61 59 65 66 52 45 49 80 66 53 52 82 102 90 84 83 84 92 104 93 67 51 64 102 135 168 151 139 145 89 74 95 105 91 109 146 133 110 45 2 0 0 0 0 0 0 0 0 0 0 0 0 0 0 0 0 0 0 0 0 0 0 0 0 0 0 0 0 0 0 0 0 0 0 0 0 0 
0 0 0 0 0 0 0 0 0 11 8 0 0 9 72 114 132 123 139 90 67 84 110 104 94 104 141 168 125 106 120 127 95 82 83 79 81 78 66 51 49 54 58 54 63 65 73 51 59 88 57 58 54 65 64 50 47 52 61 85 90 89 105 99 87 79 83 84 92 100 89 67 49 70 118 158 170 156 135 140 104 80 97 98 91 125 141 134 98 38 1 0 0 0 0 0 0 0 0 0 0 0 0 0 0 0 0 0 0 0 0 0 0 0 0 0 0 0 0 0 0 0 0 0 0 0 0 0 
0 0 0 0 0 0 0 0 0 0 4 3 2 9 63 115 137 127 132 104 68 76 102 110 100 103 142 181 127 86 100 125 101 76 79 80 79 71 65 53 63 84 90 79 69 62 51 54 70 76 66 54 47 65 63 61 50 47 44 101 84 102 106 88 85 79 75 85 87 90 80 61 57 88 138 171 154 140 123 136 117 94 91 94 95 133 134 128 91 34 1 0 0 0 0 0 0 0 0 0 0 0 0 0 0 0 0 0 0 0 0 0 0 0 0 0 0 0 0 0 0 0 0 0 0 0 0 0 
0 0 0 0 0 0 0 0 0 0 1 9 3 8 53 112 133 128 117 116 71 68 93 104 107 102 141 187 121 66 82 99 109 83 77 81 78 72 64 61 76 85 87 80 62 73 82 69 83 58 63 53 46 72 65 50 53 46 45 107 103 107 106 105 107 103 93 85 89 84 74 63 77 111 162 164 139 114 93 129 130 98 86 96 112 133 136 120 89 28 0 0 0 0 0 0 0 0 0 0 0 0 0 0 0 0 0 0 0 0 0 0 0 0 0 0 0 0 0 0 0 0 0 0 0 0 0 0 
0 0 0 0 0 0 0 0 0 0 3 13 2 10 45 109 126 129 109 127 78 68 87 93 113 104 141 181 126 68 85 94 118 117 83 81 82 84 84 98 81 76 82 70 46 50 58 79 93 53 61 59 53 84 67 56 50 44 46 92 110 95 98 108 103 104 109 117 115 102 99 103 121 156 175 161 136 98 98 135 139 96 77 109 139 126 134 109 84 21 1 0 0 10 7 0 0 0 0 0 0 0 0 0 0 0 0 0 0 0 0 0 0 0 0 0 0 0 0 0 0 0 0 0 0 0 0 0 
0 0 0 0 0 0 0 0 0 0 3 12 0 8 36 106 124 135 103 130 105 70 76 88 102 115 143 175 139 81 111 145 146 153 141 119 121 112 107 92 86 82 55 48 42 43 49 65 101 54 65 67 68 82 67 50 51 44 53 93 99 87 108 121 116 120 158 170 158 147 134 122 109 127 165 164 130 93 102 129 151 86 98 152 136 118 118 96 89 15 2 2 5 0 0 0 0 0 0 0 0 0 0 0 0 0 0 0 0 0 0 0 0 0 0 0 0 0 0 0 0 0 0 0 0 0 0 0 
0 0 0 0 0 0 0 0 0 0 2 15 1 7 26 101 121 138 112 120 123 73 69 87 93 117 151 170 134 97 120 153 138 120 132 131 120 108 102 102 89 82 91 78 49 38 42 61 93 61 79 85 71 86 67 51 53 61 69 104 106 82 95 105 107 139 186 196 187 169 122 110 116 131 153 155 128 108 118 138 153 90 121 161 139 129 109 87 86 10 4 3 8 0 0 0 0 0 0 0 0 0 0 0 0 0 0 0 0 0 0 0 0 0 0 0 0 0 0 0 0 0 0 0 0 0 0 0 
0 0 0 0 0 0 0 0 0 0 1 15 3 7 17 87 113 138 129 112 133 85 78 84 91 99 162 168 142 108 107 142 150 129 128 116 110 115 104 90 72 66 74 88 67 41 38 58 98 102 77 75 77 90 81 85 90 70 67 96 100 92 94 97 101 129 157 184 185 153 116 124 149 155 167 145 92 90 114 139 162 125 133 165 143 107 79 80 71 6 2 0 6 1 0 0 0 0 0 0 0 0 0 0 0 0 0 0 0 0 0 0 0 0 0 0 0 0 0 0 0 0 0 0 0 0 0 0 
0 0 0 0 0 0 0 0 0 0 0 15 4 8 13 68 101 136 135 120 142 103 99 91 94 100 158 160 147 137 123 127 127 130 148 159 162 147 116 108 90 61 63 80 80 53 46 82 106 107 113 105 81 102 110 87 73 86 85 98 98 92 109 110 107 117 139 152 155 126 121 150 159 160 153 132 103 106 126 159 184 168 157 175 141 118 99 83 42 4 1 0 4 1 0 0 0 0 0 0 0 0 0 0 0 0 0 0 0 0 0 0 0 0 0 0 0 0 0 0 0 0 0 0 0 0 0 0 
0 0 0 0 0 0 0 0 0 0 0 16 3 3 8 45 92 133 137 127 152 120 110 116 113 125 162 149 128 127 100 97 110 146 166 158 163 162 141 127 114 88 71 76 91 66 70 89 110 83 89 116 109 130 108 75 68 82 97 99 102 98 95 98 101 113 127 118 115 107 113 149 156 156 133 108 128 142 155 178 206 207 178 157 112 104 82 76 18 1 0 1 3 2 0 0 0 0 0 0 0 0 0 0 0 0 0 0 0 0 0 0 0 0 0 0 0 0 0 0 0 0 0 0 0 0 0 0 
0 0 0 0 0 0 0 0 0 0 0 10 9 1 7 13 58 109 132 141 141 171 131 127 127 106 133 133 126 122 134 126 119 142 147 153 160 179 172 141 123 119 93 85 93 88 80 102 111 83 76 101 94 99 117 89 77 75 85 110 111 114 99 99 95 101 104 100 95 100 101 140 156 169 147 123 125 143 158 174 194 192 155 148 110 124 105 79 19 0 1 4 4 2 0 0 0 0 0 0 0 0 0 0 0 0 0 0 0 0 0 0 0 0 0 0 0 0 0 0 0 0 0 0 0 0 0 0 
0 0 0 0 0 0 0 0 0 0 0 10 9 2 8 8 38 98 131 137 157 166 174 159 134 124 150 139 116 122 126 139 136 131 151 162 167 179 151 117 111 130 116 97 91 102 103 113 102 82 64 76 96 102 108 99 83 79 91 103 110 113 105 121 124 114 83 73 96 98 121 159 172 172 134 122 116 131 151 177 174 169 128 117 73 144 116 61 7 0 2 3 4 1 0 0 0 0 0 0 0 0 0 0 0 0 0 0 0 0 0 0 0 0 0 0 0 0 0 0 0 0 0 0 0 0 0 0 
0 0 0 0 0 0 0 0 0 0 0 10 6 3 6 10 25 86 131 136 130 143 141 150 150 132 126 114 93 110 120 130 144 134 137 148 169 154 109 93 91 111 106 110 100 91 101 107 86 86 82 78 85 94 114 99 82 84 99 93 102 110 112 114 122 105 64 57 87 119 146 173 190 156 124 115 117 124 137 169 173 172 123 97 96 123 92 34 3 1 4 2 3 3 0 0 0 0 0 0 0 0 0 0 0 0 0 0 0 0 0 0 0 0 0 0 0 0 0 0 0 0 0 0 0 0 0 0 
0 0 0 0 0 0 0 0 0 0 0 12 3 2 7 14 21 69 121 149 137 146 131 131 135 126 118 127 97 84 104 119 137 148 140 125 124 130 107 104 107 122 110 96 91 98 96 103 98 103 97 88 84 83 117 109 85 103 118 111 107 127 125 105 89 63 55 74 108 128 161 178 171 146 117 98 113 130 137 168 154 130 128 101 111 94 82 19 5 3 4 0 0 4 0 0 0 0 0 0 0 0 0 0 0 0 0 0 0 0 0 0 0 0 0 0 0 0 0 0 0 0 0 0 0 0 0 0 
0 0 0 0 0 0 0 0 0 0 0 12 6 0 5 14 15 38 98 131 100 106 120 121 145 140 127 100 91 77 93 108 124 126 127 126 110 110 110 122 129 125 122 112 101 103 111 107 119 121 150 121 86 83 115 110 103 109 124 119 113 117 100 75 83 79 93 109 116 128 141 163 149 144 116 101 117 144 138 148 135 115 92 96 98 87 54 17 10 6 1 0 0 6 0 0 0 0 0 0 0 0 0 0 0 0 0 0 0 0 0 0 0 0 0 0 0 0 0 0 0 0 0 0 0 0 0 0 
0 0 0 0 0 0 0 0 0 0 0 8 11 2 3 6 9 18 79 118 82 94 119 129 138 109 128 123 115 123 134 138 155 142 139 130 137 126 99 70 76 100 120 121 108 101 106 111 133 144 149 151 131 117 137 124 120 123 142 110 82 88 88 101 107 117 113 119 115 122 111 135 150 148 125 118 128 140 152 151 134 95 80 93 60 70 21 10 13 11 4 0 0 7 0 0 0 0 0 0 0 0 0 0 0 0 0 0 0 0 0 0 0 0 0 0 0 0 0 0 0 0 0 0 0 0 0 0 
0 0 0 0 0 0 0 0 0 0 0 4 11 8 1 2 10 10 54 103 113 82 118 160 140 104 112 158 155 155 157 126 105 129 141 131 137 130 88 69 56 72 79 97 121 112 107 133 148 131 131 129 127 130 142 134 133 151 157 138 117 123 120 133 138 138 135 124 100 105 90 108 145 135 129 129 143 133 160 145 125 85 88 103 61 62 11 7 11 15 9 0 0 7 0 0 0 0 0 0 0 0 0 0 0 0 0 0 0 0 0 0 0 0 0 0 0 0 0 0 0 0 0 0 0 0 0 0 
0 0 0 0 0 0 0 0 0 0 1 4 8 10 4 1 12 9 27 81 108 81 84 129 156 119 137 159 172 178 159 150 133 105 97 112 114 119 109 102 85 89 100 114 133 126 118 122 161 147 141 134 139 146 151 157 154 162 159 151 147 159 145 136 135 140 137 108 86 103 99 99 129 139 136 134 152 143 141 137 105 74 86 94 84 42 9 6 7 16 12 0 3 9 0 0 0 0 0 0 0 0 0 0 0 0 0 0 0 0 0 0 0 0 0 0 0 0 0 0 0 0 0 0 0 0 0 0 
0 0 0 0 0 0 0 0 0 0 5 11 11 11 9 0 9 11 13 62 107 119 86 74 153 150 157 165 175 183 184 152 127 92 90 105 110 108 109 110 121 114 119 108 117 124 131 158 193 174 140 127 117 118 113 123 119 135 134 124 139 178 191 161 147 146 144 110 106 104 98 104 127 131 122 145 153 160 128 125 92 80 91 72 68 20 7 3 1 10 13 7 10 8 0 0 0 0 0 0 0 0 0 0 0 0 0 0 0 0 0 0 0 0 0 0 0 0 0 0 0 0 0 0 0 0 0 0 
0 0 0 0 0 0 0 0 0 0 5 12 10 9 5 0 4 11 9 38 92 126 120 78 120 156 152 158 167 171 180 156 119 91 81 79 96 111 117 118 131 139 144 141 155 146 143 163 175 183 141 130 125 121 133 144 141 142 133 127 128 168 198 180 159 146 118 125 128 118 101 95 105 100 122 145 145 151 126 107 75 87 107 95 61 10 7 1 0 6 8 10 11 6 1 0 0 0 0 0 0 0 0 0 0 0 0 0 0 0 0 0 0 0 0 0 0 0 0 0 0 0 0 0 0 0 0 0 
0 0 0 0 0 0 0 0 0 0 0 7 14 8 0 0 1 7 9 20 74 113 121 128 87 102 142 149 152 166 174 159 134 105 93 87 79 83 92 110 133 153 152 162 154 155 174 152 145 158 140 136 147 133 142 155 158 152 138 124 114 129 155 164 159 140 114 123 120 100 62 62 90 115 139 156 140 147 105 95 76 63 73 101 52 13 4 0 0 3 9 9 10 10 2 0 0 0 0 0 0 0 0 0 0 0 0 0 0 0 0 0 0 0 0 0 0 0 0 0 0 0 0 0 0 0 0 0 
0 0 0 0 0 0 0 0 0 0 0 7 14 14 11 8 4 8 11 16 42 110 117 119 82 74 104 115 155 148 146 145 136 98 77 81 89 102 107 109 117 139 145 152 132 158 189 159 141 167 153 155 162 137 130 125 134 141 125 105 103 127 127 138 176 173 131 117 86 64 67 90 113 132 148 154 150 157 142 78 35 42 77 87 29 14 3 0 1 2 7 10 12 13 11 0 0 0 0 0 0 0 0 0 0 0 0 0 0 0 0 0 0 0 0 0 0 0 0 0 0 0 0 0 0 0 0 0 
0 0 0 0 0 0 0 0 0 0 0 10 13 8 9 7 9 12 16 17 24 76 120 95 84 84 86 108 151 145 119 155 146 117 103 88 82 82 86 94 108 143 143 143 129 140 180 148 134 156 144 153 142 150 112 92 92 107 129 111 103 125 119 173 152 177 110 103 86 97 109 120 128 136 152 141 156 158 126 72 27 22 67 60 17 15 10 9 10 12 10 3 9 13 10 0 0 0 0 0 0 0 0 0 0 0 0 0 0 0 0 0 0 0 0 0 0 0 0 0 0 0 0 0 0 0 0 0 
0 0 0 0 0 0 0 0 0 0 0 4 15 6 8 12 12 10 11 17 23 38 91 87 77 73 94 127 165 156 125 149 152 126 125 121 106 83 63 63 117 138 131 126 120 105 161 137 119 126 137 132 132 143 152 116 97 108 115 86 83 106 113 121 156 170 136 159 141 136 132 123 123 138 137 143 127 120 98 50 35 60 85 28 12 11 13 9 8 5 1 0 14 11 0 0 0 0 0 0 0 0 0 0 0 0 0 0 0 0 0 0 0 0 0 0 0 0 0 0 0 0 0 0 0 0 0 0 
0 0 0 0 0 0 0 0 0 0 0 0 9 8 4 7 9 7 11 13 20 23 51 60 56 68 82 121 145 152 137 141 138 108 108 120 118 118 117 169 139 141 161 162 144 128 173 156 142 142 129 120 131 160 169 155 146 143 148 147 141 141 146 169 209 215 192 188 167 151 125 99 104 139 123 78 71 79 92 64 73 79 55 22 7 2 2 4 4 0 0 3 9 3 0 0 0 0 0 0 0 0 0 0 0 0 0 0 0 0 0 0 0 0 0 0 0 0 0 0 0 0 0 0 0 0 0 0 
0 0 0 0 0 0 0 0 0 0 0 0 2 4 1 0 3 4 4 5 15 16 32 47 38 47 80 75 86 124 116 134 149 98 61 66 79 106 152 173 161 177 181 156 187 176 157 159 140 102 129 158 172 180 176 161 146 148 169 192 195 177 179 185 233 184 204 182 129 80 114 78 46 31 40 46 66 64 73 69 68 49 44 32 13 2 0 1 2 1 4 5 7 0 0 0 0 0 0 0 0 0 0 0 0 0 0 0 0 0 0 0 0 0 0 0 0 0 0 0 0 0 0 0 0 0 0 0 
0 0 0 0 0 0 0 0 0 0 0 0 0 3 0 0 0 2 1 3 16 28 26 36 56 75 57 31 42 89 80 97 155 138 108 94 98 127 165 204 176 204 185 172 159 153 170 136 143 112 126 156 167 179 183 176 167 166 165 165 171 177 177 176 188 133 90 154 138 133 127 104 88 95 88 79 101 94 62 42 48 52 45 29 18 1 0 1 0 0 0 5 4 0 0 0 0 0 0 0 0 0 0 0 0 0 0 0 0 0 0 0 0 0 0 0 0 0 0 0 0 0 0 0 0 0 0 0 
0 0 0 0 0 0 0 0 0 0 0 0 0 2 4 3 1 0 7 9 12 16 14 25 40 58 43 31 38 81 40 40 98 98 74 72 78 73 70 77 71 78 112 179 159 130 157 105 60 64 110 124 141 164 161 137 91 71 64 83 78 101 111 171 164 155 147 113 71 77 69 47 44 88 57 32 94 89 46 30 30 27 21 9 4 0 0 0 0 0 0 4 5 0 0 0 0 0 0 0 0 0 0 0 0 0 0 0 0 0 0 0 0 0 0 0 0 0 0 0 0 0 0 0 0 0 0 0 
0 0 0 0 0 0 0 0 0 0 0 0 0 0 4 4 2 0 0 3 9 12 11 14 24 24 24 25 34 76 41 42 65 93 74 56 56 59 58 46 44 42 67 64 57 77 78 69 46 49 68 91 125 142 139 109 61 39 42 76 86 98 93 86 81 97 72 50 58 63 57 52 58 91 50 33 89 88 48 31 30 26 15 8 3 0 0 0 1 3 3 4 1 0 0 0 0 0 0 0 0 0 0 0 0 0 0 0 0 0 0 0 0 0 0 0 0 0 0 0 0 0 0 0 0 0 0 0 
0 0 0 0 0 0 0 0 0 0 0 0 0 0 0 0 0 0 0 0 9 13 9 11 19 31 39 42 51 101 59 63 83 98 88 65 60 78 134 156 153 115 91 90 84 86 92 111 94 91 104 96 90 105 110 97 67 42 39 73 77 93 93 87 127 170 130 42 46 38 44 47 70 114 100 88 127 113 74 50 32 23 17 12 0 0 0 0 1 2 2 1 0 0 0 0 0 0 0 0 0 0 0 0 0 0 0 0 0 0 0 0 0 0 0 0 0 0 0 0 0 0 0 0 0 0 0 0 
0 0 0 0 0 0 0 0 0 0 0 0 0 0 0 0 0 0 0 0 0 3 2 5 9 40 44 52 58 105 63 48 70 80 65 68 79 108 122 142 107 122 125 108 139 147 141 107 103 102 88 66 70 79 77 68 79 78 81 106 119 135 148 133 154 158 134 107 43 76 98 132 137 148 160 144 149 136 113 88 30 12 8 5 0 0 0 0 0 0 0 0 0 0 0 0 0 0 0 0 0 0 0 0 0 0 0 0 0 0 0 0 0 0 0 0 0 0 0 0 0 0 0 0 0 0 0 0 
0 0 0 0 0 0 0 0 0 0 0 0 0 0 0 0 0 0 0 0 0 0 0 0 4 39 51 46 48 63 50 43 72 55 43 45 55 81 164 165 112 131 173 152 141 115 118 150 119 159 142 163 132 113 101 82 77 76 85 104 141 182 209 165 150 126 117 120 120 115 101 110 100 82 64 43 86 63 62 45 6 11 13 3 0 0 0 0 0 0 0 0 0 0 0 0 0 0 0 0 0 0 0 0 0 0 0 0 0 0 0 0 0 0 0 0 0 0 0 0 0 0 0 0 0 0 0 0 
0 0 0 0 0 0 0 0 0 0 0 0 0 0 0 0 0 0 0 0 0 2 4 2 6 24 56 61 64 82 106 84 121 117 100 88 51 60 118 60 99 138 105 100 103 100 155 157 185 151 136 113 97 102 90 56 44 54 55 70 118 168 145 123 97 99 103 141 116 113 63 53 50 46 72 47 88 43 39 23 7 4 1 1 0 0 0 0 0 0 0 0 0 0 0 0 0 0 0 0 0 0 0 0 0 0 0 0 0 0 0 0 0 0 0 0 0 0 0 0 0 0 0 0 0 0 0 0 
0 0 0 0 0 0 0 0 0 0 0 0 0 0 0 0 0 0 0 0 0 0 9 8 6 12 21 24 29 42 89 62 81 73 47 47 49 65 61 59 93 122 126 104 67 77 120 126 114 86 137 119 98 85 90 54 62 80 78 112 173 170 121 99 141 126 108 98 113 85 69 46 50 52 81 72 96 46 35 20 17 11 8 2 0 0 0 0 0 0 0 0 0 0 0 0 0 0 0 0 0 0 0 0 0 0 0 0 0 0 0 0 0 0 0 0 0 0 0 0 0 0 0 0 0 0 0 0 
0 0 0 0 0 0 0 0 0 0 0 0 0 0 0 0 0 0 0 0 0 0 4 9 9 12 18 21 22 31 78 78 86 75 30 28 27 44 76 74 92 111 96 99 92 86 119 125 114 135 165 150 137 127 129 106 143 152 147 150 184 173 113 65 85 147 154 172 160 82 72 48 29 35 95 85 96 53 25 15 18 12 9 2 0 0 0 0 0 0 0 0 0 0 0 0 0 0 0 0 0 0 0 0 0 0 0 0 0 0 0 0 0 0 0 0 0 0 0 0 0 0 0 0 0 0 0 0 
0 0 0 0 0 0 0 0 0 0 0 0 0 0 0 0 0 0 0 0 0 0 1 8 10 8 15 22 20 27 66 77 84 85 30 22 23 36 60 96 103 78 88 99 98 68 90 130 121 147 152 139 139 136 146 135 155 150 162 154 176 172 128 81 101 126 120 136 151 114 69 44 34 33 97 89 93 48 21 16 15 10 8 0 0 0 0 0 0 0 0 0 0 0 0 0 0 0 0 0 0 0 0 0 0 0 0 0 0 0 0 0 0 0 0 0 0 0 0 0 0 0 0 0 0 0 0 0 
0 0 0 0 0 0 0 0 0 0 0 0 0 0 0 0 0 0 0 0 0 0 0 5 10 8 12 19 22 23 60 80 75 95 35 20 27 67 97 99 77 61 80 109 117 76 84 107 131 159 154 118 130 141 152 150 150 146 159 141 155 176 145 104 104 130 101 94 118 136 119 59 35 31 90 91 77 36 16 15 13 10 6 0 0 0 0 0 0 0 0 0 0 0 0 0 0 0 0 0 0 0 0 0 0 0 0 0 0 0 0 0 0 0 0 0 0 0 0 0 0 0 0 0 0 0 0 0 
0 0 0 0 0 0 0 0 0 0 0 0 0 0 0 0 0 0 0 0 0 0 0 0 7 10 10 16 22 23 59 72 75 91 38 30 60 99 82 55 43 47 75 108 126 76 67 72 116 145 143 110 126 146 140 136 145 141 156 116 96 110 122 101 93 130 99 75 79 99 123 118 63 33 73 93 70 44 17 14 13 9 4 0 0 0 0 0 0 0 0 0 0 0 0 0 0 0 0 0 0 0 0 0 0 0 0 0 0 0 0 0 0 0 0 0 0 0 0 0 0 0 0 0 0 0 0 0 
0 0 0 0 0 0 0 0 0 0 0 0 0 0 0 0 0 0 0 0 0 0 0 0 3 8 10 13 19 25 59 48 68 81 48 39 97 105 59 38 40 43 71 129 141 73 63 60 94 134 110 99 112 136 128 119 127 131 124 93 96 88 83 82 93 133 121 59 51 49 63 118 102 46 61 94 78 56 18 14 13 8 3 0 0 0 0 0 0 0 0 0 0 0 0 0 0 0 0 0 0 0 0 0 0 0 0 0 0 0 0 0 0 0 0 0 0 0 0 0 0 0 0 0 0 0 0 0 
0 0 0 0 0 0 0 0 0 0 0 0 0 0 0 0 0 0 0 0 0 0 0 0 0 7 7 13 15 21 42 60 67 62 56 39 109 111 52 35 38 46 82 134 127 63 57 57 79 110 98 84 103 124 120 118 119 125 94 95 116 102 72 57 62 91 125 53 41 41 41 103 132 59 58 68 60 26 16 14 17 10 3 0 0 0 0 0 0 0 0 0 0 0 0 0 0 0 0 0 0 0 0 0 0 0 0 0 0 0 0 0 0 0 0 0 0 0 0 0 0 0 0 0 0 0 0 0 
0 0 0 0 0 0 0 0 0 0 0 0 0 0 0 0 0 0 0 0 0 0 0 0 0 8 4 7 13 19 21 48 41 35 64 54 121 114 48 34 41 50 80 108 97 56 56 59 83 109 99 83 89 108 121 120 119 109 90 79 99 99 68 58 62 69 104 53 40 43 37 100 147 80 69 40 18 13 14 16 18 9 2 0 0 0 0 0 0 0 0 0 0 0 0 0 0 0 0 0 0 0 0 0 0 0 0 0 0 0 0 0 0 0 0 0 0 0 0 0 0 0 0 0 0 0 0 0 
0 0 0 0 0 0 0 0 0 0 0 0 0 0 0 0 0 0 0 0 0 0 0 0 0 0 8 3 11 16 19 24 19 22 37 71 115 120 58 38 38 48 81 86 74 48 48 57 87 118 89 65 71 93 112 127 135 118 91 81 107 108 87 61 47 50 65 73 45 45 38 92 140 89 53 23 18 11 14 16 14 7 1 0 0 0 0 0 0 0 0 0 0 0 0 0 0 0 0 0 0 0 0 0 0 0 0 0 0 0 0 0 0 0 0 0 0 0 0 0 0 0 0 0 0 0 0 0 
0 0 0 0 0 0 0 0 0 0 0 0 0 0 0 0 0 0 0 0 0 0 0 0 0 0 1 4 4 12 18 19 21 18 15 22 59 112 73 38 36 48 92 92 88 54 59 77 104 112 97 85 94 119 131 127 132 122 100 94 127 134 105 71 58 55 79 106 68 48 47 95 118 47 23 21 15 11 14 15 11 5 0 0 0 0 0 0 0 0 0 0 0 0 0 0 0 0 0 0 0 0 0 0 0 0 0 0 0 0 0 0 0 0 0 0 0 0 0 0 0 0 0 0 0 0 0 0 
0 0 0 0 0 0 0 0 0 0 0 0 0 0 0 0 0 0 0 0 0 0 0 0 0 0 0 5 2 9 13 18 14 16 13 9 26 89 105 58 46 71 112 98 96 73 66 68 80 98 83 67 78 108 115 109 121 138 118 90 118 143 120 77 61 66 92 122 107 70 75 126 95 30 21 16 11 11 13 12 8 4 0 0 0 0 0 0 0 0 0 0 0 0 0 0 0 0 0 0 0 0 0 0 0 0 0 0 0 0 0 0 0 0 0 0 0 0 0 0 0 0 0 0 0 0 0 0 
0 0 0 0 0 0 0 0 0 0 0 0 0 0 0 0 0 0 0 0 0 0 0 0 0 0 0 5 2 6 8 16 15 15 11 9 11 38 112 107 80 93 101 90 102 74 54 69 87 98 82 62 84 110 108 108 129 144 138 99 91 116 121 92 65 64 89 106 108 87 111 120 47 29 20 12 10 16 12 12 10 4 0 0 0 0 0 0 0 0 0 0 0 0 0 0 0 0 0 0 0 0 0 0 0 0 0 0 0 0 0 0 0 0 0 0 0 0 0 0 0 0 0 0 0 0 0 0 
0 0 0 0 0 0 0 0 0 0 0 0 0 0 0 0 0 0 0 0 0 0 0 0 0 0 0 3 6 4 6 15 13 18 14 9 11 16 39 95 105 83 64 79 98 77 62 80 98 100 77 72 106 127 119 114 137 142 146 122 103 112 117 108 86 85 94 81 71 90 100 44 29 27 15 10 14 14 12 14 9 4 0 0 0 0 0 0 0 0 0 0 0 0 0 0 0 0 0 0 0 0 0 0 0 0 0 0 0 0 0 0 0 0 0 0 0 0 0 0 0 0 0 0 0 0 0 0 
0 0 0 0 0 0 0 0 0 0 0 0 0 0 0 0 0 0 0 0 0 0 0 0 0 0 0 0 4 6 5 11 9 14 15 10 8 16 24 26 32 37 39 66 91 86 85 91 96 98 83 110 133 132 117 104 117 144 156 151 122 93 101 105 108 108 106 62 35 39 33 27 26 21 11 10 15 13 13 14 11 3 0 0 0 0 0 0 0 0 0 0 0 0 0 0 0 0 0 0 0 0 0 0 0 0 0 0 0 0 0 0 0 0 0 0 0 0 0 0 0 0 0 0 0 0 0 0 
0 0 0 0 0 0 0 0 0 0 0 0 0 0 0 0 0 0 0 0 0 0 0 0 0 0 0 0 0 7 4 11 7 10 14 10 10 20 26 26 29 31 39 46 75 98 93 94 88 74 93 127 124 112 109 114 119 137 150 149 131 88 93 106 113 117 94 48 34 33 32 27 20 18 12 15 15 13 15 14 11 3 0 0 0 0 0 0 0 0 0 0 0 0 0 0 0 0 0 0 0 0 0 0 0 0 0 0 0 0 0 0 0 0 0 0 0 0 0 0 0 0 0 0 0 0 0 0 
0 0 0 0 0 0 0 0 0 0 0 0 0 0 0 0 0 0 0 0 0 0 0 0 0 0 0 0 0 2 4 10 8 9 14 12 8 21 29 27 29 31 40 43 49 70 86 80 60 52 80 117 115 115 129 135 138 149 161 148 139 81 67 79 98 86 65 46 37 34 35 27 19 18 17 17 15 12 15 14 11 2 1 0 0 0 0 0 0 0 0 0 0 0 0 0 0 0 0 0 0 0 0 0 0 0 0 0 0 0 0 0 0 0 0 0 0 0 0 0 0 0 0 0 0 0 0 0 
