P2
128 99
223
0 0 0 0 0 0 0 0 0 0 0 0 0 0 0 0 0 0 0 0 0 0 0 0 0 0 0 0 0 0 0 0 0 0 0 0 0 0 0 0 0 0 0 0 0 0 0 0 0 0 0 0 0 0 0 0 0 0 0 0 0 0 0 0 0 0 0 0 0 0 0 0 0 0 0 0 0 0 0 0 0 0 0 0 0 0 0 0 0 0 0 0 0 0 0 0 0 0 0 0 0 0 0 0 0 0 0 0 0 0 0 0 0 0 0 0 0 0 0 0 0 0 0 0 0 0 0 0 
0 0 0 0 0 0 0 0 0 0 0 0 0 0 0 0 0 0 0 0 0 0 0 0 0 0 0 0 0 0 0 0 0 0 0 0 0 0 0 0 0 0 0 0 0 0 0 0 0 0 0 0 0 0 0 0 0 0 0 0 0 0 0 0 0 0 0 0 0 0 0 0 0 0 0 0 0 0 0 0 0 0 0 0 0 0 0 0 0 0 0 0 0 0 0 0 0 0 0 0 0 0 0 0 0 0 0 0 0 0 0 0 0 0 0 0 0 0 0 0 0 0 0 0 0 0 0 0 
0 0 0 0 0 0 0 0 0 0 0 0 0 0 0 0 0 0 0 0 0 0 0 0 0 0 0 0 0 0 0 0 0 0 0 0 0 0 0 0 0 0 0 0 0 0 0 0 0 0 0 0 1 1 1 0 0 0 0 0 0 0 0 0 0 0 0 0 0 0 0 0 0 0 0 0 0 0 0 0 0 0 0 0 0 0 0 0 0 0 0 0 0 0 0 0 0 0 0 0 0 0 0 0 0 0 0 0 0 0 0 0 0 0 0 0 0 0 0 0 0 0 0 0 0 0 0 0 
0 0 0 0 0 0 0 0 0 0 0 0 0 0 0 0 0 0 0 0 0 0 0 0 0 0 0 0 0 0 0 0 0 0 0 0 0 0 0 0 0 0 0 0 4 7 20 25 24 22 22 25 27 27 25 20 13 12 16 16 3 0 0 0 0 0 0 0 0 0 0 0 0 0 0 0 0 0 0 0 0 0 0 0 0 0 0 0 0 0 0 0 0 0 0 0 0 0 0 0 0 0 0 0 0 0 0 0 0 0 0 0 0 0 0 0 0 0 0 0 0 0 0 0 0 0 0 0 
0 0 0 0 0 0 0 0 0 0 0 0 0 0 0 0 0 0 0 0 0 0 0 0 0 0 0 0 0 0 0 0 0 0 0 0 0 0 0 0 6 8 17 30 26 28 42 69 94 115 130 138 142 141 136 126 112 96 80 60 30 15 19 11 0 0 0 0 0 0 0 0 0 0 0 0 0 0 0 0 0 0 0 0 0 0 0 0 0 0 0 0 0 0 0 0 0 0 0 0 0 0 0 0 0 0 0 0 0 0 0 0 0 0 0 0 0 0 0 0 0 0 0 0 0 0 0 0 
0 0 0 0 0 0 0 0 0 0 0 0 0 0 0 0 0 0 0 0 0 0 0 0 0 0 0 0 0 0 0 0 0 0 0 0 0 2 8 12 29 25 26 57 99 132 150 154 148 144 146 149 154 155 157 158 154 145 138 133 126 110 82 45 18 18 10 0 0 0 0 0 0 0 0 0 0 0 0 0 0 0 0 0 0 0 0 0 0 0 0 0 0 0 0 0 0 0 0 0 0 0 0 0 0 0 0 0 0 0 0 0 0 0 0 0 0 0 0 0 0 0 0 0 0 0 0 0 
0 0 0 0 0 0 0 0 0 0 0 0 0 0 0 0 0 0 0 0 0 0 0 0 0 0 0 0 0 0 0 0 0 0 0 1 8 17 31 24 44 93 135 157 153 139 145 163 176 176 176 173 175 174 171 168 165 162 165 167 161 145 133 133 120 84 39 14 17 0 0 0 0 0 0 0 0 0 0 0 0 0 0 0 0 0 0 0 0 0 0 0 0 0 0 0 0 0 0 0 0 0 0 0 0 0 0 0 0 0 0 0 0 0 0 0 0 0 0 0 0 0 0 0 0 0 0 0 
0 0 0 0 0 0 0 0 0 0 0 0 0 0 0 0 0 0 0 0 0 0 0 0 0 0 0 0 0 0 0 0 0 0 6 18 28 24 55 112 151 163 146 150 168 178 186 180 161 151 149 153 157 148 150 166 180 176 171 168 163 165 166 159 144 134 138 110 52 24 17 0 0 0 0 0 0 0 0 0 0 0 0 0 0 0 0 0 0 0 0 0 0 0 0 0 0 0 0 0 0 0 0 0 0 0 0 0 0 0 0 0 0 0 0 0 0 0 0 0 0 0 0 0 0 0 0 0 
0 0 0 0 0 0 0 0 0 0 0 0 0 0 0 0 0 0 0 0 0 0 0 0 0 0 0 0 0 0 0 0 2 22 31 27 53 116 160 162 145 154 169 178 177 160 141 121 105 113 121 128 127 121 123 132 136 158 173 169 168 173 172 167 167 167 154 136 142 114 46 24 9 0 0 0 0 0 0 0 0 0 0 0 0 0 0 0 0 0 0 0 0 0 0 0 0 0 0 0 0 0 0 0 0 0 0 0 0 0 0 0 0 0 0 0 0 0 0 0 0 0 0 0 0 0 0 0 
0 0 0 0 0 0 0 0 0 0 0 0 0 0 0 0 0 0 0 0 0 0 0 0 0 0 0 0 0 0 0 19 31 24 34 99 158 166 144 156 171 177 171 144 122 120 106 112 140 150 164 173 171 175 174 175 180 180 173 173 175 171 164 166 173 174 172 167 154 140 141 82 31 21 0 0 0 0 0 0 0 0 0 0 0 0 0 0 0 0 0 0 0 0 0 0 0 0 0 0 0 0 0 0 0 0 0 0 0 0 0 0 0 0 0 0 0 0 0 0 0 0 0 0 0 0 0 0 
0 0 0 0 0 0 0 0 0 0 0 0 0 0 0 0 0 0 0 0 0 0 0 0 0 0 0 0 0 6 27 28 21 70 142 170 149 152 170 174 169 151 122 127 145 159 176 179 158 138 141 155 161 165 163 158 157 162 169 175 190 207 201 184 173 169 169 171 174 170 153 143 120 42 26 3 0 0 0 0 0 0 0 0 0 0 0 0 0 0 0 0 0 0 0 0 0 0 0 0 0 0 0 0 0 0 0 0 0 0 0 0 0 0 0 0 0 0 0 0 0 0 0 0 0 0 0 0 
0 0 0 0 0 0 0 0 0 0 0 0 0 0 0 0 0 0 0 0 0 0 0 0 0 0 0 0 20 26 20 40 113 169 158 149 169 176 172 158 144 155 176 193 203 203 197 186 173 160 152 145 141 144 146 153 162 169 178 191 181 178 189 210 220 202 180 167 168 173 172 166 145 136 64 26 10 0 0 0 0 0 0 0 0 0 0 0 0 0 0 0 0 0 0 0 0 0 0 0 0 0 0 0 0 0 0 0 0 0 0 0 0 0 0 0 0 0 0 0 0 0 0 0 0 0 0 0 
0 0 0 0 0 0 0 0 0 0 0 0 0 0 0 0 0 0 0 0 0 0 0 0 0 0 6 25 21 19 64 138 171 153 163 175 172 167 160 176 195 196 187 182 180 180 167 153 146 143 127 108 105 117 131 135 133 132 133 142 159 171 181 193 205 214 223 206 178 169 167 174 172 149 137 85 25 11 0 0 0 0 0 0 0 0 0 0 0 0 0 0 0 0 0 0 0 0 0 0 0 0 0 0 0 0 0 0 0 0 0 0 0 0 0 0 0 0 0 0 0 0 0 0 0 0 0 0 
0 0 0 0 0 0 0 0 0 0 0 0 0 0 0 0 0 0 0 0 0 0 0 0 0 12 21 17 25 85 151 168 157 172 172 170 173 184 204 191 177 177 170 161 151 144 145 144 149 150 135 127 120 119 128 140 145 143 143 141 135 132 126 139 163 190 208 219 222 198 169 167 169 168 152 142 98 26 11 0 0 0 0 0 0 0 0 0 0 0 0 0 0 0 0 0 0 0 0 0 0 0 0 0 0 0 0 0 0 0 0 0 0 0 0 0 0 0 0 0 0 0 0 0 0 0 0 0 
0 0 0 0 0 0 0 0 0 0 0 0 0 0 0 0 0 0 0 0 0 0 0 0 15 19 14 37 106 160 160 157 174 172 173 182 203 196 175 166 152 146 132 121 114 108 108 130 136 128 131 131 125 120 104 98 115 136 141 139 143 144 135 121 115 127 151 186 202 215 211 179 165 163 169 156 145 111 29 12 0 0 0 0 0 0 0 0 0 0 0 0 0 0 0 0 0 0 0 0 0 0 0 0 0 0 0 0 0 0 0 0 0 0 0 0 0 0 0 0 0 0 0 0 0 0 0 0 
0 0 0 0 0 0 0 0 0 0 0 0 0 0 0 0 0 0 0 0 0 0 6 18 17 15 55 118 158 154 159 171 173 172 183 197 176 161 148 138 144 129 106 98 93 67 51 63 67 69 89 117 106 91 85 82 81 93 117 135 145 141 136 136 125 116 122 125 153 191 208 217 185 163 162 170 155 151 121 33 10 0 0 0 0 0 0 0 0 0 0 0 0 0 0 0 0 0 0 0 0 0 0 0 0 0 0 0 0 0 0 0 0 0 0 0 0 0 0 0 0 0 0 0 0 0 0 0 
0 0 0 0 0 0 0 0 0 0 0 0 0 0 0 0 0 0 0 0 0 7 16 16 19 69 124 159 153 166 173 176 174 178 189 168 154 140 144 148 131 98 94 98 82 78 84 92 98 100 102 107 105 103 102 103 100 99 103 112 127 140 144 146 136 124 120 124 124 137 176 202 214 181 164 162 169 154 156 126 34 8 0 0 0 0 0 0 0 0 0 0 0 0 0 0 0 0 0 0 0 0 0 0 0 0 0 0 0 0 0 0 0 0 0 0 0 0 0 0 0 0 0 0 0 0 0 0 
0 0 0 0 0 0 0 0 0 0 0 0 0 0 0 0 0 0 0 0 7 13 11 19 78 130 160 153 163 174 177 167 166 182 169 150 131 138 144 126 106 103 98 96 96 96 91 92 91 88 88 89 88 87 85 85 85 88 88 91 94 104 124 152 159 146 126 121 115 116 127 171 200 203 168 161 159 166 155 159 130 33 6 0 0 0 0 0 0 0 0 0 0 0 0 0 0 0 0 0 0 0 0 0 0 0 0 0 0 0 0 0 0 0 0 0 0 0 0 0 0 0 0 0 0 0 0 0 
0 0 0 0 0 0 0 0 0 0 0 0 0 0 0 0 0 0 0 6 15 9 18 82 134 165 154 157 175 177 156 152 179 163 148 124 134 138 115 94 100 96 92 89 86 86 87 86 84 83 88 89 88 90 91 92 98 102 101 101 97 94 87 98 128 152 137 121 119 116 105 114 168 195 198 164 157 160 167 151 162 113 23 3 0 0 0 0 0 0 0 0 0 0 0 0 0 0 0 0 0 0 0 0 0 0 0 0 0 0 0 0 0 0 0 0 0 0 0 0 0 0 0 0 0 0 0 0 
0 0 0 0 0 0 0 0 0 0 0 0 0 0 0 0 0 0 6 15 9 12 80 136 161 162 148 172 173 149 150 175 165 146 126 133 138 103 90 96 92 90 94 97 97 96 95 95 95 92 96 103 109 118 121 121 125 126 125 123 122 120 111 97 91 111 145 136 120 120 112 103 114 162 196 196 158 159 162 166 149 158 91 16 0 0 0 0 0 0 0 0 0 0 0 0 0 0 0 0 0 0 0 0 0 0 0 0 0 0 0 0 0 0 0 0 0 0 0 0 0 0 0 0 0 0 0 0 
0 0 0 0 0 0 0 0 0 0 0 0 0 0 0 0 0 4 13 15 12 65 131 146 165 144 170 175 145 149 176 159 143 123 135 129 88 88 100 98 105 112 119 120 115 110 111 113 115 115 115 118 124 130 128 127 126 123 121 124 125 126 126 123 111 94 103 141 141 124 121 116 99 125 169 197 185 147 160 164 152 156 141 65 7 0 0 0 0 0 0 0 0 0 0 0 0 0 0 0 0 0 0 0 0 0 0 0 0 0 0 0 0 0 0 0 0 0 0 0 0 0 0 0 0 0 0 0 
0 0 0 0 0 0 0 0 0 0 0 0 0 0 0 0 0 11 15 11 58 122 138 154 142 164 176 142 149 180 155 136 117 125 114 83 95 116 118 123 124 123 120 120 118 117 114 115 119 107 104 102 104 121 125 114 113 109 111 118 122 116 119 122 119 112 95 102 140 144 129 118 112 103 136 169 203 168 148 162 164 150 161 122 48 3 0 0 0 0 0 0 0 0 0 0 0 0 0 0 0 0 0 0 0 0 0 0 0 0 0 0 0 0 0 0 0 0 0 0 0 0 0 0 0 0 0 0 
0 0 0 0 0 0 0 0 0 0 0 0 0 0 0 0 6 15 13 53 110 137 142 147 157 179 141 137 175 151 136 118 115 112 86 105 128 124 121 117 114 116 114 114 112 110 109 105 96 90 90 87 86 102 109 112 113 108 108 99 100 108 106 108 111 117 116 99 105 131 127 118 116 115 112 146 176 201 139 152 170 159 158 146 106 32 3 0 0 0 0 0 0 0 0 0 0 0 0 0 0 0 0 0 0 0 0 0 0 1 0 0 0 0 0 0 0 0 0 0 0 0 0 0 0 0 0 0 
0 0 0 0 0 0 0 0 0 0 0 0 0 0 0 4 12 14 54 100 136 131 159 151 180 148 124 169 159 138 124 125 122 99 106 126 121 120 112 108 104 94 83 81 82 82 83 82 88 88 98 94 82 87 88 89 92 88 90 87 82 91 98 104 106 114 122 118 108 108 120 123 113 121 118 122 152 187 177 128 159 170 151 166 121 84 13 0 0 0 0 0 0 0 0 0 0 0 0 0 0 0 0 0 0 0 0 0 0 2 0 0 0 0 0 0 0 0 0 0 0 0 0 0 0 0 0 0 
0 0 0 0 0 0 0 0 0 0 0 0 0 0 0 9 15 36 95 120 126 148 156 174 154 124 150 170 147 130 131 124 99 101 124 121 117 112 104 92 81 83 82 79 79 78 79 77 86 90 93 94 83 85 86 89 89 84 87 86 83 80 83 84 95 109 120 126 121 111 104 113 114 105 117 120 135 162 188 139 135 170 158 167 139 102 42 3 0 0 0 0 0 0 0 0 0 0 0 0 0 0 0 0 0 0 0 0 0 1 0 0 0 0 0 0 0 0 0 0 0 0 0 0 0 0 0 0 
0 0 0 0 0 0 0 0 0 0 0 0 0 0 5 10 18 88 99 127 127 165 160 167 135 123 170 151 129 123 135 107 97 115 123 106 112 108 92 77 79 84 84 84 84 78 75 71 76 89 86 87 84 87 89 87 88 88 89 89 85 84 85 84 81 87 101 118 125 123 113 104 105 110 113 117 122 150 182 149 114 154 164 158 160 111 75 7 0 0 0 0 0 0 0 0 0 0 0 0 0 0 0 0 0 0 0 0 0 0 0 0 0 0 0 0 0 0 0 0 0 0 0 0 0 0 0 0 
0 0 0 0 0 0 0 0 0 0 0 0 0 0 9 10 57 95 121 113 146 160 161 153 112 127 165 145 124 133 113 94 111 125 117 102 107 103 86 82 83 83 83 80 82 83 83 80 78 88 88 87 87 89 86 85 85 88 87 88 85 86 83 83 82 80 84 98 111 122 122 114 95 107 121 124 118 138 169 156 124 138 159 154 166 124 92 23 1 0 0 0 0 0 0 0 0 0 0 0 0 0 0 0 0 0 0 0 0 0 0 0 0 0 0 0 0 0 0 0 0 0 0 0 0 0 0 0 
0 0 0 0 0 0 0 0 0 0 0 0 0 1 8 17 92 97 120 120 162 146 151 115 107 143 161 140 127 112 92 102 119 118 112 106 108 100 85 85 89 86 86 84 82 85 86 85 86 89 89 88 90 84 72 62 61 69 83 90 90 88 88 87 88 85 81 88 98 108 125 126 107 87 112 132 124 132 163 158 126 134 146 145 163 142 100 47 3 0 0 0 0 0 0 0 0 0 0 0 0 0 0 0 0 0 0 0 0 0 0 0 0 0 0 0 0 0 0 0 0 0 0 0 0 0 0 0 
0 0 0 0 0 0 0 0 0 0 0 0 0 4 7 45 97 114 122 142 166 146 140 103 111 150 156 136 114 88 97 116 119 110 109 113 104 88 86 87 89 87 85 84 80 80 87 90 90 84 73 76 78 60 55 52 53 58 68 81 90 92 92 90 88 88 84 84 91 96 113 129 118 98 90 127 131 132 159 162 119 138 137 138 160 150 110 66 4 0 0 0 0 0 0 0 0 0 0 0 0 0 0 0 0 0 0 0 0 0 0 0 0 0 0 0 0 0 0 0 0 0 0 0 0 0 0 0 
0 0 0 0 0 0 0 0 0 0 0 0 0 5 6 79 98 118 128 149 161 141 132 108 123 158 156 129 81 91 116 121 112 100 109 106 90 87 89 84 82 75 67 64 62 63 75 88 85 72 65 67 69 64 58 55 52 54 57 63 72 82 89 91 88 83 85 84 87 94 105 123 123 109 92 99 129 132 159 173 113 139 134 140 162 154 119 80 9 0 0 0 0 0 0 0 0 0 0 0 0 0 0 0 0 0 0 0 0 0 0 0 0 0 0 0 0 0 0 0 0 0 0 0 0 0 0 0 
0 0 0 0 0 0 0 0 0 0 0 0 0 9 19 93 106 124 130 150 153 128 126 113 122 166 154 103 77 101 126 113 104 99 105 97 91 88 82 69 63 60 56 55 59 59 68 82 92 93 99 105 110 111 110 103 97 93 84 74 66 69 78 89 94 86 86 84 85 94 108 118 121 113 103 86 111 127 151 174 118 139 137 140 159 158 135 88 15 0 0 0 0 0 0 0 0 0 0 0 0 0 0 0 0 0 0 0 0 1 0 0 0 0 0 0 0 0 0 0 0 0 0 0 0 0 0 0 
0 0 0 0 0 0 0 0 0 0 0 0 3 7 42 103 115 126 127 157 140 124 132 120 133 166 129 95 91 110 124 108 100 105 103 93 86 76 65 62 55 53 55 57 68 97 125 146 156 154 157 157 159 157 149 145 146 149 154 145 118 88 69 71 88 89 87 84 92 96 111 118 119 114 104 95 88 123 156 164 116 135 144 141 157 159 140 92 19 0 0 0 0 0 0 0 0 0 0 0 0 0 0 0 0 0 0 0 0 0 0 0 0 0 0 0 0 0 0 0 0 0 0 0 0 0 0 0 
0 0 0 0 0 0 0 0 0 0 0 0 5 7 59 105 121 128 117 158 127 119 135 120 150 159 109 105 94 107 117 102 103 108 99 92 79 64 54 51 55 56 63 80 114 145 159 152 145 140 128 132 127 84 63 58 56 78 123 163 160 134 92 71 77 91 88 98 113 111 113 113 117 117 107 98 66 116 155 163 116 123 147 141 152 168 140 103 26 0 0 0 0 0 0 0 0 0 0 0 0 0 0 0 0 0 0 0 0 0 0 0 0 0 0 0 0 0 0 0 0 0 0 0 0 0 0 0 
0 0 0 0 0 0 0 0 0 0 0 0 5 5 75 106 126 126 124 162 118 124 134 117 148 133 108 104 92 106 112 99 104 109 106 95 72 57 54 55 56 61 78 108 142 152 147 135 114 95 91 115 74 51 49 48 51 50 61 121 160 159 123 83 71 88 103 110 108 106 109 111 111 115 113 99 59 91 150 162 116 117 146 142 148 174 143 110 35 3 0 0 0 0 0 0 0 0 0 0 0 0 0 0 0 0 0 0 0 0 0 0 0 0 0 0 0 0 0 0 0 0 0 0 0 0 0 0 
0 0 0 0 0 0 0 0 0 0 0 0 5 6 85 108 132 121 142 164 111 133 133 120 140 116 117 99 88 102 108 101 105 108 105 101 68 55 55 55 59 65 80 121 151 154 141 117 84 52 50 90 69 48 52 50 50 51 50 61 126 165 146 102 81 93 115 119 110 110 108 106 108 111 113 102 62 74 150 153 118 122 152 148 143 173 154 117 46 3 0 0 0 0 0 0 0 0 0 0 0 0 0 0 0 0 0 0 0 0 0 0 0 0 0 0 0 0 0 0 0 0 0 0 0 0 0 0 
0 0 0 0 0 0 0 0 0 0 0 0 6 11 88 109 130 109 157 157 108 138 142 129 121 117 121 94 89 96 106 99 105 112 109 105 79 58 59 60 62 69 99 139 153 146 131 97 52 50 53 56 68 50 50 52 51 50 53 52 99 164 161 144 118 107 113 116 111 110 108 106 104 109 108 103 67 80 142 147 126 122 149 149 142 172 162 125 61 4 0 0 0 0 0 0 0 0 0 0 0 0 0 0 0 0 0 0 0 0 0 0 0 0 0 0 0 0 0 0 0 0 0 0 0 0 0 0 
0 0 0 0 0 0 0 0 0 0 0 0 5 15 88 115 127 113 173 151 109 142 149 126 97 120 121 94 86 90 106 100 107 109 104 98 91 84 88 98 91 86 105 139 151 141 127 89 51 53 52 51 50 49 51 51 51 50 51 53 108 160 162 147 117 96 98 103 97 91 89 91 100 107 106 101 79 97 139 139 125 111 145 149 142 175 172 127 74 8 0 0 0 0 0 0 0 0 0 0 0 0 0 0 0 0 0 0 0 0 0 0 0 0 0 0 0 0 0 0 0 0 0 0 0 0 0 0 
0 0 0 0 0 0 0 0 0 0 0 0 7 21 91 121 127 125 179 151 111 148 150 120 90 124 125 93 85 88 103 95 103 107 95 79 72 72 70 74 72 76 83 94 116 133 143 119 56 49 53 50 51 48 52 51 51 51 51 66 142 146 103 71 61 63 79 88 87 84 83 81 85 107 115 101 103 106 139 134 134 116 137 137 129 175 180 130 86 11 0 0 0 0 0 0 0 0 0 0 0 0 0 0 0 0 0 0 0 0 0 0 0 0 0 0 0 0 0 0 0 0 0 0 0 0 0 0 
0 0 0 0 0 0 0 0 0 0 0 0 7 22 91 124 129 127 181 149 109 142 156 122 94 136 133 99 88 86 105 95 102 98 72 55 58 57 58 56 55 53 56 63 73 70 102 143 93 49 51 49 50 56 52 53 52 50 59 127 122 76 53 52 57 61 66 84 86 83 83 82 81 88 117 121 119 122 131 126 139 125 133 126 114 175 187 133 95 13 0 0 0 0 0 0 0 0 0 0 0 0 0 0 0 0 0 0 0 0 0 0 0 0 0 0 0 0 0 0 0 0 0 0 0 0 0 0 
0 0 0 0 0 0 0 0 0 0 0 0 8 21 89 132 128 130 182 149 112 138 150 118 92 139 151 118 86 82 106 106 103 84 66 50 56 62 60 57 54 51 46 48 53 70 73 110 130 96 69 55 56 88 86 77 65 77 129 132 76 51 49 51 55 56 65 80 85 84 84 83 87 97 122 148 139 121 121 125 139 130 127 115 104 162 186 138 101 16 0 0 0 0 0 0 0 0 0 0 0 0 0 0 0 0 0 0 0 0 0 0 0 0 0 0 0 0 0 0 0 0 0 0 0 0 0 0 
0 0 0 0 0 0 0 0 0 0 0 0 9 18 84 133 129 126 175 149 114 139 142 108 84 128 146 141 111 86 107 111 92 81 64 48 51 57 62 59 59 56 53 46 49 54 76 92 132 136 143 134 106 103 134 141 126 126 125 92 58 49 52 55 59 59 80 103 103 104 109 109 102 104 121 155 138 123 126 122 132 129 126 100 101 161 186 139 108 21 0 0 0 0 0 0 0 0 0 0 0 0 0 0 0 0 0 0 0 0 0 0 0 0 0 0 0 0 0 0 0 0 0 0 0 0 0 0 
0 0 0 0 0 0 0 0 0 0 0 0 10 17 86 133 130 132 174 144 115 130 137 100 87 109 134 126 130 114 129 124 100 90 68 49 53 57 59 58 58 61 58 52 50 49 68 69 101 144 144 145 127 95 127 153 148 143 111 70 54 51 52 60 78 101 111 120 121 116 114 108 98 106 119 132 137 118 131 129 125 127 131 93 91 155 182 141 112 29 1 0 0 0 0 0 0 0 0 0 0 0 0 0 0 0 0 0 0 0 0 0 0 0 0 0 0 0 0 0 0 0 0 0 0 0 0 0 
0 0 0 0 0 0 0 0 0 0 0 0 9 16 86 129 131 134 173 144 120 124 133 99 81 91 130 130 126 116 134 118 98 100 92 80 82 84 76 67 61 58 58 58 52 51 58 64 85 140 144 139 102 80 97 127 141 141 100 64 55 51 68 100 105 97 103 118 128 124 118 107 100 118 122 122 131 112 133 146 125 122 129 86 73 140 185 147 115 38 1 0 0 0 0 0 0 0 0 0 0 0 0 0 0 0 0 0 0 0 0 0 0 0 0 0 0 0 0 0 0 0 0 0 0 0 0 0 
0 0 0 0 0 0 0 0 0 0 0 0 10 17 86 130 131 138 172 151 117 118 131 98 71 86 116 135 114 111 134 132 110 88 70 71 95 117 111 98 86 76 64 57 57 58 59 66 80 134 135 102 61 75 59 80 134 134 94 59 59 82 98 96 98 105 106 118 130 130 127 115 111 118 120 127 124 104 138 154 129 116 128 86 69 121 180 151 118 43 2 0 0 0 0 0 0 0 0 0 0 0 0 0 0 0 0 0 0 0 0 0 0 0 0 0 0 0 0 0 0 0 0 0 0 0 0 0 
0 0 0 0 0 0 0 0 0 0 0 0 8 17 83 134 135 143 167 144 102 117 132 90 59 80 107 138 122 114 135 124 88 70 52 48 66 90 107 114 106 107 102 76 62 60 58 63 77 135 137 83 75 87 83 79 105 130 81 67 93 91 70 62 62 94 109 120 127 132 133 119 115 118 122 128 112 97 138 156 132 110 123 88 71 102 170 154 122 46 1 0 0 0 0 0 0 0 0 0 0 0 0 0 0 0 0 0 0 0 0 0 0 0 0 0 0 0 0 0 0 0 0 0 0 0 0 0 
0 0 0 0 0 0 0 0 0 0 0 0 8 14 78 133 136 148 155 107 92 119 131 73 53 75 107 149 143 122 130 121 87 71 54 50 54 73 101 101 76 73 81 89 91 76 62 64 76 135 123 84 74 69 66 59 78 144 97 95 79 56 55 53 49 75 95 112 126 122 119 114 114 122 125 120 109 102 142 159 135 111 123 89 74 92 149 146 124 52 3 0 0 0 0 0 0 0 0 0 0 0 0 0 0 0 0 0 0 0 0 0 0 0 0 0 0 0 0 0 0 0 0 0 0 0 0 0 
0 0 0 0 0 0 0 0 0 0 0 0 8 14 79 130 141 151 122 95 94 122 131 71 47 72 122 144 151 128 126 124 89 71 54 47 55 71 89 99 75 54 57 57 68 84 92 82 67 115 127 121 91 89 67 50 59 118 72 74 62 59 54 51 55 79 86 95 117 120 113 113 115 121 127 119 103 101 143 157 135 110 119 90 77 92 158 149 127 51 2 0 0 0 0 0 0 0 0 0 0 0 0 0 0 0 0 0 0 0 0 0 0 0 0 0 0 0 0 0 0 0 0 0 0 0 0 0 
0 0 0 0 0 0 0 0 0 0 0 0 8 12 74 128 146 145 109 99 92 124 131 73 49 67 123 135 147 138 123 127 98 67 54 49 55 61 71 97 94 69 53 58 63 64 84 66 55 79 93 101 75 54 52 45 66 111 44 60 58 61 55 58 73 89 91 101 119 119 116 112 117 124 122 112 102 102 140 152 134 104 106 85 79 92 160 144 126 50 2 0 0 0 0 0 0 0 0 0 0 0 0 0 0 0 0 0 0 0 0 0 0 0 0 0 0 0 0 0 0 0 0 0 0 0 0 0 
0 0 0 0 0 0 0 0 0 0 0 0 8 8 66 123 148 137 90 98 90 121 133 83 48 62 115 133 141 147 136 137 107 69 56 47 52 61 64 86 92 74 55 55 60 63 82 68 55 67 79 76 74 49 51 46 47 97 50 65 50 52 53 56 63 78 89 105 128 129 117 118 123 127 101 95 76 96 134 149 134 105 93 80 78 91 155 138 120 43 2 0 0 0 0 0 0 0 0 0 0 0 0 0 0 0 0 0 0 0 0 0 0 0 0 0 0 0 0 0 0 0 0 0 0 0 0 0 
0 0 0 0 0 0 0 0 0 0 0 0 6 8 63 122 145 142 85 100 94 119 138 100 56 55 107 130 131 142 145 149 132 91 66 63 58 71 85 94 91 83 61 57 55 57 83 55 53 63 63 69 67 55 51 46 45 62 57 77 55 49 48 48 53 82 92 113 126 120 115 113 114 111 77 79 71 109 141 146 139 108 86 79 77 97 153 128 114 35 2 0 0 0 0 0 0 0 0 0 0 0 0 0 0 0 0 0 0 0 0 0 0 0 0 0 0 0 0 0 0 0 0 0 0 0 0 0 
0 0 0 0 0 0 0 0 0 0 0 0 5 8 52 118 138 146 93 91 98 112 137 118 60 54 99 126 120 139 154 146 141 105 81 73 76 91 98 100 96 76 49 51 52 61 75 50 54 49 63 56 52 62 57 47 45 44 71 45 80 46 42 41 56 83 85 104 111 114 109 107 114 99 62 73 81 117 148 151 145 102 78 77 75 98 141 115 105 28 2 0 0 0 0 0 0 0 0 0 0 0 0 0 0 0 0 0 0 0 0 0 0 0 0 0 0 0 0 0 0 0 0 0 0 0 0 0 
0 0 0 0 0 0 0 0 0 1 3 0 0 7 37 110 132 136 104 78 98 108 136 128 71 53 92 115 108 131 147 145 144 126 94 69 73 87 95 99 94 85 49 45 47 82 57 46 49 51 64 47 57 62 64 50 46 44 68 45 64 86 54 48 67 68 72 94 107 111 108 101 117 87 60 71 69 98 140 160 154 100 67 75 76 108 132 108 99 21 1 0 0 0 0 0 0 0 0 0 0 0 0 0 0 0 0 0 0 0 0 0 0 0 0 0 0 0 0 0 0 0 0 0 0 0 0 0 
0 0 0 0 0 0 0 0 1 7 7 3 0 4 28 103 120 121 124 76 94 105 133 128 77 49 85 102 101 122 149 138 145 134 92 68 75 85 84 89 85 92 66 54 57 62 51 47 47 59 66 58 60 68 67 56 61 47 56 51 46 89 79 63 70 63 75 90 98 99 102 115 122 77 71 67 56 108 130 156 152 94 59 75 80 125 123 109 86 15 0 0 0 0 0 0 0 0 0 0 0 0 0 0 0 0 0 0 0 0 0 0 0 0 0 0 0 0 0 0 0 0 0 0 0 0 0 0 
0 0 0 0 0 0 0 0 0 2 3 5 2 5 22 95 118 119 128 81 80 105 126 132 98 52 86 88 95 112 141 127 137 143 115 74 82 80 81 84 91 85 53 48 85 98 78 50 54 47 58 52 59 55 65 50 57 51 54 52 47 98 98 79 94 103 100 109 101 97 97 117 116 87 80 56 72 125 136 157 149 84 57 73 94 134 106 110 68 9 0 0 0 0 0 0 0 0 0 0 0 0 0 0 0 0 0 0 0 0 0 0 0 0 0 0 0 0 0 0 0 0 0 0 0 0 0 0 
0 0 0 0 0 0 0 0 0 0 7 8 5 2 15 82 114 129 120 108 72 100 111 130 112 59 92 79 88 102 130 117 114 121 122 85 69 71 75 66 83 91 80 69 72 72 49 53 65 43 43 55 52 54 66 54 56 70 51 60 92 128 113 83 86 111 171 161 144 138 132 141 141 118 79 57 101 135 140 151 138 72 60 80 136 113 105 113 58 7 0 0 1 7 0 0 0 0 0 0 0 0 0 0 0 0 0 0 0 0 0 0 0 0 0 0 0 0 0 0 0 0 0 0 0 0 0 0 
0 0 0 0 0 0 0 0 0 0 8 13 3 3 13 66 112 131 110 126 90 89 104 131 122 79 97 71 80 94 104 127 161 162 149 123 100 85 82 84 98 116 81 50 52 75 67 53 73 43 39 57 59 58 78 48 46 48 63 113 113 110 85 92 109 141 205 214 208 192 165 158 158 176 145 116 122 136 143 144 121 73 64 106 152 101 108 115 38 5 4 3 0 0 5 0 0 0 0 0 0 0 0 0 0 0 0 0 0 0 0 0 0 0 0 0 0 0 0 0 0 0 0 0 0 0 0 0 
0 0 0 0 0 0 0 0 0 0 0 8 4 4 11 56 110 119 121 130 91 62 98 117 129 112 100 64 64 91 96 150 152 124 107 102 123 118 97 108 109 107 88 56 55 52 49 57 74 47 50 74 60 76 77 39 37 49 59 124 114 100 73 83 113 169 216 199 164 181 181 142 133 153 151 119 164 160 148 116 105 92 79 127 158 100 121 118 25 4 2 0 1 0 0 0 0 0 0 0 0 0 0 0 0 0 0 0 0 0 0 0 0 0 0 0 0 0 0 0 0 0 0 0 0 0 0 0 
0 0 0 0 0 0 0 0 0 0 0 0 6 4 12 41 99 113 133 130 103 45 73 100 133 141 110 77 55 84 101 152 170 144 126 131 135 137 138 139 143 146 131 82 67 55 47 53 57 71 62 60 73 71 56 40 43 51 87 137 140 127 89 87 121 163 178 150 149 150 186 147 134 133 121 125 143 144 129 122 120 119 107 166 164 130 157 109 17 4 0 3 8 0 0 0 0 0 0 0 0 0 0 0 0 0 0 0 0 0 0 0 0 0 0 0 0 0 0 0 0 0 0 0 0 0 0 0 
0 0 0 0 0 0 0 0 0 0 0 0 9 8 13 31 90 108 135 145 127 78 48 80 121 155 119 98 86 72 98 139 179 191 204 210 185 160 143 119 106 116 137 121 80 57 46 70 46 51 67 54 65 64 45 37 51 69 99 120 135 127 120 108 114 150 194 172 163 183 163 137 132 106 96 135 162 163 163 157 159 150 119 155 184 132 129 89 16 3 4 4 0 0 0 0 0 0 0 0 0 0 0 0 0 0 0 0 0 0 0 0 0 0 0 0 0 0 0 0 0 0 0 0 0 0 0 0 
0 0 0 0 0 0 0 0 0 0 0 0 11 10 16 27 89 110 118 161 157 148 72 74 131 158 145 73 57 61 83 143 198 195 181 187 177 155 151 118 94 109 131 134 95 57 54 99 51 48 72 72 53 66 46 48 49 67 74 81 123 112 100 115 128 116 165 165 151 142 95 92 114 104 119 141 145 127 139 147 184 191 163 174 177 164 133 68 11 3 10 0 0 0 0 0 0 0 0 0 0 0 0 0 0 0 0 0 0 0 0 0 0 0 0 0 0 0 0 0 0 0 0 0 0 0 0 0 
0 0 0 0 0 0 0 0 0 0 0 0 4 13 14 21 47 109 116 124 171 163 168 127 131 153 168 134 60 83 80 104 167 196 177 172 175 182 185 148 114 101 121 137 125 97 75 85 83 77 79 84 68 103 80 50 56 65 57 81 98 93 82 111 118 114 119 132 129 122 67 54 77 81 130 148 142 109 84 107 147 150 155 164 145 136 129 76 17 7 10 0 0 0 0 0 0 0 0 0 0 0 0 0 0 0 0 0 0 0 0 0 0 0 0 0 0 0 0 0 0 0 0 0 0 0 0 0 
0 0 0 0 0 0 0 0 0 0 0 1 9 10 6 13 28 95 122 108 137 170 154 132 122 154 172 164 137 69 66 77 128 168 181 189 207 208 178 134 95 85 95 114 113 102 112 68 79 94 104 98 100 134 118 68 50 40 53 82 73 96 104 131 143 125 115 113 103 67 35 63 46 77 134 139 111 67 55 81 113 152 160 137 139 92 89 44 8 3 12 3 0 0 0 0 0 0 0 0 0 0 0 0 0 0 0 0 0 0 0 0 0 0 0 0 0 0 0 0 0 0 0 0 0 0 0 0 
0 0 0 0 0 0 0 0 0 0 0 1 2 7 4 10 21 72 125 120 132 132 134 101 91 100 134 134 138 119 78 72 96 158 167 183 204 179 134 107 91 78 92 112 90 86 120 63 71 85 92 93 91 132 120 75 45 40 69 72 70 131 138 136 150 156 134 101 78 75 54 100 146 167 172 161 108 75 76 82 110 148 104 78 142 124 95 23 7 6 6 7 0 0 0 0 0 0 0 0 0 0 0 0 0 0 0 0 0 0 0 0 0 0 0 0 0 0 0 0 0 0 0 0 0 0 0 0 
0 0 0 0 0 0 0 0 0 0 0 3 0 11 0 1 11 42 118 106 108 145 137 107 106 112 114 113 122 131 89 49 54 71 120 151 159 140 117 108 104 116 124 113 111 99 130 101 85 76 72 72 73 96 109 110 76 64 89 79 86 122 145 164 148 114 106 76 64 97 94 91 161 189 185 161 146 120 90 77 87 105 107 92 146 133 56 19 12 12 8 1 0 0 0 0 0 0 0 0 0 0 0 0 0 0 0 0 0 0 0 0 0 0 0 0 0 0 0 0 0 0 0 0 0 0 0 0 
0 0 0 0 0 0 0 0 0 0 0 5 9 12 0 0 9 17 88 102 97 138 149 131 101 88 89 113 129 111 107 83 44 45 43 76 122 129 136 122 116 116 122 104 93 114 125 110 87 76 66 66 70 73 113 117 84 81 115 103 87 140 156 185 159 93 58 49 51 66 101 153 184 177 184 146 147 167 119 96 92 94 93 121 143 104 17 4 14 19 15 0 0 0 0 0 0 0 0 0 0 0 0 0 0 0 0 0 0 0 0 0 0 0 0 0 0 0 0 0 0 0 0 0 0 0 0 0 
0 0 0 0 0 0 0 0 0 0 0 3 13 10 0 0 8 7 57 101 99 105 134 132 107 98 107 117 114 132 149 165 115 91 90 76 92 127 142 102 99 135 123 101 89 88 113 118 86 77 92 95 75 88 129 119 100 79 113 109 94 140 141 133 121 81 47 48 71 107 129 162 183 157 168 156 144 174 177 151 145 126 98 87 128 58 8 4 0 18 22 3 0 0 0 0 0 0 0 0 0 0 0 0 0 0 0 0 0 0 0 0 0 0 0 0 0 0 0 0 0 0 0 0 0 0 0 0 
0 0 0 0 0 0 0 0 0 0 0 0 10 9 0 0 6 9 27 102 102 87 99 140 136 127 110 117 147 159 164 161 163 156 93 48 51 77 77 99 115 159 131 119 117 107 116 140 126 142 166 161 145 139 136 119 111 127 155 165 139 148 114 98 91 76 58 66 124 134 133 129 148 137 154 168 163 181 182 185 153 134 76 69 107 27 6 6 0 11 21 4 0 0 0 0 0 0 0 0 0 0 0 0 0 0 0 0 0 0 0 0 0 0 0 0 0 0 0 0 0 0 0 0 0 0 0 0 
0 0 0 0 0 0 0 0 0 0 0 0 0 3 0 0 3 11 13 78 105 84 104 114 150 168 167 158 163 169 158 156 165 153 118 100 70 50 43 62 120 146 124 102 114 125 132 165 168 178 175 164 171 193 194 174 158 144 147 153 133 160 134 119 124 121 111 129 140 141 118 108 113 95 118 177 183 186 197 197 159 135 61 81 77 13 7 7 0 4 8 0 0 0 0 0 0 0 0 0 0 0 0 0 0 0 0 0 0 0 0 0 0 0 0 0 0 0 0 0 0 0 0 0 0 0 0 0 
0 0 0 0 0 0 0 0 0 0 0 0 0 0 0 0 4 5 8 46 91 87 101 123 123 198 203 175 167 177 168 155 142 127 113 119 117 104 86 93 137 108 117 122 130 156 155 175 159 133 122 117 113 118 137 160 155 144 154 164 139 153 159 153 148 147 158 147 136 127 108 85 67 62 77 140 149 194 189 176 122 113 84 98 55 9 6 5 0 0 0 0 0 0 0 0 0 0 0 0 0 0 0 0 0 0 0 0 0 0 0 0 0 0 0 0 0 0 0 0 0 0 0 0 0 0 0 0 
0 0 0 0 0 0 0 0 0 0 0 0 0 0 0 0 6 5 6 29 68 76 100 128 135 204 204 187 175 193 172 140 114 127 122 115 114 119 120 148 140 137 148 157 163 163 145 163 139 113 107 107 97 114 106 108 122 156 175 175 156 147 159 173 166 155 159 172 135 96 59 45 44 75 111 118 154 195 182 145 113 118 104 63 51 10 3 4 0 0 0 0 0 0 0 0 0 0 0 0 0 0 0 0 0 0 0 0 0 0 0 0 0 0 0 0 0 0 0 0 0 0 0 0 0 0 0 0 
0 0 0 0 0 0 0 0 0 0 0 3 5 6 0 0 5 5 4 24 70 79 105 114 125 171 179 182 187 189 166 113 92 100 112 123 132 129 137 140 122 153 182 185 167 158 164 181 174 126 108 144 137 117 104 115 134 167 180 184 170 156 168 182 166 140 146 160 132 85 54 71 98 116 141 137 190 184 151 121 143 147 117 78 60 6 3 3 3 0 0 0 0 0 0 0 0 0 0 0 0 0 0 0 0 0 0 0 0 0 0 0 0 0 0 0 0 0 0 0 0 0 0 0 0 0 0 0 
0 0 0 0 0 0 0 0 0 0 0 3 8 16 12 11 6 5 13 20 70 74 82 99 132 162 174 151 195 165 124 103 109 95 105 89 92 105 109 101 121 157 175 167 159 149 157 180 182 140 128 163 163 139 119 116 128 154 184 174 154 131 138 157 143 139 155 181 157 123 94 97 98 105 161 161 177 146 127 95 97 77 51 74 42 15 0 0 5 0 0 0 0 0 0 0 0 0 0 0 0 0 0 0 0 0 0 0 0 0 0 0 0 0 0 0 0 0 0 0 0 0 0 0 0 0 0 0 
0 0 0 0 0 0 0 0 0 0 0 1 7 15 13 16 15 14 17 15 36 78 72 66 99 128 175 170 172 122 154 117 121 118 87 76 59 78 74 66 86 131 134 125 127 111 116 141 163 151 143 153 151 152 125 100 96 93 120 118 101 126 144 144 148 145 156 194 159 147 122 102 109 134 161 131 161 127 126 78 64 39 27 41 20 15 12 6 12 13 15 12 0 0 0 0 0 0 0 0 0 0 0 0 0 0 0 0 0 0 0 0 0 0 0 0 0 0 0 0 0 0 0 0 0 0 0 0 
0 0 0 0 0 0 0 0 0 0 0 2 7 10 15 10 8 10 12 14 14 50 82 80 86 102 142 158 143 129 149 115 119 154 124 103 103 104 98 100 121 157 134 116 111 89 64 93 137 142 157 136 125 140 155 128 89 80 79 87 90 133 118 132 138 148 200 215 163 161 159 103 101 135 132 122 143 56 95 86 80 78 76 37 13 13 11 11 17 13 4 3 3 3 0 0 0 0 0 0 0 0 0 0 0 0 0 0 0 0 0 0 0 0 0 0 0 0 0 0 0 0 0 0 0 0 0 0 
0 0 0 0 0 0 0 0 0 0 0 0 5 5 11 10 8 8 10 16 15 31 66 91 91 80 81 120 140 149 167 106 65 98 118 111 116 114 127 151 136 152 159 140 131 103 96 131 175 191 178 156 154 147 138 147 140 121 104 113 114 144 139 153 140 162 191 167 131 115 113 89 110 131 97 87 115 66 91 67 83 90 55 13 4 1 1 7 7 9 6 5 5 5 0 0 0 0 0 0 0 0 0 0 0 0 0 0 0 0 0 0 0 0 0 0 0 0 0 0 0 0 0 0 0 0 0 0 
0 0 0 0 0 0 0 0 0 0 0 0 3 6 5 8 8 2 2 9 15 24 42 83 85 52 35 85 97 121 144 123 88 85 88 64 69 98 124 126 180 153 199 200 172 179 172 161 149 160 153 139 136 141 146 122 100 100 125 159 197 215 164 195 190 191 178 132 30 67 113 177 153 107 33 51 80 61 83 32 42 39 18 20 10 0 0 0 5 0 0 1 5 0 0 0 0 0 0 0 0 0 0 0 0 0 0 0 0 0 0 0 0 0 0 0 0 0 0 0 0 0 0 0 0 0 0 0 
0 0 0 0 0 0 0 0 0 0 0 0 0 3 5 2 7 0 0 4 14 27 31 27 37 40 43 63 60 53 92 79 96 119 106 96 108 164 166 132 113 158 200 212 185 201 208 202 148 168 165 146 158 174 169 144 144 174 205 207 163 154 173 155 197 180 181 220 210 151 126 105 114 92 54 66 65 65 78 29 24 35 50 39 20 0 0 0 0 0 0 1 4 0 0 0 0 0 0 0 0 0 0 0 0 0 0 0 0 0 0 0 0 0 0 0 0 0 0 0 0 0 0 0 0 0 0 0 
0 0 0 0 0 0 0 0 0 0 0 0 0 0 0 0 1 11 8 9 15 17 21 18 27 32 27 38 60 38 82 66 54 88 121 161 119 106 101 93 87 114 140 138 83 67 106 76 70 65 56 72 112 110 90 70 65 86 97 102 105 133 98 186 206 146 159 172 73 76 81 136 100 51 39 106 109 82 62 29 31 32 19 10 3 0 11 3 0 0 0 7 3 0 0 0 0 0 0 0 0 0 0 0 0 0 0 0 0 0 0 0 0 0 0 0 0 0 0 0 0 0 0 0 0 0 0 0 
0 0 0 0 0 0 0 0 0 0 0 0 0 0 0 0 0 2 10 7 12 13 14 16 18 21 25 29 50 36 81 75 38 34 80 135 87 62 56 60 64 68 75 66 73 89 91 56 45 45 51 52 49 49 45 41 52 57 55 75 107 83 53 55 62 85 64 54 56 76 94 97 64 55 33 114 109 72 55 27 29 27 16 8 2 0 0 0 0 0 1 5 0 0 0 0 0 0 0 0 0 0 0 0 0 0 0 0 0 0 0 0 0 0 0 0 0 0 0 0 0 0 0 0 0 0 0 0 
0 0 0 0 0 0 0 0 0 0 0 0 0 0 0 0 0 0 0 0 6 12 11 15 21 25 19 26 38 36 65 79 51 30 58 139 126 82 142 65 66 121 91 65 51 62 88 99 66 49 48 54 62 48 55 65 73 98 96 98 86 75 68 42 47 105 102 57 75 108 154 124 98 86 52 102 92 62 49 33 38 30 17 14 3 0 0 0 0 0 0 0 0 0 0 0 0 0 0 0 0 0 0 0 0 0 0 0 0 0 0 0 0 0 0 0 0 0 0 0 0 0 0 0 0 0 0 0 
0 0 0 0 0 0 0 0 0 0 0 0 0 0 0 0 0 0 0 0 0 2 5 12 22 24 18 17 29 36 44 68 47 59 74 153 145 131 132 149 91 150 175 119 65 77 96 116 119 112 76 52 50 47 55 85 110 121 112 141 153 156 122 89 99 132 121 73 69 111 183 174 144 144 109 124 96 73 43 24 25 7 0 1 0 0 0 0 0 0 0 0 0 0 0 0 0 0 0 0 0 0 0 0 0 0 0 0 0 0 0 0 0 0 0 0 0 0 0 0 0 0 0 0 0 0 0 0 
0 0 0 0 0 0 0 0 0 0 0 0 0 0 0 0 0 0 0 0 0 3 0 3 12 11 12 13 24 33 29 62 79 94 120 163 162 95 58 77 137 185 184 112 121 133 149 138 165 111 96 82 92 103 115 122 118 128 136 189 212 196 164 148 141 144 112 63 99 138 172 200 182 165 132 162 106 56 32 29 31 4 0 0 0 0 0 0 0 0 0 0 0 0 0 0 0 0 0 0 0 0 0 0 0 0 0 0 0 0 0 0 0 0 0 0 0 0 0 0 0 0 0 0 0 0 0 0 
0 0 0 0 0 0 0 0 0 0 0 0 0 0 0 0 0 0 0 0 0 0 2 3 2 11 19 29 29 30 23 67 34 37 49 124 132 122 97 107 135 110 128 98 94 104 131 127 114 155 153 137 146 139 146 152 167 159 162 163 156 157 133 139 145 147 129 63 92 115 136 140 85 76 42 104 78 40 27 29 25 5 4 0 0 0 0 0 0 0 0 0 0 0 0 0 0 0 0 0 0 0 0 0 0 0 0 0 0 0 0 0 0 0 0 0 0 0 0 0 0 0 0 0 0 0 0 0 
0 0 0 0 0 0 0 0 0 0 0 0 0 0 0 0 0 0 0 0 0 0 6 9 3 18 24 26 22 26 31 66 52 30 60 91 45 87 30 108 106 117 126 105 72 67 91 99 96 144 142 96 115 101 103 103 123 138 145 130 84 114 115 92 78 84 100 88 56 52 74 121 80 32 28 103 77 37 28 24 8 3 8 0 0 0 0 0 0 0 0 0 0 0 0 0 0 0 0 0 0 0 0 0 0 0 0 0 0 0 0 0 0 0 0 0 0 0 0 0 0 0 0 0 0 0 0 0 
0 0 0 0 0 0 0 0 0 0 0 0 0 0 0 0 0 0 0 0 0 0 0 12 10 14 19 25 19 24 29 67 77 41 67 72 35 40 59 78 76 101 114 92 100 102 100 79 72 118 113 78 105 92 85 88 93 88 99 103 66 105 73 67 84 80 99 106 94 67 54 80 98 38 34 104 81 49 33 24 14 9 12 0 0 0 0 0 0 0 0 0 0 0 0 0 0 0 0 0 0 0 0 0 0 0 0 0 0 0 0 0 0 0 0 0 0 0 0 0 0 0 0 0 0 0 0 0 
0 0 0 0 0 0 0 0 0 0 0 0 0 0 0 0 0 0 0 0 0 0 0 8 13 10 16 24 20 21 25 69 98 42 76 67 71 82 82 71 65 70 102 114 101 76 82 88 75 99 109 99 113 104 89 79 81 84 76 77 60 101 70 73 109 97 103 108 105 97 84 66 91 49 33 99 87 49 35 22 12 9 8 0 0 0 0 0 0 0 0 0 0 0 0 0 0 0 0 0 0 0 0 0 0 0 0 0 0 0 0 0 0 0 0 0 0 0 0 0 0 0 0 0 0 0 0 0 
0 0 0 0 0 0 0 0 0 0 0 0 0 0 0 0 0 0 0 0 0 0 0 4 13 10 12 20 19 20 23 69 101 54 87 89 88 75 58 47 56 57 70 112 111 75 72 93 112 126 120 113 109 102 93 86 92 73 53 64 64 111 114 86 126 131 99 101 106 100 82 75 118 103 35 98 107 59 34 19 10 10 5 0 0 0 0 0 0 0 0 0 0 0 0 0 0 0 0 0 0 0 0 0 0 0 0 0 0 0 0 0 0 0 0 0 0 0 0 0 0 0 0 0 0 0 0 0 
0 0 0 0 0 0 0 0 0 0 0 0 0 0 0 0 0 0 0 0 0 0 0 0 10 8 10 15 22 23 20 69 98 64 94 91 72 45 43 43 40 54 98 148 123 83 75 66 119 149 106 93 89 99 95 95 114 72 50 51 66 99 131 92 101 149 112 78 84 92 77 64 107 151 58 85 105 42 23 15 11 7 5 0 0 0 0 0 0 0 0 0 0 0 0 0 0 0 0 0 0 0 0 0 0 0 0 0 0 0 0 0 0 0 0 0 0 0 0 0 0 0 0 0 0 0 0 0 
0 0 0 0 0 0 0 0 0 0 0 0 0 0 0 0 0 0 0 0 0 0 0 0 2 9 10 12 16 21 23 69 110 74 76 86 58 33 40 46 45 59 98 162 142 85 72 62 77 117 91 81 78 95 84 92 95 64 49 42 55 96 104 118 112 152 145 73 53 59 48 42 79 156 87 91 95 26 18 16 11 9 4 0 0 0 0 0 0 0 0 0 0 0 0 0 0 0 0 0 0 0 0 0 0 0 0 0 0 0 0 0 0 0 0 0 0 0 0 0 0 0 0 0 0 0 0 0 
0 0 0 0 0 0 0 0 0 0 0 0 0 0 0 0 0 0 0 0 0 0 0 0 0 8 9 12 12 23 21 46 104 90 46 73 56 29 33 46 48 73 97 139 147 87 74 74 78 109 105 80 70 75 80 94 87 72 65 52 75 115 88 68 70 105 144 91 63 54 39 39 66 128 105 100 54 21 18 15 11 11 5 0 0 0 0 0 0 0 0 0 0 0 0 0 0 0 0 0 0 0 0 0 0 0 0 0 0 0 0 0 0 0 0 0 0 0 0 0 0 0 0 0 0 0 0 0 
0 0 0 0 0 0 0 0 0 0 0 0 0 0 0 0 0 0 0 0 0 0 0 0 0 5 8 6 15 18 20 26 68 62 16 60 55 30 28 43 51 81 86 74 121 87 77 72 76 122 137 95 79 90 113 124 106 88 83 85 106 123 74 48 64 109 112 66 71 50 36 36 65 92 50 25 20 18 19 16 13 8 3 0 0 0 0 0 0 0 0 0 0 0 0 0 0 0 0 0 0 0 0 0 0 0 0 0 0 0 0 0 0 0 0 0 0 0 0 0 0 0 0 0 0 0 0 0 
0 0 0 0 0 0 0 0 0 0 0 0 0 0 0 0 0 0 0 0 0 0 0 0 0 0 10 4 12 15 18 14 10 14 8 44 62 36 24 38 48 68 55 51 82 73 65 58 74 122 136 114 82 83 89 100 102 73 66 104 115 115 73 83 95 113 113 58 74 49 35 41 68 89 29 12 13 17 19 15 12 6 2 0 0 0 0 0 0 0 0 0 0 0 0 0 0 0 0 0 0 0 0 0 0 0 0 0 0 0 0 0 0 0 0 0 0 0 0 0 0 0 0 0 0 0 0 0 
0 0 0 0 0 0 0 0 0 0 0 0 0 0 0 0 0 0 0 0 0 0 0 0 0 0 0 8 10 11 16 12 10 12 18 25 72 58 32 31 61 75 50 76 127 77 62 81 108 122 131 133 113 97 91 83 90 82 77 115 125 138 140 108 87 116 147 70 82 71 46 55 86 79 30 12 13 19 20 16 11 6 3 0 0 0 0 0 0 0 0 0 0 0 0 0 0 0 0 0 0 0 0 0 0 0 0 0 0 0 0 0 0 0 0 0 0 0 0 0 0 0 0 0 0 0 0 0 
0 0 0 0 0 0 0 0 0 0 0 0 0 0 0 0 0 0 0 0 0 0 0 0 0 0 0 4 10 8 13 14 13 15 11 10 42 78 73 75 85 72 48 84 146 107 70 74 100 121 118 113 103 90 86 85 99 98 113 139 144 147 117 74 73 115 155 81 72 100 93 87 91 44 24 12 15 20 20 14 12 7 3 0 0 0 0 0 0 0 0 0 0 0 0 0 0 0 0 0 0 0 0 0 0 0 0 0 0 0 0 0 0 0 0 0 0 0 0 0 0 0 0 0 0 0 0 0 
0 0 0 0 0 0 0 0 0 0 0 0 0 0 0 0 0 0 0 0 0 0 0 0 0 0 0 1 10 7 12 14 14 17 8 14 14 42 78 90 80 52 45 98 172 135 77 69 96 117 117 109 101 81 74 75 82 85 103 129 149 140 129 98 79 131 175 99 48 83 93 79 45 26 24 16 17 21 17 15 12 8 3 0 0 0 0 0 0 0 0 0 0 0 0 0 0 0 0 0 0 0 0 0 0 0 0 0 0 0 0 0 0 0 0 0 0 0 0 0 0 0 0 0 0 0 0 0 
0 0 0 0 0 0 0 0 0 0 0 0 0 0 0 0 0 0 0 0 0 0 0 0 0 0 0 0 8 7 9 14 13 15 13 16 26 21 25 39 39 36 38 97 173 158 105 116 136 118 117 100 79 71 74 74 75 82 97 124 144 136 157 147 113 152 176 102 49 45 37 28 24 24 25 18 25 18 17 14 13 8 3 0 0 0 0 0 0 0 0 0 0 0 0 0 0 0 0 0 0 0 0 0 0 0 0 0 0 0 0 0 0 0 0 0 0 0 0 0 0 0 0 0 0 0 0 0 
0 0 0 0 0 0 0 0 0 0 0 0 0 0 0 0 0 0 0 0 0 0 0 0 0 0 0 0 4 8 6 14 15 15 14 13 22 23 27 29 33 36 33 68 152 169 148 156 138 116 111 94 81 76 80 78 72 80 101 112 118 94 117 174 171 172 161 74 50 40 30 24 25 21 23 18 20 16 18 12 13 10 3 0 0 0 0 0 0 0 0 0 0 0 0 0 0 0 0 0 0 0 0 0 0 0 0 0 0 0 0 0 0 0 0 0 0 0 0 0 0 0 0 0 0 0 0 0 
0 0 0 0 0 0 0 0 0 0 0 0 0 0 0 0 0 0 0 0 0 0 0 0 0 0 0 0 0 10 5 9 14 16 14 14 11 22 25 27 33 34 33 42 88 167 164 161 139 103 95 95 87 79 70 65 61 65 88 103 101 76 94 160 189 182 112 51 46 35 26 23 24 19 24 19 18 17 16 13 13 9 2 0 0 0 0 0 0 0 0 0 0 0 0 0 0 0 0 0 0 0 0 0 0 0 0 0 0 0 0 0 0 0 0 0 0 0 0 0 0 0 0 0 0 0 0 0 
0 0 0 0 0 0 0 0 0 0 0 0 0 0 0 0 0 0 0 0 0 0 0 0 0 0 0 0 0 5 6 7 13 15 14 14 9 21 20 28 34 34 33 43 54 83 138 153 107 78 90 102 93 75 65 66 66 63 77 117 116 61 61 123 163 118 64 50 36 24 27 22 23 17 16 17 17 17 15 12 13 8 2 0 0 0 0 0 0 0 0 0 0 0 0 0 0 0 0 0 0 0 0 0 0 0 0 0 0 0 0 0 0 0 0 0 0 0 0 0 0 0 0 0 0 0 0 0 
