P2
128 99
216
0 0 0 0 0 0 0 0 0 0 0 0 0 0 0 0 0 0 0 0 0 0 0 0 0 0 0 0 0 0 0 0 1 1 0 0 0 0 0 0 0 0 0 0 0 0 0 0 0 0 0 0 0 0 0 0 0 0 0 0 0 0 0 0 0 0 0 0 0 0 0 0 0 0 0 0 0 0 0 0 0 0 0 0 0 0 0 0 0 0 0 0 0 1 1 1 2 0 0 0 0 0 0 0 0 0 0 0 0 0 0 0 0 0 0 0 0 0 0 0 0 0 0 0 0 0 0 0 
0 0 0 0 0 0 0 0 0 0 0 0 0 0 0 0 0 0 0 0 0 0 0 0 0 0 0 0 0 0 0 0 0 1 0 0 0 1 0 0 0 0 0 0 0 0 0 0 0 0 0 0 0 0 0 0 0 0 0 0 0 0 0 0 0 0 0 0 0 0 0 0 0 0 0 0 0 0 0 0 0 0 0 0 0 0 0 0 0 0 0 0 0 1 1 1 1 0 0 0 0 0 0 0 0 0 0 0 0 0 0 0 0 0 0 0 0 0 0 0 0 0 0 0 0 0 0 0 
0 0 0 0 0 0 0 0 0 0 0 0 0 0 0 0 0 0 0 0 0 0 0 0 0 0 0 0 0 0 0 0 0 1 0 0 0 0 0 0 0 0 0 0 0 0 0 0 0 0 1 2 2 2 1 0 0 0 0 0 0 0 0 0 0 0 0 0 0 0 0 0 0 0 0 0 0 0 0 0 0 0 0 0 0 0 0 0 0 0 0 0 0 1 1 1 1 0 0 0 0 0 0 0 0 0 0 0 0 0 0 0 0 0 0 0 0 0 0 0 0 0 0 0 0 0 0 0 
0 0 0 0 0 0 0 0 0 0 0 0 0 0 0 0 0 0 0 0 0 0 0 0 0 0 0 0 0 0 0 0 0 1 0 0 0 0 0 0 0 0 0 1 7 13 17 18 18 19 22 25 28 27 25 21 18 16 14 12 4 0 0 0 0 0 0 0 0 0 0 0 0 0 0 0 0 0 0 0 0 0 0 0 0 0 0 0 0 0 0 0 0 1 1 1 1 0 0 0 0 0 0 0 0 0 0 0 0 0 0 0 0 0 0 0 0 0 0 0 0 0 0 0 0 0 0 0 
0 0 0 0 0 0 0 0 0 0 0 0 0 0 0 0 0 0 0 0 0 0 0 0 0 0 0 0 0 0 0 0 0 0 0 0 0 0 0 0 6 13 19 23 24 33 54 78 102 123 140 151 157 158 153 143 126 105 80 54 33 22 17 10 2 0 0 0 0 0 0 0 0 0 0 0 0 0 0 0 0 0 0 0 0 0 0 0 0 0 0 0 0 1 1 1 1 0 0 0 0 0 0 0 0 0 0 0 0 0 0 0 0 0 0 0 0 0 0 0 0 0 0 0 0 0 0 0 
0 0 0 0 0 0 0 0 0 0 0 0 0 0 0 0 0 0 0 0 0 0 0 0 0 0 0 0 0 0 0 0 0 0 0 0 0 1 9 17 24 25 36 68 113 152 175 186 191 194 195 194 192 192 193 193 193 190 184 174 153 120 80 44 24 16 10 1 0 0 0 0 0 0 0 0 0 0 0 0 0 0 0 0 0 0 0 0 0 0 0 0 0 1 1 1 1 0 0 0 0 0 0 0 0 0 0 0 0 0 0 0 0 0 0 0 0 0 0 0 0 0 0 0 0 0 0 0 
0 0 0 0 0 0 0 0 0 0 0 0 0 0 0 0 0 0 0 0 0 0 0 0 0 0 0 0 0 0 0 0 0 0 0 0 9 22 24 26 52 104 155 182 193 195 196 196 199 201 204 205 205 204 204 204 202 200 197 194 193 189 179 160 124 77 39 18 13 2 0 0 0 0 0 0 0 0 0 0 0 0 0 0 0 0 0 0 0 0 0 0 0 1 1 1 1 0 0 0 0 0 0 0 0 0 0 0 0 0 0 0 0 0 0 0 0 0 0 0 0 0 0 0 0 0 0 0 
0 0 0 0 0 0 0 0 0 0 0 0 0 0 0 0 0 0 0 0 0 0 0 0 0 0 0 0 0 0 0 0 0 0 8 24 25 26 63 127 172 190 195 197 199 202 200 193 187 183 186 193 192 178 176 190 203 209 208 203 200 197 195 194 190 178 152 102 49 23 14 1 0 0 0 0 0 0 0 0 0 0 0 0 0 0 0 0 0 0 0 0 0 1 1 1 2 0 0 0 0 0 0 0 0 0 0 0 0 0 0 0 0 0 0 0 0 0 0 0 0 0 0 0 0 0 0 0 
0 0 0 0 0 0 0 0 0 0 0 0 0 0 0 0 0 0 0 0 0 0 0 0 0 0 0 0 0 0 0 0 5 27 25 23 59 131 176 189 191 194 199 202 199 190 181 169 160 158 158 160 158 150 152 157 166 184 204 212 210 206 202 198 196 194 193 185 160 104 46 23 10 0 0 0 0 0 0 0 0 0 0 0 0 0 0 0 0 0 0 0 0 1 1 1 1 0 0 0 0 0 0 0 0 0 0 0 0 0 0 0 0 0 0 0 0 0 0 0 0 0 0 0 0 0 0 0 
0 0 0 0 0 0 0 0 0 0 0 0 0 0 0 0 0 0 0 0 0 0 0 0 0 0 0 0 0 0 0 24 26 22 41 114 173 187 189 192 197 202 199 183 169 163 156 146 141 139 143 150 151 147 151 153 155 158 170 189 208 214 212 209 205 200 196 195 194 185 152 81 31 19 2 0 0 0 0 0 0 0 0 0 0 0 0 0 0 0 0 0 0 1 1 1 2 0 0 0 0 0 0 0 0 0 0 0 0 0 0 0 0 0 0 0 0 0 0 0 0 0 0 0 0 0 0 0 
0 0 0 0 0 0 0 0 0 0 0 0 0 0 0 0 0 0 0 0 0 0 0 0 0 0 0 0 0 10 28 22 26 85 162 186 189 191 196 201 205 193 174 169 163 155 149 142 138 137 137 142 141 140 144 149 149 148 152 160 176 196 210 215 214 210 205 201 197 196 194 179 122 46 23 6 0 0 0 0 0 0 0 0 0 0 0 0 0 1 0 0 0 1 1 1 2 0 0 0 0 0 0 0 0 0 0 0 0 0 0 0 0 0 0 0 0 0 0 0 0 0 0 0 0 0 0 0 
0 0 0 0 0 0 0 0 0 0 0 0 0 0 0 0 0 0 0 0 0 0 0 0 0 0 0 0 22 25 18 48 135 181 186 191 197 201 206 201 185 175 168 162 158 154 151 146 144 141 135 137 135 134 144 150 150 149 151 155 161 172 188 201 212 216 214 210 205 202 199 197 189 154 69 24 11 0 0 0 0 0 0 0 0 0 0 0 0 1 0 0 0 1 1 1 2 0 0 0 0 0 0 0 0 0 0 0 0 0 0 0 0 0 0 0 0 0 0 0 0 0 0 0 0 0 0 0 
0 0 0 0 0 0 0 0 0 0 0 0 0 0 0 0 0 0 0 0 0 0 0 0 0 0 5 26 21 19 77 162 183 189 195 202 206 206 193 180 174 169 161 158 153 152 152 148 149 141 132 130 128 128 139 148 148 149 152 153 156 165 175 183 193 204 213 216 214 209 203 200 196 189 166 86 25 13 0 0 0 0 0 0 0 0 0 0 0 1 0 0 0 1 1 1 2 1 0 0 0 0 0 0 0 0 0 0 0 0 0 0 0 0 0 0 0 0 0 0 0 0 0 0 0 0 0 0 
0 0 0 0 0 0 0 0 0 0 0 0 0 0 0 0 0 0 0 0 0 0 0 0 0 10 25 18 26 103 171 183 194 201 206 209 202 187 177 171 168 163 158 154 151 151 152 151 142 136 126 126 122 124 129 140 151 153 155 155 155 158 164 172 179 185 193 204 213 215 212 206 200 193 189 171 96 27 14 0 0 0 0 0 0 0 0 0 0 0 0 0 0 1 1 1 2 1 0 0 0 0 0 0 0 0 0 0 0 0 0 0 0 0 0 0 0 0 0 0 0 0 0 0 0 0 0 0 
0 0 0 0 0 0 0 0 0 0 0 0 0 0 0 0 0 0 0 0 0 0 0 0 14 23 16 34 120 173 184 196 204 209 206 193 180 174 171 167 164 160 158 155 150 148 140 133 132 127 123 122 120 123 125 126 135 147 151 150 151 152 156 162 166 171 177 182 189 201 211 213 208 201 194 191 175 107 30 13 0 0 0 0 0 0 0 0 0 1 0 0 0 1 1 1 2 1 0 0 0 0 0 0 0 0 0 0 0 0 0 0 0 0 0 0 0 0 0 0 0 0 0 0 0 0 0 0 
0 0 0 0 0 0 0 0 0 0 0 0 0 0 0 0 0 0 0 0 0 0 3 19 20 15 45 132 171 186 198 205 209 197 182 175 172 170 168 163 160 154 149 141 137 129 125 125 122 122 122 119 117 123 125 125 124 128 138 146 147 146 148 154 160 162 166 168 172 178 189 203 210 208 201 193 190 177 120 36 12 0 0 0 0 0 0 0 0 1 0 0 0 1 1 1 2 1 0 0 0 0 0 0 0 0 0 0 0 0 0 0 0 0 0 0 0 0 0 0 0 0 0 0 0 0 0 0 
0 0 0 0 0 0 0 0 0 0 0 0 0 0 0 0 0 0 0 0 0 5 17 17 16 57 141 170 187 200 207 206 187 175 170 168 166 165 162 158 153 145 140 137 128 122 122 118 121 121 121 116 115 122 124 124 125 125 126 129 132 134 138 144 150 153 156 160 165 168 171 178 194 206 208 201 196 191 176 128 39 9 0 0 0 0 0 0 0 1 0 0 0 1 1 1 2 1 0 0 0 0 0 0 0 0 0 0 0 0 0 0 0 0 0 0 0 0 0 0 0 0 0 0 0 0 0 0 
0 0 0 0 0 0 0 0 0 0 0 0 0 0 0 0 0 0 0 0 7 16 14 18 72 150 170 187 202 208 200 176 167 167 166 162 156 151 150 147 145 141 135 127 122 121 117 119 121 120 117 111 111 120 121 123 124 124 124 127 129 131 133 136 140 143 145 148 152 157 159 163 169 185 199 205 201 196 189 177 133 37 6 0 0 0 0 0 0 0 0 0 0 1 1 1 2 1 0 0 0 0 0 0 0 0 0 0 0 0 0 0 0 0 0 0 0 0 0 0 0 0 0 0 0 0 0 0 
0 0 0 0 0 0 0 0 0 0 0 0 0 0 0 0 0 0 0 6 16 13 20 80 153 170 185 200 207 196 171 162 163 161 157 151 146 145 140 135 131 127 125 122 122 119 116 119 118 114 116 108 110 119 120 121 123 123 123 124 125 126 127 129 129 130 134 141 147 148 147 150 157 164 178 195 205 202 197 187 176 124 29 3 0 0 0 0 0 1 0 0 0 1 1 2 2 1 0 0 0 0 0 0 0 0 0 0 0 0 0 0 0 0 0 0 0 0 0 0 0 0 0 0 0 0 0 0 
0 0 0 0 0 0 0 0 0 0 0 0 0 0 0 0 0 0 5 16 13 20 85 154 168 182 196 205 190 168 161 158 156 155 148 140 136 134 130 126 125 122 121 122 118 114 115 116 113 113 111 106 109 119 120 120 121 122 122 123 122 122 122 122 124 124 129 133 141 146 145 144 147 152 161 173 190 205 203 195 184 170 109 20 2 0 0 0 0 1 0 0 0 1 1 2 2 1 0 0 0 0 0 0 0 0 0 0 0 0 0 0 0 0 0 0 0 0 0 0 0 0 0 0 0 0 0 0 
0 0 0 0 0 0 0 0 0 0 0 0 0 0 0 0 0 2 15 13 19 82 150 165 178 193 204 188 166 159 156 152 149 146 138 132 130 128 125 124 121 119 118 114 113 113 113 112 114 110 102 103 106 116 118 118 120 119 119 121 123 121 119 118 118 120 124 131 135 137 141 141 143 146 152 158 168 186 205 200 191 179 161 84 11 0 0 0 0 1 0 0 0 1 1 2 2 1 0 0 0 0 0 0 0 0 0 0 0 0 0 0 0 0 0 0 0 0 0 0 0 0 0 0 0 0 0 0 
0 0 0 0 0 0 0 0 0 0 0 0 0 0 0 0 0 11 12 16 74 144 160 173 188 201 186 164 157 154 149 146 145 139 129 127 126 124 123 120 116 113 112 112 112 111 109 109 110 101 101 104 105 109 113 115 116 115 116 118 120 117 117 116 114 115 120 125 130 132 132 133 134 138 145 151 158 164 188 204 199 188 173 144 54 4 0 0 0 0 0 0 0 1 1 2 2 1 0 0 0 0 0 0 0 0 0 0 0 0 0 0 0 0 0 0 0 0 0 0 0 0 0 0 0 0 0 0 
0 0 0 0 0 0 0 0 0 0 0 0 0 0 0 0 6 12 14 60 136 153 168 184 198 187 161 155 151 146 143 140 134 128 125 125 124 124 120 115 112 111 112 111 109 107 106 106 102 99 101 104 105 109 109 107 110 111 109 109 111 113 113 112 111 110 113 122 125 128 128 128 130 132 136 143 149 154 160 191 204 197 183 164 119 25 1 0 0 1 0 0 0 1 1 2 2 1 0 0 0 0 0 0 0 0 0 0 0 0 0 0 0 0 0 0 0 0 0 0 0 0 0 0 0 0 0 0 
0 0 0 0 0 0 0 0 0 0 0 0 0 0 0 2 12 13 47 125 148 163 178 194 189 162 152 148 145 144 137 131 129 128 126 124 121 117 113 111 107 102 100 100 101 102 103 104 104 103 107 106 105 107 105 104 106 106 106 106 107 109 110 109 108 110 110 112 120 124 124 123 124 129 133 138 148 148 149 163 196 201 190 175 151 80 7 0 0 1 0 0 0 1 1 2 2 1 0 0 0 0 0 0 0 0 0 0 0 0 0 0 0 0 0 0 0 0 0 0 0 0 0 0 0 0 0 0 
0 0 0 0 0 0 0 0 0 0 0 0 0 0 0 7 11 26 104 140 155 172 188 190 166 151 146 143 143 141 133 128 127 124 122 118 115 112 110 104 99 98 101 102 101 102 103 104 104 105 110 108 104 105 103 103 103 103 103 105 105 105 108 108 109 109 110 111 115 119 120 121 121 123 130 136 144 145 145 148 172 197 194 181 164 125 30 1 0 1 0 0 0 1 1 2 2 1 0 0 0 0 0 0 0 0 0 0 0 0 0 0 0 0 0 0 0 0 0 0 0 0 0 0 0 0 0 0 
0 0 0 0 0 0 0 0 0 0 0 0 0 0 2 9 13 75 132 147 163 181 184 173 151 141 140 140 142 138 130 125 122 123 120 113 112 109 104 100 100 101 102 102 101 101 103 103 102 104 110 109 105 107 104 103 103 104 103 103 103 106 106 107 106 108 108 109 111 114 116 121 121 122 126 133 141 141 141 140 150 182 193 186 170 146 70 4 0 1 0 0 1 1 1 2 2 1 0 0 0 0 0 0 0 0 0 0 0 0 0 0 0 0 0 0 0 0 0 0 0 0 0 0 0 0 0 0 
0 0 0 0 0 0 0 0 0 0 0 0 0 0 6 9 40 116 138 154 173 180 170 161 140 135 138 140 140 134 128 122 121 119 115 108 107 106 104 101 101 101 100 100 102 104 105 104 102 104 111 112 108 108 99 100 104 104 103 102 100 102 104 105 105 105 105 106 108 111 112 118 121 120 123 133 141 140 138 133 138 164 184 187 176 156 108 17 1 1 0 0 1 1 1 2 2 1 0 0 0 0 0 0 0 0 0 0 0 0 0 0 0 0 0 0 0 0 0 0 0 0 0 0 0 0 0 0 
0 0 0 0 0 0 0 0 0 0 0 0 0 0 7 15 85 128 146 162 179 166 164 146 134 134 136 139 135 131 122 117 116 116 112 106 107 105 102 101 100 99 101 101 101 103 105 105 106 103 106 111 111 104 97 97 98 104 104 102 100 100 101 104 106 108 107 107 108 110 111 115 121 121 124 130 138 140 135 130 132 156 174 184 178 162 131 39 2 1 0 0 0 1 1 2 2 1 0 0 0 0 0 0 0 0 0 0 0 0 0 0 0 0 0 0 0 0 0 0 0 0 0 0 0 0 0 0 
0 0 0 0 0 0 0 0 0 0 0 0 0 3 7 37 112 136 151 171 173 161 155 136 131 131 134 137 132 124 121 119 117 114 108 108 106 102 100 100 100 99 100 100 101 103 106 107 106 101 100 103 110 99 95 94 97 101 98 101 102 101 101 102 105 108 108 109 109 109 110 112 119 120 122 131 138 137 131 127 126 150 166 183 180 167 142 62 3 1 0 0 0 1 1 2 2 1 0 0 0 0 0 0 0 0 0 0 0 0 0 0 0 0 0 0 0 0 0 0 0 0 0 0 0 0 0 0 
0 0 0 0 0 0 0 0 0 0 0 0 0 4 9 69 125 140 157 174 159 154 145 131 130 128 130 132 126 123 122 119 118 111 106 107 106 103 102 101 100 101 99 101 102 103 103 103 104 101 99 100 107 99 95 95 96 96 95 96 97 102 102 102 105 107 108 110 112 112 110 112 118 118 121 131 136 130 127 125 121 143 159 179 181 168 148 83 6 1 1 0 1 1 1 2 2 1 0 0 0 0 0 0 0 0 0 0 0 0 0 0 0 0 0 0 0 0 0 0 0 0 0 0 0 0 0 0 
0 0 0 0 0 0 0 0 0 0 0 0 0 6 17 96 130 146 165 167 146 145 138 126 125 124 127 127 120 122 122 121 117 109 108 109 107 103 101 102 104 100 98 99 103 102 99 102 103 99 97 98 105 98 96 96 96 97 98 97 96 98 102 106 107 107 111 112 113 113 113 114 117 118 120 127 131 127 124 123 120 136 154 175 181 169 152 100 11 1 1 0 0 1 1 2 2 1 0 0 0 0 0 0 0 0 0 0 0 0 0 0 0 0 0 0 0 0 0 0 0 0 0 0 0 0 0 0 
0 0 0 0 0 0 0 0 0 0 0 0 1 6 34 114 135 153 167 150 136 139 136 125 120 121 121 124 118 120 121 119 117 112 110 109 106 102 104 103 99 97 98 99 100 99 99 100 101 98 96 97 105 98 96 95 96 97 97 100 101 102 101 105 110 110 112 113 114 113 115 116 117 118 120 124 126 125 121 117 118 135 157 172 182 172 155 115 16 1 1 0 1 1 1 2 2 1 0 0 0 0 0 0 0 0 0 0 0 0 0 0 0 0 0 0 0 0 0 0 0 0 0 0 0 0 0 0 
0 0 0 0 0 0 0 0 0 0 0 0 2 6 50 121 139 158 159 140 132 135 136 123 116 117 119 122 117 116 119 118 116 113 109 111 107 104 101 95 96 97 97 96 97 99 99 96 97 97 96 99 99 96 95 93 93 94 96 99 101 102 102 102 107 113 111 117 118 117 116 116 116 118 120 124 120 120 118 114 113 132 154 166 183 175 160 129 26 1 1 0 1 1 1 2 2 1 0 0 0 0 0 0 0 0 0 0 0 0 0 0 0 0 0 0 0 0 0 0 0 0 0 0 0 0 0 0 
0 0 0 0 0 0 0 0 0 0 0 0 2 7 64 126 145 162 152 137 129 134 137 122 113 112 116 120 114 112 118 117 115 114 113 112 108 105 99 94 95 96 95 96 97 97 96 95 94 94 98 102 99 95 92 90 90 93 94 96 99 100 102 102 104 108 111 113 119 119 118 118 117 118 119 123 115 112 116 115 114 133 155 167 183 180 164 140 38 2 0 0 1 1 1 2 2 1 0 0 0 0 0 0 0 0 0 0 0 0 0 0 0 0 0 0 0 0 0 0 0 0 0 0 0 0 0 0 
0 0 0 0 0 0 0 0 0 0 0 0 3 9 73 130 150 160 151 140 131 134 135 123 114 110 115 116 108 110 119 117 116 114 112 114 109 106 108 99 98 96 94 96 95 94 94 94 94 93 98 102 99 94 91 91 88 90 92 94 95 99 100 99 99 107 111 117 123 123 121 120 119 120 120 122 112 109 113 111 113 138 156 167 182 183 169 150 50 3 1 0 1 1 1 2 2 1 0 0 0 0 0 0 0 0 0 0 0 0 0 0 0 0 0 0 0 0 0 0 0 0 0 0 0 0 0 0 
0 0 0 0 0 0 0 0 0 0 0 0 3 11 82 135 155 163 152 143 135 134 136 125 115 109 114 112 105 110 120 117 116 115 114 116 114 111 113 115 112 105 98 98 97 97 97 97 93 94 97 99 100 94 93 92 89 87 91 93 95 99 99 99 104 111 116 122 123 123 126 125 124 122 122 128 115 110 109 109 117 140 154 165 184 184 172 157 63 4 0 0 1 1 1 2 2 1 0 0 0 0 0 0 0 0 0 0 0 0 0 0 0 0 0 0 0 0 0 0 0 0 0 0 0 0 0 0 
0 0 0 0 0 0 0 0 0 0 0 0 4 12 87 139 159 167 155 147 139 137 138 127 118 111 112 110 103 109 123 119 118 119 121 118 111 102 98 98 95 96 102 104 102 99 98 97 96 97 100 99 104 96 93 93 89 85 89 91 93 98 104 108 103 99 97 97 101 104 111 118 129 133 129 132 127 114 109 113 124 140 151 161 182 187 175 160 78 6 1 0 1 1 1 2 2 1 0 0 0 0 0 0 0 0 0 0 0 0 0 0 0 0 0 0 0 0 0 0 0 0 0 0 0 0 0 0 
0 0 0 0 0 0 0 0 0 0 0 0 5 13 90 142 161 167 152 148 144 142 140 130 121 114 111 105 103 114 126 120 125 126 115 107 98 88 83 85 86 84 86 92 98 106 103 97 93 93 97 98 106 101 95 93 89 85 87 88 96 106 102 96 93 90 93 93 93 96 99 102 111 127 140 140 140 125 114 121 129 139 146 155 176 189 178 162 92 8 1 0 1 1 1 2 2 1 0 0 0 0 0 0 0 0 0 0 0 0 0 0 0 0 0 0 0 0 0 0 0 0 0 0 0 0 0 0 
0 0 0 0 0 0 0 0 0 0 0 0 6 14 94 146 164 166 154 148 143 141 142 138 129 121 114 103 105 121 129 126 130 114 100 93 89 85 83 87 86 84 84 86 89 95 102 102 94 94 97 100 104 104 99 95 89 86 86 93 104 94 91 90 91 95 97 97 99 102 100 99 100 112 136 152 147 138 125 127 132 135 140 149 164 186 181 165 106 11 1 0 1 1 1 2 2 1 0 0 0 0 0 0 0 0 0 0 0 0 0 0 0 0 0 0 0 0 0 0 0 0 0 0 0 0 0 0 
0 0 0 0 0 0 0 0 0 0 0 0 7 14 96 149 164 166 152 145 141 138 138 138 135 125 120 113 110 126 134 135 114 97 93 91 88 87 90 92 90 87 84 86 90 94 95 102 96 97 100 102 108 110 108 101 93 90 87 102 96 87 87 87 92 96 98 100 101 103 106 107 109 115 130 153 153 144 136 132 129 129 134 142 154 180 182 167 120 16 1 0 1 1 1 2 2 1 0 0 0 0 0 0 0 0 0 0 0 0 0 0 0 0 0 0 0 0 0 0 0 0 0 0 0 0 0 0 
0 0 0 0 0 0 0 0 0 0 0 0 7 15 98 151 168 168 147 141 138 138 133 131 132 129 123 122 130 131 139 128 101 94 91 90 88 89 91 90 89 89 86 86 88 89 96 99 101 99 105 111 117 115 120 106 97 91 90 103 88 82 81 86 93 97 100 103 103 106 108 107 113 125 132 138 147 143 143 133 126 124 128 134 145 171 181 167 130 24 1 0 1 1 1 2 2 1 0 0 0 0 0 0 0 0 0 0 0 0 0 0 0 0 0 0 0 0 0 0 0 0 0 0 0 0 0 0 
0 0 0 0 0 0 0 0 0 0 0 0 7 15 100 153 169 169 138 134 136 134 131 126 128 130 125 121 134 139 145 126 110 102 99 95 92 91 88 87 87 88 88 87 88 90 96 100 100 100 106 115 124 117 125 109 99 93 97 100 83 78 83 90 95 99 100 102 104 106 109 109 116 121 122 125 132 141 144 134 123 121 124 124 134 162 180 168 136 34 1 0 1 1 1 2 2 1 0 0 0 0 0 0 0 0 0 0 0 0 0 0 0 0 0 0 0 0 0 0 0 0 0 0 0 0 0 0 
0 0 0 0 0 0 0 0 0 0 0 0 8 16 101 153 171 169 135 134 134 131 126 121 122 122 121 122 132 134 136 127 120 112 104 100 98 94 90 88 89 90 89 88 89 91 93 99 97 100 106 116 118 113 119 116 105 100 100 92 80 81 89 94 96 97 98 99 100 103 107 109 112 114 118 119 125 137 141 134 120 115 116 117 123 151 176 168 140 44 2 0 1 1 1 2 2 1 0 0 0 0 0 0 0 0 0 0 0 0 0 0 0 0 0 0 0 0 0 0 0 0 0 0 0 0 0 0 
0 0 0 0 0 0 0 0 0 0 0 0 8 17 104 156 173 167 132 132 131 126 119 113 114 118 119 122 124 124 125 117 110 108 101 97 95 92 90 85 86 87 89 92 91 91 91 96 100 101 106 105 105 110 109 114 109 105 100 86 81 86 90 92 93 94 93 94 98 100 102 105 111 112 116 115 124 136 140 132 115 111 111 113 116 139 171 167 143 52 3 0 1 1 1 2 2 1 0 0 0 0 0 0 0 0 0 0 0 0 0 0 0 0 0 0 0 0 0 0 0 0 0 0 0 0 0 0 
0 0 0 0 0 0 0 0 0 0 0 0 8 17 104 158 174 162 126 126 122 117 110 104 107 112 116 125 123 118 118 114 103 103 97 93 90 90 90 86 84 87 89 91 89 89 91 92 98 102 111 108 103 105 104 114 110 110 105 87 86 87 90 87 85 89 92 93 95 99 101 103 107 110 111 112 124 134 135 133 119 109 107 108 108 127 157 165 146 58 3 1 1 1 1 2 2 1 0 0 0 0 0 0 0 0 0 0 0 0 0 0 0 0 0 0 0 0 0 0 0 0 0 0 0 0 0 0 
0 0 0 0 0 0 0 0 0 0 0 0 8 17 102 158 174 156 119 117 114 110 103 99 101 105 111 124 125 118 114 112 102 99 93 89 88 87 87 84 84 87 87 88 86 86 90 88 89 104 119 123 112 99 101 94 114 108 100 91 91 90 90 80 82 88 90 93 96 97 100 102 103 109 108 112 123 130 130 136 127 109 106 109 110 122 138 155 148 64 3 0 1 1 1 2 2 1 0 0 0 0 0 0 0 0 0 0 0 0 0 0 0 0 0 0 0 0 0 0 0 0 0 0 0 0 0 0 
0 0 0 0 0 0 0 0 0 0 0 0 8 17 100 157 173 147 117 113 107 105 102 100 99 101 113 120 122 118 113 111 104 97 93 91 89 89 89 87 84 84 88 90 88 90 93 87 84 99 116 122 102 92 94 83 102 116 92 95 91 90 84 82 87 89 91 93 94 96 98 99 101 105 106 114 124 131 137 139 131 110 105 107 110 121 134 155 148 65 3 0 1 1 1 2 2 1 0 0 0 0 0 0 0 0 0 0 0 0 0 0 0 0 0 0 0 0 0 0 0 0 0 0 0 0 0 0 
0 0 0 0 0 0 0 0 0 0 0 0 7 17 95 155 170 138 116 109 107 107 102 101 101 103 114 116 118 118 115 112 105 97 93 91 89 90 90 90 87 83 83 85 87 89 92 84 84 101 117 109 86 81 87 79 86 121 87 91 89 86 82 87 90 90 92 93 95 97 98 97 101 103 105 118 133 140 136 135 131 111 105 104 110 118 134 158 142 62 3 0 1 1 1 2 2 1 0 0 0 0 0 0 0 0 0 0 0 0 0 0 0 0 0 0 0 0 0 0 0 0 0 0 0 0 0 0 
0 0 0 0 0 0 0 0 0 0 0 0 6 15 86 153 168 134 114 108 106 105 103 100 99 102 114 115 115 118 120 114 103 101 94 89 90 92 91 89 87 86 80 79 81 85 90 83 88 103 110 91 85 82 89 77 79 112 104 89 86 82 81 90 90 90 92 94 97 96 96 97 102 100 103 119 139 134 129 133 129 109 104 102 108 116 133 156 137 57 3 0 1 1 1 2 2 1 0 0 0 0 0 0 0 0 0 0 0 0 0 0 0 0 0 0 0 0 0 0 0 0 0 0 0 0 0 0 
0 0 0 0 0 0 0 0 0 0 0 0 4 15 80 149 166 136 115 109 104 104 104 99 97 98 111 116 114 116 120 116 103 102 95 94 94 96 94 92 88 86 83 78 80 83 85 76 88 106 105 88 86 89 95 81 77 90 114 92 85 79 82 89 90 92 94 95 94 93 94 97 100 98 102 118 133 128 126 132 127 108 104 103 106 114 136 152 131 51 2 0 0 1 1 2 2 1 0 0 0 0 0 0 0 0 0 0 0 0 0 0 0 0 0 0 0 0 0 0 0 0 0 0 0 0 0 0 
0 0 0 0 0 0 0 0 0 0 0 0 2 14 73 144 163 141 116 108 103 102 103 102 98 94 107 116 116 116 121 116 103 100 96 95 96 96 96 94 89 85 80 79 77 80 80 78 93 107 92 85 85 93 101 86 80 78 108 101 96 87 83 89 91 92 93 92 90 91 93 98 97 95 101 117 126 126 125 129 125 106 105 102 103 112 139 147 122 45 2 0 0 1 1 2 2 1 0 0 0 0 0 0 0 0 0 0 0 0 0 0 0 0 0 0 0 0 0 0 0 0 0 0 0 0 0 0 
0 0 0 0 0 0 0 0 0 6 5 0 0 12 64 136 158 143 118 106 102 101 102 103 98 93 103 116 117 117 121 113 104 99 98 95 95 93 93 93 91 89 83 79 85 95 91 88 97 98 88 83 84 97 99 89 83 80 92 110 112 107 101 96 94 94 97 94 91 92 94 97 94 94 102 116 122 123 127 131 124 106 101 99 100 113 141 141 111 38 2 0 0 1 1 2 2 1 0 0 0 0 0 0 0 0 0 0 0 0 0 0 0 0 0 0 0 0 0 0 0 0 0 0 0 0 0 0 
0 0 0 0 0 0 0 0 0 3 9 3 1 9 53 128 156 142 117 106 99 100 102 103 97 91 104 118 118 116 119 114 103 98 98 96 94 92 91 93 99 98 94 87 90 94 97 91 103 92 88 83 84 95 95 91 89 85 87 117 121 121 112 101 97 93 94 97 93 90 90 93 93 93 102 118 121 122 127 132 129 108 97 98 100 113 142 135 101 34 2 0 0 1 1 2 2 1 0 0 0 0 0 0 0 0 0 0 0 0 0 0 0 0 0 0 0 0 0 0 0 0 0 0 0 0 0 0 
0 0 0 0 0 0 0 0 0 2 4 9 3 8 42 118 150 140 114 103 97 97 103 104 100 92 104 118 118 116 119 116 104 99 99 96 93 93 92 95 98 96 92 94 104 109 103 97 106 83 85 82 84 98 93 86 90 89 95 121 124 115 108 111 111 108 104 100 95 91 89 94 99 103 107 123 127 124 126 135 137 116 98 98 100 120 143 130 93 27 1 0 0 1 1 2 2 1 0 0 0 0 0 0 0 0 0 0 0 0 0 0 0 0 0 0 0 0 0 0 0 0 0 0 0 0 0 0 
0 0 0 0 0 0 0 0 0 0 3 10 4 7 32 103 144 143 114 105 101 100 102 102 101 94 106 117 118 120 125 123 116 103 100 97 93 95 100 101 102 102 102 105 99 99 95 106 108 83 82 83 83 103 93 86 86 85 90 118 133 115 106 108 114 124 137 131 125 121 124 123 126 127 133 137 126 121 128 138 139 127 104 99 108 130 143 121 86 18 1 0 1 8 5 1 2 1 0 0 0 0 0 0 0 0 0 0 0 0 0 0 0 0 0 0 0 0 0 0 0 0 0 0 0 0 0 0 
0 0 0 0 0 0 0 0 0 0 2 10 5 7 25 92 139 148 118 110 106 98 98 102 101 100 109 115 118 120 125 124 126 128 119 112 111 113 117 114 113 106 92 91 100 100 97 106 107 81 82 87 86 102 92 80 82 83 90 123 133 112 106 106 111 123 147 152 145 148 151 149 144 132 132 137 136 128 129 138 139 129 120 111 109 139 136 116 78 12 3 2 5 3 2 2 2 1 0 0 0 0 0 0 0 0 0 0 0 0 0 0 0 0 0 0 0 0 0 0 0 0 0 0 0 0 0 0 
0 0 0 0 0 0 0 0 0 0 1 9 6 8 19 82 132 153 134 112 106 96 94 101 105 113 113 117 120 121 120 121 118 122 125 128 128 120 116 112 111 104 100 100 100 96 95 104 108 88 85 92 90 105 94 80 82 88 99 129 131 115 106 108 113 127 146 150 149 154 149 143 138 127 132 129 140 144 139 137 138 133 126 128 144 142 121 114 68 9 3 2 5 2 1 2 2 1 0 0 0 0 0 0 0 0 0 0 0 0 0 0 0 0 0 0 0 0 0 0 0 0 0 0 0 0 0 0 
0 0 0 0 0 0 0 0 0 0 1 7 7 9 14 68 123 150 149 117 107 97 98 110 118 116 119 123 121 121 125 130 133 130 125 127 125 122 123 119 113 104 97 93 94 92 94 101 110 100 88 89 92 107 96 83 89 97 107 118 119 117 112 113 119 131 145 146 146 146 142 142 147 149 145 147 149 154 160 155 150 148 145 153 164 140 111 109 53 7 3 3 3 2 1 2 2 1 0 0 0 0 0 0 0 0 0 0 0 0 0 0 0 0 0 0 0 0 0 0 0 0 0 0 0 0 0 0 
0 0 0 0 0 0 0 0 0 0 0 7 8 9 13 55 115 146 154 133 114 112 117 119 126 125 126 133 129 121 133 144 149 155 154 142 140 138 128 114 103 96 96 92 88 89 96 110 111 94 94 95 89 108 95 88 90 102 108 110 116 108 114 116 120 135 152 154 155 154 152 155 155 146 134 140 141 150 162 166 171 175 170 177 179 130 121 104 32 7 4 3 2 1 1 2 2 1 0 0 0 0 0 0 0 0 0 0 0 0 0 0 0 0 0 0 0 0 0 0 0 0 0 0 0 0 0 0 
0 0 0 0 0 0 0 0 0 0 0 8 10 8 9 37 109 143 152 148 136 146 136 135 140 140 140 136 130 130 139 152 157 161 157 147 150 146 134 115 108 104 100 93 92 91 106 114 99 89 92 97 96 118 101 87 85 95 104 104 112 112 110 117 119 124 135 143 150 155 151 148 142 133 134 135 139 147 159 168 172 179 184 181 161 123 121 86 16 6 5 3 2 1 1 2 2 1 0 0 0 0 0 0 0 0 0 0 0 0 0 0 0 0 0 0 0 0 0 0 0 0 0 0 0 0 0 0 
0 0 0 0 0 0 0 0 0 0 0 5 10 7 8 12 62 129 149 149 152 170 177 160 159 155 144 138 137 140 152 158 157 155 160 152 147 146 140 118 110 109 108 101 97 95 104 111 102 91 93 101 99 114 118 95 84 89 96 105 107 105 113 116 117 119 122 133 138 136 129 133 134 129 135 143 144 146 152 160 167 169 170 166 146 121 117 94 18 6 7 4 2 2 1 2 2 0 0 0 0 0 0 0 0 0 0 0 0 0 0 0 0 0 0 0 0 0 0 0 0 0 0 0 0 0 0 0 
0 0 0 0 0 0 0 0 0 0 0 6 9 5 6 10 37 116 151 151 157 173 173 171 167 164 160 152 136 129 141 151 160 159 160 157 151 152 138 113 106 109 110 106 101 100 110 108 103 96 95 103 105 120 118 100 84 82 88 97 104 101 101 112 117 117 123 131 134 125 122 123 118 127 136 144 140 142 140 147 155 169 158 140 120 122 119 63 8 5 7 5 2 2 1 2 2 0 0 0 0 0 0 0 0 0 0 0 0 0 0 0 0 0 0 0 0 0 0 0 0 0 0 0 0 0 0 0 
0 0 0 0 0 0 0 0 0 0 0 6 6 5 5 9 22 93 146 149 150 157 159 149 165 167 161 151 141 135 131 138 147 157 159 157 150 144 130 118 109 107 111 112 101 99 112 102 98 100 100 99 93 112 120 108 85 84 93 96 103 110 109 109 103 102 117 128 131 132 131 123 125 139 147 148 143 147 140 140 147 158 136 123 126 127 110 32 6 4 6 6 2 2 1 2 2 0 0 0 0 0 0 0 0 0 0 0 0 0 0 0 0 0 0 0 0 0 0 0 0 0 0 0 0 0 0 0 
0 0 0 0 0 0 0 0 0 0 0 5 4 4 4 8 17 62 136 149 145 139 149 148 142 150 152 145 141 144 133 128 134 140 143 147 144 137 130 123 106 103 104 101 99 103 116 101 106 112 109 102 94 102 119 120 95 93 99 95 105 118 119 123 109 92 95 104 110 116 124 121 124 143 153 157 153 150 142 141 134 138 132 118 119 120 78 16 7 6 7 4 3 2 1 2 2 0 0 0 0 0 0 0 0 0 0 0 0 0 0 0 0 0 0 0 0 0 0 0 0 0 0 0 0 0 0 0 
0 0 0 0 0 0 0 0 0 0 0 4 5 4 4 8 15 34 114 137 134 133 142 147 144 138 134 132 137 149 149 132 120 123 137 143 140 132 127 108 96 93 100 106 104 108 125 110 117 118 116 110 100 100 123 124 106 101 105 106 108 122 125 127 120 96 88 88 97 106 114 127 137 140 148 157 160 155 151 147 143 139 122 101 103 113 43 11 6 6 6 2 3 3 1 2 2 0 0 0 0 0 0 0 0 0 0 0 0 0 0 0 0 0 0 0 0 0 0 0 0 0 0 0 0 0 0 0 
0 0 0 0 0 0 0 0 0 0 1 3 5 4 3 9 15 18 83 123 124 130 137 146 140 137 134 130 133 147 152 139 119 116 132 143 142 138 119 97 86 97 103 108 108 113 123 123 122 121 129 129 114 111 137 132 116 107 113 116 113 126 128 127 122 106 88 86 96 112 118 134 133 130 141 150 159 162 174 164 147 125 108 87 96 87 21 11 6 7 5 2 3 3 1 2 1 0 0 0 0 0 0 0 0 0 0 0 0 0 0 0 0 0 0 0 0 0 0 0 0 0 0 0 0 0 0 0 
0 0 0 0 0 0 0 0 0 0 1 3 4 4 2 6 13 13 48 118 131 124 137 150 149 143 140 137 142 146 149 134 118 117 119 124 122 116 107 98 91 102 103 110 120 125 126 130 133 135 142 144 148 152 153 141 138 139 132 129 129 141 141 135 127 109 93 91 104 122 116 114 126 123 134 148 161 171 180 170 137 115 96 89 103 58 13 12 7 7 6 2 2 3 1 2 1 0 0 0 0 0 0 0 0 0 0 0 0 0 0 0 0 0 0 0 0 0 0 0 0 0 0 0 0 0 0 0 
0 0 0 0 0 0 0 0 0 0 1 3 5 4 2 5 11 14 26 102 125 114 124 134 157 156 154 145 148 147 149 141 130 126 114 117 109 96 92 105 107 112 113 117 129 139 138 141 149 151 151 154 163 172 174 166 159 153 144 143 147 162 165 153 136 124 121 118 121 126 111 113 124 122 124 148 158 176 173 162 129 104 85 86 98 32 11 12 6 6 5 2 2 3 1 2 1 0 0 0 0 0 0 0 0 0 0 0 0 0 0 0 0 0 0 0 0 0 0 0 0 0 0 0 0 0 0 0 
0 0 0 0 0 0 0 0 0 0 1 3 5 3 2 5 11 13 15 69 119 119 111 121 150 163 162 154 148 145 149 147 134 130 121 119 113 104 102 109 135 133 130 130 137 147 152 150 151 143 142 146 146 147 153 156 152 145 137 139 145 161 170 167 151 145 142 137 143 119 105 106 115 119 115 142 156 177 162 147 128 115 96 101 82 19 9 9 6 5 5 2 3 3 2 2 1 0 0 0 0 0 0 0 0 0 0 0 0 0 0 0 0 0 0 0 0 0 0 0 0 0 0 0 0 0 0 0 
0 0 0 0 0 0 0 0 0 0 1 4 6 3 2 5 9 10 12 41 95 113 113 115 136 156 163 163 149 146 144 147 139 129 119 119 119 120 124 130 138 153 156 150 153 153 154 160 152 147 142 147 145 150 147 148 148 149 141 143 146 156 170 168 169 164 154 157 147 114 99 98 106 118 123 141 158 172 153 130 112 103 109 99 67 16 9 8 6 4 4 3 3 3 2 2 1 0 0 0 0 0 0 0 0 0 0 0 0 0 0 0 0 0 0 0 0 0 0 0 0 0 0 0 0 0 0 0 
0 0 0 0 0 0 0 0 0 0 1 5 13 9 3 4 8 9 11 29 82 114 122 110 120 139 159 163 154 140 139 140 135 123 110 111 113 116 122 131 139 157 168 169 164 161 162 161 153 150 149 157 159 158 153 146 149 152 139 140 142 149 159 166 170 164 156 158 147 111 89 96 111 124 144 155 161 166 149 128 98 87 98 99 59 16 8 6 6 4 3 3 4 3 2 2 1 0 0 0 0 0 0 0 0 0 0 0 0 0 0 0 0 0 0 0 0 0 0 0 0 0 0 0 0 0 0 0 
0 0 0 0 0 0 0 0 0 0 0 4 12 13 9 7 8 10 13 21 65 102 118 115 114 118 147 151 164 141 130 129 133 111 102 104 106 113 117 120 129 147 163 167 167 164 167 163 159 158 157 166 165 163 156 135 137 142 131 128 134 146 148 166 173 171 166 162 148 111 93 97 108 121 160 175 177 173 154 107 87 85 98 92 39 15 5 4 6 4 3 4 4 4 3 2 1 0 0 0 0 0 0 0 0 0 0 0 0 0 0 0 0 0 0 0 0 0 0 0 0 0 0 0 0 0 0 0 
0 0 0 0 0 0 0 0 0 0 0 3 11 11 9 8 9 12 16 16 34 86 117 116 103 114 139 153 166 150 140 132 134 112 94 100 106 109 109 110 116 142 161 162 162 160 157 154 155 156 161 172 166 163 143 118 119 128 129 125 132 150 154 165 181 177 169 162 146 118 98 99 110 135 164 166 174 160 143 97 78 79 79 64 20 14 8 5 5 5 5 6 7 4 3 2 1 0 0 0 0 0 0 0 0 0 0 0 0 0 0 0 0 0 0 0 0 0 0 0 0 0 0 0 0 0 0 0 
0 0 0 0 0 0 0 0 0 0 0 2 11 10 9 9 9 10 13 15 17 50 107 110 108 108 125 151 166 166 156 141 129 124 103 94 95 96 99 106 124 146 156 158 156 153 150 147 147 142 154 155 144 161 156 131 125 130 129 123 141 161 153 171 176 176 170 167 163 131 123 120 135 147 148 147 128 107 106 77 66 86 92 36 12 9 9 7 5 6 6 7 12 6 2 1 1 0 0 0 0 0 0 0 0 0 0 0 0 0 0 0 0 0 0 0 0 0 0 0 0 0 0 0 0 0 0 0 
0 0 0 0 0 0 0 0 0 0 0 0 9 11 6 6 6 5 9 15 20 28 71 98 93 91 113 146 154 167 166 149 134 133 120 104 103 107 113 133 139 165 178 171 171 165 161 166 171 170 169 158 160 178 181 165 155 158 158 153 162 167 179 185 175 174 168 177 171 167 147 144 142 140 115 96 90 89 93 76 94 97 53 18 10 2 2 4 5 5 5 7 9 5 1 1 1 0 0 0 0 0 0 0 0 0 0 0 0 0 0 0 0 0 0 0 0 0 0 0 0 0 0 0 0 0 0 0 
0 0 0 0 0 0 0 0 0 0 0 0 3 7 5 3 3 3 5 11 17 21 37 81 86 75 91 104 103 143 148 150 143 141 130 112 114 120 131 142 169 182 186 188 192 197 189 197 190 180 179 181 180 177 176 169 166 174 179 181 186 189 202 203 197 205 186 190 148 143 148 141 107 87 77 83 84 82 85 74 71 47 29 22 13 2 0 1 2 3 4 7 7 1 1 1 1 0 0 0 0 0 0 0 0 0 0 0 0 0 0 0 0 0 0 0 0 0 0 0 0 0 0 0 0 0 0 0 
0 0 0 0 0 0 0 0 0 0 0 0 0 3 3 2 1 0 1 7 13 20 25 45 80 83 65 55 67 76 96 109 134 136 128 125 118 131 149 167 175 173 179 181 186 193 188 185 183 171 164 170 169 165 161 159 157 159 163 168 169 189 199 182 170 186 178 171 157 139 124 105 89 78 75 89 92 89 70 48 41 39 36 26 18 0 0 1 1 1 2 7 7 1 1 1 1 0 0 0 0 0 0 0 0 0 0 0 0 0 0 0 0 0 0 0 0 0 0 0 0 0 0 0 0 0 0 0 
0 0 0 0 0 0 0 0 0 0 0 0 0 2 5 4 4 3 2 4 10 14 19 22 36 51 36 43 67 63 64 62 80 85 81 93 83 74 76 76 91 120 141 148 138 136 135 119 129 105 97 109 117 118 113 109 96 91 106 102 98 114 102 138 131 155 125 82 63 64 58 65 62 55 56 78 83 83 50 29 28 26 19 7 3 1 3 3 2 2 2 8 5 1 1 1 1 0 0 0 0 0 0 0 0 0 0 0 0 0 0 0 0 0 0 0 0 0 0 0 0 0 0 0 0 0 0 0 
0 0 0 0 0 0 0 0 0 0 0 0 0 0 3 3 3 3 2 1 6 10 13 16 22 22 23 33 67 65 61 62 63 64 62 66 69 60 67 69 82 88 83 82 90 95 82 71 77 79 60 74 90 91 90 89 73 61 74 74 83 100 87 79 77 94 91 98 106 100 65 63 62 55 56 76 84 81 47 29 28 25 16 6 3 1 2 2 2 2 3 5 2 0 1 1 1 0 0 0 0 0 0 0 0 0 0 0 0 0 0 0 0 0 0 0 0 0 0 0 0 0 0 0 0 0 0 0 
0 0 0 0 0 0 0 0 0 0 0 0 0 0 0 0 0 1 0 0 3 9 10 15 20 26 28 36 69 74 65 64 68 70 67 66 76 94 121 127 138 140 109 101 102 104 96 99 105 90 76 91 97 98 96 94 88 77 96 108 106 115 102 93 118 142 104 89 105 94 88 87 79 74 75 87 91 83 49 33 29 24 14 9 1 0 0 0 1 1 1 1 0 0 1 1 1 0 0 0 0 0 0 0 0 0 0 0 0 0 0 0 0 0 0 0 0 0 0 0 0 0 0 0 0 0 0 0 
0 0 0 0 0 0 0 0 0 0 0 0 0 0 0 0 0 0 0 0 0 4 4 8 15 29 34 44 75 88 79 74 78 85 86 89 101 119 123 142 156 169 158 135 141 160 160 159 146 124 116 124 123 121 118 123 121 114 119 139 146 152 145 150 156 162 129 131 109 125 118 111 95 86 84 85 83 78 51 37 25 17 9 8 1 0 0 0 0 0 0 0 0 0 0 1 1 0 0 0 0 0 0 0 0 0 0 0 0 0 0 0 0 0 0 0 0 0 0 0 0 0 0 0 0 0 0 0 
0 0 0 0 0 0 0 0 0 0 0 0 0 0 0 0 0 0 0 0 0 2 3 5 9 23 29 38 62 79 73 73 83 91 96 95 100 112 124 116 161 170 170 160 172 176 172 181 160 165 165 158 162 163 162 157 156 153 153 155 153 169 167 160 163 157 152 130 144 148 126 128 100 77 60 70 77 56 32 24 17 9 6 2 0 0 0 0 0 0 0 0 0 0 0 1 0 0 0 0 0 0 0 0 0 0 0 0 0 0 0 0 0 0 0 0 0 0 0 0 0 0 0 0 0 0 0 0 
0 0 0 0 0 0 0 0 0 0 0 0 0 0 0 0 0 0 0 0 0 0 2 3 8 17 28 35 53 75 76 71 74 76 75 70 78 94 105 106 127 129 120 106 126 137 154 169 162 153 144 136 140 136 139 131 136 134 133 132 139 146 128 135 136 126 134 140 150 152 114 71 50 50 60 82 80 47 25 22 13 8 6 1 0 1 1 1 1 1 1 1 1 2 3 3 2 2 0 0 0 0 0 0 0 0 0 0 0 0 0 0 0 0 0 0 0 0 0 0 0 0 0 0 0 0 0 0 
0 0 0 0 0 0 0 0 0 0 0 0 0 0 0 0 0 0 0 0 0 0 4 7 9 15 20 22 33 54 68 67 65 66 58 56 55 71 94 115 112 113 109 95 101 117 132 135 123 122 117 97 107 100 103 93 103 106 106 107 113 129 127 105 117 128 136 121 133 120 99 68 53 55 72 101 86 46 24 18 17 13 7 1 0 0 0 1 1 0 0 1 1 1 2 2 1 0 0 0 0 0 0 0 0 0 0 0 0 0 0 0 0 0 0 0 0 0 0 0 0 0 0 0 0 0 0 0 
0 0 0 0 0 0 0 0 0 0 0 0 0 0 0 0 0 0 0 0 0 0 2 6 9 13 19 21 25 45 63 75 73 69 58 51 53 66 86 101 99 100 101 103 110 124 132 131 118 114 107 88 94 93 95 90 103 111 114 109 106 115 107 93 86 106 123 127 124 107 93 67 55 59 82 108 88 49 25 19 18 12 7 1 0 0 0 1 1 0 0 1 1 1 2 2 1 0 0 0 0 0 0 0 0 0 0 0 0 0 0 0 0 0 0 0 0 0 0 0 0 0 0 0 0 0 0 0 
0 0 0 0 0 0 0 0 0 0 0 0 0 0 0 0 0 0 0 0 0 0 1 4 9 10 16 21 23 39 58 75 77 72 62 53 49 58 73 97 93 86 90 93 101 112 121 130 128 117 112 99 101 100 98 92 104 103 116 121 114 122 120 107 102 98 111 117 108 95 79 60 55 64 90 112 87 51 25 19 17 11 6 0 0 0 0 1 1 0 0 1 1 1 2 2 1 0 0 0 0 0 0 0 0 0 0 0 0 0 0 0 0 0 0 0 0 0 0 0 0 0 0 0 0 0 0 0 
0 0 0 0 0 0 0 0 0 0 0 0 0 0 0 0 0 0 0 0 0 0 0 3 6 9 13 19 22 33 49 70 78 74 67 57 52 56 59 66 72 78 87 92 99 107 113 121 136 127 118 107 106 104 97 95 100 99 108 119 122 142 132 111 103 95 99 107 110 99 80 64 59 67 95 113 82 52 26 18 15 11 4 0 0 0 0 1 1 0 0 1 1 1 2 2 1 0 0 0 0 0 0 0 0 0 0 0 0 0 0 0 0 0 0 0 0 0 0 0 0 0 0 0 0 0 0 0 
0 0 0 0 0 0 0 0 0 0 0 0 0 0 0 0 0 0 0 0 0 0 0 0 5 8 11 16 20 28 45 62 81 79 71 64 57 52 53 59 66 74 87 92 101 104 104 111 126 118 114 106 102 102 95 95 97 100 106 113 120 127 121 106 103 103 98 93 96 96 82 72 65 72 96 109 81 52 26 17 15 9 2 0 0 0 0 1 1 1 1 1 1 1 2 2 1 0 0 0 0 0 0 0 0 0 0 0 0 0 0 0 0 0 0 0 0 0 0 0 0 0 0 0 0 0 0 0 
0 0 0 0 0 0 0 0 0 0 0 0 0 0 0 0 0 0 0 0 0 0 0 0 2 5 9 13 18 25 42 54 79 77 76 71 63 56 54 58 64 70 85 98 107 103 97 95 103 108 113 105 97 98 96 93 95 101 107 106 114 111 109 103 106 108 104 87 78 74 68 69 71 81 98 105 79 45 20 16 15 8 1 0 0 0 0 0 1 1 0 1 1 1 2 2 1 0 0 0 0 0 0 0 0 0 0 0 0 0 0 0 0 0 0 0 0 0 0 0 0 0 0 0 0 0 0 0 
0 0 0 0 0 0 0 0 0 0 0 0 0 0 0 0 0 0 0 0 0 0 0 0 0 4 6 12 15 19 33 53 67 73 79 75 67 60 55 54 60 69 84 94 100 98 96 89 88 96 110 101 92 91 93 97 97 101 99 103 109 107 101 92 95 98 97 85 74 66 62 71 79 85 102 88 48 23 17 16 16 8 1 0 1 0 0 1 1 1 0 1 1 1 2 2 1 0 0 0 0 0 0 0 0 0 0 0 0 0 0 0 0 0 0 0 0 0 0 0 0 0 0 0 0 0 0 0 
0 0 0 0 0 0 0 0 0 0 0 0 0 0 0 0 0 0 0 0 0 0 0 0 0 3 4 8 14 17 21 32 41 46 72 79 70 64 58 52 56 67 78 81 91 94 94 88 86 96 112 105 96 95 98 98 99 100 100 99 102 98 93 89 91 89 85 77 74 64 61 73 82 92 99 44 18 17 18 18 16 8 1 0 0 0 0 0 1 1 0 0 1 1 2 2 0 0 0 0 0 0 0 0 0 0 0 0 0 0 0 0 0 0 0 0 0 0 0 0 0 0 0 0 0 0 0 0 
0 0 0 0 0 0 0 0 0 0 0 0 0 0 0 0 0 0 0 0 0 0 0 0 0 0 5 4 12 17 19 20 18 17 31 77 79 73 65 62 59 61 69 72 79 82 88 88 90 100 101 101 95 91 88 93 104 101 95 92 98 97 97 89 86 84 73 71 71 68 70 81 88 96 71 23 15 15 17 18 14 6 1 0 0 0 0 1 1 1 0 0 1 1 2 2 0 0 0 0 0 0 0 0 0 0 0 0 0 0 0 0 0 0 0 0 0 0 0 0 0 0 0 0 0 0 0 0 
0 0 0 0 0 0 0 0 0 0 0 0 0 0 0 0 0 0 0 0 0 0 0 0 0 0 2 5 8 13 18 18 18 18 13 38 76 80 74 69 66 66 68 73 79 78 81 88 100 104 96 97 99 96 92 92 103 104 94 90 98 100 106 97 91 83 80 79 75 75 81 88 91 78 35 19 14 15 17 17 12 6 1 0 0 0 0 0 1 1 0 0 1 1 2 1 0 0 0 0 0 0 0 0 0 0 0 0 0 0 0 0 0 0 0 0 0 0 0 0 0 0 0 0 0 0 0 0 
0 0 0 0 0 0 0 0 0 0 0 0 0 0 0 0 0 0 0 0 0 0 0 0 0 0 0 3 7 9 16 18 17 18 14 13 37 71 82 81 76 73 74 80 88 88 87 87 95 102 96 98 100 97 95 103 113 111 107 103 104 111 107 97 93 89 87 88 86 89 94 94 75 37 24 17 13 16 17 15 11 6 1 0 0 0 0 0 1 1 0 0 1 1 2 2 0 0 0 0 0 0 0 0 0 0 0 0 0 0 0 0 0 0 0 0 0 0 0 0 0 0 0 0 0 0 0 0 
0 0 0 0 0 0 0 0 0 0 0 0 0 0 0 0 0 0 0 0 0 0 0 0 0 0 0 2 5 7 12 17 18 18 14 13 17 33 63 79 83 86 86 87 99 100 91 89 89 103 102 97 98 97 96 106 110 109 110 108 101 103 105 102 97 98 101 100 96 95 91 71 36 26 23 17 14 16 16 14 10 5 1 0 1 0 0 0 1 1 0 0 1 1 2 2 0 0 0 0 0 0 0 0 0 0 0 0 0 0 0 0 0 0 0 0 0 0 0 0 0 0 0 0 0 0 0 0 
0 0 0 0 0 0 0 0 0 0 0 0 0 0 0 0 0 0 0 0 0 0 0 0 0 0 0 1 4 7 9 15 17 19 15 12 16 22 29 51 74 88 93 97 106 109 101 97 100 109 102 95 95 101 105 110 111 108 113 115 108 104 113 108 107 108 110 107 100 86 61 34 28 26 22 17 15 15 15 13 10 5 1 0 0 0 0 0 1 1 0 0 1 1 2 1 0 0 0 0 0 0 0 0 0 0 0 0 0 0 0 0 0 0 0 0 0 0 0 0 0 0 0 0 0 0 0 0 
0 0 0 0 0 0 0 0 0 0 0 0 0 0 0 0 0 0 0 0 0 0 0 0 0 0 0 0 1 7 7 13 16 18 15 12 13 20 25 29 38 61 82 93 106 112 108 106 107 108 108 102 103 104 101 103 105 108 112 114 113 106 113 116 113 109 110 103 81 50 30 29 28 24 21 16 14 14 14 12 9 5 1 0 0 0 0 0 1 1 0 0 1 1 1 1 0 0 0 0 0 0 0 0 0 0 0 0 0 0 0 0 0 0 0 0 0 0 0 0 0 0 0 0 0 0 0 0 
0 0 0 0 0 0 0 0 0 0 0 0 0 0 0 0 0 0 0 0 0 0 0 0 0 0 0 0 0 7 6 11 14 18 15 12 12 20 26 29 31 33 41 60 85 97 100 100 100 105 112 111 107 101 98 99 100 106 114 107 110 114 117 114 109 100 86 62 43 37 29 28 26 23 18 16 13 15 14 12 9 4 1 0 0 0 0 0 1 1 0 0 1 1 2 1 0 0 0 0 0 0 0 0 0 0 0 0 0 0 0 0 0 0 0 0 0 0 0 0 0 0 0 0 0 0 0 0 
0 0 0 0 0 0 0 0 0 0 0 0 0 0 0 0 0 0 0 0 0 0 0 0 0 0 0 0 0 4 6 9 13 17 16 13 12 19 25 28 31 33 32 37 50 68 81 88 90 93 104 108 104 101 103 104 104 106 115 113 114 106 106 99 90 71 53 47 41 36 28 28 26 23 17 14 15 14 14 13 9 3 1 0 0 0 0 0 0 1 0 0 1 1 1 1 0 0 0 0 0 0 0 0 0 0 0 0 0 0 0 0 0 0 0 0 0 0 0 0 0 0 0 0 0 0 0 0 
