P2
128 99
222
0 0 0 0 0 0 0 0 0 0 0 0 0 0 0 0 0 0 0 0 0 0 0 0 0 0 0 0 0 0 0 0 0 0 0 0 0 0 0 0 0 0 0 0 0 0 0 0 0 0 0 0 0 0 0 0 0 0 0 0 0 0 0 0 0 0 0 0 0 0 0 0 0 0 0 0 0 0 0 0 0 0 0 0 0 0 0 0 0 0 0 0 0 0 0 0 0 0 0 0 0 0 0 0 0 0 0 0 0 0 0 0 0 0 0 0 0 0 0 0 0 0 0 0 0 0 0 0 
0 0 0 0 0 0 0 0 0 0 0 0 0 0 0 0 0 0 0 0 0 0 0 0 0 0 0 0 0 0 0 0 0 0 0 0 0 0 0 0 0 0 0 0 0 0 0 0 0 0 0 0 0 0 0 0 0 0 0 0 0 0 0 0 0 1 0 0 0 0 0 0 0 0 0 0 0 0 0 0 0 0 0 0 0 0 0 0 0 0 0 0 0 0 0 0 0 0 0 0 0 0 0 0 0 0 0 0 0 0 0 0 0 0 0 0 0 0 0 0 0 0 0 0 0 0 0 0 
0 0 0 0 0 0 0 0 0 0 0 0 0 0 0 0 0 0 0 0 0 0 0 0 0 0 0 0 0 0 0 0 0 0 0 0 0 0 0 0 0 0 0 0 0 0 0 0 0 0 0 2 2 1 2 0 0 0 0 0 0 0 0 1 0 1 0 0 0 0 0 0 0 0 0 0 0 0 0 0 0 0 0 0 0 0 0 0 0 0 0 0 0 0 0 0 0 0 0 0 0 0 0 0 0 0 0 0 0 0 0 0 0 0 0 0 0 0 0 0 0 0 0 0 0 0 0 0 
0 0 0 0 0 0 0 0 0 0 0 0 0 0 0 0 0 0 0 0 0 0 0 0 0 0 0 0 0 0 0 0 0 0 0 0 0 0 0 0 0 0 0 0 6 13 14 20 22 23 25 29 31 30 27 20 16 16 17 13 4 0 1 1 1 0 0 0 0 0 0 0 0 0 0 0 0 0 0 0 0 0 0 0 0 0 0 0 0 0 0 0 0 0 0 0 0 0 0 0 0 0 0 0 0 0 0 0 0 0 0 0 0 0 0 0 0 0 0 0 0 0 0 0 0 0 0 0 
0 0 0 0 0 0 0 0 0 0 0 0 0 0 0 0 0 0 0 0 0 0 0 0 0 0 0 0 0 0 0 0 0 0 0 0 0 0 0 0 6 13 18 27 25 31 53 76 97 115 130 139 144 145 141 130 117 99 78 55 31 21 18 8 2 1 0 0 0 0 0 0 0 0 0 0 0 0 0 0 0 0 0 0 0 0 0 0 0 0 0 0 0 0 0 0 0 0 0 0 0 0 0 0 0 0 0 0 0 0 0 0 0 0 0 0 0 0 0 0 0 0 0 0 0 0 0 0 
0 0 0 0 0 0 0 0 0 0 0 0 0 0 0 0 0 0 0 0 0 0 0 0 0 0 0 0 0 0 0 0 0 0 0 0 0 2 10 16 22 26 36 63 103 138 155 163 168 169 169 167 165 167 169 169 167 162 158 151 137 112 77 40 22 18 9 2 0 0 0 0 0 0 0 0 0 0 0 0 0 0 0 0 0 0 0 0 0 0 0 0 0 0 0 0 0 0 0 0 0 0 0 0 0 0 0 0 0 0 0 0 0 0 0 0 0 0 0 0 0 0 0 0 0 0 0 0 
0 0 0 0 0 0 0 0 0 0 0 0 0 0 0 0 0 0 0 0 0 0 0 0 0 0 0 0 0 0 0 0 0 0 0 2 11 20 22 28 49 95 136 162 173 169 167 172 173 173 176 178 180 182 184 182 177 172 170 171 170 163 155 142 115 74 37 19 12 1 0 0 0 0 0 0 0 0 0 0 0 0 0 0 0 0 0 0 0 0 0 0 0 0 0 0 0 0 0 0 0 0 0 0 0 0 0 0 0 0 0 0 0 0 0 0 0 0 0 0 0 0 0 0 0 0 0 0 
0 0 0 0 0 0 0 0 0 0 0 0 0 0 0 0 0 0 0 0 0 0 0 0 0 0 0 0 0 0 0 0 0 0 10 22 27 27 61 112 150 169 169 165 169 173 174 177 178 183 188 190 187 177 177 188 199 203 197 185 178 174 172 172 163 156 138 96 47 23 14 1 0 0 0 0 0 0 0 0 0 0 0 0 0 0 0 0 0 0 0 0 0 0 0 0 0 0 0 0 0 0 0 0 0 0 0 0 0 0 0 0 0 0 0 0 0 0 0 0 0 0 0 0 0 0 0 0 
0 0 0 0 0 0 0 0 0 0 0 0 0 0 0 0 0 0 0 0 0 0 0 0 0 0 0 0 0 0 0 0 5 26 27 25 58 116 156 169 166 166 175 180 186 189 186 172 155 145 140 139 137 132 133 138 150 171 187 196 202 201 191 180 173 173 171 161 145 98 40 20 9 0 0 0 0 0 0 0 0 0 0 0 0 0 0 0 0 0 0 0 0 0 0 0 0 0 0 0 0 0 0 0 0 0 0 0 0 0 0 0 0 0 0 0 0 0 0 0 0 0 0 0 0 0 0 0 
0 0 0 0 0 0 0 0 0 0 0 0 0 0 0 0 0 0 0 0 0 0 0 0 0 0 0 0 0 0 0 23 23 21 40 105 154 170 165 167 175 183 187 189 177 154 134 128 131 129 131 142 143 140 140 133 134 143 150 165 182 189 196 202 199 184 175 174 171 161 139 77 28 19 2 0 0 0 0 0 0 0 0 0 0 0 0 0 0 0 0 0 0 0 0 0 0 0 0 0 0 0 0 0 0 0 0 0 0 0 0 0 0 0 0 0 0 0 0 0 0 0 0 0 0 0 0 0 
0 0 0 0 0 0 0 0 0 0 0 0 0 0 0 0 0 0 0 0 0 0 0 0 0 0 0 0 0 10 26 18 28 84 144 169 167 166 178 187 196 192 168 155 138 121 120 126 136 146 129 125 128 136 154 158 153 144 148 152 156 174 182 184 190 198 199 188 177 173 169 157 113 42 23 6 0 0 0 0 0 0 0 0 0 0 0 0 0 0 0 0 0 0 0 0 0 0 0 0 0 0 0 0 0 0 0 0 0 0 0 0 0 0 0 0 0 0 0 0 0 0 0 0 0 0 0 0 
0 0 0 0 0 0 0 0 0 0 0 0 0 0 0 0 0 0 0 0 0 0 0 0 0 0 0 0 20 22 24 52 123 161 169 167 179 186 198 195 166 150 152 152 143 144 138 126 127 123 126 137 135 120 118 128 123 125 130 135 142 152 174 183 184 185 187 195 202 189 176 176 165 139 63 25 11 0 0 0 0 0 0 0 0 0 0 0 0 0 0 0 0 0 0 0 0 0 0 0 0 0 0 0 0 0 0 0 0 0 0 0 0 0 0 0 0 0 0 0 0 0 0 0 0 0 0 0 
0 0 0 0 0 0 0 0 0 0 0 0 0 0 0 0 0 0 0 0 0 0 0 0 0 0 5 24 22 22 76 144 164 170 178 186 196 196 169 153 162 162 147 140 135 130 124 122 123 106 102 100 99 98 104 121 120 116 118 120 130 148 164 168 177 184 187 185 186 195 198 181 174 166 148 81 24 13 0 0 0 0 0 0 0 0 0 0 0 0 0 0 0 0 0 0 0 0 0 0 0 0 0 0 0 0 0 0 0 0 0 0 0 0 0 0 0 0 0 0 0 0 0 0 0 0 0 0 
0 0 0 0 0 0 0 0 0 0 0 0 0 0 0 0 0 0 0 0 0 0 0 0 0 12 23 20 28 96 152 166 173 181 191 203 186 158 159 164 150 138 135 130 121 119 127 128 122 125 120 122 124 132 140 146 156 155 148 140 132 126 134 158 164 168 177 185 185 182 188 200 186 169 165 154 89 27 14 0 0 0 0 0 0 0 0 0 0 0 0 0 0 0 0 0 0 0 0 0 0 0 0 0 0 0 0 0 0 0 0 0 0 0 0 0 0 0 0 0 0 0 0 0 0 0 0 0 
0 0 0 0 0 0 0 0 0 0 0 0 0 0 0 0 0 0 0 0 0 0 0 0 14 20 17 35 112 154 166 178 182 194 199 174 159 169 159 135 130 129 125 125 132 141 151 152 148 136 131 130 131 133 139 142 151 164 168 164 163 162 152 147 148 155 160 163 175 182 180 180 198 195 172 168 158 99 30 13 0 0 0 0 0 0 0 0 0 0 0 0 0 0 0 0 0 0 0 0 0 0 0 0 0 0 0 0 0 0 0 0 0 0 0 0 0 0 0 0 0 0 0 0 0 0 0 0 
0 0 0 0 0 0 0 0 0 0 0 0 0 0 0 0 0 0 0 0 0 0 4 18 19 16 45 120 149 166 180 184 198 189 162 161 166 143 129 128 138 154 167 164 156 149 138 129 124 118 123 132 132 129 128 127 129 136 147 161 166 164 162 162 168 163 157 154 155 162 177 177 176 195 200 173 166 161 110 35 12 0 0 0 0 0 0 0 0 0 0 0 0 0 0 0 0 0 0 0 0 0 0 0 0 0 0 0 0 0 0 0 0 0 0 0 0 0 0 0 0 0 0 0 0 0 0 0 
0 0 0 0 0 0 0 0 0 0 0 0 0 0 0 0 0 0 0 0 0 6 18 15 18 58 130 148 167 178 183 199 179 153 157 153 131 124 140 168 186 174 149 144 139 125 121 116 118 114 113 114 115 110 108 108 107 109 111 115 128 139 155 163 158 157 165 158 152 152 153 166 176 177 195 199 167 164 162 118 39 10 0 0 0 0 0 0 0 0 0 0 0 0 0 0 0 0 0 0 0 0 0 0 0 0 0 0 0 0 0 0 0 0 0 0 0 0 0 0 0 0 0 0 0 0 0 0 
0 0 0 0 0 0 0 0 0 0 0 0 0 0 0 0 0 0 0 0 6 15 13 23 69 137 153 172 179 186 201 170 141 151 143 125 124 153 183 170 147 137 124 118 114 111 109 112 117 119 118 108 108 114 112 115 110 111 106 108 110 113 118 135 151 157 149 149 155 145 144 148 156 167 171 195 198 166 163 165 120 37 6 0 0 0 0 0 0 0 0 0 0 0 0 0 0 0 0 0 0 0 0 0 0 0 0 0 0 0 0 0 0 0 0 0 0 0 0 0 0 0 0 0 0 0 0 0 
0 0 0 0 0 0 0 0 0 0 0 0 0 0 0 0 0 0 0 5 15 11 22 78 138 150 175 177 186 198 160 132 146 136 125 137 167 178 157 132 116 109 106 110 114 115 117 118 120 122 125 99 104 122 120 120 120 117 110 108 104 105 108 110 116 130 145 153 153 154 132 139 147 154 157 169 196 197 169 163 162 114 30 3 0 0 0 0 0 0 0 0 0 0 0 0 0 0 0 0 0 0 0 0 0 0 0 0 0 0 0 0 0 0 0 0 0 0 0 0 0 0 0 0 0 0 0 0 
0 0 0 0 0 0 0 0 0 0 0 0 0 0 0 0 0 0 5 14 12 23 79 142 148 177 173 181 193 155 131 145 135 131 143 159 163 138 117 98 101 109 114 120 120 120 119 121 126 133 127 108 117 136 132 131 129 126 123 122 120 112 105 103 103 105 119 138 154 160 150 126 135 145 153 153 166 198 193 169 161 157 101 20 1 0 0 0 0 0 0 0 0 0 0 0 0 0 0 0 0 0 0 0 0 0 0 0 0 0 0 0 0 0 0 0 0 0 0 0 0 0 0 0 0 0 0 0 
0 0 0 0 0 0 0 0 0 0 0 0 0 0 0 0 0 2 13 13 22 74 140 142 174 172 179 188 156 128 143 134 133 144 154 156 130 109 100 105 107 110 119 124 125 129 135 136 132 110 111 119 122 128 129 130 132 135 134 139 140 126 113 100 93 94 103 120 140 157 162 141 119 131 148 153 143 163 198 185 165 163 144 78 9 0 0 0 0 0 0 0 0 0 0 0 0 0 0 0 0 0 0 0 0 0 0 0 0 0 0 0 0 0 0 0 0 0 0 0 0 0 0 0 0 0 0 0 
0 0 0 0 0 0 0 0 0 0 0 0 0 0 0 0 0 11 9 18 65 131 140 164 168 176 182 158 125 140 138 137 140 145 149 120 107 104 105 109 109 118 126 129 127 119 110 109 96 79 83 95 94 86 87 97 109 117 120 125 129 124 117 108 94 87 99 104 118 142 157 154 112 104 131 148 152 133 173 193 179 162 156 127 48 3 0 0 0 0 0 0 0 0 0 0 0 0 0 0 0 0 0 0 0 0 0 0 0 0 0 0 0 0 0 0 0 0 0 0 0 0 0 0 0 0 0 0 
0 0 0 0 0 0 0 0 0 0 0 0 0 0 0 0 5 8 18 53 120 136 160 168 173 179 162 121 137 142 142 131 133 147 124 109 104 108 114 115 111 108 110 105 95 87 84 83 79 74 75 79 81 82 86 85 89 90 92 95 110 122 129 124 111 93 87 104 102 119 142 162 149 95 103 128 154 147 131 188 187 179 162 146 110 22 0 0 0 0 0 0 0 0 0 0 0 0 0 0 0 0 0 0 0 0 0 0 0 0 0 0 0 0 0 0 0 0 0 0 0 0 0 0 0 0 0 0 
0 0 0 0 0 0 0 0 0 0 0 0 0 0 0 2 11 12 42 113 136 152 163 169 179 158 125 132 143 143 125 128 149 129 116 109 114 119 112 110 105 98 95 92 88 85 87 86 82 78 79 87 93 93 97 96 98 99 100 99 103 108 118 128 125 108 93 92 104 106 122 145 162 134 90 100 130 154 136 150 184 185 171 157 135 74 5 0 0 0 0 0 0 0 0 0 0 0 0 0 0 0 0 0 0 0 0 0 0 0 0 0 0 0 0 0 0 0 0 0 0 0 0 0 0 0 0 0 
0 0 0 0 0 0 0 0 0 0 0 0 0 0 0 9 8 31 93 128 144 157 166 174 159 141 127 137 145 129 121 143 133 114 112 113 115 110 110 105 101 101 103 102 99 97 97 99 97 93 93 97 99 95 96 98 100 102 101 103 104 104 111 120 130 124 105 91 93 99 97 125 151 160 119 92 109 138 149 136 166 173 177 166 142 112 31 0 0 0 0 0 0 0 0 0 0 0 0 0 0 0 0 0 0 0 0 0 0 0 0 0 0 0 0 0 0 0 0 0 0 0 0 0 0 0 0 0 
0 0 0 0 0 0 0 0 0 0 0 0 0 0 3 9 13 72 115 135 155 166 168 156 140 130 126 142 136 116 136 142 118 114 115 118 116 106 103 105 105 104 104 103 103 101 101 98 98 98 98 99 97 100 98 96 98 101 102 101 98 102 102 108 117 129 123 103 89 91 95 109 136 157 158 107 100 113 141 138 155 157 173 173 148 131 71 4 0 0 0 0 0 0 0 0 0 0 0 0 0 0 0 0 0 0 0 0 0 0 0 0 0 0 0 0 0 0 0 0 0 0 0 0 0 0 0 0 
0 0 0 0 0 0 0 0 0 0 0 0 0 0 6 5 46 102 124 146 159 169 152 142 139 114 126 141 125 131 147 122 116 111 119 116 105 99 106 105 103 99 97 96 97 93 96 94 94 97 97 99 98 99 94 98 96 96 96 91 86 91 97 101 104 115 129 118 98 89 89 99 118 136 164 151 108 100 121 129 150 140 160 176 157 136 98 19 0 0 0 0 0 0 0 0 0 0 0 0 0 0 0 0 0 0 0 0 0 0 0 0 0 0 0 0 0 0 0 0 0 0 0 0 0 0 0 0 
0 0 0 0 0 0 0 0 0 0 0 0 0 1 6 16 83 109 138 152 161 155 148 131 131 107 139 134 120 145 129 114 115 120 118 101 94 101 101 98 94 89 90 91 85 85 84 84 87 87 96 97 95 98 85 88 93 90 90 78 76 77 82 93 101 103 119 133 120 101 89 86 104 114 148 172 131 103 111 110 147 141 152 171 166 140 119 37 1 0 0 0 0 0 0 0 0 0 0 0 0 0 0 0 0 0 0 0 0 0 0 0 0 0 0 0 0 0 0 0 0 0 0 0 0 0 0 0 
0 0 0 0 0 0 0 0 0 0 0 0 0 2 5 38 102 122 148 155 161 146 140 129 115 120 144 121 131 140 113 115 123 125 104 90 99 99 88 91 92 85 79 77 75 76 75 79 80 80 82 91 92 90 80 78 80 80 78 74 75 77 75 81 95 99 103 127 137 114 96 89 102 103 123 167 158 111 105 102 127 153 144 164 173 141 129 56 2 0 0 0 0 0 0 0 0 0 0 0 0 0 0 0 0 0 0 0 0 0 0 0 0 0 0 0 0 0 0 0 0 0 0 0 0 0 0 0 
0 0 0 0 0 0 0 0 0 0 0 0 0 5 6 65 109 134 149 154 151 143 133 121 111 136 133 111 128 126 109 121 133 114 91 95 101 93 90 90 92 88 79 76 71 73 79 82 87 89 95 101 106 107 101 98 92 87 83 78 77 77 76 78 85 92 94 108 134 133 110 98 105 99 108 147 165 115 99 101 109 159 141 153 174 141 136 76 5 0 0 0 0 0 0 0 0 0 0 0 0 0 0 0 0 0 0 0 0 0 0 0 0 0 0 0 0 0 0 0 0 0 0 0 0 0 0 0 
0 0 0 0 0 0 0 0 0 0 0 0 0 6 15 88 112 146 147 148 142 139 117 113 117 133 114 103 123 118 115 136 132 104 98 102 98 90 88 90 93 93 90 79 78 89 103 114 122 127 129 133 137 137 133 128 126 127 123 114 100 88 80 79 81 89 94 93 110 135 129 107 110 106 102 127 152 119 102 99 101 153 143 151 175 147 136 94 12 0 0 0 0 0 0 0 0 0 0 0 0 0 0 0 0 0 0 0 0 0 0 0 0 0 0 0 0 0 0 0 0 0 0 0 0 0 0 0 
0 0 0 0 0 0 0 0 0 0 0 0 2 5 34 102 123 150 146 133 137 130 113 123 123 118 102 102 128 122 126 139 121 103 100 98 93 89 92 93 95 93 94 104 115 130 138 138 134 123 111 116 128 114 95 90 91 104 123 139 142 128 105 86 83 90 94 88 94 119 135 124 108 109 101 110 138 122 100 98 97 147 150 148 173 156 138 110 18 0 0 0 0 0 0 0 0 0 0 0 0 0 0 0 0 0 0 0 0 0 0 0 0 0 0 0 0 0 0 0 0 0 0 0 0 0 0 0 
0 0 0 0 0 0 0 0 0 0 0 0 3 6 52 107 131 148 141 130 135 121 117 130 119 112 91 106 134 128 131 128 110 101 94 92 94 92 89 91 94 96 109 132 141 135 125 112 102 85 76 96 97 76 71 68 67 73 79 122 147 153 141 116 101 90 77 82 88 99 127 135 118 113 103 98 123 120 103 98 93 141 150 143 171 161 138 123 25 0 0 0 0 0 0 0 0 0 0 0 0 0 0 0 0 0 0 0 0 0 0 0 0 0 0 0 0 0 0 0 0 0 0 0 0 0 0 0 
0 0 0 0 0 0 0 0 0 0 0 0 3 7 64 107 142 144 138 131 133 116 117 132 111 102 93 108 139 136 137 121 107 98 88 86 90 90 92 91 99 112 126 141 146 129 107 88 74 68 72 86 73 69 64 61 63 68 76 91 118 140 142 122 96 82 78 74 83 91 112 134 127 122 108 97 106 115 109 98 95 136 150 146 168 169 142 127 34 1 0 0 0 0 0 0 0 0 0 0 0 0 0 0 0 0 0 0 0 0 0 0 0 0 0 0 0 0 0 0 0 0 0 0 0 0 0 0 
0 0 0 0 0 0 0 0 0 0 0 0 2 7 70 112 150 138 137 137 130 109 122 139 113 97 96 105 140 145 131 114 102 89 82 83 86 91 95 99 105 116 120 134 137 128 105 75 69 62 66 72 65 65 59 58 60 64 71 87 81 124 136 128 101 84 79 73 87 94 100 121 131 138 131 102 97 105 117 92 100 141 153 149 164 178 148 132 44 2 0 0 0 0 0 0 0 0 0 0 0 0 0 0 0 0 0 0 0 0 0 0 0 0 0 0 0 0 0 0 0 0 0 0 0 0 0 0 
0 0 0 0 0 0 0 0 0 0 0 0 4 8 76 117 151 141 135 143 127 109 128 142 109 96 99 101 140 146 126 106 91 82 82 86 84 86 93 105 111 107 116 129 123 114 106 86 72 64 66 66 66 66 61 64 65 63 70 83 73 120 130 134 121 94 88 81 78 83 96 112 127 142 146 122 94 100 113 87 103 136 151 146 161 181 153 137 56 3 0 0 0 0 0 0 0 0 0 0 0 0 0 0 0 0 0 0 0 0 0 0 0 0 0 0 0 0 0 0 0 0 0 0 0 0 0 0 
0 0 0 0 0 0 0 0 0 0 0 0 4 12 79 124 149 149 139 150 119 113 137 141 104 94 101 101 137 145 126 101 86 86 86 78 75 80 91 99 97 92 106 121 121 107 92 88 76 69 70 68 73 69 66 78 79 71 74 72 70 118 128 127 114 100 85 83 82 80 82 98 136 145 144 136 107 101 115 95 111 136 153 149 156 186 156 142 77 5 0 0 0 0 0 0 0 0 0 0 0 0 0 0 0 0 0 0 0 0 0 0 0 0 0 0 0 0 0 0 0 0 0 0 0 0 0 0 
0 0 0 0 0 0 0 0 0 0 0 0 4 15 81 130 146 152 139 151 121 122 142 143 108 102 98 99 133 147 123 94 92 87 73 77 80 77 75 77 77 60 58 66 84 104 109 77 69 72 77 72 72 70 73 70 67 71 68 56 88 117 109 103 106 102 102 102 96 102 110 119 136 134 137 135 124 109 119 111 126 131 146 138 146 182 158 141 90 7 0 0 0 0 0 0 0 0 0 0 0 0 0 0 0 0 0 0 0 0 0 0 0 0 0 0 0 0 0 0 0 0 0 0 0 0 0 0 
0 0 0 0 0 0 0 0 0 0 0 0 6 18 87 136 148 151 140 149 120 120 146 144 118 111 102 101 128 143 120 102 92 77 89 108 110 99 97 103 99 81 65 58 58 64 91 109 61 57 57 70 68 66 71 58 58 59 59 74 93 85 90 92 91 92 90 83 80 89 94 109 129 123 120 139 130 130 131 130 128 122 141 134 139 178 159 143 99 10 0 0 0 0 0 0 0 0 0 0 0 0 0 0 0 0 0 0 0 0 0 0 0 0 0 0 0 0 0 0 0 0 0 0 0 0 0 0 
0 0 0 0 0 0 0 0 0 0 0 0 6 19 89 140 145 148 137 148 121 114 148 138 126 108 114 114 126 140 124 112 85 94 112 104 96 89 85 80 80 80 77 78 72 61 67 100 95 62 62 66 70 71 68 59 57 59 77 109 85 80 70 74 78 82 81 77 74 79 83 94 122 132 123 133 142 142 145 133 116 116 134 132 132 181 164 147 109 16 0 0 0 0 0 0 0 0 0 0 0 0 0 0 0 0 0 0 0 0 0 0 0 0 0 0 0 0 0 0 0 0 0 0 0 0 0 0 
0 0 0 0 0 0 0 0 0 0 0 0 8 18 89 141 148 149 129 150 120 112 145 123 125 110 115 131 136 126 125 111 105 106 89 77 77 72 67 65 62 62 60 59 76 74 74 92 118 109 106 87 84 88 94 67 59 63 96 106 81 59 65 77 83 87 91 88 85 86 89 91 112 135 142 129 134 147 151 127 108 109 127 128 127 178 165 149 117 23 0 0 0 0 0 0 0 0 0 0 0 0 0 0 0 0 0 0 0 0 0 0 0 0 0 0 0 0 0 0 0 0 0 0 0 0 0 0 
0 0 0 0 0 0 0 0 0 0 0 0 9 19 92 142 151 144 122 148 113 111 138 113 125 118 114 139 137 121 122 113 113 96 81 77 78 71 64 63 62 65 65 60 63 88 94 102 128 137 132 119 120 115 115 89 87 105 115 93 65 58 65 79 92 95 91 88 88 87 87 89 105 134 144 124 114 140 150 129 103 104 125 119 119 171 162 149 122 33 2 0 0 0 0 0 0 0 0 0 0 0 0 0 0 0 0 0 0 0 0 0 0 0 0 0 0 0 0 0 0 0 0 0 0 0 0 0 
0 0 0 0 0 0 0 0 0 0 0 0 9 18 95 139 154 145 122 148 110 112 129 113 117 118 112 132 133 115 107 103 116 98 80 81 89 81 72 71 72 69 66 67 73 91 111 116 129 147 133 119 125 129 127 105 106 119 117 75 59 59 73 85 90 91 92 87 89 90 94 91 103 130 144 127 96 124 146 136 103 97 121 105 108 158 155 146 125 43 2 0 0 0 0 0 0 0 0 0 0 0 0 0 0 0 0 0 0 0 0 0 0 0 0 0 0 0 0 0 0 0 0 0 0 0 0 0 
0 0 0 0 0 0 0 0 0 0 0 0 8 17 100 139 156 141 118 140 110 107 123 101 106 117 110 123 129 114 103 100 107 103 86 84 85 74 66 66 70 72 72 80 87 97 105 116 132 145 130 105 115 120 113 113 119 133 108 66 63 70 71 73 79 83 88 88 89 91 92 93 103 125 142 124 91 109 140 127 94 93 122 104 98 148 159 145 127 51 2 0 0 0 0 0 0 0 0 0 0 0 0 0 0 0 0 0 0 0 0 0 0 0 0 0 0 0 0 0 0 0 0 0 0 0 0 0 
0 0 0 0 0 0 0 0 0 0 0 0 9 15 101 139 157 138 108 131 102 97 120 92 98 113 117 124 134 116 101 99 103 100 81 83 86 76 70 65 58 63 72 90 101 100 99 99 108 131 122 108 108 103 107 111 91 116 96 69 70 62 62 71 79 81 86 87 87 90 93 97 99 114 134 122 89 104 132 118 99 92 114 101 92 131 152 143 130 58 2 0 0 0 0 0 0 0 0 0 0 0 0 0 0 0 0 0 0 0 0 0 0 0 0 0 0 0 0 0 0 0 0 0 0 0 0 0 
0 0 0 0 0 0 0 0 0 0 0 0 8 16 98 139 157 135 115 132 89 89 111 91 99 116 112 113 133 118 103 100 105 96 85 80 80 76 69 63 56 58 70 87 102 110 106 97 103 129 118 123 121 121 130 114 100 110 96 71 69 72 74 69 76 78 84 88 88 87 89 93 99 114 136 121 88 97 127 118 120 98 115 100 97 123 132 135 131 59 2 0 0 0 0 0 0 0 0 0 0 0 0 0 0 0 0 0 0 0 0 0 0 0 0 0 0 0 0 0 0 0 0 0 0 0 0 0 
0 0 0 0 0 0 0 0 0 0 0 0 8 15 92 139 154 131 122 130 82 88 107 95 102 111 97 106 129 117 108 96 110 94 81 82 86 78 69 64 53 59 72 92 100 104 104 91 91 108 112 123 106 102 111 93 93 109 74 81 86 90 75 71 75 79 85 88 86 85 89 93 100 120 137 117 90 106 133 115 126 106 110 99 102 117 127 134 136 59 2 0 0 0 0 0 0 0 0 0 0 0 0 0 0 0 0 0 0 0 0 0 0 0 0 0 0 0 0 0 0 0 0 0 0 0 0 0 
0 0 0 0 0 0 0 0 0 0 0 0 6 14 87 140 153 129 121 113 82 88 106 99 106 113 93 102 120 117 113 93 105 97 78 80 87 81 72 70 58 59 74 103 117 111 103 90 85 85 105 114 95 88 107 106 99 116 61 73 68 69 66 74 76 80 84 87 90 92 91 89 100 126 136 118 101 126 132 106 126 114 109 96 104 108 129 138 133 54 1 0 0 0 0 0 0 0 0 0 0 0 0 0 0 0 0 0 0 0 0 0 0 0 0 0 0 0 0 0 0 0 0 0 0 0 0 0 
0 0 0 0 0 0 0 0 0 0 0 0 7 13 79 141 152 131 118 111 88 83 99 103 109 117 95 99 108 111 117 99 93 112 86 73 82 84 78 69 60 60 75 102 108 105 107 89 89 96 103 91 88 89 99 95 91 103 80 69 67 62 66 74 78 78 82 88 93 94 94 79 97 127 131 116 122 136 126 101 122 122 107 95 103 109 132 137 125 47 1 0 0 0 0 0 0 0 0 0 0 0 0 0 0 0 0 0 0 0 0 0 0 0 0 0 0 0 0 0 0 0 0 0 0 0 0 0 
0 0 0 0 0 0 0 0 0 0 0 0 5 15 67 135 152 133 122 113 97 84 94 106 110 118 95 103 110 102 114 104 88 110 100 85 89 84 76 67 62 64 82 96 101 100 97 94 95 98 103 93 91 93 103 99 92 84 91 64 61 58 67 74 77 78 87 90 91 94 91 73 91 127 121 112 125 141 126 99 118 125 103 96 99 107 130 132 118 40 1 0 0 0 0 0 0 0 0 0 0 0 0 0 0 0 0 0 0 0 0 0 0 0 0 0 0 0 0 0 0 0 0 0 0 0 0 0 
0 0 0 0 0 0 0 0 0 0 0 0 3 15 60 132 151 136 121 111 103 85 87 105 109 119 97 103 113 91 110 106 84 90 101 90 86 80 72 66 67 71 88 100 100 103 98 93 93 107 98 99 97 102 109 101 96 85 92 70 70 68 65 68 76 83 84 85 87 92 88 68 92 121 106 107 126 142 127 97 110 121 103 95 93 113 127 124 106 33 1 0 0 0 0 0 0 0 0 0 0 0 0 0 0 0 0 0 0 0 0 0 0 0 0 0 0 0 0 0 0 0 0 0 0 0 0 0 
0 0 0 0 0 0 0 0 0 4 5 0 0 12 52 125 148 139 120 106 105 85 84 97 106 120 97 103 110 84 103 104 90 85 96 95 83 77 70 69 78 83 91 97 107 115 107 91 101 103 103 101 100 110 112 99 95 91 82 90 72 67 68 74 78 81 79 77 83 87 81 69 98 107 95 108 131 130 125 105 102 119 99 92 91 118 121 125 98 30 0 0 0 0 0 0 0 0 0 0 0 0 0 0 0 0 0 0 0 0 0 0 0 0 0 0 0 0 0 0 0 0 0 0 0 0 0 0 
0 0 0 0 0 0 0 0 0 8 11 4 0 10 44 118 139 131 116 107 105 86 83 90 97 115 112 110 114 92 103 105 84 81 81 100 90 77 69 69 80 87 89 95 107 105 98 107 113 103 112 99 99 112 110 104 98 86 81 105 87 85 77 74 78 73 79 84 83 84 72 72 100 101 96 122 129 104 117 113 102 113 94 89 93 112 120 127 88 28 0 0 0 0 0 0 0 0 0 0 0 0 0 0 0 0 0 0 0 0 0 0 0 0 0 0 0 0 0 0 0 0 0 0 0 0 0 0 
0 0 0 0 0 0 0 0 0 7 0 5 4 8 36 108 135 131 108 109 103 86 82 83 92 113 117 117 114 105 104 99 80 75 75 79 82 69 67 65 73 82 90 107 113 111 121 122 110 97 112 99 98 110 107 90 95 82 87 109 104 85 92 98 89 81 81 81 82 84 68 67 96 114 114 132 110 96 115 117 127 135 90 93 98 106 118 129 78 24 0 0 0 0 0 0 0 0 0 0 0 0 0 0 0 0 0 0 0 0 0 0 0 0 0 0 0 0 0 0 0 0 0 0 0 0 0 0 
0 0 0 0 0 0 0 0 0 0 0 3 6 6 28 94 133 130 105 100 106 97 81 83 85 107 120 128 118 108 98 107 106 81 74 72 73 73 64 62 73 75 90 111 91 88 88 114 104 97 95 93 92 106 94 77 77 67 72 94 105 87 87 83 98 105 122 123 117 108 105 113 144 159 161 143 102 110 117 119 127 141 102 111 92 115 126 125 66 16 0 0 2 9 1 0 0 0 0 0 0 0 0 0 0 0 0 0 0 0 0 0 0 0 0 0 0 0 0 0 0 0 0 0 0 0 0 0 
0 0 0 0 0 0 0 0 0 0 0 3 4 7 21 81 129 129 108 103 114 105 83 85 79 93 121 133 128 108 103 132 138 129 109 89 80 100 96 89 91 85 75 96 95 86 72 99 108 80 88 93 84 90 82 59 62 59 67 94 109 80 74 78 86 95 116 122 133 144 153 164 169 158 178 161 128 128 108 120 123 134 138 114 82 128 131 122 61 14 6 2 2 2 4 0 0 0 0 0 0 0 0 0 0 0 0 0 0 0 0 0 0 0 0 0 0 0 0 0 0 0 0 0 0 0 0 0 
0 0 0 0 0 0 0 0 0 0 0 8 3 7 18 71 128 130 116 106 112 106 87 87 102 92 119 132 137 121 117 133 124 115 110 113 120 118 98 98 92 92 86 77 80 69 67 82 87 71 77 95 83 94 81 62 54 56 71 111 94 86 95 99 100 100 113 126 133 143 133 145 150 160 182 173 153 143 105 119 126 134 165 108 124 133 119 111 52 11 1 0 2 0 0 0 0 0 0 0 0 0 0 0 0 0 0 0 0 0 0 0 0 0 0 0 0 0 0 0 0 0 0 0 0 0 0 0 
0 0 0 0 0 0 0 0 0 0 0 9 6 9 14 59 121 131 127 108 111 109 98 108 132 86 113 140 133 130 141 163 158 132 109 110 114 110 102 82 76 64 54 56 77 72 57 64 73 81 77 88 84 94 80 66 75 82 106 125 83 85 88 93 92 89 107 113 105 97 127 153 158 176 174 163 155 151 141 152 151 138 166 132 159 132 113 95 41 8 0 0 2 0 0 0 0 0 0 0 0 0 0 0 0 0 0 0 0 0 0 0 0 0 0 0 0 0 0 0 0 0 0 0 0 0 0 0 
0 0 0 0 0 0 0 0 0 0 0 10 8 11 11 48 118 125 134 114 118 129 109 129 131 88 101 147 135 118 150 169 151 144 139 124 129 140 120 95 70 61 62 60 66 81 65 81 98 103 116 85 74 88 96 103 92 91 85 88 87 83 101 105 111 114 127 124 116 122 162 183 171 152 132 142 157 157 146 159 172 161 150 153 166 99 105 99 25 7 1 0 2 0 0 0 0 0 0 0 0 0 0 0 0 0 0 0 0 0 0 0 0 0 0 0 0 0 0 0 0 0 0 0 0 0 0 0 
0 0 0 0 0 0 0 0 0 0 1 11 12 12 12 38 116 124 137 126 131 149 113 146 156 108 120 152 151 136 155 174 153 144 167 160 155 140 123 102 95 84 78 68 72 78 86 103 104 101 103 97 91 113 106 94 81 92 91 85 99 90 95 112 128 125 118 110 112 132 165 166 153 139 121 134 141 148 156 164 180 180 180 187 154 99 122 83 11 7 2 2 2 0 0 0 0 0 0 0 0 0 0 0 0 0 0 0 0 0 0 0 0 0 0 0 0 0 0 0 0 0 0 0 0 0 0 0 
0 0 0 0 0 0 0 0 0 0 0 7 19 13 3 16 65 125 131 140 116 161 165 152 170 156 119 138 164 160 159 169 165 134 151 177 156 137 119 102 104 103 89 80 79 77 90 95 113 97 82 88 94 104 109 93 81 82 88 101 103 110 90 99 132 127 104 95 90 126 154 148 139 134 136 134 135 146 142 138 155 162 173 157 110 71 116 97 15 9 9 6 1 1 0 0 0 0 0 0 0 0 0 0 0 0 0 0 0 0 0 0 0 0 0 0 0 0 0 0 0 0 0 0 0 0 0 0 
0 0 0 0 0 0 0 0 0 0 0 5 20 7 2 11 38 115 129 136 127 158 159 147 168 156 150 172 182 170 163 161 159 148 141 153 128 125 124 100 98 105 102 104 93 92 98 97 116 92 70 78 91 105 101 91 94 81 76 92 97 91 98 123 143 134 117 93 115 140 151 137 111 119 138 134 136 139 122 117 128 134 158 130 93 104 125 61 4 3 9 9 0 2 0 0 0 0 0 0 0 0 0 0 0 0 0 0 0 0 0 0 0 0 0 0 0 0 0 0 0 0 0 0 0 0 0 0 
0 0 0 0 0 0 0 0 0 0 0 4 7 8 3 9 23 95 129 141 151 134 161 149 189 193 192 184 139 155 160 147 149 152 146 134 124 121 130 113 90 82 86 96 98 94 97 86 97 94 82 75 78 95 111 99 92 94 93 90 103 107 93 106 116 96 97 111 124 139 152 125 83 115 135 150 147 138 124 127 121 121 105 104 114 131 115 26 4 2 7 7 0 1 0 0 0 0 0 0 0 0 0 0 0 0 0 0 0 0 0 0 0 0 0 0 0 0 0 0 0 0 0 0 0 0 0 0 
0 0 0 0 0 0 0 0 0 0 1 3 1 5 5 10 19 61 128 130 138 116 127 151 169 177 177 168 147 166 150 125 138 155 145 137 129 120 132 131 102 101 89 87 89 98 92 86 104 112 111 98 83 92 109 110 97 93 84 92 126 125 108 108 107 85 96 110 105 127 140 103 76 106 139 164 149 135 137 130 105 109 105 100 106 131 73 13 5 1 6 0 0 2 0 0 0 0 0 0 0 0 0 0 0 0 0 0 0 0 0 0 0 0 0 0 0 0 0 0 0 0 0 0 0 0 0 0 
0 0 0 0 0 0 0 0 0 0 1 3 0 0 6 11 20 36 117 109 123 130 125 129 152 157 149 150 173 168 155 138 143 164 146 137 138 130 116 119 98 82 83 104 98 97 106 84 115 141 133 118 94 85 114 125 101 96 94 110 127 113 94 112 125 108 103 101 102 111 116 108 99 100 145 154 145 141 149 141 126 122 92 83 96 117 37 9 3 2 0 0 0 3 0 0 0 0 0 0 0 0 0 0 0 0 0 0 0 0 0 0 0 0 0 0 0 0 0 0 0 0 0 0 0 0 0 0 
0 0 0 0 0 0 0 0 0 0 2 4 1 0 5 15 22 23 81 104 111 133 138 135 125 147 166 151 152 159 167 146 138 115 109 117 113 123 118 106 71 64 78 101 115 114 116 118 133 129 131 130 116 120 150 152 147 115 107 120 119 115 114 120 133 119 109 107 99 91 96 127 117 125 133 137 146 152 158 163 126 97 95 103 123 84 23 15 7 4 0 0 0 3 0 0 0 0 0 0 0 0 0 0 0 0 0 0 0 0 0 0 0 0 0 0 0 0 0 0 0 0 0 0 0 0 0 0 
0 0 0 0 0 0 0 0 0 0 2 4 1 0 6 10 18 15 41 118 117 130 142 139 131 145 176 156 133 129 160 160 139 110 112 122 120 110 107 104 87 76 86 110 132 148 129 125 121 124 137 138 134 136 142 145 141 145 139 131 139 144 130 121 130 131 113 94 87 85 91 123 158 127 98 129 157 165 166 154 131 104 102 119 125 48 13 18 10 6 1 0 0 3 0 0 0 0 0 0 0 0 0 0 0 0 0 0 0 0 0 0 0 0 0 0 0 0 0 0 0 0 0 0 0 0 0 0 
0 0 0 0 0 0 0 0 0 0 2 5 2 0 7 9 11 12 21 98 102 93 120 135 136 139 168 144 124 102 134 172 157 127 96 111 117 106 104 108 112 124 119 109 125 140 122 142 138 134 137 140 145 153 173 168 165 154 138 118 132 164 159 145 130 135 124 98 106 104 100 125 158 125 97 136 140 156 149 138 131 104 113 108 98 27 6 17 11 9 1 0 1 4 1 0 0 0 0 0 0 0 0 0 0 0 0 0 0 0 0 0 0 0 0 0 0 0 0 0 0 0 0 0 0 0 0 0 
0 0 0 0 0 0 0 0 0 0 0 4 3 0 2 5 7 8 12 68 104 106 103 114 129 134 139 139 138 124 126 162 157 142 96 90 105 112 108 110 128 138 125 125 153 157 148 153 142 133 131 147 154 152 156 161 158 148 143 136 135 149 162 162 138 125 129 124 121 99 110 125 135 132 111 130 144 145 125 125 121 109 119 103 90 17 4 12 11 11 3 0 1 4 2 0 0 0 0 0 0 0 0 0 0 0 0 0 0 0 0 0 0 0 0 0 0 0 0 0 0 0 0 0 0 0 0 0 
0 0 0 0 0 0 0 0 0 0 0 1 5 0 0 0 8 6 6 42 95 87 106 105 113 135 146 129 150 132 129 149 148 126 118 116 102 101 110 124 137 143 142 141 152 155 166 173 145 135 152 178 187 192 176 164 171 175 153 139 136 134 134 142 130 137 150 149 131 107 110 124 139 142 137 127 140 139 118 116 110 115 109 101 80 17 6 9 11 11 4 0 3 5 2 0 0 0 0 0 0 0 0 0 0 0 0 0 0 0 0 0 0 0 0 0 0 0 0 0 0 0 0 0 0 0 0 0 
0 0 0 0 0 0 0 0 0 0 0 2 12 5 1 0 7 6 6 27 95 93 109 103 100 120 133 133 149 115 127 147 132 103 99 108 123 119 104 103 107 116 121 141 156 160 157 150 133 141 174 184 184 208 193 169 180 191 158 134 145 141 113 133 146 149 160 173 164 133 119 125 147 145 158 133 125 139 122 126 85 83 77 99 65 18 11 9 12 11 5 0 3 5 2 0 0 0 0 0 0 0 0 0 0 0 0 0 0 0 0 0 0 0 0 0 0 0 0 0 0 0 0 0 0 0 0 0 
0 0 0 0 0 0 0 0 0 0 0 5 14 8 10 8 13 11 13 22 82 92 114 112 139 138 147 132 165 123 124 139 137 111 94 91 97 109 115 121 113 109 98 118 137 131 128 131 134 163 195 195 176 193 193 144 147 167 148 125 157 148 131 143 149 155 167 184 172 133 111 101 105 107 160 176 158 166 147 110 83 65 66 87 40 16 8 10 14 11 5 0 4 5 0 0 0 0 0 0 0 0 0 0 0 0 0 0 0 0 0 0 0 0 0 0 0 0 0 0 0 0 0 0 0 0 0 0 
0 0 0 0 0 0 0 0 0 0 0 1 11 11 12 17 15 14 15 15 45 88 108 108 129 139 148 155 166 127 136 104 121 111 83 96 105 114 125 131 128 125 122 128 132 134 117 132 161 163 174 186 170 172 157 130 136 148 142 143 159 162 160 170 175 162 163 177 140 87 81 93 107 131 160 163 157 145 133 111 107 88 56 56 22 14 8 7 11 6 0 1 7 2 0 0 0 0 0 0 0 0 0 0 0 0 0 0 0 0 0 0 0 0 0 0 0 0 0 0 0 0 0 0 0 0 0 0 
0 0 0 0 0 0 0 0 0 0 0 2 9 11 10 9 10 9 12 14 17 54 92 119 118 109 124 151 159 131 152 117 110 117 103 90 98 112 124 128 132 125 127 140 139 149 143 148 174 149 167 197 186 181 163 132 138 149 154 165 187 184 180 208 193 169 151 159 124 86 79 99 114 125 146 155 122 98 97 88 83 97 84 42 13 7 5 5 11 1 4 3 8 1 0 0 0 0 0 0 0 0 0 0 0 0 0 0 0 0 0 0 0 0 0 0 0 0 0 0 0 0 0 0 0 0 0 0 
0 0 0 0 0 0 0 0 0 0 0 0 8 8 3 3 7 8 9 18 18 24 77 116 108 101 125 130 159 151 154 135 114 103 112 112 120 116 99 86 104 138 170 157 132 129 133 147 174 175 155 159 161 161 168 161 128 122 129 144 161 173 198 209 198 154 131 173 158 165 135 130 128 135 139 136 94 101 74 58 88 87 50 16 12 1 2 3 3 9 9 8 10 6 0 0 0 0 0 0 0 0 0 0 0 0 0 0 0 0 0 0 0 0 0 0 0 0 0 0 0 0 0 0 0 0 0 0 
0 0 0 0 0 0 0 0 0 0 0 0 2 10 7 2 1 6 9 9 15 17 37 98 139 108 94 86 118 145 148 147 138 132 132 128 137 134 139 131 157 171 184 189 157 171 181 202 194 186 153 143 160 158 164 168 148 151 170 180 182 210 221 221 192 184 178 149 123 105 132 114 89 83 74 79 82 116 76 57 74 48 18 9 22 2 0 0 0 1 4 6 6 0 0 0 0 0 0 0 0 0 0 0 0 0 0 0 0 0 0 0 0 0 0 0 0 0 0 0 0 0 0 0 0 0 0 0 
0 0 0 0 0 0 0 0 0 0 0 0 0 3 8 1 1 0 2 4 11 14 20 55 95 79 65 38 62 62 88 104 103 110 122 135 124 150 175 178 160 153 186 167 166 166 192 184 185 154 133 140 151 129 125 164 169 176 190 195 164 146 151 158 133 175 168 153 152 138 122 78 37 48 57 63 72 115 65 40 39 42 37 15 16 0 0 0 0 1 3 6 5 0 0 0 0 0 0 0 0 0 0 0 0 0 0 0 0 0 0 0 0 0 0 0 0 0 0 0 0 0 0 0 0 0 0 0 
0 0 0 0 0 0 0 0 0 0 0 0 0 3 6 3 3 1 0 5 8 15 22 22 26 33 26 24 57 40 53 67 57 64 64 87 105 103 113 108 111 112 151 136 103 107 113 128 186 99 72 104 128 113 111 125 104 81 103 123 110 108 87 172 170 157 137 137 79 69 55 50 48 56 84 79 69 101 50 32 26 26 20 7 4 0 1 3 2 2 2 8 4 0 0 0 0 0 0 0 0 0 0 0 0 0 0 0 0 0 0 0 0 0 0 0 0 0 0 0 0 0 0 0 0 0 0 0 
0 0 0 0 0 0 0 0 0 0 0 0 0 0 0 0 3 3 1 0 7 10 11 19 22 21 22 23 54 49 45 85 40 39 51 69 93 65 78 65 79 85 71 66 84 87 82 83 92 64 50 76 94 86 79 89 69 44 65 71 70 90 65 52 61 110 158 141 134 159 84 58 58 49 72 71 69 91 47 28 27 25 16 5 4 1 2 2 3 1 3 6 1 0 0 0 0 0 0 0 0 0 0 0 0 0 0 0 0 0 0 0 0 0 0 0 0 0 0 0 0 0 0 0 0 0 0 0 
0 0 0 0 0 0 0 0 0 0 0 0 0 0 0 0 0 1 0 0 6 8 8 14 23 26 24 24 57 62 41 80 45 38 42 58 86 80 123 160 161 120 122 117 120 118 95 102 119 85 79 104 113 99 95 90 86 77 106 90 67 84 77 67 112 149 96 104 93 113 97 110 66 58 59 69 65 84 41 27 21 20 10 4 1 0 0 0 0 0 0 0 0 0 0 0 0 0 0 0 0 0 0 0 0 0 0 0 0 0 0 0 0 0 0 0 0 0 0 0 0 0 0 0 0 0 0 0 
0 0 0 0 0 0 0 0 0 0 0 0 0 0 0 0 0 0 0 0 0 5 3 3 10 21 25 25 49 72 56 80 58 63 65 68 98 121 128 134 175 175 154 159 173 172 176 171 185 167 145 141 140 120 125 129 117 145 148 133 107 105 121 126 120 148 114 122 51 158 91 98 78 73 71 59 65 64 36 22 21 21 6 3 0 0 0 0 0 0 0 0 0 0 0 0 0 0 0 0 0 0 0 0 0 0 0 0 0 0 0 0 0 0 0 0 0 0 0 0 0 0 0 0 0 0 0 0 
0 0 0 0 0 0 0 0 0 0 0 0 0 0 0 0 0 0 0 0 0 0 0 3 12 19 15 15 25 62 64 62 49 59 73 77 87 89 164 180 167 171 176 181 191 196 193 222 186 192 195 178 161 149 177 187 195 184 184 165 148 177 165 130 144 143 133 55 119 158 144 107 101 114 102 78 68 49 27 9 19 6 1 1 0 0 0 0 0 0 0 0 0 0 0 0 0 0 0 0 0 0 0 0 0 0 0 0 0 0 0 0 0 0 0 0 0 0 0 0 0 0 0 0 0 0 0 0 
0 0 0 0 0 0 0 0 0 0 0 0 0 0 0 0 0 0 0 0 0 0 1 2 6 13 23 30 36 81 74 84 62 57 78 57 63 75 81 125 122 138 134 122 137 160 166 185 178 160 140 129 118 104 118 125 153 143 132 128 135 136 118 125 100 105 127 160 173 182 133 68 58 65 53 69 70 27 14 17 13 3 7 2 0 0 0 0 0 0 0 0 0 0 0 0 0 0 0 0 0 0 0 0 0 0 0 0 0 0 0 0 0 0 0 0 0 0 0 0 0 0 0 0 0 0 0 0 
0 0 0 0 0 0 0 0 0 0 0 0 0 0 0 0 0 0 0 0 0 0 5 4 8 13 21 23 21 66 75 83 68 56 100 102 84 52 70 77 93 126 117 81 86 76 82 112 131 116 87 76 66 53 56 57 73 99 109 114 97 108 122 103 130 114 127 124 148 147 111 57 43 63 67 103 94 44 27 21 15 7 7 2 0 0 0 0 0 0 0 0 0 0 0 0 0 0 0 0 0 0 0 0 0 0 0 0 0 0 0 0 0 0 0 0 0 0 0 0 0 0 0 0 0 0 0 0 
0 0 0 0 0 0 0 0 0 0 0 0 0 0 0 0 0 0 0 0 0 0 3 6 6 14 19 22 21 46 77 78 81 48 97 70 80 96 90 97 102 120 112 93 107 82 92 128 117 83 78 66 52 54 54 54 60 80 103 119 99 91 105 105 99 95 117 118 117 111 108 97 99 115 107 100 94 50 27 21 20 9 6 1 0 0 0 0 0 0 0 0 0 0 0 0 0 0 0 0 0 0 0 0 0 0 0 0 0 0 0 0 0 0 0 0 0 0 0 0 0 0 0 0 0 0 0 0 
0 0 0 0 0 0 0 0 0 0 0 0 0 0 0 0 0 0 0 0 0 0 2 5 9 11 18 23 23 40 87 71 92 51 96 57 40 41 59 96 99 97 106 92 101 66 76 127 116 74 92 101 90 78 69 65 74 97 131 141 109 97 97 99 90 84 93 98 75 64 57 63 58 93 135 109 91 53 26 21 20 8 5 0 0 0 0 0 0 0 0 0 0 0 0 0 0 0 0 0 0 0 0 0 0 0 0 0 0 0 0 0 0 0 0 0 0 0 0 0 0 0 0 0 0 0 0 0 
0 0 0 0 0 0 0 0 0 0 0 0 0 0 0 0 0 0 0 0 0 0 0 4 7 9 14 21 24 34 70 56 89 50 97 58 36 33 40 54 69 88 108 96 98 81 76 118 138 105 125 130 115 104 94 90 90 108 107 122 120 101 107 85 99 103 94 100 86 73 40 45 58 61 128 109 77 48 24 20 17 8 4 0 0 0 0 0 0 0 0 0 0 0 0 0 0 0 0 0 0 0 0 0 0 0 0 0 0 0 0 0 0 0 0 0 0 0 0 0 0 0 0 0 0 0 0 0 
0 0 0 0 0 0 0 0 0 0 0 0 0 0 0 0 0 0 0 0 0 0 0 0 5 8 11 18 21 34 64 46 89 53 96 61 37 35 51 65 70 97 82 101 109 97 79 110 141 121 107 111 114 112 107 99 100 109 96 106 123 114 91 60 90 110 94 91 100 80 55 38 56 53 112 111 67 57 25 22 14 9 2 0 0 0 0 0 0 0 0 0 0 0 0 0 0 0 0 0 0 0 0 0 0 0 0 0 0 0 0 0 0 0 0 0 0 0 0 0 0 0 0 0 0 0 0 0 
0 0 0 0 0 0 0 0 0 0 0 0 0 0 0 0 0 0 0 0 0 0 0 0 2 3 10 15 19 29 50 38 84 51 101 66 37 44 64 69 77 57 67 107 98 97 89 93 108 140 110 97 106 114 114 101 106 112 104 102 104 120 86 58 93 110 114 70 71 84 70 56 59 70 104 101 67 55 24 19 13 7 1 0 0 0 0 0 0 0 0 0 0 0 0 0 0 0 0 0 0 0 0 0 0 0 0 0 0 0 0 0 0 0 0 0 0 0 0 0 0 0 0 0 0 0 0 0 
0 0 0 0 0 0 0 0 0 0 0 0 0 0 0 0 0 0 0 0 0 0 0 0 2 4 6 15 13 19 48 70 73 55 104 66 36 53 64 68 58 36 61 111 111 99 94 83 92 135 111 87 96 105 110 108 103 109 100 106 111 127 104 57 69 100 114 71 50 72 67 69 54 71 110 77 61 33 20 18 15 7 0 0 0 0 0 0 0 0 0 0 0 0 0 0 0 0 0 0 0 0 0 0 0 0 0 0 0 0 0 0 0 0 0 0 0 0 0 0 0 0 0 0 0 0 0 0 
0 0 0 0 0 0 0 0 0 0 0 0 0 0 0 0 0 0 0 0 0 0 0 0 0 3 1 10 14 16 23 31 27 40 77 60 33 56 68 64 47 38 54 91 109 91 81 80 100 134 127 101 99 101 109 105 88 87 99 113 127 135 98 54 58 89 104 65 53 62 72 77 48 64 115 44 16 20 19 18 14 6 0 0 0 0 0 0 0 0 0 0 0 0 0 0 0 0 0 0 0 0 0 0 0 0 0 0 0 0 0 0 0 0 0 0 0 0 0 0 0 0 0 0 0 0 0 0 
0 0 0 0 0 0 0 0 0 0 0 0 0 0 0 0 0 0 0 0 0 0 0 0 0 0 5 3 13 16 21 19 17 9 27 70 42 62 95 91 48 41 53 86 88 68 62 64 102 143 139 110 97 85 79 83 89 84 87 115 143 135 91 65 63 80 91 61 49 58 108 107 69 75 88 23 15 20 20 17 10 5 0 0 0 0 0 0 0 0 0 0 0 0 0 0 0 0 0 0 0 0 0 0 0 0 0 0 0 0 0 0 0 0 0 0 0 0 0 0 0 0 0 0 0 0 0 0 
0 0 0 0 0 0 0 0 0 0 0 0 0 0 0 0 0 0 0 0 0 0 0 0 0 0 3 2 11 16 19 20 17 13 13 52 74 91 123 84 42 40 55 105 102 58 60 75 112 147 146 124 106 87 67 60 87 90 80 98 135 132 109 76 68 78 118 84 44 44 100 132 91 85 48 21 16 20 22 17 8 4 1 0 0 0 0 0 0 0 0 0 0 0 0 0 0 0 0 0 0 0 0 0 0 0 0 0 0 0 0 0 0 0 0 0 0 0 0 0 0 0 0 0 0 0 0 0 
0 0 0 0 0 0 0 0 0 0 0 0 0 0 0 0 0 0 0 0 0 0 0 0 0 0 2 4 6 11 17 18 16 13 12 14 34 60 80 67 45 39 61 121 111 65 65 74 109 138 131 127 125 105 91 92 101 107 114 114 121 125 111 69 61 82 129 108 52 44 68 90 63 41 26 22 16 21 21 12 6 4 1 0 0 0 0 0 0 0 0 0 0 0 0 0 0 0 0 0 0 0 0 0 0 0 0 0 0 0 0 0 0 0 0 0 0 0 0 0 0 0 0 0 0 0 0 0 
0 0 0 0 0 0 0 0 0 0 0 0 0 0 0 0 0 0 0 0 0 0 0 0 0 0 0 5 5 8 12 17 14 13 12 10 20 25 43 68 54 53 80 128 129 84 67 75 114 138 129 116 101 89 87 88 91 99 101 101 114 109 112 74 57 80 140 128 74 61 74 57 31 27 28 19 12 22 17 9 5 3 1 0 0 0 0 0 0 0 0 0 0 0 0 0 0 0 0 0 0 0 0 0 0 0 0 0 0 0 0 0 0 0 0 0 0 0 0 0 0 0 0 0 0 0 0 0 
0 0 0 0 0 0 0 0 0 0 0 0 0 0 0 0 0 0 0 0 0 0 0 0 0 0 0 1 7 7 9 16 16 16 10 8 19 26 29 53 69 71 86 122 125 102 78 92 125 148 133 98 78 88 94 89 87 96 105 101 111 99 115 89 69 101 138 129 82 75 64 36 29 28 28 18 12 19 13 9 5 4 1 0 0 0 0 0 0 0 0 0 0 0 0 0 0 0 0 0 0 0 0 0 0 0 0 0 0 0 0 0 0 0 0 0 0 0 0 0 0 0 0 0 0 0 0 0 
0 0 0 0 0 0 0 0 0 0 0 0 0 0 0 0 0 0 0 0 0 0 0 0 0 0 0 0 1 9 8 13 16 17 11 10 15 28 28 31 42 59 68 83 125 127 100 99 111 120 121 100 82 81 74 74 74 84 108 107 111 102 113 97 90 111 131 90 63 50 35 30 29 25 24 19 12 15 12 8 4 4 1 0 0 0 0 0 0 0 0 0 0 0 0 0 0 0 0 0 0 0 0 0 0 0 0 0 0 0 0 0 0 0 0 0 0 0 0 0 0 0 0 0 0 0 0 0 
0 0 0 0 0 0 0 0 0 0 0 0 0 0 0 0 0 0 0 0 0 0 0 0 0 0 0 0 0 6 5 11 16 17 12 11 12 25 26 30 30 32 36 41 92 130 108 98 93 92 105 101 89 71 61 65 65 75 97 108 103 101 100 99 100 116 83 35 30 35 32 28 26 23 20 18 13 17 13 9 5 3 0 0 0 0 0 0 0 0 0 0 0 0 0 0 0 0 0 0 0 0 0 0 0 0 0 0 0 0 0 0 0 0 0 0 0 0 0 0 0 0 0 0 0 0 0 0 
0 0 0 0 0 0 0 0 0 0 0 0 0 0 0 0 0 0 0 0 0 0 0 0 0 0 0 0 0 5 5 9 17 16 16 12 12 19 27 30 31 33 33 42 54 79 106 91 67 74 106 110 93 83 80 85 81 77 93 115 133 110 77 76 97 73 40 33 30 33 29 28 23 21 19 16 12 17 15 11 5 3 0 0 0 0 0 0 0 0 0 0 0 0 0 0 0 0 0 0 0 0 0 0 0 0 0 0 0 0 0 0 0 0 0 0 0 0 0 0 0 0 0 0 0 0 0 0 
