P2
128 99
223
0 0 0 0 0 0 0 0 0 0 0 0 0 0 0 0 0 0 0 0 0 0 0 0 0 0 0 0 0 0 0 0 0 0 0 0 0 0 0 0 1 2 2 1 0 0 0 0 0 0 0 0 0 0 0 0 0 0 0 0 0 0 0 0 0 0 0 0 0 0 0 0 0 0 0 0 0 0 0 0 0 0 0 1 2 1 1 0 0 0 0 0 0 0 0 0 0 0 0 0 0 0 0 0 0 0 0 0 0 0 0 0 0 0 0 0 0 0 0 0 0 0 0 0 0 0 0 0 
0 0 0 0 0 0 0 0 0 0 0 0 0 0 0 0 0 0 0 0 0 0 0 0 0 0 0 0 0 0 0 0 0 0 0 0 0 0 0 0 1 2 2 1 0 0 0 0 0 0 0 0 0 0 0 0 0 0 0 0 0 0 0 0 0 0 0 0 0 0 0 0 0 0 0 0 0 0 0 0 0 0 0 1 2 2 1 0 0 0 0 0 0 0 0 0 0 0 0 0 0 0 0 0 0 0 0 0 0 0 0 0 0 0 0 0 0 0 0 0 0 0 0 0 0 0 0 0 
0 0 0 0 0 0 0 0 0 0 0 0 0 0 0 0 0 0 0 0 0 0 0 0 0 0 0 0 0 0 0 0 0 0 0 0 0 0 0 0 2 3 2 1 0 0 0 0 0 0 1 3 5 6 3 0 0 0 0 0 0 0 0 0 0 0 0 0 0 0 0 0 0 0 0 0 0 0 0 0 0 0 0 1 2 2 1 0 0 0 0 0 0 0 0 0 0 0 0 0 0 0 0 0 0 0 0 0 0 0 0 0 0 0 0 0 0 0 0 0 0 0 0 0 0 0 0 0 
0 0 0 0 0 0 0 0 0 0 0 0 0 0 0 0 0 0 0 0 0 0 0 0 0 0 0 0 0 0 0 0 0 0 0 0 0 0 0 0 1 3 2 2 6 13 15 20 21 23 24 28 32 32 28 20 16 15 15 9 7 0 0 0 0 0 0 0 0 0 0 0 0 0 0 0 0 0 0 0 0 0 0 1 2 2 1 0 0 0 0 0 0 0 0 0 0 0 0 0 0 0 0 0 0 0 0 0 0 0 0 0 0 0 0 0 0 0 0 0 0 0 0 0 0 0 0 0 
0 0 0 0 0 0 0 0 0 0 0 0 0 0 0 0 0 0 0 0 0 0 0 0 0 0 0 0 0 0 0 0 0 0 0 0 0 0 0 0 3 20 19 27 27 31 48 73 100 121 132 138 138 138 135 128 115 100 78 55 32 24 16 13 5 0 0 0 0 0 0 0 0 0 0 0 0 0 0 0 0 0 0 0 2 2 1 0 0 0 0 0 0 0 0 0 0 0 0 0 0 0 0 0 0 0 0 0 0 0 0 0 0 0 0 0 0 0 0 0 0 0 0 0 0 0 0 0 
0 0 0 0 0 0 0 0 0 0 0 0 0 0 0 0 0 0 0 0 0 0 0 0 0 0 0 0 0 0 0 0 0 0 0 0 0 0 7 20 25 28 33 66 113 146 154 152 154 159 162 163 166 170 173 172 166 159 152 143 127 108 79 46 24 16 13 2 0 0 0 0 0 0 0 0 0 0 0 0 0 0 0 1 2 2 1 0 0 0 0 0 0 0 0 0 0 0 0 0 0 0 0 0 0 0 0 0 0 0 0 0 0 0 0 0 0 0 0 0 0 0 0 0 0 0 0 0 
0 0 0 0 0 0 0 0 0 0 0 0 0 0 0 0 0 0 0 0 0 0 0 0 0 0 0 0 0 0 0 0 0 0 0 0 6 21 24 23 49 105 147 155 157 159 164 173 190 207 212 211 208 205 204 206 210 211 203 191 175 162 150 133 109 73 41 19 12 4 0 0 0 0 0 0 0 0 0 0 0 0 0 1 2 2 0 0 0 0 0 0 0 0 0 0 0 0 0 0 0 0 0 0 0 0 0 0 0 0 0 0 0 0 0 0 0 0 0 0 0 0 0 0 0 0 0 0 
0 0 0 0 0 0 0 0 0 0 0 0 0 0 0 0 0 0 0 0 0 0 0 0 0 0 0 0 0 0 0 0 0 0 7 24 22 22 57 122 155 158 166 170 179 199 209 197 170 156 151 153 151 140 137 148 160 172 182 192 204 208 193 175 162 152 128 86 45 25 13 3 0 0 0 0 0 0 0 0 0 0 0 1 3 2 0 0 0 0 0 0 0 0 0 0 0 0 0 0 0 0 0 0 0 0 0 0 0 0 0 0 0 0 0 0 0 0 0 0 0 0 0 0 0 0 0 0 
0 0 0 0 0 0 0 0 0 0 0 0 0 0 0 0 0 0 0 0 0 0 0 0 0 0 0 0 0 0 0 0 5 25 24 23 55 124 153 156 167 176 193 209 201 179 150 118 100 108 117 124 118 115 120 119 130 147 158 162 166 174 187 201 201 182 163 156 134 88 46 25 13 0 0 0 0 0 0 0 0 0 0 1 3 2 0 0 0 0 0 0 0 0 0 0 0 0 0 0 0 0 0 0 0 0 0 0 0 0 0 0 0 0 0 0 0 0 0 0 0 0 0 0 0 0 0 0 
0 0 0 0 0 0 0 0 0 0 0 0 0 0 0 0 0 0 0 0 0 0 0 0 0 0 0 0 0 0 0 24 27 21 35 108 154 154 162 173 195 211 190 154 125 119 119 114 125 125 129 139 142 143 148 157 158 151 149 154 168 166 163 163 174 190 200 184 165 153 126 74 33 19 5 0 0 0 0 0 0 0 0 1 3 2 1 0 0 0 0 0 0 0 0 0 0 0 0 0 0 0 0 0 0 0 0 0 0 0 0 0 0 0 0 0 0 0 0 0 0 0 0 0 0 0 0 0 
0 0 0 0 0 0 0 0 0 0 0 0 0 0 0 0 0 0 0 0 0 0 0 0 0 0 0 0 0 11 31 20 21 77 146 155 161 167 191 209 189 161 138 136 153 166 168 165 151 125 124 132 131 124 118 124 140 154 157 158 164 178 180 172 164 159 166 186 202 184 161 145 104 50 24 7 0 0 0 0 0 0 0 1 2 2 1 0 0 0 0 0 0 0 0 0 0 0 0 0 0 0 0 0 0 0 0 0 0 0 0 0 0 0 0 0 0 0 0 0 0 0 0 0 0 0 0 0 
0 0 0 0 0 0 0 0 0 0 0 0 0 0 0 0 0 0 0 0 0 0 0 0 0 0 0 0 24 23 16 44 124 155 157 162 183 203 183 162 152 151 154 159 159 153 149 147 135 129 123 121 115 118 124 132 138 151 153 155 157 165 179 185 185 182 169 163 164 184 202 179 155 128 66 27 11 0 0 0 0 0 0 1 2 3 1 0 0 0 0 0 0 0 0 0 0 0 0 0 0 0 0 0 0 0 0 0 0 0 0 0 0 0 0 0 0 0 0 0 0 0 0 0 0 0 0 0 
0 0 0 0 0 0 0 0 0 0 0 0 0 0 0 0 0 0 0 0 0 0 0 0 0 0 5 30 18 17 74 148 154 156 166 195 188 172 162 159 159 161 158 149 142 149 156 144 140 148 138 121 119 130 145 134 120 139 155 161 154 147 147 162 181 189 189 184 170 155 165 195 194 160 135 82 28 14 0 0 0 0 0 2 2 2 1 0 0 0 0 0 0 0 0 0 0 0 0 0 0 0 0 0 0 0 0 0 0 0 0 0 0 0 0 0 0 0 0 0 0 0 0 0 0 0 0 0 
0 0 0 0 0 0 0 0 0 0 0 0 0 0 0 0 0 0 0 0 0 0 0 0 0 12 28 16 27 103 155 153 157 183 193 176 168 164 161 156 156 149 129 117 118 128 133 139 143 138 121 124 120 108 94 93 95 98 118 140 148 147 146 139 143 163 179 192 190 178 160 160 187 198 164 140 91 28 14 0 0 0 0 2 2 3 1 0 0 0 0 0 0 0 0 0 0 0 0 0 0 0 0 0 0 0 0 0 0 0 0 0 0 0 0 0 0 0 0 0 0 0 0 0 0 0 0 0 
0 0 0 0 0 0 0 0 0 0 0 0 0 0 0 0 0 0 0 0 0 0 0 0 14 26 15 41 116 158 153 164 192 191 179 172 162 154 151 153 146 125 121 116 114 118 95 98 115 115 129 147 144 141 141 141 147 153 146 141 144 150 142 134 134 136 136 160 177 190 188 171 162 184 203 168 143 98 29 13 0 0 0 1 3 2 1 0 0 0 0 0 0 0 0 0 0 0 0 0 0 0 0 0 0 0 0 0 0 0 0 0 0 0 0 0 0 0 0 0 0 0 0 0 0 0 0 0 
0 0 0 0 0 0 0 0 0 0 0 0 0 0 0 0 0 0 0 0 0 0 5 18 23 15 51 123 153 152 170 201 191 171 160 156 148 148 147 141 125 117 118 132 150 149 142 144 142 140 140 139 138 143 150 153 153 159 166 173 175 180 187 175 145 130 133 129 137 161 185 188 171 162 175 204 170 144 109 35 11 0 0 1 3 3 2 0 0 0 0 0 0 0 0 0 0 0 0 0 0 0 0 0 0 0 0 0 0 0 0 0 0 0 0 0 0 0 0 0 0 0 0 0 0 0 0 0 
0 0 0 0 0 0 0 0 0 0 0 0 0 0 0 0 0 0 0 0 0 6 17 20 15 60 128 151 152 175 207 188 158 151 151 138 135 144 147 126 136 162 174 173 160 146 140 133 133 131 134 137 136 134 131 130 129 133 134 140 143 147 161 189 196 174 141 130 133 128 142 171 186 169 155 174 202 170 143 120 37 10 0 2 3 2 1 0 0 0 0 0 0 0 0 0 0 0 0 0 0 0 0 0 0 0 0 0 0 0 0 0 0 0 0 0 0 0 0 0 0 0 0 0 0 0 0 0 
0 0 0 0 0 0 0 0 0 0 0 0 0 0 0 0 0 0 0 0 7 15 15 19 70 137 151 153 183 210 179 147 143 142 134 139 149 135 131 163 177 165 145 137 136 136 132 132 134 132 138 139 134 131 124 125 121 118 127 130 130 135 137 146 170 192 189 158 126 122 123 130 161 183 168 159 178 202 170 144 123 37 6 2 3 3 1 0 0 0 0 0 0 0 0 0 0 0 0 0 0 0 0 0 0 0 0 0 0 0 0 0 0 0 0 0 0 0 0 0 0 0 0 0 0 0 0 0 
0 0 0 0 0 0 0 0 0 0 0 0 0 0 0 0 0 0 0 6 16 13 20 75 141 150 154 183 211 173 141 132 136 136 144 147 140 147 171 156 142 132 131 130 132 128 123 123 122 122 127 116 114 119 113 112 112 113 114 117 120 124 127 133 133 148 176 189 165 120 106 118 129 150 176 169 157 179 199 163 141 117 29 5 3 3 2 0 0 0 0 0 0 0 0 0 0 0 0 0 0 0 0 0 0 0 0 0 0 0 0 0 0 0 0 0 0 0 0 0 0 0 0 0 0 0 0 0 
0 0 0 0 0 0 0 0 0 0 0 0 0 0 0 0 0 0 5 14 11 23 79 141 149 145 174 210 168 135 130 130 132 142 150 142 150 164 140 128 132 131 128 121 114 109 105 108 109 115 108 85 89 111 107 107 106 106 106 104 101 102 105 114 125 128 140 167 190 165 106 110 125 123 145 172 166 158 187 181 155 142 102 20 5 3 1 0 0 0 0 0 0 0 0 0 0 0 0 0 0 0 0 0 0 0 0 0 0 0 0 0 0 0 0 0 0 0 0 0 0 0 0 0 0 0 0 0 
0 0 0 0 0 0 0 0 0 0 0 0 0 0 0 0 0 2 16 7 23 77 131 154 141 168 206 171 134 133 135 132 137 148 148 145 151 128 126 132 127 114 105 101 101 101 103 103 108 104 86 79 81 109 112 106 105 103 100 101 108 100 98 95 106 121 130 139 167 196 159 106 111 125 126 144 165 157 163 194 168 151 145 79 11 3 1 0 0 0 0 0 0 0 0 0 0 0 0 0 0 0 0 0 0 0 0 0 0 0 0 0 0 0 0 0 0 0 0 0 0 0 0 0 0 0 0 0 
0 0 0 0 0 0 0 0 0 0 0 0 0 0 0 0 0 11 9 14 65 124 150 140 165 198 184 132 126 134 131 136 147 143 132 146 124 125 129 118 105 101 100 100 103 105 104 108 97 64 67 79 76 72 90 98 103 105 108 106 112 107 98 95 96 105 120 130 133 165 195 152 105 112 124 123 145 160 160 180 188 164 145 132 44 6 1 0 0 0 0 0 0 0 0 0 0 0 0 0 0 0 0 0 0 0 0 0 0 0 0 0 0 0 0 0 0 0 0 0 0 0 0 0 0 0 0 0 
0 0 0 0 0 0 0 0 0 0 0 0 0 0 0 0 5 12 6 51 115 142 141 157 188 193 131 121 136 124 132 146 135 115 141 129 125 128 117 106 99 99 97 93 86 78 72 71 60 53 55 60 57 52 52 53 65 69 67 73 80 85 85 83 84 84 91 125 126 133 163 184 138 109 112 125 126 144 150 166 194 166 156 145 107 23 2 0 0 0 0 0 0 0 0 0 0 0 0 0 0 0 0 0 0 0 0 0 0 0 0 0 0 0 0 0 0 0 0 0 0 0 0 0 0 0 0 0 
0 0 0 0 0 0 0 0 0 0 0 0 0 0 0 3 12 8 38 105 132 145 146 181 191 143 109 133 130 126 145 132 108 138 127 119 126 117 110 102 92 79 65 63 61 59 60 63 57 56 59 57 56 53 51 50 50 49 51 54 61 69 79 83 80 78 79 98 129 129 140 165 162 124 114 118 133 135 139 148 191 180 158 154 136 78 8 0 0 0 0 0 0 0 0 0 0 0 0 0 0 0 0 0 0 0 0 0 0 0 0 0 0 0 0 0 0 0 0 0 0 0 0 0 0 0 0 0 
0 0 0 0 0 0 0 0 0 0 0 0 0 0 0 8 11 23 87 121 142 138 171 181 169 112 122 139 133 142 138 98 126 138 128 130 130 111 97 83 68 59 55 53 55 55 56 59 57 58 56 57 59 57 56 58 57 52 50 50 52 52 64 75 81 80 77 81 111 119 128 145 168 142 118 118 133 130 135 129 172 190 158 155 152 115 35 0 0 0 0 0 0 0 0 0 0 0 0 0 0 0 0 0 0 0 0 0 0 0 0 0 0 0 0 0 0 0 0 0 0 0 0 0 0 0 0 0 
0 0 0 0 0 0 0 0 0 0 0 0 0 0 4 8 12 73 112 129 148 152 173 176 147 110 135 129 140 142 107 113 140 134 135 134 121 96 78 63 59 58 56 56 55 57 57 60 61 66 71 73 74 74 76 73 73 68 62 57 54 52 52 61 72 77 78 77 86 108 105 136 159 162 134 120 122 131 132 115 144 193 164 158 157 130 70 4 0 0 0 0 0 0 0 0 0 0 0 0 0 0 0 0 0 0 0 0 0 0 0 0 0 0 0 0 0 0 0 0 0 0 0 0 0 0 0 0 
0 0 0 0 0 0 0 0 0 0 0 0 0 0 6 9 48 95 119 136 147 165 161 174 122 118 138 138 145 117 105 142 134 132 129 112 87 69 62 59 61 57 57 56 56 63 70 77 82 88 92 94 94 97 90 87 90 88 82 75 63 59 53 54 56 70 80 78 77 85 105 128 146 162 150 129 124 130 137 120 119 186 166 162 155 144 96 21 0 0 0 0 0 0 0 0 0 0 0 0 0 0 0 0 0 0 0 0 0 0 0 0 0 0 0 0 0 0 0 0 0 0 0 0 0 0 0 0 
0 0 0 0 0 0 0 0 0 0 0 0 0 2 7 20 81 106 117 144 154 164 168 156 106 124 141 145 118 102 141 138 126 133 109 84 62 52 56 59 59 59 59 65 76 87 92 93 93 88 81 88 94 77 68 65 76 96 99 95 88 77 66 58 55 61 76 80 76 79 85 116 133 145 165 144 123 127 135 131 109 166 169 151 149 155 109 40 1 0 0 0 0 0 0 0 0 0 0 0 0 0 0 0 0 0 0 0 0 0 0 0 0 0 0 0 0 0 0 0 0 0 0 0 0 0 0 0 
0 0 0 0 0 0 0 0 0 0 0 0 0 3 5 46 91 119 130 154 160 158 163 137 110 131 147 129 95 123 150 130 132 127 87 65 57 56 57 59 59 64 76 95 102 106 100 90 72 63 67 72 92 84 91 89 80 79 71 92 99 96 88 75 61 57 66 79 81 79 79 95 126 133 158 168 122 126 128 139 113 146 167 150 150 159 119 55 2 0 0 0 0 0 0 0 0 0 0 0 0 0 0 0 0 0 0 0 0 0 0 0 0 0 0 0 0 0 0 0 0 0 0 0 0 0 0 0 
0 0 0 0 0 0 0 0 0 0 0 0 0 5 8 67 104 118 144 158 155 145 145 124 120 142 136 103 94 147 142 127 128 105 66 56 55 53 57 60 70 90 107 113 113 107 80 72 73 79 90 94 100 107 111 106 96 84 76 76 76 94 100 98 87 66 60 68 82 80 77 90 124 124 142 171 134 110 125 135 118 138 170 150 154 159 132 75 6 0 0 0 0 0 0 0 0 0 0 0 0 0 0 0 0 0 0 0 0 0 0 0 0 0 0 0 0 0 0 0 0 0 0 0 0 0 0 0 
0 0 0 0 0 0 0 0 0 0 0 0 0 4 20 81 118 118 157 155 144 122 134 120 129 143 108 93 98 151 138 126 120 85 59 56 56 56 65 82 101 113 114 110 109 100 96 92 89 98 106 109 112 120 122 119 117 105 95 90 89 80 88 102 105 94 70 61 74 83 80 85 117 124 129 160 140 98 121 129 117 132 167 148 156 152 137 89 14 0 0 0 0 0 0 0 0 0 0 0 0 0 0 0 0 0 0 0 0 0 0 0 0 0 0 0 0 0 0 0 0 0 0 0 0 0 0 0 
0 0 0 0 0 0 0 0 0 0 0 0 3 3 39 92 125 129 162 147 122 107 134 125 136 125 99 93 104 139 123 113 103 72 54 57 60 69 92 112 114 106 97 103 111 110 112 112 112 115 117 115 120 123 127 130 138 132 112 108 103 97 94 102 110 107 97 75 67 78 83 85 98 116 119 141 131 98 111 119 110 129 163 151 155 148 148 100 19 0 0 0 0 0 0 0 0 0 0 0 0 0 0 0 0 0 0 0 0 0 0 0 0 0 0 0 0 0 0 0 0 0 0 0 0 0 0 0 
0 0 0 0 0 0 0 0 0 0 0 0 4 6 57 106 120 134 159 135 102 108 143 128 129 107 95 92 106 137 114 106 87 61 59 67 77 99 118 120 107 100 108 115 119 119 120 122 121 122 119 116 116 121 125 128 128 125 124 122 117 113 113 106 110 112 107 96 78 70 79 83 90 102 110 130 117 97 103 116 104 123 154 155 159 142 156 110 25 0 0 0 0 0 0 0 0 0 0 0 0 0 0 0 0 0 0 0 0 0 0 0 0 0 0 0 0 0 0 0 0 0 0 0 0 0 0 0 
0 0 0 0 0 0 0 0 0 0 0 0 3 8 66 113 121 141 150 122 99 112 148 132 112 100 94 90 107 136 110 99 77 63 69 84 107 124 129 119 107 112 118 122 124 123 121 121 120 121 124 122 116 116 121 122 122 123 123 124 122 119 119 114 106 114 118 111 104 78 75 83 90 96 96 119 104 91 101 118 110 131 152 158 165 145 158 124 34 1 0 0 0 0 0 0 0 0 0 0 0 0 0 0 0 0 0 0 0 0 0 0 0 0 0 0 0 0 0 0 0 0 0 0 0 0 0 0 
0 0 0 0 0 0 0 0 0 0 0 0 2 11 71 119 120 143 144 125 108 113 146 127 104 97 93 80 99 130 101 93 76 66 80 108 127 129 133 127 116 120 125 127 122 121 116 116 117 116 120 118 114 115 115 118 119 119 120 121 120 120 124 123 116 124 122 116 116 103 83 87 99 99 90 96 93 92 98 112 109 135 156 157 166 150 154 142 42 2 0 0 0 0 0 0 0 0 0 0 0 0 0 0 0 0 0 0 0 0 0 0 0 0 0 0 0 0 0 0 0 0 0 0 0 0 0 0 
0 0 0 0 0 0 0 0 0 0 0 0 3 13 72 121 119 149 142 127 119 119 153 119 98 95 88 75 93 126 96 91 76 79 109 129 132 131 136 144 139 132 126 123 123 118 112 117 113 112 116 117 114 114 116 115 115 116 117 117 117 121 121 124 124 131 126 128 126 114 110 116 115 107 92 98 88 97 99 104 110 139 159 153 167 153 152 155 52 3 0 0 0 0 0 0 0 0 0 0 0 0 0 0 0 0 0 0 0 0 0 0 0 0 0 0 0 0 0 0 0 0 0 0 0 0 0 0 
0 0 0 0 0 0 0 0 0 0 0 0 4 14 79 124 132 164 140 128 124 117 158 119 98 94 89 75 86 120 92 89 79 109 132 141 142 129 125 131 135 133 134 129 117 115 112 112 115 116 119 116 107 108 111 115 113 112 114 113 115 118 122 142 137 131 134 135 125 112 126 153 146 115 93 94 85 100 103 104 119 136 156 148 163 154 146 160 63 3 0 0 0 0 0 0 0 0 0 0 0 0 0 0 0 0 0 0 0 0 0 0 0 0 0 0 0 0 0 0 0 0 0 0 0 0 0 0 
0 0 0 0 0 0 0 0 0 0 0 0 6 14 81 122 145 170 132 130 137 129 164 121 92 92 90 74 79 106 93 103 109 130 149 159 157 142 141 161 161 146 126 116 117 120 111 115 115 112 106 105 105 104 110 112 112 112 109 106 111 125 142 150 147 136 126 110 87 73 84 116 142 127 102 100 93 101 107 110 118 138 152 143 154 150 146 161 75 4 0 0 0 0 0 0 0 0 0 0 0 0 0 0 0 0 0 0 0 0 0 0 0 0 0 0 0 0 0 0 0 0 0 0 0 0 0 0 
0 0 0 0 0 0 0 0 0 0 0 0 8 15 86 123 153 170 129 131 138 132 158 126 98 95 92 76 77 90 92 122 136 155 156 142 139 138 140 143 141 144 141 129 114 108 120 118 115 112 107 104 103 107 107 108 110 109 110 107 121 135 132 121 114 111 111 108 85 61 53 64 90 116 112 111 98 100 108 120 127 146 141 135 149 148 145 163 92 5 0 0 0 0 0 0 0 0 0 0 0 0 0 0 0 0 0 0 0 0 0 0 0 0 0 0 0 0 0 0 0 0 0 0 0 0 0 0 
0 0 0 0 0 0 0 0 0 0 0 0 8 14 89 123 154 163 125 132 132 127 150 135 105 110 105 88 76 80 107 122 137 131 116 115 118 120 123 125 124 119 114 122 136 123 112 126 112 109 108 110 102 106 107 111 110 109 110 128 135 117 114 108 119 118 115 112 93 65 55 63 81 108 124 126 101 95 99 122 134 144 132 133 144 153 148 163 111 13 0 0 0 0 0 0 0 0 0 0 0 0 0 0 0 0 0 0 0 0 0 0 0 0 0 0 0 0 0 0 0 0 0 0 0 0 0 0 
0 0 0 0 0 0 0 0 0 0 0 0 8 14 87 125 162 159 124 127 123 128 140 134 107 108 107 96 91 81 109 120 113 101 106 118 119 119 122 123 120 117 110 105 107 123 114 118 113 106 108 107 107 107 107 108 112 112 120 139 119 106 98 112 125 118 114 113 96 76 69 70 85 109 131 142 99 88 90 115 144 142 122 130 136 151 150 159 123 20 0 0 0 0 0 0 0 0 0 0 0 0 0 0 0 0 0 0 0 0 0 0 0 0 0 0 0 0 0 0 0 0 0 0 0 0 0 0 
0 0 0 0 0 0 0 0 0 0 0 0 9 18 89 128 169 163 128 111 120 129 133 129 113 102 102 89 95 93 103 119 117 99 110 119 120 115 110 118 118 111 108 103 102 108 126 123 120 116 118 110 122 143 129 113 113 118 137 131 109 93 105 120 127 132 127 116 97 74 70 72 82 100 126 147 106 86 88 115 153 143 120 122 125 144 159 157 129 27 0 0 0 0 0 0 0 0 0 0 0 0 0 0 0 0 0 0 0 0 0 0 0 0 0 0 0 0 0 0 0 0 0 0 0 0 0 0 
0 0 0 0 0 0 0 0 0 0 0 0 8 19 91 131 173 164 120 104 122 130 118 122 118 90 90 93 94 79 86 119 125 107 120 130 128 124 116 114 115 112 107 102 105 106 120 125 118 119 125 124 152 156 161 140 125 132 131 121 96 106 117 129 135 133 126 116 93 75 68 72 85 97 115 148 118 89 91 115 150 139 116 113 112 130 155 153 136 35 1 0 0 0 0 0 0 0 0 0 0 0 0 0 0 0 0 0 0 0 0 0 0 0 0 0 0 0 0 0 0 0 0 0 0 0 0 0 
0 0 0 0 0 0 0 0 0 0 0 0 8 21 93 142 176 159 113 100 119 125 110 125 125 92 83 97 87 73 80 123 120 101 116 126 135 134 131 121 120 115 107 110 108 105 111 123 120 109 116 123 147 130 143 156 118 121 113 111 102 119 125 126 132 137 130 112 88 75 71 73 91 94 103 144 127 91 94 122 142 136 111 110 98 126 146 147 141 43 2 0 0 0 0 0 0 0 0 0 0 0 0 0 0 0 0 0 0 0 0 0 0 0 0 0 0 0 0 0 0 0 0 0 0 0 0 0 
0 0 0 0 0 0 0 0 0 0 0 0 8 19 91 146 175 156 119 103 114 113 107 129 125 91 80 97 90 73 77 108 92 88 103 116 124 127 132 130 123 124 119 115 113 107 106 107 121 109 110 131 119 110 119 131 119 116 119 111 123 125 114 114 126 137 128 103 80 73 73 75 90 96 102 149 131 99 97 147 158 142 113 108 84 117 137 139 141 46 1 0 0 0 0 0 0 0 0 0 0 0 0 0 0 0 0 0 0 0 0 0 0 0 0 0 0 0 0 0 0 0 0 0 0 0 0 0 
0 0 0 0 0 0 0 0 0 0 0 0 8 19 86 143 168 143 123 108 111 109 104 122 91 75 75 93 96 75 66 106 94 85 100 115 126 126 130 125 118 116 113 115 118 107 103 113 115 114 119 142 113 106 113 108 128 113 121 120 122 116 114 114 125 136 125 97 80 70 71 74 90 99 109 147 132 104 101 172 185 144 113 106 80 116 126 131 141 49 1 0 0 0 0 0 0 0 0 0 0 0 0 0 0 0 0 0 0 0 0 0 0 0 0 0 0 0 0 0 0 0 0 0 0 0 0 0 
0 0 0 0 0 0 0 0 0 0 0 0 9 17 81 142 165 120 124 105 98 105 105 121 83 79 88 86 99 77 65 98 109 90 105 115 116 119 128 127 117 107 107 109 98 106 115 115 115 120 148 136 125 121 115 103 122 123 117 119 112 116 120 122 128 135 121 92 75 70 67 76 93 95 115 149 131 106 109 180 195 149 122 99 79 114 124 124 145 50 1 0 0 0 0 0 0 0 0 0 0 0 0 0 0 0 0 0 0 0 0 0 0 0 0 0 0 0 0 0 0 0 0 0 0 0 0 0 
0 0 0 0 0 0 0 0 0 0 0 0 6 16 77 139 159 101 126 100 93 106 107 116 86 92 107 81 96 79 63 85 120 97 109 114 113 119 123 123 119 111 106 99 88 95 109 106 111 121 148 124 119 115 114 102 114 137 117 119 116 118 114 123 130 131 113 86 72 68 69 80 101 100 125 149 123 104 107 173 191 150 126 89 78 114 124 131 136 46 1 0 0 0 0 0 0 0 0 0 0 0 0 0 0 0 0 0 0 0 0 0 0 0 0 0 0 0 0 0 0 0 0 0 0 0 0 0 
0 0 0 0 0 0 0 0 0 0 0 0 5 15 70 136 155 93 124 107 92 105 113 112 87 97 108 78 89 83 68 78 124 114 106 114 120 126 122 125 123 120 107 93 83 87 99 108 118 137 136 109 115 121 122 105 107 141 139 127 118 116 112 123 128 125 108 83 70 67 68 80 99 101 129 139 114 95 87 160 188 150 124 79 78 120 123 140 128 41 1 0 0 0 0 0 0 0 0 0 0 0 0 0 0 0 0 0 0 0 0 0 0 0 0 0 0 0 0 0 0 0 0 0 0 0 0 0 
0 0 0 0 0 0 0 0 0 0 0 0 4 15 62 128 156 97 115 116 89 108 121 111 91 90 101 79 85 81 72 78 124 135 112 118 126 132 132 128 124 118 107 95 89 97 112 107 126 149 113 109 113 124 127 111 108 118 149 130 118 114 115 124 130 129 111 84 67 62 65 71 87 99 135 143 115 81 71 144 192 156 118 73 80 119 124 144 115 35 0 0 0 0 0 0 0 0 0 0 0 0 0 0 0 0 0 0 0 0 0 0 0 0 0 0 0 0 0 0 0 0 0 0 0 0 0 0 
0 0 0 0 0 0 0 0 0 0 0 0 1 14 55 123 153 104 102 120 89 105 115 108 95 83 89 76 81 80 79 71 105 140 124 119 127 131 133 130 122 112 104 97 90 96 112 111 142 145 96 104 110 120 129 116 109 107 132 132 135 126 118 127 136 133 113 82 61 58 61 65 85 109 144 148 102 67 62 128 191 160 104 72 81 119 123 149 100 29 0 0 0 0 0 0 0 0 0 0 0 0 0 0 0 0 0 0 0 0 0 0 0 0 0 0 0 0 0 0 0 0 0 0 0 0 0 0 
0 0 0 0 0 0 0 0 0 6 4 0 2 10 49 112 150 116 88 121 91 102 114 113 94 85 78 74 80 82 78 69 85 125 136 118 125 124 131 128 122 117 110 107 110 130 112 128 158 119 100 103 112 120 129 133 117 108 110 146 123 128 132 128 132 129 102 73 58 59 57 60 89 122 132 111 86 58 85 128 188 158 81 69 87 120 127 148 80 24 1 0 0 0 0 0 0 0 0 0 0 0 0 0 0 0 0 0 0 0 0 0 0 0 0 0 0 0 0 0 0 0 0 0 0 0 0 0 
0 0 0 0 0 0 0 0 0 0 3 1 3 10 40 107 145 129 76 115 93 99 108 116 93 85 80 77 78 91 92 68 70 100 140 126 121 123 120 124 124 130 121 111 113 116 124 147 167 97 82 95 106 112 112 106 116 131 112 149 150 132 124 120 127 126 105 71 58 55 54 62 101 118 94 85 73 67 113 143 188 159 64 72 98 112 137 135 67 22 1 0 0 0 0 0 0 0 0 0 0 0 0 0 0 0 0 0 0 0 0 0 0 0 0 0 0 0 0 0 0 0 0 0 0 0 0 0 
0 0 0 0 0 0 0 0 0 0 0 5 3 10 32 101 138 140 70 97 99 94 102 111 90 83 80 76 78 109 117 85 69 89 128 140 124 120 123 126 119 119 107 108 123 128 129 165 147 78 84 95 103 108 111 103 101 117 134 145 155 122 116 123 123 118 91 67 61 54 54 91 133 124 91 90 105 119 137 140 179 149 57 81 99 114 147 116 60 16 0 0 0 0 0 0 0 0 0 0 0 0 0 0 0 0 0 0 0 0 0 0 0 0 0 0 0 0 0 0 0 0 0 0 0 0 0 0 
0 0 0 0 0 0 0 0 0 0 0 12 8 9 27 90 128 153 81 82 111 90 98 113 98 84 82 77 84 115 113 96 75 81 111 130 124 125 121 121 121 116 109 120 127 131 149 154 120 83 86 97 102 111 105 98 105 112 129 142 167 132 119 123 128 122 97 66 64 85 129 149 161 127 121 116 101 115 149 142 168 146 72 96 96 128 148 94 57 12 0 0 0 6 5 0 0 0 0 0 0 0 0 0 0 0 0 0 0 0 0 0 0 0 0 0 0 0 0 0 0 0 0 0 0 0 0 0 
0 0 0 0 0 0 0 0 0 0 0 17 9 7 22 79 119 154 93 70 107 99 96 114 114 105 88 77 89 116 104 84 82 85 102 122 123 127 118 117 118 120 114 116 133 131 134 156 110 77 79 91 102 111 102 96 99 107 137 145 169 136 125 127 127 122 112 97 82 93 135 169 147 117 103 96 106 135 153 150 143 138 106 94 86 132 109 79 57 8 0 0 3 0 0 0 0 0 0 0 0 0 0 0 0 0 0 0 0 0 0 0 0 0 0 0 0 0 0 0 0 0 0 0 0 0 0 0 
0 0 0 0 0 0 0 0 0 0 2 19 4 10 20 69 112 150 117 67 89 108 97 107 135 147 96 83 91 110 90 72 59 69 99 121 131 131 126 119 117 120 123 125 131 109 122 149 109 81 74 94 99 112 102 97 100 125 132 151 171 150 130 126 114 107 102 105 129 144 133 185 180 144 120 80 91 146 164 151 120 149 132 88 127 149 94 81 56 9 5 1 2 0 0 0 0 0 0 0 0 0 0 0 0 0 0 0 0 0 0 0 0 0 0 0 0 0 0 0 0 0 0 0 0 0 0 0 
0 0 0 0 0 0 0 0 0 0 3 15 6 11 14 58 101 146 142 80 79 103 100 99 157 148 89 97 93 113 112 104 91 72 79 103 116 118 138 146 149 145 143 147 121 117 115 139 112 89 89 89 100 107 103 101 107 135 141 149 160 172 164 136 108 88 106 126 151 157 129 177 200 190 140 99 123 171 176 140 96 148 151 122 156 139 88 77 49 8 8 7 1 0 0 0 0 0 0 0 0 0 0 0 0 0 0 0 0 0 0 0 0 0 0 0 0 0 0 0 0 0 0 0 0 0 0 0 
0 0 0 0 0 0 0 0 0 0 1 15 7 5 12 48 87 136 154 100 83 99 104 103 150 154 89 93 130 133 111 108 122 120 115 102 132 151 152 147 155 155 162 130 118 117 121 152 129 94 99 85 98 118 108 110 120 138 150 165 176 160 160 130 99 114 120 127 152 153 158 197 195 189 127 103 143 165 174 146 103 158 173 163 168 143 98 75 32 10 9 8 5 0 0 0 0 0 0 0 0 0 0 0 0 0 0 0 0 0 0 0 0 0 0 0 0 0 0 0 0 0 0 0 0 0 0 0 
0 0 0 0 0 0 0 0 0 0 0 16 8 3 1 32 80 129 159 117 101 123 84 113 152 167 121 93 126 127 119 140 153 142 144 142 163 163 167 153 143 151 153 136 133 145 142 163 136 106 89 92 98 126 115 130 135 133 141 162 171 149 133 115 74 103 112 98 110 140 162 177 159 135 132 152 138 149 162 158 158 181 191 149 160 135 74 64 18 5 1 6 5 0 0 0 0 0 0 0 0 0 0 0 0 0 0 0 0 0 0 0 0 0 0 0 0 0 0 0 0 0 0 0 0 0 0 0 
0 0 0 0 0 0 0 0 0 0 0 8 19 5 3 7 44 97 152 154 123 133 144 101 158 172 144 102 117 142 162 184 177 156 150 162 164 163 138 103 114 138 160 154 156 162 152 158 139 122 117 106 104 141 138 139 141 143 142 146 143 115 97 96 84 83 118 111 103 126 141 166 142 102 122 164 166 157 159 143 147 172 185 190 193 145 88 71 20 0 1 10 9 0 0 0 0 0 0 0 0 0 0 0 0 0 0 0 0 0 0 0 0 0 0 0 0 0 0 0 0 0 0 0 0 0 0 0 
0 0 0 0 0 0 0 0 0 0 0 6 17 5 3 5 27 84 150 158 146 141 133 120 148 168 129 131 116 121 161 204 203 171 137 117 117 135 96 63 75 99 120 122 135 146 150 146 129 118 108 109 106 129 123 125 122 123 119 107 108 82 69 78 82 85 105 132 136 138 133 122 115 94 153 173 151 136 138 147 153 198 214 190 178 130 88 55 7 0 5 9 10 0 0 0 0 0 0 0 0 0 0 0 0 0 0 0 0 0 0 0 0 0 0 0 0 0 0 0 0 0 0 0 0 0 0 0 
0 0 0 0 0 0 0 0 0 0 0 6 11 6 3 6 18 70 133 170 160 137 134 131 142 180 154 139 134 125 150 190 183 142 111 87 98 127 110 68 65 63 80 90 92 98 111 116 101 96 92 72 60 91 100 105 87 85 73 65 72 106 67 59 64 60 89 131 138 135 141 98 57 99 156 162 141 113 123 143 112 165 184 168 147 120 82 34 5 0 9 8 8 0 0 0 0 0 0 0 0 0 0 0 0 0 0 0 0 0 0 0 0 0 0 0 0 0 0 0 0 0 0 0 0 0 0 0 
0 0 0 0 0 0 0 0 0 0 0 6 4 4 3 5 15 50 111 165 171 170 165 152 144 157 157 138 126 134 129 157 185 158 115 99 110 116 103 83 65 67 68 66 69 70 85 90 91 83 100 75 54 64 68 77 59 63 53 51 89 111 70 58 70 74 91 93 95 111 115 64 51 122 128 133 133 103 100 134 111 151 185 164 126 98 63 23 11 3 13 7 2 2 0 0 0 0 0 0 0 0 0 0 0 0 0 0 0 0 0 0 0 0 0 0 0 0 0 0 0 0 0 0 0 0 0 0 
0 0 0 0 0 0 0 0 0 0 0 4 5 0 2 8 19 31 94 147 167 171 168 134 145 137 134 130 111 124 167 150 141 142 152 152 127 106 84 74 50 48 54 63 65 62 74 88 109 119 102 93 80 74 96 94 65 61 64 77 90 120 95 88 90 89 89 91 94 101 101 90 121 135 135 141 113 86 119 144 128 152 167 148 117 95 41 19 16 15 11 0 1 3 0 0 0 0 0 0 0 0 0 0 0 0 0 0 0 0 0 0 0 0 0 0 0 0 0 0 0 0 0 0 0 0 0 0 
0 0 0 0 0 0 0 0 0 0 0 0 6 4 1 15 21 22 72 115 154 168 153 145 138 112 103 117 111 104 134 142 110 110 138 161 134 103 88 97 52 45 49 60 81 80 88 119 115 95 122 116 87 86 110 115 89 94 103 94 104 148 125 114 113 102 95 92 76 107 134 141 119 113 128 126 93 88 129 146 135 142 166 142 105 73 30 22 19 21 7 0 1 3 0 0 0 0 0 0 0 0 0 0 0 0 0 0 0 0 0 0 0 0 0 0 0 0 0 0 0 0 0 0 0 0 0 0 
0 0 0 0 0 0 0 0 0 0 0 0 0 3 6 11 21 19 42 94 135 154 138 149 151 109 93 86 102 105 118 116 115 93 102 150 119 112 115 99 80 67 71 82 88 93 109 134 107 90 120 134 135 135 137 121 132 127 104 89 102 162 182 158 128 102 95 75 103 167 137 127 113 113 122 110 98 109 130 129 146 155 169 141 86 52 27 24 20 16 3 0 2 3 0 0 0 0 0 0 0 0 0 0 0 0 0 0 0 0 0 0 0 0 0 0 0 0 0 0 0 0 0 0 0 0 0 0 
0 0 0 0 0 0 0 0 0 0 0 0 0 0 6 11 14 18 26 69 95 152 138 121 135 148 117 73 77 95 111 121 130 130 111 123 103 94 101 111 103 86 87 82 80 105 109 138 132 150 151 153 158 161 158 147 140 126 107 98 108 155 203 166 108 103 111 123 169 151 112 119 141 149 121 112 104 127 173 130 134 140 156 117 72 39 27 24 16 8 5 5 6 2 0 0 0 0 0 0 0 0 0 0 0 0 0 0 0 0 0 0 0 0 0 0 0 0 0 0 0 0 0 0 0 0 0 0 
0 0 0 0 0 0 0 0 0 0 1 2 0 0 6 11 9 14 20 53 79 153 137 104 130 136 141 98 80 92 101 124 131 132 136 136 103 95 102 109 127 115 111 103 112 140 164 163 157 159 155 151 155 162 172 175 158 147 135 123 129 154 191 187 156 147 151 168 178 143 112 110 126 122 114 132 82 150 190 137 95 104 137 67 60 32 17 11 12 8 1 3 2 0 0 0 0 0 0 0 0 0 0 0 0 0 0 0 0 0 0 0 0 0 0 0 0 0 0 0 0 0 0 0 0 0 0 0 
0 0 0 0 0 0 0 0 0 0 3 6 6 5 7 8 6 2 17 37 58 119 146 113 106 121 139 128 82 89 91 123 144 136 117 109 105 111 126 142 146 175 181 170 153 162 183 182 160 158 156 142 150 163 179 188 188 171 160 144 149 157 171 173 185 160 167 176 158 123 94 80 91 103 114 128 114 148 181 125 87 97 119 47 56 26 12 9 12 10 1 0 0 0 0 0 0 0 0 0 0 0 0 0 0 0 0 0 0 0 0 0 0 0 0 0 0 0 0 0 0 0 0 0 0 0 0 0 
0 0 0 0 0 0 0 0 0 0 1 5 10 15 6 5 4 3 12 28 66 115 152 116 86 96 134 139 114 88 95 110 114 117 115 120 119 121 132 143 148 157 179 175 161 163 163 160 143 147 135 138 142 135 140 161 164 154 135 123 130 153 164 168 185 158 164 158 120 71 50 80 124 121 132 132 134 121 139 107 133 110 112 80 55 21 12 11 10 12 3 0 0 0 0 0 0 0 0 0 0 0 0 0 0 0 0 0 0 0 0 0 0 0 0 0 0 0 0 0 0 0 0 0 0 0 0 0 
0 0 0 0 0 0 0 0 0 0 0 3 11 14 7 5 5 7 14 20 47 110 146 116 95 95 123 117 131 101 95 102 121 122 91 90 98 111 116 118 132 144 173 180 180 165 152 145 140 136 133 155 158 144 133 125 140 152 149 137 140 169 159 158 162 137 137 146 127 83 67 95 120 117 139 141 142 128 149 111 83 96 124 84 32 16 10 9 8 9 6 1 1 3 1 0 0 0 0 0 0 0 0 0 0 0 0 0 0 0 0 0 0 0 0 0 0 0 0 0 0 0 0 0 0 0 0 0 
0 0 0 0 0 0 0 0 0 0 0 5 11 8 10 5 5 7 16 17 25 80 156 132 101 92 119 127 126 138 149 138 153 135 101 85 66 58 66 73 86 126 157 167 185 184 149 128 124 118 140 155 152 163 148 124 133 145 146 118 110 131 104 106 149 144 136 157 166 124 82 98 112 114 138 131 147 120 157 91 32 69 101 50 16 19 9 8 6 1 5 6 6 7 7 0 0 0 0 0 0 0 0 0 0 0 0 0 0 0 0 0 0 0 0 0 0 0 0 0 0 0 0 0 0 0 0 0 
0 0 0 0 0 0 0 0 0 0 0 2 15 10 8 10 12 10 11 15 19 40 132 136 86 72 116 167 170 168 166 138 124 133 111 94 94 85 73 77 65 90 120 127 146 156 131 97 91 97 147 162 158 173 170 125 104 105 110 88 115 133 106 122 166 164 124 141 150 101 150 136 121 126 129 130 130 131 141 81 66 109 99 22 5 10 11 9 2 0 0 9 16 7 2 0 0 0 0 0 0 0 0 0 0 0 0 0 0 0 0 0 0 0 0 0 0 0 0 0 0 0 0 0 0 0 0 0 
0 0 0 0 0 0 0 0 0 0 0 0 15 15 7 6 5 8 3 12 23 30 79 132 99 68 102 171 134 165 170 159 132 121 125 109 121 145 158 153 140 157 167 147 147 157 131 122 131 150 160 156 154 168 176 161 131 124 121 121 127 132 145 162 184 185 155 212 195 145 110 190 189 172 130 90 107 114 133 94 105 112 34 4 3 5 6 8 5 1 5 8 8 2 0 0 0 0 0 0 0 0 0 0 0 0 0 0 0 0 0 0 0 0 0 0 0 0 0 0 0 0 0 0 0 0 0 0 
0 0 0 0 0 0 0 0 0 0 0 0 4 8 3 0 0 1 4 11 19 27 41 96 110 96 120 157 106 149 160 147 154 137 126 117 131 134 116 123 168 183 167 166 174 190 197 174 183 172 176 195 192 196 193 174 156 168 180 196 202 198 199 221 223 183 195 213 165 131 127 139 156 103 84 93 85 82 144 115 95 37 12 10 4 2 4 5 3 6 3 5 7 1 0 0 0 0 0 0 0 0 0 0 0 0 0 0 0 0 0 0 0 0 0 0 0 0 0 0 0 0 0 0 0 0 0 0 
0 0 0 0 0 0 0 0 0 0 0 0 0 4 2 1 0 0 0 9 17 18 22 57 104 118 113 113 88 97 117 89 111 122 114 105 108 119 118 152 171 169 170 212 217 176 208 212 195 165 147 163 148 149 133 118 105 94 120 154 164 155 178 210 144 142 177 150 143 137 139 131 115 95 83 133 144 126 113 61 34 26 28 20 14 2 4 4 2 0 0 8 14 0 0 0 0 0 0 0 0 0 0 0 0 0 0 0 0 0 0 0 0 0 0 0 0 0 0 0 0 0 0 0 0 0 0 0 
0 0 0 0 0 0 0 0 0 0 0 0 0 4 8 9 7 0 0 2 8 11 22 25 43 79 57 85 96 75 75 51 50 61 71 88 75 72 84 86 101 142 148 141 128 125 87 94 133 115 85 88 89 66 75 96 94 69 66 72 68 103 136 149 153 175 114 45 52 55 53 74 57 44 30 92 91 87 63 28 27 24 11 3 4 2 4 5 6 4 4 9 7 0 0 0 0 0 0 0 0 0 0 0 0 0 0 0 0 0 0 0 0 0 0 0 0 0 0 0 0 0 0 0 0 0 0 0 
0 0 0 0 0 0 0 0 0 0 0 0 0 0 6 8 8 2 0 0 6 9 13 15 21 20 19 59 107 85 68 48 35 33 50 74 57 49 99 137 137 135 131 124 108 77 55 59 76 75 62 88 89 91 98 104 95 63 60 61 67 119 127 113 110 129 124 159 175 161 66 57 37 33 31 89 89 84 62 29 27 23 7 3 4 1 5 7 6 5 6 5 0 0 0 0 0 0 0 0 0 0 0 0 0 0 0 0 0 0 0 0 0 0 0 0 0 0 0 0 0 0 0 0 0 0 0 0 
0 0 0 0 0 0 0 0 0 0 0 0 0 0 0 0 2 0 0 0 3 8 11 16 17 23 27 40 107 71 61 54 39 39 50 74 66 99 65 79 129 192 148 129 135 108 66 65 95 83 64 82 81 68 68 76 86 64 73 53 65 123 105 100 97 102 111 27 97 107 127 146 75 49 40 86 75 83 46 23 29 16 5 4 1 0 0 2 4 3 1 0 0 0 0 0 0 0 0 0 0 0 0 0 0 0 0 0 0 0 0 0 0 0 0 0 0 0 0 0 0 0 0 0 0 0 0 0 
0 0 0 0 0 0 0 0 0 0 0 0 0 0 0 0 0 0 0 0 0 2 4 9 10 15 22 20 99 73 55 60 44 60 61 80 87 132 99 102 174 187 98 95 140 175 157 126 138 106 86 90 100 95 83 85 101 80 71 79 90 102 134 144 165 141 58 65 147 136 134 166 150 111 76 89 89 90 38 30 28 22 0 0 0 0 0 0 0 0 0 0 0 0 0 0 0 0 0 0 0 0 0 0 0 0 0 0 0 0 0 0 0 0 0 0 0 0 0 0 0 0 0 0 0 0 0 0 
0 0 0 0 0 0 0 0 0 0 0 0 0 0 0 0 0 0 0 0 0 8 11 3 8 8 7 11 83 78 55 45 39 46 58 86 82 166 120 67 172 187 127 157 132 114 88 159 143 167 218 186 196 175 159 144 142 111 80 83 87 105 146 122 110 156 197 86 101 129 149 173 98 41 18 77 52 60 6 3 2 0 1 6 1 0 1 1 0 0 0 0 0 0 0 0 0 0 0 0 0 0 0 0 0 0 0 0 0 0 0 0 0 0 0 0 0 0 0 0 0 0 0 0 0 0 0 0 
0 0 0 0 0 0 0 0 0 0 0 0 0 0 0 0 0 0 0 0 0 0 4 1 9 12 15 16 68 64 47 47 31 28 37 74 62 117 108 55 128 118 167 103 151 186 135 185 191 134 128 117 115 111 104 105 121 113 89 83 106 114 133 145 90 118 129 118 137 100 153 57 24 11 6 84 62 63 8 3 11 4 3 0 3 5 8 9 6 4 0 0 0 0 0 0 0 0 0 0 0 0 0 0 0 0 0 0 0 0 0 0 0 0 0 0 0 0 0 0 0 0 0 0 0 0 0 0 
0 0 0 0 0 0 0 0 0 0 0 0 0 0 0 0 0 0 0 0 0 0 2 8 5 13 18 19 49 50 49 50 32 31 58 95 70 36 94 166 166 167 134 94 134 166 63 120 154 110 97 66 64 58 65 60 73 89 76 66 90 120 146 127 150 70 73 89 93 76 60 77 57 27 27 87 64 63 14 13 17 11 4 1 0 1 5 6 5 3 0 0 0 0 0 0 0 0 0 0 0 0 0 0 0 0 0 0 0 0 0 0 0 0 0 0 0 0 0 0 0 0 0 0 0 0 0 0 
0 0 0 0 0 0 0 0 0 0 0 0 0 0 0 0 0 0 0 0 0 0 1 7 7 9 21 21 32 44 49 55 43 28 75 130 120 101 103 148 144 123 110 83 87 104 124 183 172 97 80 58 45 47 46 46 62 69 67 62 97 130 166 174 137 84 83 60 56 84 107 102 95 69 40 83 64 68 19 17 21 13 4 1 0 1 4 6 6 3 0 0 0 0 0 0 0 0 0 0 0 0 0 0 0 0 0 0 0 0 0 0 0 0 0 0 0 0 0 0 0 0 0 0 0 0 0 0 
0 0 0 0 0 0 0 0 0 0 0 0 0 0 0 0 0 0 0 0 0 0 1 3 5 7 16 22 23 51 46 57 54 32 105 121 65 67 66 112 95 67 93 92 69 105 158 189 173 96 105 113 69 53 48 54 54 56 85 107 132 129 146 136 82 63 98 72 66 71 69 74 115 137 83 84 61 71 26 18 19 11 3 0 0 0 3 6 6 3 0 0 0 0 0 0 0 0 0 0 0 0 0 0 0 0 0 0 0 0 0 0 0 0 0 0 0 0 0 0 0 0 0 0 0 0 0 0 
0 0 0 0 0 0 0 0 0 0 0 0 0 0 0 0 0 0 0 0 0 0 0 3 3 6 12 18 22 44 58 52 58 38 115 105 41 41 40 46 51 61 117 97 77 96 130 179 166 98 120 138 109 96 89 82 76 97 118 140 150 154 148 135 72 48 106 99 78 66 62 52 60 126 124 92 62 59 38 18 15 10 3 0 0 1 4 6 6 4 0 0 0 0 0 0 0 0 0 0 0 0 0 0 0 0 0 0 0 0 0 0 0 0 0 0 0 0 0 0 0 0 0 0 0 0 0 0 
0 0 0 0 0 0 0 0 0 0 0 0 0 0 0 0 0 0 0 0 0 0 0 0 3 4 11 14 19 24 40 44 53 48 115 97 43 41 38 42 46 91 126 91 93 81 89 152 153 117 143 143 120 125 118 105 104 119 115 149 168 168 111 95 80 57 103 129 94 72 62 47 49 109 134 87 84 61 32 16 16 10 1 0 0 1 5 7 8 6 2 0 0 0 0 0 0 0 0 0 0 0 0 0 0 0 0 0 0 0 0 0 0 0 0 0 0 0 0 0 0 0 0 0 0 0 0 0 
0 0 0 0 0 0 0 0 0 0 0 0 0 0 0 0 0 0 0 0 0 0 0 0 2 2 7 12 17 18 18 35 53 57 102 96 44 42 39 42 62 119 98 73 82 73 78 112 147 130 154 124 107 107 96 100 91 101 107 121 164 163 95 90 84 62 70 120 133 90 63 42 46 118 141 77 72 42 12 15 17 8 1 0 0 0 2 5 7 5 2 0 0 0 0 0 0 0 0 0 0 0 0 0 0 0 0 0 0 0 0 0 0 0 0 0 0 0 0 0 0 0 0 0 0 0 0 0 
0 0 0 0 0 0 0 0 0 0 0 0 0 0 0 0 0 0 0 0 0 0 0 0 2 3 4 11 16 17 19 25 50 62 89 106 43 44 41 43 82 102 72 56 73 73 88 117 138 126 140 98 91 82 81 84 85 86 77 103 143 143 92 88 70 65 66 75 117 97 53 48 46 105 148 79 29 11 12 14 15 9 0 0 0 0 2 5 6 5 2 0 0 0 0 0 0 0 0 0 0 0 0 0 0 0 0 0 0 0 0 0 0 0 0 0 0 0 0 0 0 0 0 0 0 0 0 0 
0 0 0 0 0 0 0 0 0 0 0 0 0 0 0 0 0 0 0 0 0 0 0 0 0 2 4 9 15 21 19 22 38 35 65 106 47 39 37 40 70 81 71 64 76 73 95 126 133 124 115 84 73 79 87 74 68 82 76 99 132 120 87 93 77 64 64 74 97 98 40 40 44 98 124 36 17 13 15 16 14 9 0 0 0 0 1 5 7 6 3 0 0 0 0 0 0 0 0 0 0 0 0 0 0 0 0 0 0 0 0 0 0 0 0 0 0 0 0 0 0 0 0 0 0 0 0 0 
0 0 0 0 0 0 0 0 0 0 0 0 0 0 0 0 0 0 0 0 0 0 0 0 0 0 3 6 11 19 19 18 14 10 36 112 63 40 39 62 89 75 63 67 77 85 102 126 127 128 111 78 63 56 59 59 75 83 82 98 132 106 85 95 85 65 59 65 91 118 66 43 54 113 96 21 14 9 13 18 13 9 0 0 0 0 2 5 6 6 3 0 0 0 0 0 0 0 0 0 0 0 0 0 0 0 0 0 0 0 0 0 0 0 0 0 0 0 0 0 0 0 0 0 0 0 0 0 
0 0 0 0 0 0 0 0 0 0 0 0 0 0 0 0 0 0 0 0 0 0 0 0 0 0 3 7 6 12 18 17 16 14 21 77 117 71 71 106 93 79 56 53 81 97 109 107 120 128 102 73 59 65 50 44 69 69 68 82 128 106 83 119 112 63 50 48 84 123 114 76 95 132 52 19 12 9 11 15 13 9 0 0 0 0 1 3 6 6 3 0 0 0 0 0 0 0 0 0 0 0 0 0 0 0 0 0 0 0 0 0 0 0 0 0 0 0 0 0 0 0 0 0 0 0 0 0 
0 0 0 0 0 0 0 0 0 0 0 0 0 0 0 0 0 0 0 0 0 0 0 0 0 0 1 3 4 9 15 17 18 20 20 21 73 107 89 89 71 83 59 39 55 94 101 82 90 130 104 78 68 66 52 64 87 77 71 82 115 116 111 119 122 78 41 41 79 98 100 92 105 59 29 19 10 8 11 14 12 8 0 0 0 0 0 3 5 5 3 0 0 0 0 0 0 0 0 0 0 0 0 0 0 0 0 0 0 0 0 0 0 0 0 0 0 0 0 0 0 0 0 0 0 0 0 0 
0 0 0 0 0 0 0 0 0 0 0 0 0 0 0 0 0 0 0 0 0 0 0 0 0 0 0 3 1 6 11 15 17 19 16 14 24 27 38 34 49 85 74 46 67 95 96 72 82 143 108 72 67 74 67 80 93 98 95 113 111 113 91 102 122 101 68 57 84 79 42 44 33 24 26 18 12 8 11 11 12 8 0 0 0 0 0 3 5 6 4 0 0 0 0 0 0 0 0 0 0 0 0 0 0 0 0 0 0 0 0 0 0 0 0 0 0 0 0 0 0 0 0 0 0 0 0 0 
0 0 0 0 0 0 0 0 0 0 0 0 0 0 0 0 0 0 0 0 0 0 0 0 0 0 0 0 4 4 12 13 17 21 24 18 20 22 24 29 36 70 84 67 92 113 100 83 118 157 114 77 63 92 100 107 101 95 109 111 125 140 105 85 110 118 101 88 89 60 31 32 26 22 21 15 12 9 11 11 11 7 0 0 0 0 0 3 6 6 4 1 0 0 0 0 0 0 0 0 0 0 0 0 0 0 0 0 0 0 0 0 0 0 0 0 0 0 0 0 0 0 0 0 0 0 0 0 
0 0 0 0 0 0 0 0 0 0 0 0 0 0 0 0 0 0 0 0 0 0 0 0 0 0 0 0 0 5 7 14 14 22 29 19 14 25 22 31 33 47 79 86 98 123 119 104 127 144 124 75 61 73 79 94 94 90 89 97 109 146 145 80 86 104 116 114 85 42 31 30 24 19 21 18 5 10 9 11 10 5 0 0 0 0 0 3 7 7 4 1 0 0 0 0 0 0 0 0 0 0 0 0 0 0 0 0 0 0 0 0 0 0 0 0 0 0 0 0 0 0 0 0 0 0 0 0 
0 0 0 0 0 0 0 0 0 0 0 0 0 0 0 0 0 0 0 0 0 0 0 0 0 0 0 0 0 5 5 13 15 20 29 18 13 25 24 33 33 34 40 70 91 82 57 51 83 141 141 106 89 87 91 97 101 110 105 94 106 145 159 85 66 77 91 82 57 47 29 26 23 20 19 16 5 8 10 12 9 3 0 0 0 0 1 3 5 5 3 0 0 0 0 0 0 0 0 0 0 0 0 0 0 0 0 0 0 0 0 0 0 0 0 0 0 0 0 0 0 0 0 0 0 0 0 0 
0 0 0 0 0 0 0 0 0 0 0 0 0 0 0 0 0 0 0 0 0 0 0 0 0 0 0 0 0 4 5 9 15 15 27 21 17 19 24 30 31 32 31 36 48 55 46 43 52 116 139 127 125 121 120 120 121 134 144 136 134 146 136 71 48 37 39 46 49 46 32 26 24 24 21 13 10 6 12 14 10 3 0 0 0 0 0 2 5 5 4 1 0 0 0 0 0 0 0 0 0 0 0 0 0 0 0 0 0 0 0 0 0 0 0 0 0 0 0 0 0 0 0 0 0 0 0 0 
