P2
128 99
233
0 0 0 0 0 0 0 0 0 0 0 0 0 0 0 0 0 0 0 0 0 0 0 0 0 0 0 0 0 0 0 0 0 0 0 0 0 0 0 0 0 0 0 0 0 0 0 0 0 0 0 0 0 0 0 0 0 0 0 0 0 0 0 0 0 0 0 0 0 0 0 0 0 0 0 0 0 0 0 0 0 0 0 0 0 0 0 0 0 0 0 0 0 0 0 0 0 0 0 0 0 0 0 0 0 0 0 0 0 0 0 0 0 0 0 0 0 0 0 0 0 0 0 0 0 0 0 0 
0 0 0 0 0 0 0 0 0 0 0 0 0 0 0 0 0 0 0 0 0 0 0 0 0 0 0 0 0 0 0 0 0 0 0 0 0 0 0 0 0 0 0 0 0 0 0 0 0 0 0 0 0 0 0 0 0 0 0 0 0 0 0 0 0 0 0 0 0 0 0 0 0 0 0 0 0 0 0 0 0 0 0 0 0 0 0 0 0 0 0 0 0 0 0 0 0 0 0 0 0 0 0 0 0 0 0 0 0 0 0 0 0 0 0 0 0 0 0 0 0 0 0 0 0 0 0 0 
0 0 0 0 0 0 0 0 0 0 0 0 0 0 0 0 0 0 0 0 0 0 0 0 0 0 0 0 0 0 0 0 0 0 0 0 0 0 0 0 0 0 0 0 0 0 0 0 0 0 1 1 1 1 0 0 0 0 0 0 0 0 0 0 0 0 0 0 0 0 0 0 0 0 0 0 0 0 0 0 0 0 0 0 0 0 0 0 0 0 0 0 0 0 0 0 0 0 0 0 0 0 0 0 0 0 0 0 0 0 0 0 0 0 0 0 0 0 0 0 0 0 0 0 0 0 0 0 
0 0 0 0 0 0 0 0 0 0 0 0 0 0 0 0 0 0 0 0 0 0 0 0 0 0 0 0 0 0 0 0 0 0 0 0 0 0 0 0 0 0 0 0 8 14 18 18 18 20 22 23 25 24 24 20 18 17 12 10 4 0 0 0 0 0 0 0 0 0 0 0 0 0 0 0 0 0 0 0 0 0 0 0 0 0 0 0 0 0 0 0 0 0 0 0 0 0 0 0 0 0 0 0 0 0 0 0 0 0 0 0 0 0 0 0 0 0 0 0 0 0 0 0 0 0 0 0 
0 0 0 0 0 0 0 0 0 0 0 0 0 0 0 0 0 0 0 0 0 0 0 0 0 0 0 0 0 0 0 0 0 0 0 0 0 0 0 0 3 11 23 22 22 30 49 73 98 117 131 139 142 142 139 129 116 98 75 51 32 23 14 11 1 0 0 0 0 0 0 0 0 0 0 0 0 0 0 0 0 0 0 0 0 0 0 0 0 0 0 0 0 0 0 0 0 0 0 0 0 0 0 0 0 0 0 0 0 0 0 0 0 0 0 0 0 0 0 0 0 0 0 0 0 0 0 0 
0 0 0 0 0 0 0 0 0 0 0 0 0 0 0 0 0 0 0 0 0 0 0 0 0 0 0 0 0 0 0 0 0 0 0 0 0 0 6 20 22 22 34 63 106 138 155 160 161 164 168 169 168 168 169 169 167 161 153 146 134 112 75 43 24 14 13 0 0 0 0 0 0 0 0 0 0 0 0 0 0 0 0 0 0 0 0 0 0 0 0 0 0 0 0 0 0 0 0 0 0 0 0 0 0 0 0 0 0 0 0 0 0 0 0 0 0 0 0 0 0 0 0 0 0 0 0 0 
0 0 0 0 0 0 0 0 0 0 0 0 0 0 0 0 0 0 0 0 0 0 0 0 0 0 0 0 0 0 0 0 0 0 0 0 6 24 21 26 47 92 138 161 164 168 177 186 195 202 198 194 189 187 187 189 194 197 195 186 174 162 150 137 116 77 39 17 13 2 0 0 0 0 0 0 0 0 0 0 0 0 0 0 0 0 0 0 0 0 0 0 0 0 0 0 0 0 0 0 0 0 0 0 0 0 0 0 0 0 0 0 0 0 0 0 0 0 0 0 0 0 0 0 0 0 0 0 
0 0 0 0 0 0 0 0 0 0 0 0 0 0 0 0 0 0 0 0 0 0 0 0 0 0 0 0 0 0 0 0 0 0 8 24 25 28 56 113 154 164 166 172 182 196 192 172 155 147 151 160 161 149 145 154 166 171 173 178 188 196 190 177 162 147 133 99 49 22 13 1 0 0 0 0 0 0 0 0 0 0 0 0 0 0 0 0 0 0 0 0 0 0 0 0 0 0 0 0 0 0 0 0 0 0 0 0 0 0 0 0 0 0 0 0 0 0 0 0 0 0 0 0 0 0 0 0 
0 0 0 0 0 0 0 0 0 0 0 0 0 0 0 0 0 0 0 0 0 0 0 0 0 0 0 0 0 0 0 0 5 31 27 24 51 118 159 163 162 169 188 195 182 166 152 142 147 156 160 159 153 151 160 164 165 174 183 183 175 169 173 185 195 186 170 157 138 98 44 22 11 0 0 0 0 0 0 0 0 0 0 0 0 0 0 0 0 0 0 0 0 0 0 0 0 0 0 0 0 0 0 0 0 0 0 0 0 0 0 0 0 0 0 0 0 0 0 0 0 0 0 0 0 0 0 0 
0 0 0 0 0 0 0 0 0 0 0 0 0 0 0 0 0 0 0 0 0 0 0 0 0 0 0 0 0 0 0 23 30 21 37 101 158 164 164 171 189 194 172 148 142 147 146 138 132 119 117 128 130 119 118 130 141 149 162 177 193 193 185 175 168 178 197 193 173 157 132 81 30 19 2 0 0 0 0 0 0 0 0 0 0 0 0 0 0 0 0 0 0 0 0 0 0 0 0 0 0 0 0 0 0 0 0 0 0 0 0 0 0 0 0 0 0 0 0 0 0 0 0 0 0 0 0 0 
0 0 0 0 0 0 0 0 0 0 0 0 0 0 0 0 0 0 0 0 0 0 0 0 0 0 0 0 0 11 30 20 25 78 148 164 163 172 192 195 177 159 146 153 152 138 122 114 108 102 105 110 111 114 113 117 123 126 126 136 155 176 191 196 191 180 171 176 193 191 171 150 113 46 22 6 0 0 0 0 0 0 0 0 0 0 0 0 0 0 0 0 0 0 0 0 0 0 0 0 0 0 0 0 0 0 0 0 0 0 0 0 0 0 0 0 0 0 0 0 0 0 0 0 0 0 0 0 
0 0 0 0 0 0 0 0 0 0 0 0 0 0 0 0 0 0 0 0 0 0 0 0 0 0 0 0 22 25 19 45 120 163 162 171 192 195 178 168 160 158 153 145 142 132 130 133 130 150 157 163 166 168 172 166 161 157 154 141 130 140 159 173 188 197 195 185 172 174 193 183 160 133 68 23 11 0 0 0 0 0 0 0 0 0 0 0 0 0 0 0 0 0 0 0 0 0 0 0 0 0 0 0 0 0 0 0 0 0 0 0 0 0 0 0 0 0 0 0 0 0 0 0 0 0 0 0 
0 0 0 0 0 0 0 0 0 0 0 0 0 0 0 0 0 0 0 0 0 0 0 0 0 0 5 24 24 19 69 146 161 163 185 198 181 174 173 163 155 154 147 145 149 160 166 159 161 156 144 141 133 127 139 155 158 160 166 176 179 179 170 160 163 174 185 193 194 185 171 179 189 163 140 81 22 12 0 0 0 0 0 0 0 0 0 0 0 0 0 0 0 0 0 0 0 0 0 0 0 0 0 0 0 0 0 0 0 0 0 0 0 0 0 0 0 0 0 0 0 0 0 0 0 0 0 0 
0 0 0 0 0 0 0 0 0 0 0 0 0 0 0 0 0 0 0 0 0 0 0 0 0 10 22 21 22 88 158 162 170 194 187 174 176 172 161 157 152 154 166 172 179 177 161 148 139 132 125 119 116 117 126 140 144 144 144 145 148 158 180 194 191 179 168 172 183 193 192 173 168 186 168 146 90 26 12 0 0 0 0 0 0 0 0 0 0 0 0 0 0 0 0 0 0 0 0 0 0 0 0 0 0 0 0 0 0 0 0 0 0 0 0 0 0 0 0 0 0 0 0 0 0 0 0 0 
0 0 0 0 0 0 0 0 0 0 0 0 0 0 0 0 0 0 0 0 0 0 0 0 13 21 20 29 104 164 162 176 194 177 172 175 167 157 157 160 169 177 176 162 151 143 139 132 130 129 129 124 122 126 128 128 135 139 136 135 133 127 132 149 172 190 195 182 164 170 185 193 181 167 185 174 149 100 31 11 0 0 0 0 0 0 0 0 0 0 0 0 0 0 0 0 0 0 0 0 0 0 0 0 0 0 0 0 0 0 0 0 0 0 0 0 0 0 0 0 0 0 0 0 0 0 0 0 
0 0 0 0 0 0 0 0 0 0 0 0 0 0 0 0 0 0 0 0 0 0 2 18 19 16 37 120 162 159 179 193 176 172 172 162 156 159 170 169 165 156 130 111 107 101 104 118 117 117 123 116 115 131 129 129 132 135 140 141 137 130 119 118 126 145 171 186 189 166 158 171 188 183 166 182 175 151 109 36 10 0 0 0 0 0 0 0 0 0 0 0 0 0 0 0 0 0 0 0 0 0 0 0 0 0 0 0 0 0 0 0 0 0 0 0 0 0 0 0 0 0 0 0 0 0 0 0 
0 0 0 0 0 0 0 0 0 0 0 0 0 0 0 0 0 0 0 0 0 5 19 15 18 49 134 163 163 183 190 172 168 169 159 153 160 171 161 148 138 124 113 116 109 104 105 107 110 109 108 102 102 121 125 129 132 130 137 148 150 145 134 124 119 119 126 152 176 187 168 152 165 180 181 170 187 178 151 115 38 9 0 0 0 0 0 0 0 0 0 0 0 0 0 0 0 0 0 0 0 0 0 0 0 0 0 0 0 0 0 0 0 0 0 0 0 0 0 0 0 0 0 0 0 0 0 0 
0 0 0 0 0 0 0 0 0 0 0 0 0 0 0 0 0 0 0 0 6 19 12 20 63 141 164 164 187 188 171 169 164 153 145 158 162 141 136 141 141 126 122 119 119 123 124 126 127 126 109 105 106 115 124 127 128 119 116 125 141 151 157 149 131 114 112 117 132 159 181 170 152 164 175 179 176 191 178 153 119 35 6 0 0 0 0 0 0 0 0 0 0 0 0 0 0 0 0 0 0 0 0 0 0 0 0 0 0 0 0 0 0 0 0 0 0 0 0 0 0 0 0 0 0 0 0 0 
0 0 0 0 0 0 0 0 0 0 0 0 0 0 0 0 0 0 0 5 18 11 21 69 141 160 166 181 186 170 169 156 146 134 153 150 135 138 140 130 118 115 121 124 123 115 106 114 115 103 98 97 94 93 100 106 105 99 95 96 99 110 125 145 153 139 118 114 116 121 144 173 168 148 154 173 178 179 192 170 155 113 30 3 0 0 0 0 0 0 0 0 0 0 0 0 0 0 0 0 0 0 0 0 0 0 0 0 0 0 0 0 0 0 0 0 0 0 0 0 0 0 0 0 0 0 0 0 
0 0 0 0 0 0 0 0 0 0 0 0 0 0 0 0 0 0 4 17 12 22 76 140 155 163 179 187 166 167 155 139 131 149 149 138 138 139 122 115 119 118 116 112 100 92 93 94 91 92 92 93 89 91 92 92 92 90 88 89 87 90 91 103 126 149 152 127 119 114 117 139 173 158 142 152 170 176 185 183 162 153 100 20 2 0 0 0 0 0 0 0 0 0 0 0 0 0 0 0 0 0 0 0 0 0 0 0 0 0 0 0 0 0 0 0 0 0 0 0 0 0 0 0 0 0 0 0 
0 0 0 0 0 0 0 0 0 0 0 0 0 0 0 0 0 1 16 11 19 79 135 150 162 171 188 166 165 152 135 133 145 149 138 134 134 117 116 120 112 105 96 92 92 93 91 92 96 99 98 93 94 94 95 92 94 93 90 90 90 90 88 89 94 111 141 151 131 115 111 120 147 167 153 141 153 166 174 194 176 161 143 81 12 0 0 0 0 0 0 0 0 0 0 0 0 0 0 0 0 0 0 0 0 0 0 0 0 0 0 0 0 0 0 0 0 0 0 0 0 0 0 0 0 0 0 0 
0 0 0 0 0 0 0 0 0 0 0 0 0 0 0 0 0 13 11 18 75 128 142 158 167 182 168 162 149 131 126 136 150 141 134 133 111 111 114 101 94 94 94 94 93 94 91 94 103 101 102 100 101 102 95 96 95 91 92 95 96 93 90 89 87 92 106 136 150 130 107 110 127 149 159 147 137 148 163 179 193 165 157 126 52 4 0 0 0 0 0 0 0 0 0 0 0 0 0 0 0 0 0 0 0 0 0 0 0 0 0 0 0 0 0 0 0 0 0 0 0 0 0 0 0 0 0 0 
0 0 0 0 0 0 0 0 0 0 0 0 0 0 0 0 6 13 14 58 126 135 160 162 172 175 157 149 135 123 130 154 141 136 128 106 110 112 98 95 96 93 96 97 99 99 98 98 90 84 93 93 92 98 92 87 88 91 93 99 99 93 92 89 88 88 91 106 132 141 124 101 109 132 151 150 145 132 140 158 195 179 159 150 103 23 1 0 0 0 0 0 0 0 0 0 0 0 0 0 0 0 0 0 0 0 0 0 0 0 0 0 0 0 0 0 0 0 0 0 0 0 0 0 0 0 0 0 
0 0 0 0 0 0 0 0 0 0 0 0 0 0 0 1 14 12 42 118 130 152 161 168 181 161 142 134 121 131 154 144 137 129 108 103 106 100 97 97 89 82 80 81 82 81 80 80 76 78 93 81 74 82 73 71 73 77 80 85 87 92 91 86 87 90 90 93 103 121 134 122 104 117 138 153 151 143 132 138 175 190 164 160 132 72 6 0 0 0 0 0 0 0 0 0 0 0 0 0 0 0 0 0 0 0 0 0 0 0 0 0 0 0 0 0 0 0 0 0 0 0 0 0 0 0 0 0 
0 0 0 0 0 0 0 0 0 0 0 0 0 0 0 8 13 25 96 126 136 162 160 172 178 138 134 124 118 158 147 138 130 109 89 94 99 98 97 90 81 75 74 72 72 70 70 73 68 66 82 74 61 65 62 61 59 60 62 66 70 75 85 89 93 93 95 94 96 104 121 133 120 110 122 150 154 140 140 129 145 190 171 154 150 108 30 0 0 0 0 0 0 0 0 0 0 0 0 0 0 0 0 0 0 0 0 0 0 0 0 0 0 0 0 0 0 0 0 0 0 0 0 0 0 0 0 0 
0 0 0 0 0 0 0 0 0 0 0 0 0 0 2 11 12 67 123 125 154 157 162 181 150 129 127 107 147 156 138 126 107 85 88 96 96 97 97 84 74 69 67 65 62 62 65 68 62 58 73 73 65 69 69 70 68 66 65 62 63 68 73 79 82 88 95 94 94 98 104 119 132 118 109 132 156 139 139 138 125 178 176 161 154 127 65 5 0 0 0 0 0 0 0 0 0 0 0 0 0 0 0 0 0 0 0 0 0 0 0 0 0 0 0 0 0 0 0 0 0 0 0 0 0 0 0 0 
0 0 0 0 0 0 0 0 0 0 0 0 0 0 5 8 34 111 124 139 161 157 165 174 124 129 111 120 162 146 126 99 80 84 95 94 95 96 86 70 67 66 66 67 67 70 75 80 81 85 96 105 107 113 110 108 102 93 84 76 67 66 67 71 76 80 88 92 93 94 99 99 118 129 114 118 148 144 130 144 123 158 175 166 154 142 93 15 0 0 0 0 0 0 0 0 0 0 0 0 0 0 0 0 0 0 0 0 0 0 0 0 0 0 0 0 0 0 0 0 0 0 0 0 0 0 0 0 
0 0 0 0 0 0 0 0 0 0 0 0 0 1 7 14 75 126 131 149 157 152 169 151 121 120 102 151 161 133 104 76 78 95 98 89 96 91 74 67 69 76 79 84 91 100 111 118 124 131 138 145 151 146 137 137 141 137 126 113 97 85 74 71 71 78 86 92 93 95 99 99 98 123 129 117 139 149 116 136 131 139 169 168 156 150 115 32 1 0 0 0 0 0 0 0 0 0 0 0 0 0 0 0 0 0 0 0 0 0 0 0 0 0 0 0 0 0 0 0 0 0 0 0 0 0 0 0 
0 0 0 0 0 0 0 0 0 0 0 0 0 1 9 28 108 120 136 154 151 158 167 133 118 111 108 163 147 113 89 77 93 99 92 94 95 85 78 77 80 88 95 107 123 137 145 146 141 132 122 129 145 114 113 121 138 148 146 147 138 123 101 88 81 78 84 92 93 94 96 98 96 101 127 124 131 147 109 117 135 131 157 168 160 152 130 54 4 0 0 0 0 0 0 0 0 0 0 0 0 0 0 0 0 0 0 0 0 0 0 0 0 0 0 0 0 0 0 0 0 0 0 0 0 0 0 0 
0 0 0 0 0 0 0 0 0 0 0 0 0 3 9 53 126 114 140 158 144 151 160 120 118 107 127 164 128 96 84 91 100 93 88 94 94 91 88 87 91 104 125 144 153 154 136 116 104 103 102 99 116 102 106 107 106 106 111 130 145 152 144 125 105 88 82 89 94 95 96 98 101 96 112 129 128 147 111 100 126 130 144 162 161 147 138 77 6 0 0 0 0 0 0 0 0 0 0 0 0 0 0 0 0 0 0 0 0 0 0 0 0 0 0 0 0 0 0 0 0 0 0 0 0 0 0 0 
0 0 0 0 0 0 0 0 0 0 0 0 0 7 13 88 125 128 145 156 134 150 143 107 109 111 146 152 106 90 90 101 99 89 97 100 99 95 94 98 114 138 156 155 147 120 103 101 97 98 102 99 103 98 101 102 102 101 102 99 104 123 149 154 141 113 92 88 96 97 95 94 96 100 104 122 132 148 114 97 120 130 135 152 164 150 138 93 11 0 0 0 0 0 0 0 0 0 0 0 0 0 0 0 0 0 0 0 0 0 0 0 0 0 0 0 0 0 0 0 0 0 0 0 0 0 0 0 
0 0 0 0 0 0 0 0 0 0 0 0 1 9 28 114 123 140 147 135 133 148 126 102 105 126 147 126 96 86 99 100 98 102 108 104 98 98 105 125 149 156 146 124 108 95 96 97 99 103 102 95 96 95 98 100 101 102 102 99 98 99 112 149 158 149 121 100 100 97 96 91 92 100 107 116 131 154 120 96 110 135 143 144 163 159 143 109 16 0 0 0 0 0 0 0 0 0 0 0 0 0 0 0 0 0 0 0 0 0 0 0 0 0 0 0 0 0 0 0 0 0 0 0 0 0 0 0 
0 0 0 0 0 0 0 0 0 0 0 0 1 9 44 124 120 142 146 128 140 139 117 103 113 133 133 111 90 81 101 98 101 109 112 109 99 107 130 152 156 140 111 98 95 94 94 96 100 101 97 93 90 94 96 98 99 99 101 99 96 95 98 115 148 156 155 133 111 97 90 90 87 93 106 119 126 153 120 96 101 138 148 131 160 161 146 121 25 0 0 0 0 0 0 0 0 0 0 0 0 0 0 0 0 0 0 0 0 0 0 0 0 0 0 0 0 0 0 0 0 0 0 0 0 0 0 0 
0 0 0 0 0 0 0 0 0 0 0 0 1 10 56 125 127 146 152 129 141 130 119 109 124 120 115 113 88 78 99 98 102 110 112 112 107 131 155 157 141 115 101 97 94 93 92 95 93 96 101 101 97 96 95 97 99 99 97 95 96 98 98 99 117 155 165 157 128 101 89 86 84 87 97 116 122 148 118 98 98 138 155 138 163 162 152 126 35 1 0 0 0 0 0 0 0 0 0 0 0 0 0 0 0 0 0 0 0 0 0 0 0 0 0 0 0 0 0 0 0 0 0 0 0 0 0 0 
0 0 0 0 0 0 0 0 0 0 0 0 1 9 63 124 135 141 150 131 135 123 112 113 129 104 109 110 77 80 99 101 105 109 109 120 132 153 161 153 139 108 100 98 94 92 92 93 95 96 99 96 96 95 96 98 100 98 98 99 100 101 104 106 112 151 156 165 154 122 95 88 84 84 91 107 121 143 116 102 92 131 157 139 167 161 160 132 45 3 0 0 0 0 0 0 0 0 0 0 0 0 0 0 0 0 0 0 0 0 0 0 0 0 0 0 0 0 0 0 0 0 0 0 0 0 0 0 
0 0 0 0 0 0 0 0 0 0 0 0 3 8 73 127 140 141 146 133 134 120 116 122 127 91 105 107 75 81 102 105 108 108 115 140 159 160 158 155 151 136 119 103 98 96 92 94 94 98 98 97 96 96 96 99 100 98 100 100 101 105 106 107 116 134 148 164 166 157 133 101 86 82 85 100 121 135 114 103 102 132 160 137 168 161 166 140 53 3 0 0 0 0 0 0 0 0 0 0 0 0 0 0 0 0 0 0 0 0 0 0 0 0 0 0 0 0 0 0 0 0 0 0 0 0 0 0 
0 0 0 0 0 0 0 0 0 0 0 0 6 9 79 127 143 151 149 140 134 124 128 129 123 89 98 109 76 78 103 105 109 123 147 164 168 156 138 127 123 121 126 130 114 100 93 90 96 100 102 96 95 95 99 102 102 99 99 99 101 108 115 116 107 103 102 105 118 134 141 124 101 89 83 96 134 127 114 108 110 128 160 131 163 164 167 147 67 5 0 0 0 0 0 0 0 0 0 0 0 0 0 0 0 0 0 0 0 0 0 0 0 0 0 0 0 0 0 0 0 0 0 0 0 0 0 0 
0 0 0 0 0 0 0 0 0 0 0 0 5 10 85 131 144 153 146 139 133 125 135 134 119 91 93 105 74 79 103 106 126 157 161 145 118 100 96 98 98 102 106 110 112 116 103 98 99 99 99 98 100 99 100 103 103 101 101 100 109 120 106 98 90 82 91 95 101 101 97 96 90 89 102 112 139 131 119 121 109 131 154 125 157 160 166 150 80 6 0 0 0 0 0 0 0 0 0 0 0 0 0 0 0 0 0 0 0 0 0 0 0 0 0 0 0 0 0 0 0 0 0 0 0 0 0 0 
0 0 0 0 0 0 0 0 0 0 0 0 5 11 90 132 145 157 149 137 130 123 140 140 122 94 88 105 82 82 105 128 157 156 123 97 95 95 96 101 100 99 100 101 105 110 119 106 99 101 104 100 107 108 107 104 100 99 103 110 127 105 99 92 84 95 102 104 108 110 100 84 81 97 116 121 132 134 122 120 111 137 150 118 145 154 164 153 92 9 0 0 0 0 0 0 0 0 0 0 0 0 0 0 0 0 0 0 0 0 0 0 0 0 0 0 0 0 0 0 0 0 0 0 0 0 0 0 
0 0 0 0 0 0 0 0 0 0 0 0 7 12 91 132 143 150 146 132 129 119 139 146 121 105 89 103 97 87 116 147 145 111 96 95 95 101 115 126 120 108 103 102 102 107 113 123 103 105 108 106 115 118 115 107 99 100 99 120 109 101 104 103 119 122 125 131 136 135 130 116 104 104 112 122 120 134 129 120 117 135 144 110 134 155 165 156 102 14 0 0 0 0 0 0 0 0 0 0 0 0 0 0 0 0 0 0 0 0 0 0 0 0 0 0 0 0 0 0 0 0 0 0 0 0 0 0 
0 0 0 0 0 0 0 0 0 0 0 0 6 14 90 133 146 162 143 129 131 117 137 145 118 117 94 91 110 106 124 136 108 98 95 94 98 118 130 126 126 127 118 107 101 101 109 116 110 95 92 101 122 129 127 106 95 92 96 111 100 101 99 104 113 109 109 116 127 127 115 99 108 120 105 103 117 133 140 122 121 131 136 100 122 151 163 159 111 21 0 0 0 0 0 0 0 0 0 0 0 0 0 0 0 0 0 0 0 0 0 0 0 0 0 0 0 0 0 0 0 0 0 0 0 0 0 0 
0 0 0 0 0 0 0 0 0 0 0 0 6 15 89 135 148 156 131 127 129 110 134 140 114 112 100 86 100 119 134 121 107 107 113 122 128 126 119 117 114 116 121 116 104 98 100 107 107 85 83 102 126 129 129 99 82 81 96 110 102 103 101 101 100 99 95 102 116 123 122 108 122 107 89 97 108 134 145 123 120 134 132 93 114 150 161 162 116 30 1 0 0 0 0 0 0 0 0 0 0 0 0 0 0 0 0 0 0 0 0 0 0 0 0 0 0 0 0 0 0 0 0 0 0 0 0 0 
0 0 0 0 0 0 0 0 0 0 0 0 6 15 90 133 148 161 127 129 122 107 130 131 110 95 98 92 99 114 134 132 127 130 124 128 127 119 106 100 102 103 104 109 113 104 99 102 107 74 69 100 118 116 119 101 75 72 85 106 108 99 103 105 103 101 98 100 105 109 112 121 118 91 84 87 108 138 143 119 112 134 124 83 108 142 149 160 119 39 2 0 0 0 0 0 0 0 0 0 0 0 0 0 0 0 0 0 0 0 0 0 0 0 0 0 0 0 0 0 0 0 0 0 0 0 0 0 
0 0 0 0 0 0 0 0 0 0 0 0 7 16 96 137 153 160 124 132 113 106 126 131 109 91 98 96 94 95 118 113 111 120 131 129 125 112 99 96 101 103 100 102 105 111 97 90 98 71 70 89 90 99 99 98 80 72 91 110 102 99 104 111 108 104 99 100 100 95 95 99 106 89 87 80 110 143 140 116 105 134 116 71 105 132 146 159 122 45 2 0 0 0 0 0 0 0 0 0 0 0 0 0 0 0 0 0 0 0 0 0 0 0 0 0 0 0 0 0 0 0 0 0 0 0 0 0 
0 0 0 0 0 0 0 0 0 0 0 0 8 18 99 138 156 151 113 125 106 98 121 133 105 84 97 109 95 87 108 104 110 116 123 125 115 103 98 97 99 101 102 101 91 92 92 86 94 82 83 95 72 90 102 100 93 92 116 102 98 102 110 110 103 101 101 100 99 90 89 96 99 93 80 78 113 142 137 117 98 133 112 69 97 123 141 159 125 54 2 0 0 0 0 0 0 0 0 0 0 0 0 0 0 0 0 0 0 0 0 0 0 0 0 0 0 0 0 0 0 0 0 0 0 0 0 0 
0 0 0 0 0 0 0 0 0 0 0 0 8 21 96 138 161 144 89 118 104 87 122 125 85 75 95 119 104 87 95 102 105 112 107 113 111 101 95 95 99 102 99 87 69 62 67 70 86 93 116 125 121 100 105 92 102 77 96 100 109 110 110 102 99 102 102 102 99 89 84 92 96 93 73 79 113 139 129 117 102 135 111 71 103 118 121 153 127 57 3 0 0 0 0 0 0 0 0 0 0 0 0 0 0 0 0 0 0 0 0 0 0 0 0 0 0 0 0 0 0 0 0 0 0 0 0 0 
0 0 0 0 0 0 0 0 0 0 0 0 8 17 92 136 162 138 89 119 100 83 121 120 87 76 101 118 103 90 87 100 101 108 108 113 109 102 98 96 100 104 98 82 64 64 64 68 86 100 109 107 100 68 63 61 94 111 96 103 103 102 108 104 108 108 106 104 97 83 82 90 88 82 70 85 116 135 129 119 106 137 114 73 105 114 114 152 128 59 2 0 0 0 0 0 0 0 0 0 0 0 0 0 0 0 0 0 0 0 0 0 0 0 0 0 0 0 0 0 0 0 0 0 0 0 0 0 
0 0 0 0 0 0 0 0 0 0 0 0 7 17 87 135 162 131 93 116 101 87 119 117 88 75 101 113 101 90 86 100 101 106 108 110 109 101 99 99 98 91 79 61 53 62 62 69 92 118 117 100 82 71 60 55 62 119 97 104 105 104 101 112 112 112 111 105 95 82 80 91 92 77 70 92 125 135 124 115 107 135 113 75 107 109 120 155 124 58 2 0 0 0 0 0 0 0 0 0 0 0 0 0 0 0 0 0 0 0 0 0 0 0 0 0 0 0 0 0 0 0 0 0 0 0 0 0 
0 0 0 0 0 0 0 0 0 0 0 0 6 16 81 133 158 126 92 109 109 88 119 117 92 78 100 111 100 93 88 96 102 107 106 102 112 107 101 101 99 89 66 51 52 56 54 70 94 119 108 106 96 89 79 65 63 102 111 109 103 102 101 113 113 114 112 106 94 80 81 88 94 78 73 98 122 125 111 113 107 127 108 78 107 107 126 146 118 56 2 0 0 0 0 0 0 0 0 0 0 0 0 0 0 0 0 0 0 0 0 0 0 0 0 0 0 0 0 0 0 0 0 0 0 0 0 0 
0 0 0 0 0 0 0 0 0 0 0 0 5 15 76 125 156 125 94 99 112 88 118 119 95 80 98 113 96 90 87 92 97 106 108 102 113 118 107 104 99 87 64 54 57 65 58 56 91 121 110 107 99 106 101 81 74 85 113 107 104 97 99 111 119 118 111 105 90 79 78 86 90 79 81 107 118 116 105 114 112 121 100 83 109 105 134 136 116 52 1 0 0 0 0 0 0 0 0 0 0 0 0 0 0 0 0 0 0 0 0 0 0 0 0 0 0 0 0 0 0 0 0 0 0 0 0 0 
0 0 0 0 0 0 0 0 0 0 0 0 2 13 74 119 151 136 98 91 112 91 107 122 95 79 98 118 99 93 86 93 100 105 106 106 114 119 110 105 98 87 67 57 56 56 54 63 98 111 110 103 97 113 117 95 91 82 104 120 108 103 100 113 118 111 109 104 88 78 73 84 86 86 91 110 113 115 112 117 119 117 88 88 109 103 143 133 110 46 1 0 0 0 0 0 0 0 0 0 0 0 0 0 0 0 0 0 0 0 0 0 0 0 0 0 0 0 0 0 0 0 0 0 0 0 0 0 
0 0 0 0 0 0 0 0 0 9 8 0 0 12 69 114 142 144 109 83 106 92 101 123 97 76 97 116 99 87 83 88 100 100 106 103 106 107 111 102 95 90 76 64 73 65 66 84 99 106 112 100 100 116 124 114 96 91 97 117 128 129 121 120 113 110 120 110 87 79 78 90 84 89 98 114 113 114 117 121 125 108 77 88 103 101 141 128 103 42 1 0 0 0 0 0 0 0 0 0 0 0 0 0 0 0 0 0 0 0 0 0 0 0 0 0 0 0 0 0 0 0 0 0 0 0 0 0 
0 0 0 0 0 0 0 0 0 1 8 3 0 10 63 107 137 143 117 80 97 98 94 119 99 71 95 118 97 80 73 86 101 102 105 102 101 104 110 108 115 109 98 89 82 84 84 81 103 102 99 90 96 105 112 103 104 105 99 117 143 124 113 113 108 105 108 112 86 69 78 84 86 88 104 114 106 108 111 129 134 93 70 93 97 104 140 129 96 39 1 0 0 0 0 0 0 0 0 0 0 0 0 0 0 0 0 0 0 0 0 0 0 0 0 0 0 0 0 0 0 0 0 0 0 0 0 0 
0 0 0 0 0 0 0 0 0 2 4 7 2 9 56 102 131 139 121 75 90 102 89 115 106 71 94 113 95 99 118 94 106 110 104 104 99 105 110 113 118 97 84 74 74 102 115 109 110 94 102 91 91 113 110 102 103 117 115 123 127 118 110 123 119 121 123 110 87 63 75 82 81 87 106 108 130 137 121 138 139 85 78 104 87 117 131 126 93 33 0 0 0 0 0 0 0 0 0 0 0 0 0 0 0 0 0 0 0 0 0 0 0 0 0 0 0 0 0 0 0 0 0 0 0 0 0 0 
0 0 0 0 0 0 0 0 0 1 2 8 1 10 47 97 125 129 129 86 80 107 93 103 113 74 94 106 92 125 145 133 117 117 106 110 107 110 118 121 105 100 91 92 74 97 131 132 103 90 101 92 91 125 106 99 97 101 115 134 132 126 118 134 143 159 163 150 127 105 99 92 102 114 124 127 153 148 121 134 134 85 93 95 97 135 126 118 85 22 0 0 1 10 4 0 0 0 0 0 0 0 0 0 0 0 0 0 0 0 0 0 0 0 0 0 0 0 0 0 0 0 0 0 0 0 0 0 
0 0 0 0 0 0 0 0 0 0 0 9 0 8 38 91 122 132 130 110 75 91 96 96 123 89 90 102 96 134 138 128 120 127 119 114 120 110 108 115 111 103 88 81 96 117 131 130 106 88 85 90 102 125 107 94 93 102 113 134 133 131 126 129 135 134 133 136 120 129 138 129 118 115 111 121 154 157 126 133 119 93 122 116 119 138 126 108 83 16 3 2 5 3 0 0 0 0 0 0 0 0 0 0 0 0 0 0 0 0 0 0 0 0 0 0 0 0 0 0 0 0 0 0 0 0 0 0 
0 0 0 0 0 0 0 0 0 0 0 12 0 7 28 85 121 135 131 124 82 82 92 90 112 107 90 94 95 134 129 115 92 111 124 128 123 109 111 109 98 93 90 97 114 108 116 134 116 85 75 93 106 126 106 96 100 111 119 134 141 141 134 139 144 130 105 80 88 110 136 139 121 114 105 108 149 169 130 134 115 107 126 138 147 141 106 91 74 11 0 0 4 1 1 0 0 0 0 0 0 0 0 0 0 0 0 0 0 0 0 0 0 0 0 0 0 0 0 0 0 0 0 0 0 0 0 0 
0 0 0 0 0 0 0 0 0 0 0 13 2 8 18 73 115 133 139 129 89 77 99 106 105 120 98 96 89 126 127 108 93 102 128 140 127 129 142 151 121 98 103 118 108 106 118 123 117 97 77 83 101 119 113 96 99 122 131 127 140 158 155 146 147 149 124 94 99 133 145 138 138 151 137 133 163 174 147 145 121 129 136 149 176 121 83 76 59 4 0 0 3 0 0 0 0 0 0 0 0 0 0 0 0 0 0 0 0 0 0 0 0 0 0 0 0 0 0 0 0 0 0 0 0 0 0 0 
0 0 0 0 0 0 0 0 0 0 0 13 4 11 14 55 104 123 132 134 98 85 129 119 110 141 130 108 106 122 128 137 151 154 151 138 124 131 132 144 122 108 128 119 103 113 126 133 118 80 72 87 93 125 106 90 104 124 137 128 136 140 156 150 140 149 147 147 150 157 145 132 144 141 135 145 146 155 148 162 157 164 155 187 181 119 118 84 35 2 0 1 3 0 0 0 0 0 0 0 0 0 0 0 0 0 0 0 0 0 0 0 0 0 0 0 0 0 0 0 0 0 0 0 0 0 0 0 
0 0 0 0 0 0 0 0 0 0 1 13 8 13 13 39 100 124 131 135 122 127 142 123 122 154 132 109 116 140 149 151 152 155 125 106 113 119 125 125 116 127 125 109 115 129 125 127 103 80 68 88 104 122 100 103 103 108 129 140 141 148 153 142 110 99 105 140 165 161 152 123 120 110 150 140 140 138 117 152 182 183 174 172 140 97 108 71 16 5 2 2 3 0 0 0 0 0 0 0 0 0 0 0 0 0 0 0 0 0 0 0 0 0 0 0 0 0 0 0 0 0 0 0 0 0 0 0 
0 0 0 0 0 0 0 0 0 0 0 11 10 6 13 15 64 118 132 146 137 147 162 169 153 171 151 129 120 144 163 171 168 133 139 116 96 107 126 119 127 138 139 129 123 117 123 128 111 97 88 90 97 111 126 118 114 118 122 139 139 122 139 129 107 100 102 128 146 133 112 101 96 99 116 147 146 146 125 118 165 180 157 161 136 90 121 82 18 7 4 4 0 3 0 0 0 0 0 0 0 0 0 0 0 0 0 0 0 0 0 0 0 0 0 0 0 0 0 0 0 0 0 0 0 0 0 0 
0 0 0 0 0 0 0 0 0 0 0 10 5 4 10 13 41 109 130 136 154 152 161 160 147 148 165 140 122 142 145 160 180 149 139 132 130 129 131 137 146 147 148 130 123 127 131 132 124 115 104 105 113 121 122 118 113 112 120 127 132 114 103 87 87 96 116 140 140 117 105 77 74 107 114 139 134 138 113 141 154 156 146 146 86 124 124 56 10 6 2 2 0 3 0 0 0 0 0 0 0 0 0 0 0 0 0 0 0 0 0 0 0 0 0 0 0 0 0 0 0 0 0 0 0 0 0 0 
0 0 0 0 0 0 0 0 0 0 0 9 4 2 5 11 24 89 125 128 148 169 163 158 143 132 157 155 146 153 145 140 157 155 150 132 135 130 113 131 144 145 144 132 114 112 127 124 115 109 108 107 99 114 116 112 104 104 110 121 122 107 98 81 53 64 110 144 143 130 108 77 104 136 144 142 136 125 102 139 145 144 105 88 80 126 101 34 8 6 6 2 0 3 0 0 0 0 0 0 0 0 0 0 0 0 0 0 0 0 0 0 0 0 0 0 0 0 0 0 0 0 0 0 0 0 0 0 
0 0 0 0 0 0 0 0 0 0 1 8 2 2 0 7 15 63 126 146 136 137 148 152 122 100 115 143 150 167 171 136 115 124 128 123 121 127 105 92 102 107 114 109 103 114 128 110 99 107 111 108 97 97 114 117 93 91 109 104 86 105 94 110 99 73 78 112 124 105 90 113 139 152 169 172 156 118 107 127 142 139 114 87 78 103 67 11 8 9 8 0 0 4 0 0 0 0 0 0 0 0 0 0 0 0 0 0 0 0 0 0 0 0 0 0 0 0 0 0 0 0 0 0 0 0 0 0 
0 0 0 0 0 0 0 0 0 0 2 8 2 1 0 4 9 36 106 118 121 117 127 138 133 124 109 113 140 175 185 169 120 105 136 142 117 111 114 73 52 62 84 90 87 98 125 112 107 90 87 89 86 83 104 107 78 74 84 88 87 98 116 95 112 83 79 83 86 80 112 147 152 150 167 175 172 150 122 129 143 137 110 62 65 83 43 3 1 1 1 0 0 6 0 0 0 0 0 0 0 0 0 0 0 0 0 0 0 0 0 0 0 0 0 0 0 0 0 0 0 0 0 0 0 0 0 0 
0 0 0 0 0 0 0 0 0 0 3 10 4 0 0 2 10 17 86 122 115 129 140 137 128 121 137 113 114 157 156 132 128 123 136 151 145 125 108 74 64 91 101 106 110 96 120 116 101 99 110 103 77 77 105 113 87 82 93 110 95 104 125 128 120 106 87 79 99 126 138 125 124 120 138 158 178 171 158 134 111 99 80 67 93 76 21 4 1 0 0 0 0 5 0 0 0 0 0 0 0 0 0 0 0 0 0 0 0 0 0 0 0 0 0 0 0 0 0 0 0 0 0 0 0 0 0 0 
0 0 0 0 0 0 0 0 0 0 3 10 8 1 0 3 10 11 56 125 138 119 150 146 135 134 153 131 117 139 147 125 113 129 121 115 110 121 123 90 73 103 106 105 107 97 114 106 91 117 131 125 127 136 140 122 116 112 95 108 113 131 137 125 129 129 94 89 126 122 110 111 112 97 127 163 191 180 165 155 109 99 80 107 102 59 12 6 2 1 0 0 0 6 0 0 0 0 0 0 0 0 0 0 0 0 0 0 0 0 0 0 0 0 0 0 0 0 0 0 0 0 0 0 0 0 0 0 
0 0 0 0 0 0 0 0 0 0 5 10 9 3 0 4 11 11 31 93 116 93 108 139 155 175 160 143 141 139 131 116 115 125 130 117 97 82 95 120 106 111 108 113 122 130 154 131 137 135 124 126 137 154 158 144 127 115 111 131 148 140 164 165 138 131 130 126 130 110 114 115 87 74 104 157 196 186 190 166 131 82 104 120 93 37 7 6 2 1 0 0 0 7 2 0 0 0 0 0 0 0 0 0 0 0 0 0 0 0 0 0 0 0 0 0 0 0 0 0 0 0 0 0 0 0 0 0 
0 0 0 0 0 0 0 0 0 0 4 10 9 4 1 4 10 12 20 70 124 122 80 105 170 169 162 146 143 137 125 116 115 133 131 119 110 105 105 119 155 142 142 149 140 155 166 142 126 119 123 136 147 147 140 140 155 156 133 139 152 145 164 178 156 131 144 144 136 116 107 91 74 77 85 129 182 183 192 156 132 101 121 126 81 19 7 7 4 2 0 0 2 8 4 0 0 0 0 0 0 0 0 0 0 0 0 0 0 0 0 0 0 0 0 0 0 0 0 0 0 0 0 0 0 0 0 0 
0 0 0 0 0 0 0 0 0 0 1 9 9 1 1 5 8 12 12 44 112 129 94 85 154 158 178 163 144 156 137 130 126 123 120 127 126 126 127 126 129 158 157 143 135 142 132 133 122 122 132 153 154 171 150 138 151 171 139 144 164 151 147 164 184 159 135 144 139 111 85 75 78 94 100 135 141 172 178 132 105 104 123 131 67 14 8 8 5 2 0 2 7 10 5 0 0 0 0 0 0 0 0 0 0 0 0 0 0 0 0 0 0 0 0 0 0 0 0 0 0 0 0 0 0 0 0 0 
0 0 0 0 0 0 0 0 0 0 0 3 17 8 3 5 7 9 14 26 84 114 112 103 126 138 169 171 158 144 145 142 140 110 86 92 106 124 129 128 129 145 160 156 148 141 133 142 147 141 155 178 163 168 148 121 127 153 131 160 185 152 154 166 171 155 114 128 136 103 82 85 86 104 137 128 140 158 163 136 81 55 50 106 43 14 7 7 5 2 1 2 8 10 6 0 0 0 0 0 0 0 0 0 0 0 0 0 0 0 0 0 0 0 0 0 0 0 0 0 0 0 0 0 0 0 0 0 
0 0 0 0 0 0 0 0 0 0 0 8 16 12 7 5 6 7 14 20 54 106 129 123 101 86 145 150 164 119 122 149 138 104 96 95 98 102 112 128 132 145 176 168 172 172 153 160 167 142 138 174 168 142 138 120 112 122 112 158 170 133 152 192 173 162 141 127 126 97 76 68 94 119 146 149 162 156 155 109 87 40 57 83 24 14 4 4 3 0 0 1 8 10 6 0 0 0 0 0 0 0 0 0 0 0 0 0 0 0 0 0 0 0 0 0 0 0 0 0 0 0 0 0 0 0 0 0 
0 0 0 0 0 0 0 0 0 0 0 7 15 8 6 7 10 11 14 16 29 69 112 113 81 108 127 127 157 133 115 145 145 92 82 99 114 112 117 120 120 135 180 175 158 168 166 175 176 157 140 167 153 136 107 102 102 99 97 144 159 162 184 170 179 159 140 119 104 93 84 103 133 140 146 135 157 138 138 96 61 57 87 58 15 14 5 4 1 0 1 6 13 10 1 0 0 0 0 0 0 0 0 0 0 0 0 0 0 0 0 0 0 0 0 0 0 0 0 0 0 0 0 0 0 0 0 0 
0 0 0 0 0 0 0 0 0 0 0 1 8 11 10 9 7 10 12 15 19 39 78 111 109 108 125 154 137 144 129 139 165 128 101 82 69 65 83 104 134 150 183 189 177 156 153 167 162 159 153 151 140 140 130 99 93 100 104 132 144 163 175 193 173 146 111 107 121 120 128 123 132 132 119 118 126 94 110 65 55 83 77 31 11 9 11 10 5 9 6 5 13 4 0 0 0 0 0 0 0 0 0 0 0 0 0 0 0 0 0 0 0 0 0 0 0 0 0 0 0 0 0 0 0 0 0 0 
0 0 0 0 0 0 0 0 0 0 0 0 4 10 6 7 5 5 7 13 18 29 55 67 97 122 155 174 134 164 145 132 150 139 126 113 98 91 80 100 112 165 173 180 193 164 139 160 173 174 138 120 124 131 138 146 128 112 126 130 127 149 177 182 133 156 140 144 173 176 167 127 122 128 115 75 88 76 100 82 76 69 42 25 12 2 2 4 9 8 5 3 11 2 0 0 0 0 0 0 0 0 0 0 0 0 0 0 0 0 0 0 0 0 0 0 0 0 0 0 0 0 0 0 0 0 0 0 
0 0 0 0 0 0 0 0 0 0 0 0 1 3 7 5 4 2 2 14 20 27 36 57 75 92 120 134 109 156 138 129 147 124 95 91 90 97 130 161 186 192 187 173 190 205 183 188 182 167 135 143 160 143 137 148 150 158 172 164 147 172 202 180 201 219 176 183 180 108 128 139 113 84 85 88 85 55 86 60 63 49 38 35 11 1 0 0 4 5 6 11 11 0 0 0 0 0 0 0 0 0 0 0 0 0 0 0 0 0 0 0 0 0 0 0 0 0 0 0 0 0 0 0 0 0 0 0 
0 0 0 0 0 0 0 0 0 0 0 0 0 2 3 4 3 0 0 11 17 24 22 46 74 71 63 95 91 113 98 111 157 145 107 102 107 120 145 180 197 191 191 200 200 233 220 205 161 131 119 129 153 122 97 98 92 92 110 138 149 168 186 146 133 159 161 152 145 135 118 90 81 63 75 93 101 80 79 48 53 48 42 32 13 0 0 0 3 4 7 6 3 0 0 0 0 0 0 0 0 0 0 0 0 0 0 0 0 0 0 0 0 0 0 0 0 0 0 0 0 0 0 0 0 0 0 0 
0 0 0 0 0 0 0 0 0 0 0 0 0 1 3 4 7 4 3 1 8 13 20 21 34 33 27 70 78 86 56 55 110 123 62 49 56 56 64 74 118 170 180 195 192 184 141 104 100 73 67 86 87 71 69 60 60 43 62 65 81 100 86 101 128 144 97 47 54 60 62 64 66 40 37 55 91 76 65 32 30 19 14 6 2 1 6 7 2 1 0 4 2 0 0 0 0 0 0 0 0 0 0 0 0 0 0 0 0 0 0 0 0 0 0 0 0 0 0 0 0 0 0 0 0 0 0 0 
0 0 0 0 0 0 0 0 0 0 0 0 0 0 1 0 2 5 5 0 3 8 16 16 23 22 21 50 87 91 49 42 83 126 73 42 42 64 67 70 95 103 81 70 105 132 85 44 56 56 41 59 71 79 68 56 50 38 56 51 69 69 55 61 66 79 52 45 54 63 68 49 65 52 41 52 96 76 64 33 26 21 15 4 2 2 3 0 0 0 2 3 1 0 0 0 0 0 0 0 0 0 0 0 0 0 0 0 0 0 0 0 0 0 0 0 0 0 0 0 0 0 0 0 0 0 0 0 
0 0 0 0 0 0 0 0 0 0 0 0 0 0 0 0 0 0 0 0 1 7 11 18 19 33 31 47 94 91 65 46 79 132 110 71 56 68 122 133 141 145 95 82 84 104 96 61 69 67 63 81 86 91 87 71 74 56 83 107 117 107 96 100 100 112 73 42 78 77 66 56 83 82 72 84 113 97 73 47 38 31 26 13 2 0 0 0 0 0 0 0 0 0 0 0 0 0 0 0 0 0 0 0 0 0 0 0 0 0 0 0 0 0 0 0 0 0 0 0 0 0 0 0 0 0 0 0 
0 0 0 0 0 0 0 0 0 0 0 0 0 0 0 0 0 0 0 0 0 4 5 13 15 43 59 74 116 117 88 54 69 109 67 59 77 122 116 128 136 152 149 108 119 150 135 145 121 109 119 119 120 116 100 108 100 93 119 173 179 176 158 146 137 127 109 132 138 146 140 92 86 79 107 101 106 106 69 46 24 12 9 3 0 0 0 0 0 0 0 0 0 0 0 0 0 0 0 0 0 0 0 0 0 0 0 0 0 0 0 0 0 0 0 0 0 0 0 0 0 0 0 0 0 0 0 0 
0 0 0 0 0 0 0 0 0 0 0 0 0 0 0 0 0 0 0 0 0 6 6 5 9 31 58 70 102 98 73 60 88 93 68 79 79 130 108 97 150 139 129 132 159 196 190 133 120 143 139 142 177 195 195 181 154 153 174 198 199 192 177 175 160 137 118 173 189 129 115 94 69 52 49 51 66 70 42 41 31 24 27 6 0 0 0 0 0 0 0 0 0 0 0 0 0 0 0 0 0 0 0 0 0 0 0 0 0 0 0 0 0 0 0 0 0 0 0 0 0 0 0 0 0 0 0 0 
0 0 0 0 0 0 0 0 0 0 0 0 0 0 0 0 0 0 0 0 0 0 2 1 9 25 38 45 72 75 68 48 67 91 52 68 87 99 81 75 92 93 92 96 117 126 140 127 111 134 129 119 148 141 164 168 173 162 162 164 137 130 113 129 142 99 83 109 153 149 97 79 52 55 101 100 88 80 44 36 11 6 4 0 0 0 0 0 0 0 0 0 0 0 0 0 0 0 0 0 0 0 0 0 0 0 0 0 0 0 0 0 0 0 0 0 0 0 0 0 0 0 0 0 0 0 0 0 
0 0 0 0 0 0 0 0 0 0 0 0 0 0 0 0 0 0 0 0 0 0 1 6 13 15 17 24 53 60 65 52 52 89 32 28 41 71 102 107 97 76 88 97 132 138 134 125 125 139 115 92 136 98 111 114 125 128 110 124 77 90 110 76 85 105 106 119 107 96 93 47 38 46 96 112 68 63 29 26 16 10 4 0 0 0 0 0 0 0 0 0 0 0 0 0 0 0 0 0 0 0 0 0 0 0 0 0 0 0 0 0 0 0 0 0 0 0 0 0 0 0 0 0 0 0 0 0 
0 0 0 0 0 0 0 0 0 0 0 0 0 0 0 0 0 0 0 0 0 0 1 5 11 15 16 18 37 58 59 61 57 96 32 25 27 49 91 85 90 69 92 128 125 136 122 105 128 112 68 54 81 72 67 64 80 92 83 77 64 89 113 100 57 91 106 129 129 100 83 45 25 40 85 114 71 66 27 19 17 12 5 0 0 0 0 0 0 0 0 0 0 0 0 0 0 0 0 0 0 0 0 0 0 0 0 0 0 0 0 0 0 0 0 0 0 0 0 0 0 0 0 0 0 0 0 0 
0 0 0 0 0 0 0 0 0 0 0 0 0 0 0 0 0 0 0 0 0 0 0 2 9 13 14 16 25 49 58 66 55 95 31 28 35 47 76 99 92 65 74 104 97 106 111 109 135 122 91 71 61 53 48 51 68 63 78 92 100 108 130 125 110 110 110 112 133 118 84 43 28 38 76 118 69 64 31 20 15 12 4 0 0 0 0 0 0 0 0 0 0 0 0 0 0 0 0 0 0 0 0 0 0 0 0 0 0 0 0 0 0 0 0 0 0 0 0 0 0 0 0 0 0 0 0 0 
0 0 0 0 0 0 0 0 0 0 0 0 0 0 0 0 0 0 0 0 0 0 0 1 3 13 11 14 21 32 50 62 55 99 30 34 57 68 75 87 69 51 78 91 84 83 111 133 149 121 103 90 65 54 51 59 54 61 83 108 110 121 118 119 88 96 104 92 96 115 110 65 42 36 79 118 72 54 37 18 14 11 2 0 0 0 0 0 0 0 0 0 0 0 0 0 0 0 0 0 0 0 0 0 0 0 0 0 0 0 0 0 0 0 0 0 0 0 0 0 0 0 0 0 0 0 0 0 
0 0 0 0 0 0 0 0 0 0 0 0 0 0 0 0 0 0 0 0 0 0 0 0 2 9 11 12 16 21 32 52 55 100 36 46 70 65 73 57 43 61 88 76 74 70 106 155 131 76 89 97 81 67 69 65 64 81 106 113 104 109 118 108 73 93 111 97 66 74 97 83 67 46 76 110 92 63 29 15 15 9 1 0 0 0 0 0 0 0 0 0 0 0 0 0 0 0 0 0 0 0 0 0 0 0 0 0 0 0 0 0 0 0 0 0 0 0 0 0 0 0 0 0 0 0 0 0 
0 0 0 0 0 0 0 0 0 0 0 0 0 0 0 0 0 0 0 0 0 0 0 0 3 4 10 9 14 17 24 42 51 99 53 51 71 76 61 36 44 89 105 95 86 77 90 130 102 63 91 93 81 93 94 76 89 107 116 108 112 96 132 105 65 81 117 117 72 40 57 75 71 58 72 103 65 35 16 16 14 8 0 0 0 0 0 0 0 0 0 0 0 0 0 0 0 0 0 0 0 0 0 0 0 0 0 0 0 0 0 0 0 0 0 0 0 0 0 0 0 0 0 0 0 0 0 0 
0 0 0 0 0 0 0 0 0 0 0 0 0 0 0 0 0 0 0 0 0 0 0 0 0 2 7 11 11 16 21 37 48 79 66 52 77 86 54 33 44 98 117 112 86 66 83 122 98 66 88 81 65 92 102 95 87 96 93 86 87 86 138 115 74 81 111 121 94 41 42 87 85 63 67 88 31 16 18 17 15 7 0 0 0 0 0 0 0 0 0 0 0 0 0 0 0 0 0 0 0 0 0 0 0 0 0 0 0 0 0 0 0 0 0 0 0 0 0 0 0 0 0 0 0 0 0 0 
0 0 0 0 0 0 0 0 0 0 0 0 0 0 0 0 0 0 0 0 0 0 0 0 0 2 6 12 11 16 18 34 42 42 80 73 104 84 44 35 45 95 115 84 63 52 70 119 104 71 88 78 51 55 70 75 73 72 72 69 65 78 138 124 80 64 80 113 105 46 39 80 119 92 80 49 14 17 19 20 16 6 0 0 0 0 0 0 0 0 0 0 0 0 0 0 0 0 0 0 0 0 0 0 0 0 0 0 0 0 0 0 0 0 0 0 0 0 0 0 0 0 0 0 0 0 0 0 
0 0 0 0 0 0 0 0 0 0 0 0 0 0 0 0 0 0 0 0 0 0 0 0 0 0 5 11 12 16 20 21 24 19 48 90 115 71 35 38 44 89 102 66 51 45 59 116 105 80 88 79 58 52 58 64 63 68 66 66 74 92 141 119 69 63 58 95 116 54 39 52 105 107 66 27 14 17 18 19 14 5 0 0 0 0 0 0 0 0 0 0 0 0 0 0 0 0 0 0 0 0 0 0 0 0 0 0 0 0 0 0 0 0 0 0 0 0 0 0 0 0 0 0 0 0 0 0 
0 0 0 0 0 0 0 0 0 0 0 0 0 0 0 0 0 0 0 0 0 0 0 0 0 0 1 10 9 11 19 18 22 21 15 30 62 58 36 33 46 98 108 59 48 40 59 107 99 96 86 75 61 55 54 58 62 63 66 64 63 83 127 117 71 55 58 103 128 65 41 49 70 57 30 23 12 16 17 17 12 6 1 0 0 0 0 0 0 0 0 0 0 0 0 0 0 0 0 0 0 0 0 0 0 0 0 0 0 0 0 0 0 0 0 0 0 0 0 0 0 0 0 0 0 0 0 0 
0 0 0 0 0 0 0 0 0 0 0 0 0 0 0 0 0 0 0 0 0 0 0 0 0 0 0 3 13 8 14 19 18 24 16 17 36 63 56 50 65 116 117 68 54 47 67 109 94 85 101 102 82 67 62 71 71 68 76 82 78 93 113 120 98 61 52 102 143 103 68 73 68 32 27 23 13 18 15 16 11 7 2 0 0 0 0 0 0 0 0 0 0 0 0 0 0 0 0 0 0 0 0 0 0 0 0 0 0 0 0 0 0 0 0 0 0 0 0 0 0 0 0 0 0 0 0 0 
0 0 0 0 0 0 0 0 0 0 0 0 0 0 0 0 0 0 0 0 0 0 0 0 0 0 0 1 7 9 10 17 17 19 17 16 23 40 65 68 78 114 121 74 63 69 96 108 88 81 101 104 81 68 64 71 70 74 85 80 75 99 112 117 113 75 59 103 141 105 80 73 38 26 27 24 15 18 17 15 10 7 2 0 0 0 0 0 0 0 0 0 0 0 0 0 0 0 0 0 0 0 0 0 0 0 0 0 0 0 0 0 0 0 0 0 0 0 0 0 0 0 0 0 0 0 0 0 
0 0 0 0 0 0 0 0 0 0 0 0 0 0 0 0 0 0 0 0 0 0 0 0 0 0 0 0 3 8 8 17 16 16 18 16 17 21 30 44 49 78 125 110 85 96 103 97 86 78 89 91 74 70 79 86 88 77 87 91 65 81 122 117 114 86 79 118 127 67 52 36 28 25 25 21 17 16 16 13 10 7 2 0 0 0 0 0 0 0 0 0 0 0 0 0 0 0 0 0 0 0 0 0 0 0 0 0 0 0 0 0 0 0 0 0 0 0 0 0 0 0 0 0 0 0 0 0 
0 0 0 0 0 0 0 0 0 0 0 0 0 0 0 0 0 0 0 0 0 0 0 0 0 0 0 0 0 8 7 15 15 17 16 18 13 16 23 26 29 42 103 126 116 104 94 83 85 87 92 90 87 81 85 96 96 94 88 79 76 82 112 115 107 92 101 133 86 39 36 28 26 22 23 21 14 16 16 13 11 7 2 0 0 0 0 0 0 0 0 0 0 0 0 0 0 0 0 0 0 0 0 0 0 0 0 0 0 0 0 0 0 0 0 0 0 0 0 0 0 0 0 0 0 0 0 0 
0 0 0 0 0 0 0 0 0 0 0 0 0 0 0 0 0 0 0 0 0 0 0 0 0 0 0 0 0 8 3 13 15 17 17 14 16 16 21 26 30 33 53 93 124 103 78 70 82 87 101 104 101 95 93 96 99 105 109 81 90 96 106 101 86 95 113 83 42 37 34 27 23 21 18 17 12 17 14 13 10 5 1 0 0 0 0 0 0 0 0 0 0 0 0 0 0 0 0 0 0 0 0 0 0 0 0 0 0 0 0 0 0 0 0 0 0 0 0 0 0 0 0 0 0 0 0 0 
0 0 0 0 0 0 0 0 0 0 0 0 0 0 0 0 0 0 0 0 0 0 0 0 0 0 0 0 0 5 4 7 18 16 15 16 15 19 23 24 27 33 34 34 46 68 64 59 74 95 104 104 101 97 99 106 110 106 120 98 104 104 101 89 78 69 57 53 42 35 28 32 23 22 20 14 16 17 15 13 10 5 1 0 0 0 0 0 0 0 0 0 0 0 0 0 0 0 0 0 0 0 0 0 0 0 0 0 0 0 0 0 0 0 0 0 0 0 0 0 0 0 0 0 0 0 0 0 
