P2
128 99
229
0 0 0 0 0 0 0 0 0 0 0 0 0 0 0 0 0 0 0 0 0 0 0 0 0 0 0 0 0 0 0 2 5 6 3 0 0 0 0 0 0 0 0 0 0 0 0 0 0 0 0 0 0 0 0 0 0 0 0 0 0 0 0 0 0 0 0 0 0 0 0 0 0 0 0 0 0 0 0 0 0 0 0 0 0 0 0 0 0 0 0 0 3 5 6 11 13 0 0 0 0 0 0 0 0 0 0 0 0 0 0 0 0 0 0 0 0 0 0 0 0 0 0 0 0 0 0 0 
0 0 0 0 0 0 0 0 0 0 0 0 0 0 0 0 0 0 0 0 0 0 0 0 0 0 0 0 0 0 0 2 4 6 3 0 0 0 0 0 0 0 0 0 0 0 0 0 0 0 0 0 0 0 0 0 0 0 0 0 0 0 0 0 0 0 0 0 0 0 0 0 0 0 0 0 0 0 0 0 0 0 0 0 0 0 0 0 0 0 0 0 3 5 6 10 12 0 0 0 0 0 0 0 0 0 0 0 0 0 0 0 0 0 0 0 0 0 0 0 0 0 0 0 0 0 0 0 
0 0 0 0 0 0 0 0 0 0 0 0 0 0 0 0 0 0 0 0 0 0 0 0 0 0 0 0 0 0 0 2 4 5 3 0 0 0 0 0 0 0 0 0 0 0 0 0 0 0 1 2 3 4 1 0 0 0 0 0 0 0 0 0 0 0 0 0 0 0 0 0 0 0 0 0 0 0 0 0 0 0 0 0 0 0 0 0 0 0 0 0 2 5 6 10 12 0 0 0 0 0 0 0 0 0 0 0 0 0 0 0 0 0 0 0 0 0 0 0 0 0 0 0 0 0 0 0 
0 0 0 0 0 0 0 0 0 0 0 0 0 0 0 0 0 0 0 0 0 0 0 0 0 0 0 0 0 0 0 2 3 4 2 0 0 0 0 0 0 0 0 1 6 12 19 20 18 18 22 25 30 29 27 24 18 13 13 10 5 0 0 0 0 0 0 0 0 0 0 0 0 0 0 0 0 0 0 0 0 0 0 0 0 0 0 0 0 0 0 0 2 5 6 11 12 0 0 0 0 0 0 0 0 0 0 0 0 0 0 0 0 0 0 0 0 0 0 0 0 0 0 0 0 0 0 0 
0 0 0 0 0 0 0 0 0 0 0 0 0 0 0 0 0 0 0 0 0 0 0 0 0 0 0 0 0 0 0 1 3 3 1 0 0 0 0 0 5 16 18 24 22 34 55 76 96 113 123 130 134 134 133 126 111 94 71 53 35 20 15 11 3 0 0 0 0 0 0 0 0 0 0 0 0 0 0 0 0 0 0 0 0 0 0 0 0 0 0 0 2 5 5 10 12 0 0 0 0 0 0 0 0 0 0 0 0 0 0 0 0 0 0 0 0 0 0 0 0 0 0 0 0 0 0 0 
0 0 0 0 0 0 0 0 0 0 0 0 0 0 0 0 0 0 0 0 0 0 0 0 0 0 0 0 0 0 0 0 2 2 0 0 0 0 10 16 23 23 39 69 106 133 147 162 175 180 184 183 181 178 179 180 182 183 179 163 136 104 72 47 22 15 11 1 0 0 0 0 0 0 0 0 0 0 0 0 0 0 0 0 0 0 0 0 0 0 0 0 2 4 5 10 12 0 0 0 0 0 0 0 0 0 0 0 0 0 0 0 0 0 0 0 0 0 0 0 0 0 0 0 0 0 0 0 
0 0 0 0 0 0 0 0 0 0 0 0 0 0 0 0 0 0 0 0 0 0 0 0 0 0 0 0 0 0 0 0 2 1 0 0 7 19 24 22 52 100 136 155 172 184 190 179 168 165 167 169 172 173 173 173 169 164 161 164 174 181 170 142 107 70 42 17 14 2 0 0 0 0 0 0 0 0 0 0 0 0 0 0 0 0 0 0 0 0 0 0 2 5 6 10 12 0 0 0 0 0 0 0 0 0 0 0 0 0 0 0 0 0 0 0 0 0 0 0 0 0 0 0 0 0 0 0 
0 0 0 0 0 0 0 0 0 0 0 0 0 0 0 0 0 0 0 0 0 0 0 0 0 0 0 0 0 0 0 0 2 1 7 22 25 24 63 117 147 166 182 189 180 165 160 155 157 164 170 174 171 158 158 170 183 187 185 177 167 160 158 173 182 165 130 87 48 23 14 1 0 0 0 0 0 0 0 0 0 0 0 0 0 0 0 0 0 0 0 0 3 5 6 11 13 0 0 0 0 0 0 0 0 0 0 0 0 0 0 0 0 0 0 0 0 0 0 0 0 0 0 0 0 0 0 0 
0 0 0 0 0 0 0 0 0 0 0 0 0 0 0 0 0 0 0 0 0 0 0 0 0 0 0 0 0 0 0 0 7 28 25 21 61 121 149 167 179 180 169 170 177 177 167 160 157 146 142 142 142 137 136 138 149 171 187 188 186 182 174 166 159 162 178 172 138 91 48 23 11 0 0 0 0 0 0 0 0 0 0 0 0 0 0 0 0 0 0 0 4 6 6 12 12 0 0 0 0 0 0 0 0 0 0 0 0 0 0 0 0 0 0 0 0 0 0 0 0 0 0 0 0 0 0 0 
0 0 0 0 0 0 0 0 0 0 0 0 0 0 0 0 0 0 0 0 0 0 0 0 0 0 0 0 0 0 0 25 25 18 40 111 150 160 172 174 165 171 179 176 162 148 139 139 135 133 136 146 149 147 147 139 136 140 152 170 184 189 188 185 178 168 159 159 175 170 131 74 28 18 3 0 0 0 0 0 0 0 0 0 0 0 0 0 0 0 0 0 4 6 6 11 13 0 0 0 0 0 0 0 0 0 0 0 0 0 0 0 0 0 0 0 0 0 0 0 0 0 0 0 0 0 0 0 
0 0 0 0 0 0 0 0 0 0 0 0 0 0 0 0 0 0 0 0 0 0 0 0 0 0 0 0 0 12 26 19 26 88 145 157 168 175 165 172 186 175 156 149 134 123 129 133 156 169 151 145 148 155 170 176 175 167 166 172 172 180 188 191 191 188 180 171 162 164 179 160 104 44 23 6 0 0 0 0 0 0 0 0 0 0 0 0 0 0 0 1 4 6 6 11 13 0 0 0 0 0 0 0 0 0 0 0 0 0 0 0 0 0 0 0 0 0 0 0 0 0 0 0 0 0 0 0 
0 0 0 0 0 0 0 0 0 0 0 0 0 0 0 0 0 0 0 0 0 0 0 0 0 0 0 0 23 22 22 50 126 153 161 176 171 173 184 180 153 143 147 153 158 168 157 145 143 142 146 153 153 142 138 143 138 138 139 146 167 180 191 195 194 192 192 188 181 173 164 169 179 135 64 24 11 0 0 0 0 0 0 0 0 0 0 0 0 0 0 0 3 5 6 11 13 0 0 0 0 0 0 0 0 0 0 0 0 0 0 0 0 0 0 0 0 0 0 0 0 0 0 0 0 0 0 0 
0 0 0 0 0 0 0 0 0 0 0 0 0 0 0 0 0 0 0 0 0 0 0 0 0 0 5 26 22 20 75 145 155 171 176 171 181 187 164 148 167 177 174 173 158 140 131 124 123 113 111 113 110 108 109 122 121 119 120 125 133 154 175 181 195 204 201 193 191 189 180 169 164 179 149 80 26 14 0 0 0 0 0 0 0 0 0 0 0 0 0 0 4 6 6 12 13 0 0 0 0 0 0 0 0 0 0 0 0 0 0 0 0 0 0 0 0 0 0 0 0 0 0 0 0 0 0 0 
0 0 0 0 0 0 0 0 0 0 0 0 0 0 0 0 0 0 0 0 0 0 0 0 0 10 23 21 25 98 148 159 183 177 178 186 180 159 170 188 182 161 147 138 120 119 122 123 121 118 99 88 86 98 109 113 124 127 129 127 125 125 138 161 170 177 192 205 199 191 189 187 174 161 177 156 89 30 14 0 0 0 0 0 0 0 0 0 0 0 0 1 4 6 6 12 13 0 0 0 0 0 0 0 0 0 0 0 0 0 0 0 0 0 0 0 0 0 0 0 0 0 0 0 0 0 0 0 
0 0 0 0 0 0 0 0 0 0 0 0 0 0 0 0 0 0 0 0 0 0 0 0 13 21 19 34 116 150 166 187 177 185 189 172 166 190 189 162 144 136 129 122 121 122 129 125 119 111 107 107 106 109 112 110 115 128 133 126 121 121 120 132 149 156 167 175 188 198 190 186 189 178 160 176 160 98 34 13 0 0 0 0 0 0 0 0 0 0 0 1 4 6 6 11 14 0 0 0 0 0 0 0 0 0 0 0 0 0 0 0 0 0 0 0 0 0 0 0 0 0 0 0 0 0 0 0 
0 0 0 0 0 0 0 0 0 0 0 0 0 0 0 0 0 0 0 0 0 0 4 17 20 18 44 127 150 179 186 172 186 180 162 173 194 171 145 133 126 123 123 113 113 114 115 112 102 97 104 107 104 102 103 105 107 112 126 134 133 132 130 127 131 141 150 156 165 177 193 191 187 190 180 158 174 162 106 39 11 0 0 0 0 0 0 0 0 0 0 1 4 6 6 11 14 0 0 0 0 0 0 0 0 0 0 0 0 0 0 0 0 0 0 0 0 0 0 0 0 0 0 0 0 0 0 0 
0 0 0 0 0 0 0 0 0 0 0 0 0 0 0 0 0 0 0 0 0 5 16 16 21 58 133 147 185 185 175 184 171 158 174 186 159 135 127 124 134 135 122 120 116 95 86 79 79 77 83 95 92 93 98 104 111 117 124 128 125 118 123 126 128 130 133 145 149 158 170 180 181 182 190 184 159 174 160 114 40 9 0 0 0 0 0 0 0 0 0 1 4 6 6 12 14 0 0 0 0 0 0 0 0 0 0 0 0 0 0 0 0 0 0 0 0 0 0 0 0 0 0 0 0 0 0 0 
0 0 0 0 0 0 0 0 0 0 0 0 0 0 0 0 0 0 0 0 6 14 14 23 69 140 147 180 182 175 182 161 155 176 179 141 112 111 127 139 141 133 128 121 111 107 105 104 102 98 100 106 110 114 116 118 117 116 123 128 132 135 134 132 125 123 122 122 130 140 148 165 180 173 168 185 186 159 169 158 121 38 7 0 0 0 0 0 0 0 0 1 4 6 6 12 14 0 0 0 0 0 0 0 0 0 0 0 0 0 0 0 0 0 0 0 0 0 0 0 0 0 0 0 0 0 0 0 
0 0 0 0 0 0 0 0 0 0 0 0 0 0 0 0 0 0 0 6 14 11 23 76 140 146 177 180 172 179 156 147 174 169 126 109 117 133 147 147 135 124 119 116 117 118 118 118 119 118 119 116 116 121 118 115 112 111 113 113 116 123 129 135 131 119 116 125 124 123 132 144 165 178 163 163 184 186 162 172 154 116 29 4 0 0 0 0 0 0 0 1 4 5 6 13 14 0 0 0 0 0 0 0 0 0 0 0 0 0 0 0 0 0 0 0 0 0 0 0 0 0 0 0 0 0 0 0 
0 0 0 0 0 0 0 0 0 0 0 0 0 0 0 0 0 0 5 14 10 22 78 140 144 174 182 173 174 150 145 167 164 124 107 109 136 152 143 127 118 111 110 113 114 113 112 116 122 123 116 101 102 119 117 114 110 108 105 105 105 106 111 119 132 137 126 119 119 122 122 128 143 167 175 156 160 186 185 169 168 147 101 19 1 0 0 0 0 0 0 1 4 6 6 13 14 0 0 0 0 0 0 0 0 0 0 0 0 0 0 0 0 0 0 0 0 0 0 0 0 0 0 0 0 0 0 0 
0 0 0 0 0 0 0 0 0 0 0 0 0 0 0 0 0 3 15 10 25 73 133 146 166 180 173 172 149 137 161 159 125 112 115 142 150 127 111 110 106 104 107 109 112 109 108 111 119 121 101 94 96 115 119 113 113 107 103 103 108 99 99 103 111 124 135 134 127 121 117 110 122 149 173 172 145 162 190 175 172 155 144 78 8 0 0 0 0 0 0 1 4 6 6 14 14 0 0 0 0 0 0 0 0 0 0 0 0 0 0 0 0 0 0 0 0 0 0 0 0 0 0 0 0 0 0 0 
0 0 0 0 0 0 0 0 0 0 0 0 0 0 0 0 0 11 9 21 65 123 143 163 176 179 172 149 136 160 163 124 115 124 142 144 118 106 102 100 101 106 107 110 112 112 108 112 116 109 102 100 101 108 121 124 121 116 114 110 111 107 102 101 99 104 115 132 136 128 118 101 95 114 150 178 167 134 168 188 178 169 151 135 49 3 0 0 0 0 0 1 4 7 7 14 14 0 0 0 0 0 0 0 0 0 0 0 0 0 0 0 0 0 0 0 0 0 0 0 0 0 0 0 0 0 0 0 
0 0 0 0 0 0 0 0 0 0 0 0 0 0 0 0 5 11 15 56 117 141 158 168 180 168 151 134 154 163 131 113 128 138 136 114 100 99 99 101 109 110 110 109 107 102 102 109 119 117 118 121 125 124 122 120 124 124 117 109 103 99 97 92 87 82 92 116 131 134 126 114 92 87 112 153 183 154 127 172 177 185 157 148 109 25 2 0 0 0 0 1 4 6 7 14 15 0 0 0 0 0 0 0 0 0 0 0 0 0 0 0 0 0 0 0 0 0 0 0 0 0 0 0 0 0 0 0 
0 0 0 0 0 0 0 0 0 0 0 0 0 0 0 3 12 11 49 109 128 157 165 180 169 152 135 142 161 133 112 130 139 138 110 96 98 97 106 108 105 102 100 101 104 115 123 133 139 136 142 144 147 139 130 123 128 132 132 128 118 109 101 92 89 84 80 95 116 130 134 118 100 91 96 114 163 180 138 138 173 183 177 146 136 77 9 0 0 0 0 1 4 7 7 15 15 0 0 0 0 0 0 0 0 0 0 0 0 0 0 0 0 0 0 0 0 0 0 0 0 0 0 0 0 0 0 0 
0 0 0 0 0 0 0 0 0 0 0 0 0 0 0 8 11 30 94 115 149 160 165 178 152 142 129 150 141 117 130 137 137 117 98 99 108 108 107 100 99 99 104 112 120 131 140 148 140 135 141 140 136 125 121 118 123 128 126 132 132 126 114 96 94 92 87 85 101 114 133 132 112 91 92 97 125 172 164 130 153 169 190 152 146 112 33 2 0 0 0 1 4 6 6 14 15 0 0 0 0 0 0 0 0 0 0 0 0 0 0 0 0 0 0 0 0 0 0 0 0 0 0 0 0 0 0 0 
0 0 0 0 0 0 0 0 0 0 0 0 0 0 4 9 13 79 110 131 160 158 169 156 137 130 132 146 122 123 135 135 123 105 101 108 111 105 103 102 102 102 109 120 128 133 138 138 124 113 114 116 111 106 105 110 110 112 121 132 139 143 132 116 104 97 94 85 87 101 111 135 133 107 93 96 105 143 170 141 130 144 183 167 144 134 66 6 0 0 0 1 5 6 7 14 15 0 0 0 0 0 0 0 0 0 0 0 0 0 0 0 0 0 0 0 0 0 0 0 0 0 0 0 0 0 0 0 
0 0 0 0 0 0 0 0 0 0 0 0 0 0 7 7 44 106 115 159 154 158 166 142 134 113 134 134 123 131 133 121 105 102 105 109 103 104 103 99 97 105 117 124 125 122 117 114 103 100 103 107 103 90 60 64 92 101 105 115 124 139 142 136 119 102 94 89 83 87 100 119 136 127 109 97 102 118 153 140 133 129 163 181 145 144 93 18 1 0 0 1 4 6 6 13 15 0 0 0 0 0 0 0 0 0 0 0 0 0 0 0 0 0 0 0 0 0 0 0 0 0 0 0 0 0 0 0 
0 0 0 0 0 0 0 0 0 0 0 0 0 1 6 13 83 106 134 160 154 153 156 133 124 100 136 127 130 133 120 103 99 107 105 104 101 99 88 88 99 115 124 121 115 110 107 103 103 91 86 98 101 66 61 71 83 104 106 110 116 123 130 138 139 129 107 96 91 85 86 104 122 133 128 109 99 111 136 123 138 137 148 182 158 146 116 37 2 0 0 1 4 6 7 13 15 0 0 0 0 0 0 0 0 0 0 0 0 0 0 0 0 0 0 0 0 0 0 0 0 0 0 0 0 0 0 0 
0 0 0 0 0 0 0 0 0 0 0 0 0 3 6 35 101 108 157 151 154 154 140 132 105 104 138 128 131 121 111 99 108 112 103 106 98 80 77 95 115 121 117 109 109 110 109 105 95 80 75 82 99 80 87 99 104 102 96 110 111 109 109 117 134 147 127 105 96 87 84 89 107 121 135 128 100 108 130 112 127 149 146 181 167 147 131 58 3 0 0 1 4 6 7 13 15 0 0 0 0 0 0 0 0 0 0 0 0 0 0 0 0 0 0 0 0 0 0 0 0 0 0 0 0 0 0 0 
0 0 0 0 0 0 0 0 0 0 0 0 0 4 8 66 107 117 161 146 141 150 141 117 94 112 136 133 121 113 104 98 112 112 105 95 74 74 96 118 119 109 102 106 112 109 100 91 90 88 86 90 101 93 99 108 105 100 91 88 91 100 100 101 113 141 151 129 107 97 88 89 103 106 126 135 110 101 130 112 109 146 143 172 168 141 138 79 8 0 0 1 4 7 7 14 15 0 0 0 0 0 0 0 0 0 0 0 0 0 0 0 0 0 0 0 0 0 0 0 0 0 0 0 0 0 0 0 
0 0 0 0 0 0 0 0 0 0 0 0 0 6 15 90 107 139 156 138 135 149 133 99 88 118 141 130 106 108 100 105 121 109 102 85 77 102 120 120 108 74 67 77 95 94 90 96 98 100 99 104 106 99 114 123 116 110 105 93 84 84 91 99 99 114 147 154 130 108 94 92 102 104 112 131 116 96 121 115 101 141 147 169 171 141 140 94 12 0 0 1 4 7 8 15 15 0 0 0 0 0 0 0 0 0 0 0 0 0 0 0 0 0 0 0 0 0 0 0 0 0 0 0 0 0 0 0 
0 0 0 0 0 0 0 0 0 0 0 0 2 7 34 102 113 155 149 126 127 146 118 94 84 127 141 118 98 102 102 109 119 110 96 85 108 129 125 99 66 69 72 77 82 90 100 107 114 118 112 116 115 118 134 129 122 117 119 115 96 86 81 85 98 98 119 153 159 129 105 96 101 103 109 122 117 96 116 114 99 141 145 165 170 151 142 102 15 0 0 1 5 7 8 15 16 0 0 0 0 0 0 0 0 0 0 0 0 0 0 0 0 0 0 0 0 0 0 0 0 0 0 0 0 0 0 0 
0 0 0 0 0 0 0 0 0 0 0 0 4 6 53 106 119 160 138 121 131 135 105 90 87 142 133 108 94 103 108 116 120 109 97 119 135 131 104 66 69 70 77 82 83 94 111 117 118 112 108 120 119 130 134 132 133 126 119 100 84 83 85 82 78 98 106 129 161 156 127 102 100 104 107 119 116 95 111 109 93 138 144 161 167 159 141 113 24 0 0 1 5 6 7 15 16 0 0 0 0 0 0 0 0 0 0 0 0 0 0 0 0 0 0 0 0 0 0 0 0 0 0 0 0 0 0 0 
0 0 0 0 0 0 0 0 0 0 0 0 3 6 64 109 129 162 134 125 132 127 104 92 98 147 123 106 95 109 114 119 119 113 122 139 135 121 84 72 75 77 81 84 85 86 103 113 112 108 116 132 132 135 134 124 116 117 104 86 86 85 85 85 84 82 96 110 144 166 156 125 105 104 101 113 109 98 109 106 91 132 142 156 164 168 137 126 34 2 0 1 4 7 7 15 16 0 0 0 0 0 0 0 0 0 0 0 0 0 0 0 0 0 0 0 0 0 0 0 0 0 0 0 0 0 0 0 
0 0 0 0 0 0 0 0 0 0 0 0 4 7 72 110 141 158 130 138 130 115 108 100 114 142 118 99 92 113 116 120 123 128 140 135 116 105 103 78 78 81 84 85 83 82 81 90 96 109 126 142 142 135 126 117 108 105 96 87 84 86 87 87 86 88 106 110 128 152 164 158 132 109 98 106 104 102 114 95 89 134 142 156 164 171 137 138 46 2 0 1 5 6 7 16 16 0 0 0 0 0 0 0 0 0 0 0 0 0 0 0 0 0 0 0 0 0 0 0 0 0 0 0 0 0 0 0 
0 0 0 0 0 0 0 0 0 0 0 0 4 8 78 113 151 146 129 143 129 113 109 109 124 135 116 92 96 118 120 126 141 146 137 121 115 105 103 98 95 94 85 83 84 83 82 84 87 105 122 131 146 139 125 112 103 100 93 87 84 85 85 87 88 112 112 105 118 142 160 168 170 140 104 109 104 110 101 80 95 135 142 155 164 171 139 146 60 3 0 1 5 7 7 16 16 0 0 0 0 0 0 0 0 0 0 0 0 0 0 0 0 0 0 0 0 0 0 0 0 0 0 0 0 0 0 0 
0 0 0 0 0 0 0 0 0 0 0 0 4 10 81 117 160 142 132 149 127 116 109 123 125 126 114 89 95 115 124 147 155 140 132 120 95 81 79 85 88 93 93 83 80 80 81 79 88 101 114 123 142 135 115 107 104 97 92 85 84 83 86 99 97 96 97 96 93 108 134 161 178 174 144 115 109 120 103 83 100 141 142 159 162 168 141 145 71 5 0 1 5 7 7 15 15 0 0 0 0 0 0 0 0 0 0 0 0 0 0 0 0 0 0 0 0 0 0 0 0 0 0 0 0 0 0 0 
0 0 0 0 0 0 0 0 0 0 0 0 6 11 88 122 166 145 133 151 129 122 108 133 129 122 112 85 92 115 143 168 155 142 117 103 101 93 91 101 100 95 84 83 92 89 81 81 86 96 104 113 133 127 107 106 105 97 87 79 81 89 96 97 101 98 98 89 80 93 111 118 140 168 169 153 126 125 99 90 108 137 141 157 155 171 148 144 86 7 0 1 4 7 7 15 15 0 0 0 0 0 0 0 0 0 0 0 0 0 0 0 0 0 0 0 0 0 0 0 0 0 0 0 0 0 0 0 
0 0 0 0 0 0 0 0 0 0 0 0 7 12 90 127 168 145 136 154 123 126 117 142 136 121 114 86 92 128 164 169 156 120 103 98 94 93 94 95 94 96 96 90 81 84 87 80 82 91 104 103 110 116 105 107 107 94 81 78 87 90 86 85 86 87 89 88 80 84 102 101 97 126 165 179 156 136 98 97 106 128 138 150 142 167 153 146 103 10 0 1 5 6 7 14 15 0 0 0 0 0 0 0 0 0 0 0 0 0 0 0 0 0 0 0 0 0 0 0 0 0 0 0 0 0 0 0 
0 0 0 0 0 0 0 0 0 0 0 0 7 15 92 132 168 137 134 150 113 125 115 137 138 109 121 106 105 151 172 165 122 93 87 85 83 84 83 84 83 86 83 86 92 86 83 80 80 87 104 105 105 111 106 110 106 90 79 86 94 79 79 81 87 89 90 89 79 81 105 115 116 126 137 172 174 138 102 101 96 119 135 143 128 157 153 143 116 14 0 1 4 7 7 14 15 0 0 0 0 0 0 0 0 0 0 0 0 0 0 0 0 0 0 0 0 0 0 0 0 0 0 0 0 0 0 0 
0 0 0 0 0 0 0 0 0 0 0 0 7 17 88 134 170 141 137 140 111 130 117 131 137 110 115 125 135 160 172 141 95 83 84 85 84 82 82 83 84 82 82 78 78 83 82 82 79 82 98 107 117 116 113 108 103 87 86 103 83 74 74 83 89 95 103 107 95 97 115 118 118 122 134 141 149 132 108 97 94 115 137 135 127 158 154 142 127 21 0 1 4 7 7 15 15 0 0 0 0 0 0 0 0 0 0 0 0 0 0 0 0 0 0 0 0 0 0 0 0 0 0 0 0 0 0 0 
0 0 0 0 0 0 0 0 0 0 0 0 7 19 92 136 168 140 123 132 108 127 120 129 128 115 113 123 145 172 170 128 110 95 95 91 85 83 79 84 89 82 79 77 79 77 87 88 78 83 99 108 115 99 106 106 102 86 95 96 74 68 79 96 110 115 111 106 95 88 104 113 114 122 136 134 124 122 108 98 93 111 135 127 125 154 157 144 132 30 0 2 5 7 8 15 15 0 0 0 0 0 0 0 0 0 0 0 0 0 0 0 0 0 0 0 0 0 0 0 0 0 0 0 0 0 0 0 
0 0 0 0 0 0 0 0 0 0 0 0 7 19 92 138 164 140 115 133 112 122 116 123 120 116 103 116 137 161 143 119 101 92 99 102 103 104 106 108 107 101 86 76 79 77 81 90 76 85 105 103 92 95 94 108 107 94 97 86 71 82 103 106 103 105 111 103 89 87 106 114 116 123 125 131 115 116 110 103 94 104 124 121 118 143 153 146 134 40 1 1 5 8 9 15 15 0 0 0 0 0 0 0 0 0 0 0 0 0 0 0 0 0 0 0 0 0 0 0 0 0 0 0 0 0 0 0 
0 0 0 0 0 0 0 0 0 0 0 0 8 19 94 147 161 141 115 135 114 115 110 107 116 112 103 112 133 143 124 117 105 95 101 100 102 99 100 99 101 100 101 95 82 77 76 85 78 79 101 95 85 88 91 106 102 92 91 80 88 101 89 84 87 94 102 100 89 88 106 116 116 121 116 122 114 113 109 103 91 102 114 119 115 131 140 147 134 45 2 1 5 8 8 16 15 0 0 0 0 0 0 0 0 0 0 0 0 0 0 0 0 0 0 0 0 0 0 0 0 0 0 0 0 0 0 0 
0 0 0 0 0 0 0 0 0 0 0 0 8 17 93 149 159 143 109 135 109 110 95 95 115 112 105 103 127 120 117 112 96 99 100 103 107 109 109 96 80 83 88 98 98 89 77 75 87 80 102 101 95 117 117 119 106 95 98 93 95 82 75 78 82 87 95 94 84 85 108 117 118 116 112 118 116 111 107 115 102 101 107 104 118 118 131 147 137 49 1 1 5 8 8 16 16 0 0 0 0 0 0 0 0 0 0 0 0 0 0 0 0 0 0 0 0 0 0 0 0 0 0 0 0 0 0 0 
0 0 0 0 0 0 0 0 0 0 0 0 8 16 88 149 155 142 106 124 103 105 76 89 117 113 97 99 122 123 114 109 101 103 107 100 102 103 105 86 78 76 74 79 89 98 91 89 82 90 107 107 106 86 90 89 130 118 102 90 81 81 79 75 82 87 92 89 79 82 108 118 116 112 111 117 119 105 99 120 112 104 105 105 126 109 119 137 136 54 2 1 5 7 8 15 15 0 0 0 0 0 0 0 0 0 0 0 0 0 0 0 0 0 0 0 0 0 0 0 0 0 0 0 0 0 0 0 
0 0 0 0 0 0 0 0 0 0 0 0 8 16 84 147 152 137 99 113 112 96 71 86 115 106 94 95 116 130 106 100 110 104 106 101 101 104 105 91 79 77 78 79 73 81 100 80 78 95 117 126 98 85 76 70 101 112 92 95 87 94 85 82 81 87 94 88 77 82 107 117 119 108 106 119 121 104 107 121 115 108 101 100 131 102 123 134 133 55 3 1 5 7 7 14 14 0 0 0 0 0 0 0 0 0 0 0 0 0 0 0 0 0 0 0 0 0 0 0 0 0 0 0 0 0 0 0 
0 0 0 0 0 0 0 0 0 0 0 0 7 13 78 146 146 131 95 111 121 99 71 82 114 115 104 96 110 133 112 100 112 97 103 100 98 101 104 100 81 77 76 77 77 80 85 75 77 92 91 106 79 75 79 75 80 121 82 88 82 87 81 81 83 88 90 82 76 82 104 114 117 107 110 125 126 114 108 120 120 112 100 97 134 92 125 136 131 53 3 1 5 7 7 14 15 0 0 0 0 0 0 0 0 0 0 0 0 0 0 0 0 0 0 0 0 0 0 0 0 0 0 0 0 0 0 0 
0 0 0 0 0 0 0 0 0 0 0 0 5 11 70 141 139 126 89 103 127 95 72 78 107 118 106 96 104 135 125 101 114 108 101 94 96 103 108 106 88 80 75 77 75 75 80 72 80 96 88 81 70 71 77 72 79 109 97 78 81 79 77 81 85 87 87 79 71 76 99 111 114 105 114 126 129 104 100 118 120 115 98 102 128 84 126 135 130 47 3 1 5 6 7 14 15 0 0 0 0 0 0 0 0 0 0 0 0 0 0 0 0 0 0 0 0 0 0 0 0 0 0 0 0 0 0 0 
0 0 0 0 0 0 0 0 0 0 0 0 4 11 63 139 137 127 96 97 129 93 72 72 98 113 105 95 100 135 143 103 109 114 106 108 105 104 106 102 91 77 76 73 68 67 76 75 82 86 88 71 72 76 89 78 73 84 116 83 81 80 82 85 87 89 93 79 66 70 93 111 115 109 117 125 124 98 93 117 121 112 97 114 114 82 130 136 125 41 2 1 4 6 7 14 14 0 0 0 0 0 0 0 0 0 0 0 0 0 0 0 0 0 0 0 0 0 0 0 0 0 0 0 0 0 0 0 
0 0 0 0 0 0 0 0 0 0 0 0 2 12 54 130 134 127 105 90 126 96 70 71 90 102 103 99 107 144 151 101 96 107 105 106 101 98 102 100 89 72 74 74 67 71 71 77 80 91 90 66 76 80 95 76 68 70 118 101 103 90 83 88 88 93 95 75 63 66 90 113 113 113 121 116 98 93 91 112 121 106 104 124 98 82 131 136 115 35 2 0 4 6 7 14 15 0 0 0 0 0 0 0 0 0 0 0 0 0 0 0 0 0 0 0 0 0 0 0 0 0 0 0 0 0 0 0 
0 0 0 0 0 0 0 0 0 5 4 0 1 9 45 120 136 122 113 83 119 108 73 70 84 94 104 98 122 160 160 98 87 97 102 102 102 95 102 101 95 77 76 72 74 98 85 83 84 91 87 66 80 94 86 74 74 69 98 105 114 116 105 89 90 101 94 70 61 68 92 110 111 120 115 94 86 97 97 105 116 106 115 120 85 91 130 134 97 27 3 1 4 7 8 15 14 0 0 0 0 0 0 0 0 0 0 0 0 0 0 0 0 0 0 0 0 0 0 0 0 0 0 0 0 0 0 0 
0 0 0 0 0 0 0 0 0 0 2 5 3 7 38 109 144 117 121 86 110 118 87 71 76 81 104 99 133 157 159 111 75 93 109 100 95 93 93 92 94 91 78 79 96 96 110 76 90 90 86 73 78 94 84 90 89 78 84 103 123 125 120 119 108 101 91 75 65 71 93 111 113 118 101 86 111 135 127 105 115 109 120 107 74 98 128 128 81 21 2 1 4 6 7 13 14 0 0 0 0 0 0 0 0 0 0 0 0 0 0 0 0 0 0 0 0 0 0 0 0 0 0 0 0 0 0 0 
0 0 0 0 0 0 0 0 0 0 4 10 5 7 32 99 144 120 117 97 98 114 105 90 83 76 96 101 141 145 133 130 75 78 98 94 85 86 88 86 88 84 81 101 119 111 95 75 99 92 69 65 77 92 73 77 95 78 79 104 111 111 111 125 122 109 92 81 68 79 103 113 110 117 92 104 132 131 147 119 135 137 122 91 74 112 134 120 69 16 1 0 4 7 7 13 14 0 0 0 0 0 0 0 0 0 0 0 0 0 0 0 0 0 0 0 0 0 0 0 0 0 0 0 0 0 0 0 
0 0 0 0 0 0 0 0 0 0 9 16 4 6 25 88 135 131 111 103 91 114 112 93 88 77 90 102 139 147 132 118 93 69 91 93 86 87 86 90 98 94 111 116 112 92 78 84 102 88 63 70 82 90 77 74 92 83 83 108 123 123 103 101 115 116 114 92 85 101 135 141 136 135 117 111 98 105 146 140 135 146 115 79 88 117 135 107 66 13 1 0 4 11 10 12 14 0 0 0 0 0 0 0 0 0 0 0 0 0 0 0 0 0 0 0 0 0 0 0 0 0 0 0 0 0 0 0 
0 0 0 0 0 0 0 0 0 0 10 17 0 7 23 77 129 146 105 113 99 100 113 98 87 84 80 103 128 137 126 103 88 82 91 106 108 116 120 123 124 103 93 95 100 93 77 102 111 76 69 69 80 90 75 67 78 76 82 136 145 94 85 99 116 122 138 137 127 132 149 155 153 151 124 113 109 124 152 140 137 147 103 88 96 117 113 91 58 10 4 3 6 6 7 13 14 0 0 0 0 0 0 0 0 0 0 0 0 0 0 0 0 0 0 0 0 0 0 0 0 0 0 0 0 0 0 0 
0 0 0 0 0 0 0 0 0 0 6 15 4 8 16 69 120 152 108 114 101 94 106 111 98 106 82 101 153 137 114 104 90 97 116 132 135 130 126 124 125 122 111 97 91 100 95 97 99 80 68 71 83 93 83 69 79 80 91 151 132 95 96 105 119 129 159 175 181 172 155 160 139 112 104 98 130 155 159 127 145 139 108 97 143 132 109 90 52 8 8 7 11 6 7 13 15 0 0 0 0 0 0 0 0 0 0 0 0 0 0 0 0 0 0 0 0 0 0 0 0 0 0 0 0 0 0 0 
0 0 0 0 0 0 0 0 0 0 3 10 7 8 10 57 105 154 123 112 104 92 104 127 124 112 86 95 148 133 115 121 127 116 99 121 137 125 114 114 119 116 94 92 85 95 93 90 109 88 74 68 83 94 88 74 87 88 91 122 108 90 98 112 116 108 130 156 164 158 170 152 145 109 87 131 135 143 160 151 158 156 126 118 158 129 110 88 42 7 4 1 13 9 7 14 15 0 0 0 0 0 0 0 0 0 0 0 0 0 0 0 0 0 0 0 0 0 0 0 0 0 0 0 0 0 0 0 
0 0 0 0 0 0 0 0 0 0 1 7 11 9 13 45 87 148 136 121 119 116 111 140 139 113 102 119 147 143 135 140 146 138 120 106 125 122 113 103 95 90 93 94 81 86 109 103 102 91 85 77 78 104 89 96 96 97 89 107 115 98 105 108 98 97 130 144 154 157 160 171 160 115 86 118 123 126 167 176 161 184 164 141 165 148 124 78 28 8 4 5 6 9 8 14 15 0 0 0 0 0 0 0 0 0 0 0 0 0 0 0 0 0 0 0 0 0 0 0 0 0 0 0 0 0 0 0 
0 0 0 0 0 0 0 0 0 0 0 7 9 3 4 28 84 143 142 129 143 151 147 151 147 128 128 152 143 147 139 148 163 156 118 89 119 135 127 123 117 100 100 102 96 90 114 96 87 89 87 81 79 114 105 92 93 99 97 95 108 112 99 80 78 92 121 140 149 143 154 178 148 104 101 102 126 141 172 180 146 159 155 168 159 148 103 62 17 2 6 2 5 10 7 14 14 0 0 0 0 0 0 0 0 0 0 0 0 0 0 0 0 0 0 0 0 0 0 0 0 0 0 0 0 0 0 0 
0 0 0 0 0 0 0 0 0 0 0 4 5 6 5 8 44 118 149 134 139 155 178 150 142 139 122 127 140 137 158 151 152 182 158 130 133 135 111 111 117 113 109 106 106 99 107 102 95 89 89 93 97 110 109 100 87 92 101 99 102 107 100 80 80 95 100 125 147 149 144 167 159 127 108 104 115 138 162 189 169 138 124 141 149 150 122 69 12 0 4 2 5 8 8 15 14 0 0 0 0 0 0 0 0 0 0 0 0 0 0 0 0 0 0 0 0 0 0 0 0 0 0 0 0 0 0 0 
0 0 0 0 0 0 0 0 0 0 0 7 3 4 5 5 29 101 154 143 136 156 148 150 148 153 154 135 131 104 129 150 155 179 170 148 143 131 95 78 93 103 101 113 103 92 106 97 96 85 92 104 86 108 101 94 87 94 96 100 93 82 69 80 90 100 111 123 152 154 150 143 114 107 109 122 130 153 161 173 156 153 135 120 128 135 100 44 5 0 5 2 5 7 8 14 13 0 0 0 0 0 0 0 0 0 0 0 0 0 0 0 0 0 0 0 0 0 0 0 0 0 0 0 0 0 0 0 
0 0 0 0 0 0 0 0 0 0 0 7 4 5 5 6 21 75 151 152 120 126 143 139 151 153 143 133 134 101 87 115 146 163 174 159 151 133 89 61 68 78 88 107 95 99 109 82 93 104 121 121 82 101 105 103 88 77 86 81 78 70 85 88 110 127 119 117 147 154 124 111 116 130 138 145 143 152 159 171 137 167 153 130 126 140 83 23 3 1 6 0 6 6 8 14 13 0 0 0 0 0 0 0 0 0 0 0 0 0 0 0 0 0 0 0 0 0 0 0 0 0 0 0 0 0 0 0 
0 0 0 0 0 0 0 0 0 0 0 8 6 8 4 7 18 52 132 159 134 131 137 139 146 134 128 131 145 115 112 99 117 147 165 170 152 134 105 81 66 62 64 79 74 77 89 71 100 138 139 131 108 127 144 136 93 64 69 55 63 78 120 139 133 120 111 115 130 121 98 93 120 144 158 146 143 159 164 157 116 129 173 173 157 115 61 13 6 7 6 0 4 7 8 14 13 0 0 0 0 0 0 0 0 0 0 0 0 0 0 0 0 0 0 0 0 0 0 0 0 0 0 0 0 0 0 0 
0 0 0 0 0 0 0 0 0 0 0 5 12 8 1 3 16 25 98 153 119 119 121 127 142 131 109 111 135 147 131 98 91 102 146 155 153 133 121 114 92 79 79 87 74 84 111 98 115 109 105 122 132 140 155 140 114 80 85 75 85 133 141 143 130 120 107 98 89 95 97 114 155 172 175 156 143 151 163 152 128 143 148 172 137 90 33 12 8 11 7 0 2 8 9 14 13 0 0 0 0 0 0 0 0 0 0 0 0 0 0 0 0 0 0 0 0 0 0 0 0 0 0 0 0 0 0 0 
0 0 0 0 0 0 0 0 0 0 0 1 12 10 1 7 15 14 67 134 110 112 112 129 129 121 121 111 105 126 139 115 104 91 118 150 166 157 119 110 100 107 108 109 103 108 128 116 101 79 92 96 110 125 138 126 108 100 112 109 114 136 135 132 126 117 91 66 80 118 105 150 149 146 143 133 127 163 186 157 150 129 140 145 112 63 18 13 7 14 9 0 2 8 8 14 12 0 0 0 0 0 0 0 0 0 0 0 0 0 0 0 0 0 0 0 0 0 0 0 0 0 0 0 0 0 0 0 
0 0 0 0 0 0 0 0 0 0 0 0 4 7 4 5 15 12 41 114 140 112 110 137 130 114 125 137 129 121 136 134 112 109 98 114 132 143 127 113 114 122 115 110 100 101 114 106 110 115 121 110 129 147 136 134 132 121 121 114 113 134 143 129 119 97 57 58 84 134 130 110 130 123 131 126 136 179 170 149 145 125 137 138 96 43 14 14 10 11 10 1 3 7 8 13 12 0 0 0 0 0 0 0 0 0 0 0 0 0 0 0 0 0 0 0 0 0 0 0 0 0 0 0 0 0 0 0 
0 0 0 0 0 0 0 0 0 0 0 0 0 1 2 5 16 14 23 82 139 111 102 119 141 123 129 150 153 141 128 152 151 119 92 102 96 85 96 120 121 116 105 100 110 128 130 139 146 141 137 140 160 169 158 149 147 155 154 147 142 157 158 147 136 96 69 73 95 134 128 127 132 140 134 140 147 169 145 159 147 118 95 135 75 28 14 14 9 6 10 4 6 6 8 13 11 0 0 0 0 0 0 0 0 0 0 0 0 0 0 0 0 0 0 0 0 0 0 0 0 0 0 0 0 0 0 0 
0 0 0 0 0 0 0 0 0 0 1 2 0 0 2 5 15 17 17 51 117 133 102 106 138 144 130 147 170 162 142 126 137 134 112 94 75 73 81 99 136 126 117 120 139 147 141 148 153 134 136 160 174 155 152 155 157 166 162 150 143 151 156 145 135 137 125 106 139 118 125 127 130 146 131 143 146 162 142 165 124 84 81 96 51 18 11 8 4 2 1 2 2 4 8 13 11 0 0 0 0 0 0 0 0 0 0 0 0 0 0 0 0 0 0 0 0 0 0 0 0 0 0 0 0 0 0 0 
0 0 0 0 0 0 0 0 0 0 3 5 5 4 4 4 8 15 17 36 81 129 109 98 122 148 146 138 154 152 146 130 110 119 124 122 104 85 82 86 108 132 132 118 131 133 127 149 175 150 147 171 160 144 115 122 116 134 141 156 145 148 186 151 142 161 158 157 149 121 122 123 126 133 135 136 137 165 157 157 96 93 100 81 47 17 11 4 3 2 0 0 1 5 8 13 11 0 0 0 0 0 0 0 0 0 0 0 0 0 0 0 0 0 0 0 0 0 0 0 0 0 0 0 0 0 0 0 
0 0 0 0 0 0 0 0 0 0 1 5 10 9 3 1 8 10 14 25 76 128 124 103 103 124 142 147 126 129 140 128 120 106 104 107 116 122 122 128 129 151 167 151 128 131 130 158 177 159 143 137 128 139 119 107 96 104 111 138 130 158 198 187 160 152 161 161 156 125 119 110 104 115 124 148 147 154 158 131 108 111 108 96 53 18 6 2 1 4 1 0 1 4 8 13 10 0 0 0 0 0 0 0 0 0 0 0 0 0 0 0 0 0 0 0 0 0 0 0 0 0 0 0 0 0 0 0 
0 0 0 0 0 0 0 0 0 0 0 2 10 15 5 4 5 11 16 17 52 120 103 97 87 98 106 124 133 107 104 94 120 107 104 103 107 128 144 150 153 172 195 187 164 137 145 161 176 183 142 115 122 125 145 135 112 108 108 113 102 152 171 190 180 159 176 173 169 121 95 81 78 94 120 171 173 176 156 75 62 65 113 95 35 17 3 1 0 2 4 1 1 6 9 13 10 0 0 0 0 0 0 0 0 0 0 0 0 0 0 0 0 0 0 0 0 0 0 0 0 0 0 0 0 0 0 0 
0 0 0 0 0 0 0 0 0 0 0 4 10 12 6 3 4 18 16 15 24 93 113 73 75 83 80 105 139 121 120 112 111 106 91 108 126 130 125 118 125 162 181 189 186 162 144 163 186 188 145 139 142 126 118 123 120 120 124 119 117 171 197 198 170 168 180 167 162 95 58 69 79 96 132 175 178 178 137 59 27 29 91 69 19 15 9 3 4 5 9 7 5 9 13 13 9 0 0 0 0 0 0 0 0 0 0 0 0 0 0 0 0 0 0 0 0 0 0 0 0 0 0 0 0 0 0 0 
0 0 0 0 0 0 0 0 0 0 0 2 12 10 12 12 11 11 12 13 17 47 111 71 62 69 83 104 155 167 172 135 108 119 91 65 66 83 93 108 114 145 161 166 194 184 159 153 166 169 149 152 154 161 146 127 121 126 129 131 132 170 182 178 161 144 155 143 171 118 111 106 111 116 123 171 126 146 114 60 35 69 108 32 14 7 14 4 5 3 1 1 12 9 9 12 9 0 0 0 0 0 0 0 0 0 0 0 0 0 0 0 0 0 0 0 0 0 0 0 0 0 0 0 0 0 0 0 
0 0 0 0 0 0 0 0 0 0 0 0 12 11 9 10 7 3 10 13 20 27 70 68 56 57 62 110 154 153 180 169 136 135 134 96 82 86 92 100 96 132 132 129 163 186 171 158 153 168 174 178 188 178 176 179 170 150 125 121 109 125 146 131 109 116 137 166 171 202 151 149 137 127 106 128 82 105 107 89 81 102 52 19 18 1 1 5 2 1 1 6 5 5 6 12 8 0 0 0 0 0 0 0 0 0 0 0 0 0 0 0 0 0 0 0 0 0 0 0 0 0 0 0 0 0 0 0 
0 0 0 0 0 0 0 0 0 0 0 0 4 7 2 1 2 2 2 13 16 21 40 62 34 42 67 72 85 111 142 160 139 137 154 134 135 130 107 103 122 148 144 182 190 203 206 201 186 179 174 176 170 158 159 157 148 160 174 183 175 158 177 166 170 219 185 194 153 184 175 175 152 110 82 110 83 77 72 84 72 41 16 9 21 5 0 0 2 2 6 7 5 3 5 12 6 0 0 0 0 0 0 0 0 0 0 0 0 0 0 0 0 0 0 0 0 0 0 0 0 0 0 0 0 0 0 0 
0 0 0 0 0 0 0 0 0 0 0 0 0 5 1 0 1 1 0 10 14 14 34 52 67 74 70 50 67 55 81 115 106 105 128 132 100 103 103 101 125 134 140 183 180 184 175 180 187 214 204 203 197 182 176 166 170 166 161 170 196 229 209 162 162 202 159 122 190 183 135 112 95 90 95 114 85 77 46 36 38 42 33 18 22 0 0 0 0 0 0 8 6 2 5 12 6 0 0 0 0 0 0 0 0 0 0 0 0 0 0 0 0 0 0 0 0 0 0 0 0 0 0 0 0 0 0 0 
0 0 0 0 0 0 0 0 0 0 0 0 0 4 7 6 1 2 3 4 11 15 19 24 43 84 53 35 57 45 60 94 67 66 88 143 112 66 66 57 51 73 106 80 128 127 176 121 118 138 142 141 142 112 109 121 128 130 117 101 90 98 110 91 117 129 89 45 47 55 59 60 68 76 95 122 62 60 28 26 31 29 22 7 1 0 2 0 0 0 0 8 9 2 6 12 7 0 0 0 0 0 0 0 0 0 0 0 0 0 0 0 0 0 0 0 0 0 0 0 0 0 0 0 0 0 0 0 
0 0 0 0 0 0 0 0 0 0 0 0 0 0 7 7 3 0 2 3 6 11 15 16 19 22 27 27 52 44 56 96 53 33 46 76 105 65 72 79 69 52 57 54 57 67 88 90 100 111 88 77 102 113 119 99 75 78 86 98 106 110 111 104 82 80 68 90 101 100 61 75 90 73 81 112 49 56 29 29 31 28 19 6 0 0 0 0 2 5 6 8 2 1 5 11 7 0 0 0 0 0 0 0 0 0 0 0 0 0 0 0 0 0 0 0 0 0 0 0 0 0 0 0 0 0 0 0 
0 0 0 0 0 0 0 0 0 0 0 0 0 0 0 0 0 0 0 0 4 9 9 18 23 23 23 34 55 50 48 84 62 34 41 56 104 132 86 65 108 124 101 90 90 85 97 112 109 90 66 70 93 108 100 84 69 74 73 101 129 124 95 91 128 138 61 37 129 102 84 73 46 46 58 89 40 49 33 32 32 24 16 11 1 0 0 0 1 3 4 2 0 1 4 10 7 0 0 0 0 0 0 0 0 0 0 0 0 0 0 0 0 0 0 0 0 0 0 0 0 0 0 0 0 0 0 0 
0 0 0 0 0 0 0 0 0 0 0 0 0 0 0 0 0 0 0 0 0 2 6 7 19 24 26 57 76 76 74 80 84 50 47 55 126 139 128 122 172 152 113 114 132 164 156 145 110 97 86 103 113 135 135 145 145 135 127 127 130 161 112 151 145 169 130 101 174 143 85 97 84 68 46 72 40 36 21 23 18 17 5 13 3 0 0 0 0 0 0 0 0 0 1 6 6 0 0 0 0 0 0 0 0 0 0 0 0 0 0 0 0 0 0 0 0 0 0 0 0 0 0 0 0 0 0 0 
0 0 0 0 0 0 0 0 0 0 0 0 0 0 0 0 0 0 0 0 0 0 0 5 13 18 13 52 78 100 98 94 83 74 75 60 109 141 104 73 168 136 140 149 195 198 165 144 149 153 132 140 164 189 187 187 194 183 150 110 121 161 116 116 133 166 163 130 133 133 110 123 84 48 34 61 31 18 8 5 8 10 0 0 0 0 0 0 0 0 0 0 0 0 1 4 4 0 0 0 0 0 0 0 0 0 0 0 0 0 0 0 0 0 0 0 0 0 0 0 0 0 0 0 0 0 0 0 
0 0 0 0 0 0 0 0 0 0 0 0 0 0 0 0 0 0 0 0 0 1 2 5 12 19 11 22 45 74 68 65 61 33 38 47 79 116 121 85 116 105 111 92 114 127 126 130 136 164 162 162 185 177 182 147 165 164 187 181 171 164 112 96 124 141 126 121 145 149 129 41 19 13 16 76 47 19 18 16 11 11 9 1 0 0 0 0 0 0 0 2 4 10 18 24 18 0 0 0 0 0 0 0 0 0 0 0 0 0 0 0 0 0 0 0 0 0 0 0 0 0 0 0 0 0 0 0 
0 0 0 0 0 0 0 0 0 0 0 0 0 0 0 0 0 0 0 0 0 0 6 7 10 18 16 16 24 52 53 59 80 37 36 57 80 83 75 93 95 107 102 93 91 105 115 111 80 148 153 114 154 154 170 139 147 151 170 161 143 163 134 83 92 158 144 122 152 119 111 79 45 34 37 99 73 28 18 12 18 15 9 0 0 0 0 0 0 0 0 0 0 1 7 15 10 0 0 0 0 0 0 0 0 0 0 0 0 0 0 0 0 0 0 0 0 0 0 0 0 0 0 0 0 0 0 0 
0 0 0 0 0 0 0 0 0 0 0 0 0 0 0 0 0 0 0 0 0 0 1 7 7 12 17 17 18 41 54 67 91 39 48 76 97 95 71 85 88 100 105 76 79 112 110 87 66 127 140 94 141 145 141 134 146 142 150 140 105 114 79 60 82 97 92 75 62 83 104 87 57 42 41 100 73 30 18 13 18 15 6 0 0 0 0 0 0 0 0 0 0 1 7 15 8 0 0 0 0 0 0 0 0 0 0 0 0 0 0 0 0 0 0 0 0 0 0 0 0 0 0 0 0 0 0 0 
0 0 0 0 0 0 0 0 0 0 0 0 0 0 0 0 0 0 0 0 0 0 0 6 7 8 16 22 18 34 56 67 96 37 58 82 75 60 54 73 68 71 99 76 73 117 129 112 91 103 111 90 131 146 128 116 121 103 111 117 98 116 91 71 96 78 101 93 65 63 80 101 80 75 66 101 76 30 17 15 17 12 5 0 0 0 0 0 0 0 0 0 0 1 6 14 7 0 0 0 0 0 0 0 0 0 0 0 0 0 0 0 0 0 0 0 0 0 0 0 0 0 0 0 0 0 0 0 
0 0 0 0 0 0 0 0 0 0 0 0 0 0 0 0 0 0 0 0 0 0 0 2 9 7 14 19 19 28 43 57 99 36 66 84 57 33 36 45 54 84 97 81 74 119 129 94 91 109 84 71 103 118 109 89 79 67 68 70 97 147 125 101 101 68 86 101 90 65 54 80 80 73 81 104 75 36 15 16 16 10 4 0 0 0 0 0 0 0 0 0 0 0 6 14 6 0 0 0 0 0 0 0 0 0 0 0 0 0 0 0 0 0 0 0 0 0 0 0 0 0 0 0 0 0 0 0 
0 0 0 0 0 0 0 0 0 0 0 0 0 0 0 0 0 0 0 0 0 0 0 0 5 7 9 16 19 30 38 49 106 49 69 90 51 27 35 43 83 98 101 77 84 119 120 75 95 120 92 73 83 94 93 88 80 57 51 62 101 109 124 123 116 76 81 99 115 84 53 57 87 70 78 106 72 40 17 17 16 10 2 0 0 0 0 0 0 0 0 0 0 0 5 14 5 0 0 0 0 0 0 0 0 0 0 0 0 0 0 0 0 0 0 0 0 0 0 0 0 0 0 0 0 0 0 0 
0 0 0 0 0 0 0 0 0 0 0 0 0 0 0 0 0 0 0 0 0 0 0 0 1 4 9 12 17 26 36 43 109 55 81 105 52 30 33 54 99 89 77 65 84 113 122 76 89 110 92 96 87 81 69 86 80 64 60 79 118 92 95 133 144 94 59 76 108 108 54 47 89 100 82 101 73 37 16 16 18 8 1 0 0 0 0 0 0 0 0 0 0 0 4 14 5 0 0 0 0 0 0 0 0 0 0 0 0 0 0 0 0 0 0 0 0 0 0 0 0 0 0 0 0 0 0 0 
0 0 0 0 0 0 0 0 0 0 0 0 0 0 0 0 0 0 0 0 0 0 0 0 0 3 5 11 15 19 38 53 91 79 90 100 43 30 32 66 104 77 67 58 70 111 126 77 79 86 82 98 99 76 66 79 82 77 81 98 114 86 73 105 143 78 46 51 82 111 64 50 72 117 101 89 53 24 14 17 19 9 1 0 0 0 0 0 0 0 0 0 0 0 6 14 4 0 0 0 0 0 0 0 0 0 0 0 0 0 0 0 0 0 0 0 0 0 0 0 0 0 0 0 0 0 0 0 
0 0 0 0 0 0 0 0 0 0 0 0 0 0 0 0 0 0 0 0 0 0 0 0 0 2 2 8 15 19 21 23 37 75 69 69 39 34 36 68 93 71 72 59 69 110 124 77 79 87 78 93 99 94 79 72 83 98 102 87 82 68 59 91 136 81 47 50 69 110 69 46 50 95 104 48 20 13 15 19 19 9 1 0 0 0 0 0 0 0 0 0 0 0 4 14 3 0 0 0 0 0 0 0 0 0 0 0 0 0 0 0 0 0 0 0 0 0 0 0 0 0 0 0 0 0 0 0 
0 0 0 0 0 0 0 0 0 0 0 0 0 0 0 0 0 0 0 0 0 0 0 0 0 0 4 1 12 18 20 18 14 16 15 50 44 41 47 90 100 60 59 57 76 103 121 82 79 86 68 79 89 90 81 85 102 105 96 73 65 73 72 83 124 85 50 41 51 116 100 53 44 63 54 20 15 12 15 19 18 7 1 0 0 0 0 0 0 0 0 0 0 0 5 13 3 0 0 0 0 0 0 0 0 0 0 0 0 0 0 0 0 0 0 0 0 0 0 0 0 0 0 0 0 0 0 0 
0 0 0 0 0 0 0 0 0 0 0 0 0 0 0 0 0 0 0 0 0 0 0 0 0 0 0 2 8 15 20 18 12 10 13 35 64 59 70 116 115 61 47 55 75 102 99 73 83 81 71 80 102 107 106 102 99 97 93 78 88 89 73 81 115 101 53 37 50 118 134 80 66 72 33 16 15 12 16 19 16 6 1 0 0 0 0 0 0 0 0 0 0 0 4 12 3 0 0 0 0 0 0 0 0 0 0 0 0 0 0 0 0 0 0 0 0 0 0 0 0 0 0 0 0 0 0 0 
0 0 0 0 0 0 0 0 0 0 0 0 0 0 0 0 0 0 0 0 0 0 0 0 0 0 0 1 5 9 18 18 15 10 11 14 35 68 82 111 116 68 44 50 98 123 105 70 64 74 67 71 85 95 94 90 96 105 98 88 112 121 76 78 107 119 73 36 50 113 130 87 70 42 21 12 13 13 17 19 14 4 0 0 0 0 0 0 0 0 0 0 0 0 4 13 3 0 0 0 0 0 0 0 0 0 0 0 0 0 0 0 0 0 0 0 0 0 0 0 0 0 0 0 0 0 0 0 
0 0 0 0 0 0 0 0 0 0 0 0 0 0 0 0 0 0 0 0 0 0 0 0 0 0 0 2 4 8 12 19 18 14 11 14 10 18 34 60 113 96 58 57 107 123 101 82 65 82 77 64 77 91 95 98 105 101 105 97 88 89 80 83 103 128 94 54 68 118 93 44 30 26 18 11 13 12 17 19 14 4 0 0 0 0 0 0 0 0 0 0 0 0 3 13 3 0 0 0 0 0 0 0 0 0 0 0 0 0 0 0 0 0 0 0 0 0 0 0 0 0 0 0 0 0 0 0 
0 0 0 0 0 0 0 0 0 0 0 0 0 0 0 0 0 0 0 0 0 0 0 0 0 0 0 0 3 8 10 15 15 15 11 9 14 14 21 35 86 119 93 80 112 106 95 89 70 81 72 68 81 91 95 102 105 96 104 108 101 94 88 100 108 113 97 80 101 115 52 31 27 23 16 11 13 12 16 16 12 4 1 0 0 0 0 0 0 0 0 0 0 0 2 12 2 0 0 0 0 0 0 0 0 0 0 0 0 0 0 0 0 0 0 0 0 0 0 0 0 0 0 0 0 0 0 0 
0 0 0 0 0 0 0 0 0 0 0 0 0 0 0 0 0 0 0 0 0 0 0 0 0 0 0 0 2 7 9 11 15 14 15 8 10 14 22 30 41 91 122 100 97 83 96 93 92 99 90 84 88 89 84 86 88 90 102 107 109 103 87 106 114 96 97 105 115 60 32 29 25 21 16 9 12 10 13 14 11 3 1 0 0 0 0 0 0 0 0 0 0 0 2 11 2 0 0 0 0 0 0 0 0 0 0 0 0 0 0 0 0 0 0 0 0 0 0 0 0 0 0 0 0 0 0 0 
0 0 0 0 0 0 0 0 0 0 0 0 0 0 0 0 0 0 0 0 0 0 0 0 0 0 0 0 0 7 10 11 12 16 13 10 6 15 22 29 34 36 52 72 75 72 92 104 99 95 91 89 85 80 73 71 69 74 85 94 99 110 107 109 116 90 80 73 43 29 29 31 25 19 15 12 12 10 12 13 10 3 1 0 0 0 0 0 0 0 0 0 0 0 3 12 3 0 0 0 0 0 0 0 0 0 0 0 0 0 0 0 0 0 0 0 0 0 0 0 0 0 0 0 0 0 0 0 
0 0 0 0 0 0 0 0 0 0 0 0 0 0 0 0 0 0 0 0 0 0 0 0 0 0 0 0 0 4 7 12 9 15 14 8 7 18 20 27 34 38 32 42 62 76 73 92 97 86 76 66 58 56 59 62 65 67 75 78 87 97 108 102 96 80 71 56 41 31 26 31 23 16 13 12 12 8 13 14 9 2 1 0 0 0 0 0 0 0 0 0 0 0 2 12 2 0 0 0 0 0 0 0 0 0 0 0 0 0 0 0 0 0 0 0 0 0 0 0 0 0 0 0 0 0 0 0 
